<svg xmlns="http://www.w3.org/2000/svg" viewBox="38.937 -32.119 945.450 1088.122">
    <path fill="#000000" d="M464.843 351.645c3.46-3.618 3.777-7 8.496-9.675 2.163-1.22 4.72-2.675 7.236-3.304 3.696-0.902 7.394-0.328 11.129-1.021 4.679-0.864 8.691-1.768 13.607-1.729 6.725 0.029 13.489 0.029 20.254 0 9.007-0.058 15.456 3.774 23.675 7 7.707 3.067 15.22 6.84 22.22 11.050 4.444 2.675 10.303 5.504 12.113 11.127 2.047 6.371 3.265 13.215 5.505 19.783 0.393 1.18 1.376 2.323 1.732 3.777 0.471 1.808-0.029 3.774 0.435 5.703 0.785 3.067 2.988 6.88 3.501 9.519 1.415 7.077 0.512 15.14 0.512 22.453 0 8.965 1.612 18.564-2.791 26.546-2.95 5.269-7.197 9.831-10.421 14.826-3.067 4.678-7.787 8.14-11.091 12.622-1.063 1.415-0.551 3.385-1.651 4.876-1.22 1.653-3.933 2.24-5.545 3.501-4.797 3.738-8.77 7.63-14.158 10.854-7.276 4.367-14.237 12.666-22.259 15.773-15.652 6.134-37.556 2.709-54.076 2.709-9.831 0-19.389 0.594-28.747-2.751-11.012-3.933-19.389-11.13-28.079-18.444-6.45-5.428-10.344-8.693-12.859-16.992-1.651-5.582-1.691-10.42-1.691-16.476 0.029-4.682-1.456-12.783 0.353-16.992 5.27-0.862 10.028-2.593 15.377-2.556 9.911 0.058 16.086 4.089 24.854 9.006 6.449 3.618 10.972 8.848 17.893 11.837 6.331 2.755 13.647 3.973 20.175 5.625 6.016 1.572 13.449 0.509 19.742 0.509 7.236 0 15.457 1.063 22.533-0.509 8.613-1.889 21.591-8.533 26.9-15.613 8.455-11.207 11.917-26.034 11.798-39.955-0.029-6.607-0.029-13.255 0-19.864 0.087-7.314-2.755-12.738-7.236-18.521-2.911-3.777-8.613-7.157-12.9-9.006-5.033-2.167-10.067-1.772-15.809-2.167-5.505-0.328-9.949-2.32-15.731-2.283-7.433 0.029-13.175-1.138-20.293-2.357-5.898-1.021-13.057 0.116-19.074 0.116-6.409 0-11.208-0.291-16.753 2.24-5.822 2.635-12.348 4.209-18.208 6.724-4.405 1.889-8.692 4.643-12.9 6.531-2.713-5.625 4.366-14.278 7.905-18.327 2.163-2.44 5.27-6.059 7.905-7.982 2.32-1.691 5.978-1.691 8.377-3.148 13.765-8.14 30.557-14.394 46.090-17.617 3.265-0.669 7.080 0.98 10.303 0.175 3.54-0.864 4.404-2.716 8.888-2.4 7.591 0.509 14.905 4.483 21.866 7.431 6.568 2.755 13.018 4.487 19.112 7.75 4.207 2.24 14.119 6.921 15.22 11.837z"></path>
    <path fill="#000000" d="M674.331 349.363c-6.961-0.944 1.691-10.264 4.011-12.702 5.545-5.703 10.737-7.707 17.815-10.346 2.832-1.060 5.27-3.537 8.142-4.402 3.225-0.984 6.371-0.116 9.556-0.827 6.45-1.415 12.506-4.483 19.074-5.465 11.876-1.772 27.215 7.193 37.952 11.68 8.495 3.537 19.389 9.476 26.191 16.398 3.814 3.854 6.764 10.144 7.865 15.493 0.669 3.226-0.629 6.764 0.116 9.951 0.785 3.459 2.476 4.166 2.911 8.18 0.318 2.751-0.291 5.702-0.116 8.456 0.233 3.893 1.769 6.095 2.556 9.831 1.257 5.938 0.512 13.529 0.291 19.663-0.435 10.618-6.686 21.199-12.978 30.164-6.843 9.675-11.955 14.826-22.652 20.921-11.091 6.371-22.299 11.010-34.687 15.416-5.27 1.889-11.012 2.124-16.95 3.501-6.804 1.612-12.664 1.768-19.112 0-10.933-2.951-23.989-1.849-34.805-7.629-10.5-5.545-20.253-15.059-22.574-27.373-1.021-5.465-0.233-11.403 2.832-15.453 4.208-5.428 8.848-4.13 15.023-4.169 6.528-0.029 12.741 1.26 18.878 3.067 2.044 0.591 3.224 2.047 5.585 2.635 3.459 0.864 7.432-0.704 10.972 0.116 5.742 1.336 11.602 4.247 17.893 2.716 2.283-0.552 4.326-2.167 6.568-2.951 3.067-1.021 6.687-1.34 9.793-2.794 10.264-4.836 24.422-6.921 30.636-18.994 1.849-3.618 1.651-4.523 1.849-9.045 0.145-3.893 1.808-6.176 2.556-9.791 1.535-7.12 0.087-13.844-2.163-19.86-4.798-13.099-14.079-20.452-24.776-27.886-10.619-7.353-22.534-6.921-35.513-6.921-7.276 0-14.551 0-21.828 0-3.067 0-6.489-0.475-9.518-0.058-4.248 0.469-7.865 3.657-1.376 8.493z"></path>
    <path fill="#000000" d="M236.676 320.811c3.973-0.944 6.606-6.41 10.302-8.493 8.063-4.562 17.264-5.706 26.073-5.664 7.276 0.029 14.237-0.261 21.198 1.376 7.198 1.732 15.927 2.911 22.81 5.586 5.27 2.044 11.876 5.112 16.832 7.71 3.578 1.849 5.898 6.527 8.966 9.162 3.422 2.99 7.669 4.286 10.108 8.732 1.927 3.537 4.797 9.596 5.939 13.369 0.944 3.187 0.393 6.255 1.769 9.403 1.14 2.675 3.147 4.089 3.973 6.84 0.864 2.716 1.535 7.041 2.283 10.068 0.551 2.36 1.885 5.897 2.2 7.671 0.471 2.635-0.087 5.504 0.435 8.024 0.708 3.343 2.32 4.6 2.755 8.296 1.612 13.371-2.949 25.016-8.416 36.221-4.72 9.675-11.602 18.444-21.080 23.005-5.742 2.751-10.421 6.764-15.888 9.635-7.747 4.089-17.893 3.459-26.073 5.112-13.214 2.635-28.355 5.465-41.136-1.063-6.214-3.148-13.332-4.13-19.9-7-5.978-2.593-10.657-6.176-15.85-9.908-10.933-7.866-15.534-18.879-15.456-33.27 0.087-9.911-2.163-28.592 8.888-31.266 4.561-1.103 12.82-0.512 16.281 3.58 0.944 1.097 2.163 5.032 2.95 6.684 1.769 3.576 3.185 7.55 5.074 11.050 3.54 6.689 8.888 10.582 15.298 13.529 6.881 3.148 13.685 0.711 20.608 2.716 6.293 1.808 11.209 2.084 17.893 2.163 6.764 0.116 11.564-2.791 17.933-4.953 5.505-1.849 12.664-3.857 16.479-9.166 3.737-5.189 3.224-9.201 3.855-15.613 0.785-7.862 4.207-14.118 2.44-22.649-1.376-6.728-1.889-14.752-5.545-20.61-3.658-5.858-8.809-14.002-14.668-16.988-4.641-2.283-9.202-4.13-13.765-6.647-5.191-2.871-11.012-5.388-15.731-9.162-6.489-5.192-11.404-8.613-19.191-10.303-6.253-1.376-10.737-2.829-17.854-2.829-2.755 0-6.371-0.751-9.045-0.116-3.028 0.751-5.387 4.013-3.737 5.781z"></path>
    <path fill="#000000" d="M550.282 616.947c-0.116 5.858 3.855 9.712 1.808 15.809-2.203 6.488-7.433 7.55-13.057 8.845-5.742 1.34-11.365 4.013-17.5 1.889-3.776-1.336-10.146-6.805-12.388-10.264-5.585-8.533-5.191-24.185-3.893-34.333 1.257-9.791 10.146-16.752 15.888-24.655 6.096-8.536 14.394-17.028 22.338-24.189 8.218-7.353 15.22-17.538 25.367-22.494 9.399-4.562 17.382-10.381 24.737-17.971 3.539-3.661 8.455-5.706 12.782-7.908 4.915-2.518 10.579-1.651 15.259-3.501 1.493 2.593 3.893 1.34 6.213 2.047 2.518 0.747 5.742 2.283 8.024 3.738 5.308 3.459 8.809 6.055 11.681 11.837 2.32 4.682 4.13 9.085 6.724 13.412 2.988 4.915 5.78 9.438 8.181 14.748 4.561 10.109 9.202 20.136 14.315 30.283 2.95 5.858 4.759 11.756 6.725 17.971 2.163 6.764 2.044 13.292 4.561 20.252 2.2 6.018 1.257 11.996 3.342 17.974 2.791 8.063 4.325 16.278 6.175 24.578 2.635 11.444 1.1 24.462 1.1 36.258 0.029 2.559 0.708 6.531 0.145 8.968-0.471 1.849-2.084 2.44-2.518 4.286-0.669 2.987 0.435 6.018-0.353 9.123-0.827 3.067-0.984 6.018-1.653 9.084-0.905 4.247-3.54 8.769-4.561 13.255-1.456 6.408-4.325 11.403-7.040 16.949-4.366 8.929-9.753 18.010-15.495 25.877-5.898 8.14-12.859 18.247-22.022 22.298-2.911-9.908-1.22-26.19 1.299-35.785 0.785-2.99 0.393-5.742 0.435-8.848 0.087-4.72 1.651-8.536 2.36-13.136 0.629-3.893 1.769-7.866 2.32-11.84 0.393-2.871-0.708-5.975-0.233-8.809 1.257-7.59 2.518-15.221 4.13-22.69 1.336-6.331 2.791-13.451 2.713-20.019-0.087-7.55 0-15.14 0-22.69 0-2.951 0.029-5.897 0-8.89-0.029-4.326-1.299-7.038-2.005-11.207-0.591-3.264-1.18-5.897-1.967-9.006-0.827-3.107 0.116-5.938-0.393-9.006-1.257-7.278-4.679-14.278-6.686-21.395-2.832-10.225-4.72-22.023-11.404-31.266-5.86-8.024-16.281-14.826-25.877-14.787-11.798 0.087-19.545 3.973-28.041 12.625-3.618 3.696-7.747 7.077-11.287 10.97-4.011 4.326-6.999 9.363-11.247 13.491-3.696 3.618-8.218 8.452-9.084 13.408-0.261 1.537 0.435 3.187 0.145 4.678-0.291 1.537-1.572 2.755-1.808 3.777-0.747 3.343 0.291 7.157-0.905 10.381-0.629 0.116-1.22 0.203 2.635-4.126z"></path>
    <path fill="#000000" d="M426.617 610.22c-0.591 0.145-1.22 0.291-1.811 0.435-0.393 4.76-3.737 7.513-2.791 13.059 0.708 4.322 4.838 9.398 8.495 11.837 6.213 4.205 23.793 2.476 30.99 0.551 11.050-2.947 17.264-12.426 19.191-23.635 1.811-10.536 0.318-23.238-7.433-30.909-5.978-5.938-14.119-11.328-20.961-16.282-8.377-6.095-17.028-11.56-25.68-16.871-15.377-9.476-28.159-23.164-45.108-30.361-7.669-3.265-16.595-11.010-25.798-9.081-10.067 2.122-15.023 14.118-18.483 23.083-4.207 10.894-6.568 22.065-10.108 33.231-1.849 5.822-4.248 12.035-5.662 17.974-1.336 5.545-3.696 11.286-4.837 16.872-0.512 2.553 0.029 4.876-0.669 7.353-0.785 2.709-2.832 5.742-3.501 9.006-0.512 2.518-0.087 4.836-0.435 7.274-0.512 3.265-1.691 4.682-2.4 7.75-0.591 2.476 0.435 5.465 0.116 8.024-0.318 2.635-1.572 3.734-2.084 5.938-0.747 3.223 0.233 6.568-0.145 9.831-0.353 2.911-1.808 3.97-2.4 6.527-1.1 4.562 0.116 11.13 0.116 15.85v18.010c0 5.228 0 10.501 0 15.73-0.029 5.938 0.864 9.438 2.283 14.551 0.905 3.226 0.905 4.13 2.203 7 1.22 2.596 2.95 5.664 3.932 8.18 2.124 5.349 4.248 11.917 5.191 17.462 1.849 11.17 4.641 22.694 11.995 32.722 1.376 1.889 3.539 3.58 4.797 5.465 1.493 2.283 1.769 4.643 3.776 6.805 3.737 4.049 12.231 5.978 17.54 6.883 5.938 0.98 11.602 0.785 17.462 2.593 4.679 1.456 8.298 6.175 11.327 10.027 4.679-13.805-14.237-30.241-21.551-39.799-2.4-3.107-4.602-3.813-7.394-6.568-2.24-2.24-4.679-6.568-6.686-9.122-2.24-2.911-4.679-5.979-6.764-8.929-2.556-3.58-2.005-7.434-3.776-11.483-1.18-2.675-3.815-4.72-4.679-7.63-0.944-3.183-1.456-7.394-2.203-10.657-1.493-6.764-2.791-13.136-4.484-19.743-0.827-3.304 0.203-6.371-0.393-9.635-0.591-3.183-2.047-5.112-2.4-8.296-0.827-7.75 0.116-15.971 0.029-23.756-0.029-6.014 1.889-10.853 2.203-16.791 0.203-3.893 1.415-6.568 2.911-10.225 1.456-3.541 1.14-4.996 1.535-8.89 0.353-2.911 1.885-5.032 2.476-7.862 0.591-2.871-0.944-6.255-0.233-9.127 0.708-2.911 2.084-3.183 2.44-6.568 0.393-3.973 1.18-6.527 1.967-10.345 0.708-3.34-0.233-6.604 0.669-9.947 0.984-3.657 2.832-7.671 4.051-11.367 1.612-5.073 3.973-14.197 7.788-17.931 4.129-4.089 9.478-3.463 14.668-4.29 3.303-0.551 5.585-2.24 9.007-2.44 3.265-0.145 6.843-0.058 10.146 0.029 8.337 0.328 11.168 6.921 16.832 12.232 5.308 4.993 10.185 6.996 14.355 13.645 3.539 5.625 5.033 12.939 7.040 19.113 1.927 6.055 1.1 13.568 3.342 13.487z"></path>
    <path fill="#000000" d="M718.921 661.934c4.089-0.509 6.881-2.357 11.247-2.24 4.679 0.116 7.944-1.493 12.348-2.317 8.848-1.653 16.832-5.312 24.933-8.929 19.389-8.653 41.373-21.158 53.563-39.365 6.371-9.438 11.129-21.868 14.826-32.641 1.336-3.893 3.383-7.314 5.074-11.091 2.596-5.862 3.46-12.113 5.545-18.010 3.383-9.558 6.843-19.939 9.125-29.811 1.14-4.995 1.257-10.303 2.24-15.3 1.021-5.112-0.315-10.42 0.393-15.533 0.669-4.836 2.283-8.653 2.36-13.608 0.029-3.929 0-7.862 0-11.755v-28.747c0-16.675 0.471-33.428-2.122-49.434-0.708-4.445-2.476-6.531-2.36-11.25 0.087-4.72-0.708-6.921-1.769-11.246-1.885-7.746-3.893-14.943-7.236-22.613-2.635-6.055-5.505-11.917-8.495-17.854-1.535-3.027-2.675-5.703-4.404-8.769-3.383-6.095-6.805-12.152-10.186-18.207-4.051-7.278-7.982-13.491-12.9-20.256-3.776-5.228-8.729-9.045-12.859-13.921-4.956-5.897-9.399-13.371-16.281-16.988-8.024-4.209-13.332-6.059-22.063-7.826-0.629-0.116-4.13-1.496-4.995-1.729-1.021-0.326-3.501-0.864-4.522-1.14-3.265-0.827-6.332-0.98-10.108-1.103-4.051-0.116-7.629-0.203-4.326-4.322 2.203-2.716 7.906-2.476 11.091-2.443 10.185 0.116 20.017-0.629 29.966 1.691 9.36 2.2 18.051 5.781 26.27 10.974 18.955 11.876 40.744 24.186 52.384 44.045 3.46 5.978 5.703 13.136 9.399 19.229 4.169 6.883 8.455 13.371 10.619 21.199 2.476 8.732 7.511 15.221 10.225 23.716 2.675 8.376 5.781 16.988 7.944 25.404 3.106 11.876 4.444 24.030 6.686 35.824 1.257 6.491 1.18 13.371 2.283 19.939 1.021 6.294 0.471 12.939 0.471 19.35 0 15.179 1.1 29.574-4.561 43.929-2.675 6.88-3.696 14.355-6.175 21.434-2.283 6.527-3.342 13.211-5.427 19.624-0.984 3.107-3.067 5.424-3.855 8.613-1.257 4.836-1.811 10.42-2.44 15.377-1.535 11.403-2.283 23.006-5.152 34.178-2.596 10.184-5.034 17.891-9.99 27.096-6.409 11.797-15.061 22.217-22.574 33.386-4.561 6.685-9.163 9.006-15.849 13.448-6.213 4.13-11.72 9.403-18.406 12.979-12.741 6.844-26.427 11.17-39.877 16.323-9.831 3.734-19.466 6.724-29.809 6.684-8.455-0.029-18.052 1.849-23.124-6.647-4.72-7.943-0.591-15.689 2.871-29.338z"></path>
    <path fill="#000000" d="M291.709 621.429c-6.961 0-14.237 1.22-20.175-2.207-7.551-4.326-15.179-9.278-22.613-14.158-13.332-8.769-28.237-15.533-39.839-26.937-4.995-4.915-7.787-11.801-12.231-17.306-6.331-7.746-10.579-16.323-15.809-24.854-8.809-14.314-10.776-31.302-15.691-47.152-2.596-8.339-5.939-15.85-6.293-24.619-0.203-5.308 0.312-10.621 0.087-15.929-0.291-6.095-2.4-11.246-2.32-17.462 0.203-21.825-1.415-44.045-0.087-65.794 0.629-9.791 3.303-19.585 5.662-29.181 0.984-3.854 2.556-7.394 3.46-11.207 1.18-5.075 3.029-8.024 5.034-12.862 3.067-7.394 6.606-13.488 11.68-19.976 5.978-7.71 11.365-15.653 17.382-23.243 11.917-15.063 28.984-24.815 44.086-36.655 5.624-4.402 11.129-7.233 17.933-8.925 2.95-0.745 7.040-2.675 9.99-3.501 3.973-1.138 8.337 0.393 12.191-0.905-0.864-7.198-17.461-4.089-22.81-4.089-10.462 0-18.562 0.669-28.275 4.209-9.243 3.34-18.524 3.576-27.136 7.59-4.995 2.32-10.775 2.713-15.573 5.621-4.011 2.402-8.534 5.742-12.192 8.653-7.158 5.664-13.842 13.059-18.562 21.002-2.518 4.246-5.624 9.084-7.354 13.487-2.36 6.018-4.012 11.643-6.646 17.581-3.855 8.809-6.881 18.284-8.966 27.525-0.905 3.817-2.832 7.474-4.011 11.25-1.691 5.349-1.849 10.462-3.265 15.689-0.435 1.575-1.808 3.304-2.4 4.915-1.691 4.523-1.376 7.787-1.572 12.547-0.203 4.367-1.885 7.63-2.44 11.801-0.471 3.576 0.116 7.746 0.116 11.363 0 12.899-0.087 25.761 0.029 38.659 0.087 7.198-2.084 13.252-2.36 20.252-0.233 6.647 0.087 13.412 0.087 20.096 0 17.974-1.889 36.379 4.484 53.447 2.556 6.844 2.95 13.844 6.214 20.373 2.871 5.858 4.838 12.189 7.787 17.971 2.163 4.25 5.467 8.024 8.888 11.091 2.832 2.559 5.585 4.25 8.77 6.371 3.342 2.24 4.169 4.326 6.961 7.237 2.556 2.675 6.371 3.696 8.77 6.724 1.1 1.415 1.612 3.304 2.635 4.643 3.422 4.363 7.118 8.809 10.698 13.369 7.198 9.127 9.36 20.962 17.855 29.301 3.224 3.144 9.243 5.424 13.449 7.233 7.118 3.067 14.551 6.138 22.102 7.866 5.074 1.18 10.973 1.732 15.769 3.304 3.303 1.103 6.725 4.639 10.028 5.742 4.484 1.537 9.124 2.829 13.017 0.629 4.641-2.635 7.472-6.568 9.557-11.367 1.965-4.522 2.4-8.848 4.522-13.487 2.32-5.073 1.612-10.225-0.629-15.73z"></path>
    <path fill="#000000" d="M617.735 241.451c-0.629-0.116-1.257-0.291-1.849-0.393-3.737-13.371 9.635-26.704 19.348-33.941 5.467-4.089 10.226-5.938 16.242-8.965 5.427-2.716 9.871-6.371 15.613-8.376 8.417-2.871 16.596-5.742 25.287-8.456 8.18-2.559 16.361-3.501 24.225-6.724 5.27-2.124 11.758-3.817 16.361-6.689 3.028-1.849 5.152-5.112 8.495-6.96 3.067-1.691 4.759-2.791 7.236-4.956 5.387-4.639 6.016-9.243 8.455-15.73 1.808-4.915 4.169-10.582 4.561-15.734 0.435-6.171-1.22-10.3-2.32-15.689-1.1-5.504-1.965-10.894-4.484-15.769-4.011-7.75-7.826-15.416-14.079-21.945-1.336-1.415-2.755-4.053-3.855-5.112-2.911-2.755-2.596-1.103-6.961-2.084-1.849-0.393-4.72-1.651-6.527-2.283-3.106-1.063-5.78-1.889-8.337-4.049 2.755-0.512 4.405-2.32 7.079-2.871 2.988-0.594 7.118 0.145 10.186 0.116 5.978-0.058 11.758 2.713 17.461 5.032 5.624 2.32 9.243 8.889 12.978 0.594 2.32-5.152 2.911-12.586 10.028-12.469 7.944 0.116 7.276 7.71 4.522 12.666-3.383 6.095-6.016 10.068-4.325 17.578 0.551 2.44 1.885 5.191 2.556 8.063 0.708 2.947 2.24 6.134 3.383 8.925 2.755 6.764 7.079 14.394 7.394 21.395 0.512 12.547 0.984 25.642-6.175 36.022-1.021 1.456-2.988 3.226-3.776 4.72-0.708 1.299-0.785 3.107-1.535 4.326-1.927 3.226-5.113 4.209-7.158 7.75-3.501 6.134-7.747 13.016-12.821 18.090-9.674 9.635-25.642 15.454-38.345 19.702-3.067 1.021-5.821 1.689-8.77 3.223-4.484 2.4-9.753 2.871-13.842 5.073-1.299 0.711-4.366 3.737-5.427 4.76-3.814 3.618-5.545 5.661-10.107 8.693-8.574 5.742-14.197 14.511-21.119 21.551-5.074 5.148-11.012 6.724-18.248 6.643-8.966-0.058-15.141 0.512-22.574-5.349-5.505-4.363-7.982-12.858 1.22-10.381z"></path>
    <path fill="#000000" d="M401.381 241.451c0.512-0.116 1.021-0.291 1.535-0.393 3.029-13.371-7.905-26.704-15.809-33.941-4.484-4.089-8.377-5.938-13.253-8.965-4.484-2.716-8.062-6.371-12.782-8.376-6.881-2.871-13.529-5.742-20.647-8.456-6.686-2.559-13.371-3.501-19.821-6.724-4.286-2.124-9.596-3.817-13.332-6.689-2.476-1.849-4.207-5.112-6.961-6.96-2.518-1.691-3.893-2.791-5.899-4.956-4.366-4.639-4.915-9.243-6.881-15.73-1.535-4.915-3.422-10.582-3.737-15.734-0.353-6.171 0.984-10.3 1.885-15.689 0.905-5.504 1.612-10.894 3.658-15.769 3.265-7.75 6.371-15.416 11.483-21.945 1.1-1.415 2.283-4.053 3.185-5.112 2.36-2.755 2.084-1.103 5.662-2.084 1.493-0.393 3.855-1.651 5.349-2.283 2.518-1.063 4.72-1.889 6.804-4.049-2.24-0.512-3.618-2.32-5.78-2.871-2.44-0.594-5.822 0.145-8.337 0.116-4.877-0.058-9.597 2.713-14.276 5.032-4.56 2.32-7.511 8.889-10.579 0.594-1.889-5.152-2.4-12.586-8.18-12.469-6.489 0.116-5.938 7.71-3.696 12.666 2.755 6.095 4.916 10.068 3.54 17.578-0.471 2.44-1.535 5.191-2.084 8.063-0.591 2.947-1.849 6.134-2.755 8.925-2.24 6.764-5.822 14.394-6.057 21.395-0.435 12.547-0.827 25.642 5.033 36.022 0.827 1.456 2.44 3.226 3.106 4.72 0.551 1.299 0.629 3.107 1.22 4.326 1.572 3.226 4.169 4.209 5.86 7.75 2.871 6.134 6.332 13.016 10.462 18.090 7.905 9.635 20.961 15.454 31.303 19.702 2.518 1.021 4.798 1.689 7.198 3.223 3.658 2.4 7.982 2.871 11.286 5.073 1.063 0.711 3.578 3.737 4.444 4.76 3.106 3.618 4.522 5.661 8.259 8.693 6.999 5.742 11.602 14.511 17.264 21.551 4.13 5.148 8.966 6.724 14.867 6.643 7.315-0.058 12.388 0.512 18.444-5.349 4.484-4.363 6.528-12.858-0.984-10.381z"></path>
    <path fill="#000000" d="M572.772 673.185c3.973 1.415 7.354 4.72 10.619 7.314 3.342 2.635 7.472 4.326 10.185 7.746 6.764 8.613 10.462 25.525 10.737 36.221 0.233 10.773 0.291 20.136-4.561 29.651-4.404 8.732-10.5 16.44-13.489 25.957-1.18 3.696-3.067 7.394-4.759 11.050-0.984 2.2-2.36 4.604-3.185 6.844-1.18 3.144-0.551 5.742-1.22 8.809-0.512 2.16-1.808 3.183-2.124 5.742-0.353 2.516 0.029 5.424 0.029 7.943 0 5.233-0.203 10.501 0 15.73 0.145 5.469 2.791 9.479 4.011 14.631 0.591 2.518 0.629 4.483 1.535 6.724 1.063 2.599 3.578 5.075 4.641 7.866 4.089 10.777 11.286 20.293 14.315 31.267 1.612 5.938 5.191 10.698 4.797 17.069-0.353 4.993-2.635 13.016-5.074 17.497-5.349 9.911-18.563 18.483-28.275 22.77-3.342-9.831 4.129-18.127 4.050-27.882-0.087-10.027-0.029-18.994-3.342-28.119-3.618-10.027-11.247-17.814-16.871-26.977-3.106-4.995-6.764-9.635-9.871-14.59-3.342-5.349-5.467-11.448-8.142-17.069-4.129-8.613-3.855-26.391-2.084-35.866 1.18-6.294 5.624-12.077 8.888-17.425 3.225-5.269 5.427-11.050 9.556-15.769 6.961-8.024 14.905-16.399 17.187-26.468 2.596-11.444-1.336-21.748-6.843-31.146-4.602-7.866-18.011-8.417-20.097-18.090-1.14-5.349 3.46-10.933 6.764-14.667 4.995-5.706 8.77-6.647 22.613-6.764z"></path>
    <path fill="#000000" d="M500.82 684.392c-8.18-0.145-4.444 27.726-3.383 32.521 1.376 6.41 3.932 13.885 7.825 19.309 2.755 3.893 7.158 7.986 8.848 12.469 1.493 3.97 2.203 7.787 2.4 12.15 0.116 2.835 2.203 5.509 2.203 7.947 0 2.716-1.653 2.911-2.283 5.424-0.512 2.207 0.785 4.799 0.233 6.96-0.471 2.008-1.849 3.424-2.4 5.47-0.551 1.849-0.512 3.893-1.063 5.661-0.747 2.518-2.32 5.308-3.383 7.866-1.691 4.089-3.265 7.904-5.074 11.837-0.905 2.005-1.1 2.755-1.691 5.036-0.512 2.084-1.612 4.009-2.047 5.819-2.084 9.006-0.203 20.886-0.203 30.164 0 10.109 0.435 18.761 2.44 27.923 0.708 3.304 2.713 7.982 4.325 11.448 1.572 3.42 1.535 4.836 2.124 8.296 0.785 4.643 3.737 8.18 4.484 12.782 0.747 4.442-0.864 8.653 1.415 12.506 1.849 3.067 2.755 1.572 3.225 5.702 0.785 6.215-0.512 11.246-2.044 16.912-2.476 9.123-6.686 21.787-15.653 27.409-1.257-4.402 0.318-9.359-0.233-13.921-0.353-3.027-1.965-5.349-2.44-8.376-0.551-3.42 0.471-6.724-0.393-10.109-2.518-9.947-3.501-19.98-9.792-28.825-7.040-9.872-12.348-20.412-16.675-31.582-5.231-13.684-6.253-29.966-4.602-44.754 0.708-6.367 3.067-11.68 6.332-16.868 1.456-2.283 2.044-4.915 3.225-7.278 2.24-4.523 5.821-7.787 8.024-12.349 1.22-2.436 0.827-4.639 2.675-7.038 0.827-1.021 2.635-1.691 3.303-2.675 0.944-1.379 2.203-3.343 2.949-4.956 1.535-3.187 4.405-7.317 5.191-10.582 1.1-4.562-1.729-10.578-3.421-14.748-2.283-5.545-7.117-9.791-12.309-12.349-4.484-2.163-8.417-2.675-12.506-5.621-4.759-3.459-8.416-6.059-11.522-11.25-6.764-11.286-3.383-27.959 3.578-38.776 4.641-7.157 6.804-13.487 15.809-14.077 7.354-0.512 11.563 3.42 22.495 4.522z"></path>
    <path fill="#000000" d="M419.873 682.149c-4.443 4.326-9.007 9.595-10.775 15.73-0.785 2.675-0.087 5.233-0.669 7.866-0.747 3.501-2.005 5.349-2.084 9.006-0.116 5.661-0.435 10.578 2.203 15.653 3.578 6.84 7.040 12.385 11.365 18.56 2.988 4.25 5.27 8.3 8.416 12.31 2.911 3.777 5.585 8.773 7.354 12.978 1.885 4.523 0.905 8.89 2.044 13.684 0.512 2.167 1.967 3.148 2.476 5.428 0.551 2.635-0.087 6.371-0.087 9.084 0 2.556 0.393 5.388 0.029 7.904-0.353 2.755-1.415 3.424-2.084 5.781-1.572 5.504-2.476 9.045-5.348 13.805-4.012 6.643-7.747 13.175-13.961 18.599-7.040 6.134-15.22 10.621-21.946 17.422-3.185 3.226-6.764 5.664-9.045 9.519-2.596 4.326-7.236 11.049-8.495 15.653-0.747 2.675 0.353 6.331 0.145 9.122-0.203 3.385-1.849 5.706-2.4 9.006-0.827 4.604-0.629 13.059 0.591 17.462 0.233 0.788 1.612 1.496 1.889 2.638 0.353 1.49-0.551 3.265-0.233 4.756 0.393 1.889 2.556 4.879 3.501 6.607 2.084 3.973 6.805 10.974 5.191 15.497-3.618-0.475-6.097-5.978-7.906-8.693-3.459-5.152-8.298-9.519-11.917-14.67-8.377-11.992-14.943-24.695-15.809-39.406-0.629-10.931-0.116-21.431 6.724-30.164 3.618-4.678 8.299-10.42 13.529-13.172 4.72-2.476 10.303-3.424 14.943-5.781 10.462-5.349 16.675-10.54 16.596-22.77-0.029-5.075 0.747-10.853-0.512-15.734-0.785-3.027-1.535-4.559-1.729-7.904-0.203-3.067-1.493-4.445-2.084-6.921-0.591-2.518 0.312-5.152-0.087-7.671-0.471-2.99-2.32-5.465-3.737-8.102-3.855-7.198-9.556-12.113-13.922-18.878-6.686-10.42-11.72-20.293-16.792-31.5-5.505-12.113 3.893-21.279 10.737-30.361 3.539-4.678 8.966-7.198 14.63-9.006 3.932-1.22 13.765-2.99 17.225 0.588-0.512 0.175-1.021 0.393 11.994-3.933z"></path>
    <path fill="#000000" d="M276.086 358.292c-8.848-4.76-18.76-4.562-26.114 2.709-4.366 4.29-7.118 6.925-9.635 12.349-2.596 5.545-2.163 8.102 0.318 14.474 1.535 3.97 3.814 10.264 7.432 13.332 1.729 1.496 3.933 1.336 5.585 2.593 1.535 1.18 2.283 3.501 3.893 4.442 3.185 1.931 11.994 3.148 15.809 3.424 5.191 0.364 10.028 0.629 14.275-2.047 10.539-6.607 9.556-17.854-3.383-17.617-5.349 0.058-9.871 0.629-14.275-2.008-4.679-2.791-7.354-7.982-1.535-11.483 5.113-3.107 27.018-4.286 28.472-11.68 0.747-3.737-8.77-13.292-11.286-14.002-6.725-2.005-9.635 3.738-15.023 5.509z"></path>
    <path fill="#000000" d="M720.895 363.284c-1.18-6.175-10.579-7.707-15.338-8.653-6.253-1.22-12.584 0.396-17.973 3.696-10.302 6.294-19.742 12.389-17.933 27.69 0.669 5.308 4.169 10.462 7.040 14.864 2.791 4.246 6.332 6.292 10.303 8.416 6.135 3.304 8.652 5.036 16.006 4.956 5.78-0.029 12.939 1.336 18.011-1.299 1.18-0.629 3.893-3.459 4.995-4.363 1.965-1.575 4.248-2.36 5.822-4.879 4.404-7.198 0.393-11.56-7.198-9.359-7.236 2.084-27.292 9.162-29.417-4.089-2.556-15.929 22.338-6.921 29.653-11.286 3.225-1.931 4.286-2.832 3.893-7.278-0.087-0.827-2.791-7.353-3.265-7.862-4.051-4.488-12.073-3.304-17.382-3.385z"></path>
    <path fill="#000000" d="M518.534 390.304c-1.18-6.175-10.58-7.71-15.339-8.653-6.253-1.22-12.584 0.393-17.972 3.696-10.303 6.292-19.743 12.385-17.934 27.687 0.669 5.308 4.169 10.462 7.040 14.868 2.791 4.246 6.332 6.292 10.302 8.416 6.135 3.3 8.652 5.032 16.006 4.953 5.78-0.029 12.9 1.34 18.011-1.296 1.18-0.629 3.893-3.459 4.995-4.367 1.967-1.572 4.248-2.36 5.821-4.876 4.405-7.198 0.393-11.564-7.197-9.363-7.236 2.084-27.293 9.166-29.417-4.089-2.556-15.925 22.338-6.921 29.653-11.286 3.224-1.924 4.286-2.829 3.893-7.274-0.087-0.827-2.791-7.357-3.265-7.866-4.051-4.483-12.073-3.304-17.382-3.385z"></path>
    <path fill="#000000" d="M615.49 349.952c0-3.576 0.512-7.59-0.116-11.091-0.471-2.635-1.732-5.073-2.4-7.666-1.299-4.956-1.376-10.229-2.871-15.104-1.336-4.367-3.658-7.943-4.72-12.465-1.063-4.406-2.36-8.335-4.208-12.505-3.028-6.844-6.371-13.292-10.344-19.586-2.283-3.618-4.995-6.331-7.669-9.282-2.005-2.2-4.404-2.122-6.607-3.734-1.849-1.379-3.147-3.933-4.72-5.586-5.152-5.465-12.546-9.558-19.112-13.020-4.602-2.44-6.213-3.696-8.888-8.024-2.635-4.166-3.696-8.533-5.505-13.136-3.501-8.925-5.308-18.051-7.315-27.369-2.556-11.996-7.982-23.793-12.348-35.239-1.456-3.773-1.021-7.823-0.984-11.876 0.087-6.96-3.067-13.136-3.46-20.016-0.318-5.505-0.905-10.817-1.535-16.282-0.291-2.518-1.575-4.678-1.849-7.237-0.203-2.081 0.393-4.166-0.029-6.251-0.591-2.635-1.456-4.014-1.535-6.764-0.116-2.323-0.029-3.893-1.257-5.978-1.889-3.265-10.303-7.116-13.724-6.527-1.769 3.144-1.651 4.876-1.849 8.296-0.203 3.501-1.456 6.568-1.729 10.109-0.629 8.102-3.578 15.063-7.118 22.298-3.067 6.294-5.624 12.505-6.45 19.469-0.551 4.483 0.551 9.006-0.315 13.565-0.669 3.58-1.729 7.081-2.988 10.465-2.518 6.724-6.686 12.819-8.455 19.779-1.22 4.643-2.832 9.635-3.383 14.394-0.512 4.442-0.435 9.831-1.612 14.002-2.4 8.533-5.27 17.578-12.31 23.909-3.028 2.716-5.938 5.862-8.337 9.084-1.885 2.518-2.518 4.76-4.011 7.394-1.415 2.559-3.421 4.014-5.308 6.215-1.612 1.889-2.556 4.286-4.207 6.095-1.889 2.084-4.286 3.107-6.016 5.349-4.051 5.388-8.259 11.246-12.9 16.203-5.898 6.331-13.607 11.639-18.208 19.113-3.501 5.742-4.522 11.996-6.724 18.207-1.299 3.621-2.32 6.96-3.383 10.582-0.629 2.283-2.203 5.152-2.556 7.116-1.14 5.504 2.124 28.471 12.113 24.775 2.084-0.745 2.871-3.144 3.893-4.915 2.124-3.618 5.191-6.607 6.881-10.536 1.651-3.817 1.493-8.219 2.832-12.113 1.257-3.777 3.342-7.394 4.72-11.17 0.747-2.124 1.889-4.009 2.675-5.978 0.864-2.044 2.556-4.286 3.265-6.134 1.808-4.639 1.927-7.198 5.821-11.010 2.635-2.596 5.074-5.706 7.944-7.982 4.287-3.501 8.299-4.76 13.175-6.294 7.707-2.4 17.068-7.116 22.73-13.016 3.225-3.385 6.961-8.102 9.243-11.956 3.147-5.269 4.286-10.777 5.703-16.791 0.827-3.738 3.578-6.215 4.561-9.755 0.864-3.027 0.747-4.326 1.967-7.038 1.651-3.58 2.36-13.296 8.495-12.035 4.012 0.867 6.568 6.764 6.725 10.264 0.312 6.371 0.629 12.309 1.612 18.603 1.732 10.814 8.219 18.641 19.428 18.48 1.376 0 2.949-0.175 4.248-0.029 1.849 0.261 2.4 1.1 3.737 1.336 3.776 0.827 7.629 0 11.483 1.18 8.613 2.638 12.31 10.068 18.090 16.166 2.871 2.987 5.074 5.781 8.416 8.376 3.225 2.518 6.999 3.973 10.226 6.292 5.938 4.209 8.218 10.264 10.028 17.264s0.708 14.67 3.303 21.55c2.635 7.041 6.214 12.939 10.619 18.957 3.618 4.876 6.568 9.675 13.45 8.493 6.568-1.1 10.107-10.144 1.691-11.876z"></path>
    </svg>