<svg xmlns="http://www.w3.org/2000/svg" viewBox="123.717 -25.269 804.142 1077.713">
    <path fill="#000000" d="M437.761 949.043c-10.43-6.085-30.46-29.668-44.513-52.406l-25.55-41.341 58.688-54.532c32.277-29.993 58.687-59.487 58.687-65.544s-15.309-21.914-34.019-35.236c-18.711-13.322-34.019-33.593-34.019-45.042s17.859-52.415 39.688-91.035c43.806-77.501 45.886-88.977 26.072-143.776-16.115-44.563-27.027-46.201-78.258-11.742-37.243 25.051-38.643 28.686-41.883 108.759-1.842 45.563-8.396 88.757-14.562 95.985s-18.272 23.34-26.904 35.804c-30.266 43.699-36.091 6.984-22.489-141.729l7.779-85.048 61.655-42.525c33.91-23.387 65.845-42.524 70.965-42.524s12.105-14.034 15.522-31.185c4.436-22.268-2.318-43.641-23.625-74.754-35.3-51.547-38.881-109.733-8.801-142.971 27.545-30.438 46.711-29.321 87.626 5.106 18.529 15.591 41.592 28.349 51.248 28.349 13.262 0 15.972 7.92 11.082 32.372-3.879 19.389-0.043 41.554 9.563 55.266 14.177 20.24 13.537 25.157-5.519 42.402-11.855 10.73-18.843 26.572-15.53 35.208s41.433 41.951 84.71 74.034c43.278 32.082 86.933 74.277 97.011 93.767s35.399 60.259 56.271 90.6c36.276 52.736 49.203 97.979 27.995 97.979-5.473 0-16.303-7.654-24.069-17.010s-20.577-17.009-28.474-17.009c-7.896 0-35.301-39.547-60.901-87.883-48.181-90.974-77.595-135.116-84.454-126.744-9.519 11.62-33.176 204.178-25.969 211.384 4.393 4.393 28.183 6.531 52.864 4.749 44.738-3.231 44.877-3.112 44.877 38.528 0 22.973-8.499 76.98-18.886 120.017-14.71 60.949-16.2 87.003-6.735 117.844 14.777 48.145 1.603 60.118-37.763 34.324-50.029-32.781-57.379-66.636-28.059-129.238 14.142-30.192 23.859-64.52 21.594-76.285-5.597-29.065-43.547-35.847-43.547-7.784 0 11.659-28.581 51.582-63.514 88.714-61.682 65.569-63.133 68.577-50.319 104.304 18.723 52.196 4.571 71.249-35.537 47.845zM463.777 216.062c-9.883-16.996-12.096-17.485-12.379-2.738-0.385 19.097 11.557 36.292 19.593 28.255 2.649-2.649-0.595-14.133-7.216-25.515zM748.393 953.177c-11.024-4.431-12.843-30.74-7.581-109.668 3.806-57.112 9.401-111.492 12.43-120.848 9.232-28.497 27.923 16.583 39.3 94.783 5.573 38.304 13.242 86.228 17.045 106.497 6.244 33.286 4.319 36.768-19.887 35.959-14.741-0.493-33.327-3.519-41.305-6.725zM248.518 939.334c-11.751-7.445-13.37-24.303-6.79-70.699 4.753-33.509 7.655-82.178 6.452-108.157s2.872-50.36 9.055-54.181c15.971-9.871 35.039 30.86 35.184 75.154 0.086 20.68 7.656 62.432 16.863 92.782s13.954 59.691 10.549 65.204c-7.879 12.748-51.129 12.687-71.313-0.086zM273.868 407.371c-6.657-4.338-15.414-32.657-19.461-62.931-5.52-41.285-2.62-63.064 11.601-87.14 15.33-25.95 16.251-35.36 4.813-49.142-9.469-11.409-11.64-33.761-6.565-67.598 6.321-42.147 4.097-52.577-13.374-62.731-17.682-10.278-18.072-12.233-2.499-12.524 26.931-0.501 40.431 21.449 48.602 79.034 7.715 54.358 7.943 65.654 3.703 183.323-2.872 79.729-7.175 92.515-26.823 79.709zM734.88 389.018c-7.649-20.116-7.099-38.199 1.748-57.62 9.677-21.238 9.611-35.515-0.258-57.187-16.465-36.136-16.989-80.81-1.063-90.653 6.654-4.109 10.479-25.618 8.505-47.791-2.219-24.912 1.827-42.17 10.591-45.17 8.791-3.008 11.692 1.637 7.632 12.217-3.605 9.388-0.536 28.315 6.82 42.054 10.419 19.467 10.141 31.017-1.26 52.318-10.984 20.525-11.635 36.418-2.611 63.786 15.509 47.044 11.879 147.084-5.55 152.893-7.372 2.457-18.419-8.724-24.55-24.847zM805.634 98.98c-13.251-31.984-8.743-44.249 9.542-25.963 6.717 6.717 9.961 21.686 7.208 33.263-4.335 18.231-6.579 17.253-16.751-7.301zM209.482 94.521c-4.641-11.808-5.765-24.139-2.499-27.405 10.342-10.342 19.442 6.606 15.109 28.14-3.971 19.734-4.578 19.7-12.608-0.736z"></path>
    </svg>