<svg xmlns="http://www.w3.org/2000/svg" viewBox="-24.086 64.000 1082.450 896.514">
    <path fill="#000000" d="M796.502 878.067c-17.319-1.765-33.705-4.578-36.415-6.251-2.708-1.673-67.745-0.739-144.527 2.087-145.941 5.361-221.068 1.194-319.327-17.716-19.85-3.821-57.94-9.104-84.644-11.746-140.789-13.915-21.741-22.239 200.138-13.994 179.4 6.665 151.657 6.503 341.671 2.014 80.724-1.909 144.359-1.671 141.406 0.523-2.95 2.192-10.034 13.196-15.738 24.443-8.605 16.97-12.743 20.453-24.315 20.453-7.669 0-16.83 0.765-20.355 1.697-3.525 0.937-20.579 0.265-37.898-1.511zM877.697 731.080c-1.335-1.335-31.471-4.541-66.97-7.126-35.498-2.588-80.785-6.715-100.635-9.177-84.689-10.505-215.884-16.326-305.826-13.569-71.859 2.204-102.565 1.248-130.319-4.065-19.97-3.821-58.46-6.946-85.537-6.946-40.819 0-56.516-2.329-91.851-13.633-30.342-9.705-40.645-14.875-35.763-17.946 10.043-6.316 101.148-3.398 151.225 4.845 107.332 17.663 188.565 22.695 279.111 17.29 243.85-14.559 366.822-16.334 459.649-6.63l27.583 2.883-6.582 12.611c-3.617 6.937-6.595 19.649-6.609 28.251l-0.022 15.64h-42.51c-23.38 0-43.602-1.087-44.936-2.429zM455.231 646.886c0.022-6.617 2.052-20.729 4.514-31.365 2.458-10.633 8.902-49.613 14.323-86.622s14.174-88.942 19.452-115.408c17.080-85.641 24.069-139.714 24.65-190.682 0.319-27.463 2.030-56.428 3.82-64.371l3.249-14.438 3.565 13.535c3.72 14.123 10.753 63.686 27.442 193.393 5.448 42.349 14.139 95.404 19.312 117.902 11.235 48.861 28.664 150.206 28.664 166.672 0 10.097-1.292 11.033-9.309 6.74-20.249-10.838-127.293-2.96-135.48 9.969-3.102 4.902-4.233 3.47-4.203-5.328zM351.574 644.256c-13.232-3.735-33.325-9.275-44.646-12.311-15.528-4.163-19.983-7.439-18.141-13.335 1.346-4.299 4.672-33.804 7.392-65.565 10.632-124.091 15.237-160.742 26.696-212.391 6.538-29.472 13.254-67.37 14.925-84.215 5.987-60.381 11.076-44.352 11.22 35.351 0.043 44.229 2.221 101.617 4.756 127.527s8.163 83.921 12.506 128.917c4.804 49.78 10.577 86.049 14.749 92.637 8.182 12.924 5.448 13.24-29.459 3.387zM748.474 641.683c-19.902-15.542-45.965-17.365-63.451-4.437l-14.832 10.965 2.665-21.114c1.466-11.613 5.98-41.687 10.031-66.832 19.901-123.551 27.56-186.287 30.407-249.085 1.708-37.744 3.88-67.858 4.817-66.92s6.033 38.316 11.322 83.062 14.015 98.681 19.394 119.855c7.007 27.591 10.609 62.017 12.714 121.509 1.616 45.656 2.071 82.891 1.006 82.744-1.062-0.109-7.396-4.534-14.074-9.749z"></path>
    </svg>