<svg xmlns="http://www.w3.org/2000/svg" viewBox="22.983 43.121 996.916 936.535">
    <path fill="#000000" d="M481.543 889.879c-40.396-14.852-55.542-40.261-55.542-93.162 0-54.956 11.228-72.179 39.892-61.182 12.981 4.982 13.994 11.262 4.631 28.758-16.871 31.524 4.588 69.294 36.766 64.712 36.979-5.263 38.508-56.849 2.742-92.611-15.668-15.668-28.49-30.762-28.49-33.538 0-11.396 35.91-3.87 61.489 12.892 32.526 21.311 34.662 9.187 8.166-46.372l-19.214-40.291-183.749 7.626-0.126-33.326c-0.084-18.33 8.334-69.569 18.696-113.862l18.835-80.538 59.067-1.666c32.487-0.916 64.77-2.166 71.742-2.778 16.122-1.41 39.090 34.144 28.738 44.492-4.284 4.284-26.602 9.228-49.596 10.986s-45.556 3.494-50.138 3.849c-4.582 0.378-8.333 20.887-8.333 45.618v44.961l88.845-2.636c48.866-1.447 94.143-5.91 100.614-9.908 7.678-4.746-1-39.729-24.971-100.648l-36.74-93.374-109.027-3.186c-105.181-3.078-108.906-4.050-105.533-27.621 4.338-30.306 57.666-41.546 168.894-35.591l76.53 4.098 27.361 47.814c106.614 186.317 147.127 266.811 140.056 278.254-2.855 4.617-43.636 8.472-90.625 8.565-74.128 0.168-129.395 12.293-112.887 24.806 2.88 2.183 18.747 12.414 35.262 22.736 19.549 12.221 32.575 32.346 37.326 57.663 13.185 70.285-12.214 118.771-80.689 154.034-37.545 19.334-43.386 20.203-69.98 10.426zM888.884 722.371c-27.54-3.501-36.974-15.975-75.912-100.374-24.455-53.007-77.519-163.174-117.919-244.818l-73.457-148.443-137.046 5.322c-75.376 2.926-139.462 7.739-142.418 10.695-9.991 9.991-128.454 369.041-142.626 432.284-6.99 31.197-36.168 44.841-74.474 34.826-18.124-4.739-22.049-12.47-17.802-35.063 13.944-74.197 102.64-338.027 140.453-417.785 23.173-48.879 45.464-99.642 49.539-112.806 7.032-22.727 9.107-23.088 41.067-7.146 24.332 12.138 49.998 14.752 92.618 9.426 54.246-6.777 108.795-7.439 203.839-2.473 40.72 2.13 57.859 27.288 137.534 201.867 22.306 48.878 64.087 138.465 92.85 199.085 55.974 117.978 74.769 170.746 62.716 176.080-4.132 1.827-21.666 1.524-38.96-0.677z"></path>
    </svg>