<svg xmlns="http://www.w3.org/2000/svg" viewBox="11.317 5.402 998.265 1033.410">
    <path fill="#000000" d="M526.894 945.404c0-13.605-17.010-122.222-25.993-165.969-2.357-11.482-5.434-34.838-6.836-51.901s-4.486-37.388-6.851-45.168c-3.866-12.714-3.051-15.338 8.075-25.951 6.808-6.494 17.699-18.619 24.205-26.945l11.828-15.139 18.648 21.272c12.927 14.748 20.422 20.175 24.434 17.695 4.746-2.935 5.299 3.858 3.069 37.803-1.492 22.759-5.649 54.695-9.231 70.971s-13.547 66.571-22.147 111.769c-8.599 45.198-16.436 82.989-17.417 83.98s-1.785-4.597-1.785-12.416zM382.011 916.818c-8.984-6.096-24.34-14.231-34.123-18.076s-23.81-11.509-31.172-17.029c-7.362-5.52-15.381-10.037-17.822-10.037-2.443 0-11.272-7.298-19.625-16.22-81.281-86.806-102.301-115.469-136.489-186.11-19.079-39.419-19.318-40.457-13.484-58.134l5.94-17.999 5.023 17.044c5.035 17.087 28.621 60.811 55.431 102.761 7.878 12.328 15.705 28.716 17.392 36.421s5.021 15.215 7.41 16.692c2.388 1.478 8.046 8.797 12.573 16.27 12.301 20.307 55.931 62.964 73.844 72.195 29.025 14.96 104.928 44.111 114.852 44.111 10.655 0 9.826 3.669-4.394 19.463-11.144 12.38-15.358 12.218-35.356-1.356zM587.446 919.42c0-2.288 8.272-6.244 18.382-8.794s37.845-11.437 61.634-19.75c39.123-13.672 46.622-18.155 78.552-46.967 42.080-37.968 76.437-75.224 85.458-92.671 10.496-20.294 41.6-114.994 42.641-129.827 1.1-15.626 5.145-17.292 11.799-4.857 8.117 15.166-14.75 109.144-35.768 146.995-16.118 29.027-98.29 111.679-122.304 123.018-9.422 4.448-23.942 12.366-32.268 17.595-23.181 14.558-108.129 26.547-108.129 15.26zM684.384 825.103c-16.377-19.793-24.481-34.553-22.398-40.798 2.133-6.403 42.242 41.063 42.242 49.993 0 10.888-5.232 8.463-19.843-9.195zM356.801 826.661c-1.286-3.35 6.993-20.381 18.396-37.845 20.84-31.918 39.241-52.311 39.241-43.493 0 2.607-2.079 6.025-4.62 7.594s-3.503 5.766-2.14 9.322-2.95 14.553-9.588 24.433c-6.638 9.88-14.67 24.29-17.849 32.021-6.004 14.602-19.178 19.080-23.443 7.965zM781.986 713.718c-12.754-12.915-22.276-24.395-21.16-25.513 3.868-3.868 34.898 5.408 43.193 12.915 8.363 7.567 11.466 29.707 4.745 33.861-1.975 1.22-14.023-8.349-26.778-21.263zM250.083 692.272c0-8.201 4.172-12.853 17.719-19.765 17.008-8.676 29.856-8.836 29.856-0.371 0 3.917-39.035 30.862-44.712 30.862-1.577 0-2.867-4.826-2.867-10.725zM331.317 592.156c-13.603-5.709-56.423-18.224-95.154-27.807-92.090-22.788-144.846-39.818-134.497-43.41 32.272-11.212 80.153-18.532 151.18-23.112 71.179-4.589 85-6.649 98.644-14.7 19.397-11.443 18.232-11.471 21.233 0.484 1.358 5.417 9.614 18.191 18.341 28.389l15.87 18.542-13.707 18.107c-7.539 9.958-17.46 26.378-22.046 36.487s-9.866 18.163-11.737 17.893c-1.868-0.26-14.528-5.162-28.131-10.873zM701.85 577.231c-6.033-9.558-13.733-18.438-17.109-19.733-11.918-4.572-11.886-18.474 0.087-32.692 8.255-9.81 10.993-17.174 9.688-26.061-1-6.812-0.201-13.388 1.785-14.614 1.983-1.224 3.603-0.173 3.603 2.353 0 2.519 3.589 4.581 7.972 4.581s19.011 3.799 32.501 8.44c25.063 8.622 110.833 21.493 148.405 22.268 11.489 0.231 25.474 1.719 31.077 3.291 9.723 2.73 9.525 3.094-4.326 7.959-7.982 2.805-50.305 13.942-94.049 24.752s-86.091 23.518-94.099 28.244l-14.562 8.593-10.97-17.378zM500.409 580.598c-9.338-7.108-25.381-33.755-25.401-42.19-0.022-8.23 24.876-32.512 36.747-35.838 11.877-3.328 46.431 14.333 52.54 26.857 7.246 14.856-2.175 34.115-22.79 46.595-18.622 11.271-30.557 12.602-41.098 4.578zM894.447 477.872c-0.484-35.382-10.566-69.859-32.616-111.519-21.277-40.201-72.421-108.050-99.202-131.606-4.766-4.192-32.993-19.762-62.728-34.601-52.64-26.27-55.019-26.996-90.327-27.592l-36.263-0.612-8.874-15.525c-4.88-8.539-7.702-16.694-6.274-18.124s27.578 1.451 58.111 6.399c51.001 8.266 91.901 21.127 130.251 40.959 22.392 11.58 62.645 49.457 82.468 77.603 22.1 31.378 60.962 110.078 66.577 134.822 6.891 30.367 9.024 76.010 3.796 81.237-3.56 3.56-4.855 3.182-4.92-1.438zM516.801 466.555c-1.586-1.586-2.883-6.384-2.883-10.663 0-9.963-24.536-38.032-37.577-42.991-9.104-3.462-9.992-6.426-9.915-33.104 0.173-57.248 14.847-143.446 36.248-212.802 6.184-20.044 11.246-41.781 11.246-48.303 0-32.267 10.966-33.29 14.264-1.329 2.785 26.99 11.838 69.91 27.731 131.492 5.833 22.599 14.229 65.418 18.659 95.154l8.055 54.064-10.647 7.988c-5.857 4.394-19.541 20.45-30.409 35.682-21.3 29.849-20.515 29.064-24.768 24.811zM130.5 442.406c1.368-7.731 4.719-27.297 7.453-43.482 3.636-21.518 8.93-34.884 19.704-49.74 8.105-11.172 23.261-32.966 33.683-48.428 20.45-30.341 29.128-39.070 57.986-58.34 10.288-6.869 20.997-15.53 23.794-19.246 15.356-20.385 108.914-66.321 143.481-70.447 9.515-1.136 13.895-1.246 9.732-0.231-4.164 1.003-7.569 4.421-7.569 7.601s-13.088 11.904-29.084 19.39c-15.997 7.486-34.972 18.084-42.17 23.555s-19.603 13.303-27.567 17.405c-7.965 4.103-24.797 17.529-37.404 29.835s-32.309 30.161-43.778 39.677c-46.778 38.802-62.337 62.388-86.318 130.835-7.493 21.391-14.888 35.682-18.462 35.682-4.352 0-5.292-3.796-3.48-14.058zM247.921 439.408c-9.515-1.617-23.634-6.281-31.378-10.364-13.996-7.383-14.034-7.492-6.716-19.198 4.048-6.474 8.082-12.717 8.967-13.871s5.125 2.569 9.429 8.276c4.302 5.704 16.335 13.518 26.737 17.36s18.912 9.688 18.912 12.99c0 7.62-4.498 8.452-25.951 4.81zM769.103 405.492c0-1.865 5.883-6.868 13.075-11.116s16.173-12.453 19.96-18.232c9.122-13.923 15.445-13.336 13.748 1.274-0.992 8.539-6.133 14.477-18.668 21.554-17.828 10.067-28.114 12.452-28.114 6.518zM386.685 318.639c-1.863-3.015-2.221-6.649-0.792-8.077 3.87-3.87 8.092 1.822 6.001 8.093-1.465 4.395-2.482 4.393-5.21-0.019zM662.408 293.187c11.11-34.42 19.379-55.025 21.823-54.389 12.952 3.369 12.876 5.844-1.023 33.279-7.991 15.775-16.49 28.681-18.886 28.681s-3.26-3.407-1.915-7.569zM354.97 279.911c-20.187-17.739-22.498-25.991-10.357-36.976 8.621-7.803 20.123-5.859 23.924 4.041 3.118 8.127 8.539 49.508 6.453 49.274-0.898-0.115-9.91-7.454-20.020-16.337z"></path>
    </svg>