<svg xmlns="http://www.w3.org/2000/svg" viewBox="-38.011 61.609 1112.994 904.695">
    <path fill="#000000" d="M750.726 877.007c-37.738-8.303-50.86-22.58-35.928-39.083 6.584-7.275 16.195-9.704 38.404-9.704 34.448 0 83.86 13.235 83.743 22.431-0.289 22.294-43.975 35.653-86.221 26.356zM215.93 859.001c-35.955-23.027-15.922-31.807 59.979-26.286 39.464 2.869 49.622 5.391 55.985 13.89 12.74 17.019-2.225 23.472-54.202 23.371-36.317-0.052-47.972-2.147-61.762-10.975zM248.619 796.662c-45.316-9.224-61.893-17.473-65.97-32.821-3.018-11.356-1.907-15.393 4.882-17.793 4.83-1.708 12.686-6.446 17.457-10.532 6.814-5.836 12.889-6.265 28.333-1.999 15.302 4.226 25.289 3.586 45.073-2.884 30.981-10.135 52.406-7.319 116.671 15.334 41.408 14.597 53.722 16.599 102.356 16.646 42.751 0.026 58.286-1.913 68.523-8.62 7.283-4.771 21.239-9.439 31.018-10.373 21.929-2.093 27.32-19.786 9.775-32.079l-11.213-7.852 11.543-3.663c16.782-5.326 38.631 12.534 40.693 33.263 1.076 10.82-0.722 16.614-5.229 16.868-9.309 0.527 32.594 19.659 44.126 20.144 5.761 0.26 9.152-3.444 9.152-9.953 0-21.097 18.256-25.521 87.938-21.294 70.772 4.293 83.445 9.7 77.573 33.097-5.137 20.473-50.015 30.307-113.209 24.81-27.33-2.375-59.806-7.423-72.169-11.214-19.878-6.094-26.543-5.698-57.532 3.408-52.399 15.394-117.513 13.92-171.037-3.879-23.014-7.653-49.49-15.183-58.84-16.733-15.202-2.517-16.998-1.502-16.998 9.614 0 9.242-4.226 13.908-16.472 18.176-18.694 6.515-75.204 6.696-106.439 0.349zM256.462 712.115c-71.070-5.618-78.454-10.493-78.454-51.774 0-23.836 1.11-25.962 16.998-32.561 12.985-5.391 30.584-6.102 74.532-3.014 31.642 2.225 67.426 4.192 79.517 4.375 20.855 0.316 22.263 1.337 27.432 19.943 6.101 21.971 7.115 48.556 2.329 61.028-3.626 9.447-23.99 9.781-122.353 2.007zM713.874 695.084c-15.010-15.010-16-24.547-4.391-42.264 8.215-12.538 10.189-12.89 71.915-12.815 39.903 0.026 68.171 2.476 76.133 6.538 14.79 7.547 23.727 30.216 19.13 48.527l-3.226 12.851h-73.362c-70.915 0-73.79-0.428-86.199-12.84zM713.978 618.847c-2.073-3.358-4.077-37.524-4.451-75.926-0.63-65.096-1.386-70.009-11.138-72.634-19.371-5.21-66.268-3.011-96.006 4.502-54.953 13.884-105.811 15.528-157.44 5.089-26.010-5.26-47.294-11.124-47.294-13.035 0-1.909 7.358-6.524 16.353-10.249 13.116-5.434 23.752-5.531 53.747-0.489 44.352 7.452 98.936 1.538 121.344-13.15 11.851-7.768 25.821-9.731 72.45-10.184l57.767-0.56 3.397-41.28c1.869-22.705 5.167-65.406 7.329-94.892s5.928-53.611 8.371-53.611 3.852-2.661 3.133-5.916c-1.652-7.499 46.109-18.771 89.342-21.082l33.115-1.774 10.252 26.151c9.531 24.311 9.805 30.201 3.889 83.685-3.502 31.642-5.833 68.123-5.181 81.069 3.463 68.974 2.080 63.801 16.336 60.977 58.083-11.504 67.766-17.049 67.913-38.911 0.077-14.392-12.712-20.522-23.744-11.366-5.549 4.606-9.671 4.97-13.449 1.187-3.778-3.778-1.751-8.040 6.617-13.899 25.307-17.727 52.631-5.307 62.77 28.537 5.583 18.636 5.111 22.465-4.351 35.115-9.516 12.725-14.059 14.243-43.743 14.64-20.217 0.289-33.919 2.819-35.16 6.538-1.12 3.353-8.044 6.096-15.393 6.096-13.357 0-13.361 0.011-9.769 35.078 1.978 19.292 6.158 38.164 9.288 41.94 4.238 5.104 3.194 9.63-4.072 17.658-18.804 20.776-43.515 27.84-98.895 28.263-28.767 0.236-56.183 2.226-60.927 4.468-5.113 2.413-10.16 1.581-12.397-2.040zM285.2 603.116c-11.506-2.432-31.514-4.596-44.458-4.806-35.95-0.58-48.722-9.344-53.383-36.642-2.175-12.737-7.482-26.69-11.799-31.005-10.946-10.946-62.081-15.95-77.204-7.555-28.871 16.029-56.367 2.194-56.367-28.353 0-18.675 21.603-39.325 38.51-36.814 13.84 2.055 17.601 14.615 4.377 14.615-10.395 0-18.243 15.772-12.173 24.465 1.809 2.585 24.678 4.611 50.827 4.502l47.546-0.236 8.599-20.922c4.731-11.506 10.011-29.158 11.736-39.227s5.478-24.536 8.338-32.151c3.962-10.54 3.111-17.886-3.55-30.768-13.377-25.869-9.384-104.285 6.161-121.031 6.221-6.699 12.104-18.066 13.076-25.26 1.707-12.612 3.525-13.199 51.454-16.593 27.33-1.938 57.358-2.256 66.734-0.719 18.587 3.055 19.537 5.158 24.383 53.922 1.575 15.82 5.549 45.241 8.835 65.379 3.289 20.136 5.201 60.149 4.252 88.913-0.949 28.767-1.835 62.894-1.967 75.838l-0.26 23.535 78.454 3.177c43.15 1.747 86.693 5.393 96.761 8.101 10.068 2.711 25.367 3.323 33.998 1.363 33.344-7.561 75.371-5.066 95.394 5.664 13.863 7.43 16.508 10.482 9.135 10.537-5.71 0.026-20.425 3.573-32.696 7.849-17.382 6.055-27.613 6.584-46.287 2.399-13.185-2.954-31.858-3.893-41.496-2.087-11.186 2.099-26.006 0.026-40.981-5.675-26.151-9.988-43.59-8.967-101.493 5.928l-38.128 9.81 1.516 18.305 1.52 18.305-39.227 0.805c-21.575 0.443-48.641-1.183-60.148-3.62zM348.789 207.517c-1.12-1.12-42.291-2.673-91.496-3.453s-90.442-2.469-91.642-3.755c-1.201-1.289-3.893-15.048-5.986-30.584-3.546-26.309-3.134-27.951 5.948-23.905 5.364 2.386 43.878 4.77 85.589 5.296 157.499 1.984 146.446 0.865 146.446 14.772 0 16.587-17.627 38.082-33.757 41.166-7.189 1.374-13.986 1.581-15.105 0.465zM871.816 207.517c-1.12-1.12-42.291-2.673-91.496-3.453s-90.557-2.51-91.891-3.848c-1.337-1.337-4.117-15.133-6.177-30.658-3.51-26.451-3.116-27.949 6.196-23.811 5.468 2.429 44.069 4.845 85.78 5.365 150.141 1.886 139.679 0.74 142.531 15.655 3.157 16.513-11.913 36.862-29.838 40.288-7.189 1.374-13.986 1.581-15.105 0.465z"></path>
    </svg>