<svg xmlns="http://www.w3.org/2000/svg" viewBox="15.683 -1.838 1022.492 1028.503">
    <path fill="#000000" d="M335.251 938.46c-63.564-9.137-69.25-11.541-91.603-38.735-11.863-14.435-32.218-36.977-45.232-50.095s-41.452-42.72-63.198-65.779l-39.535-41.927 9.456-56.736c8.612-51.672 11.144-58.147 28.376-72.542 23.489-19.622 30.374-19.825 54.258-1.606 10.462 7.98 22.592 14.508 26.955 14.508 20.349 0 30.044-31.443 11.509-37.326-5.694-1.805-15.289-11.777-21.324-22.155s-20.965-30.337-33.176-44.354c-12.211-14.015-22.202-30.119-22.202-35.785s10.1-18.301 22.444-28.078c15.221-12.056 25.959-27.433 33.372-47.787 9.257-25.423 14.923-32.040 37.045-43.265 68.962-34.993 170.56-77.867 184.522-77.867 3.63 0 15.178-7.483 25.662-16.629s30.763-22.565 45.063-29.817c14.3-7.254 35.243-20.616 46.543-29.696 12.552-10.087 32.914-18.856 52.346-22.541 17.49-3.317 46.168-11.536 63.727-18.268 83.669-32.070 107.434-39.75 123.024-39.75 9.266 0 24.084-3.742 32.929-8.316s39.402-15.161 67.906-23.527c28.503-8.366 56.911-16.817 63.131-18.778 10.926-3.447 10.892-2.869-0.934 17.179-6.731 11.411-19.175 43.481-27.651 71.268s-47.883 116.633-87.573 197.435c-39.69 80.803-72.164 149.361-72.164 152.355 0 24.536-86.615 191.678-110.527 213.287-6.934 6.266-18.806 23.617-26.381 38.556s-18.929 30.774-25.23 35.187c-6.299 4.413-16.703 20.266-23.117 35.228-6.412 14.963-14.622 27.202-18.244 27.202s-13.507-7.295-21.971-16.209c-8.461-8.916-24.921-22.026-36.576-29.136s-22.552-16.483-24.22-20.828c-3.476-9.055-58.332-23.808-67.489-18.151-10.767 6.655-6.484 24.687 8.142 34.27 13.199 8.647 26.296 39.825 26.372 62.774 0.027 8.107-64.497 64.639-70.623 61.876-1.045-0.466-16.257-2.916-33.812-5.441zM403.754 859.806c1.214-8.458-5.665-18.639-22.109-32.713-14.27-12.214-20.931-21.411-16.563-22.868 4.862-1.623 3.906-3.742-2.857-6.337-6.077-2.33-8.739-1.593-6.619 1.84 4.060 6.569-3.376 7.432-17.464 2.026-7.711-2.961-8.101-4.703-1.925-8.616 5.045-3.202 0.385-4.939-13.401-4.996-24.28-0.080-28.189 5.969-28.189 43.803 0 22.275 1.82 25.989 14.261 29.111 7.843 1.971 17.584 2.47 21.647 1.12 4.063-1.354 17.887 0.857 30.719 4.918 30.221 9.557 40.339 7.823 42.504-7.282zM611.579 641.467c14.961-22.971 52.59-91.969 92.565-169.72 16.409-31.921 44.689-82.849 62.84-113.173s34.58-61.664 36.505-69.644c1.925-7.98 15.521-28.873 30.213-46.43 18.939-22.633 5.977-12.501-44.551 34.823-43.239 40.498-79.485 80.115-92.175 100.747-11.503 18.704-43.706 58.257-71.561 87.897s-52.407 60.909-54.56 69.485c-2.152 8.576-13.078 28.916-24.28 45.2-28.446 41.354-25.802 56.43 12.121 69.094 39.184 13.088 38.945 13.125 52.886-8.281z"></path>
    </svg>