<svg xmlns="http://www.w3.org/2000/svg" viewBox="40.190 -33.148 938.972 1090.932">
    <path fill="#000000" d="M518.906 64.645c9.682-2.502 22.714 12.187 27.839 18.357 7.585 9.2 10.692 19.122 14.606 29.777 2.78 7.585 5.932 13.15 4.883 21.624-0.809 6.738-3.957 13.517-5.894 19.929-4.397 14.647-7.26 28.768-13.999 42.647-10.007 20.534-22.672 39.62-31.229 60.72-1.773 4.357-5.083 7.987-5.768 12.789-0.645 4.315 1.653 9.197 1.21 13.717-1.332 13.030-1.653 20.574 3.188 32.759 2.944 7.384 8.433 13.356 12.267 20.336 5.648 10.365 10.448 20.25 18.555 29.007 15.412 16.664 34.133 31.792 45.711 51.52 1.861 3.147 4.599 7.947 5.771 11.578 1.251 3.793 3.468 7.827 4.48 10.814 2.78 8.19 5.968 15.857 6.495 24.692 0.487 9.239-1.049 20.131-7.987 26.949-6.132 6.092-14.685 9.72-20.213 15.372-11.944 12.184-34.86 26.989-40.063 44.016-2.661 8.634-4.397 20.617-1.451 29.529 2.219 6.779 11.578 14.928 8.674 23.039-6.132 1.37-20.982-10.369-25.984-13.837-7.384-5.126-16.261-17.024-18.802-25.095-7.623-24.248 6.092-39.298 21.184-55.88 11.941-13.15 30.986-22.229 39.093-39.053 10.572-21.787-4.077-44.663-19.365-59.309-6.293-6.009-11.217-13.072-17.992-18.559-9.723-7.907-17.107-18.839-26.749-26.827-9.682-8.030-19.406-14.406-26.749-25.297-6.779-9.966-13.237-21.141-16.987-33.042-4.72-15.169 3.027-30.703 2.944-45.509-0.029-15.332 1.977-31.146 6.335-45.913 2.223-7.667 7.425-12.184 12.385-18.399 5.771-7.22 7.141-12.385 14.849-17.913 10.045-7.26 20.131-16.137 26.186-27.392 2.864-5.327 13.232-16.017 12.303-22.191-0.725-4.64-9.6-9.44-12.87-11.702-11.497-8.026-20.414-19.728-27.152-32.196-2.903-5.365-5.648-13.636-4.48-19.809 0.728-3.913 5.167-13.069 8.959-15.774 4.64-3.267 16.54-2.581 20.414 0.848 4.197 3.755 6.375 12.184 5.405 13.677z"></path>
    <path fill="#000000" d="M455.206 167.646c-0.403 3.312-4.154 6.335-5.812 9.2-1.287 2.216-2.538 6.052-3.793 8.671-6.412 13.314-10.892 28.526-15.45 42.565-4.034 12.587-4.397 30.018-4.034 43.17 0.374 11.74 0.929 26.671 5.163 37.481 14.565 37.321 29.978 71.896 48.739 106.795 1.854 3.472 5.487 6.578 7.141 9.806 1.653 3.184 2.019 6.455 3.308 10.122 2.667 7.708 3.874 16.421 6.578 23.726 4.842 13.15-0.337 29.854-5.808 42.038-3.674 8.112-6.819 17.35-11.621 24.812-4.154 6.495-7.787 10.772-7.987 18.719-0.374 16.059 3.59 31.916 7.987 45.955 1.090 3.512 3.59 7.947 5.002 12.024 1.82 5.203 3.472 7.627 3.915 13.557 0.723 9.157 2.216 18.357 2.581 27.556 0.485 11.455-5.365 16.907-12.707 24.569-2.502 2.625-4.32 5.972-6.938 8.474-2.663 2.582-5.89 3.751-8.514 6.293-0.848-6.212 4.883-13.837 5.689-19.769 1.131-7.745-1.049-21.787-2.661-29.493-1.653-7.745-5.529-17.024-9.2-23.479-3.751-6.619-5.648-13.84-9.682-20.858-8.23-14.406-11.982-28.888-13.715-46.522-2.019-20.007 10.448-40.866 21.784-56.682 9.966-13.84 8.271-33.166 6.819-50.108-0.299-3.27 0.334-9.16-0.929-12.225-1.536-3.632-4.316-4.157-6.898-6.862-3.471-3.67-5.083-8.674-8.070-12.67-3.39-4.517-7.947-8.267-11.537-12.666-6.416-7.828-14.24-14.162-19.406-22.594-5.932-9.682-9.925-20.294-14.845-30.623-14.122-29.814-22.796-61.403-25.054-94.569-1.493-21.707 12.385-47.686 29.127-61.403 5.849-4.842 9.806-6.455 16.744-8.474 3.147-0.925 7.342-4.438 9.925-4.719 2.342-0.209 9.885 3.793 11.86 5.203 4.237 2.987 7.787 9.037 12.307-7.022z"></path>
    <path fill="#000000" d="M377.263 112.132c-0.765 9.32-3.71 19.365-5.083 28.764-1.451 10.085-4.8 19.205-7.384 28.971-2.342 8.877-1.612 17.951-2.502 26.992-3.064 31.266 0.334 61.445 3.105 92.633 1.895 21.020 3.755 38.204 12.389 57.328 6.775 14.928 13.595 30.018 17.67 44.986 1.974 7.301 4.719 13.393 5.365 21.221 0.645 8.35 1.416 16.74 2.257 25.054 1.416 14.644-5.282 27.918-13.837 39.496-7.663 10.411-14.162 14.122-25.334 18.642-5.569 2.257-10.572 4.557-17.835 4.397-6.375-0.12-13.114-2.786-19.609-4.842-9.482-2.944-28.321-9.802-31.306-20.052-5.606-19.242 5.771-25.943 18.074-36.752-10.205 11.337-15.935 38.57 6.335 36.148 16.664-1.816 32.438-1.939 43.856-16.059 5.445-6.697 4.397-15.129 4.64-23.117 0.12-4.96 2.058-5.968 2.783-10.408 0.925-5.652-2.342-10.652-4.603-15.372-6.738-14.286-15.812-25.621-23.882-38.694-3.953-6.412-6.659-12.707-9.522-19.122-3.39-7.585-3.43-15.532-6.375-23.722-3.023-8.39-3.67-17.107-6.737-25.457-3.225-8.797-1.933-18.156-4.476-27.115-1.090-3.913-3.27-5.203-4.077-10.288s-2.138-7.342-3.793-11.86c-1.653-4.604-1.251-8.917-1.939-13.759-0.765-5.648-3.87-9.682-5.043-15.169-1.571-7.667-2.461-18.116-2.257-25.901 0.149-7.342 2.906-15.129 4.277-21.949 1.328-6.535 1.732-11.821 3.994-18.436 1.69-4.842 3.183-8.593 5.080-13.274 5.327-13.356 11.339-23.686 20.579-34.536 5.648-6.619 15.169-14.043 24.73-10.53 6.697 2.418 10.489 13.637 20.455 11.781z"></path>
    <path fill="#000000" d="M556.23 276.942c0.060 10.209 2.298 17.996 3.632 27.756 1.251 8.757 1.049 13.476 10.126 18.239 6.495 3.43 14.24 3.751 20.777 5.808 8.19 2.625 16.099 4.197 24.289 6.256 8.23 2.058 19.242 3.587 27.675 4.315 3.674 0.299 7.627-0.848 11.259-0.299 6.052 0.97 10.205 3.512 16.502 3.755 19.042 0.642 36.712 9.399 55.271 14.685 23.076 6.615 47.407 15.532 66.612 30.217 9.6 7.305 23.519 14.002 30.541 24.046 3.75 5.327 3.347 11.621 4.842 17.832 1.653 6.862 4.92 13.195 5.445 20.295 1.13 14.766 3.39 29.411 3.267 44.3-0.029 7.141 0 14.322 0.029 21.504 0.12 9.762-2.015 17.79-3.147 27.392-1.332 11.578-2.541 23.282-4.557 34.741-2.342 13.434-3.312 25.091-7.868 38.084-4.438 12.666-10.005 25.498-16.177 37.317-3.632 6.981-10.692 10.694-15.211 16.864-4.883 6.659-6.133 11.578-13.073 16.947-17.267 13.352-33.203 23.681-52.569 32.396-15.454 6.938-31.713 13.154-48.455 18.156-19.809 5.89-38.287 6.495-58.661 6.495-7.305 0-15.334 0.891-22.594 0.060-7.022-0.809-12.71-4.964-19.246-6.699-7.907-2.099-14.162-3.427-21.423-8.107-6.535-4.197-11.982-9.362-19.769-11.295-8.354-2.103-11.056 0.523-13.92 8.671-2.38 6.862-5.042 14.809-5.167 22.512-0.299 16.181-6.938 29.131-6.898 44.986 0.029 4.599 0.18 9.28 0.029 13.837-0.149 5.367-2.216 8.877-3.187 13.837-1.773 8.836 1.451 18.683-0.607 27.395-0.765 3.348-2.786 4.763-3.228 8.877-0.523 4.438 0.060 9.399 0.060 13.92 0 4.557 0.337 9.28 0.089 13.837-0.299 5.245-2.908 8.837-3.755 13.84-0.806 5.002-1.287 8.955-2.502 13.837-0.925 3.793-2.702 8.107-3.468 11.135-2.179 8.997-4.077 14.969-8.634 22.512-3.228 5.367-5.648 10.692-11.099 14.849-3.427 2.581-17.306 12.224-18.799 4.154 8.593-3.39 22.027-0.687 31.106-0.768 9.766-0.029 17.629 2.908 27.193 3.39 22.429 1.131 43.653 6.902 65.966 7.022 7.544 0 18.116 1.939 11.337-7.868-4.48-6.495-11.661-9.239-17.551-13.755-12.949-9.885-17.914-25.901-21.34-40.668-4.237-18.239-7.021-34.494-7.021-53.782 0-8.593 0.12-17.186 0-25.82-0.12-8.959 3.023-17.391 5.162-25.943 1.895-7.627 6.659-17.469 15.412-19.284 6.737-1.373 19.246 5.163 25.701 7.623 24.046 9.041 50.755 6.215 76.698 6.499 28.321 0.374 56.847-12.467 84.521-17.634 11.744-2.176 23.239-7.787 33.166-13.512 10.288-5.932 22.796-7.585 32.759-14.606 40.223-28.325 57.775-77.421 68.186-123.535 2.418-10.772 6.372-20.739 9.44-31.229 2.342-8.23 0.967-16.141 2.619-24.409 3.147-15.655 2.704-30.826 2.704-46.801v-31.833c0-5.606-0.029-11.254 0.029-16.906 0.12-8.955-3.105-16.177-3.67-24.971-1.332-20.295-6.459-41.475-17.147-59.305-11.578-19.406-24.409-31.229-43.371-41.639-10.169-5.565-21.344-6.252-31.952-10.245-9.682-3.674-18.559-6.938-28.604-9.642-8.514-2.257-16.461-5.405-25.136-6.898-13.677-2.38-27.637-2.867-40.788-7.384-12.789-4.437-26.629-4.397-40.669-6.578-5.812-0.891-11.259-2.384-16.947-3.43-6.17-1.167-12.060 0.089-18.193-0.604-6.697-0.765-14.002-3.105-20.739-4.48-7.141-1.451-15.573-1.21-22.31-2.906-9.723-2.461-16.137-6.578-15.734-17.024 0.374-8.877 1.734-16.744 7.787-23.359 5.327-5.771 14.282-12.507 22.31-11.217-7.827-0.029-19.325-2.176-26.831-0.149-7.987 2.138-15.854 10.975-20.654 17.469-8.757 11.821-32.116 46.6 0.060 6.898z"></path>
    <path fill="#000000" d="M286.347 965.472c34.577 0 69.194-0.18 103.771 0 16.297 0.12 31.349-6.574 44.901-14.725 4.842-2.864 12.104-6.775 15.412-11.497 3.994-5.606 3.228-16.824 5.89-23.924 2.783-7.465 1.493-14.322 3.714-21.546 1.167-3.793 4.517-7.264 5.525-11.377 1.493-5.729 0.12-11.459 1.493-17.267 2.464-10.732 4.68-21.989 6.215-33.042 1.328-9.28 3.468-17.872 3.39-27.556-0.060-7.627 1.854-17.954 0.149-25.338-1.007-4.315-3.105-6.052-3.75-10.814-0.607-4.357 0.029-9.519 0.12-13.956 0.060-7.222-2.058-13.274-4.237-20.011-1.049-3.348-6.009-13.314-8.593-15.615-5.689-5.167-13.476 0.888-20.052 2.783-7.907 2.298-15.815 1.697-24.208 1.697-3.188 0-7.42-0.809-10.53-0.12-3.55 0.771-5.002 2.663-8.31 3.674-7.91 2.418-16.704 1.328-24.572 3.188-3.307 0.765-4.842 3.023-8.35 3.751-3.105 0.687-7.301-0.12-10.529-0.12-7.828 0-16.461 1.090-24.208 0.12-16.421-2.019-31.186-8.354-46.678-13.96-7.507-2.745-13.274-6.779-20.901-9.522-7.021-2.541-10.329-7.342-17.186-10.489-10.209-4.599-24.651-13.274-30.706-23.519-18.962-31.916-29.048-70.28-35.14-106.995-1.854-11.094-3.55-22.15-3.39-33.607 0.18-12.87-3.467-24.289-3.427-37.321 0.029-9.403-1.616-20.617 1.612-29.414 2.906-7.907 6.858-15.573 11.377-22.549 9.28-14.406 27.472-22.109 42.364-29.414 2.944-1.451 7.058-3.59 10.369-4.357 3.75-0.848 8.227-2.824 11.172-3.43 3.874-0.848 7.627 0 11.459-0.645 4.277-0.723 6.779-4.035 11.377-4.197 0.645-4.557 2.944-7.987 3.793-11.822 1.007-4.8-0.334-9.642 1.049-14.482 1.294-4.68 2.745-6.655 2.661-12.911-0.029-4.719 1.294-11.214 0.18-15.734-0.765-3.267-2.538-6.779-3.55-10.085-1.612-5.327-3.225-8.314-7.018-12.267-6.133-6.372-18.037-13.516-26.186-13.274 3.55 5.083 1.895 12.55 1.977 18.439 0.060 9.522-1.657 13.677-7.627 20.657-4.763 5.606-10.045 11.052-16.421 14.885-7.544 4.517-13.677 9.802-20.941 14.725-12.427 8.432-25.943 15.331-38.084 24.165-11.621 8.432-18.399 22.434-25.901 34.494-4.237 6.779-4.923 13.557-6.898 20.858-2.5 9.12-4.64 16.907-5.042 26.304-0.567 13.557-3.55 26.547-3.632 40.306-0.060 10.529 1.41 21.907 3.27 32.116 0.642 3.67 3.147 6.454 3.83 10.122 0.806 4.401-0.607 8.716 0.567 13.237 1.854 7.182 3.87 14.602 5.808 21.826 1.373 5.083 0.645 8.674 2.864 13.557 1.616 3.55 3.793 6.455 4.603 10.408 0.684 3.55-0.299 7.301 0.482 11.056 1.332 6.171 4.842 11.822 5.932 18.074 1.939 10.852 7.022 17.712 11.982 27.918 7.787 15.939 17.024 29.088 27.799 43.008 10.572 13.636 19.851 23.804 36.555 28.764 12.666 3.793 27.634 4.319 41.151 5.652 17.835 1.773 34.737 3.913 52.692 3.913 19.568-0.029 39.176-0.299 58.742 0 14.524 0.18 28.604 1.776 34.778 15.412 2.661 5.932 5.89 13.072 6.578 19.082 0.806 7.264-0.060 15.252-0.060 22.594 0 16.38 0.299 30.863-10.288 44.663-7.424 9.723-17.67 18.317-27.879 25.417-5.968 4.117-10.205 10.529-15.774 14.766-5.73 4.357-13.796 7.465-20.012 10.732-13.352 6.981-28.848 12.385-43.613 16.099-5.122 1.251-10.045 0.645-15.372 0.723-5.162 0.060-7.623 1.493-12.385 2.745-4.034 1.007-7.947 0.060-11.821 1.049-2.461 0.604-6.092 2.987-8.877 4.034-9.115 3.43-17.75 5.89-26.020 10.815-6.779 4.073-13.314 10.165-21.504 9.075 16.421 0.060 32.841 0.060 49.262 0 4.48 0 9.403-0.684 13.759 0.299 3.751 0.848 11.661 7.465 19.042-0.299z"></path>
    </svg>