<svg xmlns="http://www.w3.org/2000/svg" viewBox="52.321 -32.026 918.727 1088.059">
    <path fill="#000000" d="M657.775 219.722l0.029 24.792c0.029 18.409 0.117 36.855-0.087 55.264-0.145 16.473 3.075 32.241 6.228 47.495 1.815 8.671 3.666 17.617 4.808 26.446 0.316 2.328 0.435 4.613 0.593 6.936 0.203 3.705 0.435 7.57 1.26 11.629 0.906 4.494 2.326 8.749 3.666 12.847 0.749 2.246 1.496 4.533 2.126 6.819 3.903 13.756 6.228 27.516 6.622 39.771 0.354 9.184 0.203 18.683 0.087 27.866-0.117 5.128-0.145 10.211-0.145 15.335 0 2.009 0.117 4.336 0.292 6.739 0.029 0.554 0.029 1.106 0.087 1.653-0.203 2.129-0.354 4.336-0.435 6.542 0 0.949 0 1.892 0.029 2.801 0 1.182 0.029 2.246-0.087 2.994-0.117 0.476-0.292 0.866-0.435 1.223-1.735 3.705-0.292 8.121 3.39 9.974 1.103 0.551 2.246 0.829 3.429 0.829 2.639 0 5.243-1.419 6.583-3.942 0.906-1.616 1.459-3.23 1.773-4.77 1.223-4.846 1.143-10.208 0.866-15.255 0.234-2.049 0.514-4.14 0.829-6.265 0.234-1.819 0.473-3.628 0.709-5.441 0.986-8.157 2.681-16.042 4.494-24.438l0.203-0.866c1.143-5.361 2.798-10.601 4.532-16.159 1.419-4.612 2.876-9.262 4.060-13.952 0.986-3.942 2.483-7.767 4.098-11.826 1.972-5.083 4.060-10.368 5.243-16.239 3.39-17.146 3.154-34.487 2.956-51.201-0.029-4.059-0.087-8.161-0.087-12.219 0-18.92 2.639-37.011 5.439-56.127 0.67-4.533 1.34-9.106 1.972-13.679 0.234-1.535 0.354-3.545 0.514-5.714 0.234-3.152 0.551-7.487 1.143-9.537 0.319-0.866 1.419-2.288 2.445-3.549 0.986-1.223 1.972-2.445 2.759-3.705 6.188-9.737 8.12-20.616 10.012-31.139 0.593-3.23 1.143-6.463 1.852-9.577 1.616-7.172 2.798-14.27 3.98-21.127 0.906-5.401 1.815-10.841 2.918-16.36 2.288-11.196 2.089-24.084-0.63-38.233-0.435-2.326-0.593-4.887-0.787-7.568-0.292-4.416-0.593-9.383-2.288-14.309-3.232-9.5-5.637-11.746-6.543-12.574-0.593-0.589-1.302-1.066-2.052-1.376-0.087-0.117-0.145-0.292-0.234-0.394-0.551-0.946-1.182-1.935-1.892-2.876-2.639-3.392-5.401-5.597-8.081-7.728l-1.34-1.023c-5.243-4.256-9.815-6.028-14.623-7.92-11.825-4.612-30.508-5.951-43.279 0.473-14.899 7.488-15.767 27.866-16.437 42.725-0.145 3.942-0.319 7.687-0.709 10.445-2.918 21.13-2.523 42.887-2.126 63.933 0.145 7.214 0.292 14.426 0.292 21.563z"></path>
    <path fill="#000000" d="M817.087 421.020c0.514-1.299 0.986-2.599 1.496-3.705 2.603-5.674 5.597-11.156 8.987-17.223 5.518-9.974 7.922-20.221 10.248-30.116 0.709-3.035 1.459-6.068 2.246-9.184 0.906-3.351 2.049-6.663 3.154-9.935 1.421-4.059 2.876-8.278 3.942-12.771 0.473-2.009 0.906-4.176 1.34-6.346 0.946-4.69 1.892-9.5 3.509-12.927 0.906-1.935 1.733-3.861 2.561-5.755 0.593-1.342 1.182-2.681 1.733-3.942 0.087 0.787 0.117 1.657 0.145 2.565 0.087 2.716 0.203 5.872 1.066 9.142 0.906 3.589 4.257 5.951 8.040 5.597 10.997-1.066 12.535-15.017 13.6-24.28 0.145-1.616 0.319-2.994 0.514-3.903 0.354-1.735 0.829-3.392 1.26-5.083 1.143-4.18 2.288-8.515 2.483-13.442 0.203-4.81 0.087-9.616 0-14.426-0.087-3.509-0.145-6.977-0.117-10.484 0.087-6.463 1.657-12.927 3.311-19.788 1.695-6.936 3.429-14.149 3.666-21.797 0.117-3.509 0.087-7.094 0-10.642-0.029-2.009-0.087-4.020-0.087-6.071 0-1.063 0.117-2.405 0.234-3.782 0.319-3.745 0.63-8.001-0.292-11.629-3.036-11.862-13.796-13.165-20.22-13.913-2.168-0.292-4.454-0.551-5.755-1.106-2.956-1.182-6.11-2.206-9.303-3.272-5.912-1.929-11.51-3.741-15.923-6.895-2.483-1.776-5.084-4.14-7.882-6.623-5.202-4.69-10.564-9.541-16.752-12.297-4.021-1.776-7.569-1.579-10.484-0.869-0.63-0.787-1.459-1.459-2.405-1.932-2.483-1.256-5.518-1.063-7.803 0.596-3.548 2.521-8.395 5.951-7.214 12.1 0.514 2.639 2.405 4.807 4.927 5.674 0.117 0.029 0.234 0.058 0.354 0.117 0.435 2.206 0.906 4.373 1.38 6.503 0.593 2.483 1.143 5.008 1.616 7.687 0.749 4.136 0.551 8.592 0.354 13.321-0.117 3.312-0.234 6.583-0.117 9.893 0.234 5.361 1.182 10.445 2.049 15.411 0.354 1.929 0.709 3.903 1.023 5.83 0.67 4.219 1.26 8.475 1.852 12.695 0.829 5.951 1.653 11.862 2.681 17.775 0.473 2.957 1.182 5.834 1.892 8.752 1.066 4.335 2.049 8.435 2.246 12.414 0.203 4.654 0.087 9.383-0.029 14.351-0.087 3.665-0.145 7.33-0.117 10.955 0.029 5.164-0.709 10.525-1.496 16.278-0.319 2.445-0.67 4.891-0.946 7.335-0.354 3.191-1.103 6.463-1.892 9.93-0.749 3.392-1.575 6.939-2.049 10.605-0.829 6.583-0.709 13.084-0.593 19.353 0.029 2.049 0.087 4.059 0.087 6.068 0.029 9.223 0 18.45 0 27.673v7.92c0 1.892 0.029 3.786 0.087 5.677 0.087 2.681 0.117 5.398 0.029 8.078-0.029 1.5-0.551 3.669-1.066 5.915-1.182 5.043-2.639 11.273-0.432 17.143 0.906 2.445 3.036 4.26 5.597 4.77 0.473 0.058 0.986 0.117 1.459 0.117 2.089 0 4.098-0.866 5.557-2.448 3.075-3.347 4.73-7.764 6.228-11.666z"></path>
    <path fill="#000000" d="M512.969 372.893c-0.117 18.723 3.075 36.972 6.149 54.632 2.168 12.337 4.376 25.068 5.361 37.603 1.143 14.231 3.232 29.995 6.386 48.285 0.319 1.852 0.709 3.665 1.066 5.441 0.946 4.766 1.815 8.905 1.575 13.362-0.203 3.468 2.049 6.623 5.361 7.607 0.709 0.262 1.459 0.326 2.168 0.326 2.639 0 5.125-1.376 6.504-3.705 2.009-3.389 2.405-6.463 2.719-8.708 0.087-0.749 0.145-1.54 0.394-2.366 0.087-0.262 0.203-0.476 0.514-1.066 0.63-1.182 1.616-2.953 2.089-5.597 0.514-2.876 0.234-5.558 0-7.881-0.145-1.383-0.316-2.801-0.145-3.665 0.319-2.049 0.866-4.18 1.496-6.466 0.354-1.223 0.709-2.483 1.023-3.745 0.787-3.191 1.815-6.304 2.798-9.42 1.575-4.846 3.232-9.853 4.098-15.215 0.473-2.918 1.496-5.714 2.603-8.713 0.829-2.206 1.616-4.413 2.288-6.779 0.866-3.035 1.26-5.872 1.657-8.632 0.354-2.445 0.67-4.77 1.302-6.819 1.695-5.714 2.995-11.469 4.257-17.026 2.288-10.091 4.454-19.668 8.789-28.576 0.709-1.419 1.302-2.876 1.932-4.336 1.302-3.035 2.405-5.638 4.060-7.451 3.35-3.782 7.922-9.577 9.303-16.477 0.473-2.363 0.292-4.569 0.117-6.305-0.029-0.712-0.117-1.77-0.087-2.129 0.117-0.435 0.234-0.667 0.593-1.419 0.63-1.34 1.616-3.347 2.009-6.503 0.234-2.009 0.029-3.786-0.117-5.245-0.029-0.63-0.145-1.616-0.117-1.929 0.292-1.579 0.63-2.997 0.986-4.416 0.67-2.639 1.419-5.674 1.575-9.46 0.473-13.044 0.316-26.33 0.145-39.178-0.117-6.663-0.203-13.286-0.203-19.909 0-3.625-0.029-7.25-0.087-10.839-0.117-14.467-0.292-28.143 1.653-41.822 1.537-10.839 2.719-21.676 3.548-29.875 0.787-7.451 0.866-14.9 0.946-22.115 0.029-8.082 0.117-15.689 1.103-23.099 0.67-4.966 1.459-9.893 2.246-14.82 0.946-5.714 1.852-11.51 2.561-17.305 0.145-1.182 0.292-2.479 0.394-3.782 0.473-4.612 1.023-10.367 2.876-13.125 0.145-0.203 0.67-0.394 2.445-0.787 2.838-0.63 7.528-1.695 10.721-6.35 1.852-2.681 1.733-6.226-0.234-8.829l-2.719-3.625c-8.277-10.919-16.042-21.247-27.907-23.967-2.719-0.63-5.439-0.706-7.803-0.787-1.852-0.058-3.626-0.117-5.007-0.435-5.045-1.023-9.066-1.459-13.362-1.419-3.429 0.029-6.859 0.029-10.247 0-4.495-0.029-8.987-0.058-13.441 0-8.277 0.262-14.703 2.801-21.048 5.638-11.156 5.004-12.377 12.378-12.771 21.52-0.354 8.319 0.435 16.477 1.182 24.4 0.63 6.619 1.26 12.888 1.223 19.192-0.029 10.605-0.029 21.166-0.029 31.732v15.452c0 2.994 0.087 5.951 0.117 8.946 0.087 3.981 0.145 7.924 0.087 11.907-0.087 5.164-1.103 10.324-2.168 15.765-0.866 4.494-1.733 9.145-2.168 13.952-1.182 13.483-0.906 27.238-0.63 40.561 0.117 5.674 0.234 11.393 0.203 17.026 0 3.235 0.087 6.506 0.117 9.777 0.117 5.241 0.234 10.681 0.029 15.885-0.145 4.020-0.67 8.001-1.223 12.258-0.593 4.65-1.182 9.5-1.34 14.543-0.234 9.223-0.117 18.567 0 27.591 0.029 6.229 0.117 12.494 0.087 18.723z"></path>
    <path fill="#000000" d="M471.42 919.713c3.862-18.999 2.956-45.604 16.87-59.991 2.445-2.483 5.321-5.164 8.317-6.779 4.297-2.366 8.711-1.459 13.245-2.719 6.424-1.852 11.392-6.779 16.87-10.565 9.38-6.542 12.927-10.525 17.106-21.953 4.021-11.114 5.125-21.126 6.268-32.993 0.473-5.043 1.34-10.127 1.066-15.251-0.234-4.14-1.38-7.767-0.866-11.943 1.066-8.398 5.401-17.068 7.489-25.268 2.366-9.379 5.243-18.526 7.685-27.866 2.366-9.025 0.593-17.698 2.052-26.844 3.232-20.536-0.709-42.372-2.681-63.104-0.986-10.445-0.145-19.313 1.459-29.521 0.946-5.915 0.63-11.943 1.575-17.738 7.569-3.981 6.346 3.429 7.803 8.394 0.709 2.443 2.168 4.059 2.523 7.607 0.67 6.936 1.852 12.615 3.429 19.197 5.007 20.536 7.685 41.621 14.623 61.449 3.429 9.737 4.257 20.101 7.214 29.878 3.548 11.783 5.084 23.411 6.031 35.709 0.787 10.051 4.060 18.999 4.848 29.287 0.749 10.247 5.912 19.394 7.332 29.521 2.523 18.251 7.569 38.393 21.995 50.141 7.883 6.386 15.648 13.558 23.255 20.496 6.779 6.188 10.052 10.601 13.756 19.353 7.172 17.026 13.993 36.537 15.805 55.022 0.234 2.523 1.34 6.35 0.866 8.752-0.709 3.861-0.354 2.483-3.548 4.533-9.972 6.503-35.041 11.862-39.85-3.429-0.709-2.129 0.145-4.693-0.394-6.86-0.709-2.759-2.483-5.518-3.666-8.122-3.548-8.001-5.321-18.485-8.514-27.037-5.045-13.558-18.879-13.009-29.088-20.499-3.784-2.835-7.685-5.125-11.431-8.118-3.036-2.366-6.465-6.86-10.209-7.687-5.992-1.299-10.563 3.114-14.781 6.466-5.361 4.256-11.076 9.142-17.619 11.862-6.661 2.722-12.692 6.9-19.589 9.106-3.509 1.106-4.572 1.066-7.647 3.705-1.773 1.535-3.272 3.312-5.084 4.69-11.904 9.106-15.373 25.897-19.748 39.651-2.918 9.223-4.572 20.893-12.692 27.197-3.509 2.722-8.751 5.794-12.89 7.451-2.126 0.866-3.862 1.14-6.149 1.106-3.784-0.058-6.11-1.302-7.528-3.234-2.523-3.389-2.288-9.026-2.681-14.623-0.986-13.717 4.533-25.423 7.173-38.43z"></path>
    <path fill="#000000" d="M729.902 820.621c-6.188-39.297-8.277-80.765-19.787-118.721-2.639-8.788-1.812-18.248-4.927-27.158-3.666-10.445-6.937-20.695-9.657-31.494-1.815-7.055-5.202-13.558-6.937-20.379-1.812-7.293 1.143-15.254-0.866-22.388-3.35 1.182-6.188 8.671-8.158 12.336-3.429 6.265-6.897 12.771-9.853 19.233-2.405 5.324-2.561 10.211-5.439 15.452-4.691 8.515-5.794 16.951-7.528 26.528-3.113 17.542-5.007 37.328-1.733 55.067 2.603 13.873 1.223 29.207 1.182 43.397-0.029 6.977-0.354 13.321 1.972 19.984 0.749 2.086 1.733 6.265 2.994 7.803 2.995 3.705 7.054 5.911 9.697 10.445 3.98 6.936 7.882 15.371 11.431 22.585 3.705 7.531 6.583 15.174 10.563 22.585 4.217 7.966 5.637 16.834 7.922 25.663 3.785 14.504 8.082 30.782 10.288 45.563 9.461 0 18.683 1.735 25.187-1.733 8.475-4.533 12.614-12.892 13.835-23.178 1.302-10.722-1.852-23.216-4.573-33.386-4.376-16.356-12.928-31.256-15.609-48.204z"></path>
    <path fill="#000000" d="M312.848 234.109c1.575 3.861 3.113 7.527 3.823 11.075 0.551 2.681 0.473 5.794 0.394 9.067-0.117 3.389-0.203 6.936 0.354 10.682 0.473 3.351 1.223 6.663 1.972 10.010 1.066 4.613 2.052 8.95 2.168 13.165 0.029 0.67 0 1.302-0.029 1.892-0.203 3.074-0.551 8.199 3.903 12.615 1.419 1.419 3.35 2.166 5.321 2.166 0.593 0 1.223-0.058 1.852-0.203 2.603-0.667 4.611-2.599 5.361-5.164 1.969-6.779 3.39-13.479 4.729-19.944l0.946-4.373c0.394-1.819 1.38-3.825 2.483-5.992 1.38-2.759 2.918-5.834 3.666-9.42 0.593-2.918 0.514-5.441 0.394-7.687-0.029-0.946-0.087-1.892-0.029-2.918 0.087-2.168 0.593-4.533 1.143-7.016 0.551-2.681 1.143-5.437 1.38-8.552 0.234-3.351 0.117-6.663 0-9.935-0.029-1.77-0.117-3.549-0.117-5.281 0.087-11.433-1.38-21.364-2.956-30.393-0.787-4.61-1.26-9.184-1.773-13.993-0.473-4.533-0.946-9.102-1.695-13.716-0.67-3.981-0.551-8.199-0.435-12.651l0.087-2.997c0.087-4.413-0.787-7.37-1.496-9.697-0.292-0.946-0.593-1.929-0.787-3.074-1.023-5.634-0.67-12.651-0.394-19.391 0.145-3.392 0.316-6.744 0.316-9.893 0-2.407-1.143-4.654-3.074-6.071-1.89-1.419-4.415-1.852-6.7-1.14-4.454 1.38-7.45 0.435-11.588-0.866-3.39-1.066-7.253-2.288-11.863-1.972-9.105 0.63-19.551 6.188-27.158 10.25l-1.459 0.787c-7.096 3.745-16.595 10.525-17.263 25.816-0.593 13.285 4.77 22.664 9.972 31.771 1.459 2.559 2.956 5.164 4.297 7.884 1.023 2.049 1.892 4.136 2.759 6.226 1.302 3.195 2.639 6.467 4.533 9.777 1.302 2.288 2.798 4.452 4.297 6.623 1.575 2.246 3.075 4.373 4.178 6.542 2.009 3.978 4.297 7.724 6.543 11.51 3.705 6.109 7.214 11.904 9.578 18.485 0.749 2.009 1.579 4.020 2.405 6.032z"></path>
    <path fill="#000000" d="M441.813 195.835c0.514-3.628 1.103-7.254 1.733-10.878l1.023-6.188c0.514-3.074 1.496-6.188 2.523-9.46 0.709-2.326 1.459-4.612 2.052-6.977 2.009-8.005 1.972-15.648 1.932-23.022v-1.456c-0.087-16.44-0.087-32.836-0.029-49.271v-22.388c0-0.866-0.117-1.695-0.435-2.523-3.666-10.562-19.394-10.839-31.769-7.845-12.1 2.958-21.876 4.85-32.952 5.285-5.755 0.203-10.129 2.206-13.008 5.83-5.045 6.27-3.469 14.861-2.089 22.468 0.551 3.035 1.143 6.188 1.182 8.592 0.087 12.301 0.203 23.887 2.876 36.541 0.029 0.145 2.918 12.611 8.040 16.633 3.193 2.523 6.898 3.468 10.446 2.639 6.741-1.575 10.17-8.632 11.825-12.024 0.593-1.182 1.26-3.035 2.009-5.16 0.435-1.146 1.103-2.997 1.815-4.729 3.154 6.149 4.611 14.937 5.912 22.823 0.394 2.405 0.749 4.69 1.182 6.815l0.787 4.14c1.496 7.687 3.074 15.648 3.113 23.138 0.029 1.223-0.087 2.559-0.117 3.981-0.354 6.382-0.866 15.134 4.966 21.399 1.496 1.579 3.509 2.407 5.518 2.407 1.733 0 3.469-0.589 4.889-1.812 5.202-4.416 5.833-11.433 6.346-16.597 0.087-0.829 0.117-1.657 0.234-2.363z"></path>
    <path fill="#000000" d="M769.611 786.644c-0.117-5.047 0.787-8.909 2.168-13.679 1.419-4.887 1.302-8.749 2.168-13.596 1.103-6.425 2.445-13.048 3.429-19.515 0.593-3.978 3.272-11.666 5.952-14.623 4.021 3.472 5.676 6.506 7.803 11.473 1.773 4.175 2.483 7.133 7.016 7.133 5.045 0 8.082-5.794 10.682-10.288 1.419-2.405 1.852-4.966 2.603-7.568 0.473-1.616 1.653-5.047 1.852-6.623 0.473-3.23-0.63-6.542 0.029-9.773 0.787-3.907 3.113-7.056 3.941-10.958 2.246-10.328 1.26-21.721 2.681-32.164 1.26-8.985 1.815-18.879 4.060-27.552 0.787-2.958 4.021-19.47 7.291-19.865 3.626 2.756 2.009 8.078 3.036 12.141 1.616 6.503 4.376 11.429 4.729 18.485 0.435 8.985 0.63 15.095 2.876 23.727 1.852 7.214 3.193 14.703 4.691 22.033 3.509 17.425 0.829 36.855 1.972 54.633 0.292 4.335 1.695 8.001 2.719 11.983 0.906 3.741 1.733 6.542 4.217 9.853 2.681 3.545 5.125 3.388 8.868 4.65 4.572 1.5 3.862 1.5 5.793 6.032 2.366 5.595 5.007 11.904 5.084 18.446 0.117 8.278 1.066 16.754 0.946 25.108 0 2.049-0.117 4.14-0.292 6.188-0.906 10.525-7.291 11.823-16.633 9.697-5.282-1.182-9.815-3.862-14.82-5.361-3.705-1.143-7.726-1.376-11.469-2.445-6.268-1.776-13.6-2.049-20.3-1.185-15.689 2.054 2.168 25.819-10.288 31.574-5.243 2.405-14.307-1.106-18.683-3.035-11.51-5.047-23.729-6.9-26.448-21.247-3.862-20.337 12.692-35.079 12.298-53.684z"></path>
    <path fill="#000000" d="M160.506 730.359c6.583 1.256 16.201 4.256 21.915-0.906 3.903-3.468 2.719-7.803 3.587-12.297 0.829-4.219 3.075-8.394 4.021-12.695 1.695-7.487 2.681-15.332 4.257-22.823 1.815-8.472 0.029-17.461 0.435-26.053 0.593-13.479 3.074-34.806 13.046-45.093 3.942 5.285 4.573 14.033 6.7 20.22 2.168 6.265 4.335 12.574 6.818 18.683 5.045 12.457 8.12 26.174 14.032 38.273 3.35 6.86 4.77 13.246 8.514 19.632 2.838 4.846 5.007 10.247 6.188 15.29 2.009 8.713 5.401 17.621 5.164 26.607-0.087 2.835-0.63 5.441-0.234 8.278 0.67 4.729 2.719 9.379 3.823 14.033 2.445 10.051 3.587 20.415 3.587 30.782 0.029 6.386 1.066 10.445 2.798 16.395 2.719 9.344 5.48 15.689 2.523 25.501-1.89 6.071-3.941 13.679-8.475 18.409-5.045 5.281-10.446 3.903-16.831 2.559-9.262-1.852-11.233-3.545-16.595-11.231-0.145-0.292-0.354-0.551-0.551-0.829-3.35-5.083-4.729-9.737-6.11-15.569-1.695-7.056-6.069-13.483-8.555-20.263-2.445-6.86-5.912-13.993-12.141-18.173-6.268-4.175-11.156-3.388-18.249-4.296-3.509-0.47-6.937-2.009-10.485-2.835-6.465-1.535-10.878-2.246-15.097-7.451-3.666-4.494-7.883-8.274-11.904-12.414-8.632-8.95-10.366-26.252-1.852-35.871 4.927-5.597 12.535-7.254 19.669-5.872z"></path>
    <path fill="#000000" d="M281.224 822.908c0.203-4.219 1.537-6.663 2.168-10.484 0.709-4.494-0.029-8.95 0.67-13.483 0.709-4.256 1.537-7.724 1.733-12.378 0.203-5.004 1.695-8.316 2.995-12.968 1.066-4.020 0.787-8.708 2.089-12.535 2.288-6.623 6.149-12.020 11.629-15.685 4.77 7.25 5.992 15.174 8.513 23.255 2.798 8.905 5.282 18.446 7.489 27.785 0.63 2.681 1.103 5.441 1.575 8.161 4.060-5.047 8.040-10.091 10.721-16.477 4.297-10.368 3.193-20.419 5.518-31.059 3.863-17.974 6.583-36.618 12.614-53.765 2.129-6.109 4.376-12.1 6.268-18.368 3.509-11.585 8.632-24.675 9.972-36.654 1.023-9.187-0.117-18.092 1.537-27.318 1.459-8.157 2.523-16.002 2.798-24.201 0.234-5.951 4.297-8.319 9.38-3.705 2.956 2.681 3.548 9.067 4.966 13.362 4.14 12.378 4.179 26.607 5.793 39.534 1.223 9.853-0.67 19.904 1.023 29.718 1.575 9.227 0.67 18.567 2.288 27.753 1.26 7.214 2.838 14.266 4.335 21.481 2.838 13.483 8.081 25.228 8.987 39.18 0.432 6.463 0.432 11.352 1.616 17.815 0.709 3.861 1.733 8.001 2.326 11.826 0.709 4.533 0.029 9.067 0.986 13.6 1.143 5.478 3.429 10.484 4.651 15.962 1.496 6.936 5.007 12.258 8.592 18.092 5.045 8.082 12.849 12.453 18.447 19.668 4.691 6.032 6.031 15.099 6.74 22.665 1.302 14.231 2.288 27.552 2.288 41.861 0 9.142 0.514 16.317-2.366 24.715-1.34 3.903-0.319 4.766-4.729 7.133-3.587 1.892-7.647 2.405-11.351 4.020-3.036 1.342-4.14 2.681-7.804 2.407-5.164-0.365-11.233-5.203-14.15-9.541-0.292-0.394-0.514-0.829-0.709-1.263-1.143-2.483-1.653-6.028-2.126-8.355-0.866-4.416-1.852-9.657-2.326-14.231-0.866-8.712-2.246-16.713-4.415-25.501-1.616-6.467-2.918-12.654-10.090-15.294-7.016-2.639-15.175-3.741-22.743-2.363-8.868 1.616-17.068 5.401-25.817 7.487-8.277 1.972-16.712 1.776-25.188 1.579-5.083-0.117-10.484 0.203-14.978-2.565-13.481-8.355-21.64-32.989-17.856-47.339-2.681-1.733-3.98-3.903-4.060-8.869-0.029-4.846-0.203-9.814 0-14.66z"></path>
    </svg>