<svg xmlns="http://www.w3.org/2000/svg" viewBox="24.866 -0.400 992.552 1027.489">
    <path fill="#000000" d="M593.069 341.578c0.371-0.743 0.746-1.492 1.161-2.239 2.613-0.458 5.393 1.492 7.841 2.194 4.232 1.248 9.417 1.12 13.647 2.286 14.188 3.814 29.994 11.698 43.269 18.047 10.578 5.015 19.414 14.309 27.794 22.316 12.28 11.741 21.863 21.904 25.678 38.624 3.692 16.098 6.39 36.839 0.58 52.686-2.531 6.885-4.355 14.6-7.634 21.156-4.355 8.794-11.367 13.898-17.506 20.991-23.854 27.506-64.343 39.617-99.936 40.823-12.737 0.413-25.722 1.161-37.627-3.277-10.537-3.984-21.946-9.834-30.782-16.635-20.618-15.975-38.581-39.287-38.746-66.833-0.030-7.965 1.205-17.797 3.071-25.555 0.872-3.608 3.319-6.801 4.19-10.413 0.789-3.109 0-5.851 0.664-8.836 1.951-8.379 6.554-17.422 11.823-24.185 4.439-5.685 14.438-9.914 20.99-13.277 8.961-4.607 18.336-9.748 28.127-11.907 19.499-4.313 36.797-6.843 56.129-2.241 4.688 1.077 8.505 2.613 12.611 4.525 4.023 1.824 8.505 1.492 12.362 3.068 5.808 2.364 15.35 8.462 19.082 14.105 4.606 6.971 5.186 19.168 7.217 27.462 0.911 3.776 3.733 8.755 4.273 12.033 0.306 1.824 0.954 2.695 0.746 4.607-0.245 2.779-3.319 3.4-2.905 6.635 2.989-2.407 4.522-7.55 5.353-11.077 1.205-5.228 2.198-10.414 2.448-15.891 0.306-6.345-0.789-10.243-3.152-16.012-1.536-3.692-1.867-6.43-4.314-9.664-2.862-3.773-7.011-6.264-9.792-10.164-6.182-8.714-16.055-16.262-26.009-21.033-6.637-3.152-13.648-4.355-20.451-7.050-9.874-3.942-20.702-2.532-31.196-2.532-14.354 0-30.908-2.445-44.638 1.87-6.346 1.992-14.934 2.072-20.702 5.058-6.678 3.447-12.985 10.29-17.673 16.098-3.32 4.191-5.808 8.42-8.174 13.277-2.158 4.521-4.19 7.674-7.176 11.657-2.656 3.566-1.701 4.813-3.527 8.091-8.628 15.429-11.283 32.027-14.271 49.16-1.287 7.216-0.58 14.85-0.58 22.192 0 6.721-0.954 14.020 0.54 20.535 3.941 17.548 12.115 32.153 24.226 45.344 16.221 17.713 38.333 23.355 58.908 33.933 9.127 4.686 22.567 4.978 32.649 4.936 18.71-0.061 36.299-1.161 54.677-4.521 24.185-4.399 49.16-10.495 71.477-21.033 8.255-3.9 16.303-8.794 22.816-15.221 6.804-6.763 8.547-14.271 11.74-22.983 1.37-3.692 2.364-7.305 3.527-10.955 1.244-3.858 3.651-8.007 4.646-11.944 1.37-5.148 0.154-10.705 0.995-15.975 0.995-6.056 1.91-11.2 2.072-17.341 0.498-21.448 2.656-44.305-7.675-63.552-5.725-10.663-9.666-21.655-17.921-30.741-4.232-4.691-6.596-10.329-10.745-14.934-3.941-4.399-10.205-6.847-14.81-10.577-6.97-5.727-12.695-10.414-21.407-13.361-9.127-3.109-18.045-4.231-26.923-6.472-13.732-3.484-28.002-2.985-42.148-3.109-6.182-0.061-10.703 1.367-16.552 3.152-4.521 1.412-14.977 3.321 7.634 14.684z"></path>
    <path fill="#000000" d="M557.623 325.731c-0.371 0.791-0.707 1.536-1.077 2.286-2.613 0.58-5.434-1.287-7.923-1.908-4.273-1.042-9.417-0.749-13.732-1.741-14.313-3.277-30.409-10.577-43.932-16.389-10.745-4.644-19.912-13.564-28.584-21.237-12.736-11.284-22.692-21.077-27.173-37.672-4.273-15.928-7.756-36.547-2.531-52.603 2.282-6.967 3.815-14.766 6.804-21.406 4.023-8.957 10.827-14.35 16.677-21.655 22.859-28.376 62.809-42.025 98.361-44.596 12.695-0.911 25.637-2.155 37.711 1.87 10.662 3.566 22.32 8.957 31.404 15.471 21.199 15.142 40.034 37.753 41.236 65.3 0.371 7.921-0.54 17.793-2.115 25.635-0.746 3.65-3.028 6.929-3.774 10.539-0.664 3.193 0.245 5.888-0.335 8.878-1.618 8.458-5.892 17.671-10.911 24.642-4.19 5.851-14.064 10.414-20.451 14.020-8.795 4.978-17.962 10.455-27.671 12.985-19.29 5.062-36.507 8.255-56.005 4.399-4.688-0.954-8.587-2.328-12.777-4.070-4.066-1.701-8.547-1.161-12.446-2.611-5.892-2.119-15.681-7.841-19.622-13.361-4.853-6.763-5.933-18.958-8.255-27.17-1.038-3.734-4.066-8.591-4.729-11.863-0.371-1.827-1.038-2.656-0.911-4.563 0.154-2.822 3.193-3.528 2.656-6.721-2.905 2.488-4.232 7.673-4.937 11.284-0.995 5.223-1.824 10.451-1.867 15.928-0.030 6.348 1.205 10.206 3.815 15.849 1.657 3.65 2.115 6.387 4.688 9.541 2.944 3.65 7.217 5.972 10.123 9.748 6.513 8.502 16.636 15.637 26.8 20.036 6.721 2.948 13.815 3.858 20.702 6.306 9.998 3.571 20.783 1.701 31.28 1.33 14.354-0.54 30.949 1.287 44.514-3.571 6.264-2.194 14.852-2.613 20.536-5.807 6.513-3.692 12.569-10.785 17.008-16.801 3.194-4.273 5.517-8.628 7.675-13.569 1.992-4.602 3.9-7.8 6.721-11.907 2.531-3.65 1.536-4.852 3.276-8.215 7.965-15.762 9.997-32.44 12.362-49.654 0.995-7.263 0-14.897-0.306-22.239-0.245-6.721 0.458-14.020-1.287-20.493-4.605-17.382-13.358-31.611-25.928-44.389-16.883-17.091-39.203-21.863-60.152-31.654-9.293-4.313-22.775-4.149-32.856-3.692-18.667 0.791-36.215 2.532-54.427 6.598-24.020 5.309-48.702 12.32-70.607 23.728-8.131 4.191-16.012 9.376-22.236 16.098-6.554 6.971-8.007 14.561-10.87 23.399-1.244 3.734-2.076 7.384-3.112 11.036-1.077 3.942-3.36 8.173-4.232 12.115-1.12 5.228 0.306 10.701-0.371 16.012-0.746 6.099-1.451 11.284-1.37 17.422 0.245 21.448-1.038 44.389 10.038 63.223 6.139 10.455 10.496 21.242 19.083 30.038 4.398 4.478 7.011 10.078 11.324 14.519 4.107 4.231 10.454 6.43 15.183 9.998 7.176 5.431 13.109 9.914 21.904 12.57 9.252 2.735 18.171 3.524 27.173 5.431 13.815 2.948 28.045 1.913 42.191 1.494 6.182-0.154 10.662-1.741 16.469-3.818 4.439-1.536 14.81-3.858-8.215-14.355z"></path>
    <path fill="#000000" d="M671.491 702.080l0.371 2.491c-1.867 1.908-5.268 1.908-7.715 2.779-4.149 1.45-8.255 4.521-12.404 6.056-13.773 5.101-31.239 7.841-45.716 10.371-11.533 2.035-24.145-0.413-35.593-2.072-16.801-2.448-30.49-5.186-43.311-16.598-12.362-10.992-26.549-26.3-31.030-42.604-1.91-7.094-4.894-14.437-6.056-21.655-1.536-9.664 1.205-17.879 2.115-27.212 3.527-36.26 29.455-69.613 57.788-91.226 10.080-7.715 20.243-15.849 32.525-19.126 10.911-2.901 23.605-4.772 34.764-4.313 26.009 1.042 54.18 9.669 70.275 31.988 4.647 6.472 9.335 15.181 12.321 22.606 1.37 3.443 1.244 7.47 2.613 10.913 1.205 2.989 3.401 4.772 4.606 7.592 3.235 7.965 4.729 18.005 4.354 26.548-0.306 7.219-6.015 16.428-9.376 22.983-4.646 8.962-9.293 18.584-16.055 26.054-13.358 14.766-25.969 26.883-44.43 34.349-4.439 1.784-8.421 2.735-12.901 3.608-4.313 0.832-7.756 3.692-11.823 4.649-6.098 1.451-17.423 2.035-23.73-0.413-7.756-2.989-15.35-12.57-21.822-18.213-2.905-2.531-8.089-4.936-10.454-7.3-1.287-1.33-2.325-1.661-3.276-3.321-1.41-2.448 0.746-4.686-1.451-7.094-1.077 3.692 0.664 8.794 2.032 12.157 2.076 4.936 4.232 9.748 7.217 14.35 3.443 5.312 6.596 7.884 11.864 11.205 3.402 2.115 5.268 4.145 9.127 5.393 4.48 1.367 9.334 0.995 13.856 2.572 10.079 3.529 22.485 3.942 33.396 2.072 7.217-1.244 13.647-4.355 20.783-6.098 10.287-2.531 18.295-9.956 26.841-16.052 11.698-8.341 26.592-15.891 35.303-27.382 3.982-5.312 10.952-10.329 13.939-16.098 3.443-6.677 4.605-15.928 5.019-23.399 0.335-5.309-0.124-10.243-0.995-15.515-0.872-4.978-1.038-8.714-0.911-13.69 0.091-4.437-1.41-4.894-1.784-8.67-1.951-17.506-9.417-32.563-16.883-48.289-3.194-6.635-8.174-12.444-12.446-18.42-3.9-5.474-7.301-11.987-12.279-16.428-13.44-12.028-28.541-19.163-46.047-22.899-23.522-5.020-44.803 3.235-67.662 6.513-10.164 1.451-21.323 9-29.496 14.892-15.183 10.955-28.872 22.027-41.899 35.39-17.175 17.63-33.976 37.047-46.047 58.574-4.48 7.965-8.215 16.635-9.792 25.639-1.618 9.457 1.326 16.593 3.774 25.555 1.038 3.773 2.325 7.3 3.484 10.908 1.205 3.9 1.657 8.67 3.111 12.447 1.867 5.020 6.056 8.794 8.462 13.606 2.695 5.477 4.937 10.248 8.38 15.307 11.989 17.797 23.481 37.668 43.061 47.379 10.87 5.351 20.451 11.986 32.441 14.642 6.139 1.37 11.367 4.563 17.423 5.933 5.766 1.287 12.279-0.385 18.171 0.030 9.002 0.621 16.429 1.12 25.224-1.536 9.252-2.735 17.134-7.008 25.679-10.329 13.193-5.102 24.517-13.814 36.133-21.904 5.060-3.524 7.923-7.3 11.657-12.194 2.862-3.734 10.287-11.368-14.726-7.513z"></path>
    <path fill="#000000" d="M710.537 710.794c-0.154-0.83-0.331-1.657-0.458-2.488 1.784-1.951 5.186-2.076 7.592-3.028 4.066-1.621 8.089-4.855 12.197-6.556 13.566-5.599 30.908-9.004 45.26-12.071 11.45-2.491 24.145-0.54 35.634 0.703 16.883 1.784 30.657 4.026 43.932 14.934 12.736 10.497 27.547 25.266 32.607 41.402 2.198 7.013 5.434 14.229 6.845 21.406 1.91 9.627-0.498 17.921-1.038 27.297-2.158 36.34-26.8 70.651-54.304 93.34-9.792 8.091-19.622 16.593-31.778 20.327-10.785 3.321-23.399 5.643-34.556 5.599-26.053-0.030-54.512-7.55-71.477-29.247-4.894-6.301-9.874-14.85-13.15-22.15-1.492-3.405-1.536-7.426-3.028-10.785-1.287-2.948-3.568-4.649-4.853-7.426-3.568-7.842-5.434-17.798-5.393-26.384 0.030-7.177 5.393-16.635 8.505-23.275 4.313-9.165 8.587-18.958 15.059-26.634 12.778-15.307 24.932-27.877 43.061-36.048 4.398-1.951 8.339-3.071 12.778-4.107 4.273-0.999 7.634-3.984 11.617-5.104 6.097-1.657 17.381-2.656 23.771-0.458 7.882 2.699 15.805 11.991 22.443 17.341 3.071 2.45 8.296 4.649 10.744 6.929 1.37 1.287 2.407 1.536 3.443 3.197 1.451 2.364-0.58 4.728 1.701 7.051 0.911-3.734-0.995-8.755-2.531-12.071-2.198-4.896-4.563-9.627-7.715-14.063-3.651-5.228-6.886-7.634-12.279-10.747-3.484-1.992-5.434-3.979-9.335-5.058-4.521-1.205-9.376-0.664-13.939-2.035-10.205-3.152-22.651-3.112-33.437-0.83-7.217 1.536-13.481 4.852-20.536 6.885-10.205 2.905-17.921 10.663-26.218 17.049-11.409 8.796-25.968 16.927-34.225 28.708-3.815 5.434-10.577 10.785-13.358 16.635-3.194 6.801-3.982 16.057-4.149 23.564-0.091 5.312 0.54 10.206 1.618 15.475 1.038 4.936 1.326 8.628 1.451 13.648 0.030 4.437 1.575 4.852 2.115 8.544 2.613 17.464 10.619 32.232 18.711 47.666 3.401 6.472 8.628 12.115 13.108 17.921 4.108 5.351 7.756 11.698 12.901 15.933 13.856 11.529 29.247 18.043 46.879 21.156 23.686 4.15 44.637-4.894 67.371-9.085 10.080-1.827 20.949-9.793 28.915-16.012 14.727-11.492 28.002-23.067 40.53-36.923 16.469-18.251 32.525-38.333 43.809-60.275 4.149-8.133 7.55-16.927 8.754-26.011 1.287-9.499-1.951-16.512-4.729-25.389-1.161-3.734-2.572-7.219-3.859-10.785-1.41-3.858-1.99-8.586-3.609-12.32-2.076-4.896-6.39-8.549-8.96-13.277-2.944-5.351-5.353-10.040-8.961-14.978-12.654-17.3-24.89-36.754-44.845-45.675-11.077-4.978-20.867-11.242-32.939-13.441-6.223-1.12-11.576-4.107-17.631-5.228-5.851-1.077-12.279 0.791-18.212 0.626-9.001-0.215-16.428-0.458-25.098 2.488-9.168 3.112-16.883 7.676-25.306 11.284-12.985 5.643-23.979 14.769-35.262 23.271-4.937 3.734-7.634 7.592-11.201 12.612-2.695 3.858-9.833 11.741 15.018 6.971z"></path>
    <path fill="#000000" d="M347.578 654.167c0.83-0.030 1.701-0.030 2.531-0.061 1.657 2.072 1.244 5.478 1.824 7.965 0.954 4.313 3.527 8.796 4.563 13.069 3.443 14.271 4.107 31.941 4.894 46.627 0.664 11.698-3.235 23.896-6.264 35.096-4.398 16.389-8.713 29.662-21.573 41.073-12.362 10.95-29.247 23.27-45.965 25.72-7.26 1.12-14.893 3.193-22.194 3.484-9.833 0.385-17.673-3.277-26.8-5.312-35.593-7.756-65.671-37.46-83.8-68.116-6.472-10.95-13.358-21.989-15.142-34.596-1.579-11.119-1.91-23.982-0.154-35.016 4.108-25.72 15.972-52.641 40.075-66.002 6.929-3.858 16.179-7.508 23.895-9.541 3.568-0.952 7.55-0.413 11.117-1.33 3.153-0.83 5.145-2.858 8.089-3.65 8.296-2.321 18.42-2.613 26.882-1.244 7.135 1.163 15.64 7.921 21.696 12.033 8.38 5.68 17.381 11.45 23.979 18.999 13.109 15.016 23.645 28.998 28.872 48.161 1.287 4.649 1.741 8.714 2.076 13.277 0.329 4.355 2.738 8.173 3.235 12.278 0.707 6.264-0.030 17.548-3.235 23.524-3.9 7.342-14.313 13.729-20.659 19.499-2.862 2.613-5.851 7.466-8.462 9.541-1.492 1.117-1.91 2.115-3.692 2.858-2.572 1.077-4.563-1.287-7.217 0.621 3.527 1.494 8.795 0.385 12.279-0.621 5.186-1.451 10.206-3.068 15.142-5.474 5.684-2.781 8.588-5.604 12.487-10.455 2.531-3.112 4.772-4.728 6.431-8.42 1.951-4.273 2.115-9.127 4.232-13.441 4.688-9.585 6.554-21.863 5.974-32.939-0.371-7.3-2.695-14.020-3.568-21.324-1.326-10.537-7.756-19.371-12.777-28.54-6.929-12.609-12.654-28.291-23.024-38.291-4.813-4.607-9.001-12.157-14.395-15.763-6.223-4.233-15.225-6.429-22.608-7.756-5.268-0.954-10.205-1.077-15.558-0.83-5.019 0.215-8.713 0-13.689-0.707-4.355-0.623-5.019 0.786-8.795 0.743-17.631-0.124-33.478 5.519-49.947 11.077-6.97 2.364-13.317 6.64-19.746 10.164-5.933 3.235-12.778 5.851-17.797 10.29-13.481 11.907-22.361 26.050-28.168 43.018-7.756 22.734-2.072 44.846-1.492 67.952 0.245 10.248 6.431 22.197 11.324 31.031 9.044 16.385 18.42 31.282 30.159 45.798 15.473 19.125 32.772 38.125 52.727 52.644 7.384 5.354 15.558 10.125 24.351 12.738 9.168 2.735 16.595 0.623 25.763-0.749 3.9-0.58 7.551-1.412 11.283-2.155 4.023-0.749 8.795-0.623 12.737-1.621 5.186-1.287 9.458-5.015 14.479-6.801 5.808-2.035 10.745-3.692 16.22-6.513 19.042-9.793 40.156-18.876 52.104-37.17 6.595-10.164 14.313-18.876 18.379-30.494 2.076-5.93 5.892-10.742 7.923-16.593 1.992-5.599 1.12-12.236 2.198-18.047 1.657-8.878 3.028-16.178 1.451-25.221-1.618-9.499-4.937-17.84-7.217-26.717-3.527-13.69-10.827-26.011-17.465-38.455-2.905-5.477-6.347-8.755-10.745-13.027-3.402-3.321-10.080-11.576-9.209 13.734z"></path>
    <path fill="#000000" d="M339.306 618.946c-0.83 0.061-1.657 0.124-2.531 0.154-1.741-1.99-1.451-5.393-2.115-7.879-1.12-4.273-3.859-8.628-5.061-12.904-4.023-14.101-5.352-31.733-6.762-46.377-1.077-11.657 2.364-23.982 4.894-35.303 3.774-16.554 7.592-29.996 19.996-41.859 11.907-11.45 28.292-24.391 44.928-27.547 7.217-1.367 14.769-3.734 22.028-4.313 9.792-0.743 17.756 2.613 27.007 4.234 35.842 6.387 67.040 34.89 86.372 64.838 6.886 10.705 14.187 21.448 16.469 33.976 2.032 11.036 2.862 23.854 1.536 34.931-3.111 25.886-13.898 53.267-37.46 67.58-6.803 4.107-15.889 8.087-23.522 10.455-3.528 1.077-7.51 0.66-11.036 1.741-3.112 0.952-5.060 3.068-7.965 3.979-8.174 2.613-18.295 3.321-26.8 2.286-7.176-0.872-15.93-7.305-22.153-11.205-8.588-5.309-17.797-10.742-24.685-18.043-13.689-14.479-24.766-28.046-30.741-47.003-1.451-4.563-2.072-8.628-2.613-13.154-0.458-4.353-3.071-8.045-3.692-12.152-0.954-6.226-0.623-17.548 2.282-23.646 3.651-7.513 13.774-14.271 19.871-20.288 2.822-2.735 5.599-7.674 8.131-9.83 1.41-1.205 1.824-2.198 3.568-3.028 2.531-1.205 4.647 1.12 7.217-0.872-3.609-1.37-8.836-0.030-12.279 1.077-5.103 1.614-10.079 3.443-14.893 6.014-5.599 3.028-8.38 5.975-12.072 10.955-2.407 3.235-4.605 4.936-6.097 8.709-1.784 4.355-1.784 9.212-3.692 13.569-4.314 9.788-5.725 22.112-4.729 33.147 0.707 7.3 3.276 13.937 4.439 21.156 1.701 10.495 8.505 19.083 13.856 28.043 7.384 12.362 13.774 27.796 24.518 37.38 4.978 4.395 9.458 11.779 14.977 15.184 6.39 3.979 15.473 5.851 22.901 6.843 5.311 0.749 10.246 0.707 15.558 0.184 5.019-0.413 8.754-0.306 13.732 0.184 4.398 0.413 4.978-0.995 8.754-1.12 17.631-0.537 33.23-6.801 49.491-12.985 6.845-2.656 13.068-7.177 19.332-10.95 5.808-3.443 12.528-6.348 17.381-10.955 13.027-12.4 21.323-26.921 26.467-44.097 6.886-23.025 0.335-44.888-1.161-67.952-0.664-10.248-7.301-21.947-12.529-30.575-9.666-16.012-19.622-30.533-31.901-44.554-16.22-18.542-34.267-36.839-54.761-50.571-7.592-5.058-15.93-9.499-24.808-11.779-9.293-2.364-16.636 0.030-25.763 1.745-3.859 0.743-7.468 1.745-11.158 2.613-3.982 0.909-8.754 0.952-12.654 2.115-5.145 1.492-9.252 5.351-14.229 7.342-5.684 2.282-10.577 4.15-15.93 7.135-18.667 10.577-39.411 20.453-50.612 39.203-6.223 10.413-13.606 19.413-17.175 31.154-1.867 6.056-5.476 10.992-7.301 16.883-1.741 5.685-0.623 12.32-1.492 18.171-1.326 8.92-2.407 16.262-0.458 25.225 1.992 9.457 5.643 17.671 8.255 26.426 4.067 13.564 11.823 25.555 18.96 37.749 3.152 5.354 6.678 8.505 11.242 12.612 3.527 3.155 10.537 11.16 8.67-14.106z"></path>
    </svg>