<svg xmlns="http://www.w3.org/2000/svg" viewBox="18.144 11.257 965.806 1036.275">
    <path fill="#000000" d="M450.417 942.781c-27.494-27.494-32.28-88.604-10.308-131.624 5.242-10.263 16.088-39.521 24.104-65.017l14.573-46.359 15.771 39.36c39.090 97.565 46.61 152.796 25.117 184.488-26.375 38.89-44.504 43.903-69.257 19.15zM799.059 766.293c22.631-6.528 51.687-39.322 59.469-67.114 3.512-12.543 4.687-30.026 2.895-43.090-6.019-43.907-44.107-107.724-77.287-129.491-16.922-11.102-18.002-18.663-3.753-26.259 18.124-9.661 69.37-61.601 78.617-79.682 12.198-23.853 11.123-49.945-3.317-80.44-12.85-27.14-43.107-58.526-56.42-58.526-5.636 0-6.474-1.441-2.913-5.003 7.688-7.688 38.262 2.367 58.807 19.336 21.779 17.989 33.428 40.202 40.839 77.87 7.954 40.426 3.992 67.979-15.377 106.968-14.221 28.626-15.687 34.383-9.97 39.128 14.447 11.991 19.784 35.153 21.944 95.244 1.91 53.153 1.019 63.525-7.216 83.968-10.188 25.292-50.394 67.641-64.214 67.641-4.467 0-15.208 1.018-23.867 2.252-15.42 2.206-15.384 2.15 1.762-2.799zM583.739 754.838c-16.566-13.939-25.916-42.678-21.952-67.466 1.489-9.287 9.989-30.87 18.899-47.964s18.72-39.496 21.804-49.785c3.083-10.288 6.935-18.708 8.559-18.708 4.602 0 28.243 50.189 40.487 85.951 6.082 17.768 11.061 41.129 11.061 51.918 0 16.566-2.897 22.599-18.656 38.834-22.413 23.094-38.975 25.082-60.203 7.218zM155.934 745.925c-38.756-23.233-57.79-64.289-57.79-124.657 0-32.485 1.856-40.366 16.419-69.841 14.648-29.638 15.674-34.047 9.508-40.858-16.506-18.24-21.261-41.11-21.261-102.267 0-47.388 1.748-64.168 8.163-78.436 16.45-36.579 49.669-66.998 72.664-66.539 14.507 0.283 14.573 0.389 3.236 4.91-17.476 6.973-27.898 18.091-40.797 43.531-10.264 20.239-11.438 27.418-9.539 58.312 1.808 29.472 4.926 40.186 19.062 65.551 18.326 32.881 31.405 48.56 56.452 67.664 8.886 6.777 15.207 14.8 14.047 17.825s-11.488 11.433-22.949 18.685c-27.215 17.218-66.17 64.15-72.378 87.198-10.369 38.509 20.149 100.055 60.072 121.149l16.929 8.944-16.328 0.169c-9.307 0.064-24.577-4.782-35.507-11.334zM328.5 748.604c-17.566-10.712-25.105-30.329-25.083-65.26 0.012-18.49 2.939-30.899 10.010-42.454 5.495-8.981 15.741-33.122 22.764-53.647l12.771-37.32 15.079 32.654c20.236 43.824 28.97 73.709 31.358 107.306 1.933 27.216 1.475 28.559-16.299 47.816-20.329 22.019-29.229 23.938-50.603 10.903zM431.408 558.288c1.703-4.439-0.709-5.38-8.669-3.382-14.574 3.658-18.615-3.814-18.853-34.875l-0.212-25.297-27.991-9.905c-24.373-8.623-28.667-11.984-33.246-25.997-6.285-19.232-3.824-27.868 7.945-27.868 11.657 0 7-11.271-7.361-17.814-19.027-8.668-27.592-27.212-28.193-61.029-0.31-16.929-2.227-43.644-4.271-59.366-2.049-15.721-2.241-42.411-0.434-59.312 2.822-26.33 5.968-34.093 21.994-54.219 10.287-12.92 21.573-23.49 25.080-23.49s12.707-9.2 20.442-20.444c11.039-16.045 17.865-21.153 31.713-23.741 9.705-1.809 19.969-5.216 22.808-7.561 8.613-7.113 48.376-12.731 61.661-8.714 6.865 2.078 24.733 5.961 39.71 8.633 28.151 5.021 73.272 29.842 106.050 58.339 9.161 7.965 22.529 19.406 29.706 25.425 12.899 10.82 13.016 11.397 10.334 51.315-9.439 140.475-19.144 169.3-63.834 189.586l-16.188 7.349 15.353-2.889c17.991-3.385 28.964 3.727 28.964 18.776 0 11.782-13.36 25.808-24.583 25.808-4.137 0-8.801 2.073-10.366 4.604-1.563 2.531-14.347 7.948-28.407 12.035-25.395 7.381-25.542 7.533-22.66 22.895 6.365 33.928-10.92 42.086-97.234 45.893-24.677 1.087-31.121 0.021-29.28-4.754zM483.465 459.816l5.366-10.804 3.004 11.968c2.26 8.992 6.007 11.969 15.077 11.969 13.41 0 13.508 0.96-4.21-40.738-14.028-33.014-22.391-31.924-35.215 4.584-5.633 16.035-10.219 30.876-10.192 32.978 0.064 8.228 21.108 0.235 26.17-9.962zM439.588 407.66c4.347-0.009 13.453-4.79 20.235-10.624 10.7-9.205 11.905-12.885 9.099-27.833-2.581-13.76-7.121-19.484-22.567-28.449-32.828-19.055-38.426-19.368-58.714-3.301-29.636 23.47-28.744 54.459 2.269 78.855 11.981 9.424 12.158 9.427 26.917 0.429 8.171-4.983 18.411-9.065 22.759-9.076zM596.123 393.765c12.017-17.739 13.573-40.298 3.744-54.331-3.714-5.303-16.507-13.366-28.431-17.921l-21.68-8.281-22.882 22.538c-18.027 17.757-22.881 25.735-22.881 37.61 0 18.429 13.705 29.456 37.19 29.923 9.050 0.212 20.655 2.125 25.785 4.319 13.178 5.637 17.26 3.697 29.155-13.858z"></path>
    </svg>