<svg xmlns="http://www.w3.org/2000/svg" viewBox="31.794 32.521 953.272 959.453">
    <path fill="#000000" d="M592.504 920.532c-0.010-0.010-0.014-0.017-0.020-0.026-0.083 0.051-0.078 0.067 0.020 0.026z"></path>
    <path fill="#000000" d="M655.015 892.641c-0.018 0-0.060 0.019-0.157 0.109 0.067-0.050 0.094-0.062 0.157-0.109z"></path>
    <path fill="#000000" d="M787.961 755.723c0.574-0.389 1.32-0.982 2.423-1.837-0.815 0.592-1.619 1.217-2.423 1.837z"></path>
    <path fill="#000000" d="M459.776 32.528c-1.61 0.887-3.12 1.718-4.647 2.528-1.028 0.424-2.040 0.884-2.938 1.351-1.842 0.726-3.565 1.545-5.234 2.231-3.338 1.33-6.35 2.488-8.703 3.641l5.291-3.641c-3.209 2.184-5.934 3.632-8.76 5.176l3.996-0.294c-3.467 1.54-6.224 2.993-6.525 2.353-2.862 2.826 3.907 1.034-2.177 5.998-2.394 0.853-5.629 2.879-8.584 4.588-1.496 0.814-2.971 1.482-4.172 2-0.641 0.193-1.117 0.425-1.589 0.469-0.288 0-0.493-0.103-0.703-0.352 0.193-0.030 1.162-0.52 1.765-0.822 0.685-0.363 1.253-0.729 1.765-0.939 0.9-0.512 1.423-0.862 1.765-1.117 0.56-0.56 0.187-0.727-0.295-0.763-0.791-0.187-1.816-0.393 1.293-2.441-1.747 1.019-3.761 2.062-6.173 3.148-0.601 0.030 0.273-0.739 1.115-1.29-0.943 0.36-2.373 0.964-2.586 0.997-0.129-0.030-0.142-0.030-0.236 0-0.129-0.030-0.175 0.026-0.175 0.058-0.288 0.065-1.182 0.193-1.529 0.352-0.984 0.288-1.614 0.675-2.469 1.058-1.669 0.77-4.023 1.636-10.703 1.765 1.333-0.846-0.793-1.355-3.116-1.648 1.486 0.596-1.425 1.937-5.762 2.704-10.058-0.682-10.902 0.939-16.168 0.939l5.995 0.294c-0.937 0.604-2.668 0.959-4.94 1.174-2.358 0.159-5.38 0.298-8.938 0.529-0.258 0.065-0.637 0.159-0.939 0.352-0.223-0.159 0.136-0.48 0.822-0.822-2.612 0.984-3.881 1.366-5.939 1.882-1.971 0.322-4.031 0.69-6.173 1.117-4.196 0.77-8.655 1.766-12.936 3.821-5.054 0.77-1.116-2.029-5.527-1.174-4.28 2.056-7.279 2.856-9.933 3.409-1.324 0.288-2.512 0.461-3.879 0.761-0.689 0.129-1.348 0.322-2.119 0.471-0.4 0.129-0.793 0.162-1.176 0.292-0.726 0.193-1.39 0.446-2.116 0.644-0.689 0.424-1.406 0.868-2.177 1.29-0.431 0.223-0.942 0.585-1.41 0.882-0.989 0.641-2.003 1.435-3.116 2.292 3.982-0.56 4.303-1.201-2.589 4.88l10.348-7.114 9.407-3.641-4.172 2.292c-1.588 0.77-2.335 1.281-4.822 2.353-1.882 1.411-2.531 2.188-3.641 3.174 1.286-0.814 2.657-1.732 3.937-2.589 1.374-0.512 2.711-1.058 3.996-1.529 1.202-0.472 2.262-0.968 3.291-1.351 2.141-0.9 4.070-1.552 5.527-1.941-5.739 3.299-5.3 2.712-2 3.057-1.798 0.030-3.49 0.357-5.115 0.763-0.814 0.193-1.7 0.52-2.469 0.822l-2.882 1.115c-2.265 1.669-4.536 3.317-6.936 5.115-2.265 1.628-4.715 3.136-7.587 4.291l-1.823-3.526c-10.105 4.625-17.637 11.334-26.929 17.757-2.999 1.628-7.59 3.846-12.171 5.644l6.056-2c-1.752 2.525-10.986 5.254-16.462 8.467-0.030-1.453-3.816-0.197-6.642 0.061 0.641 0.81-12.954 5.855-13.643 9.111l-2.353 0.705-2.116 1.529-1.589 0.997-3.057 1.942c-11.946 10.404-10.394 15.254-21.692 25.398 2.31-4.193-3.357-0.073 3.233-7.879-3.635 3.51-7.065 6.444-6.466 7.171-0.596 0.288-1.439 1.043-2.292 1.942-0.943 1.068-2.096 2.407-3.291 3.821-1.072 1.971-2.283 4.145-3.352 6.115-1.028 1.709-2.018 3.215-2.999 4.114-0.726 2.1 0.081 3.448-3.057 8.114-0.393 0.263-0.536 0.030-0.595-0.161-0.082 1.206-3.859 7.498-0.163 4.399-2.697 2.394-5.343 5.575-7.997 9.172-1.33 1.709-2.597 3.619-3.879 5.585-1.202 1.798-2.383 3.628-3.587 5.47-2.056 1.839-4.176 3.747-6.232 5.585-2.184 1.842-4.351 3.729-6.408 5.527-4.199 3.467-8.249 6.328-11.759 7.998-4.495 4.193-9.384 8.793-13.879 12.99-2.184 6.207-4.209 11.892-5.879 16.817-0.159-0.77-0.598-0.279 0.175-2-5.953 12.585 0.665 9.294-6.056 23.637-4.84 6.806 1.716-8.23-0.763-3.823-1.411 0.159-2.421 1.626-3.409 3.937-0.468 1.157-0.953 2.546-1.47 3.998-0.363 1.33-1.074 3.469-1.115 3.937-0.129 0.36-0.892 1.531-1.706 2.647l-2.292 3.409c-1.588 2.137-3.336 4.088-5.176 5.585l1.351-2.231c-6.036 5.607-10.444 16.964-18.579 27.456 0 0-0.039-0.77-0.586-0.471-0.193 0.689-0.707 1.829-1.648 3.411-0.472 2.525-1.049 5.413-1.648 8.584-0.596 2.862-1.291 5.926-2.060 9.053-1.54 6.25-3.262 12.751-4.763 18.402-0.428-4.283 0.869-5.771-1.529-4.057-1.54 5.56 3.149-0.698 0.115 10.348-0.9 1.459-1.83 3.218-3.116 5.704-1.157 3.425-2.266 6.085-3.468 6.642l0.999-7.23 1.349-4.114c-0.4 0.512-0.889 0.929-1.232 1.529-0.322 0.512-0.59 1.195-1.058 2.353-0.129 0.814-0.289 1.555-0.469 2.411l-0.352 2.058c-0.129 1.367-0.112 2.748-0.175 4.115-0.129 2.742-0.265 5.401-0.822 7.585l-0.941-0.939c-2.056 15.972 0.388 17.213-2.116 33.394-0.030 0.193-0.172 0.523-0.236 0.822 0.193-0.322 0.434-0.553 0.644-0.763 0.159-0.159 0.349-0.277 0.529-0.586 0.030 0.4 0.026 0.532 0.058 0.703 0 8.819-3.438 6.899-3.823 16.401l-3.351 2.177c-0.984 6.293-2.683 22.441-5.47 33.57 0.129-6.68 2.131-20.049 3.118-28.395-1.055 4.080-2.1 10.404-3.118 16.285 0.4 8.181-1.856 18.101-5.41 30.218-1.411-1.157-3.12 1.773-4.88 6.527-0.9 2.358-1.781 5.237-2.765 8.231-1.072 3.385-2.163 6.937-3.233 10.404 0.159 1.238 0.391 2.508 0.588 3.701 0.065 0.858 0.162 1.654 0.292 2.472 0.159 1.54 0.421 3.128 0.529 4.586 0.159 2.826 0.089 5.165-0.294 6.878 1.453 5.307 2.618 10.728 3.643 16.168 0.472 2.742 0.954 5.504 1.468 8.29 0.431 2.955 0.884 5.839 1.351 8.877 1.842 5.734 3.717 11.604 5.644 17.639 1.927 5.86 3.98 11.901 6.29 18.108 0.685-10.061 2.676 7.091 6.056 4.174 0.989 2.567 1.643 4.331 2.119 5.527 0.129 0.9 0.271 2.128 0.175 2.292v0.058l0.41 18.579c-0.512 4.495-1.836-5.607-2.647-4.88 1.798 13.146-0.825 5.779-0.527 14.64 1.202-2.009 2.784 4.238 3.468 11.818l0.234-10.82c2.439 8.646 2.258 12.23 2.177 16.815 0.322 5.093 0.16 8.748 3.762 18.168l-2.706-5.412c1.238 3.596 2.848 9.679 4.647 16.226 0.984 3.295 1.941 6.699 2.882 9.994 0.56 1.588 1.117 3.222 1.589 4.766 0.641 1.714 1.249 3.337 1.765 4.88 0.733 1.588 0.907 1.816 1.29 2.586 0.431 0.641 0.777 1.209 1.117 1.765 0.726 1.157 1.552 2.171 2.231 2.94 0.159 1.752-0.058 4.221-1.941 0.41 2.358 6.208 5.159 12.756 8.114 19.225 3.084 6.68 6.217 13.394 9.172 19.816 1.669 2.31 3.293 4.5 4.88 6.642 1.367 1.962 2.711 3.875 3.996 5.764 2.569 3.761 4.772 7.333 6.527 10.761l-1.765-0.941c2.612 3.425 5.753 5.178 7.938 10.228-0.56 0-1.894-0.906-0.822 0.763 0.512 0.596 1.628 1.855 2.999 3.352 0.641 0.77 1.288 1.548 2.058 2.411 0.77 0.984 1.317 1.528 2.647 3.409 0.943 0.858 1.922 1.83 2.821 2.647 0.726 0.726 1.338 1.369 1.942 2.058l-4.291-2.586c15.327 16.57 26.675 21.977 40.806 34.392-2.1 2.142 10.028 14.835 16.108 21.167l-0.529 0.058c4.625 4.408 9.005 8.327 13.286 12.052 4.108 3.892 8.118 7.539 12.054 11.054 4.027 3.551 7.884 7.031 11.993 10.586 1.968 1.842 4.001 3.641 6.056 5.527 1.072 0.943 2.106 1.895 3.174 2.882 1.197 1.109 2.447 2.251 3.641 3.409 0.472 0.223 0.972 0.6 1.531 0.939 3.551 3.681 9.303 8.262 16.108 13.227 3.467 2.439 7.105 5.050 10.876 7.704 4.154 2.911 8.494 5.865 12.817 8.821 4.968 1.374 9.962 2.792 14.758 4.114 4.28 1.286 8.418 2.597 12.229 3.879-3.428-1.453 1.154-2.121 5.351-1.351 5.35 2.009 15.635 1.911 14.053 4.35l-1.882-0.588c0.512 0.56 1.275 1.134 2.175 1.65 0.4 0.223 0.839 0.508 1.351 0.761 0.641 0.193 0.319 0.141 0.529 0.353-0.223 0.030 1.524 1.155 2.763 1.882 1.374 0.814 2.728 1.652 4.174 2.469 2.915 1.588 5.96 3.266 8.702 4.763l2.999-2.411c3.165 2.782 6.939 5.426 11.054 7.997 2.016 1.286 4.090 2.623 6.231 3.823 2.394 1.33 4.792 2.556 7.232 3.879l7.405 2.469c2.226 0.685 4.462 1.311 6.644 2 4.408 1.367 8.804 2.682 12.696 3.879 7.88 2.531 14.305 5.11 17.815 7.938 0.9 0.159 1.116 0.182 2.999 0.644 2.697 0.363 5.672 0.714 8.584 1.057 2.785 0.288 5.514 0.673 7.997 0.763l-0.703 1.823c6.121 1.374 11.003 2.474 16.050 3.585 2.531 0.56 5.097 1.094 7.879 1.65 3.128 0.601 6.48 1.288 10.287 2.058 2.184-0.193 6.294-0.672 10.878-1.057l-3.937 1.706c11.047-0.726 13.546-6.592 23.694-7.405l3.235 2.646 8.409-0.527 8.702-0.352 10.761-1.531 10.17-1.589c6.766-1.157 13.442-2.665 19.991-4.763-0.223 0.468-0.727 1.414-3.762 2.058 2.652-0.431 6.817-1.024 11.23-1.706 2.481-0.129 5.008-0.233 7.407-0.352 2.525-0.159 4.966-0.403 6.936-0.703 3.605-0.506 5.884-1.261 5.363-2.353 2.307 1.784 20.249-1.546 29.972-3.526l-1.41 2.116c8.518-3.508 8.701-4.227 20.814-6.408 2.915-0.129 2.736 1.115-1.115 1.115 9.722-0.193 7.23-2.647 19.047-3.116l-4.172 1.765c4.84-0.56 7.089-0.954 8.76-1.468s2.686-1.080 6.115-2.233c0.030-0.030 0.202-0.198 0.352-0.292 0.814-0.596 1.72-1.334 2.704-2.060 0.77-0.512 1.668-0.99 2.53-1.589 1.798-1.117 3.701-2.291 5.585-3.233 3.681-1.883 7.044-3.16 8.114-2.821 0.553-1.626 4.361-5.685 9.582-8.469 1.028 0.129-0.579 1.564-1.349 2.292 3.428-1.842 6.289-3.697 8.819-5.41 1.286-0.943 2.447-1.731 3.641-2.586l1.589-1.234 0.999-0.763c0.512-0.288 2.055-0.87 3.468-1.293 1.374-0.472 2.683-0.983 4.057-1.407 2.697-0.77 5.457-1.39 8.584-1.648 0.4 0.512 1.088 0.628 2.116 0.586-7.533 1.882-14.104 3.646-17.872 4.588-0.77 0.472-1.364 0.832-1.708 0.997-0.279 0.182-0.468 0.28-0.565 0.322 0.412 0.636 2.666-0.171 2.92 0.208 0.472 0.159 0.684 0.347 0.939 0.642 0.129 0.288-0.030 0.839 0 1.351 0 0.095 0.027 0.233 0.058 0.352 0-0.065 0.026-0.233 0.058-0.352 0.553-0.193 1.073-0.449 1.589-0.703 1.202-0.472 2.408-1.030 3.643-1.589 2.486-1.028 5.122-2.119 7.819-3.233 5.355-2.184 10.949-4.14 15.874-5 0.512 0.030 0.99 0.047 1.41 0.175l-0.999 0.412c2.358-0.431 4.524-1.111 6.409-1.884 1.626-0.288 2.966-0.567 4.289-0.822 1.496-0.288 2.031-0.421 5.117-1.174 0.56 0.159 1.831 0.038 3.76-0.353 1.109-1.11 2.517-2.6 4.057-4.348 0.862-1.028 1.761-2.077 2.704-3.233 1.842-2.226 3.851-4.541 5.176-6.173-1.731-0.843 2.768-5.92-2.312-2.168 0.099 0.030-0.999 1.489-2.922 3.811-0.431 0.682-0.98 1.413-1.234 1.884 0-0.129 0.031-0.288 0.063-0.471l-6.936 8.469-5.881 1.589c1.202-0.689 3.611-1.604 5.41-2.294 0.641-0.9 1.311-1.827 2-2.763 0.56-0.73 1.181-1.582 1.825-2.353 1.068-1.374 2.352-2.651 3.937-3.937 0.814-2.908 1.811-6.031 2.411-7.704 6.766-3.851 16.978-13.746 19.461-14.17 1.713-2.272 3.466-4.689 5.349-7.171 2.567-2.184 5.21-4.462 7.821-6.644 2.785-2.439 5.445-4.767 8.056-6.995 5.097-4.667 9.437-9.092 11.876-12.817 3.338-3.209 4.754-2.472 6.466-3.116-1.927 1.962-4.415 3.89-5.232 5.176 6.465-6.72 21.969-16.373 22.224-19.758 10.187-5.825-4.025 5.666 8.819-3.879l-1.293 1.823c3.425-1.798 6.511-3.658 9.465-5.585 1.459-1.028 2.881-2.001 4.291-2.94 1.752-1.286 3.507-2.537 5.176-3.821l2.116-3.937 1.351-2.704 2.411-5.412c1.588-3.596 3.235-7.179 4.822-10.82 3.209-7.153 6.994-15.059 11.407-22.165 2.53-2.355 6.016-5.379 9.689-8.215-0.428 0.291-0.771 0.479-1.044 0.515 4.667-4.108 9.216-8.431 13.758-12.756l6.7-6.7 7.114-6.995c9.335-14.94 17.163-28.151 26.751-42.92l2.823-8.702 2.823-8.114c1.927-5.437 3.977-10.711 6.115-15.933 3.128-8.178 3.066-10.76 3.409-15.169 0-1.157 0.115-2.485 0.115-4.114l2.472-1.942 0.234-11.876c2.009-16.523 11.039-26.869 12.875-47.977l-1.942 2.353c2.009-7.278 4.818-23.44 6.056-21.811-0.030-0.858-0.838-2.668 0.529-5.41h1.174l0.352-2.706 0.644-3.641-1.41-3.937v0.175l-1.115-3.057-2.413-6.173c-2.999-14.001 4.752 1.123-0.469-19.166-2.486-7.406-8.847-20.579-8.763-17.58 0.769 3.036 1.461 7.907 0.471 8.467l-2.353-6.7c-0.193-0.030-0.491-0.053-0.703-0.117l-0.352-1.115 9.994-49.093-8.821-32.926 0.763 0.644-1.174-2.231-2.823-10.464c0.424 0.193 1.076 1.062 1.765 3.116-0.223-3.084-0.683-4.612-1.234-6.115-1.242-2.137-2.216-2.831-3.116-7.114-0.129-0.814 0.185-0.591 0.588 0l-3.998-6.642c1.157 1.109 1.294-2.023 2.882 2.469-4.283-13.271-11.325-19.383-11.583-24.988l0.705 0.941c-6.68-12.715-4.769-6.704-6.997-8.29l-0.117-0.352-1.174-8.35 2.647-7.113-2.294-1.648c-0.193-1.927-0.503-5.836 0.412-5.234-2.351-7.106-0.764 1.36-2.647-2.704 0.468-7.449-2.048-18.076-2.177-24.752-1.068-1.882-1.718-3.436-1.29-4.289-3.425-1.927 4.659 8.364-2.53 0.527 1.109-4.495-7.465-9.105-11.405-17.111 3.084 1.068 7.185 8.314 3.291 0.352-5.609-2.394-9.508-14.057-14.346-19.58-2.272 1.197-10.217-12.366-18.051-21.87 1.157 0.129-12.525-19.586-18.049-29.691l0.469 0.058c-3.295-0.428-9.565-10.434-14.875-17.284 1.411-0.553 2.832 0.385 5.998 3.879l-4.527-6.761c-1.752-1.109-3.472-3.017-6.644-7.171l2.704 0.703-2.411-3.233-3.291-2.763-2.882-2.353c-1.927-1.54-4.001-3.192-6.056-4.822-4.108-3.381-8.325-7.017-12.522-11.641-1.197 0.56 1.432 5.347-0.352 5.644l-5.468-5.115c0.596-0.223 1.529-0.074 3.116 1.057-1.028-0.77-3.882-2.397-5.47-4.408l5.412 2.823c-4.194-4.792-3.358-1.267-6.997-4.822 1.028-0.9-2.009-3.224-0.763-3.526 1.028 0.77 2.848 3.352 4.647 4.291-2.009-1.968-4.625-4.664-5.82-6.29-0.858-1.713-2.124-4.226-2.292-5.291-0.36 0.9-1.466 1.197-4.115-2.060-6.55-8.559-0.963-3.97-4.172-9.407-2.31-1.496-5.697-7.553-7.405-6.525-1.887-2.525-1.527-3.498-1.825-4.822-1.113-1.072-2.786-3.122-4.586-5.351-2.137-2.612-4.348-5.464-6.231-7.821-6.55-1.626-8.226-1.684-5.998 0l1.589 0.588c-0.363-0.030-0.732-0.169-1.115-0.234-7.578-1.324-15.101-3.559-22.637-5.998l-11.288-3.762c-3.596-1.202-7.017-2.357-10.525-3.468l-2.997-2.586-3.528-2.823 0.41-0.471c-8.733-6.46-18.591-15.362-25.396-19.342-2.439-2.056-4.949-5.829-3.409-5.527-0.984-0.733-1.874-1.452-2.472-1.882-1.54-0.641-2.811-1.117-4.055-1.589-1.157-0.468-2.254-0.956-3.409-1.47-2.352-1.157-5.056-2.668-9.465-5.41 8.006 2.656-2.132-2.168 8.056 3.057-9.422-5.308-11.154-7.364-22.282-10.878 4.237 0.159-6.137-5.495-11.23-7.466l6.349 4.527c-1.496-0.641-2.917-1.293-4.291-1.941-1.584-0.77-3.146-1.582-4.647-2.353-2.567-0.4-4.966-0.69-7.405-1.117l2.999-1.882c-10.658-2.782-20.597-2.872-29.928-3.174-4.625-0.129-9.097-0.324-13.463-0.88-4.283-0.604-8.331-2.001-12.229-3.879-5.992 0.424 11.548 3.359 6.115 4.172-9.848-2.229-19.569-7.443-22.696-7.997-5.479-1.628-8.714-1.794-11.583-1.706-1.459 0.065-2.729 0.169-4.233 0.234-0.726 0.030-1.597 0.030-2.411 0-0.943-0.030-1.567-0.036-3.233-0.292-1.028 0-2.114 0.058-3.352 0.058-1.072 0-2.27-0.081-3.641-0.175 1.887 0.853 3.641 2.945-7.23 3.584-10.105-0.472-12.42-3.559-5.998-4.114 2.439-0.030 3.616 0.221 3.526 0.529 3.299-0.223 7.549-0.524 3.528-1.47l-1.351 0.822c-5.007-0.943-18.92-1.067-15.58-2.353-7.706 0.689-3.395 1.249 2.294 1.765-8.388-0.937-14.792-0.796-21.343-0.88-3.084-0.193-7.323-0.612-11.818-1.29 2.092 0.641 3.982 1.741 1.882 1.529-19.477-2.785-8.722 0.716-21.989-0.117-7.408-1.882 2.936-2.657-10.464-2.823-8.091-1.588-1.549-2.257 1.708-2.646-1.459 0.030-2.881 0.030-4.291 0l-2.999-0.175c-1.181-0.127-2.331-0.21-3.468-0.353h-0.061v-0.012zM392.884 252.305c10.866-0.092 21.75 0.19 32.595 0.111 8.172-0.070 15.419 1.742 23.484 2.558 6.892 0.722 13.961 0.262 20.891 0.262 13.393-0.035 26.468-0.504 39.863-1.389 15.384-1.028 30.519-1.357 46.010-1.384 15.204-0.035 30.301 1.54 45.543 1.384 8.525-0.105 16.802 0.393 25.297 1.066 7.959 0.641 15.878 0.213 23.837 0.996 16.378 1.642 32.864 0.389 49.275 1.773 7.285 0.653 14.604-0.176 21.85 0.392 6.291 0.499 12.757 2.17 18.972 3.34 6.966 1.315 13.646 3.731 20.607 5.045 9.272 1.743 18.757 1.597 28.068 3.338 14.674 2.77 29.415 3.127 44.231 4.76 11.795 1.314 20.352 8.629 30.901 13.035 0-0.001 0-0.003 0-0.004l0.008 0.008c-0.003-0.001-0.006-0.003-0.008-0.004 0.64 2.487-1.509 5.43-1.773 7.953-0.282 2.947 0.249 5.012-0.922 7.89-1.812 4.473-4.658 8.453-6.432 13.035-1.67 4.373-3.874 8.386-5.792 12.649-11.371 25.436-27.213 48.955-36.381 75.317-2.845 8.099-8.1 14.778-11.44 22.595-2.772 6.466-4.050 13.392-7.995 19.362-5.046 7.636-8.101 16.022-11.512 24.443-2.772 6.82-6.183 13.5-8.777 20.392-3.089 8.172-3.694 16.944-6.11 25.26-1.633 5.719-3.978 11.296-6.466 16.731-7.422 16.022-18.293 30.127-27.142 45.37-7.636 13.145-9.060 29.379-13.426 43.625-4.44 14.46-9.557 28.71-14.208 43.097-2.915 9.022-7.923 16.058-13.039 24.019-5.436 8.527-10.306 16.448-16.876 24.334-5.97 7.178-11.584 14.568-15.953 22.74-4.402 8.24-10.374 14.991-15.846 22.558-5.86 8.21-10.797 16.663-17.12 24.659-5.116 6.539-10.482 12.258-15.951 18.369-3.767 4.229-7.389 8.564-10.98 12.932-2.702 3.302-5.755 8.989-9.451 11.296-1.459 0.892-2.845 0.748-4.372 1.353-3.837 1.459-5.222 5.438-7.603 8.313-5.363 6.466-10.339 12.541-14.957 19.469-2.239 3.34-3.16 7.179-5.222 10.551-1.988 3.272-5.469 5.653-7.781 8.778-2.841 3.874-4.475 8.208-7.034 12.151-0.994 1.492-2.238 2.416-2.985 4.263-0.178-2.626 1.915-4.688 3.16-6.784 3.66-6.215 4.62-13.322 7.144-19.93 3.411-8.885 7.603-17.8 11.83-26.363 3.837-7.745 9.591-14.744 12.080-22.88 1.315-4.298 3.625-8.486 5.543-12.572 2.843-5.969 4.936-12.294 8.098-18.154 4.3-7.957 10.411-15.276 14.037-23.517 1.988-4.586 4.826-9.095 6.464-13.713 1.917-5.509 3.518-10.663 5.935-16.098 4.192-9.341 7.070-19.646 12.435-28.528 5.647-9.309 11.438-18.437 15.489-28.564 4.123-10.265 7.285-21.243 12.472-31.048 3.482-6.68 5.507-13.751 9.487-20.216 3.765-6.076 7.567-11.978 10.87-18.334 1.81-3.553 4.443-6.752 6.074-10.374 1.175-2.593 1.776-5.435 3.304-7.924 1.528-2.522 3.486-4.688 4.868-7.282 2.948-5.579 3.448-11.761 6.147-17.412 2.38-4.937 5.186-10.053 8.098-14.744 2.736-4.44 5.79-8.811 8.102-13.463 1.347-2.74 2.094-5.866 3.554-8.528 1.847-3.411 4.795-5.825 7.034-8.952 3.728-5.224 5.366-11.512 8.56-17.053 3.27-5.755 5.296-12.257 7.676-18.404 1.564-4.157 3.374-8.133 4.726-12.361 1.915-5.933 3.516-12.615 6.289-18.229 1.739-3.555 4.191-5.972 5.507-9.629 1.633-4.55 4.51-7.141 7.351-11.046 2.985-4.125 7.18-9.064 8.883-13.788 2.207-6.077 2.63-12.186 5.473-18.012 4.405-8.988 8.955-18.442 12.864-27.714 1.881-4.51 2.877-9.341 4.651-13.891 2.17-5.542 4.832-9.662 5.792-15.628 0.675-4.262 1.492-7.747 3.092-11.797 1.702-4.264 2.378-8.741 3.905-13.11-7.531-1.174-16.552-0.105-24.156-0.105-7.285 0-16.809-1.413-23.843 0.329-1.917 0.46-2.341 0.997-4.366 1.102-6.717 0.428-13.469 1.065-20.252 1.811-5.15 0.605-9.556 2.524-14.46 3.802-6.999 1.881-14.497 1.279-21.672 1.279-8.812 0.026-17.585 0.053-26.397 0-4.509-0.037-8.808 0.141-13.213 1.027-4.122 0.782-7.711 2.667-11.797 3.554-11.12 2.392-22.492 4.616-33.821 2.627-10.732-1.883-20.644-7.12-31.658-7.356-5.609-0.104-10.619 0.362-16.198-1.026-7.674-1.952-14.072-5.187-22.171-5.792-8.276-0.675-16.446-2.064-24.654-3.092-15.098-1.922-30.235-2.417-45.298-4.336-20.89-2.629-42.847-4.298-63.949-3.73-8.313 0.214-16.448 1.58-24.761 1.526-9.095-0.105-17.872 0.319-26.967 0.996-15.028 1.137-29.949 2.768-44.941 4.477-7.925 0.887-15.239 2.796-23.305 2.875-5.755 0.071-10.798 0.248-16.411 1.032-6.679 0.938-13.647 0.271-20.357 0.297-3.874 0.032-7.673 0.236-11.476-0.297-3.872-0.568-8.528-0.214-12.222-1.069-1.702-0.355-2.238-2.166-4.226-1.279-0.18 2.947 2.062 6.395 2.593 9.449 0.745 4.55 3.337 8.28 4.334 12.756 1.065 4.794 1.636 7.42 4.301 12.044 2.449 4.156 2.449 7.636 3.55 12.076 2.385 9.485 5.9 18.721 8.173 28.243 1.102 4.513 3.626 8.74 4.513 13.216 0.638 3.233 0.355 4.549 1.882 7.428 1.598 3.017 3.947 5.72 5.65 8.703 4.832 8.42 5.506 17.943 9.271 26.754 1.885 4.51 2.667 9.164 3.98 13.783 1.028 3.48 3.301 6.395 4.796 9.699 2.736 6.147 5.149 12.148 8.207 18.117 2.061 3.981 2.165 7.713 3.443 11.866 1.279 4.298 4.017 8.312 5.755 12.469 1.849 4.335 2.669 8.387 4.087 12.827 2.417 7.707 7.993 14.173 12.080 21.139 3.411 5.791 6.218 11.614 8.667 17.833 5.187 13.004 15.67 23.129 23.235 34.818 2.914 4.476 3.697 9.413 5.616 14.245 2.451 6.076 6.214 12.078 9.695 17.694 7.214 11.582 12.471 23.944 18.369 36.133 5.009 10.372 9.84 20.781 14.352 31.37 5.116 12.043 13.218 22.878 19.965 34.105 6.788 11.296 11.94 23.302 18.901 34.422 6.678 10.691 10.874 21.992 15.527 33.538 3.552 8.846 7.279 17.587 11.296 26.29 4.795 10.408 8.809 21.208 14.069 31.37 5.15 9.952 9.59 20.571 13.641 30.981 1.53 3.837 2.948 8.668 2.843 12.754 1.955 4.619 1.672 7.57 1.209 10.729-4.189-2.237-4.76-9.698-7.353-13.501-2.807-4.085-6.428-7.671-9.273-11.83-4.015-5.792-8.313-10.906-12.116-16.876-2.912-4.513-3.445-9.877-6.499-14.317-3.805-5.469-6.075-10.797-8.883-16.767-5.645-11.937-13.359-23.802-20.925-34.709-3.443-4.937-7.281-9.31-11.19-13.855-3.482-4.085-5.793-9.345-8.672-13.857-7.458-11.721-14.459-23.799-21.102-35.951-5.045-9.202-10.692-17.302-17.443-25.44-5.294-6.394-8.92-13.604-12.896-20.747-4.264-7.567-10.092-13.964-14.745-21.282-3.62-5.755-6.288-12.006-10.196-17.585-4.084-5.827-8.74-10.905-11.793-17.338-3.338-6.999-7.424-13.249-11.51-19.825-3.302-5.365-5.681-11.121-9.235-16.345-3.2-4.685-7.247-8.987-10.054-13.855-3.233-5.504-5.471-11.437-8.954-16.838-2.665-4.157-5.401-8.245-8.029-12.399-14.141-22.241-24.516-45.905-30.093-71.412-3.057-14-5.72-29.736-11.69-42.845-5.542-12.185-12.721-23.662-17.94-35.955-4.831-11.335-11.153-22.311-14.352-34.247-1.28-4.798-1.776-9.807-3.199-14.57-1.243-4.264-3.018-8.097-3.871-12.469-0.707-3.586-2.519-6.215-3.976-9.519-2.417-5.472-3.805-10.874-6.967-16.060-5.648-9.2-11.262-18.577-17.409-27.461-2.097-2.982-6.606-7.354-3.659-11.155 2.203-2.843 6.538-0.68 9.629-1.248 2.097-0.388 3.587-1.386 5.824-1.491 1.813-0.105 3.697-0.026 5.509 0 7.638 0.108 14.174 4.907 21.636 6.397 8.099 1.598 19.006 1.418 27.426 0.533 5.152-0.535 7.426-3.66 11.512-6.289 3.553-2.312 7.817-3.235 11.688-4.974 12.896-5.933 24.195-13.255 38.901-14.887 7.817-0.861 15.737 0.098 23.554-0.327 7.604-0.392 15.28-1.211 22.845-2.135 9.98-1.245 19.965-1.422 29.916-2.558 6.182-0.746 12.186-1.763 18.437-2.026 3.616-0.141 7.236-0.212 10.858-0.242zM519.802 374.353l1.565 25.155c-0.468-1.133-0.915-2.273-1.244-3.484 0.285 2.629 0.853 5.185 1.494 7.674l1.242 19.435c0-4.62 0.46-9.594 0.355-14.32 2.593 7.355 6.287 14.429 9.946 21.567 8.527 16.736 11.511 33.078 14.637 51.195 3.59 20.536 8.564 39.4 8.564 60.362 0 5.546 1.318 13.004-0.529 18.227-1.528 4.373-4.94 7.321-6.466 12.257-1.528 4.832-1.938 7.921-2.201 12.752-0.817 15.313 1.633 30.557-2.312 45.121l0.032-0.002c-1.633 6.006 0.711 12.471-1.279 18.369-1.954 5.719-7.853 10.091-10.906 15.169-8.564 14.248-13.928 27.213-18.938 42.883-1.883 5.862-3.375 12.717-6.147 18.191-1.987 4.002-5.681 7.357-6.157 12.049 0.008 0.707 0.024 1.412 0.010 2.122-0.081-0.74-0.079-1.445-0.010-2.122-0.195-16.841-6.582-32.834-11.325-48.824-2.273-7.567-3.854-13.142-3.8-21.209 0.035-8.739-0.104-16.095-2.379-24.194-2.38-8.491 1.028-17.693-0.925-26.147-0.889-3.945-4.049-6.857-5.258-10.66-1.052-3.162-0.607-6.467-1.209-9.734-1.705-9.344-8.135-17.408-8.598-26.822-0.198-3.448 0.656-7.248 0.157-10.66-0.605-4.088-2.594-7.248-3.304-11.335-1.499-8.17 0.187-18.58 0.133-26.822-0.037-7.46 0.57-10.41 4.582-16.557 4.37-6.751 6.040-15.419 8.455-22.985 3.128-9.733 5.755-19.787 8.208-29.701 1.597-6.502 5.043-11.727 6.32-18.296 0.819-4.123 1.492-8.954 2.24-13.076 1.387-7.923-0.176-13.323 4.477-20.499 4.373-6.784 11.442-23.271 20.569-25.083z"></path>
    </svg>