<svg xmlns="http://www.w3.org/2000/svg" viewBox="31.783 32.000 953.303 959.984">
    <path fill="#000000" d="M32.331 453.125c0.117-0.053 0.254 0.258 0.397 0.982 0.457 2.313 0.457 6.104 0 8.417s-0.832 0.421-0.832-4.208c0-3.183 0.175-5.073 0.434-5.19z"></path>
    <path fill="#000000" d="M315.166 33.379c0.795-0.464 1.552-0.925 2.236-1.379-0.94 0.546-1.638 0.985-2.236 1.379z"></path>
    <path fill="#000000" d="M75.907 157.703c0.007-0.093-0.004-0.164-0.047-0.189 0 0 0.016 0.090 0.047 0.189z"></path>
    <path fill="#000000" d="M592.507 920.547c-0.010-0.010-0.014-0.017-0.020-0.026-0.083 0.051-0.078 0.067 0.020 0.026z"></path>
    <path fill="#000000" d="M655.022 892.655c-0.018 0-0.060 0.019-0.157 0.109 0.067-0.050 0.094-0.062 0.157-0.109z"></path>
    <path fill="#000000" d="M787.972 755.732c0.574-0.389 1.32-0.982 2.423-1.837-0.815 0.592-1.619 1.217-2.423 1.837z"></path>
    <path fill="#000000" d="M459.774 32.511c-1.61 0.887-3.12 1.718-4.647 2.528-1.028 0.424-2.040 0.884-2.938 1.351-1.842 0.726-3.565 1.545-5.234 2.231-3.338 1.33-6.351 2.488-8.704 3.641l5.291-3.641c-3.209 2.184-5.934 3.632-8.76 5.176l3.997-0.294c-3.467 1.54-6.224 2.993-6.525 2.353-2.862 2.827 3.907 1.034-2.177 5.998-2.394 0.853-5.629 2.879-8.585 4.588-1.496 0.814-2.971 1.482-4.172 2-0.641 0.193-1.117 0.425-1.589 0.469-0.288 0-0.493-0.103-0.703-0.352 0.193-0.030 1.162-0.52 1.765-0.822 0.685-0.363 1.253-0.729 1.765-0.939 0.9-0.512 1.423-0.862 1.765-1.117 0.56-0.56 0.187-0.727-0.295-0.763-0.791-0.187-1.816-0.393 1.293-2.441-1.747 1.019-3.761 2.062-6.173 3.148-0.601 0.030 0.273-0.739 1.115-1.29-0.943 0.36-2.373 0.964-2.587 0.997-0.129-0.030-0.142-0.030-0.236 0-0.129-0.030-0.175 0.026-0.175 0.058-0.288 0.065-1.182 0.193-1.529 0.352-0.984 0.288-1.614 0.675-2.469 1.058-1.669 0.77-4.023 1.636-10.703 1.765 1.333-0.846-0.793-1.355-3.116-1.648 1.486 0.596-1.425 1.937-5.762 2.704-10.058-0.682-10.902 0.939-16.168 0.939l5.995 0.294c-0.937 0.604-2.668 0.959-4.94 1.174-2.358 0.159-5.38 0.298-8.938 0.529-0.258 0.065-0.637 0.159-0.939 0.352-0.223-0.159 0.136-0.48 0.822-0.822-2.612 0.984-3.881 1.366-5.939 1.882-1.971 0.322-4.031 0.69-6.173 1.117-4.196 0.77-8.655 1.766-12.937 3.821-5.054 0.77-1.116-2.029-5.527-1.174-4.28 2.056-7.28 2.856-9.934 3.409-1.324 0.288-2.512 0.461-3.879 0.761-0.689 0.129-1.348 0.322-2.119 0.471-0.4 0.129-0.793 0.162-1.176 0.292-0.726 0.193-1.39 0.446-2.116 0.644-0.689 0.424-1.406 0.868-2.177 1.29-0.431 0.223-0.942 0.585-1.41 0.882-0.989 0.641-2.003 1.435-3.116 2.292 3.982-0.56 4.303-1.201-2.589 4.881l10.348-7.115 9.407-3.641-4.172 2.292c-1.588 0.77-2.335 1.281-4.822 2.353-1.882 1.411-2.531 2.188-3.641 3.174 1.286-0.814 2.657-1.732 3.937-2.589 1.374-0.512 2.711-1.058 3.997-1.529 1.202-0.472 2.262-0.968 3.292-1.351 2.141-0.9 4.070-1.552 5.527-1.941-5.739 3.299-5.301 2.712-2 3.057-1.798 0.030-3.49 0.357-5.115 0.763-0.814 0.193-1.7 0.52-2.469 0.822l-2.882 1.115c-2.265 1.669-4.537 3.317-6.937 5.115-2.265 1.628-4.715 3.136-7.587 4.291l-1.823-3.526c-10.105 4.625-17.637 11.334-26.93 17.757-2.999 1.628-7.59 3.847-12.172 5.645l6.056-2c-1.752 2.525-10.987 5.254-16.462 8.467-0.030-1.453-3.817-0.197-6.642 0.061 0.641 0.81-12.954 5.856-13.643 9.112l-2.353 0.705-2.116 1.529-1.589 0.997-3.057 1.942c-11.947 10.404-10.394 15.254-21.693 25.399 2.31-4.193-3.357-0.073 3.233-7.88-3.636 3.51-7.065 6.444-6.466 7.171-0.596 0.288-1.439 1.043-2.292 1.942-0.943 1.068-2.096 2.407-3.292 3.821-1.072 1.971-2.283 4.146-3.352 6.115-1.028 1.709-2.018 3.215-2.999 4.114-0.726 2.1 0.081 3.448-3.057 8.114-0.393 0.263-0.536 0.030-0.595-0.161-0.082 1.206-3.859 7.498-0.163 4.399-2.697 2.394-5.343 5.575-7.997 9.172-1.33 1.709-2.597 3.619-3.879 5.586-1.202 1.798-2.383 3.628-3.587 5.47-2.056 1.839-4.177 3.747-6.232 5.586-2.184 1.842-4.351 3.729-6.408 5.527-4.199 3.467-8.249 6.328-11.759 7.999-4.495 4.193-9.384 8.793-13.88 12.991-2.184 6.207-4.209 11.892-5.879 16.818-0.159-0.77-0.598-0.279 0.175-2-5.953 12.586 0.665 9.294-6.056 23.638-4.84 6.806 1.716-8.23-0.763-3.823-1.411 0.159-2.422 1.626-3.409 3.937-0.468 1.157-0.953 2.546-1.47 3.998-0.363 1.33-1.074 3.469-1.115 3.937-0.129 0.36-0.892 1.531-1.706 2.647l-2.292 3.409c-1.588 2.137-3.336 4.088-5.176 5.586l1.351-2.231c-6.037 5.607-10.445 16.965-18.579 27.457 0 0-0.039-0.77-0.586-0.471-0.193 0.689-0.707 1.829-1.648 3.411-0.472 2.525-1.049 5.413-1.648 8.585-0.596 2.862-1.291 5.926-2.060 9.053-1.54 6.25-3.262 12.752-4.763 18.403-0.428-4.283 0.869-5.771-1.529-4.057-1.54 5.56 3.149-0.698 0.115 10.348-0.9 1.459-1.83 3.218-3.116 5.705-1.157 3.425-2.266 6.085-3.468 6.642l0.999-7.23 1.349-4.114c-0.4 0.512-0.889 0.929-1.232 1.529-0.322 0.512-0.59 1.195-1.058 2.353-0.129 0.814-0.289 1.555-0.469 2.411l-0.352 2.058c-0.129 1.367-0.112 2.748-0.175 4.116-0.129 2.742-0.265 5.401-0.822 7.585l-0.941-0.939c-2.056 15.972 0.388 17.213-2.116 33.396-0.030 0.193-0.172 0.523-0.236 0.822 0.193-0.322 0.434-0.553 0.644-0.763 0.159-0.159 0.349-0.277 0.529-0.586 0.030 0.4 0.026 0.532 0.058 0.703 0 8.819-3.438 6.899-3.823 16.402l-3.351 2.177c-0.984 6.293-2.683 22.442-5.47 33.571 0.129-6.681 2.131-20.049 3.118-28.396-1.055 4.080-2.1 10.404-3.118 16.285 0.4 8.182-1.856 18.101-5.41 30.219-1.411-1.157-3.12 1.773-4.881 6.527-0.9 2.358-1.781 5.237-2.765 8.231-1.072 3.385-2.163 6.937-3.233 10.404 0.159 1.238 0.391 2.508 0.588 3.701 0.065 0.858 0.162 1.654 0.292 2.472 0.159 1.54 0.421 3.128 0.529 4.586 0.159 2.827 0.089 5.166-0.294 6.878 1.453 5.307 2.618 10.729 3.643 16.168 0.472 2.742 0.954 5.504 1.468 8.29 0.431 2.955 0.884 5.84 1.351 8.877 1.842 5.735 3.717 11.604 5.645 17.64 1.927 5.86 3.981 11.902 6.291 18.109 0.685-10.061 2.676 7.091 6.056 4.174 0.989 2.567 1.643 4.331 2.119 5.527 0.129 0.9 0.271 2.128 0.175 2.292v0.058l0.41 18.579c-0.512 4.495-1.836-5.607-2.647-4.881 1.798 13.147-0.825 5.779-0.527 14.641 1.202-2.009 2.784 4.238 3.468 11.818l0.234-10.821c2.439 8.647 2.258 12.231 2.177 16.816 0.322 5.093 0.16 8.748 3.762 18.169l-2.706-5.412c1.238 3.596 2.848 9.68 4.647 16.226 0.984 3.295 1.942 6.699 2.882 9.995 0.56 1.588 1.117 3.222 1.589 4.766 0.641 1.713 1.249 3.337 1.765 4.881 0.733 1.588 0.907 1.816 1.29 2.587 0.431 0.641 0.777 1.209 1.117 1.765 0.726 1.157 1.552 2.171 2.231 2.94 0.159 1.752-0.058 4.222-1.941 0.41 2.358 6.208 5.159 12.757 8.114 19.225 3.084 6.681 6.217 13.394 9.172 19.817 1.669 2.31 3.293 4.5 4.881 6.642 1.367 1.962 2.711 3.876 3.997 5.764 2.569 3.761 4.772 7.333 6.527 10.762l-1.765-0.941c2.612 3.425 5.753 5.178 7.939 10.228-0.56 0-1.894-0.906-0.822 0.763 0.512 0.596 1.628 1.855 2.999 3.352 0.641 0.77 1.288 1.548 2.058 2.411 0.77 0.984 1.317 1.528 2.647 3.409 0.943 0.858 1.922 1.83 2.821 2.647 0.726 0.726 1.338 1.369 1.942 2.058l-4.291-2.587c15.327 16.57 26.676 21.978 40.807 34.393-2.1 2.142 10.028 14.836 16.109 21.168l-0.529 0.058c4.625 4.408 9.006 8.327 13.286 12.052 4.108 3.892 8.118 7.539 12.054 11.054 4.027 3.551 7.884 7.031 11.993 10.586 1.968 1.842 4.001 3.641 6.056 5.527 1.072 0.943 2.107 1.895 3.174 2.882 1.197 1.109 2.447 2.251 3.641 3.409 0.472 0.223 0.972 0.6 1.531 0.939 3.551 3.682 9.304 8.262 16.109 13.227 3.467 2.439 7.105 5.050 10.877 7.704 4.154 2.911 8.495 5.865 12.817 8.821 4.968 1.374 9.962 2.792 14.758 4.114 4.28 1.286 8.418 2.597 12.23 3.879-3.428-1.453 1.154-2.122 5.351-1.351 5.35 2.009 15.636 1.912 14.053 4.35l-1.882-0.588c0.512 0.56 1.275 1.134 2.175 1.65 0.4 0.223 0.839 0.508 1.351 0.761 0.641 0.193 0.319 0.141 0.529 0.353-0.223 0.030 1.524 1.155 2.763 1.882 1.374 0.814 2.728 1.652 4.174 2.469 2.915 1.588 5.961 3.267 8.702 4.763l2.999-2.411c3.165 2.782 6.939 5.426 11.054 7.997 2.016 1.286 4.090 2.623 6.232 3.823 2.394 1.33 4.792 2.557 7.232 3.879l7.405 2.469c2.227 0.685 4.462 1.311 6.644 2 4.408 1.367 8.804 2.682 12.697 3.879 7.881 2.531 14.305 5.11 17.815 7.939 0.9 0.159 1.116 0.182 2.999 0.644 2.697 0.363 5.672 0.714 8.585 1.057 2.785 0.288 5.514 0.673 7.997 0.763l-0.703 1.823c6.121 1.374 11.003 2.474 16.051 3.584 2.531 0.56 5.097 1.094 7.88 1.65 3.128 0.601 6.48 1.288 10.287 2.058 2.184-0.193 6.294-0.672 10.879-1.057l-3.937 1.706c11.047-0.726 13.547-6.592 23.694-7.405l3.235 2.646 8.409-0.527 8.702-0.352 10.762-1.531 10.17-1.589c6.766-1.157 13.443-2.665 19.992-4.763-0.223 0.468-0.727 1.414-3.762 2.058 2.652-0.431 6.817-1.024 11.23-1.706 2.481-0.129 5.008-0.233 7.407-0.352 2.525-0.159 4.966-0.403 6.937-0.703 3.605-0.506 5.884-1.261 5.363-2.353 2.307 1.784 20.25-1.546 29.973-3.526l-1.41 2.116c8.518-3.508 8.701-4.227 20.814-6.408 2.915-0.129 2.736 1.115-1.115 1.115 9.722-0.193 7.23-2.647 19.047-3.116l-4.172 1.765c4.84-0.56 7.089-0.954 8.76-1.468s2.686-1.080 6.115-2.233c0.030-0.030 0.202-0.198 0.352-0.292 0.814-0.596 1.72-1.334 2.704-2.060 0.77-0.512 1.668-0.99 2.53-1.589 1.798-1.117 3.701-2.291 5.586-3.233 3.682-1.883 7.044-3.16 8.114-2.821 0.553-1.626 4.361-5.685 9.582-8.469 1.028 0.129-0.579 1.564-1.349 2.292 3.428-1.842 6.29-3.697 8.819-5.41 1.286-0.943 2.447-1.731 3.641-2.587l1.589-1.234 0.999-0.763c0.512-0.288 2.055-0.87 3.468-1.293 1.374-0.472 2.683-0.983 4.057-1.407 2.697-0.77 5.457-1.39 8.585-1.648 0.4 0.512 1.088 0.628 2.116 0.586-7.533 1.882-14.105 3.646-17.872 4.588-0.77 0.472-1.364 0.832-1.708 0.997-0.279 0.182-0.468 0.28-0.565 0.322 0.412 0.636 2.666-0.171 2.92 0.208 0.472 0.159 0.684 0.347 0.939 0.642 0.129 0.288-0.030 0.839 0 1.351 0 0.095 0.030 0.233 0.061 0.352 0-0.065 0.026-0.233 0.058-0.352 0.553-0.193 1.073-0.449 1.589-0.703 1.202-0.472 2.408-1.030 3.643-1.589 2.486-1.028 5.122-2.119 7.82-3.233 5.355-2.184 10.949-4.14 15.875-5.001 0.512 0.030 0.99 0.047 1.41 0.175l-0.999 0.412c2.358-0.431 4.524-1.111 6.41-1.884 1.626-0.288 2.966-0.567 4.289-0.822 1.496-0.288 2.031-0.421 5.117-1.174 0.56 0.159 1.831 0.038 3.76-0.353 1.109-1.11 2.517-2.6 4.057-4.348 0.862-1.028 1.761-2.077 2.704-3.233 1.842-2.227 3.851-4.541 5.176-6.173-1.731-0.843 2.768-5.92-2.312-2.168 0.099 0.030-0.999 1.489-2.922 3.811-0.431 0.682-0.98 1.413-1.234 1.884 0-0.129 0.028-0.288 0.061-0.471l-6.937 8.469-5.881 1.589c1.202-0.689 3.611-1.604 5.41-2.294 0.641-0.9 1.311-1.827 2-2.763 0.56-0.73 1.181-1.582 1.825-2.353 1.068-1.374 2.352-2.651 3.937-3.937 0.814-2.908 1.811-6.031 2.411-7.704 6.766-3.851 16.979-13.747 19.462-14.17 1.713-2.272 3.466-4.689 5.349-7.171 2.567-2.184 5.211-4.462 7.822-6.644 2.785-2.439 5.445-4.767 8.056-6.996 5.097-4.667 9.437-9.092 11.876-12.817 3.338-3.209 4.754-2.472 6.466-3.116-1.927 1.962-4.416 3.89-5.232 5.176 6.465-6.72 21.969-16.373 22.224-19.759 10.187-5.826-4.026 5.666 8.819-3.879l-1.293 1.823c3.425-1.798 6.511-3.658 9.465-5.586 1.459-1.028 2.881-2.001 4.291-2.94 1.752-1.286 3.507-2.537 5.176-3.821l2.116-3.937 1.351-2.704 2.411-5.412c1.588-3.596 3.235-7.179 4.822-10.821 3.209-7.153 6.994-15.059 11.407-22.165 2.53-2.355 6.016-5.379 9.689-8.215-0.428 0.291-0.771 0.479-1.044 0.515 4.667-4.108 9.217-8.431 13.759-12.757l6.7-6.7 7.115-6.996c9.336-14.941 17.164-28.152 26.752-42.922l2.823-8.702 2.823-8.114c1.927-5.437 3.977-10.711 6.115-15.934 3.128-8.178 3.067-10.761 3.409-15.17 0-1.157 0.115-2.485 0.115-4.114l2.472-1.942 0.234-11.876c2.009-16.523 11.039-26.87 12.876-47.978l-1.942 2.353c2.009-7.278 4.818-23.441 6.056-21.812-0.030-0.858-0.838-2.668 0.529-5.41h1.174l0.352-2.706 0.644-3.641-1.41-3.937v0.175l-1.115-3.057-2.413-6.173c-2.999-14.002 4.752 1.123-0.469-19.166-2.486-7.406-8.847-20.58-8.763-17.581 0.769 3.037 1.461 7.907 0.471 8.467l-2.353-6.7c-0.193-0.030-0.491-0.053-0.703-0.117l-0.352-1.115 9.995-49.095-8.821-32.927 0.763 0.644-1.174-2.231-2.823-10.464c0.424 0.193 1.076 1.062 1.765 3.116-0.223-3.084-0.683-4.612-1.234-6.115-1.242-2.137-2.216-2.831-3.116-7.115-0.129-0.814 0.185-0.591 0.588 0l-3.998-6.642c1.157 1.109 1.294-2.023 2.882 2.469-4.283-13.271-11.325-19.384-11.584-24.989l0.705 0.941c-6.681-12.715-4.769-6.704-6.997-8.29l-0.117-0.352-1.174-8.35 2.647-7.113-2.294-1.648c-0.193-1.927-0.503-5.836 0.412-5.234-2.351-7.106-0.764 1.36-2.647-2.704 0.468-7.449-2.048-18.077-2.177-24.753-1.068-1.882-1.718-3.436-1.29-4.289-3.425-1.927 4.659 8.364-2.53 0.527 1.109-4.495-7.465-9.105-11.406-17.111 3.084 1.068 7.185 8.315 3.292 0.352-5.609-2.394-9.508-14.058-14.347-19.581-2.272 1.197-10.218-12.367-18.052-21.871 1.157 0.129-12.525-19.587-18.050-29.692l0.469 0.058c-3.295-0.428-9.565-10.434-14.875-17.285 1.411-0.553 2.832 0.385 5.998 3.879l-4.527-6.761c-1.752-1.109-3.472-3.017-6.644-7.171l2.704 0.703-2.411-3.233-3.292-2.763-2.882-2.353c-1.927-1.54-4.001-3.192-6.056-4.822-4.108-3.381-8.325-7.017-12.522-11.642-1.197 0.56 1.432 5.347-0.352 5.645l-5.468-5.115c0.596-0.223 1.529-0.074 3.116 1.057-1.028-0.77-3.882-2.397-5.47-4.408l5.412 2.823c-4.194-4.792-3.358-1.267-6.997-4.822 1.028-0.9-2.009-3.224-0.763-3.526 1.028 0.77 2.848 3.352 4.647 4.291-2.009-1.968-4.625-4.664-5.82-6.291-0.858-1.713-2.124-4.226-2.292-5.291-0.36 0.9-1.466 1.197-4.116-2.060-6.55-8.559-0.963-3.97-4.172-9.407-2.31-1.496-5.697-7.553-7.405-6.525-1.887-2.525-1.527-3.498-1.825-4.822-1.113-1.072-2.786-3.122-4.586-5.351-2.137-2.612-4.348-5.465-6.232-7.822-6.55-1.626-8.227-1.684-5.998 0l1.589 0.588c-0.363-0.030-0.732-0.169-1.115-0.234-7.579-1.324-15.101-3.559-22.638-5.998l-11.288-3.762c-3.596-1.202-7.017-2.357-10.525-3.468l-2.997-2.587-3.528-2.823 0.41-0.471c-8.733-6.46-18.592-15.363-25.397-19.342-2.439-2.056-4.949-5.829-3.409-5.527-0.984-0.733-1.874-1.452-2.472-1.882-1.54-0.641-2.812-1.117-4.055-1.589-1.157-0.468-2.254-0.956-3.409-1.47-2.352-1.157-5.056-2.668-9.465-5.41 8.006 2.656-2.132-2.168 8.056 3.057-9.422-5.308-11.154-7.364-22.282-10.879 4.237 0.159-6.137-5.496-11.23-7.466l6.349 4.527c-1.496-0.641-2.917-1.293-4.291-1.941-1.584-0.77-3.146-1.582-4.647-2.353-2.567-0.4-4.966-0.69-7.405-1.117l2.999-1.882c-10.658-2.782-20.598-2.872-29.929-3.174-4.625-0.129-9.097-0.324-13.463-0.88-4.283-0.604-8.332-2.001-12.23-3.879-5.992 0.424 11.548 3.359 6.115 4.172-9.848-2.229-19.569-7.443-22.697-7.997-5.48-1.628-8.714-1.794-11.584-1.706-1.459 0.065-2.729 0.169-4.233 0.234-0.726 0.030-1.597 0.030-2.411 0-0.943-0.030-1.567-0.036-3.233-0.292-1.028 0-2.114 0.058-3.352 0.058-1.072 0-2.27-0.081-3.641-0.175 1.887 0.853 3.641 2.945-7.23 3.584-10.105-0.472-12.421-3.559-5.998-4.114 2.439-0.030 3.616 0.221 3.526 0.529 3.299-0.223 7.55-0.524 3.528-1.47l-1.351 0.822c-5.007-0.943-18.921-1.067-15.58-2.353-7.706 0.689-3.395 1.249 2.294 1.765-8.389-0.937-14.793-0.796-21.344-0.88-3.084-0.193-7.323-0.612-11.818-1.29 2.092 0.641 3.982 1.741 1.882 1.529-19.477-2.785-8.722 0.716-21.99-0.117-7.408-1.882 2.936-2.657-10.464-2.823-8.092-1.588-1.549-2.257 1.708-2.646-1.459 0.030-2.881 0.030-4.291 0l-2.999-0.175c-1.181-0.127-2.331-0.21-3.468-0.353h-0.058zM445.172 129.273c0.184 0.023 0.344 0.077 0.479 0.159 7.408 4.576 3.949 27.605-6.127 40.815-5.516 7.232-14.567 23.41-20.114 35.948s-15.843 31.169-22.881 41.401c-7.038 10.232-16.417 27.257-20.841 37.835s-12.426 28.406-17.782 39.622c-17.65 36.961-30.683 70.216-30.683 78.288 0 4.372 6.422 16.98 14.272 28.022s14.273 22.506 14.273 25.481c0 2.975 26.134 31.141 58.077 62.589l58.077 57.177 4.766 80.146c2.622 44.078 7.654 110.293 11.183 147.143s5.74 67.683 4.907 68.514c-0.832 0.832-10.972-15.555-22.529-36.419l-0.007-0.002c-11.557-20.862-28.304-47.107-37.212-58.32s-17.955-26.81-20.102-34.66c-2.148-7.85-4.771-46.198-5.834-85.217l-1.928-70.947-13.866-14.683c-20.994-22.233-47.707-64.102-47.818-74.954-0.040-4.861-33.238-48.187-58.271-76.071l-12.577-14.011 11.642-32.871c6.403-18.078 21.664-52.143 33.908-75.697 26.503-50.98 38.111-74.047 47.982-95.336 4.134-8.915 15.464-21.72 25.988-29.367 10.262-7.458 25.618-21.047 34.125-30.197 7.975-8.578 16.132-14.744 18.89-14.389zM551.077 132.087c1.697-0.15 4.523 1.732 8.567 5.392 4.512 4.085 9.282 6.347 10.602 5.029 3.662-3.66 59.447 65.165 98.22 121.179 23.946 34.594 63.195 111.836 59.79 117.671-1.558 2.672-11.568 14.035-22.238 25.247-30.703 32.259-65.336 75.082-85.764 106.042-34.657 52.526-33.382 47.345-35.366 143.857-1.706 83.033-2.196 87.361-11.301 99.903-9.613 13.244-28.13 49.218-39.8 77.331-3.491 8.41-7.174 15.292-8.182 15.292s-3-13.302-4.427-29.563l0.004 0.002c-1.424-16.259-4.526-48.832-6.884-72.38s-3.674-72.352-2.918-108.453l1.373-65.638 20.389-20.501c37.217-37.423 65.031-71.182 83.591-101.45 10.092-16.458 27.982-40.033 39.757-52.395s21.408-25.391 21.408-28.957c0-7.822-43.92-88.343-66.145-121.268-8.767-12.986-24.217-33.775-34.331-46.193-12.267-15.061-20.36-30.131-24.3-45.266-4.402-16.899-5.283-24.595-2.044-24.881zM494.572 228.861c4.641 0.243 11.055 6.86 15.997 17.692 10.252 22.488 26.616 65.848 32.844 87.033 4.517 15.359 4.081 18.004-5.482 33.149-13.025 20.633-29.37 59.195-35.632 84.066-2.632 10.451-6.178 19.003-7.882 19.003-1.706 0-13.938-16.056-27.184-35.679v0.004c-13.249-19.624-29.386-48.164-35.863-63.425l-11.773-27.743 8.886-17.111c17.58-33.857 31.512-56.119 45.536-72.767 7.85-9.317 14.882-18.497 15.628-20.398 1.072-2.726 2.816-3.933 4.926-3.823z"></path>
    </svg>