<svg xmlns="http://www.w3.org/2000/svg" viewBox="31.794 32.521 953.272 959.453">
    <path fill="#000000" d="M592.504 920.532c-0.010-0.010-0.014-0.017-0.020-0.026-0.083 0.051-0.078 0.067 0.020 0.026z"></path>
    <path fill="#000000" d="M655.015 892.641c-0.018 0-0.060 0.019-0.157 0.109 0.067-0.050 0.094-0.062 0.157-0.109z"></path>
    <path fill="#000000" d="M787.961 755.723c0.574-0.389 1.32-0.982 2.423-1.837-0.815 0.592-1.619 1.217-2.423 1.837z"></path>
    <path fill="#000000" d="M459.776 32.528c-1.61 0.887-3.12 1.718-4.647 2.528-1.028 0.424-2.040 0.884-2.938 1.351-1.842 0.726-3.565 1.545-5.234 2.231-3.338 1.33-6.35 2.488-8.703 3.641l5.291-3.641c-3.209 2.184-5.934 3.632-8.76 5.176l3.996-0.294c-3.467 1.54-6.224 2.993-6.525 2.353-2.862 2.826 3.907 1.034-2.177 5.998-2.394 0.853-5.629 2.879-8.584 4.588-1.496 0.814-2.971 1.482-4.172 2-0.641 0.193-1.117 0.425-1.589 0.469-0.288 0-0.493-0.103-0.703-0.352 0.193-0.030 1.162-0.52 1.765-0.822 0.685-0.363 1.253-0.729 1.765-0.939 0.9-0.512 1.423-0.862 1.765-1.117 0.56-0.56 0.187-0.727-0.295-0.763-0.791-0.187-1.816-0.393 1.293-2.441-1.747 1.019-3.761 2.062-6.173 3.148-0.601 0.030 0.273-0.739 1.115-1.29-0.943 0.36-2.373 0.964-2.586 0.997-0.129-0.030-0.142-0.030-0.236 0-0.129-0.030-0.175 0.026-0.175 0.058-0.288 0.065-1.182 0.193-1.529 0.352-0.984 0.288-1.614 0.675-2.469 1.058-1.669 0.77-4.023 1.636-10.703 1.765 1.333-0.846-0.793-1.355-3.116-1.648 1.486 0.596-1.425 1.937-5.762 2.704-10.058-0.682-10.902 0.939-16.168 0.939l5.995 0.294c-0.937 0.604-2.668 0.959-4.94 1.174-2.358 0.159-5.38 0.298-8.938 0.529-0.258 0.065-0.637 0.159-0.939 0.352-0.223-0.159 0.136-0.48 0.822-0.822-2.612 0.984-3.881 1.366-5.939 1.882-1.971 0.322-4.031 0.69-6.173 1.117-4.196 0.77-8.655 1.766-12.936 3.821-5.054 0.77-1.116-2.029-5.527-1.174-4.28 2.056-7.279 2.856-9.933 3.409-1.324 0.288-2.512 0.461-3.879 0.761-0.689 0.129-1.348 0.322-2.119 0.471-0.4 0.129-0.793 0.162-1.176 0.292-0.726 0.193-1.39 0.446-2.116 0.644-0.689 0.424-1.406 0.868-2.177 1.29-0.431 0.223-0.942 0.585-1.41 0.882-0.989 0.641-2.003 1.435-3.116 2.292 3.982-0.56 4.303-1.201-2.589 4.88l10.348-7.114 9.407-3.641-4.172 2.292c-1.588 0.77-2.335 1.281-4.822 2.353-1.882 1.411-2.531 2.188-3.641 3.174 1.286-0.814 2.657-1.732 3.937-2.589 1.374-0.512 2.711-1.058 3.996-1.529 1.202-0.472 2.262-0.968 3.291-1.351 2.141-0.9 4.070-1.552 5.527-1.941-5.739 3.299-5.3 2.712-2 3.057-1.798 0.030-3.49 0.357-5.115 0.763-0.814 0.193-1.7 0.52-2.469 0.822l-2.882 1.115c-2.265 1.669-4.536 3.317-6.936 5.115-2.265 1.628-4.715 3.136-7.587 4.291l-1.823-3.526c-10.105 4.625-17.637 11.334-26.929 17.757-2.999 1.628-7.59 3.846-12.171 5.644l6.056-2c-1.752 2.525-10.986 5.254-16.462 8.467-0.030-1.453-3.816-0.197-6.642 0.061 0.641 0.81-12.954 5.855-13.643 9.111l-2.353 0.705-2.116 1.529-1.589 0.997-3.057 1.942c-11.946 10.404-10.394 15.254-21.692 25.398 2.31-4.193-3.357-0.073 3.233-7.879-3.635 3.51-7.065 6.444-6.466 7.171-0.596 0.288-1.439 1.043-2.292 1.942-0.943 1.068-2.096 2.407-3.291 3.821-1.072 1.971-2.283 4.145-3.352 6.115-1.028 1.709-2.018 3.215-2.999 4.114-0.726 2.1 0.081 3.448-3.057 8.114-0.393 0.263-0.536 0.030-0.595-0.161-0.082 1.206-3.859 7.498-0.163 4.399-2.697 2.394-5.343 5.575-7.997 9.172-1.33 1.709-2.597 3.619-3.879 5.585-1.202 1.798-2.383 3.628-3.587 5.47-2.056 1.839-4.176 3.747-6.232 5.585-2.184 1.842-4.351 3.729-6.408 5.527-4.199 3.467-8.249 6.328-11.759 7.998-4.495 4.193-9.384 8.793-13.879 12.99-2.184 6.207-4.209 11.892-5.879 16.817-0.159-0.77-0.598-0.279 0.175-2-5.953 12.585 0.665 9.294-6.056 23.637-4.84 6.806 1.716-8.23-0.763-3.823-1.411 0.159-2.421 1.626-3.409 3.937-0.468 1.157-0.953 2.546-1.47 3.998-0.363 1.33-1.074 3.469-1.115 3.937-0.129 0.36-0.892 1.531-1.706 2.647l-2.292 3.409c-1.588 2.137-3.336 4.088-5.176 5.585l1.351-2.231c-6.036 5.607-10.444 16.964-18.579 27.456 0 0-0.039-0.77-0.586-0.471-0.193 0.689-0.707 1.829-1.648 3.411-0.472 2.525-1.049 5.413-1.648 8.584-0.596 2.862-1.291 5.926-2.060 9.053-1.54 6.25-3.262 12.751-4.763 18.402-0.428-4.283 0.869-5.771-1.529-4.057-1.54 5.56 3.149-0.698 0.115 10.348-0.9 1.459-1.83 3.218-3.116 5.704-1.157 3.425-2.266 6.085-3.468 6.642l0.999-7.23 1.349-4.114c-0.4 0.512-0.889 0.929-1.232 1.529-0.322 0.512-0.59 1.195-1.058 2.353-0.129 0.814-0.289 1.555-0.469 2.411l-0.352 2.058c-0.129 1.367-0.112 2.748-0.175 4.115-0.129 2.742-0.265 5.401-0.822 7.585l-0.941-0.939c-2.056 15.972 0.388 17.213-2.116 33.394-0.030 0.193-0.172 0.523-0.236 0.822 0.193-0.322 0.434-0.553 0.644-0.763 0.159-0.159 0.349-0.277 0.529-0.586 0.030 0.4 0.026 0.532 0.058 0.703 0 8.819-3.438 6.899-3.823 16.401l-3.351 2.177c-0.984 6.293-2.683 22.441-5.47 33.57 0.129-6.68 2.131-20.049 3.118-28.395-1.055 4.080-2.1 10.404-3.118 16.285 0.4 8.181-1.856 18.101-5.41 30.218-1.411-1.157-3.12 1.773-4.88 6.527-0.9 2.358-1.781 5.237-2.765 8.231-1.072 3.385-2.163 6.937-3.233 10.404 0.159 1.238 0.391 2.508 0.588 3.701 0.065 0.858 0.162 1.654 0.292 2.472 0.159 1.54 0.421 3.128 0.529 4.586 0.159 2.826 0.089 5.165-0.294 6.878 1.453 5.307 2.618 10.728 3.643 16.168 0.472 2.742 0.954 5.504 1.468 8.29 0.431 2.955 0.884 5.839 1.351 8.877 1.842 5.734 3.717 11.604 5.644 17.639 1.927 5.86 3.98 11.901 6.29 18.108 0.685-10.061 2.676 7.091 6.056 4.174 0.989 2.567 1.643 4.331 2.119 5.527 0.129 0.9 0.271 2.128 0.175 2.292v0.058l0.41 18.579c-0.512 4.495-1.836-5.607-2.647-4.88 1.798 13.146-0.825 5.779-0.527 14.64 1.202-2.009 2.784 4.238 3.468 11.818l0.234-10.82c2.439 8.646 2.258 12.23 2.177 16.815 0.322 5.093 0.16 8.748 3.762 18.168l-2.706-5.412c1.238 3.596 2.848 9.679 4.647 16.226 0.984 3.295 1.941 6.699 2.882 9.994 0.56 1.588 1.117 3.222 1.589 4.766 0.641 1.714 1.249 3.337 1.765 4.88 0.733 1.588 0.907 1.816 1.29 2.586 0.431 0.641 0.777 1.209 1.117 1.765 0.726 1.157 1.552 2.171 2.231 2.94 0.159 1.752-0.058 4.221-1.941 0.41 2.358 6.208 5.159 12.756 8.114 19.225 3.084 6.68 6.217 13.394 9.172 19.816 1.669 2.31 3.293 4.5 4.88 6.642 1.367 1.962 2.711 3.875 3.996 5.764 2.569 3.761 4.772 7.333 6.527 10.761l-1.765-0.941c2.612 3.425 5.753 5.178 7.938 10.228-0.56 0-1.894-0.906-0.822 0.763 0.512 0.596 1.628 1.855 2.999 3.352 0.641 0.77 1.288 1.548 2.058 2.411 0.77 0.984 1.317 1.528 2.647 3.409 0.943 0.858 1.922 1.83 2.821 2.647 0.726 0.726 1.338 1.369 1.942 2.058l-4.291-2.586c15.327 16.57 26.675 21.977 40.806 34.392-2.1 2.142 10.028 14.835 16.108 21.167l-0.529 0.058c4.625 4.408 9.005 8.327 13.286 12.052 4.108 3.892 8.118 7.539 12.054 11.054 4.027 3.551 7.884 7.031 11.993 10.586 1.968 1.842 4.001 3.641 6.056 5.527 1.072 0.943 2.106 1.895 3.174 2.882 1.197 1.109 2.447 2.251 3.641 3.409 0.472 0.223 0.972 0.6 1.531 0.939 3.551 3.681 9.303 8.262 16.108 13.227 3.467 2.439 7.105 5.050 10.876 7.704 4.154 2.911 8.494 5.865 12.817 8.821 4.968 1.374 9.962 2.792 14.758 4.114 4.28 1.286 8.418 2.597 12.229 3.879-3.428-1.453 1.154-2.121 5.351-1.351 5.35 2.009 15.635 1.911 14.053 4.35l-1.882-0.588c0.512 0.56 1.275 1.134 2.175 1.65 0.4 0.223 0.839 0.508 1.351 0.761 0.641 0.193 0.319 0.141 0.529 0.353-0.223 0.030 1.524 1.155 2.763 1.882 1.374 0.814 2.728 1.652 4.174 2.469 2.915 1.588 5.96 3.266 8.702 4.763l2.999-2.411c3.165 2.782 6.939 5.426 11.054 7.997 2.016 1.286 4.090 2.623 6.231 3.823 2.394 1.33 4.792 2.556 7.232 3.879l7.405 2.469c2.226 0.685 4.462 1.311 6.644 2 4.408 1.367 8.804 2.682 12.696 3.879 7.88 2.531 14.305 5.11 17.815 7.938 0.9 0.159 1.116 0.182 2.999 0.644 2.697 0.363 5.672 0.714 8.584 1.057 2.785 0.288 5.514 0.673 7.997 0.763l-0.703 1.823c6.121 1.374 11.003 2.474 16.050 3.585 2.531 0.56 5.097 1.094 7.879 1.65 3.128 0.601 6.48 1.288 10.287 2.058 2.184-0.193 6.294-0.672 10.878-1.057l-3.937 1.706c11.047-0.726 13.546-6.592 23.694-7.405l3.235 2.646 8.409-0.527 8.702-0.352 10.761-1.531 10.17-1.589c6.766-1.157 13.442-2.665 19.991-4.763-0.223 0.468-0.727 1.414-3.762 2.058 2.652-0.431 6.817-1.024 11.23-1.706 2.481-0.129 5.008-0.233 7.407-0.352 2.525-0.159 4.966-0.403 6.936-0.703 3.605-0.506 5.884-1.261 5.363-2.353 2.307 1.784 20.249-1.546 29.972-3.526l-1.41 2.116c8.518-3.508 8.701-4.227 20.814-6.408 2.915-0.129 2.736 1.115-1.115 1.115 9.722-0.193 7.23-2.647 19.047-3.116l-4.172 1.765c4.84-0.56 7.089-0.954 8.76-1.468s2.686-1.080 6.115-2.233c0.030-0.030 0.202-0.198 0.352-0.292 0.814-0.596 1.72-1.334 2.704-2.060 0.77-0.512 1.668-0.99 2.53-1.589 1.798-1.117 3.701-2.291 5.585-3.233 3.681-1.883 7.044-3.16 8.114-2.821 0.553-1.626 4.361-5.685 9.582-8.469 1.028 0.129-0.579 1.564-1.349 2.292 3.428-1.842 6.289-3.697 8.819-5.41 1.286-0.943 2.447-1.731 3.641-2.586l1.589-1.234 0.999-0.763c0.512-0.288 2.055-0.87 3.468-1.293 1.374-0.472 2.683-0.983 4.057-1.407 2.697-0.77 5.457-1.39 8.584-1.648 0.4 0.512 1.088 0.628 2.116 0.586-7.533 1.882-14.104 3.646-17.872 4.588-0.77 0.472-1.364 0.832-1.708 0.997-0.279 0.182-0.468 0.28-0.565 0.322 0.412 0.636 2.666-0.171 2.92 0.208 0.472 0.159 0.684 0.347 0.939 0.642 0.129 0.288-0.030 0.839 0 1.351 0 0.095 0.027 0.233 0.058 0.352 0-0.065 0.026-0.233 0.058-0.352 0.553-0.193 1.073-0.449 1.589-0.703 1.202-0.472 2.408-1.030 3.643-1.589 2.486-1.028 5.122-2.119 7.819-3.233 5.355-2.184 10.949-4.14 15.874-5 0.512 0.030 0.99 0.047 1.41 0.175l-0.999 0.412c2.358-0.431 4.524-1.111 6.409-1.884 1.626-0.288 2.966-0.567 4.289-0.822 1.496-0.288 2.031-0.421 5.117-1.174 0.56 0.159 1.831 0.038 3.76-0.353 1.109-1.11 2.517-2.6 4.057-4.348 0.862-1.028 1.761-2.077 2.704-3.233 1.842-2.226 3.851-4.541 5.176-6.173-1.731-0.843 2.768-5.92-2.312-2.168 0.099 0.030-0.999 1.489-2.922 3.811-0.431 0.682-0.98 1.413-1.234 1.884 0-0.129 0.031-0.288 0.063-0.471l-6.936 8.469-5.881 1.589c1.202-0.689 3.611-1.604 5.41-2.294 0.641-0.9 1.311-1.827 2-2.763 0.56-0.73 1.181-1.582 1.825-2.353 1.068-1.374 2.352-2.651 3.937-3.937 0.814-2.908 1.811-6.031 2.411-7.704 6.766-3.851 16.978-13.746 19.461-14.17 1.713-2.272 3.466-4.689 5.349-7.171 2.567-2.184 5.21-4.462 7.821-6.644 2.785-2.439 5.445-4.767 8.056-6.995 5.097-4.667 9.437-9.092 11.876-12.817 3.338-3.209 4.754-2.472 6.466-3.116-1.927 1.962-4.415 3.89-5.232 5.176 6.465-6.72 21.969-16.373 22.224-19.758 10.187-5.825-4.025 5.666 8.819-3.879l-1.293 1.823c3.425-1.798 6.511-3.658 9.465-5.585 1.459-1.028 2.881-2.001 4.291-2.94 1.752-1.286 3.507-2.537 5.176-3.821l2.116-3.937 1.351-2.704 2.411-5.412c1.588-3.596 3.235-7.179 4.822-10.82 3.209-7.153 6.994-15.059 11.407-22.165 2.53-2.355 6.016-5.379 9.689-8.215-0.428 0.291-0.771 0.479-1.044 0.515 4.667-4.108 9.216-8.431 13.758-12.756l6.7-6.7 7.114-6.995c9.335-14.94 17.163-28.151 26.751-42.92l2.823-8.702 2.823-8.114c1.927-5.437 3.977-10.711 6.115-15.933 3.128-8.178 3.066-10.76 3.409-15.169 0-1.157 0.115-2.485 0.115-4.114l2.472-1.942 0.234-11.876c2.009-16.523 11.039-26.869 12.875-47.977l-1.942 2.353c2.009-7.278 4.818-23.44 6.056-21.811-0.030-0.858-0.838-2.668 0.529-5.41h1.174l0.352-2.706 0.644-3.641-1.41-3.937v0.175l-1.115-3.057-2.413-6.173c-2.999-14.001 4.752 1.123-0.469-19.166-2.486-7.406-8.847-20.579-8.763-17.58 0.769 3.036 1.461 7.907 0.471 8.467l-2.353-6.7c-0.193-0.030-0.491-0.053-0.703-0.117l-0.352-1.115 9.994-49.093-8.821-32.926 0.763 0.644-1.174-2.231-2.823-10.464c0.424 0.193 1.076 1.062 1.765 3.116-0.223-3.084-0.683-4.612-1.234-6.115-1.242-2.137-2.216-2.831-3.116-7.114-0.129-0.814 0.185-0.591 0.588 0l-3.998-6.642c1.157 1.109 1.294-2.023 2.882 2.469-4.283-13.271-11.325-19.383-11.583-24.988l0.705 0.941c-6.68-12.715-4.769-6.704-6.997-8.29l-0.117-0.352-1.174-8.35 2.647-7.113-2.294-1.648c-0.193-1.927-0.503-5.836 0.412-5.234-2.351-7.106-0.764 1.36-2.647-2.704 0.468-7.449-2.048-18.076-2.177-24.752-1.068-1.882-1.718-3.436-1.29-4.289-3.425-1.927 4.659 8.364-2.53 0.527 1.109-4.495-7.465-9.105-11.405-17.111 3.084 1.068 7.185 8.314 3.291 0.352-5.609-2.394-9.508-14.057-14.346-19.58-2.272 1.197-10.217-12.366-18.051-21.87 1.157 0.129-12.525-19.586-18.049-29.691l0.469 0.058c-3.295-0.428-9.565-10.434-14.875-17.284 1.411-0.553 2.832 0.385 5.998 3.879l-4.527-6.761c-1.752-1.109-3.472-3.017-6.644-7.171l2.704 0.703-2.411-3.233-3.291-2.763-2.882-2.353c-1.927-1.54-4.001-3.192-6.056-4.822-4.108-3.381-8.325-7.017-12.522-11.641-1.197 0.56 1.432 5.347-0.352 5.644l-5.468-5.115c0.596-0.223 1.529-0.074 3.116 1.057-1.028-0.77-3.882-2.397-5.47-4.408l5.412 2.823c-4.194-4.792-3.358-1.267-6.997-4.822 1.028-0.9-2.009-3.224-0.763-3.526 1.028 0.77 2.848 3.352 4.647 4.291-2.009-1.968-4.625-4.664-5.82-6.29-0.858-1.713-2.124-4.226-2.292-5.291-0.36 0.9-1.466 1.197-4.115-2.060-6.55-8.559-0.963-3.97-4.172-9.407-2.31-1.496-5.697-7.553-7.405-6.525-1.887-2.525-1.527-3.498-1.825-4.822-1.113-1.072-2.786-3.122-4.586-5.351-2.137-2.612-4.348-5.464-6.231-7.821-6.55-1.626-8.226-1.684-5.998 0l1.589 0.588c-0.363-0.030-0.732-0.169-1.115-0.234-7.578-1.324-15.101-3.559-22.637-5.998l-11.288-3.762c-3.596-1.202-7.017-2.357-10.525-3.468l-2.997-2.586-3.528-2.823 0.41-0.471c-8.733-6.46-18.591-15.362-25.396-19.342-2.439-2.056-4.949-5.829-3.409-5.527-0.984-0.733-1.874-1.452-2.472-1.882-1.54-0.641-2.811-1.117-4.055-1.589-1.157-0.468-2.254-0.956-3.409-1.47-2.352-1.157-5.056-2.668-9.465-5.41 8.006 2.656-2.132-2.168 8.056 3.057-9.422-5.308-11.154-7.364-22.282-10.878 4.237 0.159-6.137-5.495-11.23-7.466l6.349 4.527c-1.496-0.641-2.917-1.293-4.291-1.941-1.584-0.77-3.146-1.582-4.647-2.353-2.567-0.4-4.966-0.69-7.405-1.117l2.999-1.882c-10.658-2.782-20.597-2.872-29.928-3.174-4.625-0.129-9.097-0.324-13.463-0.88-4.283-0.604-8.331-2.001-12.229-3.879-5.992 0.424 11.548 3.359 6.115 4.172-9.848-2.229-19.569-7.443-22.696-7.997-5.479-1.628-8.714-1.794-11.583-1.706-1.459 0.065-2.729 0.169-4.233 0.234-0.726 0.030-1.597 0.030-2.411 0-0.943-0.030-1.567-0.036-3.233-0.292-1.028 0-2.114 0.058-3.352 0.058-1.072 0-2.27-0.081-3.641-0.175 1.887 0.853 3.641 2.945-7.23 3.584-10.105-0.472-12.42-3.559-5.998-4.114 2.439-0.030 3.616 0.221 3.526 0.529 3.299-0.223 7.549-0.524 3.528-1.47l-1.351 0.822c-5.007-0.943-18.92-1.067-15.58-2.353-7.706 0.689-3.395 1.249 2.294 1.765-8.388-0.937-14.792-0.796-21.343-0.88-3.084-0.193-7.323-0.612-11.818-1.29 2.092 0.641 3.982 1.741 1.882 1.529-19.477-2.785-8.722 0.716-21.989-0.117-7.408-1.882 2.936-2.657-10.464-2.823-8.091-1.588-1.549-2.257 1.708-2.646-1.459 0.030-2.881 0.030-4.291 0l-2.999-0.175c-1.181-0.127-2.331-0.21-3.468-0.353h-0.061v-0.012zM519.274 97.227c3.728-0.019 7.608 0.854 9.398 2.439 3.45 3.086 5.238 10.012 4.439 11.24l0.006 0.002c7.955-2.056 18.663 10.013 22.873 15.083 6.233 7.56 8.787 15.713 12.003 24.469 2.285 6.231 4.874 10.805 4.012 17.769-0.664 5.537-3.25 11.107-4.842 16.378-3.614 12.034-5.966 23.639-11.505 35.043-8.222 16.873-18.63 32.555-25.662 49.893-1.458 3.581-4.177 6.562-4.74 10.507-0.529 3.545 1.36 7.56 0.996 11.272-1.094 10.707-1.359 16.905 2.619 26.918 2.419 6.067 6.929 10.975 10.081 16.71 4.641 8.518 8.583 16.638 15.244 23.835 12.664 13.693 28.049 26.123 37.562 42.334 1.528 2.586 3.78 6.53 4.742 9.513 1.027 3.117 2.85 6.43 3.681 8.885 2.285 6.73 4.903 13.030 5.337 20.291 0.399 7.591-0.862 16.541-6.563 22.145-5.039 5.006-12.065 7.987-16.607 12.631-9.814 10.011-28.643 22.177-32.918 36.167-2.186 7.095-3.614 16.94-1.193 24.263 1.824 5.569 9.512 12.266 7.127 18.929-5.039 1.126-17.241-8.522-21.351-11.369-6.067-4.212-13.361-13.987-15.449-20.62-6.263-19.925 5.004-32.291 17.405-45.917 9.812-10.805 25.462-18.266 32.122-32.090 8.687-17.902-3.349-36.699-15.913-48.731-5.172-4.939-9.216-10.743-14.784-15.253-7.988-6.497-14.056-15.478-21.981-22.042-7.955-6.598-15.944-11.837-21.979-20.787-5.569-8.189-10.878-17.372-13.96-27.151-3.878-12.464 2.486-25.227 2.42-37.395-0.023-12.599 1.623-25.593 5.204-37.728 1.827-6.301 6.102-10.011 10.175-15.119 4.743-5.932 5.869-10.175 12.201-14.719 8.254-5.965 16.541-13.26 21.517-22.508 2.353-4.376 10.873-13.16 10.109-18.235-0.596-3.813-7.889-7.758-10.576-9.617-9.448-6.595-16.773-16.211-22.31-26.456-2.386-4.408-4.641-11.203-3.681-16.274 0.598-3.215 4.245-10.741 7.363-12.962 1.668-1.175 4.477-1.729 7.377-1.743zM395.521 139.505c1.45-0.027 2.923 0.2 4.396 0.742 5.504 1.986 8.618 11.206 16.807 9.681l0.004 0.002c-0.628 7.658-3.049 15.914-4.178 23.637-1.193 8.287-3.943 15.779-6.066 23.804-1.925 7.295-1.325 14.751-2.056 22.18-2.518 25.691 0.275 50.489 2.553 76.117 1.556 17.272 3.083 31.392 10.18 47.106 5.566 12.266 11.172 24.666 14.519 36.964 1.622 5.998 3.878 11.005 4.411 17.438 0.529 6.861 1.162 13.756 1.853 20.588 1.163 12.033-4.339 22.94-11.367 32.453-6.298 8.555-11.638 11.605-20.817 15.319-4.577 1.855-8.688 3.743-14.654 3.611-5.24-0.098-10.774-2.288-16.11-3.979-7.791-2.419-23.273-8.054-25.725-16.476-4.607-15.811 4.744-21.317 14.852-30.2-8.385 9.315-13.095 31.693 5.204 29.703 13.693-1.492 26.654-1.595 36.036-13.197 4.474-5.504 3.612-12.433 3.813-18.996 0.098-4.075 1.691-4.904 2.288-8.553 0.761-4.644-1.924-8.753-3.783-12.631-5.537-11.739-12.993-21.050-19.624-31.793-3.247-5.269-5.472-10.441-7.825-15.713-2.785-6.231-2.817-12.764-5.239-19.493-2.485-6.894-3.016-14.055-5.537-20.917-2.651-7.23-1.587-14.92-3.678-22.282-0.895-3.216-2.688-4.274-3.351-8.453s-1.757-6.034-3.118-9.746c-1.359-3.783-1.027-7.328-1.594-11.307-0.628-4.641-3.179-7.956-4.144-12.465-1.292-6.301-2.023-14.884-1.856-21.282 0.123-6.033 2.388-12.432 3.514-18.037 1.091-5.369 1.423-9.713 3.281-15.149 1.388-3.979 2.615-7.059 4.174-10.906 4.376-10.975 9.317-19.463 16.91-28.378 3.77-4.418 9.642-9.275 15.925-9.392zM480.775 195.544h0.014c-0.012 0.043-0.024 0.075-0.037 0.117-0.062 0.408-0.196 0.808-0.364 1.206-1.783 5.798-3.391 7.489-4.976 7.411-0.853 1.82-1.692 4.2-2.532 5.951-5.269 10.94-8.948 23.439-12.694 34.974-3.315 10.342-3.613 24.666-3.316 35.473 0.307 9.647 0.762 21.915 4.243 30.798 11.967 30.667 24.633 59.077 40.049 87.754 1.523 2.853 4.509 5.404 5.869 8.058 1.359 2.616 1.659 5.304 2.718 8.318 2.191 6.334 3.184 13.492 5.405 19.496 3.979 10.805-0.276 24.53-4.772 34.542-3.019 6.665-5.605 14.258-9.55 20.39-3.413 5.338-6.397 8.851-6.563 15.382-0.307 13.195 2.949 26.226 6.563 37.762 0.895 2.886 2.951 6.529 4.112 9.879 1.495 4.275 2.852 6.267 3.216 11.141 0.595 7.525 1.821 15.084 2.122 22.644 0.399 9.413-4.409 13.893-10.441 20.187-2.056 2.158-3.549 4.907-5.701 6.963-2.189 2.121-4.841 3.081-6.997 5.172-0.697-5.105 4.010-11.37 4.675-16.246 0.928-6.364-0.861-17.903-2.187-24.234-1.359-6.364-4.541-13.988-7.559-19.293-3.081-5.439-4.641-11.371-7.956-17.139-6.763-11.837-9.845-23.737-11.268-38.227-1.66-16.438 8.585-33.581 17.9-46.577 8.189-11.372 6.797-27.252 5.604-41.174-0.245-2.687 0.274-7.527-0.763-10.047-1.262-2.984-3.546-3.414-5.669-5.638-2.853-3.016-4.176-7.127-6.63-10.41-2.785-3.71-6.53-6.793-9.479-10.408-5.272-6.432-11.702-11.638-15.947-18.567-4.874-7.955-8.156-16.675-12.199-25.162-11.604-24.498-18.731-50.455-20.586-77.708-1.226-17.835 10.175-39.184 23.934-50.454 4.805-3.979 8.058-5.304 13.758-6.963 2.586-0.761 6.033-3.647 8.156-3.877 1.925-0.172 8.122 3.118 9.746 4.277 1.658 1.168 3.188 2.887 4.737 2.964 0.195-0.415 0.389-0.835 0.586-1.174 1.138-1.966 3.458-4.026 4.39-6.238 0.122-0.396 0.24-0.771 0.364-1.206 0.006-0.039 0.018-0.078 0.022-0.117zM588.635 264.611c3.835 0.089 7.893 0.545 11.414 0.737 0.889-0.073 1.773-0.055 2.644 0.084-0.834-0.003-1.721-0.035-2.644-0.084-5.844 0.479-11.89 5.186-15.689 9.303-4.974 5.434-6.092 11.897-6.399 19.192-0.332 8.583 4.941 11.968 12.93 13.99 5.537 1.394 12.465 1.193 18.332 2.387 5.537 1.129 11.537 3.053 17.041 3.681 5.039 0.569 9.877-0.461 14.948 0.497 4.674 0.86 9.152 2.084 13.928 2.817 11.535 1.793 22.909 1.76 33.417 5.405 10.805 3.71 22.274 4.113 33.514 6.068 7.128 1.227 13.658 3.811 20.654 5.666 8.254 2.222 15.548 4.905 23.503 7.924 8.717 3.282 17.901 3.846 26.256 8.418 15.581 8.555 26.123 18.268 35.636 34.215 8.784 14.651 12.997 32.055 14.091 48.731 0.463 7.226 3.113 13.164 3.015 20.521-0.046 4.644-0.022 9.285-0.022 13.891v26.155c0 13.127 0.366 25.595-2.221 38.457-1.359 6.794-0.228 13.294-2.152 20.056-2.521 8.62-5.772 16.811-7.758 25.662-8.555 37.891-22.977 78.231-56.028 101.506-8.188 5.768-18.464 7.128-26.918 12.003-8.156 4.703-17.602 9.315-27.251 11.102-22.739 4.247-46.179 14.796-69.45 14.489-21.318-0.233-43.264 2.089-63.023-5.342-5.305-2.021-15.584-7.393-21.118-6.264-7.193 1.491-11.107 9.58-12.663 15.846-1.757 7.027-4.341 13.956-4.243 21.317 0.098 7.095 0 14.156 0 21.216 0 15.849 2.288 29.204 5.769 44.192 2.815 12.135 6.895 25.295 17.534 33.417 4.841 3.71 10.741 5.965 14.422 11.302 5.571 8.058-3.116 6.464-9.316 6.464-18.335-0.098-35.774-4.841-54.204-5.769-7.857-0.396-14.318-2.81-22.343-2.787-3.78 0.034-8.478-0.515-13.111-0.707-4.439 2.872-11.495 6.491-12.448 1.339 3.484-1.374 7.936-1.526 12.448-1.339 1.275-0.825 2.37-1.6 2.999-2.074 4.478-3.417 6.467-7.794 9.12-12.203 3.745-6.198 5.304-11.105 7.094-18.497 0.629-2.488 2.089-6.033 2.849-9.15 0.999-4.010 1.393-7.259 2.056-11.369 0.696-4.112 2.839-7.060 3.083-11.371 0.203-3.743-0.070-7.623-0.070-11.369 0-3.714-0.481-7.791-0.051-11.438 0.363-3.379 2.026-4.543 2.653-7.294 1.693-7.158-0.959-15.25 0.499-22.51 0.799-4.075 2.496-6.96 2.619-11.369 0.125-3.743 0.001-7.587-0.022-11.367-0.033-13.029 5.423-23.668 5.669-36.964 0.103-6.331 2.291-12.861 4.247-18.5 2.353-6.695 4.573-8.852 11.438-7.125 6.399 1.587 10.875 5.829 16.243 9.279 5.967 3.844 11.107 4.937 17.605 6.662 5.371 1.425 10.044 4.839 15.814 5.503 5.965 0.682 12.565-0.049 18.567-0.049 16.741 0 31.926-0.5 48.203-5.339 13.758-4.11 27.118-9.216 39.816-14.917 15.913-7.16 29.005-15.65 43.195-26.621 5.701-4.413 6.728-8.455 10.741-13.926 3.714-5.070 9.515-8.121 12.5-13.857 5.074-9.712 9.647-20.257 13.293-30.665 3.743-10.676 4.539-20.254 6.464-31.293 1.657-9.415 2.651-19.032 3.746-28.546 0.932-7.89 2.686-14.487 2.586-22.508-0.023-5.901-0.047-11.801-0.024-17.669 0.1-12.233-1.757-24.268-2.686-36.401-0.432-5.836-3.116-11.040-4.475-16.678-1.229-5.105-0.897-10.277-3.979-14.653-5.77-8.253-17.206-13.755-25.095-19.758-15.779-12.066-35.774-19.392-54.735-24.828-15.249-4.343-29.769-11.54-45.416-12.068-5.173-0.199-8.587-2.286-13.56-3.083-2.986-0.452-6.232 0.489-9.251 0.245-6.929-0.598-15.977-1.853-22.74-3.544-6.728-1.691-13.228-2.984-19.958-5.141-5.373-1.691-11.736-1.954-17.074-4.772-7.459-3.913-7.293-7.791-8.32-14.988-1.096-8.020-2.935-14.417-2.985-22.807l-0.063-0.018c-26.439 32.623-7.246 4.046-0.051-5.669 3.944-5.338 10.409-12.599 16.971-14.355 2.313-0.624 5.087-0.766 7.991-0.698zM306.257 315.625c6.695-0.199 16.478 5.671 21.517 10.906 3.116 3.247 4.443 5.703 5.767 10.079 0.832 2.717 2.29 5.602 2.918 8.285 0.915 3.714-0.172 9.053-0.149 12.93 0.069 5.142-1.124 6.765-2.187 10.61-1.135 3.977-0.032 7.954-0.861 11.898-0.698 3.151-2.588 5.97-3.118 9.715-3.78 0.133-5.836 2.855-9.349 3.449-3.149 0.529-6.231-0.168-9.414 0.529-2.419 0.498-6.099 2.122-9.18 2.819-2.72 0.631-6.101 2.387-8.52 3.58-12.237 6.004-27.185 12.332-34.81 24.17-3.714 5.733-6.962 12.031-9.349 18.528-2.652 7.228-1.301 16.44-1.325 24.168-0.035 10.71 2.963 20.093 2.815 30.668-0.131 9.413 1.264 18.497 2.787 27.613 5.006 30.17 13.292 61.693 28.873 87.918 4.974 8.419 16.843 15.548 25.232 19.328 5.633 2.586 8.353 6.53 14.121 8.619 6.268 2.255 11.006 5.569 17.174 7.825 12.73 4.607 24.863 9.811 38.356 11.47 6.364 0.797 13.458-0.099 19.891-0.099 2.652 0 6.099 0.665 8.651 0.099 2.883-0.596 4.144-2.453 6.862-3.081 6.465-1.528 13.69-0.632 20.19-2.619 2.718-0.83 3.91-2.386 6.828-3.019 2.556-0.565 6.034 0.099 8.653 0.099 6.897 0 13.395 0.493 19.891-1.395 5.404-1.558 11.803-6.534 16.478-2.288 2.123 1.892 6.2 10.082 7.062 12.833 1.791 5.535 3.531 10.507 3.482 16.442-0.076 3.645-0.598 7.887-0.099 11.466 0.529 3.913 2.254 5.341 3.081 8.887 1.401 6.067-0.172 14.553-0.123 20.82 0.064 7.957-1.693 15.018-2.784 22.644-1.261 9.081-3.082 18.332-5.107 27.151-1.128 4.774 0 9.48-1.226 14.189-0.829 3.379-3.581 6.23-4.539 9.347-1.826 5.936-0.764 11.569-3.051 17.704-2.187 5.834-1.559 15.052-4.84 19.659-2.719 3.88-8.685 7.093-12.663 9.447-11.137 6.698-23.504 12.198-36.896 12.1-28.413-0.148-56.857 0-85.268 0l-0.004 0.004c-6.064 6.379-12.567 0.941-15.648 0.245-3.579-0.807-7.625-0.245-11.307-0.245-12.48 0.046-24.96 0.045-37.44 0.006-0.985 0.117-1.995 0.133-3.039-0.006 1.013 0.004 2.026 0.003 3.039 0.006 5.36-0.638 9.926-4.637 14.63-7.464 6.796-4.048 13.89-6.069 21.381-8.887 2.289-0.862 5.273-2.817 7.296-3.314 3.184-0.812 6.398-0.036 9.713-0.862 3.913-1.028 5.934-2.207 10.175-2.256 4.376-0.064 8.422 0.433 12.631-0.593 12.132-3.053 24.864-7.493 35.836-13.229 5.107-2.684 11.735-5.24 16.444-8.819 4.577-3.483 8.058-8.75 12.962-12.133 8.389-5.834 16.808-12.898 22.908-20.887 8.699-11.34 8.453-23.241 8.453-36.7 0-6.033 0.712-12.598 0.051-18.567-0.565-4.939-3.218-10.804-5.405-15.678-5.074-11.205-16.642-12.518-28.576-12.665-16.078-0.245-32.191-0.023-48.269 0-14.753 0-28.641-1.757-43.296-3.215-11.106-1.096-23.405-1.527-33.813-4.644-13.727-4.075-21.352-12.43-30.038-23.634-8.854-11.438-16.444-22.243-22.843-35.339-4.075-8.387-8.254-14.024-9.846-22.94-0.895-5.137-3.78-9.781-4.875-14.852-0.642-3.084 0.166-6.169-0.396-9.085-0.666-3.247-2.454-5.635-3.783-8.553-1.822-4.013-1.225-6.964-2.353-11.139-1.593-5.936-3.25-12.034-4.774-17.937-0.963-3.714 0.198-7.259-0.464-10.875-0.561-3.014-2.618-5.302-3.146-8.318-1.528-8.388-2.737-17.739-2.688-26.39 0.067-11.307 2.52-21.979 2.985-33.12 0.33-7.722 2.088-14.119 4.142-21.613 1.622-5.998 2.188-11.569 5.669-17.139 6.165-9.91 11.734-21.415 21.284-28.344 9.976-7.259 21.082-12.928 31.293-19.856 5.971-4.046 11.011-8.389 17.209-12.1 5.24-3.149 9.577-7.625 13.491-12.231 4.906-5.734 6.318-9.149 6.268-16.973-0.067-4.84 1.292-10.974-1.626-15.151z"></path>
    </svg>