<svg xmlns="http://www.w3.org/2000/svg" viewBox="31.794 32.521 953.272 959.453">
    <path fill="#000000" d="M592.504 920.532c-0.010-0.010-0.014-0.017-0.020-0.026-0.083 0.051-0.078 0.067 0.020 0.026z"></path>
    <path fill="#000000" d="M655.015 892.641c-0.018 0-0.060 0.019-0.157 0.109 0.067-0.050 0.094-0.062 0.157-0.109z"></path>
    <path fill="#000000" d="M787.961 755.723c0.574-0.389 1.32-0.982 2.423-1.837-0.815 0.592-1.619 1.217-2.423 1.837z"></path>
    <path fill="#000000" d="M459.776 32.528c-1.61 0.887-3.12 1.718-4.647 2.528-1.028 0.424-2.040 0.884-2.938 1.351-1.842 0.726-3.565 1.545-5.234 2.231-3.338 1.33-6.35 2.488-8.703 3.641l5.291-3.641c-3.209 2.184-5.934 3.632-8.76 5.176l3.996-0.294c-3.467 1.54-6.224 2.993-6.525 2.353-2.862 2.826 3.907 1.034-2.177 5.998-2.394 0.853-5.629 2.879-8.584 4.588-1.496 0.814-2.971 1.482-4.172 2-0.641 0.193-1.117 0.425-1.589 0.469-0.288 0-0.493-0.103-0.703-0.352 0.193-0.030 1.162-0.52 1.765-0.822 0.685-0.363 1.253-0.729 1.765-0.939 0.9-0.512 1.423-0.862 1.765-1.117 0.56-0.56 0.187-0.727-0.295-0.763-0.791-0.187-1.816-0.393 1.293-2.441-1.747 1.019-3.761 2.062-6.173 3.148-0.601 0.030 0.273-0.739 1.115-1.29-0.943 0.36-2.373 0.964-2.586 0.997-0.129-0.030-0.142-0.030-0.236 0-0.129-0.030-0.175 0.026-0.175 0.058-0.288 0.065-1.182 0.193-1.529 0.352-0.984 0.288-1.614 0.675-2.469 1.058-1.669 0.77-4.023 1.636-10.703 1.765 1.333-0.846-0.793-1.355-3.116-1.648 1.486 0.596-1.425 1.937-5.762 2.704-10.058-0.682-10.902 0.939-16.168 0.939l5.995 0.294c-0.937 0.604-2.668 0.959-4.94 1.174-2.358 0.159-5.38 0.298-8.938 0.529-0.258 0.065-0.637 0.159-0.939 0.352-0.223-0.159 0.136-0.48 0.822-0.822-2.612 0.984-3.881 1.366-5.939 1.882-1.971 0.322-4.031 0.69-6.173 1.117-4.196 0.77-8.655 1.766-12.936 3.821-5.054 0.77-1.116-2.029-5.527-1.174-4.28 2.056-7.279 2.856-9.933 3.409-1.324 0.288-2.512 0.461-3.879 0.761-0.689 0.129-1.348 0.322-2.119 0.471-0.4 0.129-0.793 0.162-1.176 0.292-0.726 0.193-1.39 0.446-2.116 0.644-0.689 0.424-1.406 0.868-2.177 1.29-0.431 0.223-0.942 0.585-1.41 0.882-0.989 0.641-2.003 1.435-3.116 2.292 3.982-0.56 4.303-1.201-2.589 4.88l10.348-7.114 9.407-3.641-4.172 2.292c-1.588 0.77-2.335 1.281-4.822 2.353-1.882 1.411-2.531 2.188-3.641 3.174 1.286-0.814 2.657-1.732 3.937-2.589 1.374-0.512 2.711-1.058 3.996-1.529 1.202-0.472 2.262-0.968 3.291-1.351 2.141-0.9 4.070-1.552 5.527-1.941-5.739 3.299-5.3 2.712-2 3.057-1.798 0.030-3.49 0.357-5.115 0.763-0.814 0.193-1.7 0.52-2.469 0.822l-2.882 1.115c-2.265 1.669-4.536 3.317-6.936 5.115-2.265 1.628-4.715 3.136-7.587 4.291l-1.823-3.526c-10.105 4.625-17.637 11.334-26.929 17.757-2.999 1.628-7.59 3.846-12.171 5.644l6.056-2c-1.752 2.525-10.986 5.254-16.462 8.467-0.030-1.453-3.816-0.197-6.642 0.061 0.641 0.81-12.954 5.855-13.643 9.111l-2.353 0.705-2.116 1.529-1.589 0.997-3.057 1.942c-11.946 10.404-10.394 15.254-21.692 25.398 2.31-4.193-3.357-0.073 3.233-7.879-3.635 3.51-7.065 6.444-6.466 7.171-0.596 0.288-1.439 1.043-2.292 1.942-0.943 1.068-2.096 2.407-3.291 3.821-1.072 1.971-2.283 4.145-3.352 6.115-1.028 1.709-2.018 3.215-2.999 4.114-0.726 2.1 0.081 3.448-3.057 8.114-0.393 0.263-0.536 0.030-0.595-0.161-0.082 1.206-3.859 7.498-0.163 4.399-2.697 2.394-5.343 5.575-7.997 9.172-1.33 1.709-2.597 3.619-3.879 5.585-1.202 1.798-2.383 3.628-3.587 5.47-2.056 1.839-4.176 3.747-6.232 5.585-2.184 1.842-4.351 3.729-6.408 5.527-4.199 3.467-8.249 6.328-11.759 7.998-4.495 4.193-9.384 8.793-13.879 12.99-2.184 6.207-4.209 11.892-5.879 16.817-0.159-0.77-0.598-0.279 0.175-2-5.953 12.585 0.665 9.294-6.056 23.637-4.84 6.806 1.716-8.23-0.763-3.823-1.411 0.159-2.421 1.626-3.409 3.937-0.468 1.157-0.953 2.546-1.47 3.998-0.363 1.33-1.074 3.469-1.115 3.937-0.129 0.36-0.892 1.531-1.706 2.647l-2.292 3.409c-1.588 2.137-3.336 4.088-5.176 5.585l1.351-2.231c-6.036 5.607-10.444 16.964-18.579 27.456 0 0-0.039-0.77-0.586-0.471-0.193 0.689-0.707 1.829-1.648 3.411-0.472 2.525-1.049 5.413-1.648 8.584-0.596 2.862-1.291 5.926-2.060 9.053-1.54 6.25-3.262 12.751-4.763 18.402-0.428-4.283 0.869-5.771-1.529-4.057-1.54 5.56 3.149-0.698 0.115 10.348-0.9 1.459-1.83 3.218-3.116 5.704-1.157 3.425-2.266 6.085-3.468 6.642l0.999-7.23 1.349-4.114c-0.4 0.512-0.889 0.929-1.232 1.529-0.322 0.512-0.59 1.195-1.058 2.353-0.129 0.814-0.289 1.555-0.469 2.411l-0.352 2.058c-0.129 1.367-0.112 2.748-0.175 4.115-0.129 2.742-0.265 5.401-0.822 7.585l-0.941-0.939c-2.056 15.972 0.388 17.213-2.116 33.394-0.030 0.193-0.172 0.523-0.236 0.822 0.193-0.322 0.434-0.553 0.644-0.763 0.159-0.159 0.349-0.277 0.529-0.586 0.030 0.4 0.026 0.532 0.058 0.703 0 8.819-3.438 6.899-3.823 16.401l-3.351 2.177c-0.984 6.293-2.683 22.441-5.47 33.57 0.129-6.68 2.131-20.049 3.118-28.395-1.055 4.080-2.1 10.404-3.118 16.285 0.4 8.181-1.856 18.101-5.41 30.218-1.411-1.157-3.12 1.773-4.88 6.527-0.9 2.358-1.781 5.237-2.765 8.231-1.072 3.385-2.163 6.937-3.233 10.404 0.159 1.238 0.391 2.508 0.588 3.701 0.065 0.858 0.162 1.654 0.292 2.472 0.159 1.54 0.421 3.128 0.529 4.586 0.159 2.826 0.089 5.165-0.294 6.878 1.453 5.307 2.618 10.728 3.643 16.168 0.472 2.742 0.954 5.504 1.468 8.29 0.431 2.955 0.884 5.839 1.351 8.877 1.842 5.734 3.717 11.604 5.644 17.639 1.927 5.86 3.98 11.901 6.29 18.108 0.685-10.061 2.676 7.091 6.056 4.174 0.989 2.567 1.643 4.331 2.119 5.527 0.129 0.9 0.271 2.128 0.175 2.292v0.058l0.41 18.579c-0.512 4.495-1.836-5.607-2.647-4.88 1.798 13.146-0.825 5.779-0.527 14.64 1.202-2.009 2.784 4.238 3.468 11.818l0.234-10.82c2.439 8.646 2.258 12.23 2.177 16.815 0.322 5.093 0.16 8.748 3.762 18.168l-2.706-5.412c1.238 3.596 2.848 9.679 4.647 16.226 0.984 3.295 1.941 6.699 2.882 9.994 0.56 1.588 1.117 3.222 1.589 4.766 0.641 1.714 1.249 3.337 1.765 4.88 0.733 1.588 0.907 1.816 1.29 2.586 0.431 0.641 0.777 1.209 1.117 1.765 0.726 1.157 1.552 2.171 2.231 2.94 0.159 1.752-0.058 4.221-1.941 0.41 2.358 6.208 5.159 12.756 8.114 19.225 3.084 6.68 6.217 13.394 9.172 19.816 1.669 2.31 3.293 4.5 4.88 6.642 1.367 1.962 2.711 3.875 3.996 5.764 2.569 3.761 4.772 7.333 6.527 10.761l-1.765-0.941c2.612 3.425 5.753 5.178 7.938 10.228-0.56 0-1.894-0.906-0.822 0.763 0.512 0.596 1.628 1.855 2.999 3.352 0.641 0.77 1.288 1.548 2.058 2.411 0.77 0.984 1.317 1.528 2.647 3.409 0.943 0.858 1.922 1.83 2.821 2.647 0.726 0.726 1.338 1.369 1.942 2.058l-4.291-2.586c15.327 16.57 26.675 21.977 40.806 34.392-2.1 2.142 10.028 14.835 16.108 21.167l-0.529 0.058c4.625 4.408 9.005 8.327 13.286 12.052 4.108 3.892 8.118 7.539 12.054 11.054 4.027 3.551 7.884 7.031 11.993 10.586 1.968 1.842 4.001 3.641 6.056 5.527 1.072 0.943 2.106 1.895 3.174 2.882 1.197 1.109 2.447 2.251 3.641 3.409 0.472 0.223 0.972 0.6 1.531 0.939 3.551 3.681 9.303 8.262 16.108 13.227 3.467 2.439 7.105 5.050 10.876 7.704 4.154 2.911 8.494 5.865 12.817 8.821 4.968 1.374 9.962 2.792 14.758 4.114 4.28 1.286 8.418 2.597 12.229 3.879-3.428-1.453 1.154-2.121 5.351-1.351 5.35 2.009 15.635 1.911 14.053 4.35l-1.882-0.588c0.512 0.56 1.275 1.134 2.175 1.65 0.4 0.223 0.839 0.508 1.351 0.761 0.641 0.193 0.319 0.141 0.529 0.353-0.223 0.030 1.524 1.155 2.763 1.882 1.374 0.814 2.728 1.652 4.174 2.469 2.915 1.588 5.96 3.266 8.702 4.763l2.999-2.411c3.165 2.782 6.939 5.426 11.054 7.997 2.016 1.286 4.090 2.623 6.231 3.823 2.394 1.33 4.792 2.556 7.232 3.879l7.405 2.469c2.226 0.685 4.462 1.311 6.644 2 4.408 1.367 8.804 2.682 12.696 3.879 7.88 2.531 14.305 5.11 17.815 7.938 0.9 0.159 1.116 0.182 2.999 0.644 2.697 0.363 5.672 0.714 8.584 1.057 2.785 0.288 5.514 0.673 7.997 0.763l-0.703 1.823c6.121 1.374 11.003 2.474 16.050 3.585 2.531 0.56 5.097 1.094 7.879 1.65 3.128 0.601 6.48 1.288 10.287 2.058 2.184-0.193 6.294-0.672 10.878-1.057l-3.937 1.706c11.047-0.726 13.546-6.592 23.694-7.405l3.235 2.646 8.409-0.527 8.702-0.352 10.761-1.531 10.17-1.589c6.766-1.157 13.442-2.665 19.991-4.763-0.223 0.468-0.727 1.414-3.762 2.058 2.652-0.431 6.817-1.024 11.23-1.706 2.481-0.129 5.008-0.233 7.407-0.352 2.525-0.159 4.966-0.403 6.936-0.703 3.605-0.506 5.884-1.261 5.363-2.353 2.307 1.784 20.249-1.546 29.972-3.526l-1.41 2.116c8.518-3.508 8.701-4.227 20.814-6.408 2.915-0.129 2.736 1.115-1.115 1.115 9.722-0.193 7.23-2.647 19.047-3.116l-4.172 1.765c4.84-0.56 7.089-0.954 8.76-1.468s2.686-1.080 6.115-2.233c0.030-0.030 0.202-0.198 0.352-0.292 0.814-0.596 1.72-1.334 2.704-2.060 0.77-0.512 1.668-0.99 2.53-1.589 1.798-1.117 3.701-2.291 5.585-3.233 3.681-1.883 7.044-3.16 8.114-2.821 0.553-1.626 4.361-5.685 9.582-8.469 1.028 0.129-0.579 1.564-1.349 2.292 3.428-1.842 6.289-3.697 8.819-5.41 1.286-0.943 2.447-1.731 3.641-2.586l1.589-1.234 0.999-0.763c0.512-0.288 2.055-0.87 3.468-1.293 1.374-0.472 2.683-0.983 4.057-1.407 2.697-0.77 5.457-1.39 8.584-1.648 0.4 0.512 1.088 0.628 2.116 0.586-7.533 1.882-14.104 3.646-17.872 4.588-0.77 0.472-1.364 0.832-1.708 0.997-0.279 0.182-0.468 0.28-0.565 0.322 0.412 0.636 2.666-0.171 2.92 0.208 0.472 0.159 0.684 0.347 0.939 0.642 0.129 0.288-0.030 0.839 0 1.351 0 0.095 0.027 0.233 0.058 0.352 0-0.065 0.026-0.233 0.058-0.352 0.553-0.193 1.073-0.449 1.589-0.703 1.202-0.472 2.408-1.030 3.643-1.589 2.486-1.028 5.122-2.119 7.819-3.233 5.355-2.184 10.949-4.14 15.874-5 0.512 0.030 0.99 0.047 1.41 0.175l-0.999 0.412c2.358-0.431 4.524-1.111 6.409-1.884 1.626-0.288 2.966-0.567 4.289-0.822 1.496-0.288 2.031-0.421 5.117-1.174 0.56 0.159 1.831 0.038 3.76-0.353 1.109-1.11 2.517-2.6 4.057-4.348 0.862-1.028 1.761-2.077 2.704-3.233 1.842-2.226 3.851-4.541 5.176-6.173-1.731-0.843 2.768-5.92-2.312-2.168 0.099 0.030-0.999 1.489-2.922 3.811-0.431 0.682-0.98 1.413-1.234 1.884 0-0.129 0.031-0.288 0.063-0.471l-6.936 8.469-5.881 1.589c1.202-0.689 3.611-1.604 5.41-2.294 0.641-0.9 1.311-1.827 2-2.763 0.56-0.73 1.181-1.582 1.825-2.353 1.068-1.374 2.352-2.651 3.937-3.937 0.814-2.908 1.811-6.031 2.411-7.704 6.766-3.851 16.978-13.746 19.461-14.17 1.713-2.272 3.466-4.689 5.349-7.171 2.567-2.184 5.21-4.462 7.821-6.644 2.785-2.439 5.445-4.767 8.056-6.995 5.097-4.667 9.437-9.092 11.876-12.817 3.338-3.209 4.754-2.472 6.466-3.116-1.927 1.962-4.415 3.89-5.232 5.176 6.465-6.72 21.969-16.373 22.224-19.758 10.187-5.825-4.025 5.666 8.819-3.879l-1.293 1.823c3.425-1.798 6.511-3.658 9.465-5.585 1.459-1.028 2.881-2.001 4.291-2.94 1.752-1.286 3.507-2.537 5.176-3.821l2.116-3.937 1.351-2.704 2.411-5.412c1.588-3.596 3.235-7.179 4.822-10.82 3.209-7.153 6.994-15.059 11.407-22.165 2.53-2.355 6.016-5.379 9.689-8.215-0.428 0.291-0.771 0.479-1.044 0.515 4.667-4.108 9.216-8.431 13.758-12.756l6.7-6.7 7.114-6.995c9.335-14.94 17.163-28.151 26.751-42.92l2.823-8.702 2.823-8.114c1.927-5.437 3.977-10.711 6.115-15.933 3.128-8.178 3.066-10.76 3.409-15.169 0-1.157 0.115-2.485 0.115-4.114l2.472-1.942 0.234-11.876c2.009-16.523 11.039-26.869 12.875-47.977l-1.942 2.353c2.009-7.278 4.818-23.44 6.056-21.811-0.030-0.858-0.838-2.668 0.529-5.41h1.174l0.352-2.706 0.644-3.641-1.41-3.937v0.175l-1.115-3.057-2.413-6.173c-2.999-14.001 4.752 1.123-0.469-19.166-2.486-7.406-8.847-20.579-8.763-17.58 0.769 3.036 1.461 7.907 0.471 8.467l-2.353-6.7c-0.193-0.030-0.491-0.053-0.703-0.117l-0.352-1.115 9.994-49.093-8.821-32.926 0.763 0.644-1.174-2.231-2.823-10.464c0.424 0.193 1.076 1.062 1.765 3.116-0.223-3.084-0.683-4.612-1.234-6.115-1.242-2.137-2.216-2.831-3.116-7.114-0.129-0.814 0.185-0.591 0.588 0l-3.998-6.642c1.157 1.109 1.294-2.023 2.882 2.469-4.283-13.271-11.325-19.383-11.583-24.988l0.705 0.941c-6.68-12.715-4.769-6.704-6.997-8.29l-0.117-0.352-1.174-8.35 2.647-7.113-2.294-1.648c-0.193-1.927-0.503-5.836 0.412-5.234-2.351-7.106-0.764 1.36-2.647-2.704 0.468-7.449-2.048-18.076-2.177-24.752-1.068-1.882-1.718-3.436-1.29-4.289-3.425-1.927 4.659 8.364-2.53 0.527 1.109-4.495-7.465-9.105-11.405-17.111 3.084 1.068 7.185 8.314 3.291 0.352-5.609-2.394-9.508-14.057-14.346-19.58-2.272 1.197-10.217-12.366-18.051-21.87 1.157 0.129-12.525-19.586-18.049-29.691l0.469 0.058c-3.295-0.428-9.565-10.434-14.875-17.284 1.411-0.553 2.832 0.385 5.998 3.879l-4.527-6.761c-1.752-1.109-3.472-3.017-6.644-7.171l2.704 0.703-2.411-3.233-3.291-2.763-2.882-2.353c-1.927-1.54-4.001-3.192-6.056-4.822-4.108-3.381-8.325-7.017-12.522-11.641-1.197 0.56 1.432 5.347-0.352 5.644l-5.468-5.115c0.596-0.223 1.529-0.074 3.116 1.057-1.028-0.77-3.882-2.397-5.47-4.408l5.412 2.823c-4.194-4.792-3.358-1.267-6.997-4.822 1.028-0.9-2.009-3.224-0.763-3.526 1.028 0.77 2.848 3.352 4.647 4.291-2.009-1.968-4.625-4.664-5.82-6.29-0.858-1.713-2.124-4.226-2.292-5.291-0.36 0.9-1.466 1.197-4.115-2.060-6.55-8.559-0.963-3.97-4.172-9.407-2.31-1.496-5.697-7.553-7.405-6.525-1.887-2.525-1.527-3.498-1.825-4.822-1.113-1.072-2.786-3.122-4.586-5.351-2.137-2.612-4.348-5.464-6.231-7.821-6.55-1.626-8.226-1.684-5.998 0l1.589 0.588c-0.363-0.030-0.732-0.169-1.115-0.234-7.578-1.324-15.101-3.559-22.637-5.998l-11.288-3.762c-3.596-1.202-7.017-2.357-10.525-3.468l-2.997-2.586-3.528-2.823 0.41-0.471c-8.733-6.46-18.591-15.362-25.396-19.342-2.439-2.056-4.949-5.829-3.409-5.527-0.984-0.733-1.874-1.452-2.472-1.882-1.54-0.641-2.811-1.117-4.055-1.589-1.157-0.468-2.254-0.956-3.409-1.47-2.352-1.157-5.056-2.668-9.465-5.41 8.006 2.656-2.132-2.168 8.056 3.057-9.422-5.308-11.154-7.364-22.282-10.878 4.237 0.159-6.137-5.495-11.23-7.466l6.349 4.527c-1.496-0.641-2.917-1.293-4.291-1.941-1.584-0.77-3.146-1.582-4.647-2.353-2.567-0.4-4.966-0.69-7.405-1.117l2.999-1.882c-10.658-2.782-20.597-2.872-29.928-3.174-4.625-0.129-9.097-0.324-13.463-0.88-4.283-0.604-8.331-2.001-12.229-3.879-5.992 0.424 11.548 3.359 6.115 4.172-9.848-2.229-19.569-7.443-22.696-7.997-5.479-1.628-8.714-1.794-11.583-1.706-1.459 0.065-2.729 0.169-4.233 0.234-0.726 0.030-1.597 0.030-2.411 0-0.943-0.030-1.567-0.036-3.233-0.292-1.028 0-2.114 0.058-3.352 0.058-1.072 0-2.27-0.081-3.641-0.175 1.887 0.853 3.641 2.945-7.23 3.584-10.105-0.472-12.42-3.559-5.998-4.114 2.439-0.030 3.616 0.221 3.526 0.529 3.299-0.223 7.549-0.524 3.528-1.47l-1.351 0.822c-5.007-0.943-18.92-1.067-15.58-2.353-7.706 0.689-3.395 1.249 2.294 1.765-8.388-0.937-14.792-0.796-21.343-0.88-3.084-0.193-7.323-0.612-11.818-1.29 2.092 0.641 3.982 1.741 1.882 1.529-19.477-2.785-8.722 0.716-21.989-0.117-7.408-1.882 2.936-2.657-10.464-2.823-8.091-1.588-1.549-2.257 1.708-2.646-1.459 0.030-2.881 0.030-4.291 0l-2.999-0.175c-1.181-0.127-2.331-0.21-3.468-0.353h-0.061v-0.012zM305.699 151.092c4.905-0.098 5.339 6.212 6.943 10.584 2.603 7.039 5.108 1.464 8.978-0.505 3.972-1.967 7.977-4.318 12.116-4.269 2.134 0.025 5.003-0.603 7.074-0.099 1.835 0.469 3.005 2.002 4.905 2.437-1.769 1.832-3.636 2.532-5.774 3.435-1.267 0.536-3.274 1.604-4.539 1.939-3.036 0.833-2.801-0.57-4.805 1.769-0.766 0.9-1.771 3.136-2.704 4.338-4.34 5.539-6.976 12.046-9.746 18.623-1.736 4.138-2.339 8.712-3.106 13.382-0.764 4.574-1.897 8.078-1.597 13.316 0.268 4.372 1.869 9.182 3.172 13.352 1.669 5.506 2.135 9.412 5.84 13.35 1.704 1.838 2.87 2.768 5.006 4.205 2.339 1.568 3.807 4.339 5.909 5.907 3.171 2.436 7.677 3.874 11.314 5.676 5.476 2.735 11.147 3.536 16.822 5.706 6.041 2.303 11.682 4.738 17.52 7.174 4.006 1.701 7.043 4.804 10.848 7.108 4.136 2.57 7.441 4.14 11.246 7.609 6.709 6.142 15.987 17.458 13.417 28.806-0.039 0.007-0.078 0.022-0.117 0.030 4.932-0.827 3.192 5.659-0.353 9.107-5.139 4.973-9.445 4.489-15.652 4.537-5.009 0.069-9.114-1.267-12.619-5.636-4.805-5.974-8.71-13.414-14.651-18.287-3.172-2.573-4.373-4.309-7.009-7.379-0.735-0.869-2.871-3.435-3.772-4.039-2.804-1.868-6.473-2.271-9.578-4.308-2.037-1.303-3.972-1.87-6.109-2.736-8.775-3.605-19.856-8.542-26.563-16.719-3.505-4.306-6.443-10.148-8.88-15.353-1.436-3.005-3.639-3.839-4.974-6.577-0.501-1.035-0.567-2.568-1.034-3.671-0.565-1.267-1.937-2.768-2.637-4.005-4.973-8.809-4.641-19.923-4.271-30.572 0.201-5.941 3.241-12.414 5.141-18.154 0.769-2.368 1.834-5.073 2.336-7.575 0.465-2.437 1.369-4.773 1.769-6.844 1.168-6.373-0.667-9.746-3.005-14.917-1.903-4.205-2.37-10.651 3.136-10.749zM728.508 151.092c6.741 0.098 6.176 6.544 3.839 10.749-2.871 5.172-5.105 8.544-3.671 14.917 0.469 2.071 1.598 4.406 2.168 6.844 0.601 2.502 1.9 5.207 2.871 7.575 2.337 5.74 6.006 12.213 6.274 18.154 0.434 10.649 0.836 21.762-5.239 30.572-0.865 1.236-2.536 2.736-3.205 4.005-0.601 1.103-0.666 2.636-1.302 3.671-1.636 2.737-4.34 3.573-6.074 6.577-2.97 5.206-6.573 11.047-10.88 15.353-8.209 8.176-21.761 13.113-32.542 16.719-2.603 0.865-4.941 1.432-7.443 2.736-3.805 2.037-8.278 2.438-11.746 4.308-1.102 0.605-3.705 3.17-4.606 4.039-3.237 3.070-4.705 4.805-8.576 7.379-7.277 4.873-12.049 12.313-17.924 18.287-4.306 4.369-9.346 5.705-15.487 5.636-7.608-0.049-12.847 0.436-19.156-4.537-4.364-3.458-6.482-9.975-0.374-9.104-0.052-0.010-0.108-0.025-0.159-0.035-3.171-11.348 8.176-22.664 16.42-28.806 4.639-3.47 8.679-5.039 13.785-7.609 4.607-2.305 8.374-5.407 13.249-7.108 7.143-2.437 14.085-4.872 21.462-7.174 6.942-2.171 13.884-2.973 20.56-5.706 4.473-1.803 9.977-3.241 13.883-5.676 2.57-1.568 4.371-4.339 7.209-5.907 2.603-1.436 4.040-2.366 6.141-4.205 4.571-3.937 5.106-7.844 7.177-13.35 1.535-4.17 3.537-8.98 3.871-13.352 0.368-5.238-1.035-8.742-1.969-13.316-0.934-4.671-1.668-9.244-3.804-13.382-3.403-6.577-6.643-13.082-11.949-18.623-1.133-1.202-2.336-3.438-3.272-4.338-2.469-2.339-2.204-0.936-5.909-1.769-1.57-0.335-4.005-1.402-5.539-1.939-2.636-0.903-4.905-1.604-7.074-3.435 2.337-0.434 3.737-1.969 6.005-2.437 2.536-0.504 6.041 0.125 8.645 0.099 5.074-0.049 9.977 2.301 14.819 4.269 4.773 1.969 7.845 7.544 11.013 0.505 1.969-4.372 2.469-10.682 8.509-10.584zM492.683 174.144c3.183-0.042 9.55 2.993 11.054 5.592 1.043 1.769 0.97 3.102 1.069 5.073 0.067 2.333 0.8 3.504 1.302 5.741 0.356 1.77-0.147 3.538 0.024 5.305 0.232 2.171 1.321 4.004 1.569 6.141 0.534 4.637 1.030 9.146 1.3 13.816 0.333 5.839 3.009 11.081 2.936 16.987-0.031 3.439-0.399 6.877 0.836 10.079 3.705 9.714 8.31 19.727 10.479 29.907 1.704 7.908 3.239 15.65 6.21 23.225 1.535 3.907 2.436 7.611 4.67 11.147 2.271 3.673 3.637 4.741 7.542 6.812 5.572 2.938 11.848 6.409 16.22 11.048 1.334 1.403 2.435 3.571 4.005 4.742 1.868 1.368 3.905 1.301 5.606 3.169 2.268 2.503 4.57 4.807 6.509 7.878 3.372 5.342 6.209 10.814 8.778 16.621 1.568 3.539 2.669 6.873 3.57 10.612 0.901 3.838 2.872 6.871 4.007 10.577 1.267 4.138 1.334 8.612 2.436 12.817 0.567 2.201 1.637 4.271 2.037 6.506 0.532 2.972 0.097 6.378 0.097 9.412l0.024 0.008c7.141 1.47 4.138 9.145-1.436 10.079-5.84 1.005-8.343-3.069-11.414-7.207-3.74-5.105-6.777-10.112-9.013-16.086-2.201-5.839-1.267-12.347-2.803-18.287s-3.471-11.078-8.509-14.651c-2.737-1.967-5.942-3.204-8.679-5.342-2.836-2.201-4.705-4.572-7.141-7.108-4.905-5.175-8.043-11.479-15.353-13.718-3.269-1.001-6.539-0.301-9.743-1.001-1.133-0.201-1.6-0.912-3.171-1.135-1.103-0.126-2.436 0.024-3.605 0.024-9.513 0.136-15.018-6.505-16.488-15.683-0.833-5.343-1.102-10.382-1.367-15.79-0.134-2.97-2.304-7.975-5.709-8.71-5.208-1.071-5.808 7.173-7.209 10.212-1.034 2.301-0.937 3.405-1.67 5.974-0.833 3.003-3.168 5.105-3.869 8.278-1.202 5.104-2.168 9.777-4.838 14.249-1.935 3.271-5.105 7.276-7.843 10.147-4.805 5.007-12.75 9.009-19.289 11.046-4.14 1.302-7.546 2.371-11.183 5.342-2.436 1.931-4.505 4.57-6.74 6.773-3.305 3.235-3.407 5.406-4.941 9.344-0.601 1.568-2.037 3.471-2.77 5.206-0.667 1.671-1.635 3.27-2.27 5.073-1.169 3.204-2.939 6.274-4.007 9.479-1.137 3.305-1.001 7.039-2.403 10.278-1.436 3.334-4.038 5.871-5.84 8.942-0.867 1.504-1.536 3.539-3.304 4.172-8.477 3.139-11.246-16.353-10.278-21.024 0.3-1.667 1.634-4.101 2.168-6.040 0.901-3.074 1.77-5.908 2.871-8.98 1.868-5.27 2.736-10.577 5.706-15.45 3.905-6.341 10.445-10.846 15.45-16.22 3.937-4.205 7.512-9.178 10.949-13.75 1.468-1.901 3.501-2.769 5.105-4.537 1.401-1.535 2.2-3.569 3.568-5.172 1.602-1.868 3.304-3.104 4.505-5.274 1.267-2.235 1.806-4.139 3.405-6.276 2.035-2.735 4.505-5.403 7.074-7.708 5.974-5.372 8.412-13.050 10.448-20.291 0.998-3.541 0.933-8.112 1.367-11.882 0.467-4.040 1.835-8.274 2.87-12.215 1.5-5.907 5.038-11.079 7.174-16.785 1.070-2.873 1.97-5.843 2.537-8.882 0.733-3.868-0.201-7.705 0.266-11.51 0.701-5.91 2.869-11.183 5.473-16.525 3.005-6.139 5.508-12.046 6.042-18.922 0.231-3.005 1.295-5.606 1.466-8.579 0.166-2.902 0.067-4.373 1.569-7.041 0.182-0.031 0.38-0.048 0.592-0.051zM303.919 291.811c4.787-0.073 9.422 0.594 9.834 4.031-3.271 1.103-6.971-0.196-10.343 0.77-2.504 0.701-5.975 2.337-8.479 2.971-5.774 1.436-10.445 3.839-15.218 7.575-12.816 10.050-27.299 18.327-37.413 31.109-5.105 6.439-9.678 13.183-14.752 19.725-4.306 5.506-7.308 10.678-9.911 16.953-1.702 4.106-3.272 6.609-4.273 10.915-0.767 3.235-2.101 6.239-2.936 9.51-2.002 8.144-4.271 16.455-4.805 24.764-1.127 18.456 0.246 37.315 0.073 55.836-0.067 5.275 1.723 9.645 1.969 14.819 0.192 4.505-0.246 9.013-0.073 13.517 0.302 7.441 3.139 13.816 5.342 20.892 4.172 13.451 5.841 27.866 13.316 40.014 4.437 7.241 8.044 14.519 13.417 21.092 3.77 4.671 6.138 10.517 10.378 14.687 9.846 9.677 22.495 15.419 33.809 22.861 6.309 4.142 12.783 8.344 19.19 12.016 5.039 2.907 11.214 1.872 17.122 1.872l-0.006 0.002c1.903 4.671 2.504 9.046 0.535 13.35-1.801 3.936-2.17 7.607-3.837 11.444-1.77 4.071-4.173 7.412-8.112 9.647-3.303 1.866-7.241 0.77-11.046-0.535-2.802-0.936-5.707-3.937-8.509-4.873-4.070-1.334-9.078-1.802-13.384-2.803-6.409-1.466-12.716-4.072-18.756-6.676-3.571-1.535-8.677-3.469-11.414-6.137-7.208-7.078-9.043-17.122-15.151-24.866-3.038-3.872-6.175-7.643-9.079-11.347-0.867-1.137-1.302-2.742-2.236-3.942-2.035-2.57-5.274-3.438-7.443-5.706-2.369-2.469-3.072-4.238-5.909-6.139-2.702-1.799-5.038-3.235-7.442-5.405-2.902-2.603-5.706-5.808-7.542-9.414-2.504-4.909-4.172-10.281-6.609-15.253-2.77-5.541-3.106-11.482-5.274-17.29-5.407-14.483-3.804-30.102-3.804-45.356 0-5.673-0.274-11.416-0.075-17.055 0.234-5.941 2.077-11.078 2.003-17.187-0.098-10.944-0.024-21.859-0.024-32.807 0-3.068-0.5-6.608-0.099-9.643 0.471-3.539 1.898-6.307 2.072-10.014 0.166-4.041-0.103-6.809 1.333-10.648 0.502-1.368 1.668-2.836 2.037-4.172 1.202-4.437 1.335-8.776 2.77-13.314 0.999-3.204 2.633-6.307 3.403-9.547 1.769-7.842 4.339-15.882 7.609-23.358 2.235-5.039 3.637-9.814 5.64-14.922 1.468-3.738 4.103-7.843 6.24-11.446 4.006-6.741 9.678-13.017 15.753-17.823 3.104-2.469 6.944-5.306 10.348-7.344 4.071-2.469 8.977-2.801 13.216-4.77 7.308-3.407 15.186-3.607 23.029-6.442 8.244-3.005 15.118-3.573 23.996-3.573 1.986 0 5.798-0.504 9.521-0.562zM716.195 299.999c5.297 0.012 10.537 0.228 15.814 1.458 7.943 1.867 15.32 4.908 22.294 9.314 16.087 10.079 34.577 20.525 44.455 37.379 2.936 5.074 4.838 11.148 7.977 16.318 3.537 5.84 7.176 11.346 9.013 17.991 2.101 7.411 6.375 12.919 8.679 20.127 2.27 7.108 4.904 14.416 6.74 21.559 2.636 10.079 3.771 20.393 5.674 30.402 1.066 5.508 1.002 11.347 1.939 16.922 0.865 5.342 0.399 10.98 0.399 16.42 0 12.881 0.934 25.099-3.871 37.282-2.27 5.839-3.135 12.184-5.239 18.191-1.939 5.539-2.838 11.21-4.609 16.654-0.835 2.636-2.602 4.603-3.272 7.31-1.066 4.104-1.537 8.841-2.070 13.048-1.302 9.677-1.94 19.526-4.374 29.006-2.203 8.643-4.271 15.182-8.478 22.995-5.438 10.012-12.783 18.852-19.158 28.332-3.872 5.673-7.777 7.644-13.451 11.414-5.271 3.505-9.946 7.981-15.62 11.016-10.812 5.809-22.428 9.479-33.841 13.851-8.343 3.169-16.518 5.706-25.295 5.673-7.176-0.023-15.32 1.569-19.624-5.643-4.006-6.74-0.502-13.313 2.436-24.897l0.002-0.008c3.471-0.433 5.839-1.999 9.543-1.9 3.97 0.098 6.741-1.267 10.479-1.967 7.509-1.403 14.285-4.508 21.159-7.577 16.455-7.344 35.111-17.956 45.454-33.409 5.405-8.010 9.446-18.558 12.583-27.7 1.133-3.305 2.871-6.206 4.306-9.412 2.203-4.975 2.936-10.279 4.705-15.284 2.871-8.111 5.806-16.919 7.744-25.298 0.967-4.24 1.067-8.743 1.902-12.985 0.865-4.339-0.269-8.842 0.333-13.183 0.567-4.104 1.939-7.345 2.003-11.549 0.023-3.334 0-6.673 0-9.976v-24.396c0-14.152 0.4-28.37-1.801-41.953-0.601-3.771-2.102-5.541-2.003-9.545 0.073-4.006-0.599-5.872-1.5-9.543-1.598-6.574-3.305-12.681-6.141-19.19-2.235-5.139-4.672-10.112-7.211-15.151-1.302-2.568-2.27-4.84-3.738-7.443-2.871-5.173-5.773-10.312-8.643-15.45-3.439-6.176-6.775-11.449-10.949-17.191-3.204-4.437-7.408-7.675-10.913-11.811-4.205-5.003-7.978-11.35-13.816-14.418-6.81-3.573-11.313-5.139-18.721-6.64-0.534-0.098-3.506-1.271-4.241-1.47-0.865-0.277-2.97-0.733-3.837-0.967-2.77-0.701-5.374-0.832-8.579-0.937-3.439-0.098-6.475-0.172-3.671-3.667 1.868-2.305 6.709-2.101 9.412-2.074 3.241 0.037 6.44-0.029 9.618-0.022zM308.918 370.603c4.544 0.006 8.972 0.127 13.403 1.169 6.109 1.47 13.517 2.472 19.358 4.742 4.473 1.734 10.080 4.338 14.285 6.543 3.036 1.568 5.005 5.538 7.609 7.774 2.904 2.538 6.508 3.638 8.579 7.411 1.636 3.001 4.071 8.144 5.041 11.347 0.802 2.706 0.333 5.307 1.503 7.981 0.967 2.271 2.67 3.469 3.372 5.804 0.733 2.305 1.304 5.974 1.939 8.544 0.467 2.002 1.597 5.005 1.866 6.511 0.4 2.235-0.071 4.67 0.371 6.81 0.601 2.838 1.968 3.903 2.336 7.039 1.368 11.346-2.504 21.229-7.143 30.739-4.006 8.211-9.846 15.654-17.89 19.524-4.873 2.333-8.843 5.739-13.484 8.175-6.575 3.47-15.184 2.938-22.124 4.34-11.214 2.235-24.066 4.636-34.911-0.903-5.273-2.672-11.314-3.503-16.888-5.939-5.074-2.201-9.045-5.241-13.451-8.409-9.277-6.676-13.182-16.023-13.116-28.235 0.073-8.412-1.836-24.264 7.542-26.532 3.872-0.937 10.88-0.436 13.818 3.037 0.802 0.93 1.835 4.27 2.502 5.673 1.502 3.035 2.706 6.408 4.308 9.378 3.005 5.677 7.543 8.98 12.983 11.48 5.839 2.672 11.613 0.604 17.488 2.304 5.342 1.535 9.513 1.77 15.184 1.837 5.74 0.098 9.814-2.367 15.218-4.203 4.671-1.568 10.747-3.274 13.984-7.779 3.172-4.404 2.737-7.809 3.274-13.249 0.667-6.672 3.569-11.982 2.070-19.223-1.168-5.71-1.605-12.519-4.707-17.49-3.104-4.971-7.476-11.882-12.448-14.416-3.939-1.939-7.808-3.505-11.68-5.64-4.404-2.436-9.347-4.574-13.35-7.776-5.506-4.406-9.677-7.308-16.285-8.742-5.306-1.168-9.114-2.401-15.153-2.401-1.406 0-3.075-0.229-4.677-0.295-1.971 2.033-3.791 4.519-6.179 5.087 0.005 0.005 0.007 0.011 0.012 0.016l-0.014-0.016c0 0 0.002 0 0.002 0-1.374-1.506 0.622-4.257 3.183-4.891 0.904-0.215 1.936-0.24 2.997-0.196 0.812-0.837 1.646-1.605 2.56-2.121 6.842-3.872 14.652-4.842 22.128-4.806 1.544 0.006 3.071-0.004 4.586-0.002zM696.528 378.038c9.768-0.389 21.743 6.518 30.285 10.089 7.21 3.001 16.454 8.043 22.227 13.918 3.237 3.271 5.741 8.608 6.676 13.146 0.567 2.737-0.536 5.739 0.097 8.445 0.666 2.936 2.102 3.536 2.469 6.943 0.27 2.333-0.247 4.84-0.097 7.177 0.197 3.303 1.502 5.174 2.168 8.344 1.066 5.039 0.435 11.479 0.248 16.686-0.368 9.011-5.674 17.993-11.013 25.599-5.807 8.211-10.147 12.581-19.225 17.753-9.413 5.405-18.924 9.345-29.438 13.083-4.473 1.604-9.345 1.803-14.384 2.971-5.774 1.368-10.748 1.5-16.22 0-9.277-2.505-20.358-1.569-29.536-6.476-8.911-4.707-17.189-12.78-19.158-23.229-0.865-4.637-0.197-9.677 2.403-13.111 3.571-4.607 7.509-3.506 12.75-3.538 5.539-0.023 10.813 1.069 16.021 2.603 1.734 0.502 2.735 1.738 4.74 2.236 2.934 0.733 6.307-0.597 9.311 0.099 4.873 1.133 9.846 3.605 15.186 2.304 1.939-0.469 3.671-1.837 5.573-2.504 2.603-0.867 5.675-1.137 8.312-2.371 8.711-4.104 20.726-5.874 26-16.121 1.57-3.070 1.402-3.838 1.571-7.676 0.122-3.303 1.534-5.24 2.168-8.308 1.302-6.042 0.072-11.75-1.837-16.856-4.071-11.116-11.947-17.356-21.026-23.665-9.013-6.241-19.124-5.872-30.14-5.872h-18.523c-2.603 0-5.508-0.403-8.077-0.049-0.349 0.038-0.687 0.105-1.018 0.186-1.254 1.662-2.34 3.474-2.397 4.861 0.479 0.662 1.205 1.38 2.227 2.145-1.692-0.23-2.272-1.053-2.227-2.145-1.837-2.538-0.054-4.264 2.397-4.861 1.207-1.598 2.547-3.051 3.235-3.774 4.705-4.839 9.11-6.54 15.119-8.78 2.404-0.9 4.473-3.001 6.91-3.736 2.737-0.835 5.406-0.098 8.11-0.7 5.474-1.202 10.613-3.805 16.187-4.637 0.63-0.094 1.271-0.152 1.923-0.178zM505.888 387.713c0.39-0.019 0.817-0.013 1.293 0.021 6.443 0.433 12.65 3.804 18.558 6.304 5.574 2.337 11.046 3.809 16.217 6.577 2.974 1.583 9.296 4.604 11.868 7.981 1.265 0.706 2.523 1.419 3.752 2.159 3.771 2.271 8.743 4.671 10.28 9.445 1.738 5.405 2.77 11.214 4.67 16.789 0.335 1.001 1.168 1.971 1.47 3.205 0.4 1.535-0.024 3.202 0.367 4.838 0.666 2.603 2.536 5.839 2.971 8.079 1.2 6.005 0.434 12.848 0.434 19.053 0 7.608 1.369 15.754-2.369 22.528-2.503 4.473-6.109 8.344-8.845 12.583-2.603 3.97-6.61 6.907-9.414 10.711-0.901 1.202-0.468 2.871-1.4 4.138-1.035 1.403-3.337 1.901-4.705 2.971-4.071 3.172-7.443 6.476-12.016 9.212-6.175 3.707-12.082 10.749-18.891 13.384-13.283 5.206-31.871 2.298-45.891 2.298-8.343 0-16.454 0.503-24.396-2.334-9.346-3.336-16.456-9.445-23.83-15.652-5.474-4.607-8.779-7.377-10.913-14.42-1.402-4.737-1.433-8.843-1.433-13.982 0.023-3.973-1.236-10.849 0.301-14.42 4.473-0.731 8.511-2.201 13.051-2.168 8.412 0.049 13.651 3.47 21.092 7.643 5.474 3.070 9.311 7.509 15.184 10.044 5.374 2.337 11.581 3.372 17.122 4.774 5.105 1.334 11.413 0.434 16.753 0.434 6.14 0 13.117 0.9 19.123-0.434 7.308-1.604 18.325-7.243 22.829-13.249 7.176-9.51 10.114-22.092 10.012-33.905-0.023-5.608-0.023-11.249 0-16.858 0.073-6.207-2.337-10.81-6.141-15.719-2.469-3.204-7.308-6.073-10.947-7.643-4.272-1.838-8.546-1.504-13.417-1.837-4.671-0.278-8.441-1.969-13.348-1.939-6.307 0.023-11.183-0.966-17.223-2.001-5.005-0.867-11.080 0.099-16.185 0.099-5.438 0-9.513-0.247-14.219 1.9-4.94 2.235-10.477 3.574-15.45 5.706-3.738 1.604-7.378 3.939-10.949 5.543-2.303-4.775 3.706-12.118 6.709-15.554 1.836-2.071 4.473-5.142 6.709-6.773 1.969-1.434 5.074-1.434 7.111-2.672 11.681-6.908 25.932-12.215 39.113-14.952 2.77-0.567 6.007 0.832 8.742 0.149 2.629-0.641 3.519-1.925 6.25-2.056zM313.019 409.397c0.622 0.026 1.285 0.137 2 0.35 2.136 0.603 10.213 8.71 9.578 11.882-1.234 6.274-19.826 7.276-24.164 9.913-4.938 2.972-2.665 7.378 1.305 9.746 3.738 2.239 7.574 1.754 12.112 1.704 10.98-0.201 11.815 9.344 2.871 14.952-3.604 2.272-7.71 2.046-12.114 1.737-3.238-0.234-10.713-1.268-13.417-2.906-1.366-0.8-2.001-2.766-3.304-3.769-1.403-1.068-3.272-0.934-4.74-2.203-3.070-2.603-5.005-7.943-6.306-11.312-2.106-5.407-2.474-7.578-0.271-12.284 2.136-4.601 4.472-6.838 8.177-10.479 5.596-5.534 12.935-6.229 19.806-3.405 2.772-1.664 5.005-4.073 8.467-3.926zM667.394 410.978c1.322-0.027 2.653 0.082 3.98 0.341 3.452 0.687 9.762 1.745 12.154 5.305 1.848 0.397 3.527 1.138 4.766 2.511 0.4 0.431 2.698 5.971 2.77 6.672 0.333 3.773-0.566 4.539-3.304 6.177-6.209 3.705-27.335-3.939-25.165 9.578 1.805 11.245 18.822 5.238 24.964 3.47 6.443-1.868 9.846 1.834 6.109 7.942-1.336 2.138-3.271 2.804-4.94 4.14-0.936 0.766-3.239 3.169-4.241 3.704-4.304 2.235-10.38 1.077-15.284 1.101-6.241 0.067-8.377-1.402-13.582-4.206-3.369-1.803-6.373-3.537-8.742-7.141-2.437-3.736-5.408-8.11-5.975-12.615-1.537-12.984 6.475-18.158 15.218-23.499 3.429-2.1 7.308-3.397 11.272-3.477zM495.664 433.908c1.321-0.026 2.652 0.082 3.979 0.341 3.449 0.684 9.757 1.744 12.152 5.3 1.849 0.397 3.529 1.138 4.768 2.511 0.4 0.431 2.698 5.975 2.77 6.676 0.333 3.771-0.57 4.54-3.306 6.173-6.209 3.705-27.335-3.937-25.165 9.578 1.803 11.248 18.825 5.238 24.966 3.47 6.443-1.868 9.846 1.836 6.109 7.944-1.336 2.136-3.273 2.804-4.941 4.138-0.936 0.771-3.237 3.173-4.238 3.708-4.337 2.237-10.38 1.075-15.284 1.099-6.241 0.067-8.379-1.402-13.585-4.203-3.369-1.803-6.374-3.539-8.742-7.143-2.437-3.74-5.408-8.113-5.975-12.617-1.535-12.988 6.477-18.158 15.22-23.498 3.429-2.103 7.31-3.398 11.274-3.477zM600.143 533.143c1.267 2.201 3.306 1.136 5.272 1.737 2.136 0.635 4.873 1.939 6.81 3.172 4.505 2.936 7.474 5.139 9.913 10.047 1.969 3.973 3.505 7.712 5.706 11.384 2.536 4.17 4.906 8.010 6.945 12.516 3.872 8.58 7.809 17.086 12.149 25.699 2.504 4.971 4.040 9.977 5.709 15.253 1.836 5.74 1.734 11.281 3.871 17.187 1.867 5.107 1.065 10.181 2.835 15.254 2.369 6.842 3.672 13.813 5.24 20.856 2.235 9.712 0.933 20.761 0.933 30.771 0.023 2.171 0.602 5.542 0.123 7.611-0.4 1.57-1.77 2.070-2.138 3.637-0.567 2.534 0.37 5.106-0.297 7.743-0.701 2.603-0.837 5.108-1.405 7.71-0.767 3.604-3.004 7.443-3.871 11.248-1.236 5.438-3.67 9.677-5.974 14.382-3.705 7.577-8.277 15.285-13.15 21.961-5.005 6.908-10.914 15.483-18.689 18.922-2.469-8.408-1.036-22.225 1.101-30.367 0.666-2.538 0.336-4.872 0.369-7.508 0.073-4.006 1.399-7.246 2.001-11.149 0.534-3.305 1.502-6.674 1.969-10.047 0.335-2.436-0.6-5.073-0.196-7.475 1.066-6.441 2.137-12.919 3.505-19.257 1.133-5.374 2.368-11.416 2.301-16.989-0.073-6.408 0-12.848 0-19.255 0-2.505 0.023-5.005 0-7.545-0.023-3.671-1.102-5.974-1.701-9.512-0.502-2.77-1.001-5.004-1.668-7.641-0.701-2.636 0.097-5.040-0.336-7.643-1.066-6.176-3.968-12.118-5.673-18.156-2.404-8.678-4.007-18.691-9.679-26.535-4.973-6.81-13.815-12.581-21.958-12.548-10.012 0.073-16.587 3.37-23.799 10.715-3.070 3.137-6.574 6.004-9.58 9.309-3.403 3.671-5.94 7.945-9.543 11.448-3.137 3.070-6.975 7.173-7.71 11.379-0.22 1.305 0.369 2.706 0.123 3.97-0.247 1.305-1.334 2.336-1.535 3.205-0.539 2.414 0.009 5.117-0.438 7.554 0.407-0.521 1.001-1.23 1.906-2.245l0.016-0.004c-0.098 4.971 3.273 8.241 1.535 13.415-1.868 5.506-6.308 6.409-11.083 7.508-4.873 1.137-9.645 3.406-14.85 1.603-3.204-1.133-8.611-5.773-10.513-8.71-4.739-7.242-4.405-20.524-3.304-29.136 1.068-8.31 8.611-14.217 13.484-20.922 5.173-7.244 12.214-14.451 18.956-20.527 6.974-6.239 12.916-14.883 21.527-19.090 7.977-3.872 14.753-8.809 20.994-15.253 3.003-3.108 7.174-4.842 10.846-6.71 4.17-2.136 8.977-1.402 12.95-2.971zM377.399 542.042c6.77 0.2 13.282 5.535 18.976 7.958 14.384 6.107 25.231 17.724 38.281 25.765 7.342 4.506 14.684 9.144 21.793 14.317 5.807 4.205 12.716 8.778 17.788 13.816 6.577 6.509 7.843 17.289 6.306 26.229-1.635 9.512-6.906 17.557-16.285 20.059-6.107 1.633-21.027 3.101-26.301-0.469-3.104-2.069-6.608-6.377-7.209-10.044-0.804-4.705 2.034-7.043 2.367-11.083 0.501-0.121 1.034-0.246 1.537-0.367l0.008-0.012c-1.903 0.069-1.199-6.306-2.835-11.444-1.702-5.241-2.973-11.447-5.975-16.222-3.539-5.642-7.678-7.341-12.183-11.58-4.806-4.506-7.211-10.101-14.285-10.38-2.802-0.073-5.839-0.146-8.609-0.024-2.906 0.17-4.843 1.603-7.645 2.072-4.404 0.703-8.942 0.17-12.448 3.641-3.237 3.169-5.241 10.912-6.609 15.216-1.034 3.135-2.601 6.543-3.437 9.647-0.766 2.838 0.034 5.609-0.567 8.443-0.667 3.24-1.335 5.409-1.668 8.78-0.302 2.873-1.471 3.104-2.072 5.573-0.603 2.437 0.702 5.309 0.2 7.744-0.502 2.402-1.802 4.203-2.102 6.672-0.336 3.305-0.067 4.538-1.302 7.545-1.269 3.104-2.301 5.373-2.472 8.677-0.264 5.041-1.892 9.147-1.868 14.25 0.075 6.605-0.726 13.585-0.024 20.161 0.299 2.702 1.533 4.34 2.035 7.039 0.504 2.77-0.367 5.373 0.333 8.177 1.438 5.608 2.541 11.014 3.806 16.754 0.633 2.77 1.067 6.345 1.868 9.045 0.733 2.469 2.969 4.207 3.97 6.476 1.504 3.435 1.036 6.706 3.205 9.743 1.77 2.502 3.838 5.107 5.739 7.577 1.704 2.167 3.773 5.841 5.674 7.743 2.369 2.339 4.237 2.938 6.274 5.573 6.205 8.111 22.259 22.060 18.29 33.774-2.57-3.271-5.643-7.274-9.612-8.509-4.973-1.535-9.779-1.37-14.819-2.201-4.506-0.769-11.713-2.406-14.885-5.842-1.702-1.833-1.939-3.835-3.205-5.774-1.070-1.6-2.905-3.035-4.073-4.639-6.241-8.51-8.612-18.291-10.18-27.771-0.8-4.705-2.601-10.278-4.404-14.819-0.833-2.136-2.302-4.74-3.338-6.943-1.102-2.436-1.101-3.201-1.868-5.939-1.205-4.34-1.962-7.311-1.939-12.35v-28.633c0-4.006-1.032-9.58-0.099-13.451 0.502-2.171 1.737-3.069 2.037-5.539 0.321-2.77-0.512-5.61 0.123-8.344 0.434-1.87 1.497-2.805 1.767-5.041 0.272-2.171-0.599-4.708-0.097-6.81 0.603-2.603 1.601-3.807 2.035-6.577 0.297-2.069-0.065-4.037 0.369-6.173 0.567-2.77 2.303-5.344 2.971-7.641 0.591-2.101 0.133-4.074 0.567-6.24 0.967-4.741 2.97-9.615 4.103-14.32 1.2-5.041 3.238-10.311 4.806-15.253 3.005-9.474 5.009-18.956 8.579-28.201 2.936-7.608 7.143-17.787 15.687-19.588 0.976-0.204 1.949-0.281 2.916-0.252zM558.681 681.654l0.006 0.004c3.371 1.2 6.241 4.006 9.013 6.208 2.836 2.235 6.341 3.671 8.643 6.574 5.74 7.31 8.879 21.66 9.111 30.739 0.197 9.143 0.248 17.089-3.871 25.163-3.738 7.411-8.911 13.951-11.447 22.028-1.001 3.137-2.605 6.275-4.040 9.378-0.835 1.867-2.002 3.906-2.702 5.808-1.001 2.668-0.469 4.872-1.036 7.473-0.434 1.833-1.533 2.7-1.801 4.873-0.299 2.136 0.022 4.604 0.022 6.74 0 4.44-0.172 8.912 0 13.35 0.122 4.642 2.371 8.044 3.405 12.415 0.502 2.136 0.533 3.804 1.3 5.706 0.901 2.207 3.036 4.307 3.937 6.674 3.471 9.147 9.579 17.224 12.151 26.537 1.368 5.039 4.405 9.077 4.071 14.483-0.299 4.238-2.235 11.046-4.306 14.849-4.54 8.41-15.754 15.685-23.996 19.323-2.836-8.343 3.505-15.382 3.437-23.661-0.073-8.51-0.022-16.121-2.835-23.865-3.070-8.51-9.544-15.117-14.317-22.892-2.636-4.24-5.738-8.177-8.374-12.383-2.836-4.54-4.64-9.716-6.91-14.485-3.505-7.308-3.273-22.394-1.769-30.436 1.001-5.342 4.773-10.249 7.542-14.788 2.737-4.473 4.607-9.377 8.11-13.382 5.908-6.81 12.647-13.918 14.586-22.462 2.203-9.712-1.133-18.456-5.806-26.432-3.905-6.676-15.284-7.145-17.053-15.353-0.967-4.54 2.935-9.277 5.739-12.448 4.24-4.842 7.443-5.641 19.192-5.739zM479.664 687.288c5.569 0.012 9.251 3.001 17.951 3.877l0.010 0.004c-6.942-0.122-3.77 23.53-2.87 27.599 1.168 5.44 3.336 11.782 6.64 16.385 2.337 3.305 6.076 6.778 7.51 10.584 1.267 3.369 1.867 6.609 2.035 10.311 0.098 2.406 1.87 4.676 1.87 6.745 0 2.305-1.404 2.468-1.939 4.602-0.435 1.872 0.665 4.072 0.196 5.907-0.4 1.704-1.568 2.906-2.035 4.642-0.469 1.57-0.436 3.304-0.903 4.802-0.633 2.136-1.969 4.505-2.87 6.676-1.434 3.471-2.769 6.708-4.306 10.044-0.767 1.701-0.935 2.338-1.436 4.275-0.435 1.769-1.367 3.403-1.737 4.938-1.769 7.643-0.172 17.724-0.172 25.598 0 8.58 0.369 15.92 2.070 23.697 0.601 2.804 2.303 6.774 3.669 9.715 1.334 2.902 1.304 4.105 1.804 7.041 0.667 3.941 3.171 6.941 3.804 10.846 0.633 3.77-0.731 7.345 1.202 10.614 1.57 2.603 2.336 1.333 2.736 4.838 0.666 5.275-0.435 9.543-1.734 14.352-2.101 7.743-5.673 18.492-13.284 23.261-1.068-3.736 0.268-7.944-0.2-11.816-0.3-2.57-1.666-4.54-2.070-7.108-0.467-2.902 0.4-5.707-0.333-8.581-2.136-8.442-2.97-16.956-8.31-24.463-5.974-8.378-10.479-17.322-14.152-26.801-4.438-11.612-5.306-25.431-3.905-37.981 0.601-5.403 2.603-9.913 5.374-14.315 1.236-1.939 1.735-4.171 2.738-6.177 1.901-3.839 4.94-6.609 6.81-10.481 1.035-2.067 0.702-3.936 2.271-5.972 0.701-0.865 2.234-1.436 2.801-2.27 0.802-1.171 1.869-2.837 2.504-4.206 1.303-2.706 3.738-6.21 4.404-8.98 0.934-3.872-1.466-8.977-2.901-12.516-1.939-4.705-6.040-8.31-10.446-10.481-3.805-1.836-7.143-2.27-10.614-4.77-4.040-2.934-7.142-5.141-9.778-9.548-5.74-9.578-2.871-23.725 3.036-32.906 3.939-6.075 5.776-11.446 13.419-11.947 0.39-0.027 0.77-0.039 1.141-0.038zM428.893 689.263l0.037 0.004c-3.77 3.671-7.645 8.145-9.144 13.35-0.667 2.27-0.071 4.439-0.565 6.674-0.635 2.97-1.702 4.541-1.769 7.643-0.098 4.804-0.371 8.978 1.868 13.286 3.036 5.805 5.975 10.51 9.647 15.751 2.536 3.606 4.473 7.043 7.143 10.446 2.471 3.206 4.738 7.446 6.24 11.013 1.598 3.839 0.767 7.545 1.734 11.613 0.435 1.84 1.67 2.671 2.102 4.606 0.467 2.235-0.075 5.404-0.075 7.708 0 2.169 0.333 4.573 0.024 6.709-0.3 2.337-1.202 2.905-1.769 4.905-1.334 4.671-2.1 7.675-4.537 11.715-3.405 5.638-6.576 11.181-11.85 15.785-5.974 5.206-12.915 9.012-18.623 14.784-2.704 2.737-5.741 4.807-7.678 8.079-2.203 3.671-6.142 9.377-7.211 13.286-0.635 2.27 0.302 5.373 0.123 7.741-0.172 2.871-1.569 4.843-2.037 7.643-0.701 3.907-0.534 11.081 0.502 14.819 0.199 0.668 1.368 1.27 1.603 2.24 0.3 1.265-0.466 2.77-0.198 4.037 0.333 1.604 2.169 4.141 2.971 5.606 1.769 3.371 5.776 9.313 4.404 13.15-3.070-0.404-5.172-5.074-6.709-7.377-2.936-4.372-7.042-8.079-10.113-12.45-7.11-10.177-12.68-20.957-13.417-33.441-0.534-9.277-0.097-18.19 5.706-25.599 3.070-3.97 7.041-8.842 11.48-11.177 4.006-2.101 8.742-2.905 12.679-4.905 8.879-4.54 14.151-8.944 14.084-19.323-0.023-4.308 0.635-9.211-0.434-13.354-0.667-2.57-1.303-3.867-1.466-6.707-0.172-2.603-1.267-3.773-1.769-5.874-0.502-2.136 0.265-4.372-0.073-6.511-0.4-2.538-1.969-4.639-3.172-6.876-3.273-6.109-8.108-10.28-11.813-16.021-5.674-8.843-9.947-17.222-14.25-26.733-4.671-10.28 3.302-18.056 9.111-25.763 3.003-3.97 7.61-6.109 12.417-7.643 3.336-1.035 11.68-2.538 14.618 0.499-0.434 0.148-0.868 0.336 10.178-3.336z"></path>
    </svg>