<svg xmlns="http://www.w3.org/2000/svg" viewBox="31.794 32.521 953.272 959.453">
    <path fill="#000000" d="M592.504 920.532c-0.010-0.010-0.014-0.017-0.020-0.026-0.083 0.051-0.078 0.067 0.020 0.026z"></path>
    <path fill="#000000" d="M655.015 892.641c-0.018 0-0.060 0.019-0.157 0.109 0.067-0.050 0.094-0.062 0.157-0.109z"></path>
    <path fill="#000000" d="M787.961 755.723c0.574-0.389 1.32-0.982 2.423-1.837-0.815 0.592-1.619 1.217-2.423 1.837z"></path>
    <path fill="#000000" d="M459.776 32.528c-1.61 0.887-3.12 1.718-4.647 2.528-1.028 0.424-2.040 0.884-2.938 1.351-1.842 0.726-3.565 1.545-5.234 2.231-3.338 1.33-6.35 2.488-8.703 3.641l5.291-3.641c-3.209 2.184-5.934 3.632-8.76 5.176l3.996-0.294c-3.467 1.54-6.224 2.993-6.525 2.353-2.862 2.826 3.907 1.034-2.177 5.998-2.394 0.853-5.629 2.879-8.584 4.588-1.496 0.814-2.971 1.482-4.172 2-0.641 0.193-1.117 0.425-1.589 0.469-0.288 0-0.493-0.103-0.703-0.352 0.193-0.030 1.162-0.52 1.765-0.822 0.685-0.363 1.253-0.729 1.765-0.939 0.9-0.512 1.423-0.862 1.765-1.117 0.56-0.56 0.187-0.727-0.295-0.763-0.791-0.187-1.816-0.393 1.293-2.441-1.747 1.019-3.761 2.062-6.173 3.148-0.601 0.030 0.273-0.739 1.115-1.29-0.943 0.36-2.373 0.964-2.586 0.997-0.129-0.030-0.142-0.030-0.236 0-0.129-0.030-0.175 0.026-0.175 0.058-0.288 0.065-1.182 0.193-1.529 0.352-0.984 0.288-1.614 0.675-2.469 1.058-1.669 0.77-4.023 1.636-10.703 1.765 1.333-0.846-0.793-1.355-3.116-1.648 1.486 0.596-1.425 1.937-5.762 2.704-10.058-0.682-10.902 0.939-16.168 0.939l5.995 0.294c-0.937 0.604-2.668 0.959-4.94 1.174-2.358 0.159-5.38 0.298-8.938 0.529-0.258 0.065-0.637 0.159-0.939 0.352-0.223-0.159 0.136-0.48 0.822-0.822-2.612 0.984-3.881 1.366-5.939 1.882-1.971 0.322-4.031 0.69-6.173 1.117-4.196 0.77-8.655 1.766-12.936 3.821-5.054 0.77-1.116-2.029-5.527-1.174-4.28 2.056-7.279 2.856-9.933 3.409-1.324 0.288-2.512 0.461-3.879 0.761-0.689 0.129-1.348 0.322-2.119 0.471-0.4 0.129-0.793 0.162-1.176 0.292-0.726 0.193-1.39 0.446-2.116 0.644-0.689 0.424-1.406 0.868-2.177 1.29-0.431 0.223-0.942 0.585-1.41 0.882-0.989 0.641-2.003 1.435-3.116 2.292 3.982-0.56 4.303-1.201-2.589 4.88l10.348-7.114 9.407-3.641-4.172 2.292c-1.588 0.77-2.335 1.281-4.822 2.353-1.882 1.411-2.531 2.188-3.641 3.174 1.286-0.814 2.657-1.732 3.937-2.589 1.374-0.512 2.711-1.058 3.996-1.529 1.202-0.472 2.262-0.968 3.291-1.351 2.141-0.9 4.070-1.552 5.527-1.941-5.739 3.299-5.3 2.712-2 3.057-1.798 0.030-3.49 0.357-5.115 0.763-0.814 0.193-1.7 0.52-2.469 0.822l-2.882 1.115c-2.265 1.669-4.536 3.317-6.936 5.115-2.265 1.628-4.715 3.136-7.587 4.291l-1.823-3.526c-10.105 4.625-17.637 11.334-26.929 17.757-2.999 1.628-7.59 3.846-12.171 5.644l6.056-2c-1.752 2.525-10.986 5.254-16.462 8.467-0.030-1.453-3.816-0.197-6.642 0.061 0.641 0.81-12.954 5.855-13.643 9.111l-2.353 0.705-2.116 1.529-1.589 0.997-3.057 1.942c-11.946 10.404-10.394 15.254-21.692 25.398 2.31-4.193-3.357-0.073 3.233-7.879-3.635 3.51-7.065 6.444-6.466 7.171-0.596 0.288-1.439 1.043-2.292 1.942-0.943 1.068-2.096 2.407-3.291 3.821-1.072 1.971-2.283 4.145-3.352 6.115-1.028 1.709-2.018 3.215-2.999 4.114-0.726 2.1 0.081 3.448-3.057 8.114-0.393 0.263-0.536 0.030-0.595-0.161-0.082 1.206-3.859 7.498-0.163 4.399-2.697 2.394-5.343 5.575-7.997 9.172-1.33 1.709-2.597 3.619-3.879 5.585-1.202 1.798-2.383 3.628-3.587 5.47-2.056 1.839-4.176 3.747-6.232 5.585-2.184 1.842-4.351 3.729-6.408 5.527-4.199 3.467-8.249 6.328-11.759 7.998-4.495 4.193-9.384 8.793-13.879 12.99-2.184 6.207-4.209 11.892-5.879 16.817-0.159-0.77-0.598-0.279 0.175-2-5.953 12.585 0.665 9.294-6.056 23.637-4.84 6.806 1.716-8.23-0.763-3.823-1.411 0.159-2.421 1.626-3.409 3.937-0.468 1.157-0.953 2.546-1.47 3.998-0.363 1.33-1.074 3.469-1.115 3.937-0.129 0.36-0.892 1.531-1.706 2.647l-2.292 3.409c-1.588 2.137-3.336 4.088-5.176 5.585l1.351-2.231c-6.036 5.607-10.444 16.964-18.579 27.456 0 0-0.039-0.77-0.586-0.471-0.193 0.689-0.707 1.829-1.648 3.411-0.472 2.525-1.049 5.413-1.648 8.584-0.596 2.862-1.291 5.926-2.060 9.053-1.54 6.25-3.262 12.751-4.763 18.402-0.428-4.283 0.869-5.771-1.529-4.057-1.54 5.56 3.149-0.698 0.115 10.348-0.9 1.459-1.83 3.218-3.116 5.704-1.157 3.425-2.266 6.085-3.468 6.642l0.999-7.23 1.349-4.114c-0.4 0.512-0.889 0.929-1.232 1.529-0.322 0.512-0.59 1.195-1.058 2.353-0.129 0.814-0.289 1.555-0.469 2.411l-0.352 2.058c-0.129 1.367-0.112 2.748-0.175 4.115-0.129 2.742-0.265 5.401-0.822 7.585l-0.941-0.939c-2.056 15.972 0.388 17.213-2.116 33.394-0.030 0.193-0.172 0.523-0.236 0.822 0.193-0.322 0.434-0.553 0.644-0.763 0.159-0.159 0.349-0.277 0.529-0.586 0.030 0.4 0.026 0.532 0.058 0.703 0 8.819-3.438 6.899-3.823 16.401l-3.351 2.177c-0.984 6.293-2.683 22.441-5.47 33.57 0.129-6.68 2.131-20.049 3.118-28.395-1.055 4.080-2.1 10.404-3.118 16.285 0.4 8.181-1.856 18.101-5.41 30.218-1.411-1.157-3.12 1.773-4.88 6.527-0.9 2.358-1.781 5.237-2.765 8.231-1.072 3.385-2.163 6.937-3.233 10.404 0.159 1.238 0.391 2.508 0.588 3.701 0.065 0.858 0.162 1.654 0.292 2.472 0.159 1.54 0.421 3.128 0.529 4.586 0.159 2.826 0.089 5.165-0.294 6.878 1.453 5.307 2.618 10.728 3.643 16.168 0.472 2.742 0.954 5.504 1.468 8.29 0.431 2.955 0.884 5.839 1.351 8.877 1.842 5.734 3.717 11.604 5.644 17.639 1.927 5.86 3.98 11.901 6.29 18.108 0.685-10.061 2.676 7.091 6.056 4.174 0.989 2.567 1.643 4.331 2.119 5.527 0.129 0.9 0.271 2.128 0.175 2.292v0.058l0.41 18.579c-0.512 4.495-1.836-5.607-2.647-4.88 1.798 13.146-0.825 5.779-0.527 14.64 1.202-2.009 2.784 4.238 3.468 11.818l0.234-10.82c2.439 8.646 2.258 12.23 2.177 16.815 0.322 5.093 0.16 8.748 3.762 18.168l-2.706-5.412c1.238 3.596 2.848 9.679 4.647 16.226 0.984 3.295 1.941 6.699 2.882 9.994 0.56 1.588 1.117 3.222 1.589 4.766 0.641 1.714 1.249 3.337 1.765 4.88 0.733 1.588 0.907 1.816 1.29 2.586 0.431 0.641 0.777 1.209 1.117 1.765 0.726 1.157 1.552 2.171 2.231 2.94 0.159 1.752-0.058 4.221-1.941 0.41 2.358 6.208 5.159 12.756 8.114 19.225 3.084 6.68 6.217 13.394 9.172 19.816 1.669 2.31 3.293 4.5 4.88 6.642 1.367 1.962 2.711 3.875 3.996 5.764 2.569 3.761 4.772 7.333 6.527 10.761l-1.765-0.941c2.612 3.425 5.753 5.178 7.938 10.228-0.56 0-1.894-0.906-0.822 0.763 0.512 0.596 1.628 1.855 2.999 3.352 0.641 0.77 1.288 1.548 2.058 2.411 0.77 0.984 1.317 1.528 2.647 3.409 0.943 0.858 1.922 1.83 2.821 2.647 0.726 0.726 1.338 1.369 1.942 2.058l-4.291-2.586c15.327 16.57 26.675 21.977 40.806 34.392-2.1 2.142 10.028 14.835 16.108 21.167l-0.529 0.058c4.625 4.408 9.005 8.327 13.286 12.052 4.108 3.892 8.118 7.539 12.054 11.054 4.027 3.551 7.884 7.031 11.993 10.586 1.968 1.842 4.001 3.641 6.056 5.527 1.072 0.943 2.106 1.895 3.174 2.882 1.197 1.109 2.447 2.251 3.641 3.409 0.472 0.223 0.972 0.6 1.531 0.939 3.551 3.681 9.303 8.262 16.108 13.227 3.467 2.439 7.105 5.050 10.876 7.704 4.154 2.911 8.494 5.865 12.817 8.821 4.968 1.374 9.962 2.792 14.758 4.114 4.28 1.286 8.418 2.597 12.229 3.879-3.428-1.453 1.154-2.121 5.351-1.351 5.35 2.009 15.635 1.911 14.053 4.35l-1.882-0.588c0.512 0.56 1.275 1.134 2.175 1.65 0.4 0.223 0.839 0.508 1.351 0.761 0.641 0.193 0.319 0.141 0.529 0.353-0.223 0.030 1.524 1.155 2.763 1.882 1.374 0.814 2.728 1.652 4.174 2.469 2.915 1.588 5.96 3.266 8.702 4.763l2.999-2.411c3.165 2.782 6.939 5.426 11.054 7.997 2.016 1.286 4.090 2.623 6.231 3.823 2.394 1.33 4.792 2.556 7.232 3.879l7.405 2.469c2.226 0.685 4.462 1.311 6.644 2 4.408 1.367 8.804 2.682 12.696 3.879 7.88 2.531 14.305 5.11 17.815 7.938 0.9 0.159 1.116 0.182 2.999 0.644 2.697 0.363 5.672 0.714 8.584 1.057 2.785 0.288 5.514 0.673 7.997 0.763l-0.703 1.823c6.121 1.374 11.003 2.474 16.050 3.585 2.531 0.56 5.097 1.094 7.879 1.65 3.128 0.601 6.48 1.288 10.287 2.058 2.184-0.193 6.294-0.672 10.878-1.057l-3.937 1.706c11.047-0.726 13.546-6.592 23.694-7.405l3.235 2.646 8.409-0.527 8.702-0.352 10.761-1.531 10.17-1.589c6.766-1.157 13.442-2.665 19.991-4.763-0.223 0.468-0.727 1.414-3.762 2.058 2.652-0.431 6.817-1.024 11.23-1.706 2.481-0.129 5.008-0.233 7.407-0.352 2.525-0.159 4.966-0.403 6.936-0.703 3.605-0.506 5.884-1.261 5.363-2.353 2.307 1.784 20.249-1.546 29.972-3.526l-1.41 2.116c8.518-3.508 8.701-4.227 20.814-6.408 2.915-0.129 2.736 1.115-1.115 1.115 9.722-0.193 7.23-2.647 19.047-3.116l-4.172 1.765c4.84-0.56 7.089-0.954 8.76-1.468s2.686-1.080 6.115-2.233c0.030-0.030 0.202-0.198 0.352-0.292 0.814-0.596 1.72-1.334 2.704-2.060 0.77-0.512 1.668-0.99 2.53-1.589 1.798-1.117 3.701-2.291 5.585-3.233 3.681-1.883 7.044-3.16 8.114-2.821 0.553-1.626 4.361-5.685 9.582-8.469 1.028 0.129-0.579 1.564-1.349 2.292 3.428-1.842 6.289-3.697 8.819-5.41 1.286-0.943 2.447-1.731 3.641-2.586l1.589-1.234 0.999-0.763c0.512-0.288 2.055-0.87 3.468-1.293 1.374-0.472 2.683-0.983 4.057-1.407 2.697-0.77 5.457-1.39 8.584-1.648 0.4 0.512 1.088 0.628 2.116 0.586-7.533 1.882-14.104 3.646-17.872 4.588-0.77 0.472-1.364 0.832-1.708 0.997-0.279 0.182-0.468 0.28-0.565 0.322 0.412 0.636 2.666-0.171 2.92 0.208 0.472 0.159 0.684 0.347 0.939 0.642 0.129 0.288-0.030 0.839 0 1.351 0 0.095 0.027 0.233 0.058 0.352 0-0.065 0.026-0.233 0.058-0.352 0.553-0.193 1.073-0.449 1.589-0.703 1.202-0.472 2.408-1.030 3.643-1.589 2.486-1.028 5.122-2.119 7.819-3.233 5.355-2.184 10.949-4.14 15.874-5 0.512 0.030 0.99 0.047 1.41 0.175l-0.999 0.412c2.358-0.431 4.524-1.111 6.409-1.884 1.626-0.288 2.966-0.567 4.289-0.822 1.496-0.288 2.031-0.421 5.117-1.174 0.56 0.159 1.831 0.038 3.76-0.353 1.109-1.11 2.517-2.6 4.057-4.348 0.862-1.028 1.761-2.077 2.704-3.233 1.842-2.226 3.851-4.541 5.176-6.173-1.731-0.843 2.768-5.92-2.312-2.168 0.099 0.030-0.999 1.489-2.922 3.811-0.431 0.682-0.98 1.413-1.234 1.884 0-0.129 0.031-0.288 0.063-0.471l-6.936 8.469-5.881 1.589c1.202-0.689 3.611-1.604 5.41-2.294 0.641-0.9 1.311-1.827 2-2.763 0.56-0.73 1.181-1.582 1.825-2.353 1.068-1.374 2.352-2.651 3.937-3.937 0.814-2.908 1.811-6.031 2.411-7.704 6.766-3.851 16.978-13.746 19.461-14.17 1.713-2.272 3.466-4.689 5.349-7.171 2.567-2.184 5.21-4.462 7.821-6.644 2.785-2.439 5.445-4.767 8.056-6.995 5.097-4.667 9.437-9.092 11.876-12.817 3.338-3.209 4.754-2.472 6.466-3.116-1.927 1.962-4.415 3.89-5.232 5.176 6.465-6.72 21.969-16.373 22.224-19.758 10.187-5.825-4.025 5.666 8.819-3.879l-1.293 1.823c3.425-1.798 6.511-3.658 9.465-5.585 1.459-1.028 2.881-2.001 4.291-2.94 1.752-1.286 3.507-2.537 5.176-3.821l2.116-3.937 1.351-2.704 2.411-5.412c1.588-3.596 3.235-7.179 4.822-10.82 3.209-7.153 6.994-15.059 11.407-22.165 2.53-2.355 6.016-5.379 9.689-8.215-0.428 0.291-0.771 0.479-1.044 0.515 4.667-4.108 9.216-8.431 13.758-12.756l6.7-6.7 7.114-6.995c9.335-14.94 17.163-28.151 26.751-42.92l2.823-8.702 2.823-8.114c1.927-5.437 3.977-10.711 6.115-15.933 3.128-8.178 3.066-10.76 3.409-15.169 0-1.157 0.115-2.485 0.115-4.114l2.472-1.942 0.234-11.876c2.009-16.523 11.039-26.869 12.875-47.977l-1.942 2.353c2.009-7.278 4.818-23.44 6.056-21.811-0.030-0.858-0.838-2.668 0.529-5.41h1.174l0.352-2.706 0.644-3.641-1.41-3.937v0.175l-1.115-3.057-2.413-6.173c-2.999-14.001 4.752 1.123-0.469-19.166-2.486-7.406-8.847-20.579-8.763-17.58 0.769 3.036 1.461 7.907 0.471 8.467l-2.353-6.7c-0.193-0.030-0.491-0.053-0.703-0.117l-0.352-1.115 9.994-49.093-8.821-32.926 0.763 0.644-1.174-2.231-2.823-10.464c0.424 0.193 1.076 1.062 1.765 3.116-0.223-3.084-0.683-4.612-1.234-6.115-1.242-2.137-2.216-2.831-3.116-7.114-0.129-0.814 0.185-0.591 0.588 0l-3.998-6.642c1.157 1.109 1.294-2.023 2.882 2.469-4.283-13.271-11.325-19.383-11.583-24.988l0.705 0.941c-6.68-12.715-4.769-6.704-6.997-8.29l-0.117-0.352-1.174-8.35 2.647-7.113-2.294-1.648c-0.193-1.927-0.503-5.836 0.412-5.234-2.351-7.106-0.764 1.36-2.647-2.704 0.468-7.449-2.048-18.076-2.177-24.752-1.068-1.882-1.718-3.436-1.29-4.289-3.425-1.927 4.659 8.364-2.53 0.527 1.109-4.495-7.465-9.105-11.405-17.111 3.084 1.068 7.185 8.314 3.291 0.352-5.609-2.394-9.508-14.057-14.346-19.58-2.272 1.197-10.217-12.366-18.051-21.87 1.157 0.129-12.525-19.586-18.049-29.691l0.469 0.058c-3.295-0.428-9.565-10.434-14.875-17.284 1.411-0.553 2.832 0.385 5.998 3.879l-4.527-6.761c-1.752-1.109-3.472-3.017-6.644-7.171l2.704 0.703-2.411-3.233-3.291-2.763-2.882-2.353c-1.927-1.54-4.001-3.192-6.056-4.822-4.108-3.381-8.325-7.017-12.522-11.641-1.197 0.56 1.432 5.347-0.352 5.644l-5.468-5.115c0.596-0.223 1.529-0.074 3.116 1.057-1.028-0.77-3.882-2.397-5.47-4.408l5.412 2.823c-4.194-4.792-3.358-1.267-6.997-4.822 1.028-0.9-2.009-3.224-0.763-3.526 1.028 0.77 2.848 3.352 4.647 4.291-2.009-1.968-4.625-4.664-5.82-6.29-0.858-1.713-2.124-4.226-2.292-5.291-0.36 0.9-1.466 1.197-4.115-2.060-6.55-8.559-0.963-3.97-4.172-9.407-2.31-1.496-5.697-7.553-7.405-6.525-1.887-2.525-1.527-3.498-1.825-4.822-1.113-1.072-2.786-3.122-4.586-5.351-2.137-2.612-4.348-5.464-6.231-7.821-6.55-1.626-8.226-1.684-5.998 0l1.589 0.588c-0.363-0.030-0.732-0.169-1.115-0.234-7.578-1.324-15.101-3.559-22.637-5.998l-11.288-3.762c-3.596-1.202-7.017-2.357-10.525-3.468l-2.997-2.586-3.528-2.823 0.41-0.471c-8.733-6.46-18.591-15.362-25.396-19.342-2.439-2.056-4.949-5.829-3.409-5.527-0.984-0.733-1.874-1.452-2.472-1.882-1.54-0.641-2.811-1.117-4.055-1.589-1.157-0.468-2.254-0.956-3.409-1.47-2.352-1.157-5.056-2.668-9.465-5.41 8.006 2.656-2.132-2.168 8.056 3.057-9.422-5.308-11.154-7.364-22.282-10.878 4.237 0.159-6.137-5.495-11.23-7.466l6.349 4.527c-1.496-0.641-2.917-1.293-4.291-1.941-1.584-0.77-3.146-1.582-4.647-2.353-2.567-0.4-4.966-0.69-7.405-1.117l2.999-1.882c-10.658-2.782-20.597-2.872-29.928-3.174-4.625-0.129-9.097-0.324-13.463-0.88-4.283-0.604-8.331-2.001-12.229-3.879-5.992 0.424 11.548 3.359 6.115 4.172-9.848-2.229-19.569-7.443-22.696-7.997-5.479-1.628-8.714-1.794-11.583-1.706-1.459 0.065-2.729 0.169-4.233 0.234-0.726 0.030-1.597 0.030-2.411 0-0.943-0.030-1.567-0.036-3.233-0.292-1.028 0-2.114 0.058-3.352 0.058-1.072 0-2.27-0.081-3.641-0.175 1.887 0.853 3.641 2.945-7.23 3.584-10.105-0.472-12.42-3.559-5.998-4.114 2.439-0.030 3.616 0.221 3.526 0.529 3.299-0.223 7.549-0.524 3.528-1.47l-1.351 0.822c-5.007-0.943-18.92-1.067-15.58-2.353-7.706 0.689-3.395 1.249 2.294 1.765-8.388-0.937-14.792-0.796-21.343-0.88-3.084-0.193-7.323-0.612-11.818-1.29 2.092 0.641 3.982 1.741 1.882 1.529-19.477-2.785-8.722 0.716-21.989-0.117-7.408-1.882 2.936-2.657-10.464-2.823-8.091-1.588-1.549-2.257 1.708-2.646-1.459 0.030-2.881 0.030-4.291 0l-2.999-0.175c-1.181-0.127-2.331-0.21-3.468-0.353h-0.061v-0.012zM517.734 118.559c1.154 0.128 1.726 1.652 1.43 4.37-0.667 6.277-3.666 11.566-3.594 17.841l-0.047-0.006c0.025 3.349 0 6.731 0 10.082 0 3.879 0.352 7.898-0.46 11.638-0.292 1.372-1.339 2.502-1.62 4.445-0.262 1.972 0.352 4.125 0.105 6.133-0.532 3.987-2.116 5.643-2.047 10.049 0.025 4.582 0.326 9.236-0.458 13.752-1.551 8.887-1.021 17.241-1.412 26.161-0.326 6.662-2.998 12.936-3.843 19.531-0.637 4.829-0.494 9.798-0.388 14.63 0.234 10.933-3.844 21.082-4.091 32.052-0.21 9.834-0.426 19.077-1.482 28.913-0.775 7.334 0.234 14.56-0.292 21.823-0.389 5.675-2.961 10.931-3.845 16.535-0.808 5.256-0.385 10.545-0.353 15.832 0.105 13.644-0.052 27.291 0 40.937 0.052 9.768-1.939 17.911-9.693 24.362-2.149 1.802-4.268 3.988-6.313 5.856-3.383 3.031-5.921 7.999-10.082 9.729-3.491 1.446-2.855 0.21-6.523 3.314-3.282 2.819-6.42 5.782-9.909 8.425-2.643 1.972-4.231 3.418-6.24 6.205-4.9 6.769-6.945 13.578-14.067 18.126-6.665 4.266-11.037 10.472-17.736 14.701-14.034 8.814-25.277 23.589-34.516 37.126-1.976 2.891-4.055 5.959-5.82 9.166-2.288 4.163-3.067 10.12-6.133 13.718-3.139 3.631-5.499 5.323-7.97 10.049-3.102 5.925-6.699 10.082-9.977 15.549-2.784 4.687-5.393 9.909-7.862 14.279 2.502 1.342 2.188 8.111 3.174 10.756 0.772 2.047 2.009 3.842 2.574 5.781 1.62 5.536 3.35 11.638 5.499 16.749 1.94 4.55 5.536 8.073 7.613 12.518 3.139 6.665 3.313 15.691 5.43 22.847 0.601 2.047 1.583 3.631 2.821 5.289 0.457 0.637 2.15 1.027 2.429 1.626 1.093 2.325 0.426 3.912 1.801 6.133 1.972 3.246 5.040 6.172 7.084 9.451 1.868 2.997 2.397 6.206 3.528 9.239 0.775 1.972 1.727 3.243 2.574 5.251 2.502 5.783 1.129 11.599 4.618 16.817 1.374 2.077 3.631 3.14 4.584 5.569 0.423 1.093 0.027 3.987 0.779 5.255 0.742 1.269 2.501 2.289 3.382 3.562 2.329 3.347 3.457 7.721 5.749 11.281 4.479 6.913 9.166 13.117 13.54 19.781 4.159 6.241 8.319 13.011 11.214 20.028 0.845 2.081 0.704 3.947 1.973 6.137 1.197 2.077 2.751 3.843 4.089 5.993 3.139 5.042 3.844 11.247 6.383 16.712 1.8 3.914 4.267 6.56 5.853 10.472 1.057 2.646 2.436 7.333 4.269 9.344 2.539 2.751 5.427 2.855 7.722 6.274 1.553 2.329 2.116 4.552 3.914 6.666 3.278 3.774 5.536 6.769 6.133 12.060 0.457 4.055 0.847 10.966-0.42 14.772-0.526 0.105-1.092 0.182-1.656 0.352 11.742 4.69-0.563 6.559-2.574 9.734-8.041-3.139-14.21-8.041-19.606-15.303-3.631-4.902-8.39-7.863-12.058-12.448-3.175-3.947-5.256-8.425-9.556-11.389-2.821-1.903-6.276-2.926-9.166-4.828-3.35-2.191-6.066-4.479-9.522-6.1-2.678-1.269-3.772-1.657-6.064-3.95-5.113-5.042-8.145-11.67-12.092-17.666-5.080-7.686-7.089-16.288-11.036-24.574-4.477-9.379-8.215-19.36-13.045-28.491-2.999-5.639-7.158-10.472-10.192-16.147-2.114-3.982-5.219-6.207-7.722-9.872-3.313-4.831-3.419-11.175-6.383-16.359-1.8-3.175-2.892-5.111-4.055-8.358-2.505-7.229-5.713-15.55-10.507-21.79-7.229-9.379-11.851-19.781-15.23-31.24-4.971-16.78-12.339-32.896-17.066-49.433-0.988-3.418-3.457-10.048-1.127-13.608 1.446-2.187 3.77-1.378 5.251-2.823 0.637-0.632 0.293-2.537 0.847-3.207 11.745-13.929 24.718-27.929 35.4-42.77 4.159-5.817 9.663-10.367 14.101-16.112 3.491-4.55 5.89-9.168 8.994-13.785 1.057-1.552 2.961-2.432 4.087-4.338 0.99-1.585 2.574-4.268 3.102-6.066 0.601-2.151-0.158-3.913 0.261-5.959 0.704-3.594 2.221-5.64 4.164-8.705 2.819-4.406 3.557-7.865 5.464-12.026 2.361-5.111 7.195-10.577 10.156-15.692 5.712-9.8 13.114-19.673 20.626-28.136 3.523-3.947 6.346-8.64 10.152-12.341 1.976-1.868 4.726-3.244 6.559-5.216 3.244-3.563 5.325-7.971 5.569-12.728 0.129-3.313-0.001-6.735-0.052-10.016-0.026-4.687 1.584-7.79 2.082-12.092 0.772-6.733 1.268-17.701-0.497-24.257-3.703-13.716-0.531-27.96 2.009-41.851 2.331-12.941 0.497-27.677 0.458-40.794-0.026-2.997-0.704-6.841-0.105-9.732 0.423-2.047 1.59-3.491 1.941-5.396 0.632-3.528-0.103-7.155 0.602-10.646 0.988-0.457 1.549-1.232 1.69-2.327-0.052-1.448-0.13-2.858-0.182-4.267 0.494-1.835 1.692-2.22 2.607-3.809 1.905-3.313 3.032-6.345 5.571-9.202 5.042-5.712 7.899-12.445 12.658-18.686 4.692-6.136 9.625-11.251 15.089-16.573 4.971-4.83 7.334-11.423 10.472-17.591 7.545-14.739 17.595-27.856 24.824-42.983 2.361-5.008 4.408-13.643 8.075-17.767 1.464-1.681 2.713-2.424 3.611-2.324zM549.66 141.328c2.612 2.149 5.182 8.321 6.664 11.316 2.962 5.89 4.479 12.414 7.017 18.371 1.132 2.718 3.42 4.693 4.621 7.125 1.76 3.667 2.187 7.825 3.491 11.599 0.845 2.466 1.695 4.898 2.469 7.368 1.903 5.854 4.442 7.403 8.105 12.336 4.939 6.63 4.585 15.622 10.474 21.652 4.055 4.16 8.568 6.805 11.846 11.918 4.902 7.686 5.888 16.818 5.888 25.634 0.025 15.266 2.047 29.091 2.047 44.285v74.079c0 5.18-0.601 10.751-0.105 15.9 0.389 4.163 1.973 7.759 2.185 12.028 0.389 8.11-1.552 16.288 1.902 23.942 1.164 2.575 2.611 5.076 3.845 7.613 1.903 3.914 3.385 7.512 5.783 11.211 3.806 5.923 6.277 12.236 10.612 17.702 1.802 2.257 2.432 5.57 4.406 7.615 2.962 3.102 5.678 3.42 7.3 8.112 0.457 1.269 0.104 2.784 0.739 4.021 0.292 0.563 2.611 1.552 3.207 2.324 2.082 2.821 2.47 6.664 3.914 9.767 2.116 4.619 6.914 7.193 9.872 11.496 7.018 10.26 16.607 18.897 22.918 29.228 3.914 6.344 9.452 11.071 14.176 16.607 3.843 4.55 9.062 9.52 12.128 14.667 5.993 10.084 16.854 17.563 24.014 27.082 7.437 9.908 28.136 19.92 20.8 34.481l-0.014-0.004c-3.736 7.402-7.722 15.477-12.163 22.494-3.173 5.080-4.938 8.957-6.525 14.67-1.62 5.958-5.535 11.455-8.072 17.064-2.151 4.759-4.266 10.788-7.442 14.774-2.008 2.502-3.419 2.397-4.76 5.464-0.741 1.725-0.703 3.417-1.658 5.289-2.29 4.514-5.993 8.534-9.132 12.694-2.008 2.646-2.751 5.535-4.55 8.249-1.976 2.859-5.042 5.396-7.23 8.042-4.759 5.817-7.581 12.056-11.496 18.546-4.935 8.146-11.455 14.49-17.064 22.035-12.024 16.148-24.821 31.839-36.95 48.13-7.405 9.872-15.478 19.463-23.34 28.946-2.116 2.541-5.115 7.158-8.497 8.958-1.868 0.262-4.339 0.456-6.945 0.388-5.996-0.157-5.505 1.093-9.559 5.606-5.745 6.417-13.502 6.064-9.166-3.594 2.997-6.597 5.535-11.988 6.525-19.077 0.988-6.769 1.411-14.84 4.655-20.765 4.722-8.567 13.963-14.068 19.568-21.969 2.329-3.278 3.665-7.26 6.525-10.259 2.786-2.855 3.528-2.575 6.064-6.842 1.868-3.067 3.454-6.838 5.713-9.624 3.139-3.949 6.311-5.569 9.029-10.154 4.019-6.737 8.566-15.552 13.608-21.508 7.297-8.533 11.529-20.379 17.454-29.3 5.251-7.934 9.275-16.784 14.774-24.859 5.003-7.368 8.638-14.597 11.454-22.952 2.646-7.793 8.748-14.284 12.943-21.3 3.843-6.449 8.816-15.37 7.407-23.269-1.027-5.639-5.112-5.992-8.675-9.59-3.386-3.455-6.591-6.841-10.119-10.082-3.313-2.999-5.008-6.842-8.007-10.084-3.313-3.528-7.188-6.453-10.397-9.732-5.22-5.36-8.748-12.66-14.315-17.984-3.598-3.418-4.476-6.698-7.052-10.753-1.372-2.222-3.067-4.088-4.406-6.84-1.972-3.95-4.549-7.018-6.205-11.145-1.695-4.086-2.861-8.604-5.47-12.231-11.139-15.654-24.187-29.792-37.904-43.122-6.309-6.168-12.34-14.633-17.593-21.72-4.867-6.591-9.907-16.22-16.287-21.333-3.635-2.891-7.726-3.244-10.969-6.842-2.222-2.501-3.702-5.64-6.488-7.722-1.76-1.306-6.167-1.517-7.26-2.784-1.304-1.482-0.262-5.745-0.742-7.685-2.751-10.752-1.587-22.847-1.587-34.166v-22.318c0-2.997 0.156-6.064 0.024-9.063-0.157-3.244-1.339-3.805-1.868-6.381-2.29-11.319-0.156-25.283-0.156-36.95v-18.161c0-7.686 1.905-14.77 2.080-22.28 0.080-2.997-0.233-5.997-0.051-8.958 0.129-3.139 1.412-3.77 1.868-6.205 0.952-5.111-0.989-10.935 0.051-16.044 0.563-2.646 1.831-4.054 2.151-6.908 0.292-2.681-0.156-5.042 0.39-7.69 0.492-2.151 1.619-3.522 1.587-6.484-0.052-3.313 0-6.666 0-9.979 0-10.825 1.27-21.366 1.904-32.152 0.812-13.82 5.111-27.997 4.019-41.961zM738.505 285.639c1.89 0.015 3.784 0.037 5.678 0.037 4.935 0 9.697-0.208 14.525 0.779 12.099 2.503 23.589 6.769 35.087 11.353 6.063 2.434 12.017 4.407 18.366 6.032 5.85 1.514 11.53 3.314 16.64 6.521 5.007 3.106 10.263 5.082 15.022 8.605 5.042 3.704 10.686 5.714 16.222 8.607 9.908 5.18 19.534 10.412 30.922 10.541-22.18 0-44.392-0.296-66.57 0-7.439 0.073-14.948-1.482-22.282-2.539-6.208-0.881-12.234-2.668-18.511-2.539-14.243 0.32-28.171-5.043-42.486-5.043-7.65 0-15.164 1.060-22.708 2.294-4.195 0.705-8.391 1.23-12.621 1.761-3.916 0.459-7.722 1.651-11.636 1.977-6.312 0.552-12.444-0.001-18.722 0.844-3.772 0.477-7.582-0.031-11.353 0.427-2.61 0.314-5.115 1.164-7.69 1.622-2.361 0.399-4.722-0.071-7.084 0.424-2.436 0.456-4.128 0.81-6.666 0.81-0.424 0-2.961 0.352-3.453 0.026-1.341-0.812-0.598-0.811-0.952-2.185-0.754-2.889-0.001-6.875 0.024-9.874 0-4.792 0-9.518-0.563-14.313-0.814-6.84-3.543-13.221-3.491-20.063l0.010 0.030c8.32-0.999 16.534 0.175 23.727-1.234 8.075-1.585 15.303-3.87 23.694-3.843 7.3 0.053 14.597 0.026 21.93 0.026 5.888 0 12.164 0.646 18.017-0.234 5.608-0.874 11.252-0.892 16.922-0.848zM374.772 286.669c5.464-0.037 11.035 1.232 16.395 2.288 1.536 0.315 8.026 1.359 9.166 2.751 0-0.003 0.002-0.004 0.002-0.006l0.032 0.040c-0.008-0.011-0.025-0.022-0.035-0.035-0.284 2.064-0.554 2.12-0.847 2.147-0.933 1.976-0.159 6.274-0.159 8.463v13.891c0 4.722 1.183 10.998-0.157 15.652-1.13 3.736-3.984 1.657-6.769 0.915-2.505-0.667-5.077-0.881-7.545-1.656-3.561-1.166-6.841-2.999-10.259-4.445-10.335-4.371-22.147-2.699-33.146-2.751-10.685-0.035-21.439 0.142-31.696 3.247-4.689 1.409-9.416 2.5-14.103 3.841-3.21 0.95-6.42 2.361-9.734 2.856-5.499 0.848-12.9 0.848-18.369 0-5.71-0.915-10.751-3.49-16.287-4.655-5.712-1.197-11.002-3.242-16.714-4.511-7.931-1.762-14.808-2.811-23.094-2.784-3.666 0.025-7.473 0.431-11.109-0.026-3.139-0.354-6.135-1.409-9.132-2.436-6.52-2.219-12.025-5.957-18.087-9.132-8.081-4.234-18.001-6.518-27.076-7.347-2.951 0.597-8.945 2.213-10.404-0.202 3.386 0.181 6.769-0.106 10.19 0.18 0.070 0.007 0.143 0.016 0.214 0.022 0.398-0.081 0.752-0.144 1.020-0.175 6.488-0.599 12.939-0.988 19.321-1.868 5.396-0.778 10.684-2.213 16.183-2.187 7.263 0.052 14.524-0.234 21.79 0 6.030 0.176 12.34 1.341 18.297 2.256 3.879 0.602 7.371 1.909 11.145 2.892 3.88 1.027 7.935 1.027 11.882 1.446 6.767 0.773 13.926 0.89 20.765 0.563 5.959-0.316 13.643-0.808 19.075-3.171 2.608-1.128 5.148-2.609 7.65-3.986 2.715-1.444 5.253-1.693 8.252-2.29 4.934-0.915 9.977-1.867 14.95-2.467 7.506-0.88 15.478 0.037 22.811-1.973 3.175-0.847 4.901-3.384 7.685-4.338 3.102-1.035 6.593-0.983 9.944-0.983 5.961 0.025 11.954 0.025 17.951-0.026zM393.316 369.348l0.012 0.030c2.455 3.699 1.362 4.547 0.026 5.041-0.014 0.006-0.024 0.007-0.038 0.012v19.065c0 4.23-0.026 8.462 0 12.691 0 2.505 0.025 5.009-1.232 7.265-1.341 2.397-4.337 4.055-6.42 5.781-3.383 2.892-7.897 4.23-11.529 6.773-2.397 1.695-5.185 3.456-7.437 5.325-2.962 2.436-5.29 5.639-8.18 8.144-2.294 1.972-5.748 4.723-8.497 5.921-2.081 0.915-4.405 0.563-6.664 0.563-5.003-0.026-10.010 0-14.982 0-12.59 0-25.173-0.105-37.728 0-5.255 0.026-8.957-1.197-13.786-2.819-4.019-1.341-8.462-2.505-12.060-4.728-4.511-2.751-8.463-2.925-13.608-3.77-3.175-0.531-6.206-1.478-9.483-1.727-5.289-0.352-10.403-0.326-15.692-1.057-7.969-1.164-15.937-2.505-23.869-3.774-3.528-0.563-6.803-2.009-10.331-2.574-3.701-0.597-6.805-0.915-10.192-2.502-5.287-2.434-11.071-3.982-16.607-5.783-4.16-1.374-10.614-2.962-12.52-7.368 5.396-1.302 12.45-0.157 17.916-0.157h21.118c15.903 0 31.804-0.026 47.706-0.026 10.788 0.026 21.754-0.427 32.049-3.988 5.993-2.077 12.234-3.066 18.229-5.075 5.184-1.727 10.612-3.102 15.867-4.548 5.392-1.517 11.354-1.868 16.924-2.784 6.346-1.023 12.729-0.743 19.146-0.743 3.558 0.026 6.38 0.391 9.519-1.236 3.102-1.62 5.817-3.983 9.029-5.253 3.806-1.517 7.333-3.528 11.211-4.866 3.455-1.235 6.875-2.009 10.366-3.171 0.845-0.292 1.902-0.261 2.676-0.525 1.478-0.496 1.941-1.448 3.74-1.868 2.173-0.492 3.2-0.427 5.323-1.188v-5.083zM676.96 382.277c6.351-0.076 12.654 0.357 18.803 1.402 4.443 0.772 8.673 2.151 13.153 2.856 5.925 0.953 11.283 3.738 17.173 4.758 5.605 0.953 11.213 2.61 16.888 3.247 6.806 0.739 12.553 2.782 18.97 4.865 3.244 1.021 6.488 1.057 9.769 1.763 2.853 0.636 5.71 1.586 8.462 2.466 3.806 1.199 7.225 2.292 10.646 4.34 4.019 2.43 6.521 5.814 10.012 8.882 2.541 2.257 5.466 4.091 8.11 6.24 3.74 3.031 8.432 5.007 13.048 6.238 5.394 1.482 10.44 3.459 15.975 4.516 4.759 0.917 9.767 1.406 14.35 2.997 1.549 0.563 5.322 1.162 5.674 2.819-3.598 1.128-8.392 2.128-12.163 2.257-2.751 0.107-4.266 1.377-6.981 2.009-3.315 0.832-6.806 0.99-10.261 0.99-2.54 0-5.145 0.156-7.72 0.026-3.106-0.178-6.065-0.988-9.204-1.092-4.832-0.131-9.627 0.405-14.422-0.157-5.183-0.602-10.367-0.991-15.549-1.555-3.874-0.457-7.652-0.351-11.565-0.952-6.309-1.013-12.513-1.357-18.896-1.305-8.426 0.026-16.889 0-25.283 0-4.476 0-9.030-0.304-13.503 0.261-3.001 0.352-5.716 0.804-8.748 0.777-8.992-0.052-17.981 0.129-26.973 0-2.681-0.037-5.005-0.9-7.652-1.058-3.91-0.247-7.577-0.283-11.456-1.197-3.386-0.814-6.774-1.871-10.192-2.574-1.728-0.352-2.644-0.285-3.946-1.482-2.505-2.397-1.979-5.043-1.45-8.073 0.408-2.185 0.071-4.339 0.46-6.559 0.352-2.076 1.128-4.158 1.517-6.24 0.983-5.323 1.971-10.889 2.324-16.25 0.283-3.916-0.563-7.232-1.057-11.006l0.002-0.021c10.376-2.512 21.099-4.057 31.685-4.184zM338.876 483.269c0 5.604-1.981 9.448-4.621 14.491-2.081 3.982-3.81 8.215-5.606 12.233-1.306 2.859-3.068 5.535-4.374 8.427-0.952 2.151-2.645 6.31-4.584 7.722-0.99 0.741-2.15 0.491-3.456 0.457-4.619-0.025-9.274 0.262-13.893 0.081-6.84-0.296-15.126-0.705-21.545-3.459-9.167-3.982-17.664-10.084-27.851-11.563-11.284-1.62-22.847-2.361-34.234-3.102-4.582-0.296-9.238-0.052-13.821-0.052-3.21 0-6.419 0.001-9.592 0.026-2.189 0.025-5.464 0.496-7.3-1.020 1.236-3.491 11.671-3.878 13.998-4.055 8.746-0.704 16.856-4.16 25.317-6.137 3.244-0.742 6.522-0.951 9.804-1.478 4.125-0.667 8.037-2.078 12.056-3.279 8.006-2.361 17.137-3.417 25.459-4.267 6.981-0.742 13.961-1.020 20.906-1.973 5.996-0.812 11.989-0.742 17.914-1.761 4.23-0.705 8.039-1.27 12.341-1.27 4.511 0.026 8.639 0.667 13.080 0l0.002-0.021zM672.552 483.49c1.049 0.061 2.679 0.757 3.93 1.076 4.125 0.988 8.57 0.921 12.728 1.692 4.23 0.81 8.213 2.433 12.48 2.997 10.083 1.306 20.309 1.939 30.321 4.126 11.145 2.397 22.707 2.891 33.251 7.758 11.102 5.11 22.636 8.072 34.481 11.139 5.89 1.515 11.671 3.42 17.561 4.899 2.009 0.496 4.512 0.603 6.137 2.154-0.848 0.905-2.152 0.937-3.351 1.23-2.434 0.569-4.868 1.236-7.3 1.799-3.034 0.705-6.098 1.065-8.992 2.189-3.594 1.412-6.592 3.28-10.364 4.126-3.423 0.754-6.525 0.987-10.016 0.987-2.999-0.026-6.169 0.322-9.132 0.026-3.916-0.352-7.405-1.081-11.424-1.057-10.578 0.080-21.154 0.025-31.734 0-4.335 0-8.037 0.386-12.231 0.915-1.414 0.157-3.668 0.482-5.081 0.156-3.77-0.881-5.424-7.65-6.555-10.612-2.786-7.297-8.392-11.422-14.598-15.69-2.152-1.482-4.445-2.327-6.63-3.633-1.154-0.713-2.018-1.876-3.312-2.338-0.053-0.014-0.084-0.018-0.14-0.032l-0.004-0.024c0.050 0.015 0.095 0.039 0.143 0.056 4.668 1.222 3.183-0.568 0.88-1.264-4.335-1.341-9.484-5.819-11.492-9.944-1.075-2.221-0.607-2.794 0.442-2.732zM517.516 535.631c2.008-0.025 5.64 6.312 6.137 8.213 0.632 2.363-0.129 5.255 0.353 7.69 0.129 0.704 1.447 1.305 1.692 2.362 0.459 2.008-0.667 4.298-0.184 6.276 0.352 1.583 1.479 2.292 2.114 3.772l-0.014-0.004c4.266 9.839 5.889 20.202 10.581 29.828 1.725 3.562 2.398 7.298 3.911 10.684 1.059 2.325 3.102 3.914 4.198 6.349 2.29 5.111 2.151 11.068 5.394 15.83 1.972 2.926 4.37 4.475 6.1 7.827 2.47 4.722 4.721 9.379 7.615 13.893 3.139 4.935 7.826 8.917 8.605 14.455 0.88 6.277-4.371 12.589-6.593 18.156-3.173 7.969-4.866 16.22-8.11 24.117-3.703 8.957-5.675 19.321-9.944 28.311-1.446 3.070-3.173 4.406-4.194 7.934-1.199 4.266-1.907 8.25-3.491 12.413-1.236 3.139-1.165 9.24-4.091 11.214 0.025-0.845 0.052-1.695 0.052-2.537-1.8 3.491-4.688 9.204-7.578 15.408-3.102 6.63-5.323 14.349-13.048 6.488-2.859-2.894-3.702-5.323-5.958-8.607-2.047-2.959-4.901-3.384-7.23-5.854-1.8-1.936-2.678-5.638-4.406-7.788-3.947-4.867-8.602-6.24-11.702-12.023-3.774-7.053-7.477-12.446-12.589-18.477-3.843-4.55-3.665-9.378-5.748-14.738-2.221-5.781-6.734-9.060-9.977-14.14-3.95-6.168-6.17-13.469-9.977-19.778-2.537-4.195-5.854-5.29-6.561-9.909-0.531-3.74 0.262-6.803 1.591-10.19 3.173-8.146 6.805-16.114 10.010-24.084 3.456-8.603 8.078-16.043 12.131-24.224 3.666-7.437 7.333-14.666 11.139-21.718 2.502-4.653 6.205-8.496 8.922-13.009 7.473-12.445 18.405-22.918 24.891-35.931 1.164-2.361 2.361-8.177 5.958-8.213z"></path>
    </svg>