<svg xmlns="http://www.w3.org/2000/svg" viewBox="31.794 32.521 953.272 959.453">
    <path fill="#000000" d="M592.504 920.532c-0.010-0.010-0.014-0.017-0.020-0.026-0.083 0.051-0.078 0.067 0.020 0.026z"></path>
    <path fill="#000000" d="M655.015 892.641c-0.018 0-0.060 0.019-0.157 0.109 0.067-0.050 0.094-0.062 0.157-0.109z"></path>
    <path fill="#000000" d="M787.961 755.723c0.574-0.389 1.32-0.982 2.423-1.837-0.815 0.592-1.619 1.217-2.423 1.837z"></path>
    <path fill="#000000" d="M459.776 32.528c-1.61 0.887-3.12 1.718-4.647 2.528-1.028 0.424-2.040 0.884-2.938 1.351-1.842 0.726-3.565 1.545-5.234 2.231-3.338 1.33-6.35 2.488-8.703 3.641l5.291-3.641c-3.209 2.184-5.934 3.632-8.76 5.176l3.996-0.294c-3.467 1.54-6.224 2.993-6.525 2.353-2.862 2.826 3.907 1.034-2.177 5.998-2.394 0.853-5.629 2.879-8.584 4.588-1.496 0.814-2.971 1.482-4.172 2-0.641 0.193-1.117 0.425-1.589 0.469-0.288 0-0.493-0.103-0.703-0.352 0.193-0.030 1.162-0.52 1.765-0.822 0.685-0.363 1.253-0.729 1.765-0.939 0.9-0.512 1.423-0.862 1.765-1.117 0.56-0.56 0.187-0.727-0.295-0.763-0.791-0.187-1.816-0.393 1.293-2.441-1.747 1.019-3.761 2.062-6.173 3.148-0.601 0.030 0.273-0.739 1.115-1.29-0.943 0.36-2.373 0.964-2.586 0.997-0.129-0.030-0.142-0.030-0.236 0-0.129-0.030-0.175 0.026-0.175 0.058-0.288 0.065-1.182 0.193-1.529 0.352-0.984 0.288-1.614 0.675-2.469 1.058-1.669 0.77-4.023 1.636-10.703 1.765 1.333-0.846-0.793-1.355-3.116-1.648 1.486 0.596-1.425 1.937-5.762 2.704-10.058-0.682-10.902 0.939-16.168 0.939l5.995 0.294c-0.937 0.604-2.668 0.959-4.94 1.174-2.358 0.159-5.38 0.298-8.938 0.529-0.258 0.065-0.637 0.159-0.939 0.352-0.223-0.159 0.136-0.48 0.822-0.822-2.612 0.984-3.881 1.366-5.939 1.882-1.971 0.322-4.031 0.69-6.173 1.117-4.196 0.77-8.655 1.766-12.936 3.821-5.054 0.77-1.116-2.029-5.527-1.174-4.28 2.056-7.279 2.856-9.933 3.409-1.324 0.288-2.512 0.461-3.879 0.761-0.689 0.129-1.348 0.322-2.119 0.471-0.4 0.129-0.793 0.162-1.176 0.292-0.726 0.193-1.39 0.446-2.116 0.644-0.689 0.424-1.406 0.868-2.177 1.29-0.431 0.223-0.942 0.585-1.41 0.882-0.989 0.641-2.003 1.435-3.116 2.292 3.982-0.56 4.303-1.201-2.589 4.88l10.348-7.114 9.407-3.641-4.172 2.292c-1.588 0.77-2.335 1.281-4.822 2.353-1.882 1.411-2.531 2.188-3.641 3.174 1.286-0.814 2.657-1.732 3.937-2.589 1.374-0.512 2.711-1.058 3.996-1.529 1.202-0.472 2.262-0.968 3.291-1.351 2.141-0.9 4.070-1.552 5.527-1.941-5.739 3.299-5.3 2.712-2 3.057-1.798 0.030-3.49 0.357-5.115 0.763-0.814 0.193-1.7 0.52-2.469 0.822l-2.882 1.115c-2.265 1.669-4.536 3.317-6.936 5.115-2.265 1.628-4.715 3.136-7.587 4.291l-1.823-3.526c-10.105 4.625-17.637 11.334-26.929 17.757-2.999 1.628-7.59 3.846-12.171 5.644l6.056-2c-1.752 2.525-10.986 5.254-16.462 8.467-0.030-1.453-3.816-0.197-6.642 0.061 0.641 0.81-12.954 5.855-13.643 9.111l-2.353 0.705-2.116 1.529-1.589 0.997-3.057 1.942c-11.946 10.404-10.394 15.254-21.692 25.398 2.31-4.193-3.357-0.073 3.233-7.879-3.635 3.51-7.065 6.444-6.466 7.171-0.596 0.288-1.439 1.043-2.292 1.942-0.943 1.068-2.096 2.407-3.291 3.821-1.072 1.971-2.283 4.145-3.352 6.115-1.028 1.709-2.018 3.215-2.999 4.114-0.726 2.1 0.081 3.448-3.057 8.114-0.393 0.263-0.536 0.030-0.595-0.161-0.082 1.206-3.859 7.498-0.163 4.399-2.697 2.394-5.343 5.575-7.997 9.172-1.33 1.709-2.597 3.619-3.879 5.585-1.202 1.798-2.383 3.628-3.587 5.47-2.056 1.839-4.176 3.747-6.232 5.585-2.184 1.842-4.351 3.729-6.408 5.527-4.199 3.467-8.249 6.328-11.759 7.998-4.495 4.193-9.384 8.793-13.879 12.99-2.184 6.207-4.209 11.892-5.879 16.817-0.159-0.77-0.598-0.279 0.175-2-5.953 12.585 0.665 9.294-6.056 23.637-4.84 6.806 1.716-8.23-0.763-3.823-1.411 0.159-2.421 1.626-3.409 3.937-0.468 1.157-0.953 2.546-1.47 3.998-0.363 1.33-1.074 3.469-1.115 3.937-0.129 0.36-0.892 1.531-1.706 2.647l-2.292 3.409c-1.588 2.137-3.336 4.088-5.176 5.585l1.351-2.231c-6.036 5.607-10.444 16.964-18.579 27.456 0 0-0.039-0.77-0.586-0.471-0.193 0.689-0.707 1.829-1.648 3.411-0.472 2.525-1.049 5.413-1.648 8.584-0.596 2.862-1.291 5.926-2.060 9.053-1.54 6.25-3.262 12.751-4.763 18.402-0.428-4.283 0.869-5.771-1.529-4.057-1.54 5.56 3.149-0.698 0.115 10.348-0.9 1.459-1.83 3.218-3.116 5.704-1.157 3.425-2.266 6.085-3.468 6.642l0.999-7.23 1.349-4.114c-0.4 0.512-0.889 0.929-1.232 1.529-0.322 0.512-0.59 1.195-1.058 2.353-0.129 0.814-0.289 1.555-0.469 2.411l-0.352 2.058c-0.129 1.367-0.112 2.748-0.175 4.115-0.129 2.742-0.265 5.401-0.822 7.585l-0.941-0.939c-2.056 15.972 0.388 17.213-2.116 33.394-0.030 0.193-0.172 0.523-0.236 0.822 0.193-0.322 0.434-0.553 0.644-0.763 0.159-0.159 0.349-0.277 0.529-0.586 0.030 0.4 0.026 0.532 0.058 0.703 0 8.819-3.438 6.899-3.823 16.401l-3.351 2.177c-0.984 6.293-2.683 22.441-5.47 33.57 0.129-6.68 2.131-20.049 3.118-28.395-1.055 4.080-2.1 10.404-3.118 16.285 0.4 8.181-1.856 18.101-5.41 30.218-1.411-1.157-3.12 1.773-4.88 6.527-0.9 2.358-1.781 5.237-2.765 8.231-1.072 3.385-2.163 6.937-3.233 10.404 0.159 1.238 0.391 2.508 0.588 3.701 0.065 0.858 0.162 1.654 0.292 2.472 0.159 1.54 0.421 3.128 0.529 4.586 0.159 2.826 0.089 5.165-0.294 6.878 1.453 5.307 2.618 10.728 3.643 16.168 0.472 2.742 0.954 5.504 1.468 8.29 0.431 2.955 0.884 5.839 1.351 8.877 1.842 5.734 3.717 11.604 5.644 17.639 1.927 5.86 3.98 11.901 6.29 18.108 0.685-10.061 2.676 7.091 6.056 4.174 0.989 2.567 1.643 4.331 2.119 5.527 0.129 0.9 0.271 2.128 0.175 2.292v0.058l0.41 18.579c-0.512 4.495-1.836-5.607-2.647-4.88 1.798 13.146-0.825 5.779-0.527 14.64 1.202-2.009 2.784 4.238 3.468 11.818l0.234-10.82c2.439 8.646 2.258 12.23 2.177 16.815 0.322 5.093 0.16 8.748 3.762 18.168l-2.706-5.412c1.238 3.596 2.848 9.679 4.647 16.226 0.984 3.295 1.941 6.699 2.882 9.994 0.56 1.588 1.117 3.222 1.589 4.766 0.641 1.714 1.249 3.337 1.765 4.88 0.733 1.588 0.907 1.816 1.29 2.586 0.431 0.641 0.777 1.209 1.117 1.765 0.726 1.157 1.552 2.171 2.231 2.94 0.159 1.752-0.058 4.221-1.941 0.41 2.358 6.208 5.159 12.756 8.114 19.225 3.084 6.68 6.217 13.394 9.172 19.816 1.669 2.31 3.293 4.5 4.88 6.642 1.367 1.962 2.711 3.875 3.996 5.764 2.569 3.761 4.772 7.333 6.527 10.761l-1.765-0.941c2.612 3.425 5.753 5.178 7.938 10.228-0.56 0-1.894-0.906-0.822 0.763 0.512 0.596 1.628 1.855 2.999 3.352 0.641 0.77 1.288 1.548 2.058 2.411 0.77 0.984 1.317 1.528 2.647 3.409 0.943 0.858 1.922 1.83 2.821 2.647 0.726 0.726 1.338 1.369 1.942 2.058l-4.291-2.586c15.327 16.57 26.675 21.977 40.806 34.392-2.1 2.142 10.028 14.835 16.108 21.167l-0.529 0.058c4.625 4.408 9.005 8.327 13.286 12.052 4.108 3.892 8.118 7.539 12.054 11.054 4.027 3.551 7.884 7.031 11.993 10.586 1.968 1.842 4.001 3.641 6.056 5.527 1.072 0.943 2.106 1.895 3.174 2.882 1.197 1.109 2.447 2.251 3.641 3.409 0.472 0.223 0.972 0.6 1.531 0.939 3.551 3.681 9.303 8.262 16.108 13.227 3.467 2.439 7.105 5.050 10.876 7.704 4.154 2.911 8.494 5.865 12.817 8.821 4.968 1.374 9.962 2.792 14.758 4.114 4.28 1.286 8.418 2.597 12.229 3.879-3.428-1.453 1.154-2.121 5.351-1.351 5.35 2.009 15.635 1.911 14.053 4.35l-1.882-0.588c0.512 0.56 1.275 1.134 2.175 1.65 0.4 0.223 0.839 0.508 1.351 0.761 0.641 0.193 0.319 0.141 0.529 0.353-0.223 0.030 1.524 1.155 2.763 1.882 1.374 0.814 2.728 1.652 4.174 2.469 2.915 1.588 5.96 3.266 8.702 4.763l2.999-2.411c3.165 2.782 6.939 5.426 11.054 7.997 2.016 1.286 4.090 2.623 6.231 3.823 2.394 1.33 4.792 2.556 7.232 3.879l7.405 2.469c2.226 0.685 4.462 1.311 6.644 2 4.408 1.367 8.804 2.682 12.696 3.879 7.88 2.531 14.305 5.11 17.815 7.938 0.9 0.159 1.116 0.182 2.999 0.644 2.697 0.363 5.672 0.714 8.584 1.057 2.785 0.288 5.514 0.673 7.997 0.763l-0.703 1.823c6.121 1.374 11.003 2.474 16.050 3.585 2.531 0.56 5.097 1.094 7.879 1.65 3.128 0.601 6.48 1.288 10.287 2.058 2.184-0.193 6.294-0.672 10.878-1.057l-3.937 1.706c11.047-0.726 13.546-6.592 23.694-7.405l3.235 2.646 8.409-0.527 8.702-0.352 10.761-1.531 10.17-1.589c6.766-1.157 13.442-2.665 19.991-4.763-0.223 0.468-0.727 1.414-3.762 2.058 2.652-0.431 6.817-1.024 11.23-1.706 2.481-0.129 5.008-0.233 7.407-0.352 2.525-0.159 4.966-0.403 6.936-0.703 3.605-0.506 5.884-1.261 5.363-2.353 2.307 1.784 20.249-1.546 29.972-3.526l-1.41 2.116c8.518-3.508 8.701-4.227 20.814-6.408 2.915-0.129 2.736 1.115-1.115 1.115 9.722-0.193 7.23-2.647 19.047-3.116l-4.172 1.765c4.84-0.56 7.089-0.954 8.76-1.468s2.686-1.080 6.115-2.233c0.030-0.030 0.202-0.198 0.352-0.292 0.814-0.596 1.72-1.334 2.704-2.060 0.77-0.512 1.668-0.99 2.53-1.589 1.798-1.117 3.701-2.291 5.585-3.233 3.681-1.883 7.044-3.16 8.114-2.821 0.553-1.626 4.361-5.685 9.582-8.469 1.028 0.129-0.579 1.564-1.349 2.292 3.428-1.842 6.289-3.697 8.819-5.41 1.286-0.943 2.447-1.731 3.641-2.586l1.589-1.234 0.999-0.763c0.512-0.288 2.055-0.87 3.468-1.293 1.374-0.472 2.683-0.983 4.057-1.407 2.697-0.77 5.457-1.39 8.584-1.648 0.4 0.512 1.088 0.628 2.116 0.586-7.533 1.882-14.104 3.646-17.872 4.588-0.77 0.472-1.364 0.832-1.708 0.997-0.279 0.182-0.468 0.28-0.565 0.322 0.412 0.636 2.666-0.171 2.92 0.208 0.472 0.159 0.684 0.347 0.939 0.642 0.129 0.288-0.030 0.839 0 1.351 0 0.095 0.027 0.233 0.058 0.352 0-0.065 0.026-0.233 0.058-0.352 0.553-0.193 1.073-0.449 1.589-0.703 1.202-0.472 2.408-1.030 3.643-1.589 2.486-1.028 5.122-2.119 7.819-3.233 5.355-2.184 10.949-4.14 15.874-5 0.512 0.030 0.99 0.047 1.41 0.175l-0.999 0.412c2.358-0.431 4.524-1.111 6.409-1.884 1.626-0.288 2.966-0.567 4.289-0.822 1.496-0.288 2.031-0.421 5.117-1.174 0.56 0.159 1.831 0.038 3.76-0.353 1.109-1.11 2.517-2.6 4.057-4.348 0.862-1.028 1.761-2.077 2.704-3.233 1.842-2.226 3.851-4.541 5.176-6.173-1.731-0.843 2.768-5.92-2.312-2.168 0.099 0.030-0.999 1.489-2.922 3.811-0.431 0.682-0.98 1.413-1.234 1.884 0-0.129 0.031-0.288 0.063-0.471l-6.936 8.469-5.881 1.589c1.202-0.689 3.611-1.604 5.41-2.294 0.641-0.9 1.311-1.827 2-2.763 0.56-0.73 1.181-1.582 1.825-2.353 1.068-1.374 2.352-2.651 3.937-3.937 0.814-2.908 1.811-6.031 2.411-7.704 6.766-3.851 16.978-13.746 19.461-14.17 1.713-2.272 3.466-4.689 5.349-7.171 2.567-2.184 5.21-4.462 7.821-6.644 2.785-2.439 5.445-4.767 8.056-6.995 5.097-4.667 9.437-9.092 11.876-12.817 3.338-3.209 4.754-2.472 6.466-3.116-1.927 1.962-4.415 3.89-5.232 5.176 6.465-6.72 21.969-16.373 22.224-19.758 10.187-5.825-4.025 5.666 8.819-3.879l-1.293 1.823c3.425-1.798 6.511-3.658 9.465-5.585 1.459-1.028 2.881-2.001 4.291-2.94 1.752-1.286 3.507-2.537 5.176-3.821l2.116-3.937 1.351-2.704 2.411-5.412c1.588-3.596 3.235-7.179 4.822-10.82 3.209-7.153 6.994-15.059 11.407-22.165 2.53-2.355 6.016-5.379 9.689-8.215-0.428 0.291-0.771 0.479-1.044 0.515 4.667-4.108 9.216-8.431 13.758-12.756l6.7-6.7 7.114-6.995c9.335-14.94 17.163-28.151 26.751-42.92l2.823-8.702 2.823-8.114c1.927-5.437 3.977-10.711 6.115-15.933 3.128-8.178 3.066-10.76 3.409-15.169 0-1.157 0.115-2.485 0.115-4.114l2.472-1.942 0.234-11.876c2.009-16.523 11.039-26.869 12.875-47.977l-1.942 2.353c2.009-7.278 4.818-23.44 6.056-21.811-0.030-0.858-0.838-2.668 0.529-5.41h1.174l0.352-2.706 0.644-3.641-1.41-3.937v0.175l-1.115-3.057-2.413-6.173c-2.999-14.001 4.752 1.123-0.469-19.166-2.486-7.406-8.847-20.579-8.763-17.58 0.769 3.036 1.461 7.907 0.471 8.467l-2.353-6.7c-0.193-0.030-0.491-0.053-0.703-0.117l-0.352-1.115 9.994-49.093-8.821-32.926 0.763 0.644-1.174-2.231-2.823-10.464c0.424 0.193 1.076 1.062 1.765 3.116-0.223-3.084-0.683-4.612-1.234-6.115-1.242-2.137-2.216-2.831-3.116-7.114-0.129-0.814 0.185-0.591 0.588 0l-3.998-6.642c1.157 1.109 1.294-2.023 2.882 2.469-4.283-13.271-11.325-19.383-11.583-24.988l0.705 0.941c-6.68-12.715-4.769-6.704-6.997-8.29l-0.117-0.352-1.174-8.35 2.647-7.113-2.294-1.648c-0.193-1.927-0.503-5.836 0.412-5.234-2.351-7.106-0.764 1.36-2.647-2.704 0.468-7.449-2.048-18.076-2.177-24.752-1.068-1.882-1.718-3.436-1.29-4.289-3.425-1.927 4.659 8.364-2.53 0.527 1.109-4.495-7.465-9.105-11.405-17.111 3.084 1.068 7.185 8.314 3.291 0.352-5.609-2.394-9.508-14.057-14.346-19.58-2.272 1.197-10.217-12.366-18.051-21.87 1.157 0.129-12.525-19.586-18.049-29.691l0.469 0.058c-3.295-0.428-9.565-10.434-14.875-17.284 1.411-0.553 2.832 0.385 5.998 3.879l-4.527-6.761c-1.752-1.109-3.472-3.017-6.644-7.171l2.704 0.703-2.411-3.233-3.291-2.763-2.882-2.353c-1.927-1.54-4.001-3.192-6.056-4.822-4.108-3.381-8.325-7.017-12.522-11.641-1.197 0.56 1.432 5.347-0.352 5.644l-5.468-5.115c0.596-0.223 1.529-0.074 3.116 1.057-1.028-0.77-3.882-2.397-5.47-4.408l5.412 2.823c-4.194-4.792-3.358-1.267-6.997-4.822 1.028-0.9-2.009-3.224-0.763-3.526 1.028 0.77 2.848 3.352 4.647 4.291-2.009-1.968-4.625-4.664-5.82-6.29-0.858-1.713-2.124-4.226-2.292-5.291-0.36 0.9-1.466 1.197-4.115-2.060-6.55-8.559-0.963-3.97-4.172-9.407-2.31-1.496-5.697-7.553-7.405-6.525-1.887-2.525-1.527-3.498-1.825-4.822-1.113-1.072-2.786-3.122-4.586-5.351-2.137-2.612-4.348-5.464-6.231-7.821-6.55-1.626-8.226-1.684-5.998 0l1.589 0.588c-0.363-0.030-0.732-0.169-1.115-0.234-7.578-1.324-15.101-3.559-22.637-5.998l-11.288-3.762c-3.596-1.202-7.017-2.357-10.525-3.468l-2.997-2.586-3.528-2.823 0.41-0.471c-8.733-6.46-18.591-15.362-25.396-19.342-2.439-2.056-4.949-5.829-3.409-5.527-0.984-0.733-1.874-1.452-2.472-1.882-1.54-0.641-2.811-1.117-4.055-1.589-1.157-0.468-2.254-0.956-3.409-1.47-2.352-1.157-5.056-2.668-9.465-5.41 8.006 2.656-2.132-2.168 8.056 3.057-9.422-5.308-11.154-7.364-22.282-10.878 4.237 0.159-6.137-5.495-11.23-7.466l6.349 4.527c-1.496-0.641-2.917-1.293-4.291-1.941-1.584-0.77-3.146-1.582-4.647-2.353-2.567-0.4-4.966-0.69-7.405-1.117l2.999-1.882c-10.658-2.782-20.597-2.872-29.928-3.174-4.625-0.129-9.097-0.324-13.463-0.88-4.283-0.604-8.331-2.001-12.229-3.879-5.992 0.424 11.548 3.359 6.115 4.172-9.848-2.229-19.569-7.443-22.696-7.997-5.479-1.628-8.714-1.794-11.583-1.706-1.459 0.065-2.729 0.169-4.233 0.234-0.726 0.030-1.597 0.030-2.411 0-0.943-0.030-1.567-0.036-3.233-0.292-1.028 0-2.114 0.058-3.352 0.058-1.072 0-2.27-0.081-3.641-0.175 1.887 0.853 3.641 2.945-7.23 3.584-10.105-0.472-12.42-3.559-5.998-4.114 2.439-0.030 3.616 0.221 3.526 0.529 3.299-0.223 7.549-0.524 3.528-1.47l-1.351 0.822c-5.007-0.943-18.92-1.067-15.58-2.353-7.706 0.689-3.395 1.249 2.294 1.765-8.388-0.937-14.792-0.796-21.343-0.88-3.084-0.193-7.323-0.612-11.818-1.29 2.092 0.641 3.982 1.741 1.882 1.529-19.477-2.785-8.722 0.716-21.989-0.117-7.408-1.882 2.936-2.657-10.464-2.823-8.091-1.588-1.549-2.257 1.708-2.646-1.459 0.030-2.881 0.030-4.291 0l-2.999-0.175c-1.181-0.127-2.331-0.21-3.468-0.353h-0.061v-0.012zM515.748 106.849c1.879 0.003 3.764 0.016 5.648 0.028 2.839 0.025 5.715 0.025 8.588 0 3.601-0.036 6.973 0.329 11.202 1.188 1.157 0.268 2.644 0.317 4.196 0.366 1.982 0.067 4.261 0.132 6.541 0.66 9.947 2.28 16.455 10.936 23.394 20.089l2.28 3.041c1.648 2.181 1.748 5.152 0.196 7.399-2.677 3.903-6.609 4.795-8.988 5.323-1.489 0.33-1.929 0.489-2.049 0.66-1.552 2.312-2.016 7.138-2.411 11.004-0.085 1.093-0.211 2.18-0.331 3.171-0.595 4.859-1.354 9.717-2.147 14.507-0.661 4.13-1.323 8.26-1.884 12.423-0.827 6.212-0.899 12.589-0.922 19.364-0.067 6.049-0.133 12.293-0.794 18.537-0.694 6.874-1.686 15.959-2.975 25.044-1.631 11.466-1.482 22.93-1.386 35.058 0.049 3.007 0.070 6.048 0.070 9.087 0 5.551 0.072 11.101 0.17 16.688 0.144 10.771 0.277 21.907-0.119 32.841-0.132 3.173-0.761 5.717-1.323 7.93-0.298 1.189-0.581 2.377-0.826 3.701-0.023 0.262 0.073 1.089 0.097 1.617 0.121 1.224 0.293 2.711 0.097 4.396-0.33 2.646-1.156 4.329-1.685 5.452-0.3 0.63-0.399 0.822-0.497 1.188-0.025 0.302 0.050 1.189 0.073 1.785 0.147 1.455 0.299 3.306-0.097 5.286-1.157 5.784-4.99 10.642-7.799 13.813-1.388 1.521-2.311 3.701-3.403 6.246-0.528 1.224-1.026 2.446-1.62 3.635-3.633 7.468-5.449 15.494-7.367 23.954-1.057 4.659-2.147 9.483-3.568 14.273-0.53 1.718-0.794 3.668-1.090 5.717-0.334 2.314-0.666 4.692-1.391 7.237-0.563 1.982-1.222 3.831-1.916 5.68-0.927 2.515-1.788 4.86-2.183 7.306-0.726 4.493-2.114 8.69-3.435 12.752-0.823 2.612-1.684 5.224-2.345 7.898-0.265 1.057-0.562 2.114-0.858 3.141-0.528 1.916-0.987 3.703-1.254 5.42-0.144 0.726-0.002 1.915 0.119 3.074 0.196 1.946 0.431 4.194 0 6.605-0.397 2.216-1.222 3.7-1.751 4.691-0.262 0.495-0.36 0.673-0.432 0.892-0.21 0.693-0.257 1.355-0.329 1.983-0.265 1.882-0.595 4.459-2.28 7.3-1.155 1.953-3.239 3.108-5.452 3.108-0.595 0-1.224-0.055-1.818-0.275-2.777-0.823-4.662-3.468-4.493-6.375 0.202-3.737-0.528-7.206-1.321-11.202-0.3-1.491-0.628-3.009-0.894-4.562-2.644-15.332-4.395-28.548-5.353-40.476-0.825-10.509-2.676-21.181-4.493-31.522-2.577-14.804-5.253-30.101-5.155-45.797l0.006 0.008c0.025-5.223-0.049-10.476-0.073-15.697-0.097-7.564-0.196-15.398 0-23.13 0.132-4.228 0.626-8.293 1.123-12.191 0.463-3.569 0.906-6.906 1.026-10.277 0.172-4.362 0.073-8.921-0.024-13.314-0.025-2.741-0.097-5.482-0.097-8.194 0.027-4.721-0.072-9.516-0.17-14.273-0.232-11.168-0.464-22.697 0.527-34 0.366-4.029 1.091-7.929 1.818-11.696 0.893-4.562 1.746-8.888 1.818-13.216 0.049-3.339 0.001-6.646-0.070-9.982-0.025-2.511-0.097-4.99-0.097-7.5v-12.952c0-8.857-0.001-17.712 0.022-26.602 0.032-5.285-0.496-10.541-1.024-16.089-0.627-6.641-1.288-13.48-0.992-20.455 0.33-7.664 1.353-13.845 10.705-18.039 5.32-2.377 10.706-4.505 17.645-4.726 1.867-0.024 3.74-0.031 5.62-0.028zM409.238 112.039c7.473-0.153 14.363 1.859 16.476 7.946 0.266 0.696 0.366 1.39 0.366 2.116v18.768c-0.049 13.778-0.048 27.521 0.024 41.302v1.222c0.034 6.182 0.066 12.589-1.62 19.3-0.496 1.984-1.125 3.898-1.72 5.848-0.862 2.743-1.686 5.353-2.116 7.93l-0.858 5.188c-0.528 3.038-1.023 6.079-1.454 9.12l0.004-0.002c-0.097 0.591-0.124 1.283-0.196 1.979-0.429 4.33-0.96 10.214-5.321 13.916-1.192 1.027-2.646 1.519-4.1 1.519-1.684 0-3.37-0.695-4.625-2.019-4.889-5.253-4.46-12.588-4.164-17.938 0.027-1.192 0.123-2.312 0.099-3.338-0.032-6.279-1.353-12.951-2.607-19.396l-0.66-3.47c-0.362-1.78-0.659-3.695-0.989-5.713-1.091-6.611-2.314-13.976-4.957-19.132-0.595 1.452-1.155 3.004-1.521 3.964-0.629 1.782-1.186 3.335-1.684 4.325-1.387 2.843-4.261 8.762-9.911 10.081-2.975 0.694-6.082-0.099-8.758-2.213-4.294-3.373-6.715-13.821-6.739-13.944-2.241-10.606-2.339-20.32-2.411-30.632-0.034-2.016-0.531-4.66-0.992-7.203-1.157-6.376-2.48-13.576 1.751-18.833 2.413-3.038 6.081-4.718 10.905-4.889 9.285-0.366 17.48-1.951 27.623-4.43 3.242-0.785 6.759-1.302 10.156-1.372zM633.735 130.904c6.493 0.091 12.886 1.339 17.843 3.272 4.030 1.586 7.862 3.070 12.257 6.637l1.125 0.858c2.248 1.787 4.562 3.635 6.775 6.478 0.595 0.788 1.122 1.616 1.585 2.409 0.075 0.085 0.124 0.232 0.196 0.331 0.629 0.26 1.224 0.66 1.72 1.153 0.761 0.694 2.778 2.577 5.487 10.541 1.422 4.13 1.672 8.291 1.916 11.993 0.164 2.246 0.296 4.395 0.66 6.345 2.28 11.862 2.447 22.666 0.529 32.052-0.923 4.625-1.686 9.185-2.446 13.713-0.991 5.749-1.982 11.7-3.336 17.712-0.593 2.611-1.057 5.319-1.552 8.027-1.586 8.823-3.205 17.943-8.392 26.105-0.661 1.057-1.488 2.079-2.315 3.106-0.862 1.057-1.785 2.249-2.052 2.975-0.496 1.717-0.761 5.35-0.957 7.993-0.134 1.818-0.236 3.502-0.432 4.79-0.53 3.832-1.090 7.666-1.652 11.466-2.346 16.024-4.56 31.191-4.56 47.051 0 3.4 0.050 6.839 0.073 10.243 0.166 14.011 0.364 28.549-2.478 42.922-0.993 4.921-2.743 9.351-4.396 13.613-1.355 3.403-2.608 6.608-3.435 9.913-0.993 3.932-2.216 7.83-3.405 11.696-1.454 4.659-2.84 9.051-3.799 13.544l-0.17 0.725c-1.519 7.039-2.94 13.65-3.766 20.486-0.198 1.519-0.397 3.034-0.593 4.56-0.263 1.78-0.499 3.535-0.695 5.253 0.233 4.23 0.299 8.724-0.725 12.787-0.265 1.291-0.728 2.644-1.489 3.998-1.121 2.116-3.304 3.304-5.517 3.304-0.991 0-1.95-0.23-2.873-0.693-3.086-1.554-4.296-5.255-2.841-8.362 0.119-0.298 0.266-0.624 0.364-1.024 0.096-0.627 0.070-1.52 0.070-2.511-0.023-0.763-0.022-1.552-0.022-2.348 0.067-1.85 0.194-3.699 0.364-5.484-0.049-0.459-0.050-0.921-0.073-1.386-0.147-2.014-0.245-3.964-0.245-5.648 0-4.294 0.024-8.556 0.121-12.855 0.097-7.698 0.224-15.659-0.073-23.358-0.33-10.274-2.279-21.81-5.552-33.342-0.528-1.916-1.152-3.834-1.781-5.717-1.123-3.434-2.314-7-3.074-10.768-0.693-3.403-0.887-6.645-1.057-9.75-0.132-1.948-0.232-3.862-0.497-5.814-0.957-7.4-2.509-14.903-4.031-22.171-2.643-12.789-5.341-26.004-5.22-39.814 0.17-15.431 0.095-30.895 0.070-46.327l-0.022-20.784 0.014 0.008c0-5.982-0.124-12.028-0.245-18.075-0.334-17.641-0.663-35.88 1.783-53.592 0.327-2.31 0.473-5.451 0.593-8.756 0.562-12.455 1.288-29.537 13.778-35.814 5.352-2.691 11.944-3.758 18.437-3.667zM309.433 144.064c3.247 0.031 6.035 0.914 8.522 1.696 3.469 1.091 5.982 1.881 9.715 0.725 1.914-0.597 4.031-0.233 5.616 0.955 1.62 1.187 2.577 3.072 2.577 5.089 0 2.641-0.143 5.45-0.264 8.294-0.232 5.65-0.527 11.531 0.331 16.254 0.161 0.959 0.413 1.784 0.658 2.577 0.595 1.952 1.327 4.43 1.254 8.13l-0.073 2.512c-0.096 3.732-0.196 7.269 0.366 10.606 0.627 3.868 1.022 7.699 1.419 11.498 0.431 4.030 0.83 7.864 1.489 11.729 1.321 7.57 2.55 15.896 2.478 25.478 0 1.452 0.076 2.945 0.099 4.429 0.099 2.743 0.196 5.52 0 8.328-0.2 2.611-0.696 4.923-1.157 7.171-0.459 2.082-0.885 4.063-0.957 5.881-0.049 0.86 0.001 1.653 0.024 2.446 0.1 1.882 0.167 4-0.331 6.446-0.627 3.006-1.917 5.582-3.074 7.895-0.925 1.818-1.752 3.499-2.082 5.024l-0.794 3.664c-1.121 5.42-2.313 11.039-3.962 16.721-0.629 2.151-2.31 3.77-4.493 4.327-0.527 0.121-1.055 0.17-1.552 0.17-1.653 0-3.272-0.627-4.46-1.816-3.734-3.702-3.442-7.998-3.274-10.576 0.023-0.495 0.048-1.026 0.024-1.587-0.097-3.534-0.923-7.17-1.818-11.036-0.627-2.805-1.256-5.583-1.654-8.39-0.466-3.141-0.396-6.116-0.297-8.956 0.067-2.745 0.13-5.353-0.331-7.601-0.595-2.975-1.883-6.048-3.202-9.283l0.035 0.028c-0.691-1.687-1.387-3.373-2.016-5.057-1.982-5.516-4.925-10.373-8.029-15.494-1.882-3.173-3.8-6.314-5.484-9.648-0.925-1.819-2.184-3.602-3.503-5.484-1.257-1.819-2.511-3.634-3.603-5.552-1.588-2.773-2.709-5.517-3.8-8.194-0.727-1.752-1.456-3.5-2.315-5.218-1.125-2.28-2.378-4.465-3.603-6.609-4.361-7.634-8.856-15.496-8.358-26.632 0.559-12.817 8.521-18.502 14.469-21.641l1.226-0.66c6.378-3.405 15.131-8.064 22.765-8.593 0.483-0.033 0.958-0.047 1.421-0.042zM717.297 178.426c0.853 0.052 1.698 0.276 2.478 0.67 0.793 0.396 1.487 0.959 2.016 1.62 2.444-0.597 5.419-0.762 8.789 0.727 5.187 2.31 9.682 6.378 14.042 10.309 2.346 2.080 4.527 4.060 6.607 5.549 3.7 2.644 8.394 4.163 13.35 5.781 2.676 0.893 5.319 1.751 7.797 2.742 1.089 0.466 3.006 0.684 4.824 0.929 5.385 0.629 14.403 1.718 16.948 11.662 0.772 3.039 0.513 6.607 0.247 9.748-0.099 1.153-0.196 2.28-0.196 3.171 0 1.718 0.047 3.406 0.070 5.089 0.072 2.975 0.097 5.981 0 8.922-0.2 6.409-1.652 12.457-3.074 18.271-1.387 5.752-2.703 11.17-2.775 16.588-0.023 2.941 0.025 5.846 0.097 8.789 0.072 4.032 0.17 8.062 0 12.094-0.162 4.131-1.123 7.764-2.082 11.268-0.362 1.418-0.759 2.806-1.057 4.261-0.164 0.763-0.309 1.919-0.43 3.274-0.893 7.766-2.183 19.46-11.401 20.353-3.172 0.298-5.979-1.684-6.739-4.691-0.725-2.741-0.822-5.387-0.894-7.664-0.023-0.761-0.049-1.49-0.121-2.149-0.461 1.057-0.955 2.179-1.452 3.304-0.696 1.588-1.387 3.201-2.147 4.824-1.357 2.873-2.15 6.904-2.942 10.836-0.364 1.819-0.727 3.636-1.123 5.321-0.893 3.768-2.114 7.301-3.306 10.705-0.927 2.743-1.884 5.522-2.644 8.33-0.661 2.612-1.289 5.153-1.882 7.698-1.95 8.294-3.966 16.886-8.593 25.246-2.841 5.087-5.351 9.682-7.533 14.439-0.427 0.927-0.823 2.017-1.254 3.106l-0.012-0.008c-1.256 3.271-2.642 6.973-5.22 9.778-1.224 1.327-2.907 2.054-4.658 2.054-0.396 0-0.826-0.051-1.222-0.099-2.146-0.427-3.932-1.952-4.691-4-1.851-4.921-0.629-10.142 0.362-14.369 0.431-1.884 0.869-3.702 0.892-4.959 0.074-2.246 0.050-4.524-0.022-6.771-0.049-1.586-0.073-3.175-0.073-4.761v-6.637c0-7.732 0.023-15.466 0-23.199 0-1.684-0.050-3.37-0.073-5.087-0.097-5.256-0.197-10.704 0.497-16.224 0.396-3.073 1.087-6.048 1.717-8.891 0.662-2.905 1.291-5.65 1.587-8.324 0.232-2.047 0.525-4.1 0.791-6.149 0.661-4.823 1.278-9.317 1.254-13.645-0.023-3.038 0.027-6.109 0.099-9.182 0.096-4.164 0.191-8.128 0.022-12.030-0.166-3.335-0.988-6.771-1.882-10.406-0.595-2.446-1.19-4.861-1.585-7.338-0.862-4.957-1.555-9.914-2.25-14.901-0.496-3.538-0.991-7.104-1.552-10.64-0.265-1.616-0.562-3.269-0.858-4.887-0.726-4.164-1.521-8.427-1.717-12.92-0.099-2.777 0-5.517 0.097-8.294 0.166-3.964 0.332-7.7-0.297-11.167-0.396-2.246-0.859-4.361-1.355-6.444-0.397-1.786-0.791-3.601-1.155-5.45-0.1-0.049-0.2-0.073-0.297-0.097-2.116-0.727-3.701-2.544-4.131-4.758-0.989-5.155 3.074-8.031 6.048-10.143 1.196-0.869 2.639-1.256 4.061-1.169zM526.868 541.123c3.185-0.133 2.693 4.6 3.685 7.983 0.593 2.047 1.818 3.401 2.116 6.375 0.562 5.814 1.552 10.577 2.873 16.094 4.196 17.215 6.442 34.889 12.259 51.51 2.873 8.162 3.568 16.85 6.048 25.046 2.975 9.878 4.262 19.624 5.055 29.933 0.661 8.426 3.402 15.928 4.063 24.551 0.629 8.589 4.956 16.257 6.147 24.745 2.116 15.299 6.344 32.185 18.439 42.031 6.609 5.353 13.117 11.365 19.493 17.181 5.682 5.187 8.426 8.887 11.531 16.224 6.012 14.273 11.731 30.628 13.249 46.122 0.196 2.116 1.122 5.323 0.725 7.337-0.593 3.236-0.297 2.082-2.975 3.802-8.359 5.452-29.375 9.944-33.405-2.873-0.593-1.786 0.12-3.934-0.331-5.751-0.593-2.314-2.079-4.626-3.071-6.81-2.975-6.707-4.462-15.496-7.139-22.665-4.228-11.366-15.827-10.906-24.384-17.185-3.172-2.377-6.44-4.295-9.582-6.803-2.545-1.984-5.421-5.751-8.558-6.446-5.023-1.088-8.853 2.61-12.389 5.42-4.493 3.568-9.286 7.663-14.772 9.944-5.583 2.282-10.638 5.784-16.42 7.633-2.943 0.927-3.833 0.894-6.411 3.108-1.487 1.286-2.742 2.777-4.261 3.932-9.979 7.634-12.886 21.709-16.555 33.237-2.446 7.73-3.833 17.517-10.64 22.801-2.943 2.282-7.336 4.856-10.805 6.246-1.782 0.726-3.237 0.955-5.155 0.927-3.172-0.049-5.122-1.090-6.311-2.71-2.116-2.841-1.917-7.567-2.245-12.259-0.827-11.497 3.8-21.311 6.014-32.213 3.237-15.928 2.479-38.23 14.142-50.289 2.048-2.080 4.461-4.329 6.973-5.683 3.603-1.984 7.304-1.222 11.104-2.28 5.385-1.552 9.55-5.682 14.142-8.857 7.863-5.484 10.837-8.823 14.339-18.402 3.37-9.317 4.297-17.709 5.255-27.657 0.396-4.228 1.122-8.49 0.892-12.784-0.196-3.471-1.156-6.511-0.725-10.010 0.893-7.039 4.526-14.308 6.278-21.181 1.984-7.863 4.397-15.531 6.442-23.36 1.984-7.564 0.497-14.835 1.72-22.502 2.709-17.215-0.594-35.521-2.25-52.899-0.827-8.757-0.121-16.188 1.222-24.745 0.793-4.957 0.53-10.012 1.323-14.871 1.19-0.625 2.119-0.914 2.854-0.945zM361.282 561.706c1.233-0.045 2.712 0.581 4.31 2.031 2.478 2.248 2.974 7.602 4.162 11.202 3.471 10.376 3.504 22.302 4.859 33.14 1.027 8.259-0.562 16.686 0.858 24.913 1.319 7.734 0.56 15.565 1.916 23.265 1.057 6.048 2.381 11.959 3.635 18.007 2.379 11.302 6.775 21.147 7.534 32.843 0.362 5.417 0.363 9.516 1.355 14.936 0.595 3.236 1.452 6.706 1.949 9.913 0.595 3.8 0.022 7.602 0.826 11.401 0.957 4.592 2.875 8.789 3.902 13.38 1.254 5.814 4.197 10.275 7.201 15.165 4.23 6.775 10.77 10.44 15.464 16.488 3.932 5.057 5.057 12.658 5.65 18.999 1.091 11.928 1.918 23.096 1.918 35.091 0 7.664 0.431 13.679-1.983 20.719-1.123 3.273-0.269 3.995-3.964 5.979-3.006 1.586-6.409 2.016-9.513 3.37-2.545 1.125-3.471 2.249-6.543 2.019-4.329-0.307-9.418-4.363-11.862-8-0.245-0.33-0.431-0.693-0.595-1.058-0.957-2.080-1.386-5.054-1.781-7.006-0.726-3.702-1.553-8.096-1.951-11.928-0.726-7.303-1.882-14.010-3.701-21.377-1.355-5.42-2.445-10.606-8.457-12.819-5.882-2.213-12.722-3.137-19.065-1.983-7.434 1.355-14.309 4.528-21.643 6.276-6.937 1.653-14.010 1.489-21.115 1.323-4.262-0.097-8.787 0.17-12.555-2.151-11.3-7.005-18.142-27.655-14.969-39.685-2.246-1.452-3.336-3.273-3.403-7.435-0.023-4.062-0.17-8.227 0-12.29l-0.002 0.006c0.17-3.538 1.288-5.586 1.818-8.789 0.595-3.768-0.023-7.503 0.562-11.302 0.595-3.568 1.288-6.474 1.454-10.376 0.17-4.195 1.42-6.973 2.512-10.873 0.893-3.37 0.659-7.299 1.751-10.507 1.918-5.553 5.154-10.075 9.748-13.146 3.998 6.078 5.024 12.72 7.137 19.493 2.346 7.464 4.427 15.462 6.276 23.289 0.528 2.248 0.926 4.564 1.321 6.842 3.403-4.232 6.74-8.461 8.988-13.813 3.603-8.691 2.675-17.114 4.625-26.033 3.237-15.067 5.521-30.697 10.576-45.071 1.786-5.122 3.666-10.143 5.253-15.398 2.943-9.712 7.237-20.682 8.36-30.725 0.859-7.702-0.098-15.168 1.288-22.901 1.224-6.839 2.115-13.412 2.345-20.287 0.123-3.118 1.499-5.063 3.554-5.139zM624.481 569.982c1.685 5.98-0.794 12.654 0.725 18.768 1.455 5.719 4.294 11.171 5.816 17.084 2.28 9.052 5.023 17.645 8.096 26.401 2.612 7.469 1.919 15.398 4.131 22.765 9.648 31.819 11.401 66.581 16.589 99.523l0.004 0.002c2.248 14.207 9.417 26.697 13.085 40.408 2.28 8.525 4.925 18.999 3.832 27.986-1.025 8.623-4.494 15.629-11.599 19.431-5.454 2.907-13.183 1.452-21.115 1.452-1.85-12.39-5.45-26.036-8.623-38.194-1.916-7.402-3.108-14.834-6.642-21.512-3.336-6.214-5.747-12.621-8.852-18.934-2.976-6.049-6.247-13.12-9.584-18.934-2.216-3.802-5.618-5.649-8.13-8.756-1.057-1.289-1.881-4.792-2.511-6.541-1.95-5.584-1.675-10.905-1.652-16.753 0.034-11.896 1.19-24.749-0.992-36.379-2.745-14.871-1.159-31.458 1.452-46.163 1.454-8.028 2.377-15.101 6.311-22.238 2.411-4.393 2.542-8.492 4.558-12.954 2.476-5.417 5.386-10.87 8.259-16.121 1.652-3.071 4.031-9.35 6.84-10.341zM222.139 578.378c3.305 4.43 3.836 11.765 5.618 16.95 1.818 5.251 3.635 10.54 5.715 15.66 4.228 10.442 6.807 21.94 11.763 32.084 2.809 5.75 3.998 11.104 7.137 16.458 2.379 4.062 4.199 8.589 5.188 12.817 1.684 7.303 4.529 14.769 4.329 22.302-0.072 2.377-0.528 4.564-0.196 6.941 0.562 3.965 2.277 7.862 3.202 11.763 2.048 8.426 3.006 17.114 3.006 25.806 0.023 5.353 0.892 8.756 2.345 13.742 2.278 7.833 4.595 13.152 2.116 21.377-1.584 5.090-3.304 11.465-7.106 15.43-4.228 4.426-8.756 3.273-14.107 2.145-7.764-1.552-9.416-2.972-13.909-9.414-0.123-0.245-0.298-0.463-0.462-0.695-2.809-4.26-3.965-8.161-5.121-13.050-1.42-5.914-5.088-11.302-7.173-16.987-2.048-5.75-4.955-11.731-10.175-15.234-5.255-3.499-9.352-2.841-15.297-3.603-2.941-0.394-5.816-1.685-8.791-2.376-5.42-1.286-9.12-1.881-12.658-6.246-3.073-3.768-6.608-6.937-9.977-10.408-7.236-7.503-8.69-22.006-1.552-30.068 4.13-4.691 10.506-6.081 16.488-4.924l0.002 0.010c5.518 1.053 13.58 3.568 18.371-0.759 3.271-2.907 2.277-6.54 3.005-10.309 0.696-3.538 2.577-7.036 3.37-10.642 1.42-6.275 2.249-12.853 3.57-19.132 1.521-7.102 0.023-14.639 0.366-21.839 0.496-11.3 2.575-29.176 10.935-37.799zM744.823 585.545c3.039 2.31 1.685 6.772 2.544 10.178 1.355 5.452 3.669 9.578 3.966 15.494 0.364 7.533 0.529 12.657 2.411 19.891 1.552 6.048 2.675 12.323 3.932 18.469 2.943 14.607 0.695 30.897 1.654 45.8 0.245 3.635 1.421 6.707 2.28 10.044 0.759 3.135 1.451 5.484 3.534 8.259 2.248 2.971 4.298 2.84 7.435 3.897 3.832 1.257 3.237 1.257 4.857 5.057 1.984 4.691 4.195 9.978 4.261 15.463 0.097 6.939 0.894 14.045 0.794 21.048 0 1.717-0.097 3.471-0.245 5.188-0.759 8.823-6.112 9.908-13.944 8.128-4.428-0.991-8.228-3.237-12.423-4.493-3.107-0.959-6.478-1.153-9.617-2.049-5.255-1.489-11.401-1.716-17.017-0.992-13.151 1.722 1.819 21.64-8.623 26.466-4.396 2.016-11.996-0.926-15.662-2.542-9.648-4.232-19.892-5.785-22.171-17.811-3.237-17.047 10.639-29.405 10.309-45.002l0.024 0.004c-0.097-4.232 0.661-7.468 1.818-11.466 1.189-4.096 1.091-7.335 1.818-11.398 0.923-5.385 2.050-10.938 2.873-16.359 0.496-3.335 2.743-9.778 4.99-12.257 3.37 2.911 4.759 5.453 6.541 9.617 1.487 3.499 2.079 5.979 5.881 5.979 4.228 0 6.774-4.855 8.954-8.623 1.189-2.016 1.552-4.163 2.181-6.345 0.396-1.355 1.387-4.232 1.552-5.554 0.396-2.707-0.528-5.483 0.024-8.193 0.661-3.276 2.61-5.915 3.304-9.186 1.882-8.658 1.057-18.209 2.25-26.962 1.057-7.533 1.522-15.826 3.403-23.095 0.661-2.48 3.37-16.322 6.112-16.654z"></path>
    </svg>