<svg xmlns="http://www.w3.org/2000/svg" viewBox="31.794 32.521 953.272 959.453">
    <path fill="#000000" d="M592.504 920.532c-0.010-0.010-0.014-0.017-0.020-0.026-0.083 0.051-0.078 0.067 0.020 0.026z"></path>
    <path fill="#000000" d="M655.015 892.641c-0.018 0-0.060 0.019-0.157 0.109 0.067-0.050 0.094-0.062 0.157-0.109z"></path>
    <path fill="#000000" d="M787.961 755.723c0.574-0.389 1.32-0.982 2.423-1.837-0.815 0.592-1.619 1.217-2.423 1.837z"></path>
    <path fill="#000000" d="M459.776 32.528c-1.61 0.887-3.12 1.718-4.647 2.528-1.028 0.424-2.040 0.884-2.938 1.351-1.842 0.726-3.565 1.545-5.234 2.231-3.338 1.33-6.35 2.488-8.703 3.641l5.291-3.641c-3.209 2.184-5.934 3.632-8.76 5.176l3.996-0.294c-3.467 1.54-6.224 2.993-6.525 2.353-2.862 2.826 3.907 1.034-2.177 5.998-2.394 0.853-5.629 2.879-8.584 4.588-1.496 0.814-2.971 1.482-4.172 2-0.641 0.193-1.117 0.425-1.589 0.469-0.288 0-0.493-0.103-0.703-0.352 0.193-0.030 1.162-0.52 1.765-0.822 0.685-0.363 1.253-0.729 1.765-0.939 0.9-0.512 1.423-0.862 1.765-1.117 0.56-0.56 0.187-0.727-0.295-0.763-0.791-0.187-1.816-0.393 1.293-2.441-1.747 1.019-3.761 2.062-6.173 3.148-0.601 0.030 0.273-0.739 1.115-1.29-0.943 0.36-2.373 0.964-2.586 0.997-0.129-0.030-0.142-0.030-0.236 0-0.129-0.030-0.175 0.026-0.175 0.058-0.288 0.065-1.182 0.193-1.529 0.352-0.984 0.288-1.614 0.675-2.469 1.058-1.669 0.77-4.023 1.636-10.703 1.765 1.333-0.846-0.793-1.355-3.116-1.648 1.486 0.596-1.425 1.937-5.762 2.704-10.058-0.682-10.902 0.939-16.168 0.939l5.995 0.294c-0.937 0.604-2.668 0.959-4.94 1.174-2.358 0.159-5.38 0.298-8.938 0.529-0.258 0.065-0.637 0.159-0.939 0.352-0.223-0.159 0.136-0.48 0.822-0.822-2.612 0.984-3.881 1.366-5.939 1.882-1.971 0.322-4.031 0.69-6.173 1.117-4.196 0.77-8.655 1.766-12.936 3.821-5.054 0.77-1.116-2.029-5.527-1.174-4.28 2.056-7.279 2.856-9.933 3.409-1.324 0.288-2.512 0.461-3.879 0.761-0.689 0.129-1.348 0.322-2.119 0.471-0.4 0.129-0.793 0.162-1.176 0.292-0.726 0.193-1.39 0.446-2.116 0.644-0.689 0.424-1.406 0.868-2.177 1.29-0.431 0.223-0.942 0.585-1.41 0.882-0.989 0.641-2.003 1.435-3.116 2.292 3.982-0.56 4.303-1.201-2.589 4.88l10.348-7.114 9.407-3.641-4.172 2.292c-1.588 0.77-2.335 1.281-4.822 2.353-1.882 1.411-2.531 2.188-3.641 3.174 1.286-0.814 2.657-1.732 3.937-2.589 1.374-0.512 2.711-1.058 3.996-1.529 1.202-0.472 2.262-0.968 3.291-1.351 2.141-0.9 4.070-1.552 5.527-1.941-5.739 3.299-5.3 2.712-2 3.057-1.798 0.030-3.49 0.357-5.115 0.763-0.814 0.193-1.7 0.52-2.469 0.822l-2.882 1.115c-2.265 1.669-4.536 3.317-6.936 5.115-2.265 1.628-4.715 3.136-7.587 4.291l-1.823-3.526c-10.105 4.625-17.637 11.334-26.929 17.757-2.999 1.628-7.59 3.846-12.171 5.644l6.056-2c-1.752 2.525-10.986 5.254-16.462 8.467-0.030-1.453-3.816-0.197-6.642 0.061 0.641 0.81-12.954 5.855-13.643 9.111l-2.353 0.705-2.116 1.529-1.589 0.997-3.057 1.942c-11.946 10.404-10.394 15.254-21.692 25.398 2.31-4.193-3.357-0.073 3.233-7.879-3.635 3.51-7.065 6.444-6.466 7.171-0.596 0.288-1.439 1.043-2.292 1.942-0.943 1.068-2.096 2.407-3.291 3.821-1.072 1.971-2.283 4.145-3.352 6.115-1.028 1.709-2.018 3.215-2.999 4.114-0.726 2.1 0.081 3.448-3.057 8.114-0.393 0.263-0.536 0.030-0.595-0.161-0.082 1.206-3.859 7.498-0.163 4.399-2.697 2.394-5.343 5.575-7.997 9.172-1.33 1.709-2.597 3.619-3.879 5.585-1.202 1.798-2.383 3.628-3.587 5.47-2.056 1.839-4.176 3.747-6.232 5.585-2.184 1.842-4.351 3.729-6.408 5.527-4.199 3.467-8.249 6.328-11.759 7.998-4.495 4.193-9.384 8.793-13.879 12.99-2.184 6.207-4.209 11.892-5.879 16.817-0.159-0.77-0.598-0.279 0.175-2-5.953 12.585 0.665 9.294-6.056 23.637-4.84 6.806 1.716-8.23-0.763-3.823-1.411 0.159-2.421 1.626-3.409 3.937-0.468 1.157-0.953 2.546-1.47 3.998-0.363 1.33-1.074 3.469-1.115 3.937-0.129 0.36-0.892 1.531-1.706 2.647l-2.292 3.409c-1.588 2.137-3.336 4.088-5.176 5.585l1.351-2.231c-6.036 5.607-10.444 16.964-18.579 27.456 0 0-0.039-0.77-0.586-0.471-0.193 0.689-0.707 1.829-1.648 3.411-0.472 2.525-1.049 5.413-1.648 8.584-0.596 2.862-1.291 5.926-2.060 9.053-1.54 6.25-3.262 12.751-4.763 18.402-0.428-4.283 0.869-5.771-1.529-4.057-1.54 5.56 3.149-0.698 0.115 10.348-0.9 1.459-1.83 3.218-3.116 5.704-1.157 3.425-2.266 6.085-3.468 6.642l0.999-7.23 1.349-4.114c-0.4 0.512-0.889 0.929-1.232 1.529-0.322 0.512-0.59 1.195-1.058 2.353-0.129 0.814-0.289 1.555-0.469 2.411l-0.352 2.058c-0.129 1.367-0.112 2.748-0.175 4.115-0.129 2.742-0.265 5.401-0.822 7.585l-0.941-0.939c-2.056 15.972 0.388 17.213-2.116 33.394-0.030 0.193-0.172 0.523-0.236 0.822 0.193-0.322 0.434-0.553 0.644-0.763 0.159-0.159 0.349-0.277 0.529-0.586 0.030 0.4 0.026 0.532 0.058 0.703 0 8.819-3.438 6.899-3.823 16.401l-3.351 2.177c-0.984 6.293-2.683 22.441-5.47 33.57 0.129-6.68 2.131-20.049 3.118-28.395-1.055 4.080-2.1 10.404-3.118 16.285 0.4 8.181-1.856 18.101-5.41 30.218-1.411-1.157-3.12 1.773-4.88 6.527-0.9 2.358-1.781 5.237-2.765 8.231-1.072 3.385-2.163 6.937-3.233 10.404 0.159 1.238 0.391 2.508 0.588 3.701 0.065 0.858 0.162 1.654 0.292 2.472 0.159 1.54 0.421 3.128 0.529 4.586 0.159 2.826 0.089 5.165-0.294 6.878 1.453 5.307 2.618 10.728 3.643 16.168 0.472 2.742 0.954 5.504 1.468 8.29 0.431 2.955 0.884 5.839 1.351 8.877 1.842 5.734 3.717 11.604 5.644 17.639 1.927 5.86 3.98 11.901 6.29 18.108 0.685-10.061 2.676 7.091 6.056 4.174 0.989 2.567 1.643 4.331 2.119 5.527 0.129 0.9 0.271 2.128 0.175 2.292v0.058l0.41 18.579c-0.512 4.495-1.836-5.607-2.647-4.88 1.798 13.146-0.825 5.779-0.527 14.64 1.202-2.009 2.784 4.238 3.468 11.818l0.234-10.82c2.439 8.646 2.258 12.23 2.177 16.815 0.322 5.093 0.16 8.748 3.762 18.168l-2.706-5.412c1.238 3.596 2.848 9.679 4.647 16.226 0.984 3.295 1.941 6.699 2.882 9.994 0.56 1.588 1.117 3.222 1.589 4.766 0.641 1.714 1.249 3.337 1.765 4.88 0.733 1.588 0.907 1.816 1.29 2.586 0.431 0.641 0.777 1.209 1.117 1.765 0.726 1.157 1.552 2.171 2.231 2.94 0.159 1.752-0.058 4.221-1.941 0.41 2.358 6.208 5.159 12.756 8.114 19.225 3.084 6.68 6.217 13.394 9.172 19.816 1.669 2.31 3.293 4.5 4.88 6.642 1.367 1.962 2.711 3.875 3.996 5.764 2.569 3.761 4.772 7.333 6.527 10.761l-1.765-0.941c2.612 3.425 5.753 5.178 7.938 10.228-0.56 0-1.894-0.906-0.822 0.763 0.512 0.596 1.628 1.855 2.999 3.352 0.641 0.77 1.288 1.548 2.058 2.411 0.77 0.984 1.317 1.528 2.647 3.409 0.943 0.858 1.922 1.83 2.821 2.647 0.726 0.726 1.338 1.369 1.942 2.058l-4.291-2.586c15.327 16.57 26.675 21.977 40.806 34.392-2.1 2.142 10.028 14.835 16.108 21.167l-0.529 0.058c4.625 4.408 9.005 8.327 13.286 12.052 4.108 3.892 8.118 7.539 12.054 11.054 4.027 3.551 7.884 7.031 11.993 10.586 1.968 1.842 4.001 3.641 6.056 5.527 1.072 0.943 2.106 1.895 3.174 2.882 1.197 1.109 2.447 2.251 3.641 3.409 0.472 0.223 0.972 0.6 1.531 0.939 3.551 3.681 9.303 8.262 16.108 13.227 3.467 2.439 7.105 5.050 10.876 7.704 4.154 2.911 8.494 5.865 12.817 8.821 4.968 1.374 9.962 2.792 14.758 4.114 4.28 1.286 8.418 2.597 12.229 3.879-3.428-1.453 1.154-2.121 5.351-1.351 5.35 2.009 15.635 1.911 14.053 4.35l-1.882-0.588c0.512 0.56 1.275 1.134 2.175 1.65 0.4 0.223 0.839 0.508 1.351 0.761 0.641 0.193 0.319 0.141 0.529 0.353-0.223 0.030 1.524 1.155 2.763 1.882 1.374 0.814 2.728 1.652 4.174 2.469 2.915 1.588 5.96 3.266 8.702 4.763l2.999-2.411c3.165 2.782 6.939 5.426 11.054 7.997 2.016 1.286 4.090 2.623 6.231 3.823 2.394 1.33 4.792 2.556 7.232 3.879l7.405 2.469c2.226 0.685 4.462 1.311 6.644 2 4.408 1.367 8.804 2.682 12.696 3.879 7.88 2.531 14.305 5.11 17.815 7.938 0.9 0.159 1.116 0.182 2.999 0.644 2.697 0.363 5.672 0.714 8.584 1.057 2.785 0.288 5.514 0.673 7.997 0.763l-0.703 1.823c6.121 1.374 11.003 2.474 16.050 3.585 2.531 0.56 5.097 1.094 7.879 1.65 3.128 0.601 6.48 1.288 10.287 2.058 2.184-0.193 6.294-0.672 10.878-1.057l-3.937 1.706c11.047-0.726 13.546-6.592 23.694-7.405l3.235 2.646 8.409-0.527 8.702-0.352 10.761-1.531 10.17-1.589c6.766-1.157 13.442-2.665 19.991-4.763-0.223 0.468-0.727 1.414-3.762 2.058 2.652-0.431 6.817-1.024 11.23-1.706 2.481-0.129 5.008-0.233 7.407-0.352 2.525-0.159 4.966-0.403 6.936-0.703 3.605-0.506 5.884-1.261 5.363-2.353 2.307 1.784 20.249-1.546 29.972-3.526l-1.41 2.116c8.518-3.508 8.701-4.227 20.814-6.408 2.915-0.129 2.736 1.115-1.115 1.115 9.722-0.193 7.23-2.647 19.047-3.116l-4.172 1.765c4.84-0.56 7.089-0.954 8.76-1.468s2.686-1.080 6.115-2.233c0.030-0.030 0.202-0.198 0.352-0.292 0.814-0.596 1.72-1.334 2.704-2.060 0.77-0.512 1.668-0.99 2.53-1.589 1.798-1.117 3.701-2.291 5.585-3.233 3.681-1.883 7.044-3.16 8.114-2.821 0.553-1.626 4.361-5.685 9.582-8.469 1.028 0.129-0.579 1.564-1.349 2.292 3.428-1.842 6.289-3.697 8.819-5.41 1.286-0.943 2.447-1.731 3.641-2.586l1.589-1.234 0.999-0.763c0.512-0.288 2.055-0.87 3.468-1.293 1.374-0.472 2.683-0.983 4.057-1.407 2.697-0.77 5.457-1.39 8.584-1.648 0.4 0.512 1.088 0.628 2.116 0.586-7.533 1.882-14.104 3.646-17.872 4.588-0.77 0.472-1.364 0.832-1.708 0.997-0.279 0.182-0.468 0.28-0.565 0.322 0.412 0.636 2.666-0.171 2.92 0.208 0.472 0.159 0.684 0.347 0.939 0.642 0.129 0.288-0.030 0.839 0 1.351 0 0.095 0.027 0.233 0.058 0.352 0-0.065 0.026-0.233 0.058-0.352 0.553-0.193 1.073-0.449 1.589-0.703 1.202-0.472 2.408-1.030 3.643-1.589 2.486-1.028 5.122-2.119 7.819-3.233 5.355-2.184 10.949-4.14 15.874-5 0.512 0.030 0.99 0.047 1.41 0.175l-0.999 0.412c2.358-0.431 4.524-1.111 6.409-1.884 1.626-0.288 2.966-0.567 4.289-0.822 1.496-0.288 2.031-0.421 5.117-1.174 0.56 0.159 1.831 0.038 3.76-0.353 1.109-1.11 2.517-2.6 4.057-4.348 0.862-1.028 1.761-2.077 2.704-3.233 1.842-2.226 3.851-4.541 5.176-6.173-1.731-0.843 2.768-5.92-2.312-2.168 0.099 0.030-0.999 1.489-2.922 3.811-0.431 0.682-0.98 1.413-1.234 1.884 0-0.129 0.031-0.288 0.063-0.471l-6.936 8.469-5.881 1.589c1.202-0.689 3.611-1.604 5.41-2.294 0.641-0.9 1.311-1.827 2-2.763 0.56-0.73 1.181-1.582 1.825-2.353 1.068-1.374 2.352-2.651 3.937-3.937 0.814-2.908 1.811-6.031 2.411-7.704 6.766-3.851 16.978-13.746 19.461-14.17 1.713-2.272 3.466-4.689 5.349-7.171 2.567-2.184 5.21-4.462 7.821-6.644 2.785-2.439 5.445-4.767 8.056-6.995 5.097-4.667 9.437-9.092 11.876-12.817 3.338-3.209 4.754-2.472 6.466-3.116-1.927 1.962-4.415 3.89-5.232 5.176 6.465-6.72 21.969-16.373 22.224-19.758 10.187-5.825-4.025 5.666 8.819-3.879l-1.293 1.823c3.425-1.798 6.511-3.658 9.465-5.585 1.459-1.028 2.881-2.001 4.291-2.94 1.752-1.286 3.507-2.537 5.176-3.821l2.116-3.937 1.351-2.704 2.411-5.412c1.588-3.596 3.235-7.179 4.822-10.82 3.209-7.153 6.994-15.059 11.407-22.165 2.53-2.355 6.016-5.379 9.689-8.215-0.428 0.291-0.771 0.479-1.044 0.515 4.667-4.108 9.216-8.431 13.758-12.756l6.7-6.7 7.114-6.995c9.335-14.94 17.163-28.151 26.751-42.92l2.823-8.702 2.823-8.114c1.927-5.437 3.977-10.711 6.115-15.933 3.128-8.178 3.066-10.76 3.409-15.169 0-1.157 0.115-2.485 0.115-4.114l2.472-1.942 0.234-11.876c2.009-16.523 11.039-26.869 12.875-47.977l-1.942 2.353c2.009-7.278 4.818-23.44 6.056-21.811-0.030-0.858-0.838-2.668 0.529-5.41h1.174l0.352-2.706 0.644-3.641-1.41-3.937v0.175l-1.115-3.057-2.413-6.173c-2.999-14.001 4.752 1.123-0.469-19.166-2.486-7.406-8.847-20.579-8.763-17.58 0.769 3.036 1.461 7.907 0.471 8.467l-2.353-6.7c-0.193-0.030-0.491-0.053-0.703-0.117l-0.352-1.115 9.994-49.093-8.821-32.926 0.763 0.644-1.174-2.231-2.823-10.464c0.424 0.193 1.076 1.062 1.765 3.116-0.223-3.084-0.683-4.612-1.234-6.115-1.242-2.137-2.216-2.831-3.116-7.114-0.129-0.814 0.185-0.591 0.588 0l-3.998-6.642c1.157 1.109 1.294-2.023 2.882 2.469-4.283-13.271-11.325-19.383-11.583-24.988l0.705 0.941c-6.68-12.715-4.769-6.704-6.997-8.29l-0.117-0.352-1.174-8.35 2.647-7.113-2.294-1.648c-0.193-1.927-0.503-5.836 0.412-5.234-2.351-7.106-0.764 1.36-2.647-2.704 0.468-7.449-2.048-18.076-2.177-24.752-1.068-1.882-1.718-3.436-1.29-4.289-3.425-1.927 4.659 8.364-2.53 0.527 1.109-4.495-7.465-9.105-11.405-17.111 3.084 1.068 7.185 8.314 3.291 0.352-5.609-2.394-9.508-14.057-14.346-19.58-2.272 1.197-10.217-12.366-18.051-21.87 1.157 0.129-12.525-19.586-18.049-29.691l0.469 0.058c-3.295-0.428-9.565-10.434-14.875-17.284 1.411-0.553 2.832 0.385 5.998 3.879l-4.527-6.761c-1.752-1.109-3.472-3.017-6.644-7.171l2.704 0.703-2.411-3.233-3.291-2.763-2.882-2.353c-1.927-1.54-4.001-3.192-6.056-4.822-4.108-3.381-8.325-7.017-12.522-11.641-1.197 0.56 1.432 5.347-0.352 5.644l-5.468-5.115c0.596-0.223 1.529-0.074 3.116 1.057-1.028-0.77-3.882-2.397-5.47-4.408l5.412 2.823c-4.194-4.792-3.358-1.267-6.997-4.822 1.028-0.9-2.009-3.224-0.763-3.526 1.028 0.77 2.848 3.352 4.647 4.291-2.009-1.968-4.625-4.664-5.82-6.29-0.858-1.713-2.124-4.226-2.292-5.291-0.36 0.9-1.466 1.197-4.115-2.060-6.55-8.559-0.963-3.97-4.172-9.407-2.31-1.496-5.697-7.553-7.405-6.525-1.887-2.525-1.527-3.498-1.825-4.822-1.113-1.072-2.786-3.122-4.586-5.351-2.137-2.612-4.348-5.464-6.231-7.821-6.55-1.626-8.226-1.684-5.998 0l1.589 0.588c-0.363-0.030-0.732-0.169-1.115-0.234-7.578-1.324-15.101-3.559-22.637-5.998l-11.288-3.762c-3.596-1.202-7.017-2.357-10.525-3.468l-2.997-2.586-3.528-2.823 0.41-0.471c-8.733-6.46-18.591-15.362-25.396-19.342-2.439-2.056-4.949-5.829-3.409-5.527-0.984-0.733-1.874-1.452-2.472-1.882-1.54-0.641-2.811-1.117-4.055-1.589-1.157-0.468-2.254-0.956-3.409-1.47-2.352-1.157-5.056-2.668-9.465-5.41 8.006 2.656-2.132-2.168 8.056 3.057-9.422-5.308-11.154-7.364-22.282-10.878 4.237 0.159-6.137-5.495-11.23-7.466l6.349 4.527c-1.496-0.641-2.917-1.293-4.291-1.941-1.584-0.77-3.146-1.582-4.647-2.353-2.567-0.4-4.966-0.69-7.405-1.117l2.999-1.882c-10.658-2.782-20.597-2.872-29.928-3.174-4.625-0.129-9.097-0.324-13.463-0.88-4.283-0.604-8.331-2.001-12.229-3.879-5.992 0.424 11.548 3.359 6.115 4.172-9.848-2.229-19.569-7.443-22.696-7.997-5.479-1.628-8.714-1.794-11.583-1.706-1.459 0.065-2.729 0.169-4.233 0.234-0.726 0.030-1.597 0.030-2.411 0-0.943-0.030-1.567-0.036-3.233-0.292-1.028 0-2.114 0.058-3.352 0.058-1.072 0-2.27-0.081-3.641-0.175 1.887 0.853 3.641 2.945-7.23 3.584-10.105-0.472-12.42-3.559-5.998-4.114 2.439-0.030 3.616 0.221 3.526 0.529 3.299-0.223 7.549-0.524 3.528-1.47l-1.351 0.822c-5.007-0.943-18.92-1.067-15.58-2.353-7.706 0.689-3.395 1.249 2.294 1.765-8.388-0.937-14.792-0.796-21.343-0.88-3.084-0.193-7.323-0.612-11.818-1.29 2.092 0.641 3.982 1.741 1.882 1.529-19.477-2.785-8.722 0.716-21.989-0.117-7.408-1.882 2.936-2.657-10.464-2.823-8.091-1.588-1.549-2.257 1.708-2.646-1.459 0.030-2.881 0.030-4.291 0l-2.999-0.175c-1.181-0.127-2.331-0.21-3.468-0.353h-0.061v-0.012zM410.521 156.77c1.18-0.011 2.447 0.084 3.58 0.084 15.14 0.058 30.318 0 45.459 0 17.604 0 35.721-0.159 52.805 3.377 4.215 0.865 7.868 0.866 12.278 1.153 3.298 0.199 6.16 1.457 9.495 1.627 8.94 0.406 18.040-0.028 27.023-0.028h62.821c4.449 0 12.795-0.677 14.025 4.527 0.443 1.946-0.001 4.89-0.117 6.915-0.121 2.501-1.152 3.141-1.67 5.244-0.679 2.818 0.51 6.315 0.115 9.257-0.319 2.421-1.308 3.573-1.629 6.036-0.478 3.494-0.916 7.791-4.61 9.974-3.124 1.828-3.296 1.432-3.181 5.285 0.117 3.257-0.989 3.416-1.627 6.038-1.095 4.214 0.056 10.214 0.056 14.542v16.014c0 2.548-0.176 5.126-0.030 7.633 0.121 2.58 2.149 5.126 1.589 7.627l-0.028 0.065c-1.49-2.635-2.379-4.295-2.92-5.388 0.609 3.662 0.474 9.71-2.086 11.185-2.583 1.471-5.163-0.278-7.51-0.875-2.622-0.69-5.204 0.149-7.827-0.289-2.067-0.361-5.639-1.311-6.359-3.021-0.755-1.708 0.117-5.758 0.117-7.746 0-2.627-0.030-5.248-0.030-7.872 0.042-4.212-0.834-6.835-1.629-10.729-0.751-3.653 0.204-8.299 0.878-11.876 0.644-3.536 0.041-7.275 0.674-10.689 0.618-3.298 3.954-7.754-0.261-10.333-3.415-2.154-12.555-0.325-16.767-0.325h-26.343c-4.289 0-8.622 0.174-12.873 0.028-5.164-0.157-9.737-2.066-14.78-2.74-11.047-1.471-22.014-1.511-33.019-3.059-12.914-1.791-27.137-0.332-40.21-0.362-5.844 0-9.257 0.72-13.71 4.493-2.343 1.986-5.682 6.197-6.359 9.178-0.333 1.51 0.546 3.216 0.145 4.726-0.199 0.836-1.154 1.233-1.27 1.785-0.477 2.147-0.362 4.254-0.362 6.518 0.044 5.482 0.237 10.368 1.23 15.733 0.834 4.809 0.322 9.339 1.551 13.988 0.716 2.736 1.508 8.623-1.551 10.369-3.019 1.755-11.045 0.327-14.544 0.327-4.171 0-9.139 0.691-13.15-0.261 0.317-2.667 1.194-5.926 1.747-8.586 0.235-1.154 1.042-1.749 1.272-3.338 0.232-1.389-0.028-3.215-0.028-4.609v-16.81c0-5.601-0.823-11.961-0.028-17.522 0.4-2.983 1.642-5.204 1.585-8.385-0.036-2.939 0.36-4.807 1.353-7.232-2.103-1.713-3.219-2.739-5.64-3.815-2.343-1.035-4.927-0.908-7.074-2.264-4.406-2.741-2.698-9.973-2.698-14.46 0-2.944-0.769-7.552-0.056-10.414 0.319-1.273 1.424-1.589 1.747-2.901 0.231-0.951-0.46-2.222-0.172-3.215 0.955-3.242 3.381-2.626 6.004-3.3 1.432-0.357 1.509-0.973 3.456-1.234 0.367-0.036 0.752-0.051 1.145-0.054zM482.207 269.426c1.234-0.043 3.002 0.224 3.809 0.224 2.623 0.028 5.243 0 7.827 0 4.054 0 8.743-0.631 12.597 0.362 3.338 0.869 5.719 1.195 9.337 1.195 6.202 0 11.446 1.233 17.405 2.702 8.305 2.072 19.232 0.362 27.975 0.362 2.82 0 6.676-0.713 9.416-0.117 4.251 0.913 2.501 3.097 3.017 6.198 0.599 3.734 3.089 6.834 3.261 10.689 0.121 3.14 1.191 4.652 1.551 7.591 0.755 6.084 1.592 12.359 3.062 18.322 0.517 2.224 1.511 3.734 1.627 6.079 0.144 1.827-0.476 3.969-0.115 5.8 0.394 1.944 1.345 3.256 1.747 5.244 0.331 1.867-0.547 3.932-0.145 5.8 1.268 6.676 3.014 13.431 4.408 20.068 2.623 12.438 2.541 25.548 4.687 37.867 1.004 5.601-0.276 11.401 0.717 17.084 1.55 9.261 0.672 18.202 1.113 27.538 0.477 9.734 1.829 19.668 3.657 29.242 1.433 7.511 1.141 14.904 1.111 22.494 0 14.543 3.023 28.766 5.523 43.109 2.741 15.499 5.564 31.070 8.225 46.609 1.075 6.235 2.003 13.426 1.947 19.748-0.117 10.806 1.15 21.256 1.51 31.985 0.317 10.69 3.296 21.060 3.181 31.789-0.030 7.233-0.028 14.463-0.028 21.655 0 5.998-0.030 11.996 0 17.998 0.039 3.613-1.114 5.998-1.551 9.376l0.037-0.006c-7.864 4.595-17.524 5.285-26.901 4.651-3.14-0.202-5.996-1.524-9.136-1.67-3.38-0.202-6.003 0.038-9.297-0.721-5.009-1.11-9.221-0.869-13.988-2.857-0.235-1.786 0.833-5.205 1.349-6.912 1.112-3.774 2.862-7.272 3.657-11.165 0.834-3.855 1.028-7.671 2.224-11.444 0.712-2.184 1.628-4.094 2.066-6.357 3.378-18.756 4.651-37.629 4.651-56.702v-51.498c0-13.751-0.439-27.059-1.589-40.769-0.319-3.814-1.37-7.507-1.629-11.323-0.287-4.054 0.468-7.986-0.287-12.042-1.391-7.709-1.628-15.34-2.901-23.011-1.473-8.9-5.884-17.203-7.353-26.262-1.112-6.993-1.747-13.985-3.1-20.941-1.83-9.417-1.947-18.517-1.947-28.134 0-9.139 0.122-17.603 1.234-26.621 0.769-6.555-0.157-13.11 0.712-19.669 0.592-4.727 1.429-9.378 2.421-14.025 1.473-7.194 0.322-15.578 0.322-22.849 0-3.576 2.148-16.569-1.23-18.716-0.079-0.635 0.157-1.147 0.634-1.549-1.389-1.151-5.803-3.295-7.589-3.815-3.773-1.121-7.944 0.35-11.804-0.289-2.581-0.438-4.092-1.948-6.474-2.781-2.466-0.878-5.168-0.561-7.668-1.43-4.61-1.631-8.068-2.7-12.799-3.417-5.164-0.836-7.985-3.498-9.454 2.98-0.87 3.972-0.71 8.181-1.43 12.154-0.519 2.904-1.556 5.008-1.672 8.108-0.086 1.866 0.030 3.814 0.030 5.721v10.532c0 3.1 0.476 6.517 0.115 9.574-0.398 3.338-2.226 5.923-2.938 9.137-1.747 7.79-1.63 15.897-3.1 23.687-1.195 6.396-0.362 13.626-0.362 20.143 0 9.258-0.026 18.553 0.030 27.815 0.199 22.289-5.364 44.823-8.98 66.755-1.551 9.457-4.090 18.752-6.793 27.93-1.592 5.489-0.633 10.452-1.708 15.897-0.793 4.055-3.418 7.434-4.172 11.486-1.587 8.266-2.305 16.887-3.417 25.232-0.834 6.315-3.138 12.277-3.138 18.633 0 5.562-1.948 10.927-2.781 16.413-0.721 5.121-0.327 10.369-0.327 15.535 0 25.671-4.687 50.702-4.687 76.252-0.028 4.011-0.114 7.987-0.028 11.961 0.030 0.913 0.563 3.814-0.231 4.609-1.312 1.256-7.348 0.261-9.178 0.261-7.275 0-14.624 0.257-21.896-0.030-2.818-0.080-4.764-0.713-7.468-1.151-1.193-0.199-4.17 0.079-5.206-0.56-2.341-1.51-0.075-6.277 0.476-8.584 0.48-1.905 1.592-4.566 2.387-6.753 1.948-5.56 1.59-10.886 3.102-16.492 3.855-14.024 6.158-28.449 7.865-42.954 1.629-13.268 4.133-26.418 5.523-39.653 1.31-12.595 2.662-25.193 4.609-37.708 2.818-17.842 4.884-35.879 7.865-53.72 2.105-12.597 3.415-25.433 5.879-37.949 3.853-19.867 4.173-40.093 8.225-59.881 3.378-16.69 5.84-33.259 7.429-50.187 0.753-8.14 2.502-16.13 3.457-24.233 0.993-8.347 1.828-17.008 3.141-25.27 1.986-12.278 3.055-25.15 5.916-37.112 0.475-2.105-0.794-2.147 1.43-3.102 0.237-0.105 0.591-0.153 1.001-0.168zM367.405 290.617c1.395 0.022 2.702 0.122 3.685 0.345 3.337 0.795 5.364 1.589 9.337 1.589l77.443 0.016c-6.238 13.15-10.014 22.247-13.907 29.881-1.827 3.618-1.231 9.061-6.359 9.893-3.135 0.56-6.116-1.424-9.137-1.747-2.186-0.232-4.651 0.056-6.833 0.056-10.688 0-22.688 1.397-33.258-0.115-7.746-1.101-14.941-1.389-22.849-1.389-5.128 0-10.609 0.505-15.697 0.028-1.67-0.161-4.134-0.084-5.365-1.512-1.627-1.909 0.041-1.708 0.402-3.456 0.635-3.219 1.111-6.319 1.906-9.578 0.477-1.986 1.076-3.379 1.989-5.325 0.832-1.748 0.633-3.532 1.268-5.204 0.918-2.343 3.18-4.924 4.176-7.31 1.508-3.534 2.46-5.323 6.593-5.8 1.715-0.221 4.28-0.409 6.605-0.374zM617.277 302.56c4.372 0.002 8.671 0.249 12.724 1.040 4.171 0.795 8.384 1.552 12.597 2.346 3.18 0.596 6.201-0.116 9.337 0.289 2.741 0.326 5.004 1.552 7.869 1.629 2.382 0.056 3.056-0.117 5.004 1.032 3.059 1.786 5.364 6.517 7.074 9.58 1.59 2.898 2.466 5.919 3.9 8.778 1.469 2.902 3.694 5.204 5.482 8.065 2.581 4.091 3.137 6.159-2.74 6.040-19.827-0.361-39.654 0.056-59.483 0-2.103 0-4.451-0.289-6.557-0.056-3.261 0.323-5.801 2.306-9.137 1.353-3.935-1.112-8.027-3.975-8.98-7.71-0.477-1.946 0.058-3.771-0.259-5.764-0.4-2.224-1.552-3.736-1.713-6.079-0.201-4.052 0.030-8.183 3.181-19.826l0.016-0.038c6.904 0 14.397-0.683 21.685-0.681zM311.912 351.83c2.114-0.044 4.4 0.978 6.369 1.357 2.86 0.592 5.364 0.829 8.144 1.547 8.028 2.028 17.086-0.395 25.073 1.512 7.552 1.828 16.532 0.118 24.279 1.111 13.71 1.751 27.975 0.759 41.76 0.759h29.406c-1.59 16.009-2.587 20.934-4.651 25.9-1.429 3.419-2.699 8.387-4.927 11.284-2.501 3.298-5.402 2.466-9.493 2.466h-95.282c-12.918 0-26.347 1.549-38.824-1.868 1.711-4.888 5.92-9.495 7.274-14.903 0.75-2.897 0.992-5.521 1.785-8.418 0.671-2.466 0.992-4.452 1.708-6.833 0.634-2.105 1.112-3.895 1.944-6.079 0.874-2.187 0.675-5.487 2.704-6.955 0.844-0.621 1.769-0.861 2.73-0.88zM694.935 359.109c3.045 0.009 6.005 0.231 8.658 0.917 2.902 0.712 4.688 1.229 7.829 1.151 3.257-0.028 4.847-0.171 6.712 2.704 1.077 1.629 1.709 3.301 2.983 4.889 2.263 2.857 3.734 2.698 4.368 6.117 0.878 4.809 2.863 9.974 4.889 14.343 0.878 1.83 1.312 3.657 2.102 5.523 1.037 2.466 3.735 4.415 3.815 7.391-6.079 1.512-13.905 0.17-20.184 0.17h-23.564c-21.14 0-41.442-2.303-62.185-5.719-2.781-0.477-5.403-0.327-8.182-0.362-2.863-0.028-4.414-0.832-6.994-1.389-4.252-0.913-9.462 0.561-13.395-1.906-3.456-2.182-3.892-9.972-5.004-13.468-0.516-1.629-1.989-3.538-2.383-4.927-0.755-2.743-0.361-5.919 4.334-14.901v0.024h81.296c4.52 0 9.83-0.574 14.905-0.558zM266.175 421.891c3.327 0.042 7.868 1.786 10.501 1.821 10.729 0.289 21.496-0.028 32.225 0 9.343 0 17.881 1.512 27.142 1.512 28.088 0.028 56.184 0 84.279 0l-0.002 0.002c-3.128 12.634-2.811 14.865-3.1 16.812-0.282 2.105-1.235 2.58-1.672 4.448-0.841 3.417 0.58 7.269-0.289 10.768-1.469 5.909-3.457 6.112-9.297 6.082-6.159-0.030-12.318 0-18.479 0h-104.661c-7.429 0-14.861-0.030-22.294 0-2.462 0.039-5.123 0.389-7.51-0.289 1.747-4.013 3.536-8.46 4.689-12.635 1.109-4.054 2.81-8.183 2.98-12.199 0.1-2.382-0.278-4.606 0.359-6.87 0.276-1.072 1.070-1.907 1.27-3.059 0.256-1.27-0.434-2.666-0.147-3.895 0.448-1.937 2.008-2.524 4.005-2.498zM612.772 425.21l0.024 0.014h77.405c11.957 0 23.521 1.51 35.482 1.51 6.991 0.028 13.27 1.59 20.143 1.549 3.618-0.028 11.64-1.511 14.742 0.028 2.781 1.389 1.946 4.488 2.421 6.876 0.361 1.711 1.196 3.18 1.991 4.849 2.307 4.767 3.373 10.488 4.644 15.692 1.152 4.609 3.577 8.701 4.212 13.471-21.853 4.132-46.207 1.747-68.661 1.747h-66.038c-7.352 0-14.66 0.476-21.655-1.195-2.823-0.674-4.012 0.361-4.77-2.541-0.516-2.065 0.030-5.523 0.056-7.71 0.030-4.963-2.345-8.103-3.215-12.952-0.478-2.781-0.4-4.888-1.111-7.627-0.674-2.464-0.361-5.049 4.327-13.711zM233.552 482.971c1.743-0.017 3.84 0.669 5.255 0.919 6.718 1.234 13.472 3.772 20.345 4.010 8.981 0.287 17.361-0.552 26.262 1.389 9.098 2.024 18.875 2.382 28.173 2.942 8.543 0.477 16.607 0 25.034 1.311 8.147 1.229 16.93 0.322 25.153 0.322 19.907 0 39.774 0.001 59.685 3.057l0.002-0.054v24.399c0 1.431 0.718 4.927 0.117 6.198-0.996 2.107-2.743 1.469-5.048 1.43-8.268-0.146-16.53 0-24.794 0-9.018 0-18.158-0.32-27.181-0.054-5.843 0.172-11.406 1.51-17.246 1.67-5.958 0.116-11.962-0.056-17.96-0.056h-20.184c-9.617 0-18.64-2.781-28.215-3.1-6.597-0.172-12.794-2.66-19.111-3.017-6.672-0.401-12.795-1.591-19.59-1.47-5.683 0.056-10.768-1.589-16.411-1.547-3.895 0.030-11.401 1.747-9.059-4.25 0.516-1.354 2.463-3.101 3.219-4.572 0.832-1.551 1.513-3.181 2.266-4.927 0.955-2.065 2.101-4.131 3.179-6.117 1.551-2.823 1.236-3.773 1.909-6.915 0.396-1.711 1.311-2.704 1.67-4.415 0.323-1.469-0.918-4.847 0-6.117 0.567-0.76 1.487-1.024 2.532-1.034zM793.206 493.241c1.754-0.055 3.343 0.040 4.358 0.488 2.66 1.187 1.432 8.58 2.226 11.482 0.596 2.263 1.551 4.652 2.028 6.915 0.516 2.541-0.117 5.167 0.632 7.669 1.59 5.244 6.401 6.914 9.184 11.242 1.033 1.672 1.584 1.906 1.545 3.974-0.030 3.056-0.36 2.74-3.176 3.057-5.048 0.56-10.65 0-15.735 0h-74.741c-11.482 0-22.769 0.478-34.091-1.188-9.298-1.431-18.714-1.989-28.175-1.87-3.657 0.030-6.116-1.153-9.615-1.629-3.378-0.441-7.312 0.056-10.689 0.056-2.263 0-4.731 0.288-6.955 0.030-3.815-0.438-2.421-0.517-3.26-3.815-2.464-9.42-9.059-18.361-6.117-34.336v0.037c40.566 0 81.137-0.056 121.706 0 9.139 0.030 17.998-1.585 27.058-1.508 5.205 0.030 10.412 0 15.578 0 1.935 0 5.315-0.514 8.239-0.606zM163.985 553.447c3.856 3.217 13.753 1.389 18.441 1.389 11.007 0 22.091-0.474 33.017 0.756 8.303 0.913 16.489 1.823 24.794 2.224 3.696 0.16 7.508 1.272 11.165 1.947 8.584 1.587 16.892 2.781 25.594 3.456 13.787 1.075 27.694 2.226 41.365 4.215 12.039 1.713 23.959 2.226 35.921 3.816 11.046 1.513 22.808 0.359 33.933 0.359h16.45l-0.010 0.022c-7.193 11.363-6.557 17.681-4.289 24.399 1.112 3.338 3.099 9.733-1.113 10.729-5.879 1.401-14.896-0.028-20.622-0.028-9.177 0-18.278 0.352-27.296-1.195-6.396-1.119-13.426-0.362-19.867-0.362h-31.515c-11.998 0-23.679-0.198-35.597-1.193-10.726-0.874-21.491 0.678-32.023-1.787-4.094-0.952-8.028-2.264-12.24-2.898-5.482-0.812-11.406-0.261-16.967-0.261-8.979 0.060-17.998 0.030-26.979 0.030-5.876 0-11.757-0.056-17.601 0-2.224 0-5.206 0.677-6.791-1.071 1.502-1.709 0.542-3.141 0.868-5.048 0.317-1.828 1.075-4.449 1.591-6.157 0.996-3.18 2.782-5.804 4.051-9.018 1.507-3.898 1.55-8.306 2.183-12.28 0.679-4.096 2.94-7.83 3.536-12.042zM820.667 565.431c0.753 0.001 1.503 0.008 2.247 0.030 3.059 0.116 5.284 1.269 8.144 1.629 4.334 0.516 9.896-1.51 13.352 1.43 2.981 2.508 1.114 8.462 1.909 12.555 0.956 4.927 2.183 10.215 4.731 14.665 1.229 2.182 1.746 3.694 2.738 6.117 0.836 1.907 2.104 2.903 3.141 4.731 0.87 1.59 4.448 8.94 2.901 10.532-0.913 0.913-5.322 0.36-6.597 0.551-6.718 1.112-13.314 1.87-20.143 0.834-10.932-1.59-21.976-2.382-32.864-4.212-19.868-3.299-39.179-2.623-59.244-2.98-7.946-0.116-15.699-1.867-23.522-2.819-6.039-0.72-12.24-0.287-18.316-0.287-9.974-0.030-19.985 0-29.96 0-7.827 0-16.015 0.794-23.364-1.195-5.56-1.551-12.197 2.067-16.171-2.94-2.263-2.818-1.747-5.086-2.704-8.182-0.755-2.424-1.672-3.101-1.629-6.004 0.056-5.085 0.001-10.17 3.141-24.392h-0.006l0.006-0.002c0 0 0 0.002 0 0.002h185.399c2.265 0 4.552-0.065 6.812-0.061zM645.1 646.244c2.237-0.065 3.982 0.487 6.24 1.179 5.681 1.708 11.52 1.949 17.405 2.861 23.165 3.616 46.332 6.832 69.812 6.716 38.739-0.146 77.52 0 116.304 0h20.859c3.18 0 9.737-1.312 12.639-0.115 2.699 1.151 1.428 6.676 1.428 9.495 0 3.974-0.437 8.109 0.362 12.042 0.634 3.219 0.597 6.796 1.351 9.891 0.836 3.536 3.378 6.719 4.968 9.78 2.024 3.815 1.112 8.901 1.51 13.111 0.287 2.424 1.908 2.662-1.785 3.655-2.263 0.599-5.005 0.117-7.31 0.173-4.849 0.261-9.659 1.035-14.544 1.272-11.446 0.552-23.923 1.072-35.365 0-6.122-0.552-11.644-1.469-17.801-1.43-9.857 0.030-19.869 0.639-29.645-0.325-9.495-0.874-18.632-1.196-28.168-1.113-9.222 0.030-18.162-1.351-27.34-1.672-13.351-0.477-26.82 0.479-40.17 0.173-5.285-0.172-10.173-1.431-15.377-1.672-4.727-0.261-9.575 0.056-14.343 0.056-4.328 0-11.522 1.35-15.618 0.056-0.634-0.172-1.829-1.23-2.066-1.274-0.993-0.261-2.78 0.058-3.456-0.436-2.103-1.512-0.517-3.815 0.287-5.84 1.504-3.898 2.464-8.066 3.215-12.159 1.312-6.914 0.361-13.433-2.464-19.748-2.303-5.158-3.494-8.343-1.912-24.614-0.002 0-0.004 0-0.006 0l0.012-0.061c-0.002 0.022-0.004 0.038-0.006 0.061 0.34-0.036 0.667-0.057 0.985-0.067zM150.35 649.043c1.283-0.026 2.535 0.018 3.667 0.228 2.345 0.394 4.172 1.375 6.597 1.662 11.046 1.217 23.081-0.056 34.21-0.056h197.28c0.014-0.023 0.024-0.045 0.038-0.068l0.004 0.068h-0.042c-7.778 13.382-6.198 20.132-6.198 27.548 0 4.014 0.088 8.025-0.028 12.080-0.083 3.256-1.351 5.641-1.83 8.821-2.145 0.357-3.897 1.468-6 1.87-2.187 0.459-5.090-0.056-7.354-0.056-13.308 0.039-26.421-1.569-39.732-1.512-30.476 0.116-60.955 0-91.391 0-30 0-59.999-0.030-90.002 0-9.137 0-18.157 0.236-27.256-0.759-3.102-0.356-10.212 0.442-12.793-1.627-3.856-3.019 0.509-4.609 2.181-7.074 4.806-7.233 4.647-17.323 8.78-25.034 1.669-3.177 4.332-7.788 5.325-11.244 0.475-1.713-0.238-3.501 1.151-4.53 0.83-0.629 3.575-0.060 4.647-0.030 4.133 0.030 8.264-0.030 12.435 0 1.937 0 4.169-0.241 6.308-0.285z"></path>
    </svg>