<svg xmlns="http://www.w3.org/2000/svg" viewBox="31.794 32.521 953.272 959.453">
    <path fill="#000000" d="M592.504 920.532c-0.010-0.010-0.014-0.017-0.020-0.026-0.083 0.051-0.078 0.067 0.020 0.026z"></path>
    <path fill="#000000" d="M655.015 892.641c-0.018 0-0.060 0.019-0.157 0.109 0.067-0.050 0.094-0.062 0.157-0.109z"></path>
    <path fill="#000000" d="M787.961 755.723c0.574-0.389 1.32-0.982 2.423-1.837-0.815 0.592-1.619 1.217-2.423 1.837z"></path>
    <path fill="#000000" d="M459.776 32.528c-1.61 0.887-3.12 1.718-4.647 2.528-1.028 0.424-2.040 0.884-2.938 1.351-1.842 0.726-3.565 1.545-5.234 2.231-3.338 1.33-6.35 2.488-8.703 3.641l5.291-3.641c-3.209 2.184-5.934 3.632-8.76 5.176l3.996-0.294c-3.467 1.54-6.224 2.993-6.525 2.353-2.862 2.826 3.907 1.034-2.177 5.998-2.394 0.853-5.629 2.879-8.584 4.588-1.496 0.814-2.971 1.482-4.172 2-0.641 0.193-1.117 0.425-1.589 0.469-0.288 0-0.493-0.103-0.703-0.352 0.193-0.030 1.162-0.52 1.765-0.822 0.685-0.363 1.253-0.729 1.765-0.939 0.9-0.512 1.423-0.862 1.765-1.117 0.56-0.56 0.187-0.727-0.295-0.763-0.791-0.187-1.816-0.393 1.293-2.441-1.747 1.019-3.761 2.062-6.173 3.148-0.601 0.030 0.273-0.739 1.115-1.29-0.943 0.36-2.373 0.964-2.586 0.997-0.129-0.030-0.142-0.030-0.236 0-0.129-0.030-0.175 0.026-0.175 0.058-0.288 0.065-1.182 0.193-1.529 0.352-0.984 0.288-1.614 0.675-2.469 1.058-1.669 0.77-4.023 1.636-10.703 1.765 1.333-0.846-0.793-1.355-3.116-1.648 1.486 0.596-1.425 1.937-5.762 2.704-10.058-0.682-10.902 0.939-16.168 0.939l5.995 0.294c-0.937 0.604-2.668 0.959-4.94 1.174-2.358 0.159-5.38 0.298-8.938 0.529-0.258 0.065-0.637 0.159-0.939 0.352-0.223-0.159 0.136-0.48 0.822-0.822-2.612 0.984-3.881 1.366-5.939 1.882-1.971 0.322-4.031 0.69-6.173 1.117-4.196 0.77-8.655 1.766-12.936 3.821-5.054 0.77-1.116-2.029-5.527-1.174-4.28 2.056-7.279 2.856-9.933 3.409-1.324 0.288-2.512 0.461-3.879 0.761-0.689 0.129-1.348 0.322-2.119 0.471-0.4 0.129-0.793 0.162-1.176 0.292-0.726 0.193-1.39 0.446-2.116 0.644-0.689 0.424-1.406 0.868-2.177 1.29-0.431 0.223-0.942 0.585-1.41 0.882-0.989 0.641-2.003 1.435-3.116 2.292 3.982-0.56 4.303-1.201-2.589 4.88l10.348-7.114 9.407-3.641-4.172 2.292c-1.588 0.77-2.335 1.281-4.822 2.353-1.882 1.411-2.531 2.188-3.641 3.174 1.286-0.814 2.657-1.732 3.937-2.589 1.374-0.512 2.711-1.058 3.996-1.529 1.202-0.472 2.262-0.968 3.291-1.351 2.141-0.9 4.070-1.552 5.527-1.941-5.739 3.299-5.3 2.712-2 3.057-1.798 0.030-3.49 0.357-5.115 0.763-0.814 0.193-1.7 0.52-2.469 0.822l-2.882 1.115c-2.265 1.669-4.536 3.317-6.936 5.115-2.265 1.628-4.715 3.136-7.587 4.291l-1.823-3.526c-10.105 4.625-17.637 11.334-26.929 17.757-2.999 1.628-7.59 3.846-12.171 5.644l6.056-2c-1.752 2.525-10.986 5.254-16.462 8.467-0.030-1.453-3.816-0.197-6.642 0.061 0.641 0.81-12.954 5.855-13.643 9.111l-2.353 0.705-2.116 1.529-1.589 0.997-3.057 1.942c-11.946 10.404-10.394 15.254-21.692 25.398 2.31-4.193-3.357-0.073 3.233-7.879-3.635 3.51-7.065 6.444-6.466 7.171-0.596 0.288-1.439 1.043-2.292 1.942-0.943 1.068-2.096 2.407-3.291 3.821-1.072 1.971-2.283 4.145-3.352 6.115-1.028 1.709-2.018 3.215-2.999 4.114-0.726 2.1 0.081 3.448-3.057 8.114-0.393 0.263-0.536 0.030-0.595-0.161-0.082 1.206-3.859 7.498-0.163 4.399-2.697 2.394-5.343 5.575-7.997 9.172-1.33 1.709-2.597 3.619-3.879 5.585-1.202 1.798-2.383 3.628-3.587 5.47-2.056 1.839-4.176 3.747-6.232 5.585-2.184 1.842-4.351 3.729-6.408 5.527-4.199 3.467-8.249 6.328-11.759 7.998-4.495 4.193-9.384 8.793-13.879 12.99-2.184 6.207-4.209 11.892-5.879 16.817-0.159-0.77-0.598-0.279 0.175-2-5.953 12.585 0.665 9.294-6.056 23.637-4.84 6.806 1.716-8.23-0.763-3.823-1.411 0.159-2.421 1.626-3.409 3.937-0.468 1.157-0.953 2.546-1.47 3.998-0.363 1.33-1.074 3.469-1.115 3.937-0.129 0.36-0.892 1.531-1.706 2.647l-2.292 3.409c-1.588 2.137-3.336 4.088-5.176 5.585l1.351-2.231c-6.036 5.607-10.444 16.964-18.579 27.456 0 0-0.039-0.77-0.586-0.471-0.193 0.689-0.707 1.829-1.648 3.411-0.472 2.525-1.049 5.413-1.648 8.584-0.596 2.862-1.291 5.926-2.060 9.053-1.54 6.25-3.262 12.751-4.763 18.402-0.428-4.283 0.869-5.771-1.529-4.057-1.54 5.56 3.149-0.698 0.115 10.348-0.9 1.459-1.83 3.218-3.116 5.704-1.157 3.425-2.266 6.085-3.468 6.642l0.999-7.23 1.349-4.114c-0.4 0.512-0.889 0.929-1.232 1.529-0.322 0.512-0.59 1.195-1.058 2.353-0.129 0.814-0.289 1.555-0.469 2.411l-0.352 2.058c-0.129 1.367-0.112 2.748-0.175 4.115-0.129 2.742-0.265 5.401-0.822 7.585l-0.941-0.939c-2.056 15.972 0.388 17.213-2.116 33.394-0.030 0.193-0.172 0.523-0.236 0.822 0.193-0.322 0.434-0.553 0.644-0.763 0.159-0.159 0.349-0.277 0.529-0.586 0.030 0.4 0.026 0.532 0.058 0.703 0 8.819-3.438 6.899-3.823 16.401l-3.351 2.177c-0.984 6.293-2.683 22.441-5.47 33.57 0.129-6.68 2.131-20.049 3.118-28.395-1.055 4.080-2.1 10.404-3.118 16.285 0.4 8.181-1.856 18.101-5.41 30.218-1.411-1.157-3.12 1.773-4.88 6.527-0.9 2.358-1.781 5.237-2.765 8.231-1.072 3.385-2.163 6.937-3.233 10.404 0.159 1.238 0.391 2.508 0.588 3.701 0.065 0.858 0.162 1.654 0.292 2.472 0.159 1.54 0.421 3.128 0.529 4.586 0.159 2.826 0.089 5.165-0.294 6.878 1.453 5.307 2.618 10.728 3.643 16.168 0.472 2.742 0.954 5.504 1.468 8.29 0.431 2.955 0.884 5.839 1.351 8.877 1.842 5.734 3.717 11.604 5.644 17.639 1.927 5.86 3.98 11.901 6.29 18.108 0.685-10.061 2.676 7.091 6.056 4.174 0.989 2.567 1.643 4.331 2.119 5.527 0.129 0.9 0.271 2.128 0.175 2.292v0.058l0.41 18.579c-0.512 4.495-1.836-5.607-2.647-4.88 1.798 13.146-0.825 5.779-0.527 14.64 1.202-2.009 2.784 4.238 3.468 11.818l0.234-10.82c2.439 8.646 2.258 12.23 2.177 16.815 0.322 5.093 0.16 8.748 3.762 18.168l-2.706-5.412c1.238 3.596 2.848 9.679 4.647 16.226 0.984 3.295 1.941 6.699 2.882 9.994 0.56 1.588 1.117 3.222 1.589 4.766 0.641 1.714 1.249 3.337 1.765 4.88 0.733 1.588 0.907 1.816 1.29 2.586 0.431 0.641 0.777 1.209 1.117 1.765 0.726 1.157 1.552 2.171 2.231 2.94 0.159 1.752-0.058 4.221-1.941 0.41 2.358 6.208 5.159 12.756 8.114 19.225 3.084 6.68 6.217 13.394 9.172 19.816 1.669 2.31 3.293 4.5 4.88 6.642 1.367 1.962 2.711 3.875 3.996 5.764 2.569 3.761 4.772 7.333 6.527 10.761l-1.765-0.941c2.612 3.425 5.753 5.178 7.938 10.228-0.56 0-1.894-0.906-0.822 0.763 0.512 0.596 1.628 1.855 2.999 3.352 0.641 0.77 1.288 1.548 2.058 2.411 0.77 0.984 1.317 1.528 2.647 3.409 0.943 0.858 1.922 1.83 2.821 2.647 0.726 0.726 1.338 1.369 1.942 2.058l-4.291-2.586c15.327 16.57 26.675 21.977 40.806 34.392-2.1 2.142 10.028 14.835 16.108 21.167l-0.529 0.058c4.625 4.408 9.005 8.327 13.286 12.052 4.108 3.892 8.118 7.539 12.054 11.054 4.027 3.551 7.884 7.031 11.993 10.586 1.968 1.842 4.001 3.641 6.056 5.527 1.072 0.943 2.106 1.895 3.174 2.882 1.197 1.109 2.447 2.251 3.641 3.409 0.472 0.223 0.972 0.6 1.531 0.939 3.551 3.681 9.303 8.262 16.108 13.227 3.467 2.439 7.105 5.050 10.876 7.704 4.154 2.911 8.494 5.865 12.817 8.821 4.968 1.374 9.962 2.792 14.758 4.114 4.28 1.286 8.418 2.597 12.229 3.879-3.428-1.453 1.154-2.121 5.351-1.351 5.35 2.009 15.635 1.911 14.053 4.35l-1.882-0.588c0.512 0.56 1.275 1.134 2.175 1.65 0.4 0.223 0.839 0.508 1.351 0.761 0.641 0.193 0.319 0.141 0.529 0.353-0.223 0.030 1.524 1.155 2.763 1.882 1.374 0.814 2.728 1.652 4.174 2.469 2.915 1.588 5.96 3.266 8.702 4.763l2.999-2.411c3.165 2.782 6.939 5.426 11.054 7.997 2.016 1.286 4.090 2.623 6.231 3.823 2.394 1.33 4.792 2.556 7.232 3.879l7.405 2.469c2.226 0.685 4.462 1.311 6.644 2 4.408 1.367 8.804 2.682 12.696 3.879 7.88 2.531 14.305 5.11 17.815 7.938 0.9 0.159 1.116 0.182 2.999 0.644 2.697 0.363 5.672 0.714 8.584 1.057 2.785 0.288 5.514 0.673 7.997 0.763l-0.703 1.823c6.121 1.374 11.003 2.474 16.050 3.585 2.531 0.56 5.097 1.094 7.879 1.65 3.128 0.601 6.48 1.288 10.287 2.058 2.184-0.193 6.294-0.672 10.878-1.057l-3.937 1.706c11.047-0.726 13.546-6.592 23.694-7.405l3.235 2.646 8.409-0.527 8.702-0.352 10.761-1.531 10.17-1.589c6.766-1.157 13.442-2.665 19.991-4.763-0.223 0.468-0.727 1.414-3.762 2.058 2.652-0.431 6.817-1.024 11.23-1.706 2.481-0.129 5.008-0.233 7.407-0.352 2.525-0.159 4.966-0.403 6.936-0.703 3.605-0.506 5.884-1.261 5.363-2.353 2.307 1.784 20.249-1.546 29.972-3.526l-1.41 2.116c8.518-3.508 8.701-4.227 20.814-6.408 2.915-0.129 2.736 1.115-1.115 1.115 9.722-0.193 7.23-2.647 19.047-3.116l-4.172 1.765c4.84-0.56 7.089-0.954 8.76-1.468s2.686-1.080 6.115-2.233c0.030-0.030 0.202-0.198 0.352-0.292 0.814-0.596 1.72-1.334 2.704-2.060 0.77-0.512 1.668-0.99 2.53-1.589 1.798-1.117 3.701-2.291 5.585-3.233 3.681-1.883 7.044-3.16 8.114-2.821 0.553-1.626 4.361-5.685 9.582-8.469 1.028 0.129-0.579 1.564-1.349 2.292 3.428-1.842 6.289-3.697 8.819-5.41 1.286-0.943 2.447-1.731 3.641-2.586l1.589-1.234 0.999-0.763c0.512-0.288 2.055-0.87 3.468-1.293 1.374-0.472 2.683-0.983 4.057-1.407 2.697-0.77 5.457-1.39 8.584-1.648 0.4 0.512 1.088 0.628 2.116 0.586-7.533 1.882-14.104 3.646-17.872 4.588-0.77 0.472-1.364 0.832-1.708 0.997-0.279 0.182-0.468 0.28-0.565 0.322 0.412 0.636 2.666-0.171 2.92 0.208 0.472 0.159 0.684 0.347 0.939 0.642 0.129 0.288-0.030 0.839 0 1.351 0 0.095 0.027 0.233 0.058 0.352 0-0.065 0.026-0.233 0.058-0.352 0.553-0.193 1.073-0.449 1.589-0.703 1.202-0.472 2.408-1.030 3.643-1.589 2.486-1.028 5.122-2.119 7.819-3.233 5.355-2.184 10.949-4.14 15.874-5 0.512 0.030 0.99 0.047 1.41 0.175l-0.999 0.412c2.358-0.431 4.524-1.111 6.409-1.884 1.626-0.288 2.966-0.567 4.289-0.822 1.496-0.288 2.031-0.421 5.117-1.174 0.56 0.159 1.831 0.038 3.76-0.353 1.109-1.11 2.517-2.6 4.057-4.348 0.862-1.028 1.761-2.077 2.704-3.233 1.842-2.226 3.851-4.541 5.176-6.173-1.731-0.843 2.768-5.92-2.312-2.168 0.099 0.030-0.999 1.489-2.922 3.811-0.431 0.682-0.98 1.413-1.234 1.884 0-0.129 0.031-0.288 0.063-0.471l-6.936 8.469-5.881 1.589c1.202-0.689 3.611-1.604 5.41-2.294 0.641-0.9 1.311-1.827 2-2.763 0.56-0.73 1.181-1.582 1.825-2.353 1.068-1.374 2.352-2.651 3.937-3.937 0.814-2.908 1.811-6.031 2.411-7.704 6.766-3.851 16.978-13.746 19.461-14.17 1.713-2.272 3.466-4.689 5.349-7.171 2.567-2.184 5.21-4.462 7.821-6.644 2.785-2.439 5.445-4.767 8.056-6.995 5.097-4.667 9.437-9.092 11.876-12.817 3.338-3.209 4.754-2.472 6.466-3.116-1.927 1.962-4.415 3.89-5.232 5.176 6.465-6.72 21.969-16.373 22.224-19.758 10.187-5.825-4.025 5.666 8.819-3.879l-1.293 1.823c3.425-1.798 6.511-3.658 9.465-5.585 1.459-1.028 2.881-2.001 4.291-2.94 1.752-1.286 3.507-2.537 5.176-3.821l2.116-3.937 1.351-2.704 2.411-5.412c1.588-3.596 3.235-7.179 4.822-10.82 3.209-7.153 6.994-15.059 11.407-22.165 2.53-2.355 6.016-5.379 9.689-8.215-0.428 0.291-0.771 0.479-1.044 0.515 4.667-4.108 9.216-8.431 13.758-12.756l6.7-6.7 7.114-6.995c9.335-14.94 17.163-28.151 26.751-42.92l2.823-8.702 2.823-8.114c1.927-5.437 3.977-10.711 6.115-15.933 3.128-8.178 3.066-10.76 3.409-15.169 0-1.157 0.115-2.485 0.115-4.114l2.472-1.942 0.234-11.876c2.009-16.523 11.039-26.869 12.875-47.977l-1.942 2.353c2.009-7.278 4.818-23.44 6.056-21.811-0.030-0.858-0.838-2.668 0.529-5.41h1.174l0.352-2.706 0.644-3.641-1.41-3.937v0.175l-1.115-3.057-2.413-6.173c-2.999-14.001 4.752 1.123-0.469-19.166-2.486-7.406-8.847-20.579-8.763-17.58 0.769 3.036 1.461 7.907 0.471 8.467l-2.353-6.7c-0.193-0.030-0.491-0.053-0.703-0.117l-0.352-1.115 9.994-49.093-8.821-32.926 0.763 0.644-1.174-2.231-2.823-10.464c0.424 0.193 1.076 1.062 1.765 3.116-0.223-3.084-0.683-4.612-1.234-6.115-1.242-2.137-2.216-2.831-3.116-7.114-0.129-0.814 0.185-0.591 0.588 0l-3.998-6.642c1.157 1.109 1.294-2.023 2.882 2.469-4.283-13.271-11.325-19.383-11.583-24.988l0.705 0.941c-6.68-12.715-4.769-6.704-6.997-8.29l-0.117-0.352-1.174-8.35 2.647-7.113-2.294-1.648c-0.193-1.927-0.503-5.836 0.412-5.234-2.351-7.106-0.764 1.36-2.647-2.704 0.468-7.449-2.048-18.076-2.177-24.752-1.068-1.882-1.718-3.436-1.29-4.289-3.425-1.927 4.659 8.364-2.53 0.527 1.109-4.495-7.465-9.105-11.405-17.111 3.084 1.068 7.185 8.314 3.291 0.352-5.609-2.394-9.508-14.057-14.346-19.58-2.272 1.197-10.217-12.366-18.051-21.87 1.157 0.129-12.525-19.586-18.049-29.691l0.469 0.058c-3.295-0.428-9.565-10.434-14.875-17.284 1.411-0.553 2.832 0.385 5.998 3.879l-4.527-6.761c-1.752-1.109-3.472-3.017-6.644-7.171l2.704 0.703-2.411-3.233-3.291-2.763-2.882-2.353c-1.927-1.54-4.001-3.192-6.056-4.822-4.108-3.381-8.325-7.017-12.522-11.641-1.197 0.56 1.432 5.347-0.352 5.644l-5.468-5.115c0.596-0.223 1.529-0.074 3.116 1.057-1.028-0.77-3.882-2.397-5.47-4.408l5.412 2.823c-4.194-4.792-3.358-1.267-6.997-4.822 1.028-0.9-2.009-3.224-0.763-3.526 1.028 0.77 2.848 3.352 4.647 4.291-2.009-1.968-4.625-4.664-5.82-6.29-0.858-1.713-2.124-4.226-2.292-5.291-0.36 0.9-1.466 1.197-4.115-2.060-6.55-8.559-0.963-3.97-4.172-9.407-2.31-1.496-5.697-7.553-7.405-6.525-1.887-2.525-1.527-3.498-1.825-4.822-1.113-1.072-2.786-3.122-4.586-5.351-2.137-2.612-4.348-5.464-6.231-7.821-6.55-1.626-8.226-1.684-5.998 0l1.589 0.588c-0.363-0.030-0.732-0.169-1.115-0.234-7.578-1.324-15.101-3.559-22.637-5.998l-11.288-3.762c-3.596-1.202-7.017-2.357-10.525-3.468l-2.997-2.586-3.528-2.823 0.41-0.471c-8.733-6.46-18.591-15.362-25.396-19.342-2.439-2.056-4.949-5.829-3.409-5.527-0.984-0.733-1.874-1.452-2.472-1.882-1.54-0.641-2.811-1.117-4.055-1.589-1.157-0.468-2.254-0.956-3.409-1.47-2.352-1.157-5.056-2.668-9.465-5.41 8.006 2.656-2.132-2.168 8.056 3.057-9.422-5.308-11.154-7.364-22.282-10.878 4.237 0.159-6.137-5.495-11.23-7.466l6.349 4.527c-1.496-0.641-2.917-1.293-4.291-1.941-1.584-0.77-3.146-1.582-4.647-2.353-2.567-0.4-4.966-0.69-7.405-1.117l2.999-1.882c-10.658-2.782-20.597-2.872-29.928-3.174-4.625-0.129-9.097-0.324-13.463-0.88-4.283-0.604-8.331-2.001-12.229-3.879-5.992 0.424 11.548 3.359 6.115 4.172-9.848-2.229-19.569-7.443-22.696-7.997-5.479-1.628-8.714-1.794-11.583-1.706-1.459 0.065-2.729 0.169-4.233 0.234-0.726 0.030-1.597 0.030-2.411 0-0.943-0.030-1.567-0.036-3.233-0.292-1.028 0-2.114 0.058-3.352 0.058-1.072 0-2.27-0.081-3.641-0.175 1.887 0.853 3.641 2.945-7.23 3.584-10.105-0.472-12.42-3.559-5.998-4.114 2.439-0.030 3.616 0.221 3.526 0.529 3.299-0.223 7.549-0.524 3.528-1.47l-1.351 0.822c-5.007-0.943-18.92-1.067-15.58-2.353-7.706 0.689-3.395 1.249 2.294 1.765-8.388-0.937-14.792-0.796-21.343-0.88-3.084-0.193-7.323-0.612-11.818-1.29 2.092 0.641 3.982 1.741 1.882 1.529-19.477-2.785-8.722 0.716-21.989-0.117-7.408-1.882 2.936-2.657-10.464-2.823-8.091-1.588-1.549-2.257 1.708-2.646-1.459 0.030-2.881 0.030-4.291 0l-2.999-0.175c-1.181-0.127-2.331-0.21-3.468-0.353h-0.061v-0.012zM489.026 92.613l8.193 5.557c3.928 3.171 4.309 13.997 5.482 18.614 1.895 7.485 3.587 37.896 4.863 45.342 2 11.551 0.584 47.927 0.618 59.719 0.024 5.104 1.899 11.625-2.551 14.037-2.691 1.482-10.586 2.518-13.895 2.69-5.346 0.32-11.136 0.32-16.483 0-2.618-0.127-13.447-1.589-14.996-2.968-3.45-3.068 1.1-9.101 1.342-13.758 0.256-5.034-0.052-33.891-0.052-38.927 0-4.932-0.721-10.481-0.051-15.345 0.654-4.898 2.617-7.24 2.826-12.411 0.23-5.034-0.726-32.656-0.052-37.619 0.619-4.825 2.376-7.341 2.791-12.411 0.587-7.241 1.347-7.449 8.312-9.796 4.517-1.552 8.552-2.828 13.653-2.722zM530.133 126.657l0.012 0.026c0 1.089 0.014 2.185 0.024 3.279 1.924 5.199 12.431 8.259 16.413 10.453 8.067 4.412 15.655 9.931 23.722 14.586 28.408 16.378 47.097 25.79 78.132 35.48 18.478 5.794 36.031 6.377 51.099 19.55 9.515 8.313 16.722 17.002 23.205 28.033 7.277 12.348 16.651 24.345 25.343 35.792 10.379 13.659 20.549 27.93 32.374 40.309 20.896 21.827 37.726 51.341 39.828 81.961 0.897 13.104 2.724 25.549 2.724 38.824 0.026 16.17 0 32.309 0 48.481 0.037 13.066 1.001 26.24-1.482 39.134-1.93 9.829-4.86 19.415-6.754 29.239-3.173 16.172-4.761 32.656-13.724 46.482-7.209 11.173-12.587 22.929-20.311 33.827-7.792 11.001-14.239 21.858-20.757 33.582-3.758 6.724-7.069 12.205-9.794 19.447-1.93 5.104-2.312 4.723-6.585 8.031-10.721 8.311-18.171 19.791-29.653 27.447-8.136 5.449-16.961 9.415-25.101 14.653-4.137 2.658-6.204 4.795-11.102 6.21-14.583 4.137-28.789 9.067-43.477 13.1-18.761 5.171-38.447 12.138-57.893 13.966-5.241 0.48-10.034 2.31-15.24 2.861-8.204 0.875-16.859-0.127-25.169-0.127-28.618 0-57.168 0.382-85.133-5.687-6.174-1.342-11.137-5.964-17.173-7.757-3.965-1.172-7.484-1.515-11.412-3.172-9.242-3.827-18.516-7.794-27.239-12.619-20.789-11.479-45.272-11.584-67.407-19.41-9.241-3.239-17.895-7.034-24.723-14.204-8.45-8.899-12.143-23.275-17.829-33.827-7.69-14.31-18.55-31.034-19.376-47.893-0.931-19.724 1.239-37.137 8.376-55.55 4.38-11.274 4.829-23.758 5.208-35.687 0.241-7.83 3.86-14.657 5.239-22.207 0.961-5.171-0.175-10.378 0.861-15.517 2.724-13.582 11.896-25.272 15.482-38.271 2.965-10.792 7.035-16.070 14.311-24.38 11.964-13.618 23.584-29.547 32.72-45.372 4.103-7.141 11.137-14.451 16.553-20.691 6.208-7.141 14.894-11.413 21.069-18.689 9.207-10.794 22.308-20.070 36.583-20.862 10.412-0.553 20.065-2.756 30.584-2.756h30.584c14.137 0 29.031-1.482 42.892 1.379 9.413 1.928 18.794 1.379 28.415 1.379 10.033 0.034 18.896-0.517 28.271 3.104 6.137 2.383 12.484 4.73 18.449 7.209 4.519 1.863 6.827 4.825 10.378 7.516 3.382 2.517 7.723 4.173 11.135 7.141 6.311 5.483 11.449 12.205 16.378 18.896 8.826 12.068 16.204 25.064 20.62 39.513 2.205 7.241 2.379 14.93 4.689 22.308 2.722 8.553 2.066 16.963 2.066 26.171 0 7.895 0.28 15.861 0.051 23.758-0.207 7.722-3.588 13.583-5.277 20.824-2.893 12.378-5.651 24.444-9.825 36.444-2.48 7.277-6.962 13.277-11.307 19.414-6.139 8.652-10.763 10.1-19.828 14.996-5.485 2.968-9.966 6.862-15.587 9.723-6.307 3.207-12.166 5.794-18.34 9.069-14.758 7.794-32.034 7.070-48.306 6.276-13.138-0.621-29.136-6.827-41.791-11.171-14.414-4.932-29.308-10.205-43.928-14.586-9.654-2.901-25.652-14.863-27.55-25.587-0.815-4.758-0.85-13.411-0.024-18.207 0.516-2.897 1.761-8.274 3.104-10.858 1.377-2.588 3.691-4.485 5.034-7.106 3.725-7.205 3.932-14.894 9.517-21.032 3.035-3.313 4.38-6.379 7.104-9.933 5.997-7.893 15.069-12.411 22.031-19.101 16.379-15.721 48.927-19.098 62.1 1.104-18.823-15.862-43.407-2.963-59.269 11.93-8.345 7.824-18.759 20.412-19.346 32.791-0.654 14.066 4.688 25.445 13.172 36.272 4.069 5.173 8.863 7.484 14.343 10.966 3.345 2.137 6.756 4.623 10.378 6.311 1.928 0.933 4.139 1.104 6.034 1.898 3.964 1.654 6.863 4.655 11.034 5.826 2.312 0.658 5.864 1.451 8.241 2.037 6.311 1.552 12.654 3.429 19.204 3.379 12.619-0.172 29.136 3.14 41.204-0.551 7.344-2.241 15.036-6.691 22.070-9.897 5.858-2.618 5.966-5.101 10.791-9.136 2.656-2.239 5.897-2.895 8.448-5.344 4.205-4.070 8.897-11.379 11.519-16.483 5.929-11.483 12.686-26.274 13.237-39.307 0.839-20.515 1.287-42.721-0.127-63.273-0.931-14.036-8.342-27.028-13.1-40.065-4.208-11.519-11.206-20.829-19.897-29.275-10.411-10.067-26.931-16.41-41.205-17.342-9.998-0.656-19.514-2.793-29.616-2.691-9.379 0.052-18.795-0.126-28.175-0.101-7.654 0.066-14.379 2.48-21.928 2.999-4.24 0.299-8.688-0.802-12.894-0.287-9.449 1.106-17.896 4.934-26.791 7.795-25.654 8.241-47.274 23.583-64.029 45.204-6.69 8.62-10.798 19.242-16.931 28.413-5.275 7.83-9.654 16.104-13.104 24.931-7.204 18.342-7.273 38.923-10.996 57.853-2.383 12.070-0.572 25.759-0.624 37.998-0.037 12 1.032 20.618 4.723 31.86 3.482 10.482 7.276 21.068 12.415 30.86 4.481 8.482 7.723 18.516 12.999 26.413 6.722 10.067 16.445 17.167 24.826 25.616 2.929 2.965 5.443 5.719 8.031 8.962 3.86 4.795 6.757 5.139 11.274 8.346 3.414 2.416 5.381 5.689 8.554 8.413 4.033 3.412 8.584 4.48 12.722 7.548 3.657 2.689 4.726 4.174 9.344 6.244 4.55 2.031 9.101 4.030 13.859 5.652 11.136 3.79 22.791 6.553 34.414 7.55 6.793 0.587 11.933 2.845 19.032 2.795 14.69-0.173 27.585-0.174 41.997-3.486 18.962-4.31 38.068-5.378 57.034-11.171 6.69-2.033 13.065-2.106 19.618-4.105 3.928-1.206 7.895-1.349 11.825-2.656 4.415-1.447 8.139-4.38 12.484-5.826 14.722-4.863 29.342-10.138 39.72-22.173 5.587-6.449 12.242-11.898 18.31-17.757 8.311-7.998 15.276-17.723 22.278-26.824 3.343-4.343 8.031-7.588 10.966-12.205 2.136-3.311 3.344-7.205 5.344-10.584 3.171-5.275 5.931-10.759 8.241-16.518 5.309-13.102 10.723-26.823 11.069-41.064 0.239-9.587 3.103-17.413 4.792-26.824 2.173-12.139 0.624-25.485 0.624-37.791 0-18.104 2.517-37.964-2-55.41-3.519-13.586-7.242-26.691-12.381-39.792-3.552-9-5.689-17.588-9.655-26.343-6.24-13.687-15.654-25.688-21.858-39.447-4.345-9.48-11.105-16.272-16.549-25.133-5.072-8.239-10.070-15.691-17.174-22.31-13.036-12.169-25.755-24.343-41.789-32.654-7.308-3.792-16.032-6.411-23.548-9.687-4.379-1.93-9.242-2.482-14.275-4.138-12.758-4.205-25.134-9.103-38.479-9.001-12.722 0.075-13.864-0.744-26.551-0.052-5.898 0.31-10.307 2.93-16.483 2.827-5.689-0.103-8.583 0.172-13.136 2.656-2.139-6.411-0.586-17.065-0.586-23.685 0-9.656-0.278-18.621 1.379-28.068 2.259-12.825 1.53-26.203 1.403-39.305-0.376-1.017-0.431-2.115-0.037-3.306zM432.461 142.889l0.012 0.038c-0.022 0.061-0.037 0.117-0.058 0.178-0.145 0.757-0.316 1.512-0.474 2.268-0.057 0.011-0.114 0.023-0.172 0.035-1.416 6.895 2.724 11.281 3.809 18.207 0.467 2.831-0.103 5.414 0.521 8.241 0.723 3.345 3.999 4.415 1.827 9.241-13.724-3.104-30.066-4.829-43.893-0.448-3.209 1.001-5.791 1.35-8.861 2.795-4.861 2.308-7.448 6.445-11.896 9.241-1.863 1.174-5.686 2.346-7.827 3.344-4.41 2.137-8.547 4.655-12.894 6.862-13.204 6.793-26.894 16.623-38.065 26.311-15.344 13.345-30.962 22.272-42.823 39.168-11.758 16.654-34.446 34.863-37.445 55.652-0.544 3.657 0.305 6.964-0.521 10.519-0.757 3.241-2.413 4.996-2.31 9.479 0.172 6.376-2.067 11.582-3.587 17.757-0.996 3.967-1.278 8.039-2.173 11.967-0.551 2.48-2.652 3.068-3.239 5.584-1.701 6.927 0.127 16.822 0.127 23.962 0 14.378 2.206 25.722 8.721 37.685-9.172 3.104-8.204-1.209-17.583 0.448-4.965 0.897-8.343 2.983-13.55 3.136-3.307 0.126-13.1 1.557-16.24 0.178-5.344-2.379-2.756-17.997-2.756-23.893 0-3.928 0.049-7.863 0.024-11.825-0.069-5.277 1.792-8.415 2.688-13.277 1.415-7.587 1.585-14.689 3.792-22.205 1.996-6.759 6.308-14.172 8.929-20.757 2.551-6.415 6.824-13.036 9.963-19.139 4.827-9.411 10.377-18.136 15.998-27.202 2.585-4.105 4.62-8.383 7.516-12.241 0.965-1.349 2.789-2.036 3.722-3.348 2.59-3.689 3.448-8.755 5.692-12.656 4.311-7.551 7.723-15.274 11.169-22.962 3.519-7.858 7.863-14.172 12.726-21.482 1.93-2.964 2.069-6.479 3.758-9.273 1.552-2.622 5.967-5.172 8.724-6.999 6.345-4.206 13.173-8.237 19.517-12.136 4.999-3.136 9.69-7.207 15.24-10.035 13.862-7.034 30.378-14.482 43.928-22.516 12.414-7.378 24.617-12.41 38.859-15.755 5.898-1.383 12.239-5.316 18.413-6.761 6.36-1.472 13.225-3.549 19.998-4.863 0.152-0.738 0.356-1.501 0.646-2.302 0.014-0.072 0.033-0.143 0.047-0.216zM215.798 458.93c7.953 0 15.263 0.356 20.607 1.23v-0.014c-0.045-0.032-0.060-0.058 0-0.070v0.070c0.519 0.368 7.49 1.944 6.793 2.102-3.241 9.31 4.241 34.305-2.795 39.41-1.721 1.239-5.965-0.049-8.14 0.322-2.794 0.551-5.344 2.067-8.207 2.656-5.343 1.033-34.618 2.45-40.099 2.724-11.447 0.517-15.136-2.897-26.273-0.154-2.276 0.551-2.827 2.48-5.206 3.033-2.414 0.624-5.896-0.103-8.346-0.127-2.691 0-5.688-0.38-8.31-0.051-2.139 0.32-4.792 2.136-6.105 2.312-11.208 1.518-0.933-15.76 1.347-20.999 2.067-4.758 1.307-9.241 2.691-14.549 0.997-3.827 1.621-12.792 4.689-14.103 4.963-2.137 5.273 0.228 10.621 0.228 6.341 0 12.757 0.449 18.996-0.618 9.624-1.685 30.234-3.401 47.732-3.4zM852.166 462.473c5.154 0.104 11.776 3.202 17.023 3.156 5.929-0.052 33.862 0 39.792 0l-2.736 5.549c0 6.001-0.288 12.103 0 18.1 0.17 3.76 0.511 4.517 1.993 7.52 1.249 2.551 3.66 4.034 3.243 7.31-6.447 1.689-33.755 1.068-40.309 3.893-4.069 1.762-7.411 3.418-11.517 4.761-7.31 2.448-10.95 3.658-11.102-5.449-0.137-5.722-2.103-8.514-2.758-13.827-0.712-5.344 0.051-11.381 0.051-16.759-0.036-5.967-2.31-12.898 4.208-14.101 0.668-0.126 1.376-0.171 2.112-0.156zM187.993 515.481c2.59 0.024 5.21 0.202 7.486 0.301 5.241 0.256 11.62 4.275 13.585 9.481l0.002 0.012c-3.274 3.036-2.619 5.519-3.001 9.451-0.344 3.76-1.447 5.93-2.345 9.481-2 7.794-0.652 16.894-0.686 25.032-0.024 10.79 1.069 14.897 5.309 24.516 3.862 8.828 7.966 16.342 12.859 24.551 13.24 22.137 16.033 50.167 31.581 71.028 13.414 17.929 27.829 34.757 42.93 51.032 20.035 21.552 47.928 21.965 71.373 35.897 10.756 6.413 19.999 13.552 31.688 17.757 8.862 3.207 19.173 3.486 27.447 6.999 5.24 2.207 12.515 8.066 16.963 11.759-3.171 8.103-5.998 16.757-7.932 24.584-1.552 6.345 0.69 5.241-5.929 6.379-4.999 0.862-8.135-0.967-12.136-3.207-5.862-3.243-11.686-4.622-18.033-7.069-9.344-3.689-17.446-7.205-27.205-10.345-8.964-2.861-18.929-3.066-27.171-6.933-8.928-4.208-18.342-8.928-26.375-14.275-14.585-9.654-26.93-21.067-41.204-30.721-5.826-3.93-11.83-8.311-16.864-13.31-6.068-6.033-12.55-10.656-18.1-17.447-6.068-7.449-12.552-14.342-18.827-22.136-5.313-6.586-10.724-13.961-16.619-20.411-11.687-12.825-18.931-31.717-22.102-48.411-1.104-5.76-4.381-8.827-5.864-13.69-1.239-4.067-1.069-8.724-2.928-12.932-4.244-9.515-0.55-18.238-2.861-28.376-0.38-1.657-2.277-2.589-2.516-3.692-0.656-3.243-0.18-5.552-0.588-8.857-0.587-5.032-2.516-7.413-3.172-12.448-1.239-9.794 0.379-19.756 3.001-28.203 3.068-9.723 0.053-22.623 10.931-25.174 2.154-0.517 4.714-0.647 7.304-0.622zM867.048 537.125c3.14 4.928 2.344 7.966 2.964 13.067 0.551 4.483 2.484 6.554 3.136 10.999 0.517 3.586-1.136 7.793-0.231 11.307 0.652 2.515 2.619 2.76 3.243 5.279 0.652 2.448-0.103 5.964-0.127 8.481-0.051 8.793 0.551 16.757-2.205 24.998-2.965 8.793-7.311 17.722-11.759 25.616-4.067 7.277-8.346 14.381-12.551 21.48-4.896 8.241-11.309 16.449-15.624 24.446-7.171 13.516-14.204 28.727-23.134 41.242-5.277 7.38-13.173 12.791-20.345 18.378-7.862 6.137-13.999 14.102-20.171 21.827-11.033 13.755-22.895 28.548-37.617 38.789-7.071 4.863-12.861 11.379-19.895 15.931-8.518 5.516-17.174 7.863-26.036 12.516-9.272 4.863-18.201 6.344-28.271 8.932-5.621 1.415-10.551 4.999-15.967 6.478-5.794 1.622-10.449 2.141-16.24 3.932-12.617 3.965-26.684 9.001-40.138 10.652-10.79 1.312-22.893-0.026-33.827-0.127-2.274-0.026-5.442-0.652-7.548-0.127-2.448 0.551-3.137 3.033-5.62 3.207-2.691 0.153-11.862-3.549-13.587-5.723-2.588-3.243-1.692-9.932-1.416-14.035 0.38-6.036 4.209-8.62 8.929-24.998l-0.008-0.035c7.724-1.104 15.035 7.343 22.93 6.203 11.208-1.65 22.688-4.862 33.41-8.962 4.38-1.687 8.273-3.896 13.035-4.656 5.481-0.862 11.034 0.587 16.446-0.051 10.898-1.308 21.863-3.55 32.518-5.759 14.307-2.999 25.721-6.514 38.308-14.513 6.483-4.137 14.24-5.827 20.101-10.448 7.103-5.552 29.481-23.447 36.171-29.41 6.244-5.555 9.862-9.552 14.14-16.347 0.617-0.997 0.23-2.654 0.894-3.584 0.997-1.379 2.794-2.724 3.825-4.033 2.588-3.347 8.654-7.521 10.691-11.519 6.586-12.965 20.687-23.687 29.586-35.478 7.066-9.415 9.242-17.727 15.447-27.449 3.482-5.481 7.137-9.551 12.656-13.202 6.101-4.035 3.616-8.588 6.858-15.272 2.314-4.761 2.896-7.863 6.45-12.518 2.794-3.723 4.587-6.964 6.308-11.102 1.52-3.657 2.963-7.517 4.033-11.379 1.104-4.137 3.76-8.378 4.586-12.102 1.55-7.066-2.141-15.482-0.319-22.516 0.486-1.859 2.070-1.993 2.45-3.241 0.617-2.137 0.001-4.412 0.586-6.413 0.83-2.794 3.621-5.688 2.934-8.758zM469.057 785.075c1.237-0.001 2.827 0.094 4.879 0.119 5.481 0.051 10.966 0 16.446 0 11.725 0 22.623 0.935 20.586 16.658l-5.51-5.557c2.658 5.135 2.377 7.828 2.69 13.895 0.256 5.346 2.142 11.379 3.412 16.656 0.725 3.104 2.037 5.032 2.207 8.343 0.101 2.656-0.688 5.692-0.178 8.346 1.035 6.036 4.482 42.719 2.312 49.305-3.484 10.551-20.587 6.137-29.622 6.24-6.206 0.103-10.55-2.584-16.48-2.826-5.24-0.256-9.483 0.153-12.448-5.414-4.552-8.448-0.286-56.65 1.379-65.373 1.176-6.101 2.589-10.239 2.795-16.688 0.203-5.929 2.346-10.758 2.791-16.688 0.468-6.154 1.027-7.013 4.742-7.015z"></path>
    </svg>