<svg xmlns="http://www.w3.org/2000/svg" viewBox="31.784 32.000 953.302 959.985">
    <path fill="#000000" d="M72.71 453.125c0.117-0.053 0.254 0.258 0.397 0.982 0.457 2.313 0.457 6.104 0 8.417s-0.832 0.421-0.832-4.208c0-3.183 0.175-5.073 0.434-5.19z"></path>
    <path fill="#000000" d="M355.544 33.379c0.795-0.464 1.552-0.925 2.236-1.379-0.94 0.546-1.638 0.985-2.236 1.379z"></path>
    <path fill="#000000" d="M116.286 157.703c0.007-0.093-0.004-0.164-0.047-0.189 0 0 0.016 0.090 0.047 0.189z"></path>
    <path fill="#000000" d="M632.886 920.547c-0.010-0.010-0.014-0.017-0.020-0.026-0.083 0.051-0.078 0.067 0.020 0.026z"></path>
    <path fill="#000000" d="M695.4 892.655c-0.018 0-0.060 0.019-0.157 0.109 0.067-0.050 0.094-0.062 0.157-0.109z"></path>
    <path fill="#000000" d="M828.351 755.732c0.574-0.389 1.32-0.982 2.423-1.837-0.815 0.592-1.619 1.217-2.423 1.837z"></path>
    <path fill="#000000" d="M459.774 32.511c-1.61 0.887-3.12 1.718-4.647 2.528-1.028 0.424-2.040 0.884-2.938 1.351-1.842 0.726-3.565 1.545-5.234 2.231-3.338 1.33-6.351 2.488-8.704 3.641l5.291-3.641c-3.209 2.184-5.934 3.632-8.76 5.176l3.997-0.294c-3.467 1.54-6.224 2.993-6.525 2.353-2.862 2.827 3.907 1.034-2.177 5.998-2.394 0.853-5.629 2.879-8.585 4.588-1.496 0.814-2.971 1.482-4.172 2-0.641 0.193-1.117 0.425-1.589 0.469-0.288 0-0.493-0.103-0.703-0.352 0.193-0.030 1.162-0.52 1.765-0.822 0.685-0.363 1.253-0.729 1.765-0.939 0.9-0.512 1.423-0.862 1.765-1.117 0.56-0.56 0.187-0.727-0.294-0.763-0.791-0.187-1.816-0.393 1.293-2.441-1.747 1.019-3.761 2.062-6.173 3.148-0.601 0.030 0.273-0.739 1.115-1.29-0.943 0.36-2.373 0.964-2.587 0.997-0.129-0.030-0.142-0.030-0.236 0-0.129-0.030-0.175 0.026-0.175 0.058-0.288 0.065-1.182 0.193-1.529 0.352-0.984 0.288-1.614 0.675-2.469 1.058-1.669 0.77-4.023 1.636-10.703 1.765 1.333-0.846-0.793-1.355-3.116-1.648 1.486 0.596-1.425 1.937-5.762 2.704-10.058-0.682-10.902 0.939-16.168 0.939l5.995 0.294c-0.937 0.604-2.668 0.959-4.94 1.174-2.358 0.159-5.38 0.298-8.938 0.529-0.258 0.065-0.637 0.159-0.939 0.352-0.223-0.159 0.136-0.48 0.822-0.822-2.612 0.984-3.881 1.366-5.939 1.882-1.971 0.322-4.031 0.69-6.173 1.117-4.196 0.77-8.655 1.766-12.937 3.821-5.054 0.77-1.116-2.029-5.527-1.174-4.28 2.056-7.28 2.856-9.934 3.409-1.324 0.288-2.512 0.461-3.879 0.761-0.689 0.129-1.348 0.322-2.119 0.471-0.4 0.129-0.793 0.162-1.176 0.292-0.726 0.193-1.39 0.446-2.116 0.644-0.689 0.424-1.406 0.868-2.177 1.29-0.431 0.223-0.942 0.585-1.41 0.882-0.989 0.641-2.003 1.435-3.116 2.292 3.982-0.56 4.303-1.201-2.589 4.881l10.348-7.115 9.407-3.641-4.172 2.292c-1.588 0.77-2.335 1.281-4.822 2.353-1.882 1.411-2.531 2.188-3.641 3.174 1.286-0.814 2.657-1.732 3.937-2.589 1.374-0.512 2.711-1.058 3.997-1.529 1.202-0.472 2.262-0.968 3.292-1.351 2.141-0.9 4.070-1.552 5.527-1.941-5.739 3.299-5.301 2.712-2 3.057-1.798 0.030-3.49 0.357-5.115 0.763-0.814 0.193-1.7 0.52-2.469 0.822l-2.882 1.115c-2.265 1.669-4.537 3.317-6.937 5.115-2.265 1.628-4.715 3.137-7.587 4.291l-1.823-3.526c-10.105 4.625-17.637 11.334-26.93 17.757-2.999 1.628-7.59 3.847-12.172 5.645l6.056-2c-1.752 2.525-10.987 5.254-16.462 8.467-0.030-1.453-3.817-0.197-6.642 0.061 0.641 0.81-12.954 5.856-13.643 9.112l-2.353 0.705-2.116 1.529-1.589 0.997-3.057 1.942c-11.947 10.404-10.394 15.254-21.693 25.399 2.31-4.193-3.357-0.073 3.233-7.88-3.636 3.51-7.065 6.444-6.466 7.171-0.596 0.288-1.439 1.043-2.292 1.942-0.943 1.068-2.096 2.407-3.292 3.821-1.072 1.971-2.283 4.146-3.352 6.115-1.028 1.709-2.018 3.215-2.999 4.114-0.726 2.1 0.081 3.448-3.057 8.114-0.393 0.263-0.536 0.030-0.595-0.161-0.082 1.206-3.859 7.498-0.163 4.399-2.697 2.394-5.343 5.575-7.997 9.172-1.33 1.709-2.597 3.619-3.879 5.586-1.202 1.798-2.383 3.628-3.587 5.47-2.056 1.839-4.177 3.747-6.232 5.586-2.184 1.842-4.351 3.729-6.408 5.527-4.199 3.467-8.249 6.328-11.759 7.999-4.495 4.193-9.384 8.793-13.88 12.991-2.184 6.207-4.209 11.892-5.879 16.818-0.159-0.77-0.598-0.279 0.175-2-5.953 12.586 0.665 9.294-6.056 23.638-4.84 6.806 1.716-8.23-0.763-3.823-1.411 0.159-2.422 1.626-3.409 3.937-0.468 1.157-0.953 2.546-1.47 3.998-0.363 1.33-1.074 3.469-1.115 3.937-0.129 0.36-0.892 1.531-1.706 2.647l-2.292 3.409c-1.588 2.137-3.336 4.088-5.176 5.586l1.351-2.231c-6.037 5.607-10.445 16.965-18.579 27.457 0 0-0.039-0.77-0.586-0.471-0.193 0.689-0.707 1.829-1.648 3.411-0.472 2.525-1.049 5.413-1.648 8.585-0.596 2.862-1.291 5.926-2.060 9.053-1.54 6.25-3.262 12.752-4.763 18.403-0.428-4.283 0.869-5.771-1.529-4.057-1.54 5.56 3.149-0.698 0.115 10.348-0.9 1.459-1.83 3.218-3.116 5.705-1.157 3.425-2.266 6.085-3.468 6.642l0.999-7.23 1.349-4.114c-0.4 0.512-0.889 0.929-1.232 1.529-0.322 0.512-0.59 1.195-1.058 2.353-0.129 0.814-0.289 1.555-0.469 2.411l-0.352 2.058c-0.129 1.367-0.112 2.748-0.175 4.116-0.129 2.742-0.265 5.401-0.822 7.585l-0.941-0.939c-2.056 15.972 0.388 17.213-2.116 33.396-0.030 0.193-0.172 0.523-0.236 0.822 0.193-0.322 0.434-0.553 0.644-0.763 0.159-0.159 0.349-0.277 0.529-0.586 0.030 0.4 0.026 0.532 0.058 0.703 0 8.819-3.438 6.899-3.823 16.402l-3.351 2.177c-0.984 6.293-2.683 22.442-5.47 33.571 0.129-6.681 2.131-20.049 3.118-28.396-1.055 4.080-2.1 10.404-3.118 16.285 0.4 8.182-1.856 18.101-5.41 30.219-1.411-1.157-3.12 1.773-4.881 6.527-0.9 2.358-1.781 5.237-2.765 8.231-1.072 3.385-2.163 6.937-3.233 10.404 0.159 1.238 0.391 2.508 0.588 3.701 0.065 0.858 0.162 1.654 0.292 2.472 0.159 1.54 0.421 3.128 0.529 4.586 0.159 2.827 0.089 5.166-0.294 6.878 1.453 5.307 2.618 10.729 3.643 16.168 0.472 2.742 0.954 5.504 1.468 8.29 0.431 2.955 0.884 5.84 1.351 8.877 1.842 5.735 3.717 11.604 5.645 17.64 1.927 5.86 3.981 11.902 6.291 18.109 0.685-10.061 2.676 7.091 6.056 4.174 0.989 2.567 1.643 4.331 2.119 5.527 0.129 0.9 0.271 2.128 0.175 2.292v0.058l0.41 18.579c-0.512 4.495-1.836-5.607-2.647-4.881 1.798 13.147-0.825 5.779-0.527 14.641 1.202-2.009 2.784 4.239 3.468 11.818l0.234-10.821c2.439 8.647 2.258 12.231 2.177 16.816 0.322 5.093 0.16 8.748 3.762 18.169l-2.706-5.412c1.238 3.596 2.848 9.68 4.647 16.226 0.984 3.295 1.942 6.699 2.882 9.995 0.56 1.588 1.117 3.222 1.589 4.766 0.641 1.713 1.249 3.337 1.765 4.881 0.733 1.588 0.907 1.816 1.29 2.587 0.431 0.641 0.777 1.209 1.117 1.765 0.726 1.157 1.552 2.171 2.231 2.94 0.159 1.752-0.058 4.222-1.941 0.41 2.358 6.208 5.159 12.757 8.114 19.225 3.084 6.681 6.217 13.394 9.172 19.817 1.669 2.31 3.293 4.5 4.881 6.642 1.367 1.962 2.711 3.876 3.997 5.764 2.569 3.761 4.772 7.333 6.527 10.762l-1.765-0.941c2.612 3.425 5.753 5.178 7.939 10.228-0.56 0-1.894-0.906-0.822 0.763 0.512 0.596 1.628 1.855 2.999 3.352 0.641 0.77 1.288 1.548 2.058 2.411 0.77 0.984 1.317 1.528 2.647 3.409 0.943 0.858 1.922 1.83 2.821 2.647 0.726 0.726 1.338 1.369 1.942 2.058l-4.291-2.587c15.327 16.57 26.676 21.978 40.807 34.393-2.1 2.142 10.028 14.836 16.109 21.168l-0.529 0.058c4.625 4.408 9.006 8.327 13.286 12.052 4.108 3.892 8.118 7.539 12.054 11.054 4.027 3.551 7.884 7.031 11.993 10.586 1.968 1.842 4.001 3.641 6.056 5.527 1.072 0.943 2.107 1.895 3.174 2.882 1.197 1.109 2.447 2.251 3.641 3.409 0.472 0.223 0.972 0.6 1.531 0.939 3.551 3.682 9.304 8.262 16.109 13.227 3.467 2.439 7.105 5.050 10.877 7.704 4.154 2.911 8.495 5.865 12.817 8.821 4.968 1.374 9.962 2.792 14.758 4.114 4.28 1.286 8.418 2.597 12.23 3.879-3.428-1.453 1.154-2.122 5.351-1.351 5.35 2.009 15.636 1.912 14.053 4.35l-1.882-0.588c0.512 0.56 1.275 1.134 2.175 1.65 0.4 0.223 0.839 0.508 1.351 0.761 0.641 0.193 0.319 0.141 0.529 0.353-0.223 0.030 1.524 1.155 2.763 1.882 1.374 0.814 2.728 1.652 4.174 2.469 2.915 1.588 5.961 3.266 8.702 4.763l2.999-2.411c3.165 2.782 6.939 5.426 11.054 7.997 2.016 1.286 4.090 2.623 6.232 3.823 2.394 1.33 4.792 2.557 7.232 3.879l7.405 2.469c2.227 0.685 4.462 1.311 6.644 2 4.408 1.367 8.804 2.682 12.697 3.879 7.881 2.531 14.305 5.11 17.815 7.939 0.9 0.159 1.116 0.182 2.999 0.644 2.697 0.363 5.672 0.714 8.585 1.057 2.785 0.288 5.514 0.673 7.997 0.763l-0.703 1.823c6.121 1.374 11.003 2.474 16.051 3.585 2.531 0.56 5.097 1.094 7.88 1.65 3.128 0.601 6.48 1.288 10.287 2.058 2.184-0.193 6.294-0.672 10.879-1.057l-3.937 1.706c11.047-0.726 13.547-6.592 23.694-7.405l3.235 2.646 8.409-0.527 8.702-0.352 10.762-1.531 10.17-1.589c6.766-1.157 13.443-2.665 19.992-4.763-0.223 0.468-0.727 1.414-3.762 2.058 2.652-0.431 6.817-1.024 11.23-1.706 2.481-0.129 5.008-0.233 7.407-0.352 2.525-0.159 4.966-0.403 6.937-0.703 3.605-0.506 5.884-1.261 5.363-2.353 2.307 1.784 20.25-1.546 29.973-3.526l-1.41 2.116c8.518-3.508 8.701-4.227 20.814-6.408 2.915-0.129 2.736 1.115-1.115 1.115 9.722-0.193 7.23-2.647 19.047-3.116l-4.172 1.765c4.84-0.56 7.089-0.954 8.76-1.468s2.686-1.080 6.115-2.233c0.030-0.030 0.202-0.198 0.352-0.292 0.814-0.596 1.72-1.334 2.704-2.060 0.77-0.512 1.668-0.99 2.53-1.589 1.798-1.117 3.701-2.291 5.586-3.233 3.682-1.883 7.044-3.16 8.114-2.821 0.553-1.626 4.361-5.685 9.582-8.469 1.028 0.129-0.579 1.564-1.349 2.292 3.428-1.842 6.29-3.697 8.819-5.41 1.286-0.943 2.447-1.731 3.641-2.587l1.589-1.234 0.999-0.763c0.512-0.288 2.055-0.87 3.468-1.293 1.374-0.472 2.683-0.983 4.057-1.407 2.697-0.77 5.457-1.39 8.585-1.648 0.4 0.512 1.088 0.628 2.116 0.586-7.533 1.882-14.105 3.646-17.872 4.588-0.77 0.472-1.364 0.832-1.708 0.997-0.279 0.182-0.468 0.28-0.565 0.322 0.412 0.636 2.666-0.171 2.92 0.208 0.472 0.159 0.684 0.347 0.939 0.642 0.129 0.288-0.030 0.839 0 1.351 0 0.095 0.027 0.233 0.058 0.352 0-0.065 0.026-0.233 0.058-0.352 0.553-0.193 1.073-0.449 1.589-0.703 1.202-0.472 2.408-1.030 3.643-1.589 2.486-1.028 5.122-2.119 7.82-3.233 5.355-2.184 10.949-4.14 15.875-5.001 0.512 0.030 0.99 0.047 1.41 0.175l-0.999 0.412c2.358-0.431 4.524-1.111 6.41-1.884 1.626-0.288 2.966-0.567 4.289-0.822 1.496-0.288 2.031-0.421 5.117-1.174 0.56 0.159 1.831 0.038 3.76-0.353 1.109-1.11 2.517-2.6 4.057-4.348 0.862-1.028 1.761-2.077 2.704-3.233 1.842-2.227 3.851-4.541 5.176-6.173-1.731-0.843 2.768-5.92-2.312-2.168 0.099 0.030-0.999 1.489-2.922 3.811-0.431 0.682-0.98 1.413-1.234 1.884 0-0.129 0.031-0.288 0.063-0.471l-6.937 8.469-5.881 1.589c1.202-0.689 3.611-1.604 5.41-2.294 0.641-0.9 1.311-1.827 2-2.763 0.56-0.73 1.181-1.582 1.825-2.353 1.068-1.374 2.352-2.651 3.937-3.937 0.814-2.908 1.811-6.031 2.411-7.704 6.766-3.851 16.979-13.747 19.462-14.17 1.713-2.272 3.466-4.689 5.349-7.171 2.567-2.184 5.211-4.462 7.822-6.644 2.785-2.439 5.445-4.767 8.056-6.996 5.097-4.667 9.437-9.092 11.876-12.817 3.338-3.209 4.754-2.472 6.466-3.116-1.927 1.962-4.416 3.89-5.232 5.176 6.465-6.72 21.969-16.373 22.224-19.759 10.187-5.826-4.026 5.666 8.819-3.879l-1.293 1.823c3.425-1.798 6.511-3.658 9.465-5.586 1.459-1.028 2.881-2.001 4.291-2.94 1.752-1.286 3.507-2.537 5.176-3.821l2.116-3.937 1.351-2.704 2.411-5.412c1.588-3.596 3.235-7.179 4.822-10.821 3.209-7.153 6.994-15.059 11.407-22.165 2.53-2.355 6.016-5.379 9.689-8.215-0.428 0.291-0.771 0.479-1.044 0.515 4.667-4.108 9.217-8.431 13.759-12.757l6.7-6.7 7.115-6.996c9.336-14.941 17.164-28.152 26.752-42.922l2.823-8.702 2.823-8.114c1.927-5.437 3.977-10.711 6.115-15.934 3.128-8.178 3.067-10.761 3.409-15.17 0-1.157 0.115-2.485 0.115-4.114l2.472-1.942 0.234-11.876c2.009-16.523 11.039-26.87 12.876-47.978l-1.942 2.353c2.009-7.278 4.818-23.441 6.056-21.812-0.030-0.858-0.838-2.668 0.529-5.41h1.174l0.352-2.706 0.644-3.641-1.41-3.937v0.175l-1.115-3.057-2.413-6.173c-2.999-14.002 4.752 1.123-0.469-19.166-2.486-7.406-8.847-20.58-8.763-17.581 0.769 3.037 1.461 7.907 0.471 8.467l-2.353-6.7c-0.193-0.030-0.491-0.053-0.703-0.117l-0.352-1.115 9.995-49.095-8.821-32.927 0.763 0.644-1.174-2.231-2.823-10.464c0.424 0.193 1.076 1.062 1.765 3.116-0.223-3.084-0.683-4.612-1.234-6.115-1.242-2.137-2.216-2.831-3.116-7.115-0.129-0.814 0.185-0.591 0.588 0l-3.998-6.642c1.157 1.109 1.294-2.023 2.882 2.469-4.283-13.271-11.325-19.384-11.584-24.989l0.705 0.941c-6.681-12.715-4.769-6.704-6.997-8.29l-0.117-0.352-1.174-8.35 2.647-7.113-2.294-1.648c-0.193-1.927-0.503-5.836 0.412-5.234-2.351-7.106-0.764 1.36-2.647-2.704 0.468-7.449-2.048-18.077-2.177-24.753-1.068-1.882-1.718-3.436-1.29-4.289-3.425-1.927 4.659 8.364-2.53 0.527 1.109-4.495-7.465-9.105-11.406-17.111 3.084 1.068 7.185 8.315 3.292 0.352-5.609-2.394-9.508-14.058-14.347-19.581-2.272 1.197-10.218-12.367-18.052-21.871 1.157 0.129-12.525-19.587-18.050-29.692l0.469 0.058c-3.295-0.428-9.565-10.434-14.875-17.285 1.411-0.553 2.832 0.385 5.998 3.879l-4.527-6.761c-1.752-1.109-3.472-3.017-6.644-7.171l2.704 0.703-2.411-3.233-3.292-2.763-2.882-2.353c-1.927-1.54-4.001-3.192-6.056-4.822-4.108-3.381-8.325-7.017-12.522-11.642-1.197 0.56 1.432 5.347-0.352 5.645l-5.468-5.115c0.596-0.223 1.529-0.074 3.116 1.057-1.028-0.77-3.882-2.397-5.47-4.408l5.412 2.823c-4.194-4.792-3.358-1.267-6.997-4.822 1.028-0.9-2.009-3.224-0.763-3.526 1.028 0.77 2.848 3.352 4.647 4.291-2.009-1.968-4.625-4.664-5.82-6.291-0.858-1.713-2.124-4.226-2.292-5.291-0.36 0.9-1.466 1.197-4.116-2.060-6.55-8.559-0.963-3.97-4.172-9.407-2.31-1.496-5.697-7.553-7.405-6.525-1.887-2.525-1.527-3.498-1.825-4.822-1.113-1.072-2.786-3.122-4.586-5.351-2.137-2.612-4.348-5.465-6.232-7.822-6.55-1.626-8.227-1.684-5.998 0l1.589 0.588c-0.363-0.030-0.732-0.169-1.115-0.234-7.579-1.324-15.101-3.559-22.638-5.998l-11.288-3.762c-3.596-1.202-7.017-2.357-10.525-3.468l-2.997-2.587-3.528-2.823 0.41-0.471c-8.733-6.46-18.592-15.363-25.397-19.342-2.439-2.056-4.949-5.829-3.409-5.527-0.984-0.733-1.874-1.452-2.472-1.882-1.54-0.641-2.812-1.117-4.055-1.589-1.157-0.468-2.254-0.956-3.409-1.47-2.352-1.157-5.056-2.668-9.465-5.41 8.006 2.656-2.132-2.168 8.056 3.057-9.422-5.308-11.154-7.364-22.282-10.879 4.237 0.159-6.137-5.496-11.23-7.466l6.349 4.527c-1.496-0.641-2.917-1.293-4.291-1.941-1.584-0.77-3.146-1.582-4.647-2.353-2.567-0.4-4.966-0.69-7.405-1.117l2.999-1.882c-10.658-2.782-20.598-2.872-29.929-3.174-4.625-0.129-9.097-0.324-13.463-0.88-4.283-0.604-8.332-2.001-12.23-3.879-5.992 0.424 11.548 3.359 6.115 4.172-9.848-2.229-19.569-7.443-22.697-7.997-5.48-1.628-8.714-1.794-11.584-1.706-1.459 0.065-2.729 0.169-4.233 0.234-0.726 0.030-1.597 0.030-2.411 0-0.943-0.030-1.567-0.036-3.233-0.292-1.028 0-2.114 0.058-3.352 0.058-1.072 0-2.27-0.081-3.641-0.175 1.887 0.853 3.641 2.945-7.23 3.584-10.105-0.472-12.421-3.559-5.998-4.114 2.439-0.030 3.616 0.221 3.526 0.529 3.299-0.223 7.55-0.524 3.528-1.47l-1.351 0.822c-5.007-0.943-18.921-1.067-15.58-2.353-7.706 0.689-3.395 1.249 2.294 1.765-8.389-0.937-14.793-0.796-21.344-0.88-3.084-0.193-7.323-0.612-11.818-1.29 2.092 0.641 3.982 1.741 1.882 1.529-19.477-2.785-8.722 0.716-21.99-0.117-7.408-1.882 2.936-2.657-10.464-2.823-8.092-1.588-1.549-2.257 1.708-2.646-1.459 0.030-2.881 0.030-4.291 0l-2.999-0.175c-1.181-0.127-2.331-0.21-3.468-0.353h-0.061zM736.197 251.52c6.025-0.089 13.229 0.418 23.446 1.204 38.598 2.967 65.389 14.668 81.275 35.497 7.893 10.349 9.613 17.137 9.736 38.402 0.053 14.208-0.926 26.91-2.243 28.226-1.313 1.315-2.393-0.594-2.393-4.247h0.007c0-3.652-4.219-14.935-9.374-25.070-11.872-23.339-46.343-44.161-85.106-51.405-25.058-4.685-27.183-4.453-52.698 5.753-45.803 18.324-67.698 17.062-67.698-3.904 0-7.437 10.553-21.614 16.089-21.614 0.991 0 1.726 4.787 1.642 10.637-0.237 15.475 8.477 15.324 45.112-0.784 21.4-9.409 28.952-12.5 42.206-12.697zM302.013 252.087c10.861-0.001 43.131 7.492 50.638 12.329 4.76 3.067 13.315 5.575 19.013 5.575 8.437 0 9.982-1.451 8.318-7.813-2.535-9.687 7.222-10.539 19.796-1.732 8.666 6.070 10.796 15.119 6.311 26.806-3.567 9.294-26.691 7.694-48.727-3.374-30.588-15.364-43.004-17.512-70.921-12.264-31.243 5.871-56.627 23.288-75.596 51.865-7.572 11.409-14.365 20.742-15.096 20.742s-2.302-2.541-3.496-5.65h-0.002c-1.192-3.108-0.834-14.1 0.8-24.427 2.233-14.117 6.786-22.86 18.354-35.235 14.927-15.967 16.431-16.586 50.262-20.697 19.18-2.333 35.892-4.867 37.135-5.634 0.543-0.336 1.657-0.488 3.209-0.488zM579.859 277.885c12.145 0.019 15.238 2.34 23.472 10.572 15.97 15.971 19.525 41.109 9.691 68.55-6.795 18.964-8.292 20.485-20.97 21.32-12.359 0.813-12.772 0.531-4.358-2.991 8.396-3.512 9.094-5.659 7.225-22.232-1.407-12.495-4.82-20.572-10.701-25.334-10.807-8.752-12.59-8.716-23.941 0.483-7.616 6.172-9.173 10.965-8.934 27.527 0.352 24.408 9.258 35.107 31.371 37.687 17.888 2.086 32.744-8.749 41.839-30.516 3.337-7.989 17.765-23.334 36.342-38.659 38.641-31.872 37.47-31.2 63.659-36.556 27.454-5.615 53.84-1.354 65.103 10.515 10.457 11.017 36.829 77.22 36.829 92.451 0 14.035-21.638 46.226-39.006 58.025-12.361 8.398-43.030 12.557-43.037 5.838 0 0 0-0.002 0-0.002 0.004-1.625 5.419-5.347 12.034-8.278 13.769-6.095 34.848-33.054 34.848-44.572 0-45.116-50.289-88.375-89.623-77.094-16.229 4.654-21.476 9.149-40.052 34.293-12.394 16.777-15.754 25.243-18.254 46.005-1.684 13.993-4.802 27.181-6.929 29.306-4.147 4.147-100.543-8.122-105.922-13.482-1.612-1.608-3.47-30.467-4.128-64.138-1.484-75.69-1.382-75.892 37.754-78.104 6.586-0.372 11.639-0.62 15.687-0.614zM477.436 277.932c10.117 0.019 20.001 1.212 26.487 3.678l10.021 3.811v66.28c0 47.345-1.339 67.11-4.689 69.178-2.579 1.592-25.872 5.896-51.765 9.556-55.211 7.808-54.439 8.184-58.278-28.543-2.062-19.73-4.697-26.545-13.775-35.623l-11.227-11.227 5.468 20.956c6.685 25.624 4.326 38.21-9.68 51.627-17.176 16.454-42.57 18.045-71.017 4.448-29.27-13.989-34.582-24.632-26.808-53.711 5.062-18.937 7.046-21.223 30.011-34.575 21.061-12.246 26.544-13.859 38.194-11.232 7.482 1.687 16.63 5.386 20.33 8.219s2.578 0.494-2.49-5.202c-14.16-15.907-35.267-17.857-60.305-5.57-43.241 21.222-61.011 51.282-48.297 81.707 6.301 15.080 31.053 32.155 52.962 36.538 17.328 3.465 7.866 9.139-15.234 9.136-12.416-0.001-22.297-3.059-33.632-10.408l0.002 0.012c-20.485-13.282-36.692-38.557-36.692-57.227 0-17.489 24.853-79.377 36.825-91.7 7.127-7.335 14.257-9.435 37.746-11.117l28.959-2.076 45.922 31.826c38.925 26.977 47.26 34.619 54.695 50.152 10.764 22.482 23.449 30.307 43.137 26.613 18.548-3.48 21.601-10.618 17.304-40.451-3.145-21.841-4.462-24.417-12.487-24.417-5.528 0-9.714 2.848-10.912 7.423-3.133 11.981 0.546 32.448 7.147 39.741 8.871 9.801 0.77 12.786-15.853 5.841-32.921-13.755-36.768-81.967-5.533-98.117 7.058-3.651 20.451-5.57 33.458-5.545zM709.643 331.687c18.287 0.116 44.443 10.611 54.248 23.077 8.806 11.195 10.312 32.17 3.678 51.2-7.285 20.899-50.656 39.936-75.864 33.299h-0.002c-10.584-2.786-25.432-16.811-29.812-28.157-2.305-5.974-1.92-17.784 1.083-33.035 5.259-26.732 15.651-39.301 37.475-45.326 2.692-0.743 5.808-1.078 9.195-1.057zM712.158 356.262c-6.482 0.226-12.992 3.332-18.217 9.974-4.454 5.662-8.098 13.181-8.098 16.711 0 12.188 15.558 28.192 30.472 31.348 0.644 0.126 6.358-2.435 12.698-5.713v0.002c9.273-4.796 11.527-8.512 11.527-19.007 0-20.372-14.122-33.812-28.382-33.315zM328.282 359.453c-13.208-0.438-25.304 10.634-25.304 28.127 0 25.374 23.35 35.22 41.197 17.376 11.613-11.614 12.334-26.734 1.777-37.293-5.433-5.434-11.666-8.010-17.67-8.209zM475.070 437.985c29.959 0 42.78 18.063 42.78 60.268 0 34.881-6.346 42.347-34.565 40.664l-21.936-1.307-2.423 14.847c-1.33 8.167-4.252 16.683-6.492 18.922-6.141 6.141-54.77 7.99-58.376 2.219v-0.002c-1.627-2.604-3.326-7.162-3.774-10.128s-2.317-6.897-4.15-8.732c-1.844-1.844-35.302-0.738-74.762 2.462-51.875 4.209-73.585 4.642-79.31 1.579-15.412-8.248-24.564-48.292-15.085-66.006 5.039-9.414 28.060-23.535 38.372-23.535 9.65 0 16.182 8.528 8.496 11.091-11.344 3.781-23.377 20.031-23.377 31.568 0 27.725 41.46 26.373 99.525-3.247 41.386-21.112 54.459-23.404 91.91-16.117 20.981 4.083 41.288-3.601 47.907-18.127 3.572-7.838 2.637-10.855-6.226-20.106-13.331-13.915-13.112-16.315 1.489-16.315zM569.364 438.003c4.146-0.034 8.39 0.726 12.63 2.353 7.708 2.959 8.108 9.35 0.588 9.35-8.148 0-22.504 21.987-21.049 32.237 1.657 11.657 16.883 13.309 42.93 4.657 35.688-11.854 61.867-5.415 107.33 26.396 23.284 16.292 48.619 21.728 68.504 14.7 18.358-6.489 26.781-16.5 20.781-24.7-22.275-30.444-21.498-36.315 4.172-31.499 34.128 6.403 41.667 32.036 20.018 68.065l-12.91 21.489-36.696 2.593c-28.328 2.003-45.575 0.905-75.626-4.822-40.837-7.781-49.352-6.382-49.352 8.11 0 10.427-19.519 13.762-51.968 8.877v0.002c-11.306-1.701-18.276-12.671-17.048-26.842 0.542-6.258-2.714-7.792-20.287-9.556-31.021-3.114-41.233-23.072-31.838-62.229 5.754-23.988 21.859-39.034 39.824-39.179zM275.988 578.628c6.173 0 6.987 1.383 4.041 6.892-7.634 14.265 1.665 37.808 32.624 82.582l30.55 44.185 32.272-2.688c17.749-1.482 48.692-1.403 68.76 0.178 33.999 2.661 37.329 3.695 48.841 15.206 6.794 6.794 14.2 19.282 16.457 27.745 4.352 16.322 7.711 77.974 4.411 80.932-1.074 0.963-25.687 2.75-54.695 3.972-39.678 1.673-55.812 0.919-65.134-3.050v-0.010c-14.894-6.339-20.818-16.284-20.818-34.953 0-22.372 22.871-39.718 25.827-19.584 0.615 4.177 4.917 10.676 9.564 14.439 16.273 13.178 56.53 5.773 60.786-11.18 4.872-19.414-1.227-21.047-78.595-21.047-80.632 0-73.977 2.511-93.747-35.371-6.455-12.369-18.328-34.917-26.386-50.11-12.787-24.108-14.651-31.003-14.651-54.198 0-29.134 6.705-43.942 19.894-43.942zM763.11 578.63c23.565 0 35.415 19.75 30.237 50.395-1.398 8.287-10.279 28.026-19.73 43.867s-20.972 36.712-25.602 46.381c-4.63 9.668-12.691 23.295-17.913 30.277l-9.493 12.698h-55.868c-59.303 0-77.982 3.671-84.956 16.705-6.172 11.532 4.728 18.312 30.625 19.043 11.407 0.322 22.746 0.759 25.199 0.973 2.451 0.216 6.408-2.789 8.791-6.674 3.47-5.657 2.82-8.188-3.251-12.698-7.299-5.422-7.218-5.631 2.245-5.631 12.542 0 26.823 15.066 26.823 28.297 0 6.231-5.132 15.656-13.159 24.167-14.621 15.502-13.138 15.342-94.278 10.283v0.004l-35.161-2.193-1.139-34.902c-0.929-28.459 0.408-38.707 7.227-55.519 11.876-29.261 14.858-30.889 54.099-29.518 18.467 0.645 51.783 0.018 74.033-1.379 39.956-2.521 40.537-2.7 46.882-14.361 3.532-6.495 10.437-16.746 15.344-22.777 19.967-24.555 36.008-56.013 36.008-70.608 0-8.058-1.756-15.736-3.906-17.064-7.485-4.627-3.832-9.766 6.943-9.766zM589.066 579.492l16.158 1.72c8.887 0.946 21.433 2.517 27.878 3.487l11.719 1.767 0.729 56.637c0.703 54.735 0.455 56.637-7.286 56.637-4.407 0-12.349-4.837-17.648-10.746h-0.004c-5.3-5.908-15.715-24.289-23.147-40.843-11.726-26.12-13.177-32.651-10.957-49.382zM436.001 582.536c18.086 0 21.306 6.862 17.498 37.326-3.746 29.982-39.234 83.785-55.263 83.785-5.064 0-5.632-2.085-2.931-10.744h0.030c1.845-5.908 3.294-32.136 3.221-58.283l-0.159-47.538 11.363-2.274c6.25-1.251 18.057-2.272 26.239-2.272z"></path>
    </svg>