<svg xmlns="http://www.w3.org/2000/svg" viewBox="79.192 -9.304 886.210 1035.653">
    <path fill="#000000" d="M489.99 936.926c-10.693-3.922-31.232-8.674-45.64-10.561-14.409-1.896-30.885-6.473-36.614-10.193-10.619-6.892-58.467-24.567-85.935-31.742-45.853-11.978-97.646-59.814-124.088-114.61-14.857-30.788-17.654-42.904-21.087-91.28-2.178-30.68-6.345-68.074-9.261-83.099-8.173-42.090-6.406-74.744 6.957-128.714 9.12-36.836 17.104-56.255 31.183-75.85 23.493-32.698 35.575-60.271 39.94-91.141 2.886-20.417 7.201-27.313 30.131-48.175 14.72-13.391 33.89-26.966 42.599-30.159 15.541-5.703 15.788-5.551 13.086 7.956-2.242 11.227 0.635 16.734 15.623 29.896 10.106 8.876 22.606 16.136 27.779 16.136 16.584 0 30.066 16.467 33.504 40.925 2.834 20.16 1.551 25.202-9.847 38.75-21.59 25.657-69.676 93.991-79.873 113.501-13.171 25.207-24.345 81.485-24.45 123.154-0.153 64.279 39.628 150.594 80.325 174.246 12.95 7.526 32.673 20.107 43.828 27.952 11.156 7.85 25.297 17.799 31.422 22.116 9.083 6.397 30.614 8.006 116.634 8.71l105.496 0.88 30.427-16.004c48.678-25.599 68.508-51.309 80.801-104.748 12.395-53.903 10.607-105.065-4.732-135.338-20.282-40.024-41.403-57.652-81.664-68.153-70.045-18.267-130.313-22.742-154.717-11.491-7.289 3.347-20.98 15.046-30.427 25.967-16.763 19.379-17.195 21.022-18.009 68.459l-0.836 48.606 33.86 32.962c18.623 18.126 43.469 38.666 55.214 45.64 44.317 26.313 12.11 28.283-41.425 2.534-20.296-9.764-40.086-17.8-43.976-17.86-10.327 0-62.566-50.708-72.741-70.387-4.793-9.266-9.954-28.838-11.466-43.483-2.461-23.848-0.707-30.517 16.752-63.74 23.54-44.798 59.281-84.045 83.303-91.476 9.702-3.008 60.433-6.517 112.732-7.82 87.766-2.199 96.898-1.557 118.563 8.019 25.137 11.118 109.134 89.107 121.502 112.809 4.128 7.911 7.147 28.431 7.147 48.598 0 19.197 2.623 47.971 5.83 63.937 7.562 37.652-1.223 91.223-18.883 115.158-6.767 9.172-12.302 19.341-12.302 22.599 0 3.246-6.846 14.537-15.213 25.068-8.367 10.527-15.213 22.447-15.213 26.485 0 11.613-55.762 61.766-83.673 75.257-22.157 10.711-32.526 12.263-82.158 12.305-33.97 0.026-68.543 3.11-86.006 7.658-35.19 9.164-48.885 9.12-74.405-0.338zM442.239 368.38c-8.996-3.632-7.887-10.822 4.002-25.934 7.093-9.016 9.416-17.354 7.397-26.542-3.935-17.924 4.811-39.494 24.138-59.531l15.896-16.481h-13.609c-15.1 0-34.558 25.383-43.301 56.49l-4.789 17.042-6.159-16.539c-5.063-13.597-10.137-17.539-28.533-22.174-37.334-9.399-60.042-45.323-47.618-75.319 7.999-19.307 19.992-22.762 42.23-12.157 15.5 7.391 20.993 7.682 40.778 2.129 12.575-3.519 24.080-9.567 25.567-13.439 3.656-9.531-4.319-8.922-12.516 0.947-4.882 5.882-11.41 7.122-24.708 4.695-30.023-5.477-40.895-15.349-40.895-37.13 0-15.487 3.687-22.74 19.305-37.993 31.011-30.277 66.903-35.748 66.903-10.193 0 13.425-6.502 21.968-23.734 31.191-7.435 3.978-10.009 9.016-8.179 16.014 1.465 5.615 3.657 10.21 4.867 10.21 8.228 0 31.422-16.724 40.724-29.365 9.205-12.506 17.892-16.639 49.976-23.778 21.358-4.754 46.035-7.289 54.837-5.639 20.18 3.787 43.761 25.271 43.864 39.967 0.101 21.289 6.885 24.808 52.967 27.682 47.362 2.942 52.103 6.028 43.639 28.289-4.218 11.092-8.344 13.553-22.727 13.553-9.666 0-18.985 2.265-20.709 5.070-1.806 2.908 2.913 5.088 11.11 5.108 10.494 0.026 15.913 3.635 20.583 13.689 8.57 18.459 7.973 24.369-1.654 16.381-6.227-5.168-8.837-5.267-11.815-0.439-2.119 3.425-7.712 4.692-12.535 2.84-5.463-2.096-11.154-0.004-15.26 5.611-6.247 8.547-6.707 8.539-10.037 0-3.317-8.641-3.847-8.613-10.596 0.541-6.708 9.115-7.3 9.153-10.595 0.642-2.531-6.527-5.231-7.555-9.832-3.74-4.51 3.744-8.18 3.044-12.708-2.401-9.047-10.9-24.234-9.497-40.477 3.744-7.699 6.275-17.881 13.691-22.628 16.481-13.142 7.722-4.499 22.587 19.335 33.257 11.367 5.092 21.86 7.472 23.318 5.295 1.455-2.162 12.199-3.429 23.87-2.773 15.152 0.843 22.068-1.046 24.194-6.579 2.612-6.811 4.129-6.707 12.508 0.883 6.517 5.9 10.629 6.852 12.998 3.008 1.906-3.076 7.643-4.28 12.751-2.672 5.982 1.896 11.861-0.744 16.533-7.401 7.194-10.274 7.317-10.274 16.244-0.405 4.947 5.467 10.136 20.074 11.533 32.466 3.131 27.77-1.789 31.12-60.95 41.533-39.808 7.008-210.54 10.026-225.501 3.989zM585.238 177.426c11.644-33.303-25.847-58.253-47.043-31.305-11.638 14.794-9.889 25.87 6.203 39.275 15.707 13.084 34.782 9.362 40.842-7.968zM743.064 318.131c-4.383-4.384-7.969-13.571-7.969-20.412 0-17.79-15.466-21.596-65.924-16.231-73.853 7.857-86.737 7.539-93.096-2.298-7.853-12.143 1.711-26.623 17.582-26.623 9.126 0 11.711 2.401 10.455 9.655-1.561 9.026 0.923 9.457 38.035 6.568 21.837-1.693 51.626-5.852 66.197-9.228 20.35-4.72 31.071-4.771 46.229-0.338 10.853 3.247 31.638 5.913 46.191 5.913 39.179 0 31.074 11.992-10.282 15.213-24.44 1.896-32.567 4.433-32.567 10.142 0 4.527 5.643 8.255 13.946 9.208 16.181 1.863 18.446 13.381 4.137 21.038-13.758 7.364-23.671 6.545-32.933-2.705z"></path>
    </svg>