<svg xmlns="http://www.w3.org/2000/svg" viewBox="7.395 -0.110 1009.111 1027.839">
    <path fill="#000000" d="M527.937 116.462c0 15.132 1.144 30.704-1.476 45.576-1.773 10.11-1.476 19.703-1.476 30.039 0 7.085-1.663 18.488 0.625 25.351 4.872-2.658 7.972-2.952 14.060-2.841 6.608 0.109 11.328-2.693 17.64-3.025 13.579-0.739 14.797 0.136 28.413 0.055 14.282-0.109 27.529 5.132 41.182 9.632 5.387 1.773 10.591 2.362 15.278 4.428 8.044 3.506 17.381 6.31 25.203 10.369 17.16 8.893 30.775 21.923 44.727 34.948 7.604 7.085 12.953 15.057 18.38 23.875 5.827 9.484 13.062 16.754 17.713 26.9 6.64 14.725 16.716 27.567 23.395 42.217 4.244 9.371 6.531 18.563 10.333 28.195 5.501 14.021 9.484 28.046 13.25 42.586 4.834 18.672 2.14 39.926 2.14 59.302 0 13.171 1.657 27.454-0.668 40.445-1.809 10.071-4.872 18.449-5.128 28.709-0.369 15.242-6.163 29.926-11.847 43.948-2.472 6.163-5.426 12.032-8.82 17.679-2.14 3.615-3.431 7.784-5.718 11.328-3.139 4.943-8.157 8.413-11.736 13.062-7.494 9.741-14.948 20.148-23.841 28.709-6.494 6.271-13.615 12.103-19.595 19.003-11.105 12.879-26.754 18.526-42.511 23.729-4.651 1.547-8.633 4.688-13.36 6.237-4.205 1.397-8.451 1.551-12.656 2.841-7.013 2.14-13.838 2.215-20.998 4.392-20.297 6.2-40.743 7.344-61.037 11.957-15.424 3.544-29.226 3.544-44.948 3.729-7.599 0.055-13.1-2.362-20.369-2.991-12.439-1.068-24.911-4.023-36.829-8.080-5.091-1.735-9.963-3.875-14.834-6.050-4.943-2.215-6.087-3.804-10-6.681-4.428-3.285-9.301-4.428-13.615-8.080-3.396-2.916-5.501-6.419-9.153-9.003-4.834-3.431-7.934-3.8-12.066-8.932-2.77-3.469-5.462-6.419-8.597-9.593-8.97-9.041-19.376-16.641-26.57-27.415-5.647-8.453-9.116-19.191-13.912-28.269-5.501-10.479-9.56-21.807-13.285-33.026-3.95-12.032-5.095-21.256-5.056-34.098 0.055-13.1-1.882-27.75 0.668-40.668 3.984-20.26 4.057-42.289 11.768-61.919 3.692-9.447 8.378-18.303 14.025-26.683 6.565-9.815 10.959-21.182 18.119-30.408 17.932-23.139 41.069-39.56 68.527-48.379 9.52-3.062 18.559-7.159 28.672-8.341 4.503-0.552 9.262 0.628 13.8 0.308 8.080-0.555 15.278-3.139 23.47-3.21 10.037-0.027 20.114 0.164 30.152 0.109 10.813-0.109 20.998 2.178 31.698 2.879 15.278 0.998 32.955 7.788 44.098 18.563 9.301 9.041 16.791 19.003 21.296 31.329 5.091 13.952 13.025 27.859 14.021 42.88 1.513 21.995 1.035 45.761 0.136 67.718-0.589 13.948-7.822 29.779-14.169 42.067-2.806 5.462-7.825 13.285-12.326 17.64-2.731 2.619-6.2 3.321-9.041 5.718-5.164 4.319-5.278 6.975-11.549 9.779-7.529 3.431-15.761 8.194-23.62 10.591-12.916 3.95-30.591 0.406-44.098 0.589-7.010 0.055-13.8-1.956-20.554-3.615-2.545-0.628-6.347-1.476-8.82-2.18-4.465-1.254-7.567-4.465-11.809-6.235-2.029-0.849-4.392-1.035-6.456-2.032-3.875-1.806-7.528-4.465-11.109-6.754-5.866-3.725-10.996-6.2-15.351-11.736-9.079-11.588-14.797-23.764-14.098-38.819 0.628-13.248 11.772-26.72 20.704-35.094 16.976-15.941 43.285-29.745 63.432-12.77-14.098-21.622-48.932-18.007-66.461-1.182-7.453 7.16-17.16 11.995-23.578 20.444-2.916 3.804-4.355 7.085-7.603 10.629-5.978 6.568-6.2 14.797-10.185 22.51-1.437 2.806-3.913 4.834-5.387 7.604-1.437 2.766-2.77 8.522-3.321 11.622-0.885 5.132-0.846 14.394 0.027 19.485 2.032 11.478 19.153 24.281 29.485 27.383 15.647 4.688 31.588 10.333 47.014 15.611 13.544 4.651 30.666 11.292 44.727 11.957 17.415 0.849 35.903 1.626 51.698-6.716 6.608-3.506 12.879-6.275 19.631-9.706 6.016-3.062 10.813-7.23 16.681-10.406 9.702-5.241 14.651-6.79 21.219-16.050 4.651-6.568 9.447-12.991 12.103-20.779 4.465-12.841 7.417-25.757 10.515-39.005 1.809-7.75 5.426-14.021 5.647-22.287 0.245-8.451-0.055-16.976-0.055-25.426 0-9.854 0.702-18.857-2.212-28.009-2.472-7.897-2.658-16.125-5.018-23.875-4.725-15.464-12.622-29.372-22.068-42.289-5.274-7.16-10.775-14.357-17.529-20.223-3.652-3.175-8.299-4.947-11.918-7.641-3.8-2.879-6.271-6.050-11.105-8.044-6.385-2.655-13.176-5.164-19.744-7.713-10.034-3.875-19.52-3.285-30.258-3.321-10.296 0-20.335 0.589-30.41-1.476-14.834-3.062-30.775-1.476-45.905-1.476-10.923 0-21.809 0-32.732 0-11.257 0-21.588 2.359-32.732 2.95-15.278 0.849-29.301 10.775-39.155 22.326-6.608 7.788-15.903 12.362-22.547 20.004-5.795 6.677-13.321 14.5-17.713 22.142-9.779 16.936-22.216 33.986-35.019 48.561-7.788 8.893-12.141 14.542-15.316 26.091-3.838 13.912-13.654 26.424-16.57 40.96-1.107 5.501 0.109 11.073-0.921 16.606-1.476 8.080-5.351 15.387-5.609 23.767-0.406 12.766-0.885 26.126-5.572 38.192-7.638 19.706-9.963 38.342-8.966 59.452 0.885 18.044 12.508 35.941 20.738 51.258 6.087 11.292 10.037 26.679 19.080 36.201 7.307 7.675 16.569 11.736 26.46 15.203 23.69 8.376 49.891 8.488 72.142 20.775 9.337 5.164 19.262 9.41 29.153 13.507 4.205 1.773 7.969 2.14 12.212 3.394 6.46 1.917 11.772 6.865 18.38 8.303 29.93 6.494 60.484 6.087 91.113 6.087 8.893 0 18.157 1.071 26.939 0.136 5.572-0.589 10.7-2.548 16.31-3.062 20.813-1.956 41.884-9.414 61.962-14.948 15.72-4.315 30.922-9.593 46.531-14.021 5.242-1.513 7.454-3.8 11.882-6.644 8.711-5.606 18.157-9.85 26.866-15.681 12.287-8.194 20.26-20.483 31.734-29.376 4.574-3.54 4.982-3.135 7.047-8.597 2.916-7.75 6.46-13.615 10.483-20.813 6.975-12.548 13.875-24.169 22.217-35.942 8.266-11.663 14.021-24.244 21.735-36.201 9.593-14.797 11.292-32.438 14.688-49.745 2.029-10.515 5.164-20.775 7.23-31.294 2.658-13.8 1.626-27.898 1.587-41.882 0-17.307 0.027-34.58 0-51.886 0-14.208-1.956-27.529-2.916-41.552-2.249-32.77-20.26-64.358-42.624-87.718-12.656-13.248-23.541-28.522-34.65-43.139-9.301-12.251-19.335-25.090-27.123-38.305-6.938-11.806-14.651-21.107-24.834-30.001-16.125-14.098-34.911-14.724-54.689-20.923-33.214-10.373-53.215-20.444-83.621-37.973-8.633-4.982-16.754-10.888-25.388-15.611-5.095-2.806-20.185-6.938-17.604-14.724z"></path>
    <path fill="#000000" d="M492.697 85.945c4.205 3.394 4.613 14.982 5.868 19.925 2.029 8.011 3.838 40.558 5.204 48.526 2.14 12.362 0.625 51.294 0.661 63.914 0.027 5.462 2.032 12.44-2.731 15.023-2.879 1.586-11.328 2.693-14.87 2.879-5.722 0.343-11.918 0.343-17.64 0-2.802-0.136-14.391-1.701-16.051-3.175-3.692-3.285 1.177-9.741 1.437-14.725 0.274-5.387-0.055-36.272-0.055-41.661 0-5.278-0.774-11.219-0.055-16.423 0.699-5.241 2.802-7.75 3.025-13.285 0.245-5.387-0.776-34.948-0.055-40.26 0.661-5.164 2.544-7.859 2.989-13.285 0.628-7.75 1.441-7.972 8.893-10.483 4.834-1.66 9.151-3.025 14.613-2.911z"></path>
    <path fill="#000000" d="M501.515 833.108c2.843 5.497 2.545 8.376 2.879 14.87 0.274 5.722 2.292 12.178 3.652 17.827 0.776 3.321 2.18 5.387 2.362 8.929 0.109 2.843-0.736 6.091-0.191 8.932 1.108 6.46 4.797 45.723 2.475 52.771-3.729 11.292-22.032 6.568-31.701 6.677-6.641 0.109-11.292-2.766-17.638-3.025-5.609-0.274-10.15 0.164-13.321-5.795-4.872-9.041-0.305-60.63 1.476-69.967 1.257-6.531 2.77-10.959 2.991-17.859 0.219-6.347 2.511-11.513 2.989-17.859 0.668-8.782 1.513-7.49 10.296-7.381 5.866 0.055 11.736 0 17.6 0 12.548 0 24.211 0.998 22.032 17.827z"></path>
    <path fill="#000000" d="M933.384 479.213c-6.346 0-36.239-0.055-42.586 0-6.419 0.055-14.761-4.282-20.479-3.21-6.975 1.289-4.542 8.707-4.503 15.091 0 5.756-0.815 12.216-0.055 17.935 0.702 5.685 2.806 8.672 2.952 14.797 0.164 9.745 4.059 8.451 11.882 5.831 4.394-1.438 7.972-3.21 12.326-5.095 7.013-3.025 36.239-2.359 43.139-4.169 0.446-3.506-2.135-5.091-3.469-7.822-1.586-3.213-1.953-4.023-2.135-8.048-0.308-6.419 0-12.95 0-19.372z"></path>
    <path fill="#000000" d="M213.566 473.272c-0.808 0.164 8.080 2.14 7.271 2.325-3.469 9.963 4.538 36.716-2.991 42.18-1.843 1.327-6.385-0.055-8.711 0.343-2.989 0.589-5.718 2.212-8.782 2.841-5.718 1.107-37.051 2.622-42.916 2.916-12.253 0.555-16.2-3.1-28.119-0.164-2.437 0.589-3.025 2.655-5.572 3.247-2.584 0.668-6.31-0.109-8.932-0.136-2.879 0-6.087-0.406-8.893-0.055-2.289 0.343-5.128 2.288-6.531 2.475-11.995 1.623-0.998-16.868 1.441-22.476 2.212-5.091 1.397-9.889 2.879-15.572 1.068-4.097 1.735-13.69 5.018-15.094 5.312-2.288 5.643 0.245 11.367 0.245 6.786 0 13.654 0.48 20.331-0.661 14.982-2.622 54.836-5.316 73.14-2.325z"></path>
    <path fill="#000000" d="M423.393 133.806c-0.164 0.888-0.369 1.773-0.555 2.658-7.307 1.404-14.724 3.652-21.588 5.241-6.608 1.547-13.395 5.756-19.706 7.235-15.242 3.579-28.303 8.966-41.588 16.863-14.503 8.597-32.178 16.57-47.014 24.098-5.941 3.025-10.959 7.381-16.31 10.738-6.791 4.173-14.098 8.488-20.888 12.991-2.95 1.956-7.675 4.684-9.335 7.49-1.809 2.989-1.956 6.754-4.023 9.925-5.204 7.825-9.854 14.579-13.62 22.991-3.688 8.228-7.34 16.494-11.954 24.577-2.401 4.173-3.321 9.597-6.091 13.544-0.998 1.404-2.952 2.14-3.984 3.583-3.1 4.131-5.278 8.707-8.044 13.1-6.016 9.702-11.957 19.041-17.123 29.113-3.36 6.531-7.934 13.619-10.665 20.483-2.806 7.047-7.419 14.982-9.556 22.217-2.362 8.044-2.545 15.643-4.059 23.764-0.958 5.204-2.952 8.563-2.879 14.209 0.027 4.24-0.027 8.451-0.027 12.656 0 6.31-2.77 23.026 2.95 25.572 3.36 1.476 13.842-0.055 17.381-0.191 5.572-0.164 9.187-2.396 14.503-3.356 10.037-1.773 9.002 2.841 18.819-0.48-6.975-12.804-9.335-24.944-9.335-40.331 0-7.641-1.956-18.232-0.136-25.647 0.628-2.693 2.879-3.321 3.469-5.977 0.958-4.205 1.257-8.563 2.325-12.807 1.626-6.608 4.023-12.178 3.838-19.003-0.109-4.797 1.663-6.677 2.475-10.146 0.885-3.804-0.027-7.344 0.555-11.257 3.21-22.251 27.492-41.735 40.076-59.561 12.695-18.082 29.41-27.638 45.832-41.921 11.957-10.369 26.606-20.888 40.739-28.157 4.651-2.362 9.079-5.056 13.8-7.344 2.292-1.068 6.385-2.325 8.378-3.579 4.759-2.991 7.528-7.419 12.731-9.891 3.285-1.547 6.050-1.917 9.484-2.989 14.797-4.688 32.288-2.843 46.976 0.479 2.325-5.164-1.182-6.31-1.956-9.891-0.668-3.025-0.055-5.791-0.555-8.82-1.294-8.266-6.681-13.139-3.321-22.141z"></path>
    <path fill="#000000" d="M184.304 543.052c-3.503 3.25-2.802 5.906-3.21 10.114-0.369 4.023-1.551 6.347-2.511 10.146-2.14 8.342-0.699 18.082-0.736 26.791-0.027 11.549 1.144 15.941 5.681 26.237 4.134 9.447 8.525 17.49 13.765 26.276 14.169 23.691 17.16 53.693 33.8 76.017 14.357 19.189 29.781 37.198 45.945 54.615 21.442 23.066 51.294 23.508 76.386 38.417 11.513 6.863 21.404 14.503 33.914 19.003 9.484 3.431 20.519 3.729 29.376 7.49 5.609 2.362 13.395 8.633 18.153 12.585-3.394 8.672-6.419 17.935-8.488 26.31-1.66 6.79 0.739 5.609-6.347 6.829-5.351 0.921-8.707-1.035-12.987-3.431-6.275-3.469-12.508-4.947-19.301-7.567-10-3.948-18.672-7.713-29.116-11.073-9.593-3.062-20.26-3.281-29.079-7.417-9.556-4.503-19.631-9.556-28.228-15.278-15.611-10.333-28.822-22.547-44.098-32.879-6.237-4.205-12.66-8.893-18.048-14.244-6.494-6.456-13.431-11.403-19.372-18.672-6.494-7.972-13.431-15.351-20.148-23.691-5.686-7.047-11.478-14.943-17.788-21.847-12.508-13.725-20.26-33.946-23.654-51.812-1.182-6.163-4.688-9.446-6.275-14.651-1.327-4.353-1.144-9.335-3.135-13.839-4.542-10.185-0.589-19.52-3.062-30.369-0.406-1.773-2.439-2.77-2.693-3.95-0.702-3.469-0.191-5.941-0.628-9.481-0.628-5.387-2.693-7.934-3.396-13.321-1.327-10.483 0.406-21.144 3.213-30.185 3.285-10.406 0.055-24.211 11.697-26.941 4.613-1.107 10.959-0.552 15.831-0.343 5.609 0.274 12.435 4.574 14.538 10.146z"></path>
    <path fill="#000000" d="M531 858.090c8.266-1.182 16.091 7.859 24.542 6.641 11.995-1.766 24.281-5.204 35.757-9.593 4.688-1.806 8.857-4.169 13.952-4.982 5.866-0.921 11.809 0.628 17.6-0.055 11.663-1.401 23.398-3.8 34.802-6.163 15.313-3.21 27.529-6.973 40.998-15.534 6.938-4.428 15.242-6.237 21.513-11.182 7.603-5.941 31.551-25.094 38.711-31.475 6.681-5.945 10.554-10.223 15.132-17.494 0.661-1.068 0.245-2.841 0.958-3.838 1.068-1.476 2.989-2.916 4.094-4.315 2.77-3.583 9.262-8.048 11.441-12.326 7.047-13.875 22.141-25.353 31.664-37.973 7.563-10.075 9.889-18.97 16.531-29.376 3.725-5.866 7.638-10.223 13.544-14.131 6.531-4.319 3.871-9.191 7.34-16.347 2.475-5.095 3.1-8.416 6.904-13.398 2.989-3.984 4.907-7.453 6.75-11.882 1.626-3.913 3.175-8.044 4.319-12.178 1.182-4.428 4.023-8.966 4.909-12.953 1.657-7.563-2.292-16.57-0.343-24.098 0.519-1.991 2.215-2.135 2.622-3.469 0.661-2.289 0-4.722 0.625-6.863 0.888-2.989 3.875-6.087 3.139-9.372 3.36 5.274 2.511 8.525 3.175 13.984 0.589 4.797 2.658 7.013 3.356 11.772 0.555 3.838-1.215 8.342-0.245 12.103 0.699 2.693 2.802 2.952 3.469 5.647 0.699 2.619-0.109 6.385-0.136 9.079-0.055 9.41 0.589 17.935-2.359 26.754-3.175 9.41-7.825 18.966-12.585 27.415-4.353 7.788-8.932 15.392-13.431 22.991-5.241 8.82-12.103 17.604-16.719 26.163-7.675 14.465-15.203 30.743-24.759 44.137-5.647 7.898-14.098 13.69-21.773 19.67-8.413 6.568-14.982 15.093-21.588 23.36-11.809 14.722-24.504 30.554-40.26 41.513-7.567 5.204-13.763 12.178-21.292 17.050-9.116 5.905-18.38 8.413-27.864 13.395-9.925 5.204-19.481 6.79-30.258 9.56-6.016 1.513-11.294 5.351-17.089 6.934-6.2 1.735-11.182 2.292-17.381 4.209-13.504 4.244-28.559 9.632-42.955 11.401-11.549 1.404-24.5-0.027-36.201-0.136-2.434-0.027-5.827-0.699-8.080-0.136-2.619 0.589-3.356 3.247-6.014 3.431-2.879 0.164-12.695-3.8-14.542-6.125-2.77-3.469-1.81-10.629-1.513-15.019 0.406-6.46 4.503-9.226 9.556-26.754z"></path>
    </svg>