<svg xmlns="http://www.w3.org/2000/svg" viewBox="33.674 35.282 965.620 950.204">
    <path fill="#000000" d="M486.395 899.615c-11.364-6.616-66.071-21.223-79.466-21.223-6.309 0-17.56-3.727-24.996-8.28-7.439-4.562-28.165-12.598-46.058-17.867-54.578-16.076-95.856-44.925-123.808-86.516-7.258-10.804-20.922-27.508-30.362-37.134-40.158-40.927-62.185-101.97-65.685-182.042-2.346-53.735-1.736-59.578 13.072-124.151 8.546-37.269 19.261-77.56 23.808-89.534 10.176-26.785 51.916-89.589 72.349-108.86 8.307-7.835 25.197-28.845 37.531-46.69 21.829-31.575 31.814-40.867 43.531-40.505 3.14 0.067-0.368 5.464-7.791 11.93s-25.575 28.833-40.337 49.709c-14.761 20.876-28.381 37.955-30.266 37.955-3.942 0-6.191 4.6-38.144 78.080-36.867 84.776-49.094 133.716-49.094 196.498 0 49.276 9.198 108.15 22.229 142.276 8.309 21.758 67.971 47.873 138.265 60.521 25.051 4.503 52.363 10.204 60.699 12.66 26.564 7.833 104.95 5.477 139.889-4.207 42.225-11.702 52.657-11.244 61.806 2.716 10.921 16.668 16.962 14.498-106.234 38.226-43.837 8.445-60.112 9.784-84.979 7.018-58.263-6.487-111.457-20.868-151.234-40.885-16.126-8.118-25.968-11.342-22.734-7.442 27.973 33.718 57.354 63.854 69.087 70.861 7.799 4.661 19.060 12.998 25.024 18.525 10.505 9.739 55.735 28.1 69.256 28.105 3.66 0.006 12.328 4.885 19.261 10.847s14.74 10.901 17.352 10.973c76.842 2.199 97.674 3.651 106.685 7.43 23.969 10.050 47.54 15.097 62.405 13.359 8.62-0.999 15.674-0.521 15.674 1.108 0 6.744-12.644 11.669-42.045 16.361-37.712 6.024-44.599 6.049-54.686 0.282zM673.287 869.090c-1.005-3.020 0.913-17.294 4.269-31.709 6.457-27.752 4.917-57.992-3.215-63.014-5.898-3.651 1.915-11.060 15.061-14.29 6.731-1.65 6.054-2.272-3.012-2.63-6.427-0.282-17.165-5.569-23.857-11.772l-12.17-11.264 12.513 9.098c16.409 11.932 26.552 11.482 54.448-2.42 20.676-10.304 24.433-14.419 35.554-38.945 14.581-32.159 16.238-62.824 5.44-100.687-9.681-33.941-20.378-49.922-43.804-65.44-19.135-12.673-48.97-18.449-48.97-9.477 0 4.779 15.319 9.044 32.765 9.122 9.216 0.022 17.385 4.349 26.845 14.156 18.242 18.91 22.807 32.775 22.807 69.268 0 26.932-1.84 34.035-14.798 57.191-16.979 30.341-35.48 45.963-54.431 45.963-16.753 0-16.47-4.232 1.022-15.233 22.877-14.396 35.454-42.309 35.166-78.047-0.417-52.167-23.577-83.668-58.105-79.038-20.556 2.757-23.93-0.008-14.056-11.514l7.601-8.856-13.013 7.994c-22.905 14.071-32.73 25.54-46.371 54.119-12.175 25.509-13.126 30.65-10.967 59.209 1.505 19.921 5.702 37.368 11.553 48.068 6.405 11.71 8.426 13.508 6.672 5.949-1.385-5.963 4.338 0.826 12.716 15.123 15.566 26.54 15.123 39.732-0.932 27.832-46.847-34.708-53.204-40.548-55.475-50.969-1.379-6.327-3.162-13.696-3.963-16.37-1.41-4.704 8.629-85.542 12.908-103.975 3.030-13.048 43.564-64.249 56.228-71.026 12.281-6.573 15.186 3.399-25.004-85.842-13.165-29.235-26.284-60.469-29.149-69.404-9.643-30.072-43.255-86.826-67.547-114.048-36.070-40.425-87.378-86.648-101.736-91.652-16.005-5.58-16.425-12.268-0.762-12.195 15.969 0.067 73.323 31.827 105.803 58.58 26.2 21.581 83.413 93.86 113.244 143.069 8.679 14.314 19.793 39.203 24.702 55.305s12.83 41.888 17.601 57.3c11.001 35.531 10.911 37.049-2.169 37.049-5.963 0-10.846 2.066-10.846 4.593 0 2.525 1.623 3.593 3.602 2.37 11.644-7.197 89.174 26.27 110.683 47.779 21.765 21.765 26.684 35.43 26.373 73.257-0.352 42.8-16.043 87.998-42.924 123.661-14.498 19.233-19.001 29.763-22.963 53.68-2.965 17.888-9.341 36.419-15.992 46.471-6.083 9.193-11.060 18.405-11.060 20.474 0 2.085-3.701 7.111-8.226 11.203-6.114 5.533-8.697 6.035-10.058 1.935zM791.429 591.015c0.043-6.425 6.156-14.051 17.835-22.319 9.768-6.914 20.639-19.49 24.186-27.979 3.546-8.483 13.043-23.476 21.111-33.32s19.597-29.049 25.622-42.673c9.237-20.883 10.519-28.671 8.177-49.554-5.212-46.424-38.392-116.952-81.76-173.779-32.007-41.939-96.392-93.229-136.722-108.918-34.294-13.338-16.295-17.191 26.026-5.569 42.56 11.687 120.534 73.582 161.095 127.884 38.776 51.907 61.442 132.406 62.007 220.192 0.288 43.753-7.292 86.755-15.279 86.755-1.978 0-4.165-16.103-4.858-35.788l-1.262-35.789-14.706 25.952c-20.411 36.026-37.92 56.761-60.632 71.804-23.243 15.394-30.972 16.17-30.846 3.1z"></path>
    </svg>