<svg xmlns="http://www.w3.org/2000/svg" viewBox="-4.748 16.001 1048.187 994.939">
    <path fill="#000000" d="M487.801 888.474c-10.999-24.864-22.495-61.151-25.546-80.636-5.323-33.994-4.81-34.807 12.685-20.096 23.809 20.019 51.813 29.721 51.813 17.946 0-5.112 6.477-9.293 14.392-9.293s14.251 5.397 14.078 11.992c-0.413 15.859-33.55 111.418-41.334 119.203-3.35 3.35-15.090-14.254-26.089-39.117zM773.812 776.554c-19.789-10.445-35.978-26.085-35.978-34.755s-2.726-13.034-6.059-9.704c-3.334 3.334-15.046 1.247-26.030-4.63l-19.971-10.688 21.233-7.855c14.813-5.479 21.325-15.924 21.536-34.547 0.291-25.694 0.815-25.975 13.951-7.506 7.506 10.553 19.81 25.666 27.345 33.581 16.787 17.634 54.257 78.87 54.307 88.748 0.071 10.921-10.913 8.165-50.335-12.646zM238.923 772.127c0-19.597 26.983-71.676 37.136-71.676 9.002 0 39.617 31.946 39.617 41.336 0 3.435-17.27 15.056-38.378 25.824-32.957 16.814-38.378 17.452-38.378 4.517zM459.594 744.8c0-23.64-24.511-51.818-35.509-40.821-3.445 3.445 2.057 12.614 12.226 20.374 16.013 12.222 16.562 15.398 4.097 23.741-23.843 15.954-38.331 11.291-48.566-15.624-6.617-17.404-6.548-28.713 0.217-35.477 6.843-6.843 1.921-18.287-15.83-36.815-14.619-15.26-20.364-26.887-13.279-26.887 9.483 0 10.782-10.939 5.402-45.573-3.892-25.066-7.702-52.050-8.467-59.965s-7.007-24.382-13.87-36.595c-10.355-18.427-17.465-21.107-41.795-15.763-20.319 4.464-27.302 3.179-22.753-4.18 3.607-5.842 1.991-10.62-3.596-10.62s-10.16 6.73-10.16 14.957c0 8.226-3.384 12.866-7.519 10.312-11.524-7.122-1.559-82.817 10.925-82.968 6.041-0.071 20.039-2.56 31.103-5.531 15.814-4.244 22.734 0.915 32.346 24.118 14.111 34.070 28.645 38.081 36.005 9.934 3.477-13.294 11.662-18.687 25.486-16.789 17.66 2.423 19.961-1.363 17.336-28.503-1.665-17.215-8.882-42.581-16.035-56.372-13.417-25.862-7.117-61.912 11.93-68.26 5.622-1.875 19.243 6.272 30.266 18.104l20.041 21.513 0.146-32.991c0.11-24.832 2.449-29.431 9.447-18.599 5.115 7.915 9.366 28.515 9.447 45.779 0.11 23.731-5.362 33.897-22.444 41.681-19.092 8.699-21.638 14.98-16.45 40.57 4.723 23.287 11.786 30.945 30.594 33.16 22.236 2.621 24.065 0.253 20.173-26.275-3.083-21.010 0.146-30.859 11.6-35.249 20.625-7.915 27.28-0.442 28.472 31.962 0.656 17.845 6.87 27.566 19.133 29.921 14.068 2.701 17.036-0.815 13.169-15.606-2.746-10.502-1.403-24.901 2.983-32 5.031-8.141 1.504-20.049-9.548-32.245-22.289-24.596-31.783-72.105-14.41-72.105 6.871 0 15.173 4.334 18.446 9.629s16.945 6.87 30.379 3.5c27.332-6.858 41.174 7.194 41.411 42.039 0.11 14.592-5.555 21.586-17.442 21.586-9.675 0-20.117 2.528-23.202 5.612-9.906 9.906 14.399 65.631 38.551 88.385 19.323 18.204 22.314 27.807 17.179 55.167-4.907 26.162-3.097 33.129 8.612 33.129 16.827 0 17.784-9.288 6.129-59.448l-8.238-35.462 22.86 14.978c22.613 14.817 31.375 54.348 14.371 64.857-9.395 5.806-18.073 46.425-23.204 108.621-3.158 38.281-1.852 40.78 21.36 40.836l24.724 0.071-28.548 14.886c-15.701 8.186-36.211 12.882-45.573 10.432-19.871-5.196-19.841-5.307-7.701 26.624 5.128 13.489 6.826 31.040 3.771 39.003-7.611 19.831-48.31 18.271-60.3-2.318-8.733-14.995-9.81-14.482-10.070 4.797-0.181 12.344-6.259 21.586-14.228 21.586-15.998 0-13.814-42.828 3.867-75.872 5.908-11.041 7.351-20.504 3.209-21.028s3.228-3.951 16.375-7.611c13.149-3.659 29.278-17.261 35.837-30.226l11.927-23.573 0.146 25.819c0.071 14.201 4.746 28.664 10.374 32.142 16.733 10.341 22.545-3.67 11.113-26.794-13.431-27.17-23.945-94.88-22.891-147.407 0.497-24.819-4.673-44.881-13.448-52.162-18.833-15.632-29.534-4.079-13.792 14.89 16.645 20.054 3.646 30.881-19.624 16.347-23.467-14.656-26.141 3.799-4.666 32.192 18.030 23.837 18.848 61.798 1.332 61.798-7.351 0-15.851-6.477-18.887-14.392-8.026-20.911-25.314-17.635-25.314 4.797 0 24.821-16.109 24.821-23.986 0-7.246-22.825-23.986-25.616-23.986-3.997 0 30.829-24.013 5.958-24.745-25.63-0.417-18.004-5.966-42.45-12.33-54.321-15.087-28.149 2.463-28.358 22.14-0.253l14.936 21.325v-25.554c0-31.765-10.83-38.984-41.172-27.449-18.766 7.135-22.627 14.020-18.876 33.65 5.629 29.446-11.563 33.035-26.303 5.491-14.599-27.279-26.994-23.757-21.299 6.051 2.655 13.881 12.85 27.338 22.655 29.903s17.83 7.791 17.83 11.614c0 9.119-26.107 95.765-30.322 100.634-6.961 8.040 44.184 53.283 60.234 53.283 9.335 0 23.692 9.596 31.908 21.325 19.21 27.426 19.525 65.026 0.543 65.026-8.756 0-14.392-8.931-14.392-22.81zM610.506 675.466c-3.188-3.188-11.463-3.529-18.388-0.759-7.653 3.063-5.38 5.336 5.796 5.796 10.114 0.417 15.781-1.85 12.592-5.038zM315.531 443.799c-0.071-3.958-4.333-13.672-9.447-21.587-7.52-11.638-9.328-10.261-9.447 7.195-0.071 11.874 4.17 21.586 9.447 21.586s9.528-3.239 9.447-7.195zM430.811 316.673c0-5.277-4.571-9.595-10.159-9.595s-7.494 4.318-4.231 9.595c3.259 5.277 7.832 9.594 10.16 9.594s4.231-4.318 4.231-9.594zM587.311 302.145c-21.469-15.698-29.076-10.144-12.863 9.393 6.626 7.985 16.136 11.992 21.131 8.905s1.273-11.321-8.268-18.298zM312.573 711.916c-17.168-18.972-22.028-59.437-7.136-59.437 4.92 0 11.979 9.715 15.684 21.587s11.515 24.645 17.357 28.385c7.513 4.808 7.63 9.785 0.398 17.017s-14.925 5.023-26.305-7.551zM509.106 676.014c-6.124-13.44-11.134-33.398-11.134-44.349 0-16.611 2.385-17.933 14.392-7.968 11.708 9.717 14.392 9.25 14.392-2.502 0-24.128-35.704-26.656-51.777-3.667-14.348 20.52-14.379 20.511-14.88-4.702-0.422-21.19 3.75-25.33 25.881-25.678 14.512-0.217 40.738-2.082 58.284-4.118 23.874-2.775 35.314 1.176 45.484 15.693 19.291 27.541 0.885 43.254-24.142 20.606-18.859-17.068-19.149-16.753-17.79 19.353 0.78 20.729-3.529 38.34-9.899 40.462-6.204 2.067-8.838 7.708-5.856 12.535s1.544 8.775-3.198 8.775c-4.74 0-13.63-10.997-19.754-24.437zM436.307 653.252c-9.224-10.194-15.099-26.409-13.051-36.038 2.947-13.864 7.26-10.835 20.738 14.569 19.907 37.524 16.203 47.866-7.687 21.469zM281.073 623.378c-14.777-5.588-21.708-18.78-25.769-49.054-5.095-37.986 0.598-64.546 8.957-41.776 10.376 28.268 45.32 75.159 48.698 65.347 2.162-6.273-3.314-22.465-12.171-35.978-13.101-19.997-13.572-24.572-2.524-24.572 21.355 0 36.602 20.641 36.602 49.553 0 31.016-24.431 47.584-53.795 36.48zM715.073 618.631c-10.366-27.010-6.649-48.959 10.988-64.92 17.923-16.22 34.019-11.589 43.158 12.42 3.451 9.072 5.758 5.703 6.235-9.115 0.463-14.371 4.136-19.963 9.448-14.392 4.779 5.012 5.81 26.384 2.288 47.493-5.719 34.277-9.592 38.689-36.25 41.294-20.684 2.021-31.696-1.904-35.869-12.778zM749.798 599.822c-2.509-13.131-8.4-21.504-13.086-18.607-4.827 2.983-4.205 13.338 1.436 23.874 13.426 25.088 17.135 23.412 11.654-5.268zM832.273 522.902c-1.957-24.634-0.558-46.646 3.112-48.912 5.95-3.678 34.757 6.961 101.418 37.459 26.636 12.187 14.496 30.696-25.362 38.668-15.098 3.022-38.283 8.209-51.525 11.533-22.808 5.725-24.264 3.683-27.64-38.746zM142.978 535.035c-29.022-11.14-54.641-21.726-56.927-23.523-10.799-8.493 21.993-25.459 71.41-36.945 52.695-12.251 54.409-12.032 49.62 6.273-2.727 10.429-1.297 31.726 3.178 47.326 9.789 34.131 5.021 34.619-67.281 6.868zM779.855 485.028c-4.214-10.979-9.078-11.613-22.906-2.977-13.521 8.443-21.178 7.959-33.312-2.113-12.977-10.77-14.607-23.798-9.249-73.841 4.615-43.094 2.992-64.998-5.579-75.328-18.495-22.287-2.514-29.163 20.136-8.664 14.846 13.435 18.591 25.213 14.508 45.628-4.413 22.067-1.694 28.515 13.734 32.548 10.579 2.766 21.078 14.228 23.328 25.473 2.248 11.242 6.601 32.313 9.672 46.826 5.87 27.749-1.192 36.258-10.329 12.445zM750.042 440.768c-3.38-12.93-8.449-16.556-14.577-10.431-9.931 9.931-2.117 30.254 11.629 30.254 4.471 0 5.797-8.921 2.944-19.823zM270.104 322.193c-51.797-77.989-54.12-95.241-9.464-70.282 39.435 22.041 53.79 37.659 48.143 52.38-4.294 11.187-0.968 13.127 14.231 8.302 10.978-3.485 22.765-1.553 26.4 4.332 4.082 6.605-0.146 9.475-11.186 7.585-14.475-2.48-17.491 2.716-16.338 28.141 0.78 17.151-1.382 31.128-4.797 31.059-3.415-0.071-24.562-27.75-46.988-61.52zM743.488 311.838c-15.489-23.638-15.198-24.283 17.965-40.098 42.592-20.311 51.252-11.752 31.024 30.66-18.963 39.767-27.979 41.502-48.99 9.436zM533.806 229.377c-11.947-13.075-23.959-16.773-40.775-12.551-18.486 4.639-23.84 2.267-23.84-10.56 0-22.686 31.724-110.265 39.941-110.265 3.659 0 14.993 22.666 25.184 50.37 36.181 98.349 36.029 122.993-0.508 83.006z"></path>
    </svg>