<svg xmlns="http://www.w3.org/2000/svg" viewBox="-62.115 71.890 1172.954 880.662">
    <path fill="#000000" d="M672.691 865.816c0.557-4.307 2.027-7.349 1.978-11.958-0.037-7.656 0-15.306 0-22.956 0-9.174 0-18.396 0.037-27.619 0.148-13.684-3.652-26.911-4.056-40.543-0.46-13.684-2.078-27.013-1.928-40.796 0.073-8.061-1.109-17.232-2.482-25.185-3.395-19.817-6.993-39.679-10.491-59.445-3.189-18.294-7.043-36.436-7.043-54.984 0.037-9.68 0.411-19.108-1.417-28.687-2.333-12.212-4.056-24.883-4.663-37.298-0.563-11.908 0.557-23.311-1.419-35.123-1.266-7.247 0.367-14.644-0.913-21.789-2.737-15.711-2.633-32.432-5.981-48.296-1.778-8.466-4.004-17.081-5.622-25.596-0.512-2.383 0.608-5.017 0.186-7.398-0.512-2.536-1.727-4.208-2.228-6.688-0.46-2.333 0.332-5.067 0.148-7.398-0.148-2.991-1.419-4.915-2.078-7.753-1.874-7.605-2.941-15.609-3.903-23.367-0.46-3.748-1.824-5.675-1.978-9.68-0.219-4.916-3.395-8.871-4.157-13.632-0.658-3.954 1.574-6.74-3.848-7.903-3.497-0.76-8.414 0.148-12.009 0.148-11.15 0-25.086 2.182-35.679-0.46-7.599-1.874-14.29-3.447-22.2-3.447-4.613 0-7.651-0.416-11.908-1.524-4.916-1.266-10.896-0.46-16.065-0.46-3.296 0-6.638 0.037-9.983 0-1.373 0-4.922-0.608-6.135-0.073-2.836 1.219-1.219 1.269-1.824 3.954-3.65 15.256-5.017 31.674-7.549 47.334-1.673 10.538-2.737 21.585-4.004 32.231-1.219 10.334-3.447 20.526-4.409 30.909-2.027 21.592-5.169 42.722-9.476 64.007-5.169 25.238-5.576 51.036-10.491 76.374-3.142 15.963-4.814 32.333-7.498 48.398-3.803 22.753-6.438 45.761-10.031 68.517-2.482 15.963-4.208 32.027-5.878 48.092-1.772 16.88-4.967 33.652-7.043 50.574-2.177 18.501-5.116 36.897-10.031 54.783-1.928 7.149-1.47 13.941-3.954 21.035-1.015 2.787-2.432 6.182-3.044 8.612-0.704 2.942-3.594 9.022-0.608 10.948 1.322 0.814 5.116 0.46 6.638 0.714 3.447 0.557 5.931 1.367 9.525 1.468 9.275 0.367 18.649 0.037 27.928 0.037 2.333 0 10.031 1.269 11.706-0.332 1.013-1.013 0.332-4.711 0.294-5.876-0.111-5.069 0-10.139 0.037-15.256 0-32.586 5.978-64.512 5.978-97.252 0-6.588-0.504-13.28 0.416-19.813 1.063-6.998 3.546-13.839 3.546-20.934 0-8.106 2.941-15.711 4.004-23.766 1.419-10.643 2.333-21.641 4.359-32.181 0.962-5.169 4.307-9.476 5.32-14.648 1.373-6.944 0.148-13.273 2.177-20.273 3.447-11.706 6.688-23.563 8.667-35.623 4.613-27.973 11.706-56.709 11.453-85.137-0.073-11.813-0.037-23.669-0.037-35.477 0-8.312-1.065-17.534 0.46-25.692 1.874-9.936 1.727-20.273 3.954-30.209 0.908-4.101 3.241-7.397 3.748-11.655 0.46-3.898-0.148-8.258-0.148-12.212v-13.431c0-2.432-0.148-4.915-0.037-7.296 0.148-3.954 1.47-6.638 2.132-10.341 0.917-5.067 0.714-10.436 1.824-15.503 1.874-8.263 5.474-4.869 12.060-3.803 6.033 0.913 10.442 2.278 16.321 4.359 3.189 1.109 6.635 0.704 9.781 1.824 3.038 1.063 4.967 2.987 8.258 3.546 4.922 0.814 10.239-1.063 15.053 0.367 2.278 0.661 7.907 3.398 9.68 4.866-0.608 0.512-0.908 1.164-0.809 1.974 4.307 2.739 1.569 19.311 1.569 23.873 0 9.275 1.468 19.967-0.411 29.141-1.266 5.925-2.333 11.858-3.088 17.886-1.109 8.364 0.073 16.725-0.908 25.086-1.419 11.503-1.574 22.299-1.574 33.954 0 12.267 0.148 23.873 2.482 35.882 1.727 8.871 2.536 17.791 3.954 26.708 1.874 11.554 7.498 22.144 9.377 33.497 1.623 9.784 1.928 19.513 3.702 29.345 0.962 5.172 0 10.189 0.367 15.358 0.332 4.866 1.671 9.578 2.078 14.441 1.468 17.485 2.027 34.46 2.027 51.998v65.68c0 24.327-1.623 48.398-5.931 72.32-0.557 2.887-1.727 5.32-2.633 8.106-1.524 4.813-1.772 9.68-2.836 14.597-1.015 4.967-3.246 9.426-4.665 14.24-0.658 2.177-2.022 6.54-1.722 8.818 6.080 2.536 11.453 2.228 17.84 3.645 4.202 0.968 7.549 0.661 11.858 0.917 4.004 0.186 7.651 1.874 11.655 2.132 11.958 0.809 24.278-0.073 34.309-5.931z"></path>
    <path fill="#000000" d="M682.674 286.314c0.714-3.189-1.874-6.438-2.027-9.729-0.186-3.197 0.037-6.486 0.037-9.735v-20.424c0-5.521-1.468-13.172-0.073-18.547 0.814-3.345 2.228-3.546 2.078-7.701-0.148-4.915 0.073-4.409 4.056-6.74 4.712-2.784 5.271-8.263 5.879-12.72 0.411-3.142 1.671-4.613 2.078-7.701 0.504-3.752-1.015-8.213-0.148-11.807 0.661-2.683 1.978-3.497 2.132-6.688 0.148-2.582 0.714-6.336 0.148-8.818-1.568-6.638-12.212-5.777-17.886-5.777-26.708 0-53.418 0-80.123 0-11.458 0-23.063 0.557-34.464 0.037-4.253-0.219-7.903-1.824-12.111-2.078-5.623-0.367-10.285-0.367-15.66-1.47-21.789-4.511-44.897-4.307-67.348-4.307-19.311 0-38.669 0.073-57.978 0-1.928 0-4.157-0.219-6.027-0.037-2.482 0.332-2.582 1.119-4.409 1.574-3.347 0.861-6.438 0.073-7.656 4.208-0.367 1.266 0.512 2.887 0.219 4.101-0.411 1.673-1.821 2.078-2.228 3.702-0.908 3.65 0.073 9.525 0.073 13.28 0 5.724-2.177 14.947 3.443 18.445 2.737 1.727 6.033 1.569 9.022 2.887 3.088 1.373 4.511 2.683 7.194 4.866-1.266 3.093-1.772 5.474-1.727 9.222 0.073 4.056-1.513 6.891-2.022 10.693-1.015 7.093 0.037 15.204 0.037 22.348s0 14.29 0 21.437c0 1.778 0.332 4.106 0.037 5.878-0.294 2.027-1.322 2.787-1.623 4.258-0.704 3.395-1.824 7.549-2.228 10.949 5.116 1.213 11.453 0.332 16.772 0.332 4.461 0 14.698 1.821 18.547-0.416 3.902-2.228 2.892-9.736 1.978-13.227-1.568-5.931-0.913-11.706-1.978-17.84-1.266-6.842-1.513-13.076-1.568-20.069 0-2.887-0.148-5.573 0.46-8.312 0.148-0.704 1.367-1.213 1.623-2.278 0.509-1.923-0.61-4.101-0.186-6.027 0.864-3.803 5.123-9.173 8.111-11.706 5.678-4.813 10.031-5.731 17.485-5.731 16.673 0.037 34.813-1.824 51.283 0.46 14.036 1.974 28.023 2.027 42.114 3.903 6.431 0.861 12.263 3.296 18.849 3.497 5.422 0.186 10.949-0.037 16.419-0.037h33.599c5.372 0 17.027-2.333 21.384 0.416 5.375 3.291 1.119 8.972 0.332 13.178-0.809 4.354-0.037 9.121-0.861 13.632-0.861 4.562-2.078 10.488-1.119 15.148 1.015 4.967 2.132 8.312 2.078 13.684 0 3.347 0.037 6.688 0.037 10.038 0 2.536-1.109 7.701-0.148 9.88 0.917 2.182 5.474 3.395 8.111 3.853 3.345 0.557 6.638-0.512 9.983 0.367 2.993 0.759 6.283 2.991 9.578 1.114 3.954-2.278 3.398-13.178 2.078-16.772-0.557-0.073-1.114-0.219 4.307 9.377z"></path>
    <path fill="#000000" d="M642.742 338.816c14.089 0 30.1-2.228 43.887 0.46 5.32 1.015 10.693 1.978 16.065 2.993 4.056 0.759 7.907-0.148 11.908 0.367 3.497 0.416 6.385 1.978 10.038 2.078 3.038 0.073 3.898-0.148 6.382 1.318 3.902 2.278 6.842 8.312 9.022 12.218 2.027 3.696 3.144 7.549 4.971 11.195 1.873 3.702 4.712 6.638 6.993 10.288 3.291 5.218 3.999 7.853-3.497 7.701-25.287-0.46-50.574 0.073-75.864 0-2.683 0-5.678-0.367-8.364-0.073-4.157 0.411-7.397 2.942-11.655 1.727-5.017-1.419-10.235-5.067-11.453-9.831-0.608-2.482 0.073-4.813-0.332-7.352-0.509-2.836-1.978-4.764-2.182-7.753-0.256-5.169 0.037-10.436 4.056-25.287z"></path>
    <path fill="#000000" d="M467.091 325.184h-85.85c-4.359 0-8.617 0-12.924 0-5.067 0-7.651-1.013-11.908-2.027-3.345-0.759-9.627-0.416-13.125 0.037-5.271 0.608-6.484 2.887-8.409 7.397-1.269 3.044-4.157 6.336-5.326 9.324-0.809 2.132-0.557 4.409-1.618 6.638-1.164 2.482-1.928 4.258-2.536 6.79-1.015 4.157-1.623 8.111-2.432 12.217-0.46 2.228-2.589 1.974-0.512 4.409 1.569 1.821 4.712 1.722 6.842 1.928 6.487 0.608 13.481-0.037 20.019-0.037 10.087 0 19.261 0.367 29.141 1.772 13.481 1.928 28.786 0.148 42.418 0.148 2.784 0 5.925-0.367 8.713-0.073 3.853 0.411 7.656 2.942 11.655 2.228 6.54-1.063 5.78-8.004 8.111-12.617 4.967-9.736 9.782-21.338 17.738-38.11z"></path>
    <path fill="#000000" d="M646.746 410.781h103.686c9.222 0 21.032-1.874 30.052 0.46 3.702 0.908 5.98 1.568 9.985 1.468 4.153-0.037 6.182-0.219 8.562 3.447 1.373 2.078 2.177 4.208 3.803 6.234 2.887 3.645 4.764 3.443 5.573 7.802 1.119 6.135 3.65 12.72 6.234 18.294 1.119 2.333 1.673 4.663 2.683 7.043 1.322 3.144 4.764 5.629 4.866 9.426-7.753 1.928-17.735 0.219-25.744 0.219h-30.052c-26.961 0-52.857-2.941-79.313-7.296-3.546-0.608-6.891-0.416-10.436-0.46-3.652-0.037-5.629-1.063-8.92-1.772-5.425-1.163-12.066 0.714-17.081-2.432-4.409-2.784-4.967-12.718-6.385-17.176-0.658-2.078-2.536-4.511-3.038-6.283-0.962-3.497-0.46-7.549 5.527-19.004z"></path>
    <path fill="#000000" d="M453.155 408.805h-37.505c-17.581 0-35.776 1.266-53.261-0.968-9.88-1.266-21.335 0.917-30.966-1.417-10.186-2.432-21.74 0.658-31.978-1.928-3.546-0.917-6.74-1.219-10.387-1.974-3.652-0.704-8.162-3.142-11.604-0.608-2.589 1.873-2.333 6.080-3.447 8.871-1.063 2.784-1.673 5.067-2.482 7.753-0.913 3.038-1.322 5.573-2.177 8.716-1.013 3.696-1.322 7.043-2.278 10.738-1.727 6.898-7.093 12.774-9.276 19.007 15.913 4.359 33.040 2.383 49.516 2.383h99.988c7.145 0 14.339 0 21.536 0 5.218 0 8.92 1.063 12.111-3.144 2.841-3.696 4.461-10.031 6.283-14.391 2.633-6.336 3.902-12.617 5.931-33.040z"></path>
    <path fill="#000000" d="M664.682 494.396c32.892 0 65.83 0 98.724 0 15.249 0 29.998 1.928 45.254 1.928 8.916 0.037 16.926 2.027 25.692 1.974 4.613-0.037 14.845-1.928 18.801 0.037 3.549 1.772 2.482 5.724 3.088 8.769 0.46 2.182 1.524 4.056 2.538 6.184 2.941 6.080 4.303 13.376 5.925 20.014 1.47 5.878 4.562 11.098 5.372 17.182-27.872 5.271-58.933 2.228-87.57 2.228h-84.226c-9.377 0-18.699 0.608-27.619-1.524-3.601-0.861-5.116 0.46-6.082-3.241-0.658-2.633 0.037-7.043 0.073-9.834 0.037-6.33-2.991-10.334-4.101-16.521-0.61-3.546-0.512-6.234-1.419-9.729-0.861-3.142-0.46-6.438 5.52-17.485z"></path>
    <path fill="#000000" d="M419.199 494.396c-35.831 0-71.663 0.037-107.488 0-11.813 0-22.703-1.928-34.618-1.928-13.684-0.037-27.418 0.367-41.102 0-5.372-0.073-16.975-5.724-18.498 0.864-0.367 1.568 0.512 3.345 0.186 4.967-0.256 1.47-1.266 2.536-1.618 3.903-0.814 2.887-0.332 5.724-0.46 8.763-0.219 5.123-2.388 10.389-3.803 15.558-1.47 5.326-3.752 10.998-5.98 16.116 3.044 0.864 6.438 0.416 9.578 0.367 9.479-0.037 18.958 0 28.434 0h133.486c7.858 0 15.711-0.037 23.567 0 7.448 0.037 9.983-0.219 11.858-7.757 1.109-4.461-0.704-9.377 0.367-13.734 0.557-2.383 1.772-2.991 2.132-5.675 0.367-2.482-0.037-5.326 3.954-21.44z"></path>
    <path fill="#000000" d="M674.667 583.843c51.738 0 103.483-0.073 155.227 0 11.656 0.037 22.956-2.022 34.51-1.923 6.638 0.037 13.28 0 19.868 0 3.949 0 12.617-1.673 16.065-0.148 3.392 1.513 1.824 10.942 2.836 14.644 0.759 2.887 1.978 5.931 2.587 8.818 0.658 3.241-0.148 6.589 0.809 9.782 2.027 6.688 8.162 8.818 11.711 14.338 1.318 2.132 2.022 2.432 1.972 5.070-0.037 3.898-0.46 3.493-4.051 3.898-6.438 0.714-13.583 0-20.069 0h-95.327c-14.644 0-29.042 0.61-43.483-1.513-11.858-1.824-23.867-2.536-35.933-2.383-4.663 0.037-7.802-1.47-12.263-2.078-4.307-0.563-9.324 0.073-13.631 0.073-2.887 0-6.033 0.367-8.871 0.037-4.866-0.557-3.088-0.661-4.157-4.866-3.142-12.014-11.554-23.417-7.802-43.791z"></path>
    <path fill="#000000" d="M423.204 585.769v-1.266c0 10.792 0 21.585 0 32.383 0 1.824 0.913 6.283 0.148 7.903-1.269 2.688-3.497 1.874-6.438 1.824-10.544-0.186-21.082 0-31.623 0-11.503 0-23.158-0.411-34.665-0.073-7.453 0.219-14.549 1.928-21.996 2.132-7.599 0.148-15.256-0.073-22.907-0.073-8.567 0-17.127 0-25.744 0-12.267 0-23.771-3.549-35.983-3.954-8.414-0.219-16.318-3.392-24.376-3.848-8.511-0.512-16.318-2.027-24.985-1.874-7.247 0.073-13.734-2.027-20.931-1.974-4.967 0.037-14.542 2.228-11.554-5.422 0.658-1.727 3.142-3.954 4.107-5.83 1.063-1.978 1.928-4.056 2.887-6.283 1.219-2.633 2.683-5.271 4.056-7.802 1.978-3.601 1.574-4.813 2.432-8.818 0.504-2.182 1.673-3.447 2.132-5.629 0.411-1.873-1.17-6.182 0-7.802 1.928-2.587 7.043-0.658 9.929-0.148 8.567 1.574 17.182 4.813 25.948 5.116 11.453 0.367 22.144-0.704 33.497 1.772 11.604 2.582 24.074 3.038 35.933 3.752 10.896 0.608 21.18 0 31.928 1.671 10.389 1.569 21.592 0.411 32.079 0.411 25.389 0 50.729 0 76.122 3.898z"></path>
    <path fill="#000000" d="M684.649 673.293h236.466c3.853 0 7.753-0.148 11.554-0.037 3.902 0.148 6.74 1.618 10.387 2.078 5.527 0.658 12.622-1.928 17.031 1.821 3.803 3.197 1.419 10.794 2.432 16.014 1.219 6.283 2.784 13.026 6.033 18.703 1.568 2.784 2.228 4.711 3.493 7.802 1.065 2.432 2.683 3.702 4.005 6.033 1.109 2.027 5.675 11.402 3.702 13.431-1.164 1.163-6.789 0.46-8.414 0.704-8.567 1.417-16.982 2.383-25.692 1.063-13.941-2.027-28.029-3.038-41.914-5.372-25.34-4.208-49.969-3.347-75.561-3.803-10.133-0.148-20.019-2.379-29.998-3.594-7.701-0.917-15.609-0.367-23.361-0.367-12.72-0.037-25.491 0-38.211 0-9.983 0-20.424 1.013-29.798-1.524-7.093-1.978-15.558 2.633-20.627-3.752-2.887-3.594-2.228-6.486-3.447-10.436-0.962-3.093-2.132-3.954-2.078-7.656 0.073-6.487 0-12.971 4.005-31.113z"></path>
    <path fill="#000000" d="M399.231 681.095h-20.98c-14.191 0-29.19 1.47-43.278-0.46-15.256-2.027-30.459-2.683-45.814-4.866-17.435-2.536-35.173-4.005-52.757-5.375-11.098-0.861-21.694-2.383-32.642-4.409-4.663-0.861-9.525-2.278-14.239-2.482-10.593-0.509-21.032-1.671-31.623-2.836-13.934-1.569-28.074-0.962-42.112-0.962-5.98 0-18.599 2.333-23.518-1.772-0.759 5.372-3.645 10.133-4.511 15.358-0.809 5.067-0.861 10.689-2.784 15.66-1.618 4.101-3.898 7.448-5.169 11.503-0.658 2.177-1.623 5.52-2.027 7.853-0.416 2.432 0.809 4.258-1.109 6.438 2.022 2.228 5.826 1.367 8.663 1.367 7.453-0.073 14.953 0 22.449 0 11.453 0 22.956 0.037 34.408-0.037 7.093 0 14.648-0.704 21.641 0.332 5.372 0.809 10.387 2.482 15.609 3.696 13.431 3.144 27.163 1.164 40.845 2.278 15.2 1.269 30.101 1.524 45.403 1.524 13.382 0 26.809 0 40.191 0 8.213 0 17.183-0.968 25.34 0.46 11.503 1.974 23.108 1.524 34.813 1.524 7.302 0 18.804 1.824 26.303 0.037 5.372-1.269 2.836-9.426 1.419-13.684-2.892-8.567-3.702-16.626 5.472-31.118z"></path>
    <path fill="#000000" d="M704.62 776.372c3.493-0.367 5.931 0.411 9.222 1.417 7.247 2.177 14.694 2.487 22.2 3.65 29.545 4.612 59.091 8.716 89.039 8.567 49.407-0.186 98.871 0 148.337 0h26.602c4.056 0 12.418-1.673 16.12-0.148 3.443 1.468 1.821 8.515 1.821 12.111 0 5.067-0.557 10.341 0.46 15.358 0.809 4.107 0.759 8.667 1.722 12.617 1.065 4.511 4.307 8.567 6.336 12.471 2.582 4.866 1.419 11.353 1.928 16.723 0.367 3.093 2.432 3.398-2.278 4.663-2.887 0.765-6.385 0.148-9.324 0.219-6.184 0.332-12.317 1.322-18.547 1.623-14.598 0.704-30.512 1.368-45.107 0-7.808-0.704-14.851-1.874-22.703-1.824-12.572 0.037-25.34 0.814-37.807-0.416-12.111-1.114-23.766-1.524-35.927-1.419-11.762 0.037-23.163-1.722-34.869-2.132-17.027-0.608-34.207 0.61-51.233 0.219-6.74-0.219-12.977-1.824-19.614-2.132-6.027-0.332-12.212 0.073-18.294 0.073-5.52 0-14.694 1.722-19.918 0.073-0.809-0.219-2.333-1.569-2.633-1.623-1.266-0.332-3.546 0.073-4.409-0.557-2.683-1.928-0.658-4.866 0.367-7.448 1.918-4.971 3.142-10.288 4.101-15.508 1.673-8.818 0.46-17.13-3.142-25.185-2.941-6.588-4.461-10.643-2.432-31.472z"></path>
    <path fill="#000000" d="M383.267 782.195h-251.666c-14.194 0-29.545 1.623-43.633 0.073-3.093-0.367-5.425-1.618-8.414-2.121-3.853-0.714-8.769 0.073-12.721 0.073-5.319-0.037-10.59 0.037-15.863 0-1.367-0.037-4.866-0.765-5.925 0.037-1.772 1.313-0.864 3.594-1.47 5.777-1.266 4.409-4.663 10.288-6.79 14.339-5.271 9.834-5.067 22.703-11.199 31.928-2.132 3.144-7.701 5.171-2.784 9.022 3.291 2.639 12.363 1.623 16.318 2.078 11.604 1.269 23.108 0.968 34.763 0.968 38.265-0.037 76.526 0 114.789 0 38.818 0 77.69 0.148 116.559 0 16.975-0.073 33.701 1.978 50.676 1.928 2.887 0 6.588 0.658 9.377 0.073 2.683-0.512 4.916-1.928 7.651-2.383 0.61-4.056 2.228-7.098 2.334-11.251 0.148-5.171 0.037-10.288 0.037-15.407 0-9.476-2.027-18.094 7.954-35.223z"></path>
    </svg>