<svg xmlns="http://www.w3.org/2000/svg" viewBox="-28.205 -0.393 1095.501 1024.393">
    <path fill="#000000" d="M567.158 576.149c5.177-19.117 1.961-39.123 3.034-59.221 0.345-6.342 0.884-10.397 2.889-16.739 2.005-6.48 6.48-10.349 8.486-16.088 2.423-6.855 0.696-16.645 0.696-23.923 0-27.513-6.527-52.272-11.239-79.225-4.103-23.78-8.020-45.231-19.212-67.196-4.801-9.37-9.65-18.651-13.055-28.306 0.138 6.203-0.466 12.731-0.466 18.793l-1.629-25.508c-0.842-3.266-1.588-6.622-1.961-10.073 0.431 1.588 1.021 3.083 1.633 4.572l-2.054-33.018c-11.981 2.378-21.26 24.018-26.999 32.921-6.109 9.418-4.056 16.505-5.876 26.904-0.98 5.41-1.863 11.752-2.937 17.163-1.678 8.623-6.2 15.478-8.296 24.012-3.22 13.012-6.669 26.21-10.773 38.983-3.171 9.931-5.364 21.308-11.1 30.169-5.267 8.068-6.062 11.939-6.014 21.732 0.070 10.817-2.142 24.481-0.173 35.204 0.932 5.364 3.542 9.513 4.337 14.877 0.653 4.478-0.466 9.466-0.207 13.992 0.608 12.356 9.047 22.939 11.286 35.204 0.79 4.289 0.207 8.624 1.586 12.775 1.588 4.992 5.739 8.814 6.903 13.992 2.565 11.097-1.912 23.176 1.212 34.32 2.986 10.631 3.171 20.285 3.124 31.754-0.070 10.588 2.005 17.908 4.988 27.84 6.485 21.869 15.343 43.738 14.877 66.869-0.836-7.693 5.083-12.589 8.068-18.603 3.638-7.184 5.596-16.182 8.068-23.875 6.575-20.567 13.615-37.587 24.856-56.286 4.008-6.666 11.752-12.403 14.316-19.91 2.61-7.741-0.466-16.227 1.678-24.109z"></path>
    <path fill="#000000" d="M986.46 126.347c-13.85-5.782-25.083-15.389-40.568-17.114-19.446-2.142-38.794-2.61-58.054-6.246-12.219-2.286-24.67-2.095-36.84-4.383-9.138-1.725-17.904-4.896-27.047-6.622-8.159-1.536-16.645-3.728-24.902-4.383-9.51-0.746-19.117 0.345-28.678-0.514-21.54-1.816-43.177-0.173-64.675-2.329-10.445-1.029-20.842-0.466-31.287-1.308-11.149-0.884-22.012-1.536-33.203-1.397-20.006 0.207-39.821-1.863-59.779-1.816-20.333 0.034-40.196 0.466-60.388 1.816-17.58 1.163-34.743 1.775-52.319 1.822-9.095 0-18.376 0.604-27.422-0.345-10.583-1.073-20.096-3.451-30.821-3.358-18.979 0.138-38.051-0.563-57.031 0.173-8.205 0.345-16.087 1.678-24.199 2.658-13.060 1.493-26.163 1.725-39.265 3.358-9.931 1.212-20.006 2.286-29.985 2.799-10.259 0.557-20.656-0.7-30.916 0.431-19.303 2.142-34.131 11.752-51.059 19.54-5.083 2.282-10.678 3.494-15.343 6.527-5.364 3.451-8.348 7.553-15.109 8.253-11.049 1.163-25.368 1.397-35.998-0.7-9.794-1.957-18.37-8.253-28.397-8.396-2.378-0.034-4.849-0.138-7.23 0-2.935 0.138-4.892 1.446-7.645 1.957-4.056 0.746-9.747-2.095-12.637 1.637-3.868 4.988 2.050 10.726 4.801 14.639 8.068 11.661 15.437 23.969 22.849 36.045 4.151 6.809 5.971 13.898 9.143 21.080 1.912 4.337 4.289 7.787 5.219 12.494 1.121 5.739 3.451 10.773 5.083 16.369 1.867 6.251 2.518 12.823 4.197 19.122 4.197 15.666 12.499 30.074 18.839 44.951 6.851 16.136 16.274 31.196 23.548 47.189 7.836 17.206 11.329 37.862 15.343 56.237 7.321 33.479 20.937 64.537 39.498 93.727 3.449 5.453 7.041 10.817 10.537 16.274 4.572 7.089 7.507 14.877 11.752 22.103 3.685 6.391 8.998 12.033 13.197 18.184 4.664 6.855 7.788 14.41 12.123 21.451 5.364 8.629 10.726 16.834 15.109 26.020 4.008 8.444 10.118 15.109 15.478 22.758 5.13 7.321 8.629 15.527 13.383 23.082 6.109 9.607 13.758 18.001 19.354 27.931 5.219 9.375 9.979 18.84 16.926 27.233 8.863 10.682 16.274 21.311 22.896 33.39 8.72 15.95 17.908 31.805 27.697 47.189 3.779 5.922 6.809 12.826 11.381 18.189 5.13 5.967 10.165 11.704 14.686 18.184 9.931 14.316 20.054 29.889 27.465 45.558 3.685 7.836 6.669 14.828 11.661 22.007 4.008 5.828 4.706 12.871 8.529 18.793 4.992 7.836 10.634 14.548 15.903 22.149 3.733 5.458 8.486 10.165 12.171 15.526 3.403 4.992 4.151 14.785 9.65 17.719 0.608-4.146 0.98-8.020-1.586-14.082 0.138-5.364-1.725-11.704-3.733-16.739-5.316-13.664-11.144-27.603-17.904-40.663-6.903-13.335-12.171-27.513-18.465-41.175-5.272-11.424-10.165-22.896-14.828-34.506-6.109-15.155-11.615-29.985-20.381-44.018-9.138-14.596-15.898-30.355-24.807-45.183-8.857-14.737-19.492-28.958-26.206-44.765-5.922-13.898-12.265-27.56-18.839-41.175-7.741-15.998-14.639-32.223-24.109-47.423-4.569-7.369-9.51-15.251-12.726-23.224-2.518-6.342-3.545-12.823-7.369-18.699-9.931-15.343-23.689-28.63-30.498-45.698-3.213-8.162-6.898-15.807-11.375-23.409-5.364-9.143-12.683-17.629-15.855-27.746-1.863-5.828-2.937-11.144-5.364-16.834-2.282-5.458-5.876-10.726-7.554-16.369-1.678-5.453-1.816-10.348-4.521-15.575-4.013-7.836-7.183-15.712-10.773-23.78-1.961-4.337-4.944-8.162-6.294-12.731-1.725-6.062-2.75-12.171-5.224-18.090-4.941-11.566-5.828-24.064-12.171-35.115-2.237-3.917-5.316-7.464-7.413-11.424-2.005-3.779-1.633-5.505-2.471-9.747-1.163-5.876-4.478-11.424-5.923-17.348-2.982-12.499-7.596-24.622-10.726-37.072-1.446-5.828-1.446-10.397-4.66-15.85-3.499-6.067-4.245-9.513-5.643-15.807-1.308-5.876-4.712-10.773-5.69-16.744-0.696-4.008-3.638-8.534-3.403-12.403 2.61-1.163 3.314 1.212 5.548 1.678 4.849 1.121 10.958 0.655 16.041 1.401 4.992 0.7 9.979 0.431 15.065 0.39 8.809-0.034 17.952 0.842 26.719-0.39 7.369-1.029 13.987-1.261 21.54-1.354 10.588-0.103 20.19-2.61 30.592-3.774 19.677-2.241 39.261-4.383 58.986-5.876 11.938-0.887 23.457-1.446 35.395-1.308 10.911 0.070 21.589-1.725 32.5-2.005 27.697-0.746 56.518 1.446 83.936 4.895 19.772 2.518 39.641 3.171 59.456 5.691 10.773 1.349 21.499 3.171 32.363 4.056 10.631 0.793 19.027 5.040 29.099 7.602 7.321 1.822 13.898 1.212 21.26 1.349 14.457 0.31 27.465 7.184 41.552 9.655 14.871 2.61 29.794-0.31 44.39-3.451 5.364-1.163 10.074-3.638 15.484-4.664 5.782-1.163 11.424-1.397 17.343-1.349 11.566 0.070 23.082 0.034 34.648 0 9.418 0 19.258 0.79 28.444-1.678 6.437-1.678 12.219-4.197 18.979-4.992 8.904-0.98 17.766-1.816 26.581-2.378 2.658-0.138 3.216-0.842 5.733-1.446 9.232-2.286 21.732-0.431 31.293-0.431 9.979 0 21.823-1.401 31.705 0.138-2.003 5.734-2.892 11.61-5.125 17.206-2.101 5.316-3.171 9.889-4.059 15.484-1.261 7.83-4.755 13.24-7.602 20.513-2.329 5.971-3.638 12.313-6.105 18.232-5.129 12.171-11.1 24.575-16.882 36.374-3.733 7.648-4.289 15.669-7.184 23.643-2.237 6.2-7.741 12.683-11.657 18.095-3.728 5.125-7.507 8.529-9.65 14.499-1.725 4.801-4.944 7.972-7.227 12.637-3.638 7.369-5.739 16.136-8.253 23.923-1.775 5.548-4.151 10.769-6.203 16.227-3.124 8.068-5.782 16.602-10.074 24.157-4.192 7.273-6.342 15.527-11.235 22.383-2.937 4.103-6.809 7.273-9.232 11.752-1.916 3.494-2.896 7.597-4.664 11.192-3.034 6.105-7.041 11.844-10.634 17.672-3.822 6.157-7.507 12.871-10.631 19.351-3.542 7.417-4.197 15.532-8.068 22.853-1.816 3.403-4.383 6.246-6.391 9.556-2.003 3.266-2.795 6.998-4.337 10.402-2.142 4.755-5.596 8.952-7.972 13.615-4.337 8.343-9.327 16.088-14.267 24.061-5.224 8.486-7.882 17.766-12.451 26.534-6.809 12.871-10.958 27.279-16.369 40.752-5.316 13.292-12.917 25.273-20.33 37.492-7.041 11.657-10.82 25.184-16.322 37.444-3.171 7.135-5.272 13.898-7.787 21.128-2.15 6.062-5.876 11.981-8.486 18.001-4.759 10.817-12.778 20.424-18.422 30.868-4.151 7.693-6.898 15.993-10.631 23.829-2.518 5.364-5.548 10.863-7.273 16.505-3.266 10.677-10.82 19.863-15.855 30.031-5.548 11.239-11.052 22.939-15.527 34.6-3.314 8.672-4.572 18.001-9.375 26.158-1.633 2.75-4.383 5.458-4.151 8.904 0.98-2.423 2.613-3.638 3.917-5.596 3.358-5.173 5.505-10.863 9.232-15.947 3.034-4.103 7.602-7.226 10.213-11.52 2.707-4.426 3.917-9.466 6.855-13.85 6.062-9.091 12.589-17.068 19.629-25.554 3.126-3.774 4.944-8.998 9.979-10.912 2.005-0.793 3.827-0.604 5.739-1.775 4.849-3.027 8.858-10.493 12.403-14.828 4.712-5.734 9.466-11.424 14.41-16.974 7.178-8.020 14.221-15.527 20.936-24.109 8.3-10.493 14.78-21.589 22.473-32.363 7.183-9.931 15.019-18.793 20.799-29.61 5.734-10.726 13.102-20.424 20.937-29.846 8.623-10.349 15.014-20.748 22.149-31.94 6.714-10.449 13.289-19.683 17.114-31.524 6.105-18.883 12.823-37.587 18.651-56.565 5.733-18.699 7.602-40.007 17.624-57.26 11.615-20.006 25.883-38.519 35.627-59.55 3.266-7.132 6.342-14.452 8.486-21.958 3.171-10.915 3.965-22.43 8.019-33.156 3.403-9.046 7.882-17.813 11.52-26.765 4.478-11.052 8.486-22.059 15.109-32.082 5.177-7.836 6.855-16.929 10.493-25.414 4.383-10.259 11.281-19.027 15.014-29.657 12.033-34.6 32.827-65.47 47.752-98.857 2.518-5.596 5.41-10.863 7.602-16.602 2.329-6.014 6.062-11.239 8.44-17.111 1.539-3.779 0.842-6.485 1.212-10.354 0.345-3.311 3.171-7.178 2.329-10.445z"></path>
    </svg>