<svg xmlns="http://www.w3.org/2000/svg" viewBox="-11.173 29.942 1056.753 964.846">
    <path fill="#000000" d="M344.871 904.789c-20.249-8.617-28.301-22.136-28.301-47.515 0-30.414 31.094-53.992 35.11-26.621 0.836 5.679 6.685 14.513 13.001 19.627 22.123 17.914 76.85 7.848 82.635-15.2 6.624-26.392-1.668-28.611-106.846-28.611-109.616 0-100.567 3.415-127.443-48.083-8.776-16.814-24.917-47.468-35.871-68.122-17.383-32.772-19.918-42.148-19.918-73.679 0-39.604 9.115-59.736 27.045-59.736 8.392 0 9.499 1.881 5.492 9.37-10.377 19.392 2.264 51.4 44.352 112.265l41.531 60.067 43.873-3.655c24.129-2.015 66.194-1.907 93.476 0.243 46.22 3.617 50.748 5.025 66.395 20.674 9.237 9.237 19.303 26.209 22.372 37.717 5.917 22.188 10.482 106.004 5.995 110.024-1.46 1.308-34.919 3.738-74.354 5.4-53.939 2.275-75.871 1.248-88.543-4.145zM574.158 907.702l-47.801-2.98-1.547-47.449c-1.263-38.689 0.555-52.621 9.826-75.475 16.146-39.779 20.199-41.991 73.544-40.129 25.105 0.878 70.396 0.025 100.644-1.874 54.319-3.428 55.109-3.671 63.733-19.524 4.804-8.828 14.189-22.763 20.858-30.964 27.145-33.381 48.952-76.144 48.952-95.986 0-10.953-2.389-21.392-5.311-23.198-10.177-6.29-5.208-13.276 9.44-13.276 32.034 0 48.144 26.849 41.104 68.509-1.901 11.265-13.973 38.1-26.821 59.634s-28.511 49.909-34.806 63.053-17.251 31.668-24.35 41.16l-12.907 17.262h-75.948c-80.619 0-106.013 4.992-115.494 22.71-8.391 15.676 6.428 24.892 41.632 25.885 15.508 0.437 30.921 1.034 34.256 1.325 3.33 0.294 8.711-3.792 11.951-9.074 4.717-7.691 3.834-11.13-4.419-17.262-9.924-7.37-9.811-7.655 3.055-7.655 17.050 0 36.462 20.483 36.462 38.468 0 8.47-6.977 21.282-17.887 32.852-19.876 21.074-17.862 20.858-128.167 13.979zM346.533 712.197c2.508-8.031 4.479-43.688 4.38-79.233l-0.219-64.627 15.449-3.091c8.497-1.7 24.548-3.091 35.67-3.091 24.586 0 28.962 9.328 23.786 50.742-5.092 40.759-53.336 113.902-75.125 113.902-6.884 0-7.657-2.835-3.983-14.606zM652.779 706.886c-7.204-8.031-21.366-33.019-31.47-55.523-15.94-35.507-17.912-44.387-14.894-67.131l3.477-26.21 21.966 2.342c12.080 1.286 29.136 3.421 37.899 4.742l15.933 2.402 0.99 76.995c0.956 74.409 0.619 76.994-9.905 76.994-5.992 0-16.788-6.573-23.991-14.606zM344.792 550.007c-2.213-3.542-4.523-9.739-5.131-13.77s-3.152-9.374-5.642-11.868c-2.505-2.505-47.991-1.005-101.634 3.345-70.52 5.723-100.032 6.312-107.817 2.147-20.951-11.214-33.394-65.652-20.508-89.733 6.851-12.799 38.144-31.994 52.162-31.994 13.117 0 21.999 11.593 11.552 15.076-15.421 5.141-31.782 27.232-31.782 42.915 0 37.691 56.361 35.851 135.297-4.417 56.261-28.699 74.034-31.816 124.947-21.911 28.522 5.551 56.131-4.894 65.129-24.642 4.854-10.656 3.585-14.757-8.465-27.334-18.124-18.917-17.825-22.181 2.022-22.181 40.728 0 58.158 24.557 58.158 81.933 0 47.417-8.627 57.566-46.989 55.278l-29.82-1.777-3.293 20.186c-1.808 11.102-5.782 22.678-8.828 25.722-8.348 8.348-74.455 10.862-79.359 3.018zM623.009 553.018c-15.37-2.312-24.843-17.226-23.173-36.493 0.737-8.506-3.691-10.59-27.581-12.989-42.171-4.233-56.054-31.367-43.283-84.6 9.628-40.135 40.568-61.858 71.306-50.063 10.477 4.022 11.023 12.71 0.798 12.71-11.077 0-30.593 29.892-28.614 43.826 2.255 15.848 22.951 18.093 58.36 6.33 48.515-16.114 84.101-7.364 145.907 35.881 31.654 22.148 66.095 29.539 93.129 19.984 24.957-8.822 36.405-22.43 28.248-33.578-30.283-41.388-29.225-49.367 5.672-42.821 46.395 8.703 56.646 43.553 27.215 92.533l-17.55 29.211-49.888 3.527c-38.511 2.724-61.955 1.229-102.807-6.557-55.516-10.577-67.091-8.677-67.091 11.026 0 14.176-26.534 18.711-70.648 12.071zM154.004 377.889c-27.847-18.056-49.879-52.415-49.879-77.797 0-23.775 33.787-107.909 50.063-124.66 9.69-9.971 19.383-12.827 51.312-15.113l39.367-2.821 62.431 43.265c52.916 36.674 64.246 47.062 74.354 68.176 14.634 30.563 31.875 41.203 58.641 36.18 25.216-4.73 29.369-14.437 23.527-54.993-4.276-29.692-6.067-33.194-16.975-33.194-7.516 0-13.208 3.874-14.835 10.093-4.259 16.288 0.743 44.109 9.716 54.024 12.060 13.324 1.047 17.383-21.549 7.941-44.753-18.699-49.986-111.43-7.524-133.386 17.059-8.822 61.337-10.2 81.492-2.538l13.623 5.179v90.106c0 64.362-1.818 91.234-6.374 94.046-3.505 2.165-35.172 8.013-70.371 12.989-75.055 10.615-74.004 11.127-79.225-38.802-2.805-26.821-6.386-36.086-18.725-48.426l-15.262-15.262 7.432 28.487c9.090 34.833 5.879 51.942-13.159 70.182-23.348 22.369-57.872 24.534-96.542 6.051-39.792-19.018-47.012-33.487-36.443-73.018 6.881-25.744 9.579-28.852 40.8-47.002 28.632-16.648 36.084-18.837 51.922-15.267 10.171 2.293 22.609 7.322 27.636 11.174s3.505 0.67-3.384-7.072c-19.249-21.625-47.943-24.275-81.981-7.572-58.785 28.85-82.94 69.716-65.657 111.077 8.566 20.499 42.216 43.713 72 49.67 23.556 4.711 10.692 12.427-20.711 12.422-16.878-0.002-30.309-4.159-45.72-14.151zM276.978 320.747c15.789-15.788 16.769-36.343 2.418-50.698-23.635-23.635-58.422-7.514-58.422 27.076 0 34.495 31.745 47.882 56.008 23.62zM821.121 388.191c0-2.207 7.362-7.272 16.359-11.256 18.718-8.286 47.375-44.938 47.375-60.594 0-61.334-68.367-120.138-121.837-104.805-22.062 6.328-29.196 12.436-54.449 46.616-16.85 22.809-21.415 34.317-24.813 62.541-2.29 19.024-6.529 36.954-9.418 39.842-5.637 5.638-136.682-11.043-143.996-18.329-2.192-2.185-4.717-41.417-5.613-87.191-2.018-102.895-1.879-103.169 51.325-106.178 35.811-2.022 38.311-1.385 53.237 13.536 21.711 21.711 26.543 55.886 13.175 93.191-9.239 25.781-11.271 27.847-28.506 28.983-16.8 1.106-17.362 0.721-5.925-4.066 11.415-4.775 12.362-7.691 9.821-30.221-1.913-16.987-6.554-27.967-14.549-34.442-14.692-11.898-17.112-11.85-32.544 0.656-10.353 8.391-12.47 14.908-12.145 37.423 0.479 33.182 12.585 47.726 42.644 51.233 24.319 2.835 44.515-11.892 56.878-41.484 4.537-10.862 24.149-31.722 49.405-52.555 52.53-43.328 50.937-42.414 86.538-49.695 37.321-7.632 73.193-1.841 88.506 14.295 14.215 14.977 50.065 104.975 50.065 125.68 0 19.080-29.416 62.843-53.025 78.882-16.805 11.418-58.507 17.074-58.507 7.935zM749.422 367.385c-14.388-3.788-34.574-22.852-40.528-38.277-3.134-8.121-2.61-24.178 1.47-44.909 7.15-36.341 21.276-53.428 50.946-61.621 23.429-6.469 70.449 9.852 86.248 29.934 11.971 15.218 14.019 43.733 5 69.603-9.903 28.41-68.865 54.29-103.134 45.267zM800.141 325.68c12.606-6.519 15.669-11.571 15.669-25.839 0-40.281-40.616-60.626-63.347-31.731-6.054 7.696-11.008 17.919-11.008 22.717 0 16.57 21.148 38.329 41.424 42.616 0.875 0.169 8.642-3.31 17.262-7.766zM959.21 246.858c0-4.967-5.734-20.301-12.742-34.080-16.138-31.728-63.002-60.034-115.697-69.883-34.066-6.368-36.954-6.054-71.639 7.823-62.267 24.91-92.034 23.195-92.034-5.307 0-10.111 14.346-29.383 21.872-29.383 1.347 0 2.348 6.507 2.233 14.461-0.322 21.036 11.523 20.833 61.326-1.066 42.316-18.605 44.803-19.040 89.25-15.624 52.472 4.033 88.892 19.94 110.49 48.257 10.729 14.069 13.070 23.298 13.238 52.206 0.073 19.314-1.26 36.58-3.052 38.369-1.786 1.789-3.255-0.807-3.255-5.774zM70.447 230.499c-1.62-4.225-1.133-19.168 1.088-33.207 3.035-19.19 9.225-31.075 24.952-47.9 20.292-21.707 22.336-22.548 68.328-28.136 26.074-3.171 48.793-6.616 50.485-7.662 5.906-3.652 61.537 8.583 73.202 16.099 6.47 4.168 18.101 7.578 25.847 7.578 11.47 0 13.569-1.971 11.306-10.621-3.445-13.169 9.816-14.327 26.912-2.355 11.78 8.253 14.676 20.554 8.579 36.443-4.849 12.635-36.283 10.457-66.243-4.59-41.581-20.886-58.461-23.805-96.414-16.672-42.473 7.98-76.98 31.657-102.768 70.506-10.294 15.511-19.528 28.199-20.522 28.199s-3.129-3.455-4.752-7.683z"></path>
    </svg>