<svg xmlns="http://www.w3.org/2000/svg" viewBox="-9.543 55.489 1043.425 914.184">
    <path fill="#000000" d="M440.527 883.703c-11.368-5.048-20.917-7.17-34.918-7.765-40.12-1.703-120.534-29.657-158.971-55.266-5.214-3.473-16.095-9.198-24.181-12.721-17.695-7.713-31.224-21.496-63.7-64.916-8.56-11.443-24.075-40.72-25.768-48.629-0.886-4.137-3.977-11.494-6.867-16.347s-6.79-13.885-8.67-20.065c-3.071-10.099-3.075-12.212-0.059-20.862 1.848-5.293 2.782-12.428 2.086-15.854-1.074-5.246 0.157-7.599 7.777-14.983 8.505-8.231 9.050-9.501 9.040-21.034-0.017-19.338-3.337-27.376-16.617-40.253-7.795-7.56-11.905-13.301-11.818-16.517 0.399-15.008 4.224-26.334 13.465-39.87 23.248-34.048 25.972-39.803 25.972-54.86 0-12.042 1.346-16.735 9.891-34.495 5.441-11.305 9.891-21.423 9.891-22.485s3.216-6.076 7.146-11.139c9.28-11.959 17.898-24.768 23.871-35.467 5.472-9.802 23.424-26.826 28.341-26.871 6.691-0.059 17.78-8.849 24.357-19.296 8.638-13.724 14.694-17.825 38.428-26.009 10.616-3.662 21.363-7.911 23.877-9.438s10.477-3.411 17.692-4.183c7.216-0.77 22.164-3.698 33.221-6.508s25.923-5.756 33.047-6.555c7.119-0.795 18.389-2.744 25.037-4.328s19.512-3.971 28.58-5.303c9.068-1.334 24.085-3.967 33.373-5.851 23.091-4.69 48.329-2.965 62.661 4.287 34.028 17.217 48.866 22.89 68.202 26.080 14.372 2.372 26.203 6.099 40.814 12.863 11.319 5.239 26.789 11.099 34.379 13.021s18.749 5.401 24.793 7.73c19.165 7.384 52.94 28.182 67.736 41.71 7.86 7.184 22.31 19.016 32.115 26.291 18.93 14.046 29.44 24.711 29.44 29.866 0 1.729 2.044 7.067 4.544 11.854 5.639 10.803 8.234 25.13 11.039 60.963 5.341 68.2 5.709 70.965 11.34 85.962 3.108 8.277 7.793 19.879 10.411 25.787 8.831 19.919 10.831 31.431 8.952 51.571-1.461 15.661-2.789 20.093-8.306 27.747-3.613 5.011-7.245 12.636-8.073 16.947s-2.702 8.592-4.169 9.511c-4.929 3.086-20.707 25.24-23.236 32.615-1.378 4.018-2.504 10.63-2.504 14.691 0 6.034-2.326 9.813-12.694 20.633-6.979 7.286-16.439 18.72-21.021 25.411s-16.826 19.262-27.213 27.935c-10.387 8.673-28.447 24.476-40.129 35.112-28.776 26.197-39.147 31.467-65.936 33.526-11.536 0.885-22.954 2.232-25.373 2.989s7.487-4.729 22.009-12.194c30.853-15.861 42.772-23.619 63.595-41.39 38.608-32.954 51.33-49.023 63.865-80.71 3.506-8.864 8.033-18.537 10.059-21.491s4.427-7.789 5.337-10.742c0.913-2.955 2.566-6.491 3.682-7.854 8.811-10.801 16.723-78.189 14.342-122.158-1.193-21.942-6.538-43.152-21.686-85.962-25.854-73.069-54.297-109.166-107.337-136.217-6.649-3.391-23.17-12.435-36.709-20.093-32.525-18.399-70.022-31.014-107.287-36.091-9.673-1.319-23.172-3.776-29.997-5.465-11.507-2.843-28.264-4.165-28.264-2.228 0 7.605 20.414 33.102 29.11 36.359 1.861 0.698 1.151 2.202-2.19 4.613-9.745 7.027-12.212 15.285-10.549 35.296 0.834 10.056 2.799 21.237 4.365 24.849 4.067 9.374 33.428 44.717 39.902 48.037 5.38 2.754 5.354 4.387-0.173 11.179-7.158 8.787-14.293 32.587-14.293 47.665 0 27.354 14.437 71.079 36.99 112.047l8.065 14.654-10.987 9.831c-32.787 29.338-47.475 44.441-55.181 56.758-8.5 13.589-8.576 13.902-9.303 38.931-0.555 19.115 0.136 27.789 2.848 35.783l3.587 10.55-10.086 9.346c-7.478 6.931-11.487 13.126-15.49 23.948-2.974 8.031-5.422 17.22-5.437 20.417-0.039 7.485-5.335 22.411-7.275 20.517-0.817-0.797-1.484-4.585-1.484-8.416 0-10.138-11.47-33.505-21.61-44.030-13.281-13.786-15.184-18.194-10.173-23.607 9.005-9.727 5.37-54.822-7.132-88.44-6.934-18.648-20.144-38.479-28.3-42.473-3.539-1.732-6.756-3.343-7.152-3.569s2.707-5.29 6.902-11.249c5.871-8.343 9.172-17.144 14.38-38.336 8.404-34.203 10.616-62.081 6.97-87.765-3.36-23.646-9.334-37.983-19.109-45.857l-7.448-5.998 10.182-6.263c10.707-6.585 32.37-31.487 44.729-51.422 12.284-19.811 11.4-38.42-2.554-53.958l-6.659-7.415 3.989-8.644c2.19-4.755 7.025-10.673 10.739-13.152 8.935-5.966 23.239-19.267 23.239-21.61 0-2.009-35.77-0.831-48.367 1.591-25.034 4.816-35.153 9.891-51.243 25.701-22.436 22.041-52.934 46.355-58.144 46.355-6.973 0-26.626 6.209-43.145 13.622-18.63 8.363-26.61 17.446-37.128 42.251-24.488 57.748-32.585 72.632-53.081 97.576-6.706 8.16-12.637 16.382-13.181 18.265-5.14 17.898-10.404 43.577-12.383 60.374-1.323 11.227-3.682 25.313-5.239 31.304-2.476 9.532-2.321 12.805 1.259 26.278 2.249 8.463 6.688 20.973 9.859 27.794s6.585 17.059 7.579 22.749c1.24 7.070 5.681 15.979 14.046 28.141 6.733 9.79 15.626 24.476 19.766 32.635 12.062 23.778 53.434 60.402 81.431 72.088 3.628 1.515 12.365 6.508 19.413 11.096s17.005 10.152 22.119 12.365c5.115 2.215 11.127 5.991 13.355 8.397s5.136 4.38 6.459 4.386c1.323 0.005 8.341 2.901 15.596 6.44 8.458 4.122 16.567 6.431 22.603 6.439 5.177 0.005 15.067 1.822 21.986 4.041s17.771 4.589 24.127 5.273c6.357 0.681 13.279 2.225 15.389 3.425 7.325 4.171-19.667 2.519-29.396-1.799zM604.566 870.618c-2.613-1.651-2.158-2.091 2.198-2.138 3.024-0.020 9.453-0.594 14.291-1.247 5.932-0.804 7.723-0.537 5.496 0.822-5.375 3.284-18.433 4.804-21.986 2.561zM934.429 653.176c-0.059-0.81 1.005-4.195 2.348-7.523 5.845-14.419 8.6-29.558 10.883-59.746 2.563-33.896 2.279-36.318-7.995-67.724-1.742-5.319-3.18-14.989-3.205-21.491-0.039-7.777-1.954-16.228-5.634-24.712-3.078-7.090-6.376-15.313-7.337-18.265s-4.734-11.66-8.394-19.34c-3.66-7.683-9.416-22.189-12.792-32.235-6.035-17.952-12.318-27.935-17.573-27.935-4.682 0-28.36-26.661-34.902-39.301-12.106-23.387-39.119-50.576-65.598-66.017-6.983-4.071-15.701-10.086-19.373-13.366s-8.36-5.961-10.422-5.961c-5.521 0-33.104-16.235-43.248-25.455-20.372-18.52-41.034-30.622-70.91-41.552-6.379-2.331-14.307-6.458-17.61-9.164s-12.441-8.193-20.302-12.19l-14.291-7.265-45.069-0.676c-44.694-0.671-45.173-0.632-57.666 4.974-6.931 3.108-13.172 6.555-13.87 7.661s-12.594 2.010-26.432 2.010c-27.368 0-32.564 1.538-56.981 16.865-13.153 8.255-25.72 11.876-35.192 10.14-3.955-0.728-10.942 0.077-16.124 1.873-10.267 3.541-40.725 20.96-48.007 27.454-3.553 3.169-9.685 4.692-24.181 6.008-20.833 1.898-32.946 4.759-38.455 9.093-1.894 1.487-8.856 9.958-15.475 18.823s-20.853 24.198-31.634 34.074c-29.321 26.861-55.36 55.804-61.821 68.713-3.451 6.891-7.799 12.241-10.89 13.389-3.932 1.462-5.156 3.571-5.192 8.952-0.039 7.060-5.472 23.107-16.459 48.693-3.429 7.985-6.536 20.296-7.431 29.464-0.846 8.662-2.091 16.286-2.768 16.946s-1.839-5.171-2.584-12.959c-1.386-14.519 0.077-22.401 9.327-50.135 2.514-7.542 4.574-15.94 4.574-18.664 0-7.491 3.686-15.513 14.496-31.554 5.397-8.012 10.779-17.034 11.952-20.056 1.177-3.023 4.531-8.569 7.453-12.33s7.867-11.803 10.977-17.874c3.113-6.068 9.579-15.676 14.377-21.35s9.359-13.278 10.142-16.9c0.782-3.625 3.202-8.522 5.373-10.883s5.427-7.807 7.231-12.093c2.556-6.068 5.991-9.088 15.507-13.64 6.726-3.217 13.375-7.206 14.785-8.861s5.358-3.015 8.776-3.015c3.418 0 7.047-1.45 8.063-3.224 2.439-4.26 17.79-11.818 24.009-11.818 2.707 0 5.712-1.292 6.679-2.873 2.509-4.093 25.688-14.319 32.462-14.319 3.13 0 11.578-2.899 18.761-6.447 8.124-4.011 16.441-6.447 21.995-6.447 9.168 0 30.766-9.055 30.766-12.899 0-1.147 3.343-3.449 7.427-5.115s8.099-4.1 8.923-5.4c0.823-1.301 3.785-2.369 6.585-2.369s9.911-2.096 15.809-4.661c7.777-3.379 16.157-4.852 30.508-5.35 10.882-0.381 25.228-1.71 31.877-2.955s22.479-3.165 35.173-4.271c12.696-1.104 29.674-2.619 37.727-3.365 11.601-1.074 17.545-0.439 28.58 3.078 10.549 3.36 18.742 4.333 33.719 3.999 17.914-0.399 20.786 0.117 30.373 5.396 5.82 3.212 18.030 7.876 27.132 10.375 18.062 4.955 39.166 14.817 51.536 24.082 4.34 3.25 9.658 5.909 11.82 5.909s7.133 1.934 11.049 4.3c3.917 2.368 12.2 5.241 18.413 6.397 12.946 2.403 21.256 7.761 31.421 20.271 14.66 18.036 32.088 34.458 51.691 48.701 12.295 8.936 26.623 22.068 36.653 33.592 9.053 10.408 22.773 24.369 30.489 31.034 14.258 12.312 28.085 33.251 28.085 42.525 0 5.281 11.541 30.42 18.18 39.596 4.647 6.422 12.535 39.818 12.576 53.222 0.015 4.283 1.581 12.020 3.485 17.193 5.051 13.711 5.103 112.581 0.077 133.545-2.935 12.224-14.101 38.087-14.425 33.413zM73.152 496.698c0-5.319 0.428-7.495 0.955-4.835 0.524 2.659 0.524 7.011 0 9.67s-0.955 0.485-0.955-4.835z"></path>
    </svg>