<svg xmlns="http://www.w3.org/2000/svg" viewBox="19.407 -32.253 995.186 1089.320">
    <path fill="#000000" d="M850.371 854.539c-0.254-1.65-0.306-3.726-0.743-5.217-0.306-1.225-0.855-1.756-1.177-2.931-0.799-2.501-1.171-6.067-1.914-8.888-0.748-3.302-1.813-6.179-2.768-9.263-3.14-10.227-5.909-21.989-10.328-31.681-2.077-4.525-4.901-7.666-7.401-11.763-1.813-3.144-3.619-5.539-5.859-8.041-2.077-2.292-3.99-5.43-6.175-7.508-2.504-2.395-4.953-3.885-7.453-6.867-3.732-4.418-7.778-8.464-11.981-11.977-2.448-2.077-2.606-0.749-3.299 1.971-1.598 5.853-4.688 10.006-6.872 15.332-2.127 4.897-4.153 10.648-5.696 16.293-1.065 3.99 0.748 4.148 2.768 6.759 6.175 8.092 12.191 15.122 17.465 23.425 1.385 2.133 2.927 3.517 4.312 5.38 2.077 2.606 3.782 5.96 5.481 9.157 1.762 3.299 3.090 7.187 4.632 10.7 1.97 4.581 3.995 8.678 5.646 13.474 4.474 12.827 6.338 28.271 7.081 44.344 0.257 5.487 0.358 10.277-0.743 16.771 3.090 6.445 7.508 2.716 12.085-4.469 4.312-6.815 9.955-15.652 13.152-25.13 2.077-6.072 1.542-13.259 1.222-18.263-0.203-4.418-0.743-7.722-1.435-11.606z"></path>
    <path fill="#000000" d="M842.322 684.48c-3.62-2.182-6.703-4.047-10.328-5.539-3.192-1.222-6.067-1.861-9.314-3.034-1.278-0.407-2.718-0.957-4.102-1.703-1.222-0.587-2.393-1.279-3.619-1.971-1.278-0.367-1.222-0.855-1.807 0.040-1.177 1.861 0.793 6.445 0.586 8.999-0.306 4.363-1.385 8.571 0.586 14.424 1.065 3.302 2.021 6.338 3.833 9.905 0.743 1.543 1.97 3.355 2.556 4.789 1.328 0.407 3.247 1.918 4.632 2.825 2.021 1.173 3.99 2.663 5.96 3.832 1.385 0.85 2.612 1.116 3.889 1.914 3.884 2.292 8.092 6.815 11.926 9.635 5.111 3.677 9.793 7.294 14.531 11.717 5.539 5.161 10.541 11.020 15.758 16.131 6.5 4.261 11.505 12.247 16.615 18.793 3.141 4.047 6.282 7.508 9.050 12.034 5.324 8.571 10.384 17.143 14.217 26.993 1.435 3.783 2.234 7.136 3.141 11.289 0.306 1.593 0 2.235 0.799 3.299 0.906 3.412 1.757 2.182 3.085-0.245 2.183-3.995 4.474-8.307 6.072-13.469 2.127-6.708 2.875-14.536 4.205-22.045-1.49-11.448-4.897-16.080-8.464-22.575-6.708-12.242-14.853-23.745-23.638-35.085-2.82-3.669-5.752-7.509-8.837-10.964-3.625-3.937-7.294-6.924-11.233-10.227-7.136-6.175-14.536-13.625-22.575-18.741-5.696-3.726-11.448-7.395-17.52-11.020z"></path>
    <path fill="#000000" d="M479.83 356.051c3.516 1.442 6.764 3.355 10.384 4.738 2.291 0.904 4.845 1.707 6.974 2.981 1.441 0.798 3.14 1.6 4.525 2.501 1.278 0.798 2.182 1.813 3.619 2.504 1.491 0.798 3.355 1.49 4.794 2.447 1.97 1.385 4.153 2.553 6.231 3.995 4.469 3.082 8.571 7.344 12.511 10.857 11.284 10.171 18.528 22.095 23.903 33.544 1.598 3.245 2.718 6.55 3.834 9.798 4.102 11.284-9.157 23.903 8.571 23.903-17.728 6.658-13.681 18.207-16.666 28.056-1.701 5.859-4.046 11.611-5.64 17.465-1.013 3.783-3.303 7.080-4.474 10.812-0.692 2.235-1.013 4.575-1.598 6.867-0.692 2.553-0.692 5.268-1.171 7.823-0.586 3.254-2.077 6.179-2.234 9.534-0.101 3.621-0.203 7.081-0.747 10.648-0.306 2.182-0.636 4.312-0.692 6.546v0.749c0.407 0.163 0.855 0.285 1.226 0.407 14.054 4.581 27.949 9.641 41.902 14.217 0.154-2.768 0.306-5.539 0.849-8.252 0.407-2.4 1.278-4.738 1.757-7.136 0.642-2.929 0.457-5.909 1.014-8.837 0.692-3.783 2.233-7.187 2.182-11.127 0-1.971-0.101-3.726 0.203-5.696 0.849-4.794-0.586-10.333-0.799-15.337-0.101-3.087-0.962-6.231-1.065-9.314-0.101-3.245 0.355-6.495 0.457-9.692 0.049-5.374-0.962-10.756-0.586-16.131 0.457-7.56 2.393-14.853 3.247-22.309 1.008-8.622 0-17.943 0-26.672 0-2.72-0.254-4.474-0.855-6.867-0.636-2.4-0.457-4.953-0.743-7.615-0.535-4.209-2.82-9.478-4.845-13.202-1.813-3.46-5.268-6.282-7.344-9.585-2.347-3.621-4.317-7.453-6.495-11.127-3.995-6.658-9.263-13.575-15.973-18.049-14.11-9.478-29.975-15.758-44.191-25.023-2.983-1.971-6.067-4.047-9.213-5.59-4.362-2.239-9.157-3.091-13.519-5.167-5.167-2.501-10.384-5.161-15.865-6.602-4.153-1.015-8.041-2.712-12.247-3.355-4.368-0.798-21.561-6.231-19.005 3.514 0.586 2.077 1.542 2.768 1.863 5.060 0.254 2.182-0.049 4.738-0.049 6.974 0 2.239-0.692 7.030-0.101 8.999 1.115 3.889 7.93 3.832 11.712 4.688 5.111 1.222 9.849 3.779 14.959 5.533 6.338 2.133 12.939 4.794 19.378 7.509z"></path>
    <path fill="#000000" d="M320.043 309.73c5.646 2.239 10.44 3.197 17.041 3.034 8.516-0.203 15.595 3.038 23.745 4.794 2.178 0.529 4.418 0.635 6.652 0.904 1.813-4.368 8.145-17.52 4.153-21.831-1.65-1.813-4.312-1.6-6.445-2.4-1.757-0.692-3.192-1.861-4.789-2.764-5.111-2.874-10.863-3.197-16.344-4.901-6.072-1.914-11.555-2.929-17.306-5.161-4.841-1.971-11.071-4.424-14.267-8.999-2.077-2.981-1.97-6.815-6.495-4.474-2.127 1.121-2.983 3.726-3.782 5.696-0.957 2.346-1.65 4.794-2.606 7.349-0.358 0.957-1.542 2.981-1.813 3.783-0.407 1.703 0.101 3.25-0.254 4.897-0.642 2.712-1.863 3.514-1.813 6.867 0.049 4.581-1.222 6.016 3.41 6.867 6.175 1.121 12.242 2.61 18.156 5.167 0.957 0.407 1.914 0.85 2.763 1.173z"></path>
    <path fill="#000000" d="M585.107 641.705c-4.418-5.59-8.729-11.182-11.233-17.036-0.636-1.49-1.115-3.034-1.65-4.581-2.661-0.367-5.324-0.904-8.252-1.385-9.478-1.65-18.635-3.403-28.112-5.909 3.090 5.487 6.551 10.863 10.969 16.237 4.632 5.487 10.114 10.812 15.332 16.187 2.234 2.289 4.794 4.525 6.974 6.872 2.983 3.245 5.539 6.546 8.786 9.687 7.294 6.974 16.080 13.418 22.682 20.498 12.883 10.812 25.929 20.283 38.974 30.031 5.533 4.097 11.443 7.56 16.181 12.455 7.243 3.677 14.696 8.729 21.883 12.566 5.324 2.871 11.076 4.842 16.507 6.867 4.153 1.543 8.464 2.768 12.618 2.712 3.567-0.040 6.974 1.072 10.434 2.028 3.834-4.688 5.909-5.167 6.708-7.457 0.743-2.020 1.065-4.733 1.065-6.867 0.052-1.756 0.306-4.368-0.154-6.123-1.065-4.682-7.294-5.909-11.020-7.666-12.409-5.752-23.852-14.531-36.313-21.724-7.88-4.632-16.4-9.529-25.13-12.99-2.983-1.173-5.752-2.285-8.786-3.564-2.875-1.283-5.803-1.707-8.729-2.561-3.676-1.064-6.764-3.034-10.171-4.682-2.342-1.064-4.738-1.861-6.974-3.091-5.803-2.978-10.227-7.508-14.752-11.549-6.815-6.179-12.562-12.303-17.835-18.955z"></path>
    <path fill="#000000" d="M341.654 129.406c-6.231-3.46-12.726-6.652-18.793-10.328-9.157-5.487-16.666-9.585-26.571-13.311-18.686-6.974-37.798-13.046-57.232-17.728-28.912-6.974-57.075-17.036-85.982-23.745-6.179-1.442-12.247-5.38-18.42-6.179-3.091-0.367-4.368-0.245-7.294-1.65-2.291-1.015-3.46-1.65-6.072-1.707-7.453-0.285-14.323-3.403-21.883-5.004 4.102 6.445 12.034 11.34 18.049 15.865 5.803 4.312 11.127 10.227 17.728 13.474 8.2 3.937 15.015 9.686 23.693 13.202 7.344 2.929 14.48 7.025 21.612 10.434 5.539 2.553 11.448 4.096 16.879 6.815 4.312 2.178 8.2 4.205 12.883 6.546 10.812 5.324 21.883 6.924 32.959 11.233 3.091 1.225 6.123 0.798 9.106 1.65 0.793 0.203 1.97 1.279 2.393 1.385 2.612 0.587 4.046 1.442 6.388 2.133 6.445 1.914 13.152 4.363 19.806 6.016 5.646 1.433 10.704 4.418 16.187 6.495 3.939 1.543 7.985 4.261 11.819 6.231 9.263 4.842 18.105 10.272 26.357 16.66 8.516 6.55 17.408 14.217 24.438 23.266 3.883 5.060 6.445 10.969 8.943 16.827 3.197 7.773 6.551 15.332 9.529 23.318 4.368 11.661 11.397 26.086 11.289 38.706 0 3.995-1.278 7.828-1.813 11.768-0.257 2.553-0.203 5.111 0 7.721 0.355 4.576 1.653 9.050 1.919 13.681 0.257 6.918-1.919 13.789-4.474 20.177 0.906 0.082 1.757 0.203 2.612 0.285-0.358 1.064-0.748 2.235-1.121 3.299-2.82 7.773-6.338 15.337-7.666 23.481-1.813 4.047-3.41 7.721-4.794 11.768-2.127 6.010-3.884 12.191-5.853 18.151-1.385 3.937-3.41 7.401-4.261 11.555-0.692 3.139-1.121 6.231-2.342 9.050-0.849 1.861-1.919 3.567-2.612 5.38-0.407 1.064-0.636 2.182-0.849 3.355 7.030 3.299 14.43 5.747 21.668 9.207 5.966 2.874 12.034 6.445 18.207 8.944 2.876 1.121 5.859 1.971 8.786 2.986 3.46 1.331 6.658 2.929 10.12 4.368 3.511 1.437 7.025 2.768 10.592 3.99-0.203-1.064-0.457-2.077-0.743-3.139-1.121-4.096-2.291-8.145-4.153-12.348-3.197-7.136-3.247-14.909-3.354-21.883-0.15-7.349-0.203-14.696-0.457-22.309-0.257-6.867-0.358-14.054 0.15-20.925 0.457-5.747 2.025-11.127 2.025-17.087 0.049-3.412 0.15-6.764 0.355-10.227 0.203 0.040 0.529 0.082 0.743 0.203 0.355-3.355 0.747-6.759 0.957-10.171 0.15-2.395 0.407-4.897 0.642-7.344 1.065-10.434 2.342-22.838-2.077-32.688-4.738-10.756-2.606-21.247-5.004-32.424-0.957-4.261-3.141-7.828-4.474-11.981-1.014-3.082-1.435-6.282-2.5-9.422-2.077-5.966-4.845-13.418-5.273-19.698-0.457-8.041-2.875-15.122-4.897-22.788-3.034-11.555-9.585-19.434-18.314-27.527-5.060-4.682-11.233-9.742-17.251-12.883-6.123-3.139-10.704-8.252-16.344-11.712-1.92-1.173-3.939-2.342-5.966-3.46z"></path>
    <path fill="#000000" d="M397.030 560.070c5.167 3.832 11.183 7.238 17.358 10.384 13.895 7.081 30.081 11.499 44.827 17.515 4.261 1.756 9.478 3.355 14.059 4.261 2.342 0.456 4.256 0.692 6.439 1.49 1.546 0.529 2.983 1.064 4.688 1.543 13.733 3.46 27.843 6.175 41.738 9.050-1.171-2.447-2.291-4.845-3.299-7.293-1.598-3.832-2.824-7.615-3.567-11.448-0.049-0.203-0.049-0.46-0.101-0.635 1.013 3.669 2.342 7.344 4.046 11.020 1.171 2.606 2.448 5.217 3.834 7.823 6.759 1.49 13.469 2.981 20.177 4.525 8.358 0.040 14.16 1.49 20.177 2.077 1.441 0.163 2.875 0.245 4.317 0.285 4.525 0.040 8.943 0.082 13.575 0.587 5.853 2.342 13.311 3.091 19.165 5.594 2.291 1.007 4.525 2.178 6.924 3.193 3.090 1.173 6.551 1.707 9.529 3.034 2.56 1.121 4.632 2.346 7.243 3.355 3.676 1.331 7.081 3.091 10.541 4.688 4.312 1.861 8.678 3.25 12.883 5.43 3.567 1.808 7.136 3.669 10.812 5.374 10.063 4.688 20.706 9.213 30.826 13.311 14.746 5.96 29.176 12.191 43.231 18.049 3.889 1.595 7.721 3.355 11.499 4.897 1.334 0.534 2.454 0.534 3.039 1.813-1.334-7.081-0.961-9.742-0.855-10.913 0.306-3.783 0.101-7.457-0.957-11.233-0.957-3.412-2.662-6.231-4.632-9.37-2.504-4.153-4.418-8.201-6.282-12.46-1.598-3.674-4.632-6.067-8.786-7.986-6.445-3.091-12.832-5.858-19.22-9.314-9.157-4.845-18.263-10.012-27.899-14.48-10.434-4.688-21.297-8.47-32.531-11.926-3.99-1.225-7.401-3.245-11.448-4.424-1.863-0.529-3.726-0.85-5.59-1.385-5.167-1.486-10.006-3.621-15.332-4.948-4.368-1.072-8.842-1.756-13.152-2.931-4.581-1.327-7.721-2.663-12.247-2.871-2.768-0.163-5.64-1.178-8.409-1.918-6.231-1.65-12.46-3.299-18.691-5.268-1.065-0.285-2.183-0.749-3.299-1.072-14.48-4.682-28.912-9.686-43.551-14.267-0.407-0.163-0.799-0.285-1.278-0.456 0 1.015 0 2.020-0.052 2.981-3.619-1.225-7.187-2.447-10.913-3.46-4.096-1.064-8.145-2.077-12.191-3.197-8.361-2.342-16.291-5.43-24.385-8.2-4.738-1.593-10.114-2.606-14.217-5.055-6.016-3.621-13.681-6.55-16.237-11.925-1.171-2.504-1.706-4.953-2.399-7.457-0.9-3.457-2.713-6.759-3.299-10.328-0.254-1.49-0.355-2.929-0.586-4.418-3.619-0.46-7.243-0.957-10.913-1.279-2.291-0.203-4.632-0.163-6.979-0.367-2.978-0.203-5.909-0.957-8.888-1.385-6.123-0.85-11.819-0.798-18.156-3.674-6.658 0.749-12.191-1.173-18.156-2.289-4.738-0.85-9.422-1.808-13.947-3.087 0.849 4.575 1.594 9.207 4.148 13.625 1.868 3.091 4.209 6.072 6.231 9.157 2.556 3.783 4.261 7.828 6.708 11.661 5.324 8.041 9.319 16.187 13.844 24.331 1.385 2.504 2.606 5.43 5.054 7.666 1.598 1.442 3.732 2.663 5.539 3.995z"></path>
    <path fill="#000000" d="M276.538 440.495c3.299 2.874 7.294 5.324 10.913 7.936 6.759 4.953 13.681 9.793 21.454 13.524 7.187 3.403 14.645 6.175 22.046 9.208 0.793 0.245 1.701 0.534 2.5 0.798-0.358-1.595-0.743-3.245-1.278-4.953-0.101-0.367-0.203-0.745-0.306-1.064 5.808 1.707 11.289 3.46 17.413 4.953 7.717 1.861 15.225 3.726 22.732 5.853 6.495 1.764 13.097 3.038 19.913 4.581 5.060 1.173 9.905 2.558 15.173 3.567 3.995 0.798 8.145 1.385 12.247 2.182 6.332 1.173 12.618 2.553 18.95 3.885 0.15-0.46 0.535-0.907 0.692-1.327 0.203 0.040 0.407 0.040 0.642 0.082 3.567 0.635 7.136 1.385 10.648 1.914 4.469 0.639 8.464 0.749 12.99 1.971 10.384 2.931 20.339 3.517 30.826 5.539 4.474 0.85 8.842 2.129 13.202 3.514 1.334 0.407 2.661 0.587 3.834 1.072 1.97-1.331 3.834-4.794 4.953-6.445 1.813-2.663 3.511-4.789 4.418-7.773 0.586-1.918 1.706-3.674 1.278-5.858-0.052-0.367 0.254-0.635 0.052-1.007-0.407-0.798-1.92-2.133-2.718-2.874-3.247-3.197-8.837-3.937-13.362-5.010-10.541-2.606-20.975-5.696-31.253-9.1-6.338-2.133-12.726-4.205-19.005-6.338 0.049-0.203 0.049-0.367 0.049-0.529-6.391-1.869-12.672-3.677-18.739-5.702-5.966-1.971-11.397-4.047-17.626-5.909-5.217-1.593-10.648-3.034-15.758-4.738-10.857-3.564-20.813-8.145-30.933-12.135-12.348-4.953-25.659-9.213-37.585-14.273-0.961 0.692-1.762 1.442-2.612 2.133-10.277-4.794-20.442-9.050-29.604-15.973-4.525-4.845-12.827-9.529-16.288-15.921-4.368-7.986-6.123-16.61-9.050-25.181-1.969-5.909-3.090-12.404-3.995-18.685-1.014-6.602-0.203-13.525-0.101-20.339 0.306-15.332 4.368-30.611 10.648-44.99 3.726-8.515 9.263-16.716 11.020-25.923 0.692-3.517 1.069-6.602 2.768-9.798 2.662-4.953 6.338-9.319 9.050-14.323 2.824-5.324 6.179-10.328 9.798-15.173 2.182-2.986 3.511-5.853 5.96-8.622 2.824-3.25 2.504-4.261 2.612-8.627 0.101-8.571-7.187-11.448-13.844-14.746-6.119-3.034-11.020-3.245-15.116 3.034-1.542 2.182-2.611 5.696-3.833 8.145-0.855 1.595-1.171 3.625-1.813 5.324-0.358 1.121-1.278 3.302-1.491 4.424-1.435 5.696-4.418 10.648-6.652 16.288-1.278 3.197-1.546 5.273-2.077 8.571-0.535 3.355-2.928 5.909-3.41 9.319-0.457 3.46-0.586 5.43-2.342 8.786-3.884 7.293-7.823 14.587-11.34 22.040-2.077 4.418-3.939 8.893-5.853 13.202-2.875 6.337-4.901 12.99-7.828 19.112-3.191 12.511-6.708 24.116-8.943 35.991-2.504 13.362-3.034 25.979-2.077 38.969 0.535 6.924 1.121 13.788 1.92 20.498 4.469 13.311 13.469 25.929 24.274 36.206 3.782 3.674 7.828 7.187 11.875 10.7z"></path>
    <path fill="#000000" d="M735.202 532.985c-3.192-1.49-6.495-2.504-9.849-3.832-6.867-2.61-13.626-4.953-20.869-7.081-8.786-2.447-17.465-3.889-26.458-5.539-4.209-0.692-8.414-1.6-12.618-2.292-3.625-0.635-6.924-1.699-10.434-2.501-7.243-1.546-13.844-3.995-20.981-5.646-9.367-2.182-19.963-6.072-29.333-5.217-4.845 0.367-7.344 2.292-9.529 4.682-1.334 1.49-3.41 2.768-3.676 4.632-0.257 1.442 0.049 3.517 0.906 5.010 1.121 1.914 3.726 2.342 5.803 3.621 0.049 0.040 0.101 0.082 0.154 0.163-1.171 0.285-2.021 0.798-1.171 1.813 1.546 1.65 4.581 1.756 6.815 2.447 5.38 1.65 10.491 4.312 15.758 6.175 13.474 4.632 26.834 9.106 40.465 13.631 12.827 2.447 24.915 6.867 36.576 11.555 4.897 1.914 8.622 4.845 12.883 7.559 5.374 3.403 10.756 7.136 16.187 10.221 2.178 2.663 5.324 4.474 7.504 6.872 5.111 5.533 4.845 12.99 15.066 16.394-3.456 24.808 15.229 45.626 18.476 70.97 0.586 10.221 0.154 19.963-1.227 30.826-2.712 5.696-3.14 11.875-5.533 17.678-3.567 8.358-9.534 16.823-11.127 26.193-1.283 7.615-8.571 14.802-13.631 20.283-5.696 6.072-12.782 12.090-15.066 21.404-2.504 9.849-2.399 18.635-3.034 29.389-0.591 9.314 1.542 17.302 2.286 26.621 0.203 2.285 0 4.047 0.358 6.388 0.529 2.981 1.863 5.374 1.97 8.622 0.101 5.010 1.171 9.585 0.529 15.066-1.222 10.704-1.863 22.738-7.344 33.014-2.291 4.418-5.752 8.409-8.571 12.298-4.424 6.067-7.985 13.362-12.46 19.484-2.399 3.245-4.096 6.924-6.388 10.277-1.226 1.861-2.448 2.817-3.619 4.789-1.863 3.139-3.782 9.849-5.859 5.966 3.995 0.245 6.231 4.897 8.627 7.986 1.65 2.129 4.525 1.486 6.119 3.669 1.013 1.546 2.132 2.825 3.039 4.317 0.849 1.222 1.385 6.175 3.511 4.897 0.906-0.456 3.676-5.167 4.474-6.388 1.757-2.4 2.448-3.412 4.312-5.539 4.575-5.43 9.157-10.756 13.733-16.45 3.889-4.794 5.909-9.849 8.893-15.281 7.030-12.404 11.289-28.804 13.681-41.687 2.556-13.681 3.676-26.571 3.939-38.811 0.203-9.478-0.743-19.113-0.358-28.218 0.101-1.756-0.254-3.677-0.203-5.59 0.101-2.504 0.355-4.418 0.642-6.815 0.358-3.726 0.636-5.324 1.97-8.943 3.299-9.213 7.773-18.105 10.006-27.369 2.824-11.763 7.030-18.42 12.939-28.855 1.757-3.193 3.090-6.495 4.789-9.635 3.567-6.495 7.615-12.247 9.748-19.434 1.594-5.324 4.205-10.006 5.853-15.116 1.863-5.858 3.511-11.824 4.897-17.677 1.227-5.324 2.556-10.434 3.676-15.601 0.586-2.606 0.747-5.217 1.121-7.772 0.586-3.832 1.65-7.294 1.863-11.127 0.101-3.621-0.101-7.081-0.535-10.541-0.306-9.849-1.542-19.698-2.979-29.283-1.226-7.773-3.732-15.758-3.838-23.161-2.077-7.509-9.742-15.758-16.61-21.827-6.067-5.324-11.768-10.919-18.793-15.551-6.287-4.147-12.405-8.943-19.647-12.085-2.713-1.173-5.111-2.768-7.828-4.047z"></path>
    <path fill="#000000" d="M255.995 241.229c-3.192 4.047-5.054 7.238-7.344 11.712-1.226 2.235-1.863 5.004-3.034 7.401-1.171 2.391-2.718 4.096-3.46 6.867-0.799 2.768 0.15 4.525-3.46 3.889-1.121-0.082-3.889-2.077-5.060-2.663-3.085-1.385-6.231-2.61-9.263-3.995-10.807-5.060-19.271-13.788-28.056-21.511-5.481-4.841-11.127-9.579-16.237-14.853-6.602-6.815-13.788-14.374-18.848-22.36-3.090-5.004-3.726-11.076-6.602-16.187-3.247-5.747-3.834-11.284-6.067-17.408-1.069-2.874-3.091-5.696-3.939-8.627-1.654-5.374-3.939-11.233-4.368-17.25-0.257-3.564 0.101-5.96-1.278-9.050-1.44-3.245-1.705-4.632-2.077-8.201-0.257-2.712-1.227-5.111-1.92-7.772-0.799-2.821-1.807-5.747-2.871-8.196-1.226-2.825-1.598-5.060-2.56-7.828-0.636-1.971-3.833-4.418-2.82-6.602 3.091 1.595 6.495 0.798 9.742 1.433 2.025 0.407 4.581 1.764 6.445 3.038 3.247 2.235 6.338 6.175 9.050 9.1 3.62 3.832 6.708 8.842 9.529 13.259 2.077 3.355 2.347 7.294 4.261 10.541 1.278 2.235 3.197 4.096 4.368 6.495 4.845 9.422 10.485 18.472 15.865 27.63 4.789 8.092 11.177 14.752 16.501 22.417 3.41 4.789 6.072 10.006 9.534 14.696 2.178 2.986 4.525 5.752 7.081 8.414 3.777 3.937 7.93 7.025 12.562 10.006 5.859 3.832 13.259 11.977 20.554 12.511 0.101 0.407 0.203 0.904 3.777 3.091z"></path>
    <path fill="#000000" d="M354.441 116.906c0-3.355 0.407-7.081 0.049-10.434-0.203-1.65-1.121-2.61-1.385-3.783-0.358-1.593 0.049-3.299-0.306-4.897-0.306-1.49-1.542-1.813-1.863-3.197-0.407-1.65 0.154-3.669 0.101-5.324-0.154-3.509-1.491-7.88-2.606-11.233-1.868-5.853-5.966-11.020-9.534-15.702-2.077-2.716-3.191-6.016-5.96-8.307-1.441-1.173-9.798-6.282-11.076-6.016-0.957 2.077 1.014 3.889 1.598 5.803 0.203 0.96-0.101 2.346 0.049 3.355 0.15 1.015 1.171 1.064 1.441 2.028 1.065 4.632 0.15 10.648 0.15 15.438 0 4.632 0.586 9.798-0.407 14.268-0.101 0.587-1.171 1.173-1.379 2.028-0.358 1.437 0.407 3.034 0.15 4.469-0.407 1.918-1.385 3.674-2.233 5.594-3.939 8.145 7.88 12.298 14.16 14.587 4.096 1.543 9.263 4.842 13.947 3.193 4.474-1.6 5.060-8.201 5.111-1.865z"></path>
    </svg>