<svg xmlns="http://www.w3.org/2000/svg" viewBox="-17.102 -33.812 1068.204 1089.810">
    <path fill="#000000" d="M813.589 675.966c-4.492 8.901-9.285 18.608-14.624 27.046-3.816 6.108-5.939 10.77-7.845 17.64-1.948 7.163-6.656 13.775-9.707 20.518-2.585 5.722-5.131 12.971-8.948 17.765-2.415 3.008-4.11 2.883-5.722 6.571-0.891 2.074-0.847 4.11-1.993 6.359-2.753 5.428-7.206 10.261-10.98 15.262-2.415 3.181-3.307 6.656-5.469 9.92-2.375 3.437-6.063 6.488-8.692 9.668-5.722 6.993-9.116 14.497-13.824 22.3-5.935 9.794-13.775 17.424-20.518 26.496-14.459 19.416-29.846 38.283-44.43 57.872-8.903 11.869-18.61 23.402-28.064 34.804-2.544 3.056-6.151 8.605-10.218 10.77-2.246 0.314-5.217 0.55-8.351 0.468-7.21-0.189-6.618 1.314-11.493 6.739-6.908 7.716-16.235 7.291-11.022-4.322 3.604-7.931 6.656-14.414 7.845-22.939 1.187-8.14 1.695-17.846 5.597-24.969 5.679-10.3 16.789-16.913 23.527-26.414 2.8-3.942 4.409-8.731 7.845-12.335 3.349-3.432 4.242-3.095 7.291-8.225 2.246-3.687 4.153-8.221 6.869-11.571 3.774-4.748 7.586-6.699 10.854-12.21 4.833-8.099 10.3-18.699 16.364-25.86 8.775-10.261 13.862-24.507 20.985-35.232 6.314-9.54 11.152-20.181 17.765-29.89 6.016-8.86 10.387-17.553 13.775-27.598 3.181-9.37 10.517-17.173 15.561-25.609 4.62-7.754 10.598-18.482 8.903-27.979-1.234-6.781-6.146-7.206-10.43-11.532-4.072-4.153-7.926-8.225-12.167-12.124-3.984-3.605-6.021-8.225-9.625-12.125-3.984-4.242-8.645-7.758-12.504-11.7-6.276-6.446-10.517-15.224-17.211-21.625-4.326-4.11-5.385-8.053-8.481-12.928-1.651-2.671-3.687-4.919-5.299-8.225-2.372-4.75-5.469-8.438-7.461-13.399-2.038-4.914-3.437-10.345-6.575-14.709-13.395-18.823-29.081-35.823-45.575-51.851-7.586-7.416-14.838-17.593-21.153-26.116-5.852-7.926-11.913-19.503-19.584-25.649-4.371-3.475-9.288-3.899-13.187-8.225-2.671-3.008-4.451-6.781-7.801-9.285-2.117-1.569-7.416-1.824-8.731-3.349-1.569-1.782-0.314-6.908-0.891-9.242-3.307-12.928-1.911-27.472-1.911-41.081v-26.837c0-3.604 0.189-7.291 0.031-10.896-0.189-3.899-1.609-4.577-2.246-7.673-2.753-13.61-0.189-30.4-0.189-44.43 0-7.291 0-14.544 0-21.837 0-9.242 2.291-17.761 2.502-26.79 0.095-3.604-0.282-7.21-0.063-10.77 0.156-3.774 1.698-4.534 2.246-7.461 1.145-6.146-1.187-13.145 0.063-19.29 0.677-3.181 2.203-4.876 2.585-8.308 0.352-3.224-0.189-6.063 0.468-9.245 0.593-2.585 1.948-4.236 1.911-7.798-0.063-3.984 0-8.014 0-11.998 0-13.015 1.526-25.692 2.288-38.663 0.976-16.619 6.146-33.663 4.833-50.451 3.14 2.585 6.233 10.003 8.013 13.606 3.562 7.081 5.386 14.926 8.438 22.087 1.359 3.268 4.11 5.641 5.554 8.566 2.117 4.409 2.631 9.41 4.197 13.949 1.016 2.966 2.038 5.891 2.969 8.86 2.288 7.038 5.339 8.901 9.747 14.834 5.939 7.971 5.515 18.784 12.595 26.034 4.876 5.001 10.3 8.183 14.242 14.329 5.895 9.242 7.081 20.223 7.081 30.823 0.031 18.357 2.461 34.977 2.461 53.248v89.074c0 6.229-0.722 12.928-0.126 19.119 0.468 5.006 2.372 9.328 2.627 14.459 0.468 9.752-1.867 19.584 2.288 28.788 1.4 3.095 3.14 6.104 4.624 9.155 2.288 4.707 4.068 9.033 6.951 13.482 4.577 7.123 7.548 14.712 12.76 21.283 2.166 2.714 2.925 6.699 5.299 9.159 3.562 3.731 6.829 4.11 8.779 9.752 0.55 1.526 0.126 3.349 0.891 4.833 0.352 0.677 3.14 1.867 3.857 2.796 2.504 3.393 2.969 8.013 4.707 11.745 2.544 5.554 8.312 8.65 11.869 13.824 8.438 12.335 19.97 22.722 27.559 35.145 4.707 7.628 11.363 13.312 17.043 19.97 4.62 5.469 10.896 11.447 14.584 17.636 7.206 12.125 20.263 21.115 28.873 32.561 8.943 11.913 33.832 23.954 25.010 41.462z"></path>
    <path fill="#000000" d="M519.665 74.713c0.031 4.025 0 8.095 0 12.124 0 4.664 0.424 9.496-0.551 13.992-0.352 1.651-1.609 3.008-1.948 5.344-0.314 2.372 0.424 4.959 0.126 7.374-0.64 4.793-2.544 6.786-2.461 12.085 0.031 5.511 0.392 11.105-0.551 16.534-1.864 10.685-1.227 20.73-1.695 31.457-0.392 8.010-3.604 15.557-4.62 23.487-0.766 5.806-0.597 11.783-0.468 17.593 0.282 13.145-4.62 25.351-4.919 38.539-0.252 11.824-0.511 22.935-1.782 34.765-0.932 8.818 0.282 17.508-0.352 26.242-0.468 6.824-3.562 13.145-4.624 19.883-0.972 6.319-0.461 12.677-0.424 19.036 0.126 16.406-0.063 32.815 0 49.222 0.063 11.745-2.332 21.539-11.657 29.293-2.585 2.166-5.131 4.793-7.59 7.041-4.068 3.644-7.119 9.62-12.124 11.7-4.197 1.738-3.432 0.252-7.841 3.984-3.946 3.39-7.72 6.951-11.917 10.131-3.177 2.372-5.087 4.11-7.503 7.461-5.891 8.14-8.351 16.326-16.913 21.793-8.014 5.131-13.27 12.592-21.326 17.678-16.874 10.598-30.395 28.363-41.503 44.64-2.375 3.475-4.876 7.166-6.997 11.022-2.753 5.006-3.687 12.167-7.374 16.493-3.774 4.366-6.613 6.401-9.583 12.082-3.731 7.123-8.056 12.124-11.998 18.697-3.349 5.637-6.484 11.913-9.453 17.169 3.008 1.613 2.631 9.752 3.816 12.932 0.929 2.461 2.415 4.62 3.095 6.951 1.948 6.656 4.029 13.992 6.613 20.138 2.332 5.473 6.656 9.709 9.155 15.051 3.774 8.013 3.984 18.868 6.53 27.472 0.722 2.461 1.905 4.366 3.393 6.359 0.55 0.766 2.585 1.234 2.921 1.954 1.314 2.796 0.511 4.704 2.166 7.374 2.372 3.904 6.061 7.421 8.518 11.363 2.246 3.604 2.883 7.461 4.242 11.108 0.932 2.372 2.077 3.899 3.095 6.314 3.008 6.954 1.359 13.949 5.554 20.223 1.651 2.498 4.366 3.774 5.511 6.696 0.508 1.314 0.031 4.793 0.936 6.319 0.891 1.526 3.008 2.755 4.068 4.283 2.8 4.025 4.157 9.285 6.911 13.564 5.386 8.312 11.022 15.772 16.282 23.786 5.001 7.503 10.003 15.642 13.482 24.080 1.016 2.502 0.847 4.746 2.372 7.379 1.44 2.498 3.307 4.62 4.919 7.206 3.774 6.063 4.62 13.525 7.673 20.096 2.163 4.707 5.131 7.888 7.038 12.592 1.27 3.181 2.929 8.818 5.131 11.237 3.053 3.307 6.526 3.432 9.285 7.543 1.867 2.8 2.544 5.473 4.707 8.013 3.942 4.539 6.656 8.14 7.374 14.502 0.551 4.876 1.019 13.184-0.504 17.761-0.633 0.126-1.314 0.219-1.993 0.424 14.117 5.641-0.677 7.888-3.095 11.704-9.668-3.774-17.086-9.668-23.575-18.401-4.366-5.895-10.088-9.457-14.497-14.968-3.817-4.746-6.319-10.131-11.49-13.694-3.393-2.288-7.548-3.518-11.022-5.806-4.029-2.633-7.295-5.386-11.45-7.336-3.22-1.526-4.534-1.993-7.291-4.75-6.148-6.061-9.794-14.030-14.541-21.24-6.108-9.242-8.523-19.584-13.27-29.549-5.385-11.277-9.877-23.277-15.686-34.258-3.605-6.781-8.605-12.592-12.254-19.416-2.542-4.789-6.276-7.461-9.285-11.869-3.984-5.809-4.11-13.437-7.673-19.671-2.163-3.817-3.479-6.146-4.876-10.050-3.012-8.692-6.869-18.695-12.634-26.197-8.692-11.277-14.247-23.786-18.313-37.564-5.978-20.176-14.839-39.554-20.522-59.437-1.187-4.11-4.155-12.082-1.353-16.364 1.738-2.631 4.534-1.656 6.314-3.393 0.766-0.76 0.352-3.050 1.016-3.857 14.122-16.748 29.721-33.58 42.566-51.426 5.001-6.993 11.619-12.465 16.957-19.373 4.197-5.473 7.081-11.026 10.815-16.576 1.27-1.867 3.559-2.925 4.914-5.217 1.189-1.906 3.095-5.131 3.731-7.291 0.722-2.585-0.189-4.707 0.314-7.166 0.847-4.322 2.671-6.781 5.006-10.469 3.39-5.299 4.279-9.458 6.571-14.459 2.84-6.146 8.65-12.717 12.21-18.868 6.869-11.783 15.768-23.656 24.801-33.832 4.236-4.746 7.629-10.387 12.207-14.838 2.375-2.246 5.684-3.899 7.888-6.272 3.899-4.283 6.401-9.583 6.696-15.304 0.156-3.984 0-8.099-0.063-12.043-0.031-5.636 1.905-9.367 2.502-14.54 0.929-8.095 1.526-21.283-0.597-29.166-4.451-16.493-0.637-33.619 2.415-50.324 2.803-15.561 0.597-33.278 0.551-49.050-0.031-3.604-0.847-8.225-0.126-11.7 0.508-2.461 1.911-4.197 2.335-6.488 0.76-4.242-0.126-8.605 0.722-12.802 1.187-0.551 1.864-1.48 2.034-2.796-0.063-1.742-0.156-3.437-0.219-5.131 0.593-2.206 2.034-2.671 3.135-4.581 2.291-3.984 3.646-7.628 6.699-11.065 6.063-6.869 9.496-14.964 15.219-22.467 5.641-7.379 11.575-13.525 18.145-19.925 5.978-5.809 8.818-13.736 12.592-21.153 9.073-17.721 21.157-33.494 29.849-51.683 2.84-6.021 5.299-16.406 9.709-21.365 4.025-4.62 6.696-3.349 6.061 2.461-0.803 7.548-4.409 13.905-4.322 21.452z"></path>
    <path fill="#000000" d="M534.205 583.542c5.131 11.83 7.080 24.291 12.721 35.867 2.074 4.283 2.883 8.775 4.704 12.847 1.274 2.796 3.731 4.707 5.048 7.633 2.753 6.146 2.585 13.31 6.484 19.036 2.372 3.517 5.257 5.381 7.336 9.41 2.969 5.679 5.679 11.278 9.158 16.706 3.774 5.935 9.411 10.722 10.345 17.379 1.058 7.548-5.257 15.137-7.927 21.833-3.816 9.583-5.852 19.503-9.752 28.999-4.451 10.77-6.824 23.232-11.956 34.042-1.738 3.691-3.816 5.299-5.044 9.54-1.442 5.131-2.291 9.92-4.197 14.926-1.487 3.774-1.4 11.108-4.919 13.482 0.031-1.016 0.063-2.038 0.063-3.050-2.163 4.197-5.636 11.065-9.112 18.526-3.731 7.971-6.401 17.255-15.687 7.801-3.437-3.479-4.451-6.401-7.165-10.348-2.461-3.559-5.891-4.068-8.692-7.038-2.163-2.328-3.22-6.781-5.299-9.367-4.746-5.852-10.344-7.503-14.073-14.459-4.539-8.481-8.99-14.964-15.136-22.217-4.62-5.469-4.409-11.277-6.911-17.721-2.671-6.951-8.095-10.892-11.995-17-4.75-7.416-7.421-16.196-11.998-23.782-3.050-5.044-7.038-6.361-7.888-11.913-0.637-4.495 0.314-8.183 1.911-12.254 3.816-9.794 8.183-19.373 12.037-28.956 4.157-10.344 9.713-19.29 14.587-29.128 4.409-8.943 8.818-17.636 13.395-26.116 3.008-5.594 7.461-10.216 10.728-15.642 8.986-14.964 22.13-27.556 29.928-43.202 1.4-2.84 2.84-9.833 7.165-9.877 2.415-0.031 6.782 7.59 7.379 9.877 0.76 2.843-0.156 6.319 0.424 9.246 0.156 0.847 1.738 1.569 2.034 2.84 0.551 2.415-0.803 5.17-0.219 7.548 0.424 1.905 1.778 2.753 2.542 4.534z"></path>
    <path fill="#000000" d="M381.202 256.247c-1.274-1.695-9.201-2.966-11.065-3.349-6.446-1.27-13.145-2.796-19.714-2.753-7.21 0.063-14.414 0.063-21.582 0.031-4.029 0-8.225-0.063-11.956 1.183-3.349 1.145-5.424 4.197-9.242 5.217-8.818 2.415-18.401 1.314-27.429 2.372-5.978 0.722-12.043 1.867-17.976 2.969-3.605 0.719-6.656 1.016-9.92 2.753-3.008 1.656-6.063 3.437-9.197 4.793-6.531 2.84-15.772 3.432-22.939 3.812-8.225 0.392-16.832 0.252-24.969-0.677-4.746-0.504-9.62-0.504-14.286-1.738-4.539-1.183-8.735-2.753-13.399-3.475-7.163-1.101-14.753-2.502-22.002-2.714-8.735-0.282-17.466 0.063-26.201 0-6.613-0.031-12.971 1.695-19.459 2.631-7.673 1.058-15.431 1.526-23.232 2.246-2.714 0.314-11.745 3.264-13.736-0.031 4.072 0.219 8.14-0.126 12.254 0.219 10.98 0.976 23.020 3.731 32.811 8.86 7.291 3.817 13.909 8.313 21.75 10.98 3.605 1.234 7.206 2.502 10.98 2.929 4.371 0.551 8.947 0.063 13.356 0.031 9.963-0.031 18.233 1.23 27.771 3.349 6.869 1.526 13.227 3.984 20.096 5.424 6.656 1.4 12.717 4.495 19.584 5.597 6.575 1.019 15.474 1.019 22.087 0 3.984-0.593 7.845-2.291 11.704-3.432 5.636-1.613 11.318-2.925 16.957-4.62 12.335-3.733 25.267-3.946 38.114-3.903 13.227 0.063 27.429-1.948 39.854 3.307 4.11 1.738 8.053 3.942 12.335 5.344 2.966 0.932 6.061 1.189 9.073 1.993 3.349 0.891 6.781 3.393 8.14-1.101 1.613-5.597 0.189-13.145 0.189-18.823v-16.702c0-2.633-0.932-7.801 0.189-10.175 0.352-0.031 0.677-0.095 1.019-2.589z"></path>
    <path fill="#000000" d="M662.368 256.247c-0.063 8.225 3.219 15.898 4.197 24.123 0.677 5.766 0.677 11.45 0.677 17.211-0.031 3.605-0.936 8.398-0.031 11.873 0.424 1.651-0.468 1.651 1.145 2.627 0.593 0.392 3.644-0.031 4.153-0.031 3.053 0 5.087-0.424 8.014-0.972 2.84-0.597 5.679-0.031 8.518-0.511 3.095-0.551 6.108-1.569 9.245-1.948 4.534-0.551 9.114 0.063 13.651-0.511 7.548-1.016 14.922-0.352 22.512-1.016 4.707-0.392 9.285-1.824 13.992-2.375 5.087-0.637 10.131-1.27 15.175-2.117 9.073-1.484 18.106-2.758 27.304-2.758 17.211 0 33.96 6.446 51.086 6.063 7.548-0.156 14.796 1.993 22.26 3.053 8.818 1.27 17.846 3.14 26.79 3.053 26.668-0.356 53.377 0 80.046 0-13.694-0.156-25.267-6.446-37.181-12.673-6.656-3.479-13.442-5.895-19.503-10.348-5.722-4.236-12.043-6.613-18.064-10.345-6.145-3.856-12.971-6.021-20.007-7.841-7.633-1.954-14.796-4.326-22.087-7.253-13.824-5.511-27.641-10.642-42.187-13.651-5.806-1.189-11.532-0.936-17.466-0.936-9.114 0-18.184-0.424-27.174 0.976-7.038 1.058-14.584 0.282-21.663 0.282-8.818 0-17.593 0.031-26.369-0.031-10.088-0.031-18.781 2.714-28.489 4.62-8.65 1.695-18.526 0.282-28.531 1.484z"></path>
    <path fill="#000000" d="M372.721 349.563v29.037c0 5.087-0.031 10.175 0 15.262 0 3.012 0.031 6.021-1.48 8.735-1.613 2.883-5.217 4.876-7.72 6.951-4.068 3.479-9.495 5.087-13.862 8.143-2.883 2.038-6.233 4.153-8.943 6.401-3.562 2.929-6.361 6.781-9.837 9.794-2.758 2.372-6.911 5.679-10.218 7.119-2.502 1.101-5.299 0.677-8.014 0.677-6.016-0.031-12.037 0-18.015 0-15.137 0-30.268-0.126-45.364 0-6.319 0.031-10.77-1.44-16.576-3.39-4.833-1.613-10.175-3.012-14.501-5.684-5.424-3.307-10.175-3.518-16.364-4.534-3.817-0.637-7.461-1.778-11.402-2.077-6.361-0.424-12.508-0.392-18.868-1.27-9.583-1.4-19.161-3.012-28.7-4.539-4.242-0.677-8.183-2.415-12.423-3.095-4.451-0.719-8.183-1.101-12.254-3.008-6.359-2.925-13.312-4.789-19.97-6.954-5.002-1.651-12.76-3.562-15.051-8.861 6.488-1.566 14.968-0.189 21.539-0.189h25.394c19.121 0 38.243-0.031 57.362-0.031 12.971 0.031 26.159-0.511 38.539-4.793 7.206-2.498 14.709-3.687 21.918-6.104 6.234-2.077 12.76-3.731 19.078-5.469 6.484-1.824 13.651-2.246 20.35-3.349 7.629-1.23 15.304-0.891 23.020-0.891 4.279 0.031 7.673 0.468 11.447-1.487 3.731-1.948 6.993-4.789 10.854-6.314 4.577-1.824 8.818-4.242 13.482-5.852 4.153-1.484 8.268-2.415 12.465-3.812 1.016-0.352 2.288-0.314 3.219-0.633 1.778-0.597 2.335-1.742 4.495-2.246 2.631-0.597 3.857-0.508 6.446-1.442 1.606-0.593 2.921-1.613-0.031-6.061z"></path>
    <path fill="#000000" d="M675.68 370.163c0.593 4.539 1.609 8.523 1.27 13.232-0.424 6.446-1.613 13.14-2.796 19.541-0.468 2.504-1.4 5.006-1.824 7.503-0.468 2.671-0.063 5.259-0.551 7.888-0.637 3.644-1.27 6.824 1.742 9.707 1.566 1.44 2.667 1.359 4.746 1.782 4.11 0.847 8.183 2.117 12.254 3.095 4.664 1.101 9.073 1.145 13.775 1.44 3.181 0.189 5.978 1.23 9.201 1.274 10.811 0.156 21.62-0.063 32.431 0 3.646 0.031 6.911-0.511 10.517-0.936 5.381-0.677 10.854-0.314 16.235-0.314 10.092 0 20.268 0.031 30.4 0 7.673-0.063 15.136 0.352 22.722 1.569 4.707 0.722 9.246 0.593 13.905 1.145 6.233 0.677 12.465 1.145 18.697 1.867 5.766 0.675 11.532 0.031 17.341 0.189 3.774 0.126 7.331 1.101 11.065 1.314 3.095 0.156 6.229-0.031 9.285-0.031 4.153 0 8.351-0.189 12.335-1.189 3.264-0.76 5.087-2.288 8.393-2.415 4.534-0.156 10.3-1.359 14.627-2.714-0.424-1.993-4.961-2.711-6.824-3.39-5.511-1.911-11.532-2.502-17.255-3.604-6.656-1.27-12.721-3.646-19.208-5.428-5.55-1.48-11.191-3.857-15.687-7.503-3.177-2.585-6.696-4.789-9.752-7.503-4.197-3.687-7.206-7.758-12.037-10.681-4.114-2.461-8.225-3.774-12.802-5.217-3.307-1.058-6.743-2.203-10.175-2.966-3.946-0.849-7.845-0.891-11.745-2.121-7.716-2.504-14.627-4.959-22.81-5.848-6.824-0.766-13.567-2.758-20.308-3.904-7.081-1.227-13.525-4.577-20.648-5.722-5.386-0.847-10.472-2.504-15.814-3.432-19.714-3.349-40.743-1.487-60.707 3.345z"></path>
    <path fill="#000000" d="M720.534 503.5c1.656 0.508 2.714 1.993 4.155 2.883 2.627 1.569 5.385 2.585 7.971 4.366 7.463 5.131 14.202 10.093 17.553 18.868 1.359 3.562 3.349 11.7 7.884 12.76 1.698 0.392 4.409 0 6.108-0.189 5.044-0.637 9.495-1.101 14.709-1.101 12.721 0.031 25.436 0.095 38.156 0 4.833-0.031 9.029 0.847 13.736 1.27 3.562 0.356 7.374-0.063 10.98-0.031 4.197 0 7.927-0.282 12.043-1.189 4.534-1.016 8.14-3.264 12.462-4.961 3.479-1.353 7.165-1.782 10.811-2.631 2.925-0.677 5.852-1.48 8.779-2.163 1.44-0.352 3.008-0.392 4.029-1.48-1.954-1.867-4.961-1.993-7.378-2.589-7.081-1.778-14.034-4.068-21.115-5.891-14.242-3.687-28.109-7.249-41.46-13.395-12.677-5.852-26.583-6.446-39.982-9.328-12.037-2.631-24.334-3.393-36.459-4.961-5.131-0.677-9.92-2.631-15.007-3.604-5.001-0.929-10.344-0.847-15.304-2.034-3.008-0.766-7.841-3.349-5.257 1.993 2.415 4.959 8.605 10.344 13.819 11.956 2.8 0.847 4.624 3.053-1.227 1.48z"></path>
    <path fill="#000000" d="M307.263 486.543c0 6.739-2.379 11.36-5.554 17.424-2.502 4.789-4.581 9.877-6.743 14.709-1.569 3.437-3.687 6.656-5.257 10.135-1.145 2.585-3.181 7.586-5.511 9.285-1.189 0.891-2.585 0.593-4.153 0.55-5.554-0.031-11.152 0.314-16.706 0.095-8.225-0.356-18.188-0.847-25.905-4.157-11.022-4.789-21.24-12.125-33.49-13.905-13.567-1.948-27.472-2.84-41.165-3.731-5.511-0.356-11.108-0.063-16.619-0.063-3.859 0-7.715 0-11.532 0.031-2.631 0.031-6.571 0.597-8.779-1.227 1.487-4.197 14.034-4.664 16.832-4.876 10.517-0.847 20.268-5.001 30.442-7.378 3.899-0.891 7.841-1.145 11.787-1.778 4.959-0.803 9.665-2.498 14.497-3.942 9.625-2.84 20.605-4.11 30.61-5.131 8.393-0.891 16.789-1.227 25.139-2.372 7.21-0.976 14.414-0.891 21.539-2.117 5.087-0.849 9.665-1.526 14.838-1.526 5.424 0.031 10.387 0.803 15.729 0z"></path>
    </svg>