<svg xmlns="http://www.w3.org/2000/svg" viewBox="-23.009 -6.839 1068.159 1043.437">
    <path fill="#000000" d="M293.2 877.569c-34.667-26.449-69.334-59.508-77.040-73.468s-22.172-31.905-32.144-39.874c-9.975-7.969-14.53-23.885-10.124-35.367 5.995-15.62 1.217-20.131-18.968-17.908-19.768 2.178-30.49-7.326-40.109-35.549-7.222-21.185-21.71-44.844-32.198-52.572-25.626-18.883-10.416-77.987 22.783-88.522 44.571-14.147 72.129 13.397 89.049 89.005 17.050 76.176 20.985 79.945 55.855 53.476 27.667-21.002 28.745-33.485 2.893-33.485-28.055 0-46.729-56.993-31.657-96.628 18.181-47.819 47.333-53.034 78.062-13.969 31.238 39.713 85.706 44.24 159.805 13.28l48.531-20.277-30.913-15.409c-17.002-8.474-38.45-31.129-47.665-50.343s-20.768-34.874-25.682-34.804c-4.91 0.048-18.61 23.186-30.445 51.359s-27.52 51.228-34.86 51.228c-22.404 0-42.090-50.84-33.855-87.422 16.413-72.9 175.831-211.206 271.095-235.194 58.429-14.712 70.991-28.66 37.414-41.544-27.798-10.667-23.667-43.455 7.586-60.181 56.505-30.24 140.291 37.161 139.877 112.521-0.242 44.943-9.943 60.078-64.082 100.018-55.252 40.762-131.54 43.7-157.893 6.076-22.653-32.343-48.368-23.39-78.288 27.259-27.781 47.028-23.35 54.498 19.23 32.407 53.961-27.996 114.311-4.284 114.311 44.912 0 32.234-40.851 31.324-70.62-1.572-30.876-34.119-44.94-32.4-44.94 5.489 0 18.239 13.79 42.016 33.246 57.318l33.245 26.15 38.513-28.428c32.674-24.119 37.488-34.756 31.764-70.157-6.264-38.732-4.174-41.73 29.116-41.73 46.407 0 146.237-75.959 167.594-127.521 20.859-50.356 54.972-50.967 104.070-1.868 43.138 43.138 49.394 99.251 17.068 153.085-20.54 34.21-122.59 117.54-143.942 117.54-17.818 0-91.004 38.723-99.663 52.735-4.281 6.923-0.97 20.794 7.35 30.818 12.331 14.858 3.762 25.439-46.349 57.218-33.812 21.444-68.364 38.988-76.782 38.988s-53.927 18.074-101.132 40.164c-59.462 27.827-89.931 36.057-99.19 26.8-19.351-19.351-3.819-36.834 40.627-45.722 46.815-9.364 51.666-34.080 6.689-34.080-17.655 0-32.101 5.779-32.101 12.839s-13.482 12.839-29.959 12.839c-62.489 0-52.826 31.704 39.88 130.813 31.786 33.981 52.67 61.593 46.405 61.358-25.019-0.937-115.52-73.818-143.595-115.636-32.808-48.868-53.97-62.681-53.97-35.229 0 9.77 28.891 50.18 64.201 89.796 92.246 103.498 85.513 117.997-18.091 38.96zM169.854 620.832c-0.098-5.298-5.797-18.298-12.643-28.891-10.066-15.574-12.485-13.733-12.643 9.629-0.098 15.89 5.582 28.891 12.643 28.891s12.751-4.336 12.643-9.629zM603.133 622.706c-4.266-4.266-15.341-4.723-24.61-1.014-10.242 4.102-7.2 7.144 7.757 7.757 13.536 0.558 21.119-2.477 16.855-6.743z"></path>
    </svg>