<svg xmlns="http://www.w3.org/2000/svg" viewBox="48.338 -13.545 932.059 1018.474">
    <path fill="#000000" d="M523.843 481.971c-1.303 2.47-3.951 1.845-6.781 1.795-5.298-0.045-10.643 0.044-15.986 0.044-2.964 0-11.137 1.018-12.304-1.145-0.852-1.706 0.141-5.88 0.141-7.675 0-2.241 0.318-4.62-0.141-6.873-0.534-2.418-2.244-4.938-1.481-7.549 0.713-2.329 1.526-1.845 4.626-1.795 2.47 0.045 5.253-0.255 7.678-0.044 2.155 0.255 3.188 0.891 5.208 1.349 4.714 0.891 11.137-0.090 16.030-0.090l1.526 2.508c0 4.812 1.481 9.114 1.526 13.786 0.044 1.616 0.713 4.227-0.044 5.702zM565.377 136.143c-4.176-6.148-8.038-12.575-12.527-18.679-3.997-5.346-5.837-11.494-10.238-16.525-4.804-5.434-9.564-10.997-14.459-16.345-4.714-5.028-7.948-11.582-14.773-13.875-3.817-1.349-8.353-3.73-12.347-4.174-1.26-0.090-2.47-0.045-3.682 0.382-1.661 0.636-1.526 1.018-2.74 1.845-0.044 0.045-0.091 0.088-0.229 0.127 0.356-0.255-4.401 2.826-3.412 0.255-3.369 8.58 0.044 15.716 0 24.293-0.090 8.847 0.229 17.647 0.318 26.402 0.044 5.258 1.172 11.672-0.408 16.703-0.713 2.329-1.661 3.768-1.842 6.289-0.408 6.962-0.713 13.966-1.391 20.925-1.391 14.143-3.324 28.333-3.906 42.568-0.534 13.336 0.446 26.717-0.267 40.098-0.534 11.086-2.2 22.497-3.997 33.588-1.119 6.644-1.842 13.336-1.481 20.072 0.267 5.792 3.997 10.78 4.086 16.569 0.044 5.613-1.573 11.048-2.83 16.525-1.26 5.613-1.526 11.315-2.29 17.018-0.943 7.141-4.086 13.426-6.242 20.25-3.099 9.611-2.066 19.981-2.335 29.815-0.318 11.849-0.764 23.799-1.346 35.653-0.446 7.993-2.29 15.717-3.277 23.62-1.081 8.083 0.802 16.39-1.21 24.293-0.852 3.322-1.031 6.427-1.081 9.84-0.229 8.401-0.497 16.838 0 25.235 0.497 7.675 2.74 15.357 5.164 22.72 2.244 6.873 2.964 13.966 6.062 20.611 2.648 5.664 6.869 10.551 10.238 15.895 2.964 4.761 3.727 10.107 7.274 14.594 3.188 4.035 6.96 7.726 9.205 12.219 1.616 3.234 6.422 8.401 6.646 12.028 2.918-0.509 2.828-4.174 4.131-6.021 1.481-2.112 3.682-3.73 5.073-6.11 2.2-3.589 3.862-7.319 5.928-10.959 3.234-5.702 7.274-11.138 10.193-16.885 2.695-5.473 4.761-11.048 7.364-16.568 2.244-4.709 1.119-9.202 4.041-13.651 7.051-10.59 5.164-22.451 5.030-33.946-0.044-6.556 1.708-12.575 2.020-19.039 0.318-6.465-0.141-13.111-0.141-19.621v-65.918c0-5.931 0.044-11.94 0.044-17.917 0-5.028-0.904-10.73 0.497-15.626 0.904-3.055 3.324-5.525 4.266-8.527 1.708-5.117 0.623-10.959 0.585-16.121-0.141-13.74-0.318-27.481 0-41.175 0.356-16.705 7.274-32.601 9.879-49.124 3.188-20.477-0.229-41.175 1.661-61.741 0.993-10.463 1.031-20.611 1.346-31.073 0.318-10.959 4.041-21.060-2.605-30.894z"></path>
    <path fill="#000000" d="M682.206 488.038c-0.141 1.616-0.497 3.093-0.497 4.812 0 0.891-0.229 1.795-0.446 2.737-0.044 0.509 0.090 1.018-0.044 1.439-0.229 0.636-0.408 0.255-0.446 1.145-0.408 2.647 1.303 6.606-3.053 7.675-3.951 0.891-10.373-0.090-14.503-0.090-2.56 0-6.107 0.636-8.577 0.090-2.066-0.509-3.324-1.145-5.793-1.527-0.090-1.883 1.303-3.997 1.438-6.059 0.141-2.52 0-5.079-0.044-7.637 0-2.431-1.172-6.911 1.391-8.756 1.438-1.018 3.682-1.145 5.478-1.145 2.56 0 5.208 0.044 7.768 0.509 3.503 0.764 7.498 0.255 11.137 0.255 1.21 0 4.939 0.509 5.702-0.255 0.943 0.509 0.497 2.15 0.497 2.966 0 1.273 0.090 2.558 0 3.768zM713.063 307.901c-0.267-7.281-2.020-14.368-1.931-21.688 0.044-6.198-0.044-12.487 0-18.679 0.044-12.308-1.841-24.337-1.841-36.596 0-4.938-0.044-9.966-0.044-14.907 0-1.795 0.764-6.427-0.141-8.222-0.356-0.764-1.708-0.764-2.020-1.527-1.26-2.966 0.534-6.644-1.616-9.343-0.904-1.145-2.47-1.706-3.682-2.47-4.176-2.788-8.442-5.931-12.035-9.381-7.678-7.458-14.953-14.638-22.766-21.823-6.465-6.021-12.347-16.973-22.451-16.391-12.169 0.764-6.196 26.987-5.030 32.105l1.303-8.134c-0.446 9.343 0.534 19.084 0.534 28.065v70.272c0 17.782 1.031 35.878-0.141 53.66-1.031 15.895-4.041 31.702-5.208 47.551-1.21 15.222-0.318 29.501-3.727 44.589-2.964 13.111-5.702 25.505-5.613 38.841 0.044 9.381-1.303 19.353 0.408 28.649 1.481 7.942 0.318 16.029 1.841 23.889 2.201 11.456 0.229 22.902 1.303 34.44 1.081 11.226 6.422 21.464 9.699 32.196 0.713 2.38 2.335 4.582 2.918 6.962 0.497 2.112 0 3.945 0.267 6.059 0.497 4.265 2.964 8.172 3.771 12.346 1.031 5.028 3.008 6.695 6.465 10.997 2.783 3.501 2.918 8.668 6.377 11.723 3.503-3.678 5.567-6.733 8.261-10.818 1.481-2.241 3.369-3.373 4.895-5.702 3.008-4.403 7.229-7.052 8.935-11.99 2.83-7.993 5.523-15.986 9.070-23.754 3.906-8.439 8.847-16.345 9.295-25.684 0.713-13.381-1.172-26.807 0.764-40.188 1.031-7.141 3.817-14.1 4.579-21.239 0.904-8.35 1.751-17.198 1.976-25.551 0.585-18.723-0.179-37.045 2.29-55.769 2.29-17.512 3.188-35.067 3.188-52.626 0-13.291 0.534-26.627 0.090-39.875z"></path>
    <path fill="#000000" d="M816.365 535.028c-6.871 0.091-13.067 1.145-19.847 1.273-7.319 0.044-6.242-1.145-6.242-5.258 0-4.532 2.201-8.172 2.11-12.665 0-3.284-0.229-5.525 2.066-8.35l6.242 2.47c3.682-0.636 8.396 2.062 11.675 2.418 1.931 0.127 5.523-0.382 7.274 0 3.142 0.764 1.346 1.477 1.886 3.234 0.497 1.616 1.661 2.966 2.2 4.62 0.713 2.024-0.141 4.582-0.090 6.695 0.090 4.035 0 5.525-7.274 5.613zM845.371 308.86c-0.229-3.551-1.081-8.706-2.918-11.902-1.21-1.936-3.188-3.373-4.939-4.799-5.748-4.761-9.834-12.887-13.111-19.578-2.605-5.258-6.916-9.52-9.744-14.637-1.616-3.093-2.828-6.695-4.266-9.966-0.764-1.706-0.623-1.936-1.616-3.234-1.616-2.062-5.388-4.532-7.498-6.021-1.976-1.349-4.086-2.241-6.465-2.647-5.523-0.891-4.535 0.636-7.274 5.473-4.131 7.229-7.004 13.604-6.869 21.734 0.091 10.107 0.044 20.207 0.044 30.353 0 12.703-0.044 25.37-0.044 38.079 0.044 12.525-0.993 24.697-1.796 37.135v0.509c-0.675 9.699-2.918 19.129-3.682 28.783-0.623 8.083-1.438 16.164-2.021 24.294-0.764 9.966-1.842 20.115-4.266 29.949-1.21 5.079-2.155 10.463-1.438 15.627 0.446 3.182 2.335 4.99 3.906 7.854 1.931 3.463 0.675 7.549 0.318 11.226-1.573 14.1-0.179 28.872-0.179 43.017 0 20.207-1.976 41.356 8.755 60.080 3.951 6.823 5.478 14.234 7.993 21.328 0.943 2.647 2.47 9.558 6.646 10.195 1.526-1.706 2.021-3.997 3.592-5.702 2.38-2.47 5.882-3.945 8.083-6.873 3.053-3.945 6.33-7.319 8.982-11.456 4.131-6.465 8.8-12.703 12.976-19.174 4.579-7.052 10.417-17.062 9.519-25.056-1.119-9.878-0.446-19.981-0.446-29.859 0-19.353-2.11-39.605 0.904-58.822 5.298-33.678-3.817-68.477 2.29-102.109 2.425-13.47 3.457-27.121 4.535-40.727 0.318-4.353 0.267-8.668 0.044-13.021z"></path>
    <path fill="#000000" d="M369.045 489.115c-0.179 0.764-0.356 1.349-0.318 2.15 0.179 1.936 0.534 3.907 0 5.843-0.585 1.936-1.661 2.52-1.616 4.938 0.089 2.609 1.031 4.403-2.201 5.079-2.425 0.509-5.928-0.091-8.442-0.091-5.567 0.045-9.429-2.15-14.953-2.699-0.497-2.112-1.119-4.532-1.751-6.644-0.497-1.439-1.346-2.38-1.661-3.856-0.446-2.112 1.392-4.174 1.661-6.198 0.267-1.845-1.303-5.931 1.616-7.229 0.764-0.382 2.38-0.091 3.142-0.091 3.997 0 8.083 0.127 11.989 1.018 1.303 0.255 2.56 0.127 3.817 0.255 1.172 0.255 2.201 0.509 3.369 0.382 0.993 0 2.56-0.127 3.457 0 0.713 0.127 1.119 0.382 1.931 0.509 0.356 1.018 0.089 2.418 0.089 3.501 0 1.018 0.089 2.112-0.141 3.143zM393.192 155.543c-2.828 3.093-4.579 7.179-7.094 10.603-4.086 5.613-8.755 11.811-14.19 16.299-2.874 2.38-5.972 4.494-8.8 7.052-2.425 2.15-3.817 4.99-6.107 7.179-1.346 1.273-2.918 1.973-4.311 3.182-2.335 1.936-3.369 4.532-5.433 6.644-2.201 2.203-4.938 3.589-7.229 5.88-2.336 2.47-4.669 4.441-7.186 6.556-1.796 1.477-3.503 2.699-5.343 4.174-4.401 3.41-2.83 9.661-3.143 14.684-0.446 7.179-0.446 14.368-0.267 21.553 0.089 2.966-1.081 5.434-1.26 8.527-0.267 3.73-1.796 7.319-1.976 11.138-0.764 16.525-1.751 32.869-1.751 49.527 0 14.46-0.141 28.962 0.045 43.465 0 7.052-1.172 13.74-1.751 20.745-0.585 7.587-0.141 15.267-0.141 22.902 0 13.291 0.141 26.627-0.045 39.918-0.089 4.938 1.751 9.47 1.976 14.413 0.267 5.754 0.179 10.78 1.303 16.345 1.931 9.253 0.446 19.713 0.446 29.144 0 10.284-2.695 21.417 2.828 30.893 2.425 4.136 3.324 8.795 5.837 13.021 3.817 6.556 7.274 13.604 10.686 20.342 2.783 5.563 6.511 10.374 9.609 15.716 3.906 6.695 6.287 13.786 12.841 19.039 2.56 2.112 2.335 3.234 5.523 1.273 4.579-2.914 5.928-10.501 7.274-14.819 3.592-11.761 7.139-23.35 10.104-35.204 2.066-8.35 5.748-16.074 5.567-24.697-0.089-5.384-2.425-10.055-3.771-15.222-1.886-7.549-0.408-15.581-0.408-23.26-0.045-8.935-0.179-17.917 1.438-26.761 2.605-14.548 0.356-31.207 0.356-45.847 0.045-9.291 0.764-18.95-0.318-28.198-0.943-5.651-1.976-11.315-3.008-16.973-0.585-9.611-1.438-19.083 2.201-28.335 1.438-3.501 2.56-6.823 2.964-10.501 2.336-22.361 1.976-45.53 1.841-67.981-0.045-18.634 5.613-36.326 8.8-54.647 2.56-15.132 4.086-30.041 4.086-45.353 0-8.756 0-17.602 1.841-24.876-5.255 0-10.373-1.565-14.055 2.52z"></path>
    <path fill="#000000" d="M234.764 535.104c-1.081 1.706-2.201 1.145-4.804 1.145-4.985 0.127-11.137-0.764-15.94-0.044-4.535 0.636-7.723 1.845-12.707 1.145-1.346-2.966 0.356-6.236-0.675-9.291-0.585-1.654-0.904-3.182-1.119-4.761-0.089 0.127-0.179 0.255-0.356 0.382v-3.768c0.045 1.273 0.179 2.291 0.356 3.373 0.852-1.273 1.303-1.795 1.573-3.322 0.179-1.018-0.802-2.966-0.179-3.856 1.303-1.883 6.062-0.127 9.070 0.255 1.708 0.255 2.695 0.891 5.073 1.018 2.11 0.045 4.356 0 6.511 0 4.311-0.044 6.691 1.145 10.956 1.387 0.623 1.654-0.179 3.143 0.141 4.761 0.408 2.241 1.931 4.136 2.021 6.377 0.089 1.273 0.764 4.035 0.089 5.079zM260.769 265.658c0.356-4.174 2.201-8.121 2.38-12.308 0.267-6.289-6.646-8.312-11.046-4.9-2.605 2.062-4.041 5.969-5.928 8.618-5.567 7.816-13.831 13.785-20.924 20.342-0.943 0.891-1.931 1.795-2.783 2.737-7.454 7.458-14.459 16.703-22.272 23.26-2.56 2.062-3.369 4.671-4.938 7.458-2.648 4.761-7.498 8.973-7.723 14.324-0.267 5.88-0.356 11.761-0.356 17.649 0.045 4.671 1.21 10.73 0.089 15.311-0.356 1.668-1.303 2.52-1.976 3.997-1.438 3.093-1.346 6.695-1.392 10.055-0.089 6.059 0.585 12.028 0.585 18.095 0 8.222-0.318 16.525-0.045 24.741 0.179 5.969 1.661 11.494 1.616 17.467-0.141 16.299 0.534 32.196 1.481 48.315 1.031 17.108-5.073 34.081-5.388 51.19-0.141 7.319-2.513 13.696-3.817 20.745-0.623 3.64 1.031 4.315 3.682 6.695 5.073 4.532 6.465 9.878 9.205 15.357 3.457 7.052 6.96 12.976 8.755 20.476 1.392 5.664 4.132 10.909 5.568 16.525 0.764 3.004 2.964 6.198 2.155 9.343 3.099-5.563 7.363-10.551 13.022-14.548 2.783-2.024 5.298-3.093 7.319-5.843 2.783-3.819 3.592-8.527 6.242-12.487 4.311-6.517 6.287-12.887 8.487-20.162 1.708-5.88 4.132-11.94 5.478-17.69 2.918-12.525 3.053-27.616 1.616-40.592-2.335-21.149-1.661-42.434-1.661-63.672 0-16.076-0.852-32.285-0.089-48.315 0.318-6.962 1.481-13.831 1.931-20.79 0.623-9.928 0.764-20.207 2.155-30.041 2.155-15.177 8.083-29.859 8.935-45.261 0.408-7.179-0.089-14.459-0.045-21.598 0-4.812-0.764-9.699-0.318-14.503z"></path>
    <path fill="#000000" d="M865.194 589.276c3.862 5.205 2.425 15.986 2.515 22.228 0.090 9.381-0.814 19.802-2.648 28.962-3.637 17.96-9.699 35.384-18.23 51.369-2.021 3.768-4.176 7.726-7.409 10.501-3.682 3.234-8.396 4.227-12.482 6.733-6.017 3.678-10.193 10.145-15.447 14.998-5.882 5.434-12.347 10.107-18.68 14.907-10.508 7.904-20.342 16.569-31.387 23.574-10.598 6.733-21.957 11.94-32.689 18.546-7.498 4.709-14.998 9.787-22.675 14.234-7.184 4.086-14.414 8.618-22.406 10.055-16.884 2.966-34.664 0.091-50.965-4.582-6.152-1.795-12.304-2.876-18.052-5.843-4.804-2.52-10.057-3.463-14.683-6.517-9.16-6.059-14.683-15.357-22.54-22.99-3.906-3.73-8.487-7.37-12.798-10.603-2.964-2.291-7.948-4.174-10.598-7-1.573-1.706-1.661-3.997-2.695-5.969-4.266-8.439-10.598-16.164-17.062-22.99-11.675-12.207-24.202-24.741-40.907-29.097-12.347-3.234-23.754-3.143-36.506-3.182-14.683-0.044-29.008 2.647-43.645 3.373-8.8 0.382-16.525 2.558-25.146 4.761-7.319 1.845-14.234 2.418-21.642 3.143-4.266 0.382-7.813 1.795-12.259 1.706-7.004-0.127-12.079 3.373-17.556 7.281-3.817 2.699-7.948 4.62-11.9 7-10.328 6.289-18.724 15.716-20.745 27.885-1.392 8.172-2.74 15.851-6.107 23.439-4.491 10.233-10.731 19.533-13.605 30.489-3.322 12.841-2.648 28.198 1.119 40.547 4.938 16.029 15.94 27.346 27.705 36.641 5.702 4.532 9.429 6.517 16.299 5.117 8.126-1.616 16.749 0.382 24.876 1.018 6.916 0.636 12.976 3.143 19.892 3.768 4.086 0.382 15.536 4.086 19.083 0.382-1.26-2.876-1.931-7.090-1.751-10.284 0.229-4.494-0.408-8.172-0.497-12.575-0.045-4.353 0.943-4.671-2.828-4.048-2.336 0.382-4.669 1.018-7.274 0.127-1.751-0.636-3.637-1.936-5.613-2.699-2.874-1.145-4.849-1.936-7.993-2.241-1.751-0.127-2.828-0.255-4.579-0.044-0.623 0.127-1.119 1.439-2.066 1.477-2.29 0.091-4.176-1.973-6.33-2.647-3.997-1.349-7.589-3.463-10.866-6.148-4.535-3.768-8.487-8.26-12.933-12.169-3.369-2.914-6.646-6.059-9.116-9.84-3.771-5.792-4.266-11.99-3.188-18.681 1.346-8.489 2.83-19.083 6.6-26.717 4.895-9.878 12.394-17.422 21.283-23.709 4.626-3.234 10.643-6.148 15.761-8.527 8.982-4.174 18.635-8.756 26.583-14.324 7.274-5.205 16.164-4.582 24.697-4.709 4.579-0.045 7.186 1.744 11.989 1.654 6.152-0.091 11.225 1.845 17.197 2.826 8.982 1.477 18.23 3.64 26.853 6.873 8.307 3.182 14.324 8.795 20.52 15.087 8.218 8.26 15.627 17.422 23.439 26.089 3.682 4.086 8.083 7.587 11.45 12.028 3.369 4.494 5.073 10.055 8.532 14.368 2.11 2.609 4.761 3.945 7.589 5.613 1.751 1.018 3.412 2.062 5.073 3.284 8.621 6.377 17.961 11.405 26.761 17.602 10.643 7.549 20.925 10.871 33.229 13.65 11.272 2.609 22.092 1.018 33.498-0.255 18.141-2.112 36.46-5.079 54.512-8.312 9.969-1.795 19.981-4.403 29.906-6.733 14.773-3.501 28.649-10.692 42.478-17.782 10.373-5.258 20.207-12.028 29.591-19.31 11.854-9.114 23.304-19.578 35.519-27.975 12.573-8.668 22.99-20.072 33.901-31.297 11.407-11.723 18.68-26.449 23.169-43.197 2.425-8.973 4.266-18.141 6.242-27.211 1.438-6.606 2.964-13.785 3.547-20.52 0.497-6.326 1.21-12.665 1.708-18.95 0.585-6.873-0.675-13.74-1.081-20.565-0.675-13.74 0.904-27.391-1.481-41.086-0.764-4.441-2.066-6.148-4.939-8.935-1.303-1.349-4.849-7-6.781-6.695-1.708 0.255-2.74 3.819-3.592 5.205-1.796 2.788-3.771 4.315-5.748 6.733-3.188 3.997-5.658 9.699-7.409 14.729-1.346 3.678-2.29 7.319-3.457 11.086-1.081 3.64-4.446 9.024-0.141 5.702z"></path>
    <path fill="#000000" d="M248.93 775.666c-0.179-2.291-1.573-3.272-2.605-4.99-2.021-3.322-3.547-7.319-5.030-11.086-4.849-12.169-5.882-32.959-0.408-45.756 5.073-11.723 14.324-19.218 22.182-27.346 7.139-7.37 14.279-14.46 21.642-21.329 16.255-15.042 33.901-30.399 52.492-39.471 13.515-6.606 26.224-10.871 40.457-12.933 9.519-1.349 18.993-3.907 28.514-5.754 10.193-1.973 20.431-3.055 30.578-5.931 21.868-6.289 44.363-10.322 66.547-13.65 15.447-2.329 29.995-1.387 45.307-0.127 18.904 1.527 37.404 4.174 53.165 17.647 2.783 2.38 6.017 2.914 8.982 4.99 2.828 1.936 5.253 4.174 8.173 5.792 6.33 3.463 12.707 6.289 18.95 10.145 8.038 4.938 17.154 8.35 23.888 15.986 4.849 5.384 9.16 10.501 13.336 16.703 3.188 4.709 8.173 7 10.643 12.525 1.708 3.819 2.244 8.439 2.515 12.752 0.229 2.647 0.267 5.295 0 7.904-0.356 3.945-1.573 7.726-2.38 11.582-1.081 5.525-1.031 11.048-1.661 16.615-0.764 6.465-3.412 7.942-7.051 12.308-4.669 5.702-9.834 9.202-15.492 13.068-2.783 1.845-5.343 5.258-8.621 6.148-2.29 0.636-4.311 0.636-6.6 1.527-4.804 1.706-9.564 3.768-14.19 6.021-1.616 0.764-3.099 1.706-4.895 1.744-4.626 0.127-9.384-3.73-13.426-5.931-2.515-1.349-5.613-1.273-8.396-1.973-5.12-1.298-8.712-6.148-13.65-8.35-3.053-1.387-3.457-3.234-5.748-6.021-1.708-2.15-3.503-3.182-5.073-5.525-3.862-5.563-7.903-12.575-10.373-19.128-0.993-2.558-2.47-6.606-1.573-9.558 0.852-2.737 6.152-5.167 8.353-6.911 1.931-1.565 5.568-6.415 8.038-6.021 1.21 6.289-0.267 13.381 2.918 19.174 3.412 6.148 8.218 10.871 14.144 12.798 4.266 1.387 7.723 4.353 12.079 5.88 5.030 1.757 9.789 1.845 15.042 1.795 4.041-0.044 9.922-0.764 11.989-5.88 0.852-2.062 0.497-3.322 0.229-5.434-0.814-5.434-0.993-10.818-1.796-16.255-0.585-4.086 0.585-8.222-1.346-11.902-1.346-2.647-4.041-3.551-5.613-5.754-2.155-3.143-2.11-6.556-2.783-10.412-0.904-4.849-4.311-5.931-7.004-8.935-11.45-12.703-28.917-19.488-43.106-27.077-9.16-4.849-18.5-8.083-28.244-10.284-5.613-1.273-11.225-2.342-16.973-2.914-9.205-0.891-17.647 1.018-26.807 1.973-14.279 1.565-28.558 0.127-42.882 2.241-10.238 1.477-20.385 3.73-30.669 5.384-11.585 1.845-23.843 5.346-35.025 10.501-11.091 5.028-22.766 9.611-34.351 12.028-12.752 2.647-24.113 6.695-35.697 14.502-9.611 6.427-19.083 12.028-27.975 20.207-3.369 3.093-5.478 5.346-7.948 9.84-3.143 5.754-7.274 9.432-11.046 14.325-5.388 6.911-13.92 15.492-16.39 25.056-2.244 8.847-2.335 20.611-1.438 29.501 0.623 6.733 1.392 13.604 1.708 20.297 0.141 3.272 2.38 11.264-0.446 13.65-3.099 2.609-12.439-2.329-14.368-5.258-2.918-4.315-6.287-10.551-8.218-15.582-2.11-5.434-2.38-9.432-2.648-15.492-0.408-8.706-3.503-14.234 0.229-22.9z"></path>
    <path fill="#000000" d="M381.223 808.145c10.956 0.509 21.642-1.973 32.6 0.090 8.126 1.477 15.805 5.563 23.395 8.795 9.519 4.048 15.088 11.723 23.439 17.288 7.229 4.799 11.001 12.799 16.928 18.95 2.155 2.291 3.457 5.028 5.255 7.587 3.008 4.265 6.6 8.172 9.699 12.398 9.476 12.842 19.892 25.55 32.689 35.114 3.008 2.291 6.422 3.678 9.429 5.931 2.515 1.973 5.030 5.258 8.173 6.289 1.616 0.509 3.188 0.127 4.804 0.382 2.335 0.382 4.041 1.527 6.33 2.024 9.025 1.936 19.578 0.764 27.525-3.678 6.152-3.463 12.482-4.761 18.95-7.268 1.886-0.764 3.324-1.973 5.388-2.699 1.573-0.636 5.164-0.636 6.6-1.616 4.804-3.284-1.26-13.202-2.605-17.917-1.391-5.295-0.446-6.733-6.107-6.911-4.311-0.044-7.409-0.090-11.675 1.145-10.866 3.182-24.831 1.298-35.068-3.182-5.433-2.38-10.598-4.048-15.716-7.141-4.086-2.418-8.307-4.799-12.169-7.319s-6.646-6.733-10.014-9.84c-5.164-4.799-9.564-9.878-13.515-15.716-1.616-2.38-3.862-4.035-5.433-6.289-1.481-2.062-2.11-4.582-3.592-6.695-2.605-3.73-5.164-7.408-7.589-11.264-2.783-4.403-6.196-8.312-9.609-12.219-3.727-4.265-7.139-9.343-12.034-12.398-7.678-4.761-13.246-9.432-22.003-12.219-9.744-3.093-19.713-7.587-29.815-9.114-5.073-0.764-10.598-0.382-15.761-0.636-4.849-0.255-10.463-1.298-15.223-0.255-2.918 0.636-5.478 1.616-8.126 2.558-3.324 1.273-4.356-0.044-5.073 4.532-1.081 6.465-0.408 13.336 0.713 19.443 0.852 4.403 0.713 9.114 2.244 13.202 2.021 5.205 3.188 6.427 6.96-1.298z"></path>
    <path fill="#000000" d="M750.144 595.841c0.713 3.055-2.335 4.62-4.132 6.556-4.086 4.353-6.735 8.935-7.948 14.638-3.412 15.492 0.318 32.374 3.188 47.596 1.616 8.706 6.375 16.076 10.598 23.754 1.526 2.788 2.155 6.059 5.030 7.763 2.29 1.349 6.826 2.558 9.34 3.093 4.804 1.145 10.463 0.255 15.401 0.382 2.918 0.044 8.935-2.558 10.328-0.764 1.346 1.706 0.044 8.222 0.090 10.463 0.044 4.99-1.526 6.11-6.375 6.517-3.503 0.255-6.287 0.764-9.429 2.418-2.38 1.145-3.503 2.431-6.017 2.38-2.918-0.045-7.051-1.145-10.104-1.527-3.369-0.382-5.793-1.757-8.755-3.284-12.394-6.377-20.924-14.998-27.659-27.434-3.547-6.517-6.646-13.158-10.508-19.488-2.066-3.322-4.804-6.236-6.33-9.928-1.481-3.73-1.573-7.675-2.201-11.635-1.391-8.172-1.438-15.089 0.179-23.125 0.993-5.028 1.26-11.315 4.849-15.357 5.658-6.556 15.088-9.699 21.24-15.941 3.188-3.272 6.107-6.733 7.948-11.086 2.47 3.284 5.433 5.258 7.274 9.114 1.481 2.966 2.244 4.532 3.997 6.873 1.438 1.936 2.874 3.551 0-1.973z"></path>
    <path fill="#000000" d="M248.539 653.85c0.267-1.477 2.244-2.112 3.324-3.143 5.928-5.754 5.073-15.536 0.446-22.093-2.066-2.826-3.817-5.613-7.139-7.675-2.201-1.349-4.266-1.668-6.556-2.418-1.841-0.509-3.457-1.795-5.478-1.757-3.099 0-5.253 2.826-8.126 3.501-2.74 0.636-5.343 0.509-8.126 1.527-3.053 1.018-6.062 0.764-8.982 1.565-1.976 0.509-2.74 1.527-4.626 2.508-2.828 1.477-4.895 1.936-7.633 3.997-2.918 2.15-5.793 3.997-8.532 6.465-7.364 6.556-12.752 15.761-16.793 24.786-8.847 19.488-2.783 46.969 7.051 64.166 1.886 3.234 3.053 6.236 5.613 8.897 1.931 2.112 4.535 4.938 0.045 6.11-7.723 2.112-17.826-4.227-23.304-8.26-6.465-4.799-10.551-10.959-13.74-17.872-2.828-6.059-7.498-11.672-8.755-18.276-1.392-7.496-3.547-15.266-4.311-22.855-0.764-7.281-4.579-16.39-1.708-23.35 2.918-7.090 6.375-12.798 11.585-18.589 5.748-6.517 11.9-12.525 17.243-19.308 2.29-2.914 4.266-4.403 7.498-6.148 4.626-2.52 8.218-6.326 12.798-8.847 2.155-1.145 4.491-1.565 6.646-2.788 5.208-2.914 9.070-6.733 14.864-8.847 6.287-2.241 11.272-4.938 18.186-5.028 7.274-0.044 13.336 0.255 20.431 1.616 6.465 1.273 12.752 1.706 16.525 7.319 3.142 4.761 6.511 9.076 9.294 14.010 1.081 1.845 2.425 2.788 3.906 4.353 1.661 1.706 2.29 3.64 3.099 5.754 1.886 4.799 1.796 9.024 1.796 14.053 0 3.551 0.713 7.904 0.045 11.405-0.497 2.647-2.964 5.167-4.626 7.229-3.369 4.353-7.139 9.47-12.887 11.176-1.796 0.509-2.74 1.273-4.176 1.883-1.976 0.891-2.513 1.018-4.895 1.565-3.547 0.764-6.287 4.494-7.004-0.255-0.534-3.463 1.481-4.441 3.862-6.695 2.066-1.936 6.691-3.322 3.143 0.255z"></path>
    </svg>