<svg xmlns="http://www.w3.org/2000/svg" viewBox="27.892 81.039 984.198 951.703">
    <path fill="#000000" d="M932.089 810.518c-0.090 0.091-0.227 0.126-0.227 0.253-0.617 3.64-2.443 6.976-3.333 10.578-0.177 0.756-0.617 1.461-0.933 2.179-0.227 0.629-0.491 1.259-0.667 1.863-0.139 0.503-0.043 1.133-0.265 1.65-1.196 2.884-1.555 5.869-1.643 8.928 0 0.126-0.177 0.377-0.353 0.756-2.71 1.133-5.509 2.179-8.618 2.179-2.71 0.043-5.375-0.043-8.13 0-3.73 0.043-7.464 0.090-11.152 0.126-4.664 0.090-9.24-0.043-13.772-1.335-1.911-0.503-4.042-0.629-6.043-0.629-5.731 0.126-11.506 0.503-17.237 0.629-1.999 0.043-4.042-0.043-6.043-0.253-1.733-0.253-2.399-1.284-1.911-2.934 0.44-1.461 1.107-2.934 1.776-4.395 1.107-2.356 1.6-4.848 1.689-7.555-0.756-0.090-1.377-0.253-1.998-0.253-16.393 0-32.785-0.043-49.133 0.091-4.62 0.043-9.24 0.629-13.816 0.882-7.107 0.503-14.216 0.756-21.323 1.259-11.105 0.629-22.3 1.133-33.452 1.951-13.594 0.882-27.187 2.267-40.87 2.217-4.175-0.043-8.352 0.377-12.483 0.756-8.352 0.756-16.658 1.335-25.010 1.133-5.775-0.126-11.506-0.503-17.281-0.882-7.729-0.629-15.505-1.008-23.323-1.008-16.214 0-32.474 0-48.733-0.126-5.42-0.090-10.795-0.756-16.171-1.008-4.976-0.253-9.951-0.629-14.926-0.756-3.599-0.126-7.196-0.126-10.795-0.126-8.173 0.126-16.214-0.503-24.344-1.008-5.287-0.253-10.617-0.253-15.949-0.126-7.418 0.126-14.882 0.253-22.3-0.253-7.997-0.629-15.992-1.133-23.989-1.775-6.397-0.503-12.795-1.008-19.192-1.461-0.806-0.043-1.6 0-2.532 0-0.139 0.629-0.315 1.284-0.353 1.951-0.177 1.863-0.227 3.816-0.491 5.692-0.617 3.64-1.555 4.395-5.152 4.357-3.73-0.126-7.418-0.377-11.105-1.133-4.31-0.882-8.706-1.133-13.149-1.008-6.975 0.126-13.948 0.503-20.968 0.629-2.798 0-5.642-0.043-8.442-0.377-1.866-0.253-3.777-0.756-5.463-1.638-3.11-1.549-3.999-3.953-2.932-6.711 0.617-1.638 1.158-3.374 1.733-5.063 0.315-0.882 0.528-1.688 0.895-2.796h-3.952c-36.029 0.043-71.966 0.126-107.995 0.253-7.107 0-14.216-0.043-21.323-0.253-3.154-0.126-6.264-0.629-9.419-0.882s-6.307-0.629-9.462-0.756c-6.885-0.126-13.772-0.126-20.613-0.377-4.31-0.253-8.307 0.756-12.172 2.356-0.315 0.126-0.528 0.377-0.844 0.629v2.707c0.043 1.65 0.177 3.374 0.139 5.063-0.089 6.749-3.91 12.178-10.307 14.393-1.999 0.629-4.132 1.259-6.264 1.259-7.862 0.126-15.77 0.253-23.678 0.090-3.82-0.043-7.596-0.756-11.416-1.284-2.753-0.377-3.953-1.65-4.132-4.484-0.227-2.305-0.705-4.446-1.821-6.448-0.139-0.377-0.667-0.503-1.021-0.629v-8.802c0.177-0.756 0.44-1.461 0.528-2.217 0.491-3.111 0.983-6.221 1.378-9.37 0.528-3.425 1.070-6.888 0.705-10.401 0-0.756-0.089-1.726-0.528-2.179-0.705-0.756-0.844-1.549-0.895-2.443-0.227-2.217-0.402-4.484-0.617-6.711-0.139-1.133-0.402-2.179-0.579-3.248v-2.707c0.353-0.377 0.933-0.629 1.107-1.133 0.705-2.128 2.443-3.198 4.265-4.080 3.866-1.688 7.952-2.090 11.906-0.629 2.843 1.008 5.731 1.259 8.663 1.133 3.154-0.126 6.264 0.126 9.329 1.008 2.087 0.629 4.22 0.882 6.397 0.503 1.999-0.377 3.999 0.091 5.953 0.756 1.954 0.629 3.866 1.133 5.953 1.133 2.577 0 4.576 1.008 5.908 3.337 0.227 0.377 0.44 0.756 0.806 1.284 0.844 0.043 1.689 0.126 2.577 0.090 7.819-0.090 15.593 0.126 23.323 0.756 6.441 0.503 12.838 1.133 19.236 1.638 3.82 0.253 7.641 0.756 11.461 0.882 5.865 0.253 11.728 0.503 17.592 0.629 6.798 0.126 13.504 0.882 20.257 1.6 5.375 0.629 10.75 1.133 16.171 1.133 16.57 0.253 33.184 0.126 49.755-0.756 6.53-0.253 13.017-0.756 19.59-1.284 1.643-0.091 3.333-0.503 5.019-0.629 5.953-0.503 11.951-0.882 17.858-1.335 2.932-0.253 5.865-0.503 8.796-0.756 23.856-1.825 47.8-2.040 71.701-2.002 6.663 0 13.328 0.043 19.947-0.043 4.797-0.043 9.462 0.503 14.17 1.133 3.82 0.503 7.641 0.882 11.461 0.882 11.152 0.090 22.346 0 33.495-0.253 10.261-0.126 20.524 0.253 30.742 1.474 10.529 1.259 21.057 2.356 31.63 3.324 10.883 1.008 21.813 1.775 32.74 1.65 7.153-0.091 14.216 0.253 21.279 1.133 4.265 0.503 8.575 0.629 12.838 0.756 17.281 0 34.562-0.377 51.799-1.008 15.548-0.503 31.096-1.259 46.69-0.629 6.53 0.253 13.060-0.253 19.59-1.259 8.040-1.133 16.082-1.825 24.211-2.393 4.708-0.377 9.419-0.756 14.17-1.133 4.265-0.253 8.529-0.629 12.838-0.882 6.752-0.253 13.504-1.008 20.169-1.951 2.356-0.253 4.754-0.377 7.108-0.629 0.895-0.043 1.733-0.126 2.309-1.008 0.227-0.377 0.895-0.629 1.466-0.756 2.22-0.756 4.531-1.259 6.752-2.090 2.133-0.756 4.31-1.259 6.575-1.259 4.088 0 8.173-0.043 12.172 0 1.158 0 2.309 0 3.42 0.253 3.154 0.756 6.397 1.259 9.64 1.562 2.133 0.253 4.265 0.629 6.352 1.008 4.62 1.008 9.24 0.503 13.816 0.126 1.332-0.090 2.62-0.629 3.909-1.008 0.983-0.253 1.954-0.629 2.976-0.629 2.309-0.126 4.042 1.423 4.443 3.69 0.491 2.669 0.983 5.288 1.466 7.959 0.043 0.253 0.265 0.377 0.402 0.503z"></path>
    <path fill="#000000" d="M477.662 952.742c-2.087-0.503-4.132-1.008-6.264-1.284-5.197-0.629-10.085-2.217-14.749-4.659-5.642-3.061-11.416-5.869-17.281-8.488-2.266-1.008-4.398-2.305-6.53-3.602-1.866-1.133-3.777-1.373-5.775-0.629-5.463 2.128-11.195 2.619-16.97 2.53-4.754-0.043-9.507-0.090-14.216-0.503-6.709-0.503-13.328-0.253-19.858 1.008-5.908 1.133-11.817 2.002-17.814 2.356-6.619 0.503-13.193 1.688-19.636 3.337-6.176 1.6-12.262 1.423-18.347-0.503-3.333-1.008-6.709-1.951-10.039-2.884-2.309-0.629-4.132-1.775-5.463-3.728-0.44-0.756-0.983-1.511-1.466-2.267-2.489-3.953-6.13-6.309-10.572-7.241-1.866-0.503-3.82-0.756-5.686-0.756-9.284 0-18.569 0.126-27.72 1.461-5.109 0.756-10.174 1.825-15.283 2.707-3.288 0.503-6.486 0.882-9.729 1.423-2.798 0.377-5.598 0.756-8.352 1.133-3.953 0.629-7.907 0.377-11.817 0.126-0.491 0-0.933-0.090-1.378-0.126-1.070-0.253-1.733-1.133-1.555-2.267 0.139-0.882 0.353-1.738 0.579-2.619 0.806-2.53 1.070-5.025 0.705-7.681-0.756-5.063 1.070-5.818 5.242-6.17 1.196-0.126 2.443-0.043 3.687 0.043 7.909 0.756 15.816 0.377 23.678 0.253 2.133 0 4.22-0.629 6.264-1.284 3.065-0.882 5.953-2.128 8.929-3.111 3.599-1.133 6.885-2.758 10.174-4.534s6.575-3.463 9.951-5.113c2.577-1.259 5.019-2.581 7.196-4.395 2.133-1.825 4.443-3.513 6.441-5.465 1.954-1.914 3.599-4.042 5.375-6.082 0.402-0.503 0.794-1.008 1.196-1.549 1.689 0.377 2.666 1.511 3.554 2.707 0.667 0.882 1.289 1.825 1.821 2.846 1.643 3.198 4.088 5.604 6.975 7.644 1.070 0.629 2.087 1.373 3.111 2.040 1.954 1.133 3.73 2.619 5.197 4.357 2.044 2.443 4.62 4.269 7.552 5.503 1.6 0.629 3.11 1.335 4.664 2.040 2.577 1.133 5.019 2.581 7.286 4.219 1.289 0.882 2.62 1.825 3.999 2.53 3.065 1.688 6.086 3.425 8.929 5.503 3.198 2.443 6.709 2.972 10.572 2.128 5.375-1.259 10.795-2.356 16.171-3.463 3.643-0.756 7.329-1.461 10.929-2.356 3.777-0.882 7.329-2.179 10.795-3.866 2.266-1.008 4.531-1.951 6.885-2.846 3.243-1.133 6.086-2.884 8.529-5.326 1.196-1.284 2.71-2.356 4.22-3.337 2.356-1.511 4.22-3.337 5.598-5.781 0.617-1.008 1.289-2.128 2.044-3.111 1.733-2.179 3.42-2.128 5.287 0 0.402 0.503 0.705 0.882 0.983 1.373 1.51 2.443 3.599 4.269 5.953 5.907 3.376 2.305 6.619 4.747 9.996 7.014 2.71 1.825 5.42 3.64 8.219 5.326 2.577 1.6 5.242 3.148 7.241 5.503 1.158 1.335 2.666 2.090 4.31 2.493 2.976 0.756 5.953 1.461 8.929 1.951 3.643 0.629 7.285 1.373 10.75 2.758 3.599 1.423 7.241 1.6 11.017 1.133 6.619-0.756 13.106-2.179 19.636-3.374 1.776-0.377 3.554-0.756 5.33-1.008 3.999-0.377 7.686-1.738 11.195-3.602 5.509-2.972 10.484-6.711 14.971-11.018 1.911-1.825 3.42-4.181 4.931-6.397 1.51-2.267 2.753-4.659 4.22-6.926 1.6-2.493 3.466-4.747 5.82-6.536 2.177-1.638 3.466-2.305 6.043 0.629 0.491 0.503 0.895 1.133 1.158 1.688 1.196 2.305 3.021 3.953 5.066 5.414 2.22 1.461 4.531 2.972 6.752 4.484 3.777 2.48 7.508 4.974 11.238 7.555 2.577 1.825 5.463 3.148 8.396 4.357 4.754 1.951 9.595 3.816 14.393 5.818 3.599 1.511 7.285 2.393 11.152 2.356 3.509 0 7.020 0 10.529 0.091 4.887 0.126 9.64-0.756 14.216-2.619 3.154-1.259 6.307-2.356 9.462-3.64 3.909-1.511 7.952-2.305 12.172-2.619 6.176-0.503 12.305-1.549 18.347-2.846 3.599-0.756 6.842-2.305 9.729-4.571 2.489-1.951 4.843-4.042 7.329-5.993 2.577-2.002 5.199-3.953 7.862-5.907 1.246-0.882 2.622-1.775 3.866-2.707 3.288-2.48 5.731-5.73 7.153-9.633 0.315-1.008 0.528-2.002 1.643-2.707 0.705 0.503 1.51 0.756 2.133 1.423 1.289 1.335 2.62 2.758 3.777 4.269 1.6 2.179 3.065 4.484 4.486 6.749 1.466 2.356 3.333 4.307 5.463 5.956 2.62 2.040 5.152 4.042 7.641 6.221 4.754 3.991 9.863 7.467 15.237 10.616 2.22 1.284 4.708 2.128 7.107 3.061 2.22 0.882 4.486 1.461 6.663 2.393 3.466 1.423 7.020 2.53 10.662 3.337 1.51 0.253 2.932 0.882 4.754 1.549 6.086-1.259 12.084-1.461 16.082-0.629 0.043 0.253 0.265 0.629 0.227 0.882-0.933 3.161-2.22 6.082-3.91 8.978-1.51 2.581-3.777 3.728-6.709 3.816-1.107 0.043-2.266-0.043-3.376-0.043-6.307-0.091-12.616-0.253-18.97-0.377-2.71-0.043-5.375 0.503-7.952 1.423-0.402 0.126-0.844 0.253-1.246 0.503-4.887 2.356-9.773 2.217-14.749 0.043-3.288-1.461-6.842-2.217-10.396-2.758-5.109-0.882-9.816-2.53-13.994-5.642-1.332-1.008-2.888-1.775-4.398-2.53-2.22-1.133-4.576-1.133-6.885-0.253-0.315 0.090-0.667 0.126-0.983 0.253-5.686 2.669-11.461 5.239-17.148 8.047-2.71 1.373-5.463 2.581-8.396 3.374-1.998 0.503-3.866 1.259-5.731 2.002-7.952 3.463-16.082 6.574-24.388 9.067-10.973 3.337-21.989 3.513-33.097 0.882-7.997-1.951-15.992-3.903-23.944-5.993-4.62-1.133-9.284-1.951-14.037-1.775-1.466 0.043-2.932 0-4.398 0-2.489 0-4.931-0.503-7.286-1.335-0.933-0.377-1.954-0.629-2.888-1.008-1.643-0.629-3.065-0.503-4.398 0.756-1.998 1.738-4.398 2.669-6.975 3.286-1.733 0.377-3.376 1.133-5.019 1.951-2.71 1.335-5.509 1.914-8.485 1.775-3.021-0.091-6.13-0.091-9.151-0.126-7.552-0.126-15.060 0.253-22.568 1.511-4.443 0.756-8.974 1.008-13.461 1.284-4.976 0.377-9.951 0.377-14.882 0.756-2.399 0.126-4.976 0.253-7.241 1.335z"></path>
    <path fill="#000000" d="M557.574 161.039c0.617 1.688 0.844 3.374 0.806 5.239-0.177 4.886-0.090 9.683-0.090 14.528 0 0.882 0.139 1.825 0.265 2.758 0.402 2.669 0.667 5.326 1.158 7.997 0.44 2.393 0.933 4.886 1.689 7.241 1.422 4.571 2.087 9.193 1.911 13.995-0.177 5.202-0.139 10.351-0.844 15.505-0.353 2.493-0.139 4.974 0.265 7.416 0.315 2.217 0.528 4.534 0.44 6.749-0.139 3.286 0.139 6.536 0.705 9.772 0.139 1.008 0.353 2.040 0.265 2.972-0.402 4.484 0.528 8.752 1.196 13.149 1.158 7.241 2.133 14.482 2.399 21.812 0.491 10.262 1.866 20.435 4.042 30.475 0.402 1.688 1.021 3.236 2.577 4.219 1.332 0.756 1.954 2.090 2.399 3.551 1.689 5.376 3.466 10.704 4.976 16.125 2.177 7.871 4.486 15.593 7.641 23.102 0.933 2.128 1.289 4.534 1.999 6.799 0.579 1.688 1.158 3.425 1.954 4.974 1.021 2.040 1.999 4.042 2.309 6.347 0.139 0.882 0.353 1.738 0.579 2.619 0.617 2.846 1.733 5.326 4.22 7.065 0.895 0.629 1.911 1.335 1.911 2.758-0.491 0.882-1.466 1.008-2.309 1.008-3.82 0.253-7.641 0.377-11.373-1.008-5.109-2.002-10.351-1.775-15.637-1.008-5.33 0.756-10.707 1.474-16.081 2.090-1.689 0.126-3.42-0.088-5.109 0-2.666 0.126-5.375 0.377-8.040 0.503-1.377 0.088-2.753 0.253-4.042 0.253-1.954 0.126-3.82 0.253-5.731 0.503-0.895 0-1.823 0.090-2.71-0.043-7.241-1.008-14.571-1.461-21.946-1.133-1.289 0.043-2.666 0-4.042-0.126-1.021-0.088-1.643-1.6-0.933-2.356 3.599-3.64 5.066-8.526 7.329-12.883 4.708-8.928 9.107-18.080 13.594-27.187 3.154-6.536 5.197-13.46 7.418-20.302 0.579-1.738 0.933-3.551 1.021-5.288 0.617-8.26 2.399-16.304 4.443-24.256 1.954-7.467 3.154-15.015 3.866-22.656 0.353-4.13 1.377-8.222 2.266-12.265 1.246-5.692 1.954-11.334 2.532-17.059 0.983-10.125 0.579-20.302 0.44-30.43 0-1.133-0.043-2.267-0.043-3.425-0.089-3.425 0.491-6.711 1.999-9.822 1.246-2.443 1.821-5.113 1.555-7.858-0.44-5.288 0.265-10.578 0.806-15.859 0.139-1.423 0.617-2.846 1.107-4.219 0.756-2.356 1.422-4.709 1.6-7.241 0.139-2.040 0.617-4.004 0.983-5.993 0.353-1.775 0.528-3.513-0.617-5.151-1.107-1.549-0.177-2.758 0.844-3.903z"></path>
    <path fill="#000000" d="M675.364 700.427c0.794-0.882 0.491-1.914 0.44-2.884-0.177-4.484 0-8.978 0.844-13.416 0.983-5.465 1.158-10.967-0.402-16.437-0.402-1.423-0.44-2.884-0.528-4.357-0.315-3.953-0.617-7.871-0.933-11.812-0.090-1.775-0.315-3.551-0.402-5.326-0.043-1.423-0.315-2.707-1.289-3.779-0.667-0.756-0.983-1.738-0.983-2.796 0.043-3.991-2.087-7.279-3.82-10.704-0.844-1.6-2.356-2.393-4.175-2.393-1.377 0-2.71 0.126-4.042 0.253-1.422 0.090-2.622 0.756-3.599 1.738-1.643 1.825-3.376 3.602-5.066 5.465-2.577 2.846-3.909 6.221-4.31 10.037-0.139 1.133-0.090 2.267-0.227 3.374-0.353 2.581-0.617 5.151-1.246 7.644-0.617 2.53-1.070 5.063-0.933 7.681 0.315 6.536 0.756 13.016 1.107 19.59 0.090 1.65 0.090 3.337 0.139 5.025 0.090 1.914 0.139 3.816 0.315 5.73 0.139 1.825 0.353 3.602 0.617 5.326 0.177 1.335 0.491 2.669 0.895 3.953 0.491 1.423 1.070 1.775 2.532 1.65 4.887-0.253 9.685-0.756 14.216-2.619 1.776-0.756 3.466-0.882 5.287-0.253 0.402 0.126 0.895 0.253 1.289 0.126 1.422-0.126 2.843-0.503 4.265-0.756zM601.922 753.887c-0.528 1.259-0.983 2.305-1.51 3.64-0.895-0.043-1.821 0.126-2.62-0.126-5.109-1.688-10.439-1.688-15.681-2.217-2.577-0.253-5.152-0.377-7.686-0.882-2.577-0.503-5.152-0.629-7.775-0.629-3.599 0.043-7.196 0.126-10.795-0.503-1.643-0.253-3.376-0.377-5.066-0.253-4.754 0.253-9.419-0.253-14.17-0.756-1.555-0.126-3.154-0.090-4.709 0.043-3.154 0.253-6.307 0.503-9.462 0.253-2.8-0.253-5.642-0.253-8.442-0.503-1.466-0.043-2.932-0.126-4.398-0.253-2.087-0.126-4.265-0.253-6.397-0.503-0.617-0.091-1.289-0.253-2.044-0.377-0.756-2.179-0.528-4.269-0.353-6.397 0.315-2.884 0.667-5.818 0.983-8.752 0.617-5.818 1.289-11.635 1.911-17.459 0.139-0.756 0.227-1.549 0.265-2.356 0.265-8.928 0.579-17.815 0.844-26.699 0.177-4.534 0.265-9.067 0.617-13.505 0.315-4.534 0.315-9.067-0.139-13.55-0.44-3.816-0.491-7.644-0.44-11.46 0-4.446 0.090-8.839-0.756-13.194-0.44-2.217-0.983-4.395-1.377-6.624-1.070-5.591-0.933-11.283-0.315-16.836 0.794-6.749 0.983-13.505 0.895-20.257 0-0.882 0.177-1.738 0.227-2.796 1.070-0.043 1.954-0.253 2.798-0.253 8.040 0.253 15.992-0.629 23.989-0.882 4.088-0.126 8.085-0.882 11.861-2.581 3.333-1.461 6.885-2.090 10.572-2.090 1.643 0 3.333-0.253 5.019-0.377 6.752-0.503 13.504-0.882 20.257 0.253 1.733 0.253 3.554 0.043 5.33-0.043 1.689-0.126 3.376-0.377 5.066-0.629 2.133-0.126 4.265-0.253 6.397-0.503 0.44 0 1.021 0 1.289-0.253 1.689-1.688 3.953-1.461 6.043-1.738 2.177-0.253 4.486-0.253 6.752-0.126 6.53 0.253 13.106 0.126 19.59-0.629 3.599-0.503 7.196-0.126 10.795 0.253 6.13 0.756 12.262 1.549 18.437 2.305 1.466 0.253 2.932 0.253 4.398 0.253 7.997 0.377 15.992 0.756 23.989 1.259 7.153 0.377 14.171-0.043 21.19-1.461 3.198-0.756 6.487-0.629 9.951-0.253-0.043 0.629-0.043 1.259-0.139 1.726-0.705 3.198-0.617 6.486-0.44 9.734 0.091 1.335 0.705 2.619 1.158 3.866 0.895 2.356 1.332 4.797 1.51 7.241 0.227 4.004 0.402 7.909 0.895 11.812 0.528 4.534 0.491 9.016 0.44 13.504-0.090 9.949-0.227 19.901-0.265 29.807-0.091 14.794-0.091 29.543-0.227 44.336-0.043 7.241 0.491 14.438 2.133 21.501 1.070 4.659 1.466 9.37 1.643 14.083 0.091 1.775-0.139 3.602-0.44 5.376-0.491 2.884-2.309 4.848-5.019 5.869-1.158 0.503-2.399 0.756-3.599 0.882-1.866 0.253-3.509 0.756-4.976 1.951-1.332 1.133-2.843 1.825-4.486 2.305-1.158 0.377-2.309 0.756-3.466 1.335-2.577 1.133-5.197 1.335-7.907 0.882-2.044-0.253-4.042-0.503-6.086-0.503-2.888 0.043-5.598-0.629-8.173-1.775-5.598-2.619-11.596-3.64-17.681-4.269-2.489-0.253-4.931-0.126-7.374 0.503-3.953 1.008-7.997 1.259-12.084 1.133-1.246 0-2.489-0.043-3.73-0.090-5.509-0.126-11.062-0.126-16.526 0.756-3.288 0.503-6.53 0.253-9.729-0.629-2.976-0.756-5.953-1.133-9.062-0.882-0.528 0.043-1.107 0.126-1.689 0.253z"></path>
    <path fill="#000000" d="M272.179 673.185c0.667 2.179 1.378 3.991 0.895 5.956-0.844 3.324-0.579 6.711-0.353 10.087 0.177 3.023 0.265 6.132 0.44 9.155 0.043 1.688 0.043 3.337-0.528 4.974-0.353 1.259-0.491 2.493 0.353 3.602 1.107 1.423 1.158 3.111 1.246 4.797 0.089 2.267 0.177 4.534 0.44 6.749 0.579 4.446 1.999 5.376 6.397 4.307 2.399-0.629 4.797-1.259 7.329-1.008 1.733 0.091 2.31-0.756 2.087-2.581-0.139-1.461-0.227-2.934-0.265-4.395-0.139-5.414-0.227-10.843-0.353-16.215-0.139-5.993-0.44-11.951 0.139-17.903 0.177-1.688 0.139-3.425 0.177-5.063 0-0.629-0.177-1.284-0.265-2.040-5.287-1.461-10.662-0.629-15.903-1.008-0.44 0-1.021 0.377-1.821 0.629zM290.144 593.313c-0.667-0.253-0.983-0.503-1.289-0.629-5.019-0.882-10.128-0.503-15.193-0.629-1.021-0.043-1.6 0.882-1.107 1.951 0.806 1.6 0.844 3.248 0.44 4.936-0.705 3.374-0.491 6.711-0.315 10.125 0.177 3.148 0.315 6.258 0.491 9.47 0.043 1.775 0.043 3.551-0.528 5.326-0.353 1.259-0.491 2.493 0.353 3.602 1.021 1.423 1.158 3.111 1.246 4.848 0.089 2.356 0.089 4.709 0.44 7.065 0.705 4.659 1.555 5.503 6.219 4.571 2.666-0.503 5.199-1.474 7.997-1.259 1.158 0.090 1.776-0.756 1.689-2.040-0.139-2.356-0.265-4.709-0.353-7.065-0.177-5.288-0.265-10.616-0.402-15.902-0.089-5.642-0.402-11.245 0.139-16.881 0.265-2.443 0.315-4.936 0.177-7.505zM335.593 569.349c-2.044 2.669-1.689 5.326-1.689 8.047 0.043 6.448 0.177 12.883 0 19.324-0.177 4.357-0.806 8.752-1.422 13.106-1.289 8.26-1.466 16.57-0.579 24.921 0.139 1.259 0.177 2.443 0.265 3.728 0.44 4.13 0.895 8.26 1.246 12.391 0.265 2.846 0.491 5.642 0.528 8.437 0.139 7.909 0.043 15.816 0.139 23.721 0.089 7.681-0.315 15.326-0.756 22.967-0.315 4.484-1.070 8.978-2.087 13.371-2.177 8.978-2.932 17.993-2.399 27.233 0.089 0.882 0.043 1.775 0 2.669 0 0.253-0.139 0.503-0.265 0.882-0.44 0.043-0.933 0.126-1.466 0.126-2.489-0.090-4.931 0.126-7.418 0.503-2.666 0.377-5.375 0.377-8.085 0.253-13.060-0.090-26.166-1.284-39.226-0.882-3.509 0.091-7.020 0.377-10.484 0.629-1.107 0.090-2.22 0.090-3.376 0.126-1.688 0.126-3.376 0.253-5.019 0.503-0.579 0.043-1.107 0.253-1.688 0.126-4.754-0.126-9.419 0.629-14.17 0.882-1.070 0.043-2.177 0.253-3.288 0.503-0.794 0.126-1.555 0.503-2.309 0.629-1.999 0.253-3.333-0.882-3.288-2.846 0.043-1.259 0.315-2.493 0.617-3.69 1.158-4.004 1.821-8.047 1.999-12.265 0.227-4.395 0.983-8.752 1.466-13.106 0.528-4.936 1.196-9.86 0.983-14.838-0.043-1.775 0.353-3.602 0.44-5.376 0.177-2.179 0.353-4.307 0.353-6.397 0.043-6.711-0.043-13.329-0.043-19.991 0-4.534 0.043-9.016 0.089-13.55 0.043-3.374-0.139-6.749-0.528-10.125-0.579-4.709-0.44-9.457-0.043-14.171 0.227-2.493 0.44-4.974 0.491-7.416 0.089-2.707-0.043-5.465 0.043-8.134 0.227-6.837-0.794-13.505-2.309-20.124-0.315-1.259-0.528-2.406-0.933-3.602-1.511-4.797-1.733-9.734-1.776-14.704 0-1.259 0.227-2.493 0.402-3.69 0.315-1.474 1.070-2.669 2.309-3.602 3.687-2.758 7.196-5.781 10.174-9.37 1.246-1.511 3.021-2.619 4.664-3.866 1.332-0.882 2.932-1.284 4.531-1.259 5.42 0.253 10.84 0.253 16.214 0.882 7.241 0.882 14.438 2.305 21.723 3.425 6.13 0.882 12.262 1.738 18.48 1.549 1.378 0 2.71 0.043 4.088 0 7.241-0.253 14.393 0.756 21.545 1.461 0.44 0.043 0.895 0.253 1.866 0.503z"></path>
    <path fill="#000000" d="M399.112 605.574c0.139 0.090 0.265 0.253 0.265 0.253 0.265-0.043 0.491-0.126 0.756-0.253zM437.096 674.564h0.089v-3.728c0-4.974 0.089-9.911-0.806-14.838-0.667-3.903-1.776-7.681-3.466-11.283-1.107-2.217-2.532-4.219-4.486-5.869-2.133-1.825-4.531-2.128-6.93-0.756-2.133 1.133-4.31 2.443-5.908 4.395s-3.154 3.816-4.576 5.869c-2.666 3.728-3.777 7.909-3.687 12.441 0.089 4.886 0 9.734-0.043 14.528-0.043 3.64-0.043 7.241 0.44 10.843 0.402 2.884 0.44 5.869 0.579 8.802 0.043 0.629 0.043 1.511-0.353 1.863-0.705 0.756-0.617 1.638-0.617 2.53 0.043 5.503 0.089 11.018 0.089 16.57 0 0.629 0 1.335 0.089 2.002 0.265 1.65 1.021 2.443 2.71 2.493 1.776 0.090 3.599-0.091 5.375-0.253 2.133-0.253 4.22-0.503 6.397-0.882 4.887-0.882 9.863-0.629 14.793-0.629 0.265 0 0.491 0.043 0.705 0.043 1.733-0.043 2.22-0.756 1.776-2.305-0.227-0.629-0.579-1.259-0.667-1.951-0.265-2.972-0.579-6.044-0.756-9.067-0.139-2.581 0-5.202 0-7.77-0.043-1.775-0.177-3.602-0.265-5.414-0.139-2.443-0.44-4.936-0.491-7.416-0.089-3.324 0-6.749 0-10.125zM474.494 752.358c-1.733 0.126-3.198 0.253-4.62 0.253-4.531-0.253-9.018 0.377-13.504 0.882-3.554 0.377-7.196 0.756-10.795 0.882-11.595 0.126-23.234 0.126-34.829 0.043-4.843-0.043-9.729-0.377-14.527-0.756-4.664-0.377-9.24-0.126-13.816 0.882-4.175 0.882-8.442 1.335-12.705 1.549-1.246 0.091-2.489 0.043-3.687-0.126-2.356-0.377-2.932-1.259-2.266-3.513 0.705-2.393 1.021-4.835 0.895-7.379-0.089-1.259-0.265-2.443-0.44-3.64-0.353-2.002-0.353-3.991 0.043-6.044 0.353-1.775 0.491-3.602 0.491-5.376 0.315-9.557 0.528-19.192 0.756-28.743 0.089-3.198 0.177-6.347 0.177-9.457v-62.637c0-2.267-0.089-4.484-0.177-6.749-0.177-2.796-0.177-5.642 0.402-8.437 0.844-4.357 3.154-6.397 7.241-6.711 0.806-0.043 1.6-0.126 2.356-0.126 3.288 0.043 6.575-0.253 9.729-1.008 3.021-0.756 6.043-0.882 9.062-0.756 1.246 0.043 2.443 0.091 3.643-0.503 1.332-0.629 2.932-0.503 4.265 0.126 1.021 0.503 1.954 0.377 2.976 0.253 2.798-0.253 5.553-0.629 8.396-0.756 5.953-0.377 11.906-0.629 17.903-0.882 1.466-0.043 2.932-0.090 4.398 0.091 3.599 0.503 7.196 0.503 10.75 0.043 2.399-0.253 4.754-0.253 7.108 0.126 3.021 0.503 6.043 0.756 9.107 0.503 1.107-0.090 2.266-0.043 3.333 0.126 2.356 0.503 4.62 1.008 7.063 0.629 1.158-0.126 2.177 0.503 2.577 1.738 0.177 0.503 0.353 1.008 0.402 1.638 0.315 3.023 0.705 6.044 0.844 9.104 0.177 6.926 0.177 13.948 0.227 20.968 0 0.882-0.091 1.775-0.177 2.669-0.043 1.008-0.315 2.040-1.158 2.707-1.021 0.756-1.289 1.775-1.246 3.023 0.227 4.004 0.353 8.047 1.332 12.039 1.51 5.993 2.22 12.216 2.177 18.391 0 4.886 0.043 9.734 0.139 14.616 0.227 7.204-0.402 14.393-1.51 21.502-0.491 2.796-0.667 5.642-1.021 8.399-0.265 2.619-0.491 5.202-0.895 7.77-0.579 4.269-0.579 8.526-0.402 12.838 0.139 2.443 0.177 4.936 0.265 7.416 0 0.629-0.139 1.335-0.265 2.393z"></path>
    <path fill="#000000" d="M799.964 638.74c-1.107-3.513-1.070-3.513-0.667-7.014 0.177-1.461 0.265-2.934 0.227-4.395-0.090-3.816-0.265-7.644-0.491-11.46-0.139-2.581-0.402-5.202 0.491-7.681 0.44-1.133 0.353-2.305-0.353-3.236-1.107-1.335-1.107-2.884-1.196-4.446-0.090-2.619-0.265-5.239-0.667-7.77-0.491-3.061-1.246-4.571-5.287-3.816-0.315 0.091-0.667 0.091-0.983 0.126-2.489 0.756-5.019 1.335-7.641 1.133-1.246-0.090-1.776 0.629-1.733 1.951 0 1.6 0.139 3.148 0.177 4.747 0.139 4.395 0.265 8.802 0.353 13.193 0.177 7.77 0.528 15.548-0.227 23.324-0.139 1.549-0.353 3.148 0.177 4.886 5.152 1.6 10.484 0.629 15.727 0.882 0.617 0.043 1.246-0.253 2.087-0.503zM781.832 669.58c0 1.65-0.043 3.248 0 4.797 0.139 5.515 0.353 11.069 0.402 16.527 0.139 7.644 0.491 15.326-0.265 22.966-0.139 1.549-0.353 3.111 0.091 4.747 1.289 0.629 2.62 0.882 3.953 0.882 4.175 0.126 8.352 0.126 12.483 0.126 0.44 0 0.933-0.503 1.377-0.756-0.091-0.503-0.091-0.882-0.227-1.133-0.794-1.6-0.895-3.148-0.528-4.886 0.353-1.863 0.402-3.866 0.402-5.73-0.091-4.042-0.315-8.134-0.528-12.178-0.139-2.493-0.265-4.936 0.528-7.329 0.44-1.284 0.353-2.48-0.44-3.551-0.895-1.133-1.021-2.406-1.107-3.816-0.090-2.796-0.353-5.591-0.617-8.437-0.043-0.756-0.315-1.511-0.579-2.217-0.667-1.775-1.466-2.267-3.333-2.128-0.806 0-1.6 0.126-2.309 0.377-2.443 0.629-4.797 1.335-7.329 1.008-0.617-0.043-1.246 0.377-1.954 0.629zM749.020 752.777c-0.090-1.335-0.177-2.356-0.177-3.337-0.090-19.413-0.139-38.825-0.227-58.24 0-5.063 0.227-10.125 0.705-15.193 0.265-2.581 0.402-5.202 0.402-7.77-0.043-4.446 0.528-8.802 1.158-13.151 1.070-7.153 1.823-14.259 2.356-21.501 0.177-2.707 0.491-5.376 0.705-8.084 0.265-4.269 0.353-8.526 0.705-12.838 1.246-15.638 0.528-31.364 0.705-47.001 0-1.738-0.227-3.463 0.090-5.063 0.315-1.511 1.196-2.884 1.911-4.395 1.107 0.126 2.22 0.377 3.288 0.503 5.152 0.503 10.351 1.008 15.505-0.090 0.895-0.126 1.776-0.253 2.666-0.253 2.399 0.090 4.754 0.126 7.063-0.503 1.246-0.377 2.443-0.043 3.554 0.629 1.954 1.259 3.953 2.217 5.82 3.425 1.158 0.756 2.133 1.688 3.11 2.669 1.246 1.284 2.62 2.393 4.353 3.111 0.794 0.377 1.643 0.756 2.309 1.335 2.044 1.688 4.353 2.796 6.842 3.64 2.932 1.008 5.509 2.53 7.862 4.484 1.289 1.008 2.753 1.951 4.265 2.707 4.042 2.002 5.598 3.374 3.999 8.978-1.196 4.269-1.51 8.614-1.332 13.018 0.043 2.267 0.402 4.534 0.617 6.749 0.177 2.128 0.491 4.269 0.528 6.397 0.177 6.661 0.090 13.282-0.491 19.947-0.315 3.903-0.265 7.909-0.491 11.862-0.139 3.023-0.177 6.082-0.528 9.104-0.705 6.536 0 13.061 0.491 19.59 0.139 2.217 0.491 4.484 0.933 6.711 0.794 4.446 0.933 8.928 0.933 13.462-0.091 12.391-0.177 24.833-0.227 37.227 0 0.756 0 1.6 0.139 2.356 0.705 3.779 1.51 7.555 2.177 11.283 0.265 1.259 0.315 2.443 0.315 3.69 0 1.133-0.617 1.688-1.689 1.688-0.895 0.043-1.776 0-2.71-0.126-4.843-1.133-9.64-0.629-14.349 0.629-2.176 0.629-4.31 1.284-6.441 2.040-4.443 1.638-8.974 2.179-13.638 1.008-3.288-0.756-6.663-0.882-10.039-0.882-1.954 0.043-3.866 0.126-5.775 0.091-2.266-0.126-4.486-0.253-6.709-0.629-3.866-0.503-7.641-0.503-11.416 0.503-2.177 0.503-4.398 1.008-6.709 0.756-0.756-0.090-1.51-0.253-2.577-0.503z"></path>
    <path fill="#000000" d="M474.278 571.539c-1.196-0.253-2.266-0.503-3.333-0.882-2.309-0.882-4.62-0.882-6.975-0.377-1.107 0.253-2.22 0.377-3.333 0.629-1.6 0.253-3.154 0.503-4.664 0.882-2.044 0.629-4.132 0.882-6.307 0.882-2.932 0-5.82 0.377-8.752 0.503-1.555 0.091-3.198 0.126-4.754 0.253-5.019 0.377-10.128 0.882-15.193 1.133-3.333 0.253-6.752 0.377-10.128 0.377-11.506 0-23.012-0.043-34.518 0-1.911 0-3.866 0.090-5.731 0.126-0.705 0-1.378 0-2.044-0.091-0.315-0.043-0.617-0.253-1.021-0.503-0.579-1.461-0.491-3.023-0.491-4.571 0.089-6.221 0.139-12.391 0.265-18.612 0.043-2.934 0.139-5.869 0.265-8.802 0.089-1.738 0.043-3.374-0.491-4.974-2.133-0.629-4.132-1.284-6.176-1.738-1.332-0.253-2.71-0.503-3.999-0.503-4.887 0.253-9.729 0.503-14.571 0.882-4.754 0.503-9.462 0.253-14.127-0.629-0.528-0.126-1.107-0.253-1.688-0.253-2.888-0.253-5.82-0.503-8.708-0.756-1.070-0.090-2.087-0.629-3.243-0.882 0-1.775 1.289-2.758 1.689-4.13 0.44-1.549 1.689-2.217 2.932-3.023 1.332-0.882 2.532-1.914 3.643-2.972 9.018-8.715 17.993-17.459 26.965-26.167 4.042-3.866 7.464-8.172 10.707-12.705 2.177-2.972 4.31-6.044 6.663-9.332 0.528-0.090 1.422-0.253 2.31-0.253 1.107-0.043 2.22 0.043 3.333 0.043 8.263 0.043 16.526-0.088 24.745 0.629 8.307 0.756 16.658 0.090 25.010-0.126 4.042-0.126 8.13-0.126 12.216-0.126 5.642 0.090 11.238 0.253 16.88 0.377 2.177 0.043 4.265-0.126 6.352-0.756 4.976-1.549 9.996-1.65 15.061-0.503 0.983 0.253 1.954 0.503 2.932 0.882 1.021 0.377 1.999 1.008 3.11 1.335 1.021 0.253 2.177 0.377 3.243 0.629 0.933 1.284 0.579 2.669 0.528 4.004-0.315 4.797-0.705 9.683-1.070 14.481-0.402 5.414-0.528 10.793-1.6 16.171-0.705 3.69-0.617 7.379-0.528 11.144 0.139 2.443 0.139 4.936-0.667 7.329-0.491 1.373-0.44 2.884-0.617 4.357-0.402 3.111-0.756 6.221-1.289 9.37-0.402 2.669-0.794 5.326-0.895 8.047-0.043 2.619-0.353 5.202-0.491 7.732-0.090 1.6-0.090 3.198-0.090 4.76 0.043 2.179-0.177 4.269-1.378 6.661z"></path>
    <path fill="#000000" d="M542.047 442.937c-0.491-0.090-0.806-0.126-1.158-0.126-3.909-0.253-7.862 0.629-11.772-0.629-1.246-0.377-2.489 0.629-2.62 2.090-0.090 1.423 0 2.934 0.139 4.357 0.091 1.008 0.353 2.002 0.44 2.972 0.895 11.862 1.643 23.678 1.51 35.539-0.139 7.681 0 15.326 0 23.055 0.227-0.043 0.617 0 0.895-0.126 1.866-1.511 4.042-1.688 6.352-1.688 2.71 0.043 5.375-0.503 7.775-1.461 0.756-1.133 0.617-2.267 0.617-3.425 0-14.438 0.043-28.877-0.043-43.314-0.043-4.13-0.402-8.349-0.705-12.529-0.091-1.549-0.44-3.111-1.422-4.659zM580.036 443.081c-1.246-0.377-2.087-0.629-2.976-0.756-0.895-0.126-1.776-0.253-2.666-0.253-3.42-0.090-6.798-0.253-10.174-0.253-1.6-0.043-2.399 0.882-1.776 2.393 0.983 2.406 0.794 4.848 0.491 7.292-0.353 2.934-0.528 5.818-0.402 8.802 0.227 5.503 0.402 11.056 0.579 16.525 0.139 2.393 0.043 4.747-0.528 7.103-0.402 1.511-0.402 3.111 0.402 4.571 1.070 1.825 1.196 3.816 1.246 5.869 0.139 3.64 0.353 7.241 0.617 10.793 0.090 1.133 0.402 2.217 0.756 3.286 0.579 1.688 1.6 2.305 3.376 2.002 1.021-0.126 1.999-0.377 2.932-0.756 1.998-0.756 4.042-1.284 6.264-1.133 1.776 0.126 2.443-0.756 2.399-2.443-0.043-1.461-0.315-2.934-0.315-4.395 0-18.659-1.107-37.405-0.043-56.107 0.043-0.756-0.139-1.549-0.177-2.493zM605.399 422.915c-0.090 2.796-0.265 5.503-1.289 8.035-1.466 3.602-1.866 7.416-1.776 11.283 0.090 3.023 0.139 6.082-0.043 9.104-0.177 2.707-0.617 5.376-0.895 8.047-0.227 2.040-0.491 4.042-0.528 6.082-0.043 4.76-0.177 9.507 0.090 14.216 0.227 3.69 0.705 7.379 1.555 11.018 1.378 6.448 1.999 12.883 1.776 19.502-0.139 4.042 0.315 8.084 0.528 12.127 0.139 2.934 0.315 5.869 0.579 8.802 0.667 8.172 1.422 16.393 1.246 24.657-0.043 1.133-0.139 2.217-0.177 3.463-0.895 0.091-1.643 0.253-2.443 0.253-3.909 0.043-7.907 0.126-11.817 0-7.596-0.253-15.104 0.253-22.612 1.423-9.419 1.284-18.835 1.863-28.297 2.443-6.441 0.377-12.838 0.503-19.236 0.377-6.355-0.090-12.62 0.253-19.15 0.377-0.139-0.377-0.353-1.008-0.402-1.65-0.043-11.723-0.139-23.455-0.090-35.184 0-2.128 0.315-4.269 0.528-6.397 0.139-1.688 0.402-3.374 0.353-5.063-0.265-5.326 0.315-10.578 1.555-15.771 0.844-3.513 1.107-7.103 0.983-10.755-0.353-6.888 0.043-13.727 0.756-20.614 0.227-2.217 0.227-4.484 0.227-6.749-0.043-9.683-0.139-19.368-0.227-29.098-0.043-1.461-0.315-2.934-0.315-4.395 0-2.53 1.158-3.64 3.687-3.866 6.264-0.503 12.573-0.882 18.881-1.373 2.489-0.126 4.931-0.253 7.464-0.126 3.154 0.045 6.264-0.126 9.374-0.882 3.065-0.756 6.219-1.008 9.374-0.882 5.553 0.126 11.062 0.253 16.57-0.503 1.332-0.126 2.71-0.090 4.042-0.126 5.865-0.088 11.728-0.126 17.636-0.253 1.999 0 4.042 0.088 6.086 0.088 2.22-0.043 4.175 0.629 5.998 2.493z"></path>
    <path fill="#000000" d="M637.302 434.096c7.108 0 13.772-0.126 20.391 0.090 3.466 0.090 6.975 0.756 10.396 1.423 4.443 0.882 8.886 1.335 13.416 1.688 3.953 0.377 7.819 0.882 11.596 2.179 3.243 1.008 6.619 1.284 9.995 1.133 5.42-0.253 10.84-0.503 16.214-0.629 5.42 0 10.84-0.253 16.214-0.882 3.288-0.503 6.53 0.126 9.773 0.629 0.265 0.090 0.579 0.253 1.070 0.503 0.667 4.797 2.975 9.104 5.019 13.46 1.466 3.023 2.8 6.17 3.866 9.332 1.6 4.974 4.175 9.243 8.13 12.661 1.776 1.549 3.554 3.111 5.242 4.76 1.289 1.259 2.577 2.581 3.599 3.991 5.598 7.82 11.017 15.728 17.325 22.967 2.489 2.846 4.132 6.17 5.775 9.557 1.196 2.53 2.577 4.936 3.82 7.505 0.844 1.688 1.555 3.463 2.266 5.239 0.579 1.511 1.196 2.846 2.443 4.004 1.289 1.259 2.399 2.619 2.932 4.621-0.528 0.126-1.021 0.503-1.51 0.503-2.753 0.377-5.42-0.253-8.040-0.756-3.687-0.882-7.374-1.259-11.062-1.259-3.866-0.126-7.686-0.253-11.506-0.629-3.243-0.253-6.487-0.882-9.773-0.882-1.332-0.043-2.62-0.503-3.953-0.756-4.175-1.133-8.396-1.688-12.705-1.65-3.82 0.091-7.641-0.043-11.506 0.043-3.777 0.090-6.798-1.373-9.24-4.13-0.794-0.882-1.555-1.951-2.356-2.884-2.356-2.934-4.62-5.869-7.020-8.702-2.489-2.972-5.242-5.503-8.396-7.77-3.198-2.305-6.086-5.063-8.974-7.732-1.196-1.133-2.087-2.669-3.021-4.092-2.71-3.816-5.375-7.77-8.173-11.597-0.895-1.284-1.954-2.48-3.11-3.513-1.466-1.284-2.843-2.581-3.643-4.446-0.933-0.088-1.821-0.126-2.71-0.126-5.109 0.045-10.174 0.126-15.237 0.253-4.976 0.088-9.906-0.043-14.882-0.629-3.288-0.377-6.752-0.253-10.085-0.253-4.132 0-5.019-0.756-5.019-4.886-0.043-2.934 0-5.869 0-8.802 0.043-1.008 0.177-2.002 0.353-3.023 1.070-5.326 1.689-10.666 1.466-16.125-0.090-2.217 0-4.534 0.139-6.749 0.043-1.133 0.315-2.179 0.491-3.551z"></path>
    <path fill="#000000" d="M149.846 751.723c0.043-5.503-1.6-10.967-1.107-16.703 0.402-4.219 0.315-8.526 0.089-12.839-0.227-4.181 0.089-8.311 0.579-12.479 0.227-1.65 0.265-3.337 0.402-5.063 0.177-2.002 0.402-4.042 0.579-6.044 0.089-1.562 0.227-3.161 0.227-4.76-0.043-6.837 0.043-13.727-0.177-20.614-0.139-5.414-0.667-10.793-1.021-16.214-0.227-3.148-0.528-6.309-0.756-9.457-0.44-7.191-0.895-14.439-1.289-21.591-0.139-2.267-0.177-4.534-0.139-6.799 0-1.284 0.844-1.951 1.999-1.549 3.243 1.259 6.397 0.756 9.64-0.043 5.066-1.259 10.218-1.825 15.415-1.65 7.020 0.253 13.949-0.629 20.968-0.882 1.246-0.090 1.555-1.133 2.487-1.638 1.246 0.377 2.489 0.882 3.777 1.259 1.776 0.503 2.532 1.738 2.577 3.513 0 1.008 0 2.040 0 3.061-0.265 13.861-0.579 27.72-0.844 41.625-0.043 4.395-0.043 8.802 0 13.194 0.043 2.972 0.089 5.869-0.44 8.802-0.315 1.638-0.353 3.337-0.44 5.063-0.315 9.772-0.667 19.59-0.895 29.408-0.089 4.747-0.139 9.457-0.667 14.216-0.402 4.219-0.139 8.576-0.177 12.839 0 0.253 0 0.629 0.043 1.008 0.528 3.198-1.246 5.063-3.687 6.574-1.196 0.756-2.399 1.008-3.866 0.629-3.021-0.756-6.043-0.629-9.062-0.043-2.71 0.503-5.375 0.629-8.042-0.046-0.895-0.253-1.821-0.377-2.71-0.253-3.953 0.043-7.862-0.253-11.817-0.629-1.866-0.253-3.82-0.091-5.731-0.126-2.489 0-3.466-0.253-5.908-1.738z"></path>
    <path fill="#000000" d="M908.603 754.002c-0.617 0.126-0.844 0.253-1.070 0.253-9.773 0-19.59 1.133-29.409 0.756-3.154-0.126-6.307-0.043-9.462 0-1.51 0-2.888-0.126-4.265-0.756-1.021-0.503-2.133-0.756-3.243-0.882-1.158-0.253-1.866-0.882-2.044-1.914-0.353-1.461-0.667-2.934-0.667-4.357-0.090-4.395-0.090-8.802 0.043-13.193 0.090-3.953 0.491-7.858 0.617-11.812 0.177-4.395 0.353-8.802 0.265-13.194-0.090-5.781 0.043-11.511 0.667-17.281 0.227-1.638 0.227-3.337 0.227-5.063 0-10.793-0.043-21.635 0-32.474 0.043-3.866 0.265-7.681 0.528-11.511 0.402-6.309 0.265-12.616-0.139-18.925-0.177-3.148-0.177-6.309-0.402-9.457-0.091-1.549 0.402-2.846 1.643-4.092 0.667 0.090 1.466 0.043 2.133 0.253 3.11 1.259 6.352 1.549 9.64 1.259 1.823-0.126 3.643-0.253 5.242 0.882 2.577-0.126 3.554 1.461 4.62 3.513 1.821 3.425 3.866 6.661 6.487 9.507 1.021 1.259 1.954 2.493 2.798 3.779 2.888 4.219 5.998 8.172 9.329 12.039 3.333 3.866 6.441 7.858 9.685 11.774 1.289 1.511 1.911 3.286 1.954 5.288 0 6.448 0.177 12.839 0.139 19.28-0.090 3.513-0.528 6.976-0.933 10.439-0.491 4.848-0.528 9.734-0.315 14.528 0.402 6.799 0 13.55-0.705 20.302-0.528 4.797-1.021 9.633-0.756 14.482 0.177 4.13-0.177 8.121-1.466 12.039-0.528 1.461-0.756 3.061-1.158 4.621z"></path>
    <path fill="#000000" d="M665.937 495.645c0.491 0.882 0.933 1.738 1.377 2.443 0.491 0.756 0.983 1.511 1.555 2.217 1.289 1.549 2.62 3.061 3.909 4.621 3.11 3.728 6.176 7.505 9.329 11.195 1.776 2.040 3.643 3.991 5.509 5.956 4.931 5.151 9.419 10.666 13.193 16.703 1.866 3.061 4.132 5.642 7.196 7.505 3.599 2.217 5.953 5.414 7.418 9.37 0.44 1.284 0.933 2.493 1.555 4.092-0.794 0-1.332 0.090-1.776 0.043-2.044-0.126-4.042-0.503-6.086-0.503-2.266-0.091-4.486-0.043-6.752 0.043-7.907 0.253-15.77-0.503-23.589-1.65-3.021-0.503-6.086-0.756-9.107-0.882-7.329-0.126-14.66-0.126-21.989 0.629-1.911 0.253-3.82 0.126-5.731 0.126-3.288 0.043-6.487 0.503-9.64 1.461-4.132 1.133-8.352 1.951-12.438 3.111-0.353 0.090-0.667 0.126-1.021 0.126-0.579 0.043-1.107-0.629-0.933-1.133 0.265-0.756 0.579-1.474 0.933-2.179 2.71-5.326 5.42-10.666 8.796-15.593 1.332-1.914 2.133-4.181 3.065-6.347 0.617-1.335 0.983-2.758 1.422-4.219 1.070-3.64 3.021-6.749 5.731-9.37 1.158-1.133 2.309-2.128 3.509-3.198 5.152-4.747 10.396-9.42 15.548-14.128 2.399-2.267 4.353-4.886 5.82-7.82 0.667-1.259 1.332-2.393 3.198-2.758z"></path>
    </svg>