<svg xmlns="http://www.w3.org/2000/svg" viewBox="49.039 -16.092 952.433 1037.277">
    <path fill="#000000" d="M853.102 267.286c-1.712 3.471-4.503 5.181-6.168 0.511-0.587-1.672-0.995-3.599-1.8-5.131-0.855-1.71-2.25-2.209-3.467-3.599-1.98-2.438-3.512-6.572-3.647-9.458-0.229-3.599 1.847-5.768 0.855-9.367-0.804-3.063-2.611-5.985-3.152-9.458h3.377c-0.625 2.297 2.161 3.28 3.467 4.594 2.072 1.977 3.782 4.453 5.177 6.982 1.264 2.247 2.207 4.862 3.287 7.199 1.033 2.030 2.476 4.186 2.972 6.305 0.677 3.063 0.408 8.73-0.907 11.435zM796.186 264.057c-1.757-0.511 0.677 2.884-0.408 4.148-1.264 1.391-5.853-0.128-6.979-0.637-2.296-1.020-3.827-1.277-6.258-1.71-2.791-0.637-5.853-1.889-8.824-3.012-2.523-0.894-5.177-1.761-7.384-3.471-2.476-1.977-4.548-4.096-7.429-5.768-2.611-1.569-4.907-2.705-7.384-4.594-2.387-1.851-4.907-3.471-7.383-5.093-1.485-0.894-5.042-1.851-3.872-4.045 0.995-1.569 4.591-1.889 6.123-2.118 5.134-0.894 10.085-2.655 15.308-3.383 2.072-0.255 3.737-1.149 5.807-1.277 1.033 0 2.341 0.383 3.422 0.090 0.907-0.255 1.212-1.020 2.161-1.277 0.995-0.255 2.431 0.090 3.512 0.090 2.701 0 4.096-0.128 5.943 1.977 1.395 1.531 2.838 3.383 4.007 5.131 1.264 1.977 1.212 4.007 1.665 6.254 0.267 1.621 1.442 4.007 1.98 5.896 1.085 3.383 2.431 10.223 5.988 12.786 0.499 0.089 1.085 0.383 2.026 0.894-0.715-0.090-1.396-0.383-2.026-0.894zM701.726 260.446c-4.096 4.773-9.275 6.751-15.082 8.831-6.033 2.068-12.426 6.254-19.045 4.506-2.523-0.637-4.503-1.621-4.818-4.186-0.358-2.705 0.625-5.272 1.123-7.748 0.677-3.191 2.476-6.483 3.737-9.405 1.395-3.471 2.387-7.070 4.276-10.223 1.621-2.743 3.332-3.919 5.672-5.68 2.296-1.71 4.411-3.101 7.069-4.186 1.892-0.766 2.881-1.851 4.503-2.974 3.961-2.655 8.824 1.391 11.525 4.275 7.383 7.785 8.060 18.595 1.033 26.787zM657.194 230.28c-0.499 1.761-0.179 2.796-1.174 4.544-0.358 0.637-1.621 2.297-1.98 2.796-1.033 1.494-2.611 2.617-3.692 4.096-1.757 2.526-2.072 4.506-4.591 7.070-2.836 2.796-5.357 5.667-8.644 7.964-4.638 3.242-8.24 7.287-13.462 9.367-2.926 1.020-5.357 1.391-8.419-0.255-2.611-1.391-2.566-3.191-2.476-5.947 0-2.705-0.499-5.806-0.091-8.551 0.446-2.796 1.935-5.309 2.296-8.156 0.855-6.254 5.042-13.282 8.555-18.459 3.287-4.773 8.51-9.279 14.273-10.72 2.341-0.511 4.907-0.128 7.384-0.128 2.476-0.047 3.512 0.766 5.672 1.149 2.476 0.511 5.177-0.255 7.159 1.761 0.816 0.766 1.892 2.655 2.296 4.275 0.229 0.766 0.358 1.391 0.32 1.851-0.32 2.655-2.746 4.862-3.422 7.428zM920.128 305.103c-1.085-5.985-1.264-12.967-3.872-18.639-1.485-3.37-3.287-6.891-4.096-10.402-0.499-2.209-0.179-3.509-1.306-5.577-0.855-1.799-2.072-3.42-2.791-5.309-3.242-8.156-10.671-14.632-16.884-20.846-5.042-5.219-10.626-9.763-16.704-13.821-0.090-0.128-0.267-0.255-0.499-0.383 0.499 1.977-1.033 2.209-2.387 1.851-3.061-0.766-4.907-3.191-6.213-5.718-1.98-3.866-3.467-7.836-6.033-11.294-4.458-5.985-8.555-12.201-14.497-16.839-5.177-3.957-9.95-7.874-15.939-10.529-5.357-2.297-10.759-4.594-16.074-6.751-7.88-3.012-15.758-6.483-23.772-8.551-2.656-0.637-5.583-0.637-8.51-0.511-1.485 0-3.061 0.128-4.458-0.128-0.995-0.255-2.387-2.387-2.881-0.128 0.267-0.894 6.213 3.561 6.573 3.866 2.656 2.118 5.583 2.974 8.644 4.327 4.548 1.977 7.653 4.914 9.905 9.279 1.033 1.94 1.98 3.957 3.332 5.806 0.995 1.391 5.492 5.002 4.368 7.070-0.804 1.531-5.402 0.637-6.753 0.637-3.737 0.255-7.564 0.766-11.346 1.020-7.338 0.511-14.228-0.894-21.522-1.020-6.033-0.255-12.201-0.089-18.28 0-6.393 0.047-14.543-1.020-20.485-3.383-2.611-1.020-4.683-1.977-7.474-2.297-3.152-0.383-5.583-1.977-8.644-2.655-3.782-0.766-7.564-0.255-11.255-1.020-2.25-0.511-3.692-0.894-5.943-0.894-6.080-0.255-11.886 0.090-17.919 1.391-4.683 0.894-9.95 2.884-14.723 3.153-4.683 0.255-11.752-1.71-16.119 0.255-1.485 0.766-2.431 1.889-4.188 2.247-2.791 0.637-6.258 0.045-9.049-0.255-7.159-0.894-14.587-2.655-21.385-4.773-2.387-0.637-4.952-1.889-7.338-2.068-2.341-0.255-4.591-0.089-6.799-0.637-4.276-0.894-3.287 7.874-6.934 9.775-4.188 2.209-12.741-1.149-15.668 3.471-0.536 0.766-0.091 2.209-0.091 3.101-0.090 1.977-0.499 3.866-1.174 5.859-2.791 8.78-3.467 18.008-5.357 27.059-0.995 4.275-2.027 8.372-3.196 12.559-0.995 3.829-1.621 7.748-2.926 11.435-0.358 0.894-0.945 1.302-1.033 2.335 2.746 1.277 6.348-2.834 9.049-0.766 0.267 3.561-3.422 5.093-4.591 7.874-0.715 1.481-0.32 3.33-1.123 4.862-0.536 1.020-1.264 1.889-1.935 2.796-1.757 2.565-2.701 5.539-4.411 8.156-2.207 3.42-5.537 5.272-8.24 8.156-2.656 2.705-6.753 14.318-1.395 15.624 2.881 0.637 6.033-0.766 8.824-1.020 3.782-0.383 7.653-0.090 11.482-0.090h22.557c4.276 0 7.61 0.637 11.886 1.277 3.061 0.511 4.548 0.255 4.548 3.28 0 3.471-3.061 6.126-3.602 9.458-0.804 4.914 0.141 11.027 0.141 16.027v11.972c-0.044 2.068 0.766 3.33 0.995 5.131 0.141 2.030-0.677 5.181-1.033 7.16-0.499 2.526-1.665 5.272-2.881 7.478-1.485 2.617-3.872 4.096-5.672 6.534-1.306 1.851-2.658 4.237-4.368 5.667-0.907 0.637-1.35 0.637-2.25 1.020-3.107 1.621-4.411 4.723-6.709 7.428-2.476 3.063-5.042 6.164-7.653 9.226-2.566 2.974-5.718 4.914-8.555 7.569-5.943 5.36-7.968 11.385-9.68 19.045-0.855 3.919-1.53 7.607-2.746 11.294-0.625 2.030-0.587 2.884 0.907 4.544 3.196 3.599 8.779 5.181 13.328 5.718 5.898 0.637 14.723 2.335 19.224 6.713 4.188 4.007 6.753 10.669 11.482 13.866 5.134 3.688 10.759 5.45 16.974 6.254 8.195 1.020 14.678-3.471 22.602-4.096 2.341-0.255 6.123-0.511 8.24 0.637 2.207 1.149 1.53 1.977 2.431 3.866 0.804 1.799 2.296 4.045 3.918 5.272 2.072 1.71 4.188 2.387 6.573 2.884 3.196 0.637 5.988 2.068 9.14 2.156 4.638 0.255 7.88-1.761 12.111-3.471 2.791-1.149 5.583-1.353 8.375-2.297 5.988-1.977 12.111-5.002 18.595-5.68 4.096-0.511 9.455-0.383 13.417 0.255 5.087 0.894 10.085 0.255 14.993 1.149 2.791 0.511 5.583 0.766 8.195 1.889 2.026 0.894 3.692 2.209 5.988 2.425 5.042 0.637 10.716-0.383 15.623-1.302 3.602-0.766 7.069-3.012 10.626-4.096 3.602-1.277 6.213-1.481 9.95-1.481 4.503 0 9.049 0.044 13.551 0 4.188-0.091 7.518 1.481 11.346 3.012 3.961 1.443 8.104 2.796 12.021 4.327 2.881 1.277 4.456 2.884 3.692 6.037-0.625 2.526-2.25 5.947-3.692 8.423-2.072 3.65-6.438 6.164-6.348 10.758 2.658-2.705 6.348-4.365 9.995-5.577 5.314-1.66 9.68-4.415 14.632-6.891 2.611-1.353 5.583-1.94 8.375-3.063 2.476-0.894 4.007-2.565 5.764-4.506 3.467-3.688 5.988-8.244 9.049-12.251 3.827-4.862 8.375-9.189 12.426-13.913 3.287-3.829 6.123-7.785 8.779-12.111 1.485-2.476 3.692-4.453 5.087-6.929 2.791-4.811 4.096-12.468 5.042-18.055 0.587-3.191 2.387-12.559-0.855-15.082-2.926 1.353-5.087 3.471-7.698 5.628-1.892 1.443-3.872 3.42-5.988 1.391-2.25-1.977-1.577-5.768-2.25-8.334-0.499-2.068-0.907-6.075-3.061-6.891-1.53-0.511-3.332 0.128-4.323 1.020-0.267 1.277-0.766 2.209-1.665 3.113-0.536 0.255-1.212 0.511-1.8 0.766-1.033 0.090-1.8 0.511-2.296 1.302-0.141 0.894-0.587 1.569-1.306 2.156-1.35 1.020-3.061 0.637-4.548 0.766-4.458 0.128-3.692-1.71-6.799-4.007-1.757-1.302-3.872-1.481-5.807-2.476-1.712-1.020-2.701-2.387-4.276-3.383-2.115 1.302-2.926 7.428-5.222 7.428-1.264 0.044-1.665-2.068-2.656-2.655-2.341-1.391-2.115 0.637-3.737 1.149-2.926 1.149-5.672-7.16-6.529-9.496-0.677-1.851-1.577-3.012-2.611-4.544-0.855-1.353-0.945-1.672-1.306-3.561-1.033 0.089-3.961 2.705-4.818 3.42-1.98 1.851-3.422 3.957-5.583 5.628-1.757 1.391-3.287 2.297-4.773 4.096-1.621 1.977-3.692 3.778-5.807 1.569-2.207-2.156-0.677-8.244-3.647-8.87-2.161-0.511-6.213 1.443-8.329 1.889-2.115 0.383-4.323 0.766-6.573 0.637-4.503-0.128-7.294-2.796-8.87-6.891-1.306-2.922-1.485-6.164-2.072-9.317-0.408-1.799-0.229-3.599-0.625-5.309-0.267-1.277-1.174-2.247-0.995-3.65-2.881 3.063-3.782 7.16-6.258 10.35-1.98 2.387-5.087 3.242-6.664 6.254-3.422-1.481-7.564-3.191-10.129-6.075-1.033-1.149-1.712-2.617-2.523-3.957-5.134-7.874-9.14 6.572-10.941 5.309-1.485-1.020-1.757-3.153-3.287-4.327-1.485-1.277-2.387-0.766-4.053-1.277-2.701-0.637-5.314-2.156-7.968-3.153-5.267-2.030-11.346-1.302-17.019-1.302-3.557 0.090-6.572-1.277-10.129-1.149-2.611 0-6.709 2.118-9.14 1.020-3.377-1.481-0.816-6.254 0.179-8.818 1.174-3.012 1.485-6.037 2.566-9.048 0.715-1.977 1.485-4.415 2.431-6.394 0.855-1.94 2.341-3.599 3.152-5.768 1.712-4.685 4.096-7.070 7.159-10.758 1.8-2.247 4.007-4.237 5.988-6.216 1.98-1.94 3.647-1.851 6.258-1.761 2.523 0 5.537-0.511 8.060-0.090 2.701 0.511 3.287 1.66 5.853 0.383 3.196-1.621 4.862-1.889 8.283-0.128 3.647 1.71 6.168 2.297 10.31 2.156 2.027-0.128 3.918-1.443 6.080-1.149 1.174 0.128 2.115 0.894 3.196 1.020 0.995 0.089 1.8 0 2.791-0.128 1.757-0.255 2.611-0.766 4.096 0.383 2.656 1.977 5.853 8.959 6.258 12.251 0-0.090 3.152-4.275 3.467-4.862 1.085-2.118 1.892-4.415 3.061-6.572 2.656-4.685 4.096-0.766 7.789-0.045 3.557 0.511 8.779-2.796 11.346-4.862 1.033-0.766 1.847-1.761 3.061-2.335 2.161-1.149 5.583-0.766 7.474 0.894 0.804 0.637 0.995 1.94 2.115 2.118 1.621 0.511 3.918-1.66 4.953-2.617 2.881-2.743 4.276-3.688 8.24-3.242 2.881 0.383 4.276 2.655 6.844 3.383 4.773 1.481 10.265-2.425 14.452-4.186 4.458-1.851 9.14-1.481 13.958-1.391 3.647 0.090 8.148 2.796 11.21 4.632 3.377 2.030 4.952 6.164 7.833 8.959 3.016 3.012 5.402 6.164 7.564 9.866 1.123 1.889 1.485 4.096 2.387 6.164 0.358 0.766 1.033 1.302 1.212 2.156 0.229 1.149-0.267 2.030 0.179 3.153 2.341-2.796 3.827-6.803 5.718-9.904 1.98-3.383 3.827-6.126 5.357-9.636 1.577-3.471 1.8-7.249 2.566-10.848 0.536-2.387 0.907-4.186 0.907-6.841 0-1.71-0.358-3.778 0.229-5.36 5.314 7.249 5.134 16.478 7.159 24.584 1.085 4.544 1.665 9.048 1.665 13.821 0.091 3.829-0.804 8.73 0.32 12.38 2.387-0.637 6.080-6.126 7.925-7.836 1.35-1.302 3.287-2.565 4.368-4.096 1.174-1.672 1.757-4.186 2.566-6.126 2.341-5.806 1.935-12.163 1.935-18.235 0-6.841 0.32-13.642-0.907-20.261z"></path>
    <path fill="#000000" d="M550.264 186.547c0.358 3.778 0.715 7.428 1.085 11.168 0.536 5.947-0.358 11.206 0.32 17.108 1.174 11.027-3.377 21.027-8.691 30.391-2.746 4.824-5.134 10.171-7.338 15.262-1.174 2.655-2.207 4.862-2.746 7.607-0.625 3.153-0.229 6.216-0.855 9.279-2.523 10.453-9.905 18.595-17.019 26.338-5.628 6.126-11.302 13.958-19.361 16.973-1.485 0.637-5.267 1.672-6.303 0.255-0.267-0.511-0.907-3.778-1.123-4.453-0.945-2.796-1.306-5.985-1.53-9.189-0.358-3.74 0.907-5.859 2.072-9.279 2.791-8.156 6.618-15.489 12.066-22.376 2.658-3.383 4.862-6.394 6.889-10.223 0.766-1.302 1.665-2.705 2.296-4.096 0.945-1.94 1.085-4.544 2.25-6.254 1.577-2.387 3.647-4.723 5.177-7.338 2.701-4.365 5.583-8.156 7.968-12.699 3.377-6.483 7.745-11.115 8.599-18.639 0.536-4.594-0.855-9.1-0.677-13.732 0.090-1.851 0.32-3.383 1.123-5.093 1.085-2.209 1.485-3.242 1.757-5.768 0.625-4.862 2.027-8.156 7.114-8.551 1.665-0.128 4.142-1.020 5.222 0.128 0.907 1.020 0.677 5.806 1.712 3.101z"></path>
    <path fill="#000000" d="M495.9 128.461c0.804 8.461 2.881 16.478 3.782 25.032 0.625 6.891-0.408 13.552-3.692 19.765-1.577 3.101-3.872 5.131-5.177 8.423-1.264 3.012-3.647 6.394-6.080 8.602-2.566 2.335-4.368 4.058-5.943 7.338-1.712 3.561-2.296 8.334-3.107 12.15-0.855 4.148-1.174 8.156-2.476 12.060-1.306 4.186-1.212 8.602-4.096 12.073-2.341 3.012-5.718 5.488-8.419 8.334-1.396 1.443-2.611 3.012-3.961 4.506-2.25 2.387-5.087 3.688-7.61 5.859-3.918 3.242-7.653 6.483-12.021 9.138-2.656 1.621-5.853 2.796-6.664 6.164-0.536 2.526 0.179 5.309 1.396 7.516 2.207 4.186 5.988 5.577 9.184 8.602 4.323 4.186 8.914 5.985 15.082 3.688 3.287-1.277 5.807-4.723 8.24-7.249 4.276-4.365 9.545-8.156 13.327-13.147 2.207-2.884 2.611-6.483 4.548-9.636 2.072-3.383 4.503-6.624 6.709-9.954 3.287-5.040 8.015-9.866 10.671-15.397 2.791-5.718 4.862-11.435 8.329-16.749 1.395-2.068 3.692-3.599 4.818-5.667 0.677-1.277 0.766-2.796 1.395-4.148 1.033-1.977 2.566-3.42 3.557-5.577 1.212-2.884 3.287-5.272 4.411-8.244 1.174-2.834 2.072-6.751 2.431-9.866 0.804-7.569-2.476-14.632-0.179-21.973 1.665-5.181 0.408-14.857-1.212-20.034-0.677-1.977-1.665-3.153-2.791-4.773-1.442-1.851-2.296-3.599-3.557-5.539-1.485-2.387-4.276-5.806-6.844-6.982-2.611-1.277-12.248-4.862-14.543-1.977-0.907 1.020 0.267 7.569 0.587 8.959 0.625 2.796 1.712 4.506-0.090-1.302z"></path>
    <path fill="#000000" d="M439.554 93.921c1.264 6.254 3.827 11.702 5.087 17.919 1.98 10.72 3.647 21.162 2.926 32.101-0.587 8.551-1.665 15.94-4.411 24.223-2.791 8.423-5.087 17.289-10.536 24.717-4.503 6.126-7.294 13.056-12.426 18.639-2.25 2.476-4.726 4.952-6.887 7.338-2.027 2.209-5.269 5.36-6.573 7.748-2.115 3.74-1.306 10.58-0.358 14.408 1.264 5.131 4.773 7.428 9.5 10.171 5.269 3.153 7.968 0.766 11.975-3.242 3.827-3.778 5.628-8.692 8.555-12.967 3.557-5.181 7.429-9.725 10.31-15.308 2.881-5.45 5.042-10.669 7.159-16.343 1.665-4.365 4.368-7.748 4.591-12.521 0.267-4.914 1.757-9.317 2.566-14.183 0.816-4.824 0.715-8.602 3.287-13.237 3.196-5.985 10.941-9.405 12.156-16.477 1.174-6.713-0.816-13.012-2.027-19.45-1.085-5.718-1.712-11.755-4.141-17.063-1.306-2.884-1.621-5.718-2.791-8.602-1.085-2.796-1.712-6.254-3.153-8.87-2.072-3.509-5.314-8.156-10.085-7.338-2.566 0.511-3.961 1.149-6.348 0.255-1.712-0.637-2.566-1.761-4.411-2.118-0.855-0.255-4.368-0.637-5.357-0.383-3.016 0.637-1.621 2.974-1.174 5.040 0.499 2.617 0.945 4.007 2.476 6.164 0.907 1.277 0.995 1.799 2.207 2.922 1.35 1.149 3.332 1.149-2.115-3.599z"></path>
    <path fill="#000000" d="M374.942 82.665c0.499 1.889 3.107 3.292 4.683 4.506 3.287 2.335 6.438 4.773 9.636 7.249 3.557 2.743 5.269 5.539 6.348 9.866 1.033 4.237 2.881 8.053 3.918 12.251 4.368 17.65 2.296 36.379-2.656 54.209-1.033 3.561-0.945 7.249-2.207 10.758-1.485 4.237-4.638 7.874-6.393 11.972-2.476 5.768-5.357 11.934-6.709 17.965-0.855 4.275-2.566 7.657-3.961 11.793-1.396 4.007-0.766 7.070 4.999 6.534 1.892-0.255 5.357-0.766 6.979-1.531 1.98-0.894 4.142-3.778 5.764-5.398 4.999-4.862 8.599-11.115 11.437-17.063 3.782-7.695 8.464-14.994 11.525-23.007 3.602-9.458 3.602-19.495 4.503-29.22 0.625-7.607 1.485-15.262 2.701-22.827 1.264-8.244-1.123-15.893-2.701-23.953-1.085-5.398-1.212-12.647-3.782-17.514-2.296-4.506-7.384-8.334-12.156-10.529-4.862-2.209-9.455-4.685-14.047-7.070-2.072-1.149-4.188-2.297-6.258-3.292-1.396-0.766-3.377-2.387-4.953-2.796-5.988-1.66-6.887 5.398-6.799 9.1 0 1.94 0.499 3.509 0.358 5.309-0.229 1.977-0.536 4.327 0.766 6.305 0.766-0.047 1.577-0.047 2.387 0 0.141 0.255 0.408 0.637-3.377-3.599z"></path>
    <path fill="#000000" d="M326.883 94.888c0.408 6.075 8.644 11.755 12.201 16.119 4.726 5.768 7.698 11.486 10.536 18.189 6.123 14.408 7.204 28.679 5.807 44.349-0.408 5.45 0.229 11.256 0.677 16.704 0.446 5.896-1.033 12.468-1.845 18.414-0.499 3.509-1.396 7.39-1.174 10.899 0.045 1.851 0.267 3.242 2.115 3.561 1.8 0.383 5.087-1.443 6.213-2.565 2.115-2.209 3.872-6.164 5.267-8.959 3.692-7.569 6.664-15.308 6.979-23.546 0.267-7.785 1.757-15.893 1.264-23.683-0.499-7.070-2.972-14.363-4.368-21.25-1.892-9.584-3.692-19.089-5.628-28.634-0.855-4.594-0.945-10.223-2.791-14.497-1.53-3.599-6.483-5.398-10.265-6.394-3.918-1.020-6.664-1.977-10.040-3.957-3.332-2.030-6.123-3.471-9.86-4.773-3.602-1.302-6.348 0.383-6.348 4.237 0.089 2.425 1.485 2.425 2.431 4.096 1.123 2.030 1.306 6.982-1.174 1.71z"></path>
    <path fill="#000000" d="M295.917 118.431c-0.229 3.383 5.763 4.506 7.968 6.342 2.836 2.335 4.683 5.272 6.529 8.282 1.53 2.655 3.242 3.292 5.492 5.36 7.564 7.16 10.175 19.812 12.067 29.31 0.907 4.544 2.521 9.405 2.072 14.048-0.408 4.096-0.358 8.282-0.587 12.251-0.358 6.662 1.174 14.048-0.945 20.441-0.587 1.94-1.264 4.327-3.467 5.36-2.207 0.894-8.24-0.383-10.356-1.020-8.555-2.796-5.449-19.27-5.672-25.078-0.267-9.954-1.757-19.497-3.918-29.222-1.033-4.773-3.961-9.546-7.202-13.462-1.174-1.481-2.701-2.476-3.602-4.186-1.085-1.977-1.665-3.65-3.467-5.36-4.053-3.919-10.221-10.72-6.618-16.389 2.25-3.42 3.737-3.509 7.653-4.811 2.566-0.894 1.264-0.766 3.692-0.511 1.757 0.255 5.449 0.255 0.358-1.391z"></path>
    <path fill="#000000" d="M264.090 167.568c0.089 2.565 2.431 4.186 4.096 6.037 3.196 3.509 6.123 7.39 7.968 11.702 2.746 6.254 4.323 12.201 5.628 18.954 0.804 4.685 2.972 8.64 4.096 13.235 1.621 6.803 5.583-0.637 6.618-4.096 1.757-5.68 1.845-9.866 1.306-15.668-0.179-2.335 0.536-4.327 0.229-6.713-0.358-2.974-1.53-5.272-2.791-8.065-1.306-3.101-2.972-6.433-3.737-9.636-0.625-2.297-0.446-5.272-1.442-7.478-1.892-4.327-4.952-8.831-7.338-13.102-3.782 0-5.988 2.387-9.275 2.743-1.665 0.255-0.995-1.977-3.377-0.255-1.757 1.353-0.804 3.101-0.499 4.632 0.408 2.796 1.085 5.577 1.621 8.372 0.179 1.149 0.179 2.743 0.715 3.829 0.715 1.851 2.566 2.796-3.827-4.544z"></path>
    <path fill="#000000" d="M386.381 339.605c-11.435 18.324-22.196 37.009-32.912 55.829-3.872 6.929-7.249 14.093-11.075 20.98-4.053 7.287-9.321 13.687-13.643 20.756-3.153 5.309-5.357 10.989-8.24 16.524-2.881 5.398-6.258 10.171-10.13 14.947-2.701 3.383-4.952 6.483-7.249 10.133-2.523 4.007-5.672 7.478-8.599 11.346-4.952 6.572-6.393 12.342-13.686 16.792-1.53 1.020-2.791 2.030-4.096 3.191-3.872 3.28-8.329 6.982-10.941 11.346-3.872 6.164-3.961 14.543-5.269 21.385-1.306 6.342-6.572 10.35-6.664 17.019-0.229 7.16-1.306 15.217 2.972 21.027 2.476 3.33 3.557 6.624 5.537 10.223 1.442 2.743 3.692 4.544 4.726 7.516 1.98 5.806 1.665 9.992 8.87 9.866 7.159-0.090 14.228 0 21.341 0 8.194 0.091 16.119-3.829 24.087-2.425 5.087 0.894 8.824-0.766 11.346-5.309 2.476-4.685 2.972-9.674 6.168-14.181 3.782-5.398 7.069-9.866 13.147-12.786 8.148-3.957 15.532-2.247 24.088-1.94 9.14 0.383 18.189-4.506 22.151-12.967 2.115-4.415 3.061-9.048 6.483-12.737 3.872-4.186 7.833-7.926 11.617-12.251 4.907-5.896 9.184-11.614 16.163-15.397 5.943-3.191 12.832-6.254 17.965-10.669 3.467-2.974 7.294-5.36 8.464 1.277 1.892-2.297 3.242-8.959 6.080-9.584 1.485 3.33 0.179 8.461-0.499 11.702-1.085 4.914-0.804 9.1-3.422 13.778-2.161 3.599-4.953 6.803-7.114 10.44-5.177 8.64-9.321 18.008-14.273 26.834-1.306 2.514-2.746 5.219-3.377 8.015-0.267 1.277-0.141 2.438-0.408 3.599-0.446 2.335-1.98 4.544-2.523 7.020-0.446 1.977-2.296 5.68-2.072 7.657 1.71 0.044 2.746-1.391 3.918-2.565 2.926-2.705 6.483-4.594 9.636-7.16 1.845-1.569 3.692-3.292 5.898-4.275 1.485-0.637 4.188-2.425 5.718-2.425 0.536 1.149-0.229 1.71-0.587 2.617-0.804 2.387-1.174 4.914-2.207 7.16-2.072 4.186-2.115 8.334-2.926 12.877-0.715 3.829-1.396 7.657-1.98 11.486-0.536 3.509-1.935 6.891-2.027 10.529 0 2.438-0.715 3.919 2.027 4.096 2.476 0.128 3.647-1.443 5.449-2.922 2.881-2.209 5.943-4.045 8.644-6.483 1.8-1.531 3.827-4.506 6.168-5.219 0.907 1.799 0 4.096-0.677 5.68-1.577 3.688-2.115 7.199-3.196 10.989-0.995 3.561-3.061 6.929-4.862 10.045-2.431 4.237-4.276 8.921-6.844 13.012-1.98 3.101-3.961 5.896-5.492 9.367-1.485 3.33-3.107 6.483-5.267 9.458-5.267 7.108-10.265 15.082-13.958 23.187-2.072 4.453-3.692 8.551-6.438 12.609-2.611 4.007-4.818 7.964-6.979 12.060-3.961 7.39-8.375 14.093-14.543 19.765-3.152 2.922-7.159 4.594-10.401 7.478-2.523 2.209-4.456 5.093-6.080 8.156-2.207 4.007-3.918 8.372-6.033 12.468-2.296 4.275-4.818 8.334-6.709 12.785-3.196 7.657-10.221 12.877-16.208 18.325-2.972 2.796-5.988 5.577-9.094 8.231-3.961 3.33-8.24 6.075-12.021 9.636-6.080 5.985-12.563 11.168-18.009 17.829-4.411 5.36-7.518 11.027-13.778 14.497-3.196 1.761-6.889 2.796-10.129 4.544-4.233 2.247-7.699 4.824-11.346 7.874-1.757 1.443-3.242 3.471-4.999 4.862-1.306 1.020-2.611 1.149-3.016 2.834-0.358 1.799 0.446 2.209-0.907 3.778-0.677 0.766-1.8 1.302-2.656 1.889 2.161 1.277 5.449-1.302 7.61-1.672 4.188-0.637 8.464 0 12.651-0.766 4.638-0.766 8.375-1.621 12.741-3.509 2.881-1.391 5.402-2.974 8.24-4.453 3.242-1.672 6.709-2.387 9.68-4.365 5.584-3.688 10.759-7.569 16.658-10.669 5.357-3.063 11.121-3.957 16.793-6.254 5.718-2.297 10.941-6.126 15.578-10.171 3.377-2.922 6.889-5.68 10.356-8.602 3.332-2.705 5.988-6.216 8.959-9.189 5.177-5.45 11.752-8.78 17.2-13.913 3.196-3.063 5.584-6.803 8.691-9.866 3.512-3.561 7.204-6.929 11.121-9.954 6.889-5.272 12.563-12.15 18.143-18.864 3.242-3.866 6.934-7.3 10.444-10.937 4.053-4.327 6.709-9.636 10.31-14.451 13.147-17.514 27.149-34.939 42.457-50.65 6.393-6.662 13.551-13.013 19.404-20.17 3.467-4.096 5.898-8.87 8.329-13.642 1.442-2.974 0.715-6.445 1.757-9.636 0.907-2.922 1.35-5.859 2.072-8.87 0.677-2.796 0.587-5.45 1.174-8.244 0.446-2.068 0.804-3.599 0.715-5.768 0-1.149-0.141-2.565 0.267-3.778 2.296 0.637 3.692 5.131 4.818 6.929 2.072 3.33 4.638 6.394 6.483 9.763 1.174 2.297 2.072 5.272 3.152 7.607 1.085 2.209 0.995 4.186 0.995 6.534-0.091 3.33 0 6.662 0 9.954 0 1.391-0.536 3.688 0.141 4.952 1.935-2.796 1.621-7.287 2.926-10.44 6.799-15.804 9.68-35.343 3.332-51.731-1.621-4.148-3.827-8.461-7.114-11.524-2.161-1.977-4.953-3.101-7.023-5.181-3.287-3.292-4.638-7.748-6.887-11.665-2.207-3.778-5.402-7.16-7.069-11.294-4.773-11.435-8.060-23.503-9.636-35.748-1.212-9.138-2.746-16.973-8.148-24.447-2.611-3.688-6.979-4.007-10.58-6.126-3.737-2.209-5.718-6.624-7.564-10.402-3.152-6.305-3.377-13.552-5.853-20.126-2.476-6.254-8.555-10.899-10.265-17.468-1.085-4.453 0.945-8.282 1.123-12.647 0.141-2.387-0.32-4.365-1.485-6.534-5.357-9.279-11.705 4.773-18.55 1.020-1.935-1.020-2.207-3.74-4.456-4.632-2.656-1.149-4.053-0.090-6.123 0.894-4.907 2.617-9.364 5.985-12.156 10.758-6.348 10.848-17.829 17.92-24.853 28.546-6.979 10.35-18.143 18.639-28.049 25.887-5.583 4.058-10.986 8.551-16.748 12.251-4.276 2.617-9.321 4.237-13.327 7.249-1.665 1.277-2.207 2.526-3.377 3.957-4.368 5.539-10.941 10.171-17.243 13.192-2.656 1.277-7.023 2.438-8.464-0.511-2.431-4.685 3.242-12.201 5.584-15.489 6.258-9.1 13.686-16.028 20.441-24.492 5.628-7.020 7.338-16.208 12.021-23.773 3.872-6.433 8.734-11.115 10.31-18.729 3.737-18.28 8.464-37.009 18.595-52.812 5.807-9.226 12.381-17.873 18.143-27.103 1.396-2.247 3.196-6.126 6.080-6.803 2.791-0.511 2.296 1.020 4.638-0.637 1.845-1.149 3.692-8.104 4.548-10.083 1.123-2.335 2.207-4.685 3.242-7.108 2.566-5.896 4.952-11.934 6.483-18.28 0.587-2.705 1.174-4.773 1.174-7.478-0.089-2.655 1.174-5.36-1.845-5.985-2.341-0.511-5.718-0.045-8.013 0.255-1.892 0.383-3.287 1.149-5.134-0.128-1.033-0.766-0.995-1.889-1.8-2.796-1.665-1.799-4.548-1.020-6.483-0.255-2.027 0.766-3.196 2.209-4.907 3.65-3.377 2.796-7.202 5.181-10.13 8.461-5.087 5.859-9.815 12.737-13.686 19.403-2.611 4.365-3.557 8.818-4.591 13.507-0.358 1.481-0.945 2.297-0.995 3.919-0.229 2.425-0.408 4.237 3.872-5.896z"></path>
    <path fill="#000000" d="M647.199 636.959c-0.408 1.851-0.816 3.688-1.621 5.36-0.179 0.511 7.294 0.383 7.968 0.255 5.672-1.020 10.671-3.778 16.524-3.28 3.377 0.128 6.168 1.66 9.455 2.476 1.98 0.511 3.872 0.894 5.943 0.637 3.287-0.637 5.672-3.063 8.148-5.131 8.013-6.572 18.235-9.954 27.014-15.443 3.827-2.387 6.438-6.433 10.536-8.461 3.692-1.889 6.618-0.894 10.536-1.66 4.683-1.020 7.474-4.914 11.84-6.803 4.999-2.156 10.716-1.977 15.578-4.453 5.314-2.565 8.779-7.785 14.273-10.133 7.968-3.471 17.289-7.070 25.933-8.461 7.564-1.277 14.136 0.894 19.63 6.394 3.872 3.829 7.745 8.73 9.725 14.001 2.387 6.254 2.791 13.417 5.583 19.495 0.816 1.672 1.98 3.153 2.926 4.685 1.485 2.297 2.341 4.594 3.422 7.070 1.53 4.148 3.287 8.423 3.377 12.832 0.141 5.181 0 10.453 0 15.668 0 1.531 0.945 8.282-0.091 9.584-1.892 2.565-4.458-1.481-5.269-3.063-1.35-2.526-1.306-5.093-2.836-7.428-1.53-2.247-2.566-4.773-4.548-6.841-1.757-1.761-1.757-3.969-3.377-5.68-3.242-3.599-3.107 2.617-3.647 4.914-1.396 6.433-3.287 11.614-6.258 17.514-3.107 6.342-3.512 14.183-8.060 19.675-4.276 5.093-6.889 11.256-11.031 16.524-1.935 2.476-3.422 4.007-4.503 7.020-1.264 3.101-3.242 5.219-4.953 8.104-3.961 6.841-7.114 13.686-11.66 20.081-3.287 4.632-6.438 9.189-9.635 13.732-5.087 7.020-10.401 13.731-15.443 20.71-7.968 10.899-15.847 21.792-24.177 32.506-3.647 4.773-6.979 9.725-11.031 14.316-3.782 4.186-8.060 7.478-12.201 11.346-9.68 9.010-20.17 16.659-31.425 23.412-5.222 3.101-10.31 6.433-15.443 9.405-5.177 3.012-10.58 5.093-15.758 7.874-5.537 2.974-10.716 6.929-16.569 9.367-5.087 2.068-9.5 4.058-14.182 6.982-4.726 2.974-9.636 4.952-14.587 7.287-6.168 2.922-11.705 6.572-17.514 10.083-4.411 2.705-8.375 5.947-12.921 8.461-3.692 1.977-6.979 2.884-10.851 4.275-7.789 2.655-14.902 6.394-22.781 8.921-7.249 2.209-14.452 4.186-21.657 6.216-3.377 1.020-6.799 0.894-10.085 1.672-2.115 0.383-4.638 2.209-6.753 1.569-0.499-1.977 3.242-4.327 4.411-5.577 3.152-3.153 6.168-7.020 10.085-9.317 4.683-2.743 8.464-6.751 12.741-10.045 4.773-3.74 10.129-6.483 14.993-10.133 3.827-2.922 7.294-6.254 11.075-9.367 2.791-2.297 5.583-3.153 8.779-4.544 4.053-1.761 7.745-4.045 11.121-6.929 8.329-6.929 18.1-10.632 26.968-16.704 3.647-2.476 7.338-4.453 11.075-6.841 3.827-2.387 7.023-5.768 10.716-8.282 5.672-3.919 12.426-5.859 17.693-10.083 4.053-3.242 7.789-6.891 11.525-10.402 7.474-7.070 15.262-13.507 21.522-21.747 5.222-6.891 9.995-14.046 15.128-20.935 4.548-5.947 10.444-11.486 13.282-18.369 1.396-3.561 2.25-7.16 4.007-10.529 2.072-3.778 4.368-7.478 6.438-11.256 1.442-2.884 3.196-5.577 4.772-8.461 1.212-2.387 1.712-5.002 2.791-7.338 2.611-5.589 6.303-11.793 9.77-16.839 1.395-2.156 3.107-2.297 4.591-4.045 1.174-1.481 0.855-3.688 2.341-5.002 1.712-1.71 3.827-1.391 5.222-3.65 1.395-2.118 1.264-4.594 2.746-6.751 2.026-3.33 5.583-5.985 7.789-9.405 3.061-4.862 7.338-9.367 9.95-14.497 0.907-1.94 6.753-16.028 2.972-16.343-3.061 2.617-3.961 6.483-7.159 9.048-2.026 1.531-4.862 2.030-7.023 3.957-2.115 1.851-3.827 3.74-6.393 4.914-3.692 1.71-7.204 1.020-11.031 1.569-12.741 1.621-15.847 12.060-21.611 21.43-2.296 3.778-6.753 7.428-6.753 12.342 1.935-2.922 2.296-6.394 1.935-9.763-0.229-1.621-1.123-2.655-1.442-3.778-0.229-1.569 0.090-3.153-0.179-4.773-1.53-8.015-10.894-8.73-17.514-9.546-12.426-1.391-24.312 2.655-36.513 4.365-1.892 0.255-3.827 0.255-5.807 0.128-7.745-0.128-12.697-0.255-19.72 3.509-9.905 5.45-18.143-4.453-27.644-5.181-7.518-0.637-10.759-4.453-14.947-9.954-4.233-5.577-3.512-7.748-1.621-14.048 2.656-8.73 9.95-16.208 11.932-25.618 0.855-4.506 0.945-8.959 1.485-13.551 0.267-2.387 1.174-4.685 2.115-6.841 1.35-3.191 3.647-5.398 4.862-8.78 0.995-2.884 1.174-5.985 2.476-8.959 0.677-1.569 1.577-3.28 2.387-4.862 1.485-2.705 3.377-5.131 5.177-7.569 5.988-7.785 12.021-15.668 20.62-20.665 4.276-2.526 8.015-5.181 12.067-7.964 5.402-3.599 11.255-6.572 15.532-11.168-1.306 3.101-0.907 5.947-0.945 9.189 0 2.565-0.091 5.131-0.229 7.748 0.267 1.761 1.306 2.335 3.152 1.799 1.53-0.255 2.701 0.091 3.602 1.353 0.408 2.118 0.536 4.327 0.32 6.483 0 5.488-0.229 10.81-1.712 16.208-2.656 9.279-7.745 18.234-11.84 26.968-2.972 6.164-6.168 12.43-8.644 18.774-0.499 1.020-0.766 1.977-0.995 3.012z"></path>
    <path fill="#000000" d="M311.904 284.849c-4.952-0.511-11.932 11.486-14.002 14.633-5.718 9.048-11.84 17.964-17.334 27.239-13.732 23.276-21.7 49.885-29.221 75.863-5.492 19.27-10.265 38.179-12.877 58.215-1.757 13.237-3.602 26.473-5.764 39.619-1.665 10.35-1.53 21.297-2.25 31.833-0.141 2.476-0.229 5.002-0.446 7.478-0.267 3.063-1.577 4.685-2.296 7.516-3.016 12.786 2.881 25.529 2.431 38.136-0.229 7.926 3.152 15.308 3.377 22.96 0.229 5.985-6.393 6.891-10.671 4.327-10.626-6.572-17.378-22.016-22.961-32.822-2.566-5.002-5.449-9.636-5.718-15.353-0.587-9.048 1.53-18.416 1.845-27.465 0.715-19.18 0.089-38.269 1.8-57.404 1.264-12.786 7.61-22.061 13.867-32.732 6.618-11.206 11.39-22.241 13.551-35.298 1.123-7.569 1.212-13.416-1.845-20.126-4.053-8.921-6.618-13.102-4.096-23.142 2.161-8.959 4.591-17.829 10.356-25.078 6.664-8.372 15.893-14.724 24.042-21.207 8.195-6.572 16.704-13.913 23.096-22.376 3.377-4.453 6.080-10.045 9.049-14.902 2.476-3.688 4.141-7.569 6.080-11.524 2.296-4.811 3.061-5.002 7.429-6.254 1.212-0.383 3.602-1.94 4.772-1.391 0.816 0.383 1.757 4.148 2.207 5.219 0.907 2.297 2.027 4.773 2.431 7.39 1.033 6.433-2.341 9.636 3.153 6.662z"></path>
    <path fill="#000000" d="M200.941 294.525c-7.789 19.495-14.723 39.799-23.276 59.025-5.718 12.877-13.147 24.852-18.685 37.864-10.58 24.987-19.811 51.236-23.818 78.025-3.061 19.765-4.188 39.169-4.188 59.161 0.046 10.083 0.32 20.169 0.046 30.254-0.141 9.189-1.8 18.28-1.892 27.553-0.089 14.948 4.368 25.844 10.716 38.99 6.123 12.468 10.401 25.843 17.154 37.909 3.061 5.309 6.033 9.725 8.24 15.397 1.123 2.796 2.072 5.806 3.692 8.372 1.264 1.889 2.476 3.33 3.467 5.45 0.995 2.209 0.995 4.186 3.016 5.806-0.141-2.922 0.229-5.947-0.229-8.78-1.8-12.43-7.383-24.176-10.175-36.289-3.872-16.748-7.069-33.363-10.536-50.156-2.25-11.027-5.402-22.376-6.258-33.722-0.499-7.478-0.179-14.902-0.179-22.376 0.089-14.812-0.536-29.31 1.892-43.942 2.431-14.136 8.195-26.564 15.082-39.035 7.653-13.731 13.551-28.139 22.287-41.331 9.275-14.046 11.21-28.813 15.217-44.706 3.782-15.217 9.184-28.591 8.734-44.392-0.229-6.572-0.358-13.192 1.396-19.585 1.396-4.862 4.096-9.048 6.168-13.552 2.026-4.632 2.207-10.223 4.726-14.587 1.892-3.42 3.287-4.186 2.972-8.461-0.179-3.509-0.625-5.985-4.188-6.891-4.188-0.894-7.069 0.894-9.86 3.778-10.716 11.078-11.617 27.69-11.525 20.216z"></path>
    </svg>