<svg xmlns="http://www.w3.org/2000/svg" viewBox="52.967 71.871 1053.069 962.308">
    <path fill="#000000" d="M536.65 327.413c-1.304 3.637-4.931 7.937-6.769 11.431-2.597 4.3-6.131 8.331-8.331 12.771-2.469 4.566-2.996 10.303-3.637 15.503-1.071 6.769 0.188 11.471 2.331 18.104 2.863 9.103 5.069 19.804 11.703 27.204 7.571 8.729 23.204 3.137 33.337 4.566 3.797 0.569 7.175 2.597 10.834 3.403 4.169 0.946 9.103 0.378 13.531 0.378 10.931-0.094 23.704 1.969 34.637-0.094 12.231-2.363 17.203-17.071 20.034-27.504 3.797-13.131 4.828-26.037-1.804-38.407-2.597-4.696-5.871-8.866-8.6-13.531-3.496-5.734-5.734-12.771-11.203-17.204-11.203-8.971-24.104-13.803-36.472-20.571-5.829-3.137-15.731-4.429-22.504-2.469-5.5 1.571-9.404 6.631-13.303 10.403-3.904 4.031-7.937 9.771-12.231 13.431-1.437 1.163-1.831 2.071-1.571 2.597z"></path>
    <path fill="#000000" d="M546.153 468.437v146.387c0 5.338-0.094 10.803 0 16.004 0.094 9.369-2.203 17.471-3.496 26.704-1.163 6.897-3.137 23.304 3.366 28.272 3.403 2.863 7.571 3.1 11.071 5.963 3.137 2.729 5.871 6.003 8.469 9.137 5.604 6.769 12.103 10.131 20.071 12.903 6.769 2.469 9.903 6.897 17.171 6.237 8.996-21.737 12.631-46.875 16.803-69.812 2.597-14.703 0.946-29.537-1.796-44.007-2.504-13.034-1.437-27.204-1.304-40.375 0.188-13.531 4.931-25.771 5.697-39.072 0.569-7.666-0.188-14.834-1.663-22.404-2.597-13.931-7.175-27.872-13.934-40.372-1.831-3.366-4.169-6.371-6.528-9.503-2.863-3.366-3.904-3.366-8.204-3.366-5.069 0-9.369 1.028-14.434 2.469-2.729 0.946-6.528 2.469-8.866 2.996-1.703 0.378-3.772-0.281-5.338 0.094-1.028 0.378-1.571 1.529-2.331 1.796-4.429 1.071-4.837 0.569-7.304 4.972-3.137 5.963-5.472 9.103-7.437 4.931z"></path>
    <path fill="#000000" d="M383.625 210.063c3.403 0.281 7.437 2.597 10.671 3.669 4.696 1.397 9.272 3.637 14.071 4.169 6.897 1.028 17.071-5.5 15.771 5.569-1.831 12.131 1.028 22.804-3.637 34.272-3.137 7.796-4.566 16.134-8.097 23.972-4.169 9.369-10.003 17.703-13.131 27.337-3.006 8.469-4.031 17.303-5.734 25.904-1.831 8.331-0.756 16.671-2.071 24.872-1.331 6.663-4.972 13.431-7.571 19.671-4.696 11.203-13.531 18.231-20.434 27.737-4.031 5.604-6.897 10.571-12.003 15.503-4.671 4.429-8.331 9.903-12.103 15.103-4.696 6.269-9.369 12.231-14.971 17.703-4.031 3.929-6.769 9.631-10.931 13.171-3.669 2.729-5.871 3.271-8.469 7.304-4.566 7.529-9.631 11.703-16.031 17.434-7.269 6.269-12.631 14.203-19.771 20.434-6.663 5.734-13.703 10.571-19.804 17.071-5.472 5.472-10.803 10.934-17.203 15.634-9.103 6.371-19.537 9.903-28.637 16.131-3.403 2.229-5.604 3.797-9.369 5.328-4.566 1.703-9.903 3.006-14.071 5.604-3.904 2.229-6.672 3.929-10.831 5.472-2.071 0.946-2.729 1.437-4.803 2.637-5.472 3.496-9.103 4.671-13.531-0.281-5.231-6.003-7.571-13.934-12.771-19.671-1.571-1.969-4.169-2.729-5.197-5.197 5.472-3.271 12.231-0.946 15.603-7.969 2.504-5.197 2.863-9.631 7.029-14.031 10.169-10.831 23.971-18.104 37.272-24.372 5.472-2.597 11.434-3.271 16.903-5.734 5.871-2.597 10.171-6.769 15.234-10.403 3.271-2.363 7.163-4.031 9.903-7.029 2.229-2.363 3.669-5.734 5.734-8.469 8.072-10.303 17.704-18.634 25.272-29.304 6.897-9.771 14.703-18.771 21.471-28.537 3.531-4.803 6.269-10.531 10.031-15.234 3.531-4.534 8.6-7.796 12.003-12.371 7.269-9.231 14.434-19.134 19.537-29.804 2.331-5.104 3.1-10.703 4.671-16.034 1.703-5.604 5.328-10.271 6.397-16.003 3.1-16.534 11.971-31.907 13.403-48.975 0.663-7.666-0.756-15.503-0.756-22.904 0-4.169-0.094-8.729 1.071-12.631 0.378-1.437 0.756-2.863 1.804-4.031 2.863-4.169 6.528-8.331 9.404-13.431 2.331-4.169 5.829-8.331 7.529-12.631-0.094 0.569 1.831-5.069 1.304-4.534 1.304-1.571 7.969-2.229 9.903-2.097z"></path>
    <path fill="#000000" d="M776.653 208.495c-4.534 0.946-7.937 4.972-12.503 5.734-1.571 0.378-3.772-0.281-5.197 0-2.097 0.756-2.469 0.569-3.637 2.469-2.097 3.271-3.137 10.931-3.531 15.003-0.281 4.803 0.569 10.003 0 15.103-0.663 5.829-1.831 11.203-1.703 17.303 0 8.469 0.094 17.071 0 25.672-0.094 11.331 3.271 22.537 9.903 31.637 3.137 4.566 6.397 8.6 8.866 13.403 2.996 6.131 4.671 12.634 7.937 18.772 6.131 11.471 10.431 23.971 16.934 35.537 5.328 9.771 12.103 20.203 20.071 28.137 2.071 1.969 4.404 3.637 6.237 6.003 6.269 7.529 10.303 17.303 16.403 25.237 3.403 1.437 6.897 2.637 10.431 4.063 8.072 3.496 13.134 8.834 19.537 14.971 6.104 5.734 12.731 10.271 16.903 17.834 1.703 4.429 3.669 8.6 5.604 12.903 1.571 2.597 3.403 5.069 5.734 7.269 1.571 2.996 2.863 5.871 4.429 8.729 2.331 2.597 5.069 4.429 8.331 5.734 3.137 1.571 6.003 3.271 8.6 5.472 6.503 5.734 11.971 11.471 17.703 17.703 2.229 2.597 4.696 5.231 6.897 7.571 2.597 2.729 5.104 6.237 7.831 8.866 3.229 2.831 7.666 3.637 10.003 7.397 2.996 4.566 4.429 8.204 8.866 11.871 4.031 3.229 5.604 5.734 11.331 5.829 5.734 0.378 14.434 1.571 19.804-0.378 6.104-2.229 12.503-7.969 18.334-11.203 2.597-1.571 2.097-0.569 3.137-3.904 1.028-3.797 1.437-8.331 2.097-12.271 0.756-4.671 3.496-9.103 4.031-13.531-3.006 0.094-4.169 3.137-7.296 3.271-4.169 0-8.204-3.531-11.071-5.734-14.071-9.771-30.072-18.371-38.038-34.007-3.637-6.631-7.269-12.503-12.371-18.334-8.331-9.404-17.171-19.404-26.937-27.372-14.603-11.703-30.872-17.571-40.638-34.637-3.669-6.769-6.397-13.671-10.031-20.434-4.566-8.469-10.403-14.603-17.071-21.237-7.796-7.796-14.571-16.671-21.872-24.737-5.734-6.503-11.831-13.034-16.531-20.304-5.472-8.097-9.369-16.803-10.031-26.437-0.663-8.6-1.571-15.904-4.031-24.237-2.597-9.369-6.003-18.371-7.937-28.137-1.969-8.971-4.031-17.971-7.175-26.672-3.137-8.469-4.169-25.404-15.771-26.072-0.946 0-1.663 0.094-2.597 0.094z"></path>
    <path fill="#000000" d="M228.67 215.665c35.272 0.094 70.312-1.703 105.482-1.937 8.331-0.569 16.403-0.094 24.737 0.946 6.631 1.571 13.403 3.271 20.171 5.069 14.071 2.863 28.804 1.571 43.108 1.703 18.771 0 37.137 4.169 56.141 4.169 14.071 0 27.872-3.496 41.938-3.496 7.175 0.378 14.331 1.397 21.237 2.831 5.197 0.569 10.403 0.663 15.471 0.281 2.863 0.281 5.472 1.969 7.969 2.097 3.1 0.378 6.104-1.571 9.103-2.597 5.734-1.703 11.471-1.304 17.337-1.304 19.403 0 38.407 0.475 57.141 5.829 10.431 2.996 21.371 1.703 32.037 1.703 15.503 0 31.537 1.437 46.908-0.094 10.271-1.028 20.437-4.031 30.472-5.734 12.503-1.937 25.137-2.203 37.638-1.937 6.503 0.281 12.231 2.597 18.104 5.472 3.637 1.831 7.269 3.772 10.931 5.472 3.772 1.028 7.666 1.294 11.331 0.756 14.303 0.094 27.872 6.003 42.175 5.734 4.972 0 10.931-0.946 15.771 0.281 5.472 1.304 10.403 4.031 15.871 5.069 0.756 0.281 5.472 1.2 6.804 0.569 2.597-1.437 1.529-3.772 1.529-6.897-0.188-10.671 0-21.237 0-32.037 0-5.328-0.378-10.531 0.756-15.771 0.946-4.169 1.304-12.631-2.229-16.004-2.071 0.378-4.031 1.304-5.328 3.137-3.496 2.331-7.029 3.904-10.803 4.671-8.469 2.372-17.071 1.831-25.771 1.831-23.572 0.094-46.908-8.204-69.544-14.603-11.331-3.1-22.134-7.796-33.737-10.403-12.103-2.597-24.337-4.931-36.607-6.131-25.237-2.469-49.875 0.569-75.144 0.663-29.804 0.281-59.375 3.137-89.178 3.628-20.071 0.378-39.872 4.566-59.775 4.031-7.969-0.378-15.631-2.597-23.437-3.637-11.071-1.437-23.072-0.663-34.272-0.569-9.903 0.094-19.804 1.969-29.437 3.531-11.831 1.703-23.704 6.371-35.672 6.371-14.471 0-28.504 3.137-42.838 3.797-14.971 0.475-30.204-0.094-45.208-0.094-8.204 0-16.534-0.946-24.337 0.378-3.271 0.569-6.371 1.831-9.503 1.703-4.837-0.569-8.331-4.696-13.171-5.604-5.963-1.028-10.271 6.269-13.671 11.203-2.331 3.772-4.429 7.796-7.029 11.471-1.571 2.071-2.996 2.863-3.496 5.472-1.163 6.104 0.663 10.403-2.729 15.871-1.304 1.831-9.404 12.131 2.729 3.271z"></path>
    <path fill="#000000" d="M402.897 739.444c10.303 0.569 20.704 0.946 30.737 2.469 9.771 1.437 18.371 4.566 28.137 4.837 25.537 0.946 50.008-2.229 75.412-3.669 23.437-1.304 45.838-9.871 69.412-11.571 15.871-1.163 30.737 4.803 46.208 5.604 10.971 0.475 21.772-0.569 32.437-1.437 19.271-1.437 37.372 3.637 56.375 3.637 7.969 0 15.634-1.571 23.472-1.937 4.931-0.281 9.871 0.188 14.834-0.569 11.971-1.703 22.271-4.169 34.637-2.597 13.034 1.796 23.037-0.756 35.537-2.363 7.703-1.028 15.504-2.071 22.937-4.169 5.197-1.529 11.603-3.637 16.937-1.304 1.663 1.831 3.496 3.531 5.328 5.231 2.469 1.571 5.197 2.331 8.204 1.937 7.304 0.094 11.603-1.163 17.834 3.137 3.531 2.469 5.871 4.031 10.431 4.3 2.071 0.378 5.604-1.028 7.269-0.094 4.566 2.203 0.946 13.403 0.094 17.331-0.281 2.969 0.756 6.631-2.071 7.666-1.294 0-2.863-0.094-4.3-0.378-2.996 0.378-5.328 1.571-7.304 4.031-3.137 2.637-6.131 6.131-9.903 7.437-4.3 1.437-10.403 0.281-14.971 0.281-7.296 0-14.331 0.663-21.737 0.663-3.797 0-7.969 0.281-11.603-0.946-2.203-0.663-3.496-1.703-5.734-1.831-3.137 0-6.897 1.703-9.903 2.229-17.034 3.496-34.507 1.703-51.708 1.703-21.337 0.188-42.175-1.703-63.544-3.403-21.471-1.571-43.108 0.663-64.712-0.663-16.271-1.028-32.437-2.203-48.708-1.437-17.471 0.946-34.772 1.071-51.975 1.969-11.331 0.569-22.134 3.403-33.337 3.637-16.003 0.094-31.772 4.3-47.775 6.397-12.903 1.571-25.672 1.163-38.672 1.437-8.866 0-17.203-2.469-25.937-2.331-9.771 0.378-18.371 4.404-28.004 4.169-11.434-0.378-22.904 0.475-34.372-0.094-12.103-0.946-25.004-4.429-36.972-6.672-7.437-1.437-15.003-2.469-22.271-4.169-7.304-1.937-17.734-8.469-25.004-5.069-3.137 1.571-3.669 3.006-7.571 2.331-5.069-1.028-9.103-1.796-14.331-1.796-3.366 0.188-4.931-0.569-7.937-1.304-4.031-1.071-9.103-0.756-13.271-0.569-4.696 0.378-9.137 1.831-13.803 2.071-6.003 0.094-10.703-0.946-16.171-1.937-3.1-0.569-4.931 0.378-6.503-3.006-0.569-1.163-1.304-5.472-1.571-6.897-0.663-4.031 2.097-14.571 3.904-18.634 1.071-2.203 2.863-5.197 5.231-5.963 0.756-0.378 2.597 0.094 3.772-0.281 1.937-0.569 3.271-2.597 5.197-3.137 3.772-1.163 9.903-0.756 13.671-0.094 4.031 0.569 7.703 2.729 11.731 3.531 5.871 0.756 11.571 0.094 17.571 0.094 5.328-0.094 9.903 1.663 14.834 2.203 3.669 0.569 6.269-0.569 9.771-1.831 9.531-3.637 17.331-0.188 27.504-0.378h13.271c6.503 0 13.031-0.094 19.537 0 9.103 0.094 18.231-2.996 27.204-0.569 10.431 2.996 21.237 2.203 32.172 2.729z"></path>
    <path fill="#000000" d="M261.343 855.996c-1.571 0-3.229 0.281-4.803 0-2.863-0.094-5.604-1.831-8.469-1.703-5.328 0.569-6.528 5.371-8.072 9.903-2.372 5.734-4.063 11.871-4.566 17.834-0.569 6.269-3.271 11.871-3.137 18.104 0 6.397-0.569 11.071 4.3 15.631 6.003 5.328 12.231 11.071 18.871 15.234 8.6 5.604 16.934 4.169 26.837 4.169 6.769 0 12.771 0 19.271-1.571 10.171-2.331 15.371-14.303 19.804-22.403 4.566-7.796 1.437-13.271-0.281-21.471-1.571-7.437-0.281-24.372-9.369-27.604-6.631-2.229-12.771-2.469-18.772-6.269-4.931-2.996-10.271-3.137-14.971-5.871-2.331-1.529-4.031-4.931-6.503-5.963-2.597-1.028-7.571-0.663-10.571-0.281-4.671 0.281-17.031 6.003 0.378 12.231z"></path>
    <path fill="#000000" d="M441.334 823.053c-8.729 0-16.671-0.094-25.004 1.937-8.469 1.831-12.771 2.372-18.634 9.404-6.131 6.503-11.731 13.803-16.134 21.604-4.566 7.571-8.866 15.103-10.703 23.834-1.796 10.531 0.378 14.071 10.703 17.571 8.971 2.863 13.271 7.571 19.537 14.331 3.904 4.031 8.704 9.231 14.303 10.303 8.866 1.937 22.272 0.946 29.704-4.169 14.703-9.771 19.804-22.804 21.871-39.607 1.703-14.571 0.378-30.072-8.469-41.807-3.1-4.031-4.534-9.771-9.631-11.703-2.863-1.071-10.031-3.669-7.529-1.703z"></path>
    <path fill="#000000" d="M709.974 853.394c-12.871 3.137-28.904 4.566-38.272 15.103-5.472 6.269-8.866 16.403-12.103 24.372-2.637 6.631-6.269 15.603-6.937 23.037-0.378 4.169-1.028 11.971 0.281 16.003 1.969 4.696 8.729 7.304 13.303 8.866 3.904 1.163 6.769 2.097 9.503 5.069 1.437 1.703 2.469 5.371 4.169 6.672 2.597 1.663 12.634 0.475 15.503 0.188 7.937-0.188 15.603-4.671 22.904-7.529 7.831-3.403 13.431-7.796 19.137-14.071 9.137-9.903 11.203-24.337 10.703-37.638-0.094-10.931-6.397-23.571-14.071-31.372-4.3-4.169-13.671-17.834-24.104-8.729z"></path>
    <path fill="#000000" d="M851.164 834.521c-0.094 3.496-7.163 1.937-9.531 1.937-5.604-0.281-12.231-0.475-17.434 2.229-5.472 2.969-8.866 10.271-11.203 15.731-4.031 8.729-8.204 20.834-9.369 30.472-2.469 16.934 14.571 26.837 27.337 34.007 7.304 4.031 15.631 9.231 24.237 6.371 8.072-2.597 14.303-7.796 22.904-9.369 18.234-3.271 35.937-9.369 40.772-29.172 2.863-11.203-1.831-16.134-10.431-23.437-4.671-3.904-9.369-8.469-14.171-12.231-8.097-6.003-20.203-5.231-27.372-11.331-2.863-2.469-4.3-3.772-8.331-5.197-4.429-1.571-10.403-7.437-7.397 0z"></path>
    <path fill="#000000" d="M565.054 834.521c-2.097 2.969-8.097 2.469-11.203 3.1-4.169 1.071-7.831 1.969-11.203 4.696-7.437 6.237-14.334 18.104-13.571 28.004 10.971 2.331-2.597 25.137-0.188 31.772 1.571 4.429 7.269 4.931 11.431 6.503 7.831 3.006 12.271 9.137 19.037 13.303 25.372 15.731 46.738-13.034 53.508-34.407 3.137-9.871 5.734-18.471 1.969-28.372-1.437-3.637-1.969-8.331-4.566-11.471-2.203-2.597-7.796-4.3-10.931-5.734-5.197-2.203-10.803-2.331-15.771-5.472-2.331-1.571-4.671-2.996-7.163-4.429-1.937-1.163-3.637-2.729-5.697-3.366-3.531-1.304-9.404 0.094-5.604 5.871z"></path>
    </svg>