<svg xmlns="http://www.w3.org/2000/svg" viewBox="65.100 47.215 854.037 929.538">
    <path fill="#000000" d="M812.003 265.914c0.47-0.343 0.984-0.69 1.464-1.032 3.678 1.822 4.71 5.935 6.57 9.018 2.136 3.483 4.274 6.486 6.018 10.21 2.215 4.791 5.342 9.892 6.763 14.838 1.307 4.71 1.271 10.178 1.941 15 0.984 6.808 3.246 13.458 3.639 20.184 0.482 8.193-0.035 16.54-0.035 24.773 0 14.482-3.762 29.208-9.422 42.896-4.156 10.098-15.317 20.935-28.218 21.607-3.562 0.229-6.887-0.457-10.366 0.343-3.445 0.69-5.58 1.466-9.422 1.272-6.887-0.343-13.134-2.418-19.747-4.195-10.408-2.808-22.632-5.89-26.83-15.672-1.662-3.918-2.613-10.717-1.506-15.036 0.906-3.483 4.394-8.115 6.174-11.479 3.090-5.857 6.292-10.133 10.962-14.996 3.8-3.954 6.174-8.79 9.339-13.222 5.502-7.841 11.202-15.787 17.373-23.226 7.638-9.181 10.134-19.194 12.702-30.316 2.058-8.858 1.78-17.334 1.9-26.472 0.040-6.486-3.522-12.702-1.585-19.35 2.574-0.457 7.007 4.309 9.104 5.694 3.165 2.017 5.498 4.035 7.475 6.888 1.783 2.568 2.454 6.176 4.238 8.504 1.348 1.822 3.678 3.565 1.464-6.293z"></path>
    <path fill="#000000" d="M832.709 418.444c-3.365 0.69-5.262 4.436-7.915 6.212-3.598 2.454-7.753 4.080-11.79 5.583-2.653 1.032-4.672 1.466-7.602 1.503-2.215 0-5.184-0.801-6.53 0.918-2.529 3.162 4.592 9.467 6.098 11.993 4.152 6.808 5.024 13.928 5.142 21.919 0.080 4.158-1.621 8.585-3.522 12.505-1.621 3.325-4.553 7.128-5.7 10.373 3.006 1.386 7.602-0.918 10.212-2.095 3.438-1.581 6.69-4.276 9.378-6.648 3.365-3.014 7.915-5.971 10.372-9.144 1.745-2.258 4.512-7.082 5.302-9.581 0.597-1.972-0.241-3.52 0.208-5.342 0.482-1.822 1.703-3.162 2.097-4.986 0.678-3.325-0.47-7.082-1.977-10.052-1.147-2.291-2.571-4.321-4.198-6.453-1.266-1.626-3.325-3.288-4.35-5.019-1.147-2.017-1.662-4.47 4.786-11.637z"></path>
    <path fill="#000000" d="M732.947 192.964c3.762-0.801 6.091 1.972 8.706 3.872 7.398 5.387 11.239 8.871 13.851 17.094 2.729 8.55 7.557 16.742 9.616 25.408 1.585 6.612 2.335 13.458 3.205 20.142 1.9 14.802 1.188 31.144 0.515 46.026-0.402 8.985-6.606 21.45-12.781 28.41-7.363 8.275-14.129 16.937-23.191 23.666-5.818 4.276-12.663 8.070-19.629 10.888-5.26 2.095-10.842 1.938-16.385 3.048-5.184 1.032-10.248 2.454-15.39 3.678-5.544 1.34-10.53 1.855-16.266 1.777-10.092-0.115-19.902-8.664-28.256-13.254-4.472-2.454-9.142-5.031-13.060-8.16-1.739-1.581-3.562-3.129-5.382-4.632-1.78-1.466-3.048-3.162-3.762-5.226-2.689-2.017-2.058-2.888-6.054-0.343-7.758 5.064-11.121 14.878-18.679 19.704-3.445 2.213-9.654 3.761-13.572 5.26-7.877 3.048-15.634 4.905-24.259 5.112-6.33 0.115-12.744-0.115-19.117-0.115-8.862 0-18.954 1.262-27.665-0.343-4.589-0.801-9.498-2.647-13.89-4.195-2.097-0.801-6.453-3.918-8.513-3.678-4.946 6.098-4.114 15.514-6.45 22.398-2.729 7.989-6.609 14.564-12.822 20.934-5.659 5.824-10.248 9.729-18.601 12.623-7.599 2.614-15.276 5.226-23.188 7.002-8.034 1.822-16.266 3.438-24.498 4.55-7.915 1.146-16.185 0.918-24.021 2.291-0.984 9.294 0.906 18.641-1.066 27.939-1.941 9.144-4.91 20.538-12.072 27.541-10.207 9.937-22.674 17.017-37.32 20.935-3.798 1.032-6.69 1.262-5.976 5.26 0.756 4.035 6.256 8.389 8.115 12.267 4.904 10.133 10.488 19.788 10.804 31.068 0.126 5.26-0.792 10.373-2.058 15.474-0.482 2.017-1.386 3.21-1.9 5.031-0.597 2.095-0.041 5.375 0.079 7.554 0.126 2.773 1.341 3.357 1.977 5.742 1.506 5.583-2.215 12.663 0.241 18.043 2.927-0.039 2.689 1.352 4.35 2.659 4.278 3.279 9.66 5.661 14.286 8.79 6.57 4.47 12.425 9.099 14.681 16.302 2.415 7.6 2.571 14.368 1.188 22.242-0.838 4.584-5.58 11.951-0.838 15.868 3.090 2.568 11.121 3.325 14.843 4.872 3.762 1.548 7.242 3.325 10.408 5.742 9.968 7.564 19.391 13.457 23.706 24.696 3.165 8.263 3.087 19.59 1.464 28.213-0.437 2.373-6.57 11.199-5.659 13.734 0.437 1.146 3.445 2.291 4.672 2.922 9.816 5.064 20.976 7.049 31.383 10.921 3.841 1.421 8.389 3.129 11.44 5.742 1.739 1.503 5.778 4.791 7.041 6.648 4.512 6.567-0.080 16.463 8.706 20.102 5.976 2.532 12.825 2.808 18.958 4.986 5.184 1.822 7.201 5.583 10.207 9.651 2.613 3.483 8.706 10.326 7.796 15.117-0.366 1.777-1.819 2.614-2.094 4.71-1.147 8.070 0.47 16.54-0.126 24.692-0.47 6.888-0.984 14.918-4.672 21.093-4.194 7.049-13.458 8.63-21.409 10.842-8.787 2.454-16.662 2.258-24.93-0.572-8.429-2.855-18.918-2.095-27.82-2.969-16.026-1.581-28.853-6.293-38.19-18.167-3.639-4.584-4.114-8.148-10.962-8.31-10.406-0.229-20.061-0.229-30.312-1.855-9.894-1.626-21.29-6.841-29.64-11.715-8.948-5.179-18.282-7.678-22.794-16.902-2.535-5.179-4.238-11.31-5.382-16.855-0.951-4.354 0-7.989-2.022-12.27-1.224-2.694-1.819-3.794-4.904-4.986-5.544-2.132-11.001-3.598-16.387-6.293-4.392-2.142-9.458-3.325-13.416-6.098-7.674-5.305-14.719-12.349-20.773-19.076-12.15-13.537-19.944-29.208-29.524-44.046-3.8-5.902-7.321-10.133-7.439-17.214 0-1.972 1.266-6.338-0.126-8.070-3.090-4.035-9.894-1.225-12.468-6.888-1.977-4.391-2.332-9.618-4.114-14.206-2.257-5.694-4.589-11.199-6.251-17.057-2.257-7.989-1.745-17.256-1.422-25.522 0.241-5.902 3.241-12.39 7.638-16.662 1.422-1.421 3.284-2.532 3.438-4.391 0.286-2.773-4.114-8.79-5.736-10.968-6.727-8.858-10.646-19.39-15.672-29.086-5.778-11.082-8.508-22.794-8.389-34.98 0.041-5.857-0.63-11.677 1.032-17.413 1.386-4.71 10.052-9.099 12.072-13.613-2.495-0.457-4.91 0.039-6.453-2.258-2.689-3.872-10.010-11.671-11.435-15.432-5.107-13.537-7.083-27.306-1.386-44.6 4.392-13.416 17.846-27.069 29.598-36.251 5.346-4.15 11.239-4.938 16.94-8.070 3.48-1.938 6.566-4.035 10.446-5.466 1.662-0.572 4.392-0.918 5.418-2.373 0.951-1.272 0.208-3.084-0.079-4.436-0.951-5.179-3.006-10.165-3.96-15.432-1.147-6.176-2.495-12.265-3.72-18.402-3.562-17.651-0.951-34.472 8.075-50.616 8.586-15.396 21.052-26.671 40.326-30.748 7.753-1.662 13.293-4.632 20.697-7.323 7.041-2.532 12.582-1.698 19.509-2.568 1.506-5.112-0.515-10.566 0.079-15.753 0.678-5.824 4.826-12.307 7.713-17.531 3.522-6.293 8.866-11.673 14.089-16.855 5.894-5.902 12.349-12.666 19.788-17.099 13.89-8.31 30.706-18.044 47.766-19.034 16.344-0.918 32.013-5.019 48.553-4.905 3.642-0.042 7.245-0.042 10.842-0.042 2.058 0.079 4.038 0.457 5.934 1.146 4.278-1.146 8.627-8.63 11.162-11.518 9.772-11.31 22.872-16.302 37.793-20.574 8.586-2.454 17.846-4.002 26.2-7.082 7.122-2.614 14.167-5.42 21.92-6.453 9.619-1.225 22.003 0.115 30.671 3.918 2.257 1.032 4.074 2.694 6.211 3.724 5.262 2.532 4.472 1.581 11.28-0.69 12.942-4.391 27.144-7.437 40.998-7.278 15.911 0.229 33.48 3.048 47.408 9.651 7.796 3.724 18.167 5.031 24.182 11.162 3.994 4.080 5.539 8.985 7.913 13.81 1.783 3.529 4.314 6.567 5.304 10.178 1.621 6.212-1.859 9.018 6.054 13.020 2.571 1.307 4.394 1.744 6.57 3.643 1.585 1.386 1.745 2.922 0.437 3.325z"></path>
    <path fill="#000000" d="M527.785 842.895c0 3.084-0.551 6.648 0.437 9.581 0.402 1.225 1.266 2.063 1.506 3.643 0.241 1.581-0.040 3.402-0.040 5.019-0.040 7.128-1.422 11.637-3.836 18.282-0.838 2.291-2.933 5.583-0.080 6.694 2.375 0.918 8.745-0.115 11.44-0.115 8.664 0 18.006-0.572 25.483-4.002 17.573-7.998 42.186-15.554 50.574-33.165 1.745-3.643 4.63-8.034 4.95-11.911 0.366-4.632 2.571-10.006 1.896-14.64-0.984-6.853-5.736-13.338-9.93-19.034-4.672-0.229-4.592 8.263-5.622 11.082-0.984 2.694-3.642 4.436-5.7 6.567-1.662 1.698-2.215 3.643-3.639 5.42-1.662 2.095-4.672 3.631-6.769 5.42-2.689 2.291-5.342 4.584-7.992 6.841-6.609 5.42-14.088 9.377-22.555 11.793-6.966 1.985-19.788 1.938-30.118-7.483z"></path>
    <path fill="#000000" d="M646.366 381.973c0.47 2.728-1.626 4.824-1.941 7.483-0.319 2.454-0.126 4.23-0.87 6.6-1.941 6.293 0.040 12.267-4.001 18.245-3.994 5.935-5.896 12.825-10.052 18.761-0.984 1.34-2.571 2.291-3.522 3.714-0.551 0.801-0.208 2.017-0.756 2.855-1.662 2.647-5.107 4.354-6.57 7.119 1.066 1.855 8.429 2.934 10.804 3.288 2.85 0.457 6.371-0.081 9.262-0.081 7.753 0 15.63-0.572 22.756-3.598 2.689-1.146 5.024-3.954 7.479-5.546 3.087-2.017 5.736-4.195 8.466-6.6 4.472-3.954 7.717-8.31 10.569-13.061 2.255-3.761 5.224-7.678 3.165-12.27-1.783-3.954-6.887-7.952-10.883-10.326-5.184-3.084-10.962-4.872-16.504-7.037-2.529-1.032-4.114-0.918-7.041-1.192-3.836-0.457-6.292-1.789-10.366-8.356z"></path>
    <path fill="#000000" d="M601.195 385.286c-0.515 0.079-1.032 0.229-1.585 0.229-1.621 4.002-0.319 10.373-0.319 14.646 0 6.968-0.040 13.176-1.621 19.944-0.951 4.080-3.603 5.661-5.502 9.455-1.506 2.934-2.215 5.546-4.114 8.275-1.739 2.532-3.762 4.664-5.695 7.082-1.941 2.418-3.603 2.568-5.778 4.354 0.984-2.934-1.9-8.115-3.126-10.888-1.9-4.517-3.205-9.099-4.672-13.731-1.585-4.986-4.592-9.663-6.609-14.446-0.951-2.291-1.977-4.55-2.886-6.808-0.437-1.032-2.891-4.517-2.933-5.26-0.319-5.971 13.496-11.791 18.441-14.129 4.826-2.336 22.953-5.305 26.397 1.225z"></path>
    <path fill="#000000" d="M508.965 400.21c5.818 0.801 12.786 6.486 16.937 9.892 6.174 5.146 9.184 11.003 10.807 18.243 1.579 6.968 4.274 12.623 4.234 19.747 0 5.857 1.266 12.546-1.818 17.886-0.87-2.647-9.66-8.585-11.875-10.133-4.589-3.243-9.378-7.242-14.522-9.663-7.877-3.724-15.432-7.952-23.505-11.003-3.048-1.146-10.092-1.225-10.134-4.745 0-1.192 5.778-7.711 6.847-8.79 5.778-5.538 16.185-9.892 17.73-17.845 0.515-0.079 1.032-0.229 5.302-3.598z"></path>
    </svg>