<svg xmlns="http://www.w3.org/2000/svg" viewBox="8.469 13.874 929.762 994.901">
    <path fill="#000000" d="M854.898 237.66c-8.183-1.994-14.813 3.844-18.221 11.008-2.697 5.705-8.71 17.777 3.141 26.311-4.951-1.19-7.955 4.553-10.123 7.871-5.438 8.403-10.215 15.698-20.741 18.266-6.189 1.5-13.531 0.357-19.895 0.357-8.756 0-17.51 0-26.311 0h-60.845c-16.050 0-32.103 0.089-48.199-0.045-6.455-0.045-12.913 0.181-19.414 0.526-1.722-14.15-4.111-28.3-5.838-42.494-2.606-21.27-2.782-42.182-2.782-63.627 0-9.243-0.666-18.661-0.139-27.904 0.232-4.6 1.281-8.71 4.553-12.156-4.377 0.181-2.385-5.309-8.842-8.356-4.998-2.346-10.262-3.979-15.432-6.545-2.123-1.101-4.071-2.078-6.058-3.315-1.949-1.19-5.967-5.393-7.871-5.746-7.693-1.374-1.637 15.96-1.549 20.872 0.269 12.071 6.412 23.61 6.631 36.082 0.232 9.772 2.567 19.146 3.933 28.874 1.639 11.628 0.487 24.099 0.487 35.816 0 17.029-0.044 34.050-0.091 51.073-8.004 0.666-16.010 1.281-24.056 1.637-22.11 0.935-43.866 1.948-66.064 1.948h-135.883c4.242-10.168 7.871-20.741 12.028-30.423 9.904-23.258 15.654-46.872 15.432-72.343-0.139-14.326-0.045-28.657-0.045-42.935-4.156-3.889-6.012-8.801-6.764-13.265-0.577-3.497 0.089-5.352-1.461-8.846-0.703-1.461-1.772-2.875-2.346-4.424-1.101-3.048-1.326-5.882-3.141-8.756-2.034-3.226-4.6-5.393-6.279-8.93-2.43-5.086-4.156-9.197-8.71-12.735-4.912-3.844-15.21-11.582-21.711-8.885-4.775 1.988-5.793 6.541-3.186 10.742 4.377 6.989 12.604 11.895 18.306 17.509 5.882 5.75 12.558 16.669 15.392 24.323 2.078 5.57 1.241 9.375 2.119 14.945 0.539 3.406 2.038 5.838 2.346 9.283 0.269 2.697-0.045 5.705-0.045 8.403 0 5.393-0.181 8.625-1.637 13.62-1.241 4.111-2.522 9.153-2.875 13.394-0.32 3.053 0.703 5.798-0.232 8.714-1.101 3.315-4.647 5.7-5.922 8.976-1.023 2.606-0.884 5.525-1.949 8.222-2.652 7.029-6.768 13.972-9.949 20.826-9.022 19.281-21.008 37.764-36.662 52.577h-37.628c-34.534 0-69.691 1.988-104.132 0.045-12.651-0.703-29.185-6.678-39.181-14.371-6.144-4.735-10.613-10.924-14.809-17.602-2.567-4.111-4.864-8.313-7.653-12.246-3.666-5.174-8.443-8.93-12.246-13.706-4.244-5.352-11.147-15.346-14.24-2.879-1.855 7.342-0.357 17.335 1.013 24.456 1.592 8.45 4.864 14.194 10.083 21.621 3.582 5.041 5.041 10.128 6.723 15.966 3.269 11.498 6.584 23.614 19.633 26.969 7.955 2.038 17.909 0.448 26.045 0.448h45.191c27.062 0 54.299-1.5 81.051 2.741 0.448 0.089 0.935 0.139 1.374 0.232-1.204 0.846-2.346 1.727-3.542 2.567-2.736 1.765-5.214 3.76-7.871 5.615-2.164 1.544-4.907 2.522-7.075 4.066-3.226 2.389-4.066 6.194-7.16 8.714-2.389 1.943-4.69 2.828-7.119 5.219-5.926 5.793-12.735 9.549-18.884 14.898-3.449 3.008-5.041 6.584-9.153 9.067-3.581 2.117-7.65 3.315-11.321 5.304-6.496 3.672-11.805 9.107-18.038 13.265-7.871 5.219-15.343 10.262-22.684 16.143-6.5 5.174-13.972 9.288-21.047 13.621-6.989 4.289-13.046 12.868-18.747 18.835-14.546 15.257-24.188 31.797-31.438 51.559-3.053 8.313-6.455 16.624-8.801 25.203-2.436 8.885-6.058 17.602-6.989 26.885-0.884 8.756-0.795 18.572-0.269 27.326 0.666 11.582 5.037 21.27 9.018 31.837 5.798 15.303 8.976 30.778 17.732 44.752 6.631 10.523 18.572 19.942 28.963 26.488 11.413 7.205 21.711 11.494 34.668 15.432 8.93 2.736 17.732 3.316 26.885 4.998 10.789 1.988 21.492 3.355 32.501 2.875 7.871-0.357 16.361-1.549 24.102-2.834 7.604-1.241 15.386-1.28 22.99-2.828 5.973-1.19 11.849-0.703 17.465-3.269 3.537-1.637 7.342-2.834 11.055-4.424 12.694-5.531 25.248-11.231 35.776-21.536 2.828-2.83 4.201-5.746 6.541-8.885 2.26-2.963 4.69-4.424 6.415-7.961 1.59-3.186 3.004-6.455 4.775-9.688 1.5-2.83 4.023-4.907 5.57-7.559 1.013-1.772 0.357-4.201 0.846-6.149 0.754-2.875 2.963-5.349 3.581-8.398 0.884-4.467 1.371-8.272 2.918-12.606 3.715-10.568 9.064-20.78 8.534-32.194-0.269-5.174-1.013-10.346-2.166-15.343-1.064-4.69-4.377-8.004-5.615-12.82-2.963-11.588-5.264-21.404-12.467-31.223-9.153-12.422-30.997-19.544-45.191-24.363-13.62-4.6-28.833-5.7-43.203-4.508-13.799 1.153-29.76 12.775-38.070 23.393-5.176 6.631-10.128 16.757-9.993 25.291 0.089 9.509-0.703 16.892 4.334 25.382 4.73 8.004 9.817 12.606 17.686 16.584 7.604 3.76 16.318 6.678 25.471 4.467 6.412-1.549 13.487-6.104 20.207-7.208-7.297-6.189-16.892-9.064-23.614-15.784-6.986-6.942-10.789-15.784-8.313-25.648 1.101-4.334 3.141-9.549 5.615-13.354 3.581-5.57 7.65-4.29 13.883-4.29 4.912 0 8.403 0.32 12.957 1.639 3.979 1.19 10.391 0.269 13.709 3.181 1.855 1.682 2.255 3.85 4.023 5.661 2.475 2.567 4.864 3.581 7.342 7.119 2.078 2.963 4.244 6.012 6.012 9.197 4.424 8.004 6.897 18.084 9.509 26.885 3.402 11.764 0.232 23.17-2.346 34.624-3.406 15.035-11.408 25.074-26.4 30.952-9.772 3.803-21.399 4.512-31.921 4.424-16.010-0.091-31.972-0.044-47.976-0.091-19.766 0-36.038-3.23-53.325-13.225-10.573-6.104-17.158-13.487-22.467-24.277-13.132-26.663-5.527-62.214 4.338-88.923 4.686-12.78 10.301-26.441 18.612-37.276 8.138-10.568 15.476-21.844 26.134-30.071 16.183-12.469 33.47-23.302 52.265-31.349 14.592-6.279 27.86-13.843 41.391-22.11 11.849-7.297 22.239-14.111 30.507-25.425 7.208-9.817 16.495-18.572 22.11-29.145 0.409-0.795 0.884-1.5 1.326-2.301 12.071-0.040 24.233-0.526 36.168-0.526 54.036 0 108.073-0.181 162.151 0 13.354 0.045 27.197 1.153 40.376-1.281 3.004-0.577 5.922-1.101 8.885-1.637 0 6.897 0 13.753 0.044 20.65 0.091 10.657-1.414 21.047-2.21 31.615-0.32 4.334-1.504 8.403-2.657 12.469h-2.782c-16.495 0-32.989-0.040-49.482 0-13.003 0-26.222-0.884-39.179 0.487-3.933 0.409-7.916 1.812-11.895 1.727-2.389 17.29 2.741 19.942 10.924 19.855 9.638-0.089 19.276 0 28.874 0h56.817c1.42 0 2.834 0 4.244 0-0.754 16.846-1.682 33.778-1.543 50.584 0.139 13.179-1.153 27.326-3.76 40.239-2.963 14.813-9.197 28.429-11.237 43.425-0.795 5.793-1.064 11.186-2.117 16.886-1.064 6.016-2.475 12.428-2.834 18.486-0.615 9.418-0.972 19.895 2.301 28.874 1.19 3.36 3.492 6.813 1.855 10.391-3.621-2.076-10.835-2.957-14.946-4.195-7.516-2.213-15.21-1.592-22.951-1.592-14.813 0-28.611 0.666-43.028 4.424-10.567 2.741-20.468 5.041-30.774 9.33-5.615 2.301-12.913 4.647-17.862 8.272-3.85 2.782-6.279 7.338-9.153 10.965-6.989 8.71-10.391 21.047-15.432 30.997-8.313 16.407-14.991 29.893-15.609 48.733-0.577 18.924 0.577 41.783 8.885 59.163 2.918 6.101 6.853 8.534 11.102 13.394 4.201 4.912 6.318 11.053 9.33 16.669 2.828 5.438 6.897 10.305 8.004 16.495 0.884 4.998 0.795 10.528 1.414 15.569 0.972 8.045-0.32 18.88 5.882 25.159 4.508 4.553 11.316 5.661 16.358 9.33 3.85 2.787 6.189 7.208 10.262 9.772 2.697 1.725 5.705 2.346 8.356 4.201 1.637 1.153 3.269 3.315 4.862 4.553 5.399 4.201 9.641 5.926 16.361 6.897 13.706 1.994 23.125 2.213 37.101-1.281 12.868-3.269 24.363-7.516 36.612-12.379 7.208-2.834 15.346-3.803 22.819-5.973 8.090-2.301 16.318-3.976 24.456-6.233 7.516-2.078 14.769-5.527 22.196-7.955 27.419-9.067 43.425-30.824 50.628-57.797 2.567-9.594 4.953-30.512 16.763-32.896 13.972-2.787 28.474-5.399 42.405-5.926 6.678-0.232 13.709-1.637 20.389-2.21 8.001-0.666 17.597-3.979 24.937-6.768 8.976-3.449 13.753-7.297 11.453-17.29-7.871-2.475-19.896-0.32-28.3-0.32h-66.282c-7.43 0-18.924-1.901-26.311 0.357 0.232 3.889-2.652 3.492-4.334 6.144-1.461 2.166-1.549 6.415-2.612 8.93-3.537 8.356-9.638 18.707-15.472 26.049-4.244 5.304-8.004 11.231-13.092 15.831-10.301 9.238-19.321 21.622-31.661 28.385-20.117 11.014-43.243 13.932-65.887 13.666-9.549-0.091-17.955-2.346-27.326-4.467-8.885-1.988-18.572-3.094-27.281-6.012-8.664-2.918-17.375-8.801-22.639-16.229-6.233-8.71-14.903-15.302-15.386-26.839-0.448-10.262-0.269-20.078 2.918-29.76 2.782-8.45 6.678-16.049 9.993-24.233 4.907-12.206 5.746-26.578 11.453-38.428 3.094-6.412 9.107-17.114 15.386-19.681 8.534-3.578 18.747-4.334 27.771-6.1 8.356-1.637 15.694 1.281 23.922 2.078 13.179 1.281 26.929 3.492 40.017 5.7 3.269 0.539 10.879 4.116 14.284 2.741 0.448-6.986-4.424-13.487-4.29-20.912 0.091-6.279 0-12.558 0-18.795 0-19.681 2.078-39.443 6.012-58.726 2.963-14.501 2.834-29.621 7.119-43.861 4.29-14.326 6.37-29.009 11.102-43.114 6.279-18.84 8.885-36.439 8.885-56.16 0-12.246 0.091-24.496-0.181-36.656 33.827-0.089 67.697-0.139 101.528 0.089 11.147 0.040 28.879-1.241 35.509-11.055 2.918-4.338 6.718-11.147 6.807-16.54 0-2.918-2.078-4.951-2.522-7.739-0.409-2.475 1.725-7.119-1.988-8.045-4.201-1.101-9.688 8.138-12.383 10.256-4.156 3.186-11.321 6.149-16.318 6.678-8.664 0.884-16.892 2.475-25.648 3.85-15.21 2.43-31.837 0.526-47.269 0.526h-38.957c-0.32-3.76-0.577-7.471-1.101-11.231-1.19-9.418-3.844-19.057-4.242-28.567-0.232-5.393 0.615-10.657-0.357-16.006-0.795-4.334-1.5-8.183-1.637-12.422 4.026 0 8.050 0.040 12.161-0.139 8.49-0.269 16.757-2.255 25.296-2.385 8.138-0.139 16.312 0 24.45 0.139 9.022 0.139 15.744-2.522 24.41-4.111 8.183-1.461 17.069-0.448 25.296-0.357 4.553 0.089 7.604-1.023 11.982-1.949 10.128-2.166 21.492-3.85 31.75-4.73 4.73-0.409 9.107-1.374 13.843-1.994 5.304-0.666 10.657 0.409 15.871-0.666 11.413-2.301 20.473-16.846 24.148-27.766 3.402-10.083 8.313-21.007 9.33-31.485 0.487-4.912 2.918-9.906 2.301-14.813-0.448-3.76-2.034-7.565-2.741-11.321z"></path>
    </svg>