<svg xmlns="http://www.w3.org/2000/svg" viewBox="96.247 59.103 1104.607 944.316">
    <path fill="#000000" d="M1115.15 468.593c-1.856-1.807-2.489-0.829-4.735-1.71-0.582-0.48-1.219-0.974-1.807-1.464-0.455-0.233-0.882-0.233-1.317-0.092-2.438-0.829-3.461-2.247-5.074-4.442-2.636-3.512-6.246-4.146-10.052-5.758-1.367-0.582-2.394-1.464-3.659-2.247-3.417-2.101-7.467-3.271-11.082-4.978-4.636-2.101-9.665-4.882-14.542-6.149-4.686-1.168-9.665 0.829-14.303-0.141-2.826-0.688-4.636-2.636-7.564-1.708-2.731 0.921-3.659 3.366-6.64 3.512-0.921 0.092-2-0.778-2.973-0.829-5.225-0.325-11.033 2.196-16.106 3.029-7.321 1.27-14.789 2-22.066 3.221-3.559 0.533-5.659 2.242-8.933 3.706-0.48 0.18-1.023 0.455-1.561 0.635-1.954 0.045-3.952 0-5.906 0.045-0.416-0.18-0.829-0.272-1.27-0.582-3.461-2.636-2.928-5.906-7.125-8.009-8.787-4.392-18.646-3.024-27.922-4.878-7.368-1.514-10.002-7.569-16.446-10.593-3.221-1.514-7.030-3.512-10.593-3.805-5.953-0.533-11.226 3.805-16.888 6.149-5.71 2.394-12.052 4.392-17.374 7.467-3.608 2.145-2.731 2.636-6.296 1.611-3.075-0.829-6.149-3.17-9.321-4.098-6.59-1.954-13.572-2.687-20.111-4.588-3.952-1.115-8.544-4.927-12.643-5.125-2.928-0.18-2.928 1.464-5.366 2.050-3.075 0.688-7.080 1.023-10.3 1.563-7.074 1.219-14.204-0.18-20.986-2.15-8.74-2.438-12.739-9.226-20.258-12.638-5.367-2.444-9.518-6.982-14.3-10.249-4.638-3.221-9.034-3.908-13.763-6.003-4.785-2.196-4.003-4.784-8.495-0.688-1.758 1.66-3.614 3.615-5.958 4.245-1.611 0.455-3.119-0.325-4.585 0.045-4.638 1.115-8.054 4.978-12.936 6.246-5.176 1.367-9.862 2.343-14.739 4.638-7.614 3.608-15.667 10.589-23.722 12.738-2.54 0.688-5.564-0.545-7.862 0.325-2.731 1.076-6.050 5.76-7.662 8.009-2.248 3.17-3.271 8.151-6.543 10.443-4.877 3.468-15.96 1.611-21.717 1.611-6.689 0-12.643-1.561-19.135-1.854-2.636-0.141-6.54-0.533-9.175-0.045-2.636 0.545-3.659 2.444-6.247 3.366-8.74 3.029-18.743-1.415-27.236-2.928-2.883-0.533-6.933 0.582-9.474-1.076-2.050-1.317-1.611-3.366-3.023-4.882-1.904-1.999-3.316-2.394-5.66-3.659-5.372-2.833-9.13-8.251-15.476-9.277-6.883-1.115-11.906 1.367-18.643-2.877-5.468-3.512-7.614-4.735-14.204-6.346-4.392-1.115-7.957-4.292-12.205-5.316-2-0.455-4.539 0.582-6.64 0.272-1.657-0.233-3.706-1.758-5.22-1.758-1.954 0.045-4.343 1.854-6.101 2.782-5.417 2.877-11.032 6.737-17.132 7.858-4.003 0.727-8.201 0.325-12.255 0.974-3.513 0.582-7.029 1.514-10.59 1.954-9.181 1.168-16.888 0.882-25.77-0.582-3.125-0.494-6.396 0.092-9.474-0.325 0.782 0.141-4.292-1.561-4.343-1.561-4.832-0.141-11.032 6.737-14.643 9.761-4.245 3.564-7.519 7.276-12.25 10.059-2.928 1.758-4.441 2.782-6.639 5.125-1.367 1.561-2.146 2.438-3.074 2.928-0.974 0.092-1.954 0.141-2.928 0.272-0.411-0.045-0.635 0-1.023-0.092-7.372-0.829-14.986-0.455-22.601-0.921-6.59-0.416-11.861-7.079-18.497-5.225-4.245 1.129-5.564 3.271-10.059 3.366-2.782 0.092-5.417 0-8.101-0.363-5.225-0.935-10.3-2.050-14.986-4.685-3.462-1.954-2.585-1.415-7.372-2.438-4.832-1.023-6.883-6.25-10.639-7.277-2.979-0.778-4.295 1.168-6.59 1.807-5.322 1.561-11.129 1.317-16.106 3.856-6.883 3.461-11.079 9.417-17.425 14.249-6.492 5.029-12.936 2.979-20.304 4.345-4.2 0.829-8.054 2.973-12.351 3.412-2.833 0.233-9.665-1.27-11.276 1.514h7.175c-2.292 0.233-4.782 0.233-7.175 0.141-0.535 1.27 0.411 3.271 0.681 4.442 1.418 5.169 2.686 9.856 3.030 15.228 0.182 3.075-0.182 2.826 3.659 3.17 2.973 0.233 6.59-0.18 9.563-0.272 12.154-0.272 24.261-0.635 36.414-0.935 8.883-0.272 17.762-0.635 26.65-0.829 11.906-0.18 23.526 1.807 35.531 1.758 7.711 0 14.592 0.829 22.162 1.415 11.080 0.727 22.302 0.545 33.337 1.076 8.933 0.494 17.667 2 26.699 2.489 10.688 0.533 21.037 1.076 31.674 2.050 9.277 0.829 18.646 0.974 27.872 2.145 11.372 1.417 22.162 0.272 33.629 0.325 10.593 0 20.893 0.829 31.532 0.533 11.518-0.363 23.039-0.882 34.558-1.023 12.981-0.141 25.77 0.778 38.949 0.363 18.010-0.533 35.678 0.363 53.642 0.141 21.571-0.325 43.342-4.882 64.868-6.539 17.374-1.317 34.799-1.464 52.224-1.905 29.528-0.778 59.647-2.928 88.931 0.18 23.575 2.54 46.953 1.514 70.822 0.727 8.691-0.272 16.985 0.688 25.624 0.727 12.35 0.043 24.797-1.023 37.193-1.115 8.984-0.092 17.717 1.219 26.6 1.66 9.956 0.533 18.207-0.233 28.018 1.464 11.664 2.050 22.645 2.584 34.704 2.292 3.608-0.092 6.639 0 10.007-0.935 5.659-1.611 9.372-3.412 15.419-3.608 4.539-0.043 9.519-2.145 13.763-1.708 2.979 0.325 5.957 2.096 9.181 1.219 3.608-0.921 6.443-4.539 9.226-6.781 2.343-1.807 5.317-3.417 6.781-6.003 1.129-1.954 0.727-2.050-1.076-2.687-1.317-0.494-2.394-0.882-3.512-2z"></path>
    <path fill="#000000" d="M455.462 214.086c-4.098 10.053-4.343 19.571-4.343 30.259 0 14.936 0.319 29.725 3.221 44.419 2.439 12.154 11.664 18.303 21.622 24.499 12.396 7.76 26.063 11.521 40.318 14.497 8.787 1.856 17.374 2.343 26.356 2.343 7.322 0.045 14.497 0.18 21.234-3.17 12.885-6.492 22.938-17.082 35.238-24.257 12.396-7.225 25.478-15.476 32.75-28.361 3.564-6.197 6.104-13.032 9.372-19.374 3.468-6.689 2.979-11.766 3.030-19.036 0-8.838-0.319-15.425-3.761-23.478-2.928-6.883-5.757-13.96-8.787-20.696-4.877-10.933-14.3-21.622-23.281-29.477-4.049-3.564-8.005-7.614-12.593-10.447-3.659-2.292-7.907-3.952-11.715-6.101-3.706-2.15-6.101-4.245-10.59-4.492-8.691-0.363-17.475 0.494-26.164 0.18-4.539-0.141-8.883-0.935-13.224-1.758-1.71-0.272-2.636-0.533-4.346-0.18-4.098 0.974-8.641 3.175-12.542 4.784-7.372 3.024-14.4 8.201-20.598 13.178-8.74 7.125-16.398 14.79-23.771 23.379-8.298 9.614-12.688 21.723-17.425 33.289z"></path>
    <path fill="#000000" d="M668.51 759.75c-1.464-0.416-4.196-1.514-5.761-2.247-1.51-0.688-2.388-1.954-3.755-2.979-2.050-1.611-5.074-2.438-7.76-2.877-6.686-1.115-14.3 0.363-20.941 0.829-1.268 0.043-3.125 0.233-5.029 0.416 1.367-2.003 2.686-4.054 3.856-6.053 0.974-0.688 2-1.367 3.023-1.854 7.322-3.175 15.374-5.519 22.798-8.155 3.462-1.168 5.22-2.782 7.125-5.954-3.023-0.935-22.111 5.564-22.353 1.27 4.782-1.656 9.665-3.075 14.542-4.438 1.954-0.582 4.686-0.882 6.396-2.050-1.71-1.565-5.078-2.928-7.226-4.003-3.856-2-8.104-1.66-12.25-2.394 0.459-1.27 0.681-2.535 1.023-3.755-1.418 0.325-2.928 0.688-4.295 0.778-1.415 0.043-2.782-0.043-4.196-0.092h-7.423c-8.933 0-17.521 0.141-26.356-1.51-9.029-1.71-18.105-0.141-27.281 0.233-0.459 0.141-0.928 0.233-1.513 0.043 0.535 0 1.023 0 1.513-0.043 0.778-0.233 1.364-0.882 2.095-1.415 2.297-1.807 2.686-2.444 5.519-1.954 4.539 0.727 7.468 1.415 12.154-0.233 4.049-1.418 8.005-0.545 12.008-1.856 1.949-0.688 3.706-2.292 5.71-2.826 1.949-0.494 3.853 0.092 5.856-0.455 1.51-0.416 1.803-0.829 3.462-0.974 1.561-0.092 3.609 0.494 5.074 0.092 0.833-0.18 0.979-1.023 1.758-1.168 1.564-0.272 3.221-0.272 4.832-0.688 5.665-1.27 10.644-1.905 16.449-1.854 1.17 0 2.878-0.18 4.686-0.325 2.832-1.758 5.564-3.706 8.691-4.832-0.043-3.266-3.659-3.366-6.053-3.366-4.196 0-7.322-0.18-10.688-1.464 0-2.196-0.18-4.245-0.586-6.343-1.758-0.141-3.462-0.141-5.22-0.325-5.271-0.582-10.3-1.168-15.183-3.417-3.023-1.364-4.245-1.708-2.878-5.22 2.146-5.469 7.080-4.49 11.664-5.029 1.71-0.18 3.418-0.829 5.078-1.464-1.418-2.973-2.832-6.002-4.346-8.882 6.786-0.974 16.207-2.833 14.596-5.418-5.614-0.882-10.79-0.494-16.207-2.731-1.803-0.727-3.706-1.514-5.564-2.247-5.316-5.954-11.906-10.74-18.742-15.031 1.758-0.494 3.806-0.829 4.832-1.563 1.023-0.778 3.513-2.68 3.176-4.245-0.49-2.196-2.394-0.727-3.856-1.076-1.561-0.325-1.513-1.807-2.585-2.297-2.591-1.317-7.957-0.18-10.79-0.18-1.707 0-3.559 0.043-5.417 0.141-0.631-0.494-1.268-0.935-1.904-1.417h-2.144c-2.636 0-5.907 0.935-7.665-1.076-1.072-1.27-0.459-3.761-2.68-4.735-3.176-1.367-7.569-0.582-11.082-1.758-1.023-0.233-2.050-0.635-3.023-1.219-0.138-0.635-0.275-1.219-0.413-1.854-4.346-4.003-11.619 0.141-16.792-1.758 0.319-2.782 7.811-3.366 9.474-3.608 2.973-0.455 5.904-1.023 8.832-1.66-0.275-0.18-0.586-0.363-0.925-0.533-6.737-3.366-13.91-3.271-21.186-3.221-9.029 0.043-17.571 0.533-26.403 2.387-2.686 0.545-5.372 1.168-8.008 1.856 0.686 0.092 1.367 0.141 2.101 0.325 3.024 0.778 4.295 1.023 2.928 3.029-2.197 3.119-7.125 2.584-11.664 2.877-3.271 0.18-6.346 1.219-9.569 1.66-2 0.233-4.196 0.325-6.199 0.635-1.17 0.141-2.343 0.416-3.462 0.635-2.197 1.076-4.343 2.145-6.444 3.417-5.367 3.366-10.447 6.737-14.446 10.933-2.489 1.219-4.295 3.366-6.737 4.782-4.492 2.54-16.938 7.129-10.688 15.476 0.974 1.317 2.489 1.656 3.902 2.343 0.928 0.455 1.707 0.921 2.489 1.464 1.611 0.325 2.54 1.023 4.635 2.438 2.197 1.464 6.003 3.317 8.593 3.952 2.973 0.727 5.806 1.076 8.495 2.636 1.464 0.829 2.146 0.829 3.706 1.317 1.317 0.416 1.954 1.514 3.468 1.66-1.367 3.119-2.444 4.585-5.907 5.024-4.588 0.582-8.397 1.954-12.834 3.322-3.074 0.921-5.564 2-8.495 3.463-0.275 0.092-0.586 0.233-0.928 0.363v0.635c-0.782 0.882-1.561 1.66-2.489 2.292-2 1.418-3.856 3.031-5.806 4.345-2.489 1.656-5.176 1.905-7.957 2.782-2.489 0.727-4.832 3.559-1.854 5.904 1.121 0.882 2.343 0.416 3.659 0.778 2.636 0.829 4.098 3.417 7.074 3.856 2.489 0.416 5.078 1.076 7.716 1.656 0.227 3.221 0.681 6.346 1.415 9.519 1.268 0.092 2.439 0.092 3.367 0.18 7.125 0.582 11.861 1.807 19.526 1.758 5.271 0 5.417-0.092 8.978 0.829 6.396 1.66 11.715 4.2 18.207 5.761 3.755 0.935 9.13 0.935 13.127 1.954 14.157 3.559-26.257 4.878-32.113 5.513-6.297 0.727-12.644 1.807-19.183 1.905-1.807 0.043-3.564 0-5.372 0 0.413 0.882 0.731 1.708 1.074 2.636-2 0-4.003 0.043-6.15 0.043-6.737 0-14.739-1.563-19.914 4.049-2.101 2.394-8.054 6.002-5.125 9.321 1.758 2.003 5.271 1.317 7.468 2.003 2.394 0.688 8.444 2.050 9.715 4.292-1.611 0.416-6.883 1.317-7.519 2.636-0.182 0.455 13.567 0.233 14.739 0.18 2.248-0.043 4.979-0.141 7.226 0.533 1.66 0.494 2.636 1.27 3.659 2.636 0.681 0.935 1.464 1.807 2.247 2.687 4.635-0.18 9.271-0.141 13.861-0.882 10.008-1.514 19.037-4.149 29.235-3.221 8.201 0.778 15.425 4.978 23.821 5.322 2.292 0.092 7.954-0.727 9.811 0.455 4.196 2.489-3.907 3.412-5.468 4.049-2.489 0.974-5.367 2.584-7.614 4.196-2.394 1.71-4.196 5.957-6.787 6.786-1.023 0.272-2.782-0.141-3.806-0.233-5.71-0.545-10.25-0.092-15.712 1.51-5.417 1.611-10.396 0.582-15.768 0.935-2.636 0.18-4.731 1.115-7.029 0.18 0.367 0.325 0.54 0.727 0.833 1.076 4.686 5.176 11.226 5.225 17.324 7.614 4.686 1.856 8.887 2.15 13.864 2.196 2.292 0 4.585 0.233 6.883 0.494 3.074 1.317 6.393 2.731 9.417 3.417 1.71 0.455 2.686 0.141 4.346-0.18 1.364-0.233 2.68-0.455 4.049-0.688 2.686 0.233 5.71 0.141 7.76-0.935 0.49-0.043 0.928-0.092 1.415-0.092 8.691-0.272 17.475 0.533 26.209 0.141 3.564-0.141 5.856-1.563 8.544-3.221-1.561-1.514-3.023-3.075-4.735-4.345-2.534-1.803-4.979-2.196-7.662-2.973-2.343-0.727-6.104-2.636-2.686-5.125 3.659-2.636 10.008-4.054 14.204-5.078 2.686-0.688 4.832-1.464 8.104-0.778 0 0.363 0.043 0.778 0.092 1.115 1.464 0.582 3.074 0.455 4.686 0.494 6.002 0.233 12.008 0.778 18.010 0.829h1.023c2.439-1.514 4.979-2.731 7.665-2.247 1.023 0.141 2 1.076 3.119 1.367 1.856 0.455 4.492 0 6.492 0 0.827-0.043 1.66-0.233 2.439-0.272 1.513-0.272 2.928-0.494 4.441-0.727 4.686-1.168 9.226-2.782 14.204-2.833 4.295 0 5.074-1.219 9.321-2.973 4.588-1.905 9.372-3.71 14.057-5.271 2.197-0.727 6.493-0.974 8.544-2.444-5.029-0.363-9.811 3.417-14.936 2.003z"></path>
    <path fill="#000000" d="M596.372 537.114c22.060 1.758 43.536 2.489 65.599 2.438 11.080 0 22.156-0.233 33.24-0.092 11.029 0.141 21.475 1.905 32.407 3.075 9.766 1.023 20.207-0.688 29.725 2 6.836 1.854 12.987 5.469 20.016 6.832 5.464 0.416 10.933 0.635 16.398 0.545 5.17 0.363 10.199 1.464 15.082 3.266 9.226 2.050 18.010 1.563 27.382 0 6.928-1.611 13.957-2.68 21.037-3.221 4.049 0.141 8.054 0 12.059-0.582 9.175-1.023 17.813-4.049 27.134-4.343 7.129-0.272 14.106 1.076 21.284 1.219 13.667 0.233 27.382-3.564 40.999-1.514 9.861 1.514 18.939 2.101 29.042 1.66 8.933-0.416 17.425-0.582 26.257 0.882 4.735 1.168 9.519 1.905 14.4 2.096 5.125-0.582 10.154-1.51 15.177-2.826 6.543-0.974 10.498 0 16.792 0.582 7.074 0.635 13.91-2.050 20.941-2.297 2.343 5.225-14.79 8.64-17.818 9.277-13.47 2.928-25.964 8.735-39.243 12.592-14.739 4.245-30.31 4.098-45.586 3.805-11.422-0.233-22.696-0.533-33.632-4.098-28.158-9.32-58.815-5.613-87.316 0.233-28.946 6.053-58.769 7.276-88.149 4.784-12.447-1.076-24.944-4.149-37.39-4.539-11.811-0.416-23.526-1.418-35.092-3.71-5.029-0.974-10.008-2.438-15.037-3.461-7.322-1.565-14.834-1.611-22.257-2.196-14.885-1.168-29.382-3.805-44.076-6.397-17.813-3.075-37.53-2.145-55.445-0.141-9.614 1.076-18.84 1.168-28.552 1.168-5.806 0-11.080 0.043-16.789-1.168-3.468-0.778-6.786-1.219-10.351-1.317-1.657-0.043-9.417 1.27-10.982-1.115 0.782-1.115 1.807-2.877 2.928-3.71 2.15-1.708 5.958-1.464 8.544-1.854 4.441-0.688 8.787-1.854 13.127-2.979 8.984-2.343 18.449-3.999 27.776-3.755 7.175 0.18 13.861 2.101 21.183 1.168 6.393-0.829 12.542-3.417 18.939-3.608 3.265-0.092 6.54 0.416 9.76 0.141 1.954-0.043 3.755-0.688 5.614-1.219 0.778-0.18 6.196-2.687 7.808-2.489 1.418 0.18 2.248 1.367 3.907 1.464 0.092 0.272 0.092 0.635-16.838 3.417z"></path>
    <path fill="#000000" d="M386.86 559.013c-23.332 1.464-46.616 0.533-69.897 2.438-16.106 1.317-32.31 2.833-48.124-1.219-10.492-2.68-21.329-3.755-32.119-3.706-5.023 0.043-7.858-0.18-12.637 2.096-4.735 2.247-9.13 5.078-13.667 7.614-1.611 0.882-3.902 1.565-4.196 3.659-0.731 4.832 8.101 5.029 10.053 5.176 12.885 0.635 25.866-0.533 38.802 0 14.204 0.635 28.209 2 42.366 2.145 10.933 0.043 21.672 2.196 32.554 2.636 7.372 0.272 15.374-1.168 22.696-0.363 5.125 0.533 8.593 2.394 12.643 5.564 5.367 4.149 11.178 3.659 17.622 2.584 4.782-0.778 9.468-1.758 14.395-1.854 5.417-0.092 8.641-0.092 13.864-2 3.806-1.367 7.954-3.71 12.053-4.149 1.904-0.233 3.615 0.043 5.519-0.635 2.928-0.921 6.737-1.656 7.907-4.927 2.877-8.298-9.423-7.564-14.449-8.984-6.737-1.854-13.714-1.168-20.647-1.168-2.095 0-4.877 0.582-6.883-0.233-1.415-0.533-2.928-1.854-4.392-2.489-6.59-2.782-11.226-3.317-3.462-2.145z"></path>
    <path fill="#000000" d="M1051.958 623.571c-15.228 0-30.406-0.043-45.637 0-6.199 0-12.497 0.18-18.694 0.043-5.761-0.18-10.249-2.242-15.476-4.245-13.91-5.316-28.501-7.030-43.291-6.928-16.838 0.092-32.996 1.168-49.443 4.782-5.857 1.27-11.228 2.394-16.5 5.125-7.907 4.149-18.449 4.539-27.185 4.832-9.277 0.272-18.303 0.092-27.579 0.935-3.266 0.325-6.539 0.416-9.811 0.974-1.51 0.233-2.878 0.688-4.438 0.635 2.292-0.18 4.686-0.233 6.978-0.233 6.639-0.043 8.251 1.611 11.715 6.689 2.833 4.245 5.029 6.343 10.154 7.467 11.080 2.584 22.889 2.973 34.214 3.024 16.157 0.043 31.776-3.805 47.882-4.685 8.787-0.494 17.718-0.455 26.503 0.141 15.763 0.882 31.482 4.245 47.296 3.075 13.031-0.935 25.529 0.882 38.509-0.935 10.3-1.415 20.843-0.325 31.042-2.389 4.196-0.778 7.958-2.444 12.301-2.591 4.149-0.092 8.298 0.416 12.447-0.092 3.221-0.272 19.085-3.317 19.425-8.397-3.17-3.266-10.396-2.877-14.542-4.196-2.343-0.778-4.492-1.807-6.883-2.394-3.615-0.974-6.983-1.758-10.498-3.119-4.343-1.71-8.735-1.168-8.495 2.489z"></path>
    <path fill="#000000" d="M907.005 711.299c-3.659-0.829-6.639-1.219-10.498-1.219-18.35 0.092-36.704 0-55.102 0-26.114 0-52.129-1.27-78.243-1.219-9.665 0-21.137-2.096-30.113 1.856-4.979 2.145-8.933 5.271-13.616 7.662-3.074 1.563-6.883 1.219-9.862 2.979 0.974 2.101 7.271 0.688 9.277 1.023 3.074 0.533 5.22 2.636 7.858 4.098 5.417 2.979 11.766 3.608 17.768 4.442 19.036 2.389 38.263 2.389 57.203 5.366 5.513 0.829 10.886 2.394 16.449 2.877 6.003 0.494 12.103 0.272 18.106-0.092 11.371-0.727 22.404-2.050 33.483-4.636 5.372-1.219 10.689-2.884 16.207-3.512 3.461-0.455 7.030 0 10.492-0.18 7.711-0.325 14.936-2.979 22.55-3.512 1.954-0.18 3.755 0.043 5.71 0.043 4.882 0 8.984-1.168 13.763-2.297 5.513-1.27 10.198-1.364 15.718-1.364 3.608-0.043 10.249-1.317 12.199-5.078 4.492-8.735-14.249-8.054-18.595-9.226-9.563-2.535-19.52-1.656-29.477-1.656-5.372 0-10.935-0.545-16.207 0.688-3.805 0.829-8.1 3.71 4.931 2.979z"></path>
    <path fill="#000000" d="M847.304 825.797c-41.827 0-83.854 0.974-125.635 0.141-7.711 0.043-15.324-0.727-22.842-2.247-4.782-1.27-9.715-2.196-14.592-2.782-10.982-0.727-20.016 4.735-30.507 6.053-2.979 0.325-5.659-0.272-8.59-0.092-2.979 0.272-5.811 1.076-8.593 2.196-4.245 1.168-8.59 2.101-12.93 2.928-12.885 3.271-25.332 8.593-38.121 12.301-5.659 1.611-11.178 2.738-17.082 3.468 40.217-0.974 80.63-0.325 120.754 1.364 13.667 0.635 26.797 2.196 40.172 4.149 8.101 1.219 16.838 1.954 25.039 1.905 13.91-0.141 27.916-2.584 41.631-4.539 10.154-1.464 19.135-3.608 29.385-2.584 7.564 0.727 14.446 0.727 22.060-0.272 5.418-0.727 10.689-1.076 16.157-1.27 9.665-0.233 18.84-3.075 28.501-2.489 7.76 0.455 17.768 3.564 24.505-2.096-5.76-3.71-11.031-7.714-17.524-10.205-4.636-1.758-9.417-3.075-14.351-3.559-3.266-0.325-7.221-0.233-10.296-1.367-3.761-1.367-6.492-4.149-10.498-5.176-4.832-1.27-10.103-0.727-15.082-0.688-5.758 0-11.569 0-1.561 4.882z"></path>
    <path fill="#000000" d="M277.266 694.212c14.303 0 29.092 1.076 43.392-0.455 12.936-1.364 25.573-4.438 38.606-5.611 11.912-1.129 22.798-1.317 34.659 0.18 0.275 2.636 2.292 3.322 2.731 5.761 1.513 7.417-7.080 6.346-11.766 6.737-5.125 0.455-9.811 0.727-14.497 2.979-1.364 0.688-2.731 1.611-4.098 2.292-8.005 3.71-16.739 2.979-25.23 1.807-6.883-0.882-13.616-1.807-20.55-1.317-6.003 0.455-11.715 1.27-17.718 0.325-11.861-1.905-23.332-1.803-35.289-1.803-5.71 0-11.619 0.533-17.328 0.092-2.439-0.18-4.635-1.219-7.074-1.367-1.513-0.092-3.221 0.582-4.638-0.043 3.761-4.685 11.082-6.346 16.449-8.155 4.003-1.415 8.397-3.853 12.542-4.636 2.737-0.533 4.638 0.582 7.372 0.778 7.226 0.582 14.739-0.043 21.914-0.043z"></path>
    <path fill="#000000" d="M721.86 895.208c-14.204-0.233-28.113-2.343-42.317-2.54-15.425-0.18-30.85 0.092-46.273 0.043-19.282-0.043-39.050-0.688-58.279 1.803-12.936 1.66-25.433 3.952-38.56 4.296-16.495 0.455-32.361-0.582-47.589-7.225-17.374-7.564-36.462-7.858-54.714-3.559 0.182 4.685 0.092 10.002 2.388 14.249 2.197 4.2 5.225 4.442 9.665 5.469 5.029 1.115 10.008 2.394 15.082 3.366 10.497 2.050 21.284 4.296 31.922 5.761 13.96 1.949 28.215 1.51 42.317 1.561 7.029 0 13.91-0.688 20.941-1.115 2.832-0.141 5.176-0.092 7.811 0.882 9.811 3.366 18.596 5.22 29.042 5.074 12.103-0.092 23.135-0.727 34.946-3.659 8.201-2 15.959-5.954 24.454-4.636 7.417 1.115 14.84 0.727 22.207 1.51 8.054 0.935 15.622 0.582 23.624-0.272 7.080-0.778 13.42-0.141 20.258-2.68 4.196-1.514 8.787-2.782 12.784-4.735 2.197-1.115 7.276-4.245 6.199-7.518-0.635-2-2.636-1.854-4.343-2.535-2.54-0.935-4.441-2.928-6.933-3.908-3.902-1.51-8.151-1.115-4.635 0.416z"></path>
    </svg>