<svg xmlns="http://www.w3.org/2000/svg" viewBox="55.511 44.826 960.300 961.458">
    <path fill="#000000" d="M628.125 811.387c-3.272 5.79-5.35 12.119-9.594 17.375-2.122 2.606-5.437 3.984-7.915 6.329-2.83 2.694-5.261 5.616-8.621 7.644-3.536 2.119-11.451 5.84-15.739 5.616 0-3.007 6.853-2.831 8.755-3.934 3.094-1.819 6.984-6.505 9.282-9.375 2.919-3.533 4.865-8.396 6.368-12.778 1.416-4.023 3.669-8.396 4.023-12.644 0.79-9.198 0.264-17.906-3.227-26.306-3.006-7.256-2.919-13.751-8.797-19.806-2.431-2.569-6.19-4.374-5.437-8.483 0.175-1.629-1.856-1.003-4.069-3.094-1.458-1.418-1.281-3.533-3.318-4.913 4.331-0.090 8.444 3.094 12.909 3.221 4.685 0.251 9.859 2.831 13.131 6.279 3.934 4.198 6.675 10.215 8.666 15.606 2.344 6.279 5.306 12.6 6.056 19.366 0.615 6.368 0.576 14.456-2.476 19.894zM563.266 827.164c-3.050 2.831-5.041 6.543-8.046 9.512-3.536 3.496-7.163 6.894-10.567 10.477-4.023 4.335-8.666 7.957-12.38 12.506-2.033 2.431-4.376 4.863-6.455 7.206-1.281 1.455-5.481 5.753-7.559 5.389-2.078-3.408-3.536-7.294-4.686-10.967-0.803-2.481-1.104-5.214-1.944-7.606-0.803-2.119-1.769-3.131-2.919-5.175-1.944-3.408-2.696-5.653 1.281-7.519 3.934-1.856 7.119-4.462 11.097-6.68 2.962-1.629 5.041-3.797 7.781-5.928 3.934-3.094 8.666-4.636 12.069-8.396 3.494-3.973 7.781-7.82 10.256-12.506 5.083-9.55 10.611-19.453 1.547-28.294-3.405-3.408-8.797-10.075-13.573-11.369-3.227-0.877-6.41-0.752-9.817-2.119-3.669-1.418-6.719-3.408-9.904-5.967-2.962-2.431-5.128-3.934-6.719-7.519-0.89-1.994-1.725-1.542-0.264-3.358 0.489-0.626 4.731-2.869 5.306-3.321 4.685-3.094 9.681-5.526 14.456-8.396 3.625-2.169 5.083-2.656 7.915 0.502 3.182 5.175 5.616 10.215 10.302 13.925 1.681 1.328 3.581 2.344 5.128 3.847 3.714 3.583 7.428 7.431 11.097 11.054 4.819 4.825 9.681 10.302 13.881 15.562 3.182 3.973 7.87 8.396 10.433 12.731 1.99 3.321 0.927 3.672-2.078 5.84-3.405 2.519-4.994 4.725-7.559 8.045-5.174 6.68-11.981 12.867-18.081 18.569zM513.181 652.045c1.191-3.182 5.261-3.934 8.002-3.271 2.785 0.626 3.714 1.68 7.030 1.68 6.41-0.089 12.776 0 19.187 0 12.556 0 24.272-0.877 36.694-2.744 6.368-1.003 12.469-2.344 18.656-4.023 2.298-0.626 9.106-0.375 10.389-2.256-0.489 6.104-0.090 12.419-0.090 18.569 0 3.672 1.634 12.244-1.458 14.723-4.112 3.221-10.213 2.569-14.632 1.418-6.808-1.769-15.739-0.375-22.769-0.375-3.714 0-7.428-0.044-11.184-0.044-4.421 0.090-8.532 1.542-12.955 1.73-4.994 0.251-9.946-0.502-14.944 0.251-5.172 0.752-10.611 2.744-15.827 2.957-2.211 0.044-3.758 0.626-4.643-1.555-0.665-1.629 0.137-6.229 0.137-7.907 0-3.884 1.016-9.235 0.090-12.996-0.576-2.206-2.211-3.759-1.681-6.141zM518.269 606.343c0.401-0.125 0.79-0.125 1.281 1.278-0.526-3.131 1.944-6.418 2.696-9.375 1.369-5.352 3.227-9.024 6.719-13.264 2.607-3.094 6.232-4.599 9.77-6.68 3.182-1.906 6.101-4.599 9.373-6.318 7.606-4.111 13.352-3.984 21.795-3.984 6.056 0 13.529-1.254 19.454-0.089 5.57 1.003 9.373 2.519 12.424 7.431 2.256 3.533 5.083 7.469 6.942 11.318 0.752 1.592 1.944 3.847 2.387 5.439 0.665 2.381 0.175 4.863 0.752 7.256 0.401 1.856 1.241 3.408 1.191 5.928 0 2.031-0.702 5.666 0.89 7.119-1.99 2.831-15.918 2.606-19.187 1.629-2.696-0.752-1.901-0.375-2.344-3.182-0.175-1.278-0.314-3.583-0.044-4.775 0.89-4.374 3.094-8.007 1.369-12.82-2.298-6.279-11.319-10.389-17.155-11.017-3.318-0.251-6.056-1.856-9.506-1.592-3.405 0.251-8.046 1.642-11.184 3.182-4.994 2.519-10.035 6.191-12.203 11.456-1.592 3.847-1.241 6.856-1.901 10.791-0.576 3.408-1.769 5.84-1.634 9.462 0.090 5.666-1.191 4.825-6.368 4.775h-9.55c-4.421 0-7.339 1.592-7.915-3.131-0.489-4.023 1.281-7.031 1.944-10.828zM524.505 265.436c6.456-0.375 11.582-8.182 16.844-11.406 1.416-0.877 4.555-3.358 7.25-4.95-2.387-3.934-6.765-6.894-10.125-9.637-4.112-3.408-3.536-7.87-4.598-12.381-0.489-2.294-1.416-2.781-1.681-5.476-0.264-2.656-1.154-4.549-1.592-7.169 0.89 1.003 1.369 1.542 1.725 2.031-0.489-1.856-1.901-3.496-2.52-5.175-0.89-2.381-0.803-4.374-0.803-7.169 0.044-5.125-2.122-11.179 4.819-10.302 3.36 0.375 7.119 3.973 9.506 6.318 1.99 1.943 1.592 3.094 1.547 6.368-0.044 3.007 0.044 5.175 1.191 7.957 1.547 3.797 3.139 8.934 6.19 11.806 4.907 4.549 9.282 9.375 14.502 13.529 3.581 2.92 8.886 5.565 11.849 9.111 3.979 4.825 5.616 11.092 7.294 16.931 0.576 2.031 1.416 3.622 2.431 5.088 2.963-3.583 5.792-7.256 8.71-10.828 1.281-1.592 2.783-3.973 4.907-4.425l3.139-4.775c2.83 3.321 6.586 5.967 10.389 7.781 2.741 1.278 4.288 1.542 3.758 5.175-0.576 3.496-3.581 5.576-5.747 7.957-2.387 2.656-4.643 5.928-6.631 8.934 3.536 2.431-0.665 6.856-1.592 10.791-1.104 4.374 0.576 11.142-4.865 12.954-4.112 1.418-8.71-2.744-12.731-4.023-4.288-1.368-10.875-1.592-14.413-4.725-3.494-3.144-3.272-10.302-5.747-14.678-1.191-2.081-2.476-4.161-4.023-6.017-0.576-0.626-1.814-0.877-2.431-1.769-1.104-1.542-1.067-3.847-1.856-5.565-0.090-0.125-0.225-0.375-0.314-0.626-0.314 1.254-1.067 2.081-2.874 2.831-1.458 0.626-2.298 0.044-3.625 1.128-1.191 0.877-1.592 2.519-2.609 3.583-3.625 3.934-9.106 5.476-12.556 9.637-1.856 2.256-3.050 4.636-5.526 1.629-2.476-3.094-2.387-8.974-4.288-12.6-1.369-2.606-4.555-4.425-2.919-7.87zM594.031 192.251v-1.592c0.090-0.502 0.175-0.877 0.264-1.328 5.881-1.769 14.768-1.003 15.606 6.017 0.84 7.031 1.104 16.532-2.52 22.37-2.874 4.725-5.306 4.599-10.169 4.636-2.919 0-7.206-0.877-9.282-3.094-1.99-2.119-1.856-6.856-1.856-9.587 0.044-1.418-0.264-3.182-0.137-4.549 0.576-5.352 3.714-9.55 8.091-12.867zM613.124 412.56c-0.615 3.759-2.741 6.894-4.467 9.951-2.298 3.934-4.331 8.221-6.368 12.331-1.016 2.031-1.325 4.462-2.696 6.329-0.665 1.003-1.592 1.542-2.211 2.519-0.665 1.003-0.175 3.094-1.725 3.672-0.175 0.044-0.314 0.044-0.438 0.044 0.175 0.502 0.438 1.003 0.752 1.455 0.615 0.752 1.99 1.254 2.476 2.031 0.977 1.73 0.351 4.285 0.351 6.191-0.090 6.894 0.79 14.058-1.241 20.557-1.241 3.934-2.783 6.329-5.041 9.775-2.078 3.094-2.919 5.666-6.145 7.87-1.681 1.128-2.654 1.455-4.112 2.744-2.696 2.294-4.331 5.703-6.942 8.007-2.609 2.119-2.52 0.877-5.083 2.081-1.769 0.752-4.598 2.656-6.544 2.781-1.416 0.125-3.449-1.856-4.509-1.592-1.067 0.251-2.167 0.125-3.227-0.251-1.067-0.877-2.122-1.769-3.182-2.656-3.536-1.505-9.55-0.251-13.441-0.251-3.892 0.044-9.418-0.090-10.433-4.725-0.752-3.408-0.351-6.054-3.006-8.934 10.522 5.616 23.431 2.569 33.777-1.994 12.246-5.389 17.595-22.902 12.246-35.017-1.154-2.606-3.006-4.863-4.156-7.556-0.526-1.368-0.79-3.271-1.191-5.038-1.725 0.089-3.405 0.089-5.041-0.089-5.925-0.626-12.069-3.884-17.464-6.418-6.368-3.007-13.131 0.044-19.63-1.906 1.592-3.271 0.927-6.894 2.962-9.988 1.067-1.629 2.565-2.569 3.094-4.725 0.576-2.519 0.264-5.214 0.89-7.87 0.977-4.111 0.401-8.132 1.154-12.294 0.84-4.775 2.52-9.55 4.023-14.147 1.547-4.599 3.669-9.198 3.581-14.058 7.825 0 12.291-0.752 15.12 0.752 3.845 2.081 2.169 4.549 0.89 8.007-1.154 3.271-1.681 6.719-2.919 9.951-0.615 1.769-1.725 3.182-2.122 5.038-0.401 2.119 0.526 4.335-0.225 6.505-1.191 3.759-4.331 5.038-1.281 7.87 2.122 1.994 4.952 1.368 7.606 1.943 0.977 0.125 2.078 1.128 3.494 1.254 1.592 0.251 2.874-0.125 4.467 0.375 1.154 0.251 1.901 1.003 3.449 1.254 1.503 0.125 3.272-0.044 4.819-0.044 6.896 0 11.718 1.418 13.881-6.279 1.154-4.285 2.344-8.797 3.182-13.175 0.803-4.111-0.314-8.308 0.702-12.294 0.576-2.169 1.769-7.731 4.331-8.095 2.344-0.251 7.472 2.92 9.55 3.797 6.586 2.869 13.75 3.321 20.515 4.599 0.489 2.119-1.856 3.007-3.006 4.374-2.078 2.519-3.494 5.214-4.863 8.132-1.458 3.144-3.536 6.054-4.331 9.412-0.615 2.656 0.137 5.214-0.264 7.87zM669.808 190.57c1.241-8.71 5.083-17.596 5.174-26.394 0.090-4.285-1.99-7.957-3.536-12.069-0.977-2.569-0.79-5.088-3.714-7.031-2.919-1.994-8.046-2.744-11.849-3.847-7.869-2.256-15.694-3.672-24.227-4.599-7.825-0.877-16.094-2.206-24.006-2.606-12.644-0.626-24.494-2.481-37.315-2.294-2.696 0.044-5.35 0.125-8.046 0-3.625-0.251-6.808-1.003-10.213-1.943-9.859-2.606-19.275-4.023-29.843-4.248-6.323-0.125-12.688-0.502-19.056-0.626-4.775-0.087-7.472 1.003-11.538 2.294-5.261 1.68-10.567 1.128-15.872 2.431-8.133 2.031-11.494 5.526-9.726 11.054 1.592 5.175 3.979 9.813 4.994 14.856 0.264 1.278 0.401 2.569 0.438 3.934 0.225 9.864-2.962 18.832-5.219 28.517-1.856 8.095-0.489 15.207 1.503 23.211 2.783 11.004 1.458 22.281 1.104 33.333-0.401 12.867-0.927 25.643-1.241 38.507-0.137 3.583-0.225 7.206-0.264 10.791-0.175 8.76 3.182 17.728 1.813 26.349-0.702 4.248-2.52 8.396-2.785 12.731-0.79 10.527-0.489 21.177-0.752 31.699-0.752 28.075-1.281 56.193-2.298 84.224-0.84 22.194 4.598 43.681 7.472 65.696 0.438 6.981 0.351 14.016-0.264 21-0.044 6.68 0.401 13.352 1.369 20.028 0.615 10.215 1.016 20.47 1.634 30.726 1.416 24.669-0.401 49.606-3.318 74.098-1.901 15.871-1.416 31.875-1.814 47.793-0.438 15.563 1.325 32.053-1.769 47.393-1.547 7.256-2.607 13.352-1.325 20.733 1.241 6.719 0.927 13.307 0.702 20.072-0.175 5.526-0.977 11.192-0.576 16.712 0.351 4.636 2.431 8.622 2.211 13.352-0.401 9.55-1.901 19.675-0.927 29.179 0.576 5.928 4.112 11.543 4.421 17.465 0.175 3.094 0.79 4.636 1.681 7.519 0.977 3.182-0.752 6.418 0.175 9.512 0.526 1.856 1.856 2.569 3.006 4.198 1.944 2.781 2.565 5.565 3.934 8.483 2.696 5.703 4.376 19.63 15.075 21.751 8.532 1.73 21.044-3.533 29.444-4.374 16.8-1.73 33.998-1.856 50.931-2.781 17.243-1.003 34.441-2.081 51.727-2.831 7.030-0.251 14.413 0.251 21.486 0.502 3.494 0.044 17.64 1.819 20.027 0.251 2.919-1.819-0.803-12.556-1.067-13.794-1.503-8.446-3.536-16.977-4.244-25.554-0.977-11.054 2.211-22.725-0.090-33.689-0.526-2.431-1.592-4.636-1.681-7.169-0.351-8.182 0.438-16.534 0.665-24.758 0.401-16.534 0.89-33.025 1.325-49.56 1.016-37.094 4.199-74.054 5.437-111.145 0.489-14.147-1.154-28.649-1.458-42.842-0.264-13.44-4.199-26.438-3.625-39.922 0.438-11.142-0.137-21.929-1.281-33.070-1.067-10.703 0.401-21.795 0.702-32.54 1.369-51.593 2.741-103.143 4.112-154.739 0.401-14.058-1.458-28.694-3.669-42.796-4.112-26.306-0.665-52.611 2.169-78.739 1.241-11.493 2.169-23.078 3.845-34.529z"></path>
    <path fill="#000000" d="M821.198 370.982c1.634 0.626 3.272 1.418 4.819 2.256 5.969 3.094 13.219 3.408 18.968 6.719 3.227 2.256 6.41 4.599 9.506 7.031 2.963 1.542 5.925 3.094 8.844 4.549 4.555 2.869 8.532 8.221 11.142 12.867 4.643 8.132 5.526 16.799 6.544 26.083 1.016 9.462 1.547 18.347 1.547 27.941 0 8.934 0.665 18.217 0.090 27.145-0.438 7.256-3.050 14.59-4.421 21.706-0.84 4.425-1.769 7.431-3.625 11.58-1.944 4.198-1.592 10.215-4.907 13.706-3.89 4.111-8.71 1.73-12.513 6.944-5.747 7.87-6.942 18.481-8.844 27.807-1.901 9.024-13.264 17.596-19.719 23.875-12.731 12.469-25.331 25.025-36.563 38.507-9.594 11.456-19.366 21.753-25.731 34.927-4.023 8.308-8.046 16.669-11.54 25.156-4.112 9.901-4.907 19.275-4.907 29.666 0.044 4.636-0.615 9.637 0.137 14.236 1.99 12.867 8.488 20.381 19.187 27.5 8.444 5.616 12.069 14.856 20.248 20.779 8.666 6.368 19.675 9.687 30.816 10.878 5.481 0.626 9.24-0.125 14.59-0.877 6.808-0.877 14.413 1.128 20.956-0.502 3.536-0.877 6.853-3.271 10.080-4.775 5.306-2.381 9.282-4.686 12.334-9.286 4.685-7.069 11.319-17.594 12.424-25.907 0.803-6.229-0.175-13.175-0.137-19.453 0-4.599-1.191-8.271-1.592-12.506-0.401-4.512-1.016-7.294-3.139-11.58-2.609-5.125-2.963-11.054-6.145-15.918-0.175 1.128-0.044 2.431-0.438 3.533-4.865 1.003-10.302 0.089-15.296 0.877-4.907 0.877-16.491-0.251-17.95 4.913-1.154 4.285 1.592 12.069 3.272 15.65 3.094 6.455 6.232 12.867 6.456 19.983 0.137 4.725 0.84 8.834-2.696 12.6-2.785 2.92-5.219 6.68-8.444 9.235-4.555 3.583-15.606 3.131-20.734 1.003-2.919-1.128-3.536-3.131-5.35-5.264-2.565-3.044-6.323-5.125-9.064-8.095-5.261-5.79-6.368-13.043-8.401-19.939-3.006-10.339-5.969-20.869-3.405-31.569 1.154-5 2.609-10.252 5.219-14.944 2.962-5.439 8.356-10.038 12.644-14.722 7.428-8.045 14.678-15.474 24.406-21.575 8.046-5.088 14.59-10.566 20.646-17.463 5.57-6.329 10.389-12.998 15.166-19.719 4.994-7.119 11.362-13.395 16.624-20.337 11.008-14.544 18.304-29.179 23.566-45.846 6.368-20.206 13.619-40.143 17.419-60.791 1.547-8.446 1.681-16.712 1.634-25.2-0.090-8.974 0.89-18.259-0.314-27.145-1.989-14.589-8.269-30.726-16.005-43.856-7.559-12.822-17.861-23.919-29.621-32.981-5.881-4.512-11.894-9.55-18.656-12.778-3.669-1.73-7.472-2.294-11.362-3.182-5.704-1.278-10.875-3.759-16.181-6.229-6.586-3.131-13.131-3.044-20.16-4.549-8.621-1.906-17.155-0.752-25.731-2.394-13.706-2.606-27.72-6.368-37.889-16.534-2.609-2.606-5.128-4.95-7.075-8.045-1.634-2.519-4.467-5.476-5.437-8.221-1.681-4.549-0.175-11.669-0.264-16.534-0.090-5.301 2.654-9.901 5.128-14.545 2.387-4.512 5.925-7.244 10.344-9.462 4.775-2.344 7.781-3.622 13.175-3.533 4.112 0.044 8.532-0.502 12.6-0.044 7.517 0.877 3.405 8.934 7.472 13.22 2.387 2.519 6.145 1.68 6.853-1.254 0.665-2.656 0.489-8.533 0-11.229-1.067-6.104-7.381-13.219-12.069-17.419-3.934-3.533-10.389-5.576-15.296-7.556-6.368-2.519-12.38-0.125-18.79 0.626-13.307 1.769-23.875 11.054-32.054 21.177-4.421 5.489-8.224 11.406-10.744 17.95-2.476 6.418-2.122 12.867-3.405 19.453-1.104 5.526-1.369 10.477-1.281 16.181 0.090 6.981 3.272 10.527 6.056 16.623 2.431 5.439 5.481 9.425 9.817 13.706 2.122 2.081 4.069 4.425 6.323 6.418 2.387 2.119 5.306 2.957 7.915 4.775 5.261 3.672 9.946 8.396 15.827 11.229 6.232 3.007 12.821 4.95 19.144 7.87 15.296 7.031 32.582 8.221 47.968 14.678z"></path>
    <path fill="#000000" d="M314.547 830.173c2.298 1.328 4.731 2.431 7.294 3.182 5.35 1.592 12.909-0.375 18.259-0.752 8.224-0.502 17.552-4.060 24.715-8.045 2.211-1.254 3.758-2.744 5.526-4.425 6.455-6.104 14.147-10.703 20.206-17.331 7.472-8.182 12.998-16.931 18.878-25.952 4.643-7.169 8.488-13.483 11.849-21.088 1.856-4.285 3.669-7.156 4.509-11.719 1.241-6.229 2.654-12.294 4.112-18.525 3.449-15.12 6.499-32.85 1.99-47.438-4.244-13.794-8.931-27.456-18.832-38.552-2.874-3.131-6.232-7.069-10.169-9.375-3.094-1.819-6.631-2.344-9.638-4.335-2.654-1.769-4.555-3.182-7.559-4.335-4.994-1.856-9.506-3.321-14.811-4.425-6.41-1.418-12.291-4.073-18.702-5.476-5.925-1.278-10.787-3.271-15.606-6.455-5.437-3.583-9.195-8.132-15.296-11.054-10.698-5.175-15.296-12.469-18.347-22.857-3.318-11.179-4.023-21.928-4.731-33.644-0.526-8.71 7.252-17.021 12.203-24.625 2.654-4.073 5.128-7.82 8.179-11.58 1.016-1.254 3.714-4.161 3.36-5.79-0.489-2.081-4.643-3.094-6.41-4.111-2.565-1.542-4.994-3.094-7.606-4.512-2.256-1.254-2.565-2.031-5.219-0.877-2.078 0.877-5.704 4.111-7.825 5.526-5.925 3.847-9.77 6.229-13.881 11.543-2.963 3.797-6.631 6.856-9.948 10.439-3.758 3.973-5.881 9.198-8.224 13.749-1.769 3.321-3.669 6.418-4.421 9.988-0.665 3.358-1.241 6.543-0.89 9.901 0.351 4.073-1.725 7.87-1.416 11.844 0.264 3.622 2.52 7.731 3.536 11.279 1.281 4.462 2.783 8.132 4.865 12.244 1.856 3.709 3.36 7.431 5.659 10.917 3.006 4.599 7.25 7.294 11.718 10.791 10.656 8.308 24.182 13.219 35.193 21.044 10.92 7.694 21.883 15.207 31.169 24.891 2.344 2.519 4.686 4.95 7.381 7.031 4.555 3.533 9.594 6.418 14.325 9.637 4.865 3.358 6.984 7.644 9.904 12.6 2.785 4.775 5.437 9.687 8.532 14.236 2.919 4.198 4.598 7.781 6.101 12.687 1.944 6.329 1.813 10.075-0.137 16.225-1.99 6.279-3.714 11.944-6.766 17.774-3.714 7.069-4.244 14.544-9.55 20.912-6.323 7.556-13.307 12.156-21.973 16.094-6.101 2.781-13.264 4.111-19.719 6.017-4.952 1.505-10.169 2.606-14.899 4.737-2.741 1.254-5.128 2.869-8.179 2.92-8.269 0.125-16.225-6.141-18.481-13.881-2.298-7.87-3.182-15.341-1.634-23.52 1.325-7.256 3.272-12.119 6.896-18.304-4.467 3.884-8.312 7.119-12.203 11.669-4.421 5.301-9.418 7.82-9.461 15.562-0.044 7.82 3.449 15.694 5.704 23.169 0.79 2.606 1.241 5.877 2.607 8.182 0.576 1.003 1.681 1.455 2.344 2.694 0.615 1.128 0.752 2.656 1.104 3.884 0.84 2.957 1.458 6.318 3.050 8.974 0.752 1.278 1.769 1.994 2.387 3.445 0.489 1.254 0.351 2.781 1.016 3.934 2.963 5.264 8.444 6.68 12.998 10.038 1.592 1.254 3.227 2.294 4.952 3.271z"></path>
    <path fill="#000000" d="M296.385 306.758c0.351 1.505 0.89 3.044 1.191 4.335 1.681 6.981 1.503 15.606 4.288 22.238 3.006 7.119 8.444 11.229 15.519 14.234 4.467 1.906 7.825 4.636 12.776 5.616 4.819 1.003 9.946 1.003 14.856 0.877 10.035-0.502 22.902-6.593 27.499-15.96 1.634-3.358 2.256-11.092 0.351-14.325-1.944-3.408-7.559-3.131-8.844-6.141-0.401-0.877 0.225-2.92 0-3.973-0.264-1.003-1.281-1.328-1.547-2.431-0.665-2.744 0.526-5.038-0.927-7.781 3.094-1.254 6.232 0.502 9.195 1.368 3.625 1.003 7.294 1.278 10.744 2.694 7.119 2.957 12.246 5.84 17.109 11.981 7.030 8.974 3.405 23.697-4.156 32.008-10.611 11.844-26.526 14.944-41.118 18.348-18.878 4.374-41.293 0.877-59.331-5.84-8.975-3.358-19.144-7.907-24.758-16.269-3.845-5.703-5.659-14.501-7.030-21.221-1.503-7.556-2.783-13.838-2.741-21.664 0.044-4.913-0.79-9.775-0.752-14.679 0-2.031-0.225-5.389 1.016-7.119 0.526-0.877 1.458-0.375 2.033-0.877 1.592-1.642 3.050-3.533 3.934-5.877 3.536-9.55 4.288-19.983 8.133-29.49 2.83-7.069 7.25-13.482 10.787-20.204 3.050-5.703 6.41-9.55 11.894-13.043 7.781-5.088 13.75-11.669 21.973-15.961 6.984-3.709 14.544-10.075 22.281-11.456 7.517-1.368 16.491-0.502 24.228-0.752 7.119-0.251 12.291 1.73 19.187 3.131 6.631 1.455 11.981 0.877 17.906 4.335 2.874 1.642 6.145 2.394 8.931 3.847s3.494 3.759 4.952 6.543c0.752 1.418 2.169 3.007 2.783 4.335 1.769 4.161 3.892 8.483 5.792 12.822 2.298 5.125 5.128 10.566 6.675 15.872 0.977 3.408 1.901 11.142 0.84 14.413-1.371-0.877-1.325-3.271-2.344-4.686-1.901-2.569-4.686-4.599-6.631-7.294-4.023-5.526-8.886-8.446-14.811-11.669-6.014-3.321-12.424-7.957-19.056-9.55-5.083-1.278-8.444-5.264-13.925-5.352-7.381-0.125-15.694 0.502-22.681 2.519-16.357 4.725-32.849 17.641-41.337 32.364-5.881 10.125-11.494 21.088-12.644 32.935-0.526 5.301 0.702 9.024 1.901 13.927 0.264 1.128 1.016 4.335 0.314 5.301-0.84 1.003-1.503-0.087-2.387 0.626-1.325 1.003-1.725 0.877-2.211 2.781-0.351 1.278-0.225 2.744 0.137 4.198z"></path>
    <path fill="#000000" d="M331.273 464.948c-5.616-0.626-10.656-1.128-16.048-3.182-5.659-2.169-11.362-4.425-17.286-5.576-2.741-0.502-5.835-0.125-8.444-0.752-2.696-0.626-5.261-3.044-7.559-4.462-4.643-2.92-9.418-5.666-14.632-7.344-6.056-1.856-11.582-5.666-17.419-8.271-5.041-2.256-8.577-3.131-13.838-4.198-7.606-1.542-15.296-1.254-23.211-1.254-5.57 0-11.184-0.125-16.756-0.089-6.101 0.089-11.008 2.119-16.269 5.175-9.461 5.476-15.563 12.381-22.769 20.557-5.925 6.719-9.153 15.65-13.307 23.52-3.449 6.492-4.685 13.482-6.368 20.691-1.856 8.221-1.547 16.269-1.547 24.625 0 6.054-0.225 10.439 3.892 15.563 2.654 3.321 6.101 5.84 8.797 9.148 3.050 3.759 5.394 8.082 8.401 11.806 1.681 2.081 3.581 4.111 5.881 5.476 1.547 0.877 3.581 1.278 4.907 2.344-3.845-2.694-7.428-8.797-9.373-13.131-2.83-6.329-3.182-13.662-3.449-20.515-0.175-6.593-1.371-13.882 0.84-20.294 1.592-4.686 4.467-8.622 5.57-13.529 1.681-7.119 2.431-13.838 7.206-19.851 7.428-9.412 17.419-18.392 29.269-22.106 6.277-1.943 14.104-1.368 20.469 0.251 3.139 0.752 6.586 1.254 9.638 2.256 4.509 1.592 7.869 5.616 12.291 7.781 6.277 3.007 12.867 6.806 18.569 10.917 2.919 2.081 5.083 5.301 7.561 7.82 3.36 3.321 7.381 4.111 10.567 7.081 7.206 6.593 19.056 8.66 28.518 7.431 3.449-0.502 6.41-2.256 9.817-2.869 4.994-1.003 10.478-0.375 15.606-0.375 4.377 0 8.755-0.125 13.131-0.044 4.555 0.089 8.975 1.592 13.529 1.592 3.89 0.089 7.648-0.877 11.451-1.455 3.934-0.626 9.019-2.781 12.688-4.425 4.467-1.943 9.817-3.496 13.483-6.769 3.494-3.044 6.456-6.68 10.567-9.55 4.288-3.007 11.275-5.79 14.059-10.339 2.387-3.884 1.503-9.325 1.503-13.662 0-3.408 0.351-6.981 0.088-10.389-0.225-3.007-1.547-5.84-1.769-8.834-0.351-5.666 0.264-11.756-3.803-16.225-4.421-4.913-6.984-9.198-13.131-11.894-2.696-1.254-4.199-1.455-7.119-1.542-2.874-0.089-5.481-1.254-8.179-1.328-2.078-0.044-5.261 1.128-7.381 1.73-2.298 0.626-4.467 0.877-6.808 1.368-0.89 0.251-6.675 2.606-7.163 3.308-2.565 3.884 5.792 2.831 7.606 3.182 4.112 0.877 8.975 2.081 12.777 3.934 3.36 1.592 7.074 4.512 9.506 6.806 1.592 1.505 4.377 4.023 5.616 6.279 1.901 3.583-0.84 8.797-3.182 11.844-1.634 2.169-4.023 3.583-5.659 5.666-1.241 1.505-1.769 3.321-3.006 4.825-6.056 7.294-16.225 4.636-24.094 7.82-2.741 1.003-4.643 3.131-7.206 4.549-8.046 4.512-17.375-0.125-25.731-1.128-0.438 0-0.89-0.089-1.281-0.125z"></path>
    <path fill="#000000" d="M804.892 642.461c-0.314 0.044-0.665 0.125-0.927 0.125 1.681-1.856 2.122-4.425 2.874-6.806 1.241-3.847 2.83-7.206 4.467-10.878 2.298-5 2.783-10.527 4.685-15.694 1.901-5.214 4.112-10.791 6.766-15.918 2.431-4.725 4.952-9.55 7.252-14.325 3.845-8.132 6.808-17.331 10.92-25.376 0.84-1.73 1.634-1.943 2.078-3.797 0.351-1.68-0.044-3.934-0.044-5.666-0.044-5.928 0.351-11.63-1.191-17.463-1.547-6.054-3.050-12.731-5.128-18.614-1.369-3.884-4.331-8.308-6.631-11.806-1.99-3.007-4.598-5.264-7.606-7.206-1.681-0.375-3.139-1.128-4.421-2.256-1.191-1.642-2.52-3.232-3.979-4.636-5.616-3.884-13.926-6.229-20.558-6.141-4.068 0.044-8.269-0.502-12.333 0.251-3.227 0.626-6.323 1.994-9.594 2.606-3.758 0.626-6.499 0.044-10.080 1.68-4.555 2.081-8.621 4.686-13.264 6.543-8.488 3.358-32.142 15.783-22.15 28.207 1.634 2.081 3.227 3.709 4.731 5.928 1.241 1.73 3.006 4.335 5.437 3.934-4.509-0.125-7.648 1.856-12.157 1.592-4.819-0.251-10.522-2.569-14.678-5.125-6.368-3.847-7.957-11.806-10.344-18.347-2.211-6.229-3.845-14.987-0.137-21 5.925-9.512 17.109-16.403 26.659-21.706 11.671-6.593 23.696-12.956 36.96-16.006 11.231-2.519 22.504-1.819 33.955-1.906 9.55-0.125 21.089 0.626 29.71 4.95 4.156 2.081 8.312 4.161 11.275 7.87 1.725 2.169 2.783 4.913 4.775 6.894 4.156 3.984 8.356 5.352 11.319 10.527 5.437 9.55 10.831 19.099 14.193 29.444 3.845 11.844 5.394 23.3 5.35 35.811 0 7.519 0.702 15.296-0.044 22.725-0.665 6.104-3.36 12.331-5.083 18.215-1.281 4.636-4.199 9.024-6.368 13.307-2.607 5.125-3.625 10.917-7.472 15.165-7.163 7.92-13.75 16.801-22.281 23.476-4.907 3.759-9.064 8.095-13.794 11.806-4.555 3.533-10.522 5.565-16.136 6.894-0.044-0.251-0.090-0.626-0.175-0.877z"></path>
    </svg>