<svg xmlns="http://www.w3.org/2000/svg" viewBox="29.992 13.925 1002.242 1024.020">
    <path fill="#000000" d="M456.993 93.935c6.593 1.409 14.329 2.665 21.095 4.785 3.775 1.256 6.879 3.234 10.113 5.47 6.734 4.215 12.636 8.571 20.087 11.663 3.531 1.409 7.051 2.949 10.295 5.071 3.347 1.977 6.296 4.785 9.54 7.161 3.387 2.806 7.307 4.785 10.835 7.161 6.193 4.388 11.375 10.293 16.164 15.911 5.908 6.879 11.807 13.643 17.855 20.52 3.387 3.96 6.621 8.030 9.867 12.095 0.816 1.020 1.409 1.837 2.665 2.519 1.695 1.020 2.235 1.837 3.092 3.531 1.977 4.215 4.071 8.418 5.908 12.527 2.235 4.356 3.775 8.571 4.785 13.358 1.256 5.47 1.938 10.98 3.347 16.451 1.837 7.592 4.785 15.047 7.889 22.355 1.256 2.949 2.665 5.755 3.815 8.715 1.409 3.234 3.633 7.745 4.071 11.413 0.408 5.043-1.112 9.969-0.615 15.155 0.305 6.052 0.615 11.952 0.615 18.143 0 10.401 1.55 20.951 1.409 31.355 0 3.815 0 7.449 0.615 11.124 0.511 2.665 1.020 4.929 1.020 7.735v11.521c0 2.124 0.102 4.356-0.102 6.621-0.102 1.55-0.715 3.092-0.715 4.643-0.102 3.489-0.408 7.161-0.715 10.799 0 2.551-1.256 4.929-1.837 7.592-0.511 2.705-0.816 4.785-2.235 7.348-2.265 4.071-2.949 8.715-3.96 13.211-1.55 6.593-3.205 12.779-6.153 18.827-2.408 4.501-4.929 8.858-7.194 13.357-2.519 4.643-4.356 9.285-6.734 14.075-2.265 4.501-4.929 8.715-7.449 12.925-5.612 8.999-10.259 18.432-14.903 28.007-4.356 8.571-10.981 15.3-17.461 22.354-3.347 3.347-6.296 7.161-9.685 10.549-5.367 5.325-11.267 9.54-17.569 13.643-8.175 5.47-16.199 11.232-24.48 16.559-8.317 5.071-17.71 8.888-26.856 12.239-9.429 3.674-19.405 5.652-29.267 7.745-11.952 2.519-23.903 4.929-35.998 6.766-20.808 3.234-41.901 2.091-62.997 1.256-9.825-0.408-19.545-1.55-29.087-3.531-4.501-1.020-8.858-1.695-13.248-2.665-6.052-1.256-11.807-3.092-18-4.501-19.116-4.071-38.087-8.999-56.517-15.875-3.531-1.296-7.449-2.408-10.981-4.102-4.501-2.235-8.571-5.043-12.779-7.848-8.999-6.339-18-13.103-25.307-21.527-6.48-7.592-12.384-16.019-20.123-22.355-4.643-3.96-9.399-7.449-13.067-12.528-3.531-4.785-6.339-10.113-9.429-15.192-4.071-6.449-6.593-13.896-10.833-20.087-3.060-4.643-6.153-8.317-7.848-13.788-1.837-5.612-4.215-10.835-5.224-16.596-0.715-4.215-1.55-8.317-1.695-12.528 0-1.020 0.102-1.938-1.020-2.806 0.408 5.908 5.214 12.239 9.429 16.307 3.489 3.674 7.161 7.161 10.259 10.981 4.071 4.785 6.48 10.259 10.692 14.903 4.501 5.071 8.715 10.401 13.066 15.335 5.224 6.052 11.663 10.259 18 14.903 8.030 6.052 16.165 12.636 24.335 18.683 2.519 1.977 5.043 3.387 7.889 4.501 3.775 1.837 7.161 4.501 10.941 6.052 2.806 1.256 5.511 1.977 8.603 2.949 3.347 1.155 6.011 2.949 9.102 4.356 2.551 1.155 5.367 1.695 7.889 2.705 3.387 1.409 6.621 3.246 10.011 4.756 6.734 3.092 13.499 4.388 20.376 6.621 2.124 0.615 3.775 1.112 5.765 1.409 5.908 1.020 11.807 1.695 17.568 2.519 9.714 1.020 19.547 0.102 29.267 1.695 5.612 1.020 10.835 1.695 16.451 1.695h14.329c4.929 0 10.011 0.102 14.903-0.715 2.846-0.715 5.511-1.256 8.317-1.55 4.785-0.615 8.999-0.715 13.499-2.124 6.052-1.837 11.952-4.215 18.143-5.908 7.889-2.519 14.761-6.48 22.067-10.113 4.785-2.562 8.999-5.224 12.528-8.999 2.806-3.092 5.325-6.193 8.418-8.999 7.745-6.908 15.047-13.931 22.212-21.095 10.153-10.401 22.213-19.259 30.815-30.96 10.835-14.615 16.307-32.182 24.443-47.949 3.674-6.734 7.348-13.499 10.293-20.376 3.092-7.307 3.918-15.732 4.612-23.903 0.305-3.531 0-7.161 0-10.835 0.102-3.918 1.296-7.745 1.55-11.663 1.020-9.429 0.715-18.827 1.155-28.26 0.511-8.175 1.55-16.307 1.55-24.48 0-9.826 0.102-19.979 0-29.806 0-3.674-0.715-6.48-1.695-10.113-0.816-3.092-0.816-6.193-1.55-9.285-0.816-3.531-2.519-6.48-4.071-9.714-1.296-2.665-2.265-5.47-3.092-8.276-2.408-6.879-5.367-12.817-9.429-18.973-3.928-5.511-8.43-10.691-11.413-16.883-1.256-2.265-2.378-4.643-3.347-7.161-1.695-4.643-2.265-9.572-3.815-14.221-0.511-1.837-1.409-3.633-2.235-5.47-1.695-4.215-2.562-8.858-4.501-13.103-2.551-5.47-5.071-10.8-7.889-16.165-2.378-4.501-6.339-7.745-9.969-11.089-7.307-6.339-15.766-13.499-21.095-21.814-1.55-2.378-3.092-3.489-4.785-5.47-0.715-1.020-2.378-2.265-2.519-3.234z"></path>
    <path fill="#000000" d="M420.851 758.933c3.489-7.051 7.449-14.075 11.232-20.95-1.020-0.305-2.091-0.615-3.092-1.155-5.612-2.235-10.401-5.755-15.443-8.999-7.745-5.184-13.103-13.357-19.691-19.654-2.806-2.846-7.307-10.692-11.699-10.835-1.653 3.633 0 10.548 0.715 14.183 2.378 11.807 8.571 22.213 11.954 33.622 1.977 6.879 4.501 13.499 9.969 18.287 2.949 2.665 6.193 5.043 9.714 7.592 2.124-4.245 4.501-8.175 6.339-12.096z"></path>
    <path fill="#000000" d="M734.146 421.593c10.401 3.205 17.423 7.99 25.739 14.761 4.071 3.489 9.969 3.633 13.898 7.021 3.815 3.531 3.96 9.826 7.449 13.932 2.124 2.519 4.929 4.643 7.348 7.021 1.409 1.409 2.665 2.949 3.633 4.785 1.409 2.806 1.695 6.052 2.408 9.144 2.235 8.999 9.399 18.143 16.019 24.588 5.325 5.071 7.889 11.555 10.401 18.287 2.091-3.489 4.215-6.593 7.161-9.429 5.755-5.325 10.259-11.52 14.761-17.855 3.387-4.756 7.161-9.826 9.572-15.047 1.837-4.215 2.091-7.703 3.092-12.096 1.837-8.276 6.193-17.423 10.835-24.875-6.621-4.785-11.124-9.826-19.296-12.095-13.211-3.918-25.56-5.043-37.798-11.375-5.071-2.665-9.867-3.815-15.479-5.071-10.113-2.378-21.527-4.643-31.068-8.858-8.175-3.531-15.335-4.215-23.903-4.071-8.030 0.305-8.603-2.806-15.047-4.785-4.356-1.409-12.528-1.112-17.029-0.715-7.889 0.715-14.22 6.193-21.527 8.603-5.612 1.695-16.596 0.511-20.087 6.593 2.806 0.408 5.765 0.816 8.571 1.256 20.377 2.949 40.356 3.815 60.335 10.293z"></path>
    <path fill="#000000" d="M695.879 955.090c-0.816-16.165-5.325-33.335-12.925-47.662-4.501-8.858-10.981-16.307-15.625-25.054-4.501-8.571-7.021-16.847-9.144-25.595-8.715 0.305-17.569 0.816-26.567 0.305-11.952-0.715-24.335 1.256-35.998-1.55-14.183-3.489-28.979-7.307-42.334-13.211-8.418-3.387-16.164-7.889-24.156-12.239-6.621-3.775-13.499-7.592-20.268-11.232-11.232-6.48-24.731-8.317-35.566-15.192-4.215-2.806-7.592-6.621-10.981-10.401-4.929-5.224-10.113-9.867-15.335-14.761-4.071-3.96-8.999-6.48-13.788-9.285-1.256 1.977-2.665 3.633-4.756 5.184-2.705 1.695-5.652 3.246-8.999 3.246-1.977 0-3.674-1.020-5.908-0.816-4.388 0.102-11.844 4.643-15.192 7.449-2.265 1.837-4.215 4.215-5.908 6.879l14.615 22.931c2.949 4.929 6.193 9.429 10.113 13.5 9.726 10.259 18.719 19.691 30.815 27.287 8.276 5.325 16.307 11.089 24.156 17.28 8.030 6.193 15.625 14.22 24.623 18.864 10.549 5.325 22.787 6.734 33.479 11.089 16.883 6.908 34.449 12.239 51.189 19.259 10.691 4.643 20.663 11.267 31.75 15.192 7.878 3.092 15.911 4.929 23.65 7.889 14.903 5.755 28.115 9.969 43.99 11.375 5.082 0.408 10.153 1.296 15.047 2.124v-2.806z"></path>
    <path fill="#000000" d="M876.591 741.473c-3.96-6.879-9.714-11.663-14.075-17.999-3.928-5.325-4.643-10.8-5.47-17.28-1.112-7.307-4.929-13.643-6.766-20.808-4.643-19.007-8.418-37.15-19.655-53.458-1.437-2.091-3.092-3.918-4.643-5.612-7.194 11.807-13.931 23.616-19.295 36.862-9.255 22.213-23.039 39.923-40.356 56.373-4.215 4.071-8.418 8.715-13.499 11.521-1.797 1.020-3.775 1.409-5.325 2.551-5.071 3.205-8.175 9.255-12.528 13.067-11.663 10.401-28.402 15.479-42.586 21.635-5.071 2.124-10.153 4.102-15.336 5.224 1.837 4.501 2.091 9.572 2.806 14.329 1.020 7.194 1.409 14.652 2.665 21.672 0.816 5.325 2.265 8.999 1.837 14.903-0.715 10.548-3.928 22.643-1.695 33.19 0.715 4.215 2.408 8.571 4.215 13.067 19.979-3.092 38.412-8.999 55.691-19.116 8.999-5.367 17.711-10.691 26.316-16.165 8.715-5.652 16.739-12.384 25.739-17.459 24.443-13.643 49.75-24.731 69.152-45.394 6.052-6.621 11.844-15.479 17.028-23.65-1.398-2.665-2.806-5.184-4.215-7.449z"></path>
    <path fill="#000000" d="M830.045 554.316c-1.256 8.715-0.816 17.423-2.408 25.884-0.408 3.387-1.409 6.734-2.378 9.826 1.112 0.305 2.265 0.615 3.531 1.155 3.092 1.51 6.193 2.519 9.399 3.775 5.367 2.124 8.999 4.643 13.391 7.889 2.665 1.837 6.734 2.665 8.858 5.184 2.378 2.551 2.519 6.193 5.184 8.858 3.092 3.387 7.449 5.908 11.267 8.457 3.918 2.665 5.043 4.785 7.449 8.418 4.897 7.021 12.492 8.715 18.972 13.643 3.092 2.378 5.325 6.48 7.889 9.285 2.806 3.387 6.193 5.755 9.429 8.133 4.356-20.663 5.755-41.614 8.571-62.853 3.387-25.451 1.256-51.873-0.715-77.469-0.715-7.161-2.665-14.22-4.071-21.24-1.256-5.755-2.124-11.663-3.092-17.423-0.408 0.102-0.615 0.305-0.816 0.511-6.766 6.193-15.193 9.572-23.076 13.932-8.858 4.785-16.165 11.952-25.021 16.739-3.092 1.55-6.48 2.949-9.572 4.643s-8.715 3.489-11.375 6.052c-1.977 1.837-2.806 4.215-4.356 6.193-2.705 2.806-5.367 4.071-9.285 4.071-2.949 0-5.908-0.615-8.858-1.256 0 1.938 0 3.928 0.204 5.755 0.715 4.356 1.437 7.449 0.816 11.807z"></path>
    <path fill="#000000" d="M779.575 610.008c-0.102-4.071-3.234-8.999-5.071-12.671-2.665-5.755-5.367-10.941-8.418-16.451-1.695-3.092-3.96-4.756-4.501-8.858-0.715-3.234-0.102-4.785 3.928-2.949 4.929 2.408 9.969 4.929 15.047 7.061 2.091 1.020 4.215 1.256 6.052 2.949 1.256 1.112 1.695 2.806 2.949 4.071 1.837 1.695 2.949 2.378 4.215 4.643 0.816 1.695 1.55 3.387 2.806 4.785 1.837 1.797 4.356 3.092 5.612 5.325 0.305 0.816 0.408 1.837 1.155 2.519 0.511 0.816 1.409 0.715 1.695 1.695 0 0.615-0.102 1.695-0.305 2.265-0.305 0.816-0.615 1.409-0.715 2.235-0.511 3.092-0.511 9.572-4.897 9.867-1.437 0-2.846-0.615-4.102-0.816-4.643-1.112-8.571 0.816-13.211 1.695z"></path>
    <path fill="#000000" d="M902.185 694.785c8.276 1.977 17.423 5.367 24.049 10.835 2.665 2.408 4.356 5.367 6.879 7.745 2.265 1.977 4.215 2.519 6.766 3.815 1.938 1.256 3.347 2.378 5.908 3.205 0.102 0 4.071 0.408 4.356 0.715 2.091 1.837-0.305 3.928-0.305 6.593-0.102 2.991 0.305 4.785-0.305 7.889-1.112 4.215-2.091 8.715-3.092 13.103-0.715 3.775-2.378 7.161-3.633 10.656-0.615 1.409-1.409 2.265-1.977 3.674-0.615 1.256-0.408 2.665-0.816 3.775-1.55 2.949-4.501 2.846-7.592 3.815-7.061 2.519-11.952-1.55-18.576-4.215-3.387-1.256-3.674-1.256-4.643-4.356-1.112-3.531-1.256-5.908-3.246-8.999-2.235-3.531-3.347-5.224-3.347-9.572 0.102-3.387 1.653-8.175 0.715-11.521-0.816-2.551-2.949-5.367-3.928-7.889-1.409-3.674-3.234-7.021-5.755-10.259-2.846-3.96-4.501-8.457-7.348-12.528-1.797-2.378-3.347-5.755-5.325-7.889-1.977-1.797-5.908-2.949-4.356-6.582 3.633-0.305 4.785 1.695 7.745 3.387 1.112 0.816 2.519 1.51 3.928 1.797 1.55 0.408 1.55-0.305 2.665-0.305 2.551-0.102 2.705 0.816 4.929 1.695 1.695 0.715 3.531 0.816 5.071 1.155l1.256 0.204z"></path>
    <path fill="#000000" d="M874.18 474.726c4.102-3.633 8.744-5.325 12.096-9.826 2.949-3.96 4.929-8.999 7.592-13.357 2.265-3.674 4.643-7.348 7.061-11.267 1.409-2.091 3.633-5.325 3.633-8.133 0.305 3.489 6.48 5.47 8.999 6.734 3.674 1.977 6.766 3.387 8.858 6.879 1.155 2.124 1.695 4.245 2.694 6.339 1.409 2.408 4.756 3.96 4.897 7.051 0.408 3.347-1.95 4.356-4.071 6.052-4.356 3.489-9.144 4.756-14.075 7.161-4.071 1.95-7.745 5.043-11.663 7.161-7.449 3.928-14.328 8.030-20.95 12.925-2.378 1.837-5.612 3.531-7.889 5.652-1.112 1.266-1.409 3.489-3.092 3.786-1.256-1.020-0.816-2.378-0.816-3.674-2.665-1.112-6.621 4.102-9.714 4.102 1.155-3.815 5.908-7.449 7.745-11.124 1.695-3.246 2.806-6.734 4.356-9.969 1.155-1.837 1.409-3.815 3.092-5.511 2.408-2.091 5.908-2.806 1.256-1.020z"></path>
    <path fill="#000000" d="M701.783 895.188c-0.408 2.519 0.715 6.052 1.020 8.276 0.511 4.929 1.020 10.011 1.695 15.047 0.816 4.643 0.816 11.267 6.439 10.98 8.715 0 15.192-7.021 22.212-11.521 2.846-1.695 5.214-2.949 7.889-4.929 3.234-2.378 6.193-2.519 9.144-5.47 2.665-2.551 3.387-4.102 4.215-7.348 0.615-2.378 1.695-6.153 0-6.439-3.489-0.615-6.449-0.816-9.969-1.112-2.378-0.102-5.325-0.615-7.745-1.55-2.091-1.020-3.633-2.949-5.755-4.388-3.387-2.235-7.449-4.612-11.663-4.501-3.531 0.102-5.908 1.695-8.030 4.388-1.112 1.409-1.256 2.949-2.235 4.612-1.020-0.102-2.265-0.102-3.387-0.204-0.715 1.409-0.615 2.949-1.409 4.356-0.305 0-0.715 0-2.408-0.102z"></path>
    </svg>