<svg xmlns="http://www.w3.org/2000/svg" viewBox="28.201 15.722 899.801 992.353">
    <path fill="#000000" d="M178.351 178.63c3.92 0.982 7.173 3.774 10.159 6.24 5.268 4.58 12.585 6.349 18.825 9.327 13.553 6.624 27.631 13.001 41.567 18.131 19.794 7.313 40.631 12.064 59.871 20.315 6.761 2.978 13.659 6.377 20.697 9.218 8.667 3.4 18.027 5.689 26.833 9.366 14.074 5.543 27.215 13.799 41.289 19.899 13.555 5.965 24.787 15.842 37.13 23.538 7.037 4.335 14.49 7.458 21.77 11.267 6.791 3.361 13.138 7.449 19.795 11.095 17.056 9.463 35.465 16.12 54.010 22.36 14.907 5.129 29.537 11.37 44.688 15.842 11.267 3.223 23.435 5.543 34.010 11.095 7.734 4.059 13.937 10.296 20.975 15.010 8.942 5.965 18.687 11.128 28.323 15.738 13.278 6.349 27.631 9.601 41.427 14.074 10.991 3.635 21.528 9.081 32.657 11.51 2.426 0.591 8.53-0.098 10.4 1.072 1.112 0.787 2.045 3.92 3.4 5.168 1.632 1.072 3.126 2.014 4.883 2.978 4.059 2.426 7.419 4.992 12.031 6.064 2.457 0.394 4.059 1.209 6.24 2.181 3.126 1.357 6.24 1.632 9.327 2.702 3.674 1.357 6.24 4.059 9.778 5.689 3.92 1.632 8.392 2.426 12.446 4.059 7.173 2.566 14.632 5.032 21.667 8.009 3.774 1.632 7.597 5.129 9.081-0.098 1.632-5.444 4.195-10.297 5.828-15.705 1.866-6.652 2.29-13.555 3.262-20.315 0.197-2.702 0.197-6.928 2.152-9.081 1.072-1.072 2.426-1.072 3.4-2.426 1.73-2.181-0.394-3.95-2.32-5.444-3.783-3.223-9.188-3.783-13.278-6.486-4.441-3.126-9.327-5.168-14.352-7.313-6.349-2.841-12.722-4.747-19.482-7.037-6.377-2.045-13-0.394-19.103-3.4-3.635-1.905-6.624-4.747-10.434-6.349-7.558-3.674-15.288-5.583-22.327-10.157-20.593-13.555-44.168-23.018-66.632-33.177-9.88-4.609-19.378-10.713-29.778-13.97-9.778-3.114-19.657-6.104-29.4-9.327-17.751-5.689-36.159-8.146-53.907-13.278-10.678-3.114-21.112-7.872-31.408-12.202-10.575-4.58-21.251-9.739-31.409-15.288-9.778-5.268-19.103-11.37-28.323-17.335-7.833-5.032-15.567-9.354-23.539-13.833-18.824-10.817-37.128-21.667-57.168-29.92-17.334-7.313-35.602-12.722-53.215-19.482-16.258-6.24-32.241-11.51-49.019-15.705-12.585-3.114-25.585-5.307-37.095-11.406-6.377-3.223-12.343-6.761-18.962-9.327-8.146-2.978-16.258-6.377-24.37-8.942-2.32-0.688-4.471-1.072-6.652-2.29-3.114-1.769-5.965-2.605-9.327-3.126-6.652-1.493-13.695-2.978-20.315-3.674-8.392-0.982-16.258-3.783-24.128-6.486-1.209-0.394-4.195-2.181-5.925-2.181-1.357 0.098-2.741 1.493-4.089 2.045-1.493 0.394-3.361 0.787-5.129 0.982-1.632 0-3.92-0.688-5.689-0.098-1.905 0.394-2.181 1.248-4.471 1.248-3.635-0.098-6.516 0.197-9.463 2.29-2.841 2.045-2.045 7.037-3.814 9.739-1.905 3.262-2.29 8.146-2.566 12.201-0.982 7.313 6.624 13.799 12.065 16.919 9.327 5.543 20.038 5.168 30.577 6.898 7.313 1.357 15.842 0.394 23.433 0.294 1.072 0 2.32 0.098 3.126 0.394z"></path>
    <path fill="#000000" d="M602.612 148.018c-3.361 3.262-7.037 6.377-10.817 9.601-17.751 15.463-35.88 30.195-54.568 44.444-8.942 7.037-18.687 12.721-28.323 18.686-13.278 8.255-25.032 18.272-37.928 26.659-7.833 5.168-15.427 10.575-23.263 15.322-8.421 4.856-17.335 9.051-26.002 13.798-3.262 1.493-6.652 2.702-9.778 4.335-2.426 1.357-4.335 3.674-6.21 5.404-4.883 4.335-9.503 8.53-14.352 12.863-4.883 4.609-10.018 9.218-15.184 13.833-1.632 1.357-2.566 2.426-4.195 3.114-2.29 1.072-4.195 2.29-6.377 3.635-7.419 4.195-13.937 10.434-20.559 15.842-10.296 8.667-22.639 15.322-34.146 22.36-10.679 6.486-20.834 13.799-30.335 22.187-5.965 5.444-13.139 8.942-19.624 13.695-6.104 4.335-11.095 9.739-16.918 13.937-4.471 3.126-9.503 6.104-14.248 8.53-5.268 2.702-10.679 3.262-14.873 7.458-2.978 2.978-5.965 5.828-9.218 8.53-2.566 2.457-5.129 4.471-7.97 6.24-2.702 1.905-5.168 3.4-5.444 6.761-0.491 5.553 3.4 7.458 7.076 10.575 4.856 3.92 7.173 10.575 12.168 14.352 3.783 3.114 7.313 3.635 10.159 7.734 1.493 1.73 3.774 3.223 3.674 5.689 1.866 0.982 2.426 0.098 4.059-0.688 1.493-0.688 2.702-0.688 4.471-1.493 4.195-1.357 5.689-6.349 7.833-9.739 2.566-4.059 6.898-6.624 10.575-9.354 10.018-7.419 20.038-14.872 30.335-22.187 12.447-8.942 23.679-19.518 36.817-27.215 11.648-6.791 23.297-12.863 33.593-21.807 5.032-4.335 10.434-7.734 15.983-11.232 7.597-5.032 14.63-12.48 23.16-16.12 2.426-0.787 5.268-1.493 7.734-2.32 7.694-2.426 14.215-7.449 21.25-10.953 13.416-6.761 25.585-15.322 38.307-23.16 31.305-18.962 62.576-38.585 91.835-60.667 5.543-4.195 10.953-8.667 16.778-12.447 9.081-6.377 17.057-13.694 25.481-20.73 10.539-8.667 19.899-18.166 29.504-27.631 6.377-6.377 12.201-13.555 19.103-19.24 5.129-4.471 11.51-8.106 17.194-12.031 6.898-4.747 14.352-8.806 21.666-12.863 2.566-1.632 5.404-3.4 8.106-4.883 1.905-0.787 4.609-0.787 3.674-3.783 1.493-0.591 2.014-1.769 3.114-2.605 1.209-0.982 2.29-1.072 3.499-2.29 3.262-3.4 1.357-4.747-1.73-7.597-2.88-2.702-5.719-6.104-8.285-9.081-2.978-3.087-6.761-5.404-9.463-8.667-6.104-6.898-11.129-15.011-16.537-22.744-1.072-1.632-2.29-3.92-4.471-4.059-2.566-0.294-4.195 2.181-5.268 3.783 0.591-0.098 0.098-1.072 0.294-1.072-4.609 2.702-6.791 8.255-11.37 11.232-2.457 1.769-5.307 2.841-7.734 4.471-2.978 2.181-5.268 4.883-8.255 7.037-0.787 0.787-3.262 1.632-3.674 2.605-0.294 1.072-0.394 2.426-0.491 3.635-0.394 1.493-1.112 2.702-2.045 3.783-2.702 3.814-7.313 6.377-10.575 9.913-2.29 2.29-4.58 4.471-7.173 6.624z"></path>
    <path fill="#000000" d="M138.692 161.711v-0.787 9.601c0 4.609-0.098 9.218 0 13.695 0.098 5.965 1.209 11.649 1.072 17.473-0.098 28.289-2.702 56.474-0.394 84.624 0.787 7.734 1.493 15.705 2.181 23.575 0.982 9.366 0.394 18.687 0.491 28.152 0 9.354 1.905 18.583 2.841 27.768 1.072 11.927 0.688 23.85 1.905 35.64 1.905 18.13 2.014 36.018 2.014 54.152 0 6.652 0.394 13.278 0 19.76-0.394 7.597-2.702 14.906-3.361 22.639-0.591 7.173-2.32 14.215-3.4 21.392-1.632 9.327-0.787 18.27-1.072 27.631-0.098 8.392-1.209 16.64-1.209 25.032 0 8.667 0.294 17.231 0 25.896-0.787 15.289-1.209 30.335-2.841 45.484-0.787 7.734-0.591 15.184-0.591 22.743 0.098 8.942-0.394 18.166 0.098 27.215 0.591 10.054 2.426 20.073 3.4 29.953 0.197 3.114 0.394 6.21 1.209 9.188 0.688 1.905 1.905 3.538 2.152 5.583 0.098 1.593-0.394 3.087-0.098 4.441 0.098 1.632 1.112 2.605 1.248 4.089 0.491 4.059 0.491 9.327-0.294 13.138-1.209 5.925-0.982 11.89-0.982 17.992 0 4.883-0.688 6.761 3.674 8.942 2.29 1.072 4.195 1.905 6.24 2.841 1.866 0.982 4.856 2.045 6.064 3.92-0.394-7.313-1.209-14.769-1.209-22.082 0.098-10.018 0.982-19.899-1.769-29.779-2.566-10.296-4.335-21.25-5.129-31.962-0.394-6.201-1.905-11.926 0.294-17.992 2.014-5.689 1.072-12.065 1.072-18.167 0-5.404-1.072-10.678-1.357-16.12-0.098-6.064 0-12.305 0-18.408 0.294-13.799 0.982-27.49 2.426-41.289 1.632-15.463 1.632-30.751 4.609-46.315 1.209-6.898 0.688-13.97 1.769-21.147 1.357-9.327 1.493-17.855 1.493-27.215 0-16.918 0.688-33.835 0.098-50.787-0.394-12.030-2.457-24.233-2.32-36.4 0.098-17.335-2.014-34.529-2.29-51.864-0.098-7.734-0.688-15.322-1.905-23.018-1.072-7.458-1.072-14.769-2.152-22.223-0.787-6.761-0.787-13.833-0.394-20.73 0.098-5.268 1.632-10.019 2.566-15.152 0.982-4.609 0.787-9.081 1.632-13.553 1.209-6.624 1.209-12.863 1.346-19.483 0.294-11.785 4.195-23.296 5.553-34.945 0.591-4.335 0.394-8.667 0.098-12.863 0-3.674-2.29-5.444-3.223-8.667-0.787-3.4-0.098-8.667-0.098-12.202 0-1.072 0.394-2.566 0.098-3.499-0.294-0.787-1.112-1.112-1.248-1.769-0.197-2.181 0.394-3.538-0.982-5.404-0.982-1.385-2.29-2.045-3.635-2.741-1.632-0.982-2.32-1.072-4.226-1.73-1.209-0.294-2.29-1.632-3.635-2.045-1.632-0.394-3.92-1.072-5.689-1.072-1.905-0.098-5.965-1.769-2.29-1.072z"></path>
    <path fill="#000000" d="M243.49 453.265c0.787 4.992-1.072 10.954-1.072 15.842 0 4.716 0.491 9.327 0.982 14.215 0.787 8.53-0.098 17.194 0.098 25.863 0.591 11.232 2.426 22.223 3.262 33.455 0.982 14.632-0.294 29.363 1.072 44.131 1.493 13.695-0.982 27.769-0.982 41.567 0.197 8.146-0.394 16.537 0.394 24.545 0.394 6.349 2.32 12.446 2.978 18.79 1.632 16.815 0.787 33.732 2.702 50.65 0.787 7.173 2.045 13.97 2.045 21.008 0.098 6.24 0 12.447 0 18.547 0 12.722-0.098 25.343 0.787 38.065 0.394 8.392 1.248 16.778 1.357 25.169 0.098 7.449 2.457 14.49 2.32 21.945-0.098 5.168 1.493 9.88 1.357 15.046-0.394 5.404-1.905 10.679-1.357 16.362 0.394 2.841 1.769 5.828 2.426 8.421 0.294 1.209 0.787 1.593 1.072 2.947 0.098 1.112-0.197 2.32 0 3.4 0.294 3.114 2.741 3.674 5.583 4.747 2.426 0.688 9.188 4.195 11.37 3.361 3.223-1.209-1.357-7.419-2.181-10.264-2.702-7.872-3.92-15.983-4.856-24.266-0.294-3.223-0.982-6.064-2.045-9.188-1.346-3.814-1.072-7.872-2.045-11.926-1.357-7.313-2.426-13.937-2.566-21.529 0-6.624 1.209-12.722 2.457-19.378 0.982-4.471 1.218-8.912 0.787-13.659-0.787-7.586-1.209-15.046-1.769-22.639-0.787-12.722-0.294-25.585-0.294-38.307 0-8.106 0.688-16.64-0.098-24.786-0.688-4.747-2.566-8.942-4.195-13.417-2.014-4.992-2.426-10.158-1.357-15.427 1.632-6.898 1.112-13.936 2.841-20.975 0.787-2.978 0.098-5.828 0.591-9.081 0.098-1.769 1.072-3.4 1.209-5.404 0.294-2.045 0-4.335 0-6.516 0-9.739-0.098-19.76 0-29.503 0-4.747-0.688-10.297-1.493-15.047-1.072-5.828-1.632-11.232-2.014-16.918-0.098-5.689-1.632-11.129-2.32-16.675-0.491-7.313-2.29-14.63-3.635-21.945-0.982-5.689-2.045-11.752-1.905-17.439v-8.561c0-4.716-1.072-9.051-1.209-13.659-0.591-12.343-0.098-24.095 2.29-36.159 0.688-2.841 2.181-7.734 0.688-10.713-2.841-5.129-11.927 0.787-14.215 2.605 0.491 0.787 0.688 1.73 0.982 2.702z"></path>
    <path fill="#000000" d="M677.493 141.258c-2.29 6.349-2.014 11.891-2.29 18.687-0.394 9.601-2.426 19.103-3.114 28.567-0.491 9.739-0.491 19.378-1.493 28.983-1.209 11.51-3.114 22.743-3.223 34.529-0.394 20.176 0 40.49 0 60.667 0 10.713-0.394 21.39 0 32.241 0.197 11.37 1.454 22.743 2.014 34.114 0.688 19.518 1.357 38.722 4.883 58.103 1.769 9.739 1.769 19.899 2.841 29.779 1.072 9.64 0.394 19.103-1.209 28.705-3.4 18.962-4.089 38.618-6.24 57.688-0.982 7.076-0.982 13.833-2.045 20.871-0.098 0.982-0.394 1.493-0.197 2.426 0.098 1.209 0.688 1.769 0.787 2.605 2.045 9.188-1.632 20.834-4.335 29.641-5.022 17.473-6.624 34.945-8.106 53.075-0.688 8.667-0.688 17.335-0.787 26.28-0.098 8.806-1.632 17.335-1.072 26.278 0.591 12.722 3.262 24.927 3.262 37.928 0 7.833 0.394 15.983-0.787 23.817-0.787 3.92-0.787 8.009-1.209 11.785-0.688 4.195-1.357 8.255-1.357 12.447 0.098 11.37 0.294 22.36 1.357 33.593 0.982 9.081 2.045 17.889 2.045 26.937 0 2.605-1.357 13.138 0.688 14.49 1.357 0.982 4.195-0.491 5.307-1.209 2.702-1.357 4.441-3.361 7.558-3.361 1.112-3.95-0.394-8.009-0.982-11.649-0.294-3.262 0.394-6.377 0-9.503-0.294-2.841-1.209-4.856-1.209-7.597 0.098-1.866 0-3.92 0-5.828 0.098-3.361-1.493-6.624-1.209-10.122 0.098-2.605 1.072-4.895 1.209-7.213 0.294-3.635-0.787-7.173-0.982-10.539-0.394-4.195-0.098-8.392-0.098-12.583v-23.575c0-6.104-0.294-12.343 0-18.547 0.098-5.689 2.29-10.991 2.29-16.953 0.294-12.168-1.357-24.233-1.209-36.539 0.098-5.543 2.152-9.88 3.361-15.321 1.769-7.313 4.226-14.215 6.652-21.529 4.992-13.936 3.635-29.778 3.635-44.41 0-15.425-1.357-30.61-2.152-45.898-0.591-10.297 0-20.593-0.294-30.752 0-18.408 10.019-34.945 12.447-53.075 1.493-9.739 2.181-20.315 1.112-30.057-0.591-5.168-0.982-10.296-1.632-15.463-0.787-4.716-0.982-9.463-1.769-14.074-0.688-3.92-2.29-7.449-3.114-11.232-1.072-4.609-2.702-9.081-3.783-13.831-0.787-3.499-1.905-7.313-2.978-10.817-1.493-4.059-0.787-7.734-1.493-12.202-1.493-10.158-0.982-20.697-0.982-31.13 0-9.081-0.688-18.167 0.982-26.937 0.982-5.444-0.098-10.991 0.098-16.4 0.294-2.045 0.688-4.059 0.982-6.104 0.688-3.635 0-7.597 0.591-11.371 0.982-5.268 1.632-10.711 2.29-15.983 0.982-6.761 0.394-13.416 1.072-20.176 1.248-12.722 3.4-25.585 5.307-38.307 0.787-5.828 0.098-12.202 0.098-18.027v-17.193c0-3.674 0.197-7.458 0-10.991-0.394-4.335-2.181-8.106-2.32-12.447-0.098-6.24-1.209-12.065-0.982-18.272 0.787 3.114-5.032 1.493-6.652 2.014-0.098 0.294-0.098 0.591-1.493 0.982z"></path>
    <path fill="#000000" d="M785.587 425.359c0 9.354 0.197 18.545-1.112 27.768-1.072 8.106-3.635 15.983-4.335 24.233-0.982 9.081-1.493 18.131-1.493 27.354 0.098 15.046-1.878 29.674-2.152 44.546-0.098 8.009-1.209 15.842-1.209 23.992v45.482c0 7.597 0.688 15.427-0.098 23.019-1.072 9.366-0.982 18.408-0.982 27.768 0 7.458-1.112 14.49-1.248 21.945 0 6.349-0.098 12.722-0.394 19.103-0.294 12.863-0.688 25.722-0.688 38.863 0 7.313 1.209 14.215 1.209 21.529-0.098 3.262-0.098 6.486 0 9.88 0 1.632-0.491 4.195 0.098 5.689 3.814-2.29 5.032-6.516 6.652-10.434 0.787-1.632 1.866-3.262 2.152-5.129 0.591-2.045 0.982-2.457 2.045-4.335 1.493-2.32 1.072-5.168 1.493-7.597 0.197-1.905 1.072-3.4 1.209-5.543 0.294-7.173 0-14.49 0-21.667v-45.658c0-5.268-0.394-10.678 0-16.086 0.098-3.262 1.493-5.689 2.29-8.806 1.209-3.95-0.688-7.872-0.982-11.927-0.591-5.268 0.394-10.574 0.982-15.703 0.787-5.032 2.457-9.739 3.4-14.632 0.982-5.689 0.982-11.51 1.209-17.335 0.787-11.926 0.787-24.095 2.702-36.018 1.493-9.601 3.674-18.962 4.059-28.842 0.098-9.218-0.098-18.687-0.098-27.907 0-8.255 0.688-16.918-0.491-25.030-0.982-6.24-1.632-11.545-1.632-17.752 0-4.609 0.394-9.64-0.688-13.97-0.787-3.361-1.73-5.404-1.73-9.051v-9.218c0-1.072 0.098-2.152-0.098-3.262-0.098-0.982-1.112-1.493-1.209-2.841-4.226-0.982-8.146-2.152-8.806-2.426z"></path>
    <path fill="#000000" d="M473.025 315.115c-0.394 0-0.688 0-0.982 0.294-0.982 2.045-0.394 5.828-0.394 7.872 0 7.449 0 14.872 0.098 22.327 0 10.574-0.688 21.008-1.072 31.546-0.394 11.649 0.491 23.435-0.294 35.362-1.072 14.215-1.072 28.705-1.072 43.195 0.098 9.218 1.593 18.408 2.152 27.631 0.787 12.722 0.591 25.447 1.357 38.169 1.493 19.24 2.32 38.481 2.32 57.963 0 9.366 0.394 18.547 0 27.907-0.591 11.232-2.741 22.223-3.126 33.315-0.591 8.255-0.294 16.398-0.294 24.511-0.098 6.624-0.294 13.417 0.591 20.039 2.014 16.398 0.491 33.593 0.491 49.991 0 6.624 0.394 13.243-0.098 19.899-0.294 5.828-1.072 11.232-1.072 16.918 0.098 5.689 0 11.095 0.098 16.779 0 5.444-1.072 10.713-1.632 16.258-1.632 12.343-5.129 25.481-3.92 38.065 0.787 7.694 3.223 15.567 3.223 23.297-0.098 15.705 0 31.13 0 46.697 0 3.4-0.394 7.037 0 10.296 0.394 3.4 2.741 3.4 5.719 4.335 1.493 0.294 2.841 0.294 4.58 0 1.493-0.491 2.978-0.688 4.471-0.982 4.883-0.982 0.394-7.313-0.294-10.297-2.841-11.785-0.982-23.713-2.014-35.743-0.591-4.195-1.632-8.146-2.045-12.343-0.688-7.037 0.098-14.215-0.294-21.112-0.491-8.255-2.426-15.842-2.152-24.233v-11.129c0-8.912 0.394-17.334 2.152-26.242 1.248-5.719 3.262-11.51 4.609-17.231 1.357-6.064 1.769-11.752 2.457-17.992 0.982-8.392 2.841-16.919 3.361-25.447 0.098-4.335-0.491-8.667 0-13.138 0.394-5.444 1.357-10.018 0.787-15.6-0.787-12.447-2.457-24.891-3.4-37.371-0.294-5.543-2.045-10.816-2.152-16.362-0.098-5.168 0-10.296 0-15.463 0-6.761-0.294-13.658 0-20.455 0.098-5.689 1.209-10.953 1.209-16.362-0.098-10.991 1.072-21.528 2.841-32.519 0.982-5.828 4.059-11.649 4.059-17.577 0-1.493-0.098-2.88-0.098-4.226 0.098-3.087 1.357-5.925 1.905-9.051 1.866-8.53 1.493-17.057 1.493-25.723 0-11.926 0-23.713-2.181-35.498-1.905-10.018-4.747-19.898-7.449-29.779-1.493-5.168-1.209-10.433-2.426-15.703-0.787-4.609-2.566-9.081-2.702-13.833-0.098-4.747-1.072-9.188-1.072-13.799-0.098-4.609 0-9.081 0-13.553 0-6.486-0.787-13.417 0.394-19.624 0.787-3.4 1.769-6.652 1.905-10.018 0-3.114-0.098-6.24-0.098-9.354v-7.734c0.098-3.223 1.072-6.064 1.209-9.188 0.098-3.262 0.982-7.597-1.357-9.881-2.426-2.457-5.828-1.493-10.019 1.878z"></path>
    </svg>