<svg xmlns="http://www.w3.org/2000/svg" viewBox="54.924 44.200 897.162 961.158">
    <path fill="#000000" d="M573.043 855.144c1.531-0.282 2.969-0.378 4.168-0.378-1.435-0.282-2.863-0.378-4.168 0.378z"></path>
    <path fill="#000000" d="M579.543 855.277c-0.569-0.378-1.435-0.473-2.332-0.473 0.756 0.094 1.664 0.378 2.332 0.473z"></path>
    <path fill="#000000" d="M870.665 671.182c-0.662-3.532-0.662-7.171-1.163-10.799-1.936-12.768-5.196-24.367-12.899-35.831-7.132-10.668-15.599-20.431-26.167-29.298-6.766-5.604-13.132-11.431-20.167-16.899-7.831-5.869-13.931-12.131-22.399-17.331-6.631-3.903-13.4-6.766-20.299-9.9-8.598-4.033-17.868-7.305-26.431-11.068-2.731-1.305-4.837-2.598-7.831-3.495-0.282-0.094-0.473-0.094-0.662-0.094-1.163 0.282-2.505 0.473-3.798 0.473-4.168 0.378-7.794-1.305-11.567-1.936-4.299-0.756-8.731-1.030-12.767-2.363-4.299-1.163-8.731-2.731-13.031-4.168-4.299-1.305-8.467-2.969-12.631-4.669 0.094 0.282 0.094 0.662 0.282 0.944-16.668-2.069-33.598-2.598-50.398-4.564-3.495-0.378-7.132-0.756-10.931-0.662-6.105 0.378-11.2-0.662-17.431-1.305-7.569-0.756-15.1-2.332-22.667-3.637-4.299-0.662-8.833-1.331-13.268-2.097-1.163-0.094-1.701 0-2.598-0.662-2.097-1.294-2.863-3.495-5.233-5.065-4.033-2.332-8.968-3.77-12.599-6.369 1.806-4.299 3.637-8.731 4.8-13.031 2.202-7.936 1.967-16.132 4.299-23.831 2.468-7.663 5.329-15.368 7.663-23.167 0.944-3.402 1.831-7.030 2.23-10.531 0.094-1.569 0-3.532 0.662-5.103 1.069-3.006 2.598-5.734 3.402-8.968 0.569-2.863 1.163-6 1.831-9.136 0.094-0.756 0.378-1.569 0.662-2.468 3.006 1.831 6.265 3.77 9.499 5.604 10.7 6.369 22.932 10.3 33.331 17.067 5.103 3.099 9.632 8.598 13.668 13.268 3.931 4.431 6.265 9.767 9.668 14.831 2.969 4.695 6.631 7.966 10.668 11.731 6.094 6 11.331 13.4 16.531 20.299 1.030 1.435 1.967 2.863 2.598 4.299 1.435-0.473 2.863-1.163 4.299-1.569 2.202-0.662 4.431-0.944 6.766-1.163 5.869-0.944 11.6-2.332 17.2-4.669 4.931-2.097 11.199-4.969 16.799-8.097-0.094-1.305-0.282-2.468-0.569-3.637-0.662-3.269-1.030-6.631-1.569-10.032-0.569-2.468-1.163-7.794-2.863-10.131-1.163-1.435-3.136-2.363-4.431-3.532-2.202-2.202-3.77-4.931-5.47-7.531-1.569-2.505-2.863-5.233-5.329-6.897-2.069-1.831-4.564-2.372-6.766-3.931-3.903-2.598-4.931-4.168-10.168-4.669-4.669-0.282-9.231 0.473-13.931 0.473-3.231 0.094-5.604-0.378-6.766-3.637-0.662-2.097-0.944-4.299-1.701-6.369-1.531-4.695-3.364-8.863-6.897-12.267-3.628-3.77-7.132-7.030-10.268-11.299-2.598-4.063-4.837-8.23-7.435-12.269-3.628-4.931-5.734-10.399-9.767-15.098-1.569-1.794-2.332-3.77-3.903-5.196-2.069-2.097-2.598-5.734-4.837-7.569-2.598-2.069-5.697 1.831-8.833 1.701-2.863 0-6.396-2.598-9.136-3.77-3.495-1.831-7.132-3.402-10.932-4.431-3.495-1.163-7.162-1.936-10.799-2.863-0.378-2.468-0.662-4.931-1.030-7.398-0.944-5.368-1.831-10.431-2.731-15.899-0.378-2.731 0-5.47-0.282-8.332-0.569-3.903-1.569-7.435-1.569-11.467 0.094-4.564-1.569-8.833-3.136-13.132-1.305-3.798-3.364-7.701-4.931-11.467-1.435-3.903-2.994-7.936-4.969-11.6-3.099-5.869-6.766-11.831-10.668-17.431-2.994-4.299-6.105-8.598-9.767-12.368-0.378-0.569-1.569-2.363-2.598-3.667 1.701 0.569 0-0.756-1.030-1.806-1.701-2.23-2.468-3.667-4.969-2.097-1.794 1.172-2.731 2.731-4.299 4.033-1.398 1.163-2.969 2.598-4.534 3.269-3.136 1.305-8.598 1.305-10.7 4.168-1.531 1.831 0.282 2.332 1.701 3.495 0.569 0.378 2.097 1.435 2.468 2.097 0.662 0.756 0.378 2.598 0.756 3.637 1.030 2.468 2.069 4.837 2.994 7.435 1.305 4.168 4.8 7.030 6.105 11.332 1.701 4.931 3.931 10.131 6.265 14.967 1.569 2.598 2.731 4.931 3.136 8.069 0.473 2.863 0.756 5.869 1.163 8.598 1.030 4.837 3.364 8.994 4.431 13.668 1.305 5.869 1.531 11.068 1.531 16.931 0 2.731 0 5.196-0.094 7.663h-1.435c-1.831-0.094-3.269 0-4.837-0.756-5.47-2.097-10.031-5.329-15.999-6.369-7.030-1.435-14.467 1.664-21.631 0.662-4.564-0.569-7.531-2.598-11.832-3.77-3.798-1.030-9.631 0.473-13.699 1.030-7.002 0.944-12.231 4.969-18.731 7.305-3.637 1.435-7.435 1.936-10.931 4.168-3.269 2.069-6.131 4.669-9.631 6.235-5.196 2.505-10.568 4.168-16.268 5.604-13.3 3.667-24.998 12.632-35.431 21.631-4.564 3.77-8.731 8.202-11.832 13.131-4.431 6.897-10.831 12.499-16.668 18.099-4.063 3.903-8.332 6.766-11.731 11.6-4.033 5.47-8.598 10.931-11.068 17.699-1.701 4.431-4.033 8.731-6 13.168 3.798 0.944 7.701 1.030 12.499 0.094 6.538-1.2 12.5 1.030 17.831 3.364 6.131 2.598 11.468 5.604 17.868 7.569 0.189-0.569 0.378-0.944 0.662-1.435 7.305-16.398 18.367-29.967 29.831-43.232 0.378-2.332 2.069-3.903 4.299-4.969 0.944-1.030 1.531-1.936 2.468-2.731-0.756 0.756-1.435 1.701-2.097 2.505 2.23-1.069 4.969-1.967 6.396-2.994 1.794-1.163 2.994-3.903 5.065-5.103 1.831-1.030 4.431-1.936 6.131-2.202 3.099-0.378 5.604-1.305 8.703-2.332 4.564-1.701 9.269-2.23 13.931-4.033 3.667-1.435 7.171-1.569 11.331-1.967 6.265-0.756 12.5-1.701 18.9-2.202 5.065-0.569 9.631 0.378 14.699 1.030 5.869 0.473 11.6-0.094 17.2 0.378 6.631 0.662 13.131 2.468 19.531 3.903-1.569 9.501-1.569 19.131-1.701 28.631-0.378 10.431-7.162 16.668-12.368 24.599-1.701 2.505-3.667 4.564-5.734 6.897-1.163 1.701-2.097 3.136-2.598 4.837-0.282 1.435-0.378 2.598-0.944 3.77-0.944 2.468-2.202 4.837-3.364 7.171-2.468 4.969-4.564 10.032-6.897 15.099-0.662 0.662-1.305 1.569-1.967 2.23-1.831 1.435-4.299 2.731-6.631 3.637-4.299 1.435-10.032 2.598-14.6 3.269-7.030 0.756-13.668 1.936-20.831 2.731-3.903 0.378-7.936 0.756-12.1 0.473-9.499-0.378-18.731-4.299-27.467-7.171-4.837-1.398-10.668-1.664-15.9-2.202-8.569-0.756-17.299-1.030-25.899-0.662-3.136 0-6.369-0.094-9.631-0.378 0.094-0.282 0.282-0.378 0.378-0.662h-0.378c-2.468 0.282-5.196 0.569-7.936 0.378-3.402-0.282-6-2.332-9.269-2.863-2.863-0.569-5.971-0.282-8.833-0.756-8.863-1.305-19.267-4.168-26.067-8.863-3.77-2.731-8.833-3.637-12.867-6-3.006-1.305-6.131-2.731-9.402-4.168-7.002-3.231-14.299-6.235-20.931-9.899-9.531-5.065-15.368-13.268-21.231-20.931-7.701-9.767-16.931-18.231-22.799-28.931-4.431-8.202-7.531-18.468-8.467-27.467-0.756-8.968-1.435-18.867-0.662-27.731 0.756-7.936 0.662-17.831 5.734-24.867 1.664-2.202 3.903-3.903 5.734-5.869 1.305-1.435 2.468-2.863 3.628-4.299 4.695-6.501 9.631-12.731 14.968-18.999 1.569-1.701 3.006-3.495 4.299-5.338 2.332-2.332 4.695-4.564 7.294-6.631 2.202-2.23 4.168-4.431 5.734-7.030 3.77-6 6.897-12.368 11.2-18.231 3.628-4.837 7.398-9.631 10.399-14.967 0.756-1.569 1.701-2.635 3.136-3.931 3.903-3.495 7.663-7.132 11.832-10.4 3.931-3.269 7.435-6.265 10.568-10.431 2.994-3.903 6.631-5.329 10.531-8.332 4.033-3.099 9.364-5.338 14.331-6.766 4.299-1.305 7.171-2.202 9.364-6.501 1.163-2.598 1.163-5.604 1.831-8.598 0.378-2.202 1.794-4.299 2.202-6.105 0.094-1.2-0.378-2.363 0-3.532 0.094-1.305 0.944-1.831 0.282-3.136-1.163-1.936-4.564-1.664-6.131-1.664-0.189-0.662-0.473-1.2-0.662-1.831-1.030-0.094-1.967 0.378-2.863 0.282-1.030-0.094-1.163-0.756-2.202-1.069-0.944-0.094-1.831 0.378-2.769 0.378-1.163-0.094-1.794-0.944-3.099-0.756-2.598 0.282-4.695 1.701-6.766 2.863-1.069 0.473-2.635 0.944-3.532 1.664-0.756 0.662-0.756 1.2-1.435 1.831-2.069 1.569-6 2.332-8.467 3.269-2.598 1.163-5.329 2.332-8.069 3.495-10.4 4.837-20.299 9.899-29.798 15.899-6.804 4.168-13.832 7.663-20.468 11.832-6.369 4.431-12.767 8.863-19.668 12.899-6.105 3.77-11.831 8.467-17.299 12.768-4.564 3.903-7.701 7.794-11.199 12.368-3.532 4.564-7.701 8.863-11.468 13.267-3.637 4.564-5.734 8.994-8.332 13.799-2.731 4.969-5.47 8.994-8.731 13.431-1.398 2.069-2.598 4.168-4.033 6.235-2.863 4.168-6.369 7.701-8.833 11.868-6.265 11.2-11.999 23.931-13.168 36.199-0.473 5.83-0.756 11.699-0.944 17.567-0.094 3.402 0.944 6.131 1.305 9.364 0.662 3.402 0.662 6.538 1.030 9.9 1.701 11.599 4.828 22.131 11.999 32.566 6.631 9.9 14.431 18.599 23.931 26.667 6.131 5.368 12.132 10.568 18.632 15.632 7.030 5.329 12.767 11.068 20.567 15.767 6 3.495 12.1 6.235 18.631 9.099 2.069 1.069 4.299 1.967 6.631 2.863 0.756 0.282 1.701 0.662 2.332 0.756 6.631 2.069 13.3 3.495 19.668 5.734 8.069 2.598 16.668 3.495 24.467 6.766 3.269 1.294 6.396 2.994 9.899 3.77 2.994 0.662 5.734 1.030 8.598 2.332 3.667 1.701 5.869 3.006 10.032 3.402 3.364 0.282 6.369 0.662 9.767 1.305 6.631 1.701 12.499 1.569 19.268 1.569 0.662 0 1.569 0 2.332 0.094 0.094-0.662 0.282-1.069 0.282-1.569 4.564 0.473 9.136 0.756 13.531 1.435 3.402 0.282 6.529 0.662 9.9 0.473 5.734-0.378 10.431 0.662 16.031 1.2 8.202 0.944 17.431 4.534 25.899 3.099 2.598-0.378 4.969-1.305 7.701-1.163 7.794 0.378 14.568 6.897 19.268 11.199 2.994 3.136 4.669 6.897 7.398 10.168 1.305 1.305 3.269 2.468 4.299 4.168 1.305 1.701 1.701 3.903 2.731 5.869 0.756 1.531 1.569 3.364 2.468 4.931 0 0.094-0.094 0.094-0.094 0.282-1.2 2.994-1.701 6.235-2.23 9.364-0.378 3.77 0 7.435-0.094 11.199-0.094 4.564-1.794 8.202-2.731 12.632-1.569 6.131-1.794 11.831-1.794 18.367-0.094 7.162 1.435 14.067 1.531 21.198 0.282 4.299 1.569 8.467 1.435 12.9-0.189 1.030-0.378 2.23-0.662 3.136-0.282 0.756-1.305 1.701-1.435 2.468-0.756 2.598 1.163 7.794 1.569 10.568 1.030 8.069 1.305 16.267 2.731 24.331-6.265-0.378-12.1-1.831-17.831-4.431-7.569-3.77-13.799-9.499-20.331-14.967-6.369-5.065-12.768-7.936-17.031-15.499-1.569-2.598-2.731-5.604-4.431-8.202-2.372-3.637-5.604-6.235-8.202-9.364-5.103-6.265-7.701-14.067-11.999-20.831-2.201-3.402-4.533-6.529-7.161-9.364-4.404-5.103-7.794-8.332-10.799-14.867-2.598-5.971-5.065-11.569-8.467-17.3-4.8-8.202-5.196-18.367-4.431-28.398-6.631 1.831-13.4 3.903-20.567 3.006-5.47-0.944-10.668-2.097-16.132-2.202-5.734-0.378-11.467 0.662-17.199 0 0.282 2.202 0.569 4.27 0.756 6.501 0.662 6.235 2.468 11.967 3.006 18.231 0.473 4.168 2.069 7.663 2.468 11.831 0.473 4.828 1.030 9.631 1.569 14.468 0.189 4.431 0.944 12.999 7.171 13.399 1.794 0.094 4.168-1.936 6.105-0.756 2.23 1.305 1.831 5.604 2.097 7.794 1.435 12.231 5.065 25.531 11.068 36.598 2.969 5.604 5.47 11.431 8.569 17.031 1.831 3.269 4.837 5.734 6.897 9.136 1.569 2.598 3.402 6.897 6.804 8.069 0.944 0.378 2.332 0.094 3.231 0.569 1.701 0.756 2.097 1.664 4.168 2.069 5.869 1.305 8.202 3.77 11.731 8.332 4.564 5.869 11.569 8.731 18.099 11.731 7.794 3.903 15.868 7.531 23.967 11.068 0.756 0.282 1.664 0.662 2.332 1.030 13.668 6 27.068 11.331 41.398 14.468 7.794 1.664 15.369 3.099 23.168 4.534 1.569 3.136 3.006 6.265 4.431 9.632 2.468 7.569 5.338 14.067 9.501 20.831 7.162 11.999 11.868 25.268 19.031 36.999 3.637 5.962 7.663 11.467 10.931 17.699 1.569 3.532 2.863 6.369 5.196 9.231 2.332 2.994 3.402 5.604 4.431 9.402 0.378 1.664 1.294 4.404 1.435 6.369 0.094 0.378 0 2.332 0.282 2.598 1.163 1.163 4.931-0.473 6.105-1.030 2.363-0.569 4.168-1.831 6.396-2.468 1.936-0.569 2.598-1.069 4.299-1.967 1.664-0.944 3.637-1.163 5.566-1.936 3.402-1.569 6.396-3.136 9.9-4.063 0.662-0.094 5.47-1.163 5.604-1.435 0.569-1.163-0.944-2.731-1.435-3.637-2.069-3.364-3.495-7.162-5.47-10.668-3.77-6.897-8.968-12.767-14.067-18.367-2.969-3.136-6.501-6-8.332-9.899-3.099-6-4.534-13.132-6.897-19.668-4.299-10.931-8.968-21.731-13.799-32.666 1.701-0.094 3.532-0.094 5.329-0.282 19.031-1.163 38.931 2.202 57.566-2.332 10.168-2.363 19.668-7.435 29.698-10.831 3.506-1.163 7.663-1.794 10.931-3.77 3.364-1.936 5.604-4.8 9.364-6.235 3.637-1.435 6.131-3.269 9.364-5.233 1.294-0.944 3.136-2.069 4.695-2.069 1.701 0 2.863 1.163 4.299 1.305 2.468 0.282 4.033-1.831 5.869-3.269 2.598-2.069 5.065-3.77 7.663-6.105 6.631-6.529 13.3-11.868 21.731-15.899 5.734-2.598 9.136-9.499 12.9-14.067 3.402-4.033 7.435-7.531 10.568-11.7 2.069-2.731 3.77-5.869 4.931-9.136 0.569-1.664 0.756-3.495 1.435-5.065 1.435-3.903 4.033-7.171 5.734-11.2 0.662-1.701 1.435-3.637 2.202-5.604-0.944-1.569-1.936-2.994-3.136-4.564-1.531-2.069-3.364-3.903-4.8-6.105-0.378-0.662-0.756-1.305-1.435-1.831-1.967-1.967-5.196-3.269-7.569-4.931-2.731-1.967-5.604-4.033-8.332-6.131-3.637-2.598-7.398-5.196-11.7-7.162-3.532-1.701-6.265-3.006-8.994-5.338-1.435-1.435-2.731-2.731-4.168-4.033-2.731 4.033-5.196 8.069-7.030 12.767-3.364 8.202-5.971 15.731-10.931 23.167-3.364 5.065-7.030 10.032-10.268 15.499-3.402 5.47-5.233 11.832-8.731 17.299-4.695 7.305-14.967 14.2-22.531 17.468-2.332 0.944-4.8 1.305-7.305 2.069-4.8 1.2-8.703 3.532-13.132 5.734-7.305 3.667-16.398 4.969-24.367 6.265-10.267 1.936-20.031 1.701-30.467 0.756-3.099-0.378-6.235-0.094-8.968-1.305-2.994-1.030-5.338-3.269-8.069-4.564-3.667-1.806-8.097-2.731-11.999-3.903-3.903-1.163-7.030-1.794-11.068-1.569-1.305 0.094-2.468 0.282-3.77 0.378-0.282-7.663 0-15.499-1.569-23.299-0.944-3.77-2.069-7.569-2.598-11.467-0.569-4.431-0.094-9.099-0.094-13.531 0-7.569 0-15.631 1.967-22.931 1.794-6.897 5.065-13.132 7.398-19.768 2.505-6.661 3.136-13.799 5.47-20.467 0.282-0.094 0.569-0.282 0.944-0.378 6.766-2.097 13.4-2.23 19.667-5.604 5.065-2.863 10.668-8.332 17.031-9.631 2.994-0.756 5.103-0.756 7.966-1.967 1.664-0.662 3.364-1.569 5.196-1.831 3.136-0.662 5.962 0.662 8.968 0.756 4.431 0.282 8.994-0.282 13.431-0.378 4.033 0 7.794-0.094 11.699 0.662 2.598 0.378 5.338 0.944 7.966 1.163 2.202 0 4.404-0.378 6.369 0.094 2.332 0.378 3.495 1.664 5.47 2.598 5.065 2.069 14.968 0.756 20.831 0.756 7.030-0.378 14.067 0.569 21.099 0.378 4.168 0 8.202-0.756 12.368 0 7.162 1.172 13.399 4.299 19.799 7.435 2.863 0 5.83 0.378 8.703 0.756 2.363 0.662 6.265 1.030 8.598 1.831 5.869 1.936 9.269 6.369 13.031 9.999 1.936 1.831 3.903 3.532 6.631 4.828 1.163 0.662 2.731 0.944 3.903 1.569 2.097 1.030 3.77 2.468 5.734 3.77 0-0.662 0-1.030 0.094-1.569 4.931 2.097 10.032 4.299 14.567 6.766 4.837 2.731 8.731 6.265 12.269 9.9 1.794 1.030 3.495 2.23 5.196 3.402 4.299 3.364 7.305 9.099 9.231 13.931 7.435 9.099 15.767 17.431 21.231 27.599 4.837 8.863 8.332 20.299 9.231 30.199 0.944 9.899 1.569 20.567 0.569 30.599-0.756 8.467-0.662 19.398-6.369 27.098-1.701 2.332-4.168 4.404-6.265 6.501-1.435 1.569-2.731 2.994-4.033 4.8-5.196 7.162-10.3 13.931-16.267 20.731-1.831 2.069-3.402 3.903-4.837 5.971-2.468 2.598-5.196 4.969-7.936 7.305-2.468 2.332-4.431 4.837-6.396 7.663-4.168 6.804-7.398 13.431-12.231 20.067-4.669 6.131-8.968 12.767-13.531 18.867-5.196 7.030-12.231 12.632-18.999 18.099-2.598 2.23-4.969 3.931-7.030 6.396-1.831 2.332-4.837 4.431-7.162 6.235-3.77 2.863-6.265 8.332-6.897 13.031-0.378 2.069-0.944 6.631 0.378 8.598 1.030 1.435 3.364 1.806 4.534 3.006 0.378 0.189 0.756 1.305 1.163 1.531 1.2 0.944 3.269 0.756 4.564 1.331 3.269 1.664 4.299 2.731 8.069 1.030 1.831-0.662 3.402-1.305 5.368-1.701 3.099-0.944 5.47-3.136 8.332-4.564 1.163-0.756 2.468-1.030 3.506-1.806 1.435-0.944 2.468-2.994 3.903-3.798 1.163-0.473 2.863-0.378 4.299-0.473 4.033-0.569 7.171 1.163 11.199-0.944 3.77-1.936 7.435-4.8 10.931-7.030 3.667-2.332 7.305-4.534 10.931-6.897 7.171-4.669 14.069-9.631 21.631-14.168 6.631-4.063 12.999-9.136 18.999-13.931 4.931-4.168 8.467-8.731 12.231-13.568 3.903-5.065 8.467-9.767 12.499-14.831 4.033-4.931 6.396-9.767 9.269-15.231 2.969-5.065 5.83-9.631 9.632-14.467 1.569-2.332 2.731-4.669 4.299-7.030 3.099-4.404 7.002-8.202 9.767-12.867 7.002-12.368 13.267-26.299 14.431-39.866 0.662-6.369 1.030-12.731 1.163-19.131 0.094-3.637-0.944-6.897-1.435-10.399z"></path>
    <path fill="#000000" d="M397.648 145.936c1.435-2.468 7.936-2.332 10.531-3.006 6.897-1.569 13.668-3.637 20.331-5.329 6.631-1.831 13.531-2.731 20.299-3.402 8.332-1.030 15.768-4.8 24.231-5.83 6.369-0.944 12.869-1.831 19.268-2.505 3.495-0.378 9.767-1.664 13.268-0.473 1.569 0.756 1.569 1.701 2.731 2.994 2.363 2.969 6.538 3.903 9.269 6.501 2.468 2.468 4.931 8.598 8.332 8.968 2.468 0.378 4.669-0.944 7.267-0.094 2.863 0.756 6.661 3.099 8.467 5.566 1.831 2.769 0 5.233-2.069 7.162-4.828 4.299-11.731 6.897-17.731 9.269-9.999 3.903-18.999 3.231-29.399 1.569-16.299-2.505-32.566-1.701-48.966 0-9.136 0.944-18.367 2.332-27.467 3.099-8.467 0.662-16.168-4.299-24.767-1.435-5.697 1.701-10.531 5.103-15.599 8.097-1.701 0.756-3.136 1.794-4.168 0.094-0.756-1.305-0.569-5.83-0.662-7.132-0.378-2.863-1.794-7.831-1.305-10.568 0.569-2.863 3.667-3.77 5.869-4.931 4.8-2.468 10.931-4.969 16.267-5.869 4.969-0.756 9.269-3.136 6-2.731z"></path>
    <path fill="#000000" d="M565.609 151.004c-0.944 4.299-0.282 8.467 0.282 12.631 0.473 4.033 2.468 4.695 5.47 6.766 2.332 1.831 6.094 5.734 8.833 6.538 4.431 0.944 11.332-3.931 14.332 0.662 1.701 2.468 0.569 3.77 4.033 4.564 2.598 0.662 4.837 0.378 7.435 1.435 3.77 1.701 7.305 2.731 10.799-0.569 3.402-3.006 4.033-9.231 3.402-13.4-0.569-4.299-3.532-8.069-6.538-11.068-2.468-2.332-5.604-4.033-7.936-6.631-1.030-1.2-1.435-3.136-2.468-4.299-1.030-0.944-2.731-0.756-3.903-1.701-0.662-0.662-1.435-1.831-1.967-2.731-1.701-2.598-2.332-3.532-5.604-3.402-2.332 0.094-4.8 0.569-7.305 0.756-4.299 0.473-9.099 0-12.368 3.364-2.069 2.23-3.231 6-3.903 8.994-0.378 1.030-1.435 3.495-0.756 4.431 0.756 1.435 4.299 0.378-1.831-6.396z"></path>
    <path fill="#000000" d="M635.007 870.008c-0.756 0-1.305 0.094-1.967 0.189-2.598 0.662-3.495 2.635-5.83 4.033-2.23 1.331-4.033 0.944-6.265 1.701-1.831 0.662-2.731 2.468-4.431 3.269-2.731 1.294-7.171 2.069-10.131 2.468-3.798 0.569-6.265 0.944-9.532 2.863-1.794 0.944-2.969 1.569-5.196 1.701-4.431 0.282-8.968 1.030-13.4 1.435-2.863 0.378-4.695-0.094-5.869 2.731-1.435 3.136-1.305 7.794-1.831 11.468-1.936 8.833 0.756 14.431 8.598 18.999 4.168 2.332 8.069 0 12.499-0.944 4.431-0.662 8.467-2.635 13.031-2.23 2.202 0.094 4.033 1.305 6.501 1.305 1.967 0 4.168-0.756 6.265-1.435 4.299-1.435 8.069-2.598 11.699-5.47 6.631-4.931 14.868-7.171 19.668-13.931 1.030-1.305 1.569-2.332 3.136-3.136 0.756-0.662 2.069-0.944 2.731-1.794 1.701-2.097-0.662-6.396-1.831-8.467-0.662-1.305-1.701-2.598-2.332-4.168-1.163-2.468-2.332-3.402-4.168-5.065-1.831-1.831-3.269-4.695-5.869-5.604-1.569-0.378-3.495-0.282-5.47 0z"></path>
    <path fill="#000000" d="M532.81 899.275c-0.378-1.030-0.662-1.398-1.701-1.806-1.030-0.569-2.598 0.094-3.402 0-2.202-0.378-4.033-1.967-5.734-3.136-2.202-1.569-2.969-4.299-5.971-4.431-1.069-0.094-2.23 0.378-3.402 0.378-8.332 0.094-17.299-1.030-25.631-2.202-5.103-0.662-10.431-2.097-15.231-1.701-4.168 0.473-6.265 0.662-9.769-1.435-3.798-2.097-7.171-4.695-10.967-6.631-3.364-1.569-6.631-2.994-9.868-5.368-2.863-2.202-6.396-4.168-9.532-6.235-1.936-1.163-3.099-3.532-5.065-4.299-2.994-1.030-5.47-1.701-7.030 0.944-2.598 4.168-6.105 7.435-8.968 11.068-2.505 3.136-5.368 6.804-6.529 10.568-0.756 2.598-0.756 7.171-0.094 10.032 1.2 3.903 6.131 5.196 9.402 7.132 4.669 2.731 8.703 7.030 13.668 9.136 3.637 1.435 7.171 1.936 10.4 4.431 2.097 1.806 3.532 3.099 6.265 3.364 2.332 0.569 4.931 0.282 7.398 0.378 4.564 0.094 8.731 1.701 13.3 2.202 3.269 0.282 6.766-0.662 10.031 0.282 1.794 0.569 3.364 2.097 5.329 2.468 3.495 0.944 6.235 0.378 9.631-0.473 6.501-2.097 13.531-1.435 20.299-2.598 5.869-1.2 13.031-1.701 18.499-4.033 0.756-0.282 1.435-0.756 2.202-1.069 0.094 0.094 0.094 0.282 0.282 0.378 2.23-2.202 3.903-4.564 3.532-7.663-0.282-2.994-0.094-6.804-1.305-9.667z"></path>
    </svg>