<svg xmlns="http://www.w3.org/2000/svg" viewBox="63.365 45.654 1024.781 932.690">
    <path fill="#000000" d="M965.763 513.158c0.138-0.622 0.262-1.244 0.4-1.892 3.438-0.995 9.581-1.244 13.194-0.498 4.426 0.871 7.819 5.589 11.598 8.079 6.579 4.255 14.872 14.784 15.689 22.734 1.502 15.126-4.47 36.702-20.375 41.776-5.755 1.842-11.169 2.712-17.19 2.279-4.209-0.249-6.060-1.804-10.056-2.328-7.695-0.995-12.073-0.995-17.576-7.306-9.071-10.441 3.692-36.702 19.338-27.46 11.864-11.947-12.891-21.274-19.122-26.818 3.737-12.504 18.606-10.828 28.62-10.828z"></path>
    <path fill="#000000" d="M645.918 731.017c0.984-0.124 2.021-0.249 3.006-0.373 3.186 4.728 6.666 13.836 7.35 19.64 0.858 7.094-4.597 14.525-6.448 21.443-3.179 11.984-14.91 29.739-26.472 34.854-22.051 9.76-57.59 11.426-73.063-10.056-5.586-7.743-9.581-15.431-11.946-24.755-1.633-6.449-0.222-10.018-1.464-16.29-2.363-12.072-4.554-18.652 2.323-30.125 11.256-18.78 57.202-12.504 50.929 15.6 23.895 11.947 25.7-29.954 30.985-42.076 20.712-0.622 25.483 22.69 30.467 37.822z"></path>
    <path fill="#000000" d="M622.366 852.916l1.546-0.124c1.677 2.453 3.481 7.219 3.868 10.23 0.437 3.734-2.406 7.555-3.354 11.214-1.673 6.234-7.777 15.474-13.797 18.183-11.473 5.078-29.994 5.925-38.079-5.29-2.92-4.046-4.984-8.040-6.231-12.936-0.858-3.347-0.138-5.203-0.736-8.466-1.247-6.312-2.406-9.76 1.158-15.726 5.886-9.796 29.827-6.534 26.562 8.166 12.461 6.234 13.367-15.643 16.113-21.962 10.83-0.249 13.281 11.862 15.906 19.729z"></path>
    <path fill="#000000" d="M539.572 292.971c-0.984 0.124-2.021 0.249-3.006 0.373-3.179-4.728-6.661-13.836-7.35-19.598-0.858-7.131 4.602-14.568 6.448-21.487 3.186-11.984 14.915-29.737 26.52-34.854 22.003-9.76 57.546-11.426 73.014 10.056 5.591 7.73 9.583 15.426 11.946 24.75 1.633 6.449 0.262 10.018 1.464 16.29 2.363 12.072 4.557 18.652-2.323 30.125-11.256 18.786-57.154 12.51-50.924-15.6-23.895-11.984-25.7 29.954-30.985 42.077-20.715 0.498-25.483-22.691-30.473-37.823z"></path>
    <path fill="#000000" d="M563.13 171.080l-1.59 0.124c-1.633-2.453-3.438-7.219-3.823-10.23-0.437-3.734 2.406-7.555 3.35-11.214 1.677-6.234 7.782-15.474 13.797-18.181 11.473-5.064 29.997-5.925 38.079 5.29 2.924 4.046 4.984 8.040 6.231 12.938 0.858 3.347 0.090 5.203 0.736 8.466 1.247 6.321 2.406 9.76-1.158 15.726-5.883 9.796-29.824 6.534-26.557-8.166-12.464-6.234-13.367 15.643-16.119 21.96-10.788 0.249-13.278-11.862-15.9-19.727z"></path>
    <path fill="#000000" d="M947.646 472.398c-22.603 0.042-45.815-11.688-63.562-25.483-5.456-4.206-9.927-9.236-15.816-13.020-6.408-4.083-12.936-7.444-19.128-11.862-11.516-8.338-24.453-15.043-35.241-24.282-9.452-8.040-20.457-13.366-31.284-19.297-11.13-6.186-23.55-11.862-36.146-14.355-2.452-0.498-5.287-0.124-7.782-0.871-2.662-0.746-4.984-2.874-7.695-3.66-5.201-1.506-11.304-1.122-16.632-2.016-12.12-2.067-23.508-7.518-35.71-9.236-14.872-2.067-30.128-3.397-44.952-4.94-16.29-1.768-31.848-2.366-48.308-2.366h-89.438c-24.929 0-50.28-2.403-74.306 4.47-8.724 2.538-16.201 9.497-24.84 13.194-10.187 4.332-20.886 7.306-30.69 12.283-7.434 3.784-12.632 13.062-18.606 18.869-5.332 5.154-9.452 11.514-14.614 16.929-3.954 4.134-8.376 7.992-12.378 12.072-5.755 5.976-11.778 12.283-18.176 17.835-4.254 3.734-8.808 6.186-13.15 9.582-3.779 2.974-6.579 7.394-10.056 10.878-6.45 6.399-13.238 9.622-19.944 15.21-9.971 8.301-21.573 13.712-32.53 20.464-4.216 2.574-9.714 3.646-13.842 6.657-5.545 3.996-7.089 6.87-14.658 6.834-11.043 0-21.573 7.78-29.437 15.86-6.234 6.449-14.914 9.546-18.829 17.746-2.104 4.383-5.070 10.146-5.883 15.127-0.648 3.697 0.984 3.61 1.59 6.063 0.858 3.573 1.416 7.357 2.235 11.003 1.374 5.8 2.875 11.262 5.243 16.847 7.175 16.847 23.807 18.264 40.224 21.014 16.418 2.753 33.308 0.995 47.492-8.040 4.597-2.961 8.422-6.271 9.583-11.898 1.122-5.676 4.897-13.068 4.554-19-0.262-4.89-3.61-10.267-6.965-13.794-3.954-4.134-8.294-4.295-13.58-5.55-6.060-1.506-10.657-3.821-17.018-1.331-7.306 2.874-6.617 8.466-2.793 14.315 2.538 3.87 6.060 7.094 6.318 11.776 0.4 6.1-3.051 9.236-7.737 11.648-8.898 4.641-19.768 0.622-22.95-9.497-3.306-10.482-1.502-26.177 2.838-36.059 5.418-12.459 15.258-19.254 25.958-26.516 11.909-8.13 25.529-14.742 38.039-21.873 12.163-6.957 25.782-12.936 39.066-17.835 7.306-2.712 13.41-7.094 19.898-10.791 6.313-3.559 12.678-8.079 17.875-13.41 3.354-3.397 6.92-6.271 10.4-9.46 2.88-2.625 4.684-5.976 7.864-8.338 2.754-2.104 5.115-3.697 7.65-6.186 2.88-2.874 6.273-3.996 9.37-6.657 12.25-10.617 21.191-22.134 36.316-29.31 13.58-6.486 27.162-13.41 41.514-17.666 7.695-2.279 15.474-5.203 23.208-6.234 13.619-1.854 26.557-2.316 40.44-2.316h115.39c10.662 0 21.274-0.124 31.891-0.042 14.696 0.089 28.239 6.399 42.031 10.878 8.718 2.789 11.598 9.060 18.906 13.626 6.49 3.996 15.384 6.834 22.734 8.376 20.67 4.255 42.376 6.785 61.156 17.533 14.226 8.166 28.968 17.064 40.698 28.882 3.61 3.61 6.748 9.147 11.13 11.862 7.051 4.383 16.336 5.414 23.937 8.202 3.354 1.244 6.661 3.448 10.144 4.383 5.201 1.418 9.714 1.418 14.872 3.347 6.017 2.238 11.598 3.959 18.052 3.87 11.688-0.089 23.42 0 26.041-4.518z"></path>
    <path fill="#000000" d="M854.805 594.671c-21.401 0-42.762-0.622-63.519 5.115-19.298 5.29-37.005 13.878-56.514 17.79-16.247 3.31-31.332 9.846-47.619 13.581-6.92 1.63-12.464 4.904-19.038 7.481-5.287 2.067-11.516 1.418-17.19 2.453-6.021 1.122-11.991 1.768-18.012 2.924-6.142 1.122-12.372 0.871-18.606 2.104-9.581 2.067-19.21 3.434-28.921 4.591-13.879 1.68-26.818 5.078-40.742 5.078-9.882 0.042-19.722 0.746-29.352-1.63-12.808-3.174-26.041-2.49-38.678-5.276-2.576-0.622-4.426-2.104-6.876-3.048-3.051-1.122-5.976-0.995-9.198-1.543-5.026-0.871-9.669-2.924-14.479-4.591-7.825-2.838-16.118-4.68-23.724-8.214-10.4-4.818-22.865-7.78-34.038-10.267-10.269-2.238-19.64-7.256-29.397-11.302-16.418-6.745-32.878-12.638-49.765-18.052-4.987-1.543-39.413-12.936-38.38 0.124 4.298 1.754 10.53 1.717 15.258 3.31 4.040 1.331 7.992 2.538 12.073 3.697 6.49 1.842 12.72 4.728 17.36 9.796 3.697 3.996 5.501 5.837 10.744 8.251 18.052 8.251 38.121 17.277 57.632 22.052 13.842 3.397 28.626 6.957 41.858 12.162 14.184 5.589 30.302 7.17 44.181 13.537 26.904 12.21 57.331 12.035 86.127 16.417 6.408 0.995 12.763 2.838 19.17 3.821 5.8 0.871 12.163 0.124 18.046 0.124 14.573 0 28.153-0.498 42.547-2.789 6.792-1.122 13.71-2.067 20.328-3.959 6.792-1.892 13.281-4.854 20.070-7.007 12.378-3.87 23.596-7.094 35.368-12.851 11.216-5.464 23.855-7.78 35.716-11.947 11.047-3.87 21.318-6.621 31.719-12.334 3.566-1.98 6.572-4.206 10.182-5.764 3.912-1.68 8.212-2.328 12.294-3.347 3.692-0.995 6.876-2.453 10.358-3.996 4.295-1.98 8.376-1.593 12.936-2.712 5.37-1.28 9.024-2.789 14.31-3.397 3.527-0.498 5.374-1.892 8.853-2.403 5.332-0.746 10.744-1.842 16.031-2.279 4.344-0.373 7.565-1.63 11.778-2.316 4.987-0.746 10.358 2.453 12.98-3.138 2.19-4.68-0.822-9.76-4.426-12.162-10.53-7.094-24.712 0.995-29.442 1.842z"></path>
    </svg>