<svg xmlns="http://www.w3.org/2000/svg" viewBox="71.494 144.005 874.316 879.995">
    <path fill="#000000" d="M464.022 144.006c-1.476 0.813-2.861 1.577-4.262 2.32-0.944 0.389-1.872 0.81-2.696 1.238-1.69 0.666-3.27 1.415-4.8 2.050-3.062 1.221-5.823 2.282-7.982 3.34l4.855-3.34c-2.943 2.004-5.443 3.33-8.035 4.746l3.666-0.269c-3.179 1.413-5.708 2.745-5.984 2.16-2.625 2.593 3.585 0.95-1.996 5.5-2.196 0.785-5.162 2.64-7.874 4.207-1.372 0.746-2.725 1.36-3.827 1.834-0.588 0.18-1.025 0.391-1.457 0.43-0.263 0-0.455-0.095-0.645-0.322 0.18-0.027 1.065-0.477 1.619-0.754 0.629-0.333 1.149-0.67 1.619-0.862 0.825-0.469 1.305-0.79 1.619-1.023 0.513-0.513 0.173-0.667-0.269-0.7-0.865-0.205-2.11-0.403 3.234-3.505-2.004 1.335-4.493 2.704-7.715 4.152-0.551 0.027 0.251-0.678 1.023-1.184-0.865 0.33-2.177 0.885-2.374 0.916-0.119-0.027-0.128-0.027-0.215 0-0.119-0.027-0.161 0.025-0.161 0.054-0.263 0.060-1.085 0.18-1.402 0.322-0.903 0.263-1.481 0.62-2.266 0.969-1.53 0.705-3.689 1.5-9.816 1.619 1.225-0.776-0.73-1.242-2.858-1.512 1.36 0.547-1.305 1.777-5.285 2.481-9.225-0.625-9.995 0.862-14.828 0.862l5.5 0.269c-0.859 0.554-2.447 0.881-4.531 1.077-2.162 0.146-4.934 0.273-8.197 0.484-0.236 0.060-0.585 0.146-0.862 0.322-0.205-0.146 0.125-0.44 0.754-0.754-2.396 0.903-3.56 1.253-5.447 1.727-1.807 0.296-3.7 0.632-5.662 1.023-3.848 0.705-7.936 1.621-11.863 3.505-4.635 0.705-1.023-1.861-5.070-1.077-3.925 1.885-6.678 2.619-9.112 3.126-1.214 0.263-2.304 0.425-3.558 0.7-0.632 0.119-1.236 0.294-1.942 0.43-0.367 0.119-0.727 0.15-1.077 0.269-0.666 0.18-1.277 0.409-1.942 0.59-0.632 0.389-1.29 0.797-1.996 1.184-0.396 0.205-0.864 0.535-1.292 0.808-0.907 0.588-1.838 1.316-2.858 2.105 3.653-0.513 3.945-1.101-2.374 4.477l9.489-6.524 8.627-3.34-3.827 2.105c-1.457 0.705-2.142 1.174-4.423 2.16-1.727 1.294-2.325 2.007-3.34 2.911 1.18-0.746 2.437-1.588 3.612-2.374 1.26-0.469 2.49-0.971 3.666-1.402 1.102-0.432 2.075-0.888 3.019-1.238 1.964-0.825 3.732-1.425 5.070-1.781-5.264 3.026-4.862 2.49-1.834 2.804-1.649 0.027-3.202 0.326-4.692 0.7-0.746 0.18-1.559 0.477-2.266 0.754l-2.643 1.023c-2.075 1.53-4.161 3.043-6.362 4.692-2.075 1.494-4.323 2.876-6.957 3.935l-1.673-3.234c-9.267 4.242-16.176 10.395-24.698 16.286-2.751 1.494-6.96 3.529-11.162 5.178l5.554-1.834c-1.61 2.316-10.076 4.819-15.097 7.767-0.027-1.335-3.501-0.182-6.090 0.054 0.588 0.742-11.881 5.372-12.512 8.358l-2.16 0.645-1.942 1.402-1.457 0.916-2.804 1.781c-10.957 9.542-9.532 13.99-19.895 23.293 2.118-3.846-3.079-0.070 2.965-7.227-3.334 3.219-6.479 5.911-5.93 6.577-0.547 0.263-1.32 0.956-2.105 1.781-0.865 0.979-1.923 2.209-3.019 3.505-0.983 1.807-2.093 3.802-3.073 5.608-0.944 1.567-1.851 2.949-2.75 3.773-0.666 1.926 0.074 3.162-2.804 7.442-0.547 0.367-0.59-0.322-0.59-0.322 0.547 0.33-3.757 7.27-0.107 4.207-2.474 2.196-4.901 5.113-7.335 8.412-1.221 1.567-2.382 3.32-3.558 5.124-1.102 1.649-2.185 3.327-3.288 5.017-1.885 1.687-3.83 3.437-5.715 5.124-2.004 1.69-3.991 3.421-5.877 5.070-3.851 3.179-7.566 5.802-10.786 7.335-4.123 3.846-8.605 8.066-12.728 11.916-2.004 5.692-3.865 10.906-5.393 15.424-0.146-0.705-0.548-0.257 0.161-1.834-5.46 11.543 0.61 8.524-5.554 21.679-4.439 6.242 1.574-7.55-0.7-3.505-1.294 0.146-2.221 1.492-3.126 3.612-0.428 1.061-0.873 2.334-1.347 3.666-0.333 1.221-0.986 3.181-1.023 3.612-0.119 0.33-0.818 1.403-1.566 2.428l-2.105 3.126c-1.457 1.96-3.058 3.751-4.746 5.124l1.238-2.050c-5.536 5.142-9.579 15.559-17.038 25.181 0 0-0.037-0.704-0.535-0.43-0.18 0.632-0.648 1.676-1.512 3.126-0.432 2.316-0.962 4.965-1.512 7.874-0.547 2.625-1.182 5.435-1.888 8.304-1.413 5.735-2.993 11.694-4.37 16.877-0.393-3.93 0.797-5.295-1.402-3.72-1.413 5.1 2.889-0.641 0.107 9.489-0.825 1.338-1.678 2.951-2.858 5.232-1.061 3.141-2.078 5.582-3.18 6.090l0.916-6.631 1.238-3.773c-0.367 0.469-0.816 0.852-1.131 1.402-0.296 0.469-0.539 1.096-0.969 2.16-0.119 0.746-0.265 1.427-0.43 2.215l-0.322 1.888c-0.119 1.253-0.102 2.518-0.161 3.773-0.119 2.515-0.244 4.955-0.754 6.957l-0.862-0.862c-1.885 14.649 0.355 15.787-1.942 30.628-0.027 0.18-0.155 0.48-0.215 0.754 0.18-0.296 0.4-0.51 0.59-0.7 0.146-0.146 0.319-0.255 0.484-0.535 0.027 0.367 0.025 0.487 0.054 0.645 0 8.088-3.152 6.328-3.505 15.043l-3.073 1.996c-0.903 5.772-2.46 20.585-5.017 30.789 0.119-6.127 1.952-18.389 2.858-26.043-0.967 3.742-1.924 9.542-2.858 14.935 0.367 7.504-1.703 16.602-4.965 27.716-1.294-1.061-2.862 1.624-4.477 5.984-0.825 2.162-1.633 4.804-2.535 7.55-0.983 3.105-1.984 6.363-2.965 9.542 0.146 1.136 0.357 2.299 0.535 3.395 0.060 0.787 0.15 1.515 0.269 2.266 0.146 1.413 0.385 2.871 0.484 4.207 0.146 2.593 0.082 4.738-0.269 6.308 1.335 4.867 2.4 9.84 3.34 14.828 0.432 2.515 0.876 5.045 1.347 7.605 0.396 2.71 0.81 5.357 1.238 8.143 1.69 5.259 3.41 10.642 5.178 16.178 1.768 5.375 3.651 10.916 5.769 16.608 0.629-9.225 2.453 6.505 5.554 3.827 0.907 2.354 1.507 3.975 1.942 5.070 0.119 0.825 0.248 1.952 0.161 2.105v0.054l0.376 17.038c-0.469 4.123-1.683-5.142-2.428-4.477 1.649 12.060-0.755 5.3-0.484 13.428 1.102-1.842 2.554 3.888 3.18 10.839l0.215-9.924c2.237 7.931 2.071 11.218 1.996 15.424 0.296 4.671 0.146 8.021 3.45 16.662l-2.481-4.965c1.136 3.298 2.612 8.877 4.262 14.881 0.903 3.022 1.781 6.144 2.643 9.166 0.513 1.457 1.025 2.954 1.457 4.37 0.588 1.571 1.145 3.061 1.619 4.477 0.675 1.457 0.834 1.666 1.184 2.374 0.396 0.588 0.712 1.11 1.023 1.619 0.666 1.061 1.424 1.991 2.050 2.696 0.146 1.61-0.054 3.872-1.781 0.376 2.162 5.693 4.732 11.7 7.442 17.632 2.829 6.127 5.702 12.283 8.412 18.174 1.53 2.118 3.021 4.128 4.477 6.090 1.253 1.8 2.49 3.553 3.666 5.285 2.355 3.45 4.375 6.725 5.984 9.87l-1.619-0.862c2.395 3.141 5.277 4.749 7.281 9.381-0.513 0-1.737-0.831-0.754 0.7 0.469 0.547 1.494 1.7 2.75 3.073 0.588 0.706 1.182 1.42 1.888 2.215 0.705 0.903 1.207 1.402 2.428 3.126 0.865 0.787 1.764 1.677 2.589 2.428 0.667 0.667 1.226 1.256 1.781 1.888l-3.935-2.374c14.057 15.197 24.464 20.157 37.425 31.544-1.926 1.965 9.2 13.604 14.774 19.412l-0.484 0.054c4.242 4.042 8.26 7.637 12.185 11.054 3.767 3.57 7.444 6.915 11.054 10.139 3.694 3.26 7.232 6.45 11.001 9.707 1.804 1.69 3.669 3.34 5.554 5.070 0.983 0.865 1.932 1.737 2.911 2.643 1.098 1.017 2.244 2.064 3.34 3.126 0.432 0.205 0.891 0.551 1.402 0.862 3.26 3.377 8.533 7.575 14.774 12.131 3.179 2.238 6.517 4.632 9.977 7.066 3.81 2.669 7.79 5.375 11.755 8.089 4.556 1.26 9.137 2.561 13.536 3.773 3.925 1.18 7.72 2.382 11.216 3.558-3.145-1.335 1.060-1.945 4.91-1.238 4.91 1.842 14.34 1.752 12.889 3.988l-1.727-0.535c0.469 0.513 1.171 1.038 1.996 1.512 0.367 0.205 0.769 0.467 1.238 0.7 0.588 0.18 0.292 0.127 0.484 0.322-0.205 0.027 1.399 1.060 2.535 1.727 1.26 0.746 2.501 1.515 3.827 2.266 2.673 1.457 5.468 2.997 7.982 4.37l2.75-2.215c2.9 2.552 6.365 4.977 10.139 7.335 1.848 1.18 3.752 2.405 5.715 3.505 2.196 1.221 4.394 2.345 6.631 3.558l6.792 2.266c2.042 0.629 4.092 1.202 6.090 1.834 4.042 1.253 8.075 2.46 11.645 3.558 7.228 2.322 13.119 4.69 16.34 7.281 0.825 0.146 1.023 0.166 2.75 0.59 2.474 0.333 5.202 0.655 7.874 0.969 2.555 0.263 5.058 0.62 7.335 0.7l-0.645 1.673c5.614 1.26 10.092 2.27 14.72 3.288 2.322 0.513 4.675 1.002 7.227 1.512 2.87 0.551 5.944 1.182 9.435 1.888 2.004-0.18 5.771-0.62 9.977-0.969l-3.612 1.566c10.135-0.666 12.424-6.047 21.732-6.792l2.965 2.428 7.715-0.484 7.982-0.322 9.87-1.402 9.327-1.457c6.205-1.061 12.328-2.445 18.335-4.37-0.205 0.428-0.666 1.297-3.45 1.888 2.435-0.397 6.253-0.94 10.3-1.566 2.275-0.119 4.592-0.214 6.792-0.322 2.316-0.146 4.554-0.37 6.362-0.645 3.653-0.513 5.833-1.302 4.692-2.481 0.432 2.316 18.291-0.992 27.716-2.911l-1.292 1.942c7.812-3.217 7.98-3.877 19.090-5.877 2.673-0.119 2.508 1.023-1.023 1.023 8.917-0.18 6.632-2.429 17.47-2.858l-3.827 1.619c4.439-0.514 6.505-0.876 8.035-1.347s2.463-0.989 5.608-2.050c0.027-0.027 0.186-0.182 0.322-0.269 0.746-0.547 1.579-1.225 2.481-1.888 0.705-0.469 1.528-0.907 2.32-1.457 1.649-1.024 3.395-2.102 5.124-2.965 3.377-1.727 6.461-2.9 7.442-2.589 0.51-1.491 4-5.21 8.788-7.767 0.944 0.119-0.533 1.435-1.238 2.105 3.145-1.69 5.769-3.392 8.089-4.965 1.18-0.865 2.244-1.588 3.34-2.374l1.457-1.131 0.916-0.7c0.469-0.263 1.885-0.797 3.18-1.184 1.26-0.432 2.46-0.904 3.72-1.292 2.474-0.705 5.005-1.276 7.874-1.512 0.367 0.469 1 0.577 1.942 0.535-6.908 1.727-12.94 3.343-16.393 4.207-0.705 0.432-1.25 0.763-1.566 0.916-0.513 0.333-0.691 0.363-0.535 0.269 0.333 0.632 2.46-0.137 2.696 0.215 0.432 0.146 0.629 0.318 0.862 0.59 0.119 0.263-0.027 0.769 0 1.238 0 0.087 0.026 0.214 0.054 0.322 0-0.060 0.025-0.214 0.054-0.322 0.51-0.18 0.984-0.412 1.457-0.645 1.102-0.432 2.208-0.945 3.34-1.457 2.281-0.944 4.7-1.943 7.173-2.965 4.911-2.005 10.041-3.796 14.559-4.585 0.469 0.027 0.907 0.040 1.292 0.161l-0.916 0.376c2.162-0.396 4.149-1.017 5.877-1.727 1.491-0.263 2.722-0.521 3.935-0.754 1.372-0.263 1.861-0.387 4.692-1.077 0.513 0.146 1.68 0.037 3.45-0.322 1.017-1.017 2.308-2.385 3.72-3.988 0.79-0.944 1.616-1.905 2.481-2.965 1.69-2.042 3.532-4.165 4.746-5.662-1.61-0.785 2.68-5.581-2.266-1.888 0.588-0.548-0.455 0.885-2.535 3.395-0.396 0.626-0.898 1.294-1.131 1.727 0-0.119 0.025-0.26 0.054-0.43l-6.362 7.767-5.393 1.457c1.102-0.632 3.315-1.47 4.965-2.105 0.588-0.825 1.202-1.677 1.834-2.535 0.514-0.67 1.082-1.451 1.673-2.16 0.979-1.26 2.16-2.435 3.612-3.612 0.746-2.667 1.665-5.531 2.215-7.066 6.205-3.535 15.571-12.61 17.847-12.996 1.571-2.084 3.179-4.302 4.91-6.577 2.354-2.004 4.778-4.092 7.173-6.090 2.555-2.237 4.993-4.372 7.388-6.416 4.675-4.28 8.656-8.338 10.893-11.755 3.062-2.943 4.36-2.27 5.93-2.858-1.768 1.8-4.051 3.566-4.8 4.746 5.929-6.163 20.148-15.015 20.382-18.12 9.342-5.343-3.692 5.197 8.089-3.558l-1.184 1.673c3.141-1.649 5.971-3.356 8.68-5.124 1.338-0.944 2.642-1.834 3.935-2.696 1.61-1.18 3.216-2.327 4.746-3.505l1.942-3.612 1.238-2.481 2.215-4.965c1.457-3.298 2.967-6.585 4.423-9.924 2.943-6.56 6.414-13.811 10.465-20.328 2.829-2.632 6.946-6.198 11.108-9.22-1.768 1.372-2.595 2.079-3.18 2.16 4.28-3.767 8.454-7.732 12.62-11.7l6.145-6.145 6.524-6.416c8.562-13.703 15.745-25.819 24.536-39.364l2.589-7.982 2.589-7.442c1.768-4.987 3.647-9.823 5.608-14.613 2.87-7.5 2.813-9.868 3.126-13.912 0-1.061 0.107-2.28 0.107-3.773l2.266-1.781 0.215-10.893c1.842-15.154 10.124-24.643 11.809-44.002l-1.781 2.16c1.842-6.675 4.418-21.499 5.554-20.005-0.027-0.787-0.769-2.447 0.484-4.965h1.077l0.322-2.481 0.59-3.34-1.292-3.612v0.161l-1.023-2.804-2.215-5.662c-2.751-12.842 4.36 1.030-0.43-17.578-2.281-6.792-8.112-18.875-8.035-16.125 0.705 2.785 1.339 7.252 0.43 7.767l-2.16-6.145c-0.18-0.027-0.451-0.048-0.645-0.107l-0.322-1.023 9.166-45.026-8.089-30.198 0.7 0.59-1.077-2.050-2.589-9.597c0.389 0.18 0.987 0.975 1.619 2.858-0.205-2.829-0.627-4.23-1.131-5.608-1.139-1.96-2.033-2.596-2.858-6.524-0.119-0.746 0.169-0.541 0.538 0l-3.666-6.090c1.061 1.017 1.186-1.855 2.643 2.266-3.929-12.171-10.386-17.777-10.624-22.917l0.645 0.862c-6.127-11.662-4.372-6.145-6.416-7.605l-0.107-0.322-1.077-7.66 2.428-6.524-2.105-1.512c-0.18-1.768-0.463-5.352 0.376-4.8-2.157-6.517-0.7 1.247-2.428-2.481 0.428-6.835-1.879-16.578-1.996-22.7-0.979-1.727-1.577-3.153-1.184-3.935-3.141-1.768 4.275 7.672-2.32 0.484 1.017-4.123-6.848-8.35-10.465-15.693 2.829 0.979 6.589 7.626 3.019 0.322-5.144-2.196-8.72-12.893-13.16-17.957-2.084 1.098-9.37-11.345-16.555-20.059 1.061 0.119-11.488-17.965-16.555-27.233l0.43 0.054c-3.022-0.393-8.772-9.57-13.643-15.855 1.294-0.51 2.596 0.354 5.5 3.558l-4.152-6.2c-1.61-1.017-3.184-2.767-6.090-6.577l2.481 0.645-2.215-2.965-3.019-2.535-2.643-2.16c-1.768-1.413-3.669-2.93-5.554-4.423-3.767-3.101-7.634-6.436-11.484-10.678-1.098 0.513 1.313 4.906-0.322 5.178l-5.017-4.692c0.547-0.205 1.402-0.070 2.858 0.969-0.944-0.705-3.56-2.198-5.017-4.042l4.965 2.589c-3.847-4.395-3.078-1.163-6.416-4.423 0.944-0.825-1.842-2.955-0.7-3.234 0.944 0.705 2.612 3.074 4.262 3.935-1.842-1.804-4.243-4.275-5.339-5.769-0.787-1.571-1.949-3.876-2.105-4.855-0.33 0.825-1.344 1.099-3.773-1.888-6.010-7.85-0.884-3.642-3.827-8.627-2.118-1.372-5.226-6.928-6.792-5.984-1.731-2.316-1.399-3.208-1.673-4.423-1.020-0.983-2.557-2.863-4.207-4.91-1.96-2.396-3.987-5.012-5.715-7.173-6.010-1.491-7.545-1.544-5.5 0l1.457 0.535c-0.333-0.027-0.675-0.155-1.023-0.215-6.951-1.214-13.85-3.263-20.762-5.5l-10.355-3.45c-3.298-1.102-6.435-2.162-9.652-3.18l-2.75-2.374-3.234-2.589 0.376-0.43c-8.009-5.925-17.052-14.090-23.293-17.739-2.237-1.885-4.539-5.347-3.126-5.070-0.903-0.675-1.72-1.335-2.266-1.727-1.413-0.588-2.579-1.025-3.72-1.457-1.061-0.428-2.067-0.876-3.126-1.347-2.16-1.061-4.637-2.447-8.68-4.965 7.342 2.436-1.955-1.989 7.388 2.804-8.641-4.868-10.229-6.753-20.435-9.977 3.886 0.146-5.629-5.040-10.3-6.847l5.823 4.152c-1.372-0.588-2.675-1.186-3.935-1.781-1.453-0.705-2.886-1.451-4.262-2.16-2.354-0.367-4.555-0.632-6.792-1.023l2.75-1.727c-9.775-2.552-18.891-2.634-27.448-2.911-4.242-0.119-8.343-0.298-12.347-0.808-3.929-0.554-7.641-1.835-11.216-3.558-5.496 0.389 10.591 3.082 5.608 3.827-9.035-2.045-17.948-6.827-20.817-7.335-5.026-1.494-7.992-1.646-10.624-1.566-1.338 0.060-2.502 0.155-3.881 0.215-0.666 0.027-1.465 0.027-2.215 0-0.865-0.027-1.437-0.033-2.965-0.269-0.944 0-1.94 0.054-3.073 0.054-0.983 0-2.082-0.074-3.34-0.161 1.731 0.785 3.339 2.702-6.631 3.288-9.267-0.432-11.391-3.264-5.5-3.773 2.237-0.027 3.317 0.202 3.234 0.484 3.026-0.205 6.923-0.48 3.234-1.347l-1.238 0.754c-4.592-0.865-17.352-0.975-14.288-2.16-7.067 0.632-3.115 1.145 2.105 1.619-7.693-0.859-13.566-0.73-19.574-0.808-2.829-0.18-6.717-0.565-10.839-1.184 1.919 0.588 3.653 1.597 1.727 1.402-17.863-2.555-7.999 0.657-20.167-0.107-6.794-1.727 2.693-2.436-9.597-2.589-7.421-1.457-1.421-2.072 1.566-2.428-1.338 0.027-2.642 0.027-3.935 0l-2.75-0.161c-1.083-0.117-2.138-0.191-3.18-0.322h-0.054zM413.17 273.691c1.377-0.281 2.126-0.043 3.505 0.161 3.492 0.663 6.97 1.285 10.624 1.402 6.992 0.248 14.095-0.457 21.085-0.161 3.61 0.197 5.537 1.885 8.519 3.612 3.062 1.729 6.438 3.063 9.381 4.91 3.694 2.281 6.881 5.54 10.139 8.412 7.228 6.32 14.84 14.932 18.767 23.728 2.438 5.417 4.706 11.073 7.066 16.608 2.765 6.475 3.019 11.818 3.019 18.929-0.038 5.85 0.361 9.93-2.428 15.316-2.625 5.1-4.682 10.598-7.55 15.585-5.851 10.367-16.398 16.998-26.371 22.809-9.894 5.772-18 14.296-28.363 19.52-5.417 2.698-11.15 2.562-17.038 2.535-7.228 0-14.175-0.396-21.247-1.888-11.467-2.392-22.435-5.405-32.41-11.645-8.009-4.983-15.456-9.959-17.417-19.735-2.327-11.819-2.589-23.68-2.589-35.698 0-8.6 0.205-16.287 3.505-24.375 3.81-9.31 7.344-19.011 14.019-26.747 5.929-6.909 12.115-13.087 19.144-18.821 4.983-4.003 10.626-8.19 16.555-10.624 3.141-1.296 6.787-3.047 10.085-3.827zM583.516 480.597c0.776 0.33 1.579 1.275 3.505 2.16 3.81 1.684 7.322 2.263 11.054 4.855 3.846 2.625 7.169 6.285 11.484 8.25 6.048 2.746 9.255 8.175 16.286 10.139 5.457 1.58 11.242 2.71 16.931 1.727 2.592-0.432 5.777-0.687 8.25-1.238 1.961-0.469 1.956-1.82 4.316-1.673 3.298 0.157 7.012 3.255 10.192 4.152 5.259 1.529 10.875 2.095 16.178 3.666 2.553 0.747 5.022 2.62 7.496 3.288 2.869 0.825 2.166 0.43 5.070-1.292 4.28-2.473 9.373-4.058 13.966-5.984 4.556-1.885 8.799-5.388 13.59-4.965 2.869 0.236 5.925 1.854 8.519 3.073 5.185 2.435 7.286 7.3 13.215 8.519 7.461 1.493 15.42 0.403 22.485 3.935 3.377 1.69 2.93 4.298 5.715 6.416 0.355 0.26 0.69 0.339 1.023 0.484 1.57-0.027 3.172-0.026 4.746-0.054 0.428-0.146 0.907-0.339 1.292-0.484 2.63-1.178 4.307-2.54 7.173-2.965 5.855-0.983 11.852-1.567 17.739-2.589 4.085-0.67 8.736-2.745 12.943-2.481 0.785 0.040 1.687 0.758 2.428 0.7 2.395-0.119 3.143-2.117 5.339-2.858 2.354-0.746 3.822 0.85 6.090 1.402 3.731 0.787 7.716-0.833 11.484 0.107 3.925 1.017 7.972 3.272 11.7 4.965 2.907 1.372 6.145 2.298 8.895 3.988 1.017 0.632 1.863 1.364 2.965 1.834 3.062 1.294 5.967 1.756 8.089 4.585 1.294 1.768 2.136 2.942 4.097 3.612 0.352-0.119 0.659-0.125 1.023 0.054 0.473 0.396 0.987 0.799 1.457 1.184 1.806 0.705 2.337-0.106 3.827 1.347 0.903 0.899 1.743 1.222 2.804 1.619 1.45 0.513 1.771 0.583 0.862 2.16-1.18 2.075-3.56 3.395-5.447 4.855-2.238 1.8-4.482 4.702-7.389 5.447-2.593 0.705-4.99-0.704-7.388-0.969-3.417-0.355-7.454 1.318-11.108 1.347-4.867 0.155-7.848 1.618-12.402 2.911-2.71 0.75-5.132 0.668-8.035 0.754-9.701 0.236-18.55-0.185-27.931-1.834-7.892-1.353-14.532-0.758-22.539-1.184-7.144-0.357-14.18-1.438-21.41-1.347-9.974 0.075-19.937 0.95-29.875 0.916-6.951-0.027-13.664-0.797-20.652-0.59-19.202 0.632-37.977 1.452-56.945-0.59-23.561-2.502-47.803-0.736-71.558-0.108-14.017 0.355-28.028 0.451-42.005 1.512-17.315 1.335-34.843 4.966-52.199 5.232-14.45 0.18-28.649-0.534-43.14-0.107-10.6 0.333-20.885-0.388-31.329-0.269-9.267 0.116-18.561 0.516-27.824 0.808-8.558 0.243-16.821-0.43-25.343-0.43-9.225-0.060-17.921 0.868-27.071-0.269-7.421-0.944-14.972-1.060-22.431-1.727-8.557-0.785-16.855-1.19-25.45-1.619-7.268-0.396-14.328-1.598-21.517-1.996-8.877-0.425-17.89-0.28-26.801-0.862-6.088-0.467-11.645-1.184-17.847-1.184-9.658 0.040-19.002-1.551-28.578-1.402-7.149 0.155-14.263 0.495-21.41 0.7-9.775 0.24-19.556 0.549-29.336 0.754-2.392 0.060-5.265 0.34-7.66 0.161-3.095-0.277-2.82-0.062-2.965-2.535-0.277-4.32-1.285-8.081-2.428-12.239-0.218-0.944-0.968-2.538-0.535-3.558 1.925 0.060 3.928 0.015 5.769-0.161h-5.769c1.294-2.24 6.78-1.011 9.059-1.184 3.455-0.357 6.542-2.080 9.924-2.75 5.925-1.099 11.116 0.539 16.34-3.505 5.104-3.887 8.485-8.701 14.019-11.484 4.004-2.045 8.662-1.82 12.943-3.073 1.842-0.517 2.942-2.082 5.339-1.457 3.022 0.824 4.635 4.998 8.519 5.823 3.852 0.825 3.147 0.422 5.93 1.996 3.767 2.118 7.877 3.023 12.078 3.773 2.16 0.296 4.286 0.328 6.524 0.269 3.614-0.078 4.672-1.787 8.089-2.696 5.338-1.491 9.585 3.875 14.881 4.207 6.127 0.376 12.24 0.085 18.174 0.754 0.311 0.060 0.478 0.026 0.808 0.054 0.785-0.087 1.588-0.155 2.374-0.215 0.746-0.396 1.38-1.119 2.481-2.374 1.768-1.885 2.985-2.683 5.339-4.097 3.81-2.238 6.453-5.219 9.87-8.089 2.903-2.435 7.869-7.991 11.755-7.874 0.040 0 4.137 1.357 3.505 1.238 2.474 0.323 5.087-0.129 7.605 0.269 7.145 1.182 13.38 1.424 20.762 0.484 2.865-0.356 5.692-1.095 8.519-1.566 3.262-0.52 6.592-0.227 9.816-0.808 4.91-0.903 9.445-3.993 13.804-6.309 1.413-0.746 3.333-2.18 4.91-2.215 1.22 0 2.875 1.226 4.207 1.402 1.689 0.26 3.729-0.579 5.339-0.215 3.417 0.824 6.282 3.363 9.816 4.262 5.302 1.294 7.032 2.295 11.431 5.124 5.417 3.417 9.453 1.419 14.989 2.32 5.104 0.824 8.134 5.161 12.457 7.442 1.886 1.017 2.997 1.357 4.531 2.965 1.136 1.22 0.779 2.877 2.428 3.935 2.044 1.335 5.337 0.435 7.66 0.862 6.835 1.221 14.865 4.756 21.894 2.32 2.078-0.742 2.893-2.258 5.017-2.696 2.118-0.4 5.265-0.065 7.388 0.054 5.223 0.236 10.038 1.457 15.424 1.457 4.635 0 13.548 1.496 17.47-1.292 2.63-1.842 3.425-5.806 5.232-8.358 1.294-1.807 4.003-5.604 6.2-6.47 1.846-0.7 4.263 0.285 6.309-0.269 6.475-1.732 12.963-7.342 19.090-10.246 3.925-1.846 7.7-2.618 11.863-3.72 3.929-1.017 6.676-4.115 10.41-5.017 1.181-0.296 2.372 0.31 3.666-0.054 1.887-0.51 3.384-2.062 4.8-3.395 1.804-1.648 2.567-1.949 3.34-1.619zM477.123 589.633c1.14 0.146 1.844 1.111 3.18 1.184 0.087 0.205 0.045 0.513-13.59 2.75 17.746 1.413 35.041 2.037 52.79 1.996 8.913 0 17.832-0.194 26.747-0.108 8.872 0.119 17.25 1.538 26.043 2.481 7.854 0.825 16.286-0.543 23.943 1.619 5.5 1.491 10.416 4.404 16.071 5.5 4.395 0.333 8.815 0.507 13.215 0.43 4.158 0.296 8.207 1.189 12.131 2.643 7.421 1.649 14.515 1.256 22.055 0 5.574-1.294 11.185-2.154 16.877-2.589 3.26 0.119 6.484-0.018 9.707-0.484 7.382-0.825 14.34-3.271 21.84-3.505 5.735-0.205 11.374 0.854 17.145 0.969 10.995 0.18 21.991-2.834 32.948-1.184 7.935 1.221 15.274 1.701 23.402 1.347 7.184-0.333 13.981-0.476 21.085 0.7 3.81 0.94 7.667 1.514 11.59 1.673 4.123-0.469 8.199-1.204 12.239-2.266 5.264-0.785 8.416 0.015 13.482 0.484 5.692 0.513 11.225-1.686 16.877-1.888 1.885 4.206-11.907 6.983-14.34 7.496-10.838 2.354-20.917 7.033-31.597 10.139-11.856 3.418-24.381 3.257-36.668 3.019-9.189-0.18-18.275-0.416-27.072-3.288-22.653-7.498-47.278-4.533-70.207 0.161-23.289 4.868-47.272 5.885-70.911 3.881-10.014-0.865-20.077-3.355-30.090-3.666-9.5-0.333-18.948-1.125-28.255-2.965-4.044-0.785-8.034-1.979-12.078-2.804-5.891-1.26-11.931-1.305-17.902-1.781-11.975-0.94-23.665-3.040-35.483-5.124-14.329-2.474-30.18-1.72-44.594-0.107-7.733 0.865-15.154 0.916-22.971 0.916-4.671 0-8.885 0.052-13.482-0.916-2.79-0.629-5.489-1-8.358-1.077-1.335-0.027-7.583 1.005-8.84-0.916 0.632-0.899 1.47-2.294 2.374-2.965 1.732-1.372 4.822-1.195 6.902-1.512 3.575-0.554 7.021-1.464 10.517-2.374 7.228-1.885 14.877-3.217 22.377-3.019 5.772 0.146 11.15 1.669 17.038 0.916 5.142-0.67 10.059-2.76 15.207-2.911 2.628-0.087 5.281 0.375 7.874 0.161 1.571-0.027 3.037-0.596 4.531-1.023 0.629-0.146 4.961-2.156 6.255-1.996zM177.417 609.209c8.679-0.039 17.39 0.81 25.828 2.965 12.723 3.261 25.761 2.084 38.717 1.023 18.067-1.479 36.147-0.931 54.248-1.942 1.060 0.338 2.545 0.797 4.746 1.727 1.18 0.513 2.423 1.567 3.558 1.996 1.613 0.645 3.871 0.161 5.554 0.161 5.578 0 11.192-0.522 16.608 0.969 4.044 1.14 13.907 0.552 11.59 7.227-0.944 2.629-4.006 3.195-6.362 3.935-1.532 0.541-2.888 0.361-4.423 0.538-3.298 0.356-6.64 2.24-9.707 3.34-4.206 1.518-6.803 1.528-11.162 1.619-3.966 0.078-7.746 0.829-11.59 1.457-5.185 0.865-9.811 1.292-14.127-2.050-3.26-2.552-6.070-4.047-10.192-4.477-5.891-0.644-12.348 0.475-18.282 0.269-8.755-0.355-17.357-2.073-26.152-2.105-11.39-0.119-22.652-1.214-34.079-1.727-10.41-0.425-20.857 0.513-31.221 0-1.57-0.119-8.675-0.263-8.089-4.152 0.236-1.683 2.050-2.256 3.34-2.965 3.653-2.040 7.19-4.338 11.001-6.145 3.847-1.836 6.148-1.641 10.192-1.673zM297.826 611.203c0.126-0.009 0.25 0.009 0.376 0v0.054c-0.4-0.061-0.058-0.006-0.376-0.054zM423.524 646.954c5.855-0.040 11.622-0.125 17.038 2.589 0.274 0.134 0.549 0.286 0.754 0.43-2.354 0.513-4.723 0.928-7.12 1.292-1.337 0.192-7.34 0.675-7.605 2.911 4.163 1.53 9.982-1.766 13.482 1.457 0.095 0.51 0.205 0.945 0.322 1.457 0.785 0.467 1.603 0.796 2.428 0.969 2.829 0.947 6.399 0.357 8.95 1.457 1.789 0.785 1.292 2.753 2.16 3.773 1.413 1.618 4.030 0.862 6.145 0.862h1.727c0.513 0.389 1.056 0.736 1.566 1.131 1.494-0.087 2.942-0.107 4.316-0.107 2.28 0 6.596-0.899 8.68 0.161 0.859 0.396 0.85 1.567 2.105 1.834 1.179 0.284 2.732-0.906 3.126 0.862 0.274 1.26-1.764 2.825-2.589 3.45-0.825 0.588-2.468 0.844-3.881 1.238 5.5 3.45 10.82 7.287 15.097 12.078 1.496 0.588 3.024 1.25 4.477 1.834 4.36 1.799 8.48 1.502 12.996 2.215 1.294 2.078-6.242 3.532-11.7 4.316 1.219 2.316 2.365 4.776 3.505 7.173-1.336 0.51-2.722 1.038-4.097 1.184-3.689 0.433-7.66-0.357-9.381 4.042-1.102 2.829-0.114 3.108 2.32 4.207 3.93 1.811 7.947 2.281 12.185 2.75 1.414 0.146 2.79 0.15 4.207 0.269 0.323 1.685 0.484 3.302 0.484 5.070 2.71 1.030 5.197 1.184 8.573 1.184 1.926 0 4.877 0.070 4.91 2.696-2.514 0.907-4.731 2.468-7.012 3.881-1.457 0.119-2.832 0.269-3.773 0.269-4.671-0.040-8.655 0.487-13.215 1.512-1.294 0.348-2.625 0.334-3.881 0.538-0.629 0.116-0.788 0.823-1.457 0.969-1.18 0.308-2.789-0.194-4.042-0.107-1.335 0.116-1.59 0.421-2.804 0.754-1.613 0.455-3.123-0.021-4.692 0.376-1.613 0.428-3.069 1.712-4.638 2.266-3.219 1.056-6.395 0.366-9.652 1.512-3.767 1.312-6.109 0.743-9.762 0.161-2.28-0.396-2.574 0.163-4.423 1.619-0.585 0.425-1.098 0.957-1.727 1.131 7.382-0.296 14.684-1.59 21.947-0.215 7.11 1.335 14.059 1.238 21.247 1.238h5.93c1.137 0.060 2.261 0.082 3.395 0.054 1.101-0.075 2.312-0.328 3.45-0.59-0.277 0.98-0.441 1.999-0.808 3.019 3.334 0.588 6.765 0.334 9.87 1.942 1.728 0.865 4.39 1.92 5.769 3.18-1.377 0.94-3.548 1.202-5.124 1.673-3.925 1.097-7.853 2.227-11.7 3.558 0.193 3.453 15.525-1.776 17.957-1.023-1.53 2.553-2.93 3.861-5.715 4.8-5.969 2.118-12.445 4.027-18.335 6.577-0.825 0.389-1.642 0.904-2.428 1.457-0.943 1.61-2.025 3.296-3.126 4.91 1.529-0.155 3.025-0.349 4.042-0.376 5.343-0.37 11.501-1.546 16.877-0.645 2.162 0.355 4.605 1.021 6.255 2.32 1.102 0.825 1.805 1.82 3.019 2.374 1.258 0.588 3.459 1.501 4.638 1.834l-0.054 0.054c4.122 1.139 7.98-1.91 12.024-1.619-1.649 1.182-5.083 1.357-6.847 1.942-3.767 1.254-7.63 2.727-11.323 4.262-3.417 1.409-4.041 2.374-7.496 2.374-4.004 0.040-7.663 1.38-11.431 2.32-1.22 0.187-2.338 0.334-3.558 0.535-0.625 0.027-1.331 0.188-1.996 0.215-1.61 0-3.683 0.364-5.178 0-0.906-0.236-1.711-0.962-2.535-1.077-2.161-0.389-4.187 0.562-6.145 1.781h-0.862c-4.828-0.040-9.622-0.468-14.45-0.645-1.294-0.031-2.6 0.036-3.773-0.43-0.060-0.27-0.107-0.569-0.107-0.862-2.631-0.551-4.364 0.039-6.524 0.59-3.377 0.824-8.488 1.978-11.431 4.097-2.749 2.004 0.272 3.568 2.16 4.152 2.16 0.626 4.159 0.92 6.2 2.374 1.378 1.021 2.518 2.284 3.773 3.505-2.162 1.335-3.981 2.47-6.847 2.589-7.025 0.308-14.095-0.313-21.085-0.107-0.389 0-0.74 0.026-1.131 0.054-1.649 0.865-4.095 0.931-6.255 0.754-1.099 0.19-2.136 0.415-3.234 0.59-1.336 0.263-2.126 0.471-3.505 0.107-2.435-0.554-5.13-1.689-7.605-2.75-1.846-0.221-3.657-0.376-5.5-0.376-4.004-0.038-7.394-0.29-11.162-1.781-4.91-1.921-10.198-1.931-13.966-6.090-0.24-0.284-0.354-0.597-0.645-0.862 1.846 0.75 3.543-0.015 5.662-0.161 4.32-0.284 8.315 0.539 12.674-0.754 4.395-1.301 8.023-1.677 12.62-1.238 0.825 0.060 2.248 0.421 3.073 0.215 2.082-0.668 3.52-4.125 5.447-5.5 1.806-1.295 4.146-2.558 6.145-3.34 1.254-0.511 7.795-1.288 4.423-3.288-1.496-0.95-6.082-0.236-7.928-0.322-6.754-0.277-12.547-3.687-19.144-4.316-8.207-0.746-15.461 1.368-23.512 2.589-3.693 0.59-7.435 0.554-11.162 0.7-0.632-0.705-1.287-1.404-1.834-2.16-0.825-1.098-1.574-1.706-2.911-2.105-1.806-0.544-4.016-0.462-5.823-0.43-0.944 0.027-12.012 0.203-11.863-0.161 0.512-1.061 4.745-1.772 6.038-2.105-1.022-1.8-5.894-2.897-7.82-3.45-1.768-0.551-4.573-0.008-5.984-1.619-2.355-2.667 2.405-5.57 4.097-7.496 4.163-4.516 10.596-3.234 16.017-3.234 1.728 0 3.353-0.054 4.965-0.054-0.277-0.746-0.529-1.394-0.862-2.105 1.455 0 2.859 0.027 4.316 0 5.259-0.078 10.358-0.979 15.424-1.566 4.711-0.512 37.219-1.557 25.828-4.423-3.217-0.821-7.495-0.81-10.517-1.566-5.223-1.254-9.522-3.301-14.666-4.638-2.865-0.755-2.986-0.645-7.227-0.645-6.167 0.040-9.961-0.987-15.693-1.457-0.746-0.060-1.677-0.021-2.696-0.107-0.588-2.553-1.011-5.067-1.184-7.66-2.118-0.467-4.2-1.017-6.2-1.347-2.392-0.355-3.543-2.458-5.662-3.126-1.061-0.296-2.063 0.118-2.965-0.59-2.395-1.885-0.492-4.161 1.512-4.746 2.237-0.705 4.415-0.933 6.416-2.266 1.567-1.060 3.030-2.362 4.638-3.505 0.746-0.51 1.363-1.126 1.996-1.834v-0.484c0.277-0.119 0.521-0.236 0.754-0.322 2.354-1.18 4.372-2.007 6.847-2.75 3.57-1.098 6.609-2.227 10.3-2.696 2.784-0.356 3.645-1.531 4.746-4.042-1.221-0.119-1.689-1.017-2.75-1.347-1.255-0.393-1.842-0.357-3.019-1.023-2.162-1.253-4.404-1.572-6.792-2.16-2.083-0.513-5.137-2.005-6.902-3.18-1.684-1.136-2.48-1.677-3.773-1.942-0.632-0.439-1.246-0.821-1.996-1.184-1.136-0.554-2.343-0.828-3.126-1.888-5.030-6.716 4.96-10.413 8.573-12.457 1.961-1.137 3.442-2.845 5.447-3.827 3.217-3.377 7.276-6.078 11.59-8.788 1.689-1.024 3.463-1.885 5.232-2.75 0.903-0.18 1.807-0.42 2.75-0.535 1.613-0.247 3.407-0.307 5.017-0.484 2.593-0.357 5.026-1.199 7.66-1.347 3.653-0.236 7.672 0.192 9.435-2.32 1.101-1.612 0.061-1.799-2.374-2.428-0.588-0.146-1.173-0.182-1.727-0.269 2.118-0.554 4.31-1.072 6.47-1.512 7.106-1.494 13.985-1.855 21.247-1.888zM734.235 654.179c11.899-0.082 23.643 1.28 34.836 5.554 4.206 1.612 7.77 3.304 12.402 3.45 4.983 0.119 10.056-0.054 15.043-0.054 12.25-0.027 24.471 0 36.721 0-0.192-2.942 3.355-3.371 6.847-1.996 2.83 1.095 5.503 1.75 8.412 2.535 1.921 0.469 3.669 1.259 5.554 1.888 3.334 1.061 9.153 0.767 11.7 3.395-0.272 4.087-13.050 6.533-15.639 6.738-3.339 0.42-6.636 0.021-9.977 0.108-3.492 0.119-6.547 1.474-9.924 2.105-8.207 1.659-16.681 0.749-24.966 1.888-10.443 1.459-20.523 0.005-31.005 0.754-12.723 0.944-25.334-1.775-38.020-2.481-7.067-0.48-14.285-0.507-21.355-0.107-12.956 0.705-25.503 3.806-38.502 3.773-9.11-0.040-18.588-0.348-27.501-2.428-4.122-0.907-5.915-2.622-8.197-6.038-2.785-4.087-4.097-5.366-9.435-5.339-1.842 0-3.766 0.015-5.608 0.161 1.255 0.040 2.395-0.361 3.612-0.535 2.631-0.452 5.244-0.489 7.874-0.754 7.461-0.663 14.701-0.549 22.162-0.754 7.025-0.235 15.534-0.542 21.894-3.881 4.242-2.196 8.552-3.129 13.267-4.152 13.228-2.907 26.25-3.74 39.794-3.827zM289.956 714.362c4.58-0.001 9.145 0.258 13.912 0.862 0.236 2.118 1.855 2.672 2.215 4.638 1.221 5.967-5.721 5.134-9.489 5.447-4.123 0.364-7.88 0.56-11.645 2.374-1.098 0.554-2.185 1.341-3.288 1.888-6.439 2.986-13.499 2.397-20.328 1.457-5.536-0.709-10.922-1.47-16.501-1.077-4.828 0.364-9.46 1.025-14.288 0.269-9.542-1.53-18.744-1.457-28.363-1.457-4.592 0-9.374 0.448-13.966 0.107-1.96-0.146-3.7-1.013-5.662-1.131-1.221-0.087-2.579 0.498-3.72 0 3.026-3.767 8.892-5.126 13.215-6.577 3.219-1.136 6.748-3.092 10.085-3.72 2.203-0.425 3.733 0.433 5.93 0.59 5.812 0.467 11.86 0 17.632 0l-15.639 1.942c11.51 0 23.387 0.852 34.89-0.376 10.41-1.095 20.577-3.535 31.060-4.477 4.792-0.455 9.385-0.754 13.966-0.754zM737.686 730.701c3.967 0.079 7.905 0.381 11.755 1.402 3.495 0.944 18.553 0.413 14.935 7.442-1.567 3.027-6.909 4.069-9.816 4.097-4.44 0-8.18 0.057-12.62 1.077-3.847 0.907-7.179 1.834-11.108 1.834-1.571 0-3.010-0.146-4.585 0-6.127 0.428-11.915 2.54-18.12 2.804-2.785 0.146-5.681-0.203-8.465 0.161-4.439 0.51-8.726 1.825-13.050 2.804-8.912 2.079-17.76 3.138-26.91 3.72-4.828 0.296-9.729 0.507-14.559 0.107-4.477-0.389-8.827-1.65-13.267-2.32-15.237-2.393-30.682-2.392-45.998-4.316-4.828-0.675-9.929-1.163-14.288-3.558-2.118-1.18-3.889-2.916-6.362-3.34-1.613-0.27-6.659 0.882-7.442-0.808 2.394-1.415 5.454-1.116 7.928-2.374 3.767-1.922 6.945-4.477 10.947-6.2 7.223-3.179 16.49-1.457 24.27-1.457 21.009-0.040 41.922 0.969 62.931 0.969 14.804 0 29.562 0.087 44.325 0 0.574 0 1.030 0.138 1.566 0.161 0.111-0.573 1.464-1.247 2.911-1.566 4.242-0.993 8.726-0.59 13.050-0.59 4.003 0 8.004-0.133 11.97-0.054zM537.411 821.886c3.925 0.469 7.905 1.241 11.755 2.266 6.048 1.226 12.183 1.808 18.389 1.781 33.615 0.666 67.402-0.107 101.055-0.108-8.053-3.929-3.39-3.881 1.238-3.881 4.004-0.027 8.245-0.48 12.131 0.535 3.219 0.825 5.439 3.052 8.465 4.152 2.473 0.923 5.622 0.865 8.25 1.131 3.97 0.393 7.864 1.445 11.59 2.858 5.224 2.005 9.439 5.21 14.073 8.197-5.417 4.554-13.494 2.037-19.735 1.673-7.776-0.469-15.143 1.819-22.917 1.996-4.399 0.155-8.637 0.442-12.996 1.023-6.127 0.79-11.656 0.797-17.739 0.215-8.245-0.825-15.449 0.923-23.621 2.105-11.031 1.571-22.297 3.493-33.485 3.612-6.596 0.040-13.655-0.528-20.167-1.512-10.759-1.57-21.306-2.832-32.301-3.34-32.276-1.36-64.817-1.861-97.172-1.077 4.75-0.585 9.2-1.51 13.751-2.804 10.289-2.985 20.318-7.233 30.682-9.87 3.492-0.666 6.992-1.434 10.41-2.374 2.237-0.903 4.504-1.572 6.902-1.781 2.354-0.119 4.504 0.37 6.902 0.108 8.442-1.061 15.702-5.489 24.536-4.91zM358.49 873.759c7.421 0.388 14.743 1.971 21.732 5.017 12.25 5.345 25.014 6.133 38.287 5.769 10.562-0.277 20.597-2.116 31.005-3.45 15.47-2.007 31.4-1.485 46.914-1.457 12.403 0.060 24.797-0.146 37.207 0 11.41 0.158 22.565 1.868 33.971 2.050-2.606-1.184 0.736-1.517 3.827-0.322 2.004 0.789 3.509 2.432 5.554 3.18 1.373 0.551 2.994 0.441 3.505 2.050 0.865 2.63-3.248 5.142-5.017 6.038-3.217 1.57-6.869 2.557-10.246 3.773-5.5 2.038-10.642 1.528-16.34 2.16-6.439 0.675-12.503 0.965-18.982 0.215-5.925-0.632-11.882-0.29-17.847-1.184-6.835-1.061-13.085 2.114-19.681 3.72-9.5 2.361-18.41 2.825-28.145 2.911-8.403 0.119-15.457-1.335-23.347-4.042-2.118-0.797-3.976-0.818-6.255-0.7-5.653 0.345-11.225 0.862-16.877 0.862-11.346-0.040-22.797 0.329-34.025-1.238-8.558-1.18-17.224-2.989-25.667-4.638-4.085-0.785-8.088-1.797-12.131-2.696-3.57-0.824-6.052-1.041-7.82-4.423-1.86-3.417-1.739-7.664-1.888-11.431 7.342-1.729 14.849-2.545 22.27-2.16z"></path>
    </svg>