<svg xmlns="http://www.w3.org/2000/svg" viewBox="63.534 127.982 890.233 896.018">
    <path fill="#000000" d="M463.213 127.987c-1.503 0.828-2.913 1.606-4.339 2.362-0.961 0.396-1.906 0.827-2.745 1.261-1.723 0.678-3.329 1.443-4.887 2.087-3.118 1.243-5.929 2.324-8.127 3.403l4.943-3.403c-2.997 2.040-5.542 3.391-8.181 4.832l3.733-0.274c-3.237 1.439-5.812 2.795-6.093 2.199-2.675 2.64 3.65 0.967-2.032 5.6-2.236 0.799-5.256 2.688-8.017 4.284-1.397 0.76-2.775 1.387-3.897 1.867-0.599 0.183-1.044 0.398-1.484 0.438-0.268 0-0.463-0.099-0.659-0.328 0.183-0.028 1.084-0.486 1.648-0.768 0.64-0.339 1.17-0.682 1.648-0.878 0.84-0.478 1.331-0.804 1.648-1.042 0.522-0.522 0.176-0.679-0.274-0.715-0.883-0.211-2.148-0.41 3.293-3.571-2.040 1.359-4.575 2.753-7.855 4.228-0.561 0.028 0.256-0.69 1.042-1.206-0.883 0.336-2.217 0.901-2.417 0.933-0.121-0.028-0.13-0.028-0.219 0-0.121-0.028-0.164 0.025-0.164 0.055-0.268 0.061-1.107 0.183-1.428 0.328-0.919 0.268-1.508 0.631-2.307 0.987-1.558 0.718-3.756 1.527-9.994 1.648 1.247-0.79-0.743-1.265-2.91-1.539 1.387 0.557-1.331 1.809-5.381 2.526-9.395-0.636-10.179 0.878-15.098 0.878l5.6 0.274c-0.875 0.564-2.492 0.897-4.613 1.097-2.201 0.149-5.024 0.278-8.346 0.493-0.24 0.061-0.596 0.149-0.878 0.328-0.211-0.149 0.127-0.448 0.768-0.768-2.44 0.919-3.627 1.276-5.546 1.758-1.84 0.301-3.767 0.643-5.765 1.042-3.918 0.718-8.080 1.65-12.079 3.571-4.719 0.718-1.042-1.895-5.162-1.097-3.996 1.919-6.799 2.667-9.278 3.183-1.236 0.268-2.346 0.435-3.623 0.715-0.643 0.121-1.258 0.299-1.977 0.438-0.374 0.121-0.74 0.155-1.097 0.274-0.678 0.183-1.3 0.416-1.977 0.603-0.643 0.396-1.313 0.812-2.032 1.206-0.403 0.211-0.88 0.547-1.316 0.823-0.924 0.599-1.871 1.34-2.91 2.143 3.719-0.522 4.019-1.121-2.417 4.558l9.662-6.643 8.784-3.403-3.897 2.143c-1.483 0.718-2.181 1.195-4.503 2.199-1.758 1.318-2.367 2.043-3.403 2.964 1.201-0.76 2.481-1.617 3.678-2.417 1.283-0.478 2.535-0.989 3.733-1.428 1.122-0.44 2.115-0.904 3.074-1.261 2-0.84 3.8-1.451 5.162-1.813-5.36 3.081-4.95 2.535-1.867 2.855-1.679 0.028-3.26 0.332-4.777 0.715-0.76 0.183-1.587 0.486-2.307 0.768l-2.691 1.042c-2.115 1.558-4.237 3.098-6.478 4.777-2.115 1.521-4.402 2.928-7.084 4.007l-1.703-3.293c-9.436 4.319-16.47 10.584-25.147 16.582-2.801 1.521-7.087 3.593-11.365 5.272l5.655-1.867c-1.639 2.358-10.259 4.907-15.372 7.908-0.028-1.359-3.565-0.185-6.203 0.055 0.599 0.756-12.097 5.47-12.74 8.51l-2.199 0.659-1.977 1.428-1.484 0.933-2.855 1.813c-11.156 9.716-9.705 14.244-20.259 23.717 2.157-3.916-3.135-0.071 3.019-7.358-3.395 3.278-6.597 6.018-6.038 6.697-0.557 0.268-1.344 0.973-2.143 1.813-0.883 0.997-1.958 2.249-3.074 3.571-1.001 1.84-2.131 3.871-3.129 5.71-0.961 1.596-1.885 3.003-2.8 3.842-0.678 1.961 0.075 3.22-2.855 7.577-0.557 0.374-0.603-0.328-0.603-0.328 0.557 0.336-3.825 7.402-0.109 4.284-2.519 2.236-4.99 5.206-7.468 8.565-1.243 1.596-2.425 3.38-3.623 5.217-1.122 1.679-2.227 3.387-3.348 5.108-1.919 1.718-3.9 3.5-5.819 5.217-2.040 1.723-4.064 3.483-5.984 5.162-3.921 3.237-7.704 5.908-10.982 7.468-4.198 3.916-8.761 8.213-12.959 12.133-2.040 5.796-3.935 11.104-5.491 15.704-0.149-0.718-0.558-0.262 0.164-1.867-5.559 11.753 0.621 8.679-5.655 22.073-4.52 6.356 1.603-7.687-0.715-3.571-1.318 0.149-2.261 1.519-3.183 3.678-0.436 1.080-0.889 2.376-1.372 3.733-0.339 1.243-1.004 3.239-1.042 3.678-0.121 0.336-0.833 1.429-1.594 2.472l-2.143 3.183c-1.483 1.996-3.114 3.819-4.832 5.217l1.261-2.087c-5.637 5.236-9.753 15.842-17.348 25.639 0 0-0.038-0.717-0.547-0.438-0.183 0.643-0.66 1.706-1.539 3.183-0.44 2.358-0.98 5.055-1.539 8.017-0.557 2.675-1.204 5.534-1.922 8.455-1.439 5.839-3.047 11.907-4.449 17.184-0.4-4.001 0.811-5.391-1.428-3.788-1.439 5.195 2.942-0.653 0.109 9.662-0.84 1.362-1.709 3.005-2.91 5.327-1.080 3.198-2.116 5.684-3.238 6.203l0.933-6.752 1.261-3.842c-0.374 0.478-0.831 0.868-1.152 1.428-0.301 0.478-0.549 1.116-0.987 2.199-0.121 0.76-0.27 1.453-0.438 2.255l-0.328 1.922c-0.121 1.276-0.104 2.564-0.164 3.842-0.121 2.563-0.248 5.045-0.768 7.084l-0.878-0.878c-1.919 14.915 0.361 16.074-1.977 31.185-0.028 0.183-0.158 0.491-0.219 0.768 0.183-0.301 0.407-0.519 0.603-0.715 0.149-0.149 0.325-0.26 0.493-0.547 0.028 0.374 0.025 0.496 0.055 0.659 0 8.235-3.209 6.443-3.571 15.317l-3.129 2.032c-0.919 5.877-2.507 20.959-5.108 31.349 0.121-6.238 1.988-18.723 2.91-26.517-0.985 3.81-1.959 9.716-2.91 15.207 0.374 7.64-1.734 16.904-5.055 28.22-1.318-1.080-2.914 1.654-4.558 6.093-0.84 2.201-1.663 4.891-2.581 7.687-1.001 3.161-2.020 6.479-3.019 9.716 0.149 1.157 0.364 2.341 0.547 3.459 0.061 0.801 0.155 1.543 0.274 2.307 0.149 1.439 0.392 2.923 0.493 4.284 0.149 2.64 0.084 4.824-0.274 6.423 1.359 4.956 2.444 10.019 3.403 15.098 0.44 2.563 0.892 5.139 1.372 7.743 0.403 2.759 0.827 5.454 1.261 8.291 1.723 5.355 3.472 10.836 5.272 16.472 1.8 5.475 3.717 11.114 5.874 16.91 0.64-9.395 2.498 6.623 5.655 3.897 0.924 2.397 1.534 4.047 1.977 5.162 0.121 0.84 0.253 1.987 0.164 2.143v0.055l0.383 17.348c-0.478 4.198-1.714-5.236-2.472-4.558 1.679 12.279-0.771 5.396-0.493 13.672 1.122-1.876 2.6 3.959 3.238 11.036l0.219-10.104c2.278 8.075 2.109 11.422 2.032 15.704 0.301 4.756 0.149 8.167 3.515 16.965l-2.526-5.055c1.157 3.358 2.659 9.038 4.339 15.152 0.919 3.077 1.813 6.256 2.691 9.333 0.522 1.483 1.044 3.008 1.484 4.449 0.599 1.6 1.166 3.117 1.648 4.558 0.687 1.483 0.849 1.696 1.206 2.417 0.403 0.599 0.725 1.13 1.042 1.648 0.678 1.080 1.45 2.027 2.087 2.745 0.149 1.639-0.055 3.942-1.813 0.383 2.201 5.797 4.818 11.915 7.577 17.953 2.88 6.238 5.806 12.506 8.565 18.504 1.558 2.157 3.076 4.203 4.558 6.203 1.276 1.835 2.535 3.618 3.733 5.381 2.398 3.515 4.455 6.847 6.093 10.049l-1.648-0.878c2.439 3.198 5.373 4.835 7.413 9.552-0.522 0-1.769-0.846-0.768 0.715 0.478 0.557 1.521 1.731 2.8 3.129 0.599 0.719 1.204 1.446 1.922 2.255 0.718 0.919 1.229 1.427 2.472 3.183 0.883 0.801 1.796 1.708 2.636 2.472 0.679 0.679 1.248 1.279 1.813 1.922l-4.007-2.417c14.313 15.473 24.909 20.524 38.105 32.118-1.961 2.003 9.367 13.851 15.043 19.765l-0.493 0.055c4.319 4.116 8.41 7.776 12.407 11.255 3.836 3.635 7.579 7.043 11.255 10.323 3.761 3.319 7.364 6.567 11.201 9.884 1.837 1.723 3.736 3.403 5.655 5.162 1.001 0.883 1.967 1.769 2.964 2.691 1.118 1.036 2.285 2.102 3.403 3.183 0.44 0.211 0.907 0.561 1.428 0.878 3.319 3.438 8.688 7.715 15.043 12.352 3.237 2.279 6.636 4.716 10.158 7.194 3.879 2.718 7.932 5.475 11.971 8.236 4.639 1.283 9.303 2.608 13.782 3.842 3.996 1.201 7.86 2.425 11.42 3.623-3.202-1.359 1.079-1.98 4.999-1.261 4.999 1.876 14.603 1.784 13.123 4.061l-1.758-0.547c0.478 0.522 1.192 1.057 2.032 1.539 0.374 0.211 0.783 0.476 1.261 0.715 0.599 0.183 0.297 0.129 0.493 0.328-0.211 0.028 1.424 1.079 2.581 1.758 1.283 0.76 2.546 1.543 3.897 2.307 2.722 1.483 5.567 3.051 8.127 4.449l2.8-2.255c2.955 2.598 6.483 5.068 10.323 7.468 1.882 1.201 3.82 2.451 5.819 3.571 2.236 1.243 4.474 2.388 6.752 3.623l6.916 2.307c2.079 0.64 4.166 1.224 6.203 1.867 4.116 1.276 8.222 2.507 11.859 3.623 7.359 2.364 13.358 4.775 16.637 7.413 0.84 0.149 1.042 0.169 2.8 0.603 2.519 0.339 5.297 0.667 8.017 0.987 2.601 0.268 5.15 0.631 7.468 0.715l-0.659 1.703c5.716 1.283 10.275 2.311 14.988 3.348 2.364 0.522 4.76 1.020 7.358 1.539 2.922 0.561 6.052 1.204 9.607 1.922 2.040-0.183 5.876-0.631 10.158-0.987l-3.678 1.594c10.319-0.678 12.65-6.157 22.127-6.916l3.019 2.472 7.855-0.493 8.127-0.328 10.049-1.428 9.497-1.484c6.318-1.080 12.552-2.489 18.668-4.449-0.211 0.436-0.678 1.321-3.515 1.922 2.479-0.404 6.367-0.957 10.487-1.594 2.316-0.121 4.676-0.218 6.916-0.328 2.358-0.149 4.637-0.379 6.478-0.659 3.719-0.522 5.939-1.326 4.777-2.526 0.44 2.358 18.624-1.010 28.22-2.964l-1.316 1.977c7.954-3.276 8.125-3.948 19.437-5.984 2.722-0.121 2.554 1.042-1.042 1.042 9.079-0.183 6.753-2.473 17.788-2.91l-3.897 1.648c4.52-0.523 6.623-0.892 8.181-1.372s2.508-1.007 5.71-2.087c0.028-0.028 0.189-0.185 0.328-0.274 0.76-0.557 1.608-1.247 2.526-1.922 0.718-0.478 1.556-0.924 2.362-1.484 1.679-1.043 3.459-2.14 5.217-3.019 3.438-1.758 6.578-2.955 7.577-2.636 0.519-1.518 4.075-5.307 8.948-7.908 0.961 0.121-0.543 1.461-1.261 2.143 3.202-1.723 5.874-3.454 8.236-5.055 1.201-0.883 2.285-1.617 3.403-2.417l1.484-1.152 0.933-0.715c0.478-0.268 1.919-0.811 3.238-1.206 1.283-0.44 2.507-0.92 3.788-1.316 2.519-0.718 5.096-1.299 8.017-1.539 0.374 0.478 1.018 0.587 1.977 0.547-7.034 1.758-13.175 3.404-16.691 4.284-0.718 0.44-1.275 0.777-1.594 0.933-0.522 0.339-0.704 0.37-0.547 0.274 0.339 0.644 2.507-0.14 2.745 0.219 0.44 0.149 0.64 0.324 0.878 0.603 0.121 0.268-0.028 0.783 0 1.261 0 0.089 0.026 0.218 0.055 0.328 0-0.061 0.025-0.218 0.055-0.328 0.519-0.183 1.002-0.42 1.484-0.659 1.122-0.44 2.248-0.962 3.403-1.484 2.322-0.961 4.785-1.978 7.303-3.019 5-2.041 10.224-3.865 14.824-4.668 0.478 0.028 0.924 0.043 1.316 0.164l-0.933 0.383c2.201-0.403 4.224-1.036 5.984-1.758 1.518-0.268 2.771-0.53 4.007-0.768 1.397-0.268 1.895-0.394 4.777-1.097 0.522 0.149 1.711 0.038 3.515-0.328 1.036-1.036 2.35-2.428 3.788-4.061 0.804-0.961 1.645-1.94 2.526-3.019 1.723-2.079 3.596-4.243 4.832-5.765-1.639-0.799 2.731-5.682-2.307-1.922 0.599-0.558-0.463 0.901-2.581 3.459-0.403 0.637-0.914 1.318-1.152 1.758 0-0.121 0.025-0.267 0.055-0.438l-6.478 7.908-5.491 1.484c1.122-0.643 3.375-1.499 5.055-2.143 0.599-0.84 1.224-1.707 1.867-2.581 0.523-0.682 1.102-1.477 1.703-2.199 0.997-1.283 2.199-2.479 3.678-3.678 0.76-2.716 1.695-5.632 2.255-7.194 6.318-3.599 15.854-12.839 18.172-13.232 1.6-2.122 3.237-4.38 4.999-6.697 2.397-2.040 4.865-4.166 7.303-6.203 2.601-2.278 5.084-4.452 7.522-6.533 4.76-4.358 8.813-8.49 11.091-11.971 3.118-2.997 4.439-2.311 6.038-2.91-1.8 1.835-4.125 3.631-4.887 4.832 6.037-6.275 20.514-15.288 20.753-18.449 9.512-5.44-3.759 5.291 8.236-3.623l-1.206 1.703c3.198-1.679 6.080-3.417 8.838-5.217 1.362-0.961 2.69-1.867 4.007-2.745 1.639-1.201 3.274-2.369 4.832-3.571l1.977-3.678 1.261-2.526 2.255-5.055c1.483-3.358 3.021-6.707 4.503-10.104 2.997-6.679 6.531-14.062 10.655-20.698 2.88-2.68 7.072-6.311 11.31-9.388-1.8 1.397-2.642 2.117-3.238 2.199 4.358-3.836 8.608-7.873 12.849-11.915l6.259-6.259 6.643-6.533c8.718-13.952 16.031-26.288 24.982-40.080l2.636-8.127 2.636-7.577c1.8-5.078 3.713-10.002 5.71-14.879 2.922-7.636 2.864-10.047 3.183-14.165 0-1.080 0.109-2.321 0.109-3.842l2.307-1.813 0.219-11.091c1.876-15.43 10.308-25.091 12.024-44.802l-1.813 2.199c1.876-6.796 4.498-21.89 5.655-20.371-0.028-0.801-0.783-2.492 0.493-5.055h1.097l0.328-2.526 0.603-3.403-1.316-3.678v0.164l-1.042-2.855-2.255-5.765c-2.801-13.075 4.439 1.051-0.438-17.898-2.322-6.916-8.26-19.218-8.181-16.418 0.718 2.836 1.363 7.384 0.438 7.908l-2.199-6.259c-0.183-0.028-0.459-0.049-0.659-0.109l-0.328-1.042 9.333-45.845-8.236-30.747 0.715 0.603-1.097-2.087-2.636-9.772c0.396 0.183 1.005 0.995 1.648 2.91-0.211-2.88-0.638-4.307-1.152-5.71-1.16-1.996-2.070-2.643-2.91-6.643-0.121-0.76 0.172-0.551 0.548 0l-3.733-6.203c1.080 1.036 1.208-1.891 2.691 2.307-4-12.392-10.575-18.1-10.817-23.334l0.659 0.878c-6.238-11.874-4.452-6.259-6.533-7.743l-0.109-0.328-1.097-7.799 2.472-6.643-2.143-1.539c-0.183-1.8-0.471-5.449 0.383-4.887-2.196-6.636-0.715 1.27-2.472-2.526 0.436-6.959-1.913-16.879-2.032-23.115-0.997-1.758-1.606-3.21-1.206-4.007-3.198-1.8 4.355 7.812-2.362 0.493 1.036-4.198-6.973-8.502-10.655-15.978 2.88 0.997 6.709 7.765 3.074 0.328-5.238-2.236-8.879-13.127-13.399-18.284-2.122 1.118-9.54-11.551-16.856-20.424 1.080 0.121-11.697-18.292-16.856-27.728l0.438 0.055c-3.077-0.4-8.932-9.744-13.891-16.143 1.318-0.519 2.643 0.36 5.6 3.623l-4.228-6.315c-1.639-1.036-3.242-2.817-6.203-6.697l2.526 0.659-2.255-3.019-3.074-2.581-2.691-2.199c-1.8-1.439-3.736-2.983-5.655-4.503-3.836-3.157-7.773-6.553-11.693-10.872-1.118 0.522 1.337 4.995-0.328 5.272l-5.108-4.777c0.557-0.211 1.428-0.071 2.91 0.987-0.961-0.718-3.627-2.238-5.108-4.116l5.055 2.636c-3.917-4.475-3.134-1.184-6.533-4.503 0.961-0.84-1.876-3.011-0.715-3.293 0.961 0.718 2.659 3.13 4.339 4.007-1.876-1.837-4.32-4.355-5.436-5.874-0.801-1.6-1.984-3.946-2.143-4.943-0.336 0.84-1.368 1.119-3.842-1.922-6.119-7.995-0.9-3.708-3.897-8.784-2.157-1.397-5.321-7.054-6.916-6.093-1.762-2.358-1.424-3.266-1.703-4.503-1.039-1.001-2.603-2.915-4.284-4.999-1.996-2.44-4.060-5.103-5.819-7.303-6.119-1.518-7.682-1.572-5.6 0l1.484 0.547c-0.339-0.028-0.687-0.158-1.042-0.219-7.077-1.236-14.102-3.322-21.14-5.6l-10.543-3.515c-3.358-1.122-6.552-2.201-9.828-3.238l-2.8-2.417-3.293-2.636 0.383-0.438c-8.155-6.035-17.362-14.346-23.717-18.062-2.278-1.919-4.622-5.444-3.183-5.162-0.919-0.687-1.751-1.359-2.307-1.758-1.439-0.599-2.626-1.044-3.788-1.484-1.080-0.436-2.105-0.892-3.183-1.372-2.199-1.080-4.721-2.492-8.838-5.055 7.476 2.48-1.991-2.025 7.522 2.855-8.798-4.957-10.415-6.876-20.807-10.158 3.957 0.149-5.731-5.132-10.487-6.972l5.929 4.228c-1.397-0.599-2.724-1.208-4.007-1.813-1.479-0.718-2.938-1.477-4.339-2.199-2.397-0.374-4.638-0.643-6.916-1.042l2.8-1.758c-9.955-2.598-19.234-2.682-27.947-2.964-4.319-0.121-8.495-0.303-12.572-0.823-4-0.564-7.78-1.868-11.42-3.623-5.596 0.396 10.784 3.138 5.71 3.897-9.199-2.082-18.274-6.951-21.195-7.468-5.117-1.521-8.137-1.676-10.817-1.594-1.362 0.061-2.548 0.158-3.952 0.219-0.678 0.028-1.492 0.028-2.255 0-0.883-0.028-1.463-0.034-3.019-0.274-0.961 0-1.975 0.055-3.129 0.055-1.001 0-2.12-0.075-3.403-0.164 1.762 0.799 3.4 2.751-6.752 3.348-9.436-0.44-11.598-3.323-5.6-3.842 2.278-0.028 3.377 0.206 3.293 0.493 3.081-0.211 7.049-0.491 3.293-1.372l-1.261 0.768c-4.676-0.883-17.668-0.995-14.548-2.199-7.196 0.643-3.172 1.166 2.143 1.648-7.833-0.875-13.813-0.743-19.93-0.823-2.88-0.183-6.839-0.575-11.036-1.206 1.954 0.599 3.719 1.626 1.758 1.428-18.188-2.601-8.144 0.669-20.534-0.109-6.918-1.758 2.742-2.48-9.772-2.636-7.556-1.483-1.447-2.11 1.594-2.472-1.362 0.028-2.69 0.028-4.007 0l-2.8-0.164c-1.103-0.119-2.177-0.194-3.238-0.328h-0.055zM489.949 197.444c3.334 0.371 7.137 2.331 10.323 3.459 5.699 1.915 8.364 7.388 12.298 11.584 4.085 4.463 8.069 9.135 12.079 13.672 3.672 4.199 5.23 9.32 8.565 13.782 3.747 5.094 6.946 10.46 10.432 15.594l0.055-0.055c5.548 8.207 2.412 16.659 2.143 25.804-0.264 8.732-0.269 17.18-1.097 25.915-1.565 17.165 1.236 34.464-1.428 51.554-2.172 13.793-7.936 27.071-8.236 41.015-0.269 11.432-0.121 22.9 0 34.371 0.032 4.308 0.929 9.18-0.493 13.455-0.787 2.507-2.815 4.534-3.571 7.084-1.168 4.086-0.383 8.872-0.383 13.068 0 4.99-0.055 9.983-0.055 14.933v55.015c0 5.435 0.435 11.019 0.164 16.418-0.26 5.396-1.731 10.395-1.703 15.868 0.113 9.596 1.656 19.492-4.228 28.33-2.436 3.714-1.476 7.491-3.348 11.42-2.172 4.608-3.899 9.268-6.148 13.836-1.304 2.566-2.962 5.039-4.558 7.522 6.262 0.083 12.477 0.524 18.887 1.042 15.779 1.275 31.263 3.469 44.419 14.715 2.324 1.988 4.994 2.438 7.468 4.172 2.361 1.615 4.371 3.484 6.807 4.832 5.286 2.889 10.604 5.236 15.813 8.455 6.708 4.121 14.364 6.97 19.984 13.343 4.048 4.495 7.604 8.767 11.091 13.946 2.661 3.935 6.834 5.875 8.893 10.487 1.426 3.187 1.863 7.050 2.087 10.655 0.183 2.212 0.211 4.411 0 6.588-0.301 3.292-1.303 6.444-1.977 9.662-0.904 4.612-0.849 9.245-1.372 13.891-0.64 5.398-2.838 6.623-5.874 10.268-3.897 4.76-8.236 7.644-12.959 10.872-2.324 1.54-4.455 4.416-7.194 5.162-1.911 0.532-3.578 0.519-5.491 1.261-4.010 1.426-7.997 3.17-11.859 5.055-1.35 0.64-2.563 1.397-4.061 1.428-3.86 0.121-7.827-3.105-11.201-4.943-2.1-1.129-4.704-1.062-7.028-1.648-4.274-1.083-7.298-5.134-11.42-6.972-2.548-1.157-2.864-2.724-4.777-5.055-1.426-1.797-2.917-2.659-4.228-4.613-3.222-4.642-6.615-10.452-8.674-15.923-0.827-2.136-2.063-5.552-1.316-8.017 0.71-2.283 5.136-4.309 6.972-5.765 1.612-1.308 4.636-5.326 6.697-4.999 1.011 5.248-0.175 11.142 2.472 15.978 2.848 5.131 6.859 9.099 11.803 10.708 3.559 1.157 6.412 3.612 10.049 4.887 4.198 1.468 8.191 1.527 12.572 1.484 3.375-0.028 8.267-0.617 9.994-4.887 0.71-1.723 0.454-2.793 0.219-4.558-0.682-4.537-0.867-9.026-1.539-13.563-0.491-3.41 0.519-6.866-1.097-9.939-1.125-2.212-3.354-2.94-4.668-4.777-1.8-2.623-1.801-5.457-2.362-8.674-0.756-4.048-3.571-4.958-5.819-7.468-9.557-10.604-24.173-16.285-36.019-22.62-7.645-4.048-15.421-6.728-23.553-8.565-4.685-1.061-9.367-1.993-14.165-2.472-7.687-0.744-14.756 0.851-22.401 1.648-11.918 1.308-23.843 0.116-35.799 1.867-8.544 1.232-17.001 3.123-25.585 4.503-9.67 1.54-19.875 4.482-29.208 8.784-9.259 4.196-19.045 8.030-28.715 10.049-10.645 2.212-20.088 5.563-29.759 12.079-8.023 5.364-15.969 10.085-23.389 16.91-2.811 2.583-4.526 4.431-6.588 8.181-2.623 4.803-6.076 7.883-9.224 11.971-4.498 5.769-11.665 12.935-13.727 20.917-1.876 7.383-1.902 17.176-1.152 24.599 0.522 5.621 1.165 11.383 1.428 16.965 0.121 2.731 1.976 9.375-0.383 11.365-2.586 2.176-10.412-1.891-12.024-4.339-2.436-3.602-5.251-8.815-6.862-13.013-1.764-4.537-1.975-7.899-2.199-12.959-0.251-5.342-1.683-9.268-1.206-13.837-2.458-10.153-2.557-23.519 1.261-32.45 4.234-9.787 11.944-16.056 18.504-22.839 5.961-6.151 11.915-12.055 18.062-17.788 13.569-12.559 28.297-25.371 43.815-32.943 7.62-3.724 15.072-6.259 22.675-8.236-0.379-0.336-0.681-0.582-1.372-1.152-5.472-4.385-7.445-10.277-10.708-15.868-2.588-4.458-5.691-8.481-8.017-13.123-2.848-5.624-5.762-11.551-8.948-17.020-2.1-3.527-2.863-7.42-4.887-10.872-4.609-7.911-2.362-17.164-2.362-25.749 0-7.871 1.28-16.6-0.328-24.323-0.939-4.644-0.887-8.87-1.097-13.672-0.186-4.126-1.737-7.903-1.648-12.024 0.149-11.095 0-22.233 0-33.328 0-6.371-0.323-12.775 0.164-19.108 0.485-5.848 1.428-11.411 1.428-17.294-0.149-12.108 0-24.221 0-36.292 0-13.906 0.79-27.55 1.428-41.343 0.149-3.187 1.437-6.221 1.648-9.333 0.149-2.583 1.191-4.607 1.097-7.084-0.161-5.997-0.207-12.015 0.164-18.007 0.26-4.191-1.036-9.395 2.636-12.243 1.538-1.233 2.947-2.283 4.449-3.515 2.1-1.764 4.091-3.376 6.038-5.436 1.914-1.914 4.202-3.105 6.038-4.943 1.723-1.764 2.552-3.93 4.503-5.546 1.163-1.011 2.498-1.575 3.623-2.636 1.913-1.826 3.082-4.187 5.108-5.984 2.362-2.137 4.902-3.888 7.303-5.874 4.535-3.746 8.448-8.932 11.859-13.618 2.091-2.844 3.588-6.206 5.929-8.784 1.538-1.708 3.381-2.262 5.381-2.362s4.12 0.219 6.315 0.219c-1.537 6.073-1.539 13.445-1.539 20.753 0 12.783-1.265 25.252-3.403 37.883-2.66 15.293-7.386 30.071-7.358 45.627 0.114 18.74 0.413 38.051-1.539 56.714-0.339 3.069-1.271 5.864-2.472 8.784-3.039 7.721-2.301 15.643-1.813 23.662 0.865 4.723 1.741 9.448 2.526 14.165 0.911 7.72 0.306 15.744 0.274 23.498 0 12.223 1.844 26.124-0.328 38.269-1.35 7.382-1.239 14.886-1.206 22.346 0 6.412-1.247 13.134 0.328 19.437 1.125 4.313 3.095 8.191 3.183 12.684 0.15 7.196-2.941 13.676-4.668 20.643-2.476 9.894-5.404 19.559-8.4 29.372-1.048 3.361-2.307 8.858-5.546 11.584 2.441-0.536 4.763-1.333 7.303-1.703 7.946-1.129 15.881-3.235 23.828-4.777 8.508-1.647 17.059-2.54 25.53-4.943 14.274-4.105 28.833-6.914 43.373-9.333-1.779-3.201-2.843-6.636-4.832-9.828-2.815-4.459-6.3-8.558-8.51-13.287-2.588-5.548-3.179-11.449-5.055-17.184-2.024-6.147-3.924-12.589-4.339-18.999-0.415-7.010-0.183-14.017 0-21.028 0.043-2.846 0.223-5.46 0.933-8.236 1.679-6.595 0.084-13.514 0.987-20.259 0.824-6.595 2.374-13.037 2.745-19.711 0.485-9.894 0.827-19.867 1.097-29.759 0.225-8.207-0.607-16.904 1.977-24.928 1.801-5.699 4.431-10.894 5.217-16.856 0.636-4.76 0.813-9.535 1.867-14.22 1.051-4.57 2.39-9.097 2.362-13.782-0.075-4.832-3.194-9.003-3.403-13.836-0.304-5.624 0.326-11.2 1.261-16.746 1.499-9.259 2.901-18.803 3.348-28.056 0.583-11.171-0.282-22.36 0.164-33.492 0.487-11.883 2.135-23.716 3.293-35.524 0.568-5.811 0.812-11.648 1.152-17.459 0.155-2.102 0.942-3.329 1.539-5.272 1.318-4.2 0.361-9.502 0.328-13.891-0.089-7.308-0.364-14.688-0.274-22.073 0.028-7.158-2.811-13.098 0-20.259-0.824 2.151 3.156-0.429 2.855-0.219 0.089-0.061 0.136-0.081 0.164-0.109 1.011-0.69 0.922-1.006 2.307-1.539 1.015-0.351 2.023-0.42 3.074-0.328zM609.753 264.481c8.433-0.486 13.325 8.702 18.723 13.727 6.523 5.997 12.587 11.948 18.999 18.172 2.998 2.88 6.563 5.524 10.049 7.855 1.015 0.637 2.32 1.131 3.074 2.087 1.797 2.255 0.32 5.32 1.372 7.799 0.26 0.636 1.403 0.625 1.703 1.261 0.757 1.499 0.11 5.363 0.109 6.861v12.407c0 10.235 1.567 20.307 1.539 30.583-0.028 5.169 0.028 10.419 0 15.594-0.072 6.11 1.437 12.041 1.648 18.117l-0.055-0.055c0.358 11.059-0.055 22.233-0.055 33.328 0 14.655-0.78 29.307-2.691 43.924-2.059 15.631-1.432 30.931-1.922 46.56-0.19 6.972-0.894 14.333-1.648 21.304-0.638 5.961-2.928 11.775-3.788 17.734-1.615 11.171-0.066 22.376-0.659 33.547-0.374 7.799-4.481 14.367-7.743 21.414-2.961 6.483-5.215 13.203-7.577 19.875-1.425 4.121-4.956 6.315-7.468 9.994-1.272 1.944-2.828 2.904-4.061 4.777-2.251 3.41-3.995 5.934-6.916 9.003-2.884-2.548-3.001-6.853-5.327-9.772-2.886-3.592-4.52-4.971-5.381-9.171-0.674-3.487-2.716-6.763-3.129-10.323-0.211-1.764 0.196-3.288-0.219-5.055-0.485-1.988-1.876-3.833-2.472-5.819-2.735-8.957-7.168-17.533-8.072-26.905-0.907-9.633 0.743-19.153-1.097-28.715-1.264-6.561-0.303-13.3-1.539-19.93-1.426-7.756-0.3-16.107-0.328-23.94-0.075-11.131 2.194-21.449 4.668-32.395 2.843-12.594 2.118-24.518 3.129-37.227 0.975-13.231 3.478-26.427 4.339-39.695 0.98-14.843 0.109-29.959 0.109-44.802v-58.639c0-7.495-0.812-15.647-0.438-23.443l-1.097 6.807c-0.975-4.274-5.929-26.21 4.228-26.85zM735.156 338.984c1.988 0.339 3.731 1.069 5.381 2.199 1.763 1.244 4.909 3.276 6.259 4.999 0.827 1.083 0.735 1.265 1.372 2.691 1.202 2.731 2.219 5.763 3.571 8.346 2.362 4.271 5.952 7.856 8.127 12.243 2.735 5.584 6.129 12.335 10.927 16.308 1.461 1.191 3.108 2.392 4.116 4.007 1.537 2.666 2.29 6.974 2.472 9.939v0.055c0.183 3.633 0.214 7.239-0.055 10.872-0.902 11.355-1.764 22.743-3.788 33.985-5.097 28.074 2.555 57.099-1.867 85.211-2.519 16.044-0.768 32.985-0.768 49.139 0 8.247-0.55 16.681 0.383 24.928 0.751 6.673-4.138 15.034-7.962 20.917-3.487 5.403-7.367 10.579-10.817 15.978-2.212 3.452-4.972 6.259-7.522 9.552-1.835 2.443-4.766 3.706-6.752 5.765-1.312 1.425-1.692 3.297-2.964 4.722-3.487-0.532-4.814-6.3-5.6-8.51-2.1-5.923-3.347-12.094-6.643-17.788-8.957-15.631-7.303-33.261-7.303-50.129 0-11.806-1.148-24.139 0.164-35.911 0.295-3.069 1.335-6.498-0.274-9.388-1.313-2.39-2.924-3.879-3.293-6.533-0.599-4.31 0.196-8.827 1.206-13.068 2.023-8.207 2.931-16.661 3.571-24.982 0.491-6.786 1.181-13.568 1.703-20.315 0.637-8.057 2.51-15.896 3.074-23.995v-0.438c0.672-10.384 1.512-20.512 1.484-30.966 0-10.609 0.055-21.187 0.055-31.789 0-8.471 0.034-16.93-0.055-25.366-0.113-6.786 2.264-12.083 5.71-18.117 2.285-4.039 1.484-5.3 6.093-4.558zM285.213 347.99c3.16-0.479 6.36 1.443 6.203 5.381-0.149 3.497-1.731 6.783-2.032 10.268-0.368 4.010 0.274 8.118 0.274 12.133-0.061 5.961 0.394 12.015 0.055 18.007-0.712 12.856-5.671 25.106-7.468 37.773-1.16 8.207-1.29 16.805-1.813 25.092-0.379 5.811-1.321 11.538-1.594 17.348-0.621 13.38 0.055 26.881 0.055 40.299 0 17.727-0.577 35.492 1.372 53.148 1.201 10.834 1.117 23.479-1.316 33.93-1.125 4.803-3.132 9.861-4.558 14.771-1.206 3.991-2.521 7.621-4.172 11.201 0.743 0.119 1.431 0.018 2.199 0.164 5.398 1.061 10.632 1.411 13.782 6.093 2.623 3.973 5.475 7.576 7.799 11.693 0.903 1.54 2.003 2.318 3.238 3.623 1.387 1.426 1.906 3.067 2.581 4.832 1.575 4.004 1.484 7.496 1.484 11.693 0 2.965 0.619 6.633 0.055 9.552-0.415 2.212-2.455 4.319-3.842 6.038-2.815 3.633-5.964 7.855-10.763 9.278-1.499 0.425-2.317 1.083-3.515 1.594-1.651 0.744-2.077 0.86-4.061 1.316-2.962 0.64-5.279 3.739-5.874-0.219-0.447-2.889 1.252-3.721 3.238-5.6 1.723-1.615 5.596-2.765 2.636 0.219v0.055c0.211-1.232 1.9-1.774 2.8-2.636 4.949-4.803 4.191-12.975 0.328-18.449-1.723-2.361-3.158-4.648-5.929-6.371-1.837-1.129-3.578-1.405-5.491-2.032-1.537-0.425-2.871-1.516-4.558-1.484-2.591 0-4.411 2.345-6.807 2.91-2.287 0.532-4.431 0.47-6.752 1.316-2.548 0.85-5.084 0.593-7.522 1.261-1.651 0.425-2.269 1.322-3.842 2.143-2.361 1.232-4.082 1.575-6.371 3.293-2.436 1.797-4.85 3.375-7.139 5.436-6.147 5.471-10.627 13.111-14.001 20.643-7.383 16.268-2.333 39.23 5.874 53.586 1.575 2.7 2.532 5.191 4.668 7.413 1.612 1.764 3.811 4.128 0.055 5.108-6.448 1.764-14.865-3.496-19.437-6.861-5.398-4.004-8.815-9.163-11.474-14.933-2.361-5.058-6.252-9.753-7.303-15.262-1.163-6.259-2.989-12.718-3.623-19.055-0.64-6.076-3.827-13.681-1.428-19.492 2.436-5.917 5.314-10.703 9.662-15.54 4.797-5.441 9.927-10.481 14.384-16.143 1.911-2.433 3.559-3.652 6.259-5.108 3.86-2.104 6.883-5.307 10.708-7.413 1.8-0.957 3.746-1.286 5.546-2.307 3.039-1.701 5.689-3.63 8.565-5.327-1.484-3.55-3.173-6.987-4.999-10.708-2.285-4.573-3.451-9.010-7.687-12.794-2.212-1.988-3.599-2.563-3.074-5.6 1.089-5.885 3.064-11.187 3.183-17.294 0.262-14.281 5.363-28.491 4.503-42.771-0.789-13.456-1.382-26.694-1.261-40.299 0.035-4.987-1.167-9.62-1.316-14.603-0.24-6.86 0-13.781 0-20.643 0-5.066-0.553-10.042-0.493-15.098 0.039-2.806 0.010-5.818 1.206-8.4 0.564-1.231 1.348-1.958 1.648-3.348 0.95-3.824-0.026-8.837-0.055-12.74 0-4.915 0.066-9.861 0.274-14.771 0.189-4.467 4.215-7.939 6.424-11.915 1.314-2.325 2.035-4.538 4.172-6.259 6.523-5.475 12.336-13.154 18.559-19.382 0.71-0.786 1.522-1.562 2.307-2.307 5.923-5.472 12.867-10.444 17.515-16.965 1.575-2.212 2.769-5.471 4.943-7.194 0.919-0.712 1.968-1.157 3.019-1.316zM479.685 524.838c-0.569 0.139-0.911 0.512-1.206 1.484-0.64 2.177 0.814 4.296 1.261 6.315 0.389 1.879 0.109 3.892 0.109 5.765 0 1.499-0.82 4.945-0.109 6.371 0.976 1.807 7.795 0.987 10.268 0.987 4.459 0 8.919-0.084 13.343-0.055 2.363 0.043 4.569 0.578 5.655-1.484 0.628-1.232 0.028-3.431 0-4.777-0.039-3.899-1.261-7.46-1.261-11.474l-1.261-2.087c-4.085 0-9.461 0.799-13.399 0.055-1.686-0.383-2.539-0.887-4.339-1.097-2.025-0.183-4.363 0.028-6.424 0-1.294-0.022-2.067-0.139-2.636 0zM359.279 542.794c-0.636 0-1.941-0.208-2.581 0.11-2.436 1.085-1.163 4.499-1.372 6.038-0.222 1.691-1.746 3.397-1.372 5.162 0.26 1.231 0.96 2.038 1.372 3.238 0.529 1.764 1.069 3.781 1.484 5.546 4.611 0.457 7.814 2.283 12.462 2.255 2.1 0 5.005 0.479 7.028 0.055 2.7-0.564 1.956-2.050 1.867-4.228-0.035-2.018 0.827-2.501 1.316-4.116 0.447-1.614 0.149-3.271 0-4.887-0.028-0.672 0.127-1.118 0.274-1.758v-0.055c0.183-0.862 0.109-1.786 0.109-2.636 0-0.904 0.246-2.060-0.055-2.91-0.675-0.107-1.052-0.319-1.648-0.438-0.747-0.121-2.031 0-2.855 0-0.976 0.107-1.821-0.066-2.8-0.274-1.048-0.089-2.1-0.011-3.183-0.219-3.263-0.732-6.71-0.878-10.049-0.878zM620.24 543.176c-1.499 0-3.357 0.084-4.558 0.933-2.139 1.54-1.152 5.274-1.152 7.303 0.028 2.137 0.121 4.323 0 6.424-0.114 1.723-1.299 3.481-1.206 5.055 2.060 0.317 3.108 0.837 4.832 1.261 2.060 0.44 5.055-0.109 7.194-0.109 3.447 0 8.779 0.855 12.079 0.109 3.634-0.892 2.242-4.215 2.581-6.424 0.032-0.747 0.149-0.404 0.328-0.933 0.121-0.351 0.026-0.782 0.055-1.206 0.193-0.786 0.383-1.562 0.383-2.307 0-1.433 0.264-2.66 0.383-4.007l0.055-0.055c0.089-1.010 0-2.068 0-3.129 0-0.682 0.348-2.044-0.438-2.472-0.637 0.637-3.767 0.164-4.777 0.164-3.039 0-6.356 0.476-9.278-0.164-2.138-0.396-4.34-0.438-6.478-0.438zM734.878 567.663c-1.904 2.36-1.758 4.176-1.758 6.916 0.076 3.75-1.758 6.814-1.758 10.599 0 3.432-0.893 4.422 5.217 4.394 5.66-0.104 10.845-0.953 16.582-1.042 6.073-0.075 6.131-1.3 6.038-4.668-0.028-1.764 0.702-3.911 0.109-5.6-0.45-1.379-1.398-2.492-1.813-3.842-0.45-1.468 1.033-2.051-1.594-2.691-1.463-0.317-4.485 0.121-6.093 0-2.735-0.297-6.644-2.563-9.716-2.032l-5.217-2.032zM242.66 572.11c-1.443-0.207-2.698-0.183-3.238 0.603-0.519 0.746 0.314 2.39 0.164 3.238-0.228 1.275-0.606 1.684-1.316 2.745 0.183 1.316 0.444 2.625 0.933 4.007 0.865 2.548-0.576 5.265 0.547 7.743 4.161 0.586 6.81-0.404 10.599-0.933 4.009-0.608 9.181 0.121 13.343 0 2.171 0 3.107 0.491 4.007-0.933v-0.11c0.547-0.87 0.034-3.164-0.055-4.228-0.076-1.871-1.364-3.454-1.703-5.327-0.268-1.351 0.413-2.625-0.109-4.007-3.56-0.2-5.572-1.184-9.171-1.152-1.8 0-3.671 0.028-5.436 0-1.988-0.107-2.804-0.613-4.228-0.823-1.257-0.164-2.894-0.616-4.339-0.823zM238.27 578.699c-0.149-0.904-0.3-1.739-0.328-2.8v3.129c0.149-0.107 0.268-0.211 0.328-0.328zM810.867 597.422c1.611-0.253 4.623 4.417 5.71 5.546 2.398 2.325 3.48 3.76 4.116 7.468 1.989 11.432 0.644 22.846 1.206 34.315 0.339 5.699 1.423 11.449 0.933 17.184-0.415 5.245-1.015 10.533-1.428 15.813-0.485 5.624-1.764 11.618-2.964 17.129-1.652 7.575-3.192 15.187-5.217 22.675-3.748 13.98-9.807 26.288-19.327 36.073-9.107 9.37-17.836 18.9-28.33 26.134-10.195 7.010-19.755 15.726-29.65 23.334-7.833 6.076-16.048 11.753-24.711 16.143-11.546 5.918-23.138 11.902-35.469 14.824-8.283 1.944-16.604 4.103-24.928 5.6-15.068 2.7-30.374 5.21-45.515 6.972-9.521 1.058-18.539 2.395-27.947 0.219-10.271-2.322-18.844-5.121-27.728-11.42-7.348-5.174-15.148-9.391-22.346-14.715-1.387-1.023-2.765-1.841-4.228-2.691-2.362-1.39-4.609-2.546-6.371-4.722-2.885-3.601-4.271-8.219-7.084-11.971-2.815-3.711-6.534-6.636-9.607-10.049-6.523-7.235-12.685-14.902-19.546-21.799-5.173-5.251-10.197-9.917-17.129-12.572-7.196-2.7-14.906-4.532-22.401-5.765-4.986-0.818-9.252-2.451-14.384-2.362-4.009 0.072-6.171-1.403-9.994-1.372-7.123 0.105-14.519-0.392-20.589 3.952-6.636 4.646-14.687 8.484-22.182 11.971-4.273 1.988-9.317 4.384-13.178 7.084-7.42 5.247-13.704 11.575-17.788 19.82-3.151 6.371-4.366 15.204-5.491 22.292-0.898 5.584-0.459 10.76 2.691 15.594 2.060 3.156 4.768 5.748 7.577 8.181 3.711 3.263 7.029 7.015 10.817 10.158 2.735 2.241 5.727 4.034 9.059 5.162 1.8 0.564 3.361 2.285 5.272 2.199 0.789-0.032 1.236-1.089 1.758-1.206 1.464-0.183 2.324-0.121 3.788 0 2.623 0.253 4.299 0.911 6.697 1.867 1.651 0.636 3.207 1.72 4.668 2.255 2.173 0.729 4.146 0.208 6.093-0.109 3.147-0.521 2.33-0.231 2.362 3.403 0.076 3.675 0.565 6.737 0.383 10.487-0.149 2.666 0.429 6.164 1.484 8.565-2.96 3.095-12.513-0.015-15.923-0.328-5.773-0.522-10.864-2.6-16.637-3.129-6.785-0.532-13.972-2.171-20.753-0.823-5.736 1.168-8.858-0.5-13.617-4.284-9.821-7.758-18.994-17.203-23.115-30.583-3.147-10.309-3.711-23.156-0.933-33.876 2.398-9.146 7.617-16.88 11.365-25.42 2.815-6.335 3.944-12.727 5.108-19.546 1.688-10.158 8.673-18.031 17.294-23.279 3.298-1.988 6.75-3.622 9.939-5.874 4.572-3.263 8.814-6.214 14.659-6.093 3.711 0.076 6.651-1.053 10.213-1.372 6.186-0.604 11.956-1.092 18.062-2.636 7.196-1.837 13.683-3.689 21.028-4.007 12.223-0.604 24.147-2.828 36.402-2.8 10.645 0.032 20.166-0.064 30.473 2.636 13.943 3.635 24.404 14.135 34.149 24.323 5.398 5.699 10.715 12.118 14.274 19.163 0.865 1.648 0.883 3.571 2.199 4.999 2.212 2.36 6.42 3.963 8.893 5.874 3.599 2.7 7.391 5.727 10.655 8.838 6.56 6.371 11.187 14.103 18.833 19.163 3.86 2.548 8.233 3.332 12.243 5.436 4.797 2.476 9.963 3.388 15.098 4.887 13.605 3.914 28.407 6.319 42.495 3.842 6.673-1.202 12.727-4.991 18.723-8.4 6.411-3.711 12.684-7.927 18.943-11.859 8.958-5.516 18.442-9.864 27.288-15.484 9.22-5.848 17.419-13.114 26.189-19.711 5.287-4.006 10.683-7.87 15.594-12.407 4.386-4.052 7.88-9.447 12.904-12.517 3.41-2.094 7.359-2.955 10.432-5.655 2.7-2.317 4.46-5.584 6.148-8.729 7.123-13.344 12.173-27.888 15.207-42.88 1.53-7.645 2.34-16.381 2.255-24.214-0.076-5.211 1.083-14.211-2.143-18.559v-0.11c-3.592 2.772-0.794-1.683 0.109-4.722 0.976-3.146 1.785-6.207 2.91-9.278 1.463-4.197 3.487-8.963 6.148-12.298 1.651-2.019 3.332-3.275 4.832-5.6 0.715-1.158 1.54-4.127 2.964-4.339zM688.486 627.563c2.059 2.74 4.559 4.411 6.093 7.632 1.115 2.236 1.779 3.495 2.964 5.162 0.071-0.383 0.435-0.644 0.328-1.097 2.397 4.613 1.201 3.264 0 1.648-0.14-0.191-0.2-0.368-0.328-0.548-0.323 1.77-1.897 3.067-3.129 4.394-3.41 3.633-5.576 7.427-6.588 12.188-2.848 12.931 0.243 27.044 2.636 39.75 1.35 7.267 5.315 13.412 8.838 19.82 1.275 2.325 1.828 5.055 4.228 6.478 1.911 1.128 5.699 2.135 7.799 2.581 4.010 0.957 8.723 0.221 12.849 0.328 2.436 0.028 7.459-2.156 8.619-0.659 1.125 1.426-0.006 6.86 0.055 8.729 0.028 4.166-1.222 5.095-5.272 5.436-2.927 0.211-5.284 0.651-7.908 2.032-1.988 0.957-2.899 2.019-4.999 1.977-2.436-0.028-5.908-0.944-8.455-1.261-2.815-0.317-4.831-1.471-7.303-2.745-10.347-5.323-17.493-12.516-23.115-22.894-2.958-5.441-5.507-10.966-8.729-16.255-1.723-2.772-4.052-5.209-5.327-8.291-1.236-3.112-1.287-6.412-1.813-9.716-1.16-6.819-1.186-12.564 0.164-19.273 0.827-4.196 1.013-9.476 4.007-12.849 4.723-5.471 12.599-8.079 17.734-13.287 2.661-2.731 5.111-5.644 6.643-9.278zM398.976 784.152c2.173 0.137 4.398 0.389 6.423 0.493 4.309 0.211 8.887-0.088 13.123 0.547 8.432 1.275 16.793 5.051 24.928 7.632 7.308 2.325 11.93 6.185 18.34 10.158 4.085 2.548 6.935 6.819 10.049 10.377 2.847 3.263 5.691 6.535 8.017 10.213 2.025 3.22 4.194 6.276 6.371 9.388 1.236 1.764 1.729 3.879 2.964 5.6 1.314 1.879 3.208 3.227 4.558 5.217 3.298 4.874 6.945 9.115 11.255 13.123 2.815 2.593 5.124 6.132 8.346 8.236s6.748 4.075 10.158 6.093c4.273 2.583 8.587 3.998 13.123 5.984 8.545 3.739 20.247 5.292 29.317 2.636 3.559-1.046 6.12-0.967 9.716-0.933 4.727 0.148 3.947 1.345 5.108 5.765 1.122 3.936 6.151 12.195 2.143 14.933-1.201 0.818-4.176 0.842-5.491 1.372-1.723 0.604-2.928 1.611-4.503 2.255-5.399 2.094-10.677 3.151-15.813 6.038-6.636 3.711-15.416 4.691-22.949 3.074-1.912-0.415-3.377-1.384-5.327-1.703-1.349-0.196-2.66 0.151-4.007-0.274-2.623-0.862-4.71-3.624-6.807-5.272-2.509-1.879-5.343-3.029-7.855-4.943-10.683-7.982-19.379-18.6-27.288-29.317-2.587-3.527-5.616-6.819-8.127-10.377-1.499-2.137-2.594-4.4-4.394-6.315-4.949-5.135-8.079-11.805-14.11-15.813-6.972-4.645-11.601-11.060-19.546-14.439-6.335-2.7-12.761-6.126-19.546-7.358-9.146-1.736-18.087 0.37-27.233-0.055v0.055c-3.151 6.449-4.075 5.447-5.765 1.097-1.279-3.412-1.21-7.361-1.922-11.036-0.932-5.097-1.451-10.853-0.548-16.255 0.599-3.813 1.454-2.727 4.228-3.788 2.212-0.786 4.319-1.555 6.752-2.087 1.988-0.435 4.14-0.465 6.315-0.328z"></path>
    </svg>