<svg xmlns="http://www.w3.org/2000/svg" viewBox="63.534 127.982 890.233 896.018">
    <path fill="#000000" d="M463.213 127.987c-1.503 0.828-2.913 1.606-4.339 2.362-0.961 0.396-1.906 0.827-2.745 1.261-1.723 0.678-3.329 1.443-4.887 2.087-3.118 1.243-5.929 2.324-8.127 3.403l4.943-3.403c-2.997 2.040-5.542 3.391-8.181 4.832l3.733-0.274c-3.237 1.439-5.812 2.795-6.093 2.199-2.675 2.64 3.65 0.967-2.032 5.6-2.236 0.799-5.256 2.688-8.017 4.284-1.397 0.76-2.775 1.387-3.897 1.867-0.599 0.183-1.044 0.398-1.484 0.438-0.268 0-0.463-0.099-0.659-0.328 0.183-0.028 1.084-0.486 1.648-0.768 0.64-0.339 1.17-0.682 1.648-0.878 0.84-0.478 1.331-0.804 1.648-1.042 0.522-0.522 0.176-0.679-0.274-0.715-0.883-0.211-2.148-0.41 3.293-3.571-2.040 1.359-4.575 2.753-7.855 4.228-0.561 0.028 0.256-0.69 1.042-1.206-0.883 0.336-2.217 0.901-2.417 0.933-0.121-0.028-0.13-0.028-0.219 0-0.121-0.028-0.164 0.025-0.164 0.055-0.268 0.061-1.107 0.183-1.428 0.328-0.919 0.268-1.508 0.631-2.307 0.987-1.558 0.718-3.756 1.527-9.994 1.648 1.247-0.79-0.743-1.265-2.91-1.539 1.387 0.557-1.331 1.809-5.381 2.526-9.395-0.636-10.179 0.878-15.098 0.878l5.6 0.274c-0.875 0.564-2.492 0.897-4.613 1.097-2.201 0.149-5.024 0.278-8.346 0.493-0.24 0.061-0.596 0.149-0.878 0.328-0.211-0.149 0.127-0.448 0.768-0.768-2.44 0.919-3.627 1.276-5.546 1.758-1.84 0.301-3.767 0.643-5.765 1.042-3.918 0.718-8.080 1.65-12.079 3.571-4.719 0.718-1.042-1.895-5.162-1.097-3.996 1.919-6.799 2.667-9.278 3.183-1.236 0.268-2.346 0.435-3.623 0.715-0.643 0.121-1.258 0.299-1.977 0.438-0.374 0.121-0.74 0.155-1.097 0.274-0.678 0.183-1.3 0.416-1.977 0.603-0.643 0.396-1.313 0.812-2.032 1.206-0.403 0.211-0.88 0.547-1.316 0.823-0.924 0.599-1.871 1.34-2.91 2.143 3.719-0.522 4.019-1.121-2.417 4.558l9.662-6.643 8.784-3.403-3.897 2.143c-1.483 0.718-2.181 1.195-4.503 2.199-1.758 1.318-2.367 2.043-3.403 2.964 1.201-0.76 2.481-1.617 3.678-2.417 1.283-0.478 2.535-0.989 3.733-1.428 1.122-0.44 2.115-0.904 3.074-1.261 2-0.84 3.8-1.451 5.162-1.813-5.36 3.081-4.95 2.535-1.867 2.855-1.679 0.028-3.26 0.332-4.777 0.715-0.76 0.183-1.587 0.486-2.307 0.768l-2.691 1.042c-2.115 1.558-4.237 3.098-6.478 4.777-2.115 1.521-4.402 2.928-7.084 4.007l-1.703-3.293c-9.436 4.319-16.47 10.584-25.147 16.582-2.801 1.521-7.087 3.593-11.365 5.272l5.655-1.867c-1.639 2.358-10.259 4.907-15.372 7.908-0.028-1.359-3.565-0.185-6.203 0.055 0.599 0.756-12.097 5.47-12.74 8.51l-2.199 0.659-1.977 1.428-1.484 0.933-2.855 1.813c-11.156 9.716-9.705 14.244-20.259 23.717 2.157-3.916-3.135-0.071 3.019-7.358-3.395 3.278-6.597 6.018-6.038 6.697-0.557 0.268-1.344 0.973-2.143 1.813-0.883 0.997-1.958 2.249-3.074 3.571-1.001 1.84-2.131 3.871-3.129 5.71-0.961 1.596-1.885 3.003-2.8 3.842-0.678 1.961 0.075 3.22-2.855 7.577-0.557 0.374-0.603-0.328-0.603-0.328 0.557 0.336-3.825 7.402-0.109 4.284-2.519 2.236-4.99 5.206-7.468 8.565-1.243 1.596-2.425 3.38-3.623 5.217-1.122 1.679-2.227 3.387-3.348 5.108-1.919 1.718-3.9 3.5-5.819 5.217-2.040 1.723-4.064 3.483-5.984 5.162-3.921 3.237-7.704 5.908-10.982 7.468-4.198 3.916-8.761 8.213-12.959 12.133-2.040 5.796-3.935 11.104-5.491 15.704-0.149-0.718-0.558-0.262 0.164-1.867-5.559 11.753 0.621 8.679-5.655 22.073-4.52 6.356 1.603-7.687-0.715-3.571-1.318 0.149-2.261 1.519-3.183 3.678-0.436 1.080-0.889 2.376-1.372 3.733-0.339 1.243-1.004 3.239-1.042 3.678-0.121 0.336-0.833 1.429-1.594 2.472l-2.143 3.183c-1.483 1.996-3.114 3.819-4.832 5.217l1.261-2.087c-5.637 5.236-9.753 15.842-17.348 25.639 0 0-0.038-0.717-0.547-0.438-0.183 0.643-0.66 1.706-1.539 3.183-0.44 2.358-0.98 5.055-1.539 8.017-0.557 2.675-1.204 5.534-1.922 8.455-1.439 5.839-3.047 11.907-4.449 17.184-0.4-4.001 0.811-5.391-1.428-3.788-1.439 5.195 2.942-0.653 0.109 9.662-0.84 1.362-1.709 3.005-2.91 5.327-1.080 3.198-2.116 5.684-3.238 6.203l0.933-6.752 1.261-3.842c-0.374 0.478-0.831 0.868-1.152 1.428-0.301 0.478-0.549 1.116-0.987 2.199-0.121 0.76-0.27 1.453-0.438 2.255l-0.328 1.922c-0.121 1.276-0.104 2.564-0.164 3.842-0.121 2.563-0.248 5.045-0.768 7.084l-0.878-0.878c-1.919 14.915 0.361 16.074-1.977 31.185-0.028 0.183-0.158 0.491-0.219 0.768 0.183-0.301 0.407-0.519 0.603-0.715 0.149-0.149 0.325-0.26 0.493-0.547 0.028 0.374 0.025 0.496 0.055 0.659 0 8.235-3.209 6.443-3.571 15.317l-3.129 2.032c-0.919 5.877-2.507 20.959-5.108 31.349 0.121-6.238 1.988-18.723 2.91-26.517-0.985 3.81-1.959 9.716-2.91 15.207 0.374 7.64-1.734 16.904-5.055 28.22-1.318-1.080-2.914 1.654-4.558 6.093-0.84 2.201-1.663 4.891-2.581 7.687-1.001 3.161-2.020 6.479-3.019 9.716 0.149 1.157 0.364 2.341 0.547 3.459 0.061 0.801 0.155 1.543 0.274 2.307 0.149 1.439 0.392 2.923 0.493 4.284 0.149 2.64 0.084 4.824-0.274 6.423 1.359 4.956 2.444 10.019 3.403 15.098 0.44 2.563 0.892 5.139 1.372 7.743 0.403 2.759 0.827 5.454 1.261 8.291 1.723 5.355 3.472 10.836 5.272 16.472 1.8 5.475 3.717 11.114 5.874 16.91 0.64-9.395 2.498 6.623 5.655 3.897 0.924 2.397 1.534 4.047 1.977 5.162 0.121 0.84 0.253 1.987 0.164 2.143v0.055l0.383 17.348c-0.478 4.198-1.714-5.236-2.472-4.558 1.679 12.279-0.771 5.396-0.493 13.672 1.122-1.876 2.6 3.959 3.238 11.036l0.219-10.104c2.278 8.075 2.109 11.422 2.032 15.704 0.301 4.756 0.149 8.167 3.515 16.965l-2.526-5.055c1.157 3.358 2.659 9.038 4.339 15.152 0.919 3.077 1.813 6.256 2.691 9.333 0.522 1.483 1.044 3.008 1.484 4.449 0.599 1.6 1.166 3.117 1.648 4.558 0.687 1.483 0.849 1.696 1.206 2.417 0.403 0.599 0.725 1.13 1.042 1.648 0.678 1.080 1.45 2.027 2.087 2.745 0.149 1.639-0.055 3.942-1.813 0.383 2.201 5.797 4.818 11.915 7.577 17.953 2.88 6.238 5.806 12.506 8.565 18.504 1.558 2.157 3.076 4.203 4.558 6.203 1.276 1.835 2.535 3.618 3.733 5.381 2.398 3.515 4.455 6.847 6.093 10.049l-1.648-0.878c2.439 3.198 5.373 4.835 7.413 9.552-0.522 0-1.769-0.846-0.768 0.715 0.478 0.557 1.521 1.731 2.8 3.129 0.599 0.719 1.204 1.446 1.922 2.255 0.718 0.919 1.229 1.427 2.472 3.183 0.883 0.801 1.796 1.708 2.636 2.472 0.678 0.679 1.248 1.279 1.813 1.922l-4.007-2.417c14.313 15.473 24.909 20.524 38.105 32.118-1.961 2.003 9.367 13.852 15.043 19.765l-0.493 0.055c4.319 4.116 8.41 7.776 12.407 11.255 3.836 3.635 7.579 7.043 11.255 10.323 3.761 3.319 7.364 6.567 11.201 9.884 1.837 1.723 3.736 3.403 5.655 5.162 1.001 0.883 1.967 1.769 2.964 2.691 1.118 1.036 2.285 2.102 3.403 3.183 0.44 0.211 0.907 0.561 1.428 0.878 3.319 3.438 8.688 7.715 15.043 12.352 3.237 2.279 6.636 4.716 10.158 7.194 3.879 2.718 7.932 5.475 11.971 8.236 4.639 1.283 9.303 2.608 13.782 3.842 3.996 1.201 7.86 2.425 11.42 3.623-3.202-1.359 1.079-1.98 4.999-1.261 4.999 1.876 14.603 1.784 13.123 4.061l-1.758-0.547c0.478 0.522 1.192 1.057 2.032 1.539 0.374 0.211 0.783 0.476 1.261 0.715 0.599 0.183 0.297 0.129 0.493 0.328-0.211 0.028 1.424 1.079 2.581 1.758 1.283 0.76 2.546 1.543 3.897 2.307 2.722 1.483 5.567 3.051 8.127 4.449l2.8-2.255c2.955 2.598 6.483 5.068 10.323 7.468 1.882 1.201 3.82 2.451 5.819 3.571 2.236 1.243 4.474 2.388 6.752 3.623l6.916 2.307c2.079 0.64 4.166 1.224 6.203 1.867 4.116 1.276 8.222 2.507 11.859 3.623 7.359 2.364 13.359 4.775 16.637 7.413 0.84 0.149 1.042 0.169 2.8 0.603 2.519 0.339 5.297 0.667 8.017 0.987 2.601 0.268 5.15 0.631 7.468 0.715l-0.659 1.703c5.716 1.283 10.275 2.311 14.988 3.348 2.364 0.522 4.76 1.020 7.358 1.539 2.922 0.561 6.052 1.204 9.607 1.922 2.040-0.183 5.876-0.631 10.158-0.987l-3.678 1.594c10.319-0.678 12.65-6.157 22.127-6.916l3.019 2.472 7.855-0.493 8.127-0.328 10.049-1.428 9.497-1.484c6.318-1.080 12.552-2.489 18.668-4.449-0.211 0.436-0.678 1.321-3.515 1.922 2.479-0.403 6.367-0.957 10.487-1.594 2.316-0.121 4.676-0.218 6.916-0.328 2.358-0.149 4.637-0.379 6.478-0.659 3.719-0.522 5.939-1.326 4.777-2.526 0.44 2.358 18.624-1.010 28.22-2.964l-1.316 1.977c7.954-3.276 8.125-3.948 19.437-5.984 2.722-0.121 2.554 1.042-1.042 1.042 9.079-0.183 6.753-2.473 17.788-2.91l-3.897 1.648c4.52-0.522 6.623-0.892 8.181-1.372s2.508-1.007 5.71-2.087c0.028-0.028 0.189-0.185 0.328-0.274 0.76-0.557 1.608-1.247 2.526-1.922 0.718-0.478 1.556-0.924 2.362-1.484 1.679-1.043 3.459-2.14 5.217-3.019 3.438-1.758 6.578-2.955 7.577-2.636 0.519-1.518 4.075-5.307 8.948-7.908 0.961 0.121-0.543 1.461-1.261 2.143 3.202-1.723 5.874-3.454 8.236-5.055 1.201-0.883 2.285-1.617 3.403-2.417l1.484-1.152 0.933-0.715c0.478-0.268 1.919-0.811 3.238-1.206 1.283-0.44 2.507-0.92 3.788-1.316 2.519-0.718 5.096-1.299 8.017-1.539 0.374 0.478 1.018 0.587 1.977 0.547-7.034 1.758-13.175 3.404-16.691 4.284-0.718 0.44-1.275 0.777-1.594 0.933-0.522 0.339-0.704 0.37-0.547 0.274 0.339 0.644 2.507-0.14 2.745 0.219 0.44 0.149 0.64 0.324 0.878 0.603 0.121 0.268-0.028 0.783 0 1.261 0 0.089 0.026 0.218 0.055 0.328 0-0.061 0.025-0.218 0.055-0.328 0.519-0.183 1.002-0.42 1.484-0.659 1.122-0.44 2.248-0.962 3.403-1.484 2.322-0.961 4.785-1.978 7.303-3.019 5-2.040 10.224-3.865 14.824-4.668 0.478 0.028 0.924 0.043 1.316 0.164l-0.933 0.383c2.201-0.403 4.224-1.036 5.984-1.758 1.518-0.268 2.771-0.53 4.007-0.768 1.397-0.268 1.895-0.394 4.777-1.097 0.522 0.149 1.711 0.038 3.515-0.328 1.036-1.036 2.35-2.428 3.788-4.061 0.804-0.961 1.645-1.94 2.526-3.019 1.723-2.079 3.596-4.243 4.832-5.765-1.639-0.799 2.731-5.682-2.307-1.922 0.599-0.558-0.464 0.901-2.581 3.459-0.403 0.637-0.914 1.318-1.152 1.758 0-0.121 0.025-0.267 0.055-0.438l-6.478 7.908-5.491 1.484c1.122-0.643 3.375-1.499 5.055-2.143 0.599-0.84 1.224-1.707 1.867-2.581 0.522-0.682 1.102-1.477 1.703-2.199 0.997-1.283 2.199-2.479 3.678-3.678 0.76-2.716 1.695-5.632 2.255-7.194 6.318-3.599 15.854-12.839 18.172-13.232 1.6-2.122 3.237-4.38 4.999-6.697 2.397-2.040 4.865-4.166 7.303-6.203 2.601-2.278 5.084-4.452 7.522-6.533 4.76-4.358 8.813-8.49 11.091-11.971 3.118-2.997 4.439-2.311 6.038-2.91-1.8 1.835-4.125 3.631-4.887 4.832 6.037-6.275 20.514-15.288 20.753-18.449 9.512-5.44-3.759 5.291 8.236-3.623l-1.206 1.703c3.198-1.679 6.080-3.417 8.838-5.217 1.362-0.961 2.69-1.867 4.007-2.745 1.639-1.201 3.274-2.369 4.832-3.571l1.977-3.678 1.261-2.526 2.255-5.055c1.483-3.358 3.021-6.707 4.503-10.104 2.997-6.679 6.531-14.062 10.655-20.698 2.88-2.68 7.072-6.311 11.31-9.388-1.8 1.397-2.642 2.117-3.238 2.199 4.358-3.836 8.608-7.873 12.849-11.915l6.259-6.259 6.643-6.533c8.718-13.952 16.031-26.288 24.982-40.080l2.636-8.127 2.636-7.577c1.8-5.078 3.713-10.002 5.71-14.879 2.922-7.636 2.864-10.047 3.183-14.165 0-1.080 0.109-2.321 0.109-3.842l2.307-1.813 0.219-11.091c1.876-15.43 10.308-25.091 12.024-44.802l-1.813 2.199c1.876-6.796 4.498-21.89 5.655-20.371-0.028-0.801-0.783-2.492 0.493-5.055h1.097l0.328-2.526 0.603-3.403-1.316-3.678v0.164l-1.042-2.855-2.255-5.765c-2.801-13.075 4.439 1.051-0.438-17.898-2.322-6.916-8.26-19.218-8.181-16.418 0.718 2.836 1.363 7.384 0.438 7.908l-2.199-6.259c-0.183-0.028-0.459-0.049-0.659-0.109l-0.328-1.042 9.333-45.845-8.236-30.747 0.715 0.603-1.097-2.087-2.636-9.772c0.396 0.183 1.005 0.995 1.648 2.91-0.211-2.88-0.638-4.307-1.152-5.71-1.16-1.996-2.070-2.643-2.91-6.643-0.121-0.76 0.172-0.551 0.548 0l-3.733-6.203c1.080 1.036 1.208-1.891 2.691 2.307-4-12.392-10.575-18.1-10.817-23.334l0.659 0.878c-6.238-11.874-4.452-6.259-6.533-7.743l-0.109-0.328-1.097-7.799 2.472-6.643-2.143-1.539c-0.183-1.8-0.471-5.449 0.383-4.887-2.196-6.636-0.715 1.27-2.472-2.526 0.436-6.959-1.913-16.879-2.032-23.115-0.997-1.758-1.606-3.21-1.206-4.007-3.198-1.8 4.355 7.812-2.362 0.493 1.036-4.198-6.973-8.502-10.655-15.978 2.88 0.997 6.709 7.765 3.074 0.328-5.238-2.236-8.879-13.127-13.399-18.284-2.122 1.118-9.54-11.551-16.856-20.424 1.080 0.121-11.697-18.292-16.856-27.728l0.438 0.055c-3.077-0.4-8.932-9.744-13.891-16.143 1.318-0.519 2.644 0.36 5.6 3.623l-4.228-6.315c-1.639-1.036-3.242-2.817-6.203-6.697l2.526 0.659-2.255-3.019-3.074-2.581-2.691-2.199c-1.8-1.439-3.736-2.983-5.655-4.503-3.836-3.157-7.773-6.553-11.693-10.872-1.118 0.522 1.337 4.995-0.328 5.272l-5.108-4.777c0.557-0.211 1.428-0.071 2.91 0.987-0.961-0.718-3.627-2.238-5.108-4.116l5.055 2.636c-3.917-4.475-3.134-1.184-6.533-4.503 0.961-0.84-1.876-3.011-0.715-3.293 0.961 0.718 2.659 3.13 4.339 4.007-1.876-1.837-4.32-4.355-5.436-5.874-0.801-1.6-1.984-3.946-2.143-4.943-0.336 0.84-1.368 1.119-3.842-1.922-6.119-7.995-0.9-3.708-3.897-8.784-2.157-1.397-5.321-7.054-6.916-6.093-1.762-2.358-1.424-3.266-1.703-4.503-1.039-1.001-2.603-2.915-4.284-4.999-1.996-2.439-4.060-5.103-5.819-7.303-6.119-1.518-7.682-1.572-5.6 0l1.484 0.547c-0.339-0.028-0.687-0.158-1.042-0.219-7.077-1.236-14.102-3.322-21.14-5.6l-10.543-3.515c-3.358-1.122-6.552-2.201-9.828-3.238l-2.8-2.417-3.293-2.636 0.383-0.438c-8.155-6.035-17.362-14.346-23.717-18.062-2.278-1.919-4.622-5.444-3.183-5.162-0.919-0.687-1.751-1.359-2.307-1.758-1.439-0.599-2.626-1.044-3.788-1.484-1.080-0.436-2.105-0.892-3.183-1.372-2.199-1.080-4.721-2.492-8.838-5.055 7.476 2.48-1.991-2.025 7.522 2.855-8.798-4.957-10.415-6.876-20.807-10.158 3.957 0.149-5.731-5.132-10.487-6.972l5.929 4.228c-1.397-0.599-2.724-1.208-4.007-1.813-1.479-0.718-2.938-1.477-4.339-2.199-2.397-0.374-4.638-0.643-6.916-1.042l2.8-1.758c-9.955-2.598-19.234-2.682-27.947-2.964-4.319-0.121-8.495-0.303-12.572-0.823-4-0.564-7.78-1.868-11.42-3.623-5.596 0.396 10.784 3.138 5.71 3.897-9.199-2.082-18.274-6.951-21.195-7.468-5.117-1.521-8.137-1.676-10.817-1.594-1.362 0.061-2.548 0.158-3.952 0.219-0.678 0.028-1.492 0.028-2.255 0-0.883-0.028-1.463-0.034-3.019-0.274-0.961 0-1.975 0.055-3.129 0.055-1.001 0-2.12-0.075-3.403-0.164 1.762 0.799 3.4 2.751-6.752 3.348-9.436-0.44-11.598-3.323-5.6-3.842 2.278-0.028 3.377 0.206 3.293 0.493 3.081-0.211 7.049-0.491 3.293-1.372l-1.261 0.768c-4.676-0.883-17.668-0.995-14.548-2.199-7.196 0.643-3.172 1.166 2.143 1.648-7.833-0.875-13.813-0.743-19.93-0.823-2.88-0.183-6.839-0.575-11.036-1.206 1.954 0.599 3.719 1.626 1.758 1.428-18.188-2.601-8.144 0.669-20.534-0.109-6.918-1.758 2.742-2.48-9.772-2.636-7.556-1.483-1.447-2.11 1.594-2.472-1.362 0.028-2.69 0.028-4.007 0l-2.8-0.164c-1.103-0.119-2.177-0.194-3.238-0.328h-0.055zM718.574 292.318c2.665 0.089 4.663 2.647 7.194 3.348 3.998 1.229 8.71-0.716 11.584 3.183 2.243 2.955 3.833 4.956 6.807 7.303 2.243 1.746 2.034 4.615 4.172 6.752 5.195 5.619 12.876 7.883 18.284 13.287 2.664 2.636 5.839 3.755 8.784 5.819 3.575 2.221 2.521 6.119 4.558 9.278 1.229 1.932 3.169 3.064 4.503 4.999 0 0.94 0.532 1.751 1.316 2.143 0.912 0.301 1.825 0.715 2.636 1.097 1.518 1.435 2.079 4.396 3.515 6.038 1.518 1.622 2.942 3.164 4.558 4.394 2.458 1.932 4.786 5.084 7.632 6.315 4.7 1.828 10.347-0.27 15.152 1.152 3.056 0.808 5.404 1.404 8.565 0.878 3.369-0.368 6.407-1.594 9.772-1.594 5.692-0.211 10.406 3.655 15.813 4.777 0.808 2.037-1.841 5.481-2.855 6.916-1.857 2.737-3.77 4.887-7.139 4.887-2.843-0.089-5.424-0.371-7.358-2.855-1.435-2.037-1.259-3.984-3.788-4.613-1.331-0.519-3.981 0-5.491 0-1.85 0.089-3.052 0.636-4.777 1.372-1.723 0.519-3.273 0.183-4.999 0.715-2.873 0.836-5.953 3.565-8.51 5.217-2.532 1.518-5.284 2.864-8.236 2.964-0.743 0-2.946 0.407-3.571-0.055-0.519-0.743-0.028-2.708-0.328-3.515-2.455-0.089-2.972-2.339-4.284-4.061-2.065-2.354-4.083-4.26-5.491-7.028-0.94-1.723-1.62-3.559-2.745-4.999-0.799-0.893-1.618-1.363-2.417-2.143-0.364 0.829-0.964 1.565-1.703 2.472-4.597 5.404-9.395 10.841-14.384 16.143-8.070 8.462-16.102 17.115-24.982 24.873-6.635 5.512-13.191 10.39-20.424 14.988-7.65 4.7-14.497 10.141-21.523 15.649-5.824 4.495-11.915 8.018-16.308 13.946-3.892 5.512-9.572 10.32-14.771 14.494-2.531 2.143-5.124 4.362-8.181 5.491-1.751 0.7-3.095 1.119-4.613 2.143-3.785 2.244-7.241 4.589-10.817 7.358-2.955 2.354-6.606 3.863-9.662 6.423-1.435 1.333-2.782 1.8-4.613 2.636-3.263 1.518-6.003 4.334-9.059 6.371-5.693 3.76-11.954 6.988-17.459 11.091-8.668 6.318-15.396 14.211-23.334 21.028-4.495 3.997-8.46 8.561-12.352 12.849-7.651 8.593-17.251 15.991-26.027 23.224-10.212 8.462-19.804 17.453-30.199 25.915-2.559 2.037-5.288 3.907-7.632 6.148-1.528 1.395-2.33 3.217-3.733 4.722-0.067 2.529-0.823 5.177-0.878 7.413-0.072 5.404 0.795 10.731 0.493 16.032-0.096 1.229-0.379 2.339-0.823 3.571-0.7 2.143-2.006 3.791-2.526 5.929-1.122 3.577-0.783 7.631-0.933 11.31-0.292 4.284-0.603 8.67-0.603 12.959 0 2.324-0.211 5.011 0 7.358 0.171 1.828 0.933 3.553 0.933 5.381 0.31 3.367-0.521 5.074-1.539 8.236-3.606 9.297 1.491 19.24-0.438 28.827-1.828 8.359-0.823 17.903-0.823 26.572 0 4.284-0.878 8.294-0.878 12.684v8.346c0 5.72-0.089 11.439 0 17.129 0.158 3.269 1.191 7.058 0.383 10.323-0.39 1.519-1.238 2.741-1.539 4.284-1.26 4.284-0.768 8.78-0.768 13.068 0 5.823 0.933 11.42 0.933 17.348 0 4.597 0.933 9.102 0.933 13.672 0.171 3.996 1.145 7.637 0.933 11.529 0 5.404-0.333 10.472 1.206 15.484 1.014 3.445 0.921 6.729 2.255 9.994 1.518 3.786 0.301 6.539 0 10.432 0 1.518 0.852 3.591 0.11 4.999-0.281 0.474-0.614 0.536-0.933 0.715 1.596 0.107 3.403 0.231 4.887 0.274 5.3 0.142 10.683 0.351 16.087 0.438 5.824 0.146 11.561-0.531 17.459-0.438 10.499 0.318 19.572 2.647 29.153 7.139 8.668 3.966 17.969 6.46 26.85 9.828 1.010 0.508 2.091 0.793 3.129 1.152-0.543-0.191-1.001-0.668-1.484-0.768 0.808 0.519 1.807 0.863 2.745 1.152v0.055c-0.352-0.211-0.847-0.295-1.261-0.438 1.76 0.615 3.75 1.341 4.832 2.417 2.664 2.98-1.424 7.767-4.503 8.893-1.415 0.532-3.263 0.504-4.777 0.715-9.087 0.368-18.057-0.357-27.014 0.383-9.609 0.593-19.13-0.308-28.715 0.603-10.212 0.893-20.679 0.274-30.966 0.274-12.458-0.171-24.734-0.723-37.059-0.933-7.65-0.171-15.079-0.878-22.73-0.878-7.338 0.104-14.479 0.622-21.743 1.428-14.076 1.632-27.763 1.409-41.838 1.316-5.72 0-15.070 2.288-20.371-1.813-1.652-1.225-3.907-5.839-2.472-7.687 0.919-1.258 3.582-1.003 4.887-1.372 6.947-1.748 13.364-4.617 20.203-6.752 1.723-0.519 3.602-1.031 5.327-1.867 2.451-1.199 4.663-2.609 7.194-3.623 7.862-3.78 16.751-5.14 25.42-5.055 3.164 0 5.723-0.323 8.674-0.768 2.351-0.218 5.124 0.274 7.687 0.274 2.148 0.089 4.175 0.121 6.315 0.328 2.243 0 3.901 0.689 6.038 0.987 2.847 0.393 5.499-0.379 8.236-0.823 3.575-0.435 7.106-0.679 10.487-1.922-0.217-2.165 0.933-4.94 0.933-7.139 0.089-3.367 0.319-6.967 0.109-10.543-0.1-2.324-1.443-4.29-2.032-6.533-1.014-3.553-1.919-7.391-2.362-11.255-0.469-5.012 0.032-10.108-0.878-15.098-0.386-2.556-1.671-5.736-1.152-8.4 1.126-5.404 2.272-10.902 3.183-16.308 0.733-4.284 3.14-7.873 3.348-12.079 0-4.178-0.933-8.234-0.933-12.407-0.206-3.052-1.224-5.839-2.032-8.893-1.362-5.511-0.878-11.023-0.878-16.746v-13.837c0-10.711-0.776-21.962 0.164-32.669 1.039-12.639 0.768-25.384 0.768-38.050v-28.715c0-4.804 0.211-9.793 0-14.493 0-1.932-0.159-3.276-0.603-5.108-0.808-3.576-0.525-7.743-0.823-11.42-0.393-4.178-0.579-8.495-0.878-12.462-0.062-1.664-0.053-3.067-0.11-4.558-0.777-0.715-1.524-1.427-2.526-2.362-1.863-1.828-2.778-2.749-4.007-4.887-2.535-3.997-7.572-7.496-11.146-10.763-5.092-4.887-10.291-9.663-15.594-14.548-6.947-6.528-12.012-14.198-18.228-21.359-2.772-3.054-5.736-6.19-8.4-9.662-2.849-3.556-5.293-7.435-8.455-10.599-6.947-6.844-13.948-13.091-22.018-18.395-6.634-4.495-12.263-9.378-17.459-15.098-5.301-5.823-8.992-12.646-14.603-17.843-6.947-6.738-11.817-16.212-20.094-21.304-6.919-4.177-12.924-9.493-19.765-13.782-3.971-2.637-7.551-5.684-10.817-8.948-1.723-1.54-3.78-3.279-5.71-4.613-2.77-2.037-4.905-4.514-7.468-6.862-4.284-4.284-9.167-7.732-12.959-12.298-3.052-3.789-5.107-8.192-8.784-11.146-2.143-1.86-3.426-4.188-5.491-6.038-2.74-2.744-6.216-4.367-8.674-7.632-2.945-3.656-2.138-8.275-4.172-12.243-0.808-1.434-1.84-2.358-2.143-3.897-0.393-2.243 0.832-3.558 1.042-5.491 0-0.393 0.011-0.723 0.219-0.933 0.71-2.686 2.844-2.716 5.819-2.199 2.429 0.589 3.854 0.715 6.315 0.715 11.307-0.222 22.648-0.504 33.876-0.715 12.247-0.323 24.431-0.723 36.676-0.933 11.516-0.308 23.073 0.429 34.589 0.219 8.668-0.076 17.573-0.757 26.244-0.547 12.142 0.42 24.364 2.051 36.402 3.074 24.157 2.243 48.131 1.947 72.42 1.428 23.86-0.691 47.791-1.354 71.651-2.362 0.805-5.727 3.851-9.906 7.743-14.165 2.037-1.932 3.052-2.379 5.819-3.183 4.99-1.333 9.671-3.33 14.659-4.558 4.103-0.912 8.169-1.060 12.243-1.867 4.598-0.912 9.111-1.884 13.891-2.199 7.157-0.301 11.34-3.806 16.746-7.908 3.574-2.636 5.601-5.903 8.346-9.171 2.664-3.162 6.728-5.396 9.994-7.855 2.563-2.143 4.051-1.439 7.139-2.855 4.284-2.139 8.404-5.012 13.287-5.929 4.103-0.912 7.834-1.605 11.803-3.019 5.508-1.932 11.467-2.156 17.184-3.074 3.555-0.301 6.919-0.567 10.708-0.493 3.472 0 7.124-1.353 10.599-1.042zM721.374 314.883c-2.439 0.018-4.882 0.419-6.916 0.933-2.769 0.836-5.095 2.087-8.072 2.581-2.848 0.519-5.274 1.014-8.017 1.922-3.369 1.023-7.177 1.648-10.543 2.143-7.027 1.331-13.648 3.23-20.698 4.668-12.953 2.664-22.221 13.21-32.118 21.359-2.423 2.104-4.947 4.187-7.743 6.093 9.998-0.436 19.981-0.555 29.978-0.823 22.667-0.732 45.499 0.512 68.246 1.316 11.935 0.526 23.755 0.953 35.688 1.042 2.243 0 4.836-0.136 6.972 0.383 2.955 0.529 5.589 2.207 8.565 2.417 0.7 0.084 1.172 0.080 1.758 0.055-1.007-2.548-1.916-5.159-3.293-7.303-3.056-4.495-7.547-6.86-10.708-11.146-3.892-4.803-6.53-9.195-12.352-12.352-3.472-2.037-7.555-2.947-11.42-4.777-2.458-1.129-4.73-2.675-7.084-4.007-1.829-0.912-3.447-2.327-5.381-3.238-1.985-0.915-4.423-1.279-6.861-1.261zM628.254 365.947c-4.284 0-8.048 0.084-12.407 0.603-2.759 0.316-5.597 0.14-8.4 0.109-0.996 0.756-2.096 1.43-3.074 2.143-4.495 3.162-8.774 7.445-12.849 11.31-5.012 4.7-10.892 7.863-16.087 12.352-3.472 2.851-4.782 5.395-5.381 9.994-0.836 5.715-1.359 12.006-3.183 17.515-2.782 8.881-9.314 17.319-10.655 26.628 0.245 0.239 0.547 0.45 0.768 0.715 2.037 2.245 4.043 5.156 5.272 7.687 1.704 3.37 0.632 7.372 1.372 10.927 0.6 3.47 2.045 6.967 2.417 10.543h-0.055c0.919 7.862-2.268 15.194-2.636 22.949-0.309 5.195-2.315 9.519-4.558 14.22-1.499 3.236-2.924 6.445-4.284 9.662 1.229-1.435 1.729-3.312 2.472-5.162 0.7-1.408 1.201-3.253 2.143-4.558 1.228-1.435 3.559-3.164 4.999-4.394 3.059-2.77 6.838-4.284 10.104-6.424 9.060-5.615 17.892-10.823 26.353-17.348 2.451-1.962 4.62-4.312 6.972-6.533 2.252-1.852 4.896-3.046 7.139-4.668 3.655-2.948 5.625-6.839 8.784-10.104 7.47-7.756 15.882-15.087 24.763-21.195 4.178-2.766 7.476-6.052 11.971-8.51 5.796-3.163 11.327-6.599 17.459-9.059 5.3-2.244 9.884-5.608 14.771-8.455 6.635-3.785 13.668-7.155 20.589-10.213 5.927-2.66 11.831-5.538 17.129-9.115 1.331-0.71 2.243-1.42 3.183-2.362 0.912-0.912 1.611-1.828 2.636-2.636 2.771-2.037 5.303-4.34 8.072-6.478 2.349-1.828 5.224-4.498 7.468-6.533 1.229-1.119 2.823-2.603 3.733-4.007v0.109c0.519-0.939 2.12-4.385 2.032-5.327-0.393-1.321-2.716-1.293-3.842-1.594-2.952-1.122-5.961-0.933-9.224-0.933-4.676-0.206-9.13 1.167-13.727 1.539-6.427 0.862-13.171 1.206-19.492 1.206h-13.287c-5.719 0-11.201-1.145-17.129-0.933-4.803 0.104-8.947-1.601-13.618-1.813-6.452-0.393-12.792-0.844-19.218-0.933-6.424-0.2-12.858-0.933-19.492-0.933zM267.752 366.766c-2.255 0-2.647 0.109-4.394 1.152-1.199 0.7-3.379 1.789-3.678 3.515-0.631 3.471 6.141 4.411 3.403 4.503 5.404 4.284 9.068 10.236 13.563 15.54 3.996 4.495 6.281 10.487 10.982 14.274 2.665 2.243 5.818 3.739 8.565 5.874 2.976 2.244 5.009 5.115 7.962 7.358 2.243 1.622 4.813 2.352 7.139 3.788 2.983 1.828 5.526 4.050 8.893 5.381 10.419 4.389 18.457 12.349 27.233 19.273 4.178 3.367 8.345 6.75 12.024 10.543 2.252 2.453 4.12 5.175 6.259 7.522 2.772 2.951 5.998 5.228 8.838 8.181 3.996 3.784 8.303 7.441 12.794 10.708 5.483 4.103 9.85 8.975 14.055 14.274 2.744 3.68 6.035 5.823 9.607 8.674 0.586 0.477 1.163 1.009 1.758 1.484-0.796-1.992-1.735-3.932-2.307-6.203-2.144-7.65-0.911-14.326 0.219-22.292 1.331-8.774 1.725-18.224 4.394-26.684 1.331-4.283 3.791-7.048 5.929-10.708 2.245-3.683 5.699-5.73 9.171-8.291 3.683-2.846 7.428-5.704 11.529-8.236 1.932-1.125 3.683-1.779 5.819-2.691 3.264-1.228 6.119-3.371 9.278-4.887 4.887-2.663 10.417-3.471 15.428-5.929 4.569-2.456 9.36-3.667 14.659-4.503 5.806-0.756 11.181-0.029 16.637 0.715 1.669-0.204 3.388-0.427 4.887-0.055 1.243 0.369 2.395 0.866 3.515 1.428 2.536 0.459 4.999 1.071 7.303 2.032 2.38 0.109 4.788 0.055 7.139 0.055 3.369 0 7.535 0.977 10.487-0.987 5.404-3.265 8.209-8.941 11.474-14.165 4.625-7.404 9.149-15.814 9.443-24.655-1.656 0.402-3.339 0.675-4.999 1.097-11.831 3.164-24.143 4.943-36.183 4.943h-43.263c-15.591-0.149-31.242 1.764-46.834 0.328-9.193-0.812-18.391 0.039-27.455-0.328-5.927-0.31-11.803-2.1-17.734-2.691-6.112-0.579-12.342-1.254-18.449-1.042-4.803 0-9.41-0.987-14.11-0.987-4.803 0.067-9.157-0.028-13.727-0.768-7.050-1.001-14.635-0.055-21.578-0.055h-13.563c-1.644 0-3.759 0.368-5.381 0-1.127-0.323-1.909-0.855-3.238-1.152-1.932-0.218-4.004 0.026-6.038-0.493-3.554-0.702-6.356-2.832-9.828-4.061-2.536-0.95-4.863-0.768-7.632-0.768zM487.808 428.424c-4.284 0.599-8.617 2.128-12.794 3.459-3.892 1.228-7.008 3.559-10.872 4.999-2.77 1.125-4.819 1.784-7.249 3.952-2.871 2.324-5.852 4.467-8.619 7.028-2.636 2.456-4.622 5.402-7.084 7.962-4.075 4.284-7.804 10.311-10.158 16.032-2.347 5.615-1.813 13.377-1.813 19.382 0.104 2.871 0.407 4.999 1.813 7.632 1.54 2.666 2.507 5.723 4.339 8.181 1.644 2.429 4.775 3.406 6.807 5.546 3.162 3.264 3.567 7.827 6.315 11.091 2.143 2.563 5.621 4.604 8.181 6.533 2.452 2.059 4.305 2.98 7.468 3.571 2.563 0.703 4.184 1.723 6.643 2.636 3.762 1.312 8.023 1.419 11.915 2.855 2.451 0.912 4.613 2.283 7.249 2.8 3.683 0.504 7.748 0.799 11.529 1.097 4.887 0.207 7.904-1.219 12.188-3.678 4.283-2.556 8.72-4.609 11.693-8.893 4.178-5.928 7.708-12.34 11.365-18.559 3.267-5.72 6.735-10.902 10.104-16.308 1.724-2.346 3.696-4.992 4.503-8.072 0.46-2.431 0.021-5.312 0.11-7.743 0-2.871 0.16-5.217-0.933-7.855-1.331-3.162-1.835-6.016-2.745-9.278-1.54-5.693-4.988-12.322-10.104-15.484-3.655-2.262-8.679-5.422-8.236-2.581-4.988-3.053-9.805-7.149-15.207-9.607-3.263-1.54-6.96-2.566-10.432-3.897-4.887-1.936-10.572-3.608-15.978-2.8zM463.926 471.633h5.217l0.933 0.055c1.117 0 2.106 0.328 3.129 0.328 0.393-0.089 0.69-0.089 1.206 0 1.118 0.436 2.347 0.768 3.678 0.768 1.324 0.089 2.815 0.24 4.116 0.328 2.77 0.599 3.252 1.709 4.999 3.952 1.126 1.851 2.326 3.767 3.733 5.491 1.435 1.643 3.823 2.547 5.055 4.061 1.708 2.144 1.891 6.375 1.372 9.115-0.599 2.661-3.936 5.802-5.765 7.632-1.435 1.435-3.069 2.558-4.613 4.284-1.644 1.932-2.871 4.006-5.217 5.055-3.053 1.407-7.513 3.956-10.487 2.417-2.324-1.023-4.184-3.363-6.643-4.668-3.448-2.143-6.524-3.836-8.455-7.413-1.828-3.054-5.923-5.29-7.358-8.346-0.925-2.56-0.308-7.97 0.603-10.213 1.228-2.747 3.571-4.562 5.71-6.697 1.023-1.228 2.336-2.052 2.855-3.459 0.393-1.415 1.836-1.424 2.964-1.867 0.919-0.289 1.836-0.613 2.964-0.823zM442.567 539.994c0.775 1.608 1.481 3.339 2.581 4.668 0.94 1.023 1.943 1.832 2.855 2.855 4.495 5.511 8.354 11.44 13.343 16.637 2.352 2.347 5.156 3.243 7.687 4.887 1.953 1.312 3.256 3.658 5.217 4.887 0.919 0.743 2.053 0.855 2.964 1.372 0.71 0.599 0.682 1.403 1.594 1.922 1.652 1.108 3.772 0.715 5.6 0.715 3.892 0 9.619-2.94 12.079-6.203 1.748-2.452 3.563-5.224 5.6-7.468 1.228-1.331 2.772-1.938 4.394-2.745 0.946-0.603 1.727-1.41 2.581-2.143-0.261 0.093-0.506 0.24-0.768 0.328-3.266 1.023-7.119 1.092-10.487 1.539-3.476 0.415-5.951 0.339-9.003-1.097-3.553-1.828-7.548-3.069-11.31-4.613-2.037-1.125-4.288-2.446-6.643-2.964-2.243-0.504-4.454-0.525-6.697-1.042-7.967-1.751-13.376-9.067-21.028-11.31-0.211-0.061-0.352-0.171-0.547-0.219z"></path>
    </svg>