<svg xmlns="http://www.w3.org/2000/svg" viewBox="63.534 127.982 890.233 896.018">
    <path fill="#000000" d="M463.213 127.987c-1.503 0.828-2.913 1.606-4.339 2.362-0.961 0.396-1.906 0.827-2.745 1.261-1.723 0.678-3.329 1.443-4.887 2.087-3.118 1.243-5.929 2.324-8.127 3.403l4.943-3.403c-2.997 2.040-5.542 3.391-8.181 4.832l3.733-0.274c-3.237 1.439-5.812 2.795-6.093 2.199-2.675 2.64 3.65 0.967-2.032 5.6-2.236 0.799-5.256 2.688-8.017 4.284-1.397 0.76-2.775 1.387-3.897 1.867-0.599 0.183-1.044 0.398-1.484 0.438-0.268 0-0.463-0.099-0.659-0.328 0.183-0.028 1.084-0.486 1.648-0.768 0.64-0.339 1.17-0.682 1.648-0.878 0.84-0.478 1.331-0.804 1.648-1.042 0.522-0.522 0.176-0.679-0.274-0.715-0.883-0.211-2.148-0.41 3.293-3.571-2.040 1.359-4.575 2.753-7.855 4.228-0.561 0.028 0.256-0.69 1.042-1.206-0.883 0.336-2.217 0.901-2.417 0.933-0.121-0.028-0.13-0.028-0.219 0-0.121-0.028-0.164 0.025-0.164 0.055-0.268 0.061-1.107 0.183-1.428 0.328-0.919 0.268-1.508 0.631-2.307 0.987-1.558 0.718-3.756 1.527-9.994 1.648 1.247-0.79-0.743-1.265-2.91-1.539 1.387 0.557-1.331 1.809-5.381 2.526-9.395-0.636-10.179 0.878-15.098 0.878l5.6 0.274c-0.875 0.564-2.492 0.897-4.613 1.097-2.201 0.149-5.024 0.278-8.346 0.493-0.24 0.061-0.596 0.149-0.878 0.328-0.211-0.149 0.127-0.448 0.768-0.768-2.44 0.919-3.627 1.276-5.546 1.758-1.84 0.301-3.767 0.643-5.765 1.042-3.918 0.718-8.080 1.65-12.079 3.571-4.719 0.718-1.042-1.895-5.162-1.097-3.996 1.919-6.799 2.667-9.278 3.183-1.236 0.268-2.346 0.435-3.623 0.715-0.643 0.121-1.258 0.299-1.977 0.438-0.374 0.121-0.74 0.155-1.097 0.274-0.678 0.183-1.3 0.416-1.977 0.603-0.643 0.396-1.313 0.812-2.032 1.206-0.403 0.211-0.88 0.547-1.316 0.823-0.924 0.599-1.871 1.34-2.91 2.143 3.719-0.522 4.019-1.121-2.417 4.558l9.662-6.643 8.784-3.403-3.897 2.143c-1.483 0.718-2.181 1.195-4.503 2.199-1.758 1.318-2.367 2.043-3.403 2.964 1.201-0.76 2.481-1.617 3.678-2.417 1.283-0.478 2.535-0.989 3.733-1.428 1.122-0.44 2.115-0.904 3.074-1.261 2-0.84 3.8-1.451 5.162-1.813-5.36 3.081-4.95 2.535-1.867 2.855-1.679 0.028-3.26 0.332-4.777 0.715-0.76 0.183-1.587 0.486-2.307 0.768l-2.691 1.042c-2.115 1.558-4.237 3.098-6.478 4.777-2.115 1.521-4.402 2.928-7.084 4.007l-1.703-3.293c-9.436 4.319-16.47 10.584-25.147 16.582-2.801 1.521-7.087 3.593-11.365 5.272l5.655-1.867c-1.639 2.358-10.259 4.907-15.372 7.908-0.028-1.359-3.565-0.185-6.203 0.055 0.599 0.756-12.097 5.47-12.74 8.51l-2.199 0.659-1.977 1.428-1.484 0.933-2.855 1.813c-11.156 9.716-9.705 14.244-20.259 23.717 2.157-3.916-3.135-0.071 3.019-7.358-3.395 3.278-6.597 6.018-6.038 6.697-0.557 0.268-1.344 0.973-2.143 1.813-0.883 0.997-1.958 2.249-3.074 3.571-1.001 1.84-2.131 3.871-3.129 5.71-0.961 1.596-1.885 3.003-2.8 3.842-0.678 1.961 0.075 3.22-2.855 7.577-0.557 0.374-0.603-0.328-0.603-0.328 0.557 0.336-3.825 7.402-0.109 4.284-2.519 2.236-4.99 5.206-7.468 8.565-1.243 1.596-2.425 3.38-3.623 5.217-1.122 1.679-2.227 3.387-3.348 5.108-1.919 1.718-3.9 3.5-5.819 5.217-2.040 1.723-4.064 3.483-5.984 5.162-3.921 3.237-7.704 5.908-10.982 7.468-4.198 3.916-8.761 8.213-12.959 12.133-2.040 5.796-3.935 11.104-5.491 15.704-0.149-0.718-0.558-0.262 0.164-1.867-5.559 11.753 0.621 8.679-5.655 22.073-4.52 6.356 1.603-7.687-0.715-3.571-1.318 0.149-2.261 1.519-3.183 3.678-0.436 1.080-0.889 2.376-1.372 3.733-0.339 1.243-1.004 3.239-1.042 3.678-0.121 0.336-0.833 1.429-1.594 2.472l-2.143 3.183c-1.483 1.996-3.114 3.819-4.832 5.217l1.261-2.087c-5.637 5.236-9.753 15.842-17.348 25.639 0 0-0.038-0.717-0.547-0.438-0.183 0.643-0.66 1.706-1.539 3.183-0.44 2.358-0.98 5.055-1.539 8.017-0.557 2.675-1.204 5.534-1.922 8.455-1.439 5.839-3.047 11.907-4.449 17.184-0.4-4.001 0.811-5.391-1.428-3.788-1.439 5.195 2.942-0.653 0.109 9.662-0.84 1.362-1.709 3.005-2.91 5.327-1.080 3.198-2.116 5.684-3.238 6.203l0.933-6.752 1.261-3.842c-0.374 0.478-0.831 0.868-1.152 1.428-0.301 0.478-0.549 1.116-0.987 2.199-0.121 0.76-0.27 1.453-0.438 2.255l-0.328 1.922c-0.121 1.276-0.104 2.564-0.164 3.842-0.121 2.563-0.248 5.045-0.768 7.084l-0.878-0.878c-1.919 14.915 0.361 16.074-1.977 31.185-0.028 0.183-0.158 0.491-0.219 0.768 0.183-0.301 0.407-0.519 0.603-0.715 0.149-0.149 0.325-0.26 0.493-0.547 0.028 0.374 0.025 0.496 0.055 0.659 0 8.235-3.209 6.443-3.571 15.317l-3.129 2.032c-0.919 5.877-2.507 20.959-5.108 31.349 0.121-6.238 1.988-18.723 2.91-26.517-0.985 3.81-1.959 9.716-2.91 15.207 0.374 7.64-1.734 16.904-5.055 28.22-1.318-1.080-2.914 1.654-4.558 6.093-0.84 2.201-1.663 4.891-2.581 7.687-1.001 3.161-2.020 6.479-3.019 9.716 0.149 1.157 0.364 2.341 0.547 3.459 0.061 0.801 0.155 1.543 0.274 2.307 0.149 1.439 0.392 2.923 0.493 4.284 0.149 2.64 0.084 4.824-0.274 6.423 1.359 4.956 2.444 10.019 3.403 15.098 0.44 2.563 0.892 5.139 1.372 7.743 0.403 2.759 0.827 5.454 1.261 8.291 1.723 5.355 3.472 10.836 5.272 16.472 1.8 5.475 3.717 11.114 5.874 16.91 0.64-9.395 2.498 6.623 5.655 3.897 0.924 2.397 1.534 4.047 1.977 5.162 0.121 0.84 0.253 1.987 0.164 2.143v0.055l0.383 17.348c-0.478 4.198-1.714-5.236-2.472-4.558 1.679 12.279-0.771 5.396-0.493 13.672 1.122-1.876 2.6 3.959 3.238 11.036l0.219-10.104c2.278 8.075 2.109 11.422 2.032 15.704 0.301 4.756 0.149 8.167 3.515 16.965l-2.526-5.055c1.157 3.358 2.659 9.038 4.339 15.152 0.919 3.077 1.813 6.256 2.691 9.333 0.522 1.483 1.044 3.008 1.484 4.449 0.599 1.6 1.166 3.117 1.648 4.558 0.687 1.483 0.849 1.696 1.206 2.417 0.403 0.599 0.725 1.13 1.042 1.648 0.678 1.080 1.45 2.027 2.087 2.745 0.149 1.639-0.055 3.942-1.813 0.383 2.201 5.797 4.818 11.915 7.577 17.953 2.88 6.238 5.806 12.506 8.565 18.504 1.558 2.157 3.076 4.203 4.558 6.203 1.276 1.835 2.535 3.618 3.733 5.381 2.398 3.515 4.455 6.847 6.093 10.049l-1.648-0.878c2.439 3.198 5.373 4.835 7.413 9.552-0.522 0-1.769-0.846-0.768 0.715 0.478 0.557 1.521 1.731 2.8 3.129 0.599 0.719 1.204 1.446 1.922 2.255 0.718 0.919 1.229 1.427 2.472 3.183 0.883 0.801 1.796 1.708 2.636 2.472 0.679 0.679 1.248 1.279 1.813 1.922l-4.007-2.417c14.313 15.473 24.909 20.524 38.105 32.118-1.961 2.003 9.367 13.851 15.043 19.765l-0.493 0.055c4.319 4.116 8.41 7.776 12.407 11.255 3.836 3.635 7.579 7.043 11.255 10.323 3.761 3.319 7.364 6.567 11.201 9.884 1.837 1.723 3.736 3.403 5.655 5.162 1.001 0.883 1.967 1.769 2.964 2.691 1.118 1.036 2.285 2.102 3.403 3.183 0.44 0.211 0.907 0.561 1.428 0.878 3.319 3.438 8.688 7.715 15.043 12.352 3.237 2.279 6.636 4.716 10.158 7.194 3.879 2.718 7.932 5.475 11.971 8.236 4.639 1.283 9.303 2.608 13.782 3.842 3.996 1.201 7.86 2.425 11.42 3.623-3.202-1.359 1.079-1.98 4.999-1.261 4.999 1.876 14.603 1.784 13.123 4.061l-1.758-0.547c0.478 0.522 1.192 1.057 2.032 1.539 0.374 0.211 0.783 0.476 1.261 0.715 0.599 0.183 0.297 0.129 0.493 0.328-0.211 0.028 1.424 1.079 2.581 1.758 1.283 0.76 2.545 1.543 3.897 2.307 2.722 1.483 5.567 3.051 8.127 4.449l2.8-2.255c2.955 2.598 6.483 5.068 10.323 7.468 1.882 1.201 3.82 2.451 5.819 3.571 2.236 1.243 4.474 2.388 6.752 3.623l6.916 2.307c2.079 0.64 4.166 1.224 6.203 1.867 4.116 1.276 8.222 2.507 11.859 3.623 7.359 2.364 13.358 4.775 16.637 7.413 0.84 0.149 1.042 0.169 2.8 0.603 2.519 0.339 5.297 0.666 8.017 0.987 2.601 0.268 5.15 0.631 7.468 0.715l-0.659 1.703c5.716 1.283 10.275 2.311 14.988 3.348 2.364 0.522 4.76 1.020 7.358 1.539 2.922 0.561 6.052 1.204 9.607 1.922 2.040-0.183 5.876-0.631 10.158-0.987l-3.678 1.594c10.319-0.678 12.65-6.157 22.127-6.916l3.019 2.472 7.855-0.493 8.127-0.328 10.049-1.428 9.497-1.484c6.318-1.080 12.552-2.489 18.668-4.449-0.211 0.436-0.678 1.32-3.515 1.922 2.479-0.404 6.367-0.957 10.487-1.594 2.316-0.121 4.676-0.218 6.916-0.328 2.358-0.149 4.637-0.379 6.478-0.659 3.719-0.522 5.939-1.326 4.777-2.526 0.44 2.358 18.624-1.010 28.22-2.964l-1.316 1.977c7.954-3.276 8.125-3.948 19.437-5.984 2.722-0.121 2.554 1.042-1.042 1.042 9.079-0.183 6.753-2.473 17.788-2.91l-3.897 1.648c4.52-0.523 6.623-0.892 8.181-1.372s2.508-1.007 5.71-2.087c0.028-0.028 0.189-0.185 0.328-0.274 0.76-0.557 1.608-1.247 2.526-1.922 0.718-0.478 1.556-0.924 2.362-1.484 1.679-1.043 3.459-2.14 5.217-3.019 3.438-1.758 6.578-2.955 7.577-2.636 0.519-1.518 4.075-5.307 8.948-7.908 0.961 0.121-0.543 1.461-1.261 2.143 3.202-1.723 5.874-3.454 8.236-5.055 1.201-0.883 2.285-1.617 3.403-2.417l1.484-1.152 0.933-0.715c0.478-0.268 1.919-0.811 3.238-1.206 1.283-0.44 2.507-0.92 3.788-1.316 2.519-0.718 5.096-1.299 8.017-1.539 0.374 0.478 1.018 0.587 1.977 0.547-7.034 1.758-13.175 3.404-16.691 4.284-0.718 0.44-1.275 0.777-1.594 0.933-0.522 0.339-0.704 0.37-0.547 0.274 0.339 0.644 2.507-0.14 2.745 0.219 0.44 0.149 0.64 0.324 0.878 0.603 0.121 0.268-0.028 0.783 0 1.261 0 0.089 0.026 0.218 0.055 0.328 0-0.061 0.025-0.218 0.055-0.328 0.519-0.183 1.002-0.42 1.484-0.659 1.122-0.44 2.248-0.962 3.403-1.484 2.322-0.961 4.785-1.978 7.303-3.019 5-2.041 10.224-3.865 14.824-4.668 0.478 0.028 0.924 0.043 1.316 0.164l-0.933 0.383c2.201-0.403 4.224-1.036 5.984-1.758 1.518-0.268 2.771-0.53 4.007-0.768 1.397-0.268 1.895-0.394 4.777-1.097 0.522 0.149 1.711 0.038 3.515-0.328 1.036-1.036 2.35-2.428 3.788-4.061 0.804-0.961 1.645-1.94 2.526-3.019 1.723-2.079 3.596-4.243 4.832-5.765-1.639-0.799 2.731-5.682-2.307-1.922 0.599-0.558-0.463 0.901-2.581 3.459-0.403 0.637-0.914 1.318-1.152 1.758 0-0.121 0.025-0.267 0.055-0.438l-6.478 7.908-5.491 1.484c1.122-0.643 3.375-1.499 5.055-2.143 0.599-0.84 1.224-1.707 1.867-2.581 0.523-0.682 1.102-1.477 1.703-2.199 0.997-1.283 2.199-2.479 3.678-3.678 0.76-2.716 1.695-5.632 2.255-7.194 6.318-3.599 15.854-12.839 18.172-13.232 1.6-2.122 3.237-4.38 4.999-6.697 2.397-2.040 4.865-4.166 7.303-6.203 2.601-2.278 5.084-4.452 7.522-6.533 4.76-4.358 8.813-8.49 11.091-11.971 3.118-2.997 4.439-2.311 6.038-2.91-1.8 1.835-4.125 3.631-4.887 4.832 6.037-6.275 20.514-15.288 20.753-18.449 9.512-5.44-3.759 5.291 8.236-3.623l-1.206 1.703c3.198-1.679 6.080-3.417 8.838-5.217 1.362-0.961 2.69-1.867 4.007-2.745 1.639-1.201 3.274-2.369 4.832-3.571l1.977-3.678 1.261-2.526 2.255-5.055c1.483-3.358 3.021-6.707 4.503-10.104 2.997-6.679 6.531-14.062 10.655-20.698 2.88-2.68 7.072-6.311 11.31-9.388-1.8 1.397-2.642 2.117-3.238 2.199 4.358-3.836 8.608-7.873 12.849-11.915l6.259-6.259 6.643-6.533c8.718-13.952 16.031-26.288 24.982-40.080l2.636-8.127 2.636-7.577c1.8-5.078 3.713-10.002 5.71-14.879 2.922-7.636 2.864-10.047 3.183-14.165 0-1.080 0.109-2.321 0.109-3.842l2.307-1.813 0.219-11.091c1.876-15.43 10.308-25.091 12.024-44.802l-1.813 2.199c1.876-6.796 4.498-21.89 5.655-20.371-0.028-0.801-0.783-2.492 0.493-5.055h1.097l0.328-2.526 0.603-3.403-1.316-3.678v0.164l-1.042-2.855-2.255-5.765c-2.801-13.075 4.439 1.051-0.438-17.898-2.322-6.916-8.26-19.218-8.181-16.418 0.718 2.836 1.363 7.384 0.438 7.908l-2.199-6.259c-0.183-0.028-0.459-0.049-0.659-0.109l-0.328-1.042 9.333-45.845-8.236-30.747 0.715 0.603-1.097-2.087-2.636-9.772c0.396 0.183 1.005 0.995 1.648 2.91-0.211-2.88-0.638-4.307-1.152-5.71-1.16-1.996-2.070-2.643-2.91-6.643-0.121-0.76 0.172-0.551 0.548 0l-3.733-6.203c1.080 1.036 1.208-1.891 2.691 2.307-4-12.392-10.575-18.1-10.817-23.334l0.659 0.878c-6.238-11.874-4.452-6.259-6.533-7.743l-0.109-0.328-1.097-7.799 2.472-6.643-2.143-1.539c-0.183-1.8-0.471-5.449 0.383-4.887-2.196-6.636-0.715 1.27-2.472-2.526 0.436-6.959-1.913-16.879-2.032-23.115-0.997-1.758-1.606-3.21-1.206-4.007-3.198-1.8 4.355 7.812-2.362 0.493 1.036-4.198-6.973-8.502-10.655-15.978 2.88 0.997 6.709 7.765 3.074 0.328-5.238-2.236-8.879-13.127-13.399-18.284-2.122 1.118-9.54-11.551-16.856-20.424 1.080 0.121-11.697-18.292-16.856-27.728l0.438 0.055c-3.077-0.4-8.932-9.744-13.891-16.143 1.318-0.519 2.643 0.36 5.6 3.623l-4.228-6.315c-1.639-1.036-3.242-2.817-6.203-6.697l2.526 0.659-2.255-3.019-3.074-2.581-2.691-2.199c-1.8-1.439-3.736-2.983-5.655-4.503-3.836-3.157-7.773-6.553-11.693-10.872-1.118 0.522 1.337 4.995-0.328 5.272l-5.108-4.777c0.557-0.211 1.428-0.071 2.91 0.987-0.961-0.718-3.627-2.238-5.108-4.116l5.055 2.636c-3.917-4.475-3.134-1.184-6.533-4.503 0.961-0.84-1.876-3.011-0.715-3.293 0.961 0.718 2.659 3.13 4.339 4.007-1.876-1.837-4.32-4.355-5.436-5.874-0.801-1.6-1.984-3.946-2.143-4.943-0.336 0.84-1.368 1.119-3.842-1.922-6.119-7.995-0.9-3.708-3.897-8.784-2.157-1.397-5.321-7.054-6.916-6.093-1.762-2.358-1.424-3.266-1.703-4.503-1.039-1.001-2.603-2.915-4.284-4.999-1.996-2.44-4.060-5.103-5.819-7.303-6.119-1.518-7.682-1.572-5.6 0l1.484 0.547c-0.339-0.028-0.687-0.158-1.042-0.219-7.077-1.236-14.102-3.322-21.14-5.6l-10.543-3.515c-3.358-1.122-6.552-2.201-9.828-3.238l-2.8-2.417-3.293-2.636 0.383-0.438c-8.155-6.035-17.362-14.346-23.717-18.062-2.278-1.919-4.622-5.444-3.183-5.162-0.919-0.687-1.751-1.359-2.307-1.758-1.439-0.599-2.626-1.044-3.788-1.484-1.080-0.436-2.105-0.892-3.183-1.372-2.199-1.080-4.721-2.492-8.838-5.055 7.476 2.48-1.991-2.025 7.522 2.855-8.798-4.957-10.415-6.876-20.807-10.158 3.957 0.149-5.731-5.132-10.487-6.972l5.929 4.228c-1.397-0.599-2.724-1.208-4.007-1.813-1.479-0.718-2.938-1.477-4.339-2.199-2.397-0.374-4.638-0.643-6.916-1.042l2.8-1.758c-9.955-2.598-19.234-2.682-27.947-2.964-4.319-0.121-8.495-0.303-12.572-0.823-4-0.564-7.78-1.868-11.42-3.623-5.596 0.396 10.784 3.138 5.71 3.897-9.199-2.082-18.274-6.951-21.195-7.468-5.117-1.521-8.137-1.676-10.817-1.594-1.362 0.061-2.548 0.158-3.952 0.219-0.678 0.028-1.492 0.028-2.255 0-0.883-0.028-1.463-0.034-3.019-0.274-0.961 0-1.975 0.055-3.129 0.055-1.001 0-2.12-0.075-3.403-0.164 1.762 0.799 3.4 2.751-6.752 3.348-9.436-0.44-11.598-3.323-5.6-3.842 2.278-0.028 3.377 0.206 3.293 0.493 3.081-0.211 7.049-0.491 3.293-1.372l-1.261 0.768c-4.676-0.883-17.668-0.995-14.548-2.199-7.196 0.643-3.172 1.166 2.143 1.648-7.833-0.875-13.813-0.743-19.93-0.823-2.88-0.183-6.839-0.575-11.036-1.206 1.954 0.599 3.719 1.626 1.758 1.428-18.188-2.601-8.144 0.669-20.534-0.109-6.918-1.758 2.742-2.48-9.772-2.636-7.556-1.483-1.447-2.11 1.594-2.472-1.362 0.028-2.69 0.028-4.007 0l-2.8-0.164c-1.103-0.119-2.177-0.194-3.238-0.328h-0.055zM593.554 284.191c9.087-0.337 18.153-0.46 27.343 0.438 8.934 0.873 17.87 2.609 26.684 4.503 8.449 1.897 16.286 5.319 24.543 7.577 16.489 4.663 33.51 10.74 50.676 10.655 6.338 0 12.612 0.355 18.778-1.372 2.747-0.557 5.307-1.705 7.855-3.403 0.942-1.333 2.389-1.982 3.897-2.255 2.576 2.452 2.278 8.604 1.594 11.639-0.818 3.812-0.547 7.592-0.547 11.474 0 7.868-0.149 15.564 0 23.334 0 2.277 0.795 4.004-1.097 5.055-0.971 0.46-4.394-0.23-4.943-0.438-3.983-0.752-7.599-2.728-11.584-3.678-3.52-0.897-7.855-0.219-11.474-0.219-10.416 0.194-20.275-4.082-30.692-4.172-2.675 0.393-5.544 0.199-8.291-0.547-2.671-1.24-5.309-2.675-7.962-4.007-4.274-2.094-8.443-3.742-13.178-3.952-0.915-0.020-1.829 0.015-2.745 0 0.823 2.905 1.557 6.017 2.362 8.181 2.284 6.338 3.784 12.906 5.217 19.437 1.415 7.116 3.929 13.658 5.819 20.479 1.797 6.071 2.428 11.414 2.91 17.679 0.488 7.018 3.319 13.316 7.303 19.218 3.425 5.292 7.902 10.090 12.079 14.824 5.317 5.875 10.243 12.332 15.923 18.007 4.855 4.832 9.087 9.317 12.407 15.484 2.649 4.929 4.63 9.951 7.303 14.879 7.115 12.433 18.956 16.677 29.595 25.201 7.114 5.802 13.584 13.081 19.656 19.93 3.716 4.249 6.355 8.51 9.003 13.343 5.803 11.388 17.426 17.704 27.673 24.818 2.088 1.601 5.035 4.172 8.072 4.172 2.278-0.096 3.137-2.324 5.327-2.417-0.393 3.229-2.414 6.483-2.964 9.884-0.482 2.867-0.733 6.183-1.484 8.948-0.756 2.43-0.415 1.656-2.307 2.8-4.248 2.356-8.894 6.556-13.343 8.181-3.907 1.415-10.263 0.544-14.439 0.274-4.172-0.071-5.296-1.875-8.236-4.228-3.227-2.669-4.295-5.349-6.478-8.674-1.703-2.738-4.949-3.316-7.303-5.381-1.988-1.915-3.819-4.492-5.71-6.478-1.603-1.701-3.375-3.599-4.999-5.491-4.175-4.541-8.166-8.723-12.904-12.904-1.891-1.603-3.974-2.812-6.259-3.952-2.38-0.95-4.396-2.335-6.093-4.228-1.142-2.087-2.044-4.131-3.183-6.315-1.702-1.603-3.031-3.434-4.172-5.327-1.411-3.133-2.881-6.161-4.116-9.388-3.039-5.513-7.855-8.835-12.298-13.013-4.663-4.467-8.342-8.325-14.22-10.872-2.575-1.036-5.155-1.919-7.632-2.964-4.444-5.783-7.351-12.908-11.915-18.395-1.334-1.72-3.050-2.903-4.558-4.339-5.802-5.78-10.724-13.419-14.603-20.534-4.734-8.428-7.885-17.507-12.352-25.859-2.38-4.467-3.582-9.205-5.765-13.672-1.797-3.498-4.193-6.45-6.478-9.772-4.831-6.63-7.283-14.805-7.194-23.059 0.089-6.264 0-12.503 0-18.668-0.096-4.444 0.779-8.381 1.261-12.628 0.415-3.716-0.211-7.484 0-10.982 0.102-1.064 0.309-2.593 0.547-4.061-6.047 1.248-12.122 2.843-18.284 3.459-11.193 1.137-22.916 0.055-34.204 0.055-7.771 0-15.734 0.976-23.334-1.206-13.645-3.902-27.485-4.284-41.619-4.284-4.274 0-8.449-0.252-12.628 0.987-2.181 0.751-4.331 2.138-6.588 1.867-1.819-0.099-3.736-1.327-5.819-1.539-3.69 0.272-7.471 0.196-11.255-0.219-5.027-1.051-10.26-1.763-15.484-2.032-10.246 0-20.282 2.526-30.528 2.526-13.45 0-26.483-2.748-39.75-2.91 0.036 0.52 0.358 0.67 0.274 1.372-1.333 8.837 0.764 16.574-2.636 24.928-2.283 5.679-3.355 11.753-5.929 17.459-3.039 6.819-7.27 12.911-9.552 19.93-2.19 6.168-2.935 12.624-4.172 18.887-1.333 6.072-0.524 12.143-1.484 18.117-0.972 4.852-3.655 9.733-5.546 14.274-3.421 8.158-9.853 13.287-14.879 20.203-2.94 4.081-5.012 7.715-8.729 11.31-3.4 3.227-6.095 7.194-8.838 10.982-3.421 4.564-6.791 8.921-10.872 12.904-2.94 2.865-4.925 7.033-7.962 9.607-2.671 1.988-4.311 2.385-6.203 5.327-3.325 5.485-6.977 8.506-11.639 12.684-5.292 4.564-9.244 10.337-14.439 14.879-4.852 4.177-9.94 7.729-14.384 12.462-3.987 3.986-7.857 7.94-12.517 11.365-6.629 4.638-14.236 7.208-20.862 11.748-2.479 1.622-4.123 2.784-6.861 3.897-3.325 1.239-7.178 2.171-10.213 4.061-2.843 1.625-4.874 2.885-7.908 4.007-1.508 0.687-2.004 1.045-3.515 1.922-3.987 2.547-6.596 3.389-9.828-0.219-3.814-4.371-5.547-10.155-9.333-14.329-1.144-1.429-2.983-1.989-3.733-3.788 3.987-2.38 8.859-0.703 11.31-5.819 1.822-3.784 2.124-7.008 5.162-10.213 7.407-7.89 17.435-13.171 27.124-17.734 3.986-1.891 8.316-2.377 12.298-4.172 4.275-1.891 7.456-4.93 11.146-7.577 2.38-1.723 5.196-2.927 7.194-5.108 1.622-1.723 2.666-4.215 4.172-6.203 5.878-7.502 12.881-13.587 18.395-21.359 5.024-7.114 10.719-13.637 15.649-20.753 2.576-3.498 4.559-7.666 7.303-11.091 2.576-3.304 6.251-5.675 8.729-9.003 5.292-6.725 10.505-13.972 14.22-21.743 1.701-3.718 2.263-7.756 3.403-11.639 1.239-4.081 3.891-7.519 4.668-11.693 2.258-12.044 8.728-23.202 9.772-35.633 0.482-5.581-0.547-11.299-0.547-16.691 0-3.039-0.099-6.381 0.768-9.224 0.268-1.046 0.552-2.055 1.316-2.91 2.087-3.039 4.775-6.060 6.862-9.772 1.54-2.751 3.668-5.519 4.999-8.346-3.151-0.805-6.295-1.63-9.388-2.362-6.072-0.776-11.939-1.074-18.007-0.659-25.619 0.171-51.176 1.464-76.865 1.372v0.109c-8.835 6.458-2.927-1.082-1.977-2.417 2.472-3.983 1.129-7.084 1.977-11.529 0.364-1.901 1.383-2.499 2.526-4.007 1.891-2.675 3.405-5.599 5.108-8.346 2.479-3.599 5.649-8.932 9.994-8.181 3.519 0.659 6.029 3.705 9.552 4.116 2.283 0.099 4.592-0.85 6.972-1.261 5.684-0.957 11.705-0.274 17.679-0.274 10.928 0 22.039 0.456 32.943 0.109 10.442-0.482 20.647-2.8 31.185-2.8 8.716 0 17.403-3.375 26.027-4.613 7.018-1.144 14.2-2.492 21.414-2.581 8.158-0.071 16.921-0.606 24.982 0.438 5.684 0.757 11.274 2.367 17.075 2.636 14.495 0.385 28.924-2.696 43.539-2.964 21.707-0.358 43.247-2.426 64.951-2.636 9.203-0.033 18.259-0.596 27.343-0.933zM504.776 390.98c2.95 0.343 5.839 1.107 7.962 2.255 9.007 4.929 18.36 8.457 26.517 14.988 3.981 3.229 5.634 8.34 8.181 12.517 1.988 3.403 4.367 6.463 6.259 9.884 4.834 9.007 4.085 18.383 1.316 27.947-2.063 7.6-5.692 18.32-14.603 20.039-7.967 1.521-17.236 0.021-25.201 0.109-3.229 0-6.848 0.413-9.884-0.274-2.667-0.586-5.083-2.059-7.855-2.472-7.38-1.038-18.808 3.011-24.323-3.348-4.834-5.391-6.427-13.136-8.51-19.765-1.55-4.832-2.479-8.304-1.703-13.232 0.469-3.787 0.839-7.93 2.636-11.255 1.603-3.228 4.203-6.203 6.093-9.333 1.334-2.548 3.991-5.64 4.943-8.291v-0.055c-0.193-0.383 0.051-1.020 1.097-1.867 3.129-2.671 6.107-6.835 8.948-9.772 2.84-2.744 5.658-6.434 9.662-7.577 2.464-0.715 5.505-0.836 8.455-0.493zM516.803 500.847c3.131 0 3.9 0.022 5.984 2.472 1.723 2.283 3.444 4.467 4.777 6.916 4.926 9.104 8.209 19.225 10.104 29.372 1.061 5.513 1.676 10.724 1.261 16.308-0.557 9.689-4.021 18.636-4.172 28.494-0.096 9.592-0.889 19.88 0.933 29.372 1.993 10.539 3.21 21.357 1.316 32.063-3.039 16.706-5.69 35.012-12.243 50.841-5.292 0.481-7.588-2.761-12.517-4.558-5.803-2.015-10.522-4.46-14.603-9.388-1.891-2.284-3.864-4.656-6.148-6.643-2.548-2.087-5.593-2.255-8.072-4.339-4.733-3.617-3.319-15.564-2.472-20.589 0.94-6.727 2.67-12.615 2.581-19.437-0.089-3.788 0-7.807 0-11.693v-106.625c1.43 3.039 3.096 0.773 5.381-3.571 1.797-3.207 2.1-2.846 5.327-3.623 0.558-0.193 0.952-1.048 1.703-1.316 1.143-0.301 2.66 0.159 3.897-0.109 1.701-0.386 4.492-1.454 6.478-2.143 3.693-1.046 6.798-1.813 10.487-1.813zM727.743 700.75c2.125-0.309 4.262-0.302 6.203 0.547 1.21 1.333 2.507 2.604 3.842 3.842 1.797 1.144 3.795 1.663 5.984 1.372 5.321 0.089 8.472-0.827 13.013 2.307 2.572 1.797 4.25 2.938 7.577 3.129 1.508 0.268 4.116-0.771 5.327-0.11 3.325 1.603 0.651 9.763 0.055 12.628-0.211 2.161 0.578 4.849-1.484 5.6-0.94 0-2.087-0.094-3.129-0.274-2.183 0.268-3.888 1.168-5.327 2.964-2.283 1.923-4.504 4.432-7.249 5.381-3.131 1.046-7.544 0.219-10.872 0.219-5.313 0-10.423 0.493-15.813 0.493-2.769 0-5.808 0.183-8.455-0.715-1.603-0.482-2.542-1.22-4.172-1.316-2.283 0-5.061 1.26-7.249 1.648-12.406 2.547-25.134 1.206-37.663 1.206-15.54 0.149-30.719-1.232-46.283-2.472-15.639-1.144-31.375 0.473-47.111-0.493-11.848-0.751-23.619-1.6-35.469-1.042-12.727 0.687-25.355 0.771-37.883 1.428-8.257 0.415-16.108 2.516-24.269 2.691-11.656 0.089-23.155 3.084-34.808 4.613-9.395 1.144-18.695 0.843-28.166 1.042-6.456 0-12.525-1.744-18.887-1.648-7.115 0.268-13.354 3.192-20.371 3.019-8.331-0.268-16.683 0.323-25.037-0.109-8.816-0.687-18.243-3.201-26.959-4.832-5.419-1.046-10.904-1.835-16.199-3.074-5.321-1.411-12.935-6.156-18.228-3.678-2.283 1.144-2.649 2.192-5.491 1.703-3.688-0.751-6.623-1.316-10.432-1.316-2.451 0.149-3.63-0.397-5.819-0.933-2.94-0.779-6.628-0.578-9.662-0.438-3.421 0.268-6.651 1.364-10.049 1.539-4.371 0.089-7.767-0.704-11.748-1.428-2.258-0.415-3.578 0.262-4.722-2.199-0.415-0.846-0.962-3.956-1.152-4.999-0.482-2.94 1.54-10.599 2.855-13.563 0.776-1.6 2.059-3.78 3.788-4.339 0.547-0.268 1.891 0.082 2.745-0.219 1.411-0.415 2.382-1.914 3.788-2.307 2.747-0.85 7.195-0.519 9.939-0.055 2.94 0.415 5.628 1.94 8.565 2.526 4.275 0.547 8.423 0.109 12.794 0.109 3.883-0.089 7.222 1.201 10.817 1.594 2.671 0.415 4.531-0.398 7.084-1.316 6.944-2.651 12.633-0.155 20.039-0.274h9.662c4.734 0 9.486-0.089 14.22 0 6.629 0.089 13.289-2.21 19.82-0.438 7.6 2.183 15.481 1.649 23.443 2.032 7.503 0.415 15.092 0.701 22.401 1.813 7.115 1.046 13.364 3.316 20.479 3.515 18.601 0.687 36.457-1.59 54.961-2.636 17.068-0.95 33.402-7.216 50.567-8.455 11.56-0.846 22.389 3.533 33.657 4.116 7.988 0.346 15.838-0.466 23.608-1.097 14.033-1.046 27.231 2.691 41.069 2.691 5.801 0 11.37-1.16 17.075-1.428 3.594-0.211 7.196 0.183 10.817-0.383 8.716-1.239 16.194-3.067 25.201-1.922 9.493 1.308 16.811-0.531 25.915-1.703 5.611-0.751 11.278-1.547 16.691-3.074 1.891-0.557 4.023-1.171 6.148-1.484zM408.472 771.524c1.338 0.392 3.128 1.038 4.172 1.428 3.715 1.409 4.771 5.572 7.028 8.51 6.436 8.546 7.387 19.86 6.148 30.473-1.504 12.236-5.215 21.71-15.923 28.827-5.414 3.724-15.176 4.485-21.633 3.074-4.076-0.778-7.533-4.582-10.377-7.522-4.564-4.927-7.743-8.348-14.274-10.432-7.525-2.548-9.102-5.121-7.799-12.794 1.337-6.36 4.471-11.838 7.799-17.348 3.207-5.684 7.283-11.021 11.748-15.759 4.274-5.123 7.449-5.531 13.618-6.861 6.072-1.499 11.814-1.372 18.172-1.372-0.912-0.715-0.022-0.611 1.316-0.219zM501.371 775.808c1.499 0.463 2.764 1.567 4.172 2.417 1.819 1.044 3.515 2.099 5.217 3.238 3.617 2.284 7.69 2.403 11.474 4.007 2.284 1.046 6.359 2.28 7.962 4.172 1.893 2.283 2.304 5.694 3.348 8.346 2.748 7.211 0.858 13.457-1.428 20.643-4.929 15.564-20.506 36.552-38.983 25.092-4.93-3.034-8.186-7.531-13.891-9.716-3.039-1.144-7.147-1.493-8.291-4.722-1.743-4.832 8.097-21.416 0.109-23.115-0.559-7.211 4.467-15.881 9.884-20.424 2.451-1.988 5.144-2.627 8.181-3.403 2.26-0.463 6.651-0.088 8.181-2.255-2.768-4.184 1.489-5.235 4.061-4.284zM705.122 777.615c0.452-1.031 3.508 1.612 5.929 2.472 2.94 1.037 4.009 1.991 6.093 3.788 5.223 4.444 14.030 3.865 19.93 8.236 3.5 2.744 6.921 6.052 10.323 8.893 6.265 5.317 9.66 8.919 7.577 17.075-3.52 14.424-16.423 18.867-29.705 21.249-6.264 1.144-10.814 4.915-16.691 6.807-6.264 2.087-12.303-1.672-17.624-4.613-9.3-5.223-21.726-12.427-19.93-24.763 0.847-7.018 3.925-15.82 6.862-22.182 1.704-3.983 4.14-9.314 8.127-11.474 3.786-1.971 8.6-1.858 12.684-1.648 1.726 0 6.882 1.173 6.972-1.372-0.547-1.356-0.7-2.127-0.547-2.472zM275.769 786.786c2.184-0.272 5.796-0.532 7.687 0.219 1.797 0.751 3.021 3.22 4.722 4.339 3.425 1.988 7.333 2.1 10.927 4.284 4.371 2.769 8.838 2.933 13.672 4.558 6.611 2.355 5.667 14.679 6.807 20.094 1.258 5.972 3.544 9.97 0.219 15.649-3.229 5.901-7.033 14.605-14.439 16.308-4.733 1.144-9.072 1.152-14.001 1.152-7.211 0-13.284 1.062-19.546-3.019-4.832-3.039-9.411-7.263-13.782-11.146-3.546-3.328-3.129-6.707-3.129-11.365-0.096-4.541 1.891-8.612 2.307-13.178 0.364-4.345 1.622-8.835 3.348-13.013 1.122-3.301 1.992-6.779 5.874-7.194 2.087-0.096 4.064 1.172 6.148 1.261 1.144 0.211 2.372 0 3.515 0l-0.055-0.055c-12.678-4.541-3.674-8.685-0.274-8.893zM608.378 791.561c5.273 0.143 9.675 6.344 12.024 8.619 5.587 5.684 10.179 14.875 10.268 22.839 0.364 9.689-1.142 20.187-7.799 27.399-4.154 4.567-8.241 7.791-13.946 10.268-5.317 2.087-10.908 5.341-16.691 5.491-2.088 0.196-9.42 1.046-11.31-0.164-1.24-0.95-1.975-3.649-3.019-4.887-1.991-2.158-4.075-2.832-6.916-3.678-3.329-1.136-8.23-3.057-9.662-6.478-0.961-2.939-0.491-8.604-0.219-11.639 0.491-5.414 3.128-11.915 5.055-16.746 2.359-5.802 4.799-13.227 8.784-17.788 6.822-7.675 18.519-8.696 27.892-10.982 1.899-1.657 3.787-2.3 5.546-2.255z"></path>
    </svg>