<svg xmlns="http://www.w3.org/2000/svg" viewBox="63.534 127.982 890.233 896.018">
    <path fill="#000000" d="M463.213 127.987c-1.503 0.828-2.913 1.606-4.339 2.362-0.961 0.396-1.906 0.827-2.745 1.261-1.723 0.678-3.329 1.443-4.887 2.087-3.118 1.243-5.929 2.324-8.127 3.403l4.943-3.403c-2.997 2.040-5.542 3.391-8.181 4.832l3.733-0.274c-3.237 1.439-5.812 2.795-6.093 2.199-2.675 2.64 3.65 0.967-2.032 5.6-2.236 0.799-5.256 2.688-8.017 4.284-1.397 0.76-2.775 1.387-3.897 1.867-0.599 0.183-1.044 0.398-1.484 0.438-0.268 0-0.463-0.099-0.659-0.328 0.183-0.028 1.084-0.486 1.648-0.768 0.641-0.339 1.17-0.682 1.648-0.878 0.84-0.478 1.331-0.804 1.648-1.042 0.522-0.522 0.176-0.679-0.274-0.715-0.883-0.211-2.148-0.41 3.293-3.571-2.040 1.359-4.575 2.753-7.855 4.228-0.561 0.028 0.256-0.69 1.042-1.206-0.883 0.336-2.217 0.901-2.417 0.933-0.121-0.028-0.13-0.028-0.219 0-0.121-0.028-0.164 0.025-0.164 0.055-0.268 0.061-1.107 0.183-1.428 0.328-0.919 0.268-1.507 0.631-2.307 0.987-1.558 0.718-3.756 1.527-9.994 1.648 1.247-0.79-0.743-1.265-2.91-1.539 1.387 0.557-1.331 1.809-5.381 2.526-9.395-0.636-10.179 0.878-15.098 0.878l5.6 0.274c-0.875 0.564-2.492 0.897-4.613 1.097-2.201 0.149-5.024 0.278-8.346 0.493-0.24 0.061-0.596 0.149-0.878 0.328-0.211-0.149 0.127-0.448 0.768-0.768-2.44 0.919-3.627 1.276-5.546 1.758-1.84 0.301-3.767 0.643-5.765 1.042-3.918 0.719-8.080 1.65-12.079 3.571-4.719 0.718-1.042-1.895-5.162-1.097-3.996 1.919-6.799 2.667-9.278 3.183-1.236 0.268-2.346 0.435-3.623 0.715-0.643 0.121-1.258 0.299-1.977 0.438-0.374 0.121-0.74 0.155-1.097 0.274-0.678 0.183-1.3 0.416-1.977 0.603-0.643 0.396-1.313 0.812-2.032 1.206-0.403 0.211-0.88 0.547-1.316 0.823-0.924 0.599-1.871 1.34-2.91 2.143 3.719-0.522 4.019-1.121-2.417 4.558l9.662-6.643 8.784-3.403-3.897 2.143c-1.483 0.718-2.181 1.195-4.503 2.199-1.758 1.318-2.367 2.043-3.403 2.964 1.201-0.76 2.481-1.617 3.678-2.417 1.283-0.478 2.535-0.989 3.733-1.428 1.122-0.44 2.115-0.904 3.074-1.261 2-0.84 3.8-1.451 5.162-1.813-5.36 3.081-4.95 2.535-1.867 2.855-1.679 0.028-3.26 0.332-4.777 0.715-0.76 0.183-1.587 0.486-2.307 0.768l-2.691 1.042c-2.115 1.558-4.237 3.098-6.478 4.777-2.115 1.521-4.402 2.928-7.084 4.007l-1.703-3.293c-9.436 4.319-16.47 10.584-25.147 16.582-2.801 1.521-7.087 3.593-11.365 5.272l5.655-1.867c-1.639 2.358-10.259 4.907-15.372 7.908-0.028-1.359-3.565-0.185-6.203 0.055 0.599 0.756-12.097 5.47-12.74 8.51l-2.199 0.659-1.977 1.428-1.484 0.933-2.855 1.813c-11.156 9.716-9.705 14.244-20.259 23.717 2.157-3.916-3.135-0.071 3.019-7.358-3.395 3.278-6.597 6.018-6.038 6.697-0.557 0.268-1.344 0.973-2.143 1.813-0.883 0.997-1.958 2.249-3.074 3.571-1.001 1.84-2.131 3.871-3.129 5.71-0.961 1.596-1.885 3.003-2.8 3.842-0.678 1.961 0.075 3.22-2.855 7.577-0.557 0.374-0.603-0.328-0.603-0.328 0.557 0.336-3.825 7.402-0.109 4.284-2.519 2.236-4.99 5.206-7.468 8.565-1.243 1.596-2.425 3.38-3.623 5.217-1.122 1.679-2.227 3.387-3.348 5.108-1.919 1.718-3.9 3.5-5.819 5.217-2.040 1.723-4.064 3.483-5.984 5.162-3.921 3.237-7.704 5.908-10.982 7.468-4.198 3.916-8.761 8.213-12.959 12.133-2.040 5.796-3.935 11.104-5.491 15.704-0.149-0.718-0.558-0.262 0.164-1.867-5.559 11.753 0.621 8.679-5.655 22.073-4.52 6.356 1.603-7.687-0.715-3.571-1.318 0.149-2.261 1.519-3.183 3.678-0.436 1.080-0.889 2.376-1.372 3.733-0.339 1.243-1.004 3.239-1.042 3.678-0.121 0.336-0.833 1.429-1.594 2.472l-2.143 3.183c-1.483 1.996-3.114 3.819-4.832 5.217l1.261-2.087c-5.637 5.236-9.753 15.842-17.348 25.639 0 0-0.038-0.717-0.547-0.438-0.183 0.643-0.66 1.706-1.539 3.183-0.44 2.358-0.98 5.055-1.539 8.017-0.557 2.675-1.204 5.534-1.922 8.455-1.439 5.839-3.047 11.906-4.449 17.184-0.4-4.001 0.811-5.391-1.428-3.788-1.439 5.195 2.942-0.653 0.109 9.662-0.84 1.362-1.709 3.005-2.91 5.327-1.080 3.198-2.116 5.684-3.238 6.203l0.933-6.752 1.261-3.842c-0.374 0.478-0.831 0.868-1.152 1.428-0.301 0.478-0.549 1.116-0.987 2.199-0.121 0.76-0.27 1.453-0.438 2.255l-0.328 1.922c-0.121 1.276-0.104 2.564-0.164 3.842-0.121 2.563-0.248 5.045-0.768 7.084l-0.878-0.878c-1.919 14.915 0.361 16.074-1.977 31.185-0.028 0.183-0.158 0.491-0.219 0.768 0.183-0.301 0.407-0.519 0.603-0.715 0.149-0.149 0.325-0.26 0.493-0.547 0.028 0.374 0.025 0.496 0.055 0.659 0 8.235-3.209 6.443-3.571 15.317l-3.129 2.032c-0.919 5.877-2.507 20.959-5.108 31.349 0.121-6.238 1.988-18.723 2.91-26.517-0.985 3.81-1.959 9.716-2.91 15.207 0.374 7.64-1.734 16.904-5.055 28.22-1.318-1.080-2.914 1.654-4.558 6.093-0.84 2.201-1.663 4.891-2.581 7.687-1.001 3.161-2.020 6.479-3.019 9.716 0.149 1.157 0.364 2.341 0.547 3.459 0.061 0.801 0.155 1.543 0.274 2.307 0.149 1.439 0.392 2.923 0.493 4.284 0.149 2.64 0.084 4.824-0.274 6.423 1.359 4.956 2.444 10.019 3.403 15.098 0.44 2.563 0.892 5.139 1.372 7.743 0.403 2.759 0.827 5.454 1.261 8.291 1.723 5.355 3.472 10.836 5.272 16.472 1.8 5.475 3.717 11.114 5.874 16.91 0.64-9.395 2.498 6.623 5.655 3.897 0.924 2.397 1.534 4.047 1.977 5.162 0.121 0.84 0.253 1.987 0.164 2.143v0.055l0.383 17.348c-0.478 4.198-1.714-5.236-2.472-4.558 1.679 12.279-0.771 5.396-0.493 13.672 1.122-1.876 2.6 3.959 3.238 11.036l0.219-10.104c2.278 8.075 2.109 11.422 2.032 15.704 0.301 4.756 0.149 8.167 3.515 16.965l-2.526-5.055c1.157 3.358 2.659 9.038 4.339 15.152 0.919 3.077 1.813 6.256 2.691 9.333 0.522 1.483 1.044 3.008 1.484 4.449 0.599 1.6 1.166 3.117 1.648 4.558 0.687 1.483 0.849 1.696 1.206 2.417 0.403 0.599 0.725 1.13 1.042 1.648 0.678 1.080 1.45 2.027 2.087 2.745 0.149 1.639-0.055 3.942-1.813 0.383 2.201 5.797 4.818 11.915 7.577 17.953 2.88 6.238 5.806 12.506 8.565 18.504 1.558 2.157 3.076 4.203 4.558 6.203 1.276 1.835 2.535 3.618 3.733 5.381 2.398 3.515 4.455 6.847 6.093 10.049l-1.648-0.878c2.439 3.198 5.373 4.835 7.413 9.552-0.522 0-1.769-0.846-0.768 0.715 0.478 0.557 1.521 1.731 2.8 3.129 0.599 0.719 1.204 1.446 1.922 2.255 0.718 0.919 1.229 1.427 2.472 3.183 0.883 0.801 1.796 1.708 2.636 2.472 0.679 0.679 1.248 1.279 1.813 1.922l-4.007-2.417c14.313 15.473 24.909 20.524 38.105 32.118-1.961 2.003 9.367 13.851 15.043 19.765l-0.493 0.055c4.319 4.116 8.41 7.776 12.407 11.255 3.836 3.635 7.579 7.043 11.255 10.323 3.761 3.319 7.364 6.567 11.201 9.884 1.837 1.723 3.736 3.403 5.655 5.162 1.001 0.883 1.967 1.769 2.964 2.691 1.118 1.036 2.285 2.102 3.403 3.183 0.44 0.211 0.907 0.561 1.428 0.878 3.319 3.438 8.688 7.715 15.043 12.352 3.237 2.279 6.636 4.716 10.158 7.194 3.879 2.718 7.932 5.475 11.971 8.236 4.639 1.283 9.303 2.608 13.782 3.842 3.996 1.201 7.86 2.425 11.42 3.623-3.202-1.359 1.079-1.98 4.999-1.261 4.999 1.876 14.603 1.784 13.123 4.061l-1.758-0.547c0.478 0.522 1.192 1.057 2.032 1.539 0.374 0.211 0.783 0.476 1.261 0.715 0.599 0.183 0.297 0.129 0.493 0.328-0.211 0.028 1.424 1.079 2.581 1.758 1.283 0.76 2.545 1.543 3.897 2.307 2.722 1.483 5.567 3.051 8.127 4.449l2.8-2.255c2.955 2.598 6.483 5.068 10.323 7.468 1.882 1.201 3.82 2.451 5.819 3.571 2.236 1.243 4.474 2.388 6.752 3.623l6.916 2.307c2.079 0.641 4.166 1.224 6.203 1.867 4.116 1.276 8.222 2.507 11.859 3.623 7.359 2.364 13.358 4.775 16.637 7.413 0.84 0.149 1.042 0.169 2.8 0.603 2.519 0.339 5.297 0.666 8.017 0.987 2.601 0.268 5.15 0.631 7.468 0.715l-0.659 1.703c5.716 1.283 10.275 2.311 14.988 3.348 2.364 0.522 4.76 1.020 7.358 1.539 2.922 0.561 6.052 1.204 9.607 1.922 2.040-0.183 5.876-0.631 10.158-0.987l-3.678 1.594c10.319-0.678 12.65-6.157 22.127-6.916l3.019 2.472 7.855-0.493 8.127-0.328 10.049-1.428 9.497-1.484c6.318-1.080 12.552-2.489 18.668-4.449-0.211 0.436-0.678 1.32-3.515 1.922 2.479-0.404 6.367-0.957 10.487-1.594 2.316-0.121 4.676-0.218 6.916-0.328 2.358-0.149 4.637-0.379 6.478-0.659 3.719-0.522 5.939-1.326 4.777-2.526 0.44 2.358 18.624-1.010 28.22-2.964l-1.316 1.977c7.954-3.276 8.125-3.948 19.437-5.984 2.722-0.121 2.554 1.042-1.042 1.042 9.079-0.183 6.753-2.473 17.788-2.91l-3.897 1.648c4.52-0.523 6.623-0.892 8.181-1.372s2.508-1.007 5.71-2.087c0.028-0.028 0.189-0.185 0.328-0.274 0.76-0.557 1.608-1.247 2.526-1.922 0.718-0.478 1.556-0.924 2.362-1.484 1.679-1.043 3.459-2.14 5.217-3.019 3.438-1.758 6.578-2.955 7.577-2.636 0.519-1.518 4.075-5.307 8.948-7.908 0.961 0.121-0.543 1.461-1.261 2.143 3.202-1.723 5.874-3.454 8.236-5.055 1.201-0.883 2.285-1.617 3.403-2.417l1.484-1.152 0.933-0.715c0.478-0.268 1.919-0.811 3.238-1.206 1.283-0.44 2.507-0.92 3.788-1.316 2.519-0.718 5.096-1.299 8.017-1.539 0.374 0.478 1.018 0.587 1.977 0.547-7.034 1.758-13.175 3.404-16.691 4.284-0.718 0.44-1.275 0.777-1.594 0.933-0.522 0.339-0.704 0.37-0.547 0.274 0.339 0.644 2.507-0.14 2.745 0.219 0.44 0.149 0.64 0.324 0.878 0.603 0.121 0.268-0.028 0.783 0 1.261 0 0.089 0.026 0.218 0.055 0.328 0-0.061 0.025-0.218 0.055-0.328 0.519-0.183 1.002-0.42 1.484-0.659 1.122-0.44 2.248-0.962 3.403-1.484 2.322-0.961 4.785-1.978 7.303-3.019 5-2.041 10.224-3.865 14.824-4.668 0.478 0.028 0.924 0.043 1.316 0.164l-0.933 0.383c2.201-0.403 4.224-1.036 5.984-1.758 1.518-0.268 2.771-0.53 4.007-0.768 1.397-0.268 1.895-0.394 4.777-1.097 0.522 0.149 1.711 0.038 3.515-0.328 1.036-1.036 2.35-2.428 3.788-4.061 0.804-0.961 1.645-1.94 2.526-3.019 1.723-2.079 3.596-4.243 4.832-5.765-1.639-0.799 2.731-5.682-2.307-1.922 0.599-0.558-0.463 0.901-2.581 3.459-0.403 0.637-0.914 1.318-1.152 1.758 0-0.121 0.025-0.267 0.055-0.438l-6.478 7.908-5.491 1.484c1.122-0.643 3.375-1.499 5.055-2.143 0.599-0.84 1.224-1.707 1.867-2.581 0.523-0.682 1.102-1.477 1.703-2.199 0.997-1.283 2.199-2.479 3.678-3.678 0.76-2.716 1.695-5.632 2.255-7.194 6.318-3.599 15.854-12.839 18.172-13.232 1.6-2.122 3.237-4.38 4.999-6.697 2.397-2.040 4.865-4.166 7.303-6.203 2.601-2.278 5.084-4.452 7.522-6.533 4.76-4.358 8.813-8.49 11.091-11.971 3.118-2.997 4.439-2.311 6.038-2.91-1.8 1.835-4.125 3.631-4.887 4.832 6.037-6.275 20.514-15.288 20.753-18.449 9.512-5.44-3.759 5.291 8.236-3.623l-1.206 1.703c3.198-1.679 6.080-3.417 8.838-5.217 1.362-0.961 2.69-1.867 4.007-2.745 1.639-1.201 3.274-2.369 4.832-3.571l1.977-3.678 1.261-2.526 2.255-5.055c1.483-3.358 3.021-6.707 4.503-10.104 2.997-6.679 6.531-14.062 10.655-20.698 2.88-2.68 7.072-6.311 11.31-9.388-1.8 1.397-2.642 2.117-3.238 2.199 4.358-3.836 8.608-7.873 12.849-11.915l6.259-6.259 6.643-6.533c8.718-13.952 16.031-26.288 24.982-40.080l2.636-8.127 2.636-7.577c1.8-5.078 3.713-10.002 5.71-14.879 2.922-7.636 2.864-10.047 3.183-14.165 0-1.080 0.109-2.321 0.109-3.842l2.307-1.813 0.219-11.091c1.876-15.43 10.308-25.091 12.024-44.802l-1.813 2.199c1.876-6.796 4.498-21.89 5.655-20.371-0.028-0.801-0.783-2.492 0.493-5.055h1.097l0.328-2.526 0.603-3.403-1.316-3.678v0.164l-1.042-2.855-2.255-5.765c-2.801-13.075 4.439 1.051-0.438-17.898-2.322-6.916-8.26-19.218-8.181-16.418 0.718 2.836 1.363 7.384 0.438 7.908l-2.199-6.259c-0.183-0.028-0.459-0.049-0.659-0.109l-0.328-1.042 9.333-45.845-8.236-30.747 0.715 0.603-1.097-2.087-2.636-9.772c0.396 0.183 1.005 0.995 1.648 2.91-0.211-2.88-0.638-4.307-1.152-5.71-1.16-1.996-2.070-2.643-2.91-6.643-0.121-0.76 0.172-0.551 0.548 0l-3.733-6.203c1.080 1.036 1.208-1.891 2.691 2.307-4-12.392-10.575-18.1-10.817-23.334l0.659 0.878c-6.238-11.874-4.452-6.259-6.533-7.743l-0.109-0.328-1.097-7.799 2.472-6.643-2.143-1.539c-0.183-1.8-0.471-5.449 0.383-4.887-2.196-6.636-0.715 1.27-2.472-2.526 0.436-6.959-1.913-16.879-2.032-23.115-0.997-1.758-1.606-3.21-1.206-4.007-3.198-1.8 4.355 7.812-2.362 0.493 1.036-4.198-6.973-8.502-10.655-15.978 2.88 0.997 6.709 7.765 3.074 0.328-5.238-2.236-8.879-13.127-13.399-18.284-2.122 1.118-9.54-11.551-16.856-20.424 1.080 0.121-11.697-18.292-16.856-27.728l0.438 0.055c-3.077-0.4-8.932-9.744-13.891-16.143 1.318-0.519 2.643 0.36 5.6 3.623l-4.228-6.315c-1.639-1.036-3.242-2.817-6.203-6.697l2.526 0.659-2.255-3.019-3.074-2.581-2.691-2.199c-1.8-1.439-3.736-2.983-5.655-4.503-3.836-3.157-7.773-6.553-11.693-10.872-1.118 0.522 1.337 4.995-0.328 5.272l-5.108-4.777c0.557-0.211 1.428-0.071 2.91 0.987-0.961-0.718-3.627-2.238-5.108-4.116l5.055 2.636c-3.917-4.475-3.134-1.184-6.533-4.503 0.961-0.84-1.876-3.011-0.715-3.293 0.961 0.718 2.659 3.13 4.339 4.007-1.876-1.837-4.32-4.355-5.436-5.874-0.801-1.6-1.984-3.946-2.143-4.943-0.336 0.84-1.368 1.119-3.842-1.922-6.119-7.995-0.9-3.708-3.897-8.784-2.157-1.397-5.321-7.054-6.916-6.093-1.762-2.358-1.424-3.266-1.703-4.503-1.039-1.001-2.603-2.915-4.284-4.999-1.996-2.44-4.060-5.103-5.819-7.303-6.119-1.518-7.682-1.572-5.6 0l1.484 0.547c-0.339-0.028-0.687-0.158-1.042-0.219-7.077-1.236-14.102-3.322-21.14-5.6l-10.543-3.515c-3.358-1.122-6.552-2.201-9.828-3.238l-2.8-2.417-3.293-2.636 0.383-0.438c-8.155-6.035-17.362-14.346-23.717-18.062-2.278-1.919-4.622-5.444-3.183-5.162-0.919-0.687-1.751-1.359-2.307-1.758-1.439-0.599-2.626-1.044-3.788-1.484-1.080-0.436-2.105-0.892-3.183-1.372-2.199-1.080-4.721-2.492-8.838-5.055 7.476 2.48-1.991-2.025 7.522 2.855-8.798-4.957-10.415-6.876-20.807-10.158 3.957 0.149-5.731-5.132-10.487-6.972l5.929 4.228c-1.397-0.599-2.724-1.208-4.007-1.813-1.479-0.718-2.938-1.477-4.339-2.199-2.397-0.374-4.638-0.643-6.916-1.042l2.8-1.758c-9.955-2.598-19.234-2.682-27.947-2.964-4.319-0.121-8.495-0.303-12.572-0.823-4-0.564-7.78-1.868-11.42-3.623-5.596 0.396 10.784 3.138 5.71 3.897-9.199-2.082-18.274-6.951-21.195-7.468-5.117-1.521-8.137-1.676-10.817-1.594-1.362 0.061-2.548 0.158-3.952 0.219-0.678 0.028-1.492 0.028-2.255 0-0.883-0.028-1.463-0.034-3.019-0.274-0.961 0-1.975 0.055-3.129 0.055-1.001 0-2.12-0.075-3.403-0.164 1.762 0.799 3.4 2.751-6.752 3.348-9.436-0.44-11.598-3.323-5.6-3.842 2.278-0.028 3.377 0.206 3.293 0.493 3.081-0.211 7.049-0.491 3.293-1.372l-1.261 0.768c-4.676-0.883-17.668-0.995-14.548-2.199-7.196 0.643-3.172 1.166 2.143 1.648-7.833-0.875-13.813-0.743-19.93-0.823-2.88-0.183-6.839-0.575-11.036-1.206 1.954 0.599 3.719 1.626 1.758 1.428-18.188-2.601-8.144 0.669-20.534-0.109-6.918-1.758 2.742-2.48-9.772-2.636-7.556-1.483-1.447-2.11 1.594-2.472-1.362 0.028-2.69 0.028-4.007 0l-2.8-0.164c-1.103-0.119-2.177-0.194-3.238-0.328h-0.055zM467.933 198.538h15.704c0.935 0.211 1.849 0.547 2.745 0.547 5.435 0.425 10.818 0.615 16.255 0.933 3.446 0.211 6.928 0.231 10.377 0.659 7.46 0.744 14.926 2.199 22.237 3.842 11.805 2.658 23.563 5.559 35.633 6.862 8.621 0.957 17.152 2.675 25.585 4.777 6.371 1.647 12.834 3.052 18.943 5.6 0.979 0.425 1.954 0.608 2.964 0.715 6.523 1.247 12.741 3.36 18.778 5.984 2.324 1.061 4.65 1.963 6.972 2.91 8.207 3.263 15.863 7.575 23.171 12.517 4.311 2.965 8.664 5.731 13.013 8.619 3.039 2.059 6.135 4.005 9.059 6.259 8.135 6.259 16.899 11.564 25.971 16.363 3.935 2.136 7.94 4.177 11.915 6.315 6.561 3.527 12.643 7.734 18.228 12.684 9.332 8.435 18.119 17.406 26.628 26.628 7.308 7.829 13.582 16.432 19.656 25.201 2.927 4.196 5.905 8.443 9.388 12.188 4.234 4.537 7.817 9.542 10.817 14.933 0.564 1.061 1.194 1.942 1.758 2.964 1.125 2.031 2.591 3.828 4.394 5.327 1.201 0.957 2.301 2.137 3.348 3.293 6.972 7.649 12.37 16.303 16.308 25.859 1.575 3.781 2.843 7.65 3.403 11.693 0.339 2.816 0.995 5.564 2.417 8.072 3.185 5.516 5.475 11.501 7.687 17.459 1.315 3.633 2.775 7.267 2.964 11.201 0.028 0.532 0.31 0.919 0.493 1.428v31.404c-0.754 0.855-0.532 1.988-0.603 2.964-0.121 2.507 0.044 5.102-0.164 7.577-0.786 7.239-0.259 14.4 0.219 21.633 0.089 0.744 0.358 1.531 0.547 2.362l0.055 7.577c-0.183 0.211-0.468 0.446-0.659 0.659-0.71 1.247-1.354 2.547-2.143 3.788-2.324 3.41-5.591 5.351-9.828 5.162-2.512-0.028-5.012-0.099-7.522-0.219-2.997-0.211-4.492-1.758-4.943-4.722-0.121-1.061-0.14-2.117-0.109-3.129 0.522-7.829-0.531-15.451-2.032-23.059-1.125-5.739-1.819-11.559-2.307-17.403-0.682-7.724-1.207-15.448-1.922-23.171-0.339-4.048-1.048-8.041-2.581-11.859-1.163-2.848-1.925-5.783-1.703-8.893 0.089-1.797-0.435-3.492-1.261-5.108-3.487-6.673-6.631-13.511-9.552-20.479-0.935-2.283-2.252-4.455-3.897-6.371-1.011-1.201-2.061-2.397-3.074-3.571-1.648-1.911-3.105-4.005-4.228-6.259-2.436-4.76-5.319-9.22-8.729-13.343-4.797-5.811-9.262-11.848-13.946-17.734-1.947-2.433-4.123-4.798-6.259-7.084-1.8-1.914-3.412-3.891-4.613-6.259-1.764-3.558-3.991-6.882-6.315-10.104-9.37-13.155-20.34-24.683-33.383-34.315-3.151-2.283-6.595-4.066-10.158-5.491-2.927-1.201-5.861-2.326-8.784-3.293-4.459-1.499-8.392-3.796-11.803-7.028-3.487-3.335-7.441-6.138-11.639-8.455-9.219-5.206-17.848-11.231-26.244-17.679-1.16-0.85-2.352-1.797-3.515-2.691-2.397-1.914-5.074-3.285-7.962-4.339-16.156-5.739-32.271-11.561-48.427-17.294-3.447-1.201-6.86-2.47-10.158-4.116-4.535-2.255-9.381-3.333-14.329-4.228-3.297-0.64-6.623-1.196-9.884-1.867-1.837-0.425-3.656-0.871-5.381-1.594-2.512-1.061-5.1-1.379-7.687-1.261-3.263 0.121-6.494 0.331-9.716 0.438-2.815 0.121-5.662 0.219-8.51 0.219-7.945-0.211-15.848-0.62-23.717-1.703-5.584-0.744-11.235-1.57-16.746-2.581-5.624-1.061-11.232-1.421-16.856-1.539-6.595-0.121-13.225-0.055-19.82-0.055-7.383 0-14.498 1.186-21.359 4.116-1.723 0.744-3.547 1.343-5.272 2.087-5.584 2.433-11.462 3.907-17.459 4.887-4.647 0.744-9.298 1.499-13.946 2.255-1.947 0.317-3.963 0.451-5.874 0.768-1.837 0.425-3.673 0.845-5.436 1.539-2.848 1.061-5.684 2.094-8.455 3.293-5.173 2.212-10.312 4.536-15.484 6.861-3.41 1.54-6.802 3.172-10.213 4.777-1.612 0.744-3.27 1.312-5.108 1.428-2.324 0.121-4.546 0.716-6.643 1.813-2.287 1.129-4.615 2.364-6.861 3.678-9.633 5.546-19.275 11.057-29.317 15.704-4.197 1.943-7.939 4.579-11.31 7.799-2.884 2.74-5.844 5.396-8.729 8.127-1.201 1.157-2.3 2.404-3.348 3.678-2.283 2.772-4.678 5.439-7.303 7.799-3.335 2.922-6.182 6.193-8.729 9.828-1.464 2.031-3.164 3.907-4.777 5.819-1.051 1.308-2.154 2.536-3.238 3.842-2.136 2.548-4.307 5.118-6.371 7.743-1.387 1.837-2.772 3.724-3.897 5.71-1.762 3.112-3.344 6.244-5.108 9.388-1.8 3.22-2.676 6.69-3.238 10.323-1.125 7.015-1.82 14.139-4.668 20.807-1.125 2.591-1.759 5.355-1.648 8.236 0.121 2.548-0.473 4.974-1.484 7.303-0.862 2.136-1.788 4.273-2.91 6.259-3.599 6.3-6.024 13.072-8.236 19.93-1.426 4.537-3.057 8.924-4.558 13.343-0.64 2.094-1.198 4.232-1.648 6.371-1.125 5.441-2.099 10.891-3.183 16.363-0.028 0.211-0.081 0.391-0.109 0.603-1.988 7.343-3.978 14.78-6.038 22.127-0.596 2.104-1.327 4.181-2.417 6.093-1.575 2.772-2.492 5.715-3.129 8.784-0.268 1.308-0.507 2.692-0.878 4.007-0.903 3.335-1.316 6.728-1.316 10.213-0.028 1.837-0.424 3.721-0.659 5.6-0.211 1.426-0.547 2.884-0.547 4.339 0.028 1.499-0.144 2.86-0.603 4.284-0.211 0.744-0.379 1.631-0.603 2.417-0.339 1.35-0.568 2.699-1.097 3.897-1.426 3.069-2.587 6.259-3.183 9.552-0.183 1.308-0.733 2.34-1.484 3.348-0.682 0.85-1.436 1.492-2.526 1.758-1.723 0.425-3.308 1.299-5.108 1.372-0.668 0-1.527 0.457-1.977 0.878-1.461 1.575-3.326 1.783-5.162 1.261-3.448-0.85-6.947-1.415-10.432-1.977-2.25-0.317-4.282-1.084-5.929-2.691-0.371-0.425-0.908-0.506-1.316-0.823v-6.315c1.163-0.744 1.057-1.893 1.206-3.019 0.564-4.908 1.271-9.787 1.758-14.659 0.564-4.983 1.074-10.004 1.372-14.988 0.183-3.292 0.808-6.468 2.307-9.388 2.815-5.516 4.722-11.391 6.259-17.348 1.575-5.888 3.418-11.626 4.394-17.624 0.522-3.292 1.118-6.588 1.758-9.884 0.935-4.835 2.287-9.517 3.897-14.165 4.796-13.718 8.708-27.731 12.794-41.674 2.548-8.541 4.383-17.419 6.371-26.189 1.236-5.398 2.354-10.81 4.943-15.759 2.962-5.546 5.841-11.126 8.838-16.637 2.848-5.131 6.102-10.051 9.662-14.659 3.935-5.058 7.812-10.043 11.859-14.988 4.611-5.695 8.74-11.775 11.474-18.668 2.212-5.664 5.733-10.375 10.268-14.384 3.522-3.112 7.087-6.215 10.763-9.171 4.010-3.22 8.433-5.751 13.232-7.632 3.297-1.35 6.513-2.861 9.772-4.284 3.487-1.468 6.892-2.988 10.377-4.339 3.151-1.233 6.21-2.573 9.059-4.339 6.335-3.898 12.718-7.672 19.055-11.529 2.772-1.723 5.727-2.968 8.948-3.678 2.212-0.532 4.396-1.315 6.533-2.143 4.085-1.572 8.103-3.347 12.188-4.887 7.123-2.658 14.407-5.086 21.414-8.127 5.923-2.623 11.887-5.102 17.843-7.577 1.762-0.744 3.618-1.225 5.381-1.758 1.723-0.532 3.351-1.102 4.777-2.255 0.935-0.85 2.077-1.476 3.238-1.922 3.039-1.201 6.039-2.324 9.115-3.183 4.836-1.426 9.823-2.228 14.771-2.91 5.471-0.744 11-1.622 16.472-2.143 6.898-0.64 13.804-0.939 20.698-1.484 1.011-0.028 2.006-0.336 3.019-0.547zM492.147 263.878c0.552 0.068 1.092 0.407 1.372 0.987 0.415 0.85 0.687 1.732 0.878 2.636 0.491 2.816 0.376 5.64 0.274 8.455-0.15 3.146-0.28 6.244-0.219 9.388 0.028 4.048 1.042 7.862 3.515 11.42v-0.164c0.71 0.121 1.34 0.331 1.977 0.438 6.448 0.532 12.952 1.051 19.437 0.109 2.139-0.317 4.271-0.712 6.371-1.316 1.275-0.317 2.439-1.163 3.678-1.758 0.447-0.211 0.872-0.389 1.097-0.493 2.139 0.744 3.985 1.361 5.819 1.922 2.586 0.744 4.171 2.42 4.284 5.162 0.121 1.797 0.164 3.561 0.164 5.327 0.029 0.64-0.094 1.269-0.274 1.867-0.415 1.157-1.176 1.956-2.526 2.032-1.011 0.028-2.080 0.115-3.129 0.055-3.039-0.121-5.99-0.071-8.838 1.428-0.786 0.425-1.865 0.438-2.8 0.438-2.508-0.211-4.128 0.94-5.217 3.129-1.689 3.22-3.147 3.62-6.371 2.199-1.911-0.85-3.907-1.387-5.929-1.867-3.263-0.744-6.458-1.865-9.716-2.8-0.756 0.317-0.87 1.135-0.987 1.813-0.211 1.647-0.476 3.293-0.547 4.943-0.089 2.212-0.603 4.376-1.206 6.478-1.988 6.451-3.872 12.968-5.819 19.492-0.028 0.089-0.149 0.132-0.328 0.328-1.651-0.957-3.347-2.025-4.999-3.074-1.612-1.061-3.253-1.848-5.055-2.526-2.772-0.957-3.168-1.71-3.019-4.668 0.089-1.232 0.241-2.492 0.383-3.733 0.183-2.283 0.622-4.567 0.548-6.861-0.149-6.185 0.646-12.251 2.143-18.284 1.275-5.058 2.339-10.187 3.238-15.317 0.415-2.433 0.438-5.047 0.438-7.522 0.089-3.973 0.002-3.999 2.032-7.632 0.862-1.54 1.499-3.192 2.362-4.722 0.522-1.061 1.191-2.014 1.977-2.8 1.011-1.061 2.109-2.031 2.745-3.348 0.183-0.211 0.435-0.495 0.659-0.603 0.469-0.425 1.038-0.616 1.594-0.547zM523.826 265.142c2.997 1.061 6.007 0.438 9.003 0.438 1.575 0 3.151-0.040 4.722 0.109 2.548 0.317 3.652 1.5 4.061 4.007 0.121 0.957 0.231 1.857 0.11 2.8-0.301 2.479-0.812 4.978-1.261 7.413-0.149 0.744-0.375 1.395-0.715 2.032-0.491 0.957-1.387 1.263-2.362 0.987-0.211-0.028-0.455-0.071-0.603-0.219-3.109-2.104-6.82-2.38-10.158-3.842-1.201-0.532-2.66-0.495-4.007-0.603-0.904-0.121-1.873-0.055-3.293-0.055 0.202-1.193 0.354-1.963 0.603-2.745 0.211-0.744 0.593-1.562 0.933-2.307 1.499-3.146 1.58-3.273 0.603-6.533 0.447-1.061 1.123-1.899 2.362-1.484zM402.816 271.673c0.542-0.255 1.309-0.137 2.472 0.219 0.904 0.211 1.794 0.336 2.691 0.547 1.125 0.317 2.301 0.621 3.348 1.042 1.236 0.532 2.1 1.416 2.362 2.691 0.756 3.825 3.403 6.427 5.874 9.171 0.183 0.211 0.351 0.391 0.659 0.603 2.059 1.723 1.733 2.708-0.328 4.172-1.911 1.308-4.103 2.040-6.315 2.636-1.35 0.425-2.624 0.654-3.897 1.097-1.837 0.64-2.182 1.128-1.922 2.964 0.028 0.425 0.226 0.866 0.383 1.484-0.862 1.061-1.628 1.876-2.417 2.745-1.051 1.201-2.361 1.936-3.897 2.472-4.873 1.615-9.66 3.387-14.493 5.108-0.756 0.317-1.539 0.654-2.255 1.097-1.612 0.957-3.195 1.947-5.108 2.255-2.324 0.425-3.444 3.375-1.867 5.436 0.64 0.85 1.336 1.605 2.087 2.362 1.236 1.157 2.159 2.436 2.91 4.007 0.593 1.157 1.303 2.395 2.199 3.403 1.948 2.212 3.629 4.524 4.943 7.194 0.415 0.85 0.905 1.695 1.316 2.526 1.575 2.922 3.847 5.171 6.807 6.752 0.371 0.211 0.765 0.446 1.097 0.659 2.25 1.129 3.471 3.036 3.733 5.436 0.371 3.22 0.532 6.475 0.603 9.662 0.089 2.018-0.855 3.169-2.8 3.733-1.911 0.532-3.818 0.812-5.765 1.206-0.71 0.211-1.428 0.331-2.143 0.438-2.139 0.425-4.013 1.156-5.327 2.964-1.426-0.532-2.361-1.499-3.183-2.581-2.059-2.74-4.166-5.5-6.038-8.346-1.651-2.479-2.574-5.238-2.91-8.236-0.121-1.308-0.374-2.703-0.715-4.007-0.862-3.22-2.556-6-5.217-8.072-4.647-3.602-7.649-8.471-10.763-13.343-1.275-1.988-1.743-4.187-1.594-6.588 0.211-3.292 1.097-6.356 2.526-9.278 1.125-2.255 2.781-3.921 5.108-4.943 0.904-0.425 1.879-0.86 2.855-1.316 2.212-0.957 4.2-2.212 6.148-3.678 1.315-0.957 2.694-1.971 4.116-2.8 0.756-0.425 0.718-1.139 1.206-1.703 0.491-0.089 0.995-0.109 1.484-0.109 1.764-0.028 3.244-0.635 4.558-1.867 2.212-1.943 4.583-3.669 7.358-4.722 1.011-0.425 1.734-1.2 2.032-2.255 0.64-1.943 1.92-3.48 3.571-4.722 1.612-1.247 2.716-2.827 3.129-4.887 0-0.211 0.020-0.391 0.11-0.603 0.376-1.127 0.719-1.775 1.261-2.032zM593.772 287.924c0.268 0.532 0.508 0.743 0.547 1.152 0.71 3.558 1.392 7.164 2.032 10.763 0.183 1.061 0.144 2.1 0.055 3.183-0.121 1.723-0.813 3.192-2.087 4.394-0.491 0.425-0.939 0.837-1.428 1.261-2.436 1.914-3.69 4.452-3.952 7.522-0.121 1.764-0.348 3.561-0.274 5.327 0.089 2.255-1.002 3.453-2.91 4.284-3.263 1.426-6.672 1.82-10.158 1.372-1.876-0.211-3.27-1.287-3.571-3.348-0.121-0.744-0.337-1.409-0.603-2.417 0.491-0.957 0.828-1.977 1.539-2.691 1.201-1.201 1.191-2.563 1.152-4.061-0.028-0.425 0.006-0.84-0.055-1.261-0.211-2.283 0.635-4.051 2.581-5.327 1.464-0.957 2.858-2.045 3.459-3.842 0.121-0.211 0.351-0.555 0.603-0.768 1.837-1.157 2.473-3.005 3.183-4.887 0.522-1.35 1.26-2.661 2.087-3.788 1.537-2.136 3.444-3.972 5.546-5.546 0.668-0.425 1.389-0.851 2.255-1.316zM616.56 293.688c0.716-0.308 1.588-0.282 2.636 0 2.287 0.64 4.232 1.725 5.546 3.788 1.315 2.059 2.927 3.855 4.613 5.546 0.904 0.85 1.723 1.844 2.472 2.855 0.935 1.201 1.897 2.192 3.623 2.087 0.183 0 0.423 0.081 0.603 0.109 0.979 0.317 1.524 1.101 1.372 2.199-0.089 0.744-0.254 1.407-0.547 2.087-0.593 1.426-1.428 2.845-2.143 4.228-0.935 1.872-1.976 3.632-2.8 5.546-0.904 1.988-2.255 3.222-4.503 3.403-1.125 0.089-2.243 0.389-3.403 0.493-1.689 0.121-2.983 0.958-3.842 2.362-0.862 1.54-1.742 3.129-2.417 4.777-0.339 0.85-0.343 1.802-0.383 2.745-0.089 1.35 0.557 2.436 1.758 3.074 0.564 0.317 1.139 0.506 1.703 0.823 0.935 0.532 1.463 1.499 1.539 2.581 0.268 3.292-0.019 6.495-1.261 9.607-0.64 1.615-1.59 2.843-3.348 3.403-1.537 0.425-2.476 1.51-3.074 2.964-1.499 3.675-3.788 6.927-6.148 10.158-1.16 1.615-2.283 3.273-3.403 4.887-0.301 0.425-0.603 0.879-0.987 1.261-0.71 0.744-1.737 0.838-2.526 0.109-0.904-0.85-1.702-1.821-2.526-2.8-0.827-0.85-1.52-1.993-2.417-2.855-1.499-1.35-3.32-2.15-5.381-2.417-2.815-0.317-4.497-1.754-4.722-5.272-0.371-5.546-0.277-11.075 1.867-16.363 1.54-3.825 3.312-7.513 5.71-10.817 0.668-0.957 1.303-1.942 1.977-2.8 4.647-5.664 7.995-12.012 10.432-18.833 1.125-3.146 2.367-6.234 3.678-9.716 1.835-0.532 2.731-1.993 3.293-3.788 0.371-1.201 0.707-2.42 1.261-3.515 0.469-0.995 1.038-1.612 1.758-1.922zM429.556 302.089c1.236-0.028 2.202 0.525 2.691 1.758 0.211 0.532 0.458 0.961 0.603 1.428 0.491 1.426 1.074 2.716 2.087 3.842 1.315 1.468 1.209 3.040 0.274 4.613-0.491 0.85-1.053 1.573-1.539 2.362-2.025 3.039-2.374 6.183-0.603 9.443 1.837 3.335 1.023 6.449-0.715 9.443-0.786 1.39-2.087 2.156-3.623 2.199-1.051 0.028-2.061 0.012-3.074-0.109-1.125-0.121-2.035-0.654-2.745-1.484-1.315-1.615-2.733-3.155-3.897-4.887-0.862-1.275-1.372-2.805-1.977-4.228-0.564-1.308-1.319-2.397-2.745-2.8-1.125-0.317-2.109-0.858-2.745-1.922-0.715-1.201-1.008-2.57-0.933-3.952 0.028-0.85 0.226-1.599 0.383-2.417v-0.055c-0.121-0.211-0.155-0.389-0.274-0.493-1.315-1.872-1.341-1.891 0.493-3.238 0.64-0.425 1.104-1.207 1.484-1.922 0.564-1.129 1.286-1.792 2.636-1.867 1.499-0.121 2.716-0.728 3.238-2.417 0.64-1.872 2.283-2.699 4.116-2.964 2.287-0.211 4.576-0.221 6.861-0.328zM315.135 344.807c1.35 1.275 2.278 2.781 2.8 4.503 0.64 2.255 2.024 3.778 3.897 5.055 1.8 1.232 3.563 2.567 5.327 3.842 2.172 1.572 4.643 2.406 7.194 3.074 2.7 0.744 5.391 1.499 8.127 2.255 1.426 0.317 2.912 0.506 4.339 0.823 0.491 0.089 1.053 0.221 1.539 0.328 0.268 0.121 0.484 0.446 0.823 0.659 0 1.988-1.785 2.644-2.91 3.842 0.149 1.39 0.568 2.681 1.428 3.733 0.756 0.957 0.977 2.027 0.933 3.183 0 4.537 0.071 9.044-0.109 13.508-0.121 4.048-1.508 7.859-3.571 11.31-2.997 4.908-6.244 9.648-10.708 13.399-1.461 1.275-2.414 2.825-3.348 4.503-1.387 2.548-2.984 5.060-4.449 7.577-1.651 2.772-3.388 5.5-4.887 8.346-1.011 1.914-2.211 3.556-3.897 4.832-0.754 0.64-1.5 1.194-2.255 1.758-2.025 1.572-3.773 3.265-5.272 5.327-0.593 0.85-1.316 1.614-2.143 2.255-1.163 0.85-2.447 0.735-3.459-0.219-1.125-1.232-2.38-2.324-3.842-3.183-0.268-0.211-0.526-0.391-0.715-0.603-1.988-2.595-4.681-4.471-7.194-6.533-0.149-0.121-0.295-0.223-0.438-0.438-2.927-3.22-5.974-6.396-8.784-9.772-1.011-1.232-1.611-2.894-2.362-4.394-0.564-1.128-1.012-2.322-1.648-3.403-1.051-1.797-2.753-2.495-4.777-2.199-1.315 0.211-2.623 0.756-3.897 1.097-1.236 0.317-2.443 0.768-3.678 0.768-1.947 0.121-2.943-1.236-2.307-3.074 0.786-2.479 1.324-5.027 3.348-6.972 0.491-0.532 0.635-1.467 0.823-2.255 0.371-1.35 0.364-1.416 1.372-2.691 1.464 0.121 2.857 0.134 4.284 0.438 1.087 0.211 2.283 0.563 3.293 0.987 2.1 0.957 4.161 1.932 6.259 2.91 2.1 0.957 3.988 2.215 5.71 3.788 2.436 2.283 4.891 4.534 7.855 6.148 1.426 0.744 2.452 1.993 3.129 3.459 1.35 2.89 3.591 4.485 6.588 5.272 1.275 0.425 2.537 1.063 3.733 1.703 3.487 1.943 5.482 0.211 5.819-3.183 0.183-1.426 0-2.884 0-4.339v-3.842c2.884-0.957 4.257-3.091 5.381-5.491 1.947-4.419 4.775-8.365 7.358-12.407 1.201-1.914 2.929-3.555 4.503-5.381v-0.164c0.028-1.35-0.295-2.619-1.867-3.403-0.564-0.211-0.985-1.079-1.206-1.758-0.522-1.499-1.187-2.929-2.199-4.172-1.087-1.426-1.251-2.999-0.878-4.722 0.268-1.308 0.526-2.692 0.715-4.007 0.301-2.031-0.206-3.757-1.758-5.108-1.876-1.689-3.816-3.273-5.765-4.887-0.756-0.64-1.697-0.768-2.636-0.768-2.212 0.028-4.413 0.13-6.588 0.219-1.35 0.028-2.716-0.055-3.952-0.603-1.911-0.85-3.024-2.279-2.91-4.449 0.061-0.85 0.144-1.842 0.438-2.745 0.593-2.212 1.359-4.38 2.032-6.588 0.149-0.425 0.286-0.811 0.547-1.042 1.876-1.837 3.742-3.683 5.655-5.491 0.301-0.317 0.708-0.391 1.152-0.603zM694.469 350.956c1.612 0 3.151-0.076 4.722 0.164 2.586 0.211 4.442 1.542 5.491 4.007 1.090 2.507 1.488 5.064 1.152 7.687-0.028 0.425-0.295 0.706-0.438 1.206-0.447 0.121-0.799 0.219-1.206 0.219-1.947 0.425-1.976 0.426-2.087 2.362-0.089 1.612-0.332 1.938-1.758 1.867-1.689-0.089-3.347-0.174-4.999-0.493-1.575-0.317-2.955-0.995-3.403-2.855-0.339-1.35-1.359-1.622-2.636-1.594-1.499 0.089-2.634 0.754-3.459 1.922-2.848 4.048-4.884 8.293-3.459 13.618 2.927 1.468 6.217 1.907 9.552 1.758 2.848-0.121 5.629-0.603 8.291-1.539 2.283-0.85 4.591-1.331 7.028-1.372 2.927-0.028 5.884-0.334 8.619-1.484 0.682-0.317 1.428-0.389 2.143-0.493 0.979-0.121 1.866-0.036 2.691 0.493 0.596 0.425 1.192 0.873 1.867 1.152 0.64 0.211 1.387 0.446 2.255 0.659 0.522 2.094 2.19 2.512 4.061 2.472 1.611 0 3.184 0.040 4.722-0.109 2.059-0.317 3.892-0.015 5.655 1.097 0.268 0.211 0.593 0.169 0.933 0.383 0.593 1.232 0.407 2.625 0.328 4.007-0.121 2.283-0.023 4.619 0.987 6.752 0.149 0.425 0.136 0.733 0.164 1.261-2.139 0.211-4.251 0.284-6.315 0.603-2.025 0.425-4 0.961-5.984 1.428-0.564 1.129-0.26 2.199-0.328 3.238-0.183 3.558-0.183 7.127-0.493 10.655-0.183 3.146-1.062 6.157-2.526 9.003-1.35 2.623-3.050 4.95-5.71 6.478-1.315 0.744-2.232 1.841-3.019 3.074-0.979 1.572-2.379 2.685-3.952 3.515-1.876 0.957-3.655 1.957-5.491 2.964-2.361 1.35-4.915 1.792-7.577 1.539-1.876-0.211-3.726-0.506-5.6-0.823-2.436-0.425-4.884-0.86-7.358-1.316-0.71-0.121-1.45-0.338-2.087-0.659-1.051-0.532-1.592-1.387-1.703-2.472-0.089-0.64-0.115-1.228-0.055-1.867 0.183-3.335 0.144-6.71-0.274-10.049 0-0.121 0.158-0.281 0.219-0.493v0.219c0.862-0.317 1.322 0.402 1.813 0.823 0.862 0.744 1.593 1.682 2.417 2.472 2.436 2.361 5.117 3.543 8.565 2.417 1.461-0.532 3.039-0.506 4.613-0.823 2.927-0.532 5.628-1.605 8.291-2.91 1.051-0.532 1.82-1.422 2.307-2.472 2.283-5.621 5.135-11.021 6.259-17.020 0.339-1.837 0.57-3.67 0.274-5.436-1.275-0.64-2.387-0.438-3.515-0.438-3.263 0-6.495 0.081-9.716 0.109-2.958 0-5.808-0.551-8.619-1.594-1.163-0.425-2.369-0.621-3.571-1.042-1.575-0.532-3.263-0.979-4.722-1.594-1.499-0.64-2.945-1.042-4.558-1.042-3.973 0.061-7.995 0.115-11.971 0.055-1.762 0-3.509-0.223-5.272-0.438-2.548-0.317-4.978-0.5-7.303 0.878-0.371 0.211-0.796 0.331-1.206 0.438-1.575 0.532-1.884 0.389-2.745-1.097-0.415-0.744-0.867-1.16-1.539-1.428-1.051-0.532-2.156-0.837-3.238-1.261-1.16-0.425-1.734-1.326-2.032-2.526-0.447-1.723-0.155-3.347 0.603-4.887 0.339-0.64 1.097-1.325 1.813-1.594 3.109-1.201 6.325-2.008 9.772-1.594 3.222 0.425 6.458 0.55 9.716 0.659 0.268 0 0.575-0.221 0.987-0.328 0.028-1.061 0.081-2.063 0.109-3.074 0.121-3.292 0.782-6.43 2.472-9.278 1.087-1.797 2.378-3.415 4.061-4.722 1.612-1.275 3.242-2.653 4.668-4.116 3.41-3.558 7.425-5.357 12.298-5.327zM268.685 352.492c1.464 0.744 2.932 1.443 4.394 2.199 1.837 0.855 3.685 1.471 5.71 1.428 1.387-0.028 2.7 0.397 3.897 1.097 2.661 1.615 5.393 3.253 8.017 4.943 1.689 1.083 2.996 2.517 4.007 4.284 0.979 1.615 2.007 3.22 3.842 4.007 0.371 0.211 0.804 0.743 0.878 1.152 0.268 1.499 1.418 2.038 2.581 2.526 0.935 0.425 1.992 0.67 2.964 0.987 1.35 0.425 2.414 1.107 3.238 2.307 0.682 1.061 1.499 1.932 2.362 2.91 1.387 1.615 2.222 3.518 2.526 5.655 0.183 1.468-0.167 2.558-1.372 3.571-1.988 1.647-3.892 3.413-5.655 5.327-0.935 0.957-1.555 2.247-2.307 3.403-0.64 0.957-1.175 1.939-1.922 2.8-1.011 1.232-2.34 1.63-3.952 1.097-2.059-0.744-3.375-1.919-3.897-4.061-0.183-0.85-0.379-1.865-0.493-2.8-0.061-0.85-0.026-1.611-0.055-2.472-0.183-5.77-2.778-10.229-7.577-13.343-2.772-1.872-5.714-3.467-8.674-5.055-2.7-1.426-5.447-2.66-8.181-4.007-0.827-0.425-1.611-0.837-2.362-1.261l-0.055-0.055c-0.415-2.583-0.7-5.047-1.152-7.522-0.415-2.507 0.197-4.804 1.261-6.972 0.371-0.85 0.967-1.622 1.977-2.143zM488.577 371.491c2.287-0.121 4.576-0.006 6.861 0.055 2.7 0.089 5.519 0.436 8.181 0.328 7.045-0.121 13.968 0.956 20.862 2.255 6.259 1.232 12.499 2.351 18.833 3.019 8.135 0.744 16.143 2.212 23.94 4.722 0.593 0.211 1.231 0.336 1.867 0.547 10.384 2.059 19.943 6.035 28.827 11.693 4.836 3.112 9.714 6.203 14.659 9.171 3.522 2.059 7.162 3.94 10.763 5.819 2.14 1.129 4.304 2.078 6.478 3.129 3.86 1.914 7.519 4.169 10.817 6.972 7.42 6.374 14.824 12.907 21.084 20.589 1.54 1.943 3.039 3.932 4.613 5.874 1.876 2.255 3.668 4.564 5.655 6.697 2.173 2.284 4.209 4.7 5.819 7.358 1.163 1.914 2.578 3.5 4.228 4.999 5.286 4.803 9.111 10.581 11.584 17.294 0.211 0.532 0.519 1.215 0.548 1.813 0.491 3.187 1.868 5.903 3.403 8.674 1.275 2.255 2.305 4.735 3.238 7.139 2.475 6.076 2.587 12.442 2.362 18.887-0.149 3.22-0.379 6.402-0.493 9.662-0.089 3.675-0.141 7.348 0.603 10.982 0.15 0.744 0.043 1.452 0.164 2.199 0.786 4.239-2.239 7.922-6.588 8.674-2.586 0.425-5.229 0.663-7.855 0.768-1.988 0.121-2.492-0.339-3.129-2.307-0.028-0.089-0.021-0.166-0.109-0.274-1.464-2.583-1.975-5.423-2.199-8.346-0.028-0.744-0.139-1.484-0.328-2.199-1.575-4.76-2.828-9.663-4.777-14.274-1.689-3.973-2.715-8.032-3.238-12.298-0.149-1.35-0.452-2.733-0.823-4.007-1.35-4.166-2.708-8.365-4.284-12.407-0.862-2.255-2.149-4.383-3.459-6.371-1.987-3.039-4.159-5.996-6.371-8.948-2.586-3.527-5.875-6.495-8.948-9.607-1.911-1.943-3.655-4.009-5.491-6.038-1.426-1.499-2.843-3.040-4.228-4.613-1.611-1.797-3.263-3.556-4.722-5.436-7.084-8.999-14.949-17.231-24.433-23.828-1.689-1.157-3.472-2.255-5.272-3.293-2.733-1.572-5.464-3.108-8.127-4.722-3.151-1.943-6.197-3.901-9.607-5.327-1.315-0.532-2.591-1.359-3.788-2.143-5.435-3.558-11.508-5.56-17.843-6.643-4.048-0.64-8.048-0.944-12.133-1.261-6.898-0.532-13.681-1.484-20.315-3.515-5.886-1.837-11.863-3.469-17.898-4.777-3.861-0.85-7.812-1.379-11.748-1.648-9.408-0.64-18.812-1.033-28.22-0.715-9.858 0.425-19.684 0.962-29.317 3.074-1.426 0.317-2.914 0.396-4.339 0.715-1.236 0.211-2.461 0.563-3.623 0.987-6.147 2.401-12.217 4.934-18.062 7.962-4.274 2.212-8.332 4.796-11.971 8.017-0.301 0.317-0.648 0.555-0.987 0.768-7.347 5.248-13.666 11.62-20.149 17.843-5.584 5.398-9.622 11.805-12.849 18.778-0.339 0.744-0.585 1.654-0.659 2.472-0.268 2.772-1.316 5.215-2.964 7.468-0.301 0.425-0.593 0.837-0.933 1.261-3.039 3.675-4.996 7.894-6.643 12.352-1.163 3.146-2.509 6.215-4.007 9.171-2.172 4.271-4.177 8.656-5.491 13.343-0.371 1.378-0.923 2.771-1.484 4.116-3.222 7.947-5.724 16.147-7.522 24.543-1.125 5.206-1.596 10.524-2.307 15.813-0.64 4.567-0.58 9.168-0.547 13.782v4.558c-2.311 1.697-4.641 2.472-7.249 2.472-2.361-0.028-4.776 0.047-7.139 0.547-1.236 0.211-2.535 0.236-3.733 0.055-1.689-0.121-3.347-0.446-4.999-0.659-0.71-0.122-1.415-0.338-2.087-0.659-1.163-0.532-1.923-1.286-1.813-2.636 0.061-0.85-0.006-1.64 0.055-2.472 0.522-5.844 1.103-11.685 1.594-17.571 0.149-1.54 0.476-3.078 1.152-4.503 2.772-5.811 4.146-12.022 5.272-18.284 0.862-5.131 2.034-10.239 3.571-15.262 3.559-11.579 7.107-23.181 9.171-35.139 0.491-2.922 1.527-5.668 2.8-8.291 3.672-7.683 8.145-14.834 13.618-21.359 0.979-1.128 1.849-2.332 2.745-3.459 2.1-2.658 3.907-5.475 5.108-8.619 1.387-3.602 3.703-6.527 6.588-9.003 1.499-1.308 2.964-2.609 4.503-3.842 2.1-1.723 4.445-3.2 6.916-4.284 4.423-1.943 8.847-3.823 13.232-5.765 1.236-0.532 2.408-1.207 3.571-1.922 3.41-2.031 6.748-4.218 10.158-6.203 1.275-0.744 2.622-1.44 4.007-1.813 2.324-0.64 4.543-1.443 6.752-2.526 0.028-0.028 0.155-0.081 0.274-0.109 8.846-3.22 17.477-6.963 26.134-10.708 2.283-0.957 4.597-1.82 6.807-3.019 3.711-1.988 7.902-2.681 12.024-3.403 8.584-1.572 17.203-2.317 25.859-2.91zM757.279 446.105c2.059-0.532 3.599 0.331 4.007 2.417 0.827 4.048 1.036 7.98-1.922 11.584-2.848 3.487-6.127 6.276-10.213 8.072-1.651 0.744-2.754 1.706-3.238 3.459-0.211 0.744-0.799 1.499-1.206 2.255-1.35 2.212-1.652 4.642-1.428 7.194 0.028 0.317 0.109 0.67 0.109 0.987 0.786 4.344 1.182 8.64 0.878 13.068-0.089 0.532 0 1.111 0 1.594 0 2.094 0.724 3.863 2.032 5.436 1.275 1.54 2.5 3.034 3.623 4.722 2.283 3.675 5.348 3.405 8.236 1.152 0.904-0.744 1.72-1.467 2.581-2.255 2.7-2.361 5.814-2.647 9.115-1.594 1.464 0.532 2.809 1.402 4.116 2.199 1.125 0.744 1.398 1.372 0.768 2.691-1.087 2.361-2.258 4.666-3.571 6.916-0.827 1.454-1.697 2.891-1.922 4.613-0.371 2.212-1.643 3.778-3.403 5.055-2.436 1.764-5.126 2.886-8.127 3.183-2.1 0.211-4.038 0.743-5.874 1.867-1.876 1.157-3.708 1.14-5.655 0.328-2.212-0.957-4.506-1.842-6.752-2.745-2.173-0.85-3.973-2.268-5.436-4.061-1.464-1.764-2.896-3.599-4.284-5.436-0.979-1.275-1.703-2.721-1.703-4.339-0.268-6.185-1.81-12.12-2.745-18.228-0.211-1.647-0.345-3.315-0.493-4.558h-0.055c0.339-8.695 3.095-15.978 8.455-22.237 1.426-1.647 3.016-3.232 4.668-4.668 1.537-1.382 2.772-3.106 4.722-4.007 0.268-0.121 0.432-0.555 0.547-0.768 1.275-2.059 3.033-3.767 4.832-5.381 0.522-0.425 1.145-0.953 1.484-1.539 1.499-2.361 3.948-3.76 5.71-5.819 0.522-0.532 1.354-0.984 2.143-1.152zM274.782 464.281c1.315-0.317 2.484-0.055 3.571 0.823 1.947 1.572 4.229 2.585 6.478 3.678 1.764 0.85 3.547 1.821 5.272 2.8 2.733 1.615 3.872 4.023 3.459 7.139-0.183 1.351-0.442 2.732-0.823 4.007-0.447 1.54-0.569 2.828 0.823 3.952 1.125 0.957 1.135 2.129 0.603 3.403-0.491 1.275-0.857 2.529-0.823 3.952 0.028 1.083-0.988 1.908-1.922 1.428-3.297-1.54-6.747-0.985-10.158-0.878-1.236 0.028-2.551 0.035-3.788-0.055-0.415 0-0.785-0.219-1.042-0.219-0.862-1.061-0.596-2.121-0.715-3.129-0.268-2.136-0.788-4.062-2.255-5.71-1.125-1.308-2.435-2.215-4.007-2.855-8.921-3.602-20.42 0.644-25.256 8.291-1.35 2.104-2.872 4.096-4.449 6.038-2.7 3.263-4.319 6.925-4.394 11.201 0 1.872-0.127 3.729-0.274 5.6-0.061 1.201 0.325 1.92 1.372 2.526 4.347 2.772 9.143 3.935 14.274 4.007 0.862 0 1.667-0.028 2.526 0 4.161 0.211 6.141 3.924 4.116 7.632-1.236 2.255-2.891 4.039-5.217 5.272-2.436 1.309-2.404 1.339-3.678 3.623-1.236 0.532-2.604 0.435-3.952 0.219-2.475-0.425-4.956-0.715-7.468-1.097-0.903-0.211-1.794-0.451-2.691-0.768-2.475-0.744-4.956-1.586-7.468-2.417-0.491-0.122-0.995-0.281-1.484-0.493-1.764-0.64-2.979-1.986-3.238-3.897-0.183-1.54-0.782-2.703-2.087-3.678-1.575-1.157-1.813-3.011-1.813-4.777 0.028-3.452 0.307-6.933 0.493-10.377 0.028-0.744 0.254-1.659 0.547-2.417 0.935-2.401 1.159-4.806 0.823-7.358-0.149-1.061-0.061-2.078 0-3.129 0.028-0.532 0.254-0.984 0.547-1.867v-0.164c0.668 1.061 0.98 1.495 1.539 2.255 0.756-3.263 1.765-6.207 2.143-9.278 0.149-0.957 0.323-1.897 0.547-2.8 0.491-1.943 1.679-3.246 3.515-4.116 5.211-2.507 10.1-5.531 14.933-8.674 1.499-0.957 3.039-1.905 4.613-2.691 2.212-1.157 4.607-1.884 7.194-2.032 2.962-0.121 5.775-0.754 8.51-1.922 1.723-0.744 3.543-1.057 5.491-0.823 1.876 0.211 3.724 0.11 5.6-0.219zM799.281 464.554c0.526 0.092 0.98 0.407 1.372 1.042 0.904 1.54 1.894 2.967 3.019 4.394 1.201 1.54 1.15 3.767 1.261 5.71 0.028 0.425-0.41 1.071-0.823 1.206-1.011 0.425-2.115 0.829-3.238 1.042-0.668 0.211-1.445 0.109-2.199 0.109-2.1-0.121-3.879 0.667-5.491 1.867-0.786 0.532-1.484 1.234-2.307 1.648-1.236 0.64-2.511 1.16-3.788 1.428-3.823 0.64-7.632 1.172-11.529 0.715-2.548-0.317-4.425 0.782-6.148 2.472-2.368 2.399-2.851 3.207-3.403 6.861-0.593 0.121-1.286 0.444-1.922 0.547-0.786 0.121-1.387-0.561-1.539-1.261-0.089-0.425-0.109-0.824-0.109-1.206 0.121-3.41-0.627-6.664-1.372-9.884-0.339-1.54-0.634-3.137-0.603-4.668 0.028-2.433 1.169-3.465 3.571-3.348 2.884 0.121 5.615-0.409 8.236-1.484 2.997-1.275 6.076-1.415 9.224-1.648 2.733-0.211 5.341-0.827 7.855-1.922 1.54-0.64 3.185-0.976 4.722-1.594 1.163-0.425 2.262-1.039 3.348-1.594 0.732-0.371 1.342-0.532 1.867-0.438zM504.832 474.161c2.212 0 4.378 0.089 6.588 0 1.612 0 3.078 0.193 4.503 1.042 1.689 0.958 3.451 1.821 5.327 2.8 0 0.744-0.066 1.528 0.055 2.199 0.028 0.64 0.112 1.322 0.438 1.813 1.315 1.914 1.254 4.084 1.594 6.371-3.222 2.996-5.085 6.903-6.697 10.872-0.711 1.723-1.785 3.332-2.91 4.832-4.798 6.374-8.745 13.244-12.079 20.479-0.979 2.212-2.186 4.266-3.348 6.371-3.487 6.228-8.17 11.418-14.055 15.428-3.186 2.176-6.514 4.232-9.662 6.371-3.599 2.433-7.147 4.786-10.599 7.303-3.86 2.816-7.078 6.24-9.662 10.213-1.537 2.325-3.389 4.277-5.491 6.038-2.172 1.797-4.434 3.476-6.643 5.272-3.897 3.146-7.87 6.238-11.693 9.497-2.623 2.212-4.966 4.761-7.028 7.577-2.25 3.069-3.954 6.363-4.668 10.158-0.564 3.069-1.561 6.063-2.8 8.948-1.087 2.401-1.988 4.844-3.074 7.249-3.748 8.471-5.693 17.41-7.194 26.517-0.64 4.048-0.922 8.152-0.547 12.243 0.268 3.112 0.939 6.152 1.428 9.224 0.371 2.479 0.806 4.992 0.987 7.468 0.301 3.487 1.136 6.848 2.636 9.994 0.593 1.309 1.303 2.621 1.977 3.897 2.025 4.121 4.254 8.139 6.203 12.298 2.212 4.643 4.856 8.991 8.455 12.74 2.172 2.176 3.812 4.727 5.162 7.468 0.786 1.689 1.969 3.202 3.129 4.668 2.436 3.112 5.012 6.153 7.522 9.224 0.786 0.957 1.538 1.988 2.362 2.964 2.811 3.41 6.287 5.783 10.599 6.861 0.827 0.211 1.596 0.391 2.417 0.603 4.31 1.083 8.296 2.929 11.971 5.436 4.197 2.922 8.471 5.74 12.517 8.893 2.815 2.136 5.378 4.697 7.855 7.249 6.035 6.228 11.918 12.572 17.953 18.833 2.815 2.965 5.752 5.773 8.674 8.619 1.426 1.382 2.875 2.725 4.339 4.116 4.423 4.048 8.023 8.729 10.982 13.946 1.911 3.369 4.033 6.635 6.093 9.939 1.947 3.069 3.665 6.307 5.055 9.716 2.848 6.819 5.732 13.693 8.729 20.479 4.123 9.402 7.030 19.235 8.455 29.428 0.371 2.401 0.599 4.759 0.715 7.194 0.211 8.064 0.295 16.044-0.274 24.104-0.301 4.271-0.556 8.633-0.823 12.904-0.089 1.062-0.199 2.022-0.328 3.074-0.339 2.401-1.397 4.402-3.459 5.71h-6.861c-1.8-0.85-3.669-0.663-5.546-0.768-3.784-0.121-4.016-0.381-3.678-4.228 0.211-2.212 0.245-4.421 0.274-6.588 0.089-2.731-0.015-5.441 0.164-8.181 0.564-7.426 0.256-14.855-0.768-22.237-0.593-4.76-1.736-9.399-2.636-14.165-0.211-1.308-0.577-2.625-0.768-4.007-0.71-4.803-2.343-9.325-4.668-13.563-7.687-14.168-15.914-27.991-25.694-40.851-8.433-11.095-18.66-20.345-29.978-28.439-7.911-5.664-16.215-10.574-24.763-15.262-7.911-4.314-15.848-8.55-23.717-12.904-2.025-1.083-4.019-2.27-5.929-3.515-1.537-0.957-2.671-2.273-3.459-3.952-0.564-1.201-1.387-2.339-2.255-3.348-1.275-1.426-2.274-3.039-2.8-4.832-0.935-3.069-2.763-5.404-5.162-7.358-3.073-2.401-5.705-5.223-8.181-8.291-1.575-1.943-3.147-3.796-4.832-5.71-5.435-6.076-9.403-13.051-11.915-20.807-1.947-5.962-3.725-11.989-4.777-18.172-0.447-2.361-0.687-4.78-0.878-7.139-0.415-5.887-0.796-11.685-1.206-17.571-0.211-3.781 0.211-7.514 0.715-11.255 1.125-8.926 2.498-17.764 3.623-26.684 1.426-11.692 4.681-22.948 8.729-33.93 1.051-2.996 2.696-5.699 4.832-8.017 3.41-3.602 6.451-7.426 9.224-11.474 4.985-7.161 10.991-13.412 17.734-18.999 9.596-7.906 19.167-15.856 29.098-23.389 11.396-8.658 21.176-18.985 29.759-30.418 4.798-6.374 9.514-12.791 14.274-19.163 1.051-1.426 2.115-2.826 3.238-4.172 1.201-1.468 2.335-2.955 2.636-4.943 0.183-1.39 1.247-2.103 2.636-2.255 0.64-0.089 1.266-0.055 1.867-0.055zM574.612 490.743c0.98-0.211 2.004-0.048 3.129 0.493 0.268 0.121 0.614 0.229 0.878 0.547 2.059 1.872 4.643 2.623 7.194 3.571 0.491 0.211 1.031 0.336 1.484 0.548 2.7 1.201 3.484 4.103 1.758 6.533-0.491 0.64-1.174 1.173-1.703 1.813-0.979 1.083-1.019 1.857-0.219 3.129 0.183 0.317 0.45 0.67 0.715 0.987 1.35 1.572 1.227 3.232 0.438 4.999-0.268 0.532-0.548 1.103-0.933 1.594-1.612 2.325-3.108 4.732-4.832 6.972-1.465 1.914-3.039 3.745-4.722 5.436-3.41 3.41-6.91 6.655-10.432 9.994-4.498 4.239-8.574 8.884-12.133 13.946-10.721 14.919-19.823 30.741-27.511 47.384-3.297 7.119-5.031 14.681-5.819 22.401-0.904 8.764-0.443 17.546-0.164 26.353 0.339 9.787 3.403 18.839 6.588 27.947 1.087 3.146 2.988 5.962 5.162 8.51 1.611 1.797 3.235 3.612 4.999 5.217 6.186 5.664 12.797 10.767 20.371 14.439 4.459 2.176 8.55 4.906 12.298 8.127 3.599 3.069 7.465 5.729 11.474 8.236 4.274 2.658 8.524 5.297 12.684 8.072 5.886 3.825 11.323 8.235 16.308 13.178 5.211 5.131 10.593 10.159 16.255 14.771 4.121 3.369 7.496 7.337 10.158 11.915 4.010 6.862 8.015 13.731 12.024 20.589 3.039 5.323 4.872 11.060 6.259 17.020 1.201 5.398 2.171 10.819 3.293 16.255 1.275 6.333 2.682 12.718 3.842 19.055 0.522 2.664 0.75 5.372 0.823 8.072 0.149 4.091 0.055 8.157 0.055 12.243h0.109c-0.149 4.495-0.345 8.971-0.493 13.508-0.121 3.292-1.082 6.345-2.581 9.224-0.491 0.85-0.889 1.682-1.372 2.472-1.575 2.623-2.723 5.423-3.623 8.346-0.64 2.1-1.359 4.159-2.032 6.259-0.522 1.615-1.518 2.293-3.238 2.255-3.784-0.089-7.547 0-11.255 0-0.786 0-1.5 0.012-2.255-0.11-1.499-0.317-2.357-1.24-2.472-2.855-0.089-1.201-0.104-2.479 0.164-3.678 0.979-5.769 1.511-11.614 1.922-17.459 0.149-2.283 0.121-4.635 0-6.916-0.522-7.426-1.025-14.813-1.703-22.237-0.593-6.791-1.988-13.412-4.722-19.711-3.335-7.683-6.512-15.374-9.772-23.059-2.25-5.398-5.396-10.126-9.443-14.329-2.733-2.89-5.398-5.85-7.799-9.003-4.459-5.962-9.815-10.884-15.923-15.043-4.798-3.292-9.75-6.52-14.659-9.662-2.287-1.468-4.737-2.657-7.139-3.897-11.918-6.11-23.825-12.12-35.743-18.228-3.109-1.54-5.996-3.543-8.619-5.71-5.398-4.344-10.556-8.914-15.428-13.782-4.161-4.196-7.746-8.751-10.708-13.891-1.465-2.623-3.039-5.282-4.613-7.908-3.151-5.206-5.727-10.651-8.236-16.199-3.151-6.82-6.455-13.606-9.828-20.315-1.689-3.379-2.716-6.804-2.417-10.543 0.447-5.516 0.81-11.016 1.372-16.527 0.183-1.943 0.638-3.927 1.316-5.765 2.927-8.095 6.032-16.097 10.268-23.553 2.475-4.419 5.356-8.499 8.729-12.243 1.275-1.39 2.55-2.805 3.788-4.228 3.599-3.973 6.836-8.223 9.607-12.794 5.247-8.585 11.506-16.402 18.062-24.050 14.317-16.679 28.529-33.41 42.771-50.129 1.876-2.212 3.711-4.556 5.546-6.807 0.808-0.972 1.709-1.544 2.691-1.758zM793.352 495.518c1.821 0.081 3.671 0.463 5.491 1.097 0.028 0.425 0.164 0.961 0.164 1.428 0.211 6.937 0.221 13.82-1.261 20.643-0.447 2.018-0.468 4.103-0.659 6.203-0.028 0.425-0.104 0.733-0.164 1.261-1.236 0.425-2.339-0.174-3.348-0.493-1.911-0.532-3.635-0.463-5.436 0.493-0.71 0.425-1.538 0.668-2.362 0.878-0.301 0.089-0.575-0.136-0.987-0.164-0.71-1.382-0.323-2.836-0.164-4.228 0.211-2.283 0.56-4.567 0.823-6.861 0.211-2.176 0.487-4.355 0.603-6.533 0.183-2.401 0.306-4.803 0.274-7.194-0.028-2.018 0.14-3.948 1.594-5.819v-0.055c1.8-0.532 3.612-0.74 5.436-0.659zM276.648 516.328c1.575 0.425 2.952 0.758 4.339 1.097 0.415 0.089 0.93 0.174 1.152 0.493 0.935 1.128 2.090 1.555 3.515 1.703 1.764 0.121 2.827 1.298 3.348 2.91 1.499 4.345-2.178 10.263-6.038 10.377-2.475 0.089-4.995 0.54-7.468 0.219-4.347-0.317-6.056-3.027-4.668-7.194 0.903-2.816 2.761-4.887 5.162-6.533 0.339-0.211 0.64-0.396 1.042-0.715-0.144-0.827-0.244-1.548-0.383-2.362z"></path>
    </svg>