<svg xmlns="http://www.w3.org/2000/svg" viewBox="47.661 96.025 921.993 927.975">
    <path fill="#000000" d="M461.596 96.025c-1.557 0.858-3.017 1.663-4.494 2.446-0.995 0.41-1.974 0.854-2.843 1.306-1.782 0.702-3.448 1.495-5.062 2.159-3.229 1.287-6.141 2.407-8.417 3.522l5.117-3.522c-3.104 2.113-5.74 3.512-8.473 5.005l3.866-0.284c-3.353 1.49-6.020 2.895-6.311 2.275-2.768 2.734 3.78 0.999-2.105 5.8-2.316 0.825-5.444 2.784-8.303 4.437-1.447 0.787-2.874 1.434-4.036 1.934-0.62 0.187-1.081 0.412-1.537 0.454-0.278 0-0.477-0.1-0.68-0.34 0.187-0.029 1.123-0.503 1.707-0.795 0.663-0.351 1.212-0.706 1.707-0.909 0.87-0.495 1.376-0.833 1.707-1.079 0.541-0.541 0.182-0.703-0.284-0.738-0.912-0.216-2.225-0.425 3.411-3.696-2.113 1.405-4.738 2.851-8.133 4.379-0.581 0.029 0.265-0.715 1.079-1.249-0.912 0.348-2.296 0.933-2.503 0.966-0.125-0.029-0.135-0.029-0.227 0-0.125-0.029-0.17 0.026-0.17 0.057-0.278 0.063-1.144 0.187-1.479 0.34-0.952 0.278-1.562 0.651-2.389 1.022-1.614 0.744-3.89 1.582-10.351 1.707 1.289-0.818-0.767-1.31-3.014-1.594 1.437 0.577-1.379 1.874-5.573 2.616-9.728-0.659-10.544 0.909-15.637 0.909l5.8 0.284c-0.906 0.584-2.581 0.929-4.778 1.136-2.28 0.154-5.203 0.288-8.644 0.511-0.249 0.063-0.617 0.154-0.909 0.34-0.216-0.154 0.132-0.464 0.795-0.795-2.526 0.952-3.754 1.322-5.744 1.821-1.906 0.312-3.899 0.666-5.971 1.079-4.058 0.744-8.369 1.709-12.51 3.696-4.888 0.744-1.079-1.963-5.346-1.136-4.139 1.988-7.042 2.762-9.609 3.297-1.28 0.278-2.43 0.448-3.752 0.738-0.666 0.125-1.303 0.31-2.048 0.454-0.387 0.125-0.766 0.158-1.136 0.284-0.702 0.187-1.346 0.431-2.048 0.622-0.666 0.41-1.36 0.841-2.105 1.249-0.417 0.216-0.911 0.564-1.363 0.852-0.957 0.62-1.938 1.388-3.014 2.217 3.852-0.541 4.163-1.161-2.503 4.721l10.007-6.88 9.098-3.522-4.036 2.217c-1.536 0.744-2.259 1.238-4.664 2.275-1.821 1.365-2.449 2.116-3.522 3.070 1.244-0.787 2.57-1.675 3.809-2.503 1.329-0.495 2.623-1.024 3.866-1.479 1.162-0.456 2.188-0.936 3.184-1.306 2.071-0.87 3.936-1.503 5.346-1.878-5.551 3.191-5.127 2.623-1.934 2.957-1.739 0.029-3.376 0.345-4.948 0.738-0.787 0.187-1.644 0.503-2.389 0.795l-2.787 1.079c-2.191 1.614-4.388 3.209-6.709 4.948-2.191 1.575-4.559 3.033-7.337 4.15l-1.764-3.411c-9.773 4.473-17.058 10.962-26.045 17.174-2.901 1.575-7.34 3.721-11.771 5.46l5.857-1.934c-1.695 2.442-10.625 5.082-15.921 8.19-0.029-1.405-3.692-0.192-6.425 0.057 0.62 0.783-12.529 5.665-13.195 8.814l-2.275 0.68-2.048 1.479-1.537 0.966-2.957 1.878c-11.554 10.063-10.052 14.753-20.98 24.564 2.234-4.056-3.247-0.071 3.127-7.621-3.516 3.395-6.833 6.233-6.254 6.936-0.577 0.278-1.392 1.008-2.217 1.878-0.912 1.033-2.028 2.329-3.184 3.696-1.037 1.906-2.207 4.009-3.241 5.914-0.995 1.653-1.952 3.11-2.9 3.979-0.702 2.031 0.078 3.335-2.957 7.848-0.577 0.387-0.622-0.34-0.622-0.34 0.577 0.348-3.962 7.666-0.113 4.437-2.609 2.316-5.168 5.392-7.735 8.871-1.287 1.653-2.512 3.501-3.752 5.403-1.162 1.739-2.304 3.508-3.468 5.29-1.988 1.779-4.039 3.625-6.027 5.403-2.113 1.782-4.209 3.607-6.198 5.346-4.061 3.353-7.979 6.119-11.374 7.735-4.348 4.056-9.074 8.506-13.422 12.566-2.113 6.003-4.073 11.501-5.687 16.265-0.154-0.744-0.578-0.271 0.17-1.934-5.758 12.173 0.643 8.989-5.857 22.861-4.681 6.583 1.66-7.959-0.738-3.696-1.365 0.154-2.342 1.573-3.297 3.809-0.452 1.119-0.921 2.461-1.421 3.866-0.351 1.287-1.040 3.355-1.079 3.809-0.125 0.348-0.863 1.48-1.651 2.56l-2.217 3.297c-1.536 2.067-3.225 3.955-5.005 5.403l1.306-2.159c-5.838 5.423-10.101 16.408-17.968 26.555 0 0-0.039-0.743-0.567-0.454-0.187 0.666-0.684 1.767-1.594 3.297-0.456 2.442-1.015 5.236-1.594 8.303-0.577 2.768-1.247 5.732-1.991 8.757-1.49 6.045-3.156 12.332-4.608 17.798-0.414-4.143 0.84-5.581-1.479-3.923-1.49 5.378 3.047-0.676 0.113 10.007-0.87 1.411-1.77 3.112-3.014 5.517-1.119 3.312-2.192 5.887-3.354 6.425l0.966-6.993 1.306-3.979c-0.387 0.495-0.861 0.899-1.193 1.479-0.312 0.495-0.569 1.156-1.022 2.275-0.125 0.787-0.28 1.505-0.454 2.333l-0.34 1.991c-0.125 1.322-0.108 2.656-0.17 3.979-0.125 2.652-0.257 5.225-0.795 7.337l-0.909-0.909c-1.988 15.448 0.374 16.648-2.048 32.299-0.029 0.187-0.164 0.506-0.227 0.795 0.187-0.312 0.419-0.535 0.622-0.738 0.154-0.154 0.337-0.269 0.511-0.567 0.029 0.387 0.026 0.514 0.057 0.68 0 8.529-3.324 6.673-3.696 15.864l-3.241 2.105c-0.952 6.087-2.594 21.705-5.29 32.469 0.125-6.461 2.059-19.392 3.014-27.464-1.020 3.946-2.029 10.063-3.014 15.75 0.387 7.913-1.796 17.508-5.233 29.228-1.365-1.119-3.018 1.713-4.721 6.311-0.87 2.28-1.722 5.066-2.673 7.962-1.037 3.274-2.092 6.71-3.127 10.063 0.154 1.198 0.377 2.425 0.567 3.58 0.063 0.83 0.158 1.598 0.284 2.389 0.154 1.49 0.406 3.027 0.511 4.437 0.154 2.734 0.087 4.996-0.284 6.652 1.405 5.133 2.531 10.377 3.522 15.637 0.456 2.652 0.924 5.323 1.421 8.017 0.417 2.858 0.854 5.649 1.306 8.587 1.782 5.546 3.596 11.223 5.46 17.060 1.864 5.668 3.85 11.511 6.084 17.514 0.663-9.731 2.587 6.857 5.857 4.036 0.957 2.483 1.589 4.189 2.048 5.346 0.125 0.87 0.262 2.058 0.17 2.217v0.057l0.397 17.968c-0.495 4.348-1.775-5.423-2.56-4.721 1.739 12.715-0.799 5.589-0.511 14.16 1.162-1.943 2.693 4.1 3.354 11.43l0.227-10.465c2.359 8.363 2.184 11.83 2.105 16.265 0.312 4.926 0.154 8.459 3.638 17.571l-2.616-5.233c1.198 3.478 2.754 9.361 4.494 15.693 0.952 3.187 1.878 6.479 2.787 9.666 0.541 1.536 1.081 3.115 1.537 4.608 0.62 1.657 1.208 3.228 1.707 4.721 0.709 1.536 0.879 1.757 1.249 2.503 0.417 0.62 0.751 1.17 1.079 1.707 0.702 1.119 1.502 2.099 2.159 2.843 0.154 1.695-0.057 4.083-1.878 0.397 2.28 6.004 4.99 12.338 7.848 18.594 2.983 6.461 6.013 12.953 8.871 19.165 1.614 2.234 3.186 4.353 4.721 6.425 1.322 1.898 2.623 3.747 3.866 5.573 2.484 3.638 4.614 7.092 6.311 10.408l-1.707-0.909c2.526 3.312 5.565 5.008 7.678 9.893-0.541 0-1.832-0.876-0.795 0.738 0.495 0.577 1.575 1.793 2.9 3.241 0.62 0.744 1.247 1.498 1.991 2.333 0.744 0.952 1.273 1.478 2.56 3.297 0.912 0.83 1.86 1.769 2.73 2.56 0.702 0.702 1.293 1.325 1.878 1.991l-4.15-2.503c14.824 16.026 25.799 21.257 39.466 33.265-2.031 2.072 9.699 14.347 15.58 20.471l-0.511 0.057c4.473 4.263 8.71 8.054 12.85 11.657 3.973 3.765 7.85 7.292 11.657 10.692 3.895 3.435 7.627 6.799 11.601 10.237 1.903 1.782 3.869 3.522 5.857 5.346 1.037 0.912 2.037 1.832 3.070 2.787 1.158 1.073 2.367 2.177 3.522 3.297 0.456 0.216 0.939 0.581 1.479 0.909 3.435 3.561 8.998 7.991 15.58 12.793 3.353 2.359 6.873 4.884 10.521 7.451 4.018 2.815 8.215 5.671 12.396 8.53 4.805 1.329 9.635 2.701 14.274 3.979 4.139 1.244 8.141 2.512 11.828 3.752-3.316-1.405 1.115-2.051 5.175-1.306 5.175 1.943 15.122 1.848 13.592 4.206l-1.821-0.567c0.495 0.541 1.235 1.095 2.105 1.594 0.387 0.216 0.811 0.493 1.306 0.738 0.62 0.187 0.308 0.134 0.511 0.34-0.216 0.029 1.475 1.118 2.673 1.821 1.329 0.787 2.637 1.598 4.036 2.389 2.819 1.536 5.766 3.16 8.417 4.608l2.9-2.333c3.061 2.691 6.712 5.249 10.692 7.735 1.949 1.244 3.956 2.536 6.027 3.696 2.316 1.287 4.634 2.473 6.993 3.752l7.163 2.389c2.153 0.663 4.315 1.268 6.425 1.934 4.263 1.322 8.516 2.594 12.28 3.752 7.622 2.448 13.836 4.943 17.231 7.678 0.87 0.154 1.079 0.175 2.9 0.622 2.609 0.351 5.486 0.691 8.303 1.022 2.694 0.278 5.334 0.651 7.735 0.738l-0.68 1.764c5.92 1.329 10.642 2.394 15.523 3.468 2.448 0.541 4.93 1.056 7.621 1.594 3.026 0.581 6.268 1.247 9.95 1.991 2.113-0.187 6.087-0.651 10.521-1.022l-3.809 1.651c10.685-0.702 13.103-6.377 22.917-7.163l3.127 2.56 8.133-0.511 8.417-0.34 10.408-1.479 9.836-1.537c6.544-1.119 13-2.578 19.335-4.608-0.216 0.452-0.702 1.368-3.638 1.991 2.565-0.417 6.594-0.991 10.862-1.651 2.399-0.125 4.843-0.226 7.163-0.34 2.442-0.154 4.803-0.39 6.709-0.68 3.852-0.541 6.151-1.373 4.948-2.616 0.456 2.442 19.289-1.046 29.228-3.070l-1.363 2.048c8.238-3.393 8.415-4.089 20.131-6.198 2.819-0.125 2.645 1.079-1.079 1.079 9.403-0.187 6.994-2.561 18.423-3.014l-4.036 1.707c4.681-0.541 6.857-0.924 8.473-1.421s2.598-1.043 5.914-2.159c0.029-0.029 0.196-0.192 0.34-0.284 0.787-0.577 1.665-1.289 2.616-1.991 0.744-0.495 1.612-0.957 2.446-1.537 1.739-1.080 3.58-2.216 5.403-3.127 3.561-1.821 6.813-3.058 7.848-2.73 0.535-1.572 4.218-5.497 9.268-8.19 0.995 0.125-0.562 1.513-1.306 2.217 3.316-1.782 6.084-3.577 8.53-5.233 1.244-0.912 2.367-1.675 3.522-2.503l1.537-1.193 0.966-0.738c0.495-0.278 1.988-0.84 3.354-1.249 1.329-0.456 2.594-0.953 3.923-1.363 2.609-0.744 5.278-1.345 8.303-1.594 0.387 0.495 1.054 0.608 2.048 0.567-7.285 1.821-13.643 3.526-17.287 4.437-0.744 0.456-1.318 0.805-1.651 0.966-0.541 0.351-0.729 0.382-0.567 0.284 0.351 0.666 2.594-0.145 2.843 0.227 0.456 0.154 0.663 0.336 0.909 0.622 0.125 0.278-0.029 0.811 0 1.306 0 0.092 0.027 0.226 0.057 0.34 0-0.063 0.026-0.226 0.057-0.34 0.535-0.187 1.038-0.435 1.537-0.68 1.162-0.456 2.328-0.996 3.522-1.537 2.405-0.995 4.956-2.049 7.564-3.127 5.179-2.113 10.589-4.003 15.353-4.835 0.495 0.029 0.957 0.045 1.363 0.17l-0.966 0.397c2.28-0.417 4.375-1.073 6.198-1.821 1.572-0.278 2.87-0.549 4.15-0.795 1.447-0.278 1.963-0.408 4.948-1.136 0.541 0.154 1.772 0.039 3.638-0.34 1.073-1.073 2.434-2.515 3.923-4.206 0.833-0.995 1.704-2.009 2.616-3.127 1.782-2.153 3.724-4.392 5.005-5.971-1.695-0.825 2.826-5.885-2.389-1.991 0.62-0.577-0.481 0.933-2.673 3.58-0.417 0.66-0.947 1.365-1.193 1.821 0-0.125 0.026-0.277 0.057-0.454l-6.709 8.19-5.687 1.537c1.162-0.666 3.493-1.55 5.233-2.217 0.62-0.87 1.268-1.768 1.934-2.673 0.541-0.706 1.141-1.53 1.764-2.275 1.033-1.329 2.275-2.565 3.809-3.809 0.787-2.813 1.753-5.833 2.333-7.451 6.544-3.725 16.42-13.295 18.821-13.705 1.657-2.198 3.353-4.536 5.175-6.936 2.483-2.113 5.039-4.315 7.564-6.425 2.694-2.359 5.266-4.611 7.791-6.766 4.93-4.514 9.128-8.793 11.487-12.396 3.229-3.104 4.598-2.391 6.254-3.014-1.864 1.898-4.272 3.761-5.062 5.005 6.253-6.499 21.248-15.834 21.494-19.108 9.852-5.634-3.893 5.48 8.53-3.752l-1.249 1.764c3.312-1.739 6.297-3.539 9.154-5.403 1.411-0.995 2.786-1.934 4.15-2.843 1.695-1.244 3.391-2.454 5.005-3.696l2.048-3.809 1.306-2.616 2.333-5.233c1.536-3.478 3.129-6.944 4.664-10.465 3.104-6.918 6.764-14.564 11.033-21.437 2.983-2.776 7.325-6.536 11.714-9.723-1.864 1.447-2.736 2.193-3.354 2.275 4.514-3.973 8.915-8.154 13.308-12.338l6.48-6.48 6.88-6.766c9.029-14.45 16.601-27.227 25.874-41.511l2.73-8.417 2.73-7.848c1.864-5.259 3.846-10.359 5.914-15.41 3.026-7.909 2.966-10.406 3.297-14.671 0-1.119 0.113-2.404 0.113-3.979l2.389-1.878 0.227-11.487c1.943-15.981 10.676-25.987 12.453-46.402l-1.878 2.275c1.943-7.039 4.659-22.672 5.857-21.096-0.029-0.83-0.811-2.581 0.511-5.233h1.136l0.34-2.616 0.622-3.522-1.363-3.809v0.17l-1.079-2.957-2.333-5.971c-2.901-13.542 4.595 1.086-0.454-18.537-2.405-7.163-8.555-19.904-8.473-17.004 0.744 2.937 1.412 7.648 0.454 8.19l-2.275-6.48c-0.187-0.029-0.475-0.051-0.68-0.113l-0.34-1.079 9.666-47.482-8.53-31.845 0.738 0.622-1.136-2.159-2.73-10.121c0.41 0.187 1.041 1.028 1.707 3.014-0.216-2.983-0.661-4.461-1.193-5.914-1.201-2.067-2.144-2.737-3.014-6.88-0.125-0.787 0.178-0.571 0.568 0l-3.866-6.425c1.119 1.073 1.251-1.956 2.787 2.389-4.143-12.835-10.953-18.746-11.203-24.167l0.68 0.909c-6.461-12.298-4.611-6.483-6.766-8.017l-0.113-0.34-1.136-8.075 2.56-6.88-2.217-1.594c-0.187-1.864-0.488-5.644 0.397-5.062-2.274-6.873-0.738 1.315-2.56-2.616 0.452-7.205-1.981-17.482-2.105-23.938-1.033-1.821-1.663-3.325-1.249-4.15-3.312-1.864 4.508 8.091-2.446 0.511 1.073-4.348-7.222-8.806-11.033-16.549 2.983 1.033 6.949 8.042 3.184 0.34-5.425-2.316-9.196-13.596-13.875-18.937-2.198 1.158-9.881-11.961-17.458-21.153 1.119 0.125-12.115-18.945-17.458-28.718l0.454 0.057c-3.187-0.414-9.251-10.092-14.387-16.717 1.365-0.535 2.738 0.373 5.8 3.752l-4.379-6.538c-1.695-1.073-3.358-2.918-6.425-6.936l2.616 0.68-2.333-3.127-3.184-2.673-2.787-2.275c-1.864-1.49-3.869-3.087-5.857-4.664-3.973-3.27-8.051-6.787-12.111-11.26-1.158 0.541 1.385 5.173-0.34 5.46l-5.29-4.948c0.577-0.216 1.479-0.071 3.014 1.022-0.995-0.744-3.754-2.318-5.29-4.263l5.233 2.73c-4.057-4.635-3.246-1.226-6.766-4.664 0.995-0.87-1.943-3.119-0.738-3.411 0.995 0.744 2.754 3.242 4.494 4.15-1.943-1.903-4.474-4.511-5.63-6.084-0.83-1.657-2.055-4.087-2.217-5.117-0.348 0.87-1.417 1.159-3.979-1.991-6.335-8.278-0.932-3.84-4.036-9.098-2.234-1.447-5.511-7.306-7.163-6.311-1.825-2.442-1.475-3.383-1.764-4.664-1.076-1.037-2.696-3.019-4.437-5.175-2.067-2.526-4.205-5.285-6.027-7.564-6.335-1.572-7.956-1.628-5.8 0l1.537 0.567c-0.351-0.029-0.709-0.164-1.079-0.227-7.33-1.28-14.606-3.441-21.895-5.8l-10.917-3.638c-3.478-1.162-6.786-2.28-10.179-3.354l-2.9-2.503-3.411-2.73 0.397-0.454c-8.446-6.248-17.982-14.858-24.564-18.707-2.359-1.988-4.787-5.638-3.297-5.346-0.952-0.709-1.811-1.405-2.389-1.821-1.49-0.62-2.72-1.081-3.923-1.537-1.119-0.452-2.18-0.924-3.297-1.421-2.275-1.119-4.89-2.581-9.154-5.233 7.743 2.569-2.062-2.097 7.791 2.957-9.112-5.134-10.787-7.122-21.55-10.521 4.098 0.154-5.936-5.315-10.862-7.221l6.141 4.379c-1.447-0.62-2.821-1.251-4.15-1.878-1.532-0.744-3.043-1.53-4.494-2.275-2.483-0.387-4.804-0.666-7.163-1.079l2.9-1.821c-10.308-2.691-19.921-2.778-28.945-3.070-4.473-0.125-8.798-0.314-13.021-0.852-4.143-0.584-8.058-1.935-11.828-3.752-5.796 0.41 11.169 3.25 5.914 4.036-9.525-2.156-18.927-7.199-21.952-7.735-5.3-1.575-8.428-1.736-11.203-1.651-1.411 0.063-2.639 0.164-4.093 0.227-0.702 0.029-1.545 0.029-2.333 0-0.912-0.029-1.515-0.035-3.127-0.284-0.995 0-2.043 0.057-3.241 0.057-1.037 0-2.196-0.078-3.522-0.17 1.825 0.825 3.521 2.849-6.993 3.468-9.773-0.456-12.012-3.442-5.8-3.979 2.359-0.029 3.498 0.213 3.411 0.511 3.191-0.216 7.301-0.506 3.411-1.421l-1.306 0.795c-4.843-0.912-18.299-1.031-15.068-2.275-7.453 0.666-3.285 1.208 2.217 1.707-8.113-0.906-14.306-0.77-20.642-0.852-2.983-0.187-7.083-0.593-11.43-1.249 2.024 0.62 3.852 1.684 1.821 1.479-18.838-2.694-8.435 0.693-21.267-0.113-7.165-1.821 2.84-2.569-10.121-2.73-7.826-1.536-1.499-2.185 1.651-2.56-1.411 0.029-2.786 0.029-4.15 0l-2.9-0.17c-1.142-0.123-2.255-0.201-3.354-0.34h-0.057zM499.411 173.82c13.485 9.108 23.162 22.016 27.408 36.108 4.38 0.506 8.662 1.152 12.907 1.878 2.971-7.511 4.611-17.484 8.984-22.122 2.874 3.994 12.975 19.958 19.335 28.718 1.758 0.355 3.503 0.9 5.233 1.537 1.635-6.74 4.244-17.394 9.098-15.41 2.746-2.112 5.354-4.439 8.36-6.198 5.241 11.729 13.121 22.459 19.733 33.321 3.39-12.878 6.635-25.865 9.893-38.838 13.739 21.473 13.179 36.347 24.909 54.307 4.376-6.485 7.917-13.967 11.43-21.096 0.732-1.492 1.492-2.987 2.217-4.494 8.978 17.223 8.356 36.568 18.196 52.032 2.397-3.993 9.749-17.943 12.111-22.065 0.634 9.969 5.884 20.597 8.246 31.845-11.466 33.328-11.852 76.589-4.379 102.186-36.299 8.626-64.743 12.016-95.193 28.375-30.453 16.232-68.328 49.429-66.193 76.142 32.174-52.438 106.61-92.799 187.998-87.175-10.478-0.733-16.241-55.927-16.605-62.667-0.256-6.103 0.602-16.319 2.105-27.695 0.086 0.181 0.303 0.289 0.397 0.567 3.994-2.987 9.202-3.994 13.705-2.275 2.236-4.474 4.502-8.989 6.766-13.592 13.103 14.348 21.045 33.668 21.952 53.509 2.362-7.477 7.245-14.093 13.478-18.594 3.834 49.688 3.856 99.696 0.113 149.384 0.181 8.978 0.203 17.992-0.34 26.838-1.247 31.826-20.717 129.574-40.943 142.675-37.322 24.22-56.947 80.142-68.581 120.212-12.109 42.052-37.045 77.288-52.032 118.224-5.846 15.979-12.342 33.793-28.831 42.933-20.355 11.339-48.448 8.325-70.91 6.823-0.397 0-0.718-0.057-1.079-0.057-0.387 0-0.775 0.057-1.136 0.057-22.336 1.503-50.555 4.519-70.91-6.823-16.456-9.138-22.965-26.954-28.718-42.933-15.113-40.932-40.078-76.172-52.316-118.224-11.471-40.071-31.158-95.993-68.352-120.212-20.226-13.101-39.735-110.849-41.113-142.675-0.87-24.22 0.168-48.636 3.809-72.731-1.277-32.851 1.247-65.784 7.735-97.866 1.631 1.503 3.203 2.976 4.835 4.608 10.226-16.871 20.369-33.714 30.595-50.552 0.758-3.776 1.376-7.517 2.105-11.26 5.724 9.107 8.151 19.501 8.246 30.364 0.525-0.476 0.889-0.879 1.249-1.421 1.624 12.621 2.69 24.221 2.503 30.709-0.511 6.741-6.121 61.942-16.605 62.667 81.261-5.623 155.658 34.737 187.998 87.175 2.11-26.712-36.364-59.91-66.817-76.142-30.453-16.361-58.916-19.751-95.251-28.375 6.75-22.848 7.434-60.153-0.68-91.726 1.758-12.973 14.049-34.817 18.423-45.775 3 4.346 9.888 11.857 14.614 17.571 0.636-0.476 1.245-1.002 1.878-1.363-0.77-8.978 4.391-22.387 5.857-36.736 6.132 4.727 13.208 13.989 19.733 18.879 5.847-3.516 11.977-6.989 18.080-10.121 3.741-13.357 15.016-22.976 19.617-35.086 4.247 8.85 11.12 14.372 20.869 18.367 2.112-0.643 4.346-1.106 6.48-1.651 5.242-7.605 14.614-19.961 14.614-19.961s9.488 7.145 15.466 13.251c3.514-0.39 6.987-1.057 10.465-1.421 9.489-12.591 18.605-20.313 27.237-35.938zM333.649 463.036c-17.661-1.223-35.276 0.411-47.879 7.394 10.128 32.594 48.605 55.736 79.44 64.714 23.068 6.75 44.046 5.377 67.498 1.991 7.221-0.86 12.748-2.233 15.238-5.46 2.52-3 2.233-7.946-1.764-15.807-4.123-8.115-11.263-14.587-18.48-19.961-13.613-10.226-29.796-17.193-45.775-22.917-12.86-4.619-30.615-8.729-48.28-9.95zM666.764 463.036c-17.661 1.223-35.408 5.391-48.337 10.007-15.847 5.719-32.083 12.69-45.664 22.917-7.255 5.366-14.387 11.845-18.48 19.961-3.993 7.863-4.241 12.744-1.878 15.75 2.621 3.225 7.984 4.554 15.238 5.46 23.456 3.388 44.44 4.805 67.669-1.934 30.835-8.978 69.285-32.116 79.383-64.714-12.671-6.983-30.274-8.671-47.936-7.451zM501.914 580.519c-0.659-0.005-1.359 1.933-2.048 5.8-9.969 59.82-53.91 82.852-53.91 82.852l4.379 0.567c16.713-9.235 39.934-4.622 51.919 10.237 10.353-12.722 30.84-16.402 46.913-13.875v-0.057c2.88 0.361 2.501-1.328 5.346-0.34 0 0-41.547-19.359-50.779-79.497-0.574-3.754-1.162-5.682-1.821-5.687z"></path>
    </svg>