<svg xmlns="http://www.w3.org/2000/svg" viewBox="63.534 127.982 890.233 896.018">
    <path fill="#000000" d="M463.213 127.987c-1.503 0.828-2.913 1.606-4.339 2.362-0.961 0.396-1.906 0.827-2.745 1.261-1.723 0.678-3.329 1.443-4.887 2.087-3.118 1.243-5.929 2.324-8.127 3.403l4.943-3.403c-2.997 2.040-5.542 3.391-8.181 4.832l3.733-0.274c-3.237 1.439-5.812 2.795-6.093 2.199-2.675 2.64 3.65 0.967-2.032 5.6-2.236 0.799-5.256 2.688-8.017 4.284-1.397 0.76-2.775 1.387-3.897 1.867-0.599 0.183-1.044 0.398-1.484 0.438-0.268 0-0.463-0.099-0.659-0.328 0.183-0.028 1.084-0.486 1.648-0.768 0.64-0.339 1.17-0.682 1.648-0.878 0.84-0.478 1.331-0.804 1.648-1.042 0.522-0.522 0.176-0.679-0.274-0.715-0.883-0.211-2.148-0.41 3.293-3.571-2.040 1.359-4.575 2.753-7.855 4.228-0.561 0.028 0.256-0.69 1.042-1.206-0.883 0.336-2.217 0.901-2.417 0.933-0.121-0.028-0.13-0.028-0.219 0-0.121-0.028-0.164 0.025-0.164 0.055-0.268 0.061-1.107 0.183-1.428 0.328-0.919 0.268-1.507 0.631-2.307 0.987-1.558 0.718-3.756 1.527-9.994 1.648 1.247-0.79-0.743-1.265-2.91-1.539 1.387 0.557-1.331 1.809-5.381 2.526-9.395-0.636-10.179 0.878-15.098 0.878l5.6 0.274c-0.875 0.564-2.492 0.897-4.613 1.097-2.201 0.149-5.024 0.278-8.346 0.493-0.24 0.061-0.596 0.149-0.878 0.328-0.211-0.149 0.127-0.448 0.768-0.768-2.44 0.919-3.627 1.276-5.546 1.758-1.84 0.301-3.767 0.643-5.765 1.042-3.918 0.718-8.080 1.65-12.079 3.571-4.719 0.718-1.042-1.895-5.162-1.097-3.996 1.919-6.799 2.667-9.278 3.183-1.236 0.268-2.346 0.435-3.623 0.715-0.643 0.121-1.258 0.299-1.977 0.438-0.374 0.121-0.74 0.155-1.097 0.274-0.678 0.183-1.3 0.416-1.977 0.603-0.643 0.396-1.313 0.812-2.032 1.206-0.403 0.211-0.88 0.547-1.316 0.823-0.924 0.599-1.871 1.34-2.91 2.143 3.719-0.522 4.019-1.121-2.417 4.558l9.662-6.643 8.784-3.403-3.897 2.143c-1.483 0.718-2.181 1.195-4.503 2.199-1.758 1.318-2.367 2.043-3.403 2.964 1.201-0.76 2.481-1.617 3.678-2.417 1.283-0.478 2.535-0.989 3.733-1.428 1.122-0.44 2.115-0.904 3.074-1.261 2-0.84 3.8-1.451 5.162-1.813-5.36 3.081-4.95 2.535-1.867 2.855-1.679 0.028-3.26 0.332-4.777 0.715-0.76 0.183-1.587 0.486-2.307 0.768l-2.691 1.042c-2.115 1.558-4.237 3.098-6.478 4.777-2.115 1.521-4.402 2.928-7.084 4.007l-1.703-3.293c-9.436 4.319-16.47 10.584-25.147 16.582-2.801 1.521-7.087 3.593-11.365 5.272l5.655-1.867c-1.639 2.358-10.259 4.907-15.372 7.908-0.028-1.359-3.565-0.185-6.203 0.055 0.599 0.756-12.097 5.47-12.74 8.51l-2.199 0.659-1.977 1.428-1.484 0.933-2.855 1.813c-11.156 9.716-9.705 14.244-20.259 23.717 2.157-3.916-3.135-0.071 3.019-7.358-3.395 3.278-6.597 6.018-6.038 6.697-0.557 0.268-1.344 0.973-2.143 1.813-0.883 0.997-1.958 2.249-3.074 3.571-1.001 1.84-2.131 3.871-3.129 5.71-0.961 1.596-1.885 3.003-2.8 3.842-0.678 1.961 0.075 3.22-2.855 7.577-0.557 0.374-0.603-0.328-0.603-0.328 0.557 0.336-3.825 7.402-0.109 4.284-2.519 2.236-4.99 5.206-7.468 8.565-1.243 1.596-2.425 3.38-3.623 5.217-1.122 1.679-2.227 3.387-3.348 5.108-1.919 1.718-3.9 3.5-5.819 5.217-2.040 1.723-4.064 3.483-5.984 5.162-3.921 3.237-7.704 5.908-10.982 7.468-4.198 3.916-8.761 8.213-12.959 12.133-2.040 5.796-3.935 11.104-5.491 15.704-0.149-0.718-0.558-0.262 0.164-1.867-5.559 11.753 0.621 8.679-5.655 22.073-4.52 6.356 1.603-7.687-0.715-3.571-1.318 0.149-2.261 1.519-3.183 3.678-0.436 1.080-0.889 2.376-1.372 3.733-0.339 1.243-1.004 3.239-1.042 3.678-0.121 0.336-0.833 1.429-1.594 2.472l-2.143 3.183c-1.483 1.996-3.114 3.819-4.832 5.217l1.261-2.087c-5.637 5.236-9.753 15.842-17.348 25.639 0 0-0.038-0.717-0.547-0.438-0.183 0.643-0.66 1.706-1.539 3.183-0.44 2.358-0.98 5.055-1.539 8.017-0.557 2.675-1.204 5.534-1.922 8.455-1.439 5.839-3.047 11.906-4.449 17.184-0.4-4.001 0.811-5.391-1.428-3.788-1.439 5.195 2.942-0.653 0.109 9.662-0.84 1.362-1.709 3.005-2.91 5.327-1.080 3.198-2.116 5.684-3.238 6.203l0.933-6.752 1.261-3.842c-0.374 0.478-0.831 0.868-1.152 1.428-0.301 0.478-0.549 1.116-0.987 2.199-0.121 0.76-0.27 1.453-0.438 2.255l-0.328 1.922c-0.121 1.276-0.104 2.564-0.164 3.842-0.121 2.563-0.248 5.045-0.768 7.084l-0.878-0.878c-1.919 14.915 0.361 16.074-1.977 31.185-0.028 0.183-0.158 0.491-0.219 0.768 0.183-0.301 0.407-0.519 0.603-0.715 0.149-0.149 0.325-0.26 0.493-0.547 0.028 0.374 0.025 0.496 0.055 0.659 0 8.235-3.209 6.443-3.571 15.317l-3.129 2.032c-0.919 5.877-2.507 20.959-5.108 31.349 0.121-6.238 1.988-18.723 2.91-26.517-0.985 3.81-1.959 9.716-2.91 15.207 0.374 7.64-1.734 16.904-5.055 28.22-1.318-1.080-2.914 1.654-4.558 6.093-0.84 2.201-1.663 4.891-2.581 7.687-1.001 3.161-2.020 6.479-3.019 9.716 0.149 1.157 0.364 2.341 0.547 3.459 0.061 0.801 0.155 1.543 0.274 2.307 0.149 1.439 0.392 2.923 0.493 4.284 0.149 2.64 0.084 4.824-0.274 6.423 1.359 4.956 2.444 10.019 3.403 15.098 0.44 2.563 0.892 5.139 1.372 7.743 0.403 2.759 0.827 5.454 1.261 8.291 1.723 5.355 3.472 10.836 5.272 16.472 1.8 5.475 3.717 11.114 5.874 16.91 0.64-9.395 2.498 6.623 5.655 3.897 0.924 2.397 1.534 4.047 1.977 5.162 0.121 0.84 0.253 1.987 0.164 2.143v0.055l0.383 17.348c-0.478 4.198-1.714-5.236-2.472-4.558 1.679 12.279-0.771 5.396-0.493 13.672 1.122-1.876 2.6 3.959 3.238 11.036l0.219-10.104c2.278 8.075 2.109 11.422 2.032 15.704 0.301 4.756 0.149 8.167 3.515 16.965l-2.526-5.055c1.157 3.358 2.659 9.038 4.339 15.152 0.919 3.077 1.813 6.256 2.691 9.333 0.522 1.483 1.044 3.008 1.484 4.449 0.599 1.6 1.166 3.117 1.648 4.558 0.687 1.483 0.849 1.696 1.206 2.417 0.403 0.599 0.725 1.13 1.042 1.648 0.678 1.080 1.45 2.027 2.087 2.745 0.149 1.639-0.055 3.942-1.813 0.383 2.201 5.797 4.818 11.915 7.577 17.953 2.88 6.238 5.806 12.506 8.565 18.504 1.558 2.157 3.076 4.203 4.558 6.203 1.276 1.835 2.535 3.618 3.733 5.381 2.398 3.515 4.455 6.847 6.093 10.049l-1.648-0.878c2.439 3.198 5.373 4.835 7.413 9.552-0.522 0-1.769-0.846-0.768 0.715 0.478 0.557 1.521 1.731 2.8 3.129 0.599 0.719 1.204 1.446 1.922 2.255 0.718 0.919 1.229 1.427 2.472 3.183 0.883 0.801 1.796 1.708 2.636 2.472 0.679 0.679 1.248 1.279 1.813 1.922l-4.007-2.417c14.313 15.473 24.909 20.524 38.105 32.118-1.961 2.003 9.367 13.851 15.043 19.765l-0.493 0.055c4.319 4.116 8.41 7.776 12.407 11.255 3.836 3.635 7.579 7.043 11.255 10.323 3.761 3.319 7.364 6.567 11.201 9.884 1.837 1.723 3.736 3.403 5.655 5.162 1.001 0.883 1.967 1.769 2.964 2.691 1.118 1.036 2.285 2.102 3.403 3.183 0.44 0.211 0.907 0.561 1.428 0.878 3.319 3.438 8.688 7.715 15.043 12.352 3.237 2.279 6.636 4.716 10.158 7.194 3.879 2.718 7.932 5.475 11.971 8.236 4.639 1.283 9.303 2.608 13.782 3.842 3.996 1.201 7.86 2.425 11.42 3.623-3.202-1.359 1.079-1.98 4.999-1.261 4.999 1.876 14.603 1.784 13.123 4.061l-1.758-0.547c0.478 0.522 1.192 1.057 2.032 1.539 0.374 0.211 0.783 0.476 1.261 0.715 0.599 0.183 0.297 0.129 0.493 0.328-0.211 0.028 1.424 1.079 2.581 1.758 1.283 0.76 2.545 1.543 3.897 2.307 2.722 1.483 5.567 3.051 8.127 4.449l2.8-2.255c2.955 2.598 6.483 5.068 10.323 7.468 1.882 1.201 3.82 2.451 5.819 3.571 2.236 1.243 4.474 2.388 6.752 3.623l6.916 2.307c2.079 0.64 4.166 1.224 6.203 1.867 4.116 1.276 8.222 2.507 11.859 3.623 7.359 2.364 13.358 4.775 16.637 7.413 0.84 0.149 1.042 0.169 2.8 0.603 2.519 0.339 5.297 0.666 8.017 0.987 2.601 0.268 5.15 0.631 7.468 0.715l-0.659 1.703c5.716 1.283 10.275 2.311 14.988 3.348 2.364 0.522 4.76 1.020 7.358 1.539 2.922 0.561 6.052 1.204 9.607 1.922 2.040-0.183 5.876-0.631 10.158-0.987l-3.678 1.594c10.319-0.678 12.65-6.157 22.127-6.916l3.019 2.472 7.855-0.493 8.127-0.328 10.049-1.428 9.497-1.484c6.318-1.080 12.552-2.489 18.668-4.449-0.211 0.436-0.678 1.32-3.515 1.922 2.479-0.404 6.367-0.957 10.487-1.594 2.316-0.121 4.676-0.218 6.916-0.328 2.358-0.149 4.637-0.379 6.478-0.659 3.719-0.522 5.939-1.326 4.777-2.526 0.44 2.358 18.624-1.010 28.22-2.964l-1.316 1.977c7.954-3.276 8.125-3.948 19.437-5.984 2.722-0.121 2.554 1.042-1.042 1.042 9.079-0.183 6.753-2.473 17.788-2.91l-3.897 1.648c4.52-0.523 6.623-0.892 8.181-1.372s2.508-1.007 5.71-2.087c0.028-0.028 0.189-0.185 0.328-0.274 0.76-0.557 1.608-1.247 2.526-1.922 0.718-0.478 1.556-0.924 2.362-1.484 1.679-1.043 3.459-2.14 5.217-3.019 3.438-1.758 6.578-2.955 7.577-2.636 0.519-1.518 4.075-5.307 8.948-7.908 0.961 0.121-0.543 1.461-1.261 2.143 3.202-1.723 5.874-3.454 8.236-5.055 1.201-0.883 2.285-1.617 3.403-2.417l1.484-1.152 0.933-0.715c0.478-0.268 1.919-0.811 3.238-1.206 1.283-0.44 2.507-0.92 3.788-1.316 2.519-0.718 5.096-1.299 8.017-1.539 0.374 0.478 1.018 0.587 1.977 0.547-7.034 1.758-13.175 3.404-16.691 4.284-0.718 0.44-1.275 0.777-1.594 0.933-0.522 0.339-0.704 0.37-0.547 0.274 0.339 0.644 2.507-0.14 2.745 0.219 0.44 0.149 0.64 0.324 0.878 0.603 0.121 0.268-0.028 0.783 0 1.261 0 0.089 0.026 0.218 0.055 0.328 0-0.061 0.025-0.218 0.055-0.328 0.519-0.183 1.002-0.42 1.484-0.659 1.122-0.44 2.248-0.962 3.403-1.484 2.322-0.961 4.785-1.978 7.303-3.019 5-2.041 10.224-3.865 14.824-4.668 0.478 0.028 0.924 0.043 1.316 0.164l-0.933 0.383c2.201-0.403 4.224-1.036 5.984-1.758 1.518-0.268 2.771-0.53 4.007-0.768 1.397-0.268 1.895-0.394 4.777-1.097 0.522 0.149 1.711 0.038 3.515-0.328 1.036-1.036 2.35-2.428 3.788-4.061 0.804-0.961 1.645-1.94 2.526-3.019 1.723-2.079 3.596-4.243 4.832-5.765-1.639-0.799 2.731-5.682-2.307-1.922 0.599-0.558-0.463 0.901-2.581 3.459-0.403 0.637-0.914 1.318-1.152 1.758 0-0.121 0.025-0.267 0.055-0.438l-6.478 7.908-5.491 1.484c1.122-0.643 3.375-1.499 5.055-2.143 0.599-0.84 1.224-1.707 1.867-2.581 0.523-0.682 1.102-1.477 1.703-2.199 0.997-1.283 2.199-2.479 3.678-3.678 0.76-2.716 1.695-5.632 2.255-7.194 6.318-3.599 15.854-12.839 18.172-13.232 1.6-2.122 3.237-4.38 4.999-6.697 2.397-2.040 4.865-4.166 7.303-6.203 2.601-2.278 5.084-4.452 7.522-6.533 4.76-4.358 8.813-8.49 11.091-11.971 3.118-2.997 4.439-2.311 6.038-2.91-1.8 1.835-4.125 3.631-4.887 4.832 6.037-6.275 20.514-15.288 20.753-18.449 9.512-5.44-3.759 5.291 8.236-3.623l-1.206 1.703c3.198-1.679 6.080-3.417 8.838-5.217 1.362-0.961 2.69-1.867 4.007-2.745 1.639-1.201 3.274-2.369 4.832-3.571l1.977-3.678 1.261-2.526 2.255-5.055c1.483-3.358 3.021-6.707 4.503-10.104 2.997-6.679 6.531-14.062 10.655-20.698 2.88-2.68 7.072-6.311 11.31-9.388-1.8 1.397-2.642 2.117-3.238 2.199 4.358-3.836 8.608-7.873 12.849-11.915l6.259-6.259 6.643-6.533c8.718-13.952 16.031-26.288 24.982-40.080l2.636-8.127 2.636-7.577c1.8-5.078 3.713-10.002 5.71-14.879 2.922-7.636 2.864-10.047 3.183-14.165 0-1.080 0.109-2.321 0.109-3.842l2.307-1.813 0.219-11.091c1.876-15.43 10.308-25.091 12.024-44.802l-1.813 2.199c1.876-6.796 4.498-21.89 5.655-20.371-0.028-0.801-0.783-2.492 0.493-5.055h1.097l0.328-2.526 0.603-3.403-1.316-3.678v0.164l-1.042-2.855-2.255-5.765c-2.801-13.075 4.439 1.051-0.438-17.898-2.322-6.916-8.26-19.218-8.181-16.418 0.718 2.836 1.363 7.384 0.438 7.908l-2.199-6.259c-0.183-0.028-0.459-0.049-0.659-0.109l-0.328-1.042 9.333-45.845-8.236-30.747 0.715 0.603-1.097-2.087-2.636-9.772c0.396 0.183 1.005 0.995 1.648 2.91-0.211-2.88-0.638-4.307-1.152-5.71-1.16-1.996-2.070-2.643-2.91-6.643-0.121-0.76 0.172-0.551 0.548 0l-3.733-6.203c1.080 1.036 1.208-1.891 2.691 2.307-4-12.392-10.575-18.1-10.817-23.334l0.659 0.878c-6.238-11.874-4.452-6.259-6.533-7.743l-0.109-0.328-1.097-7.799 2.472-6.643-2.143-1.539c-0.183-1.8-0.471-5.449 0.383-4.887-2.196-6.636-0.715 1.27-2.472-2.526 0.436-6.959-1.913-16.879-2.032-23.115-0.997-1.758-1.606-3.21-1.206-4.007-3.198-1.8 4.355 7.812-2.362 0.493 1.036-4.198-6.973-8.502-10.655-15.978 2.88 0.997 6.709 7.765 3.074 0.328-5.238-2.236-8.879-13.127-13.399-18.284-2.122 1.118-9.54-11.551-16.856-20.424 1.080 0.121-11.697-18.292-16.856-27.728l0.438 0.055c-3.077-0.4-8.932-9.744-13.891-16.143 1.318-0.519 2.643 0.36 5.6 3.623l-4.228-6.315c-1.639-1.036-3.242-2.817-6.203-6.697l2.526 0.659-2.255-3.019-3.074-2.581-2.691-2.199c-1.8-1.439-3.736-2.983-5.655-4.503-3.836-3.157-7.773-6.553-11.693-10.872-1.118 0.522 1.337 4.995-0.328 5.272l-5.108-4.777c0.557-0.211 1.428-0.071 2.91 0.987-0.961-0.718-3.627-2.238-5.108-4.116l5.055 2.636c-3.917-4.475-3.134-1.184-6.533-4.503 0.961-0.84-1.876-3.011-0.715-3.293 0.961 0.718 2.659 3.13 4.339 4.007-1.876-1.837-4.32-4.355-5.436-5.874-0.801-1.6-1.984-3.946-2.143-4.943-0.336 0.84-1.368 1.119-3.842-1.922-6.119-7.995-0.9-3.708-3.897-8.784-2.157-1.397-5.321-7.054-6.916-6.093-1.762-2.358-1.424-3.266-1.703-4.503-1.039-1.001-2.603-2.915-4.284-4.999-1.996-2.44-4.060-5.103-5.819-7.303-6.119-1.518-7.682-1.572-5.6 0l1.484 0.547c-0.339-0.028-0.687-0.158-1.042-0.219-7.077-1.236-14.102-3.322-21.14-5.6l-10.543-3.515c-3.358-1.122-6.552-2.201-9.828-3.238l-2.8-2.417-3.293-2.636 0.383-0.438c-8.155-6.035-17.362-14.346-23.717-18.062-2.278-1.919-4.622-5.444-3.183-5.162-0.919-0.687-1.751-1.359-2.307-1.758-1.439-0.599-2.626-1.044-3.788-1.484-1.080-0.436-2.105-0.892-3.183-1.372-2.199-1.080-4.721-2.492-8.838-5.055 7.476 2.48-1.991-2.025 7.522 2.855-8.798-4.957-10.415-6.876-20.807-10.158 3.957 0.149-5.731-5.132-10.487-6.972l5.929 4.228c-1.397-0.599-2.724-1.208-4.007-1.813-1.479-0.718-2.938-1.477-4.339-2.199-2.397-0.374-4.638-0.643-6.916-1.042l2.8-1.758c-9.955-2.598-19.234-2.682-27.947-2.964-4.319-0.121-8.495-0.303-12.572-0.823-4-0.564-7.78-1.868-11.42-3.623-5.596 0.396 10.784 3.138 5.71 3.897-9.199-2.082-18.274-6.951-21.195-7.468-5.117-1.521-8.137-1.676-10.817-1.594-1.362 0.061-2.548 0.158-3.952 0.219-0.678 0.028-1.492 0.028-2.255 0-0.883-0.028-1.463-0.034-3.019-0.274-0.961 0-1.975 0.055-3.129 0.055-1.001 0-2.12-0.075-3.403-0.164 1.762 0.799 3.4 2.751-6.752 3.348-9.436-0.44-11.598-3.323-5.6-3.842 2.278-0.028 3.377 0.206 3.293 0.493 3.081-0.211 7.049-0.491 3.293-1.372l-1.261 0.768c-4.676-0.883-17.668-0.995-14.548-2.199-7.196 0.643-3.172 1.166 2.143 1.648-7.833-0.875-13.813-0.743-19.93-0.823-2.88-0.183-6.839-0.575-11.036-1.206 1.954 0.599 3.719 1.626 1.758 1.428-18.188-2.601-8.144 0.669-20.534-0.109-6.918-1.758 2.742-2.48-9.772-2.636-7.556-1.483-1.447-2.11 1.594-2.472-1.362 0.028-2.69 0.028-4.007 0l-2.8-0.164c-1.103-0.119-2.177-0.194-3.238-0.328h-0.055zM536.785 182.511h1.758c0.522 1.426 0.689 2.822 0.659 4.394-0.149 4.121-0.055 8.211-0.055 12.298 0 0.744 0.075 1.522 0.164 2.307 0.339 2.255 0.575 4.502 0.987 6.752 0.371 2.018 0.79 4.108 1.428 6.093 1.201 3.856 1.794 7.755 1.648 11.803-0.149 4.389-0.127 8.774-0.715 13.123-0.301 2.104-0.165 4.198 0.164 6.259 0.268 1.872 0.463 3.784 0.383 5.655-0.121 2.772 0.127 5.506 0.603 8.236 0.121 0.85 0.308 1.741 0.219 2.526-0.339 3.781 0.423 7.379 0.987 11.091 0.979 6.11 1.807 12.21 2.032 18.395 0.415 8.658 1.568 17.278 3.403 25.749 0.34 1.426 0.883 2.686 2.199 3.515 1.125 0.64 1.655 1.787 2.032 3.019 1.426 4.537 2.899 9.044 4.172 13.618 1.837 6.639 3.819 13.156 6.478 19.492 0.786 1.797 1.044 3.796 1.648 5.71 0.491 1.426 0.977 2.923 1.648 4.228 0.862 1.723 1.715 3.383 1.977 5.327 0.121 0.744 0.306 1.507 0.493 2.255 0.522 2.401 1.472 4.463 3.571 5.929 0.756 0.532 1.594 1.107 1.594 2.307-0.415 0.744-1.207 0.878-1.922 0.878-3.222 0.211-6.461 0.289-9.607-0.878-4.31-1.689-8.716-1.471-13.178-0.823-4.498 0.64-9.082 1.239-13.618 1.758-1.426 0.121-2.857-0.061-4.284 0-2.25 0.121-4.561 0.331-6.807 0.438-1.16 0.061-2.318 0.219-3.403 0.219-1.651 0.121-3.22 0.169-4.832 0.383-0.756 0-1.503 0.121-2.255 0-6.11-0.85-12.336-1.263-18.559-0.987-1.087 0.028-2.243 0.012-3.403-0.109-0.862-0.061-1.37-1.337-0.768-1.977 3.039-3.069 4.292-7.196 6.203-10.872 3.972-7.532 7.635-15.265 11.42-22.949 2.661-5.516 4.385-11.356 6.259-17.129 0.491-1.468 0.804-2.983 0.878-4.449 0.522-6.971 2.008-13.769 3.733-20.479 1.651-6.3 2.697-12.661 3.293-19.108 0.301-3.487 1.171-6.913 1.922-10.323 1.051-4.803 1.596-9.553 2.087-14.384 0.827-8.54 0.501-17.151 0.383-25.694v-2.91c-0.089-2.89 0.372-5.668 1.648-8.291 1.051-2.059 1.54-4.273 1.316-6.588-0.371-4.462 0.244-8.94 0.715-13.399 0.121-1.201 0.52-2.412 0.933-3.571 0.64-1.988 1.167-3.958 1.316-6.093 0.121-1.723 0.519-3.375 0.823-5.055 0.301-1.499 0.476-3.011-0.493-4.394-0.935-1.308-0.146-2.326 0.715-3.293zM568.684 401.303c1.689 0 3.438 0.055 5.162 0.055 1.876-0.028 3.515 0.513 5.055 2.087-0.089 2.339-0.23 4.635-1.097 6.752-1.236 3.039-1.556 6.238-1.484 9.497 0.089 2.548 0.095 5.136-0.055 7.687-0.149 2.283-0.478 4.557-0.715 6.807-0.183 1.723-0.407 3.386-0.438 5.108-0.028 4.016-0.185 8.051 0.055 12.024 0.183 3.112 0.598 6.207 1.316 9.278 1.163 5.441 1.67 10.887 1.484 16.472-0.121 3.41 0.317 6.803 0.493 10.213 0.121 2.479 0.22 4.938 0.438 7.413 0.564 6.896 1.247 13.838 1.097 20.807-0.028 0.957-0.136 1.919-0.164 2.964-0.756 0.089-1.415 0.164-2.087 0.164-3.297 0.028-6.637 0.121-9.939 0-6.411-0.211-12.773 0.218-19.108 1.206-7.946 1.083-15.899 1.596-23.884 2.087-5.435 0.317-10.798 0.381-16.199 0.274-5.363-0.089-10.631 0.221-16.143 0.328-0.121-0.317-0.347-0.828-0.383-1.372-0.028-9.891-0.084-19.807-0.055-29.705 0-1.797 0.262-3.585 0.438-5.381 0.121-1.426 0.312-2.861 0.274-4.284-0.211-4.495 0.273-8.905 1.316-13.287 0.71-2.962 0.931-5.979 0.823-9.059-0.301-5.811 0.049-11.596 0.659-17.403 0.183-1.872 0.164-3.796 0.164-5.71-0.028-8.17-0.104-16.333-0.164-24.543-0.029-1.232-0.274-2.502-0.274-3.733 0-2.136 0.995-3.049 3.129-3.238 5.286-0.425 10.601-0.743 15.923-1.152 2.1-0.121 4.176-0.198 6.315-0.109 2.661 0.028 5.283-0.144 7.908-0.768 2.591-0.64 5.244-0.818 7.908-0.715 4.685 0.121 9.298 0.196 13.946-0.438 1.125-0.121 2.283-0.081 3.403-0.109 4.949-0.061 9.893-0.13 14.879-0.219zM605.798 412.888c5.999 0 11.602-0.099 17.184 0.109 2.927 0.089 5.9 0.646 8.784 1.206 3.748 0.744 7.488 1.079 11.31 1.372 3.335 0.317 6.641 0.771 9.828 1.867 2.733 0.85 5.553 1.059 8.4 0.933 4.572-0.211 9.137-0.389 13.672-0.493 4.572 0 9.137-0.236 13.672-0.768 2.772-0.425 5.556 0.14 8.291 0.548 0.211 0.089 0.465 0.223 0.878 0.438 0.564 4.049 2.502 7.636 4.228 11.31 1.236 2.548 2.395 5.238 3.293 7.908 1.35 4.196 3.527 7.767 6.862 10.655 1.499 1.308 2.968 2.67 4.394 4.061 1.087 1.061 2.156 2.156 3.019 3.348 4.723 6.596 9.339 13.272 14.659 19.382 2.1 2.401 3.444 5.213 4.832 8.072 1.011 2.136 2.19 4.147 3.238 6.315 0.71 1.426 1.324 2.947 1.922 4.449 0.491 1.275 0.98 2.373 2.032 3.348 1.087 1.061 2.022 2.211 2.472 3.897-0.447 0.121-0.85 0.438-1.261 0.438-2.324 0.317-4.543-0.231-6.752-0.659-3.109-0.744-6.223-1.042-9.333-1.042-3.263-0.121-6.494-0.229-9.716-0.547-2.733-0.211-5.461-0.715-8.236-0.715-1.125-0.028-2.223-0.446-3.348-0.659-3.523-0.957-7.071-1.406-10.708-1.372-3.222 0.089-6.458-0.061-9.716 0-3.186 0.089-5.737-1.135-7.799-3.459-0.668-0.744-1.303-1.686-1.977-2.472-1.988-2.475-3.907-4.911-5.929-7.303-2.1-2.507-4.421-4.676-7.084-6.588-2.7-1.943-5.139-4.228-7.577-6.478-1.011-0.957-1.792-2.258-2.581-3.459-2.287-3.22-4.502-6.596-6.861-9.828-0.756-1.083-1.66-2.093-2.636-2.964-1.236-1.087-2.398-2.158-3.074-3.733-0.786-0.061-1.555-0.109-2.307-0.109-4.31 0.028-8.576 0.13-12.849 0.219-4.197 0.061-8.319-0.047-12.517-0.547-2.772-0.317-5.699-0.219-8.51-0.219-3.487 0-4.284-0.635-4.284-4.116-0.028-2.479 0-4.938 0-7.413 0.028-0.85 0.183-1.72 0.328-2.581 0.904-4.495 1.396-8.954 1.206-13.563-0.089-1.872 0.043-3.839 0.164-5.71 0.028-0.957 0.241-1.863 0.383-3.019v-0.055zM544.143 419.369c-1.35-0.028-2.006 0.756-1.484 2.032 0.827 2.031 0.641 4.088 0.383 6.148-0.301 2.479-0.436 4.895-0.328 7.413 0.183 4.642 0.345 9.33 0.493 13.946 0.121 2.018 0.037 3.999-0.438 5.984-0.339 1.275-0.351 2.609 0.328 3.842 0.903 1.54 1 3.265 1.042 4.999 0.121 3.069 0.326 6.063 0.547 9.059 0.089 0.957 0.36 1.897 0.659 2.8 0.491 1.426 1.303 1.96 2.8 1.703 0.862-0.121 1.686-0.338 2.472-0.659 1.686-0.64 3.451-1.059 5.327-0.933 1.499 0.121 2.067-0.664 2.032-2.087-0.028-1.232-0.274-2.447-0.274-3.678 0-15.743-0.962-31.604-0.055-47.383 0.028-0.64-0.136-1.289-0.164-2.087v-0.055c-1.051-0.317-1.723-0.495-2.472-0.603-0.756-0.121-1.5-0.219-2.255-0.219-2.884-0.089-5.772-0.219-8.619-0.219zM514.548 419.695c-1.051-0.317-2.143 0.525-2.255 1.758-0.089 1.201 0.043 2.479 0.164 3.678 0.089 0.85 0.256 1.708 0.328 2.526 0.756 10.008 1.428 19.97 1.316 29.978-0.121 6.483 0 12.914 0 19.437 0.183-0.028 0.482 0.012 0.715-0.11 1.575-1.275 3.431-1.428 5.381-1.428 2.287 0.028 4.508-0.402 6.533-1.206 0.64-0.957 0.548-1.932 0.548-2.91 0-12.18 0.006-24.387-0.055-36.566-0.028-3.487-0.351-7.015-0.603-10.543-0.089-1.308-0.324-2.647-1.152-3.952h-0.055c-0.415-0.089-0.637-0.11-0.933-0.11-3.297-0.211-6.637 0.514-9.939-0.547zM460.853 446.377c2.117-0.065 4.231 0.177 6.371 0.659 0.827 0.211 1.647 0.396 2.472 0.715 0.862 0.317 1.701 0.873 2.636 1.152 0.862 0.211 1.849 0.281 2.745 0.493 0.786 1.083 0.48 2.277 0.438 3.403-0.268 4.048-0.626 8.196-0.933 12.243-0.339 4.568-0.416 9.079-1.316 13.618-0.593 3.112-0.516 6.211-0.438 9.388 0.121 2.059 0.081 4.187-0.603 6.203-0.415 1.157-0.345 2.436-0.493 3.678-0.339 2.623-0.65 5.251-1.097 7.908-0.339 2.255-0.683 4.512-0.768 6.807-0.028 2.212-0.269 4.342-0.383 6.478-0.089 1.35-0.109 2.691-0.109 4.007 0.028 1.837-0.14 3.636-1.152 5.655l0.055 0.055c-1.011-0.211-1.897-0.396-2.8-0.715-1.947-0.744-3.944-0.756-5.929-0.328-0.936 0.211-1.863 0.281-2.8 0.493-1.35 0.211-2.625 0.451-3.897 0.768-1.723 0.532-3.491 0.768-5.327 0.768-2.475 0-4.939 0.276-7.413 0.383-1.315 0.089-2.697 0.13-4.007 0.219-4.234 0.317-8.521 0.774-12.794 0.987-2.815 0.211-5.718 0.274-8.565 0.274-9.709 0-19.392-0.028-29.098 0-1.612 0-3.258 0.136-4.832 0.164-0.593 0-1.197-0.021-1.758-0.11-0.268-0.028-0.539-0.223-0.878-0.438-0.491-1.232-0.383-2.536-0.383-3.842 0.061-5.251 0.13-10.453 0.219-15.704 0.028-2.479 0.13-4.938 0.219-7.413 0.089-1.468 0.005-2.881-0.438-4.228-1.8-0.532-3.492-1.098-5.217-1.484-1.125-0.211-2.265-0.383-3.348-0.383-4.123 0.211-8.213 0.396-12.298 0.715-4.010 0.425-7.98 0.248-11.915-0.493-0.447-0.121-0.939-0.219-1.428-0.219-2.436-0.211-4.919-0.446-7.358-0.659-0.904-0.089-1.773-0.5-2.745-0.715 0-1.499 1.090-2.356 1.428-3.515 0.371-1.308 1.422-1.848 2.472-2.526 1.125-0.744 2.14-1.639 3.074-2.526 7.607-7.353 15.159-14.724 22.73-22.073 3.41-3.263 6.323-6.882 9.059-10.708 1.837-2.507 3.612-5.133 5.6-7.908 0.447-0.089 1.226-0.219 1.977-0.219 0.935-0.028 1.863 0.055 2.8 0.055 6.972 0.028 13.931-0.043 20.862 0.548 7.010 0.64 14.091 0.099 21.14-0.11 3.41-0.121 6.819-0.164 10.268-0.164 4.76 0.089 9.514 0.221 14.274 0.328 1.837 0.028 3.564-0.14 5.327-0.659 2.1-0.653 4.25-0.98 6.371-1.042zM629.956 464.716v0.109c0.415 0.744 0.777 1.437 1.152 2.032 0.415 0.64 0.831 1.269 1.316 1.867 1.090 1.308 2.207 2.636 3.293 3.952 2.623 3.146 5.245 6.331 7.908 9.443 1.499 1.723 3.039 3.338 4.613 4.999 4.161 4.344 7.961 9.017 11.146 14.11 1.575 2.583 3.508 4.741 6.093 6.315 3.039 1.872 5.022 4.569 6.259 7.908 0.371 1.083 0.791 2.11 1.316 3.459-0.668 0-1.163 0.061-1.539 0-1.723-0.121-3.382-0.383-5.108-0.383-1.911-0.089-3.797-0.061-5.71 0-6.672 0.211-13.334-0.407-19.93-1.372-2.548-0.425-5.139-0.663-7.687-0.768-6.186-0.121-12.318-0.1-18.504 0.548-1.612 0.211-3.276 0.109-4.887 0.109-2.772 0.028-5.464 0.457-8.127 1.261-3.487 0.957-7.038 1.602-10.487 2.581-0.301 0.089-0.528 0.164-0.823 0.164-0.491 0.028-0.975-0.563-0.823-0.987 0.211-0.64 0.528-1.214 0.823-1.813 2.287-4.495 4.564-9.021 7.413-13.178 1.125-1.615 1.795-3.5 2.581-5.327 0.522-1.128 0.836-2.336 1.206-3.571 0.903-3.069 2.546-5.696 4.832-7.908 0.979-0.957 1.954-1.787 2.964-2.691 4.347-4.004 8.774-7.94 13.123-11.915 2.025-1.914 3.651-4.169 4.887-6.643 0.564-1.061 1.115-1.996 2.691-2.307zM731.199 515.612c1.051-0.317 2.083-0.015 3.019 0.548 1.651 1.061 3.314 1.891 4.887 2.91 0.979 0.64 1.812 1.425 2.636 2.255 1.051 1.083 2.214 2.031 3.678 2.636 0.668 0.317 1.359 0.608 1.922 1.097 1.723 1.426 3.667 2.367 5.765 3.074 2.475 0.85 4.658 2.143 6.643 3.788 1.090 0.85 2.349 1.667 3.623 2.307 3.41 1.689 4.698 2.794 3.348 7.522-1.011 3.602-1.248 7.32-1.097 11.036 0.028 1.914 0.31 3.784 0.493 5.655 0.149 1.797 0.407 3.64 0.438 5.436 0.15 5.621 0.121 11.177-0.383 16.801-0.268 3.292-0.239 6.655-0.438 9.994-0.121 2.548-0.141 5.139-0.438 7.687-0.593 5.516 0.027 11.019 0.438 16.527 0.121 1.873 0.398 3.776 0.768 5.655 0.668 3.75 0.768 7.54 0.768 11.365-0.089 10.454-0.136 20.949-0.164 31.404 0 0.64-0.012 1.392 0.109 2.032 0.593 3.187 1.303 6.355 1.867 9.497 0.211 1.061 0.274 2.077 0.274 3.129 0 0.957-0.526 1.428-1.428 1.428-0.754 0.028-1.518-0.043-2.307-0.164-4.085-0.957-8.107-0.514-12.079 0.547-1.835 0.532-3.636 1.063-5.436 1.703-3.748 1.382-7.593 1.869-11.529 0.878-2.772-0.64-5.608-0.768-8.455-0.768-1.651 0.028-3.276 0.14-4.887 0.11-1.911-0.121-3.78-0.229-5.655-0.548-3.263-0.425-6.477-0.413-9.662 0.438-1.837 0.425-3.708 0.868-5.655 0.659-0.64-0.089-1.243-0.223-2.143-0.438h-0.055c-0.089-1.129-0.109-2.031-0.109-2.855-0.089-16.38-0.158-32.759-0.219-49.139 0-4.271 0.191-8.517 0.603-12.794 0.211-2.176 0.328-4.421 0.328-6.588-0.028-3.75 0.459-7.42 0.987-11.091 0.903-6.035 1.527-12.011 1.977-18.117 0.149-2.283 0.423-4.523 0.603-6.807 0.211-3.602 0.308-7.233 0.603-10.872 1.051-13.193 0.458-26.447 0.603-39.64 0-1.468-0.214-2.933 0.055-4.284 0.268-1.275 1.044-2.402 1.648-3.678 0.935 0.121 1.845 0.331 2.745 0.438 4.347 0.425 8.774 0.827 13.123-0.109 0.756-0.121 1.5-0.219 2.255-0.219 2.025 0.089 3.982 0.106 5.929-0.438zM280.491 520.393c4.572 0.211 9.137 0.183 13.672 0.715 6.11 0.744 12.191 1.963 18.34 2.91 5.173 0.744 10.347 1.478 15.594 1.316 1.163 0 2.299 0.028 3.459 0 6.11-0.211 12.139 0.614 18.172 1.206 0.371 0.028 0.717 0.223 1.539 0.438v0.055c-1.723 2.255-1.428 4.457-1.428 6.752 0.028 5.441 0.149 10.873 0 16.308-0.149 3.675-0.635 7.419-1.152 11.091-1.087 6.971-1.242 13.982-0.493 21.028 0.121 1.061 0.104 2.044 0.164 3.129 0.371 3.487 0.802 6.947 1.097 10.432 0.211 2.401 0.407 4.78 0.438 7.139 0.121 6.673 0.021 13.315 0.109 19.984 0.061 6.483-0.291 12.934-0.659 19.382-0.268 3.781-0.896 7.603-1.758 11.31-1.837 7.575-2.482 15.153-2.032 22.949 0.089 0.744 0.028 1.499 0 2.255 0 0.211-0.075 0.451-0.164 0.768-0.371 0.028-0.812 0.109-1.261 0.109-2.1-0.089-4.161 0.134-6.259 0.438-2.25 0.317-4.523 0.326-6.807 0.219-11.019-0.089-22.089-1.107-33.111-0.768-2.958 0.089-5.915 0.336-8.838 0.547-0.935 0.089-1.879 0.081-2.855 0.109-1.426 0.121-2.843 0.223-4.228 0.438-0.491 0.028-0.939 0.198-1.428 0.109-4.010-0.121-7.96 0.5-11.971 0.715-0.903 0.028-1.81 0.223-2.745 0.438-0.668 0.121-1.34 0.444-1.977 0.547-1.689 0.211-2.784-0.756-2.745-2.417 0.028-1.061 0.243-2.121 0.493-3.129 0.979-3.379 1.548-6.763 1.703-10.323 0.183-3.711 0.799-7.364 1.206-11.036 0.447-4.166 1.006-8.317 0.823-12.517-0.028-1.499 0.311-3.058 0.383-4.558 0.149-1.837 0.328-3.616 0.328-5.381 0.028-5.664-0.055-11.288-0.055-16.91 0-3.825 0.026-7.594 0.055-11.42 0.028-2.848-0.112-5.664-0.438-8.51-0.491-3.973-0.343-7.991 0-11.971 0.183-2.104 0.343-4.198 0.383-6.259 0.089-2.283-0.006-4.612 0.055-6.862 0.183-5.77-0.698-11.383-1.977-16.965-0.268-1.061-0.429-2.065-0.768-3.074-1.275-4.048-1.499-8.215-1.539-12.407 0-1.061 0.226-2.066 0.383-3.074 0.268-1.247 0.874-2.287 1.922-3.074 3.109-2.325 6.054-4.879 8.565-7.908 1.051-1.275 2.565-2.188 3.952-3.238 1.125-0.744 2.493-1.064 3.842-1.042zM598.334 536.916c3.039-0.425 6.076-0.165 9.115 0.164 5.173 0.64 10.385 1.337 15.594 1.977 1.236 0.211 2.441 0.219 3.678 0.219 6.748 0.317 13.514 0.621 20.259 1.042 6.035 0.317 11.921-0.006 17.843-1.206 2.7-0.64 5.476-0.54 8.4-0.219-0.028 0.532-0.021 1.036-0.109 1.428-0.593 2.7-0.533 5.495-0.383 8.236 0.089 1.128 0.603 2.188 0.987 3.238 0.754 1.988 1.112 4.088 1.261 6.148 0.183 3.379 0.352 6.643 0.768 9.939 0.447 3.825 0.425 7.634 0.383 11.42-0.089 8.393-0.191 16.787-0.219 25.147-0.089 12.481-0.075 24.907-0.164 37.389-0.028 6.11 0.425 12.16 1.813 18.117 0.904 3.935 1.221 7.939 1.372 11.915 0.089 1.499-0.133 3.003-0.383 4.503-0.415 2.433-1.941 4.135-4.228 4.999-0.979 0.425-2.006 0.608-3.019 0.715-1.575 0.211-2.994 0.641-4.228 1.648-1.125 0.957-2.401 1.521-3.788 1.922-0.979 0.317-1.934 0.663-2.91 1.152-2.173 0.957-4.411 1.151-6.697 0.768-1.723-0.211-3.383-0.438-5.108-0.438-2.436 0.028-4.744-0.57-6.916-1.539-4.723-2.212-9.745-3.039-14.879-3.571-2.1-0.211-4.198-0.106-6.259 0.438-3.335 0.85-6.707 1.037-10.158 0.933-1.051 0-2.136-0.049-3.183-0.109-4.647-0.121-9.335-0.099-13.946 0.659-2.772 0.425-5.481 0.193-8.181-0.548-2.512-0.64-5.009-0.925-7.632-0.715-0.447 0.028-0.939 0.13-1.428 0.219v-0.164c-0.447 1.061-0.815 1.891-1.261 3.019-0.756-0.028-1.578 0.131-2.255-0.109-4.31-1.426-8.809-1.421-13.232-1.867-2.172-0.211-4.34-0.289-6.478-0.715-2.173-0.425-4.323-0.547-6.533-0.548-3.039 0.029-6.076 0.106-9.115-0.438-1.387-0.211-2.858-0.326-4.284-0.219-4.010 0.211-7.96-0.176-11.971-0.603-1.315-0.121-2.644-0.121-3.952 0-2.661 0.211-5.299 0.435-7.962 0.219-2.364-0.211-4.776-0.223-7.139-0.438-1.236-0.028-2.495-0.075-3.733-0.164-1.764-0.121-3.582-0.223-5.381-0.438-0.522-0.089-1.063-0.221-1.703-0.328-0.64-1.837-0.476-3.585-0.328-5.381 0.268-2.433 0.56-4.938 0.823-7.413 0.522-4.908 1.065-9.802 1.594-14.715 0.121-0.64 0.191-1.297 0.219-1.977 0.211-7.532 0.491-15.071 0.715-22.565 0.149-3.825 0.239-7.621 0.547-11.365 0.268-3.825 0.28-7.639-0.109-11.42-0.371-3.22-0.425-6.445-0.383-9.662 0-3.75 0.071-7.473-0.659-11.146-0.371-1.872-0.819-3.721-1.152-5.6-0.904-4.719-0.791-9.535-0.274-14.22 0.668-5.695 0.844-11.38 0.768-17.075 0-0.744 0.136-1.471 0.164-2.362 0.903-0.028 1.652-0.219 2.362-0.219 6.785 0.211 13.514-0.5 20.259-0.715 3.447-0.121 6.806-0.762 9.994-2.199 2.815-1.232 5.784-1.758 8.893-1.758 1.387 0 2.858-0.221 4.284-0.328 5.699-0.425 11.38-0.735 17.075 0.219 1.464 0.211 3.003 0.006 4.503-0.055 1.426-0.121 2.858-0.281 4.284-0.493 1.8-0.121 3.582-0.223 5.381-0.438 0.371 0 0.872-0.011 1.097-0.219 1.426-1.426 3.344-1.249 5.108-1.484 1.837-0.211 3.743-0.198 5.655-0.109 5.511 0.211 11.055 0.155 16.527-0.493zM736.307 543.504c-0.268 0.089-0.56 0.081-0.823 0.109-2.1 0.64-4.215 1.159-6.424 0.987-1.051-0.089-1.519 0.532-1.484 1.648 0 1.35 0.136 2.66 0.164 4.007 0.121 3.711 0.185 7.44 0.274 11.146 0.149 6.556 0.463 13.095-0.164 19.656-0.121 1.308-0.286 2.653 0.164 4.116 4.347 1.35 8.865 0.555 13.287 0.768 0.522 0.028 1.051-0.223 1.758-0.438-0.911-2.884-0.939-2.949-0.603-5.874 0.149-1.232 0.251-2.447 0.219-3.678-0.089-3.22-0.239-6.499-0.438-9.716-0.121-2.176-0.312-4.386 0.438-6.478 0.371-0.957 0.269-1.901-0.328-2.691-0.935-1.125-0.914-2.471-0.987-3.788-0.089-2.212-0.196-4.396-0.547-6.533-0.415-2.583-1.093-3.879-4.503-3.238zM299.049 546.14c-0.862-0.028-1.348 0.745-0.933 1.648 0.682 1.35 0.668 2.749 0.328 4.172-0.593 2.848-0.42 5.684-0.274 8.565 0.149 2.658 0.295 5.251 0.438 7.962 0.028 1.499 0.037 3.003-0.438 4.503-0.301 1.061-0.438 2.143 0.274 3.074 0.862 1.201 0.969 2.597 1.042 4.061 0.089 1.988 0.101 3.999 0.383 5.984 0.593 3.935 1.335 4.629 5.272 3.842 2.25-0.425 4.394-1.225 6.752-1.042 0.979 0.089 1.501-0.675 1.428-1.758-0.121-1.988-0.24-3.944-0.328-5.929-0.149-4.462-0.199-8.988-0.328-13.455-0.061-4.76-0.351-9.465 0.109-14.22 0.211-2.059 0.285-4.147 0.164-6.315-0.564-0.211-0.84-0.444-1.097-0.547-4.234-0.744-8.521-0.444-12.794-0.547zM432.137 555.911c1.236-0.028 2.495-0.127 3.733 0.055 3.039 0.425 6.063 0.451 9.059 0.055 2.025-0.211 3.999-0.219 5.984 0.11 2.548 0.425 5.101 0.651 7.687 0.438 0.935-0.089 1.897-0.040 2.8 0.109 1.988 0.425 3.924 0.868 5.984 0.547 0.979-0.121 1.807 0.386 2.143 1.428 0.149 0.425 0.292 0.842 0.328 1.372 0.268 2.548 0.596 5.106 0.715 7.687 0.149 5.844 0.191 11.811 0.219 17.734 0 0.744-0.104 1.499-0.164 2.255-0.028 0.85-0.281 1.688-0.987 2.255-0.862 0.64-1.079 1.532-1.042 2.581 0.183 3.379 0.273 6.791 1.097 10.158 1.275 5.058 1.903 10.273 1.867 15.484 0 4.121 0.021 8.236 0.109 12.352 0.183 6.076-0.326 12.122-1.261 18.117-0.415 2.361-0.583 4.755-0.878 7.084-0.211 2.212-0.426 4.421-0.768 6.588-0.491 3.603-0.478 7.178-0.328 10.817 0.121 2.059 0.158 4.167 0.219 6.259 0 0.532-0.13 1.142-0.219 2.032-1.464 0.121-2.7 0.219-3.897 0.219-3.823-0.211-7.58 0.289-11.365 0.715-2.997 0.317-6.076 0.663-9.115 0.768-9.781 0.121-19.59 0.089-29.372 0-4.085-0.028-8.251-0.283-12.298-0.603-3.935-0.317-7.779-0.149-11.639 0.715-3.522 0.744-7.108 1.138-10.708 1.316-1.051 0.089-2.116 0.040-3.129-0.109-1.988-0.317-2.486-1.060-1.922-2.964 0.593-2.018 0.872-4.115 0.768-6.259-0.061-1.061-0.222-2.063-0.383-3.074-0.301-1.689-0.274-3.375 0.055-5.108 0.301-1.499 0.383-3.003 0.383-4.503 0.268-8.064 0.468-16.211 0.659-24.269 0.089-2.7 0.164-5.337 0.164-7.962v-52.874c0-1.914-0.075-3.741-0.164-5.655-0.149-2.361-0.158-4.779 0.328-7.139 0.71-3.675 2.703-5.391 6.148-5.655 0.682-0.028 1.337-0.109 1.977-0.109 2.772 0.028 5.518-0.239 8.181-0.878 2.548-0.64 5.139-0.763 7.687-0.659 1.051 0.028 2.059 0.132 3.074-0.383 1.125-0.532 2.443-0.435 3.571 0.109 0.862 0.425 1.661 0.326 2.526 0.219 2.361-0.211 4.683-0.55 7.084-0.659 5.022-0.317 10.039-0.5 15.098-0.715zM404.85 557.559c0.121 0.089 0.219 0.219 0.219 0.219 0.211-0.028 0.379-0.13 0.603-0.219h-0.823zM795.275 561.402c0.564 0.089 1.248-0.015 1.813 0.164 2.623 1.061 5.352 1.344 8.127 1.097 1.54-0.121 3.044-0.24 4.394 0.715 2.173-0.121 2.997 1.232 3.897 2.964 1.537 2.89 3.277 5.615 5.491 8.017 0.862 1.061 1.652 2.156 2.362 3.238 2.436 3.558 5.041 6.897 7.855 10.158s5.447 6.58 8.181 9.884c1.087 1.275 1.611 2.815 1.648 4.503 0 5.441 0.14 10.819 0.109 16.255-0.089 2.965-0.429 5.863-0.768 8.784-0.415 4.091-0.452 8.256-0.274 12.298 0.339 5.739-0.008 11.434-0.603 17.129-0.447 4.048-0.827 8.096-0.603 12.188 0.149 3.487-0.179 6.854-1.261 10.158-0.44 1.216-0.659 2.544-0.987 3.842-0.457 0.109-0.644 0.219-0.823 0.219-8.247 0-16.535 0.978-24.818 0.659-2.661-0.121-5.354-0.028-8.017 0-1.275 0-2.405-0.14-3.571-0.659-0.862-0.425-1.81-0.663-2.745-0.768-0.979-0.211-1.552-0.718-1.703-1.594-0.301-1.232-0.603-2.479-0.603-3.678-0.089-3.711-0.066-7.44 0.055-11.146 0.089-3.335 0.385-6.601 0.493-9.939 0.15-3.711 0.308-7.438 0.219-11.146-0.089-4.877 0.071-9.734 0.603-14.603 0.183-1.382 0.164-2.772 0.164-4.228 0-9.104-0.028-18.252 0-27.399 0.028-3.263 0.201-6.487 0.438-9.716 0.339-5.323 0.219-10.655-0.109-15.978-0.15-2.658-0.14-5.307-0.328-7.962-0.089-1.308 0.325-2.408 1.372-3.459zM234.919 564.202c1.051 0.317 2.099 0.725 3.183 1.042 1.499 0.425 2.104 1.467 2.143 2.964v2.581c-0.211 11.693-0.435 23.407-0.659 35.139-0.028 3.711-0.028 7.384 0 11.091 0.028 2.507 0.046 4.992-0.383 7.468-0.268 1.382-0.311 2.772-0.383 4.228-0.268 8.247-0.581 16.535-0.768 24.818-0.089 4.004-0.104 8.009-0.547 12.024-0.339 3.558-0.136 7.218-0.164 10.817 0 0.211 0.026 0.506 0.055 0.823 0.447 2.7-1.072 4.327-3.129 5.6-1.011 0.64-2.003 0.812-3.238 0.493-2.548-0.64-5.083-0.5-7.632 0-2.283 0.425-4.56 0.506-6.807-0.055-0.756-0.211-1.555-0.326-2.307-0.219-3.335 0.028-6.601-0.174-9.939-0.493-1.575-0.211-3.22-0.136-4.832-0.164-2.1 0-2.936-0.172-4.999-1.428v-0.055c0.028-4.643-1.348-9.271-0.933-14.11 0.339-3.558 0.267-7.177 0.055-10.817-0.183-3.527 0.095-7.026 0.493-10.543 0.183-1.39 0.199-2.772 0.328-4.228 0.149-1.689 0.345-3.417 0.493-5.108 0.061-1.316 0.219-2.714 0.219-4.061-0.028-5.769 0.015-11.541-0.164-17.348-0.121-4.567-0.583-9.098-0.878-13.672-0.183-2.658-0.413-5.36-0.603-8.017-0.371-6.068-0.768-12.195-1.097-18.228-0.121-1.914-0.14-3.796-0.109-5.71 0-1.083 0.669-1.655 1.648-1.316 2.733 1.061 5.447 0.668 8.181 0 4.274-1.061 8.573-1.579 12.959-1.428 5.923 0.211 11.812-0.5 17.734-0.715 1.051-0.089 1.303-0.946 2.087-1.372zM628.421 575.24c-1.16 0-2.278 0.13-3.403 0.219-1.201 0.089-2.199 0.654-3.019 1.484-1.387 1.54-2.858 3.040-4.284 4.613-2.173 2.401-3.285 5.236-3.623 8.455-0.121 0.957-0.13 1.92-0.219 2.855-0.301 2.176-0.513 4.321-1.042 6.424-0.522 2.136-0.884 4.271-0.768 6.478 0.268 5.516 0.637 10.98 0.933 16.527 0.089 1.39 0.081 2.859 0.109 4.284 0.089 1.615 0.127 3.218 0.274 4.832 0.121 1.54 0.326 2.993 0.547 4.449 0.149 1.129 0.374 2.267 0.715 3.348 0.415 1.204 0.907 1.537 2.143 1.428 4.122-0.211 8.203-0.681 12.024-2.255 1.499-0.64 2.91-0.755 4.449-0.219 0.339 0.121 0.764 0.253 1.097 0.164 1.201-0.121 2.37-0.446 3.571-0.659v-0.055c0.668-0.744 0.425-1.654 0.383-2.472-0.149-3.781 0.004-7.567 0.715-11.31 0.827-4.611 0.986-9.221-0.328-13.837-0.339-1.201-0.42-2.436-0.493-3.678-0.268-3.335-0.505-6.668-0.768-9.994-0.089-1.499-0.26-3.002-0.328-4.503-0.028-1.201-0.283-2.283-1.097-3.183-0.564-0.64-0.823-1.471-0.823-2.362 0.028-3.369-1.779-6.116-3.238-9.003-0.71-1.35-1.979-2.032-3.515-2.032zM426.701 584.3c-0.982-0.112-1.952 0.136-2.964 0.715-1.8 0.957-3.648 2.031-4.999 3.678s-2.703 3.265-3.897 4.999c-2.25 3.146-3.151 6.662-3.074 10.487 0.089 4.121-0.026 8.202-0.055 12.243-0.028 3.069-0.018 6.132 0.383 9.171 0.339 2.433 0.379 4.938 0.493 7.413 0.028 0.532 0 1.242-0.328 1.539-0.593 0.64-0.493 1.387-0.493 2.143 0.028 4.643 0.109 9.317 0.109 14.001 0 0.532-0.006 1.142 0.055 1.703 0.211 1.39 0.823 2.043 2.255 2.087 1.499 0.089 3.057-0.099 4.558-0.219 1.8-0.211 3.544-0.396 5.381-0.715 4.123-0.744 8.359-0.547 12.517-0.547 0.211 0 0.364 0.055 0.548 0.055 1.461-0.028 1.913-0.672 1.539-1.977-0.183-0.532-0.531-1.062-0.603-1.648-0.211-2.507-0.455-5.083-0.603-7.632-0.121-2.176 0-4.366 0-6.533-0.028-1.499-0.158-3.082-0.219-4.613-0.121-2.059-0.398-4.167-0.438-6.259-0.061-2.804 0-5.664 0-8.51l0.055-0.11h0.055v-3.129c0-4.196 0.057-8.361-0.715-12.517-0.564-3.292-1.484-6.461-2.91-9.497-0.935-1.872-2.139-3.605-3.788-4.999-0.9-0.771-1.873-1.204-2.855-1.316zM737.568 609.829c-0.682 0-1.321 0.078-1.922 0.274-2.059 0.532-4.067 1.157-6.203 0.878-0.522-0.028-1.051 0.336-1.648 0.547l-0.055 0.055c0 1.39-0.028 2.759 0 4.061 0.121 4.654 0.292 9.339 0.328 13.946 0.121 6.451 0.407 12.935-0.219 19.382-0.121 1.308-0.28 2.625 0.11 4.007 1.087 0.532 2.222 0.715 3.348 0.715 3.523 0.121 7.056 0.109 10.543 0.109 0.371 0 0.777-0.391 1.152-0.603-0.089-0.425-0.075-0.774-0.164-0.987-0.668-1.35-0.8-2.653-0.493-4.116 0.301-1.572 0.383-3.263 0.383-4.832-0.089-3.41-0.317-6.858-0.493-10.268-0.121-2.104-0.162-4.187 0.493-6.203 0.371-1.083 0.288-2.061-0.383-2.964-0.756-0.957-0.859-2.049-0.933-3.238-0.089-2.361-0.326-4.735-0.547-7.139-0.028-0.64-0.275-1.269-0.493-1.867-0.564-1.499-1.221-1.876-2.8-1.758zM299.322 614.11c-0.371 0-0.864 0.336-1.539 0.547l-0.055-0.055c0.564 1.837 1.177 3.393 0.768 5.055-0.71 2.804-0.464 5.664-0.274 8.51 0.149 2.548 0.167 5.136 0.328 7.687 0.028 1.426 0.037 2.845-0.438 4.228-0.301 1.061-0.383 2.087 0.328 3.019 0.935 1.201 0.969 2.64 1.042 4.061 0.089 1.914 0.162 3.839 0.383 5.71 0.491 3.75 1.67 4.526 5.381 3.623 2.025-0.532 4.067-1.092 6.203-0.878 1.464 0.089 1.942-0.603 1.758-2.143-0.121-1.232-0.191-2.502-0.219-3.733-0.121-4.568-0.211-9.139-0.328-13.672-0.121-5.058-0.326-10.076 0.164-15.098 0.149-1.426 0.081-2.901 0.109-4.284 0-0.532-0.158-1.063-0.219-1.703-4.459-1.232-8.975-0.561-13.399-0.878zM168.708 698.666c1.688-0.108 3.384 0.152 5.055 0.768 2.398 0.85 4.831 1.037 7.303 0.933 2.661-0.121 5.266 0.146 7.855 0.878 1.764 0.532 3.544 0.7 5.381 0.383 1.689-0.317 3.403 0.11 5.055 0.659 1.651 0.532 3.235 0.933 4.999 0.933 2.172 0 3.873 0.887 4.999 2.855 0.183 0.317 0.407 0.599 0.715 1.042 0.71 0.028 1.39 0.14 2.143 0.11 6.595-0.089 13.188 0.14 19.711 0.659 5.435 0.425 10.798 0.946 16.199 1.372 3.222 0.211 6.44 0.608 9.662 0.715 4.949 0.211 9.932 0.444 14.879 0.547 5.737 0.121 11.38 0.766 17.075 1.372 4.535 0.532 9.044 0.933 13.618 0.933 13.98 0.211 28.022 0.099 42.002-0.659 5.511-0.211 10.979-0.599 16.527-1.042 1.387-0.089 2.806-0.444 4.228-0.548 5.022-0.425 10.113-0.715 15.098-1.097 2.475-0.211 4.94-0.446 7.413-0.659 20.129-1.54 40.341-1.735 60.506-1.703 5.624 0 11.216 0.061 16.801 0 4.048-0.028 7.995 0.404 11.971 0.933 3.222 0.425 6.439 0.768 9.662 0.768 9.408 0.089 18.868-0.011 28.275-0.219 8.657-0.121 17.293 0.178 25.915 1.206 8.882 1.061 17.767 1.986 26.684 2.8 9.183 0.85 18.396 1.533 27.618 1.428 6.035-0.089 11.996 0.187 17.953 0.933 3.599 0.425 7.272 0.55 10.872 0.659 14.581 0 29.163-0.351 43.705-0.878 13.119-0.425 26.211-1.025 39.366-0.493 5.511 0.211 11.016-0.248 16.527-1.097 6.785-0.957 13.567-1.499 20.424-1.977 3.972-0.317 7.96-0.67 11.971-0.987 3.599-0.211 7.183-0.5 10.817-0.715 5.699-0.211 11.396-0.851 17.020-1.648 1.988-0.211 4.054-0.336 6.038-0.547 0.754-0.028 1.435-0.094 1.922-0.823 0.183-0.317 0.783-0.55 1.261-0.659 1.876-0.64 3.78-1.054 5.655-1.758 1.8-0.64 3.633-1.042 5.546-1.042 3.448 0 6.895-0.028 10.268 0 0.979 0 1.975-0.044 2.91 0.164 2.661 0.64 5.391 1.063 8.127 1.316 1.8 0.211 3.618 0.561 5.381 0.878 3.897 0.85 7.779 0.417 11.639 0.11 1.125-0.089 2.207-0.561 3.293-0.878 0.827-0.211 1.661-0.493 2.526-0.493 1.947-0.121 3.395 1.216 3.733 3.129 0.415 2.255 0.855 4.447 1.261 6.697 0.028 0.211 0.199 0.331 0.328 0.438l-0.055 16.143c-0.089 0.089-0.164 0.075-0.164 0.164-0.522 3.069-2.046 5.909-2.8 8.948-0.149 0.64-0.56 1.204-0.823 1.813-0.183 0.532-0.4 1.080-0.547 1.594-0.121 0.425-0.039 0.939-0.219 1.372-1.011 2.433-1.303 4.999-1.372 7.577 0 0.121-0.127 0.284-0.274 0.603-2.283 0.957-4.676 1.867-7.303 1.867-2.283 0.028-4.54-0.028-6.862 0-3.151 0.028-6.278 0.081-9.388 0.109-3.935 0.089-7.816-0.055-11.639-1.152-1.612-0.425-3.419-0.493-5.108-0.493-4.836 0.121-9.716 0.389-14.548 0.493-1.689 0.028-3.365 0.015-5.055-0.164-1.464-0.211-2.059-1.135-1.648-2.526 0.371-1.232 0.975-2.444 1.539-3.678 0.935-1.988 1.299-4.084 1.372-6.371-0.64-0.089-1.123-0.219-1.648-0.219-13.83 0-27.659-0.012-41.455 0.11-3.897 0.028-7.834 0.5-11.693 0.715-5.997 0.425-11.956 0.676-17.953 1.097-9.371 0.532-18.813 0.904-28.22 1.594-11.468 0.744-22.934 1.964-34.48 1.922-3.523-0.028-7.056 0.284-10.543 0.603-7.045 0.64-14.091 1.159-21.14 0.987-4.873-0.121-9.676-0.451-14.548-0.768-6.523-0.532-13.063-0.823-19.656-0.823-13.681 0-27.406-0.043-41.124-0.164-4.572-0.089-9.138-0.613-13.672-0.823-4.198-0.211-8.373-0.55-12.572-0.659-3.039-0.121-6.076-0.109-9.115-0.109-6.897 0.121-13.679-0.399-20.534-0.823-4.459-0.211-8.952-0.253-13.455-0.164-6.259 0.121-12.572 0.254-18.833-0.164-6.748-0.532-13.514-0.995-20.259-1.539-5.398-0.425-10.798-0.827-16.199-1.206-0.682-0.028-1.303 0-2.087 0-0.121 0.532-0.3 1.084-0.328 1.648-0.149 1.572-0.15 3.194-0.383 4.777-0.522 3.069-1.359 3.711-4.394 3.678-3.151-0.121-6.224-0.295-9.333-0.933-3.635-0.744-7.343-0.982-11.091-0.878-5.886 0.121-11.811 0.444-17.734 0.547-2.361 0-4.721-0.043-7.084-0.328-1.575-0.211-3.188-0.631-4.613-1.372-2.623-1.308-3.372-3.33-2.472-5.655 0.522-1.382 0.94-2.861 1.428-4.284 0.268-0.744 0.463-1.427 0.768-2.362h-3.348c-30.396 0.028-60.688 0.13-91.085 0.219-5.997 0-12.012-0.039-18.007-0.219-2.661-0.121-5.299-0.5-7.962-0.715-2.661-0.211-5.299-0.55-7.962-0.659-5.811-0.121-11.632-0.132-17.403-0.328-3.635-0.211-7.007 0.631-10.268 1.977-0.268 0.121-0.45 0.336-0.715 0.547v2.307c0.028 1.39 0.14 2.806 0.109 4.228-0.061 5.694-3.276 10.319-8.674 12.188-1.689 0.532-3.472 1.042-5.272 1.042-6.636 0.121-13.315 0.231-19.984 0.109-3.222-0.028-6.44-0.654-9.662-1.097-2.324-0.317-3.31-1.397-3.459-3.788-0.183-1.943-0.595-3.745-1.539-5.436-0.121-0.317-0.583-0.444-0.878-0.548v-7.413c0.149-0.64 0.364-1.228 0.438-1.867 0.415-2.623 0.871-5.251 1.206-7.908 0.447-2.889 0.858-5.82 0.547-8.784 0-0.64-0.052-1.428-0.438-1.813-0.593-0.64-0.668-1.332-0.715-2.087-0.183-1.872-0.364-3.776-0.547-5.655-0.121-0.957-0.345-1.842-0.493-2.745v-2.255c0.301-0.317 0.783-0.563 0.933-0.987 0.593-1.797 2.087-2.716 3.623-3.459 1.631-0.712 3.31-1.153 4.999-1.261zM687.991 786.897c0.593 0.425 1.232 0.646 1.758 1.206 1.087 1.129 2.264 2.293 3.238 3.571 1.35 1.837 2.535 3.796 3.733 5.71 1.236 1.988 2.815 3.605 4.613 4.999 2.212 1.723 4.383 3.433 6.478 5.272 4.010 3.369 8.314 6.294 12.849 8.948 1.876 1.083 3.96 1.795 5.984 2.581 1.876 0.744 3.82 1.247 5.655 2.032 2.927 1.201 5.875 2.118 8.948 2.8 1.275 0.211 2.527 0.756 4.061 1.316 5.135-1.061 10.188-1.251 13.563-0.548 0.028 0.211 0.196 0.555 0.164 0.768-0.786 2.665-1.87 5.132-3.293 7.577-1.275 2.176-3.181 3.164-5.655 3.238-0.935 0.028-1.919-0.055-2.855-0.055-5.322-0.089-10.671-0.221-16.032-0.328-2.287-0.028-4.523 0.435-6.697 1.206-0.339 0.121-0.7 0.223-1.042 0.438-4.123 1.988-8.264 1.84-12.462 0-2.772-1.232-5.732-1.851-8.729-2.307-4.31-0.744-8.28-2.153-11.803-4.777-1.125-0.85-2.456-1.505-3.733-2.143-1.876-0.957-3.872-0.912-5.819-0.164-0.268 0.089-0.56 0.075-0.823 0.164-4.797 2.255-9.644 4.439-14.439 6.807-2.287 1.157-4.608 2.183-7.084 2.855-1.686 0.425-3.258 1.079-4.832 1.703-6.708 2.922-13.58 5.528-20.589 7.632-9.259 2.816-18.576 2.992-27.947 0.768-6.748-1.647-13.496-3.342-20.203-5.108-3.897-0.957-7.85-1.63-11.859-1.484-1.236 0.028-2.44 0-3.678 0-2.1 0-4.163-0.397-6.148-1.097-0.786-0.317-1.631-0.561-2.417-0.878-1.387-0.532-2.605-0.407-3.733 0.659-1.686 1.468-3.701 2.223-5.874 2.745-1.464 0.317-2.843 0.958-4.228 1.648-2.287 1.128-4.68 1.653-7.194 1.539-2.548-0.089-5.139-0.136-7.687-0.164-6.371-0.121-12.718 0.252-19.055 1.316-3.748 0.64-7.58 0.812-11.365 1.042-4.198 0.317-8.415 0.338-12.572 0.659-2.025 0.121-4.182 0.239-6.093 1.152l-11.971 0.274c-1.762-0.425-3.472-0.868-5.272-1.097-4.385-0.532-8.528-1.837-12.462-3.897-4.76-2.583-9.658-4.982-14.603-7.194-1.911-0.85-3.691-1.925-5.491-3.019-1.575-0.957-3.202-1.176-4.887-0.547-4.611 1.797-9.402 2.215-14.274 2.143-4.010-0.028-8.051-0.102-12.024-0.438-5.66-0.425-11.235-0.183-16.746 0.878-4.985 0.957-9.984 1.676-15.043 1.977-5.584 0.425-11.147 1.41-16.582 2.8-5.211 1.35-10.292 1.242-15.428-0.383-2.811-0.85-5.699-1.686-8.51-2.472-1.947-0.532-3.488-1.484-4.613-3.129-0.371-0.64-0.8-1.282-1.206-1.922-2.1-3.335-5.2-5.307-8.948-6.093-1.575-0.425-3.203-0.659-4.777-0.659-7.832 0-15.667 0.15-23.389 1.261-4.31 0.64-8.594 1.507-12.904 2.255-2.772 0.425-5.447 0.754-8.181 1.206-2.361 0.317-4.759 0.67-7.084 0.987-3.335 0.532-6.637 0.308-9.939 0.11-0.415 0-0.829-0.081-1.206-0.11-0.903-0.211-1.415-0.967-1.261-1.922 0.121-0.744 0.252-1.452 0.438-2.199 0.682-2.136 0.913-4.236 0.603-6.478-0.64-4.271 0.925-4.917 4.449-5.217 1.011-0.121 2.080-0.061 3.129 0 6.673 0.64 13.298 0.326 19.93 0.219 1.8 0 3.602-0.547 5.327-1.097 2.591-0.744 5.012-1.753 7.522-2.581 3.039-0.957 5.792-2.344 8.565-3.842s5.553-2.943 8.4-4.339c2.172-1.061 4.258-2.148 6.093-3.678 1.8-1.54 3.749-2.966 5.436-4.613 1.651-1.615 3.002-3.441 4.503-5.162 0.339-0.425 0.7-0.805 1.042-1.261 1.426 0.317 2.214 1.242 2.964 2.255 0.564 0.744 1.089 1.555 1.539 2.417 1.387 2.7 3.44 4.702 5.874 6.424 0.903 0.532 1.771 1.194 2.636 1.758 1.651 0.957 3.157 2.212 4.394 3.678 1.723 2.059 3.894 3.571 6.371 4.613 1.35 0.532 2.643 1.163 3.952 1.758 2.172 0.957 4.236 2.132 6.148 3.515 1.087 0.744 2.186 1.547 3.348 2.143 2.591 1.426 5.124 2.915 7.523 4.668 2.7 2.059 5.687 2.523 8.948 1.813 4.535-1.061 9.083-2.033 13.618-2.964 3.073-0.64 6.188-1.219 9.224-1.977 3.185-0.744 6.188-1.817 9.115-3.238 1.911-0.85 3.835-1.659 5.819-2.417 2.733-0.957 5.13-2.438 7.194-4.503 1.011-1.083 2.293-1.975 3.571-2.8 1.988-1.275 3.558-2.827 4.722-4.887 0.522-0.85 1.063-1.808 1.703-2.636 1.464-1.837 2.927-1.797 4.503 0 0.339 0.425 0.591 0.743 0.823 1.152 1.275 2.059 3.011 3.614 4.999 4.999 2.848 1.943 5.607 4.019 8.455 5.929 2.283 1.54 4.558 3.078 6.916 4.503 2.172 1.35 4.408 2.625 6.093 4.613 0.979 1.128 2.291 1.8 3.678 2.143 2.512 0.64 5.012 1.234 7.522 1.648 3.073 0.532 6.134 1.137 9.059 2.307 3.039 1.204 6.091 1.326 9.278 0.933 5.584-0.64 11.071-1.789 16.582-2.8 1.499-0.317 3.002-0.668 4.503-0.878 3.375-0.317 6.483-1.446 9.443-3.019 4.647-2.507 8.842-5.699 12.628-9.333 1.612-1.54 2.896-3.51 4.172-5.381 1.275-1.914 2.332-3.907 3.571-5.819 1.35-2.1 2.899-4.037 4.887-5.546 1.837-1.382 2.933-1.926 5.108 0.547 0.415 0.425 0.762 0.961 0.987 1.428 1.011 1.943 2.558 3.325 4.284 4.558 1.876 1.232 3.78 2.512 5.655 3.788 3.185 2.094 6.352 4.189 9.497 6.371 2.172 1.54 4.609 2.66 7.084 3.678 4.010 1.647 8.087 3.198 12.133 4.887 3.039 1.275 6.183 2.060 9.443 2.032 2.962 0 5.878-0.034 8.838 0.055 4.123 0.121 8.163-0.626 12.024-2.199 2.661-1.061 5.299-1.991 7.962-3.074 3.297-1.275 6.707-1.931 10.268-2.199 5.211-0.425 10.387-1.32 15.484-2.417 3.039-0.64 5.798-1.931 8.236-3.842 2.1-1.647 4.051-3.403 6.148-5.055 2.172-1.689 4.396-3.348 6.643-4.999 1.051-0.744 2.248-1.522 3.293-2.307 2.772-2.094 4.787-4.832 5.984-8.127 0.268-0.85 0.491-1.653 1.428-2.255z"></path>
    </svg>