<svg xmlns="http://www.w3.org/2000/svg" viewBox="63.379 127.982 890.233 896.018">
    <path fill="#000000" d="M463.058 127.987c-1.503 0.828-2.913 1.606-4.339 2.362-0.961 0.396-1.906 0.827-2.745 1.261-1.723 0.678-3.329 1.443-4.887 2.087-3.118 1.243-5.929 2.324-8.127 3.403l4.943-3.403c-2.997 2.040-5.542 3.391-8.181 4.832l3.733-0.274c-3.237 1.439-5.812 2.795-6.093 2.199-2.675 2.64 3.65 0.967-2.032 5.6-2.236 0.799-5.256 2.688-8.017 4.284-1.397 0.76-2.775 1.387-3.897 1.867-0.599 0.183-1.044 0.398-1.484 0.438-0.268 0-0.463-0.099-0.659-0.328 0.183-0.028 1.084-0.486 1.648-0.768 0.64-0.339 1.17-0.682 1.648-0.878 0.84-0.478 1.331-0.804 1.648-1.042 0.522-0.522 0.176-0.679-0.274-0.715-0.883-0.211-2.148-0.41 3.293-3.571-2.040 1.359-4.575 2.753-7.855 4.228-0.561 0.028 0.256-0.69 1.042-1.206-0.883 0.336-2.217 0.901-2.417 0.933-0.121-0.028-0.13-0.028-0.219 0-0.121-0.028-0.164 0.025-0.164 0.055-0.268 0.061-1.107 0.183-1.428 0.328-0.919 0.268-1.508 0.631-2.307 0.987-1.558 0.718-3.756 1.527-9.994 1.648 1.247-0.79-0.743-1.265-2.91-1.539 1.387 0.557-1.331 1.809-5.381 2.526-9.395-0.636-10.179 0.878-15.098 0.878l5.6 0.274c-0.875 0.564-2.492 0.897-4.613 1.097-2.201 0.149-5.024 0.278-8.346 0.493-0.24 0.061-0.596 0.149-0.878 0.328-0.211-0.149 0.127-0.448 0.768-0.768-2.44 0.919-3.627 1.276-5.546 1.758-1.84 0.301-3.767 0.643-5.765 1.042-3.918 0.718-8.080 1.65-12.079 3.571-4.719 0.718-1.042-1.895-5.162-1.097-3.996 1.919-6.799 2.667-9.278 3.183-1.236 0.268-2.346 0.435-3.623 0.715-0.643 0.121-1.258 0.299-1.977 0.438-0.374 0.121-0.74 0.155-1.097 0.274-0.678 0.183-1.3 0.416-1.977 0.603-0.643 0.396-1.313 0.812-2.032 1.206-0.403 0.211-0.88 0.547-1.316 0.823-0.924 0.599-1.871 1.34-2.91 2.143 3.719-0.522 4.019-1.121-2.417 4.558l9.662-6.643 8.784-3.403-3.897 2.143c-1.483 0.718-2.181 1.195-4.503 2.199-1.758 1.318-2.367 2.043-3.403 2.964 1.201-0.76 2.481-1.617 3.678-2.417 1.283-0.478 2.535-0.989 3.733-1.428 1.122-0.44 2.115-0.904 3.074-1.261 2-0.84 3.8-1.451 5.162-1.813-5.36 3.081-4.95 2.535-1.867 2.855-1.679 0.028-3.26 0.332-4.777 0.715-0.76 0.183-1.587 0.486-2.307 0.768l-2.691 1.042c-2.115 1.558-4.237 3.098-6.478 4.777-2.115 1.521-4.402 2.928-7.084 4.007l-1.703-3.293c-9.436 4.319-16.47 10.584-25.147 16.582-2.801 1.521-7.087 3.593-11.365 5.272l5.655-1.867c-1.639 2.358-10.259 4.907-15.372 7.908-0.028-1.359-3.565-0.185-6.203 0.055 0.599 0.756-12.097 5.47-12.74 8.51l-2.199 0.659-1.977 1.428-1.484 0.933-2.855 1.813c-11.156 9.716-9.705 14.244-20.259 23.717 2.157-3.916-3.135-0.071 3.019-7.358-3.395 3.278-6.597 6.018-6.038 6.697-0.557 0.268-1.344 0.973-2.143 1.813-0.883 0.997-1.958 2.249-3.074 3.571-1.001 1.84-2.131 3.871-3.129 5.71-0.961 1.596-1.885 3.003-2.8 3.842-0.678 1.961 0.075 3.22-2.855 7.577-0.557 0.374-0.603-0.328-0.603-0.328 0.557 0.336-3.825 7.402-0.109 4.284-2.519 2.236-4.99 5.206-7.468 8.565-1.243 1.596-2.425 3.38-3.623 5.217-1.122 1.679-2.227 3.387-3.348 5.108-1.919 1.718-3.9 3.5-5.819 5.217-2.040 1.723-4.064 3.483-5.984 5.162-3.921 3.237-7.704 5.908-10.982 7.468-4.198 3.916-8.761 8.213-12.959 12.133-2.040 5.796-3.935 11.104-5.491 15.704-0.149-0.718-0.558-0.262 0.164-1.867-5.559 11.753 0.621 8.679-5.655 22.073-4.52 6.356 1.603-7.687-0.715-3.571-1.318 0.149-2.261 1.519-3.183 3.678-0.436 1.080-0.889 2.376-1.372 3.733-0.339 1.243-1.004 3.239-1.042 3.678-0.121 0.336-0.833 1.429-1.594 2.472l-2.143 3.183c-1.483 1.996-3.114 3.819-4.832 5.217l1.261-2.087c-5.637 5.236-9.753 15.842-17.348 25.639 0 0-0.038-0.717-0.547-0.438-0.183 0.643-0.66 1.706-1.539 3.183-0.44 2.358-0.98 5.055-1.539 8.017-0.557 2.675-1.204 5.534-1.922 8.455-1.439 5.839-3.047 11.907-4.449 17.184-0.4-4.001 0.811-5.391-1.428-3.788-1.439 5.195 2.942-0.653 0.109 9.662-0.84 1.362-1.709 3.005-2.91 5.327-1.080 3.198-2.116 5.684-3.238 6.203l0.933-6.752 1.261-3.842c-0.374 0.478-0.831 0.868-1.152 1.428-0.301 0.478-0.549 1.116-0.987 2.199-0.121 0.76-0.27 1.453-0.438 2.255l-0.328 1.922c-0.121 1.276-0.104 2.564-0.164 3.842-0.121 2.563-0.248 5.045-0.768 7.084l-0.878-0.878c-1.919 14.915 0.361 16.074-1.977 31.185-0.028 0.183-0.158 0.491-0.219 0.768 0.183-0.301 0.407-0.519 0.603-0.715 0.149-0.149 0.325-0.26 0.493-0.547 0.028 0.374 0.025 0.496 0.055 0.659 0 8.235-3.209 6.443-3.571 15.317l-3.129 2.032c-0.919 5.877-2.507 20.959-5.108 31.349 0.121-6.238 1.988-18.723 2.91-26.517-0.985 3.81-1.959 9.716-2.91 15.207 0.374 7.64-1.734 16.904-5.055 28.22-1.318-1.080-2.914 1.654-4.558 6.093-0.84 2.201-1.663 4.891-2.581 7.687-1.001 3.161-2.020 6.479-3.019 9.716 0.149 1.157 0.364 2.341 0.547 3.459 0.061 0.801 0.155 1.543 0.274 2.307 0.149 1.439 0.392 2.923 0.493 4.284 0.149 2.64 0.084 4.824-0.274 6.423 1.359 4.956 2.444 10.019 3.403 15.098 0.44 2.563 0.892 5.139 1.372 7.743 0.403 2.759 0.827 5.454 1.261 8.291 1.723 5.355 3.472 10.836 5.272 16.472 1.8 5.475 3.717 11.114 5.874 16.91 0.64-9.395 2.498 6.623 5.655 3.897 0.924 2.397 1.534 4.047 1.977 5.162 0.121 0.84 0.253 1.987 0.164 2.143v0.055l0.383 17.348c-0.478 4.198-1.714-5.236-2.472-4.558 1.679 12.279-0.771 5.396-0.493 13.672 1.122-1.876 2.6 3.959 3.238 11.036l0.219-10.104c2.278 8.075 2.109 11.422 2.032 15.704 0.301 4.756 0.149 8.167 3.515 16.965l-2.526-5.055c1.157 3.358 2.659 9.038 4.339 15.152 0.919 3.077 1.813 6.256 2.691 9.333 0.522 1.483 1.044 3.008 1.484 4.449 0.599 1.6 1.166 3.117 1.648 4.558 0.687 1.483 0.849 1.696 1.206 2.417 0.403 0.599 0.725 1.13 1.042 1.648 0.678 1.080 1.45 2.027 2.087 2.745 0.149 1.639-0.055 3.942-1.813 0.383 2.201 5.797 4.818 11.915 7.577 17.953 2.88 6.238 5.806 12.506 8.565 18.504 1.558 2.157 3.076 4.203 4.558 6.203 1.276 1.835 2.535 3.618 3.733 5.381 2.398 3.515 4.455 6.847 6.093 10.049l-1.648-0.878c2.439 3.198 5.373 4.835 7.413 9.552-0.522 0-1.769-0.846-0.768 0.715 0.478 0.557 1.521 1.731 2.8 3.129 0.599 0.719 1.204 1.446 1.922 2.255 0.718 0.919 1.229 1.427 2.472 3.183 0.883 0.801 1.796 1.708 2.636 2.472 0.678 0.679 1.248 1.279 1.813 1.922l-4.007-2.417c14.313 15.473 24.909 20.524 38.105 32.118-1.961 2.003 9.367 13.852 15.043 19.765l-0.493 0.055c4.319 4.116 8.41 7.776 12.407 11.255 3.836 3.635 7.579 7.043 11.255 10.323 3.761 3.319 7.364 6.567 11.201 9.884 1.837 1.723 3.736 3.403 5.655 5.162 1.001 0.883 1.967 1.769 2.964 2.691 1.118 1.036 2.285 2.102 3.403 3.183 0.44 0.211 0.907 0.561 1.428 0.878 3.319 3.438 8.688 7.715 15.043 12.352 3.237 2.279 6.636 4.716 10.158 7.194 3.879 2.718 7.932 5.475 11.971 8.236 4.639 1.283 9.303 2.608 13.782 3.842 3.996 1.201 7.86 2.425 11.42 3.623-3.202-1.359 1.079-1.98 4.999-1.261 4.999 1.876 14.603 1.784 13.123 4.061l-1.758-0.547c0.478 0.522 1.192 1.057 2.032 1.539 0.374 0.211 0.783 0.476 1.261 0.715 0.599 0.183 0.297 0.129 0.493 0.328-0.211 0.028 1.424 1.079 2.581 1.758 1.283 0.76 2.546 1.543 3.897 2.307 2.722 1.483 5.567 3.051 8.127 4.449l2.8-2.255c2.955 2.598 6.483 5.068 10.323 7.468 1.882 1.201 3.82 2.451 5.819 3.571 2.236 1.243 4.474 2.388 6.752 3.623l6.916 2.307c2.079 0.64 4.166 1.224 6.203 1.867 4.116 1.276 8.222 2.507 11.859 3.623 7.359 2.364 13.359 4.775 16.637 7.413 0.84 0.149 1.042 0.169 2.8 0.603 2.519 0.339 5.297 0.667 8.017 0.987 2.601 0.268 5.15 0.631 7.468 0.715l-0.659 1.703c5.716 1.283 10.275 2.311 14.988 3.348 2.364 0.522 4.76 1.020 7.358 1.539 2.922 0.561 6.052 1.204 9.607 1.922 2.040-0.183 5.876-0.631 10.158-0.987l-3.678 1.594c10.319-0.678 12.65-6.157 22.127-6.916l3.019 2.472 7.855-0.493 8.127-0.328 10.049-1.428 9.497-1.484c6.318-1.080 12.552-2.489 18.668-4.449-0.211 0.436-0.678 1.321-3.515 1.922 2.479-0.403 6.367-0.957 10.487-1.594 2.316-0.121 4.676-0.218 6.916-0.328 2.358-0.149 4.637-0.379 6.478-0.659 3.719-0.522 5.939-1.326 4.777-2.526 0.44 2.358 18.624-1.010 28.22-2.964l-1.316 1.977c7.954-3.276 8.125-3.948 19.437-5.984 2.722-0.121 2.554 1.042-1.042 1.042 9.079-0.183 6.753-2.473 17.788-2.91l-3.897 1.648c4.52-0.522 6.623-0.892 8.181-1.372s2.508-1.007 5.71-2.087c0.028-0.028 0.189-0.185 0.328-0.274 0.76-0.557 1.608-1.247 2.526-1.922 0.718-0.478 1.556-0.924 2.362-1.484 1.679-1.043 3.459-2.14 5.217-3.019 3.438-1.758 6.578-2.955 7.577-2.636 0.519-1.518 4.075-5.307 8.948-7.908 0.961 0.121-0.543 1.461-1.261 2.143 3.202-1.723 5.874-3.454 8.236-5.055 1.201-0.883 2.285-1.617 3.403-2.417l1.484-1.152 0.933-0.715c0.478-0.268 1.919-0.811 3.238-1.206 1.283-0.44 2.507-0.92 3.788-1.316 2.519-0.718 5.096-1.299 8.017-1.539 0.374 0.478 1.018 0.587 1.977 0.547-7.034 1.758-13.175 3.404-16.691 4.284-0.718 0.44-1.275 0.777-1.594 0.933-0.522 0.339-0.704 0.37-0.547 0.274 0.339 0.644 2.507-0.14 2.745 0.219 0.44 0.149 0.64 0.324 0.878 0.603 0.121 0.268-0.028 0.783 0 1.261 0 0.089 0.026 0.218 0.055 0.328 0-0.061 0.025-0.218 0.055-0.328 0.519-0.183 1.002-0.42 1.484-0.659 1.122-0.44 2.248-0.962 3.403-1.484 2.322-0.961 4.785-1.978 7.303-3.019 5-2.040 10.224-3.865 14.824-4.668 0.478 0.028 0.924 0.043 1.316 0.164l-0.933 0.383c2.201-0.403 4.224-1.036 5.984-1.758 1.518-0.268 2.771-0.53 4.007-0.768 1.397-0.268 1.895-0.394 4.777-1.097 0.522 0.149 1.711 0.038 3.515-0.328 1.036-1.036 2.35-2.428 3.788-4.061 0.804-0.961 1.645-1.94 2.526-3.019 1.723-2.079 3.596-4.243 4.832-5.765-1.639-0.799 2.731-5.682-2.307-1.922 0.599-0.558-0.464 0.901-2.581 3.459-0.403 0.637-0.914 1.318-1.152 1.758 0-0.121 0.025-0.267 0.055-0.438l-6.478 7.908-5.491 1.484c1.122-0.643 3.375-1.499 5.055-2.143 0.599-0.84 1.224-1.707 1.867-2.581 0.522-0.682 1.102-1.477 1.703-2.199 0.997-1.283 2.199-2.479 3.678-3.678 0.76-2.716 1.695-5.632 2.255-7.194 6.318-3.599 15.854-12.839 18.172-13.232 1.6-2.122 3.237-4.38 4.999-6.697 2.397-2.040 4.865-4.166 7.303-6.203 2.601-2.278 5.084-4.452 7.522-6.533 4.76-4.358 8.813-8.49 11.091-11.971 3.118-2.997 4.439-2.311 6.038-2.91-1.8 1.835-4.125 3.631-4.887 4.832 6.037-6.275 20.514-15.288 20.753-18.449 9.512-5.44-3.759 5.291 8.236-3.623l-1.206 1.703c3.198-1.679 6.080-3.417 8.838-5.217 1.362-0.961 2.69-1.867 4.007-2.745 1.639-1.201 3.274-2.369 4.832-3.571l1.977-3.678 1.261-2.526 2.255-5.055c1.483-3.358 3.021-6.707 4.503-10.104 2.997-6.679 6.531-14.062 10.655-20.698 2.88-2.68 7.072-6.311 11.31-9.388-1.8 1.397-2.642 2.117-3.238 2.199 4.358-3.836 8.608-7.873 12.849-11.915l6.259-6.259 6.643-6.533c8.718-13.952 16.031-26.288 24.982-40.080l2.636-8.127 2.636-7.577c1.8-5.078 3.713-10.002 5.71-14.879 2.922-7.636 2.864-10.047 3.183-14.165 0-1.080 0.109-2.321 0.109-3.842l2.307-1.813 0.219-11.091c1.876-15.43 10.308-25.091 12.024-44.802l-1.813 2.199c1.876-6.796 4.498-21.89 5.655-20.371-0.028-0.801-0.783-2.492 0.493-5.055h1.097l0.328-2.526 0.603-3.403-1.316-3.678v0.164l-1.042-2.855-2.255-5.765c-2.801-13.075 4.439 1.051-0.438-17.898-2.322-6.916-8.26-19.218-8.181-16.418 0.718 2.836 1.363 7.384 0.438 7.908l-2.199-6.259c-0.183-0.028-0.459-0.049-0.659-0.109l-0.328-1.042 9.333-45.845-8.236-30.747 0.715 0.603-1.097-2.087-2.636-9.772c0.396 0.183 1.005 0.995 1.648 2.91-0.211-2.88-0.638-4.307-1.152-5.71-1.16-1.996-2.070-2.643-2.91-6.643-0.121-0.76 0.172-0.551 0.548 0l-3.733-6.203c1.080 1.036 1.208-1.891 2.691 2.307-4-12.392-10.575-18.1-10.817-23.334l0.659 0.878c-6.238-11.874-4.452-6.259-6.533-7.743l-0.109-0.328-1.097-7.799 2.472-6.643-2.143-1.539c-0.183-1.8-0.471-5.449 0.383-4.887-2.196-6.636-0.715 1.27-2.472-2.526 0.436-6.959-1.913-16.879-2.032-23.115-0.997-1.758-1.606-3.21-1.206-4.007-3.198-1.8 4.355 7.812-2.362 0.493 1.036-4.198-6.973-8.502-10.655-15.978 2.88 0.997 6.709 7.765 3.074 0.328-5.238-2.236-8.879-13.127-13.399-18.284-2.122 1.118-9.54-11.551-16.856-20.424 1.080 0.121-11.697-18.292-16.856-27.728l0.438 0.055c-3.077-0.4-8.932-9.744-13.891-16.143 1.318-0.519 2.644 0.36 5.6 3.623l-4.228-6.315c-1.639-1.036-3.242-2.817-6.203-6.697l2.526 0.659-2.255-3.019-3.074-2.581-2.691-2.199c-1.8-1.439-3.736-2.983-5.655-4.503-3.836-3.157-7.773-6.553-11.693-10.872-1.118 0.522 1.337 4.995-0.328 5.272l-5.108-4.777c0.557-0.211 1.428-0.071 2.91 0.987-0.961-0.718-3.627-2.238-5.108-4.116l5.055 2.636c-3.917-4.475-3.134-1.184-6.533-4.503 0.961-0.84-1.876-3.011-0.715-3.293 0.961 0.718 2.659 3.13 4.339 4.007-1.876-1.837-4.32-4.355-5.436-5.874-0.801-1.6-1.984-3.946-2.143-4.943-0.336 0.84-1.368 1.119-3.842-1.922-6.119-7.995-0.9-3.708-3.897-8.784-2.157-1.397-5.321-7.054-6.916-6.093-1.762-2.358-1.424-3.266-1.703-4.503-1.039-1.001-2.603-2.915-4.284-4.999-1.996-2.439-4.060-5.103-5.819-7.303-6.119-1.518-7.682-1.572-5.6 0l1.484 0.547c-0.339-0.028-0.687-0.158-1.042-0.219-7.077-1.236-14.102-3.322-21.14-5.6l-10.543-3.515c-3.358-1.122-6.552-2.201-9.828-3.238l-2.8-2.417-3.293-2.636 0.383-0.438c-8.155-6.035-17.362-14.346-23.717-18.062-2.278-1.919-4.622-5.444-3.183-5.162-0.919-0.687-1.751-1.359-2.307-1.758-1.439-0.599-2.626-1.044-3.788-1.484-1.080-0.436-2.105-0.892-3.183-1.372-2.199-1.080-4.721-2.492-8.838-5.055 7.476 2.48-1.991-2.025 7.522 2.855-8.798-4.957-10.415-6.876-20.807-10.158 3.957 0.149-5.731-5.132-10.487-6.972l5.929 4.228c-1.397-0.599-2.724-1.208-4.007-1.813-1.479-0.718-2.938-1.477-4.339-2.199-2.397-0.374-4.638-0.643-6.916-1.042l2.8-1.758c-9.955-2.598-19.234-2.682-27.947-2.964-4.319-0.121-8.495-0.303-12.572-0.823-4-0.564-7.78-1.868-11.42-3.623-5.596 0.396 10.784 3.138 5.71 3.897-9.199-2.082-18.274-6.951-21.195-7.468-5.117-1.521-8.137-1.676-10.817-1.594-1.362 0.061-2.548 0.158-3.952 0.219-0.678 0.028-1.492 0.028-2.255 0-0.883-0.028-1.463-0.034-3.019-0.274-0.961 0-1.975 0.055-3.129 0.055-1.001 0-2.12-0.075-3.403-0.164 1.762 0.799 3.4 2.751-6.752 3.348-9.436-0.44-11.598-3.323-5.6-3.842 2.278-0.028 3.377 0.206 3.293 0.493 3.081-0.211 7.049-0.491 3.293-1.372l-1.261 0.768c-4.676-0.883-17.668-0.995-14.548-2.199-7.196 0.643-3.172 1.166 2.143 1.648-7.833-0.875-13.813-0.743-19.93-0.823-2.88-0.183-6.839-0.575-11.036-1.206 1.954 0.599 3.719 1.626 1.758 1.428-18.188-2.601-8.144 0.669-20.534-0.109-6.918-1.758 2.742-2.48-9.772-2.636-7.556-1.483-1.447-2.11 1.594-2.472-1.362 0.028-2.69 0.028-4.007 0l-2.8-0.164c-1.103-0.119-2.177-0.194-3.238-0.328h-0.055zM426.934 212.761c4.61 0.64 6.469 3.729 10.708 5.6 6.673 2.996 11.732 6.965 16.418 12.74 6.035 7.425 11.556 14.832 17.515 22.292 1.689 2.136 3.858 3.444 5.546 5.546 2.139 2.623 3.627 5.544 5.874 8.127 2.927 3.369 6.319 5.601 9.171 8.893 3.635 4.344 7.672 8.157 11.42 12.243 1.723 1.872 2.657 4.103 4.228 5.929 1.236 1.426 4.887 4.587 3.348 7.139-0.71 1.201-6.041 1.891-7.468 2.199-2.927 0.532-5.404-0.060-8.4 0.715-4.459 1.157-8.449 2.955-12.572 4.943-6.186 2.965-12.275 4.309-18.007 8.4-13.043 9.372-29.443 13.231-42.935 21.963-1.316 0.869-2.85 1.66-4.284 2.472 0.011 0.308 0.051 0.631 0.055 0.933 0.089 5.622-0.971 11.301-0.109 16.965 0.564 4.121 2.517 6.959 5.217 10.104 5.472 6.371 11.454 12.236 16.965 18.614 10.795 12.447 20.141 26.084 29.098 39.915 8.247 12.895 16.989 24.856 26.959 36.402 7.87 9.183 13.739 19.751 21.799 28.827 0.373 0.42 0.88 0.792 1.261 1.206 5.898-2.947 11.809-5.816 17.679-8.893l102.618-55.234c13.381-6.448 25.704-13.315 38.599-20.698 14.919-8.507 30.866-15.533 46.118-23.553 12.18-6.412 24.571-12.654 36.676-19.327 7.196-4.051 16.66-8.375 22.62-13.891 2.285-2.147 3.268-4.938 5.929-6.807 3.41-2.435 7.928-3.314 11.639-5.819 3.297-2.212 7.575-5.885 11.584-6.093 1.237 3.375-7.012 8.912-10.049 12.024-2.324 2.39-4.271 4.168-7.194 5.929-4.197 2.465-3.181 3.136-5.546 5.984-2.815 3.335-10.599 7.357-14.493 9.939-9.709 6.595-19.46 13.029-29.317 19.437-19.415 12.63-41.159 22.458-60.725 34.863-18.402 11.659-36.328 23.474-55.070 34.753-22.527 13.493-43.886 27.576-65.774 41.893-8.095 5.282-16.732 9.647-25.256 14.165 9.227 7.7 18.688 15.422 27.014 23.884 0.606-0.195 1.179-0.385 1.813-0.547 3.073-0.744 5.178-2.436 8.4-3.074 3.522-0.744 4.411-0.846 7.522 1.813 3.973 3.335 7.828 7.047 11.915 10.268 2.66 2.167 5.723 3.479 8.346 5.655 3.559 2.881 6.85 6.511 9.772 9.994 3.185 3.856 6.251 6.911 10.487 9.607 3.335 2.137 5.806 4.955 8.729 7.577s6.318 4.268 9.278 6.697c3.073 2.593 5.513 5.74 8.51 8.291v0.055c2.1 1.764 3.823 2.669 5.546 4.999 3.672 4.953 6.927 9.156 11.201 13.618 3.298 3.411 6.176 7.015 8.948 10.872 7.045 9.894 15.527 18.859 22.346 28.827 7.084 10.347 13.274 20.899 21.633 30.418 5.135 5.962 9.957 12.313 15.317 18.007 3.109 3.369 6.467 6.282 9.388 9.884 5.623 6.899 11.219 13.816 16.691 20.753 2.847 3.527 6.373 6.217 9.333 9.552 4.347 4.831 8.708 10.042 12.794 15.098 2.815 3.444 4.628 7.217 7.028 10.927 4.423 7.011 6.58 14.959 9.278 22.565 2.138 6.035 5.48 12.643 6.533 18.723 1.087 6.448 0.28 13.132 0.768 19.656 0.599 6.638-1.621 15.316-8.181 16.856-4.498 1.083-10.427 3.115-15.372 2.691-2.772-0.211-5.587-0.538-8.4-0.659s-4.508 1.123-7.468-0.109c-1.8-0.756-3.636-2.031-5.436-3.183-2.436-1.602-4.412-1.65-6.697-3.678-3.784-3.487-7.487-6.947-11.31-10.432-5.323-4.907-11.207-9.103-16.418-14.055-2.362-2.283-4.9-4.288-7.413-6.423-2.476-2.212-4.463-4.894-6.972-7.028-4.836-4.053-10.459-7.454-15.484-11.31-2.622-2.019-5.302-3.965-7.855-5.984-3.823-3.103-6.543-6.471-9.994-9.884-6.223-6.224-12.472-12.516-19.108-18.284-7.645-6.56-14.284-14.118-21.743-20.862-8.583-7.757-17.19-14.007-24.763-23.003-8.207-9.745-15.101-20.765-22.784-30.966-16.94-22.451-36.255-43.055-52.708-65.995-3.824-5.398-7.036-11.215-10.599-16.801-1.011-1.573-2.367-3.378-2.636-5.217-0.526-3.369 2.429-7.618 4.228-9.828 1.751-2.136 2.867-4.467 3.897-6.916-2.613-4.027-5.163-8.1-8.072-11.859-7.777-10.198-15.555-20.434-23.443-30.637-2.983 1.734-5.964 3.463-8.948 5.162-20.616 11.692-40.963 24.108-61.164 36.402-10.87 6.673-21.805 13.356-32.45 20.371-1.233 0.815-2.507 1.632-3.733 2.472 0.143 0.326 0.449 0.588 0.547 0.933 0.522 1.689-0.159 3.948 0.11 5.71 0.371 2.507 1.877 3.067 0.274 5.162-1.8 2.325-7.008 4.224-9.443 5.381-4.797 2.283-9.736 4.368-14.384 6.916-12.030 6.374-25.63 8.963-37.773 15.372-6.748 3.558-12.9 7.931-19.273 12.133-6.186 4.048-12.759 7.164-18.833 11.365-8.733 6.076-17.264 12.355-26.408 17.679-6.86 4.004-12.009 7.802-17.403 13.727-2.436 2.7-3.432 5.913-5.381 8.729-2.299 3.22-4.881 7.247-5.929 11.31 0.272 0.469 0.733 0.841 0.987 1.316 2.548 4.722 6.182 8.639 8.729 13.399 2.1 3.857 3.942 7.385 6.752 10.872 4.648 5.844 10.375 9.843 15.923 14.824 1.8 1.573 4.020 2.325 5.71 3.897 1.611 1.499 2.244 2.671 4.116 4.061 3.747 2.703 4.554 4.327 9.388 3.897-4.423 4.681-10.903 7.532-14.988 12.407-1.576 1.837-1.884 4.408-3.459 6.203-1.16 1.424-2.955 2.044-4.116 3.348-1.649 1.977-1.779 3.838-3.952 5.381-4.386 3.144-7.25 4.839-12.684 3.074-6.56-2.102-13.828-4.362-19.601-8.072-5.211-3.371-10.288-7.566-14.824-11.803-6.595-6.035-13.328-10.973-18.614-18.284-10.159-14.13-21.588-28.189-28.111-44.419-8.247-20.651-12.752-41.496-17.624-63.083-2.884-12.687-4.691-25.775-5.108-38.764 2.843 3.187 2.719-0.495 2.691-4.172-0.076-4.799-1.611-8.929-1.703-13.837-0.129-3.187-0.538-6.584-0.328-9.772 0.039-0.681 0.771-6.114 1.484-6.643 2.25-1.425 8.932 2.392 11.255 3.348 4.648 1.775 8.667 1.583 13.618 1.372 2.138-0.107 2.684-0.027 4.449 0.823 3.152 1.753 2.111 1.955 2.526 5.929 0.301 2.846 1.471 4.931 1.648 7.855 0.076 2.137-0.049 4.048 0.438 6.148 1.387 6.672 1.598 13.422 3.623 20.094 1.912 6.147 2.563 12.765 5.6 18.504 1.155 2.202 2.115 4.29 3.183 6.315 4.959 0.196 10.090 0.219 14.824-0.109 5.022-0.425 9.823-1.701 14.771-2.636 4.121-0.744 8.602-0.279 12.462-1.758 14.019-5.516 27.098-13.092 40.628-19.765 11.243-5.516 22.662-10.848 33.383-17.294 15.481-9.372 33.948-16.899 47.329-29.153 4.119-3.79 10.305-6.325 15.649-3.348 13.534-8.017 26.923-16.255 40.518-24.159 16.115-9.445 31.813-19.712 48.040-28.934 6.055-3.213 12.365-5.905 18.559-8.838-15.723-21.427-31.244-42.978-48.918-62.974-14.506-16.453-29.652-32.579-46.67-46.451-5.66-4.687-11.313-9.787-17.459-13.836-3.689-2.462-7.722-5.079-11.859-6.697-0.311 0.215-0.622 0.443-0.933 0.659-9.821 6.819-19.773 13.083-28.056 21.743-7.196 7.576-13.119 16.284-18.887 24.982-1.8 2.7-3.971 4.93-5.546 7.855-1.236 2.212-2.267 5.134-3.952 6.972-2.475 2.658-4.676 1.639-7.303 0.109-3.446-1.988-7.073-4.523-9.884-7.413-3.635-3.781-6.43-8.433-9.994-12.298-5.173-5.769-10.704-11.281-15.54-17.239-7.645-9.327-13.244-20.122-21.304-29.153-3.151-3.602-6.204-7.308-9.278-10.982-1.236-1.468-2.372-3.052-3.459-4.668-0.903-1.35-3.785-4.37-3.897-5.984-0.211-2.965 9.456-6.219 12.794-7.303 4.423-1.426 9.045-2.336 13.508-3.571 4.048-1.201 8.090-2.576 12.024-4.116 4.535-1.797 8.907-3.823 13.068-6.371 7.123-4.314 14.95-6.636 22.073-10.872 6.223-3.633 13.188-5.66 19.711-8.729 3.109-1.468 5.513-3.839 8.51-5.381 4.572-2.325 9.475-2.368 13.672-5.819 2.364-1.914 4.056-4.060 6.752-5.6 2.512-1.426 4.92-2.818 7.358-4.284 2.283-1.308 3.999-2.721 5.984-4.339 2.025-1.572 3.265-1.574 5.327-2.581 2.548-1.35 3.943-3.439 6.752-4.449 2.7-1.061 4.34-2.496 6.478-4.558 2.848-2.74 4.166-6.252 6.038-9.662 6.11-11.171 14.385-23.622 23.717-32.395 5.322-4.908 13.385-8.657 17.020-15.098 1.426-2.507 1.92-5.475 3.459-7.908z"></path>
    </svg>