<svg xmlns="http://www.w3.org/2000/svg" viewBox="105.805 -37.332 808.516 1102.323">
    <path fill="#000000" d="M675.139 484.919c-28.434 8.248-54.089 6.574-82.797 2.429-8.879-1.109-15.449-2.739-18.655-6.685-2.893-3.681-2.584-9.656 2.306-19.282 5.011-9.933 13.727-17.874 22.605-24.443 16.621-12.515 36.489-21.081 55.888-28.083 31.641-11.302 86.786-20.181 117.8-3.092-12.359 39.894-59.409 68.169-97.15 79.16zM569.697 645.196c-19.672-3.092-44.742 1.364-57.413 16.934-14.665-18.185-43.1-23.817-63.553-12.515l-5.356-0.666c0 0 53.777-28.237 65.98-101.453 1.684-9.468 3.359-9.313 4.767-0.111 11.302 73.604 62.145 97.306 62.145 97.306-3.482-1.208-3.048 0.888-6.574 0.444zM344.535 484.863c-37.741-10.987-84.791-39.267-97.188-79.16 30.857-17.090 86.161-8.216 117.644 3.092 19.555 7.007 39.423 15.566 56.085 28.083 8.835 6.574 17.56 14.509 22.605 24.443 4.89 9.624 5.2 15.606 2.118 19.282-3.048 3.948-9.779 5.632-18.617 6.685-28.707 4.147-54.402 5.832-82.641-2.429zM829.586 236.43c-7.627 5.511-13.61 13.61-16.505 22.762-1.109-24.288-10.832-47.949-26.87-65.509-2.772 5.632-5.511 11.146-8.248 16.621-5.511-2.106-11.928-0.888-16.818 2.772-0.111-0.333-0.333-0.444-0.444-0.666-1.84 13.923-2.893 26.438-2.584 33.909 0.444 8.248 7.472 75.796 20.297 76.695-99.613-6.885-190.663 42.473-230.045 106.654-2.616-32.696 43.685-73.332 80.958-93.201 37.272-20.025 72.119-24.13 116.547-34.69-9.146-31.328-8.68-84.321 5.356-125.114-2.893-13.767-9.313-26.751-10.088-38.953-2.893 5.045-11.891 22.138-14.823 27.026-12.045-18.93-11.302-42.629-22.293-63.71-0.888 1.84-1.84 3.681-2.739 5.511-4.301 8.724-8.569 17.874-13.923 25.813-14.354-21.98-13.728-40.165-30.546-66.449-3.992 15.879-7.937 31.757-12.086 47.519-8.093-13.299-17.718-26.438-24.13-40.793-3.681 2.15-6.885 5.045-10.243 7.627-5.943-2.429-9.146 10.566-11.146 18.813-2.118-0.777-4.268-1.408-6.419-1.84-7.782-10.721-20.141-30.271-23.661-35.161-5.356 5.676-7.35 17.874-10.987 27.064-5.2-0.888-10.398-1.684-15.762-2.306-5.2-17.248-17.090-33.009-33.596-44.156-10.566 19.126-21.705 28.589-33.32 44-4.257 0.444-8.525 1.208-12.828 1.684-7.316-7.472-18.931-16.192-18.931-16.192s-11.459 15.135-17.874 24.443c-2.616 0.666-5.356 1.208-7.937 1.995-11.929-4.89-20.339-11.616-25.538-22.451-5.632 14.822-19.398 26.557-23.975 42.905-7.472 3.837-14.979 8.093-22.137 12.397-7.982-5.987-16.661-17.287-24.17-23.075-1.795 17.561-8.093 33.909-7.151 44.898-0.777 0.444-1.529 1.109-2.306 1.684-5.787-6.995-14.198-16.192-17.874-21.51-5.356 13.414-20.454 40.165-22.605 56.045 9.933 38.642 9.146 84.321 0.888 112.286 44.469 10.554 79.316 14.665 116.589 34.69 37.273 19.868 84.321 60.504 81.741 93.201-39.58-64.181-130.628-113.536-230.086-106.654 12.829-0.888 19.712-68.443 20.339-76.695 0.222-7.937-1.109-22.137-3.092-37.586-0.444 0.666-0.888 1.109-1.529 1.684-0.111-13.299-3.048-25.971-10.055-37.116-0.888 4.579-1.684 9.146-2.616 13.767-12.515 20.61-24.914 41.222-37.429 61.873-1.995-1.995-3.948-3.837-5.943-5.676-7.937 39.267-11.032 79.588-9.468 119.795-4.456 29.489-5.676 59.409-4.611 89.053 1.684 38.953 25.538 158.592 50.296 174.627 45.526 29.645 69.656 98.087 83.697 147.133 14.979 51.469 45.525 94.567 64.023 144.668 7.040 19.555 14.98 41.378 35.123 52.566 24.914 13.884 59.448 10.211 86.785 8.371 0.444 0 0.888-0.111 1.364-0.111 0.444 0 0.888 0.111 1.375 0.111 27.494 1.84 61.873 5.511 86.785-8.371 20.181-11.187 28.121-33.011 35.277-52.566 18.342-50.101 48.888-93.201 63.71-144.668 14.236-49.046 38.211-117.489 83.892-147.133 24.758-16.035 48.575-135.674 50.101-174.627 0.666-10.832 0.666-21.862 0.444-32.853 4.579-60.817 4.579-122.064-0.111-182.879z"></path>
    </svg>