<svg xmlns="http://www.w3.org/2000/svg" viewBox="55.300 29.865 977.558 977.031">
    <path fill="#000000" d="M588.198 525.968c3.093 5.382 3.185 8.122 2.647 14.18-1.076 11.35-7.401 18.487-17.184 24.002l7.312-4.174c-0.626 5.969-3.497 10.729-9.873 12.613-2.556 0.761-3.677 0-6.417 1.167-2.020 0.857-3.272 1.885-5.336 2.556-0.899-0.583-1.885-0.67-2.918-0.228-0.941 0.586-1.885 1.211-2.824 1.794-2.020 0.541-3.411 0.678-5.521 0.765-3.949 0.162-7.182 1.794-11.082 1.701-4.265-0.032-6.777-0.228-9.468-3.72-2.511-3.367-4.263-7.674-6.37-11.354-3.815-6.596-6.599-15.752-3.858-23.648 5.699-16.512 18.307-33.97 36.704-37.913 9.559-2.065 22.122 1.881 27.419 10.185 2.467 3.856 4.486 8.077 6.775 12.069zM602.249 484.051c-2.735-2.83-5.744-3.367-9.156-5.431-3.451-2.108-6.686-3.59-10.589-5.157-5.565-2.292-12.385-3.679-18.354-2.065-3.321 0.896-6.191 1.167-9.514 2.331-3.14 1.076-6.417 1.932-9.6 2.961-6.465 2.065-11.802 4.982-17.726 8.345-4.532 2.559-9.2 5.073-13.687 7.72-5.251 3.097-7.584 7.405-10.857 11.98-4.265 5.922-9.963 13.061-10.142 20.73 0.13-0.293 0.325-0.583 4.038-4.575-2.427 5.162-5.251 10.992-6.913 16.288-5.431 17.188-1.3 36.256 7.63 50.884 2.244 3.725 5.565 7.093 9.061 9.737 3.636 2.735 7.763 3.097 11.98 4.621 8.574 3.097 17.278 6.688 26.071 9.021 3.679 0.988 7.136 0.809 10.997-0.196 5.068-1.395 10.813-1.707 15.702-3.456 10.639-3.858 20.013-11.309 27.419-19.476 12.608-13.906 21.362-33.876 23.38-51.781 1.076-9.468 0.032-19.833-4.355-28.18-2.287-4.397-3.72-9.021-5.92-13.419-2.11-4.217-6.196-7.494-9.468-10.857z"></path>
    <path fill="#000000" d="M579.267 117.177c-12.654-4.622-24.499-5.744-37.823-5.833-15.124-0.097-30.467-1.479-45.502-0.537-27.684 1.794-55.327 4.666-82.433 10.813-11.53 2.607-23.109 4.534-34.461 7.899-7.356 2.244-13.727 6.147-20.55 9.827-11.036 5.923-22.75 10.5-34.102 15.616-8.481 3.858-17.051 6.147-24.678 11.98-7.088 5.336-14.044 10.946-20.418 17.319-3.995 3.949-7.405 8.708-11.579 12.476-5.565 5.023-11.53 8.749-16.646 14.492-4.934 5.562-9.289 11.802-14.403 17.14-4.038 4.217-8.39 7.943-11.443 13.105-3.318 5.694-4.979 12.385-7.494 18.532-3.588 8.703-2.824 13.821-2.378 22.84 0.368 7.494-2.423 17.232 0.586 24.365 3.677-1.753 8.48-11.937 11.172-15.841 6.866-9.778 14.989-17.273 22.57-26.296 4.714-5.562 10.185-9.778 15.304-14.851 4.845-4.8 8.839-10.678 13.732-15.393 4.353-4.127 9.963-7.58 14.538-11.395 8.212-6.823 17.86-12.518 24.904-20.778 12.069-14.269 27.374-19.92 44.783-24.724 7.093-1.973 14.269-2.199 21.226-4.8 10.633-3.949 21.088-8.613 31.816-12.385 11.082-3.858 22.524-5.565 33.876-8.301 10.951-2.651 21.898-5.431 33.073-6.645 14.492-1.566 30.109-3.769 44.694-3.185 15.573 0.583 31.051-0.032 46.398 3.185 6.729 1.391 14.987 6.598 21.809 5.431 2.153-0.407 4.084-1.753 6.191-2.331 4.711-1.256 11.126 2.827 14.94 0.196 0.196-5.789-9.783-9.425-13.509-11.443-4.755-2.603-8.839-6.058-13.773-8.212-3.411-1.483-6.645-3.181-9.784-4.8-1.215-0.63-2.289-1.037-3.456-1.574-1.661-0.717-5.298-3.59-6.909-3.048-0.032 0.583-0.066 1.12 9.735-2.875z"></path>
    <path fill="#000000" d="M377.747 793.183c1.707 0.368 3.497 0.626 5.426 0.717 8.977 0.325 17.636 3.636 26.476 1.435 7.046-1.707 14.044-2.603 21.047-3.278-1.124-5.879-7.405-7.763-11.891-10.544-5.162-3.228-7.674-8.166-13.194-11.125-2.423-1.303-4.711-1.661-7.044-3.053-2.603-1.527-5.119-3.278-7.674-4.979-1.932-1.215-4.038-3.546-5.879-6.238-10.006-8.708-18.397-19.162-24.993-30.288-4.893-8.17-12.474-14.587-17.367-22.798-2.781-4.666-5.516-9.241-8.077-14-2.511-4.666-6.371-8.345-8.972-12.967-3.726-6.596-5.969-13.866-10.006-20.372-2.468-3.995-6.371-7.584-8.077-11.98-1.527-4.038-2.020-8.793-1.794-13.105 0.364-6.417-1.753-12.206-3.093-18.711-2.694-12.744-4.038-25.891-2.472-39.084 0.857-7.225 3.009-14.269 5.028-21.316 1.434-4.845 2.781-9.694 4.038-14.538 3.093-12.25 9.605-24.499 11.579-36.661 1.837-11.354 11.574-20.64 18.035-30.064 8.212-11.937 14.541-25.036 23.516-36.525 3.949-5.029 8.122-10.589 12.922-15.035 4.581-4.217 9.2-9.466 14.498-12.833 11.573-7.225 22.212-15.706 33.832-22.793 5.879-3.59 12.026-6.913 18.535-9.336 3.048-1.167 6.147-2.020 9.287-2.781 8.931-2.11 16.602-8.032 25.22-11.579 5.694-2.378 11.848-2.781 17.949-3.679 8.48-1.343 17.183-3.636 25.71-2.735 6.192 0.626 12.070 2.646 18.264 3.456 6.509 0.809 13.061 1.387 19.521 2.423 5.969 0.988 9.156 3.5 14.403 5.521 3.411 1.3 7.093 0.63 10.633 1.255 12.835 2.244 17.636 12.744 29.527 16.871 5.969 2.114 12.16 2.114 18.264 3.411 8.481 1.885 13.419 7.271 19.025 12.881 3.367 3.362 6.688 6.864 10.549 9.689 3.003 2.199 6.864 3.636 9.6 6.147 2.874 2.697 4.67 7.046 6.913 10.185 1.885 2.559 3.949 4.939 5.387 7.763 6.998 13.866 8.122 30.603 10.006 45.861 2.331 18.711 1.703 38.053-2.427 56.853-2.065 9.336-5.023 18.577-9.198 27.374-1.885 3.949-4.486 7.357-6.101 11.35-1.973 5.029-3.949 10.053-6.554 14.899-2.69 5.023-5.382 11.891-10.5 15.299-3.679 2.423-8.301 2.785-12.069 5.208-6.012 3.904-11.261 9.107-17.184 13.19-14.492 10.052-32.039 23.157-50.525 23.964-4.038 0.162-7.853-0.805-11.802-1.029-6.058-0.368-11.801 1.255-17.77 1.973-2.961 0.368-5.699 0.325-8.434 1.707-2.556 1.343-4.354 3.631-7.182 4.532 0.325 3.59 7.494 2.914 10.459 3.185 6.864 0.541 11.799 1.256 17.811 4.445 5.073 2.647 8.529 7.715 14.044 9.645 5.521 1.885 11.668-1.885 17.679-1.657 11.131 0.446 20.372-5.833 30.514-9.336 8.524-2.918 17.59-5.699 24.862-11.086 7.894-5.785 16.556-13.235 21.939-20.909 3.904-5.61 11.801-9.964 16.561-16.154 3.318-4.263 4.173-9.605 7.535-14.091 5.879-7.899 9.917-15.975 13.552-24.947 1.348-3.321 1.794-6.734 4.038-9.783 2.199-3.053 4.307-5.387 5.073-9.067 0.67-3.228 0.407-6.101 1.479-9.33 1.614-5.073 4.803-9.559 6.734-14.538 2.244-5.789 2.647-11.848 4.397-17.726 1.3-4.217 2.423-7.63 2.511-11.98 0.293-12.296 4.263-24.545 2.964-36.75-1.037-9.873-2.248-19.744-3.411-29.574-1.885-15.752-16.512-25.848-19.654-40.968-1.303-6.238-1.794-12.069-5.203-17.679-9.515-15.483-31.322-22.524-47.835-29.797-14.091-6.238-26.788-14.717-41.151-20.461-14.582-5.833-30.693-9.514-46.214-12.922-9.067-1.973-17.949-4.982-27.284-6.012-15.394-1.707-30.514 0.491-45.861 2.781-14.359 2.199-26.833 6.192-40.34 11.354-7.669 2.961-14.718 6.417-21.987 10.231-9.061 4.8-17.9 7.72-27.325 11.35-6.686 2.559-11.891 7.225-18.621 9.827-6.238 2.423-11.443 7.093-17.321 10.276-9.559 5.162-17.77 10.413-26.117 17.278-8.166 6.686-18.307 12.206-24.993 20.102-10.321 12.206-22.481 23.063-32.487 35.491-4.85 6.012-8.524 12.567-11.622 19.432-3.367 7.494-7.853 14.851-10.276 22.524-1.303 4.084-1.885 8.301-3.367 12.339-1.387 3.858-3.636 7.405-4.934 11.309-2.199 6.238-2.065 12.428-4.397 18.711-3.815 10.365-8.44 20.55-11.265 31.189-1.076 3.905-2.423 8.212-1.661 12.206 0.72 3.905 2.020 6.506 1.707 10.678-0.849 11.399 0.944 23.469 3.5 34.418 4.621 19.923 8.793 38.588 19.79 56.182 9.466 15.21 14.134 33.248 25.126 47.517 5.744 7.451 8.66 16.334 14.403 23.828 5.833 7.764 12.926 15.394 20.328 21.853 4.76 4.084 10.096 7.584 15.168 11.22 4.307 3.093 7.134 6.729 12.339 9.108 8.839 3.995 15.886 10.767 23.918 15.752z"></path>
    <path fill="#000000" d="M950.768 441.517c-5.068-15.304-2.244-31.368-3.856-47.387-1.124-11.036-2.065-22.256-3.726-33.158-2.065-14-6.327-27.598-10.951-40.878-2.378-6.957-5.789-13.284-8.613-20.059-3.769-9.021-6.012-17.995-8.882-27.374-3.097-10.006-7.584-19.476-12.656-28.583-6.955-12.565-14.18-26.43-25.531-35.585-6.777-5.426-12.474-11.574-19.297-16.871-5.521-4.217-8.703-10.006-13.19-15.124-4.217-4.845-9.559-8.122-15.795-10.096-6.327-2.020-12.206-4.934-18.397-7.177-5.833-2.11-13.151-2.153-18.487-5.073-2.427-1.343-3.904-3.995-6.196-5.336-1.791-1.077-3.408-0.81-5.247-1.348-5.879-1.75-10.678-5.61-16.556-7.451-5.028-1.566-9.783-3.588-15.124-4.307-9.287-1.207-18.621-1.794-27.912-3.319-9.466-1.614-18.038-0.899-27.595-0.944-5.923-0.097-12.16 1.57-18.084 2.511-3.5 0.586-10.592 1.124-11.802 4.893 3.995 0.407 7.584 0.261 11.533 1.167 6.417 1.483 12.744 3.277 19.157 4.67 9.021 1.973 17.367 4.8 25.982 7.72 6.191 2.11 12.697 3.093 18.8 5.472 4.263 1.661 9.605 2.964 13.732 4.982 3.679 1.794 7.451 4.622 10.997 6.64 10.589 6.101 20.955 12.428 32.124 17.59 9.156 4.174 19.297 9.917 26.296 17.094 4.982 5.119 9.156 10.951 12.972 16.964 1.794 2.87 3.228 6.506 5.655 8.972 1.753 1.794 4.038 2.827 5.744 4.711 4.532 5.073 6.639 11.98 9.42 18.038 2.875 6.238 6.686 11.668 9.2 18.084 2.647 6.777 4.8 13.776 7.491 20.597 5.61 14.318 9.156 29.395 15.795 43.259 9.514 19.79 6.734 42.54 15.886 62.373 9.289 20.059 6.012 45.722 5.969 67.709 0 15.752-0.761 31.906-6.192 47.207-2.467 6.909-5.879 13.547-8.256 20.461-3.59 10.41-4.532 20.865-5.833 31.543-2.511 20.509-8.703 41.777-18.577 60.489-3.277 6.192-6.729 12.25-10.454 18.218-2.874 5.879-6.191 11.579-9.917 17.009 0 0 0 0.032 0 0.032-1.841 9.018-5.565 17.273-9.289 25.758-2.287 5.203-3.904 10.992-7.541 15.523-4.084 5.073-8.57 9.425-12.206 14.989-2.603 3.904-5.382 7.535-8.39 11.215-2.11 2.651-9.108 8.166-7.267 12.474 5.472-2.423 10.678-2.467 15.523-7.223 3.009-2.918 5.699-4.8 9.425-7.136 4.084-2.603 6.998-6.327 11.082-8.882 2.607-1.661 5.298-3.188 7.988-4.755 3.188-3.815 6.147-7.809 8.931-11.711 6.327-8.797 14-16.11 20.776-24.545 5.431-6.777 9.737-14.27 15.124-21.004 1.794-2.199 2.69-3.904 3.631-6.596 2.472-7.315 4.534-14.762 6.688-22.166 4.307-14.628 8.57-29.255 14.269-43.438 3.362-8.434 9.33-15.881 13.011-24.276 1.973-4.397 3.815-8.345 6.192-12.608 2.515-4.532 3.321-9.737 3.411-14.718 0.066-3.815-1.168-7.271-0.293-11.086 2.647-10.857 5.655-20.64 5.969-31.856 0.293-9.2 1.707-18.307 3.456-27.419 1.3-6.729 1.973-12.474-0.13-18.889z"></path>
    <path fill="#000000" d="M378.957 922.416c-7.223-2.287-14.851-2.287-21.758-5.565-6.867-3.185-13.015-7.134-19.521-10.902-3.858-2.244-7.809-4.624-11.757-6.645-3.456-1.746-7.225-1.613-10.946-2.603-9.067-2.244-16.785-7.584-24.55-12.296-10.589-6.417-19.068-14.538-27.638-23.241-6.327-6.465-12.206-12.972-16.199-21.047-4.714-9.468-10.544-18.084-16.512-26.833-13.105-19.119-23.918-41.643-31.143-63.856-2.961-9.152-7.134-18.935-7.223-28.762-0.032-3.053 0.537-6.101 0.45-9.11-0.293-11.125-4.486-21.758-5.61-32.8-0.849-8.882-3.769-16.96-4.711-25.802-1.168-10.857-2.065-21.312-1.348-32.353 0.325-4.979 1.077-9.963 1.661-14.94 0.717-6.998-0.13-13.955 1.076-20.909 1.75-9.963 4.401-20.914 7.72-30.603 3.546-10.413 7.315-21.362 8.524-32.308 0.899-7.72 3.59-14.407 5.922-21.898 2.020-6.598 2.515-12.746 3.546-19.431 1.124-7.088 3.188-15.076 5.833-21.898 3.858-9.917 13.509-18.038 19.654-27.056 6.596-9.559 12.339-19.61 17.995-29.663 4.532-8.122 7.899-14.403 14.671-21.178 9.108-9.021 19.114-17.458 28.762-25.891 7.584-6.688 16.243-12.428 24.952-17.501 9.6-5.565 18.443-11.98 28.086-17.409 24.504-13.866 49.719-27.912 76.105-37.606 23.38-8.613 46.98-19.162 71.978-19.969 10.813-0.368 21.088-0.583 31.906-2.020 9.824-1.303 21.491-1.932 31.094-0.368 7.451 1.207 14.718 1.076 22.256 1.885 8.524 0.941 16.467 4.575 24.993 5.565 3.769 0.407 7.047 1.207 10.46 2.824 6.686 3.185 12.296 8.211 19.157 11.125 4.532 1.932 9.514 2.607 13.687 5.298 3.815 2.467 6.955 6.281 10.365 9.246 8.434 7.357 18.666 11.799 27.732 18.264 6.864 4.934 13.414 9.964 19.383 15.886 8.664 8.613 16.243 18.218 26.43 25.262 9.336 6.46 19.029 11.489 25.759 20.909 2.875 3.995 5.61 5.162 7.225 9.783 2.87 8.256 5.923 16.467 8.882 24.678 2.468 6.957 3.815 14.274 5.341 21.541 1.343 6.596 3.319 13.015 5.292 19.386 0.899 2.87 3.367 7.044 2.515 10.365-0.674 2.603-2.559 4.8-3.143 7.63-1.211 5.879-0.13 11.848-0.67 17.767-0.857 9.289-2.199 19.029-4.038 28.587 1.343 3.72 2.824 7.401 3.631 11.261 0.765 3.636-0.537 5.208-0.941 8.48-0.941 7.63-2.287 15.394-3.546 23.2-0.805 4.8-0.849 9.514-1.524 14.359-0.325 2.735-1.57 7.044-1.124 9.289 3.003-2.11 3.949-8.395 5.789-11.668 4.443-7.942 10.589-14.856 15.841-22.256 3.588-5.029 7.177-9.964 10.857-14.946 4.084-5.562 6.506-11.799 11.175-16.96 3.905-4.263 7.088-8.659 10.185-13.33 1.343-7.267 2.153-14.269 2.87-21.58 0.67-6.688 1.932-12.385 1.124-19.073-1.348-10.321-3.59-21.178-3.143-31.633 0.537-12.703-1.929-24.186-5.699-36.123-3.949-12.613-6.729-25.848-11.757-38.008-2.287-5.61-5.382-10.41-7.58-16.064-2.244-5.789-6.554-11.443-10.459-16.154-8.166-9.873-18.711-18.978-28.36-27.374-6.101-5.292-12.206-10.857-18.756-15.702-6.238-4.624-13.419-7.988-19.7-12.703-12.833-9.6-26.833-16.825-40.067-25.753-15.304-10.324-30.874-19.969-47.075-28.99-7.356-4.127-14.94-9.061-23.421-10.946-4.174-0.899-8.349-0.81-12.477-2.020-11.932-3.456-23.556-4.982-36.208-5.297-6.957-0.162-13.776 0.537-20.645-0.491-6.596-1.033-13.101-2.331-19.88-2.065-13.19 0.583-25.978 3.949-39.037 4.263-6.775 0.13-13.419 2.646-19.969 4.307-7.312 1.885-15.030 3.367-22.166 6.058-6.729 2.556-13.547 4.755-20.461 6.55-6.058 1.168-12.070 2.287-18.084 3.456-20.507 5.341-38.499 19.833-57.122 29.574-12.249 6.371-22.793 13.325-34.013 21.446-10.006 7.225-20.865 13.015-31.141 19.833-8.166 5.431-17.099 11.041-24.276 17.726-7.405 6.909-15.975 13.374-22.798 20.776-2.020 2.199-3.362 4.803-5.203 7.136-9.289 11.668-20.059 22.929-30.245 33.835-10.454 11.304-17.816 23.287-26.519 35.806-3.904 5.565-6.777 9.379-7.763 15.931-1.077 7.046-3.5 13.24-5.879 19.969-4.038 11.579-7.316 23.559-11.802 35-5.297 13.33-9.917 26.793-12.744 40.747-1.483 7.357-0.631 14.762-1.929 22.117-1.215 7.093-2.697 13.33-2.511 20.466 0.368 14.313-0.066 28.36-0.989 42.673-0.761 12.877 1.348 25.575 0.941 38.499-0.491 14.449-0.761 29.434 0 43.797 0.162 3.181 0.541 6.37 1.435 9.42 1.527 5.119 4.532 9.514 6.777 14.269 3.677 7.72 5.472 16.288 8.345 24.366 3.272 9.246 7.177 18.175 11.172 27.106 6.281 13.911 11.309 28.897 19.119 42.002 6.37 10.724 14.538 20.909 21.715 31.185 11.354 16.243 22.033 32.711 37.918 45.052 9.11 7.093 19.029 13.284 28.002 20.55 1.57 1.303 2.964 2.472 4.173 4.084 2.020 2.607 3.321 4.76 6.281 6.554 7.093 4.353 15.752 6.639 23.874 8.703 12.296 3.188 23.605 8.032 36.346 9.066 8.524 0.717 17.816 1.167 26.34 0.196 3.769-0.407 7.674-1.932 11.443-1.753 2.824 0.162 4.622 1.207 7.674 0.407-3.188 0.941-5.833-1.303-8.664-2.199z"></path>
    <path fill="#000000" d="M374.291 509.541c-6.058 11.532-10.185 23.516-13.151 35.809 0 0.066-0.032 0.162-0.032 0.228-0.67 9.2-0.761 18.714 2.020 27.508 2.38 7.451 7.047 13.866 10.053 20.998 2.515 5.833 6.42 11.399 10.185 16.512 1.841 2.515 3.904 4.714 5.922 7.136 2.34 2.69 4.803 4.845 7.495 6.908 2.647 2.020 3.009 4.893 4.621 7.63 0.586 0.989 1.57 4.038 2.738 4.263 1.973 0.407 1.794-1.479 1.707-2.961-0.097-2.153-0.899-4.711-1.574-6.777-0.583-1.97-0.765-3.588-1.168-5.694-3.14-16.334-5.472-32.984-4.575-49.719 0.293-5.655 3.321-12.206 6.012-17.094 1.973-3.546 3.769-7.271 5.476-10.951 1.076-2.199 1.794-4.845 3.272-6.775 1.168-1.574 2.964-2.603 4.397-3.905 1.303-1.168 2.201-2.467 3.009-3.858 3.5-7.541 7.584-14.671 12.519-21.72 13.24-18.889 31.143-31.727 47.924-47.116 11.036-10.185 23.605-20.192 37.695-25.041 4.622-1.566 9.152-3.677 13.863-4.443 4.401-0.67 7.988-3.14 12.16-3.815 4.127-0.67 8.349 0.631 12.703-0.162 3.769-0.67 7.223-0.896 10.946 0 5.833 1.483 10.321 4.397 16.064 6.238 5.162 1.661 12.787 0.407 17.411 3.546 0-3.995-3.097-5.789-4.714-8.928-2.11-4.084-3.858-8.345-6.238-12.25-2.153-3.636-5.562-7.182-6.729-10.861-0.032-0.196-0.13-0.491-0.196-0.761-0.765-2.69-1.435-5.879-3.995-7.405-1.395-0.809-3.097-0.809-4.532-1.434-1.794-0.81-3.411-2.292-5.162-3.232-8.793-4.621-20.55-1.395-29.842-0.717-3.588 0.196-6.955-0.631-10.589-0.228-7.177 0.81-13.598 2.335-20.73 2.020-10.907-0.446-19.969 6.012-29.931 9.559-13.552 4.85-28.719 11.041-37.063 23.648-2.199 3.277-3.411 7.044-5.879 10.142-3.546 4.532-8.708 6.864-13.284 10.142-5.565 4.084-10.096 9.648-14.851 14.582-7.225 7.584-11.622 17.142-17.77 25.489-2.556 3.408-6.058 6.058-8.524 9.466-2.964 4.132-5.297 9.559-7.63 14.044z"></path>
    <path fill="#000000" d="M760.867 638.103c-6.238 7.943-13.145 12.833-21.758 18.084-4.038 2.468-8.166 2.647-12.433 4.038-4.174 1.435-7.669 3.59-12.068 4.622-0.765 0.162-1.483 0.325-2.248 0.453-7.536 5.831-14.897 11.932-22.75 17.319-5.655 3.904-11.533 7.494-17.816 10.185-2.961 1.256-5.969 2.244-9.018 3.143-8.703 2.423-16.020 8.749-24.321 12.697-5.521 2.603-11.532 3.188-17.458 4.354-8.256 1.614-16.735 4.217-25.082 3.59-6.101-0.491-11.937-2.378-18.038-3.009-6.37-0.63-12.835-1.029-19.162-1.924-5.426-0.765-8.66-2.918-13.235-4.76-2.11-0.325-4.263-0.717-6.46-1.207-1.707 0-3.411 0.032-5.119-0.228-4.845-0.761-8.57-2.781-12.026-5.247-2.065-0.765-3.815-1.211-6.417-1.348-5.387-0.162-10.231-2.289-15.527-2.914-2.961-0.325-5.521-0.097-8.301-1.077-3.457-1.167-6.281-1.932-9.827-2.467-5.157-0.761-9.737-3.278-14.671-4.89-3.636-1.211-6.596-3.59-10.276-4.714-1.707-0.537-3.457-0.988-5.162-1.527-1.613-0.537-4.575-1.029-6.058-2.199-1.12-0.849-1.661-2.11-2.735-2.961-1.57-1.256-3.053-1.256-3.905-3.456-0.162 3.053 4.532 8.524 5.789 10.997 2.331 4.532 3.679 8.66 7.177 12.474 2.697 2.914 5.162 6.012 7.809 8.972 2.427 2.738 4.307 5.923 7.315 8.212 2.781 2.153 5.789 3.904 8.481 6.191 5.028 4.265 9.605 8.842 14.044 13.598 1.483 0.162 2.875 0.45 4.263 0.857 3.321 1.076 6.012 3.272 9.11 4.711 8.345 3.904 19.923 4.263 29.031 6.238 20.461 4.443 42.046 4.127 63.223 2.781 24.997-1.566 50.889-6.238 75.030-13.911 20.909-6.639 41.147-22.117 57.391-36.704 1.348-1.207 2.647-2.467 3.905-3.769 9.873-10.185 18.443-21.49 28.36-31.588 3.367-3.367 6.46-7.047 9.694-10.544 0.066-0.407 0.196-0.81 0.325-1.211 1.614-8.882 5.023-18.308 5.157-27.419-6.686 1.483-10.276 10.549-14.223 15.573z"></path>
    </svg>