<svg xmlns="http://www.w3.org/2000/svg" viewBox="60.581 44.901 995.241 960.541">
    <path fill="#000000" d="M279.299 286.385c5.719-2.265 11.246-4.863 16.493-8.077 8.979-5.438 18.807-8.319 27.786-13.657 7.844-4.581 16.681-7.14 24.905-11.011 3.922-1.848 6.946-4.863 10.727-6.806 5.767-2.932 11.908-2.974 17.202-7.327 2.978-2.411 5.105-5.105 8.506-7.045 3.168-1.794 6.238-3.59 9.31-5.438 2.881-1.647 5.008-3.403 7.514-5.438 2.552-1.981 4.111-2.035 6.71-3.308 3.214-1.702 4.962-4.3 8.506-5.573 3.403-1.34 5.528-3.121 8.222-5.719 3.592-3.456 5.244-7.944 7.608-12.244 7.703-14.081 18.099-29.725 29.868-40.781 6.71-6.189 16.919-10.971 21.502-19.092 1.795-3.162 2.41-6.898 4.348-9.968 5.813 0.805 8.175 4.729 13.517 7.085 8.413 3.777 14.792 8.787 20.698 16.068 7.608 9.364 14.507 18.668 22.022 28.070 2.127 2.693 4.916 4.394 7.041 7.045 2.694 3.308 4.582 6.953 7.419 10.206 3.686 4.245 7.94 7.045 11.531 11.198 4.582 5.479 9.641 10.302 14.368 15.454 2.175 2.357 3.356 5.156 5.34 7.461 1.559 1.794 6.19 5.814 4.254 9.029-0.897 1.515-7.656 2.357-9.452 2.745-3.686 0.669-6.806-0.046-10.584 0.937-5.624 1.46-10.631 3.682-15.831 6.189-7.797 3.737-15.454 5.479-22.681 10.635-16.444 11.816-37.144 16.681-54.156 27.692-7.94 5.251-18.099 9.218-25.187 15.454-7.797 6.858-16.162 12.19-24.669 18.194-9.405 6.657-18.856 13.234-28.306 19.754-12.381 8.6-24.905 16.494-35.347 27.408-9.073 9.551-16.54 20.556-23.819 31.521-2.269 3.403-5.010 6.189-6.994 9.873-1.559 2.785-2.881 6.47-5.008 8.787-3.119 3.349-5.859 2.076-9.169 0.132-4.346-2.506-8.931-5.668-12.475-9.31-4.582-4.769-8.081-10.676-12.57-15.548-6.521-7.274-13.517-14.224-19.612-21.738-9.641-11.761-16.729-25.376-26.889-36.767-3.969-4.542-7.797-9.218-11.673-13.844-1.559-1.848-2.976-3.831-4.346-5.869-1.138-1.702-4.819-5.479-4.962-7.516-0.281-3.737 11.956-7.89 16.162-9.256 5.576-1.794 11.389-2.932 17.013-4.487 5.105-1.515 10.206-3.216 15.169-5.156z"></path>
    <path fill="#000000" d="M399.037 317.269c-1.325 0.535-2.694 1.206-4.065 1.848-3.969 1.794-8.979 2.745-13.231 4.113-3.119 0.937-5.956 3.966-9.121 4.206 0.523 4.729 9.544 4.769 12.994 5.668 6.381 1.555 13.231 1.647 19.328 4.113 5.244 2.035 10.349 5.438 15.027 8.559 7.749 5.105 14.838 11.48 21.975 17.39 21.456 17.484 40.594 37.852 58.881 58.597 30.196 34.168 55.101 72.068 82.934 108.076 10.019 12.954 19.847 25.944 29.725 38.892 9.073 11.721 15.925 25.425 25.991 36.294 5.67 6.094 12.194 10.676 18.525 16.019 1.89 1.607 4.111 4.729 6.71 4.542 2.552-5.292 10.492-9.873 15.027-13.516 3.638-2.88 8.128-4.863 11.435-8.131 2.127-2.035 3.969-4.487 4.065-7.327 0.095-5.105-3.168-13.329-4.394-18.052-11.154-44.375-59.78-67.481-88.181-99.427-10.16-11.44-17.58-24.764-27.504-36.341-12.57-14.556-23.581-29.63-33.977-45.886-11.294-17.436-23.061-34.638-36.671-50.328-6.946-8.037-14.507-15.406-21.406-23.438-3.403-3.966-5.859-7.556-6.569-12.753-1.084-7.14 0.281-14.319 0.147-21.407-0.094-7.421-1.89-15.311 0.469-22.543 5.056 0.937-1.419 4.206-2.741 4.956-4.443 2.558-6.994 7.18-11.343 9.644-3.168 1.794-6.095 2.13-9.169 4.634-2.364 1.889-4.206 4.634-6.806 6.148-2.787 1.607-5.767 2.224-8.506 3.966-3.544 2.319-6.806 5.197-10.16 7.663-4.582 3.308-9.544 6.002-14.931 7.982-5.008 1.943-9.687 3.777-14.46 5.855z"></path>
    <path fill="#000000" d="M770.444 605.234c-3.781-3.216-6.852-7.18-10.727-10.448-3.732-3.069-7.986-5.105-11.673-8.413s-6.806-6.898-11.011-9.592c-5.34-3.403-9.262-7.232-13.279-12.095-3.686-4.394-7.797-8.934-12.286-12.566-3.306-2.745-7.181-4.447-10.538-7.18-5.151-4.058-10.019-8.694-15.027-12.9-3.922-3.349-5.056-3.256-9.498-2.319-4.065 0.805-6.71 2.932-10.584 3.871-5.294 1.368-9.733 3.737-15.075 4.769-2.031 0.402-4.019 0.805-6.002 1.34-2.079 0.402-3.544-0.269-5.294-0.269-4.019-0.094-4.725 2.544-6.569 5.76 0.334 0.046 0.71 0.095 1.044 0.132l-5.34 25.281c0.375 2.319-1.559 4.542-2.316 6.619-2.127 5.719-3.828 10.676-7.514 15.17-2.269 2.785-5.956 8.131-5.294 12.377 0.334 2.319 2.031 4.581 3.306 6.565 4.489 7.045 8.554 14.367 13.375 21.17 20.744 28.921 45.081 54.913 66.444 83.219 9.687 12.859 18.335 26.746 28.684 39.032 9.544 11.345 20.416 19.232 31.236 29.018 9.405 8.506 17.769 18.052 27.408 26.321 8.365 7.274 16.256 15.169 24.101 23.016 4.348 4.3 7.797 8.559 12.619 12.471 3.214 2.544 6.569 5.010 9.876 7.556 6.331 4.863 13.421 9.163 19.519 14.272 3.167 2.693 5.67 6.056 8.79 8.842 3.168 2.693 6.381 5.197 9.356 8.077 6.569 6.243 13.988 11.532 20.698 17.721 4.819 4.394 9.498 8.747 14.272 13.142 2.881 2.558 5.34 2.653 8.411 4.675 2.269 1.46 4.582 3.069 6.852 4.019 3.732 1.555 5.907 0 9.452 0.132s7.089 0.535 10.584 0.805c6.238 0.535 13.706-2.035 19.375-3.403 8.27-1.943 11.106-12.845 10.349-21.219-0.618-8.225 0.375-16.681-0.992-24.81-1.325-7.663-5.576-16.019-8.27-23.628-3.403-9.592-6.095-19.565-11.673-28.402-3.025-4.675-5.294-9.456-8.836-13.798-5.151-6.376-10.681-12.954-16.162-19.044-3.732-4.206-8.175-7.556-11.768-12.003-6.9-8.747-13.941-17.482-21.029-26.181-3.686-4.542-7.94-8.225-11.862-12.471-6.757-7.18-12.806-15.217-19.281-22.731-10.538-12.003-18.335-25.281-27.269-38.325-8.602-12.566-19.281-23.865-28.166-36.34-3.497-4.863-7.181-9.405-11.343-13.706-5.387-5.625-9.498-10.957-14.13-17.202-2.175-2.932-4.3-4.019-6.946-6.243z"></path>
    <path fill="#000000" d="M140.581 627.223c0.523 16.399 2.787 32.938 6.427 48.957 6.144 27.219 11.814 53.446 22.21 79.484 8.222 20.462 22.635 38.183 35.443 55.998 6.664 9.218 15.169 15.454 23.486 23.062 5.719 5.344 12.097 10.635 18.668 14.884 7.278 4.675 16.494 7.556 24.763 10.206 6.852 2.224 10.444 0.046 15.973-3.925 2.741-1.943 2.881-4.26 4.962-6.752 1.467-1.647 3.732-2.411 5.197-4.206 1.984-2.265 2.364-5.531 4.348-7.85 5.151-6.148 13.325-9.738 18.903-15.643-6.095 0.535-7.089-1.515-11.814-4.918-2.364-1.756-3.168-3.216-5.197-5.105-2.127-1.981-4.916-2.932-7.181-4.918-6.994-6.281-14.225-11.345-20.083-18.714-3.544-4.394-5.859-8.842-8.506-13.706-3.214-6.002-7.797-10.919-11.011-16.87-6.475-12.056-17.484-21.975-25.614-32.89-3.969-5.197-8.365-10.169-11.814-15.736-3.497-5.719-5.767-11.908-9.641-17.436-3.306-4.729-4.489-8.131-5.859-13.656-1.325-5.156-4.157-8.358-6.521-12.859-3.828-7.232-4.679-15.546-7.089-23.297-2.552-8.413-2.835-16.967-4.582-25.376-0.618-2.653-0.429-5.010-0.523-7.703-0.242-3.682-1.748-6.335-2.125-9.925-0.523-5.010 0.805-5.251-3.168-7.461-2.221-1.072-2.93-1.206-5.624-1.072-6.238 0.269-11.294 0.535-17.155-1.702-2.93-1.206-11.343-6.056-14.177-4.26-0.897 0.669-1.844 7.556-1.89 8.413-0.281 4.019 0.281 8.319 0.429 12.337 0.094 6.189 2.031 11.385 2.127 17.436 0.047 4.634 0.242 9.269-3.356 5.251z"></path>
    <path fill="#000000" d="M197.442 698.819c-0.187-0.402-0.429-0.669-0.656-0.937-4.157-6.43-7.844-12.806-12.286-19.092-2.456-3.444-6.284-6.189-8.27-9.873 4.111 3.59 14.225 2.974 19.281 3.682 7.892 1.072 16.919 0.402 24.856-0.132 6.331-0.535 12.428-2.076 18.668-3.256 5.197-0.937 10.823-0.402 15.689-2.265 17.675-6.953 34.168-16.494 51.225-24.906 14.176-6.953 28.591-13.705 42.106-21.831 19.519-11.816 42.816-21.267 59.684-36.719 5.387-4.956 13.563-8.413 20.463-3.966 2.881 1.848 4.916 4.863 6.757 7.663 1.231 1.742 2.457 3.644 3.592 5.479 1.702 2.88 2.881 6.002 4.582 8.881 2.221 3.644 6.284 6.752 7.514 10.957 0.656 2.13-0.242 4.956 0.094 7.18 0.469 3.162 2.364 3.831 0.334 6.47-2.269 2.932-8.836 5.344-11.908 6.806-6.049 2.88-12.24 5.531-18.099 8.747-15.169 8.037-32.324 11.293-47.633 19.375-8.506 4.487-16.256 9.968-24.29 15.265-7.797 5.105-16.115 9.069-23.77 14.367-11.011 7.663-21.784 15.594-33.317 22.306-8.648 5.050-15.122 9.779-21.927 17.248-3.072 3.403-4.348 7.461-6.806 11.011-3.072 4.3-6.664 9.738-7.797 15.169-1.37 6.376 3.638 11.816 1.656 17.818-1.138-0.269-3.592-5.251-4.916-6.657-3.544-4.058-8.032-8.077-12.097-11.532-8.882-7.756-16.681-16.021-22.825-26.132-6.521-10.676-13.182-20.606-19.894-31.002z"></path>
    <path fill="#000000" d="M959.607 286.206c-4.677 3.162-10.349 4.3-14.649 7.369-3.356 2.357-4.631 5.855-7.514 8.559-7.514 6.953-19.423 12.377-28.494 17.482-15.265 8.413-30.858 16.305-46.219 24.384-19.232 10.114-39.366 18.949-58.173 29.676-16.256 9.31-31.756 18.006-48.626 26.132l-129.388 69.656c-14.792 7.756-29.63 15.169-44.61 22.306-14.507 6.243-28.826 13.087-42.816 20.51-20.462 11.627-40.263 24.621-60.581 36.53-36.481 21.219-72.965 42.578-108.783 64.789-10.965 6.752-21.595 14.601-32.984 20.508-2.741 1.368-5.624 2.598-7.23 4.675 2.506-6.657-1.984-2.785-5.056-0.669-5.294 3.644-10.444 7.516-15.878 11.011-5.105 3.256-13.421 6.993-17.013 11.669 3.875 4.394 4.773 10.206 8.506 14.695 2.41 2.932 7.844 8.077 12.856 8.694 4.536 0.535 4.019-0.937 8.032-3.831 2.694-1.943 7.089-3.349 10.206-4.3 15.5-5.010 32.702-12.056 47.162-20.225 13.517-7.703 26.131-16.162 39.744-23.581 12.806-7.045 24.479-16.116 36.53-24.102 13.421-8.842 27.219-17.248 40.925-25.66 25.471-15.5 51.131-31.143 77.123-45.884 14.696-8.358 29.299-17.249 44.184-25.281 15.027-8.077 30.196-15.643 44.469-24.952 27.597-18.052 54.532-35.868 82.934-52.879 23.628-14.225 46.265-29.11 69.469-43.807 24.669-15.643 52.030-27.975 76.508-43.902 12.428-8.077 24.763-16.208 37.002-24.525 4.916-3.256 14.744-8.319 18.288-12.525 2.978-3.59 1.702-4.447 6.994-7.556 3.686-2.224 6.095-4.447 9.025-7.461 3.828-3.925 14.272-10.919 12.713-15.169-5.056 0.269-10.492 4.918-14.649 7.703z"></path>
    </svg>