<svg xmlns="http://www.w3.org/2000/svg" viewBox="54.759 44.557 958.971 961.068">
    <path fill="#000000" d="M633.046 524.673c-0.282 2.864-1.569 5.605-1.832 8.6-0.662 4.931-0.094 9.769-0.094 14.702 0.094 6.397-0.944 13.434-1.569 19.804-0.756 5.197-0.473 10.169-1.806 15.503-0.944 4.566-1.436 8.731-1.436 13.269 0 3.668 0.473 7.437 0.282 10.969-0.569 4.535-1.967 9.101-2.769 13.669-1.163 5.973-4.405 11.569-5.831 17.569-0.944 4.696-0.944 9.503-2.231 14.204-1.163 3.77-2.599 8.969-4.535 12.234-0.662 0.756-1.305 1.163-1.701 1.967-0.756 1.569-0.756 3.77-1.163 5.339-1.2 3.365-3.403 6.237-4.829 9.502-1.436 3.137-2.069 6.768-4.169 9.769-0.662 1.172-1.832 1.967-2.468 3.006-2.599 3.496-3.77 7.938-5.736 11.569-1.967 3.799-3.496 6.898-4.838 10.834-1.398 4.169-2.731 9.231-4.801 13.269-1.436 2.333-3.137 3.904-4.034 6.768-0.756 2.731-2.231 4.169-3.904 6.267-2.599 2.864-4.566 7.269-8.204 8.835-1.305 0.569-2.636 0.378-3.931 1.069-2.069 1.305-3.365 3.904-5.197 5.605-2.864 2.969-6.369 4.931-9.367 7.665-3.137 2.864-7.569 2.864-10.934 5.067-2.231 1.436-3.403 2.864-6.001 3.269-1.569 0.282-3.269 0-4.931 0-4.971 0.282-7.968 4.431-12.369 6.132-9.138 3.365-18.235 0.378-27.505-0.282-7.531-0.662-13.535-5.736-20.036-9.367-4.971-2.864-8.731-4.169-12.504-8.469-1.967-2.231-4.034-4.169-5.605-6.768-2.731-4.3-5.104-7.437-6.768-12.269-1.069-3.006-1.832-5.736-2.731-8.705-1.701-5.736-4.706-10.569-6.768-16.169-1.569-3.904-2.864-8.204-4.838-12.103-2.731-5.33-5.736-10.534-8.204-16.035-1.569-3.638-2.333-7.399-4.169-11.069-2.231-4.272-4.696-8.43-6.768-12.869-1.967-3.799-2.599-7.173-3.533-11.469-0.473-3.496-1.937-6.898-2.731-10.301-0.662-3.904-0.378-8.204-0.378-12.103 0-6.502-0.094-12.502-0.756-19.005-0.569-4.971-1.163-9.901-1.031-14.969 0.094-9.138-1.305-18.77-2.599-27.871-0.756-4.971-1.163-10.169-2.363-15.235-1.163-4.169-2.599-8.469-2.731-12.903-0.189-8.204-0.756-17.069 1.832-24.87 1.701-4.696 4.034-9.138 5.605-13.803 1.569-4.431 2.202-9.903 4.3-14.335 1.967-4.696 3.403-9.502 5.197-14.202 1.967-4.669 4.431-8.705 6.768-13.134 2.363-4.3 3.269-9.138 5.736-13.434 2.097-3.638 3.904-7.531 6.132-11.203 2.202-3.77 4.431-7.003 7.531-10.133 1.305-1.569 4.431-7.703 6.672-7.968-1.2-2.731 1.794-5.831 5.605-7.665 5.698-2.731 11.302-6.001 17.035-8.6 8.6-3.365 16.535-7.938 25.537-10.269 9.633-2.864 19.669-4.971 29.571-3.137 2.969 0.473 5.831-0.282 8.705 0.378 2.097 0.378 4.169 1.305 6.267 1.531 3.365 0.378 6.898 0.282 10.403 0.756 1.967 0.378 3.931 0.944 6.132 1.172 3.77 0.378 7.531 1.305 11.469 2.333 3.77 0.944 7.531 0.282 10.934 2.599 7.173 5.369 16.803 7.833 22.77 14.603 5.736 6.369 10.702 13.402 16.669 19.403 2.864 2.995 5.736 6.369 8.334 9.502 3.137 3.77 4.3 9.769 6.397 14.335 2.864 6.001 5.067 13.803 4.169 20.435-0.282 3.137 0.094 6.397 0.473 9.502 0.756 7.173 2.097 14.204 2.231 21.504 0.094 5.197 0.473 10.935 0 16.136zM655.119 516.662c-0.569-5.472-0.282-11.069-0.944-16.535-0.662-7.833-2.506-15.503-3.668-23.305-1.163-6.898-2.599-13.703-3.77-20.47-2.097-10.002-3.137-19.669-8.6-28.237-3.904-6.132-6.898-12.502-10.169-18.769-3.1-6.106-6.237-9.503-12.103-13.003-2.333-1.2-4.169-2.231-5.973-4.064-2.363-2.599-4.3-5.33-6.936-7.531-5.339-4.566-11.569-4.431-18.204-4.3-6.672 0-9.769-1.569-15.135-5.605-3.364-2.731-6.767-6.132-11.169-7.306-6.267-1.436-13.035-1.031-19.404-2.069-6.132-1.163-11.869-3.799-18.236-3.668-6.663 0-13.169 1.069-19.804 2.506-7.031 1.531-13.535 4.405-20.304 6.369-4.431 1.305-8.731 2.995-13.035 4.838-11.869 4.931-22.269 10.669-31.906 19.135-5.736 5.339-12.369 10.034-17.569 15.634-1.701 1.664-2.231 4.034-3.799 5.698-6.502 7.031-13.002 14.069-18.369 22.136-3.904 6.132-7.269 12.504-11.169 18.77-3.533 6.132-7.164 12.902-9.769 19.669-1.331 3.638-0.662 7.031-0.756 10.934-0.094 4.3-1.569 8.469-2.069 12.902-1.069 10.134-0.378 20.304-1.2 30.472-0.378 4.431-1.031 8.6-1.436 13.002-0.094 1.569-0.378 3.137-0.378 4.696v14.834c0 11.603-0.662 23.205 2.069 34.506 1.967 8.996 4.169 17.603 5.104 26.705 0.944 7.938 1.531 16.035 2.864 23.837 1.436 8.865 4.669 17.969 7.796 26.305 2.995 8.070 4.431 16.669 7.294 24.737 4.034 11.069 8.835 21.636 11.835 32.972 2.599 9.633 8.731 17.569 13.669 26.171 2.231 3.638 3.799 6.898 6.898 10.033 3.799 3.365 6.672 7.531 10.703 10.669 2.864 1.937 5.964 3.638 8.835 5.472 8.070 5.33 15.904 11.702 25.406 13.803 6.001 1.436 11.969 4.3 18.104 4.801 4.3 0.569 8.865 0 13.134 0 12.269 0 22.537-0.094 32.972-7.003 5.197-3.668 10.133-7.306 16.134-9.669 3.904-1.398 7.938-2.468 11.734-4.169 5.197-2.333 9.903-5.964 13.803-10.133 4.535-4.838 7.031-11.069 10.534-16.535 2.468-4.034 5.869-7.437 8.6-11.069 2.864-4.034 5.605-8.099 8.731-11.869 7.665-8.835 12.769-18.604 17.969-29.038 4.3-9.231 8.969-18.104 12.869-27.606 2.864-6.768 4.431-13.669 6.267-20.704 1.569-6.001 3.77-11.734 5.067-17.704 0.944-4.431 1.832-8.731 2.731-13.035 0.944-4.696 0.756-9.367 1.2-14.069 0.094-2.202 0.189-4.566 0.662-6.633 0.378-2.097 1.569-3.904 1.305-6.001-0.944-4.169 0-7.938 0.569-12.234 0.944-5.197 1.305-10.534 1.305-16.003v-36.073c0-5.605 0.378-11.469-0.282-17.203z"></path>
    <path fill="#000000" d="M377.006 613.754c0.569 1.305-0.282 1.305-0.662 2.202-0.662 1.701-1.2 2.769-1.305 4.696-0.282 5.736 0 11.602 0 17.469 0 10.134 1.163 20.836-0.756 30.972-2.731 13.434-2.731 27.737-7.796 40.506-1.436 3.904-4.034 8.334-6.397 11.602-3.77 5.33-9.101 9.503-13.002 14.704-2.097 2.864-4.566 5.33-7.031 7.569-1.569 1.569-3.269 2.995-5.104 4.431-2.864 2.202-5.605 4.272-7.796 6.898-7.031 8.705-11.602 19.505-23.035 23.036-6.397 1.832-13.569 4.801-18.505 9.101-1.832 1.569-3.77 2.231-5.869 3.269-2.995 1.436-5.736 3.006-8.731 4.431-6.898 3.365-13.535 8.469-19.636 13.135-2.636 2.097-5.234 4.3-8.204 5.869-2.097 0.944-2.097 1.436-1.967 3.668 0.094 3.904 1.569 5.973 4.034 8.969 5.33 5.736 11.069 10.534 16.935 15.503 6.768 5.736 13.669 10.169 21.236 14.835 11.434 7.437 22.905 14.334 35.139 20.469 4.034 2.069 8.070 3.638 12.234 4.931 3.403 1.163 6.663 2.202 9.769 3.904 3.137 1.436 5.869 3.533 9.138 4.566 4.566 1.305 9.231 3.269 13.135 5.605 4.838 2.864 9.138 5.33 14.202 7.399 5.869 2.636 11.333 5.605 17.469 7.306 7.269 2.097 14.303 4.566 21.736 6.132 3.77 0.662 7.164 2.202 10.802 2.864 2.599 0.378 5.472 0.094 8.204 0.094 8.6 0 17.335 1.664 25.805 3.1 13.134 1.967 26.57 2.636 39.706 0.944 13.303-1.701 26.437-2.231 39.706-3.904 10.834-1.436 22.035-2.864 32.838-5.234 9.903-2.069 19.536-4.931 29.806-6.633 18.769-2.995 37.139-7.531 54.307-15.769 2.731-1.305 5.234-3.365 7.968-4.169 1.436-0.189 2.731-0.378 4.034-1.031 3.1-1.569 6.502-2.599 9.769-4.169 6.369-3.006 13.134-5.067 19.635-7.938 7.833-3.533 15.003-7.796 23.471-10.534 7.796-2.506 14.434-7.703 21.203-11.869 4.034-2.468 8.469-4.3 12.269-6.898 8.835-5.605 15.102-18.504 9.733-28.506-2.069-4.064-5.197-7.833-7.796-11.602-3.269-5.197-9.367-8.469-14.069-12.234-7.164-5.736-15.735-12.369-24.336-15.769-1.832-0.756-4.169-1.163-6.132-1.967-3.365-1.305-6.369-4.405-9.634-6.237-4.931-3.006-9.502-7.173-14.069-10.669-4.169-3.269-7.173-8.204-11.702-11.069-3.668-2.231-8.334-3.931-12.369-5.369-2.636-1.031-5.605-1.937-8.6-2.333-1.701-0.094-3.799 0.094-5.736-0.378-5.605-1.937-5.472-7.269-7.173-12.234-0.756-2.599-2.468-4.431-3.137-6.898-0.756-2.069-1.163-4.034-1.664-6.237-1.331-4.696-3.269-8.334-3.269-13.303 0.094-5.472-1.436-9.901-2.097-15.235-0.189-2.069-0.473-9.367-3.496-9.901-4.169 6.663-8.070 13.034-11.202 20.469-2.468 5.964-6.267 10.669-10.302 15.869-3.365 4.838-6.369 9.903-9.231 15.369-2.731 5.472-4.034 11.734-8.6 16.035-6.369 6.237-13.669 11.069-20.57 16.669-8.731 6.633-15.903 14.835-25.005 20.97-4.566 3.1-9.502 5.698-14.334 8.705-5.831 3.403-11.569 3.904-18.104 3.904-6.768 0.094-13.003 1.569-19.536 0.662-10.934-1.832-21.205-4.931-31.772-7.569-4.931-1.305-12.234-3.1-15.103-7.531-3.365-5.197-8.6-9.138-11.833-14.602-1.163-2.069-2.731-3.231-3.904-5.197-2.231-2.731-3.533-6.237-5.5-8.969-1.436-2.097-3.231-3.137-4.535-5.234-1.069-1.569-1.305-3.231-1.701-5.067-0.756-4.431-0.756-8.204-0.756-12.769-0.094-8.835-5.104-15.369-10.434-22.004-1.832-2.599-3.629-4.696-4.3-7.796-0.944-4.034-1.701-7.437-3.77-11.069-1.832-3.668-1.163-7.703-1.163-11.734 0-3.629 0.189-7.437 0.094-11.333-0.094-3.638-0.944-6.898-3.006-10.034-0.756-1.436-1.832-2.731-2.599-4.3-1.701-3.231-2.372-6.768-4.706-9.733-1.031-1.2-2.731-2.363-3.403-3.931-0.378-0.944 0-2.468 0-3.629v-6.369c0-2.731-0.378-4.696-2.468-6.531-1.305-1.163-4.169-1.436-5.339-5.33z"></path>
    <path fill="#000000" d="M804.673 416.188c0.282-3.638 0.282-7.531-1.031-10.802-1.701-4.431-5.339-7.938-7.569-11.969-2.599-4.971-6.106-7.164-9.869-10.934-1.436-1.436-2.636-3.269-3.931-4.838-2.202-2.864-5.067-4.931-8.070-6.768-2.599-1.701-4.801-3.904-7.665-5.33-1.967-0.944-3.904-1.163-6.132-1.701-6.633-1.569-13.269-4.838-19.535-7.665-4.669-2.231-9.101-4.971-14.069-6.936-4.169-1.305-7.665-2.468-11.434-4.801-7.306-4.169-14.334-7.703-22.67-9.367-10.302-1.967-18.903-7.833-26.57-14.602-4.696-4.3-9.101-7.938-14.203-11.569-5.472-4.064-9.634-9.138-15.103-13.034-8.865-6.633-16.269-15.636-20.169-26.306-2.231-6.633-3.533-13.402-3.799-20.335-0.189-7.003 0.662-14.035 2.097-20.937 0.756-3.403 2.069-6.898 2.333-10.301 0-1.701-0.282-3.496 0-5.067 0.569-4.034 5.197-8.865 8.070-11.602 1.305-1.163 2.363-1.436 3.799-2.468 3.496-2.231 5.973-5.736 9.367-8.070 1.436-0.944 2.995-1.305 4.566-2.097 1.305-0.569 1.794-1.569 2.969-2.468 2.231-1.701 6.898-1.967 9.533-2.468 2.864-0.756 5.605-1.569 8.469-2.363 2.834-0.473 5.964-0.189 9.101-0.756 4.3-0.756 8.865-1.569 13.134-1.569 2.097 0 3.931 0.756 5.869 1.305 2.864 0.569 5.234-0.944 8.070-1.031 3.006-0.094 7.031 1.701 9.669 2.864 2.834 1.305 4.262 3.365 6.768 5.067 4.034 2.731 7.665 6.132 11.569 9.138 3.403 2.468 5.605 5.831 8.070 9.231 2.097 2.995 3.403 6.768 5.234 9.901 2.995 4.931 2.599 9.101 1.305 14.835-1.031 3.904-1.436 8.731-3.533 12.369-1.031 2.231-2.731 4.169-4.405 6.001-0.756 0.944-1.2 1.832-2.506 2.202 1.701-1.031 1.701-4.034 2.231-5.869 0.473-2.599 1.806-5.568 1.937-8.070v-5.736c0.094-2.731-1.031-3.231-2.468-5.197-0.944-1.436-1.569-3.231-2.731-4.566-1.436-1.436-3.496-2.333-5.067-3.365-8.865-7.306-20.469-10.169-30.472-15.503-2.864-1.436-5.234-1.305-8.334-1.305-3.137-0.094-5.472-0.944-8.469-1.436-3.269-0.569-8.6 0.094-11.733 1.436-1.163 0.378-2.069 1.305-3.006 1.967-5.736 4.169-11.569 7.796-15.504 13.934-3.629 5.831-8.334 12.603-7.796 19.77 0.282 3.904 2.599 8.204 4.169 11.734 1.832 3.904 3.629 7.164 6.001 10.669 2.202 2.995 4.034 6.132 5.869 9.367 1.305 2.363 3.1 4.064 4.535 6.267 3.668 5.067 7.833 9.502 12.234 14.069 3.799 3.77 8.6 6.369 12.769 9.769 8.204 6.502 18.104 11.969 27.871 16.134 6.267 2.468 12.769 4.3 19.036 7.173 5.973 2.731 11.569 5.605 17.836 7.665 13.269 4.838 26.305 7.294 38.806 14.069 3.638 1.967 9.769 3.799 12.369 7.306 0.944 1.031 1.305 2.995 1.832 4.169 1.305 2.731 2.969 5.339 4.931 7.703 2.731 2.969 5.605 6.094 8.334 9.367 4.838 6.094 8.070 13.269 8.996 21.103 0.662 4.3 1.163 6.898 2.969 11.069 2.231 4.535 2.494 8.334 2.363 13.269 0 9.903 0.756 20.069 0 29.838-0.944 8.969-4.838 17.169-10.033 24.47-6.001 8.865-14.835 15.369-18.904 25.404-1.806 4.535-5.472 7.173-9.502 9.903-4.931 3.629-10.133 7.031-15.369 10.403-5.472 3.533-10.669 8.6-16.803 11.069-2.834 1.305-5.698 1.832-8.705 2.864-8.996 3.137-17.203 8.334-26.305 11.202-7.164 2.333-14.602 4.431-21.904 7.173-6.502 2.468-8.835 1.569-14.969-1.701-3.137-1.967-7.665-3.77-8.705-7.796-1.569-5.472 0-13.434 0-18.904 0-2.069-0.662-4.931 0.944-6.106 1.569-1.163 4.801-0.094 6.633-0.378 0.094 0 0.282-0.756 0.944-0.944 2.097-0.378 4.971 0 7.031-0.094 6.672-0.569 13.434-1.436 19.804-3.137 8.865-2.468 17.704-4.696 26.438-7.938 18.369-7.031 33.071-20.97 44.406-37.139 6.502-9.367 12.634-19.27 14.969-30.838 0.756-4.971 2.506-9.903 2.731-14.869 0-1.305 0.094-2.731 0.094-4.169z"></path>
    <path fill="#000000" d="M345.368 642.157c-0.282-0.944-0.756-1.967-1.832-3.006-5.736-5.472-17.035-4.431-23.971-5.869-8.334-1.569-16.769-6.132-22.769-11.835-3.137-3.137-4.034-7.569-6.898-10.834-2.468-2.864-4.3-5.736-5.736-9.367-2.202-6.237-3.496-11.969-3.403-18.635 0-5.831-0.378-11.969-1.531-17.704-0.569-2.599-1.569-4.169-2.506-6.502-1.569-5.067-2.333-10.434-3.77-15.503-0.282-1.163-0.569-2.202-1.305-3.365-0.944-1.701-2.731-2.864-4.3-4.169-5.197-4.838-8.731-11.333-13.803-16.435-4.696-4.669-10.169-8.969-15.634-12.634-3.77-2.599-6.369-6.106-10.033-8.705-1.937-1.436-4.034-2.097-6.237-3.137-4.696-2.097-8.6-4.931-13.936-5.067-3.77-0.094-7.437-1.069-11.333-1.2-6.898-0.094-13.934-0.189-20.836-0.473-2.468-0.282-3.137 0.944-4.931 2.333-4.696 3.533-9.404 6.633-13.669 10.434-3.403 2.864-6.397 5.339-8.731 9.231-2.097 3.629-4.034 6.768-6.633 10.034-1.832 2.599-2.506 5.973-3.269 8.969-0.756 3.403-1.832 6.768-2.599 10.033-0.944 4.566-0.094 9.138-0.094 13.535 0 4.3-0.282 8.334 0.094 12.634 0.944 7.031 5.605 12.634 9.367 18.369 3.77 5.197 7.703 10.802 12.101 15.369 4.566 4.566 10.434 7.437 14.869 12.103 3.365 3.799 6.237 8.334 8.705 12.502 4.3 7.173 5.605 16.169 5.605 24.37v15.869c0 5.869-1.664 10.702-4.169 16.034-1.794 4.3-5.067 8.334-8.571 11.434-3.931 3.403-7.833 4.431-12.769 5.869-2.599 0.944-4.971 1.701-7.173 3.533-1.031 0.662-1.832 1.569-3.137 1.937-1.436 0.569-5.736-0.094-5.736 2.097 2.363 0.473 5.234 0.094 7.703 0.094 4.931 0 11.969-0.282 16.535-2.468 1.701-1.069 3.137-2.636 4.931-3.269 2.372-1.031 4.838-1.305 7.031-2.731 4.034-2.599 9.138-6.633 12.002-10.669 0.378-0.662 1.031-1.569 1.531-2.506 7.164-11.702 6.936-26.305 6.936-39.84 0-11.602-2.097-24.87-6.805-35.672-4.169-9.404-13.669-13.936-19.27-22.005-7.269-10.169-17.303-18.904-17.435-32.573-0.282-4.3-1.305-9.101-1.031-13.533 0.189-2.097 1.031-3.799 1.794-5.33 0.944-1.069 1.701-2.231 2.731-3.269 4.3-4.696 8.996-9.769 13.803-13.669 1.436-1.163 2.506-2.864 4.034-3.799 2.363-1.531 5.5-0.756 7.968-0.662 4.034 0.094 7.796 1.832 11.703 2.864 3.533 0.756 7.031 1.163 10.302 2.731 5.472 2.864 10.934 7.796 15.369 11.969 4.801 4.566 9.633 10.034 13.669 15.636 1.967 2.864 4.706 4.931 6.502 8.204 1.832 3.533 2.731 7.437 4.696 10.934 1.701 2.995 2.995 6.132 4.696 9.138 1.794 3.496 3.1 5.736 3.638 9.769 0.756 7.134 1.305 14.169 2.599 21.203 0.756 3.799 1.031 7.703 1.701 11.469 0.944 4.034 2.731 7.938 4.034 11.869 2.995 8.43 10.533 13.134 17.435 18.336 3.403 2.731 6.132 5.104 10.302 6.663 4.169 1.531 8.6 3.365 12.369 5.472 5.472 2.864 10.802 7.665 16.669 9.367 5.067 1.436 12.634 0.944 17.835 0.282 4.3-0.378 3.137-2.363 3.137-6.267v-7.796c-0.094-4.034 2.468-8.469 1.436-12.103z"></path>
    <path fill="#000000" d="M341.2 489.632c-4.169-2.202-8.865-3.1-12.769-5.973-5.472-4.034-7.437-10.169-9.633-16.535-2.202-6.397-2.864-13.934-2.864-20.469 0-3.77 0.662-7.269 1.163-10.802 0.282-2.599 0.662-5.869 1.569-8.334 1.832-4.169 4.696-8.204 7.437-11.833 5.067-7.306 10.403-14.335 15.634-21.636 3.496-4.931 7.399-9.769 10.534-15.235 2.731-5.067 4.3-10.534 5.472-16.269 1.436-7.938 4.838-15.103 6.502-22.936 1.294-5.698 2.363-11.703 2.599-17.836 0.378-5.605 0.378-11.333-0.756-16.803-0.378-2.202-0.944-4.931-1.832-7.031-0.756-1.937-2.333-3.638-3.365-5.339-2.231-3.904-3.668-10.269-7.833-13.134-1.531-1.163-3.365-1.436-5.067-2.468-1.832-1.069-3.403-2.769-5.197-4.064-5.339-4.034-11.469-6.502-17.969-7.531-3.006-0.569-6.531-0.094-9.502-1.031-1.069-0.282-1.967-0.756-2.995-1.305-7.569-2.636-15.369-2.372-23.305-1.967-2.231 0.282-4.566 1.436-6.805 1.701-0.944 0-1.531 0.094-2.333 0.282-1.163 0.473-2.202 1.031-3.496 1.531-3.269 1.832-6.397 2.864-9.271 5.369-5.067 4.535-9.101 10.934-11.333 17.435-1.305 3.403-2.731 6.633-3.231 10.434-0.662 4.034-0.094 8.334-0.094 12.502-0.094 8.43 1.832 16.535 1.937 25.005 0.094 5.698-0.189 13.669-3.77 18.87-1.031 1.163-2.333 2.333-3.231 3.77-1.569 2.097-2.097 4.838-3.006 7.306-1.069 2.599-2.864 4.931-4.3 7.306-2.231 3.904-4.696 7.665-8.070 10.533-0.756 0.756-1.069 1.569-1.832 1.967-1.701 1.163-3.269 1.163-5.067 2.599-2.231 1.832-3.533 4.3-6.267 5.33-4.169 1.832-8.469 3.137-12.769 4.566-5.605 1.937-11.569 3.496-17.169 5.605-1.967 0.662-3.403 0.756-5.369 1.305-0.756 0.094-1.305 0.662-2.333 0.756h-2.468c-4.034-0.473-4.971-4.431-7.569-6.633-1.664-1.436-6.369-3.403-5.964-6.369 2.731-0.944 5.472 0.378 7.938 1.031 3.269 0.756 6.237 0.756 9.633 0.756 8.731 0 14.969-4.3 22.405-8.070 7.031-3.904 13.669-10.401 16.535-18.235 2.333-6.237 4.3-12.769 4.931-19.269 0.944-7.437 1.305-14.969 1.305-22.405 0-4.669-0.944-10.669 0.094-15.235 1.069-3.904 2.494-6.898 2.995-10.802 0.569-3.77 2.231-7.031 3.668-10.669 1.531-4.169 2.333-8.731 4.034-12.902 5.472-12.369 18.104-20.304 28.105-28.538 2.864-2.333 6.132-6.502 9.669-7.399 1.305-0.282 2.468 0 3.77 0.094 4.669 0.094 9.633-1.701 14.202-2.995 8.334-2.333 16.004-3.668 24.87-3.668 6.237 0 12.103 0 18.235 1.331 6.237 1.531 11.435 3.629 16.769 7.134 5.369 3.533 10.569 6.898 15.369 11.069 5.605 4.971 11.869 11.202 15.769 17.603 6.267 10.534 11.601 22.77 13.269 35.039 0.944 7.134 0.662 14.304 0.662 21.47 0.094 7.306-0.662 15.103-2.731 22.27-1.305 3.77-2.202 7.306-5.067 10.033-1.701 1.937-2.864 3.904-4.034 6.106-2.363 5.605-3.799 11.603-6.132 17.204-3.006 7.437-7.437 15.102-13.169 20.569-2.468 2.599-5.197 4.566-7.665 7.173-2.731 2.995-4.034 6.132-5.869 9.502-1.832 3.269-3.137 7.173-5.197 10.169-5.197 7.294-5.067 17.569 0.378 24.469 1.664 1.967 4.535 4.169 4.801 7.031 0.378 2.468-1.701 4.696-2.468 7.031-1.701 4.431-2.333 9.367-3.629 13.803-0.756 3.137-2.506 6.001-4.706 8.469-0.756-0.662-1.832-1.436-2.731-1.832z"></path>
    <path fill="#000000" d="M683.689 608.953c0-1.832 0.282-3.668 1.2-4.838 2.834-3.269 7.938-0.282 10.934 1.163 9.769 4.696 20.305 9.271 29.306 15.369 10.401 7.031 21.87 15.369 28.505 26.57 2.995 4.931 6.267 9.101 10.034 13.403 4.669 5.33 7.399 13.803 8.835 20.603 0.569 2.468 0.378 4.801 0.662 7.269 0.094 1.832 1.031 3.533 1.305 5.33 0.094 2.864-1.569 6.001-1.701 8.996-0.094 1.701 0.094 3.506 0.094 5.472-0.094 4.931 1.967 9.367 2.468 14.202 0.569 5.067 2.731 9.633 3.269 14.704 0.378 4.169 3.403 7.306 4.431 11.069 0.473 1.701 0.473 3.668 0.944 5.472 0.944 3.533 3.006 6.001 6.001 8.204 2.864 1.967 5.736 3.931 8.469 6.001 3.231 2.333 6.106 4.566 10.269 5.067 3.799 0.569 7.306 2.097 11.069 1.832 8.731-0.569 14.069-6.001 20.705-10.033 5.605-3.496 10.969-5.831 13.703-12.234 2.069-4.931 3.496-9.101 1.569-14.204-1.436-4.034-1.569-8.204-3.137-12.101-1.832-4.431-3.403-8.070-4.431-12.769-0.662-2.864-1.967-5.605-2.202-8.334-0.094-3.1 0.944-6.502 1.806-9.231 0.569-2.333 0.569-4.566 1.305-6.768 0.662-2.599 1.967-5.197 2.864-7.938 2.363-6.663 6.633-10.434 12.634-14.469 2.333-1.569 4.838-2.864 7.031-4.431 1.031-0.662 1.305-1.436 2.599-1.305 0.094 2.468-3.231 5.33-4.566 7.306-2.731 4.3-5.339 8.334-7.003 13.134-4.696 12.769-1.832 25.006 2.069 37.506 1.305 3.668 3.77 7.306 4.034 10.934 0.569 2.864-0.944 5.5-1.031 8.334-0.282 4.3-1.701 8.099-2.995 12.002-1.031 3.231-1.436 6.768-2.599 10.034-2.995 8.571-8.469 15.735-15.503 21.736-1.967 1.701-3.496 3.496-6.001 4.431-1.664 0.756-2.969 1.031-4.535 2.202-4.971 3.904-9.502 7.031-15.769 8.469-2.864 0.756-5.736 2.097-8.865 2.202-2.468 0-4.535-0.756-6.768-1.305-5.736-1.294-10.269-3.1-15.369-6.237-9.769-5.869-17.035-14.969-20.835-25.805-2.731-8.571-5.197-17.569-8.070-26.305-2.202-7.269-3.638-14.834-6.001-22.269-2.202-7.134-2.969-15.235-6.094-22.27-1.569-3.365-3.668-6.369-5.067-9.733-1.701-4.431-2.363-9.138-4.696-13.303-3.533-6.633-9.769-13.934-15.634-19.135-7.938-6.898-20.569-11.734-30.606-15.103-3.006-1.069-6.106-2.231-9.367-2.231-2.333-0.094-5.472 1.163-7.031-1.163-2.468-3.638 2.864-9.101 4.3-12.103 1.436-3.269 2.599-7.031 3.269-10.434 0.094-0.756 0.094-1.937 0.189-2.969z"></path>
    <path fill="#000000" d="M368.039 345.343c1.794-6.768 3.638-12.769 7.134-18.869 6.531-11.203 15.503-20.437 25.671-28.538 3.77-3.1 8.334-4.669 12.769-6.898 5.067-2.333 10.034-5.197 15.103-7.665 4.566-2.097 9.231-2.731 13.934-4.566 4.696-1.569 9.101-3.77 13.669-5.736 17.569-7.796 32.938-23.306 42.706-39.706 6.531-10.434 12.369-23.971 9.404-36.606-0.378-2.202-1.569-4.169-2.231-6.237-1.031-2.864-1.031-5.869-2.202-8.865-1.069-3.006-2.864-6.001-5.104-8.6-1.436-1.937-3.365-3.365-4.801-5.605-1.163-1.664-1.967-3.496-3.269-5.197-2.731-3.496-6.768-6.001-10.401-8.865-5.472-4.169-12.134-8.204-19.17-9.869-4.169-1.069-8.43-0.378-12.603 0.944-3.269 0.944-6.001 2.731-9.271 3.269-6.898 1.031-14.969 6.106-14.569 14.169 0.094 2.864 0 5.736 0 8.6 0 4.838 0.282 8.731 1.305 13.302 1.305 5.472 4.669 10.403 6.369 15.869 0.378 1.569 0.756 4.3 1.701 5.33 1.163 1.436 2.069 2.506 3.137 4.169 0.756 1.436 1.794 3.006 2.864 4.3 0.473 0.944 2.468 2.468 1.794 3.904-1.031-0.189-2.069-1.305-3.1-1.664-2.506-1.163-3.533-2.231-5.736-3.799-3.137-2.333-6.54-4.801-9.404-7.665-2.333-2.202-3.1-5.067-4.801-7.703-1.436-1.937-3.269-3.365-4.566-5.197-3.77-5.472-2.731-12.769-2.599-18.735 0-7.569-0.756-14.069 3.904-20.335 2.731-3.77 4.838-7.665 7.569-11.335 2.599-3.496 7.665-5.067 10.802-7.796 2.097-1.701 4.034-3.269 6.502-4.3 2.506-1.163 5.234-2.864 7.703-3.629 2.864-0.662 6.898-0.094 9.901-0.094h8.469c8.334 0 16.669 1.569 23.804 6.132 4.566 2.834 8.996 6.502 12.634 10.269 4.3 4.034 8.865 7.294 12.502 11.969 3.269 4.3 6.397 8.865 8.204 13.835 0.756 1.664 1.701 3.1 2.506 4.669 3.006 6.898 3.365 14.835 4.169 22.005 1.163 10.434 1.937 21.236 0.756 31.672-0.944 8.835-2.599 19.904-8.731 26.937-1.531 1.569-3.365 2.599-5.067 3.904-5.197 3.668-7.531 10.169-12.502 14.069-4.3 3.533-8.969 6.397-13.269 9.502-6.672 4.431-13.702 6.898-20.335 10.834-5.197 2.969-9.101 4.931-14.969 6.106-4.431 0.662-7.796 2.097-11.603 3.668-2.864 1.031-5.831 1.305-8.571 2.599-5.605 2.333-10.569 6.369-15.003 10.403-4.535 3.904-9.769 7.437-13.535 12.103-2.995 3.533-4.931 7.437-7.665 10.969-3.533 4.535-5.104 10.403-8.469 15.103-3.904 5.067-7.031 11.335-9.404 17.169-1.531 3.931-3.77 14.335-10.002 9.769-3.904-2.864-1.967-8.469-1.967-12.769-0.094-5.33 1.031-10.669 1.031-16.003-0.094-3.629 0-7.173-3.1-4.566z"></path>
    <path fill="#000000" d="M766 487.968c3.77-3.403 7.703-7.031 11.469-10.434 4.669-4.169 10.269-6.768 15.503-10.169 6.502-4.169 12.769-9.231 19.904-12.234 4.034-1.701 8.334-2.731 12.269-4.535 4.034-1.967 7.665-2.995 12.103-3.137 6.633-0.378 13.669-3.77 20.435-2.995 4.034 0.378 7.938 1.967 11.869 2.864 4.801 1.163 8.705 3.137 13.134 5.736 7.703 4.669 17.336 5.197 22.936 13.003 4.801 6.898 10.269 12.769 14.169 20.469 2.864 5.736 5.869 11.835 7.437 17.836 6.502 26.836-8.6 56.108-30.47 71.111-6.369 4.405-13.035 8.334-20.437 11.069-3.904 1.305-7.968 2.468-12.134 3.231-4.169 0.756-8.334 0.282-12.603 1.069-4.3 0.662-8.6 0.756-13.169 0.662-2.599 0-4.696-2.202-7.164-1.937 0.569 0.094 1.031 0 1.569-0.094-0.094-2.097-2.468-2.506-3.638-3.137-2.231-1.436-3.403-4.034-5.104-5.869-1.664-1.701-3.638-4.3-4.669-6.237-0.756-1.569-0.094-3.269-0.662-4.829-0.282-1.031-1.163-1.701-1.031-2.864 0.378 9.138 8.969 8.469 15.503 10.434 4.431 1.163 7.531 2.969 12.502 1.436 3.638-1.2 7.269-0.282 10.934-1.2 3.904-1.163 6.898-5.472 10.934-7.031 3.638-1.531 7.437-1.664 10.403-4.405 3.668-3.137 8.231-3.931 11.869-7.173 2.333-2.231 4.931-5.605 6.502-8.469 3.006-5.605 5.736-11.603 5.736-17.836 0-6.132 0.094-12.234 0.282-18.104 0.094-2.864 0.662-5.869 0.378-8.6-0.282-2.864-2.097-5.605-3.006-8.334-0.756-2.468-1.569-4.431-3.77-5.605-5.234-2.599-9.271-6.898-15.003-8.334-7.665-2.069-15.369-4.838-23.17-6.237-6.898-1.331-15.903 0.662-22.004 4.169-2.468 1.398-5.067 2.468-7.703 3.638-5.472 2.333-9.769 6.001-14.704 9.231-4.696 3.137-8.334 7.173-13.035 10.034-4.535 2.731-8.334 6.768-11.969 10.301-3.496 3.365-7.569 2.864-11.969 4.034-5.472 1.794-9.769 5.197-14.603 8.204z"></path>
    </svg>