<svg xmlns="http://www.w3.org/2000/svg" viewBox="-80.559 -80.000 1109.821 1184.003">
    <path fill="#000000" d="M459.084 675.831c3.328 0.847 6.527 1.5 10.026 1.838-19.669-38.015-63.829-59.178-81.023-98.175-9.003-20.523-9.344-43.988-5.675-66.175 2.859-8.49 5.504-17.151 8.363-25.983 5.334-16.511 10.666-33.365 21.162-47.359 20.821-28.672 44.159-28.331 75.647-18.005 13.824 4.354 22.016 17.023 36.821 21.504 23.68 7.003 41.002 17.834 59.007 34.346 7.68 6.821 11.69 8.321 22.826 11.985 0.169 2.177 0.508 4.523 1.835 6.7 2.005 3.628 7.339 5.805 9.344 8.962 2.517 4.015-0.169 9.18-1.149 13.184-1.664 7.68 4.65 23.68 1.149 28.843-2.346 3.326-5.973 5.842-7.339 9.639-0.641 2.008-0.641 4.354-0.472 6.362 0.81 7.813 2.987 15.147 6.485 21.973 2.005 3.834-1.323-4.136 0 0 4.181 11.865-3.499 25.514-9.984 36.352-8.832 15.659-23.040 22.826-40.021 28.5-23.68 7.68-45.482 1.669-70.015 4.656-11.819 1.536-50.303-17.834-67.967-25.471-0.508 4.656-8.191 22.655-10.367 26.836-2.475-0.847 42.837 21.333 44.032 20.992 18.176 7.511 37.802 9.18 57.002 13.312 3.669 0.726 9.813 2.516 13.312 2.516 3.499 0.363 2.986-1.209 5.845-1.488 12.331-1.669 23.168-2.685 33.664-6.652 10.325-3.665 25.514-6.7 34.346-11.344 6.314-3.326 9.984-10.159 15.829-14.165 5.334-3.326 11.819-6.652 16.17-10.667 7.168-6.821 7.467-15.36 12.501-22.996 5.632-8.369 6.826-17.664 12.971-25.856 5.163-7.341 8.191-13.994 9.515-22.655 2.176-12.33-13.013-23.85-12.501-35.669 0.339-7.172 2.176-12.672 0.859-20.481-0.677-5.031-1.835-9.518-1.197-14.165 1.323-10.026-0.339-17.195-5.504-28.031-10.495-22.145-19.498-36.992-39.168-52.139-17.664-13.696-29.141-28.33-47.829-41.173-6.144-4.354-9.472-9.518-16-13.653-2.816-1.669-5.504-2.008-7.979-3.665-54.826-38.527-127.188 9.99-174.334 40.832-14.165 9.18-28.842 19.157-38.357 33.493-19.669 29.482-11.478 68.82-1.149 102.826 6.314 20.82 13.482 41.684 26.325 59.007 11.69 15.317 27.349 26.837 42.666 38.143 18.517 13.696 38.186 27.862 60.33 33.194z"></path>
    <path fill="#000000" d="M0.082 2.346c1.197-0.121 2.005-0.968 2.517-2.346 0.169 3.665-3.158 9.978-2.517 12.672 1.028 3.665 6.357 3.967 8.533 5.503 6.656 4.306 9.302 7.172 9.643 17.493 0.339 4.306 0 9.47 0.677 13.824 1.149 8.152 1.149 2.818 4.48 7.341 3.499 4.475 2.859 5.334 3.499 12.672 0.859 9.978 0.169 10.159 6.016 15.829 9.813 9.639 9.984 23.68 15.146 38.314 3.499 10.026 7.168 19.669 10.367 29.354 5.973 17.152 12.331 36.139 12.8 55.339 0.339 7.813 0 11.816 3.030 17.323 3.328 5.503 8.832 7.003 12.331 12.842 4.010 6.833 5.334 18.133 10.325 25.813 9.515 14.165 20.48 25.856 32.512 34.688 3.499 2.298 6.998 4.826 9.984 8.152 4.65 6.192 7.339 15.189 9.515 23.85 9.003 34.304 18.133 68.65 27.008 102.997 2.133 7.982 4.309 16.17 8.149 22.314 3.669 5.842 8.49 9.857 12.672 14.335 21.162 22.017 25.472 51.328 28.16 85.674 0.169 3.665 0.677 7.68 2.346 10.329 1.323 2.685 3.499 3.665 5.504 4.826 20.992 11.695 30.976 16.853 42.495 45.865 2.816 6.821 6.826 11.985 9.643 18.646 3.669 8.66 4.694 22.655 6.357 32.683 1.494 9.47 2.645 14.506 5.504 21.973 7.295 19.498 11.307 25.001 24.661 38.698 2.816 2.818 5.632 5.805 7.339 9.809 2.304 5.503 2.986 13.012 6.826 15.829 1.835 1.318 3.968 1.318 5.163 3.157 1.835 1.838 2.005 5.031 2.176 8.019 0.98 7.982 1.664 16.001 2.475 24.15 21.504 4.354 46.165 11.344 58.495 38.015 3.030 7.003 5.504 15.147 10.838 18.474 4.181 2.516 9.515 0.847 13.525 4.185 2.133 2.008 3.669 5.164 5.163 8.49 10.965 25.173 21.632 50.687 32.17 76.202 3.499 7.813 9.472 12.799 12.8 19.797 3.030 7.003 3.030 13.696 6.527 20.181 6.998 13.483 11.989 28.331 18.474 41.984 1.365 2.854 2.859 5.031 4.991 6.362 8.363-14.165 12.373-36.522 22.016-52.522 13.354-21.973 30.336-39.637 49.663-50.816 2.176-1.318 4.693-2.685 6.016-5.672 3.669-6.991 1.323-19.498 2.986-27.648 2.346-10.026 8.191-17.493 10.154-28.031 3.669-20.481 13.184-38.656 24.704-51.626 1.664-1.705 3.328-3.665 5.462-3.834 2.176-0.363 4.352 1.209 6.357 0.968 2.986-0.121 5.334-3.495 7.339-6.483 9.472-13.824 22.144-25.003 32.981-38.016 14.336-16.98 8.191-14.165 7.68-41.173-1.149-30.634 6.656-72.319 19.328-96.639 12.331-23.338 26.837-44.501 42.837-62.677 6.656-7.511 13.824-14.848 17.493-25.685 2.517-7.982 2.986-16.811 4.821-25.003 5.675-24.832 22.357-39.978 37.162-54.656 23.168-22.997 40.704-62.975 45.866-103.508 1.494-11.985 4.48-23.637 5.163-35.967 0.641-13.866 0.169-25.855 2.176-40.020 2.475-20.011-1.365-30.976 11.307-44.842 6.357-6.652 12.672-13.653 18.858-20.31 6.485-7.172 13.141-14.506 18.304-24.021 12.842-23.808 23.509-61.652 27.52-89.983 1.323-9.518 7.979-14.165 8.32-24.149 0.508-8.708-2.346-15.701 1.149-23.68 1.664-4.185 4.010-5.164 4.522-10.667 0.508-4.693-1.149-8.321 0.677-13.183-5.675-2.479-4.352 6.011-5.845 10.329-0.859 2.516-3.030 8.019-4.821 9.518-2.346 2.516-6.186 1.488-8.875 3.665-3.158 2.516-6.826 5.164-10.154 7.849-5.504 4.475-7.509 13.311-12.672 18.304-22.485 16.683-40.149 44.331-62.805 62.677-6.357 4.826-12.672 9.518-18.176 16.17-23.509 28.502-57.173 87.679-58.837 133.674-0.508 8.998 0.508 18.005-1.323 26.666-0.859 4.015-2.346 7.644-4.010 11.006-16.341 36.479-40.661 55.295-61.823 84.308-5.675 7.341-6.357 11.175-6.357 20.82 0 23.85-13.653 43.861-19.669 64.682-9.643 33.322-16.64 69.163-24.832 103.508-0.81 4.015-1.835 7.982-3.669 11.478-1.664 3.665-4.309 6.531-6.656 8.998l-21.973 24.66c-5.205 5.842-10.666 11.695-14.677 19.029-6.527 11.478-10.325 26.325-18.346 35.967-5.845 7.341-14.336 12.034-17.493 22.358-2.816 8.998-0.677 19.84 0 29.823 1.323 22.826-8.021 21.163-18.005 29.354-3.328 2.818-5.334 12.501-8.49 16.17-3.499 3.798-9.003 6.652-10.666 13.653-1.494 5.975 0 8.829-2.346 14.335-2.346 5.672-4.309 8.66-6.144 14.976-1.028 4.523-2.005 8.019-4.010 11.695-0.508 0.605-50.858-61.823-54.997-65.322-7.68-6.011-15.829-10.667-22.528-19.029-6.485-7.644-11.307-18.474-15.829-28.971-17.664-42.025-32.298-86.868-53.631-125.353-17.365-30.848-26.666-58.325-39.338-92.329-10.026-27.008-20.010-54.186-30.165-81.151-8.021-22.017-16.682-44.501-29.866-60.33-7.979-9.18-18.304-19.029-17.664-33.194-6.144 0.726-11.648-3.326-17.152-7.341-23.338-16.81-47.487-35.157-62.506-66.132-16-33.024-18.987-75.349-32.17-110.677-24.149-64.852-74.495-88.489-110.975-134.356-2.346-2.818-4.864-5.334-7.339-7.293-2.687-1.705-9.856-7.341-12.33-6.192 4.65-0.363 9.472-0.484-10.026-9.809z"></path>
    </svg>