<svg xmlns="http://www.w3.org/2000/svg" viewBox="-67.585 -90.027 951.168 1194.027">
    <path fill="#000000" d="M572.884 90.155c28.672 11.989 103.339-54.997 89.003-89.515-21.333-4.992-58.837 20.523-78.635 30.507-26.496 13.355-43.008 24.363-57.515 50.517 21.675 18.987 45.483 19.669 69.845 2.176-7.509 2.304-15.189 4.48-22.699 6.315z"></path>
    <path fill="#000000" d="M647.082 171.008c-36.523 9.813-70.187 6.485-90.325 43.989-8.363 15.147-17.365 36.181-14.037 54.656 44.672 3.84 141.184-31.488 126.507-86.827-9.984-11.648-20.992-18.347-22.144-11.819z"></path>
    <path fill="#000000" d="M638.591 347.989c-34.005 0.341-85.333 25.003-102.187 56.491-20.181 38.187 7.979 38.827 38.187 27.008 36.651-14.677 68.821-15.147 92.459-45.312 5.675-7.168 19.669-24.021 15.36-32.512-9.515-19.499-41.173 3.157-43.819-5.675z"></path>
    <path fill="#000000" d="M652.074 500.992c-35.157 18.816-73.173 8.32-90.667 52.181-6.016 14.805-6.656 38.656 0.683 55.168 33.963-7.509 59.136-35.499 92.629-45.696 5.675-9.003 21.205-11.989 25.685-22.315 7.339-17.152-11.52-41.344-28.331-39.339z"></path>
    <path fill="#000000" d="M196.564 52.992c-38.144-8.661-74.667-63.019-116.821-50.816-4.992 1.493-8.832 5.632-9.344 10.795-2.816 34.859 87.339 94.507 128 76.843 7.851-3.328 9.515-12.971 4.651-19.84-0.128 0-0.128-0.128-0.128-0.128-1.664-2.347-3.499-16.171-6.357-16.853z"></path>
    <path fill="#000000" d="M210.9 255.317c-6.997-44.331-51.669-54.485-85.845-64.341-18.987-5.333-85.803-23.168-53.163 26.837 8.661 13.525 38.699 16 51.499 24.363 18.688 12.331 26.197 19.797 45.995 26.667 19.029 6.656 52.864 13.483 41.515-13.525z"></path>
    <path fill="#000000" d="M216.575 413.824c-29.824-38.485-125.013-106.837-135.68-20.48 32 10.965 65.835 21.333 97.493 31.659 15.829 5.163 43.349 16.64 37.163-8.491-3.328 0.128-6.997-0.171 1.024-2.688z"></path>
    <path fill="#000000" d="M222.25 547.669c-15.659-5.845-160.341-75.691-139.008-5.504 7.168 23.808 55.808 30.805 72.661 39.68 28.331 14.976 48.341 34.645 68.011 13.995 27.989-29.525 7.979-40.363-1.664-48.171z"></path>
    <path fill="#000000" d="M491.22 124.501c-0.981 0.981-1.493 1.835-1.323 2.005-1.493-0.683-3.328 0.469-4.651 1.493-13.824 10.325-127.829 102.144-123.861 115.157-12.16-39.851-43.648-69.504-67.797-100.651-14.848-19.328-54.357-31.019-62.336-50.517 7.808-4.651 16.981-7.851 25.131-8.832-0.64 11.179 55.851 39.339 68.693 52.651 10.155 10.496 23.168 22.869 31.317 34.517 6.528 9.685 3.84 18.816 15.36 25.984 27.989-25.643 55.168-48.299 86.997-70.485 13.824-9.813 37.632-38.016 52.48-19.157 0.683 0.811-15.317 13.141-20.011 17.835z"></path>
    <path fill="#000000" d="M245.716 263.979c19.029 10.197 43.349 10.496 62.037 23.339 18.304 12.672 23.979 29.184 37.504 45.824 16.64 20.523 40.149 29.184 45.824 57.515-7.339-97.664 69.163-120.661 125.995-171.648 6.656 41.984-35.84 55.637-58.837 84.139-27.648 33.835-71.851 63.36-70.315 110.677-31.189-24.491-53.035-50.816-77.696-84.651-18.005-24.533-44.843-34.859-69.504-51.499 2.859-4.011 3.328-5.333 8.021-8.363 6.997 2.517-2.859 3.029-3.029-5.333z"></path>
    <path fill="#000000" d="M489.258 408.491c-23.168 10.155-33.707 43.52-50.859 60.331-17.664 17.323-40.32 20.821-50.987 43.179-40.832-23.509-83.499-81.195-132.821-86.187-1.195 4.693-1.195 11.691 0 16.171 11.307 7.509 20.651 15.659 32.981 23.851 14.336 9.643 32.512 16.811 44.672 28.843 21.504 21.461 31.147 55.979 65.835 60.8 6.315-34.005 114.304-115.84 91.179-146.987z"></path>
    <path fill="#000000" d="M286.079 581.333c3.499 28.501 57.984 44.843 81.664 59.989 15.317 9.984 30.848 27.648 37.163 43.648 12.501-24.832 54.656-93.483 87.509-89.131 3.84 27.477-140.331 184.491-108.032 146.475-2.304-1.152-4.309-2.176-7.125-2.816 1.664-57.856-35.371-82.688-75.008-110.165-9.856-6.827-38.016-16.683-36.011-31.189 2.987-22.997 28.501 1.024 19.84-16.811z"></path>
    <path fill="#000000" d="M568.746 696.832c-3.029-0.853-4.693 1.152-5.504-2.347 42.837-10.496 117.333-50.005 150.016-81.493 24.32 79.317 90.325 135.851 49.664 226.816-18.859 42.368-50.005 85.504-85.504 114.859-29.184 24.32-67.84 31.659-100.523 49.493 53.675-37.845 107.691-93.184 111.019-166.827 3.157-71.68-66.688-121.856-124.501-139.52-0.341 3.499 1.323 4.181 5.333-0.981z"></path>
    <path fill="#000000" d="M247.252 716.501c2.987-0.683 4.651 1.323 5.504-2.176-42.837-10.496-117.333-50.005-150.016-81.493-24.32 79.317-90.325 135.808-49.664 226.816 18.816 42.325 50.005 85.504 85.504 114.859 29.141 24.149 67.669 31.659 100.48 49.493-53.675-37.845-107.648-93.184-110.976-166.827-3.328-71.68 66.645-122.027 124.501-139.52 0.299 3.499-1.536 4.181-5.333-1.152z"></path>
    <path fill="#000000" d="M296.916 787.328c0 84.821 55.168 156.331 90.496 224.171 0.171-39.168-11.179-78.848-5.504-118.016 2.475-17.664 11.477-25.643 16.981-42.155 4.523-14.165 1.664-31.659 5.333-45.995 57.344 39.339 48.512 148.139 65.493 206.165 28.203-33.835 38.528-118.827 50.859-166.187 5.163-19.499 9.003-44.971 5.845-66.645-2.859-18.517-17.536-36.693-17.536-56.021-28.16 14.165-65.835 68.523-103.168 73.003-36.309 4.352-80.64-54.315-113.963-67.499-1.536 22.528-9.173 54.656 5.163 59.179z"></path>
    </svg>