<svg xmlns="http://www.w3.org/2000/svg" viewBox="-17.130 -32.004 1099.253 1137.634">
    <path fill="#000000" d="M545.371 439.37c0.094-10.098-0.594-20.2-1.719-30.186-1.261-11.587-2.066-23.294-3.671-34.829-1.209-8.265-3.275-16.415-3.62-24.735-0.285-6.541-0.094-12.795 0.976-19.165 1.554-9.357 2.299-18.824 3.904-28.181 2.123-12.855 4.422-25.531 5.685-38.508 2.175-22.378 0.914-45.221 0.914-67.658 0-8.322-1.605-15.777-3.842-23.754-2.928-10.333-4.648-20.951-6.773-31.447-2.866-14.062-6.313-27.949-9.010-42.065-1.090-5.797-2.066-11.534-3.671-17.219-1.147-4.070-2.463-8.028-3.213-12.279-0.382-2.123-0.805-4.303-0.629-6.488l-3.327-14.86c-1.209 5.625-2.409 11.134-3.501 16.759-0.429 2.066-0.094 4.358-0.594 6.31-0.429 1.895-0.805 2.928-0.805 4.993-0.047 4.303-0.914 8.606-1.719 12.795-1.494 8.093-1.028 16.587-1.781 24.849-0.743 8.44-2.175 16.871-3.558 25.252-2.695 16.528-2.747 33.399-6.369 49.867-1.318 6.254-2.525 11.647-2.928 18.135-0.285 4.42-0.476 8.719-0.976 13.142-1.090 8.891-1.549 17.789-2.066 26.683-0.532 9.588-0.914 19.284-2.175 28.753-1.033 7.405-2.757 14.576-3.042 22.093-0.238 4.303-0.191 8.613-0.191 12.914 0.047 10.274 0.047 20.544 0 30.818-0.047 8.494 1.147 16.812 2.525 25.134 1.209 7.577 3.961 14.975 5.685 22.49 2.237 9.298 5.218 18.308 7.405 27.549 4.070 16.927 6.767 34.025 6.654 51.475-0.047 10.155 0.238 20.373-0.429 30.527-0.476 8.897-1.033 17.735-1.318 26.687-0.094 5.218-0.976 10.386-1.433 15.605-0.335 4.246-0.191 8.493-0.191 12.682 0.047 6.714 0.047 13.374 0.047 20.028 0 9.241-0.047 18.479 0 27.724 0.047 5.218-0.862 10.098-1.667 15.26-0.862 5.512-1.433 10.564-3.099 15.895-1.952 6.254-2.463 12.458-2.638 18.999-0.238 7.458-1.38 14.635-2.695 21.921-3.385 18.592-1.095 37.185-2.643 55.892-1.209 13.606-2.351 28.062-0.862 41.721 2.53 21.981 8.206 43.329 11.826 65.193 1.549 9.411 2.289 18.879 3.956 28.288 1.781 9.754 4.127 19.343 5.625 29.151 1.199 8.381 2.123 16.587 3.904 24.849 2.066 9.761 3.382 19.171 3.785 29.098 0.476 11.534-0.191 23.069 1.028 34.55 1.266 12.166 4.189 24.27 6.661 36.264-0.047-0.285 0.805 7.289 2.98 5.337 1.318-1.147 0.191-7.69 0.191-9.695 0-4.88-0.686-9.589-0.805-14.463-0.594-38.048-7.458-75.805-6.654-113.915 0.429-19.284 2.289-38.448 4.415-57.613 0.976-8.838 1.318-17.735 2.643-26.573 1.549-10.327 3.785-20.544 4.993-30.93 1.261-11.534 2.866-23.069 3.501-34.663 0.594-9.808 0.047-19.681-0.476-29.551-0.976-20.26-3.563-39.94-7.921-59.856-1.033-4.88-2.47-9.642-2.123-14.688 0.238-2.582 0.476-5.398 0.862-7.921 1.028-5.856 3.27-11.475 4.648-17.272 3.615-14.919 4.993-30.705 5.738-46.085 0.594-12.279 2.294-24.443 2.928-36.728 0.429-8.666 0.532-17.503 1.605-26.11 1.261-10.039 2.351-20.313 1.318-30.411-0.924-9.417-2.47-18.367-2.356-27.837z"></path>
    <path fill="#000000" d="M251.388 133.676c-0.285-0.537-0.537-0.976-0.748-1.494 1.266-0.047 2.185 0.862 3.213 1.433 3.385 1.719 7.177 2.928 10.677 4.361 5.453 2.175 10.499 5.046 15.951 7.23 5.744 2.237 11.707 3.785 17.16 6.601 7.464 3.899 15.723 5.963 23.188 9.808 6.541 3.332 13.712 5.512 20.426 8.44 4.648 2.004 9.122 4.018 13.89 5.797 4.127 1.549 8.375 3.094 12.392 4.934 6.201 2.866 11.998 6.541 18.195 9.582 1.89 0.914 3.842 1.781 5.738 2.695 3.733 1.838 6.714 5.106 10.505 6.773 2.004 0.862 7.69 2.409 8.146 4.71-0.594 0.919-1.494 0.919-2.409 1.323-1.605 0.686-2.98 1.487-4.303 2.695-1.781 1.487-4.821 4.7-4.534 7.286 5.969 3.446 11.992 6.773 17.963 10.274 6.141 3.558 12.623 6.369 18.765 9.927 1.719 1.033 8.838 3.62 9.238 6.374 0.047 0.594-0.686 1.719-0.805 2.409-0.285 1.662-0.285 3.151-0.805 4.934-0.285 1.028-1.549 4.303-0.686 5.625 0.238 0.335 1.199 0.629 1.549 0.976 0.862 0.857 0.743 1.090 1.667 1.833 2.351 1.781 6.714 2.643 9.298 3.842 5.91 2.757 11.707 5.625 17.497 8.606 8.206 4.361 16.302 8.838 24.277 13.546 8.322 4.88 16.242 10.505 24.735 15.035 6.885 3.62 13.943 6.886 20.831 10.618 3.385 1.838 6.714 3.904 10.214 5.453 3.042 1.375 6.369 2.351 9.357 3.842 11.303 5.566 21.52 12.511 28.346 23.354 3.785 6.029 8.206 11.422 12.279 17.219 4.88 7.058 9.588 14.403 14.237 21.633 4.874 7.63 9.582 15.095 14.975 22.378 5.572 7.637 11.938 13.831 19.515 19.456 6.767 4.993 14.629 9.298 22.318 12.742 6.201 2.809 12.629 4.993 18.652 8.206 17.391 9.298 36.496 15.035 54.516 23.010 17.616 7.802 35.007 15.664 51.244 26.169 12.57 8.087 25.081 18.189 32.658 31.388 3.327 5.797 6.022 11.992 8.778 18.076 3.327 7.577 7.058 14.979 10.558 22.437 8.606 18.42 16.759 37.359 29.098 53.659 8.493 11.19 18.016 21.921 30.646 28.519 4.127 2.175 9.123 2.294 13.481 3.956 5.625 2.185 11.369 4.127 17.106 5.969 8.493 2.638 17.1 5.797 25.365 9.182 5.909 2.409 12.511 5.046 17.729 8.719 6.998 4.993 14.463 9.814 18.652 17.563-1.033-0.691-2.066-1.667-3.161-2.47-4.018-3.042-9.063-5.219-13.427-7.749-7.63-4.303-15.148-10.327-23.759-12.676-7.286-2.009-14.86-0.691-22.265-2.985-3.151-0.976-6.195-2.409-9.47-2.866-2.695-0.382-5.506-0.429-8.206-0.691-5.046-0.429-9.927-1.375-14.801-2.695-4.246-1.090-8.612-1.952-12.682-3.615-6.542-2.587-12.451-6.141-18.592-9.529-21.868-12.279-44.417-28.234-57.1-50.499-5.512-9.695-12.226-18.652-17.788-28.288-3.275-5.625-6.945-10.217-11.075-15.266-5.909-7.058-11.647-14.576-18.764-20.491-5.969-5.046-12.908-8.719-19.509-12.795-5.572-3.439-10.962-7.111-16.474-10.611-4.874-3.161-10.099-5.916-15.207-8.613-2.409-1.261-4.933-2.175-7.286-3.444-3.733-2.009-7.004-4.596-10.73-6.548-9.182-4.648-18.023-9.927-27.086-14.688-10.618-5.565-21.123-11.706-31.222-18.189-5.506-3.558-11.19-6.601-16.355-10.737-5.218-4.127-9.122-8.832-13.487-13.771-4.874-5.565-10.098-10.956-14.747-16.693-1.781-2.299-3.327-4.648-4.933-7.058-2.928-4.361-6.369-8.666-8.838-13.374-2.638-5.165-5.046-9.582-8.606-14.178-4.018-5.276-7.749-10.671-12.398-15.379-10.618-10.73-22.437-20.081-34.603-28.807-6.369-4.591-13.374-8.322-20.313-11.879-7.17-3.733-14.231-7.749-21.58-11.134-8.778-4.008-16.812-9.238-25.478-13.481-8.95-4.422-18.076-8.265-26.801-13.142-8.832-4.94-17.842-8.897-27.258-12.682-10.039-4.075-19.681-9.241-29.895-12.855-8.381-2.99-16.872-5.566-25.193-8.553-4.993-1.781-11.19-3.213-15.723-6.082 1.494-0.862 6.195-0.191 7.749-0.335 4.361-0.382 8.606-0.537 12.968-0.594 2.809-0.094 6.482-0.285 9.238-1.090 0.335-0.094 1.781-0.748 1.89-1.095 0.748-1.947-3.094-2.695-4.127-3.213-7.518-3.671-14.688-8.262-22.265-11.992-9.986-4.993-20.087-9.927-30.358-14.344-0.476-0.191-14.403-4.88-14.457-6.313 4.018 0.429 8.147 0.144 12.22 0.144 4.422 0 9.298 0.594 13.718-0.144 1.261-0.191 8.434-1.199 8.381-3.151-0.047-1.38-5.284-2.587-6.313-3.099-13.027-6.254-25.938-12.279-39.424-17.503-20.147-7.803-40.519-15.035-60.832-22.437-17.331-6.31-35.007-12.166-51.819-19.855-13.6-6.195-27.139-12.683-40.91-18.592-7.524-3.151-14.807-6.661-21.927-10.671-1.433-0.805-4.591-1.724-5.625-3.161-2.871-3.956 10.446-2.695 12.166-2.695h24.051c2.525 0 5.106 0 7.63 0 0.537 0 4.761 0.537 5.738-0.191 4.933-3.327-6.654-13.142-7.921-16.242 1.266-0.429 2.294 0.047 3.506 0.476 3.042 1.028 5.738 2.695 8.838 3.671 15.552 4.874 31.616 8.262 47.114 13.427 3.956 1.318 7.803 2.928 11.879 3.671 2.351 0.429 4.529 0.862 6.714 1.952 1.549 0.743 3.265 2.525 4.934 2.98 2.004 0.594 4.648-0.382 6.541-0.686z"></path>
    <path fill="#000000" d="M131.166 304.917c-0.238-0.047-0.532-0.144-0.753-0.191 0.191-2.695 5.744-0.862 6.542-0.691 8.666 2.351 17.278 5.684 25.772 8.44 16.468 5.334 33.055 10.327 49.291 16.408 25.597 9.582 49.41 22.897 74.888 32.598 10.731 4.070 21.123 8.778 31.622 13.427 7.058 3.151 14.29 6.028 21.117 9.642 0.862 0.476 7.69 3.099 7.35 5.165-0.285 1.719-5.856 2.175-6.832 2.351-4.993 1.147-10.327 2.643-15.095 4.422-7.111 2.747-13.599 6.595-20.426 9.808-4.767 2.185-9.701 4.018-14.463 6.082-3.327 1.433-8.95 3.099-10.386 6.885 1.261 2.409 5.393 2.53 7.743 3.213 4.768 1.38 9.182 4.308 13.659 6.374 7.23 3.385 14.575 6.541 21.868 9.754 8.719 3.904 17.331 8.034 26.050 11.932 7.464 3.27 15.039 6.141 22.325 9.701 10.505 5.106 21.004 10.158 31.562 15.148 4.534 2.123 8.265 5.398 12.795 7.464 2.876 1.323 5.337 2.809 8.093 4.42 1.781 1.033 2.928 1.781 4.075-0.429 0.686-1.261 0.476-2.814 0.476-4.361 0-1.318-0.691-4.477 0.047-5.625 0.476-0.743 1.667-1.204 2.356-1.662 3.385-2.409 6.369-5.112 10.558-6.088 7.577-1.833 15.207 3.852 22.093 6.254 7.69 2.7 15.035 5.916 22.783 8.265 2.175 0.629 6.082 1.375 7.23 3.213 0.094 0.094 0.429 1.494 0.594 1.833 0.429 0.805 0.924 1.266 1.554 1.9 2.004 2.066 4.477 3.728 6.542 5.79 2.004 2.014 3.785 3.79 6.135 5.337 8.553 5.512 17.848 10.158 27.258 14.003 4.189 1.719 7.981 3.213 11.766 5.738 1.494 0.976 5.106 2.928 6.254 4.591 1.318 1.838 1.494 4.648 2.47 6.832 5.566 12.226 14.801 22.378 20.254 34.716 2.643 6.029 4.246 12.398 6.66 18.48 2.123 5.337 6.254 10.618 10.446 14.522 2.866 2.577 5.393 5.678 8.493 8.027 3.094 2.409 6.714 3.966 10.099 5.916 7.058 4.070 13.831 6.654 21.861 8.203 9.357 1.838 18.711 3.904 28.181 5.453 10.499 1.724 21.746 2.705 31.735 6.429 9.642 3.62 18.879 8.206 27.83 13.261 6.313 3.553 11.482 7.915 14.86 14.457 2.582 4.993 3.79 10.73 5.744 16.014 2.582 6.939 4.415 14.344 7.743 20.945 3.671 7.117 7.636 14.231 12.801 20.313 2.237 2.643 3.785 5.685 5.85 8.381 2.757 3.671 7.058 6.773 10.903 9.182 4.88 2.98 10.386 3.671 15.836 5.046 4.821 1.261 9.357 3.385 14.178 4.71 5.91 1.549 12.107 2.468 18.076 3.671 5.684 1.147 11.594 1.781 17.219 3.156 6.429 1.554 12.623 3.842 18.939 5.909 4.934 1.667 10.327 2.53 15.095 4.596 4.648 1.952 9.179 4.534 13.308 7.345 7.524 4.993 14.178 11.534 20.147 18.195 1.781 1.947 3.558 3.956 5.276 6.022 3.733 4.42 6.369 9.469 9.411 14.344 5.738 9.298 10.217 19.455 16.242 28.578 2.066 3.161 4.189 6.028 6.654 8.897 0.805 0.976 7.289 9.695 9.129 8.434-1.38-2.98-3.79-5.85-6.201-8.087-4.361-4.075-9.523-7.921-14.231-11.653-11.015-8.547-23.82-13.943-36.556-19.509-9.47-4.189-19.112-7.289-29.098-10.158-5.334-1.549-10.499-3.327-15.664-5.278-6.369-2.351-13.142-3.265-19.396-5.738-6.313-2.47-12.166-6.254-18.076-9.582-5.512-3.042-11.134-5.625-16.302-9.298-11.416-8.034-21.921-17.278-32.996-25.825-4.303-3.385-8.838-6.714-12.623-10.677-3.558-3.728-6.541-7.915-9.986-11.76-2.923-3.275-5.797-6.374-8.375-9.927-2.928-4.189-5.856-8.381-9.182-12.166-7.004-8.034-13.202-17.16-22.093-23.241-7.69-5.337-15.611-10.045-24.336-13.546-8.891-3.501-17.842-6.254-27.199-8.493-6.022-1.375-12.226-2.351-18.308-3.733-3.671-0.857-6.826-2.638-10.274-4.018-3.385-1.375-6.886-2.175-10.214-3.728-5.453-2.582-10.558-6.088-16.071-8.725-5.91-2.928-11.534-6.369-16.872-10.333-5.85-4.303-12.166-7.862-18.016-12.107-5.625-4.075-10.85-8.553-15.896-13.255-5.225-4.821-10.274-9.873-14.979-15.213-6.135-6.998-12.339-14.629-19.568-20.426-4.761-3.842-9.523-7.289-14.747-10.446-7.111-4.303-13.54-9.582-20.77-13.771-7.803-4.596-16.13-8.606-24.33-12.57-3.332-1.549-6.661-3.213-10.158-4.361-1.261-0.476-3.733-1.895-5.052-1.947-1.487-0.047-1.313-0.191-1.487 1.433-0.238 1.895 0 3.553-0.476 5.453-0.476 2.066-5.512 11.647-1.433 12.849-2.985-1.61-5.797-3.501-8.897-4.934-10.558-4.874-21.52-8.719-32.539-12.451-13.374-4.539-26.567-9.529-39.881-14.231-15.095-5.278-30.418-10.558-45.109-17.047-23.354-10.214-45.281-22.844-67.658-35.061-10.671-5.797-21.868-10.618-33.227-15.038-4.189-1.662-8.262-3.501-12.166-5.791-1.375-0.748-4.993-2.237-4.874-4.137 2.747-1.028 5.85-4.591 7.803-6.601 4.993-5.159 10.274-10.386 14.516-16.183 3.213-4.42 7.23-10.44 12.683-12.22 4.018-1.323 8.44-1.667 12.623-2.014 1.38-0.047 4.137 0.429 4.94-0.914-0.748-2.175-3.842-2.525-5.572-3.327-6.369-2.928-11.647-8.44-17.331-12.511-8.375-5.969-17.1-10.962-26.335-15.498-9.874-4.874-19.224-10.039-29.901-13.142-7.23-2.118-13.884-5.393-20.831-8.375-8.262-3.506-16.753-6.254-25.193-9.357-9.754-3.62-19.621-7.464-28.807-12.338-1.209-0.629-7.577-3.213-7.23-5.225 1.033-0.191 2.928-0.429 3.213-1.433 0.429-1.204-1.838-3.671-2.582-4.529-2.066-2.356-4.477-4.361-6.601-6.661-3.558-3.842-6.254-8.719-7.974-13.658-0.476-1.147-1.89-4.189-0.238-5.159 1.952-1.147 7.577 1.662 9.182 2.066 4.303 0.976 9.47 3.094 13.89 2.98 1.89 0 6.135-1.375 7.17-2.928 2.237-3.444-6.541-9.867-8.666-12.050-3.904-3.899-8.034-6.826-12.398-10.099 0.382-0.857 4.88-1.028 5.797-1.375z"></path>
    <path fill="#000000" d="M160.832 530.56c-0.429-0.429-0.862-0.691-1.38-0.924 1.719 0 3.62 1.433 4.933 2.185 8.725 4.934 17.623 8.95 26.748 13.142 16.528 7.458 33.168 14.516 49.404 22.55 17.331 8.553 34.663 16.987 52.107 25.252 17.219 8.147 35.179 15.207 51.88 24.33 2.066 1.147 3.956 2.463 6.022 3.558 1.209 0.686 5.337 2.066 5.453 3.671-1.433 0.537-3.439 0-4.934 0.144-6.369 0.429-12.166 4.993-16.242 9.582-3.382 3.904-6.135 8.553-10.155 11.879-4.189 3.501-9.069 5.797-13.374 9.069-2.409 1.771-4.189 3.671-5.969 6.082-0.857 1.090-3.785 3.956-3.042 5.278 3.042 0.382 4.821 2.066 7.35 3.842 7.458 5.334 13.314 12.166 20.028 18.308 3.444 3.213 7.399 6.022 10.499 9.523 0.691 0.753 1.667 2.47 2.643 2.866 1.375 0.629 3.723 0.047 4.874-0.429 1.781-0.634 3.27-1.667 5.106-2.299 4.246-1.375 8.493-2.409 12.682-3.904 6.714-2.409 13.6-4.821 19.741-8.494 3.961-2.351 8.778-4.874 12.226-8.027 1.667-1.494 4.477-5.744 6.998-5.453 0 1.433 1.323 3.553 1.952 4.933 3.327 7.458 7.289 12.511 14.35 17.1 2.351 1.605 5.106 2.695 7.458 4.246 2.009 1.375 3.099 3.501 5.165 4.933 1.833 1.318 5.678 4.070 8.146 3.151 0.335-1.719 0.532-3.265 2.47-3.956 2.351-0.748 6.022-0.191 8.322 0.594 1.199 0.429 1.433 0.691 2.463 1.261 0.691 0.382 0.924 0.382 1.554 0.537 2.409 0.743 4.241 1.433 6.714 2.47 8.719 3.785 17.963 5.625 27.027 8.322 1.724 0.537 5.909 1.028 7.289 2.409 0.805 0.805 0.914 2.409 1.89 3.327 3.842 3.733 8.265 7.23 12.683 10.387 7.345 5.165 15.095 9.529 22.783 14.119 3.558 2.123 7.058 4.422 10.618 6.488 2.98 1.719 6.541 3.094 9.179 5.276 3.042 2.525 3.558 4.539 3.042 8.262-0.594 4.596-1.433 9.010 0.429 13.487 2.123 5.106 5.512 9.642 8.034 14.522 2.582 4.934 5.678 9.411 9.469 13.54 2.757 2.985 5.278 5.337 9.010 7.058 3.151 1.433 5.738 1.433 9.063 1.895 5.106 0.753 9.986 2.53 14.919 3.79 8.034 2.066 16.355 2.866 24.502 4.303 5.625 1.028 11.19 2.123 16.987 2.299 4.018 0.047 7.974-0.144 11.991 0 8.666 0.238 17.623 1.433 26.17 2.866 7.345 1.261 14.86 3.899 21.921 6.194 6.892 2.237 13.659 5.856 19.687 9.814 5.159 3.444 11.475 7.63 11.647 14.231 0.191 5.91 3.62 11.075 4.71 16.872 1.313 7.111 5.159 13.599 9.979 18.939 3.446 3.899 8.553 6.714 12.855 9.523 5.278 3.385 11.422 6.66 17.331 8.725 5.053 1.719 10.558 2.066 15.783 2.866 6.135 0.976 12.279 1.261 18.42 1.318 2.409 0 4.539 0.429 6.885 0.857 4.075 0.691 8.494 0.594 12.511 1.554 5.337 1.261 10.962 3.444 15.896 5.738 5.678 2.643 11.76 6.313 15.379 11.534 2.463 3.62 2.175 6.885 3.733 10.671 2.237 5.625 5.506 10.903 7.974 16.474 1.090 2.409 4.648 6.998 3.385 9.867-1.605-1.090-2.695-2.757-3.842-4.241-2.123-2.695-4.94-4.422-7.637-6.429-5.276-3.79-10.155-8.146-15.895-11.25-5.046-2.695-10.387-3.446-15.89-4.761-9.415-2.299-18.881-3.507-28.404-5.168-5.106-0.919-9.873-2.866-14.35-5.453-4.534-2.643-9.123-4.596-13.944-6.661-4.241-1.781-8.034-4.648-11.932-7.111-4.308-2.757-8.613-5.572-12.802-8.494-9.238-6.66-16.753-15.842-24.157-24.389-12.908-14.919-27.258-28.813-45.506-37.012-4.591-2.066-9.357-2.757-14.178-3.62-4.993-0.976-9.755-2.066-14.86-2.123-11.594-0.238-22.783 0.639-34.316 2.185-5.337 0.743-10.499 1.833-15.895 2.237-6.254 0.476-12.564 0.429-18.818 0.976-5.512 0.537-11.134 0.976-16.647 0.191-6.135-0.862-11.819-3.62-17.616-5.512-7.458-2.47-14.119-8.034-19.509-13.6-6.313-6.429-12.451-13.427-18.023-20.485-3.842-4.88-7.286-10.098-11.475-14.694-4.821-5.28-9.754-10.561-14.688-15.726-4.71-4.874-9.417-9.523-15.498-12.564-4.993-2.525-10.155-4.534-15.148-7.004-6.429-3.094-13.027-5.678-19.741-8.147-7.405-2.695-13.943-6.826-20.776-10.671-3.213-1.781-6.998-2.866-9.927-4.993-1.261-0.914-2.175-2.175-3.558-2.866-2.463-1.147-4.934-0.335-7.058 0.743-3.847 1.952-9.695 0.429-13.196-1.662-3.446-2.014-6.374-4.821-10.158-6.313 0.191-1.89-1.199-2.47-2.928-2.294-3.439 0.335-7.862 4.88-10.671 6.66-8.034 5.278-16.011 10.843-24.33 15.723-3.62 2.066-8.322 3.213-11.653 5.738-0.914 0.691-2.237 1.833-2.351 3.042-0.238-2.237-1.838-3.671-3.501-4.88-2.928-1.719-5.91-3.265-9.010-4.648-4.303-2.237-8.494-4.7-12.57-7.345-5.963-3.615-11.819-7.457-17.963-10.789-3.671-1.947-7.345-3.842-11.071-5.738-1.605-0.857-3.332-1.605-5.053-2.123-0.191-0.335-0.285-0.743-0.238-1.142-0.594-0.335-1.142-0.691-1.719-1.095-2.98-2.066-5.797-4.184-9.123-5.91-6.654-3.444-13.771-6.022-20.372-9.695-2.066-1.147-8.087-4.018-8.779-6.945-0.629-2.409 3.151-4.075 4.648-5.566 5.276-5.276 8.262-13.546 11.766-20.028 3.151-5.797 6.082-11.653 10.327-16.812 3.042-3.733 9.122-7.921 10.039-12.974 0.285-1.313 0.191-2.351-0.594-3.439-1.433-2.014-5.565-4.422-7.286-5.738-9.986-7.809-21.408-14.178-32.543-20.2-5.79-3.042-11.587-5.969-17.384-8.897-1.89-0.691-3.501-1.719-4.821-3.213 2.066-0.238 3.671 2.066 3.671 3.966-6.654 1.89-15.551-2.123-21.98-3.558-21.23-4.88-42.12-11.021-63.182-16.528-13.999-3.62-28.062-6.832-42.12-10.045-4.591-0.919-9.182-2.004-13.718-3.265-1.487-0.047-2.638-0.634-3.382-1.781 2.463-3.275 8.95-3.213 12.564-3.785 7.637-1.147 15.207-1.781 22.957-1.952 4.075-0.094 8.146-0.094 12.166 0 1.433 0.285 2.814 0.285 4.189-0.191-0.914-1.261-2.643-1.433-3.842-2.294-1.494-1.090-1.147-1.028-1.147-2.809 0-4.648-0.691-8.322-2.525-12.742-2.695-6.367-7.921-11.876-11.766-17.554-2.809-4.137-7.345-9.701-8.891-14.635-0.862-2.866-1.209-5.453 0.532-8.146 1.662-2.53 4.648-3.099 6.482-5.398 4.246-5.276 1.61-14.688 1.323-20.885-0.094-1.838-1.038-5.685 1.833-5.856 0.976 0.476 1.952 0.914 2.928 1.433 2.123 1.895 4.018 3.956 5.625 6.313 3.842 5.165 7.974 9.814 13.027 13.831 5.453 4.303 11.422 6.369 17.676 9.003 1.142 0.285 2.118 0.748 2.98 1.433 0.382 0.094 0.537 0.335 0.537 0.691 2.004 0.594 4.529 0.094 6.541 0.094z"></path>
    </svg>