<svg xmlns="http://www.w3.org/2000/svg" viewBox="-26.712 -17.371 1263.398 1128.410">
    <path fill="#000000" d="M65.969 561.043c-1.719 4.352-2.962 8.434-3.921 12.801-8.76 38.917 14.841 77.195 37.357 109.997 30.32 44.359 60.439 88.757 90.755 132.954 2.842 4.525 5.961 8.765 10.478 11.558 8.28 5.001 18.92 2.848 28.439 1.133 19.679-3.763 40.318-4.715 58.437-13.28 18.278-8.607 33.44-27.838 29.519-47.518-5.76-28.76-47.479-42.037-47.317-71.397 0.125-20.159 22.319-34.237 42.319-32.96 20 1.396 37.52 13.559 53.119 26.24 17.36 13.92 34.078 29.36 44.998 48.919 10.958 19.199 15.321 43.4 7.2 64.197-10.8 27.359-39.517 42.037-63.918 58.438-24.038 16.559-47.638 43.76-39.68 72.198 3.12 10.443 10.161 19.358 17.798 27.479 44.398 45.958 111.436 69.237 174.871 60.319 10.118-1.565 20.759-3.925 27.959-10.919 9.201-8.765 11.558-22.678 11.4-35.479-0.319-18.119-4.239-36.56-14.999-50.959-10.478-14.52-29.077-23.721-46.717-20.001-17.519 3.594-31.4 22.838-26.24 39.997 2.798-10.285 14.198-16.882 24.998-16.401 10.92 0.339 20.759 6.236 28.597 13.919 4.041 4.037 7.958 8.922 9.039 14.678 2.962 16.559-17.039 27.2-33.599 28.76-30.157 2.323-61.077-8.119-83.118-28.76-13.598-12.479-24.2-30.919-20.159-48.756 3.12-12.959 12.959-22.958 21.719-32.797 22.958-25.478 41.878-54.996 51.238-87.956 9.239-32.96 8.28-69.396-6.84-99.994-16.281-33.277-47.839-57.199-82.355-69.995-34.52-12.959-72.198-15.321-109.075-13.44-14.198 0.795-28.717 2.041-41.557 8.607-12.638 6.236-23.12 18.719-23.6 32.96-0.282 17.798 14.879 35.317 8.439 52.039-24.359-6.554-36.718-34.717-36.838-59.997-0.157-25.319 8.399-50 9.681-75.155 2.040-39.839-13.439-82.355 3.72-118.435 8.601-17.678 24.080-31.4 31.717-49.519 10.478-25.799 4.239-58.759 23.6-78.595 6.399-6.566 14.678-10.636 22.199-15.638 14.999-10.318 40.798-45.157 47.359-62.196-10.641 0.908-23.159 13.761-33.44 14.558-6.72 12.801-34.237 33.718-48.756 32-6.879 26.438-22.199 44.077-35.96 67.677-7.958 13.761-17.481 24.839-24.2 39.359-15.921 35.317-26.24 77.037-21.398 115.636 1.56 11.076 4.358 22.199 2.481 33.44-1.881 10.475-7.641 20.001-10.761 30.157-4.238 13.719-12.681 29.198-11.121 43.28 5.961 55.438 36.877 90.596 77.358 116.073 2.639 1.565 9.998 12.201 13.118 11.399 2.361-0.908 14.841 4.84 16.238 2.848 17.999-27.038-17.961-67.835 1.719-93.275 5.798-7.833 15.158-11.879 24.56-14.078 96.394-22.957 116.073 14.078 149.513 29.077 15.158 6.837 38.758 72.318 28.76 57.156-3-4.195-35.48-37.798-53.119-51.396-41.278-31.717-59.719-34.679-104.995-23.917-11.121 2.517-22.52 7.518-28.16 17.361-3.279 5.804-4.2 12.637-4.358 19.357-0.476 31.117 13.761 61.879 37.52 81.558-18.441 11.72-43.918 27.359-64.077 18.599-20-8.72-35.797-40.918-52.039-55.317-12.158-11.076-24.359-22.16-32.039-36.397-7.32-13.44-1.56-33.119-12.479-43.597-17.198-16.401-33.598-51.079-20-87.956 3.921-10.6 25.919-28.597 27.8-39.516 1.881-11.722 0.807-23.438 0.807-35.158-0.157-36.56-5.001-86.877 6.081-121.877 6.72-20.6 29.519-26.719 42.037-44.359 7.799-10.963 17.639-20.639 23.12-32.96 6.239-13.919 5.918-29.998 11.879-44.077 5.76-14.078 17.039-24.997 24.517-38.12 7.358-13.28 10.32-31.237 0-42.358-17.798 18.759-35.6 37.52-53.599 56.278-11.558 11.999-23.72 26.24-22.64 42.958 0.92 10.16 6.72 19.838 4.839 29.841-2.639 12.637-16.079 19.040-26.879 26.24-27.8 18.119-44.998 51.559-43.759 84.836 1.121 27.838 13.919 54.996 9.719 82.355-4.402 27.479-25.16 49.519-35.317 75.318z"></path>
    <path fill="#000000" d="M1144.044 561.043c1.56 4.352 2.962 8.434 3.921 12.801 8.721 38.917-14.879 77.195-37.357 109.997-30.32 44.359-60.636 88.757-90.917 132.954-2.679 4.525-5.961 8.765-10.32 11.558-8.439 5.001-18.758 2.848-28.439 1.133-19.679-3.763-40.318-4.715-58.596-13.28-18.119-8.607-33.277-27.838-29.519-47.518 5.76-28.76 47.638-42.037 47.479-71.397-0.319-20.159-22.319-34.237-42.319-32.96-20.159 1.396-37.678 13.559-53.158 26.24-17.318 13.92-34.040 29.36-44.998 48.919-10.92 19.199-15.441 43.4-7.32 64.197 10.761 27.359 39.68 42.037 63.918 58.438 24.2 16.559 47.797 43.76 39.838 72.198-3 10.443-10.32 19.358-17.841 27.479-44.359 45.958-111.556 69.237-174.832 60.319-10.161-1.565-20.759-3.925-27.959-10.919-9.36-8.765-11.558-22.678-11.4-35.479 0.157-18.119 4.041-36.56 14.841-50.959 10.641-14.52 29.197-23.721 46.879-20.001 17.318 3.594 31.4 22.838 26.077 39.997-2.639-10.285-14.039-16.882-24.839-16.401-10.92 0.339-20.759 6.236-28.597 13.919-4.041 4.037-7.958 8.922-9.039 14.678-3 16.559 17.001 27.2 33.56 28.76 29.999 2.323 61.116-8.119 83.156-28.76 13.439-12.479 24.2-30.919 20.159-48.756-3.159-12.959-12.998-22.958-21.719-32.797-23.159-25.478-42.037-54.996-51.276-87.956-9.36-32.96-8.439-69.396 6.879-99.994 16.118-33.277 47.677-57.199 82.196-69.995 34.52-12.959 72.318-15.321 109.037-13.44 14.399 0.795 28.76 2.041 41.557 8.607 12.681 6.236 23.318 18.719 23.6 32.96 0.476 17.798-14.841 35.317-8.28 52.039 24.398-6.554 36.56-34.717 36.718-59.997 0.157-25.319-8.28-50-9.681-75.155-2.040-39.839 13.439-82.355-3.6-118.435-8.601-17.678-24.2-31.4-31.559-49.519-10.599-25.799-4.521-58.759-23.879-78.595-6.279-6.566-14.558-10.636-22.040-15.638-14.999-10.318-40.957-45.157-47.359-62.196 10.641 0.908 22.958 13.761 33.44 14.558 6.72 12.801 34.237 33.718 48.598 32 6.879 26.438 22.358 44.077 36.080 67.677 7.958 13.761 17.519 24.839 24.080 39.359 16.079 35.317 26.24 77.037 21.398 115.636-1.402 11.076-4.2 22.199-2.361 33.44 1.881 10.475 7.521 20.001 10.8 30.157 4.2 13.719 12.638 29.198 11.078 43.28-5.918 55.438-37.040 90.596-77.478 116.073-2.52 1.565-9.998 12.201-12.959 11.399-2.361-0.908-14.879 4.84-16.439 2.848-17.961-27.038 18.158-67.835-1.56-93.275-5.76-7.833-15.278-11.879-24.518-14.078-96.394-22.957-116.073 14.078-149.513 29.077-15.321 6.837-38.917 72.318-28.76 57.156 2.962-4.195 35.48-37.798 53.119-51.396 41.398-31.717 59.517-34.679 104.995-23.917 11.078 2.517 22.358 7.518 28.117 17.361 3.279 5.804 4.079 12.637 4.239 19.357 0.601 31.117-13.761 61.879-37.52 81.558 18.599 11.72 44.077 27.359 64.077 18.599 20.159-8.72 35.917-40.918 52.039-55.317 12.321-11.076 24.518-22.16 32.159-36.397 7.2-13.44 1.402-33.119 12.359-43.597 17.318-16.401 33.757-51.079 20.159-87.956-3.921-10.6-26.12-28.597-27.839-39.516-1.839-11.722-0.758-23.438-0.758-35.158 0.157-36.56 5.001-86.877-6.081-121.877-6.72-20.6-29.557-26.719-42.037-44.359-7.838-10.963-17.678-20.639-23.279-32.96-6.12-13.919-5.961-29.998-11.879-44.077-5.798-14.078-16.881-24.997-24.359-38.12-7.358-13.28-10.32-31.237-0.157-42.358 17.798 18.759 35.917 37.52 53.719 56.278 11.558 11.999 23.918 26.24 22.679 42.958-0.964 10.16-6.72 19.838-4.839 29.841 2.639 12.637 15.921 19.040 26.72 26.24 27.959 18.119 45.157 51.559 43.879 84.836-1.077 27.838-13.881 54.996-9.681 82.355 4.239 27.479 24.998 49.519 35.317 75.318z"></path>
    <path fill="#000000" d="M378.274 365.409c5.318 4.207 33.757 33.758 37.357 33.92-16.718-0.908-36.877 15.92-47.638 28.28-18.278 20.6-66.438 36.877-64.998 64.518 32.96 24.2 126.076-14.36 166.231 28.118 16.718 17.518 49.198 55.638 49.198 81.557 0 25.478-1.077 29.519 1.881 53.757 2.361 17.481-4.358 42.037 6.239 55.918 15.638 20.48 46.279 37.836 50.479 64.715 3.441 21.398 4.839 64.999 1.881 85.917-1.881 12.201-13.761 24.2-25.64 31.237-26.077 15.637-80.756-17.159-56.997-50.159 8.28-3.876 18.278-3.876 23.438 4.082-14.999 2.961-1.719 29.36 10.92 25.598 35.48-10.761 26.558-87.635-11.241-125.274-8.76-8.765-25.64-33.599-30.157-44.557-5.798-14.361-3.758-29.36-5.64-45.157-3.441-27.959-13.281-56.675-28.76-77.314-19.838-26.879-47.316-41.72-80.118-43.28-29.557-1.234-49.558 14.999-75.477 22.799-48.277 14.399-64.077-57.477-44.239-95.156 7.838-15.158 23.438-28.717 32.197-43.716 7.958-14.078 14.841-29.557 28.117-40.477 18.599-14.841 59.839-17.841 62.959-15.321z"></path>
    <path fill="#000000" d="M837.976 334.614c-5.318 4.558-14.078 17.839-17.999 18.277 16.718-1.133 30.157 25.8 41.119 38.759 18.278 21.878 47.158 48.756 45.919 77.837-33.119 25.598-130.756-11.124-159.991 29.039-14.678 20.159-49.039 58.917-49.039 86.396 0 26.719 1.239 30.959-2.040 56.719-2.198 18.44 4.521 44.676-6.119 59.397-15.599 21.24-46.237 39.68-50.436 68.118-3.441 22.8-4.839 68.718-1.881 90.918 1.719 12.801 13.761 25.64 25.598 33.119 26.279 16.559 80.636-18.278 57.036-53.119-8.439-4.037-18.278-4.037-23.438 4.239 14.999 3.436 1.719 31.079-10.92 27.158-35.638-11.399-26.558-92.637 11.241-132.633 8.76-9.083 25.64-35.48 30.157-47.038 5.798-14.999 3.758-31.079 5.64-47.638 3.279-29.557 13.281-59.997 28.597-81.716 20-28.598 47.479-44.24 80.118-45.799 29.879-1.396 49.716 15.8 75.477 24.080 48.277 15.158 64.236-60.957 44.398-100.954-8.002-15.759-23.438-30.158-32.197-46.078-7.958-14.999-88.115-61.558-91.235-59.076z"></path>
    <path fill="#000000" d="M479.231 119.781c45.598-3.876 91.877 11.72 137.475 9.717 44.557-2.198 83.598-2.517 127.353 3.562 18.92 2.835 38.758 4.84 57.799 4.082 23.279-1.133 46.558-12.037 69.078-11.558-10.161 30.638-44.998 49.999-66.237 71.556-27.517 27.2-29.999 59.838-50.959 89.194-9.201 12.999-19.521 20.798-24.2 37.199-4.56 15.8-3.279 32.038-9.839 47.358-8.918 20.6-22.358 37.16-30.32 58.438-7.838 21.398-13.118 31.079-31.717 40.28-31.717 16.118-26.24 38.917-38.12 69.875-5.64-13.76-11.438-24.397-18.599-32.677-12.839-14.039-14.519-24.359-23.12-41.076-18.758-37.039-51.396-60.477-69.717-98.116-13.118-27.038-33.877-55.64-39.838-85.158-5.001-24.68 1.719-33.44-22.319-45.156-19.238-9.398-24.998-7.676-34.679-25.478-8.439-15.6-13.439-32.48-18.92-49.040-5.318-15.32-14.519-28.28-20.639-41.119 34.4 4.4 72.198 1.133 107.515-1.884zM272.678 94.78c6.081 10.636 13.118 6.566 22.040 14.841 8.28 7.833 5.76 17.361 13.559 25.161 6.119 5.965 17.36 29.84 22.679 37.198 4.839 6.236 10.478 70.316 13.598 77.358 13.718 31.881 40.597 27.8 59.997 57.477 20.438 31.881 25.597 25.958 49.039 56.239 22.838 29.398 21.719 50.48 44.677 79.716 9.56 11.841 25.319 25.438 32.039 38.556 7.041 14.399 12.681 23.917 16.238 38.278 3.159 12.518 12.518 24.398 16.559 36.44 2.361 6.837 1.719 14.52 5.798 21.398 6.081 9.999 16.238 11.558 22.199 21.878 4.358 8.277 20.918 58.557 20.159 66.717 24.038 2.642 24.68-58.759 29.519-76.716 4.839-17.677 4.679-29.72 16.401-45.637 13.598-18.757 48.118-35 64.677-51.717 19.238-19.079 23.918-27.479 25.957-51.559 1.402-16.401 2.318-35 8.601-50.637 5.12-13.719 15.278-26.721 24.038-38.878 14.241-20.001 13.919-26.4 19.238-48.44 14.039-59.238 75.117-90.797 101.237-142.832 8.28-16.238 11.879-32.96 25.319-47.157 9.039-8.922 18.441-15.321 26.84-24.561-3.72 0.452-10.118 0-14.678-1.396-15.758-5.001-22.799-2.799-39.037-2.323-21.119 0.569-42.037 0-63.756 1.722-15.638 1.234-31.559 5.917-46.717 6.724-3.6-18.92-49.999-3.118-65.316-6.724-7.958-1.884-13.118-7.833-21.398-9.842-16.559-3.925-36.080 0.452-53.599-3.275-24.68-5.316-49.999-10.16-75.755-8.434-29.72 1.997-57.996 11.879-88.757 13.28-68.598 2.961-143.432-6.566-214.512 5.159 1.077 3.436 1.239 8.559 3.12 11.999z"></path>
    </svg>