<svg xmlns="http://www.w3.org/2000/svg" viewBox="-36.443 -51.365 1017.583 1167.111">
    <path fill="#000000" d="M838.195 513.479c-1.448 38.767-6.282 86.378-21.614 122.707-18.433 44.387-46.495 95.098-82.204 126.59-27.442 24.178-45.048 59.059-72.945 81.336-25.541 20.334-52.654 43.603-82.988 55.381-36.989 14.052-71.541 21.782-111.713 17.772-36.493-3.714-78.319-8.094-113.324-18.267-15.043-4.51-32.154-6.607-46.207-13.722-17.11-8.715-28.889-23.723-42.776-37.114-15.663-14.837-32.609-29.22-49.388-43.436-13.887-11.943-31.328-19.549-43.932-31.947-26.45-25.997-26.285-72.822-41.619-105.927-13.431-28.062-16.159-48.439-16.159-79.435 0-15.498 0.163-30.998 0-46.496-0.833-39.055-8.223-73.937 8.887-109.771 16.946-34.882 37.776-67.49 52.158-103.158 14.175-35.047 33.725-63.605 55.67-92.991 7.108-7.768 14.878-13.060 20.995-18.558 39.387-35.047 97.041-61.209 154.159-63.605 34.716-1.617 69.764 0 103.985 1.617 55.546 2.73 109.771 25.5 156.1 56.166 67.325 44.553 145.809 96.546 167.259 178.708 11.323 43.769 7.604 79.104 5.663 124.155zM890.807 460.377c0-19.549 0.996-34.056-6.611-51.495-14.838-34.552-21.45-69.722-32.94-105.266-7.232-23.062-9.34-19.053-25.501-27.608-23.722-12.895-46.66-34.385-68.276-51.166-15.167-11.61-32.444-21.782-48.934-31.658-19.218-11.61-33.56-25.334-51.331-39.055-32.773-25.17-96.546-48.108-139.486-47.447-37.609 0.587-74.268 6.607-112.54 6.607-26.285 0-51.951-3.889-75.549 7.393-15.498 7.603-27.897 17.606-42.28 26.988-19.053 12.4-42.444 17.441-58.274 34.717-2.439 2.73-4.38 7.064 0.95 7.064-32.444 7.111-72.325 72.492-89.602 94.314-13.555 16.946-16.283 28.558-23.393 47.611-8.556 22.606-21.49 46.33-31.824 68.606-9.507 20.334-25.169 39.388-33.56 59.598-5.332 12.563-5.167 32.444-5.827 45.835-2.272 54.718 18.102 106.381 31.989 159.2 12.234 46.619 20.789 91.338 49.719 131.221 12.275 16.655 35.997 37.94 54.39 49.099 19.383 11.779 32.609 24.55 49.719 41.328 17.275 17.276 35.212 32.444 57.819 42.445 19.342 8.881 40.668 10.661 60.671 16.325 10.331 3.058 19.218 5.951 30.212 6.784 38.271 3.222 88.775 25.334 125.766 16.118 27.609-6.772 54.719-20.002 82.659-27.772 18.722-5.167 39.552-7.064 56.331-15.499 6.944-3.514 13.391-8.552 20.83-12.234 12.275-6.326 26.657-8.552 37.609-17.441 6.944-5.822 12.275-14.878 19.879-20.994 16.45-14.052 32.609-26.946 44.223-46.496 9.382-15.334 13.059-32.277 24.55-45.71 15.334-17.895 35.997-31.121 47.447-52.282 25.334-47.322 56.331-103.158 59.431-158.54 2.067-38.436-8.266-72.656-8.266-110.596z"></path>
    <path fill="#000000" d="M501.734 765.505c-4.008 15.334-1.901 34.056-5.62 49.719-2.769 10.99-6.611 27.277-16.655 30.832-5.456 1.945-32.444-6.115-36.164-10.498-15.334-17.11-11.448-139.486 1.777-161.103 5.992-14.878 23.434-24.054 39.387-24.054 31.824-0.117 25.541 52.943 26.326 72.656 0.655 21.782-4.175 24.054-9.051 42.445zM536.946 697.064c-4.67-41.164-6.447-51.495-42.776-59.431-13.555-2.893-76.996-26.946-74.929 21.822-5.332 64.226-20.169 124.607-6.944 188.708 23.102 6.443 63.317 45.379 91.544 28.269 16.49-9.877 18.391-56.827 23.722-78.814 7.604-31.453 13.102-67.781 9.382-100.554z"></path>
    <path fill="#000000" d="M501.443 594.030c-1.323 13.432 5.001 28.434 4.008 42.157-0.784 9.502-1.777 23.888-12.439 29.22-6.116 2.893-38.891 2.437-44.223-0.117-21.285-10.661-42.776-112.208-31.948-133.038 5.167-19.053 14.175-15.787 22.277-20.499 5.001-2.73 3.884-11.61 10.786-12.398 8.72-1.171 31.328 9.84 36.328 14.67 10.042 10.169 12.275 29.053 16.655 43.107 5.496 17.606 0.458 20.83-1.448 36.948zM527.728 529.687c-14.175-32.773-18.391-40.832-62.158-38.931-16.283 0.704-94.602-4.51-81.667 35.212 7.439 54.1 2.892 107.043 31.948 156.928 28.104-0.351 82.659 22.442 111.713 2.109 16.655-12.11 9.051-51.207 10.663-70.549 1.943-27.608 0.833-58.606-10.499-84.767z"></path>
    <path fill="#000000" d="M485.945 134.902c-1.159 13.556 5.456 28.601 4.835 41.992-0.492 9.677-1.159 23.888-11.614 29.384-6.158 2.893-38.932 2.73-44.428 0.117-21.45-10.498-45.339-111.424-35.005-132.419 4.835-18.887 13.722-15.622 21.946-20.499 4.836-2.893 3.389-11.61 10.499-12.398 8.72-1.325 31.493 9.502 36.493 14.343 10.331 10.006 13.226 28.889 17.73 42.775 5.992 17.441 0.833 20.665-0.458 36.659zM510.616 70.589c-15.167-32.444-19.383-40.503-62.945-38.228-16.326 0.821-94.767-3.726-81.212 35.667 8.887 53.935 5.663 106.712 35.668 156.1 28.269-0.468 83.484 21.822 111.879 1.171 16.49-11.943 7.935-50.876 8.887-70.26 1.612-27.609-0.329-58.606-12.275-84.436z"></path>
    <path fill="#000000" d="M485.449 297.824c-4.546 12.731-2.892 28.558-6.944 41.619-2.892 9.056-7.439 22.773-17.275 25.542-5.663 1.617-32.444-6.49-36.164-10.203-14.714-15.167-7.77-117.995 6.116-135.932 17.275-22.277 46.66-31.948 60.878-2.062 5.827 12.11 3.060 31.121 3.389 45.504 0.163 18.266-4.835 20.333-10.002 35.543zM522.233 241.293c-3.513-34.84-4.835-43.726-41.164-51.662-13.555-2.893-76.169-25.5-75.384 15.83-6.944 53.934-23.393 104.149-11.943 158.87 23.269 6.28 62.325 40.669 90.718 27.278 16.822-7.732 20.045-47.447 25.83-65.714 8.432-26.45 15.043-56.662 11.943-84.601z"></path>
    <path fill="#000000" d="M497.228 445.989c-4.504 12.935-1.943 28.93-6.116 41.824-2.935 9.219-7.439 22.773-18.887 25.501-6.655 1.325-38.436-6.784-43.107-10.79-18.102-15.334-15.043-118.655 0.621-136.429 9.382-17.11 17.442-11.779 26.326-14.546 5.496-1.441 6.447-10.332 13.555-9.336 8.72 0.937 28.104 16.779 31.657 22.606 7.232 12.234 5.167 31.285 6.116 45.835 0.996 18.226-4.504 20.169-10.167 35.336zM537.897 389.825c-6.116-35.048-8.059-43.767-51.166-52.323-15.994-3.222-90.883-26.617-87.824 14.878-5.496 54.058-22.11 104.274-5.951 159.491 27.442 6.326 75.22 41.329 107.993 28.269 19.383-7.603 20.995-47.156 27.113-65.714 8.556-26.326 14.714-56.661 9.836-84.599z"></path>
    <path fill="#000000" d="M515.165 925.491c-2.769 13.391 2.067 28.724-0.329 42.28-1.777 9.548-4.215 23.599-15.167 27.774-6.323 2.437-39.097-1.441-44.099-4.675-20.169-12.605-31.328-115.267-18.391-135.106 16.946-25.996 48.272-38.767 70.714-11.165 9.051 10.99 9.34 30.17 12.439 44.553 3.555 17.937-1.943 20.665-5.167 36.328zM547.445 864.315c-10.828-33.932-14.051-42.321-57.654-44.719-16.283-0.937-93.775-13.886-85.22 26.781 2.272 54.224-7.439 106.381 16.283 158.704 28.104 2.73 80.26 30.665 111.093 13.226 17.895-10.169 14.218-49.719 17.606-68.772 4.835-27.443 6.779-58.11-2.108-85.22z"></path>
    </svg>