<svg xmlns="http://www.w3.org/2000/svg" viewBox="-24.050 -16.722 895.682 1120.722">
    <path fill="#000000" d="M789.96 246.965c-1.479-6.166-7.090-12.006-11.165-17.336-5.978-7.83-13.584-14.78-18.908-23.031-4.451-6.86-3.99-15.152-4.499-22.754-19.23-4.123-23.31-10.471-30.63-11.678-8.851-1.438-18.077 2.646-24.050 7.325-5.052 3.935-9.69 8.249-14.603 12.325-1.2 1.023-2.547 2.321-4.033 2.921-0.83 0.386-1.479 0.481-2.079 0.481-3.804-6.625-8.067-13.067-12.697-19.321-1.208-2.227-2.412-4.451-3.521-6.724-2.132-4.536-5.24-8.386-7.508-12.879-2.732-5.372-7.696-8.945-12.33-12.607-3.476-2.777-7.648-4.075-11.072-6.719-5.24-3.986-8.667-8.249-14.739-10.89-5.883-2.498-10.794-6.672-16.312-9.869-9.175-5.795-18.861-11.030-28.961-15.852-2.313-1.713-4.634-3.43-7.23-4.822-7.461-4.123-15.153-5.235-22.989-8.249-3.566-1.347-7.23-2.407-10.935-3.336-0.435-0.152-0.789-0.152-1.249-0.23-28.178-8.616-58.716-13.579-90.555-14.41-2.732-0.928-5.423-1.808-8.249-2.457-6.996-1.578-13.584-1.113-20.622-1.808-7.415-0.694-14.833-1.767-22.242-0.386-6.118 1.158-12.514 1.619-18.214 4.263-10.89 5.142-22.801 7.597-33.924 12.232-1.158 0.509-2.268 1.064-3.332 1.668-5.978 1.808-11.819 3.751-17.61 5.795-1.853 0.481-3.665 1.019-5.33 1.668-0.649 0.308-1.294 0.649-1.947 1.019-1.898 0.739-3.796 1.578-5.7 2.366-2.547 0.649-5.094 1.158-7.597 2.13-2.502 0.978-4.959 2.177-7.508 2.966-1.713 0.559-3.893 0.694-5.377 1.808-1.29 1.019-1.849 2.366-2.547 3.71-15.664 8.108-30.21 17.424-43.418 27.805-0.928 0.69-1.812 1.343-2.785 1.988-3.706 2.502-7.738 4.404-11.63 6.63-5.978 3.291-11.63 7.696-17.288 11.49-6.21 4.221-11.072 10.058-15.804 15.804-6.301 7.602-12.93 15.063-18.81 22.989-5.423 7.367-7.649 16.452-12.096 24.28-5.747 10.104-10.287 18.725-10.752 30.679-0.078 2.921-0.23 5.936-0.481 8.945-9.64-1.947-13.303-3.986-18.815-4.446-8.851-0.789-18.072 1.389-24.050 3.893-4.771 1.992-9.315 4.169-13.767 6.254-4.31 1.997-5.282 4.17-6.442 6.766-0.928 1.997-0.978 4.123-2.457 6.029-1.578 1.988-4.499 3.751-6.996 5.512-3.196 2.313-3.196 4.634-5.19 7.137-1.347 1.619-3.521 2.966-5.423 4.451-4.822 3.887-6.071 9.127-6.766 13.438-0.739 4.305 1.389 7.738 5.978 11.49 2.687 2.227 5.052 4.451 6.81 6.86-0.23 2.132-0.037 4.353 0.386 6.536 1.158 6.16 1.397 11.91 0.694 17.884-1.064 9.41-5.7 18.214-6.536 27.623-0.481 4.771-1.158 9.503-1.668 14.274-0.193 0.345-0.386 0.649-0.6 0.974-2.457 3.43-5.19 6.395-5.24 10.058-0.152 6.761-0.6 13.809 3.102 20.387 3.85 6.907 5.428 13.856 8.344 20.805 4.123 9.87 9.175 19.651 11.17 29.66 2.638 13.349 4.216 26.693 7.179 39.996 3.34 15.288 2.966 30.581 5.559 45.874 1.158 6.766 3.751 13.485 4.681 20.298 0.748 5.7 2.038 11.4 2.502 17.101 1.064 12.748 0.037 25.534-1.294 38.282-0.386 3.751-0.037 7.461-0.152 11.26-0.078 3.845 1.578 7.23 3.106 11.030 1.713 4.263 2.132 8.527 3.291 12.832 1.479 5.287 3.426 10.569 5.052 15.852 2.362 7.878 5.93 15.664 8.386 23.59-0.879-5.142-0.649-10.753 0.69-15.852 1.812-6.761 0.748-13.668 1.853-20.486 2.826-17.143 2.502-34.384 4.634-51.532 1.853-15.429 3.804-30.862 6.071-46.292 1.253-8.574 1.902-17.19 2.785-25.768 2.872 8.109 6.21 16.265 8.574 24.33 1.898 6.489 0.928 13.025 1.578 19.467 0.649 6.024 1.294 12.049 2.687 18.162 2.826 12.33 5.005 24.749 8.944 37.168 5.93 18.585 3.751 36.845 5.19 55.105 0.649 8.015 0 16.082 3.476 24.28 0.739 1.853 2.366 3.751 2.732 5.559 1.849-15.288 3.385-30.581 5.052-45.832 0.879-7.968 1.71-15.936 2.596-23.91 1.2-10.612-1.347-21.505-0.037-32.023 1.528-12.142 2.785-24.28 4.17-36.422 0.789-7.137 0.789-14.367 3.015-21.364 0.69 2.596 1.434 5.142 2.038 7.648 1.438 5.883 1.988 11.813 3.102 17.702 1.208 6.301 3.751 12.372 5.142 18.63 2.272 10.151 1.578 20.345 1.578 30.586 0.037 4.216-0.23 8.433-0.078 12.649 0.152 4.31 2.038 8.067 2.917 12.278 1.158 5.93-1.019 11.91 1.623 17.707 2.362 5.188 8.156 8.804 11.26 13.762 4.353 6.954 8.668 14.833 10.147 22.43 1.902 9.64 5.146 19.326 8.714 28.778 1.438 3.796 3.986 7.043 5.33 10.89 1.298 3.845 3.665 8.015 4.263 11.954 0.481 3.34-0.834 5.747-1.713 8.804-0.509 1.808 0.193 3.99-0.23 5.888-0.431 1.808-1.113 3.332-1.208 5.19-0.27 4.771 2.177 7.83 3.521 12.372 1.294 4.264 1.668 8.621 3.057 12.837 1.438 4.31 2.921 8.484 3.57 12.93 0.83 5.61 0.037 10.752-1.853 16.129-5.005 14.41-2.13 29.243-2.177 44.070 0 8.297-0.509 16.73 0.6 24.979 1.019 7.832 0.078 15.57 0.649 23.407 0.431 5.883 2.132 11.583 2.227 17.513 0.152 7.926 0.739 15.152 2.038 22.895 0.152 0.785 0.152 1.528 0.193 2.268 0.879-5.24 1.947-10.471 2.366-15.664 0.928-10.659 1.343-21.364 2.218-32.069 0.978-12.147 2.642-24.196 3.755-36.286 1.528-17.241 4.169-34.389 5.93-51.579 2.083-20.617 2.917-41.291 4.075-61.955 0.694-12.377 2.177-24.838 2.412-37.258 0.152-6.677-0.386-13.166 0.555-19.792 0.978-7.23 2.313-14.269 2.876-21.547 0.649-8.667 0.834-17.378 1.578-26.045 1.294-13.95 6.071-27.064 7.367-41.010 0.694-7.743 0.193-15.664 0.078-23.407-0.037-8.297 1.158-16.034 2.412-24.19 0.27-1.898 0.739-3.751 1.2-5.56 0.509 5.47 1.023 10.983 1.947 16.5 1.158 6.81 3.804 13.485 4.681 20.298 0.739 5.7 2.038 11.4 2.502 17.101 1.064 12.79 0.078 25.534-1.249 38.277-0.435 3.751-0.115 7.508-0.193 11.26-0.078 3.893 1.578 7.278 3.106 11.029 1.713 4.264 2.132 8.574 3.291 12.837 1.479 5.282 3.426 10.564 5.052 15.852 2.362 7.921 5.973 15.706 8.43 23.584-0.924-5.094-0.69-10.752 0.649-15.846 1.808-6.719 0.789-13.674 1.902-20.434 2.777-17.195 2.498-34.389 4.587-51.579 1.902-15.434 3.804-30.867 6.071-46.292 2.227-15.293 2.502-30.68 5.747-45.973 2.177-10.429 2.966-20.852 5.56-31.234 1.249-5.010 3.57-10.053 6.165-15.063 1.479 6.118 0.69 12.278 1.343 18.307 0.649 6.024 1.294 12.049 2.687 18.119 2.831 12.372 5.010 24.791 8.945 37.21 5.93 18.585 3.751 36.845 5.19 55.105 0.649 8.015 0 16.082 3.43 24.28 0.789 1.902 2.407 3.751 2.777 5.559 1.853-15.246 3.385-30.581 5.052-45.832 0.879-7.968 1.713-15.941 2.596-23.91 1.208-10.612-1.343-21.505-0.037-32.023 1.479-12.142 2.777-24.28 4.123-36.422 1.019-9.175 0.739-18.448 5.512-27.158 1.808-3.287 3.291-6.719 4.54-10.147 1.623 3.845 3.057 7.691 3.706 11.861 1.023 6.396-0.386 13.115-1.528 19.467-0.97 5.235-4.404 9.734-5.56 14.875-0.83 3.845-0.193 7.926-0.23 11.818-0.037 8.757 1.528 17.19 1.528 25.998 0 9.175 0 18.307 0 27.482 0 5.005-0.193 10.006-0.037 15.016 0.078 5.094 1.528 10.104 1.619 15.198 0.152 9.222-1.294 18.908 0.308 28.041 1.019 5.93 0.97 11.818 1.947 17.701 0.928 5.93 0.928 11.213 0 17.19-0.649 4.080-1.483 8.203-2.132 12.236-0.23 1.249-0.431 2.872-0.193 4.17 0.6 3.845 5.841 5.19 8.386 8.569 4.822 6.306 9.593 14.091 11.49 21.271 6.86 25.998 4.451 52.781 4.451 79.197 0 16.359 0.193 32.905 1.849 49.217 1.812 17.331 1.438 34.71 3.804 52.043 2.132 15.434 3.751 31.004 6.489 46.438 1.668 9.498 3.015 18.998 4.264 28.543 0.23 1.713 0 3.57 0.6 5.146 6.907-0.386 4.268-24.097 4.268-27.529 0-13.715 1.019-27.341 1.434-41.061 0.23-7.597 1.713-14.968 1.623-22.566-0.037-6.536 0.27-12.33 1.389-18.678 1.158-7.048 0.193-14.875-1.064-21.871-1.71-9.452-0.97-20.904 0.834-30.309 1.713-8.762-0.6-17.289 2.646-25.952 1.479-4.123 1.2-9.085 3.706-12.879 1.389-2.177 4.216-5.33 6.21-7.137 3.015-2.826 6.949-0.739 10.334 1.389 1.064-2.966 0.23-7.23 0.23-10.334 0-1.438-0.193-3.015 0.152-4.451 0.27-1.343 1.253-1.578 1.393-3.385 0.879-10.053 0-20.387 0-30.444v-47.55c0-13.856-0.789-27.806-0.078-41.662 0.23-4.268 2.177-8.344 2.785-12.607 0.481-3.291 0.739-5.747 1.808-8.992 1.294-3.706 2.407-7.597 3.385-11.443 0.386 1.53 0.649 3.011 0.879 4.541 0.739 5.742 2.038 11.442 2.502 17.143 1.060 12.748 0.037 25.534-1.294 38.282-0.386 3.706-0.037 7.461-0.152 11.212-0.078 3.893 1.573 7.278 3.102 11.072 1.71 4.268 2.13 8.532 3.287 12.795 1.483 5.33 3.43 10.612 5.010 15.894 2.407 7.878 5.973 15.664 8.43 23.59-0.879-5.147-0.649-10.753 0.694-15.852 1.808-6.766 0.739-13.668 1.853-20.486 2.826-17.143 2.498-34.384 4.587-51.532 1.902-15.476 3.851-30.862 6.071-46.292 1.902-12.837 2.502-25.675 4.499-38.465 0.431 3.426 0.739 6.86 0.69 10.424-0.037 7.743-0.739 15.664 0.193 23.407 1.713 13.95 8.015 27.064 9.733 41.010 1.019 8.668 1.249 17.378 2.13 26.045 0.748 7.278 2.457 14.316 3.804 21.547 1.208 6.63 0.509 13.115 0.694 19.792 0.27 12.419 2.268 24.881 3.196 37.258 1.578 20.669 2.642 41.338 5.423 61.956 2.313 17.19 5.841 34.342 7.879 51.579 1.438 12.091 3.66 24.143 4.959 36.286 1.158 10.705 1.713 21.406 2.917 32.069 0.559 5.142 1.997 10.334 3.151 15.57 0.078-0.748 0.078-1.438 0.23-2.177 1.713-7.743 2.502-14.97 2.687-22.895 0.152-5.93 2.416-11.63 2.97-17.513 0.69-7.832-0.481-15.57 0.879-23.407 1.438-8.249 0.789-16.683 0.739-24.979 0-10.982 0.559-21.505 1.947-32.394 2.132-16.772-0.037-33.548 3.751-50.236 0.6-2.638 1.483-5.235 1.808-7.921 0.193-1.767-0.435-3.751 0.037-5.47 0.481-2.038 1.389-3.246 3.8-3.615 7.414-1.208 10.569 10.471 11.678 14.55 1.668 6.165 6.996 11.31 8.574 17.566 1.713 6.81 4.033 13.161 7.048 19.697 2.966 6.579 5.142 13.391 7.32 20.157 2.038-0.345 1.019-2.732 1.11-4.17 0.078-1.898 0.748-2.596 1.347-4.31 3.43-10.147 1.347-21.453 1.623-31.835 0.152-5.743 2.687-11.165 3.15-16.866 0.559-6.584 1.578-13.025 1.528-19.651-0.078-12.602-0.037-25.209-0.037-37.769 0-5.883 0.23-11.771 0.078-17.659-0.152-4.404-1.249-8.709-1.578-13.161-0.345-4.634-1.853-8.757-2.826-13.298-0.789-3.893-0.23-8.114-0.23-12.048 0-8.114 0-16.27 0-24.426 0-3.15-0.345-6.349-0.078-9.498 0.27-3.385 1.573-6.536 1.668-9.921 0.152-6.349 0.481-12.279 1.573-18.58 1.294-7.137 4.59-14.598 6.536-21.69 4.451-15.894 6.907-32.205 13.809-47.592 1.158-2.596 2.457-5.099 3.615-7.597 1.532 6.902 3.2 13.809 5.377 20.758 5.93 18.585 3.751 36.845 5.19 55.105 0.649 8.015 0 16.034 3.476 24.28 0.789 1.853 2.366 3.751 2.732 5.559 1.853-15.293 3.385-30.581 5.052-45.874 0.879-7.973 1.713-15.941 2.638-23.867 1.163-10.612-1.389-21.505-0.078-32.023 1.208-9.733 2.272-19.462 3.332-29.191 3.893 16.96 8.344 33.873 10.199 51.114 2.638 24.886 4.216 49.772 7.179 74.656 3.332 28.459 2.966 57.002 5.559 85.456 1.158 12.697 3.751 25.167 4.681 37.864 0.739 10.659 1.997 21.271 2.502 31.929 1.064 23.777 0.078 47.644-1.294 71.369-0.386 6.996-0.037 13.997-0.152 20.993-0.078 7.23 1.578 13.533 3.106 20.623 1.713 7.926 2.13 15.894 3.287 23.867 1.483 9.916 3.43 19.739 5.052 29.61 2.366 14.734 5.935 29.243 8.391 43.935-0.883-9.551-0.649-20.022 0.69-29.52 1.808-12.607 0.748-25.492 1.853-38.141 2.826-32.023 2.502-64.139 4.634-96.157 1.853-28.778 3.804-57.561 6.071-86.334 2.227-28.596 2.502-57.279 5.7-85.78 2.227-19.416 3.015-38.883 5.61-58.251 2.366-17.659 8.433-35.45 13.348-52.739 7.415-25.998 13.668-52.321 13.668-79.014 0-7.83 0.386-15.335-1.479-23.031-2.785-11.306-3.434-22.941-7.602-34.107-2.079-5.47-3.102-8.992-3.057-14.645 0-3.476-0.345-7.048-0.078-10.471 0.27-3.94 1.578-7.648 1.619-11.588 0.115-4.864 0-9.734 0-14.645v-39.155c0-12.189-1.11-23.914 4.541-35.408 2.551-5.19 4.959-10.382 7.602-15.616 2.079-4.17 5.695-7.466 8.527-11.358 4.587-6.254 8.249-12.142 10.842-19.091 2.366-6.489 4.681-14.044 3.057-20.805z"></path>
    </svg>