<svg xmlns="http://www.w3.org/2000/svg" viewBox="-47.927 -80.655 923.183 1184.655">
    <path fill="#000000" d="M435.744 355.154c-1.149 2.516-2.176 10.667-4.48 12.842-6.87 7.172-20.693 14.507-31.702 11.006-0.641-0.121-1.494-0.847-2.133-0.847-1.028 0-1.664 0.726-2.346 0.847-1.323 0.121-2.346-0.968-3.328-2.177-5.675-8.321 1.149-19.158 6.485-28.502 6.529-11.816 7.168-12.501 18.987-15.318 4.523-1.209 0.508 0.847 4.694 2.479 3.84 1.5 7.808 3.326 10.838 6.192 4.48 4.136 4.65 8.998 2.816 13.483zM415.264 321.154c-17.536 1.318-28.843 15.019-34.347 29.653-5.163 5.201-8.149 14.209-6.485 20.353 2.133 8.829 15.318 17.322 25.472 19.328 32 6.362 48.171-12.673 57.686-42.326-3.030-15.019-27.691-27.989-42.326-27.008z"></path>
    <path fill="#000000" d="M373.749 313.468c-7.168-5.975-16.512-18.986-23.851-25.302-17.493-13.995-33.835-27.349-49.664-43.861-19.968-20.48-40.15-41.003-59.819-61.483-22.485-24.022-35.158-50.518-62.848-73.516-11.478-9.639-89.003-105.644-80.342-42.667 47.19 13.696 82.859 82.689 114.177 114.519 12.501 12.842 28.843 19.669 41.003 34.517 11.989 14.636 19.499 29.655 33.323 43.82 21.504 22.144 61.184 51.499 80.342 69.973 1.494-4.826 7.51-14.975 7.68-11.647h0.169c-0.508-1.318-0.508-2.818-0.169-4.354z"></path>
    <path fill="#000000" d="M41.416 104.998c-0.169 0-0.508-0.121-0.859-0.121-0.472 1.488-1.323 3.665 0.859 0.121z"></path>
    <path fill="#000000" d="M97.225 55.974c-6.656 5.334-11.137 26.496-16.299 25.685-2.176 3.665-24.021 12.501-24.662 13.824 18.133 4.995 22.827 23.339 35.627 38.657 11.008 13.183 24.704 24.192 36.181 36.864 12.16 13.654 20.822 29.824 32.342 43.648 20.992 25.003 49.152 30.678 69.504 57.685 13.013 17.152 63.659 66.006 80.342 80.983 10.155-8.49 34.475-29.825 44.502-37.505-18.347-19.157-57.856-62.507-75.35-80.811-31.147-32.511-62.678-59.349-92.843-93.354-25.984-29.483-51.84-68.993-89.345-85.675z"></path>
    <path fill="#000000" d="M729.932 55.162c-14.037 45.825-85.505 80.171-118.358 110.167-13.483 12.33-20.651 27.989-35.84 39.68-15.317 11.647-30.635 18.987-45.483 32.469-22.998 20.694-53.334 59.009-72.491 77.526 3.84 0.968 10.496 4.475 12.16 6.313 0.169 0 0.508-0.121 0.641-0.121 1.536 0 2.859 0.363 4.011 0.968 6.186-7.172 19.499-15.829 25.856-22.998 14.507-16.683 28.331-32.513 45.654-48 21.163-19.372 42.326-38.869 63.488-57.686 24.661-21.845 52.352-34.005 76.032-60.502 9.984-11.175 109.654-86.016 44.331-77.825z"></path>
    <path fill="#000000" d="M690.252 1.147c0-0.121 0.169-0.363 0.169-0.484-1.664-0.605-3.84-1.318-0.169 0.484z"></path>
    <path fill="#000000" d="M758.434 60.496c-5.504-6.192-27.179-10.667-26.368-15.829-3.798-1.838-13.142-22.998-14.464-23.68-5.205 17.494-24.022 22.186-40.192 34.688-13.312 10.498-24.832 23.467-37.974 34.645-14.208 11.816-30.848 20.182-45.184 31.318-25.856 20.353-31.488 47.532-59.691 67.201-17.792 12.33-68.651 61.142-83.968 77.312 8.833 9.857 30.976 33.323 38.827 43.179 20.011-17.664 64.811-56.022 83.841-72.832 33.664-30.165 61.483-60.502 96.47-89.515 30.677-25.344 71.68-50.175 88.704-86.486z"></path>
    <path fill="#000000" d="M726.903 653.822c-47.318-13.483-82.987-91.009-114.134-122.668-12.672-12.842-29.014-20.010-41.003-34.517-12.331-14.806-19.669-29.653-33.664-43.99-21.334-22.144-61.014-51.499-80.171-69.973-1.197 3.665-4.522 9.301-6.357 11.478 0.508 1.669 0.339 3.665-0.98 4.995 7.339 6.011 16.171 18.689 23.637 24.833 17.365 13.995 33.664 27.349 49.536 43.861 19.968 20.48 40.32 41.003 59.648 61.483 22.656 24.022 35.328 50.518 63.019 73.686 11.478 9.47 88.832 114.006 80.47 50.816z"></path>
    <path fill="#000000" d="M782.583 607.144c0.169 0 0.339 0.121 0.859 0.121 0.472-1.488 1.323-3.665-0.859-0.121z"></path>
    <path fill="#000000" d="M723.575 670.334c6.529-5.334 11.008-26.197 16.341-25.685 2.005-3.665 23.68-12.501 24.661-13.824-18.347-4.826-23.168-31.659-36.011-47.019-10.666-12.97-24.32-24.149-35.798-36.822-12.373-13.652-20.864-29.653-32.512-43.648-21.163-24.831-49.323-30.506-69.675-57.514-12.843-17.323-63.318-66.347-80.171-81.153-9.984 8.49-34.347 29.996-44.501 37.676 18.176 18.986 57.856 62.293 75.35 80.64 30.976 32.511 62.806 59.349 92.673 93.355 26.325 29.482 52.139 77.483 89.643 93.994z"></path>
    <path fill="#000000" d="M357.578 383.655l0.169-0.363c-0.508 0-0.859 0.363-1.149 0.363-1.197 0-2.005-0.484-2.689-0.968-5.675 7.172-20.309 16.64-27.008 24.32-14.635 16.683-28.331 32.342-45.483 47.829-21.163 19.158-42.496 38.657-63.659 57.516-24.832 21.803-52.352 34.304-76.16 60.672-10.026 11.139-109.526 85.974-44.203 77.825 14.165-45.825 85.505-80.001 118.358-110.337 13.312-11.986 20.651-27.861 35.84-39.509 15.317-11.647 30.635-18.987 45.654-32.342 22.656-20.65 53.163-59.008 72.32-77.653-5.163-1.5-15.488-7.172-11.989-7.341z"></path>
    <path fill="#000000" d="M137.076 704.638c0 0.121-0.339 0.363-0.339 0.484 1.835 0.726 3.84 1.669 0.339-0.484z"></path>
    <path fill="#000000" d="M85.235 653.822c5.675 6.313 27.179 10.667 26.667 15.829 3.84 1.838 12.843 22.998 14.336 23.68 5.163-17.664 24.192-22.186 40.022-34.518 13.653-10.498 25.003-23.509 38.144-34.645 13.995-11.865 30.848-20.353 45.184-31.36 25.984-20.481 31.659-47.488 59.648-67.157 18.005-12.502 68.523-61.484 84.011-77.484-8.661-9.857-31.019-33.365-38.827-43.179-19.84 17.664-64.683 56.022-83.67 72.832-33.664 30.166-61.526 60.502-96.854 89.515-30.336 25.302-71.339 50.304-88.662 86.486z"></path>
    <path fill="#000000" d="M371.744 998.826c-5.504-11.006 0.677-42.325 4.522-54.017 8.32-23.466 19.499-50.474 61.312-48.298 41.984 1.838 38.486 30.806 38.486 58.155 0 16.81 0.169 32.511 6.357 48.341-22.016-5.031-47.83 1.318-70.016 0.484-11.989-0.484-28.331-6.652-37.334-6.144 5.163 0 10.666 0-3.328 1.5z"></path>
    <path fill="#000000" d="M338.591 536.829c0.98 57.516 11.008 112.641-5.334 169.004-8.363 28.842-12.331 57.472-20.011 86.315-7.68 27.861-29.483 51.328-46.336 76.843-15.488 23.339-30.507 47.019-43.99 70.827-8.661 15.36-31.488 26.667-44.16 40.662-12.501 13.866-9.344 28.16-18.176 43.52 11.648-3.665 34.176-3.326 50.006-4.185 17.493-24.491 31.659-53.333 53.163-76.502 14.805-15.829 32.981-29.142 41.344-47.66 6.485-15.146 10.965-29.184 18.475-44.33 10.325-20.651 18.859-41.985 29.184-63.317 9.344-19.499 8.149-36.012 10.666-56.534 2.645-21.334 17.835-38.316 18.475-59.99 0.508-18.987 0.508-38.486-0.98-57.344-1.494-15.829-6.016-30.977-7.51-46.806-0.98-11.526 5.504-32-0.81-42.198 4.309-9.99-22.016 13.696-34.006 11.695z"></path>
    <path fill="#000000" d="M509.6 493.309c0.472 10.196-6.527 19.499-6.699 30.165-0.339 15.702 1.028 32.854 2.176 49.025 2.816 36.821-3.669 73.173-3.669 109.995 0 23.339 10.325 46.975 12.331 70.144 2.176 24.193 15.36 48.001 23.68 71.041 8.661 23.638 9.174 46.165 24.149 68.651 11.52 17.323 20.693 35.158 32.683 52.181 12.672 17.494 24.491 42.497 43.179 55.639 7.339-6.483 35.158-4.136 41.302 3.326 5.334-11.478-11.307-14.165-18.475-21.973-6.527-6.991-5.845-28.032-27.691-50.688-18.475-19.328-28.672-56.49-41.131-78.166-11.35-19.84-19.371-16-23.168-36.65-4.181-23.168-11.008-46.337-17.365-69.334-5.675-20.991-0.98-44.671-2.816-66.175-1.494-17.152-9.515-31.83-10.155-48.342-0.508-13.142 1.835-25.813 1.835-39.339 0-23.467 7.297-43.478-0.859-66.006-2.346-5.975-22.827-23.638-29.312-33.493z"></path>
    <path fill="#000000" d="M401.909 214.652c-41.515 53.333-99.84 112.683-130.475 178.689-16 34.646-46.208 55.808-67.542 83.67-7.297-0.726-14.805-1.838-22.485-2.008-2.346-14.848 18.859-31.36 26.667-43.521 14.165-22.016 35.499-45.824 47.019-69.504 6.656-14.506 7.339-29.994 16.341-44.843 11.307-18.645 27.478-26.794 42.326-41.813 22.656-21.845 30.976-64.683 57.984-83.5 15.019-10.498 32.683-45.184 49.152-48.342 19.669-3.846 47.36 49.152 61.184 60.844 20.011 16.81 45.355 36.010 62.336 55.808 13.312 15.36 24.491 38.187 38.315 54.869 20.011 23.808 36.694 51.499 54.528 76.502 9.814 13.654 41.173 31.147 44.16 45.312-20.651 26.497-36.352-0.968-58.838-20.48-20.992-18.347-36.182-36.182-51.84-58.838-16.64-23.509-10.496-33.664-32-52.352-27.989-24.32-59.008-50.177-83.328-77.825-10.666-12.501-54.016-34.346-53.505-12.671z"></path>
    </svg>