<svg xmlns="http://www.w3.org/2000/svg" viewBox="3.707 -15.989 788.289 1119.989">
    <path fill="#000000" d="M399.835 737.541c-0.981-61.936-1.867-123.874-2.451-185.815-0.083-10.189 1.418-20.383 2.303-32.632 62.48 37.973 116.429 82.908 167.193 131.814-1.766 2.891-2.202 4.309-3.136 4.95-42.781 30.283-85.556 60.665-128.581 90.553-4.803 3.332-11.127 4.95-17.006 6.029-15.58 2.987-18.083 0.981-18.328-14.897zM403.653 268.444c45.623 35.479 90.115 70.077 136.86 106.434-43.853 33.42-88.544 68.848-137.304 98.837-1.369-0.589-2.743-1.225-4.115-1.814 1.522-67.473 3.036-134.95 4.558-203.456zM187.804 652.524c24.547-15.875 46.007-29.745 67.473-43.564 3.28-2.102 7.546-3.28 9.945-6.074 20.877-24.796 50.426-37.633 76.195-55.618 6.912-4.853 14.753-8.379 24.797-14.015 1.57 74.63 3.136 146.177 4.708 221.345-61.647-34.353-120.689-67.283-183.117-102.074zM327.258 432.601c-19.306-14.653-39.005-28.861-57.284-44.686-13.281-11.516-12.69-29.5 1.622-39.15 29.739-20.044 60.615-38.466 91.047-57.528 0.584-0.366 1.662 0.039 3.72 0.205v169.647c-14.259-10.338-26.901-19.161-39.1-28.47zM652.143 899.256c-18.818-11.566-37.878-22.981-57.628-32.831-13.72-6.763-27.489-12.299-36.407-25.874-2.551-3.925-8.234-6.174-12.938-8.184-17.146-7.302-34.542-13.965-51.693-21.32-19.505-8.329-38.811-17.146-58.216-25.725-5.681-2.499-11.421-4.997-19.455-8.478 4.898-2.355 7.057-3.624 9.361-4.458 69.044-25.335 132.501-60.421 189.047-107.609 9.406-7.89 11.855-25.48 2.154-32.732-15.090-11.37-31.111-22.493-48.361-29.843-15.685-6.618-31.17-12.399-44.25-23.719-33.325-28.816-66.89-57.383-101.092-86.684 5.147-5.586 8.135-9.311 11.566-12.498 35.818-33.27 75.707-60.859 118.829-83.646 25.43-13.471 28.078-24.154 9.061-45.519-2.010-2.255-4.163-4.41-6.568-6.224-37.339-28.418-74.729-56.695-111.969-85.167-7.052-5.342-39.395-11.317-48.217-18.768l-11.415-175.966c9.067 5.541-17.595 184.149-26.070 189.93-20.433 13.87-41.065 27.54-60.81 42.338-27.096 20.288-53.408 41.603-80.849 63.063-0.284-0.51 1.025 2.207 3.040 4.264 37.484 38.716 77.078 74.974 121.619 105.695 30.388 21.026 29.256 26.852-1.91 47.628-49.438 32.982-98.299 66.89-146.466 101.681-16.902 12.203-31.015 28.228-49.539 45.424 34.158 19.356 65.909 37.878 98.15 55.418 32.536 17.69 65.563 34.402 100.598 52.776-5.341 2.939-8.084 4.848-11.072 6.074-21.121 8.823-42.338 17.446-63.453 26.313-29.599 12.349-61.054 21.61-81.587 49.244-2.992 4.070-8.873 6.079-11.76 10.144-5.052 7.252-8.823 15.336-13.137 23.082 1.225 0.93 2.455 1.91 3.724 2.843 38.466-21.559 77.617-41.993 115.206-64.974 27.096-16.613 56.645-25.141 86.539-35.036 4.898 79.138 9.65 156.61 14.453 234.082 3.777-6.713 6.175-13.376 6.618-20.19 3.088-47.090 5.785-94.18 8.623-141.324 1.278-20.726 2.355-41.454 4.264-62.132 0.205-2.599 6.029-7.296 7.496-6.713 25.285 10.049 52.725 17.201 74.874 32.148 42.192 28.418 83.846 56.595 133.384 71.148 16.807 4.95 32.536 13.575 48.756 20.532 0.93-1.077 1.858-2.202 2.79-3.28-5.047-5.097-9.356-11.316-15.286-14.947z"></path>
    <path fill="#000000" d="M277.279 663.839c-12.299 0-20.972-7.251-20.73-17.345 0.244-10.144 11.715-19.161 24.109-18.917 12.593 0.205 19.651 6.418 19.651 17.301-0.039 13.72-6.469 18.961-23.031 18.961z"></path>
    <path fill="#000000" d="M474.804 627.628c14.164 0 24.992 8.528 24.353 19.161-0.584 9.799-16.268 20.972-29.4 20.922-16.17 0-22.098-5.047-21.954-18.622 0.161-15.385 7.796-21.46 27.001-21.46z"></path>
    <path fill="#000000" d="M377.294 910.076c-0.51 4.753-0.933 9.456-1.178 14.209 0 0.93-0.93 1.91-2.843 2.599-4.021-3.772-6.618-6.862-7.84-8.966-5.88-5.246-11.127-9.75-15.875-13.53-2.111-1.662-3.036-3.33-2.599-5.192-2.111-1.662-3.088-3.088-3.088-4.259 0-3.825 7.591-5.686 12.099-5.442 9.017-0.733 15.39 1.618 19.405 6.862 1.422 2.111 2.159 6.618 1.915 13.72zM442.657 860.339c-3.576-1.418-6.618-1.173-9.261 0.51-8.728 5.925-16.074 8.772-21.755 8.523-3.332 0-6.418 0-9.51 0.244-4.264-0.244-6.618-1.91-7.106-5.246-1.173-7.596-1.858-11.127-1.858-10.632l-20.139 6.611c0 3.576-2.159 10.638-2.159 13.281-5.192-0.733-9.21-1.666-11.805-2.843-1.422 0.205-3.821 1.173-7.352 3.036-3.528 1.91-5.681 2.843-6.175 2.843-10.388-0.93-17.051-0.689-19.89 0.737-1.614 0.93-2.599 2.154-3.040 3.576l-1.225 9.895c-2.111 2.891-3.036 5.93-3.036 9.017 0 5.442 3.036 10.683 9.212 15.631 14.697 12.299 22.243 18.717 22.737 19.455l2.843 7.546c7.35 5.192 13.525 16.563 18.473 34.35 0.737 2.843 0.51 6.618-0.737 11.37-0.689 1.91-3.28 8.035-3.28 9.017 2.599 4.95 4.758 8.284 6.374 10.144 0.733 5.436 0 11.37 5.436 13.965 0.981 0.51 1.666 0.737 2.403 0.737 5.436 0 7.79-7.596 7.591-13.965-0.981-9.456-1.47-14.702-1.47-15.875 0-6.418 1.666-14.458 5.246-24.159 0.93-4.95 1.662-8.772 1.858-11.37 17.051-24.154 30.821-42.876 41.21-55.862-1.858-4.509-4.264-6.663-6.862-6.663s-6.368 2.843-11.81 8.528c-5.49 5.925-9.261 9.505-11.855 10.683-2.843 2.351-5.002 4.259-6.175 5.88-4.021-0.458-5.93-4.95-5.681-13.72 0 0-0.244-2.355-0.933-7.106-0.51-3.28-0.244-5.442 0.689-6.374 6.912-6.175 16.368-9.261 28.667-9.261 3.576 0 5.93 0.51 6.862 1.666 4.264-1.178 7.591-1.422 10.189-0.93 2.159-0.51 3.777-0.981 5.002-1.422 2.843-8.528 4.264-13.037 4.264-13.281 0-3.777-1.91-6.618-5.93-8.528z"></path>
    <path fill="#000000" d="M594.857 925.168c-3.432 1.025-6.663 1.269-9.995 2.102-1.71 0.458-4.012 2.111-4.163-0.406-0.083-1.173 0.877-2.643 1.522-3.576 0.877-1.418 1.566-1.91 2.251-3.624 0.881-2.355 2.202-4.070 3.036-6.469 1.666-4.803 3.036-9.945 5.436-14.503 1.178-2.303 2.111-4.264 5.097-4.115 2.303 0.039 3.925 1.91 5.88 2.843 1.178 0.536 2.111 0.93 3.28 1.714 2.403 1.666 4.898 3.232 7.401 4.848 2.058 1.369 4.214 3.628 6.469 4.654 0.781 0.406 1.666 0.122 2.399 0.458 2.011 0.833 1.326 3.969 0.536 5.391-0.781 1.47-1.858 1.369-3.179 2.154-1.522 0.93-3.236 1.71-4.853 2.255-6.907 2.447-14.114 4.164-21.121 6.27zM615.831 860.831c1.125-2.499 1.958-5.246 3.236-7.65 0.454-0.733 0.733-1.858 1.71-1.954 0.781 1.173 1.034 2.987 1.422 4.359 0.51 1.71 1.173 2.987 2.010 4.558 1.125 2.058 1.369 4.408 2.154 6.613 0.93 2.791 2.944 5.147 4.359 7.745 1.814 3.28 2.944 6.612 4.464 10.044 0.981 2.307 2.303 4.464 3.768 6.519 0.981 1.374 2.202 2.891 2.599 4.603 0.406 1.814-0.536 1.91-2.058 1.814-2.303-0.244-3.969-0.366-5.681-2.010-2.843-2.791-6.374-5.246-9.7-7.451-3.236-2.154-6.618-3.772-9.656-6.224-2.547-2.154-5.142-4.259-7.695-6.369 3.188-4.752 6.668-9.311 9.067-14.602zM710.060 957.364c0.51-0.51 1.321-1.225 1.57-1.91 0.205-0.737 0-1.622 0.161-2.355 0.205-1.618 0.161-3.236-0.039-4.853-0.039-0.93-0.689-1.71-0.737-2.599 0-0.589 0.406-1.125 0.284-1.858-1.614-0.51-3.232-1.034-4.753-1.666-1.614-0.633-3.188-1.278-4.803-1.867-0.737-0.244-2.058-0.406-2.743-0.785-0.93-0.589-1.958-1.369-2.791-2.058-1.077-0.93-1.954-2.207-2.987-3.188-2.399-2.303-5.142-4.259-7.74-6.369-4.41-3.576-8.917-7.695-11.272-13.036-0.781-1.814-1.47-3.188-2.791-4.703-1.522-1.666-3.136-2.992-4.259-4.95-1.718-2.848-2.7-5.785-4.758-8.43-0.93-1.225-1.954-2.599-2.79-4.012-0.161-0.244-0.327-0.541-0.406-0.833-0.205-0.51-0.406-1.034-0.584-1.522l-0.083 0.244c-1.225-3.088-1.71-6.324-3.33-9.361-2.499-4.654-5.731-9.162-9.162-13.177-2.599-3.090-4.609-5.442-6.27-9.212-1.666-3.724-3.236-7.546-5.002-11.221-1.025-2.154-2.599-4.065-3.432-6.324-0.733-2.058-1.173-4.214-1.814-6.324-0.284-1.077-0.536-3.232-1.225-4.214-0.785-1.077-0.406-0.781-1.81-0.689-1.622 0.161-3.384 1.422-4.609 2.207-4.752 2.939-8.817 7.157-12.448 11.317-2.058 2.447-3.724 5.192-5.246 7.99-1.225 2.207-2.743 4.359-3.768 6.618-1.422 3.088-4.458 4.553-7.74 5.092-2.307 0.366-3.825-0.536-5.686-1.766-6.079-4.164-12.837-7.252-18.866-11.561-4.898-3.533-10.239-5.88-15.58-8.727 0.977 2.499-0.039 6.029-1.326 7.99-1.173 1.814-2.207 3.576-3.33 5.436-0.789 1.326-2.499 2.891-2.499 4.464 6.124 2.743 11.516 7.401 17.101 10.977 3.921 2.547 8.135 4.359 12.054 6.957 1.025 0.689 2.355 1.418 3.188 2.355 0.584 0.689 0.689 2.058 0.981 2.891 0.584 1.954 1.121 3.969 0.633 6.024-0.083 0.637-0.406 1.125-0.737 1.666-2.355 3.969-4.898 7.695-6.713 12.009-0.93 2.202-1.71 3.969-2.355 6.27-0.51 1.963-1.566 3.33-2.447 5.142-0.833 1.814-0.833 3.628-1.522 5.442-0.366 0.877-0.93 1.618-1.121 2.599-0.51 2.102 0.93 2.102 1.269 3.969 0.161 0.829-0.083 1.662 0.083 2.643 0.406 1.766 0.584 3.384 0.877 5.246 0.454 2.447 1.326 7.157 2.791 9.361 4.309-0.536 8.428-2.7 12.887-3.236 7.645-0.981 14.947-3.232 22.537-4.458 6.27-1.034 12.498-2.551 18.717-3.724 5.93-1.125 11.516-3.576 17.446-4.654 1.321 0.205 2.647 0.51 3.969 0.689 2.935 0.51 5.93 0.51 8.868 1.025 7.596 1.374 15.535 4.464 22.050 8.578 5.392 3.432 10.344 7.296 15.486 11.072 2.111 1.566 4.508 2.743 6.618 4.309 1.47 1.082 2.691 2.355 4.065 3.48 1.278 1.029 3.524 3.332 5.246 3.232 1.121-0.122 1.954-0.93 2.695-1.662z"></path>
    <path fill="#000000" d="M202.747 889.104c1.47 1.077 5.147 4.603 2.944 6.568-0.366 0.327-4.314 0.406-4.898 0.51-1.963 0.284-3.925-0.327-5.88-0.161-1.422 0.122-1.958 0.584-3.236 1.029-1.418 0.51-2.843 0.327-4.264 0.589-6.219 1.374-12.593 2.939-18.866 4.458-4.264 1.077-8.035 2.255-12.448 2.599-0.536 0.039-1.025 0.083-1.618 0.205 0.877-0.536 1.666-1.321 2.207-2.058 0.51-0.633 0.536-1.278 0.781-1.963 0.161-0.536 0.039-0.733 0.366-1.173 0.205-0.327 1.321-0.93 1.566-1.13 2.111-1.858 4.214-3.724 6.374-5.541 1.91-1.662 3.969-3.136 6.074-4.508 3.628-2.399 6.862-6.124 9.805-9.406 0.584-0.633 1.121-1.418 1.81-1.91 2.743-1.858 8.97-1.225 10.29 2.010 0.881 2.058 1.422 3.432 3.090 5.052 1.858 1.766 3.868 3.38 5.925 4.848zM232.365 821.582c-3.624 1.766-7.052 3.821-10.438 5.98-9.261 5.78-18.328 12.837-25.77 20.777-3.533 3.772-11.221 3.921-15.146 0.877-0.877-0.689-1.766-1.418-2.743-1.954-1.321-0.737-2.935-0.93-4.163-1.766-2.499-1.666-2.55-4.359-5.981-4.609-2.743-0.205-3.088 0.789-5.047 2.447-1.566 1.326-1.225 2.891-1.269 4.903-0.122 1.077 0 2.303-0.161 3.33-0.205 1.034-0.737 1.867-0.881 2.944-0.161 1.666-0.737 4.95 0.161 6.27 0.51 0.881 1.47 0.981 2.255 1.278 1.71 0.689 3.179 1.766 4.848 2.447 2.303 1.029 4.898 2.058 7.496 2.499-2.102 2.495-4.214 4.947-6.568 7.151-2.935 2.743-6.324 3.925-9.85 5.686-2.251 1.173-4.603 2.355-6.758 3.676-0.737 0.406-1.178 0.633-1.522 1.422-0.454 0.877 0 1.077-0.881 1.374-1.566 0.51-6.758-0.589-7.202-2.499-0.244-0.981 0.93-2.011 1.418-2.7 2.848-4.163 3.777-10.044 4.803-14.896 0.327-1.566 1.034-2.987 2.159-4.065 0-0.244-0.039-0.51 0-0.689 0.327-1.91 0.93-3.576 0.977-5.541 0.039-1.81 0-3.676 0.161-5.485 0.205-1.718 1.034-3.236 1.666-4.853 0.981-2.499 2.743-4.708 3.87-7.252 1.47-3.28 0.877-6.912-1.766-9.361-1.369-1.225-2.987-2.058-4.359-3.33-1.326-1.225-2.599-1.422-4.314-0.881-2.251 0.689-4.264 2.058-5.097 4.315-0.93 2.447-1.225 5.092-2.058 7.591-1.369 4.115-2.643 8.284-3.969 12.448-2.202 6.81-4.997 13.771-6.368 20.777-0.458 2.403-0.833 4.95-1.814 7.207-1.125 2.547-2.599 4.753-3.38 7.496-0.541 1.814-0.93 3.724-1.278 5.585-0.284 1.57-0.039 4.264-0.689 5.636-0.51 0.93-0.205 0.589-1.125 1.225-1.225 0.781-2.399 1.522-3.38 2.647-1.125 1.321-2.202 2.939-3.088 4.508-0.981 1.666-1.374 3.576-2.355 5.291-1.47 2.647-3.036 5.541-4.853 7.939-1.269 1.666-2.399 3.236-3.284 5.147-0.981 2.207-1.954 4.359-4.359 5.092-0.737 0.244-1.666 0.244-2.399 0.641-0.789 0.406-1.278 1.173-2.011 1.666-1.121 0.785-2.355 1.374-3.28 2.495-2.154 2.551-2.987 6.13-5.142 8.772-1.714 2.111-3.724 5.636-1.077 7.645 2.058 1.57 3.724 1.57 6.324 1.666 1.91 0.039 4.012-0.406 5.142-2.102 0.366-0.589 0.458-1.278 0.833-1.814 1.522-1.766 4.558-1.57 6.469-2.987 1.81-1.374 4.065-2.011 5.731-3.528 1.225-1.125 2.303-2.55 3.33-3.87 0.833-1.178 1.278-2.743 2.255-3.777 1.077-1.225 2.891-2.351 4.214-3.284 1.766-1.321 3.676-2.399 5.49-3.624 1.077-0.083 2.202-0.284 3.332-0.641 1.666-0.51 8.035-1.513 4.654-1.173 3.524-0.589 7.008-1.858 10.582-2.499 8.728-1.566 17.645-2.547 26.368-4.163 3.724-0.689 7.252-1.91 11.072-2.403 5.341-0.785 10.483-1.522 15.825-2.495 5.785-1.034 12.155-1.374 17.74-3.28 1.077-0.406 2.058-1.034 3.188-1.326 1.522-0.406 2.987 0.039 4.508-0.161 1.566-0.161 2.447-1.269 3.868-1.81 1.034-0.366 2.058-0.737 3.036-1.178 2.011-1.225 2.255-4.753 1.178-6.713-1.178-2.154-3.63-3.188-5.148-5.047-1.954-2.355-4.012-4.603-6.029-6.957-2.447-2.843-4.553-5.88-6.713-8.97-1.766-2.495-3.38-5.681-6.463-6.713-2.255-0.733-4.903-1.077-5.392-3.921-0.284-1.522 1.025-2.399 1.91-3.48 0.981-1.173 1.71-2.547 2.843-3.572 0.781-0.689 1.714-1.23 2.55-1.77 3.284-2.102 6.169-4.752 9.799-6.27 2.010-0.833 4.115-1.47 6.124-2.251 2.599-1.034 4.609-1.963 5.246-4.853 0.161-0.633 0.083-1.47 0.454-2.058 0.981-1.618 3.476-1.029 5.047-0.981 2.154 0.083 4.848-0.161 6.907 0.454 0.51 0.205 1.766 1.278 2.202 1.225 1.125-0.122 0.284-2.355 0.039-3.040-0.327-1.025-1.321-1.614-1.714-2.599-0.327-0.781-0.205-1.321-0.327-2.058-0.458-5.436-3.87-10.044-6.469-14.747-1.47-0.244-2.791 0.881-4.021 1.47z"></path>
    </svg>