<svg xmlns="http://www.w3.org/2000/svg" viewBox="-38.198 -61.053 1021.381 1167.583">
    <path fill="#000000" d="M405.884 38.422c-12.112-12.113-33.729-4.335-47.783 0.938-17.277 6.785-25.669 12.069-5.497 20.502 10.003 4.335 24.388-4.055 31.662 6.116 7.276 9.549 2.232 26.33 2.563 38.11 0.655 14.385 5.828 29.554 6.779 44.559 1.324 19.552-3.225 37.284-6.779 56.174-7.729 42.327-9.508 81.059-11.285 124.171-1.281 32.613 3.389 102.883-11.781 130.785-36.498 3.551-75.436 58.779-99.164 88.498-22.61 28.438-38.897 65.723-58.614 97.344-25.504 41.211-50.387 79.611-72.667 123.222-19.841 39.061-49.891 55.719-64.731 98.004-11.945 34.721-26.785 69.279-21.618 105.777 4.34 31.953 3.389 29.677 25.669 30.010 69.236 1.276 137.067 7.932 206.014 12.111 28.893 1.454 58.118 7.277 86.72 8.894 37.118 1.946 75.395-4.676 113.341-2.438 20.172 1.488 41.501 5.331 61.175-1.171 17.94-5.952 33.77-16.782 52.991-18.89 38.897-4.218 79.404-4.511 118.013-3.551 36.83 0.938 74.279-9.057 111.233-8.061 20.048 0.468 40.218 3.222 60.102 4.172 7.896 0.468 14.177-7.569 14.673-17.444 0.655-13.725 6.283-31.953 0.833-41.459-22.61-39.558-7.276-63.78-36.83-95.94-31.662-34.39-51.338-63.779-76.552-102.015-24.222-36.83-33.565-67.5-78.619-146.327-12.608-22.113-45.055-29.224-59.275-49.394-8.68-12.732-17.568-32.282-29.225-41.832-16.948-13.724-28.066-28.065-38.566-48.898-10.168-20.502-7.109-57.994-11.325-82.505-7.233-41.501-10.954-81.388-10.623-123.674 0.163-35.549 4.836-90.275 3.225-125.658-0.655-15.956-1.943-38.070 11.616-48.899 10.333-8.39 26 3.222 35.506-6.608 16.161-16.657-3.225-22.114-16.948-23.893-40.054-4.71-61.671 8.225-63.946 63.615-0.95 26.454 1.324 71.84 0 99.452-2.232 46.667-4.009 99.121 4.547 138.225 8.888 41.335-10.499 98.005 7.729 134.794 9.384 18.765 28.893 25.544 42.493 39.103 22.569 23.561 43.567 52.454 64.070 78.288 21.66 27.612 38.938 54.437 57.827 84.116 11.12 17.939 27.777 29.554 38.401 47.825 8.1 13.889 12.441 33.73 19.717 47.454 16.328 31.167 47.618 52.495 62.499 84.284 8.060 17.277 11.285 37.613 23.23 53.115 6.612 8.553 15.997 12.936 18.105 23.105-37.49 17.277-93.335 11.78-133.222 9.842-31.662-1.78-67.5-8.717-98.668-3.551-33.398 5.66-64.235 15.336-96.228 26.992-44.725 16.122-97.344 7.898-144.011 9.842-52.95 2.401-106.728-10.007-159.843-13.105-15.336-0.821-101.105 20.213-97.056-16.947-17.774-6.116-37.45-5.168-55.719-6.948-2.892-22.114 24.222-52.123 34.722-69.112 24.553-39.392 39.226-89.615 62.003-131.901 24.718-46.006 49.438-76.842 86.224-109.455 7.44-6.491 0.996-12.773 5.993-22.156 2.563-5.003 16.285-11.946 19.056-16.948 11.12-21.122 31.29-33.73 47.453-49.23 15.832-15.169 51.338-37.781 60.059-57.002 5.664-12.773 4.671-30.050 4.216-44.89-1.324-35.505 0.329-70.89 1.943-106.561 0.95-21.329 5.332-35.838 10.499-55.719 6.614-26.165 1.901-42.121 1.612-67.955-0.492-16.824 23.396-188.777-10.665-169.391 6.283 0.468 12.565 0.704 2.728 0z"></path>
    <path fill="#000000" d="M158.37 744.011c34.39 0.938 51.834-19.84 82.175-25.833 24.718-5.003 36.334 20.997 62.83 19.385 10.665-0.821 24.222-10.662 34.225-9.057 13.393 2.109 17.444 20.833 31.166 24.222 10.5 2.438 23.561-3.551 34.39-4.335 12.441-0.821 28.066 5.952 38.897 4.335 17.113-2.73 20.048-16.782 34.061-26.001 14.22-9.174 39.269-15.625 55.886-16.616 45.055-2.893 83.952 7.769 127.726-3.551 34.39-8.894 77.172 0.938 97.179 32.282-19.056 18.89-59.398-4.172-83.124-6.116-18.725-1.78-37.657 0.704-56.382-0.351-17.733-0.821-35.838-2.73-53.902-1.617-26.33 1.617-33.77 10.826-52.991 19.717-16.285 7.569-36.458 4.839-54.066 11.945-20.833 8.225-32.778 10.791-58.283 10.791-48.941 0-97.056-0.468-144.054-6.785-19.056-2.567-35.342-12.276-54.894-10.791-19.386 1.276-43.898 17.897-61.175 15.004-0.833-9.221 0.621-18.228 20.337-26.95z"></path>
    <path fill="#000000" d="M687.954 651.34c-30.67-2.226-57.126-23.231-89.284-17.61-12.441 2.109-52.29 13.724-55.39 23.933 31.333 1.78 62.002 7.065 94.327 7.065 15.005 0 29.058 0.821 43.402 2.438 9.384 1.171 41.211 6.116 34.557 4.511z"></path>
    <path fill="#000000" d="M680.886 608.886c-40.714 3.551-92.715 2.109-131.61-4.839 5.664-21.99 91.392-33.441 131.61 4.839z"></path>
    <path fill="#000000" d="M611.939 556.391c-22.61-11.612-48.941-5.789-73.494-7.229-5.788-28.109 79.28-38.938 85.108-1.946z"></path>
    <path fill="#000000" d="M775.502 793.779c-13.433 0-180.056-27.489-164.555 10.334 8.391 20.668 92.839 15.336 111.564 16.782 35.382 2.893 50.553 2.401 79.943-14.053-2.439-9.057-7.276-18.105-26.95-13.062z"></path>
    <path fill="#000000" d="M865.241 881.906c-36.954 0-76.347-23.396-116.4-24.677-33.274-1.454-67.17-4.218-98.832 2.567-3.389 4.382-5.952 12.277-5.788 17.113 34.39 12.277 77.503 2.942 113.341 12.113 37.781 9.386 66.839 17.773 107.677-7.112z"></path>
    <path fill="#000000" d="M745.616 703.338c-30.050 0.938-61.051-9.221-90.564-6.608-19.717 1.78-37.326 12.44-56.711 18.393 13.888 16.328 37.781 7.604 57.331 10.499 18.393 2.601 34.225 12.276 53.115 14.053 18.889 1.78 36.665-3.222 55.223-4.839z"></path>
    </svg>