<svg xmlns="http://www.w3.org/2000/svg" viewBox="-18.221 -34.053 1059.467 1173.045">
    <path fill="#000000" d="M944.409 532.873c13.665-35.586 16.837-70.236 5.856-106.307-18.097-61.003-57.016-110.537-90.367-162.512-20.009-31.274-39.408-60.188-65.639-84.999-17.935-7.275-34.284-19.033-45.591-33.835-52.423-30.785-115.945-48.275-170.281-73.691-39.734-18.585-79.914-25.582-123.754-23.019-6.182 0.23-12.24 0.923-18.749 1.751-78.938 9.683-174.752 53.194-166.010 145.675 5.856 60.515 38.106 123.43 107.527 132.947 37.172 5.085 149.009-17.652 154.908-62.102 79.752 7.16 141.527 25.743 199.074 87.195 12.527 13.338 23.343 27.33 32.859 41.643 18.261 10.618 27.656 30.502 28.427 50.999 7.32 10.007 14.314 20.335 18.911 31.926 7.646 5.245 11.917 14.601 7.32 26.353-0.82 1.915-1.425 3.827-2.235 5.729-0.324 6.676-1.586 13.503-3.66 20.335 3.050 24.157 3.986 48.924 2.889 73.853-0.644 11.425-2.074 23.060-3.986 34.324 3.66 15.089 0.935 30.175-4.432 44.328 0.935 2.526 1.26 5.569 1.095 8.739 0 1.915-0.16 3.33-0.324 5.085 0.16 5.085-0.771 9.846-2.845 14.113-8.581 30.664-33.347 50.227-52.746 76.415-2.845 3.827-6.182 6.676-9.678 8.576-9.394 12.567-19.56 24.483-30.34 35.909-26.719 27.94-60.393 49.413-87.396 76.742-25.094 25.094-55.43 31.761-89.757 37.334-89.919 14.763-187.767 23.508-246.696-14.802 66.698 48.965 177.763 127.415 344.38 75.156 9.556-13.015 23.709-22.245 40.384-27.33 11.264-3.654 25.417-4.438 38.432-6.836 2.845-1.751 5.734-3.17 8.419-4.922 11.264-19.683 24.929-37.945 41.766-53.845 8.419-7.931 17.651-15.251 27.168-21.922 3.986-7.804 9.72-14.924 16.553-21.473 10.004-9.51 21.757-16.958 32.698-25.093 9.233-14.274 18.139-29.078 26.841-45.102 32.576-59.905 87.396-126.764 91.505-195.414 2.235-37.944-25.094-38.92-12.527-71.943z"></path>
    <path fill="#000000" d="M285.132 723.974c-26.841-23.181-54.009-50.837-74.829-79.425-14.601-20.171-21.107-34.812-22.409-50.838-2.684-3.654-5.53-7.481-7.93-11.425-6.018-9.879-3.822-22.897 3.66-31.15-0.16-5.729 0-11.425 1.095-17.326 1.748-9.35 4.309-18.585 7.32-27.656 0-7.931 1.26-15.699 3.822-23.019 0-10.33 2.196-20.823 7.604-30.827 8.745-16.023 23.508-27.004 40.018-33.674 14.314-15.901 30.379-29.852 47.826-40.994 3.499-2.030 6.994-3.781 10.654-5.245 7.482-4.761 15.251-9.187 23.996-13.665-54.82-30.785-102.159-100.532-96.912-167.431-30.175 15.251-57.016 40.223-78.166 62.14-16.675 17.448-31.6 38.594-44.654 61.775-0.771 13.503-3.456 26.842-8.703 40.18-1.748 4.311-4.148 8.128-7.159 11.31-3.173 9.026-8.092 17.324-14.924 23.996-1.464 5.085-2.889 10.167-3.986 15.412-1.095 19.359-2.684 38.759-3.011 58.115 0 7.481-2.724 13.177-6.505 17.324-0.16 27.94 3.499 55.108 12.039 79.753 13.216 10.941 25.133 23.019 31.966 39.082 3.782 8.911 4.27 17.608 0.771 25.256 65.923 100.737 180.773 159.339 304.24 160.111-47.5-15.86-85.974-26.841-125.828-61.775z"></path>
    <path fill="#000000" d="M531.663 322.211c-17.447 27.817-61.287 41.93-92.115 52.423 38.27 5.569 103.583 49.086 123.754 79.426 30.95 46.567 68.162 109.317 62.101 164.097-9.843 89.757-31.151 153.81-100.085 213.348-34.488 29.565-89.592 25.294-134.695 36.397 53.683 3.99 90.367 28.59 137.54-1.153 44.654-27.817 109.967-70.559 138.071-110.904 86.258-124.241 92.764-261.498-11.103-343.935-29.565-23.507-87.722-117.409-123.47-89.757z"></path>
    </svg>