<svg xmlns="http://www.w3.org/2000/svg" viewBox="-47.834 -48.001 1157.665 1152.001">
    <path fill="#000000" d="M868.176 514.894c-24.676 7.275-51.791 11.821-72.953 25.833-22.609 14.88-44.268 29.388-66.547 45.715-22.113 16.12-47.781 19.385-61.835 44.723-14.053 25.007-33.232 46.665-48.112 73.119-17.897 32.157-32.777 70.432-54.725 98.663-12.607 16.492-22.609 37.779-29.223 59.437-4.34-16.657-13.392-27.776-20.171-46.211-6.944-18.724-8.887-38.729-21.493-54.395-17.732-22.444-33.893-50.716-47.616-78.451-6.779-4.381-12.937-9.879-17.443-16.988-4.671-7.895-7.605-16.781-10.333-25.668-13.888-16.285-35.051-18.228-45.053-37.283-4.836-4.34-10.003-8.556-15.665-12.896-21.121-16.327-46.169-23.271-68.117-34.72-52.163-27.156-99.613-39.721-155.165-50.22 54.064-10.995 111.559-29.884 162.44-53.94 22.113-10.333 46.955-16.616 68.117-31.496 33.108-23.064 53.279-36.167 72.168-72.788 15.5-30.38 42.16-63.323 63.943-88.329 12.607-14.219 7.275-17.608 14.219-34.72 6.779-16.616 15.831-26.619 20.171-41.829 6.613 19.551 16.616 38.936 29.223 53.775 21.948 25.668 36.828 60.388 54.725 89.445 14.88 23.891 34.059 43.607 48.112 66.381s39.721 25.833 61.835 40.341c22.279 14.88 43.937 28.107 66.547 41.664 21.163 12.607 48.277 16.781 72.953 23.271 11.945 3.224 24.883 5.952 38.109 8.391-13.227 2.563-26.164 5.787-38.109 9.176zM1029.5 504.273c-1.157 0-2.439-0.165-3.885-0.165-8.391-1.943-16.947-3.224-25.833-4.216-10.995-2.563-21.328-5.663-27.776-7.564-30.504-9.713-61.008-15.376-92.173-21.659-25.999-5.332-61.711-10.168-84.444-24.841-17.277-11.325-30.669-31-49.889-40.879-14.219-7.399-27.776-8.391-39.391-19.385-5.332-5.167-12.276-12.235-18.435-18.063-17.608-16.616-36.001-37.944-52.121-56.833-16.988-19.716-9.383-45.053-26.495-66.216-10.995-13.557-24.387-23.725-35.671-37.117-11.491-13.557-11.821-17.443-15.045-32.281-4.671-20.997-8.721-44.392-16.451-66.547-0.496-1.281-0.992-2.563-1.447-3.844 1.281-8.101 2.397-15.996 0.165-25.048-3.555-14.384-9.383-31.62-11.821-47.616-0.62 0.165-1.281 0.165-1.901 0.165 0 0.331 0 0.455-0.165 0.785l0.165-0.785c-0.331 0-0.496 0.165-0.827 0.165-0.331 1.447-0.661 3.059-0.785 4.671-0.496 0.785-0.827 1.777-1.323 2.563 0.331 0.165 0.661 0.165 0.827 0.331-0.331 2.769-0.496 5.663-0.827 8.721-3.555 17.608-9.176 34.224-9.176 54.271 0 23.725 0 38.564-8.887 58.776-20.667 46.789-33.604 86.511-69.771 126.397-11.449 12.772-20.171 33.273-31.331 48.939-7.729 10.788-21.617 15.665-28.561 26.619-13.061 21.163-39.391 37.613-61.339 50.551-47.823 28.396-106.723 56.503-159.712 65.224-22.733 3.72-44.227 8.887-67.456 11.284-10.829 1.777-21.659 3.555-32.323 5.663-5.787 1.281-11.615 2.604-17.443 3.555-1.901 0.496-3.844 0.992-5.787 1.447 2.273 1.447 4.34 3.059 6.448 4.712 0.331 0 0.661 0 0.992 0.124 12.565 2.604 24.676 6.159 36.787 10.209 13.557 0.124 27.445 2.232 38.771 9.837 0.289 0.165 0.62 0.496 0.951 0.62 12.937 2.604 25.833 5.663 39.060 7.936 52.989 9.507 104.491 31 152.437 62.331 18.228 11.945 38.275 24.676 51.997 41.788 14.053 17.773 28.231 25.668 41.788 43.937 13.268 17.773 32.157 31.165 42.16 50.84 9.052 17.608 10.168 39.101 21.783 55.056 5.663 7.936 13.723 14.053 18.435 22.444 11.615 20.997 12.896 51.212 22.113 74.276 8.887 22.113 8.887 38.605 8.887 64.769 0 22.279 5.787 40.672 9.176 60.223 0.331 3.224 0.496 6.283 0.827 9.176l-0.827 0.496c0.496 0.827 0.827 1.777 1.323 2.604 0 0.289 0 0.62 0 1.116 1.447 0 2.893 0 4.175 0.165 2.769-16.327 7.936-33.439 11.16-48.112 2.232-10.003 1.116-18.724-0.165-27.776 0.455-1.447 0.951-2.893 1.447-4.216 7.729-24.387 11.78-50.22 16.451-73.449 3.224-16.327 3.555-20.667 15.045-35.671 11.284-14.88 24.676-25.999 35.671-40.879 17.112-23.229 9.507-51.336 26.495-73.119 16.12-20.667 34.513-44.227 52.121-62.661 6.159-6.448 13.103-14.219 18.435-19.84 11.615-12.276 25.172-13.268 39.391-21.493 19.22-10.788 32.612-32.612 49.889-44.888 22.733-16.285 58.445-21.783 84.444-27.445 31.165-6.944 61.669-13.227 92.173-23.891 8.391-2.893 23.271-7.729 37.944-10.829 3.885-0.455 7.771-1.116 11.78-1.777 2.769-0.289 5.332-0.455 8.101-0.455-0.165-1.157-0.165-2.273-0.331-3.224z"></path>
    <path fill="#000000" d="M768.108 231.554c-0.661 0.331-1.323 0.661-1.943 0.785-0.827 0.661-1.612 1.323-2.769 1.943-6.613 4.216-14.053 5.497-20.667 8.267-0.62 0.62-1.281 1.281-2.108 1.777-5.167 4.009-9.176 8.845-12.4 14.508 1.612 2.893 2.397 6.613 1.447 10.829-3.389 16.285-3.555 33.397-9.052 49.393-3.224 9.052-11.615 11.945-19.055 10.499-8.225 14.053-18.559 28.107-29.057 39.721-1.943 2.108-4.051 3.885-6.117 5.828-10.499 23.56-36.663 33.232-61.38 39.721-6.613 8.060-10.003 18.724-7.109 33.893 1.943 4.009 4.216 8.391 6.944 13.227-7.895-0.165 11.78 0.992 13.557 0 4.381-2.728 6.655-6.283 9.713-10.664 4.175-5.787 1.943-13.557 7.895-19.344 10.003-9.548 20.832-4.877 31.496-9.052 19.716-7.605 25.999-27.445 33.563-44.103 6.324-14.012 19.385-26.619 31.331-38.068 19.055-18.435 17.773-20.667 15.5-43.441-1.447-14.053-0.455-24.883 9.383-35.381 7.895-8.556 25.503-12.276 32.116-22.609 3.389-5.291 2.893-20.501 3.059-35.836-5.167 11.78-12.731 22.113-24.345 28.107z"></path>
    <path fill="#000000" d="M459.553 401.229c-8.887-14.343-19.551-12.896-35.051-16.781-20.336-5.332-26.495-15.831-36.663-31.62-11.449-17.939-9.176-22.94-30.008-31.331-13.557-5.663-41.333-5.663-51.832-15.5-7.936-7.44-1.777-12.607-4.836-20.997-2.769-8.060-12.441-13.227-18.269-18.393-13.557-12.276-24.676-21.989-41.499-30.049-3.844-1.777-7.895-3.224-11.945-4.505-0.785 1.116-1.777 2.397-2.893 3.555 1.116 1.447 1.943 2.893 2.893 4.175 13.268 5.993 23.105 15.335 31 26.949 2.604 1.777 5.167 3.555 7.936 5.497 14.673 10.499 8.887 18.6 11.449 33.935 2.439 14.839 7.771 16.285 21.493 24.221 7.729 4.34 24.511 10.003 29.223 17.897 10.168 16.781-5.993 16.161 16.781 22.444 14.508 3.885 23.395 10.829 35.671 17.112 8.887 4.836 21.659 5.828 30.215 11.78 16.947 11.945 37.117 30.049 49.393 45.219 6.283-1.447 1.777-1.943 8.887-11.78-6.944-3.224-6.779-23.725-11.945-31.827z"></path>
    <path fill="#000000" d="M437.109 552.838c-15.996-0.289-28.892-0.62-41.168 10.333-5.497 5.001-8.101 14.219-12.111 19.22-8.887 11.16-19.551 15.665-32.157 24.056-14.343 9.713-43.896 30.545-52.287 45.219-10.003 17.608-2.273 22.94-23.601 35.34-14.673 8.556-38.729 21.989-46.004 36.663-3.059 5.993-0.496 12.937-2.893 18.269-5.332 11.449-9.713 10.788-20.047 18.393-13.227 9.672-14.673 21.617-23.725 33.108-1.116 1.612-2.397 2.893-3.885 4.34 0 0 0 0 0.165 0.165 0-0.165 0-0.165 0.165-0.165 16.161-13.557 36.993-20.667 52.328-34.224 20.336-18.063 18.063-35.216 45.384-45.219 29.677-10.788 34.059-46.004 61.339-62.785 17.773-10.995 32.612-16.947 41.829-36.332 8.556-18.393 11.945-25.213 32.116-34.555 8.556-4.051 38.109-11.449 40.672-22.279 3.389-14.549-11.78-12.441-16.12-9.548z"></path>
    <path fill="#000000" d="M785.22 757.438c1.612 1.777 3.224 3.679 5.167 5.001 18.724 1.612 35.836 6.117 48.112 19.84 1.281 0.331 2.563 0.827 4.009 1.116 0.496-5.952-1.116-11.78-3.555-17.567-0.289-0.661-0.62-1.323-0.951-1.943-4.051-2.893-8.887-5.332-14.549-7.109-12.111-3.555-17.401-8.060-26.619-13.392-5.663-3.224-11.615-6.779-17.443-10.829-1.281 0.331-2.728 0.331-4.505-0.165-15.831-5.497-28.603-15.831-33.769-30.008-13.392-11.987-28.892-21.328-42.119-33.604-13.723-12.772-15.996-29.553-24.717-45.219-8.887-15.955-23.105-27.611-40.507-34.555-11.491-4.671-17.153-4.175-27.156-13.061-5.787-5.001-13.557-23.105-20.501-24.552-20.832-4.836-14.673 21.659-13.392 22.94 5.167 20.667 21.493 14.384 40.507 22.279 12.607 5.167 18.6 14.219 20.997 28.107 3.555 21.287 1.157 16.285 19.881 28.065 6.779 4.216 11.945 9.548 17.897 14.715 6.489 5.663 7.771 5.787 16.327 10.333 13.557 7.275 17.773 14.343 25.833 26.784 8.060 12.607 17.608 23.436 30.669 31 13.557 7.605 29.553 9.713 40.383 21.824z"></path>
    <path fill="#000000" d="M590.001 496.337c-18.559-9.341-34.224-23.891-43.772-40.672-7.233-7.936-13.557-16.327-18.889-25.213-25.833 19.551-45.673 49.104-74.896 67.332 33.728-0.289 56.833 43.772 67.001 67.663 20.005-25.503 42.284-52.617 70.556-69.109z"></path>
    </svg>