<svg xmlns="http://www.w3.org/2000/svg" viewBox="-27.731 -90.005 730.668 1195.690">
    <path fill="#000000" d="M331.779 621.165c0 90.667 3.84 179.031 3.84 269.015 0 20.522 6.656 98.987 11.35 129.494 0.81 6.011 9.814 5.672 10.325-0.484 2.816-36.864 4.65-122.838 9.174-153.516 10.325-69.163-0.169-143.318-0.169-213.846-0.169-73.003 31.659-133.504 9.814-201.174-15.829-48.298-1.149-149.973-2.816-195.67-26.325 1.536-48.853 1.669-75.52 8.019 0.169 0.484 7.851 0.847 8.021 1.209-0.677-0.605-2.176-1.5-4.352-2.177 0.339 98.517 30.678 257.708 30.336 359.169z"></path>
    <path fill="#000000" d="M216.792 522.178c1.835-11.647 169.515 6.011 197.163 4.523 31.83-1.536 62.166-7.68 92.502-13.355 2.176 18.688-2.987 43.99-3.84 63.317-1.323 30.166-13.013 57.686-15.147 86.7-2.176 28.673 33.152 102.997 6.144 125.824-24.661-10.667-66.176-2.987-93.654-4.523-32-1.5-63.19 0-95.19 0-33.835-0.121-67.328 4.693-99.158-4.826-2.005-44.16 1.197-88.15-5.973-130.816-4.352-25.857-4.523-50.688-2.005-77.014 1.835-18.517 8.49-33.323 7.979-51.669 2.859 0.121 8.32 2.346 10.837 4.693 1.835 28.161-3.499 56.491-3.499 85.462 0 32.341 6.827 61.695 10.496 92.842 3.669 30.678-6.826 64.342 24.32 67.841 44.032 4.826 91.35-2.346 136.022-2.346 32.683 0 68.181-6.821 99.499 2.008 2.346-17.494-5.163-27.99-9.814-42.667-7.339-22.998-3.371-42.155-1.536-66.006 1.536-20.821 5.334-41.984 4.181-62.976-0.859-15.488-11.819-34.347-6.186-49.493-26.667-1.838-52.48 4.475-78.976 1.318-29.013-3.157-61.483 7.982-89.515-0.121-32.341-9.349-63.659-9.168-94.166-12.842 5.675 0 11.52 0 9.515-15.829z"></path>
    <path fill="#000000" d="M67.629 206.699c7.638 11.308 41.984 105.814 18.304 107.478-17.323 1.209-24.832-57.985-27.648-71.809-2.987-14.207-6.016-31.701 9.344-35.669z"></path>
    <path fill="#000000" d="M615.3 197.355c-5.675-0.847-12.032 0.484-17.024 2.987-5.504 16.001-5.504 39.681-6.998 56.662-0.81 9.18-3.499 36.694 3.158 43.521 12.373 12.501 18.176-8.188 19.499-16.513 2.517-17.151-1.792-35.669-1.323-52.309 0.169-9.18 10.325-28.673 2.687-34.347z"></path>
    <path fill="#000000" d="M284.461 42.347c-11.179-5.842-42.155-6.652-44.331-19.84-2.859-18.006 31.659-19.328 44.672-20.31 13.824-1.209 153.985-12.202 127.659 29.483-8.021 12.673-55.168 4.826-70.528 4.826z"></path>
    <path fill="#000000" d="M376.963 247.831c25.643-9.131 66.987-5.975 95.147-7.462 34.859-2.008 74.326-2.177 108.502 1.488 14.677-0.363 7.68 13.824 11.35 21.845-73.003 3.628-141.995-16.854-214.998-15.872zM339.459 73.364c-25.984 22.314-42.155-31.873-18.517-33.834l-3.968-1.367c8.661-3.798 20.48 3.495 26.325 9.337 8.32 8.321 7.339 16.342-3.84 25.857zM326.957 121.655c-10.325-3.967-14.848-28.33-0.859-28.97 6.998-0.847 12.203 2.479 18.517 4.136 1.835 12.33-0.169 31.701-17.664 24.831zM336.595 167.179c-14.635 4.136-18.133-20.182-5.163-23.681l1.365-1.209c8.661 3.834 20.651 20.010 3.798 24.832zM235.944 256.294c-19.84 1.838-40.32 4.475-59.35 7.341-21.462 3.326-44.16 4.644-65.664 7.813-32.811 4.826-16.981-2.987-30.165-23.168 58.837 17.152 126.507-1.838 188.673-1.838 6.186-1.669 21.333-0.484 33.664 0.484-17.323 8.66-48.171 7.511-67.158 9.349zM606.634 205.928c-32.683 11.816-86.87 5.503-121.515 7.511-23.509 1.488-42.667 3.326-64.854 8.321-21.632 4.656-32.128 4.185-52.992 3.157-7.339-26.667-7.339-66.646-0.81-94.166 9.814-40.662-9.344-96.47 27.648-121.984-31.317-13.824-91.008-4.185-126.166-3.157-0.98 22.316 6.357 29.824 15.659 47.317 13.184 23.852 10.026 43.35 14.336 69.334 6.186 35.669 4.694 65.493 11.52 99.157-11.179 7.511-95.531 14.848-115.030 16.342-37.461 2.685-95.318 0.121-124.8-23.852-13.525 24.363 12.501 61.867 11.307 91.35 35.499-9.978 80-8.66 118.187-17.835 42.496-10.159 90.326-18.987 131.328-23.68 95.318-11.308 186.497 37.504 280.15 29.355-6.315-28.502-7.168-56.832-3.968-87.169z"></path>
    </svg>