<svg xmlns="http://www.w3.org/2000/svg" viewBox="-15.058 -16.765 1182.027 1121.004">
    <path fill="#000000" d="M227.66 89.75c0.456 2.311 4.584 6.65 5.91 8.771 8.67 13.836 17.432 26.593 27.236 39.747 13.154 17.582 22.808 37.626 35.415 55.65 5.858 8.475 12.457 16.208 19.207 23.936 6.405 7.29 11.234 15.221 16.454 23.349-1.969 0.636-3.45 0.588-5.421 1.675-2.706 1.521-3.745 4.775-6.354 6.154-2.070 1.136-4.874 1.035-7.29 2.219-2.368 1.083-4.679 2.802-6.795 3.745-1.478-2.070-2.171-4.484-3.45-6.605-3.399-5.762-7.83-10.636-11.13-16.544-3.644-6.45-7.733-11.724-12.808-17.141-4.433-4.724-7.141-9.603-11.083-14.623-3.15-4.093-7.141-7.242-10.636-10.938-4.829-5.020-8.816-10.787-13.695-15.757-4.679-4.88-9.899-9.213-14.132-14.434-3.89-4.724-6.554-10.145-11.13-14.282-5.025-4.578-11.183-9.011-11.725-16.003-0.51-5.863 0.206-9.408-1.921-15.024-1.622-4.383-3.644-8.029 0.246-11.625 2.46-2.311 6.6-3.745 9.408-5.963 6.058-4.874 11.97-4.53 13.69-6.304z"></path>
    <path fill="#000000" d="M114.775 198.744c0.886 4.829 12.317 11.183 15.024 13.25 9.854 7.488 20.295 14.037 29.898 21.77 9.559 7.632 18.27 16.152 27.386 24.232 9.453 8.37 18.865 17.040 29.452 23.981 4.233 2.758 9.21 4.93 12.903 8.376 2.561 2.363 3.15 5.415 5.22 7.727-6.6-1.965-16.744 15.81-19.257 19.162-2.758 3.692-6.795 5.812-9.403 9.558-1.824 2.61-1.478 5.266-5.175 3.938-1.083-0.461-2.412-3.004-2.951-3.692-4.137-5.175-9.313-9.163-14.333-13.399-17.19-14.483-34.478-27.928-52.997-40.63-9.995-6.896-19.553-14.483-29.799-20.887-6.89-4.332-14.623-9.699-15.165-18.324-0.408-6.058 0.408-11.916 2.359-17.627 0.886-2.61 2.469-6.108 5.175-7.488 2.557-0.408 5.17-0.408 7.778 0.040 4.433 0 8.424-1.381 13.89-10z"></path>
    <path fill="#000000" d="M751.163 66.406l-0.461-1.772c-3.841 0.737-6.253 10.536-7.437 13.59-8.424 21.328-18.716 42.015-27.63 63.193-6.991 16.594-14.728 32.752-21.57 49.401-2.561 6.208-10.345 18.174-6.896 25.366 3.394 0.408 7.046-0.645 10.346-0.162 8.861 1.329 14.082 15.069 22.060 19.452 0.939-2.758 0.89-4.924 2.070-7.878 3.499-8.816 7.488-17.387 11.82-25.811 12.116-23.79 25.070-48.76 41.027-70.088 6.354-8.52 10.542-16.002 13.741-26.153 1.478-4.628 3.008-9.403 5.321-13.69 0.69-1.184 1.53-3.004 2.311-4.043 1.377-1.824 4.53-3.394 5.316-5.91-0.882-2.166-6.253-3.99-8.024-5.415-7.83-6.309-15.024-10.838-25.416-12.071-5.17-0.636-11.323-1.18-14.773 3.692-5.567 7.934 6.645 10.050-1.824-1.719z"></path>
    <path fill="#000000" d="M965.263 212.389c-3.596-0.838-10.982 3.547-14.282 4.774-15.566 5.768-26.694 20.245-38.715 31.328-25.71 23.64-55.95 41.569-83.578 62.896-3.298 2.508-10.296 6.058-9.559 11.078 0.592 4.433 2.855 1.772 6.304 2.811 8.52 2.61 9.262 16.053 16.158 20.19 2.706 1.627 5.516 1.474 8.861 1.23 4.238-0.285 5.963-2.017 9.704-4.288 5.712-3.45 12.362-5.22 18.57-7.587 7.83-2.951 15.12-6.941 22.111-11.474 12.071-7.83 23.495-16.304 34.282-25.761 8.621-7.532 16.107-15.32 26.057-20.983 9.553-5.466 19.894-9.107 29.794-13.785 4.829-2.267 8.52-3.403 9.408-8.571 0.741-4.233-0.539-7.387-3.205-10.642-10.346-12.51-23.44-23.64-35.46-34.527-0.986 2.122-0.285 4.729 3.547 3.298z"></path>
    <path fill="#000000" d="M718.115 848.778c-0.329 4.874 1.329 6.549 3.797 10.887 9.062 15.707 18.219 31.323 27.431 46.934 10.246 17.437 19.358 35.365 29.207 52.997 2.368 4.287 5.17 8.229 8.275 11.97 1.285 1.631 8.275 7.934 7.141 11.379-2.416 0-4.287 0.636-6.504 1.030-5.812 1.136-11.329 1.333-16.595 4.775-3.499 2.315-12.903 13.892-17.929 12.116-3.052-1.083-0.785-2.017-1.574-3.99-2.022-4.829-4.484-9.649-6.701-14.578-8.52-19.006-16.744-37.285-26.79-55.605-6.45-11.77-14.383-22.166-21.423-33.489-1.969-3.105-3.298-6.259-4.78-9.559-1.425-3.249-4.137-6.103-4.829-9.603-0.838-4.383 1.23-5.857 4.093-8.37 10.636-9.307 19.207-16.744 27.185-16.891z"></path>
    <path fill="#000000" d="M328.876 829.324c-2.416 0.329-4.679 1.627-6.6 2.96-5.567 3.789-11.429 8.174-16.209 12.753-12.015 11.524-22.165 24.923-33.148 37.335-11.324 12.853-23.344 24.819-33.243 38.81-8.67 12.212-16.108 25.315-25.907 36.744-5.812 6.795-13.445 12.015-18.27 19.547-3.205 4.93-6.896 9.609-8.67 15.221-0.986 3.298-4.338 12.212-7.979 6.208 0.162-1.921 0.246-3.89 0.368-5.812 0.206-2.513-0.246-4.88-1.377-7.091-2.61-8.621-6.549-15.963-8.52-24.974-1.53-6.946-3.004-12.858-7.632-18.515-3.692-4.484-8.52-7.784-12.266-12.167-5.070-5.91 2.61-7.883 7.387-11.574 4.88-3.745 10.542-6.208 15.566-9.75 11.033-7.784 20.983-16.995 31.965-24.87 9.553-6.851 19.703-12.463 29.497-18.817 8.571-5.516 13.349-10.887 19.654-18.57 11.324-13.741 27.727-21.77 38.464-36.052 7.928-10.536 14.97-21.965 25.71-30.039 3.89-2.96 7.096-6.455 10.887-9.508 2.513-1.973 5.025-2.368 7.638-3.942 4.679-2.855 8.766-11.078 14.578-11.428 4.774-0.285 4.829 3.797 7.482 7.29 6.405 8.376 21.474 10.838 30.39 15.667-14.232 5.020-26.147 18.319-35.852 29.056-6.008 7.242-12.457 14.138-19.352 20.636-4.53 3.99-9.408 7.587-14.483 10.887-4.628 4.288-3.745 7.688 9.95-9.995z"></path>
    <path fill="#000000" d="M180.971 710.577c0.456 2.513 3.35 4.137 4.78 6.153 1.719 2.416 7.186 8.571 7.141 11.429 0 0.986-2.565 4.975-3.056 5.717-3.15 4.874-8.766 8.129-13.199 11.67-8.029 6.549-15.907 11.574-25.411 15.757-7.979 3.499-14.434 5.472-21.082 10.838-5.863 4.775-12.266 9.257-17.878 14.378-3.254 2.907-5.812 7.928-10.787 7.587-3.45-5.567-3.004-13.546-5.071-19.799-1.622-5.025-8.074-17.782-5.125-23.199 1.184-2.219 2.855-2.219 4.924-3.45 17.979-10.536 35.214-23.294 52.060-35.511 6.896-5.020 12.807-8.37 21.133-9.453 7.778-0.986 8.715 0.206 11.569 7.883z"></path>
    <path fill="#000000" d="M895.226 504.31c-0.986 0.592-2.263 1.083-3.205 1.627 2.46-3.1 8.621-1.579 12.020-1.53 18.028 0 36.498-1.083 54.522-2.263 24.232-1.631 48.022-7.733 72.204-9.558 13.050-0.934 23.394-4.829 35.415-9.804 4.034-1.719 13.25-6.399 18.073-3.894 2.714 1.381 1.877 4.88 1.631 7.883-0.986 11.97-7.784 22.903-8.029 35.019-0.162 6.103 4.043 11.619 3.99 17.286-6.208 1.824-14.383 0.040-20.786 0.592-9.899 0.789-18.866 3.745-28.816 3.495-15.27-0.461-30.090-6.645-45.509-5.712-7.387 0.461-14.187 3.99-21.379 5.421-7.482 1.474-15.215 1.82-22.802 2.802-8.861 1.23-16.89 1.43-25.857 1.43-3.99 0.040-8.816 0.934-12.708-0.162-2.070-0.539-3.15-2.070-4.874-2.855-3.596-1.579-5.025-0.592-7.587-3.99-1.728-2.315-4.288-6.749-4.087-9.609 0.368-3.64 3.048-7.141 3.692-10.887 0.636-3.74-0.886-11.719 4.087-15.315z"></path>
    <path fill="#000000" d="M807.61 282.427c2.070-1.131 3.938-0.986 5.858-1.868 3.254-1.43 5.321-4.53 7.683-7.29 3.644-4.233 7.392-7.587 11.724-11.183 2.022-1.675 4.043-5.271 6.259-6.504 5.516-3.1 9.553 4.043 12.412 7.29 6.253 7.192 9.553 16.008 16.002 23.098 2.368 2.61 2.96 4.389 4.433 7.141 1.675 3.105 4.288 5.812 6.695 8.526 2.416 2.802 3.745 4.774 5.321 8.023 2.368 4.924 6.45 8.425 8.912 13.25 1.18 2.311 1.53 4.924 2.557 7.29 1.772 3.99 5.271 6.845 7.192 10.787 0.539 1.035 0.162 2.508 0.636 3.591 0.939 2.070 2.61 3.552 3.644 5.516 1.574 2.96 2.513 6.013 3.596 9.21 10.195 30.44 21.030 60.335 27.972 92.008 1.232 5.561 1.333 10.291 1.377 15.957 0.040 6.058 1.723 11.619 2.122 17.677 0.285 5.125-0.083 10.542-0.162 15.712-0.162 7.784 1.579 13.495 3.596 20.837 1.381 5.22-0.368 10.345-1.18 15.466-0.69 4.182-0.51 8.37-0.456 12.557 0.083 6.701-1.973 12.116-1.973 19.11 0.040 4.53 2.311 14.187-2.311 16.996-1.377 0.838-5.612 1.53-7.341 1.921-4.428 1.035-9.654 2.017-14.187 2.46-3.64 0.408-7.632 0-11.278-0.123-3.64-0.040-4.975-0.741-5.807 2.855-0.741 3.004 0.083 7.437 0.083 10.536 0 5.667-1.474 14.138 0.285 19.553 6.008 1.184 12.607 0.939 18.665 1.973 9.654 1.719 19.11 6.154 28.71 7.979 4.93 0.886 7.192 0.886 12.217 3.394 4.383 2.171 6.6 2.315 11.228 2.368 4.924 0.040 10.050-0.882 13.986 1.772 1.377-1.82 1.631-3.64 2.416-5.612 1.083-2.811 2.706-5.020 4.043-7.683 2.114-4.233 1.474-8.224 2.166-12.658 1.030-6.8 4.679-12.658 5.415-19.553 0.69-5.858-0.456-11.725 0.206-17.582 0.592-5.667 2.758-10.887 3.596-16.454 1.772-11.865 4.53-23.835 5.812-35.807 0.588-6.008 1.772-11.474 2.951-17.381 1.377-6.555 1.184-12.658 1.131-19.358 0-13.149-0.162-25.71-1.474-38.76-0.51-4.829 0.162-9.804-0.741-14.578-1.131-6.208-3.99-12.021-5.125-18.27-2.017-10.982-6.354-21.178-10.346-31.669-5.957-15.661-16.448-29.061-23.248-44.276-4.53-10.15-12.066-18.47-15.069-29.207-2.96-10.491-7.533-18.324-14.237-26.844-6.304-7.979-10.39-17.582-16.84-25.656-7.437-9.408-14.138-19.161-21.429-28.716-5.17-6.749-10.686-12.362-14.132-19.999-1.921-4.282-3.298-5.119-6.695-8.47-4.829-4.679-7.045-9.454-14.237-10.59-2.557 5.516-9.553 4.88-13.54 9.262-5.516 5.957-9.899 12.607-16.403 17.782-7.934 6.304-17.537 8.766-25.070 15.611-4.924 4.479-10.195 5.17-14.528 10.396-3.254 3.938-7.192 6.549-9.262 11.278-1.622 3.793-4.383 8.67-2.311 12.261 1.127 2.022 3.495 3.105 4.924 4.879 1.425 1.921 2.166 3.99 3.64 5.858 2.61 3.254 7.192 8.816 9.855 3.89z"></path>
    <path fill="#000000" d="M749.243 218.202c0.461-3.052 2.263-5.612 3.35-8.074 2.557-5.617 4.233-11.825 6.45-17.683 2.311-6.153 3.596-12.807 5.762-19.11 1.622-4.729 4.332-8.816 5.91-13.546 0.838-2.557 0.986-5.22 1.868-7.778 0.246-0.592 0.285-2.758 0.456-3.45 0.083-0.741 1.772-1.18 1.723-2.368-0.206-2.557-3.89-4.287-5.812-5.316-2.855-1.474-6.159-2.122-9.062-3.45-5.516-2.561-9.508-6.45-14.482-9.704-5.37-3.547-11.67-4.774-17.241-8.32-5.561-3.596-10.59-3.596-16.158-6.555-15.165-8.174-33.148-14.037-49.742-18.665-7.192-2.017-14.383-6.253-21.87-6.399-6.896-0.162-12.807-0.741-19.553-2.469-6.946-1.772-13.89-1.127-20.687-3.692-8.224-3.048-14.477-5.17-23.344-5.562-6.208-0.329-12.316-0.838-18.27-2.758-8.67-2.758-14.237-5.125-23.445-4.975-8.571 0.162-17.19 0-25.761 0-10.291 0.040-20.095-1.675-30.29-2.017-9.403-0.368-18.124 1.627-27.431 2.017-4.233 0.206-7.538-0.162-11.479 1.824-2.070 1.035-3.89 2.907-6.008 4.034-5.176 2.662-10.938 4.137-15.617 7.688-11.183 8.47-22.41 11.82-36.202 14.232-8.966 1.53-16.253 4.433-24.819 7.387-6.058 2.122-11.278 2.907-16.896 6.208-4.332 2.561-8.269 3.841-13.199 4.829-7.040 1.377-13.936 5.717-19.598 10.246-4.233 3.45-6.8 8.32-9.899 12.116-6.304 7.632-15.416 13.244-22.512 19.994-5.17 4.975-12.066 10.1-17.777 14.383-4.287 3.249-9.558 6.896-10.542 12.808-0.934 5.612 2.416 4.729 5.812 7.091 1.969 1.381 3.298 3.841 4.729 5.717 4.628 6.058 9.158 12.161 13.64 18.324 2.267 3.1 4.389 6.008 7.046 8.861 2.070 2.219 4.484 6.75 7.341 7.587 0.246-3.298 1.285-4.775 4.137-6.253 3.298-1.675 9.011 0.329 11.62-1.631 4.338-3.249 1.921-11.569 0.285-15.315-1.53-3.403-4.479-5.962-5.562-9.75-0.51-1.675-0.456-3.745-0.794-5.516-0.162-0.645-1.329-0.51-1.377-1.53-0.329-5.125 7.141-6.6 10.491-8.721 4.433-2.802 6.946-7.342 10.982-10.39 3.942-3.008 8.37-3.648 12.316-6.8 4.724-3.841 9.403-5.37 14.874-7.883 6.896-3.197 12.999-8.47 19.894-11.374 9.75-4.137 20.837-5.466 30.536-9.995 6.701-3.15 13.546-3.697 20.591-5.762 6.399-1.925 11.865-5.472 18.42-6.946 6.45-1.474 13.050-2.267 19.503-3.841 4.88-1.184 9.408-3.543 14.282-4.53 6.75-1.43 14.187 1.23 20.737-0.645 2.412-0.69 4.428-2.61 6.6-3.692 3.74-1.921 7.778-1.921 11.865-1.965 11.529-0.162 22.808-2.416 34.332-1.921 7.387 0.329 15.365 1.23 22.653 2.508 6.65 1.184 13.103 1.039 19.799 1.877 8.179 0.934 15.813 3.841 23.891 5.125 7.237 1.083 13.986-0.939 20.786 2.114 6.795 3.004 14.082 6.504 21.519 7.587 2.907 0.461 5.91 0.040 8.816 0.461 5.37 0.636 8.917 2.907 13.596 5.266 5.762 2.859 12.066 5.226 17.974 7.784 5.666 2.412 10.686 6.058 16.298 8.52 3.35 1.43 6.504 1.868 9.704 3.596 7.437 4.043 14.037 9.508 21.524 13.399 2.412 1.276 4.282 2.802 6.499 4.183 1.723 1.083 4.188 2.017 4.975 3.692 1.23 2.565-0.882 5.667-1.574 7.883-1.631 5.22-2.070 10.641-4.287 15.661-2.070 4.729-5.071 8.52-6.45 13.546-0.838 3.004-4.092 9.603-3.552 12.807 0.939 5.466 10.296-0.51 15.416 1.18 0.040 1.921 0.741 4.233 2.267-6.154z"></path>
    <path fill="#000000" d="M184.863 227.955c-2.215 0-3.596-1.18-3.64-3.205 3.048 3.797 7.237 7.192 10.887 10.542 2.61 2.412 5.661 3.885 8.32 6.153 2.855 2.46 4.975 5.812 7.928 8.129 3.399 2.662 5.076 4.679 3.841 9.603-0.368 1.381-1.574 1.728-1.868 3.004-0.51 2.267 0.285 4.092-1.53 5.962-4.775-2.758-12.266-10.982-17.828-10.832 0.040 3.495-2.714 6.795-4.634 9.553-3.048 4.383-4.969 9.313-8.67 13.199-3.394 3.552-6.549 6.258-8.861 10.542-1.675 3.1-3.841 6.304-5.466 9.358-1.675 3.15-2.171 6.504-3.697 9.804-2.263 4.874-6.208 8.52-7.928 13.741-1.772 5.266-3.052 9.798-5.271 14.874-2.46 5.466-5.666 11.028-7.878 16.544-0.838 2.022-1.285 4.188-1.776 6.309-1.127 4.578-3.346 6.795-5.561 10.686-3.45 6.103-2.46 13.791-5.176 20.14-0.737 1.776-2.508 3.596-3.1 5.471-0.986 3.495-0.785 7.632-1.329 11.228-0.939 6.304-2.758 12.708-3.004 19.11-0.162 4.188 0.083 7.979-0.838 12.116-0.838 3.99-2.714 7.587-3.052 11.67-0.408 4.634 0.539 9.21-0.368 13.791-1.083 5.321-1.574 9.75-1.53 15.371 0.040 7.482-1.574 14.132-2.070 21.468-0.408 6.8-0.040 12.808-1.377 19.407-2.464 12.020-0.461 26.745-0.461 38.96 0 14.483 0.206 28.52 1.671 42.903 0.548 4.969 0.408 9.403 2.122 14.186 1.184 3.346 2.758 6.253 3.596 9.699 1.824 7.341 2.807 12.412 6.108 19.161 3.394 7.046 7.532 13.741 9.849 21.178 2.807 8.912 6.6 17.678 9.75 26.494 2.807 7.883 7.934 15.024 11.82 22.412 2.368 4.578 3.797 9.307 6.108 13.836 2.662 5.316 4.975 9.262 5.415 15.12 0.368 4.729 1.631 11.916 6.8 13.645 6.991 2.263 10.542-1.23 14.482-5.812 1.53-1.824 7.141-7.883 9.21-7.83 4.043 0.040 2.61 5.025 2.61 8.224-0.040 9.262 0.040 13.941 6.354 20.541 1.574 1.627 4.584 3.205 3.1 5.812-0.737 1.285-3.298 1.53-4.53 2.215-4.137 2.508-6.94 6.549-10.832 9.508-5.22 4.034-9.75 8.912-15.512 12.116-4.729 2.61-10.59 5.17-14.629 8.616-6.399 5.466-7.979 14.925-18.124 12.457-0.246-3.793-1.969-5.265-4.634-7.878-3.543-3.552-5.562-7.096-8.52-11.083-6.991-9.21-14.232-18.47-20.29-28.469-2.215-3.64-4.338-7.237-6.208-10.982-2.368-4.829-7.141-9.899-7.637-15.416-0.368-3.499 0.329-6.058-0.636-9.654-1.579-5.812-2.61-11.183-3.004-17.136-0.285-4.78-2.070-9.21-2.907-13.991-1.083-5.612-1.377-11.62-3.35-16.99-2.017-5.667-4.724-10.938-6.504-16.795-2.114-7.141-2.706-14.237-4.724-21.328-6.896-24.528-7.83-49.451-7.83-74.716 0-9.95 0.838-20.145-0.986-29.899-2.122-11.574-0.934-23.936-0.934-35.711 0-13.199 0.246-25.806 1.921-38.91 0.838-6.504 1.381-12.998 2.166-19.452 0.886-7.29 3.499-13.842 5.125-20.932 3.004-12.562 8.52-24.432 10.737-37.186 1.23-7.096 4.287-11.97 7.336-18.374 2.807-5.91 4.93-12.161 7.733-18.073 5.717-11.97 13.103-23.199 18.569-35.214 2.311-4.975 3.648-10.1 5.22-15.371 1.631-5.561 5.025-10.686 7.342-16.053 4.478-10.195 8.966-21.030 15.566-30.090 5.963-8.128 9.553-17.336 14.629-25.907 3.298-5.567 5.957-9.358 10.686-13.546 2.263-1.965 4.679-4.679 7.778-5.466 5.125-1.285 3.745 2.706 3.89 7.437z"></path>
    <path fill="#000000" d="M755.055 868.23c-1.824-0.246-2.416-1.425-1.969-3.249 0.162 3.1-0.083 4.729 1.083 7.482 2.215 5.271 6.108 11.625 9.062 16.65 6.851 11.719 14.037 23.344 20.095 35.556 3.596 7.29 5.667 15.075 8.966 22.261 0.986 2.215 2.513 4.78 3.648 7.045 1.18 2.368 3.841 4.433 3.692 7.387-3.99 1.039-7.638-0.040-11.625 1.43-6.253 2.219-11.77 5.762-17.828 8.179-5.91 2.412-11.725 1.772-17.19 5.22-5.567 3.543-11.67 5.957-17.437 9.358-10.34 6.058-21.423 9.062-32.606 13.050-6.499 2.368-11.474 4.087-18.42 3.938-4.724-0.162-7.387-0.408-11.374 1.877-2.46 1.377-3.15 2.657-6.008 3.495-3.596 1.083-6.108 0.206-9.459 2.267-1.921 1.23-2.263 2.907-4.628 3.692-5.962 1.973-13.445 1.973-19.65 3.249-13.992 2.96-29.357 0.162-43.59 0.886-12.407 0.636-24.87 2.907-36.989 3.89-6.749 0.588-12.753 2.070-19.65 2.017-8.32-0.040-16.649 0-24.974 0-4.578 0-9.107-0.040-13.64 0.083-9.508 0.246-16.403-5.712-25.465-6.103-14.483-0.69-27.337-9.358-41.473-12.954-8.275-2.122-14.779-6.159-22.802-9.262-8.867-3.45-18.174-4.975-26.94-8.721-6.455-2.758-11.379-5.858-18.374-7.29-9.307-1.82-16.945-7.727-25.169-12.161-10.345-5.612-20.295-11.574-30.586-17.292-2.855-1.574-6.504-2.907-8.966-5.17-1.425-1.285-2.017-3.105-3.298-4.383-4.288-4.233-11.278-5.22-15.024-10.291-5.119-6.997-10.536-10.447-18.219-14.925-6.845-3.99-12.021-10.39-19.062-13.836-2.017-0.986-3.793-0.794-5.957-2.022-3.254-1.82-6.45-4.53-9.21-6.94-4.137-3.644-7.587-8.37-11.87-11.775-5.466-4.332-13.154-5.316-13.791-13.645-0.368-4.578 2.368-6.058 4.729-9.603 1.377-2.166 1.772-4.332 3.45-6.45 2.557-3.298 7.186-6.058 10.24-9.062 4.484-4.383 6.405-10.246 11.625-13.645 3.495-2.263 7.733-5.858 11.916-6.8 3.254-0.737 8.67-0.789 11.724 0.69 2.855 1.43 11.278 9.408 10.491 12.463-5.025 1.035-3.894 0.368-7.587 3.793-2.61 2.368-6.208 2.859-8.867 5.22-1.719 1.53-2.855 3.35-4.874 4.584-0.886 0.592-2.561 0.040-3.45 0.785-0.934 0.794-1.377 1.877-2.070 2.714-0.206 0.737-0.408 1.474-0.64 2.215-0.882 0.408-1.671 0.934-2.359 1.574-1.333 2.46-1.579 5.717-1.184 8.67 0.539 4.53 3.35 5.421 6.304 9.559 6.108 8.47 12.807 16.053 19.849 23.49 6.008 6.354 14.087 10.1 20.636 15.512 8.179 6.701 16.995 12.412 25.219 19.012 5.125 4.137 9.95 5.762 16.008 8.128 5.858 2.311 10.737 6.154 16.649 8.475 13.936 5.415 27.386 11.719 41.317 16.99 6.208 2.311 10.938 3.644 17.387 3.793 6.549 0.162 12.066 3.846 18.57 4.043 7.045 0.246 13.741 1.377 20.732 1.921 6.851 0.544 13.205 3.004 20.050 3.692 5.91 0.592 11.323 1.333 17.19 2.662 6.45 1.43 12.457 0.69 18.811 1.772 7.141 1.23 13.741 4.137 20.732 5.316 8.275 1.333 17.588 2.811 26.057 2.171 3.302-0.246 6.405-1.131 9.704-1.579 4.383-0.636 9.157 0.408 13.445-0.539 6.845-1.474 12.998-7.29 19.748-9.804 7.392-2.706 15.616-4.874 23.199-7.141 3.249-0.986 6.6-1.083 9.899-2.219 5.466-1.921 9.508-5.712 14.43-8.565 7.883-4.53 16.595-4.78 24.478-9.017 5.421-2.907 9.95-7.437 15.512-9.995 3.797-1.772 7.933-1.969 11.724-3.644 2.61-1.18 4.924-3.004 7.533-4.182 8.867-3.841 18.47-0.539 27.191-5.667 6.108-3.644 11.725-4.087 18.27-6.208 1.973-0.69 3.841-2.311 5.762-3.105 3.45-1.381 7.83-0.982 11.13-2.363 2.215-0.986 4.433-2.662 6.013-4.829 3.249-4.484 1.23-5.321-2.368-9.21-4.775-5.176-8.425-10.296-11.374-16.7-2.122-4.729-6.504-10.441-7.29-15.566-0.69-4.183 1.373-4.874 5.466-5.812 5.516-1.276 11.915-0.456 15.566 3.45z"></path>
    </svg>