<svg xmlns="http://www.w3.org/2000/svg" viewBox="46.597 31.472 988.298 996.175">
    <path fill="#000000" d="M313.049 758.31c-4.928 5.343-12.343 13.448-13.309 17.638-1.198 5.113 3.915 12.113 7.646 17.224l1.242 1.657c5.434 7.553 10.224 15.060 14.507 22.844 0.148-0.552 0.22-1.149 0.332-1.703 1.982-12.482 4.513-25.145 6.725-35.876 0.646-2.996 1.105-8.474 1.614-14.83 1.382-16.626 2.899-31.363 7.277-40.76-0.368-0.148-0.737-0.332-1.061-0.461-5.204 9.119-11.468 17.686-17.040 25.145-2.026 2.719-4.881 5.802-7.921 9.119z"></path>
    <path fill="#000000" d="M300.035 434.819c-0.737-1.61-1.518-3.316-2.303-5.065-4.006-8.889-9.165-20.448-15.612-26.941-1.332 7.646-4.238 15.198-6.54 21.048l-0.505 1.332c-1.798 4.606-3.822 9.119-5.757 13.448-0.737 1.61-1.473 3.224-2.166 4.836l-0.784 1.657c-0.412 1.014-0.877 2.026-1.289 3.040-4.974 12.297-11.513 17.317-19.205 23.165-1.426 1.105-2.992 2.256-4.606 3.592-16.442 13.125-27.587 19.25-47.805 26.159-1.198 0.412-2.671 1.014-4.513 1.751-0.505 0.22-1.105 0.461-1.657 0.689l1.751 0.332c15.29 2.947 32.607 6.264 47.069 12.802 7.23 3.271 15.612 7.093 23.949 11.606 14.785 7.966 25.329 15.981 33.205 25.145l2.44 2.812c3.869 4.513 8.428 9.764 12.616 15.105 2.347-11.099 4.513-22.383 4.559-32.652 0.036-6.264-0.877-12.616-1.751-18.745-1.332-9.258-2.715-18.836-1.289-29.244 0.368-2.762 2.21-5.159 4.79-6.168 0 0 0.074-0.074 0.184-0.412 1.149-2.903 2.026-13.357-14.046-47.667l-0.737-1.61z"></path>
    <path fill="#000000" d="M743.724 724.505c4.374 9.392 5.941 24.133 7.277 40.76 0.552 6.354 0.968 11.836 1.61 14.876 2.21 10.731 4.742 23.397 6.725 35.831 0.074 0.552 0.22 1.149 0.332 1.751 4.283-7.78 9.074-15.337 14.553-22.89l1.198-1.657c3.731-5.113 8.842-12.113 7.691-17.224-1.014-4.19-8.428-12.25-13.357-17.638-2.996-3.271-5.895-6.402-7.921-9.119-5.572-7.462-11.79-16.026-16.995-25.145-0.368 0.184-0.737 0.332-1.105 0.461z"></path>
    <path fill="#000000" d="M459.058 744.817c-1.149-0.184-2.394-0.294-3.915-0.294-1.566 0-3.13 0.11-4.79 0.184-1.842 0.074-3.731 0.184-5.572 0.184-2.903 0-7.323-0.184-12.066-1.935-4.145-1.518-7.737-3.452-11.19-5.297-5.113-2.762-9.533-5.113-14.876-5.895-10.547-1.518-20.725-2.21-31.547-2.899-5.343-0.368-10.317-0.737-15.060-1.149 0.693 4.928 0.968 9.81 1.198 14.737 0.184 2.996 0.332 6.034 0.6 9.165 0.784 9.578-1.382 18.377-3.452 26.85-1.198 4.881-2.44 9.901-2.996 14.737-0.412 3.915-0.873 7.875-1.332 11.929 17.777-23.304 45.825-40.020 75.761-44.536 3.501-0.509 7.369-1.473 11.513-2.487 7-1.703 14.278-3.501 21.278-3.545 4.054 0 8.567 0.968 13.125 2.303-3.501-5.25-6.034-11.836-7.875-17.777-0.921 3.408-3.961 5.802-7.553 5.802-0.412 0-0.83 0-1.242-0.074z"></path>
    <path fill="#000000" d="M945.019 515.691c-8.521 5.757-21.323 8.289-32.607 10.592-4.329 0.83-8.428 1.657-11.745 2.578-17.179 4.697-41.726 12.802-61.024 24.87-6.493 4.054-11.652 10.085-17.133 16.488-5.065 5.895-10.27 11.975-16.949 17.040-4.054 3.13-8.014 7.921-11.882 12.527-2.531 3.087-5.159 6.218-7.966 9.074l2.44 1.473 0.332 0.22c15.567 9.487 31.686 19.343 47.897 28.139l2.119 1.105c31.825 16.81 48.266 29.153 52.78 39.884-3.087-19.064-3.822-39.009-4.559-57.752-0.332-8.521-0.646-16.626-1.149-24.409-8.152 2.947-17.915 4.974-25.009 5.711-0.83 0.074-1.61 0.148-2.44 0.148-2.119 0-4.145-0.258-5.757-0.505-0.461-0.11-0.877-0.148-1.289-0.184-2.671 1.657-4.742 2.578-7.23 2.578-0.646 0-1.242-0.036-2.21-0.22-2.899-0.416-5.343-2.444-6.309-5.25-0.968-2.808-0.258-5.895 1.798-8.014 2.347-2.444 5.25-4.006 8.658-4.652 4.006-3.592 9.074-5.85 13.632-7.83 2.624-1.149 5.343-2.347 7.553-3.685 4.836-2.808 9.81-7.737 14.6-12.434 3.18-3.13 6.448-6.354 9.81-9.119 2.992-2.531 6.168-5.434 9.487-8.567 8.105-7.462 16.442-15.198 25.423-19.389 1.061-0.505 2.21-0.737 3.364-0.737 1.426 0 2.899 0.368 4.145 1.149 2.256 1.382 3.636 3.822 3.731 6.493 0.332 10.777-5.527 20.125-11.19 29.199-3.685 5.941-7.507 12.066-8.705 17.593-2.21 10.179-1.657 19.436-1.058 29.244 0.258 4.19 0.505 8.521 0.596 13.080 0.184 12.573 0.921 24.456 1.704 37.029 0.461 7.83 0.964 15.705 1.289 23.9 0.22 5.020-0.6 9.994-1.43 14.785-0.78 4.652-1.518 9.026-1.105 12.482 0.184 1.43 1.566 4.19 2.671 6.402 1.657 3.271 3.316 6.632 4.099 10.363 0.509 2.44-0.258 4.928-1.887 6.725 1.566 1.014 3.176 1.978 4.559 3.224 2.578 2.259 3.408 5.895 2.071 9.026-1.289 2.903-4.099 4.79-7.23 4.79-0.258 0-0.505-0.036-0.78-0.036-1.149-0.148-2.394-0.258-3.685-0.416-4.006-0.416-8.521-0.921-12.802-0.921-10.133 0-13.125 2.715-14.462 4.79-1.473 2.21-3.915 3.545-6.862 3.545h-0.036c-0.332 0-0.693 0-1.061 0-10.915 0-22.428 6.493-33.621 12.757-3.961 2.256-7.737 4.374-11.606 6.309-4.006 1.978-6.632 4.422-9.994 7.507-2.303 2.071-4.652 4.238-7.646 6.448-3.731 2.762-7 4.422-9.672 5.802-4.374 2.21-6.771 3.452-9.901 8.337-5.020 7.737-10.179 15.935-13.678 22.981-1.43 2.903-2.44 6.448-3.545 10.133-1.566 5.388-3.224 10.961-6.402 16.119l-2.856 4.513c-3.685 5.941-6.632 10.592-10.040 17.27-0.258 0.6-0.6 1.242-0.921 1.887-1.566 3.271-3.776 7.921-8.014 10.179-0.646 2.166-2.21 4.006-4.422 4.928-0.968 0.416-2.026 0.6-3.083 0.6-2.578 0-5.020-1.289-6.493-3.408-2.166-3.18-2.903-6.034-3.545-8.521l-0.258-1.105c-0.184-0.646-0.294-1.289-0.294-1.982-3.636-9.349-9.487-20.862-13.264-25.975-2.487-3.408-7.277-6.862-11.929-10.224-3.176-2.303-6.448-4.697-9.303-7.23-6.771-6.125-10.408-11.376-14.646-17.593-0.784-1.105-1.614-2.303-2.487-3.545-10.685-15.244-28.369-21.278-41.312-23.672-6.955-1.242-14.046-3.545-20.955-5.757-9.533-3.087-19.436-6.264-27.726-6.264-1.014 0-1.978 0.036-2.947 0.148-0.258 0.036-0.552 0.036-0.784 0.036-3.776 0-7-2.671-7.737-6.354-0.78-4.006 1.566-7.921 5.481-9.074 1.982-0.6 4.374-1.426 7.139-2.394 7.921-2.856 16.949-6.125 24.686-6.125 6.771 0.074 14.046 1.842 21.048 3.545 4.145 1.014 8.060 1.978 11.513 2.487 29.981 4.559 58.029 21.232 75.761 44.582-0.461-4.054-0.921-8.060-1.332-11.929-0.509-4.836-1.751-9.901-2.947-14.737-2.119-8.521-4.283-17.317-3.452-26.896 0.258-3.13 0.416-6.168 0.552-9.165 0.258-4.928 0.552-9.81 1.198-14.692-4.697 0.416-9.672 0.784-15.060 1.149-10.777 0.693-21.001 1.332-31.502 2.856-5.388 0.784-9.764 3.18-14.876 5.895-3.501 1.887-7.093 3.776-11.238 5.343-4.697 1.751-9.119 1.935-12.020 1.935-1.89 0-3.731-0.074-5.711-0.22-1.566-0.036-3.13-0.148-4.697-0.148-1.473 0-2.762 0.074-3.915 0.22-0.416 0.074-0.83 0.148-1.242 0.148-3.64 0-6.816-2.487-7.646-6.079-0.921-3.776 1.105-7.646 4.652-9.119 1.105-1.242 3.087-5.388 5.895-12.388 4.283-10.592 7.966-19.757 16.765-19.757 1.703 0 3.408 0.412 4.974 1.242 1.426 0.737 2.531 1.887 3.316 3.316 1.426 2.762 7.139 4.467 14.921 4.467 8.105 0 16.717-1.798 22.060-3.452 1.935-0.6 4.006-1.566 6.168-2.628 3.364-1.657 7.23-3.501 11.606-4.374 0.921-0.148 2.026-0.22 4.054-0.22 1.426 0 3.224 0.036 4.928 0.074 0.332 0 0.693 0 0.968 0-0.074-0.968-0.22-2.026-0.332-2.578-0.412-2.578-0.873-5.85-0.412-9.303 0.412-3.224 2.715-5.802 5.85-6.586 0.646-0.184 1.289-0.258 1.935-0.258 2.347 0 4.559 1.061 6.034 2.856 2.259-8.289 5.666-16.074 8.98-23.626 5.065-11.561 9.856-22.428 10.224-33.944 0.461-14.876-3.636-29.199-7.966-44.443-2.347-8.105-4.742-16.488-6.402-25.009-3.316-16.949-6.218-43.615-3.452-63.004 2.166-15.014 8.105-28.692 13.909-41.956 1.751-4.054 3.501-8.060 5.159-12.113 1.887-4.697 3.408-9.856 5.065-15.29 3.408-11.513 6.955-23.442 14.646-32.93 3.636-4.422 7.277-8.521 10.822-12.482 7.046-7.875 13.725-15.29 19.205-24.686 5.527-9.392 12.066-17.915 18.422-26.114 5.159-6.725 10.501-13.632 15.060-20.816 6.354-10.040 23.028-33.528 39.93-33.528 0.873 0 1.751 0.074 2.624 0.184 3.18 0.509 5.757 2.812 6.493 5.941 0.78 3.13-0.416 6.354-3.040 8.244-3.316 2.394-6.079 5.895-9.026 9.626-1.061 1.382-2.166 2.719-3.316 4.099-2.856 3.408-5.986 6.309-9.026 9.165-4.099 3.776-7.966 7.323-10.363 11.422-3.316 5.802-4.006 13.173-4.742 20.955-0.258 2.808-0.552 5.666-0.921 8.474-0.968 7-3.501 12.941-5.941 18.698-2.578 5.941-4.79 11.099-4.742 16.397 0.258 19.343 9.81 50.891 18.468 68.299 7.277 14.507 20.125 18.607 35.049 23.304 4.836 1.566 9.856 3.13 14.785 5.159 11.004 4.467 18.836 7.369 28.508 9.856 2.578 0.693 4.652 2.628 5.481 5.159 0.509 1.521 0.552 3.087 0.148 4.606 3.685 0.294 7.139 0.921 10.454 1.842 2.947 0.83 5.159 3.271 5.666 6.309 0.505 2.992-0.83 6.079-3.364 7.78zM564.822 750.454c-2.624-2.259-3.961-5.020-5.065-7.184l-0.596-1.149c-2.347-4.422-6.402-8.244-10.317-11.975-1.704-1.566-3.408-3.18-4.881-3.822-0.596-0.22-1.332-0.368-2.071-0.368-1.751 0-3.822 0.646-5.666 1.842-2.812 1.751-5.297 4.606-7.921 7.646-2.628 3.040-5.343 6.168-8.935 8.935-2.531 1.935-5.159 3.18-7.277 4.19-3.316 1.61-4.79 2.394-5.941 4.422-0.294 0.509-0.552 1.061-0.83 1.704-0.83 1.794-1.89 4.006-3.731 6.079-1.566 1.751-3.13 2.856-4.652 3.731 2.21 1.798 3.361 4.697 2.808 7.646-0.737 3.685-4.006 6.354-7.737 6.354-0.258 0-0.505 0-0.78-0.036-0.968-0.074-1.935-0.148-2.947-0.148-8.289 0-18.193 3.18-27.771 6.264-6.862 2.21-14 4.513-20.91 5.757-12.941 2.394-30.627 8.428-41.312 23.672-0.921 1.242-1.751 2.487-2.531 3.64-4.238 6.079-7.83 11.376-14.646 17.502-2.812 2.535-6.125 4.928-9.303 7.23-4.606 3.364-9.392 6.816-11.882 10.224-3.776 5.113-9.578 16.533-13.264 25.884v0.036c0 0.83-0.148 1.657-0.412 2.44l-0.148 0.693c-0.646 2.487-1.382 5.343-3.592 8.521-1.473 2.119-3.869 3.408-6.493 3.408-1.061 0-2.071-0.184-3.040-0.6-2.21-0.921-3.776-2.762-4.467-4.928-4.19-2.256-6.448-6.909-8.014-10.224-0.332-0.6-0.6-1.242-0.921-1.842-3.364-6.677-6.309-11.329-10.040-17.27l-2.808-4.559c-3.18-5.113-4.836-10.685-6.402-16.074-1.105-3.685-2.119-7.23-3.592-10.133-3.501-7.046-8.658-15.244-13.632-22.981-3.176-4.881-5.572-6.125-9.901-8.337-2.671-1.382-5.986-3.040-9.672-5.802-3.040-2.21-5.388-4.374-7.646-6.448-3.364-3.087-6.034-5.527-9.994-7.507-3.869-1.935-7.646-4.054-11.652-6.309-11.145-6.264-22.66-12.757-33.572-12.757-0.368 0-0.737 0-1.382 0-2.671 0-5.159-1.332-6.586-3.545-1.382-2.075-4.329-4.79-14.462-4.79-4.283 0-8.796 0.505-12.802 0.921-1.289 0.148-2.531 0.258-3.685 0.416-0.258 0-0.505 0.036-0.784 0.036-3.13 0-5.986-1.887-7.23-4.79-1.382-3.13-0.552-6.771 2.075-9.026 1.382-1.242 2.947-2.21 4.559-3.224-1.614-1.798-2.44-4.238-1.89-6.725 0.737-3.731 2.44-7.093 4.099-10.363 1.105-2.21 2.487-4.974 2.624-6.402 0.461-3.452-0.258-7.83-1.061-12.482-0.83-4.79-1.657-9.764-1.473-14.785 0.368-8.198 0.877-16.074 1.332-23.9 0.784-12.573 1.518-24.456 1.703-37.029 0.036-4.559 0.332-8.889 0.552-13.080 0.596-9.81 1.198-19.064-1.014-29.244-1.198-5.527-5.020-11.652-8.705-17.593-5.666-9.074-11.513-18.422-11.19-29.199 0.074-2.671 1.473-5.113 3.731-6.493 1.242-0.784 2.671-1.149 4.145-1.149 1.149 0 2.303 0.22 3.316 0.737 9.026 4.19 17.363 11.929 25.423 19.389 3.361 3.13 6.493 6.034 9.533 8.567 3.364 2.762 6.632 5.986 9.764 9.119 4.836 4.697 9.764 9.626 14.6 12.434 2.259 1.337 4.974 2.535 7.598 3.685 4.513 1.978 9.626 4.238 13.632 7.83 3.364 0.646 6.264 2.21 8.658 4.652 1.982 2.071 2.624 5.159 1.657 8.014-0.964 2.812-3.501 4.836-6.309 5.25-0.737 0.148-1.382 0.22-2.119 0.22-2.44 0-4.513-0.921-7.23-2.578-0.416 0.036-0.83 0.074-1.242 0.184-1.614 0.22-3.636 0.505-5.802 0.505-0.784 0-1.614-0.036-2.394-0.148-7.093-0.737-16.856-2.762-25.054-5.711-0.461 7.78-0.784 15.935-1.105 24.409-0.737 18.745-1.518 38.686-4.559 57.752 4.513-10.731 20.91-23.074 52.78-39.837l2.075-1.149c7.507-4.054 14.876-8.337 20.448-11.606 9.578-5.666 19.205-11.513 28.508-17.179l1.704-1.061c-2.762-2.856-5.388-5.986-7.966-9.074-3.822-4.606-7.78-9.392-11.882-12.527-6.677-5.065-11.882-11.145-16.949-17.040-2.856-3.316-5.527-6.448-8.382-9.303-3.13-3.13-5.895-5.388-8.705-7.184-19.343-12.066-43.89-20.173-61.069-24.87-3.271-0.921-7.369-1.751-11.745-2.578-11.284-2.303-24.040-4.836-32.561-10.592-2.531-1.703-3.869-4.742-3.364-7.78 0.461-3.040 2.671-5.481 5.618-6.309 3.316-0.921 6.771-1.566 10.501-1.842-0.412-1.518-0.412-3.083 0.074-4.606 0.877-2.531 2.903-4.467 5.527-5.159 9.672-2.487 17.502-5.388 28.462-9.856 4.974-2.026 9.994-3.592 14.83-5.159 14.876-4.697 27.771-8.796 35.001-23.304 8.705-17.408 18.193-48.956 18.468-68.299 0.074-5.297-2.119-10.454-4.697-16.397-2.44-5.757-5.020-11.697-5.941-18.698-0.412-2.812-0.693-5.666-0.921-8.474-0.737-7.78-1.426-15.153-4.79-20.955-2.347-4.099-6.218-7.646-10.317-11.422-3.040-2.856-6.218-5.757-9.074-9.165-1.149-1.382-2.21-2.715-3.316-4.099-2.899-3.731-5.711-7.23-9.026-9.626-2.578-1.89-3.776-5.113-3.040-8.244 0.78-3.13 3.316-5.434 6.54-5.941 0.83-0.074 1.751-0.184 2.628-0.184 16.901 0 33.528 23.488 39.93 33.528 4.513 7.184 9.856 14.094 15.060 20.816 6.354 8.198 12.895 16.717 18.422 26.114 0.258 0.552 0.596 1.014 0.964 1.566l0.6 0.921c5.159 8.244 11.284 15.060 17.731 22.288 3.501 3.915 7.139 7.966 10.685 12.388 7.737 9.487 11.238 21.417 14.692 32.93 1.614 5.434 3.13 10.592 5.065 15.29 1.61 4.054 3.364 8.060 5.159 12.159 5.757 13.218 11.745 26.896 13.909 41.91 2.762 19.389-0.148 46.055-3.452 63.004-1.703 8.521-4.099 16.901-6.402 25.009-4.374 15.198-8.474 29.567-7.966 44.443 0.332 11.513 5.113 22.428 10.224 33.989l1.978 4.606c2.444 5.666 5.113 12.066 6.955 18.975 1.521-1.794 3.731-2.856 6.034-2.856 0.689 0 1.332 0.074 1.978 0.258 3.13 0.784 5.434 3.364 5.85 6.586 0.461 3.452-0.036 6.725-0.412 9.303-0.074 0.552-0.258 1.657-0.368 2.578 0.332 0 0.646 0 0.968 0 1.751-0.036 3.501-0.074 4.928-0.074 2.026 0 3.13 0.074 4.054 0.22 4.422 0.873 8.244 2.715 11.652 4.374 2.163 1.061 4.238 2.026 6.125 2.628 5.343 1.657 13.955 3.452 22.106 3.452 7.737 0 13.448-1.704 14.921-4.467 0.737-1.426 1.89-2.578 3.316-3.316 1.566-0.83 3.271-1.242 4.974-1.242 8.796 0 12.482 9.165 16.765 19.805 2.808 6.955 4.742 11.099 5.85 12.343 1.014 0.412 1.842 1.061 2.531 1.794-1.014-4.467-1.518-7.553-1.518-7.646-0.22-2.444 0.596-4.79 2.259-6.354 0 0 0.036-0.148 0.036-0.416 0-5.757-0.368-12.297-2.808-17.086-0.509-1.061-0.83-2.21-0.83-3.408-0.074-4.238-0.22-8.289-0.412-12.020l-0.036-1.061c-0.921-16.119-1.566-27.771-2.947-37.536-0.074-0.646-0.074-1.332 0-1.978 1.198-10.915-0.509-20.034-5.065-27.124-2.21-3.452-5.159-6.354-8.658-8.612-0.877-0.552-1.657-1.289-2.259-2.163-1.382-1.978-2.903-4.099-4.513-6.264l-0.552-0.83-0.552-0.737-0.412-0.552c-5.159-6.862-11.561-15.428-14.094-24.318-1.105-3.731-1.061-6.816-0.964-9.303 0.036-3.13 0.036-3.869-1.614-5.757-8.842-10.27-13.218-22.288-17.502-33.944-1.473-4.099-3.040-8.382-4.79-12.482-4.881-11.513-11.238-21.001-17.961-31.088l-3.452-5.25c-0.461-0.258-0.921-0.6-1.473-1.105-0.412-0.258-0.784-0.6-1.105-0.921-1.014-0.877-1.751-1.978-2.166-3.224-0.036-0.036-0.074-0.22-0.148-0.416-2.163-4.928-4.928-9.578-7.875-14.507-2.44-4.145-4.974-8.382-7.184-12.895-0.074-0.148-0.184-0.332-0.22-0.368-0.509-0.877-0.83-1.798-0.968-2.762-0.877-5.802-1.426-12.020-1.982-18.008-1.014-11.099-2.075-22.521-4.974-30.258-0.416-1.061-0.552-2.259-0.461-3.452 0.074-1.061 0.148-2.119 0.184-3.13-1.614-9.949-4.422-28.048-5.113-34.633-0.968-8.98 1.198-18.054 5.666-23.765 9.901-12.666 19.85-26.389 22.844-42.324 1.473-7.737 1.566-15.428 1.703-22.844 0.148-9.764 0.294-19.896 3.271-30.765 1.473-5.25 3.501-11.836 5.941-18.929 3.040-8.796 18.882-53.562 32.746-69.267 4.652-5.204 12.711-7.737 24.731-7.737 10.133 0 21.094 1.794 28.462 3.268 1.382 0.294 2.715 0.921 3.731 1.89 0.036 0 0.184 0.148 0.258 0.22 4.652 3.869 9.392 5.618 15.474 5.618 4.283 0 9.165-0.921 15.428-2.903 0.877-0.552 1.89-0.921 2.947-1.105 8.658-1.382 17.777-4.283 28.646-9.165 10.408-4.652 20.403-6.909 30.627-6.909 8.289 0 16.717 1.426 26.482 4.467 3.040 0.921 5.159 3.545 5.527 6.909 3.040 0.873 5.941 1.289 8.658 1.289 4.006 0 7.277-0.968 9.764-2.812 1.198-0.877 2.578-1.426 4.054-1.566 2.21-0.184 4.422-0.416 6.677-0.646 5.204-0.552 10.592-1.105 16.026-1.105 8.244 0 15.014 1.289 21.369 4.054 21.185 9.258 28.278 16.533 32.975 33.758 0.148 0.552 0.258 1.105 0.258 1.657l0.036 0.505c1.289 24.363 2.762 51.95 19.666 61.944 0.737 0.412 1.382 0.968 1.982 1.61l0.22 0.332 0.552 0.646c0.552 0.6 1.014 1.332 1.289 2.119 0.83 1.978 1.89 4.006 3.408 6.402 1.982 3.316 1.332 7.507-1.657 9.901 0 0 0.036 0.074 0.184 0.332 8.705 14.507 16.212 24.686 24.224 32.975 0.83 0.877 1.473 1.978 1.842 3.13 6.402 20.264 8.889 40.16 7.23 57.566-1.657 17.363-13.034 43.845-24.040 67.61-0.036 0.332-0.036 0.646-0.074 0.968 0 0.148-0.074 0.552-0.148 0.693-0.258 1.198-0.83 2.303-1.61 3.271-2.856 5.343-17.731 39.7-20.218 45.916-0.921 2.303-1.566 4.836-2.21 7.323-1.521 5.802-3.224 12.388-8.567 18.193-3.731 4.054-8.289 6.448-12.297 8.521-2.487 1.332-4.881 2.531-6.677 4.006-5.388 4.422-9.578 12.666-12.616 18.698-7.414 14.737-12.527 31.272-17.502 47.298l-1.61 5.343c-1.242 3.961-2.394 8.014-3.636 12.802-0.412 1.473-1.242 2.856-2.624 4.099-2.719 4.559-3.501 9.856-2.394 15.705 0.184 0.968 0.184 1.935 0.036 2.899-1.014 5.572-1.935 11.145-2.899 17.27-1.105 6.909-2.303 14.323-3.822 22.751-0.148 0.83-0.461 1.657-0.873 2.394l-0.416 0.784c-4.881 8.751-9.487 16.995-10.547 26.528-0.412 3.501-0.368 7.139-0.368 10.685 0.036 6.909 0.074 14.737-2.947 22.935-3.636 9.626-7.646 19.711-13.357 28.324-5.527 8.428-14.323 13.448-23.533 13.448-6.218 0-12.159-2.303-17.224-6.677zM1034.199 577.069c-1.614-7.737-5.159-14.553-3.685-23.488 1.473-8.751-4.145-17.224-9.392-24.916v5.159c-0.596 0.036-1.198 0.074-1.794 0.148-0.258-4.145-1.332-8.474-0.646-12.527 2.259-13.173 5.297-26.252 7.646-39.423 0.646-3.731 0.505-7.83-0.368-11.468-2.947-12.159-6.218-24.224-9.626-36.292-2.808-9.949-5.618-19.941-9.074-29.706-2.026-5.85-5.113-11.329-8.014-16.856-1.198-2.21-3.268-3.961-4.79-6.034-0.689-0.921-1.105-2.026-1.518-3.087-2.21-6.168 2.808-12.573-0.693-18.836-1.149-2.119-1.794-4.652-2.119-7.046-0.921-6.909-1.473-13.862-2.303-20.771-0.11-1.198-0.461-2.487-1.105-3.408-3.822-5.297-7.83-10.454-11.513-15.797-0.693-0.968-0.332-2.578-0.509-4.374-8.612-7.78-12.527-19.989-21.601-28.736-8.198-7.875-13.357-18.882-19.896-28.462-4.283-6.309-8.796-12.527-12.988-18.929-3.636-5.572-9.578-9.303-10.179-17.408-0.258-4.374-5.020-8.98-8.705-12.434-7.462-6.955-15.567-13.173-23.397-19.711-0.148 1.198-0.258 2.535-0.461 3.869-0.461 0.22-0.968 0.416-1.43 0.6-3.083-4.559-6.168-9.165-9.303-13.725-2.071-2.947-4.238-5.802-6.354-8.705-1.566-2.163-3.18-4.283-4.697-6.493-2.487-3.731-4.881-7.507-7.414-11.238-0.873-1.242-2.071-2.256-3.040-3.452-3.731-4.974-7.23-10.085-11.238-14.785-1.061-1.198-3.592-1.289-5.481-1.518-2.762-0.368-5.666 0.036-8.289-0.693-10.961-3.224-21.969-6.402-32.7-10.27-4.374-1.566-8.612-4.329-11.975-7.553-10.224-9.856-22.981-16.533-32.607-27.403-5.065-5.757-13.264-8.889-20.357-12.616-7.921-4.145-16.119-7.691-24.272-11.329-4.422-1.978-8.889-4.606-13.541-5.25-9.165-1.332-18.561-1.332-27.771-2.256-10.685-0.968-21.737-0.148-31.641-5.572-10.592-5.85-22.153-4.742-33.528-4.928-0.83 0-1.842 0.148-2.394 0.646-5.113 4.79-10.915 2.762-16.533 1.704-0.877-0.184-1.332-2.303-2.259-4.006-2.624-0.332-5.941-1.105-9.303-1.198-7.093-0.074-14.228 0.184-21.323 0.258-7.414 0.148-14.83 0.737-22.199 0.148-6.862-0.552-13.678-2.347-20.541-3.636-0.148 0-0.184-0.368-0.294-0.412-2.808-0.258-5.895-1.382-8.337-0.552-6.402 2.166-12.802 4.697-18.607 8.105-3.040 1.751-7.921 2.719-7.83 8.060 0 0.737-1.242 1.751-2.119 2.256-3.545 1.982-7.184 3.822-10.777 5.666 0.036-0.552 0.036-1.105 0.074-1.657-1.014-0.22-2.166-0.83-3.087-0.646-5.25 1.105-10.363 2.578-15.612 3.501-2.075 0.332-4.422-0.877-6.54-0.552-8.152 1.382-16.258 3.087-24.363 4.697-9.949 1.887-19.941 3.822-29.89 5.757-1.382 0.258-2.812 1.242-4.099 1.105-9.119-1.332-16.949 3.636-25.423 5.388-1.473 0.332-2.671 2.259-3.961 3.452 0.22 0.22 0.505 0.461 0.784 0.693 2.578-0.83 5.159-1.657 7.737-2.487 0.184 0.509 0.368 1.014 0.552 1.473-5.388 3.685-10.777 7.323-16.165 10.961-0.22-0.784-0.509-1.518-0.737-2.256-1.89 0.148-4.145-0.332-5.666 0.505-4.652 2.628-9.026 5.757-13.493 8.705-7.277 4.836-14.185 10.224-21.876 14.278-5.481 2.903-12.343 3.271-17.961 6.079-13.218 6.632-26.389 13.493-35.001 26.389-3.176 4.697-6.816 9.026-10.961 14.553-0.968-1.935-1.473-2.947-1.798-3.685-9.994 8.428-13.632 20.125-19.85 30.213-5.666 9.165-11.513 18.513-18.975 26.114-9.119 9.21-20.173 16.442-30.029 24.961-9.717 8.428-11.561 20.725-14.553 32.332-1.198 4.697-2.259 9.442-3.408 14.185-0.552-0.148-1.105-0.22-1.657-0.368 0.148-1.426 0.332-2.812 0.461-4.238-2.347 2.303-3.224 5.159-4.742 7.598-3.224 5.204-6.816 10.224-10.317 15.29-0.877 1.289-2.21 2.303-3.13 3.592-5.481 8.152-10.915 16.303-16.258 24.547-0.921 1.43-1.289 3.316-1.704 5.020-2.163 9.21-4.006 18.513-6.493 27.633-2.303 8.428-5.297 16.626-8.014 24.916-0.412-0.148-0.877-0.22-1.332-0.368-0.294-0.83-0.509-1.657-0.693-2.119-0.968 5.204-2.394 10.547-2.899 15.981-0.693 6.909-0.416 13.955-1.014 20.862-0.646 7.139 0.78 14.507-3.087 21.323-2.166 3.822-4.054 8.105-4.742 12.388-3.13 18.652-5.481 37.304-15.198 54.208-7.046 12.204-7.598 26.021-5.159 39.469 3.961 21.969 7.83 44.029 16.488 64.8 0.505 1.198 1.887 2.026 2.671 3.18 2.899 4.422 5.711 8.889 8.567 13.357l-0.968 0.693c-1.058-0.461-2.071-0.968-3.13-1.426 4.79 6.354 5.666 14.278 3.408 20.218-2.487 6.677-2.259 11.79 0.646 17.547 0.294-0.509 0.6-1.061 1.566-2.812 0.461 5.113 0.83 8.98 1.149 12.802 0.368 4.099 0.461 8.244 1.149 12.297 4.006 22.797 13.080 43.936 21.048 65.491 7.966 21.646 22.428 39.469 33.944 58.95 6.079 10.317 14.414 19.711 24.547 27.124 11.376 8.337 22.89 16.349 30.856 28.969 5.572 8.889 14.323 15.89 22.106 23.213 12.434 11.652 24.961 23.165 37.904 34.128 20.125 17.086 39.746 35.184 67.149 40.16 1.842 0.332 3.776 0.036 5.618 0.368 6.448 1.105 13.309 1.382 19.205 3.869 6.034 2.487 11.099 7.277 16.672 10.961 0.921 0.596 2.303 0.505 3.452 0.689 1.798 0.332 4.054 0.036 5.388 0.968 10.822 7.78 22.153 14.323 35.184 17.824 9.303 2.487 18.284 6.034 27.357 9.258 3.040 1.105 5.802 3.776 8.751 3.869 11.19 0.22 21.139 5.25 31.825 7.462 15.751 3.224 31.318 7.507 46.654-1.703 1.657-0.968 4.374-0.416 6.586-0.184 2.21 0.184 4.467 1.518 6.54 1.289 20.676-2.531 41.265-5.343 61.899-7.966 10.408-1.332 20.816-2.487 31.179-3.776 8.244-1.061 16.488-1.935 24.64-3.408 10.27-1.794 20.403-4.19 30.581-6.309 0.552-0.074 1.105 0.036 1.61-0.036 4.79-0.784 10.179-0.416 14.278-2.578 12.204-6.402 23.995-13.725 35.924-20.771 3.636-2.119 6.725-6.264 11.745-2.535 0.509 0.368 1.982-0.461 2.947-0.921 12.343-6.354 25.745-9.487 39.284-11.606 9.578-1.473 13.725-8.98 19.205-15.198 0.552-0.596 0.22-1.935 0.368-3.731-1.935 1.703-3.316 2.903-4.652 4.099-0.416-0.22-0.83-0.505-1.242-0.737 1.426-2.44 2.394-5.481 4.422-7.184 8.474-7.093 16.765-14.323 25.1-21.462 12.343-10.547 21.876-24.318 36.752-32.146 5.666-2.947 9.994-8.521 15.014-12.757 1.014-0.877 2.394-1.332 3.685-1.798 11.376-4.329 22.244-9.21 27.633-21.417 4.652-10.454 9.303-20.91 14.737-30.995 2.578-4.881 6.493-9.349 10.547-13.218 16.303-15.474 33.666-29.936 44.075-50.661 3.592-7.139 8.474-13.632 12.666-20.541 1.289-2.071 2.394-4.374 3.271-6.725 3.636-9.856 7.646-19.666 10.685-29.706 2.762-9.392 4.697-19.020 6.725-28.601 1.518-7.093 2.166-14.414 4.006-21.462 2.487-9.487 7.323-18.607 8.244-28.139 0.877-9.81 2.996-19.113 5.159-28.553 0.921-3.869 3.040-8.060 2.303-11.606z"></path>
    <path fill="#000000" d="M881.472 699.176c-2.21 0-4.283-0.921-5.802-2.531l-2.487-2.719c-6.079-6.677-11.376-12.482-18.561-18.193-1.61-1.242-5.572-3.18-9.392-5.020-8.889-4.329-18.054-8.796-21.969-15.383-11.606-3.545-21.601-8.152-33.159-13.402l-0.737-0.368c-2.026-0.921-4.422-1.935-7.139-3.040-2.671-1.105-5.527-2.256-8.337-3.501-0.332 8.337-1.842 16.949-3.408 22.337-1.518 5.343-4.283 9.578-6.677 13.357-2.075 3.13-3.822 5.85-4.79 8.889-0.921 2.762-1.014 6.079-1.149 9.578-0.036 2.303-0.148 4.742-0.461 7.184-0.22 1.751-0.368 3.408-0.552 4.974-0.22 2.026-0.461 4.19-0.78 6.264 10.777 5.572 21.001 15.337 30.165 24.086 2.624 2.535 5.204 4.974 7.646 7.184 5.85 5.297 9.672 7.093 15.060 7.093 3.731 0 8.198-0.784 15.198-2.21 5.297-1.105 12.343-3.316 19.757-5.618 16.581-5.159 35.37-11.054 52.596-11.054 3.776 0 7.23 0.416 10.592 0.968-7.23-12.434-11.697-26.573-14.6-41.449-0.22 4.467-2.44 8.428-6.586 11.238-1.337 0.877-2.856 1.332-4.422 1.332z"></path>
    <path fill="#000000" d="M175.748 728.052c3.316-0.596 6.816-0.968 10.592-0.968 17.224 0 36.015 5.85 52.596 11.054 7.414 2.303 14.462 4.513 19.757 5.572 6.955 1.426 11.468 2.21 15.198 2.21 5.388 0 9.21-1.794 15.060-7.093 2.44-2.21 4.974-4.652 7.691-7.184 9.119-8.705 19.343-18.468 30.12-24.040-0.368-2.119-0.6-4.238-0.83-6.309-0.148-1.518-0.332-3.18-0.552-4.928-0.258-2.487-0.368-4.881-0.461-7.184-0.074-3.545-0.22-6.862-1.105-9.578-0.412-1.332-1.061-2.671-1.935-4.283-0.873-1.566-1.842-3.040-2.856-4.606-2.394-3.776-5.159-8.014-6.677-13.357-1.566-5.434-3.087-14.046-3.408-22.383-2.808 1.242-5.711 2.444-8.382 3.545-2.628 1.105-5.065 2.119-7.139 3.040-6.168 2.808-11.975 5.481-17.87 7.921-5.802 2.394-10.915 4.283-15.981 5.85-3.915 6.586-13.080 11.054-21.969 15.337-3.822 1.89-7.83 3.822-9.392 5.065-7.184 5.711-12.482 11.468-18.607 18.145l-2.487 2.719c-1.473 1.61-3.592 2.578-5.757 2.578-1.614 0-3.13-0.505-4.422-1.382-4.145-2.812-6.402-6.771-6.632-11.238-2.856 14.876-7.369 29.060-14.553 41.496z"></path>
    <path fill="#000000" d="M889.319 501.047c-20.218-6.909-31.363-13.034-47.76-26.159-1.657-1.332-3.224-2.535-4.742-3.636-7.553-5.802-14.094-10.777-19.064-23.12-1.332-3.316-2.947-6.771-4.467-10.179-1.89-4.145-3.869-8.428-5.527-12.757l-0.552-1.382c-2.259-5.85-5.204-13.357-6.493-21.001-6.448 6.448-11.652 18.008-15.658 26.941-0.78 1.751-1.518 3.452-2.303 5.065l-0.737 1.566c-16.026 34.312-15.153 44.766-14.046 47.667 0.074 0.258 0.184 0.416 0.184 0.416 2.624 1.061 4.422 3.408 4.836 6.218 1.382 10.363 0.036 19.941-1.332 29.199-0.877 6.168-1.751 12.527-1.751 18.745 0.036 10.27 2.21 21.508 4.606 32.7 4.19-5.388 8.705-10.638 12.616-15.105l2.394-2.812c15.474-18.008 39.562-28.876 57.154-36.796 14.507-6.493 31.825-9.856 47.114-12.802l1.751-0.332c-0.646-0.294-1.242-0.509-1.842-0.737-1.657-0.693-3.13-1.289-4.374-1.703z"></path>
    <path fill="#000000" d="M621.679 553.874c1.657-5.297 2.899-9.81 4.006-13.816 4.374-15.751 6.955-25.238 22.89-42.877 6.955-7.646 15.105-21.278 23.718-35.692 14.507-24.179 27.219-45.364 40.667-51.905-1.382-3.040-2.624-6.034-3.822-8.935-3.64-8.705-6.771-16.258-12.343-22.613-10.501-12.113-23.765-18.745-36.567-25.145-8.705-4.374-17.638-8.842-25.791-14.969l-0.693-0.505c0.921 39.516-3.13 84.696-11.284 125.362-7.737 38.686-22.66 90.129-49.647 115.645-0.036 0.036-0.22 0.22-0.258 0.258-1.426 1.242-3.271 1.887-5.159 1.887-2.21 0-4.374-0.921-5.85-2.578-2.21-2.487-2.624-6.125-1.061-8.98 0.294-0.877 0.921-2.812 1.473-4.559 3.501-11.099 5.572-16.949 7.966-20.31 1.794-5.711 3.636-11.284 5.481-16.949 9.81-30.213 19.113-58.721 22.337-93.585 1.794-19.666-2.347-43.061-6.402-65.626-4.099-22.935-7.966-44.673-6.218-63.463-1.566-0.78-3.087-1.473-4.559-2.163-2.578-1.198-5.25-2.535-8.152-4.145-1.242-0.646-2.259-1.657-2.996-2.856-1.105-1.887-2.259-3.685-3.452-5.481-1.842-2.856-4.374-6.448-7.78-9.442-1.332 1.061-3.040 1.614-4.79 1.614-2.303 0-4.513-1.014-5.986-2.762-1.332-1.566-2.624-3.224-3.869-4.836-1.89-2.444-5.388-6.955-6.54-7.369 0 0-0.646 0.148-1.982 1.426-2.21 2.071-4.329 6.493-6.125 10.454-0.412 0.921-1.014 1.751-1.751 2.487-2.531 2.394-5.204 4.697-7.875 7.046-7.414 6.54-14.462 12.711-18.882 20.587-0.332 0.6-0.737 1.149-1.198 1.657-0.461 0.461-1.014 0.873-1.566 1.242-5.895 3.636-11.975 7.093-17.915 10.501-2.531 1.473-5.113 2.947-7.646 4.422-7.414 34.864 1.198 94.92 7.646 119.835 3.961 15.521 7.966 29.429 12.159 42.556 10.224 31.916 21.553 57.063 35.647 79.214 2.21 3.501 1.332 8.152-2.026 10.592-1.332 0.968-2.947 1.473-4.606 1.473-2.394 0-4.606-1.014-6.125-2.856-17.961-22.015-32.468-42.785-44.304-63.556-17.686-30.995-29.476-61.76-36.015-94.044-0.83-4.145-2.075-9.303-3.364-14.737-3.18-13.218-6.955-29.108-8.337-43.244-8.842 7-18.561 14.369-28.785 20.357-7 4.145-14.139 5.25-20.632 5.986 16.258 20.173 29.936 54.342 42.14 84.88 4.928 12.434 9.626 24.133 13.909 33.437 13.034 28.139 17.179 36.292 35.556 55.772l0.416 0.416 0.461 0.505c17.547 18.513 27.357 40.576 31.825 71.523 1.289 8.889 1.149 20.541 0.968 32.884-0.22 15.244-0.552 40.069 4.467 47.344 0.148-0.074 0.258-0.184 0.461-0.332-0.505-39.423 3.731-64.939 9.074-97.223 1.061-6.586 2.21-13.402 3.364-20.632 0.596-3.869 3.869-6.632 7.737-6.632 0.368 0 0.693 0 1.014 0.036 4.283 0.552 7.277 4.329 6.862 8.612-1.887 18.238 0.509 57.247 3.961 87.69 3.545-2.256 7.646-4.145 11.836-4.145 1.289 0 2.578 0.148 3.822 0.332 4.145-27.264 8.705-58.029 5.572-83.729-0.505-4.145 2.303-7.966 6.402-8.705 0.461-0.074 0.968-0.148 1.426-0.148 3.636 0 6.771 2.487 7.646 6.034 8.751 35.74 12.434 61.715 13.541 97.914 5.297-11.145 6.725-26.757 8.105-41.865 1.198-13.218 2.487-26.896 6.264-38.732 3.224-10.040 6.909-19.666 10.501-29.015 3.776-9.901 7.691-20.125 11.054-30.856z"></path>
    <path fill="#000000" d="M633.068 217.024l0.461 0.784c4.19 6.909 10.27 11.929 14.507 11.929 0.737 0 1.382-0.148 2.026-0.461 8.105-3.915 15.198-18.513 12.204-31.502-0.294-1.061-0.784-2.444-1.614-4.099-1.751-3.636-4.513-7.414-7.462-10.27-2.075-1.242-4.329-2.21-6.677-2.812-0.552-0.148-1.061-0.332-1.566-0.552-0.22-0.148-0.461-0.22-0.737-0.332-0.646 0.6-1.289 1.242-1.935 1.89-11.284 10.915-18.745 18.145-9.487 35.001l0.258 0.412z"></path>
    <path fill="#000000" d="M499.909 249.031c2.44-3.224 5.113-7.553 7.921-12.113 2.394-3.822 4.836-7.83 7.462-11.606 0.646-0.968 1.566-1.751 2.578-2.35 5.481-3.13 10.685-5.113 15.797-6.079 2.44-0.416 4.928-0.646 7.598-0.646 5.895 0 11.652 1.105 16.581 2.119 1.798 0.416 3.364 1.382 4.513 2.762 4.054 4.974 7.78 10.547 11.422 15.935 5.343 7.966 10.87 16.165 16.856 21.692 0.22 0.184 0.412 0.368 0.737 0.689 13.771 12.066 27.357 20.771 41.726 29.936 3.776 2.444 7.598 4.881 11.468 7.414 29.567 19.298 59.919 42.508 80.090 93.722 3.224-7.507 5.481-15.658 4.467-24.87-4.697-43.615-9.994-49.417-32.1-73.919-13.357-14.785-20.771-29.66-25.607-41.865-0.074 0.036-0.184 0.074-0.258 0.184-7.23 4.606-15.521 7.139-23.397 7.139-12.573 0-22.935-6.218-29.199-17.452l-1.473-2.578c-0.968-1.704-2.119-3.731-3.364-5.986-11.19-20.448-14.83-33.896-11.745-43.752 1.614-5.065 6.168-9.717 11.19-13.541-15.567-4.238-28.831-6.125-42.187-6.125-14.553 0-30.304 2.303-50.984 7.507-3.961 0.968-8.289 1.473-13.264 1.473-7.507 0-15.198-1.105-23.304-2.256l-5.113-0.693c-1.657-0.22-3.408-0.461-5.204-0.693 0.22 0.552 0.461 1.061 0.689 1.614 7.093 17.824 5.802 36.706-3.822 56.14-7.323 14.83-20.862 24.086-35.37 24.086-8.289 0-15.935-3.083-21.969-8.705-3.18 21.737-6.771 43.522-16.397 56.049-9.856 12.85-22.981 31.456-28.922 51.443 19.159-10.133 46.607-32.377 65.537-47.712 12.573-10.179 21.646-17.547 26.666-20.31 14.414-8.105 28.048-20.403 40.391-36.661z"></path>
    <path fill="#000000" d="M442.458 225.821c2.671 0 4.422-0.83 6.125-2.812 2.578-3.040 5.895-14.921 5.711-22.89-0.148-5.711-1.798-8.244-4.099-11.745-1.473-2.259-3.13-4.836-4.422-8.198-0.461-0.332-0.873-0.646-1.198-1.014-1.978-0.332-4.099-0.737-6.218-1.473-4.006 2.535-7.462 6.125-10.501 10.915-0.6 1.794-0.968 3.408-1.242 5.020-0.184 0.921-0.332 1.935-0.509 2.996-1.794 11.836-1.657 19.343-0.921 22.844 5.020 2.762 11.836 6.354 17.27 6.354z"></path>
    </svg>