<svg xmlns="http://www.w3.org/2000/svg" viewBox="54.571 47.484 972.362 980.097">
    <path fill="#000000" d="M920.208 671.744c-5.756 9.24-12.778 15.405-16.085 26.418-5.393 18.126-7.024 32.987-21.253 47.216-10.514 10.603-22.972 19.031-33.486 29.726-13.005 13.231-23.653 28.638-35.117 43.275-0.678 0.543-1.36 1.13-2.085 1.676-15.996 11.871-35.841 25.283-47.804 43.002-5.482 3.218-10.647 6.525-15.224 10.558-8.791-0.497-18.396 0.409-25.737 3.492-9.516 3.941-13.593 13.457-22.067 17.582-7.25 3.445-16.765-0.409-23.834 0.497-9.652 1.222-17.944 6.525-26.055 10.377-8.337 4.033-19.53 15.271-27.279 17.989-10.015 3.577-21.434-4.802-31.493-4.259-8.292 0.454-12.144 4.802-19.756 7.974-6.251 2.675-13.867 2.899-19.575 5.8-6.071 8.155-25.331 8.429-34.030 7.475-10.015-1.087-20.163-7.024-29.815-9.789-11.601-3.31-22.747-0.59-33.396-3.31-21.116-5.438-20.98-27.822-16.721-44.362 4.259-16.765 12.37-33.26 12.824-50.931 0.543-19.394-4.713-41.416-6.48-61.035-1.13-12.412-6.662-24.514-15.224-32.58-0.146-0.409-0.216-0.817-0.409-1.226-1.857-4.758-4.939-8.248-8.654-10.739-6.071-11.826-16.041-17.128-28.638-10.285-10.104 5.482-20.481 20.342-32.85 19.619-6.751-0.409-8.429 8.928-4.351 12.869 7.024 6.706 7.885 14.41 5.257 23.471-0.543 1.904-0.327 3.534 0.362 4.802-0.362 1.993-0.636 3.941-0.767 5.845-1.087 14.68 2.717 49.209 25.194 40.554 15.497-5.937 18.987-32.307-2.582-28.366-0.146 1.993-0.817 5.8-0.636 7.294-4.17-15.767 7.567-20.573 19.349-13.775 20.525 11.782 16.902 43.409-1.044 55.87-23.789 16.584-57.73-2.223-67.245-24.968-7.068-16.902-3.262-35.752-5.889-53.515-2.49-16.946-9.153-30.769-0.216-47.035 12.052-21.928 30.406-53.334 58.226-59.134 15.090-3.129 36.795 8.836 49.345 16.629 29.453 18.262 35.526 62.577 41.053 93.526 3.715 20.708 2.852 39.83 0.678 60.628-0.859 8.111-4.396 20.255 0.906 27.597 18.714 25.919 60.854 3.671 83.194 0.497-15.224-7.523-39.742-21.796-41.371-39.922-1.31-14.909 3.218-25.874-0.817-41.508-5.438-21.205-5.527-41.823-7.704-63.438-1.769-17.808-5.527-34.074-5.393-52.562 0.073-10.466 3.807-25.194-2.49-35.072-10.059-15.904-35.253-14.41-52.064-15.767-10.965-0.859-23.246-0.678-32.987-6.887-20.525-13.094-16.991-34.799-28.185-52.064-8.654 0.327-13.276 7.654-20.662 8.565-7.523 0.859-16.54-2.944-23.745-5.212-14.048-4.44-33.804-10.422-46.266-18.488-8.429-5.438-11.238-12.688-17.808-19.667-13.050-13.867-7.342-0.817-21.161-3.852-10.739-2.313-25.013-22.658-34.166-41.641-2.223 8.928-7.068 19.848-2.355 26.507 1.493 2.131 9.24 2.22 11.556 4.532 4.939 4.894 9.379 9.379 13.142 16.177 9.198 16.902 9.379 30.133 4.665 48.348-3.76 14.499-6.932 22.928-1.268 36.613 6.751 16.447 27.597 33.26 25.963 53.016-0.409 4.802 7.567 21.885 5.257 25.648-2.309 1.812-9.516 15.271-26.643 19.031-81.519 17.582-84.055-97.105-34.392-60.129-35.978-6.48-13.549 44.861 23.745 41.279 4.351-0.454 17.9-5.937 17.22-17.17-0.636-11.009-6.251-23.608-13.142-29.952-7.837-7.205-16.946-12.961-23.246-21.704-11.782-16.266-9.29-29.227-5.346-47.216 3.31-14.954 6.251-34.846-7.475-42.776 0.146-0.859 0.254-1.765 0.454-2.628-18.714-7.475-56.458-15.090-42.322-46.31 3.671-8.020 12.643-9.109 11.963-18.577-0.454-6.207-7.793-11.327-9.516-17.719-2.266-8.518-2.266-17.808-0.497-26.961 1.676-0.454 3.172-1.676 4.033-3.941 5.393-14.455 18.126-28.547 29.815-38.336 13.911-11.601 23.834-2.899 27.778 9.741-3.897 6.251-6.388 13.231-6.388 20.074-0.035 2.405 6.843 30.359 6.843 30.359 31.856 7.113 45.268 42.051 63.8 64.617 29.453 35.797 66.066 20.029 106.802 21.253 48.892 1.449 18.351 55.915 66.292 62.125 18.351 2.401 36.251-11.009 51.748-9.198 15.497 1.859 20.798 24.832 22.972 36.613 6.569 36.521-3.671 71.822-12.281 106.665-8.699 35.253 20.436 73.723 35.434 105.623 20.3 43.409 70.007 12.688 97.378-6.026 8.791-5.981 26.055-22.294 37.201-23.834 6.887-0.998 13.638 3.037 20.163 4.396-4.665-32.037-54.51-8.337-69.782-5.165-28.272 5.845-52.609-1.904-74.857-21.66-26.462-23.608-4.078-88.359 31.674-95.382 19.122-3.76 11.871 18.215 28.366 19.667 15.859 1.36 29.316-17.22 22.883-31.627-7.837-17.445-29.815-18.033-22.429-42.821 4.665-15.723 12.869-12.869 21.253-13.638-3.807 3.037-5.575 7.793-7.113 14.048-3.989 16.447 4.485 21.024 14.68 31.945 15.361 16.495 15.815 35.117 0.998 52.972-24.196-5.845-55.602 50.525-51.205-6.887-14.092-2.355-25.42 10.377-29.545 23.563-6.979 22.61 16.584 34.122 37.7 37.837 32.625 5.756 51.929-11.146 77.803-25.963 9.606-5.527 23.020-12.052 34.528-10.514-6.163-5.031-14.181-6.662-19.982-12.506-11.464-11.556-12.643-27.46-11.556-42.458 1.222-16.403 5.212-24.514-0.073-40.78-5.438-16.54-13.911-33.396-14.048-51.205-18.85 6.932-30.495-27.052-50.976-26.055-8.155 0.362-13.231 5.393-23.745 3.218-8.429-1.723-21.885-7.386-25.466-15.95-8.518-20.255 16.584-36.521-10.015-52.336-8.518-5.076-35.978-12.462-39.604-0.59-24.695-17.401-23.88 3.262-42.731 18.85-17.852-20.163-44.181-5.619-50.661-39.286-2.174-11.238 1.087-31.538 13.368-37.157 8.155-3.715 13.187 1.179 19.076 3.577-18.033-1.584-22.067 47.76 11.871 47.079 12.37-0.216 12.37-8.61 19.756-14.547 16.584-13.276 35.072-10.514 54.602-3.079 19.53 7.386 32.898 20.118 43.59 37.246 7.974 12.824 8.518 23.514 21.342 29.771 30.721 14.909 93.978 12.37 110.929 46.673 4.758 9.652 1.723 16.765 2.401 26.281 0.682 9.741 4.621 20.21 7.612 29.858 9.109 28.954 13.775 44.905 38.606 55.101-23.065-11.419-28.638-38.199-21.568-64.344 3.079-11.419 8.972-16.177 15.179-25.83 10.695-16.54 3.262-5.076-1.723-21.796-4.621-15.584 1.493-46.898 7.161-61.671-21.386-10.739-19.486-29.952-33.168-45.903-10.377-12.1-26.011-19.575-40.51-23.29-8.565-2.174-29.634-2.582-26.686-18.126-12.233 16.266-48.033 15.584-65.885 12.233-11.009-2.085-27.052-6.932-34.211-15.815-7.793-9.697-5.393-31.22-14.591-39.512-13.142-11.871-28.366-5.8-36.521-27.234-7.885-20.708-4.078-34.616-4.122-55.054-0.035-14.318-5.575-31.401-12.869-43.319-11.146-18.126-15.497-19.486-37.971-16.314-41.552 5.937-79.841 10.647-120.351 24.152-7.749 2.582-16.676 8.384-25.556 8.61-6.662 0.181-12.595-3.262-19.486-3.262-17.128-0.035-30.088 14.499-26.192 31.674 49.663 1.812 83.467 30.858 112.694 65.659 33.578 39.966-23.653 82.425-61.49 83.013-16.902 0.216-28.185-1.946-31.175-19.711-1.676-10.059-0.998-21.161 4.485-26.686-10.196 21.615 19.076 26.055 32.669 23.926 17.536-2.717 46.99-19.893 41.416-42.14-3.125-12.643-27.187-34.211-37.293-42.366-18.126-14.591-36.251-8.155-58.092-8.565-22.61-0.454-54.647-3.671-57.32-31.945-1.993-21.024 14.455-38.743 32.444-44.68 13.956-4.621 27.778-9.335 41.416-15.815 3.626-1.723 7.475-3.172 11.375-4.532 10.24 1.36 18.85 0.543 29.135-3.807 7.974-3.396 13.956-5.889 20.436-7.342 1.723-0.254 3.488-0.59 5.212-0.859 3.715-0.454 7.704-0.636 12.506-0.327 6.751 0.409 13.368 1.087 20.074-0.216 20.98-4.033 37.608-15.405 60.129-16.266 17.582-0.682 35.434-7.113 52.924-8.111 4.351 0.952 8.518 2.447 12.462 4.621 27.187 15.090 23.427 40.917 23.97 67.789 0.543 28.004 12.462 66.521 36.385 83.601 5.301 3.76 10.647 6.299 16.133 7.974 6.388 14.636 22.747 16.133 38.288 12.913 9.153 3.989 19.076 7.068 27.415 5.12 1.31 0.906 2.856 1.812 4.894 2.582 21.434 7.974 44.724-4.033 66.746 4.665 1.493 0.636 3.079 0.636 4.532 0.289 26.281 23.020 31.265 50.795 47.852 80.203 0.146 0.216 0.327 0.454 0.405 0.678 3.626-11.645 8.518-23.563 6.071-35.66-1.449-7.294-4.621-15.678-8.473-22.248-1.993-3.396-7.205-7.793-7.654-11.69-0.636-5.8 6.251-11.419 6.388-17.039 0.073-4.939-2.671-8.746-4.621-13.323-7.567-17.989-15.135-35.253-18.215-54.016-1.812-11.102-5.756-14.229-11.009-23.201-5.076-8.565 2.223-13.187-0.543-20.843-3.492-9.606-27.867-18.532-35.434-11.556-3.941 3.577-4.396 11.508-7.93 15.678-4.939 5.845-11.871 7.93-17.9 12.325-4.485 3.31-10.24 10.422-16.041 12.1-13.685 4.078-38.698-6.434-47.172-15.723-5.756-6.344-15.859-27.549-14.817-36.521 0.906-7.793 3.671-7.93 10.059-13.276 3.807-3.172 4.984-4.621 8.203-8.203 11.871-13.504 33.441-13.368 38.517 0.501 2.223 6.118-3.353 29.907-14.772 27.911-6.388-1.13-11.192-4.577-10.151-10.826-0.952 10.826 14.909 4.303 13.956-4.577-1.36-12.643-19.982-8.384-25.42-1.812-27.142 32.717 59.042 64.617 63.756 18.443 1.222-12.412-1.588-19.937 12.643-21.253 5.889-0.543 11.283 0.952 17.22 1.087 4.532 0.108 10.104-2.81 14.591-1.812 5.708 1.31 14.591 7.974 19.53 11.283 10.876 7.342 12.688 15.904 15.767 28.728 9.061 38.107 19.122 72.318 41.597 105.216 20.392 29.858 35.571 57.819 28.728 94.34-3.715 19.937-7.704 40.373-16.222 58.774-0.497 1.13-1.087 2.22-1.676 3.307-4.532 10.514-10.514 21.978-8.565 32.761 3.534 19.667 14.636 44.724 21.885 62.395 10.695 26.192 22.928 34.891 47.804 20.617 7.885-4.485 21.749-10.826 30.451-18.939-3.31 15.453-7.612 30.359-16.447 44.543zM1022.598 561.19c1.449-8.61-4.078-16.946-9.24-24.514v5.12c-0.586 0-1.179 0.035-1.765 0.073-0.289-4.078-1.315-8.337-0.636-12.281 2.223-13.005 5.212-25.874 7.523-38.832 0.636-3.671 0.497-7.704-0.362-11.283-2.899-11.963-6.118-23.834-9.471-35.66-2.767-9.833-5.527-19.619-8.928-29.272-1.993-5.708-5.031-11.146-7.885-16.54-1.179-2.22-3.218-3.941-4.713-5.981-0.682-0.906-1.087-1.95-1.493-2.991-2.174-6.118 2.763-12.412-0.682-18.577-1.179-2.038-1.769-4.577-2.085-6.932-0.906-6.798-1.449-13.638-2.266-20.436-0.146-1.179-0.454-2.447-1.087-3.353-3.76-5.212-7.704-10.285-11.375-15.542-0.636-0.952-0.254-2.536-0.454-4.303-8.473-7.654-12.325-19.619-21.253-28.272-8.066-7.749-13.142-18.577-19.575-28.004-4.214-6.207-8.654-12.325-12.778-18.624-3.577-5.482-9.423-9.153-10.015-17.128-0.289-4.303-4.939-8.836-8.565-12.233-7.342-6.843-15.316-12.961-23.020-19.394-0.146 1.179-0.289 2.494-0.454 3.852-0.454 0.181-0.952 0.362-1.403 0.586-3.079-4.532-6.071-9.061-9.153-13.549-2.042-2.899-4.17-5.708-6.251-8.565-1.541-2.131-3.125-4.214-4.621-6.388-2.447-3.626-4.802-7.386-7.294-11.009-0.863-1.268-2.085-2.266-2.991-3.445-3.671-4.894-7.113-9.923-11.102-14.547-0.998-1.179-3.492-1.268-5.393-1.493-2.675-0.362-5.575 0.035-8.111-0.678-10.784-3.129-21.615-6.251-32.173-10.104-4.303-1.541-8.518-4.259-11.782-7.431-10.059-9.697-22.61-16.266-32.081-26.961-4.984-5.664-13.050-8.746-20.029-12.412-7.793-4.078-15.859-7.523-23.88-11.146-4.351-1.95-8.746-4.532-13.368-5.165-9.017-1.31-18.215-1.31-27.279-2.174-10.514-1.044-21.386-0.181-31.131-5.527-10.422-5.708-21.796-4.665-32.987-4.848-0.817 0-1.857 0.146-2.355 0.636-5.031 4.713-10.739 2.717-16.266 1.676-0.863-0.181-1.31-2.223-2.266-3.941-2.536-0.327-5.8-1.087-9.109-1.13-6.979-0.146-13.998 0.146-20.98 0.216-7.294 0.146-14.591 0.725-21.841 0.146-6.798-0.543-13.457-2.313-20.21-3.577-0.146 0-0.181-0.362-0.327-0.409-2.717-0.216-5.756-1.36-8.155-0.543-6.299 2.128-12.595 4.621-18.307 7.974-2.991 1.723-7.793 2.628-7.704 7.93 0 0.725-1.222 1.723-2.131 2.223-3.445 1.946-7.024 3.76-10.558 5.619 0.035-0.59 0.035-1.13 0.073-1.676-1.044-0.216-2.131-0.817-3.079-0.59-5.12 1.041-10.151 2.494-15.316 3.396-2.042 0.362-4.396-0.863-6.434-0.543-8.020 1.36-15.996 3.079-23.97 4.621-9.789 1.904-19.619 3.76-29.408 5.664-1.36 0.289-2.763 1.268-4.033 1.087-9.017-1.31-16.676 3.577-25.013 5.301-1.493 0.327-2.628 2.223-3.897 3.396 0.216 0.216 0.497 0.454 0.771 0.682l7.612-2.447c0.181 0.497 0.362 0.998 0.543 1.493-5.301 3.577-10.603 7.161-15.904 10.739-0.216-0.725-0.501-1.493-0.725-2.22-1.904 0.146-4.078-0.327-5.575 0.497-4.577 2.582-8.88 5.664-13.276 8.61-7.161 4.713-13.956 10.015-21.523 13.998-5.438 2.899-12.144 3.218-17.671 5.981-13.005 6.525-25.963 13.323-34.436 25.963-3.129 4.621-6.706 8.928-10.784 14.318-0.952-1.904-1.449-2.899-1.812-3.626-9.833 8.292-13.368 19.848-19.486 29.726-5.575 9.017-11.327 18.215-18.669 25.693-8.972 9.061-19.848 16.222-29.545 24.558-9.606 8.292-11.375 20.392-14.318 31.81-1.179 4.621-2.223 9.29-3.353 13.956-0.543-0.146-1.087-0.216-1.63-0.362 0.146-1.403 0.327-2.763 0.454-4.17-2.309 2.266-3.172 5.076-4.665 7.475-3.218 5.12-6.706 10.059-10.151 14.998-0.863 1.31-2.174 2.313-3.079 3.577-5.393 8.020-10.739 16.041-15.996 24.152-0.906 1.403-1.268 3.262-1.676 4.939-2.131 9.061-3.941 18.215-6.388 27.187-2.309 8.292-5.212 16.358-7.885 24.514l-1.31-0.362c-0.289-0.817-0.543-1.63-0.678-2.085-0.952 5.12-2.355 10.377-2.899 15.723-0.636 6.798-0.362 13.73-0.948 20.573-0.636 6.979 0.767 14.274-3.037 20.98-2.128 3.715-3.989 7.93-4.665 12.144-3.079 18.351-5.393 36.702-14.998 53.379-6.887 11.963-7.431 25.601-5.031 38.787 3.897 21.615 7.704 43.319 16.222 63.756 0.501 1.179 1.859 2.038 2.628 3.125 2.852 4.351 5.619 8.791 8.429 13.142-0.327 0.216-0.636 0.454-0.952 0.678-1.044-0.454-2.085-0.906-3.079-1.403 4.713 6.299 5.575 14.048 3.353 19.893-2.447 6.569-2.223 11.601 0.636 17.309 0.254-0.543 0.586-1.044 1.541-2.767 0.454 4.984 0.817 8.791 1.13 12.551 0.362 4.033 0.454 8.111 1.13 12.1 3.897 22.429 12.869 43.227 20.708 64.48s22.067 38.787 33.396 58c5.981 10.104 14.181 19.349 24.152 26.643 11.192 8.248 22.521 16.133 30.359 28.502 5.482 8.746 14.092 15.634 21.749 22.839 12.189 11.464 24.558 22.747 37.293 33.578 19.801 16.857 39.105 34.665 66.066 39.512 1.812 0.327 3.715 0.035 5.527 0.362 6.344 1.087 13.050 1.36 18.895 3.807 5.937 2.447 10.876 7.161 16.403 10.784 0.906 0.586 2.223 0.497 3.396 0.678 1.769 0.327 3.989 0.035 5.301 0.998 10.647 7.612 21.749 14.048 34.616 17.49 9.153 2.447 17.989 5.937 26.917 9.153 2.948 1.041 5.708 3.671 8.565 3.76 11.057 0.254 20.843 5.212 31.357 7.342 15.453 3.172 30.813 7.386 45.903-1.63 1.63-0.998 4.303-0.454 6.48-0.216 2.174 0.181 4.396 1.493 6.434 1.268 20.3-2.494 40.599-5.257 60.902-7.837 10.196-1.31 20.481-2.447 30.676-3.715 8.111-1.041 16.222-1.904 24.244-3.307 10.104-1.812 20.074-4.17 30.088-6.251 0.501-0.108 1.087 0.035 1.584-0.035 4.713-0.725 10.015-0.409 13.998-2.536 12.052-6.299 23.653-13.504 35.39-20.436 3.577-2.085 6.617-6.163 11.556-2.49 0.501 0.362 1.95-0.454 2.856-0.906 12.189-6.251 25.331-9.335 38.698-11.419 9.423-1.449 13.504-8.836 18.895-14.909 0.543-0.59 0.216-1.95 0.362-3.715-1.904 1.676-3.262 2.852-4.621 4.033-0.405-0.216-0.771-0.497-1.179-0.725 1.403-2.401 2.355-5.393 4.351-7.068 8.337-6.979 16.495-14.137 24.695-21.116 12.144-10.377 21.523-23.88 36.159-31.582 5.575-2.948 9.833-8.384 14.772-12.595 0.998-0.859 2.355-1.268 3.626-1.765 11.192-4.259 21.885-9.061 27.187-21.072 4.577-10.285 9.153-20.573 14.455-30.495 2.586-4.802 6.434-9.198 10.422-13.005 16.041-15.224 33.124-29.453 43.364-49.844 3.534-7.024 8.337-13.412 12.462-20.21 1.268-2.085 2.355-4.303 3.218-6.569 3.577-9.741 7.523-19.394 10.466-29.272 2.763-9.198 4.665-18.714 6.662-28.14 1.493-6.979 2.131-14.181 3.941-21.116 2.447-9.29 7.205-18.307 8.111-27.686 0.863-9.652 2.899-18.806 5.076-28.093 0.906-3.807 2.991-7.885 2.266-11.375-1.584-7.654-5.12-14.364-3.626-23.154z"></path>
    </svg>