<svg xmlns="http://www.w3.org/2000/svg" viewBox="46.579 31.499 988.273 996.149">
    <path fill="#000000" d="M866.578 457.902c-13.816 30.581-65.999 43.429-91.004 53.286-26.527 10.454-57.108 30.074-85.154 31.959-13.448 0.873-24.179-4.467-36.292-6.218 10.178 36.935 44.397 50.108 60.378 88.517 10.224 24.64 10.27 67.885 29.521 86.905 15.612 15.428 40.528 4.744 55.267 16.487 16.949 13.493 26.436 49.924 34.632 71.615-40.712 17.040-44.351-21.323-63.694-42.371-25.561-27.816-63.924-20.816-82.346-57.845-11.561-23.349-15.521-55.726-25.836-81.241-7.782-19.159-13.309-37.213-21.876-53.423-18.929 1.887-49.647-9.717-64.754-7.737-42.692 5.572-77.511 15.060-119.327 17.961-4.054 8.658-9.073 16.994-12.804 26.389-13.771 34.219-8.337 60.655-14.921 94.78-6.264 32.238-26.343 56.327-49.879 71.063-24.64 15.474-70.879 1.703-67.978 45.686-8.154 0.552-19.066 2.903-31.179 5.527-12.481-3.592-25.329-5.25-38.686-5.204-4.697-4.697-9.349-9.533-13.862-14.646-0.184-1.149-0.22-2.259-0.368-3.408 25.238 2.075 45.456-4.559 70.233-28.048 11.329-10.776 19.252-30.811 31.088-41.173 15.705-13.678 39.1-16.214 53.332-31.777 25.7-28.094 10.317-61.163 23.533-92.8 1.614-3.869 3.636-7.414 5.941-10.685-23.258-33.068-41.128-49.049-79.077-52.088-25.791-2.071-40.989 3.040-63.372-14.093-31.64-24.179-80.689-66.318-66.918-102.38-1.105-0.036-2.166-0.036-3.224-0.036l5.204-4.374c3.822-7.093 10.224-13.955 19.989-20.309 57.799-37.72 132.361 2.719 193.016 6.034 32.561 1.751 63.786-10.592 94.137-9.671 33.989 1.061 55.726 13.632 89.804 9.442 44.12-5.481 89.485-7.968 132.361 4.881 49.003 14.646 100.307 14.093 151.566 19.343 0.78 14.139-5.802 23.626-17.454 29.66zM657.352 808.294c-0.184 4.283 1.657 10.592-0.332 14.462-50.247-15.567-101.873-142.31-80.135-205.45 5.618 0.148 7.782-3.224 12.527-4.744 4.099 20.309 20.264 64.154 31.64 103.347 5.297 18.238 8.521 37.765 16.949 53.7 8.842 16.856 22.521 21.278 25.514 44.855-2.903 1.887-4.374-4.79-6.17-6.17zM388.337 836.389c29.337-35.369 49.879-46.423 68.162-89.485 16.626-39.147 63.694-95.471 62.174-138.486 15.198 2.762 14.046 5.343 20.173 4.881-29.66 85.8-26.298 218.945-150.506 223.090zM328.924 240.578c18.284-13.034 25.468-34.357 41.312-50.431 20.264-20.541 38.225-25.377 66.318-35.369 43.751-15.521 80.457-27.91 130.242-21.692 25.791 3.224 23.212 1.289 41.771 11.881 16.949 9.671 21.646 24.777 42.555 29.66 28.323 6.632 46.332-5.802 71.57 15.198 22.014 18.284 55.358 75.76 51.811 104.038-11.697-12.804-30.165-18.745-48.173-16.717-1.289-38.916-74.61-60.791-103.945-73.78-43.615-19.343-96.392-32.331-144.843-22.89-41.403 8.060-67.93 25.561-97.313 51.443-19.159 16.901-48.587 61.805-75.392 61.851-10.638-37.351 32.745-38.225 24.088-53.193zM1030.478 553.566c1.473-8.705-4.145-17.224-9.442-24.87v5.159c-0.6 0.036-1.198 0.074-1.798 0.148-0.22-4.19-1.289-8.473-0.596-12.527 2.21-13.173 5.297-26.252 7.646-39.468 0.646-3.685 0.509-7.782-0.412-11.468-2.903-12.159-6.218-24.224-9.58-36.244-2.808-9.949-5.665-19.941-9.073-29.706-2.075-5.85-5.113-11.378-8.014-16.856-1.198-2.256-3.271-4.006-4.836-6.079-0.646-0.877-1.105-1.982-1.473-3.040-2.21-6.17 2.812-12.618-0.689-18.836-1.198-2.119-1.798-4.652-2.119-7.093-0.921-6.862-1.521-13.816-2.303-20.771-0.148-1.149-0.461-2.44-1.149-3.361-3.776-5.343-7.782-10.454-11.513-15.842-0.646-0.921-0.294-2.535-0.461-4.374-8.612-7.737-12.527-19.941-21.6-28.692-8.198-7.921-13.357-18.882-19.895-28.508-4.329-6.309-8.796-12.481-12.99-18.882-3.636-5.572-9.58-9.303-10.178-17.408-0.332-4.374-5.020-8.98-8.751-12.481-7.414-6.909-15.521-13.125-23.349-19.666-0.148 1.198-0.332 2.531-0.461 3.869-0.509 0.22-0.968 0.416-1.473 0.6-3.087-4.559-6.125-9.165-9.303-13.725-2.026-2.947-4.238-5.802-6.356-8.751-1.566-2.119-3.18-4.238-4.652-6.448-2.531-3.731-4.881-7.553-7.414-11.238-0.877-1.245-2.119-2.259-3.040-3.501-3.731-4.93-7.277-10.085-11.283-14.784-1.014-1.198-3.592-1.245-5.481-1.52-2.715-0.368-5.665 0.074-8.244-0.646-11.006-3.224-21.969-6.402-32.745-10.27-4.329-1.566-8.612-4.329-11.929-7.553-10.224-9.856-23.028-16.533-32.607-27.403-5.065-5.757-13.264-8.935-20.357-12.618-7.921-4.145-16.119-7.691-24.274-11.329-4.467-1.978-8.889-4.606-13.586-5.297-9.165-1.337-18.513-1.337-27.771-2.21-10.638-1.014-21.737-0.184-31.593-5.572-10.592-5.85-22.153-4.744-33.527-4.93-0.83 0-1.892 0.148-2.394 0.646-5.113 4.79-10.961 2.719-16.533 1.706-0.873-0.184-1.382-2.303-2.303-4.006-2.578-0.368-5.941-1.149-9.258-1.198-7.093-0.074-14.23 0.184-21.323 0.258-7.414 0.074-14.83 0.737-22.198 0.148-6.909-0.552-13.678-2.347-20.541-3.636-0.148 0-0.184-0.412-0.332-0.412-2.762-0.258-5.85-1.382-8.289-0.6-6.402 2.21-12.804 4.744-18.606 8.105-3.040 1.798-7.968 2.719-7.83 8.105 0 0.737-1.242 1.751-2.166 2.256-3.545 1.982-7.139 3.776-10.731 5.665 0-0.552 0.036-1.105 0.074-1.657-1.061-0.22-2.166-0.83-3.132-0.646-5.204 1.105-10.317 2.578-15.567 3.452-2.119 0.368-4.467-0.873-6.542-0.505-8.154 1.382-16.258 3.087-24.363 4.652-9.994 1.935-19.941 3.822-29.89 5.802-1.382 0.258-2.812 1.242-4.099 1.061-9.165-1.289-16.949 3.685-25.422 5.434-1.52 0.332-2.671 2.256-4.006 3.452 0.258 0.22 0.552 0.461 0.83 0.689l7.737-2.487c0.184 0.509 0.368 0.964 0.552 1.473-5.388 3.636-10.776 7.323-16.165 10.961-0.258-0.784-0.505-1.52-0.737-2.259-1.935 0.11-4.19-0.332-5.665 0.509-4.652 2.624-9.026 5.757-13.493 8.705-7.277 4.836-14.23 10.224-21.876 14.278-5.527 2.903-12.343 3.271-17.961 6.079-13.218 6.632-26.389 13.493-35.048 26.389-3.132 4.652-6.77 9.026-10.915 14.553-0.968-1.935-1.473-2.947-1.842-3.685-9.994 8.428-13.586 20.125-19.804 30.213-5.665 9.119-11.513 18.513-19.020 26.113-9.073 9.21-20.125 16.442-29.981 24.961-9.766 8.428-11.561 20.678-14.553 32.331-1.198 4.697-2.259 9.442-3.408 14.184-0.552-0.148-1.105-0.258-1.706-0.368 0.184-1.43 0.332-2.856 0.509-4.238-2.347 2.303-3.224 5.159-4.79 7.598-3.224 5.204-6.77 10.224-10.27 15.244-0.921 1.334-2.259 2.303-3.132 3.636-5.481 8.154-10.961 16.303-16.258 24.547-0.921 1.43-1.289 3.271-1.706 5.020-2.166 9.21-4.006 18.513-6.542 27.632-2.303 8.382-5.297 16.626-7.968 24.915l-1.337-0.368c-0.258-0.83-0.552-1.703-0.689-2.166-1.014 5.25-2.394 10.592-2.947 16.028-0.646 6.909-0.368 13.909-0.968 20.864-0.646 7.139 0.784 14.507-3.083 21.323-2.166 3.822-4.054 8.105-4.79 12.388-3.087 18.652-5.481 37.304-15.198 54.207-7 12.204-7.553 26.020-5.113 39.468 3.96 21.969 7.83 44.029 16.487 64.799 0.509 1.198 1.892 2.026 2.671 3.176 2.899 4.422 5.711 8.889 8.567 13.357l-0.968 0.693c-1.061-0.461-2.119-0.968-3.18-1.43 4.836 6.356 5.711 14.23 3.452 20.173-2.487 6.677-2.259 11.836 0.646 17.592 0.258-0.509 0.552-1.061 1.566-2.812 0.461 5.113 0.83 8.935 1.149 12.804 0.368 4.099 0.461 8.244 1.149 12.25 3.96 22.844 13.079 43.983 21 65.536 8.014 21.646 22.476 39.468 33.989 58.95 6.079 10.317 14.416 19.666 24.547 27.126 11.378 8.337 22.89 16.349 30.856 28.969 5.572 8.842 14.323 15.889 22.105 23.212 12.388 11.606 24.915 23.119 37.904 34.127 20.080 17.086 39.745 35.183 67.148 40.159 1.842 0.332 3.776 0.036 5.618 0.368 6.448 1.105 13.264 1.382 19.159 3.822 6.034 2.531 11.099 7.323 16.717 11.006 0.873 0.6 2.259 0.509 3.452 0.693 1.794 0.332 4.054 0 5.388 0.968 10.822 7.782 22.105 14.278 35.183 17.777 9.258 2.487 18.284 6.034 27.357 9.303 2.992 1.105 5.802 3.776 8.705 3.822 11.238 0.258 21.185 5.297 31.87 7.507 15.705 3.224 31.318 7.507 46.653-1.703 1.657-0.968 4.374-0.412 6.586-0.22 2.21 0.22 4.422 1.566 6.542 1.289 20.632-2.535 41.264-5.297 61.898-7.921 10.363-1.334 20.771-2.487 31.179-3.822 8.244-1.014 16.487-1.887 24.64-3.361 10.224-1.842 20.402-4.19 30.581-6.309 0.505-0.148 1.061 0.036 1.61-0.036 4.79-0.784 10.133-0.461 14.23-2.578 12.25-6.402 23.995-13.725 35.924-20.771 3.685-2.119 6.77-6.309 11.79-2.535 0.461 0.332 1.982-0.461 2.899-0.921 12.388-6.356 25.745-9.487 39.284-11.606 9.626-1.52 13.771-8.98 19.252-15.198 0.552-0.6 0.22-1.935 0.368-3.731-1.935 1.657-3.318 2.903-4.697 4.099l-1.198-0.784c1.43-2.394 2.347-5.434 4.422-7.184 8.428-7.046 16.765-14.323 25.1-21.462 12.343-10.547 21.876-24.274 36.706-32.1 5.665-2.992 9.994-8.521 15.060-12.757 0.968-0.873 2.394-1.334 3.636-1.794 11.422-4.329 22.29-9.21 27.68-21.416 4.606-10.501 9.303-20.955 14.691-30.995 2.624-4.881 6.493-9.349 10.547-13.218 16.349-15.474 33.712-29.935 44.12-50.661 3.592-7.184 8.473-13.678 12.666-20.541 1.289-2.119 2.394-4.374 3.224-6.725 3.685-9.856 7.646-19.666 10.685-29.751 2.808-9.349 4.744-18.975 6.77-28.553 1.521-7.139 2.166-14.462 4.006-21.462 2.487-9.487 7.323-18.606 8.198-28.185 0.921-9.766 2.996-19.113 5.204-28.508 0.921-3.869 3.040-8.060 2.303-11.606-1.657-7.782-5.204-14.553-3.685-23.533z"></path>
    <path fill="#000000" d="M395.029 432.25c-54.391 2.947-108.367-5.388-162.849-8.337 36.795 17.040 85.063 58.306 106.248 72.029 23.581 15.244 74.010 44.029 87.55 78.895 13.218-11.697 28.278-22.105 36.706-38.779 0.877 5.065 1.105 9.717 0.784 14.093 34.312-21.416 69.865-22.014 99.57-20.218 3.452 0.184 30.074 1.566 54.114 5.618-1.794-1.614-3.685-3.224-5.711-4.744 14.184 1.566 29.014-1.842 39.791-13.309 0.148 4.283 0.646 8.244 1.289 12.020 28.139-15.705 54.898-39.652 80.919-48.035 17.363-5.572 32.975-11.606 48.403-16.856-75.299-7.598-168.422-34.771-191.588-37.029-67.611-6.586-127.434 1.014-195.226 4.652z"></path>
    </svg>