<svg xmlns="http://www.w3.org/2000/svg" viewBox="46.594 31.465 988.299 996.175">
    <path fill="#000000" d="M746.858 564.416c-7-3.271-14.6-5.204-21.601-8.521-9.901-4.742-18.422-12.25-24.318-21.508-1.61-2.444-3.087-5.113-5.666-6.54-3.731-2.071-8.382-0.737-12.573-1.382-10.638-1.566-16.258-14.921-26.805-17.040-3.501-0.693-7.139-0.036-10.731-0.036-12.434 0.036-23.488-7.737-32.516-16.258-3.364-3.18-8.244-4.559-10.961-8.289-30.72-42.188-17.593-26.068-14.278 34.173 0.509 9.119-0.693 18.238-1.014 27.403-0.148 3.545 1.198 17.133-0.036 22.844 7.462-17.915 11.745-19.989 22.153-30.95 6.493-6.771 32.1-5.113 40.896-1.61 11.19 4.422 13.309 5.25 22.751 12.616 9.487 7.369 17.040 18.145 17.731 30.165 0.646 11.145-4.606 22.244-2.903 33.298-11.19-31.225-21.369-41.174-38.18-41.174-14.046 0-30.95 12.113-29.060 27.91 0.784 6.125 2.35 14.046 4.928 19.666 7.691 16.581 28.278 22.288 46.516 23.949 26.114 2.35 52.548 0.22 78.11-5.711 2.903-0.693 5.986-1.518 8.060-3.685 2.21-2.394 2.719-5.895 4.283-8.751 1.426-2.671 3.731-4.79 5.618-7.184 0.784-0.968 1.473-2.071 2.071-3.18 4.697-8.337 4.697-19.114 0.737-27.955-4.422-10.040-13.264-17.638-23.213-22.244z"></path>
    <path fill="#000000" d="M604.823 336.166c-1.014 0.83-1.935 1.842-2.628 3.040-4.19 7.507-14.646 21.508-16.949 33.528-0.921 5.020-0.461 9.672 2.487 13.402 8.658 11.054 14.646 1.794 19.527-6.677 5.802-9.949 9.949-14 21.417-17.502 6.771-2.026 14.278-5.388 16.165-12.204 2.671-9.901-7.646-16.349-8.796-25.561-0.332-2.762-0.416-5.757-1.978-6.909-3.408-2.578-9.487-5.527-12.711-8.198-8.152-6.725-15.383-19.62-24.179-29.89-1.566 1.058-3.087 1.887-4.559 2.762-1.89-0.184-3.731 0.184-5.527 0.83-9.442-3.316-20.173-1.426-29.522 2.903-1.382-1.105-3.040-1.887-4.881-2.21-11.882-1.935-23.581-2.487-35.647-2.487-1.842 0-3.452 0.332-4.928 0.877-2.578-1.426-5.666-2.166-8.658-1.798-1.518-1.382-3.087-2.715-4.652-3.636-0.368 0.509-0.83 1.014-1.198 1.518-11.975 16.765-26.528 31.225-41.219 46.378-0.509 0.368-1.014 0.784-1.473 1.242-3.915 4.283-5.066 12.389 0 16.488 14.969 12.113 24.732 26.528 41.772 36.154 4.559 2.578 7.921 6.171 10.363 10.731 4.559-8.521 0.184-20.862-3.316-29.245-3.961-9.442-9.856-18.514-19.757-22.337-0.148-0.184-0.22-0.368-0.416-0.505-1.105-1.105-2.21-2.166-3.316-3.224-0.6-6.034 8.289-12.941 16.856-19.159 1.703 0.83 3.731 1.332 6.034 1.289 1.704 0 3.364 0.036 5.020 0.074 2.856 1.149 5.986 1.473 8.889 0.461 24.777 1.842 48.82 7.184 73.183-1.332 4.79 7.093 9.026 14.6 14.6 21.185z"></path>
    <path fill="#000000" d="M831.69 609.182c-10.501 11.697-19.757 24.134-30.074 36.477-10.686 12.802-23.258 13.771-38.78 18.698-12.204 3.915-19.62 10.87-32.93 12.159-14.462 1.426-28.094 0.737-42.601 3.316-14.6 2.628-29.292 2.119-42.97-3.452-7.093-2.856-15.428-8.521-22.522-10.224-10.363-2.487-9.303-0.968-17.040-6.677-7.83-5.85-11.376-9.303-14.094-15.199-0.552 42.463-0.552 55.588 1.014 59.228 7.046 16.304 11.561 32.791 18.238 49.418 7.093 17.777 16.581 36.015 32.468 48.313 8.428 6.54 18.284 15.153 27.035 20.541 8.198 5.020 17.731 7.78 26.114 13.173 8.474 5.434 23.397 8.658 26.942 17.686 3.087 7.83-0.036 16.442-8.105 17.409-12.85 1.61-48.404-14.553-60.333-3.501-8.658-5.85-10.592-18.145-16.119-26.252-8.382-12.343-14.692-20.771-26.805-30.443-11.099-8.796-19.25-12.757-25.33-25.93-0.416-0.877-0.877-1.61-1.703-2.163 4.928 3.271-5.159 26.205-5.527 30.581-0.968 10.961 0.461 22.153 4.19 32.562 2.812 7.78 13.173 16.212 11.19 23.949-27.403-6.354-55.129-7.553-82.67-2.903 4.145-3.087 6.171-7.83 6.171-12.757 0-5.802-2.394-11.329-4.559-16.717-5.527-13.955 2.992-20.034 0.873-33.389-1.014-6.493-6.079-23.258-16.626-18.145-0.148 0.036-0.258 0.22-0.368 0.368-3.364 6.909-3.869 12.297-5.388 19.343-1.798 8.289-1.703 8.244-9.487 14.139-13.218 10.085-25.33 16.717-36.982 28.094-8.152 8.014-6.264 13.862-2.671 23.811-3.316-2.762-13.816-4.422-18.193-3.636-4.374 0.737-8.289 4.329-13.357 5.066-4.79 0.646-9.672-0.737-14.278-0.877-3.776-0.074-18.882 3.271-21.094 1.935-3.271-1.935-6.632-14.462-7.876-18.422 24.732 0.6 37.397-22.244 55.22-34.035 24.134-15.981 45.318-33.068 55.727-61.622 8.382-22.89 16.074-30.765 29.015-52.916 2.256-3.776 3.224-29.108 3.545-64.432-1.518 1.935-3.040 3.961-4.559 6.079-4.606 6.54-5.297 8.567-11.882 10.408-3.592 1.061-8.935-0.416-12.573 0.737-8.612 2.812-15.199 10.731-23.718 14.646-40.253 18.514-98.881 17.317-138.029-3.316-13.080-6.862-28.692-10.408-41.956-18.009-12.573-7.184-18.652-21.324-27.68-32.377-8.289-10.133-13.862-23.165-14.876-35.876-0.074-1.198-0.22-2.303-0.332-3.452 0.368-0.368 0.737-0.78 1.014-1.242 5.85-8.198 8.428-18.422 8.658-28.369 0-0.461-0.074-0.877-0.148-1.289 1.473-0.184 2.899-0.552 4.19-1.332 6.54-3.869 13.218-7.369 19.712-11.238 0.22-0.148 0.412-0.332 0.646-0.461 4.054 4.374 10.777 5.895 15.797 0.036 1.657-1.982 3.364-3.592 5.066-5.113 7.139-1.566 13.862-4.054 18.836-8.751 3.961-0.693 8.198-1.014 12.895-1.014 4.329-0.036 7.369-2.075 9.21-4.836 3.18 2.444 7.553 3.224 12.113 0.416 13.448-8.244 25.33-15.751 41.681-12.895 6.862 1.198 11.836-3.087 13.725-8.244 2.259-0.332 4.374-1.382 6.034-3.18 1.242-1.382 2.394-2.947 3.452-4.467 0.332-0.461 0.646-0.921 0.921-1.382 3.685-4.283 4.422-11.004 0.552-15.428 2.903-9.165-4.329-22.015-7.093-29.060-4.928-12.527-1.105-17.409 5.25-26.942 0.646-0.036 1.332-0.148 1.978-0.184 0.784 0 1.566 0.036 2.303 0.036 0.148 0 0.184 0 0.258 0 5.711-6.771 17.87-12.389 22.567 15.705 0.368 2.026-1.887 20.541 0.148 20.771 2.578 0.22 4.974 1.61 7.507 2.075 22.797 4.145 26.159-35.094 16.165-47.576-9.487-11.882-22.337-28.692-38.825-29.060-0.921-0.036-1.842 0.074-2.762 0.332-0.921-0.184-1.842-0.368-2.856-0.332-5.941 0.036-12.020 1.149-17.133 4.374-0.148 0.148-0.332 0.258-0.509 0.412-0.368-0.036-0.693-0.148-1.105-0.148-6.218 0-9.81 4.006-10.87 8.705-0.22 0.074-0.416 0.148-0.646 0.22-12.988 5.941-36.429 28.001-22.153 41.219 5.986 5.572 16.442 3.869 23.12 11.652 8.244 9.672 3.915 14.692-6.955 19.064-8.935 3.545-15.797 0.509-24.732 2.026-8.198 1.426-18.561 7.323-26.298 10.408-7.737 3.087-14.369 8.889-22.244 11.791-11.882 4.329-23.995 4.513-35.278 11.145-5.481 3.224-9.21 9.392-14.414 12.802-0.461-7.921 8.935-20.725 12.757-27.91 3.776-7.093 8.105-13.448 14.185-18.009 3.452-2.578 6.402-2.026 10.179-6.125 2.624-2.903 5.066-8.796 7.462-12.343 6.909-10.040 16.397-16.672 23.074-26.298 16.304-23.627 42.049-39.378 63.648-57.938 9.533-8.198 22.337-12.113 31.641-19.941 6.309-5.343 9.074-14.323 14.414-20.632 16.488-19.436 36.706-34.358 50.936-56.095 6.402-9.764 12.482-19.805 18.698-29.66 12.434-18.652 19.989-37.904 28.462-58.721 3.869-9.533 4.329-18.377 7.323-27.955 2.119-6.816 10.224-16.119 8.796-23.533 3.501 18.054 7.598 39.332 13.587 56.418 3.501 9.901 11.099 19.805 16.212 28.969 16.949 30.165 33.389 66.367 60.885 88.702 17.179 13.909 31.502 30.765 47.667 45.825 24.409 12.297 42.188 29.383 58.675 50.707 13.125 17.040 30.488 29.429 44.627 45.411 10.085 11.468 13.725 24.179 21.969 36.383 7.369 10.961 20.771 18.377 25.193 31.041-6.402-4.974-11.882-5.666-19.989-9.533-8.105-3.915-18.652 1.149-20.31-10.27-5.895 0.693-8.658-4.283-14.83-4.974-10.27-16.581-42.003-21.417-59.503-28.048-11.284-4.283-27.173-8.842-11.929-20.080 12.389-9.119 26.114-6.309 19.896-24.547-2.947-8.796-9.949-14.876-18.652-18.054-0.509-1.332-1.337-2.624-2.487-3.731-0.737-0.693-1.473-1.242-2.21-1.842-7.966-7.876-18.882-10.133-29.89-8.658-3.316-1.61-7.23-1.426-11.099 0.22-3.13 1.382-5.618 3.408-7.737 5.802-9.487 4.79-15.428 12.343-22.015 20.494-6.632 8.152-7.414 14.323-2.259 23.811 4.697 8.612 10.87 20.725 20.541 24.732 7.414 3.040 15.935 6.725 18.514-2.256 1.149-4.054-9.764-19.064-8.658-23.12 6.54-24.409 20.632-22.522 33.205-6.354 1.198 1.657 1.842 3.869 1.566 7-0.416 4.422-6.448 8.612-8.198 12.389-4.836 10.592-5.481 23.995 4.238 31.732 2.762 2.21 6.677 4.006 10.961 5.527 0.461 1.794 1.473 3.452 2.996 4.928 1.014 3.915 3.731 7.462 7.921 8.521 12.85 3.224 23.165 11.145 36.845 11.652 0.737 0.036 1.382-0.036 2.026-0.148 0.646 1.289 1.426 2.535 2.444 3.776 2.303 2.812 6.264 3.776 9.994 3.18 1.242 2.347 2.44 4.742 3.636 7.139 2.762 5.434 10.87 7.414 15.935 4.145 0.877-0.552 1.61-1.198 2.256-1.887 0.552 0.074 1.105 0.258 1.657 0.416 1.426 2.578 3.685 4.652 6.816 5.481 1.149 0.332 2.487 0.6 3.545 1.105 0.646 0.368 1.426 0.83 1.61 0.921 2.119 1.149 4.145 2.487 6.125 3.822 2.075 1.382 4.652 1.798 7.184 1.473 8.842 6.493 16.902 14.323 25.238 21.876-0.036 6.079 0.22 12.066 2.487 17.317 7.737 18.054 1.149 21.324-11.745 35.647zM1030.471 553.599c1.473-8.751-4.145-17.224-9.392-24.916v5.204c-0.6 0-1.198 0.036-1.798 0.074-0.258-4.19-1.332-8.474-0.646-12.482 2.256-13.218 5.297-26.298 7.646-39.469 0.646-3.731 0.509-7.83-0.368-11.513-2.947-12.113-6.218-24.179-9.626-36.199-2.808-9.994-5.666-19.989-9.074-29.752-2.026-5.802-5.113-11.329-8.014-16.856-1.198-2.21-3.271-3.961-4.79-6.034-0.689-0.921-1.105-1.982-1.518-3.087-2.21-6.171 2.812-12.573-0.689-18.836-1.149-2.071-1.798-4.652-2.119-7.046-0.921-6.909-1.473-13.862-2.303-20.771-0.148-1.198-0.461-2.487-1.105-3.408-3.822-5.297-7.83-10.454-11.513-15.797-0.693-0.968-0.332-2.578-0.509-4.374-8.612-7.78-12.527-19.941-21.601-28.736-8.152-7.876-13.357-18.882-19.896-28.462-4.283-6.309-8.796-12.527-12.988-18.929-3.636-5.572-9.578-9.303-10.179-17.409-0.258-4.374-5.020-8.981-8.705-12.434-7.462-6.955-15.567-13.173-23.397-19.712-0.148 1.198-0.258 2.531-0.461 3.915-0.461 0.184-0.968 0.368-1.426 0.6-3.13-4.606-6.171-9.21-9.303-13.771-2.075-2.947-4.238-5.802-6.354-8.705-1.566-2.163-3.18-4.283-4.697-6.493-2.487-3.731-4.881-7.507-7.414-11.19-0.877-1.289-2.119-2.303-3.040-3.501-3.731-4.974-7.23-10.085-11.284-14.785-1.014-1.198-3.545-1.289-5.434-1.518-2.762-0.368-5.711 0.036-8.289-0.693-10.961-3.224-21.969-6.354-32.7-10.27-4.374-1.566-8.658-4.329-11.975-7.553-10.224-9.856-23.029-16.533-32.607-27.403-5.066-5.757-13.264-8.889-20.357-12.616-7.921-4.145-16.119-7.691-24.272-11.329-4.467-1.978-8.889-4.606-13.541-5.25-9.21-1.332-18.561-1.332-27.771-2.21-10.686-1.014-21.737-0.184-31.641-5.618-10.592-5.85-22.153-4.742-33.528-4.928-0.83 0-1.89 0.148-2.394 0.646-5.113 4.79-10.915 2.762-16.533 1.703-0.877-0.148-1.332-2.256-2.303-4.006-2.578-0.332-5.895-1.105-9.258-1.149-7.093-0.148-14.228 0.148-21.324 0.22-7.414 0.148-14.83 0.737-22.153 0.148-6.909-0.552-13.725-2.347-20.587-3.636-0.148 0-0.184-0.368-0.258-0.416-2.812-0.22-5.895-1.382-8.337-0.552-6.402 2.166-12.802 4.697-18.607 8.105-3.040 1.751-7.921 2.715-7.83 8.060 0 0.737-1.242 1.751-2.163 2.256-3.501 1.978-7.139 3.822-10.731 5.711 0.036-0.6 0.036-1.149 0.074-1.704-1.061-0.22-2.166-0.83-3.087-0.646-5.25 1.105-10.363 2.578-15.612 3.501-2.075 0.332-4.422-0.877-6.54-0.552-8.152 1.382-16.258 3.13-24.363 4.697-9.949 1.935-19.941 3.822-29.89 5.757-1.382 0.258-2.808 1.289-4.099 1.105-9.165-1.332-16.949 3.636-25.423 5.388-1.473 0.332-2.671 2.256-3.961 3.452 0.22 0.22 0.509 0.461 0.784 0.689 2.578-0.83 5.159-1.657 7.737-2.487 0.184 0.509 0.368 1.014 0.552 1.521-5.388 3.636-10.777 7.277-16.165 10.915-0.22-0.737-0.509-1.518-0.737-2.259-1.935 0.148-4.145-0.332-5.666 0.509-4.652 2.628-9.026 5.757-13.494 8.705-7.277 4.836-14.185 10.224-21.876 14.278-5.527 2.899-12.343 3.268-17.961 6.079-13.218 6.632-26.389 13.494-35.001 26.389-3.18 4.697-6.816 9.074-10.961 14.553-0.968-1.935-1.473-2.947-1.798-3.685-9.994 8.428-13.632 20.173-19.85 30.213-5.666 9.165-11.513 18.514-18.975 26.114-9.119 9.21-20.173 16.442-30.029 24.961-9.764 8.428-11.561 20.725-14.553 32.332-1.198 4.697-2.259 9.442-3.408 14.185-0.552-0.148-1.105-0.22-1.657-0.368 0.148-1.426 0.332-2.812 0.461-4.238-2.35 2.303-3.224 5.159-4.742 7.598-3.271 5.204-6.816 10.224-10.317 15.244-0.877 1.332-2.21 2.347-3.13 3.636-5.481 8.152-10.915 16.304-16.258 24.547-0.921 1.426-1.289 3.316-1.703 5.020-2.166 9.21-4.006 18.514-6.493 27.633-2.303 8.428-5.297 16.626-8.014 24.916-0.461-0.148-0.877-0.22-1.332-0.368-0.258-0.83-0.509-1.657-0.693-2.119-0.968 5.204-2.394 10.547-2.947 15.981-0.646 6.909-0.368 13.955-0.968 20.862-0.646 7.139 0.784 14.553-3.087 21.324-2.166 3.822-4.054 8.105-4.742 12.389-3.13 18.652-5.481 37.304-15.244 54.208-7 12.204-7.553 26.068-5.113 39.469 3.961 21.969 7.83 44.029 16.488 64.8 0.552 1.198 1.887 2.026 2.671 3.224 2.903 4.374 5.711 8.842 8.567 13.309-0.332 0.22-0.646 0.461-0.964 0.689-1.061-0.461-2.119-0.921-3.13-1.426 4.79 6.354 5.666 14.278 3.408 20.219-2.487 6.677-2.259 11.791 0.646 17.547 0.258-0.509 0.6-1.014 1.566-2.762 0.461 5.066 0.83 8.935 1.149 12.757 0.368 4.099 0.461 8.244 1.149 12.297 3.961 22.797 13.080 43.936 21.048 65.537s22.428 39.423 33.944 58.905c6.079 10.317 14.414 19.712 24.547 27.124 11.376 8.382 22.89 16.397 30.857 28.969 5.572 8.889 14.323 15.89 22.106 23.213 12.434 11.652 24.961 23.165 37.904 34.128 20.125 17.086 39.746 35.233 67.149 40.16 1.842 0.332 3.776 0.036 5.618 0.368 6.448 1.105 13.264 1.382 19.205 3.869 5.986 2.487 11.099 7.323 16.672 10.961 0.921 0.6 2.303 0.509 3.452 0.693 1.798 0.332 4.054 0.036 5.388 0.968 10.822 7.78 22.153 14.323 35.184 17.824 9.303 2.487 18.284 6.034 27.357 9.258 3.040 1.105 5.802 3.776 8.751 3.869 11.19 0.22 21.139 5.297 31.825 7.462 15.705 3.224 31.318 7.507 46.654-1.657 1.657-1.014 4.374-0.461 6.586-0.22 2.21 0.184 4.467 1.518 6.54 1.289 20.632-2.535 41.265-5.343 61.899-7.966 10.408-1.332 20.771-2.487 31.179-3.776 8.244-1.061 16.488-1.935 24.64-3.408 10.27-1.798 20.403-4.19 30.581-6.309 0.509-0.074 1.105 0.036 1.61-0.036 4.79-0.784 10.179-0.416 14.228-2.578 12.25-6.402 24.040-13.725 35.97-20.771 3.636-2.119 6.725-6.264 11.745-2.535 0.461 0.368 1.982-0.461 2.947-0.921 12.343-6.354 25.698-9.487 39.285-11.606 9.578-1.473 13.725-8.981 19.205-15.153 0.552-0.646 0.22-1.982 0.368-3.776-1.935 1.703-3.316 2.903-4.697 4.099l-1.198-0.737c1.426-2.44 2.394-5.481 4.422-7.184 8.474-7.093 16.765-14.323 25.1-21.462 12.343-10.547 21.876-24.272 36.706-32.1 5.711-2.996 9.994-8.521 15.060-12.802 1.014-0.877 2.394-1.332 3.685-1.798 11.376-4.329 22.244-9.21 27.633-21.417 4.652-10.454 9.303-20.91 14.692-30.995 2.628-4.881 6.493-9.349 10.592-13.173 16.304-15.521 33.667-29.981 44.075-50.707 3.592-7.139 8.474-13.632 12.666-20.541 1.289-2.071 2.394-4.374 3.271-6.677 3.636-9.901 7.646-19.712 10.638-29.752 2.856-9.392 4.742-19.020 6.771-28.601 1.518-7.093 2.163-14.414 4.006-21.417 2.487-9.533 7.323-18.652 8.244-28.185 0.877-9.81 2.947-19.114 5.159-28.553 0.921-3.869 3.040-8.014 2.303-11.606-1.61-7.737-5.204-14.553-3.685-23.488z"></path>
    <path fill="#000000" d="M513.77 504.822c1.657-5.85-1.703-37.536-5.572-45.318-3.408-6.725-35.184 33.851-38.457 42.279-0.596 1.426-1.382 2.715-2.487 3.776-9.856 9.442-6.354 12.616-34.128 21.508-2.119 0.693-20.034-0.416-36.568 17.777-1.842-0.6-15.521 10.547-17.824 11.054-13.587 2.808-16.902 7.691-30.258 11.513-0.784 0.22-1.473 0.505-2.119 0.83-1.014-0.22-2.071-0.368-3.224-0.332-26.942 1.242-41.265 32.332-31.87 56.004 0.737 1.842 1.751 3.316 2.947 4.467 0.552 1.887 1.473 3.731 2.856 5.343 8.382 9.949 21.139 8.382 32.332 11.468 2.671 0.737 5.066 0.552 7.093-0.258 0.461 0.332 0.83 0.689 1.382 0.968 14.785 7.323 30.397 9.165 46.332 4.742 13.816-3.776 25.607-12.434 39.516-16.533 16.349-4.836 25.145-28.369 11.19-41.219-5.711-5.297-21.83-15.705-29.108-14.228-8.935 1.798-23.949 24.409-26.437 34.68-6.54-42.556 32.791-60.378 52.18-70.327 4.79-2.444 9.578-7.277 15.981-6.448 14.6 1.842 19.114 0 26.573 7.369 7.966 7.876 15.29 24.134 20.034 27.68-0.074-9.901 0.22-40.344 0.036-50.2 1.566-2.303-1.242-13.587-0.412-16.581z"></path>
    </svg>