<svg xmlns="http://www.w3.org/2000/svg" viewBox="46.597 31.479 988.249 996.169">
    <path fill="#000000" d="M591.741 628.465c14.785 0.646 29.66-2.35 44.95-1.657-0.552-1.426-1.061-2.856-1.52-4.283-1.426-4.79-2.21-11.054-2.671-17.686-6.632-0.036-13.218-0.148-19.804-0.148-30.856-0.036-60.655-3.318-91.834-3.318-6.218 0.036-40.896 1.935-75.531 2.487-0.368 2.394-0.693 4.79-0.83 7.184-0.332 5.572 1.566 10.731 0.83 14.646 16.717-0.461 33.528-1.245 49.74-1.245 18.054 0 36.383 0.877 54.391-0.184 14.369-0.83 28.738 3.592 42.278 4.19z"></path>
    <path fill="#000000" d="M483.419 815.953c0.83-17.179-1.014-33.989 2.303-50.799 1.982-9.901 1.061-53.7 4.145-70.418-6.17-0.646-12.25-1.242-18.377-1.703-3.685 12.388-9.165 24.686-11.238 37.12-4.329 26.068-8.428 50.108-11.468 77.234-2.075 18.377-14.921 32.516-20.632 49.831-1.426 4.329-3.685 25.238-10.408 29.751 2.996 1.798 5.85 3.731 9.119 5.297 8.198 3.915 16.214 5.113 25.561 6.862 4.283 0.784 8.428 1.614 12.527 2.535-3.731-8.796 6.079-32.148 8.244-38.916 4.836-15.060 9.442-30.904 10.224-46.791z"></path>
    <path fill="#000000" d="M596.533 836.449c-2.119-26.896-9.81-52.088-11.561-78.661-0.737-11.697-4.79-21.369-7.875-33.114-1.473-5.665-0.83-22.105-3.915-30.811-5.572-1.105-11.145-2.21-16.765-2.35 0.693 9.21-1.751 17.224-2.578 26.114-1.014 10.777 3.96 20.909 4.238 31.916 0.412 14.416-6.909 29.383-7.691 45.87-1.426 30.581 8.473 60.746 8.337 91.65-0.036 10.27 2.903 21.692 1.198 31.777-0.461 2.578-1.382 4.93-2.394 7.277 10.040-1.61 20.357-4.054 28.738-6.309 8.567-2.303 17.27-4.881 25.975-7.691-1.892-6.356-3.685-15.060-5.343-21.737-4.283-16.901-8.98-36.199-10.363-53.93z"></path>
    <path fill="#000000" d="M542.369 903.504c0.332-7.598-2.992-14.462-4.467-21.83-2.166-11.145-1.105-22.981-2.347-34.219-0.596-5.618 0.737-11.468 0.074-17.086-0.258-2.531-2.259-7-2.163-9.165 0.148-3.545 3.361-7.093 3.267-10.178-0.22-8.98-4.513-15.705-2.071-25.054 1.52-5.85 5.204-10.363 5.665-16.672 1.149-16.165-1.198-34.817-2.671-51.075-0.784-8.382-0.332-16.349-3.224-24.363-0.036-0.148-0.074-0.22-0.148-0.368-8.658 1.198-17.454 2.44-26.482 2.394-0.22 0-0.416 0-0.646 0 0.552 7.277-2.166 16.81-2.947 19.941-4.467 17.826 1.242 37.12 1.105 55.772-0.148 23.074-9.487 42.233-13.955 64.063-3.452 17.086-9.487 32.334-12.527 49.97-0.6 3.636-1.566 13.632-4.559 18.193 9.766 2.44 19.298 5.388 29.015 9.58 12.066 5.204 22.89 14.369 36.706 14.323 1.473 0 2.947-0.11 4.467-0.184-0.294-1.703-0.693-3.408-1.061-5.159-1.521-7.507-1.382-10.822-1.061-18.882z"></path>
    <path fill="#000000" d="M772.874 864.957c-1.334-0.184-2.808-0.461-4.238-0.646-30.949 14.278-63.924 28.692-97.729 38.179-29.337 8.244-56.694 19.298-85.57 27.771-9.949 2.903-15.383 6.218-24.179 10.777-8.705 4.513-11.006 2.671-21.001 2.947-2.026-3.132-19.757-8.014-25.836-10.822-8.658-4.006-17.826-6.034-27.357-8.658-23.995-6.677-47.298-14.046-70.463-22.935-19.573-7.507-39.93-11.192-58.811-19.527-9.442-4.19-37.672-6.725-33.252-21.139 0.505-0.416 0.921-0.646 1.382-0.873-1.61-4.836 1.842-12.618 2.996-16.901 3.364-12.159 8.889-24.224 12.434-36.522 2.762-9.442 7.139-18.054 10.085-27.632 1.982-6.356 1.289-14.139 3.915-20.264 3.501-8.289 8.060-14.737 11.836-23.074 2.856-6.493 0.83-11.283 2.808-17.040 1.337-3.822 8.382-14.691 13.218-21.462-19.666 0.921-39.7 4.744-58.675 2.992-4.054-12.757-2.259-24.915-1.382-38.363 0.368-5.757-2.671-13.448-2.628-18.284 0.11-4.467 5.941-11.836 4.93-14.602 0.074-3.545-2.075-2.671-4.744-4.374 20.125-7.093 46.839-2.071 67.794 0.11 10.133 1.014 20.541 1.382 31.040 1.473 0.368-7.323 0.368-14.921 2.166-22.060-29.015-0.22-52.915-2.119-52.318-7.921 2.44-0.332 7.553-1.566 3.408-4.559 18.329 0.646 35.692-2.992 54.023-5.434 1.382-4.93 2.762-9.901 4.054-14.876 2.762-10.731 0.22-25.886 0.552-39.607-3.731-4.006-7-8.567-10.178-14.23-13.080-23.349-22.981-43.154-26.205-70.004-2.44-20.448-7.737-49.785 2.166-68.53 10.408-19.711 24.274-32.791 40.989-44.167 9.119-6.218 18.468-10.040 27.725-15.89 7.921-5.065 13.080-11.652 22.244-15.612 0.784-5.895 4.329-10.085 6.493-16.074 2.44-6.816 2.21-7.968 2.347-15.981-2.119 0.416-5.113-0.737-7.184-0.368-2.812-10.363-0.784-20.955-1.198-31.318-0.22-5.85-0.921-29.428 9.901-18.145 1.289-6.909 3.685-15.751 3.731-22.383 0.036-8.98-4.93-16.765 0-25.377 0.22 0.11 0.294 0.22 0.416 0.332-0.737-1.245-1.149-2.444-2.578-3.822 14-1.289 27.955 0.737 42.462 0.036 9.165-0.416 23.765 2.719 31.547-0.074 11.192 10.27-0.416 38.088 1.426 50.338 11.468 1.198 8.935 38.779 5.941 49.233-1.751-0.22-4.145 0.6-5.895 0.368-2.347 26.389 30.856 44.167 50.247 56.556 15.337 9.81 20.864 18.422 30.028 33.621 6.677 11.145 15.658 20.034 21.876 32.1 9.21 17.826-3.408 29.89-0.22 48.219 1.706 9.994 8.060 14.785 6.309 26.298-1.289 8.612-5.065 17.593-7.277 26.343-4.744 18.836-13.264 26.85-29.797 37.811-0.505 0.332-0.964 0.689-1.473 1.014 0.412 3.452 0.412 7.184 1.149 10.592 2.303 10.961 6.862 16.672 12.066 26.757 1.566 3.040 2.715 6.356 3.592 9.81 25.054-0.368 52.088 2.166 59.043 18.882-10.501 4.606-26.62 4.79-38.088 5.757-5.941 0.461-11.881 0.784-17.87 0.968 0.461 8.014 0.877 15.981 2.347 23.074 11.975-0.184 23.902-1.014 35.692-2.347 23.028-2.628 46.239-5.159 68.621-8.428 0 15.060-6.309 28.462-5.572 44.397 0.368 7.139 3.318 14.462 4.606 22.476 0.784 5.065-0.368 8.935 2.166 13.034-10.133-2.071-21.921-6.264-33.159-4.374-7.093 1.242-13.309 5.065-20.541 5.665-5.25 0.461-10.363 0-15.428-0.83 10.363 13.309 17.501 29.199 25.468 43.799 8.521 15.705 18.377 31.272 24.317 48.358 7.875 22.706 28.692 50.845 19.298 75.485zM497.566 118.861c14.369 0 28.83-0.552 43.154 0.11 21.139 0.921 42.417 1.382 63.695 1.058-3.318 6.816-9.21 14.507-13.862 21.139-3.501 4.974-8.751 17.64-13.218 20.678-7.046 4.744-22.521 0.646-30.811 0.294-14.278-0.737-38.502-6.034-50.338 1.014-5.343-9.119-15.428-35.924-22.383-35.646 0.968 0.184 1.382-1.105 1.105-2.256-3.731-0.921-7.23-3.776-9.717-6.448 8.567 4.006 22.567 0.036 32.377 0.074zM1030.515 553.592c1.473-8.751-4.145-17.27-9.442-24.915v5.159c-0.6 0.036-1.198 0.074-1.798 0.148-0.258-4.19-1.334-8.473-0.646-12.527 2.259-13.173 5.343-26.252 7.691-39.468 0.646-3.685 0.461-7.782-0.412-11.468-2.903-12.113-6.218-24.179-9.626-36.244-2.808-9.949-5.618-19.941-9.026-29.706-2.075-5.85-5.113-11.329-8.060-16.856-1.149-2.21-3.224-4.006-4.79-6.034-0.646-0.921-1.105-2.026-1.473-3.087-2.21-6.17 2.812-12.573-0.689-18.836-1.198-2.119-1.842-4.652-2.166-7.046-0.877-6.909-1.473-13.862-2.259-20.771-0.148-1.198-0.461-2.487-1.149-3.408-3.776-5.297-7.782-10.454-11.513-15.842-0.646-0.921-0.332-2.535-0.461-4.374-8.612-7.737-12.527-19.941-21.646-28.692-8.154-7.875-13.357-18.882-19.85-28.508-4.329-6.309-8.796-12.482-12.99-18.882-3.636-5.572-9.626-9.303-10.178-17.408-0.332-4.374-5.020-8.98-8.751-12.434-7.414-6.955-15.521-13.173-23.349-19.711-0.148 1.198-0.332 2.535-0.461 3.869-0.509 0.22-0.968 0.416-1.473 0.6-3.087-4.559-6.17-9.165-9.303-13.725-2.026-2.947-4.238-5.802-6.356-8.705-1.566-2.166-3.18-4.283-4.652-6.493-2.531-3.731-4.93-7.507-7.462-11.238-0.83-1.242-2.071-2.256-2.992-3.452-3.731-4.974-7.277-10.085-11.283-14.785-1.014-1.242-3.592-1.289-5.481-1.52-2.762-0.368-5.665 0.036-8.289-0.689-10.961-3.224-21.969-6.402-32.7-10.27-4.329-1.566-8.612-4.329-11.975-7.553-10.224-9.856-22.981-16.533-32.561-27.403-5.113-5.757-13.309-8.889-20.402-12.618-7.875-4.145-16.119-7.691-24.274-11.329-4.422-1.982-8.842-4.606-13.541-5.297-9.165-1.334-18.513-1.334-27.771-2.21-10.685-1.014-21.737-0.148-31.593-5.572-10.592-5.85-22.153-4.744-33.574-4.93-0.784 0-1.842 0.148-2.394 0.646-5.065 4.79-10.915 2.715-16.533 1.703-0.83-0.184-1.334-2.303-2.259-4.006-2.578-0.332-5.941-1.149-9.303-1.198-7.093-0.11-14.185 0.184-21.323 0.258-7.368 0.148-14.83 0.737-22.153 0.148-6.909-0.552-13.725-2.35-20.541-3.636-0.148 0-0.22-0.416-0.332-0.416-2.762-0.294-5.895-1.382-8.289-0.552-6.402 2.163-12.804 4.697-18.652 8.105-2.996 1.751-7.921 2.671-7.83 8.060 0.036 0.737-1.242 1.751-2.119 2.259-3.545 1.978-7.184 3.822-10.777 5.665 0.036-0.552 0.074-1.105 0.074-1.657-1.014-0.22-2.119-0.83-3.087-0.646-5.204 1.105-10.363 2.578-15.567 3.452-2.119 0.368-4.467-0.83-6.542-0.505-8.154 1.382-16.258 3.087-24.363 4.652-9.994 1.935-19.941 3.869-29.935 5.802-1.382 0.294-2.812 1.245-4.054 1.105-9.165-1.334-16.949 3.636-25.422 5.388-1.52 0.332-2.671 2.259-4.006 3.452 0.294 0.22 0.552 0.461 0.784 0.693l7.737-2.487c0.22 0.505 0.412 1.014 0.596 1.473-5.388 3.636-10.822 7.323-16.214 10.961-0.22-0.784-0.461-1.52-0.737-2.256-1.892 0.148-4.145-0.332-5.618 0.505-4.697 2.624-9.073 5.757-13.541 8.705-7.23 4.836-14.185 10.224-21.83 14.278-5.527 2.903-12.388 3.271-17.961 6.079-13.218 6.632-26.389 13.493-35.048 26.389-3.132 4.697-6.77 9.026-10.961 14.553-0.921-1.935-1.43-2.947-1.798-3.685-9.994 8.428-13.586 20.125-19.85 30.213-5.665 9.119-11.513 18.513-18.975 26.114-9.073 9.21-20.173 16.442-29.981 24.961-9.766 8.428-11.561 20.725-14.553 32.334-1.198 4.697-2.303 9.442-3.408 14.185-0.552-0.148-1.149-0.294-1.706-0.368 0.184-1.426 0.332-2.808 0.509-4.238-2.347 2.303-3.271 5.159-4.79 7.598-3.224 5.204-6.77 10.224-10.27 15.244-0.921 1.334-2.256 2.347-3.132 3.636-5.481 8.154-10.961 16.303-16.303 24.547-0.921 1.426-1.242 3.318-1.657 5.020-2.21 9.21-4.006 18.513-6.542 27.632-2.303 8.428-5.297 16.626-7.968 24.915l-1.337-0.368c-0.258-0.83-0.552-1.657-0.689-2.166-1.014 5.25-2.44 10.592-2.947 16.028-0.689 6.909-0.368 13.955-1.014 20.864-0.596 7.139 0.83 14.507-3.040 21.323-2.166 3.822-4.054 8.105-4.79 12.388-3.132 18.652-5.481 37.304-15.198 54.207-7 12.204-7.553 26.020-5.113 39.468 3.96 21.969 7.83 44.029 16.488 64.8 0.509 1.198 1.892 2.026 2.628 3.18 2.899 4.422 5.711 8.889 8.567 13.357-0.332 0.22-0.646 0.461-0.968 0.689-1.014-0.461-2.075-0.968-3.132-1.426 4.79 6.356 5.665 14.278 3.452 20.218-2.531 6.632-2.303 11.79 0.6 17.547 0.332-0.505 0.596-1.061 1.566-2.808 0.509 5.113 0.83 8.98 1.198 12.804 0.368 4.099 0.416 8.244 1.149 12.25 3.96 22.844 13.080 43.983 21.001 65.536 7.968 21.646 22.476 39.468 33.989 58.95 6.034 10.317 14.369 19.711 24.502 27.126 11.378 8.337 22.935 16.349 30.856 28.969 5.618 8.889 14.323 15.89 22.153 23.212 12.388 11.606 24.915 23.119 37.856 34.128 20.125 17.086 39.746 35.186 67.148 40.159 1.842 0.332 3.822 0.036 5.665 0.368 6.448 1.105 13.264 1.382 19.159 3.822 6.034 2.535 11.099 7.323 16.672 11.006 0.921 0.6 2.303 0.505 3.452 0.689 1.842 0.332 4.054 0.036 5.388 0.968 10.822 7.782 22.153 14.278 35.186 17.777 9.303 2.535 18.329 6.079 27.403 9.303 2.992 1.105 5.757 3.776 8.705 3.869 11.192 0.22 21.185 5.25 31.825 7.462 15.751 3.224 31.363 7.507 46.653-1.703 1.657-0.968 4.422-0.416 6.632-0.184 2.166 0.184 4.422 1.52 6.542 1.242 20.632-2.487 41.219-5.297 61.851-7.921 10.408-1.334 20.816-2.487 31.225-3.822 8.198-1.014 16.488-1.887 24.64-3.361 10.224-1.842 20.357-4.19 30.581-6.309 0.505-0.11 1.061 0.036 1.61-0.036 4.744-0.784 10.133-0.461 14.23-2.578 12.25-6.402 23.995-13.725 35.924-20.771 3.636-2.119 6.77-6.264 11.745-2.535 0.505 0.368 2.026-0.461 2.947-0.921 12.388-6.356 25.745-9.487 39.284-11.606 9.58-1.52 13.771-8.98 19.252-15.198 0.509-0.6 0.184-1.935 0.368-3.731-1.982 1.703-3.318 2.903-4.697 4.099-0.412-0.294-0.83-0.509-1.242-0.784 1.473-2.394 2.394-5.434 4.422-7.139 8.473-7.093 16.765-14.369 25.145-21.462 12.343-10.547 21.83-24.317 36.706-32.148 5.665-2.992 9.994-8.521 15.014-12.757 1.014-0.877 2.394-1.334 3.685-1.798 11.422-4.329 22.29-9.21 27.68-21.416 4.606-10.454 9.303-20.955 14.691-30.995 2.624-4.881 6.493-9.349 10.547-13.218 16.303-15.474 33.712-29.935 44.12-50.661 3.549-7.184 8.473-13.632 12.666-20.541 1.289-2.119 2.347-4.374 3.224-6.677 3.685-9.901 7.646-19.711 10.685-29.751 2.808-9.394 4.697-19.020 6.725-28.601 1.521-7.139 2.166-14.462 4.006-21.462 2.487-9.487 7.368-18.606 8.244-28.139 0.921-9.81 2.996-19.159 5.204-28.553 0.873-3.869 2.992-8.060 2.256-11.606-1.61-7.782-5.159-14.553-3.636-23.488z"></path>
    <path fill="#000000" d="M433.634 806.882c2.578-16.028 3.685-31.64 7.184-47.344 2.903-13.309 8.751-24.686 12.388-37.536 1.289-4.467 0.552-20.173 2.992-29.292-9.119 0.332-18.145 1.334-27.173 2.303-0.877 3.040-1.842 6.079-3.224 9.717-2.394 6.17-4.422 13.125-6.356 19.298-7.968 25.284-4.283 56.233-16.258 80.596-8.014 16.258-13.909 30.904-24.317 46.1-4.974 7.277-7.093 12.020-6.632 19.066 12.895 4.329 25.652 9.026 37.397 13.402-3.18-10.547 7.414-35.324 9.258-40.159 4.513-11.929 12.666-23.349 14.737-36.153z"></path>
    <path fill="#000000" d="M722.306 764.004c-4.238-8.198-10.27-14.185-15.428-21.785-4.93-7.414-3.318-11.329-5.388-18.836-1.751-6.356-6.725-10.085-9.303-15.612-1.978-4.19-1.887-8.889-2.487-13.493-3.822-0.968-7.646-1.892-11.378-2.628-8.98-1.703-18.329-1.842-27.817-1.198 9.258 9.303 10.363 17.27 13.586 24.133 8.244 17.501 22.706 30.949 31.593 48.312 11.881 23.304 14.323 48.726 19.62 73.826 2.21 10.592 15.751 21.001 15.153 32.148 4.054-1.842 8.154-3.731 12.297-5.711 3.592-1.751 9.58-3.776 14.969-4.19-1.426-12.618-4.652-25.791-10.408-36.984-9.533-18.606-15.474-39.561-25.009-57.984z"></path>
    <path fill="#000000" d="M705.775 843.265c-7.553-12.113-8.105-21.094-12.527-34.173-8.014-23.902-13.909-50.431-27.725-71.477-5.527-8.428-7.277-16.994-11.238-25.514-3.267-7.046-6.816-13.725-9.442-21.185-7.782 0.737-15.658 1.842-23.442 2.856 6.586 6.862 11.975 17.826 14.093 22.105 5.113 10.040 9.949 18.882 13.955 29.613 2.026 5.434 4.283 7.921 5.895 14.139 1.337 5.113 1.198 10.317 2.21 15.337 2.531 12.297 8.337 24.040 11.329 36.292 3.318 13.632 4.099 24.179 11.606 35.876 4.099 6.402 15.014 27.498 10.040 37.536 1.892-0.689 3.776-1.382 5.665-2.026 9.394-3.271 18.054-6.725 26.666-10.408-9.901-4.836-11.513-20.080-17.086-28.969z"></path>
    <path fill="#000000" d="M653.546 831.659c-3.364-11.561-4.19-23.995-6.909-35.831-3.087-13.632-8.658-26.666-13.402-39.791-2.808-7.737-3.869-12.573-5.711-20.587-1.887-8.428-8.521-14-11.468-22.014-1.382-3.776-5.388-12.159-7.414-18.284-7.23 0.689-14.369 1.058-21.323 0.737-2.992-0.148-6.034-0.552-9.026-1.105 11.238 11.238 11.054 30.904 14.737 42.924 4.606 14.876 10.915 26.389 10.408 41.587-0.646 18.284 2.762 37.351 5.802 54.989 2.856 16.581 0.6 35.646 5.618 51.72 2.44 7.968 9.394 14 10.454 21.785 19.343-6.493 38.779-13.678 57.751-20.494-14.139-11.192-24.686-39.009-29.522-55.635z"></path>
    <path fill="#000000" d="M585.891 404.361c8.658 16.533 32.975-11.513 12.804-20.218-0.784 0.416-1.334 1.014-1.566 1.842-4.467-1.703-7.046-0.416-11.006 1.382-6.816 2.071-7.184 9.394-6.079 15.383 1.935 0.873 3.685 1.52 5.85 1.61z"></path>
    <path fill="#000000" d="M477.663 477.359c-13.586 1.798-8.289 13.541 1.842 15.658 10.408 2.119 22.662-2.44 23.212-13.034-2.21-3.132-2.487-2.535-3.822-7.23-6.586-2.119-12.618-0.83-18.697 2.21l-2.531 2.394z"></path>
    <path fill="#000000" d="M554.528 457.509c26.712-11.606 13.586-49.691-10.27-55.542-13.586-3.318-32.652 0.148-32.561 10.547-5.481 8.154-13.448 10.87-12.573 22.844 0.368 5.113 1.887 12.482 6.17 16.303 9.442 8.337 37.995 10.731 49.233 5.85z"></path>
    <path fill="#000000" d="M512.206 260.304c-0.461 10.27 20.494 9.717 28.232 10.363 16.074 1.382 17.593-7.184 28.508-11.929-1.149-9.165 0.737-13.862 3.869-22.29-6.402-2.992-5.986-11.561-12.482-15.935-4.836-3.271-13.955-7.462-19.711-4.744 0.148 0 0.258 0 0.461 0-0.968 0.036-1.61 0.332-0.968 1.149-5.388-6.218-19.389-3.224-22.89 4.606-12.804 3.040-22.844 36.199-5.020 38.779z"></path>
    <path fill="#000000" d="M581.055 466.584c2.487 4.513 6.725 7.368 9.026 11.836 9.949 1.105 26.527-0.258 20.955-15.153-4.238-11.283-21.050-8.842-31.040-7.323-0.368 1.242-1.061 4.467-1.061 5.711 2.21 0.258 5.020-0.784 7.139-2.256l-5.020 7.184z"></path>
    <path fill="#000000" d="M392.322 798.592c7.277-18.008 4.054-36.613 10.501-54.207 3.408-9.349 12.85-17.040 14.921-27.91 1.198-6.17 1.334-13.541 1.242-20.402-7.507 0.693-15.060 1.149-22.706 0.968-0.552 3.18-1.242 6.17-1.61 7.598-4.467 17.133-12.618 35.601-20.864 51.766-9.58 18.836-18.193 34.357-21.876 54.898-2.719 15.105-7.691 29.015-11.881 43.752-0.416 1.473-0.968 3.087-1.657 4.652 7.507 1.892 15.289 4.099 23.258 6.632 2.394-7.139 5.618-15.153 8.751-21.050 4.054-7.782 9.394-13.402 12.618-20.864 3.685-8.473 5.757-17.133 9.303-25.836z"></path>
    <path fill="#000000" d="M604.175 560.349c-17.133 8.014-32.377 12.204-51.581 14.602-21.737 2.719-32.377-4.422-51.536-8.842 1.198-13.264-18.697-7.046-28.094-9.394-6.542-1.61-13.309-5.113-19.252-8.473-0.148 2.347-0.332 4.697-0.689 7.093-1.473 9.949-3.364 18.284-4.238 28.553 0 0.148-0.036 0.332-0.036 0.505 14.969-0.552 30.35-0.184 44.855-0.6 43.845-1.242 87.919-2.808 131.716-3.271 1.887 0 4.054-0.074 6.356-0.184 0-0.646 0-1.334 0-1.935-0.184-6.77-0.78-21.050-2.899-33.989-7.277 5.757-14.737 11.329-24.593 15.935z"></path>
    <path fill="#000000" d="M472.365 409.197c8.289 2.35 11.513-4.836 19.020-6.448 0.596-4.513 0.036-8.751-1.198-12.804-5.941-2.21-12.343-2.715-18.238-3.731-4.467 0.332-8.154 2.166-10.777 5.895 5.986 6.17 2.026 14.462 11.192 17.086z"></path>
    <path fill="#000000" d="M434.65 418.595c1.52-6.402 9.717-11.697 11.283-18.099 2.35-9.901-4.006-15.474 4.006-24.87 4.513-5.343 15.153-15.105 22.706-13.493-0.968-7.875 5.941-11.881 13.632-15.796 4.145-8.244 22.89-8.842 32.377-11.192 12.020-2.947 26.573-3.132 38.179 1.887 8.473 3.731 16.994 12.388 25.514 17.040 9.672 5.297 19.941 9.717 27.725 18.008 9.717 10.363 25.1 27.448 25.284 41.631 0.148 11.054-3.776 23.212-3.869 34.864-0.074 7.277 1.473 16.214 0 23.349-4.606 22.662-22.428 29.66-40.944 40.805-22.014 13.357-33.712 19.298-61.253 15.153-18.468-2.762-39.561-7.139-54.391-16.901-16.442-10.822-19.298-28.232-28.738-45.641-4.79-8.889-9.165-13.771-10.133-24.133-0.552-6.264-2.762-16.765-1.382-22.612zM441.048 504.76h0.036c7.968 12.388 19.666 23.672 30.765 16.214 4.559 14.785 38.825 18.561 52.825 20.402 21.601 2.856 43.752-0.461 63.049-8.521 11.745-4.93 21.185-8.658 29.706-14.046-0.412-0.184-0.83-0.368-1.289-0.461l1.61 0.294c6.264-4.006 12.113-8.889 18.008-15.935 9.533-11.422 18.145-22.662 20.173-38.407 1.842-14.553 1.334-31.456 1.242-45.825-0.074-15.751-10.27-27.817-15.751-41.864-6.309-16.214-18.422-20.771-29.844-32.377-10.592-10.777-16.994-15.060-32.009-19.298-17.086-4.836-35.139-6.77-54.114-3.271-8.705 1.614-40.068 4.652-28.369 9.349-9.994-0.877-15.89 2.071-23.81 6.725-5.481 3.224-14.737 7-20.264 10.731-3.040 2.071-3.501 5.895-6.955 7.968-7.507 4.513-13.909 5.020-19.389 12.113-5.757 7.462-7.782 18.145-7.782 27.312 0 14.278-0.461 29.428-1.887 42.556-1.842 16.626 10.87 29.428 14.507 45.916 0.968 4.329 4.513 12.618 9.533 20.448z"></path>
    </svg>