<svg xmlns="http://www.w3.org/2000/svg" viewBox="46.579 31.470 988.300 996.170">
    <path fill="#000000" d="M549.293 258.935c-9.81-8.014-22.751-5.204-33.482 3.271 9.672 0.921 26.757 0.646 30.581-1.289 1.105-0.552 2.026-1.246 2.903-1.982z"></path>
    <path fill="#000000" d="M487.128 216.471c2.624 9.349 5.711 18.238 9.026 25.607 15.658-6.493 44.029 3.361 51.951 5.113 2.394 0.505 4.559 1.061 6.632 1.614 1.014-4.145 1.242-8.521 1.426-12.113 0.332-6.356-1.289-12.99-2.578-19.573-22.106-0.968-44.398-1.52-66.458-0.646z"></path>
    <path fill="#000000" d="M493.86 656.437c-23.949-41.358-20.264-85.343-26.528-130.154-2.899-8.981-0.148-15.153 5.618-19.482-9.074-39.009 0.693-75.393 5.666-113.666-0.968-0.332-1.978-0.693-2.899-0.921-8.428-40.114 1.198-77.373 7.507-116.383-0.22 0-0.461 0-0.646 0-11.192-18.422-16.811-37.397-20.264-56.741-39.562 6.725-77.742 25.837-105.145 50.339-5.159 4.652-11.561 8.981-17.454 15.337-18.1 24.502-34.449 48.079-46.194 77.097-12.066 29.706-29.245 56.786-43.243 85.801-14.278 29.706-8.105 58.628-7.414 91.099 0.258 12.804 0 25.7 0 38.548 0 25.607 2.303 42.602 13.357 65.999 12.896 27.357 12.666 66.185 34.587 87.736 10.592 10.363 25.054 16.765 36.613 26.573 13.771 11.791 27.91 23.672 40.944 36.154 11.561 11.099 21.233 23.488 35.463 30.722 11.561 5.85 25.791 7.782 38.273 11.378 13.309 3.822 27.817 6.632 42.463 8.889 0.036-17.27 0.877-34.726 0.184-52.503-1.521-6.909 0.036-11.929 3.501-15.567-4.836-40.667 2.119-79.722 6.632-120.205-0.332 0-0.689-0.036-1.014-0.036z"></path>
    <path fill="#000000" d="M485.028 183.769c23.672 0 46.517-2.762 69.498-4.374-0.332-2.303-0.921-4.881-2.026-8.105-3.869-11.513-6.171-27.219-14.737-35.558-4.006-3.915-23.074-12.804-30.259-11.882-5.85 0.737-4.744 8.060-8.705 10.363-6.771 3.915-14.185 1.242-18.193 17.040-2.715 5.572-2.578 17.916-0.509 32.423 1.657 0.036 3.271 0.074 4.93 0.074z"></path>
    <path fill="#000000" d="M558.952 619.043c3.364 0.737 6.356 1.52 9.074 2.303 0.074-1.242 0.184-2.44 0.294-3.545 0.83-11.378-4.422-23.765-3.224-35.049 1.426-13.357 5.666-16.028 1.105-30.627-1.242-4.099-2.347-8.751-3.545-13.403-19.252 6.125-43.891-5.757-64.573-15.199-1.198 1.935-2.303 4.468-3.271 7.921-6.171 11.929 0.368 55.543 10.777 84.467 15.106-9.672 45.227 1.334 53.378 3.132z"></path>
    <path fill="#000000" d="M576.162 803.358c-2.303 6.402-5.25 11.468-9.258 13.862-16.717 10.133-38.596-3.636-56.741-14.185-3.318 8.705-3.822 26.253-2.259 44.905 9.626 1.149 19.159 2.119 28.233 3.040 14.876 1.52 28.785 0.968 42.417-1.061 2.303-6.955 4.283-10.961 1.978-22.244-1.52-7.414-2.21-16.397-4.374-24.318z"></path>
    <path fill="#000000" d="M700.95 264.599c-35.324-23.304-75.991-41.219-118.086-45.732-0.646 13.955 4.468 39.701-3.040 52.826 1.061 4.93 1.703 10.915 2.531 18.329 2.44 23.12-2.996 48.265-9.994 70.189-1.198 3.731-2.259 8.474-3.364 13.632 20.219 6.448 22.106 15.612 26.253 39.469 4.054 23.258-1.105 48.404-8.198 70.327-2.531 7.691-4.145 19.85-7.184 30.811 2.166 4.099 4.329 8.981 6.909 14.83 9.442 21.692 10.408 47.437 8.658 70.464-1.014 13.218 3.087 37.536-3.224 51.259 0.78 4.881 1.473 10.592 2.259 17.27 3.176 27.264-1.521 57.248-7.83 83.498-1.473 5.986-2.628 14.23-4.006 22.844 11.513 4.881 14.737 14.185 20.632 32.469 3.731 11.513 5.066 23.811 5.020 36.154 6.816-2.026 13.632-4.374 20.587-7 25.146-9.58 47.713-29.061 68.807-45.871 23.304-18.561 37.857-47.529 60.563-67.563 29.613-26.159 52.964-68.163 68.347-105.099 12.573-30.12 16.672-69.591 17.961-101.875 1.566-37.397 4.652-66.597-4.79-102.889-17.777-68.254-82.855-111.454-138.811-148.344z"></path>
    <path fill="#000000" d="M515.176 889.803c3.176 11.099 7.184 19.527 11.745 22.429 4.145 2.624 31.318 5.757 36.477 3.822 9.258-3.452 11.329-15.199 12.711-23.029 0.11-0.646 0.148-1.289 0.22-1.935-2.487 0.737-4.93 1.426-7.369 2.026-15.935 3.961-34.865 0.921-53.792-3.318z"></path>
    <path fill="#000000" d="M503.317 278.183c-6.542 17.916-10.224 58.905-7.737 84.787 15.567-3.132 38.641 2.487 51.075 5.527 2.394-10.179 1.657-21.922 5.020-31.593 4.422-12.618 8.521-14.23 8.337-29.383-0.074-7.507 0.737-16.442 0.22-24.502-17.224 3.271-38.916-1.657-56.925-4.836z"></path>
    <path fill="#000000" d="M523.351 786.87c7.968 3.176 20.173 6.264 23.442 5.066 4.513-1.657 7.462-6.402 9.626-11.882-11.145-4.606-23.12-1.242-33.069 6.816z"></path>
    <path fill="#000000" d="M572.52 663.944c-17.409 3.636-39.423-1.52-57.751-4.974-6.448 24.825-8.521 81.15-3.408 109.289 17.040-1.614 37.075 1.289 43.936 1.703 1.473 0.036 2.856 0.184 4.238 0.258 0.332-1.334 0.646-2.671 0.964-3.915 3.040-12.941 1.382-28.508 4.744-41.265 4.006-15.106 8.060-17.179 7.462-35.14-0.22-6.125 0.332-15.981-0.184-25.975z"></path>
    <path fill="#000000" d="M895.023 563.685c-2.531 45.871-28.233 92.204-49.418 131.672-9.349 17.454-26.666 28.462-39.332 43.243-9.487 11.099-12.573 25.193-20.31 38.041-9.672 16.119-23.029 26.712-36.845 38.457-6.079 5.204-10.592 12.618-16.442 17.409-9.074 7.414-21.050 9.21-31.225 14.416-6.125 3.132-11.378 7.278-17.179 10.27-13.955 7.093-31.179 8.521-46.839 12.896-11.099 3.087-22.106 7.23-33.069 11.329-1.935 16.717-0.22 45.641-14.094 53.517-25.561 14.462-68.807-8.796-92.065-10.915-6.218-13.587-9.626-27.126-11.513-40.76-7.737-1.657-15.244-2.992-22.244-3.592-9.026-0.737-16.442-3.087-25.054-5.527-16.533-4.744-34.174-6.309-50.432-13.541-18.698-8.337-33.528-21.001-47.897-35.233-14.139-14.001-25.193-24.641-41.265-34.312-15.383-9.303-35.001-26.942-45.041-40.667-24.134-33.205-31.179-70.327-41.358-109.060-11.513-43.8-28.369-86.677-26.482-132.041 0.461-11.054 0.412-27.726 4.744-38.089 6.955-16.672 19.896-32.516 27.864-49.463 8.705-18.514 19.252-38.225 26.437-56.925 5.986-15.751 8.244-25.561 19.389-39.607 14.323-18.054 47.483-72.308 74.379-78.11-4.422-0.11-2.903-3.685-0.784-6.034 13.125-14.23 32.423-18.468 48.358-28.692 12.020-7.737 22.199-16.119 35.049-22.338 11.238-5.388 23.074-6.632 35.233-6.725-1.334-12.204-2.578-24.547-4.606-36.936-11.378-32.746 53.84-29.015 67.333-29.706 36.338-1.842 39.792 4.79 52.273 31.732 4.329 9.394 7 19.573 8.612 29.981 35.601 0.416 86.631 18.929 113.020 39.285 14.785 11.422 26.666 22.706 42.74 32.423 13.587 8.154 27.91 16.533 40.621 26.344 17.916 13.862 36.845 31.732 56.602 42.372 13.403 7.184 15.060 3.776 21.185 22.89 9.487 29.567 15.014 58.721 27.312 87.322 6.309 14.553 5.527 26.621 5.527 42.877 0 31.457 8.567 59.872 6.816 91.791zM1030.47 553.595c1.473-8.751-4.145-17.224-9.394-24.87v5.159c-0.596 0.036-1.198 0.11-1.842 0.148-0.22-4.19-1.289-8.521-0.6-12.527 2.259-13.218 5.297-26.253 7.646-39.469 0.646-3.685 0.505-7.83-0.368-11.468-2.947-12.159-6.218-24.225-9.626-36.245-2.808-9.949-5.618-19.941-9.074-29.706-2.026-5.85-5.113-11.378-8.014-16.856-1.198-2.256-3.268-4.006-4.79-6.079-0.689-0.873-1.105-1.978-1.52-3.040-2.21-6.171 2.808-12.618-0.693-18.836-1.198-2.119-1.794-4.652-2.119-7.093-0.921-6.909-1.473-13.862-2.303-20.771-0.148-1.149-0.461-2.444-1.105-3.408-3.822-5.297-7.83-10.454-11.561-15.797-0.646-0.921-0.294-2.535-0.461-4.374-8.612-7.737-12.527-19.941-21.601-28.692-8.198-7.921-13.357-18.882-19.896-28.508-4.283-6.309-8.796-12.482-12.99-18.882-3.636-5.572-9.58-9.303-10.179-17.409-0.332-4.374-5.020-9.026-8.705-12.482-7.462-6.909-15.567-13.125-23.397-19.666-0.148 1.149-0.258 2.535-0.461 3.869-0.461 0.184-0.968 0.416-1.43 0.6-3.132-4.606-6.171-9.21-9.303-13.725-2.071-2.947-4.238-5.85-6.356-8.751-1.566-2.163-3.18-4.283-4.697-6.448-2.487-3.731-4.881-7.553-7.414-11.238-0.873-1.242-2.119-2.256-3.040-3.501-3.731-4.93-7.23-10.086-11.284-14.785-1.014-1.198-3.545-1.289-5.481-1.52-2.715-0.368-5.666 0.074-8.244-0.693-10.961-3.18-21.969-6.356-32.7-10.224-4.374-1.566-8.658-4.329-11.975-7.553-10.224-9.901-23.029-16.533-32.607-27.449-5.066-5.711-13.264-8.889-20.357-12.618-7.921-4.099-16.119-7.646-24.274-11.284-4.468-1.982-8.889-4.606-13.587-5.297-9.165-1.334-18.514-1.334-27.726-2.21-10.686-1.014-21.737-0.184-31.641-5.618-10.592-5.802-22.153-4.744-33.528-4.881-0.83 0-1.892 0.148-2.394 0.646-5.113 4.744-10.915 2.719-16.533 1.657-0.877-0.148-1.334-2.256-2.303-3.961-2.578-0.368-5.895-1.149-9.258-1.198-7.093-0.074-14.23 0.184-21.324 0.258-7.414 0.074-14.83 0.693-22.199 0.148-6.909-0.552-13.678-2.351-20.541-3.636-0.148-0.036-0.184-0.416-0.332-0.416-2.762-0.258-5.85-1.426-8.289-0.6-6.402 2.21-12.804 4.697-18.607 8.105-3.040 1.794-7.921 2.715-7.83 8.105 0 0.737-1.242 1.751-2.166 2.21-3.501 1.978-7.139 3.822-10.731 5.711 0.036-0.552 0.036-1.105 0.11-1.706-1.061-0.22-2.166-0.78-3.087-0.596-5.25 1.061-10.363 2.531-15.612 3.452-2.075 0.368-4.468-0.877-6.542-0.509-8.154 1.382-16.258 3.087-24.363 4.652-9.949 1.935-19.941 3.822-29.89 5.757-1.382 0.294-2.808 1.289-4.099 1.105-9.165-1.289-16.949 3.685-25.423 5.434-1.52 0.332-2.671 2.259-3.961 3.452 0.22 0.22 0.509 0.461 0.784 0.693l7.737-2.487c0.184 0.461 0.368 0.968 0.552 1.473-5.388 3.636-10.777 7.278-16.165 10.915-0.22-0.737-0.505-1.473-0.737-2.259-1.935 0.148-4.145-0.332-5.666 0.552-4.652 2.624-9.026 5.757-13.494 8.705-7.278 4.79-14.185 10.224-21.876 14.278-5.527 2.903-12.343 3.271-17.961 6.079-13.218 6.586-26.389 13.494-35.001 26.344-3.18 4.697-6.816 9.074-10.961 14.602-0.964-1.935-1.473-2.996-1.842-3.685-9.994 8.428-13.587 20.126-19.805 30.213-5.666 9.119-11.513 18.514-19.021 26.114-9.074 9.21-20.126 16.442-29.981 24.961-9.766 8.383-11.561 20.678-14.553 32.284-1.198 4.744-2.259 9.487-3.408 14.185-0.552-0.11-1.105-0.22-1.657-0.368 0.148-1.382 0.332-2.808 0.461-4.19-2.347 2.256-3.224 5.113-4.744 7.598-3.271 5.204-6.816 10.224-10.317 15.244-0.921 1.289-2.21 2.303-3.132 3.636-5.481 8.105-10.915 16.258-16.258 24.502-0.921 1.473-1.289 3.318-1.706 5.066-2.166 9.21-4.006 18.514-6.493 27.633-2.303 8.383-5.297 16.581-8.014 24.916l-1.334-0.368c-0.258-0.877-0.552-1.703-0.689-2.166-0.968 5.25-2.394 10.592-2.947 15.981-0.646 6.955-0.368 13.955-0.968 20.91-0.646 7.139 0.784 14.507-3.083 21.324-2.166 3.822-4.054 8.105-4.744 12.389-3.132 18.607-5.481 37.304-15.244 54.208-7 12.204-7.553 26.021-5.113 39.469 3.961 21.969 7.83 43.984 16.488 64.755 0.509 1.246 1.892 2.075 2.671 3.224 2.903 4.422 5.711 8.889 8.567 13.309-0.332 0.294-0.646 0.509-0.968 0.737-1.061-0.505-2.119-0.964-3.132-1.426 4.79 6.356 5.666 14.23 3.408 20.173-2.487 6.677-2.259 11.791 0.646 17.593 0.258-0.505 0.596-1.058 1.566-2.808 0.461 5.113 0.83 8.935 1.149 12.804 0.368 4.099 0.461 8.198 1.149 12.25 3.961 22.797 13.080 43.984 21.050 65.537 7.968 21.646 22.429 39.469 33.946 58.951 6.079 10.317 14.416 19.666 24.547 27.126 11.378 8.337 22.89 16.349 30.857 28.969 5.572 8.842 14.323 15.842 22.106 23.165 12.389 11.652 24.961 23.165 37.904 34.174 20.126 17.086 39.746 35.186 67.149 40.114 1.842 0.368 3.776 0.11 5.618 0.368 6.448 1.149 13.264 1.382 19.159 3.869 6.034 2.535 11.099 7.323 16.717 10.961 0.921 0.6 2.303 0.552 3.452 0.737 1.794 0.332 4.054 0 5.388 0.968 10.822 7.737 22.153 14.278 35.186 17.777 9.303 2.487 18.284 6.034 27.357 9.303 2.992 1.061 5.802 3.776 8.705 3.822 11.238 0.294 21.185 5.297 31.871 7.462 15.706 3.224 31.318 7.507 46.653-1.657 1.657-1.014 4.374-0.461 6.586-0.22 2.21 0.22 4.468 1.566 6.542 1.289 20.632-2.531 41.265-5.297 61.899-7.968 10.363-1.289 20.817-2.44 31.179-3.776 8.244-1.014 16.488-1.892 24.641-3.364 10.27-1.842 20.403-4.19 30.581-6.309 0.505-0.148 1.105 0.036 1.61-0.036 4.79-0.784 10.179-0.461 14.23-2.578 12.25-6.402 24.041-13.771 35.97-20.771 3.636-2.166 6.725-6.309 11.745-2.578 0.461 0.368 2.026-0.412 2.899-0.921 12.389-6.309 25.746-9.487 39.332-11.561 9.58-1.52 13.725-9.026 19.205-15.199 0.552-0.6 0.22-1.982 0.368-3.776-1.935 1.703-3.318 2.903-4.697 4.145-0.412-0.294-0.78-0.509-1.198-0.784 1.43-2.44 2.394-5.434 4.422-7.184 8.474-7.046 16.765-14.323 25.1-21.462 12.343-10.547 21.876-24.274 36.752-32.1 5.666-2.992 9.994-8.521 15.014-12.804 1.014-0.83 2.394-1.289 3.685-1.798 11.378-4.329 22.244-9.165 27.633-21.417 4.652-10.454 9.303-20.91 14.692-30.95 2.624-4.93 6.542-9.349 10.592-13.218 16.304-15.474 33.667-29.936 44.075-50.661 3.592-7.184 8.474-13.678 12.666-20.541 1.289-2.119 2.394-4.374 3.271-6.725 3.636-9.856 7.646-19.666 10.638-29.752 2.812-9.349 4.744-18.975 6.771-28.554 1.521-7.139 2.166-14.462 4.006-21.462 2.487-9.487 7.323-18.607 8.198-28.185 0.921-9.766 2.992-19.114 5.204-28.554 0.921-3.869 3.040-8.014 2.303-11.561-1.61-7.782-5.204-14.602-3.685-23.534z"></path>
    <path fill="#000000" d="M551.023 414.741c-15.153 7.093-33.896-2.026-50.432-10.87-7.093 23.258-8.244 73.090-0.6 94.507 14.602-1.703 29.567-1.105 35.324-1.334 8.337-0.368 14.83-0.258 20.219 0.368 0.332-0.921 0.6-1.842 0.877-2.719 3.501-10.822 1.289-24.088 5.113-34.726 4.559-12.618 9.303-14.185 8.337-29.383-0.737-12.066 1.061-27.864-5.020-37.996-0.036-0.036-0.184-0.184-0.22-0.258-2.996 10.317-7 19.343-13.587 22.429z"></path>
    <path fill="#000000" d="M564.4 635.482c-3.18-3.685-7.507-6.034-13.494-6.034-10.501 0.036-21.508 4.881-28.185 12.85 7.139 1.751 30.672 1.935 35.233-0.332 2.947-1.43 4.974-3.776 6.448-6.493z"></path>
    <path fill="#000000" d="M544.421 375.913c-2.21-1.149-4.283-2.026-5.85-2.21-5.85-0.693-6.677 6.677-11.145 7.921-6.264 1.794-11.836-0.921-18.1 6.309 7.876 2.856 19.066 5.572 22.244 4.744 6.771-1.842 10.408-9.766 12.85-16.765z"></path>
    <path fill="#000000" d="M516.018 511.227c9.21 2.762 21.185 5.25 24.641 4.468 2.394-0.505 4.468-1.657 6.218-3.132-7.323-4.19-19.159-9.074-24.547-8.428-4.054 0.461-4.881 4.099-6.309 7.093z"></path>
    </svg>