<svg xmlns="http://www.w3.org/2000/svg" viewBox="46.581 31.462 988.300 996.178">
    <path fill="#000000" d="M844.326 784.528c-0.461 3.18-0.873 6.171-1.014 8.889-0.416 8.889-6.264 15.612-13.632 15.612h-0.552c-6.171-0.294-12.434-0.83-18.514-1.337-7.278-0.646-14.785-1.289-22.106-1.52-1.105 0-2.256-0.036-3.364-0.036-11.192 0-22.706 1.426-33.896 2.812-11.329 1.382-23.074 2.808-34.726 2.808-1.149 0-2.256 0-3.408-0.036-8.289-0.184-15.89-0.258-23.165-0.258-21.139 0-39.562 0.83-56.372 2.624-7.553 0.83-14.369 3.869-21.553 7.139-4.283 1.978-8.751 3.961-13.402 5.481-5.527 1.794-11.468 2.671-18.698 2.671-5.388 0-10.822-0.461-16.028-0.921-2.762-0.258-5.527-0.505-8.289-0.689-3.636-0.22-7.462-0.332-11.606-0.332-9.026 0-18.238 0.552-27.173 1.061-8.981 0.552-18.238 1.061-27.312 1.061-3.822 0-7.323-0.074-10.731-0.258-9.856-0.552-19.941-1.794-29.706-3.040-9.533-1.198-19.389-2.444-28.969-2.996-15.658-0.921-31.409-2.071-46.701-3.132-30.304-2.166-61.668-4.374-92.801-4.974l-2.903-0.036c-15.29-0.184-15.751-3.545-18.329-22.106l-0.22-1.706c-3.224-22.935 4.652-44.812 12.25-65.905 0.921-2.578 1.842-5.159 2.715-7.691 5.895-16.765 15.244-28.001 24.318-38.825 6.909-8.289 14.046-16.856 19.757-28.049 13.725-26.942 28.692-50.8 44.489-76.038l4.93-7.83c4.881-7.83 9.626-16.442 14.139-24.777 7.876-14.369 16.028-29.245 25.837-41.542 1.706-2.166 3.545-4.513 5.481-7 16.626-21.324 39.148-50.293 62.175-54.253 6.542-14.323 6.493-44.029 6.493-65.951-0.036-7.139-0.036-13.862 0.184-19.114 1.198-28.601 2.303-55.636 7.646-84.512 0.416-2.394 0.921-4.744 1.382-7.093 1.978-10.179 3.915-19.805 3.224-30.074-0.332-4.697-1.289-9.58-2.259-14.278-1.014-5.25-2.119-10.686-2.347-16.074-0.074-2.719 0.184-5.666 0.416-8.567 0.552-5.802 1.105-11.791-1.334-15.060-0.877-1.149-1.982-1.842-5.066-1.842-1.149 0-2.394 0.074-3.636 0.184-1.473 0.074-2.903 0.22-4.329 0.22-2.715 0-4.881-0.416-6.816-1.242-5.204-2.21-10.501-5.113-10.408-10.040 0.036-5.343 6.218-8.198 14.323-11.378 7.046-2.762 14.553-5.343 21.785-5.343 4.836 0 8.935 1.198 12.297 3.501 0.416-0.036 0.83-0.074 1.242-0.074 2.487 0 4.744 1.061 6.586 3.040 10.040 11.006 6.586 57.707 2.531 100.631-0.737 7.876-1.289 14.139-1.289 16.119 0.074 5.020 0.416 9.442 0.737 13.771 0.737 10.317 1.473 20.034-1.887 33.205l-1.061 4.054c-2.947 11.422-5.297 20.403-5.895 32.93-1.105 23.488-2.256 47.76-1.334 71.892v1.149c0.416 10.224 0.877 21.831-3.271 30.995-4.422 9.856-17.317 20.125-28.692 29.154-4.93 3.961-9.626 7.691-12.85 10.822-3.18 3.040-6.586 5.986-9.901 8.796-8.060 6.862-16.397 13.909-21.462 23.488-1.334 2.487-4.422 4.744-7.691 7.139-1.794 1.289-4.744 3.452-5.25 4.374-1.014 1.935-1.014 3.549-0.968 5.572 0.074 2.903 0.184 6.955-3.961 10.638-23.765 20.955-39.516 40.394-54.99 68.254 4.513-1.61 8.751-3.636 13.125-5.757 7-3.364 14.278-6.862 23.12-8.705 1.703-0.332 3.408-0.509 5.066-0.509 7.691 0 13.587 3.636 19.298 7.139 5.527 3.318 10.731 6.493 17.409 6.493 0.461 0 0.921 0 1.382-0.036 2.535-0.148 5.85-1.473 9.074-2.762 4.238-1.706 8.612-3.408 12.85-3.408 0.78 0 1.473 0.036 2.21 0.148 6.079 0.968 9.766 5.481 13.034 9.442 2.624 3.224 5.113 6.218 8.382 7 0.83 0.22 1.751 0.332 2.812 0.332 2.996 0 6.493-0.83 9.856-1.61 3.087-0.693 6.264-1.426 9.349-1.657 0.6-0.036 1.198-0.036 1.842-0.036 4.054 0 8.244 0.83 12.297 1.657 3.64 0.693 7.093 1.382 9.949 1.382 0.693 0 1.382-0.036 1.978-0.148 5.572-0.83 8.244-3.869 11.929-8.060 2.531-2.856 5.388-6.125 9.58-8.889 10.454-6.771 28.278-11.238 39.792-12.020 3.822-0.22 7.782-0.368 12.020-0.368 7.646 0 15.153 0.412 22.383 0.83 5.711 0.258 11.145 0.6 16.672 0.693 2.026-0.784 4.006-1.61 5.986-2.394 8.289-3.408 16.902-6.955 26.252-7.737 2.21-0.184 4.559-0.258 7-0.258 8.796 0 17.731 1.242 26.344 2.444 1.105 0.148 2.166 0.258 3.271 0.412-2.624-2.992-5.113-6.218-7.369-9.766l-1.794-2.762-0.368-0.646c-3.822-0.552-7.507-1.061-9.533-1.289-9.21-1.105-18.422-1.61-29.015-1.61-13.541 0-26.712-1.382-39.423-2.671-8.154-0.83-16.581-1.703-24.825-2.21-1.242-0.036-2.394-0.693-3.132-1.751-0.693-1.014-0.921-2.347-0.509-3.501 3.545-11.284 40.394-18.975 40.76-19.066 2.671-0.461 5.434-0.693 8.198-0.693 10.501 0 20.080 3.318 29.383 6.542 4.744 1.614 9.349 3.224 13.955 4.329-4.329-6.448-8.382-12.297-12.482-17.916-4.606 0.148-9.258 0.22-13.955 0.22-21.508 0-42.279-1.61-58.537-4.559-1.105-0.184-2.119-0.83-2.719-1.794-0.6-0.968-0.784-2.119-0.509-3.224 2.903-11.422 24.134-16.672 42.556-16.672 4.697 0 9.394 0.332 14.001 0.968-0.258-0.332-0.509-0.646-0.737-0.921-2.762-3.592-5.572-7.184-8.337-10.777-0.368 0.148-0.737 0.184-1.105 0.184-0.646 0-1.289-0.148-1.842-0.461-7.876-4.006-16.765-4.513-24.409-4.513-2.856 0-5.666 0.036-8.521 0.148-2.899 0.074-5.802 0.148-8.705 0.148-2.21 0-4.422 0-6.586-0.148-1.842-0.148-3.364-1.426-3.731-3.268-0.83-3.961 0.184-7.83 2.947-11.238 4.79-5.85 14.737-9.901 26.205-10.822-2.996-2.856-6.402-5.297-10.040-7.876-7-4.974-14.23-10.133-18.745-19.159-7.598-15.199-6.309-34.68-5.066-53.517 0.921-13.402 1.842-27.312-0.6-38.782-5.941-27.264-4.697-63.188-3.087-94.736 0.461-9.672 0.258-22.844 0.036-35.601-0.184-11.882-0.368-23.12 0-31.777 1.289-32.837 12.99-47.483 37.857-47.483 3.040 0 6.264 0.184 9.901 0.596 10.638 1.242 16.995 4.467 18.791 9.58 1.473 4.099-0.148 8.612-4.79 13.402-3.545 3.685-7.83 4.099-10.731 4.099-1.703 0-3.364-0.184-4.974-0.332-1.382-0.148-2.812-0.258-4.19-0.258-2.119 0-3.501 0.368-4.606 1.242-7.323 5.941-6.816 18.698-6.356 28.969l0.036 1.061c0.552 14.369-0.258 33.205-1.105 51.443-0.552 12.434-1.105 24.134-1.149 33.805-0.184 27.403 2.119 53.792 7.139 82.991 1.061 6.264 1.473 13.357 1.892 20.91 0.693 12.666 1.426 25.791 5.527 33.989 6.862 13.678 14.139 22.935 25.054 31.825 5.941 4.836 10.592 12.618 15.060 20.173 1.935 3.224 3.776 6.309 5.618 8.935 4.006 5.757 10.731 9.949 17.87 14.369 8.474 5.25 17.27 10.638 22.337 19.482 15.474 26.942 24.777 45.641 32.239 60.701 7.23 14.553 12.896 26.021 20.955 38.225 17.593 26.805 30.722 46.055 51.398 68.622 11.836 12.896 13.725 23.995 15.797 35.785 1.566 9.074 3.224 18.468 9.766 29.845 3.271 5.711 2.119 13.771 0.968 21.553zM1034.196 577.175c-1.657-7.782-5.204-14.602-3.685-23.534 1.473-8.751-4.145-17.224-9.394-24.916v5.204c-0.6 0.036-1.242 0.074-1.842 0.074-0.22-4.145-1.289-8.474-0.596-12.482 2.21-13.218 5.297-26.298 7.646-39.469 0.646-3.731 0.461-7.83-0.416-11.468-2.899-12.159-6.218-24.225-9.58-36.245-2.812-9.994-5.666-19.941-9.074-29.706-2.075-5.85-5.113-11.378-8.014-16.856-1.198-2.256-3.271-4.006-4.836-6.079-0.646-0.877-1.105-1.982-1.473-3.040-2.21-6.218 2.812-12.618-0.693-18.882-1.198-2.071-1.842-4.652-2.119-7.046-0.921-6.909-1.52-13.862-2.303-20.771-0.148-1.198-0.461-2.487-1.149-3.408-3.776-5.297-7.782-10.454-11.513-15.797-0.646-0.968-0.258-2.578-0.461-4.374-8.612-7.737-12.527-19.941-21.601-28.738-8.198-7.876-13.357-18.882-19.896-28.462-4.329-6.309-8.796-12.527-12.99-18.929-3.636-5.572-9.58-9.303-10.179-17.409-0.332-4.329-5.020-8.981-8.751-12.434-7.414-6.955-15.521-13.173-23.349-19.666-0.148 1.149-0.332 2.487-0.461 3.869-0.505 0.184-0.968 0.368-1.473 0.6-3.087-4.606-6.125-9.21-9.303-13.771-2.026-2.947-4.238-5.802-6.356-8.705-1.566-2.166-3.18-4.283-4.652-6.493-2.531-3.731-4.93-7.507-7.414-11.192-0.877-1.289-2.119-2.303-3.040-3.501-3.731-4.974-7.278-10.086-11.284-14.785-1.014-1.198-3.592-1.289-5.481-1.52-2.719-0.368-5.666 0.036-8.244-0.693-11.006-3.18-21.969-6.356-32.746-10.27-4.329-1.566-8.612-4.329-11.929-7.553-10.27-9.856-23.029-16.533-32.607-27.403-5.066-5.757-13.264-8.889-20.357-12.618-7.921-4.145-16.119-7.646-24.274-11.329-4.467-1.982-8.889-4.606-13.587-5.25-9.165-1.337-18.514-1.337-27.771-2.21-10.638-1.014-21.737-0.184-31.593-5.618-10.592-5.802-22.153-4.744-33.574-4.93-0.784 0-1.842 0.184-2.351 0.646-5.113 4.79-10.961 2.762-16.581 1.703-0.83-0.148-1.334-2.256-2.256-3.961-2.578-0.368-5.941-1.149-9.258-1.198-7.139-0.148-14.23 0.148-21.324 0.258-7.414 0.074-14.876 0.693-22.199 0.074-6.909-0.552-13.725-2.351-20.541-3.636-0.148 0-0.184-0.368-0.332-0.368-2.762-0.258-5.85-1.426-8.289-0.6-6.402 2.163-12.804 4.697-18.607 8.105-3.040 1.751-7.968 2.719-7.83 8.060 0 0.784-1.289 1.751-2.166 2.259-3.545 1.978-7.139 3.822-10.731 5.711 0-0.552 0.036-1.149 0.074-1.703-1.061-0.22-2.163-0.83-3.132-0.6-5.204 1.061-10.317 2.535-15.567 3.452-2.071 0.368-4.467-0.873-6.542-0.552-8.154 1.382-16.258 3.132-24.363 4.697-9.994 1.935-19.941 3.822-29.89 5.757-1.426 0.258-2.812 1.289-4.099 1.105-9.165-1.334-16.949 3.636-25.423 5.388-1.52 0.332-2.671 2.256-4.006 3.452 0.258 0.22 0.552 0.461 0.83 0.689l7.737-2.487c0.184 0.509 0.368 1.014 0.552 1.52-5.388 3.636-10.777 7.278-16.165 10.915-0.294-0.737-0.509-1.521-0.784-2.259-1.892 0.148-4.145-0.332-5.618 0.509-4.652 2.671-9.026 5.757-13.541 8.705-7.23 4.836-14.185 10.224-21.831 14.278-5.527 2.947-12.389 3.318-17.961 6.079-13.218 6.632-26.389 13.541-35.049 26.389-3.132 4.697-6.771 9.074-10.961 14.553-0.921-1.935-1.426-2.947-1.798-3.685-9.994 8.428-13.587 20.173-19.805 30.213-5.711 9.165-11.513 18.561-19.020 26.114-9.074 9.258-20.125 16.488-29.981 24.961-9.766 8.428-11.561 20.726-14.553 32.334-1.198 4.697-2.256 9.442-3.408 14.185-0.552-0.148-1.149-0.22-1.706-0.368 0.184-1.43 0.332-2.812 0.509-4.238-2.347 2.303-3.224 5.159-4.744 7.598-3.271 5.204-6.816 10.224-10.317 15.29-0.921 1.289-2.256 2.303-3.132 3.636-5.481 8.105-10.961 16.258-16.258 24.502-0.968 1.426-1.289 3.318-1.703 5.020-2.163 9.21-4.006 18.514-6.542 27.633-2.303 8.428-5.297 16.626-7.968 24.916l-1.334-0.368c-0.258-0.83-0.552-1.657-0.693-2.119-1.014 5.204-2.394 10.547-2.947 15.981-0.693 6.909-0.368 13.955-0.968 20.864-0.646 7.139 0.784 14.553-3.087 21.369-2.163 3.776-4.054 8.060-4.79 12.343-3.087 18.652-5.481 37.352-15.199 54.253-7 12.159-7.553 26.021-5.113 39.469 3.961 21.922 7.83 43.984 16.488 64.755 0.509 1.242 1.887 2.071 2.628 3.224 2.899 4.374 5.757 8.889 8.612 13.309-0.368 0.22-0.646 0.461-0.968 0.693-1.061-0.461-2.119-0.921-3.18-1.426 4.836 6.402 5.711 14.278 3.452 20.219-2.535 6.677-2.256 11.791 0.6 17.547 0.332-0.505 0.6-1.014 1.61-2.762 0.461 5.066 0.83 8.935 1.149 12.757 0.368 4.099 0.461 8.244 1.149 12.297 3.961 22.797 13.080 43.936 21.001 65.537 7.968 21.601 22.476 39.423 33.989 58.951 6.079 10.27 14.416 19.666 24.547 27.080 11.378 8.382 22.89 16.397 30.857 28.969 5.572 8.889 14.278 15.89 22.106 23.213 12.389 11.652 24.916 23.165 37.857 34.128 20.125 17.133 39.792 35.233 67.195 40.16 1.842 0.368 3.776 0.036 5.618 0.368 6.448 1.105 13.264 1.382 19.159 3.869 6.034 2.535 11.099 7.278 16.672 10.961 0.921 0.6 2.303 0.509 3.501 0.737 1.794 0.258 4.054 0 5.388 0.968 10.822 7.737 22.106 14.278 35.186 17.777 9.258 2.487 18.284 6.034 27.357 9.258 2.996 1.105 5.802 3.776 8.705 3.869 11.192 0.22 21.185 5.297 31.87 7.462 15.706 3.224 31.318 7.507 46.656-1.657 1.657-1.014 4.374-0.461 6.586-0.22 2.21 0.184 4.422 1.52 6.542 1.289 20.632-2.531 41.265-5.297 61.899-7.968 10.363-1.334 20.771-2.487 31.179-3.776 8.244-1.061 16.488-1.935 24.641-3.364 10.224-1.842 20.403-4.238 30.581-6.356 0.509-0.074 1.061 0.036 1.61-0.036 4.79-0.737 10.133-0.416 14.23-2.578 12.25-6.402 23.995-13.725 35.924-20.771 3.636-2.119 6.771-6.264 11.791-2.531 0.461 0.368 1.978-0.461 2.903-0.921 12.389-6.356 25.746-9.487 39.285-11.606 9.626-1.473 13.771-8.981 19.252-15.153 0.552-0.6 0.22-1.978 0.368-3.776-1.935 1.706-3.318 2.903-4.697 4.099-0.416-0.22-0.83-0.509-1.198-0.737 1.426-2.44 2.351-5.481 4.422-7.184 8.428-7.093 16.765-14.323 25.1-21.462 12.343-10.547 21.831-24.274 36.706-32.1 5.666-2.992 9.994-8.521 15.014-12.804 1.014-0.877 2.444-1.289 3.731-1.794 11.378-4.329 22.244-9.21 27.633-21.417 4.606-10.454 9.303-20.91 14.692-30.995 2.628-4.881 6.493-9.349 10.592-13.173 16.304-15.521 33.667-29.936 44.075-50.707 3.592-7.139 8.474-13.632 12.666-20.541 1.289-2.075 2.394-4.374 3.224-6.677 3.685-9.901 7.646-19.666 10.686-29.752 2.808-9.349 4.697-19.020 6.771-28.601 1.52-7.093 2.166-14.416 4.006-21.417 2.487-9.487 7.323-18.652 8.198-28.185 0.921-9.766 2.996-19.114 5.204-28.554 0.877-3.869 3.040-8.014 2.303-11.561z"></path>
    <path fill="#000000" d="M306.296 732.21c-6.816 9.442-15.842 22.015-16.626 31.732 2.256 0.148 4.559 0.294 6.862 0.416 9.349 0.509 19.020 1.061 28.233 4.145 1.842 0.646 2.947 2.394 2.762 4.329-0.368 3.224 0.646 4.79 1.473 5.666 1.978 2.21 7.046 4.836 19.989 4.836 9.165 0 19.205-1.289 27.219-2.303 5.343-0.689 9.533-1.198 12.204-1.198 0.332 0 0.646 0 0.968 0.036 14.094 0.784 28.417 2.578 42.279 4.283 18.791 2.347 38.273 4.744 57.155 4.744 2.856 0 5.711-0.036 8.567-0.148 3.592-0.148 7.414-0.22 11.745-0.22 5.572 0 11.192 0.074 16.856 0.22 5.711 0.074 11.468 0.22 17.179 0.22 15.706 0 33.989-0.784 50.523-6.771 18.514-6.725 40.897-14.185 66.090-18.377 5.343-0.921 11.145-1.334 17.777-1.334 9.994 0 20.31 1.014 30.259 1.978 6.862 0.646 13.309 1.289 19.621 1.614 2.715 0.148 5.527 0.258 8.428 0.461 9.533 0.552 20.264 1.149 30.904 1.149 19.573 0 34.174-2.075 45.457-6.493-1.105-1.751-2.762-3.318-4.697-5.159-1.751-1.657-3.731-3.501-5.481-5.757-1.794-2.303-3.408-4.836-4.93-7.876-5.204 1.242-10.454 1.892-15.935 1.892-11.791 0-23.397-2.947-35.692-6.079l-1.657-0.416c-10.777-2.762-22.981-2.899-34.817-3.083-14.323-0.22-29.199-0.461-42.372-5.113-1.566-0.552-2.671-2.026-2.715-3.731-0.148-4.374 1.978-10.638 4.836-14.23 0.6-0.737 1.426-1.242 2.351-1.473 9.626-2.071 20.31-3.040 33.574-3.040 8.154 0 16.488 0.368 24.547 0.737 3.271 0.148 6.542 0.294 9.81 0.368 13.955 0.505 27.633 4.744 40.851 8.842 2.856 0.921 5.666 1.751 8.428 2.578-0.784-2.075-1.61-4.145-2.535-6.125-4.559-9.81-11.791-18.329-19.066-26.482-9.394 4.099-17.547 5.757-28.324 5.757-5.666 0-11.836-0.461-17.686-0.968-2.578-0.184-7.414-0.22-13.034-0.22-31.825-0.036-60.84-1.149-66-13.678-1.935-4.697-0.689-8.154 0.646-10.179 4.099-6.125 15.612-8.935 36.245-8.935 21.969 0 49.233 3.224 65.492 5.159 1.426 0.184 2.856 0.368 4.145 0.505-1.751-2.671-3.318-5.25-4.652-7.83-2.394-4.606-4.329-10.086-6.264-15.337-0.074-0.22-0.184-0.509-0.258-0.784-2.075 0.461-4.374 0.693-6.862 0.693-8.198 0-17.179-2.628-25.837-5.204-6.218-1.842-12.113-3.592-16.717-3.961-2.947-0.258-6.171-0.368-9.901-0.368-3.592 0-7.139 0.074-10.686 0.184-3.636 0.148-7.278 0.22-10.87 0.22-2.119 0-4.283-0.036-6.402-0.148-3.132-0.148-6.264-0.332-9.442-0.505-6.218-0.416-12.666-0.784-18.975-0.784-2.812 0-5.343 0.074-7.83 0.22-11.882 0.693-17.502 3.869-24.641 7.921-2.947 1.657-5.986 3.408-9.766 5.159-6.264 2.899-13.173 3.731-19.85 4.559-6.034 0.737-11.745 1.426-16.995 3.501-14.969 5.986-23.765 7.646-41.035 7.646h-0.877c-33.205 0-65.628-0.368-97.269-4.652-5.434-0.693-10.454-2.21-15.337-3.685-6.356-1.935-12.343-3.731-18.791-3.731-0.737 0-1.473 0.036-2.21 0.074-5.25 0.368-11.606 2.719-17.777 5.020-1.426 0.505-2.856 1.058-4.238 1.566-2.715 6.125-5.388 12.482-7.968 18.607-7.139 17.086-14.602 34.817-24.088 50.016-1.657 2.719-3.961 5.895-6.356 9.258z"></path>
    </svg>