<svg xmlns="http://www.w3.org/2000/svg" viewBox="47.565 31.473 988.247 996.175">
    <path fill="#000000" d="M956.353 515.748c-0.784 0.784-1.798 1.246-2.903 1.246-2.44 0-4.422 0.11-6.034 0.22-3.318 0.646-6.725 1.198-9.81 1.614-11.652 2.303-23.488 6.079-31.363 8.842-23.533 8.198-46.423 13.218-70.647 18.607l-7.553 1.657c-3.318 0.737-6.771 1.473-10.408 2.21-19.389 4.054-43.522 9.074-59.135 20.218-6.125 4.374-11.652 10.27-17.502 16.488-7.553 7.968-15.29 16.258-24.825 21.646-4.606 2.628-8.98 4.374-13.264 6.079-7.184 2.808-13.402 5.297-19.020 11.238-2.166 2.256-4.652 4.93-7.23 7.737-1.566 1.703-3.224 3.501-4.79 5.204 1.751 2.671 3.592 4.93 5.757 6.862 5.666 5.25 11.929 9.901 18.009 14.462 5.85 4.329 11.882 8.842 17.502 13.909 0.505 0.461 0.873 1.014 1.105 1.614 3.685 10.179 12.941 18.238 25.975 22.797 0.332 0.074 0.646 0.184 0.921 0.184 0.184 0 0.332-0.036 0.505-0.11 0.332-0.074 0.693-0.074 1.014-0.074 0.784 0 1.566 0.184 2.259 0.646 5.113 3.408 9.949 6.402 14.416 8.935 1.982 1.105 3.731 2.21 5.434 3.271 4.836 2.992 9.026 5.572 16.165 7.691 4.974 1.473 9.487 3.636 13.357 6.448 0.6 0.416 1.061 0.968 1.382 1.614l0.294 0.6c0.184 0.412 0.412 0.83 0.596 1.289 1.798 4.422 3.822 10.317 3.271 16.717-0.148 1.198-0.737 2.256-1.751 2.947-0.689 0.509-1.473 0.737-2.303 0.737-0.368 0-0.737-0.036-1.058-0.148-1.014-0.258-1.982-0.6-2.947-0.873l-0.552-0.184c-0.693-0.22-1.289-0.646-1.798-1.149-8.198-9.165-19.896-13.862-37.857-15.29-0.784-0.036-1.473-0.332-2.075-0.737-1.703-1.242-2.992-2.719-4.145-4.054l-0.784-0.873c-5.25-5.85-12.343-8.658-19.85-11.652-4.329-1.706-8.842-3.501-13.125-5.895-10.454-5.941-19.113-14.646-27.312-27.403l-0.737-1.105c-6.264-9.766-9.394-14.646-19.573-20.125-1.473-0.784-2.715-1.43-3.776-1.982-1.473-0.784-2.671-1.382-3.776-2.071-10.686 12.389-21.508 26.205-31.134 38.457l-0.596 0.784c-6.586 8.428-8.382 18.238-10.317 28.646-2.075 10.961-4.145 22.29-11.882 32.791-4.974 6.725-10.501 12.618-15.842 18.284-4.836 5.113-9.81 10.408-14.278 16.258-8.474 11.145-9.119 14.369-11.468 26.252l-0.412 2.166c-0.784 4.006-1.566 8.060-2.347 12.204-3.132 16.442-6.356 33.437-11.652 49.97l-0.784 2.394-0.074 0.368c1.105 7.507 1.842 15.014-0.074 23.902-1.014 4.697-2.259 9.626-3.592 14.876-2.119 8.337-4.329 16.995-5.757 25.423-0.332 1.935-2.026 3.364-4.006 3.364-0.036 0-0.148 0-0.184 0l-1.198-0.11c-0.737 0-1.473-0.036-2.21-0.074-1.978-0.036-3.636-1.842-3.915-3.776l-0.036-0.148c-0.184-0.368-0.332-0.784-0.552-1.198-0.693-1.242-0.646-2.719-0.036-3.869-0.184-1.887-0.332-3.822-0.461-5.802-0.784-4.374-1.703-8.658-2.624-12.941-2.531-11.882-5.159-24.179-5.159-38.273 0-21.001 0-34.865-7.23-53.010-3.501-8.751-5.666-18.652-7.782-28.233-2.624-11.975-5.343-24.363-10.592-33.805-2.119-3.731-5.113-7-8.289-10.408-2.347-2.535-4.836-5.204-6.955-8.154-6.034-8.337-8.889-18.054-11.652-27.498-2.026-6.909-3.915-13.448-7-19.438-4.79-9.394-12.159-17.040-19.989-25.145-5.204-5.388-10.592-10.961-15.153-17.133-5.802-7.782-11.652-13.218-17.87-18.929-4.329-3.961-8.705-8.060-13.173-12.99-3.040 2.026-6.218 3.915-9.58 5.85-2.259 1.334-4.606 2.671-7 4.145-9.766 6.034-16.028 15.474-22.106 24.593-7.598 11.422-15.428 23.258-30.165 28.646-12.711 4.652-16.902 11.099-22.199 19.252-3.545 5.481-7.598 11.697-14.737 18.054-7 6.17-15.244 10.822-23.213 15.337-7.184 4.099-14.646 8.289-21.050 13.632-0.737 0.646-1.706 1.014-2.671 1.014-0.148 0-0.294 0-0.461-0.036-1.105-0.11-2.119-0.693-2.812-1.614-0.074-0.074-0.22-0.332-0.332-0.416-0.968-1.657-0.689-3.776 0.689-5.113 1.149-1.058 2.075-2.071 2.899-3.132 2.628-3.361 4.422-6.771 6.309-10.363 3.318-6.264 6.725-12.711 14.416-18.377 2.628-1.887 4.836-3.271 6.632-4.329 4.283-2.628 6.218-3.776 8.889-9.58 0.646-1.289 0.689-3.18 0.689-5.388 0.074-3.087 0.148-6.586 1.887-10.133 6.356-12.757 25.561-23.949 38.273-31.318l2.026-1.198c10.363-6.034 11.329-9.258 13.034-15.105 1.014-3.408 2.259-7.646 5.343-13.080 3.961-7.046 13.402-16.165 28.048-27.173-6.079-4.422-12.389-8.567-18.561-12.573l-1.198-0.83c-40.528-26.528-83.175-43.984-126.883-51.859-6.955-1.242-13.816-2.671-20.448-4.099-4.19-0.83-8.382-1.751-12.573-2.535-0.552-0.148-1.149-0.368-1.614-0.737l-0.596-0.461c-7.598-5.113-17.27-7.507-30.443-7.598-0.461 0-0.873-0.036-1.289-0.184-11.561-3.961-21.232-6.677-30.443-8.521-0.22 0-0.461-0.036-0.689-0.074-0.737-0.11-1.382-0.368-1.982-0.83-1.289-1.105-3.040-2.487-4.93-3.636-1.566-0.968-2.259-2.856-1.751-4.606 0.416-1.382 1.521-2.487 2.992-2.856l1.614-0.368 3.501-0.83c4.836-0.83 9.766-1.935 14.507-3.087 7.691-1.426 15.474-2.762 23.028-4.006l4.606-0.784c12.389-1.242 23.995-3.452 36.292-5.802 6.586-1.242 13.402-2.578 20.31-3.685 47.392-7.782 98.558-33.851 133.099-54.344 12.343-7.369 26.205-15.935 37.213-26.068-2.578-1.105-5.527-2.259-8.935-3.18-10.547-2.856-14.507-4.606-14-11.652 0.148-1.935 0.258-4.374-2.531-9.074-2.21-3.731-10.179-7.414-16.028-10.133-2.671-1.246-5.159-2.394-7.139-3.549l-3.224-1.794c-9.487-5.297-14.692-8.244-16.902-21.462-0.689-4.006-0.737-7.414-0.78-10.454-0.11-6.862-0.11-10.317-7.23-15.337-2.259-1.657-4.467-3.132-6.586-4.606-0.416-0.332-0.784-0.689-1.105-1.105-6.771-10.040-14.737-16.995-24.318-21.232-0.646-0.332-1.242-0.83-1.657-1.426-0.83-1.149-1.61-2.35-2.44-3.592-1.061-1.473-0.83-3.592 0.332-5.020 0.737-0.877 1.473-1.751 2.166-2.671 0.78-1.061 1.978-1.703 3.268-1.703 0.461 0 0.921 0.074 1.337 0.22l1.105 0.416c3.087 1.061 6.264 2.166 9.349 3.636 15.014 7.139 24.686 15.797 35.876 25.886 1.289 1.105 2.762 2.259 4.283 3.408 4.697 3.592 10.085 7.737 12.204 13.771 1.334 3.685 1.061 6.725 0.877 9.21-0.294 3.087-0.368 4.467 2.119 6.816 4.606 4.329 15.29 6.264 24.731 7.968 6.632 1.198 12.941 2.35 17.731 4.283 14.094 5.757 16.949 10.040 21.969 19.113 0.784 1.426 1.657 2.992 2.671 4.697 3.869-2.899 7.462-5.711 10.040-9.303 3.776-5.343 7.323-11.513 10.777-17.502 4.93-8.612 10.040-17.454 16.028-24.088 24.777-27.357 36.199-54.344 49.417-85.617 2.762-6.448 5.527-13.034 8.521-19.805 7.184-16.304 7.184-28.14 7.184-47.76 0-12.85 2.628-23.995 5.204-34.817 0.877-3.776 1.794-7.598 2.578-11.468 0.074-1.798 0.258-3.545 0.461-5.25-0.646-1.198-0.646-2.715 0.148-3.961 0.148-0.258 0.258-0.552 0.368-0.83l0.148-0.258c0.184-1.334 0.412-2.487 0.646-3.685 0.368-1.798 1.842-3.087 3.64-3.271l0.596-0.036c0.074 0 0.184 0 0.22 0l0.368-0.036 1.014-0.11c0.148 0 0.258-0.036 0.412-0.036 1.982 0 3.731 1.473 4.006 3.452 1.334 8.567 3.869 17.547 6.309 26.252 1.337 4.744 2.578 9.21 3.64 13.541 1.887 8.060 1.149 15.105 0.074 21.646 0.258 0.784 0.596 1.566 0.83 2.303 5.343 15.014 8.567 30.488 11.697 45.364 0.78 3.776 1.52 7.462 2.347 11.099l0.412 1.935c2.303 10.686 2.899 13.587 11.378 23.581 4.422 5.297 9.442 10.085 14.23 14.737 5.343 5.159 10.87 10.454 15.842 16.581 7.83 9.58 9.949 19.941 11.975 29.981 1.935 9.349 3.731 18.193 10.27 25.7l0.83 1.014c10.363 11.975 21.969 25.423 33.389 37.213 5.388-6.955 10.454-14.369 14.737-21.737 0.78-1.246 2.119-2.026 3.501-2.026 0.258 0 0.552 0.036 0.78 0.11 0.784 0.148 1.521 0.22 2.259 0.22 2.119 0 7.184-0.646 9.21-6.493 2.762-8.014 3.869-16.349 5.020-25.145 0.689-5.204 1.426-10.638 2.531-15.935 0.461-2.303 0.184-4.467-0.83-6.402-0.646-1.246-0.646-2.719 0.036-3.961 3.224-5.572 7-9.901 11.561-13.309 0.461-0.368 0.83-0.737 1.242-1.198 0.412-0.368 0.877-0.689 1.382-0.873 1.982-0.83 4.054-1.52 6.17-2.166 3.776-1.246 7.414-2.394 10.592-4.422 0.596-0.368 1.061-0.689 1.52-1.061l0.552-0.412c0.294-0.22 0.646-0.416 0.968-0.552l0.461-0.148c0.22-0.074 0.505-0.184 0.78-0.332 7.921-4.19 14.185-11.468 18.561-21.646 0.148-0.294 0.294-0.509 0.416-0.737 0.258-0.416 0.552-0.737 0.921-1.014 0.552-0.416 1.198-0.646 1.887-0.784v0c0.184 0 0.368 0 0.552 0h0.074c2.21 0 4.006 1.798 4.006 4.054 0 0.148 0 0.258-0.036 0.416 0 1.887 0 3.776-0.036 5.666-0.074 13.357-0.258 21.83-3.132 26.389-3.64 5.757-10.179 9.165-16.488 12.434-4.374 2.256-8.567 4.467-11.054 7.093-7.184 7.646-7.921 15.567-6.816 26.712l0.258 2.624c1.842 17.777 1.657 21.601-14.507 37.213-9.21 8.842-19.527 18.791-24.825 29.338 0.921 0.921 1.842 1.798 2.671 2.578 5.618 5.343 11.836 7.598 19.020 10.179 4.283 1.52 8.658 3.132 13.218 5.481 9.533 4.93 17.317 12.389 24.87 19.62 5.85 5.666 11.378 10.961 17.502 14.921 15.612 10.179 39.791 14.737 59.228 18.377 3.636 0.693 7.093 1.334 10.363 2.026l7.646 1.52c24.179 4.836 47.023 9.442 70.511 16.856 5.481 1.703 13.862 4.19 22.89 6.264 7.782 0.784 14.876 1.935 21.646 3.452 0.921 0.036 1.794 0.036 2.715 0.11 2.119 0 3.869 1.657 4.006 3.776v0.509c0.074 0.83 0.148 1.703 0.148 2.487 0.036 1.105-0.368 2.163-1.149 2.947zM1035.097 577.082c-1.614-7.782-5.159-14.553-3.64-23.533 1.473-8.705-4.145-17.224-9.442-24.87v5.159c-0.596 0.036-1.198 0.11-1.794 0.148-0.294-4.19-1.334-8.474-0.646-12.527 2.259-13.173 5.343-26.252 7.691-39.469 0.646-3.685 0.461-7.782-0.416-11.468-2.899-12.159-6.218-24.225-9.626-36.245-2.762-9.949-5.618-19.941-9.026-29.706-2.075-5.85-5.113-11.329-8.060-16.856-1.149-2.21-3.224-4.006-4.79-6.034-0.646-0.921-1.105-2.026-1.473-3.087-2.21-6.17 2.808-12.573-0.693-18.836-1.198-2.119-1.842-4.652-2.166-7.046-0.873-6.909-1.473-13.862-2.259-20.771-0.148-1.198-0.461-2.487-1.149-3.408-3.776-5.297-7.782-10.454-11.513-15.842-0.646-0.921-0.332-2.535-0.461-4.374-8.612-7.737-12.527-19.941-21.646-28.692-8.154-7.876-13.309-18.882-19.85-28.508-4.329-6.309-8.796-12.482-12.99-18.882-3.636-5.572-9.58-9.303-10.179-17.408-0.332-4.374-5.020-8.98-8.751-12.434-7.414-6.955-15.521-13.173-23.349-19.712-0.148 1.198-0.332 2.535-0.461 3.869l-1.473 0.6c-3.083-4.559-6.17-9.165-9.303-13.725-2.026-2.947-4.238-5.802-6.356-8.751-1.566-2.119-3.18-4.238-4.652-6.448-2.535-3.731-4.93-7.507-7.462-11.238-0.83-1.242-2.075-2.256-2.992-3.501-3.731-4.93-7.277-10.040-11.284-14.737-1.014-1.242-3.592-1.289-5.481-1.566-2.762-0.332-5.666 0.11-8.289-0.646-10.961-3.224-21.969-6.402-32.7-10.27-4.329-1.566-8.612-4.329-11.975-7.553-10.224-9.856-22.981-16.533-32.561-27.403-5.113-5.757-13.264-8.889-20.403-12.618-7.876-4.145-16.119-7.691-24.274-11.329-4.422-1.982-8.842-4.606-13.541-5.297-9.165-1.334-18.513-1.334-27.771-2.21-10.686-1.014-21.737-0.148-31.593-5.572-10.592-5.85-22.153-4.744-33.574-4.93-0.78 0-1.842 0.148-2.394 0.646-5.066 4.79-10.915 2.715-16.533 1.703-0.83-0.184-1.334-2.303-2.259-4.006-2.578-0.332-5.941-1.149-9.303-1.198-7.093-0.074-14.185 0.184-21.323 0.258-7.369 0.148-14.83 0.737-22.153 0.148-6.909-0.552-13.725-2.35-20.541-3.636-0.148 0-0.22-0.416-0.332-0.416-2.762-0.258-5.895-1.382-8.289-0.552-6.402 2.163-12.804 4.697-18.652 8.105-2.992 1.751-7.921 2.671-7.83 8.060 0.036 0.737-1.242 1.751-2.119 2.259-3.545 1.978-7.184 3.822-10.777 5.666 0.036-0.552 0.074-1.105 0.148-1.657-1.061-0.22-2.166-0.83-3.132-0.646-5.204 1.105-10.363 2.578-15.567 3.452-2.119 0.368-4.467-0.83-6.542-0.509-8.154 1.382-16.258 3.087-24.363 4.652-9.994 1.935-19.941 3.822-29.936 5.802-1.382 0.258-2.812 1.242-4.054 1.061-9.165-1.289-16.949 3.685-25.423 5.434-1.52 0.332-2.671 2.259-4.006 3.455 0.258 0.22 0.552 0.461 0.78 0.689l7.737-2.487c0.22 0.505 0.412 1.014 0.6 1.473-5.388 3.685-10.777 7.323-16.165 10.961-0.258-0.784-0.509-1.52-0.78-2.256-1.892 0.148-4.145-0.332-5.618 0.505-4.697 2.628-9.074 5.757-13.541 8.705-7.23 4.836-14.185 10.224-21.83 14.278-5.527 2.899-12.389 3.271-17.961 6.079-13.218 6.632-26.389 13.494-35.049 26.389-3.132 4.652-6.771 9.026-10.961 14.553-0.921-1.935-1.426-2.947-1.794-3.685-9.994 8.428-13.587 20.125-19.85 30.213-5.666 9.119-11.513 18.513-18.975 26.114-9.074 9.21-20.173 16.442-29.981 24.961-9.766 8.428-11.561 20.678-14.553 32.334-1.198 4.697-2.303 9.442-3.408 14.185-0.552-0.148-1.149-0.294-1.706-0.368 0.184-1.43 0.332-2.812 0.505-4.238-2.347 2.303-3.224 5.159-4.79 7.598-3.224 5.204-6.771 10.224-10.27 15.244-0.921 1.334-2.259 2.347-3.132 3.636-5.481 8.154-10.961 16.304-16.304 24.547-0.921 1.426-1.246 3.318-1.657 5.020-2.21 9.21-4.006 18.513-6.542 27.633-2.303 8.428-5.297 16.626-7.968 24.916l-1.334-0.368c-0.258-0.83-0.552-1.657-0.689-2.166-1.014 5.25-2.44 10.592-2.947 16.028-0.689 6.909-0.368 13.955-1.014 20.864-0.596 7.139 0.83 14.507-3.040 21.323-2.166 3.822-4.054 8.105-4.79 12.389-3.132 18.652-5.481 37.304-15.199 54.208-7 12.204-7.553 26.021-5.113 39.469 3.961 21.969 7.83 44.029 16.488 64.8 0.509 1.198 1.887 2.026 2.624 3.18 2.899 4.422 5.711 8.889 8.567 13.357-0.332 0.22-0.646 0.461-0.964 0.693-1.014-0.461-2.075-0.968-3.132-1.43 4.79 6.356 5.666 14.278 3.452 20.218-2.531 6.632-2.303 11.79 0.596 17.547 0.332-0.505 0.596-1.058 1.614-2.808 0.461 5.113 0.78 8.98 1.149 12.804 0.368 4.099 0.461 8.244 1.149 12.25 3.961 22.844 13.080 43.984 21.001 65.537 7.968 21.646 22.476 39.469 33.989 58.95 6.034 10.317 14.369 19.712 24.502 27.126 11.378 8.337 22.935 16.349 30.856 28.969 5.618 8.889 14.323 15.89 22.153 23.213 12.389 11.606 24.916 23.12 37.857 34.128 20.125 17.086 39.746 35.186 67.194 40.16 1.794 0.332 3.776 0.036 5.618 0.368 6.448 1.105 13.264 1.382 19.159 3.822 6.034 2.535 11.099 7.323 16.672 11.006 0.921 0.6 2.303 0.505 3.452 0.689 1.842 0.332 4.054 0 5.388 0.968 10.822 7.782 22.153 14.278 35.186 17.777 9.303 2.531 18.329 6.079 27.403 9.303 2.992 1.105 5.757 3.776 8.705 3.869 11.192 0.22 21.185 5.25 31.87 7.462 15.705 3.224 31.318 7.507 46.607-1.703 1.657-0.968 4.422-0.416 6.632-0.22 2.21 0.22 4.422 1.566 6.542 1.289 20.632-2.487 41.219-5.297 61.852-7.921 10.408-1.334 20.817-2.487 31.225-3.822 8.198-1.014 16.488-1.892 24.64-3.364 10.224-1.842 20.357-4.19 30.581-6.309 0.505-0.11 1.061 0.036 1.61-0.036 4.744-0.784 10.133-0.461 14.23-2.578 12.25-6.402 23.995-13.725 35.924-20.771 3.636-2.119 6.771-6.264 11.79-2.535 0.461 0.368 1.982-0.461 2.903-0.921 12.389-6.356 25.745-9.487 39.284-11.606 9.58-1.52 13.771-8.98 19.252-15.199 0.509-0.6 0.184-1.935 0.368-3.731-1.982 1.703-3.318 2.903-4.697 4.099l-1.242-0.784c1.473-2.394 2.394-5.434 4.467-7.139 8.428-7.093 16.717-14.369 25.1-21.508 12.343-10.547 21.83-24.274 36.706-32.1 5.666-2.992 9.994-8.521 15.014-12.757 1.014-0.877 2.394-1.334 3.685-1.798 11.422-4.329 22.29-9.21 27.68-21.417 4.606-10.454 9.303-20.955 14.692-30.995 2.624-4.881 6.493-9.349 10.547-13.218 16.304-15.474 33.712-29.936 44.12-50.661 3.545-7.184 8.474-13.678 12.666-20.541 1.289-2.119 2.347-4.374 3.224-6.677 3.685-9.901 7.646-19.712 10.686-29.751 2.808-9.394 4.697-19.020 6.725-28.601 1.52-7.139 2.21-14.462 4.006-21.462 2.487-9.487 7.369-18.607 8.244-28.14 0.921-9.81 2.996-19.159 5.204-28.553 0.873-3.869 2.992-8.060 2.259-11.606z"></path>
    <path fill="#000000" d="M585.147 506.903c-23.074 13.541-41.449 35.74-58.259 57.293-0.737 1.014-1.935 1.566-3.18 1.566-0.184 0-0.368 0-0.552 0-1.43-0.184-2.628-1.149-3.224-2.44-8.612-20.357-26.85-54.527-52.227-54.527h-0.404c-1.798 0-3.408-1.149-3.915-2.903-0.505-1.751 0.184-3.636 1.751-4.606 13.357-8.382 24.593-19.941 35.463-31.134 8.612-8.842 17.547-18.054 27.403-25.468 0.693-0.552 1.566-0.83 2.444-0.83 0.258 0 0.552 0.036 0.78 0.11 1.149 0.22 2.166 0.921 2.719 1.935 4.054 6.955 9.21 13.862 15.29 20.541 0.22 0.22 0.412 0.461 0.552 0.737 7.691 13.541 20.218 25.145 35.14 32.607 1.334 0.689 2.166 2.026 2.259 3.501 0.036 1.473-0.737 2.899-2.026 3.636zM802.217 504.754c-16.717-3.915-33.946-8.014-48.358-16.581-17.731-10.592-36.798-22.199-56.234-35.094-6.17-4.054-12.85-7.093-19.298-10.040-4.836-2.21-9.766-4.467-14.416-7.139-4.054 4.329-8.658 7.462-14 9.533-3.961 1.52-7.737 1.798-11.422 2.071-5.343 0.368-9.58 0.693-13.725 4.697-1.935 1.887-2.394 4.19-2.996 7.139-0.552 2.671-1.198 5.711-3.132 8.521l-0.258 0.368c-2.624 3.822-4.881 7.093-9.258 9.766-1.061 0.646-2.303 0.921-6.586 0.921-8.567 0-12.482 0-12.482-4.422 0-0.461 0.074-0.921 0.22-1.337-1.657-3.040-3.040-5.618-4.19-8.060-0.148-0.332-0.258-0.646-0.332-1.014-2.394-12.85-0.148-23.258 6.909-31.87 0.552-0.646 1.289-1.105 2.119-1.334 15.89-4.19 33.298-10.133 43.429-22.383-4.19-5.941-8.658-11.652-13.357-17.64-7.139-9.119-14.553-18.561-20.955-28.969-5.204-8.428-10.133-17.502-14.921-26.298-9.258-16.995-18.836-34.587-30.765-48.542-8.428-9.856-15.935-22.567-21.646-36.476-1.566 3.271-3.364 6.402-5.204 9.626-2.719 4.79-5.527 9.766-7.968 15.705-2.075 5.113-2.762 8.658-3.364 11.79-1.061 5.572-1.982 10.363-9.258 18.652-25.1 28.553-43.061 53.287-53.378 73.503-4.881 9.487-9.994 17.408-15.842 24.502 1.058 0.368 2.119 0.646 3.224 0.921 2.719 0.693 5.297 1.198 7.737 1.657 9.349 1.794 17.408 3.361 24.225 14.278 2.21 3.501 3.318 8.658 4.422 13.678 0.784 3.776 2.303 10.777 3.869 11.561 1.105 0.505 1.935 1.473 2.259 2.624 0.332 1.198 0.074 2.44-0.596 3.452-2.303 3.224-2.903 4.974-3.271 6.125-1.149 3.271-2.624 4.513-6.586 5.481-0.332 0.036-0.646 0.074-0.968 0.074-1.198 0-2.394-0.552-3.132-1.52-9.81-12.113-26.205-27.080-40.76-37.304-2.303-1.566-5.113-2.715-7.968-3.685-7.507 6.218-15.89 12.066-25.468 18.791l-3.087 2.163c-12.113 8.474-25.514 13.678-38.457 18.745-6.862 2.624-13.309 5.159-19.62 8.105-36.89 17.454-78.432 31.916-118.776 41.496 39.193 8.289 74.517 18.975 112.79 38.916 6.264 3.271 12.711 6.034 19.527 8.98 12.99 5.572 26.389 11.329 38.502 20.678 1.798 1.382 3.501 2.762 5.204 4.099 4.606-3.040 8.244-6.079 11.652-10.27 1.105-1.43 2.21-3.549 3.364-5.802 1.887-3.685 4.006-7.876 7.323-10.87 10.179-9.119 20.817-9.856 30.856-9.856 1.751 0 3.545 0 5.527 0.036 2.166-1.061 5.066-1.703 7.737-1.703 3.961 0 7.23 1.382 9.21 3.869 2.119 2.715 2.671 6.402 1.614 10.961-1.982 8.337-14.369 13.357-29.11 18.607-3.132 1.105-5.85 2.071-7.414 2.808-13.264 6.264-16.995 10.638-22.060 20.91 2.808 2.071 5.895 3.869 9.119 5.757 6.448 3.776 13.125 7.691 18.745 14.278 0.368 0.461 0.646 0.964 0.83 1.473 2.026 6.955 4.374 14.278 8.244 20.587 3.087 5.066 7.462 9.303 13.357 13.034 0.646 0.412 1.149 0.968 1.473 1.61 13.494 27.219 26.805 49.188 39.653 65.307 7.782 9.81 11.006 21.278 14.139 32.423 1.382 4.836 2.808 9.856 4.559 14.646 2.44 6.586 5.297 12.113 8.014 17.408 1.794 3.452 3.545 6.862 5.113 10.408 5.666-15.29 13.125-29.245 21.508-40.069 11.975-15.428 21.553-34.865 30.811-53.608 4.79-9.717 9.766-19.712 14.921-29.015 6.402-11.468 13.816-21.876 21.001-32.009 2.026-2.856 4.006-5.666 5.986-8.521-0.693-0.416-1.382-0.83-1.982-1.149-9.442-5.618-9.901-6.909-11.836-18.745l-0.646-3.961c-1.794-10.777-6.356-16.949-15.244-20.632-4.697-1.935-9.258-2.762-13.632-3.592-9.394-1.703-19.113-3.501-22.797-17.593-1.657-3.731-2.715-11.975-0.332-17.686 2.026-4.836 6.17-7.507 11.652-7.507 1.473 0 3.083 0.184 4.79 0.552 5.113 1.198 9.074 7.369 13.264 13.862 2.075 3.224 4.19 6.542 5.711 7.876 5.388 4.697 8.842 5.802 14.046 7.462 2.21 0.737 4.744 1.52 7.691 2.719 13.494 5.434 24.547 14 32.334 25.009 7.277-6.909 15.981-11.284 24.363-15.474 6.448-3.271 13.125-6.586 19.298-11.099 19.482-14.278 38.548-27.035 56.234-38.686 14.416-9.487 31.686-14 48.404-18.329 4.79-1.246 9.533-2.487 14.185-3.822 4.513-1.334 9.119-2.578 13.725-3.731-4.606-1.058-9.165-2.166-13.632-3.318-4.652-1.242-9.442-2.347-14.185-3.501z"></path>
    </svg>