<svg xmlns="http://www.w3.org/2000/svg" viewBox="-19.163 -16.959 1176.776 1120.959">
    <path fill="#000000" d="M850.073 1008.114c-0.292 0-0.607 0-0.858 0 2.822 0.521 2.723-0.292 3.779-2.215 4.134-7.205 3.123-18.945 3.729-26.905 0.602-8.367 1.609-16.776 1.609-25.189 0-11.893-2.422-23.43-4.785-35.011-6.25-30.431-11.385-61.064-14.108-92.044-2.422-27.009-5.19-54.058-5.34-81.164-0.085-25.039-1.46-49.879-2.368-74.863-0.903-25.59-0.804-51.442 0-77.032 0.908-27.003 3.93-53.806 3.828-80.855-0.472-96.829-0.085-193.612-0.085-290.441 0-27.558 1.51-55.672-0.21-83.229-0.607-9.169-2.467-17.834-2.516-27.055-0.041-5.741 0.041-11.486 0.085-17.181 0-6.045 1.411-13.95-0.252-19.746-1.312 0.126-3.93-1.007-5.037-1.613-2.921-1.658-3.073-2.368-6.599-2.422-4.338-0.041-8.97-0.553-13.25 0.252-5.392 0.957-8.97 2.615-14.715 2.566-5.236-0.041-10.53-0.652-15.768-1.11-14.457-1.209-28.915-2.67-43.326-4.384-13.553-1.609-27.101-1.357-40.71-2.314-19.494-1.465-39.497-0.333-59.094-0.333-11.436-0.041-22.717-0.706-34.11-1.209-13.502-0.66-27.049-0.166-40.505-0.166-14.108 0-28.915-1.41-42.87 0.751-10.732 1.712-21.51 2.97-32.297 3.882-27.708 2.422-55.265 5.941-82.973 8.010-13.456 1.052-26.905 0.957-40.305 2.615-6.146 0.804-13.101 1.258-18.991 3.374 7.91-0.292 15.619 1.362 23.529 1.312 7.102-0.041 14.206 0.252 21.262-0.706 8.665-1.209 16.976 0.21 25.692 0.557 11.338 0.521 22.67-0.085 34.009 0.041 14.36 0.21 28.715 1.155 43.121 1.357 13.954 0.21 27.861 1.41 41.913 1.41 15.269-0.041 30.535-0.041 45.798-0.041 13.101 0 26.197 0 39.297-0.041 11.133-0.041 22.27 1.11 33.402 1.564 15.968 0.602 31.691 2.467 47.71 2.467 16.22 0 32.245-0.041 48.316 2.615 9.27 1.514 18.538 4.534 27.861 5.294 4.080 0.377 8.413-0.607 12.392 0.21 0.085 1.964-2.013 4.338-2.67 6.25-1.766 5.14-2.265 11.235-2.57 16.575-0.418 7.607 0.804 15.064 1.815 22.521 1.964 14.36 4.534 28.365 7.457 42.572 2.422 11.687 4.837 23.529 6.044 35.416 1.159 11.087 1.712 22.116 3.222 33.151 2.871 21.155 3.873 42.52 5.643 63.782 1.761 21.108 4.134 42.165 5.34 63.375 1.465 25.698 4.23 51.34 4.785 77.13 0.553 27.358 4.134 54.413 5.19 81.719 0.804 20.857 0.333 41.867 0.333 62.722-0.085 43.228 3.473 86.658 1.11 129.882-1.007 18.235-5.643 36.172-6.394 54.459-0.656 17.279-0.607 35.113 0.903 52.29 3.222 36.93 7.708 73.603 13.651 110.232 3.93 24.285 7.858 48.87 13.553 72.802 0.804-0.521 1.51-0.908 6.348-15.922z"></path>
    <path fill="#000000" d="M331.154 109.636c0.706 0 1.164-0.292 1.41-0.858-0.085 5.695 1.465 11.939 2.070 17.68 2.010 19.098 1.86 38.141 1.86 57.332-0.041 24.886-0.472 49.777 1.159 74.611 1.712 26.55 4.332 52.896 8.367 79.195 8.361 54.762 18.441 109.123 27.656 163.735 8.465 49.931 13.599 100.309 19.751 150.538 5.088 41.31 6.75 83.076 6.75 124.638 0 17.788 0.166 35.37-1.312 53.102-1.357 16.277-3.527 32.646-3.873 48.969-0.333 14.561-1.712 28.823-2.777 43.332-1.209 16.47-2.161 33.602-6.296 49.622-2.116 8.162-5.242 15.922-7.052 24.233-1.11 5.135-1.815 10.227-2.615 15.413-0.377 1.964-0.377 4.534-1.658 6.198-1.465-0.418-1.865-12.695-1.964-13.651-1.712-14.859 0.903-29.727 1.052-44.487 0.166-13.903 0.467-27.959-0.377-41.816-1.258-22.619-1.258-45.238-2.723-67.908-3.276-50.43-3.028-101.167-11.235-151.138-4.837-29.424-8.367-58.699-11.641-88.37-2.772-24.485-5.438-49.015-7.304-73.65-1.609-21.463-3.325-42.777-3.93-64.29-0.706-24.233-5.134-48.163-6.394-72.293-0.607-10.83-0.333-21.565-1.518-32.343-1.209-11.133-2.867-22.17-4.080-33.304-3.019-27.404-3.118-54.81-4.933-82.268-2.373-36.326-1.667-72.699-1.667-109.123 0-9.672 0-19.396 0-29.070 0-3.473-0.602-7.708 0.21-11.133 0.607-2.67 2.314-4.682 2.768-7.406 2.17 0.521 0.418 3.626 0.908 5.288 0.553 1.712 2.368 2.116 9.369 9.221z"></path>
    <path fill="#000000" d="M1019.898 380.381c-2.116-0.041-3.424 0.041-5.236-0.607-2.777-1.007-5.192-3.374-7.812-4.687-11.385-5.741-23.072-5.895-35.314-7.91-10.53-1.761-20.25-2.822-30.986-2.718-9.626 0.126-19.093-1.061-28.715-1.41-8.814-0.377-16.626 1.86-25.29 3.27-10.125 1.667-20.25 2.116-29.778 6.198-33.807 14.463-69.373 23.329-104.235 34.713-20.404 6.651-41.718 13.296-63.030 16.17-21.611 2.921-43.173 3.374-64.937 3.428-29.825 0.126-60.559-9.375-88.925-18.287-33.648-10.582-66.095-24.84-99.804-35.37-16.271-5.088-32.944-6.553-49.57-10.079-11.087-2.368-22.321-2.768-33.608-3.93-11.636-1.155-22.567-2.768-34.255-2.67-13.403 0.041-27.26-0.751-40.505 1.564-14.916 2.67-28.617 11.286-43.028 15.671-8.26 2.467-15.968 6.651-23.529 10.68-6.547 3.473-13.651 5.34-20.554 7.91-11.133 4.080-21.565 6.091-33.504 5.386-9.421-0.557-19.95-5.236-26.648-11.939-1.312-1.357-2.070-3.172-3.222-4.584-1.213-1.465-3.028-2.516-3.932-4.134-0.903-1.51-1.555-4.785 0.126-6.045-2.269 0.166-3.68-0.21-5.443 1.258-3.473 2.876-4.682 10.377-6.044 14.411-1.609 4.733-3.325 11.286-2.718 16.375 0.652 6.091 5.992 7.102 9.066 11.687-1.86 0.521-4.482 0.377-6.296-0.166-3.374-0.908-6.75-1.712-10.48-1.11-10.726 1.712-13.6 12.849-17.43 21.617-4.482 10.227-4.43 20.456-3.976 31.289 0.252 6.449 2.413 11.789 5.288 17.531 2.368 4.687 6.25 9.27 8.11 14.206-0.377-4.179-1.002-10.177 1.007-13.902 2.17-4.030 5.998-7.304 8.517-11.189 3.374-5.236 6.244-10.073 10.83-14.36 8.563-7.904 18.744-14.76 29.172-19.95 7.755-3.878 16.672-5.741 24.782-8.912 8.419-3.231 16.626-6.605 25.293-9.123 16.323-4.682 31.993-9.57 48.815-12.288 17.233-2.777 34.861-5.192 52.346-5.49 17.279-0.377 35.216-0.961 52.397 0.957 6.449 0.751 12.494 2.166 18.79 3.725 9.221 2.22 18.59 3.729 27.811 5.946 19.191 4.635 37.631 11.939 56.273 18.492 21.36 7.555 42.27 16.523 63.684 23.93 16.22 5.591 32.441 8.814 49.319 11.991 10.783 2.010 21.314 4.53 32.245 5.741 13.25 1.46 26.5 2.867 39.8 4.125 12.448 1.213 24.891 0.755 37.334 0.755 12.144 0 24.438 0.472 36.527-0.085 18.94-0.858 40.001-0.858 57.887-7.509 7.858-2.876 15.916-4.887 23.878-7.607 6.651-2.269 13.048-5.134 19.901-6.697 7.601-1.766 15.162-3.428 22.717-5.34 7.41-1.865 14.813-2.116 22.368-2.925 12.448-1.303 26.298-3.976 38.243 0.961 5.741 2.417 12.843 5.386 14.807 11.584 1.667 5.242 4.785 10.983 0.656 15.768-2.57 2.97-6.399 8.115-9.975 10.027-2.62 1.41-4.184 1.465-6.096 3.882 1.964-0.21 4.281 1.002 6.198 1.51 6.548 1.712 13.049 4.080 19.849 4.832 7.555 0.858 15.814 0.553 23.477 0.252 5.392-0.166 11.133-0.858 15.768-3.882 4.534-2.921 7.956-7.607 11.235-11.789 3.222-4.030 6.804-8.413 7.761-13.651 1.465-7.555 0.652-17.129-3.428-23.627-4.939-7.962-14.504-16.277-23.072-20.1-6.296-2.822-13.25-5.34-20.199-5.443-5.946-0.041-11.436 1.213-16.83-2.116-7.755-4.785 3.68-9.323 7.91-10.983 5.643-2.314 10.53-5.689 16.724-6.501 7.159-0.903 14.663-0.126 21.868-0.21 5.946-0.041 10.983 0.755 16.626 2.615 5.088 1.77 9.215 4.785 14.056 7.052 11.235 5.34 24.233 8.82 36.629 9.020 7.206 0.166 15.717 1.164 22.573-1.51 5.037-1.964 13.198-5.848 16.118-10.634 3.222-5.288 4.134-12.34 7.154-17.932 2.471-4.636 4.184-7.962 3.729-13.35-0.166-2.070-6.301-20.81-9.221-17.536-0.858 0.957-0.804 5.546-1.41 6.954-2.010 4.939-4.636 9.77-8.814 13.147-6.75 5.34-12.597 6.856-20.857 7.962-6.146 0.804-12.19 2.97-18.492 2.467-7.050-0.521-14.458-4.125-21.308-5.895-4.286-1.312-8.67-2.215-13.152-2.723-2.97 0-4.687 1.514-5.134 4.488z"></path>
    <path fill="#000000" d="M950.93 652.432c0.041-3.882 0.085-7.154 5.294-5.14 1.91 0.81 3.779 3.482 4.939 5.042 1.815 2.314 4.636 5.591 5.54 8.361 0.908 2.876 0.252 6.903 0.21 9.929-0.085 4.43-0.418 8.413-2.57 12.442-4.635 8.562-15.922 14.509-24.834 17.181-6.903 2.116-13.353 2.723-20.456 2.624-5.848-0.041-11.893 0.957-17.382-1.518-6.599-2.921-13.805-9.976-14.509-17.43-0.553-5.993 0.085-8.563 5.392-11.235 3.981-2.013 7.659-0.553 11.486-1.91-2.615-2.265-4.584-2.265-7.807-3.374-2.871-1.007-5.14-1.514-8.162-1.712-3.473-0.166-6.651-1.362-10.125-1.41-6.096-0.166-7.257 2.467-10.177 6.697-1.51 2.17-4.030 3.123-5.54 5.34-1.41 2.17-1.667 4.286-3.783 6.044-2.215 1.766-5.037 2.723-7.653 3.527-2.67 0.908-5.088 2.777-7.659 3.527-3.123 0.908-7.406 0.21-10.582 0.21-3.824 0-7.858 0.418-11.636 0.126-6.599-0.557-14.005-4.134-20.101-6.697-4.837-2.018-9.929-3.985-14.966-5.242-5.992-1.465-11.029-4.080-16.878-5.998-11.332-3.725-22.922-6.599-34.41-10.073-12.69-3.828-25.085-6.75-38.433-6.651-9.827 0.085-19.65 0.041-29.423 0.041-9.724 0-19.598-1.061-28.921 1.761-7.76 2.37-15.115 5.192-22.619 8.162-7.258 2.925-13.707 6.451-20.609 10.027-2.921 1.51-5.69 2.822-8.26 4.89-1.815 1.46-3.626 3.172-5.643 4.378-4.384 2.723-8.67 3.374-13.553 4.23-6.198 1.11-12.242 1.159-18.59 1.061-7.252-0.166-14.056-3.729-19.648-8.311-9.071-7.509-19.546-14.411-30.483-18.945-9.020-3.725-18.486-7.102-28.057-9.117-4.134-0.903-10.33-2.067-14.411-0.557 0.652 1.564 2.921 2.624 4.384 3.527 5.134 3.276 9.874 6.697 14.308 10.83 5.19 4.887 8.162 8.968 7.858 16.225-0.166 4.837-0.652 7.607-5.49 8.665-8.361 1.815-18.636 0.252-27.049 0.377-4.991 0.041-9.169 0.166-13.908-1.312-6.449-1.964-12.947-2.166-19.344-3.878-6.296-1.766-12.243-5.49-18.39-7.812-5.438-2.018-11.030-3.779-16.421-5.946-7.205-2.921-13.954-5.895-21.611-7.708-6.347-1.46-12.75-3.828-19.35-3.981-5.242-0.166-10.53 0.041-15.717 0.041-6.651 0-13.805-0.809-20.358 0.252-2.768 0.706-5.54 1.411-8.26 2.17-2.215 0.166-4.43 0.333-6.651 0.472-2.867 0.706-5.288 2.718-8.208 3.527-3.428 0.903-6.902 1.411-10.177 2.822-4.23 1.815-7.956 4.635-12.042 6.75-22.922 11.887-46.898 20.958-72.75 23.575-4.682 0.521-10.377 1.061-15.064 0-3.073-0.652-3.27-1.357-4.985-3.626-3.222-4.333-8.162-8.064-10.428-12.947-1.865-4.030-1.51-8.116-1.613-12.34 0-2.319-0.377-2.777 1.258-3.985 0.961-0.755 3.783-1.41 4.99-1.362-3.882 0.126-7.91 0.377-11.841-0.252-8.259-1.258-14.859-1.052-23.020 0.81-5.49 1.209-10.732 1.555-15.115 5.386-3.374 2.97-6.296 7.206-8.064 11.338-1.41 3.222-2.718 7.252-3.68 10.628-0.602 2.116-0.706 5.643 0 7.709 0.908 2.422 4.080 4.687 5.443 6.856 1.564 2.516 1.964 4.785 4.43 6.75-4.332 0.418-8.511-1.815-12.993-1.51-7.761 0.553-12.947 6.244-17.331 11.939-11.035 14.406-17.885 33.45-8.614 50.532 1.609-0.521 0.607-1.362 0.858-2.876 0.521-3.172 1.258-4.030 3.93-6.045 5.689-4.28 10.227-9.924 16.323-13.753 9.066-5.695 19.047-8.010 29.322-10.582 8.11-2.013 17.983-2.215 26.191-0.957 6.651 1.007 13.101 3.572 19.849 3.779 10.079 0.292 20.152 0.041 30.081-1.411 11.688-1.663 23.072-3.172 34.662-5.34 6.548-1.159 13.245-2.116 19.546-4.134 7.252-2.314 13.753-6.244 21.057-8.361 12.849-3.631 25.795-6.599 38.794-9.724 13.799-3.329 27.404-4.23 41.512-5.294 27.861-2.010 57.229-3.626 83.928 6.599 16.73 6.451 33.556 14.010 51.493 16.678 9.87 1.51 19.849 2.615 29.721 4.030 7.56 1.061 15.67 0.252 23.277 0.252 9.929-0.041 19.798-0.041 29.727 0 12.998 0.041 24.736-0.908 37.431-4.286 11.991-3.172 23.627-6.599 35.216-10.983 15.717-5.895 32.19-15.367 49.37-15.315 5.695 0 15.269-0.418 19.798 3.981 2.67 2.566 2.723 7.405 3.527 10.68 1.11 4.682 3.028 8.311-0.292 12.494-1.51 1.865-7.555 6.045-4.985 8.918 1.258 1.357 12.392-2.17 13.651-2.777 2.368-1.11 4.785-3.172 6.697-4.939 2.925-2.822 2.67-4.887 2.57-8.762-0.166-4.436-1.609-9.020 2.422-11.338 5.49-3.172 14.966-3.325 21.108-3.019 4.636 0.252 9.066 1.357 13.753 1.46 5.998 0.166 11.235-0.085 17.131 1.213 9.421 2.067 18.486 5.288 27.959 7.405 10.53 2.319 19.648 7.555 29.573 11.59 10.83 4.384 22.218 11.030 33.854 12.797 5.895 0.858 12.090 0 18.090 0.472 5.992 0.472 11.789 1.303 17.885 1.155 6.045-0.166 11.636-1.411 17.531-2.768 7.812-1.815 16.375-1.613 23.93-4.179 3.882-1.258 7.91-3.073 11.538-4.837 4.785-2.314 10.125-4.733 14.663-7.457 6.553-3.93 13.1-9.724 15.973-16.93 3.019-7.807 5.19-14.663 3.222-23.020-1.613-6.85-5.49-14.31-8.768-20.554-3.325-6.399-11.332-14.010-17.129-18.338-14.108-10.474-30.786-4.28-46.405-9.519z"></path>
    <path fill="#000000" d="M627.089 213.166c2.615 0.858 6.804-3.976 9.066-5.236 11.945-6.4 22.573-12.294 36.224-14.864 12.448-2.368 24.69-2.067 37.282-2.822 8.265-0.472 16.529-1.11 24.886-1.155 22.018-0.292 40.51 6.697 60.307 15.315 7.509 3.222 15.214 5.643 22.876 8.413 7.755 2.876 15.012 6.804 22.77 9.724 16.776 6.347 33.905 6.449 51.539 6.599 7.807 0.126 16.369 0.858 23.728-2.467 5.438-2.525 9.929-5.998 14.509-9.827 4.134-3.424 8.367-6.198 12.797-9.169 2.319-1.559 5.998-2.921 6.703-5.992-1.613 1.007-1.267 2.215-1.667 3.828-1.609 6.096-4.482 12.442-6.75 18.338-2.615 7.052-7.406 11.584-12.592 16.826-5.849 5.895-10.983 10.53-18.59 14.056-7.761 3.577-15.367 6.25-23.884 7.659-9.62 1.609-19.29 1.159-29.013 1.209-8.82 0.126-17.079-0.652-25.744-2.516-10.382-2.269-20.003-6.599-30.231-9.421-10.279-2.876-20.404-4.99-30.226-9.323-7.91-3.527-15.064-5.895-23.729-6.645-9.724-0.908-19.705-2.422-29.475-2.471-8.010-0.041-15.619 2.516-23.323 4.534-8.768 2.215-17.233 3.073-26.25 3.473-7.858 0.333-15.619 1.919-23.477 2.422-10.428 0.706-20.204-1.815-30.226-4.534-5.042-1.357-16.323-3.93-16.981-10.68 3.222 3.028 8.311 4.785 12.242 7.304z"></path>
    <path fill="#000000" d="M195.784 813.043c4.785 0.957 11.235-5.037 14.555-7.257 6.804-4.53 14.612-5.69 22.419-7.653 12.448-3.073 24.736-5.741 37.483-7.154 14.61-1.663 27.404-2.471 41.913 0.903 11.991 2.723 25.493 4.99 36.681 10.177 6.146 2.876 10.073 7.102 15.413 11.235 7.812 6.044 16.678 10.079 25.646 14.16 8.768 4.030 17.028 7.555 26.654 9.020 10.778 1.71 22.367 1.71 33.247 1.86 25.949 0.377 52.146-0.706 76.882-9.369 12.546-4.436 24.135-11.739 35.869-17.937 10.68-5.69 21.715-11.030 31.892-17.628 6.799-4.436 11.584-11.39 18.538-15.321 3.073-1.761 6.399-2.867 9.822-3.68-3.473 2.116-5.386 7.006-7.206 10.48-3.172 6.146-5.49 11.893-9.62 17.582-4.23 5.895-8.918 12.144-13.955 17.331-4.733 4.785-10.33 10.279-15.567 14.561-5.793 4.785-12.901 7.601-18.893 12.191-5.242 4.030-9.323 9.020-15.465 11.789-6.553 3.028-14.715 4.23-21.663 6.198-12.294 3.473-24.69 6.146-37.535 5.695-4.887-0.166-9.020-1.465-13.701-2.777-4.89-1.357-9.828-2.010-14.715-3.63-3.93-1.312-7.91-3.276-11.888-4.125-2.62-0.561-5.294-0.085-7.91-0.377-5.848-0.521-11.087-1.159-16.981-1.159 11.189 0.085 21.869 4.785 28.519 14.056 2.314 3.276 4.23 6.347 6.045 9.827 2.116 4.125 4.831 7 7.457 10.68 1.312 1.86 4.832 7.807 3.981 10.027-2.67-0.561-4.384-2.925-6.553-4.384-6.25-4.134-13.651-7.962-20.502-10.983-6.902-3.078-13.502-4.184-21.062-4.080-7.807 0.085-15.968-0.755-23.729 0.252-7.457 1.007-14.561 3.878-21.663 6.244-7.962 2.674-17.582 2.422-25.795 0.706-13.707-2.867-25.091-11.939-34.815-21.458-9.924-9.724-23.523-14.411-36.27-19.294-9.519-3.68-20.707-4.733-30.93-3.527-4.589 0.553-10.177 3.276-13.302 6.804-2.867 3.271-2.867 7.956-2.822 12.090 0.085 4.080-1.11 9.472 1.465 12.849 2.17 2.768 6.804 5.941 10.227 6.851-18.287-2.368-36.573-5.741-50.63-18.991-3.527-3.329-9.323-8.311-11.436-12.947-1.964-4.179-1.564-9.169-1.51-13.651 0-6.296 1.712-8.968 6.25-12.998 12.947-11.486 29.671-17.932 45.691-23.832z"></path>
    </svg>