<svg xmlns="http://www.w3.org/2000/svg" viewBox="-7.289 -32.000 1161.578 1136.000">
    <path fill="#000000" d="M428.705 644.824c-37.332 0-67.344-30.174-67.344-67.344s30.012-67.344 67.344-67.344c37.17 0 67.344 30.174 67.344 67.344s-30.174 67.344-67.344 67.344zM215.693 475.814l-73.85 113.256v434.93h130.092v-269.58h321.998v269.58h112.606l2.888-438.59-63.888-110.694-216.834-150.142z"></path>
    <path fill="#000000" d="M185.965 990.654h431.758v33.346h-431.758z"></path>
    <path fill="#000000" d="M629.029 750.802l-364.414 273.198-20.822-27.612 364.576-273.24z"></path>
    <path fill="#000000" d="M243.793 750.802l364.576 273.198 20.658-27.612-364.414-273.24z"></path>
    <path fill="#000000" d="M668.273 448.648l122.326 196.014 31.436-20.78-129.604-206.384-1.586 1.138 0.284-0.326-263.682-172.060-0.65 1.302-252.744 172.020v0.326l-1.586-1.098-99.756 165.838 31.314 20.944 92.598-155.834 231.76-161.69z"></path>
    <path fill="#000000" d="M1074.289 188.91c0-77.836-72.264-140.91-161.69-140.91-89.304 0-161.732 63.074-161.732 140.91 0 6.344 0.65 12.728 1.586 18.91v816.18h321.836v-835.090z"></path>
    </svg>