<svg xmlns="http://www.w3.org/2000/svg" viewBox="-42.723 -47.994 977.425 1153.247">
    <path fill="#000000" d="M289.157 664.087c0.163-1.276 0.621-2.601 0.95-3.889-0.329 0.117-0.492 0.117-0.784 0.351-0.492 1.276 0.163 2.272-0.163 3.551z"></path>
    <path fill="#000000" d="M746.209 680.374c-0.951 1.447-1.943 2.935-2.893 4.216-2.439 3.224-5.497 5.952-7.604 9.507-1.901 3.72-2.728 8.556-5.456 11.656-2.769 2.893-6.944 4.009-10.828 4.836-33.768 7.895-69.107 10.788-103.661 7.728-24.22-2.232-51.499-10.003-61.667-31.784-3.555-7.604-5.663-18.103-6.612-26.328-2.604-20.831 19.839-36.992 38.563-36.992 22.279 0 35.835 13.268 50.714 54.766-2.439-14.88 4.671-29.387 3.72-44.267-0.827-15.955-10.828-30.172-23.435-40.010-12.564-9.879-15.335-10.828-30.007-16.823-11.78-4.505-45.879-6.779-54.599 2.273-13.723 14.384-19.343 17.276-29.222 41.002 1.612-7.728-0.165-25.503 0-30.338 0.331-12.111 2.108-24.22 1.488-36.331-4.547-79.937-21.823-101.388 18.888-45.383 3.555 5.001 10.168 6.944 14.508 10.995 11.944 11.448 26.659 21.616 43.11 21.616 4.836 0 9.672-0.785 14.219 0 14.052 2.935 21.451 20.5 35.504 22.608 5.663 0.827 11.944-0.785 16.947 1.777 3.265 1.943 5.167 5.497 7.44 8.72 7.771 12.276 19.055 22.279 32.115 28.602 9.383 4.505 19.384 6.944 28.767 11.284 13.227 6.116 25.007 16.327 30.834 29.552 5.167 11.78 5.167 25.999-0.827 37.116zM411.045 284.496c-3.72 1.447-7.771 0.992-11.615-0.62h-6.612c-3.1 0-5.828-0.661-8.1-1.777-11.448 8.224-23.063 17.4-22.279 25.503 1.281 1.281 2.893 2.728 4.216 4.175 0.331 0.165 0.455 0.496 0.785 0.661 13.103 5.167 20.831 17.111 26.163 29.552 4.505 11.284 10.332 27.611 4.381 39.059-3.265-6.116-7.771-10.995-13.764-14.384-22.567-12.731-35.504-31.95-55.51-47.946-6.779-5.497-5.001-16.284 0-21.947 0.62-0.661 1.281-1.116 1.943-1.612 19.508-20.171 38.894-39.39 54.723-61.502 0.496-0.661 1.116-1.323 1.777-1.943 1.777 1.116 4.009 2.893 6.116 4.671 3.885-0.496 7.936 0.496 11.324 2.439 2.067-0.661 4.175-1.157 6.612-1.157 15.996 0 31.495 0.661 47.283 3.389 2.439 0.331 4.712 1.323 6.488 2.935 12.4-5.828 26.619-8.267 39.223-4.051 2.273-0.785 4.836-1.281 7.275-0.951 1.901-1.157 4.009-2.439 6.116-3.72 11.615 13.556 21.163 30.668 32.115 39.555 4.216 3.555 12.276 7.564 16.823 10.952 2.067 1.488 2.232 5.497 2.563 9.216 1.447 12.111 15.335 20.831 11.78 33.892-2.563 9.052-12.4 13.432-21.451 16.16-15.335 4.836-20.831 10.003-28.436 23.395-6.448 11.16-14.508 23.435-25.999 8.72-3.844-4.836-4.505-11.119-3.224-17.731 3.059-15.996 16.78-34.554 22.443-44.555 0.992-1.653 2.273-2.935 3.555-3.885-7.44-8.887-13.060-18.723-19.384-28.106-32.28 11.16-64.23 4.051-97.337 1.612zM407.326 623.211c-6.283-4.671-15.996-26.287-26.619-36.62-9.879-9.879-15.831-7.44-35.215-9.879-8.556-0.951-14.839 5.332-21.327 8.596-25.667 13.227-77.786 36.786-69.231 93.286 3.389-13.556 23.395-43.563 35.174-46.003 9.548-1.943 30.999 11.78 38.604 19.055 18.559 16.947 6.944 48.275-14.715 54.558-18.559 5.497-34.223 16.947-52.615 21.988-20.996 5.952-41.827 3.513-61.378-6.324-0.785-0.331-1.281-0.951-1.901-1.281-2.604 1.116-5.828 1.447-9.383 0.496-14.839-4.216-31.95-2.108-42.943-15.211-1.943-2.232-3.059-4.671-3.72-7.068-1.612-1.612-3.059-3.72-3.885-5.992-12.4-31.495 6.488-72.662 42.159-74.438 1.612 0 3.059 0.165 4.34 0.331 0.827-0.331 1.777-0.661 2.769-0.951 17.731-5.167 22.112-11.656 40.175-15.335 3.265-0.661 21.163-15.5 23.6-14.548 21.947-24.22 45.671-22.775 48.607-23.724 36.786-11.615 32.115-15.996 45.342-28.602 1.447-1.281 2.439-3.059 3.224-4.836 4.381-11.284 46.499-65.222 51.046-56.17 5.167 10.332 9.672 52.45 7.399 60.055-1.116 4.051 2.604 19.055 0.496 22.112 0.165 13.103-0.165 53.442 0 66.503zM844.207 625.982c-2.893-7.108-3.224-15.004-3.224-23.271-10.952-9.836-21.616-20.171-33.396-28.891-3.389 0.331-6.779-0.165-9.548-1.943-2.728-1.777-5.332-3.389-8.224-5.001-0.165-0.165-1.281-0.785-1.943-1.116-1.612-0.992-3.224-1.281-4.836-1.612-4.051-1.157-7.108-3.885-9.052-7.275-0.62-0.165-1.447-0.331-2.108-0.496-1.116 0.827-1.901 1.612-3.059 2.604-6.612 4.175-17.607 1.612-21.163-5.663-1.447-3.224-3.224-6.283-5.001-9.34-4.836 0.62-10.168-0.496-13.227-4.216-1.116-1.777-2.273-3.555-3.224-5.167-0.827 0.165-1.612 0.331-2.439 0.165-18.227-0.661-31.784-11.324-49.062-15.5-5.663-1.281-9.216-5.992-10.499-11.16-2.108-1.943-3.224-4.34-3.885-6.612-5.787-2.108-10.952-4.34-14.672-7.44-12.772-10.168-11.944-28.064-5.663-41.951 2.439-5.167 10.332-10.499 10.995-16.492 0.455-4.009-0.661-7.068-2.108-9.34-16.656-21.492-35.38-23.891-44.102 8.556-1.447 5.167 13.103 25.336 11.491 30.503-3.389 11.944-14.715 7.108-24.551 3.059-12.896-5.332-21.163-21.451-27.279-32.776-6.779-12.564-5.828-20.791 2.893-31.619 8.887-10.995 16.78-20.996 29.387-27.279 2.769-3.1 5.992-5.663 10.332-7.604 5.001-2.273 10.168-2.439 14.548-0.331 14.672-1.943 29.222 0.992 39.719 11.491 0.951 0.785 2.067 1.612 3.059 2.397 1.281 1.612 2.563 3.224 3.224 5.001 11.448 4.216 20.667 12.276 24.883 23.891 8.060 24.22-10.208 20.667-26.659 32.776-20.171 14.715 0.951 20.831 15.831 26.495 23.395 8.887 65.387 15.335 79.11 37.282 8.224 0.992 11.78 7.44 19.551 6.612 2.232 15.044 16.284 8.432 27.115 13.599 10.664 5.167 17.896 6.116 26.452 12.731-5.952-16.78-23.559-26.619-33.396-41.331-10.995-16.12-15.664-32.942-29.222-48.111-18.559-21.287-41.827-37.778-59.106-60.386-21.947-28.23-45.507-51.003-77.994-67.33-21.287-20.004-40.339-42.283-63.279-60.675-36.496-29.718-58.278-77.829-80.722-117.713-6.779-12.276-16.947-25.336-21.616-38.439-7.936-22.899-13.432-50.838-17.939-75.058 1.943 9.836-8.887 22.279-11.78 31.33-3.885 12.731-4.381 24.511-9.712 36.951-11.284 27.775-21.287 53.278-37.778 77.994-8.224 13.060-16.284 26.452-24.675 39.39-19.055 28.891-45.714 48.771-67.661 74.605-7.108 8.224-10.664 20.171-19.055 27.279-12.44 10.499-29.387 15.5-41.994 26.452-28.726 24.551-62.949 45.547-84.565 76.878-8.887 12.731-21.327 21.616-30.544 34.884-3.224 4.671-6.448 12.564-9.836 16.451-5.167 5.497-9.052 4.505-13.723 8.224-7.895 5.828-13.723 14.384-18.723 23.724-5.001 9.548-17.443 26.495-16.947 37.158 6.779-4.671 11.944-12.772 19.219-17.111 14.839-8.72 30.999-9.052 46.787-14.715 10.332-3.844 19.219-11.615 29.387-15.664 10.332-4.175 24.055-11.944 34.884-13.847 11.944-1.943 21.163 2.067 32.942-2.604 14.384-5.828 20.171-12.44 9.216-25.336-8.887-10.499-22.775-8.1-30.71-15.5-18.888-17.607 12.111-46.83 29.387-54.599 0.331-0.124 0.661-0.455 0.827-0.455 1.612-6.159 6.283-11.491 14.508-11.491 0.496 0 0.992 0.165 1.488 0.165 0.124-0.165 0.289-0.331 0.62-0.455 6.779-4.381 14.88-5.828 22.608-5.992 1.447 0 2.604 0.165 4.051 0.496 1.116-0.331 2.232-0.496 3.555-0.496 21.947 0.661 38.894 22.939 51.499 38.604 13.227 16.616 8.887 68.777-21.492 63.279-3.389-0.661-6.448-2.604-10.003-2.893-2.563-0.165 0.331-24.883-0.165-27.487-6.116-37.282-22.279-29.842-29.883-20.791h-0.455c-0.992 0-1.943-0.165-3.059 0-0.827 0-1.653 0-2.439 0.124-8.556 12.607-13.723 19.055-7.108 35.711 3.72 9.34 13.392 26.287 9.383 38.563 5.167 5.828 4.34 14.88-0.661 20.5-0.331 0.661-0.827 1.157-1.116 1.777-1.612 2.108-2.935 4.051-4.712 5.992-2.067 2.439-5.001 3.72-7.895 4.216-2.604 6.903-9.216 12.4-18.227 10.952-21.823-3.72-37.654 6.159-55.386 17.111-5.992 3.72-11.78 2.604-15.996-0.62-2.604 3.679-6.448 6.448-12.276 6.448-6.283 0-11.944 0.496-17.276 1.281-6.612 6.283-15.335 9.548-24.84 11.615-2.273 2.108-4.547 4.216-6.655 6.779-6.779 7.936-15.624 5.828-21.12 0-0.165 0.165-0.496 0.331-0.661 0.496-8.72 5.332-17.772 10.003-26.328 15.004-1.777 0.992-3.679 1.612-5.456 1.943 0 0.496 0.124 0.992 0.124 1.612-0.289 13.103-3.679 26.824-11.448 37.612-0.496 0.496-0.951 1.157-1.447 1.777 0.165 1.488 0.331 3.1 0.496 4.381 1.281 16.947 8.72 34.223 19.675 47.779 12.111 14.715 20.047 33.272 36.827 42.779 17.607 10.332 38.439 14.88 55.55 24.055 51.954 27.444 129.948 28.932 183.391 4.381 11.16-5.167 19.88-15.831 31.495-19.551 4.671-1.447 11.78 0.496 16.616-0.785 8.72-2.604 9.548-5.332 15.664-13.888 1.943-2.769 4.051-5.497 6.159-8.1-0.331 46.995-1.777 80.433-4.877 85.598-17.111 29.222-27.279 39.719-38.398 70.058-13.723 37.943-41.994 60.718-73.942 81.838-23.767 15.831-40.547 46.043-73.322 45.218 1.612 5.332 6.159 21.947 10.332 24.551 3.059 1.612 23.104-2.728 28.106-2.604 6.116 0.165 12.607 1.943 19.055 0.992 6.612-0.827 11.944-5.663 17.607-6.612 5.787-0.992 19.839 1.116 24.179 4.836-4.671-13.227-7.232-20.996 3.431-31.495 15.5-15.168 31.619-24.055 49.227-37.447 10.332-7.895 10.168-7.771 12.44-18.723 2.067-9.383 2.728-16.492 7.232-25.667l0.496-0.496c13.888-6.779 20.667 15.5 22.112 24.055 2.769 17.772-8.556 25.667-1.281 44.226 2.893 7.44 5.992 14.548 6.159 22.279 0 6.488-2.604 12.772-8.1 16.987 36.331-6.159 73.322-4.712 109.489 3.844 2.728-10.168-10.995-21.451-14.715-31.784-5.001-13.888-6.944-28.602-5.663-43.275 0.496-5.828 13.888-36.166 7.44-40.671 0.992 0.951 1.777 1.777 2.273 2.893 7.895 17.607 18.888 22.775 33.562 34.554 15.996 12.731 24.387 24.055 35.711 40.339 7.232 10.828 9.836 26.991 21.12 34.884 15.996-14.672 63.155 6.779 80.102 4.547 10.828-1.157 15.004-12.607 10.952-23.104-4.836-11.944-24.511-16.16-35.835-23.271-11.119-7.399-23.724-10.952-34.554-17.567-11.78-7.108-24.675-18.599-36-27.32-20.996-16.451-33.562-40.506-43.11-64.065-8.887-22.112-14.839-43.935-24.22-65.553-1.943-5.001-1.943-22.279-1.281-78.654 3.555 7.936 8.391 12.276 18.723 20.047 10.168 7.728 8.887 5.663 22.608 9.052 9.383 2.232 20.335 9.672 29.883 13.392 18.063 7.564 37.612 8.060 56.998 4.671 19.219-3.389 37.447-2.563 56.666-4.34 17.607-1.777 27.444-10.995 43.563-15.996 20.543-6.779 37.158-7.936 51.542-24.883 13.556-16.451 25.956-33.066 39.843-48.566 17.111-19.055 25.999-23.435 15.5-47.159z"></path>
    </svg>