<svg xmlns="http://www.w3.org/2000/svg" viewBox="-40.659 -80.505 733.354 1186.193">
    <path fill="#000000" d="M456.023 428.694c-2.346 19.669-13.013 33.664-25.003 47.658-17.323 20.822-34.005 26.838-59.52 37.505-23.979 9.978-51.499 13.994-78.165 10.498-17.493-2.346-59.989-7.003-65.664-25.344-22.315 15.189-46.976-31.488-49.834-45.482-4.48-20.353-20.309-36.352-18.133-56.832 1.835-16.342 2.475-35.2 2.475-52.864 0-11.308 2.517-24.662 9.515-33.962 6.826-8.539 14.848-9.18 24.149-15.019 4.352-2.516 4.864-7.172 8.661-9.688 6.699-4.656 18.176-9.301 25.173-13.483 9.685-5.672 17.024-9.349 29.355-8.321-14.507-5.672 24.491-9.688 35.328-11.514 23.509-4.475 45.824-1.838 66.986 4.185 18.859 5.164 26.496 10.498 39.85 23.68 13.995 14.464 28.971 20.138 36.992 40.32 6.656 17.493 19.328 32.17 19.328 51.839 0.169 18.005 1.028 38.827-1.494 56.832zM284.033 127.69c4.309-9.688 21.675-13.311 28.501-5.672-1.028-0.968 0-1.318 1.149-1.488h-0.677c7.168-3.326 18.517 1.838 24.363 5.842 8.149 5.503 7.638 16.17 15.488 19.84-3.669 10.498-6.186 16.298-4.821 27.648-13.355 5.842-15.36 16.511-35.2 14.848-9.643-0.847-35.499-0.121-34.987-13.014-22.144-3.157-9.643-44.16 6.186-48zM266.841 69.881c0.169 0.121 0.339 0.242 0.508 0.605l-0.508 0.484v-1.209zM482.691 399.231c-3.84-22.998 11.819-37.973 0.339-59.99-7.68-15.018-18.859-25.984-27.178-39.85-11.349-18.815-18.176-29.312-37.163-41.642-24.149-15.36-65.322-37.333-62.336-70.016 2.005 0.121 5.163-0.847 7.168-0.484 3.84-12.971 6.998-59.649-7.339-61.141-2.176-15.189 11.989-49.665-1.664-62.336-9.685 3.326-27.819-0.484-39.168 0-18.005 0.847-35.328-1.5-52.65 0 1.664 1.669 2.133 2.987 3.328 4.656-0.508 0-0.508-0.121-0.859-0.363-5.973 10.667 0.169 20.351 0 31.53 0 8.152-2.816 18.987-4.309 27.648-13.525-13.994-12.672 15.36-12.501 22.528 0.472 12.8-1.835 25.984 1.664 38.827 2.475-0.363 6.315 0.968 8.833 0.484-0.169 10.026 0 11.345-2.859 19.84-2.816 7.341-7.168 12.501-8.149 20.010-11.349 4.995-17.664 13.014-27.477 19.158-11.52 7.511-23.168 12.16-34.517 19.84-20.651 14.165-37.845 30.337-50.816 54.827-12.203 23.168-5.675 59.519-2.687 84.991 4.181 33.366 16.341 57.856 32.512 86.87 9.643 16.981 19.84 26.325 37.973 36.822 7.851 4.475 17.365 9.639 26.368 11.816 11.648 3.024 36.309-4.826 34.645 11.865 24.021 5.455 37.162 14.165 64.17 10.97 23.68-3.157 42.667-8.321 63.829-18.304 21.845-10.196 34.517-24.363 52.651-36.523 20.522-13.653 31.189-23.509 37.034-46.976 2.816-10.837 7.467-21.845 9.003-32.511 2.133-14.337-5.675-20.182-7.851-32.683z"></path>
    <path fill="#000000" d="M46.040 633.024c1.149 3.326-6.016 12.502-6.016 18.006-0.169 5.975 3.669 15.487 3.158 22.655-1.149 16.683-3.328 31.829 1.664 47.658 28.501 2.516 58.837-4.826 88.021-3.846 28.843 0.968 57.002-5.975 85.674-5.503 17.835 0.363 35.626 4.015 53.802 4.185 20.011 0 38.827-4.995 57.685-5.503 13.824-0.484 27.307 4.826 41.002 5.503 36.821 1.669 77.312-12.33 112.81-5.334 16.341 2.987 33.024 9.349 50.688 7.982 9.003-0.847 16.811-5.467 25.472-7.003 14.037-2.479 28.672 2.854 41.173 5.334-3.158-4.995-1.664-9.809-2.645-16-1.664-9.978-5.163-19.158-5.675-27.989-0.98-19.669 6.827-36.31 6.827-54.997-27.648 4.015-56.491 7.172-85.162 10.498-25.685 2.685-52.352 4.185-78.165 1.838-20.48-1.669-40.149 2.854-59.818 2.008-16.853-0.847-34.688-6.313-52.523-5.164-22.314 1.318-44.97 0.121-67.498 0.121-43.307 0-89.813 4.306-132.309 0.121-26.027-2.685-59.008-8.998-84.010-0.121 3.328 2.177 5.973 1.209 5.845 5.503z"></path>
    <path fill="#000000" d="M51.672 919.191c-1.963-0.683-3.797-0.683-6.827 1.493-5.504 18.005 29.696 20.992 41.344 26.155 23.339 10.496 48.512 15.019 72.832 24.363 28.672 10.965 57.685 20.139 87.509 28.331 11.648 3.328 23.168 5.803 33.835 10.795 7.637 3.541 29.653 9.515 32 13.525 12.501-0.341 15.317 1.835 26.155-3.669 11.008-5.675 17.664-9.856 29.995-13.355 35.84-10.496 69.845-24.32 106.154-34.475 42.197-11.819 83.37-29.995 122.026-47.659-4.181-11.008-24.021-5.333-32.853-1.195-19.499 9.173-37.163 17.024-57.813 24.192-44.331 15.488-91.349 34.176-136.32 46.165-16.853 4.309-39.851 9.643-57.514 9.813-17.024 0-30.336-11.307-45.355-17.835-20.821-9.003-40.661-13.483-63.146-17.835-11.691-2.005-21.675-3.499-31.829-8.32-6.528-3.157-11.52-7.68-18.347-10.155-30.677-11.349-67.498-25.173-98.816-32 2.133-0.341 3.499-3.328-3.029 1.664z"></path>
    <path fill="#000000" d="M374.359 446.359c-2.859-5.503-8.021-8.998-11.179-14.677l6.186-8.998c-2.517 1.838-6.016 3.157-8.661 2.818 0-1.657 0.81-5.467 1.149-7.124 12.331-1.838 33.152-4.862 38.485 9.131 6.998 18.518-13.483 20.182-25.984 18.859zM330.367 420.513c-13.995 6.011-49.536 3.024-61.184-7.462-5.334-4.693-7.168-13.696-7.509-20.181-1.323-14.848 8.661-18.176 15.531-28.16 0-13.014 23.467-17.195 40.491-13.184 29.483 7.341 45.653 54.484 12.672 68.992zM237.183 464.379c-12.501-2.516-19.157-17.023-2.176-19.327l3.030-3.024c7.638-3.834 15.147-5.334 23.296-2.818 1.707 5.842 2.005 5.164 4.864 9.18-0.859 13.142-16.171 18.817-29.013 16zM214.528 339.376c3.158-4.656 7.808-7.003 13.312-7.341-0.169 0-0.472 0-0.641-0.121h1.494c-0.339 0-0.508 0.121-0.859 0.121 7.339 1.209 15.189 1.838 22.698 4.523 1.494 4.995 2.133 10.329 1.494 16-9.344 1.959-13.355 10.97-23.68 7.982-11.349-3.326-6.485-13.653-13.824-21.163zM369.53 333.367c4.821-2.298 7.979-3.834 13.483-1.669 0.508-1.209 0.98-1.838 2.176-2.31 24.832 10.8-5.163 45.654-16 25.131-2.687-0.121-4.821-0.968-7.339-1.959-1.323-7.511-0.859-16.682 7.68-19.2zM430.5 366.042c-0.169-17.493-19.157-38.656-31.317-51.669-9.685-10.329-22.357-15.659-34.347-22.187-10.496-5.805-20.992-16.469-31.659-21.162-14.336-6.313-32.512-5.975-47.488-2.479-11.69 2.987-34.858 3.665-40.021 13.996-9.472 4.826-18.176 9.809-16.981 19.497-9.174-2.008-22.528 10.159-28.16 16.683-9.856 11.647-1.835 18.645-4.864 30.976-1.963 8.019-12.16 14.506-14.165 22.357-1.664 7.293 1.028 20.31 1.835 28.161 1.197 12.842 6.699 18.815 12.501 29.994 11.69 21.504 15.36 43.008 35.669 56.32 18.347 12.33 44.672 17.664 67.499 20.991 34.176 5.164 48.682-2.129 76.032-18.645 22.827-13.824 44.971-22.657 50.645-50.688 2.005-8.829 0-19.968 0-28.971 0.169-14.336 4.991-29.354 4.821-43.178z"></path>
    <path fill="#000000" d="M230.189 11.033c8.49-0.363 21.163 32.811 27.648 44.16 14.848-8.829 44.843-2.177 62.507-1.318 10.325 0.484 29.525 5.467 38.187-0.363 5.504-3.665 12.16-19.499 16.512-25.686 5.803-8.152 12.971-17.834 17.152-26.154-26.325 0.363-52.821-0.121-79.018-1.209-17.835-0.968-35.669-0.121-53.674-0.121-11.989 0-29.312 4.826-39.979-0.121 2.986 3.157 7.339 6.833 11.989 7.982 0.339 1.318-0.169 3.036-1.323 2.854z"></path>
    <path fill="#000000" d="M406.871 495.852c16 2.008 18.645 57.515 18.987 74.496 0.508 16.342 0.169 40.662 4.48 54.656 6.699 21.674 26.027 49.493 49.024 26.497-18.347-21.333-6.016-64.811-20.181-92.672-6.485-12.33-12.331-19.327-14.976-32.98-1.835-8.998 0.169-19.499-6.357-25.173z"></path>
    <path fill="#000000" d="M301.186 706.496c3.499-3.326 2.176 1.209 4.181 7.003 3.669 10.026 3.158 19.841 3.968 30.166 1.835 20.181 4.864 43.349 3.499 63.359-0.641 7.982-5.163 13.483-7.125 20.651-3.030 11.526 2.304 20.010 2.645 31.189 0 3.846-4.011 8.321-4.181 12.671 0 2.479 2.346 8.152 2.687 11.308 0.81 7.003-0.859 14.336-0.169 21.163 1.664 13.994 0.339 28.501 2.986 42.495 1.664 9.18 6.016 17.537 5.504 27.008-0.339 10.026-0.508 14.165 1.323 23.509 1.365 7.003 3.84 14.166-0.81 20.011 4.48-0.484 9.515-2.008 13.824-4.185 1.664-6.652 6.186-13.012 7.339-20.309 2.346-12.373-1.323-26.666-1.323-39.509 0.169-38.187-12.032-75.52-10.325-113.664 0.81-20.181 9.984-38.827 9.472-56.832-0.339-13.696-6.656-26.368-5.163-39.509 1.028-11.175 4.181-21.163 2.986-32.853-1.149-15.488-7.295-18.817-22.485-25.472h5.504z"></path>
    <path fill="#000000" d="M123.352 710.678c-2.176 1.318-19.669 26.667-22.016 33.493-2.645 7.172 0 13.184-3.627 21.163-4.693 10.365-10.367 18.346-14.677 28.672-3.158 7.511-2.346 17.193-4.864 25.172-3.499 11.816-8.96 22.486-12.331 34.176-4.48 15.318-11.307 30.335-15.488 45.312-1.664 5.842-6.656 17.024-3.158 22.699 8.661 13.311 14.677 0.242 17.152-7.849 5.163-18.347 11.349-35.5 14.507-54.315 4.65-25.514 15.317-44.672 27.349-68.181 10.154-20.010 20.309-42.837 25.813-64.171 1.197-4.185 4.352-18.986 2.859-22.996-4.522-12.161-9.856-6.483-11.52 6.821z"></path>
    <path fill="#000000" d="M505.516 706.497c18.688 18.176 29.184 43.178 41.515 65.535 10.666 19.499 22.827 38.997 30.165 60.16 9.643 27.989 35.499 62.976 23.808 93.483-5.632-0.847-11.989-1.838-17.963-2.479-1.536-17.195-5.675-35.371-13.525-50.688-11.819-23.168-19.328-49.152-31.147-71.979-5.163-10.196-12.672-17.536-19.2-27.008-5.973-9.168-3.968-13.994-6.656-23.509-2.005-7.68-8.149-12.33-11.307-19.328-3.499-6.991-2.005-15.188-4.523-22.655-2.176-0.121-4.821-0.484 8.833-1.536z"></path>
    <path fill="#000000" d="M104.707 586.69c23.296 0.605 45.141-4.015 68.48-7.003 26.155-3.326 54.997-2.008 81.493-2.685 54.528-1.488 109.013-3.495 163.327-3.967 30.677-0.363 105.173-10.837 118.826 21.462-13.141 5.672-33.152 5.842-47.146 7.172-29.013 2.346-58.325 1.367-87.168 1.367-38.315-0.121-75.349-4.185-114.005-4.185-16.171 0-189.823 10.667-187.989-6.483 2.986-0.484 9.344-2.008 4.181-5.672z"></path>
    <path fill="#000000" d="M216.365 703.852c-12.501-2.685-9.515 36.309-11.69 44.671-4.48 15.829-11.819 29.995-15.317 46.507-4.522 19.499-5.845 38.827-9.003 58.667-2.517 15.829-12.672 30.166-18.176 44.971-2.816 7.172-21.675 50.688-6.826 55.338 12.672 3.665 16-31.488 18.176-37.973 7.168-21.333 22.997-38.869 25.643-61.696 3.669-33.664 8.833-63.487 14.165-95.829 3.371-19.669 13.525-38.996 17.195-58.495-6.357-0.484-1.323-0.484-14.165 3.846z"></path>
    <path fill="#000000" d="M396.674 706.497c-3.499 2.685 7.339 24.021 10.026 31.36 3.499 9.978 11.819 16.81 14.165 27.179 2.304 9.978 3.499 16 7.168 25.643 5.803 16.17 12.672 32.341 16.64 49.322 3.328 14.678 4.352 29.994 8.534 44.502 6.315 21.674 20.651 59.349 39.637 71.167 18.176-6.821-0.339-42.496-6.315-51.967-9.344-14.507-10.325-27.52-14.336-44.672-3.669-15.189-11.008-29.525-13.995-44.843-1.494-6.362-1.197-12.843-2.858-19.158-2.005-7.68-4.821-10.667-7.339-17.365-4.821-13.312-10.794-24.32-17.323-36.992-4.309-8.49-19.157-38.997-34.005-34.175z"></path>
    <path fill="#000000" d="M253.527 706.497c-7.851 2.008-5.504 80.341-8.661 95.36-3.84 20.821-1.664 41.813-2.687 62.976-0.98 19.84-6.656 39.509-12.843 58.197-2.816 8.998-16.64 41.983-8.661 50.303 12.331 13.355 14.677-14.805 15.829-21.973 3.84-21.845 11.179-40.832 15.531-61.995 5.504-27.007 16.981-50.858 17.323-79.359 0.169-23.168-6.826-47.147-1.323-69.334 1.664-7.341 12.8-44.5-14.507-34.175z"></path>
    <path fill="#000000" d="M346.54 706.497c11.648 0.121 9.302 35.498 11.648 45.354 3.84 14.336 9.003 26.497 9.813 40.832 2.346 33.152 11.69 64.341 14.336 97.664 1.664 21.845 7.509 45.994 12.843 66.986 2.689 10.498 5.675 25.344 8.661 32.853-0.169-0.968-0.169-1.838 0.169-2.854 0.859 0 3.84 1.209 3.84 1.209 2.816-4.523 3.499-2.516 7.509-4.826 0.508 0.121 2.005 1.79 2.475 2.129 3.2-13.483-9.003-21.974-12.8-34.006-6.186-19.968-3.328-43.477-6.87-64-3.798-21.801-7.979-45.653-7.125-68.138 0.641-19.029-7.339-33.323-13.013-51.67-5.675-18.687-4.011-52.010-31.488-61.524z"></path>
    <path fill="#000000" d="M439.681 701.164c3.158 13.014 9.174 23.509 14.336 35.029 4.991 10.667 6.997 21.333 13.824 31.658 17.365 26.155 24.533 59.008 34.517 88.661 5.504 16.171 6.144 27.35 15.488 42.326 8.32 13.014 9.515 37.333 29.355 37.845 7.339-16.17-14.336-31.019-17.493-45.994-6.529-31.189-9.515-62.677-24.192-91.349-11.008-21.674-29.141-38.485-39.339-60.159-4.821-10.329-5.803-22.998-26.496-38.016z"></path>
    <path fill="#000000" d="M161.837 707.863c0.508 10.667 0.859 23.466-1.149 33.834-2.517 13.312-14.507 22.827-18.517 34.303-7.979 21.846-3.968 45.184-13.141 67.329-4.352 10.837-6.826 21.504-11.52 31.999-3.968 9.349-10.496 16.511-15.659 26.026-5.504 10.329-11.179 26.155-13.995 36.48 5.845-0.121 12.843 0.847 17.835 2.854-3.328-14.336-1.323-20.863 6.826-32.511 12.672-18.987 20.181-36.992 29.995-57.173 15.019-30.337 10.496-68.821 20.352-100.182 2.346-7.462 4.821-16.128 7.808-23.808 2.005-5.334 3.371-9.688 4.522-13.994 1.494-5.503-2.005-7.341 4.309-11.526-4.48 0.968-8.661 0.484-17.664 6.362z"></path>
    <path fill="#000000" d="M189.698 479c-21.504 17.536-6.656 58.667-13.013 82.346-3.158 13.184-6.998 26.154-10.838 38.827-4.309 14.506-1.664 30.847-4.991 44.5 8.49-5.164 18.987-1.669 27.648-3.834 0-1.488 0.169-3.157 0.339-4.995 10.666-4.306 4.522-14.165 4.991-25.003 0.677-11.478 4.522-22.827 5.334-33.664 1.197-12.843 3.371-23.168 5.334-35.498 2.005-13.994 0.859-26.838 2.176-40.491-0.339 2.008-0.98 1.318-2.176 2.346z"></path>
    </svg>