<svg xmlns="http://www.w3.org/2000/svg" viewBox="-22.661 -34.607 1195.321 1138.964">
    <path fill="#000000" d="M703.213 268.901c-24.414-15.985-46.926-28.885-70.156-49.29-14.751-12.895-25.75-34.796-38.805-50.933-9.207-1.909-18.398-3.498-27.394-1.851-6.12 1.166-11.873 3.54-17.319 6.686-7.255 10.49-13.987 22.872-20.251 31.144-16.753 22.102-35.359 38.958-55.508 50.215-18.144 10.168-102.125 88.043-138.256 95.749-0.438 0.728-1.747 12.442 0 21.687 15.161-4.269 29.399-1.588 43.070-9.614 28.987-16.961 53.811-42.044 82.695-60.852 16.293-10.591 34.538-19.992 51.55-30.477 0 0 0-0.050 0.050-0.050 8.785-15.727 23.846-26.212 36.593-38.341 2.928-6.484 6.016-12.748 10.184-16.753 13.317-12.485 20.918 3.088 30.89 14.853 3.192-2.665 8.014-3.599 11.365-0.875 7.91 6.426 13.054 14.598 18.195 23.129 3.234 1.793 6.585 3.498 9.92 4.982 28.577 13.054 45.229 27.238 71.748 47.286 25.286 19.016 57.977 25.284 82.388 53.401 13.767 15.829 17.166 35.359 28.936 56.227-23.077-80.691-61.572-114.664-109.885-146.272z"></path>
    <path fill="#000000" d="M835.427 255.999c-12.748-13.213-23.231-28.679-32.844-44.613-3.133-5.144-1.487-10.184 1.952-13.155-1.909-3.133-3.657-6.322-5.144-9.819-0.291-0.438-0.728-0.728-1.019-1.166-26.88-15.829-28.782-55.508-30.583-89.222-5.144-18.863-12.237-26.262-37.057-37.16-16.753-7.298-34.487-3.641-52.117-2.157-9.149 6.891-21.791 6.891-33.097 3.54-4.633-1.311-6.833-5.040-7.096-8.944-22.922-7.096-43.018-7.91-66.866 2.769-13.011 5.814-26.161 10.49-39.831 12.647-0.728 0.438-1.487 0.875-2.417 1.166-17.835 5.609-34.691 7.139-49.905-5.814-0.104-0.103-0.147-0.147-0.291-0.291-18.966-3.804-50.215-7.708-59.363 2.622-15.933 17.937-39.369 79.048-48.003 110.298-6.426 23.436-1.689 44.613-6.221 68.664-4.312 22.613-17.835 41.632-31.66 59.311-4.269 5.392-6.12 14.598-5.245 23.387 1.689 15.315 12.341 81.41 6.527 39.265-3.234-40.347 22.719-79.202 43.43-106.133 17.887-23.282 18.297-80.691 27.651-115.948 24.363-91.949 95.751-41.735 138.411-52.477 52.063-13.054 85.369-13.871 134.042 0.581 15.933 4.734 26.519 2.053 35.050 6.322 27.962 7.197 38.239 37.211 28.679 64.812-0.049 0.050-0.049 0.050-0.103 0.101 9.966 32.482 19.683 57.614 41.938 82.285 29.605 32.688 37.777 41.579 44.253 101.609 4.269 39.371-29.142 63.473-32.328 100.89 11.509-26.675 44.972-90.198 48.106-122.834 2.215-23.231-1.793-48.055-8.944-70.618z"></path>
    <path fill="#000000" d="M500.070 260.378c-45.332 11.248-26.778 151.257-15.008 196.898 15.984 62.189 33.562 114.1 63.269 160.87-40.962-50.111-84.958-115.382-102.074-199.878-4.881-24.054-18.348-68.356-15.11-94.929 5.857-47.696 36.388-21.743 68.923-62.96z"></path>
    <path fill="#000000" d="M643.928 258.26c-11.772 47.13 19.582 122.942 14.235 180.452-5.144 55.662-22.153 99.914-37.057 147.352-4.064 3.335-11.466 31.25-12.442 32.070 58.386-55.148 82.542-229.382 74.574-332.584-2.665-1.311-5.45-1.588-39.317-27.293z"></path>
    <path fill="#000000" d="M721.556 527.032c-24.106 26.625-22.356 36.386-32.739 69.692-8.537 27.344-19.376 51.141-27.96 77.763-10.838 33.765-4.676 82.284-21.844 110.862-16.5 27.547-31.609-14.437-56.332-14.495-17.885 0-49.854 52.013-62.55 41.528-17.887-14.751-7.503-80.743-11.977-111.991-5.652-38.907-17.937-65.376-38.647-87.22-25.802-27.238-31.609-38.546-49.083-76.273-21.997-47.437-50.111-139.592-84.906-164.621-0.050 2.258-0.147 4.532-0.291 6.833 6.322 17.012 6.322 43.173 9.513 64.657 0.147 0.291 0.291 0.438 0.438 0.728 6.12 12.543 14.437 23.745 20.043 36.645 0.147 0.291 0.147 0.581 0.291 0.875 0.581 0.581 1.311 1.019 1.851 1.545 1.166 0.728 2.258 1.793 3.192 3.192 10.737 16.242 20.867 30.223 28.679 48.672 8.537 20.148 13.054 41.066 27.238 57.461 7.46 8.684 2.827 14.394 5.346 23.386 2.886 10.083 11.16 20.817 17.218 28.938 2.782 3.7 5.245 7.197 7.561 10.49 5.508 3.54 10.389 8.173 14.336 14.235 7.968 12.384 9.718 27.344 8.072 41.836 1.909 13.36 2.723 29.298 3.963 50.935 0.291 4.939 0.438 10.33 0.581 15.933 3.963 7.766 4.721 17.062 4.721 26.778 0 3.335-1.166 5.915-2.987 7.708 0.875 8.274 13.767 60.852 30.53 42.094 2.111-2.316 3.029-5.508 4.575-8.231 4.881-8.684 12.953-9.048 19.891-14.336 8.378-6.426 13.565-16.343 22.613-21.997 5.857-3.657 13.155-5.288 19.48-2.622 3.498 1.487 6.426 4.211 9.25 6.891 5.814 5.45 11.671 11.001 15.47 18.144 1.457 2.769 2.723 5.915 4.982 7.91 12.895 11.102 29.246 6.062 37.726-6.686 6.833-10.389 11.815-23.027 16.19-34.692 5.245-13.871 2.157-26.984 3.758-41.167 1.646-14.853 8.378-26.571 15.419-39.215 3.7-20.404 5.915-36.285 8.742-51.911-1.793-9.192-0.875-18.605 4.37-27.547 0.728-1.019 1.457-1.952 2.258-2.665 1.457-5.392 2.928-11.001 4.838-17.062 7.344-23.539 14.336-47.798 25.441-69.746 4.881-9.761 10.636-20.711 19.067-27.601 7.139-5.814 17.114-8.274 23.488-15.216 7.867-8.638 7.809-19.374 12.020-30.015 2.564-6.322 26.726-62.804 27.804-62.189-25.236-12.442-63.782 81.156-91.536 111.84z"></path>
    <path fill="#000000" d="M594.573 784.252c5.814-41.374 15.574-91.28 10.431-133.012 12.384 50.525 17.27 87.477 17.836 149.254-7.867-1.311-19.481-1.952-28.012-4.838 0.875-4.676 1.646-26.008-0.291-11.408z"></path>
    <path fill="#000000" d="M552.036 651.313c-8.742 55.508-17.062 91.742-15.883 154.805 9.192-1.019 18.144-3.7 24.516-12.179-5.652-36.594-11.873-111.171-8.638-142.625z"></path>
    <path fill="#000000" d="M444.254 94.027c-15.11-1.545-24.979 12.136-28.216 30.786-1.909 11.307-4.78 33.614 0 42.299 12.442 6.934 33.458 19.325 46.36 4.168 5.756-6.79 10.125-25.234 9.862-36.544-0.438-17.269-9.614-19.89-12.895-32.636-3.293-2.463-1.851 0.291-3.862-3.862-6.322-0.728-12.849-1.311-17.836-6.12 8.479-23.179 34.076-1.588 40.141 13.666 9.091 22.769 5.086 44.922-4.575 64.449-18.707 37.829-69.949 35.719-72.676-19.374-0.581-11.815 3.862-30.118 8.99-38.548 7.766-12.748 27.396-17.578 34.692-18.297z"></path>
    <path fill="#000000" d="M703.723 98.701c-15.675 15.883-36.749 30.633-19.171 62.55 7.662 13.871 22.719 26.984 35.772 20.661 14.751-7.038 26.316-30.684 21.328-52.27-3.029-13.155-17.475-29.5-26.057-30.89 17.319 1.457 26.21 13.623 30.991 35.977 4.734 22.203 9.513 44.613-8.886 56.383-16.961 10.897-41.476 12.283-53.762-9.718-6.12-11.001-25.851-43.171-20.659-59.773 2.665-8.479 18.195-17.679 24.054-20.765 9.048-4.78 24.925-4.474 16.394-2.157z"></path>
    <path fill="#000000" d="M707.344 790.707c-9.966-5.245-16.241 37.004-27.188 40.551 10.838-1.747 21.433 2.111 32.227-1.909 12.384-4.575 21.894-12.996 35.925-15.058 26.007-3.758 50.933-3.599 77.351-6.833 18.605-2.258 16.961-11.307 19.273-30.274 1.019-7.662 0-15.933 2.521-23.64 3.54-10.695 11.714-17.836 14.801-28.473 3.498-12.136 5.915-33.614 2.359-44.613 7.402 6.628 25.802 12.895 36.184 17.628 16.703 7.662 30.684 14.131 47.437 18.758 0.728 10.737 30.53 19.942 39.215 26.879 11.307 8.944 19.172 17.99 28.523 28.165 22.922-15.523-53.656-53.915-63.37-59.157-26.778-14.598-52.937-30.993-78.48-46.512 13.36-7.344 23.589-26.88 37.261-37.313 16.961-12.953 27.035-32.789 44.922-43.996 24.362-15.214 55.199-26.212 81.926-33.458 15.468-4.269 41.117-6.732 54.429-15.727-18.040-4.982-38.239-0.875-56.485 2.665-19.374 3.745-42.709 8.072-61.109 16.343-24.155 10.838-52.527 24.003-70.566 45.023-9.513 11.102-25.852 29.246-32.175 42.608-4.11-21.536-11.102-46.153-11.261-68.356-0.103-20.918 6.934-40.038 4.11-60.905-20.249-8.332 8.072-66.25 13.565-78.121 9.091-19.633 20.765-51.036 42.452-53.656-2.827 13.155 4.006 29.758 8.684 41.836 3.862 9.966 8.944 19.839 12.895 29.605 6.527 16.137 14.699 20.096 27.804 30.581 20.199 16.192 34.024 23.695 58.848 32.226 10.184 3.439 33.82 16.086 42.555 5.245-13.871-3.599-25.081-7.91-38.289-13.259-25.903-10.532-55.098-12.237-69.847-41.785-11.977-23.898-24.672-66.816-25.032-92.975-0.291-16.5 11.567-29.965 13.929-47.079 2.010-14.437 1.457-29.347 8.638-41.836 6.38-11.059 17.887-18.297 26.161-28.164 5.857-6.934 10.636-14.336 17.835-19.532-16.036-2.359-36.902 25.75-45.075 38.598-13.317 21.124-30.581 38.956-43.222 60.596-11.307 19.325-25.955 32.431-39.781 49.391-13.112 16.138-16.137 40.347-24.054 59.929-8.944 22.153-20.661 43.891-24.105 67.793-3.234 22.769-0.104 55.355 4.416 78.225 6.062 30.993 19.789 60.598 18.813 92.36-1.166 36.492-31.403 66.147-27.855 103.408 0.147-11.671-9.207-14.437-15.060-22.561-1.166 8.684 4.734 17.835-2.521 24.206-0.581 0.438-15.419-0.291-17.578 0.104-7.766 1.487-14.495 6.527-21.946 8.843-17.628 5.45-51.652 9.718-60.082-6.38z"></path>
    <path fill="#000000" d="M975.022 645.874c6.12-6.833 17.937-9.66 27.342-15.159 11.714-6.934 22.255-20.044 32.945-28.938 13.519-11.203 28.32-27.96 43.121-34.847 0.581 19.582-21.225 38.237-25.594 58.231-4.416 20.456-1.019 37.468-0.875 57.203 0.438 26.879 2.769 52.012 3.905 79.253 0.581 11.772-4.575 25.030-3.192 36.235 0.875 6.833 7.402 15.214 8.886 22.512-33.098-49.75-25.595-127.31-31.352-185.848-9.556 7.197-30.734 11.772-42.504 13.054-8.072 0.875-15.727-4.11-21.995 2.359 2.010 0.291 1.689 1.019 9.25-4.064z"></path>
    <path fill="#000000" d="M845.283 800.479c17.679 7.708 35.465 27.238 50.266 40.601 15.777 14.336 25.183 13.519 48.106 8.785 31.453-6.469 94.723-37.159 124.738-11.001-14.907-1.457-39.833-5.958-49.7 9.048-22.922-0.875-44.922 15.829-64.964 25.8-10.389 5.187-15.265 12.237-24.414 19.016-11.671 8.742-19.223 7.662-27.855 21.074-6.163 9.513-13.36 20.867-18.297 30.785-5.086 10.226-6.38 23.231-12.485 33.153-6.628 10.737-11.365 17.835-17.062 29.039-3.963 7.766-6.79 17.578-15.777 7.867 1.019 3.804 1.457 6.264 3.498 9.354-2.463-12.237-15.11-38.649-22.719-48.981-6.686-9.149-20.199-16.343-28.883-24.157-9.455-8.58-13.519-15.523-20.711-25.699-14.336-20.404-37.829-30.785-60.082-34.847-22.613-4.168-48.211-17.731-69.847-15.574 9.92-2.886 27.186-10.695 38.288-10.591 12.485 0.103 28.063 5.756 40.809 7.708 38.649 5.814 78.48 29.758 99.761 65.942 8.742 14.801 9.354 39.522 22.719 49.906-7.402-25.34-11.261-56.692-14.293-84.753-1.952-17.731-9.819-34.282-8.332-52.013 1.166-13.623 0.728-26.109 3.804-39.369 14.541 6.732 13.666 61.265 17.012 77.558 3.192 15.367 6.264 30.941 8.684 45.999 1.646 10.33 7.46 21.227 7.139 31.094 8.173-19.53 18.247-37.211 30.425-54.12 6.016-8.274 16.036-20.558 13.213-32.739-2.665-11.772-21.896-28.577-29.298-38.496-9.308-12.485-18.504-25.082-25.39-38.855 2.010-0.049 3.657 0.291 1.646-1.545z"></path>
    <path fill="#000000" d="M442.652 790.707c9.966-5.245 16.242 37.004 27.188 40.551-10.838-1.747-21.433 2.111-32.226-1.909-12.384-4.575-21.894-12.996-35.925-15.058-26.008-3.758-50.933-3.599-77.351-6.833-18.606-2.258-16.961-11.307-19.273-30.274-1.019-7.662 0-15.933-2.521-23.641-3.54-10.695-11.714-17.835-14.801-28.471-3.498-12.136-5.915-33.614-2.359-44.614-7.402 6.628-25.8 12.895-36.182 17.63-16.704 7.662-30.684 14.131-47.439 18.758-0.728 10.737-30.53 19.942-39.215 26.879-11.307 8.944-19.171 17.99-28.523 28.165-22.922-15.523 53.656-53.915 63.372-59.157 26.778-14.598 52.937-30.993 78.48-46.512-13.36-7.344-23.591-26.88-37.261-37.313-16.961-12.953-27.036-32.789-44.922-43.996-24.363-15.214-55.2-26.212-81.926-33.458-15.47-4.269-41.117-6.732-54.429-15.727 18.038-4.982 38.239-0.875 56.484 2.665 19.376 3.745 42.711 8.072 61.109 16.343 24.157 10.838 52.527 24.003 70.567 45.023 9.513 11.102 25.852 29.246 32.175 42.608 4.11-21.536 11.102-46.153 11.248-68.356 0.103-20.918-6.934-40.038-4.11-60.905 20.251-8.332-8.072-66.25-13.565-78.121-9.091-19.633-20.765-51.036-42.452-53.656 2.827 13.155-4.006 29.758-8.684 41.836-3.862 9.966-8.944 19.839-12.895 29.605-6.527 16.137-14.7 20.096-27.804 30.581-20.2 16.192-34.024 23.695-58.848 32.226-10.184 3.439-33.82 16.086-42.555 5.245 13.883-3.599 25.081-7.91 38.288-13.259 25.903-10.532 55.098-12.237 69.848-41.785 11.977-23.898 24.671-66.816 25.030-92.975 0.291-16.5-11.567-29.965-13.929-47.079-2.010-14.437-1.457-29.347-8.638-41.836-6.368-11.059-17.885-18.297-26.16-28.164-5.857-6.934-10.636-14.336-17.835-19.532 16.034-2.359 36.902 25.75 45.073 38.598 13.317 21.124 30.581 38.956 43.223 60.596 11.307 19.325 25.955 32.431 39.781 49.391 13.112 16.138 16.137 40.347 24.054 59.929 8.944 22.153 20.659 43.891 24.105 67.793 3.234 22.769 0.103 55.355-4.416 78.225-6.062 30.993-19.789 60.598-18.813 92.36 1.166 36.492 31.352 66.147 27.856 103.408-0.147-11.671 9.207-14.437 15.058-22.561 1.166 8.684-4.734 17.835 2.521 24.206 0.581 0.438 15.418-0.291 17.578 0.104 7.766 1.487 14.495 6.527 21.946 8.843 17.628 5.45 51.652 9.718 60.081-6.38z"></path>
    <path fill="#000000" d="M174.976 645.874c-6.12-6.833-17.937-9.66-27.344-15.159-11.714-6.934-22.254-20.044-32.945-28.938-13.519-11.203-28.32-27.96-43.121-34.847-0.581 19.582 21.227 38.237 25.595 58.231 4.416 20.456 1.019 37.468 0.875 57.203-0.438 26.879-2.769 52.012-3.905 79.253-0.581 11.772 4.575 25.030 3.192 36.235-0.875 6.833-7.402 15.214-8.886 22.512 33.098-49.75 25.594-127.31 31.352-185.848 9.556 7.197 30.734 11.772 42.503 13.054 8.072 0.875 15.727-4.11 21.997 2.359-2.010 0.291-1.689 1.019-9.25-4.064z"></path>
    <path fill="#000000" d="M304.715 800.479c-17.68 7.708-35.465 27.238-50.266 40.601-15.777 14.336-25.133 13.519-48.106 8.785-31.453-6.469-94.723-37.159-124.738-11.001 14.907-1.457 39.831-5.958 49.7 9.048 22.922-0.875 44.92 15.829 64.964 25.8 10.389 5.187 15.265 12.237 24.414 19.016 11.671 8.742 19.223 7.662 27.855 21.074 6.163 9.513 13.36 20.867 18.297 30.785 5.086 10.226 6.368 23.231 12.485 33.153 6.628 10.737 11.365 17.835 17.062 29.039 3.963 7.766 6.79 17.578 15.777 7.867-1.019 3.804-1.457 6.264-3.498 9.354 2.463-12.237 15.11-38.649 22.719-48.981 6.686-9.149 20.199-16.343 28.883-24.157 9.455-8.58 13.519-15.523 20.711-25.699 14.336-20.404 37.827-30.785 60.082-34.847 22.613-4.168 48.21-17.731 69.847-15.574-9.92-2.886-27.188-10.695-38.289-10.591-12.485 0.103-28.061 5.756-40.808 7.708-38.649 5.814-78.48 29.758-99.761 65.942-8.742 14.801-9.354 39.522-22.719 49.905 7.402-25.338 11.261-56.69 14.293-84.753 1.952-17.729 9.819-34.281 8.332-52.012-1.166-13.623-0.728-26.109-3.804-39.369-14.541 6.732-13.666 61.265-17.012 77.558-3.192 15.367-6.264 30.941-8.684 45.999-1.646 10.33-7.46 21.227-7.139 31.094-8.173-19.53-18.247-37.211-30.425-54.12-6.016-8.274-16.036-20.558-13.213-32.739 2.665-11.772 21.894-28.578 29.296-38.496 9.308-12.485 18.504-25.082 25.392-38.855-2.010-0.050-3.641 0.291-1.646-1.545z"></path>
    </svg>