<svg xmlns="http://www.w3.org/2000/svg" viewBox="-45.987 -28.326 1222.764 1164.523">
    <path fill="#000000" d="M1086.136 661.327c-14.039-51.838-20.6-108.274-33.44-160.275-5.439-22.52-14.198-41.278-25.76-62.196-15.638-28.759-25.958-69.837-45.799-94.997-32.317-40.799-70.759-61.717-110.914-91.557-30.637-22.799-45.157-56.557-80.316-71.556-42.358-17.961-78.918-36.56-119.357-60.957-65.157-38.878-120.634-24.519-185.153-40.597-13.761-3.436-26.72-8.922-40.477-12.36-60.919-15.158-109.834 36.079-165.632 22.957-13.718 4.082-27.158 8.119-40.918 11.439-28.439 7.155-44.077 35-64.678 53.719-12.518 11.399-45.478 50.959-59.076 54.997 52.198-16.559 97.955-52.477 154.995-57.8 54.517-5.001 107.674-20.918 161.715-25.478 36.719-3.275 75.957 11.559 110.477 22.359 2.639 0.795 5.319 1.722 7.799 2.323 30.32 8.922 65.316 9.559 96.558 24.878 32.039 15.44 60.636 39.517 91.235 58.116 28.598 17.159 55.159 38.12 82.835 59.517 41.557 32.198 79.038 51.559 109.196 97.356 31.717 47.959 95.958 105.754 80.637 168.271-0.319 1.722-0.964 3.275-1.719 4.526 5.918 17.039 12.038 33.877 18.278 49.999 15.479 39.997 22.64 143.274 12.48 209.833 3.921 0.339 7.521 1.234 10.8 2.799 12.359-16.079 31.559-32.959 35.917-53.278 9.398-44.677 10.958-72.956 0.319-112.037z"></path>
    <path fill="#000000" d="M707.709 247.904c9.56 0 57.996 30.479 61.879 49.078-49.678 17.199-131.074 28.117-163.755 77.517-35.279 52.957-14.198 110.597-39.358 168.114-14.198 32.479-36.56 69.516-70.759 82.317-40.318 15.158-88.595-4.526-127.996 18.441-56.719 32.84-50.158 106.714-74.037 158.753-29.557 63.756-47.959 96.875-103.595 135.633 25.64-24.878 50.638-52.999 60.756-87.678 13.598-45.597-0.758-100.475 20.798-145.156 6.239-13.118 15.158-18.878 21.56-29.039 11.558-17.999 11.558-28.759 20.639-47.196 12.321-24.519 32.797-39.518 57.156-48.44 26.279-9.523 55.159-6.566 79.998-15.758 24.239-9.083 29.399-23.438 52.837-35-0.157-130.954 91.878-214.873 199.033-273.431-5.319 0.226-10.599 0.226 4.839-8.164z"></path>
    <path fill="#000000" d="M122.291 231.224c23.72-4.239 50.599-8.434 73.878-16.117-11.558 35-64.356 59.676-74.358 94.834-13.439 47.518 39.68 65.317 59.676 98.756 50.479 84.995-72.357 141.873-75.918 225.313-2.519 54.516 35.6 85.916 13.281 140.912-12.998-69.356-84.837-144.512-51.718-219.51 14.841-33.277 74.196-68.119 58.438-111.557-13.919-38.758-48.919-45.958-53.278-96.394-2.519-28.439 27.158-107.516 49.999-116.238z"></path>
    <path fill="#000000" d="M1002.696 721.486c0 28.598-2.481 83.757 3.6 119.717-22.64 0.452-44.038 13.401-65.599 17.48-31.88 5.792-64.879 1.396-96.716 9.083-59.239 13.88-83.435 43.88-111.274 90.596-58.279 97.835-157.952 51.238-253.271 41.558-57.478-5.76-98.717-14.678-144.834 24.080 74.517-95.957 164.835-44.239 260.951-49.237 121.997-6.236 125.155-147.153 232.95-169.514 42.478-8.922 156.075-0.339 174.194-83.757z"></path>
    <path fill="#000000" d="M886.301 434.775c9.681-1.997 47.038 34.238 48.118 62.359-47.638 25.64-121.075 31.88-162.032 66.079-37.64 31.717-27.8 94.076-61.558 128.117-29.039 29.399-92.156 17.197-130.756 35-54.517 24.997-54.358 54.876-86.718 96.715-31.559 40.641-109.517 72.358-137.793 72.358 34.52-17.64 77.796-37.958 99.035-71.239 26.879-42.037 30.479-85.475 77.037-116.875 41.24-27.801 99.077-27.519 136.713-60.8 38.12-33.598 31.88-89.036 62.359-126.557 29.84-37.040 91.076-61.077 136.233-76.235-7.958 4.364-16.718 5.477 19.358-8.922z"></path>
    <path fill="#000000" d="M414.92 159.187c-1.402 2.799-3.6 5.316-6.239 7.167-4.56 3.436-9.56 6.441-14.399 9.241-12.158 18.599-10.599 36.56-20.438 52.039-9.72 15.159-28.76 26.4-40.957 40.16-40.16 46.237-11.399 63.718-7.641 112.638 3.879 49.518-31.117 43.279-57.199 69.996-47.96 48.919-66.717 177.952-61.879 245.79 19.079-48.32 11.241-107.516 39.56-157.834 29.198-51.718 69.036-38.119 109.997-72.036 45.919-37.798 11.678-92.156 15.441-140.912 5.319-65 64.236-66.56 101.117-107.795 51.718-57.516-9.998-59.397-57.358-58.438z"></path>
    </svg>