<svg xmlns="http://www.w3.org/2000/svg" viewBox="-53.934 -47.991 1194.246 1152.747">
    <path fill="#000000" d="M831.539 920.646c15.996-23.6 42.323-41.331 63.61-57.162 0.992-0.661 1.777-1.447 2.769-2.273 15.168-19.343 29.387-39.886 46.663-57.451 13.888-14.219 30.503-25.379 44.391-39.39 18.888-18.888 20.996-38.604 28.23-62.659 4.381-14.715 13.764-22.939 21.327-35.215 11.78-18.888 17.443-38.563 21.783-59.063-11.448 10.788-29.842 19.219-40.339 25.171-33.107 18.888-49.391 7.44-63.445-27.444-9.712-23.395-24.387-56.666-29.056-82.83-4.547-25.007 22.899-52.615 16.615-71.339-3.885-11.16-15.168-13.268-22.279-19.715-13.227-11.78-26.659-25.832-35.38-41.002-21.947-39.099-28.56-76.050-63.445-106.553-1.943 0.455-4.009 0.455-5.952-0.331-29.387-11.615-60.222 4.34-88.657-6.324-2.728-0.951-4.836-2.067-6.612-3.389-10.995 2.604-24.22-1.447-36.331-6.779-20.667 4.216-42.283 2.273-50.838-17.111-7.275-2.232-14.384-5.62-21.327-10.623-31.784-22.608-47.615-73.818-48.442-111.101-0.62-35.67 4.381-69.893-31.784-89.938-5.167-2.893-10.828-4.836-16.492-6.116-23.228 1.281-46.995 9.836-70.389 10.828-29.883 1.116-51.83 16.12-79.77 21.616-8.844 1.612-17.731 0.785-26.619 0.165-6.448-0.331-11.78-0.165-16.615 0.496-2.273 0.289-4.712 0.785-6.944 1.116-8.556 1.943-16.492 5.167-27.155 9.836-13.723 5.663-25.171 6.779-38.728 5.001-5.167 1.777-10.168 3.72-15.004 5.992-18.103 8.556-36.496 14.839-55.095 20.996-23.891 7.895-45.671 31.454-43.067 59.394 3.513 37.447 46.167 41.827 76.174 42.323 28.891 0.455 53.111-7.936 77.166 11.448 13.432 10.664 45.383 39.39 49.599 56.17 7.232 29.552-31.826 52.326-55.054 56.046-18.103 2.728-56.998-3.059-43.439-31.826-7.275 7.275-8.224 22.112-5.992 35.38 4.051 23.559 19.055 26.452 41.498 26.163 50.218-0.661 126.104-57.162 81.549-110.149-38.77-46.167-83.657-84.73-149.499-87.334-5.332-22.608 11.944-41.951 34.719-41.951 9.176 0 16.947 4.671 25.832 4.34 11.78-0.331 23.559-8.060 33.892-11.448 53.774-17.939 104.612-24.22 159.831-31.991 29.883-4.175 35.67-2.397 50.383 21.659 9.672 15.788 17.111 38.398 17.111 57.451 0 27.155-5.001 45.547 5.497 73.158 10.788 28.395 30.999 20.335 48.566 36.166 12.111 10.952 8.887 39.555 19.219 52.45 9.548 11.82 30.834 18.268 45.547 20.996 23.559 4.547 71.215 5.332 87.334-16.284-3.885 20.667 24.055 21.12 35.546 24.055 19.179 5.001 40.010 14.839 53.731 30.999 18.268 21.12 15.664 46.663 44.102 60.842-7.604 19.715-15.664 61.378-9.548 82.045 6.612 22.112 16.492 6.944 2.273 28.891-8.224 12.772-15.996 19.055-20.171 34.223-9.383 34.719-1.943 70.389 28.726 85.393-32.942-13.392-39.223-34.512-51.334-73.117-4.051-12.772-9.216-26.659-10.168-39.719-0.827-12.44 3.224-21.947-3.1-34.719-22.443-45.671-106.553-42.283-147.224-61.998-17.111-8.391-17.772-22.608-28.436-39.555-14.176-22.775-31.95-39.719-57.782-49.558-25.999-9.836-50.55-13.392-72.497 4.175-9.836 7.771-9.836 18.888-26.328 19.384-45.011 0.827-39.719-64.726-15.664-62.618-7.895-3.1-14.508-9.712-25.336-4.712-16.451 7.44-20.667 34.388-17.731 49.267 8.556 44.722 43.399 25.503 67.165 52.286 25.007-20.831 24.055-48.111 56.831-25.007 4.671-15.831 41.167-5.992 52.45 0.62 35.38 20.996 2.108 42.655 13.227 69.603 4.877 11.324 22.775 18.888 33.934 21.163 13.888 2.893 20.667-3.72 31.619-4.381 27.155-1.281 42.655 43.935 67.661 34.719 0.165 23.559 11.448 46.003 18.559 67.991 7.108 21.616 1.777 32.28 0.165 54.062-1.447 20.047 0 41.002 15.335 56.502 7.604 7.604 18.435 9.879 26.495 16.492-15.168-1.943-33.107 6.612-45.879 14.052-34.223 19.675-59.89 41.951-103.33 34.388-27.899-4.836-59.23-20.171-49.887-50.218 5.332-17.607 20.543-34.388 39.099-31.33-5.828 76.217 36 1.447 67.95 9.216 19.88-23.724 19.219-48.442-1.116-70.389-13.556-14.384-24.883-20.5-19.551-42.323 1.943-8.391 4.381-14.672 9.383-18.723-11.16 0.992-21.947-2.728-28.271 18.103-9.672 32.9 19.384 33.727 29.883 56.831 8.556 19.179-9.383 43.895-30.338 41.951-21.988-1.777-12.44-30.999-37.819-25.999-47.45 9.216-77.166 95.27-41.951 126.6 29.552 26.328 61.833 36.496 99.28 28.891 20.335-4.34 86.549-35.67 92.666 6.779-8.556-1.777-17.567-7.108-26.783-5.828-14.715 1.943-37.612 23.6-49.227 31.66-36.496 24.716-102.38 65.553-129.328 7.936-19.88-42.323-58.61-93.329-46.995-140.156 11.284-46.334 24.84-93.329 16.16-141.768-2.769-15.5-9.879-46.167-30.544-48.607-20.5-2.397-44.226 15.5-68.611 12.276-63.775-8.224-23.063-80.557-87.997-82.498-54.062-1.612-102.834 19.384-141.892-28.23-24.551-30.048-42.323-76.382-84.606-85.765 0 0-9.216-37.116-9.216-40.339 0-9.052 3.389-18.392 8.556-26.659-5.167-16.78-18.392-28.23-36.951-12.896-15.5 12.896-32.487 31.619-39.555 50.838-1.157 3.059-3.1 4.712-5.332 5.332-2.439 12.111-2.273 24.387 0.62 35.67 2.273 8.556 12.111 15.376 12.607 23.6 0.951 12.564-10.995 14.052-15.831 24.675-18.723 41.498 31.33 51.542 56.211 61.543-0.165 1.116-0.331 2.232-0.661 3.389 18.227 10.499 14.384 36.951 10.003 56.831-5.332 23.891-8.556 41.167 7.108 62.618 8.391 11.656 20.5 19.384 30.834 28.932 9.052 8.391 16.615 25.171 17.443 39.719 0.951 14.839-17.111 22.279-22.939 22.732-49.391 4.836-79.274-63.279-31.454-54.723-65.883-49.062-62.659 103.165 45.671 79.937 22.775-5.167 32.28-22.939 35.339-25.379 3.1-5.001-7.399-27.611-6.944-34.058 2.108-26.163-25.503-48.607-34.512-70.389-7.44-18.063-3.265-29.387 1.777-48.607 6.116-24.22 5.952-41.787-6.324-64.106-4.836-9.176-10.828-15.168-17.443-21.616-3.059-3.059-13.227-3.224-15.335-5.952-6.283-8.887 0.331-23.435 3.224-35.215 12.111 25.171 30.999 52.326 45.383 55.386 18.227 3.885 10.664-13.392 28.106 5.001 8.72 9.34 12.4 18.888 23.559 26.163 16.615 10.664 42.779 18.559 61.337 24.511 9.712 3.1 21.659 8.1 31.66 6.944 9.672-1.281 15.996-10.952 27.444-11.448 14.839 22.939 10.168 51.83 37.447 69.107 12.936 8.391 29.222 8.060 43.771 9.216 22.279 1.777 55.715-0.165 69.107 20.955 8.391 13.103 3.389 32.611 3.389 46.499-0.331 24.551 4.671 46.21 7.108 69.934 2.893 28.56 3.059 56.006 10.168 84.11 5.332 20.831-0.661 35.339 1.116 55.219 2.273 24.055 34.719 42.943 54.89 52.946-29.718 4.216-85.557 33.768-110.44-0.62-6.944-9.879-2.397-25.832-1.116-36.662 2.893-27.611 4.051-53.111-0.951-80.557-7.275-41.043-15.376-99.941-54.434-124.161-16.78-10.332-45.507-26.163-65.553-22.112-36.951 7.728-61.337 49.558-77.333 78.614-11.944 21.616-3.059 39.886 0.331 62.329 3.389 23.559-1.612 48.731 7.728 71.009 12.607 30.379 57.658 55.219 89.318 33.272 23.891-16.615 28.56-58.61 1.447-74.274-15.831-8.887-31.33-2.563-25.832 18.435-0.165-2.108 0.785-7.108 0.951-9.712 28.602-5.332 24.055 29.718 3.389 37.612-29.842 11.491-34.884-34.388-33.396-53.898 0.165-2.439 0.455-5.001 0.951-7.604-0.785-1.777-1.116-3.885-0.496-6.448 3.555-11.944 2.273-22.279-6.944-31.164-5.456-5.332-3.224-17.607 5.828-17.111 16.451 0.951 30.172-18.723 43.606-25.999 16.78-9.216 29.842-2.108 37.943 13.556 5.001 3.389 9.011 7.895 11.615 14.384 0.165 0.455 0.331 0.951 0.496 1.612 11.284 10.664 18.723 26.783 20.171 43.275 2.439 25.999 9.34 55.219 8.72 80.886-0.661 23.559-11.448 45.507-17.111 67.785-5.663 21.823-5.828 51.666 22.112 58.774 14.219 3.72 29.056 0 44.391 4.381 12.772 3.72 26.328 11.615 39.555 13.060 11.615 1.281 37.158 0.992 45.218-10.003 7.604-3.72 17.772-4.051 25.999-7.604 10.168-4.34 15.335-10.003 26.328-10.664 13.227-0.62 28.395 10.332 41.787 5.663 10.168-3.555 25.047-18.559 36.166-23.891 10.828-5.167 21.823-12.111 34.554-13.723 9.383-1.281 22.112 3.885 31.66-0.661 11.284-5.456 16.78-18.063 29.222-23.395 9.836-4.051 22.608-5.332 34.223-4.671 6.116-5.332 13.060-9.712 20.171-13.888z"></path>
    <path fill="#000000" d="M925.693 503.606c4.505-10.003 10.623-19.055 15.335-29.056 11.284-24.551 16.615-51.666 21.616-77.994 9.052-48.607-11.119-85.722-38.274-125.444-29.676-43.606-43.234-88.946-55.219-139.66-4.009-16.947-6.448-28.395-20.955-38.108-6.488-4.34-18.268-13.227-25.832-15.004-5.992-1.281-13.432 2.563-19.384 2.397-7.936-0.124-15.004-2.067-22.939-1.447-18.888 1.777-15.004 11.78-16.78 28.271-6.116 61.171-120.772 18.888-84.606-24.551 7.108-8.72 31.991-14.343 33.727 2.439 1.323 11.78-19.675 20.335-18.559 6.116-1.281 8.224 5.001 12.936 13.556 14.384 15.211 2.563 22.608-28.891 19.551-37.158-6.779-18.392-35.339-18.559-51.17-0.62-4.216 4.836-5.828 6.612-10.828 10.828-8.391 7.232-12.276 7.232-13.392 17.731-1.281 11.78 12.111 40.051 19.675 48.442 11.324 12.44 44.598 26.328 62.659 20.831 7.771-2.273 15.335-11.615 21.327-15.996 7.895-5.787 17.111-8.556 23.724-16.284 4.671-5.663 5.332-16.16 10.499-20.996 10.003-9.216 42.447 2.563 47.119 15.5 3.555 10.168-5.952 16.284 0.661 27.611 6.944 11.944 12.276 16.16 14.672 30.834 4.051 24.883 14.052 47.779 24.22 71.67 2.439 5.992 6.159 11.16 6.159 17.772-0.331 7.44-9.383 14.839-8.556 22.608 0.62 5.167 7.564 10.995 10.168 15.5 5.167 8.72 9.34 19.839 11.284 29.552 4.712 23.395-11.448 46.499-12.4 68.281z"></path>
    </svg>