<svg xmlns="http://www.w3.org/2000/svg" viewBox="-89.996 -54.399 1181.631 1158.399">
    <path fill="#000000" d="M412.163 601.469c-19.674 38.934-65.221 53.441-81.671 92.996-18.558 44.555 3.059 91.219-33.106 130.606-20.004 21.988-52.945 25.502-75.057 44.721-16.656 14.548-27.775 42.778-43.77 57.989-34.883 33.066-63.278 42.282-98.823 39.554 0.165 1.447 0.331 3.059 0.496 4.671 6.283 7.275 12.936 14.052 19.55 20.666 18.723-0.165 36.786 2.273 54.393 7.275 17.111-3.72 32.446-6.944 43.935-7.771-4.051-61.832 61.005-42.447 95.559-64.229 33.271-20.831 61.501-54.765 70.221-100.104 9.216-47.945 1.612-85.101 20.996-133.377 12.44-30.834 34.222-53.773 27.279-92.996z"></path>
    <path fill="#000000" d="M934.633 973.452c-11.448-30.503-24.882-81.671-48.77-100.724-20.666-16.491-55.838-1.488-77.828-23.27-27.114-26.618-27.114-87.664-41.455-122.217-25.998-62.658-86.548-77.496-88.987-151.933-15.168 16.16-36.166 20.996-56.005 18.723 42.117 32.486 51.498 75.72 71.173 124.159 14.548 35.875 20.046 81.547 36.33 114.322 25.831 51.994 79.935 42.282 115.934 81.381 27.114 29.551 32.279 83.613 89.607 59.558z"></path>
    <path fill="#000000" d="M50.513 433.086c49.886 0.496 149.041 87.332 186.818 111.883 40.67 26.327 138.046 81.216 127.218 145.321 7.275-0.661 7.275 2.728-17.442 1.116-37.115-54.722-61.832-80.555-119.614-85.267-36.166-2.893-57.657 4.216-89.152-19.839-55.218-42.282-148.337-123.333-63.278-178.883 81.381-53.11 186.322 3.884 271.714 8.556 45.878 2.397 89.607-14.879 132.385-13.556 47.986 1.447 78.488 19.054 126.433 13.227 62.162-7.728 125.937-11.283 186.322 6.944 68.941 20.5 141.105 19.715 213.27 27.114 6.448 118.994-356.153 4.712-413.479-0.951-95.103-9.216-179.379 1.447-274.606 6.612-92.54 5-184.379-13.227-277.375-13.227z"></path>
    <path fill="#000000" d="M649.199 606.141c33.395-12.731 53.773 7.275 83.448 5.167 39.554-2.563 82.497-30.171 119.819-44.886 37.611-14.839 118.498-34.387 131.226-83.779-75.224-6.283-123.498 20.5-190.495 41.993-45.837 14.672-93.327 63.94-143.998 81.505z"></path>
    <path fill="#000000" d="M369.054 658.631c75.1 0 130.649-17.276 201.822-26.494 25.998-3.389 84.936 21.823 106.098 5.828 47.945-36.166-113.207-44.555-123.539-45.217-54.889-3.224-123.829-0.951-184.379 65.881z"></path>
    <path fill="#000000" d="M223.94 185.594c25.831-18.268 35.834-48.274 58.277-70.884 28.395-28.891 53.773-35.67 93.327-49.886 61.501-21.823 113.166-39.223 183.056-30.543 36.33 4.547 32.775 1.943 58.938 16.823 23.724 13.556 30.338 34.842 59.889 41.662 39.885 9.34 65.221-8.1 100.766 21.451 30.834 25.667 77.828 106.552 72.825 146.437-16.491-18.062-42.489-26.494-67.825-23.559-1.777-54.722-104.94-85.597-146.272-103.824-61.377-27.279-135.609-45.546-203.763-32.279-58.277 11.448-95.559 35.999-136.889 72.496-26.99 23.724-68.485 86.836-106.263 87.003-14.839-52.614 46.209-53.773 33.934-74.892z"></path>
    <path fill="#000000" d="M490.983 703.185c2.232 60.55-64.105 139.825-87.54 194.878-25.667 60.716-54.557 76.216-95.723 125.937 174.708-5.828 169.831-193.099 211.658-313.872-8.556 0.661-6.944-3.059-28.395-6.944z"></path>
    <path fill="#000000" d="M590.591 709.18c-6.779 2.067-9.879 6.779-17.607 6.612-30.667 88.78 41.993 267.207 112.711 289.154 2.728-5.496 0.124-14.383 0.455-20.335 2.604 1.777 4.547 11.283 8.72 8.556-4.175-33.106-23.394-39.389-35.999-62.989-11.779-22.443-16.284-50.053-23.724-75.72-16.16-55.053-38.769-116.719-44.555-145.28z"></path>
    </svg>