<svg xmlns="http://www.w3.org/2000/svg" viewBox="-15.007 -1.353 1258.897 1111.352">
    <path fill="#000000" d="M116.332 317.087c-2.479 2.321 2.913 0.671 6.291-1.539 9.359-5.227 18.29-14.75 27.059-21.674 11.956-8.73 16.44-20.731 26.394-32.096 6.49-7.517 7.707-15.378 16.756-21.514 18.762-13.215 41.026-16.284 59.627-31.034 28.711-22.419 55.932-35.636 86.493-54.715 33.195-20.258 84.053-42.715 121.383-48.852 35.636-6.132 72.215-10.146 108.007-17.972 38.114-8.139 67.297-9.044 105.727-6.298 32.723 2.321 56.677 14.123 88.499 18.606 10.267 1.373 21.358 5.664 30.562 10.423 10.738 6.021 12.744 11.838 24.426 16.128 16.756 6.175 34.574 11.999 49.168 23.991 24.426 19.668 55.143 34.257 75.6 59.59 10.304 12.626 0.314 18.134 9.359 29.501 9.086 11.094 27.966 24.307 39.648 32.294-2.751 11.955 13.371 15.967 17.818 24.27 2.912 5.664 1.534 13.371 5.23 19.508-12.9 9.198-25.488-16.757-32.412-25.643-15.85-20.924-38.586-36.581-57.31-53.18-23.992-21.203-45.784-45.467-77.289-56.993-46.572-16.757-90.35-38.115-138.451-51.802-37.17-10.583-78.035-15.496-116.739-14.75-17.228 0.444-34.574-0.893-51.646-0.893-15.656 0-42.399-4.919-56.677 3.7-3.068 1.853-3.384 7.825-6.764 10.423-9.831 6.926-23.364 8.139-34.418 10.94-28.282 6.926-60.378 9.044-86.493 24.742-8.77 5.196-14.75 13.65-22.892 19.352-13.843 9.832-31.071 13.687-45.51 23.047-20.57 13.806-27.338 37.015-49.324 46.53-19.668 8.465-35.952 15.694-52.665 29.817-10.304 8.773-10.464 18.761-23.048 24.897-10.148 4.759-17.544 7.517-22.618 18.134-4.919 10.46-4.285 26.116-16.558 28.872-9.241 2.007-22.618 7.394-19.078-3.971 1.379-7.825 3.384-15.537 2.913-23.208 4.012-3.534 10.62-5.707 8.93-8.607z"></path>
    <path fill="#000000" d="M1026.539 324.757c-6.924-3.066-31.189 15.221-39.492 20.295-19.668 12.154-37.052 25.643-58.844 29.499-31.19 5.387-64.229 16.128-93.89 27.494-25.96 9.832-45.038 24.898-68.086 38.431-12.427 7.357-28.239 7.357-40.554 15.221-11.21 7.203-16.756 21.476 1.85 21.632 5.546-9.524 26.748-17.501 37.17-23.954 16.6-10.146 33.667-15.222 49.64-22.103 11.838-4.919 26.276-13.533 38.269-18.762 19.036-8.139 40.393-10.737 61.124-17.227 59.472-18.563 126.457-8.884 182.228 17.227 25.686 12.154 44.25 30.406 51.646 54.242 3.658-18.761 3.974-25.643-4.64-42.088-6.453-11.681-7.986-23.208-13.806-34.139-15.812-30.717-45.939-50.541-71.427-65.607-9.992-5.664-31.822-20.886-31.189-0.222z"></path>
    <path fill="#000000" d="M977.65 401.296c-14.434 7.985-13.806 41.026-11.682 55.46 2.161 13.961 0.468 26.275 1.416 40.393 1.379 17.228 9.992 30.288 16.6 45.94 14.278 32.884 28.239 65.763 41.772 97.901 15.968 38.232 34.102 73.121 39.331 114.143 2.913 23.638 16.44 47.001 15.222 71.428-0.622 12.153-9.086 20.451-10.304 32.45-13.216 2.284-16.44 7.671-20.296-6.926-3.503-13.688 3.106-28.91 0.948-41.971-6.019-35.008-19.196-70.208-25.525-106.316-6.882-38.549-11.956-70.365-33.313-103.406-9.993-15.184-22.302-27.965-29.656-45.467-8.298-19.035-27.338-45.156-24.426-66.352 1.379-10.3 9.52-21.084 12.272-31.506 2.161-7.985 1.379-17.974 3.068-25.054 2.477-9.678 11.526-26.904 24.582-30.717z"></path>
    <path fill="#000000" d="M751.049 462.147c9.676 9.832 14.433 21.358 18.408 35.008 6.174 20.295 10.62 33.357 20.924 51.957 11.21 19.668 18.408 43.461 29.934 63.446 9.086 15.812 15.378 21.042 18.134 39.021 1.69 10.46 2.322 21.358 0.468 28.872 5.98-33.314-12.744-50.541-23.519-79.098-4.446-11.683-6.136-20.295-13.49-30.599-5.862-8.416-12.31-15.657-16.166-25.332-7.043-17.974-4.919-37.486-12.116-54.713-3.54-8.139-10.775-13.806-14.594-21.674-3.068-6.132-2.161-12.588-6.291-16.128 1.808 2.161 3.974 0.893-1.69 9.241z"></path>
    <path fill="#000000" d="M767.649 448.774c10.894-2.161 27.494 31.662 34.418 41.499 13.962 19.035 21.948 34.692 29.344 58.056 7.198 23.835 21.792 36.424 23.954 62.223 1.534 18.29 9.359 39.492 6.136 58.093 4.012-21.985 7.396-40.591 2.634-62.695-5.074-24.897-22.618-43.777-31.034-66.986-7.707-21.514-18.134-36.735-29.816-56.248-9.241-14.905-17.544-28.872-26.587-43.461-3.068 0.444-6.136 2.284-9.048 9.524z"></path>
    <path fill="#000000" d="M789.281 433.237c12.31 0.333 38.269 45.038 44.877 57.148 11.21 20.452 26.904 37.797 39.176 57.466 8.614 14.004 14.433 22.458 17.228 37.958 1.534 9.524 3.224 24.11 6.725 32.884 5.862 14.278 19.234 26.432 23.519 41.655-9.048-40.437-21.986-85.748-45.784-120.161-14.75-21.358-35.791-41.653-41.927-67.297-4.329-17.818-11.838-43.032-33.040-44.566 4.446-0.444 8.888 0 13.216 1.262z"></path>
    <path fill="#000000" d="M829.872 416.046c4.446 17.191 27.81 28.712 36.381 44.722 12.899 23.798 21.83 42.834 40.592 62.974 5.664 5.978 7.825 6.446 12.272 12.899 2.913 3.86 5.862 10.46 8.614 15.066 5.074 8.293 8.614 17.502 13.65 25.371 9.993 15.811 22.302 32.25 29.5 50.069-1.218-9.198-0.437-19.351-3.342-28.282-5.074-15.811-19.234-27.176-27.059-41.336-9.993-18.092-15.656-40.555-28.872-57.584-14.316-17.974-26.904-33.196-39.492-52.708-6.764-10.78-21.202-29.656-42.244-31.19z"></path>
    <path fill="#000000" d="M961.366 511.904c-1.379-13.65-16.6-25.488-24.11-35.952-8.459-12.116-15.968-26.705-26.116-37.641-12.427-13.651-29.028-22.265-44.405-31.78 21.358 14.75 35.791 40.555 54.553 59.155 12.744 12.588 24.898 38.548 40.082 46.217z"></path>
    <path fill="#000000" d="M863.346 403.581c9.086 2.955 15.538 7.548 24.426 11.838 2.477 1.385 5.074 2.629 7.552 3.7-11.838-8.933-24.152-16.911-36.896-22.419z"></path>
    <path fill="#000000" d="M975.21 469.5c-13.688-16.912-23.519-39.021-41.026-51.447-13.060-9.241-26.115-14.633-39.964-20.924 16.010 11.837 31.034 25.841 45.194 38.269 13.962 12.154 18.29 26.432 30.878 41.337 12.116 14.434 29.5 25.804 42.871 38.548 12.588 12.154 25.488 24.153 38.232 35.952-4.758-5.073-9.52-10.583-14.594-15.812-20.886-21.985-43.306-43.343-61.596-65.923z"></path>
    <path fill="#000000" d="M947.56 395.005c-3.224-3.066-6.174-6.021-9.086-9.401l0.794 4.328c-5.701-2.912-12.154-4.759-19.352-4.482 7.67 1.262 14.122 4.328 20.098 8.028l0.622 3.971c3.696 6.926 9.52 11.365 13.962 17.974 7.552 10.46 13.216 22.735 22.302 32.412 8.614 9.241 18.564 18.134 28.121 26.904 7.354 6.926 11.366 15.968 18.564 21.83-0.437-16.010-16.284-28.594-27.177-38.586-12.154-10.891-15.812-20.885-24.581-34.574-3.54-5.227-7.235-10.423-11.054-15.339 2.44 1.964 5.348 3.657 8.298 5.664-4.167-3.38-8.298-6.926-12.47-10.3-2.913-3.22-5.98-5.978-9.204-8.416z"></path>
    <path fill="#000000" d="M1163.89 514.222c-24.426-14.278-50.541-21.83-75.911-34.73-24.582-12.744-51.92-23.798-75.6-38.387-14.433-8.933-27.494-18.134-41.927-26.748-0.468-0.444-0.948-0.444-1.379-0.671 10.738 8.139 22.103 15.968 32.723 23.519 18.134 13.688 38.548 29.499 58.372 39.021 28.593 13.843 59.316 22.146 88.183 35.201 3.856 1.539 8.298 3.503 13.216 5.818 0.794-1.213 1.218-2.161 2.322-3.066z"></path>
    <path fill="#000000" d="M103.904 681.233c-1.572 0.333 0.745 7.985 5.664 11.999 9.359 8.465 23.208 1.964 32.251 9.832 6.335 5.196 10.464 23.638 17.7 30.406 10.894 10.3 22.42 10.78 36.226 13.688 16.911 3.534 28.282 8.453 38.43 27.649 7.986 15.221 10.62 30.717 21.514 42.716 15.222 17.029 38.269 27.021 58.056 33.195 7.080 2.118 14.316 0.782 19.668 6.286 7.080 7.037 11.526 20.569 22.302 27.021 14.906 8.933 84.487 55.026 99.237 33.357 14.75 41.772 64.701 48.852 93.257 58.527 35.952 12.31 78.507 23.837 116.937 18.607 17.502-2.629 33.785-18.134 49.951-21.514 17.346-3.534 44.523 9.832 62.813 11.837 19.979 1.853 34.102 0.782 53.926-7.825 7.986-3.534 16.756-8.773 24.308-4.796-9.402 12.31-21.83 16.284-32.766 18.445-23.165 4.014-45.467 10.78-68.831 12.588-8.732 0.671-26.55 7.702-33.946 3.38-4.446-2.752-3.696-15.023-8.298-15.968-5.348-1.213-9.52 8.293-14.594 11.838-20.569 13.688-43.622 16.128-64.98 18.134-29.655 2.912-74.066 9.364-98.647-10.46-11.366-9.044-14.434-15.184-27.966-16.874-16.284-1.539-37.958-0.671-52.392-11.999-9.676-7.825-12.588-22.735-23.048-27.22-12.116-5.042-29.028 1.853-42.244-1.385-12.588-3.22-24.11-11.681-35.952-17.817-13.688-7.203-52.075-18.725-47.318-50.859-13.216-13.371-39.648-3.534-55.615-10.891-17.072-7.825-40.865-19.507-49.168-44.094-4.328-12.626-2.477-28.594-11.092-37.642-8.577-8.619-25.332-7.825-35.636-15.221-13.060-9.678-20.73-16.757-25.643-33.786-1.102-4.014 2.124-9.832 0.468-14.905-1.85-4.759-8.459-7.702-11.408-10.146-21.948-19.508-52.075-39.803-46.218-84.488 3.974 21.042 26.705 52.392 33.040 48.38z"></path>
    <path fill="#000000" d="M684.814 298.363c1.534 1.964 2.913 3.971 4.285 6.132 0.622 1.114 1.416 2.284 2.161 3.534 4.285 3.22 8.614 6.458 12.744 6.612 0.154-0.782 0.314-1.373 0.622-2.161-4.012-10.146-3.856-25.054-8.93-35.636-4.13-8.933-27.81-35.673-39.020-29.655-16.284 8.73 9.359 24.582 14.16 29.815 4.919 5.664 9.676 13.335 13.962 21.358z"></path>
    <path fill="#000000" d="M634.112 271.932c7.080-16.601-23.798-31.351-34.89-39.648-7.986-5.867-35.952-22.147-40.393-6.458 15.066 8.619 31.822 13.533 47.001 21.948 11.682 6.926 16.6 15.85 28.282 24.153z"></path>
    <path fill="#000000" d="M574.64 264.695c16.6-20.731-106.789-52.392-133.495-37.326 19.824 16.6 45.156 11.365 68.52 13.215 22.264 1.853 43.188 11.366 64.98 24.11z"></path>
    <path fill="#000000" d="M430.998 285.304c0.314-1.114-3.068-1.853 0.314-5.073-6.453 2.118-20.768 8.465-16.912 17.663 4.601 11.21 27.966-2.161 34.257-4.759 18.606-7.394 37.958-13.687 57.937-16.439 10.148-1.539 23.048-0.333 31.35-3.066-29.5-5.073-70.837-9.524-106.945 11.681z"></path>
    <path fill="#000000" d="M580.347 385.447c1.534 9.709-27.966 8.028-33.828 0-3.068-4.279-19.668-20.569 0-24.859 2.006-4.759 18.134 7.037 18.29 1.693 3.856 3.971 14.004 13.65 15.538 23.165zM694.49 405.747c0.468-7.985 3.224-22.892 1.85-30.128-2.161-10.423-15.812-21.632-22.42-29.183-19.078-22.421-36.108-43.306-65.763-50.541-9.52-2.284-40.12-6.458-32.568 4.605-21.674-6.766-32.884 0.782-52.236 9.087-15.222 6.458-28.121 7.357-37.052 25.488-8.614 17.073-19.824 51.802-9.993 68.086 12.154 20.731 25.525 51.014 45.194 58.211 32.096 11.999 51.603 13.844 76.19 15.812 24.581 1.853 35.362-3.503 56.559-16.558 18.29-11.365 38.859-31.822 40.238-54.869z"></path>
    </svg>