<svg xmlns="http://www.w3.org/2000/svg" viewBox="36.347 31.607 967.374 961.817">
    <path fill="#000000" d="M348.837 319.561c0.737 0.345 1.381 0.576 2.119 1.037 14.181 7.006 27.325 15.907 35.837 29.744 1.211 2.075 2.338 4.448 4.972 4.541 0.519-3.331-0.819-7.26-1.381-10.544-4.627-27.756-11.803-54.516-17.166-82.055-1.944-9.944-3.283-20.105-4.881-30.179-1.256-7.525-2.553-14.997-3.72-22.524-0.611-3.205-2.894-8.644 0-11.156-2.94 8.644-7.346 17.161-12.147 25.031-2.248 3.723-4.972 6.177-7.606 9.6-2.681 3.504-5.146 6.224-6.875 10.244-3.156 7.56-6.225 10.465-13.706 13.401-5.403 1.981-9.424 4.759-13.183 8.944-3.806 4.275-7.521 8.125-12.754 10.765-6.53 3.411-13.92 3.894-21.095 5.059-1.947 0.345-6.961-0.231-6.789 2.767 0.081 1.037 3.5 3.804 4.235 4.369 3.459 2.857 8.042 3.756 11.672 6.443 3.934 2.939 7.695 5.014 12.407 6.869 4.106 1.556 8.303 1.729 12.278 3.849 3.5 1.856 7.006 3.723 10.767 5.313 8.948 3.894 18.156 4.669 27.019 8.518z"></path>
    <path fill="#000000" d="M675.345 264.887c-2.505-1.037-3.975-2.546-6.225-4.541-4.061-3.456-9.249-3.975-13.269-7.18-2.207-1.775-3.633-4.669-5.493-6.88-2.332-2.857-5.186-5.325-7.521-8.219-3.806-4.669-6.616-10.072-10.375-14.831-4.368-5.578-7.825-12.057-8.993-18.977 1.169 3.631-0.288 8.908-1.253 12.362-3.289 11.762-7.31 24.125-12.882 35.021-1.169 2.339-2.508 4.403-4.106 6.443-2.681 3.331-5.406 6.050-6.875 10.165-2.332 6.523-2.982 13.659-5.056 20.319-2.119 6.694-4.756 13.274-8.131 19.454-3.456 6.317-5.619 13.358-8.343 20.059-0.91 2.339-6.094 8.125-5.186 10.51 5.102-0.806 8.604 3.975 14.181 3.157 3.717-0.461 6.57-2.639 10.075-3.583 3.456-0.922 7.176-0.576 10.545-1.821 4.843-1.775 10.29-2.674 14.181-5.924 2.638-2.075 4.928-4.369 6.919-6.994 2.549-3.25 4.493-7.225 7.346-10.025 2.031-1.947 4.021-2.339 6.444-3.456 2.248-1.153 3.891-3.031 6.008-4.275 4.713-2.857 10.116-6.050 15.173-8.044 6.616-2.501 11.195-6.005 16.859-10.28 5.102-3.849 10.852-10.681 16.689-12.883 3.070-1.165 7.434-1.381 10.767-1.729-3.891-1.037-6.182-3.631-10.506-3.456-2.031 0.041-4.106 1.291-6.269 0.922-2.508-0.461-4.281-2.513-6.483-3.549-2.248-1.037-4.412-0.576-6.57-1.21-0.644-0.117-1.13-0.461-1.646-0.576z"></path>
    <path fill="#000000" d="M663.293 544.624c-6.269-2.12-11.325-4.714-16.689-8.77-3.115-2.375-6.784-7.744-10.675-8.171 7.693-0.576 15.219-1.994 23.129-2.028 14.221-0.117 27.060 1.775 40.94 4.369 11.456 2.246 23.082 6.188 34.584 7.225 6.961 0.692 13.834 0.692 20.794 0.461 8.557-0.231 17.42-2.719 25.894-4.056 6.574-1.037 12.839-3.205 19.153-4.806 4.797-1.21 8.126-10.372 13.229-8.818-2.031 4.931-6.744 8.47-9.598 12.881-4.581 7.18-6.57 15.087-11.627 22.006-1.773 2.501-4.235 5.185-5.447 8.031-0.819 2.075-1.037 3.849-2.204 5.877-1.426 2.42-3.766 3.756-5.146 5.831-1.469 2.246-1.773 5.451-2.031 8.044-0.473 4.885-2.248 9.555-2.68 14.311-0.243 3.331 0.772 6.649 1.295 9.944 0.865 5.278 5.838 19.108-4.235 15.003-3.070-1.291-6.7-5.658-9.254-7.997-3.675-3.411-7.477-5.924-11.281-8.908-4.195-3.25-5.924-6.694-10.81-9.127-5.014-2.468-9.294-5.658-14.135-8.47-6.008-3.504-12.319-7.306-16.339-12.708-4.843-6.569-10.375-15.221-18.245-18.071-9.682-3.504-18.804-8.689-28.619-12.021z"></path>
    <path fill="#000000" d="M555.046 619.937c0.162 0.039 0.288 0.117 0.426 0.117 0.91 0.461 2.769 7.779 3.375 8.908 5.489 9.507 9.639 20.62 13.617 30.951 0.819 2.168 1.518 4.369 1.903 6.661 0.566 3.411 0.323 6.916 1.342 10.244 3.069 10.981 13.015 21.095 19.369 30.394 10.591 15.778 23.775 28.619 35.753 43.187 4.713 5.658 1.082 11.714-6.483 10.072-4.452-1.037-8.256-3.723-12.839-4.322-4.368-0.692-8.731 0.231-13.099-0.461-5.447-0.806-8.953-3.238-14.571-2.42-12.669 1.902-25.938 2.719-36.748 9.854-8.169 5.313-14.395 12.369-22.093 18.202-4.322 3.283-9.206 5.625-9.811 11.502-2.031-7.997 0.404-17.294 2.633-24.944 1.731-5.796 3.76-11.409 2.338-17.292-0.956-4.115-1.903-7.744-1.472-11.977 0.819-8.689 5.056-16.644 6.959-25.118 3.806-15.869 6.744-31.775 12.494-46.993 1.731-4.494 2.725-9.127 4.928-13.444 3.244-6.488 3.981-12.929 4.756-20.105 0.243-2.546 3.5-14.135 7.22-13.144z"></path>
    <path fill="#000000" d="M344.449 590.524c-9.729 11.156-19.107 21.575-31.821 29.096-5.794 3.411-9.594 8.171-13.575 13.489-2.204 2.984-5.186 5.485-7.131 8.689-1.211 2.028-1.819 6.488-4.368 7.26-1.472-3.067-0.782-8.989-0.865-12.407-0.207-7.525-1.727-21.052-10.244-23.775-3.33-1.037-6.225 0.081-9.254-2.168-1.556-1.21-2.158-3.283-3.76-4.415-1.857-1.336-4.235-1.291-6.139-2.558-2.379-1.602-3.844-4.241-5.619-6.443-4.325-5.278-7.695-9.288-13.229-13.575-2.555-1.902-9.294-5.969-9.469-9.507 3.891-2.075 8.431-0.692 12.624-0.692 4.021 0.039 7.651-0.806 11.543-1.429 10.29-1.729 19.758-5.358 30.089-7.18 8.953-1.602 17.38-5.106 26.328-6.742 7.176-1.303 13.834-2.767 20.45-5.924 5.619-2.719 11.631-7.042 18.202-6.269 26.113 2.939 3.070 36.574-3.76 44.484z"></path>
    <path fill="#000000" d="M685.858 445.401c-1.903-5.014-4.368-9.381-7.956-12.708-5.274-4.885-8.126-8.39-10.68-15.346-3.199-8.39-5.619-17.77-9.811-25.812-4.412-8.219-10.334-14.267-19.281-16.991-5.403-1.647-16.429 1.381-19.369 6.35-4.496 7.571-7.695 15.176-5.403 23.82 2.379 8.734 5.664 17.899 8.557 26.457 3.72 11.156 7.781 21.619 8.473 33.464 0.611 10.072 0.369 21.964-1.727 31.863-0.737 3.411-2.248 5.924-2.119 9.507 0.323 11.803-0.081 23.304-4.756 34.5-8.213 19.975-24.167 34.37-40.506 47.468-8.431 6.88-18.418 14.743-28.836 18.071-10.42 3.283-21.792 1.947-32.426 3.456-15.173 2.12-29.048 4.714-44.525 4.275-13.533-0.461-26.889-2.201-39.427-7.919-19.799-8.989-33.98-32.423-42.236-51.706-3.59-8.518-7.525-16.9-10.42-25.722-2.854-8.563-3.806-17.335-5.319-26.198-0.865-4.631-1.947-9.255-1.988-13.92-0.126-4.322 0.91-8.644 0.819-12.925-0.081-7.054-0.91-13.665-0.404-20.881 1.082-15.393 0.91-30.869 2.424-46.217 0.91-9.819 2.158-15.954 6.7-24.986 2.854-5.751 6.53-10.891 9.598-16.515 3.456-6.35 7.693-10.119 12.794-15.087-0.566-0.231-1.169-0.345-1.727-0.461 1.338-8.125 16.684-10.891 23.299-13.401 2.898-1.153 5.881-2.075 8.906-2.812 4.843-1.153 9.815-1.381 14.786-2.028 7.346-0.922 14.568-2.939 21.962-3.804 3.891-0.461 7.606-0.461 11.237 1.21 3.33 1.429 5.881 4.056 9.598 4.621 8.126 1.336 15.778-6.616 22.394-10.544 2.465-1.429 5.231-2.42 7.651-3.942 3.158-2.075 5.447-4.747 8.692-6.649 5.832-3.331 9.899-9.3 9.944-16.515 0-7.006-3.459-9.034-9.905-10.419-11.369-2.639-20.835 2.546-32.076 2.168-4.713-0.117-11.497-1.037-15.388-3.93-2.078-1.556-2.898-3.583-5.406-4.714-2.719-1.256-6.394-1.336-9.249-0.806-3.070 0.461-6.098 1.037-9.254 1.464-5.186 0.922-10.331 1.729-3.975 4.541-1.819-0.117-3.806 0.461-5.664 0.806-9.514 1.602-18.462 4.103-26.979 8.734-12.104 6.569-20.881 17.119-31.903 25.161-12.019 8.818-24.902 18.631-33.808 30.87-6.831 9.243-15.131 16.556-21.271 26.499-8.387 13.358-14.221 25.677-18.503 41.025-2.894 10.544-6.094 21.14-6.784 32.167-1.037 15.219 4.322 30.39 5.575 45.522 1.168 13.706 3.115 26.978 5.277 40.554 1.988 11.931 2.204 24.21 9.079 34.456 14.568 21.703 27.19 44.616 46.688 62.294 15.086 13.706 32.813 29.097 51.619 36.832 10.42 4.322 20.794 7.653 32.163 7.779 13.834 0.081 27.28-3.411 40.983-4.241 14.786-0.922 24.902-3.504 37.959-10.681 12.019-6.649 24.381-11.409 35.753-19.325 11.022-7.653 21.962-15.262 33.765-21.526 11.413-5.969 23.039-10.981 33.288-18.981 8.819-6.787 16.99-14.093 22.437-24.035 3.931-7.087 7.176-15.086 10.545-22.394 6.7-14.525 12.147-30.478 13.359-46.476 0.737-9.162 0.369-18.242-0.91-27.32-1.426-10.891-1.947-26.027-6.356-38z"></path>
    <path fill="#000000" d="M545.358 447.86c-3.283-3.411-10.244-10.591-14.786-12.231-5.924-2.168-11.973 2.939-18.071-0.461-2.289-1.336-4.753-2.939-6.7-4.586-3.544-2.857-4.843-4.586-9.639-3.504-2.638 0.576-3.891 1.902-6.269 2.719-2.809 0.922-4.542 1.775-6.57 4.403-0.404 0.576-0.644 1.165-0.865 1.602-0.243 1.037-0.288 0.806 0 0 0.207-0.692 0.566-2.213 1.037-4.931-5.102 1.037-7.006 9.773-8.473 13.706-4.542 12.368-11.111 27.325-8.731 40.856 1.687 9.6 5.186 13.879 13.834 17.64 3.5 1.556 6.917 2.894 9.555 5.831 2.332 2.558 3.584 4.969 7.045 6.224 8.172 3.112 18.419-0.039 26.933 0.081 8.557 0.231 14.525-1.509 20.967-7.571 3.85-3.631 6.831-10.072 9.037-14.827 3.931-8.39 2.894-17.985 0.126-26.632-1.947-6.005-4.067-13.79-8.431-18.372z"></path>
    <path fill="#000000" d="M633.251 812.791c0.519 3.975 0.519 7.042 0.162 11.156-0.323 4.415 0.519 9.98-0.91 14.352-1.211 3.975-3.806 7.606-5.319 11.676-2.248 6.143-4.542 9.588-9.037 14.221-3.891 4.022-7.176 8.344-12.665 10.337-3.806 1.419-8.219 1.509-12.193 2.12-8.042 1.381-18.418 4.84-26.458 3.411-5.493-0.922-11.281-4.275-16.558-6.317-6.139-2.375-12.231-12.754-15.219-18.286-2.204-4.241-2.725-8.781-3.544-13.399-0.644-3.112-1.426-6.269-2.289-9.381-1.211-4.586-2.898-9.3-2.594-14.135 0.519-9.681 7.781-18.118 14.742-24.125 3.717-3.019 8.081-5.059 11.586-8.171 4.537-3.894 7.563-8.734 12.839-11.887 7.090-4.275 13.316-4.541 20.967-1.902 3.5 1.21 6.831 2.546 10.461 3.157 4.885 0.806 10.248-0.692 14.918 0.576 6.399 1.902 10.116 9.117 14.094 13.875 5.273 6.395 5.924 14.785 7.001 22.743zM633.972 758.685c-9.555-10.072-28.402-20.665-43.664-24.294-9.555-2.294-20.666-3.594-30.78-2.294-3.156 0.461-7.006 0.692-10.465 1.381l3.459-1.869c-0.126 0-0.126 0.039-0.207 0.081-1.295 0.576-2.465 1.21-3.717 1.856-1.256 0.231-2.469 0.461-3.59 0.806-5.924 1.902-7.434 5.106-12.147 7.919l8.519-4.669c-10.16 6.488-18.592 14.831-25.552 23.909-20.49 26.587-23.082 63.768-19.799 93.033 1.426 12.538 3.717 22.177 15.823 30.131 14.135 9.255 32.122 14.309 47.555 21.962 13.791 6.787 27.841 5.106 44.139 5.313 15.648 0.231 22.869-1.602 32.768-13.098 37.268-43.143 34.109-101.593-2.332-140.2z"></path>
    <path fill="#000000" d="M251.011 648.526c-2.332 2.639-4.756 5.924-7.651 7.952-2.248 1.475-4.671 2.246-6.789 4.022-3.931 3.331-7.262 8.125-11.931 10.544-2.549 1.336-5.403 2.028-7.952 3.411-4.801 2.546-8.906 5.831-14.094 7.525-4.713 1.475-9.38 0.461-14.221 1.856-4.713 1.291-8.692 3.25-13.706 3.205-4.713-0.039-9.815-1.336-14.225-3.157-8.256-3.283-7.477-7.431-6.616-15.219 0.992-8.734 2.424-17.811 4.713-26.372 2.294-8.39 6.744-15.432 10.42-23.259 4.671-10.025 9.294-20.49 21.141-22.608 1.426-6.005 10.244-6.395 16.038-5.706 4.843 0.576 9.769 2.684 14.612 3.676 1.602 0.461 3.891 0.117 5.447 0.806 3.283 1.153 6.269 5.152 8.731 7.398 8.906 8.344 23.432 16.515 23.432 30.175 0.041 6.395-3.158 11.029-7.35 15.781zM270.596 571.256c-4.581 0.117-8.427 1.21-12.794-0.576-5.669-2.294-9.297-7.132-15.393-8.896-5.102-1.556-9.859-1.303-15.086-1.153-23.044 0.692-45.742 3.894-67.138 13.319-43.838 19.147-41.766 72.15-38.567 112.358 1.773 22.478 31.040 39.597 51.619 39.727 16.775 0.231 36.357 0 52.571-4.322 15.864-4.148 25.723-15.218 36.097-27.233 8.774-10.199 15.908-21.402 25.506-30.825 9.769-9.6 11.887-22.052 14.176-35.192 4.541-26.631-5.144-49.195-30.994-57.197z"></path>
    <path fill="#000000" d="M330.85 214.407c-0.041 7.087-2.725 10.81-6.44 16.556-5.102 7.952-11.111 10.681-20.144 12.236-6.399 1.165-13.144 2.939-19.582 1.647-2.594-0.461-4.931-1.556-7.434-2.294-3.289-1.037-8.131-0.692-11.112-2.546-2.294-1.429-3.506-4.448-5.493-6.188-2.119-1.856-4.627-2.294-6.483-4.403-2.725-3.205-2.856-10.465-3.5-14.484-0.992-6.649-0.288-12.538 1.944-18.894 3.806-10.672 11.241-17.594 17.594-26.458-4.797 0 4.496-4.194 7.651-4.621 2.898-0.461 5.707-1.165 8.606-1.153 5.664 0.117 9.119 2.984 13.66 5.844 10.806 6.742 15.648 17.594 24.47 26.458 5.704 5.706 6.394 10.244 6.266 18.286zM360.551 173.364c-2.725-2.028-6.139-2.894-9.123-4.403-4.972-2.594-9.598-5.877-13.875-9.381-7.781-6.395-14.356-10.544-23.866-13.659-8.256-2.684-12.928-5.658-21.618-5.406-13.316 0.461-26.069 1.165-39.212 3.804-30.306 6.095-43.879 28.191-39.381 58.625 2.074 14.051 2.725 32.553 8.557 45.477 6.229 13.834 22.396 26.589 36.618 30.609 6.57 1.856 13.405 2.168 19.975 4.275 5.489 1.775 9.856 5.451 15.131 7.571 9.94 3.849 21.743-1.256 30.259-6.616 8.126-5.152 13.489-12.713 20.625-18.978 8.036-7.054 13.316-9.255 15.219-19.196 0.426-2.812 1.253-5.485 2.248-8.264 1.253-3.631 2.594-7.18 3.5-10.856 1.556-5.924 0.404-11.502 0.956-17.381 0.519-4.148 1.819-7.225 1.168-11.542-1.381-9.555 1.556-18.156-7.176-24.685z"></path>
    <path fill="#000000" d="M748.441 194.587c0.992 8.563-3.975 16.905-7.956 24.167-8.948 16.344-25.162 25.376-43.575 26.719-12.106 0.922-34.675-0.922-37.309-15.907-1.082-6.533-2.508-13.144-3.289-19.798-0.404-3.769 0.040-7.353 0.737-11.075 0.644-3.676 0.404-8.989 2.078-12.407 1.469-3.019 4.496-5.957 6.356-8.863 2.119-3.283 4.669-5.578 7.606-8.125 1.13-1.153 2.94-3.238 4.885-4.448-4.972 1.429-5.056 1.037-5.056 0.692 1.643-0.806 3.975-0.231 5.319-1.21 2.074-1.556 0.772-4.322 1.988-6.395 1.556-2.513 5.014-2.857 7.434-3.93 6.784-2.939 13.489-4.022 21.011-3.112 13.834 1.602 21.531 12.881 30.694 22.006 6.399 6.443 8.081 12.838 9.079 21.702zM775.981 175.229c-4.627-4.931-7.741-11.019-11.672-16.339-6.182-8.563-13.619-15.912-22.307-22.051-3.070-2.246-6.269-4.541-9.644-6.616-4.021-2.594-8.297-4.931-12.624-6.488-5.794-2.201-13.056 0.461-19.153 1.521-3.416 0.576-6.871 1.165-10.331 1.729-3.72 0.576-3.844 1.21-6.444 3.205-3.369 2.468-6.917 2.719-9.249 6.533-1.903 3.067-2.119 5.877-5.838 6.994-3.025 0.922-5.748 0.345-8.731 1.902-3.891 2.028-7.477 5.185-10.981 7.906-10.29 7.871-16.469 19.714-21.396 31.602-8.475 20.88-11.111 45.18-3.981 67.052 3.633 11.109 11.631 18.031 19.023 26.589 9.598 11.156 14.225 15.087 29.788 14.442 25.246-1.037 50.364-1.165 74.919-7.871 4.843-1.336 7.392-4.714 9.769-9.034 4.584-8.090 7.306-17.38 9.682-26.414 3.029-11.235 10.42-20.406 14.356-31.431 2.981-8.39 2.594-13.75 1.169-22.307-1.381-7.525-0.91-15.219-6.356-20.925z"></path>
    <path fill="#000000" d="M885.507 599.731c-4.235 8.908-9.983 20.667-18.847 26.069-6.356 3.975-14.571 5.625-21.786 6.832-6.961 1.256-10.981 0.117-17.339-2.639-8.256-3.504-17.16-3.804-25.331-7.606-1.944-0.922-5.186-1.947-6.66-3.676-2.505-2.984-2.332-10.856-2.894-14.395-1.082-6.143-1.643-10.51 0.865-16.599 3.241-8.044 6.094-17.985 11.456-24.771 2.633-3.283 4.928-3.804 8.427-6.095-1.119-3.25 2.248-6.143 8.519-5.625 3.459 0.345 6.44-0.692 9.729-0.692 2.419 0.117 4.537 0.806 6.959 0.461 2.465-0.231 4.753-1.256 7.22-1.256 4.797 0.231 11.196 1.775 15.949 3.157 5.664 1.556 9.989 4.586 14.094 8.689 4.322 4.275 7.912 9.726 10.806 15.128 4.195 7.779 2.469 15.263-1.169 22.915zM900.204 539.277c-12.453-18.202-35.972-28.576-57.414-27.541-10.331 0.461-21.095-0.231-31.211 2.594-8.822 2.513-14.785 8.297-22.222 13.489-7.006 4.969-12.708 7.18-17.206 14.956-3.416 5.924-7.481 11.409-11.456 16.944-7.35 10.119-12.494 22.696-6.055 34.975-0.404 19.714 6.875 40.769 19.194 54.991 22.222 25.769 57.197 28.622 88.368 22.738 26.328-4.969 53.824-21.958 57.669-50.018 3.85-28.185-3.584-59.443-19.669-83.131z"></path>
    <path fill="#000000" d="M325.595 181.761c0.438 2.468 0.956 4.759 1.518 6.694 1.554 5.406 5.92 4.494 10.591 4.275 8.774-0.461 17.768-0.576 26.239-3.157 9.729-2.905 18.852-7.779 28.191-11.762 12.624-5.278 25.376-7.215 38.735-9.555 1.072-0.231 2.204-0.461 3.194-0.576 10.030-2.028 19.715-5.14 29.744-7.132 8.776-1.729 19.369-3.283 28.275-2.939 8.343 0.461 16.775 2.468 24.986 3.504 7.912 1.037 15.607 0.576 23.432 1.429 7.996 0.922 15.994 3.067 23.775 5.059 8.126 2.168 15.908 5.358 23.565 8.863 7.090 3.25 14.742 8.125 22.478 9.507 5.277 0.922 9.815-0.461 13.144 4.621 1.469 2.213 2.074 4.978 4.235 6.661 1.988 1.429 4.928 2.939 7.091 4.275 4.972 2.984 4.885 0.041 6.399-4.022 1.469-3.804 5.098-9.866 7.651-12.839 3.544-4.022 8.688-10.119 13.056-13.144 0.644-0.461 4.151-1.475 4.412-2.12 0.692-1.647-1.426-4.969-2.379-6.143-1.169-1.303-2.465-1.602-3.934-2.812-3.802-3.157-3.456-9.127-7.262-11.931-2.204-1.647-4.542-0.806-6.616-2.42-2.119-1.681-1.819-4.022-3.025-6.095-1.082-1.856-2.078-2.075-4.326-3.283-5.704-3.112-11.497-5.969-17.38-8.644-19.454-8.818-42.193-10.372-63.287-12.231-22.781-2.075-45.871-2.12-68.74-3.504-10.936-0.692-21.831-0.117-32.813-0.041-11.281 0.081-22.697-0.692-33.939 0.806-10.375 1.381-20.706 3.975-30.691 6.88-11.025 3.205-23.044 6.317-33.288 11.631-8.219 4.275-20.794 10.856-27.325 18.587-2.074 2.468-4.885 6.005-5.273 9.381-0.243 2.075 0.692 4.056 0.473 6.177-0.162 2.201-1.426 4.322-1.602 6.569-0.126 2.674 0.162 6.095 0.692 9.381z"></path>
    <path fill="#000000" d="M185.822 587.002c4.326-0.461 8.606-0.576 12.882-1.348 5.363-0.922 10.42-0.922 15.908 0.117 3.506 0.692 8.261 3.804 11.676 1.602-1.171-1.981-4.021-3.112-5.838-5.313-2.294-2.719-3.33-6.095-5.231-9.034-4.928-7.353-10.375-14.571-14.006-22.698-4.322-9.519-8.604-20.144-14.786-28.491-4.928-6.649-7.735-14.696-7.606-23.044 0.323-15.694-7.481-30.129-5.754-45.912 1.13-10.672 5.277-20.667 8.563-30.734 4.021-12.581 7.825-25.245 11.068-38.090 2.031-8.031 3.199-15.519 6.356-23.256 4.368-10.856 7.651-22.656 13.144-33.031 3.115-5.957 6.875-11.586 10.030-17.55 3.156-6.095 4.541-12.799 8.343-18.546 4.412-6.443 6.483-14.181 10.68-20.751 0.956-1.647 2.894-5.451 4.368-5.313-1.426-3.975 2.289-6.395 3.5-9.854 1.13-3.157 0.782-7.353 1.602-10.636 1.169-4.714 0.956-11.328-1.426-16.128-2.508-5.313-8.948-5.831-14.267-4.747-4.241 0.806-6.832 2.846-9.644 6.131-2.766 3.376-5.403 7.653-7.045 11.762-0.692 1.902-0.692 3.804-1.211 5.831-1.512 5.185-5.274 10.51-7.735 15.393-2.465 4.759-4.928 9.473-7.567 14.094-4.452 7.825-9.682 15.647-12.019 24.468-0.737 3.031-1.256 6.224-2.465 9.127-2.031 4.415-5.493 7.825-7.912 12.019-2.508 4.621-4.111 9.645-6.483 14.356-7.266 14.135-14.311 29.397-23.088 42.713-12.624 19.194-16.214 44.139-13.92 66.706 2.164 21.702 0.819 43.404 1.426 65.233 0.041 2.075 0.162 4.148 0.207 6.188 0.404 17.206 5.186 33.765 5.748 50.969 0.288 7.479 1.863 14.656 2.681 21.962 0.369 3.756-0.126 13.834 3.975 15.864 2.939 1.475 5.447-1.809 7.133-3.205 2.894-2.468 5.186-4.448 8.557-6.616 5.531-3.504 7.956-7.871 14.094-9.288 2.028-0.461 4.021-0.806 6.049-1.037z"></path>
    <path fill="#000000" d="M729.147 272.264c-0.162-0.806-0.207-1.556-0.426-2.468 0.207 4.885 2.289 7.042 6.008 9.726 4.412 3.112 9.294 4.759 13.53 8.171 6.269 4.931 10.895 11.718 15.306 18.372 6.784 10.119 11.713 21.317 17.42 32.081 6.616 12.494 12.364 25.853 16.944 39.296 6.832 19.929 9.428 41.025 12.844 61.691 2.289 13.706 4.276 26.759 4.797 40.549 0.473 10.51-0.692 21.23-1.727 31.644-0.644 6.661 1.037 12.883 9.165 11.931 8.519-1.153 16.99-2.028 25.552-2.594 7.306-0.461 13.53 2.639 19.408 6.488 3.59 2.375 12.669 6.443 17.206 5.185 0-3.549-1.072-7.087-1.643-10.544-1.857-10.856-3.584-21.79-5.748-32.642-4.496-22.003-8.647-43.924-12.323-66.101-2.419-14.656-3.801-30.26-7.567-44.656-4.406-16.991-17.161-30.784-25.807-45.568-7.006-12.063-14.395-23.388-21.831-35.060-7.176-11.075-11.068-23.565-19.281-34.069-7.090-9.288-15.388-17.895-22.909-26.89-1.993-2.294-3.459-4.885-6.315-6.143-2.248-1.037-4.885-0.692-7.22-1.509 1.643-0.461 3.33-0.117 4.756 1.037-1.727-1.602-3.544 4.669-5.969 4.322-3.194-0.576-7.606 1.647-9.856 3.504-7.521 6.224-15.431 17.249-15.778 27.494-0.438 0.117 1.903 6.616 1.469 6.787z"></path>
    <path fill="#000000" d="M795.592 642.447c-3.283 4.494-5.578 8.689-7.952 13.533-4.584 9.645-10.68 18.804-15.781 28.231-5.144 9.507-10.417 18.847-15.257 28.531-5.406 10.591-11.931 20.319-18.893 29.828-2.119 2.984-3.506 6.35-6.483 8.596-2.639 2.12-5.969 3.157-8.731 5.531-3.115 2.684-6.616 4.84-9.682 7.479-5.881 4.885-13.319 11.975-20.84 14.267-4.842 1.509-11.068 1.602-16.038 2.468-4.581 0.806-9.682 2.375-14.267 2.558-5.363 0.117-12.237-1.869-17.381-2.939-3.283-0.692-6.269-1.775-9.123-3.504-1.169-0.692-2.85-0.922-3.844-2.075-1.687-1.981-1.082-3.894-3.155-5.706-1.386 3.676 1.426 5.014 3.025 7.606 2.94 4.631 4.885 11.756 6.789 16.991 5.664 15.694 9.249 32.031 11.928 48.42 0.566 3.331 0.519 8.044 2.123 11.019 5.879 1.153 12.494-6.177 16.684-8.563 10.591-5.969 22.569-9.473 33.849-14.008 12.193-4.84 29.269-6.694 38.651-16.469 5.924-6.143 10.506-13.405 16.644-19.455 3.544-3.676 7.392-6.916 10.551-11.029 10.545-13.745 21.312-27.15 32.247-40.549 5.231-6.533 10.551-12.714 14.14-20.406 2.332-5.059 3.544-11.676 6.7-16.344 1.426-2.168 3.891-3.411 5.447-5.451 1.944-2.594 2.505-6.569 3.802-9.555 1.731-3.756 3.544-6.649 6.055-9.681 4.067-4.931 6.094-12.407 6.094-18.458 0-2.246 1.211-5.751 0.566-7.825-1.13-3.504-3.115-1.681-6.229-1.336-10.506 1.21-20.36-3.894-29.308-8.689-7.006-3.723-11.543-10.419-19.975-10.498-0.162-0.461-0.369-0.922 7.651 7.479z"></path>
    <path fill="#000000" d="M244.89 726.729c1.386 1.037 2.725 2.246 4.106 3.411 8.822 7.997 16.558 17.466 25.552 25.247 3.416 2.984 7.392 5.268 10.806 8.39 2.638 2.42 4.541 7.386 7.567 9.034 2.725 1.419 5.969-0.461 8.906-0.081 3.631 0.461 5.879 2.375 8.948 4.369 10.29 6.742 20.751 13.098 31.385 19.069 11.371 6.395 23.565 10.719 35.020 16.991 7.996 4.322 14.568 9.633 23.644 11.626 13.405 2.984 27.625 6.88 41.375 5.451 8.864-0.922 17.811-4.022 26.759-1.947 11.977 2.767 18.202 11.673 25.463 20.49 8.519 10.244 19.975 4.369 20.84-7.906 0.692-9.98-0.91-21.225 2.074-30.955 1.643-5.185 4.928-9.98 6.094-15.432 1.13-4.969 1.037-10.419 1.903-15.393 0.992-6.832-0.369-16.383 3.289-22.394-4.368 4.275-6.055 6.694-8.864 11.887-6.483 11.846-26.244 11.545-37.875 12.194-21.052 1.165-42.713-0.922-63.506-3.112-6.57-0.692-12.839-2.339-19.238-3.631-5.229-1.037-10.631-0.461-15.778-1.509-4.368-0.806-7.434-3.894-11.196-5.969-3.283-1.821-6.616-2.939-10.244-3.975-9.294-2.639-14.441-6.961-22.307-12.406-10.94-7.525-21.485-13.876-31.084-23.259-6.784-6.649-13.834-12.405-21.787-17.681-8.042-5.231-16.819-10.936-22.873-18.503-3.369-4.322-4.881-8.219-6.394-13.229-1.295-4.148-3.158-5.278-7.956-5.406-6.784-0.081-8.819 7.353-13.316 12.063-4.627 4.931-9.424 9.034-13.444 14.656-1.687 2.339-2.248 4.931-5.277 5.578 1.518 3.723 6.705 6.661 9.558 9.207 5.664 4.931 11.973 8.596 17.852 13.144z"></path>
    </svg>