<svg xmlns="http://www.w3.org/2000/svg" viewBox="35.503 94.444 957.588 897.558">
    <path fill="#000000" d="M468.309 827.431c-0.8-6.854-1.739-13.889-3.38-20.831-1.176-4.84-3.001-9.379-4.739-13.797-1.547-3.89-3.001-7.555-4.080-11.393-0.937-3.565-1.315-7.266-1.639-11.17-0.137-1.55-0.224-3.14-0.464-4.741-0.662-6.515-2.913-12.809-7.275-20.407-2.391-4.178-5.021-8.217-7.695-12.244-3.847-5.917-7.79-11.956-10.837-18.299-3.051-6.329-6.852-12.244-10.461-17.923-3.191-4.978-6.478-10.080-9.151-15.341-1.075-2.064-2.064-4.226-3.051-6.342-1.5-3.277-3.099-6.617-4.928-9.856-1.408-2.439-2.958-4.778-4.456-7.129-1.639-2.49-3.237-4.928-4.69-7.504-1.503-2.628-3.051-5.204-4.597-7.744-1.646-2.676-3.287-5.39-4.789-8.018l-1.267-2.352c-4.364-8.030-8.82-16.232-11.261-24.542-1.782-6.102-4.272-10.269-7.695-13.185l-1.972-1.687c-2.815-2.25-5.256-4.226-6.895-6.992-0.937-1.788-2.11-3.478-3.283-5.115l-1.225-1.926c-4.597-6.854-8.070-14.542-11.494-21.96-4.69-10.269-9.572-20.831-17.267-30.024-1.267-1.501-2.722-2.865-4.13-4.264-2.064-1.962-3.987-3.852-5.304-5.953-1.265-2.25-2.156-4.84-3.051-7.606-0.512-1.501-0.989-3.053-1.593-4.502-2.163-5.541-5.021-10.607-7.837-15.483-1.503-2.577-3.006-5.167-4.364-7.829l-1.832-3.565c-2.441-4.741-4.882-9.62-8.353-14.218-1.408-1.777-2.341-3.703-3.517-5.541 1.265-0.5 2.484-1 3.751-1.501 4.504-1.788 9.056-3.565 13.231-5.541 2.815-1.363 5.445-2.903 8.119-4.401 4.173-2.49 8.114-4.79 12.621-6.102 2.441-0.752 4.974-1.412 7.412-2.014 2.064-0.626 4.13-1.126 6.147-1.687 2.163-0.626 4.319-1.313 6.478-2.064 5.066-1.739 10.321-3.478 15.298-3.703 2.627-0.088 5.206 0 7.69 0.043 5.586 0.124 10.84 0.043 16.095-0.043 14.684-0.25 28.434-0.626 41.9 3.752 5.816 1.926 10.93 5.016 16.423 8.305 3.892 2.388 7.975 4.827 12.337 6.802 7.79 3.514 16.048 5.953 23.977 8.255 7.46 2.164 15.108 4.364 22.238 7.504 7.228 3.14 14.406 7.043 21.304 10.832 6.428 3.525 13.139 7.142 19.944 10.332 5.349 2.388 10.511 5.115 15.715 7.843 2.908 1.501 5.864 3.088 8.87 4.552 2.534 1.313 5.114 2.577 7.695 3.852 3.706 1.788 7.412 3.514 11.022 5.541l1.689 0.876c3.847 2.113 7.929 4.316 12.435 5.917l1.126 0.5c4.13 1.363 7.934 2.628 10.84 5.167 1.038 0.876 2.017 2.014 3.051 3.14 2.391 2.577 5.114 5.491 8.962 7.043 5.912 2.539 19.38-0.5 24.915-6.892 3.001-3.565 3.283-7.791 0.838-11.681-1.213-1.926-3.099-3.053-4.597-3.89-0.464-0.25-0.838-0.5-1.225-0.752-0.788-0.5-1.545-1.25-2.341-1.825-1.315-1.126-2.63-2.202-4.18-3.088-1.36-0.752-2.858-1.363-4.364-1.876-1.126-0.5-2.202-0.876-3.283-1.401-2.908-1.588-5.819-3.939-8.211-6.617-2.11-2.352-4.13-4.79-6.147-7.228-5.397-6.566-10.977-13.324-18.907-18.107-4.037-2.439-6.379-4.84-9.244-8.255-1.739-2.202-3.847-4.027-6.193-5.541-9.479-6.192-19.705-11.632-29.699-16.891l-6.988-3.703c-3.944-2.064-8.167-3.801-12.342-5.629-6.988-2.951-13.608-5.728-19.238-9.907l-2.017-1.639c-2.206-1.739-4.504-3.514-7.273-4.827-12.059-6.192-22.852-10.368-32.939-12.667-4.319-1-8.585-2.151-12.906-3.376-2.484-0.752-5.066-1.55-7.647-2.302-6.848-2.25-13.886-4.453-21.255-5.016-7.647-0.626-16.048-0.5-24.679 0.124-6.379 0.626-11.356 0.5-16.989-0.25-7.038-1-15.059-2.064-22.945-1.126-12.572 1.55-27.025 5.353-42.884 11.218-6.054 2.202-12.385 4.077-18.486 5.905-6.049 1.739-12.056 3.525-17.923 5.629-5.957 2.164-11.161 5.353-16.185 8.58-0.477-0.876-0.8-1.825-1.267-2.714l-3.473-6.854c-3.663-7.078-7.412-14.402-10.84-22.52-0.89-2.25-1.782-4.415-2.064-6.515-0.043-0.25-0.043-0.752-0.043-1.126 0.043-0.752 0.043-1.876-0.176-2.903-0.563-2.164-1.782-4.178-2.858-6.003-0.477-0.752-0.937-1.401-1.267-2.113l-4.789-9.242c-5.445-10.469-11.827-20.597-17.923-30.45-7.553-12.058-15.39-24.492-21.396-37.534l-1.176-2.388c-1.176-2.352-2.391-4.79-3.237-7.266-0.89-2.439-0.89-4.64-1.038-7.228-0.043-1.264-0.087-2.49-0.176-3.801-0.351-4.226-1.88-8.442-3.191-12.196l-0.662-1.739c-1.225-3.466-2.348-6.054-3.706-8.442-0.7-1.126-1.408-2.25-2.113-3.376-1.5-2.439-2.958-4.69-3.799-7.142-1.363-4.077-1.639-8.631-1.875-13.461-0.399-7.417-0.8-15.065-5.445-21.728-0.662-0.876-1.126-1.825-1.547-2.676-0.512-1.126-1.038-2.151-1.732-3.191v-0.043c-0.313-0.5-0.7-0.876-1.126-1.451-0.464-0.626-1.126-1-2.249-1.55-0.137-0.25-0.351-0.752-0.563-1.126-0.615-1.363-1.408-3.239-3.236-4.316-2.256-1.501-4.882-1.313-7.275-1.363-0.615-0.043-1.452-0.043-2.017-0.043 0-0.124 0.043-0.374 0.087-0.626 0.137-1.926-1.164-3.663-3.093-3.939-1.408-0.088-2.722 0.5-3.473 1.55-1.075-0.088-2.674-0.626-3.663-0.752-1.924-0.5-3.33-1-4.739-0.752-4.223 0.25-7.081 2.865-8.070 7.228-1.265 5.917 0.351 11.819 1.782 16.984 0.615 2.352 1.225 4.604 1.646 6.755 0.176 1.363 0.224 2.728 0.261 4.088 0.176 2.34 0.313 4.778 1.075 7.455 0.7 2.49 1.455 4.978 2.206 7.469 1.311 4.077 2.484 8.167 3.613 12.244 1.452 5.442 2.719 10.931 3.939 16.424 1.825 7.829 3.706 15.998 6.192 23.977 5.819 18.912 13.564 38.851 23.65 60.996 3.423 7.606 6.471 15.531 9.429 23.178 1.455 3.801 2.908 7.606 4.411 11.458 3.658 9.005 8.211 16.982 13.324 25.851 3.706 6.515 6.564 13.185 9.572 20.173l2.49 5.816c2.534 5.728 5.534 11.207 8.446 16.75-0.512 0.374-1.038 0.752-1.503 1.126l-2.766 1.739c-14.827 9.62-28.859 18.723-42.368 29.746l-1.832 1.464c-7.603 6.141-14.827 11.956-21.304 19.33-4.548 5.066-9.286 9.62-14.261 14.45l-1.363 1.313c-1.875 1.788-4.123 3.989-5.816 6.566-2.298-1.639-4.882-2.439-7.181-1.401-3.663 1.601-3.613 6.102-3.565 8.918-0.137 4.604 1.408 7.692 3.375 11.356 1.972 3.525 4.928 5.865 7.837 8.118 0.752 0.626 1.596 1.264 2.391 1.962 4.836 4.041 12.249 8.118 18.957 8.118h0.752c8.723-0.5 15.294-5.678 21.113-10.368 1.213-1 2.441-1.926 3.657-2.865 2.534-1.876 5.114-3.752 7.695-5.629 6.478-4.604 13.092-9.344 18.864-14.778 1.832-1.687 3.001-3.478 3.939-5.167 2.49-4.127 5.819-7.642 9.712-11.87 7.275-8.030 15.157-15.483 23.132-22.758 0.7 1.55 1.547 3.102 2.249 4.604 2.722 5.965 5.445 11.87 8.353 17.737 6.471 13.185 13.889 24.961 20.927 35.662 5.206 7.881 10.413 15.765 15.669 23.596 15.578 23.319 31.721 47.487 45.982 71.836 5.399 9.194 10.466 18.716 15.391 27.962 3.939 7.417 7.929 14.783 12.012 22.051 8.493 14.875 17.926 29.515 27.025 43.683l4.739 7.366c1.271 1.926 2.537 3.89 3.895 5.865 3.283 4.928 6.71 9.994 9.194 15.107 0.563 1.126 0.851 2.113 1.075 3.289 0.261 1.601 0.464 3.239 0.7 4.84 0.477 3.376 0.937 6.892 2.020 10.368l0.563 1.962c1.455 4.604 2.534 8.255 2.674 12.765 0 0.876-0.087 1.788-0.137 2.676-0.087 2.302-0.224 4.928 0.399 7.555 0.563 2.302 1.685 4.316 2.766 6.054 0.464 0.752 0.937 1.588 1.267 2.388 4.037 8.305 8.211 16.422 14.922 24.725 2.298 2.813 4.316 5.865 6.379 9.104 2.766 4.226 5.583 8.631 9.286 12.575 2.206 2.388 7.745 8.355 13.84 8.355 0.89 0 1.782-0.124 2.722-0.5 3.143-1 4.223-2.113 4.832-5.029l0.224-1.126c0.176-0.876 0.615-2.014 0.989-3.191 0.464-1.25 0.8-2.439 1.075-3.427 1.782-6.377 2.156-14.875 0.989-22.521l-0.8-6.192z"></path>
    <path fill="#000000" d="M910.369 495.693c-1.267-3.191-3.706-5.115-5.869-6.854-1.126-0.876-2.156-1.687-2.858-2.539-0.512-0.752-0.989-1.588-1.408-2.388-0.8-1.55-1.782-3.239-3.33-4.79-0.851-0.752-1.88-1.639-2.863-2.388l-1.075-0.876c-1.455-1.126-5.537-4.552-11.125-2.628-1.639 0.626-2.341 1.55-2.956 2.577-2.577 2.539-5.206 5.304-7.505 7.98l-1.547 1.788c-5.816 6.48-12.342 13.84-20.033 16.472-10.651 3.651-21.35 8.868-30.405 13.369-10.558 5.215-21.959 8.78-32.988 12.244-6.049 1.926-12.058 3.801-18.063 6.003-4.173 1.501-8.349 3.102-12.48 4.69-4.597 1.825-9.244 3.615-13.889 5.304-7.273 2.577-14.827 4.64-22.238 6.802 1.689-2.813 3.423-5.678 5.299-8.631l1.225-1.926c4.223-6.703 8.77-12.902 12.995-18.58 6.852-9.242 11.59-18.764 14.971-26.134 2.062-4.453 4.266-8.967 6.471-13.369 4.647-9.379 9.429-19.052 12.999-29.090 2.577-7.228 6.614-14.124 10.511-20.834l3.283-5.717c2.484-4.928 4.974-9.056 7.273-12.433l2.582-3.191c1.875-2.302 3.755-4.64 5.678-6.94 13.84-18.156 26.604-36.595 37.864-54.849l1.225-1.926c4.080-6.665 8.349-13.602 13.745-18.721 0.851-0.752 1.782-1.451 2.77-2.113 1.176-0.752 2.298-1.639 3.423-2.628 1.5-1.451 2.627-3.088 3.565-4.502 4.974-7.929 9.244-16.331 13.277-24.449l0.851-1.588c0.838-1.739 1.967-3.565 3.099-5.39 2.719-4.552 5.583-9.242 6.471-14.167 0.512-2.915-0.176-5.39-0.752-7.654-0.351-1.588-0.752-2.951-0.615-4.127 0.437-2.951 3.939-5.541 7.647-8.217 5.162-3.801 11.025-8.067 10.275-15.347l-0.313-3.191-3.191-0.045c-0.937 0-1.36-0.25-2.534-1.264-0.838-0.626-1.639-1.25-2.674-1.788-2.206-1.264-4.554-1.739-6.614-2.113-2.113-0.5-3.802-0.752-5.212-1.825-3.892-3.191-9.896-8.067-17.125-7.129-1.075 0.124-2.064 0.374-3.051 0.752-0.89 0.25-1.363 0.626-2.064 0.5-3.565 0-7.603-1.451-11.59-2.813-2.956-1-6.005-2.151-9.055-2.676-12.292-2.302-24.869-2.539-37.019-2.728-3.425-0.043-6.895-0.043-10.321-0.124-22.569-0.752-45.373-2.951-67.474-5.167l-12.853-1.25c-30.829-2.951-62.077-3.239-92.246-3.478l-14.406-0.124c-31.25-0.5-62.871-2.302-93.604-4.127-9.386-0.626-18.771-1.126-28.107-1.65l-16.983-0.876c-22.569-1.126-45.937-2.34-68.693-4.778-7.555-0.752-15.015-1.739-22.521-2.676-18.864-2.352-38.427-4.79-58.132-4.978-6.945 0-13.939 0.088-21.069 0.25-12.95 0.25-26.325 0.5-39.318-0.626-2.908-0.25-5.069-0.752-7.228-1.588-1.826-0.752-3.517-1.601-5.114-2.439-5.864-2.865-11.446-5.541-20.269-2.915l-1.408 0.752c-0.464 0.5-1.267 1-2.060 1.126-2.163-0.5-4.272-0.374-6.147 0.25-1.88 0.5-3.613 1.451-5.304 2.388-1.038 0.626-2.113 1.126-3.145 1.501-1.825 0.626-3.423 0.752-5.349 0.876-1.075 0-2.11 0.086-3.33 0.25l-0.989 0.043c-1.924 0.124-4.037 0.374-6.993 3.191-0.464 0.752-0.989 1.451-1.452 2.25-0.512 0.088-1.038 0.25-1.596 0.374l-1.639 0.5-0.7 1.601c-0.7 1.687-0.7 3.514 0.176 5.016 1.88 3.615 7.131 4.552 12.2 5.541 1.315 0.25 3.051 0.626 3.517 0.752 2.678 1.264 5.163 3.053 7.791 4.928 4.173 3.002 8.585 6.192 14.118 7.555 1.503 0.25 3.007 0.5 4.461 0.752 2.017 0.25 3.706 0.5 5.299 1.25 4.411 2.202 8.493 3.978 14.075 5.253 14.783 3.615 30.078 3.053 44.856 2.539 4.597-0.124 9.244-0.5 13.84-0.25 12.999 0 25.15 2.352 38.102 4.79 3.423 0.626 6.895 1.363 10.413 1.975 6.664 1.126 13.28 1.126 19.803 1 2.766 0 5.678-0.043 8.585 0.043 8.82 0.088 17.875 0.752 26.511 1.412l4.597 0.25c9.010 0.626 18.156 0.626 26.977 0.5l4.836-0.043c2.11 0 4.223 0 6.428-0.043 6.331-0.124 12.902-0.25 19.142 0.626 2.908 0.5 5.819 1 8.727 1.639 4.031 0.752 8.26 1.687 12.621 2.064 7.367 0.626 14.783 0.088 22.102 0.752l6.614 0.5c10.091 0.752 20.13 1.639 30.216 2.113 5.912 0.25 11.874 0.25 17.831 0.25 8.119 0 16-0.086 24.119-0.086 16.658-0.25 33.736-0.043 50.671-0.124 15.064 0 29.747 1.126 45.937 2.34 10.181 0.752 20.504 1 30.498 1.126 15.341 0.25 31.297 0.5 46.73 3.239 0.662 0.088 1.315 0.25 2.064 0.5 2.017 0.626 4.364 1.25 6.428 0.752 0.313-0.043 0.615-0.124 0.937-0.25 0.512 0.626 0.989 1.25 1.646 1.825 4.501 3.752 9.994 4.277 14.827 4.741 1.213 0.086 2.484 0.25 3.658 0.374 4.037 0.626 7.228 2.064 10.933 3.752l2.674 1.25c2.113 1 4.173 1.501 6.097 2.014l2.77 0.626c4.504 1.126 9.665 2.539 14.777 0.752 0.563-0.124 1.075-0.5 1.646-0.626 0.838-0.5 1.311-0.626 1.732-0.626 0.989 0.25 2.908 2.766 3.706 3.89l0.662 0.876c1.739 2.164 2.534 4.178 2.49 6.291-0.137 3.989-1.075 5.865-3.613 7.091-2.582 1.25-5.445 1.962-8.446 2.813l-3.006 0.752c-8.87 2.676-16.14 9.62-22.195 15.863-3.751 3.801-6.331 7.98-8.77 12.008l-2.064 3.329c-1.782 2.728-3.755 5.304-5.721 7.929-2.113 2.728-4.223 5.491-6.101 8.305-2.719 4.178-4.832 8.541-6.94 12.716l-1.363 2.813c-1.593 3.102-3.283 6.054-4.974 9.005-2.113 3.663-4.272 7.318-6.054 11.218l-0.351 0.752c-1.782 3.801-3.473 7.318-6.054 10.419-2.298 2.728-3.892 5.816-5.392 8.816-0.615 1.264-1.271 2.49-1.924 3.651-5.727 10.32-11.402 20.645-17.032 31.063-9.151 16.795-19.337 33.499-29.187 49.64-6.802 11.17-13.509 22.286-20.080 33.597-2.582 4.401-5.304 8.816-8.021 13.228-3.145 5.029-6.336 10.045-9.194 15.205-4.411 7.829-8.070 16-11.542 23.88l-1.455 3.329c-0.7 1.55-1.639 3.002-2.348 4.552-2.858 0.5-5.675 1.25-8.538 1.412-8.82 0.626-17.877 0.876-26.699 1l-8.211 0.124c-11.402 0.124-22.097 0.5-32.324-3.478-8.777-4.415-17.596-8.868-26.467-13.516-2.908-1.401-5.721-2.714-8.585-4.027l-4.408-2.014c-9.102-4.127-18.112-8.255-27.167-12.433-16.374-7.516-33.264-15.249-50.064-22.524-4.319-1.876-8.727-3.651-13.092-5.491-1.972-0.752-3.987-1.588-5.962-2.439-0.351-1-1.213-2.014-2.627-3.14l-0.989-1c-1.408-1.601-2.582-2.728-5.629-3.565-4.18-1.126-8.449-1-12.531-1h-8.114c-5.114 0-10.229 0.086-15.347 0h-0.437c-8.26 0-15.015 2.064-20.46 6.48-2.719 2.202-6.756 5.442-7.598 9.482-0.313 1.412-0.224 2.865-0.087 4.226l0.043 1.126c0 1-0.043 1.876-0.043 2.777-0.043 2.525-0.137 5.115 0.512 8.118 0.437 1.313 0.662 2.728 0.8 4.226-0.043 0.5-0.087 1-0.137 1.65l-0.087 1.126 0.464 1c0.563 1.825 1.924 2.34 3.006 2.813 2.441 1.126 6.147 0.752 9.336 0.5 1.038-0.088 1.972-0.124 2.722-0.124l12.387-0.041c3.33 0 6.614-0.124 9.808 0.626 3.751 0.752 7.412 1.412 11.211 2.014 3.425 0.5 6.756 2.202 10.229 4.027 3.006 1.55 6.101 3.191 9.572 4.127 2.537 0.752 5.069 1.363 7.56 2.064 4.69 1.126 9.379 2.352 14.025 3.89 3.191 1 6.239 2.302 9.479 3.752 2.865 1.313 5.771 2.577 8.82 3.663 1.832 0.626 3.706 1.126 5.678 1.687 2.815 0.876 5.537 1.639 7.837 2.714 3.051 1.501 5.723 3.89 8.538 6.39 0.937 0.876 2.017 1.876 3.051 2.766 4.554 3.703 9.479 6.342 14.174 8.816 2.391 1.264 4.832 2.525 7.181 3.939 1.967 1.126 3.939 2.352 5.816 3.615 4.739 2.951 9.666 6.102 15.249 8.305 2.206 0.876 4.364 1.926 6.521 2.915 3.521 1.639 7.136 3.277 10.982 4.552 2.11 0.752 4.223 1.363 6.285 2.014 3.613 1.126 7.228 2.202 10.84 3.615 8.211 3.002 16.75 5.629 26.933 8.167 4.832 1.25 9.994 1.926 15.434 2.352-3.473 6.003-6.895 12.058-10.368 17.923-4.739 7.929-9.479 15.907-14.026 23.927-1.646 2.865-3.287 5.678-4.976 8.493-6.895 11.681-13.978 23.788-18.342 37.069-5.586 17.174-15.956 33.172-25.95 48.605-4.223 6.665-8.538 13.231-12.435 19.945-1.267 2.064-2.484 4.127-3.755 6.102-2.674 4.316-5.491 8.78-7.74 13.559-0.7 1.313-1.176 2.865-1.739 4.415-0.89 2.388-1.732 4.964-3.051 6.192-0.261 0.25-0.89 0.5-1.5 0.752-0.989 0.25-2.113 0.752-3.33 1.55-2.674 1.926-3.613 4.827-4.364 7.129-0.176 0.5-0.351 1.126-0.563 1.687-1.164 2.728-2.441 5.167-4.031 7.469-2.815 4.364-5.021 8.918-7.038 13.369l-1.038 2.064-1.924 3.89c-2.113 4.127-4.272 8.493-5.537 13.231l-0.512 1.788c-0.838 3.239-1.689 6.291-2.908 9.517l-0.752 1.739c-0.615 1.687-1.315 3.376-1.689 5.167-0.313 1.825-0.261 3.565-0.224 5.204 0 1.126 0 2.113-0.088 3.277-0.137 1.264-0.313 2.439-0.477 3.663-0.313 2.151-0.7 4.401-0.615 6.802 0.042 3.852 0.7 4.928 3.283 7.181 2.298 2.064 4.461 2.813 6.618 3.565 0.615 0.25 1.267 0.5 1.924 0.752 1.267 0.626 2.391 0.752 3.473 0.752 2.577 0 4.316-1.412 5.675-2.539l3.847-2.766c2.534-1.788 5.162-3.615 7.653-6.102 0.838-0.876 1.825-1.687 2.815-2.539 2.156-1.825 4.456-3.801 6.097-6.428 0.464-0.752 0.937-1.601 1.408-2.439 0.752-1.412 1.547-2.766 2.298-3.651 0.176-0.124 0.563-0.25 1.075-0.5 0.615-0.25 1.452-0.626 2.391-1.363 1.213-1 2.249-2.202 3.283-3.427 0.662-0.752 1.315-1.55 2.017-2.151 0.437-0.5 0.901-0.626 1.315-0.876 1.455-1 3.663-2.25 4.554-5.115 0.437-1.401 0.512-2.728 0.662-3.939 0.042-0.876 0.137-1.876 0.437-2.714 0.477-1.501 0.8-3.002 1.176-4.502 0.464-1.876 0.89-3.703 1.5-5.491 1.363-3.565 3.944-7.091 6.478-10.505l2.298-3.14c0.937-1.363 1.972-2.728 3.001-4.077 2.63-3.565 5.397-7.216 7.367-11.307 0.662-1.363 1.315-2.714 1.924-4.077 1.315-2.951 2.627-5.767 4.223-8.305 1.176-1.825 2.534-3.565 3.847-5.353 2.391-3.102 4.789-6.377 6.614-10.231 0.512-1.126 1.176-2.25 1.739-3.329 0.838-1.464 1.639-2.951 2.298-4.415 0.89-2.151 1.36-4.364 1.782-6.428 0.224-1.126 0.437-2.064 0.7-3.053 0.437-1.588 0.851-3.239 1.176-4.827 0.989-3.89 1.972-7.929 3.38-11.632l1.315-3.289c2.298-6.003 4.501-11.632 5.299-18.297 0.437-2.766 0.615-3.289 2.113-5.953 2.722-4.552 4.832-9.62 6.614-14.031 3.099-7.843 7.46-14.919 12.107-22.521 1.36-2.164 2.674-4.453 3.985-6.665 4.037-6.755 8.777-13.324 13.324-19.661 5.445-7.504 10.982-15.249 15.531-23.503 5.537-9.942 12.391-18.771 19.568-27.872 12.292-1.788 23.223-5.528 35.046-10.045 5.63-2.202 11.685-3.939 17.499-5.591 6.802-1.926 13.84-3.852 20.602-6.802 4.597-1.926 9.055-4.088 13.559-6.239 4.173-2.014 8.396-4.027 12.667-5.917 6.147-2.766 12.575-5.115 18.907-7.366l6.802-2.539c17.499-6.342 33.781-13.609 47.388-19.895 2.064-1 4.18-1.788 6.239-2.728 5.304-2.202 10.793-4.502 15.907-7.744 5.114-3.14 9.244-7.091 13.231-10.843l1.213-1.126c4.037-3.801 8.070-7.181 12.391-10.32 0.937-0.626 1.924-1.313 2.908-1.975 3.006-1.926 6.286-4.127 8.493-7.692 2.627-4.316 6.147-13.466 3.473-20.13z"></path>
    <path fill="#000000" d="M265.958 358.76l1.593-0.088c1.408-0.043 2.722-0.086 4.080-0.086 0.512 0 0.937 0.043 1.646 0 6.521 0 12.43-1.55 19.516-5.016 1.639-0.876 3.237-1.788 4.974-2.813 4.13-2.302 8.401-4.778 12.623-5.066 0.662-0.043 2.11 0.25 3.517 0.876 1.265 0.5 2.49 0.876 3.755 1.126 1.732 0.25 3.191 0.25 4.647 0.124 6.239-0.5 13.559-1.788 21.58-3.939 3.987-1.126 7.929-2.439 11.827-3.801 3.191-1.126 6.379-2.302 9.666-3.239 14.635-4.226 28.434-2.064 43.070 0.25l6.286 1c12.2 1.876 24.212 3.939 35.568 8.493 4.364 1.825 8.631 4.178 12.809 6.467 3.093 1.687 6.239 3.427 9.479 4.928 2.202 1.126 4.456 2.064 6.707 3.053 2.020 1 4.037 1.825 6.005 2.728 4.739 2.34 9.479 4.69 14.266 7.043 5.256 2.628 10.511 5.253 15.814 7.744 3.799 1.825 7.647 3.852 11.402 5.865 6.423 3.376 13.043 6.854 19.94 9.568l3.658 1.501c7.791 3.14 15.863 6.428 24.119 8.816 12.012 3.525 24.070 4.978 35.426 6.192l1.782 0.124c10.93 1.126 22.052 2.202 33.080 2.202 8.677 0 17.218-0.626 25.662-2.577 6.71-1.55 12.765-3.239 18.814-8.593 1.408-1.25 3.847-3.801 3.944-7.043 0.137-3.151-1.646-5.167-2.77-6.515-0.351-0.5-0.8-0.876-1.038-1.313-0.838-1.363-1.452-2.813-2.11-4.178-1.315-2.865-2.674-5.865-5.069-8.305-1.825-1.825-3.517-3.277-7.366-1.501-4.456 1.639-8.027 2.813-12.623 2.49-3.001 0-5.957 0.045-9.005 0.088-9.666 0.25-18.721 0.5-27.498-2.25-7.412-2.352-14.218-5.965-21.536-9.856l-5.771-3.002c-4.031-2.064-8.114-3.703-12.196-5.353-2.298-1-4.647-1.825-6.945-2.865-3.33-1.412-6.756-2.728-10.229-4.041l-1.88-0.752c-9.336-3.615-18.484-7.181-26.928-11.118l-3.613-1.687c-2.49-1.126-4.974-2.352-7.46-3.565-1.734-1-3.38-2.014-5.066-3.002-3.709-2.302-7.603-4.652-11.966-6.239-10.229-3.615-20.454-6.854-30.688-10.131l-1.545-0.5c-3.332-1.126-6.71-2.25-10.044-3.427-6.895-2.439-14.075-4.978-21.488-6.617-2.348-0.5-4.647-1.126-6.993-1.639-8.211-2.064-16.658-4.127-25.286-4.364-6.478-0.25-13.139-0.124-19.661-0.088l-8.162 0.045-3.939-0.045c-6.526 0.045-13.564-0.086-20.46 1-1.547 0.25-3.051 0.25-4.597 0.25-2.206 0.088-4.456 0.124-6.664 0.626-1.639 0.25-3.237 0.876-4.832 1.363-1.689 0.5-3.38 1-5.069 1.313-8.021 1.313-16 3.329-25.994 6.377-5.066 1.601-9.712 3.989-14.218 6.377-6.005 3.053-11.586 5.965-17.782 6.854l-2.249 0.25c-3.006 0.374-6.428 0.752-9.574 2.813-9.994 6.192-19.847 21.206-17.968 32.934l0.437 2.439 2.348 0.626c2.256 0.5 4.789 0.752 8.26 0.626z"></path>
    </svg>