<svg xmlns="http://www.w3.org/2000/svg" viewBox="-4.599 -5.651 1028.620 1029.649">
    <path fill="#000000" d="M444.678 411.012c-117.284 16.45-144.68 132.871 27.288 125.996 14.761-0.715 8.135-4.929-0.287-6.338-12.778 2.124-4.787-3.347-11.124-6.052-15.586-6.439-34.559-19.404-39.778-28.26-17.569-30.096 10.402-63.285 23.902-85.353z"></path>
    <path fill="#000000" d="M544.646 532.509c2.951 2.378 1.836 3.387-6.445 3.531-54.862 1.019-126.429-42.91-70.881-110.264 1.547 5.511 2.519 10.259 3.097 14.614-2.666 12.096 1.547 16.883 7.020 23.078 3.961 2.806 4.211 0.101 5.365-3.387 6.73-15.586 16.739-48.239 0.142-70.305 9.97 0.408 42.442 28.546 50.615 39.238 8.566 9.286 17.137 15.335 9.431 57.237-14.653 26.567-6.622 34.451 1.655 46.258z"></path>
    <path fill="#000000" d="M552.962 510.153c9.828-17.315 19.115-20.52 23.902-27.289 3.097 0.817 9.828-16.739 11.664-22.355 6.911-13.21-14.761-35.026-33.73-39.67-4.355 0.101-6.911-1.019-9.146-2.378-4.787-1.112-8.315-0.305-8.026-1.694 0.287-2.806 8.566-5.326 13.357-5.612 3.671-1.837 6.337-2.378 21.383-1.409 5.076-2.124 6.622-1.837 8.281-1.694l0.428-9.429c84.669-2.091 69.191 59.074 33.479 82.15-19.007 13.068-37.548 27.107-61.594 29.375z"></path>
    <path fill="#000000" d="M384.201 296.535c-1.655 5.224-3.491 9.429-5.326 10.981-0.142 4.356 0.287 8.858-1.978 12.385-1.693 3.634-4.355 5.042-8.281 2.091l-30.671-4.215c-8.424 0.408-3.922-8.714-4.502-14.039 21.241-77.361 32.075-126.572 54.142-197.454 5.906 1.266 4.069 0 7.741 2.265-0.142-3.093-1.693-16.882-0.725-22.356 0.725-4.929 2.843-11.844 8.998 1.797 32.939 73.295 82.293 131.073 108.86 146.948-8.713 1.296-23.47-1.95-3.097 10.692 60.19 41.506 133.159 110.696 165.919 149.071 8.173 5.326-6.048 12.385-15.443 16.165-53.602-41.761-116.744-80.565-166.098-118.688 1.404 5.652 3.529 11.266 7.054 16.882-41.074-17.028-35.855-20.952-54.574-32.471-4.502-8.317-4.787 0.511-2.233 4.072-1.547 6.878 0.828 11.521 2.951 16.308-12.238-7.592-24.191-15.625-34.2-26.135-19.115-15.624-16.307-3.246-20.087 2.949-2.951 10.548-7.452 13.21-8.458 22.752z"></path>
    <path fill="#000000" d="M541.552 569.335c-16.705 15.91 9.431 31.247 25.487 10.692 33.587-34.019 85.209-70.306 141.727-109.94 92.121-60.622 165.774-124.594 235.252-189.283-19.979-0.101-62.711 22.356-130.928 34.308-2.666 0.715-5.615 1.112-3.491 4.643 1.547 2.949-0.287 3.246-2.267 3.387-34.594 7.592-68.759 12.778-102.488 16.018-1.836 1.256-1.296 1.837-5.365 1.837-3.382-0.101-4.787 1.256-1.262 5.47 0.969 0.614 2.269 1.112 4.355 1.409 1.404 1.409 1.404 2.408-1.547 2.665-4.787-0.511-9.685 0.408-14.472 1.978-4.069 0.817-8.713 1.694-17.854 1.112 0.398 2.552 1.547 3.093 2.666 3.815 8.173 12.779 18.001 11.664 27.682 12.239 3.814 0.204 7.487 0.408 9.72-1.837 9.97 0 19.979 1.409 29.95 0 5.615 4.215-8.026 15.586-12.385 23.616-5.184 3.093-9.288 7.745-11.374 14.903-21.094 22.93-43.306 39.816-65.411 56.806-39.635 33.622-76.605 68.505-107.996 106.16z"></path>
    <path fill="#000000" d="M585.723 381.35c-9.144-13.642-22.787-32.364-46.978-29.518-94.749-10.548-305.847-17.604-449.123-101.265-6.337-6.622-14.221-3.928-6.337 9.97 38.806 104.216 114.62 179.995 205.733 234.568 2.518-8.418 4.502-16.45 5.326-26.567 0.287-8.603-3.348-17.315-10.117-25.885-34.74-14.329-57.382-45.142-84.094-70.306 7.162 2.378 14.221 4.786 21.815 5.184 12.346 3.093 19.115 2.124 21.349-0.204-2.665-0.408-5.041-2.124-7.451-4.643-8.424-3.093-7.992-5.908 1.693-4.245 7.595 0.614 14.363 0.715 20.951 1.019 8.026-0.614 14.364 1.55 21.094 2.949 4.069 0.817 8.026 1.019 11.664 0 2.125-2.265 0.571-3.093-2.086-3.674-51.047-17.998-46.546-16.989-49.786-17.421-10.26-3.531-5.615-6.193 1.836-3.928 115.16 37.402 321.182 33.73 344.509 34.019z"></path>
    <path fill="#000000" d="M355.653 943.974c1.009-13.931-7.309-39.816-11.953-61.054-3.637-11.521-3.348-21.202 6.622-5.184 5.473 10.259 14.761 21.78 17.711 22.645-2.233-110.948 75.957-197.849 120.092-253.828 7.595-5.47-41.074-27.288-50.47-42.731-3.814-5.071-4.644 1.256-10.26 1.653-16.342 23.22-43.596 48.526-52.452 67.787-2.267 4.929-13.642 14.903-14.363 17.854-2.518 4.215-6.048 4.643-8.281-0.511l-2.125-9.572c-3.637-11.375 0-12.384 2.125-8.571 3.78 6.338 5.184-0.305 5.906-2.552-16.597-95.901-17.854-208.937 1.404-279.242-14.221-6.193-38.412-6.48-42.478-5.908-17.422 122.757-42.586 239.177-28.546 364.885 3.529 15.193-0.969 17.314-3.529 2.949-4.752-7.848-8.713-30.096-11.806-32.904-3.491 92.805 51.622 199.253 82.401 224.308z"></path>
    <path fill="#000000" d="M944.019 776.904c-65.951-130.209-131.323-232.589-207.281-303.723-12.925 5.47-25.846 11.806-38.806 24.299l51.334 114.62c8.281 14.075 23.616 33.48-9.288 16.74-35.566-15.768-61.882-13.21-91.941-18.286 0.828 3.531 3.206 5.755 7.020 7.162-22.355-1.694-31.932-5.612-46.114-11.375-9.577-3.531-9.72-1.256-13.931-1.55l7.020 9.144c-83.517-18.865-158.322-52.306-233.561-82.005-3.097-1.019-8.424-3.775-7.884 3.531-5.473 9.572 1.262 9.286 5.076 15.625 34.74 29.232 351.674 186.582 578.358 225.82z"></path>
    </svg>