<svg xmlns="http://www.w3.org/2000/svg" viewBox="77.039 -0.516 822.189 1026.858">
    <path fill="#000000" d="M628.536 402.080c0.289-0.108 0.575-0.251 1.007-0.397 3.24-1.404 6.445-1.979 9.971-2.557 0.289-0.143 0.575-0.143 0.829-0.143zM747.519 401.108c-1.693-1.404-3.78-2.519-5.616-3.923-1.979-1.547-3.529-3.815-5.508-5.508-1.944-1.693-4.752-2.665-7.163-3.78-3.491-1.836-7.020-3.815-10.692-4.933-3.097-0.829-6.299-0.972-9.539-1.547-3.961-0.683-7.884-1.693-11.807-1.693-8.316 0-16.451-2.087-24.624-1.944-7.163 0-14.472 0.829-21.674 1.115-8.567 0.432-16.559-0.721-25.022 0.829-7.020 1.261-12.239 2.7-18.287 6.48-2.665 1.693-5.473 3.097-7.992 4.933-3.383 2.665-6.191 6.337-9.288 9.396-2.808 2.843-6.191 4.933-9.145 7.452-3.529 3.097-6.48 6.912-9.577 10.295-2.233 2.519-5.184 4.895-7.309 7.703-0.289-0.54-0.432 0.721-1.693 1.836-0.972 1.007-2.087 1.007-3.097 1.693-1.261 0.972-0.143 3.097 1.153 4.212 1.547 1.261 4.355 3.097 6.048 4.104 1.655 0.829 2.519 1.115 4.069 2.665 0.829 0.829 2.665 3.24 3.78 3.78 1.296 0.864 2.125 0.289 3.383 0.575 1.547 0.432 3.24 2.125 4.787 2.808 4.355 1.979 8.856 3.923 13.643 3.383 2.951-0.143 6.588 0.143 9.539-1.007 1.836-0.54 2.951-2.087 4.644-2.951 4.644-2.233 10.981 1.836 15.911 1.836 6.588-0.143 13.068 0.143 19.548 0 2.233-0.143 3.491-0.829 5.473-1.261 1.547-0.143 3.097 0.289 4.501 0 2.519-0.432 5.365-1.693 7.741-2.665 3.097-1.007 4.644-2.125 7.741-2.808 2.665-0.721 4.787-1.007 7.741-1.007 6.731 0 13.5 0 20.378 0 4.933 0 12.239 1.296 14.472-3.923 1.153-2.519 2.268-4.933 3.815-7.309 1.115-1.979 2.951-4.501 4.501-6.048 2.087-2.268 5.041-2.411 6.877-5.076 1.693-2.376 2.557-5.041 5.616-5.905 2.268-0.54 4.393 0.432 6.48 0.143 1.261-0.143 2.268-0.683 3.383-1.404 1.404-0.829 7.163-3.923 7.309-5.759 0.143-2.125-3.097-3.672-4.501-4.787z"></path>
    <path fill="#000000" d="M562.584 630.755c-0.143-4.644-0.683-9.577-3.24-13.357-2.808-4.212-7.703-7.020-12.061-9.145-1.836-0.829-3.383-1.693-5.365-0.721-1.836 0.864-1.979 2.7-3.383 4.104-1.261 1.261-3.097 1.693-4.501 2.665s-2.376 2.376-3.78 3.097c-2.951 1.547-6.769 1.404-9.863 2.808-3.923 1.693-6.299 3.78-10.943 3.923-2.665 0.143-5.365 0-8.027 0-6.48-0.143-14.904-0.972-20.378-5.184-7.884-6.048-16.058-18.002-27-16.74-2.951 0.289-6.912 2.268-9.863 1.547-1.261-0.289-1.693-0.575-2.233-1.693-1.979-4.501 4.355-12.239 5.473-16.451 1.693-5.616 3.815-10.549 6.048-15.734 3.383-7.595 7.163-14.222 11.664-21.242 5.219-8.173 8.713-16.598 12.817-25.454 3.923-8.459 7.452-16.598 10.117-25.596 3.672-13.211 5.905-26.603 7.595-40.211 1.979-16.343 4.501-32.651 7.452-48.817 1.261-7.020 1.547-14.183 2.665-21.384 0.143-1.115 0.143-4.355 1.007-5.041 0.683-0.721 1.944-0.289 2.808-0.864 0.683-0.54 0.397-0.972 0.683-1.693 1.693-2.808 1.693-7.992 2.411-11.089 1.801-7.452 3.78-14.904 6.445-22.214 3.815-10.152 6.769-20.702 8.459-31.502 1.547-10.295 4.501-20.555 5.905-30.815 0.143-0.972 1.404-10.549-1.153-10.549-2.087 0.143-0.683 1.693-1.512 2.557-1.547 1.512-3.815 2.519-5.508 4.212-5.905 5.041-10.403 10.403-13.932 17.28-2.376 4.501-4.069 9.145-6.156 13.643-2.268 4.933-5.508 9.863-7.201 14.904-0.972 2.808-0.829 5.219-1.801 8.173-2.411 6.731-6.337 13.211-8.173 20.088-1.115 3.961-0.575 7.452-0.972 11.556-0.575 6.445-2.411 12.636-4.644 18.827-2.125 5.473-4.501 10.835-6.191 16.451-1.547 5.076-1.836 10.117-3.097 15.047-1.404 5.616-3.923 10.835-5.327 16.308-1.296 5.365-1.979 10.835-3.24 16.166-5.219 19.691-12.239 38.556-20.412 57.241-5.759 13.357-11.089 27.143-14.33 41.507-1.007 4.212-1.007 8.856-1.979 13.068-0.54 2.233-1.404 4.212-2.376 6.337-5.508 10.943-12.385 20.952-15.768 32.906-2.233 7.309-2.951 13.898-7.309 20.52-2.376 3.672-5.184 6.48-8.713 9.145-4.212 3.24-8.713 6.623-12.239 10.692-4.644 5.041-5.473 12.096-9.431 17.423-4.069 5.365-9.685 8.713-10.8 16.019-0.432 2.268 0.108 1.979 2.233 2.125 4.355 0.575 8.713 0.432 12.385-1.693 4.069-2.519 7.163-4.933 10.403-8.567 2.665-3.097 6.048-3.815 9.288-6.048 2.808-2.268 5.616-4.212 9.288-5.219 3.491-1.115 5.616-2.665 8.856-4.355 3.637-1.801 7.849-1.115 11.807-1.115 6.445-0.143 12.779 2.951 19.406 3.923 5.184 0.721 9.828 4.393 14.183 7.452 4.104 2.843 10.835 7.884 15.479 8.173 2.808 0.143 3.672-2.125 6.191-2.951 1.979-0.432 4.501-0.289 6.588-0.829 4.247-1.153 7.741-3.529 11.845-5.219 3.637-1.547 7.020-4.069 10.8-5.076 4.933-1.261 9.863-1.655 14.904-1.655 4.644 0 10.295 0.683 14.796-0.289 2.233-0.432 3.923-1.693 6.048-2.125 1.944-0.432 4.069-0.289 6.156-0.54 7.055-1.439 10.981-11.267 10.835-17.894 0-0.251-0.143-0.54-0.143-0.829z"></path>
    <path fill="#000000" d="M715.442 117.748c-1.404-1.693-3.097-3.923-5.041-1.547-1.547-1.115-2.665-2.665-3.961-4.069-1.944-1.836-4.069-2.411-6.156-3.961-3.529-2.519-5.508-4.895-9.72-6.191-4.069-1.261-8.173-2.951-12.239-4.501-6.048-2.519-13.211-2.808-19.691-2.376-1.944 0.143-4.069 0.864-6.048 0.721-1.261-0.143-2.233-0.575-3.348-1.007-5.651-1.944-11.124-4.501-16.598-6.445-8.605-3.097-16.883-5.508-25.886-5.651-6.048-0.143-11.953-1.547-17.855-2.087-4.644-0.432-9.431-0.143-14.075-0.143-7.992 0-16.883-1.007-24.732-0.143-5.076 0.575-11.267 1.404-15.911 3.529-4.212 1.944-9.145 4.212-13.643 5.473-3.637 0.972-6.731 0.683-10.26-0.721-10.117-3.78-18.684-1.261-28.836 1.296-6.731 1.655-13.5 2.519-20.52 3.348-13.643 1.547-27.432 4.787-40.933 7.884-11.807 2.665-23.328 6.48-35.282 8.713-10.403 1.836-19.116 8.713-29.519 10.26-4.247 0.575-7.741 0.575-11.556 2.411-5.184 2.233-9.396 5.905-14.33 8.424-4.501 2.268-9.145 3.672-13.211 6.623-4.787 3.383-9.431 7.452-13.79 11.232-11.664 10.152-22.788 20.81-33.77 31.787-4.355 4.501-8.713 9.577-14.615 11.953-5.327 2.268-7.884 7.452-10.692 12.239-9.288 16.019-18.395 32.327-30.24 46.549-11.232 13.79-21.095 28.547-28.262 45.002-2.519 5.616-4.787 11.375-6.445 17.28-1.693 5.797-4.644 10.692-6.48 16.2-2.519 7.309-1.404 15.876-2.411 23.328-0.397 4.644-2.376 9.145-2.519 13.932 0 1.261 0.289 2.519 0.143 3.923-0.432 4.501-1.547 9.145-1.979 13.643-0.829 9.828-0.54 19.548-0.683 29.268-0.143 13.357-0.864 26.711-1.115 40.068-0.143 10.26-0.432 20.378-1.693 30.491-2.268 20.27-4.501 40.501-4.212 60.77 0.251 11.521 2.233 23.078 3.491 34.452s3.097 22.356 5.616 33.48c5.219 22.646 13.103 45.002 20.555 67.069 6.588 20.123 12.347 40.79 19.259 60.731 4.644 13.392 9.971 25.886 15.587 38.699 2.125 4.787 4.933 8.999 7.487 13.5 2.233 4.212 4.212 9.288 7.56 12.925 3.097 3.383 6.337 6.191 9.145 9.971 2.557 3.529 5.219 6.769 7.884 10.152 5.473 6.445 12.385 12.636 17.172 19.799 2.376 3.672 4.501 6.48 7.992 9.288 3.529 2.808 6.48 5.759 9.577 8.856 4.212 4.355 9.971 6.337 14.33 10.295 7.055 6.445 14.507 13.068 22.499 18.002 2.7 1.655 5.076 3.637 8.027 4.501 3.24 0.972 6.623 0.972 9.577 2.951-1.693-3.529-4.355-6.48-6.48-9.72-3.672-5.905-6.48-12.528-9.288-18.827-3.637-8.316-5.905-17.030-7.741-25.886-2.087-10.403-1.115-21.674-1.115-32.219 0.143-9.685 2.519-19.259 4.787-28.547 2.808-11.664 6.877-23.328 12.636-33.878 4.393-8.027 8.999-15.768 12.528-24.335 2.808-6.731 5.076-13.643 8.713-19.98 5.508-9.685 9.863-19.799 15.479-29.376 5.076-8.713 9.288-17.712 14.472-26.171 2.557-3.923 6.48-7.452 9.72-10.8 2.808-2.951 5.041-6.191 7.595-9.145 0.289 0 0.432 0.143 0.54 0.289 0.432-0.289 0.864-0.721 1.296-1.153 14.762-15.302 27.251-33.588 38.232-51.875 3.097-5.327 5.759-10.692 8.027-16.598 1.547-3.923 4.212-8.856 5.473-13.068 0.575-1.979 0.432-3.815 1.261-5.759 0.864-2.557 1.115-4.393 1.115-7.055-0.108-1.836 0.721-5.184-0.829-6.588-2.376-2.268-2.951 0.683-3.923 2.519-1.007 1.693-2.125 2.808-3.24 4.212-1.547 1.979-1.979 4.501-2.951 6.769-1.404 3.348-3.097 6.588-5.219 9.539-1.836 2.557-3.097 4.787-5.616 6.48-2.808 1.836-4.069 4.212-6.048 7.020-3.78 5.219-8.027 10.152-11.807 15.336-11.807 16.166-23.363 33.878-40.501 44.57-8.713 5.508-18.287 9.431-26.711 15.194-2.557 1.693-4.644 3.815-7.055 5.508-6.299 4.609-14.615 6.877-21.924 8.567-4.933 1.115-8.281 2.087-12.779 4.355-5.219 2.665-10.295 5.473-15.626 8.027-5.759 2.808-11.267 6.299-16.308 10.117-2.268 1.693-3.097 3.097-4.644 5.041-1.261 1.296-3.24 1.836-4.644 3.097-2.519 1.979-5.327 4.393-7.741 6.623-1.836 1.693-2.808 3.923-4.501 5.759-0.972 1.115-2.087 2.125-3.637 2.125-7.055 0.289-10.549-12.96-13.249-17.604-2.376-4.609-5.759-8.567-8.281-13.068-3.923-7.020-7.163-15.336-9.288-23.186-2.233-8.459-2.233-17.462-4.069-25.886-4.212-19.838-10.26-39.096-12.925-59.219-1.439-9.828-1.547-19.406-1.547-29.376-0.143-9.828-1.153-19.838-1.296-29.808-0.251-18.144 1.404-35.856 3.24-54.001 1.836-19.259 1.693-38.522 6.191-57.673 1.979-8.424 3.815-16.991 5.905-25.454 2.665-11.375 6.337-21.924 10.835-32.759 5.076-12.385 6.623-27.29 14.33-38.375 2.411-3.529 5.508-6.048 8.173-9.288 1.693-2.125 3.24-4.501 4.501-7.020 6.191-11.699 12.671-22.931 20.663-33.48 7.595-9.72 15.047-19.691 22.931-29.268 10.835-13.211 24.59-23.328 38.375-33.156 31.104-22.391 63.578-44.030 99.867-57.383 11.664-4.355 22.499-9.577 34.992-11.413 11.413-1.547 22.356-2.808 33.912-2.808 13.932 0.143 27.83 0.143 41.615 0 8.424-0.143 16.74 1.007 24.875 2.268 7.344 1.115 14.654 3.097 22.106 2.951 4.644-0.143 8.856-1.547 13.357-2.411 2.951-0.54 5.905-0.829 8.999-0.829 5.473 0 10.692 1.115 16.019 2.376 8.027 1.693 16.308 2.557 23.76 6.048 3.672 1.547 7.201 3.815 10.835 5.651 2.808 1.404 14.222 6.156 6.877 9.539 0.143 0 0.432 0 0.721 0.143-1.693 0.575-4.069 0.972-5.327 1.261 1.115-0.289 2.951-0.683 4.501-1.404-2.268 0.143-3.529 0.143-5.797 1.693-5.473 3.672-10.657 7.595-16.451 10.981-19.656 12.096-36.828 26.568-52.994 42.877-7.163 7.309-15.336 13.5-22.646 20.663-6.912 6.769-12.096 15.336-17.315 23.51-4.069 6.445-7.020 14.040-11.807 20.088-0.829 1.153-1.693 1.979-2.951 2.7-2.808 1.655-4.933 2.665-6.877 5.327-5.365 6.731-9.863 14.472-14.762 21.674-6.912 10.26-16.74 20.81-20.702 32.906-3.348 10.26-6.877 19.946-9.253 30.638-1.153 4.787-2.411 9.577-3.672 14.472-0.829 3.529-0.683 7.595-1.979 10.981 3.097 1.547 7.201-6.048 8.748-7.884 7.849-9.971 14.762-20.81 22.754-30.78 3.529-4.355 6.623-8.856 10.549-12.817 3.24-3.059 5.508-5.759 6.769-10.117 3.097 0.289 4.069-2.808 6.048-4.355 12.493-9.828 22.067-23.328 33.878-34.163 39.671-36.431 80.461-71.57 118.011-110.269 6.731-6.877 14.33-14.183 22.214-20.088 2.087-1.693 7.020-3.815 8.424-6.337 1.836-2.951-0.575-4.355-2.087-6.877-1.439-2.808-1.836-5.508-3.815-8.027-1.404-1.836-3.529-2.951-5.076-4.501z"></path>
    <path fill="#000000" d="M802.634 582.802c1.404-2.808 3.24-5.327 4.212-8.316 1.007-2.951 1.296-6.013 1.979-8.999 2.665-10.511 6.048-20.81 8.316-31.502-0.289 8.999 0 17.894 0 26.75v6.299c0 2.411 0.54 4.104 0.972 6.048 1.115 6.912 0.289 14.654 0.289 21.674 0 8.713-0.289 18.002-1.979 26.568-1.261 6.769-2.087 12.96-4.212 19.406-0.972 2.951-1.115 5.905-1.836 8.856-1.115 4.247-3.637 7.884-4.933 12.096-1.547 5.076-2.087 10.295-3.491 15.336-1.404 5.076-3.672 10.692-5.905 15.336-1.693 3.529-3.961 5.759-6.769 8.281-7.992 6.912-12.385 17.030-20.52 24.050-8.999 7.884-12.671 19.691-21.674 27.432-7.849 6.877-16.451 13.068-24.875 19.406-4.212 3.24-8.424 6.48-12.385 9.863-4.355 3.637-8.135 7.992-12.779 11.232-10.692 7.595-23.903 14.364-30.962 26.171-2.665 4.644-6.445 8.856-9.685 13.211-4.355 5.905-8.459 12.096-13.068 18.002-3.24 3.923-6.769 7.741-10.009 11.664-3.24 4.355-5.327 8.999-8.135 13.643-1.836 2.808-4.247 4.501-6.769 6.731-3.529 3.097-6.48 7.344-8.713 11.556-5.473 9.396-11.124 17.28-20.663 22.646-4.644 2.665-9.288 4.895-13.357 8.281-3.961 3.24-8.605 7.595-13.643 9.145-1.979 0.575-4.104 0.289-6.048 0.289-4.933 0.143-9.577 1.836-14.364 2.665-5.473 0.972-10.8 1.547-16.308 2.951-13.357 3.529-25.454 6.769-38.664 2.125-5.616-1.979-10.835-2.125-16.451-1.153-7.309 1.296-14.364 0.721-21.674 0.575-7.992-0.289-17.855-1.261-25.454-3.78-4.644-1.693-8.999-4.501-13.211-7.055-1.693-0.829-5.616-2.519-6.337-4.501 10.403-2.233 21.384-3.78 32.076-5.041 16.308-1.979 32.616-5.219 48.925-5.508 11.556-0.143 21.384-6.191 31.644-10.549 9.145-3.78 16.451-10.403 25.164-14.904 10.441-5.327 19.548-9.539 28.439-17.28 3.923-3.529 7.56-7.595 11.664-11.124 2.233-1.836 4.501-3.637 6.588-5.616 1.547-1.547 1.836-1.836 1.007-0.829 11.521-12.239 22.646-25.346 34.742-37.010 3.491-3.383 7.849-5.184 11.375-8.424 3.923-3.672 6.048-8.856 9.431-13.068 5.473-6.912 11.232-13.643 16.451-20.844 4.787-6.299 9.539-12.493 15.444-17.712 9.288-8.135 16.598-17.712 23.795-27.683 8.135-11.124 16.848-21.384 26.136-31.644 6.912-7.452 15.194-14.222 21.095-22.214 3.923-5.365 8.173-10.152 12.817-14.904 6.731-6.912 13.211-14.222 19.406-21.816 4.069-4.933 8.999-9.971 10.8-16.166 1.836-5.759 2.125-11.807 4.104-17.712 2.376-7.309 4.644-15.194 7.703-22.248 0.143-0.251 0.143-0.397 0.289-0.683z"></path>
    <path fill="#000000" d="M578.064 773.783c-1.115-0.721-2.233-1.296-3.529-1.693-3.097-1.115-5.616-2.411-8.424-3.961-2.665-1.261-6.191-1.547-8.999-2.376-1.693-0.432-3.529-0.575-5.327-1.261-1.547-0.575-2.843-1.693-4.393-2.519-4.069-1.836-8.135-2.125-11.664-5.219-1.261-1.115-2.376-2.519-4.069-3.097-1.836-0.829-4.355-0.432-6.337-0.289-1.836 0-3.24 0.289-4.933 0.721-2.233 0.54-4.752 0.289-7.309 0.397-3.923 0.143-7.992 0.575-12.096 1.439-5.905 1.261-10.403 6.156-16.308 6.877-3.097 0.289-5.616-1.979-8.424-2.808-4.501-1.404-9.288-1.547-13.79-2.951-6.191-1.979-13.643-3.24-19.98-1.693-5.905 1.547-11.807 0.289-17.57-0.864-5.616-1.115-11.089-1.512-16.883-1.512-4.355-0.143-7.703 1.512-11.953 2.519-3.097 0.683-4.355 2.233-7.020 3.923-2.125 1.404-4.501 1.836-6.877 2.557-5.651 1.404-12.817 4.609-16.451 9.396-2.268 2.951-5.365 7.452-6.048 11.267-1.836 9.145 7.849 7.020 13.643 8.281 7.849 1.836 16.451 4.212 24.732 4.644 6.48 0.289 12.239-0.143 18.719 0.864 2.519 0.397 5.041 0.108 7.56 0.251 2.843 0.143 5.651 1.153 8.459 1.693 4.212 0.864 7.884 0.721 12.239 0.864 3.491 0.143 6.877 1.261 10.26 1.404 7.163 0.397 14.472 0 21.635 0 6.769 0 14.075 0.683 20.702-0.575 7.703-1.547 14.762-3.529 22.067-5.905 7.163-2.376 14.183-4.069 21.782-3.923 5.365 0.143 10.403 1.404 15.911 1.404 13.068-0.143 26.279-1.404 38.954-4.104-1.693-2.808-5.616-4.609-8.316-6.299-3.637-2.125-6.445-5.219-9.971-7.452z"></path>
    </svg>