<svg xmlns="http://www.w3.org/2000/svg" viewBox="21.416 -19.590 1020.168 1059.591">
    <path fill="#000000" d="M611.722 368.589c15.057 14.595 18.534 33.732 28.725 48.788 9.219 13.62 14.639 28.769 19.876 43.505 5.467 15.009 17.048 26.729 18.996 44.012 1.161 10.189 4.584 24.045 15.938 31.506 8.71-10.423 14.961-20.295 19.919-31.091 4.079-9.028 8.338-18.389 14.548-25.85 20.848-25.345 39.705-52.031 57.267-79.597 10.98-17.004 21.632-34.467 31.317-59.118-27.657 12.973-51.843 10.003-75.748 10.929-14.966 0.618-30.951 2.408-44.34 8.473-21.449 9.682-42.253 9.954-64.072 4.681-6.767-1.581-13.114-2.828-22.425 3.755zM385.725 511.696c34.424-53.512 62.452-110.313 95.669-166.604-29.279-7.546-57.124-5.422-84.367-5.323-28.399 0.087-56.291-5.285-84.597-4.631-28.307 0.618-56.012-8.991-88.725-6.67 38.040 22.007 66.068 49.343 93.219 81.496 4.169 43.691 41.369 68.662 68.8 101.743zM418.893 549.051c6.069 3.521 8.387-4.025 11.306-3.062 16.496 5.237 31.457-2.915 47.163-4.397 19.506-1.853 38.641-0.864 57.772 3.656 5.607 1.395 10.614 5.705 17.004 4.076 12.23-2.915 25.017-0.741 36.555 1.296 13.389 2.408 26.503-3.101 39.893 1.902 7.273 2.741 16.726 2.087 24.829-1.433 9.545-11.82 4.035-22.145-2.683-32.619-17.885-27.609-39.431-52.444-59.441-78.39-5.188-6.718-10.335-12.879-13.854-20.938-10.426-23.906-30.625-41.142-41.185-63.009-10.608-0.371-15.105 4.124-19.692 9.633-14.822 17.881-23.671 39.237-31.828 60.181-11.768 30.255-29.282 56.662-46.332 83.766-7.691 12.141-19.78 23.069-19.506 39.334zM538.103 115.443c-12.928-6.533-25.249 0.246-37.713-0.618-41.002-3.199-74.267 16.678-108.273 35.068-7.229 3.941-7.507 12.417-15.707 15.567-18.067 7.039-33.544 19.324-51.425 27.104-6.907 2.964-14.504 4.952-20.755 8.941-7.876 5.002-15.149 10.98-22.195 17.053-9.59 8.386-18.949 16.678-29.697 23.58-11.166 7.138-18.116 18.949-24.045 30.394 3.8 3.605 7.137 3.434 10.518 3.335 50.684-2.273 101.372 0.495 152.056-6.953 37.251-5.509 75.797-2.643 114.16-3.569 18.020 12.326 40.677 9.078 60.321 17.466 7.133 3.014 17.742 2.643 24.969-0.371 10.797-4.631 21.684-3.569 32.341-4.31 25.435-1.532 51.376-3.803 76.398-0.371 26.547 3.569 53.277 6.533 79.779 10.707 12.928 2.037 27.009 2.877 41.374-1.532-17.605-32.619-41.281-59.44-68.199-82.097-19.689-16.542-43.827-28.216-66.992-40.215-22.378-11.67-45.773-20.665-70.934-25.903-22.979-4.817-44.797-14.176-65.924-24.829 3.751-7.558 13.898-5.237 17.649-13.667-13.808-2.741-21.405 4.445-27.706 15.197zM181.316 355.088c-8.065 18.809-13.114 38.223-11.445 58.931 0.309 4.262 0.876 8.855-0.345 12.696-9.729 29.744-2.597 59.302 4.588 87.286 11.027 43.456 22.517 87.239 42.393 127.823 14.778 30.205 29.465 60.37 53.512 84.969 18.9 19.413 42.994 29.931 66.342 41.651 32.476 16.216 64.587 33.313 94.466 53.602 22.517 15.337 48.092 18.165 72.738 25.067 0.84 0.246 2.317-2.087 3.939-3.605-0.345-10.287-5.883-18.856-11.027-27.566-11.581-19.597-23.209-39.194-30.206-61.11-5.372-16.818-11.951-32.755-21.449-48.181-28.681-46.24-51.52-95.996-85.295-139.408-25.205-32.34-47.395-67.086-70.281-101.142-25.484-38.035-64.216-64.673-88.263-103.776-4.401-7.175-10.98-10.239-19.641-7.225zM840.11 415.047c-59.908 57.541-105.079 124.35-129.678 206.448-0.456 0.246-4.91 0.987-6.209 3.383-17.376 32.525-34.194 65.418-51.425 98.035-11.955 22.748-24.185 45.36-36.789 67.641-13.389 23.676-23.998 48.37-30.625 75.057 3.106 1.433 5.328 3.383 7.507 3.383 40.306-0.864 76.538-16.77 112.813-31.919 6.117-2.643 11.538-7.273 16.635-11.67 12.788-11.028 24.695-23.21 37.945-33.684 33.033-26.036 56.662-60.23 82.467-92.615 13.619-17.091 14.827-39.055 23.074-58.233 10.561-24.787 13.153-52.077 23.069-77.187 7.786-19.968 8.666-41.883 7.367-62.312-1.948-28.403-8.897-56.526-15.616-84.232-3.151-13.201-6.483-27.195-19.597-43.085-3.059 19.179-21.266 24.507-21.637 41.743zM640.009 625.015c8.108-4.397 13.529-9.918 7.32-21.267-11.725 0.246-23.815-1.112-35.213 1.112-26.225 5.138-51.751 0.864-76.581-5.656-18.717-4.865-36.42-13.624-56.526-12.788-3.102 0.123-6.671-1.581-9.311-3.434-12.138-8.67-24.507-7.411-38.407-2.865 17.327 26.73 36.785 50.266 48.644 78.669 8.8 21.309 20.944 41.557 24.325 64.673 4.82 33.081 17.698 62.965 33.309 91.965 1.211 2.223 2.919 4.039 3.896 5.323 7.782 0 13.48-0.741 19.179-6.854 0.555-1.482 1.39-4.817 2.64-7.867 8.989-20.804 8.989-44.431 19.736-64.726 16.356-31.269 32.711-62.636 49.020-93.865 3.89-7.411 9.912-13.942 8.753-23.208zM891.071 275.918c14.827-0.371 29.976 3.062 44.663-4.175 7.969-3.941 16.308-2.273 25.85 0.618-1.759 16.029-14.822 22.469-23.348 31.78-8.527 9.448-21.127 14.365-28.216 25.16 9.59 33.077 15.938 66.482 22.007 99.978 7.646 42.533 13.206 85.108 13.485 128.381 0.259 34.75-9.406 67.827-14.875 101.65-0.741 4.681-4.631 8.991-7.32 13.297-3.059 5.089-7.552 9.597-9.499 15.057-13.947 38.59-42.855 65.555-71.489 92.751-25.066 23.766-51.982 45.681-77.879 68.478-20.665 18.207-46.701 30.298-70.516 44.846-3.381 2.087-5.327 3.89-3.8 8.251-20.247 1.346-36.967 12.369-56.056 16.774-21.545 4.865-42.070 12.462-62.361 3.755-12.326 9.918-10.475 22.935-14.365 37.482-10.426-13.993-14.595-28.077-21.266-41.374-28.585-6.434-56.662-16.216-83.857-27.426-24.787-10.239-49.343-22.935-70.791-38.829-32.063-23.81-66.899-42.898-100.723-63.562-32.986-20.059-59.211-45.633-78.808-79.131-14.13-24.094-27.104-48.788-36.506-74.778-6.209-17.236-13.392-34.38-17.423-52.633-4.262-19.646-12.23-38.41-17.977-57.729-6.95-23.906-11.672-48.643-13.389-73.527-1.062-15.611 2.317-31.735 4.588-47.534 2.968-20.615 5.281-41.512 14.827-60.552 3.703-7.225 1.852-14.875 2.131-23.444-14.086-15.798-31.691-30.023-36.742-54.343 12.047-2.087 22.007 3.014 32.11 6.212 10.1 3.199 20.198 0.864 30.947 2.087 21.266-26.87 44.062-51.891 66.992-76.861 16.168-17.653 35.861-28.033 55.968-38.223 19.689-10.003 39.194-19.737 57.911-31.595 19.876-12.649 41.743-21.545 64.169-29.053 17.466-5.879 34.839-12.227 52.073-18.809 29.421-11.214 59.908-18.487 90.993-13.067 43.783 7.645 87.19 17.606 130.419 27.894 25.711 6.064 46.933 21.959 67.179 37.944 34.189 27.009 65.462 57.403 95.577 89.095 16.264 17.187 30.254 35.949 45.311 55.132z"></path>
    <path fill="#000000" d="M302.077 596.862c8.065 5.879 15.105 10.325 22.102 12.042 13.111 26.036 11.027 33.91-15.057 60.32-8.57 3.199-17.515-1.112-26.873 0.495-15.519 2.457-28.725-11.301-29.927-27.149-0.432-4.952-0.432-10.152 0.135-15.197 2.178-20.617 11.907-29.327 33.033-30.020 5.093-0.123 10.143-0.246 16.583-0.495z"></path>
    <path fill="#000000" d="M805.892 619.315c13.436 22.099 10.608 43.873-2.131 65.789-4.959 1.716-9.685 3.335-16.635 5.693-10.422-6.25-24.045-4.31-36.276-5.101-26.225-19.275-14.36-43.552 2.317-57.729 14.316-12.276 30.438-17.093 52.723-8.658z"></path>
    <path fill="#000000" d="M498.604 224.143c-1.808-6.349-7.829-8.521-12.138-12.090 0.309-35.025 11.489-62.64 48.644-72.599 38.781 18.53 49.851 44.942 36.136 86.868-11.442 3.89-23.487 7.93-34.699 11.721-14.316-2.828-26.315-9.226-38.641-14.504z"></path>
    </svg>