<svg xmlns="http://www.w3.org/2000/svg" viewBox="42.683 15.128 951.443 992.874">
    <path fill="#000000" d="M730.617 883.036c0.416 2.463 0.832 5.167 1.11 7.593 1.214 8.667 2.151 17.474 3.224 26.14 0.416 3.399 0.416 8.113 1.49 11.233 1.49-0.278 0.97-2.567 1.11-4.056 1.214-12.723 6.623-25.308 10.263-37.652 4.751-16.92 6.794-34.532 11.408-51.59 1.352-4.889 3.087-9.499 4.472-14.354 1.735-6.519 2.567-13.139 4.335-19.52 1.074-4.335 3.362-8.113 4.439-12.307 2.6-9.743-0.798-18.688 4.889-27.493s5.546-19.9 5.962-30.059c0.554-15.739 1.074-31.445 1.074-47.288 0.138-13.937-2.288-28.013-4.61-41.846-1.872-11.233-3.224-23.16-8.807-33.317-3.919-7.418-7.281-13.521-7.418-22.188-0.278-18.306 2.567-37.79-0.554-55.817-0.694-3.64-2.047-7.177-2.704-10.679-1.906-9.743 3.12-21.392 7.039-30.197 1.768-4.194 5.026-7.039 7.177-10.851 2.288-4.056 4.056-8.251 6.378-12.307 1.594-3.12 2.842-6.241 4.855-9.083 2.047-2.704 2.983-1.906 3.258-5.825 0.138-4.751-2.567-7.314-3.919-11.787-0.97-3.258-2.463-6.482-2.983-9.881-0.554-2.983 0.278-6.103-0.278-8.945-0.554-2.567-2.426-3.64-3.258-5.687-1.872-4.61-2.567-10.575-4.056-15.29-3.536-10.297-9.881-19.242-11.787-30.059-1.49-8.667-0.278-15.602 2.426-23.852 3.258-9.743 2.184-20.316 2.184-30.475 0-12.585 0-25.067 0-37.652 0-9.743-0.798-19.104 2.047-28.429 1.074-3.674 1.074-4.61 0.798-8.945-0.798-13.139-1.768-26.419-3.12-39.558-2.426-24.616-5.687-49.161-9.083-73.778-1.49-0.554-2.946-0.554-4.576-0.138-4.194 0.382-8.425-0.278-12.344-2.047-8.529-4.751-16.779-9.603-25.171-14.77-10.713-6.623-25.067-8.113-37.408-6.207-3.503 0.382-6.761 1.49-10.263 1.49-5.583 0.104-10.851-2.047-16.4-2.047-6.519-0.138-12.864 1.074-19.38 1.768-16.92 1.49-32.208-2.322-49.023-4.61-13.521-1.768-27.355-2.288-41.014-3.258-21.668-1.631-42.957-2.288-64.625 0.416-9.187 1.49-18.41 2.704-27.597 3.503-8.147 0.278-16.4 0.416-24.512 0.694-12.065 0.936-20.732 3.399-29.955 10.575-1.631 1.214-4.61 0.382-3.503 3.362 0.798 2.184 3.778 1.11 5.546 1.214 5.962 0.138 11.512 0.416 17.336 1.248 10.297 1.631 20.178 4.855 30.613 5.962 13.659 1.456 25.171 1.735 37.652 8.251 11.512 5.962 22.050 9.465 34.532 12.864 5.825 1.074 11.233 3.258 16.363 6.103 3.815 2.704 7.73 5.271 11.787 7.697 3.536 2.047 9.743 2.463 13.696 2.463 2.426 0.138 4.472 0 6.623-1.11 0.832-0.382 0.694-2.010 1.074-2.288 2.047-0.798 5.962 0.554 8.287 0.694 11.371 1.214 23.16 0.382 34.669 0.382 11.371 0.138 21.912-2.426 33.040 0 20.316 4.335 39.524-1.768 59.598-1.768 1.214 0 11.753-1.214 13.243 0.278 1.11 0.97 0.416 2.047 0.554 3.258 0.554 2.288 0 7.039 0 8.945v22.328c0 21.808 0 43.614 0.138 65.423 0 10.159 0 20.456 0 30.613 0 9.465 2.151 21.946-0.278 31.133-0.798-1.074-2.047-1.631-3.258-1.352-2.010 0.278-0.52 15.568-0.936 17.752-0.138 0.936-1.352 2.567-1.631 4.194-0.416 4.056 0.554 8.251 0.554 12.448 0 8.563-0.416 16.538-1.768 25.067-1.906 11.096-1.49 21.114-5.546 31.688-1.768 4.889-2.463 8.945-5.825 12.864-6.103 6.898 0.278 13.555 0.138 21.392-0.138 2.322-0.694 4.231-1.214 6.378-0.97 3.919-1.49 6.241 1.214 9.743 3.919 5.167 7.559 8.391 10.019 14.77 2.151 5.546 3.64 11.512 6.482 16.779 7.871 14.25 8.147 30.475 5.442 46.077-2.879 16.504 2.151 34.392 2.946 51.173 0.416 6.657 0.554 13.28 0.694 20.040 0 5.026 1.214 9.777 1.214 14.907 0 15.568 0.936 31.272 0 46.735-0.138 2.704-0.416 5.271-0.936 7.835-1.352 5.546-2.184 10.851-2.184 16.675 0.278 16.642 3.815 33.317 3.952 49.959 0.382 24.096-2.6 48.087-2.6 72.183 0 10.955-0.798 22.084 1.352 32.901 2.322 10.992 4.231 21.946 5.825 33.18zM293.051 858.94c0.694-3.399 1.214-6.761 1.631-10.297 1.214-10.159 2.184-20.594 2.047-30.752-0.138-9.187-0.832-19.762 2.567-28.429 1.214-3.258 2.151-6.103 2.567-9.465 0.278-3.12-0.278-6.241 0.278-9.223 1.214-6.761 3.12-13.659 4.61-20.456 0.658-3.12 1.214-7.455 3.258-10.019 2.842-3.399 3.64-4.194 2.704-8.391-1.11-4.889-0.832-10.575-0.832-15.568-0.138-10.297 0.138-20.594 0.138-30.891v-28.984c0-17.612 0.694-36.022 2.426-53.633 1.386-15.011 5.825-31.411 3.258-46.456-2.288-12.723-1.074-26.8 1.906-39.384 2.288-10.435 5.13-20.872 10.297-30.197 3.12-5.583 10.297-7.039 13.28-12.203 1.074-1.906 0.242-6.482 0.242-8.807v-14.216c0-3.12-0.52-6.761 0.138-9.881 0.832-3.399 2.322-5.271 1.768-9.083-0.936-5.546-5.962-8.807-8.667-13.521-4.056-7.593-9.743-14.77-10.955-23.576-2.184-13.971-2.047-27.632-6.378-40.91-2.426-7.593-1.631-15.29-0.936-23.16 1.631-20.316 4.714-40.356 6.623-60.534 2.983-32.104 8.147-64.45 1.214-96.415-2.983-13.28-2.288-26.696-3.919-39.974-0.554-4.855-2.983-10.019-4.056-14.874-1.352-5.167-2.184-10.575-3.919-15.464-0.832 0.832-1.768 1.631-3.12 1.386-1.352 2.426-1.631 5.825-2.322 8.391 0 0.278 0 0.382 0 0.52-1.214 5.583-2.010 11.129-3.12 16.538-2.704 14.075-7.281 27.771-11.616 41.43-3.536 10.575-5.721 21.010-6.657 32.104-0.52 5.409-0.936 10.713-1.906 15.984-1.074 5.825-2.842 11.371-4.335 17.058-1.735 6.898-2.567 13.833-2.426 21.010 0 4.335 0.138 8.667-0.658 13.001-0.97 5.929-3.536 11.512-4.472 17.474-1.214 7.835 1.49 15.152 1.735 22.882 0.138 5.13-1.594 10.817-2.288 15.843-0.658 4.993-1.214 10.159-1.768 15.152-3.224 30.336-7.455 60.951-8.945 91.423-0.936 21.946-0.104 43.893 1.248 65.802 0.382 5.687 0 7.039 3.64 11.267 5.026 5.546 1.906 15.706 2.047 22.188 0 12.065-0.694 24.235 0.52 36.16 0.97 9.743 0.554 19.52 0.554 29.261 0 10.575-0.138 21.114 0 31.688 0 5.026 0.278 9.881-1.074 14.77-1.11 3.64-1.214 6.207-1.214 9.881 0.242 20.316-0.278 40.494 0 60.672 0.242 10.575 3.087 21.946 0 32.381-0.97 3.362-2.047 6.207-2.184 9.881-0.416 11.512 0 23.298 0 34.912 0 11.129 0 22.224 0 33.317 0 12.065-0.798 24.131 1.214 35.918 1.768 9.465 3.258 19.068 4.889 28.568 0.936 5.546 3.258 10.019 5.546 15.152 2.567 5.962 4.472 11.787 6.378 17.752-0.97-22.084 5.271-43.336 9.049-65.007z"></path>
    <path fill="#000000" d="M179.992 431.67c-5.026 0.278-10.159 0-15.048 0-3.778-0.138-7.593-0.832-9.603 2.288-1.906 2.704-1.352 6.378-1.248 9.499 0 7.835-2.704 15.29-2.704 23.020-0.138 2.704-0.936 5.271 1.906 6.066 1.631 0.416 3.536 0 5.13 0.278 2.047 0.278 3.815 0.832 5.962 0.832 3.536 0 6.519-0.832 9.777-1.768 3.362-0.936 6.482-1.214 10.019-0.936 4.472 0.242 6.482 2.567 10.401 3.778 1.768 0.554 4.090 0.416 5.962 0.554 3.399 0.138 7.314 0.382 10.713-0.278 3.919-0.694 6.761-1.214 10.955-1.214s8.147 0 12.203 0.658c5.687 0.97 11.512 0.554 17.474 0.554 7.177 0 14.216 1.352 21.392 1.352 9.223-0.138 18.964-0.278 28.048 1.214 3.087 0.554 6.345 1.074 9.465 1.352 19.38 1.214 38.588 1.214 57.968 3.258 13.139 1.352 26.14 2.842 39.28 4.751 6.623 1.074 13.384 1.49 20.040 1.872 4.472 0.278 8.529 1.352 12.864 2.184 7.835 1.214 15.29-0.278 23.16-1.352 9.743-1.49 19.484-2.842 29.261-4.61 35.328-6.378 71.351-10.992 107.373-13.28 18.306-1.214 36.716-2.704 54.985-3.778 9.223-0.416 18.41-0.832 27.493-0.832 4.056-0.138 8.009 0.138 12.065 0.278 1.352 0 2.288 0 3.64-0.278 6.378-1.214 12.864-3.12 19.104-4.61 13.001-2.983 26.003-2.010 39.42-1.872 8.945 0.138 17.752 0.658 26.661 0.52 5.687 0 12.481 0.278 17.89-0.798 1.214-0.278 2.288-0.554 3.258-1.214 1.49-0.97 2.151-2.704 3.64-3.815 4.889-3.362 14.632-1.214 20.316-1.074 4.61 0.138 9.223 0.832 13.696 0.278 1.352-0.138 2.567-0.416 4.056-0.278 3.258 0.278 5.962 1.631 8.529 3.536 2.842 2.151 4.335 3.919 5.687 6.898 1.906 4.335 4.056 11.096 10.575 8.113 7.697-3.503 8.529-13.8 13.521-19.762 2.463-2.983 5.167-1.214 8.425-1.214 4.056-0.138 8.911-3.258 10.263-6.761 1.906-5.442 1.248-12.065 1.248-17.612 0-5.442-0.138-10.851 0-16.259 0-3.258-0.278-3.674-4.090-3.536-4.056 0-8.251 0-12.448-0.138-2.426 0-5.271-0.658-7.73 0-1.074 0.278-1.735 0.97-2.704 1.248-2.983 0.798-7.314 0-10.297 0h-25.864c-7.039 0-12.169-0.554-18.964 1.735-2.010 0.694-4.056 1.352-6.207 1.631-2.6 0.278-5.026 0-7.593 0-8.251 0-16.4 1.11-24.512 1.631-24.235 1.768-48.365 3.674-72.321 7.314-10.159 1.49-20.456 2.983-30.891 2.983-8.113 0-16.226-0.658-24.512-1.352-6.207-0.416-12.169-0.138-18.41-0.416-4.056-0.278-8.113-0.658-12.203-1.352-7.835-0.278-15.706 0.278-23.403 1.352-15.984 1.631-31.965 1.352-47.808 2.842-17.336 1.768-34.012 6.519-51.207 8.945-13.28 1.768-26.939 1.352-40.356 2.567-9.327 0.97-18.272 1.352-27.493 0.138-20.594-2.567-40.876-4.993-61.608-6.103-27.771-1.352-55.817-3.224-83.555-2.288-14.907 0.554-29.816 2.567-44.688 3.399-2.842 0.138-5.687 0.52-8.425 1.214-3.919 0.798-7.697 2.288-11.753 2.567-6.241 0.416-12.344-1.49-18.168-3.12-8.529-2.288-15.984-2.010-24.372-1.074-1.214 0.138-2.426 0.278-3.64 0.278z"></path>
    <path fill="#000000" d="M650.6 558.423l-0.694-0.138c-3.12-0.52-5.825-0.278-8.807 0.694-1.352 0.382-2.426 1.631-3.64 2.288-7.314 4.472-6.519 14.491-7.039 22.084-0.694 8.807 1.872 17.058 2.983 25.724 0.52 4.335 1.49 8.529 2.567 12.864 1.214 5.026 2.151 10.019 2.047 15.186 0 3.64-0.278 7.177-0.416 10.679 0 1.631 0 3.12-0.416 4.61-0.138 0.798-1.352 2.567-0.658 3.536 0.658 0.798 2.288 0.382 3.087 0.382 4.335 0.138 8.667 0.416 13.001 0.554 6.103 0.278 12.203 0.416 18.168 0.658 2.842 0.138 3.503-0.382 3.778-3.224 0.832-9.499-0.936-19.104-0.52-28.603 0.242-4.855 0-9.327-1.11-14.075-1.074-5.687-1.074-11.371-1.49-17.058-0.52-6.482-0.52-12.864-0.242-19.484 0.104-2.463 1.074-6.519 0.382-8.945-0.382-1.49-3.64-3.815-5.13-4.472-4.61-2.463-10.713-2.567-15.843-3.258z"></path>
    <path fill="#000000" d="M401.116 384.659c0 14.216 1.248 28.325 2.184 42.541 0.798 12.585 1.631 25.067 1.631 37.512-0.138 8.113 0.278 15.29 1.49 23.298 0.936 5.409 1.906 10.539 3.12 15.984 0.936 3.919 2.288 5.409 3.919 8.667 1.768 3.778 0.658 9.327 4.194 12.169 2.184 1.768 5.962 1.49 8.391 1.631 4.335 0.278 8.391 0.138 12.481-1.631 1.594-1.074 3.503-1.631 5.409-1.49 1.074 0.278 2.288 0.138 3.399-0.242 2.842-2.184 1.456-11.545 1.456-14.387 0-26.107 2.463-53.358-3.778-78.527-2.151-8.529-3.778-17.058-4.751-26.003-0.52-4.335 0.416-9.223-0.52-13.417-4.194 0.138-8.147-1.631-12.619-1.49-6.345 0-12.169 0.554-26.003-4.61z"></path>
    <path fill="#000000" d="M613.607 390.103c-1.49 1.594-1.214 4.194-1.214 6.345-0.278 5.409 0 10.713 0.278 16.122 0.936 16.4 0.936 32.52 0.936 48.885v29.816c0 8.529-1.074 17.058 0.278 25.448 0.278 1.768 1.074 3.12 1.214 4.889 0.278 1.735 0.694 3.087 1.352 4.855 1.11 2.983 0.694 5.825 4.751 5.962 3.536 0.138 7.039 0 10.575 0 4.335 0 6.345-0.798 9.881-3.399 3.536-2.567 4.056-4.335 5.026-8.667 1.456-5.825 4.335-10.817 4.576-17.058 0.138-4.335 0.278-8.251 0.97-12.585 0.382-2.842 0.382-5.026 1.631-7.73 0.52-1.214 0.936-1.872 1.074-3.362 1.214-8.529 1.352-17.474 1.631-26.14 0.798-16.954 3.12-34.392 2.288-51.345-0.278-6.898-1.214-13.659-1.352-20.594 0-3.362-0.278-3.503-3.12-3.503-3.64 0-7.039 1.49-10.817 1.631-5.167 0.138-10.435-0.138-15.602-0.138-5.546 0.138-10.679-1.49-16.363-1.49 0.278 0 0.52 0 2.010 12.065z"></path>
    <path fill="#000000" d="M867.943 434.791c-5.271-1.631-0.798 21.912-0.52 23.298 0.52 3.503 1.735 7.697 1.631 11.371-0.554-0.694-1.248-1.11-2.047-0.97-1.352 6.935-1.906 13.417-1.49 20.594 0.278 4.751 2.288 9.465 0.936 14.354-0.798 2.983-2.704 7.593 1.768 8.391 3.919 0.694 8.529-0.278 12.481-0.138 3.778 0 6.761 1.49 10.539 2.322 2.567 0.52 5.409-0.278 8.009 0.416 3.362 0.798 6.207 3.503 9.743 1.594 3.12-1.735 3.258-5.825 3.503-8.911 0.138-2.184 0.97-4.090 1.248-6.241 0.382-3.399-0.278-6.103-0.97-9.361-0.798-3.778-0.382-7.975-0.52-11.891-0.278-8.287-0.97-16.538-2.184-24.651-0.936-6.241-1.074-12.76-3.362-18.548-0.832-2.322-1.248-3.952-1.631-6.241-1.11-0.138-2.184-0.278-3.258-0.416-0.138-1.074-0.278-2.151-0.416-3.258-1.768 0.138-2.842 1.49-4.472 2.047-3.64 1.214-7.697 1.631-11.371 2.704-5.962 1.631-11.371 2.426-17.752 2.426-2.983-0.138-5.929-0.138-9.049 0 0.52-0.242 0.798-0.658 9.187 1.11z"></path>
    <path fill="#000000" d="M127.017 453.063c-0.658 0.278-1.352 0.554-1.872 0.936-1.631-2.151-0.416-8.113-0.416-10.539 0-12.203-1.352-24.268-1.352-36.3 0-6.657 0-13.139 0.138-19.796 0-1.214-0.832-4.714 0-5.825 0.658-1.074 4.056-1.214 5.546-1.456 7.697-1.631 15.706-3.815 23.576-4.090 4.714-0.242 9.187-0.798 13.937-1.214 2.567-0.138 3.258-0.278 3.778 2.047 0.554 2.010 0 5.271 0 7.455 0 5.271-0.382 9.465-1.214 14.491-0.554 3.362-0.554 7.559 0.278 10.955 1.214 5.026 2.567 8.113 5.825 12.065 3.919 5.13 9.465 8.529 13.8 13.243 2.184 2.322 3.258 4.231 6.241 5.721 1.906 0.936 4.335 1.352 5.026 3.64-1.768 0.138-2.184 1.074-3.536 1.768-1.631 0.936-3.778 1.352-5.687 1.768-3.399 0.798-5.825 2.842-8.667 4.576-4.889 2.704-2.842 8.425-8.113 10.713-7.314 3.399-13.696 7.73-21.564 9.603-3.919 0.97-8.529-0.382-12.307 0.554-1.214 0.416-1.352 1.074-2.426 1.352-1.248 0.278-2.6-0.278-3.815-0.138-1.768 0.278-3.362 2.047-5.409 1.214-2.567-0.936-1.631-3.503-2.047-5.825-0.658-3.778-0.242-7.835-1.214-11.649-0.278-1.074-0.798-1.631-0.936-2.842s0.138-2.426 2.426-2.426z"></path>
    </svg>