<svg xmlns="http://www.w3.org/2000/svg" viewBox="38.300 14.722 933.237 1058.989">
    <path fill="#000000" d="M138.572 429.295c12.957-18.966 33.229-37.336 50.293-54.549 16.354-16.614 34.573-32.52 50.778-49.285 14.113-14.598 25.202-30.355 39.352-44.916 19.415-20.162 41.444-38.532 59.962-59.215 22.029-24.381 50.741-45.065 77.436-67.094 9.932-8.177 18.669-16.914 28.599-25.090 9.036-7.429 18.781-14.449 27.107-22.327 4.668-4.368 5.413-12.097 14.449-10.641 11.089 1.756 22.029 8.476 31.624 12.545 14.15 6.124 27.293 12.845 40.436 19.975 10.902 5.973 23.186 12.397 32.072 20.125 6.572 5.713 9.932 11.686 14.301 18.109 12.397 18.669 43.609 25.501 62.127 40.397 9.745 7.877 17.062 16.914 24.941 25.65 11.238 12.545 24.791 23.783 38.644 35.133 19.378 16.205 25.65 36.179 38.792 54.847 11.649 16.205 20.125 32.968 30.467 49.582 7.729 12.545 17.81 24.679 26.135 37.188 7.281 11.089 14.861 22.327 25.949 31.811 9.185 8.028 18.37 15.757 27.703 23.485 3.66 3.061 11.798 11.238 8.625 15.309-0.448 0.747-11.985 1.904-13.741 2.352-4.928 1.157-9.596 2.464-14.561 3.92-6.869 1.904-14.897 4.668-22.626 4.517-17.062-0.299-25.351-16.054-32.52-24.343-3.212-3.66-6.833-7.169-10.342-10.79-7.58-7.429-13.142-15.757-21.17-22.775-4.22-3.621-7.132-7.989-10.492-12.545-2.316-3.061-4.816-6.124-7.429-9.036-3.957-4.368-8.325-8.289-11.798-12.957-5.265-7.169-8.177-15.457-12.397-23.223-5.116-9.334-11.537-18.221-17.958-26.659-7.132-9.334-14.71-18.518-22.738-26.995-6.572-7.132-14.301-12.993-20.722-20.274-9.036-10.081-16.914-20.871-24.493-31.923-5.973-8.924-12.097-17.661-17.958-26.695-2.764-4.256-4.965-9.036-8.437-12.694-3.36-3.509-7.020-6.869-10.79-9.782-2.652-1.904-5.413-3.66-7.877-5.973-2.053-1.756-3.66-4.965-5.861-6.421-3.621-2.464-9.446-2.316-13.553-3.772-4.517-1.605-9.036-2.949-13.702-4.405-8.325-2.613-18.37-4.069-26.098-7.877-7.317-3.772-16.205-6.833-24.381-7.877-3.621-0.411-7.132-2.165-10.79-3.061-4.069-1.008-8.289-0.261-12.545-0.859-3.621-0.448-6.385-2.613-9.894-3.92-10.492-4.108-55.445 34.275-61.567 38.644-7.281 4.965-13.553 10.79-20.125 16.765-7.729 6.869-11.798 15.457-17.474 24.045-6.161 9.633-14.001 18.557-22.477 26.135-5.525 4.928-9.932 10.492-14.861 15.869-6.161 6.572-13.59 11.537-20.274 17.362-13.59 11.836-24.679 26.135-38.084 38.084-7.729 6.721-16.466 11.948-23.933 18.966-3.621 3.324-6.273 6.684-8.437 11.089-0.896 1.568-0.896 2.613-2.352 3.92-2.912 2.613-7.429 4.517-10.492 7.132-4.517 3.66-8.737 7.617-12.694 11.686-6.684 6.273-13.702 12.097-21.133 17.51-18.669 14.413-38.493 28.263-56.005 44.020-0.597 0.597-8.325 6.421-9.036 9.073-1.045 3.173-20.125-2.204-23.186-7.877-3.061-5.413-2.501-11.537-2.204-17.51 0.299-4.668 17.922-19.565 19.415-21.879z"></path>
    <path fill="#000000" d="M632.982 703.905c0 9.185-0.299 17.51-2.204 26.397-1.904 8.476-6.833 16.653-10.193 24.679-3.66 8.289-7.58 16.317-11.238 24.343-4.069 8.886-6.869 18.37-11.948 26.695-8.028 13.105-20.274 26.957-31.811 37.336-1.756 1.456-3.808 3.061-5.676 4.368-3.957 2.613-5.973 2.053-9.932 3.509-2.204 0.859-3.92 2.464-6.124 3.472-3.66 1.904-5.973 1.195-9.932 1.756-8.289 1.195-16.166 1.904-24.791 2.053-8.437 0-16.317-2.352-24.642-3.509-5.676-0.859-11.089-0.411-16.614-3.061-5.265-2.613-12.397-6.981-16.614-11.238-8.325-8.289-18.406-16.018-25.687-25.351-4.069-4.965-7.729-9.036-12.397-13.441-3.92-3.472-6.572-7.58-10.081-11.5-5.676-6.124-11.5-11.985-17.174-18.109-5.265-5.676-11.089-11.35-15.494-17.773-5.077-7.281-5.825-15.606-5.676-24.231 0.149-10.342 0.747-19.975 2.352-30.168 1.868-11.388 5.676-20.274 9.745-30.765 4.108-11.089 7.877-22.178 12.845-32.968 4.368-9.782 11.388-18.518 18.070-26.845 6.161-7.429 11.686-15.158 18.557-22.178 2.165-2.165 22.887-15.309 36.44-15.309 9.932 0 19.117 0.299 28.899 2.352 8.14 1.717 15.158 5.377 23.037 7.58 8.028 2.316 14.15 3.36 22.29 3.212 7.877 0 15.457 1.456 23.186 1.868 7.468 0.448 11.836 2.949 18.258 5.861 6.833 3.061 10.342 3.061 15.606 8.886 4.368 4.517 9.633 9.484 12.806 15.009 4.405 7.468 7.468 15.457 11.089 23.186 3.212 6.721 7.169 12.845 9.073 20.125 1.717 7.020 4.368 14.15 5.676 21.17 1.157 7.281 0.299 15.309 0.299 22.589zM674.835 659.288c-0.149-6.869-2.764-12.845-4.668-19.378-2.912-9.484-6.572-19.117-10.38-28.451-6.833-16.502-17.773-31.064-30.317-43.758-5.413-5.564-12.993-13.702-19.826-17.362-9.633-5.116-20.573-7.729-30.915-10.94-10.38-3.36-21.879-1.756-32.819-1.756-9.185 0.149-18.109-1.605-27.143-1.904-19.527-0.709-39.8-0.709-59.066 2.352-6.869 1.157-13.405 3.212-20.274 4.668-5.116 1.008-10.193 1.605-15.009 3.92-4.256 2.053-8.625 3.66-12.993 5.861-4.668 2.464-7.58 6.684-12.246 9.185-6.572 3.621-12.246 5.676-16.765 11.798-4.108 5.564-10.492 12.845-12.246 14.897-4.108 4.668-9.073 10.492-12.246 16.166-6.572 11.686-11.238 23.485-16.653 35.88-6.572 15.457-14.449 30.616-16.018 47.678-1.605 15.494-1.045 31.661-0.299 47.118 0.709 14.897 6.684 29.757 10.79 44.057 4.816 16.614 11.238 33.379 18.966 48.837 3.772 7.468 8.437 17.81 15.606 22.775 7.989 5.525 16.765 10.044 24.642 15.606 15.158 10.492 28.003 15.757 45.774 19.117 14.749 2.764 29.907 5.228 44.916 5.377 14.001 0.299 28.151 0 42.301 0 13.293 0 26.995 0.896 39.688-3.92 17.213-6.421 34.536-15.606 48.686-27.143 6.721-5.265 10.79-9.932 16.653-16.054 2.165-2.464 4.965-4.668 6.833-7.281 3.509-4.816 8.028-9.334 10.94-14.449 6.273-10.79 9.334-23.895 12.545-35.88 5.265-19.078 7.58-38.493 9.932-58.022 2.464-19.863 1.307-39.988 1.456-59.814 0-3.061 0.149-6.273 0.149-9.185z"></path>
    <path fill="#000000" d="M322.156 586.52c5.116 15.309 17.51 21.133 28.899 31.363 7.729 7.132 13.405 16.166 19.826 24.194 7.729 9.932 17.958 16.614 27.143 24.941 9.484 8.625 18.070 18.070 26.957 26.995 8.924 8.886 18.258 17.622 26.547 27.107 7.877 8.924 16.914 16.653 24.791 25.538 5.564 6.273 11.238 13.553 17.661 18.966 5.265 4.368 7.58 1.756 11.537-3.061 2.016-2.8 3.324-3.808 5.825-5.973 6.273-5.116 10.044-11.836 15.309-17.661 4.816-5.116 8.737-8.476 11.537-15.158 4.069-10.081 11.201-18.966 13.702-29.607 2.316-10.081 8.886-18.258 14.861-26.547 1.756-2.652 2.764-5.861 4.256-8.625 1.605-2.764 3.621-4.368 5.825-6.833 5.973-6.721 11.5-14.301 16.914-21.469 6.273-8.14 12.397-16.614 18.966-24.791 6.273-7.729 15.158-13.405 21.431-21.133 5.265-6.421 9.782-14.15 13.553-21.282 1.756-3.36 2.912-7.169 4.368-10.529 0.747-1.605 2.204-1.717 1.756-3.772-0.299-2.352-5.973-6.869-7.281-9.036-1.756-3.061-2.464-7.020-5.676-9.782-10.38-8.737-17.213 14.001-21.581 19.677-2.204 2.764-4.405 4.368-5.861 7.877-2.316 5.825-3.621 8.325-8.437 12.246-6.421 5.116-11.686 13.59-16.914 19.863-4.668 5.525-8.476 11.798-12.694 17.474-3.66 4.668-8.177 7.468-11.985 11.686-10.342 11.798-17.325 26.957-22.589 41.556-1.756 4.816-3.66 9.334-6.721 13.553-1.904 2.652-4.22 5.116-6.572 7.468-3.324 3.212-6.833 6.124-9.334 9.894-3.472 5.564-4.668 14.001-11.798 16.205-3.66 1.157-8.437 2.165-12.545 2.053-6.273 0-7.132 0.261-10.641-4.816-3.509-5.413-10.081-8.476-15.457-12.134-10.23-6.833-19.266-15.718-28.599-23.597-3.472-2.8-4.816-6.012-7.281-9.484-3.061-4.256-7.281-7.58-10.94-11.238-6.869-7.020-14.861-12.993-21.73-19.677-2.352-2.352-3.92-5.116-6.421-7.317-3.772-3.061-7.877-5.077-11.388-8.737-7.58-8.028-17.773-13.441-25.949-21.17-3.36-3.061-6.721-4.928-10.044-7.429-3.212-2.464-4.668-5.676-8.325-7.729-3.36-1.605-8.737-3.212-12.545-1.307-3.66 1.756-4.368 5.676-4.22 9.185 0 2.912 4.368 11.686 1.868 2.053z"></path>
    <path fill="#000000" d="M741.182 695.467c-0.56 8.737-1.456 17.51-1.756 26.397-0.299 14.561 0.747 29.159 0.747 43.758 0 33.229 0.299 66.795 3.061 99.875 2.316 28.749 8.289 56.602 8.177 85.351 0 8.437 0 16.914 0 25.351 0 3.509-0.896 8.177 0.411 11.537 4.256-4.668 4.108-18.37 5.116-23.634 2.352-12.246 7.58-22.327 10.94-34.125 6.869-24.791 9.633-51.786 11.537-77.287 1.307-17.958 3.324-35.731 4.069-53.69 0.597-15.158 1.456-30.317 1.756-45.513 0.149-10.342 2.464-19.378 4.368-29.459 2.464-13.553 1.008-28.115 1.008-41.853 0-15.606 0-31.213 0-46.82 0-37.448 0-74.935 0-112.42 0-11.836 0.896-24.082 0.149-35.88-0.299-5.413-1.904-10.94-2.464-16.205-1.008-6.981-3.061-21.73-8.325-24.194-3.509-1.756-9.894 0.411-13.254 2.016-3.061 1.605-6.273 3.212-9.036 5.413-2.204 1.756-4.108 4.816-5.861 5.825 0.448 1.904-0.299 4.816-0.411 6.869l-1.344 18.818c-1.307 22.141-2.613 44.318-3.621 66.496-2.352 45.214-3.957 90.429-4.816 135.793-0.149 2.464-0.149 5.077-0.448 7.58z"></path>
    <path fill="#000000" d="M205.368 482.089c-0.299 22.029-0.149 44.206 1.008 66.198 1.456 29.197 5.116 57.050 5.265 86.21 0.112 13.853 2.316 29.607-1.045 43.309-0.709 3.061-2.016 5.973-2.464 9.185-1.756 11.238 0.299 23.933 1.157 35.32 2.053 24.493 5.265 48.985 8.177 73.479 4.668 38.532 12.246 76.727 17.062 115.22 1.456 11.686 5.116 22.626 5.228 34.275 0.149 7.317-0.709 14.749 0.299 21.879 0.896 5.676-0.149 20.573 5.564 24.343 3.36 2.204 5.077-3.621 7.281-5.077 1.756-1.157 2.613-0.149 4.22-1.456 0.896-3.808 1.605-7.58 2.053-11.537 1.456-6.273 3.212-12.545 5.413-18.818 6.124-22.029 9.334-45.513 10.641-68.251 1.307-21.879-2.501-45.364 1.605-66.795 2.016-10.081-0.896-21.73-1.756-31.923-1.045-11.985-2.204-23.933-3.66-35.731-3.772-31.661-9.334-63.174-11.798-95.095-1.045-13.293-0.149-26.845-1.456-40.136-0.747-8.886-2.352-17.773-3.509-26.659-3.36-23.933-4.069-49.881-3.957-74.112 0.149-27.703-7.429-77.585-10.79-76.988-3.92 0.709-8.14-0.597-12.246 0.149-4.816 0.859-9.633 3.212-14.301 4.368-3.621 1.008-7.989-0.747-11.5 1.157 0 0.747 3.621 28.003 3.509 37.485z"></path>
    <path fill="#000000" d="M328.577 423.733c6.721 0 13.441 0 20.125-0.112 10.23-0.149 19.714 2.464 29.757 3.621 11.089 1.456 21.879 0 32.968-1.157 7.58-0.747 15.158 0.149 22.738-0.747 12.433-1.456 23.634-4.368 36.179-3.212 7.58 1.605 15.309 1.756 23.037 0.896 4.668-1.307 9.334-2.613 14.001-3.957 10.23-2.764 20.573-0.859 30.952-1.157 10.79-0.299 19.975-4.965 30.168-5.525 9.185-0.597 20.423 0.149 29.607 1.756 10.342 1.756 18.966 7.989 29.757 9.334 6.981 0.859 14.301 0.261 21.282 0.261h13.441c3.621 0 8.886 1.045 12.397 0.149 3.36-0.859 6.833-3.621 9.036-6.273 3.36-4.069 2.613-22.29-1.008-26.957-1.045-1.307-48.277-12.097-66.534-18.518-8.886-3.212-17.922-2.912-27.107-3.957-5.713-0.56-11.089-1.756-16.765-1.307-5.413 0.448-10.828 2.053-16.205 1.904-9.782-0.149-19.266 2.165-28.899 2.016-4.928 0-9.596-1.456-14.262-1.868-7.169-0.747-14.301-0.149-21.469-0.149-12.097 0-25.053-2.204-36.888 0.709-4.517 1.307-8.737 1.605-13.405 0.747-9.185-1.605-17.661-1.456-26.845-1.605-12.246-0.149-22.178 5.825-33.976 6.124-7.281 0.149-14.749-0.149-22.029-0.149-5.265 0-10.492 0-15.606 0-5.265 0.149-9.782-1.605-14.861-2.053-4.256-0.261-8.476 0.149-12.694 0.149-4.517-0.149-5.825 1.756-8.476 5.116-2.613 3.509-6.572 6.421-8.289 10.492-0.149 0-1.195 4.517-1.195 4.256-0.261 2.613-0.261 5.077-0.261 7.729 0 2.316 28.861 23.447 31.325 23.447z"></path>
    <path fill="#000000" d="M649.297 720.259c-13.553-0.149-29.309 5.116-43.012 1.605-0.299-3.509 5.676-9.036 8.028-11.836 5.077-6.273 10.492-13.405 18.221-15.457 3.808-0.859 24.941-3.472 24.642-9.745z"></path>
    <path fill="#000000" d="M352.808 710.327c7.429-0.859 16.166 4.816 22.589 7.429 4.668 1.904 9.633 4.668 14.449 6.012 2.053 0.56 3.92 0.149 5.525 1.868-5.676 1.344-12.806 5.564-17.773 8.625-6.273 3.66-12.545 7.877-18.518 11.948-3.212 2.204-9.036 9.633-13.59 7.020 1.344-2.501 4.405-4.108 7.317-3.66z"></path>
    <path fill="#000000" d="M490.17 867.402c12.694-13.553 11.537-34.424 21.319-50.030 2.016 0.747 5.228 3.061 6.684 4.668 1.904 1.904 2.652 6.012 3.66 8.476 1.904 4.668 4.668 9.036 6.572 13.702 1.307 3.212 2.053 6.721 3.061 10.081 0.448 1.157 3.212 6.273 3.509 7.58 1.008 3.92-1.456 10.193 2.464 12.694-0.149-2.352 0-4.668 0-7.169z"></path>
    <path fill="#000000" d="M484.345 563.185c4.108 11.649 11.089 21.581 16.914 32.52 1.456 2.912 3.66 10.044 7.468 7.58 1.456-0.859 2.165-6.124 2.613-7.58 1.008-4.668 2.464-8.625 4.517-13.142 2.464-5.525 3.212-12.806 7.729-17.474z"></path>
    </svg>