<svg xmlns="http://www.w3.org/2000/svg" viewBox="24.668 47.092 980.692 928.925">
    <path fill="#000000" d="M256.94 200.875c-0.864 0.607-1.632 1.248-2.369 1.855-15.745 12.642-31.009 27.139-43.363 43.010-5.634 7.362-10.399 15.361-16.002 22.88-6.018 8.13-11.136 16.735-16.129 25.633-4.002 7.362-7.519 15.103-11.394 22.626-4.128 7.615-7.615 16.482-13.759 22.722-2.369 2.273-4.098 4.512-5.346 7.65-3.648 9.631-5.503 19.873-9.762 29.504-3.521 8.13-6.018 16.993-8.383 25.506-2.369 8.736-4.992 17.346-7.362 26.113-2.273 7.872-5.634 15.234-7.519 23.137-1.855 7.488-1.632 15.234-4.002 22.496-1.632 4.866-3.871 9.378-4.866 14.623-1.505 8.352-1.759 17.119-1.889 25.729-0.127 9.631 0.257 19.266 0.257 28.897 0 5.983 0.991 11.232 1.889 17.119 0.353 2.369 0.257 4.608 1.121 7.008 0.607 1.855 1.248 3.103 1.375 4.992 0.127 2.753 0 5.634 0 8.256 0 1.505-0.127 2.753 0.257 4.128 0.353 1.505 0.991 2.369 0.737 4.224 0-1.855 0.991-3.744 1.375-5.599 0.991-5.503 2.496-11.010 3.391-16.639 0.737-5.25 0.48-10.495 1.728-15.745 0.991-4.512 2.273-8.736 3.007-13.375 1.505-8.994 5.119-17.634 7.999-26.24 2.369-7.519 3.871-15.265 5.983-22.88 2.273-8.64 6.018-19.746 15.522-22.146 1.759-0.48 3.233-1.121 4.735 0 1.025 0.768 2.623 3.391 3.264 4.386 2.623 3.391 2.88 8.383 2.88 12.385 0 5.503 0.127 10.879 0 16.255 0 4.224-1.248 7.488-3.264 11.232-2.239 4.512-2.88 8.767-4.255 13.375-1.248 4.386-3.36 8.13-4.224 12.511-0.641 3.617-1.152 7.362-1.759 11.010-2.143 12.865-3.391 25.856-5.76 38.755-0.607 3.36-0.127 6.978-0.257 10.368-0.127 11.617-2.239 22.88-0.127 34.369 1.889 10.368 4.77 20.514 6.402 30.752 0.991 5.76 2.112 11.359 2.849 16.993 0.895 6.498 1.279 12.991 2.273 19.52 0.737 4.992 2.239 9.858 3.744 14.719 1.375 4.128 3.487 7.266 5.76 10.879 1.375 2.273 2.496 5.25 4.351 7.266 0.895 0.991 2.143 1.632 3.007 2.753 1.505 2.112 2.016 4.608 3.617 6.624 2.4 2.496 3.906 4.002 5.25 7.231 0.895 2.143 2.016 4.128 3.007 6.271 0.511 1.248 1.121 3.103 2.273 3.871-0.511-6.271-1.889-12.258-2.88-18.498-0.768-5.023-1.375-9.762-2.623-14.623-1.505-6.018-2.016-11.647-2.753-17.761-1.121-8.863-1.632-17.377-1.632-26.37v-23.137c0-6.882 0.257-16.255 7.615-19.746 1.889-0.864 6.144-1.632 8.13-0.768 1.375 0.641 1.889 2.016 2.623 3.391 2.143 4.128 4.128 8.61 5.887 12.991 3.36 7.999 3.617 16.386 4.735 24.896 1.248 10.111 1.121 20.226 2.143 30.499 0.991 10.111 0.607 20.48 2.496 30.499 1.121 6.367 2.623 12.738 5.856 18.498 4.128 7.135 6.402 15.007 10.399 21.985 4.735 8.514 8.095 17.887 13.729 25.76 4.896 6.751 8.994 14.017 12.385 21.632 1.985 4.608 3.36 9.504 5.634 14.113 5.634 12.385 18.367 18.145 28.736 25.89 0.384 0.257 0.895 0.48 1.248 0.864 3.007 2.143 5.25 4.639 8.64 6.271 2.239 1.121 4.482 2.112 6.624 3.487 4.255 3.007 9.247 3.487 13.729 5.856 4.255 2.273 8.514 5.023 13.375 5.887 2.016 0.384 5.503 2.112 7.392 0.864-1.632-1.375-3.137-2.753-4.77-3.871-1.855-1.375-4.098-1.855-5.983-3.233-1.121-0.895-1.248-1.248-1.759-2.496-0.607-1.632-2.496-2.88-3.871-3.775-2.239-1.375-4.608-2.112-6.498-4.224-2.88-3.007-5.634-4.77-7.872-8.256-2.623-4.002-4.992-8.13-7.362-12.258-3.007-4.992-5.154-9.984-7.65-15.265-1.728-3.744-4.866-6.624-6.624-10.495-1.632-3.487-2.88-7.104-2.88-10.975 0-2.016-0.991-6.402 0.641-7.903 1.248-1.248 4.255-0.607 5.76-0.353 5.599 0.991 8.61 2.112 12.865 5.983 3.871 3.648 9.888 6.367 11.49 11.743 0.641 1.889 0.257 4.128 0.895 6.018 1.855 5.25 9.247 6.624 13.506 9.247 8.994 5.503 18.241 11.49 26.113 18.498 1.632 1.505 3.007 3.264 4.255 5.119 2.112 3.391 4.002 6.018 7.872 7.65 12.607 5.376 26.624 8.352 39.619 12.354 4.128 1.121 7.266 0.768 11.394 1.248 2.623 0.384 6.751 1.889 9.378 1.152 3.487-1.025-0.127-2.88-1.632-4.002-4.639-3.391-8.767-8.256-11.743-13.375-7.135-12.001-17.154-21.762-26.274-32.257-2.88-3.391-6.751-5.25-10.368-7.746-4.386-3.137-7.999-7.008-11.743-10.752-6.498-6.624-13.249-12.895-19.393-19.65-14.37-15.618-27.488-32.995-40.003-50.114-6.24-8.64-14.497-16.866-18.751-26.754-1.471-3.137-1.471-6.367-1.985-9.762-0.641-2.976-1.759-5.599-2.88-8.352-5.119-11.778-10.495-23.521-16.255-35.011-8.994-17.761-16.255-36.128-21.728-55.268-3.648-12.607-7.008-25.376-8.256-38.498-0.511-5.634-2.143-11.136-3.521-16.609-1.855-6.528-2.849-13.249-3.871-20-1.728-11.136-3.103-22.53-5.983-33.379-1.248-4.255-2.496-8.64-3.137-13.153-0.607-4.735-0.127-9.858-0.127-14.623 0.127-33.859-2.623-68.996 4.512-102.371 0.991-5.119 2.239-10.242 3.487-15.361 2.143-8.64 4.386-17.119 6.751-25.633 2.143-7.266 3.871-15.007 7.266-21.889 1.985-4.128 4.866-7.488 7.615-11.106 1.889-2.369 3.617-5.023 5.25-7.65 8.863-14.37 19.009-27.619 29.635-40.736 14.754-18.241 28.993-36.643 42.753-55.617 3.617-5.023 8.256-9.12 12.738-13.122 2.143-1.889 4.255-3.391 5.76-5.76 2.112-3.137 4.512-3.871 7.488-6.367 2.753-2.4 4.255-5.634 6.498-8.383 1.632-1.759 3.137-2.623 5.023-4.128 5.503-4.128 9.247-10.368 15.618-13.249 2.623-1.121 5.376-2.016 8.256-2.016 3.871 0.127 8.61 3.648 9.727 7.519 0.384 1.248 0.641 2.623 0.511 4.002-0.127 1.759-1.248 3.007-1.985 4.608-0.384 1.025-0.895 2.016-1.248 3.137-0.384 0.991-0.511 1.248-1.279 2.016-0.353 0.353-0.607 0.223-0.737 0.864 0.864-0.384 1.632-1.248 2.239-1.889 2.623-2.112 6.498-4.351 8.256-7.488 0.768-1.121 1.121-2.623 1.505-4.002 1.121-3.617 3.617-8.514 2.112-12.258-1.375-3.871-4.224-5.856-7.362-8.13-2.016-1.632-3.36-4.866-6.367-3.744-0.991 0.384-1.889 0.991-3.007 1.375-1.505 0.641-2.88 0.511-4.512 0.511-4.128-0.127-7.999 0.991-12.127 1.728-0.991 0.127-1.855 0.257-2.849 0.384-3.521 0.257-6.498 1.632-9.504 3.36-1.505 0.895-3.007 2.273-4.639 2.753-1.248 0.384-2.496 0.257-3.617 0.768-2.88 1.121-4.992 3.744-7.392 5.503-4.866 3.744-9.727 7.615-15.234 10.626-5.503 2.753-11.263 5.25-16.866 7.999-8.256 4.255-16.002 9.12-23.394 15.007-5.503 4.351-9.984 8.994-15.745 12.738-4.77 3.137-9.378 6.367-13.759 9.888z"></path>
    <path fill="#000000" d="M772.095 200.875c0.864 0.607 1.632 1.248 2.369 1.855 15.745 12.642 31.009 27.139 43.394 43.010 5.599 7.362 10.368 15.361 16.002 22.88 5.983 8.13 11.106 16.735 16.098 25.633 4.002 7.362 7.519 15.103 11.394 22.626 4.608 8.736 9.762 17.25 13.89 26.113 6.72 14.497 13.249 29.12 18.498 44.131 2.112 6.24 3.617 12.607 6.114 18.882 3.007 7.362 3.137 16.002 7.392 22.88 1.471 2.623 1.985 5.73 2.496 8.736 1.505 6.882 4.224 13.506 5.376 20.514 1.375 8.863 4.735 17.25 6.498 26.113 3.744 19.266 2.369 39.488 2.369 59.012 0 5.983-0.991 11.232-1.889 17.119-0.353 2.369-0.223 4.608-1.121 7.008-0.607 1.855-1.248 3.103-1.375 4.992-0.127 2.753 0 5.634 0 8.256 0 1.505 0.127 2.753-0.257 4.128-0.353 1.505-0.991 2.369-0.737 4.224 0-1.855-0.991-3.744-1.375-5.599-0.991-5.503-2.496-11.010-3.36-16.639-0.768-5.25-0.511-10.495-1.759-15.745-0.991-4.512-2.239-8.736-3.007-13.375-1.505-8.994-5.119-17.634-7.999-26.24-2.369-7.519-3.871-15.265-5.983-22.88-2.273-8.64-6.018-19.746-15.522-22.146-1.728-0.48-3.233-1.121-4.735 0-0.991 0.768-2.623 3.391-3.264 4.386-2.623 3.391-2.88 8.383-2.88 12.385 0 5.503-0.096 10.879 0 16.255 0 4.224 1.248 7.488 3.264 11.232 2.239 4.512 2.88 8.767 4.255 13.375 1.248 4.386 3.36 8.13 4.255 12.511 0.607 3.617 1.121 7.362 1.728 11.010 2.016 11.617 3.648 22.976 4.639 34.627 2.239 24.354 1.505 48.993-2.239 72.994-1.632 10.368-4.896 20.384-6.655 30.752-0.607 4.128-0.48 8.256-1.121 12.385-0.737 4.992-2.239 9.858-3.744 14.719-1.375 4.128-3.487 7.266-5.76 10.879-1.375 2.273-2.496 5.25-4.351 7.266-0.895 0.991-2.143 1.632-3.007 2.753-1.505 2.112-2.016 4.608-3.617 6.624-2.4 2.496-3.871 4.002-5.25 7.231-0.895 2.143-2.016 4.128-3.007 6.271-0.511 1.248-1.121 3.103-2.239 3.871 0.48-6.271 1.855-12.258 2.849-18.498 0.768-5.023 1.375-9.762 2.623-14.623 1.505-6.018 2.016-11.647 2.753-17.761 1.152-8.863 1.632-17.377 1.632-26.37v-23.137c0-6.882-0.257-16.255-7.615-19.746-1.889-0.864-6.144-1.632-8.13-0.768-1.375 0.641-1.889 2.016-2.623 3.391-2.112 4.128-4.128 8.61-5.887 12.991-3.36 7.999-3.617 16.386-4.735 24.896-1.248 10.111-1.121 20.226-2.112 30.499-1.025 10.111-0.641 20.48-2.4 30.499-0.737 3.617-1.505 7.362-1.985 11.106-0.768 5.634-0.768 11.647-2.016 17.25-1.601 7.266-3.617 13.375-6.882 20-1.985 4.002-4.482 8.13-6.72 11.905-1.889 3.103-4.639 5.73-6.402 8.994-0.991 1.855-2.112 3.871-3.233 5.856-1.248 2.273-1.375 4.77-3.137 6.882-1.375 1.632-2.623 3.137-3.871 4.77-1.121 1.505-3.264 2.369-4.255 3.871-0.257 0.384-0.384 1.121-0.607 1.375-0.641 0.737-1.505 0.864-2.273 1.505-0.864 0.864-0.991 1.728-1.728 2.753-0.641 0.991-1.889 1.471-2.4 2.496-0.223 0.737 0.127 1.375-0.096 1.985-0.384 0.768-1.025 0.768-1.375 1.375-0.768 1.375-1.152 3.137-2.143 4.386-1.121 1.375-2.88 1.985-4.255 3.36-3.233 3.391-6.367 7.008-10.626 9.378-4.735 2.753-9.6 6.271-14.113 9.504-3.007 2.143-5.25 4.639-8.64 6.271-2.239 1.121-4.482 2.112-6.624 3.487-4.224 3.007-9.247 3.487-13.729 5.856-4.255 2.273-8.514 5.023-13.375 5.887-2.016 0.384-5.503 2.112-7.392 0.864 1.632-1.375 3.137-2.753 4.77-3.871 1.855-1.375 4.128-1.855 5.983-3.233 1.121-0.895 1.248-1.248 1.759-2.496 0.607-1.632 2.496-2.88 3.871-3.775 2.239-1.375 4.608-2.112 6.498-4.224 2.88-3.007 5.634-4.77 7.872-8.256 2.623-4.002 4.992-8.13 7.392-12.258 2.976-4.992 5.119-9.984 7.615-15.265 1.759-3.744 4.866-6.624 6.624-10.495 1.632-3.487 2.88-7.104 2.88-10.975 0-2.016 0.991-6.402-0.641-7.903-1.248-1.248-4.255-0.607-5.73-0.353-5.634 0.991-8.64 2.112-12.895 5.983-4.482 4.255-10.242 7.65-15.103 11.394-1.279 0.864-2.527 1.728-4.002 2.496-3.137 1.632-5.503 3.233-8.13 5.634-7.008 6.498-14.274 12.607-21.762 18.498-2.88 2.239-6.018 4.128-8.863 6.498-3.521 2.88-6.528 6.24-10.015 9.12-4.386 3.617-8.994 7.008-13.759 10.111-4.735 3.137-9.984 5.023-14.754 7.999-4.735 2.88-8.736 3.391-13.986 4.128-7.266 1.152-14.239 3.007-20.514 6.882 6.018-5.376 10.015-12.481 15.522-18.241 5.25-5.503 10.495-9.888 14.37-16.255 2.239-3.617 5.76-6.882 7.266-10.879 1.121-3.103 1.121-6.367 3.233-9.247 4.128-5.119 10.626-8.736 16.002-12.481 4.386-3.137 7.999-7.008 11.743-10.752 6.498-6.624 13.249-12.895 19.393-19.65 14.37-15.618 27.488-32.995 40.003-50.114 6.24-8.64 14.497-16.866 18.751-26.754 1.505-3.137 1.505-6.367 1.985-9.762 0.641-2.976 1.759-5.599 2.88-8.352 5.119-11.778 10.495-23.521 16.255-35.011 8.994-17.761 16.255-36.128 21.762-55.268 8.352-29.251 13.122-59.361 16.225-89.507 1.505-14.239 3.264-28.352 3.391-42.849 0.257-20.13-0.895-40.514-2.273-60.644-0.991-13.986-2.369-27.745-4.735-41.635-3.137-17.857-8.256-34.88-14.497-52.004-5.503-15.487-9.378-32.737-17.761-47.107-5.634-9.762-12.991-18.529-20-27.265-14.754-18.241-28.993-36.643-42.753-55.617-3.617-5.023-8.256-9.12-12.738-13.122-2.143-1.889-4.255-3.391-5.76-5.76-2.112-3.137-4.386-3.871-7.488-6.367-2.753-2.4-4.255-5.634-6.498-8.383-1.632-1.759-3.137-2.623-5.023-4.128-5.472-4.128-9.247-10.368-15.618-13.249-2.623-1.121-5.376-2.016-8.256-2.016-3.871 0.127-8.61 3.648-9.727 7.519-0.384 1.248-0.641 2.623-0.511 4.002 0.127 1.759 1.248 3.007 2.016 4.608 0.353 1.025 0.864 2.016 1.248 3.137 0.353 0.991 0.48 1.248 1.248 2.016 0.353 0.353 0.607 0.223 0.737 0.864-0.864-0.384-1.632-1.248-2.239-1.889-2.623-2.112-6.498-4.351-8.256-7.488-0.737-1.121-1.121-2.623-1.505-4.002-1.121-3.617-3.617-8.514-2.112-12.258 1.375-3.871 4.224-5.856 7.362-8.13 2.016-1.632 3.391-4.866 6.367-3.744 1.025 0.384 1.889 0.991 3.007 1.375 1.505 0.641 2.88 0.511 4.512 0.511 4.128-0.127 7.999 0.991 12.127 1.728 0.991 0.127 1.855 0.257 2.849 0.384 3.521 0.257 6.528 1.632 9.504 3.36 1.505 0.895 3.007 2.273 4.639 2.753 1.248 0.384 2.496 0.257 3.617 0.768 2.88 1.121 4.992 3.744 7.392 5.503 4.866 3.744 9.727 7.615 15.234 10.626 5.503 2.753 11.263 5.25 16.897 7.999 8.226 4.255 16.002 9.12 23.36 15.007 5.503 4.351 10.015 8.994 15.745 12.738 4.77 3.137 9.378 6.367 13.759 9.888z"></path>
    <path fill="#000000" d="M602.842 279.598c0.384 0.257 0.737 0.384 0.991 0.641 3.007 1.889 5.887 4.128 8.514 6.498 5.856 5.25 11.232 11.743 14.497 18.882 1.248 2.753 2.369 6.367 4.482 8.736 1.632 1.759 3.906 2.753 5.634 4.255 5.119 4.128 8.898 10.626 11.647 16.386 2.976 6.24 5.25 12.991 7.615 19.489 3.233 8.514 4.255 17.377 6.114 26.017 1.248 5.503 3.391 10.752 4.512 16.255 0.991 4.224 1.121 8.863 1.759 13.249 1.248 7.746-0.127 15.234-0.768 22.976-0.511 5.887-0.607 11.905-1.759 17.634-1.121 6.018-3.103 12.385-4.992 18.145-1.759 5.856-4.992 11.232-6.882 17.119-2.112 6.367-4.608 12.607-7.104 18.882-1.759 4.608-4.512 8.736-6.144 13.375-2.88 8.61-2.88 18.114-9.247 25.249-2.239 2.369-4.002 4.351-5.76 7.104-2.369 3.648-3.487 7.872-5.856 11.394-0.384 0.48-0.991-0.895-0.991-0.991-1.632 0.737-3.264 2.623-4.639 3.871-6.114 5.73-14.497 7.615-20.864 12.991-2.623 2.112-5.376 5.376-8.514 6.882-1.985 0.991-3.744 0.991-5.119 2.88 1.759-0.127 2.753 1.121 4.255 1.855 1.505 0.768 3.007 1.248 4.608 1.889 5.503 1.985 10.752 7.104 14.754 11.359 4.255 4.639 6.271 12.642 8.13 18.498 0.991 3.264 1.889 6.751 2.369 10.146 0.641 3.617 1.152 5.25 2.527 8.352 0.48 1.279 1.601 7.65 2.719 7.999 1.152 0.384 2.4-3.103 2.88-3.744 3.391-5.119 8.383-8.863 11.743-14.239 8.256-12.738 16.77-25.633 25.026-38.371 9.378-14.754 20.864-28.129 28.867-43.651 3.871-7.746 8.767-16.351 9.888-24.865 0.737-5.25-0.768-10.626 0.353-15.745 1.632-7.488 7.999-12.865 10.752-20 2.88-7.746 3.871-16.002 4.896-24.128 1.505-12.607 3.36-26.754 2.112-39.266-1.121-10.848-2.239-20.994-4.608-31.616-2.4-10.879-6.624-21.858-10.399-32.384-2.239-6.114-5.983-11.359-9.12-17.119-2.753-4.866-5.503-9.858-8.479-14.497-8.256-13.122-21.025-22.88-31.267-34.369-3.617-4.255-7.615-8.383-12.258-11.743-2.112-1.505-3.871-3.617-6.114-4.896-2.496-1.471-4.992-2.623-7.65-4.351-2.496-1.759-5.25-4.77-8.226-5.887-2.753-1.121-5.25-1.855-7.999-3.233-3.871-2.143-7.65-4.512-11.521-6.528-4.866-2.623-10.242-4.224-15.103-6.72-1.375-0.768-1.889-2.143-3.391-1.025-3.007 2.369 2.496 10.146 3.744 11.874 1.889 3.007 4.386 5.634 6.624 8.383 1.505 1.889 2.143 4.512 4.002 5.887 2.527 1.855 6.018 2.753 8.767 4.224z"></path>
    <path fill="#000000" d="M401.585 600.123c0.991-2.623 1.632-5.119 3.233-7.615 2.143-3.391 1.248-8.13 0-11.617-0.864-2.623-2.239-5.023-3.233-7.65-0.991-2.369-1.248-4.735-2.753-6.978-4.896-7.266-13.122-11.136-18.498-18.145-2.496-3.137-4.255-6.882-6.624-10.111-3.264-5.023-7.776-9.024-11.394-13.633-3.007-4.002-6.882-8.767-7.231-14.017-0.257-1.601 0.223-3.233 0.48-4.866 0.384-4.128-1.121-7.999-1.505-12.127-1.601-15.007-0.353-30.752 0-45.986 0.768-22.016 8.13-43.651 14.527-64.515 1.248-4.512 2.719-9.12 4.224-13.506 0.641-1.759 1.248-3.36 1.759-5.119 1.248-1.632 2.112-1.121 3.36-2.112 2.527-1.889 4.255-7.266 5.887-9.888 2.496-3.871 5.25-7.615 7.999-11.263 2.88-3.617 4.255-8.095 6.367-12.223 2.496-5.25 5.76-10.015 9.504-14.401 5.887-6.978 13.249-12.354 19.266-19.232 2.976-3.391 5.856-6.751 8.994-10.015 3.487-3.617 7.488-6.367 11.136-9.727 4.735-4.77 9.984-7.65 14.977-12.001 1.632-1.375 4.128-2.623 5.503-4.128 0.127 0 1.505-0.768 1.375-0.991-0.127-0.768-0.127-0.511-0.864-0.895-1.759-0.991-6.367 0.257-8.256 0.641-8.863 1.985-17.634 6.978-25.89 10.975-3.871 1.889-7.104 4.512-10.722 7.008-4.896 3.391-10.272 6.271-15.265 9.631-6.24 4.128-11.010 9.888-16.386 15.007-4.002 3.744-8.479 7.104-12.738 10.626-3.744 3.007-7.872 5.634-11.394 8.994-3.871 3.871-6.24 9.631-9.12 14.239-4.002 6.751-9.984 12.001-14.497 18.498-3.36 4.896-5.983 9.024-8.13 14.527-3.233 8.095-5.76 17.25-8.13 25.602-0.991 3.775-1.121 7.65-2.976 11.136-1.152 2.239-2.88 4.255-4.255 6.367-4.386 7.266-5.503 17.119-7.008 25.376-1.632 9.378-2.88 18.882-3.871 28.387-0.257 1.759-0.384 3.487-0.641 5.119-1.248 12.001 0.511 24.258 1.248 36.259 0.641 10.368 1.375 20.737 1.889 31.136 0.641 11.106 5.983 21.728 9.984 32 3.137 7.746 8.256 13.729 13.375 20.096 2.623 3.137 4.77 6.144 8.13 8.64 2.496 1.889 3.871 3.487 5.503 6.114 2.016 3.391 5.376 6.018 7.135 9.378 2.496 5.023 4.992 8.514 8.863 12.385 3.264 3.391 5.503 8.64 6.624 13.122 1.121 4.896 1.889 9.247 4.002 13.89 1.248 3.007 3.137 5.856 3.744 9.12 3.648-0.737 3.648-8.863 4.128-11.617 1.152-6.271 3.775-12.511 5.25-18.625 1.152-5.119 2.527-10.272 4.512-15.138 1.889-4.639 4.735-8.64 7.008-12.991 0.48-0.991 0.991-2.143 1.375-3.137z"></path>
    <path fill="#000000" d="M578.327 746.495c-1.505 2.143-4.002 3.648-5.634 5.503-2.496 2.88-7.488 6.751-8.863 10.272-1.505 4.002-2.369 8.226-4.128 12.223-1.759 3.775-4.386 7.519-5.503 11.647-2.623 8.736-2.976 18.498-6.624 26.977-2.369 5.25-3.36 11.521-7.615 15.775-2.016 2.112-3.744 4.482-5.887 6.498-2.239 2.112-5.25 3.233-7.488 5.376-2.753 2.753-4.128 5.73-7.872 7.362-7.999 3.264-16.255 0.768-23.137-2.753-6.978-3.487-8.863-14.239-11.743-20.864-2.753-6.367-5.503-12.991-7.362-19.616-2.143-7.266-6.018-14.401-8.767-21.378-2.496-6.402-4.992-12.769-9.247-18.145-3.744-4.992-9.378-7.488-13.986-11.49-4.512-3.871-8.13-8.64-11.394-13.633-1.759-2.369-3.137-4.866-4.608-7.488-1.889-3.137-2.143-6.271-3.648-9.762-1.601-4.255-3.103-8.256-1.728-12.738 2.239-7.65 2.849-15.007 4.608-22.753 1.375-6.528 1.889-13.249 3.617-19.777 2.623-9.247 10.752-16.735 17.023-23.744 5.503-6.367 12.354-10.626 19.105-15.487 2.88-2.016 5.503-4.639 8.64-6.24 2.88-1.632 6.114-2.657 8.994-3.906 15.391-6.624 31.136-6.624 47.522-3.487 8.61 1.632 15.103 8.64 20.096 15.391 3.521 4.866 5.887 10.495 8.514 15.871 2.369 4.866 4.992 9.474 7.008 14.623 2.112 5.25 4.482 10.626 6.367 16.002 2.112 6.624 2.88 13.986 4.639 20.864 0.607 2.753 2.369 4.255 2.719 7.135 0.384 2.369-0.096 4.735-0.096 7.104 0 2.143 0.096 4.255 0 6.402-0.127 1.601-0.768 2.369-1.152 3.617-1.728 7.488 1.248 15.871-1.601 23.106-0.257 0.641-0.511 1.152-0.768 1.505zM615.834 696.511c-0.864-4.255-1.248-8.256-0.864-12.511 0.353-4.608-1.632-9.247-3.137-13.633-3.137-9.858-7.231-19.489-12.607-28.352-4.512-7.519-9.888-14.017-16.513-19.746-5.634-5.023-10.368-10.656-16.002-15.775-4.639-4.351-9.888-6.978-15.007-10.495-5.25-3.617-9.984-8.383-16.002-10.626-4.735-1.632-9.984-1.505-14.881-2.623-4.735-1.121-9.727-2.623-14.754-2.623-0.991-0.127-2.112 0.257-3.103 0.127-3.264-0.511-5.887-1.505-9.247-1.505-3.648 0-7.135-0.257-10.752 0.511-5.634 1.375-11.010 3.871-16.639 5.119-5.376 1.248-10.752 1.505-15.871 3.487-4.512 1.759-7.615 4.512-11.010 7.999-3.487 3.744-6.24 7.999-8.994 12.258-4.128 6.367-6.114 14.239-11.010 19.873-2.976 3.521-5.25 7.008-7.488 11.010-2.496 4.128-5.76 7.615-7.999 11.874-5.634 11.010-7.615 23.137-12.385 34.369-1.121 2.88-1.505 5.376-1.855 8.514-0.511 7.231-0.641 14.623-3.264 21.378-3.137 7.746-7.615 13.986-11.743 21.121-2.239 4.002-4.992 8.64-6.624 12.865-0.384 1.152-1.121 1.025-0.641 2.4 0.511 1.471 3.391 2.112 4.386 2.623 9.378 4.482 15.487 13.122 23.617 19.362 1.248 0.864 2.496 1.632 3.648 2.623 3.103 2.623 5.503 5.887 8.61 8.383 4.512 3.744 9.888 6.367 14.37 10.368 4.386 4.128 7.008 9.504 11.136 13.759 4.128 4.351 8.13 8.61 11.263 13.633 2.496 3.871 3.617 8.095 5.472 12.223 1.759 4.128 3.775 7.872 4.896 12.258 2.112 7.999 5.25 14.623 10.752 21.121 1.632 1.889 3.871 4.386 5.983 5.503 2.143 0.991 3.521 1.121 5.119 3.007 1.889 1.889 3.521 2.369 5.503 3.744 1.759 1.375 2.143 3.871 3.871 5.25 2.527 1.889 5.634 1.632 8.383 3.007 1.121 0.607 2.753 1.889 3.871 2.239 2.88 0.895 5.376 0 8.256-0.48 3.487-0.641 7.488-0.127 11.263-0.257 7.362-0.127 13.729-1.632 20.353-5.119 7.65-4.128 16.002-9.504 22.146-15.649 4.351-4.351 10.626-9.247 12.607-15.234 1.632-5.119 2.143-10.752 3.264-16.002 1.632-7.266 3.871-14.017 7.104-20.898 3.137-6.978 8.898-12.001 12.642-18.498 3.487-6.114 8.64-12.354 13.759-17.25 4.128-4.128 9.6-8.13 12.991-12.865 2.369-3.391 5.887-6.367 7.872-9.762 0.641-1.121 0.737-2.239 1.248-3.36 1.759-4.255 5.503-7.872 5.376-12.769-0.127-3.487-1.632-4.224-3.617-7.104-2.753-3.871-4.255-8.64-6.624-12.769-5.023-7.999-9.12-16.609-11.136-25.856 0-0.127 0-0.257 0-0.257z"></path>
    </svg>