<svg xmlns="http://www.w3.org/2000/svg" viewBox="33.312 110.972 958.458 929.028">
    <path fill="#000000" d="M787.396 512.471c11.52 2.369 7.134 16 3.648 23.104-2.143 8.508-7.999 15.006-11.393 22.752-5.76 7.518-10.878 16.384-19.007 21.376-8.993 3.011-14.369 12.126-23.615 14.273-12.126 9.984-28.864 8.989-43.36 12.256-12.257 2.72-22.751 22.11-22.624 33.856 0.126 10.241 1.601 18.367 6.751 27.006 2.37 4.127 4.098 8.48 6.624 12.383 1.471 2.369 4.734 2.85 4.224 6.75-5.25-0.906-8.862-2.013-14.495-2.013-6.113 0.090-8.993-1.116-14.111-4.381-9.377-5.986-15.743-12.606-21.76-22.11-3.743-6.14-3.617-15.263-2.112-22.144 1.985-9.984 3.617-20.735 4.128-30.976 0.126-3.646 0.255-7.138 1.728-10.494 5.376-11.52 17.759-12.894 28.511-16.896-0.509 0.546 0-2.749-0.509-2.114 2.527 0-0.99-1.116 1.375-1.888 3.522-1.116 6.402-4.862 9.888-6.241 2.753-1.116 5.76-1.633 8.513-2.749 15.617-7.013 29.471-15.87 43.229-25.985 8.766-6.657 17.759-16.896 28.511-19.776 5.856-1.597 10.752-6.75 16.481-8.128 3.137-0.726 6.751 0.635 9.761-0.364 0.126-0.546-0.509 2.975-0.38 2.494z"></path>
    <path fill="#000000" d="M385.043 495.222c-7.361 0.635-14.495 5.117-17.375 12.126-1.758 4.228-1.505 9.119-2.112 13.374-2.143 16.127-4.895 32.862-0.509 48.862 2.37 8.735 3.39 19.134 11.615 24.51 2.753 1.734 6.27 2.114 9.023 4.127 3.486 2.369 5.376 8.092 9.726 8.862-1.985-6.366-5.248-11.742-6.113-18.624-0.861-7.013-0.736-14.368-0.255-21.502 0.643-8.989 2.142-18.367 12.51-19.998 9.504-1.378 19.998 2.494 29.248 3.872 7.871 1.116 13.121-0.364 20.478-3.138 7.008-2.369 14.273-3.484 21.15-5.723 8.736-2.874 17.982 1.116 26.495-1.506 8.256-1.633 17.982-3.747 24.256 2.239 7.231-6.495 19.361-0.906 27.486 2.494 7.231 2.749 14.495 6.366 21.376 9.63 11.009 4.127 17.502-12.51 8.862-18.881-8.13-6.495-17.982-10.241-26.495-16.481-15.359-9.246-33.63-12.51-51.485-12.768-10.272-0.090-19.998 3.747-30.27 4.001-13.121 0.99-26.111-2.239-39.101-3.355-13.374-1.758-26.879-4.001-38.621-10.625-3.137-1.378-6.497-1.888-9.888-1.506z"></path>
    <path fill="#000000" d="M910.658 442.455c-1.632-13.601-3.263-27.486-9.504-39.999-2.88-8.862-4.734-18.114-9.246-26.368-4.991-12.511-13.505-22.878-20.992-33.856-3.744-5.634-4.769-15.006-6.881-21.377-2.143-6.532-4.512-14.273-8.862-19.518-3.775-4.254-7.391-6.241-9.504-11.873-2.496-6.621-4.255-13.504-7.134-19.998-2.112-4.988-4.865-10.494-7.745-15.006-3.006-4.988-0.897-2.886-7.008-5.25-5.982-2.239-9.12-5.986-12.99-10.878-4.255-5.25-5.248-5.117-11.393-6.847-5.856-1.633-10.974-5.634-15.87-9.026-8.862-6.495-16.734-12.222-26.495-17.249-8.256-4.254-17.249-6.114-25.758-9.63-7.104-2.975-13.727-4.608-21.599-2.85-3.391 0.906-5.76 2.749-9.377 3.102-2.4 0.364-4.512 0.090-7.008 1.026-5.886 1.734-9.761 2.114-15.87 2.239-7.998 0.090-15.617 2.874-23.519 3.355-4.734 0.271-8.993 1.506-13.601 2.405-6.017 1.124-11.742 0.99-17.759 0.99-14.753-0.364-27.006 3.011-40.637 8.254-6.623 2.622-14.238 5.25-19.871 9.473-13.601 10.528-30.846 14.015-46.973 19.134-17.886 5.634-35.135 12.641-53.374 17.633-7.008 1.986-14.142 4.381-21.246 5.886-5.023 0.99-10.014 1.47-15.006 2.72-9.504 2.53-18.623 3.646-28 6.75-5.248 1.758-11.393 3.646-16.865 4.644-11.52 1.986-22.528 5.38-30.527 14.622-1.985 2.239-2.753 5.505-4.351 8.128-1.632 2.622-4.001 4.734-5.503 7.356-2.015 3.646-2.274 7.874-2.88 11.873-0.861 5.38-2.37 10.751-3.486 16.254-3.006 14.273-3.648 31.391-1.152 45.759 0.772 5.38 3.39 10.626 5.886 15.87 1.758 3.747 3.486 7.356 4.638 11.136 2.719 8.989 5.472 18.366 10.494 26.368 6.366 9.856 18.113 16.127 28.223 21.63 2.753 1.506 7.008 2.874 9.377 4.988 7.776 7.013 18.401 8.128 28.254 9.983 7.998 2.142 16.769-0.906 24.383 3.011 9.377 0.546 18.75-1.253 28.127 0.364 7.008 1.506 12-3.011 17.633-0.090 8.736-1.888 17.598-1.506 26.368-1.506 12 2.142 23.615 5.76 34.878 10.368 6.751 5.634 16.127 7.393 21.983 14.142 7.134 4.254 14.273 8.862 21.76 12.354 5.503 0.090 11.873 6.75 15.359 5.886 4.385 0 10.625 4.001 16.511 3.011 3.743 1.253 7.998 1.633 11.615 3.355 2.015 0.726 3.391 2.369 5.503 3.011 6.497 1.888 16.511 0.090 23.008-1.253 6.881-1.506 13.121-3.266 20.382-3.391 4.865-0.182 9.983-1.342 14.495-3.355 4.734-2.114 9.377-2.749 14.238-4.254 5.76-1.859 10.752-5.634 16.511-7.874 7.745-3.011 14.975-6.241 22.367-9.856 7.361-3.646 14.369-7.647 21.63-11.393 5.599-2.749 7.614-7.266 11.873-11.742 0.481-0.635 1.248-1.253 1.728-2.013-3.103-2.749-5.856-2.622-9.473-4.127-3.137-1.253-6.624-4.862-10.271-4.482-2.37 0.271-4.351 2.114-6.881 2.622-4.224 0.726-8.609-1.116-12.863 0.271-3.743 1.116-6.624 4.988-10.752 5.986-3.103 0.635-6.24-0.453-9.246 0.090-2.37 0.546-4.128 2.013-6.623 2.494-10.878 1.633-20.993 2.142-32.735 2.013-16.638 0-31.871-0.546-46.493-8.898-6.017-3.355-12.383-5.505-18.527-8.735-4.481-2.239-7.231-6.014-11.232-8.989-8.766-6.269-18.881-10.625-28.511-15.39-7.998-4.001-15.617-10.368-24.256-12.99-12.126-3.618-25.12-2.622-37.469-2.622-17.633 0-35.262-0.090-52.894 0-8.993 0.090-17.759 0.271-26.495-2.013-6.366-1.722-12.383-4.608-18.623-6.75-12.257-4.228-19.614-14.112-31.007-20.094-9.12-4.899-13.727-6.532-13.374-17.633 0.255-6.014-0.606-11.999-0.126-17.886 0.509-4.482 2.527-6.495 4.128-10.368 2.017-4.734 2.623-10.111 7.008-13.504 3.743-2.622 8.993-4.862 12.863-7.138 5.376-2.975 11.777-7.102 17.759-8.355 4.769-1.026 7.614-1.026 12.126-2.749 3.006-0.99 4.638-1.506 7.871-2.268 9.246-2.114 17.633-3.355 26.622-6.621 5.376-1.986 11.262-1.986 16.638-4.099 6.113-2.53 10.974-7.138 17.249-9.378 7.871-2.749 16.481-5.76 24.479-7.999 19.391-5.38 36.64-15.521 56.254-20.512 12-3.138 23.742-7.482 35.872-9.631 15.647-2.622 31.518-1.506 47.261-1.506 8.862-0.090 18.366-1.253 27.102 0.271 6.624 1.116 12.894 4.127 19.134 6.366 6.017 2.405 12.767 2.494 18.496 4.77 4.991 1.859 6.881 6.621 10.272 10.241 3.617 3.747 7.104 6.75 9.6 11.489 2.623 5.279 3.648 11.262 6.881 16.384 5.633 8.771 14.753 16.384 21.887 23.872 9.12 10.014 20.478 20.129 26.495 32.382 7.134 14.622 19.744 25.247 24.51 40.99 3.617 11.742 4.991 22.144 4.351 34.366-0.354 11.52-1.985 23.009-3.486 34.528 0 0.090 0.126 0.364 0.255 0.635 0.226 1.124-0.126 2.142-0.126 3.266 0 3.872 2.37 6.875 3.103 10.368 1.758 7.874 1.375 16.127 1.375 24.126 0 6.883 0.38 13.727-0.606 20.478-1.375 9.15-3.263 18.881-6.24 27.647-2.623 8.254-4.385 16.734-7.391 24.863-2.496 6.495-6.366 12.64-9.12 19.134-1.505 3.23-2.88 6.621-4.385 9.856-4.991 11.742-9.984 23.742-14.495 35.742-1.758 4.644-3.233 9.151-4.991 13.632-1.375 3.872-3.006 10.625-6.017 13.631-0.481 0.364-1.248 0.090-1.728 0.726-0.643 0.635-1.025 1.506-1.505 2.405-3.006 4.862-5.118 10.368-7.745 15.617-9.377 19.134-22.751 36.736-38.398 51.135-14.369 13.374-29.855 25.854-45.502 37.984-13.601 10.494-28.607 18.75-43.229 27.87-7.265 4.644-14.622 9.63-22.494 13.12-8.993 4.001-18.75 8.771-28.384 10.399-2.753 0.453-5.248 0.364-7.871 0.635-3.36 0.364-6.366 2.142-9.504 3.266-4.255 1.722-8.736 2.494-13.121 4.001-6.24 1.986-12.126 4.734-18.623 6.366-3.486 0.726-7.134 1.888-10.494 3.138-4.991 1.859-9.377 4.353-14.622 5.469-4.769 1.278-8.897 3.391-13.121 5.76-6.528 3.521-13.889 4.001-20.639 7.138-5.376 2.494-9.888 5.986-14.753 9.503-3.233 2.369-7.231 2.975-10.625 5.125-9.504 6.114-17.249 15.359-23.872 24.383-7.134 9.599-10.241 21.598-7.488 33.375 1.122 5.25 2.112 9.984 4.991 14.496 1.248 2.114 3.137 6.75 5.856 7.23 1.278-3.23 0.255-8.735 0.255-12.258 0-4.608-0.736-9.599 1.248-13.854 3.006-6.014 5.153-12.383 9.761-17.502 2.496-2.874 5.886-4.988 8.64-7.746 3.36-3.391 7.104-5.886 11.105-8.382 10.878-6.875 24.256-8.989 36.766-10.878 10.974-1.506 21.726-6.114 32.478-8.735 7.518-1.888 15.263-3.138 22.878-4.254 6.24-0.99 11.873-3.618 18.017-3.484 1.985 0 3.871 0.090 5.729-0.271 6.624-1.242 13.121-2.874 19.775-4.254 4.608-0.99 8.993-2.369 13.727-2.239 4.638 0.182 8.13-1.253 12.383-3.138 18.881-8.128 37.757-16.864 55.87-26.495 20.862-11.136 39.485-25.247 58.877-38.621 8.383-5.76 16.481-11.873 24.256-18.27 3.36-2.85 6.751-6.722 10.752-8.735 1.248-0.635 2.496-1.116 3.743-1.986 5.982-4.644 8.256-13.504 14.238-17.759 6.017-4.254 9.377-13.504 14.369-19.998 4.001 3.23 2.623-5.886 5.886-7.393 4.991-7.619 11.742-14.112 14.879-22.847 5.982-7.773 9.984-16.639 15.743-24.383 4.608-6.241 4.512-14.753 10.241-20.255 6.497-4.381 3.871-13.504 9.246-19.614 2.88-7.874 6.143-15.744 9.504-23.742 4.512-4.254 4.001-14.273 6.27-16.896 4.098-1.378-0.38-10.111 4.351-12.479 2.274-8.254 5.886-16.254 6.751-25.024 2.015-8.735 4.385-17.502 4.638-26.623 4.734-8.735 2.496-19.102 5.248-28.48 1.505-9.63 0.861-19.391 1.248-29.022 0.99-10.625 0.481-21.246-0.126-31.87z"></path>
    <path fill="#000000" d="M351.188 478.967c-4.255-2.369-2.753-11.742-7.265-16.001-3.617-5.886-9.12-10.111-12.641-16.001 0.126 8.989-0.101 18.75-6.624 24.863-6.978 6.75-19.871 10.145-28.864 13.247-4.608 1.633-7.614 5.25-11.136 8.508-3.617 3.266-7.614 5.634-11.232 8.735-6.24 5.505-11.52 12.258-17.633 17.887-4.128 4.001-8.736 7.138-13.374 10.494-4.128 3.138-6.751 3.138-10.625 5.117-7.231 3.646-11.999 10.752-18.623 15.137-6.366 4.001-12.257 4.608-19.487 4.734-4.001 0.090-11.393 1.758-13.631-1.986-1.632-3.011 2.37-10.241 3.137-12.99 1.854-5.886 3.103-11.393 6.497-16.639 4.224-6.75 9.246-12.256 12.863-19.36 5.376-10.494 11.262-19.871 15.486-30.88 5.376-13.888 7.008-28.51 15.647-40.894 7.871-11.231 16.001-21.598 26.111-30.976 10.494-9.63 20.128-19.007 28.864-30.495 3.905-5.153 8.383-10.145 11.52-15.774 1.985-3.355 3.617-6.976 5.248-10.494-0.126-2.114-0.255-4.127-0.509-6.366-0.991-7.746 0.38-16.384-4.001-23.358-2.623-4.127-5.856-5.25-10.494-7.266-0.606-1.506-0.606-3.011-1.122-4.381-0.38-0.99-1.248-1.734-1.632-2.886-0.481-1.378 0.897-5.723-2.112-4.608-0.772 0.271-0.991 1.378-1.632 1.758-0.509 0.182-2.623 0.99-3.137 1.116-2.976 0.726-6.497 0.364-9.504 0.271-3.743-0.090-4.734-1.506-4.865-5.024-0.126-4.228 0.509-8.862-1.122-12.864-2.239-5.38-6.24-5.634-11.262-4.734-3.617 0.453-6.497 1.859-9.726 3.484-10.398 5.125-21.023 7.746-26.622 19.23-4.895 10.53-1.505 22.752 5.376 31.391 6.497 9.761 11.232 22.624 6.497 33.983-3.522 7.518-11.742 11.136-17.118 17.279-7.134 7.102-15.263 13.344-23.776 18.846-12.222 10.014-16.35 25.887-21.726 40.126-0.897 2.749-3.006 7.138-1.632 9.888 1.505 2.749 5.25 3.138 7.871 2.622 4.638-0.99 6.624-7.266 10.494-9.761 2.238-1.253 5.248-3.23 6.881-5.505 0.255 6.621-3.36 14.753-6.113 20.639-3.006 6.366-11.135 8.989-16.127 13.247-7.518 6.366-13.247 15.617-14.622 25.247-0.509 3.355 0 6.75-0.38 9.984-0.509 5.634-2.753 11.136-4.385 16.384-2.37 11.52-10.752 22.014-22.24 25.247-12.863 6.366-13.374 26.753-1.375 34.367 4.608 3.011 9.377 4.381 14.495 6.014 3.743 1.378 6.881 3.266 10.368 4.734 1.889 0.906 3.522 1.378 5.633 1.253 3.486-0.090 6.623-1.722 10.241-0.99 10.529 2.142 17.633 12.258 28.127 14.88 6.143 1.633 12.257 1.888 18.143 3.747 5.248 1.888 9.12 1.506 14.753 1.888-7.649-3.521-13.025-10.626-18.496-16.639-4.128-4.482-1.505-7.746 3.103-10.241 6.017-3.138 12.641-5.505 18.75-8.254 3.486-1.633 7.134-2.749 10.368-4.482 1.505-0.906 3.006-1.633 4.255-2.749 0.643-0.546 3.006-3.774 3.391-3.774 8.862-0.906 15.617-6.722 23.358-10.625 10.014-1.597 16.511-10.625 26.015-13.374 8.993-2.72 14.238-10.626 21.376-15.36 4.734-6.241 11.742-7.999 15.486-14.879 4.991-5.986 9.377-12.864 11.232-20.478-1.471-6.269 7.265-10.751 5.28-15.263z"></path>
    </svg>