<svg xmlns="http://www.w3.org/2000/svg" viewBox="71.942 39.998 941.034 944.004">
    <path fill="#000000" d="M988.858 406.78c0 0.509-0.064 0.72-0.127 0.975l-0.72-4.163c0.223 1.065 0.552 2.040 0.848 3.187zM837.153 528.952c-5.48-3.614-11.939-4.889-17.507-8.459-6.502-4.123-13.171-7.566-21.034-8.203-8.963-0.765-16.485 1.658-25.026 3.868-7.266 1.867-14.661 3.613-21.716 6.247-5.78 2.167-11.39 4.76-17.166 6.928-13.94 5.267-26.306 17.931-34.209 30.214-6.458 10.111-12.239 20.947-16.744 32.038-1.868 4.506-4.63 8.797-6.032 13.43-1.49 4.888-0.98 9.988-1.064 14.999-0.080 5.864 1.402 11.39 2.593 17.043 0.932 4.374 1.996 8.625 3.696 12.788 4.163 9.988 8.498 19.677 13.769 29.153 4.845 8.709 12.62 13.171 19.632 19.8 4.418 4.167 8.924 7.353 12.15 12.62 2.55 4.207 2.765 9.477 3.402 14.151 0.678 5.016 3.187 10.709 2.080 15.724-1.442 6.585-9.856 10.792-14.744 14.616-3.653 2.85-7.266 5.824-11.557 7.648-5.61 2.382-11.856 1.999-17.465 4.040-3.443 1.275-3.868 1.613-5.697-1.574-1.868-3.271-4.418-3.995-7.522-5.819-2.804-1.658-5.481-3.657-7.648-6.080-1.187-1.275-2.25-2.633-3.187-4.036-5.055-7.395-8.498-16.063-11.641-24.349-3.358-8.541-8.924-16.019-12.493-24.477-4.55-10.835-9.816-21.246-12.454-32.807-2.379-10.454-1.275-21.501-1.275-32.126 0-9.051 0.637-17.931 1.064-26.899 0.239-5.311 1.614-9.772 3.144-14.744 1.618-4.972 2.382-10.199 3.913-15.17 1.529-5.143 3.443-10.41 5.61-15.254 2.334-5.442 6.247-9.86 8.625-15.215 7.183-16.234 20.353-29.065 36.333-36.759 5.82-2.887 11.984-4.546 18.019-6.968 4.163-1.702 8.242-3.653 12.493-5.271 4.502-1.658 8.924-0.892 13.342-3.015 3.952-1.912 7.395-4.801 11.517-6.291 2.506-0.848 5.099-1.058 7.648-1.995 3.865-1.402 7.434-3.486 11.175-5.227 5.566-2.633 12.62-3.525 18.656-2.294 1.996 0.427 3.991 1.102 6.075 1.402 8.458 1.32 17.422 0.509 25.752 2.677 4.801 1.23 9.051 1.148 13.47 3.526 5.991 3.314 9.776 8.287 14.959 12.493 4.717 3.825 9.306 7.82 13.769 11.984 2.888 2.677 5.653 5.481 8.33 8.414 1.785 1.999 3.525 3.995 5.311 6.036 2.55 2.887 5.143 5.781 7.605 8.712 4.972 5.864 7.183 11.769 9.267 19.079 1.529 5.481 1.658 9.9 1.614 15.553 0 4.251 0.466 8.753-0.239 12.959-0.554 3.187-1.231 6.418-1.741 9.605-0.359 2.122 0.159 4.378-0.509 6.458-0.765 2.55-2.765 4.805-3.657 7.353-1.529 4.119-1.57 10.621-4.928 13.769-0.509-2.294-0.159-4.889-0.159-7.266 0-5.271 0.277-10.582-0.159-15.851-1.235-13.812-8.33-28.345-15.641-39.858-2.804-4.462-6.032-8.541-8.88-12.963-3.781-5.737-6.968-12.406-12.876-16.358zM446.625 139.021c3.443-1.020 7.522-0.361 11.091-0.361 5.61 0.032 11.258-0.159 16.867 0.223 9.86 0.765 19.465 0.72 29.321 0.809 6.545 0.032 11.179 0.191 16.66 3.355 7.307 4.167 15.043 5.61 23.031 7.904 9.943 2.891 19.716 6.207 28.257 12.239 6.502 4.589 12.749 10.115 18.191 16.023 6.119 6.712 12.111 13.979 17.887 20.991 10.964 13.386 16.616 29.788 22.397 45.894 3.060 8.498 5.948 16.572 9.645 24.732 3.781 8.203 3.525 16.234 2.849 25.070-1.745 23.289-11.517 43.687-22.055 64.124-10.88 21.206-23.883 41.094-36.587 61.152-4.422 6.968-11.134 13.171-13.813 20.947-1.191 3.443-3.231 5.952-5.311 8.884-4.805 6.796-7.992 13.553-11.561 21.075-8.199 17.298-13.597 34.081-14.064 53.248-0.28 10.835-1.191 21.544-1.191 32.381 0 10.41 0.936 20.82 1.741 31.189 1.658 20.226 5.271 41.133 12.028 60.3 6.247 17.677 17.974 33.91 27.835 49.763 4.928 8.031 10.238 14.999 16.445 22.138 4.717 5.399 9.856 11.347 12.832 18.059 0.681 1.616 1.231 3.275 1.956 4.845 0.159 0.398 0.398 0.809 0.637 1.233 1.57 2.76 4.036 4.673 6.119 7.012 2.589 2.932 4.247 6.585 6.331 9.856 2.422 3.995 5.183 7.182 8.159 10.709 2.212 2.677 3.781 7.055 2.593 10.497-3.868 0.72-6.801-0.427-10.497 1.741-2.804 1.574-5.481 3.486-8.414 4.845-2.212 0.809-4.462 1.785-6.585 2.804-1.573 1.275-3.314 2.339-5.227 3.146-2.849 1.186-6.374 2.294-9.394 3.098-3.525 0.851-6.968 2.422-10.621 2.55-6.545 0.223-13.219-0.064-19.72-0.064h-16.318c-3.144 0-7.522 0.765-10.621 0.127-1.446-0.319-2.677-0.975-3.696-2.122-1.235-1.065-2.677-1.488-4.295-1.402-1.953-0.599-3.314-1.020-5.011-2.167-2.765-1.912-4.932-3.443-7.992-4.677-3.060-1.23-5.481-3.908-7.139-6.796-3.482-6.080-3.653-13.346-5.649-19.931-1.446-4.801-2.849-9.689-4.422-14.405-1.785-5.694-6.203-9.605-9.179-14.661-8.326-14.278-15.637-29.532-19.461-45.723-3.187-13.557-3.358-28.090-4.673-41.986-1.701-17.465-3.060-34.974-3.060-52.523 0-16.911-1.956-34.847 2.462-51.248 4.633-17.294 5.143-35.612 13.346-51.714 7.733-15.17 17.377-29.237 27.154-43.133 6.458-9.223 13.087-18.314 19.759-27.409 7.817-10.755 16.785-20.825 24.306-31.789 5.78-8.326 10.155-17.422 15.342-26.134 2.972-5.055 6.286-9.601 8.37-15.126 1.148-3.104 2.379-6.502 2.976-9.772 0.55-3.402 0.509-6.589 2.040-9.86 1.148-2.378 3.099-4.207 4.546-6.458 2.55-3.913 3.103-8.33 5.183-12.366 1.785-3.57 0.853-7.139 2.294-10.582 1.573-3.952 2.677-6.844 2.765-11.218 0.037-3.275-0.359-6.080-0.892-9.267-0.726-3.908-0.319-8.115-0.239-12.111 0.037-4.502-1.235-8.797-1.148-13.341 0.041-3.271-0.637-5.908-1.064-9.095-1.064-7.223-3.358-14.7-6.713-21.162-2.294-4.546-6.717-8.071-10.242-11.601-1.912-1.867-3.614-3.865-5.693-5.522-2.167-1.658-4.677-2.677-6.756-4.506-1.956-1.829-3.57-3.996-5.653-5.694-2.721-2.253-5.908-3.868-8.924-5.697-5.693-3.482-12.028-4.884-17.636-8.581-6.458-4.295-13.342-8.541-20.397-11.689-2.422-1.102-4.928-1.951-7.266-3.271-2.972-1.741-4.418-3.358-7.86-4.462-4.888-1.485-9.179-0.72-14.107-1.447-2.593-0.287-5.187-1.275-7.777-1.699-6.080-1.106-12.111-2.467-18.23-3.358-4.932-0.765-9.477-2.594-14.322-3.526-2.849-0.555-5.143-0.472-7.988-1.32 1.741-0.765 3.696-1.148 5.267-2.25 4.207-2.977 5.271-8.159 10.796-9.776zM237.779 493.172c-2.124-4.717-2.888-9.689-4.673-14.534-1.32-3.57-3.060-6.756-4.207-10.41-7.055-21.8-5.61-45.938-1.275-68.247 3.271-16.744 9.772-35.779 22.349-47.723 2.255-2.122 3.868-4.801 6.207-6.883 2.040-1.912 4.335-3.398 6.414-5.227 4.462-3.991 9.988-6.84 13.175-12.111-1.064 2.594-3.653 4.717-4.972 7.183-4.633 8.541-7.012 18.059-11.812 26.433-1.446 2.591-3.231 5.055-4.422 7.817-1.57 3.657-1.912 7.693-2.167 11.645-0.359 5.693-1.020 11.347-2.167 16.955-2.294 11.218-1.359 23.501 1.064 34.719 1.275 5.649 3.908 10.709 6.331 15.892 2.765 5.948 4.633 12.027 8.374 17.509 8.326 12.239 19.162 25.155 31.954 32.847 5.438 3.314 11.262 6.29 16.955 9.262 3.358 1.785 6.928 3.231 10.326 5.059 2.721 1.529 5.016 3.57 7.82 5.011 4.247 2.257 9.051 4.932 13.47 6.63 6.374 2.467 13.43 2.55 19.123 6.674 2.040 1.574 3.825 3.398 6.036 4.76 3.187 1.995 6.756 3.101 9.943 5.14 3.143 1.999 5.904 4.462 8.581 6.972 5.271 4.928 10.709 8.454 14.959 14.489 2.506 3.525 4.76 7.223 7.096 10.88 2.040 3.187 4.76 5.904 6.844 9.092 3.226 4.932 4.717 10.37 6.669 15.808 2.255 6.374 5.569 12.198 5.824 19.167 0.080 2.25-0.398 4.506 0 6.756 0.509 3.143 1.953 6.036 2.589 9.179 2.084 10.664-0.848 21.29 0.041 32.17 0.808 9.473 0.594 18.951 0.554 28.468-0.041 8.541 1.824 15.808 3.099 24.094 1.020 6.502 2.55 12.963 3.443 19.465 0.808 5.694-0.159 11.386 0.159 17.039 0.198 3.187 1.064 6.928 1.996 10.027 0.509 1.785 2.765 5.569 0.808 6.972-0.637 0.42-1.996-0.191-2.761-0.032-1.235 0.223-1.658 1.148-2.721 1.702-2.932 1.444-6.331 0.032-9.518 0.679-1.658 0.361-2.804 1.574-4.335 1.999-1.573 0.465-3.187 0.191-4.805 0.191-2.932-0.032-5.055-0.159-7.817-0.892-6.461-1.613-12.366-4.845-18.74-6.673-6.119-1.785-12.493-2.294-18.74-3.696-3.36-0.724-5.018-2.977-8.077-4.337-1.573-0.679-2.761-0.848-4.123-1.995-1.315-1.020-3.314-2.467-4.418-3.696-1.446-1.613-1.103-3.781-1.103-5.737 0.037-1.957 0.118-3.271 0.594-5.055 0.509-1.999 0.426-4.123 1.191-6.119 2.972-7.31 4.845-14.748 6.796-22.397 0.239-0.892 0.426-1.785 0.681-2.716 2.422-9.306 5.399-18.445 7.183-27.835 1.486-7.566 1.658-15.342 1.614-23.032 0-3.060-0.080-5.315 1.32-8.031 2.761-5.143 0.892-9.223 0.849-15.086-0.041-8.031-0.849-14.449-3.908-21.971-2.212-5.481-5.354-9.306-8.968-13.979-5.354-7.055-10.88-13.641-16.784-20.27-4.378-4.889-8.797-9.733-13.813-14.023-7.477-6.374-15.637-9.645-24.688-13.557-11.434-4.927-21.716-11.641-32.17-18.398-8.625-5.525-16.49-12.708-23.202-20.441-6.247-7.266-12.067-14.787-16.063-23.584zM801.833 794.789c-9.135 11.517-20.142 21.079-31.018 31.062-6.844 6.247-14.023 12.282-21.887 17.171-6.075 3.909-12.533 6.203-19.079 9.179-7.904 3.653-15.851 7.266-24.094 10.071-9.86 3.443-20.353 5.267-30.341 8.414-7.31 2.294-14.489 4.207-22.098 5.099-9.051 1.061-17.848 4.163-26.517 6.713-8.071 2.378-16.318 2.76-24.477 4.633-7.648 1.785-14.999 4.717-22.776 6.075-8.88 1.529-17.974 3.104-26.983 3.696-9.988 0.72-20.059 0.127-30.002 0.159-9.689 0.032-18.274 0-27.664-2.467-8.84-2.339-17.721-4.079-26.688-5.864-6.203-1.23-11.896-2.378-17.633-5.143-6.291-3.015-12.792-5.14-19.294-7.648-5.099-1.912-9.816-4.418-14.534-7.095-7.055-3.996-14.322-6.418-22.055-8.585-8.88-2.505-16.871-5.864-25.453-9.262-9.776-3.868-18.995-7.183-28.389-12.028-4.418-2.209-9.219-4.035-13.513-6.585-3.271-1.912-5.737-4.589-8.454-7.31-2.932-2.974-5.525-6.202-8.502-9.051-3.653-3.398-7.395-6.63-10.748-10.365-4.972-5.398-8.458-11.816-13.43-17.171-2.124-2.336-3.271-4.673-4.462-7.561-1.359-3.314-3.868-7.522-4.418-11.052-0.47-2.633-0.159-5.267-0.637-7.904-0.47-2.887-1.191-5.776-1.618-8.541-0.465-3.653-0.037-7.689-0.080-11.386-0.037-2.594 0.808-5.824 2.55-7.904 2.167-2.639 5.566-4.167 7.947-6.589 2.462-2.378 4.119-5.14 5.267-8.414 1.956-5.693 2.637-11.557 8.414-14.916 4.422-2.591 9.138-4.462 13.6-6.756 6.713-3.398 13.895-7.178 20.991-9.39 0.509-0.159 1.020-0.361 1.486-0.465 3.825-1.192 6.717-2.085 10.923-2.085 2.294 0 5.566-0.848 6.374 1.912-4.677 2.887-8.84 5.948-13.895 8.203-5.399 2.336-9.433 2.25-12.749 7.605-2.422 3.825-4.251 8.414-7.777 11.39-1.275 1.061-2.55 1.741-3.358 3.187-2.422 4.418-2.212 11.175-3.443 16.019-1.996 7.86-2.761 17.381 1.231 24.86 1.912 3.443 5.78 7.223 8.502 10.027 3.825 4.040 7.817 7.183 12.705 9.86 4.972 2.85 9.39 5.948 14.999 7.139 5.315 1.065 9.095 3.952 14.239 5.61 4.801 1.613 9.689 2.594 14.362 4.717 4.546 1.995 8.797 3.741 13.641 4.801 7.565 1.574 14.916 3.996 22.481 5.653 11.004 2.422 22.649 0.127 33.401 3.825 3.226 1.102 6.119 2.977 9.433 3.908 5.394 1.492 11.258 1.402 16.784 2.511 6.247 1.313 13.003 2.167 19.421 2.333 7.051 0.159 13.724-0.191 20.736 0.809 6.585 0.892 13.175 1.829 19.803 2.339 49.973 4.079 100.114-10.071 147.836-20.27 8.458-1.829 16.999-3.696 25.496-5.442 7.183-1.444 14.449-1.695 21.544-3.355 7.35-1.658 14.916-3.060 22.055-5.187 6.63-1.951 11.772-5.354 17.931-8.031 4.845-2.122 7.648-2.843 10.454-6.968 3.614-5.354 5.737-12.067 7.865-17.931 2.379-6.502 4.673-12.111 4.673-18.867 0-5.824 0-13.641-4.207-18.486-3.187-3.57-8.031-5.481-11.429-8.884-3.486-3.525-6.291-5.394-10.753-8.031-3.060-1.785-5.737-4.079-8.88-5.864-1.618-0.934-3.53-1.571-5.016-2.719-1.741-1.364-2.721-3.060-4.633-4.422-1.953-1.441-4.502-2.505-6.63-3.738-2.633-1.616-5.099-3.358-8.031-4.589-1.824-0.765-3.908-1.065-3.908-2.932 2.338-0.724 5.78-0.191 8.242-0.191h12.708c7.012 0 13.131-0.93 18.867 2.894 2.040 1.313 4.036 1.951 6.075 3.098 2.677 1.447 4.845 3.614 7.438 5.227 3.226 2.040 6.968 3.314 9.943 5.697 3.443 2.76 5.82 5.948 9.689 8.371 2.379 1.529 4.972 2.76 6.84 4.801 1.785 1.87 2.761 4.378 4.418 6.291 1.872 2.212 4.123 3.908 5.737 6.29 1.658 2.46 3.696 5.227 4.506 7.988 1.446 4.972-1.064 9.86-1.275 14.832-0.159 5.438-0.594 10.835-1.231 16.231-1.573 13.983-9.011 25.967-17.553 36.759zM786.5 919.433c0.080-0.064 0.159-0.287 0.239-0.42-0.121 0.509-0.239 1.020-0.681 1.529-2.888 1.995-4.123 2.294-4.717 2.205 1.402-0.892 3.016-1.951 5.143-3.314zM1010.128 555.895l-1.741-5.78c-1.912-14.023 4.589 1.402 0.892-18.951-1.829-7.477-7.183-20.951-7.35-17.974 0.549 3.060 0.892 7.904-0.159 8.33l-1.829-6.801c-0.191-0.032-0.42-0.064-0.637-0.159l-0.191-1.102 4.546-48.4-9.263-33.317 0.765 0.682-1.148-2.294-2.887-10.37c0.465 0.191 1.058 1.148 1.785 3.104-0.191-2.294-0.555-3.868-0.892-4.845-0.637-2.804-1.658-3.657-1.402-8.502 0.064-0.72 0.287-0.424 0.509 0.191l-2.167-7.353c0.803 1.364 1.741-1.613 2.167 3.060-0.855-13.769-5.991-21.374-4.845-26.811l0.398 1.102c-1.574-6.801-2.294-8.712-2.891-9.306-0.593-0.509-0.892 0.555-1.785-0.191l-2.253-8.626 1.741-7.223-2.46-1.32c-0.427-1.912-1.275-5.694-0.256-5.227-3.231-6.713-0.596 1.447-2.932-2.336-0.427-6.801-3.784-16.023-5.016-22.565-1.912-2.382-2.804-4.079-2.467-5.187-3.443-1.529 5.059 7.565-2.422 0.682 0.765-4.462-8.159-8.287-12.661-15.851 3.143 0.765 7.817 7.565 3.314 0-5.781-1.867-10.582-13.043-15.896-18.059-0.223 0.223-0.892-0.032-1.402-0.319-2.971-2.167-9.689-13.131-16.19-21.075 1.065 0.159-12.194-19.593-18.397-29.065l0.55 0.032c-3.314-0.361-9.9-9.984-15.465-16.485 1.402-0.637 2.804 0.191 6.119 3.57l-4.805-6.461c-1.741-1.020-3.609-2.804-6.968-6.756l2.721 0.509c-6.335-8.581-14.067-16.274-20.951-28.257-1.231 0.223 0.239 5.525-1.529 5.438l-4.251-6.075c0.637-0.159 1.529 0.191 2.804 1.702-0.804-0.981-3.187-3.187-4.29-5.481l4.633 3.865c-3.020-5.522-2.976-1.951-5.697-6.119 1.148-0.72-1.315-3.609-0.037-3.609 0.804 0.975 2.040 3.909 3.525 5.183-0.808-1.358-1.614-2.76-2.506-4.163-0.892-1.616-1.785-3.231-2.55-4.633-2.765-2.422-3.486-3.398-4.207-4.462-0.037 0.892-1.064 1.447-4.506-0.809-8.712-6.119-2.040-3.398-6.713-7.605-2.637-0.72-7.648-5.481-8.924-3.952-2.55-1.829-2.466-2.887-3.148-4.036-2.462-1.192-8.454-5.442-12.111-7.693-3.060-2.677-5.948-4.972-4.374-2.085l0.932 1.148c-0.198-0.159-0.465-0.398-0.765-0.593-5.776-4.546-11.175-9.86-16.445-15.381l-11.685-12.454-4.506-4.63c-4.757-1.233-7.307-1.829-10.835-2.55l0.159-0.599c-10.582-1.823-23.246-5.227-31.062-5.61-3.060-0.803-6.972-2.974-5.442-3.443-0.594-0.064-1.148-0.127-1.486-0.159-1.231-0.682-2.211-1.192-3.143-1.702-1.148-0.593-2.167-1.148-3.231-1.829-2.251-1.358-4.801-3.143-9.007-6.414 7.561 3.443-1.828-2.422 7.561 3.825-8.625-6.247-10.071-8.414-20.652-13.091 4.123 0.599-5.438-6.075-10.283-8.625l5.78 5.183c-1.363-0.803-2.677-1.613-3.952-2.378-1.49-0.975-2.892-1.867-4.295-2.804-2.462-0.637-4.845-1.275-7.266-1.912l3.231-1.529c-8.076-3.060-15.892-4.462-23.246-5.525-3.696-0.549-7.307-1.102-10.748-1.571-1.745-0.287-3.486-0.599-5.143-0.892l-2.506-0.509-3.402-0.892c-3.143 0.361-4.63 0.398-6.502 0.398-1.824-0.032-3.609-0.159-5.438-0.427-5.525 2.25 11.856-0.398 6.968 2.122-9.984 0.892-20.736-1.061-23.879-0.679-5.991 0.191-9.095 1.148-11.899 2.25-1.359 0.509-2.677 1.102-4.251 1.613-1.359 0.509-3.865 1.065-4.801 1.275-0.426-0.064-0.808-0.191-1.275-0.361-0.765-0.191-1.614-0.465-2.466-0.72 1.573 1.23 2.721 3.738-7.86 1.823-9.689-2.716-11.175-6.286-4.845-5.311 2.338 0.465 3.398 1.020 3.231 1.275 3.226 0.509 7.434 1.192 3.781-0.593l-1.486 0.42c-4.589-1.995-17.974-5.267-14.534-5.737-7.522-1.102-3.443 0.468 1.868 2.212-4.379-1.529-8.16-2.594-11.729-3.525-3.868-0.978-7.477-1.829-11.474-2.85-1.701-0.064-3.443-0.191-5.311-0.357-1.658-0.127-3.358-0.287-5.187-0.468 2.084 0.555 3.952 1.574 1.872 1.447-19.378-1.912-8.629 1.102-21.76 0.848-7.434-1.571 2.804-2.76-10.454-2.422-8.071-1.186-1.614-2.167 1.618-2.677-1.829 0.127-3.57 0.191-5.315 0.159-0.849 0-1.697-0.032-2.506-0.032-1.103-0.064-2.25-0.127-3.314-0.191l-2.167 0.361-1.402 0.127c-0.976 0.064-1.868 0.159-2.761 0.223-1.745 0.064-3.486 0.191-5.099 0.223-3.231 0.127-6.119 0.256-8.541 0.555l6.159-1.702c-3.653 1.065-6.756 1.488-9.9 2.040l3.825 0.981c-3.696 0.361-6.801 0.848-6.84 0.159-3.657 1.658 3.355 2.167-3.952 4.805-5.187 0.032-14.534 3.314-17.171 1.568 16.15-1.951-1.912-1.867 11.262-4.374-2.506 0.637-5.566 1.148-9.306 1.485-0.594-0.127 0.466-0.509 1.446-0.809-1.020 0.032-1.999 0.064-2.804 0.127-1.446 0.191-2.721 0.398-3.825 0.509-3.913 2.085-4.167 2.339-5.059 3.146-0.765 0.637-1.187 1.313-1.697 2.040-1.107 1.444-2.765 3.226-8.585 6.414 1.148-1.995-4.29-0.256-6.374 1.192 5.481-3.015 3.57 0.319-1.020 3.868-9.179 3.952-9.135 5.82-13.769 8.199l5.438-2.46c-1.103 1.951-5.522 4.207-11.004 7.605-0.080 0.032-0.159 0.127-0.28 0.159-0.198-0.127-0.037-0.398 0.159-0.555 0.765-0.892 4.374-2.721 2.422-2.085-0.726 0.765-1.829 1.529-2.466 1.999-5.991 3.271-15.17 4.079-23.075 8.963-4.887 1.32-1.357-1.867-5.564-0.549-3.868 2.378-6.589 3.482-9.051 4.374-1.235 0.361-2.466 0.682-3.657 1.109-1.060 0.357-2.167 0.676-3.443 1.102 0-0.032-0.55 0.159-1.148 0.361-0.509 0.159-1.103 0.398-1.741 0.599-1.191 0.398-2.506 0.93-3.952 1.529 3.952 0.42 4.418-0.127-3.57 4.119l11.262-4.335 7.139-3.738c-2.211 1.529-5.016 3.314-6.801 4.673-0.892 0.593-2.761 1.485-4.163 2.212 1.486-0.427 3.355-1.106 4.462-1.529 3.696-1.999 7.988-4.506 10.494-5.398-5.267 3.825-4.801 3.143-1.529 3.143-3.099 0.468-6.247 1.785-8.669 3.104-4.757 1.957-10.111 4.927-16.358 5.819l-0.937-3.865c-5.311 1.020-9.943 2.633-14.661 4.502-2.338 0.937-4.673 1.874-7.139 2.932-1.191 0.468-2.422 0.981-3.696 1.529l-1.912 0.765c-0.976 0.357-1.956 0.724-2.932 1.065-1.996 1.529-4.079 3.143-6.331 4.845-1.956 1.447-4.079 2.932-6.335 4.418l5.442-3.098c-1.191 2.804-9.605 7.223-14.278 11.429-0.28-1.447-3.784 0.427-6.461 1.358 0.853 0.599-11.557 8.203-11.429 11.434l-7.988 3.696c-13.047 8.709-12.155 13.681-24.565 22.182 2.765-3.868-3.314-0.555 4.207-7.353-4.036 2.977-7.817 5.442-7.35 6.247-0.892 0.361-1.785 1.065-3.653 2.639-3.53 3.653-7.353 8.498-10.497 10.111-1.191 1.829-0.808 3.358-5.099 6.972-0.594 0.191-0.427-0.468-0.427-0.468 0.427 0.468-5.948 6.502-1.358 4.378-5.61 2.85-11.218 7.438-17.892 13.341-8.031 11.052-15.082 22.182-21.839 27.708-6.119 9.135-13.474 20.142-18.995 28.385 0.037-0.72-0.554-0.398 0.637-1.826-8.924 10.494-1.745 9.051-11.856 21.075-6.374 5.315 3.865-7.477 0.277-3.865-0.976-0.159-2.080 0.465-3.187 1.613-0.55 0.593-1.103 1.275-1.697 2.085-0.726 1.102-1.573 2.25-2.422 3.526-0.201 1.102-0.509 2.212-0.765 3.398-0.118 0.765-0.319 1.616-0.47 2.467-0.319 1.658-0.721 3.443-1.103 5.183-0.808 3.443-1.829 6.801-3.314 9.562l0.398-2.55c-1.658 3.57-2.55 8.203-3.398 13.43-0.426 2.594-0.892 5.398-1.363 8.287-0.28 1.402-0.594 2.887-0.892 4.378-0.277 1.23-0.594 2.505-0.932 3.825l-0.427 0.765c0.037-0.096-0.159-0.509-0.554-0.427-2.506 8.88-10.365 24.010-16.102 35.23 0.465-4.251 2.080-5.398-0.637-4.207-2.637 5.055 3.226-0.032-1.956 9.984-0.398 0.427-0.808 0.937-1.446 1.747-2.124 3.825-4.757 9.007-6.585 9.473l3.443-10.537c-0.509 0.72-0.976 1.485-1.486 2.25-0.426 0.682-0.726 1.402-1.064 2.167-0.637 1.488-1.103 3.187-1.486 4.845-0.892 3.402-1.446 6.844-2.55 9.477l-0.765-1.020c-4.378 14.195-2.721 15.98-6.801 29.15-0.159 1.402-0.426 3.060-0.721 4.845l1.060-1.613c1.064 9.86-2.761 7.693-2.334 17.466l-3.103 2.467c-0.159 3.187-0.509 8.753-0.849 14.956-0.159 3.104-0.398 6.374-0.637 9.521-0.118 3.226-0.239 6.374-0.398 9.219-1.573-6.756-0.239-19.971-0.118-28.301-0.937 6.207-3.402 21.122-2.128 24.604 0-2.55-0.319-5.819 0.509-8.242 0.936 7.904 1.191 18.146-0.239 30.596-1.442-0.809-2.422 1.613-3.187 5.653-0.422 2.040-0.804 4.462-1.148 7.139-0.319 2.887-0.721 5.991-1.103 9.092 0.319 2.212 0.681 4.506 0.976 6.674 0.239 1.995 0.47 3.868 0.597 5.61 0.359 3.57 0.359 6.63-0.159 8.625 1.191 4.633 2.211 9.223 3.016 13.895l1.191 7.1c0.319 2.209 0.681 4.462 1.020 6.669-0.037 6.291-0.080 12.749-0.118 19.337-0.037 6.84 0 13.852 0.277 21.203 3.738-9.179 0.319 7.395 4.418 5.952 0.080 1.020 0.118 1.951 0.159 2.55 1.529 2.974 2.124 4.163 2.589 5.183 0.427 0.975 0.597 1.529 0.597 1.785l-0.359-1.23c0.159 0.549 0.198 0.848 0.359 1.313h0.037l5.78 17.382c0.808 4.378-3.314-4.76-3.952-3.825 5.481 11.94 0.892 5.737 3.696 13.979 0.554-2.209 3.908 3.231 6.673 10.199l-2.892-10.326c1.785 2.763 3.060 5.059 3.952 7.055 0.509 0.975 0.892 1.867 1.235 2.721 0.159 0.398 0.239 0.806 0.422 1.23 0.121 0.427 0.037 0.398 0.080 0.555l-0.080 0.398 0.080 1.020 0.118 1.954c0.037 1.364 0.118 2.677 0.398 4.167 0.422 3.015 1.315 6.712 3.57 12.239l-2.849-5.271c1.232 3.231 2.761 8.458 4.506 14.234 0.892 2.894 1.824 5.908 2.761 8.924 1.103 3.231 2.167 6.461 3.187 9.394 1.231 2.167 1.573 2.591 2.211 3.609 0.637 0.809 1.187 1.658 1.785 2.422 1.103 1.529 2.207 2.804 3.226 3.784 0.359 1.695 0.359 4.207-1.824 0.593 5.011 10.283 11.557 21.162 17.676 31.533 6.502 10.199 12.705 19.8 16.19 27.959l-1.741-0.975c2.379 3.57 5.354 5.481 7.139 10.582-0.509 0-1.745-0.937-0.853 0.765 0.359 0.427 0.937 1.148 1.618 2.040 0.398 0.465 0.765 0.975 1.148 1.529 0.359 0.398 1.315 1.829 1.912 2.76 1.57 1.275 3.314 2.677 5.011 4.040 1.363 1.148 2.593 2.333 3.614 3.443l-4.335-2.382c15.509 15.896 26.855 21.034 41.261 32.891-2.040 2.129 10.37 14.449 16.533 20.613l-0.509 0.127c1.697 1.485 3.314 2.974 4.928 4.374 0.765 0.682 1.573 1.402 2.338 2.085l1.148 0.975c0.118 0.064 0.118 0.064 0.159 0.127 2.466 3.314 4.76 6.461 7.012 9.477 2.593 3.358 5.059 6.63 7.565 9.86 2.55 3.226 5.055 6.458 7.648 9.728 1.275 1.658 2.593 3.314 3.908 5.016l2.211 3.015c1.064 1.402 2.040 2.804 3.060 4.207 1.996 0.472 4.251 1.020 6.585 1.529 4.378 2.294 11.052 4.589 18.784 6.972 3.908 1.189 8.076 2.378 12.322 3.609 3.784 1.065 7.693 2.212 11.561 3.275 3.443 2.677 6.84 5.31 10.071 7.86 3.696 2.887 7.178 5.737 10.326 8.459-2.637-2.639 1.824-1.533 5.394 0.803 2.084 1.874 5.481 3.784 8.119 5.399 1.275 0.809 2.379 1.574 3.016 2.167 0.892 0.892 1.402 1.658 0.721 2.040l-2.124-1.658c0.080 0.765 1.701 2.467 3.696 4.29 1.103 0.361 2.338 0.724 3.696 1.106 0.808 0.159 1.658 0.424 2.633 0.679 1.618 0.427 3.402 0.851 5.187 1.148 3.696 0.682 7.561 1.364 11.091 2.040l2.080-3.271c3.57 1.529 7.609 2.76 11.899 3.908 2.124 0.509 4.335 1.020 6.585 1.492 1.872 0.357 3.825 0.72 5.697 1.058 8.498 3.913 17.123 7.947 24.604 11.347 3.865 1.829 7.395 3.614 10.326 5.354 1.486 0.851 2.804 1.747 3.952 2.594 0.594 0.427 1.148 0.809 1.614 1.23l0.765 0.682c0.426 0.319 0.808 0.593 1.191 0.892 0.398 0.159 0.721 0.319 1.103 0.465 3.144 0.361 6.585 0.599 10.071 0.981 2.976 0.319 5.991 0.637 8.753 0.72l-0.637 1.785c5.697 1.23 10.37 2.167 15.086 3.143 2.338 0.472 4.717 0.937 7.266 1.402 2.888 0.509 5.991 1.065 9.477 1.658 2.761-0.287 7.35-0.765 12.788-1.358l-3.781 1.702c10.835-0.851 13.258-6.717 23.246-7.777l3.226 2.633c4.76-0.465 9.477-0.809 14.278-0.975l14.322 0.159c9.605 0 19.079-0.287 28.429-1.826-0.28 0.424-0.808 1.23-3.868 1.444 8.924 0.127 34.891-0.127 31.405-3.653 0.080 1.065 3.825 1.020 8.84 0.465 2.506-0.191 5.311-0.637 8.115-1.102 1.446-0.191 2.888-0.465 4.29-0.637l2.084-0.398c1.064-0.127 2.123-0.319 3.143-0.427 1.064-0.549 2.084-1.102 3.103-1.658 0.637-0.398 1.319-0.72 1.912-1.061l-0.722 2.333c7.012-5.649 7.012-6.331 17.887-11.812 2.765-0.892 2.932 0.398-0.765 1.447 9.179-2.894 6.119-4.589 17.21-8.287l-3.482 2.846c3.187-1.358 5.183-2.25 6.542-3.015 0.637-0.398 1.319-0.765 1.701-1.020l0.721-0.809c0.426-0.319 1.020-0.676 2.721-1.23 6.119-1.192 18.74-0.809 20.314 0.72 1.231-1.102 6.542-2.887 12.366-2.804 0.848 0.599-1.275 1.148-2.294 1.402 3.355 0.032 6.374-0.064 9.092-0.319 1.363-0.127 2.677-0.319 3.913-0.427 1.697-0.191 3.271-0.42 4.845-0.593 3.144-2.25 5.991-4.29 8.836-6.29 2.593-1.741 5.227-3.314 8.374-4.589 0.509 0.398 1.315 0.223 2.207-0.064-8.709 5.271-16.19 9.816-19.206 11.685-1.319 0.032-2.084 0.064-2.338 0.064 0.121 0.424 1.191 0.679 2.677 0.848 1.872-0.593 4.717-1.867 5.143-1.613 0.398 0.032 0.594 0.287 0.398 0.806-0.198 0.319-0.159 0.468-0.765 1.065-0.681 0.637-1.529 1.447-2.721 2.422 4.123-2.977 4.805-3.868 7.227-5.864 2.080-1.741 4.374-3.653 6.63-5.61 4.717-3.781 9.728-7.522 14.317-9.86 0.509-0.127 1.020-0.256 1.49-0.191l-0.853 0.72c2.167-1.102 3.868-2.336 5.442-3.653 2.932-1.485 4.801-2.422 7.522-4.035 1.785 0.593 10.835-5.442 15.426-8.031-1.319-1.402 4.801-4.633-1.618-2.721 0.808-0.287-0.721 0.682-3.696 2.505-0.678 0.468-1.442 0.937-1.868 1.32 0.080-0.064 0.159-0.191 0.239-0.357-2.976 1.785-6.883 4.119-11.262 6.756 3.060-2.977 6.461-5.824 11.984-7.904 1.745-2.382 3.657-4.972 4.805-6.335 7.605-1.358 20.353-7.139 22.86-6.669 0.765-0.555 1.618-1.106 2.422-1.658 1.191-0.765 2.422-1.529 3.657-2.294 2.633-3.231 5.354-6.674 8.115-10.115 2.466-3.104 4.888-6.247 7.223-9.179 4.55-6.036 8.33-11.645 10.071-16.019 2.55-3.614 4.55-3.614 5.354-3.741-0.159 0.427-1.231 1.785-1.953 2.804-0.808 1.065-1.446 1.957-1.745 2.721 0.637-0.892 1.32-1.829 2.084-2.804 0.637-0.851 1.275-1.658 1.956-2.55l0.765-0.555 1.486-0.975 2.888-2.040c1.912-1.364 3.784-2.721 5.442-3.913 3.355-2.46 5.737-4.589 5.948-5.904 10.326-5.227-4.251 5.438 8.924-3.402l-1.402 1.785c3.399-1.568 6.586-3.268 9.518-5.009 1.49-0.892 2.932-1.829 4.335-2.677 1.785-1.233 3.614-2.422 5.399-3.613l2.211-4.036 1.315-2.721c0.853-1.829 1.745-3.653 2.55-5.481 1.618-3.614 3.231-7.223 4.888-10.88 3.271-7.307 6.928-14.956 11.685-22.52 2.763-3.526 6.207-7.522 9.988-11.39-1.658 1.747-2.467 2.594-3.104 2.763 3.913-4.76 7.693-9.689 11.474-14.704l5.569-7.605 5.82-8.075c4.972-13.175 9.943-26.433 14.916-39.564 5.055-12.876 11.175-25.242 17.509-37.010 1.867-3.57 2.887-6.036 3.57-8.119 0.679-1.995 0.892-3.482 1.529-6.075-0.191-1.574-0.427-3.271-0.727-5.438l2.167-2.257-1.613-11.728c-0.223-5.354 0.398-10.238 1.275-15.082 0.937-4.55 1.829-9.051 2.804-13.983l0.637-1.020 1.065-1.867c0.679-1.275 1.358-2.633 2.040-4.079 1.275-2.85 2.46-5.948 3.526-9.39l-2.378 1.823c3.482-6.63 9.562-21.628 10.41-19.8 0.127-0.809-0.191-2.804 1.702-5.143l1.058 0.223 2.677-6.928-1.912-6.968z"></path>
    </svg>