<svg xmlns="http://www.w3.org/2000/svg" viewBox="87.241 72.001 871.972 879.999">
    <path fill="#000000" d="M839.589 429.597c-0.474 0.592-9.982 1.539-11.444 1.894-4.104 0.947-8.092 2.166-12.076 3.274-5.842 1.616-12.509 3.947-18.942 3.829-14.166-0.178-21.114-13.419-27.152-20.286-2.642-3.078-5.642-6.038-8.601-8.958-6.235-6.238-10.852-13.181-17.564-19.061-3.512-3.001-5.998-6.712-8.72-10.381-1.894-2.64-4.025-5.128-6.235-7.577-3.315-3.589-6.908-6.867-9.826-10.811-4.343-5.961-6.829-12.904-10.381-19.298-4.262-7.855-9.508-15.154-14.917-22.257-5.919-7.695-12.231-15.391-18.861-22.458-5.564-5.919-11.957-10.892-17.366-16.89-7.537-8.328-14.048-17.362-20.322-26.639-5.051-7.381-10.141-14.64-14.958-22.217-2.287-3.593-4.181-7.459-7.141-10.578-2.764-2.96-5.724-5.684-8.96-8.129-2.168-1.657-4.536-3.078-6.549-4.935-1.657-1.539-3.042-4.221-4.895-5.482-3.038-1.973-7.814-1.894-11.247-3.078-3.788-1.301-7.501-2.486-11.324-3.711-7.025-2.172-15.391-3.315-21.825-6.552-6.078-3.078-13.455-5.684-20.286-6.47-3.078-0.37-5.957-1.818-8.998-2.527-3.471-0.864-6.945-0.332-10.418-0.788-3.078-0.433-5.406-2.090-8.366-3.316-8.72-3.392-46.055 28.61-51.224 32.162-6.12 4.225-11.247 9.080-16.775 13.97-6.47 5.842-9.826 12.946-14.522 20.126-5.209 8.013-11.681 15.432-18.747 21.785-4.617 4.106-8.287 8.724-12.431 13.181-5.128 5.487-11.247 9.632-16.85 14.486-11.288 9.826-20.481 21.744-31.769 31.647-6.393 5.604-13.733 10.027-19.931 15.865-2.96 2.803-5.168 5.684-7.021 9.198-0.674 1.341-0.75 2.207-1.894 3.274-2.449 2.249-6.196 3.867-8.842 6.038-3.67 3.037-7.223 6.316-10.537 9.749-5.564 5.168-11.444 9.982-17.559 14.522-15.627 11.997-32.046 23.519-46.728 36.702-0.511 0.433-6.827 5.369-7.496 7.536-0.791 2.688-16.734-1.894-19.339-6.589-2.526-4.54-2.054-9.668-1.776-14.522 0.222-3.988 14.917-16.419 16.178-18.232 10.856-15.787 27.703-31.219 41.833-45.545 13.656-13.853 28.888-27.031 42.307-40.964 11.798-12.153 20.991-25.374 32.795-37.53 16.178-16.77 34.57-32.003 49.999-49.21 18.273-20.364 42.229-37.572 64.487-55.922 8.246-6.827 15.587-14.126 23.796-20.955 7.537-6.235 15.747-12.076 22.691-18.587 3.829-3.629 4.459-10.141 11.998-8.838 9.116 1.498 18.35 7.062 26.32 10.497 11.84 5.013 22.772 10.619 33.624 16.537 9.157 5.010 19.298 10.456 26.72 16.811 5.524 4.737 8.366 9.668 11.957 15.073 10.301 15.509 36.307 21.233 51.775 33.705 8.133 6.549 14.208 14.048 20.8 21.311 9.353 10.497 20.678 19.848 32.121 29.28 16.219 13.537 21.47 30.229 32.402 45.662 9.627 13.534 16.653 27.545 25.335 41.396 6.511 10.418 14.877 20.56 21.744 30.941 6.078 9.193 12.354 18.547 21.625 26.519 7.617 6.63 15.353 13.060 23.086 19.572 3.001 2.565 9.907 9.353 7.223 12.75zM758.135 597.714c0 11.444 1.225 23.597-0.907 34.926-1.539 8.366-3.392 15.783-3.552 24.427-0.257 12.669-0.987 25.299-1.499 37.968-0.556 14.877-2.331 29.793-3.396 44.671-1.539 21.274-3.907 43.728-9.627 64.405-2.687 9.826-7.184 18.314-9.040 28.455-0.869 4.339-0.75 15.823-4.303 19.73-1.066-2.799-0.296-6.707-0.296-9.668 0.034-7.025-0.034-14.088 0-21.113 0.075-23.952-4.813-47.157-6.827-71.035-2.289-27.663-2.606-55.563-2.567-83.306 0.034-12.154-0.907-24.311-0.592-36.465 0.186-7.299 1.066-14.603 1.462-21.943 0.147-2.090 0.296-4.221 0.333-6.276 0.791-37.766 2.055-75.453 3.988-113.182 0.947-18.469 2.013-36.857 3.156-55.289 0.296-5.287 0.632-10.574 0.987-15.865 0.113-1.616 0.748-3.984 0.433-5.602 1.462-0.871 3.078-3.433 4.813-4.777 2.409-1.894 5.012-3.315 7.577-4.576 2.764-1.382 8.051-3.16 11.010-1.776 4.379 2.090 6.12 14.326 6.867 20.206 0.632 4.421 1.857 9.039 2.172 13.574 0.632 9.749-0.075 20.049-0.075 29.835 0 31.219-0.075 62.433-0.075 93.647v39.031zM669.389 377.305c-1.813 2.172-4.773 4.462-7.537 5.173-2.882 0.746-7.299-0.118-10.341-0.118h-11.13c-5.878 0-11.916 0.474-17.796-0.178-8.96-1.024-16.142-6.276-24.784-7.814-7.577-1.341-16.93-1.931-24.625-1.459-8.564 0.513-16.219 4.418-25.177 4.654-8.606 0.207-17.286-1.301-25.773 1.026-3.943 1.066-7.814 2.131-11.722 3.197-6.393 0.829-12.787 0.592-19.139-0.633-10.497-0.988-19.812 1.344-30.149 2.606-6.316 0.751-12.63-0.029-18.983 0.633-9.157 0.947-18.155 2.131-27.389 0.985-8.442-1.066-16.298-3.114-24.822-3.038-5.604 0.060-11.17 0.029-16.77 0.029-2.095 0-26.046-17.522-26.088-19.534 0-2.214-0.034-4.225 0.26-6.356-0.034 0.147 0.866-3.591 0.866-3.632 1.503-3.315 4.777-5.842 7.025-8.683 2.131-2.799 3.238-4.379 7.025-4.298 3.471 0.029 7.103-0.37 10.574-0.060 4.225 0.332 7.973 1.738 12.313 1.657 4.343 0 8.724 0 13.064 0 6.078 0 12.194 0.296 18.309 0.118 9.826-0.178 18.196-5.168 28.296-5.011 7.695 0.060 14.8-0.029 22.339 1.301 3.943 0.668 7.459 0.392 11.247-0.557 9.865-2.564 20.678-0.71 30.781-0.71 5.878-0.029 11.876-0.509 17.758 0.118 3.943 0.434 7.851 1.657 11.876 1.657 8.092 0.060 16.025-1.894 24.152-1.734 4.539 0.029 8.96-1.226 13.459-1.616 4.696-0.397 9.272 0.668 13.889 1.142 7.776 0.871 15.272 0.592 22.732 3.238 15.154 5.365 54.58 14.362 55.37 15.428 3.078 3.871 3.707 19.061 0.865 22.494zM660.414 636.137c-1.972 16.338-3.948 32.48-8.246 48.385-2.687 9.945-5.328 20.838-10.499 29.913-2.404 4.221-6.235 7.972-9.076 11.957-1.617 2.29-3.907 4.065-5.801 6.079-4.813 5.050-8.246 9.075-13.774 13.455-11.876 9.471-26.32 17.167-40.609 22.535-10.615 3.944-21.979 3.316-33.109 3.274-11.722-0.029-23.519 0.267-35.24 0.060-12.431-0.178-25.1-2.207-37.334-4.536-14.877-2.883-25.532-7.223-38.122-15.945-6.671-4.577-13.93-8.326-20.522-12.942-5.957-4.225-9.945-12.787-13.101-19.061-6.434-12.867-11.798-26.797-15.747-40.69-3.356-11.876-8.366-24.23-8.958-36.62-0.674-12.867-1.066-26.442 0.147-39.305 1.383-14.169 7.895-26.797 13.378-39.662 2.764-6.393 5.369-12.59 8.251-18.747-0.034 0-0.075-0.029-0.113-0.029-9.394-8.601-19.772-13.496-23.997-26.242 1.975 8.092-1.617 0.751-1.657-1.657-0.034-2.919 0.556-6.156 3.552-7.655 3.16-1.58 7.735-0.296 10.418 1.142 3.118 1.657 4.343 4.303 6.949 6.316 2.84 2.166 5.642 3.67 8.366 6.194 1.894 1.818 3.907 3.433 5.961 5.013 2.050-2.765 4.299-5.447 6.352-7.815 1.461-1.657 6.827-7.694 10.182-12.354 3.747-5.091 8.564-6.827 14.011-9.826 3.907-2.090 6.276-5.602 10.259-7.614 3.512-1.855 7.223-3.16 10.814-4.895 3.907-1.894 8.246-2.445 12.431-3.316 5.684-1.184 11.206-2.883 16.93-3.829 16.061-2.564 32.871-2.522 49.134-1.931 7.614 0.267 14.994 1.657 22.691 1.616 8.998-0.060 18.666-1.344 27.349 1.421 8.601 2.723 17.64 4.854 25.65 9.039 1.657 0.829 3.356 2.052 5.053 3.392 0.907-1.142 1.932-2.207 2.96-3.593 3.707-4.736 9.389-23.715 18.074-16.338 2.682 2.211 3.238 5.446 4.777 8.092 1.024 1.818 5.72 5.524 6.038 7.459 0.257 1.734-0.87 1.818-1.462 3.238-1.261 2.799-2.249 5.957-3.67 8.68-2.131 4.065-4.576 8.286-7.263 12.235 7.067 8.406 13.141 17.681 17.326 27.782 3.238 7.776 6.235 15.747 8.642 23.76 1.616 5.364 3.788 10.419 3.867 16.101 0.075 2.486-0.113 5.051-0.147 7.577-0.038 16.652 0.865 33.386-1.107 49.879zM330.15 712.222c-3.474 17.878-0.333 37.448-1.383 55.681-1.103 18.983-3.747 38.519-8.917 56.828-1.739 5.173-3.16 10.381-4.379 15.709-0.436 3.197-1.066 6.394-1.776 9.508-1.343 1.146-2.095 0.207-3.514 1.226-1.776 1.26-3.234 6.116-5.998 4.303-4.777-3.118-3.907-15.55-4.657-20.327-0.907-5.998-0.113-12.076-0.222-18.151-0.185-9.749-3.197-18.905-4.379-28.532-4.063-32.126-10.377-63.932-14.244-96.057-2.408-20.404-5.173-40.804-6.748-61.287-0.75-9.353-2.449-19.972-1.066-29.324 0.392-2.681 1.539-5.091 2.168-7.733 2.764-11.364 0.87-24.469 0.791-36.032-0.075-24.347-3.197-47.553-4.421-71.823-0.907-18.314-1.107-36.742-0.75-55.092 0.147-7.973-2.997-30.704-2.92-31.297 2.882-1.539 6.47-0.060 9.549-0.906 3.907-1.024 7.932-3.038 11.957-3.747 3.356-0.633 6.867 0.551 10.182-0.060 2.723-0.551 9.080 41.082 8.96 64.168-0.147 20.208 0.474 41.834 3.234 61.723 1.028 7.418 2.368 14.8 3.042 22.298 0.947 11.010 0.333 22.295 1.143 33.387 2.055 26.639 6.671 52.763 9.826 79.123 1.184 9.907 2.172 19.852 3.078 29.835 0.71 8.406 3.118 18.232 1.461 26.6zM743.708 881.504c0.034-0.118 0.147-0.296 0.222-0.397-0.113 0.474-0.333 0.871-0.791 1.385-1.421 0.788-2.404 1.219-3.114 1.457-0.556 0.147-0.515-0.060-0.75-0.147 1.184-0.633 2.564-1.344 4.421-2.29zM944.444 408.34c0.029 0.433 0.029 0.668 0.029 0.906l-1.462-3.669c0.433 0.906 0.906 1.734 1.421 2.765zM957.298 524.914c-1.142-7.103-5.091-19.968-5.446-17.244 0.267 2.878 0.178 7.418-0.746 7.733l-1.222-6.47c-0.178-0.029-0.397-0.118-0.592-0.178l-0.118-1.026-8.287-44.042 4.813-32.239 0.332 0.829-0.147-2.368 1.498-9.907c0.335 0.397 0.516 1.344 0.37 3.315 0.988-2.919 1.184-4.854 1.226-6.276-0.988-1.852-1.818-2.919-2.445-6.47-0.029-0.751 0.178-0.516 0.551 0.029l-3.474-6.276c1.030 1.066 1.226-1.776 2.565 2.403-3.514-12.431-9.672-18.232-9.708-23.519l0.551 0.947c-5.724-11.88-4.145-6.552-6.078-7.695l-0.592-1.498-2.96-5.961 0.207-6.868-2.522-0.788c-0.71-1.657-2.172-4.935-1.226-4.657-4.145-5.564-0.178 1.38-3.038-1.616-1.776-6.593-7.577-15.747-9.274-20.878-0.37-1.58-0.397-2.919 0.089-3.593-2.445-2.406 1.935 8.251-2.327-0.147 2.131-3.634-4.339-9.907-5.76-17.995 2.445 1.734 4.299 9.193 2.881 1.142-4.418-3.552-4.972-14.877-7.851-20.996-0.397 0.118-0.829-0.178-1.462-1.301-3.037-3.197-8.128-13.060-13.537-20.838 0.37 0.060-0.788-2.285-2.64-5.76-1.894-3.593-4.499-8.366-6.985-12.946-1.501-1.696-2.96-3.315-4.303-4.854-1.26-1.459-2.41-2.84-3.392-3.984l0.474-0.029c-3.078 0.060-10.341-8.009-16.219-13.378 1.184-0.71 2.564-0.060 6.038 2.565l-5.209-5.328c-1.776-0.751-3.711-2.131-7.223-5.446l2.524 0.147-1.696-1.696c-0.592-0.516-1.226-1.146-1.462-1.301-2.527-3.278-5.051-6.552-7.774-10.104-2.765-3.67-5.527-7.695-8.092-12.431-1.184 0.178 0.118 5.168-1.539 5.012l-3.828-5.768c0.554-0.118 1.382 0.296 2.565 1.657-0.793-0.906-2.922-3.038-3.907-5.209l4.181 3.711c-2.681-5.168-2.681-1.852-5.168-5.802 1.107-0.633-1.142-3.356 0.029-3.356 0.746 0.947 1.814 3.67 3.234 4.895-1.066-1.776-2.207-3.711-3.114-5.524-1.030-2.131-1.977-4.066-2.723-5.564-0.829-0.871-1.657-1.698-1.894-2.131-0.029 0.867-0.988 1.341-4.185-0.791-8.009-5.838-1.818-3.234-6.078-7.181-2.446-0.751-7.021-5.208-8.246-3.829-2.368-1.776-2.289-2.758-2.84-3.826-1.579-0.829-4.262-2.647-7.025-4.581-1.381-0.947-2.76-1.931-4.025-2.758-1.498-0.988-2.84-1.894-3.867-2.527-3.078-0.668-3.747-0.474-1.853 0.751l1.221 0.474 0.257 0.207-0.257-0.147-0.71-0.147c-8.009-1.539-14.994-3.707-22.494-6.276-3.707-1.26-7.377-2.564-11.010-3.788l-5.482-1.852c-1.621-0.474-3.238-0.988-4.817-1.462-1.184-1.101-2.368-2.166-3.552-3.234l0.436-0.474c-7.617-6.434-16.183-15.154-22.221-19.179-2.091-2.093-4.221-5.684-2.8-5.29-2.446-2.131-4.103-3.552-5.684-4.89-4.459-0.178-7.063-0.37-13.97-1.698 7.735-0.332-2.564-1.226 7.892 0-9.785-1.498-11.957-2.681-22.691-2.055 3.747-1.222-7.263-2.723-11.957-2.681l6.789 1.818c-4.699-0.207-9.394-0.829-13.023-1.264l-0.87-0.267c0.516-0.178 0.789-0.516 1.024-0.791 0.222-0.296 0.474-0.668 1.028-0.985-0.515-0.118-0.71-0.147-0.791-0.207-0.034-0.060-0.669-0.267-1.261-0.474l-1.735-0.554c-1.148-0.37-2.289-0.668-3.396-0.985-2.287-0.592-4.499-1.107-6.707-1.501-4.379-0.867-8.683-1.421-12.787-2.013-8.246-1.301-16.061-2.207-22.572-6.707-5.487-0.178 10.182 4.303 5.168 4.539-8.838-3.078-17.244-8.879-19.968-9.749-5.527-2.327-8.488-2.564-11.447-2.723-1.457-0.060-2.92-0.118-4.654-0.37-0.829-0.118-1.817-0.335-2.84-0.551-1.148-0.238-1.857-0.438-3.988-1.148-0.748-0.060-1.813-0.178-2.96-0.296 1.698 0.906 3.16 2.96-6.867 2.96-9.313-0.947-11.247-3.948-5.287-4.103 2.208 0.060 3.274 0.433 3.197 0.668 2.96-0.029 6.985-0.060 3.315-1.142l-1.225 0.631c-4.576-1.101-17.362-1.931-14.326-2.96-7.063 0.207-3.038 1.026 2.131 1.776-4.576-0.71-8.406-1.105-12.036-1.38-4.025-0.296-7.814-0.551-12.117-0.829-1.421 0.296-2.92 0.633-4.499 0.988-1.261 0.267-2.564 0.513-3.985 0.749 2.013-0.029 3.948 0.397 2.091 0.871-17.758 3.315-7.418 3.197-19.216 6.434-7.025 0.551 1.735-3.238-9.986 0.627-7.501 1.030-2.013-1.539 0.75-2.84-3.433 1.344-7.381 2.332-10.063 2.84-6.038 0.557-12.313 0.397-16.379 0.829l5.76-1.459c-3.433 0.829-6.312 1.26-9.234 1.734l3.552 0.947c-3.433 0.267-6.352 0.71-6.393 0.089-3.392 1.501 3.078 2.055-3.747 4.421-4.696-0.060-13.812 2.883-15.706 1.142 14.481-1.498-1.894-1.734 10.259-3.867-2.328 0.592-5.209 1.024-8.642 1.26-0.592-0.118 0.395-0.474 1.343-0.746-1.657 0.060-2.922 0.147-3.948 0.178 0.113-0.029-0.433-0.029-0.87 0-0.392 0-0.748 0.029-1.103 0.060-0.674 0.060-1.225 0.178-1.698 0.335-0.907 0.267-1.539 0.631-2.289 0.985-1.499 0.791-3.589 1.622-9.865 1.818 1.776-1.184-3.474-1.935-5.801-1.657 5.838-0.178 2.879 1.776-2.449 2.799-9.272-0.474-10.023 1.030-14.836 1.107l5.524 0.178c-0.87 0.592-2.328 0.871-4.303 1.107-2.131 0.178-3.985 0.296-8.287 0.633-0.392 0.267-0.865 0.631-1.34 0.906-0.333-0.118 0.222-0.633 1.103-1.301-0.907 0.668-1.894 1.301-2.879 1.935-0.791 0.513-1.579 0.867-2.409 1.301-1.657 0.829-3.474 1.657-5.287 2.486-3.711 1.657-7.577 3.511-11.091 6.393-4.262 1.776-1.457-1.539-5.168 0.147-3.356 2.765-5.801 4.105-8.009 5.209-1.935 0.871-3.593 1.698-5.961 2.765l-0.26 0.029c-0.433 0.147-0.947 0.335-1.457 0.433-1.066 0.37-2.212 0.751-3.514 1.26 3.67 0.516 4.145 0-3.433 3.67l5.209-1.776 2.606-0.906 1.301-0.433 0.516-0.207c0.109-0.178 1.617-1.184 2.723-1.935l3.392-2.41-3.156 2.803c-1.024 0.947-2.328 2.052-2.564 2.486-0.333 0.335-1.817 1.024-3.078 1.574 1.301-0.332 2.84-0.829 3.315-1.024 1.695-1.226 3.351-2.445 4.854-3.512 1.617-1.184 3.114-2.249 4.339-2.84-4.379 4.145-4.103 3.512-1.066 3.114-1.539 0.397-2.96 1.066-4.303 1.776-1.261 0.71-2.84 1.776-3.433 2.29-1.024 0.397-2.050 0.788-3.114 1.226-1.184 0.433-2.368 0.906-3.593 1.38-2.526 0.871-5.132 1.657-8.009 1.935l-0.71-3.634c-5.132 0.791-9.672 2.172-14.248 3.829-2.249 0.871-4.576 1.698-6.945 2.564-2.526 0.947-4.262 1.622-9.040 3.118-1.616 1.818-3.356 3.669-5.132 5.642-1.421 1.539-2.96 3.118-4.617 4.737l4.462-3.826c-0.632 2.761-7.541 8.246-11.091 12.904-0.552-1.226-3.351 1.105-5.642 2.368 0.907 0.392-9.234 9.627-8.366 12.35l-0.91 0.434c-0.789-0.118-3.433 0.631-5.446 1.024-13.534 5.446-13.692 10.063-26.639 15.432 3.315-2.96-2.879-1.107 5.328-5.842-4.299 1.894-8.246 3.434-7.932 4.262-0.669 0.029-1.695 0.516-2.84 1.142-1.539 0.829-3.315 1.818-5.246 2.883-1.148 1.935-2.331 3.947-3.433 5.76-0.91 1.462-1.817 2.688-2.723 3.433-0.632 1.977 0.034 3.238-2.96 7.5-0.556 0.296-0.516-0.397-0.516-0.397 0.516 0.397-3.948 7.263-0.26 4.262-5.684 4.777-11.166 13.181-16.77 21.233-5.801 7.933-11.406 15.706-16.497 19.731-2.92 4.185-6.115 8.842-9.076 13.063-3.788 4.303-7.223 8.169-10.223 11.562 0.147-0.71-0.433-0.433 0.829-1.657-9.471 8.642-2.682 8.21-13.455 18.036-6.511 4.103 4.421-6.434 0.75-3.552-1.225-0.335-2.606 0.516-4.145 2.013-0.791 0.71-1.621 1.657-2.526 2.681-1.066 1.344-2.289 2.765-3.552 4.262-1.024 4.303-1.343 6.078-2.131 8.762-0.71 2.486-1.539 4.854-2.723 6.867l0.433-2.368c-3.351 6.829-3.512 17.995-7.141 29.679 0 0-0.185-0.71-0.556-0.238-0.034 0.749-0.075 1.421-0.034 1.852 0 0.397-0.474 1.698-0.91 2.799-0.433 1.146-0.907 2.368-1.421 3.634-1.024 2.486-2.208 5.168-3.471 7.892-2.526 5.486-5.29 11.088-7.735 15.943 0.395-3.943 1.853-5.050-0.632-3.867-2.328 4.696 3.042-0.118-1.657 9.313-0.983 1.066-2.168 2.486-3.867 4.737-0.222 0.871-0.474 1.776-0.71 2.647-0.185 0.668-0.395 1.344-0.669 1.894-0.474 1.184-0.947 2.013-1.503 2.249l0.592-7.5 2.131-3.867c-0.789 0.474-1.932 1.935-2.997 3.593-0.147 0.906-0.26 1.852-0.396 2.799l-0.109 2.090c-0.075 1.267-0.075 2.569-0.034 3.829 0 2.564 0.034 5.050-0.26 7.143l-0.947-0.751c-0.987 14.8 1.301 15.865-0.075 30.901-0.034 0.060-0.034 0.207-0.109 0.397l0.395-0.37c0.147-0.207 0.37-0.397 0.516-0.71 0.075 0.335 0.185 0.631 0.222 0.829-0.147 7.614-3.278 6.116-3.829 14.718l-3.038 1.935c-0.87 5.091-2.486 16.576-4.421 26.324-0.147 1.852-0.296 3.392-0.474 4.89-0.185-1.421-0.37-2.799-0.333-5.050 0.592-6.748 2.131-15.313 2.84-21.388-1.343 5.010-4.065 15.627-4.581 21.033-0.075 1.184 0.034 1.498 0.109 1.935 0.034-0.592 0.034-1.226 0.075-1.894 0.392-2.527 0.552-4.303 1.381-6.12-0.034 1.977-0.034 3.751-0.37 6.316 0.075 6.671-0.474 13.774-1.817 22.417-1.381-0.871-2.486 1.814-3.433 6.116-0.511 2.131-0.983 4.696-1.421 7.418-0.552 3.042-1.066 6.238-1.575 9.353 0.333 1.935 0.592 3.829 0.907 5.684 0.222 1.58 0.396 3.042 0.552 4.421 0.222 2.799 0.26 5.25-0.109 6.867 1.343 4.617 2.408 9.313 3.356 14.011 0.474 2.406 0.947 4.737 1.343 7.141l0.669 3.634c0.147 1.024 0.474 2.878 0.474 2.96-0.37 5.406-0.669 10.928-1.024 16.612-0.26 5.919-0.516 12.076-0.592 18.432 3.907-8.406-0.038 7.021 3.826 5.602 0 1.894 0.034 3.433 0.034 4.581 0.516 1.811 0.632 2.606 0.789 3.274 0.109 0.592 0.147 0.988 0.109 1.184l-0.147-1.184c0.075 0.516 0.075 0.788 0.109 1.226h0.034l1.894 16.967c-0.075 4.185-2.131-4.972-2.8-4.262 2.682 11.921-0.37 5.41 0.632 13.497 0.947-1.972 2.92 3.634 4.145 10.499l-0.674-9.945c1.301 3.433 2.054 6.075 2.526 8.326 0.222 1.107 0.395 2.093 0.516 3 0.147 1.107 0.075 1.38 0.296 3.038 0.257 1.026 0.37 1.539 0.433 2.093l0.257 1.574c0.186 1.146 0.433 2.29 0.789 3.552 0.71 2.565 1.894 5.684 4.262 10.063l-3.114-4.617c3.907 7.932 11.876 30.39 17.995 37.294 0.185 1.622-0.034 3.907-1.739 0.434 2.055 5.523 4.581 11.324 7.223 17.084 2.804 6.002 5.604 12.076 8.287 17.918 1.621 2.090 3.197 4.221 4.777 6.276 1.381 1.894 2.723 3.711 3.985 5.446 2.606 3.63 4.777 7.026 6.511 10.223l-1.695-0.791c2.486 3.078 5.406 4.617 7.459 9.198-0.474 0.029-1.698-0.793-0.674 0.749 0.474 0.516 1.343 1.462 2.449 2.647 0.552 0.633 1.184 1.26 1.776 2.013l0.947 1.107 1.539 1.972c1.184 0.871 2.446 1.698 3.589 2.606 0.87 0.633 1.698 1.344 2.408 1.972l-4.185-1.852c15.391 13.574 26.757 16.89 40.412 27.425-1.817 2.093 9.667 13.459 15.391 19.102l-0.515 0.118c8.368 7.536 15.905 13.656 23.286 19.654 3.788 2.919 7.459 5.842 11.206 8.802 1.894 1.498 3.829 2.997 5.724 4.499 0.983 0.788 1.972 1.577 2.92 2.368 1.107 0.906 2.249 1.811 3.356 2.758 0.983 0.554 2.091 1.226 3.234 1.894 6.078 6.196 20.049 15.313 32.993 23.956 6.945 5.684 14.917 12.272 20.874 17.878-2.368-2.527 1.739-1.344 5.012 0.947 1.657 1.616 4.262 3.274 6.47 4.777 1.148 0.746 2.131 1.421 2.84 2.048 0.592 0.438 1.698 1.539 1.739 1.977 0.147 0.267 0.109 0.509-0.186 0.668l-0.147-0.060-1.935-1.622c0.034 0.434 0.75 1.301 1.539 2.211 2.131 1.459 2.8 2.052 4.303 2.96 1.421 0.906 3.038 1.734 4.737 2.564 3.433 1.616 7.141 3.434 10.456 5.013l2.687-2.41c2.723 2.090 5.838 4.145 9.234 6.038 1.695 0.947 3.433 1.894 5.246 2.799 2.289 1.107 4.539 2.214 6.789 3.315l8.366 0.335c2.368 0.029 4.657 0.029 6.908 0.118 4.539 0 8.998 0.060 13.064 0.118 4.103 0.118 7.851 0.267 11.13 0.668 1.657 0.178 3.156 0.397 4.499 0.668 1.301 0.335 2.76 0.675 2.606 1.030-0.075-0.207 1.813 0.178 3.114 0.474 1.383 0.335 2.804 0.668 4.225 1.024 2.84 0.668 5.684 1.38 8.287 1.776l-0.829 1.58c5.091 1.811 9.272 3.274 13.496 4.737 2.131 0.71 4.262 1.457 6.549 2.166 2.526 0.829 5.173 1.657 8.169 2.606 2.526 0.267 6.748 0.71 11.684 1.226l-3.788 0.829c10.099 1.38 13.378-3.511 22.732-2.445l2.486 2.96 6.549 0.906 7.932 1.184 11.17-2.327 9.867-2.211c6.549-1.539 12.983-3.351 19.179-5.838-0.147 0.474-0.474 1.301-3.278 2.131 8.328-1.423 31.652-7.739 27.744-10.107 0.433 1.024 4.185-0.029 8.998-1.818 2.446-0.947 5.091-2.052 7.735-3.156 1.301-0.592 2.606-1.142 3.867-1.698 0.632-0.267 1.261-0.551 1.853-0.788l0.91-0.397 0.392-0.267c0.185-0.089 1.265-0.37 1.894-0.516l-1.221 1.935c7.733-3.316 7.892-3.948 19.021-6.12 2.682-0.118 2.526 1.066-1.107 1.107 8.998-0.332 6.712-2.606 17.564-3.156l-3.829 1.657c9.080-1.107 8.287-1.619 13.105-3.593 5.642-1.498 17.362-1.972 18.901-0.592 1.107-1.142 5.878-3.118 11.288-3.433 0.829 0.516-1.066 1.142-2.013 1.462 3.274-0.207 6.194-0.557 8.838-0.988 1.343-0.207 2.564-0.474 3.788-0.71 1.617-0.296 3.156-0.592 4.657-0.906 2.606-2.41 4.931-4.617 7.223-6.789 2.090-1.852 4.262-3.552 6.903-5.051 0.556 0.267 1.265 0.060 2.055-0.37-6.908 5.643-12.946 10.537-15.823 12.904-1.857 0.178-2.96 0.37-3.278 0.37 0.147 0.509 1.776 0.668 3.751 0.746 3.078-1.616 7.774-4.696 1.184 2.647-0.034 0.029-0.147 0.060-0.257 0.118 0.075-0.029 0.147-0.029 0.257-0.060 1.261-1.267 2.682-2.647 4.145-4.106 0.748-0.906 1.575-1.811 2.404-2.761 1.739-1.894 3.593-3.907 5.446-6.002 3.829-4.105 7.972-8.132 11.88-10.856 0.433-0.178 0.87-0.37 1.301-0.397l-0.632 0.791c1.817-1.301 3.238-2.685 4.499-4.065 2.486-1.734 4.225-2.919 6.356-4.657 0.186 0.118 0.37 0.147 0.552 0.147 0.147 0.029 0.222 0.060 0.433 0.029 0.474-0.178 1.028-0.397 1.621-0.633 1.103-0.474 2.368-1.066 3.67-1.698 2.564-1.219 5.287-2.564 7.181-3.47-1.107-1.421 4.777-3.907-1.261-2.647 0.748-0.178-0.75 0.592-3.711 2.055-0.592 0.37-1.421 0.788-1.776 1.066 0.075-0.060 0.147-0.147 0.186-0.296l-7.537 3.67-1.894 1.58c0.669-0.829 1.343-1.698 1.539-2.131 0.296-0.397 2.208-1.501 3.593-2.172 1.499-0.751 3.156-1.421 5.128-1.972 1.817-2.096 3.829-4.303 5.012-5.487 7.103-0.633 19.416-4.972 21.705-4.379 0.947-0.516 1.932-1.066 2.96-1.616 1.143-0.633 2.328-1.226 3.552-1.894 2.92-2.131 5.957-4.421 8.998-6.63 2.8-2.211 5.642-4.343 8.326-6.434 5.328-4.185 9.826-8.21 12.395-11.642 3.433-2.84 4.299-1.776 6.511-2.64-2.451 2.048-4.462 3.351-5.446 4.617 0.864-0.71 1.852-1.462 2.96-2.332 1.301-0.985 2.758-2.052 4.221-3.156 1.226-2.055 2.486-4.221 3.747-6.276 0.988-1.818 2.013-3.552 2.883-5.132 1.698-3.197 2.765-5.76 2.445-6.867 6.671-8.484-1.459 6.237 6.196-6.393l-0.474 2.055c4.696-5.604 8.287-11.088 11.406-16.534 3.274-5.369 6.075-10.655 8.998-16.065 5.878-10.732 11.758-22.020 23.401-33.423-1.498 1.616-2.327 2.445-2.883 2.564 7.067-8.484 13.97-17.682 20.522-26.598 4.895-5.961 9.867-11.88 14.8-17.841l7.5-8.917 8.169-9.471 1.539-8.802 1.498-7.814c1.066-5.168 2.207-10.301 3.512-15.313 0.908-4.063 1.264-6.748 1.344-8.838 0.029-1.066 0.029-2.055-0.029-2.96l-0.060-1.38c-0.060-0.332-0.118-0.633-0.178-0.988 0.029-0.296 0.029-0.633 0.060-0.988 0.147-0.509 0.267-1.066 0.433-1.616l2.685-1.184 2.723-10.655c1.814-5.012 4.262-9.157 6.903-13.261 1.344-2.013 2.723-4.025 4.106-6.156 0.71-1.024 1.38-2.090 2.131-3.197l0.983-1.657 1.385-2.486c0.178-1.462 0.433-2.84 0.627-4.339 0.147-1.226 0.335-2.486 0.397-3.788 0.178-2.606 0.267-5.369 0.147-8.328l-1.58 2.368c1.024-6.867 1.734-21.943 3.078-20.642-0.147-0.71-1.066-2.406-0.118-5.010l0.988-0.118 0.147-6.829-2.206-10.732c-0.751-13.22 4.104 1.657 2.207-17.522z"></path>
    <path fill="#000000" d="M580 572.693c-1.817 2.055-3.474 3.356-4.813 5.684-1.343 2.249-2.054 5.012-3.593 7.143-4.972 6.945-10.459 13.733-12.354 22.139-2.050 8.879-8.009 16.298-11.484 24.703-2.249 5.523-5.564 8.286-9.471 12.589-4.418 4.931-7.577 10.497-12.787 14.718-2.131 1.776-3.197 2.688-4.931 4.935-3.197 4.063-5.132 6.235-9.549 2.564-5.369-4.499-10.063-10.537-14.72-15.787-6.552-7.377-14.048-13.853-20.678-21.27-6.949-7.855-14.68-15.077-22.062-22.535-7.459-7.496-14.602-15.391-22.454-22.494-4.262-3.826-8.724-7.299-12.946-10.928-1.579 4.262-3.118 8.524-4.737 12.823-3.392 8.842-6.589 16.183-8.092 25.613-0.592 3.711-0.983 7.34-1.261 10.933 2.92 1.301 5.724 2.761 8.128 3.788 3.907 1.616 8.013 3.867 12.038 5.010 1.735 0.516 3.274 0.118 4.617 1.539-4.737 1.107-10.696 4.657-14.88 7.184-3.351 2.013-6.707 4.181-9.982 6.393 0.592 3.707 1.776 7.259 4.103 10.574 3.67 5.29 8.564 10.027 12.863 14.762 4.699 5.091 9.631 9.945 14.289 15.073 2.92 3.278 5.168 6.63 8.366 9.632 3.907 3.67 7.025 6.945 10.377 11.206 6.12 7.776 14.406 14.169 21.351 21.113 3.552 3.512 9.549 7.143 13.93 9.313 4.539 2.29 9.116 1.894 13.853 2.565 3.514 0.474 6.908 1.222 10.341 1.852 4.931-10.459 5.842-23.127 12.117-33.227 1.657 0.627 4.379 2.564 5.642 3.867 1.539 1.616 2.172 5.091 2.96 7.062 1.698 3.871 3.867 7.541 5.487 11.406 1.143 2.681 1.695 5.684 2.564 8.484 0.113 0.332 0.516 1.066 0.947 1.894 0.37-0.060 0.75-0.060 1.184-0.118 3.156-0.474 5.132 0.118 8.246-1.459 1.739-0.912 3.16-2.211 5.053-2.883 3.274-1.226 5.010-0.788 8.246-3 1.579-1.066 3.274-2.327 4.737-3.63 9.631-8.601 19.812-20.086 26.56-31.059 4.221-6.867 6.47-14.8 9.865-22.176 3.118-6.748 6.434-13.459 9.394-20.327 2.882-6.667 6.908-13.455 8.447-20.56 0.511-2.41 0.865-4.777 1.143-7.143-7.263 0.988-14.68 1.818-21.507 0.029-0.222-2.919 4.813-7.501 6.707-9.826 4.185-5.25 8.72-11.206 15.231-12.827 0.113-0.029 0.333-0.060 0.515-0.118 0.113-3.747 0.147-7.418-0.474-10.892-1.107-5.878-3.315-11.839-4.737-17.64-1.499-6.038-4.895-11.206-7.537-16.849-3-6.434-5.604-13.141-9.234-19.261-0.333-0.509-0.71-1.024-0.988-1.539-3.315 4.38-6.63 8.762-9.905 13.105-4.539 5.998-9.198 12.231-14.128 17.837z"></path>
    <path fill="#000000" d="M450.161 569.739c3.038 3.037 6.549 5.878 9.035 9.353 2.095 2.96 3.238 5.564 6.078 7.933 7.855 6.552 15.391 13.97 23.875 19.73 4.499 3.042 9.907 5.564 12.946 10.027 2.882 4.262 3.593 4.025 8.802 4.025 3.351 0.029 7.34-0.633 10.456-1.657 5.919-1.894 6.908-8.879 9.826-13.496 2.013-3.238 5.012-5.604 7.695-8.287 2.013-1.935 3.907-3.988 5.564-6.238 2.527-3.471 4.106-7.259 5.527-11.247 4.418-12.194 10.301-24.781 18.942-34.57 3.078-3.63 6.867-5.919 9.826-9.785 2.564-3.392 4.931-6.868 7.418-10.259-1.381-0.557-2.92-1.107-4.737-1.935-5.369-2.445-9.040-4.459-15.272-4.813-6.434-0.397-12.745-1.622-19.257-1.539-6.474 0.060-11.364-0.71-17.564-2.447-0.038 0.060-0.075 0.178-0.113 0.296-1.657 3.67-2.84 6.985-3.788 10.892-0.296 1.226-0.947 5.604-2.131 6.316-3.197 2.090-5.051-3.988-6.235-6.316-3.238-6.235-6.867-11.998-10.027-18.074-7.377-1.385-14.444-1.58-22.020-1.58-11.247 0-28.492 10.852-30.309 12.745-5.72 5.842-10.377 12.194-15.469 18.469-3.392 4.145-6.748 8.488-9.785 13.023 0.789 1.026 1.616 2.093 2.564 3.042 5.76 5.684 12.354 10.615 18.155 16.416z"></path>
    </svg>