<svg xmlns="http://www.w3.org/2000/svg" viewBox="85.869 71.998 861.665 880.261">
    <path fill="#000000" d="M937.651 413.173c0.146 0.431 0.146 0.667 0.177 0.863l-2.003-3.336c0.589 0.784 1.136 1.57 1.807 2.475zM737.505 895.294c0.789-0.548 1.69-1.178 2.711-1.886 0.67-0.514 1.414-1.061 2.239-1.65 0.038-0.117 0.146-0.333 0.186-0.394-0.075 0.433-0.186 0.908-0.589 1.414-0.906 0.749-1.455 1.14-2.239 1.612-0.983 0.627-1.69 0.982-2.163 1.217-0.667 0.060-1.061 0.060-1.297 0 0.255-0.060 0.63-0.146 1.137-0.333zM669.605 821.494c-2.552 3.772-7.072 9.783-12.258 7.819-3.101-1.14-7.461-4.206-9.936-6.169-5.62-4.518-10.725-12.18-14.733-17.914-8.604-12.258-15.322-25.027-27.108-34.61-2.947-2.358-8.486-11.119-9.156-12.139-5.186-7.389-10.017-15.127-15.359-22.433-9.628-13.24-19.723-26.205-29.428-39.405-15.87-21.646-32.96-42.193-44.587-66.55-11.749-24.592-22.864-49.618-36.105-73.466-11.392-20.508-28.482-35.947-40.779-55.667-4.792-7.742-7.737-13.477-6.912-22.392-2.792 8.367-2.633-0.905-4.324-3.694-1.727-2.947-4.32-4.714-5.499-8.055-2.044-5.617-1.020-15.752 1.061-21.41 4.437-11.944 20.783-14.419 31.822-13.358 9.94 0.983 20.82 5.58 29.505 10.334 3.455 1.961 8.133 3.336 10.961 6.247 1.805 1.844 2.358 3.889 3.612 6.011 1.338 2.276 3.064 4.161 4.597 6.284 3.105 4.478 5.108 9.547 8.092 14.065 2.003 3.064 4.324 5.852 6.405 8.839 5.775 8.408 10.294 17.013 14.81 26.088 6.011 12.059 14.733 22.784 19.645 35.317 4.044 10.372 6.717 21.255 11.157 31.468 4.401 10.136 9.624 20.349 14.773 30.213 11.392 21.762 22.784 43.292 32.96 65.648 8.839 19.367 17.562 41.368 32.058 57.317 5.933 6.483 9.823 12.888 13.632 20.783 3.772 7.938 8.644 14.85 10.961 23.377 2.239 7.974 4.638 15.322 8.604 22.629 1.849 3.336 5.384 7.502 6.169 11.351 0.983 5.031-1.962 9.588-4.638 13.476zM406.389 319.533c-4.089-4.242-7.308-8.367-10.608-13.123-2.044-2.906-4.478-8.169-7.465-9.819-1.962 4.673-1.69 10.212-3.3 15.045-1.61 4.95-4.32 9.507-5.539 14.538-2.475 10.172-3.458 20.508-5.775 30.72-2.906 12.416-3.536 23.849-3.536 36.418 0 4.638 0.748 9.588 0.075 14.183-0.391 3.023-1.886 5.422-2.122 8.522-0.825 9.823-1.061 18.427 4.714 27.19 4.638 7.109 6.445 15.204 5.067 23.255-1.178 6.917-2.711 13.2-1.61 20.272 0.865 5.463 2.552 10.842 3.495 16.305 0.825 4.597 1.061 9.507 3.734 13.713 3.101 4.833 8.445 8.169 12.611 12.294 4.634 4.559-10.294 6.523-17.679-0.431-7.156-6.795-14.305-13.277-23.538-18.227-7.461-4.008-11.157-11.314-15.122-17.759-4.165-6.836-3.223-16.419-4.678-24.002-0.942-1.297-1.922-2.551-2.711-3.889-1.65-2.669-2.358-5.658-4.437-8.173-2.239-2.711-5.262-4.634-7.385-7.58-2.792-3.97-3.653-8.214-5.186-12.533-1.767-5.027-4.638-9.035-7.583-13.632-5.735-8.92-7.267-19.292-9.469-29.112-2.082-9.392-4.28-20.508-1.451-29.937 0.942-3.105 3.024-5.267 4.674-8.014 4.437-7.465 3.064-18.584 1.65-26.205-2.398-12.847-2.044-25.693 1.845-38.382 1.967-6.405 3.772-12.928 5.856-19.329 0.744-2.201 1.805-7.701 5.539-7.859 0.667 6.564 4.516 12.375 6.087 19.133 2.122 9.429 1.061 18.462 5.933 27.108 2.199 3.967 3.926 8.133 5.499 12.335 1.257-3.572 2.435-7.189 2.988-10.608 1.451-8.25 1.178-16.972 1.686-25.299 0.472-7.072-0.508-15.635 2.398-22.316 1.414-3.3 2.592-7.461 4.873-10.331 3.536-4.438 5.852-7.583 7.149-13.2 2.828-12.139 7.897-23.494 10.095-35.712 1.142-6.288 1.338-14.538 6.799-19.447 0.825-0.784 3.101-2.828 4.32-2.906 3.694-0.296 2.358 2.669 2.788 4.869 0.825 3.93 3.536 7.661 4.873 11.473 4.125 11.745-2.633 23.337 4.95 34.846 10.685 16.029 39.405-23.844 41.368-27.225 2.475-4.161 3.223-8.604 5.027-12.964 2.792-6.717 6.169-13.317 8.998-20.037 4.085-9.664 5.775-19.917 10.177-29.542 2.198-4.91 6.755-10.017 10.372-14.302 2.63-3.142 5.811-5.576 6.483 0.177 0.549 5.263-1.259 10.842-1.102 16.184 0.368 9.547 1.962 20.154 4.242 29.583 1.219 4.95 4.085 9.664 5.97 14.459 2.792 7.149 4.206 14.574 7.113 21.687 9.823 23.808 13.436 50.915 31.508 72.012 4.044 4.714 8.917 7.974 14.262 11.469 7.032 4.678 10.567 10.217 14.22 16.854 4.361 8.095 5.382 18.308 13.477 24.674 2.67 2.122 5.811 3.653 8.25 5.97 10.136 9.429 17.009 24.008 19.76 36.183 1.297 5.698 0.983 11.55 2.552 17.248 6.523 23.494 2.909 47.574 1.297 71.464-0.785 10.961-3.536 21.763-8.445 31.587-1.767 3.495-4.714 8.367-7.661 11.234-0.221 0.266-8.958-11.745-9.664-12.806-2.67-4.048-5.262-9.507-6.56-14.025-2.043-7.465-5.384-14.183-8.803-21.292-4.242-8.763-7.779-17.562-10.842-26.599-2.907-8.604-4.634-17.874-8.486-26.201-3.336-7.153-8.25-13.989-12.176-20.942-6.364-11.197-8.803-23.1-14.497-34.451-4.478-9.039-10.608-17.365-18.663-24.555-10.136-9.035-12.769-18.544-16.069-31.038-3.26-12.375-4.751-26.242-10.802-37.951-3.849 1.297-4.202 8.367-5.262 11.355-3.264 8.917-6.717 17.442-9.233 26.518-2.044 7.465-3.967 14.89-5.658 22.433-0.708 3.142-2.122 6.442-2.592 9.584-0.221 1.616 0.296 3.734-0.942 5.031-4.048-0.117-6.087-2.79-9.233-4.518-2.63-1.414-4.95-2.044-7.816-3.064-5.739-2.003-7.308-4.674-11.079-8.604zM944.056 512.211c-0.060 2.869-0.589 7.308-1.612 7.542l-0.51-6.483c-0.177-0.060-0.368-0.146-0.551-0.266v-1.019l-4.478-44.197 3.772-32.253 0.394 0.784-0.206-2.317 1.178-9.864c0.296 0.333 0.514 1.26 0.431 3.264 0.866-2.711 1.061-4.795 1.061-6.092-1.335-1.803-2.434-2.749-3.536-6.284-0.146-0.749 0.117-0.514 0.514 0l-4.283-5.699c1.178 0.901 0.983-1.961 2.908 1.961-5.186-11.627-12.103-16.577-12.888-21.645l0.708 0.825c-7.348-11.002-5.067-5.735-7.23-6.913l-1.217-2.044-0.942-5.58 2.122-6.519-2.122-1.38c-0.266-1.803-0.749-5.341 0.117-4.869-2.441-6.405-0.631 1.297-2.516-2.358 0.177-7.819-3.536-19.564-2.906-24.674-0.146-0.825-0.146-1.414 0.029-1.927-1.332-1.061-0.743 0.631-0.236 1.968 0 1.492 0.029 2.434-0.626 0.206-0.368-0.433-0.825-1.14-1.493-2.085 1.612-3.889-5.658-9.152-8.169-16.892 2.669 1.335 5.499 8.405 2.983 0.667-4.792-2.828-6.872-13.948-10.608-19.605-1.961 0.749-8.21-12.139-14.614-21.528 0.749 0.117-5.222-10.765-10.526-20.665-1.965-2.786-3.853-5.341-5.304-7.344h0.472c-3.064-0.146-9.547-8.839-14.89-14.655 1.256-0.589 2.592 0.146 5.775 3.064l-4.714-5.735c-1.691-0.905-3.417-2.437-6.64-5.974l2.475 0.333c-1.684-1.968-3.101-3.536-5.186-5.815-6.206-5.262-12.217-9.9-18.542-17.208-1.102 0.472 1.178 4.95-0.435 5.186l-4.95-4.755c0.551-0.206 1.414-0.060 2.828 1.061-0.859-0.745-3.417-2.358-4.833-4.242l4.873 2.674c-3.732-4.478-3.064-1.219-6.247-4.519 0.901-0.825-1.844-2.988-0.708-3.223 0.901 0.708 2.551 3.145 4.125 4.048-1.767-1.927-3.653-4.085-5.227-6.051-1.609-2.003-2.551-3.495-3.653-5.222 0.029 0.392-0.117 0.627-0.589 0.627-0.626 0.146-2.239-0.206-4.28-1.215-8.722-4.519-2.239-2.908-6.994-6.129-2.515-0.394-7.62-4.089-8.682-2.555-2.515-1.373-2.556-2.393-3.3-3.336-4.873-1.691-21.059-11.002-16.972-6.6l1.061 0.708c-0.186-0.117-0.472-0.206-0.748-0.333-13.477-6.207-26.007-16.617-38.499-24.279-1.495-1.061-2.947-2.16-4.401-3.26l0.431-0.431c-8.25-5.539-17.679-13.281-24.043-16.583-2.317-1.803-4.792-5.145-3.336-4.986-1.767-1.178-3.183-2.122-4.401-2.908-4.048-1.688-6.087-2.551-12.964-6.872 7.308 2.509-1.926-2.003 7.348 2.828-8.567-4.873-10.136-6.799-20.313-10.017 3.93 0.206-5.735-5.149-10.095-6.799l5.658 4.125c-1.849-0.825-3.576-1.65-5.186-2.513-1.967-0.983-3.889-1.968-5.775-2.947-1.495 0-2.988 0.060-4.519 0.060 0.589-0.708 2.122-1.414 3.536-2.198-1.492-0.060-2.947-0.117-4.401-0.146-1.097 0-2.158-0.029-3.219-0.029-2.122 0-4.165 0.117-6.247 0.266-4.048 0.33-7.938 0.825-11.708 1.414s-7.425 1.102-10.961 1.492c-1.767 0.177-3.536 0.33-5.304 0.394h-2.592l-1.297-0.029c-0.296 0-0.432-0.029-0.667-0.060-0.255-0.177-1.178-0.514-2.163-0.866-0.865-0.33-1.727-0.708-2.633-1.178-1.845 0.177-1.216 0.589 0.221 1.061 0.748 0.206 1.65 0.514 2.556 0.787 0.431 0.146 0.902 0.33 1.297 0.431 0.255 0.029 0.472 0.146 0.667 0.296 0.708 0.177 1.374 0.51 0.259 1.099h-0.368l-2.909-0.825c-1.061-0.368-2.158-0.667-3.219-1.019-2.122-0.708-4.125-1.492-5.892-2.239-3.653-1.414-6.523-2.711-7.938-2.947-11.51-3.26-11.862 0.333-23.060-1.927-0.708-0.060-1.614-0.177-2.556-0.266 1.65 0.859 3.105 2.947-6.872 2.947-9.233-0.942-11.119-3.93-5.227-4.125 2.199 0.117 3.26 0.431 3.105 0.667 3.024-0.029 6.954-0.060 3.377-1.178l-1.258 0.667c-4.519-1.061-17.289-1.886-14.183-2.906-7.032 0.206-3.105 1.019 2.081 1.767-4.478-0.749-8.25-1.061-11.822-1.339-3.417-0.206-6.717-0.472-10.453-0.743-1.061-0.206-2.122-0.514-3.26-0.787-1.297-0.368-2.633-0.745-4.048-1.136 1.808 0.825 3.381 2.081 1.455 1.609-17.325-4.833-8.014-0.33-19.958-2.711-6.483-2.628 3.028-2.081-9.111-3.848-7.153-2.399-1.101-2.281 1.923-2.198-2.158-0.177-4.161-0.555-6.129-0.908-0.98-0.206-1.962-0.472-2.866-0.667-1.455-0.394-2.868-0.749-4.242-1.102-1.259 0.177-2.515 0.394-3.734 0.589-0.744 0.060-1.451 0.146-2.158 0.206-1.414 0.117-2.792 0.236-4.048 0.333-2.592 0.206-4.873 0.392-6.836 0.708l5.658-1.73c-3.377 1.023-6.207 1.612-9.075 2.164l3.576 0.825c-3.417 0.394-6.288 0.983-6.328 0.368-3.336 1.65 3.105 1.886-3.536 4.556-4.634 0.177-13.554 3.577-15.517 2.003 14.302-2.239-1.926-1.65 9.977-4.361-2.239 0.668-5.067 1.219-8.522 1.691-0.553-0.117 0.391-0.514 1.297-0.825-1.849 0.146-3.264 0.333-4.442 0.472-0.589 0.117-1.137 0.206-1.569 0.33-0.865 0.146-1.573 0.368-2.239 0.514-0.825 0.472-1.65 0.901-2.043 1.219-0.296 0.266-0.589 0.507-0.825 0.784-0.432 0.472-0.865 0.983-1.374 1.609-1.142 1.178-3.028 2.633-7.819 4.833 1.178-1.767-3.889-0.507-5.933 0.749 5.267-2.475 3.3 0.472-1.137 3.495-8.682 3.105-8.763 4.833-13.16 6.758l5.145-1.927c-1.257 1.767-5.463 3.576-11.119 6.64-0.861-0.589 4.99-3.023 2.792-2.434-1.218 1.099-3.145 2.122-4.361 2.628-5.344 1.456-13.045 1.574-19.883 4.678-4.634 0.627-1.061-1.886-5.067-1.178-4.437 2.003-7.267 2.628-9.977 3.064-1.338 0.206-2.633 0.431-4.085 0.708-0.708 0.146-1.414 0.333-2.28 0.507-0.393 0.117-0.785 0.206-1.257 0.368-0.708 0.177-1.495 0.435-2.28 0.672-2.317 1.373-2.828 1.803-4.242 2.786 3.612-0.394 3.967-0.983-2.435 4.361l7.62-4.91 10.842-3.889-4.873 2.475-2.511 1.256-1.219 0.589-1.69 0.784c-0.549 0.394-1.297 0.942-1.65 1.258 0.553-0.368 1.142-0.708 1.767-1.023 2.043-0.667 2.868-1.019 4.242-1.492 1.297-0.472 2.515-0.942 3.653-1.373 2.32-0.908 4.401-1.65 5.933-2.003-5.262 2.828-4.792 2.317-1.767 2.711-4.165 0.117-7.267 1.332-11.708 3.064-4.044 2.828-7.072 5.186-11.627 6.991l-1.61-3.377c-5.031 2.198-9.233 4.792-13.436 7.661-2.122 1.456-4.242 2.947-6.523 4.438-1.101 0.787-2.239 1.574-3.417 2.399l-1.808 1.178c-0.744 0.472-1.533 0.942-2.276 1.414-1.378 1.178-2.751 2.358-4.242 3.613-1.338 1.102-2.792 2.281-4.324 3.458l4.795-3.223c-0.865 2.674-8.367 7.23-12.415 11.433-0.368-1.297-3.417 0.668-5.815 1.691 0.789 0.472-10.136 8.327-9.819 11.238l-1.178 0.627c-0.368 0.177-0.513 0.177-0.748 0.333-0.296 0.029-0.431 0-0.825 0.117l-1.297 0.333-2.633 0.749c-13.277 5.892-13.2 10.489-25.848 16.383 3.183-3.064-2.868-1.023 5.027-6.092-4.165 2.122-8.014 3.772-7.702 4.559-0.667 0.146-1.727 0.708-2.983 1.414-1.533 0.901-3.34 2.081-5.267 3.219-1.061 1.808-2.198 3.653-3.219 5.384-0.825 1.297-1.69 2.395-2.556 3.142-0.626 1.886 0.034 3.142-2.983 7.385-0.513 0.368-0.472-0.333-0.472-0.333 0.472 0.333-3.93 7.149-0.221 4.202-5.149 4.324-10.725 12.339-15.403 19.292-6.991 6.677-14.769 14.297-20.702 17.402-4.165 4.125-8.763 8.682-12.888 12.769-2.828 4.597-5.382 8.681-7.58 12.294 0-0.708-0.513-0.368 0.549-1.767-7.819 10.058-1.257 8.486-10.095 19.958-5.658 5.067 3.183-7.031 0.112-3.612-4.442-0.514-8.92 14.967-16.54 21.527l1.137-2.081c-5.341 5.341-9.035 15.752-16.147 25.575 0 0 0.034-0.708-0.472-0.433-0.255 0.631-0.368 0.983-0.861 1.927-0.394 0.866-0.942 1.767-1.495 2.869 0.034 2.475 0.075 5.304 0.075 8.286 0 2.592-0.034 5.343-0.075 8.133-0.221 5.58-0.508 11.355-0.744 16.383-1.219-3.772-0.332-5.382-2.122-3.336-0.332 5.262 2.711-1.26 2.122 9.192-0.434 1.095-0.825 2.669-1.338 4.32-0.472 1.533-0.983 3.417-1.455 4.048-0.708 0.627-1.569 1.414-2.198 1.533l0.785-1.927 0.589-6.288c-0.549 1.023-0.942 2.083-1.178 3.223-0.146 0.631-0.221 1.178-0.296 1.808-0.075 0.589-0.075 0.626-0.075 0.978l-0.184 0.631-0.431 1.256c-0.259 0.908-0.589 1.808-0.902 2.711-0.589 1.767-1.178 3.458-1.927 4.833l-0.63-0.982c-5.775 13.944-3.653 15.122-10.332 29.895l1.374-1.219c-0.296 2.281-0.708 3.694-1.333 5.149-0.553 4.242-2.439 4.438-2.084 11.314l-2.828 2.317c-0.296 5.933-0.626 20.349-1.767 31.233v0.060c0 0 0-0.029-0.034-0.060-0.825-6.6-0.034-18.544 0.034-26.283-0.861 5.735-2.711 19.564-1.922 22.707 0.075-2.358-0.075-5.341 0.626-7.58 0.368 3.336 0.589 6.401 0.368 11.116 1.142 5.658 1.886 10.961 2.515 17.602-3.612-1.256-1.061 15.716-0.63 27.502-0.296 4.008-0.902 8.445-1.962 10.567 0.368 5.58 0.393 11.079 0.259 16.658-0.112 2.786-0.221 5.576-0.368 8.405-0.146 2.988-0.332 5.974-0.472 9.039 0.472 5.027 0.98 10.172 1.451 15.439 0.513 5.067 1.101 10.331 1.886 15.752 2.592-8.88 0.983 6.913 4.559 4.91 0.942 5.384 1.178 7.506 0.98 8.055l0.034-1.136c-0.034 0.548-0.034 0.784-0.034 1.215l0.255 16.972c-0.549 4.089-1.65-5.105-2.435-4.516 1.533 12.099-0.825 5.304-0.63 13.396 1.101-1.808 2.552 3.93 3.064 10.883l0.296-9.94c1.451 5.226 1.886 8.644 1.922 11.392 0.034 1.38 0 2.592-0.075 3.813l-0.109 1.726c-0.075 0.435 0.034 2.003 0.075 3.028 1.142 3.064 1.297 3.889 2.203 5.97 0.861 1.927 2.003 4.125 3.653 6.836l-3.34-4.437c3.889 6.991 11.355 24.551 17.719 33.667 1.297 1.65 1.805 2.003 2.711 2.828 0.368 1.574 0.508 3.849-1.65 0.631 5.067 9.23 11.667 18.975 17.874 28.246 2.988 4.714 6.052 9.152 8.958 13.277 2.828 4.206 5.262 8.173 7.113 11.867l-1.65-0.866c2.394 3.183 5.262 4.833 7.149 9.469-0.472 0-1.69-0.866-0.708 0.708 0.589 0.708 1.927 2.198 3.536 4.044 0.748 0.942 1.573 2.003 2.358 3.028 0.902 1.099 1.374 1.844 2.711 3.848 0.549 0.548 1.101 1.019 1.573 1.492 0.332 0.33 0.589 0.631 0.861 0.905l-1.137-0.631-1.845-1.297c-0.67-0.708-1.533-1.767-1.886-2.044 0.508 0.866 0.98 1.691 1.451 2.441 1.926 1.803 3.734 3.536 5.503 5.222 1.533 1.414 3.064 2.711 4.556 3.93 2.947 2.475 5.815 4.638 8.644 6.64 5.576 4.044 11.274 7.934 17.009 12.647 0.394 0.394 0.865 0.787 1.259 1.219-2.044 1.844 8.21 14.338 13.317 20.548l-0.513 0.029c2.28 2.437 4.401 4.755 6.483 6.994 2.28 2.317 4.437 4.638 6.6 6.795 13.477 9.783 23.613 15.792 37.321 25.658l0.146 0.117c10.53 9.977 38.776 25.888 57.397 38.342-2.67-2.16 1.573-1.568 5.067 0.146 4.242 3.105 13.358 5.58 11.433 7.348l-1.61-0.942c2.158 4.361 12.176 8.25 19.564 12.099l2.747-2.281c2.792 2.239 6.092 4.442 9.628 6.523 1.767 1.019 3.612 2.044 5.499 3.024 2.044 1.061 4.125 2.122 6.247 3.183l6.954 2.085c2.122 0.627 4.32 1.215 6.405 1.844 4.202 1.219 8.327 2.358 12.099 3.458 7.583 2.276 13.789 4.478 17.208 7.109 0.221 0.029 0.431 0.117 0.667 0.146 5.856 0.589 11.514 1.886 16.777 2.281l-0.63 1.65c5.227 1.335 9.509 2.475 13.83 3.613 2.163 0.514 4.361 1.061 6.717 1.65 2.592 0.548 5.382 1.219 8.486 1.927 2.475-0.029 6.64-0.029 11.55-0.089l-3.653 1.219c10.095 0.266 12.807-4.91 22.158-4.873l2.751 2.633 6.677 0.177 7.737 0.33 10.689-2.633 9.624-2.516c6.324-1.726 12.611-3.772 18.622-6.442-0.146 0.472-0.431 1.339-3.142 2.198 2.122-0.507 5.422-1.373 8.958-2.239-0.075 0.029 0.708-0.060 1.297-0.146l1.886-0.177c1.257-0.177 2.475-0.333 3.653-0.472 2.435-0.296 4.714-0.708 6.6-1.136 3.808-0.749 6.047-1.691 4.792-2.828 0.255 1.061 3.967 0.631 8.88-0.333 2.394-0.514 5.105-1.14 7.816-1.767 1.338-0.368 2.711-0.708 4.008-1.023 0.67-0.146 1.297-0.296 1.967-0.472 0.626-0.177 1.297-0.368 1.414-0.431l0.296-0.060 0.785-0.029c0.434-0.060 0.906-0.117 1.378-0.146l-1.495 1.691c8.055-2.164 8.331-2.786 19.564-3.3 2.633 0.206 2.32 1.414-1.216 0.942 8.839 0.942 6.912-1.609 17.679-0.631l-4.008 1.102c4.361 0.060 6.442 0 8.051-0.296 0.789-0.117 1.414-0.296 2.203-0.51 1.020-0.177 2.122-0.433 3.653-0.749 0.075-0.060 0.221-0.266 0.431-0.472 0.825-0.548 1.727-1.136 2.633-1.767 0.785-0.394 1.533-0.901 2.394-1.373 1.65-0.942 3.458-1.848 5.186-2.674 3.458-1.533 6.6-2.592 7.542-2.276 0.589-1.456 4.242-5.067 9.115-7.425 0.942 0.146-0.589 1.452-1.297 2.122 3.142-1.533 5.852-3.064 8.21-4.559 1.178-0.745 2.28-1.492 3.34-2.198s2.239-1.492 2.552-1.808c0.472-0.266 2.163-0.859 3.3-1.297 1.259-0.431 2.475-0.825 3.734-1.256 2.511-0.825 5.027-1.414 7.897-1.767 0.391 0.548 1.097 0.631 1.962 0.548-6.994 1.886-13.123 3.576-16.577 4.518-0.708 0.394-1.297 0.708-1.614 0.901-0.472 0.296-0.667 0.368-0.549 0.206 0.186 0.668 2.515-0.146 2.752 0.206 0.184 0.029 0.391 0.117 0.508 0.206 0.184 0.117 0.553 0.146 0.67 0.333 0.391 0.266-0.553 0.901-0.368 1.373 0 0.117 0.034 0.296 0.075 0.472v-0.206c0.112-0.117-0.112-0.117 0.296-0.368 0.513-0.236 0.983-0.472 1.495-0.667 1.020-0.514 2.122-1.023 3.26-1.533 2.239-0.983 4.674-2.085 7.149-3.183 4.873-2.044 10.017-3.93 14.538-4.795 0.472 0 0.942 0.029 1.338 0.146l-0.865 0.431c2.122-0.431 4.008-1.099 5.735-1.844 2.947-0.589 4.873-0.942 7.702-1.691 0.146 0.206 1.455 0.117 3.3-0.266 1.020-0.631 2.317-1.414 3.731-2.281 0.942-0.631 2.044-1.339 3.145-2.081 2.158-1.456 4.361-2.988 5.93-4.048-1.333-1.219 4.165-4.557-1.65-2.399 0.748-0.368-0.626 0.631-3.26 2.516-0.63 0.472-1.297 0.942-1.65 1.297 0.034-0.060 0.112-0.177 0.186-0.33l-7.461 5.105-4.597 1.339c1.097-0.631 2.198-1.256 4.32-2.044 1.727-1.414 2.711-2.198 4.008-3.101 1.257-0.825 2.711-1.65 4.361-2.358 1.455-2.322 3.105-4.873 4.085-6.169 6.917-1.65 18.387-7.737 20.708-7.465 2.158-1.609 4.397-3.3 6.795-5.067 2.552-2.395 5.186-4.833 7.819-7.308 2.475-2.395 4.91-4.751 7.267-7.032 4.519-4.597 8.408-8.917 10.449-12.492 2.908-3.105 4.283-2.475 5.815-3.142-1.609 1.886-3.848 3.731-4.556 4.986 1.844-1.961 3.967-3.967 6.795-6.6 5.58-6.284 11.079-12.452 10.92-14.692 8.133-7.031-2.551 5.852 7.23-5.067l-0.825 1.886c2.906-2.358 5.539-4.792 7.938-7.23 1.178-1.215 2.317-2.434 3.495-3.653 1.339-1.451 2.633-2.947 3.93-4.397 1.332-3.223 1.609-4.242 2.317-6.169l1.767-5.262c1.136-3.536 2.281-7.034 3.417-10.608 1.178-3.536 2.399-7.153 3.848-10.842 0.749-1.848 1.497-3.694 2.399-5.58 0.749-1.808 1.844-4.125 2.475-5.262 1.339-1.061 2.752-2.239 4.165-3.417 1.609-1.258 3.3-2.516 5.067-3.772-1.767 1.335-2.711 2.003-3.264 2.042 4.638-3.967 9.192-8.133 13.753-12.375l6.755-6.483 7.27-7.072 9.152-21.369c2.988-7.072 5.815-13.477 9.152-20.862 2.441-10.177 4.833-19.058 7.819-28.287 2.551-8.604 2.003-11.197 1.886-15.48 0.029-0.368 0.029-0.631 0.266-1.339l2.669-1.178 2.828-10.489c1.927-5.145 4.519-9.347 7.308-13.512 1.414-2.081 2.869-4.125 4.32-6.288 0.708-1.099 1.414-2.198 2.164-3.3l1.061-1.767c0.472-0.825 0.983-1.767 1.456-2.628 0.39-3.653 0.548-5.149 0.626-7.742 0.089-2.434 0-4.95-0.177-7.661l-1.456 2.358c0.708-6.836 0.825-21.804 2.201-20.544-0.146-0.708-1.14-2.358-0.296-4.99l0.983-0.117-0.146-7.385-0.983-9.823c0.708-13.083 3.93 2.081 4.089-17.049-0.394-7.153-2.869-20.313-3.536-17.602z"></path>
    </svg>