<svg xmlns="http://www.w3.org/2000/svg" viewBox="-8.469 -40.001 1097.937 1104.002">
    <path fill="#000000" d="M984.069 403.866c0.55 0.922 1.055 1.81 1.643 2.862 0.12 0.461 0.12 0.714 0.12 0.967l-1.769-3.831zM800.709 579.646c0 7.538-0.237 15.583-1.686 22.999-1.138 5.812-1.808 11.16-3.665 16.89-0.797 2.484-0.923 5.054-1.6 7.582-0.927 3.665-3.159 6.823-4.254 10.446-1.39 4.384-1.812 8.932-3.033 13.356-1.181 4.297-3.203 9.265-5.141 13.268-1.43 2.988-3.369 4.928-5.813 7.117-6.95 6.026-10.742 14.785-17.731 20.851-7.795 6.823-11.038 16.977-18.79 23.718-6.864 5.98-14.28 11.33-21.565 16.846-3.665 2.739-7.247 5.52-10.742 8.467-3.747 3.118-7.076 6.994-10.995 9.73-9.352 6.571-20.725 12.427-26.791 22.62-2.444 4.088-5.642 7.669-8.467 11.499-3.791 5.098-7.373 10.532-11.291 15.543-2.736 3.499-5.896 6.697-8.592 10.196-2.863 3.665-4.676 7.792-7.116 11.709-1.56 2.528-3.708 3.917-5.9 5.857-3.033 2.78-5.517 6.445-7.539 10.023-4.632 8.088-9.604 14.955-17.861 19.674-4 2.23-8.045 4.21-11.583 7.116-3.455 2.825-7.412 6.571-11.835 7.878-1.686 0.461-3.455 0.284-5.224 0.317-4.214 0-8.214 1.475-12.384 2.234-4.719 0.885-9.434 1.39-14.11 2.61-11.499 2.988-22.032 5.857-33.575 1.769-4.715-1.687-9.226-1.851-14.193-0.967-6.319 1.093-12.345 0.673-18.664 0.461-6.99-0.19-15.499-1.093-22.072-3.329-4.126-1.346-7.792-3.83-11.542-5.98-1.39-0.802-4.802-2.274-5.391-3.834 9.016-2.103 18.449-3.369 27.801-4.506 14.11-1.687 28.136-4.466 42.377-4.636 9.857-0.126 18.449-5.473 27.336-9.226 7.878-3.242 14.241-8.973 21.735-12.89 9.016-4.632 16.933-8.214 24.602-14.994 3.495-3.077 6.571-6.527 10.11-9.604 2.022-1.516 3.917-3.159 5.769-4.885 1.264-1.352 1.56-1.601 0.841-0.717 9.983-10.572 19.548-21.901 30.076-32.011 2.993-2.869 6.823-4.51 9.817-7.33 3.412-3.159 5.307-7.669 8.171-11.247 4.802-6.026 9.73-11.838 14.323-18.031 4.043-5.473 8.253-10.908 13.395-15.456 7.961-7.038 14.319-15.29 20.555-23.884 6.993-9.647 14.533-18.576 22.62-27.383 5.896-6.484 13.099-12.297 18.24-19.291 3.412-4.632 7.033-8.676 11.121-12.846 5.852-6.066 11.499-12.345 16.807-18.916 3.495-4.254 7.749-8.633 9.391-13.983 1.516-5.011 1.769-10.28 3.455-15.334 2.148-6.358 4.043-13.099 6.697-19.248 0.12-0.19 0.199-0.423 0.317-0.594 1.138-2.44 2.78-4.632 3.621-7.203 0.928-2.528 1.094-5.264 1.726-7.835 2.362-9.056 5.268-17.984 7.164-27.17-0.237 7.708-0.080 15.377-0.080 23.086 0 1.851 0.037 3.704 0 5.517 0 2.066 0.631 3.455 0.927 5.138 0.928 6.026 0.199 12.723 0.237 18.79zM436.778 753.42c-7.119-0.284-14.615-2.313-21.439-3.917-4.972-1.178-13.312 0.717-11.752-7.242 0.588-3.285 3.285-7.076 5.221-9.691 3.159-4.21 9.395-6.95 14.241-8.214 2.061-0.543 4.126-1.011 5.896-2.148 2.4-1.472 3.412-2.818 6.192-3.412 3.581-0.841 6.571-2.274 10.279-2.23 5.011 0.031 9.814 0.394 14.659 1.346 4.928 1.055 10.11 2.11 15.164 0.802 5.517-1.435 11.961-0.19 17.353 1.39 3.917 1.219 8.088 1.346 11.922 2.572 2.444 0.714 4.593 2.654 7.33 2.4 5.138-0.505 9.016-4.802 14.11-5.939 3.455-0.717 6.95-1.055 10.488-1.222 2.108-0.031 4.297 0.157 6.279-0.354 1.473-0.317 2.654-0.631 4.254-0.676 1.686 0 3.834-0.394 5.517 0.253 1.434 0.505 2.362 1.769 3.455 2.739 3.116 2.654 6.615 2.862 10.192 4.55 1.264 0.631 2.444 1.599 3.791 2.103 1.477 0.587 3.076 0.758 4.593 1.182 2.444 0.631 5.517 0.885 7.752 2.022 2.485 1.302 4.589 2.4 7.33 3.369 1.050 0.423 2.022 0.929 2.989 1.516 3.116 1.851 5.517 4.593 8.636 6.445 2.4 1.39 5.813 3.077 7.286 5.477-10.995 2.316-22.45 3.452-33.741 3.495-4.758 0-9.182-1.093-13.857-1.182-6.488-0.064-12.597 1.308-18.746 3.372-6.445 2.103-12.468 3.747-19.125 5.095-5.813 1.138-12.088 0.505-17.984 0.505-6.192 0-12.427 0.394-18.62 0.031-3.033-0.157-5.939-1.093-8.973-1.219-3.708-0.126-6.95 0.031-10.571-0.758-2.4-0.465-4.845-1.308-7.29-1.435-2.231-0.157-4.38 0.126-6.611-0.19-5.56-0.885-10.658-0.594-16.218-0.844zM393.769 693.725c-3.033 7.368-7.076 14.11-10.825 21.060-4.972 9.099-8.423 19.252-10.911 29.274-2.022 8.088-4.043 16.389-4.126 24.729-0.080 9.138-0.928 18.912 0.967 27.928 1.603 7.665 3.581 15.247 6.697 22.368 2.445 5.517 4.889 11.203 8.088 16.341 1.769 2.869 4.131 5.395 5.56 8.427-2.567-1.732-5.473-1.687-8.297-2.528-2.528-0.802-4.676-2.486-6.907-3.878-7.076-4.38-13.395-10.067-19.504-15.627-3.834-3.455-8.762-5.098-12.468-8.888-2.654-2.78-5.224-5.307-8.214-7.749-3.033-2.4-4.845-4.802-7.038-8.048-4.126-6.149-9.983-11.499-14.785-17.187-2.357-2.862-4.676-5.687-6.864-8.676-2.445-3.329-5.224-5.73-7.922-8.676-2.82-3.159-4.632-7.543-6.571-11.164-2.148-3.96-4.506-7.582-6.358-11.669-4.972-11.033-9.565-22.028-13.521-33.488-6.109-17.352-10.911-35.171-16.768-52.608-6.319-19.125-13.182-38.542-17.731-58.13-2.191-9.604-3.708-19.082-4.802-28.899-1.138-9.896-2.867-19.84-3.076-29.862-0.274-17.609 1.643-35.13 3.621-52.612 1.055-8.803 1.307-17.522 1.434-26.367 0.199-11.626 0.842-23.168 1.055-34.713 0.117-8.423-0.157-16.89 0.505-25.313 0.394-3.961 1.39-7.922 1.726-11.923 0.12-1.093-0.080-2.23-0.037-3.369 0.12-4.043 1.686-7.961 2.192-12.005 0.758-6.488-0.117-13.901 1.939-20.218 1.6-4.802 4.254-9.058 5.687-13.945 1.516-5.224 3.369-10.192 5.56-15.081 6.319-14.237 14.698-27 24.515-38.835 10.236-12.345 18.197-26.538 26.241-40.398 2.4-4.127 4.55-8.633 9.142-10.572 5.138-2.148 8.845-6.445 12.764-10.406 9.352-9.477 19.122-18.659 29.148-27.422 3.834-3.285 7.792-6.907 11.922-9.857 3.577-2.528 7.622-3.665 11.413-5.686 4.297-2.19 8.048-5.264 12.427-7.287 3.369-1.561 6.402-1.561 9.94-2.022 9.142-1.346 16.598-7.33 25.614-8.929 10.362-1.94 20.302-5.269 30.582-7.543 11.665-2.61 23.587-5.517 35.423-6.864 6.026-0.676 11.922-1.39 17.779-2.869 8.845-2.148 16.258-4.379 24.934-1.052 3.033 1.093 5.73 1.346 8.933 0.505 3.873-1.099 8.088-2.995 11.835-4.719 4-1.813 9.269-2.484 13.648-2.988 6.95-0.802 14.576 0.031 21.526 0.064 4.043 0 8.088-0.19 12.171 0.157 5.098 0.461 10.236 1.725 15.418 1.769 7.835 0.157 14.955 2.19 22.368 4.842 4.889 1.729 9.565 3.917 14.406 5.647 0.972 0.394 1.895 0.714 2.95 0.797 1.726 0.126 3.495-0.417 5.264-0.543 5.604-0.354 11.712-0.126 17.021 2.022 3.495 1.39 7.033 2.818 10.615 3.917 3.577 1.093 5.347 3.242 8.341 5.391 1.808 1.308 3.704 1.813 5.347 3.412 1.138 1.138 2.148 2.484 3.412 3.495 1.769-2.059 3.246-0.031 4.466 1.308 1.347 1.435 3.116 2.357 4.34 3.961 1.682 2.148 2.022 4.506 3.369 6.864 1.219 2.274 3.285 3.373 1.726 6.066-1.264 2.11-5.434 4.005-7.33 5.434-6.737 5.098-13.352 11.417-19.208 17.438-32.56 33.448-67.817 63.86-102.189 95.452-10.192 9.352-18.494 21.021-29.235 29.487-1.808 1.431-2.611 4.083-5.264 3.831-1.138 3.834-3.076 6.066-5.857 8.807-2.188 2.19-4.126 4.588-5.98 7.076-1.264 4.588-2.741 9.055-4.34 13.521-2.319 6.231-4.088 12.72-5.604 19.208-0.631 2.736-0.671 7.203-2.022 9.517-0.394 0.631-0.080 1.055-0.715 1.516-0.631 0.505-1.852 0.126-2.357 0.676-0.719 0.676-0.719 3.455-0.885 4.466-0.972 6.106-1.264 12.384-2.362 18.533-2.485 14.026-4.715 28.054-6.445 42.207-1.43 11.796-3.369 23.335-6.571 34.795-2.231 7.875-5.347 14.825-8.719 22.198-3.538 7.582-6.611 14.994-11.121 22.032-3.873 6.066-7.16 11.752-10.023 18.323-2.065 4.589-3.878 8.802-5.268 13.648-1.011 3.621-6.445 10.402-4.715 14.28 0.419 1.011 0.797 1.219 1.852 1.472 2.528 0.587 6.023-1.138 8.549-1.39 9.521-1.011 16.554 9.352 23.422 14.576 4.719 3.577 11.961 4.297 17.648 4.462 2.274 0.031 4.636 0.064 6.91 0.031 3.957-0.126 6.106-1.94 9.518-3.455 2.654-1.219 5.983-1.052 8.467-2.4 1.307-0.673 2.192-1.851 3.329-2.692 1.219-0.847 2.824-1.308 3.873-2.363 1.224-1.219 1.307-2.78 2.907-3.538 1.686-0.799 3.12-0.064 4.593 0.631 3.834 1.858 8.131 4.297 10.532 7.878 2.231 3.369 2.692 7.582 2.82 11.542 0.037 0.284 0.037 0.543 0.037 0.841 0.157 5.643-3.203 14.197-9.395 15.374-1.682 0.317-3.495 0.157-5.264 0.55-1.812 0.394-3.369 1.472-5.181 1.895-4 0.802-8.845 0.221-12.89 0.19-4.38 0-8.549 0.284-12.807 1.349-3.369 0.841-6.232 3.115-9.391 4.462-3.499 1.479-6.615 3.455-10.323 4.51-1.852 0.505-4 0.284-5.687 0.758-2.231 0.671-2.946 2.61-5.307 2.484-4.083-0.253-9.896-4.55-13.434-7.077-3.752-2.61-7.795-5.769-12.345-6.445-5.599-0.885-11.16-3.495-16.763-3.412-3.455 0.031-6.993-0.55-10.153 1.011-2.78 1.435-4.632 2.825-7.708 3.708-3.159 0.885-5.56 2.568-8.088 4.55-2.692 2.022-5.687 2.61-8.045 5.221-2.736 3.159-5.434 5.268-9.016 7.416-0.505 0.357-1.094 0.547-1.682 0.758-0.356 0.673-0.719 1.39-1.098 2.022-4.885 8.341-8.676 17.142-13.434 25.44-3.159 5.56-5.098 11.499-7.543 17.399zM729.784 403.767c1.686 1.472 3.033 3.369 4.762 4.758 1.6 1.219 3.369 2.148 4.885 3.412 1.094 0.967 3.873 2.319 3.834 4.088-0.080 1.599-5.054 4.297-6.362 5.054-0.968 0.587-1.769 1.011-2.863 1.175-1.895 0.19-3.752-0.631-5.604-0.126-2.654 0.676-3.412 3.077-4.845 5.098-1.6 2.357-4.17 2.4-6.023 4.34-1.347 1.346-2.907 3.621-3.961 5.264-1.304 2.066-2.274 4.214-3.242 6.402-1.895 4.423-8.214 3.329-12.554 3.329h-17.648c-2.444 0-4.34 0.284-6.654 0.885-2.615 0.631-4.088 1.516-6.658 2.484-2.148 0.717-4.506 1.94-6.697 2.234-1.304 0.221-2.611-0.157-3.917 0.031-1.769 0.354-2.82 1.011-4.758 1.096-5.642 0.126-11.291-0.064-16.933-0.031-4.254 0.031-9.773-3.495-13.774-1.561-1.473 0.717-2.444 2.022-4.043 2.613-2.528 0.885-5.604 0.631-8.297 0.885-4.131 0.394-8.004-1.308-11.752-3.033-1.35-0.631-2.741-1.981-4.17-2.36-1.098-0.284-1.812 0.19-2.95-0.461-0.967-0.55-2.444-2.61-3.203-3.329-1.39-1.346-2.104-1.555-3.538-2.357-1.473-0.802-3.957-2.4-5.221-3.538-1.098-0.967-2.148-2.78-0.927-3.665 0.758-0.631 1.769-0.505 2.654-1.346 0.968-0.974 1.181-2.11 1.473-1.643 1.769-2.4 4.34-4.466 6.362-6.697 2.611-2.995 5.138-6.192 8.171-8.845 2.615-2.234 5.477-4.131 7.961-6.531 2.741-2.61 5.015-5.852 8.048-8.171 2.104-1.599 4.589-2.825 6.864-4.214 5.268-3.285 9.817-4.55 15.796-5.599 7.416-1.352 14.323-0.394 21.696-0.758 6.232-0.253 12.511-0.885 18.741-1.011 7.119-0.064 14.153 1.769 21.317 1.769 3.495 0 6.907 0.841 10.362 1.428 2.654 0.467 5.56 0.676 8.171 1.39 3.242 0.929 6.276 2.654 9.269 4.131 2.061 1.093 4.423 1.895 6.232 3.412zM779.28 920.274c1.39-1.725 3.917-4.842 4.928-6.192 0-0.126 0.037-0.357 0.080-0.461 0.037 0.505 0.037 0.967-0.157 1.643-0.545 0.758-2.022 2.528-2.737 3.369-0.885 0.974-1.473 1.561-1.939 1.858-0.588 0.064-0.923 0.031-1.177 0 0.237-0.031 0.505-0.064 1.011-0.19zM1008.056 556.149l-1.138-3.033-2.314-6.022c-2.95-13.774 4.632 1.093-0.505-18.873-2.444-7.286-8.719-20.218-8.636-17.268 0.758 2.988 1.434 7.748 0.462 8.297l-2.313-6.617c-0.196-0.031-0.465-0.064-0.675-0.126l-0.274-1.093 9.773-48.273-8.676-32.351 0.758 0.631-1.139-2.23-2.78-10.323c0.419 0.19 1.050 1.055 1.726 3.077-0.237-3.033-0.675-4.506-1.219-5.983-1.224-2.103-2.148-2.818-3.033-7.033-0.12-0.802 0.157-0.55 0.545 0.031l-3.917-6.571c1.138 1.093 1.264-1.981 2.824 2.44-4.214-13.056-11.121-19.082-11.373-24.598l0.675 0.929c-6.571-12.511-4.719-6.571-6.91-8.131l-0.12-0.354-1.093-8.257 2.611-6.951-2.274-1.599c-0.199-1.895-0.505-5.774 0.394-5.181-2.314-6.993-0.715 1.346-2.567-2.654 0.462-7.33-2.065-17.779-2.192-24.349-1.054-1.851-1.725-3.41-1.306-4.251-3.369-1.895 4.636 8.257-2.441 0.55 1.093-4.423-7.373-8.933-11.247-16.807 3.033 1.052 7.116 8.127 3.285 0.284-5.521-2.357-9.395-13.813-14.153-19.248-2.235 1.178-10.026-12.175-17.735-21.526 1.138 0.126-12.384-19.208-17.818-29.148l0.505 0.031c-3.242-0.42-9.352-10.318-14.576-17.060 1.39-0.543 2.741 0.394 5.857 3.834l-4.466-6.615c-1.726-1.093-3.452-2.944-6.571-7.033l2.654 0.631-2.314-3.203-3.246-2.694-2.863-2.319c-1.895-1.516-3.917-3.115-5.939-4.719-4.043-3.326-8.171-6.95-12.302-11.499-1.177 0.55 1.434 5.268-0.317 5.56l-5.434-4.968c0.588-0.221 1.516-0.064 3.076 1.052-1.011-0.758-3.791-2.4-5.35-4.38l5.307 2.736c-4.126-4.715-3.285-1.219-6.867-4.715 1.011-0.885-2.022-3.159-0.797-3.455 1.011 0.758 2.82 3.329 4.589 4.254-1.978-1.937-4.55-4.676-5.726-6.276-0.846-1.687-2.108-4.088-2.274-5.138-0.356 0.885-1.434 1.138-4.043-2.066-6.445-8.423-0.928-3.873-4.088-9.225-2.274-1.472-5.604-7.456-7.286-6.445-1.856-2.484-1.477-3.455-1.769-4.758-1.098-1.055-2.741-3.033-4.51-5.224-2.104-2.572-4.336-5.391-6.192-7.707-6.445-1.599-8.045-1.687-5.852-0.031l1.516 0.594c-0.356-0.031-0.675-0.126-1.055-0.19-7.456-1.302-14.911-3.538-22.324-5.939l-11.081-3.704c-3.538-1.182-6.95-2.319-10.402-3.412l-2.907-2.528-3.499-2.78 0.465-0.467c-8.592-6.357-18.323-15.077-25.021-18.995-2.4-2.022-4.889-5.73-3.372-5.434-0.968-0.72-1.852-1.435-2.441-1.858-1.516-0.631-2.78-1.138-4.005-1.599-1.138-0.461-2.148-0.929-3.285-1.435-2.314-1.138-5.011-2.61-9.352-5.307 7.878 2.613-2.104-2.148 7.922 2.991-9.269-5.224-10.954-7.247-21.906-10.702 4.17 0.157-6.066-5.391-11.077-7.329l6.276 4.466c-1.473-0.631-2.863-1.308-4.214-1.94-1.556-0.758-3.073-1.516-4.55-2.274-2.528-0.394-4.885-0.714-7.286-1.138l2.95-1.851c-10.488-2.736-20.306-2.862-29.487-3.159-4.55-0.126-8.929-0.284-13.225-0.841-4.214-0.594-8.214-1.94-12.049-3.791-5.896 0.417 11.33 3.326 5.983 4.126-9.691-2.192-19.252-7.373-22.328-7.918-5.391-1.601-8.506-1.732-11.33-1.643-1.434 0.064-2.736 0.157-4.214 0.221-0.715 0.031-1.516 0.031-2.314 0-0.928-0.031-1.56-0.031-3.203-0.284-1.011 0-2.065 0.031-3.285 0.031-1.055 0-2.231-0.064-3.581-0.157 1.856 0.841 3.538 2.951-7.16 3.581-9.94-0.465-12.214-3.538-5.896-4.087 2.4-0.031 3.538 0.19 3.452 0.505 3.246-0.221 7.456-0.505 3.499-1.435l-1.307 0.802c-4.928-0.929-18.659-1.055-15.373-2.319-7.582 0.676-3.285 1.264 2.314 1.769-8.253-0.922-14.615-0.799-21.060-0.885-3.033-0.19-7.16-0.631-11.583-1.302 2.061 0.631 3.917 1.725 1.852 1.516-19.165-2.739-8.636 0.758-21.691-0.064-7.29-1.851 2.907-2.654-10.279-2.818-7.961-1.561-1.516-2.234 1.686-2.613-1.434 0.031-2.867 0.031-4.257 0l-2.946-0.157c-1.181-0.126-2.274-0.19-3.412-0.354-1.603 0.885-3.159 1.687-4.676 2.489-1.011 0.417-1.939 0.885-2.824 1.346-1.812 0.714-3.538 1.472-5.181 2.148-3.285 1.308-6.235 2.445-8.549 3.581l5.221-3.581c-3.159 2.148-5.852 3.621-8.633 5.138l3.957-0.354c-3.412 1.516-6.149 3.033-6.445 2.4-2.82 2.78 3.834 0.929-2.148 5.813-2.358 0.841-5.56 2.825-8.467 4.506-1.473 0.802-2.863 1.516-4.043 2.022-0.631 0.19-1.138 0.423-1.6 0.467-0.274 0-0.505-0.126-0.715-0.357 0.196-0.031 1.177-0.543 1.769-0.841 0.671-0.357 1.177-0.676 1.682-0.885 0.885-0.505 1.434-0.885 1.769-1.138 0.549-0.55 0.196-0.676-0.278-0.714-0.927-0.221-2.235-0.465 3.495-3.791-2.148 1.431-4.845 2.907-8.297 4.462-0.593 0.031 0.237-0.673 1.094-1.219-0.927 0.354-2.274 0.929-2.485 0.967-0.12-0.031-0.196-0.031-0.274 0-0.12-0.031-0.196 0-0.196 0.031-0.278 0.064-1.138 0.19-1.477 0.354-0.967 0.284-1.6 0.676-2.441 1.055-1.643 0.758-3.917 1.561-10.488 1.687 1.935-1.226-3.625-2.148-6.153-1.895 6.235-0.064 3.033 1.933-2.654 2.944-9.896-0.671-10.742 0.974-15.923 0.974l5.939 0.284c-0.923 0.594-2.611 0.885-4.842 1.096-2.319 0.157-5.307 0.317-8.807 0.543-0.237 0.064-0.588 0.19-0.885 0.357-0.237-0.157 0.12-0.465 0.802-0.802 2.571-0.394 5.35-0.317 3.708-0.631-0.55 0.157-1.011 0.317-1.516 0.394l-2.192 0.221c-2.571 0.967-3.873 1.308-5.896 1.813-1.939 0.317-3.917 0.714-6.026 1.138-4.128 0.758-8.508 1.725-12.721 3.747-4.972 0.758-1.138-1.977-5.477-1.138-4.21 2.022-7.116 2.825-9.73 3.369-1.304 0.284-2.528 0.465-3.873 0.758-0.676 0.126-1.307 0.284-2.066 0.423-0.394 0.126-0.758 0.19-1.138 0.317-0.715 0.19-1.39 0.394-2.104 0.594-0.675 0.417-1.39 0.885-2.148 1.302-0.422 0.221-0.885 0.594-1.347 0.885-0.972 0.631-1.982 1.39-3.076 2.234 3.917-0.55 4.254-1.222-2.528 4.758l10.153-6.95 9.265-3.581-4.126 2.236c-1.56 0.758-2.274 1.302-4.719 2.357-1.852 1.39-2.485 2.103-3.577 3.077 1.264-0.802 2.567-1.687 3.83-2.528 1.35-0.505 2.697-1.055 3.961-1.516 1.181-0.465 2.231-0.929 3.242-1.308 2.108-0.885 3.961-1.561 5.395-1.94-5.647 3.246-5.141 2.654-1.895 2.995-1.769 0.031-3.455 0.394-5.054 0.797-0.801 0.19-1.643 0.505-2.4 0.802l-2.824 1.055c-2.231 1.643-4.506 3.326-6.867 5.095-2.231 1.601-4.632 3.077-7.456 4.214l-1.808-3.495c-9.943 4.55-17.313 11.16-26.454 17.479-2.95 1.601-7.5 3.752-12.005 5.521l5.939-1.94c-1.726 2.484-10.742 5.138-16.132 8.297-0.037-1.431-3.791-0.19-6.571 0.064 0.631 0.797-12.764 5.769-13.438 8.973l-2.274 0.714-2.104 1.516-1.56 0.967-2.989 1.895c-11.752 10.236-10.236 15.038-21.356 25.021 2.274-4.126-3.285-0.126 3.199-7.792-3.577 3.455-6.99 6.402-6.402 7.12-0.588 0.284-1.39 1.011-2.231 1.895-0.928 1.052-2.108 2.357-3.285 3.747-1.055 1.94-2.191 4.044-3.246 5.983-1.011 1.681-2.022 3.199-2.989 4.083-0.715 2.066 0.080 3.412-3.033 8.004-0.588 0.394-0.588-0.354-0.588-0.354 0.588 0.354-4.043 7.835-0.117 4.55-2.654 2.357-5.224 5.434-7.835 8.973-1.307 1.681-2.571 3.538-3.834 5.473-1.181 1.769-2.357 3.581-3.538 5.395-2.022 1.81-4.126 3.665-6.149 5.473-2.148 1.813-4.297 3.665-6.319 5.434-4.131 3.412-8.048 6.279-11.499 7.922-4.423 4.126-9.312 8.633-13.735 12.764-2.148 6.105-4.083 11.665-5.726 16.511-0.157-0.758-0.631-0.284 0.117-1.977-5.857 12.384 0.671 9.182-5.939 23.292-4.762 6.697 1.726-8.127-0.719-3.792-1.39 0.157-2.441 1.643-3.412 3.918-0.462 1.138-0.923 2.486-1.43 3.917-0.356 1.308-1.055 3.455-1.098 3.918-0.117 0.354-0.885 1.516-1.682 2.613l-2.274 3.285c-1.56 2.103-3.246 4.044-5.054 5.517l1.304-2.148c-5.939 5.517-10.275 16.637-18.28 26.96 0 0 0.037-0.758-0.505-0.465-0.196 0.676-0.801 1.769-1.726 3.329-0.465 2.484-0.972 5.391-1.56 8.511-0.588 2.818-1.264 5.852-2.022 8.929-1.516 6.149-3.242 12.511-4.719 18.071-0.419-4.214 0.885-5.687-1.473-4.001-1.516 5.474 3.116-0.676 0.117 10.192-0.885 1.435-1.812 3.159-3.076 5.603-1.138 3.369-2.231 5.98-3.412 6.527l1.011-7.119 1.264-4.044c-0.394 0.505-0.797 0.974-1.138 1.561-0.317 0.505-0.631 1.138-1.093 2.274-0.12 0.802-0.278 1.561-0.462 2.4l-0.317 1.94c-0.12 1.346-0.157 2.736-0.237 4.084-0.117 2.698-0.237 5.307-0.758 7.456l-0.928-0.885c-2.022 15.714 0.356 16.895-2.104 32.816-0.037 0.19-0.117 0.547-0.196 0.841 0.196-0.317 0.419-0.55 0.631-0.758 0.157-0.157 0.278-0.284 0.462-0.587 0.037 0.394 0.037 0.543 0.080 0.714 0 8.676-3.369 6.78-3.747 16.132l-3.285 2.148c-0.968 6.192-2.61 22.075-5.35 33.025 0.117-6.571 2.022-19.713 2.993-27.928-1.56 6.023-4.845 20.598-4.55 24.053 0.545-2.445 0.545-5.73 1.556-8.048 0.394 8.048-1.895 17.861-5.391 29.783-1.39-1.138-2.989 1.725-4.719 6.402-0.885 2.319-1.769 5.098-2.736 8.045-1.055 3.329-2.148 6.868-3.203 10.28 0.157 1.219 0.356 2.445 0.55 3.621 0.080 0.844 0.199 1.643 0.317 2.445 0.157 1.516 0.356 3.033 0.465 4.466 0.157 2.78 0.157 5.138-0.237 6.823 1.43 5.221 2.567 10.528 3.577 15.879 0.465 2.698 0.928 5.391 1.434 8.131 0.422 2.907 0.885 5.813 1.347 8.802 1.812 5.643 3.665 11.417 5.56 17.356 1.895 5.77 3.878 11.665 6.153 17.775 0.671-9.9 2.654 6.994 5.98 4.127 0.972 2.528 1.643 4.257 2.108 5.434 0.117 0.885 0.237 2.11 0.117 2.274l-0.037-1.264c0.037 0.591 0.037 0.844 0.037 1.308l0.462 18.241c-0.505 4.423-1.812-5.477-2.61-4.762 1.769 12.933-0.846 5.687-0.55 14.406 1.181-1.977 2.78 4.131 3.455 11.587l0.196-10.615c2.4 8.506 2.231 12.045 2.148 16.554 0.317 5.011 0.157 8.549 3.708 17.818l-2.697-5.307c1.219 3.538 2.824 9.561 4.593 16.006 0.968 3.242 1.935 6.571 2.863 9.814 0.55 1.561 1.055 3.159 1.516 4.676 0.631 1.687 1.219 3.285 1.726 4.802 0.719 1.561 0.928 1.769 1.307 2.528 0.422 0.631 0.801 1.222 1.138 1.769 0.715 1.138 1.434 2.11 2.104 2.869 0.157 1.725-0.037 4.21-1.895 0.461 2.318 6.109 5.098 12.468 8.004 18.829 3.033 6.571 6.109 13.225 9.016 19.544 1.643 2.274 3.242 4.423 4.802 6.531 1.347 1.933 2.692 3.83 3.957 5.687 2.528 3.704 4.719 7.242 6.445 10.615l-1.769-0.929c2.571 3.369 5.647 5.054 7.795 10.026-0.55 0-1.812-0.885-0.758 0.758 0.505 0.587 1.556 1.769 2.907 3.242 0.631 0.758 1.304 1.599 2.061 2.445 0.758 0.967 1.264 1.472 2.571 3.326 0.928 0.844 1.895 1.769 2.78 2.572 0.715 0.714 1.347 1.39 1.939 2.066l-4.257-2.528c15.081 16.302 26.245 21.565 40.146 33.78-2.066 2.11 9.896 14.619 15.879 20.851l-0.55 0.064c4.55 4.336 8.845 8.214 13.060 11.879 4.043 3.83 7.961 7.412 11.835 10.868 3.961 3.496 7.795 6.908 11.838 10.403 1.935 1.813 3.957 3.581 5.98 5.435 1.055 0.929 2.065 1.855 3.12 2.825 1.177 1.093 2.4 2.23 3.577 3.369 0.465 0.221 0.928 0.594 1.477 0.929 3.495 3.621 9.182 8.088 15.879 12.973 3.412 2.4 7.033 4.972 10.742 7.582 4.088 2.865 8.341 5.813 12.594 8.719 4.889 1.352 9.773 2.743 14.492 4.043 4.21 1.264 8.253 2.528 12.005 3.791-3.372-1.431 1.177-2.059 5.307-1.305 5.264 1.977 15.418 1.895 13.857 4.297l-1.895-0.55c0.505 0.55 1.219 1.055 2.104 1.561 0.394 0.221 0.846 0.505 1.35 0.758 0.631 0.19 0.278 0.19 0.505 0.394-0.237 0.031 1.473 1.138 2.692 1.851 1.35 0.802 2.741 1.599 4.17 2.4 2.867 1.561 5.857 3.203 8.553 4.676l2.989-2.357c3.116 2.736 6.78 5.347 10.825 7.875 1.982 1.264 4.043 2.528 6.153 3.709 2.357 1.308 4.715 2.572 7.116 3.873l7.29 2.36c2.188 0.673 4.423 1.346 6.571 2.022 4.336 1.346 8.592 2.654 12.423 3.83 7.752 2.489 14.114 5.015 17.565 7.795 0.885 0.157 1.098 0.157 2.95 0.631 2.654 0.357 5.56 0.714 8.423 1.052 2.741 0.284 5.395 0.631 7.835 0.72l-0.671 1.807c6.023 1.352 10.868 2.445 15.836 3.538 2.488 0.55 5.015 1.096 7.752 1.643 3.076 0.591 6.362 1.222 10.11 1.981 2.148-0.19 6.149-0.594 10.658-0.974l-3.834 1.643c10.868-0.714 13.312-6.483 23.296-7.286l3.199 2.572 8.257-0.505 8.592-0.357 10.532-1.472 10.023-1.599c6.658-1.138 13.229-2.613 19.674-4.676-0.237 0.461-0.675 1.39-3.665 2.022 2.611-0.423 6.654-0.974 10.995-1.643 2.441-0.126 4.968-0.253 7.33-0.357 2.484-0.157 4.885-0.42 6.823-0.714 3.917-0.55 6.192-1.39 4.968-2.654 0.465 2.484 19.674-1.055 29.784-3.115l-1.39 2.059c8.38-3.452 8.592-4.127 20.51-6.276 2.867-0.126 2.654 1.138-1.138 1.138 9.565-0.19 7.164-2.654 18.79-3.115l-4.131 1.725c4.762-0.55 6.993-0.929 8.636-1.435s2.611-1.093 5.983-2.23c0.041-0.031 0.199-0.19 0.356-0.284 0.802-0.587 1.686-1.264 2.654-1.977 0.758-0.505 1.6-1.011 2.444-1.599 1.769-1.099 3.665-2.192 5.517-3.121 3.621-1.851 6.95-3.115 8.004-2.78 0.545-1.599 4.297-5.643 9.434-8.38 1.011 0.126-0.55 1.557-1.307 2.274 3.372-1.813 6.192-3.625 8.68-5.307 1.264-0.929 2.4-1.732 3.577-2.572l2.528-1.977c0.505-0.284 2.022-0.844 3.412-1.264 1.35-0.465 2.654-0.929 4.005-1.349 2.654-0.758 5.347-1.39 8.423-1.643 0.394 0.505 1.138 0.631 2.148 0.594-7.412 1.851-13.901 3.538-17.609 4.462-0.758 0.465-1.347 0.844-1.682 1.011-0.55 0.357-0.758 0.423-0.593 0.317 0.356 0.676 2.654-0.221 2.907 0.157 0.465 0.157 0.631 0.42 0.885 0.714 0.12 0.284-0.041 0.802 0 1.308 0 0.126 0.037 0.284 0.080 0.505l0.041-0.19c0-0.064 0.037-0.19 0.080-0.317 0.545-0.19 1.050-0.461 1.556-0.714 1.181-0.465 2.318-1.011 3.538-1.561 2.444-1.011 5.054-2.103 7.708-3.203 5.268-2.148 10.785-4.083 15.63-4.928 0.505 0.031 1.011 0.064 1.43 0.19l-0.969 0.458c2.318-0.423 4.38-1.138 6.235-1.895 1.6-0.284 2.946-0.55 4.254-0.802 1.473-0.284 1.978-0.394 5.011-1.138 0.549 0.157 1.856 0.031 3.752-0.357 1.094-1.093 2.441-2.572 3.957-4.297 0.846-1.011 1.769-2.066 2.697-3.203 1.812-2.19 3.708-4.462 5.011-6.066-1.726-0.841 2.907-5.939-2.4-1.977 0.631-0.587-0.462 0.885-2.692 3.581-0.422 0.671-1.011 1.39-1.264 1.851 0-0.126 0.041-0.221 0.080-0.394l-6.823 8.297-5.73 1.561c1.181-0.676 3.538-1.599 5.307-2.274 0.631-0.885 1.264-1.813 1.939-2.736 0.549-0.717 1.181-1.516 1.812-2.274 1.050-1.352 2.314-2.613 3.873-3.878 0.802-2.862 1.769-5.938 2.357-7.582 6.658-3.791 16.68-13.521 19.125-13.94 1.686-2.236 3.455-4.593 5.307-7.038 2.528-2.148 5.098-4.379 7.665-6.527 2.741-2.4 5.395-4.758 7.961-6.95 5.015-4.593 9.269-8.929 11.669-12.594 3.285-3.159 4.676-2.4 6.362-3.033-1.895 1.933-4.34 3.83-5.141 5.095 6.362-6.611 21.569-16.088 21.823-19.418 10.023-5.73-3.917 5.517 8.719-3.873l-1.307 1.81c3.369-1.769 6.445-3.577 9.352-5.473 1.434-1.011 2.824-1.981 4.214-2.907 1.726-1.264 3.412-2.528 5.054-3.791l2.104-3.878 1.307-2.654 2.441-5.307c1.56-3.538 3.159-7.076 4.719-10.654 3.159-7.038 6.907-14.785 11.247-21.779 3.033-2.825 7.456-6.615 11.922-9.857-1.895 1.472-2.867 2.148-3.499 2.23 4.593-4.043 9.099-8.253 13.564-12.511l13.604-13.521c9.185-14.698 16.895-27.675 26.328-42.207l2.78-8.549 2.78-7.961c1.895-5.35 3.917-10.532 6.023-15.67 3.076-8.045 3.033-10.572 3.372-14.911 0-1.138 0.041-2.484 0.041-4.088l2.488-1.895 0.237-11.709c1.978-16.258 10.868-26.41 12.677-47.178l-1.935 2.274c1.978-7.16 4.758-22.999 5.98-21.395-0.041-0.844-0.797-2.698 0.549-5.395l1.138 0.031 0.317-2.698 0.593-3.538-1.35-3.873z"></path>
    <path fill="#000000" d="M462.62 549.961c0.802-3.709 0.802-7.626 1.686-11.373 2.863-12.34 7.456-24.345 12.468-35.932 7.076-16.175 13.099-32.477 17.565-49.576 1.22-4.593 1.726-9.269 2.863-13.901 1.181-4.802 3.455-9.269 4.676-14.071 1.098-4.38 1.307-8.803 2.615-13.099 1.473-4.89 3.577-9.477 5.391-14.241 1.978-5.347 3.495-10.698 4-16.341 0.317-3.499-0.12-6.615 0.801-9.943 1.643-5.939 5.011-11.626 7.076-17.479 0.885-2.445 0.842-4.636 1.6-6.994 1.477-4.38 4.214-8.719 6.192-12.933 1.812-3.917 3.372-7.918 5.307-11.752 3.159-6.023 7.076-10.615 12.092-15.077 1.304-1.182 2.907-2.11 4.254-3.203 0.317-0.423 0.549-0.841 0.842-1.219 0-0.594-0.041-1.099 0.801-1.222 2.022-3.074 4.043-6.066 6.276-8.93 1.769-2.274 3.581-3.159 5.939-4.55 1.055-0.676 1.856-1.346 2.615-2.4 4.083-5.138 6.697-11.796 10.192-17.356 4.466-7.033 9.016-14.489 15.038-20.346 6.362-6.149 13.352-11.583 19.587-17.901 13.984-14.197 28.895-26.663 45.915-37.109 4.928-2.995 9.477-6.362 14.193-9.565 1.982-1.302 3.033-1.346 5.015-1.346-1.307 0.587-2.867 0.967-3.917 1.138 1.093-0.157 3.159-0.55 4.589-1.138-0.157 0-0.394-0.031-0.545-0.031 6.319-2.907-3.538-7.076-5.939-8.297-3.159-1.599-6.192-3.495-9.395-4.972-6.488-2.947-13.648-3.704-20.555-5.181-4.719-1.052-9.142-2.103-13.945-2.022-2.611 0-5.181 0.221-7.708 0.72-3.961 0.758-7.626 1.977-11.626 2.059-6.402 0.157-12.807-1.516-19.082-2.484-7.119-1.182-14.323-2.103-21.526-2.022-12.044 0.157-24.050 0.126-36.098 0.031-9.9-0.064-19.504 1.052-29.317 2.4-10.825 1.516-20.175 6.023-30.372 9.857-31.296 11.539-59.477 30.329-86.436 49.663-11.918 8.549-23.841 17.313-33.236 28.686-6.737 8.253-13.225 16.972-19.753 25.4-7.076 9.138-12.597 18.829-17.905 28.978-1.177 2.148-2.441 4.17-4 6.066-2.231 2.739-5.011 5.054-7.033 8.004-6.615 9.647-7.961 22.576-12.427 33.278-3.873 9.391-7.033 18.449-9.352 28.347-1.769 7.372-3.455 14.745-5.181 22.115-3.873 16.471-3.665 33.151-5.307 49.915-1.56 15.587-2.989 31.004-2.78 46.674 0.117 8.637 0.885 17.268 1.055 25.906 0.12 8.511 0.199 16.851 1.347 25.357 2.318 17.399 7.582 34.12 11.247 51.223 1.56 7.412 1.56 15.082 3.538 22.45 1.769 6.741 4.632 13.987 8.045 20.136 2.148 3.917 5.054 7.33 7.247 11.247 2.231 4.043 5.307 15.544 11.33 15.247 1.35 0 2.4-0.885 3.246-1.81 1.473-1.561 2.274-3.538 3.873-5.054 2.066-1.94 4.423-3.917 6.654-5.73 1.224-0.967 2.95-1.472 3.961-2.698 1.434-1.681 2.104-2.862 4.043-4.297 4.466-3.369 9.142-6.402 14.197-8.719 4.632-2.19 8.973-4.589 13.521-6.95 3.917-1.933 6.697-2.862 10.995-3.83 6.358-1.435 13.561-3.455 18.995-7.416 2.065-1.516 3.961-3.285 6.066-4.758 7.373-4.972 15.63-8.384 23.168-13.060 11.291-7.076 19.796-17.565 27.632-28.306 3.246-7.961 7.795-15.121 11.669-22.829 0.885-1.725 1.6-3.539 2.022-5.435z"></path>
    </svg>