<svg xmlns="http://www.w3.org/2000/svg" viewBox="15.718 13.089 992.746 994.907">
    <path fill="#000000" d="M411.657 495.588c0 4.335-2.010 7.037-5.963 7.832-6.345 1.345-9.881-1.209-9.881-7.832 0-3.95 1.906-6.103 5.963-7.077 6.378-2.566 9.881-0.394 9.881 7.077zM401.223 710.088c9.915 7.037 20.732 15.29 33.075 25.067 2.424 3.784 7.835 9.6 16.226 16.643 3.953-1.357 5.963-3.126 5.963-4.855 0.412-8.807 1.49-17.611 2.463-26.279 0.521-13.139-0.972-21.53-3.953-25.482-8.391-9.74-21.668-14.075-40.494-12.723-9.327-0.394-25.171 2.978-25.171 10.018 0 2.181 2.010 4.883 6.482 8.010-0.933 3.36 0.972 6.486 5.408 9.6zM370.643 503.004c0 9.639 5.546 20.179 16.363 31.687 9.223 9.639 19.658 16.538 30.475 21.427 4.473 2.151 10.851 3.087 19.796 2.566 10.817-0.786 16.642-1.209 17.195-1.209 5.408 2.151 14.353 4.717 27.077 7.449 31.549 1.209 66.081-20.594 103.592-65.838 2.983-3.499 4.473-7.458 4.473-11.371 0-8.807-5.963-18.826-17.751-30.335-4.473-5.689-9.881-11.788-16.363-18.411-20.594-10.018-41.846-14.907-64.072-14.907-33.039 0-59.042 10.955-77.867 33.317 0 2.151 0 5.268-0.412 8.807 6.378 0 8.807 2.702 7.871 8.391-2.463 3.399-5.408 5.167-9.361 5.167-2.010 0-7.975-1.248-11.371-1.248-7.835 0-15.843 3.538-24.095 10.434-3.537 4.059-5.547 8.807-5.547 14.075zM346.516 441.679l27.111-21.149c6.898-4.717 17.715-9.6 32.623-14.873 4.335-3.919 11.787-8.255 21.668-12.723 26.003-1.345 63.098-3.538 111.325-6.653 2.047 0 13.417 5.829 19.242 7.598 17.715 4.747 33.559 14.907 46.839 30.197 12.343 14.075 19.762 29.399 22.743 46.041 1.352 6.103 0.972 15.843-2.010 28.567l-8.807 38.484c-5.963 15.843-16.259 27.77-31.167 35.605-16.779 5.268-45.349 15.324-85.704 30.751-5.408 2.151-8.391 6.623-8.391 12.723 0-0.981 1.49 5.689 3.918 19.623 0.933 6.241 5.963 9.219 14.77 9.779 6.482-0.591 12.863-0.591 19.762-0.591 11.787 0.591 27.076-4.747 45.382-15.706 5.408-3.113 11.753-3.538 19.207-0.786 8.287 3.399 12.343 8.667 12.343 15.739 0 0.394-2.983 8.807-8.945 24.511-2.424 0.981-5.825 1.865-10.297 2.702-5.408-0.786-12.307-0.591-21.252 1.769-1.906-2.32-6.898-3.126-14.215-3.126-25.759 0-45.382 5.689-59.736 17.057-1.906 1.769-2.424 5.689-1.49 11.927 1.49 8.807 2.047 13.139 2.047 13.139-0.551 16.226 3.362 24.615 11.753 25.447 2.463-3.113 6.935-6.623 12.897-10.955 5.408-2.181 13.243-8.807 24.615-19.795 11.407-10.539 19.242-15.706 24.651-15.706 5.443 0 10.297 3.919 14.353 12.203-21.772 24.095-50.375 58.765-85.843 103.592-0.551 4.747-1.906 11.786-3.918 20.975-7.315 18.027-10.851 32.935-10.851 44.689 0 2.32 0.933 11.927 2.983 29.399 0.551 11.927-4.473 25.863-15.843 25.863-1.49 0-2.983-0.394-4.888-1.209-11.371-4.894-9.881-15.843-11.371-25.863-3.503-3.538-7.835-9.74-13.279-18.964 0-1.769 5.443-13.139 6.935-16.641 2.424-8.667 2.842-15.739 1.352-21.010-10.297-32.902-23.159-54.016-38.345-63.656l-5.963-13.938c-0.933-1.357-16.779-13.279-47.255-36.022-12.863-9.219-19.346-18.825-19.346-28.983 0-5.689 2.010-11.371 6.482-16.675l2.424-18.411c0.972-2.566 2.983-4.747 6.378-6.486 5.963-2.702 19.762-3.126 41.43-1.357 0.972 0 5.443-1.769 12.863-5.308 7.455-3.499 12.343-5.268 15.323-5.689 5.408 2.181 13.799 3.919 24.651 5.308 0-4.883 4.335-18.028 4.335-24.547 0-11.095-3.953-18.93-35.501-28.949l-32.103-9.219c-21.114-10.954-37.374-32.103-49.127-63.238-8.807-23.714-12.343-41.605-9.915-54.466 2.463-9.464 10.297-20.039 23.159-30.995z"></path>
    <path fill="#000000" d="M770.143 380.068c0.136 7.695-1.63 14.595-1.906 22.051-0.245 3.814 2.184 9.74-3.918 8.531-2.842-0.688-5.546-3.635-7.315-5.405-2.705-2.84-3.362-4.608-6.898-6.898-4.888-3.399-8.009-7.174-13.001-10.435-10.159-6.486-21.114-12.586-30.197-20.316-4.473-3.919-8.391-7.037-6.103-13.279 1.768-4.581 7.315-6.898 10.851-10.401 2.010-2.181 3.64-3.814 6.207-5.72 5.546-4.059 10.991-8.255 16.538-12.447 4.751-3.399 11.511-6.486 15.427-10.575 1.49-1.345 1.49-3.36 2.705-4.717 3.398-3.675 10.297-0.294 13.001 2.151 2.983 2.566 1.906 4.883 2.842 8.010 1.111 3.784 1.768 7.97 1.906 11.649 0.933 15.843-0.136 31.932-0.136 47.809zM634.309 296.486c-4.993-3.919-10.955-7.312-15.567-11.65-1.49-1.209-3.918-2.566-3.536-4.717 3.398-0.786 7.731-0.294 11.267-0.294 4.335 0.097 7.697-0.591 12.031-1.357 5.546-0.981 11.371 0 16.919-0.294 7.211-0.294 14.25-2.84 21.148-4.335 9.083-1.769 17.611-2.045 26.66-2.978 6.103-0.688 12.065-2.045 17.89-3.775 4.057-1.218 8.391-2.84 12.585-2.605 4.473 0.294 4.195 2.181 2.842 5.444-2.15 4.608-3.64 7.97-8.666 10.538-8.528 4.226-16.779 10.018-24.234 15.602-7.176 5.405-13.417 11.511-21.252 16.087-6.761 4.088-13.555 8.146-20.178 12.203-8.945-9.6-17.195-19.623-27.909-27.909zM925.88 160.234c-0.797-1.357-2.010-3.538-3.362-4.471-1.49-0.981-3.674-1.072-5.443-1.769-3.503-1.494-7.418-2.29-11.371-2.978-2.15-0.394-4.473 0.394-6.482 0-1.49-0.394-2.463-1.494-4.195-1.769-2.322 2.978-4.751 5.965-7.176 8.807-2.738 2.978-5.305 5.829-7.731 8.807-1.072 1.357-2.424 4.059-3.778 5.268-2.047 1.631-4.61 3.263-6.794 4.471-2.983 1.769-6.482 2.702-9.603 4.335-7.039 3.538-13.555 8.010-20.178 12.064-11.511 7.037-24.235 13.799-38.449 15.427-4.751 0.591-8.563 1.111-12.897 2.978-4.993 2.045-9.187 4.471-14.595 5.829-7.731 1.631-15.463 1.906-23.055 4.608-3.503 1.072-7.418 2.427-11.233 3.399-0.797 0-1.49 0.097-2.288 0.097-1.352 0.097-2.705 0.197-4.056 0.197l0.521 0.394c-8.113 0.688-15.843-0.294-24.095 1.218-12.723 2.181-25.447 6.241-37.236 10.713-9.083 3.635-15.983 6.337-26.003 7.449-9.881 1.072-19.9 2.015-29.815 3.499-5.687 0.786-11.371 2.84-17.195 3.126-5.271 0.294-10.539-0.097-15.983-0.097-2.705 0-7.975-0.786-10.679 0-3.12 0.981-2.046 0.294-2.842 3.399-0.836 3.263 0.933 7.832 1.872 10.816 3.674 11.65 10.575 22.779 17.89 32.935 4.195 5.829 9.465 11.095 14.907 15.983 4.335 3.919 8.391 8.391 13.001 11.891 6.207 4.883 7.559 12.066 6.345 19.243-0.797 4.993-3.778 7.734-7.975 10.712-14.075 10.159-26.003 22.327-40.217 32.069-11.787 8.146-21.010 17.751-31.307 27.111 6.519-0.394 14.111 3.784 17.89 7.695 3.258 3.538 6.623 6.792 10.297 10.298 2.567 2.566 4.993 7.037 8.666 8.010 10.679-10.991 25.308-19.379 37.652-28.74 8.666-6.623 15.843-14.353 24.651-20.836 2.288-1.631 4.993-3.919 7.697-5.167 2.046-0.786 5.304-0.197 7.455-0.197 5.026 0 10.019 0.097 14.631 2.29 1.352 0.786 2.32 1.631 3.398 2.702 7.697 7.312 14.631 15.047 23.298 21.391 4.473 3.399 8.25 6.103 13.139 8.807 4.195 2.181 6.623 5.308 10.263 8.286 3.536 2.948 7.871 4.059 11.649 6.486 1.906 1.345 3.12 2.978 5.304 4.059 4.61 2.32 5.546-0.688 10.159-0.294 2.15 0.294 3.918 1.357 6.207 1.494 4.61 0.294 8.425 0.786 13.001 1.357 5.963 0.688 17.611 1.769 23.852 0.097 1.63-9.464-0.412-19.346 1.352-28.983 3.12-16.364 2.842-33.039 5.271-49.682 1.906-13.554 2.842-27.492 4.473-41.188 1.49-13.001-0.412-26.244 1.215-39.245 1.49-2.605 2.983-5.167 4.335-7.871 3.258-5.829 5.304-12.066 8.666-17.751 8.528-15.011 21.287-29.644 35.364-40.633 11.787-9.052 24.235-16.919 36.681-25.307 5.166-3.538 9.639-7.734 14.77-11.095 3.536-2.32 7.315-4.226 10.991-6.376 3.225-1.906 10.159-5.128 11.233-8.943 0.521-2.29-0.836-4.608-2.047-6.486z"></path>
    <path fill="#000000" d="M259.459 346.751c-2.463 3.36-10.713 11.65-15.739 7.037-0.656-0.688-1.352-9.219-1.594-10.575-1.111-4.335 0.136-8.667-0.412-12.863-0.551-3.113-1.768-4.196-2.983-6.898-1.352-3.113-1.074-6.103-1.906-9.219-4.195-13.556-8.807-27.215-13.139-40.773-3.087-9.188-6.482-17.196-7.835-26.799-0.136-1.209-0.412-2.32-0.551-3.538 1.352 1.906 3.398 3.538 5.166 4.608 1.594 0.981 3.225 0.981 4.993 1.494 1.215 0.294 1.768 0 2.842 0.688 0.836 0.197 2.424 2.702 2.983 3.223 4.751 4.471 9.603 8.807 14.353 13.279 4.195 4.059 8.009 8.391 11.649 12.863 6.378 7.598 15.983 14.353 24.234 20.316 1.63 1.209 3.674 2.32 4.888 3.814 4.888 5.68 4.056 19.346-3.674 22.604-4.993 2.151-8.25 3.499-12.031 7.312-4.056 4.196-7.731 8.807-11.233 13.418zM428.48 404.291c-4.751-7.734-10.159-15.047-15.74-22.223-15.29-19.484-33.7-38.588-54.153-53.911-9.603-7.419-10.851-24.234-3.778-33.039 1.594-2.015 3.225-3.919 4.473-6.21 1.594-2.978 1.872-6.516 3.778-9.219 3.918-5.689 10.435-5.965 10.679-13.554 0.136-5.965-2.288-6.623-6.623-10.679-3.503-3.263-7.315-2.32-12.169-2.32-2.6 0-5.583 0.294-8.287 0-2.567-0.197-4.61-1.494-7.315-1.631-4.057-0.097-12.031-1.072-15.29 0.981-2.046 1.209-2.184 3.263-2.842 5.128-1.352 3.814-3.918 7.037-5.546 10.713-2.046 5.128-4.335 10.955-5.166 16.78-6.345-4.335-12.585-8.807-18.41-13.66-6.898-6.241-10.297-13.417-15.047-20.871-3.087-4.855-6.207-9.74-9.743-14.491-1.074-1.494-1.768-2.427-3.64-3.126-2.322-0.786-2.6 0.097-3.398-1.73-1.49-3.399 0.697-14.908 5.271-15.983 2.322-0.688 4.888 1.73 6.794 2.84 10.401 5.829 25.031 7.174 36.958 8.913 3.918 0.591 7.455 2.045 10.297 4.335 0.551-0.097 1.215-0.097 1.768-0.097 4.61 0.491 8.807 1.592 13.659 1.592 4.335 0 8.945-0.394 13.279-0.197s8.113 1.73 12.203 2.978c6.207 1.865 11.891 5.553 18.271 7.695 8.113 2.978 17.058 1.357 22.743-4.855 2.842-2.978 4.751-6.653 7.593-9.779 2.842-2.978 3.12-5.689 1.63-9.464-1.906-4.883-5.546-9.080-11.095-10.575-6.103-1.865-12.759-2.151-18.826-3.775-10.297-2.566-20.732-4.883-31.029-7.312-16.919-4.196-34.391-9.503-51.727-11.788-5.963-0.786-12.203-1.209-17.89-3.113-6.345-2.29-11.891-5.268-18.687-6.623-4.61-0.981-9.187-1.769-13.937-2.32-3.815-0.394-10.297 0.394-13.833-0.981-2.288-0.786-1.49-0.294-3.087-2.29-2.046-2.605-4.090-5.032-6.935-7.037-3.362-2.32-7.559-4.608-11.371-6.241-4.335-2.045-8.945-2.566-13.383-4.608-6.656-2.978-13.834-6.103-19.796-9.74-4.335-2.702-8.25-4.883-13.139-6.653-5.547-1.865-10.955-3.775-13.001-8.913-0.797-1.631-0.797-3.675-1.872-5.308-0.972-1.631-2.983-2.702-4.195-4.196-2.184-2.29-3.815-4.883-6.519-6.762-6.623-4.471-15.427-5.965-22.223-10.434-5.408-3.399-14.353-7.449-18.826-1.494-3.64 4.608-3.503 8.255-3.362 13.937 0.136 4.196 1.49 8.667 5.825 10.991 1.352 0.688 3.12 0.786 4.473 1.631 4.473 3.223 4.473 9.882 8.113 13.799 3.64 3.784 5.271 8.667 9.361 12.066 2.842 2.566 6.623 4.855 9.881 6.898 2.983 1.769 6.761 2.566 9.465 4.608 3.12 2.151 6.103 6.103 8.666 8.807 3.258 3.635 6.241 7.832 9.361 11.65 0.383 2.29 1.074 4.717 2.010 7.174 1.352 3.499 4.61 17.335 3.398 10.020 1.906 7.558 5.408 15.151 7.455 22.743 4.855 18.964 8.25 38.206 13.279 57.136 2.010 8.010 5.408 15.739 7.177 23.991 2.424 11.511 4.993 22.604 7.835 34.115 3.258 12.586 4.888 26.419 10.297 38.345 1.074 2.29 2.705 4.471 3.536 6.898 1.074 3.263 0.245 6.486 0.797 9.74 0.697 3.399 3.536 5.268 4.888 8.255 0.933 2.32 2.010 4.335 3.362 6.516 3.12 4.335 11.927 4.471 16.675 1.906 4.993-2.84 7.177-8.286 11.649-11.786 5.547-4.471 10.817-9.219 16.226-13.834 6.794-5.553 14.111-10.539 21.287-15.567 5.963-4.059 13.521-7.97 15.706-14.907 1.49-4.855 2.010-10.679 8.945-12.031 3.778-0.786 6.067 2.015 8.807 3.784 2.983 1.906 6.482 3.399 9.048 5.829 1.768 1.631 3.12 3.538 4.751 5.405 5.546 6.928 12.343 12.863 16.538 20.732 2.288 4.196 3.918 8.807 6.067 13.139 2.983 5.544 5.443 9.74 12.481 10.818 1.768 0.294 3.778 0 5.271 0.786 4.056 1.906 2.983 7.449 2.983 10.816 0 4.747 0.933 10.575-0.412 15.186-0.245 1.072-2.705 3.919-2.567 4.855 0.276 2.466 5.687 0.394 7.455-0.097 2.424-0.786 3.778-3.113 6.103-4.088 1.872-0.688 3.12-0.491 4.993-0.786 13.279-1.494 24.235-9.464 35.364-15.567 0.521-3.399-2.463-6.103-4.057-8.667z"></path>
    </svg>