<svg xmlns="http://www.w3.org/2000/svg" viewBox="37.593 15.493 944.745 1056.889">
    <path fill="#000000" d="M251.475 744.593c-0.444 0.105-1.196 0.317-1.755 0.424-8.325 2.613-16.913 7.133-24.941 11.088-5.264 2.613-10.64 4.963-15.905 8.032-6.981 3.915-7.728 10.939-10.044 17.621-1.196 3.81-3.212 7.017-6.161 9.779-2.913 2.91-6.833 4.668-9.445 7.875-2.052 2.466-2.949 6.276-2.949 9.334 0 4.371-0.413 9.187 0 13.404 0.593 3.354 1.493 6.72 2.052 10.074 0.593 3.059 0.147 6.276 0.593 9.483 0.858 3.915 3.771 9.037 5.376 12.957 1.308 3.366 2.8 6.276 5.264 8.922 5.824 6.424 10.044 13.852 15.756 20.422 4.069 4.371 8.437 8.139 12.844 12.097 3.324 3.207 6.384 7.133 9.894 10.789 3.212 3.059 6.123 6.276 10.081 8.435 4.965 3.059 10.641 5.112 15.868 7.875 11.089 5.566 22.029 9.631 33.565 14.149 10.044 3.958 19.676 7.875 30.054 10.789 9.036 2.646 17.772 5.566 26.097 10.234 5.376 3.207 11.089 6.127 17.062 8.583 7.579 2.763 15.457 5.419 22.886 8.922 6.72 3.175 13.441 4.668 20.721 5.97 10.641 2.169 21.132 4.371 31.51 6.985 11.052 2.91 21.281 2.91 32.781 2.91 11.537 0 23.485 0.636 35.318-0.105 10.492-0.741 21.281-2.613 31.773-4.519 9.334-1.461 17.958-4.932 27.142-7.133 9.633-2.202 19.265-2.763 28.861-5.419 10.081-3.059 20.422-6.678 31.213-7.99 9.036-0.847 17.361-3.207 26.134-6.012 11.797-3.619 24.045-5.82 35.73-9.748 9.745-3.514 19.228-7.725 28.562-11.984 7.579-3.471 15.158-6.276 22.477-10.79 9.184-5.97 17.772-13.104 25.798-20.533 12.844-11.537 25.949-23.074 36.626-36.627 10.193-12.693 18.929-26.845 20.684-43.159 0.751-6.424 1.308-12.993 1.456-19.265 0.444-5.82 3.36-11.649 1.605-17.621-1.005-3.207-3.36-6.573-5.376-9.219-1.755-2.91-4.517-4.932-6.72-7.578-2.052-2.317-3.061-5.229-5.264-7.429-2.165-2.317-5.228-3.915-8.14-5.524-4.517-2.91-7.317-6.72-11.237-10.074-3.659-2.613-8.028-4.222-11.797-6.72-3.061-1.715-5.713-4.371-8.773-6.127-2.612-1.461-4.965-2.010-7.28-3.619-6.72-4.519-14.001-3.514-22.326-3.514h-14.86c-2.913 0-7.168-0.424-9.781 0.317 0 2.317 2.464 2.466 4.517 3.366 3.659 1.715 6.273 3.619 9.633 5.524 2.464 1.461 5.376 2.613 7.728 4.519 2.204 1.608 3.509 3.661 5.525 5.259 1.755 1.302 3.958 2.022 6.012 3.059 3.621 2.169 6.684 4.963 10.341 6.837 5.264 3.207 8.588 5.566 12.693 9.631 3.92 4.107 9.744 6.276 13.553 10.381 4.965 5.82 4.965 15.158 4.965 21.842 0 8.181-2.764 14.747-5.563 22.326-2.464 7.017-4.929 14.897-9.333 21.281-3.324 4.815-6.533 5.566-12.245 8.181-7.429 3.059-13.404 7.164-21.132 9.631-8.624 2.349-17.51 3.915-25.949 5.97-8.624 1.905-17.062 2.349-25.686 3.958-9.932 2.010-19.974 4.222-29.906 6.424-56.413 12.097-115.627 28.711-174.691 23.894-7.728-0.529-15.605-1.608-23.334-2.763-8.177-1.302-16.204-0.741-24.529-0.847-7.579-0.105-15.457-1.302-22.886-2.763-6.572-1.461-13.404-1.154-19.825-3.059-3.958-1.058-7.28-3.207-11.089-4.519-12.693-4.371-26.545-1.608-39.538-4.519-8.885-2.052-17.622-4.815-26.545-6.72-5.675-1.302-10.789-3.324-16.017-5.673-5.563-2.466-11.388-3.661-17.062-5.524-5.972-2.052-10.528-5.259-16.801-6.573-6.533-1.461-11.797-5.112-17.622-8.625-5.824-3.059-10.492-6.837-15.158-11.5-3.061-3.366-7.729-7.875-9.932-11.836-4.668-8.89-3.808-19.973-1.456-29.457 1.456-5.673 1.308-13.553 3.92-18.817 1.196-1.757 2.652-2.613 4.107-3.915 4.069-3.366 6.273-8.89 9.184-13.404 3.771-6.159 8.736-6.159 15.157-8.922 5.974-2.613 10.789-6.127 16.353-9.631-1.047-3.207-4.816-2.317-7.728-2.317-4.816 0-8.325 1.154-12.693 2.613z"></path>
    <path fill="#000000" d="M287.502 778.156c0.117-1.197 0.413-2.202 0.708-3.366 2.913-10.789 6.273-21.728 8.476-32.818 1.868-8.89 2.016-18.069 1.868-27.293 0-3.324 0-6.276 1.605-9.334 3.212-5.97 1.047-10.941 0.9-17.773 0-9.483-0.9-17.062-4.517-25.949-2.501-6.573-6.421-10.939-10.528-16.652-6.384-8.286-12.956-16.017-19.974-23.893-5.077-5.715-10.341-11.388-16.166-16.502-8.923-7.429-18.518-11.5-29.197-16.017-13.553-5.863-25.649-13.741-38.045-21.73-10.081-6.573-19.414-14.897-27.405-24.23-7.467-8.435-14.149-17.361-18.817-27.702-2.501-5.673-3.509-11.537-5.712-17.212-1.456-4.222-3.621-8.032-4.816-12.246-8.289-25.836-6.684-54.247-1.456-80.644 3.808-19.712 11.388-42.301 26.246-56.451 2.652-2.349 4.556-5.524 7.317-8.022 2.612-2.052 5.116-3.915 7.579-6.127 5.376-4.668 11.797-8.181 15.605-14.3-1.157 3.059-4.219 5.566-5.972 8.477-5.413 10.044-8.177 21.281-13.701 31.213-1.904 3.207-4.107 5.82-5.264 9.187-2.052 4.519-2.464 9.037-2.612 13.701-0.297 6.72-1.196 13.404-2.501 19.974-2.764 13.292-1.605 27.853 1.308 41.143 1.344 6.678 4.517 12.693 7.168 18.817 3.509 6.837 5.675 14.149 10.044 20.685 9.781 14.3 22.625 29.606 37.783 38.641 6.273 3.958 13.253 7.471 19.974 10.941 3.958 2.202 8.177 3.81 12.097 6.012 3.212 1.715 6.012 4.371 9.334 5.97 4.965 2.466 10.677 5.82 15.905 7.875 7.429 2.763 15.756 3.059 22.477 7.875 2.612 1.863 4.668 4.065 7.132 5.673 3.808 2.202 8.177 3.661 11.836 5.98 3.771 2.349 6.833 5.259 10.193 8.181 6.123 5.82 12.693 9.927 17.51 17.062 2.913 4.222 5.675 8.583 8.437 12.843 2.501 3.915 5.563 7.133 8.177 10.789 3.808 5.82 5.525 12.246 7.729 18.668 2.764 7.578 6.572 14.301 7.019 22.738 0 2.498-0.444 5.259 0 7.875 0.413 3.661 2.315 7.133 3.061 10.789 2.315 12.694-1.196 25.238 0 37.933 0.858 11.237 0.708 22.438 0.708 33.825-0.297 9.927 2.203 18.668 3.659 28.301 1.157 7.725 3.061 15.457 3.92 23.036 1.047 6.72-0.147 13.404 0.147 20.125 0.444 3.661 1.456 8.181 2.613 11.798 0.444 2.202 3.099 6.573 0.9 8.181-0.751 0.636-2.352-0.105-3.36 0-1.456 0.424-1.904 1.302-3.212 2.052-3.509 1.608-7.429 0-11.237 0.847-2.016 0.424-3.324 1.757-5.077 2.349-1.755 0.424-3.808 0.105-5.713 0.105-3.36 0-5.972-0.105-9.184-1.058-7.579-1.715-14.709-5.673-22.177-7.875-7.28-2.169-14.709-2.613-22.14-4.222-3.958-1.058-5.861-3.619-9.484-5.112-1.904-0.847-3.212-1.154-4.816-2.317-1.605-1.302-4.069-2.91-5.264-4.668-1.605-1.757-1.308-4.222-1.308-6.72 0-2.169 0.147-3.768 0.751-5.97 0.561-2.317 0.561-4.815 1.456-6.985 3.472-8.773 5.675-17.509 8.028-26.546z"></path>
    <path fill="#000000" d="M642.187 818.106c-6.012-8.73-9.932-18.966-13.74-28.748-4.069-10.192-10.641-18.781-14.71-28.861-5.563-12.694-11.685-25.090-14.748-38.791-2.913-12.245-1.456-25.238-1.456-37.783 0-10.789 0.751-21.281 1.308-31.921 0.147-6.276 1.755-11.537 3.659-17.362 1.755-5.97 2.913-11.947 4.517-17.957 1.755-5.98 4.108-12.097 6.72-17.922 2.612-6.424 7.28-11.684 10.044-17.921 8.624-19.265 24.081-34.422 42.898-43.494 6.981-3.324 14.149-5.376 21.281-8.139 5.116-2.052 9.781-4.371 14.897-6.276 5.228-2.052 10.492-1.058 15.717-3.514 4.556-2.349 8.773-5.82 13.441-7.429 3.212-1.154 6.273-1.302 9.184-2.349 4.517-1.757 8.588-4.222 13.253-6.424 6.421-2.91 14.897-3.927 21.878-2.466 2.353 0.317 4.816 1.154 7.318 1.608 9.894 1.608 20.534 0.636 30.317 3.059 5.563 1.461 10.641 1.461 15.905 4.371 7.132 3.81 11.5 9.631 17.66 14.598 5.675 4.668 11.052 9.187 16.316 14.3 3.36 3.059 6.572 6.276 9.781 9.748 2.016 2.349 4.219 4.668 6.421 7.164 2.913 3.366 5.974 6.837 8.885 10.339 5.824 6.868 8.588 13.852 10.94 22.476 1.755 6.531 1.904 11.798 1.904 18.369-0.147 5.112 0.561 10.339-0.297 15.457-0.751 3.768-1.456 7.429-2.052 11.238-0.444 2.466 0.147 5.229-0.708 7.578-0.9 3.059-3.212 5.673-4.405 8.73-1.605 4.815-1.717 12.544-5.675 16.205-0.593-2.646-0.297-5.715-0.297-8.625 0-6.127 0.444-12.544-0.147-18.667-1.456-16.317-9.745-33.379-18.518-47.080-3.212-5.259-6.981-10.074-10.341-15.196-4.517-6.837-8.177-14.709-15.158-19.377-6.572-4.222-14.001-5.82-20.721-10.074-7.729-4.815-15.605-8.89-24.79-9.631-10.64-0.847-19.526 2.052-29.757 4.551-8.437 2.169-17.212 4.222-25.537 7.429-6.684 2.613-13.404 5.673-20.236 8.169-16.502 6.234-30.95 21.133-40.434 35.581-7.579 12.097-14.261 24.941-19.825 38.045-2.165 5.259-5.376 10.381-6.981 15.756-1.904 5.82-1.308 11.798-1.308 17.661-0.147 6.837 1.605 13.404 3.061 20.125 1.156 5.229 2.315 10.192 4.368 15.008 4.965 11.836 9.894 23.485 16.316 34.573 5.712 10.339 14.897 15.607 23.037 23.334 5.264 4.963 10.528 8.73 14.3 14.861 3.212 4.963 3.36 11.237 4.108 16.801 0.858 5.82 3.771 12.508 2.464 18.667-1.605 7.578-11.537 12.509-17.361 17.062-4.368 3.471-8.588 6.837-13.701 9.037-6.72 2.91-13.852 2.466-20.721 4.815-3.92 1.461-4.517 1.863-6.684-1.905-2.204-3.81-5.264-4.668-8.923-6.868-3.212-2.010-6.273-4.371-8.885-7.133-1.456-1.608-2.612-3.207-3.771-4.815z"></path>
    <path fill="#000000" d="M576.962 810.974c-0.858-1.757-1.456-3.81-2.165-5.566-3.659-8.032-9.633-14.861-15.158-21.429-7.317-8.477-13.74-16.614-19.414-26.247-11.649-18.668-25.537-37.634-32.966-58.653-7.878-22.588-12.097-47.379-14.149-71.161-0.858-12.245-2.016-24.492-2.016-36.738 0-12.993 1.156-25.537 1.308-38.342 0.708-22.775 7.132-42.45 16.764-62.872 4.069-8.89 8.028-16.913 13.553-24.789 2.652-3.514 4.965-6.573 6.123-10.488 3.36-9.334 11.388-16.652 16.353-24.791 15.158-23.782 30.614-47.117 43.458-72.205 12.396-24.193 23.782-48.274 25.949-75.677 0.751-10.381 1.047-20.013-3.212-29.606-4.668-9.631-7.878-19.266-11.5-29.346-6.869-18.781-13.441-38.194-26.545-54.098-6.869-8.286-13.852-16.765-21.169-24.791-6.384-6.985-13.701-13.403-21.43-18.966-10.044-6.985-21.581-11.052-33.229-14.412-9.484-2.805-18.668-4.403-27.293-9.334-6.421-3.661-11.948-3.958-19.526-3.958-11.836 0-23.073 0-34.722-0.847-6.72-0.636-13.292-0.424-19.974-0.424-4.108 0-9.036-0.741-12.993 0.424-6.572 1.905-7.878 7.875-12.844 11.499-1.868 1.344-4.069 1.905-6.124 2.805 3.212 0.847 5.974 0.847 9.333 1.461 5.713 1.058 10.94 3.207 16.801 4.222 7.28 1.058 14.561 2.613 21.58 3.915 3.212 0.636 6.273 1.608 9.333 2.052 5.824 0.847 10.94 0 16.465 1.757 4.219 1.154 5.824 3.059 9.483 5.112 2.764 1.608 5.675 2.763 8.476 3.915 8.437 3.661 16.614 8.773 24.045 13.852 6.72 4.371 14.149 5.97 20.87 10.234 3.621 1.863 7.28 3.915 10.492 6.688 2.612 1.905 4.368 4.519 6.72 6.72 2.315 2.202 5.525 3.207 7.989 5.259 2.501 2.022 4.556 4.371 6.72 6.531 4.219 4.107 9.484 8.329 12.097 13.589 3.958 7.578 6.572 16.464 7.878 25.089 0.593 3.768 1.308 6.837 1.308 10.642-0.264 5.524 1.493 10.339 1.493 15.904-0.297 4.668-0.593 9.598 0.117 14.261 0.751 3.81 1.047 7.017 1.047 10.939 0 5.259-1.456 8.477-3.212 13.142-1.605 4.075-0.593 8.435-2.764 12.545-2.353 4.815-3.061 10.044-6.123 14.56-1.605 2.805-3.808 4.963-5.264 7.62-1.904 3.768-1.904 7.725-2.612 11.648-0.444 3.81-1.904 8.032-3.36 11.685-2.353 6.381-6.421 11.798-9.781 17.772-6.273 10.339-11.537 21.021-18.22 30.765-8.923 13.142-19.414 24.941-28.749 37.634-7.728 10.64-15.756 21.43-23.334 32.37-11.5 16.502-22.886 32.966-31.922 50.925-9.932 19.078-10.38 40.658-15.905 61.079-5.264 19.414-2.913 40.397-2.913 60.409 0 20.833 1.755 41.405 3.659 62.125 1.456 16.316 1.868 33.527 5.525 49.581 4.517 18.966 13.253 37.037 23.037 53.949 3.36 5.98 8.773 10.642 10.94 17.362 1.755 5.376 3.36 11.237 4.965 16.912 2.464 7.725 2.612 16.353 6.72 23.633 2.016 3.354 4.816 6.424 8.437 7.875 3.659 1.461 6.124 3.366 9.333 5.524 2.203 1.461 3.659 1.905 6.123 2.656 1.904-0.105 3.509 0.424 4.965 1.715 1.308 1.197 2.764 2.202 4.368 2.498 3.659 0.741 8.923-0.105 12.545-0.105h19.265c7.878 0 15.605 0.317 23.485 0 4.069-0.105 8.289-2.052 12.545-2.91 3.324-0.847 7.579-2.202 11.089-3.661 2.016-1.058 4.069-2.169 6.123-3.768 2.464-1.344 5.077-2.349 7.728-3.354 3.472-1.608 6.533-3.81 9.894-5.715 4.257-2.613 7.728-1.154 12.245-2.010 1.456-3.958-0.264-9.334-2.913-12.396-3.36-4.107-6.833-8.032-9.745-12.693-2.352-3.81-4.405-8.181-7.468-11.685-2.315-2.613-5.228-4.815-7.28-8.286-0.147-0.317-0.297-0.847-0.751-1.461z"></path>
    </svg>