<svg xmlns="http://www.w3.org/2000/svg" viewBox="128.757 13.075 645.608 1060.871">
    <path fill="#000000" d="M373.257 544.579c-1.024 11.36 2.751 18.623 8.864 28.479 15.616 25.248 37.374 44.895 51.871 71.005 16.863 30.368 31.135 62.238 46.11 93.629 14.751 31.007 36.511 57.118 56.766 84.735 12.383 16.895 25.248 33.374 37.631 50.27 6.753 9.375 12.863 19.103 19.359 28.608 0.991 1.253 8 12.511 11.743 15.519 15.008 12.096 23.648 28.351 34.495 44.094 5.152 7.266 11.776 16.896 18.752 22.751 3.264 2.53 8.768 6.405 12.639 7.874 6.753 2.403 12.511-5.252 15.743-9.984 3.393-4.99 7.135-10.751 5.887-17.12-1.024-4.898-5.504-10.24-7.872-14.496-5.024-9.376-8.127-18.624-10.88-28.895-3.008-10.847-9.247-19.616-14.016-29.728-4.864-10.143-9.856-18.272-17.376-26.495-18.496-20.255-29.6-48.383-40.863-73.022-12.992-28.609-27.488-55.998-42.015-83.741-6.495-12.511-13.248-25.503-18.72-38.494-5.761-12.992-9.151-26.752-14.399-40-6.111-15.998-17.247-29.631-24.991-44.989-5.761-11.648-11.36-22.623-18.879-33.247-2.625-3.872-5.633-7.393-8-11.263-3.871-5.859-6.495-12.257-10.495-17.984-1.855-2.622-4.128-5.152-5.761-8.001-1.601-2.749-2.369-5.252-4.608-7.647-3.616-3.745-9.503-5.506-14.016-8.001-10.976-5.986-24.863-11.872-37.598-13.12-14.016-1.379-34.88 1.759-40.51 16.991-2.625 7.266-3.871 20.126-1.377 27.263 1.631 4.254 4.864 6.621 7.135 10.241 1.983 3.647 1.855 15.393 5.376 4.771z"></path>
    <path fill="#000000" d="M585.251 439.813c-2.015-7.23-1.505-14.751-3.264-21.984-3.488-15.519-12.256-34.014-25.12-46.142-3.136-2.849-7.135-4.862-10.623-7.483-10.24-8.127-11.487-21.247-17.119-31.487-4.64-8.508-9.121-15.519-18.143-21.504-6.753-4.508-12.992-8.508-18.111-14.623-23.135-26.879-27.615-61.374-40.127-91.741-3.744-9.025-5.504-18.528-9.121-27.647-2.368-6.113-6.143-12.129-7.616-18.496-2.879-11.872-4.896-25.502-5.376-37.631-0.254-6.749 2.111-13.855 1.377-20.607-0.898-7.393-4.896-4.254-8.256-0.273-4.64 5.506-10.367 12-13.248 18.24-5.504 12.256-7.648 25.375-12.896 37.63-3.616 8.645-8.001 16.991-11.615 25.503-2.239 5.506-3.232 11.263-6.239 16.512-2.497 4.354-39.263 55.102-52.767 34.752-9.727-14.623-0.992-29.504-6.239-44.512-1.759-4.862-5.248-9.503-6.239-14.497-0.509-2.885 1.12-6.621-3.521-6.267-1.601 0.091-4.48 2.749-5.6 3.647-6.881 6.367-7.135 16.863-8.64 24.862-2.879 15.617-9.247 30.016-12.863 45.503-1.759 7.138-4.64 11.137-9.121 16.863-2.879 3.647-4.384 8.897-6.271 13.12-3.616 8.508-2.369 19.391-2.879 28.511-0.735 10.495-0.354 21.76-2.239 32.127-0.735 4.381-2.239 8.989-3.871 13.503-2.016-5.379-4.128-10.623-7.007-15.616-6.111-11.137-4.736-22.624-7.487-34.624-2.015-8.508-7.007-15.903-7.744-24.255-4.767 0-6.143 7.103-7.007 9.983-2.751 8.127-4.991 16.385-7.487 24.639-5.024 16.128-5.504 32.479-2.401 48.863 1.759 9.632 3.52 23.872-2.111 33.375-2.145 3.483-4.767 6.24-5.887 10.241-3.616 11.904-0.861 26.144 1.759 38.143 2.751 12.48 4.736 25.76 12.128 36.991 3.744 5.887 7.359 11.009 9.632 17.504 1.983 5.506 3.103 10.881 6.625 15.871 2.625 3.745 6.495 6.24 9.503 9.76 2.497 3.101 3.488 6.876 5.471 10.367 1.024 1.759 2.273 3.356 3.521 4.99 1.855 9.632 0.609 21.888 5.857 30.496 5.152 8.253 9.888 17.504 19.392 22.751 11.743 6.278 20.864 14.497 29.983 23.135 9.375 8.862 28.384 6.367 22.528 0.636-5.376-5.252-12.128-9.599-15.999-15.743-3.521-5.379-3.776-11.615-4.767-17.504-1.248-6.849-3.36-13.728-4.512-20.736-1.472-8.989 0.509-16.991 2.015-25.888 1.759-10.241-0.509-20.479-6.367-29.504-7.52-11.233-7.135-22.112-6.143-34.624 0.381-4 2.273-7.103 2.879-10.975 0.771-5.761-0.254-12.128-0.254-18.015 0.127-15.999 0.898-30.624 4.512-46.367 3.008-12.992 4.256-26.24 7.487-39.136 1.505-6.494 4.896-12.352 7.007-18.495 2.015-6.24 1.631-13.376 4.256-19.231 3.744 1.986 6.881 8.735 9.375 12.48 4.256 6.013 8.384 11.263 13.631 16.767 4.736 4.99 6.753 8.353 13.983 10.975 3.745 1.28 6.753 2.013 10.017 3.9 4 2.113 6.625 5.596 11.743 5.733 1.631-1.632 0.992-4.354 1.248-6.494 0.609-4 2.369-8.127 3.36-12.128 2.145-9.632 4.512-19.103 7.135-28.608 3.264-11.519 7.616-22.4 11.743-33.76 1.377-3.872 1.887-12.864 6.753-14.497 7.616 14.879 9.632 32.607 13.759 48.383 4.256 15.871 7.487 27.999 20.479 39.487 10.271 9.247 18.015 19.744 23.776 31.263 7.231 14.497 10.367 29.728 18.496 43.998 4.991 8.862 11.232 17.472 15.488 26.622 4.895 10.623 7.135 22.495 10.88 33.375 3.871 11.615 8.256 22.719 13.759 33.856 4.352 9.12 8.48 17.759 11.232 27.263 1.631 5.723 5.024 12.607 8.256 17.856 0.991 1.253 12 16.639 12.383 16.256 3.744-3.619 7.487-9.887 9.727-14.239 6.401-12.64 9.888-26.368 10.752-40.256 2.016-30.624 6.625-61.117-1.601-91.133z"></path>
    </svg>