<svg xmlns="http://www.w3.org/2000/svg" viewBox="265.593 -48.528 491.373 1120.978">
    <path fill="#000000" d="M676.83 978.51c0.136-24.927-5.545-49.167-6.506-74.090-0.231-6.369-0.407-12.926-1.557-19.199-0.638-3.758-2.062-7.287-2.841-11.046-1.97-9.44-3.345-19.654-3.436-29.37 0-6.689-0.827-13.012-1.234-19.658-0.176-3.113-0.773-4.944-3.712-3.023-2.246 1.468-4.354 3.252-7.011 4.629-6.689 3.481-11.134 7.148-16.267 12.601-8.477 9.027-18.603 13.973-29.371 19.839-8.889 4.858-17.366 9.99-26.484 14.432-13.288 6.46-26.668 12.696-39.681 19.615-10.173 5.403-19.612 11.772-29.6 17.41-9.713 5.499-17.962 12.279-27.126 18.559-10.951 7.421-23.093 13.929-34.961 19.701-7.376 3.572-14.021 4.81-21.902 6.829-12.097 3.113-23.964 4.901-36.382 6.551-6.919 0.922-13.746 2.062-20.619 3.299-3.207 0.596-7.744 0.502-10.493 2.29 1.513 0.434 3.024 0.149 4.582 0.285 5.407 0.38 11.18 2.658 16.495 3.806 18.328 3.893 37.023 6.92 55.626 9.161 19.428 2.386 38.535 5.408 57.872 8.2 21.078 3.070 42.201 2.156 63.415 2.156 19.199 0 38.581 0.963 57.734 0.244 15.442-0.596 31.158-5.499 45.408-11.228 7.285-2.888 17.641-5.312 18.053-1.97z"></path>
    <path fill="#000000" d="M635.289 707.256c0-15.211 0-30.379 0-45.59 0-5.91 0.136-11.821 0.091-17.731-0.091-6.141-1.328-12.146-1.466-18.329-0.176-7.196-1.058-14.207-1.288-21.398-0.325-8.936 1.139-17.367-3.207-25.478-0.867-1.602-1.557-2.883-2.703-4.442-2.841-3.806-2.566-3.758-5.499 0.097-5.27 6.871-11.821 13.652-17.733 19.978-3.207 3.433-6.002 6.962-8.843 10.673-3.116 4.169-7.103 7.427-10.86 10.955-10.402 9.85-19.52 20.983-29.829 30.881-10.768 10.31-23.598 17.918-37.16 23.966-13.838 6.141-27.034 13.604-40.047 21.394-11.867 7.105-22.865 15.766-35.694 20.897-7.193 2.841-13.701 6.642-21.261 8.522-4.445 1.098-8.66 2.2-13.013 3.712-8.614 2.936-16.724 4.998-25.705 6.689-3.894 0.732-8.156 1.152-11.867 2.658-0.407 3.161 0.046 6.689 0.046 9.808 0.091 12.51-0.502 24.742-2.612 37.069-1.787 10.31-2.658 19.883-2.658 30.379-0.176 4.031-0.091 8.109 0.271 12.141 0.638 2.29 1.328 4.629 2.153 6.871 0.556 2.979-0.922 6.78 2.795 7.559 0.827-0.244 1.557-0.556 2.244-1.003 4.169-1.058 8.339-2.018 12.508-2.845 13.38-3.203 25.064-7.972 37.069-14.48 11.363-6.182 23.689-9.984 34.595-16.952 13.426-8.522 26.668-17.592 40.688-25.157 10.631-5.724 21.719-10.353 32.533-15.623 10.035-4.901 20.023-10.128 29.829-15.441 6.598-3.578 11.914-7.33 17.916-11.826 7.239-5.403 15.716-8.014 23.644-12.094 4.079-2.156 7.103-5.27 10.448-8.388 4.123-3.754 6.828-9.209 10.081-13.7 1.557-2.2 6.598-7.283 14.525 6.232z"></path>
    <path fill="#000000" d="M614.528 476.247c-5.865 1.139-5.040-10.172-5.498-13.886-0.922-7.102-2.2-14.111-2.337-21.26-0.136-8.019-0.231-15.072-1.742-22.953-1.003-5.18-1.742-10.31-2.062-15.627-0.325-4.673-1.696-8.889-2.612-13.428-1.003-4.763-2.153-9.759-2.704-14.571-0.231-2.152 0.638-5.312-1.42-6.92-2.337 1.515-4.949 2.065-7.285 3.487-3.207 1.97-6.048 5.174-9.026 7.512-3.070 2.381-6.232 4.538-9.301 6.92-5.132 4.031-10.401 7.881-15.808 11.5-7.469 4.996-15.671 8.297-23.369 12.787-9.896 5.771-18.878 13.012-28.776 18.874-9.485 5.637-19.703 10.085-29.371 15.445-10.722 5.953-22.452 10.032-33.541 15.259-10.264 4.763-21.261 10.444-32.349 12.921-5.086 1.139-8.98 2.472-13.655 4.491-2.153 0.908-4.81 0.963-6.323 2.792-2.153 2.52-1.234 6.598-1.193 9.578 0.046 8.019-1.288 15.9-1.42 23.918-0.136 9.44 0.461 18.878-0.046 28.27-0.231 4.629-1.234 8.66-1.193 13.331 0.046 7.469 0.231 14.986 0.046 22.455-0.091 3.39-2.474 8.842-1.234 11.96 1.193 0.38 2.153 0.189 3.345-0.047 4.399-0.867 8.889-3.161 13.243-4.308 10.127-2.702 19.794-7.741 29.279-12.185 12.83-6.097 24.239-14.389 36.61-21.308 12.051-6.689 23.46-14.437 35.19-21.628 9.348-5.728 19.199-10.583 28.684-16.039 6.185-3.572 13.058-6.369 19.061-10.219 2.978-1.875 5.728-4.213 8.66-6.182 4.949-3.208 10.31-5.776 15.213-8.98 3.803-2.52 7.376-5.408 11.226-7.881 5.59-3.619 13.563-5.136 31.707-4.079z"></path>
    <path fill="#000000" d="M578.188 307.525c0-4.719-0.231-9.483-0.046-14.202 0.091-3.529 0.366-7.105 0.922-10.586 0.556-3.342 2.474-6.46 2.841-9.668 0.366-2.611-0.963-10.763-4.216-10.993-1.42-0.096-3.666 2.153-4.81 2.883-2.841 1.837-5.636 3.299-8.889 4.217-4.077 1.193-8.294 2.29-12.464 3.023-4.673 0.827-9.485 1.788-14.204 2.247-5.59 0.596-11.317 0.149-16.862 1.193-6.048 1.098-11.821 2.888-18.053 3.39-12.233 0.922-24.010 3.988-36.061 6.232-9.394 1.74-18.923 2.109-28.317 3.619-8.385 1.328-16.037 1.788-24.468 1.788-1.466 0-11.592-1.234-13.013 0.189-1.152 1.193-0.136 6.78-0.136 8.297-0.046 7.972 0 15.942 0 23.962 0 14.662 0.502 29.37-1.003 43.988-0.231 2.061-0.556 4.079-0.231 6.188 8.523-2.567 16.633-5.040 24.652-9.076 10.31-5.221 20.253-10.902 30.883-15.441 9.118-3.893 18.053-7.832 27.080-11.912 15.442-6.968 31.57-12.878 46.691-20.528 10.31-5.18 21.261-8.751 49.715-8.798z"></path>
    <path fill="#000000" d="M514.855 250.42c1.003 0.189 1.374-0.338 2.29-0.596 2.29-0.638 4.628-1.373 6.919-1.97 8.66-2.243 17.365-3.113 26.118-4.26 14.937-2.018 30.196-0.963 45.179-0.963 5.27 0 10.538-0.048 15.762 0 1.925 0 3.894 0.285 5.773 0.096 1.234-0.149 2.2-1.058 3.345-1.288 1.833-0.38 2.658 0.787 3.162-1.97 0.325-1.788 0.271-6.738-0.091-8.34-1.879-0.732-4.123-0.189-6.048-0.189-4.216 0-8.385 0-12.601 0-12.143 0-24.331 0-36.518 0-11.226 0-22.452-1.373-33.678-1.328-17.549 0.096-35.099 0.043-52.694 0.043h-56.406c-18.511 0-37.252 1.559-55.626-1.788-2.888-0.556-5.819-1.693-8.66-2.2-0.867-0.149-1.833 0.434-2.658 0.149-2.795-0.827-6.095-2.658-9.118-1.463-3.712 1.463-2.108 14.25 1.098 16.722 1.193 0.922 3.116 0.285 4.399 0.244 3.024-0.096 5.911 0.596 8.935 1.058 4.719 0.691 9.485 0.189 14.25 0.189 7.285 0.096 14.48 1.559 21.765 1.373 4.903-0.096 9.485 0.285 14.342 1.328 6.323 1.328 12.508 1.098 18.878 1.511 8.614 0.596 17 2.52 25.705 2.386 5.040-0.096 9.805 0.474 14.799 1.003 9.99 1.058 20.207 0.285 30.242 0.285 2.612 0 4.399 0.244 11.134 0z"></path>
    <path fill="#000000" d="M548.339 219.271c-1.879-1.65-1.925-5.18-2.566-7.518-2.108-7.65-2.198-15.12-2.932-23.001-0.827-8.479-1.925-16.909-0.285-25.339 1.466-7.741 4.262-15.072 6.141-22.68 2.198-9.071 3.070-18.51 4.582-27.72 0.596-3.712-0.461-5.819-0.963-9.349-0.366-2.888 0.556-6.141-0.046-8.98-0.461-2.29-2.198-3.94-1.098-6.369 2.658 0.732 3.299 4.351 5.224 6.092 2.704 2.477 5.728 1.098 8.843 1.559 3.116 0.434 1.557 0.048 2.52 2.52 1.058 2.751 1.288 5.27 1.42 8.297 0.502 12.323-0.091 24.833-0.091 37.16 0 13.471 0.046 26.893 0 40.368 0 4.491-0.596 9.99 0.325 14.571 0.176 0.908 1.058 2.52 1.098 3.39 0.046 7.65-5.911 13.38-22.178 17z"></path>
    <path fill="#000000" d="M436.726 215.379c-2.383-0.285-3.024-4.763-3.529-6.642-2.29-8.249-4.445-15.99-5.315-24.517-1.003-10.032-1.925-19.973-1.511-30.053 0.366-8.435 3.299-15.627 4.582-23.785 1.696-10.763 2.337-25.152-6.919-32.99-2.2-1.879-3.94-1.328-6.598-1.693-2.383-0.338-4.947-1.152-7.33-1.788-1.603-0.434-5.957-3.117-7.332-3.027-2.932 0.189-2.337 3.117-2.612 5.456-0.922 7.33-2.29 14.341-2.52 21.762-0.176 7.148 0.176 14.346 0.136 21.489 0 13.657 0 27.266 0 40.918v20.988c0 3.621-0.556 7.743 0 11.318 0.407 2.751 0.691 2.658 3.712 2.611 5.728-0.096 11.273-1.559 35.236-0.048z"></path>
    <path fill="#000000" d="M580.785 85.6h-57.322c-13.104 0-26.21 0-39.314 0.043-12.143 0.048-24.193-1.42-36.336-1.373-15.991 0.096-32.028-0.048-48.020 0.043-8.477 0.048-16.816-0.678-25.247-1.65-4.399-0.556-8.751-1.003-13.197-1.003-2.29 0-5.269 0.638-7.469-0.149 1.603-3.803 5.956-5.18 9.348-6.738 4.903-2.333 9.713-4.854 14.754-6.92 3.482-1.42 7.239-2.152 10.675-3.663 2.795-1.234 5.27-3.027 8.248-3.988 3.345-1.058 7.057-1.288 10.448-1.922 6.187-1.098 11.684-3.161 17.641-5.131 6.141-2.065 12.325-3.715 18.42-5.868 4.673-1.65 9.485-2.567 13.655-5.131 3.253-2.018 6.735-3.481 9.896-5.637 1.879-1.288 3.986-2.242 6.141-2.841 8.477-2.2 18.42-1.74 27.218-1.328 3.758 0.189 4.764 1.65 6.872 4.858 2.337 3.438 4.628 7.058 7.285 10.262 3.299 4.035 6.828 5.499 10.905 8.297 3.345 2.334 6.002 5.403 9.255 7.881 3.345 2.563 6.965 3.94 10.86 5.408 7.332 2.792 14.48 6.413 21.994 8.795 7.422 2.386 14.799 4.491 22.543 5.499 2.612 0.38 9.394 0.474 10.218 3.529z"></path>
    </svg>