<svg xmlns="http://www.w3.org/2000/svg" viewBox="10.827 -48.000 1018.509 1125.708">
    <path fill="#000000" d="M360.695 453.987c-11.237 2.914-22.010 6.293-33.458 6.714-27.333 6.676-58.891 12.167-78.070-3.63-14.828-12.21-23.7-30.968-31.346-49.934-3.295-14.238-8.027-28.181-14.532-41.657 3-9.548 6.337-19.094 10.308-28.472 3.38-8.111 7.223-15.971 11.237-23.785 0.465-2.914 0.93-5.789 1.521-8.661-4.14-0.677-6.506-5.534-5.83-9.717-11.744 18.928-21.799 38.909-29.783 59.694-2.662 6.927-5.070 13.982-7.309 21.080 1.352 2.241 2.576 4.563 3.717 6.846 8.069 53.82 15.968 102.91 7.773 157.954-0.888 5.96-1.859 11.958-2.873 17.957-0.128 0.078-0.251 0.155-0.38 0.193-0.507 21.165-9.97 42.841-16.096 62.229-2.788 8.913-5.745 17.872-8.956 26.657 0.171 3.548 0.507 7.055 1.057 10.519-1.69 16.9-6.294 32.617-12.59 47.783-5.197 32.484-13.73 64.296-35.444 82.167-0.251 0.673-0.465 1.308-0.718 1.986-0.171 0.116-0.251 0.271-0.422 0.387-2.323 1.986-4.31 7.52-0.803 6.548-1.225 2.155-2.408 4.268-3.591 6.382-1.943 3.464-1.099 7.094 3.169 7.055 42.457-0.635 84.491-14.66 117.189-41.95 3.887-8.453 7.267-17.152 10.688-25.898-28.938 22.391-63.115 34.303-98.517 45.457-0.423 0.116-0.93 0.422-1.436 0.758-1.986 0.155-4.056 0.193-6.083 0.349 3.591-6.382 7.182-12.717 10.731-19.094 8.956-11.11 15.884-23.87 20.996-37.686 0.085-0.155 0.171-0.309 0.251-0.422l-0.085 0.038c0.294-0.801 0.634-1.606 0.929-2.408 1.563-4.435-1.394-4.354-5.534-2.45 6.294-13.901 10.899-28.433 13.984-43.305 1.268-1.308 2.197-2.531 2.535-3.421 7.857-22.051 14.11-44.443 16.983-67.678 11.491-45.414 22.517-93.15 23.869-139.621 3.633 3.548 7.646 6.718 12.125 9.168 30.121 16.73 80.901 0.593 111.064-10.012 3.971-1.393 15.42-14.617 13.73-18.123z"></path>
    <path fill="#000000" d="M187.361 853.188c9.97-8.533 19.095-18.336 28.22-28.007-10.731 4.137-20.954 10.012-31.769 13.94-2.070 0.716-4.14 1.308-6.252 2.028-0.213 1.691-1.099 3.293-2.83 4.648-0.634-0.507-1.775-0.507-3.803 0.309-21.038 8.069-41.147 12.887-62.946 17.531 4.098-3.97 8.111-8.026 12.42-11.784 5.618-4.818 11.872-8.917 16.518-14.745 2.662-3.255 5.576-10.604-1.69-8.448-8.364 2.535-15.547 9.926-21.63 15.925-6.168 6.083-12.42 12.547-17.025 19.942-1.099 1.73-2.535 4.687-0.171 5.914-3.295 3.336-5.576 6.969-2.154 7.689 23.193 4.814 50.104-4.988 70.128-17.279 7.857-2.070 15.504-4.69 22.982-7.647z"></path>
    <path fill="#000000" d="M465.436 163.705c-12.167-29.404-32.318-55.975-53.905-80.774-1.647-1.184-3.295-2.284-4.816-3.379-1.478 0.193-3.042 0-4.521-1.099-3.464-2.535-6.759-5.112-9.843-7.775-1.225-0.929-2.451-1.857-3.718-2.786 10.097 12.674 19.729 25.855 28.685 39.415-23.531-17.914-51.751-30.673-79.887-30.797-0.423 0-1.31 0.464-2.197 1.138-7.056-1.308-14.026-2.195-20.701-2.573-1.268-0.038-3.295 1.053-5.281 2.573 9.844 1.946 19.644 4.226 29.318 6.889 15.504 10.728 33.374 17.109 47.738 30.376 12.59 11.656 25.052 23.359 36.204 36.247-12.927 3.293-25.601 7.013-37.683 11.235-28.389-5.828-56.103-9.59-84.745-8.32 18.335-12.504 35.825-32.066 37.979-54.246-1.563-0.464-3.084-0.886-4.647-1.308-3.422 2.070-7.52 6.254-8.153 8.069-6.548 19.179-13.898 35.275-31.811 46.386-0.549 0.349-1.099 0.929-1.563 1.606-2.83 0.193-5.661 0.387-8.492 0.72-3.548 0.387-13.814 10.813-7.478 10.898 30.163 0.387 60.369 0.038 90.364 3.084-0.887 0.387-1.817 0.716-2.746 1.057-22.052 8.998-42.542 20.782-61.384 34.768-10.519-1.819-22.982-0.549-31.050 0.716-13.857 2.155-26.953 8.069-37.725 16.986-3.76 3.123-6.97 6.633-9.97 10.348-5.787 4.099-9.844 11.196-12.167 17.617 2.070 1.099 3.464 3.17 3.084 6.382-1.478 11.235-3.548 22.345-2.662 33.712 0 0.078-0.042 0.155-0.042 0.309 0.128 0.038 0.171 0.078 0.251 0.116 4.352 1.815 10.942-5.828 11.871-9.377 5.576-21.083 5.154-49.977 32.783-55.046 20.066-10.437 47.273-15.758 71.648-12.674-0.128-0.271-0.171-0.507-0.337-0.762-3.802-2.45-8.111-3.885-12.589-4.648 10.604-7.136 21.757-13.518 33.543-18.881 25.010-11.323 54.623-20.279 85.336-26.277 1.141 0.116 2.535-0.155 3.971-0.72 3.084-0.588 6.126-1.138 9.251-1.688 3.464 7.856 6.591 15.84 9.379 23.951 2.916 0.193 5.703 1.819 6.886 5.325 3.929 11.532 8.322 22.895 12.378 34.346-1.817-20.321-6.717-40.809-10.562-61.131z"></path>
    <path fill="#000000" d="M763.965 410.922c-1.057-5.368-2.112-10.688-3.127-16.014-0.085-2.237-0.171-4.52-0.294-6.714 0.085-0.309 0.128-0.593 0.213-0.886 1.605 7.942 2.915 15.84 4.098 23.738-0.294-0.038-0.592-0.078-0.887-0.116zM834.054 817.798c5.323 1.691 10.688 3.127 16.054 4.478-0.128 0.387-0.213 0.72-0.213 0.971 0.171 3.719 0.888 7.438 1.901 11.030 15.758 6.8 31.304 13.982 47.695 18.924 1.31-1.815 1.901-3.592 0.676-4.563-5.408-4.35-11.702-6.211-16.518-11.448-2.662-2.914-4.52-6.296-5.914-9.888 1.352 0.116 2.662 0.309 4.013 0.426 0.845-1.606 2.365-2.918 4.689-3.468 3.253-0.758 7.815-1.393 12.59-2.195 0.255-1.312 0.845-2.577 1.943-3.761 5.365-4.772 9.421-10.348 12.336-16.56 0.294-0.758 0.549-1.521 0.845-2.322-11.28-10.012-23.404-19.265-34.896-28.898-1.774-1.521-3.38-3.127-4.985-4.733-10.773-9.206-20.531-18.715-27.038-28.387-0.803 0.038-1.689 0.349-2.619 0.844-5.661-10.268-11.279-20.573-16.56-31.053-1.901-0.844-3.506-2.322-4.267-4.687-4.858-15.802-9.97-31.432-14.153-47.442-0.507-0.387-1.057-0.762-1.563-1.142-2.197-8.491-4.013-17.066-5.661-25.728 2.154-1.9 3.887-4.141 4.224-6.041-13.096-13.223-14.195-47.821-13.603-73.507-2.535-39.288-3.084-78.746-6.295-117.992-3.506-42.079-11.575-84.745-26.277-124.288-0.845 0.271-1.733 0.309-2.619 0.271 0.085 0.507 0.213 1.014 0.337 1.564 3.548 20.828 8.196 53.483-0.128 77.353 0.718 30.418 2.619 60.793 4.732 91.165-1.689 1.904-2.873 3.89-2.83 5.368 0.507 7.898 1.521 15.797 2.788 23.7 1.014 8.448 2.028 16.897 2.915 25.388 0.085 1.184 0.085 2.368 0.213 3.592 0 0.233 0.128 0.271 0.213 0.387 0.507 4.942 0.971 9.884 1.478 14.826 7.985 32.573 21.081 64.087 23.108 97.798 5.746 21.927 13.73 43.263 25.136 63.58 2.281 4.013 0.592 7.818-2.281 9.93 2.070 5.363 4.098 10.728 6.21 16.095 5.576 10.519 11.575 20.952 18.208 31.262 0.465 0.078 0.93 0.233 1.394 0.387 3.211 5.998 8.322 11.323 14.068 16.475 2.999 2.705 6.083 5.453 9.125 8.197-11.449-2.237-22.855-3.506-33.839-2.786-1.225-0.762-2.451-1.478-3.591-2.326-23.319-8.154-46.175-17.361-68.818-27.292-1.817-0.801-4.563 0.116-7.267 1.904 21.292 13.854 43.006 26.95 64.806 39.919-0.76 1.986-0.507 3.677 1.605 4.648 4.224 1.986 8.872 3.379 13.688 4.478 0.465 0.271 0.93 0.593 1.436 0.848 2.028 1.266 3.084 2.957 3.506 4.729z"></path>
    <path fill="#000000" d="M751.693 229.568c-0.423-1.095-1.394-1.266-2.619-0.929-0.845-4.141-3.084-8.197-7.14-12.125-14.068-13.56-41.317-24.586-60.285-27.248-0.422-0.078-0.803-0.078-1.225-0.116-8.28-6.889-17.025-13.394-26.573-19.223-25.010-15.422-53.61-24.462-83.731-28.812 0.213-2.028-0.845-3.383-3.76-3.464-6.675-0.116-13.433-0.078-20.193 0.193-0.085-0.635-0.128-1.266-0.213-1.9-0.592-3.97-6.675-0.72-8.196 0.233-0.887 0.546-1.732 1.18-2.534 1.815-2.619-0.038-5.281-0.078-7.9-0.116 0.171 0.507 0.337 1.057 0.507 1.564-8.364 1.184-16.602 2.999-24.587 5.789-0.464 0.155-1.478 0.886-2.704 1.9-0.423-2.833-0.845-5.662-1.099-8.491-0.718 0.038-1.436 0.078-2.154 0.116-2.281-6.885-4.732-13.769-7.309-20.616-6.464-17.488-27.67-80.267-52.343-86.138 15.208 26.912 31.896 54.919 37.767 84.873 1.943 9.841 2.958 19.772 3.929 29.698 6.802 14.025 12.843 28.39 15.969 43.723 2.662 12.972 4.267 26.068 5.323 39.207 2.662 13.476 4.858 26.95 6.168 40.426 5.45-18.29 7.14-36.456 6.38-54.536 0.337 3.123 0.676 6.207 0.887 9.335 0.128 1.857 1.352 2.408 3.127 2.155-3.295-12.465-4.774-25.391-5.112-38.402-3.802-9.462-6.886-19.137-9.209-29.025 12.040 1.142 24.756 0.116 37.007-0.422 4.14 0.116 8.365-0.233 12.083-0.233 1.352 0 3-0.635 4.732-1.649 6.802 0.349 13.561 0.929 20.32 1.773 0.128 0 0.213 0 0.337 0 0 0 0 0.038 0 0.038 0.676 0.078 1.394 0.116 2.070 0.193 2.662 0.387 4.182 1.733 4.985 3.421 12.547 3.297 24.376 7.647 35.528 12.968 18.588 2.79 37.091 7.098 53.779 13.1-16.18-0.468-32.614 4.478-43.894 14.869 7.393-1.351 14.871-2.241 22.39-2.322 6.294-1.014 12.589-1.862 19.011-2.411 0.634-0.038 1.183 0.038 1.775 0.078 18.968-2.659 38.063 4.52 52.3 17.829-0.634 0.349-1.268 0.758-1.901 1.184 13.138 13.39 19.56 30.922 21.63 49.215 1.057-2.535 2.070-5.112 2.83-7.647 0.38 2.408 0.718 4.818 0.803 7.311 0.085 2.028-0.465 3.592-1.394 4.772 0.085 1.057 0.213 2.155 0.337 3.212 1.733 3.506 3.338 7.14 4.689 10.983 3.591-1.649 8.534-6.42 8.618-9.083 0.549-16.308-3.591-31.853-9.209-47.063z"></path>
    <path fill="#000000" d="M664.658 697.429c-1.521 1.351-2.957 2.701-4.52 3.97-3.464 2.957-6.844 5.956-10.055 9.126 11.702-19.985 13.307-44.4 14.871-67.342 1.014 0.271 1.986 0.507 2.746 0.805 3.506 1.223 6.464 2.999 9.421 5.027-0.507 2.152-1.057 4.307-1.605 6.463 0.76 3.506 1.521 7.055 2.365 10.604-2.83 10.941-7.688 21.336-13.223 31.347zM478.269 586.659c-2.746-16.56-6.717-33.077-15.124-47.528-3.464-23.738-4.985-49.85 16.56-58.719 31.346-12.887 35.149 31.177 35.993 51.583 0.171 4.52 0.38 12.419-0.171 20.994v0 0.886c0 0 0 0.038 0 0.078 0 1.815-0.042 3.634-0.171 5.407 0.38 0.848 0.718 1.733 1.057 2.62 0.846 2.62 0.294 4.733-0.971 6.382-1.225 41.695-4.605 83.182-10.013 124.412-8.787-35.403-17.954-70.806-27.164-106.122zM476.071 910.127c1.521-2.45 3.084-4.899 4.605-7.349 3.506-5.534 1.986-7.311-1.099-7.098 2.83-8.282 5.281-16.644 7.478-25.055 2.451 13.943 5.112 27.841 8.069 41.699-6.463-0.72-12.885-1.435-19.053-2.198zM526.259 829.775c9.928 24.969 17.152 50.697 21.63 77.226 3.844 0.422 7.139 3.89 7.309 7.733-10.773 0.971-21.588 1.393-32.361 2.322 0-0.549 0.042-1.057 0.128-1.564-0.676-0.078-1.31-0.116-2.028-0.193 0.085-0.387 0.171-0.805 0.171-1.184-0.676-28.178 0.38-56.568 5.154-84.323zM553.932 491.488c5.154 1.943 8.534 5.576 10.646 10.391 0.128 0.116 0.255 0.271 0.337 0.426 5.070 9.206 7.097 18.839 7.52 28.599 1.014 1.142 1.775 2.663 1.775 4.648-0.085 26.443-0.93 53.355-12.843 77.52-0.128 0.271-0.294 0.349-0.422 0.549-0.085 1.142-0.251 2.237-0.294 3.336-0.128 1.986-0.972 3.464-2.070 4.648-0.255 2.028-0.549 4.013-0.846 6.041-1.099 4.056-2.281 8.111-3.759 12.083-2.873 7.477-6.506 14.532-10.35 21.463 0.676-13.645 1.859-27.292 2.619-40.852-0.422-0.975-0.676-2.070-0.592-3.383 0.251-4.772 0.718-9.504 1.268-14.238 0.085-4.729 0.171-9.42 0-14.11-1.986-1.138-3.38-3.208-3.38-6.25 0.171-14.451 1.817-29.362-0.845-43.642-1.478-8.111-3.718-16.053-4.563-24.292-1.099-10.135 0.676-28.599 15.8-22.938zM591.151 871.783c1.986 6.885 3.464 13.858 5.070 20.828-0.042 4.35-0.128 8.704-0.213 13.011-4.478 1.857-9.21 3.421-14.195 4.733-0.634-1.014-1.141-2.155-1.352-3.548-0.213-1.943-0.507-3.89-0.803-5.789-0.549 0.549-1.141 1.014-1.69 1.521 0.128-6.127-0.213-12.291-1.436-18.293-0.255-1.266-1.521-1.18-3-0.507 0.085-8.406 0.171-16.769 0.294-25.178 0.085-8.913-0.718-20.36-0.845-31.935 4.478 8.657 8.45 17.531 12.167 26.528 1.986 6.254 4.224 12.419 5.999 18.63zM590.261 522.835c0.634-5.956 5.787-8.917 11.279-6.463 21.207 9.42 26.911 29.528 28.221 50.65-1.352 16.73-6.675 35.488-9.21 48.456-2.873 14.745-9.040 30.46-11.195 45.836-0.845 1.819-1.605 3.677-2.45 5.453-2.323-13.223-4.393-26.532-6.295-39.842-0.171-5.151-0.549-10.476-0.76-15.925-0.507-13.518 1.859-32.612-3.464-46.3 0-1.312 0.042-2.577-0.042-3.847-1.057-13.263-7.562-24.373-6.083-38.018zM611.002 884.628c-0.128-0.971-0.251-1.943-0.422-2.918 0-0.193 0-0.387 0-0.588 3.759-29.911 2.535-59.694-5.281-88.464-0.251-7.268-0.972-14.532-1.817-21.672 3.295 4.478 6.759 8.87 10.434 13.39 3.717 4.563 6.506 9.211 8.872 14.029 4.478 19.981 5.999 40.511 5.112 61.045 4.351 0.349 8.745 4.056 7.646 9.633-0.634 3.123-1.31 6.207-1.986 9.335 0.93 0.038 1.817 0.349 2.704 0.72-7.688 6.885-15.504 13.011-23.911 18.166 0.042-3.506 0.042-7.016 0.128-10.523-0.634-0.588-1.141-1.308-1.478-2.152zM636.858 597.483c0.337-2.326 0.845-4.818 1.352-7.434 0.128-3.212 0.213-6.424 0-9.675-0.085-1.478 0.213-2.705 0.76-3.719 0.171 0.116 0.38 0.193 0.507 0.309 2.535 1.521 5.112 3.166 7.773 4.435 2.239 1.014 4.52 1.138 6.717 0.631 2.239 7.945 2.999 15.802 2.535 23.576-5.999 17.237-10.562 34.896-18.039 51.622-2.323 5.070-5.915 10.646-9.251 16.393 2.788-9.884 3.422-20.236 4.393-30.503-0.845-1.095-1.394-2.492-1.268-4.35 0.209-4.183 0.718-8.32 1.268-12.461-0.549-0.155-1.141-0.271-1.605-0.507 1.901-9.295 3.38-18.801 4.858-28.305zM427.911 901.114c3.633-32.868 6.675-66.030 12.251-98.685 5.703 34.219 8.534 68.649 8.745 103.627-7.139-1.351-14.153-2.999-20.996-4.942zM414.772 896.764c-9.802-3.719-19.222-8.495-28.432-14.617-0.549-0.933-1.183-1.691-1.901-2.326 1.057-1.099 1.859-2.070 2.070-2.535 1.057-2.408 2.112-4.814 3.211-7.222 17.87-26.026 28.811-54.118 32.402-83.858 0.803-0.886 1.563-1.777 2.323-2.663-8.364 37.345-10.434 74.648-9.674 113.22zM380.469 631.5c-0.042-0.038-0.085-0.078-0.128-0.116-9.294-14.66-17.321-29.698-20.32-46.513-2.492-6.169-3.971-12.461-3.38-18.715 1.563-1.815 3.084-3.677 4.521-5.534 2.492-0.507 5.323-1.057 7.899-0.886 1.69 2.322 4.098 4.265 7.182 5.701 1.057 9.083 3.887 18.251 6.21 26.784 0.251 0.89 0.676 1.397 1.183 1.733-0.042 1.223-0.213 2.492-0.422 3.719 4.435 7.477 8.914 14.954 10.266 23.781 0.085 0.635 0 1.227-0.042 1.819 0.171 0.116 0.38 0.349 0.549 0.422 5.534 13.096 11.829 25.855 17.701 38.824-3.548-2.535-7.013-5.112-10.139-7.818-5.915-5.151-11.956-10.306-17.828-15.546-1.141-2.535-2.154-5.112-3.253-7.647zM353.726 864.198c-3.506-22.895-4.605-45.793-4.056-68.735 1.986-10.178 3.887-20.318 6.126-30.457 0.887-3.97 1.986-7.942 3.084-11.916 0.423-0.038 0.845-0.193 1.268-0.193 0.213 4.013 0.422 7.604 0.676 8.955 1.183 5.534 2.619 11.068 3.887 16.56 0.337 1.435 0.634 2.833 0.93 4.226-1.394 25.855-0.845 51.749 3.084 77.435 1.478 9.803-13.477 13.987-14.997 4.141zM339.489 646.268c-3.338-8.111-6.379-16.347-9.421-24.586 2.281-5.027 4.689-10.054 7.267-14.954 2.323 0.588 4.435 2.066 5.492 4.857 1.901 5.112 3.803 10.268 5.703 15.375-0.085 0.271-0.128 0.593-0.171 0.805-1.563 8.197-0.042 15.418 3.295 22.938 1.014 2.284 2.197 4.52 3.295 6.761-0.888-0.593-1.817-1.142-2.704-1.733-4.14-2.744-8.914-5.785-12.758-9.462zM425.881 510.575c4.267-1.9 9.674-0.635 10.984 4.478 2.83 10.902 3.506 22.013 3.845 33.123-3.295 10.306-3 21.758-1.943 32.484 0.294 2.957 0.634 5.619 1.141 8.069-0.171 0.155-0.337 0.387-0.507 0.507-0.718 15.589 1.563 31.138 4.393 46.641-0.803-1.986-1.563-3.97-2.365-5.914-8.069-18.97-27.206-39.544-27.038-60.58 0.337-0.078 0.718-0.116 1.057-0.193-8.238-21.927-13.815-47.864 10.434-58.596zM320.688 805.216c-1.268 9.803-16.814 9.888-15.547 0 0.507-3.928 0.972-7.856 1.478-11.784 0.465-2.198 0.845-4.312 1.225-6.041 0.042-0.349 0.128-0.677 0.171-0.975 1.521-5.321 3.717-10.519 6.168-15.546-1.352 13.56-0.803 28.685 6.759 32.233-0.085 0.72-0.171 1.44-0.251 2.113zM715.224 712.023c0.634-1.184 1.014-2.198 1.014-2.872 0.042-21.25-9.548-42.372-16.433-62.357-0.676-1.9-1.268-3.801-1.943-5.701 0.422-0.549 0.676-1.057 1.014-1.564-1.014-1.733-2.070-3.506-2.788-5.24-0.887-2.198-1.183-4.307-1.268-6.378-0.549-0.271-1.057-0.549-1.605-0.805-3.338-10.097-6.591-20.279-9.844-30.414 1.563 2.999 3.127 6.041 4.478 9.164 0.803 0 1.563 0.155 2.323 0.387-3.211-7.86-6.294-15.886-9.505-23.913-1.733-4.392-3.675-8.661-5.703-12.925-0.337-0.507-0.676-0.971-1.014-1.478-1.436-1.777-2.873-3.548-4.31-5.325-3.295-5.321-7.055-10.224-11.195-14.745-0.549-0.716-1.099-1.393-1.605-2.109 0.171-0.468 0.255-0.933 0.38-1.397-13.138-17.318-27.417-33.162-44.020-46.637-3.803-2.79-7.646-5.576-11.618-8.239-2.788 0.762-5.872 0.549-9.083-1.142-9.674-5.112-19.476-10.012-29.276-14.826-5.239-0.72-10.604-1.269-15.969-1.606-1.733-0.677-3.506-1.227-5.281-1.777-13.519-1.351-27.248-1.521-41.105-0.233-57.834 5.279-125.597 41.908-161.801 93.657-5.661 10.561-10.392 21.629-14.068 32.995-14.785 24.122-26.952 51.327-26.699 77.268-3.675 10.348-5.576 21.416-6.126 32.612-2.408 7.055-4.774 14.067-6.633 21.165-3.38 12.968-7.858 28.054-5.070 41.486-0.251 0.886-0.549 1.73-0.803 2.62 0.213 0.716 0.337 1.435 0.251 2.195-0.294 2.705-0.423 5.41-0.507 8.154 8.196 30.503 35.318 59.903 54.328 82.082 23.616 27.589 52.216 47.57 86.942 58.808 1.183 0.387 2.112 1.014 2.915 1.73 1.733 0.468 3.506 0.933 5.239 1.397 7.182 0.971 14.448 1.644 21.672 2.195 0.128 1.44 0.971 2.028 2.197 2.113 0.128 0 0.255 0 0.38 0.038 1.394-0.078 3.211-0.677 5.111-1.649 14.195 0.89 28.136 1.312 41.148 2.284 0.209 0.593 0.592 1.057 1.014 1.351 1.521-0.078 3.041-0.116 4.52-0.155 0.507-0.193 0.972-0.387 1.521-0.673 1.605 0.116 3.253 0.155 4.858 0.233 3.127-0.155 6.294-0.309 9.421-0.549 2.535-0.422 5.111-0.801 7.646-1.223 23.827 3.336 49.259-3.127 72.113-14.915 5.365-2.322 10.604-5.236 15.715-8.618-0.171-0.078-0.294-0.155-0.422-0.271 14.871-9.717 27.924-21.42 37.809-33.626 0.888-1.014 1.69-2.070 2.535-3.084 0.042-0.078 0.128-0.116 0.171-0.193v0c2.619-3.127 5.281-6.293 7.688-9.462-0.422-2.070 0.042-4.35 1.817-6.339 2.619-2.914 5.281-5.743 7.943-8.615-5.239 2.364-13.054-1.733-11.068-8.917 4.393-15.758 4.858-31.684 3.464-47.566v0c3.127-11.366 6.591-28.731 4.732-43.387 1.901 2.364 3.845 4.729 5.576 7.264 5.576 29.107 9.252 58.765 1.225 87.787-0.085 0.349-0.255 0.635-0.38 0.929 10.35-11.068 20.617-22.222 29.023-34.768 13.814-20.658 17.279-41.652 18.884-65.438-2.83-9.803-6.506-19.559-9.928-28.769z"></path>
    <path fill="#000000" d="M922.188 877.523c-16.644 0.593-33.627-1.649-50.315-5.534-1.352-0.155-2.746-0.271-4.056-0.422-7.097-1.397-14.068-3.212-20.954-5.112-8.533-1.312-17.025-2.875-25.474-5.027-10.392-2.705-23.53-5.832-33.881-12.039-8.872-2.663-17.574-5.832-26.065-9.76-6.717 5.198-13.138 10.519-19.433 16.095-21.925 16.095-45.33 30.882-67.551 46.215-1.225 2.535-1.943 4.946-1.436 6.382-7.646 4.605-15.039 9.59-22.348 14.66-4.309 3.379-8.829 6.42-13.561 9.292-9.759 6.718-19.687 13.096-30.079 18.63l-1.141 0.464c1.394-0.801 2.746-1.73 4.182-2.535 5.576-3.208 11.279-6.672 16.476-10.685-8.829 4.478-18.166 8.235-27.84 11.319-5.618 4.141-11.321 8.197-17.025 12.252-7.14 2.237-14.618 3.885-22.517 4.772-4.689 0.507-9.421 0.933-14.153 1.312-24.418-0.349-48.498-1.057-72.663-2.957-0.465 0.038-0.972 0.038-1.436 0.038-0.337 0-0.592-0.155-0.929-0.155-20.701-1.691-41.485-4.312-62.65-8.324-0.128 0-0.337 0.078-0.507 0.078-0.085-0.116-0.171-0.155-0.251-0.309-11.491-11.575-25.432-21.038-40.049-29.996-1.817 0.078-3.717-0.507-5.45-2.070-2.704-2.45-5.618-4.563-8.618-6.505-0.549-0.309-1.057-0.631-1.605-0.929-8.914-5.363-18.842-9.126-28.135-13.94 0-0.038-0.042-0.038-0.042-0.038 7.646 7.856 14.617 15.968 23.193 22.938 12.125 9.846 24.883 18.715 37.177 28.22 5.154 3.127 10.434 6.002 15.842 8.661-0.845 0.593-1.647 1.478-1.099 1.904 42.034 33.29 114.486 31.219 164.674 20.825 41.359-8.576 85.463-38.36 119.386-66.745 4.393-2.326 8.872-4.648 13.307-6.931 3.548-2.364 7.14-4.605 10.646-7.055 1.859-1.266 3.633-1.564 5.281-1.223 0.803-2.999 3.084-5.662 6.886-6.083 2.323-0.309 4.689-1.014 7.055-1.943 8.408-6.676 17.87-11.958 27.206-17.279 1.943 0.078 4.31-0.464 6.126-1.227 2.154-0.929 4.182-2.028 6.126-3.166 0.888 0.758 1.901 1.393 2.958 1.943 2.197-2.705 5.914-4.268 9.886-2.326 29.192 14.28 60.791 16.308 92.56 19.814 11.998 1.308 23.911 2.748 35.825 3.634 0.042-0.038 0.128-0.078 0.171-0.116 0.971-0.387 2.197-1.057 3.633-2.198 5.281-2.028 19.518-15.503 12.673-16.811z"></path>
    <path fill="#000000" d="M942.829 946.823c-2.577-0.309-5.111-0.72-7.688-1.057 0.507-1.227 0.507-2.284 0.213-3.17-9.252-3.758-17.87-8.785-23.742-15.209-3.845-1.986-7.267-4.478-9.886-8.154-0.294-0.038-0.634-0.038-0.972-0.078 2.493 2.914 4.9 5.956 7.098 9.249 2.577 3.847 0.255 9.040-3.676 10.732 0.38 0.464 0.76 0.971 1.141 1.435-1.268-0.271-2.577-0.593-3.845-0.886-0.042 0-0.085 0-0.085 0-20.489-0.844-40.388-6.336-59.651-13.223-7.309-2.62-15.42-4.69-23.446-6.969 14.701 11.153 29.868 21.672 45.836 30.669 20.109 7.183 40.936 12.295 62.693 15.082 7.857 1.014 22.517-17.659 16.011-18.417z"></path>
    <path fill="#000000" d="M320.085 344.475c1.014-6.548 2.028-13.223 3.675-19.729 4.182 0.758 8.661 3.672 12.674 7.136 5.365 6.424 8.153 15.631 6.759 24.040-2.915 4.435-7.267 5.321-13.138 2.322-3.211-1.18-8.111-5.154-11.998-9.969 1.141-1.521 1.901-2.872 2.028-3.801zM376.018 278.825c-29.022-18.379-90.701-20.998-109.247 14.362-29.741 22.477-35.149 61.424-15.209 101.688 24.587 49.679 99.024 42.415 135.482 10.221 40.598-35.867 34.684-97.376-11.026-126.27z"></path>
    <path fill="#000000" d="M637.025 320.206c0.042-0.038 0.128-0.078 0.171-0.116 3.127 0.549 6.21 1.44 9.252 2.577 8.45 7.604 16.56 18.592 18.926 27.292-0.507 7.477-6.844 11.452-22.39 6.083-1.099-0.387-2.239-0.801-3.38-1.266-0.128-0.271-0.171-0.507-0.294-0.72-7.056-11.363-5.788-22.264-2.281-33.839zM601.5 401.964c14.871 5.705 35.275 13.816 55.384 19.35 6.041 0.422 11.998 0.349 17.828-0.387 47.231-5.662 68.86-66.579 58.553-107.857-7.815-31.471-44.105-50.101-77.394-49.299-0.128-0.078-0.171-0.193-0.337-0.271-39.415-10.604-79.549 30.669-86.603 66.874-5.957 30.291 9.293 55.384 32.572 71.564z"></path>
    <path fill="#000000" d="M784.019 469.704c-8.914-4.396-14.617-8.453-20.236-14.238 1.268-2.326 2.112-4.605 2.239-6.761l1.352-3.336c2.788-6.889-0.634-7.311-5.323-5.407 11.533-18.336 13.856-42.121 17.617-64.087 1.394-8.324-12.378 2.872-13.688 4.814-11.956 17.953-10.942 59.482-32.572 65.693-3.591 1.014-7.393 1.564-11.363 1.773-30.206 10.859-75.282-3.928-110.008-16.223 2.577 1.649 5.154 3.425 7.815 4.988-2.112 3.63-2.535 7.055 0.507 8.533 46.175 22.431 94.293 37.26 144.987 45.031 6.928 1.057 28.305-16.053 18.673-20.782z"></path>
    <path fill="#000000" d="M201.827 899.473c-19.433 5.154-37.472 14.996-56.779 20.828-4.224 1.266-23.53 9.040-26.108 4.985-1.141-1.862 7.857-22.098 8.618-24.926 0.887-3.212-4.985 1.099-5.534 1.815-7.182 10.31-15.293 21.378-20.87 32.701-1.605 3.293-3.506 5.576-1.986 9.292 0.213 1.099 0.845 1.819 1.943 2.155 14.871 1.691 33.458-5.956 47.316-10.604 17.912-5.956 35.318-12.883 50.738-23.87 3.041-2.152 13.096-15.124 2.662-12.376z"></path>
    </svg>