<svg xmlns="http://www.w3.org/2000/svg" viewBox="2.322 47.780 1041.374 928.241">
    <path fill="#000000" d="M957.479 453.814c-3.236-7.735-5.803-17.046-11.211-23.634-8.011-9.713-20.007-13.97-31.883-16.93-7.932-1.975-15.983-3.711-23.957-5.407-2.407-0.478-4.496-0.979-6.787 0-2.921 1.185-5.287 3.080-7.891 4.777-4.225 2.722-9.154 4.929-13.575 7.417-3.16 1.819-6.79 3.355-10.42 3.831-2.722 0.374-5.527-0.043-8.287 0.211-1.856 0.163-2.451 0.043-3.871-1.579-3.869-4.339-5.563-9.863-7.735-15.15-1.536-3.751-3.631-7.147-5.128-10.972-1.617-4.183-3.907-8.603-7.342-11.601-4.616-4.064-10.809-5.407-16.020-1.304-4.934 3.95-7.063 11.286-8.483 17.049-2.764 10.93-4.22 21.546-4.339 32.83-0.043 5.448 1.655 9.706 2.764 14.838 0.631 2.803 1.027 5.605 0.247 8.407-1.145 4.303-5.486 7.812-8.407 11.010-2.371 2.563-4.972 4.263-7.774 6.152-1.812 1.223-4.263 3.236-6.47 4.027-2.446 0.91-4.502 2.251-6.866 3.199-4.579 1.855-9.512 1.617-14.327 2.409-5.128 0.829-10.415 2.207-15.192 4.258-4.025 1.699-5.605 5.371-7.693 8.921-3.316 5.683-6.991 11.247-9.317 17.362-2.489 6.589-3.549 13.656-5.719 20.322-1.541 4.658-4.459 8.998-5.605 13.734-0.548 2.446-0.713 5.444-1.775 7.735-1.617 3.668-6.511 6.667-10.263 7.575-5.444 1.342-10.691 0.559-16.058-0.748-3.831-0.945-7.067-2.563-10.027-5.128-4.502-3.945-4.502-8.683-4.459-14.13 0-3.154-0.211-6.235-0.293-9.355-0.083-1.975 0.127-4.419-0.247-6.47-0.667-3.435-2.683-1.541-4.339-3.473-0.328-0.409-0.211-1.384-0.328-1.937-0.513-2.013-2.451-3.943-3.987-5.209-2.133-1.735-4.459-2.959-6.751-4.459-3.393-2.17-6.076-4.576-8.602-7.812-7.891-9.982-17.562-18.39-25.808-28.096-2.684-3.117-4.975-6.199-7.931-9.116-3.435-3.393-5.605-7.537-9.55-10.534-5.527-4.144-10.892-7.855-15.945-12.63-5.167-4.853-10.102-9.825-16.494-12.942-3.549-1.699-6.511-4.733-10.301-5.875-1.655-0.478-3.549-0.864-5.211-1.185-4.339-0.864-9.311 0.548-13.574 0.945-6.751 0.631-13.218 0-19.926-0.513-2.489-0.163-3.316-0.374-4.855 1.579-0.783 0.979-2.051 1.819-2.683 2.764-2.446 3.706-0.328 11.8 1.617 14.994 2.011 3.274 5.204 5.011 7.891 7.693 2.051 2.055 4.064 4.339 6 6.553 2.722 3.116 5.367 6.276 8.208 9.311 3.355 3.556 6.195 6.871 8.995 10.892 2.288 3.355 3.711 6.751 5.725 10.221 1.699 2.961 4.183 5.444 5.959 8.407 2.051 3.355 4.025 6.787 5.683 10.377 1.459 3.236 2.131 6.115 2.326 9.669 0.041 1.342 0.083 2.525 0.432 3.825 0.595 2.409 1.111 3.907-0.631 6.038-3.987 4.777-10.102 4.579-15.666 4.183-15.744-1.027-31.846-3.040-47.477-0.127-3.274 0.631-6.511 1.342-9.667 2.251-3.236 0.945-5.959 2.489-8.959 3.95-2.645 1.339-4.027 2.251-3.435 5.563 1.063 6.038 9.592 9.667 14.286 12.352 3.154 1.855 6.314 4.144 9.667 5.486 2.409 0.945 4.658 1.303 7.147 1.819 4.419 0.864 8.719 1.975 13.218 2.483 6.038 0.679 12.076-0.211 18.113 0.478 6.631 0.713 13.458 2.961 19.97 4.382 4.576 1.063 8.839 2.684 13.336 3.788 3.475 0.864 7.147 1.261 10.54 2.446 3.748 1.342 6.47 3.907 9.905 5.803 2.764 1.499 4.339 3.905 5.329 6.866 0.945 2.764 2.525 4.773 3.825 7.339 2.051 3.987 3.556 7.579 6.276 11.205 2.565 3.435 5.287 6.871 8.407 9.869 3.592 3.435 8.521 3.907 13.098 5.090 4.735 1.185 9.035 3.355 13.77 4.54 3.274 0.829 6.355 1.543 9.431 2.803 2.132 0.864 4.106 1.975 6.276 2.764 5.323 1.856 11.048 2.093 15.546 5.882 1.185 0.979 1.894 2.17 2.841 3.355 0.864 1.063 2.132 1.819 2.764 3.041 1.342 2.446 1.145 5.923 2.17 8.603 1.579 4.106 2.446 8.095 3.393 12.39 1.543 7.183 3.748 14.126 4.658 21.469 0.713 5.563 2.011 11.048 2.603 16.614 0.631 5.683-0.432 11.757-2.565 17.010-2.207 5.444-6.47 9.667-8.64 15.036-1.223 2.997-1.975 6.038-3.041 9.035-2.051 5.605-3.435 11.368-5.367 17.010-2.803 8.167-6.866 15.863-10.576 23.598-2.684 5.563-4.696 11.285-8.407 16.258-2.251 3.041-4.699 5.918-7.735 8.131-2.883 2.131-6 3.905-9.043 5.761-4.144 2.565-7.969 6.235-9.787 10.853-1.661 4.301-2.921 8.803-4.339 13.179-1.819 5.725-3.945 11.286-5.959 16.93-2.093 5.761-0.211 10.42 2.997 15.546 2.093 3.316 4.777 5.407 7.499 8.051s4.735 4.303 8.251 5.725c3.31 1.339 6.787 2.131 10.020 3.631 4.106 1.937 7.224 2.608 11.802 2.212 3.748-0.328 6.787-0.631 10.458-0.127 2.722 0.374 5.563 1.423 8.246 2.013 2.961 0.713 5.329 1.145 7.975 2.525l17.286-5.211c9.511-5.367 21.23-6.195 30.188-12.904 3.871-2.883 7.461-7.537 9.945-11.643 1.937-3.274 3.435-6.709 4.934-10.221 1.738-4.102 3.907-8.327 4.972-12.666 2.527-9.943 2.251-20.321 3.831-30.428 0.548-3.393 0.513-6.823 1.145-10.183 0.432-2.093 0.748-4.102 0.595-6.271-0.293-4.975 0-10.145-1.183-14.998-2.051-8.483-0.713-16.729 1.223-25.134 1.099-4.975 1.937-9.868 4.064-14.526 2.131-4.616 4.972-8.603 8.76-12.033 9.669-8.683 22.374-13.694 34.411-17.957 3.748-1.342 7.459-2.997 10.972-4.855 1.894-1.027 3.905-1.459 5.761-2.525 2.758-1.579 5.444-3.907 8.803-3.274 1.699 0.328 3.116 0.783 4.891 0.91 2.17 0.163 4.419-0.247 6.631-0.211 2.525 0.043 5.090 0.595 7.615 0.991 3.116 0.432 6.276 0.409 9.431 0.374 3.473-0.043 6.866 0.667 10.301 0.713 2.489 0 4.696-0.247 7.224 0.127 4.144 0.679 8.208 1.738 12.309 2.722 2.841 0.679 5.643 1.581 8.603 1.267 3.435-0.374 6.787-0.91 10.102-1.937 3.751-1.111 7.26-2.839 10.773-4.533 5.367-2.608 9.235-5.569 12.51-10.616 3.077-4.815 5.167-9.869 4.144-15.707-0.548-3.154-1.111-7.812-2.489-10.773-1.145-2.483-4.144-5.407-6.631-6.823-2.051-1.185-4.576-2.093-6.709-3.080-2.841-1.342-5.68-2.841-8.719-3.748-8.921-2.645-17.129-6.355-26.6-6.709-3.274-0.163-6.391 0.247-9.631-0.211-2.371-0.374-4.652-0.409-7.022-0.211-6.199 0.513-12.666 0.679-18.704 2.17-2.409 0.631-4.616 1.423-7.103 1.775-5.683 0.794-11.562 0.945-17.248 0.945-7.85 0-15.546-0.679-23.243-2.288-3.945-0.864-9.905-1.579-13.023-4.54-2.483-2.326-1.223-5.444-0.293-8.287 2.212-6.271 7.423-12.747 14.089-14.442 4.735-1.183 9.982-0.794 14.838-1.145 2.525-0.211 4.972-0.513 7.459-0.667 1.579-0.127 3.869 0.328 5.407-0.247 4.025-1.423 7.219-5.605 10.972-7.699 1.93-1.063 4.025-2.251 5.995-3.199 2.489-1.145 5.486-2.288 7.699-3.869 2.878-2.051 5.247-6.157 6.746-9.235 1.738-3.631 1.303-5.725-0.037-9.511-1.342-3.631-2.371-8.327-5.287-11.048-2.132-2.013-5.329-3.279-8.131-4.027-2.055-0.548-4.227-0.91-6.314-1.342-2.212-0.513-4.934-1.655-7.267-1.617-1.459 0.043-3.154 0.679-4.576 0.91-2.684 0.513-5.329 0.713-8.011 1.267-4.855 1.027-9.475 3.116-14.406 4.025-1.579 0.328-2.288 0.595-3.788 0.247-3.668-0.945-5.167-3.905-6.985-7.063-1.975-3.316-4.457-7.141-5.6-10.809-1.145-3.751-0.374-6.235 0.478-9.945 0.548-2.489 0.829-5.643 1.93-7.895 1.423-2.959 3.16-4.733 5.839-6.823 5.287-4.064 11.406-7.303 17.286-10.263 11.368-5.68 23.124-10.773 34.927-15.39 7.459-2.921 14.994-3.748 22.962-3.825 4.183-0.083 8.803 0.211 13.026 0.595 1.38 0.163 2.722 0.583 4.144 0.713 2.371 0.211 4.735 0.083 7.141 0.328 7.459 0.748 14.682 2.525 22.218 2.803 7.339 0.247 14.994 0.748 22.296-0.409 5.287-0.783 11.010-1.617 15.426-4.934 4.896-3.668 7.342-11.324 7.656-17.124 0.595-10.102-1.855-18.861-5.68-28.021z"></path>
    <path fill="#000000" d="M535.908 786.626c-2.371-4.934-4.263-10.183-5.683-15.468-1.461-5.448-2.326-11.010-3.987-16.421-2.841-8.995-5.761-18.742-11.166-26.636-2.251-3.236-4.54-6.043-7.063-9.043-1.775-2.093-3.316-4.025-5.323-5.918-2.527-2.371-5.448-4.419-7.699-7.147-3.512-4.339-4.934-8.995-7.027-14.082-0.713-1.617-1.775-3.592-1.93-5.329-0.247-2.371 0.374-4.815 0.91-6.907 0.794-2.878 1.856-5.643 2.489-8.603 0.478-2.251 0.713-4.576 1.145-6.828 1.111-5.563 2.997-11.601 5.323-16.494 3.712-7.774 8.921-15.036 14.25-21.426 2.371-2.841 4.891-5.605 7.459-8.208 2.051-2.051 4.891-4.064 6.47-6.589 1.699-2.722 3.080-6.947 2.722-10.616-0.631-6.828-4.853-14.089-8.089-20.164-1.223-2.252-2.371-4.934-4.773-5.882-1.304-0.513-3.512-0.513-4.658-0.794-2.921-0.631-6-2.371-8.921-1.93-10.259 1.579-17.914 9.863-28.334 10.89-3.668 0.374-6.985-1.617-9.982-4.54-2.997-2.878-4.777-6.746-6.553-10.576-2.878-6.235-5.011-12.747-7.022-19.256-1.027-3.316-2.883-6.075-3.987-9.311-0.548-1.617-0.631-3.355-1.027-4.975-1.223-4.773-2.961-10.063-2.055-14.797 1.267-6.866 5.407-13.494 9.199-18.704 3.393-4.658 7.303-8.683 10.34-13.694 1.655-2.803 3.431-5.563 5.048-8.407 0.91-1.655 2.565-3.748 2.288-6.038-0.328-2.565-2.051-5.407-3.236-7.537-0.211-0.374-0.409-0.748-0.631-1.111 0.293-2.093 0.783-4.147 1.459-6.157 1.461-4.263 4.027-7.932 6.235-11.882 3.116-5.481 6.038-11.166 9.713-16.338 2.563-3.549 5.404-6.866 7.932-10.458 1.303-1.932 2.841-3.668 4.102-5.683 2.29-3.549 3.080-7.855 5.407-11.482 2.251-3.512 5.444-6.751 9.035-8.879 3.512-2.093 7.26-3.748 10.816-5.761 4.735-2.684 9.706-4.459 14.562-6.667 2.921-1.342 5.6-2.608 8.683-3.512 1.975-0.548 3.945-2.17 5.918-2.489 0.991-0.163 1.937 0.211 2.921 0.247 1.063 0.037 2.051-0.082 3.116 0.163 4.025 0.945 6.475 4.102 9.706 6.314 1.304 0.91 2.764 1.541 4.106 2.409 2.013 1.183 3.631 2.645 5.444 4.144 2.608 2.17 5.605 3.706 8.17 5.875 2.565 2.132 4.815 4.699 8.287 5.251 2.997 0.478 6.115 0.513 9.199 0.513 3.199-0.037 5.918-0.748 9.079-1.303 2.089-0.374 3.869-0.374 5.875-1.027 2.17-0.713 4.225-0.864 6.199 0.043 2.483 1.145 5.090 1.579 7.418 3.154 2.051 1.384 3.711 3.316 5.605 4.891 2.489 2.093 5.167 3.831 7.579 6 3.473 3.117 7.537 5.995 10.614 9.511 2.803 3.16 4.699 6.947 7.499 10.102 2.093 2.371 4.459 4.339 6.787 6.475 1.267 1.183 2.371 2.326 3.907 3.274 2.131 1.342 4.773 2.131 7.099 3.116 3.475 1.499 9.040 4.815 13.026 2.803 2.17-1.145 2.17-2.326 1.894-4.419-0.328-2.326-0.513-4.576-1.267-6.828-0.713-2.207-1.579-4.339-2.525-6.47-4.502-10.221-12.158-18.509-19.062-27.069-2.446-3.003-5.011-6.396-3.787-10.734 0.548-1.932 1.655-2.326 3.31-2.997 0.91-0.409 1.617-0.864 2.451-1.423 2.17-1.461 4.102-2.326 6.627-2.878 2.764-0.631 5.563-1.027 8.407-1.304 2.446-0.293 4.898 0.043 7.342-0.293 2.841-0.374 5.444-1.027 8.323-1.183 3.512-0.163 6.595 0.037 10.027 0.409 2.921 0.328 5.844 0.432 8.803 0.631 2.051 0.127 4.22 0.293 6.276 0.548 2.645 0.409 4.934 1.461 7.693 1.145 2.645-0.293 8.289-2.565 9.475-5.605 0.328-0.783 0.293-1.855 0.548-2.722 0.548-1.738 0.127-2.093-1.027-3.473-2.961-3.592-5.918-7.027-8.251-11.166-1.459-2.603-2.603-6.038-4.853-8.131-0.864-0.829-1.856-1.735-2.803-2.446-2.17-1.699-5.167-2.051-7.615-3.316-4.382-2.326-9.273-2.959-14.208-3.787-4.815-0.783-9.192-2.251-13.85-3.592-3.316-0.945-6.631-0.409-10.063-0.864-2.841-0.409-5.605-0.409-8.527-0.548-9.035-0.478-17.877-2.326-26.912-2.483-2.921-0.043-5.407-0.513-8.051-1.499-1.819-0.679-3.473-1.461-5.329-1.894-1.38-0.374-3.274-0.595-4.696 0-0.374 0.163-0.91 0.667-1.259 0.631-1.78-0.082-1.461-2.051-3.788-0.945-1.342 0.679-2.684 1.855-3.907 2.684-1.894 1.303-3.748 2.563-5.605 3.945-3.199 2.371-6.038 4.459-10.183 3.592-2.683-0.548-4.934-1.699-6.985-3.475-2.921-2.527-5.486-5.167-6.907-8.839-0.945-2.527-1.145-6.631 0.374-9.199 0.945-1.579 2.684-2.959 3.869-4.377 2.371-2.684 3.751-6.276 5.882-9.154 3.080-4.183 6.828-7.855 9.706-12.158 2.684-3.981 4.502-8.483 6.515-12.861 1.303-2.764 2.803-5.251 2.207-8.289-0.713-3.631-2.013-7.262-3.549-10.534-1.461-3.080-3.592-5.803-4.339-9.199-0.374-1.774-0.409-3.549-0.829-5.323-0.432-1.617-0.247-3.869-0.247-5.448 0-2.446 0-4.652 0.548-7.103 0.713-3.077 1.027-7.099 3.116-9.631 1.342-1.655 3.16-2.645 5.054-3.511 3.473-1.617 6.709-2.527 9.905-4.896 6.589-4.972 12.27-10.458 17.638-16.77 2.803-3.355 6.314-7.774 6.631-12.314 0.374-4.735-2.921-7.693-7.147-8.563-3.154-0.631-6.667-0.043-9.787 0.864-2.841 0.829-5.683 1.111-8.563 1.855-3.95 1.063-7.895 2.489-11.994 2.212-1.541-0.127-1.856-0.409-2.489-1.541-0.991-1.655-2.326-3.116-3.236-4.815-1.145-2.288-1.699-5.011-1.894-7.615-0.293-3.592-0.945-7.38-1.027-10.972-0.037-2.251 0.127-4.419-0.328-6.591-0.374-1.738-1.505-2.726-2.764-3.867-4.184-3.835-8.447-7.66-12.748-11.334-6.511-5.48-13.813-10.458-22.77-10.809-6.038-0.211-12.546 2.371-18.429 3.907-6.947 1.812-13.098 4.22-18.824 8.959-3.316 2.722-6.828 7.459-7.063 11.837-0.163 3.987 1.617 7.579 3.274 10.972 2.252 4.658 5.605 8.803 8.683 12.906 3.199 4.144 7.103 7.495 10.54 11.442 1.111 1.267 1.975 2.684 3.077 3.95 0.631 0.748 1.423 1.339 2.055 2.051 1.891 2.212 3.905 4.735 5.563 7.183 3.116 4.576 5.643 9.235 6.907 14.76 2.011 8.759 3.706 17.675 4.891 26.636 0.631 4.652 1.145 9.588 0.864 14.365-0.163 2.407-0.513 4.183-1.7 6.314-0.864 1.579-2.645 3.116-3.905 4.54-1.856 2.093-2.997 3.631-5.683 4.576-2.603 0.945-5.882 1.223-8.603 1.541-2.603 0.328-4.934 0.748-6.985-0.945-0.794-0.667-0.91-1.185-1.38-2.212-1.423-3.235-2.055-6.746-3.393-10.027-0.713-1.735-1.661-3.355-2.451-5.090-0.432-0.945-0.713-2.17-1.261-2.997-0.91-1.38-2.684-2.446-3.869-3.473-1.099-0.991-2.212-2.051-3.355-2.997-1.536-1.267-3.549-2.565-5.6-2.883-2.803-0.513-5.959 0.945-8.647 1.775-2.764 0.864-4.183 1.581-5.605 4.144-1.261 2.212-2.722 5.371-2.758 7.895-0.043 1.932 0.478 4.144 0.748 6.038 0.293 1.579 0.409 3.274 0.548 4.815 0.293 3.077-0.945 6.709-0.163 9.631 0.328 1.145 1.459 2.251 2.011 3.199 0.91 1.461 1.699 3.041 2.608 4.54 1.699 2.921 4.064 5.761 5.247 8.998 1.661 4.54-0.083 10.338-2.921 14.322-1.267 1.774-2.603 3.831-4.972 3.435-3.003-0.513-5.803-3.549-7.895-5.444-4.027-3.712-7.496-7.776-10.656-12.278-2.288-3.235-4.54-6.667-6.355-10.259-0.748-1.541-1.183-3.154-1.775-4.773-1.541-4.144-4.025-7.895-6.195-11.643-0.829-1.461-1.775-2.764-2.921-3.945-1.581-1.661-2.565-3.592-3.95-5.407-4.025-5.247-9.467-8.287-14.641-12.234-1.735-1.339-3.787-2.326-5.719-3.355-1.423-0.794-2.961-1.855-4.496-2.489-1.819-0.829-4.735-1.223-6.671-0.829-2.288 0.513-5.287 2.212-7.339 3.274-3.869 1.975-6 5.371-7.615 9.237-1.661 4.064-1.894 7.575-1.267 11.757 0.409 2.722 0.794 5.486 1.617 8.131 0.713 2.326 1.735 4.496 2.921 6.589 0.979 1.819 2.645 3.041 4.183 4.339 2.207 1.937 4.457 3.788 6.511 5.882 1.261 1.267 1.975 2.645 2.959 4.064 1.384 1.937 3.199 3.592 4.54 5.563 1.267 1.819 2.489 3.631 4.027 5.211 1.183 1.303 2.565 2.489 3.592 3.945 0.91 1.223 1.579 2.684 2.525 3.869 0.794 0.945 1.617 1.581 2.489 2.409 1.735 1.655 1.423 4.183 1.615 6.432 0.127 1.536 0.631 2.878 0.794 4.377 0.328 2.803 0.829 5.683 1.541 8.407 2.288 8.683 4.419 18.153 3.154 27.428-0.513 3.668-1.735 7.027-3.592 10.259-1.894 3.279-4.457 5.882-6.943 8.683-4.183 4.735-8.527 9.118-14.365 11.643-3.355 1.423-6.276 3.869-9.355 5.839-1.303 0.864-2.371 1.937-3.473 3.080-1.699 1.855-3.748 3.316-5.527 5.090-5.323 5.287-11.561 9.667-16.453 15.468-2.093 2.489-3.751 5.563-5.486 8.364-1.461 2.371-2.883 4.735-4.027 7.267-1.063 2.326-2.011 5.090-2.527 7.771-0.374-0.679-0.713-1.303-1.027-1.894-1.894-3.706-3.987-7.575-5.131-11.562-1.38-4.658-2.288-9.431-3.393-14.13-1.459-6.038-1.738-12.113-2.961-18.19-1.111-5.329-2.997-10.816-4.339-16.139-1.027-4.027-1.894-8.011-3.631-11.919-2.132-4.815-4.54-9.869-7.735-14.010-2.251-2.878-4.934-7.262-8.051-8.839-3.041-1.541-7.027-2.489-10.145-2.684-3.748-0.293-4.025 1.738-5.367 4.616-1.063 2.212-1.855 4.621-2.013 7.267-0.374 7.298 0.864 15.15 1.975 22.53 0.583 3.945 0.864 7.615 2.17 11.444 0.713 2.051 1.183 3.905 1.774 6.038 1.423 5.048 3.668 10.145 5.524 15.114 1.303 3.435 3.236 6.787 4.459 10.259 1.223 3.512 0.945 6.475 0.667 9.825-0.432 5.173-2.212 9.988-2.093 15.312 0.043 2.409 0.864 4.891 0.163 7.183-0.713 2.288-2.131 3.945-3.748 5.527-2.645 2.603-5.683 5.68-9.273 6.746-6.195 1.819-10.534-7.969-16.415-10.733-2.17-1.027-4.735-0.91-6.866-2.051-1.027-0.559-1.937-1.505-2.921-2.133-1.461-0.979-3.041-1.423-4.616-2.093-4.502-1.894-8.251-5.643-12.39-8.246-4.106-2.608-8.445-4.699-11.524-8.921-6.355-8.76-3.279-20.598-3.473-31.531-0.082-4.975 0.127-9.669 0.513-14.682 0.328-4.144-0.478-8.088-1.541-11.876-1.111-3.869-2.997-6.709-4.891-10.063-1.111-1.937-2.131-4.147-3.316-6.079-1.339-2.17-4.22-1.819-6.391-1.894-2.764-0.082-5.643-0.127-8.287 1.423-2.489 1.423-4.263 4.339-5.839 6.907-1.699 2.722-3.435 5.719-4.54 8.839-0.864 2.446-1.342 5.131-2.371 7.537-1.027 2.446-3.512 5.647-5.486 7.303-3.945 3.316-10.221-1.699-13.38-3.825-2.645-1.78-5.524-2.332-8.521-3.16-2.527-0.679-4.898-1.655-7.303-2.684-4.383-1.894-8.603-4.025-12.747-6.391-3.316-1.894-6.276-4.22-8.647-7.499-2.207-3.077-4.025-6.547-6.314-9.631-1.38-1.894-2.997-3.748-4.025-5.956-0.748-1.617-1.303-3.16-2.17-4.699-1.027-1.855-2.332-3.905-3.592-5.643-1.975-2.722-5.131-4.54-7.656-6.47-3.041-2.332-5.92-4.54-8.683-7.267-3.16-3.077-5.923-6.746-8.998-9.943-2.961-3.117-6.195-5.844-9.235-8.879-3.116-3.116-5.683-6.787-8.369-10.377-2.407-3.199-5.090-6.157-7.417-9.436-1.461-2.011-2.17-4.22-3.473-6.271-1.063-1.738-1.975-1.819-3.592-2.288-2.803-0.748-5.605-1.499-8.369-2.251-2.645-0.713-5.959-1.775-8.879-1.617-1.617 0.082-3.154 0.864-4.735 1.423-2.878 1.063-6.115 2.371-7.812 5.761-1.259 2.565-0.864 4.773 0.247 7.063 1.459 3.041 3.592 5.803 5.323 8.647 1.223 2.011 2.722 3.549 3.712 5.799 2.764 6.314 7.417 12.195 11.368 17.444 7.812 10.377 17.286 18.742 24.466 29.792 4.652 7.147 10.534 12.906 15.15 20.089 2.445 3.825 6.432 11.243 5.167 16.572-0.513 2.093-1.774 3.631-3.431 4.815-1.975 1.38-4.579 0.409-6.631 0.127-3.117-0.432-6.235-1.185-9.475-0.748-8.011 1.111-17.562 8.051-20.164 17.519-1.111 4.144-0.513 6.199 2.288 8.369 4.183 3.235 9.905 3.825 14.954 4.301 4.735 0.432 9.631-0.293 14.406-1.063 3.473-0.583 7.183-0.409 10.614-1.812 1.856-0.748 3.711-2.764 5.647-3.16 1.183-0.211 2.483 0.513 3.592 0.829 2.997 0.945 6.115 1.423 9.035 2.645 2.131 0.864 4.064 2.332 6.157 3.316 2.17 1.063 4.339 2.132 6.47 3.355 4.106 2.326 7.656 5.444 11.601 8.047 9.317 6.079 17.996 13.418 26.636 20.641 4.855 4.064 10.263 7.027 15.51 10.496 5.329 3.512 10.221 7.735 15.55 11.285 9.982 6.595 20.202 12.829 29.714 20.322 6.985 5.563 51.973 30.428 61.051 31.846 4.377 0.713 8.683 2.013 12.584 0.293 1.185-0.513 1.661-0.945 3.080-0.794 3.041 0.409 5.959 2.093 8.839 3.475 6.391 3.154 12.234 7.022 17.325 12.627 3.393 3.748 6.076 8.998 8.327 13.614 1.975 3.987 4.616 9.235 3.825 13.65-0.513 2.883-1.267 5.683-1.738 8.647-0.667 4.025-1.183 9.749-4.54 11.837-1.339 0.794-3.035 2.055-4.773 1.78-0.374-0.043-0.631-0.432-0.991-0.478-1.579-0.163-3.035 0.583-4.496 1.111-4.183 1.499-8.051 3.668-12.033 5.643-3.751 1.819-9.040 3.869-11.487 7.776-1.541 2.446-2.212 6.589-0.829 9.825 0.979 2.371 3.236 4.263 5.131 5.761 6.591 5.323 14.402 7.537 21.822 9.391 8.521 2.17 17.362 2.17 25.769 5.251 5.799 2.093 12.113 5.407 16.259 10.892 2.76 3.668 5.090 7.812 6.866 12.076 2.565 6.195 2.525 12.666 3.274 19.061 0.328 2.684 0.667 5.329 0.513 8.011-0.163 3.16-1.267 5.839-2.332 8.603-2.525 6.631-2.722 14.046-5.68 20.36-2.764 5.882-7.459 7.855-13.104 10.102-6.47 2.565-13.532 3.871-20.598 4.579-4.652 0.478-9.355 0.127-14.082 0.043-3.592-0.083-6.947 0.409-10.46 0.783-2.683 0.328-4.616 1.543-6.985 2.722-2.565 1.267-5.167 2.451-6.787 5.095-1.579 2.563-2.525 5.6-3.549 8.521-0.713 1.975-1.699 3.869-1.975 6.038-0.293 2.409 0.247 3.907 1.418 6.119 1.304 2.407 2.565 4.339 4.934 5.486 2.684 1.261 5.725 2.326 8.483 3.31 6.515 2.288 13.182 1.78 19.694 3.95 7.459 2.446 14.562 10.93 17.718 18.785 2.132 5.367 4.147 10.972 4.616 16.614 0.432 5.407 2.055 9.706 3.788 14.874 1.78 5.131 3.674 9.079 6.631 13.614 2.212 3.355 4.027 7.183 7.027 9.749 5.643 4.891 11.601 9.235 17.129 14.365 2.051 1.894 4.652 3.987 5.918 6.631l15.349-9.988c2.013 3.95 5.527 4.147 9.118 5.211 2.483 0.748 4.064 0.945 6.47 0.631 5.527-0.713 11.211-0.679 16.734-1.342 6.709-0.829 13.299-2.489 19.65-4.502 4.183-1.339 8.483-3.035 12.152-5.48 4.106-2.726 6.631-7.975 9.592-11.994 3.473-4.777 6.511-9.988 8.208-16.062 1.111-3.869 2.565-8.251 2.565-12.51 0-3.549-2.013-6.709-3.631-9.868-2.483-4.891-5.048-9.744-7.418-14.678z"></path>
    </svg>