<svg xmlns="http://www.w3.org/2000/svg" viewBox="-3.178 -16.002 1030.355 1120.002">
    <path fill="#000000" d="M859.982 806.918l-29.434 11.782-31.749 8.642-10.295 1.363-4.884-3.145-24.762-7.525-18.933-18.31-22.531-17.034-2.856 0.859-3.972-6.57-7.074-3.886-2.393-29.474-6.247-27.822 1.406-10.048-0.859-5.249 5.872-20.336 3.392-21.828 7.278-4.873 16.372-20.67 20.007-15.049 23.027-10.005 25.217 0.429 15.089-4.047 31.087 5.786 29.434 11.906-0.215 3.392 20.71 23.646 11.74 16.91 6.237 19.677 2.48 28.070-3.682 27.782-9.586 26.622-17.032 22.612-22.778 16.372zM643.609 832.178l-11.699-20.71-17.405-18.606-18.52-12.398-18.354-13.561-4.423-1.117-15.254-13.186-0.429 0.108-16.949-3.886-5.958-2.233-7.815-2.856 4.465-27.948 0.429-27.49-2.641-27.781-1.9-27.737 1.32-29.185-3.8-30.758 23.439 16.288 23.399 13.641-4.508 11.288-2.856 26.703-6.409 26.047-3.059 26.58 0.043 4.959 22.696 1.235 20.96 8.481 5.915 1.492 14.303 2.887 5.625-7.149 5.206-9.339-2.48-0.644 9.017-32.742-11.409-4.219-8.845 5.046-8.512 25.918-14.18-3.017 0.215-0.752-8.684-1.986-1.117-4.090-1.406 0.859-0.537-2.931-5.947 2.566 3.929-16.825 1.611-9.876 4.176-24.347 3.467-14.883 18.19 8.062 19.305 6.204 25.011 13.353 21.496 17.446-4.831 25.255-4.627 26.419 3.017 15.128-17.941 9.715-16.949 11.491-21.538-9.715-23.108-6.537-24.721-4.38 0.752 1.986-2.651-1.567-2.19 0.752-1.278 6.495 1.9 2.726-0.644 1.567 31.501 7.6 7.192 6.785 13.519 3.682 4.465 2.651 5.292 1.192-0.537 0.429 0.859 0.215 8.062 18.355 6.742 9.425 11.328 14.179 9.554-8.062-11.368-33.11 22.324-13.353 6.28 19.014 10.671 13.52 9.586 25.38-25.176 13.27-24.432 12.61zM608.347 911.012l0.537 4.798-3.596 27.040-16.495 22.198-22.696 15.459-25.134 10.914-27.408-0.752-26.376-0.644-26.622-3.639-23.936-12.774-21.827-20.587-7.611-28.814-2.812-29.020-4.294-9.511 4.873-14.094v-5.174l2.233-27.532 14.015-23.812 17.652-21.329 24.969-11.824 26.209-8.684 26.996 1.9 26.787 3.059 24.556 11.285 24.391 12.115 9.296 25.339 4.756 2.769 7.278 27.657 5.046 28.273zM379.654 807.786l9.050 4.176-10.747 28.732-26.252-16.328-24.472-17.859 12.856-27.948 18.19-23.977-0.537-5.743 13.104 0.967 21.745 4.251 26.912-25.176 18.106-14.512 6.452 1.782 13.89 1.986 14.758-16.246-13.766-6.945-6.28 3.671-4.627-4.251-2.726-6.162 0.752-2.308-12.773-33.981-3.392-1.16-22.117 10.005-23.564 6.28-7.321 10.338 0.967 12.24 1.567-0.537 4.841 11.906 14.386-2.608-4.713-19.927 23.522-9.339 8.802 29.436-4.337 4.337-17.032 14.137-13.642 18.315-35.8-2.931 0.859-25.838-5.668-20.545-2.362-21.536-1.363-6.698 0.082-6.119-1.117 1.449 8.148-3.017 0.967 1.235 2.104-1.814 27.078-14.799 25.837-16.58 20.546-13.019 21.206-11.907 22.117-6.945 18.686-10.295 0.322 22.899 2.19 24.063-17.238 6.698-2.275 1.986-2.684 1.986 0.108-0.644-10.913 10.048 2.437 9.757 25.837-5.453 6.322-3.059-0.537 22.078 2.362 22.158-4.219 27.903 0.322 28.982-26.953 4.873-24.556 9.135-20.049 15.875-18.604 17.693-2.19 2.362-8.76-2.974-21.787-11.122-10.123 12.773 18.148 13.808zM291.518 596.415l-22.117-13.353-24.681-8.642-0.215-4.595 20.049-13.312 19.471-14.508 10.997-7.611-14.137-8.148-24.102 17.034-20.835 19.097-11.699 11.948-28.359-4.627 0.752-23.107-1.16-26.289 20.38-0.429 36.834-5.539 34.477-15.503 22.862 11.782 32.244 18.397-28.317 21.91 0.215 2.555-1.073-1.117-1.202 3.478-2.887 9.007 1.363-2.029 1.202 4.132 4.916 1.073 18.437-15.624 19.512-15.133 4.465-1.492 0.967-1.278 1.363-2.931 0.322 0.429 4.423-0.967 1.117-12.486-1.202-0.077-0.322-0.859-27.408-18.685-28.566-13.724 21.331-26.21 22.903 16.784 25.092 13.395 20.339 12.153 9.511 9.876 17.238 5.99 3.843-0.108 23.564 15.38 25.052 14.261-25.094 16.496-27.45 11.077-32.704 17.215-21.787-14.262 13.972-10.499 23.895-16.125-0.082-0.215 0.322 0.429 0.752-3.017 2.029-2.726 7.976-4.262-3.843-1.771-2.233-1.611-3.843 0.215-6.162-0.076-23.192 15.954-24.307 14.595-11.244 20.132 10.208 10.295 12.816 11.368-19.222 10.914-19.843 11.41-18.975-18.643-19.098-17.076zM317.148 743.172l-9.050 18.439-4.627 21.494-15.089 15.71-16.040 15.049-21.496 3.972-21.538-2.275-20.132 0.076-20.546 2.812-18.809-8.684-19.718-7.557-11.865-18.439-13.972-14.633-9.382-26.293-8.76-26.706 11.328-25.425 5.947-28.070 18.892-21.495 16.618-23.771 29.187-4.841 27.945-8.932 27.988 8.512 28.855 5.497 18.602 22.904 22.778 18.768 3.263 22.116 7.482 20.424-1.32 21.332-6.537 20.006zM127.441 436.225l-5.249-4.798-5.539-5.539-8.394-37.291 0.215-1.406-0.082-9.093 4.841 1.073 0.967-28.148 3.467-22.574 13.807-18.643 1.535-4.916 23.192-15.708 24.019-12.32 25.837-8.062 27.574-0.429 26.002 8.599 25.962 10.616 17.776 21.787 16.825 29.019-0.859 3.435 6.655 6.119-0.322 33.609 1.782 18.685-10.048 23.604-11.244 23.15-20.628 15.462-1.235 3.843-3.145 2.437-7.933 3.145-25.217 8.062-3.929 1.986-3.596 1.331-30.84 1.363-29.309-8.599-17.652-4.67-1.117 0.215-0.429-0.537-21.206-13.145-12.485-21.62zM375.562 261.069l11.74 20.711 17.362 18.601 20.587 13.849 20.297 14.925 22.655 8.76 19.347 13.642-0.043 18.685 3.188 20.257-2.684 1.782-24.1 8.018-25.672 4.423-17.238 20.462 16.37 24.35 20.215 20.836 16.659-15.049-23.977-32.164 14.841-7.278 11.368-5.7 11.287-0.322 4.294 0.537-0.322 25.052 2.974 24.888-2.48 29.27 2.362 31.252-25.053-18.89-25.092-14.883-26.086-9.919-25.299-12.114-4.176-4.176 2.48-1.9 4.552-6.527 14.262-14.137 2.437-1.449-6.57-4.916-3.972-4.423-4.090 2.523-16.742 14.512-8.191 5.872-27.781-15.542 3.8-7.278 11.162-14.549 16.577-16.126 16.702-11.406 16.784-11.618 10.702-9.264 4.047-5.164-4.873-9.501-2.029-3.8-18.066-15.792-7.568-5.164-1.202-0.644-3.307-0.215-0.537-1.073-0.215 0.215-1.117-0.859-11.243-18.105-6.742-6.57-0.752 0.037-5.539 1.739-0.322 1.611-1.524 8.599 3.725 1.202 7.439 21.787 3.757 3.059-0.215 2.029 12.029 4.132 2.318 2.147 8.599 1.814 7.278 12.939-19.43 10.747-19.14 10.090-12.774 11.328 0.752-4.552-3.263-22.654-1.986-22.487-13.849-26.377-10.831-28.523 25.217-15.504 25.755-10.005zM463.699 109.639l24.514-6.28 25.837-5.539 26.002 5.131 23.895 11.326 21.868 14.966 12.857 23.313 2.899 2.029 4.132 3.263 5.582 11.489 7.643 24.267-0.537 14.057-4.305 9.586-8.684 33.446-16.122 29.019-24.060 21.662 1.406 4.798-2.104-0.967-22.282 15.174-26.872 1.814-26.705-2.523-23.935-12.195-12.236-1.449-18.397-22.779-22.655-18.563 0.859-8.684-10.873-22.778-3.929-25.134 4.262-25.009 9.468-23.275 12.734-21.457 16.7-18.809zM642.287 257.305l22.324 16.041 28.028 13.312-12.154 24.059-12.609 21.166-1.32 24.596-7.321 23.813-22.737 9.511-21.042 16.204-26.375 19.265-8.932 8.266-9.264 1.943 1.278-25.255-3.263-24.805 19.718 12.524 1.245 2.318-0.859-4.132 15.461-12.486-19.637-8.512-20.214-8.437-13.228 13.187 0.537 24.805 2.566 24.596-2.887 24.638 3.145 3.059-2.974 3.51 2.899 1.16 0.322-0.322 27.449-14.47 20.174-8.018 18.809-10.541 22.2-13.024 23.151-11.656 5.292 30.425-23.482 13.395-25.465 12.156-22.24 16.742-22.241 17.239-27.532 10.659-25.384 14.469 1.16-29.227-2.899-29.062 1.202-27.74 0.967-27.74-0.752-28.027 1.202-27.532 24.887-6.698 24.596-8.963 12.361-11.948 14.222 14.884 9.264 8.512 0.215 1.535 8.394 3.596 2.029 1.653 4.465-4.916 8.642-9.629 0.215 0.076 19.471-30.592-0.322-7.278-14.262 7.192-8.684 11.739-7.149 8.105-2.974 1.117-9.296-11.744-8.469-6.237 13.27-6.773 11.079-24.638 13.642-21.044zM744.602 572.81l-17.776 24.022-0.082 5.539-17.487 13.807-19.305 13.437-31.253-12.278 18.769-21.165 14.716-30.883-3.596-1.073 0.322-0.322-22.447-6.495-20.463-11.902-3.263-6.033-6.903-7.772-1.235-0.859-4.014-3.467-10.997 9.715-0.644-1.449 0.644 1.653-2.566-1.449-0.215 2.072-10.413 5.046-6.033 8.223-2.608 0.108 18.437 5.335 0.429 3.435 8.888-5.453 3.8 2.651 3.596 1.943 11.244 8.437 0.215-0.215 10.123 2.393 16.7 6.452-15.047 15.75-7.858 18.935-10.048-3.478-23.729-14.55-23.935-14.14-23.854-17.94-26.044-14.14 26.582-13.27 24.515-16.784 24.969-12.111 24.927-12.36 10.872-8.018 6.817 17.651 13.6 34.601 25.384 5.41 24.887 3.307 3.263-0.108 2.362-3.553 1.653-3.467 0.752-5.41-21.909-6.86-13.849-3.886-4.305-14.265-16.578-34.849 15.089-9.757 27.119 24.43-0.967 5.335 25.053 15.624 27.779 10.005 29.723 1.653 4.873 4.873 11.162-3.8 6.988 1.245 3.929 24.347 0.215 26.872-23.895 4.552-24.598 1.857-4.916-28.070-2.856-3.188-9.919 2.899-8.191 11.493-3.8 10.541-2.856-0.752zM696.442 377.686l1.235-3.263-5.582-3.435 4.959-25.923 11.326-23.726 15.255-21.499 23.274-12.32 22.612-11.118 24.391-7.976 9.264-3.307 8.18 1.567 21.827 9.554 20.671 10.541 19.14 13.432 18.313 22.778 0.752 2.726 6.162 4.713 6.409 22.862 5.249 9.876-2.233 30.137 2.061 10.627-1.567 1.288 1.449 0.752-8.642 19.515-7.729 19.924-2.641-1.235 1.073 1.16-9.586 12.773-23.604 16.992-26.623 10.831-28.111 2.233-9.833 2.147-6.655-4.798-12.195-3.51-9.017-0.859-21.952-7.729-19.265-13.273-16.536-19.677-6.785-24.596-5.743-24.596zM941.711 679.013l-12.070-33.814-7.074-1.739-13.063-22.158-17.114-14.966-18.148-13.724-2.48-4.756-0.429-20.299-3.307-20.878-4.508-37.286 1.202-3.596 6.655-0.215-0.322 0.537 5.582-2.233 18.313-21.166 20.008-19.885 8.888-26.335 13.891-23.232-0.537-27.119 3.553-27.076-10.381-25.134-6.903-26.21-18.686-20.544 0.644-2.769-19.678-14.303-17.321-16.988-12.608-4.841-17.074-5.131-23.192-4.595-23.977-0.108-23.77 3.639-21.084 9.962-7.321 2.684-11.533 4.541-9.586-3.102-4.713-1.986-25.011-17.155-28.567-11.947-2.19-7.772-5.99-0.859 3.017-9.178-8.684-26.377-6.452-26.993-13.188-24.514-15.337-23.153-19.554-13.558-19.346-13.603-4.873 0.537-15.090-4.541 0.752-4.132-29.351-6.945-33.94 2.029-1.567 0.859-26.084 8.975-25.672 10.789-25.383 22.655-13.684 15.049-11.617 16.742 0.043 2.684-5.164 6.817-3.435 10.747h-0.322l2.393 1.073-3.478 0.537-0.537 2.931-5.164 20.753-0.082 21.291-2.566 8.599-18.066 11.205-19.057 8.845-35.594 18.89-21.786-10.872-22.365-5.002-6.204 0.859-1.073 1.192-31.625-2.555-19.43-0.215-36.545 11.080-18.272 12.816-20.67 9.425-13.023 16.367-13.849 16.246-6.076 27.326-4.67 27.202-2.318 24.018 5.089 23.978-1.363 8.975 12.402 23.025 11.575 23.521 22.901 15.049 20.96 17.363 6.817 9.425 1.073 21.248-4.090 20.873 0.537 21.086-0.108 21.62-11.243-1.857-20.092 20.257-18.644 21.453-12.734 24.764-9.586 25.797-0.215 27.202 0.537 27.036 7.236 26.001 5.539 26.956 19.553 19.222 19.554 18.931 24.060 13.521 22.323 16.328 37.454 5.378 22.49-10.252 24.391-3.682 23.233-7.643 10.79-9.672 14.303 17.942 15.544 15.584 21.373 4.873 19.926 8.469-2.147 9.919 4.38 27.948 1.567 28.769 19.471 21.086 18.892 21.082 22.655 15.667 21.206 18.561 27.74 3.725 27.449 1.117 27.575-1.825 27.615-2.931 25.052-13.891 24.184-15.088 8.802-13.891 13.146-24.35 10.252-25.214 7.031-37.124 0.429-2.48 0.537-2.684-0.537-1.278 0.215-1.814-1.202-3.51 17.445-10.671 19.016-9.264 16.784-12.941 18.231-10.702 9.178 3.51 25.424 6.988 24.391 10.456 20.587-1.771 14.18 0.859 33.32-5.41 18.851-9.844 19.512-8.105 22.158-18.231 17.239-18.105 2.726-6.86 6.495-22.2 4.294-22.737 4.627-12.773-3.22-25.218-2.275-25.713z"></path>
    </svg>