<svg xmlns="http://www.w3.org/2000/svg" viewBox="27.987 173.988 1003.549 866.264">
    <path fill="#000000" d="M497.267 879.34c36.338-2.14 72.358-7.034 108.552-10.675 8.566-0.856 17.207-1.215 25.844-1.501 0.247-0.962 0.607-1.889 1.072-2.783-55.4-6.961-112.335-7.101-169.238-5.784-0.893 0.643-1.928 1.107-3.319 1.072-7.139-0.033-14.242-0.228-21.345-0.428-29.628 0.819-59.151 1.857-88.386 2.285-1.072 0.098-2.14 0.228-3.213 0.326-10.818 1.712-21.524 3.639-32.305 5.318-0.713 0.643-1.427 1.284-2.106 2.001 61.576 2.535 122.081 13.849 184.445 10.172z"></path>
    <path fill="#000000" d="M836.625 908.8c-41.051-4.713-83.603-4.393-126.261-1.857-49.296-2.964-100.308-6.887-149.889-3.495-37.838 0.391-77.283 6.495-114.085 12.028 25.272 1.466 50.511 3.141 75.783 4.677 39.339-0.293 78.71-0.568 118.049-0.605 44.872-0.033 89.776-0.357 134.542-2.569 2.605-0.163 5.211-0.391 7.816-0.61 11.066-0.856 22.060-1.889 33.019-2.676 7.673-0.753 15.35-1.573 23.025-2.322 0.247-1.391-0.284-2.392-1.998-2.569z"></path>
    <path fill="#000000" d="M509.386 950.117c-7.102-0.679-14.206-1.466-21.276-2.215-11.457 0.065-22.918 0.261-34.27 0.391-44.692 0.605-88.422 3.462-132.719 9.316-0.75 0.098-2.964 2.317-1.606 2.317 41.123 0.326 82.065-0.498 123.19-1.177 42.478-0.676 85.209 1.072 127.651-0.749 1.105-0.065 3.461-1.963 4.856-3.676-21.847 1.284-44.264-2.178-65.826-4.211z"></path>
    <path fill="#000000" d="M687.387 633.034c-3.25 0.098-6.531 0.228-9.817 0.293-49.977 1.215-99.986 2.927-149.999 2.535-50.653-0.428-101.201-2.964-151.817-3.965-41.231-0.819-82.388 0.786-123.581 1.072 66.861-3.679 133.897-5.356 200.901-6.143 24.81 0.786 49.654 1.501 74.498 1.712 51.188 0.391 102.414-1.391 153.604-2.606 3.569-0.065 7.21-0.163 10.851-0.326 28.986 0.195 57.972 0.786 86.959 1.857-30.486 1.177-61.149 2.89-91.599 5.57zM715.018 711.817c-29.199 0.033-58.364 0.163-87.492 1.105-1.321 0.033-2.32-0.357-3.213-0.894 16.99-1.927 33.984-5.244 50.976-5.71 18.705-0.535 37.339 0.605 55.795 2.997-5.353 0.819-10.708 1.712-16.065 2.499zM265.059 476.186c2.711-6.678 5.427-13.351 8.138-20.025 3.89-6.855 8.176-13.351 12.958-19.706-0.676 0.098-1.391 0.098-2.071 0 0.75-1.248 1.464-2.499 2.214-3.746 0.321-0.535 0.534-1 0.676-1.429 5.924-10.493 12.457-20.205 19.527-29.949 9.565-13.172 23.523-23.272 36.411-33.445 0.284 0.465 0.534 0.962 0.676 1.498 1.248-1.105 2.463-2.215 3.747-3.318 11.494-7.818 23.809-14.528 36.624-20.205 0.357 0.61 1.284 0.717 3.25-0.261 8.852-4.356 17.814-8.101 27.057-11.317 12.102-3.355 24.238-6.495 36.481-9.316-10.136 3.855-20.097 8.211-29.985 12.778-11.029 3.89-21.884 8.427-32.448 13.565-21.133 10.246-43.693 20.917-56.973 40.946-1.643 1.358-3.034 2.894-3.998 4.5-0.676 0.676-1.391 1.358-2.071 2.071 0.357-0.098 0.75-0.033 1.072-0.065-0.428 1.466-0.391 2.75-0.5 4.5-0.856 1.677-1.677 3.355-2.463 5.142-0.713 1.605-0.037 1.853 1.072 1.498-0.676 2.359-1.501 4.677-2.072 6.924-0.893 3.536 5.676-1.284 6.247-2.392 2.854-5.318 6.209-10.172 10.422-14.314 0.714-0.61 1.358-1.284 2.072-1.857 1.248-1.105 2.499-2.178 3.927-3.104 2.928-1.93 6.067-3.606 9.174-5.285 0.676 0.098 1.284 0.465 1.892 0.819-12.35 11.566-24.024 22.632-32.554 38.34-0.284 0.5-0.571 1-0.856 1.536-1.82 2.783-3.569 5.637-5.175 8.599-0.071 0.228-0.144 0.358-0.177 0.5-3.89 6.533-7.711 13.351-9.782 20.419-1.141-1.322-1.82-3.14-1.464-5.461 0.751-4.784 2.072-9.279 3.604-13.672-0.714-0.391-1.321-0.929-1.855-1.498 1.534-2.499 3.107-4.999 4.677-7.497 1.57-2.535 0.713-3.283-0.714-3.14 0.962-1.82 1.892-3.644 2.854-5.463 1.427-2.535-0.676-2.997-2.605-1.461-13.851 11.137-24.415 24.347-33.018 39.908-3.14 5.64-10.316 13.96-13.458 22.094-0.929-0.819-1.677-1.927-2.072-3.211 0.5-1.498 1.036-2.997 1.534-4.495zM604.108 338.888c16.456 1.605 32.268 3.104 47.833 10.422 15.064 7.101 36.448 20.81 40.265 38.23-0.037 0-0.107 0.033-0.177 0.033-3.641-5.637-7.711-10.777-13.672-15.24-9.137-6.817-19.277-12.564-29.594-17.418-14.385-6.748-29.414-11.387-44.835-14.173-0.037-0.605 0.071-1.248 0.181-1.853zM722.41 473.212c-0.247-0.786-0.465-1.61-0.75-2.392-4.534-12.457-7.925-22.774-15.669-32.092-3.89-4.639-5.998-7.422-8.424-10.136 3.392 1.568 6.674 3.355 9.708 6.143 4.427 4.031 7.71 8.959 11.388 13.458 0.962 3.107 2.14 7.604 2.821 8.674 1.963 5.677 0.247 10.708 0.929 16.351zM942.16 728.122c-5.068-0.326-10.136-0.643-15.207-0.963-26.45-5.393-55.972-7.855-84.386-7.245-5.248-0.428-10.495-0.963-15.743-1.248 0.607-0.786 1.178-1.501 1.677-2.249 6.352 0.357 12.743 0.572 19.242 0.535 1.534-0.033 3.641-0.717 6.104-1.857 4.999-0.572 10.030-1.568 15.636-3.392 4.212-1.358 27.164-18.991 33.698-30.343-0.607-3.034-1.284-6.033-2.071-9.032-0.247-0.065-0.357-0.13-0.571-0.195-0.321-1.857-0.713-3.746-1.072-5.604-4.391-14.565-10.21-28.737-14.707-43.37-0.677-1-1.501-1.894-2.215-2.89-1.178-4.393-3.25-8.39-5.285-12.387-1.464-0.61-2.928-1.182-4.427-1.712-0.428-0.163-0.713-0.428-1.105-0.61-0.144 4.211-0.608 8.423-1.215 12.743-1.427 10.354-1.786 20.382-5.89 30.024-0.071 1.787-0.071 3.532-0.181 5.318-0.571 0.195-1.178 0.293-1.82 0.228-13.386-0.894-26.381-0.098-39.73 0.856-4.249 0.293-6.854-4.141-6.104-7.855 0.5-1.248 0.999-2.499 1.501-3.783 3.213-6.209 6.352-12.424 7.496-19.74 1.215-7.386 0.962-14.812 0.181-22.203 0.144-0.926 0.247-1.853 0.391-2.783 3.569 13.029 6.067 26.306 6.817 39.48 0.107 1.93 4.962-1.75 5.068-3.211 1.57-20.773 3.176-45.941-10.532-63.291-2.177-7.315-4.746-14.635-7.925-21.917-2.035-4.639-4.249-9.423-6.605-14.244-1.786-6.462-3.535-12.919-5.427-19.453-0.071-3.318-0.144-6.781-0.819-10.782-1.248-7.459-5.461-14.314-7.995-21.42-2.569-7.245-4.391-14.668-6.141-22.132-2.32-3.821-4.783-7.639-7.177-11.494-0.893-4.46-2.249-8.959-3.998-13.42-4.106-10.424-7.462-24.7-14.602-33.486-0.713-0.856-1.57-1.605-2.392-2.317-1.677-2.678-3.426-5.249-5.248-7.673-3.392-4.603-10.495-14.1-17.883-20.454 19.739 12.709 32.448 27.237 43.049 48.867 0.608 0.535 1.178 1.14 1.606 2.071 1.105 2.249 2.106 4.57 3.14 6.855 7.816 13.816 17.064 26.915 23.38 41.374 1.427 2.034 2.891 4.104 4.318 6.176 3.927 8.46 8.424 16.776 11.531 24.738 6.176 15.779 13.386 29.912 23.881 43.334 0.181 0.261 0.5 0.357 0.786 0.428 0.214 0.5 0.428 1 0.643 1.498 1.534 0.753 2.785 1.964 3.283 3.679 0.856 2.745 1.786 5.496 2.711 8.278 4.783 8.959 10.067 17.744 15.743 26.38-3.14-14.921-5.782-30.019-7.531-44.729-0.144-1.248 0.321-2.14 1.036-2.711-2.964-7.245-6.033-14.492-9.28-21.631-0.107-0.293-0.144-0.572-0.284-0.856-4.926-7.427-10.067-14.71-15.636-21.774 0-0.098-0.037-0.228-0.071-0.326-0.284-0.326-0.571-0.676-0.819-1.033-2.678-5.821-6.283-11.531-8.175-17.099-3.392-9.926-7.353-19.777-10.817-29.698 2.854 5.208 4.889 10.994 7.959 16.133 3.927 6.495 8.889 10.884 13.814 16.417 5.89 6.605 10.279 14.635 15.35 21.848 0.643 0.856 3.213-1.501 2.928-2.392-1.248-4.318-2.821-8.427-4.57-12.387-1.57-4.108-3.283-8.176-5.105-12.248 0.643 0.679 1.179 1.466 1.501 2.535 1.464 0.033 2.928 0.535 4.069 1.82-9.174-15.526-18.206-30.271-24.774-47.228-5.142-13.281-9.245-26.166-17.207-38.126-4.284-6.462-8.959-12.634-13.423-18.953-0.856-2.535-1.749-5.032-2.785-7.534-0.284-0.712-0.676-1.391-0.999-2.106-3.712-5.244-7.245-10.456-9.782-15.705-0.999-2.071-2.106-4.031-3.283-5.924-2.426-3.355-4.925-6.71-7.388-10.065-9.531-10.852-21.704-18.637-34.662-26.343 0.247-0.856 0.321-1.68 0-2.285-5.248-9.531-16.065-14.956-25.060-20.489-2.711-1.643-5.391-3.107-8.101-4.639-7.496-1.857-15.098-3.216-22.489-4.072 0.856 0.819 1.712 1.61 2.605 2.392-19.739-5.714-42.872-4.998-62.077-8.423-1.464-0.261-5.353 3.495-3.569 4.141 10.601 3.712 21.026 7.958 31.412 12.314 5.89 4.249 11.388 9.172 16.562 14.421 7.925 5.64 14.421 12.709 18.596 21.42 0.751 1.605 0.714 3.318 0.181 4.889-9.531-9.493-20.953-15.989-33.412-20.345-8.387-4.495-18.026-7.604-27.95-9.637-0.107 1.105-0.5 2.178-1.072 3.104-4.498-0.568-9.031-0.996-13.566-1.248-7.782-1.889-15.6-3.569-23.49-4.854-1.998 0.065-4.069 0.13-5.924 0.293-2.106 0.195-3.641-0.535-4.64-1.712-31.2-3.928-62.935-3.355-94.775 0.749-9.565 1.215-18.956 2.931-28.236 4.856-0.071 0-0.071-0.033-0.144-0.033-43.62 8.211-90.098 18.065-127.757 42.514 0.181-1.177 0.819-2.317 2.034-3.355 27.559-23.061 66.752-38.158 103.59-46.37 0.676-1.105 1.712-2.106 3.25-2.606 41.157-13.672 90.991-23.416 134.79-15.598 0.465 0 0.962-0.065 1.464-0.098-0.607-2.499 0.534-5.389 2.711-6.999-1.82-0.326-3.641-0.642-5.461-0.962-2.177-0.428-3.604-2.073-4.175-3.998-36.052-1.177-71.644-5.496-107.517-2.322-4.603 1.358-9.317 3.25-14.099 5.285-6.638 0.261-13.244 0.535-19.882 0.929-1.248 0.065-2.499 0.261-3.747 0.357-1.464 0.391-2.928 0.749-4.391 1.177-1.643 0.5-3.070 0.261-4.249-0.357-30.593 3.998-61.043 16.241-82.102 38.516-29.594 15.421-57.043 34.303-80.781 56.897-31.84 30.308-61.791 78.178-71.464 126.294 0.713-1 1.358-2.034 2.106-2.997 1.358-1.787 2.748-3.462 4.106-5.175 10.923-26.664 32.734-47.474 49.868-70.001 0.856-1.14 1.998-1.498 3.14-1.498-0.107 0.13-0.214 0.293-0.284 0.391-5.998 10.493-14.921 19.277-19.955 30.2-0.643 0.894-1.248 1.82-1.929 2.713 0.819-0.929 1.57-1.857 2.392-2.788 9.851-11.066 18.454-24.775 30.45-33.519 0.57-0.428 1.141-0.676 1.712-0.856 1.712-0.856 3.641-0.712 5.354 0.065-6.675 7.815-12.493 16.171-17.313 25.203-9.137 13.42-17.419 27.593-23.49 42.123-0.357 0.428-0.713 0.819-1.072 1.248-8.926 17.599-12.6 38.158-19.242 56.758-1.178 3.355-2.14 6.748-3.070 10.136-4.032 21.741-5.427 42.41-3.107 63.575 0.465 3.318 0.962 6.603 1.427 9.926 1.321 5.426 2.785 10.815 4.355 16.171 0.607-4.928 1.248-9.744 2.071-14.281 2.748-15.491 7.747-29.949 13.029-44.408 0.037 3.499 0.071 7.034 0.214 10.532-3.569 14.458-4.856 29.163-1.892 43.798-0.144 0.963-0.357 1.857-0.5 2.82-1.57 9.674-2.642 19.921-4.032 30.094 3.426 10.638 6.891 21.276 9.888 32.020 0.819 2.964-1.036 7.315-4.427 7.815-5.604 0.786-10.638 1.429-15.064 0.293-0.071 0.098-0.071 0.228-0.144 0.326-1.787 4.211-9.102 4.067-10.923 0-1.606-3.569-2.678-6.999-3.535-10.424-0.247-0.261-0.465-0.533-0.676-0.819-6.817-9.993-9.423-20.847-10.851-32.092-1.534-0.676-2.748-1.927-3.14-3.888-3.712-18.419-4.069-36.804-2.32-55.045-0.465-1.75-0.893-3.499-1.215-5.393-0.321-1.927-0.465-3.855-0.5-5.817-2.678 9.032-5.354 18.027-7.996 27.092-3.283 22.993-4.677 46.409-7.067 69.788 0.181 0.293 0.391 0.568 0.608 0.856-0.534 0.326-1.036 0.712-1.534 1.105 0.999 5.924 2.821 11.783 3.107 18.172 0.284 6.85-2.357 12.634-4.926 18.632 0.819 0.293 1.677 0.5 2.5 0.676-1.749 2.499-5.032 8.423-1.712 9.353 0 0 0 0-0.037 0.033-2.034 2.997-3.641 8.211 1.643 8.211 12.028 0.033 24.095 0.033 36.126 0.033-3.712 0.856-7.388 1.787-11.029 2.927-0.608 0.163-4.033 3.283-2.357 3.536 1.677 0.261 3.356 0.428 5.032 0.568-0.676 0.753-1.105 1.501-0.465 1.536 42.124 2.745 84.422-1.322 126.546-3.071 0.037 0.13 0.181 0.261 0.465 0.293 5.496 0.293 11.494 0.13 17.099-0.676 0.856-0.065 1.677-0.098 2.535-0.228 0.071 0 0.284-0.13 0.5-0.326 0.391-0.065 0.819-0.13 1.215-0.228 0 0 0.037-0.033 0-0.033-0.247-0.098-0.571-0.098-0.856-0.163 0.037-0.098 0.037-0.13-0.071-0.163-0.929-0.228-1.786-0.261-2.678-0.396-0.713-0.098-1.358-0.261-2.071-0.326-1.141-0.098-2.249-0.195-3.393-0.261-0.181 0-0.391-0.033-0.57-0.033-0.571-0.033-1.179 0-1.749-0.033-0.643 0-1.321-0.033-1.998-0.033-0.037-0.163-0.144-0.326-0.181-0.5-0.037 0-0.071 0-0.107 0-0.893 0-1.786-0.033-2.642-0.033-3.462-0.676-6.817-1.284-10.246-1.82 5.21-0.428 10.389-0.753 15.526-0.819 7.282-0.098 14.67 0 22.027-0.163 7.639 0.326 15.314 0.465 23.061 0.261 4.64 0.358 9.674 0.929 13.957 1.82 0.037 0.293 0.107 0.535 0.107 0.786-4.603 0.786-9.245 1.322-13.887 1.894-4.355 0.261-8.746 0.894-12.245 1.105-2.535 0.13-4.962 0.357-7.353 0.61-0.037 0-0.071-0.033-0.071-0.033-1.105 0.13-2.214 0.293-3.319 0.428-0.037 0.033-0.107 0.065-0.144 0.098-2.357 0.357-4.746 0.856-7.067 1.461-1.606-0.033-3.176-0.033-4.783 0-4.427 0.572-8.852 1.14-13.28 1.712-0.144 0.033-0.284 0.033-0.465 0.065-0.071-0.065-0.181-0.098-0.214-0.163-12.816 1.358-25.701 2.249-39.088 2.466-17.418 0.326-34.625 0.786-51.617 3.211-9.211 0.228-18.385 0.61-27.522 1.534-1.358 0.13-2.711 0.358-4.069 0.535-0.107 1.215-0.713 2.359-2.071 2.997-11.959 5.747-24.381 5.747-37.373 6.605-9.782 0.642-23.416 0.786-32.235 5.998-6.638 3.96-7.71 7.85-3.070 11.566 3.998 2.071 9.031 3.14 12.71 4.388 2.642 0.894 3.283 3.141 2.678 5.105 9.745 1.894 19.563 3.821 29.377 5.64 3.569 0.391 6.997 0.819 10.279 1.358 0.713 0.098 1.248 0.428 1.712 0.786 9.994 1.75 19.955 3.318 29.914 4.57 3.821-0.13 7.604-0.391 11.351-0.786 6.748-0.293 13.349-0.712 19.31-1.14 58.436 2.282 116.834 4.961 175.128 9.637-16.028 1.215-31.914 3.107-46.727 4.174-46.799 3.392-93.633 4.928-140.36 8.64-1.929 0.13-5.068 2.535-7.568 5.175-1.786 0.033-3.604 0.065-5.39 0.065-0.819 0.033-3.393 2.643-2.14 2.89 52.045 11.601 108.98 14.458 163.528 10.103 13.28 1.182 26.559 2.285 39.836 3.107 13.458-0.391 26.951-0.963 40.443-1.643 14.385 0.894 29.023-0.357 43.551-1.712 37.267-0.963 74.463 0.163 111.659 1.82 0 0.033 0 0.033 0 0.033 55.187 2.89 111.194 6.673 166.060-1.787 2.177-0.326 9.708-6.999 5.21-7.245-28.056-1.429-55.864-5.175-83.851-7.604-12.244-1.072-24.489-1.787-36.733-2.894-0.676-0.065-1.644-0.228-2.711-0.391 1.464-0.642 2.928-1.322 4.391-1.853 50.297-6.748 101.27-7.034 152.21-6.891 9.28-1.248 18.634-1.894 27.879-3.178 2.214-2.178 3.604-4.713 0.893-4.923-7.282-0.572-14.564-0.929-21.81-1.145-0.321-0.326-0.751-0.568-1.57-0.642-2.072-0.195-4.106-0.357-6.141-0.535 0-0.033-0.037-0.033-0.037-0.065-6.426-0.163-12.852-0.498-19.277-1.177-0.819-0.098-1.391-0.465-1.998-0.749-7.353-0.228-14.744-0.5-22.132-0.676-4.889-0.195-9.782-0.358-14.67-0.465-3.712-1.038-7.496-1.857-11.352-2.535-17.418-0.358-34.842-0.824-52.26-1.964-0.465 0-0.856-0.13-1.248-0.261-10.389 0.357-20.631 0.819-30.376 0.894-0.144 0-0.284 0-0.428 0-6.389 0.605-12.743 1.354-19.134 2.317-2.249 0.357-4.032-0.465-5.354-1.75-5.39 0.098-10.817 0.293-16.208 0.391-20.954 0.717-41.871 1.787-62.825 3.107-18.776 1.14-37.553 1.996-56.292 2.788 1.712-1.215 3.569-2.643 5.427-4.179 3.963-0.293 7.89-0.819 11.709-1.284 14.063-1.712 28.13-3.997 42.193-5.961 0.999-0.13 4.212-2.964 4.64-4.425 1.036-0.963 1.929-2.249 0.856-2.89-9.245-5.57-23.809-5.891-34.589-7.177-6.638-0.786-13.349-1.284-20.025-1.248-0.676-0.228-1.358-0.391-2.32-0.428-4.926-0.098-9.924-0.293-14.85-0.465-28.558-1.14-59.077-3.783-89.527-4.779-17.207-1.391-42.586-3.392-50.976-5.857 2.14-1.033 4.355-1.963 6.675-2.783 28.308-5.068 58.649-8.211 87.135-9.032 1.215-0.033 2.177 0.326 2.997 0.786 12.387-0.605 24.738-1.677 37.088-2.676 1.072-0.065 1.855 0.163 2.605 0.533 6.674-0.894 13.386-1.534 20.098-1.889 8.673-1.182 17.312-2.535 25.773-4.211 3.821-0.293 7.567-0.572 11.209-0.819 0.75-0.033 2.249-1.145 3.176-2.249 0.321-0.065 0.643-0.098 0.929-0.195-0.247 0-0.534 0-0.786-0.033 0.786-0.962 1.036-1.889-0.181-1.963-16.098-1.072-32.983-1.964-49.369-0.819-0.214-0.357-0.465-0.717-0.607-1.072 21.169-0.642 42.087-2.462 63.648-0.642 7.816 0.676 15.636 0.894 23.49 0.894 7.959 2.462 16.847 1.358 25.165 0.293 6.569-0.819 13.172-1.677 19.775-2.606 12.281 0.228 24.558 0.428 36.839 0.786-19.347 1.182-38.694 2.894-57.972 4.821-0.214 0.465-0.57 0.856-0.962 1.215-4.141 0.326-8.244 0.717-12.138 1.107-3.392 0.357-6.924 0.605-10.067 2.106-1.427 0.676-2.605 1.677-3.784 2.638-5.248 1.75-10.030 3.499-15.636 3.751-0.107 0-0.144-0.033-0.247-0.033-5.496 1.248-11.352 1.75-16.884 2.282-23.061 2.215-46.193 0.753-69.073 5.068-0.819 0.13-1.534 0-2.14-0.293-3.678 0.357-7.283 0.749-10.96 1.072-1.072 0.065-5.142 3.676-3.283 4.104 5.032 1.177 3.889 1.105 7.925 0.929-0.214 0.572-0.107 0.963 0.676 0.963 0.999 0 2.034 0.033 3.034 0.033 0.181 0.065 0.321 0.13 0.643 0.13 0.465 0 0.962-0.065 1.427-0.098 7.103 0.098 14.173 0.465 21.239 0.717 98.273 11.103 198.046 13.744 297.14 12.671 8.816-0.572 17.635-1.391 26.381-2.569 16.705-0.535 33.341-1.787 49.406-6.462 1.391-0.428 9.354-7.138 5.533-7.995-0.75-0.163-1.534-0.293-2.32-0.428 0.071-0.786-0.357-1.358-1.677-1.501-29.451-2.745-62.005-5.994-93.131-4.281 0 0-0.037-0.033-0.071-0.033-2.928 0-5.924-0.098-8.925-0.163 12.743-2.249 25.488-4.639 38.409-5.426 3.319-0.098 6.569-0.195 9.851-0.293 16.705-0.033 32.983 1.894 49.618-0.712 24.595 1.787 51.474-1.14 71.216-8.959 3.070-1.215 17.957-14.1 8.566-14.668z"></path>
    </svg>