<svg xmlns="http://www.w3.org/2000/svg" viewBox="-14.442 13.754 1079.553 1060.681">
    <path fill="#000000" d="M389.18 341.050c-2.732-15.805-18.978-18.265-32.589-19.742-25.515-2.779-59.761 0.931-83.487 15.846-3.267 0.931-6.532 2.325-10.078 4.569-8.905 5.556-17.324 13.612-22.203 23.009-2.685 5.243-3.045 9.264-1.383 12.582 0.581 3.173 2.233 6.22 5.905 8.905 11.865 8.637 29.235 7.115 43.023 7.254 1.046 0 2.779-0.814 4.569-2.105 0.465 0 0.931-0.040 1.394-0.040 5.905-4.115 11.543-8.997 15.399-14.777-2.871 0.465-5.777 0.697-8.59 0.814-6.405 1.965-14.013 2.105-19.295 0.465-4.394-1.349-7.881-4.929-7.427-9.765 0.232-2.593 1.57-4.697 3.359-6.451 6.627-9.091 21.755-12.893 31.605-15.353 13.652-3.452 30.442-6.8 44.408-3.092 8.277 2.15 15.534 10.254 9.799 18.265-0.040 0.349 0.040 0.581-0.040 0.931-5.824 18.175-29.412 33.619-45.795 41.632-11.729 5.777-27.936 12.893-41.186 8.637-0.349 0.117-0.581 0.232-0.931 0.349-0.232 0.040-0.581 0.040-0.814 0.084-19.471 1.046-34.111-8.952-52.958-10.706-32.591-3.045-61.51 22.563-94.321 23.235-2.779 0.040-11.067 12.803-7.126 13.923 34.517 9.707 68.942-22.88 99.828 0.232 5.732 4.254 11.601 7.254 17.551 9.091 0.697-0.581 1.522-0.931 2.685-0.814 6.487 0.581 12.845 0.581 19.115 0.082 19.249-4.43 37.646-11.149 55.284-20.41 16.071-11.101 32.503-24.129 45.438-38.232 4.347-3.627 8.288-7.346 11.508-10.915 8.149-9.044 19.562-24.621 17.324-37.471z"></path>
    <path fill="#000000" d="M896.337 608.922c25.515-15.127 48.572-39.931 73.907-72.52 2.732-3.535 14.239-22.653 7.881-26.68 5.278-12.537 6.986-26.635 3.139-36.797-1.394-7.382-6.312-13.566-16.117-17.371-18.445 2.197-36.351 6.451-53.944 13.968-3.941 1.698-7.834 3.58-11.727 5.417-24.577 12.537-46.423 29.099-69.477 44.228-20.056 13.164-42.485 22.295-66.837 21.399-9.986-0.465-19.203-2.779-28.202-5.905-9.579-0.581-18.803-3.395-27.759-7.161-4.603-0.931-9.264-2.105-13.786-3.546-3.895-0.814-7.742-1.918-11.461-3.348-4.115-1.046-8.196-2.372-12.179-3.987-6.125-2.512-20.816-8.241-20.682-16.835 0.040-1.383 0.814-3 2.105-3.627 8.288-3.941 19.43-2.244 29.949-1.046 34.517-1.617 67.464-8.857 99.607-22.157 1.046-0.465 2.010-0.465 2.779-0.039 8.369-3 17.056-6.894 24.708-13.209 13.209-6.044 25.741-14.546 34.472-26.053 0.465-0.697 1.79-2.512 3.22-4.837 13.566-11.241 20.951-25.471 2.010-35.903-23.679-13.114-65.808-7.929-90.966-6.044-19.203 1.383-37.334 4.162-54.748 9.671-8.997 1.918-17.998 4.023-26.951 5.999-0.581 0.117-1.163 0.117-1.698 0.040-7.742 2.824-15.173 6.265-21.801 10.299-7.034 4.302-16.383 10.694-18.803 19.115-2.593 8.997 3.499 11.601 10.927 14.821 10.694 4.65 25.471 8.637 38.228 6.708 0.349 0.117 0.697 0.349 1.163 0.465 0.465 0.084 0.814 0.084 1.255 0.117 8.102-0.931 18.847-2.372 27.844-5.952 4.115-3.173 7.742-7.115 11.101-11.322-1.302 0.117-2.545 0.232-3.801 0.349-10.206 3.766-22.785 4.254-29.995-0.465-1.163-0.697-1.883-1.976-2.010-3.312-0.814-2.512-0.232-5.637 2.010-9.044 4.929-7.393 15.715-11.819 26.591-14.46 10.474-1.255 21.042-2.105 31.967-2.15 5.37 0 10.742-0.039 16.117-0.082 8.952 1.617 17.367 4.79 21.891 10.694 4.023 5.197 3.674 10.206 1.21 14.595-1.046 14.546-32.501 26.455-42.617 29.141-24.22 6.487-48.526 10.031-73.594 7.161-2.417-0.232-4.976-0.581-7.567-0.814-20.144-0.581-40.426-8.010-58.688-15.801-38.545-16.387-70.553-35.455-113.977-34.382-19.475 0.465-38.278 4.837-57.393 7.881-6.22-0.465-13.741 1.662-18.849 2.512-1.883 0.349-3.674 0.814-5.464 1.291-2.685 0.232-5.37 0.465-8.102 0.465-0.349 0-0.697-0.039-1.046 0.040-1.522-0.465-2.871-0.931-4.081-1.743-1.337-4.034 2.325-8.556 6.719-12.045 1.918-2.545 5.684-5.417 7.881-7.474 10.742-5.637 22.071-10.159 34.648-13.028 18.713-4.302 37.873-5.637 57.036-5.732 3.719-0.040 7.474-0.040 11.241 0.082 5.37 0.081 10.742 0.232 16.113 0.465 0.814 0.040 1.43 0.349 2.010 0.581 9.451 0.931 19.115 2.244 29.097 3.941 25.697 4.475 51.302 8.102 76.998 1.883 23.282-5.637 45.082-18.357 68.048-25.025 1.617-0.040 3.22 0.082 4.837 0.117 4.603-1.163 9.359-1.883 14.144-2.417 10.114-1.918 20.73-2.545 29.728-3.44 11.909-1.163 23.994-2.057 36.081-2.15-1.743-0.697-3.535-1.349-5.278-2.023-25.873-9.579-55.464-13.34-82.954-10.962-13.16 1.163-36.035 8.509-56.806 9.799-0.349-0.082-0.581-0.117-0.931-0.117-40.333-3.801-69.969-29.365-109.052-35.547-35.903-5.732-71.938 5.952-103.498 22.383-0.465 0.232-2.779 2.824-1.163 2.604 5.37-0.814 10.694-1.522 16.071-2.197 14.595-3.58 30.038-5.149 44.946-5.37 1.302 0 2.593 0 3.895 0.040 3.359 0.465 6.708 0.931 10.031 1.743 0.581 0.232 1.255 0.465 1.837 0.697 0.581 0.081 1.21 0.232 1.837 0.349 0.931 0.349 1.883 0.465 2.824 0.814 2.278 0.814 6.265 2.639 9.136 4.614 8.684 2.905 16.965 7.742 13.205 14.997-3.359 6.451-15.177 3.546-20.414 3.173-21.981-1.43-43.289-0.081-64.823 4.697-23.414 5.243-46.107 12.762-67.284 24.040-12.131 6.498-24.666 18.265-37.961 22.563-5.905 3.674-11.949 7.115-18.085 10.299-12.803 7.346-26.007 13.251-39.665 17.996-2.105 0.814-4.207 1.698-6.312 2.557-29.321 6.8-58.286 16.383-84.119 31.336-16.157 9.359-60.119 36.841-50.674 61.464 5.603 14.46 20.594 16.965 37.248 14.772 16.157 0.349 36.707-5.952 46.688-8.59 57.84-15.173 108.874-9.091 167.337-6.22 35.367 9.532 69.433-8.010 104.261-15.533 0.465-0.697 1.163-1.255 2.197-1.477 15.086-3.407 73.102-0.465 53.183-27.352-10.521-14.189-29.411-23.322-49.198-29.277-0.581-0.040-1.046 0-1.617-0.040-2.952-0.931-5.859-1.743-8.729-2.244-2.372-0.931-4.837-1.662-7.427-2.289-1.163-0.232-2.278-0.465-3.407-0.697-14.144-2.732-30.125-2.15-41.23-1.976-6.672 0.117-13.386 0.465-20.009 1.163-17.101-0.931-37.695 7.115-48.526 17.863-6.986 6.939-11.733 17.367-1.302 23.457 10.393 6.091 24.759 9.811 36.753 9.986 0.931 0 2.244-0.465 3.674-1.21 0.465 0.084 0.931 0.232 1.522 0.117 3.44-0.465 8.323-4.115 8.857-7.742 0.814-5.010-5.952-3.847-8.952-3.719-2.824 0.117-5.684-0.117-8.196-1.522-0.232-0.117-0.465-0.349-0.814-0.581-1.21-4.43 0.697-9.264 4.115-12.134 3.173-3.58 8.010-6.125 12.312-6.8 0.581-0.039 0.931 0 1.383 0.040 19.697-6.265 45.619-3.627 64.552 3.535 2.824 1.046 7.346 2.639 11.369 4.837 0.931 0.349 1.79 0.581 2.639 0.931 2.639 1.163 5.637 3.627 7.881 6.451 0 0.349 0.040 0.581 0.040 0.931 1.046 1.163 1.743 2.325 1.929 3.535 1.337 3.535 0.931 7.474-3.766 8.637-0.465 0.082-0.814 0.117-1.302 0.232-0.117 0.084-0.349 0.232-0.465 0.349-0.465 0.117-0.931 0.349-1.383 0.581-0.232-0.084-0.581-0.117-0.814-0.349-3.312 0.697-6.627 1.383-9.532 2.15-8.369 2.197-16.518 5.103-24.843 7.474-0.931 0.232-1.883 0.465-2.871 0.697-9.219 3.128-18.531 5.824-28.383 6.847-30.083 9.532-128.571-3.267-135.777-27.532-1.43-1.477-2.732-3.173-3.719-5.197-1.394-2.685-1.965-5.149-2.010-7.427 5.777-10.346 15.353-16.071 25.068-21.755 21.443-8.102 43.871-13.881 66.522-16.878 23.326-3.092 49.245-4.976 73.866-2.010 41.23 3.312 77.223 18.531 106.054 46.196 9.799 6.627 19.561 13.432 29.411 20.595 1.698 1.255 4.207 2.871 6.939 4.837 3 1.21 5.999 2.685 8.952 4.302 4.837 2.685 10.067 4.65 15.131 6.847 5.325 1.522 11.369 2.15 16.026 5.325 7.65 5.243 7.079 14.28-0.581 19.295-8.463 5.603-21.443 6.125-31.295 6.498-5.684 0.232-12.667 0.465-18.843-1.163-1.57-0.117-3.173-0.349-4.837-0.581-0.117-0.117-0.465-0.232-0.581-0.465-6.139-0.814-12.221-2.105-18.401-3.674-14.907-3.766-31.741-6.184-46.333-11.277-4.929-0.232-9.765-0.117-14.551 0.082-1.617 0.465-3.22 0.697-4.837 1.255-1.383 0.465-2.545 0.117-3.452-0.465-20.501 2.325-40.733 8.509-64.191 15.715-34.16 10.474-66.615-3.801-99.786-11.601-35.587 0.349-68.404 14.951-101.085 28.964-14.46 6.184-29.050 12.537-44.408 16.117-13.294 3.139-26.811 3.173-40.287 4.742 44.003 4.43 84.475-16.653 128.076-20.951 49.153-4.882 91.369 29.189 140.658 14.058 26.996-8.277 53.943-25.205 81.788-26.726 9.986-0.581 19.561 1.255 29.055 4.068 0.814 0.084 1.477 0.084 2.244 0.117 1.163 0.117 2.057 0.697 2.732 1.383 15.625 5.243 30.978 12.626 47.14 16.298 32.635 7.335 67.329 0.931 99.832-13.074 5.37-4.068 10.881-6.405 16.473-7.65 0.814-0.465 1.617-0.814 2.372-1.21 0.814 0.117 1.522 0.232 2.289 0.465 11.543-1.43 23.638 0.814 36.261 1.21 29.728 0.931 58.24-13.386 84.61-25.205 5.464-2.464 14.726-6.986 23.948-9.404 3.719-2.197 7.707-3.941 11.775-5.509 4.882-1.965 9.892-3.58 14.906-5.197 1.617 0.117 3.173 0.697 4.569 1.698 4.43 3.267 3.847 8.149 1.837 12.714-1.291 3-3.22 5.905-5.010 8.857-1.477 1.522-3.045 3-4.661 4.394-2.499 4.347-6.487 8.288-9.392 11.009-33.354 31.339-88.683 44.454-131.841 53.857-32.901 7.161-73.368 16.564-108.6 9.799-7.034-1.337-14.239-5.010-20.951-7.427-6.672-2.325-13.385-4.43-20.056-6.708-6.939-2.372-13.698-5.417-20.098-9.044-6.265-3.535-11.683-8.684-18.084-11.953-10.613-5.464-22.474-7.301-34.336-7.034-8.417 1.21-16.744 3.452-24.577 5.999-26.68 12.983-50.856 34.292-80.804 38.946-14.997 2.325-25.785-0.931-37.826-9.532-25.697-18.401-49.513-21.935-78.298-8.057-31.916 25.921-63.703 53.003-102.558 67.685-22.563 8.556-46.558 12.626-70.687 13.073-20.908 0.465-35.321-3.488-50.72-13.43-0.081 0.082-0.117 0.117-0.117 0.349 42.663 33.795 96.916 37.38 150.458 34.96 26.591-1.163 53.229-3.58 79.82-1.046 25.159 2.372 49.781 8.336 74.894 11.020 3.847-0.232 7.65-0.697 11.461-1.302 30.31-4.976 56.989-22.699 78.744-43.781 6.532-6.359 15.533-10.206 23.728-14.058 4.068-1.929 8.183-3.847 12.311-5.592 3.895-1.662 7.881-3.173 12.087-3.766 4.929-0.581 12.803-0.465 16.251 3.719 0.232 0.117 0.581 0.349 0.814 0.465 2.512 1.965 3.719 4.882 3.452 7.695 1.255-0.581 2.557-1.255 3.766-1.929 3.535-1.965 6.894-4.162 10.206-6.487 0.581-0.697 1.255-1.662 1.883-2.545 3.801-2.871 7.962-6.532 9.625-11.194 0.931-2.545 0.814-5.592-0.814-7.834-1.698-2.417-4.79-3.395-7.695-4.068-15.625-3.674-31.516-2.197-46.648 2.779-15.264 5.010-30.888 12.401-44.318 21.174-6.579 4.302-12.221 9.718-18.757 14.058-6.579 4.347-13.652 7.929-21.174 10.346-3.847 1.255-7.789 2.197-11.819 2.813-25.607 4.034-51.393-4.023-77.359-6.708-26.767-1.046-53.362-0.232-79.55 10.647-0.232-1.57 0.117-3.267 1.743-4.43 22.919-16.61 44.9-32.275 74.939-29.141 12.267 1.291 23.682 6.080 35.723 8.59 9.359 1.965 18.847 2.244 28.292 1.43 0.931-0.349 1.837-0.697 2.779-1.046 1.163-0.082 2.325-0.039 3.488-0.117 22.207-8.369 44.188-19.335 67.824-26.455 0.349-0.082 0.697-0.232 1.046-0.349 17.815-9.939 38.495-21.935 59.673-19.876 10.613 1.046 20.46 5.325 30.752 7.65 10.661 2.417 21.313 4.976 31.605 8.776 3.22 1.163 6.487 2.278 9.718 3.407 2.639 0.931 6.139 1.43 8.102 3.488 1.046 1.163 1.57 2.557 1.918 3.987 0.465 1.929 0.581 3.941 0.084 5.824-0.697 2.557-2.685 4.65-4.976 5.999-3.22 1.929-6.939 2.417-10.521 3.312-3.941 0.931-7.834 2.105-11.727 3.139-9.136 2.464-18.443 4.709-27.489 7.522-4.383 1.394-8.684 2.952-13.025 4.43-3.987 1.349-8.997 3.674-13.206 3.674-3.627 0.581-7.393 0.465-10.973 1.21-4.068 0.931-7.974 2.593-11.865 4.207-9.091 3.674-17.638 8.463-26.007 13.52-11.729 7.115-21.981 16.337-33.981 23.141-3.173 1.837-6.44 3.499-9.707 5.057-8.196 5.603-17.016 10.299-27.264 13.698-11.819 3.941-31.605 9.311-45.755 5.417-17.95-0.814-36.125-7.567-54.345-8.776-27.488-1.837-56.227 5.637-82.552 19.341 3.546-0.814 7.079-1.57 10.438-2.289 0 0.117 0.040 0.232 0.349 0.232 13.251-0.581 26.414-2.464 39.71-2.278 17.19 0.232 30.933 5.592 46.733 11.461 8.824 3.267 17.955 5.732 27.132 7.254 0.931 0.232 1.837 0.581 2.732 0.931 13.114 3.801 26.772 5.732 40.198 4.882 16.698 3 39.037-9.404 52.29-15.534 15.801-7.254 31.561-12.621 47.496-17.236 1.79-0.117 3.58-0.465 5.37-0.581 22.966-1.883 46.152-2.952 69.162-2.372 24.893 0.697 49.289 6.532 73.645 14.053 8.812 2.732 18.531 4.475 27.264 9.044 9.579 1.57 18.757 4.742 25.024 12.401 1.698 2.105 1.57 6.532 0.040 8.729-9.219 13.159-21.177 18.803-33.083 25.205-19.967 10.694-40.065 21.082-60.927 27.352-18.937 5.684-37.514 7.067-56.809 7.021-10.438-0.039-22.117 1.163-31.070-8.057-1.837-1.918-2.512-6.125-1.477-8.857 0.465-5.103 4.837-9.183 8.776-12.447 12.626-10.521 35.009-22.293 52.2-19.741 13.878 2.105 11.729 16.387-0.117 19.831-0.931 0.232-2.105 0.465-3.22 0.581-0.082 0.039-0.082 0.117-0.117 0.117-2.512 1.837-4.837 3.58-7.115 5.37-1.698 1.837-2.952 3.801-3.488 5.637 0.039 0.697-0.084 1.349-0.232 2.010 0.084 1.57 1.046 2.86 3.045 3.719 0.349-0.040 0.697-0.084 0.931-0.084 12.445 1.163 28.427-8.463 39.975-13.566 1.163-0.465 3.452-2.499 5.952-5.278 9.404-4.522 17.37-10.694 20.504-18.803 10.114-26.324-26.906-30.084-44.455-30.712-42.707-1.43-82.28 13.566-121.226 29.325-24.939 10.114-50.766 21.309-77.806 24.352-10.114 1.163-19.963 0.697-29.813-0.232-17.95-5.824-35.767-12.179-53.943-17.059-14.906-4.023-30.842-7.567-46.421-7.021-2.197-1.046-4.614-1.617-7.079-2.105-3.719 0.465-7.567 0.465-11.369 0.232-7.335-0.117-14.551 0.117-21.847 0.931-2.779 0.465-5.464 0.931-8.010 1.302-16.564 2.732-32.811 7.301-48.080 14.371-4.697 2.197-9.625 4.837-13.878 8.241-8.149 4.65-15.489 10.962-21.488 20.59-1.883 5.103-2.289 10.834-0.465 17.192 0.814 2.593 2.010 4.837 3.499 6.894 15.53 12.355 47.407 18.084 62 21.534 23.723 5.637 72.206 15.127 93.963-1.57 34.874-26.726-28.070-37.334-50.719-29.191 6.172-0.931 13.652 1.837 17.77 6.487 2.417 2.779 4.115 6.847 3.407 10.031 0.117 0.039 0.349 0.039 0.581 0.082-0.349 0.697-0.931 1.255-1.383 1.837-0.581 0.697-1.21 1.337-2.15 1.837-1.929 1.349-4.302 2.372-6.719 2.779-4.023 0.697-8.952 0.465-13.832-0.465-6.172 0.117-12.401-1.291-18.443-3.407-4.254-1.477-9.172-2.905-12.445-5.952-6.359-3-13.746-7.393-13.788-14.059-0.040-9.892 13.742-12.445 20.948-14.104 20.414-4.603 52.737-9.752 73.239 1.394 10.694 2.464 21.132 6.627 30.936 12.579 11.589 3.895 23.276 7.789 35.050 11.149 4.475 0.465 8.952 0.931 13.432 1.046 15.756 4.115 32.363 5.556 48.838 7.207-0.931 0.117-1.965 0.349-2.952 0.465 17.19 0.697 34.336 3 51.484 7.115 20.726 2.732 41.542 5.545 62.404 4.742 5.010-0.232 16.834-2.593 26.545-1.929 5.824-0.931 11.643-1.163 16.744-0.349 2.278 0.349 4.697 1.163 6.532 2.289 2.325 0.349 4.882 2.639 3.766 5.243-3.128 7.614-10.427 12.085-18.31 15.443-4.254 3.719-10.346 6.672-16.92 8.556-6.672 3.801-16.297 5.684-20.279 6.359-7.834 1.349-15.759 1.43-23.638 0.697-5.859-0.039-11.009-0.465-13.966-0.581-36.085-1.79-70.195-14.505-105.648-19.607-2.685-0.117-5.149-0.232-7.695-0.349-12.803 2.417-25.607 5.243-38.409 7.742-0.232 0.040-0.465 0.117-0.697 0.117-0.931 0.117-1.837 0.349-2.779 0.465-16.247 3.045-32.589 5.37-49.33 4.882-21.222-0.581-42.621-5.464-63.793-1.965-1.21 0.465-2.464 0.814-3.627 1.349-8.776 2.499-17.371 5.824-25.653 10.114-14.911 7.742-27.578 19.159-42.841 26.273-2.325 1.046-4.614 1.929-6.894 2.732-3.801 1.837-7.661 3.499-11.773 4.614-4.302 1.21-8.323 1.698-12.221 1.79-3.045 0.814-6.184 1.21-9.718 1.046-0.697-0.039-3.22-0.465-6.359-0.697-0.814 0-1.617 0.117-2.417 0.117-2.010-0.039-3.847-0.349-5.732-0.581-3.045 0.040-5.859 0.465-7.661 1.383l-1.477 4.068c0.117 0.117 0.232 0.349 0.465 0.581 0.349 0.465 0.581 0.931 0.697 1.394 0.814 0.349 1.617 0.697 2.464 0.931 13.294 6.265 31.516 7.881 45.483 7.614 23.413 1.883 47.677-5.103 71.491-3.359 13.345 0.931 31.429 8.417 46.201 7.474 0.117 0 0.232-0.039 0.465-0.039 17.638-2.197 35.231-1.57 52.691 2.593 2.557 0.581 5.278 1.302 7.881 2.15 0.465-0.465 0.814-0.931 1.046-1.337-6.405-4.383-16.654-9.532-17.818-10.031-11.729-4.709-23.548-4.929-35.633-7.567-6.894-1.522-17.504-5.278-19.069-12.267-3.452-5.684-0.814-12.225 5.37-14.819 0.349-0.581 0.697-1.046 1.163-1.57 14.054-2.278 28.424-1.662 42.571 0.697 6.532 1.163 13.069 2.593 19.561 4.347 37.918 2.685 66.791 22.653 100.457 38.946 26.459 12.847 50.273 7.962 77.942 5.824 13.294-1.046 25.246 2.010 36.617 7.522 14.551 3.267 28.965 5.732 43.782-0.697 1.522-0.697 5.777-6.451 7.427-10.661-12.397 1.929-26.545 0.117-34.559-2.15-12.984-3.766-24.758-8.277-38.498-8.952-10.346-0.581-20.682 0.814-30.978 0.082-14.997-1.163-29.011-5.952-42.17-12.759-7.929-2.685-15.671-5.871-20.148-9.183-0.040-0.931-0.084-1.743-0.349-2.512-0.117-0.581-0.465-1.163-0.814-1.662 5.325-3.766 16.785-1.57 21.308-1.046 12.087 1.255 23.95 3.395 35.497 7.034 16.744 2.952 39.263 9.359 57.703 5.545 21.981 0.082 43.47-6.627 63.884-19.25 28.383-17.548 52.778-50.585 84.204-56.895 22.965-4.569 45.708 9.219 68.854 3.139 26.545-6.986 49.285-23.326 74.981-32.008 38.232-17.417 79.238-25.967 112.812 2.197-1.837-12.537-7.161-22.341-14.28-29.728-13.114-8.857-30.576-11.949-39.171-12.487-16.654-1.046-33.439 2.86-49.913 5.684-0.117 0.040-0.117-0.039-0.349-0.039-21.128 7.974-41.99 17.412-63.525 23.009-0.349 0.084-0.581-0.039-0.814-0.082-11.999 5.149-23.994 6.8-31.83-2.105-14.953-17.056 10.346-39.263 18.757-46.201 29.009-24.040 59.672-42.256 93.25-46.376 16.563-4.207 33.529-5.999 50.897-4.837 19.074 1.255 45.036 5.824 69.522 3.58 5.603-1.57 11.149-3.58 16.524-6.359 5.684-2.905 11.149-6.487 16.564-10.159 1.163-2.186 2.010-4.29 2.372-6.044-46.735 12.131-91.414-26.591-138.599-23.502-34.783 2.278-68.76 20.189-103.050 28.247-24.442 5.732-47.944 4.742-72.208 4.162-16.247-0.465-31.737-1.255-47.452-5.905-15.846-4.697-31.561-11.909-44.364-22.519 1.255 0.117 2.464 0.349 3.674 0.465-1.163-0.117 0.465-4.383 0.697-4.918 0.814-2.417 1.918-3.987 4.023-5.603 3.407-2.593 7.522-4.207 11.461-5.732 16.744-6.405 32.81-5.149 47.452 5.197 3.407 2.417 6.847 4.43 10.346 6.139 24.843 5.999 48.972 7.789 75.744 2.233 1.046-0.117 1.883 0 2.639 0.349 15.669-5.010 31.294-11.149 46.601-17.729-1.163-0.814-2.15-2.244-2.871-3.801-17.322-2.952-36.841 0.931-50.359-12.267-0.814-0.814-1.617-1.837-2.417-2.732 31.158-15.623 61.328-23.813 95.575-24.758 30.848-0.814 57.122-5.637 81.030-25.113z"></path>
    <path fill="#000000" d="M938.778 195.613c-9.625-6.719-25.515-10.206-38.318-11.508-30.844-3.173-62.046 1.522-89.757 14.953-1.662 0.581-3.359 1.046-4.929 1.743-6.8 1.883-13.16 5.278-18.131 10.613-2.871 3.045-5.057 6.532-6.091 10.114-0.814 1.477-1.291 2.952-1.477 4.383-1.43 11.322 13.074 15.845 21.801 17.282 0.697 0.117 1.662-0.117 2.685-0.465 1.046 0.232 2.057 0.349 3 0.232 4.43-0.465 8.824-4.742 10.474-8.637 2.289-5.498-2.86-6.579-6.986-7.834-2.244-0.697-5.732-1.046-7.335-2.871-0.117-0.117-0.117-0.349-0.232-0.465 0.465-0.814 0.931-1.662 1.522-2.464 0.117-0.697 0.349-1.349 0.697-1.965 0.697-0.465 1.43-0.814 2.197-1.163 4.661-4.475 11.194-8.196 16.206-9.939 15.042-5.243 40.959-8.857 51.704 6.487 13.294 18.983-4.742 39.438-22.473 47.23l-0.349 0.465c-0.814 0.232-1.57 0.465-2.325 0.697-1.43 0.465-2.824 0.931-4.207 1.291-0.117 0.082-0.349 0-0.581 0.040-2.464 0.697-4.929 1.441-7.427 2.105-2.593 0.232-5.197 0.581-7.427 0.814-11.020 1.302-22.337 2.057-33.574 2.639-2.871-0.581-5.732-0.931-8.509-1.617-21.759-1.163-43.695-8.010-63.256-18.849-11.020-5.243-21.623-11.543-31.787-19.249-4.79-3.627-25.651-15.579-34.783-26.635-11.277-9.359-21.308-21.443-33.127-29.904-4.871-3.488-9.847-6.22-14.861-8.637-16.965-5.010-34.468-6.672-52.060-5.684-0.349 0.040-0.814 0.117-1.163 0.232-12.672 3.627-24.983 8.323-36.933 14.329-7.474 3.719-15.85 9.485-24.311 12.848-7.301 4.697-15.043 8.684-22.293 11.683-14.324 5.952-29.365 9.671-43.561 16.025-4.963 2.197-9.485 4.963-13.964 7.789-4.569 0.581-10.159 5.905-12.179 8.149-2.732 3.045-6.627 8.196-5.464 12.848 0.814 3.359 4.254 4.837 7.207 5.999 3.847 1.477 8.010 1.965 12.085 1.698 5.464 1.743 11.556 2.417 16.297 3.139 1.79 0.232 3.535 0.465 5.325 0.697 5.952 1.302 12.492 1.883 17.818 2.197 0.349-0.117 0.697-0.232 1.163-0.232 3.173 0 6.312-0.232 9.451-0.349 0.232-0.081 0.465-0.117 0.581-0.232 0.349 0.081 0.697 0.117 1.046 0.117 24.843-0.931 48.928-4.207 73.775-7.254 18.577-2.289 33.754-0.042 50.093 3.488 0-0.042 0-0.117 0-0.232-1.046-1.743-2.105-3.173-3.267-4.475-10.114-4.475-19.295-8.824-29.097-11.683-7.567-0.465-15.223 0.232-22.833 1.163-9.939 1.837-19.873 4.162-29.724 6.044-9.359 1.79-20.726 3.488-31.38 2.813-4.475 0.232-8.997 0.040-13.074-0.581-2.197-0.232-4.882-0.814-7.254-1.698-3.045 0-5.905-0.581-7.742-2.593-1.383-1.477-1.698-3.359-1.302-5.057 2.905-1.617 5.684-3.627 8.857-4.79 6.986-2.499 13.786-3.987 19.922-8.149 0.931-0.232 1.837-0.465 2.685-0.697 0.465-0.117 0.931-0.349 1.383-0.465 28.739-9.625 54.928-25.827 87.251-22.113 25.651 2.952 51.57 16.338 67.375 37.065 1.383 1.046 2.824 2.15 4.207 3.22 1.837 1.349 3.674 2.557 5.464 3.801 13.114 6.487 26.411 12.401 40.020 17.502 0.931 0.040 1.743 0.349 2.372 0.931 7.161 2.593 14.419 5.010 21.805 6.939 6.579 1.522 13.206 3 19.918 4.302 1.349 0.232 2.197 0.931 2.639 1.837-15.533-0.349-30.982-2.512-46.292-5.732-0.232 0.040-0.349 0.117-0.581 0.117-5.278 0-10.521-0.040-15.801-0.081-28.246 1.617-52.959 16.653-81.251 19.069-30.485 2.593-59.004-9.044-89.31-9.707-27.308-0.581-53.317 4.79-80.131-3.185-8.102-2.372-21.889-5.684-32.323-11.194-0.697-0.349-1.337-0.581-2.010-0.931-48.35-23.594-78.072 24.892-126.332 24.712-1.57-0.040-6.755 6.708-4.302 8.196 17.192 10.335 29.323 9.311 47.23 4.569 27.936-7.427 44.675-6.847 70.596 6.939 4.697 2.499 9.451 4.302 14.145 5.777 21.442 13.612 41.546 15.313 67.197 5.010 20.816-8.323 38.138-19.876 60.119-16.383 1.43-0.232 2.952-0.349 4.383-0.465 30.71 2.278 60.435 9.044 90.429 18.581 30.129 9.625 67.555 15.533 96.384-1.349 1.383-0.814 6.986-6.986 2.105-5.824-30.978 7.567-57.528-0.465-84.88-8.905 7.881-2.289 15.985-4.882 24.491-7.789 37.019-12.847 69.342 5.684 103.272 14.907 14.865 1.883 29.637 1.976 44.234-1.046 16.247 2.732 45.438-11.683 55.73-15.309 28.609-10.031 57.347-21.133 82.24-38.725 12.487-8.824 29.769-21.755 28.513-38.991-0.931-13.114-10.159-19.069-21.443-21.665z"></path>
    <path fill="#000000" d="M753.898 133.287c20.64-3.58 42.395 0.117 58.822-9.359 2.685-7.382-4.697-14.012-13.878-18.445-0.581-0.349-1.046-0.814-1.662-1.163-17.146-10.566-40.020-8.952-59.090-6.532-10.881 1.337-21.715 3.627-32.681 4.068-16.025 0.697-30.441-3.312-46.11-5.509-1.337-0.117-5.057 2.545-3.895 4.081 5.999 7.742 14.951 11.149 24.754 12.312 2.105 0.697 4.254 1.43 6.451 1.965 1.163 0.232 17.192 3.22 19.074 7.161-12.134 3.801-24.712 6.672-38.367 5.999-22.739-1.163-42.26-14.414-64.417-18.843-25.339-5.010-49.736 5.325-73.193 17.592-1.477 0.814-7.789 10.254-3.801 9.799 0.697-0.082 1.337-0.040 1.965-0.082 3.045-1.163 6.184-2.010 9.404-2.593 0.039 0 0.082 0 0.117-0.040 0.039 0 0.082 0 0.117 0 0.465-0.040 0.814-0.081 1.21-0.117 17.859-5.37 41.276-1.477 57.523 2.372 19.521 4.65 37.023 15.267 56.409 20.37 2.278 0.581 4.569 1.046 6.894 1.477 2.057 0.232 4.115 0.465 6.125 0.581 12.581 0.697 24.712-2.417 36.575-6.405 16.429-8.23 33.62-15.579 51.614-18.711z"></path>
    </svg>