<svg xmlns="http://www.w3.org/2000/svg" viewBox="-49.726 207.790 1129.090 608.440">
    <path fill="#000000" d="M520.552 416.804c-2.039 1.626-4.412 2.914-5.872 5.206-0.791 1.248-0.75 2.662-1.332 3.956-1.29 2.788-4.915 4.832-6.869 7.163-4.748 5.623-8.246 11.582-8.997 18.953-0.163 1.626-0.331 2.578-0.751 4.208-0.792 3.124 0.289 6.123 0.915 9.123 0.583 2.956 0.996 5.952 2.83 8.325 2.458 3.124 6.162 5.332 9.538 7.246 3.249 1.878 6.372 3.999 9.706 5.665 7.576 3.703 17.533 2.373 25.699 2.326 9.622-0.037 19.199 0.218 28.781-0.709 8.829-0.828 17.161-2.452 26.072-2.373 16.328 0.17 32.485 0.044 48.73-1.206 12.786-0.996 25.575-0.744 38.358-0.665 10.119 0.037 19.744-0.791 29.823-1.955 15.663-1.834 33.988 0.618 48.478-6.96 8.535-4.454 14.746-12.373 19.828-20.364 2.746-4.334 5.455-8.623 6.498-13.703 0.874-4.208 0.667-8.787 0.289-13.080-0.457-4.999-1.583-9.79-1.748-14.826-0.041-2.291 0.126-4.873-0.163-7.163-0.583-4.289-4.58-8.745-7.079-11.995-3.166-4.034-6.33-7.499-10.911-10.035-4.37-2.5-8.206-4.832-12.037-8.122-5.623-4.79-15.035-4.496-21.823-6.372-5.665-1.535-11.246-1.5-17.077-1.5-8.329 0.086-16.618 0.086-24.947 0-19.037-0.261-37.985 3.498-56.143 8.871-8.703 2.543-17.534 4.041-26.324 6.162-9.496 2.291-18.284 6.456-27.323 10.079-11.414 4.541-23.282 7.705-35.109 10.952-10.623 2.878-20.493 7.579-30.656 11.787-22.033 9.123-0.126 0.835-0.126 0.835-0.079 0.086-0.163 0.086-0.247 0.17z"></path>
    <path fill="#000000" d="M807.438 407.294c-1.666 2.872-2.249 6.12-4.041 8.99-1.038 1.708-1.625 2.752-2.207 4.622-1.583 5.035-0.709 8.577 2.249 12.87 5.581 8.118 17.119 14.081 26.53 15.95 3.040 0.625 5.665 1.834 8.661 2.536 2.872 0.667 5.665 0.457 8.577 0.917 5.497 0.87 10.994 0.791 16.7 0.791 6.078 0 12.205-0.086 18.284 0 2.746 0.044 3.249 0.345 4.247-1.997 0.709-1.708 0.751-3.243 1.122-5.080 0.915-4.454 2.5-8.577 3.124-13.117 0.709-4.999 0.709-9.874 0.751-14.914 0-3.621-0.373-7.075-1.206-10.618-0.834-3.417-2.956-6.036-4.083-9.328-1.829-5.371-7.455-8.29-10.787-12.751-1.5-2.039-3.999-7.282-10.952-9.2-1.29-0.39-1.955 0.583-2.956 1.038-0.625-0.17-1.206-0.128-1.749 0.128-0.415 0.791-1.122 1.332-1.997 1.582-4.496 2.081-10.371 1.248-15.076 2.5-2.081 0.541-4.454 1.661-6.33 2.662-3.124 1.668-6.995 3.208-9.79 5.377-1.997 1.582-3.957 3.327-6.036 4.909-4.328 3.291-10.245 7.289-13.038 12.121z"></path>
    <path fill="#000000" d="M657.439 319.056c5.831 0.218 11.785 0.218 17.616 0 4.957-0.17 9.538-1.787 14.41-1.997 5.952-0.303 11.953-2.704 17.91-3.082 8.289-0.583 16.867 0.086 25.197 0.037 6.869-0.037 15.285 1.080 21.781 3.417 9.242 3.417 19.66 5.952 27.906 11.582 2.291 1.535 3.332 3.999 5.161 5.997 2.54 2.704 1.707 5.371 2.998 8.703 1.29 3.334 1.248 6.707 1.038 10.331-0.163 3.117-1.955 5.916-2.123 9.081-0.041 1.456 0.289 2.62-0.079 4.082-0.415 1.745-1.625 3.038-1.913 4.873-0.252 1.787 0.126 4.034 0.079 5.871 0 1.955-0.625 4.58 1.206 5.833 0.541 0.39 1.164 0.037 1.707 0.17 2.662 0.791 5.413 1.33 6.078-0.961 1.871-0.218 2.375-2.872 2.956-4.328 1.707-4.208 3.208-8.497 5.039-12.618 3.789-8.458 8.206-16.912 4.79-26.24-1.458-4.125-3.414-9.832-6.746-12.704-3.621-3.124-8.038-5.329-11.911-8.164-2.872-2.123-5.955-3.873-8.577-6.372-3.579-3.369-6.581-5.833-10.953-8.122-7.786-4.118-15.908-7.87-24.196-10.91-3.957-1.456-7.744-3.543-11.827-4.541-4.748-1.204-9.538-0.954-14.41-0.954-8.913 0-17.658 0.303-26.574 0.751-8.080 0.39-15.908 1.33-23.909 2.039-3.831 0.345-7.621-0.044-11.414 0.17-2.416 0.17-4.79 1.122-7.163 1.752-2.499 0.625-4.538 1.038-7.037 1.248-1.997 0.17-2.788 0.583-4.206 1.913-3.873 3.747-7.621 11.414-2.788 15.537 5.831 4.958 12.205 7.331 19.95 7.625z"></path>
    <path fill="#000000" d="M818.402 671.869c6.456-0.709 12.87-4.377 17.826-8.37 5.994-4.916 12.535-11.33 16.202-18.12 3.621-6.662 7.372-13.199 11.162-19.699 1.625-2.833 4.123-5.125 5.831-7.912 2.165-3.369 3.453-6.995 5.161-10.581 3.873-8.118 10.539-13.955 18.036-18.533 7.079-4.289 14.326-7.992 21.242-12.618 3.373-2.249 7.079-3.915 10.497-6.123 4.206-2.704 7.702-6.372 11.785-9.286 12.163-8.668 26.492-13.458 40.94-16.748 5.119-1.164 10.539-2.121 15.411-3.956 2.956-1.080 4.124-1.29 6.869-2.998-2.914-2.746-6.623-4.58-9.412-7.66-2.662-2.914-4.874-4.664-8.412-6.329-5.789-2.704-11.785-5.916-17.91-7.832-11.036-3.498-22.824-4.118-34.276-5.161-10.787-0.954-21.494-0.996-32.322-0.996-14.078 0.044-28.697-1.043-42.398 2.998-3.124 0.954-6.078 2.123-9.203 2.998-3.663 0.996-6.827 2.788-10.371 3.956-6.746 2.207-13.451 4.999-20.115 7.625-5.623 2.247-9.163 3.873-13.41 8.29-5.665 5.826-7.372 12.66-11.372 19.446-3.124 5.332-5.413 10.707-9.287 15.579-3.453 4.251-5.91 8.997-8.451 13.829-2.704 5.251-5.497 10.749-7.037 16.496-3.373 12.578-3.124 25.778-2.956 38.65 0.041 2.578-0.915 4.541-0.996 7.079 0 1.752 0.040 3.166-0.205 4.999-0.252 1.708-0.163 5.080-1.583 6.33 0.957 1.33 1.248 3.908 0.874 5.7-0.499 2.207-2.123 3.915-0.126 5.79 1.164 1.080 3.040 1.122 4.496 1.332 4.165 0.625 7.996 0.917 12.205 0.917 4.748-0.044 9.496-0.218 14.201-0.086 3.747 0.086 7.331 0.954 11.036 1.080 5.203 0.218 10.952 0.499 16.076-0.086z"></path>
    <path fill="#000000" d="M995.203 582.64c-0.583-4.706-1.913-8.497-3.621-12.87-0.957-2.578-1.79-8.038-5.203-8.829-6.704 0.751-9.163 0.541-11.953 1.708-3.124 1.29-7.121 2.373-8.787 5.497-2.207 4.125-2.249 8.122-2.249 12.704 0.041 8.164-0.205 16.16 0.792 24.28 1.122 9.288 0.583 19.951-0.996 28.986-0.792 4.664-2.54 8.997-3.579 13.622-0.331 1.661-0.499 3.453-1.164 5.035-1.829 4.415-5.329 7.996-9.038 10.917-2.956 2.373-5.831 4.328-8.289 7.246-1.542 1.834-2.998 3.537-4.956 4.954-3.621 2.752-6.414 6.869-10.329 9.123-3.249 1.829-5.707 4.58-9.496 5.664-3.082 0.835-6.036 1.080-9.080 2.207-2.375 0.917-4.496 1.416-6.995 1.787-7.954 1.206-15.95 3.327-24.033 3.243-6.581-0.037-13.287 0.39-19.828 0.044-8.997-0.499-16.993-2.626-24.033-8.37-1.416-1.122-4.748-2.998-5.748-4.622-0.667-1.122 0.126-1.955-1.038-2.914-0.957-0.791-4.123-0.218-5.080 0-2.291 0.499-4.083 2.087-6.288 2.669s-4.247 0.39-6.414 1.122c-2.499 0.791-8.577 1.787-10.455 4.041-1.997 2.326 1.583 3.453 3.124 4.999 1.832 1.829 2.623 3.621 3.915 5.745 3.453 5.497 9.286 10.413 15.075 13.325 3.249 1.626 6.785 2.752 10.161 4.167 1.871 0.744 3.663 2.081 5.581 2.62 1.871 0.499 3.621 0.499 5.497 1.080 11.785 3.669 24.49 4.041 36.733 4.041 6.869 0 14.119 0.709 20.948-0.17 5.497-0.709 10.787-2.123 16.076-3.831 6.911-2.207 13.787-4.496 20.241-7.954 5.203-2.788 10.119-6.123 15.159-9.207 3.291-1.997 5.581-4.125 8.329-6.662 2.291-2.081 4.957-3.082 7.331-5.125 6.162-5.371 10.329-11.869 14.872-18.491 3.579-5.251 5.038-10.744 7.455-16.58 2.998-7.163 4.412-14.116 5.287-21.781 0.541-4.46 1.829-8.542 2.581-12.954 0.583-3.376 0.499-6.788 0.915-10.205 0.751-5.871 0.834-10.707 0.041-16.615-0.667-4.541-0.915-9.123-1.458-13.661z"></path>
    <path fill="#000000" d="M624.508 562.935c1.248-1.33 2.165-2.788 3.537-3.956 1.206-1.043 4.622-2.207 4.412-10.035-0.499-4.999-4.79-8.997-6.162-13.703-0.874-2.998-2.872-5.161-3.537-8.244-0.751-3.334-1.997-8.577-3.747-11.372-6.623-10.744-21.41-13.206-32.568-9.207-7.702 2.788-15.453 8.122-23.699 8.577-1.829 0.128-3.495 0-4.289 1.913-0.205 0.457 0.041 1.542-0.163 2.039-0.252 0.828-1.458 1.582-1.625 2.247-0.331 1.332 0.331 1.542 0.996 2.578 1.955 2.998 3.873 6.078 5.371 9.328 1.416 2.959 3.040 5.79 4.454 8.749 0.751 1.582 1.332 3.243 1.997 4.873 0.957 2.452 2.291 3.327 3.537 5.455 1.29 2.081 1.955 3.956 3.453 5.952 2.081 2.788 3.873 5.833 5.994 8.577 3.915 5.042 7.289 10.205 10.787 15.579 1.5 2.247 2.998 3.624 4.244 6.036 0.957 1.913 1.832 3.705 2.704 5.665 1.416 3.038 2.788 5.745 3.747 8.909 0.874 2.998 3.040 5.413 4.748 7.996 0.996 1.5 1.583 2.626 3.249 3.040 1.332 0.39 3.579-0.044 4.997-0.044 1.997 0 7.163 0.954 8.371-0.917 1.706-2.746-0.457-6.078-2.081-8.037-3.208-3.873-5.203-9.207-7.037-13.829-1.206-3.038-1.749-4.828-1.707-8.164 0-2.83-0.041-5.119 1.164-7.744 2.081-4.496 5.497-8.745 8.829-12.289z"></path>
    <path fill="#000000" d="M744.411 524.702c-1.871-1.542-3.579-3.498-5.497-5.125-2.914-2.452-6.288-4.289-9.412-6.455-2.165-1.542-3.999-3.453-6.162-4.916-7.372-4.828-14.83-8.037-23.657-8.29-8.164-0.303-16.496-0.218-24.7 0.044-3.040 0.086-2.956 0.917-3.705 4.041-1.374 5.7-3.166 11.078-4.041 16.909-0.915 6.246-2.375 12.954-4.496 18.907-1.080 3.124-3.747 6.662-4.247 9.123 3.579-0.044 6.54-0.996 10.245-0.996 5.539 0.037 9.664 0.128 14.746 2.704 2.249 1.164 2.581 1.913 3.082 4.37 0.331 1.535 1.416 2.746 1.749 4.208 0.205 0.912-0.041 1.871 0.126 2.746 0.667 3.291 1.5 6.123 2.123 9.328 2.123 10.665 2.123 24.413-4.082 33.905-2.581 3.999-4.622 4.664-8.787 5.959-0.415 0.128-1.122 0.583-1.706 0.744-1.584 0.457-3.456 0.128-5.122 0.709-2.039 0.744-3.082 1.871-2.165 4.082 1.583 3.999 7.786 3.208 11.12 3.208 4.454 0 9.37-0.541 13.787 0.086 2.249 0.345 3.747 1.955 5.872 1.955 1.829 0 1.871-0.435 2.704-1.913 1.913-3.417 2.499-7.499 4.328-10.996 1.955-3.663 2.499-7.289 3.831-11.246 1.913-5.916 5.413-11.456 8.535-16.786 3.166-5.287 5.371-10.952 8.451-16.244 2.249-3.831 5.581-7.415 6.953-11.661 1.038-3.082 1.749-6.33 3.415-9.242 1.5-2.578 2.207-5.497 3.957-7.912 1.913-2.704 2.998-4.37 3.915-7.534 0.834-2.833 0.874-2.039-1.164-3.705z"></path>
    <path fill="#000000" d="M673.978 575.973c-0.875-4.916-0.751-10.497-5.455-13.29-5.039-2.956-11.372-1.661-17.077-1.752-2.914-0.037-7.744-0.457-9.496 2.5-0.915 1.5-0.457 3.75-0.457 5.497-7.372 0.218-7.537 1.626-8.206 3.165-1.080 2.543-2.416 4.874-3.621 7.372-1.749 3.624-2.458 6.666-2.207 10.707 0.373 7.121 5.707 11.456 11.869 14.287 3.789 1.708 8.535 2.326 12.702 2.5 3.999 0.17 8.703 0.539 12.453-1.206 5.080-2.417 7.538-7.541 8.997-12.578 1.542-5.371 1.5-11.661 0.499-17.199z"></path>
    <path fill="#000000" d="M338.151 487.866c2.746 0.877 5.329 2.165 8.288 2.626 10.413 1.661 20.99 0.583 31.406 1.913 12.163 1.582 24.364 2.626 36.569 3.621 5.952 0.499 11.744 2.294 17.616 2.878 6.204 0.618 12.744 0.037 18.992 0.037 4.622 0.044 9.454 0.044 13.913-1.535 1.542-0.541 8.997-3.334 8.577-5.458l14.993-7.992c-1.374-0.303-2.291-1.878-3.040-2.959-2.375-3.327-3.579-7.246-4.957-11.036-1.206-3.369-2.416-6.827-3.999-10.079-1.206-2.417-1.955-5.206-3.747-7.205-2.333-2.62-5.872-3.703-9.163-4.954-4.247-1.661-8.829-1.871-13.080-2.956-2.623-0.709-5.413-0.751-7.996-1.29-5.039-1.080-10.829-0.499-16.118-0.499h-27.864c-8.787 0-17.41-1.332-25.323-5.497-3.124-1.626-4.998-3.543-8.661-3.498-3.291 0-6.204 0.541-8.955 2.452-2.581 1.787-4.041 3.915-5.994 6.288-2.249 2.704-4.748 4.916-6.078 8.248-1.248 3.038-2.375 6.078-3.705 9.074-1.374 3.166-3.415 6.414-4.166 9.79-0.957 4.415-3.082 10.126-1.122 14.081 0.915 1.787 1.416 3.243 3.621 3.956z"></path>
    <path fill="#000000" d="M117.606 528.938c2.704 0.086 4.79 1.206 7.037 0.044 3.332-1.708 6.664-4.289 9.496-6.743 1.829-1.626 3.495-3.417 5.539-4.748 1.332-0.87 2.788-1.456 3.999-2.536 2.83-2.5 4.123-3.873 7.87-5.251 0.041-0.261 0.041-0.499 4.083-1.745-0.373-1.955 1.248-3.417 1.038-5.497-0.205-2.291-1.955-4.328-2.788-6.455-1.122-2.752-1.458-5.080-3.747-7.079-2.416-2.081-5.038-3.165-8.038-4.208-3.495-1.206-6.456-2.536-10.287-2.788-2.956-0.17-5.79-1.080-8.745-0.996-2.249 0.086-3.373 0.625-4.247 2.956-0.457 1.248-0.289 2.788-0.667 4.082-0.541 1.997-1.416 3.876-1.955 5.916-0.915 3.75-0.247 7.331-0.499 11.122-0.247 3.291-0.75 6.953-1.29 10.161-0.541 3.369-0.709 6.41-0.792 9.783-0.041 3.586 0.499 3.876 3.999 3.999z"></path>
    <path fill="#000000" d="M304.574 574.939l0.126-0.261c-0.040-0.17-0.163-0.303-0.205-0.457 0.041 0.261 0.041 0.457 0.079 0.709z"></path>
    <path fill="#000000" d="M551.556 580.169c-2.416-3.663-4.247-6.617-5.831-10.784-1.542-4.082-3.537-7.832-5.706-11.624-2.623-4.621-4.622-9.328-6.785-14.161-4.37-9.874-10.623-18.323-15.95-27.654-3.415-6.042-7.912-8.080-13.745-10.996-5.245 7.499-6.704 6.372-8.412 6.162-1.706 0.39-3.495 0.665-5.245 0.835-2.5 0.303-4.998 0.583-7.497 0.744-2.417 0.261-4.454 0.667-6.827 1.248-5.539 1.409-10.952 1.708-16.454 3.537-5.413 1.787-11.078 2.081-16.741 2.959-13.661 2.165-27.157 1.122-40.94 1.456-8.247 0.17-16.37 1.206-24.532 1.997-4.083 0.435-10.371 0.625-13.451 4.034-2.623 2.914-4.247 7.040-5.707 10.623-0.996 2.5-2.416 4.58-1.997 7.289 0.457 3.117 2.581 6.203 3.831 9.036 1.871 4.289 3.915 8.451 5.748 12.786 4.041 9.412 7.996 18.369 13.038 27.278 3.537 6.33 7.247 12.625 10.994 18.827 1.416 2.373 3.124 4.415 5.287 6.162 1.787 1.458 3.957 2.207 5.831 3.376 1.997 1.204 2.872 1.582 5.497 1.619 1.707 0.044 3.332-0.17 5.039 0.044 2.662 0.303 5.161 1.33 7.912 1.708 13.493 1.829 26.905 2.165 40.526 2.247 10.994 0.044 21.656-1.745 32.568-2.039 15.95-0.457 31.987-0.086 47.939 0.037 7.372 0.044 19.199 1.080 23.199-6.617 2.375-4.541 1.748-10.749 0.126-15.411-1.748-5.161-5.539-9.242-7.576-14.2-1.416-3.498-1.955-7.289-4.124-10.539z"></path>
    <path fill="#000000" d="M662.469 622.918l-14.993 4.993c-3.414-1.995-8.080-1.829-11.995-2.494-3.579-0.583-6.995-0.499-10.623-0.499-3.621-0.044-8.577-0.751-11.911 0.954-1.374 0.709-3.124 2.247-3.915 3.537-0.874 1.458-0.541 2.626-1.997 3.915-0.996 0.87-2.956 2.373-3.999 3.040-1.749 1.038-4.124 0.539-6.12 0.744-7.163 0.751-14.326 2.5-21.494 2.833-8.871 0.457-17.952-0.044-26.863-0.044-9.664 0-19.324 0.044-28.991 0-5.831 0-11.498 0.303-17.287 0.751-7.205 0.618-14.368 1.535-21.574 2.039-21.074 1.5-42.192 1.206-63.305 1.206h-76.592c1.164-3.999 2.039-8.244 2.54-12.205 0.709-5.371 0.163-11.078 0.205-16.489 0-5.206-0.792-10.126-1.038-15.243-0.205-4.289-0.126-8.745-1.164-12.996-0.583-2.291-1.913-4.208-2.54-6.498-1.5-5.203-3.537-10.245-5.497-15.285-1.787-4.748-3.414-10.126-7.497-13.332-1.787-1.456-4.874-3.663-7.247-3.908l-13.871 26.737c0.625 1.913 2.039 3.498 2.83 5.332 1.248 2.833 2.872 6.123 3.663 9.081 1.871 6.869 0.289 15.698-0.373 22.657-0.625 6.162-1.665 11.372-4.328 17.035-2.333 4.828-5.623 9.162-7.954 14.035-0.205 0.39-0.457 0.744-0.667 1.080-18.284 0-36.569-0.044-54.854 0.044-8.37 0.037-16.618-1.122-24.947-1.080-8.080 0.037-16.16 0.345-24.197-0.17-1.666-0.128-3.291-0.128-4.957-0.218 0.625-1.535 1.248-3.082 1.913-4.58 4.998-11.535 12.912-21.781 20.493-31.777 4.997-6.536 10.665-13.496 17.574-18.116 5.539-3.705 11.33-7.040 16.993-10.497 4.832-2.998 9.832-5.79 14.91-8.37 2.123-1.122 4.289-1.29 6.414-2.165 2.249-0.996 3.915-2.833 6.036-4.041 1.707-0.917 2.83-1.829 4.454-2.998 2.499-1.745 5.413-2.62 8.164-3.999 5.161-2.578 9.706-6.036 13.829-10.077 5.831-5.749 9.496-11.33 11.869-19.205 1.038-3.291 2.333-6.707 2.914-10.161 0.625-3.873 0.041-8.244 0.079-12.163 0.079-6.869-3.453-9.827-1.997-15.369-0.457-2.247-3.332-2.452-4.998-3.243-1.038-0.499-1.913-1.542-2.956-1.834-0.667-0.17-1.416 0.218-2.039 0.128-1.038-0.17-2.249-0.751-3.208-1.043-3.166-0.954-6.456-1.409-9.538-2.247-1.458-0.39-2.417-0.791-4.247-0.744-2.581 0.037-4.58-0.625-7.037-1.087-2.416-0.435-5.413 0.044-7.912 0.044h-24.7c-4.289 0.044-7.289 1.122-11.54 2.207-3.621 0.917-7.538 1.997-11.036 3.243-2.039 0.709-3.873 1.961-5.872 2.662-1.122 0.39-2.914 0.457-4.041 0.877-4.123 1.661-8.329 3.873-12.576 5.538-2.123 0.835-4.328 1.458-6.456 2.207-2.417 0.87-3.705 1.745-5.831 3.082-3.124 1.955-6.785 3.208-9.955 5.125-9.58 5.871-20.7 10.245-29.656 17.073-3.040 2.291-6.162 4.46-8.871 7.121-2.499 2.417-5.039 4.622-7.621 6.995-2.54 2.326-5.539 4.034-7.87 6.536-5.665 6.078-9.913 13.164-14.993 19.618-3.579 4.496-6.456 9.58-9.038 14.746-1.584 3.166-2.581 6.498-4.165 9.706-1.080 2.123-1.997 3.705-2.541 6.123-0.415 1.913-0.667 3.873-0.957 5.826-0.457 3.082-1.458 5.497-2.123 8.416-0.751 3.537-0.373 7.327-1.374 10.826-0.833 2.998-2.54 6.123-3.747 8.997-1.122 2.626-2.662 5.287-4.040 7.786-0.247 0.457-0.415 0.87-0.625 1.33-6.204-0.87-12.331-1.955-18.491-2.912-5.789-0.877-14.578-1.122-18.617 4.034-2.54 3.25-4.496 7.289-6.746 10.744-3.040 4.622-5.707 11.078-6.456 16.66-0.415 3.208 1.584 4.999 4.454 6.288 2.54 1.164 6.078 2.039 8.829 2.123 6.746 0.261 13.577 0.218 20.367 0.17-0.916 2.249-1.955 4.208-3.747 6.204-0.331 0.435-1.79 1.626-1.79 2.081 0 1.661 2.704 1.456 3.663 1.708 3.249 0.791 6.078 1.535 9.37 2.039 4.040 0.625 7.786 0.751 11.911 0.751 7.247 0 14.536 0 21.823 0 5.955 0 11.995 0.261 17.952 0.086 8.619-0.345 16.576-3.83 24.616-6.581 3.291-1.122 6.498-2.83 9.913-3.417 2.417-0.39 4.289-0.791 6.54-1.787 0.126-0.086 0.247-0.17 0.373-0.261 1.206 0 2.416-0.044 3.621-0.044 17.91 0 35.817 0.044 53.77 0 8.661 0 17.533-0.583 26.156 0.583 7.828 1.087 15.285 1.5 23.199 1.458 1.248 0 2.54 0 3.831 0-0.289 0.345-0.583 0.665-0.874 1.038-2.123 2.878-3.249 6.169-5.789 8.749-4.998 5.203-10.665 7.246-17.203 9.953-3.249 1.33-5.872 2.578-9.286 3.243-3.495 0.625-6.995 1.043-10.497 1.752-12.66 2.536-25.533 2.2-38.399 2.2-4.79 0-9.622 0.218-14.41 0.044-5.119-0.17-9.622-1.661-14.494-3.038-5.994-1.708-11.414-3.789-16.783-7.040-1.749-1.038-2.704-1.661-4.37-1.29-1.374 0.345-2.581 1.582-3.747 2.333-1.913 1.206-3.373 1.745-5.539 2.5-3.082 1.038-7.702 3.165-9.58 6.036-6.704 10.126 13.577 16.534 19.199 20.451 3.040 2.165 7.163 2.626 10.539 3.999 3.915 1.626 8.038 2.081 12.079 3.243 10.994 3.124 21.698 5.371 33.155 6.581 5.707 0.583 11.578 0.345 17.245-0.499 5.707-0.87 12.453-1.582 17.574-4.244 6.078-3.165 12.66-4.873 19.116-7.079 5.623-1.913 10.829-3.663 16.244-6.162 20.948-9.58 39.108-24.742 53.186-42.858 36.278 0 72.551 0.037 108.787 0.037h123.822c4.328 0 8.745 0.218 13.080-0.037 5.329-0.345 10.787-1.458 16.118-2.207 5.329-0.751 10.746-1.29 16.076-2.165 5.707-0.917 11.414-3.040 17.077-4.289 14.662-3.208 26.49-10.539 36.567-21.242 3.579-3.789 8.493-7.958 9.121-13.332 0.252-1.955 0.457-6.581-0.247-8.535-0.289-0.044-0.541-0.128-0.833-0.17z"></path>
    <path fill="#000000" d="M907.403 593.924c-14.41 7.121-18.953 13.080-21.2 15.995-3.372 4.289-6.498 8.829-8.080 13.997-0.834 2.662-1.29 5.581-1.625 8.325-0.373 3.040-0.583 4.208 2.375 5.161 4.412 1.458 8.871 2.249 13.619 1.29 6.036-1.248 11.869-2.452 16.701-6.743 4.289-3.789 8.122-10.119 8.247-15.95 0.126-5.332-0.751-10.539-2.291-15.617-0.751-2.5-4.79-7.121-7.744-6.456z"></path>
    <path fill="#000000" d="M236.27 593.861c-3.495 1.416-6.785 2.333-9.79 4.79-4.664 3.831-8.493 10.826-10.161 16.534-1.206 4.041-2.83 9.414-1.787 13.745 0.709 3.082 3.873 3.25 6.498 2.914 2.249-0.303 4.412-1.248 6.623-1.708 2.333-0.499 4.706-0.665 6.995-1.416 2.956-0.996 4.957-2.956 6.704-5.493 1.997-2.914 4.37-5.458 6.54-8.29 3.453-4.46 3.705-8.913 3.705-14.287 0-2.165 0.289-4.454-0.252-6.536-0.373-1.584-0.996-2.459-0.75-4.167-11.869 2.752-12.66 3.25-14.326 3.915z"></path>
    </svg>