<svg xmlns="http://www.w3.org/2000/svg" viewBox="-17.058 79.973 1071.890 864.110">
    <path fill="#000000" d="M221.116 606.424h29.331c17.647 0 35.293 0 52.891 0 19.914 0 40.408-1.051 60.284 0.325 13.835 0.919 27.537 2.846 41.42 3.196 16.154 0.454 32.312-0.045 48.467 0 21.845 0.045 43.475 2.189 65.231 2.668 9.324 0.234 18.605 0.182 27.932 0.142 12.173 0 24.39-0.040 36.602 0 15.021 0.045 29.859-0.831 44.83-1.664 13.138-0.699 26.4-0.142 39.495-0.142h95.703c10.205 0 20.618 0.532 30.823-0.094 2.409-0.142 4.726-0.661 7.098-1.051 1.165-0.234 5.777-1.398 7.176-0.569 0.519 0.413 0.908 2.055 1.165 2.627 2.189 4.55 8.498 8.316 12.173 11.82 5.905 5.649 8.186 11.294 12.656 17.945 3.24 4.814 7.046 8.933 11.035 13.137 3.198 3.328 6.177 6.658 9.807 9.411 3.070 2.367 5.957 4.469 8.897 6.963 2.836 2.407 3.24 4.728 4.107 8.23 0.519 2.281 2.097 5.737 1.877 8.056-2.707-1.313-3.056-0.479-2.008 2.673 0.776 2.321 2.189 4.51 4.896 4.728 2.317 0.182 3.46-0.045 5.685 1.051 3.68 1.923 7.759 4.243 11.035 6.784 0.647 0.611 1.359 1.23 2.060 1.836 0.128 0.622 0.259 1.271 0.259 1.887 0.519 1.051 1.748 1.398 1.62 2.668-0.259 2.189-6.397 2.714-7.745 2.932-19.834 3.064-40.498 2.539-60.55 2.539-31.828-0.094-63.615-0.045-95.44-0.045-22.766 0-45.578-0.959-68.257 1.796-18.649 2.275-36.901 1.623-55.641 1.711-13.965 0.094-27.454 1.23-41.332 3.020-14.933 1.968-29.331 3.372-44.436 2.321-18.913-1.403-37.692-5.253-56.477-7.794-14.099-1.923-28.109-4.33-42.163-6.306-8.626-1.23-17.293-1.579-25.873-3.064-6.786-1.139-13.529-2.627-20.398-3.46-13.27-1.579-26.837-1.271-40.193-1.975-15.583-0.789-31.036-0.867-46.579 0.045-19.529 1.139-39.143-0.789-58.623 0.831-7.796 0.661-15.499 1.664-23.288 2.275-11.424 0.881-22.766 3.33-34.149 4.384-8.236 0.739-16.288 0.867-24.523 0.831-4.469-0.045-9.895 0.789-14.355-0.182-0.128-1.313 0.259-2.141 0.776-3.282 4.857-10.511 12.692-19.793 20.357-28.282 6.915-7.62 13.31-15.371 19.177-23.775 3.9-5.561 7.667-11.074 11.733-16.504 1.542-2.016 2.228-3.898 3.070-6.173 1.436-3.766 4.598-7.31 7.305-10.244 2.591-2.846 3.368-6.001 3.418-9.722z"></path>
    <path fill="#000000" d="M755.048 524.489c-2.537 0.142-5.167-7.398-6.474-9.191-5.557-7.53-12.436-14.141-17.818-21.803-1.542-2.235-2.849-4.642-4.598-6.744-1.45-1.75-2.501-2.493-3.46-4.596-2.409-5.253-5.167-10.112-8.535-14.801-0.908-1.359-2.060-2.668-3.020-4.071-1.165-1.618-1.62-3.807-2.888-5.341-2.811-3.328-9.984-2.756-13.529-2.8-7.189-0.142-13.707 0.661-20.798 1.623-15.802 2.102-32.004 1.087-47.896 1.087-12.912 0-25.962 0.454-38.919-0.094-15.238-0.569-30.475-0.699-45.622-2.8-9.235-1.271-18.429-2.932-27.801-3.284-6.878-0.271-13.747-0.182-20.618-0.142-17.599 0.046-35.199 0-52.798 0-15.497 0-30.822-0.182-46.28-1.139-4.506-0.271-9.067-0.325-13.481-1.179-2.927-0.611-5.649-1.216-8.663-1.484-8.535-0.754-17.075-1.447-25.612-2.501-7.007-0.867-13.921-2.229-21.014-2.58-7.227-0.325-14.493 0.454-21.67-0.325-2.371-0.271-5.297-1.271-7.667-0.611-0.908 3.72-5.517 6.698-8.094 9.367-2.409 2.501-4.769 4.994-6.826 7.84-3.070 4.157-5.209 8.887-7.926 13.263-6.089 9.851-12.744 19.661-16.812 30.603-2.58 7.003-6.126 14.405-11.292 19.967-2.060 2.275-4.637 3.985-6.694 6.173-0.776 0.739-3.845 3.46-3.46 4.464 3.625 0.413 7.838-1.836 11.347-2.627 12.304-2.714 25.348-3.853 37.826-5.517 15.018-1.97 29.683-1.535 44.742-1.623 17.467-0.142 34.894-1.051 52.36-0.959 9.934 0.271 19.834 0.094 29.727-0.413 9.067-0.789 18.124-1.271 27.235-1.491 15.583-0.271 31.168 0.569 46.755-0.325 14.493-0.831 28.681-1.445 43.213-1.4 12.265 0.040 24.562 0 36.863 0 23.117 0 46.28 0.040 69.392-0.045 5.905-0.142 11.774-0.045 17.686 0.182 5.038 0.479 10.115 1.009 15.192 1.491 6.346 0.413 12.563 0.325 18.869 0.881 5.919 0.532 11.696 0.040 17.599 1.051 5.997 1.051 11.604 1.923 17.686 2.448 7.706 0.699 15.505 2.719 23.251 2.195 3.46-0.234 2.8-1.101 10.555-2.805z"></path>
    <path fill="#000000" d="M645.2 377.725c0.776 0.182 1.45 0.699 1.711 1.491-1.037-0.622-1.711-1.447-2.448-2.321-2.721-3.416-4.896-7.269-7.447-10.815-4.029-5.561-7.135-11.952-11.682-17.12-1.748-2.009-2.888-3.586-4.065-5.955-1.359-2.759-3.328-5.077-4.818-7.75-0.908-1.664-1.45-4.682-3.29-5.297-1.165-0.413-3.328 0.040-4.56 0.040-4.377-0.040-8.663 0.413-13.090 0.699-9.324 0.699-18.825 0.234-28.196 0.234-19.35-0.040-38.699 0.094-58.051-0.040-7.618-0.046-15.060-0.046-22.634 1.009-7.486 1.051-14.886 1.882-22.499 1.796-5.607-0.094-11.204-0.094-16.81-0.094-7.189 0.046-14.625 0.699-21.674-1.009-5.465-1.359-10.595-2.978-16.33-3.372-5.685-0.413-11.462-0.142-17.161-0.094-5.297 0-10.555-0.046-15.849-0.046-3.148 0-6.309 0.046-9.455 0-2.189 0-6.268-0.739-8.406 0.046-2.097 0.789-3.29 3.893-4.065 6.041-1.165 3.152-1.165 6.784-1.84 10.071-0.519 2.493-0.519 5.517-1.436 7.882-1.322 3.064-4.286 5.517-6.089 8.316-1.165 1.882-7.575 11.208-4.91 13.488 0.519 0.413 1.748 0.094 2.36 0.094 2.927 0.040 5.869 0 8.755 0 7.838 0 15.67-0.271 23.42 0.182 9.807 0.532 19.395 1.75 29.199 1.664 12.436-0.040 25.087-0.789 37.52 0.325 4.506 0.454 9.015 1.179 13.488 1.755 5.685 0.739 11.292 0.699 16.988 0.647 13.965-0.182 27.932-0.479 41.765 1.491 8.236 1.179 16.286 2.759 24.602 2.932 11.604 0.271 23.291-0.532 34.893 0.234 6.268 0.413 12.343 1.75 18.609 1.664 12.744-0.142 25.48-0.040 38.175-0.040z"></path>
    <path fill="#000000" d="M574.966 293.089c0.128-0.040 0.391-0.094 0.647-0.094-1.62-3.72-4.726-6.83-6.177-10.551-1.359-3.372-2.888-6.526-4.417-9.807-0.776-1.711-0.908-2.587-2.758-3.064-2.629-0.661-6.786 1.445-9.287 1.75-10.775 1.359-22.327 0.142-33.188 0.182-14.229 0-28.455 0-42.685-0.040-5.517 0-11.127 0.413-16.592-0.142-9.455-0.831-18.737-2.235-28.241-2.8-7.618-0.454-15.060-0.881-22.543-2.453-1.799-0.413-6.749-2.407-8.626-1.882-2.239 0.611-1.542 1.139-1.62 3.592-0.128 3.328-1.579 6.784-2.097 10.112-0.908 5.957-4.469 9.59-6.864 15.021 2.849 1.491 8.016-0.479 11.072-0.611 12.471-0.569 25.040-1.101 37.52-1.051 23.643 0.142 47.283 0.094 70.969 0.046 8.718-0.046 17.161-0.094 25.788 1.311 4.469 0.739 8.938 1.711 13.442 2.148 1.308 0.094 2.707 0.040 4.029 0.362 4.34 1.101 8.975 0.699 21.67-2.016z"></path>
    <path fill="#000000" d="M569.565 269.678c-0.259-1.75 0.259-2.932 0.908-4.51 1.62-4.377 1.579-9.544 2.189-14.099 1.037-6.958 0.519-14.141 0.519-21.146-0.094-8.276 1.711-16.242 1.799-24.516 0.040-6.698 1.918-12.392-0.519-18.957-1.037-3.108-2.537-6.346-0.094-9.059 2.281-2.501 5.997-3.064 8.535-5.341 1.491-1.315 2.448-3.416 4.12-4.469 1.436-0.919 3.328-0.699 4.989-0.479 4.78 0.611 9.195 1.836 12.876 4.901 1.62 1.359 2.668 1.97 3.548 3.812 0.776 1.618 1.294 2.58 1.656 4.291 0.647 2.714 0.908 4.901 0.908 7.791-0.039 7.442-0.039 14.887-0.039 22.374 0 5.955 0.259 11.34-1.165 17.075-1.491 5.735-0.647 12.172-0.647 18.037 0 6.041-0.908 11.952-0.908 17.991 0.039 10.071 0.128 20.178-2.019 29.991-0.519 1.796-0.647 5.385-2.978 6.001-1.037 0.271-2.060-0.622-2.978-1.051-3.148-1.623-6.658-2.407-9.728-4.291-4.469-2.759-6.956-7.269-10.375-11.035-1.62-1.796-3.418-3.108-4.598-5.253-0.647-1.101-0.776-2.275-6.034-8.056z"></path>
    <path fill="#000000" d="M373.28 296.691c1.579-0.325 3.29-3.5 4.029-4.857 0.908-1.667 1.799-3.284 2.629-4.948 1.294-2.627 1.579-5.385 2.58-8.102 1.165-3.196 2.927-6.219 4.648-9.191 1.037-1.711 2.281-2.846 2.8-4.814 0.908-3.284 0.647-7.269 0.391-10.683-0.519-7.62-0.776-15.106-0.776-22.812 0-12.565 0.391-25.128-0.776-37.606-0.259-3.020 0.046-6.041-0.040-9.059-0.046-2.493-0.776-4.728-0.908-7.183-0.128-2.229 0.259-4.423-0.128-6.65-0.391-1.97-0.776-3.46-0.776-5.473 0.046-3.284 0.391-3.414-2.707-3.853-2.317-0.325-4.818-1.403-7.135-1.447-1.711-0.040-1.165 0.182-2.629 0.959-3.108 1.664-6.034 1.179-7.085 5.299-0.776 2.756-1.165 5.253-2.448 7.923-0.908 1.843-2.317 3.46-2.978 5.385-1.165 3.5-2.281 6.518-4.065 9.763-1.037 1.923-2.591 4.157-3.148 6.392-0.776 2.976-0.259 6.958-0.259 9.939 0.128 5.165 1.037 10.379 1.45 15.497 0.391 4.423 0.128 8.753 0.391 13.177 0.128 4.814 1.799 9.456 1.931 14.317 0.259 9.417 0.259 19.001-0.040 28.415-0.046 2.932-1.359 6.963-0.776 9.722 0.391 1.664 1.799 3.939 2.591 5.385z"></path>
    <path fill="#000000" d="M706.43 447.060c-1.436 0.325-2.448-0.661-3.625-1.311-2.317-1.315-4.726-2.367-6.878-3.985-3.020-2.281-5.649-4.948-8.535-7.355-2.978-2.493-5.737-4.157-7.926-7.442-3.496-5.385-6.438-11.208-9.856-16.68-4.029-6.432-6.254-14.053-6.438-21.671-0.094-2.627-0.519-6.441 0.259-9.065 0.519-1.836 1.748-3.634 2.409-5.429 1.528-4.071 1.656-8.362 2.448-12.605 1.931-10.555 2.151-20.929 2.151-31.652 0-10.949 0.128-21.85 0-32.752-0.044-4.814 0.647-9.367 1.294-14.141 0.519-3.284 1.165-7.178 0.391-10.465-0.519-2.148-1.491-4.157 0.128-6.001 0.908-1.051 2.721-1.711 3.9-2.361 3.24-1.796 6.438-3.944 10.076-4.814 4.857-1.179 10.115-0.479 15.065-0.454 3.845 0 7.653 0 11.462-0.046 6.034-0.040 14.84 0.831 19.92 4.51 1.931 1.359 3.937 3.196 5.827 4.688 2.189 1.79 4.029 3.586 4.079 6.478 0.094 6.432 0.776 12.785 0.908 19.217 0.046 7.355-0.391 14.493-1.579 21.762-1.165 7.266-1.918 14.141-1.968 21.498-0.128 10.159-2.36 20.178-1.968 30.384 0.391 8.621 1.308 16.982 0.776 25.656-0.259 5.821-1.528 11.248-2.36 16.896-0.519 3.856-0.128 7.62-1.037 11.472-1.4 5.781-5.258 10.465-7.575 15.849-2.281 5.253-9.494 7.923-21.232 9.807z"></path>
    <path fill="#000000" d="M292.241 424.546c5.957-5.821 13.615-10.203 17.208-17.951 1.799-3.807 3.198-7.838 4.726-11.732 0.776-1.532 1.322-3.108 1.62-4.769-0.092-0.454-0.391-0.699-0.776-0.831-2.58-6.087-3.937-12.612-5.429-19.133-1.748-7.878-3.198-16.066-5.607-23.773-1.711-5.341-3.276-10.244-3.9-15.849-0.776-6.958-1.165-14.009-2.629-20.881-1.165-5.693-2.189-11.081-2.707-16.856-0.647-6.306-2.281-12.304-2.501-18.693-0.128-4.071-1.037-7.574-1.62-11.472-0.391-2.361-0.259-3.46-2.849-3.766-2.501-0.271-4.249-0.234-5.649 1.796-3.198 4.596-5.209 9.851-9.158 13.966-4.598 4.814-9.764 8.667-14.053 13.747-1.84 2.189-3.768 3.807-4.726 6.526-1.491 4.157-1.359 8.707-2.138 13.044s-1.436 8.54-1.877 12.918c-0.647 6.871-2.019 13.657-2.097 20.574-0.128 5.781-0.094 11.644-0.046 17.472-0.259 3.68 0.259 7.266 1.322 10.809 1.4 3.244 2.537 6.573 3.418 9.983 0.908 4.071 1.294 8.362 2.019 12.48 0.908 4.862 1.436 9.939 1.491 14.933 0 5.385 0.776 11.208 1.799 16.548 1.037 5.603 8.847 8.362 13.483 10.815z"></path>
    <path fill="#000000" d="M872.996 672.151c0-20.398-1.165-41.112 0.908-61.426 1.528-15.365 0.908-30.862 0.908-46.273 0-18.825 0.776-37.785-0.040-56.521-0.391-8.276-2.537-16.11-4.029-24.211-1.037-6.392-2.019-12.785-3.198-19.131-1.542-8.102-2.668-15.498-2.629-23.773 0-4.642-0.128-9.237 0.647-13.701 0.391-1.711 0.259-2.539 1.579-3.812 3.020-2.978 7.135-5.299 10.503-7.97 5.077-3.985 9.235-7.049 15.846-7.75 6.309-0.611 12.834-1.101 19.133-1.139 9.455-0.094 18.211 3.46 25.216 9.939 8.883 8.276 16.286 18.209 22.719 28.455 2.448 4.642 4.946 9.283 7.409 13.921 2.758 5.341 4.989 10.901 6.736 16.639 0.128 1.139 0.046 2.189 0.046 3.282-0.046 2.892-0.128 5.693-0.519 8.58-1.528 11.213-2.36 22.421-3.639 33.668-1.322 11.911-0.044 24.038-0.908 35.989-0.776 11.34-2.097 22.633-1.931 34.017 0.094 9.191 0.908 18.209 1.542 27.408 1.711 25.216-0.259 50.517 2.721 75.607 1.037 9.151 0.776 18.209 0.908 27.408 0.040 7.964-1.037 15.758-1.62 23.726-0.519 8.54-0.128 17.12-0.128 25.7 0 22.149 0 44.35 0 66.499 0 4.071 0.519 8.714-0.259 12.744-0.128 1.139-0.647 2.229-0.776 3.414-0.046 0.831 0.391 2.057 0.094 2.846-0.908 2.448-5.905 3.414-8.186 4.071-1.528 0.454-3.108 0.739-4.598 1.271-4.065 1.532-7.135 2.321-11.554 2.361-11.127 0.094-21.931-2.888-32.4-6.307-6.474-2.143-9.636-5.689-12.692-11.424-3.68-6.876-5.957-13.402-6.268-21.498-0.519-14.713-0.776-30.211 1.037-44.83 1.037-8.366 3.988-16.334 5.038-24.695 0.776-6.173 2.707-12.040 3.68-18.165 0.647-4.469 0.519-9.808-0.391-14.185-1.62-8.056-4.417-15.677-5.869-23.859-0.259-1.579-0.391-3.724-1.165-5.126-1.165-2.055-3.020-4.243-4.377-6.3-1.67-2.627-4.428-6.087-7.838-5.561z"></path>
    <path fill="#000000" d="M137.378 672.151c1.037-4.989 3.588-10.465 6.397-14.581 1.359-2.057 2.409-3.72 4.34-5.121 1.528-1.087 3.768-2.932 4.428-4.682 1.294-3.504-0.094-8.322-0.908-11.779-1.62-7.090-3.808-13.569-4.249-20.926-0.259-5.341-0.046-10.511-0.776-15.803-0.776-5.429-1.165-10.769-1.165-16.242 0.046-13.137 0.092-26.272 0-39.403-0.094-7.135 0.776-13.747 1.84-20.75 0.908-6.001 1.165-11.997 1.968-17.991 0.647-5.126 1.037-10.335 1.84-15.458 0.391-2.235 1.037-4.596 0.519-6.871-0.259-1.23-1.748-3.724-2.060-4.384-1.308-2.888-2.409-5.821-3.639-8.801-1.968-4.728-4.12-10.417-8.186-13.789-2.448-2.016-5.777-3.24-8.575-4.728-3.808-2.016-6.346-2.978-10.687-2.932-8.016 0.142-16.070-0.325-24.079 0-4.34 0.182-8.278 0.532-12.173 2.321-2.927 1.359-5.479 3.064-8.186 4.682-3.24 1.931-5.429 2.407-5.209 6.526 0.519 10.949-1.84 21.717-1.799 32.659 0.040 9.544 0.128 19.089 0.094 28.634-0.094 10.551-1.037 21.058-0.908 31.652 0.046 19.615 0.046 39.231 0 58.839 0 13.442 0.519 26.884-0.908 40.325-1.294 11.248-2.138 22.062-1.4 33.402 0.519 8.010 1.799 16.022 2.281 24.078 0.391 6.001 0 11.952 0.092 17.905 0.046 7.183 0.908 14.185 0.908 21.366-0.040 9.59 0.776 19.573-0.519 29.072-1.037 8.322-3.24 16.374-3.198 24.868 0.046 2.976-0.519 6.564-0.040 9.544 0.519 3.5 2.927 3.72 6.089 4.901 3.808 1.4 7.539 3.152 11.424 4.51 4.598 1.579 9.235 2.321 14.097 2.756 3.717 0.362 7.486 0.479 11.204 0.831 3.148 0.325 6.397 1.139 9.544 1.051 1.165-3.72 3.29-6.826 3.496-10.809 0.519-7.75 0.046-15.192-1.308-22.812-0.647-3.586-0.908-7.222-1.84-10.723-0.776-2.978-2.097-5.737-3.328-8.54-3.496-8.010-4.249-16.286-4.327-24.908-0.094-7.53-0.647-15.411 1.4-22.719 1.877-6.876 3.070-13.921 4.91-20.838 1.877-6.917 5.649-12.876 8.975-19.089 0.908-1.623 2.58-4.423 2.758-6.219z"></path>
    </svg>