<svg xmlns="http://www.w3.org/2000/svg" viewBox="-1.485 -16.819 1035.471 1056.922">
    <path fill="#000000" d="M739.214 950.568l-11.753-1.799c-8.249-1.359-16.712-3.97-24.731-6.303-7.929-2.345-16.352-5.316-23.558-9.408-4.318-2.439-8.022-5.677-11.979-8.555-7.156-5.184-15.271-8.782-22.748-13.427-9.688-5.984-17.073-13.783-24.549-22.25-9.635-10.954-19.008-21.309-27.117-33.424-12.166-18.291-21.036-39.102-28.288-59.819-4.464-12.752-7.383-25.272-8.555-38.693-0.932-11.179-3.69-22.166-4.543-33.245-0.8-10.274-1.573-20.769-1.853-31.082-0.133-6.715 0.089-13.468 0.089-20.181 0-7.156-1.199-16.44 0.533-23.646 1.199-5.264 3.69-10.313 5.184-15.499 1.199-4.277 1.985-8.608 3.104-12.926 2.212-8.236 6.982-15.542 9.862-23.556 2.518-7.022 6.209-14.191 9.862-20.674 2.571-4.638 6.037-8.835 8.914-13.285 3.785-5.81 6.583-12.206 9.914-18.246 4.184-7.515 9.049-14.146 13.603-21.352 3.825-6.037 6.797-12.206 11.353-17.841 4.73-5.943 10.313-11.126 15.181-16.933 5.81-6.982 12.299-13.788 18.92-20.050 7.116-6.797 14.008-13.285 22.297-18.738 6.436-4.184 13.648-7.436 19.91-11.939 4.411-3.199 7.302-7.528 11.886-10.448 15.901-10.047 34.867-13.966 53.423-15.992 28.154-3.012 56.488-3.785 84.82-4.105 18.649-0.267 34.55 8.101 50.587 16.355l10.221 7.663 6.85 3.518c5.356 2.345 10.448 5.411 15.766 8.289 4.957 2.653 6.942 6.982 9.78 11.712l2.518 7.396 2.653 4.77 2.706 5.903-1.439-5.583c-2.571-7.209-6.53-13.741-9.954-20.543-3.785-7.476-6.755-14.413-11.753-21.169-5.131-6.85-10.408-13.603-17.072-18.963-6.85-5.451-12.66-8.875-21.035-11.673-8.421-2.785-16.982-4.957-25.496-7.343-22.614-6.356-45.992-8.289-69.011-12.393-10.994-1.932-21.982-4.052-32.973-5.903-10.181-1.705-20.901-0.8-31.171-0.8-24.82-0.133-47.027 3.465-69.37 14.684-7.702 3.878-15.45 6.755-22.883 11.261-8.555 5.144-19.999 9.141-26.892 16.485l-9.194 8.782-10.941 7.288c-7.702 6.489-14.864 13.206-20.63 21.399-6.755 9.635-15.135 18.559-20.271 29.278-4.331 9.009-9.328 17.793-13.422 26.936-5.543 12.433-10.408 25.184-16.126 37.524-4.503 9.595-9.78 18.696-13.559 28.652-2.571 6.702-4.371 13.558-7.436 20.086-3.731 8.155-4.543 15.631-5.49 24.506-1.199 11.166-3.598 22.16-4.691 33.335-1.439 15.043-0.267 30.674-0.267 45.721 0 9.821 0.089 19.64 0 29.462-0.089 9.101 1.346 17.157 2.932 26.080 2.479 13.962 4.411 28.195 8.515 41.848 4.638 15.536 11.3 30.627 17.748 45.495 7.302 16.801 14.639 31.619 26.712 45.448 12.246 14.008 26.485 24.639 41.981 34.731 14.91 9.727 29.189 20.721 45.495 28.017 5.543 2.426 10.313 5.050 16.261 6.356 8.835 1.893 18.198 3.199 27.251 3.384 27.793 0.533 55.451 1.439 63.919-4.557z"></path>
    <path fill="#000000" d="M308.77 809.083c-21.531-25.945-36.802-57.070-44.865-90.135-7.609-31.126-11.847-63.514-7.609-95.543 1.533-11.353 4.823-22.475 7.249-33.691 3.465-16.129 7.568-32.117 14.054-47.344 9.421-22.117 19.551-43.694 30.541-64.999 10.221-19.777 26.711-37.208 40.856-54.145 7.077-8.421 15.001-15.81 24.189-21.847 10.899-7.116 22.568-12.887 33.603-19.73 7.663-4.73 14.73-9.688 23.019-13.246 15.496-6.623 31.533-12.752 47.613-17.703 12.113-3.69 24.188-7.969 36.666-10.274 11.807-2.159 23.874-2.745 35.857-3.104 18.198-0.533 36.127-4.691 54.28-4.503 17.612 0.133 35.315-0.665 52.884 0.094 10.899 0.533 21.665 2.745 32.431 4.411 9.914 1.573 19.956 2.877 29.775 5.224 19.818 4.73 39.684 9.234 59.143 15.315 20.091 6.303 40.452 12.299 59.549 21.22 7.436 3.465 14.413 7.476 21.667 11.353 7.116 3.745 14.956 5.903 21.126 11.261 9.5 8.236 17.883 18.109 26.846 26.936 7.302 7.209 12.299 15.226 18.063 23.652 5.77 8.462 11.087 16.711 15.181 26.17 2.798 6.489 3.199 13.333 4.184 20.271 0.932 6.037 2.932 11.886 3.825 17.927l1.799 11.126 1.492 7.702c0.046-10.767 0.046-21.577 0-32.343-0.047-5.316-0.267-10.58 0.399-15.902 0.533-4.543 1.399-7.969 0.399-12.433l-3.785-10.727c-1.799-6.264-2.877-12.699-4.77-18.963-3.745-12.246-8.648-24.143-13.514-36.038-4.277-10.54-12.34-18.916-16.891-29.323-2.611-5.984-5.903-10.941-9.727-16.261-5.131-7.116-9.688-14.234-15.811-20.496-6.982-7.077-12.113-15.583-18.92-22.789-9.194-9.688-19.551-16.534-30.584-23.877-9.821-6.489-22.253-10.313-33.289-14.188-14.505-5.144-29.459-9.688-44.37-13.561-7.568-1.932-15.855-2.345-23.558-3.69-4.184-0.665-8.196-1.359-12.393-1.853-17.073-1.893-33.874-5.277-50.992-7.022-31.938-3.239-64.641-0.8-96.307 3.292-21.035 2.745-42.253 4.052-63.245 6.942-10.221 1.399-20.315 3.331-30.496 4.691-16.936 2.199-32.927 8.289-48.784 14.413-12.699 4.957-24.864 10.86-38.153 14.146-11.847 2.877-22.434 8.421-33.874 12.433-15.72 5.543-30.63 13.561-45.18 21.623-11.62 6.396-25.63 10.141-35.496 19.237-9.688 8.954-18.651 16.933-25.767 28.148-6.889 10.86-12.525 22.344-19.279 33.292-6.889 11.221-10.899 24.097-15.767 36.306-2.571 6.436-5.717 12.979-7.209 19.773-1.066 5.277-1.705 10.54-3.199 15.767-3.331 11.487-4.318 22.973-6.623 34.73-1.985 10.141-4.638 20.228-6.076 30.496-1.066 7.077-1.346 14.146-2.798 21.174-6.129 29.462-9.194 58.785-8.289 88.876 0.533 15.72 8.381 31.394 13.559 46.126 2.345 6.583 3.785 13.468 6.169 20.044 1.853 5.184 5.050 9.194 7.249 14.146 4.331 9.5 10.633 15.132 17.793 22.522 4.237 4.371 7.609 9.767 12.299 13.736 3.957 3.331 8.782 5.677 12.887 8.822 5.943 4.557 12.074 8.742 17.838 13.474 5.411 4.371 9.994 9.234 15.225 13.783 5.583 4.997 12.074 9.461 18.873 12.62 9.595 4.451 19.64 6.929 28.918 12.34z"></path>
    <path fill="#000000" d="M111.381 486.957c0-5.264-0.533-9.275-1.705-14.551-4.73-20.269-6.489-41.26-5.77-62.069 0.267-11.979 1.758-23.788 4.464-35.409 2.877-9.141 6.436-18.060 10.633-26.709 8.155-18.067 17.297-34.957 27.568-51.894 14.82-24.506 32.613-48.601 54.326-67.525 12.246-10.633 26.577-19.503 39.82-28.873 14.684-10.448 30.677-18.692 46.803-26.711 27.297-13.558 54.865-26.306 85.181-31.219 16.081-2.611 32.658-4.277 48.92-5.543 15.494-1.199 31.036-3.239 46.576-3.424 29.955-0.399 59.955 0.133 89.956 0.133 22.072-0.043 44.191-0.8 66.171 1.666 16.667 1.853 31.802 6.303 47.972 9.954 6.889 1.199 13.785 2.386 20.721 3.371 8.515 1.893 16.757 4.557 24.774 7.969 16.037 6.223 33.515 10.807 48.784 18.832 19.1 10.087 35.946 23.513 54.28 34.731 12.393 7.609 24.189 14.14 34.549 24.549 9.234 9.194 18.515 19.188 25.045 30.494 17.612 30.631 24.056 66.486 33.694 99.955 5.090 17.658 12.699 34.459 17.387 52.21 2.479 9.408 4.011 18.875 5.090 28.469 0.932 9.275 2.745 18.555 3.331 27.835 2.079 32.84 1.439 65.678 1.439 98.608 0.089-7.969 0.046-15.274 1.799-23.151 2.653-11.753 3.69-23.384 4.598-35.36 2.159-28.564 0.8-57.704-3.331-86.084-3.785-25.499-9.049-50.63-14.956-75.723-2.345-10.087-5.090-20.181-7.795-30.134-1.932-7.209-4.371-14.281-6.396-21.441-1.932-6.797-5.264-13.019-7.515-19.73-7.209-21.714-17.072-41.532-28.244-61.488-6.663-11.939-15.721-22.071-24.73-32.253-3.878-4.371-7.702-8.967-11.807-13.153-6.583-6.715-14.549-11.393-22.612-15.992-11.126-6.303-22.434-11.847-32.837-19.369-8.608-6.264-16.802-13.421-26.578-17.793-15.089-6.85-31.487-9.994-46.576-16.979-5.997-2.745-11.527-6.076-17.792-8.101-5.997-1.932-12.34-2.706-18.515-3.69-14.37-2.386-28.649-5.356-43.018-7.476-36.938-5.49-74.053-9.914-110.946-15.631-7.209-1.066-14.278-2.838-21.531-3.598-9.368-0.932-19.008-0.267-28.378-0.133-26.667 0.047-53.333 0-80.002 0-20.721 0-41.848-1.346-62.477 0.267-13.919 1.066-27.793 4.411-41.622 6.449-11.753 1.758-24.415 4.184-35.721 8.236-9.194 3.239-16.982 9.194-25.045 14.508-22.297 14.68-41.848 32.973-62.389 49.909l-10.86 10.899c-4.691 4.277-9.194 8.608-13.559 13.246-8.742 9.408-15.496 19.327-21.623 30.631-10.448 19.278-14.413 40.899-22.163 61.305-2.611 6.982-6.264 13.558-8.914 20.496l-2.252 8.289c-1.439 4.331-3.558 8.421-4.318 12.926-2.653 15.855-4.77 32.343-4.73 48.377 0.044 11.712 0.267 22.57 1.893 34.099 1.533 10.86 1.399 21.892 2.745 32.748 1.346 11.034 3.518 21.939 4.77 32.977 0.932 8.914 0.133 17.609 4.184 25.809 4.318 8.648 9.101 16.985 13.019 25.812l4.73 9.421z"></path>
    <path fill="#000000" d="M744.601 945.762c-12.433-0.133-24.549-0.932-36.892-2.932-18.378-2.932-35.585-10.807-51.757-19.867-15.811-8.835-32.432-18.109-45.495-30.809-6.129-5.903-12.393-11.406-19.054-16.711-6.797-5.356-10.448-11.979-14.505-19.505-18.558-34.462-21.485-76.577-20.496-115.092 0.399-16.215 3.384-32.612 7.476-48.289 4.318-16.261 12.887-29.954 22.702-43.469 8.687-11.979 16.982-23.063 28.964-32.027 10.633-7.889 22.702-12.472 35.315-16.123 11.847-3.424 23.108-7.169 35.406-8.648 11.939-1.478 24.144-1.853 36.127-1.853 7.969 0.047 17.479-1.533 25.179 0.267 6.715 1.533 14.054 4.331 20.496 6.797l10.181 5.636c4.318 2.518 9.101 4.144 13.285 6.85 4.638 2.972 7.742 6.583 10.501 11.3l5.224 10.54c-6.076-1.813-12.34-3.785-18.288-5.863-3.651-1.333-6.076-2.386-10.181-2.653-5.77-0.399-11.446-1.066-17.162-1.893-16.848-2.345-34.504-4.011-51.532-2.518-9.101 0.8-18.468 5.264-25.225 11.207l-10.448 5.81c-4.411 2.518-8.249 6.303-12.62 9.049-5.184 3.239-9.914 7.022-15.001 10.313l-8.875 5.903c-6.396 5.863-9.862 14.193-14.008 21.624l-3.065 8.875c-2.025 6.076-4.598 11.979-6.53 18.109-2.386 7.528-4.052 15.001-5.451 22.748-2.212 12.299-5.943 24.191-8.328 36.398-1.705 8.875-3.292 17.972-2.025 27.027 1.932 13.872 7.249 28.154 12.393 41.039 2.932 7.302 7.476 13.873 11.166 20.764 5.717 10.593 9.954 21.531 17.162 31.262 5.543 7.568 11.847 14.502 18.153 21.441 7.077 7.742 13.648 16.576 21.623 23.378 5.184 4.411 11.62 7.795 17.387 11.406l9.275 4.638c7.383 1.84 15.315 2.785 22.838 4.184 4.997 0.932 10.54 2.159 15.631 2.291-0.665-0.267-0.932-0.8 0.399-10.58z"></path>
    <path fill="#000000" d="M830.513 940.752c-11.62 5.356-24.235 5.090-36.802 2.972-22.522-3.878-44.233-11.393-63.693-23.331-11.527-7.116-19.594-16.307-28.559-26.306-6.129-6.81-11.979-13.378-16.443-21.399-4.237-7.609-9.595-14.68-13.648-22.338-4.957-9.421-7.302-20.228-6.85-30.767 0.267-6.982 1.492-13.83 2.571-20.723 1.533-9.595 2.159-19.681 6.396-28.558 3.731-7.835 8.062-15.452 11.979-23.151 4.052-7.889 7.742-14.864 14.232-20.948 7.302-6.797 14.866-12.433 23.876-16.758 9.328-4.411 20.361-9.049 30.584-10.313 17.885-2.199 35.631 3.731 52.254 9.595 17.522 6.169 33.739 16.758 50.27 25.182 9.635 4.865 19.145 12.887 24.008 22.79 4.957 10.221 7.568 22.165 7.929 33.471 0.267 10.714-0.046 20.674-3.012 30.947l-3.878 11.487c-2.571 5.224-4.865 11.753-9.141 15.769-16.081 14.953-36.217 24.279-58.379 23.198-6.715-0.267-14.234-0.665-20.721-2.479-8.742-2.386-17.162-6.889-25.135-11.073-10.941-5.77-19.505-11.753-25.271-23.11-3.69-7.302-6.583-13.468-8.421-21.441-1.346-5.903-3.69-10.767-3.292-16.848 0.8-12.845 5.77-24.369 12.472-35.182l-4.237 2.345c-5.131 3.785-9.194 10.487-13.514 15.132-3.825 4.184-6.264 5.81-8.835 10.727-2.838 5.49-5.411 9.727-5.050 16.081 0.399 7.568 3.104 15.988 6.623 22.748 4.052 7.795 9.461 13.963 14.956 20.717 5.717 7.116 10.181 14.821 17.433 20.496 4.464 3.518 8.196 7.889 12.926 11.126l11.847 6.53c4.105 2.479 7.742 5.49 11.9 7.875 5.81 3.384 11.712 3.917 18.109 5.451 5.997 1.478 11.62 0.932 17.702 1.199 8.062 0.399 13.695-0.399 20.857-4.277 21.757-11.847 39.099-30.857 53.018-50.992 3.69-5.316 6.663-11.62 9.555-17.436 4.503-9.141 3.384-18.649 2.611-28.511-0.665-8.155-2.653-16.485-4.144-24.507l-3.825-10.313-4.237-7.702-2.877-9.727c-2.706-7.209-7.383-13.829-10.58-20.905-3.917-8.822-9.009-16.617-14.144-24.727-2.706-4.184-6.396-5.903-10.181-8.967-7.436-5.997-17.612-9.194-26.307-12.752-11.712-4.823-22.162-12.019-34.415-15.583-4.011-1.199-8.249-1.359-12.34-2.025-6.583-1.066-12.887-3.611-19.505-4.318-20.45-2.345-42.929 6.982-59.144 18.69-4.997 3.611-9.049 8.062-13.739 12.033-5.943 5.090-12.074 8.875-17.207 14.817-4.865 5.583-10.675 11.753-14.413 18.246-8.608 14.775-17.614 32.431-20.271 49.416-1.439 9.194-3.199 18.15-6.303 26.979-1.758 4.957-3.785 9.78-3.745 15.137l0.665 7.302-0.399 7.568 1.346 10.58 1.758 5.943c2.159 6.81 1.893 14.098 4.184 20.811 5.85 17.479 15.449 34.279 30.584 45.135 11.62 8.328 22.883 16.576 35.677 23.151 8.648 4.424 17.297 8.875 25.857 13.474 6.303 3.371 14.413 6.623 21.441 7.875 9.049 1.586 18.198 3.611 27.433 3.69 11.807 0.133 22.793-0.043 34.054-3.785 5.411-1.799 10.367-2.745 15.857-3.878 2.025-0.399 3.518-0.8-0.267-11.62z"></path>
    </svg>