<svg xmlns="http://www.w3.org/2000/svg" viewBox="38.964 -18.499 951.481 1058.501">
    <path fill="#000000" d="M821.829 506.565c-6.289 10.409-13.811 20.176-21.059 29.906-9.972 13.332-18.895 26.982-30.387 39.072-11.168 11.769-21.697 23.982-32.547 36.030-4.442 4.963-9.77 8.606-15.414 12.171-4.205 2.682-8.645 5.365-13.13 7.609-4.24 2.121-8.812 3.28-12.971 5.523-6.727 3.685-13.012 8.046-20.017 11.368-6.489 3.045-12.010 7.086-18.935 9.288-17.134 5.448-33.829 13.293-51.765 15.935-13.412 2.001-26.943 2.845-40.355 5.005-11.772 1.923-23.1 2.961-34.991 2.92-9.77-0.037-18.536-1.043-28.063-2.92-10.209-2.001-20.458-3.443-30.545-6.246-6.762-1.88-13.052-4.805-19.938-6.484-10.694-2.682-21.099-6.125-31.706-9.050-25.063-6.885-49.123-16.611-71.622-29.543-9.924-5.729-20.017-10.691-29.624-16.975-8.645-5.645-16.614-12.132-25.462-17.418-7.082-4.204-13.931-8.765-20.657-13.448-9.332-6.447-16.295-15.253-24.942-22.54-10.813-9.050-20.698-18.897-29.584-29.827-6.56-8.046-14.454-14.853-19.298-24.141-4.809-9.288-11.654-16.854-17.134-25.661-0.71-1.16-1.363-2.36-2.084-3.563 1.28-2.44 2.523-4.884 3.837-7.287 9.924-18.053 19.977-34.547 34.991-48.761 11.851-11.209 25.061-20.296 38.153-29.985 4.642-3.443 10.007-6.046 15.133-8.687 5.329-2.762 10.765-5.527 16.293-7.808 8.408-3.521 17.174-5.845 25.862-8.606 12.65-4.003 25.181-7.808 37.954-11.41 23.699-6.647 46.921-15.454 70.861-21.258 6.691-1.642 13.052-4.044 19.937-4.562 8.325-0.639 16.534-2.084 24.781-3.364 10.885-1.721 21.739-3.563 32.709-4.365 11.287-0.841 22.819-0.165 34.11-0.165 16.654-0.042 34.15-1.441 50.684 1.24 4.607 0.758 9.012 3.042 13.491 4.282 5.2 1.441 10.529 2.163 15.854 3.042 9.605 1.604 18.816 4.767 28.145 7.528 11.37 3.401 22.859 5.924 34.029 9.927 7.888 2.845 15.613 6.087 23.499 8.969 5.448 2.001 10.813 3.759 15.733 6.923 2.321 1.525 4.442 3.126 6.845 4.445 7.45 4.282 15.172 7.206 22.379 12.049 7.484 4.967 14.453 10.57 22.018 15.454 8.088 5.206 15.934 10.45 22.859 17.175 6.68 6.526 13.772 12.37 19.858 19.457 4.559 5.323 9.083 10.729 13.21 16.453 4.37 6.125 8.408 12.493 12.571 18.776 1.645 2.524 3.447 4.925 5.2 7.329-5.365 12.488-11.772 24.578-18.776 36.19zM880.105 419.244c4.607-4.842 6.68-11.447 10.244-17.134 5.719-9.247 9.605-19.135 14.531-28.824 3.399-6.647 5.565-12.37-3.162-7.206-3.21 10.369-9.569 18.575-14.814 28.026-4.442 8.004-8.562 16.453-13.811 23.977-3.801 5.407-8.291 10.171-12.411 15.295-2.606 3.242-5.365 6.563-7.721 10.086-0.593-1.043-1.066-2.039-1.645-3.079-1.197-2.566-2.167-5.047-3.849-7.408-4.69-6.685-12.691-11.41-19.415-15.776-5.685-3.759-10.209-8.206-15.294-12.689-7.686-6.765-16.614-12.37-25.023-18.175-10.209-7.086-18.375-16.093-28.465-23.301-4.844-3.443-9.77-6.885-14.371-10.691-5.129-4.241-9.285-9.367-14.413-13.65-13.491-11.25-30.987-15.614-47.64-20.296-6.727-1.923-13.732-2.924-20.258-5.565-3.447-1.404-6.845-3.126-10.292-4.567-10.765-4.641-22.219-8.248-32.788-13.291-4.442-2.161-8.491-4.842-12.851-7.086-3.92-2.001-8.208-3.205-12.329-4.683-7.971-2.804-16.654-4.044-24.902-5.686-9.131-1.842-18.696-1.043-27.904-1.043-5.519 0-11.050 0-16.574 0-13.012 0-26.262-0.876-39.193 0.165-11.050 0.876-22.219 2.402-33.187 3.924-5.887 0.805-11.689 1.964-17.576 2.845-4.288 0.593-8.208 2.402-12.411 3.085-7.805 1.28-15.813 1.679-23.66 2.44-16.815 1.642-33.068 7.329-49.082 12.451-5.4 1.721-11.535 2.804-16.333 5.808-3.162 1.96-5.922 4.604-8.929 6.765-9.605 6.885-20.979 11.368-30.786 17.973-4.879 3.283-8.895 7.45-13.573 10.971-4.086 3.042-8.171 5.645-12.411 8.486-8.006 5.327-15.533 11.172-23.941 15.813-10.848 5.967-21.539 12.814-30.465 21.421-5.803 5.523-10.209 11.891-15.133 18.137-4.205 5.323-9.285 9.886-12.451 15.972-5.602 10.729-12.131 20.777-17.775 31.465-1.184-1.959-2.321-3.924-3.529-5.845-11.133-17.652-20.218-36.35-30.947-54.205-2.404-3.924-4.524-7.968-6.406-12.208-1.363-3.045-3.481-6.087-4.359-9.331-0.829-2.723-0.356-5.924-2.155-8.368-1.682 4.767 1.363 12.613 2.037 17.217 0.829 5.883 0.947 11.726 2.44 17.493 1.48 5.765 2.961 11.488 4.359 17.213 4.359 17.577 10.007 34.51 17.255 51.084 2.001 4.604 4.24 9.009 6.56 13.333-1.066 2.723-2.001 5.523-2.961 8.407-3.198 9.53-6.241 19.257-8.444 29.108-1.799 8.206-4.725 15.972-6.727 24.141-2.037 8.205-4.405 16.252-7.011 24.178 1.563-3.199 3.162-6.405 4.844-9.488 4.761-8.729 10.765-16.532 14.932-25.582 4.205-9.125 8.929-17.372 14.292-25.821 0.829-1.203 1.48-2.444 2.204-3.685 1.197 2.804 2.44 5.607 3.837 8.368 1.209 2.36 2.76 4.282 4.205 6.447 3.399 5.122 5.365 10.845 8.291 16.21 3.92 7.17 8.006 14.214 11.891 21.421 7.213 13.333 15.575 26.020 24.381 38.353 2.357 3.28 5.046 6.205 7.686 9.247 3.801 4.282 6.965 9.050 10.529 13.532 6.206 7.808 15.053 14.494 23.699 19.299 15.974 8.925 32.067 17.414 49.283 23.697 7.011 2.566 14.252 3.924 21.059 6.968 8.325 3.643 17.014 6.125 24.821 10.767 11.085 6.647 23.58 12.773 36.031 16.537 3.849 1.16 7.84 1.801 11.772 2.762 3.92 0.959 7.686 2.519 11.606 3.521 9.285 2.36 18.896 1.126 28.265 3.323 10.090 2.322 20.056 1.282 30.305 1.842 9.083 0.485 18.136 2.644 27.143 3.885 5.129 0.687 10.327 1.126 15.414 1.881 4.927 0.758 9.605 2.322 14.533 3.083 4.927 0.758 9.89 0.959 14.852 1.479 9.972 1.078 19.377 1.16 29.305-0.722 14.613-2.841 28.825-7.165 43.318-10.369 13.853-3.042 28.185-6.205 40.795-12.972 4.168-2.239 8.042-4.8 12.331-6.764 3.198-1.479 6.489-2.64 9.131-5.005 2.321-2.039 4.122-4.641 6.206-6.923 4.488-4.847 10.327-7.931 16.093-11.012 7.603-4.082 15.452-7.287 22.701-12.007 5.649-3.722 12.251-6.205 18.136-9.569 4.879-2.804 10.493-5.407 15.133-8.527 4.809-3.283 9.131-8.409 13.251-12.493 2.64-2.64 5.565-4.683 7.686-7.808 2.606-3.84 4.051-8.565 6.289-12.689 6.241-11.653 15.412-21.379 21.938-32.868 4.003-7.086 6.609-14.894 10.885-21.86 5.163-8.486 12.010-16.051 16.573-24.863 1.799-3.48 2.357-6.443 3.281-10.128 2.404-9.726 7.805-16.495 12.811-24.743 0.237 0.379 0.473 0.722 0.71 1.078 10.765 15.292 19.858 31.068 28.225 47.843 3.198 6.447 5.448 13.37 8.812 19.817 0.829 1.601 1.397 2.762 1.765 4.483 0.237 0.085 0.593 0.131 0.829 0.214l7.971 24.942c0.473 0.439 0.947 0.959 1.48 1.561-1.197-3.924-2.606-7.729-3.849-11.653-1.799-5.686-2.677-11.488-4.442-17.213-1.717-5.645-2.321-11.452-3.327-17.297-1.066-6.246-3.364-11.010-6.004-16.733-4.725-10.291-6.881-21.258-11.085-31.669-3.849-9.526-6.124-19.574-10.007-29.025 1.28-2.64 2.486-5.365 3.364-8.248 3.364-11.528 7.165-23.017 15.655-31.986z"></path>
    <path fill="#000000" d="M681.929 513.642c-2.238-7.206-3.801-14.693-5.85-21.981-2.486-8.967-6.68-17.092-10.244-25.698-3.079-7.287-7.047-15.015-8.242-22.862-0.829-5.565-2.167-10.929-4.205-16.174-1.919-4.842-3.766-9.61-6.489-14.050-3.837-6.405-8.242-12.37-11.654-19.019-4.524-8.928-10.493-17.535-18.095-24.060-3.885-3.323-7.247-6.965-11.654-9.726-4.927-3.083-10.409-7.408-15.813-9.367-26.543-9.689-55.368-15.334-83.752-15.253-7.686 0-15.294-0.331-22.899 0.758-10.409 1.52-19.537 5.645-29.706 8.127-9.166 2.281-19.417 1.642-28.145 5.723-7.532 3.563-15.573 7.808-22.259 12.773-12.050 8.928-25.902 17.413-34.71 29.747-4.725 6.604-10.055 13.691-13.811 20.895-1.967 3.763-2.677 7.65-3.885 11.732-2.238 7.525-5.519 14.693-8.042 22.098-4.039 11.933-6.609 23.822-6.609 36.394 0.039 5.444-0.237 10.929-0.079 16.331 0.119 4.086 1.682 7.889 2.121 11.933 0.593 5.323 0.356 10.285 1.28 15.614 3.364 18.935 7.047 37.589 13.853 55.604 2.877 7.487 8.729 14.774 13.692 21.062 5.009 6.284 10.209 12.731 16.175 18.175 2.238 2.080 4.168 3.205 6.643 4.805 3.518 2.239 6.124 5.682 9.807 7.646 4.927 2.603 9.569 6.246 15.054 7.609 8.764 2.239 18.375 2.64 27.344 3.96 2.155 0.379 4.322 0.556 6.526 0.841 2.357 0.296 5.483 1.842 7.84 1.043-0.947-3.843-9.368-9.091-12.211-11.010-5.448-3.727-11.050-6.647-16.215-10.772-5.081-4.003-10.173-7.567-14.732-12.171-3.885-3.924-7.521-7.967-11.085-12.171-3.683-4.245-6.609-9.288-8.764-14.452-0.829-2.084-1.799-4.123-2.807-6.167-1.563-3.12-2.084-6.563-3.601-9.726-2.558-5.285-5.649-9.968-7.721-15.533-1.066-2.961-2.001-6.008-3.399-8.891-1.717-3.561-3.801-6.563-4.844-10.445-0.71-2.682-1.765-4.245-3.079-6.61-1.397-2.44-2.357-5.043-3.718-7.567-3.968-7.445-5.649-14.172-7.082-22.535-2.001-11.732-6.241-27.304-0.593-38.596 4.844-9.807 10.090-19.373 13.692-29.823 3.447-10.047 5.719-20.819 12.811-29.108 8.491-9.848 22.259-19.014 34.75-23.1 4.288-1.4 8.408-3 12.61-4.52 9.569-3.405 20.336-2.001 30.146-4.805 5.365-1.561 10.765-2.804 16.215-4.245 8.491-2.202 17.335-5.323 26.021-6.604 6.928-1.006 13.853-1.363 20.858-1.363 4.69 0.042 9.012-0.296 13.412 1.561 3.481 1.479 6.68 3.881 10.090 5.565 3.481 1.721 7.011 3.401 10.409 5.285 6.643 3.722 13.172 7.367 20.258 10.086 6.206 2.365 11.931 3.283 16.934 8.047 6.241 5.929 11.333 12.613 16.975 19.061 4.086 4.683 8.242 8.565 11.535 13.929 2.321 3.806 4.205 7.729 6.762 11.374 3.518 5.043 6.17 9.968 7.567 16.093 1.326 5.603 3.079 10.887 4.809 16.412 1.184 3.843 2.404 7.688 3.399 11.572 1.528 5.761 1.883 11.69 3.364 17.413 1.528 6.003 3.008 12.007 4.288 18.095 1.066 5.285 2.64 10.249 2.606 15.655-0.077 5.122-0.356 10.285 0.119 15.449 0.71 8.49 3.079 16.737 4.442 25.101 1.48 8.771 2.238 18.776 2.204 27.746-0.040 7.525-0.473 14.050-2.961 21.217-1.967 5.607-5.009 10.729-6.881 16.377-2.286 6.965-7.532 10.128-11.737 15.692-0.237 0.296-0.473 0.593-0.71 0.876 2.204-2.164 4.288-4.403 6.406-6.569 3.044-3.12 6.36-5.883 8.929-9.446 2.606-3.563 5.519-6.968 8.088-10.529 3.127-4.403 5.2-9.408 7.651-14.175 6.206-11.886 9.403-24.141 12.691-37.15 2.404-9.488 1.919-19.177 2.877-28.824 0.473-4.403 0.947-8.771 0.473-13.173-0.71-6.162-3.601-11.406-5.4-17.213z"></path>
    <path fill="#000000" d="M669.261 276.479c2.001-14.092 7.047-15.692 10.409-19.457 4.37-4.884 8.883-9.41 13.052-14.494 3.529-4.32 7.284-10.047 11.737-13.49 2.723-2.080 3.447-2.202 3.364-5.845-0.237-11.728 0-23.459 0-35.149 0-6.727-0.593-13.571 0.237-20.259 0.593-4.562 1.48-9.046 0.71-13.691-0.473-2.639-0.829-5.122-0.947-7.884-0.356-12.132 0.237-24.34 0.041-36.511-0.041-3.205 0.356-3.364 3.564-3.325 5.329 0.131 10.647 0 16.014 0 19.617 0 39.233 0 58.849 0 4.879 0 9.89 0.331 14.774 0.084 2.76-0.165 5.283-1.126 8.042-1.24 3.044-0.214 9.368 1.404 11.808-0.722-1.066-1.126-0.593-2.322-0.71-3.685-0.237-2.080-0.829-3.801-1.197-5.845-0.71-4.562-1.48-9.125-2.76-13.649-0.829-3.126-2.204-6.246-2.677-9.451-0.237-1.479 0.356-3.84-0.041-5.243-1.48-5.122-13.491-1.28-17.094-0.639-6.289 1.198-13.17 2.804-19.577 3.042-9.486 0.296-18.616 2.804-28.105 3.323-10.885 0.568-21.699-0.214-32.627 0.876-7.521 0.722-14.854 1.441-22.46 1.404-2.606 0-12.691-1.642-14.253 1.198-0.473 0.959 0.119 6.366 0.119 7.367 0 4.604 0 9.207 0 13.812 0 9.53 0.237 19.056-0.237 28.585-0.71 14.293-4.879 27.864-7.13 41.913-3.766 23.542-10.885 46.362-7.769 70.462 1.682 12.81 4.879 25.582 4.879 38.513z"></path>
    <path fill="#000000" d="M202.341 127.925c6.289 0 12.611-0.131 18.896-0.037 7.201 0.084 13.853 2.483 21.057 2.36 10.577-0.214 20.617 0.639 31.067 1.964 7.971 0.995 15.653 3.48 18.738 11.97 0.829 2.44 0.947 5.043 0.473 7.525-1.066 5.527-3.162 9.848-3.281 15.575-0.473 25.418-0.356 51.401 5.129 76.345 0.593 2.804 1.184 4.445 4.003 5.285 3.162 0.959 6.324 1.4 9.486 2.603 4.524 1.721 8.61 4.241 12.89 6.405 4.879 2.44 9.653 4.044 14.734 6.046 3.718 1.441 10.647 3.323 22.981 4.562-1.836-0.084-1.717-2.202-1.967-3.722-1.066-6.647-1.645-13.411-2.523-20.097-0.947-6.807-2.44-13.532-3.281-20.338-0.593-5.163-0.237-10.45-0.71-15.655-0.593-5.201-0.237-10.45-0.71-15.614-0.356-5.122-1.066-10.086-1.066-15.253 0.119-12.287-1.184-24.421-1.066-36.708 0-5.729 0-11.452 0-17.175 0-4.604-0.71-9.61 0.237-14.133 0.829-4.123 0.829-7.725 0.829-12.007 0-2.723 0.829-5.285-1.48-7.007-1.836-1.404-5.685-1.441-7.805-1.483-3.801-0.037-7.13-0.379-10.896-1.078-11.333-2.202-22.98-0.876-34.43-2.039-10.694-1.078-21.778-0.296-32.547-0.248-8.325 0-16.695 0-24.901-1.4-7.082-1.24-14.213-0.722-21.379-1.685-3.92-0.556-8.006-1.28-11.689-2.318-2.961-0.841-4.322 0.248-5.922 2.721-4.288 6.489-4.524 15.935-5.85 23.459-1.184 6.689-4.003 14.133-2.877 21.020 3.92 1.16 9.723 0.165 13.772 0.165z"></path>
    <path fill="#000000" d="M618.827 766.253c-5.483 0.296-10.967-0.041-16.456 0-7.047 0.037-13.73 1.679-20.738 2.161-10.090 0.675-20.298 0.214-30.427 0.214h-108.933c-3.364 0-8.693-0.924-11.971 0.085 2.001 3.924 4.879 7.17 7.484 10.691 4.003 5.485 8.006 11.41 11.287 17.377 1.563 3.28 3.281 6.443 5.163 9.526 2.523 3.405 5.081 6.848 7.603 10.249 3.044 4.604 5.565 9.367 7.567 14.494 4.524 11.368 11.487 21.538 16.374 32.826 4.844 11.209 11.571 21.622 16.774 32.669 1.883 3.966 4.003 7.007 6.56 10.45 2.961 4.007 5.163 8.527 8.125 12.535 2.286 3.079 5.329 5.002 7.686 7.963 3.281 4.245 6.004 8.891 9.77 12.773 2.961 3.085 5.2 6.366 7.45 9.968 2.084 3.364 5.685 5.967 6.965 9.768-0.237-5.243 0.237-10.206-1.066-15.371-1.599-5.645-2.404-11.732-4.488-17.175-2.677-7.007-7.284-13.612-9.249-20.856-1.066-4.286-1.717-8.527-3.447-12.65-1.397-3.283-3.327-6.288-4.524-9.61-2.807-7.688-3.481-15.935-6.406-23.581-2.404-6.246-4.359-12.692-6.004-19.218-1.799-7.324-5.246-15.53-5.719-23.137-0.119-2.644-1.445-5.803-0.947-8.368 1.066-5.723 1.765-10.887 7.33-13.168 13.132-5.247 27.783-5.924 41.276-10.212 8.847-2.804 17.975-4.044 26.862-6.727 5.887-1.758 12.531-3.602 18.576-4.403 2.677-0.379 5.283-0.131 7.852-1.126 4.039-1.601 7.367-2.841 11.851-3.283 3.008-0.331 5.85-0.214 8.764-1.043 1.48-0.414 2.877-1.199 2.121-4.842-4.405 0.037-8.61 0.841-13.012 1.043z"></path>
    <path fill="#000000" d="M469.53 226.584c6.372 0 12.732 0 19.097 0 5.365 0 10.885-0.379 16.213-0.084 4.405 0.296 8.693 1.16 13.132 1.358 7.213 0.296 13.933 2.005 20.938 3.163 3.683 0.604 6.609-0.414 5.602-4.442-4.24-4.847-6.56-11.374-8.693-17.335-3.683-10.369-7.521-20.74-11.168-31.147-5.565-15.977-11.050-32.467-14.413-49.083-3.683 0.439-6.643 10.971-7.532 13.053-4.607 10.887-9.451 21.458-16.093 31.227-6.443 9.487-11.487 19.938-15.813 30.545-2.001 4.925-3.683 9.931-5.719 14.774-0.947 2.281-3.529 5.323-3.327 7.888 2.404 0.556 5.283 0.084 7.769 0.084z"></path>
    </svg>