<svg xmlns="http://www.w3.org/2000/svg" viewBox="9.371 -80.001 1000.685 1184.382">
    <path fill="#000000" d="M902.793 374.56c-6.629-16.191-13.967-32.114-21.304-47.946-7.872-17.035-14.276-37.671-25.395-52.75-10.41-14.142-20.681-26.951-27.22-43.762-0.933-2.493-1.866-5.028-1.911-7.652-0.285-15.254 23.704-26.507 32.199-36.872 12.052-14.631 15.169-27.306 19.434-45.009 2.404-10.051 3.606-20.681 0.803-30.598-6.136-21.793-19.304-40.828-40.694-48.166-22.017-7.607-47.502-7.741-68.851 1.956-26.153 11.917-37.447 34.379-50.88 58.083 16.232-8.76 30.867-20.367 49.014-26.418 11.119-3.691 24.103-7.427 35.846-6.983 10.051 0.367 20.551 4.673 25.664 13.298 3.202 5.382 4.001 11.832 4.315 18.057 1.332 25.44-6.315 42.698-24.152 59.778-14.765 14.142-31.755 32.468-25.261 54.705 1.243 4.225 3.292 8.226 5.337 12.186 13.474 32.024 33.621 60.931 46.431 93.354 15.657 39.586 30.333 80.28 34.693 122.889 4.494 43.228-3.023 89.483-11.029 131.958-4.005 21.439-13.612 44.21-24.641 63.025-9.118 15.519-22.103 28.773-37.626 37.891-9.917 5.826-20.681 10.006-31.535 13.967-10.939 4.001-22.103 7.782-33.666 8.984-7.207 0.758-14.456 0.534-21.704 0.285-37.007-1.292-73.965-1.87-110.837-5.871-6.45-0.448-12.895-0.892-19.345-1.336-15.169-1.067-42.254-1.646-43.008-23.040-0.244-5.513 0.407-11.159 0.579-16.676 0.326-8.23 0.978-16.546 0.888-24.772-0.122-12.854-0.285-25.709-0.367-38.518-0.163-20.237-3.646-40.784-4.893-60.886-1.512-24.641-3.247-49.323-4.893-73.965-2.489-37.94-1.866-75.92-1.247-113.86 0.326-17.654 2.005-35.67-1.332-53.059-5.517-28.907-3.736-59.33-3.512-89.129 0.367-48.57-13.567-95.224-17.079-143.39-1.202-16.501-2.314-31.087-7.427-46.744-2.982-9.163-5.961-18.367-8.984-27.575 0 0-2.18 43.766-2.225 45.453-0.847 16.77-6.494 31.091-5.427 47.901 1.112 18.147-0.081 36.428-1.736 54.526-1.776 19.349-4.046 38.742-3.826 58.222 0.579 46.475 6.983 92.466 0.668 139.475-4.759 35.361-1.691 72.852-1.601 108.657 0.041 36.424 1.691 72.807 1.87 109.232l1.911 43.497c0 0-0.081 43.497-0.081 43.497-3.467 28.553-2.933 54.441-36.913 61.245-14.68 2.933-29.71 1.202-44.475 2.624-17.035 1.646-33.625 6.36-50.525 8.805-38.698 5.696-82.15 2.538-113.192-19.434-15.833-11.164-35.581-27.844-48.211-42.519-8.051-9.338-13.967-33.136-17.792-44.654 0 0-12.854-39.048-13.478-40.963-11.697-35.401-10.984-84.725-5.602-120.485 4.27-28.373 11.742-50.66 18.901-78.454 3.606-13.967 15.034-34.782 21.26-47.812 5.292-11.074 13.832-21.349 20.282-31.845 14.142-23.13 35.181-44.878 31.091-73.476-2.090-14.5-9.518-24.552-18.994-36.424-8.271-10.365-21.749-16.59-27.44-29.131-13.433-29.754-5.028-67.694 31.311-72.009 15.478-1.866 35.67 0.081 47.502 11.432 0 0 29.53 28.239 30.199 28.732-6.718-5.117-4.494-16.77-9.387-23.663-20.323-28.418-26.462-38.205-59.639-45.367-19.748-4.225-51.458 6.853-65.38 20.282-12.276 11.877-20.95 27.53-24.108 44.3-5.382 29.041 6.095 51.279 22.906 73.516l23.704 26.552-4.49 23.395c0 0-24.063 42.923-24.063 42.967-9.163 16.277-21.17 35.401-29.71 52.611-9.163 18.371-21.125 48.305-25.529 68.228-17.613 79.347-12.72 137.919 2.803 217.265 3.382 17.434 9.872 33.845 18.945 49.144 11.832 19.838 24.596 39.142 38.783 57.419 14.191 18.326 35.626 22.462 55.728 33.36 23.219 12.63 51.772 22.013 77.521 20.811 23.663-1.112 38.738-1.467 62.267 0.326 23.439 1.776 44.878-0.407 67.869-4.494l13.567 9.962-5.427 7.387-4.001 58.841-5.651 41.452-3.736 41.806-2 41.851c0 0 4.893 15.568 4.893 15.568 1.691 5.113 16.676 8.051 21.036 9.562 26.642 9.118 55.508 15.209 84.15 14.81 14.631-0.244 29.31-2 43.452-5.692 12.899-3.337 20.237-12.455 28.952-21.973l-3.023-43.143-7.517-42.34-6.27-42.43-0.534-43.098-3.691-32.822-6.36-4.225 15.743-5.382 51.104 3.826 51.548 0.367 42.295-1.112 35.67-4.27 2.314-0.444 40.075-16.146 36.334-26.373 29.31-34.024c0 0 18.412-36.159 18.546-36.379 16.102-31.535 22.372-58.93 23.973-94.556 0-35.805 4.404-70.897 1.646-106.567-1.247-16.322-4.494-32.468-8.939-48.211-4.27-15.12-9.652-29.844-15.568-44.385z"></path>
    </svg>