<svg xmlns="http://www.w3.org/2000/svg" viewBox="17.679 15.997 1006.571 992.009">
    <path fill="#000000" d="M842.118 440.058l-7.183-5.051-15.656-9.886-14.433 15.295-15.333 13.748-12.085-6.494-11.762-4.726-14.359 0.47-1.622-21-9.271-17.57-16.561-4.511-17.318 2.022-9.993 17.136-5.952 19.556-19.481 0.434-17.93 6.855-1.047-1.372-11.039-16.813-16.197-11.256-6.855 2.815-9.31 0.397-16.162 7.898 2.995 20.385-0.651 20.167-15.763 10.715-5.415 3.102c1.409 4.365 3.754 8.371 6.169 12.305 5.88 4.076 12.267 7.79 15.080 14.647 0.687 1.732 0.939 3.426 0.975 5.123 0.722 1.334 1.409 2.668 1.874 4.148 0.332 1.011 0.199 1.983-0.265 2.814 1.445 1.267 2.885 2.597 4.294 3.933 1.48 1.192 2.885 2.455 4.33 3.718l3.536-3.284 16.197-8.765 15.44-10.355 18.005-4.511 18.076-2.921 18.001-2.743 18.289-2.49 18.798 2.707-5.883 18.147-5.624 16.813c16.919-2.309 34.021-2.958 51.122-1.84 4.653-2.49 9.271-5.482 13.853-8.769 9.776-7.972 19.338-16.233 29.076-24.278 0.47-0.397 0.939-0.616 1.409-0.723 0.297-0.359 0.616-0.683 1.081-0.935 2.309-1.121 4.583-2.202 6.785-3.536 1.227-0.687 2.451-0.616 3.501-0.133 3.497-2.274 7.033-4.544 10.498-6.891 2.597-2.274 5.269-4.476 7.937-6.673l2.344-14.035 0.231-19.698-6.745-4.077z"></path>
    <path fill="#000000" d="M569.419 801.622c-3.355-2.347-5.81-5.519-8.444-8.805-3.067-3.824-7.069-6.637-10.605-9.991-0.359 0-0.683-0.033-1.047 0-7.069-5.956-14.141-11.872-21.174-17.859l-0.47 0.651-11.762-11.402-9.562-15.728-9.524-12.701c-6.168 0.829-12.483 1.153-18.545 1.697-12.014 1.011-20.093 2.165-29.801 10.573-2.234 1.983-4.362 4.184-6.527 6.386l0.297 1.153 11.58 15.945-12.953 16.091-9.417 18.181 12.337 12.736 4.365 7.538 5.376 7.037 19.446-4.908 18.613-7.392 14.684 11.978 15.841 10.317 0.033 1.91-3.788 19.52-1.91 20.026 7.105 6.13 9.31 0.865 15.477 9.023 14.358-14.433 11.043-9.417c-1.227-9.164-2.455-18.329-2.597-27.564-0.033-2.958 0.098-5.916 0.297-8.841-0.505-6.421-0.903-12.807-1.117-19.156-0.231-2.202-0.297-4.401-0.397-6.639-0.231-0.505-0.505-0.975-0.761-1.476 0.133-0.47 0.164-0.975 0.265-1.445z"></path>
    <path fill="#000000" d="M803.082 764.561c-8.837 0.683-17.424 2.202-25.074 5.265-3.137-0.199-6.312-0.466-9.452-0.576-0.231 0.265-0.47 0.47-0.722 0.683-0.133 0.939-0.647 1.878-1.658 2.526-1.121 0.723-2.202 1.409-3.355 2.022-0.651 0.359-1.299 0.434-1.914 0.397-0.47 0.359-0.939 0.722-1.372 1.081-1.19 1.047-2.344 2.165-3.536 3.177l11.62 12.302 13.202 12.665-13.098 9.848-17.026 7.037-16.415 8.73-18.363 2.633-18.293 1.047-18.183 0.865-18.471 0.616-18.399-4.621 7.72-17.46 7.794-17.208 8.873-16.738 7.073-17.571 7.467-17.46 12.16-9.706 6.639 1.334 14.141 2.128 11.58 13.711c17.713 4.184 35.753 7.392 53.936 8.801 7.866 0.616 15.692 0.47 23.448 1.153-0.164 1.085-0.297 2.202-0.332 3.322zM660.679 658.062c0.722-5.123 3.86-9.055 8.296-11.726l1.085-1.551 3.642-0.651c3.102-1.081 6.532-1.658 9.958-1.768l6.962-1.263 2.274 2.128c6.639 1.591 12.409 5.269 15.009 11.114 1.768 1.801 3.248 3.966 4.33 6.527 4.077 9.851-0.332 21.648-9.704 26.66-1.192 0.651-2.529 1.085-3.896 1.516l-1.157 1.622-2.526 0.359c-2.056 1.047-4.294 1.804-6.709 2.060-2.274 0.265-4.44 0.231-6.494-0.066l-4.365 0.683-4.44-3.678c-2.128-1.192-4.076-2.707-5.734-4.476-1.047-0.793-1.95-1.622-2.779-2.526l-2.451-2.056-0.434-2.238c-1.48-3.102-2.060-6.639-1.95-10.355l-1.334-6.927 2.419-3.39zM907.522 685.154l18.617-7.794 17.46-8.513 0.651-17.030-2.633-17.101-18.617-5.592-20.349-4.941-2.633-19.88-7.574-17.934 15.295-13.853 11.22-16.413-7.215-15.803-3.355-8.262-5.269-8.080-20.673 5.087-19.592 2.347-13.782-12.771-2.128-2.707c-6.891 1.44-13.782 2.849-20.527 4.582-0.865-0.829-2.849-0.683-6.532 1.047-0.829 0.397-1.658 0.829-2.49 1.227-8.873 2.49-17.39 6.532-25.867 10.897-11.434 5.952-22.587 12.227-33.443 19.013 4.941 16.27 4.763 33.369 7.574 50.254 0.231 0.133 0.434 0.199 0.616 0.397 2.165 1.946 4.726 3.39 7.43 4.582 2.165 0.616 4.258 1.372 6.351 2.165l13.564-12.878 13.782-13.024 12.665-13.202 9.848 13.098 7.037 17.026 8.73 16.379 2.633 18.399 1.047 18.293 0.865 18.183 0.647 18.471-4.653 18.399-17.46-7.72-17.208-7.794-16.742-8.873-17.57-7.108-17.424-7.43-9.744-12.16 1.334-6.639 2.128-14.141 11.438-9.634c-2.022-6.275-4.547-12.483-5.557-16.557-4.621-18.471-2.997-37.809-8.444-55.85-1.697-0.033-3.39-0.066-5.123-0.066-0.793 0-1.445-0.265-1.983-0.616-0.066-0.033-0.133-0.033-0.231-0.033-0.434-0.033-0.793-0.133-1.117-0.297-8.407 0.164-16.884-1.085-25.22-1.299-4.869-0.098-9.594-0.098-14.323-0.231l-2.198 4.188-7.073 17.57-7.432 17.424-12.191 9.706-6.639-1.299-14.141-2.128-12.267-14.575-14.827-11.798-14.505-15.262c-2.344 1.157-4.799 2.202-7.215 3.248-1.515-1.153-3.209-1.986-5.159-2.309-10.499-1.551-26.878 4.365-37.304 6.026-0.616 0.098-1.372 0.434-2.274 0.903-2.885 0.265-5.81 0.616-8.769 1.085-0.066 0-0.199 0.066-0.297 0.066 0.757-1.263 1.515-2.526 2.309-3.788 6.457-10.355 16.162-22.583 27.564-30.595-7.469-3.536-16.237-13.746-17.5-18.794-0.647-2.633 0.231-4.908 0.505-7.361-1.409-2.384-2.743-4.763-4.006-7.215-1.91-2.889-3.86-5.846-5.88-8.695-0.133-0.164-0.164-0.359-0.265-0.541-0.297-0.199-0.541-0.397-0.797-0.612-5.519-4.077-10.641-7.866-13.709-13.818l-18.289-4.945-18.038-8.154-12.413 11.978-12.373 12.736 9.562 18.435 8.477 17.788-11.148 15.009-9.129 16.452-18.183 1.476-19.875 2.020-6.494 16.127-2.060 8.513-3.569 9.706 17.46 11.185 15.803 12.049-0.939 18.94-2.022 18.794-18.435 7.72-14.575 12.519 0.939 16.201 3.426 16.738 18.581 3.751 14.429 3.14c20.203-2.597 40.697-6.279 61.115-7.648l-1.801-7.937-2.633-18.147-2.384-18.038-1.551-13.202c-0.359-0.363-0.757-0.761-1.153-1.121-0.066-0.541-0.231-1.008-0.47-1.44-2.925-4.871-3.824-10.573-6.603-15.514-1.914-3.394-4.476-6.676-7.215-9.634 0.033 0.033 0.066 0 0.133 0.033 0.579 0.133 1.192 0.265 1.804 0.397 0.579-0.231 1.227-0.332 2.020-0.133 3.828 0.793 7.542 1.878 11.256 2.921 0.297 0.363 0.651 0.723 1.192 1.011 8.655 4.981 17.245 8.444 26.912 10.861-0.033 0.098-0.033 0.164-0.066 0.265l15.55 7.073 16.738 8.873 17.571 7.073 17.424 7.432 9.744 12.191-1.334 6.639-2.128 14.141-14.541 12.231-11.796 14.863-27.528 26.085-4.693 4.905c2.309 3.248 5.774 6.855 8.951 10.139 1.983 1.768 3.896 3.607 5.557 5.734 0.098 0.098 0.133 0.265 0.199 0.363 0.297 0.359 0.579 0.683 0.829 1.008 5.883 7.976 14.974 17.318 19.304 26.988 0.466 0.434 0.793 1.045 1.008 1.768 0.616 0.722 1.227 1.405 1.804 2.092-0.939 8.659-1.372 17.245 0.133 25.867 0.033 0.133 0.098 0.231 0.133 0.332-0.397 13.928-2.849 27.814-4.038 41.851l3.355 1.551 12.555 2.633 10.823 5.81 5.051 19.011 3.213 19.844 16.703 5.592 18.147 0.865 8.296-18.794 10.030-18.22 20.093 2.815 18.545-5.052-1.476 2.707 13.853 14.647 12.555 14.866 8.223 0.971 7.29-5.987 17.208-3.501 2.703-19.875-0.939-20.673 17.752-8.262 16.343-10.212 16.596 11.654 18.723 7.756 13.206-11.722 11.22-12.847-5.81-17.819-8.118-18.581 11.148-15.659 11.043-15.295 0.133 0.865 20.131-1.697 20.17 2.451 7.826-15.874 2.165-8.549 3.536-8.659-16.343-12.014-12.878-14.793 2.561-18.399 2.309-19.086z"></path>
    <path fill="#000000" d="M368.579 197.65l-7.83 13.924c8.549 4.726 18.111 7.073 26.554 12.085 0.133 0.066 0.265 0.164 0.359 0.265 0.164 0.033 0.359 0 0.54 0.033 4.945 1.227 9.886 2.526 14.541 4.471l7.862-12.049 11.584-15.692 16.126-10.968 4.945-2.056c0.164-4.799 0.501-9.562 0.971-14.323-0.397-5.123-0.793-10.246-1.008-15.333-3.572-3.933-6.098-8.841-9.129-13.206l-16.197 7.073-1.299 1.551-16.778-11.434-18.143-7.574-15.262 11.58-13.853 14.32 9.055 18.545 6.962 18.798z"></path>
    <path fill="#000000" d="M656.57 343.846l-6.819-7.542c-20.026 1.914-40.047 4.219-60.106 6.098l-2.092 4.294-10.823 15.55-11.903 15.191-16.27 10.427-15.909 6.094-7.144-18.218-3.283-19.663-0.616-14.502c-1.153-1.697-2.165-3.213-2.885-4.148-5.269-6.927-11.508-13.28-16.99-20.133l-7.396 0.975c-0.066 0.133-0.164 0.231-0.297 0.359-0.066-0.033-0.133-0.033-0.231-0.066-0.066 0.297-0.231 0.505-0.297 0.797-5.558-0.297-10.787-0.651-15.732-2.561-4.076-3.682-7.902-7.756-11.654-11.187-0.332-0.829-0.359-1.732-0.066-2.561-1.372-4.436-1.515-9.271-0.793-14.575 0.133-1.19 0.757-2.092 1.554-2.672l6.997-8.296c-5.3-5.664-10.392-11.512-15.258-17.571l-3.177 1.804-8.262 4.547-19.552-5.628-19.988-2.779-20.855 0.164 3.177-7.037c-0.265-0.397-0.47-0.829-0.579-1.372-0.133-0.397-0.231-0.865-0.297-1.299 0.616-1.476 0.683-2.814-0.133-3.824-0.612-0.722-1.153-1.515-1.697-2.308-4.869-2.165-9.776-4.223-14.647-6.39-1.551-0.683-2.020-1.946-1.874-3.209-0.434 0-0.865-0.066-1.334-0.033-5.482-2.597-11.22-4.617-16.671-7.361l-5.806 16.703-20.637 2.815-10.609 0.54-8.873 4.945-3.031 19.338-1.299 19.228 17.101 10.719 19.268 7.361 3.97 20.131 6.637 19.986-15.477 14.903-9.958 17.172 2.672 9.417 6.709 7.542 4.657 8.873 5.952 8.873 21.356-3.39 19.264-8.765 0.098 0.066c5.45-2.703 11.11-4.977 16.813-7.105 4.835-2.743 8.587-8.154 13.348-11.003 2.274-1.372 4.547-2.779 6.781-4.188-0.164-0.541-0.359-1.045-0.54-1.586-0.199-0.359-0.297-0.757-0.397-1.19 0-0.033 0-0.066 0-0.098v0c-0.033-0.332-0.199-0.616-0.133-0.975l-12.878-9.666-10.499-15.767-6.386-15.404 18.111-7.143 19.556-3.284 19.986-0.793 1.334 0.265c0.541-0.434 1.085-0.793 1.622-1.19 2.022 5.81 7.037 10.537 12.701 14.216-0.066 0.033-0.066 0.066-0.098 0.098l0.164 0.397-5.519 19.051-2.707 19.52 0.265 20.345-17.93-8.513-7.612-5.123c-3.896 2.597-7.937 5.087-12.018 7.574-5.159 3.177-8.765 8.154-13.888 11.148-0.033 0.265-0.164 0.505-0.265 0.797-0.505 2.165-0.647 4.365-0.939 6.563-1.369 2.384-2.703 4.726-3.896 7.183-0.033 0.066-0.066 0.098-0.098 0.133l0.033 0.033 1.658 0.793c-0.033 0.434-0.098 0.865-0.098 1.299 0.397 0.066 0.757 0.164 1.19 0.434 0.829 0.505 1.697 0.939 2.561 1.445 0.47-0.098 0.939-0.231 1.263-0.332 0.133-0.066 0.297-0.164 0.434-0.231l11.22 5.486-0.935 1.768-1.516 20.381 2.347 18.329c13.636 2.597 26.912 6.563 40.225 10.533l12.843-12.266 10.030-18.076 20.456 1.405 19.911-4.002-1.658 1.839 13.277 15.622 16.778 11.762 9.055-1.768 9.125-3.824 15.909-10.068 0.231-19.481-1.121-20.057 16.452-12.049 13.853-14.97-0.793-1.48 19.915 4.763 20.349 0.793 9.812-17.172 6.24-17.856-12.014-15.152z"></path>
    <path fill="#000000" d="M683.026 260.476l-5.34-18.001-18.545-4.653-20.167-4.401-6.819-19.516-10.787-16.561 7.432-18.471 5.844-19.051-13.6-13.636-15.152-11.654-18.435 7.898-8.805 4.799-8.225 4.077-18.723-6.713-19.158-6.673-4.653-20.026-6.855-20.021-20.637 0.939-21.032-2.815-10.355 34.49c-1.732 17.39-5.087 34.708-7.866 52.022 16.813-2.308 33.48-2.056 50.473-0.434 10.173 0.939 21.899 1.662 31.712 5.738 0.297 0.066 0.579 0.098 0.865 0.164-0.033 0.066-0.033 0.098-0.033 0.133 2.096 0.939 4.152 1.95 6.026 3.248 0.098 0.066 0.133 0.133 0.231 0.199l7.215 3.031 14.866 13.206 11.941 15.692 8.801 17.39 6.858 15.984-14.359 5.013-15.622 1.117-15.838-1.333-15.44 2.995-5.304-3.177c-7.361 3.213-14.647 6.603-22.043 9.812 8.262 8.444 9.744 25.435 1.011 31.1l-2.165 3.572c5.701 1.874 11.473 3.642 17.354 4.835 4.507 0.935 9.452 0.793 13.888 1.983 6.39 1.732 7.144 7.502 8.587 12.989 7.183-1.445 16.884 0.757 22.043 1.476 11.256 1.554 23.092 1.554 34.526 3.067 3.647-0.939 6.927-2.707 8.623-5.952 1.372-2.672 2.921-5.88 3.933-9.164 0.265-3.678 0.541-7.43 0.541-11.148 0-0.793 0.265-1.334 0.576-1.84 0.231 0.761 0.505 1.516 0.651 2.238 1.622 6.927 2.128 14.721 6.927 20.097 0.297 2.202 0.541 4.362 0.647 6.563 2.384-0.133 4.763-0.265 7.144-0.359 0 0 0.033-0.033 0.033-0.033 2.020-1.946 4.148-3.714 6.386-5.3 1.008-0.865 2.128-1.626 3.14-2.491l0.829-3.569 3.067-19.481 19.011-7.542 15.408-13.166 2.739-9.093-3.355-9.634z"></path>
    <path fill="#000000" d="M517.497 206.416l-0.098-8.080c-6.457-1.334-13.924-5.411-18.218-7.001-0.975-0.359-1.658-1.045-2.060-1.839-4.184 0.098-8.405 0.297-12.589 0.47-1.121 0.033-1.95-0.359-2.561-0.975-13.135 3.608-25.689 8.154-37.739 14.359l7.648 10.751 8.407 18.976 4.726 15.333c2.995-0.683 6.098-1.011 8.805-1.153 0.265 0 0.54 0 0.829 0 1.117 2.921 2.202 5.844 3.465 8.659 1.045 2.269 2.776 3.426 4.905 4.362-0.066 0.133-0.066 0.332-0.164 0.47 2.49 1.591 4.869 3.284 6.997 5.233 0.797 0.616 1.516 1.263 2.274 1.878l14.105-7.144 0.939 0.541c6.386-5.844 12.916-11.508 19.52-17.101l-2.451-6.819-1.84-15.622-4.871-15.298z"></path>
    <path fill="#000000" d="M267.262 503.682c-0.332 0.164-0.579 0.359-0.829 0.505-0.297 0.164-0.616 0.397-0.939 0.579-1.299 0.793-2.779 2.020-4.042 3.426-2.921 0.935-5.88 1.732-9.018 2.269-2.49 0.133-4.977 0.133-7.467 0.033-4.945-3.426-9.129-8.296-10.609-12.049-1.804-4.582-2.344-11.69-1.081-18.147 2.344-1.801 5.051-4.33 6.13-6.745 8.012-2.415 20.495 0.397 25.654 4.184 3.177 2.384 5.051 5.34 6.026 8.695-0.332 5.194-2.020 11.58-3.824 17.245zM393.174 437.081l-7.432-18.365-20.026 1.227-19.588-0.757-15.009-12.123-13.312-15.258-2.274 1.515 4.038-19.949-4.544-19.52-17.642-8.262-10.139-1.48-5.265-2.739c-1.95-0.231-3.896-0.505-5.846-0.903l-11.292 16.379-10.715 15.945c0.723 0.579 1.299 1.409 1.263 2.707-0.033 1.227-0.033 2.451-0.066 3.642 0.066 0.231 0.098 0.47 0.164 0.687 0.133 0.647 0.098 1.227-0.033 1.764 0.231 1.192 0.359 2.384 0.579 3.572 2.38 0.47 4.33 1.516 6.819 2.238 0.231 0.066 0.47 0.133 0.722 0.164 5.233 6.457 12.341 10.857 19.304 15.55 1.622 1.117 3.173 2.344 4.689 3.607-9.886-2.526-19.806-6.745-29.983-7.361 0.033 0.397 0.098 0.757 0.098 1.157 0.066 0.297 0.231 0.612 0.297 0.899 0.761 4.077 0.098 6.457-1.263 10.427-2.958 8.481-5.628 17.136-8.659 25.579l-0.033 3.465-9.089 5.916-15.732 12.483-12.843 14.539-2.49 20.061 0.133 1.081c-0.098 0.723-0.332 1.334-0.434 2.092-0.722 6.315 0.332 11.33 2.561 15.334l0.265 2.202 1.263 10.135-8.444 11.33-5.88 13.636-13.131-12.771-7.396-15.080-5.051-16.055-0.297-16.813 4.763-15.909 2.597-13.527c-2.202-4.763-4.006-9.67-5.123-14.757-9.38-2.165-18.727-4.294-27.852-7.25l-4.981 12.985-19.844 2.853-20.781 5.592-2.198 10.569-0.363 10.392 0.541 20.421 18.94 7.037 18.038 9.053 6.098 18.475 7.183 18.759 1.658-0.939-11.148 17.282-5.127 19.158 13.891 13.995 5.194 9.598 9.634 6.855 19.193-9.886 16.237-11.402 18.545 5.883 5.087 1.804c4.002-11.402 10.893-22.117 16.379-32.434 3.86-7.287 7.396-18.688 13.709-24.46 0.975-1.662 2.092-3.14 3.426-4.511v-1.334l9.093-5.916 15.728-12.483 12.843-14.539 2.491-20.097-2.526-20.709-1.267-10.1 8.444-11.33 5.88-13.636 13.135 12.771 7.396 15.080 5.051 16.055 0.265 15.191c9.816 0.397 19.592 2.739 29.549 2.526 2.128-0.033 4.219-0.098 6.312-0.098l0.505-14.397 1.19-0.133 17.39-10.537 12.843-15.404-6.312-18.435z"></path>
    <path fill="#000000" d="M245.365 393.386c-2.995-4.258-6.457-8.080-9.848-11.941-2.779-2.743-5.127-5.956-7.254-9.2l-16.197 4.042-15.368-14.359-16.127-11.11-16.959 9.342-18.076 11.11 4.259 20.819 7.105 18.617-10.499 14.465c8.769 2.815 17.752 4.871 26.77 6.927 1.516-0.612 3.248-0.434 4.115 0.939 3.137 0.722 6.24 1.445 9.342 2.202l0.359-0.579 13.672-11.762 15.048-10.028 17.965-2.165 11.362-1.95c1.047-5.269 1.445-10.533 0.332-15.368z"></path>
    <path fill="#000000" d="M391.773 546.366l-12.843-15.728 0.47-2.853c-1.157-0.793-1.804-1.91-2.056-3.283-3.394-1.227-6.639-2.779-9.524-4.945-0.363-0.297-0.651-0.54-1.011-0.793 0.033-0.066 0.066-0.164 0.098-0.265 0.133-0.505 0.231-1.011 0.332-1.516 0 0-0.033 0-0.033-0.033-0.033-0.066-0.098-0.359-0.164-0.683l-1.229-1.515c-0.434-0.579-0.612-1.121-0.722-1.662-0.098-0.033-0.133-0.098-0.199-0.133-0.651-0.397-1.011-1.047-1.229-1.732-5.337-1.192-10.498-3.031-15.802-4.219-0.757 0.164-1.445 0.265-2.202 0.466-1.081 0.363-2.672 1.157-4.184 2.238 0.231 4.511-0.066 10.175-2.672 12.953l-3.39 10.463-11.654 13.891-15.045 10.028-16.166 8.083-18.076-0.066-2.921 0.133c-3.39 1.516-6.781 3.102-10.135 4.693-0.651 0.297-1.263 0.332-1.84 0.297-0.616 0.297-1.227 0.612-1.84 0.939-1.946 3.426-4.038 6.819-6.275 10.028-4.981 7.29-10.212 14.505-15.514 21.648l1.081 0.541 7.432 18.22 5.557 20.996 21.936-2.165 10.463 2.885 8.731-4.507 6.927-18.798 6.637-18.471 17.318-8.587 17.063-9.271 18.545 6.745 20.385 8.442 14.611-16.449 8.477-18.507-9.306-17.5z"></path>
    </svg>