<svg xmlns="http://www.w3.org/2000/svg" viewBox="-18.380 -18.016 1034.178 1059.239">
    <path fill="#000000" d="M523.266 760.049c13.116-3.521 26.272-6.718 39.829-8.678 28.593-4.158 57.544-5.359 86.375-3.799 30.951 1.642 61.901 6.32 92.493 11.238 0.8 0.11 1.56 0.293 2.359 0.44 15.876 0.759 31.791 1.117 47.867 0.561 0.202-0.147 0.399-0.293 0.639-0.443 2.079-1.359 4.798-3.875 4.959-5.397 0.358-0.919 0.12-1.722-1.040-2.040-37.51-10.395-80.217-16.555-120.447-18.393-24.913-6.798-51.545-10.077-76.459-14.517-0.040 0-0.040 0-0.080 0-0.282 0.257-0.52 0.48-0.88 0.641-14.516 7.597-31.55 10.155-47.787 7.997-3.24 0.183-6.478 0.329-9.678 0.561-2.279-0.074-4.599-0.183-6.879-0.293-8.078-1.479-16.155-2.839-24.312-3.839-20.274-2.556-40.628-4.516-60.983-6.316-14.357-1.241-32.031 0.11-45.548-5.081-0.161-0.074-0.238-0.147-0.399-0.257-25.273-2.763-50.505-9.198-74.698-15.518-0.242-0.329-0.679-0.601-1.439-0.679-0.679-0.074-1.36-0.147-2.079-0.257-1.88-0.48-3.759-0.959-5.638-1.439-1.799 0.074-3.599 0.147-5.397 0.257-21.075-2.282-42.189-4.162-63.301-5.561 0.040-0.147 0.040-0.329-0.161-0.367-42.268-6.36-86.776-5.319-130.683-1.201-19.754 4.6-38.229 13.118-20.515 25.035 2.759 1.84 5.719 3.399 8.798 4.798 4.199 0.681 8.157 1.359 11.077 2.6 2.319 0.997 4.36 2.037 6.279 3.037 3.039 0.681 6.158 1.161 9.277 1.682 37.549-2.318 73.779 4.838 110.248 14.075 22.474 5.677 51.865 8.638 75.179 18.555 65.902 17.634 134.281 16.317 200.782 2.44 0.8-0.147 1.561-0.074 2.239 0.11z"></path>
    <path fill="#000000" d="M275.968 768.423c-11.877-6.077-28.553-10.8-30.911-11.476-12.717-3.521-25.514-6.996-38.508-9.517-9.078-1.722-18.115-2.879-27.193-3.601-4.518 0.403-9.037 0.883-13.557 1.241-19.594 1.519-39.19 3.037-58.823 4.238-0.52 0.48-1.159 0.919-1.68 1.399-3.639 3.561-11.637 11.198-9.997 17.356 0.202 0.596 0.8 1.517 1.719 2.597-6.319 3.399-12.316 7.517-17.235 12.756-6.839 7.319-15.115 19.438-3.879 26.474 6.359 4 19.314 3.157 26.593 3.88 7.199 0.719 14.436 1.197 21.674 1.479 0.48 0.11 0.959 0.293 1.479 0.399 2.639 0.48 5.239 0.759 7.837 0.919 21.474-2.118 43.227-6.158 63.983-9.037 9.078-1.239 18.194-2.678 27.312-4.198 0.278 0.036 0.599 0.074 0.919 0.11 1.080-0.147 2.16-0.329 3.24-0.52 8.717-1.682 17.436-3.601 25.753-6.678 5.479-1.92 10.717-4.36 15.675-7.279 3.279-2.879 6.279-6.238 8.078-9.639 0.278-0.879 0.48-1.758 0.599-2.6-0.879-2.839-1.919-5.597-3.079-8.315z"></path>
    <path fill="#000000" d="M572.507 915.305c-2.239-0.367-3.359-2.4-3.359-4.436-1.719-0.257-3.399-0.44-5.118-0.681-13.716-0.601-28.112-0.839-41.389-4.838-30.671-2.879-61.342-3.517-92.374 2-26.033 4.598-50.986 13.276-77.217 16.835-7.998 1.081-15.915 1.637-23.633 4.038-4.919 1.519-13.037 6.52-15.596 5.839 0 0 0 0 0 0 0.399 0.183 0.76 0.329 1.12 0.48 0.959 0.399 1.56 1.001 1.959 1.682 26.272 5.117 53.905 7.835 80.536 5.835 21.273 1.363 42.588 2.839 63.903 3.92 38.229-7.875 74.539-22.555 112.129-30.552-0.318-0.036-0.639-0.074-0.959-0.11z"></path>
    <path fill="#000000" d="M743.472 938.158c-1.159-0.879-2.279-1.642-3.438-2.318 0.278 0 0.56-0.036 0.8-0.036-0.919-0.367-1.84-0.759-2.799-1.121-4.919-2.718-9.797-4.158-14.996-5.355-8.757-3.001-17.675-5.719-26.633-8.117-10.956-4.682-21.473-10.279-33.671-12.319-26.353-4.436-54.584 2.080-79.097 12.916-9.398 1.642-18.714 4.081-28.152 7.597-9.557 3.561-19.155 7.041-28.833 10.279-2.359 0.44-4.679 0.879-6.998 1.279-1.159 0.183-2.72 1.161-4.399 2.44-4.36 1.359-8.717 2.678-13.076 3.88 2.879 0.036 5.759 0.147 8.637 0.147-5.078 5.397-8.838 12.075-2.68 11.476 29.591-2.681 59.184-5.561 88.735-8.598 11.357 0.329 22.834 1.157 34.711 2.758 30.431 4.038 60.304 8.157 91.054 6.598 4.919-0.293 28.632-15.554 20.834-21.514z"></path>
    <path fill="#000000" d="M815.075 919.384c-0.080-0.036-0.161-0.036-0.242-0.074-5.559-2-11.117-3.799-16.676-5.677-8.957-1.92-17.996-3.637-26.993-5.359-0.318-1.121-1.159-1.92-2.799-2.198-34.51-5.719-66.861-20.797-101.331-27.753-2.599-0.52-5.199-0.959-7.798-1.399-20.515-2.56-41.109-4.48-61.782-5.159-6.118-0.257-20.795-1.121-36.43-0.681-0.161-0.52-0.56-0.919-1.6-0.959-17.996-0.959-34.191 0-51.706 4.598-3.359 0.883-17.955 11.917-10.956 15.396 9.118 4.48 22.633 3.92 32.711 4.278 4.36 0.147 8.637 0.293 12.796 0.183 13.837 0.879 27.632 1.758 41.468 2.238 2.12 0.036 4.919 0 8.038 0 0.56-0.183 1.119-0.367 1.799-0.367 25.353 0.601 50.666 3.517 75.538 8.436 25.073 4.6 50.827 12.397 74.619 21.874 1.68 0.681 3.359 1.363 5.038 2.040 3.28 1.319 6.478 2.718 9.638 4.081 18.395-1.682 36.71-3.799 54.865-6.92 0-0.11-0.040-0.219 0-0.367 0.040-0.293 0.080-0.601 0.12-0.879-0.12-0.48-0.12-1.041 0.040-1.602l0.441-1.84c0.242-0.879 0.721-1.479 1.28-1.88-0.040 0-0.040-0.036-0.080-0.036z"></path>
    <path fill="#000000" d="M751.27 860.293c-6.559-2.359-13.076-4.961-19.715-7.036-17.795-2.359-35.63-4.319-53.505-6.041-42.788-1.84-85.535-6.916-128.324-8.638-23.874-1.001-47.666 0.293-71.46 2.48-18.434 1.682-37.191 8.157-55.744 6.718-0.080-0.036-0.12-0.074-0.161-0.074-22.514 2.839-44.906 3.92-68.22 4.6-36.309 1.037-68.381 11.554-98.812 30.43-3.839 8.956-4.959 17.675-1.719 25.313 41.828 10.037 84.297 10.437 127.645-1.161 13.156-3.517 26.033-7.437 38.87-11.436 0.48-0.799 1.199-1.519 2.239-1.96 15.036-6.238 29.952-13.316 45.387-18.595 15.635-5.355 32.271-6.996 48.265-11.276 1.68-0.44 3.040 0.036 4.039 0.879 45.828-7.279 92.015-5.477 138.001 0.641 29.472 0.399 58.904 0.719 88.054 1.88 2.559-0.879 4.959-2 7.038-3.601 0.161-0.147 0.318-0.367 0.48-0.556-0.8-0.843-1.6-1.682-2.359-2.56z"></path>
    <path fill="#000000" d="M866.773 805.887c-14.756-3.117-29.392-6.836-44.107-10.235-5.439-0.641-10.916-1.359-16.396-2.080-14.436-1.84-28.912-3.399-43.427-4.798-38.189-7.917-77.618-12.315-115.607-18.675-4.999-0.839-10.037-1.799-15.115-2.718-32.271-2.56-63.301-3.319-97.172 4.36-6.758 1.519-13.517 3.117-20.235 4.718-4.519 2.121-9.037 4.278-13.475 6.517-2.039 2.723-2.72 5.601-2.479 8.44 5.918 0.759 11.796 1.197 17.716 1.479 15.395 9.396 34.75 9.715 52.704 9.675-11.397 1.323-22.794 2.723-34.191 3.759-11.917 0.183-24.033 0.48-35.989 1.519-4.639-0.11-9.237-0.329-13.837-0.759-42.987-4.198-82.537-19.434-126.564-16.998-1.799 0.11-2.96-0.637-3.719-1.758-6.598 0.074-13.195 0.293-19.754 0.799-7.917 1.041-15.796 2.040-23.673 2.961-10.837 1.96-21.514 4.718-32.071 8.518-0.72 0.257-1.36 0.329-1.959 0.293-5.918 1.84-11.917 3.399-17.955 4.879-17.996 7.118-39.429 9.154-59.023 11.396-20.713 3.597-41.828 7.036-62.741 8.876 1.68 3.001 3.879 5.879 6.839 8.558 13.916 12.477 40.428 17.196 57.904 21.756 4.679 1.197 9.358 2.278 14.077 3.399 11.117 4.516 22.873 7.194 34.87 9.114 0.879 1.201 1.639 2.362 2.44 3.521 5.678-3.637 11.397-7.077 17.315-9.917 26.272-12.678 53.945-18.795 83.016-19.635 23.153-0.681 45.347-2.718 67.501-5.719 0.52-0.147 1.001-0.257 1.519-0.183 7.959-1.077 15.915-2.318 23.914-3.677 5.318 1.201 10.877 1.161 16.515 0.681 6.359-1.121 12.635-2.162 18.754-2.64 22.474-1.88 44.827-3.077 67.341-2.158 31.311 1.239 62.543 4.319 93.813 6.598 7.399-1.001 14.677-2.48 21.754-4.879 1.439-0.48 4.039-2.359 6.958-4.838 32.791-1.197 65.622-0.48 98.371-1.239 52.465 2.597 104.97 4.4 157.276 4.838 1.479 0 6.079-2.919 7.917-5.359-22.593-7.597-45.667-13.396-69.021-18.357z"></path>
    <path fill="#000000" d="M205.819 672.813c-0.12-1.96-0.202-3.88-0.318-5.839-0.56-0.329-1.001-0.556-1.159-0.637-1.239-0.721-1.92-1.762-2.16-2.839-1.88-0.803-3.718-1.642-5.479-2.52 0.278-0.52 0.44-1.001 0.56-1.439-6.438-3.521-12.517-7.597-18.836-11.356-17.354-6.158-34.391-11.877-52.865-14.835-0.318-0.52-1.040-0.799-2.359-0.721-0.48 0.036-0.959 0.074-1.439 0.11-3.919-0.601-7.838-1.157-11.756-1.717 1.799 0.759 3.718 1.519 5.638 2.318-19.594 2.44-36.829 10.195-49.707 26.43-1.199 1.479-4.319 6.642-3.399 9 5.159 12.916 24.073 12.033 36.071 12.155 10.396 0.036 20.674-1.041 31.031-2 12.036-1.117 34.55-6.316 45.227-3.319 1.519 0.48 3.879-0.11 6.477-1.359 0.679 0.074 1.36 0.147 2.039 0.257 6.797 0.637 13.596 1.077 20.393 1.557 0.242-1.279 0.84-2.476 2.039-3.239z"></path>
    <path fill="#000000" d="M236.647 587.233c0.040-0.036 0.12-0.11 0.161-0.147-26.512-12.077-64.582-27.075-94.254-19.594-3.839-0.843-7.597-1.762-11.437-2.48-0.88 20.154-40.269 30.151-39.628 48.348 40.748 0.556 81.376 1.359 121.326-6.4 1.88 0.183 3.718 0.48 5.559 0.641 9.277 0.879 24.633-17.836 18.275-20.357z"></path>
    <path fill="#000000" d="M356.845 567.323c-1.080-11.755-9.837-18.114-19.915-23.035-1.519 0.44-3.158 0.52-4.719 0.11-24.553-6.476-45.867-8.916-70.74-11.235-9.317-0.883-19.834-2.202-27.352-8.44-13.755-11.436-16.396-22.672-37.51-27.233-28.353-6.118-57.064-5.477-85.775-3.92-8.957 2.48-17.755 5.521-24.434 9.238-4.639 5.239-8.598 10.916-11.716 16.917 0.919 3.677 3.799 7.679 9.317 12.037 10.077 7.997 25.873 6.476 36.509 13.872 24.513 2.723 48.265 9.839 72.379 15.518 21.394 5.077 44.188 10.199 64.941 18.473 4.238 0.959 9.477 2.318 13.797 4.48 13.916 2.52 29.351 2.44 42.469 2.678 19.554-3.637 34.991-5.835 40.349-6.279h0.040c1.799-4.198 2.759-8.634 2.359-13.195z"></path>
    <path fill="#000000" d="M387.136 699.653c-3.359-1.359-6.958-2.758-10.357-4.557-3.199-1.439-6.319-2.961-9.198-4.961-1.32-0.679-2.519-1.479-3.599-2.44-5.999-2.556-11.397-5.677-11.957-8.836l3.479-4.081c5.239-1.319 10.597-2.318 15.915-3.077 0.919-14.315 2.72-28.552 4.278-42.831-1.119 0-2.279 0.074-3.398 0.11 0.358-2.198 0.278-4.118-0.12-5.915 0.040-5.279-1.119-10.319-3.359-14.876 0.441-0.036 0.919-0.074 1.4-0.074-4.999-5.399-7.718-12.756-8.558-20.317-1.119-0.183-2.2-0.329-3.319-0.48-0.721 1.363-1.959 2.48-3.879 2.64-11.516 0.959-23.233 2.799-34.991 5.036-0.721 0.721-1.719 1.241-3.040 1.323-1.479 0.036-3.039 0.11-4.558 0.183-12.997 2.758-25.992 6.077-38.788 9.557-8.997 5.959-24.394 7.517-31.951 9.078-0.161 0.036-0.278-0.036-0.441 0-0.48 0.11-1.001 0.293-1.519 0.399-13.837 3.92-38.87 7.637-47.666 19.276-1.959 2.56-2.519 4.758-2.2 6.678 0.919 0.52 1.84 1.001 2.76 1.561 1.159 0.719 1.799 1.799 1.999 2.957 8.717 4.961 17.395 9.679 27.671 12.84 9.997 3.077 19.594 5.835 28.912 9.835 7.038 1.677 14.196 3.199 21.394 4.52 0.679-1.323 1.92-2.242 3.919-2.040 13.956 1.561 27.631 3.001 41.228 5.799 2.799-0.641 5.558-1.323 8.318-1.88 0.12 0.074 0.278 0.036 0.399 0.11 0.76 0.293 1.28 0.919 1.759 1.323-0.959 0.637-1.84 1.399-2.598 2.198 0.639 0.147 1.239 0.257 1.88 0.44 4.478 1.161 4.238 7.437 0.6 8.956 19.635 5.121 39.389 9.919 59.382 12.836 0.080-0.183 0.161-0.44 0.318-0.596 0-0.257 0.040-0.44 0.12-0.601l-0.238-0.11z"></path>
    <path fill="#000000" d="M548.383 563.627c-15.836-0.719-38.748 19.075-43.868 36.193-1.959 1.479-3.679 3.597-1.519 3.799 0.242 0.036 0.48 0.036 0.679 0.036-0.12 1.077-0.242 2.118-0.202 3.117-0.040 0.561-0.080 1.081-0.12 1.602 22.113 1.041 44.548-7.799 66.061-11.396 19.635-3.283 39.669-4.722 59.543-3.319 34.030 2.4 70.539 18.635 105.57 18.753 0 0 0 0-0.040 0-1.36-0.183-2.759-0.367-4.159-0.561-1.639-11.476-8.598-12.315-19.435-22.272-5.278-4.879-5.838-10.598-12.437-15.436-8.157-5.997-18.556-8.876-28.152-11.594-19.955-5.677-40.789-7.919-61.463-7.279-9.997 0.329-20.153 0.399-30.071 1.439-10.238 1.081-20.634 7.359-30.391 6.916z"></path>
    <path fill="#000000" d="M433.988 512.042c-0.080-0.293-0.161-0.556-0.358-0.799 1.36-1.239 2.48-2.48 3.040-3.199l0.52-0.681c1.001-1.279 2.799-4.798 0.318-5.637-0.318-0.11-0.639-0.219-0.959-0.329-0.161-0.074-0.399-0.036-0.599-0.074 9.837-7.359 5.038-74.781 5.118-86.657 0.12-26.99 0.959-54.824-1.36-82.016 33.551-7.279 67.381-21.712 100.051-35.068-11.557 31.629-21.355 63.7-29.591 96.529-7.077 28.232-16.715 58.625-20.515 88.375-17.874 11.476-36.589 20.397-55.664 29.551zM421.432 427.623c-0.399 12.437-6.879 55.504-2.44 76.499-11.157-3.677-23.633-5.677-34.151-8.718-9.957-2.839-19.474-6.758-29.071-10.195-6.758-34.511-14.275-68.901-22.673-103.054-6.039-24.712-11.437-51.142-21.114-75.257 3.158 0.721 5.878 1.359 7.958 1.96 32.591 9.356 65.261 18.353 98.133 26.51 1.92 1.92 4.919 1.519 8.078-0.183 0.12-0.036 0.242-0.036 0.358-0.036-3.52 30.632-4.159 61.784-5.078 92.492zM390.078 90.936c0.76-3.157 2.559-5.759 4.919-7.719 1.999-3.239 5.159-5.597 9.118-5.315 1.199 0.074 2.279 0.516 3.319 1.077-0.242 1.561-0.441 3.161-0.959 4.641-0.919 2.476-3.679 5.315-1.92 8.195 1.32 2.162 4.080 2.080 4.478 5.121 0.161 1.239-0.399 2.638-0.56 3.997-2.96 0.329-5.918 0.219-9.037-0.48-1.399-0.329-2.4-1.557-2.919-2.957-0.721-0.036-1.4-0.074-2.12-0.183-3.279-0.561-5.078-3.041-4.319-6.36zM854.667 667.351c-27.993-10.437-60.263-10.876-89.694-13.837-14.996-1.519-29.992-3.037-44.988-4.516 0.52-0.721 1.080-1.439 1.56-2.202 27.993-0.799 55.944-2.638 83.576-4.678 2.279-0.183 8.878-6.238 5.279-6.198-24.513 0.399-49.105-2.799-73.578-6.598-28.992-0.147-57.743-10.279-87.495-15.356-35.39-6.037-69.38-1.359-104.051 6.4-20.074 4.516-39.389 8.477-59.663 3.319-7.758 0.48-15.476 1.117-23.153 2.078 0.040-2.158 0-4.356 0.12-6.517 0.040-1.602 0.56-2.839 1.239-3.88-0.080-0.919-0.161-1.799-0.242-2.678 5.479-3.041 10.238-7.319 13.676-13.238 7.438-12.914-1.28-22.631-11.796-30.107 3-3.359 5.878-6.678 8.519-9.919 15.635-19.353 14.676-26.95 2.239-43.585 0.52-0.721 0.959-1.439 1.32-2.162 9.237-3.399 18.994-7.077 26.353-13.634 0.639-0.601 10.518-11.319 4.478-11.917-0.202-0.036-0.44 0-0.639 0 0.56-1.399 0.76-2.763 0.12-3.96-0.080-0.147-0.202-0.257-0.278-0.367 10.396-32.313 15.876-67.023 23.554-99.893 6.958-30.031 13.517-59.945 18.474-90.294 8.358-3.399 16.636-6.638 24.793-9.639 1.239-0.44 2.879-1.677 4.599-3.239 7.277-3.359 18.835-11.795 14.116-16.115 0.202-1.519-0.599-2.56-2.96-2.6-22.593-19.635-45.187-39.27-67.822-58.823-17.634-15.236-38.949-29.511-51.265-49.665 6.237-2.919 11.436-6.798 14.396-11.997-6.678-10.836-27.312-16.393-43.507-18.993 0.12-0.074 0.242-0.147 0.358-0.293 4.719-4.198 13.277-16.037 12.556-24.474 0.48-3.279 0.278-6.44-0.639-9.477 0.76-4.718-1.080-9.319-7.317-13.198-1.399-0.879-2.96-1.517-4.518-2.078-1.959-1.399-4.159-2.723-6.517-3.96-8.638-4.4-16.835-7.077-25.992-3.157-6.879 2.158-13.676 7.597-18.194 11.877-2.44 2.278-4.838 5.239-7.077 8.355 0.358 1.041 0.358 2.242-0.318 3.479-2.16 3.92-1.759 9.557-0.48 14.315 0.080 0.183 0.161 0.44 0.242 0.641-1.159 3.157-1.36 6.558-0.040 9.997-0.080 0.879 0.040 1.717 0.56 2.48 0.639 0.48 1.28 1.001 1.959 1.477 0.441 0.367 1.001 0.443 1.519 0.601 0.76 1.84 1.84 3.521 3.279 5.041-0.358 0-0.721 0-1.080 0-0.679-0.036-1.28-0.257-1.959-0.329-9.757 2.44-19.034 6.48-27.433 12.239-0.198 0.257-0.358 0.48-0.599 0.719-1.799 3.839-2.12 8.32-2.479 13.356 2.079 4.921 6.079 8.157 12.197 9.679 3.839 1.519 7.917 2.48 11.996 3.157-1.040 3.041-1.799 6.122-2.839 9.441-5.918 4.078-11.437 10.518-7.959 12.954 0.56 0.403 1.12 0.721 1.68 1.081-1.080 6.118-0.959 14.119-4.199 18.114-1.959 2.359-4.319 7.158-0.639 8.996 1.479 0.721 2.96 1.403 4.439 2.121-0.358 0.44-0.721 0.879-1.12 1.359-3.679 4.798-12.717 15.598-11.837 22.352 0.358 2.803 2.279 5.319 4.838 7.561-2.879 1.956-5.239 4.718-5.039 7.637 0.080 1.319 0.202 2.638 0.278 3.955 0.080 0.681 0.441 1.201 0.919 1.602-1.080 2.040-2.16 4.198-3.24 6.436-3.919-1.157-7.838-2.238-11.717-3.517-5.558-1.799-17.156 7.477-19.915 13.797-17.914-4.921-35.79-8.477-52.905-9.037 29.432-18.473 59.464-41.548 83.895-67.781-0.278-0.147-0.52-0.293-0.76-0.44-4.518 3.437-9.037 6.836-13.517 10.315-0.879 0.641-1.759 0.879-2.639 0.879-11.956 11.078-24.592 21.357-37.589 30.191-11.957 8.157-28.712 22.114-44.508 23.035-0.040 0-0.080 0.036-0.080 0.036-3.479 2.278-6.198 5.799-7.478 8.836-2.799 2.080-4.838 4.718-4.798 7.279 0 0.641 0.040 1.239 0.318 1.84 4.679 9.597 26.313 15.876 45.746 20.352 3.359 33.873 13.755 67.421 21.434 100.373 8.518 36.471 16.076 73.1 23.433 109.809 0.88 4.319 7.158 2.48 12.836-1.359 1.999 1.602 4.719 2.681 7.317 3.717 2.079 0.843 4.278 1.682 6.518 2.48-1.719 2.758-3.399 5.521-4.759 8.477-1.719 7.081-3 14.357-1.399 20.595 2.359 8.92 11.597 18.755 18.315 26.955-7.158 5.879-11.476 15.034-7.478 24.312 3.24 7.477 9.638 10.876 16.794 12.557-1.84 24.951-6.279 49.707-6.559 74.697 0 0.601-0.161 1.121-0.399 1.561 0.56 0.44 1.159 0.839 1.719 1.279 0 0.219 0.080 0.403 0.080 0.601 0.12 0.147 0.238 0.293 0.278 0.44 1.4 0.641 2.759 1.201 4.159 1.799 2.039 0.883 4.399 1.682 6.638 2.6 14.875 3.96 29.232 7.199 43.908 7.679 6.559 3.637 16.876 2.678 23.594 2.879 14.436 0.367 30.471 0.919 45.227-0.879 6.478 0.44 12.757 0.074 18.194-1.762 2.639-0.919 7.238-3.997 7.597-7.158 0.358-3.359-1.759-6.956-4.838-10.235-1.439-2.52-3.839-5.001-7.399-7.319-0.639-0.399-1.36-0.48-2.12-0.399-1.759-1.161-3.438-2.080-4.919-2.839-3.079-1.96-7.158-3.157-9.517-3.88-3.718-1.121-7.438-1.602-11.196-1.677-6.918-1.479-13.755-2-20.634 0.44-0.202 0.074-1.68 1.117-1.199 1.517 6.678 0.883 13.755 3.439 19.955 6.162 0 0 0.040 0.036 0.080 0.036 0.48 1.842-0.161 3.641-1.32 5.201-1.239 0.074-2.519 0.183-3.759 0.183-3.079 0.036-6.158-0.11-9.237-0.257-3.879-0.183-7.637-0.329-11.397-0.183 0.12-2.118 0.080-4.319-0.721-6.077 0.12-1.399 0.161-2.839-0.080-4.158 0.238-1.682 0.56-3.323 0.679-5.001 0.12-1.001 0.12-2.080 0.12-3.157 0.080-1.241 0.161-2.52 0.202-3.762 1.36 0.074 2.72 0.257 4.079 0.329 0.399-0.183 0.919-0.329 1.479-0.329 8.038 0 16.036 0.036 24.033 0.036 15.995 3.92 30.671 7.959 47.787 6.56 4.519-0.367 29.393-4.961 48.186-4.879 0.56 0.257 1.159 0.399 1.719 0.641 7.357 2.957 9.837 5.077 11.637 7.315-4.159 2.758-12.596 2.6-15.995 2.799-9.877 0.52-19.594 0.219-29.271 0.52-3.599 0.959-8.318 2.723-10.597 5.481-1.439 1.799-1.479 3.637-1.159 5.637 2.2 1.479 4.478 2.919 6.757 4.238 5.759 3.359 11.717 6.32 17.595 9.477 0.080 0.036 0.080 0.11 0.161 0.147 5.078 1.561 10.117 3.479 15.155 5.239 22.194 18.433 100.732 22.753 117.967 21.231 8.997-0.799 16.475-3.355 24.993-6.678 21.793-8.518 40.389-12.553 63.623-13.674 22.593-1.081 39.269-2.52 57.384-16.555 2.598-2.040 16.395-15.598 7.679-18.877z"></path>
    </svg>