<svg xmlns="http://www.w3.org/2000/svg" viewBox="3.146 15.723 1019.708 992.277">
    <path fill="#000000" d="M468.898 577.592c0.105 0.105 0.175 0.176 0.316 0.28 0.139 0.139 0.35 0.139 0.536 0.279 2.595-3.475 5.385-6.798 8.133-10.082 3.743-4.505 7.372-9.852 11.188-14.931-7.716-10.541-20.013-19.249-29.788-27.307-6.266-5.156-12.987-11.992-20.586-15.544 1.526-1.757 2.901-3.398 3.743-4.428 5.462-6.798 10.847-13.634 16.419-20.359 11.115-13.403 22.766-26.352 34.755-38.993 1.722-1.795 6.266-7.599 3.628-10.311-3.398-3.516-5.921-6.725-8.477-10.887-0.574-0.917-1.413-1.336-2.369-1.413-0.316-0.421-0.613-0.839-0.877-1.259-2.025-3.208-3.59-6.070-7.218-7.599-0.728-0.316-1.489-0.574-2.254-0.8-10.923 13.634-21.808 27.268-33.38 40.329-14.744 19.785-28.721 40.101-41.934 61.146-1.298 2.102-2.064 3.782-2.408 5.118 16.385 15.048 34.834 27.765 51.636 42.165 6.416 3.739 12.603 7.865 18.792 12.144-0.459 0.956-0.536 1.833 0.139 2.48z"></path>
    <path fill="#000000" d="M610.414 523.793c-2.788-2.331-6.189-4.621-8.784-7.449-12.566-1.68-23.987 12.564-33.839 22.149-8.861 8.669-17.683 17.454-25.744 26.89-2.1 2.442-4.39 4.964-6.415 7.638-2.633-1.528-5.347-2.943-7.903-4.544-4.621-2.866-8.52-6.036-13.446-7.257-3.777 3.739-7.257 7.792-9.432 12.221-2.71 5.462-6.262 10.159-10.388 14.437 0.57 1.298 1.718 2.446 3.743 4.164 3.475 2.943 7.444 5.385 11.226 7.946 6.532 4.39 12.91 9.128 19.669 13.137 0.21 2.177 3.36 2.177 5.649 0.762 16.118-10.044 28.339-25.701 41.593-39.147 12.949-13.059 26.505-25.59 39.147-38.956 2.179-2.292 3.284-4.198 3.667-5.688-3.016-2.064-6.032-4.049-8.742-6.3z"></path>
    <path fill="#000000" d="M715.104 506.3c1.336-59.693-24.442-122.176-66.722-160.256-53.163-47.816-125.69-62.901-192.295-47.127 5.041 9.052 7.295 19.21 9.205 29.406 4.352 1.489 9.775 1.948 15.39 1.872 3.667-0.034 7.257-0.071 10.847-0.071-0.071 3.208 0.034 6.338 0.071 9.128 0.175 10.656 1.872 21.236 3.513 31.74 0.843 5.308 9.587 0.316 11.384-0.995 3.244-2.408 6.529-4.777 9.775-7.18 0.105-0.071 0.28-0.244 0.421-0.35 1.528 1.033 4.888-1.833 5.5-2.939 1.336-2.369 2.025-4.853 2.408-7.372 0.956-1.948 1.259-3.667 0.382-4.582 0.071-4.467-0.35-9.052 0.21-13.71 0.071-0.877 0.105-1.757 0.175-2.633 18.257 1.528 36.054 5.041 54.58 13.098 60.191 26.24 95.44 90.478 102.315 154.602-10.541-1.489-21.082-2.75-31.622-3.777-1.528 0.071-3.477 0.175-5.007-0.316-1.221-0.421-2.216-1.067-3.093-1.833-1.029 0.034-2.061 0-3.054 0.071-15.582-16.423-32.541-31.775-47.396-48.964-16.92-19.631-41.972-35.48-56.103-56.712-0.244-0.35-0.382-0.689-0.536-0.995-4.505-3.667-9.052-7.257-13.48-10.962-3.897 3.398-8.099 6.415-11.766 10.159-2.71 2.75-5.27 5.688-7.827 8.631 5.423 20.547 33.339 41.36 47.624 53.891 23.987 20.967 47.131 42.201 70.008 64.466 0.176 0.139 0.382 0.279 0.57 0.382 3.628 5.35 9.587 9.359 16.233 10.618 24.634 4.738 53.431 1.795 78.673 2.408 0.689-6.533 0.497-13.137 0.766-19.669l-1.148-0.034z"></path>
    <path fill="#000000" d="M154.221 527.829c0.689-0.105 1.451-0.423 2.292-0.881 10.847-1.795 21.691-3.628 32.541-5.462 8.554-0.685 17.108-1.411 25.663-2.1 2.523-0.175 6.493-2.977 9.933-6.377-0.139-0.651-0.316-1.221-0.421-1.718-1.302-6.262-2.75-12.528-3.399-18.908-0.105-1.259-0.21-2.518-0.244-3.777-22.57 0.034-45.485 0.8-67.867 3.739-7.142 0.105-14.281 0.613-21.426 1.413-3.246-12.872-2.595-26.849-1.757-40.139-3.246-3.093-7.754-5.308-13.939-6.377-0.574-0.071-1.298 0.105-2.14 0.382-4.164-0.916-8.286-1.983-12.374-3.243-2.672 36.434-1.983 72.871 2.905 106.897 6.416 44.57 23.374 85.934 47.665 123.015 1.374-0.991 2.75-2.061 4.010-3.36 0.382-0.421 0.685-0.878 1.067-1.259 1.148-0.316 2.484-0.881 4.241-2.14 10.005-7.026 18.066-14.552 25.931-23.906 1.567-1.833 6.074-7.716 3.323-10.353-24.901-23.718-46.48-60.722-54.537-95.786 0-2.292 0.034-4.582 0.071-6.798 6.151-0.956 12.298-1.91 18.449-2.862z"></path>
    <path fill="#000000" d="M134.786 402.817c-0.071 0.244-0.279 0.536-0.497 0.843-2.025 4.964-3.59 9.167 0.497-0.843z"></path>
    <path fill="#000000" d="M190.4 296.209c-6.572-2.408-13.71 1.948-20.052 7.716-9.205 0.034-18.449 0.685-27.726 1.451-7.716 13.365-14.897 27.037-22.574 41.168-4.352 12.528-8.249 25.361-11.762 38.382 3.782 7.41 7.218 16.5 11.303 25.208v0c-0.139 1.948 0.459 2.827 1.413 3.054 0.21 0.316 0.35 0.689 0.497 0.995 0.071-0.316 0.175-0.647 0.28-0.956 3.594-0.35 10.503-6.682 12.528-9.587 0.955-2.331 2.025-4.849 2.633-6.108 6.189-12.336 12.566-24.672 19.593-36.589 11.342-19.325 28.262-37.008 35.251-58.511 0.723-2.331 1.567-5.156-1.374-6.223z"></path>
    <path fill="#000000" d="M332.131 835.507c-32.349-20.205-67.409-38.573-97.504-62.062-10.082-7.869-53.891-47.816-60.037-68.745-0.105-0.244-0.279-0.421-0.421-0.651-3.517-4.087-6.571-8.477-8.938-13.293-0.723 0.105-1.603 0.497-2.672 1.187-10.847 7.142-17.836 14.816-22.341 27.152-1.144 3.097-0.917 4.738 0.139 5.423-0.382 0.574-0.689 1.148-1.072 1.722 36.778 58.357 91.048 107.356 152.692 141.692 9.128-3.667 17.57-6.989 23.872-13.978 0.034 0 0.071 0 0.139-0.034 3.321-0.766 23.221-13.982 16.113-18.41z"></path>
    <path fill="#000000" d="M701.422 753.197c-6.338-8.247-11.954-17.032-15.279-26.773-61.45-0.105-125.573-4.7-186.491 2.292-3.743 0.421-17.262 12.757-12.68 14.475-0.723 1.833-1.528 3.667-2.331 5.615-1.033 2.595-1.948 5.079-2.828 7.525-5.154 5.423-8.743 12.067-2.633 11.647 4.815-0.35 9.626-0.685 14.475-1.072-1.067 11.536 0.574 23.643 0.804 35.672-3.020 21.618-4.661 43.58-5.807 64.928-14.054-1.148-27.649-2.905-40.253-5.003-13.904-2.292-28.074-5.233-42.127-8.784 1.182 10.277 2.216 20.625 2.977 30.934 30.976 8.746 62.483 13.903 93.46 14.552 23.183 0.497 46.021-0.956 68.362-4.237-5.959-4.969-11.8-10.082-18.449-14.059-5.003-2.977-9.741-5.193-13.749-9.548-0.762-0.8-1.451-1.757-2.139-2.789-3.667 0.139-7.333 0.139-11 0.176 1.872-13.293 0.034-27.424-0.105-40.636-0.175-12.374-0.35-24.787-0.497-37.199-0.071-5.271 2.025-17.377 1.683-26.429 54.652-1.606 109.266-3.246 163.918-4.964 2.638-0.071 6.989-2.905 10.694-6.343z"></path>
    <path fill="#000000" d="M371.144 915.44c0.536-1.91 1.683-3.097 3.020-3.859-0.574-5.615-1.033-11.303-1.684-16.88-8.133-2.331-16.191-4.811-24.136-7.638-5.726 1.603-10.503 4.279-16.423 6.185-6.3 1.987-12.565 4.318-18.865 6.572 17.908 8.975 36.395 16.649 55.111 23.029 1.144-2.403 2.216-4.811 2.977-7.406z"></path>
    <path fill="#000000" d="M805.141 276.52c0.689-3.398 1.336-6.836 2.025-10.234 0.28-1.374 0-3.859-1.91-4.087-37.926-4.621-81.349-0.071-118.051-9.243-4.926-1.221-11.689 4.661-14.208 8.057-6.494 8.784-12.183 16.271-13.939 27.156-0.804 5.003 5.611 0.877 8.362-1.413 1.033 0.497 2.064 0.955 3.093 1.336-0.685 1.795-0.493 3.093 1.451 3.246 24.902 2.292 52.819 5.726 79.516 5.27-16.269 11.498-32.464 23.108-48.506 34.949-2.901 2.139-11.57 8.784-9.626 13.365 0 0.034 0.034 0.034 0.034 0.034 2.292 1.11 4.582 2.254 6.798 3.594 0.244-0.071 0.459-0.105 0.689-0.244 1.298 1.072 2.557 2.138 3.816 3.208 1.761 1.221 3.399 2.518 5.041 3.859 20.625-15.087 42.321-28.454 63.784-42.282 4.087 29.217-3.743 63.819-4.509 92.081-0.57 21.005 1.302 42.282-0.35 63.211-1.221 15.544-4.964 29.368-4.275 44.988 2.862 65.729-21.197 134.666-14.782 201.157-9.703-8.708-19.439-17.339-29.41-25.739-10.996-9.243-23.409-22.839-37.424-28.798 10.847-10.771 19.665-23.259 24.442-36.549 12.031-17.57 19.746-37.238 23.679-57.898-0.139-0.139-0.316-0.244-0.459-0.382-1.182-1.148-1.91-2.179-2.595-3.399-7.946-0.878-15.964-0.995-23.834-2.446-3.437 2.638-6.338 5.692-6.989 8.138-16.423 62.709-59.004 107.625-125.992 109.917-4.66 0.175-9.167 0.071-13.599-0.071 0.139-0.651 0.105-1.298 0-1.91 0.244-2.982 0.421-7.066-0.105-10.847 3.667-10.082 4.544-21.352 4.010-31.89 0-0.105-0.071-0.139-0.071-0.28-7.218 0.878-14.397 1.91-21.618 2.254-3.552 3.246-6.452 7.525-7.103 10.81-1.451 7.026-4.964 16.113-5.538 24.288-0.421 1.413-0.8 2.827-1.221 4.241-31.546-5.921-59.962-18.559-91.357-32.652-4.164-1.872-14.931 8.477-12.983 12.68 0.839 1.833 1.833 3.552 2.977 5.231-0.762 1.489-1.642 2.905-2.633 4.241 0.316 2.788 1.144 5.615 1.413 8.287 0.071 0.316 0.034 0.647 0.071 0.956 16.573 10.615 34.868 19.249 54.499 25.513 7.257 2.292 14.931 4.66 22.877 6.874 0.175-0.034 0.382-0.034 0.574-0.034 0.175 0.071 0.382 0.105 0.608 0.139 3.516 0.608 7.028 0.952 10.579 1.067 21.846 1.91 43.959 1.221 65.652-2.292 4.318-0.35 8.669-0.762 13.025-1.451 0.916-0.139 1.795-0.35 2.672-0.497 12.298 0.804 26.008-3.398 39.109-9.89 8.133-2.866 16.726-7.103 25.208-12.487 8.821 11.57 22.418 20.201 32.923 29.865 5.462 4.964 10.503 10.388 15.467 15.888 0.105 0.574 0.316 1.11 0.685 1.567 1.833 2.216 3.859 4.126 5.921 5.921 2.595 2.939 5.233 5.882 7.908 8.784 3.36 2.442 6.494 5.27 9.587 8.286 2.021 1.948 4.010 4.049 6.070 6.036 1.644 1.072 3.361 2.064 4.969 3.246 9.239-0.316 18.329-0.723 27.229-1.374 1.033-0.034 3.169-1.413 5.118-3.054 0.071-2.064 0.316-4.164 0.608-6.266-0.034 0-0.071 0-0.071 0 0.034-0.034 0.034-0.105 0.071-0.139 0.955-6.455 2.599-12.718 3.782-16.959 0.071-0.35 0.244-0.574 0.382-0.838-0.244-0.034-0.421-0.034-0.608-0.071 7.103-71.532 3.855-136.576 13.978-223.157-0.421-3.093 0.105-6.454 1.144-9.775 0.034-0.421 0.071-0.766 0.139-1.187 9.128-71.837 6.377-145.436 14.054-217.503 0.139-1.451-1.106-2.1-2.292-2.408z"></path>
    <path fill="#000000" d="M470.229 742.78c-52.168-1.411-104.225-2.292-156.319-4.696 6.61-7.984 11.723-17.415 17.57-25.782 6.491-9.316 13.824-17.224 19.78-26.198-0.35-0.766-0.723-1.528-0.916-2.292-0.175-0.244-0.421-0.35-0.574-0.574-1.259-1.833-0.952-3.131-1.757-4.849-0.497-0.995-0.955-1.757-1.413-2.446-2.216-1.336-4.657-2.292-7.026-2.75-13.137 11.343-25.208 23.795-36.782 36.778-2.022 2.292-4.237 4.66-6.491 7.105 3.893-69.816-11.115-138.907-12.718-208.49-1.644-71.455 2.518-144.938-5.272-216.052-5.347 1.718-10.618 3.628-15.964 5.385-2.408 0.8-6.036 1.68-9.51 2.939-9.471 11.574-7.831 29.751-7.41 47.472 0.766 29.906 1.489 59.808 2.292 89.678 0.689 25.513-2.901 55.796 5.462 80.358 0.279 5.882 0.651 11.723 0.995 17.567 0.316-0.071 0.613-0.139 0.916-0.316 0.034 38.573 2.369 77.261 4.087 115.759 0.917 20.546 1.833 41.095 2.943 61.642 0.839 15.198-0.916 34.067 6.070 48.004 0.613 1.187 3.361 0.459 4.049 0.175 0.105-0.034 0.244-0.071 0.35-0.105-0.955 2.179-0.839 3.859 1.221 4.279 58.396 12.144 120.458 12.067 180.841 9.703 0.991-0.651 2.099-1.263 3.437-1.91 2.595-1.298 1.182 0.034 2.138-1.528 1.033-1.795 1.683-4.241 2.523-6.147 1.526-3.555 3.016-7.183 4.734-10.656-0.176 0-0.382-0.034-0.608-0.034 5.611-5.156 9.737-11.877 3.36-12.031z"></path>
    <path fill="#000000" d="M608.193 242.915c-20.239-0.28-40.483 0.139-60.688 0.916-3.131-12.487-6.759-23.868-7.792-37.046-0.532-7.065 0.071-18.788-3.701-26.275-1.11-14.054-2.025-28.032-2.025-42.201 6.147-3.705 11.613-9.282 16.462-17.798 0.316 0.034 0.613 0.034 0.916 0.034 0.316-0.423 0.647-0.843 0.916-1.302 2.789-4.352 3.437-6.262 7.372-10.157 2.48-2.484 4.428-5.194 6.032-8.061 0.034 0 0.034 0 0.034-0.034 0.21-0.316 0.35-0.647 0.497-0.991-0.838-1.033-1.565-2.217-2.216-3.438-16.5-0.839-33.188-0.762-49.952 0.382-58.319 0.497-117.94 11.762-170.261 37.352-0.139 0.071-0.35 0.244-0.574 0.459-16.88 5.959-33.149 13.025-48.655 21.236-0.8 0.279-1.642 0.723-2.484 1.298-1.488 0.838-3.054 1.603-4.544 2.446 0.35 0.28 0.651 0.608 1.033 0.877-1.144 1.488-1.872 2.977-1.451 4.010 0.459 1.221 0.574 2.369 0.689 3.513-0.766 1.489-1.148 2.905-0.574 3.935 0.497 0.917 1.072 1.906 1.718 2.824-0.723 2.446-1.298 4.892-1.68 7.333-0.244 0.728-0.35 1.451-0.316 2.14-0.497 4.696-0.384 9.626 0.35 15.39 0.536 4.203 6.798 1.451 8.669 0.497 56.945-28.798 118.089-47.053 181.793-52.631 2.369-0.175 4.622-0.35 6.836-0.497v-0.034c0.316 0.034 0.613 0 0.877 0.034 0.316 0.034 0.574 0.105 0.917 0.105 2.484 0 4.93 0 7.372 0.034 0.995-0.034 2.177-0.459 3.399-1.11 0.838-0.071 1.642-0.244 2.442-0.35 0.804 10.847 1.872 21.618 2.943 32.349 0.574 0.8 1.072 1.757 1.259 2.982 0.839 5.079 1.489 9.813 2.177 14.778 0 0.071 0.034 0.105 0.034 0.139 0 0.071 0.034 0.105 0.034 0.139 1.606 6.3 2.595 12.221 2.331 20.431 0 0.244-0.105 0.421-0.139 0.647 0.244 2.982 0.421 5.959 0.728 8.899 0.995 6.721 2.216 13.48 3.59 20.354-4.815 0.175-9.587 0.536-14.361 0.995-0.071-0.421-0.139-0.839-0.28-1.221-8.404 0.497-16.803 0.956-25.246 1.526-44.758-0.071-89.33 1.987-133.823 6.113-15.279 0.613-30.554 1.298-45.831 2.061-4.126 0.175-11.8 7.41-14.437 12.757 1.833 1.833 3.628 3.705 5.308 5.73 0.279-0.034 0.497-0.034 0.766-0.034-0.034 0.497 0.071 0.839 0.175 1.144 0.139 0.176 0.279 0.423 0.421 0.613 0.279 0.28 0.536 0.497 1.033 0.574 2.177 4.049 5.308 7.754 8.861 11.226 6.759 14.284 19.665 23.030 31.66 33.077 6.3 5.231 12.451 10.614 18.636 15.964 4.467 6.529 10.159 12.221 16.233 17.491-0.279 0.244-0.536 0.421-0.804 0.651-7.218 10.12-14.437 20.244-22.341 29.865-0.316 0.35-0.647 0.689-0.991 0.956-0.279 0.35-0.536 0.689-0.804 1.033-1.565 2.138-1.374 3.323-0.459 3.59-4.467 7.946-8.975 15.888-13.48 23.834-1.91 3.437-0.536 4.777 1.603 4.467-5.726 14.897-10.654 28.721-12.298 45.792-0.139 1.374 0.35 1.872 1.033 1.983-1.106 6.189-2.022 12.413-2.518 18.752-5.654 74.742 31.775 134.742 89.52 169.117 4.050-11.689 10.771-21.923 17.951-31.895-37.046-20.89-64.619-56.562-75.619-98.039 7.903-1.067 15.849-2.1 23.795-2.786 1.944 0.034 3.893 0.034 5.844 0.071 0.762 0 1.603-0.244 2.518-0.57 1.606-0.105 3.208-0.244 4.815-0.279 1.833-1.91 3.131-3.933 2.254-4.888 3.208-3.246 5.805-7.142 6.338-9.967 1.144-2.523 1.718-5.385-1.11-5.844-8.324-1.336-17.070-0.766-25.513-1.148-6.567-0.316-12.718-1.221-18.827-0.421 0.175-2.788 0.493-5.538 1.029-8.249-1.91-9.928 4.318-32.845 5.272-40.942 1.68-14.782 5.154-27.577 10.388-39.262 11.077-16.577 27.346-28.913 44.724-41.896 14.744-11 20.813-17.074 7.449-32.311-0.877-0.995-2.102-1.11-3.477-0.839-0.723-0.956-1.451-1.91-2.177-2.866-1.259-1.645-2.331-3.478-3.437-5.311-5.654 2.982-11.115 6.228-16.539 9.664-1.072-1.029-2.216-2.022-3.361-3.054-9.052-12.374-18.98-22.418-31.393-33.039-5.998-5.154-11.264-10.885-16.803-16.269 83.603-5.194 167.279-6.951 251.073-5.079 3.628 0.105 9.587-4.734 13.254-9.548 0.838-1.987 1.872-3.82 2.982-5.577 0.105-0.421 0.28-0.838 0.28-1.182 0.316-0.382 0.574-0.762 0.838-1.148 0.613-0.685 1.298-1.374 1.91-2.1 0.316-0.382 0.574-0.762 0.838-1.144 0.35-0.613 0.651-1.263 0.956-1.833 1.187-2.14 2.369-4.241 3.59-6.304-0.175 0-0.382 0-0.608 0 2.862-4.049 3.59-7.599-1.187-7.677z"></path>
    <path fill="#000000" d="M267.479 173.295c0.459-0.459 0.877-0.955 1.528-1.298-0.421 0.21-0.316 0.105 0.105-0.105-0.689-0.28-1.374-0.613-2.064-1.182-0.071-0.034-0.105-0.071-0.139-0.105s0-0.071 0-0.071c-1.144-3.016-2.403-7.026-4.619-9.393-0.175-0.21-0.497-0.244-0.728-0.35-1.067-1.41-2.139-2.786-3.36-4.087-16.539 7.487-32.197 16.577-46.405 27.769-1.451 0.762-2.977 1.488-4.428 2.254-12.070 9.51-22.608 20.737-34.183 30.972-13.293 11.723-24.329 23.983-34.524 36.624 0.316 0.034 0.608 0.071 0.955 0.071-0.728 0.536-1.413 1.11-2.025 1.757-0.536 0.574-0.995 1.187-1.413 1.795-0.139 0.176-0.244 0.28-0.382 0.421-0.723 0.497-1.451 0.995-2.099 1.606-0.766 0.685-3.705 4.010-1.413 4.777 3.131 0.991 6.185 1.106 9.393 1.067 0 0.878 0.459 1.645 1.567 2.102 20.508 8.247 29.827 1.68 44.337-12.682 21.771-21.537 46.136-39.185 73.062-53.735 4.428-2.369 12.605-9.51 11.536-15.505-1.374-8.057-1.033-7.142-4.699-12.68z"></path>
    <path fill="#000000" d="M908.821 312.666c-1.799-4.164-3.284-8.443-4.318-12.91-0.034 0.071-0.071 0.071-0.139 0.139-1.221-2.484-2.365-5.003-3.667-7.449-64.083-120.037-174.765-181.946-295.032-189.892-0.139 0.956-0.28 1.91-0.536 2.827-1.983 6.798-7.065 12.144-9.316 19.018-0.244 0.689-0.459 1.374-0.728 2.025 0.459 0.034 0.917 0.071 1.374 0.071-2.75 3.933-5.076 8.21-7.103 13.254-1.221 3.093-1.072 6.682 3.093 6.3 61.795-5.692 123.742 9.741 174.651 45.562 49.841 35.060 84.139 89.942 121.147 137.377 4.467 5.688 22.724-9.052 20.239-16.079 0.105-0.071 0.244-0.21 0.35-0.279z"></path>
    <path fill="#000000" d="M942.837 440.098c-0.071-0.574-0.139-1.187-0.21-1.757-1.565-6.648-3.475-13.254-4.964-19.442-0.139-0.57-0.421-0.877-0.8-1.067-0.497-5.311-1.187-10.694-1.987-16.079 0.244-0.316 0.459-0.613 0.574-0.877 0.176-0.766 0.35-1.451 0.459-2.14-0.279-1.067-0.497-2.1-0.766-3.131-2.862-7.942-6.108-15.811-9.052-23.718-5.611 6.61-11.034 13.369-16.037 20.435-2.14 4.428-3.705 8.975-4.777 13.672 5.118 19.247 3.246 41.896 1.182 60.611 1.072 9.052 1.987 18.024 2.025 26.734-30.934-5.423-63.017-11.647-93.417-10.503-3.208 5.766-9.626 17.185-8.977 21.656 32.274 6.644 66.533 14.663 99.606 16.573-4.087 21.695-11.498 41.746-16.688 63.781-2.75 11.689-3.628 21.771 5.649 26.888 1.489 5.389 3.705 10.469 7.41 15.125 1.144 1.451 2.177 2.827 3.246 4.203 3.59-5.921 7.065-11.877 10.388-17.986 5.003-19.134 10.005-38.271 15.811-57.213 1.722-13.865 3.517-26.964 6.951-41.019 0.244-1.033 0.382-2.064 0.613-3.093 0.459-3.208 0.955-6.415 1.451-9.626 0.917-9.167 0.878-18.449 1.336-27.688 0.28-0.279 0.497-0.497 0.536-0.651 0.071-0.139 0.071-0.316 0.139-0.459-1.029-11.038-0.839-22.149 0.279-33.226z"></path>
    <path fill="#000000" d="M863.901 746.854c-1.718-3.208-4.010-7.142-5.692-11.226-5.688 0.839-14.437 10.388-15.581 13.175-0.574 1.413-1.187 2.75-1.795 4.126-0.316 0.279-0.574 0.497-0.689 0.651-24.48 30.627-55.073 53.504-88.186 74.015-32.805 20.282-67.178 43.426-105.411 51.292-2.633 0.536-6.452 3.705-9.66 7.333-9.703 2.788-19.21 5.462-28.454 8.095-0.995 0.279-3.894 2.939-5.921 5.5-4.849 0.995-9.741 1.91-14.667 2.595 1.644 4.582 3.59 8.899 8.366 12.11 6.185 4.198 12.413 7.638 16.726 13.48 104.532-20.586 196.728-80.893 260.355-164.723-3.246-5.423-6.416-10.847-9.393-16.423z"></path>
    <path fill="#000000" d="M941.471 671.914c-2.369-2.403-4.926-4.657-7.41-6.948-3.894-1.722-7.677-3.594-11.115-5.959-3.933 2.216-7.754 5.231-8.86 7.026-0.459 0.8-0.838 1.644-1.259 2.446-0.034 0-0.034 0-0.071 0-0.175 0.421-0.382 0.8-0.574 1.221-0.175 0.382-0.382 0.766-0.574 1.148-8.86 18.903-19.134 36.778-29.024 55.111-0.35 0.647-0.536 1.298-0.839 1.948 5.308 9.128 11 17.947 16.347 27.037 2.867-4.087 5.654-8.287 8.405-12.447 0.176-0.316 0.421-0.613 0.608-0.955 13.634-20.779 25.705-42.738 35.749-65.806-0.105-0.139-0.176-0.28-0.316-0.421-0.766-1.148-1.072-2.331-1.072-3.399z"></path>
    <path fill="#000000" d="M93.495 402.679c-3.782 5.272-7.218 10.808-10.349 16.539 0.071 2.557 0.613 5.156 1.795 7.676 2.977 6.223 8.784 10.733 15.659 11.574 1.449 0.175 2.901-0.034 4.313-0.497 1.451 0.459 2.943 0.8 4.428 1.106 2.217 0.421 6.913-3.208 7.908-6.262-9.431-8.631-17.415-18.98-23.757-30.134z"></path>
    </svg>