<svg xmlns="http://www.w3.org/2000/svg" viewBox="-44.448 -15.998 1109.408 1055.995">
    <path fill="#000000" d="M623.978 904.833c-62.453 38.050-127.502 33.027-195.226 16.657-63.959-15.488-106.616-40.351-143.281-98.532-42.908-68.062-48.433-139.054-30.055-217.834 14.691-63.119 62.997-104.643 117.578-129.97 41.946-12.305 87.484-14.902 134.702-9.501 61.073 6.949 90.457 11.178 153.12 67.311 47.633 42.651 63.161 115.108 65.509 177.73 3.137 84.681-32.276 151.444-102.346 194.142zM677.727 517.053c-61.951-61.237-112.347-73.838-179.823-76.096-67.311-2.219-139.684 4.225-185.352 56.632-0.46 0.502-0.92 1.215-0.502 1.759-9.417 8.746-19.38 17.163-28.004 26.622-9.919 10.799-18.751 22.435-26.327 34.783-16.117 26.162-26.496 55.213-30.975 85.098-10.465 69.903-7.075 127.751 29.257 188.697 35.539 59.691 75.011 91.419 140.102 107.953 25.032 6.365 49.937 11.929 74.804 14.735-0.077 0.586-0.077 1.131-0.115 1.715 7.409-0.077 14.775 0.231 22.144 1.046 0-0.384-0.077-0.751-0.115-1.085 26.58 1.004 53.2-1.928 79.949-11.347 52.782-18.667 100.418-55.923 135.078-101.464 68.102-89.494 51.736-248.178-30.097-329.051z"></path>
    <path fill="#000000" d="M757.511 312.501c-1.548-9.084-3.559-18.294-6.151-26.707-2.681-8.455-5.567-15.737-4.901-24.403-0.418-0.751-0.751-1.548-1.127-2.301-6.447-39.891-25.407-81.752-51.612-108.751-0.755-2.301-1.799-4.563-2.93-6.822-0.755-0.418-1.464-0.92-2.135-1.591-4.061-4.061-8.164-8.164-12.22-12.22-5.525-2.849-10.633-5.403-13.731-7.577-11.258-7.911-21.055-17.75-32.483-24.905-2.972-1.675-6.027-3.268-9.084-4.816-1.295-0.544-2.555-1.169-3.892-1.633-2.512-0.46-4.732-1.085-7.202-2.009-0.077-0.038-0.191-0.077-0.344-0.115h0.038c-0.835-0.344-1.675-0.629-2.555-1.046-1.967-0.84-3.263-2.051-4.145-3.39-4.685-1.004-9.417-1.928-14.231-2.597-10.843-4.69-22.561-7.62-34.867-9.168-14.862-4.145-30.055-7.409-46.003-8.371-0.384-0.038-0.798-0.038-1.215-0.077-7.704 0.793-15.488 0.962-23.272 0.793-2.681 0.191-5.318 0.077-7.873-0.269-0.077 0-0.191 0-0.344 0-0.115 0-0.231 0-0.344 0.038 0.038 0.077 0.077 0.153 0.115 0.269-5.145 1.131-10.296 2.262-15.446 3.432-13.351 0.307-27.122 3.77-39.764 6.615-16.408 3.643-33.111 7.831-47.678 16.286-3.221 0.92-6.489 1.841-9.709 2.803-31.396 15.99-59.523 36.754-80.873 68.397-30.43 45.083-46.294 103.31-47.425 161.406-1.089 55.171 21.351 116.619 57.265 166.889 5.733-7.742 12.136-14.986 18.878-21.933-4.732-6.193-9.333-12.474-13.895-18.878-50.354-70.697-60.655-147.384-30.43-222.644 24.445-60.823 70.612-92.469 125.112-115.282 7.413-5.023 17.037-7.7 25.074-9.544 10.088-2.259 20.929-3.976 31.436-3.723 3.812-1.173 7.62-2.093 11.596-2.597 1.925-0.307 3.77-0.077 5.567 0.384 22.855-1.883 45.5-3.685 68.062-2.093 2.888 0.798 5.817 1.675 8.746 2.597 1.384-0.629 3.057-0.92 5.065-0.709 79.742 9.375 166.725 85.936 173.045 168.731 0.46 0.713 0.878 1.464 1.422 2.009 2.765 9.961 5.483 19.924 6.615 30.346 1.089 4.272 1.883 8.666 2.47 13.060 3.348 9.628 5.525 19.465 4.145 30.223-0.191 1.757-0.84 3.263-1.591 4.643-0.307 20.68-3.474 40.313-7.535 59.86-5.272 17.788-12.642 34.951-21.346 51.065-8.915 11.723-18.543 22.519-29.050 32.402 7.075 4.938 11.094 8.117 17.83 13.98 12.014-13.52 22.812-28.257 32.651-43.994 1.883-5.483 3.808-10.967 5.733-16.45 16.201-32.234 23.652-67.475 24.239-104.145 0.077-2.972-0.077-5.775-0.231-8.624 1.422-5.44 2.177-11.094 2.47-16.826z"></path>
    <path fill="#000000" d="M691.389 629.917c-8.455-24.487-20.009-48.304-36.67-68.189-3.559-4.225-11.512-9.544-12.178-15.028-2.765-1.925-5.567-3.765-8.582-5.356-44.665-43.617-119.047-64.379-185.142-53.327-30.388 0.153-60.529 5.483-88.531 17.496-30.346 13.018-60.989 35.788-70.405 65.383-67.56 92.423-12.642 254.331 84.343 309.25 103.977 58.814 242.989 43.617 304.188-61.364 18.249-31.31 28.506-66.598 29.050-102.386 0.231-17.248-1.759-34.533-5.863-51.359-2.846-11.638-6.193-23.441-10.212-35.12z"></path>
    <path fill="#000000" d="M268.013 483.597c-53.327-8.328-110.254-4.225-166.303 0.191-13.98 0.544-27.962 1.506-41.984 2.555-8.037 0.191-16.032 0.793-23.943 1.967-0.077 0.344-0.153 0.709-0.231 1.085 7.7 1.046 17.745 4.981 24.445 5.609 10.128 0.92 20.511 0.586 30.681 1.173 9.712 0.544 19.38 1.173 29.093 1.841 7.62-0.191 15.239-0.502 22.855-1.046 0.038 0 0.038 0 0.077 0 0.502-0.038 1.046-0.077 1.591-0.115 4.521-0.344 9.041-0.671 13.562-1.215 33.862-2.386 67.809-1.131 101.842-0.384 4.23-2.386 13.229-10.925 8.328-11.68z"></path>
    <path fill="#000000" d="M220.638 436.417c-3.808-1.967-7.366-4.225-11.010-6.447-3.554-1.089-7.198-2.051-10.465-3.221-3.432-1.215-6.822-2.304-10.212-3.474-12.934-3.014-26.12-5.567-39.347-7.873-7.746-0.667-15.488-1.63-23.233-2.55-7.868-0.924-18.375-4.314-25.825-0.84-1.3 0.629-2.135 1.131-2.765 1.633 1.004 0.544 2.009 1.173 2.972 1.925 1.215 0.344 2.386 0.755 3.601 1.131 0.46 0.077 0.835 0.307 1.295 0.344 0 0.038-0.038 0.077-0.038 0.115 0.582 0.191 1.211 0.384 1.799 0.629 0.038 0 0.077 0.038 0.077 0.038 1.757 0.231 3.559 0.46 5.107 0.835 1.925 0.418 3.306 1.464 4.436 2.639 22.351 3.432 44.83 6.822 66.345 12.765 2.428 0.671 4.187 1.967 5.356 3.559 2.723 0.544 5.483 1.004 8.122 1.757 3.808 0.755 7.577 1.506 11.385 2.177 6.069 1.046 12.225 3.517 17.163 0.962-1.548-2.175-3.141-4.31-4.774-6.111z"></path>
    <path fill="#000000" d="M191.077 374.36c1.173 0.502 2.346 1.046 3.517 1.548 3.854 1.591 16.286-6.699 11.723-9.459-26.58-16.328-57.097-27.797-85.349-40.98-1.089-0.502-3.057 0.153-4.858 1.253 22.857 18.962 49.477 32.44 74.968 47.635z"></path>
    <path fill="#000000" d="M238.43 522.118c-0.798 0.755-1.759 1.342-2.846 1.548-0.464 0.077-0.84 0.191-1.257 0.307-1.717 0.793-3.432 1.548-5.149 2.344 0-0.46-0.153-0.755-0.46-0.962-1.253 0.344-2.512 0.751-3.765 1.004-0.502 0.077-0.92 0-1.422 0-32.065 11.972-66.598 25.909-96.066 43.825-5.398 2.219-10.801 4.479-16.159 6.699-5.149 2.135-18.041 19.38-7.198 15.235 45.036-17.159 88.654-37.168 131.981-58.223 5.565-2.723 13.559-16.952 2.344-11.765z"></path>
    <path fill="#000000" d="M220.039 577.206c-1.004-3.559-6.151-0.344-7.784 0.671-7.662 4.812-15.319 9.586-22.981 14.357-2.47 1.591-7.577 6.196-6.657 9.628 1.004 3.643 6.362 0.418 8.037-0.671 7.662-4.896 15.319-9.751 22.981-14.651 2.386-1.506 7.324-6.025 6.404-9.333z"></path>
    <path fill="#000000" d="M860.91 587.665c-18.378-14.693-37.759-28.173-57.514-40.895-15.91-6.28-31.899-12.305-47.049-20.3-6.196-1.215-12.431-2.135-18.754-2.639-0.384 0.418-0.793 0.793-1.211 1.211 6.109 16.703 31.98 24.825 46.922 32.567 22.519 11.68 45.5 20.764 67.349 34.073 2.093 0.544 4.187 1.131 6.28 1.506 1.004-0.502 2.048-0.793 3.095-1.173-0.269-0.153-0.46-0.307-0.709-0.46 1.464-1.464 2.47-3.179 1.591-3.892z"></path>
    <path fill="#000000" d="M980.857 497.084c-45.163-2.090-90.33-3.765-135.497-5.314-20.511-1.675-41.064-3.517-61.575-5.356-3.512 0.46-7.071 0.878-10.588 1.548l-6.322 1.295c-5.065-0.384-7.24 2.093-6.653 7.24 1.004 0.307 1.925 0.586 2.719 0.882 0.878 0.344 1.633 0.878 2.344 1.422 49.186 3.306 98.37 6.531 147.594 9.417 22.604-1.089 45.209-2.428 67.771-3.474 3.014-3.685 4.31-7.493 0.191-7.662z"></path>
    <path fill="#000000" d="M841.368 446.494c-22.897 2.555-45.754 5.356-68.481 8.455-3.517 0.502-13.393 10.925-7.324 10.675 10.003-0.384 20.047-0.962 30.051-1.506 0.153 0.191 0.422 0.384 0.84 0.418 4.436 0.418 8.915-0.191 13.393-1.131 1.215-0.077 2.47-0.115 3.723-0.191 0.269-0.307 0.586-0.502 0.882-0.798 1.464-0.344 2.888-0.671 4.31-0.962 4.436-0.962 8.83-1.883 13.271-2.803 6.864-0.798 13.685-2.009 19.882-3.812 0.038-0.077 0.077-0.153 0.115-0.231 1.464-0.798 3.512-2.512 4.727-4.061-4.77-2.262-10.003-3.432-15.404-4.019z"></path>
    <path fill="#000000" d="M852.573 379.585c-7.118 3.685-14.149 7.451-21.262 11.221-18.041 7.535-36.543 15.070-53.289 24.905-0.544 0.344-1.464 1.215-2.47 2.344-1.925 0.798-3.85 1.675-5.775 2.47-1.675 0.671-4.314 3.394-6.238 6.027-1.337 0.713-2.635 1.426-3.976 2.093 1.342 0.755 2.555 1.883 3.474 3.432 0.384-0.077 0.713-0.077 1.3-0.307 25.032-10.13 49.599-20.178 73.504-32.858 1.63-0.84 3.639-2.765 5.272-4.901 2.386-1.211 4.732-2.386 7.118-3.597 5.107-2.639 12.474-16.117 2.344-10.843z"></path>
    <path fill="#000000" d="M792.877 618.088c-7.493-7.118-14.817-14.315-22.393-21.304-6.653-6.154-12.849-13.229-20.009-18.88-1.464-0.624-2.93-1.211-4.394-1.883-0.384-0.153-0.586-0.46-0.878-0.667-3.892 0.709-9.126 6.067-7.535 9.037 0.92 1.802 2.093 3.517 3.221 5.234 8.375 5.149 16.83 10.172 23.989 17.037 1.211 1.173 2.006 2.428 2.508 3.685 8.037 4.394 16.328 8.873 23.023 14.606 2.47-2.512 4.019-5.398 2.47-6.864z"></path>
    <path fill="#000000" d="M799.615 367.469c-1.548-1.715-5.276 1.173-6.28 2.093-3.85 3.348-7.657 6.699-11.512 10.003-1.169 1.046-4.352 4.394-2.803 6.111 1.548 1.715 5.276-1.257 6.32-2.177 3.812-3.348 7.62-6.699 11.431-10.046 1.169-1.004 4.394-4.268 2.846-5.985z"></path>
    </svg>