<svg xmlns="http://www.w3.org/2000/svg" viewBox="86.530 -16.000 839.939 1120.000">
    <path fill="#000000" d="M213.756 341.359c-1.665 2.432-3.627 4.767-5.628 7.030-1.87 2.296-3.944 4.506-6.225 6.599-9.085 8.412-21.333 15.518-35.373 20.471 12.956 7.33 23.782 16.454 31.259 26.325 1.87 2.467 3.535 4.99 4.973 7.59 1.589 2.578 3.103 5.215 4.319 7.908 2.43 5.365 3.925 10.956 4.298 16.865 0.137 5.907 0.356 11.61-0.952 17.33-1.178 5.739-3.366 11.423-6.376 17.068-5.628 11.162-13.909 22.081-25.163 31.783 7.236 1.121 13.948 2.917 20.378 5.179 6.599 2.204 12.675 4.917 18.079 8.133 5.404 3.233 10.113 6.953 14.002 11.216 4.039 3.777 7.291 8.095 9.834 12.937 9.758-12.992 20.49-25.221 32.007-36.624-9.35-22.733-15.424-46.776-17.836-71.25-0.281-7.759-1.253-15.498-1.235-23.293l0.841-23.388 3.254-23.183c1.346-7.664 3.644-15.125 5.29-22.715 8.412-29.932 22.36-58.218 41.036-83.103 18.659-24.883 41.972-46.327 68.351-62.835 26.38-16.546 55.75-28.137 86.243-34.008 30.418-5.758 62.219-6.431 92.917-0.505 30.641 5.684 60.069 16.94 86.542 33.224 26.472 16.265 49.955 37.504 68.838 62.275 18.901 24.753 33.165 52.982 41.821 82.803 8.693 29.8 11.761 61.172 9.217 92.356-2.392 25.387-8.563 50.235-18.19 73.642 11.572 11.423 22.304 23.688 32.081 36.7 0.203-0.486 0.301-1.010 0.541-1.476 2.506-5.348 5.928-10.022 10.191-14.153 4.318-4.112 8.544-8.077 13.984-11.311 10.526-6.601 24.398-11.18 38.401-13.704-11.31-9.572-20.154-20.49-25.537-31.522-5.928-11.199-9.161-22.658-7.479-34.306 0.374-11.761 5.553-22.49 13.348-32.456 7.236-9.926 17.835-19.144 30.662-26.585-13.348-4.936-26.212-11.872-35.428-20.21-4.787-4.132-8.244-8.768-11.78-13.555-3.476-4.825-6.038-10.040-7.59-15.722-0.766-2.859-1.252-5.739-1.477-8.656-0.432-2.859-0.692-5.703-0.654-8.619 0.053-5.833 1.103-11.797 2.973-17.892 2.036-6.15 4.298-12.132 7.385-18.133 3.103-6.003 6.972-11.985 11.535-17.743-7.293 0.243-14.359-0.243-20.958-1.326-6.637-1.102-13.367-2.505-19.237-4.695-5.928-2.151-11.274-4.917-15.91-8.375-4.692-3.423-9.292-7.124-12.788-11.872-3.664-4.602-5.888-10.115-8.075-15.442-2.113-5.385-3.347-11.293-3.851-17.592-0.729-12.807 0.505-26.323 4.822-40.346-27.127 11.088-53.843 12.283-73.717 0.292-5.066-3.029-9.402-6.918-13.105-11.554-3.832-4.432-7.234-9.236-9.983-14.9-5.514-11.312-8.899-25.221-10.096-39.468-10.599 10.358-22.247 18.006-33.746 22.398-11.797 5.255-23.35 6.674-34.886 4.466-11.684-1.422-21.836-8.095-31.108-16.265-9.199-8.207-17.387-19.668-23.612-33.167-6.114 13.069-14.228 25.147-23.371 33.467-9.234 8.002-19.33 14.694-30.959 16.544-5.871 0.747-11.591 1.141-17.387 0.582-5.796-0.617-11.666-2.224-17.557-4.695-11.722-4.807-23.256-11.778-33.968-22.135-0.468 7.291-1.589 14.265-3.292 20.733-1.608 6.712-3.72 13.105-6.412 18.771-2.692 5.703-5.963 10.75-9.853 15.032-3.739 4.524-7.927 8.599-12.956 11.666-10.264 5.85-21.312 9.067-34.008 8.842-12.843-0.486-26.099-2.821-39.71-8.488 4.6 14.116 5.684 27.389 5.122 40.271-0.746 12.748-5.009 23.388-11.629 33.165-3.496 4.747-7.777 8.675-12.768 11.929-4.582 3.515-9.853 6.356-15.724 8.599-5.889 2.204-12.358 3.835-19.238 4.84-6.712 1.102-13.648 1.718-20.958 1.553 9.385 11.517 15.61 23.707 19.2 35.692 1.982 6.075 3.141 12.059 3.328 17.909 0.262 5.871-0.935 11.442-2.092 17.238-1.402 5.739-3.852 10.993-7.198 15.854z"></path>
    <path fill="#000000" d="M506.731 523.422c-85.027 0-162.316 32.978-219.898 86.766 43.729-76.147 125.785-127.467 219.898-127.467 94.115 0 176.169 51.32 219.898 127.467-57.582-53.787-134.869-86.766-219.898-86.766zM506.731 450.472c-158.37 0-286.772 128.384-286.772 286.773 0 158.371 128.402 286.755 286.772 286.755 158.372 0 286.774-128.383 286.774-286.755 0-158.389-128.402-286.773-286.774-286.773z"></path>
    </svg>