<svg xmlns="http://www.w3.org/2000/svg" viewBox="53.252 -16.785 913.304 1057.034">
    <path fill="#000000" d="M796.923 815.189c0.176 8.556-4.007 14.599-8.989 21.271-2.755 3.669-4.882 7.251-8.602 10.15-3.526 2.759-7.78 4.687-11.649 6.814-9.617 5.177-20.062 5.753-30.792 6.575-21.128 1.692-41.961 0.247-62.412-5.22-16.098-4.254-32.149-8.602-48.099-13.486-6.188-1.882-12.62-3.869-18.273-7.104-5.030-2.901-8.602-7.253-13.443-10.345-12.908-8.218-24.654-18.125-37.754-26.105-6.719-4.060-14.699-5.177-21.418-9.379-0.723-0.438-1.494-1.067-2.222-1.647 1.548-10.345 2.855-20.595 4.159-23.156 3.436-6.719 7.59-11.505 12.426-17.212 4.254-5.025 7.347-10.245 12.277-14.842 6.188-5.653 13.005-9.955 20.208-13.581 2.898-2.946 6.14-5.315 10.198-6.914 6.916-2.755 15.132-6.381 22.432-7.98 9.279-1.984 18.754-1.64 28.185-1.64 7.395 0 15.18-0.97 22.332 1.258 7.538 2.37 15.036 5.126 22.817 6.672 3.674 0.775 7.352 1.16 10.978 2.321 5.896 1.838 11.311 4.982 16.869 7.59 12.377 5.748 24.316 12.958 35.775 20.4 9.764 6.334 18.563 13.68 25.91 22.82 6.672 8.261 13.244 16.098 17.45 26.010 3.431 7.975 1.447 18.273 1.642 26.732zM436.924 830.224c-17.887 10.635-36.596 20.11-55.692 28.375-9.184 4.010-17.836 8.846-26.876 12.956-6.576 2.946-13.194 4.254-20.4 4.159-14.985-0.21-32.34-1.355-46.794-5.948-16.336-5.174-32.004-15.708-44.715-27.020-6.429-5.753-8.556-13.248-11.268-21.223-1.984-5.704-3.044-10.588-2.27-16.679 1.018-7.828 4.788-14.552 7.928-21.656 2.946-6.575 5.172-13.486 8.894-19.724 10.973-18.512 26.010-34.709 48.194-38.435 9.38-1.542 20.452 0.438 29.828 1.546 6.719 0.771 13.295 2.175 20.11 2.804 10.444 0.97 20.838 2.223 31.278 3.388 13.343 1.452 27.020 4.012 39.734 8.268 7.828 2.56 15.856 4.449 23.545 7.588 6.814 2.856 13.148 14.89 19.964 17.692 9.184 3.774 18.511 21.946 27.748 37.469-0.633 0.438-1.26 0.918-1.884 1.258-15.665 8.602-31.954 16.003-47.328 25.187zM882.3 790.148c-0.923-8.118-3.916-15.903-5.948-23.831-2.175-8.456-4.254-16.241-9.184-23.636-5.077-7.542-11.068-14.647-16.488-21.999-6.524-8.989-15.322-15.132-23.931-21.946-15.086-11.939-31.858-23.441-49.162-31.901-9.092-4.449-17.602-9.817-26.881-13.828-9.474-4.012-19.577-6.477-29.341-9.716-17.645-5.9-36.596-5.463-55.018-5.463-15.422 0-33.981-2.804-48.485 3.485-6.624 2.85-12.715 6.814-19.386 9.716-6.381 2.806-13.1 4.887-19.434 7.737-7.78 3.481-15.372 7.588-23.593 10.055-7.828 2.37-15.613 3.959-23.346 6.814-4.302 1.64-8.846 3.282-13.392 5.124-0.438-7.538-0.871-15.084-1.404-22.622-1.404-21.271-1.26-42.302-4.012-63.474-1.837-14.309-4.497-28.476-6.429-42.784-1.596-11.701-1.789-23.494-2.898-35.242-0.776-8.508-1.884-16.969-3.050-25.477 2.565-1.984 4.887-4.254 6.916-6.863 15.708-0.21 31.373 0.071 47.18-1.838 11.944-1.452 24.074-0.82 36.114-0.722 9.764 0.034 18.953-1.16 28.618-2.519 8.17-1.108 16.336-2.946 24.606-3.189 6.476-0.176 13.005 0.071 19.48 0.071 10.878-0.071 21.466 2.418 32.244 2.852 9.817 0.393 19.676-0.484 29.489-0.106 8.894 0.352 7.106 7.447 8.751 14.747 2.032 8.989 3.093 17.212 10.926 23.445 6.672 5.315 16.484 4.349 22.817-0.823 4.111-3.332 2.56-8.118 2.56-13.148-0.041-6.185-0.628-12.566 0.174-18.658 1.066-7.928 4.397-15.372 5.126-23.35 0.723-8.413-0.174-16.826 0.218-25.182 0.395-8.17 4.010-15.812 3.964-23.978 0-5.225-1.548-11.222-4.254-15.812-3.24-5.363-10.155-8.508-16.293-8.508-5.848 0-10.683 6.381-12.325 11.749-1.31 4.302-0.971 8.894-3.050 13.148-2.755 5.653-7.009 12.23-12.572 15.275-5.025 2.755-10.34 2.755-15.951 2.85-6.719 0.104-13.633 0.174-20.3-0.034-9.184-0.314-18.278-1.596-27.509-1.501-8.508 0.071-16.774-0.352-25.236-1.014-6.472-0.531-12.953 0-19.382-0.438-7.495-0.438-14.794-2.463-22.336-2.71-5.848-0.176-11.696 0.316-17.597-0.034-21.899-1.303-43.17-6.134-65.311-5.363-6.914 0.176-19.434-4.111-30.455-6.914 1.114-1.596 2.032-3.286 2.609-5.225 1.018-3.141 1.404-6.524 1.499-9.812 0.676-21.513-2.708-42.832-3.093-64.297-0.176-10.926 0.395-21.804-0.176-32.678-0.262-4.497-0.584-8.989-0.923-13.486 1.884-1.741 3.626-3.674 5.073-5.852 1.933 0 3.916 0 5.9 0 9.089 0 17.5 0.352 26.491 1.741 4.544 0.681 9.044 1.355 13.538 2.37 3.912 0.924 7.588 2.806 11.649 2.901 4.349 0.071 7.685 1.688 11.987 2.418 7.495 1.205 17.84 1.445 24.754-1.789 4.497-2.126 9.379-4.302 14.257-5.416 3.724-0.916 7.737-1.303 11.558-1.879 2.66-0.438 10.34-1.692 12.715-0.071 3.141 2.025 1.593 9.184 0.676 12.13-1.114 3.626-3.098 7.251-1.837 11.216 1.014 3.193 4.592 7.928 7.347 9.67 5.902 3.768 17.55 8.652 23.883 3.433 3.774-3.189 3.193-9.764 3.288-14.114 0.134-7.253 0.395-14.842 0.086-22.092-0.352-7.398-3.674-14.166-4.397-21.513-0.723-7.642-2.514-14.937-4.111-22.433-3.044-14.066-5.124-29.003-5.515-43.36-0.086-4.302 0.221-10.393-1.642-14.361-1.26-2.804-2.175-2.467-5.077-2.512-7.3-0.176-16.193 0.21-20.205 7.106-1.644 2.804-4.060 5.172-5.653 7.979-2.274 4.111-1.933 10.15-2.032 14.596 0 2.126-0.134 4.349 0 6.524 0.086 1.838 1.204 4.111 1.256 5.802 0.041 2.707-1.109 4.208-3.282 5.801-6.624 4.787-18.615 4.544-26.348 5.51-6.628 0.872-12.667 0.352-19.291-0.438-6.966-0.82-13.972-0.034-20.933-0.176-6.767-0.14-13.053-2.223-19.724-2.804-4.349-0.393-8.751-0.071-13.1-0.071-7.347 0.034-14.552 0.21-21.704 0.722-0.352-0.316-0.676-0.582-1.014-0.82 0-3.578 0.045-7.157-0.086-10.73-0.352-11.411-1.447-22.627-1.447-34.033 0-5.073 0.045-8.989 1.061-13.776 0.584-2.512 0-4.936 0.633-7.447 0.438-1.741 1.014-2.66 1.109-4.497 0.352-7.2 0-14.547-0.041-21.803 0-4.111-0.174-5.124 2.946-7.975 10.878-9.912 25.863-15.908 32.629-29.441 1.837-3.724 5.225-7.347 6.819-11.021 0.532-1.26 0.918-2.755 0.676-4.159-0.823-4.497-6.188-7.2-10.055-8.461-6.429-2.078-11.649-1.303-18.078-0.21-4.111 0.674-8.123 0.034-12.282 0.176-4.010 0.14-5.124 1.16-8.461 2.512-6.672 2.759-13.681 4.302-20.205 7.352-4.544 2.175-8.8 1.303-13.681 0.352-6.524-1.31-13.681-3.531-19.772-6.238-9.184-4.060-17.94-11.744-28.037-13.392-7.928-1.307-13.581-0.352-19.291 5.074-2.996 2.852-6.476 4.060-7.98 8.218-2.27 6.091-2.996 18.806 0.438 24.702 5.22 8.894 13.776 8.123 21.994 11.749 16.822 7.49 30.84 28.956 34.028 46.743 0.872 4.93 1.161 9.817 2.512 14.699 1.984 7.057 4.887 13.871 6.286 21.128 1.596 8.456 2.175 17.159 2.417 25.858-6.429 3.144-11.649 8.17-15.032 14.456-8.028 0.674-16.003 1.501-24.032 2.804-7.924 1.209-15.903 1.692-23.883 2.71-7.395 1.014-15.080 0.482-22.428 1.688-4.254 0.681-10.25 2.856-13.633-0.58-2.755-2.804-4.592-4.497-7.98-6.575-4.397-2.755-5.558-7.057-7.252-11.843-1.161-3.286-2.37-6.429-3.098-9.817-1.061-4.93-1.304-10.54-4.93-14.452-2.707-2.998-7.106-5.368-10.345-7.88-2.946-2.321-5.268-4.159-8.989-4.497-1.256-0.14-3.669-0.314-4.787-0.034-3.044 0.674-2.512 2.463-3.093 5.22-1.404 6.624-3.242 13.636-2.37 20.452 0.532 4.159 2.66 7.78 2.803 12.034 0.221 5.514-0.352 11.068-0.174 16.584 0.131 6.381 2.996 11.506 4.010 17.645 0.966 5.9 1.256 12.329 1.542 18.32 0.395 7.495 4.206 13.392 5.463 20.642 0.628 3.621-0.307 7.3 0.045 10.878 0.395 3.621 2.755 6.575 4.835 9.617 1.548 2.223 5.225 8.556 8.075 9.526 7.2 2.418 14.937-11.606 15.998-16.726 1.066-5.073 1.404-10.444 1.548-15.613 0.174-4.687 0.438-6.381 4.206-8.989 10.002-7.014 20.638-6.868 32.391-6.916 9.568-0.034 18.849 0.034 28.28 2.033 7.876 1.647 15.66 4.060 23.64 5.563 4.544 0.82 9.089 0.722 13.681 0.722 2.032 1.501 4.206 2.856 6.576 3.916 0.134 1.546 0.176 3.092 0.395 4.64 2.898 23.688 2.803 47.328 2.803 71.112 0 16.436 0.585 33.015 0.041 49.503-3.816 1.688-7.252 4.007-10.293 6.767-2.127 0.21-4.302 0.484-6.429 0.868-2.175 0.438-4.349 0.872-6.476 1.452-7.062 1.838-13.972 1.108-21.128 1.258-7.69 0.071-15.132 1.501-22.917 1.452-18.463-0.071-37.174 0.82-55.637 0.034-8.508-0.352-16.874-1.546-25.477-1.497-8.413 0.071-15.518-0.174-23.736-1.834-6.039-1.209-12.034-2.374-18.030-3.626-5.073-1.067-10.683-1.789-13.148-6.962-5.852-12.233 0.086-34.756-13.971-42.156-6.524-3.478-15.764 1.497-20.547 5.563-7.78 6.477-6.429 13.533-8.17 22.717-1.689 8.846-2.946 17.018-2.85 26.105 0.086 10.492 0 21.029 0 31.52 0.041 19.144-1.356 38.187-1.356 57.38 0 5.563-0.676 11.506 0 17.018 0.584 4.592 2.998 7.834 6.091 11.068 4.159 4.398 8.989 9.96 15.324 10.298 4.302 0.21 8.703-1.741 12.377-3.869 4.302-2.467 11.601-6.334 13.1-11.744 1.356-4.934 0.086-11.749 0.086-16.679 0-7.928-2.078-18.564 2.755-25.43 1.114-1.595 2.76-2.996 3.774-4.592 1.308-2.033 1.546-4.592 3.772-5.996 2.512-1.595 7.2-0.674 10.102-0.674 2.855 0 5.706-0.034 8.556 0 3.821 0.034 7.304-0.393 11.068-1.059 4.982-0.97 10.345-0.352 15.427-0.352 15.66 0 31.324 0.034 46.986 0 17.5 0 34.856 1.404 52.352 1.404 11.796-0.034 23.445-0.174 35.142-0.674 3.288 3.621 7.304 6.672 11.749 8.894-0.221 20.3-2.903 40.314-3.774 60.62-0.438 10.444-0.532 20.638-1.694 31.035-1.014 9.617-1.447 18.952-1.399 28.664 0.086 16.003-0.086 32.054-0.041 48.099-3.098-1.352-6.286-2.56-9.622-3.526-22.38-6.429-44.521-14.552-67.438-19.001-17.74-3.438-35.675-4.976-53.757-4.882-7.104 0.034-14.257 0.034-21.414 0-8.898-0.071-17.016 1.303-25.815 2.418-9.38 1.156-18.228 3.141-27.509 4.976-10.973 2.175-21.946 4.012-32.34 8.413-18.079 7.636-31.565 20.79-41.766 37.416-4.254 7.009-6.863 14.599-9.232 22.428-2.27 7.69-2.465 15.375-3.915 23.206-2.708 14.31-7.639 27.894-9.137 42.446-0.868 8.508-0.58 17.012-0.629 25.52-0.093 10.055 0.097 18.468 3.481 28.136 6.963 19.867 12.519 40.752 23.058 59.12 7.348 12.81 17.016 23.207 28.036 32.829 7.011 6.086 14.645 10.828 22.481 15.808 4.449 2.852 8.703 5.9 13.681 8.028 5.272 2.223 10.83 3.768 16.198 5.796 7.924 3.051 15.086 5.514 23.588 6.286 8.17 0.722 16.388 0.924 24.559 0.316 9.041-0.674 17.887-2.223 26.586-4.544 11.021-2.897 21.608-4.012 32.824-5.753 18.953-2.897 37.754-8.072 55.252-15.951 8.266-3.774 16.198-7.78 24.754-10.878 7.975-2.852 15.372-5.948 22.67-10.298 11.068-6.524 18.42-14.308 25.62-24.944 2.996-4.449 5.996-9.089 9.864-12.81 2.37-2.321 8.166-7.538 11.987-5.948 3.531 1.452 4.835 7.979 7.2 11.021 2.855 3.724 9.33 6.819 13.244 9.574 7.495 5.172 16.388 9.089 24.754 12.762 10.052 4.449 20.785 7.2 31.13 11.068 8.894 3.332 17.5 6.381 26.829 8.316 19.239 4.058 38.724 7.251 58.206 10.293 17.935 2.856 35.484 6.238 53.71 7.352 21.756 1.303 43.75 1.64 65.549 1.64 9.136 0 19.048 1.16 28.137-0.352 9.279-1.542 17.164-6.624 24.316-12.516 6.962-5.753 12.908-12.52 18.901-19.291 6.238-7.109 12.956-14.022 18.658-21.561 5.61-7.447 8.798-15.47 11.121-24.459 1.786-7.157 4.497-14.552 5.172-21.951 1.499-16.772-0.918-33.548-2.803-50.179z"></path>
    </svg>