<svg xmlns="http://www.w3.org/2000/svg" viewBox="82.903 15.799 875.337 1057.940">
    <path fill="#000000" d="M707.142 752.569c0-9.19-1.054-18.296-0.645-27.525 0.146-4.249 1.132-8.376 1.332-12.59 0.257-5.951 0.037-11.819-0.727-17.688-1.619-12.876-3.077-25.788-4.536-38.664-1.454-13.317-2.952-26.633-4.693-39.914-1.054-8.054-2.185-16.19-2.551-24.329-0.366-7.57-0.075-15.18-0.075-22.789-0.034-31.821 0-63.678 0-95.499 0-32.71-0.146-65.337 1.58-98.007 0.649-12.59 1.82-25.136 1.941-37.725 0.112-13.159-0.034-26.314-0.034-39.431 0-11.945 0.183-23.842-0.971-35.748-1.297-13.237-0.931-26.554-2.512-39.788-1.494-12.185-2.268-24.495-3.034-36.762-0.57-8.867-1.258-17.809-1.175-26.676 0.037-2.431 0.526-4.98-2.429-5.019-1.136 0-2.185 0.118-3.321 0-1.54-0.146-2.956-0.809-4.414-1.296-5.789-1.864-11.737-3.561-17.727-4.815-13.281-2.716-27.164-4.172-40.767-5.019-12.302-0.772-24.892-1.458-37.242-0.483-9.19 0.725-18.218 2.429-27.407 3.196-11.497 0.93-23.037 0.732-34.53 1.458-6.52 0.406-13.034 0.263-19.554 0.406-5.951 0.146-11.9 0.486-17.853 0.692-11.172 0.331-22.263 0.565-33.437 0.605-19.067 0.028-38.012-1.985-56.957-3.683-6.804-0.605-13.442-0.971-20.281-1.014-1.258 0-4.575-0.605-5.585 0.329-1.337 1.172 0.366 3.361 0.848 4.571 3.561 9.39 2.508 20.808 2.386 30.524-0.075 8.541-1.253 16.717-2.913 25.1-1.742 8.745-2.956 17.565-3.804 26.433-1.941 20.038-2.311 40.197-2.877 60.318-0.366 12.629-0.566 25.222 0.034 37.85 0.812 16.273 2.186 32.466 2.673 48.742 0.928 29.267 0.075 58.576 0.971 87.885 0.77 26.189 2.877 52.386 5.546 78.492 2.268 22.345 4.335 44.694 3.724 67.2-0.444 17.247-1.132 34.368-2.469 51.572-1.054 13.564-3.117 27.082-4.858 40.606-0.766 6.234-1.58 12.467-2.429 18.662-0.731 5.141-1.093 10.487-2.386 15.502-0.692 2.552-2.594 3.724-2.551 6.477 0.108 4.78 0.366 9.634-0.766 14.291 1.132-1.78 1.902-3.887 3.887-5.062 3.239-1.941 7.771-1.418 11.335-1.377 8.946 0.059 17.853-0.483 26.759-0.849 13.965-0.565 27.891-0.366 41.86-0.406 16.072-0.059 32.222-0.93 48.251-1.702 15.223-0.692 30.241-2.31 45.299-4.335 25.301-3.4 50.764-7.448 76.349-7.892 16.355-0.329 32.627 0.146 48.982 1.215 5.062 0.366 10.117 0.849 14.857 2.751 2.469 0.973 4.737 2.385 7.165 3.278 4.249 1.618 9.028-0.403 13.237 0.729 0.037 0.608 0.112 1.175 0.187 1.78 0.187 0.028 0.409 0.059 8.301 5.425z"></path>
    <path fill="#000000" d="M626.57 768.314c-0.112-0.443-0.075-0.853 0.112-1.256 0.812-0.028 1.458-0.483 2.067-0.605 1.576-0.331 3.396-0.295 5.016-0.028 3.765 0.443 7.531 2.062 10.97 3.521 4.213 1.78 8.18 3.561 11.783 6.355 3.605 2.753 7.165 5.667 10.117 9.067 1.337 1.578 2.594 3.239 3.765 4.941 0.974 1.054 1.781 2.186 2.433 3.443 0.727 2.065 0.688 4.209 1.54 6.273 1.049 2.512 1.985 4.78 3.482 7.044 3.439 5.224 7.327 10 11.497 14.696 4.17 4.737 8.867 8.018 14.17 11.379 2.712 1.737 5.546 3.724 8.376 5.259 2.103 1.135 4.536 1.82 6.76 2.793 2.59 1.092 5.141 1.256 7.853 1.904 2.594 0.645 4.819 2.146 7.366 2.834-2.103-0.331-4.452-0.059-6.596-0.059-5.425 0.028-10.082-0.483-15.262-2.146-4.693-1.54-9.311-3.361-14.165-4.17-2.35-0.366-4.697-0.483-7.004-1.014-2.268-0.527-4.010-1.333-6.399-1.414-8.215-0.146-15.301-1.864-21.087-7.935-2.39-2.469-4.618-5.181-6.52-8.015-0.444-0.645-1.258-1.337-1.58-2.062-0.366-0.812-0.295-1.54-0.727-2.434-1.053-2.102-2.268-4.371-3.644-6.273-1.781-2.469-3.683-4.209-5.994-6.152-1.010-0.853-1.698-1.985-2.751-2.834-1.458-1.215-3.4-2.025-5.062-3.038-4.005-2.469-8.297-4.936-12.467-7.083-7.487-3.848-16.111-5.302-22.871-10.487-2.551-1.941-6.356-4.536-7.979-7.327-0.444-0.812-1.537-3.561-1.132-4.414 1.54 0.41 2.751 1.743 4.17 2.471 2.064 1.092 4.049 1.578 6.317 2.186 4.127 1.135 8.136 2.71 12.546 1.985 1.419-0.176 3.199-0.689 4.453-1.337 1.092-0.565 1.985-1.498 3.199-1.864 6.152-1.985 11.858 0.366 18.218 2.512z"></path>
    <path fill="#000000" d="M385.108 764.432c0.183 0.028 0.366 0.059 0.566 0.118 0.366 1.259 0.295 3.199 0.034 4.493-1.010 6.317-4.614 11.945-9.39 16.072-11.053 9.634-28.497 10.325-42.465 9.229-7.975-0.605-15.749-2.469-23.559-3.887-7.366-1.296-14.735-2.71-22.183-3.321-7.248-0.645-14.816-1.458-21.981-0.059-2.714 0.53-5.302 1.864-7.893 2.753-2.592 0.849-4.006 1.578-5.991 3.361-2.268 2.102-4.817 4.371-7.488 6.029-2.876 1.78-6.074 2.956-8.945 4.819-3.399 2.186-6.638 4.693-10.162 6.717-4.373 2.471-8.501 3.199-13.522 3.16-4.495-0.028-9.269 0.443-13.724-0.118-4.412-0.527-9.433-2.387-13.278-4.536-4.696-2.589-8.988-5.628-13.479-8.54-2.347-1.54-4.857-2.996-7.004-4.819-0.607-0.483-1.741-1.054-1.419-1.985 1.256 0.329 2.387 2.956 3.238 4.049 0.851 1.175 2.064 1.941 2.793 3.199 1.256 2.062 2.714 4.41 3.277 6.76 1.052 4.614 3.399 8.498 6.275 12.385 1.173 1.659 2.996 4.375 4.696 5.55 1.296 0.887 3.277 1.253 4.735 1.904 5.908 2.589 11.982 2.831 18.34 2.831 5.141 0 10.162 0 15.303-0.483 5.952-0.527 12.145-0.483 18.056-1.582 4.616-0.849 8.824-2.469 13.279-3.966 5.628-1.941 11.416-3.521 17.084-5.345 3.805-1.215 7.571-2.793 11.416-3.887 4.857-1.377 10.12-1.78 15.099-2.31 6.474-0.689 13.682-1.011 19.999 0.812 1.698 0.605 3.396 1.259 5.059 1.941 2.024 0.565 4.053 1.054 6.076 1.458 2.751 0.725 5.345 1.941 8.093 2.71 8.663 2.39 17.53 2.31 26.397 2.716 10.038 0.403 19.348 1.659 28.861-2.31 6.56-2.751 11.257-8.82 14.17-15.057 2.433-5.263 1.54-10.199-0.566-15.502-2.469-6.237-6.882-11.823-11.575-16.638-2.794-2.834-5.546-5.793-8.907-7.979-0.569-0.366-2.633-1.864 0.688-0.725z"></path>
    <path fill="#000000" d="M670.458 761.636c0.034-0.176 0.075-0.366 0.112-0.565 1.171-0.331 2.429-0.263 3.683-0.565 4.049-1.135 7.448-1.743 11.737-1.54 6.52 0.331 14.209 2.509 20.077 5.224 3.278 1.54 6.721 2.713 9.999 4.249 4.209 1.904 8.015 4.618 12.062 6.761 2.673 1.414 5.384 2.791 8.18 4.049 4.088 1.82 8.258 2.669 12.51 3.966 3.113 0.93 6.111 2.146 9.39 2.429 3.113 0.263 6.273 0.028 9.433 0.028 12.185 0.059 24.57-3.034 34.734-9.835 8.745-5.868 13.969-15.828 17.164-25.544 1.941-5.789 2.149-10.93-1.82-15.749-1.293-1.538-2.791-3.073-4.41-4.332-1.82-1.418-3.199-1.54-5.345-2.146-2.346-0.692-4.737-0.527-7.247-0.527 1.093 0 2.307 0.263 3.239-0.295 0.405-0.263 0.444-0.765 0.766-1.051 0.812-0.732 1.419-0.973 2.551-1.175 6.799-1.377 15.097 1.054 20.524 5.019 1.54 1.135 3.077 2.347 4.492 3.644 2.673 2.387 5.994 4.737 8.26 7.488 3.844 4.697 4.532 11.131 7.126 16.394 2.59-0.927 3.239-5.868 3.278-7.931 0-2.673 0.075-5.464-0.037-8.14-0.075-1.172 0.075-1.864-1.136-2.509 2.064 1.377 4.575 2.347 6.639 3.804 6.636 4.697 12.51 10.283 16.881 17.164 4.94 7.735 4.492 18.096-0.075 25.831-6.399 10.891-15.505 21.37-28.378 24.652-7.448 1.864-14.735 3.966-22.263 5.302-8.379 1.498-16.799 2.025-25.262 2.025-4.815 0-9.472 0.028-14.252-0.645-4.532-0.61-9.028-1.498-13.438-2.512-7.892-1.82-13.765-5.224-20.564-9.268-2.024-1.172-4.092-2.186-5.955-3.605-2.225-1.702-4.127-3.4-6.636-4.693-1.459-0.772-2.716-1.941-4.127-2.834-2.551-1.578-5.224-2.995-7.814-4.532-6.072-3.604-12.302-7.044-18.701-10.082-5.99-2.831-12.389-4.941-18.501-7.448-5.019-2.062-10.325-4.371-15.667-5.384-2.712-0.483-5.908 0.146-8.459-0.565 0.187-0.406 0.33-0.812 7.247-4.575z"></path>
    <path fill="#000000" d="M423.198 815.194h1.82c-2.673 0-4.78-1.135-7.57-0.366-2.673 0.772-6.356 3.482-8.379 5.425-1.702 1.618-1.58 3.321-1.54 5.546 0.112 6.155-1.659 12.306-2.873 18.34-1.175 5.868-4.292 12.224-8.663 16.515-1.58 1.575-3.683 2.995-5.585 4.17-2.917 1.82-5.507 1.82-8.785 1.82-4.9 0-7.609-1.78-11.414-4.697-1.58-1.253-2.956-1.82-3.605-3.644-0.53-1.454-1.136-2.791-1.82-4.209-0.366-0.765-1.093-1.618-1.376-2.307-0.405-0.973 0.108-2.025-0.257-2.956-3.199 2.186-5.585 4.375-6.029 8.422-0.33 3.113-2.107 5.951-2.107 9.107 0.034 2.629 1.82 4.776 3.16 6.965 1.863 3.157 2.834 4.41 6.195 5.99 3.844 1.864 7.122 3.4 11.454 3.4 5.102 0.028 10.117 0.565 15.18 0.689 4.657 0.118 8.867-0.565 13.237-2.146 4.497-1.659 9.19-3.804 12.833-7.005 4.414-3.843 7.696-8.785 11.579-13.155 3.605-4.005 6.682-7.649 8.175-12.833 1.258-4.335 3.521-8.26 4.819-12.59 0.928-3.038 0.766-6.317 1.419-9.433 0.889-4.172 3.073-7.084 6.312-9.716 2.996-2.429 5.546-4.854 9.229-6.312 3.117-1.259 5.912-1.743 9.229-1.702-9.716-0.028-19.389 0-29.066 0-2.912 0-5.789 0-8.702 0-2.512-0.028-5.062-0.329-7.448 0.689-6.438 2.716-8.14 10.848-9.638 16.681z"></path>
    <path fill="#000000" d="M299.777 110.814c0.075 6.438-1.293 12.75-2.186 19.11-0.566 4.249-1.902 8.376-2.548 12.628-0.692 4.497-0.649 8.946-0.609 13.482 0.037 9.956-0.483 19.999 0.33 29.954 0.971 12.267 0.146 24.494 2.307 36.715 2.469 14.008 4.571 28.378 5.384 42.588 0.366 6.843 1.376 13.682 1.941 20.524 1.053 13.076 3.321 25.949 6.191 38.821 3.521 15.749 2.512 31.861 2.512 47.893 0 14.897 0.566 29.954-0.075 44.891-0.892 19.149-2.551 38.295-3.4 57.484-0.366 7.165-0.931 14.33-1.136 21.456-0.187 8.619-0.034 17.283-0.034 25.906 0.034 9.268-0.727 18.501-0.688 27.729 0 7.57 0.034 15.141 0.034 22.711 0 9.956-0.366 19.959-0.075 29.915 0.254 8.301 1.419 16.476 1.781 24.778 0.809 18.010 0.295 36.148 0.295 54.201 0 7.005-0.108 14.048-0.034 21.051 0.075 6.721 0.928 13.317 1.701 19.959 0.971 8.946 0.075 18.175-1.941 26.92-0.487 2.102-0.295 3.804-2.146 5.18 1.253-0.263 2.346 0.263 3.518 0.446 1.701 0.295 3.361 0.028 5.019 0.263 5.181 0.645 9.598 3.482 14.897 3.077 2.755-0.204 5.585-0.53 8.301-1.092 1.498-0.295 3.038-0.893 4.618-0.853 2.307 0 4.249 1.498 6.556 1.377-0.688-0.483-0.444-1.904-0.526-2.629-0.33-2.025-0.731-4.049-1.053-6.076-0.606-3.843-1.659-7.531-2.146-11.414-0.727-5.789-2.712-11.172-2.712-17.082 0.034-6.682 0.727-13.321 0.688-19.999-0.075-11.74 0.645-23.438 1.175-35.178 0.526-12.145 0.848-24.251 0.809-36.432-0.034-16.193 0.727-32.305 0.688-48.498-0.034-13.524 0.692-26.963 0.649-40.481 0-8.584-0.33-17.247 0.146-25.87 0.605-10.4 0.566-20.847 1.049-31.291 0.409-9.351 0.187-18.74 0.112-28.052-0.037-14.131 1.253-28.177 1.902-42.261 0.483-11.54-0.254-22.994-0.569-34.489-0.295-10.164-0.971-20.281-1.498-30.442-0.295-5.908-0.766-11.858-1.010-17.813-0.295-5.384-0.034-10.77-0.295-16.193-0.448-10.039-1.136-20.077-1.701-30.116-0.53-9.799-0.483-19.633-0.974-29.428-0.483-9.19-0.727-18.379-0.566-27.608 0.146-7.248 0.727-14.371 0.688-21.618 0-16.803-0.034-33.602 0-50.401 0-1.337 0.183-2.793 0.075-4.127-0.146-1.743-1.171-2.716-1.781-4.292-0.971-2.469 0.366-2.875 2.15-2.831l-44.045-38.332c-2.629-0.443-1.781 4.088-1.781 5.868z"></path>
    <path fill="#000000" d="M747.605 725.606c-0.409-6.273-0.731-12.425-1.498-18.662-1.297-10.199-1.702-20.643-2.268-30.929-1.376-23.842 0.766-47.728 0.971-71.61 0.112-12.467-0.112-24.979-0.075-37.446 0.075-12.672 1.376-25.297 2.386-37.93 1.985-24.656 2.064-49.308 3.16-74.003 0.605-14.008 1.902-27.93 1.902-41.938-0.037-11.172-0.295-22.345-0.688-33.516-0.853-24.129-2.634-48.176-3.561-72.302-0.444-12.145-1.297-24.286-1.781-36.475-0.405-9.838-1.781-19.677-1.985-29.51-0.295-16.233-1.58-32.67-3.724-48.741-2.19-16.193-5.789-32.305-9.028-48.337-1.58-7.649-2.755-14.936-2.673-22.75 0.034-3.966 0-7.892 0-11.863 0.034-0.889 0.112-1.743-0.257-2.429l-29.549 33.032c0.33 0 0.688 0 1.010 0.118 0.487 1.941 0.487 4.213 0.692 6.237 0.295 2.952 0.727 5.908 0.766 8.867 0.037 7.609 1.175 15.097 2.472 22.589 0.928 5.102 1.132 10.242 1.619 15.38 0.645 6.56 1.655 13.077 2.59 19.554 0.848 5.546 0.605 11.131 1.258 16.638 0.645 5.546 1.454 11.092 2.386 16.555 1.941 11.984 3.561 24.251 4.209 36.353 0.53 10.726 0.77 21.417 1.742 32.144 1.175 12.833 1.054 25.866 1.054 38.739v28.3c0 43.963 0.146 87.965 0 131.928-0.037 6.317 0.146 12.55 0.526 18.823 0.366 6.195 0.112 12.428 0.483 18.666 0.409 7.448 0.146 14.897 0.974 22.306 0.645 5.99 1.258 11.9 1.54 17.892 0.645 12.55 0.444 25.060 0.483 37.604 0.037 9.638-1.014 19.149-1.337 28.744-0.146 5.951-1.332 11.823-1.376 17.773-0.037 5.019 0.22 9.956-0.295 14.979-0.645 7.084-1.092 14.252-1.010 21.334 0.112 8.175-1.659 15.989-2.512 24.086-0.146 1.259 0.731 7.005-0.566 8.301 0.688 0.849 1.214 1.454 1.54 1.864 0.605 0.443 0.848 0.927 0 0-0.112-0.118-0.295-0.263-0.444-0.329-0.112 1.215 1.253 3.117 2.307 3.361 0.971 0.146 2.185-0.406 3.117-0.645 2.791-0.809 5.707-1.296 8.498-1.985 2.716-0.689 5.384-1.259 8.057-1.985 2.064-0.527 3.927-1.377 6.111-1.337 2.103 0.028 3.683 1.337 5.707 1.458-0.928-1.421-1.376-4.9-1.619-6.399-0.645-4.088-1.049-8.337-1.332-12.51z"></path>
    <path fill="#000000" d="M725.457 97.942c-0.33-0.406-1.332-0.765-1.82-1.095-1.454-1.048-2.629-0.809-4.532-0.809-8.015 0-16.072-0.146-24.086 0.118-8.745 0.329-17.448 1.215-26.236 1.175-8.867 0-17.77 0-26.633 0-10.325 0-20.729-0.263-31.051-0.028-7.857 0.118-15.667 0.725-23.559 0.689-8.623-0.028-17.247 0.366-25.866 0.973-7.452 0.527-14.94 0.295-22.428 0.295-13.278 0-26.554 0-39.836 0-15.26 0-30.559 0.028-45.865 0-14.453-0.028-28.904 1.051-43.396 1.293-7.287 0.118-14.532 0.812-21.819 1.175-8.459 0.366-17 0.118-25.461 0.118-13.761 0-27.729 0.483-41.412-1.296-4.9-0.605-9.96-1.051-14.735-2.146-0.731-0.146-1.701-0.295-2.389-0.527-1.010-0.406-1.132-1.175-1.941-1.582-0.33-0.118-0.566-0.146-0.848-0.176l44.044 38.334c0.971 0.028 2.064 0.176 2.996 0.295 12.912 1.215 26.149 0.527 39.144 0.527 15.141 0 30.12-0.765 45.177-2.548 11.375-1.377 22.506-1.985 34.007-1.941 7.853 0 15.706-0.028 23.555-0.028 10.203 0 20.407 0.028 30.646 0 9.311-0.028 18.58 0.689 27.934 0.645 16.316-0.028 32.67 0 48.982 0 7.975 0 16.229 0.692 24.126-0.366 7.165-0.927 14.37-1.578 21.618-1.578 5.99 0 11.9 0.483 17.848 0.692 3.809 0.118 7.574 0.263 11.339 0.765 4.571 0.605 8.659 1.175 13.237 1.135 2.268 0 4.532 0.146 6.76 0.028 1.049-0.059 2.064-0.648 3.073-0.732l29.553-33.072c-0.075-0.059-0.034-0.176-0.112-0.295z"></path>
    <path fill="#000000" d="M567.031 779.933c1.458-0.028 2.996 0.295 4.371-0.263 0.853-0.295 1.54-1.498 2.551-1.82 3.521-1.209 8.297 0 11.292 1.659 7.287 4.049 12.066 9.351 17.652 15.466 4.854 5.259 10.199 10.522 14.165 16.436 3.561 5.302 7.044 9.673 8.706 15.907 0.606 2.39 1.419 4.737 2.064 7.084 0.649 2.471 0.187 4.697 0.487 7.165 0.971 8.623 6.152 16.516 8.742 24.574 2.755 8.619 7.857 14.084 14.696 19.959 5.425 4.693 19.311 14.775 27.002 10.078 2.834-1.743 4.819-6.804 6.076-9.835 1.616-3.844 1.494-7.488 1.372-11.62-0.034-3.482-0.366-3.196-3.157-4.815-2.311-1.296-4.213-2.753-6.882-3.482 2.712-2.956 8.337 0.059 11.172 1.172 3.804 1.418 8.745 3.16 11.053 6.6 4.697 7.004 1.781 14.897 2.834 22.628 0.405 2.633 0.483 1.867 2.913 2.27 2.996 0.483 4.088 1.54 7.409 0.645 6.52-1.78 14.532-3.077 19.796-7.487 3.482-2.877 6.191-6.438 8.14-10.487 1.781-3.644 4.452-8.015 5.585-11.9 1.010-3.561 0.809-9.476-2.268-11.984 2.594 2.673 4.78 5.345 6.922 8.34 5.019 6.965 7.084 14.044 9.15 22.263 1.376 5.546 1.498 10.727 1.458 16.436-0.075 7.044-4.049 12.467-7.57 18.379-3.4 5.707-7.57 10.325-12.389 14.857-5.507 5.181-13.195 8.423-19.959 11.662-8.054 3.804-17.404 2.669-26.11 2.589-10.121-0.059-19.959-4.249-28.904-8.663-3.361-1.618-6.804-4.492-9.881-6.596-2.751-1.864-5.464-3.804-7.531-6.477-4.127-5.302-7.165-10.164-9.673-16.394-1.863-4.654-4.17-9.229-6.438-13.682-2.791-5.629-6.717-10.565-8.419-16.721-1.093-3.927-1.619-6.879-4.088-10.322-1.742-2.39-3.199-4.98-4.9-7.409-4.618-6.721-8.541-13.321-14.13-19.433-3.927-4.249-8.215-8.867-12.794-12.428-2.024-1.582-2.83-2.791-4.492-4.614-1.781-1.864-5.464-2.793-6.639-5.18-1.054-2.226-0.183-7.287-0.112-9.838 0.112-4.976 1.941-8.619 0-13.6-1.985-5.019-5.747-9.96-9.19-14.17-2.064-2.589-5.384-3.966-8.054-5.707-4.657-3.038-11.296-6.273-14.98-10.404 5.829-1.011 11.54 1.78 16.598 4.292 4.335 2.146 7.247 2.186 12.106 2.831 5.141 0.648 9.877 2.223 15.097 2.025z"></path>
    <path fill="#000000" d="M511.485 777.626c-0.688 2.102-2.669 4.005-3.683 6.072-3.278 6.521-5.868 14.048-8.258 21.012-2.35 6.843-1.902 13.317-1.941 20.403 0 1.904-0.112 3.844-0.075 5.707 0.112 3.683 1.293 5.789 2.469 9.229 1.82 5.507 1.659 12.106 2.146 17.892 0.566 7.084 0.33 14.413-1.58 21.252-1.82 6.434-4.693 12.267-7.531 18.257-3.199 6.76-6.191 13.438-10.444 19.593-4.41 6.355-8.82 13.399-15.057 18.096-6.636 4.976-13.076 7.812-20.887 10.605-9.19 3.361-17.247 4.98-27.203 4.092-7.165-0.608-16.394-0.204-22.631-4.292-4.088-2.71-8.337-6.474-11.98-9.835-3.724-3.4-7.531-6.843-7.609-12.023-0.034-2.307-0.409-5.019 0.075-7.248 0.483-2.146 2.712-4.17 4.17-5.829-2.186 0.263-4.41-0.146-6.56 0.059-3.034 0.331-5.628 3.199-8.58 4.575-9.229 4.249-7.613 15.745-7.574 24.329 0 5.747-0.295 10.404 2.268 15.708 3.157 6.517 6.596 11.454 12.994 15.341 6.76 4.088 13.477 6.882 20.804 9.755 10.203 4.053 19.915 8.422 30.886 9.92 8.26 1.132 17.974 3.443 25.745-0.527 6.356-3.199 11.218-8.906 17.208-12.629 3.321-2.068 7.692-3.038 10.727-5.464 3.482-2.753 5.464-6.761 8.136-10.203 5.425-6.882 11.053-13.195 14.775-21.335 4.697-10.322 6.965-21.7 9.268-32.749 1.659-8.015 2.311-16.881 2.229-25.057-0.034-6.843 0.405-13.765 0.075-20.608-0.295-6.273-4.497-11.575-3.443-18.175 1.010-6.517 1.211-13.116 2.508-19.633 1.215-6.191 3.278-12.302 4.049-18.54 1.175-9.19 1.781-18.418 2.877-27.608 0.366-3.482 1.297-11.253 4.492-13.639-3.521 7.366-9.311 13.922-14.084 20.524-2.472 3.443-5.181 6.234-6.922 10.078-2.103 4.536-3.521 7.857-4.575 12.958z"></path>
    </svg>