<svg xmlns="http://www.w3.org/2000/svg" viewBox="5.552 96.003 1025.808 976.298">
    <path fill="#000000" d="M615.053 328.958c1.739-3.112 3.476-6.265 5.215-9.415 2.304 0.976 4.688 1.94 7.031 2.911l-3.354 9.052c-2.911-0.929-5.899-1.778-8.894-2.546zM595.897 451.348c5.014 5.456 8.731 11.804 13.624 17.38 16.813 19.119 31.125 41.712 33.385 67.622 1.093 12.73 1.093 26.514-1.212 39.087-2.787 15.118-5.255 29.953-9.46 44.745-3.799 13.297-9.338 25.909-16.089 37.995-3.881 6.994-7.114 14.228-10.873 21.261-2.871-12.854-4.407-26.032-4.364-39.246 0.038-17.34 1.251-34.641 3.152-51.859 1.901-16.977 4.728-33.63 4.324-50.769-0.443-19.241-3.314-38.276-12.652-55.374-7.639-14.026-16.449-27.485-28.781-37.793-1.574-1.295-3.235-2.586-4.929-3.841 2.384-4.929 4.812-9.82 7.235-14.755 4.447 3.641 8.691 7.437 12.774 11.519 4.648 4.648 9.46 9.173 13.864 14.026zM395.493 501.674c-9.54 9.619-18.512 20.050-25.989 31.445 0.568-7.317 1.615-14.631 3.192-21.826 3.033-13.459 7.925-26.514 14.713-38.563 6.791 5.417 13.42 10.953 19.966 16.651-3.92 4.083-7.88 8.204-11.884 12.287zM456.043 721.638c1.699 10.751 3.476 21.545 1.133 32.376-1.049 4.812-2.182 9.702-4.162 14.267-0.605 1.453-1.453 2.872-2.423 4.245-1.049-1.295-2.182-2.546-3.192-3.883-5.255-6.83-9.377-14.469-13.824-21.787-8.126-13.217-15.804-26.88-20.493-41.752-4.852-15.399-8.083-32.135-8.933-48.304-0.081-3.393-0.038-6.791-0.038-10.184 2.67 2.265 5.334 4.565 7.925 6.956 19.482 18.187 39.734 40.743 44.018 68.066zM634.334 291.326c2.71-5.698 5.334-11.398 8.042-17.059 1.010-0.239 1.98-0.446 2.989-0.64l-10.751 29.062c-1.778-0.239-3.516-0.483-5.295-0.813 1.699-3.516 3.394-6.994 5.014-10.549zM707.049 278.959c-0.891 1.007-1.699 2.102-2.67 3.073-4.768 4.852-10.429 8.569-16.168 12.165-6.791 4.205-13.54 7.801-21.585 8.692-7.397 0.813-15.036 0.605-22.516 0.446-1.861 0-3.679-0.207-5.457-0.323 4.972-10.022 9.702-20.17 13.986-30.475 6.225-0.605 12.613-0.53 18.793-0.446 11.963 0.127 24.131 2.911 35.611 6.87zM750.662 268.007c3.595 1.7 7.072 4.972 9.781 7.76 4.043 4.162 4.728 8.167 6.589 13.499 0.404 1.135 0.768 2.221 1.172 3.315-2.787-2.626-5.618-5.255-8.368-7.925-6.265-5.899-12.488-11.963-18.955-17.704 3.394-0.562 6.791-0.401 9.781 1.051zM257.097 398.649c-4.043 3.274-8.85 5.698-12.613 9.338-2.423 2.304-4.364 5.216-6.304 7.925-4.812 6.588-11.075 13.178-14.389 20.694-3.073 7.031-5.821 13.499-11.963 18.35-6.347 5.013-11.075 10.791-18.714 14.026-6.549 2.71-13.54 5.456-20.329 7.437-4.003 1.172-7.925 1.615-11.761 1.453 0.443-2.182 0.847-4.447 1.453-6.549 4.083-14.228 10.672-27.928 19.605-39.774 10.429-13.864 24.613-25.584 40.177-33.385 5.215-2.626 10.429-4.768 16.045-6.466 4.648-1.414 9.46-2.506 13.986-4.364 4.972-2.020 10.105-4.447 14.188-8.002 1.739 1.211 3.476 2.383 5.176 3.596-4.852 5.255-9.012 11.155-14.553 15.725zM942.7 526.86c-4.486-3.883-11.194-5.579-16.697-7.437-9.741-3.275-20.896-3.718-31.125-3.033-11.115 0.734-21.223 4.768-31.893 7.639-7.477 1.981-15.682 1.861-23.365 1.94-5.014 0.038-9.983 0.038-14.996-0.367-11.519-0.929-23.847-2.586-34.68-6.708-11.194-4.245-22.028-10.067-31.488-17.462-7.196-5.658-12.652-13.135-18.271-20.292-4.447-5.619-8.53-11.194-12.125-17.38-3.595-6.265-7.397-12.528-9.741-19.403-1.373-4.122-2.265-8.489-3.192-12.73-1.212-5.658-2.182-11.317-2.304-17.059-0.081-4.727 0.081-9.46-0.645-14.148-1.334-8.894-5.496-17.502-11.154-24.372-10.913-13.337-27.891-22.595-43.008-30.316-11.036-5.619-22.269-10.429-33.912-14.188 1.499-2.872 2.951-5.737 4.446-8.609 0.16 0.040 0.326 0.127 0.484 0.207 7.639 3.033 15.118 7.072 23.485 7.476 4.648 0.207 9.338-0.080 13.824-1.295 3.235-1.172 6.506-2.143 9.863-2.911 2.83-0.446 5.536-1.252 8.126-2.383 4.285-2.102 7.639-5.054 10.751-8.692 4.285-4.889 7.925-10.105 11.557-15.479 2.468-3.641 5.457-6.91 7.639-10.751 1.172-2.020 2.222-4.083 3.314-6.062 14.917 6.226 28.333 14.795 40.501 25.507 5.536 4.889 10.588 10.225 15.439 15.682 0.122 6.226 0.202 12.451-0.404 18.552-0.528 5.013-1.901 9.942-2.142 14.956-0.202 4.245-0.038 8.648 0.038 12.894 0.122 7.963 1.133 17.099 4.123 24.536 3.556 8.851 8.446 16.33 13.624 24.21 4.162 6.304 10.55 12.247 18.069 14.469 6.467 1.901 15.725-0.207 20.777-4.447 2.142-1.778 3.476-4.245 4.889-6.588 1.98-3.354 4.043-6.87 4.648-10.833 0.605-3.883 0.038-8.041 0.122-11.963 0.16 1.861-0.443 4.284-0.93 6.062-0.528 1.816-1.499 2.143-2.787 3.437-1.615 1.615-2.871 3.799-5.014 4.852-2.182 1.091-4.728 0.53-6.994 0.080-5.579-1.051-13.297-2.584-17.946-6.062-5.9-4.447-8.204-11.884-11.075-18.39-6.549-14.996-5.334-31.326-2.911-47.169 7.84 9.012 15.524 18.552 25.263 25.584 7.397 5.294 16.089 10.588 25.382 10.751 9.214 0.207 18.839-0.040 27.565-3.354 23.281-8.851 43.732-30.637 45.19-56.385 0.364-6.708 0.484-13.583-0.364-20.211-0.971-7.476-3.235-15.076-5.658-22.192-4.972-14.351-15.439-26.8-26.88-36.581-11.761-10.067-29.101-15.601-44.461-15.562-6.225 0.039-12.247 0.367-18.028 3.033-4.205 1.901-10.672 5.579-13.785 9.173-6.629 7.76-4.728 18.877-0.081 26.959 0.568 0.976 5.295 9.298 7.88 8.932 0.729-1.816-0.729-5.131-0.809-6.994-0.122-4.325 0.568-9.173 2.506-13.055 2.384-4.889 6.629-5.013 11.642-4.688 6.994 0.446 13.016 2.545 19.119 5.941 13.986 7.84 23.485 21.665 23.526 37.995 0.081 14.755-7.599 31.164-21.826 37.104-18.955 7.963-38.601-3.235-53.635-15.32-0.081-0.892-0.038-1.778-0.122-2.669-0.528-5.984-1.295-11.844-2.182-17.783-0.768-5.054-1.453-9.942-3.641-14.631-4.285-9.213-10.184-19.36-18.028-26.032-5.984-5.131-14.553-13.016-22.717-13.499-3.595-0.239-6.791 0.127-9.903 2.020-3.476 2.221-6.025 5.9-8.446 9.173-0.891 1.172-1.699 2.424-2.506 3.641-0.326-0.239-0.643-0.483-0.93-0.688-8.407-5.536-17.178-10.47-26.554-14.026-9.5-3.596-19.886-6.507-30.274-7.031 2.020-6.145 4.087-12.209 6.39-18.231 2.787-7.235 5.941-13.824 9.903-20.413 2.626-4.364 5.417-8.609 7.678-13.178 0.93-1.901 1.861-3.275 3.072-4.61-7.963 3.757-15.927 7.358-24.412 9.864-13.135 3.841-26.596 6.752-39.811 10.225-18.793 5.054-37.552 10.067-56.467 14.631-22.312 5.377-44.26 12.045-66.529 17.704-22.152 5.619-44.382 10.874-66.45 17.099-24.576 6.956-49.189 13.744-73.444 21.747-11.761 4.083-23.605 7.963-35.49 11.682-12.488 3.679-24.939 7.599-37.266 11.761-29.425 10.309-57.557 23.485-86.419 35.044-2.989 1.211-5.618 2.424-8.649 3.274-0.729 0.207-2.71 0.605-3.113 1.295-1.049 1.901 6.91 5.9 7.678 6.387 11.036 6.956 21.747 14.066 32.416 21.585 2.063 1.453 4.162 2.872 6.225 4.285-5.295 4.929-13.056 7.88-19.156 10.993-5.377 2.669-10.346 6.1-15.118 9.781-5.698 4.406-12.045 8.127-16.977 13.382-5.053 5.417-9.619 11.075-13.624 17.3-5.86 9.096-9.943 19.281-15.198 28.738-4.566 8.287-9.377 16.571-12.933 25.423-0.809 2.063-1.574 4.205-2.304 6.304-5.9-2.468-11.441-6.145-16.449-10.51-5.093-4.486-9.256-9.702-12.247-15.766-1.172-2.304-2.626-4.688-3.437-7.156-0.891-2.626-0.847-5.737-1.010-8.446-0.326-5.658-0.643-11.317 2.265-16.29 2.468-4.245 5.053-7.963 9.298-10.55 4.929-2.989 9.46-4.727 15.277-4.325-1.295-0.401-1.699-1.497-2.585-2.383-2.182-2.265-6.062-3.516-9.136-3.958-7.963-1.172-16.532 0.080-23.847 3.393-8.49 3.841-13.382 10.022-16.571 18.714-1.615 4.325-1.778 8.368-1.98 12.933-0.162 3.476-0.891 6.87-0.688 10.384 0.404 6.83 3.799 14.026 7.114 20.010 3.679 6.669 7.357 13.54 12.411 19.32 5.417 6.145 11.315 12.73 18.271 17.218 3.516 2.265 7.52 4.245 11.722 5.858-2.468 8.041-3.958 16.571-5.496 24.658-1.615 8.446-2.546 16.897-2.585 25.507-0.040 7.963-0.202 16.006 0.768 23.929 0.93 7.437 2.83 14.469 5.417 21.545 5.899 16.128 17.059 29.425 28.738 41.752 10.751 11.356 22.516 22.354 35.325 31.366 6.186 4.364 12.045 8.127 19.281 10.51 5.496 1.816 10.386 2.468 16.168 2.506 10.067 0.038 22.757-3.192 28.942-11.682 2.384-3.315 5.738-6.87 6.589-10.953 0.891-4.446-0.202-9.499-2.222-13.42-2.506-4.889-6.265-8.77-9.702-13.055-0.891-1.135-1.861-2.020-2.83-2.95-0.080 6.145-6.347 10.51-12.451 10.874-6.83 0.401-12.367-0.847-18.231-4.284-6.186-3.596-12.006-7.76-17.824-11.844-13.661-9.619-26.678-22.516-34.961-37.064-13.257-23.324-17.099-51.535-14.835-78.052 0.162-1.615 0.404-3.192 0.605-4.812 1.574 0.038 3.152 0.081 4.768 0.038 4.162 0 8.368 0.323 12.488-0.081 3.394-0.367 6.629-1.816 9.5-3.555 4.162-2.506 6.387-6.83 9.136-10.632 2.71-3.757 6.025-6.956 8.811-10.588 2.468-3.235 4.205-6.994 7.031-9.983 2.871-2.95 6.265-4.526 9.662-6.752 4.003-2.669 7.318-6.265 10.993-9.338 8.042-6.791 18.109-10.549 26.678-16.651 4.812-3.437 9.943-6.226 14.835-9.539 4.123-2.83 7.678-6.348 12.125-8.609 3.958-1.981 8.244-2.911 12.327-4.526 4.526-1.778 8.609-4.325 12.814-6.708 3.192 2.626 6.347 5.175 9.54 7.76-1.499 2.102-3.152 4.083-4.972 5.9-5.698 5.658-12.976 11.278-20.532 13.986-7.397 2.626-15.439 4.245-22.555 7.679-7.156 3.393-13.864 7.235-19.605 12.774-4.768 4.61-10.386 9.741-13.382 15.804-2.989 6.1-4.728 13.337-6.265 19.925-1.172 4.889-1.212 10.346-0.971 15.4 0.364 7.599 5.131 14.631 9.5 20.532 4.123 5.497 8.85 10.51 14.066 14.996 7.397 6.348 15.158 13.297 19.562 22.192 1.699 3.393 1.092 8.446 0.768 12.125-0.528 5.579-1.699 10.549-4.972 15.198-1.499 2.102-2.989 4.044-5.417 5.176-1.699 0.847-3.641 0.976-5.457 1.497-0.809 0.285-3.394 0.976-3.757 1.739 0.847 1.574 5.618 0.892 6.994 1.007 5.86 0.53 10.47 0.401 16.248-1.091 6.467-1.657 12.692-3.476 17.581-8.287 4.566-4.447 6.427-9.702 8.569-15.524 2.304-6.226 4.61-10.913 4.812-17.743 0.242-7.437-0.404-14.509-3.394-21.423-2.506-5.821-5.899-11.398-8.933-16.937-2.142-3.92-4.972-7.476-5.295-12.006-0.484-5.984-0.605-12.652-0.080-18.635 0.729-8.083 4.205-15.036 8.731-21.625 4.688-6.87 8.649-14.469 15.399-19.605 5.215-3.958 11.844-7.679 17.946-9.942 3.516-1.334 7.196-2.221 10.632-3.718 9.338 6.91 18.592 13.986 27.81 21.139-8.328 13.095-14.553 26.8-17.621 42.24-3.354 17.014-6.629 34.439-5.417 51.899 0.443 6.549 1.657 12.976 3.394 19.32-2.989 7.562-5.658 15.241-7.8 23.001-3.516 12.774-2.951 25.382-2.83 38.522 0.040 8.609 0.201 17.099 1.172 25.668 4.043 34.439 13.382 68.918 30.273 99.313 2.871 5.176 4.852 10.791 8.126 15.682 2.423 3.596 5.295 6.708 8.167 9.903 3.437 3.841 6.83 7.76 10.225 11.642-12.612 0.813-25.747 1.374-37.914-1.211-9.821-2.063-20.17-6.226-29.184-10.47-6.791-3.235-13.459-6.752-19.403-11.356-3.718-2.872-7.721-5.783-10.184-9.864-2.020-3.275-3.113-6.956-4.407-10.55-2.020-5.737-5.215-14.066-3.842-20.292 0.568-2.787 2.468-5.377 3.842-7.599-1.172-0.53-2.103-0.207-3.073 0.483-2.182 1.574-4.364 5.536-5.658 7.801-4.889 8.408-7.114 19.079-4.728 28.657 1.334 5.216 4.205 9.415 7.599 13.459 4.688 5.536 9.619 10.874 14.956 15.766 6.265 5.783 12.73 12.287 20.413 16.168 5.014 2.506 10.346 4.162 15.36 6.708 7.477 3.841 14.429 8.692 22.068 12.247 6.954 3.275 13.178 4.325 20.777 4.852 7.925 0.483 15.682 2.424 23.565 2.911 7.114 0.446 14.307-0.53 21.182-2.383 1.699 2.102 3.314 4.245 4.812 6.466 5.698 8.569 9.415 19.321 11.194 29.386 2.020 11.24 1.453 23.44-3.192 33.951-6.062 13.624-16.089 27.282-30.637 32.699-16.168 6.027-42.279 1.342-48.868-16.651-3.192-8.811 2.222-20.979 11.519-23.565 7.196-1.98 14.307 0.446 21.545 0.038 3.073-0.207 1.413-2.102 0.202-4.044-4.043-6.466-12.085-10.833-18.793-13.986-7.437-3.476-14.227-3.437-22.068-1.051-3.799 1.172-7.599 2.383-11.441 3.437s-7.721 1.901-10.993 4.364c-4.003 2.95-7.114 7.76-9.863 11.844-1.739 2.626-3.113 5.013-3.394 8.204-0.768 8.167 0 16.697 2.344 24.576 3.595 12.247 11.642 20.452 20.654 29.061 6.467 6.143 12.652 12.165 20.17 17.059 6.791 4.364 14.026 7.834 21.502 10.746 9.098 3.55 17.946 6.3 27.726 7.229 8.368 0.8 17.3 1.168 25.749 0.574 4.852-0.342 9.377-1.33 14.066-2.465 6.506-1.569 13.297-3.31 19.321-6.266 9.619-4.814 18.877-11.519 26.88-18.635 4.889-4.318 9.377-8.443 12.854-13.945 3.437-5.5 6.954-11.241 9.863-17.014 4.929-9.785 8.811-20.979 8.771-31.971-0.038-5.858-0.971-11.682-1.657-17.462-0.605-4.972-1.172-9.781-2.506-14.593-1.816-6.549-5.334-12.976-8.368-18.997-2.71-5.377-5.579-10.712-8.85-15.804-5.255-8.083-11.315-15.841-18.109-22.675-5.536-5.536-11.278-10.751-16.897-16.089 8.328-15.198 10.51-33.106 8.771-50.202-0.847-8.609-4.768-15.036-8.691-22.595-4.566-8.77-9.256-17.218-14.307-25.668-11.278-18.839-24.698-35.611-38.638-52.424-5.255-6.387-10.993-12.613-15.439-19.605 0-3.958 0.122-7.925 0.326-11.844 0.729-9.903 2.67-19.562 6.427-28.781 7.318-17.824 17.946-33.106 30.475-47.696 2.989-3.516 6.1-6.91 9.256-10.184 14.872 13.382 28.982 28.174 36.783 46.442 1.334 3.354 2.585 6.752 3.718 10.145 0.443 1.778 0.971 3.516 1.615 5.216 2.468 2.304 5.417-3.841 6.1-5.176 1.98-4.526 3.842-9.136 5.579-13.784 2.384-5.984 4.812-11.923 7.196-17.908 5.783-14.065 12.165-27.85 18.472-41.712 4.566-10.022 9.256-20.010 13.864-29.993 3.679 3.437 7.196 7.031 10.346 10.953 7.318 9.136 12.528 19.443 16.29 30.518 3.354 9.864 5.658 19.605 6.347 30.033 0.768 11.642 0.484 23.324 0.404 35.004-0.081 21.502 0.364 43.048 2.546 64.469 1.334 13.056 2.911 25.989 4.003 39.044 0.729 8.609 1.334 17.261 2.626 25.786-3.556 7.398-6.87 14.917-9.821 22.555-5.658 14.713-8.811 30.518-12.326 45.835-1.251 5.417-2.747 10.751-3.516 16.29-0.891 6.466 0.202 12.894 0.768 19.321 0.443 4.727 0.404 9.377 0.605 14.105 0.202 4.284 1.251 8.408 2.304 12.528 2.468 9.702 8.49 17.824 14.67 25.507 3.275 4.083 6.87 8.328 10.751 11.844 3.757 3.393 8.204 6.145 12.247 9.213 6.91 5.216 14.835 8.446 23.078 11.036 6.87 2.143 13.744 4.284 20.734 5.941 6.91 1.657 13.382 3.437 20.493 3.516-3.033 0-5.255-0.483-8.042-1.861-6.548-3.235-12.774-7.273-18.837-11.356-6.752-4.61-12.488-10.833-17.908-16.937-5.295-5.9-10.144-13.337-13.257-20.655-4.768-11.24-7.678-23.403-9.46-35.409-0.971-6.588-1.049-12.367-0.768-19.040 0.364-8.167 0.242-16.532 1.499-24.658 0.528-3.437 1.212-6.87 1.98-10.269 1.251 3.799 2.626 7.52 4.162 11.194 9.863 23.078 25.627 43.936 42.807 62.085 15.601 16.449 34.76 29.505 55.335 38.965 20.413 9.415 42.847 13.178 65.116 13.055 10.346-0.081 20.373-1.497 30.435-3.679 8.609-1.861 17.261-3.883 25.423-7.317 23.526-9.942 45.471-28.214 54.285-52.749 5.053-14.026 6.994-28.618 6.954-43.491-0.081-13.336-0.484-26.678-3.113-39.811-2.626-12.933-6.427-25.708-12.894-37.266-4.285-7.76-9.943-14.835-15.36-21.826-4.123-5.335-8.446-10.309-13.382-14.957-21.097-20.010-51.050-37.552-81.284-31.125-9.5 1.98-18.955 7.273-26.032 13.784-3.033 2.83-5.86 5.821-8.85 8.731-3.152 3.112-6.427 5.984-8.328 10.067-3.842 8.244-5.175 16.937-3.113 25.83 0.847 3.841 2.585 10.913 7.114 12.367 3.958 1.252 6.1-5.175 7.156-7.88 1.615-4.245 4.162-7.84 7.072-11.356 5.255-6.348 10.873-12.976 19.403-14.228 4.043-0.64 9.214-0.16 13.337 0.038 6.387 0.285 11.602 1.778 17.178 4.812 12.287 6.629 20.734 17.783 26.392 30.356 3.235 7.235 6.304 14.795 7.599 22.635 1.049 6.387 1.010 13.095 0.847 19.562-0.528 17.38-6.791 33.468-17.581 47.007-5.255 6.507-11.602 11.278-18.877 15.277-7.437 4.122-15.198 7.76-23.929 7.88-17.218 0.285-34.922-4.526-50.362-11.844-9.579-4.526-19.119-10.184-27.769-16.41-9.741-6.956-17.985-15.967-25.87-24.86-15.238-17.3-27.081-36.945-36.38-57.961 0.971-2.063 1.901-4.162 2.871-6.265 4.003-8.53 7.273-17.38 10.993-26.032 8.328-19.522 18.028-38.276 25.342-58.206 3.113-8.368 6.025-16.735 9.46-24.979 3.113-7.476 6.025-14.795 7.761-22.717 3.152-14.429 2.103-28.942 2.265-43.613 0.081-6.87-0.28-13.178-1.615-19.925-1.816-8.973-4.205-18.39-7.196-27.042-2.951-8.408-6.752-17.178-12.209-24.25-5.417-7.031-11.194-14.228-17.542-20.413-10.51-10.269-22.394-18.592-33.951-27.565-8.204-6.348-15.682-13.903-22.192-22.108 5.738-12.652 11.356-25.382 17.139-38.034 5.176-0.207 10.386 0.285 15.524 1.7 6.752 1.861 12.488 6.549 17.908 10.791 5.417 4.325 10.184 8.894 14.188 14.553 8.244 11.722 14.872 24.737 21.463 37.467 3.641 7.031 6.629 14.228 9.943 21.423 3.235 7.114 6.91 14.026 10.225 21.058 7.437 15.641 14.307 30.475 25.382 44.018 9.579 11.722 20.615 21.665 33.022 30.234 11.557 7.963 22.998 17.059 36.783 20.655 8.328 2.221 16.855 5.294 25.507 5.619 7.318 0.285 13.699-0.722 20.734-2.506 9.052-2.304 21.787-3.92 29.263 2.872 4.768 4.285 6.427 9.781 5.86 16.045-0.528 5.619-2.951 12.367-9.052 14.026-4.324 1.135-10.225-0.207-14.509-1.007-3.394-0.64-4.123-1.453-6.062-4.003-5.053-6.669-16.37 2.506-19.562 7.156-3.718 5.456 0.038 9.983 4.083 14.148 7.801 8.083 17.139 13.382 27.649 17.3 7.84 2.872 15.238 3.153 23.526 2.586 6.145-0.483 12.652-0.688 18.512-2.787 10.067-3.679 19.764-9.702 26.919-17.621 7.318-8.127 12.613-16.937 16.532-27.081 3.516-9.136 5.053-18.793 8.446-28.012 3.192-8.609 8.894-23.403 0.242-30.923z"></path>
    </svg>