<svg xmlns="http://www.w3.org/2000/svg" viewBox="12.535 -47.997 1015.928 1119.995">
    <path fill="#000000" d="M621.78 900.311l6.138-3.682-4.643 5.457c-0.801-0.801-1.201-1.361-1.507-1.775zM621.67 895.267v0l5.951 1.334h-0.045zM880.881 464.48c0 2.455-0.045 4.911-0.045 7.366 0 6.365-0.667 17.407-1.588 23.677v0c-2.002 14.635-3.95 29.046-7.045 43.223v0c-2.135 9.862-6.138 19.047-11.409 28.683-2.322 4.177-4.724 8.407-7.139 12.73l-0.667 1.201-0.133 1.415c-3.87 42.95-22.181 84.719-52.544 115.581-27.59 28.088-65.542 46.542-102.311 63.084-14.136 6.405-28.588 12.129-43.27 16.683l-2.002 0.667-0.043 0.045-1.334 0.4c-4.817 1.454-9.635 2.776-14.452 3.909l-0.934 0.133-1.815 1.068c-10.275 4.857-20.497 9.541-30.363 11.956-7.672 1.868-14.678 3.723-21.179 3.682h-1.334c-3.682-0.096-8.727-1.548-14.771-1.588-0.667 0-1.454 0.047-2.228 0.096v0c-1.454 0.095-2.549 0.4-3.23 0.533-0.667 0.133-1.068 0.133-1.068 0.133-4.497-0.533-8.901-0.533-13.277-0.533-6.178 0-12.183 0.267-18.090 0.4-3.817 0.096-7.633 0.096-11.502 0.096-2.415 0-4.817 0-7.219 0v0c-6.365 0-17.408-0.667-23.678-1.588-14.634-2.002-28.998-4.003-43.181-7.099-9.862-2.135-19.042-6.138-28.635-11.409v0c-0.801-0.4-1.681-0.934-2.722-1.548l-1.068-0.533-1.201-0.133c-58.268-6.458-110.357-41.175-145.854-88.494-27.271-36.361-43.408-79.311-52.54-124.173l-0.267-1.454-0.801-1.201c-5.405-6.992-10.915-13.36-13.816-19.587-4.911-10.314-9.594-20.638-11.996-30.588-1.908-7.726-3.776-14.682-3.723-21.184v-1.361c0.095-3.643 1.548-8.727 1.588-14.725 0-0.667 0-1.494-0.095-2.269v0c-0.095-1.454-0.4-2.549-0.533-3.23-0.133-0.667-0.133-0.934-0.133-0.934 0.4-4.457 0.533-8.86 0.533-13.223 0-6.178-0.267-12.223-0.4-18.133-0.094-3.723-0.094-7.499-0.094-11.316 0-2.455 0-4.951 0-7.46 0.047-6.365 0.667-17.408 1.588-23.678 2.002-14.635 4.003-29.046 7.086-43.182 2.135-9.914 6.138-19.088 11.409-28.677v0c0.533-1.068 1.201-2.188 1.908-3.456l0.667-1.334 0.047-1.494c1.361-30.59 10.582-60.675 27.407-86.311 17.723-27.133 41.858-49.451 67.222-70.541v0c23.227-19.36 47.041-37.588 75.042-45.949 15.952-4.777 32.951-6.272 50.403-6.552l1.681-0.043 2.175-1.334c10.275-4.857 20.497-9.541 30.363-11.902 7.672-1.908 14.635-3.776 21.131-3.723l1.361 0.043c3.682 0.047 8.727 1.507 14.725 1.548 0.667 0 1.507 0 2.269-0.094v0c1.454-0.095 2.496-0.4 3.23-0.533 0.667-0.133 0.934-0.133 0.934-0.133 4.457 0.4 8.901 0.533 13.264 0.533 6.138 0 12.183-0.267 18.044-0.4 3.817-0.094 7.646-0.094 11.502-0.094 2.415 0 4.817 0 7.272 0 6.365 0.047 17.407 0.801 23.636 1.588 14.635 2.002 29.045 4.003 43.177 7.086 9.914 2.135 19.045 6.138 28.681 11.409 4.724 2.588 9.447 5.324 14.226 8.047l0.801 0.533 0.934 0.267c2.269 0.533 4.23 0.801 5.872 1.201v0c51.173 12.41 93.22 42.221 125.626 81.538 32.359 39.317 54.904 88.086 66.63 137.809l0.267 1.201 0.667 0.934c1.361 2.002 2.496 3.95 3.416 5.818v0c4.857 10.314 9.594 20.68 11.996 30.59 1.908 7.726 3.723 14.682 3.723 21.178l-0.043 1.361c-0.045 3.63-1.507 8.727-1.588 14.725 0 0.801 0.043 1.494 0.095 2.269v0c0.133 1.454 0.4 2.549 0.533 3.23 0.133 0.667 0.133 0.934 0.133 0.934v0c-0.533 4.457-0.533 8.901-0.533 13.223 0 6.178 0.267 12.277 0.4 18.133v0c0.095 3.776 0.133 7.593 0.133 11.409zM948.459 446.88c-0.267-37.316-9.327-70.085-21.32-104.129-11.129-31.407-17.088-65.814-32.904-97.81-14.546-29.272-37.137-57.224-62.722-82.267-25.547-25.043-54.047-47.090-80.497-64.313-62.040-40.314-135.081-55.043-206.528-60.543h-0.047c-1.507-0.094-3.003-0.133-4.457-0.133l-0.267 0.043c-3.003-1.334-6.232-2.322-9.862-2.869-12.596-1.948-24.909-2.856-36.998-2.856-58.315 0.043-111.085 20.906-163.897 45.997-66.588 31.586-109.448 73.266-153.854 130.354-18.547 23.772-37.452 49.131-52.544 76.584-15.086 27.454-26.361 57.039-29.36 89.177-0.533 5.084-0.667 10.141-0.667 15.181 0 28.358 6.818 55.359 13.406 81.674 6.632 26.408 13.050 52.177 12.997 78.040 0 5.551-0.267 11.048-0.934 16.636-0.133 1.775-0.267 3.496-0.267 5.178 0 6.084 1.334 11.636 3.723 16.358 1.908 3.723 4.59 6.779 7.593 9.408 0.4 2.269 1.068 4.59 1.908 7.006v0.045c11.81 31.403 23.269 63.084 35.226 94.629 0.667 10.902 1.068 21.951 1.402 32.951 0.267 8.727 0.533 17.497 1.068 26.314 0.4 7.406 0.267 15.911 2.095 24.545v0c0.801 3.643 2.269 7.326 5.044 10.541 2.682 3.269 7.139 5.951 12.317 6.045v0h0.533l0.667 4.363 0.801-4.497c4.59-0.533 8.58-2.535 11.356-5.364 3.096-3.189 5.097-7.045 6.045-11.182 0.4-1.642 0.533-3.322 0.667-4.951 5.405 4.457 10.995 8.273 15.502 12.277 3.23 2.869 5.858 5.684 7.593 8.593 1.681 2.909 2.642 5.778 2.642 9.501 0 1.201-0.094 2.322-0.267 3.59-0.4 2.455-0.533 4.911-0.533 7.272 0 3.176 0.4 6.232 1.068 9.181 0.133 13.953 0.4 27.863 0.533 41.815 0 3.096 1.507 6.232 3.682 8.047 2.188 1.868 4.724 2.722 7.326 2.722 2.095 0 4.31-0.533 6.272-1.908 1.948-1.334 3.549-3.509 4.23-5.872v0c1.402-4.684 2.415-9.408 3.176-14.178 6.138 2.869 12.677 4.537 19.314 4.59 7.912 0 15.911-2.308 22.455-7.499 3.176-2.549 5.911-5.778 8.139-9.541 0.801 1.334 1.548 2.496 2.228 3.776 6.685 12.583 9.181 27.586 11.69 43.087 0.801 5.364 3.95 9.768 7.82 12.41 3.856 2.682 8.366 3.856 12.77 3.856 5.457 0 11.089-1.775 15.455-5.992v0c12.356-12.090 19.314-27.906 20.448-44.452 4.551 1.642 9.047 3.189 13.638 4.643 1.334 7.499 2.042 14.997 2.042 22.591 0 0.667 0 1.454-0.041 2.175v0.191c0 3.042 1.454 6.272 3.682 8.139s4.817 2.642 7.272 2.642c2.496 0 5.084-0.801 7.272-2.642 2.269-1.868 3.723-5.004 3.723-8.086v-0.191c-0.043-5.591-0.095-11.222-0.133-16.82 0.267 0.045 0.533 0.133 0.934 0.133 0.533 0.267 0.801 0.533 1.068 0.667l0.267 0.533c0.533 1.454 1.068 3.363 1.868 5.632v0c0.133 0.533 0.4 1.201 0.533 1.588 0.267 4.23 0.267 8.727 0.4 13.365 0.133 5.497 0.533 11.222 2.042 16.998 1.415 5.724 3.909 11.449 8.047 16.637 1.961 2.496 5.271 3.909 8.006 3.817 3.082-0.047 5.591-1.201 7.593-3.003 2.002-1.775 3.59-4.497 3.643-7.953v0-0.091c0-5.364-0.045-10.675-0.095-16.043 3.23-0.667 6.311-1.908 8.993-3.776 3.909-2.736 7.139-6.818 8.46-11.996 0.4-1.415 0.667-2.909 0.934-4.363 0.801 0.533 1.775 1.201 2.642 1.868 1.627 1.334 3.403 2.402 5.178 3.442-0.4 3.776-0.667 7.593-0.667 11.502 0.045 21.362 6.365 43.68 17.497 61.224 5.591 8.82 12.41 16.405 20.453 21.951 8.047 5.551 17.455 8.914 27.59 8.914 4.537 0 9.22-0.667 13.906-2.042 6.365-1.908 11.729-4.684 16.090-8.22 7.686-6.232 11.956-14.593 14.363-23.137 3.59-12.904 3.549-26.77 4.777-39.317 0.533-6.272 1.415-12.183 2.909-17.314 1.507-5.178 3.59-9.541 6.632-13.144 0.267-0.267 0.667-0.667 1.201-1.201l0.533 2.415c0.667 2.776 2.322 4.951 4.23 6.365 1.948 1.402 4.27 2.228 6.818 2.228l1.588-0.095c1.908-0.267 3.59-1.201 5.137-2.322v0.309l5.951 0.133h0.533l-6.499 0.267v0.133c0.533 9.995 0.133 21.726 1.402 33.499 1.201 11.81 3.87 23.91 10.956 34.406 9.995 14.773 25.863 22.729 41.728 22.729 15.681 0.095 31.497-8.1 40.492-24.366 5.872-10.448 7.366-21.815 7.366-32.632 0-9.274-1.068-18.316-1.908-26.498-0.533-4.003-1.548-9.274-2.496-15.092-0.934-5.724-1.815-11.902-1.815-16.541 0-1.868 0.133-3.456 0.4-4.551 0.267-1.068 0.533-1.681 0.533-1.681 0.095-0.133 0.533-0.667 1.454-1.334 0.045-0.045 0.095-0.045 0.133-0.095 0.045 0.045 0.095 0.095 0.133 0.095 1.775 0.801 3.909 1.454 6.178 1.494 0.667 5.231 1.334 10.408 1.868 15.637 0.267 2.402 1.201 4.857 3.136 6.952 1.908 2.135 5.044 3.63 8.233 3.59 6.365-0.095 11.275-5.044 11.409-11.409v0.045c0-10.768 0-21.499 0.047-32.227 3.95-2.629 7.726-5.551 11.369-8.82 0.801 1.201 1.681 2.135 2.776 2.856 2.042 1.415 4.363 2.002 6.499 2.002 2.736 0 5.405-0.801 7.633-2.776 2.269-1.908 3.87-5.137 3.87-8.407v0c0.133-6.859 0.267-13.727 0.267-20.591 3.723-5.405 7.912-11.129 11.729-15.86 0.133 5.044 0.4 10.541 0.667 15.86 0.267 4.417 0.533 8.593 0.801 12.129 0.267 3.496 0.533 6.272 0.801 8.139 3.003 21.951 10.222 39.359 24.681 56.541 5.818 6.952 14.316 9.821 22.36 9.821 7.045 0 14.090-2.095 19.955-6.138 5.818-4.003 10.582-10.235 11.863-18.090 5.137-30.815 13.050-62.906 15.587-95.175 0.4-4.911 0.533-9.688 0.533-14.319-0.043-14.541-1.402-27.77-1.402-40.54 0-2.776 0.267-5.457 0.4-8.18 6.311-1.948 12.317-5.271 17.362-10.141 6.552-6.272 11.316-15.045 13.453-25.91 14.73-74.448 27.275-152.534 27.275-229.345 0-1.815 0-3.63 0-5.457z"></path>
    </svg>