<svg xmlns="http://www.w3.org/2000/svg" viewBox="94.342 -17.526 852.887 1123.348">
    <path fill="#000000" d="M825.864 470.649c-8.038 4.726-16.339 9.456-25.407 4.042-3.996-2.406-7.225-5.761-10.962-8.509-5.502-4.088-12.593-8.213-19.73-6.966-16.894 2.966-11.821 21.494-2.578 29.703-5.16 7.095-12.339 6.795-21.582-1.159 0.079-1.034 0.118-2.064 0.079-3.097-0.642-1.718-0.513-3.312-1.243-5.027-1.59-3.612-4.601-6.665-8.297-8.171-5.673-2.32-11.091-0.513-15.046 3.183-3.27-24.677-33.015-32.156-55.111-27.726-16.718 3.349-33.145 9.886-47.027 19.771-10.057 7.179-19.259 13.11-32.070 12.209-5.37-0.352-10.53-1.675-15.434-3.654-12.681-8.726-22.437-19.171-12.293-34.905 3.996-6.19 8.901-11.951 8.73-19.772-0.313-14.011-13.715-21.107-25.883-17.582-6.403-16.51-23.213-26.525-40.624-24.548 5.502-20.547-23.772-21.924-43.544-19.559 41.053-22.612 87.308-32.757 133.776-37.871 12.635-1.376 25.278-2.452 37.954-3.395 13.198-0.99 29.407-4.472 42.301-0.69 22.141 6.495 12.939 26.054 3.612 38.73-3.525 4.818-9.243 11.35-7.525 17.928 3.913 14.912 32.627 7.049 42.688 6.449 15.867-0.941 25.536 4.726 37.958 13.456 5.502 3.87 6.924 3.612 12.768 0.030 2.449-1.465 4.643-3.742 7.22-4.947 4.17-1.935 3.183-1.85 6.495 1.247 4.125 3.87 5.848 11.049 8.597 15.99 4.859 8.685 10.791 10.708 18.182 16.51 8.772 6.92 6.194 18.658 12.168 26.996 1.59 2.19 3.354 3.654 5.548 5.16 1.072 0.731 2.365 1.159 3.479 1.761 4.472 0.516 6.624 2.883 6.495 7.095 2.49 3.996 1.289 6.403-3.696 7.308z"></path>
    <path fill="#000000" d="M725.45 660.057c-0.079 0.642-0.118 1.287-0.154 1.935-0.079 0.688-0.154 1.372-0.27 2.064-3.483 5.16-7.008 10.274-10.708 15.263-4.384 5.931-14.612 8.038-21.019 4.513-2.069-1.162-4.217-2.106-6.495-2.966 0-4.13-0.642-8.213-1.89-12.255 0.118-9.373 0.39-20.289 2.795-29.532 2.106-3.913 4.77-7.308 8.167-9.886 4.17-3.225 8.080-4.601 11.65-4.73 3.354 1.076 7.095 2.841 11.35 5.247 2.536 3.954 4.255 8.251 5.114 12.81 1.548 5.89 1.89 11.65 1.464 17.54zM719.349 801.14c2.97 14.186 0.118 29.015-1.076 43.243-0.39 4.772-5.544 7.35-9.757 6.878-0.859-0.125-3.825 0-5.026-0.188-1.076 0.188-2.278 0.28-3.654-0.063-0.27-0.030-0.472-0.125-0.688-0.154-4.947-1.159-7.266-5.59-6.666-9.63-0.901-1.501-1.418-3.266-1.072-5.243 1.372-8.079 2.707-15.951 5.156-23.43 1.506-8.901 3.525-17.628 9.456-24.46 7.095-8.209 19.989 2.666 12.856 10.879-0.079 0.125-0.118 0.28-0.198 0.349 0.313 0.599 0.559 1.244 0.688 1.89zM662.497 672.468c-0.154 1.247-0.313 2.363-0.434 3.441-8.81-0.471-17.669 0.125-25.49 1.718-1.243 0.28-2.536 0.188-3.87 0.030-0.601-7.608-0.989-15.304-0.35-22.912 0.154-1.764 0.39-3.525 0.643-5.247 0.35-0.599 0.434-1.244 0.35-2.021 0.688-3.913 1.631-7.826 3.178-11.434 3.913-9.456 5.46-11.087 16.422-11.479 3.22-1.501 5.719-2.021 7.567-1.59 0.859 1.372 1.631 2.919 2.319 4.77 0.901 2.363 1.506 4.947 2.019 7.609 1.159 12.509-0.601 24.719-2.365 37.099zM622.641 672.765c-2.065-1.89-3.654-4.17-4.296-6.574-5.331-19.901-4.989-39.331-3.483-59.023 4.814 6.536 9.285 13.327 9.802 21.711v0.154c-4.17 13.498-3.87 30.78-2.019 43.715zM547.412 630.147c-0.772 3.955-6.103 6.103-9.715 4.517-6.92-3.054-13.369-3.012-20.85-2.409-3.391 0.28-7.433-2.449-7.433-6.19 0.039-21.878-2.11-43.631-3.441-65.472-0.154-2.919 1.506-6.103 4.426-7.049 18.141-5.802 34.092-1.376 36.327 19.388 0.472 4.513-2.365 30.609-2.236 40.537 0.194 1.33 0.513 2.666 0.814 3.954 6.319 1.807 6.319 10.015 2.106 12.722zM457.869 609.647c1.59 1.415 2.578 3.437 2.148 5.89l-0.642 3.612c-0.517 3.048-3.224 4.985-6.061 5.456-0.35 0.188-0.776 0.217-1.164 0.39-3.57-19.905-5.373-39.981-5.373-60.27 0.115-2.064 0.273-4.125 0.35-6.19 0.079 0.125 0.194 0.28 0.313 0.39 0-0.154 0-0.352 0.036-0.513 1.034-8.726 14.49-6.319 13.456 2.363-1.89 16.167-5.498 32.67-3.049 48.879zM351.96 356.322c0.043 7.091-8.728 9.198-12.165 5.156-2.32 2.67-5.2 4.559-8.599 4.772-16.337 1.030-13.068-29.703-12.938-39.331 0.214-12.51 1.718-41.058 21.796-28.715 18.828 11.563 11.78 39.977 11.91 58.118zM263.104 361.006c-3.57 0.948-6.404-0.813-7.951-3.354-2.621-0.642-4.987-2.577-5.631-5.719-3.524-16.89-9.974-52.141 15.69-54.422 3.010-0.28 5.973 1.59 7.050 4.43 5.459 14.57 11.993 53.304-9.155 59.065zM866.611 819.084c-2.407-4.901-6.962-7.867-12.681-6.661-0.313 0.030-0.517 0.154-0.818 0.28-0.118-3.825-0.471-7.65-0.943-11.521-0.036-0.217-0.154-0.349-0.198-0.516 0.39 0.063 0.73 0.125 1.114 0.217 3.954 0.688 6.232-5.548 2.19-6.966-0.35-0.125-0.642-0.125-0.943-0.188 0-0.030 0-0.063 0-0.063-0.818-0.154-1.59-0.313-2.407-0.471-0.036 0-0.079 0-0.118 0-0.27-1.29-1.114-2.494-2.707-2.969-3.913-1.076-7.95-0.731-11.692 0.859-1.335 0.606-2.707 2.195-2.365 3.825 0.688 3.224 2.536 5.373 5.802 6.236 0.43 0.125 0.859 0.154 1.289 0.28-0.079 1.807-0.198 3.612-0.35 5.418 0 0 0 0-0.036 0-0.859-0.435-1.806-0.563-2.666-0.28-6.837-0.39-16.894 0.99-13.498 8.943 0.688 1.59 2.319 2.577 4.17 3.27 1.205-0.39 2.365-0.516 3.483-0.516-0.559 1.465-1.164 2.922-1.764 4.388-3.354-0.648-7.095 2.19-5.673 6.019 0.471 1.247 1.335 2.021 2.365 2.449-0.198 0.471-0.39 0.948-0.601 1.465-3.183 0.731-6.274 1.675-9.285 3.141-1.59 0.813-3.183 2.837-2.148 4.726 1.377 2.62 3.095 5.202 5.932 6.061-1.764 4.47-3.57 8.943-5.331 13.41-5.589 1.247-11.479 1.076-17.24-0.471-0.814-0.188-1.589-0.563-2.319-0.905-4.47 2.19-8.897 4.559-13.369 6.75-10.015 4.897-23.301-4.255-23.684-14.875-1.677-42.814-5.418-85.502-11.179-127.974-0.643-4.989 0.605-8.943 2.882-11.992-1.547-9.156-3.354-18.316-5.719-27.555-1.464-5.85-4.601-10.19-8.555-13.285-0.559-1.89-1.289-3.613-2.065-5.248 0.35-18.399-1.89-39.030-14.741-46.126-5.202-5.289-12.384-8.38-22.053-7.608-16.164 1.336-22.008 18.57-23.814 37.658 0.079-11.050-1.205-21.97-5.848-29.015-3.095-6.966-8.468-12.126-16.939-12.639-8.209-0.471-14.099 2.19-18.441 6.666-3.354-6.023-8.73-10.92-15.646-13.54-0.818-0.352-1.677-0.352-2.453-0.125 0.905-10.23 1.977-20.547 2.67-31.038 0.943-15.604 1.414-31.251 1.677-46.898-0.69-23.384-1.377-46.814-2.019-70.198-0.118-4.213-1.164-7.909-2.841-11.133-0.943-7.65-2.148-15.175-3.742-22.528-0.313-1.415-0.688-2.62-1.072-3.913 2.148 0.030 4.213 0.125 6.361 0.063 2.449 0 3.825-2.841 3.091-4.947-0.813-2.406-1.631-4.818-2.449-7.225-0.688-1.935-2.878-2.791-4.726-2.19-2.753 0.905-5.589 1.29-8.43 1.376-0.039-0.063-0.154-0.154-0.273-0.28 3.095-4.859 3.57-12.597 1.377-18.57 0.313-1.376 0.601-2.705 0.772-4.17 0.517-3.87-4.342-5.373-6.361-3.141-0.27-0.125-0.43-0.313-0.688-0.431-2.148-1.030-4.818 0.352-5.202 2.705-0.73 4.346-0.772 9.978-2.365 14.061-2.019 5.156-3.224 6.791-8.685 5.114-3.521-1.073-5.802-2.406-9.152-1.672-0.434-0.063-0.818-0.188-1.335-0.063-5.331 0.69-8.643 3.612-9.114 9.114-0.154 2.106 0.905 3.741 2.97 4.255 3.612 0.948 7.22 1.718 10.874 2.452l-2.106 5.802c-3.913 12.681-18.395 17.282-27.51 11.608-22.441 7.479-53.822-0.606-73.852-5.289-8.126-1.935-13.069-7.608-14.533-15.734-7.175-39.681-8.167-79.742-11.951-119.851-3.091-33.228-7.738-66.114-8.851-99.391-2.411-11.004-4.688-22.050-6.578-33.187l6.148-47.97c7.955 0.431 16.251-0.39 16.422-7.829 0.036-1.33-1.034-2.406-2.065-3.008-3.696-2.021-8.126-2.705-12.597-2.755 0.517-4.083 1.076-8.167 1.59-12.251 1.848-0.56 3.525-1.244 4.688-2.192 1.46-1.119 1.76-2.577 1.372-4.296-1.719-7.396-7.049-7.137-13.586-8.343-0.35-0.313-0.772-0.599-1.331-0.813-6.624-2.406-16.251-0.125-13.327 9.373 0.859 2.748 3.049 4.597 5.848 5.803-0.864 2.966-1.506 6.019-2.19 9.030-6.278 0.428-12.597 0.902-18.917 1.33-1.935 0.125-3.57 2.064-3.311 3.996 1.29 10.019 10.446 11.008 19 11.049-1.935 11.479-3.483 23-5.46 34.092-0.273 1.372-0.73 3.22-1.247 5.37-2.619 4.13-5.629 8.084-9.111 11.784-16.207 17.106-36.238 22.696-59.238 21.966-28.714-0.905-49.737 8.38-77.55 14.699-0.128 0.030-0.299 0.030-0.473 0.030-0.388 0.777-0.731 1.465-1.204 2.242-26.223 41.738-35.808 98.959-51.371 145.727-15.776 47.37-19.647 97.236-34.65 144.784 0 0-0.043 0.030-0.043 0.030v0c-0.99 3.137-1.89 6.319-2.968 9.456-0.214 0.513-0.472 0.902-0.69 1.415-0.903 34.133 2.709 68.183 12.294 102.012 0.26 1.675 0.473 3.354 0.69 5.031 0.69 5.419 2.621 9.803 5.2 13.456 1.162 3.266 2.236 6.532 3.482 9.803 2.366 6.019 4.945 11.992 7.395 17.969 5.547 20.85 11.521 41.612 18.096 62.202 1.547 4.772 4.084 8.472 7.178 11.35 0.69 1.89 1.547 3.783 2.709 5.631 2.45 3.996 4.686 8.080 7.050 12.080 2.621 6.019 5.288 12.084 8.038 18.057 0.26 0.773 0.56 1.543 0.861 2.367 0.903 2.449 2.019 4.555 3.269 6.532 8.854 19.046 18.013 37.917 27.727 56.612 4.343 8.384 11.048 13.456 18.356 15.867 2.236 2.837 4.427 5.719 6.621 8.597 8.126 12.685 16.767 25.019 26.394 36.627 3.996 4.901 8.21 9.544 12.51 14.057 0.815 1.034 1.59 2.064 2.408 3.093 2.408 3.141 5.116 5.502 7.951 7.308 13.067 12.335 27.167 23.255 42.041 32.97 25.964 14.7 51.542 28.456 77.937 40.282 0.513-0.352 1.030-0.648 1.506-1.034 13.456 4.901 27.126 9.285 40.966 13.11 4.296 2.106 8.426 3.137 12.334 3.27 0.905 0.188 1.806 0.431 2.753 0.688 3.742 3.696 8.68 6.361 14.871 7.266 12.297 1.807 24.631 3.608 36.928 5.456 13.844 3.225 27.772 6.15 41.829 8.643 2.148 0.39 4.255 0.471 6.274 0.39 9.544 1.376 19.088 2.491 28.673 3.354 0.73 0.988 1.548 1.935 2.407 2.837 43.377 2.883 87.696 0.435 126.389-14.186 7.909-3.913 15.817-7.78 24.544-10.487 2.281-0.69 4.472-1.034 6.624-1.119 4.597-3.696 7.266-8.638 8.251-14.011 2.148 1.244 5.802 0 5.719-3.396-0.079-3.996-0.079-7.95-0.115-11.951 7.567-3.654 13.327-10.32 14.228-20.25 2.19-24.156 4.346-48.319 6.536-72.475-0.35-0.063-0.647-0.28-0.947-0.39 1.076-2.37 1.076-5.373 0.99-11.433-0.079-3.742-0.313-7.437-0.476-11.179 2.97 0.28 5.76-0.859 7.35-4.426 1.118-2.541 0.605-5.373-1.46-7.266-0.517-0.471-4.859-2.149-6.795-2.32-0.118-1.935-0.313-3.87-0.472-5.802 0.472-0.154 0.943-0.313 1.414-0.516 2.494-1.244 3.312-4.296 1.118-6.274-0.601-0.56-1.205-1.073-1.764-1.636 0.313-0.063 0.559-0.217 0.863-0.39 0.859 0.063 1.673 0.125 2.536 0.188 2.837-1.547 6.274-1.807 9.243-0.688 0.943-1.034 1.46-2.577 0.859-3.825z"></path>
    </svg>