<svg xmlns="http://www.w3.org/2000/svg" viewBox="16.436 46.552 997.131 995.121">
    <path fill="#000000" d="M863.807 304.865c0 8.103 0 16.163 0 24.264 0 4.141 0.279 8.381 0.1 12.538-0.139 3.527-1.665 6.576-1.958 10.004-0.279 3.805 0.047 7.807 0.098 11.669 0.047 5.96 0.139 5.765-6.675 6.576-14.867 1.805-30.309 0.421-45.276-10.341 0-13.866-0.1-27.695 0-41.515 0.098-17.493-4.058-35.175-5.289-52.524-0.699-9.151-4.673-19.35 0.421-27.644 6.059-9.865 17.401-10.774 28.124-10.774 5.863-0.048 13.292-1.398 18.399 1.259 7.529 3.959 9.669 12.957 11.195 20.591 1.762 8.955 2.853 16.68 2.714 25.881-0.045 5.485-1.427 10.439-1.904 15.821-0.421 4.633 0.098 9.529 0.098 14.202zM858.661 567.405c-1.398 3.427-9.39 1.708-12.244 1.259-5.96-1.12-11.348-1.427-17.447-1.427-4.954 0.048-8.859-0.279-13.488-1.398-2.043-0.56-6.38 0.699-7.962-0.421-2.476-1.805-0.838-9.586-1.12-12.818-0.699-7.725-1.665-14.731-1.623-22.547 0-9.669 0-19.35 8.913-29.025 7.585 0 15.726-0.981 23.262-0.1 3.763 0.421 6.815 1.819 10.678 1.862 3.092 0.048 7.193-0.981 9.572 1.259 2.436 2.436 1.259 7.571 1.259 10.774 0.047 6.102-1.427 11.391-1.862 17.347-0.56 6.815 0.1 13.866 0.045 20.689-0.045 3.288 0.098 6.002 0.838 9.151 0.421 1.469 1.722 3.862 1.12 5.388zM758.27 358.204c-1.12 3.723 0.098 2.24-3.723 3.191-0.56 0.139-47.952 1.566-53.67-10.774 0-11.195 0.981-22.731 0.098-33.884-0.279-4.002-1.805-7.668-1.958-11.726-0.139-4.519 0.56-8.998-0.279-13.488-1.259-6.338-1.398-12.244-1.427-18.734-0.048-7.29 2.532-14.82 4.715-21.781 2.197-6.815 5.107-14.014 9.726-19.587 3.862-4.715 7.767-4.337 13.488-4.296 5.192 0 11.81-1.12 16.873 0.279 12.497 3.624 11.433 22.071 12.44 31.841 0.699 6.576 1.862 12.482 1.904 19.159 0 8.103 0 16.204 0 24.312 0 11.908-0.421 23.877 0.421 35.795 0.279 4.183 2.868 14.724 1.484 19.636zM728.334 559.996c-5.346 0-10.732 0.279-16.013 0.045-4.24-0.139-4.101-0.045-4.198-4.38-0.098-3.862-0.279-7.907-0.047-11.823 0.279-4.24 1.805-8.103 1.904-12.397 0.279-8.955-0.047-17.969-0.047-26.929l7.151-5.388h17.064c4.576 0 10.678-1.12 15.011 0.279 1.862 9.054 0.139 20.017 0.139 29.216 0 5.863-0.699 12.104-0.045 17.875 0.421 3.624 1.259 10.2 3.009 13.292-7.29 1.623-16.443 0.139-23.926 0.139zM564.562 598.436c-0.699 3.345-0.838 6.241-1.398 9.529-0.838 7.486-1.762 14.253-1.862 21.784-0.1 4.715 1.484 8.913 1.904 13.684-1.904-2.532-9.291-1.12-12.258-1.12-5.192 0-8.955-0.421-13.825-1.623-2.436-0.56-5.57 0.279-7.807-1.427-2.714-2.099-1.526-1.722-2.197-4.954-0.56-2.91-1.722-4.478-1.722-7.725 0.048-0.838 0.279-2.197 0.139-3.288l-3.723-2.476c3.092-0.838 3.723 0.56 3.723 2.476l1.665 1.12c0-6.87 0.139-13.153 1.398-19.779 0.838-4.673-0.279-9.529 0.421-14.253 0.838-6.059 4.337-5.192 9.012-3.959 2.436 0.699 4.618 0.279 7.151 0.421 2.771 0.139 4.478 1.427 7.151 1.904 3.568 0.56 11.013-2.099 12.636 1.469 0.699 1.58-0.279 6.857-0.56 8.299zM527.087 506.243c1.427-4.436 8.816-3.624 12.636-3.527l1.805-5.332h9.907c2.043 0 6.38-0.981 8.103-0.139 3.386 1.526 1.665 12.622 1.665 16.299 0 7.725-0.56 15.584 0.838 23.211 0.838 4.198 0.279 8.535 1.259 12.579 0.838 3.191 2.099 5.246 1.12 8.717-4.394-0.838-7.347-1.623-12.201-1.623-4.772 0.045-9.586-0.048-14.345 0-8.003 0.098-8.395-6.338-9.054-13.488-0.838-8.816 0.279-17.204-1.259-25.928-0.56-2.618-1.398-8.144-0.56-10.774zM501.884 601.994c-0.279 1.12-1.427 1.427-1.722 2.671-0.56 2.518 0.047 6.38 0.098 9.054 0.045 3.386-0.838 5.011-1.805 7.921-1.259 4.141-1.398 8.62-1.722 12.915-0.279 3.959-2.379 7.347-1.862 11.391-10.061-7.108-10.104-5.388-10.97-3.723-6.284 0.56-12.636 0.279-18.872-0.279-1.526-0.139-9.151-0.56-11.53-1.259-4.058-1.259-2.853-3.666-3.763-7.247-0.421-1.722-1.259-2.91-1.427-4.772-0.279-2.714 0.139-5.485-0.421-8.242-0.699-3.862-1.722-5.093-0.981-9.012 0.279-2.001 1.259-3.666 1.469-5.765 0.279-3.427 0.838-5.667 1.566-8.913 0.699-3.386-0.279-8.816 1.805-11.866 2.953-4.101 20.926-1.566 25.98-1.566 3.288 0.048 8.717-0.838 12.005-0.045 1.526 0.279 2.658 1.398 4.183 1.708 2.814 0.56 5.246-0.838 7.247 1.862 1.762 2.281 0.838 6.619 0.838 9.444 0.047 1.904 0.279 3.959-0.139 5.765zM460.876 517.483c0-3.106-1.398-9.683 0.838-11.965 2.575-2.618 10.678-0.981 14.253-0.981h8.199l10.732-1.805c0 2.91-0.421 6.156-0.048 9.012 0.421 3.231 1.722 5.583 1.904 8.955 0.139 3.527-0.045 7.151-0.098 10.635-0.048 4.24 1.526 7.429 1.904 11.488 0.279 2.953-0.098 6.198-0.098 9.151 0.047 3.568 0.981 5.485-2.575 6.38-4.533 1.12-10.3-1.862-15.018-1.958-3.049-0.047-6.142 0.047-9.194 0.047-2.001 0-9.012 1.259-10.578-0.279-1.259-1.259-0.045-6.954-0.139-8.717-0.139-3.191-1.665-5.724-1.862-8.913-0.139-3.527 0.56-5.724 1.427-8.913 0.981-3.862 0.421-8.199 0.421-12.201zM290.833 509.455c-0.838 0.098-9.151 1.566-10.97 0.56-2.058-1.12-1.484-1.526-1.566-3.905-0.421-7.052 0.044-14.301 0.044-21.354 0-11.726-0.699-23.733-0.044-35.414 0.421-7.052 3.191-16.108 8.955-20.685 1.862-1.484 5.765-4.058 8.103-4.576 2.91-0.699 6.534 1.259 9.586 1.526 3.386 0.421 6.815-0.279 10.104 0.279 10.439 1.805 17.877 11.684 20.639 20.876 6.284 21.256 7.094 42.848 7.094 64.964-22.165-3.568-36.984-3.624-51.952-2.197zM931.745 670.296c-0.279-5.093-1.259-10.104-1.665-15.203-0.699-9.054 0.139-18.157-0.045-27.215-0.421-13.392-2.001-26.598-1.958-39.992 0.139-39.225 0.045-78.405 0.045-117.581 0-17.445 0.981-35.222 0-52.668-0.421-7.907-7.151-11.53-12.104-17.397-3.331-3.862-3.959-8.299-4.058-13.531-0.421-16.204 0.048-32.506 0.048-48.762v-71.731c0-20.398 0.139-40.851 0-61.247-0.048-5.624 0.56-5.011 3.624-8.634 2.518-2.91 3.959-13.014 3.191-17.11-1.259-6.815-1.427-13.11-1.427-20.209 0-2.043 0.098-4.141 0-6.198-0.1-2.771-1.12-4.576-1.665-7.151-0.838-4.855 1.12-8.060-4.337-10.3-3.959-1.623-9.012-2.336-13.196-3.149-6.002-1.12-15.584-3.945-21.878-3.386-0.56 2.814 0.098 5.863 0 8.773-0.279 5.863-3.149 5.528-8.438 6.338-10.2 1.484-17.445-4.478-18.729-15.011-6.338-0.56-13.292-0.838-19.592-0.421-4.618 0.279-4.101 1.427-7.725 2.043-4.002 0.699-9.907-4.002-13.77-2.099-3.568 1.819-1.762 10.913-1.665 14.726 0.139 5.050 0.699 6.773-5.289 7.907-8.199 1.623-14.538-1.762-17.777-9.151-0.279-0.838-1.398-2.336-1.58-2.996-0.139-0.699-0.139-4.337-0.56-4.715-1.259-1.12-16.156-0.279-13.335-0.279-7.151 0-15.018-1.12-22.022 0.279-0.699 2.91-1.904 5.667-2.14 8.677-0.1 1.526 0.838 4.101 0.279 5.57-1.259 2.336-7.011 2.814-9.054 3.106-1.762 0.279-7.767 1.526-9.487 0.56-1.12-0.699-0.838-1.12-1.665-2.14-2.853-3.288-5.289-10.159-6.815-14.059-2.099-5.528-6.773-5.011-12.538-5.346-3.666-0.139-9.726-1.427-12.383 0.981-1.398 1.259-1.762 4.715-1.917 6.437-0.421 5.246-1.259 10.243-1.862 15.441-5.15 2.436-11.195 2.197-16.73 2.24-5.724 0-6.815-0.098-10.732-4.183-3.092-3.049-5.863-6.395-8.199-10.061-0.838-1.665-1.58-3.427-1.958-5.332-1.623-1.623-11.348-3.106-13.866-1.762-3.427 1.805-2.476 6.059-3.427 9.626-1.259 4.198-2.336 7.151-2.336 11.53 0.044 10.004-1.722 20.017-1.762 30.166-0.047 9.626-0.421 18.64 8.955 23.74 3.009 1.623 7.011 2.001 9.054 4.996 3.68 5.428 2.575 16.542 3.106 23.117 1.398 17.495 0.421 35.322 0.421 52.861v47.567c0 13.684-0.139 27.409 0 41.086 0.047 3.009 0.047 4.758-1.259 7.486-1.862 3.905-4.855 4.002-7.389 6.954-2.618 3.049-3.763 8.955-5.246 12.775-1.819 4.576-2.294 9.249-3.106 14.109-0.699 4.533-1.12 9.964-3.049 14.152-2.518 5.528-7.011 6.912-12.72 8.577-8.199 2.379-16.108 0.421-22.975-3.527-9.151-5.246-15.441-9.669-23.305-17.302-14.014-13.588-25.357-26.311-33.601-44.232-9.151-19.874-13.014-40.463-18.921-61.247-3.106-10.956-6.633-21.878-9.964-32.792-0.838-2.814-2.24-5.289-3.009-8.199-1.427-5.192-0.981-11.53-3.568-16.3-2.24 4.337-2.532 10.159-3.82 14.875-5.15 19.539-10.86 38.889-18.973 57.529-8.003 18.399-17.252 37.508-28.023 54.479-12.062 18.921-25.070 39.082-40.657 55.24-0.421-0.56-0.139-1.12 0.699-1.398-1.259-0.098-2.476-0.098-3.723 0.048 1.398 0.098 2.658 0 4.002-0.421-0.421-1.904-6.576-2.671-8.535-3.624-3.805-1.762-7.332-4.38-10.578-7.011-11.291-9.208-19.973-18.542-26.741-31.362-5.71-10.874-12.72-20.637-17.825-31.934-5.906-13.056-11.391-26.266-16.873-39.516-4.954-11.866-11.095-21.78-17.589-32.792-5.428-9.291-6.773-18.392-10.146-28.26-7.767 25.498-19.064 49.853-27.55 75.119-5.428 16.059-12.062 31.648-17.777 47.569-5.050 14.059-8.677 28.26-16.586 41.081-4.533 7.347-9.151 10.874-17.495 12.397-6.241 1.12-12.775 1.398-19.114 1.958-3.092 0.279-7.389 1.427-10.482 0.981-5.667-0.838-7.907-9.431-9.39-13.825-6.857-20.683-5.093-44.61-5.528-66.059-0.421-23.16-3.191-46.041-3.862-69.16-0.56-20.348-4.478-43.086-0.139-62.865 2.24-10.3 2.14-20.733 2.14-31.362 0-9.291 0.421-18.492-0.838-27.695-0.699-5.093 0.279-9.109-3.568-12.678-3.905-3.568-7.347-3.331-12.343-3.527-7.907-0.279-15.634-0.56-23.497-1.259-8.003-0.838-17.725-1.762-25.739-0.421-0.56 7.332-1.862 14.533-2.043 21.924-0.279 10.104 0.838 20.302-0.279 30.409-0.838 8.060-2.618 16.206-1.12 24.401 0.699 3.723 2.476 7.108 3.723 10.578 3.624 10.341 3.581 20.398 2.814 31.268-0.981 14.396-2.099 28.74-2.771 43.179-0.981 20.975-3.049 41.895-4.002 62.822-0.421 8.773 0.139 17.539 0 26.311-0.139 7.962-1.665 15.678-1.958 23.64-0.139 4.868 0.981 10.396-0.279 15.105-2.14 8.060-5.050 17.543-6.773 26.359-2.996 15.489-2.814 32.171-2.853 47.806-0.048 31.268 2.814 62.341 4.24 93.561 0.699 16.636 2.043 33.364 2.294 50.003-0.098 7.668-0.139 15.346-0.139 23.018-0.699 2.714-0.421 5.050 0.981 7.052-3.149 0.699-0.699 23.64-1.427 28.31-1.708 10.774 0.421 18.877 2.575 29.698 2.197 10.874 3.624 20.589 9.333 30.073 4.478 6.954 9.669 13.292 15.584 19.064 13.11 8.913 26.934 16.634 41.472 23.068 15.726 9.151 27.215 20.352 40.514 32.176 19.874 17.682 40.085 35.171 62.007 50.283 21.543 15.346 44.423 28.216 68.682 38.652 14.538 5.192 29.455 8.438 44.753 9.822 34.603 4.673 71.021 7.486 105.956 4.715 43.899-3.527 87.223-17.16 130.17-26.214 17.634-3.763 35.314-7.29 53.046-10.578 15.634-2.001 30.79-5.724 45.564-11.152 32.032-12.104 63.68-31.076 91.513-50.712 8.060-4.436 14.635-10.439 19.779-18.066 5.15-9.726 10.439-19.35 15.877-28.883 10.956-19.587 20.159-40.035 30.832-59.767 5.246-10.243 11.152-20.065 17.78-29.505 6.576-8.634 13.11-17.252 19.637-25.926 6.857-10.97 8.955-24.55 15.965-21.641-2.197-1.904-1.566-3.527-1.762-6.102z"></path>
    </svg>