<svg xmlns="http://www.w3.org/2000/svg" viewBox="-17.763 89.774 1046.836 895.789">
    <path fill="#000000" d="M177.795 375.064c1.308-11.039 5.394-21.135 12.645-29.916 5.855-7.126 11.711-14.003 18.715-20.201 7.251-6.454 13.708-12.944 20.542-19.818 5.394-5.47 9.63-11.711 15.019-17.144 4.074-4.111 5.992-9.12 9.929-13.238 10.902-11.287 23.381-20.455 37.3-28.305 9.468-5.308 19.352-10.017 29.364-14.429 11.075-4.884 21.984-10.689 33.569-14.511 10.864-3.564 20.834-8.608 31.526-12.562 10.477-3.899 21.263-6.877 31.702-10.951 21.557-8.322 43.199-14.257 66.37-17.101 12.383-1.533 24.907-1.919 37.341-3.439 5.219-0.623 10.352-1.483 15.575-1.607 4.747-0.124 13.621 1.694 18.121 0.249 1.82-0.623 2.167-1.27 4.074-1.694 2.679-0.623 12.060 0.872 13.115 0.872 3.227-0.086 6.367-0.748 9.593-0.499 21.092 1.27 42.268 4.286 63.227 6.665 4.971 0.499 9.929 0.748 14.683 2.292 3.825 1.246 8.147 1.121 11.835 2.591 4.286 1.658 7.899 4.411 12.347 5.942 5.942 1.993 10.689 5.345 16.464 7.724 3.774 1.533 7.513 2.928 11.462 4.124 5.518 1.694 8.745 4.373 13.577 7.389 6.241 3.899 13.453 5.643 19.524 9.892 6.665 4.621 13.238 9.593 19.73 14.341 9.044 6.616 12.222 14.939 17.484 24.44 2.679 4.834 5.731 9.68 8.608 14.39 4.411 7.126 11.163 11.624 14.771 19.391 3.439 7.513 6.241 14.556 8.571 22.279 1.246 4.036 0.996 7.549 1.246 11.886 0.124 3.688 1.445 6.952 2.715 10.477 1.906 5.47 4.672 9.718 7.724 14.726 6.665 10.951 11.798 23.166 14.346 35.517 2.803 13.453 8.309 26.437 11.587 39.806 1.121 4.373 1.395 8.783 1.993 13.198 0.748 6.241 2.803 12.433 3.014 18.714 0.124 4.958 1.121 12.134-0.499 16.975-0.872 0.124-1.831 0.249-2.715 0.373-0.872 2.504 0.499 3.863-1.246 6.279-2.877 4.286-13.026 7.3-18.032 7.176-5.133-0.124-9.468-3.863-12.395-7.762-4.497-6.030-5.219-13.115-7.389-19.99-3.313-10.565-6.317-22.066-12.309-31.657-11.711-18.798-17.652-40.865-25.373-61.359-7.762-20.582-16.042-42.312-29.663-60.134-8.111-10.565-15.999-21.897-25.039-31.697-9.718-10.651-18.542-14.218-32.167-18.714-18.414-6.068-35.898-13.072-52.744-22.279-11.499-6.329-21.984-12.945-34.714-16.891-3.65-1.121-6.403-2.155-10.316-2.504-18.842-1.694-38.238-0.872-57.162-0.872-24.783 0.124-49.819 0.748-74.43 3.65-10.615 1.445-21.135 3.052-31.659 4.884-10.776 1.533-21.385 3.612-31.913 6.279-14.174 5.769-20.877 18.631-33.099 26.819-14.257 9.543-31.952 17.781-48.293 23.635-4.373 1.359-8.608 3.103-12.689 5.183-3.6 3.176-7.338 6.279-11.163 9.294-10.527 7.549-22.744 12.944-33.78 19.816-3.899 2.466-10.651 5.98-13.366 10.053-1.121 2.504-2.256 5.046-3.227 7.637-2.081 3.863-4.621 7.463-7.637 10.776-4.535 6.367-8.023 13.497-12.185 20.029-2.167 3.439-3.526 6.491-4.162 10.565-0.086 3.949-1.246 7.762-3.227 11.325-3.825 6.104-8.958 10.988-15.404 14.64-4.621 4.286 0.499 2.841-1.782 6.192-5.643 8.198-15.066-18.67-14.851-17.824-1.445-5.47-2.38-11.798-4.884-11.287z"></path>
    <path fill="#000000" d="M84.689 415.49c8.996 0.499 17.779 3.526 26.819 4.373 12.601 1.246 25.334-0.623 37.976 0.623 20.754 1.906 42.012 2.841 62.89 2.766 7.974-0.043 16.043-0.373 23.975-0.124 7.762 0.249 15.404 1.521 23.131 1.694 18.117 0.499 36.322-0.088 54.487-0.088 14.429 0.040 28.981-1.744 41.969 5.769 3.987 2.33 8.821 3.825 9.967 8.446 0.996 4.124 0.499 8.958-2.256 12.347-2.417 2.978-6.241 4.461-9.543 6.155-4.024 1.993-10.053 2.841-13.624 5.257 1.246 2.504 2.167 4.71 4.162 6.74 2.715 2.766 4.373 2.679 8.023 2.928 12.222 0.872 24.829 4.074 37.050 5.818 21.725 3.052 42.945 7.513 65.008 8.111 26.524 0.748 53.087 4.759 79.568 6.329 6.877 0.499 13.28 1.445 20.243 1.359 7.762-0.086 14.935 0.499 22.574 1.407 15.232 1.82 31.064 1.694 46.469 1.694h21.936c3.688 0 7.338 0 10.988-0.043 5.942-0.043 18.204-1.957 22.617 2.803-3.214 0.872-7.126 0.748-10.39 1.121-8.608 0.996-17.017 2.542-25.506 4.124-20.876 3.863-42.477 5.855-63.609 7.762-10.988 0.996-22.024 0.996-32.971 2.043-12.433 1.121-24.829 2.417-37.263 3.389-17.482 1.359-34.669 1.445-52.196 1.782-19.603 0.373-39.124 2.417-58.769 1.483-26.653-1.27-53.343-1.27-79.99-3.014-11.374-0.748-26.946 0.748-37.344-4.621-1.744-0.872-3.774-2.38-4.971-3.825-3.313-3.987-3.688-11.412-3.774-16.336-0.124-8.659 2.118-20.753-4.796-27.329-9.506-9.12-24.529-9.767-36.708-10.951-17.822-1.744-35.771-3.564-53.637-4.497-9.455-0.499-18.543-2.205-27.878-3.737-9.257-1.483-18.757-2.081-27.926-4.036-8.309-1.782-16.974-3.863-25.035-6.527-5.009-1.607-34.118-6.826-11.673-21.176z"></path>
    <path fill="#000000" d="M476.756 601.235c3.227 3.014 9.082 5.518 12.861 7.389 4.497 2.205 8.535 5.133 12.9 7.425 4.411 2.256 9.331 2.679 14.046 4.074 15.828 4.71 31.192 12.172 47.952 13.198 15.575 0.872 31.147 1.868 46.724 1.82 17.185-0.089 34.458 0.623 51.604-0.373 15.91-0.872 31.36-3.825 47.102-5.98 16.209-2.292 32.167-5.518 48.505-6.839 16.38-1.308 32.761-2.803 49.141-4.198 15.743-1.359 31.443-0.996 47.229-1.121 7.090-0.040 14.174 0.623 21.219 1.694 4.958 0.748 9.419 2.89 14.386 3.688 8.659 1.445 16.804 3.949 25.207 6.628 4.872 1.569 9.331 2.542 13.919 4.92 3.313 1.731 6.665 3.14 9.892 4.92 2.504 1.395 8.821 4.198 9.63 6.952-7.762 5.095-22.445 1.359-30.892 0.499-7.762-0.748-15.954-0.996-23.803-1.569-5.607-0.373-11.287-0.124-16.935-0.124-55.632 0-110.457 9.044-165.495 16.086-6.117 0.748-12.309 0.249-18.42 1.121-5.183 0.748-10.142 2.292-15.4 2.715-21.391 1.744-42.478 6.54-63.953 8.398-34.542 3.052-73.288 6.104-104.349-12.601-5.183-3.103-10.74-5.731-15.999-8.745-6.54-3.688-11.587-8.061-16.679-13.497-6.491-6.952-20.705-17.525-14.851-28.599-0.373-0.088-0.623-0.249 14.468-7.986z"></path>
    <path fill="#000000" d="M827.341 536.614c3.103 6.241 1.121 12.477 0.124 19.224-0.996 6.791-0.124 14.258-0.124 21.132 0 2.292-0.872 6.753-0.249 8.907 1.407 4.411 9.169 3.014 12.773 3.389 6.616 0.748 12.9 1.246 19.605 1.246 2.928 0.039 10.565 0.623 13.154-1.658 1.868-1.62 1.658-7.338 2.118-10.053 0.623-3.227 0.373-6.491 0.499-9.767 0.089-7.724-2.081-15.15-5.009-22.234-2.38-5.731-4.747-10.826-11.325-12.9-5.731-1.82-14.938-0.249-20.92-0.373-5.009-0.040-13.366-0.499-10.615 3.103z"></path>
    <path fill="#000000" d="M835.585 676.628c0 3.389-2.877 5.731-5.133 8.111-3.688 3.949-7.425 7.899-11.924 11.075-5.009 3.526-10.951 5.556-16.086 8.958-5.171 3.402-10.316 6.826-15.273 10.565-6.241 4.71-12.776 8.745-19.689 12.521-8.023 4.335-15.238 9.593-23.131 14.048-11.798 6.654-21.896 15.615-33.011 23.166-11.972 8.147-25.971 14.39-39.423 20.031-6.877 2.877-13.409 6.454-20.283 9.294-4.884 2.043-9.294 5.183-14.257 7.001-28.182 10.228-59.623 8.783-89.074 11.835-5.345 0.499-10.74-0.089-16.043 0.623-7.812 0.996-15.36 2.33-23.293 2.667-21.729 0.996-43.625 0.124-65.394 0.124-11.113 0-22.916 1.395-33.566-2.256-6.403-2.205-13.026-3.6-19.307-5.855-8.958-3.227-17.355-7.974-26.397-10.902-3.389-1.121-7.425-1.121-10.651-2.417-3.265-1.359-4.92-4.461-8.111-6.030-8.745-4.286-18.373-8.958-26.354-14.597-7.039-5.009-14.298-11.761-19.773-18.164-5.133-6.104-7.549-12.309-9.843-19.391-0.748-2.38-2.715-4.411-3.825-6.616-1.82-3.863-2.33-7.936-4.92-11.549-4.286-6.030-9.169-11.886-14.003-17.48-2.466-2.841-4.286-5.992-6.964-8.621-7.163-7.001-10.814-15.828-17.312-23.127-4.796-5.345-10.615-10.74-12.259-17.484-1.407-0.249-5.133-0.872-6.454-0.249-2.292 0.996-1.569 2.417-1.521 4.672 0.124 5.855 0.499 11.924 0.086 17.738-0.249 4.411-1.82 8.235-1.782 12.728 0.043 3.439 0.043 6.839 0 10.266-0.088 10.017 2.715 19.646 5.345 29.323 3.265 12.048 12.816 21.342 21.221 30.511 9.207 10.053 19.601 19.053 28.809 29.153 10.266 11.287 20.16 23.592 28.687 36.070 8.198 11.924 13.243 23.635 23.725 34.286 7.001 6.491 14.341 12.648 21.98 18.459 2.803 2.679 5.942 4.92 9.419 6.753 7.936 3.899 17.439 5.942 25.842 9.032 10.864 3.949 21.426 5.607 33.099 7.039 18.331 2.205 36.58 2.256 54.911 3.688 10.864 0.748 21.681 2.89 32.589 3.313 16.166 0.623 32.673-0.996 48.715-2.38 16.763-1.445 31.36-5.805 47.274-10.477 19.988-5.906 39.507-12.562 58.942-19.818 15.999-5.992 31.319-13.243 47.23-19.439 17.781-6.915 34.884-10.316 47.105-24.823 9.032-10.689 17.525-21.853 26.012-32.927 8.36-10.864 17.273-21.348 25.633-32.212 4.672-6.104 7.549-11.075 9.767-18.078 2.928-9.257 7.899-17.738 13.493-25.799 2.841-3.176 5.133-6.665 6.877-10.403 0.373-3.899 0.249-7.799-0.373-11.711-0.623-6.192-0.124-9.843-1.321-20.24z"></path>
    <path fill="#000000" d="M422.199 645.297c-3.351-3.351-6.329-5.518-10.651-7.675-7.262-3.526-13.958-7.899-21.049-11.536-9.805-5.046-20.621-8.745-30.721-13.198-3.564-1.569-7.251-2.38-10.951-3.65-4.672-1.569-8.745-4.111-13.243-5.98-3.475-1.445-7.251-1.993-10.826-3.265-4.411-1.533-8.484-3.737-12.982-5.183-7.637-2.466-16.252-3.911-24.19-5.345-8.309-1.533-17.185-1.569-25.633-2.292-11.959-0.996-24.141-0.623-36.070 0.748-22.445 2.591-43.875 7.687-65.9 12.773-8.907 2.043-17.611 4.971-26.481 7.251-3.176 0.748-7.687 2.043-10.441 3.564-1.321 0.748-2.33 2.205-3.825 3.014-2.33 1.246-4.834 1.27-7.090 2.542-4.323 2.38-7.389 5.643-12.222 7.262-3.564 1.246-7.3 1.445-10.864 2.629-4.198 1.395-8.697 1.868-12.861 3.176-0.996 4.124 1.321 6.403 1.445 10.266 4.198 1.744 13.665-2.679 17.988-3.313 6.702-0.996 13.537-1.744 20.287-2.417 20.201-1.993 40.1-7.848 60.341-9.419 6.491-0.499 12.648-1.62 19.185-1.533 6.54 0.124 12.728-1.483 19.18-1.607 7.389-0.124 14.806-0.040 22.19-0.040 9.805 0 18.42 3.351 27.965 4.958 6.665 1.121 13.072 2.841 19.651 4.373 13.366 3.103 27.285 3.313 40.695 6.441 9.419 2.205 17.993 7.389 27.201 10.352 12.096 3.863 26.437 6.665 39.17 7.687 10.053 0.748 19.307 2.803 28.94 5.009 5.893 1.359 10.689 5.046 16.464 6.665 7.513 2.030 15.66 4.971 23.426 5.345 1.246-1.533 1.395-13.282 0.124-15.023-3.014-4.162-14.091-5.219-18.586-6.491-4.759-1.359-9.63-2.205-14.429-3.389-3.265-0.748-6.241-3.351-9.257-4.074-4.162-0.996-4.71-0.623 3.987 1.308z"></path>
    </svg>