<svg xmlns="http://www.w3.org/2000/svg" viewBox="15.554 13.661 1007.356 1000.058">
    <path fill="#000000" d="M875.792 563.032c-0.13 9.432-2.679 19.183-5.037 28.218-1.252 4.788-4.465 13.578-8.824 21.97-5.748 3.287-9.356 5.323-13.182 8.965-7.106-1.643-15.216-1.462-24.078 0.396-3.357 0.677-11.108 4.608-14.61 2.854-5.392-2.606-5.284-10.003-8.82-14.469-4.359-5.43-10.183-7.999-16.971-7.999-11.68-0.026-26.828 10.5-23.542 23.183 0.929 3.536 5.362 2.892 6.54 0 3.464-8.502 11.752-13.145 16.86-4.572 2.717 4.572 2.467 9.858 5.358 14.576 9.145 15.043 19.543 9.646 31.475 14.254 13.791 5.358 2.751 17.468 0.785 28.866-0.857 4.894-0.498 10.287 0.787 15.575-3.536 3.287-8.324 4.427-12.077 7.5-4.642-1.43-9.498-2.213-14.323-2.142-12.36 0.234-22.398 5.716-31.475 13.791-4.036 3.608-7.572 7.749-11.68 11.323-5.575 4.859-2.679 7.93-9.896 3.25-7.289-4.788-3.968-12.184-7.895-19.041-5.858-10.183-21.116-8.037-25.114-19.398-0.325-0.966-1.894-1.43-2.392-0.325-6.611 14.644-5.005 17.967 5.571 28.754 5.142 0.36 7.467 3.398 6.892 9.111 0.097 0.788 0.227 1.572 0.325 2.36 1.501 2.996 2.502 4.247 5.075 6.751 5.001 4.752 12.824 7.68 18.965 10.5 13.078 5.932 25.294 5.575 38.509 3.895-6.394 6.394-13.432 11.573-19.647 13.5-13.681 4.251-35.366-6.394-45.688 7.68-4.501 6.11-5.326 18.645-7.217 25.435-0.193 0.535-0.325 1.033-0.463 1.572-7.718-3.321-15.039-3.464-23.366-2.538-0.962 0.104-1.643 0.497-2.143 1.036-0.097-14.431 4.182-26.113-2.609-40.761-6.318-13.608-11.752-11.752-22.792-18.824-10.003-6.428-2.783-9.896-8.25-20.791-5.499-11.002-20.576-13.612-31.257-16.971-3.968-1.25-6.861 4.075-4.002 6.935 4.859 4.822 12.252 9.001 15.575 15.002 5.037 9.145-0.536 9.858 0.57 19.753 0.787 7.289 5.219 12.754 11.182 16.539 12.575 8.037 20.293 1.25 16.614 25.043-1.718 11.040-8.969 19.077-7.289 30.758 1.465 10.325 8.144 18.471 17.255 23.366-4.859 2.249-9.822 5.894-13.038 8.395-5.932 4.646-11.289 16.432-12.575 27.54-0.608-0.39-1.252-0.784-1.856-1.217-2.181-4.179-5.538-7.251-9.468-9.252-3.074-4.676-4.431-10.003-4.752-16.111-0.539-11.466-1.072-19.86-13.504-23.753-3.677-1.143-7.038 1.93-7.18 5.465-0.291 5.752 4.289 11.68 0.895 15.827-1.644 2-8.398 3.608-10.79 5.109-3.179 1.965-6.215 4.323-9.181 6.681-2.035-10.11-8.288-19.539-18.074-27.115-7.076-5.499-17.185-8.001-8.862-15.002 7.148-6.038 15.043-4.289 20.185-13.787 5.571-10.325 1.286-22.722-10.967-23.472-2.574-0.182-4.608 3.179-3.074 5.358 6.181 8.79-17.933 9.751-25.039 13.037-13.932 6.467-23.58 22.041-24.793 37.299-0.604 7.857 1.748 14.11 6.502 20.254 5.178 6.751 13.861 8.182 19.077 13.542 0.787 0.818 1.501 1.748 1.894 1.748-0.785 2.32-3.215 4.894-4.431 6.322-0.785 0.857-1.462 1.643-2.177 2.359-3.394-3.321-6.892-6.215-9.964-8.288-12.968-8.716-27.721-18.434-39.617-28.758 7.182 5.358-5.429-14.074-10.967-17.078-10.749-5.82-21.574-2.713-31.257 2.36-6.428 3.394-7.251 9.858-16.111 8.074-3.357-0.682-6.36-5.216-8.969-8.573-0.891-5.752-2.071-12.185-2.464-11.648 0.066-0.104 25.187 1.25 29.614 0.104 4.036-0.999 7.787-2.213 11.108-5.001 7.754-6.428 9.039-16.252 6.896-25.899-4.036-18.467-22.148-24.862-38.402-17.576-0.608-0.234-1.252-0.39-1.68-0.13-0.227-0.026-0.291-0.026-0.359-0.026 0 0 0 0 0 0-0.75-0.712-1.822-1.217-2.678-1.572-0.032-0.104 0-0.155-0.032-0.292-0.359-1.682-1.358-3.107-2.147-4.608-2.143-4.106-9.394-2.359-9.001 2.428 0.227 2.535 0.819 5.25 2.858 7 0.604 0.535 1.282 0.857 1.963 1.036 0.678 4.106 5.392 6.502 9.896 6.035 0.857 0.788 1.894 1.358 2.892 1.713 4.966 1.682 12.25 0.325 16.146 3.466 9.035 7.321-0.716 14.503-7.68 16.146-13.038 3.145-34.937-3-40.402 14.752-2.071 6.751 2.106 24.257-8.537 26.435-5.433 1.111-23.757-10.679-26.902-14.683-0.259-0.325-0.466-0.677-0.682-1.002-1.106-9.717-3.893-19.038-7.75-25.433-6.578-10.79-12.252-21.294-11.399-34.225 0.433-6.323 3.574-12.038 3.36-18.965-0.325-10.289-4.002-22.184 3.215-31.046 9.001-11.074 19.073-8.074 28.291-0.857 1.787 1.392 18.038 16.398 3.823 13.608-6.394-1.25-9.899 5.503-6.038 10.362 11.216 14.11 27.185-1.002 27.898-14.502 1.393-27.399-32.936-41.010-54.763-34.046-10.646 3.398-23.757 11.469-29.507 21.437-7.572 13.182-0.325 28.398-3.145 42.296-0.965 4.714-1.856 9.074-2.502 13.358-1.033 1.217-1.894 2.609-2.392 4.359-1.856 6.715-3.074 11.644-3.145 17.255-0.646-0.259-1.323-0.497-2.002-0.825-20.931-9.356-9.431-3.287-14.253-25.11-1.43-6.502-5.179-13.861-9.789-18.686-9.431-9.964-15.182-3.964-12.646-24.897 0.929-7.825 3.893-13.612 10.072-18.292 8.93-6.715 15.074-4.894 22.363-15.039 1.643-2.29 0.035-9.93 2.213-11.718 4.501-3.681 18.862 0.605 24.652-0.608 6.609-1.395 10.217-2.072 12.679-8.786 1.752-4.646-3.644-10.113-8.324-8.357-13.5 5.142-29.898-7.572-43.225 3.321-5.573 4.535-3.679 9.93-7.253 14.538-5.323 6.823-15.324 8.144-20.933 15.002-0.713 0.895-1.358 1.962-2.002 3-2.466-0.052-4.43 0.39-7.253 1.323-7.717 2.606-5.501 5.284-10.718 3.57-0.071-0.429-0.18-0.858-0.286-1.358-0.893-2.464-2.036-4.788-3.395-7.038-2.931-4.11-6.18-5.79-10.61-7.825-12.574-5.682-20.433-0.026-32.865 1.682-0.357-0.259-0.752-0.463-1.109-0.753-3.928-2.996-8.608-7.967-9.717-12.896 0.821-1.572 1.285-3.464 1.358-5.607 0.713-0.608 1.607-1.395 2.428-3.608 1.964-5.254 3.357-9.646 4.142-13.683 14.147 9.823 30.080 19.432 48.014 13.612 18.934-6.145 9.897-18.329 16.97-31.367 4.68-8.714 23.007-9.717 29.651-19.788 5.001-7.572 7.215-24.185 4.142-32.619-6.467-17.5-41.366-26.113-39.080-0.259 0.43 4.68 5.393 6.753 9.002 3.718 11.216-9.468 13.859 14.538 7.717 20.396-6.786 6.502-14.111 1.823-21.65 3.54-8.538 1.894-12.325 5.392-15.934 13.645-1.393 3.215-0.429 10.612-2.749 13.004-3.966 4.144-7.572-1.93-14.826-7.43-11.289-8.573-18.005-20.359-25.221-31.969 4.18-19.041 11.504-39.155 31.937-41.941 5.643-0.786 10.111 1.178 14.79-2.962 2.999-2.609 3.25-6.253 3.537-9.968 2.608-3.215 3.786-7.321 2.286-12.322-1.393-4.646-8.216-5.932-10.682-1.395-0.572 1.036-1.035 3-1.501 5.143-3.215-1.217-13.575-10.536-14.005-10.072-1.822-2.858-3.073-6.181-5.538-8.683-4.538-4.676-10.79-7.5-16.467-10.359-3.858-1.894-8.754-3.536-13.502-4.075 1.748-18.824 11.825-38.363 35.689-31.115 17.004 5.178 35.473 27.935 55.335 13.899 15.788-11.147 11.861-33.046-2.536-41.975-9.501-5.932-18.181 9.035-8.754 14.931-7.679 14.931-16.932 15.359-27.756 1.323-0.786-0.858-1.748-1.465-2.824-1.82-3.608-1.536-6.072-3.321-9.823-4.182-7-1.607-16.003-0.93-23.54 0.963-18.040-5.609 1.25-40.046-2.32-61.66 4.358-7.213 10.039-13.539 18.039-18.395 9.252-5.609 27.722-14.859 38.331-10.504 9.002 3.681 10.253 13.825 17.112 19.505 9.11 7.646 29.113 13.078 40.726 10.218 5.713-1.392 31.042-21.686 34.686-15.682 2.931 4.822 11.503 4.431 12.754-1.643 3.68-18.434-18.144-29.936-34.293-20.614-11.61 6.681-11.323 19.539-27.366 16.864-16.646-2.824-17.218-20.576-28.4-29.974-5.109-4.289-10.932-6.574-17.112-7.467-0.643-17.431 23.185-27.257 38.151-20.147 2.466 1.143 4.966 1.536 7.323 1.43 2.144 0.962 4.572 0.999 6.965 0.429 1.251 1.682 2.608 3.464 4.608 4.251 2.32 0.928 4.539 0.026 6.93 0.463 1.072 0.155 1.748-0.605 1.607-1.643-0.57-4.11-2.931-7.788-4.752-11.431-0.749-1.465-1.358-2.892-1.93-4.289 0.291-2.606-0.227-5.43-1.714-8.288-6.61-12.61-5.789-28.471-3.287-44.44 10.146 26.508 29.974 36.404 57.48 43.582 17.323 4.539 21.503-1.282 23.645 22.902 0.574 6.145-2.213 14.469-0.259 20.43 2.18 6.574 6.287 9.646 13.004 12.111 17.255 6.394 34.616-13.754 20.327-27.647-7.144-6.968-17.542 3.57-10.895 10.895-4.501 4.321-7.393 3.394-8.714-2.717-0.357-4.003 0-7.93 1.068-11.828 1.11-4.642 4.144-7.857 4.714-12.429 1.642-13.47-7.286-27.686-17.431-34.795-12.147-8.502-30.831-8.928-42.3-18.362-0.604-0.501-1.106-1.036-1.68-1.534 0.066-0.13 0.227-0.234 0.259-0.36 3.215-7.321 4.752-16.86 4.788-24.897 1.072-0.93 2.002-1.93 2.824-3.108-2.609 0.13-1.607-0.463 3.038-1.787 2.212-1.536 5.071-3.395 7.611-5.323 6.253 2.641 13.253 3.215 19.47-0.052 1.43 0.052 2.858 0.104 4.248 0.026-0.227 0.784-0.463 1.607-0.57 2.32-1.178 7.68 0.716 16.003 5.001 22.47 4.68 7.072 11.969 11.254 20.044 12.862 4.285 0.822 8.43-0.895 12.754 1.748 4.106 2.502 7.715 16.29 10.68 22.328 1.465 3.037 5.858 2.609 7.467 0 6.609-10.825 3.536-22.542-4.859-31.616-7.68-8.216-22.899-13.253-27.54-23.396-4.539-9.93 2.212-21.004-0.753-31.046 0.608-0.357 1.216-0.712 1.822-1.105 6.574 4.072 13.719 6.643 22.256 5.037 9.039-1.713 20.826-12.252 30.506-15.146-1.286 11.824 0.539 24.399 4.323 35.041 0.57 1.536 1.642 3.145 3.038 4.29 0.162 3.75 1.106 7.359 3.608 10.646 2.538 3.321 4.431 2.39 7.967 4.498 4.929 1.501 9.539 3.681 13.861 6.502 1.14 17.361-2.396 22.47-10.646 15.326-4.218-2.538-8.678 3.321-5.216 6.823 11.573 11.756 30.793 9.93 35.080-8.752 4.788-20.683-23.614-20.863-30.472-33.579-1.501-2.786-2.147-5.468-2.254-8.037 0-0.289 0-0.57 0-0.895 0.162-6.035 3.861-11.431 8.932-16.611 4.248-2.645 9.252-4.714 13.038-8.182 3.857-3.536 6.322-7.11 7.895-10.718 1.822-1.855 3.428-3.75 4.822-5.679 1.714 0.13 3.394 0.234 5.178 0.357 10.861 0.642 9.751 0.784 16.573 6.574 6.719 5.716 10.006 9.609 19.218 11.537 4.608 0.966 9.896-0.57 12.252-4.966 2.5-4.68 10.179-9.54 18.538-13.753-9.322 13.823-4.859 27.827-4.604 43.972 0 0.13 0 0.259 0 0.39-3 3.75-7.182 7.254-9.681 11.108-1.11 1.713-2.039 3.287-3.038 4.752-2.574 0.605-5.396 1.43-8.326 3.179-6.643 4.036-8.216 9.896-8.678 17.185-0.291 4.321 3.502 6.069 6.857 5.392 0.823 2.283 1.898 4.501 3.145 6.502 3.428 5.575 11.537 1.82 10.289-4.359-0.433-2.249-3.464-8.714-2.717-11.254 0.13-0.052 0.259-0.13 0.357-0.234 1.144 0.13 6.038-1.033 6.861-1.358 8.894-3.785 18.682-14.397 24.362-22.003 6.142-8.216 2.25-20.826 9.93-27.365 5.142-4.359 13.787-3.54 21.931-3.646 1.252 4.539 2.216 9.288 3.466 12.681 1.106 3.038 4.034 5.18 7.393 4.218 8.611-2.467 16.183-3.644 24.793-1.002 5.178 1.572 9.681 4.68 14.503 7.076-2.679 10.287-11.503 18.574-12.717 29.436-1.43 12.788 5.284 16.36 11.893 25.934 2.396 2.892 4.894 5.716 7.431 8.502-2.574-0.892-4.929-0.786-7.148 0.325-2.464 2.82-6.177 4.714-8.645 8.001-3.677 4.894-4.646 7.57-5.037 13.574-0.13 2.428 4.179 4.859 4.034 6.823-0.498 8.398-5.607 8.898-9.392 15.326-6.647 11.216-7.967 12.398-5.575 26.435 1.002 6.073 11.395 6.145 12.326 0 2.284-14.825 18.644-20.614 20.933-34.506 1.033-6.145-3.179-16.898-4.788-15.15 7.825-8.678 20.542-0.429 27.898-13.217 5.79-10.003 0.965-16.753-4.106-25.11-8.361-13.754-6.038-7.504-3.398-19.83 1.178-5.537 5.254-10.251 6.467-16.146 6.073 8.537 10.397 17.79 16.719 26.221 4.929 6.578 10.428 10.076 18.862 8.433 3.394-0.647 7.393-2.321 10.217-4.289 1.358-1.002 2.464-2.425 3.608-3.715 9.181 8.644 12.077 22.039 25.256 28.47 0.891 0.432 1.714 0.788 2.571 1.143-0.030 0.052-0.097 0.13-0.13 0.259-9.93 3.145-22.074-0.962-32.007 6.861-13.823 10.857-12.571 29.362-25.397 41.436-2.751 2.609 0.891 7.538 4.106 5.326 6.751-4.68 9.394-8.755 13.291-15.256-0.097-3.715 0.13-7.429 0.785-11.108 7.359-5.429 14.718-10.894 22.077-16.36 5.037-1.036 13.645 4.894 18.934 5.468 4.784 0.57 9.001 0.026 12.714-1.217 5.288 3.179 5.716 11.074 2.396 16.183-6.857-0.963-14.718 1.217-20.327 4.359-5.358 3.035-6.11 12.395 0 15.216 5.858 2.717 13.182 2.892 19.972 1.036 2.213 3.357 3.536 8.573 6.287 12.073 3.25 4.11 6.467 5.645 10.536 8.611 0.325 0.234 0.574 0.463 0.895 0.712-1.323 1.501-2.609 3.074-3.753 4.859-2.678 4.11-4.393 8.97-5.679 13.754-6.004-5.716-13.11-11.002-15.112-12.252-9.249-5.683-21.648-9.111-32.006-4.036-17.504 8.541-22.256 35.798-7.895 48.548 5.109 4.534 12.681-1.143 9.468-7.325-6.47-12.36 1.856-20.897 13.858-15.146 9.432 4.535 10.538 12.109 16.183 19.363 6.751 8.678 18.648 17.251 29.794 18.575 3.179 0.39 14.897-3.857 24.291-9.178 11.786 8.82 16.573 28.218 8.357 40.436-4.431 6.574-12.93 9.432-18.648 14.752-7.783 7.286-2.212 23.649 9.326 22.435 9.394-0.963 13.825 17.435 19.077 37.082-5.786-1.285-11.893-1.178-17.147 0.784-12.214 4.539-27.147 33.866-40.759 16.898-8.108-10.145 2.931-26.4-6.93-37.008-6.287-6.751-16.791-7.967-24.433-3.464-4.182 2.5-4.822 7.251-3 11.361 0.259 0.535 0.463 1.067 0.712 1.572 1.036 2.393 4.431 3.428 6.786 2.783 8.074-2.252 2.679 10.825 2.609 16.47-0.066 7.106 0.163 12.038 3.893 17.967 8.254 13.145 25.826 21.716 40.189 14.61 7.217-3.536 8.541-8.645 13.968-14.182 8.465-8.607 15.541-16.86 26.183-3.502 4.68 5.858 4.394 15.073 4.289 22.007zM923.469 441.741c-7.182-14.112-10.646-28.398-13.542-42.828 3.502-18.258-1.214-36.438-12.463-49.406-7.754-19.753-20.507-38.796-30.972-56.91-11.254-19.505-16.075-40.475-30.97-58.012-10.322-12.142-21.541-22.647-32.507-33.687-11.68-11.68-28.008-22.792-42.906-30.006-21.574-10.504-38.796-28.937-60.695-38.439-7-3.074-12.862-1.682-20.254-2.428-4.036-0.429-7.718-1.43-11.323-2.57 1.106-8.398-4.11-18.184-14.182-17.576-19.183 1.178-32.507-5.109-51.193-10.003-23.829-6.215-49.12-1.534-73.554-3.215-22.577-1.501-47.761-0.608-69.945 4.498-11.466 2.679-19.864 7.718-29.687 14.074-13.5 8.79-25.252 10.933-40.295 15.827-9.288 3.038-15.827 7.967-24.043 13.038-10.536 6.536-22.364 8.678-33.15 14.752-19.723 11.074-42.906 22.148-61.017 35.798-14.396 10.894-28.328 28.042-40.794 41.221-8.538 9.003-14.361 18.862-24.004 26.97-7.611 6.428-14.538 11.074-21.147 18.828-26.969 31.54-46.475 68.945-56.23 109.1-5.573 22.86-17.218 44.688-23.79 67.587-7.611 26.504-9.252 53.69-6.824 81.198 3.929 43.759 18.647 89.166 33.975 129.675 8.216 21.755 14.111 37.758 28.435 56.727 15.895 21.112 34.614 37.869 53.157 56.406 35.757 35.795 76.839 79.523 124.533 98.813 25.005 10.109 52.441 18.574 78.267 26.47 27.579 8.465 56.621 8.001 84.344 15.754 36.974 10.322 75.911 0.784 113.385-4.431 24.83-3.464 43.011-14.61 65.696-24.614 14.040-3.179 27.614-8.862 37.726-17.79 6.287-3.612 12.395-7.68 18.112-12.539 16.681-14.112 32.543-29.079 48.439-44.011 14.538-13.612 31.437-24.437 43.402-40.44 12.398-16.611 22.577-33.468 31.688-52.154 3.822-7.825 6.536-19.398 11.537-26.438 5.499-7.749 12.467-11.254 17.036-20.039 9.181-17.504 14.182-39.366 19.149-58.477 5.858-22.756 17.397-43.476 21.686-66.734 7.321-39.691 14.361-75.946-5.071-113.993z"></path>
    <path fill="#000000" d="M606.463 373.304c0 55.048-20.327 124.065-75.27 124.065-54.905 0-75.229-69.019-75.229-124.065 0-55.050 8.144-107.814 75.229-107.814 67.125 0 75.27 52.76 75.27 107.814z"></path>
    <path fill="#000000" d="M600.443 638.19c0 55.050-20.327 124.069-75.27 124.069-54.905 0-75.233-69.019-75.233-124.069 0-55.048 8.144-107.814 75.233-107.814 67.125 0 75.27 52.762 75.27 107.814z"></path>
    <path fill="#000000" d="M449.931 499.728c0 55.050-20.327 124.065-75.27 124.065-54.905 0-75.232-69.015-75.232-124.065 0-55.048 8.143-107.814 75.232-107.814 67.125 0 75.27 52.762 75.27 107.814z"></path>
    <path fill="#000000" d="M756.977 499.728c0 55.050-20.325 124.065-75.27 124.065-54.905 0-75.229-69.015-75.229-124.065 0-55.048 8.144-107.814 75.229-107.814 67.125 0 75.27 52.762 75.27 107.814z"></path>
    </svg>