<svg xmlns="http://www.w3.org/2000/svg" viewBox="-1.217 -16.404 1052.632 1056.650">
    <path fill="#000000" d="M355.006 487.456c-0.165-0.357-0.33-0.708-0.497-1.065 0.662 0.827 0.747 2.212 0.959 3.219 1.375 6.636 1.961 13.434 3.003 20.153 0.84 5.18 1.588 10.349 2.336 15.563 0.297 2.261 0.165 6.010 1.709 7.924 2.421 2.876 4.63 0.708 6.51-1.205 3.129-3.134 6.468-5.085 10.432-7.215 4.34-2.379 6.844-5.428 8.637-9.771 1.295-3.253 3.213-7.38 3.129-10.892-0.041-3.299-3.671-7.015-5.050-10.183-0.874-2.129-2.714-7.015-1.628-9.509 0.581-1.372 3.715-2.082 5.090-3.052 2.168-1.539 3.381-3.169 6.217-3.927 2.92-0.708 5.55-1.289 8.471-2.247 3.088-1.065 6.132-0.708 9.265-1.205 2.336-0.475 4.297-1.752 6.092-3.087 2.254-1.632 2.503-3.715 1.921-6.256-0.378-1.586-1.209-3.087-1.542-4.673-0.543-2.163-0.543-4.423-1.005-6.587-0.297-1.336-0.708-3.584-1.921-4.508-3.922-2.922-12.684 1.421-16.483 2.045-8.093 1.289-16.731 0.119-24.662-1.065-2.88-0.475-5.843-0.59-8.719-0.945-2.087-0.357-4.382-1.289-6.385-2.129-5.799-2.341-12.516-1.421-18.652-2.876-3.882-0.945-7.259-2.757-11.182-3.465-4.422-0.827-8.886-1.289-13.268-2.163-4.882-0.945-9.555-0.827-14.477-1.255-4.841-0.357-9.68-1.336-14.603-1.752-13.187-1.065-26.704-0.357-39.932-0.237-6.343 0-12.601-0.708-18.945-1.183-6.258-0.475-12.475-0.357-18.733-0.357-6.343 0-12.935 0.475-19.236-0.119-5.008-0.475-9.888-0.59-14.937-0.59-6.3 0.039-12.516-0.708-18.778-0.827-6.925-0.084-13.895 0.039-20.82 0.039-7.426 0-15.482 0.708-22.782-0.475-3.963-0.59-8.428-2.837-12.435-2.507-0.212 2.212-0.041 4.093-0.793 6.387-2.38 7.215-6.969 14.063-10.307 20.988-3.463 7.18-6.551 14.477-10.054 21.654-0.959 1.917-2.168 3.927 0.543 5.005 4.34 1.752 9.513-0.040 13.728-1.065 6.592-1.632 13.643-3.834 20.528-4.174 4.508-0.119 8.764 0.357 13.227 0.708 3.503 0.237 7.304-0.475 10.766 0.119-2.001 3.087-3.796 6.222-6.010 9.225-4.297 5.878-7.091 12.016-10.221 18.359-1.542 3.134-2.88 6.175-4.63 9.177-1.42 2.426-2.796 5.085-3.381 7.757-0.33 1.421-0.33 2.837-0.924 4.174-5.342 12.435-9.472 25.203-14.021 37.885-2.128 5.796-5.757 12.35-5.884 18.527-0.041 2.426-0.581 4.801 1.628 6.506 4.63 3.5 12.182 3.003 17.732 3.003 5.843 0 11.473-0.357 16.983-2.247 3.337-1.183 2.421-3.961 2.962-6.85 1.921-10.646 4.422-21.28 7.637-31.628 2.421-7.842 4.757-16.191 9.098-23.324 2.796-4.589 5.677-9.144 8.596-13.643 2.38-3.631 3.756-7.095 5.424-11.060 1.209-2.922 2.254-5.878 3.503-8.764 1.253-2.956 3.213-5.845 4.049-8.882 0.212 0.945 0.415 2.294 1.375 2.876 1.668 1.065 7.552-1.205 9.098-1.586 4.089-0.945 8.22-1.255 12.308-1.997 6.884-1.205 13.52-3.253 20.528-3.796 5.509-0.475 11.1-0.119 16.605-0.119 4.422 0 8.846-0.119 13.268 0.119 12.182 0.945 24.327 0.119 36.509 0.59 4.841 0.119 9.472 1.255 14.27 1.421 5.632 0.237 10.6 1.065 15.982 2.294 3.17 0.708 6.092 0.475 9.305 0.827 3.047 0.237 5.677 1.421 8.639 1.917 3.423 0.59 7.344 0.119 10.807 0.119 1.668 0 3.463 0.237 5.090-0.084 2.044-0.475 3.67-2.341 5.924-2.045-1.090 0.708-2.421 0.827 3.003-0.084z"></path>
    <path fill="#000000" d="M226.071 400.041c3.629 0.945 4.882 0.945 8.26-0.475 3.088-1.336 6.217-2.876 8.805-4.839 5.383-4.174 6.3-12.935 3.255-18.652-2.294-4.292-6.969-8.092-11.473-10.467-7.259-3.881-15.148-2.672-22.7 0.237-2.88 1.183-6.844 1.336-9.265 3.087-2.587 1.917-3.589 6.010-4.382 8.8-1.209 4.093-3.463 9.64-2.587 13.895 1.542 7.215 9.68 8.882 16.064 11.519 1.542 0.708 3.003 1.667 4.59 2.163 2.714 0.827 5.843 1.205 9.431-5.298z"></path>
    <path fill="#000000" d="M312.117 402.835c-3.003 2.379 0.84 2.876 3.255 3.419 5.591 1.205 10.14 1.372 13.895-3.087 7.177-8.55 7.091-21.905-2.714-28.999-5.677-4.093-17.358-2.709-23.908-1.255-5.843 1.336-8.679 2.876-11.348 7.677-1.375 2.426-2.836 4.92-1.335 7.592s4.882 5.513 7.051 7.642c5.884 5.963 12.642 6.34 20.613 9.097z"></path>
    <path fill="#000000" d="M874.819 416.272c-3.503-5.005 2.38-4.508 6.217-4.543 8.764-0.040 15.563 1.255 19.445 10.052 7.344 16.65 2.001 38.723-15.355 47.023-10.099 4.801-26.912-1.586-36.093-6.303-8.138-4.211-11.767-7.842-13.895-16.69-1.090-4.471-2.294-9.144 1.005-13.061 3.255-3.834 9.387-7.38 13.435-10.22 11.14-7.757 21.321-6.010 34.255-7.757z"></path>
    <path fill="#000000" d="M570.804 388.775c0-3.549-0.497-7.592 0.084-11.141 0.924-5.463 3.423-10.646 4.675-16.064 1.040-4.636 1.461-9.474 2.128-14.189 1.293-8.8 2.962-17.565 5.216-26.202 2.714-10.386 5.966-20.613 8.053-31.168 1.090-5.513 1.876-10.929 2.503-16.482 0.415-3.584 1.461-6.587 2.421-10.017 0.497-1.832 0.84-3.631 0.039-5.348-1.17-2.544-4.964-5.132-7.637-5.348-2.714-0.119-5.008 0.827-7.552 1.667-3.756 1.255-7.426 1.799-11.433 1.879-8.512 0.119-16.983-2.379-25.495-2.082-7.718 0.237-14.188 5.216-21.821 6.010-5.464 0.59-11.014 0-16.524 0.59-4.797 0.475-9.598 1.289-14.436 1.183-4.049-0.119-8.053-1.548-12.060-2.163-4.215-0.708-7.76 0.357-11.893 0.475-0.378 1.336 2.168 5.132 2.421 5.628 3.088 6.222 5.424 12.726 8.304 19.025 2.421 5.298 5.050 10.514 7.011 16.023 1.71 4.839 3.003 9.759 4.548 14.644 2.88 9.144 6.3 17.777 9.888 26.578 2.254 5.594 2.254 11.473 4.049 17.108 1.588 5.051 1.253 10.386 2.669 15.482 1.040 3.715 3.337 6.802 4.004 10.514 1.090 0.237 2.212 0.237 3.17 0.59 0.959 0.237 1.71 0.357 2.796 0.357 3.796 0.237 6.51 1.205 10.307-0.084 5.050-1.714 10.099-3.584 15.437-3.961 5.884-0.357 12.809-0.59 18.485 0.59 2.336 0.475 5.008-0.357 7.259 0.357-1.124 2.591-1.090 5.878-1.961 8.8-0.756 2.341-1.253 4.258-1.293 6.718-0.039 2.837 0.378 5.548-0.415 8.267-0.415 1.372-0.959 2.591-1.17 4.046-0.212 1.632 0.25 3.253 0.039 4.839-0.165 1.183-0.581 2.212-1.668 2.625-0.959 0.357-3.337-0.039-4.34-0.039-5.424 0.039-10.432-1.336-15.815-1.667-3.423-0.237-6.636 0.827-10.054 0.827-3.503 0.039-7.218 0.237-10.724-0.119-2.421-0.237-4.59-0.708-7.011-0.708-3.003 0-5.257-1.586-8.138-1.752-0.543-0.040-3.629-0.357-4.004 0.119-0.84 0.945 2.503 5.132 3.003 6.090 2.128 4.34 3.629 8.092 3.503 12.852 0 1.372 0.747 5.796-0.543 6.468-0.415-1.455-1.502-1.539-2.754-1.632-3.17-0.237-6.3-0.827-9.431-1.255-3.213-0.475-6.884 0.237-9.972-0.475-1.795-0.475-4.882-1.799-5.924-3.549-0.756-1.255-0.627-4.589-0.793-5.796-0.497-3.465-0.874-6.93-1.209-10.433-0.662-6.802-1.795-13.561-2.168-20.405-0.25-4.72 0.039-9.428-0.84-14.103-1.795-9.759-6.676-18.692-9.888-28.037-1.335-3.796-2.128-7.723-3.296-11.604-1.588-5.216-3.129-10.467-5.090-15.604-1.668-4.423-4.004-8.516-5.341-13.061-2.92-10.052-6.050-20.279-8.386-30.5-1.502-6.387-3.296-12.601-5.464-18.778-0.874-2.591-2.38-1.714-4.841-2.082-6.551-0.827-12.809-0.59-19.359 0.040-8.26 0.827-15.482-1.586-22.7-5.513-1.295-0.708-2.503-1.421-3.882-1.752-1.461-0.357-1.876-0.119-2.962-1.421-2.336-2.672-4.464-5.348-7.091-7.677-1.628-1.502-3.629-2.757-4.59-4.839 6.636-0.827 12.227-5.463 18.9-6.387 4.34-0.59 8.846-0.237 13.227-0.708 3.549-0.237 7.091-0.827 10.64-1.255 2.462-0.237 5.509-1.289 8.093-0.827 1.754 0.237 4.004 3.299 5.717 2.426 0.212-1.065-1.005-1.548-1.42-2.379-1.090-2.212-0.84-6.387-1.124-8.597-0.497-3.668-1.71-7.18-2.128-10.844-0.543-4.423-1.040-8.764-1.835-13.143-1.668-9.177-4.297-17.942-7.385-26.745-2.168-6.256-4.797-12.267-6.51-18.652-1.502-5.513-2.714-11.060-3.756-16.65-1.335-7.049-2.587-14.27-4.508-21.153-2.461-8.847-5.964-17.483-9.43-25.995-1.209-3.052-2.587-5.878-3.549-9.012-1.375-4.292-4.297-7.757-5.884-12.016 2.128-1.065 5.298-1.183 7.637-1.917 4.464-1.467 8.846-3.087 13.561-3.253 3.255-0.119 6.51 0.237 9.765 0.042 1.795-0.084 4.675-1.455 6.383-0.945 2.001 0.59 1.090 2.709 1.293 4.92 0.497 5.298 2.044 10.349 3.756 15.355 4.59 13.308 8.138 26.997 13.228 40.139 4.508 11.684 7.011 23.95 11.266 35.717 2.962 8.22 6.176 16.524 7.886 25.117 1.293 6.587 2.794 13.394 4.923 19.779 1.335 3.961 2.92 7.592 3.922 11.684 1.005 3.961 2.421 3.881 5.884 5.132 2.92 1.065 5.677 2.625 8.719 3.384 3.255 0.708 7.051 0.475 10.347 0.237 3.255-0.237 6.132-0.945 9.387-0.59 2.92 0.357 5.799 0.945 8.719 1.336 4.923 0.59 10.933 0.59 15.897-0.040 5.843-0.708 11.682-0.119 17.443-1.065 4.049-0.59 7.76-0.59 11.726 0.59 4.548 1.372 8.179 2.46 13.020 2.379 7.218-0.119 14.436-0.042 21.699-0.042 1.588 0 5.632 0.827 6.636-0.357 0.874-1.065-0.581-5.298-0.708-6.421-0.874-7.924 2.962-16.149 5.050-23.659 2.88-10.467 5.090-20.988 7.385-31.628 1.71-7.842 4.715-15.229 7.177-22.867 2.128-6.421 3.003-13.227 3.715-19.986 0.497-4.801 0.874-9.594 1.628-14.396 1.040-6.802 3.129-13.308 4.464-19.986 0.793-3.796 1.461-7.642 2.212-11.473 0.662-3.253 1.795-6.468 2.128-9.806 0.924-0.237 1.71 0.084 2.336 1.065 2.128 1.799 4.464 3.299 6.969 4.589 3.337 1.714 7.718 3.668 11.515 4.174 3.629 0.59 7.47-0.040 11.14 0 2.128 0.040 3.503 0.357 4.172 2.709 1.335 4.839-0.874 11.604-1.542 16.357-1.124 8.007-2.168 16.064-4.089 23.95-2.087 8.55-5.509 16.69-7.76 25.201-1.502 5.548-2.044 11.141-2.212 16.899-0.462 15.062-5.717 28.917-11.599 42.559-1.542 3.549-2.461 7.345-4.089 10.844-0.84 1.879-1.293 4.211-0.708 6.421 3.17 0.708 7.593 0.119 10.681-0.357 3.213-0.59 6.343-1.539 9.598-1.917 4.004-0.475 8.26 0.475 12.182 0.945 5.424 0.59 10.724 0.59 16.149 0.59 2.628-0.040 4.715 0.708 7.177 0.827 0.874 3.087-0.084 7.133-0.627 10.183-0.756 4.174-1.588 8.385-2.547 12.517-0.662 2.379-1.17 4.754-1.502 7.215-0.084 2.082-0.165 4.174-0.297 6.303-0.212 1.632-0.543 3.796-2.336 4.292-1.542-0.042-3.129-0.119-4.715-0.357-2.628-0.475-5.298-0.59-7.971-0.708-4.297-0.042-8.512 0.237-12.768-0.119-4.59-0.357-9.265-0.237-13.81-0.708-3.003-0.357-5.464-0.945-8.512-0.59-3.003 0.357-7.218 0.945-6.468 4.92 0.33 1.667 1.835 3.087 2.254 4.72 0.874 3.384 0.132 7.642 0.132 11.060 0.039 7.133-0.462 14.31-2.087 21.239-3.213 13.643-5.632 27.457-8.679 41.14-1.42 6.175-3.549 12.182-5.090 18.318-1.209 4.754-2.503 9.428-3.922 14.103-2.212 7.345-2.503 14.729-3.963 22.198-1.090 5.348-3.756 9.721-5.757 14.731-3.838 9.64-6.050 20.027-8.386 30.084-2.044 8.682-2.212 17.691-4.923 26.244-1.542 4.72-3.756 9.262-4.757 14.102-1.124 5.382-1.921 11.261-4.089 16.357-0.378 0.827-1.628 4.636-2.503 5.428-1.335 1.183-1.71 0.357-3.715 0-2.92-0.475-6.010-0.119-8.972-0.119-1.628 0-3.963 0.475-5.55-0.039 0.039-1.372 0.793-2.876 1.090-4.211 1.17-4.92 1.754-10.017 2.714-14.98 1.090-5.298 2.836-10.599 3.381-16.023 0.33-3.087 0.581-6.090 1.124-9.177 1.17-6.468 2.714-13.143 4.797-19.404 1.628-4.886 2.336-9.721 3.255-14.769 0.959-5.298 2.669-10.386 3.67-15.648 0.874-4.673 1.542-9.344 2.461-14.021 0.756-3.961 1.42-8.007 2.087-11.975 0.497-2.757-0.581-5.428-0.793-8.172-2.421 2.837-4.797 5.463-7.385 12.309z"></path>
    <path fill="#000000" d="M698.434 443.729c1.876 0.237 5.216 1.336 7.344 0.827 3.213-0.827 6.3-3.549 9.219-5.132 6.592-3.631 14.021-5.216 20.739-8.715 6.176-3.219 11.767-7.38 17.691-11.011 9.345-5.76 19.445-10.017 28.75-15.856 6.802-4.211 13.394-8.007 20.654-11.307 9.305-4.258 18.025-9.344 24.743-17.19 4.715-5.463 8.972-10.302 14.644-14.812 9.053-7.261 16.483-16.105 24.702-24.242 3.003-2.969 5.090-7.095 8.471-9.721 1.090-0.827 3.963-2.46 5.464-2.212 1.628 0.237 1.17 1.065 1.375 2.876 0.581 5.628 1.588 11.438 2.754 16.983 1.502 7.049 4.382 13.687 6.676 20.527 0.924 2.709 3.882 9.012 3.549 12.309-2.168 0-3.423 0.475-5.342 1.667-5.050 3.219-9.053 7.757-14.144 10.892-2.547 1.548-5.050 2.261-7.971 2.709-4.256 0.59-7.637 1.964-11.515 3.796-3.67 1.714-7.218 3.584-11.014 4.966-3.088 1.183-6.258 1.997-9.305 3.299-2.88 1.255-5.591 2.709-8.512 3.843-3.255 1.289-6.636 1.714-9.972 2.757-4.964 1.539-9.932 3.843-14.477 6.387-3.922 2.261-7.137 5.382-11.014 7.723-2.087 1.255-3.963 2.082-6.132 3.087-2.628 1.183-3.922 2.625-5.966 4.636-6.010 5.878-13.142 11.975-20.361 16.231-6.843 4.046-13.394 8.385-20.446 12.182-5.924 3.219-11.1 7.133-16.272 11.391-2.294 1.879-4.757 3.384-6.969 5.298-2.587 2.212-5.677 4.92-8.846 6.303-0.793 0.357-3.381 0.475-2.754 1.917 0.462 1.065 4.172 1.255 4.883 1.289 6.468 0.475 12.809 1.752 19.278 2.544 9.806 1.205 19.693 0.708 29.585 0.708 13.728 0.040 27.371-0.945 41.099-0.827 6.592 0.040 12.894 1.667 19.445 2.379 7.259 0.827 14.729 1.632 21.988 1.832 12.601 0.357 25.369-0.945 37.93 0.357 7.344 0.708 14.855 2.591 21.906 4.636 7.511 2.163 13.895 6.387 21.654 7.677 2.212 0.475 4.464 0.475 6.718 0.475 1.375 0.040 3.213 0.475 4.508-0.084 4.215-1.632 3.423-8.847 3.337-12.227-0.165-10.22-1.17-20.279-2.503-30.419-1.542-11.893-4.464-23.492-5.843-35.424-1.961-16.564-4.757-32.338-9.846-48.236-4.004-12.475-7.47-25.328-10.681-37.971-1.461-5.76-3.882-11.060-4.797-16.94-0.297-1.879-0.581-3.843-0.84-5.678-0.084-0.708 0.132-2.507-0.039-3.219-1.253-5.251-6.176-9.39-7.47-14.645 2.92 1.372 6.802 0.237 9.888 0.357 4.423 0.237 8.386 2.379 12.768 2.591 3.129 0.119 7.304 0.708 10.347-0.237 2.461-0.827 5.677-5.382 8.138-2.969 2.001 1.964 2.212 6.010 2.421 8.516 0.581 6.256 2.254 12.516 3.836 18.611 3.838 14.689 8.639 29.165 12.475 43.854 1.921 7.299 3.67 14.689 5.174 22.073 1.921 9.555 2.88 19.236 4.422 28.873 2.254 13.729 4.464 27.204 5.677 41.099 0.378 4.471 0.627 8.882 0.581 13.394-0.084 6.802 0.793 13.52 0.84 20.32 0.084 9.555-0.039 19.111-0.039 28.666 0 4.72 0.378 9.555-0.165 14.27-0.212 2.045-0.132 5.085-2.212 5.796-2.087 0.708-6.884-1.539-9.139-1.917-4.923-0.827-9.806-1.917-14.729-2.709-6.551-1.065-12.852-1.548-19.236-3.549-8.805-2.709-16.857-7.133-25.743-9.428-8.428-2.163-16.898-3.087-25.162-5.925-5.757-1.964-11.266-4.258-17.358-4.886-4.464-0.475-8.972-0.237-13.394-0.708-4.172-0.475-8.053-1.752-12.268-1.455-3.882 0.237-7.637 1.065-11.393 2.082-5.008 1.289-10.014 1.255-15.148 1.205-10.347-0.084-21.072 0.827-31.294-0.475-12.308-1.632-24.784-1.799-36.762-5.085-4.923-1.372-9.932-2.341-14.98-3.087-6.132-0.945-12.349-0.945-18.444-1.964-5.717-0.945-11.266-2.709-16.983-3.843-4.508-0.945-9.179-1.065-13.687-1.964-5.008-1.065-9.932-2.341-14.937-3.169-2.962-0.475-6.050-0.59-8.972-1.183-0.662-1.714 1.461-2.672 2.547-3.5 3.838-2.969 8.011-5.216 11.682-8.432 5.050-4.423 9.053-9.759 12.935-15.189 2.92-4.127 6.092-8.172 8.719-12.516 1.795-2.922 3.423-5.963 5.090-9.012 1.588-2.922 2.503-6.303 4.508-9.012 1.754-2.294 4.089-4.966 6.258-6.752 2.669-2.212 6.802-1.336 10.014-1.336z"></path>
    <path fill="#000000" d="M491.229 632.872v-0.59c0 18.151-1.124 35.883-3.296 53.952-1.588 13.187-2.714 26.412-3.463 39.679-0.581 9.887-1.795 19.737-2.168 29.667-0.297 8.682-0.33 17.19-0.924 25.869-0.627 8.932-0.874 17.899-1.668 26.829-0.627 7.299-1.461 14.522-1.588 21.821-0.165 7.345-0.462 14.604-0.708 21.906-0.212 6.138-0.084 12.142-0.959 18.192-0.581 3.843-1.209 7.592-1.542 11.473-0.543 6.421-0.212 13.019-1.090 19.444-0.708 4.966-2.547 9.594-3.296 14.563-0.497 3.5-0.627 7.049-1.542 10.479-1.040 3.927-1.42 7.973-2.503 11.893-1.253 4.754-0.793 9.64-0.793 14.522 0 1.799-0.297 3.881 0 5.678 0.297 1.997 1.124 1.832 3.337 1.667 4.548-0.237 9.098-3.834 13.435-5.251 5.843-1.917 12.227-3.927 18.318-4.636 1.090-0.119 2.336 0.237 2.92-0.827 0.212-0.357-0.132-4.376-0.132-4.292-0.039-2.757-0.039-5.463 0.132-8.22 0.497-8.882 3.255-17.191 4.548-25.911 1.040-6.968 1.209-14.769 1.090-21.821-0.084-5.548 0.874-11.011 0.84-16.524 0-5.796 0.039-11.604 0-17.358-0.084-5.594 0.84-11.095 0.84-16.69 0-1.667-0.25-3.749-0.039-5.382 0.297-2.045 0.581-1.502 2.38-1.632 4.34-0.237 8.512-0.945 12.894-0.827 2.336 0.084 4.508 0.357 6.844 0.708 3.67 0.475 6.217-0.827 9.765-1.383 5.464-0.827 11.266 0.708 16.772 0.708 2.628-0.039 5.257-0.039 7.886-0.039 1.961 0.039 4.297 0.475 6.217-0.119 1.588-0.475 2.587-1.752 4.089-2.379 1.375-0.59 2.836-0.708 4.297-1.065 3.296-0.708 7.177-2.212 10.474-2.163 2.547 0.040 3.67 0.945 5.632 2.294 1.668 1.183 1.335 0.475 3.17 0.945 1.628 0.357 3.381 1.832 4.382 3.169 0.924 1.205 0.793 1.964 0.747 3.631-0.039 8.267 0.543 15.688 3.088 23.575 2.628 8.139 3.381 16.69 5.174 25.035 1.090 5.216 1.876 10.561 2.628 15.815 1.005 6.636 2.92 13.143 4.004 19.738 0.959 5.925 0.462 11.769 1.375 17.65 0.297 1.879 0.627 12.768 5.090 11.557 0.543-0.119 1.375-1.183 2.001-1.421 3.337-1.289 8.011 0.475 11.18 1.289 6.636 1.752 13.52 2.341 20.405 1.964 2.128-0.119 2.794-1.065 4.797-1.752 2.38-0.827 4.675-0.708 7.091-0.827 1.588-0.040 3.463 0.357 4.797-0.827 1.835-1.667 0.627-4.589 0-6.468-3.047-9.474-7.385-18.232-9.721-27.997-2.212-8.979-3.629-18.151-6.092-27.038-1.628-5.76-3.423-11.473-4.797-17.318-1.375-5.925-3.088-11.557-4.923-17.357-2.087-6.587-3.423-13.436-5.757-19.986-0.543-1.455-1.375-2.341-0.132-3.253 0.543-0.357 3.922-0.039 4.548 0 2.38 0.084 4.63 0.827 6.969 1.205 6.383 1.205 13.309 0.475 19.778 0.475 5.924 0 12.268 0.708 18.025-0.827 2.421-0.59 4.797-1.372 7.177-2.129 1.876-0.59 4.382-0.945 6.050-1.832 2.168-1.255 0.297-1.964-0.462-3.796-2.254-5.463-0.959-12.642-1.005-18.399-0.039-1.421-0.084-2.791 0.212-4.211 0.165-1.065 1.375-3.881 0.497-4.966-0.756-0.945-6.385-0.237-7.385-0.119-5.050 0.084-9.888 1.917-14.937 2.341-2.714 0.237-5.509-0.119-8.053 0.945-1.795 0.827-3.255 1.455-5.257 1.667-3.838 0.357-7.47 0.827-11.266 1.502-3.629 0.708-10.64 0.039-13.309-3.052-1.209-1.421-2.128-3.881-2.294-5.713-0.662-6.387 0.33-12.394-1.209-18.733-1.335-5.594-2.001-11.226-2.88-16.899-0.581-4.093-2.503-8.007-3.129-12.141-0.543-3.631-0.378-7.345-1.209-11.011-0.543-2.294-0.581-4.008-0.581-6.421 0-1.667-0.039-3.253 0-4.92 0-1.997-0.662-3.219-1.42-5.051-3.296-7.973-4.548-16.231-6.468-24.577-1.124-4.886-3.255-9.344-3.838-14.27-0.756-6.506-3.549-12.102-5.464-18.277-0.662-2.212-0.874-4.046-1.17-6.256-0.756-5.796-1.921-11.684-3.047-17.443-0.793-3.961-1.835-7.889-2.547-11.934-0.793-4.966-1.253-10.017-2.336-14.937-3.255-14.477-7.344-28.706-11.473-42.979-1.040-3.5-1.335-7.133-2.001-10.726-0.627-3.169-0.039-6.468-0.756-9.555-1.461-0.237-3.296 1.421-4.63 1.997-2.754 1.255-5.757 2.045-8.639 2.757-2.547 0.708-5.341 1.065-8.011 0.945-2.92-0.237-5.509-2.672-8.22-2.625-0.874 2.341 1.209 8.469 1.588 10.551 0.924 4.839 1.921 9.64 2.714 14.436 1.335 7.973 3.129 15.816 4.004 23.868 0.662 5.878 0.662 11.604 0.708 17.484 0.084 9.555 1.124 19.025 1.542 28.539 0.212 5.513 0 11.011 0.084 16.524 0.132 6.671 1.335 13.352 2.044 19.986 0.708 6.752 0.874 13.561 1.461 20.36 0.543 6.010 1.588 11.935 2.168 17.899 0.627 6.34 0.874 12.768 1.795 19.068 0.543 4.008 1.628 7.842 1.71 11.849 0.084 4.211-0.212 7.973 0.708 12.102 2.462 10.726 4.841 21.987 9.721 31.919-5.717 0.475-11.18-1.539-16.857-1.714-7.678-0.237-15.856-0.59-23.492 0.237-6.468 0.708-12.309 3.961-18.819 4.801-2.044 0.237-2.587 0.827-4.423 1.667-1.42 0.708-2.962 0.827-4.382 1.421-1.502 0.59-2.836 1.502-4.34 2.129-0.793 0.237-1.754 0.237-2.461 0.59-1.375 0.475-1.668 1.455-3.213 1.667-3.129 0.475-4.089-1.183-4.172-3.881-0.165-6.752 0.297-13.268 1.335-19.945 1.040-6.421 0.874-12.975 1.961-19.404 0.793-4.754 1.542-9.144 1.668-14.021 0.33-12.182 1.71-24.284 1.628-36.469-0.039-17.565 0-35.134 0-52.7 0-8.932-0.497-18.525 1.588-27.038 0.84-3.384 1.005-6.138 0.924-9.887-0.084-3.465-0.378-6.802-1.090-10.183-0.33-1.632-0.297-3.299-0.627-4.886-2.754-0.59-6.343-0.237-9.139-0.119-2.628 0.084-5.216 0.59-7.845 0.827-3.129 0.237-6.050-0.357-9.139-0.59-5.008-0.357-9.68-0.357-14.522 1.065-4.004 1.183-7.304 1.255-11.433 1.205-3.423 0-7.637 0.827-10.933-0.084-2.001-0.59-6.258-4.423-7.718-1.336-0.662 1.372-0.039 4.008-0.132 5.548-0.165 4.34-0.708 8.682-0.959 13.061-0.25 4.543-0.378 9.144-0.793 13.687-0.297 3.052-1.253 5.796-1.502 8.764 1.835 0.237 5.131-0.59 6.636-0.827 3.589-0.59 7.177-1.372 10.766-2.082 3.003-0.59 5.799-1.632 8.679-2.544 2.38-0.708 4.757-0.708 7.137-1.336 2.754-0.59 5.298-1.752 8.053-2.294 1.040-0.237 1.209 0.357 1.754-0.708 0.959-1.879-3.756-3.927-0.165-3.419z"></path>
    </svg>