<svg xmlns="http://www.w3.org/2000/svg" viewBox="55.147 -16.243 919.063 1088.243">
    <path fill="#000000" d="M496.96 776.438c-0.134-3.098-0.253-5.159-2.37-7.569-3.388-3.935-6.433-8.003-10.369-11.516-7.406-6.685-16.297-12.104-25.397-16.676-9.438-4.657-18.754-9.896-28.529-13.887-7.575-3.098-15.703-4.189-23.452-6.685-6.73-2.161-12.867-5.628-19.26-8.472-12.361-5.46-25.863-8.378-39.196-11.255-5.374-1.198-10.707-2.462-16.087-3.6-5.421-1.198-9.735-3.433-14.224-6.397-4.32-2.797-7.872-6.177-11.598-9.609-4.49-4.189-9.606-7.668-14.474-11.47-6.393-5.125-13.543-8.385-20.739-12.361-7.575-4.149-15.11-8.555-22.521-12.955-7.959-4.738-15.365-9.983-22.393-15.789-6.987-5.761-14.224-11.423-19.639-18.458-6.433-8.385-10.875-17.606-16.337-26.457-3.173-5.159-6.859-9.947-10.498-14.859-3.854-5.206-8.845-9.562-12.658-14.771-3.639-5.038-5.036-10.8-6.305-16.634-0.803-3.814-0.756-7.702-1.945-11.423-0.803-2.496-2.117-4.785-2.708-7.32-0.551-2.409-0.669-4.871-1.017-7.32-1.397-9.529-5.249-19.004-8.932-27.936-2.581-6.23-5.542-12.192-6.941-18.754-1.653-7.668-2.411-15.662-3.045-23.406-0.468-5.795 0.134-11.603-0.382-17.397-0.468-5.795-0.722-11.516-0.756-17.314-0.041-11.135 3.639-21.839 5.63-32.802 2.073-11.389 5.036-22.602 10.032-33.316 5.502-11.636 8.593-23.87 13.079-35.852 2.242-6.009 4.785-11.556 7.621-17.314 1.735-3.6 2.667-7.535 4.57-11.001 0.803-1.439 1.694-2.917 2.836-4.149 0.89-0.957 2.497-1.525 2.2-3.011-0.214 6.685 0.421 13.334-0.551 19.982-1.104 7.367-2.794 14.646-4.023 21.969-1.437 8.806-1.864 17.822-1.903 26.71 0 8.425 2.032 17.14 0.803 25.566-0.502 3.553-1.823 7.066-1.777 10.701 0.041 3.513 1.057 6.899 2.626 10.117 2.666 5.594 4.611 11.723 6.69 17.568 1.139 3.298 2.2 6.645 3.219 9.997 1.139 3.72 1.139 7.033 1.31 10.834 0.166 4.102 3.045 8.124 5.124 11.687 0.589 0.957 1.057 2.496 1.905 3.265 0.669 0.601 2.242 1.224 3.091 1.906 1.139 0.841 2.073 2.028 3.26 2.879 1.735 1.198 3.854 1.078 5.713 1.943 3.511 1.774 7.157 5.246 9.438 8.172 3.133 4.021 3.133 9.529 4.487 14.096 2.411 8.037 7.662 15.957 11.768 23.405 2.411 4.437 5.502 8.555 7.575 13.165 2.242 4.992 3.808 10.244 6.899 14.858 4.699 7.033 10.498 13.334 15.11 20.401 4.233 6.35 8.507 12.698 13.124 18.88 6.433 8.639 15.87 15.574 25.228 21.374 5.293 3.298 9.992 6.946 14.602 10.881 1.903 1.606 4.233 3.553 6.475 4.785 2.497 1.358 5.124 1.993 7.535 3.6 2.754 1.774 6.008 2.409 8.845 3.982 1.566 0.841 2.708 2.195 4.191 3.218 6.265 4.49 12.489 9.562 19.344 13.204 3.639 1.943 6.73 2.797 10.835 3.433 3.045 0.482 5.759 1.198 8.804 0.241 9.438-2.917 19.557-11.556 17.653-21.333-1.437-7.066-6.602-15.028-11.172-20.827-5.759-7.281-11.343-14.096-18.329-20.401-5.249-4.738-10.072-9.816-15.324-14.521-6.73-5.962-7.662-13.165-11.47-20.53-2.288-4.356-4.361-8.806-6.772-13.079-2.457-4.269-5.502-8.291-7.324-12.825-1.735-4.437-3.26-8.759-5.421-13.035-2.329-4.704-4.909-9.309-7.534-13.887-3.936-6.899-7.744-13.758-11.977-20.488-1.607-2.543-3.005-5.125-4.658-7.569-2.117-3.132-4.57-6.143-5.968-9.649-0.89-2.242-1.228-4.57-1.694-6.899-0.803-3.935-2.539-7.199-3.976-10.92-2.754-6.986-3.091-14.562-5.293-21.67-2.117-6.899-2.329-14.94-2.288-22.096 0.041-8.555 0.382-17.019-0.89-25.484-0.551-3.854-0.769-7.582-0.97-11.436-0.253-4.321-1.228-8.591-1.607-12.908-0.468-5.374-0.769-11.255-0.041-16.634 0.589-4.269 2.329-8.291 3.005-12.571 0.253-1.693 0.335-3.466 0.669-5.125 0.636-2.663 2.2-5.075 2.963-7.702 0.937-3.513 0.803-7.32 1.228-10.967 1.189-10.533 4.064-21.124 9.438-30.602 2.288-4.021 3.683-8.207 5.671-12.32 1.607-3.346 4.32-5.962 6.351-9.141 2.073-3.265 3.43-6.899 5.205-10.285 1.104-2.075 1.864-5.246 3.894-6.732 2.117 0.241 1.864 3.935 1.905 5.293 0.087 4.269-0.253 8.555 0.134 12.828 0.335 3.72 0.589 7.367 0.669 11.135 0.134 5.541 1.397 11.088 2.073 16.594 1.437 11.891 3.091 23.702 4.193 35.597 1.057 11.556 2.073 23.069 5.293 34.328 1.228 4.269 3.599 8.257 4.909 12.531 1.479 4.61 2.794 9.228 4.57 13.717 2.117 5.246 4.785 10.244 7.236 15.324 2.708 5.507 6.899 9.863 10.666 14.691 5.249 6.685 11.47 13.292 18.416 18.537 2.117 1.572 4.32 3.6 6.899 4.537 2.2 0.841 4.32 0.12 6.602 0.601 3.26 0.482 5.713 2.71 7.83 4.871 3.091 3.098 6.475 5.628 10.032 8.291 7.324 5.423 12.615 12.57 17.484 19.894 3.045 4.617 4.023 10.117 6.562 14.988 2.876 5.541 3.894 11.891 7.575 17.059 3.302 4.657 5.502 10.701 6.265 16.212 0.253 1.826-0.134 3.683 0.253 5.46 0.636 2.71 2.288 5.246 3.005 7.956 1.735 6.35 0.85 12.868 3.683 18.964 3.045 6.517 5.462 13.204 8.553 19.725 2.457 5.253 5.205 10.499 8.040 15.574 1.653 2.879 4.023 5.423 5.799 8.257s3.43 5.795 4.785 8.806c4.57 9.83 8.127 20.151 15.156 28.914 2.708 3.346 5.421 6.685 8.087 10.031 1.228 1.525 3.26 2.75 4.147 4.437 0.551 0.957 0.335 2.797 1.139 3.634 1.479 1.606 4.868 0.601 6.73 0.361 5.462-0.841 11.558-1.439 16.256-4.149 3.854-2.195 4.699-5.713 4.32-9.863-0.335-3.466-0.803-6.764-0.756-10.285 0-2.797 0.214-5.628-0.040-8.385-0.803-8.806-4.147-17.356-6.69-25.823-1.268-4.356-1.991-8.639-2.626-13.079-0.722-5.075-2.411-10.031-3.511-15.068-1.945-8.591-4.361-17.141-6.351-25.735-1.777-7.488-5.713-14.434-7.453-21.967-1.736-7.488-3.091-14.988-5.036-22.476-1.139-4.236-1.268-8.458-1.479-12.786-0.166-4.021-0.89-7.956-1.268-11.938-0.769-7.234-0.589-14.646-0.468-21.927 0.039-2.879 0.89-5.541 1.017-8.385 0.087-2.462-0.087-4.657 0.382-7.112 1.017-5.246-0.382-10.701 0.97-15.918 0.756-3.011 2.288-5.795 3.173-8.759 1.437-4.958 1.823-10.117 3.808-14.94 1.945-4.69 3.976-9.141 4.996-14.095 1.268-6.35 1.479-12.74 1.357-19.173-0.087-7.956-1.189-15.748-2.329-23.621-0.937-6.815-0.468-13.671-1.357-20.488-0.85-6.564-2.288-12.996-2.836-19.558-0.551-6.397-0.97-12.786-1.566-19.131-1.139-12.615-3.302-25.315-5.205-37.886-0.769-4.905-1.139-9.816-2.37-14.646-0.551-2.028-2.581-5.507-1.735-7.621 1.397 1.078 1.864 2.75 2.539 4.189 1.437 2.998 3.976 5.246 6.056 7.917 5.589 7.234 10.457 15.068 15.237 22.772 4.657 7.453 8.845 14.646 11.558 22.858 2.834 8.639 7.453 16.849 10.835 25.315 3.173 7.789 4.147 15.831 8.21 23.325 2.499 4.61 5.036 8.845 6.772 13.758 1.397 4.068 2.836 8.090 4.657 12.023 3.43 7.453 6.056 14.859 8.298 22.649 2.242 7.702 6.521 15.027 9.947 22.352 3.173 6.815 4.956 13.838 8.636 20.488 1.905 3.385 4.402 6.397 6.433 9.696 2.288 3.72 3.133 7.87 4.193 11.977 2.242 8.806 5.293 17.607 8.507 26.12 1.694 4.437 3.976 8.673 5.374 13.204 1.566 5.075 2.37 10.533 2.923 15.791 0.382 3.888 1.268 7.749 1.653 11.636 0.421 4.236-0.087 8.385 0.040 12.571 0.301 8.555 3.343 17.397 5.421 25.735 1.017 4.021 2.117 8.090 2.794 12.232 0.502 3.218 0.421 6.645 1.104 9.816 0.722 3.466 2.667 6.645 3.727 10.031 1.397 4.356 0.214 8.172-0.087 12.658-0.166 3.346-0.253 6.899-1.057 10.198-0.636 2.409-1.823 4.61-2.411 7.033-1.139 4.657-1.139 8.385-0.166 13.123 1.189 5.675 1.139 11.436 1.991 17.101 0.803 5.413 2.963 11.169 6.008 15.87 2.288 3.513 4.785 7.033 6.941 10.619 1.945 3.265 2.667 6.23 6.521 7.956 5.927 2.663 11.598 5.882 17.141 9.275 10.835 6.598 24.087 7.668 36.57 9.482 4.954 0.722 9.653 2.376 14.602 2.917 4.442 0.482 9.019-0.087 13.461-0.482 3.599-0.361 6.941-0.841 10.457-1.653 6.772-1.693 12.827-5.125 19.598-6.899 4.273-1.198 8.256-1.392 12.105-3.683 2.626-1.572 4.611-3.513 6.265-5.882 1.694-2.376 3.26-4.825 4.954-7.199 1.991-2.797 1.823-5.507 2.581-8.639 1.228-5.038 4.909-8.003 7.872-12.232 2.16-3.045 3.727-6.397 5.887-9.442 2.666-3.854 5.887-7.112 9.438-10.244 3.639-3.265 7.453-6.35 11.132-9.562 5.42-4.704 7.027-10.031 10.289-15.919 2.923-5.327 8.169-10.701 13.717-13.838 5.671-3.218 9.398-5.628 12.442-11.135 3.854-6.899 5.421-14.646 8.466-21.839 5.968-13.926 8.636-29.757 5.759-44.575-0.722-3.801-0.589-7.488-1.057-11.302-0.589-4.49-1.777-8.927-2.411-13.421-0.468-3.132-1.057-6.31-1.139-9.482-0.087-2.75-0.669-5.413-0.85-8.090 3.43 4.149 3.976 10.412 5.671 15.197 3.045 8.806 7.406 17.1 10.289 25.95 2.754 8.425 5.713 16.931 7.703 25.484 1.945 8.124 2.37 16.385 2.923 24.635 0.551 8.385 0.937 16.676 0.89 25.1 0 4.524 0.636 9.395-0.134 13.886-0.382 2.195-1.104 4.321-1.479 6.517-0.551 3.433-0.502 6.986-1.104 10.412-1.189 7.569-4.611 13.799-8.127 20.658-3.343 6.564-3.557 13.461-5.713 20.273-1.905 5.929-7.703 10.666-10.835 16.086-2.411 4.149-3.767 8.207-6.987 11.977-3.683 4.403-7.109 8.806-10.666 13.252-2.581 3.265-5.799 5.929-8.338 9.228-1.903 2.462-3.47 4.958-6.305 6.685-1.566 0.957-3.726 1.439-5.205 2.581-2.457 1.826-3.896 5.159-6.178 7.32-3.47 3.265-7.109 6.177-10.538 9.482-7.027 6.899-13.799 13.205-18.416 21.718-3.343 6.23-5.839 14.137-11.768 18.625-1.864 1.392-3.173 1.439-5.374 2.028-2.708 0.722-4.487 1.906-6.69 3.466-4.57 3.132-9.31 3.814-14.224 6.096-3.767 1.74-7.027 4.356-10.666 6.31-1.777 0.957-3.388 1.993-5.502 2.075-1.309 0.039-2.37-0.482-3.683 0.087-1.566 0.722-2.411 3.218-2.923 4.269-1.525 3.298-3.727 6.31-5.205 9.562-1.905 4.149-1.268 9.696-0.803 14.008 0.421 3.935 2.288 9.863-0.134 13.589-1.397 2.114-2.754 2.242-2.923 5.038-0.382 6.263 0.937 12.489 0.97 18.755 0.087 9.261 1.945 17.778 4.996 26.496 2.497 7.153 8.169 13.165 12.57 19.389 1.057 1.572 2.288 3.098 3.005 4.825 0.769 1.906 1.057 3.901 1.905 5.795 1.397 2.998 3.302 5.594 3.976 8.845 0.551 2.75 0.589 5.628 1.139 8.385 0.335 1.826 1.189 3.72 0.97 5.628-0.134 1.198-0.421 1.943-0.97 2.964-1.268 2.242-1.357 1.224-0.636 4.657 1.945 9.013 4.402 17.525 7.027 26.37 1.864 6.23 3.726 12.443 5.502 18.707 1.017 3.72 1.864 8.806-0.253 12.361-1.903-0.12-3.683-0.722-5.589-0.841-0.85-0.087-2.242 0.241-3.005-0.087-1.566-0.601-3.133-3.6-4.233-4.871-3.173-3.553-6.008-7.367-9.141-11.001-4.064-4.785-8.932-12.867-16.212-13.502-4.956-0.482-5.165 3.265-8.932 4.704-3.045 1.198-6.393-0.241-9.483-0.482-3.045-0.241-4.32 0.12-5.462 2.964-0.253 3.385-0.335 6.764-0.166 10.198 0.134 2.462 0.134 4.958 0.040 7.453-0.134 4.704-0.589 9.361-1.823 13.927-0.803 3.045-1.653 5.929-1.777 9.094-0.134 2.161 0.166 4.437 0 6.598-0.335 3.935-0.937 7.702-0.85 11.687-5.205-8.974-14.859-12.15-23.703-17.483-5.887-3.513-9.566-9.141-14.987-13.165-3.26-2.409-6.899-4.437-10.072-6.946-4.32-3.385-7.068-8.385-10.202-12.615-2.963-3.982-6.008-7.917-9.101-11.771-4.868-6.009-10.369-11.516-15.196-17.607-5.589-7.033-10.835-14.223-17.228-20.739-4.53-4.537-24.85-24.972-30.433-11.636-1.104 2.663-0.669 5.293-1.397 7.956-0.421 1.479-0.468 1.078-1.357 1.86-0.589-0.12-1.104 0.087-1.479 0.601-0.214 0.957-0.468 1.943-0.669 2.879-0.335 2.663 0.937 6.478-1.104 8.591-5.374-1.358-9.187-8.090-12.151-12.151-3.302-4.57-5.542-10.117-8.040-15.028-2.288-4.49-4.658-8.974-6.899-13.421-5.036-9.896-10.369-19.639-14.73-29.798-2.117-4.825-4.785-9.395-6.096-14.434-0.803-3.011-2.581-4.905-4.402-7.367-1.945-2.63-1.945-5.882-4.023-8.472-1.397-1.774-3.43-2.543-5.036-4.149-1.397-1.392-1.945-3.466-2.37-5.293-0.551-2.409-0.502-4.825-0.636-7.281-0.335-8.291-2.539-15.283-5.374-23.196z"></path>
    <path fill="#000000" d="M853.030 403.176c0.040-1.943 0.382-3.045 0.85-4.871 0.502-1.826 0.253-4.236 0.589-6.143 0.502-2.75 1.017-5.46 1.104-8.257 0.335-11.302 0.421-22.94 0.040-34.246-0.253-6.564-2.288-13.165-3.219-19.639-0.85-6.009-3.091-11.389-4.827-17.188-2.411-7.956-5.887-15.406-8.636-23.238-2.666-7.621-5.293-15.283-9.060-22.433-3.302-6.31-7.027-12.401-10.072-18.834-2.581-5.46-6.096-10.92-9.566-15.831-8.256-11.636-18.119-21.718-27.557-32.338-5.293-5.929-11.429-10.881-16.553-16.971-3.683-4.356-7.79-8.555-12.273-12.064-5.42-4.236-10.072-9.309-15.534-13.589-4.699-3.72-9.187-7.569-14.137-11.049-23.068-16.168-47.533-30.944-73.355-42.246-4.699-2.028-9.653-3.982-14.521-5.628-4.611-1.572-9.101-3.466-13.717-5.038-2.37-0.841-4.739-1.198-7.027-2.195-2.497-1.078-4.827-2.291-7.365-3.218-4.402-1.606-9.019-2.462-13.589-3.513-11.049-2.543-21.967-5.628-33.1-7.956-4.53-0.957-9.229-0.722-13.717-1.826-7.406-1.693-14.94-2.797-22.352-4.437-20.361-4.57-41.1-6.43-61.926-6.43-5.249 0-10.457-0.241-15.662 0.601-3.005 0.482-5.839 1.271-8.804 1.993-3.219 0.722-6.178 0.601-9.398 0.957-11.132 1.224-22.055 5.541-32.762 8.591-4.909 1.392-9.904 3.132-14.602 5.075-2.581 1.078-4.954 2.581-7.575 3.6-3.005 1.198-6.136 1.74-9.187 2.831-9.735 3.513-20.698 4.871-29.63 10.412-2.329 1.479-4.909 2.195-7.406 3.346-2.329 1.078-4.402 2.543-6.815 3.6-4.273 1.826-7.702 4.49-11.726 6.732-2.457 1.305-4.996 2.581-7.365 4.149-2.497 1.653-4.273 4.021-6.521 6.009-3.43 2.998-7.662 4.738-11.301 7.453-5.077 3.72-9.695 8.003-14.096 12.443-3.599 3.634-7.238 7.234-10.835 10.834-3.639 3.634-7.872 7.066-10.626 11.423-3.343 5.246-8.087 9.309-11.558 14.521-2.626 3.901-5.421 7.917-8.507 11.423-2.242 2.543-4.487 4.992-6.73 7.488-1.397 1.525-2.288 3.385-3.47 5.038-1.653 2.242-3.599 4.149-5.421 6.23-6.178 6.899-11.855 14.137-17.397 21.548-2.497 3.385-4.954 6.764-7.324 10.285-0.937 1.271-3.219 5.46-2.581 7.32 0.382 1.078 2.329 1.392 3.343 1.826 3.219 1.271 6.521 2.075 9.356 4.149 4.658 3.385 1.104 8.504 2.37 13.205 0.468 1.774 1.945 3.298 2.581 5.159 0.97 2.879 0.85 5.541 0.85 8.591-0.041 3.854-0.722 7.501-0.89 11.302-0.214 4.236 0.382 8.504-0.166 12.698-0.301 2.362-0.722 4.403-0.636 6.764 0.087 2.63-0.468 3.385-1.479 5.594-1.104 2.329-1.735 4.958-2.708 7.32-0.468 1.224-1.189 2.376-1.479 3.683-0.589 2.63-0.134 5.507-0.214 8.207-0.166 6.899 4.023 13.079 4.273 20.064 0.041 1.826 0.041 3.854 0 5.713-0.134 3.218-1.357 4.871-2.626 7.668-0.722 1.572-0.669 2.329-0.756 3.935-0.134 1.826-0.769 3.385-0.89 5.206-0.253 2.831 0.214 5.761 0.087 8.591-0.134 2.282-3.005 5.038-0.087 6.35 1.057 0.482 2.964 0.12 4.023 0.12 3.43-0.039 6.859 0.241 10.241 0.12 4.57-0.087 6.73-2.329 9.904-5.374 2.794-2.75 5.589-5.327 6.859-9.141 0.89-2.75 1.228-5.423 2.626-8.003 2.032-3.854 3.133-7.367 3.976-11.687 0.421-2.195 0.669-5.507 1.653-7.789 1.268-3.011 2.836-4.992 3.219-8.385 0.382-3.6 1.525-6.049 3.683-8.893 1.189-1.525 1.823-1.86 2.16-3.935 0.301-1.693-0.134-3.433 0.253-5.075 0.421-1.74 1.823-2.879 2.288-4.57 0.502-1.943 0.253-4.704 0.214-6.732-0.087-2.917-4.57-5.159-3.388-8.207 1.823-0.361 4.487-0.042 6.096-1.078 2.117-1.271 1.945-2.917 2.836-4.958 1.31-3.045 2.457-6.263 4.402-8.974 2.923-3.982 2.923-9.896 3.302-14.771 0.253-2.998 0.937-6.43 1.905-9.309 0.502-1.653 3.005-3.513 3.045-5.159 0.134-3.6-10.584-6.049-13.334-6.899-3.599-1.078-8.675-1.198-9.187-5.713-0.421-3.513 0.937-5.159 3.343-7.569 1.566-1.224 2.876-2.663 3.976-4.269 0.301-1.078 0.636-2.075 1.057-3.045 1.017-1.993 1.479-4.068 2.457-6.049 1.437-2.998 3.557-3.767 6.136-5.541 3.511-2.376 4.699-7.066 7.324-10.244 2.581-3.218 5.502-5.413 7.534-9.094 2.242-4.021 3.976-5.46 8.040-7.668 4.785-2.63 9.141-6.143 14.224-8.291 1.945-0.482 3.683-1.358 5.165-2.663 1.268-1.606 2.457-3.265 3.557-4.958 2.329-2.831 5.077-5.507 8.256-7.453 4.064-2.496 8.89-4.356 13.164-6.598 3.767-1.906 8.087-4.021 12.151-5.246 2.37-0.722 5.077-1.224 7.493-1.606 0.803 0.12 1.566 0.087 2.329-0.12 0.468-0.361 1.017-0.601 1.606-0.722 3.808 0.040 4.442 10.331 4.868 12.786 0.722 4.189-0.97 7.621-1.437 11.687-0.382 3.179 0.253 5.882 3.43 6.815 4.273 1.271 8.507 3.634 13.079 4.021 0.769 3.935 0.97 7.668 0.97 11.636 0 2.663 0.502 5.713-0.134 8.291-0.253 1.078-0.722 1.943-1.566 2.63-0.253 0.241-1.479 0.601-1.607 0.957-0.636 1.693 3.936 4.021 4.827 4.57 5.077 3.132 11.261 6.478 17.484 5.206 5.799-1.198 10.202-4.57 14.94-7.917 4.657-3.346 10.032-5.882 14.474-9.529 3.388-2.797 5.124-5.795 3.388-10.031-1.566-3.72-3.936-7.112-5.165-10.967-2.032-6.478 0.166-14.987 3.302-20.739 1.357-2.462 1.735-4.825 2.288-7.535 0.214-0.957 0.214-2.114 1.017-2.63 0.214-0.12 2.539 0.040 2.497 0.040 1.905 0.040 3.808 0.087 5.759 0.087 4.909 0 10.411-0.841 14.69-3.553 2.923-1.826 2.923-3.72 3.976-6.564 0.669-1.774 2.242-2.376 3.639-3.683 1.189-1.198 1.945-1.993 3.43-2.797 2.626-1.479 5.462-1.198 8.381-1.078 4.827 0.12 9.31 0.087 14.096-0.722 3.43-0.601 6.602-0.722 10.032-0.841 1.437-0.040 3.005 0.12 4.402-0.482 1.736-0.722 2.16-2.114 3.599-3.179 3.557-2.63 8.804-1.198 12.658-0.12 4.064 1.078 7.406 3.553 11.261 5.253 4.442 1.906 9.356 2.376 14.055 3.132 6.859 1.078 13.671 2.71 20.529 3.634 3.302 0.482 7.406 0.722 9.606 3.385 2.032 2.462 1.437 6.517 0.551 9.361-0.803 2.496-2.117 4.825-2.963 7.32-0.937 2.917-1.189 5.842-1.268 8.927-0.087 1.606-0.85 3.6-0.722 5.075 0.166 1.826 3.47 3.854 5.036 4.524 2.411 1.078 5.036 1.74 7.453 2.917 1.694 0.841 2.666 0.957 4.442 1.198 2.288 0.241 3.854 0.841 5.927 1.993 1.905 1.078 3.767 2.242 5.671 3.346 0.803 0.482 3.343 1.525 4.064 2.329 1.268 1.525 0.253 2.917-0.85 4.49-0.85 1.198-1.864 2.282-3.091 3.098-2.581 1.558-5.502 0.957-7.917 2.462-3.302 1.993-2.666 6.685-3.726 10.031-0.769 2.496-2.242 4.738-3.045 7.199-1.437 4.537-0.214 9.107-0.803 13.671-0.214 1.479-0.253 4.356-0.937 5.675-0.421 0.841-1.268 0.601-1.607 1.86-0.551 1.993 0.669 4.871 0.85 6.899 0.214 2.075 0.253 3.982-0.421 5.962-1.694 4.958-5.293 8.927-5.462 14.474-0.087 3.179 1.777 4.958 3.854 7.281 1.189 1.358 2.836 3.298 4.49 4.102 2.497 1.224 3.896-0.601 5.671-1.943 4.487-3.433 7.534-7.32 10.498-12.151 3.133-5.159 6.69-9.649 10.707-14.137 4.442-4.992 7.703-8.806 15.068-7.066 3.219 0.722 6.69 3.982 6.433 7.621-0.166 2.329-2.073 4.537-2.626 6.815-0.589 2.376-0.722 3.888-2.16 5.929-1.945 2.75-2.834 5.962-3.808 9.193-1.017 3.298-1.189 5.882-0.589 9.309 0.214 1.224 0.301 2.376 0.253 3.634-0.087 3.72-2.626 7.749-4.233 11.135-0.85 1.86-1.735 4.102-2.834 5.842-0.89 1.358-0.97 1.271-2.581 1.305-1.653 0.087-1.991 0-3.005 1.305-1.736 2.329-3.045 5.761-3.26 8.591-0.468 6.096 2.117 13.589 5.63 18.585 3.854 5.507 10.119-2.195 13.502 3.513 1.991 3.298 1.823 7.668 1.777 11.339-0.039 1.74-0.589 4.321 0.502 5.713 0.134 0.12 3.511 1.392 3.343 1.305 3.767 1.86 7.027 4.825 10.875 6.564 1.777 0.841 3.43 1.405 5.333 0.957 2.16-0.482 2.666-1.74 4.442-2.831 3.045-1.86 7.236-2.581 10.498-4.068 2.16-0.957 4.402-1.906 6.265-3.466 2.117-1.774 3.639-4.149 5.63-6.143 4.827-4.905 11.513-4.617 17.694-2.917 2.539 0.722 5.124 1.439 7.575 2.376 2.242 0.841 7.109 2.663 8.636 5.038-3.599-0.040-7.068-0.722-10.369 1.525-4.233 2.831-7.027 7.32-11.429 10.078-4.442 2.75-9.653 2.376-14.137 4.871-4.023 2.242-6.351 6.049-9.101 9.609-2.242 2.964-4.699 5.795-7.453 8.304-1.479 1.392-3.511 2.496-4.49 4.236-0.89 1.693-0.468 3.767-1.228 5.594-0.722 1.826-2.666 2.998-3.343 4.871-0.636 1.826-0.134 5.842 0.040 7.453 0.421 3.513 1.309 6.946 2.032 10.412 0.803 3.935 1.566 8.124 1.139 12.151-0.301 2.543-1.694 4.738-2.457 7.112-1.735 5.594-4.954 11.857-4.996 17.694 0 4.149 1.057 7.917 2.329 11.804 2.499 7.621 5.124 15.237 7.744 22.818 1.268 3.634 2.16 8.845 5.42 11.221 2.457 1.74 5.713 1.774 8.675 1.74 6.136-0.039 12.192-2.496 18.416-2.879 6.265-0.361 13.84 0.601 20.064 1.358 11.47 1.525 23.196 3.513 32.337 11.221 3.26 2.75 8.127 9.696 8.845 14.137 0.134 1.198 0.214 2.329 0.301 3.466-1.735 2.291-3.896 4.102-6.433 5.507-6.136 5.929-6.987 14.137-9.187 22.055-0.97 3.513-1.479 6.946-3.43 10.117-1.864 3.132-3.936 5.962-5.333 9.395-2.117 5.206-3.808 10.533-2.117 16 1.437 4.785 2.2 9.947 2.457 14.9 0.134 3.218-0.468 6.732 0.134 9.863 2.2-0.361 3.896-1.392 5.887-2.329 3.726-1.774 8-2.964 11.513-5.075 8.338-4.958 12.151-15.11 18.072-22.393 2.923-3.513 6.393-6.764 8.762-10.701 2.708-4.49 4.064-9.863 5.462-14.818 1.397-4.958 2.37-10.244 4.996-14.691 2.411-4.102 6.265-7.153 8.972-10.967 5.333-7.535 6.305-16.931 9.398-25.396 1.017-2.75 2.411-5.159 3.639-7.749 1.903-4.149 2.411-8.591 2.666-13.123 0.421-7.836-0.803-15.703-0.85-23.534 0-4.437-0.636-10.92 2.37-14.73 1.139-1.439 3.43-1.826 4.273-3.634 1.525-3.218 0.89-7.569 1.437-11.001 1.057-6.732 3.26-13.252 3.639-20.064 0.335-5.761-1.228-10.881-3.388-16.128-1.228-3.011-1.057-4.992 1.823-7.112 3.219-2.329 8.89-3.265 12.698-1.693 1.945 0.841 3.511 2.581 5.077 3.935 3.005 2.63 5.293 4.992 6.815 8.759 3.045 7.836 4.064 16.553 6.305 24.633 1.525-0.241 3.343-3.265 4.147-4.102 2.2-2.242 5.671-3.888 7.575-6.31 3.005-3.72 3.045-8.726 3.005-13.332-0.040-2.195-0.134-4.356-0.214-6.564-0.166-8.472 0.803-16.804 2.876-25.020z"></path>
    <path fill="#000000" d="M456.174 761.58c-0.756-1.74-1.017-2.75-2.457-3.935-1.31-1.078-2.836-2.161-4.191-3.218-2.876-2.161-6.224-3.553-9.269-5.423-3.726-2.242-7.621-4.49-11.935-5.507-2.497-0.601-4.611-0.241-7.157-0.241-4.49-0.040-8.762-1.74-13.334-1.774-9.269-0.040-18.072-2.63-27.004-4.992-8.381-2.195-15.79-5.842-23.702-9.141-6.433-2.71-13.252-4.236-19.726-6.815-5.887-2.376-11.513-5.246-17.397-7.453-7.744-2.964-15.575-4.785-22.899-8.845-4.57-2.581-8.636-5.842-12.786-9.013-5.502-4.149-10.923-8.591-16.128-13.123-3.47-3.045-8.256-6.815-10.707-10.8 2.117 0.722 2.876 6.143 3.511 8.090 2.242 7.112 6.859 13.759 11.132 19.727 3.896 5.46 9.187 8.673 14.646 12.361 6.178 4.149 12.489 7.956 18.625 12.151 6.178 4.189 12.53 7.066 19.004 10.585 6.859 3.683 13.589 7.569 20.273 11.556 6.73 3.982 13.758 6.598 20.91 9.73 6.475 2.879 11.768 6.177 18.923 7.32 4.487 0.722 9.019 1.271 13.543 1.305 4.402 0.040 8.593 0.722 12.955 0.841 6.815 0.12 13.543-0.241 20.273 0.957 4.32 0.722 8.381 1.993 12.908 1.525 1.525-0.12 2.288-0.722 3.599-1.479 1.864-1.078 3.854-1.078 8.381-4.403z"></path>
    </svg>