<svg xmlns="http://www.w3.org/2000/svg" viewBox="68.644 -17.207 906.922 1126.417">
    <path fill="#000000" d="M863.39 470.679c-16.073-48.439-40.339-71.423-84.556-97.222-45.111-26.354-108.091-17.61-151.542 10.020-11.682 7.419-21.916 16.417-32.618 25.071-1.662 1.322-8.61 6.145-13.985 10.024-0.036-1.877 0-3.796-0.079-5.715-0.347-8.742-0.935-18.166-2.175-26.862l-4.222 8.060 5.715-13.899c5.413-17.057 4.35-28.739-1.236-44.987-5.884-17.141-2.088-23.070-0.31-41.914 0.036-0.51 0.079-1.021 0.117-1.488-16.032-2.477 26.779-31.514 39.996-30.063 16.843 1.877 33.685 0.277 50.569-0.466 39.317-12.071 77.907-20.383 120.631-20.383 30.489 0 78.672-57.094 80.376-89.374-37.95 3.412-76.112 4.95-113.978 9.982-36.414 4.859-73.937 4.731-110.777 8.27-9.040 1.533-18.038 2.643-27.16 3.498-9.040 1.452-17.996 3.238-26.862 5.587-16.462 4.35-16.504-0.639-10.45-7.505 0.984-10.533 2.258-20.978 3.453-31.597 0.893-8.101 1.919-16.202 1.919-24.389 0-11.13 3.030-23.542-6.31-1.622 8.655-20.382 14.792-50.912-16.801-49.676-28.57 1.149-63.194 36.882-73.594 61.358-7.121 16.715-8.742 31.721-9.685 47.327 1.11 0.686 2.179 1.236 3.242 1.964 10.83 7.332-34.71 36.799-46.69 28.694-27.503-18.675-54.237-9.594-84.469-6.095-24.69 2.816-49.805 0.686-74.578-0.153-28.441-0.933-56.841-1.791-85.153-1.58-23.58 22.131-43.534 55.817-39.315 74.834 68.436-8.188 136.789-3.325 206.507-2.898 35.008 0.186 106.77-14.585 133.037 15.052 3.329 3.751-7.29 13.431-19.87 20.337 0.389 19.018 0.81 38.292-1.365 56.884-3.242 27.205-0.723 42.936 5.798 66.945-5.926 34.496-3.751 68.95-4.904 104.897-1.319 40.89 48.952 17.095 64.517 3.325 2.303-2.007 3.796-3.453 4.735-4.433 2.258-0.982 5.843-2.682 11.297-5.545 5.289-2.728 10.83-5.67 16.036-8.61 16.202-9.039 30.658-21.536 44.941-33.346 33.003-27.205 69.889-8.91 101.44 12.625 31.77 21.66 39.317 44.771 51.256 80.206 1.832 5.454 7.249 41.232 10.83 53.77-2.43 2.131-4.817 4.263-7.117 6.393-8.444 7.716-15.308 18.592-23.409 26.523 2.556-2.901-8.531 4.177-11.773 6.906-16.839 14.117-28.351 30.53-41.786 47.588-6.823 8.659-14.37 16.843-21.065 25.626-0.389 0.512-19.315 24.348-14.2 19.448-14.452 15.437-29.972 29.889-44.176 45.706 9.296-10.359-6.691 6.1-10.615 9.296-0.984 0.812-2.006 1.533-3.030 2.304-10.061 14.456-21.321 28.016-35.261 40.426-29.298 26.18-60.167 48.82-86.686 78.072-25.671 28.314-50.19 56.586-79.441 81.232 0.036 0.030 0.079 0.062 0.117 0.124 0.939 0.466 1.832 0.936 2.73 1.407 16.413 8.572 38.205-0.186 57.479-15.69 15.437-7.931 32.064-14.452 46.819-23.322 26.99-16.288 52.107-36.927 74.748-58.761 3.072-2.94 5.884-6.736 7.803-9.763 9.594-7.803 24.476-14.539 32.875-21.193 22.429-17.736 40.591-38.461 59.696-59.398 16.119-17.61 34.454-31.721 48.911-51.082 8.485-11.384 16.71-22.557 25.539-33.731 3.837-4.392 7.377-9.085 10.706-13.899 0.893-0.682 1.878-1.452 3.027-2.346 9.978-7.89 19.874-16.206 28.442-25.63 1.919-2.258 3.581-4.222 4.991-5.926 6.352-3.879 12.534-8.060 18.377-12.662 24.22-19.787 42.386-45.541 54.452-74.239 20.295-48.394 3.837-94.919-11.901-142.291z"></path>
    </svg>