<svg xmlns="http://www.w3.org/2000/svg" viewBox="100.936 -47.998 810.215 1120.081">
    <path fill="#000000" d="M801.306 53.44c-8.555-4.983-17.020-10.284-25.579-15.255-2.419-1.399-5.253-2.703-7.254-4.694 2.324-1.318 5.767-0.394 7.628-1.489-4.094 0.265-8.091 1.399-12.139 1.95-10.929 1.53-22.045 2.044-33.020 2.926-24.324 1.859-48.69 2.281-73.014 3.81-17.302 1.053-35.067 3.295-51.76 8.425-4.884 1.489-9.302 3.902-14.186 5.391-6.558 1.95-13.022 4.139-19.58 6.050-10.416 2.978-21.3 3.442-31.856 5.908-9.861 2.371-19.671 4.931-29.345 7.909-13.859 4.178-27.717 4.23-42.135 3.81-10.743-0.265-21.254-1.318-31.902-2.703-6.278-0.792-9.069 1.622-14.186 4.931-3.21 2.096-6.745 3.585-10.139 5.443-3.906 2.134-7.532 4.746-11.252 7.212-7.905 5.259-16.137 10.137-24.556 14.418-9.392 4.746-18.93 8.701-28.973 11.679-6.186 1.806-12.744 4.694-19.162 5.628-4.139 0.659-9.953 0.265-13.672-1.821-2.605-1.489-3.861-4.6-6.327-6.090 0.185 1.346 0.46 2.413 0.237 3.77-0.237 1.437-0.37 2.096-0.147 3.585 0.697 5.074 1.768 9.81 3.72 14.696 1.533 3.902 3.256 7.766 5.253 11.484 2.466 4.694 3.812 9.492 5.349 14.555 1.067 3.494 2.001 7.065 3.161 10.559 2.556 8.003 6.65 15.392 9.161 23.438 2.279 7.117 4.139 14.323 6.65 21.391 3.024 8.61 6.93 16.834 10.23 25.347 5.58 14.37 9.255 29.764 13.718 44.46 4.557 15.068 9.629 29.996 14.79 44.833 6.93 19.904 15.764 38.647 24.183 57.9 4.326 9.862 9.21 19.112 14.418 28.508 3.861 7.027 7.487 14.136 12.23 20.649 10.511 14.604 22.741 27.859 32.32 43.11 9.161 14.604 16.742 30.227 25.347 45.155 4.931 8.554 10.278 16.65 14.464 25.672 3.489 7.487 6.745 15.114 9.628 22.928 4.604 12.456 7.905 25.578 11.813 38.32 2.975 9.768 6.141 19.485 8.79 29.345 3.534 13.158 4.698 26.37 6.278 39.857 1.719 14.418 4.467 28.741 5.163 43.295 1.161 24.229 8.651 47.344 11.999 71.2 0.555 3.257 0.83 6.458 0.882 9.768 0.237 1.674-0.044 3.257-0.739 4.746-1.488 1.318-3.256 0.659-4.976 0.133 0.237 0.924 0.512 1.95 0.792 2.926 0.237 2.835-0.237 4.837-1.214 7.487-1.488 4.23-1.629 8.516-2.744 12.788-1.029 3.81-3.579 6.553-5.070 10.047-0.977 2.319-0.83 4.931-1.815 7.302-1.029 2.466-3.161 4.324-4.93 6.273-4.093 4.561-8.696 8.648-12.463 13.441-3.393 4.324-7.068 8.094-10.974 11.906-4.884 4.746-10.139 6.605-16.742 5.761-4.326-0.526-6.090-0.394-9.579 2.413-3.070 2.413-6.186 4.272-9.72 5.908-6.141 2.835-11.999 4.087-18.694 3.020-4.65-0.792-8.51-4.415-11.393-7.909-1.533-1.911-2.093-3.679-3.161-5.761-0.882-1.712-2.511-3.257-3.579-4.879s-1.77-3.295-3.024-4.784c-1.582-1.768-4.23-3.717-4.884-6.090-0.512-1.911 0.934-2.281 1.719-3.993 1.214-2.413 0.46-4.746 0.882-7.212 0.37-1.859 1.629-3.163 2.419-4.837 1.214-2.703 1.067-5.206 2.883-7.634 2.511-3.309 5.999-5.908 8.651-9.161 3.534-4.286 4.976-9.492 7.905-14.090 1.119-1.768 2.279-3.442 3.443-5.116-42.927 32.971-81.246 80.315-87.618 137.705 1.161 0.792 2.279 1.674 3.21 2.926 1.304 1.726 2.233 3.442 3.72 5.021 4.185 4.47 9.255 8.279 13.44 12.693 1.029 1.053 1.119 2.466 2.092 3.717 0.882 1.053 2.37 2.228 3.579 3.020 3.63 2.228 8.138 3.39 12.276 3.48 8.742 0.133 17.393 0.045 26.184-1.053 3.070-0.394 5.627-1.489 8.79-1.318 2.324 0.133 4.743 1.186 7.113 0.792 0.739-0.133 2.883-0.659 3.489-1.053 1.161-0.792 0.792-2.466 2.001-3.442 2.511-2.005 7.209-2.281 10.184-2.044 6.745 0.526 12.51-2.19 18.93-4.139 11.252-3.4 23.114-4.561 34.649-6.643 10.23-1.859 22.928-4.286 32.134-9.583 6.231-3.533 11.348-9.018 16.556-13.951 5.163-4.931 9.579-10.137 13.718-15.905 6.186-8.554 12.044-17.765 14.836-27.995 2.37-8.833 8.928-15.3 17.115-18.88 5.070-2.228 10.602-3.77 15.719-5.813 6.141-2.466 12.139-5.259 18.090-8.042 8.696-4.087 18.043-7.95 26.135-13.158 3.579-2.319 8.001-4.879 10.184-8.701 1.533-2.61 2.324-5.576 3.161-8.464 2.607-8.924 6.141-17.72 8.37-26.74 1.582-6.183 2.466-13.44 0.792-19.717-4.326-16.415-13.395-29.392-24.602-41.762-4.65-5.168-6.278-10.981-8.091-17.489-1.214-4.415-1.119-8.886-3.070-13.063-2.93-6.33-9.21-11.204-14.045-15.996-6.417-6.33-13.859-10.322-21.022-15.674-8.928-6.737-18.51-12.84-26.926-20.276-5.439-4.879-11.348-9.715-15.719-15.629-4.79-6.458-5.767-14.973-6.93-22.74-0.147-0.924-0.792-2.741-0.512-3.717 0.33-1.399 1.77-1.489 2.324-2.518 1.029-1.768-1.067-5.576-1.674-7.529-0.792-2.61-1.815-5.206-2.187-7.909-0.275-1.859-0.275-3.533-0.882-5.353-0.422-1.318-0.607-2.978-1.442-4.087-1.252-1.768-4.884-3.295-6.745-4.652-3.534-2.61-7.395-5.168-10.466-8.279-3.21-3.205-6.464-6.975-9.392-10.507-1.533-1.859-3.489-4.192-4.416-6.33-0.934-2.134-1.441-3.627-3.024-5.628-3.489-4.509-6.695-8.226-9.488-13.299-1.905-3.494-3.72-7.117-5.908-10.469-4.976-7.397-10.466-12.93-13.44-21.531-1.77-5.074-3.767-10.692-4.79-15.951-0.739-3.954-0.422-7.857-0.275-11.863 0.147-3.627-0.091-7.302 0.147-10.981 0.185-2.978 0.607-5.908 0.555-8.924-0.185-8.739-3.906-17.489-6.417-25.766-2.79-9.109-5.349-18.185-9.069-26.972-3.63-8.554-8.232-16.415-13.208-24.229-4.093-6.368-8.51-10.65-14.232-15.486-3.024-2.556-5.254-6.368-7.628-9.531-4.976-6.605-8.605-14.837-12.695-21.997-3.024-5.206-5.813-10.469-8.187-15.996-3.256-7.581-5.208-15.674-7.113-23.624-1.905-7.672-3.443-15.21-3.906-23.114-0.275-5.538-0.37-11.072-0.645-16.556-0.512-9.583-3.489-17.579-8.838-25.394-3.256-4.784-8.277-10.085-9.024-16.092-0.607-4.47 1.35-9.953 2.37-14.277 2.138-9.213 6.93-18.604 11.952-26.603 2.556-4.178 5.58-7.487 9.442-10.469 3.998-3.072 6.231-6.235 7.442-11.072 3.116 0.092 6.231 0.924 9.392 1.053 6.417 0.265 13.486 0.792 19.904 0.265 9.629-0.924 18.138-5.813 27.485-7.397 1.396-0.265 1.629-0.265 2.975 0.133 5.394 2.044 10.325 6.273 14.973 9.346 7.023 4.694 14.37 8.648 21.627 12.93 5.49 3.295 13.999 7.159 17.67 12.75 1.441 2.134 1.252 5.538 2.607 7.397 1.35 1.821 3.767 1.53 5.999 1.622 21.391 0.792 41.298-5.576 61.898-9.953 14.091-2.978 28.136-5.074 42.459-5.628 13.95-0.526 27.112 1.318 40.739 3.954 8.001 1.583 15.114 3.993 22.833 5.96 1.815 0.526 2.233 0.659 3.998 0-0.607-1.859-1.719-3.494-3.302-4.784-3.443-3.993-6.882-8.042-10.325-12.090-10.884-13.208-21.113-27.158-30.974-41.066-6.464-9.109-12.139-18.93-19.253-27.532-3.579-4.415-7.581-8.425-11.999-11.958-2.278-1.346-4.093-3.072-5.535-5.259-2.279-4.694 3.906-4.837 7.023-5.723 7.35-2.134 14.555-4.784 21.996-6.643 12.090-2.978 24.879-4.652 37.346-4.376 5.535 0.092 12.51 1.318 17.534-1.95 2.092-1.346 3.348-3.717 5.304-5.301 2.652-2.134 4.093-3.77 6.045-6.458 1.441-1.95 3.443-4.324 5.767-4.879 5.070-1.318 10.884-0.924 16.046-1.053 10.602-0.133 21.345-1.583 31.95-0.133 10.325 1.346 20.322 5.168 30.369 8.094-2.697-0.924-5.439-2.134-7.301-2.926-7.768-3.494-15.16-7.581-22.555-11.863z"></path>
    <path fill="#000000" d="M358.485 766.236c-0.697 2.793-1.304 6.643-2.652 9.161-0.83 1.53-2.138 2.466-3.116 3.864-1.214 1.768-1.396 3.77-3.393 4.837-1.067 0.659-2.697 0.659-3.906 1.053-1.582 0.526-2.233 1.318-3.579 2.096-0.512 0.265-1.252 0.659-1.952 0.924 0.792-0.265 1.815-0.659 3.116-0.924-5.908 5.168-15.346 4.969-22.091 1.859-3.579-1.622-5.999-2.466-9.998-1.821-3.348 0.526-5.349 0.659-8.418-0.792-1.719-0.792-3.489-0.659-5.070-1.859-2.233-1.622-3.21-4.6-5.304-6.458-2.187-1.95-2.605-3.39-2.742-6.090-0.147-2.926-0.83-6.33 0.091-9.44 1.304-4.415 3.998-8.425 5.394-12.84 1.442-4.694 4.139-9.583 7.209-13.486 2.79-3.533 8.046-6.79 12.371-8.279 4.698-1.583 7.814 0 12.371 1.053 10.698 2.703 19.394 10.322 25.020 19.716 2.883 4.746 8.091 11.536 6.65 17.438zM367.601 909.029c1.119 0.659 10.37 8.648 8.51 2.228 3.534-1.053-0.607-5.116-1.35-7.581-1.119-3.717-2.046-7.724-3.534-11.299 1.815 1.318 5.627 1.186 7.86 1.674 3.767 0.792 6.882-0.394 10.466-1.674 4.185-1.437 2.928-2.228 3.812-6.050 0.555-2.371 2.883-2.835 3.393-5.074 0.83-3.717-3.070-7.027-1.719-11.166 0.37-1.053 1.442-3.295 2.42-4.087 1.161-0.924 3.348-0.526 4.23-1.346 1.674-1.53-1.119-7.539-1.719-9.398-1.029-3.205 0.147-6.183-0.46-9.715-0.697-4.23-4.93-11.389 0.697-13.299 4.512-1.541 7.768-0.133 12.185-0.265 2.046 0 3.256-0.924 5.49-0.394 2.466 0.659 4.602 3.348 7.301 2.887 2.324-0.394 5.627-3.864 7.068-5.538 2.138-2.504 3.21-5.813 5.535-8.37 4.28-4.837 7.951-10.005 13.022-13.904 3.534-2.703 5.535-6.33 7.487-10.19 1.582-3.072 3.489-5.908 5.349-8.791 0.607-5.775 1.442-11.588 2.838-17.302l-2.187 16.23c0.46-0.659 0.934-1.399 1.35-2.134 1.029-1.768 2.046-3.533 3.116-5.301 1.629-2.741 3.393-5.391 5.304-8.003 3.443-4.6 9.674-8.61 11.393-14.136 1.583-4.837 2.279-9.953 3.63-14.837 3.21-11.996 8.838-23.81 9.579-36.323 0.422-7.435-0.882-14.927-1.86-22.277-0.83-6.695-2.279-13.812-5.116-19.95-3.443-7.344-7.532-14.232-8.883-22.414-1.067-6.605-1.067-12.603-3.998-18.743-2.975-6.368-7.164-11.863-12.090-16.833-4.604-4.652-9.302-8.132-12.23-14.137-2.838-5.723-7.164-9.531-11.348-14.37s-8.37-8.976-13.627-12.693c-6.745-4.784-13.532-7.95-21.209-10.835-4.835-1.821-10.047-4.192-15.114-5.353-4.23-0.924-8.605-1.053-12.836-1.583-19.021-2.504-37.901-4.509-57.063-5.353-17.347-0.792-36.090-1.712-52.041 6.050-3.21 1.583-6.65 2.926-9.765 4.694-3.72 2.044-5.721 5.154-8.79 7.766-5.672 4.879-12.744 7.302-18.043 12.788-5.394 5.628-10.511 11.958-15.023 18.326-4.931 6.932-8.232 15.486-12.326 22.973-3.861 6.975-7.86 14.136-10.929 21.486-3.256 7.766-5.163 16.046-7.209 24.184-1.952 7.724-3.861 15.486-5.116 23.346-1.533 9.677-0.882 19.717-1.533 29.486-0.844 12.693-1.582 24.416 2.37 36.646 1.77 5.443 4.048 10.692 6.327 15.997 3.070 7.027 7.023 15.905 12.789 21.254 4.884 4.561 10.325 8.739 15.441 13.025 1.815 1.53 2.652 1.95 4.698 0.924 2.975-1.583 5.721-3.864 8.51-5.865 3.906-2.835 6.278-3.627 11.207-3.072 2.93 0.265 6.186-0.659 8.928 0.526 2.742 1.053 5.394 3.679 6.464 6.368 1.442 3.494 2.233 7.539 3.348 11.166 1.119 3.717 2.42 7.435 3.443 11.166 0.882 3.205 2.556 9.255 1.396 12.551-0.607 1.821-2.605 4.376-4.23 5.168-1.067 0.526-3.348 0.093-3.443 1.622-0.045 1.186 1.396 1.399 1.952 2.281 1.488 2.319 1.214 2.926 4.093 4.6 1.629 0.924 3.579 1.489 4.185 3.494 0.091 0.265-0.37 2.413-0.275 2.793 0.185 0.924 0.977 1.859 1.488 2.703 2.046 3.163 5.163 6.79 8.187 8.976 3.767 2.741 7.951 4.931 11.535 7.95 2.138 1.821 4.185 2.887 6.51 4.286 2.233 1.346 3.393 5.391 5.49 6.090 0.046-3.679-2.138-6.368-3.72-9.398-2.42-4.694-3.161-10.559-4.884-15.629 1.674 1.859 3.256 0.792 5.253 1.53 3.579 1.346 7.254 4.931 10.788 6.79 4.467 2.371 9.161 4.324 12.881 7.724 3.489 3.163 7.301 5.67 10.929 8.701 1.533 1.318 3.998 2.887 4.23 5.021-2.233 1.186-5.49 2.005-8.001 2.281-4.698 0.526-5.813-0.133-4.139 5.206 1.119 3.533-0.422 5.353-0.607 8.886-0.091 0.924 0.33 3.679-0.33 4.509-2.093 2.835-4.835-0.133-4.048 4.784 0.46 3.205 2.511 6.235 5.253 7.95 1.252 0.792 2.652 0.792 4.093 1.399 2.001 0.924 2.742 2.134 4.048 3.81 1.119 1.437 1.86 2.096 3.443 2.134 0.882 0 1.674-0.924 2.605-0.659 0.977 0.265 2.42 2.134 3.443 2.504 1.161 0.526 4.884 0.792 5.672-0.792 1.119-2.134-2.511-4.694-3.489-5.998-1.35-1.768-2.279-4.324-2.324-6.458 1.067-0.133 3.348 0.924 4.65 1.186 1.396 0.133 2.883 0.526 4.23 1.053 2.187 0.792 3.534 2.319 5.349 3.585 1.629 1.053 3.812 1.821 4.467 3.902 2.511 0 3.906-0.526 3.861-2.741-0.045-1.489-1.161-4.272-1.86-5.538-0.882-1.674-1.77-2.978-2.511-4.746-0.739-1.674-1.952-2.228-2.511-4.049-1.629-5.021 5.535-2.319 7.905-0.924z"></path>
    </svg>