<svg xmlns="http://www.w3.org/2000/svg" viewBox="161.687 -17.013 713.671 1121.147">
    <path fill="#000000" d="M634.716 71.433c1.875-0.127 3.965-0.651 5.447 0.831-0.317-0.481-0.699-0.698-1.223-0.698 1.003 3.572 3.398 6.581 5.49 9.454 5.142 7.148 9.717 14.512 15.078 21.482 6.665 8.671 10.762 19.565 16.293 29.065 4.228 7.233 9.327 13.115 14.029 19.869 8.934 12.726 16.56 26.755 26.97 38.215 2.484 2.741 2.395 5.442 4.444 8.32 2.611 3.618 6.581 5.447 8.718 9.501 4.879 9.276 10.804 18.037 16.771 26.75 3.314 4.795 4.53 9.717 6.534 15.163 2.357 6.403 5.84 12.285 9.107 18.168 2.79 4.969 5.49 10.021 8.104 15.078 2.353 4.575 5.709 7.148 8.891 10.982 1.959 2.354 3.53 4.964 5.709 7.144 1.917 1.873 5.49 3.051 6.708 5.535 1.397 2.788 0.745 5.62 3.572 7.842-0.609 2.921-3.14 7.757-4.181 10.939-1.528 4.444-4.096 8.147-5.751 12.548-2.133 5.578-3.965 12.548-5.315 18.43-3.136 13.813-1.612 29.548-2.353 43.619-0.694 13.373-3.618 25.883-4.926 39.040-1.261 12.721-4.748 25.968-7.186 38.515-2.438 12.594-5.794 24.664-7.8 37.428-3.398 21.393-9.717 42.049-11.503 63.662-0.436 5.138-1.223 10.11-1.959 15.252-1.134 8.104-0.609 16.208-2.006 24.355-2.611 15.861-7.19 31.287-11.981 46.535-3.792 12.112-7.279 24.355-11.244 36.382-5.578 16.907-9.065 33.724-11.981 51.33-1.959 11.807-6.098 23.009-8.015 34.816-1.786 10.851-3.356 22.133-4.050 33.158-1.701 27.754-10.635 51.939-20.961 77.208-9.63 23.576-20.521 46.45-30.15 69.98-3.572 8.718-7.668 17.385-11.722 25.794-3.009 6.234-3.877 13.77-5.925 20.352-1.003 3.178-0.157 6.361-4.27 6.492-2.878 0.030-5.62-1.396-8.718-1.265-7.711 0.317-14.507 2.878-22.091 3.877-10.411 1.35-55.468 1.049-66.057 1.396-4.575 0.157-7.668-0.477-11.981-1.959-7.321-2.571-61.96 0.394-69.671-1.222-8.066-1.696-17.559-3.788-25.756-2.354-1.087 0.19-2.133 1.703-3.483 1.092-2.92-1.309-0.918-7.19-1.177-9.586-0.956-8.671-6.577-19.171-9.412-27.233-4.096-11.549-8.714-22.569-14.029-33.551-10.021-20.741-21.003-40.83-27.711-63.221-4.27-14.25-8.803-28.367-13.466-42.527-5.62-17.169-7.626-36.734-9.848-54.728-1.875-15.21-5.404-29.933-8.235-44.923-4.008-20.868-7.537-41.96-12.243-62.659-4.096-18.126-6.712-36.382-9.933-54.728-1.481-8.367-2.357-16.86-4.359-25.142-2.7-11.282-6.839-21.96-10.631-32.895-7.364-21.524-10.94-44.097-16.34-66.188-4.099-16.95-8.802-33.682-13.205-50.458-0.916-3.572-2.875-7.012-3.965-10.5-1.527-4.71-1.959-9.674-3.397-14.376-2.18-7.279-5.403-13.948-7.147-21.482-1.654-7.279-2.439-14.73-4.008-22.050-0.87-4.227-3.529-12.154-2.223-16.818 0.611-2.18 1.875-2.090 3.486-3.572 2.702-2.484 3.66-5.49 5.010-9.022 4.576-12.201 8.889-24.486 13.419-36.729 5.97-16.039 9.28-33.073 15.813-48.845 2.878-7.059 6.149-13.64 8.324-21.003 1.655-5.578 3.221-9.717 6.534-14.507 5.97-8.671 8.54-19.086 13.682-28.456 2.527-4.659 5.188-8.798 7.452-13.682 2.395-5.231 5.794-8.798 8.54-13.724 2.527-4.444 3.182-9.717 5.535-14.292 2.742-5.49 6.708-10.195 9.674-15.557 2.31-4.181 4.922-7.888 6.403-12.51 1.134-3.483 1.528-6.403 3.356-9.713 3.792-6.801 8.887-12.247 11.938-19.564 3.225-7.8 7.452-13.948 11.765-21.046 2.31-3.834 2.438-10.064 6.534-11.372 5.62-1.83 13.161 0.394 18.997-0.651 15.73-2.835 28.41 0.915 44.402-1.703 7.8-1.265 15.815-0.831 23.572-2.22 4.486-0.788 8.756-2.487 13.2-3.398 4.621-1.001 10.026-1.916 13.551 1.612 2.967 3.048 2.311 5.666 2.399 10.021 0.157 9.543-0.237 4.748 1.304 14.118 1.049 6.318 3.094 12.416 4.181 18.739 0.57 3.352 0.237 10.89 1.701 14.029 4.139 8.972 17.994 9.018 22.137 18.515 1.304 3.008 0.741 6.407 1.35 9.63 0.872 4.575 2.967 7.321 5.188 11.070 4.401 7.41 6.492 15.252 9.281 23.267 1.608 4.66 5.442 7.012 7.757 11.24 3.699 6.801-0.482 7.452-4.968 11.244-3.398 2.835-5.84 6.627-9.15 9.585-7.626 6.885-15.030 12.899-20.432 22.222-7.321 12.725-9.15 27.977-16.424 40.783-3.834 6.712-8.849 12.768-13.508 18.87-2.179 2.874-5.142 5.84-6.056 9.63-0.613 2.31 0.040 3.749 0 6.145-0.197 8.494-5.535 16.47-9.454 23.398-4.664 8.147-9.281 15.030-15.51 21.871-2.264 2.484-11.418 10.326-10.635 15.163 0.317 1.743 3.094 2.788 4.185 3.703 5.882 4.922 9.061 11.456 12.201 18.604 7.101 16.208 14.943 31.892 23.615 47.233 2.438 4.313 4.401 9.107 7.279 13.115 5.358 7.453 12.895 8.714 19.518 14.118 4.71 3.792 7.321 8.54 8.976 14.507 2.527 9.281 7.584 12.332 14.071 18.739 6.754 6.708 8.278 11.156 8.147 20.305-0.117 7.626-3.005 14.685-4.575 22.226-2.962 14.291-9.759 27.321-12.764 41.524-1.83 8.714 1.828 17.474-1.265 26.23-1.092 3.051-2.878 5.709-3.877 8.803-0.96 3.005-1.177 5.62-2.569 8.367-2.531 4.748-4.752 5.057-5.751 11.46-1.83 11.807 0.394 23.53-2.4 35.295-2.133 9.061-2.916 15.295-2.527 24.791 0.356 7.584-1.35 15.163-0.956 22.485 3.394 0.915 10.326-17.038 11.46-19.086 5.97-10.762 12.374-21.090 16.424-32.899 2.742-8.104 4.486-15.946 7.888-23.746 5.84-13.242 9.281-28.409 12.633-42.523 2.268-9.501 3.314-19.522 4.884-29.192 1.396-8.718 0.356-18.215 3.53-26.538 2.527-6.623 6.796-11.765 10.284-17.69 2.31-3.834 3.749-8.972 5.010-13.377 1.83-6.534 1.177-13.331 2.662-19.78 0.825-3.661 3.792-5.311 2.484-8.714-0.478-1.175-7.668-4.49-9.238-6.145-4.486-4.579-6.881-10.939-10.152-16.517-1.917-3.22-3.792-6.36-5.62-9.674-3.483-6.318-10.021-12.633-11.981-19.522-1.35-4.706 0-7.012-3.965-10.542-4.312-3.792-9.412-8.19-10.978-14.16-0.394-1.656 0.157-2.965-0.356-4.664-0.567-1.743-2.7-3.749-3.483-5.138-2.662-4.926-1.049-10.237-3.661-15.383-0.787-1.612-2.92-3.966-3.445-5.925-0.609-2.090-0.036-3.661-0.356-5.62-0.918-5.447-3.094-6.577-5.62-10.939-3.53-6.145-1.177-12.027-0.394-18.341 0.436-3.27 0.277-3.445 2.611-5.404 1.092-0.87 2.836-1.088 4.096-2.007 1.655-1.219 3.27-3.792 4.837-5.095 2.873-2.487 3.309-3.051 4.922-6.581 2.18-4.748 5.882-7.711 8.015-12.506 2.878-6.403 5.1-12.679 7.364-19.391 1.481-4.401 3.182-8.451 6.708-11.329 3.445-2.831 6.627-6.099 10.068-9.061 6.056-5.273 12.852-8.544 18.083-14.816 2.569-3.048 3.877-5.404 7.584-7.055 2.789-1.265 4.486-1.526 7.055-3.703 2.573-2.133 7.233-7.106 8.104-10.677 1.049-4.312-2.395-7.143-3.57-11.066-1.875-6.149-2.311-12.637-5.925-18.13-9.281-14.071-18.434-25.007-21.613-42.35-1.35-7.148-4.448-11.807-7.41-17.952-2.222-4.579-5.447-8.24-7.321-13.162-3.009-7.842-1.177-15.73-2.569-23.877-0.83-5.1-3.009-9.674-4.312-14.6-1.003-3.877-1.265-8.015-2.573-11.807-1.261-3.487-2.789-6.75-3.965-10.326-1.261-3.703-3.834-7.931-3.923-11.85 3.618-2.263 12.552 2.354 16.293 2.831 5.578 0.745 8.37-0.958 13.466-2.050 10.373-2.263 22.442-0.477 32.726 1.049 5.057 0.741 10.284 0.824 15.294 1.876 2.222 0.477 3.178 1.349 5.882 1.262 8.93-0.394 15.383 0.317 12.112-2.22z"></path>
    </svg>