<svg xmlns="http://www.w3.org/2000/svg" viewBox="62.843 63.955 905.403 896.086">
    <path fill="#000000" d="M481.033 344.591c1.673 3.643 3.667 7.543 5.255 11.986v0c1.341 3.778 2.289 7.371 3.347 10.669v-0.006c1.994 6.251 4.369 12.27 6.94 18.52v0.008c1.108 2.72 1.575 5.243 1.956 7.371 0.37 2.141 0.738 3.9 1.108 5.316 0.861 2.559 0.985 4.849 1.267 6.731 0.245 1.896 0.37 3.396 0.738 4.515 0.123 0.615 0.615 1.502 1.23 2.807 0.088 0.245 0.245 0.493 0.37 0.738 2.276 0.123 3.631 0.493 4.147 0.37l0.742-0.123c3.507-1.108 7.654-2.768 12.716-3.162h-0.008c1.944-0.123 4.073-0.245 6.264-0.245 2.819 0 5.747 0.123 8.663 0.738h0.091c0.088 0 0.245-0.012 0.493-0.026 0.985-4.332 2.523-7.716 3.064-10.35l0.009-0.018c0.615-2.756 0.985-6.029 1.464-9.648v-0.006c0.985-6.461 2.191-12.963 3.888-19.401l0.006-0.008c-0.006 0-0.006 0-0.006 0.008 2.018-7.654 4.319-14.856 5.722-21.931 0.738-3.691 1.267-7.396 1.699-11.248v-0.018c0.37-3.199 1.23-5.599 1.833-7.704l-0.493 0.086c-0.493 0.123-1.23 0.493-2.264 0.738l-0.019 0.004c-3.347 1.108-6.683 1.562-10.066 1.624h-0.008l-0.615 0.006c-6.769-0.043-12.365-1.562-16.823-1.502l-0.743 0.013c-1.452 0.030-3.297 0.615-5.796 1.588-2.473 0.985-5.551 2.276-9.499 2.682h-0.004c-4.787 0.493-8.761 0.043-11.875 0.493h-0.004c-2.917 0.245-6.277 0.861-10.115 0.861l-1.23-0.026c-2.977-0.123-5.378-0.738-7.273-1.23 1.305 3.028 2.523 5.981 3.766 8.663z"></path>
    <path fill="#000000" d="M765.741 437.819c6.325-0.042 11.235 0.861 14.022 7.161 5.279 11.912 1.427 27.685-11.063 33.613-7.273 3.458-19.387-1.108-25.994-4.503-5.882-3.016-8.478-5.587-10.030-11.924-0.738-3.187-1.661-6.534 0.738-9.328 2.338-2.756 6.781-5.267 9.696-7.298 5.981-4.147 11.592-4.503 17.925-4.948-1.797-3.052 2.105-2.756 4.725-2.78zM836.819 531.43c-0.027 0.245-0.043 0.985-0.245 2.031-0.123 0.985-0.37 2.499-1.6 4.344-0.738 1.23-2.289 2.499-4.011 3.064v0c-1.108 0.37-2.055 0.493-2.819 0.493-2.228-0.042-3.52-0.493-4.751-0.861-1.108-0.37-2.165-0.738-2.215-0.738-3.79-0.615-7.286-1.415-10.496-1.92-4.405-0.738-9.303-1.108-14.764-2.72l-0.018-0.004c-7.125-2.252-12.832-5.341-18.242-6.683-5.452-1.427-11.753-2.079-18.581-4.357l-0.013-0.008c-4.393-1.514-7.925-2.891-11.112-3.199h0.006c-2.499-0.245-5.722-0.088-9.611-0.493v0c-3.593-0.493-5.943-1.108-7.358-1.108l-0.497 0.008c-2.129 0.123-4.405 0.615-6.978 1.305h-0.021c-3.864 0.985-7.445 1.108-10.619 1.108-0.615 0-1.341-0.006-1.968-0.013h-0.738c-3.828 0-7.925 0.123-12.195 0.123-3.371-0.008-6.867-0.123-10.423-0.615h-0.013c-8.343-1.108-17.62-1.23-27.323-3.815h0.006c-3.213-0.861-6.584-1.526-10.078-2.067-3.717-0.615-8.233-0.615-13.358-1.403-4.688-0.861-8.761-2.079-12.425-2.793-2.523-0.493-5.882-0.615-9.919-1.403v0c-3.802-0.738-7.286-1.699-10.496-2.228-1.526-0.245-3.815-0.245-6.695-0.861l-3.422-0.738-1.255-3.237c-0.245-0.861-0.493-1.759-0.493-2.72-0.008-1.538 0.493-2.929 1.108-3.876 0.615-0.985 1.23-1.538 1.673-1.981 0.985-0.861 1.636-1.23 1.673-1.255v0.008c3.335-2.499 6.19-4.037 8.060-5.71 2.977-2.597 5.611-5.993 8.331-9.795l-0.006 0.006c2.228-3.088 4.393-5.895 6.041-8.564l0.004-0.013c1.108-1.87 2.276-3.963 3.52-6.202l0.006-0.004c0.245-0.615 0.738-1.502 1.267-2.744 0.615-1.242 1.255-2.78 2.485-4.431 0 0.008-0.006 0.013-0.006 0.013l0.006-0.013c1.502-1.956 3.335-4.097 5.551-5.931v0c1.415-1.108 3.003-1.809 4.369-2.129 1.379-0.245 2.571-0.37 3.581-0.37 1.588 0.004 2.793 0.123 3.359 0.123l-0.035 4.725c5.87-3.126 11.248-4.246 15.024-6.277 3.84-1.968 7.79-4.849 12.369-7.654h-0.008c7.286-4.417 14.525-7.483 20.677-11.297 4.996-3.088 10.017-5.969 15.603-8.491 6.337-2.855 11.678-6.067 15.623-10.645 3.409-3.938 6.805-7.764 11.407-11.419v-0.008c3.174-2.523 4.172-3.482 5.255-4.614 1.108-1.108 2.523-2.843 5.611-5.87 0.615-0.493 1.353-1.575 2.374-2.917 0.985-1.329 2.314-2.989 4.319-4.542l0.031-0.026c1.23-0.861 2.511-1.699 4.688-2.437 0.738-0.245 1.612-0.493 2.879-0.493l1.293 0.086c0.738 0.123 1.6 0.245 2.744 0.985 1.108 0.615 2.35 1.956 2.867 3.162 0.37 0.738 0.493 1.464 0.615 1.932 0.088 0.615 0.088 0.985 0.088 1.23l0.021 0.37v0.013c0.37 3.753 1.108 7.679 1.883 11.481l0.008 0.013c0.861 4.208 2.807 8.713 4.602 13.938 0.123 0.37 0.493 1.391 0.985 2.597 0.493 1.23 0.985 2.646 1.391 4.221 0.245 1.108 0.493 2.191 0.493 3.619l-0.042 0.985-0.615 5.71-5.784-0.031-0.008-0.008-0.374 0.249c-0.985 0.615-1.526 0.985-2.855 1.477-0.37 0.123-0.985 0.245-1.771 0.37-2.473 1.353-5.058 2.117-7.384 2.437-2.177 0.245-3.828 0.985-6.498 2.203l-0.021 0.013c-2.449 1.108-5.169 2.559-8.406 3.741-2.61 0.985-4.787 1.526-6.387 2.228l-0.013 0.006c-1.699 0.738-3.741 1.821-6.337 2.831l-0.008 0.004c0 0 0.008 0 0.008-0.004-3.323 1.242-5.931 1.538-7.605 2.105-3.003 0.861-6.202 2.387-9.167 4.049-1.908 0.985-4.184 3.199-7.802 5.426v0.004c-1.883 1.108-3.568 1.846-5.094 2.523l-0.861 0.493c-0.245 0.245-0.861 0.738-1.636 1.55-4.554 4.431-9.98 9.069-15.871 12.528l-0.004 0.008c-4.763 2.78-9.537 5.931-14.946 8.836v0c-3.703 1.994-7.113 4.515-10.718 7.457l0.013-0.008c-0.493 0.37-0.861 0.615-1.281 0.985 0.615 0.088 1.379 0.245 2.018 0.245 3.619 0.493 7.396 0.493 11.333 0.493 2.732 0 5.537-0.042 8.418-0.042l0.857 0.008h0.615c8.884 0 17.991-0.615 27.472-0.615l1.59 0.006c5.772 0.088 10.535 1.317 14.648 1.735 5.243 0.615 10.472 1.108 15.345 1.281 1.108 0.038 2.302 0.042 3.47 0.042 4.467 0 9.131-0.245 13.965-0.245 3.371 0 6.817 0.088 10.338 0.493v0c5.895 0.615 11.654 2.006 16.944 3.532 3.273 0.985 6.005 2.228 8.418 3.237 2.4 0.985 4.467 1.771 6.447 2.105h0.013c0.861 0.123 1.87 0.123 3.126 0.245-0.009-0.738-0.043-1.49-0.043-2.338v0.006c-0.123-6.952-0.861-13.932-1.771-21.034v-0.006c-0.985-8.024-3.138-16.367-4.208-25.409v0.004c-1.379-11.604-3.323-22.439-6.841-33.28-2.953-9.107-5.452-18.419-7.802-27.531l-0.004-0.018c-0.861-3.359-2.695-7.334-3.568-12.679-0.245-1.317-0.493-2.756-0.615-4.258l-0.035-0.245-0.008-0.245-0.026-1.317c-0.123-0.493-0.615-1.427-1.636-2.831-1.108-1.673-2.708-3.864-3.568-7.211l-3.174-12.859 11.813 5.525 0.245 0.009c0.738 0.021 2.018-0.123 3.963-0.245l0.738 0.013c2.559 0.123 4.566 0.738 6.067 1.108 1.514 0.493 2.547 0.615 3.162 0.738 1.55 0.086 2.917 0.245 3.926 0.245 0.37 0 0.615-0.021 0.861-0.043l0.245-0.123c0.493-0.37 1.341-1.108 2.72-1.797 0.985-0.493 2.228-0.985 4.123-1.108 1.956-0.088 4.306 0.985 5.611 2.302l0.013 0.012c2.177 2.215 2.732 4.443 3.126 6.128 0.37 1.699 0.493 3.138 0.493 3.913l-0.008-0.013c0.37 3.741 1.427 7.889 2.597 12.27v0.008c2.695 10.251 6.153 20.564 8.983 31.356 1.391 5.291 2.708 10.657 3.815 16.122 1.477 7.26 2.141 14.247 3.237 20.838v0.008c1.624 9.807 3.237 19.622 4.135 29.855v0.018c0.245 3.064 0.493 6.166 0.493 9.364l-0.008 0.861v0.493c-0.012 4.16 0.615 8.786 0.615 13.987v0.008c0.008 1.317 0.012 2.622 0.012 3.938 0 5.070-0.042 10.115-0.042 15.112v1.477c0.004 1.747 0.088 3.691 0.088 5.796 0 1.6-0.042 3.311-0.245 5.082zM647.562 736.218c-0.861 0.985-1.624 1.439-2.276 1.821l-0.035 0.026c-1.502 0.861-2.682 1.108-3.643 1.365-0.985 0.245-1.673 0.37-1.932 0.493-1.687 0.493-3.494 1.108-5.452 1.612l-0.026 0.008c-2.905 0.738-5.661 0.861-8.134 0.861-2.412-0.006-4.59-0.123-6.447-0.123-2.289-0.006-4.921 0.123-7.79 0.123-2.067 0-4.282-0.123-6.559-0.493 0.738 2.658 1.379 5.193 2.117 7.531v-0.008c1.305 4.16 2.622 8.331 3.691 12.828v0.013c0.861 3.864 2.165 7.863 3.371 12.133 1.92 6.841 2.929 13.472 4.431 19.532 1.464 6.079 4.491 12.231 6.892 19.565 0.089 0.245 0.245 0.861 0.493 1.624 0.245 0.738 0.493 1.821 0.493 3.213 0 0.861-0.123 1.968-0.493 3.114-0.493 1.108-1.23 2.338-2.191 3.237l-0.004 0.008c0 0 0-0.008 0.004-0.008-1.108 1.108-2.547 1.723-3.703 2.018-1.23 0.245-2.079 0.245-2.732 0.245-0.615-0.006-1.108-0.031-1.23-0.031h-0.026c-2.043 0.021-2.905 0.089-3.174 0.245l-0.013 0.006c-0.088 0.026-0.123 0.039-0.985 0.493-0.861 0.493-2.535 0.985-4.196 1.108h-0.013c-1.108 0.042-2.165 0.088-3.249 0.088-4.467 0-8.97-0.493-13.401-1.661 0.006 0 0.013 0.008 0.018 0.008l-0.018-0.008c-1.108-0.245-2.031-0.615-2.843-0.738-0.493-0.123-0.861-0.245-1.23-0.245l-1.108 0.738-1.108 0.245c-0.615 0.123-1.403 0.245-2.191 0.245-1.23 0.008-2.461-0.245-3.482-0.861-0.985-0.493-1.833-1.108-2.412-1.797-1.23-1.293-1.711-2.473-2.129-3.52-0.738-2.093-0.985-3.926-1.23-5.414-0.123-0.985-0.123-1.797-0.245-2.105l-0.004-0.043c-0.738-5.217-0.37-9.352-0.985-12.52v-0.004c-0.738-4.221-2.093-8.884-2.905-14.204v-0.013c-0.615-3.79-1.108-7.483-1.833-10.915v-0.021c-1.353-6.447-1.92-12.328-3.556-17.26-1.968-6.055-2.511-11.837-2.523-17.664-0.615-0.123-1.23-0.245-1.649-0.493-0.738-0.37-1.108-0.615-1.612-0.985l-0.738-0.493c-0.245 0.021-0.985 0.123-1.968 0.37-1.108 0.245-2.449 0.738-4.061 0.985v0c-1.108 0.245-1.6 0.245-1.747 0.37l-0.245 0.245c-0.493 0.37-1.612 1.23-3.422 1.759h-0.008c-1.415 0.37-2.597 0.493-3.544 0.493-1.427-0.012-2.425-0.123-2.768-0.123h-0.031c-0.615-0.008-1.341-0.013-2.018-0.013-1.108 0-2.35 0.006-3.544 0.018h-0.136c-4.037-0.042-7.235-0.738-9.439-0.738-0.615 0-1.108 0.039-1.538 0.088h-0.012c-0.615 0.089-1.391 0.245-2.499 0.615-1.108 0.245-2.559 0.615-4.332 0.615-0.615 0-1.317-0.039-2.006-0.123v0c-1.747-0.245-3.076-0.493-4.27-0.493h-0.511c-1.108-0.006-2.499 0.088-3.963 0.245-0.088 4.123-0.615 7.679-0.615 10.633l0.004 0.245v-0.008c0.013 1.6 0.018 3.199 0.018 4.787v4.357c0 1.108 0 2.191 0.008 3.285v0.245c-0.026 4.405-0.615 8.060-0.615 11.087l0.008 0.37v0.006c0.013 0.861 0.018 1.636 0.018 2.473-0.004 4.554-0.123 9.439-0.861 14.153-1.108 6.928-2.965 12.693-3.225 17.939-0.042 1.23-0.088 2.485-0.088 3.815l0.004 1.588 0.123 4.627-0.738 1.477c-0.738 1.502-2.437 2.977-3.913 3.482-1.477 0.493-2.461 0.493-2.965 0.493l-0.245-0.008c-3.494 0.37-7.728 1.687-11.813 3.016l-0.012 0.006c-0.738 0.245-2.153 0.985-3.975 1.846s-4.109 1.956-7.248 2.215c-0.37 0.026-0.738 0.089-1.514 0.089-0.738-0.021-1.932-0.008-3.568-0.738-1.673-0.738-3.040-2.523-3.482-3.729-0.37-0.861-0.493-1.502-0.615-2.067l-0.008-0.013c0 0 0.008 0.006 0.008 0.013-0.123-0.861-0.123-1.636-0.123-2.289 0.013-1.353 0.089-2.338 0.089-2.768 0-1.329-0.043-2.831-0.043-4.503 0-2.203 0.089-4.763 0.861-7.519 0.615-2.093 0.861-4.972 1.797-8.478v0.013c0.493-1.526 0.615-3.802 0.985-6.755 0.738-4.529 2.043-7.827 2.35-10.374 0.493-3.778 0.37-8.393 0.738-13.593l0.008-0.012c0.245-3.076 0.738-5.87 1.108-8.552 0.615-3.643 0.493-7.692 0.615-12.294v0.004c0.123-5.255 0.37-10.436 0.493-15.559v-0.008c0.123-5.649 0.738-10.953 1.23-16.032v0.008c0.493-6.153 0.738-12.516 1.23-19.080 0.37-5.931 0.493-11.936 0.615-18.272v-0.008c0.245-7.457 1.23-14.539 1.55-21.329v-0.008c0.493-9.598 1.379-19.166 2.547-28.752 1.108-8.86 1.649-17.612 1.968-26.415-1.858 0.37-3.016 0.493-3.434 0.615l-0.026 0.012c-1.846 0.615-4.061 1.415-6.916 1.994-2.559 0.493-5.169 0.985-7.839 1.514h0.006c-0.123 0.026-0.985 0.245-1.858 0.37-0.985 0.123-2.006 0.37-3.422 0.37-0.493 0-1.108-0.035-1.747-0.123l-5.82-0.985 0.615-5.832c0.37-3.088 0.985-5.020 1.108-6.214 0.245-3.003 0.37-6.202 0.493-9.586 0.245-3.359 0.615-6.435 0.738-9.18l-0.004-0.089-0.039-0.493c-0.039-0.493-0.089-1.108-0.089-1.833 0.027-0.985 0-2.165 0.861-4.011l0.013-0.026c0.493-1.108 1.538-2.449 2.929-3.311 1.379-0.861 2.941-1.108 4.097-1.108 2.499 0.088 3.729 0.861 4.725 1.255 0.738 0.37 1.23 0.615 1.514 0.861 0.123 0.018 0.493 0.035 0.861 0.030 1.108 0.018 2.891-0.245 5.058-0.245h0.534c2.597-0.008 3.987-0.088 5.895-0.615 2.989-0.861 5.931-1.108 8.701-1.108 1.391 0 2.732 0.088 4.073 0.123v0c2.264 0.245 3.876 0.493 4.972 0.493l0.615-0.018c1.329-0.088 3.285-0.493 5.943-0.615h-0.008c0.985-0.018 2.4-0.123 4.123-0.123 1.23 0.006 2.547 0.043 4.097 0.37l3.876 0.861 0.861 3.852c0.493 2.191 0.37 3.384 0.493 3.593l0.008 0.026c0.615 2.867 0.861 5.661 0.861 8.418v0.008l0.012 1.23c0.013 2.511-0.245 4.96-0.861 7.507v0c0 0 0.008 0 0 0-0.738 3.199-0.985 7.161-0.985 11.395 0 2.093 0.039 4.246 0.039 6.447 0 8.024-0.021 16.032-0.021 24.025 0 4.542 0.008 9.069 0.026 13.601v0.497c-0.004 9.033-0.985 17.586-1.23 25.809-0.123 4.049-0.738 7.519-1.305 10.89v0.004c-0.615 3.79-0.615 8.442-1.391 13.797-0.493 2.597-0.615 5.145-0.738 7.704 0.37-0.123 0.861-0.37 1.329-0.615l0.026-0.012c1.687-0.615 2.634-0.738 2.744-0.861 0.493-0.245 0.861-0.493 1.735-0.861 0.985-0.493 2.264-0.738 3.434-0.985h0.006c1.538-0.123 3.371-0.738 5.611-1.477 2.228-0.738 4.861-1.6 8.036-1.968h0.006c2.768-0.245 5.525-0.37 8.221-0.37 3.335 0 6.559 0.123 9.574 0.245v0c0.861 0.038 1.6 0.123 2.374 0.245-1.477-4.823-2.571-9.624-3.605-14.1-0.615-2.855-0.615-5.341-0.615-7.396v-0.985l-0.013-1.562v-0.008c-0.008-1.846-0.615-4.306-1.23-7.716v0c-0.738-4.935-0.861-9.611-1.329-13.895-0.37-3.963-1.108-8.233-1.55-12.894-0.493-5.106-0.615-9.931-0.985-14.435-0.493-4.417-1.403-9.364-1.502-14.833v0.004c-0.021-0.861-0.026-1.673-0.026-2.499 0-1.711 0.026-3.371 0.026-4.996 0-1.427-0.021-2.819-0.088-4.16-0.245-6.522-0.985-13.384-1.108-20.621v-0.004c-0.026-4.221-0.042-8.098-0.493-11.837-0.615-5.279-1.833-10.78-2.843-16.706-0.493-3.297-1.267-6.671-1.92-10.239l0.008 0.021-0.042-0.245-0.123-0.615c-0.123-0.493-0.245-1.108-0.493-1.797-0.37-1.415-0.738-2.965-0.738-5.033 0.019-0.861 0.043-1.92 0.615-3.347l1.526-3.926 4.234-0.123h0.245c2.374 0.026 3.95 0.738 4.972 1.23 0.985 0.493 1.452 0.615 1.575 0.738l0.245 0.012c0.861 0.008 2.079-0.123 3.285-0.493 2.031-0.493 3.802-0.985 5.070-1.575l0.088-0.043 0.861-0.493c0.861-0.493 2.043-1.329 4.811-1.439l1.23 0.088 4.258 0.738 0.985 4.184c0.493 1.932 0.493 3.507 0.493 4.676 0.004 1.23 0.042 1.956 0.123 2.326v-0.008c0.615 3.052 0.738 5.426 1.305 7.125v-0.004c2.977 10.189 5.969 20.495 8.367 31.087v0.008c0.861 4.061 1.23 7.802 1.771 11.013v0.013c0.493 2.461 1.108 5.205 1.785 8.331v0c0.861 4.097 1.699 8.418 2.289 12.863l-0.006-0.026c0.006 0.013 0.006 0.013 0.006 0.026 0.245 1.723 0.245 2.535 0.615 3.422 1.108 3.778 3.434 8.158 4.196 14.203v0.013c0.123 2.153 1.538 5.145 2.622 9.499v0c1.452 6.289 2.338 11.801 4.357 16.592l0.006 0.004c0.123 0.493 0.493 1.108 0.861 2.055 0.37 0.985 0.615 2.412 0.615 3.84v0.21l-0.006 0.985c0 0.738 0.013 1.562 0.013 2.387v0.035c0.013 1.687 0.031 2.141 0.245 3.162v0.021c0.861 3.753 0.615 6.596 0.985 8.343 0.123 0.861 0.493 1.968 0.861 3.409 0.493 1.439 0.985 3.174 1.353 5.291v0c0.615 4.16 1.108 7.999 1.968 11.53l-0.008-0.012c0.738 3.028 0.861 5.772 0.861 8.122 0.013 2.35-0.035 4.332 0.123 6.079l0.089 0.37 0.026 0.042 0.245 0.089c0.615 0.123 1.661 0.245 2.461 0.245l0.985-0.089h-0.021c2.953-0.493 5.747-0.861 8.639-1.108h-0.021c0.245-0.035 0.493-0.043 1.833-0.615h0.013c1.968-0.861 3.79-1.108 5.094-1.108 1.341-0.043 2.252-0.035 2.756-0.089 2.412-0.088 5.993-1.477 11.013-1.687l0.026-0.008 0.245-0.026 0.861-0.089c0.738-0.042 1.636-0.123 2.622-0.123 0.493 0 0.985 0.012 1.55 0.088 0.615 0.088 1.255 0.123 2.338 0.493 0.738 0.245 1.747 0.738 2.867 2.079l0.039 0.043c1.464 1.92 1.575 3.655 1.588 4.739-0.012 1.391-0.245 2.228-0.493 2.917-0.123 0.493-0.245 0.861-0.245 0.985l-0.043 0.861 0.009 0.861v0.273c-0.009 2.547-0.245 4.873-0.245 6.793-0.012 1.649 0.123 2.843 0.493 3.494 0.123 0.123 0.37 0.493 0.738 1.108s0.861 1.747 0.861 3.371c0.043 1.723-0.861 3.544-1.673 4.491zM443.101 347.957c-0.738-3.434-1.785-6.781-2.867-10.102-1.588-0.123-3.174-0.245-4.787-0.245-2.191 0-4.455 0.123-6.853 0.37-0.985 0.088-2.018 0.123-3.028 0.123-6.423 0.008-12.034-2.129-17.013-4.811l0.008 0.008c-0.861-0.493-1.242-0.738-1.305-0.738-0.089-0.026-0.245-0.043-0.985-0.245-0.738-0.123-2.093-0.738-2.989-1.427-0.615-0.493-1.108-0.985-1.427-1.341l-0.006-0.013c-1.821-2.067-3.187-3.741-4.59-4.972-0.245-0.245-0.985-0.738-1.883-1.588-0.861-0.861-2.093-2.031-2.953-3.888l-3.619-7.752 8.54-1.108c1.23-0.123 2.843-0.738 5.046-1.797 2.203-0.985 4.948-2.276 8.54-2.793h0.013c4.061-0.493 7.396-0.245 9.869-0.493 2.314-0.245 4.775-0.493 7.396-0.861 0.37-0.035 1.108-0.123 2.031-0.37 0.123-0.018 0.245-0.039 0.37-0.045-0.245-1.747-0.985-3.975-1.379-7.038v0.008c-0.37-3.199-0.738-6.202-1.255-9.021-1.108-6.104-2.917-12.060-5.070-18.19-1.452-4.16-3.409-8.615-4.823-13.736-1.108-4.16-2.043-8.307-2.819-12.407-0.985-5.082-1.846-10.078-3.114-14.562v0c-1.661-5.87-4.085-11.863-6.559-17.937v-0.006c-0.738-1.92-1.846-4.085-2.744-6.904l0.004 0.019c-0.245-0.738-0.738-1.735-1.514-3.088-0.738-1.353-1.797-3.028-2.61-5.243l-1.92-5.205 4.948-2.559c1.908-0.985 3.384-1.23 4.503-1.391 1.108-0.123 1.858-0.37 1.932-0.37 3.076-0.985 6.817-2.461 11.543-2.658v0l1.365-0.021c1.735 0.006 3.225 0.088 4.467 0.088l0.985-0.018 0.738-0.245c0.738-0.123 1.846-0.493 3.691-0.615 0.615 0.008 1.452 0.086 2.374 0.37h0.006c0.861 0.245 1.785 0.615 2.658 1.341 0.861 0.615 1.588 1.588 2.031 2.461 0.861 1.797 0.861 3.076 0.861 3.84-0.013 0.861-0.043 1.267-0.043 1.379 0.245 2.917 1.23 6.041 2.4 9.513 3.384 9.821 5.943 19.509 9.427 28.443v-0.004c3.494 9.021 5.291 17.845 8.17 25.677 2.093 5.772 4.566 11.998 5.943 18.872v-0.013c0.985 4.64 1.944 9.242 3.335 13.335 0.738 2.264 1.821 4.849 2.682 7.937 0.123 0.086 0.37 0.123 0.615 0.245 2.695 0.985 4.467 1.944 5.537 2.165l0.013 0.004c0.493 0.123 1.23 0.245 2.165 0.123 0.985 0 2.105-0.088 3.285-0.123h-0.004c1.379-0.088 3.237-0.493 5.895-0.493 0.615 0 1.353 0.030 2.079 0.123v0c2.559 0.245 4.664 0.738 6.387 0.985h0.008c1.439 0.123 3.15 0.245 4.861 0.245 1.735 0 3.482-0.088 4.96-0.245 5.169-0.615 9.352-0.245 12.433-0.738 1.464-0.245 2.977-0.37 4.542-0.37 2.153 0 4.417 0.245 6.683 0.985l0.008 0.006c3.237 0.985 4.935 1.439 7.161 1.439h0.245c2.547-0.043 5.070-0.043 7.581-0.043 2.006 0 3.999 0.006 5.981 0.013 0-0.088-0.012-0.123-0.012-0.245 0.008-3.544 0.738-6.695 1.624-9.513 0.861-2.807 1.771-5.303 2.338-7.371 2.018-7.235 3.568-14.63 5.243-22.267 1.403-6.313 3.655-11.777 5.354-16.958 1.281-3.864 1.896-8.269 2.387-12.988v-0.006c0.37-3.323 0.615-6.867 1.23-10.595v-0.006c0.861-5.488 2.412-10.227 3.273-14.548l0.008-0.021c0.493-2.61 0.985-5.341 1.588-8.158v0c0.615-2.965 1.341-5.058 1.439-6.423l0.493-4.246 4.135-1.23c0.615-0.245 1.391-0.245 2.177-0.245 1.427-0.021 2.965 0.493 4.097 1.23 0.615 0.37 1.108 0.861 1.49 1.23 1.108 0.861 2.314 1.699 3.593 2.35l0.043 0.018c2.031 1.108 4.873 2.203 6.214 2.338 0.493 0.088 0.985 0.088 1.612 0.088 1.317 0.004 3.028-0.123 5.106-0.123l0.493 0.008c0.738 0.026 1.809 0.026 3.285 0.493 1.439 0.37 3.323 1.588 4.357 3.15 0.738 0.985 1.108 2.031 1.379 2.953v0c0.493 1.502 0.493 2.917 0.493 4.221-0.004 2.228-0.37 4.196-0.615 5.919-0.37 1.711-0.615 3.213-0.738 4.123v0.013c-0.861 5.673-1.588 11.616-3.064 17.703v0.006c-1.687 6.793-4.184 12.636-5.649 18.146-0.861 3.335-1.255 6.829-1.365 10.669v-0.006c-0.37 12.133-4.578 22.805-8.872 32.728-0.37 0.861-0.738 1.87-1.108 3.003 1.538-0.37 3.335-0.861 5.673-1.108l0.008-0.008c0.861-0.086 1.588-0.123 2.338-0.123 3.297 0.027 6.005 0.615 7.925 0.861 2.646 0.245 5.366 0.37 8.269 0.37 0.861 0 1.699-0.008 2.559-0.013h0.123c1.575 0 2.855 0.245 3.703 0.37 0.861 0.123 1.329 0.245 1.6 0.245l4.652 0.123 1.267 4.431c0.37 1.391 0.493 2.658 0.493 3.79-0.021 2.756-0.615 4.972-0.861 6.337-0.615 3.040-1.23 6.166-1.896 9.266l-0.038 0.123-0.043 0.123c-0.37 1.329-0.615 2.695-0.861 4.085-0.042 1.391-0.088 2.78-0.123 4.16l-0.018 0.245-0.043 0.245c-0.088 0.493-0.123 1.23-0.493 2.203-0.245 0.985-0.738 2.374-2.141 3.828-0.861 0.985-2.276 1.833-3.741 2.215l-0.861 0.245-0.985-0.026c-1.317-0.039-2.646-0.123-3.975-0.245l-0.175-0.026c-1.649-0.245-3.297-0.37-4.935-0.493h-0.738c-1.353 0-2.78 0.026-4.294 0.035-1.427 0-2.929-0.035-4.503-0.123h-0.008c-2.855-0.245-6.301-0.123-10.128-0.493h-0.018c-0.861-0.088-1.502-0.245-2.105-0.245 0.245 1.23 0.245 2.289 0.245 3.261-0.012 2.228-0.245 4.061-0.245 5.046v0.021l0.008 0.493c-0.008 5.217-0.37 10.669-1.687 16.128l0.004-0.013c-2.24 9.513-3.987 19.37-6.238 29.329v0.008c-1.108 4.921-2.695 9.242-3.717 13.266l-0.004 0.013c-0.861 3.446-1.833 6.892-2.891 10.35l-0.006 0.008c-1.341 4.221-1.55 9.254-2.708 15.255v0.004c-1.108 5.205-3.347 8.701-4.479 11.641-2.523 6.202-4.049 13.296-5.747 20.589v0.004c-1.317 5.316-1.391 11.936-3.691 19.231v0c-1.317 3.963-2.78 7.026-3.237 9.427v0.008c-0.738 3.568-1.317 8.158-3.335 12.898l0.006-0.012-0.089 0.245-0.245 0.738c-0.245 0.615-0.493 1.242-0.861 1.981-0.245 0.493-0.493 0.985-0.985 1.699-0.245 0.37-0.615 0.861-1.329 1.538l-0.031 0.031c-0.493 0.493-1.108 0.861-2.006 1.317-0.861 0.493-2.105 0.738-3.114 0.738-1.23-0.013-1.968-0.245-2.338-0.37l-0.493-0.123c-0.37-0.088-0.985-0.088-1.699-0.088-0.985 0-2.203 0.088-3.655 0.088h-0.004c-0.123-0.018-1.23 0.089-2.61 0.123-0.861-0.004-1.821-0.031-3.138-0.37l-4.909-1.365 0.245-5.033c0.088-1.305 0.37-2.191 0.493-2.843 0.245-0.615 0.37-1.108 0.37-1.23l0.021-0.078c0.738-3.064 1.108-6.608 1.92-10.484l0.004-0.006c0.861-4.332 2.055-7.925 2.326-10.866v-0.018c0.245-2.129 0.493-4.443 0.861-7.026l0.008-0.012c0.861-4.837 2.043-9.881 3.679-14.744v-0.008c0.738-2.289 1.255-4.897 1.771-7.777-0.493 0.088-0.985 0.088-1.329 0.088-1.255-0.012-2.177-0.123-2.302-0.123l-0.245 0.008c-4.921-0.042-8.589-1.108-11.506-1.23h-0.021l-0.245-0.008c-1.108-0.043-3.138 0.493-6.423 0.615h-0.008c-1.305 0.021-2.732 0.089-4.27 0.089-1.329 0-2.72-0.039-4.172-0.123h-0.018c-1.242-0.123-2.165-0.245-2.929-0.37 0.493 1.723 0.861 3.568 0.861 5.611l-0.006 0.37 0.006 0.123 0.042 0.615c0.039 0.493 0.088 1.108 0.088 1.944 0 0.493-0.021 1.108-0.123 1.896-0.123 0.738-0.245 1.687-1.108 3.016-0.493 0.861-1.439 1.932-2.855 2.646l-7.014 3.52-1.23-4.357c-1.514-0.245-2.965-0.493-4.282-0.615h-0.019l-1.108-0.042c-0.615 0-1.514 0.031-2.547 0.031-1.108 0-2.437-0.031-3.999-0.37h-0.012c-1.415-0.245-2.646-0.738-4.037-1.538-1.353-0.738-2.879-1.649-4.357-3.963 0 0.008 0 0.008 0.006 0.008l-0.006-0.008c-0.738-1.242-0.861-2.079-0.985-2.793-0.123-0.738-0.245-1.293-0.245-1.821-0.088-0.985-0.088-1.92-0.123-1.944-0.37-2.583-0.615-5.094-0.861-7.605-0.493-4.59-1.281-9.525-1.588-14.857v0.009c-0.123-3.9-0.035-6.978-0.493-9.29-0.985-5.685-4.282-11.813-6.892-19.115l-0.006-0.008c-1.108-3.273-1.711-6.153-2.437-8.528-1.108-3.778-2.24-7.396-3.52-10.744-0.985-2.571-2.744-5.635-4.011-9.807-2.093-7.149-4.381-14.535-6.153-22.149zM440.157 481.742c-0.738 1.502-1.92 2.768-3.162 3.655v0c-1.379 0.985-3.556 2.682-7.038 3.335h-0.013c-1.723 0.245-3.076 0.245-4.025 0.37-0.985 0.042-1.439 0.123-1.735 0.245l-0.012 0.008c-2.511 0.861-4.602 1.242-6.534 1.735l-0.013 0.008-0.123 0.123c-0.245 0.245-0.985 0.861-2.177 1.699 0 0 0.006 0 0.006-0.008l-0.027 0.021c0.009-0.008 0.013-0.008 0.021-0.013-0.245 0.123-0.493 0.245-0.615 0.37 0.123 0.37 0.245 0.738 0.37 0.985 0 0.088 0.738 1.242 1.699 2.708 0.861 1.514 2.276 3.446 2.437 6.952l0.008 0.245c-0.021 2.374-0.615 4.27-1.108 5.931-0.615 1.649-1.23 3.052-1.612 4.097l-0.004 0.021c-0.861 2.043-1.981 4.049-3.52 5.796s-3.446 3.199-5.551 4.344c0-0.006 0.006-0.006 0.006-0.006v0c-2.78 1.514-4.479 2.535-6.029 4.073l0.012-0.013c-0.493 0.493-1.108 1.108-2.177 1.92-0.985 0.738-2.708 1.771-5.279 1.809-1.341 0.012-2.78-0.37-3.938-0.985-1.108-0.615-2.043-1.452-2.72-2.264l-0.018-0.026c-1.883-2.412-2.105-4.443-2.362-5.907-0.245-1.464-0.245-2.658-0.245-2.879l-0.008-0.021c-0.493-3.691-1.108-7.334-1.636-11.013v-0.008c-0.493-3.237-0.861-6.264-1.341-9.205-0.012 0.006-0.026 0.006-0.039 0.013h-0.012c-1.108 0.245-2.055 0.245-2.819 0.245-0.985-0.008-1.673-0.042-2.031-0.042h-0.074c-1.23 0-2.843 0.123-4.787 0.123-1.242 0-2.622-0.043-4.123-0.245v0c-3.003-0.615-4.725-1.267-5.747-1.317-1.687-0.245-4.085-0.042-7.396-0.738v-0.008c-3.802-0.861-6.94-1.379-10.386-1.49h-0.004c-4.294-0.123-7.654-0.985-10.311-0.985h-0.008c-2.374-0.089-4.787-0.123-7.248-0.123-2.449 0-4.935 0.018-7.483 0.018-3.84 0-7.79-0.042-11.825-0.37h0.012c-1.353-0.089-2.78-0.123-4.294-0.123s-3.088 0.031-4.751 0.039h-0.259c-2.437 0-4.751-0.089-6.928-0.089-1.49 0-2.905 0.035-4.246 0.123h-0.013c-4.123 0.245-8.701 1.661-14.153 2.658h0.009c-3.446 0.615-6.289 0.738-8.516 1.329l-0.123 0.030-0.493 0.123c-0.493 0.123-0.985 0.245-1.636 0.493-0.985 0.245-2.215 0.493-3.667 0.738-0.043 0.123-0.123 0.245-0.245 0.493-0.738 1.785-1.538 3.876-2.485 6.178v-0.004c-1.108 2.78-2.362 5.734-4.431 8.922v0c-2.079 3.213-4.147 6.411-6.092 9.586v-0.008c-2.535 4.109-4.172 9.562-5.919 15.277v0.006c-2.215 7.125-3.975 14.491-5.328 21.862l-0.008 0.004c-0.004 0.019-0.030 0.245-0.086 0.985-0.043 0.615-0.088 1.588-0.493 2.989-0.245 0.985-0.861 2.043-1.636 3.040-1.108 1.353-2.695 2.276-4.123 2.756 0-0.006 0.006-0.006 0.013-0.006l-0.013 0.006c-5.008 1.699-9.845 1.968-14.314 1.981-0.861 0-1.759 0.012-2.819 0.012-1.87 0-4.049-0.042-6.411-0.493-2.338-0.493-4.96-1.23-7.408-3.040l-0.035-0.018c-1.403-0.985-2.583-2.67-3.114-4.196-0.493-1.526-0.615-2.819-0.615-3.729 0.006-0.985 0.043-1.55 0.043-1.87v-0.013c0.088-3.396 1.108-6.289 2.006-8.812 0.985-2.511 1.994-4.725 2.61-6.423 3.237-8.86 6.214-18.051 10.189-27.251l0.031-0.123c0.043-0.245 0.123-0.861 0.245-1.821v0c0.738-3.126 2.079-5.5 3.162-7.384v0.008c0.985-1.747 1.932-3.778 3.126-6.19l0.004-0.004c1.759-3.494 3.494-7.223 5.895-11.025-1.55-0.123-3.016-0.245-4.344-0.245l-1.108 0.026-0.012 0.008c-3.766 0.123-8.504 1.514-13.505 2.768l-0.013 0.008c0-0.008 0.008-0.008 0.013-0.008h-0.006c-1.846 0.493-4.725 1.452-8.478 1.502-1.624 0-3.446-0.245-5.291-0.985v0c-1.108-0.493-2.473-1.23-3.581-2.583-1.108-1.365-1.673-3.297-1.636-4.688 0.018-1.687 0.493-2.744 0.738-3.482s0.615-1.23 0.738-1.49c2.425-4.897 4.64-10.102 7.235-15.437l-0.008 0.006c2.708-5.476 5.832-10.213 7.137-14.258l0.123-0.738c0.043-0.493 0.043-1.281 0.123-2.437l0.493-5.255 5.291-0.493 1.108-0.042c2.473 0.013 4.405 0.615 5.969 0.985 1.55 0.493 2.768 0.861 3.359 0.861l0.013 0.004c1.771 0.245 3.828 0.37 6.041 0.37 2.917 0 6.092-0.123 9.377-0.123 3.581 0 7.235-0.042 10.941-0.042 1.379 0 2.756 0.013 4.147 0.021 4.811 0.088 9.107 0.615 12.985 0.615h0.372l1.23-0.006c3.359 0 6.731 0.089 10.227 0.493 1.562 0.123 3.261 0.245 5.033 0.245 2.571 0 5.341-0.088 8.209-0.088h0.245c1.281 0 2.583-0.006 3.9-0.006 3.15 0 6.399 0.031 9.759 0.245h-0.008c4.7 0.37 8.995 0.861 13.014 0.861h0.115c5.39-0.018 10.965-0.245 16.662-0.245 4.172 0 8.406 0.089 12.654 0.493 4.011 0.37 7.507 0.985 10.521 1.242h-0.008c3.088 0.245 6.769 0.123 11.174 0.985 0.123 0.021 0.245 0.039 0.37 0.043l-2.437-5.525 4.503 5.87c2.165 0.37 4.479 0.615 7.026 1.108l0.004 0.008c-0.004 0-0.004-0.008-0.004-0.008 4.073 0.861 6.632 2.191 8.393 2.547 1.415 0.37 3.396 0.493 5.832 0.615 2.425 0.245 5.354 0.493 8.516 1.711l0.008 0.004c1.502 0.615 2.855 1.108 3.199 1.108h0.006c1.514 0.245 3.631 0.245 6.251 0.738 3.828 0.615 7.666 1.108 11.174 1.108 1.624 0 3.174-0.089 4.614-0.37l0.042-0.008 0.245-0.042 0.738-0.245c0.615-0.123 1.439-0.493 2.362-0.738 1.87-0.493 4.061-1.23 6.853-1.23 1.809 0.008 4.184 0.245 6.461 1.994v0c2.141 1.687 2.695 3.347 3.138 4.479 0.37 1.108 0.615 2.055 0.615 2.499l0.008 0.026c0-0.006-0.008-0.018-0.008-0.026 0.493 2.338 0.493 3.888 0.738 4.578l0.043 0.123 0.245 0.615c0.245 0.615 0.615 1.365 0.861 2.535v0.013c0.245 0.861 0.37 1.797 0.37 2.905 0.008 1.329-0.245 2.929-0.985 4.431zM266.596 409.857c0.493-1.711 0.985-3.187 1.293-4.172l-0.004 0.008c0.245-0.861 0.615-2.362 1.341-4.049 0.738-1.661 1.785-3.766 4.16-5.551l0.026-0.018c2.141-1.502 3.999-1.92 5.402-2.302 1.403-0.37 2.449-0.615 2.72-0.738 3.47-1.329 7.273-2.35 11.407-2.362 3.347-0.008 6.904 0.738 10.227 2.499 4.061 2.203 8.209 5.291 10.89 10.078 1.391 2.61 1.994 5.426 2.006 8.233-0.021 4.59-1.649 9.624-6.079 13.084h-0.008c-2.571 1.956-5.279 3.237-7.74 4.27h-0.004c-1.562 0.615-3.482 1.305-5.611 1.305-0.493 0.493-0.985 1.108-1.612 1.562-1.809 1.391-4.246 2.141-6.19 2.093-1.636-0.008-2.867-0.37-3.679-0.615l-0.030-0.013c-2.387-0.861-3.556-1.687-3.828-1.735-1.391-0.615-3.335-1.23-5.488-2.117-2.129-0.985-4.602-2.165-6.781-4.566-1.439-1.575-2.61-3.729-3.088-6.092v0c-0.245-0.985-0.245-1.932-0.245-2.819 0.013-2.338 0.493-4.306 0.985-6.029zM334.043 408.829c0.493-1.108 0.985-1.883 1.281-2.461l0.008-0.004c-0.008 0-0.008 0.004-0.008 0.004 1.255-2.252 3.028-4.405 5.316-5.858 2.289-1.464 4.64-2.141 7.026-2.682 2.756-0.615 6.435-1.23 10.35-1.23 1.92 0 3.9 0.123 5.907 0.615s4.097 1.108 6.092 2.571c5.537 3.938 8.269 10.153 8.221 16.020-0.004 5.008-1.785 9.905-5.119 13.869-1.391 1.661-3.174 3.040-5.119 3.876-1.944 0.861-3.95 1.108-5.734 1.108-1.994 0-3.753-0.245-5.402-0.615h-0.013c-0.245-0.088-0.861-0.123-1.49-0.245-0.615-0.123-1.464-0.37-2.658-0.985-0.615-0.37-1.624-0.985-2.583-2.177-0.123-0.039-0.245-0.043-0.37-0.089-2.965-0.985-6.387-2.658-9.316-5.623-0.615-0.615-1.612-1.514-2.708-2.61-1.108-1.108-2.302-2.338-3.384-4.196l-0.004-0.018c-0.861-1.464-1.293-3.237-1.281-4.787 0.004-1.846 0.493-3.311 0.985-4.393zM966.936 557.666c-1.108-3.199-2.362-6.498-2.511-9.795-0.123-2.819 2.215-5.87 1.759-8.528-1.365-7.961-3.568-15.768-5.439-23.633-0.493 0.088-1.108 0.245-1.612 0.245-0.123 1.562-0.245 3.126-0.493 4.676-1.661-2.571-2.941-5.316-2.819-7.987 0.37-7.396 1.391-14.768 2.043-22.156 0.985-11.813 2.72-23.421-1.452-35.294-4.664-13.258-8.454-26.898-9.143-41.141-0.245-5.291-1.108-10.571-1.858-15.827-0.615-4.109-1.341-8.221-2.252-12.282-0.615-2.473-1.673-4.811-2.4-7.26-1.108-3.729-2.276-7.469-3.126-11.272-0.245-1.305 0.985-3.199 0.37-4.135-5.255-8.504-6.313-18.324-9.107-27.593-0.37-1.353-0.861-2.879-1.711-3.913-3.938-4.59-8.122-8.983-12.073-13.579-0.738-0.861-0.861-2.338-1.6-4.664-6.363-7.248-14.143-15.020-20.625-23.737-8.958-12.047-16.895-24.845-25.379-37.244-1.427-2.093-3.335-3.864-5.020-5.796-3.815-4.381-7.63-8.761-11.604-13.327 1.108-0.493 1.711-0.738 2.228-0.985-8.418-11.445-16.835-22.86-25.348-34.433-0.493 1.452-0.861 2.583-1.23 3.717-0.37 0.088-0.738 0.123-1.23 0.245-1.932-4.602-4.282-9.069-5.673-13.824-1.23-4.025-3.138-6.572-7.089-8.146-2.622-1.108-4.909-3.003-7.149-4.811-2.043-1.661-3.593-3.938-5.734-5.439-5.981-4.221-11.875-8.713-18.316-12.109-9.155-4.823-16.179-11.9-23.138-19.162-3.802-3.975-7.507-8.072-11.445-11.924-1.317-1.293-3.076-2.535-4.823-2.929-12.183-2.732-24.414-5.169-36.61-7.827-2.006-0.493-4.123-1.108-5.772-2.314-6.079-4.294-11.813-9.107-18.011-13.237-7.273-4.823-14.852-9.205-22.383-13.639-3.778-2.228-7.519-5.106-11.666-6.029-11.863-2.658-23.919-4.515-35.915-6.608-1.242-0.245-2.583 0.043-3.876 0.245-4.234 0.493-8.675 2.141-12.646 1.379-12.085-2.289-23.135 1.575-34.249 4.676-5.772 1.612-10.436 0.123-15.182-2.302-0.615-0.245-0.37-2.153-0.738-4.566-9.278-1.944-19.601-4.712-30.107-6.092-6.238-0.861-12.775 0.615-19.192 0.861-2.732 0.123-5.575 0.37-8.196-0.245-4.799-1.108-9.463-3.9-14.187-3.926-8.295-0.045-16.601 1.785-24.927 2.129-3.729 0.123-4.381 3.802-6.978 4.443-4.873 1.23-9.919 1.785-14.899 2.622-0.013-0.123-0.026-0.37-0.043-0.493 1.255-0.615 2.511-1.267 4.64-2.326-9.574-1.858-11.543-1.23-16.983 4.627-0.861 0.985-1.747 2.228-2.867 2.559-6.041 1.846-10.066 6.829-15.506 9.586-1.858 0.985-3.593 2.191-5.303 3.384-3.703 2.583-7.026 6.153-11.124 7.654-12.873 4.739-26.043 8.675-39.080 12.975-2.646 0.861-5.243 1.87-7.851 2.807 0.123 0.493 0.245 0.861 0.37 1.379l7.235-1.391c0.245 0.493 0.37 0.861 0.615 1.305-2.4 1.255-4.676 3.040-7.223 3.643-3.753 0.861-7.728 6.251-11.592 0.031-0.123-0.245-1.267-0.088-1.846 0.088-11.248 3.631-22.786 6.644-32.325 14.108-4.921 3.852-9.18 9.316-14.75 11.419-7.089 2.67-12.073 7.161-17.087 12.145-0.861 0.861-2.018 1.514-3.028 2.276-5.747 4.381-11.753 8.454-17.121 13.241-3.323 2.953-5.685 6.978-8.627 10.718-2.165-2.559-2.807-3.311-4.294-5.082-3.335 3.766-6.226 7.26-9.34 10.535-8.725 9.143-16.604 19.115-27.288 26.295-1.944 1.305-3.335 3.482-4.811 5.39-4.725 6.166-9.23 12.491-14.061 18.569-10.705 13.484-21.584 26.816-28.639 42.721-1.108 2.449-3.052 4.529-4.676 6.755-0.245 0.245-0.738 0.493-1.514 0.861 0.245-1.452 0.493-2.511 0.738-3.581-2.682 1.759-5.094 3.815-5.895 6.363-3.126 9.931-5.76 20.004-8.528 30.045-1.785 6.474-2.682 13.311-5.366 19.375-5.747 13.002-12.282 25.679-18.802 38.333-1.329 2.583-4.739 4.172-5.87 6.781-2.449 5.673-4.59 11.604-5.858 17.63-2.362 11.248-3.888 22.653-6.005 33.943-0.615 3.126-2.61 6.017-2.977 9.143-2.093 17.747-0.861 35.868-6.841 53.19-4.037 11.666-2.191 24.119 0.021 35.406 3.655 18.612 3.888 37.118 4.258 55.807 0.088 4.529 1.858 9.131 3.384 13.509 2.843 8.17 6.092 16.21 9.119 24.325 0.245 0.738 0.493 1.575 0.245 2.24-0.985 3.446-1.821 7.161 1.562 9.451 6.399 4.332 8.393 10.325 8.183 17.526-0.026 1.108 0.37 2.228 0.615 3.335 3.225 19.089 11.087 36.508 20.104 53.415 5.698 10.669 12.408 20.811 18.571 31.24 2.867 4.861 5.575 9.821 8.281 14.781 2.78 5.106 4.59 11.025 8.355 15.253 7.199 8.085 15.095 15.689 23.446 22.614 9.475 7.863 20.188 13.949 27.36 24.716 5.008 7.519 13.163 12.912 19.032 19.961 9.316 11.186 17.79 23.060 26.894 34.431 1.636 2.031 4.479 4.037 6.94 4.306 7.74 0.861 15.572 1.108 23.365 1.108 165.464-0.615 330.929-1.353 496.394-2.067 3.581-0.018 7.175 0.006 10.718-0.37 1.452-0.123 3.323-0.861 4.135-1.908 7.642-10.213 15.073-20.583 22.635-30.849 1.108-1.514 2.473-2.953 3.999-4.049 5.599-4.025 11.321-7.889 16.995-11.813 0.985-0.738 1.981-1.809 3.126-2.093 13.515-3.311 24.579-9.389 29.393-23.516 1.649-4.861 3.975-9.537 6.387-14.105 3.458-6.559 6.769-13.279 11.063-19.28 7.901-11.051 16.498-21.594 24.702-32.419 1.341-1.771 2.4-3.84 3.199-5.919 9.34-24.575 18.645-49.129 31.015-72.488 3.323-6.277 5.157-14.409 4.542-21.419-1.305-15.039 0.123-29.186 6.841-42.752 0.985-1.883 1.575-3.888 2.374-5.82 3.396-8.134 6.301-16.518 10.41-24.271 1.994-3.753 3.703-6.805 2.276-11.025z"></path>
    <path fill="#000000" d="M258.277 890.644c4.049 3.703 7.973 7.507 12.145 11.099 1.391 1.23 3.261 2.362 5.119 2.72 12.937 2.535 25.935 4.823 38.892 7.286 2.129 0.493 4.381 1.108 6.128 2.153 6.461 4.011 12.537 8.478 19.117 12.315 7.728 4.491 15.776 8.564 23.778 12.691 4.011 2.067 7.987 4.751 12.384 5.611 12.603 2.485 25.414 4.208 38.146 6.153 1.317 0.245 2.756-0.042 4.109-0.123 4.491-0.493 9.205-1.994 13.436-1.293 12.824 2.141 24.565-1.464 36.375-4.344 6.128-1.514 11.075-0.123 16.12 2.153 0.615 0.245 0.493 1.994 0.861 4.246 9.857 1.809 20.816 4.381 31.978 5.661 6.632 0.738 13.571-0.615 20.382-0.861 2.905-0.123 5.931-0.37 8.713 0.245 5.094 0.985 10.042 3.619 15.069 3.643 8.812 0.042 17.63-1.661 26.472-1.981 3.963-0.123 4.652-3.52 7.408-4.135 5.181-1.108 10.547-1.661 15.825-2.437 0.021 0.123 0.035 0.245 0.042 0.493-1.341 0.615-2.67 1.23-4.935 2.153 10.177 1.735 12.27 1.108 18.042-4.306 0.985-0.861 1.858-2.067 3.052-2.374 6.423-1.723 10.693-6.363 16.461-8.922 1.981-0.861 3.802-2.031 5.635-3.138 3.938-2.4 7.457-5.722 11.813-7.125 13.674-4.405 27.654-8.085 41.515-12.073 2.793-0.861 5.551-1.735 8.331-2.622-0.123-0.493-0.245-0.861-0.37-1.281-2.571 0.493-5.119 0.861-7.679 1.293-0.245-0.37-0.493-0.861-0.615-1.23 2.535-1.23 4.96-2.831 7.679-3.396 3.975-0.861 8.209-5.82 12.306-0.026 0.123 0.245 1.341 0.089 1.968-0.088 11.949-3.384 24.199-6.19 34.331-13.133 5.229-3.581 9.746-8.663 15.659-10.619 4.344-1.427 7.913-3.458 11.186-5.784h-540.658c4.921 3.494 9.427 7.408 13.836 11.445z"></path>
    </svg>