<svg xmlns="http://www.w3.org/2000/svg" viewBox="62.837 63.956 905.325 896.086">
    <path fill="#000000" d="M586.372 822.915c-2.854 0.123-5.759-3.15-8.835-3.717-1.956-0.37-3.421 0.043-5.401-0.861-5.452-2.535-7.198-6.115-13.717-6.276-3.47-0.088-7.53-0.492-10.927 0.123-2.387 0.492-3.827 1.575-6.386 1.699-1.477 0.089-3.088-0.245-4.553-0.123-3.926 0.492-6.768 1.908-10.939 1.869-3.568-0.039-7.482 0.492-10.939-0.123-3.741-0.738-7.136-3.003-10.939-3.532-3.445-0.492-7.444 0.042-10.939 0.088-4.147 0.018-6.939 1.108-9.178-2.633-1.353-2.289-1.526-6.694-3.667-8.133-3.913-2.633-8.7 4.085-10.841 6.251-3.974 4.073-6.965 6.435-12.809 6.362-5.279-0.088-4.639-1.451-4.529-6.362 0.089-4.332-0.245-4.935-2.708-8.071-0.985-1.23-4.233-4.233-4.356-5.598-0.123-1.857 1.477-1.365 1.439-2.756-0.088-3.888-1.6-6.867-2.597-10.704-1.981-7.604 2.412-13.558 4.171-20.794 0.738-3.199 1.451-4.529 2.72-7.42 1.932-4.442 1.365-9.584 1.317-14.288-0.018-2.251-0.738-5.795 0.089-7.838 0.738-1.735 2.042-1.49 3.58-2.78 4.085-3.482 3.507-9.512 4.959-14.243 1.451-4.725 2.4-8.085 2.326-13.022-0.088-5.918 0.492-9.414 2.879-14.703 2.917-6.362 6.398-9.56 6.251-16.833-0.088-5.144 0.738-10.656 0.027-15.731-0.615-4.491-3.986-6.632-5.242-10.766-1.23-3.888-0.245-8.981-0.245-12.953 0-5.783 0.492-10.829-1.293-16.205-1.797-5.353-4.011-9.832-4.221-15.433-0.245-6.521-0.861-14.106 0.37-20.579 1.23-6.165 3.753-12.243 4.738-18.434 0.985-6.521 0.245-13.3 0.37-19.894 0.035-2.818 0.492-5.747-0.245-8.515-0.861-3.347-3.114-5.93-4.195-9.142-4.073-11.922-0.123-27.259-0.861-39.831-0.615-9.13-4.959-20.27-0.088-28.405 2.129-3.556 1.785-5.598 1.809-9.93 0.012-2.203 0.492-4.75-0.245-6.879-0.492-1.305-2.387-2.289-2.989-3.58-3.433-7.297-0.245-10.877-0.37-18.083-0.026-3.088-0.615-6.829 0.123-9.781 0.615-2.302 2.965-4.27 3.986-6.386 2.227-4.627 0.985-5.635 6.792-5.524 3.015 0.042 6.041 0.012 9.068 0 8.539-0.043 17.124 3.421 25.557 1.391 6.657-1.6 14.245-6.755 19.704-10.877 3.224-2.448 6.965-6.583 9.277-9.709 2.387-3.224 1.735-4.332 6.571-4.356 3.703-0.018 6.435 1.673 10.053 1.883 2.879 0.123 6.965-1.329 8.835 1.648 1.49 2.362-0.245 6.607 0.123 9.166 0.492 3.051 1.845 8.268 3.236 10.939 1.747 3.347 2.374 2.854 2.326 7.148-0.088 4.75-1.883 14.754 0.089 18.831 0.985 2.006 3.888 2.326 5.082 4.601 0.738 1.415 0.861 3.998 1.267 5.598 0.985 4.221 1.108 10.569-0.861 14.497-4.183 8.195-8.65-10.372-9.217-12.74-0.985-4.011-1.477-12.341-4.971-15.075-2.165-1.699-4.849-2.326-6.091 0.492-0.861 2.018 0.123 7.641 0.492 9.844 1.108 6.41 0.492 12.904 1.785 19.221 1.108 5.537 2.744 10.115 5.5 14.75 3.95 6.571 5.007 13.985 5.144 21.565 0.123 7.124 0.245 13.147 2.117 20.113 2.054 7.998 6.804 14.724 7.063 23.158 0.245 8.294 0.738 17.528-0.492 25.683-1.341 8.798-4.024 17.371-5.649 26.114-1.439 7.751-0.615 14.707-1.23 22.528-0.615 8.527-3.851 16.751-5.229 25.151-4.073 24.764 6.595 52.289 13.748 75.537 5.968 19.334 9.032 38.386 6.903 58.474-0.492 5.058-1.108 10.089-0.985 15.181 0.008 0.492 0.042 0.985 0.088 1.49 1.108 3.654 2.905 6.915 4.048 10.581 3.335 10.656 8.392 27.125 2.854 37.717zM515.587 382.284v0.615c0.031-0.123 0-0.37-0.008-0.615-0.123 0.37-0.37 0.738-0.738 0.985-1.254 0.861-2.129 0.245-3.63 0.492-0.861 0.123-0.615 0.492-1.267 0.615-2.276 0.492-4.897 1.305-7.395 0.861-0.615-0.086-2.756-0.615-3.224-0.738-0.738-0.245-0.738-0.123-1.379-0.492-2.066-1.305-0.088-2.448 0.37-3.691 0.492-1.23-0.089-2.989-0.043-4.245 0.027-1.66-0.615-3.311-0.985-4.921-0.37-1.403-0.985-2.756-1.391-4.183-0.738-3.003-2.645-6.238-3.851-9.118-1.562-3.667 0.492-7.703 0.861-11.319 0.615-5.303 4.207-9.918 4.319-15.418 0.027-1.687-1.108-2.535-1.108-4.221 0.026-1.108 0.026-2.338 0-3.507-0.043-2.326 0.738-4.613 3.532-6.139 2.891-1.624 6.829-0.985 9.745 0.245 1.451 0.615 3.494 1.857 4.392 2.83 0.861 0.985 1.23 2.559 1.6 3.717 0.985 2.768-0.615 4.971-4.123 6.312-3.679 1.451-1.28 3.777-2.387 6.139-0.492 0.985-2.289 2.093-2.768 3.126-0.492 1.108-0.245 2.239-0.245 3.347 0 0.615-0.123 1.463-0.026 2.129 0.123 0.615 0.738 1.108 0.861 1.55 0.245 0.615-0.035 1.353 0.123 1.994 0.245 0.615 0.861 0.615 0.985 1.108 0.985 2.523 1.711 4.909 3.359 7.285 0.861 1.293 1.427 2.891 1.932 4.245 0.492 1.254 1.108 2.597 1.365 3.864 0.123 0.738-0.37 1.723-0.089 2.499 0.245 0.615 0.985 0.738 1.23 1.341 0.492 1.28-0.042 3.186-0.042 4.515v7.063c0.123 0.615 0.123 1.23 0 1.699zM466.391 284.833c4.036-8.268 6.473-12.009 15.032-16.821 8.835-4.947 15.739-13.881 18.309-22.407 0.985-3.285 0.738-5.747 2.35-9.13 1.502-3.174 3.311-5.783 4.207-9.142 1.526-5.759 2.485-10.384 2.46-16.421-0.043-9.217-0.123-16.195-5.452-24.112-2.448-3.654-5.389-6.903-7.751-10.644-1.23-1.869-2.732-5.425-4.589-7.801 2.263 1.562 5.118 2.597 7.285 4.38 3.986 3.26 8.121 6.386 11.615 10.188 7.665 8.354 13.991 15.818 17.037 26.136 1.379 4.688 2.965 9.56 4.332 14.427 1.317 4.7 1.648 8.503 1.711 13.521 0.088 5.303-3.729 10.213-2.302 15.558 0.738 2.953 3.9 6.853 5.622 9.56 4.392 6.951 8.662 14.255 9.978 22.215 0.738 4.664-0.492 9.769-0.123 14.49 0.245 5.007 2.227 9.191 2.251 14.482 0.042 8.772-4.43 16.778-9.954 24.173-1.353 1.821-1.636 2.523-3.186 3.888-0.738 0.738-3.729 2.682-4.897 3.383-4.738 2.891-11.713 2.362-12.766 8.157 0.738-2.448-1.66-4.455-2.276-6.682-0.738-2.583 0.089-6.079 0.089-8.76-0.021-2.905-0.042-5.204 1.108-7.751 0.861-1.883 2.929-3.729 3.433-5.673 1.108-4.356 0.615-12.848-0.615-17.063-0.37-1.23-2.917-6.41-3.801-7.112-2.251-1.845-5.831-0.985-8.981-0.985-16.711-0.039-13.239 15.006-15.823 24.321-0.492 1.648-1.439 3.248-1.932 4.909-0.985 3.335-1.415 6.78-1.588 10.213-0.245 5.918 0.245 11.85 1.305 17.706l-1.575-1.797c-5.512-5.918-10.619-12.558-15.021-19.121-1.108-1.588-1.711-3.568-2.633-5.216-1.108-1.956-2.989-3.888-4.024-5.894-2.239-4.319-2.669-8.835-2.633-13.521 0.089-9.339-0.123-17.34 3.864-25.598zM966.747 557.423c-1.108-3.199-2.362-6.497-2.511-9.781-0.123-2.818 2.215-5.87 1.759-8.527-1.379-7.948-3.568-15.762-5.452-23.626-0.492 0.089-1.108 0.245-1.612 0.245-0.123 1.562-0.245 3.114-0.492 4.676-1.66-2.571-2.941-5.315-2.818-7.973 0.37-7.395 1.391-14.772 2.042-22.159 1.108-11.812 2.732-23.419-1.439-35.29-4.664-13.251-8.453-26.895-9.142-41.138-0.245-5.291-1.108-10.569-1.857-15.827-0.615-4.109-1.329-8.22-2.251-12.268-0.615-2.473-1.66-4.81-2.4-7.259-1.108-3.729-2.276-7.469-3.114-11.271-0.245-1.305 0.985-3.199 0.37-4.135-5.267-8.503-6.324-18.322-9.106-27.59-0.37-1.353-0.861-2.879-1.711-3.913-3.938-4.589-8.121-8.981-12.071-13.578-0.738-0.861-0.861-2.35-1.588-4.664-6.374-7.259-14.143-15.018-20.618-23.738-8.957-12.047-16.907-24.838-25.38-37.239-1.427-2.093-3.335-3.864-5.019-5.783-3.827-4.38-7.629-8.76-11.603-13.327 1.108-0.492 1.711-0.738 2.227-0.985-8.429-11.444-16.834-22.857-25.347-34.431-0.492 1.451-0.861 2.583-1.242 3.717-0.37 0.088-0.738 0.123-1.23 0.245-1.932-4.601-4.282-9.068-5.673-13.822-1.23-4.024-3.138-6.571-7.088-8.145-2.609-1.108-4.909-3.015-7.136-4.81-2.042-1.648-3.592-3.926-5.721-5.425-5.992-4.221-11.874-8.712-18.319-12.107-9.154-4.823-16.177-11.886-23.135-19.156-3.801-3.974-7.506-8.071-11.431-11.922-1.317-1.293-3.076-2.535-4.836-2.929-12.17-2.732-24.409-5.18-36.601-7.838-2.006-0.492-4.135-1.108-5.771-2.302-6.079-4.294-11.8-9.118-18.009-13.237-7.273-4.823-14.85-9.205-22.378-13.643-3.777-2.227-7.53-5.094-11.665-6.028-11.85-2.669-23.912-4.515-35.905-6.607-1.242-0.245-2.583 0.043-3.876 0.245-4.233 0.492-8.674 2.129-12.654 1.379-12.071-2.289-23.122 1.575-34.243 4.688-5.771 1.612-10.435 0.123-15.167-2.314-0.615-0.245-0.37-2.141-0.738-4.553-9.277-1.944-19.598-4.712-30.103-6.091-6.251-0.861-12.779 0.615-19.187 0.985-2.732 0.123-5.586 0.37-8.195-0.245-4.798-1.108-9.462-3.9-14.19-3.926-8.294-0.045-16.594 1.785-24.92 2.129-3.729 0.123-4.368 3.789-6.977 4.442-4.885 1.23-9.93 1.785-14.903 2.621-0.018-0.123-0.026-0.37-0.043-0.492 1.254-0.615 2.511-1.267 4.627-2.326-9.56-1.857-11.542-1.23-16.977 4.627-0.861 0.985-1.747 2.227-2.866 2.559-6.028 1.845-10.053 6.829-15.496 9.584-1.869 0.985-3.592 2.191-5.303 3.383-3.703 2.583-7.013 6.153-11.123 7.653-12.871 4.725-26.034 8.674-39.075 12.973-2.645 0.861-5.229 1.869-7.838 2.806 0.123 0.492 0.245 0.861 0.37 1.379l7.235-1.391c0.245 0.492 0.37 0.861 0.615 1.305-2.4 1.242-4.676 3.039-7.223 3.63-3.741 0.861-7.727 6.251-11.579 0.035-0.123-0.245-1.267-0.086-1.857 0.088-11.247 3.63-22.775 6.644-32.307 14.106-4.921 3.851-9.191 9.315-14.754 11.418-7.076 2.669-12.071 7.161-17.085 12.145-0.861 0.861-2.018 1.514-3.027 2.276-5.733 4.38-11.751 8.465-17.119 13.245-3.323 2.953-5.673 6.977-8.614 10.717-2.165-2.559-2.806-3.311-4.294-5.082-3.335 3.765-6.225 7.259-9.339 10.533-8.712 9.142-16.604 19.117-27.286 26.292-1.932 1.305-3.335 3.482-4.798 5.389-4.725 6.165-9.229 12.493-14.059 18.565-10.704 13.488-21.587 26.817-28.641 42.718-1.108 2.448-3.051 4.541-4.664 6.755-0.245 0.245-0.738 0.492-1.526 0.861 0.245-1.439 0.492-2.511 0.738-3.58-2.669 1.771-5.094 3.815-5.894 6.362-3.126 9.93-5.759 20.007-8.527 30.042-1.785 6.461-2.669 13.313-5.365 19.377-5.747 12.996-12.292 25.67-18.804 38.325-1.329 2.583-4.725 4.171-5.858 6.78-2.448 5.673-4.601 11.603-5.858 17.628-2.362 11.247-3.888 22.65-6.004 33.941-0.615 3.126-2.609 6.016-2.977 9.142-2.093 17.741-0.861 35.862-6.841 53.178-4.048 11.665-2.191 24.122 0.018 35.407 3.654 18.61 3.888 37.108 4.258 55.797 0.088 4.541 1.857 9.13 3.383 13.507 2.842 8.169 6.091 16.208 9.118 24.317 0.245 0.738 0.492 1.575 0.245 2.239-0.985 3.445-1.833 7.161 1.562 9.45 6.398 4.319 8.379 10.324 8.183 17.52-0.026 1.108 0.37 2.227 0.615 3.335 3.224 19.091 11.086 36.509 20.107 53.414 5.697 10.668 12.4 20.804 18.573 31.231 2.866 4.873 5.574 9.82 8.268 14.785 2.78 5.106 4.589 11.025 8.354 15.253 7.198 8.071 15.093 15.687 23.444 22.603 9.474 7.862 20.184 13.955 27.355 24.717 5.007 7.518 13.161 12.909 19.031 19.963 9.315 11.185 17.787 23.053 26.89 34.421 1.636 2.042 4.479 4.036 6.951 4.306 7.739 0.861 15.566 1.108 23.354 1.108 165.446-0.615 330.901-1.353 496.339-2.066 3.58-0.021 7.186 0.004 10.73-0.37 1.451-0.123 3.323-0.861 4.135-1.908 7.641-10.213 15.066-20.579 22.636-30.845 1.108-1.514 2.473-2.953 3.998-4.048 5.598-4.024 11.319-7.888 16.993-11.812 0.985-0.738 1.981-1.809 3.126-2.093 13.509-3.311 24.577-9.387 29.392-23.513 1.66-4.861 3.974-9.536 6.386-14.098 3.457-6.559 6.78-13.279 11.062-19.281 7.888-11.050 16.496-21.592 24.699-32.417 1.341-1.771 2.412-3.827 3.199-5.918 9.339-24.574 18.642-49.124 31.004-72.478 3.323-6.276 5.144-14.406 4.541-21.421-1.293-15.042 0.123-29.183 6.841-42.749 0.985-1.883 1.575-3.888 2.387-5.819 3.383-8.133 6.288-16.517 10.397-24.266 1.994-3.753 3.703-6.804 2.289-11.025z"></path>
    <path fill="#000000" d="M258.231 890.647c4.048 3.703 7.973 7.506 12.145 11.098 1.391 1.23 3.26 2.362 5.118 2.732 12.936 2.535 25.932 4.81 38.888 7.285 2.129 0.492 4.38 1.108 6.127 2.141 6.461 4.011 12.537 8.491 19.117 12.319 7.727 4.491 15.774 8.563 23.774 12.689 4.011 2.066 7.986 4.75 12.384 5.61 12.601 2.485 25.411 4.207 38.143 6.153 1.317 0.245 2.756-0.042 4.109-0.123 4.491-0.492 9.205-1.994 13.433-1.293 12.824 2.141 24.564-1.463 36.372-4.344 6.127-1.514 11.074-0.123 16.117 2.141 0.615 0.245 0.492 2.006 0.861 4.245 9.856 1.809 20.814 4.38 31.974 5.661 6.632 0.738 13.57-0.615 20.379-0.861 2.905-0.123 5.93-0.37 8.712 0.245 5.094 0.985 10.041 3.618 15.066 3.654 8.823 0.043 17.629-1.66 26.47-1.981 3.962-0.123 4.652-3.52 7.407-4.135 5.18-1.108 10.545-1.648 15.823-2.436 0.021 0.123 0.035 0.245 0.042 0.492-1.341 0.615-2.669 1.23-4.935 2.165 10.175 1.735 12.268 1.108 18.040-4.306 0.985-0.861 1.857-2.066 3.051-2.387 6.422-1.723 10.68-6.349 16.459-8.921 1.981-0.861 3.801-2.030 5.635-3.15 3.938-2.4 7.456-5.721 11.812-7.124 13.672-4.404 27.651-8.085 41.51-12.071 2.806-0.861 5.55-1.735 8.33-2.621-0.123-0.492-0.245-0.861-0.37-1.28-2.571 0.492-5.118 0.861-7.691 1.293-0.245-0.37-0.492-0.861-0.615-1.23 2.535-1.108 4.959-2.83 7.679-3.383 3.974-0.861 8.207-5.819 12.304-0.026 0.123 0.245 1.341 0.088 1.968-0.089 11.948-3.383 24.196-6.189 34.327-13.135 5.229-3.58 9.745-8.662 15.657-10.619 4.344-1.439 7.9-3.47 11.185-5.783h-540.598c4.921 3.494 9.426 7.407 13.834 11.444z"></path>
    </svg>