<svg xmlns="http://www.w3.org/2000/svg" viewBox="62.775 63.952 905.064 896.087">
    <path fill="#000000" d="M604.282 734.185c-0.492 3.038-0.245 7.061-1.23 11.834-0.737 3.395-1.513 5.671-1.66 7.736-0.245 3.199-0.37 6.876-0.985 10.775l-0.008 0.018c-0.737 3.997-2.19 6.839-2.681 8.906-0.861 3.283-1.352 7.109-2.361 11.267-0.985 3.788-2.46 6.679-3.703 9.3-1.316 2.743-2.411 5.745-3.605 8.967l0.008-0.013c-1.254 3.395-2.964 6.557-5.203 9.471-1.734 2.164-3.125 5.659-5.719 9.607v0.013c-3.826 5.536-9.079 12.005-17.267 14.853 0 0 0.008 0 0.008-0.008l-0.008 0.008c-3.211 1.107-7.049 2.498-11.305 3.161l-0.030 0.006c-1.107 0.123-2.128 0.123-3.050 0.123-1.403 0-2.596-0.089-3.48-0.089h-0.615c-2.104 0-4.023 0.123-6.31 0.37-2.472 0.245-4.907 0.37-7.258 0.37-3.665 0-7.184-0.123-10.419-0.123l-0.492 0.004h-0.245c-3.579-0.018-6.519-0.492-8.954-0.615l-1.107-0.018c-0.985 0-2.104 0.035-3.346 0.035-2.018 0-4.453-0.089-7.097-0.861-1.869-0.492-3.408-0.737-5.596-0.737l-1.493 0.012c-4.355-0.042-7.405-0.985-9.706-1.107l-0.861-0.021c-1.107-0.006-2.399 0.088-3.985 0.088-1.575 0-3.42-0.088-5.438-0.615h-0.004c-3.408-0.861-5.817-1.415-8.906-1.549-1.107-0.042-2.669-0.042-4.489-0.37-1.796-0.245-4.011-0.861-6.040-2.349l-0.021-0.012c-2.865-2.079-4.662-4.22-6.151-5.438-0.492-0.492-1.34-0.985-2.558-1.673-1.23-0.737-2.829-1.746-4.391-3.395-2.779-3.014-4.638-6.433-6.113-9.386v-0.008c-1.845-3.764-4.047-7.651-5.757-12.428-1.784-4.994-3.641-10.185-4.501-16.16-0.123-1.857-1.403-4.662-1.561-8.918-0.018-0.861-0.021-1.809-0.021-2.707 0-2.779 0.042-5.474 0.042-8.082 0-2.116-0.123-4.539-0.123-7.16 0-1.6 0.042-3.271 0.245-5.019v0.006c0.615-4.588 1.352-8.536 1.477-12.201 0.123-3.764 0.492-7.467 1.107-11.12v-0.008c0.615-4.133 1.648-7.724 2.042-10.837 0.123-0.985 0.123-2.030 0.123-3.149 0.008-2.583-0.245-5.51-0.615-8.659-0.089-0.861-0.089-1.771-0.089-2.632 0-3.689 0.615-7.122 1.513-10.505v0c0.985-3.665 2.239-6.704 2.904-9.36 0.985-3.937 1.931-8.044 3.074-12.252v0.008c0.861-3.125 1.427-6.728 2.817-10.813v0.013c1.328-3.764 2.005-8.733 4.158-14.021v0c1.6-3.838 3.715-6.901 5.438-9.655v0.009c1.537-2.423 3.074-4.994 5.387-7.664 3.874-4.477 7.085-10.246 9.509-16.035 1.784-4.268 3.519-8.697 5.51-13.166 0.861-2.042 1.845-3.886 2.657-5.635 0.37-0.861 0.737-2.164 0.985-3.85 0.245-1.673 0.492-3.689 1.107-5.942 0.492-1.845 0.615-4.441 1.365-7.664v0c0.861-3.555 1.673-5.929 1.919-8.241v0.006c0.37-3.408 1.107-6.139 1.624-8.709 0.37-1.698 0.245-4.429 0.985-8.044 0.861-4.182 2.202-9.091 4.859-13.456 1.673-2.707 4.023-4.686 6.507-6.040 2.51-1.352 5.166-2.116 7.811-2.411v0c1.23-0.123 2.472-0.245 3.776-0.245 2.534 0 5.277 0.37 8.008 1.391v0c1.771 0.615 3.322 1.71 4.489 2.878 0.861 0.861 1.427 1.673 1.955 2.51 0.492 0.492 0.737 1.107 1.107 1.636 1.107 1.857 1.734 3.605 2.164 4.859 0.737 2.018 0.985 4.095 0.985 6.101-0.006 4.17-1.254 8.082-3.211 11.44l-0.008 0.008c0 0 0.008 0 0.008-0.008-1.943 3.259-4.095 5.044-5.265 6.507-0.245 0.37-0.615 0.985-0.985 1.883-0.37 0.985-0.861 2.251-1.575 3.801v0.009c-1.107 2.373-2.485 4.256-3.555 5.904-1.107 1.636-1.895 3.014-2.275 4.083-0.245 0.737-0.492 2.522-1.796 5.068v0.004c-0.492 0.985-1.107 2.423-2.005 4.071l0.006-0.004c-1.451 2.731-2.928 5.548-4.638 8.438-1.107 1.746-2.226 4.355-2.916 6.408-1.537 4.403-3.37 7.724-4.109 10.616l-0.008 0.008c-0.615 2.373-1.636 4.785-3.185 6.913-0.492 0.737-0.861 1.23-0.985 1.477l-0.245 0.492c-0.123 0.492-0.245 1.254-0.615 2.325-0.245 1.107-0.861 2.448-1.771 3.74l-0.006 0.008c-0.492 0.615-0.737 1.23-0.985 2.005-0.245 0.861-0.492 1.931-0.737 3.408l-0.008 0.012c-0.37 1.784-0.985 3.247-1.624 4.379-0.615 1.107-1.107 1.931-1.501 2.583-0.737 1.23-1.316 3.567-2.767 6.667v0c-1.513 3.026-2.891 5.13-3.382 6.754l-0.013 0.026c-0.123 0.492-0.37 1.378-0.737 2.731v0c-0.985 3.519-2.485 5.608-2.928 6.975-0.737 1.931-1.254 4.194-1.758 6.741v0.006c-0.737 3.591-1.673 6.655-2.14 9.348-0.615 3.567-1.23 7.023-1.513 10.333-0.37 3.886-0.985 6.629-0.985 9.065v0.006c0 3.591-0.615 6.852-1.403 9.951v-0.006c-0.615 2.522-0.615 5.277-0.737 9.091v-0.008c-0.123 3.555-0.861 6.002-1.107 7.811v0.013l-0.043 0.861c-0.004 0.737 0.043 1.636 0.089 2.829v0.5c0 3.050-0.245 5.856-0.492 8.438l-0.008 0.013c-0.245 3.42-0.615 6.605-0.737 9.509l-0.012 0.615c-0.018 2.608 0.615 5.584 0.985 9.373v0.006c0.245 2.325 0.37 3.334 0.861 4.945 0.861 2.46 2.116 4.76 3.689 7.467 3.002 5.203 5.647 10.185 8.844 14.072l0.008 0.008c1.821 2.275 4.489 4.772 6.814 8.476l0.006 0.008c1.734 2.681 2.546 3.531 5.068 5.142v0.004c2.608 1.648 4.095 3.199 5.117 3.801l0.018 0.013c0.089 0.088 0.245 0.123 0.861 0.245s1.537 0.245 2.805 0.492l-0.039-0.006c2.534 0.37 4.981 0.615 7.54 0.615h0.013c0.985 0.012 1.746 0.088 2.301 0.088l0.737-0.042 0.042-0.019 0.492-0.245c0.492-0.245 1.365-0.737 2.644-1.23h0.008c4.023-1.378 7.22-1.28 8.894-1.784l-0.021 0.006c2.805-0.737 6.014-1.463 9.643-1.537 3.432-0.043 6.101 0.030 8.476-0.37h0.027c3.617-0.615 7.085-1.365 10.479-2.448 6.766-2.116 12.749-3.579 17.21-6.593 4.994-3.346 8.253-6.679 10.357-11.526 2.030-4.76 3.31-9.373 3.605-14.232 0.042-0.985 0.088-1.955 0.088-3.026 0-1.107-0.026-2.349-0.026-3.641 0.008-1.809 0.042-3.764 0.245-5.844 0.245-2.042 0.245-4.194 0.245-6.408 0-1.107-0.021-2.239-0.043-3.37v-0.035c-0.021-2.498-0.861-5.733-1.107-9.939v-0.019c-0.043-2.042-0.615-4.429-1.23-7.664v-0.006c-0.37-2.239-0.492-4.33-0.492-6.261 0-1.722 0.043-3.31 0.043-4.76v0.006c0.004-1.415 0.004-2.829 0.004-4.244 0-2.841-0.004-5.671-0.004-8.512 0.004-1.501 0.088-2.767 0.088-3.788 0-0.737-0.042-1.403-0.123-1.821-0.985-5.104-2.522-10.493-3.924-16.065-0.861-3.432-1.575-6.569-2.583-9.434v-0.013c-1.561-4.527-3.752-9.163-5.683-14.35-2.018-5.438-4.403-10.652-7.282-15.575l-0.006-0.008c-1.66-2.878-3.074-5.548-4.588-7.724v0.006c-2.116-3.050-4.477-6.274-6.446-10.222-2.46-5.019-6.42-10.061-9.288-16.88v0.008c-0.985-2.546-2.177-5.203-3.173-8.118-0.123-0.615-0.737-1.734-1.352-3.149-0.615-1.427-1.352-3.185-1.561-5.548l-0.004-0.043c-0.043-0.985-0.089-1.549-0.089-1.833l-0.088-0.492-0.008-0.012c-0.737-1.981-2.030-4.318-3.173-7.232-0.985-2.522-1.107-4.859-1.107-6.913 0.008-2.62 0.245-4.933 0.245-6.36v-0.334c0.012-4.921 1.107-10.309 4.576-14.937 2.164-2.755 5.154-4.403 8.967-4.501l1.365 0.089c2.14 0.245 3.715 1.34 4.748 2.289 0.985 0.985 1.71 1.919 2.251 2.793 1.107 1.722 1.71 3.334 2.018 3.912l-0.021-0.043c0.737 1.378 1.722 3.334 2.116 5.954l-0.008-0.027c0.123 1.242 0.737 2.743 1.23 5.032v-0.006c0.985 4.232 1.71 7.085 3.42 10.061 2.018 3.519 3.973 6.852 6.113 10.172 4.626 7.196 7.909 14.651 11.132 21.861 1.107 2.608 3.074 5.757 4.367 9.828v-0.008c0.861 2.731 1.378 3.677 3.087 5.844l0.008 0.012c2.005 2.498 3.149 4.921 4.207 6.987 0.861 1.809 1.378 3.334 1.821 4.441l0.013 0.026c0.861 2.116 1.869 4.318 2.976 6.766l-0.008-0.021c3.788 8.279 8.844 16.555 12.761 25.927 3.74 8.992 7.245 17.987 9.103 28.185 0.737 4.133 1.796 8.548 2.349 13.387 0.37 3.42 0.37 6.629 0.37 9.643v0.615c0 0.861 0 1.575 0.012 2.349v0.255c-0.012 3.579-0.615 6.372-0.985 8.844zM450.945 282.551c2.092-4.417 5.486-7.527 8.279-9.903v0c1.316-1.107 2.669-1.698 3.543-2.042 0.615-0.245 0.861-0.37 1.107-0.492l0.985-0.737 0.615-0.492c0.861-0.492 1.722-0.861 2.669-1.23 0.985-0.245 1.895-0.615 3.579-0.737 0.615 0.013 1.451 0.043 2.546 0.492 1.107 0.37 2.534 1.403 3.334 2.952 0.492 0.985 0.737 2.079 0.737 2.928-0.012 0.492-0.123 0.861-0.123 1.304 0.37 1.107 0.492 2.361 0.492 3.395v0.148c-0.012 1.34-0.018 2.695-0.018 4.059 0 2.018 0.013 4.059 0.013 6.113v-0.018 0.37c0 2.337-0.089 4.711-0.492 7.258l-0.038 0.492c-0.021 0.615 0.245 1.771 0.492 3.838v0.018c0.089 0.737 0.043 1.352 0.089 1.734l0.026 0.37 0.088 0.245c0.123 0.492 0.492 1.427 0.492 2.841v0.245l-0.006 0.038c0 2.164-1.107 4.391-2.263 5.486-1.107 1.107-1.883 1.624-2.263 1.919-0.37 0.245-1.107 0.861-2.214 1.587-1.107 0.615-2.681 1.537-5.166 1.587-1.23 0.008-2.522-0.245-3.715-0.861v0c-1.993-1.107-2.928-2.239-3.788-3.283-0.861-1.107-1.427-2.042-1.883-2.891l-0.012-0.026c-1.23-2.435-1.66-3.937-2.018-4.355-1.107-1.6-2.608-3.605-3.617-6.643v0c-0.37-1.107-0.985-2.472-1.489-4.17-0.492-1.698-1.107-3.728-1.107-6.125-0.008-1.746 0.245-3.703 1.23-5.572zM458.603 231.487v-0.026c0.492-2.952 1.254-5.19 1.477-6.839 0.088-0.492 0.088-1.107 0.123-2.164 0.089-0.985 0.245-2.46 0.737-4.011l-0.008 0.013c0.088-0.088 0.123-0.985 0.737-2.608l0.008-0.026c0.492-1.403 1.23-2.472 1.784-3.199 0.615-0.737 0.985-1.23 1.242-1.463l0.123-0.245 0.008-0.006c0.089-0.123 0.37-0.985 1.107-2.239 1.403-2.448 2.275-3.605 2.313-4.011 0.245-0.861 0.492-1.919 0.492-2.657v0.012c0.123-3.555 0.615-6.322 0.492-8.832 0-1.107-0.006-2.226-0.006-3.358 0-0.861 0.006-1.71 0.013-2.57v-0.065c0.088-1.107-0.492-3.087-0.615-6.335l0.008-0.245v0.006c0.088-4.515 0.492-8.992 1.107-13.422 0.492-3.283 0.615-7.147 1.883-11.501v-0.013c0.043-0.123 0.245-0.985 0.492-1.981 0.245-0.985 0.615-2.14 1.489-3.519 0.615-0.861 1.365-2.042 3.014-3.014 0.985-0.492 2.177-0.985 3.444-0.985h0.123c1.107-0.008 2.164 0.245 2.841 0.615 0.123 0.086 0.245 0.123 0.492 0.245l0.245 0.031 1.352 0.245c2.19 0.737 3.334 2.005 4.17 2.916 0.861 0.985 1.34 1.746 1.648 2.164l0.008 0.008c0.245 0.37 0.37 0.615 0.492 0.861l0.861 0.492c0.985 0.737 1.587 1.304 2.177 1.981 0.615 0.737 1.107 1.34 1.561 2.239 0 0 0-0.004-0.008-0.004l0.008 0.004c1.477 2.891 2.116 5.733 2.275 8.623 0.089 2.989 0.123 5.327 0.615 7.369v0.008c0.123 0.492 0.37 1.292 0.737 2.387 0.37 1.107 0.737 2.472 0.861 4.244l0.008 0.013 0.035 1.451c0 1.391-0.089 2.51-0.089 3.346v0.37l0.006 0.012c-0.042 0.861 0.492 2.695 0.615 5.757v0.113c0 0.615-0.008 1.328-0.008 2.005 0 1.34 0.008 2.707 0.008 4.083-0.008 0.861 0.123 2.411 0.123 4.256 0 1.107-0.042 2.46-0.492 3.949-0.492 1.845-0.985 2.976-0.985 3.531-0.123 0.37-0.089 1.784-0.861 4.083 0 0 0.004 0 0.004-0.006l-0.004 0.006c-1.378 3.579-3.924 5.831-5.757 7.245-0.985 0.737-1.857 1.391-2.51 1.919-0.043 0.123-0.089 0.245-0.123 0.37l-0.37 0.737-0.737 0.985-6.629 7.232v-0.009c-0.615 0.737-1.267 1.267-1.636 1.587l-0.37 0.37c-0.123 0.615-0.245 1.352-0.37 2.275v0.004l-0.013 0.492c-0.039 1.415 0.492 3.531 0.615 6.581v0.043l0.004 0.245c-0.018 0.861-0.088 1.391-0.088 1.771 0.042 0.088 0.042 0.245 0.088 0.245 0.123 0.37 0.245 0.737 0.37 1.107 0.088 0.37 0.088 0.737 0.088 1.23 0 0.245 0.089 0.492 0.043 0.615-0.018 0.123-0.089 0.245-0.123 0.37-0.089 0.37-0.245 0.737-0.37 1.107s-0.245 0.737-0.492 1.107c-0.088 0.123-0.088 0.245-0.123 0.37-0.123 0.123-0.37 0.245-0.492 0.492-0.245 0.245-0.615 0.615-0.861 0.737-0.245 0.245-0.615 0.37-0.985 0.492s-0.737 0.245-1.107 0.37c-0.37 0.086-0.737 0.086-1.23 0.086-0.245 0.009-0.37 0.088-0.615 0.045l-0.089 0.018-0.492-0.006c-0.861 0-2.301 0.039-3.862 0.039h-0.58l-0.37 0.021-1.316 0.043c-0.615-0.008-1.328-0.026-2.325-0.245-0.985-0.245-2.337-0.861-3.493-2.030l-0.026-0.026c-1.107-1.23-1.391-2.164-1.636-2.805-0.123-0.492-0.245-0.737-0.245-0.985l-0.37-0.492-0.245-0.492c-1.66-3.235-1.758-6.139-1.845-8.438-0.012-0.861-0.042-1.821-0.042-2.94 0-1.107 0.042-2.448 0.245-3.862zM504.738 224.308c1.537 0.021 2.952 0.088 4.613 0.492 0.615 0.123 1.23 0.245 2.214 0.861-0.008 0-0.008-0.008-0.013-0.008l0.026 0.021c0-0.008-0.008-0.008-0.012-0.013 1.489 0.861 2.46 2.164 3.002 3.113 0.615 0.985 0.861 1.686 0.985 2.066l0.006 0.013c0.861 2.164 1.955 4.847 2.399 8.070v0c0.492 4.17 0.615 8.193 0.615 12.129v-0.008c0 1.439 0.039 2.976 0.043 4.626-0.006 2.239-0.089 4.686-0.492 7.27v0.004c-0.089 0.492-0.123 1.23-0.123 2.263-0.035 1.107-0.042 2.522-0.492 4.244-0.035 0.123-0.088 0.615-0.088 1.549-0.013 0.861 0.035 2.214-0.245 3.85-0.245 1.328-0.492 2.632-0.861 3.937-0.245 1.304-0.492 2.46-0.861 3.297-0.123 0.37-0.245 0.737-0.37 0.985-0.043 0.123-0.089 0.245-0.123 0.492-0.043 0.088-0.089 0.245-0.123 0.37-0.042 0.123-0.088 0.245-0.123 0.37v-0.006c-0.737 2.042-1.746 3.715-2.731 5.032-0.985 1.328-1.919 2.337-2.657 3.235-0.985 1.23-2.251 2.707-4.121 4.109-1.833 1.391-4.551 2.657-7.676 2.644h-0.14c-2.104-0.012-4.158-0.737-5.695-1.758-1.537-0.985-2.62-2.263-3.432-3.468-1.612-2.399-2.337-4.736-2.865-6.458-1.107-3.665-1.352-7.343-1.365-10.751 0-0.985 0.035-2.054 0.089-3.038v0c0.123-3.297 0.861-5.929 0.985-7.909l0.006-0.021c0.123-1.501 0.245-3.382 0.737-5.659l-0.004 0.018c0.985-4.403 1.549-9.016 2.19-13.853v0.019c0.245-1.746 0.245-4.33 1.612-7.405l0.006-0.012c1.107-2.644 2.695-4.489 3.801-5.942 0.021 0.008 0.492-0.737 0.985-1.734 0.615-0.985 1.23-2.202 2.325-3.531 0.737-0.861 1.734-1.869 3.334-2.657v0c1.34-0.615 2.018-0.615 2.743-0.737 0.737-0.088 1.328-0.088 1.993-0.088zM524.505 279.945c2.989-0.37 5.781 1.525 6.495 4.429 0.123 0.492 0.123 0.861 0.123 1.378l0.008 0.043c0.004 0.123 0.042 0.245 0.042 0.492-0.004 0.123-0.026 0.123-0.031 0.245 0.031 0.038 0.089 0.086 0.123 0.123 0.861 0.985 1.415 1.821 1.869 2.46l0.492 0.615c0.123 0.123 0.492 0.492 1.107 1.107s1.415 1.463 2.152 2.817c0-0.004-0.006-0.004-0.006-0.012l0.013 0.021c-0.008 0-0.008-0.009-0.008-0.009 1.107 2.018 1.23 3.899 1.23 5.104-0.006 0.985-0.043 1.648-0.043 1.943v0.043c-0.042 0.861 0.615 2.964 0.615 6.125l-0.008 0.245v0.018c-0.042 1.883-0.492 3.444-0.861 4.823-0.492 1.378-0.985 2.583-1.34 3.519-0.985 2.251-1.525 4.736-2.373 7.897v0.004c-0.985 3.605-2.743 6.507-4.563 8.82s-3.665 4.121-5.241 5.942c-1.463 1.636-3.113 4.158-6.027 6.593v0c-2.251 1.796-3.997 2.695-4.797 3.432-0.615 0.615-1.451 1.451-2.435 2.57-0.985 1.107-2.202 2.485-3.874 3.801l-0.008 0.006c-2.030 1.587-3.826 2.817-5.241 4.035-2.275 1.955-4.835 3.886-7.861 5.363-3.002 1.489-6.519 2.51-10.357 2.51h-0.088c-1.809 0-3.579-0.37-5.13-0.985s-2.853-1.378-4.023-2.177l0.026 0.021c-0.861-0.615-2.289-1.304-4.083-2.546l-0.004-0.008c-2.976-2.164-4.22-5.032-4.945-7.441-0.737-2.46-0.861-4.748-0.985-6.569v0l-0.021-0.737c-0.013-1.883 0.37-3.764 0.985-5.351s1.439-2.865 2.226-4.035l0.006-0.013c0 0.008 0 0.008-0.006 0.013 2.14-3.161 4.613-4.933 6.396-6.458l-0.012 0.013c1.981-1.624 4.268-4.17 8.291-6.065h-0.004c2.904-1.34 6.101-3.259 9.336-5.142 3.997-2.349 6.679-4.907 9.631-8.82h-0.006c2.731-3.641 5.745-6.716 8.438-9.655 2.707-2.94 5.092-5.719 6.778-8.598v-0.006c0.492-0.861 1.23-2.092 1.771-3.247 0.615-1.107 0.985-2.275 1.107-2.695l-0.008-0.245c-0.018-2.976 2.214-5.51 5.19-5.88zM471.567 406.814v-0.008c-0.615-1.254-0.737-2.411-0.737-3.297 0.038-1.883 0.492-2.916 0.492-3.444l0.035-0.123 0.006-0.042c0-0.245-0.018-0.615-0.027-1.254 0.009-0.861 0.036-2.042 0.492-3.531 0.985-2.952 2.755-4.871 4.342-6.531 1.6-1.636 3.223-2.94 4.305-3.862l0.013-0.004c0.985-0.737 2.030-2.030 3.444-3.531 1.415-1.489 3.247-3.283 5.868-4.65h0.008c3.85-1.993 7.357-4.453 11.082-7.294 4.809-3.677 9.485-7.011 13.407-10.702 5.056-4.736 9.497-9.509 12.867-14.945v0.008c0.492-0.737 0.861-1.107 1.107-1.537l0.245-0.37c0.008-0.043 0.012-0.086 0.021-0.123 0.031-0.123 0.043-0.37 0.089-0.492 0.026-0.088 0.021-0.245 0.042-0.245 0.088-0.245 0.245-0.492 0.37-0.737 0.123-0.37 0.37-0.737 0.615-1.107 0.245-0.245 0.492-0.492 0.861-0.737 0.245-0.245 0.492-0.492 0.861-0.737s0.737-0.245 1.107-0.492c0.245-0.088 0.492-0.245 0.737-0.245 0.089-0.013 0.123 0.013 0.245 0.008 0.37-0.043 0.737 0 1.23 0.021 0.37 0.026 0.737 0.021 1.23 0.123 0.088 0.026 0.123 0 0.245 0.026 0.245 0.086 0.492 0.245 0.737 0.37 0.37 0.123 0.737 0.37 1.107 0.615 0.245 0.245 0.492 0.492 0.737 0.861 0.245 0.245 0.492 0.492 0.737 0.861 0.089 0.123 0.123 0.245 0.245 0.37 0.37 0.088 0.615 0.123 1.107 0.37 1.28 0.492 2.214 1.34 2.853 2.092 0.615 0.737 1.107 1.463 1.365 2.128 0.615 1.328 0.861 2.498 1.107 3.591 0.492 2.19 0.492 4.121 0.492 5.13l0.021 1.34c0 4.035-0.615 8.181-1.931 12.215v0.006c-1.869 5.327-5.044 8.771-7.172 11.834l0.009-0.012c-1.34 1.869-2.583 3.185-3.382 4.256l-0.006 0.004c-1.28 1.636-2.472 3.961-4.305 6.667v0c-3.567 5.142-7.885 8.536-10.899 11.846-0.985 0.985-2.030 2.251-3.456 3.507-1.427 1.242-3.283 2.522-5.572 3.334h-0.013c-2.767 0.985-5.13 1.28-6.864 1.71l0.013-0.008c-4.674 1.107-9.459 2.128-14.763 2.411v0c-0.615 0.038-2.669 0.245-4.847 0.245-1.254 0-2.632-0.042-4.083-0.245-1.463-0.245-3.050-0.615-4.823-1.746-1.107-0.737-2.399-1.943-3.137-3.591v0.008zM475.518 455.655c0.013-5.769 1.107-11.169 2.018-16.064l0.006-0.021c0.123-0.737 0.245-1.71 0.737-2.928 0.492-1.23 1.107-2.657 2.349-3.899l0.006-0.008c2.301-2.361 4.527-3.555 5.584-4.465 3.641-2.928 7.405-4.662 10.518-6.348l-0.008 0.008c4.477-2.349 7.921-3.456 10.258-5.301l-0.013 0.006c1.931-1.489 4.465-3.038 7.578-3.703h0.021c1.23-0.245 2.005-0.492 2.46-0.615l0.985-0.492c1.648-1.254 3.838-3.752 6.077-6.065 1.809-1.845 3.567-3.886 5.438-6.065 0.737-0.737 1.698-2.177 3.297-3.665 0.123-0.245 0.245-0.615 0.492-0.861s0.492-0.615 0.737-0.861c0.245-0.245 0.492-0.492 0.861-0.737s0.737-0.37 1.107-0.492c0.245-0.088 0.492-0.245 0.737-0.245 0.088-0.026 0.245 0.006 0.245-0.013 0.37-0.088 0.737-0.030 1.23-0.018 0.37 0.008 0.737 0.008 1.23 0.089 0.088 0.026 0.245-0.006 0.245 0.026 0.245 0.088 0.492 0.245 0.615 0.37 0.37 0.123 0.737 0.245 1.107 0.615 0.245 0.245 0.615 0.492 0.861 0.737s0.492 0.492 0.737 0.861c0.245 0.37 0.37 0.737 0.492 1.107 0.089 0.245 0.245 0.492 0.245 0.737 0.026 0.123 0.026 0.245 0.042 0.492 0.018 0.123 0.031 0.245 0.042 0.37 0.026 0.245 0.089 0.492 0.089 0.861 0 0.492-0.123 0.985-0.245 1.537 0.245 0.492 0.985 1.66 1.833 3.322 1.746 3.814 2.669 8.217 2.695 12.432l-0.018 1.107c-0.088 1.587-0.245 3.531-0.615 5.584-0.37 2.066-0.985 4.28-2.313 6.507l-0.009 0.013c-1.624 2.644-3.605 4.417-5.203 5.856-1.624 1.427-2.891 2.558-3.617 3.519-0.615 0.737-1.23 2.079-2.054 4.047-0.861 1.919-2.164 4.6-4.76 6.913-4.551 4.023-9.471 6.47-13.481 8.967-1.525 0.861-3.358 2.719-6.249 4.674-2.731 1.809-5.695 3.185-8.844 4.109l0.013-0.009c-2.498 0.737-5.399 1.845-8.709 2.669v0c-0.985 0.245-1.955 0.37-2.928 0.37-1.304 0-2.448-0.245-3.408-0.492-2.805-0.615-5.695-2.018-7.712-4.539-2.030-2.51-2.719-5.536-2.817-8.315l-0.030-1.624zM513.232 515.521c-5.203 2.325-10.948 4.023-16.849 4.576-1.439 0.123-2.829 0.123-4.158 0.123-1.967 0-3.788-0.088-5.438-0.042h-0.737l-0.042 0.004-0.37 0.026-1.267 0.043c-0.615-0.006-1.304-0.018-2.313-0.245-0.985-0.245-2.534-0.737-3.912-2.498v0c-1.316-1.784-1.451-3.42-1.463-4.527 0.042-2.226 0.615-3.531 0.985-4.785 0.492-1.23 0.861-2.226 0.985-2.498l0.006-0.004c0.861-2.62 1.587-5.647 2.695-8.906v-0.006c1.451-4.207 4.109-7.455 6.814-10.001v0c2.251-2.079 4.417-3.235 5.88-4.268l0.012-0.008c2.522-1.71 5.13-3.629 7.996-5.498l0.006-0.008c7.16-4.638 14.358-8.795 21.077-13.244 1.907-1.254 4.083-3.026 6.557-4.859 2.485-1.821 5.313-3.715 8.783-4.969l0.737-0.245 1.451-0.245c0.123-0.039 0.37 0.012 0.492-0.013s0.37-0.123 0.492-0.123l0.37-0.012c0.245 0 0.492 0.088 0.737 0.088 0.123 0.018 0.245 0.026 0.37 0.043 1.242 0.123 2.522 0.492 3.591 1.28 1.391 0.985 2.239 2.275 2.719 3.346 0.985 2.214 0.985 3.874 0.985 5.327-0.008 1.575-0.123 2.94-0.123 3.629v0.021c-0.37 7.491-3.002 14.363-6.864 20.279l0.008-0.008c-1.107 1.71-2.152 3.161-2.904 4.465-0.737 1.23-1.537 3.382-3.395 5.868-1.809 2.337-3.899 3.862-5.707 5.068-1.796 1.23-3.358 2.128-4.417 2.964-3.715 2.829-7.664 7.049-13.816 9.864v-0.008zM566.472 524.587v0.008c-0.245 2.51-0.861 4.453-1.107 5.793v0.008c-0.737 3.653-1.501 7.343-2.19 11.070v0.008c-0.37 1.746-0.861 3.507-2.066 5.203-1.107 1.698-3.125 3.087-5.044 3.641-1.267 0.37-2.472 0.492-3.605 0.492-0.615 0-1.28-0.039-1.895-0.089 0 0.006 0 0.006 0.006 0.006l-0.006-0.006c-2.916-0.245-5.044-1.439-6.617-2.289-1.561-0.861-2.669-1.513-3.223-1.698l-0.021-0.008c-4.318-1.561-7.097-3.997-9.509-5.659l-0.021-0.013c-0.615-0.492-1.477-0.861-2.853-1.365-1.352-0.492-3.161-1.107-5.178-2.337l-0.026-0.013c-1.365-0.861-2.596-1.869-3.665-3.235-1.107-1.365-1.993-3.087-2.289-5.265l-0.123-1.698c-0.006-1.575 0.37-3.211 0.985-4.6 0.737-1.391 1.612-2.46 2.448-3.211 1.698-1.501 2.94-2.152 3.629-2.755l-0.012 0.012c1.784-1.415 3.074-1.943 3.507-2.275l0.021-0.018c0.031 0.039 0.861-0.861 2.226-1.931 0.123-0.123 0.615-0.615 1.23-1.23s1.477-1.561 2.755-2.498c-0.004 0-0.004 0-0.004 0.006l0.004-0.006c1.636-1.107 2.964-1.907 3.912-2.596l-0.026 0.021c1.869-1.304 3.125-1.71 3.42-1.895l0.088-0.089c0.245-1.107 0.615-2.19 1.439-3.062l0.088-0.123 0.492-0.615c0.492-0.492 1.23-1.28 2.411-2.546 0.088-0.089 0.245-0.123 0.245-0.245 0.245-0.245 0.615-0.492 0.985-0.737s0.615-0.37 1.107-0.492c0.123-0.038 0.245-0.123 0.37-0.123 0.245-0.042 0.492-0.012 0.737-0.042 0.492-0.043 0.861-0.089 1.23-0.089 0.37 0.021 0.737 0.089 1.107 0.123 0.37 0.088 0.737 0.123 1.107 0.37 0.37 0.123 0.737 0.37 0.985 0.615 0.123 0.123 0.492 0.245 0.615 0.37 0.089 0.089 0.123 0.245 0.245 0.245 0.245 0.245 0.492 0.615 0.737 0.985 0.123 0.245 0.37 0.492 0.492 0.737 1.107 0.615 2.079 1.292 2.719 1.981 0.985 0.985 1.575 2.018 2.104 2.964 0.985 1.833 1.66 3.567 1.981 4.22l0.008 0.026c0.985 2.289 1.267 3.764 1.525 4.182l0.004 0.008c0.245 0.492 0.615 1.107 0.861 1.895 0.37 0.737 0.737 1.821 0.985 2.976v0c0.245 1.328 0.737 3.125 0.737 5.462l-0.043 1.242v-0.008zM522.432 238.095v-0.004c0.021-0.737-0.018-1.561 0.123-2.841 0.245-1.254 0.861-3.038 2.054-4.355 0.737-0.861 1.673-1.561 2.558-2.066l0.026-0.018c1.648-0.861 4.047-2.669 7.945-3.283h0.013c3.259-0.492 5.572-0.737 7.775-1.575 2.558-0.985 4.711-0.985 6.125-1.107 1.463-0.123 2.14-0.245 2.46-0.492 0.026-0.004 0.37-0.245 0.985-0.615 0.737-0.492 1.771-1.107 3.334-1.66l0.021-0.006c2.14-0.615 3.886-1.107 5.229-1.561 0.615-0.245 1.489-0.615 2.669-1.267 1.23-0.615 2.695-1.328 4.662-1.796v0c1.895-0.492 3.653-0.492 5.241-0.492 1.107 0 2.177 0.043 3.137 0.086h0.013c3.283 0.245 5.621 0.985 7.184 0.985h0.008l0.737 0.026c0.737 0.008 1.796-0.086 3.113-0.086l1.427 0.043c0.737 0.043 1.525 0.123 2.558 0.37 0.985 0.245 2.313 0.737 3.752 1.895 0.985 0.861 1.907 2.104 2.313 3.641l0.245 1.267 0.088 1.648c0.37 2.522 0.492 4.907 0.492 7.294-0.006 2.793-0.37 5.375-0.737 7.775v-0.013c-0.088 0.615-0.245 1.587-0.615 2.904-0.37 1.304-0.985 3.074-2.695 4.724l-0.004 0.008c-1.821 1.66-3.322 2.349-3.776 2.743l-0.039 0.027c-1.23 0.861-3.050 1.771-4.65 2.104-1.561 0.37-3.149 0.615-4.76 0.615-2.522 0.004-4.994-0.492-7.294-1.439l-0.026-0.012c-0.737-0.245-2.19-0.615-4.244-1.501l-0.013-0.008c-2.042-0.985-2.904-1.489-3.137-1.489-1.267-0.245-3.074-0.492-4.823-0.492-0.615 0-1.23 0.031-1.746 0.088-0.37 0.245-0.861 0.615-1.931 1.107h-0.008c-2.829 1.267-5.032 1.477-6.002 1.857-3.185 0.985-4.945 1.784-7.061 3.42-0.37 0.245-0.985 0.861-1.869 1.796-0.861 0.861-2.128 2.066-4.095 3.002-1.304 0.615-2.916 0.985-4.576 0.985h-0.109c-0.737-0.008-1.771-0.013-3.087-0.37-1.304-0.37-2.964-1.23-4.047-2.534-0.737-0.861-1.23-1.784-1.561-2.657 0.008 0.008 0.008 0.008 0.008 0.013l-0.008-0.013c-0.861-2.325-0.861-4.268-0.861-5.695 0-0.615 0.013-1.107 0.013-1.501-0.245-0.37-0.492-0.737-0.615-1.107-0.492-1.107-0.861-2.14-0.861-2.14l0.021-0.012c-0.492-0.985-0.861-2.054-0.985-3.038s-0.123-1.919-0.123-2.608v-0.615zM966.465 557.419c-1.107-3.199-2.373-6.483-2.51-9.792-0.123-2.817 2.214-5.868 1.746-8.524-1.365-7.945-3.567-15.753-5.438-23.62-0.492 0.088-1.107 0.245-1.612 0.245-0.123 1.561-0.245 3.125-0.492 4.674-1.66-2.583-2.94-5.313-2.817-7.972 0.37-7.405 1.391-14.767 2.042-22.153 1.107-11.809 2.743-23.42-1.439-35.285-4.674-13.252-8.45-26.882-9.139-41.125-0.245-5.289-1.107-10.566-1.857-15.816-0.615-4.121-1.328-8.217-2.251-12.276-0.615-2.472-1.673-4.809-2.399-7.258-1.107-3.74-2.263-7.479-3.113-11.279-0.245-1.292 0.985-3.199 0.37-4.133-5.253-8.5-6.31-18.32-9.103-27.586-0.37-1.352-0.861-2.865-1.71-3.899-3.937-4.6-8.118-8.992-12.067-13.583-0.737-0.861-0.861-2.337-1.6-4.662-6.36-7.245-14.137-15.015-20.613-23.723-8.954-12.043-16.903-24.829-25.373-37.236-1.427-2.092-3.346-3.862-5.019-5.781-3.814-4.379-7.626-8.757-11.599-13.313 1.107-0.492 1.71-0.737 2.226-0.985-8.426-11.44-16.829-22.851-25.338-34.419-0.492 1.451-0.861 2.583-1.242 3.715-0.37 0.088-0.737 0.123-1.23 0.245-1.931-4.6-4.268-9.079-5.671-13.821-1.23-4.023-3.137-6.557-7.085-8.142-2.608-0.985-4.907-3.002-7.134-4.809-2.042-1.648-3.605-3.924-5.733-5.425-5.978-4.22-11.858-8.709-18.304-12.103-9.151-4.823-16.177-11.882-23.137-19.155-3.801-3.973-7.503-8.057-11.416-11.92-1.316-1.292-3.074-2.534-4.835-2.928-12.165-2.731-24.409-5.166-36.59-7.823-2.005-0.492-4.133-1.107-5.769-2.301-6.089-4.305-11.809-9.115-18.005-13.231-7.258-4.835-14.849-9.213-22.374-13.639-3.776-2.226-7.515-5.104-11.661-6.027-11.858-2.669-23.906-4.527-35.9-6.605-1.242-0.245-2.583 0.043-3.862 0.245-4.232 0.492-8.673 2.128-12.649 1.378-12.067-2.301-23.117 1.561-34.235 4.674-5.769 1.624-10.431 0.123-15.162-2.301-0.615-0.245-0.492-2.152-0.737-4.563-9.275-1.943-19.593-4.711-30.093-6.077-6.249-0.861-12.78 0.615-19.186 0.861-2.731 0.123-5.584 0.37-8.193-0.245-4.797-1.107-9.446-3.886-14.183-3.924-8.291-0.045-16.59 1.784-24.913 2.128-3.728 0.123-4.379 3.788-6.975 4.441-4.883 1.23-9.927 1.784-14.896 2.62-0.021-0.123-0.031-0.37-0.043-0.492 1.254-0.615 2.51-1.254 4.626-2.313-9.569-1.857-11.538-1.242-16.975 4.626-0.861 0.985-1.746 2.214-2.865 2.558-6.040 1.857-10.049 6.826-15.491 9.583-1.869 0.985-3.591 2.19-5.301 3.382-3.703 2.583-7.023 6.151-11.12 7.651-12.867 4.736-26.029 8.685-39.064 12.971-2.644 0.861-5.229 1.869-7.847 2.805 0.123 0.492 0.245 0.985 0.37 1.378l7.232-1.391c0.123 0.492 0.37 0.861 0.615 1.304-2.399 1.254-4.674 3.038-7.232 3.641-3.728 0.861-7.724 6.261-11.575 0.031-0.123-0.245-1.267-0.088-1.857 0.088-11.243 3.629-22.777 6.643-32.306 14.103-4.921 3.862-9.177 9.312-14.741 11.416-7.073 2.669-12.067 7.147-17.085 12.129-0.861 0.861-2.018 1.513-3.026 2.289-5.733 4.379-11.747 8.45-17.115 13.236-3.322 2.952-5.671 6.975-8.611 10.714-2.164-2.558-2.805-3.322-4.292-5.080-3.334 3.764-6.223 7.245-9.336 10.518-8.709 9.139-16.596 19.116-27.275 26.285-1.931 1.304-3.346 3.48-4.809 5.399-4.724 6.163-9.225 12.481-14.055 18.555-10.702 13.479-21.581 26.805-28.633 42.701-1.107 2.46-3.062 4.539-4.662 6.754-0.245 0.245-0.737 0.492-1.525 0.861 0.245-1.451 0.492-2.51 0.737-3.579-2.669 1.771-5.092 3.826-5.88 6.36-3.125 9.927-5.769 20-8.524 30.034-1.784 6.47-2.681 13.309-5.363 19.375-5.745 12.998-12.288 25.669-18.799 38.312-1.328 2.583-4.736 4.17-5.856 6.778-2.448 5.671-4.6 11.599-5.868 17.621-2.349 11.243-3.874 22.644-6.002 33.929-0.615 3.125-2.608 6.027-2.976 9.139-2.092 17.745-0.861 35.857-6.839 53.162-4.047 11.661-2.202 24.115 0.018 35.401 3.653 18.603 3.886 37.102 4.256 55.773 0.088 4.539 1.857 9.127 3.382 13.514 2.841 8.168 6.089 16.195 9.115 24.311 0.245 0.737 0.492 1.575 0.245 2.239-0.985 3.444-1.833 7.16 1.561 9.459 6.396 4.318 8.377 10.321 8.181 17.514-0.021 1.107 0.37 2.214 0.615 3.334 3.223 19.086 11.082 36.504 20.099 53.397 5.683 10.664 12.397 20.807 18.564 31.222 2.878 4.859 5.584 9.816 8.279 14.784 2.767 5.092 4.588 11.022 8.351 15.244 7.196 8.082 15.087 15.684 23.432 22.603 9.471 7.861 20.179 13.943 27.351 24.71 5.006 7.515 13.153 12.901 19.023 19.952 9.312 11.169 17.784 23.051 26.884 34.417 1.636 2.030 4.477 4.035 6.951 4.305 7.736 0.861 15.561 1.107 23.345 1.107 165.398-0.615 330.802-1.352 496.191-2.066 3.579-0.021 7.172 0.006 10.727-0.37 1.451-0.123 3.322-0.861 4.133-1.907 7.638-10.21 15.062-20.583 22.631-30.846 1.107-1.501 2.472-2.952 3.997-4.035 5.596-4.023 11.317-7.885 16.984-11.809 0.985-0.737 1.981-1.809 3.125-2.092 13.503-3.31 24.569-9.398 29.381-23.515 1.66-4.859 3.973-9.533 6.384-14.094 3.456-6.557 6.766-13.275 11.058-19.271 7.885-11.046 16.49-21.583 24.688-32.411 1.34-1.758 2.399-3.826 3.199-5.916 9.348-24.563 18.646-49.101 31.004-72.451 3.322-6.274 5.142-14.402 4.539-21.419-1.304-15.032 0.123-29.169 6.839-42.735 0.985-1.883 1.575-3.886 2.387-5.817 3.382-8.118 6.286-16.502 10.395-24.253 1.993-3.752 3.703-6.802 2.289-11.022z"></path>
    <path fill="#000000" d="M258.648 890.655c4.035 3.689 7.972 7.503 12.141 11.095 1.391 1.23 3.259 2.349 5.117 2.731 12.931 2.534 25.923 4.809 38.872 7.282 2.128 0.492 4.379 1.107 6.125 2.14 6.458 4.011 12.532 8.476 19.11 12.315 7.724 4.489 15.77 8.561 23.767 12.685 4.011 2.066 7.984 4.748 12.38 5.608 12.597 2.485 25.403 4.207 38.127 6.151 1.328 0.245 2.755-0.043 4.121-0.123 4.489-0.492 9.201-1.993 13.434-1.292 12.814 2.14 24.552-1.463 36.354-4.342 6.139-1.501 11.082-0.123 16.118 2.152 0.615 0.245 0.492 2.005 0.861 4.244 9.852 1.809 20.808 4.379 31.961 5.659 6.629 0.737 13.569-0.615 20.377-0.861 2.904-0.123 5.929-0.37 8.697 0.245 5.092 0.985 10.049 3.617 15.068 3.653 8.807 0.042 17.621-1.66 26.461-1.981 3.961-0.123 4.65-3.519 7.405-4.133 5.178-1.107 10.542-1.66 15.823-2.435 0.018 0.123 0.030 0.245 0.042 0.492-1.34 0.615-2.669 1.23-4.933 2.152 10.172 1.734 12.264 1.107 18.036-4.305 0.985-0.861 1.857-2.066 3.050-2.387 6.42-1.722 10.689-6.348 16.459-8.918 1.981-0.861 3.801-2.030 5.635-3.149 3.937-2.399 7.455-5.719 11.809-7.122 13.673-4.403 27.643-8.082 41.503-12.067 2.793-0.861 5.548-1.734 8.327-2.62-0.123-0.492-0.245-0.861-0.37-1.28-2.57 0.492-5.13 0.861-7.688 1.292-0.245-0.37-0.492-0.861-0.615-1.23 2.546-1.107 4.957-2.829 7.676-3.382 3.973-0.861 8.205-5.817 12.3-0.027 0.123 0.245 1.328 0.089 1.967-0.088 11.944-3.382 24.192-6.187 34.321-13.131 5.229-3.579 9.742-8.659 15.653-10.616 4.342-1.427 7.897-3.456 11.181-5.769h-540.434c4.921 3.493 9.422 7.393 13.834 11.44z"></path>
    </svg>