<svg xmlns="http://www.w3.org/2000/svg" viewBox="62.784 63.949 905.025 896.090">
    <path fill="#000000" d="M325.484 555.834c-0.861-0.861-1.845-1.648-2.805-2.546-0.492-0.37-1.292-1.267-0.861-1.869 0.861-1.242 2.952 0.985 3.211 1.686 0.37 0.985 0.492 1.857 0.492 2.731zM823.719 502.093c-2.46 6.593-3.543 13.534-6.101 20.083-2.853 7.282-6.667 13.612-11.944 19.431-5.19 5.707-12.189 10.025-19.47 12.645-4.244 1.525-8.967 1.673-13.414 2.005-5.99 0.492-11.329 0.245-16.993-1.857-7.602-2.805-14.363-6.593-20.013-12.389-2.928-3.014-5.646-6.261-2.964-10.148 2.337-3.358 10.493-9.939 14.163-5.154 1.403 1.845 1.919 2.423 4.391 2.891 3.087 0.615 7.356 1.537 10.505 0.737 4.403-1.107 6.151-6.040 6.519-10.061 0.492-4.501-0.737-8.426-4.22-11.514-5.425-4.859-14.627-3.689-21.168-2.054-5.092 1.28-9.73 2.017-15.009 1.808-6.249-0.245-12.414-2.46-18.438-4.023-9.963-2.608-18.261-9.127-26.608-14.836-8.992-6.151-16.975-13.295-23.897-21.693-8.008-9.718-12.974-20.368-18.343-31.587-2.411-5.068-5.080-10.001-7.417-15.099-2.387-5.166-4.539-10.332-7.196-15.392-4.772-9.115-9.545-18.464-15.514-26.873-2.891-4.071-6.335-7.356-10.258-10.431-3.912-3.062-8.070-6.408-12.97-7.749-3.715-0.985-7.467-1.352-11.219-1.23-4.182 9.079-8.217 18.217-12.393 27.29 4.698 5.892 10.123 11.341 16.042 15.885 8.365 6.433 16.949 12.402 24.57 19.765 4.6 4.441 8.771 9.607 12.679 14.659 3.961 5.080 6.715 11.377 8.819 17.388 2.19 6.223 3.899 12.97 5.215 19.419 0.985 4.835 1.23 9.36 1.23 14.293-0.088 10.517 0.615 20.937-1.648 31.287-1.267 5.683-3.358 10.947-5.596 16.293-2.472 5.929-4.6 11.932-6.839 17.948-5.313 14.289-12.328 27.75-18.343 41.744-2.681 6.237-5.044 12.559-7.959 18.698-0.737 1.501-1.365 3.002-2.054 4.501 6.715 15.057 15.267 29.161 26.31 41.575 5.695 6.396 11.649 12.847 18.689 17.846 6.249 4.453 13.182 8.512 20.1 11.771 11.144 5.253 23.97 8.697 36.41 8.5 6.322-0.088 11.932-2.695 17.319-5.659 5.253-2.877 9.84-6.273 13.638-10.984 7.823-9.693 12.363-21.245 12.715-33.705 0.123-4.638 0.123-9.471-0.615-14.046-0.985-5.608-3.149-11.058-5.498-16.243-4.083-9.028-10.21-17.031-19.092-21.791-4.035-2.164-7.799-3.235-12.407-3.444-3.002-0.123-6.741-0.492-9.667-0.039-6.163 0.861-10.234 5.671-14.021 10.222-2.104 2.534-3.936 5.092-5.13 8.155-0.737 1.943-2.301 6.531-5.154 5.634-3.283-0.985-4.539-6.113-5.178-8.882-1.463-6.36-0.492-12.607 2.275-18.515 1.378-2.928 3.752-5.005 6.027-7.22 2.128-2.092 4.194-4.244 6.396-6.261 5.117-4.686 11.956-8.476 18.81-9.902 21.859-4.613 43.546 7.983 58.811 22.335 3.555 3.334 6.691 6.9 9.681 10.738 3.886 5.005 8.008 10.099 11.12 15.647 4.674 8.327 7.429 17.465 9.312 26.775 1.907 9.398 2.202 18.997 2.238 28.548 0.042 10.664-1.365 21.137-4.993 31.213-6.384 17.596-22.269 30.726-39.292 37.848-5.904 2.472-12.141 3.912-18.374 5.241-7.282 1.561-14.551 2.596-22.014 2.632-16.13 0.089-32.333-2.596-47.1-9.336-14.875-6.802-28.752-16.155-40.043-27.989-12.414-13.005-23.823-27.967-30.953-44.547-1.107-2.62-2.104-5.313-3.014-8.032-0.615 2.447-1.107 4.907-1.427 7.381-0.861 5.817-0.861 11.809-1.107 17.678-0.245 4.772-0.123 8.942 0.492 13.659 1.292 8.622 3.37 17.349 6.826 25.403 2.275 5.265 5.757 10.578 9.595 14.835 3.936 4.366 8.082 8.843 12.974 12.129 4.379 2.94 8.882 5.831 13.621 8.155 2.005 0.985 3.629 1.328 5.805 1.34-5.13-0.042-9.828-1.352-14.809-2.522-5.056-1.23-10.049-2.743-14.993-4.268-5.978-1.857-11.697-4.17-16.719-7.921-2.916-2.202-6.113-4.182-8.843-6.605-2.829-2.534-5.411-5.56-7.799-8.5-4.465-5.51-8.831-11.341-10.604-18.286-0.737-2.952-1.513-5.929-1.66-8.992-0.123-3.408-0.123-6.741-0.492-10.136-0.492-4.613-1.23-9.225-0.615-13.86 0.615-3.961 1.636-7.799 2.534-11.685 2.534-10.997 4.823-22.338 8.918-32.906 2.128-5.486 4.539-10.861 7.097-16.169-0.985-6.139-1.352-12.336-1.883-18.498-0.737-9.373-1.931-18.672-2.904-28.020-1.599-15.383-1.919-30.845-1.845-46.288 0.043-8.389 0.245-16.75-0.245-25.116-0.492-7.467-2.164-14.467-4.575-21.526-2.731-7.971-6.494-15.351-11.783-21.904-2.289-2.829-4.835-5.411-7.491-7.873-3.346 7.184-6.715 14.345-10.025 21.54-4.563 9.939-9.201 19.817-13.365 29.924-1.746 4.28-3.468 8.561-5.202 12.841-1.267 3.334-2.62 6.629-4.047 9.89-0.492 0.985-2.608 5.351-4.403 3.703-0.492-1.23-0.861-2.46-1.23-3.727-0.861-2.46-1.734-4.883-2.707-7.294-5.646-13.105-15.834-23.719-26.596-33.326-2.289 2.373-4.527 4.784-6.703 7.306-9.040 10.479-16.745 21.423-22.017 34.246-2.719 6.605-4.121 13.534-4.674 20.626-0.123 2.829-0.245 5.671-0.245 8.524 3.211 5.019 7.369 9.484 11.18 14.041 10.087 12.091 19.803 24.128 27.94 37.623 3.653 6.064 7.049 12.153 10.345 18.421 2.853 5.425 5.671 10.037 6.31 16.216 1.242 12.276-0.37 25.134-6.372 36.038 4.071 3.826 8.241 7.565 12.227 11.538 4.933 4.895 9.312 10.467 13.092 16.275 2.373 3.653 4.453 7.467 6.42 11.353 2.19 4.318 4.724 8.918 6.052 13.614 0.985 3.456 1.391 6.924 1.821 10.493 0.492 4.145 1.107 8.327 1.23 12.509 0.042 7.909-2.755 15.934-6.335 22.952-2.104 4.145-4.638 8.279-7.133 12.201-2.51 3.961-5.769 6.912-9.288 10.001-5.817 5.117-12.489 9.939-19.467 13.364-4.354 2.14-9.261 3.382-13.964 4.515-3.408 0.861-6.655 1.525-10.185 1.771-6.101 0.492-12.55 0.123-18.625-0.492-7.085-0.615-13.461-2.644-20.053-5.178-5.411-2.104-10.64-4.6-15.533-7.736-5.45-3.493-9.939-7.811-14.61-12.227-6.519-6.163-12.328-12.055-14.945-20.846-1.698-5.659-2.251-11.771-1.698-17.648 0.245-2.275 1.23-3.985 2.485-5.88 1.967-2.916 4.232-6.384 7.121-8.512 2.373-1.746 5.166-2.373 7.945-3.125 2.779-0.737 5.51-1.624 8.279-2.447 5.683-1.71 10.566-1.771 15.968 0.737 4.847 2.251 10.652 5.399 13.587 10.025 0.861 1.415 2.079 2.767-0.123 2.904-5.229 0.245-10.381-1.463-15.582-0.018-6.728 1.857-10.652 10.591-8.339 16.893 4.76 12.922 23.663 16.275 35.353 11.968 10.505-3.874 17.773-13.686 22.147-23.471 3.382-7.553 3.764-16.298 2.325-24.353-1.292-7.232-3.973-14.958-8.118-21.106-1.107-1.575-2.251-3.113-3.456-4.613-4.981 1.316-10.185 2.017-15.331 1.698-5.707-0.37-11.305-1.722-17.040-2.092-5.498-0.37-9.989-1.107-15.040-3.48-5.51-2.558-10.529-6.040-15.956-8.771-3.617-1.821-7.491-3.038-11.108-4.835-5.56-2.767-10.246-7.429-14.77-11.586-3.85-3.531-7.417-7.356-10.801-11.317-2.472-2.904-4.539-5.916-5.498-9.643-1.746-6.876-0.123-14.533 3.42-20.591 0.985-1.599 2.522-4.453 4.083-5.584 0.737-0.492 1.378-0.737 2.214-0.37-0.985 1.612-2.349 3.468-2.767 5.462-0.985 4.477 1.316 10.431 2.779 14.559 0.985 2.596 1.734 5.229 3.173 7.59 1.808 2.928 4.686 4.993 7.393 7.073 4.292 3.31 9.103 5.831 14.007 8.142 6.531 3.050 14.025 6.027 21.115 7.515 8.819 1.845 18.325 1.451 27.437 0.861-2.46-2.793-4.907-5.596-7.417-8.351-2.079-2.301-4.145-4.527-5.88-7.097-2.373-3.518-3.814-7.565-5.892-11.255-12.227-21.827-18.958-46.557-21.888-71.274-0.737-6.125-0.861-12.239-0.861-18.413-0.086-9.41-0.492-18.463 2.054-27.645 1.537-5.56 3.468-11.070 5.634-16.507-1.254-4.539-2.128-9.151-2.46-13.841-0.861-12.533 1.501-25.039 3.936-37.267 2.214-11.070 6.728-20.898 12.727-30.292-6.643-5.13-13.338-10.198-20.098-15.179-2.485 1.107-5.142 1.722-7.688 2.669-4.417 1.624-9.213 4.318-12.978 7.133-4.907 3.689-7.749 9.151-11.156 14.085-3.247 4.724-5.757 9.693-6.285 15.496-0.37 4.318-0.245 9.079 0.030 13.377 0.245 3.271 2.301 5.805 3.85 8.622 2.19 3.973 4.638 7.983 6.446 12.141 2.152 4.957 2.632 10.025 2.472 15.375-0.123 4.907-1.808 8.267-3.48 12.732-1.575 4.17-2.916 7.945-6.223 11.144-3.543 3.444-8.044 4.748-12.715 5.942-4.17 1.107-7.503 1.107-11.759 0.737-0.985-0.089-4.429 0.492-5.044-0.737 0.245-0.615 2.14-1.107 2.731-1.267 1.316-0.37 2.707-0.492 3.949-1.107 1.734-0.861 2.829-2.214 3.899-3.727 2.387-3.346 3.247-6.888 3.605-10.899 0.245-2.644 0.615-6.273-0.492-8.685-3.185-6.396-8.819-11.377-14.154-15.93-3.776-3.223-7.208-6.814-10.172-10.775-3.173-4.232-6.605-9.275-6.876-14.735-0.123-3.605-0.123-7.515 0.737-11.022 1.107-4.748 2.373-9.939 4.539-14.32 2.14-4.342 6.223-8.044 9.667-11.329 4.157-3.961 9.016-6.715 14.185-9.189 5.13-2.435 10.947-3.591 16.298-5.498 5.486-1.943 10.75-5.954 14.866-10.025 1.316-1.292 2.51-2.731 3.605-4.256-2.301-1.845-4.613-3.689-6.888-5.56-3.038 1.71-6.014 3.531-9.275 4.823-2.964 1.107-6.064 1.808-8.918 3.247-3.235 1.636-5.817 4.157-8.795 6.163-3.518 2.387-7.245 4.403-10.726 6.864-6.175 4.379-13.483 7.085-19.293 11.932-2.669 2.226-5.044 4.809-7.945 6.728-2.447 1.599-4.907 2.719-6.975 4.847-2.066 2.14-3.31 4.823-5.104 7.147-2.030 2.62-4.417 4.921-6.372 7.59-1.981 2.719-3.605 5.843-6.593 7.626-2.079 1.254-4.441 2.301-6.876 2.546-2.989 0.245-6.040 0.043-9.028 0.089-1.23 0.008-2.325-0.006-3.468-0.039-0.123 1.107-0.245 2.289-0.492 3.456-1.648 19.040 1.107 39.265 10.738 56.011 5.978 10.431 15.4 19.691 25.279 26.582 4.22 2.94 8.438 5.942 12.892 8.512 4.244 2.46 8.229 3.37 13.175 3.074 4.417-0.245 8.967-3.395 9.028-7.799 0.737 0.615 1.378 1.292 2.042 2.104 2.472 3.062 5.202 5.855 7.023 9.373 1.451 2.817 2.263 6.446 1.599 9.619-0.615 2.916-3.026 5.474-4.772 7.847-4.477 6.089-13.639 8.426-20.902 8.377-4.194-0.027-7.749-0.492-11.711-1.771-5.229-1.722-9.471-4.403-13.956-7.565-9.261-6.47-17.773-14.355-25.549-22.507-8.438-8.819-16.525-18.382-20.777-29.959-1.857-5.068-3.235-10.123-3.912-15.461-0.737-5.683-0.615-11.44-0.615-17.157 0.031-6.175 0.737-12.251 1.857-18.307 1.107-5.805 2.214-11.92 3.985-17.703-3.026-1.107-5.942-2.558-8.488-4.194-5.019-3.211-9.275-7.959-13.187-12.358-3.665-4.133-6.322-9.065-9.004-13.86-2.399-4.292-4.835-9.446-5.13-14.371-0.123-2.498 0.37-4.957 0.492-7.455 0.123-3.259 0.245-6.175 1.415-9.275 2.301-6.223 5.855-10.652 12.005-13.43 5.277-2.373 11.476-3.271 17.249-2.435 2.202 0.245 5.005 1.23 6.605 2.829 0.615 0.615 0.985 1.439 1.857 1.722-4.182-0.245-7.479 0.985-11.058 3.113-3.074 1.845-4.933 4.527-6.715 7.553-2.116 3.579-1.857 7.638-1.636 11.685 0.088 1.955 0.088 4.17 0.737 6.052 0.615 1.784 1.648 3.48 2.485 5.154 2.152 4.354 5.19 8.094 8.856 11.291 3.629 3.149 7.638 5.781 11.882 7.565 0.492-1.525 1.107-3.038 1.698-4.551 2.558-6.322 6.027-12.264 9.348-18.224 3.788-6.802 6.754-14.099 10.984-20.638 2.891-4.465 6.199-8.512 9.852-12.389 3.567-3.788 8.168-6.446 12.276-9.619 3.444-2.644 7.035-5.080 10.935-7.035 4.417-2.202 10.013-4.318 13.855-7.873-1.501-0.985-3.002-2.042-4.489-3.074-7.724-5.387-15.461-10.505-23.457-15.475-0.615-0.37-6.31-3.223-5.548-4.588 0.245-0.492 1.722-0.737 2.238-0.985 2.202-0.615 4.109-1.489 6.273-2.349 20.877-8.291 41.227-17.744 62.481-25.148 8.93-2.976 17.927-5.793 26.971-8.438 8.586-2.681 17.148-5.462 25.663-8.389 17.535-5.757 35.361-10.604 53.139-15.604 15.934-4.477 32.020-8.229 48.071-12.276 16.091-4.047 31.969-8.843 48.114-12.705 13.669-3.271 27.237-6.876 40.832-10.479 9.557-2.534 19.306-4.6 28.801-7.356 6.139-1.784 11.907-4.379 17.647-7.085-0.861 0.985-1.549 1.967-2.226 3.322-1.636 3.259-3.641 6.335-5.536 9.458-2.865 4.724-5.154 9.458-7.16 14.637-1.673 4.318-3.161 8.685-4.626 13.069 7.491 0.37 15.018 2.485 21.871 5.068 6.802 2.558 13.153 6.089 19.211 10.061 0.245 0.123 0.492 0.37 0.737 0.492 0.615-0.861 1.23-1.771 1.821-2.608 1.758-2.325 3.567-4.981 6.113-6.557 2.226-1.391 4.539-1.636 7.16-1.477 5.904 0.37 12.103 6.014 16.437 9.681 5.659 4.809 9.927 12.067 13.023 18.697 1.575 3.346 2.079 6.876 2.62 10.505 0.615 4.256 1.23 8.463 1.587 12.745 0.042 0.615 0.042 1.292 0.088 1.931 10.873 8.659 25.109 16.694 38.812 10.984 10.27-4.28 15.839-16.034 15.799-26.627-0.042-11.711-6.912-21.636-17.045-27.251-4.391-2.435-8.757-3.936-13.811-4.268-3.605-0.245-6.691-0.123-8.426 3.358-1.403 2.793-1.895 6.273-1.808 9.373 0.042 1.34 1.107 3.715 0.615 5.019-1.857 0.245-5.289-5.707-5.695-6.408-3.346-5.781-4.711-13.755 0.088-19.327 2.238-2.596 6.937-5.215 9.939-6.605 4.182-1.907 8.548-2.116 13.062-2.152 11.108-0.043 23.657 3.949 32.166 11.144 8.279 7.011 15.84 15.954 19.419 26.271 1.771 5.092 3.42 10.553 4.109 15.899 0.615 4.772 0.492 9.693 0.245 14.497-0.985 18.482-15.815 34.133-32.679 40.485-6.298 2.373-13.269 2.534-19.93 2.411-6.741-0.123-13.031-3.924-18.351-7.736-7.049-5.032-12.61-11.87-18.282-18.337-1.771 11.353-2.62 23.066 2.116 33.829 2.054 4.686 3.727 10.013 8.020 13.205 3.358 2.498 8.93 3.591 12.957 4.366 1.648 0.245 3.493 0.737 5.068-0.089 1.549-0.737 2.435-2.325 3.629-3.48 0.861-0.861 1.648-1.107 2.005-2.447 0.37-1.28 0.861-3.026 0.737-4.379-0.088 2.829 0.37 5.817-0.088 8.61-0.492 2.817-1.943 5.363-3.382 7.774-0.985 1.686-1.993 3.456-3.531 4.736-3.653 3.038-10.357 4.539-15.018 3.185-5.437-1.587-10.061-5.843-13.074-10.395-3.752-5.646-7.306-11.010-9.864-17.362-2.152-5.327-2.891-11.894-2.989-17.609-0.042-3.062-0.123-6.199-0.030-9.249 0.123-3.605 1.23-7.133 1.537-10.726 0.492-4.403 0.37-8.856 0.37-13.313-3.531-3.936-7.172-7.749-11.193-11.267-8.771-7.676-18.499-13.821-29.265-18.3-0.861 1.427-1.561 2.891-2.411 4.366-1.587 2.743-3.74 5.104-5.536 7.724-2.632 3.85-5.277 7.578-8.351 11.108-2.251 2.596-4.698 4.711-7.799 6.223-1.883 0.861-3.826 1.391-5.855 1.71-2.423 0.615-4.809 1.267-7.147 2.092-3.235 0.861-6.643 1.107-9.989 0.985-6.052-0.245-11.464-3.185-16.985-5.363-0.123-0.043-0.245-0.088-0.37-0.123-1.107 2.066-2.14 4.121-3.211 6.199 8.413 2.669 16.533 6.139 24.514 10.185 10.947 5.536 23.229 12.177 31.121 21.735 4.071 4.945 7.109 11.12 8.082 17.482 0.492 3.358 0.37 6.766 0.492 10.148 0.088 4.133 0.737 8.204 1.66 12.239 0.615 3.050 1.292 6.199 2.313 9.151 1.686 4.945 4.429 9.434 7.049 13.911 2.596 4.465 5.536 8.45 8.757 12.494 4.071 5.117 7.995 10.493 13.217 14.541 6.852 5.313 14.68 9.484 22.79 12.557 7.811 2.94 16.733 4.133 25.056 4.784 3.641 0.245 7.232 0.245 10.873 0.245 5.536-0.042 11.476 0.043 16.872-1.391 7.724-2.054 15.030-4.957 23.090-5.486 7.381-0.492 15.463-0.123 22.491 2.19 3.985 1.34 8.831 2.534 12.079 5.327 6.273 5.387 2.14 16.021-0.123 22.209zM644.895 227.062c0.492-0.492 2.005-1.993 2.435-0.615-1.107 0.492-2.19 0.985-3.283 1.561 0.245-0.245 0.492-0.615 0.861-0.985zM966.441 557.323c-1.107-3.199-2.361-6.494-2.51-9.792-0.123-2.817 2.214-5.868 1.758-8.524-1.365-7.959-3.567-15.757-5.437-23.62-0.492 0.088-1.107 0.245-1.612 0.245-0.123 1.561-0.245 3.125-0.492 4.674-1.66-2.57-2.94-5.313-2.817-7.971 0.37-7.393 1.391-14.766 2.054-22.152 1.107-11.809 2.731-23.411-1.451-35.279-4.662-13.248-8.45-26.882-9.139-41.124-0.245-5.289-1.107-10.566-1.857-15.822-0.615-4.109-1.34-8.217-2.251-12.264-0.615-2.472-1.673-4.823-2.399-7.258-1.107-3.727-2.275-7.467-3.125-11.267-0.245-1.304 0.985-3.199 0.37-4.145-5.253-8.5-6.31-18.317-9.103-27.58-0.37-1.352-0.861-2.877-1.71-3.912-3.936-4.588-8.118-8.98-12.055-13.573-0.737-0.861-0.861-2.349-1.599-4.662-6.372-7.258-14.138-15.015-20.608-23.733-8.967-12.042-16.897-24.825-25.375-37.226-1.427-2.092-3.334-3.862-5.032-5.793-3.814-4.379-7.626-8.757-11.599-13.318 1.107-0.492 1.698-0.737 2.226-0.985-8.413-11.44-16.828-22.851-25.337-34.42-0.492 1.451-0.861 2.583-1.23 3.715-0.37 0.086-0.737 0.123-1.23 0.245-1.931-4.6-4.28-9.065-5.671-13.816-1.23-4.023-3.125-6.557-7.085-8.142-2.608-1.107-4.907-3.014-7.147-4.809-2.042-1.648-3.591-3.924-5.733-5.425-5.978-4.22-11.87-8.709-18.307-12.117-9.151-4.823-16.173-11.882-23.129-19.149-3.814-3.985-7.503-8.070-11.428-11.92-1.316-1.292-3.074-2.534-4.835-2.928-12.177-2.731-24.404-5.178-36.584-7.835-2.017-0.492-4.133-1.107-5.781-2.301-6.076-4.305-11.795-9.115-17.999-13.235-7.258-4.823-14.846-9.201-22.375-13.639-3.764-2.226-7.515-5.092-11.661-6.027-11.858-2.669-23.909-4.527-35.899-6.617-1.242-0.245-2.583 0.043-3.874 0.245-4.232 0.492-8.659 2.14-12.645 1.378-12.067-2.289-23.121 1.575-34.228 4.686-5.781 1.612-10.431 0.123-15.175-2.301-0.615-0.245-0.37-2.152-0.737-4.563-9.275-1.943-19.587-4.711-30.093-6.089-6.237-0.861-12.771 0.615-19.175 0.985-2.731 0.123-5.584 0.37-8.204-0.245-4.796-1.107-9.446-3.899-14.181-3.924-8.303-0.045-16.594 1.784-24.915 2.128-3.727 0.123-4.379 3.788-6.963 4.441-4.871 1.23-9.927 1.784-14.903 2.62-0.012-0.123-0.026-0.37-0.042-0.492 1.254-0.615 2.51-1.254 4.638-2.325-9.569-1.857-11.55-1.23-16.975 4.626-0.861 0.985-1.758 2.226-2.865 2.558-6.040 1.845-10.061 6.826-15.5 9.583-1.857 0.985-3.579 2.19-5.301 3.382-3.715 2.57-7.023 6.151-11.108 7.651-12.874 4.736-26.042 8.673-39.072 12.97-2.644 0.861-5.229 1.869-7.847 2.805 0.123 0.492 0.245 0.861 0.37 1.378l7.232-1.391c0.245 0.492 0.37 0.861 0.615 1.304-2.399 1.254-4.674 3.038-7.22 3.629-3.752 0.861-7.724 6.249-11.586 0.035-0.123-0.245-1.267-0.086-1.845 0.088-11.243 3.629-22.772 6.643-32.305 14.103-4.921 3.85-9.177 9.312-14.741 11.403-7.085 2.669-12.067 7.16-17.085 12.141-0.861 0.861-2.017 1.513-3.026 2.275-5.745 4.379-11.747 8.463-17.114 13.24-3.322 2.952-5.683 6.963-8.622 10.714-2.164-2.558-2.805-3.31-4.28-5.080-3.322 3.764-6.223 7.258-9.336 10.529-8.709 9.139-16.597 19.106-27.277 26.284-1.943 1.304-3.334 3.48-4.809 5.387-4.711 6.163-9.225 12.489-14.048 18.558-10.702 13.477-21.583 26.803-28.635 42.704-1.107 2.447-3.050 4.539-4.662 6.754-0.245 0.245-0.737 0.492-1.525 0.861 0.245-1.451 0.492-2.51 0.737-3.579-2.681 1.771-5.092 3.814-5.892 6.36-3.125 9.927-5.757 20-8.524 30.033-1.784 6.47-2.681 13.308-5.363 19.366-5.757 12.997-12.276 25.668-18.795 38.317-1.328 2.583-4.736 4.17-5.855 6.778-2.447 5.671-4.6 11.599-5.855 17.625-2.361 11.243-3.886 22.639-6.002 33.929-0.615 3.125-2.608 6.014-2.976 9.139-2.092 17.739-0.861 35.86-6.839 53.165-4.035 11.661-2.19 24.11 0.026 35.392 3.653 18.607 3.886 37.109 4.244 55.782 0.088 4.539 1.857 9.127 3.382 13.504 2.841 8.168 6.089 16.204 9.127 24.312 0.245 0.737 0.492 1.575 0.245 2.238-0.985 3.444-1.833 7.16 1.561 9.446 6.396 4.318 8.389 10.32 8.18 17.513-0.027 1.107 0.37 2.226 0.615 3.334 3.223 19.086 11.082 36.494 20.090 53.396 5.695 10.664 12.407 20.797 18.569 31.221 2.865 4.871 5.572 9.816 8.279 14.776 2.779 5.104 4.588 11.034 8.351 15.253 7.196 8.070 15.091 15.678 23.436 22.6 9.458 7.861 20.178 13.947 27.347 24.703 5.005 7.515 13.156 12.904 19.024 19.957 9.312 11.18 17.783 23.046 26.883 34.41 1.636 2.042 4.477 4.035 6.937 4.305 7.736 0.861 15.565 1.107 23.355 1.107 165.393-0.615 330.786-1.352 496.181-2.066 3.579-0.018 7.172 0.008 10.726-0.37 1.439-0.123 3.31-0.861 4.121-1.907 7.638-10.21 15.066-20.573 22.626-30.835 1.107-1.513 2.472-2.952 4.011-4.047 5.596-4.023 11.305-7.885 16.985-11.809 0.985-0.737 1.981-1.808 3.125-2.092 13.508-3.297 24.569-9.386 29.38-23.506 1.648-4.859 3.973-9.533 6.384-14.095 3.456-6.557 6.766-13.279 11.046-19.274 7.897-11.046 16.494-21.583 24.69-32.405 1.34-1.771 2.399-3.826 3.199-5.916 9.336-24.563 18.638-49.108 31.002-72.454 3.322-6.273 5.154-14.402 4.539-21.414-1.292-15.030 0.123-29.173 6.839-42.734 0.985-1.883 1.575-3.886 2.387-5.817 3.382-8.118 6.285-16.512 10.395-24.256 1.993-3.752 3.703-6.802 2.289-11.022z"></path>
    <path fill="#000000" d="M257.95 890.67c4.047 3.703 7.971 7.503 12.141 11.095 1.391 1.23 3.259 2.361 5.117 2.731 12.936 2.534 25.923 4.809 38.877 7.282 2.128 0.492 4.379 1.107 6.125 2.14 6.458 4.011 12.537 8.488 19.116 12.313 7.724 4.489 15.764 8.561 23.763 12.684 4.011 2.066 7.995 4.748 12.38 5.608 12.598 2.485 25.403 4.207 38.129 6.151 1.316 0.245 2.755-0.042 4.109-0.123 4.489-0.492 9.201-1.993 13.432-1.292 12.818 2.14 24.557-1.463 36.359-4.342 6.125-1.513 11.082-0.123 16.116 2.14 0.615 0.245 0.492 2.005 0.861 4.244 9.852 1.808 20.808 4.379 31.964 5.659 6.629 0.737 13.565-0.615 20.374-0.861 2.904-0.123 5.929-0.37 8.709 0.245 5.092 0.985 10.049 3.617 15.062 3.653 8.819 0.042 17.621-1.66 26.461-1.981 3.961-0.123 4.65-3.518 7.405-4.133 5.178-1.107 10.541-1.648 15.817-2.435 0.021 0.123 0.035 0.245 0.042 0.492-1.328 0.615-2.669 1.23-4.933 2.164 10.172 1.734 12.264 1.107 18.034-4.305 0.985-0.861 1.857-2.066 3.050-2.387 6.42-1.722 10.676-6.348 16.455-8.918 1.981-0.861 3.801-2.030 5.634-3.149 3.936-2.399 7.455-5.719 11.809-7.121 13.669-4.417 27.642-8.082 41.497-12.067 2.805-0.861 5.548-1.734 8.327-2.62-0.123-0.492-0.245-0.861-0.37-1.28-2.57 0.492-5.117 0.861-7.676 1.292-0.245-0.37-0.492-0.861-0.615-1.23 2.534-1.107 4.957-2.829 7.676-3.382 3.961-0.861 8.204-5.817 12.288-0.026 0.123 0.245 1.34 0.088 1.967-0.088 11.944-3.382 24.187-6.187 34.316-13.131 5.229-3.579 9.742-8.659 15.651-10.616 4.342-1.439 7.909-3.468 11.18-5.781h-540.423c4.921 3.493 9.422 7.405 13.829 11.44z"></path>
    </svg>