<svg xmlns="http://www.w3.org/2000/svg" viewBox="62.794 63.948 904.782 896.091">
    <path fill="#000000" d="M757.877 699.179v0c-4.538 7.599-11.191 15.422-21.19 17.99-4.944 1.241-9.947 2.694-15.295 3.628v0c-5.829 0.984-11.669 1.39-17.486 1.39h-1.677c-2.742 0-5.558-0.026-8.547-0.492-3.16-0.492-6.283-1.107-9.345-1.746h-0.006c-5.866-1.328-10.231-3.861-14.836-6.579-1.229-0.737-2.706-1.426-4.317-2.631-1.623-1.253-2.742-2.214-4.021-2.864l-0.008-0.008c-1.488-0.861-2.373-1.635-3.001-2.005-1.599-0.984-3.395-1.918-5.239-3.013h-0.006c-4.046-2.386-8.178-4.66-12.371-6.615-3.825-1.796-8.079-3.21-12.363-4.956l0.008 0.008c-3.443-1.402-6.838-2.852-9.973-3.431-0.37-0.042-0.861-0.088-1.488-0.088l-1.107 0.004c-0.984-0.004-2.079-0.012-3.381-0.37l-3.467-0.984 1.402-3.308 0.737-1.229 1.107-0.861c0.615-0.492 1.575-0.984 3.124-1.832l0.123-0.861 1.832-0.492c1.575-0.37 2.41-0.245 2.557-0.37l-0.018 0.006c2.521-0.737 4.931-1.229 7.697-1.229l1.225 0.030c4.18 0.245 8.607 1.365 12.485 2.864l-4.648-12.737 13.109 15.898 0.245 0.245c0.042 0.089 0.123 0.123 0.245 0.245 0.018 0.006 0.039 0.018 0.043 0.021 3.21 1.463 5.829 3.332 8.337 4.636h0.008c1.771 0.984 3.553 1.844 5.337 2.631 2.324 1.107 5.005 1.599 8.079 2.509h0.004c2.262 0.737 4.070 1.378 5.693 1.501 0.737 0.042 1.426 0.088 2.19 0.088 1.229 0 2.435-0.042 3.787-0.042h0.245c7.623 0.008 15.335-1.955 21.521-6.074 5.005-3.296 8.312-9.296 10.353-15.475 0.492-1.476 0.737-2.742 0.737-3.774-0.026-1.402-0.245-2.423-1.414-3.774l-0.006-0.006c-0.737-0.861-1.623-1.771-2.447-2.398l-0.004-0.008-0.861-0.492c-0.245-0.123-0.861-0.245-1.709-0.492-0.615-0.123-1.39-0.245-2.41-0.245h-0.043c-0.123 0.013-0.37 0.039-0.492 0.039l-0.984-0.026h-0.042l-0.027-5.030-0.37-0.245 0.37-0.492-0.008-0.615h0.581l0.089-0.043c0.492-0.37 0.984-0.861 1.635-1.107 0.615-0.245 1.107-0.37 1.635-0.492l0.021-0.008c-0.008 0-0.013 0.008-0.021 0.008 1.107-0.245 2.238-0.245 3.357-0.245 4.759 0.026 9.469 1.685 13.056 4.267v0c1.107 0.861 2.214 1.673 3.283 2.631h0.008c1.575 1.438 3.947 3.037 5.902 5.373 0.492 0.615 0.861 1.365 1.304 2.053l-0.008-0.245v0.046l1.611-0.245 2.386-3.923 0.245 0.123 0.018-0.021c0.984 0.615 2.681 1.328 4.55 2.595 4.747 3.32 9.037 7.366 12.285 12.398h0.006c1.981 3.087 2.877 6.629 2.877 10.12-0.006 3.702-0.984 7.366-2.877 10.55zM681.883 796.301v0.008c-0.026 2.963-0.861 5.558-2.005 7.808-1.107 2.25-2.435 4.218-3.553 6.111-2.521 4.193-5.582 7.525-8.953 10.674-4.329 4.009-9.813 6.223-14.302 8.362h-0.008c-4.034 1.882-8.226 2.19-12.101 2.19-2.447 0-4.795-0.123-6.96-0.123-7.71-0.089-14.759-3.148-20.932-6.111l-0.004-0.008c-2.766-1.378-5.152-3.381-7.071-4.66h-0.008c-1.894-1.292-4.046-2.766-5.817-5.018l-0.004-0.008c-2.903-3.714-5.152-7.292-6.972-11.781l0.006 0.008c-1.229-2.951-2.718-5.964-4.23-8.953h-0.006c-1.673-3.395-4.514-6.874-5.94-11.781-0.737-2.864-0.984-4.23-2.262-5.915l0.008 0.004c-1.316-1.796-2.324-3.553-3.369-5.054-3.21-4.636-5.767-8.891-9.284-12.667-2.644-2.852-5.448-5.817-8.264-7.993l-0.012-0.008c-0.861-0.615-1.476-1.28-1.993-1.856l-1.393-1.541c-0.013-0.088-0.737-0.492-1.697-1.107-0.984-0.615-2.36-1.365-3.32-3.222-0.615-1.438-0.615-2.557-0.737-3.676 0.008-1.796 0.245-3.64 0.245-4.389 0.088-2.718 0.615-4.562 0.615-5.866-0.006-0.737-0.089-1.253-0.37-2.005-1.107-2.779-3.443-5.915-5.731-8.694-0.615-0.861-2.509-1.808-4.71-3.16-2.891-1.918-7.563-4.058-10.773-7.525l-3.849-4.279 5.705-0.984c0.737-0.123 1.513-0.123 2.25-0.123 4.389 0.035 8.005 1.93 10.969 3.357 1.229 0.615 2.079 0.861 3.124 1.107 0.984 0.245 2.312 0.245 4.046 0.492 0.013 0 0.021 0.004 0.031 0.004 0.861-0.245 1.685-0.37 2.497-0.37 2.545 0.026 4.857 0.737 6.739 1.746l0.37-0.009 0.008 0.123c5.411 3.013 8.915 6.91 12.649 10.944 3.185 3.443 6.948 7.059 9.887 11.412 0-0.008 0-0.008-0.008-0.008l0.008 0.008c2.262 3.395 4.98 6.689 6.307 11.633 0.37 1.45 0.861 2.989 1.39 4.747l0.008 0.018c0-0.006 0-0.008-0.008-0.018 0.37 1.267 0.37 2.386 0.37 3.258v0.861l0.043 1.107v0.008c0.492 4.783 3.774 9.911 5.791 15.878 1.635 5.042 4.475 8.115 8.965 11.952 1.378 1.229 3.738 2.975 6.235 4.415 2.485 1.45 5.177 2.435 6.775 2.386 0.737-0.006 1.107-0.123 1.501-0.37l0.012-0.008c0.089 0 0.737-0.737 1.304-1.758 0.615-0.984 1.107-2.288 1.513-3.332 0.615-1.378 0.737-2.706 0.737-4.514 0-0.615-0.013-1.28-0.026-1.981v-0.012l-0.013-0.245-0.492-0.245c-1.808-1.107-2.816-1.784-3.885-2.041l-5.128-1.352 3.591-3.873c1.292-1.414 3.148-1.906 4.538-1.882 1.575 0.013 2.877 0.492 3.997 0.861 1.107 0.37 2.053 0.861 2.545 0.984 1.253 0.492 2.852 0.984 4.451 1.869 1.599 0.861 3.27 1.942 4.526 3.774v0c2.091 3.073 2.447 6.37 2.435 9.149 0 1.796-0.123 3.467-0.123 4.98 0 0.492 0.043 0.861 0.089 1.34 0.615 0.123 1.107 0.245 1.501 0.37l0.737 0.123 0.737-0.123c4.672-1.229 9.653-2.19 12.173-4.389 1.993-1.647 3.541-3.652 4.684-5.988 1.316-2.631 3.025-5.509 3.566-7.477 0.123-0.492 0.245-1.229 0.245-1.942 0-0.737-0.088-1.45-0.245-1.955l-0.37-0.615c-0.123-0.123-0.245-0.245-0.37-0.37l4.317-4.684c0.088 0.089 0.123 0.123 0.245 0.245l0.031-0.030c1.869 1.906 3.455 3.849 4.992 5.952 3.774 5.177 5.287 10.478 6.701 16.033 0.984 3.689 1.107 7.107 1.107 10.538l-0.004 1.28zM520.073 693.794c-0.039 0.123-0.089 0.245-0.123 0.37-0.37 1.525-0.615 3.283-0.737 4.439-0.737 6.038-1.107 12.271-1.93 18.544-0.615 4.636-2.041 8.78-2.792 12.649-0.861 4.046-0.984 8.449-1.685 13.079l-0.042 0.861c-0.008 1.241 0.37 2.656 0.984 4.389s1.328 3.774 1.45 6.271c0.042 1.267 0.088 2.533 0.088 3.774 0 3.185-0.123 6.307-0.123 9.296v0.861l0.006 0.737c-0.006 5.448-0.492 11.301-1.599 16.707-1.561 7.402-3.112 15.266-6.504 22.661-2.779 5.976-6.8 10.415-10.379 14.945-1.561 1.918-2.963 4.907-6.026 7.378-2.939 2.202-6 2.828-7.551 3.873h-0.008c-3.529 2.103-6.838 6.013-11.879 8.62-2.816 1.426-5.803 1.832-8.62 1.832-3.885-0.008-7.587-0.737-10.686-1.107v0c-8.017-1.107-14.819-4.193-21.634-6.85v0c-4.968-1.942-9.714-3.885-14.546-6.8-4.968-2.963-7.796-7.035-10.010-11.621-1.746-3.541-1.882-6.862-1.869-9.887 0-0.615 0.004-1.352 0.004-2.041 0-1.402-0.088-3.049-0.088-4.795 0.012-2.471 0.123-5.14 1.107-7.772 0.861-2.631 2.891-5.239 6.013-6.629l0.006-0.004c0.615-0.245 1.414-0.861 2.459-1.561 1.107-0.615 2.386-1.537 4.329-1.784h0.008l1.476-0.089c0.861 0.006 1.685 0.089 2.288 0.043l0.737-0.031 8.153-0.737-5.448 6.074c-0.984 1.107-2.017 2.202-2.079 2.497l-0.013 0.026-0.088 1.107c0 0.861 0.088 1.82 0.123 2.939v-0.008c0.027 0.984 0.37 1.685 0.984 2.656 0.737 0.984 1.808 1.993 3.073 3.124 2.435 2.214 5.227 4.648 7.722 6.295 1.426 0.984 3.553 1.525 6.026 1.808 2.459 0.245 5.177 0.37 7.772 0.615 1.107 0.089 2.19 0.123 3.234 0.123 4.747-0.004 8.879-0.984 13.803-2.718 5.189-1.856 9.136-3.604 13.284-6.677 3.578-2.644 6.456-7.047 9.481-11.412v-0.004c2.668-3.787 4.612-8.115 6.8-12.686v0.006c1.942-4.070 3.787-7.82 4.907-11.767 0.737-2.852 1.107-5.915 1.107-9.037 0-1.365-0.042-2.73-0.123-4.095-0.245-4.12-0.245-8.324-1.304-11.263v-0.008c-0.37-0.984-0.737-1.906-1.107-3.037-0.37-1.107-0.737-2.471-0.737-4.046l-0.013-0.737c0-1.229 0.089-2.238 0.089-3.16v-0.008l0.008-0.861c0-0.861-0.008-1.721-0.008-2.595 0-3.061 0.123-6.307 0.984-9.714 0.615-2.545 1.352-4.636 2.275-6.727 1.107-3.185 2.386-6.37 3.923-9.395l0.008-0.008c0 0.008-0.008 0.008-0.008 0.008 0.492-0.984 1.107-1.796 1.575-2.423 0.492-0.615 0.737-1.107 0.737-1.229l2.041 0.615c1.709-2.226 3.395-4.403 4.809-6.591 0.245-0.615 0.37-1.229 0.615-1.746 0.492-0.984 1.107-2.065 2.288-2.927l10.465-7.882-5.607 11.781c-0.615 1.229-1.229 2.288-1.906 3.381zM401.31 763.943v-0.042c0.008-1.659 0.492-2.975 0.737-4.021 0.37-1.107 0.615-1.844 0.615-2.386v0.004c0.245-1.918 0.984-3.652 2.017-4.931 1.107-1.304 2.25-2.19 3.419-3.001l3.443-2.373 1.402 3.923c0.245 0.615 0.245 1.229 0.245 1.635l-0.021 0.37 0.615 1.107 0.042 0.123c0.492 0.984 0.861 1.967 1.316 3.049l0.042 0.042c0.123 0.123 0.615 0.492 1.378 0.984v-0.008c1.229 0.984 2.139 1.587 2.939 1.942 0.861 0.37 1.525 0.492 2.804 0.615h0.37c2.029-0.021 2.742-0.088 3.873-0.737l0.013-0.013c1.229-0.737 2.435-1.587 3.21-2.36l0.008-0.004c2.398-2.288 4.305-6.099 4.956-9.443v0.008c0.861-4.082 1.906-7.894 1.894-11.301v-0.241l-0.013-0.861c0-0.615 0.027-1.488 0.245-2.459 0.245-0.984 0.861-1.955 1.734-2.706v-0.004c0.861-0.737 1.906-1.647 3.073-2.435 0.615-0.492 1.267-0.737 1.942-1.107 1.107-1.784 2.766-3.467 5.116-4.451h0.006c1.635-0.615 3.185-0.737 4.415-0.737 0.737 0 1.34 0.026 1.882 0.030h0.008c1.107 0.013 2.324 0.013 3.493 0.013h2.348c4.365 0 8.73-0.013 13.105-0.013 2.065 0 4.132 0 6.197 0.013 0.008 0 0.013-0.006 0.026-0.006l0.37 0.006h0.042l-0.088 6.358h-0.37c-1.734 0.013-3.013 0.245-4.684 0.861-1.808 0.737-3.234 2.017-5.397 3.762-1.869 1.537-2.706 2.694-3.172 4.697-0.37 1.537-0.245 3.849-0.984 6.615-0.984 3.345-2.557 5.976-3.246 8.411-1.253 4.242-3.787 7.133-6.209 9.849-2.447 2.681-4.735 6.137-8.127 9.1-2.939 2.545-6.48 4.095-9.678 5.275h-0.006c-3.049 1.107-6.137 1.647-9.345 1.647l-0.737-0.008c-3.628-0.088-6.972-0.492-10.218-0.492h-0.008c-3.714-0.026-6.542-1.39-9.112-2.595-1.304-0.615-2.435-1.304-3.357-2.25-0.984-0.984-1.537-1.918-2.202-2.989l0.008 0.006c-0.37-0.615-0.984-1.365-1.476-2.373-0.492-0.984-1.107-2.324-1.107-3.935zM385.166 727.801v0c-1.402-0.245-2.804-0.615-4.18-0.984l-0.123-0.039-0.123-0.042c-1.107-0.492-2.127-0.861-3.198-1.229-1.942-0.492-4.168-0.737-6.468-0.737-1.906 0-3.873 0.123-5.755 0.37h-0.008c-3.455 0.37-6.812 0.615-9.678 1.45h-0.008c-2.373 0.615-4.857 1.685-7.623 2.569h-0.006c-3.923 1.253-7.808 2.324-11.498 3.566l0.008-0.004c-2.939 0.984-5.964 2.127-9.431 2.766-4.403 0.861-8.682 0.737-12.502 1.107-3.652 0.245-7.169 0.37-10.636 0.37h-0.245c-4.305-0.006-8.855-0.123-13.478-2.177l-0.012-0.008c-0.245-0.088-0.737-0.245-1.352-0.492s-1.463-0.492-2.373-1.107c-1.107-0.737-1.758-1.575-2.41-2.373-0.615-0.737-1.107-1.561-1.537-2.065v0c-2.029-2.754-3.885-5.767-4.771-9.469-0.123-0.861-0.984-2.226-1.832-3.628l-0.004-0.004c0.043-0.043-0.615-0.492-1.746-1.894v0c-0.123-0.245-0.245-0.37-0.37-0.615-0.088-0.088-0.123-0.123-0.245-0.245l-0.096-0.042-0.37-0.245c-0.245-0.245-0.737-0.492-1.229-1.292-0.245-0.492-0.615-1.229-0.615-2.017l0.245-1.229 0.984-2.852 2.927 0.737c1.107 0.245 1.673 0.861 2.103 1.28l0.984 1.229c0.043 0.088 0.086 0.123 0.123 0.245 0.984 0.737 2.151 1.45 3.443 2.288v-0.008c3.124 2.005 5.94 3.997 8.903 5.62 2.25 1.253 5.424 2.41 7.808 2.668h0.006c0.984 0.123 1.942 0.123 3.001 0.123 1.734 0.008 3.616-0.088 5.558-0.088h0.603c2.975-0.018 4.931-0.37 7.292-1.697 2.115-1.229 4.267-2.84 6.739-4.427 2.36-1.476 4.55-2.25 6.099-3.246l0.008-0.006c1.45-0.861 3.061-2.3 4.599-3.689 1.561-1.45 3.308-2.336 5.189-2.927l0.008-0.006c1.438-0.492 3.283-1.438 5.731-1.942 2.214-0.492 4.415-0.615 6.567-0.615 3.198 0 6.295 0.245 9.186 0.615 5.263 0.492 10.329 1.414 15.283 2.288h0.008c5.424 0.984 10.576 2.202 15.617 2.569 1.93 0.123 3.971 0.245 6.026 0.245 7.649 0.021 15.487-1.402 20.346-5.669h0.004c2.718-2.336 4.684-5.472 5.263-8.768l-0.492-0.37-0.737-0.861c-0.123-0.245-0.492-0.737-0.492-1.721l0.492-1.721 1.241-1.107c0.861-0.37 1.28-0.37 1.599-0.37l1.107 0.123 0.737 0.245 2.163 0.492 0.492 1.856c0.042 0.123 0.018 0.245 0.042 0.37 1.599 1.34 3.061 2.742 4.341 4.034 3.332 3.407 6.579 7.44 8.509 12.211 0.861 2.238 1.587 4.599 1.599 7.193 0.004 1.882-0.37 3.837-1.292 5.731l-0.008 0.004c-2.177 4.624-5.743 9.359-11.239 11.683h-0.006c-4.156 1.721-8.252 2.139-12.125 2.139-3.001-0.004-5.915-0.245-8.78-0.37h-0.008c-5.89-0.245-12.149-0.123-18.571-1.93-2.226-0.615-3.947-1.45-5.436-1.82zM358.653 642.583c-0.492-4.427-1.107-8.953-1.107-13.717-0.013-1.107-0.019-2.312-0.019-3.467 0-3.604 0.045-7.181 0.045-10.711 0-6.85 0.086-13.682 0.086-20.467 0-5.287-0.043-10.538-0.245-15.769-0.245-5.337-0.984-10.857-1.229-16.658-0.043-1.955-0.086-3.911-0.086-5.866 0.008-4.821 0.123-9.604 0.123-14.313 0-5.066-0.008-10.132-0.021-15.217v0.006-0.245c0-6.173 0.492-12.149 0.492-17.985v-0.245c-0.008-3.517-0.043-7.059-0.043-10.624 0-2.275 0.012-4.562 0.086-6.85v-0.004c0.123-4.919 0.492-9.751 0.737-14.468v-0.008c0.615-12.954 1.734-25.79 2.3-38.57 0.123-3.702 0.245-7.452 0.245-11.203 0-6.209-0.123-12.49-0.123-18.775 0-3.923 0.088-7.808 0.088-11.645 0-6.8-0.245-13.418-1.721-19.794-1.967-8.73-3.505-17.505-4.255-26.481-0.37-4.463-1.107-9.063-1.328-13.854-0.492-9.333-1.942-18.858-3.591-28.212-1.513-8.694-0.984-17.003-1.611-24.93v-0.008c-0.245-3.124-0.245-6.235-0.245-9.296 0.004-3.455 0.086-6.874 0.086-10.218v-0.858c-0.008-0.737-0.012-1.378-0.012-2.079 0-2.386 0.043-4.881 0.492-7.477l0.004-0.004c0.492-3.172 1.402-5.915 1.734-8.399h-0.008c0.615-4.317 1.45-8.324 1.438-12.089v-0.255c0.013-0.123-0.088-0.984-0.088-1.967 0.006-0.492 0.026-1.107 0.123-1.832 0.123-0.737 0.492-1.659 1.561-2.521 0.737-0.615 1.685-0.861 2.509-0.861l0.861 0.086 0.861 0.123 37.303 32.227-6.259-0.245c0.088 0.37 0.245 0.737 0.245 1.229v0l0.043 0.984c-0.006 0.861-0.088 1.635-0.088 2.079v0.006c-0.012 5.090-0.021 10.17-0.021 15.266 0 6.173 0.009 12.359 0.021 18.544v0.057c-0.008 5.018-0.37 9.789-0.492 14.493-0.031 1.328-0.043 2.644-0.043 3.971 0 4.771 0.123 9.555 0.492 14.35 0.37 6.689 0.245 13.283 0.615 19.725 0.37 6.701 0.861 13.461 1.107 20.237 0.123 3.825 0.008 7.44 0.123 10.871 0.123 3.911 0.492 7.894 0.737 11.928 0.37 6.763 0.861 13.587 0.984 20.475 0.123 5.767 0.492 11.584 0.492 17.495 0 1.955-0.038 3.923-0.123 5.89-0.492 9.407-1.28 18.632-1.267 27.764v0.492c0.008 3.505 0.088 7.059 0.088 10.636 0 2.766-0.039 5.546-0.123 8.337-0.245 6.91-0.245 13.918-0.737 21.049-0.123 2.36-0.123 4.747-0.123 7.157 0 3.296 0.088 6.641 0.088 10.022v0.245c0 8.879-0.492 17.601-0.492 26.271v1.352c0 10.427-0.492 20.736-0.492 30.978v1.721c0 7.882-0.245 15.746-0.615 23.602-0.37 7.489-0.737 14.915-0.737 22.246v1.721c0 4.55-0.492 8.855-0.492 12.984-0.031 3.246 1.229 6.713 1.796 11.092v0.006c0.245 2.25 0.984 4.684 1.45 7.525v0.008c0.123 1.241 0.492 2.557 0.615 3.971l1.107 5.373-3.762 0.123-0.245 0.012c-1.426-0.012-2.471-0.492-3.148-0.615-0.737-0.245-1.107-0.245-1.107-0.245h-0.027c-0.245-0.031-1.107 0.245-2.447 0.492-1.993 0.37-4.021 0.615-6.013 0.737l-0.861 0.035c-2.202-0.008-4.082-0.615-5.669-0.984-1.599-0.492-2.927-0.984-4.132-1.107h-0.011c-0.615-0.088-1.771 0.043-3.517-0.123h-0.026c-0.861-0.123-1.267-0.245-1.402-0.245l-13.715 2.447 11.277-8.103c0.043-0.123 0.123-0.737 0.245-1.635l0.004-0.021c0.984-4.070 1.501-8.239 1.501-12.341 0-1.561-0.088-3.124-0.245-4.648zM368.895 206.171l0.861 0.245 0.245 0.123 1.267 0.861 0.088 0.088 0.861 0.245 0.013 0.006c2.939 0.737 6.271 0.984 9.666 1.402 5.719 0.737 11.621 0.861 17.599 0.861 3.27 0 6.567-0.038 9.863-0.038h0.123c3.308 0 6.603 0.043 9.849 0.043 2.435 0 4.857-0.031 7.244-0.123 4.809-0.245 9.751-0.737 14.849-0.737 9.505-0.123 19.127-0.861 28.913-0.861h0.492c3.689 0.008 7.378 0.013 11.067 0.013 6.641 0 13.295-0.013 19.943-0.013 5.988 0 11.977 0.008 17.959 0.008 2.989 0 5.988 0 8.977-0.008 2.398 0 4.783 0.039 7.119 0.039 2.644 0 5.251-0.043 7.82-0.245 5.607-0.37 11.239-0.737 16.932-0.737l0.861 0.006h0.492c5.005 0 10.12-0.37 15.387-0.492 2.065-0.038 4.144-0.043 6.209-0.043 4.98 0 9.923 0.088 14.841 0.088 6.013 0 12.026 0 18.038 0.018h0.123c5.681 0 11.46-0.615 17.465-0.737 2.583-0.088 5.152-0.123 7.697-0.123 2.927 0 5.853 0.031 8.718 0.031l1.107-0.013c0.861-0.038 2.398 0.245 3.64 1.107l0.018-0.030 1.229 0.737-1.659 2.73 3.025-1.107 0.737 1.967-22.090 24.549-1.241 0.088h-0.021l-0.37 0.086c-0.37 0.088-0.984 0.245-1.796 0.37h-0.004l-1.525 0.045c-1.107-0.006-2.163-0.045-3.099-0.045h-0.245c-3.308 0-6.197-0.37-9.234-0.737h0.004c-2.336-0.245-4.771-0.492-7.342-0.492-4.132-0.123-8.103-0.492-11.964-0.492-4.71 0.006-9.457 0.492-14.219 0.984h-0.006c-2.533 0.245-5.054 0.492-7.525 0.492-3.172 0-6.259-0.123-9.186-0.123-7.366 0-14.733-0.004-22.099-0.004-3.676 0-7.354 0-11.030 0.004h-0.132c-6.247 0-12.307-0.492-18.229-0.492h-0.492c-2.963 0.013-5.94 0.013-8.903 0.013-3.947 0-7.894-0.008-11.842-0.008-3.983 0-7.969 0.008-11.952 0.008h-4.375c-7.513 0-14.81 0.37-22.25 1.28h-0.008c-10.329 1.229-20.574 1.734-30.944 1.734-4.66 0-9.431 0.123-14.251 0.123-4.144 0-8.324-0.088-12.514-0.492v0c-0.737-0.086-1.488-0.123-1.844-0.123l-1.107-0.043-41.19-35.581 13.508 3.652zM622.033 707.809l0.088 0.123 0.043 0.123c0.737 2.127 0.737 3.493 0.984 4.070 0.737 1.709 1.253 2.975 2.079 4.206 2.214 3.308 4.735 6.419 7.489 9.493h0.004c2.509 2.816 5.385 4.845 8.903 7.071 1.93 1.229 3.774 2.509 5.472 3.407 0.984 0.492 2.569 0.984 4.329 1.746h-0.006c1.107 0.492 2.595 0.615 4.809 1.107h0.012c2.435 0.615 3.971 1.659 5.078 1.906l-1.34 6.209-1.316-0.088c-0.737 0-1.673 0.042-2.668 0.042h-0.245c-3.762 0.006-7.28-0.37-11.030-1.599-3.296-1.107-6.271-2.202-9.112-2.656h-0.013c-1.352-0.245-3.013-0.245-4.907-0.737 0 0.008 0 0.008 0.004 0.008l-0.004-0.008c-1.981-0.492-2.852-0.861-3.689-0.861h0.013c-2.989-0.042-5.902-0.37-8.718-1.352s-5.509-2.557-7.808-4.956c-1.673-1.746-3.258-3.652-4.648-5.681h-0.004l-1.28-1.647-0.123-0.37-0.37-1.229-0.089-0.37c-0.615-1.304-1.426-2.706-2.177-3.738-0.984-1.328-2.005-2.275-3.505-3.541l0.013 0.009c-1.107-0.984-1.647-1.771-1.869-1.906-0.492-0.37-1.623-0.861-3.061-1.784l0.013 0.009c-2.644-1.611-5.509-3.246-8.226-4.612-4.451-2.348-10.502-3.308-15.956-7.366-0.737-0.615-1.918-1.39-3.037-2.324-1.107-0.984-2.288-2.017-3.172-3.517l-0.245-0.37-2.288-8.645 5.299 1.39c1.229 0.245 1.942 0.861 2.497 1.229l0.984 0.737h0.004c1.107 0.492 2.079 0.861 3.652 1.229h-0.004c2.497 0.737 4.488 1.352 6.137 1.34l0.988-0.089c0.615-0.088 1.709-0.37 2.041-0.615 0.123 0.031 0.861-0.861 2.644-1.463v0c0.018-0.008 0.039-0.008 0.042-0.013l-0.088-0.008 0.245-3.001 2.115-0.615 1.561-0.492 0.123-0.030c0.737-0.123 1.575-0.245 2.324-0.245 0.737 0 1.426 0.043 2.091 0.123v0c3.148 0.492 5.915 1.635 8.239 2.595 2.915 1.229 5.866 2.533 8.682 4.672h0.006c2.485 1.894 5.078 3.971 7.316 6.53l0.019 0.026c0.984 1.107 1.906 2.336 2.754 3.566l-0.026 0.013c0.737 0.861 1.378 1.685 1.869 2.668zM645.518 662.2h-3.21l-1.796 2.631c-3.013-2.029-4.377-2.915-4.893-3.222l-1.82-0.37-0.123-0.984c-0.861 0.042-1.993 0.123-3.32 0.123-1.107 0-2.497-0.123-3.873-0.615-2.053-0.737-3.604-1.734-4.931-2.238-2.619-1.107-5.705-1.402-9.063-1.611-8.816-0.615-17.586-0.861-26.383-0.861-2.163 0-4.317 0.021-6.48 0.042-16.995 0.245-34.092 3.001-51.261 5.287-10.243 1.378-20.494 2.471-30.919 2.939-10.833 0.492-21.791 1.107-32.761 1.107-1.378 0.006-2.754 0.006-4.144 0.006h-6.038c-6.038-0.006-12.038 0.026-18.016 0.245-5.582 0.245-11.239 0.615-17.002 0.615l-1.27-0.008c-0.984-0.008-2.005-0.042-2.891-0.042-1.488-0.021-2.619 0.245-3.099 0.492l-0.008 0.012-0.492 0.492c-0.245 0.37-0.615 0.984-1.107 1.82l-10.379 16.306 4.538-18.753c0.37-1.623 0.492-3.419 0.492-5.349 0-1.107-0.035-2.25-0.043-3.431v-0.123c-0.021-1.673 0.737-3.037 1.107-3.787 0.492-0.737 0.615-1.107 0.737-1.28 0.861-2.989 1.107-6.432 1.549-10.046 0.615-4.144 1.107-8.312 1.659-12.494 1.229-9.124 2.557-18.145 3.27-27.095 0.861-11.46 1.34-22.897 1.647-34.435 0.043-1.758 0.089-3.517 0.089-5.287 0-13.089-1.229-26.193-2.583-39.399-1.784-17.556-3.222-35.212-3.75-52.894-0.615-19.78-0.039-39.459-0.615-58.984-0.37-10.797-1.267-21.648-1.82-32.627-0.123-3.899-0.245-7.796-0.245-11.669 0-4.672 0.088-9.345 0.245-13.994 0.37-13.461 0.615-27.056 1.967-40.664 0.615-6.038 1.414-12.062 2.619-18.072 1.107-5.496 1.832-10.785 1.906-16.242 0.031-2.619 0.123-5.325 0.123-7.969 0.006-4.132-0.37-8.115-1.587-11.349l-0.004-0.012-0.089-0.123-0.37-0.615c-0.245-0.615-0.615-1.292-0.737-2.607-0.043-0.984 0.492-2.348 1.414-3.148v0c0.861-0.737 1.575-0.861 2.139-0.984 0.615-0.123 1.107-0.123 1.525-0.123 1.107 0.008 2.214 0.123 2.262 0.123h0.006c4.71 0.026 9.308 0.245 13.981 0.737 12.628 1.107 25.143 2.459 37.575 2.447h0.615c7.525-0.026 15.014-0.123 22.546-0.37 3.971-0.123 7.993-0.37 12.089-0.492 4.538-0.088 8.891 0.004 13.11-0.245 7.945-0.492 15.714-0.37 23.308-0.984 5.964-0.492 12.075-1.635 18.54-2.139 3.025-0.245 6.074-0.37 9.1-0.37 5.582 0 11.128 0.245 16.555 0.615h-0.008c9.272 0.615 18.806 1.549 28.020 3.431 4.206 0.861 8.35 2.041 12.332 3.32h0.006c1.229 0.37 1.967 0.737 2.36 0.737l0.37 0.013c0.245 0.004 0.737-0.031 1.426-0.039h0.119c0.737 0.013 1.488 0.123 2.25 0.492 0.737 0.37 1.463 0.984 1.844 1.673 0.737 1.352 0.737 2.398 0.737 3.136l-0.026 1.253v0.013l-0.006 1.107c0 5.411 0.492 10.944 0.737 16.537v0.004c0.492 8.214 0.984 16.429 2.017 24.49 1.107 9.186 0.861 18.133 1.734 26.765 0.615 6.099 0.615 12.113 0.615 18.067 0 2.079-0.006 4.156-0.006 6.209 0 6.307 0.089 12.628 0.089 18.97 0 2.509-0.013 5.018-0.039 7.525-0.089 8.632-0.861 17.114-1.34 25.473-0.984 18.922-1.107 37.897-1.107 56.937v72.972c0 2.951-0.043 5.866-0.043 8.743 0 2.065 0.036 4.095 0.123 6.125 0.245 5.263 0.984 10.612 1.709 16.060 1.229 8.953 2.19 17.899 3.198 26.827 0.984 8.645 1.967 17.286 3.049 25.893v-0.006c0.37 3.049 0.615 6.099 0.615 9.162 0 1.107-0.026 2.163-0.089 3.258l-0.008 0.018c-0.123 3.222-0.861 6-0.861 8.435-0.039 0.861-0.042 1.784-0.042 2.668 0 5.042 0.492 10.231 0.492 15.669zM670.068 223.541l2.19 3.923c0.615 1.107 0.615 1.993 0.615 2.521l-0.013 0.737v-0.013l-0.008 1.438c0 1.229 0.008 2.41 0.008 3.628 0 0.984 0 1.93-0.012 2.903v0.492c-0.008 4.723 0.737 9.21 1.746 14.11v0.006c2.19 10.699 4.636 21.591 6.137 32.627 1.488 10.92 2.348 22.056 2.569 33.074 0.088 6.358 0.984 12.915 1.316 19.739v0.008c0.37 8.091 0.861 16.242 1.229 24.465v0.006c0.615 17.531 1.784 31.259 2.398 48.52 0.245 7.525 0.492 15.041 0.492 22.597v0.251c0 9.542-0.861 18.853-1.292 28.079-0.737 16.48-0.737 33.074-2.127 49.784-0.737 8.533-1.575 16.905-1.611 25.204 0 0.737-0.008 1.488-0.008 2.238 0 6 0.089 12.026 0.089 18.086 0 1.599-0.008 3.21-0.021 4.833-0.123 12.324-0.984 24.523-0.984 36.575 0 3.774 0.088 7.525 0.245 11.277v-0.008c0.37 6.923 0.737 13.865 1.525 20.519 0.492 4.365 0.737 8.547 0.984 12.719 0.123 2.73 0.492 5.484 0.861 8.115 0.123 0.861 0.37 2.497 0.615 3.025l0.026 0.042 3.493 5.275-6.432-0.37c-1.328-0.089-2.25-0.492-2.84-0.737-0.615-0.245-0.861-0.245-0.861-0.245h-0.035c-0.615-0.026-1.537 0.245-3.21 0.737v0c-1.918 0.492-3.762 0.861-5.509 1.328h0.013c-2.053 0.492-3.983 0.861-5.693 1.304-0.123 0-0.984 0.492-2.668 0.615l-0.984-0.088c-0.861-0.245-1.476-0.615-1.918-0.984l-1.107-1.107c-0.37-0.615-0.737-1.229-0.861-2.005-0.088-0.123-0.123-0.123-0.245-0.245l-1.869-2.262 1.599-1.549 0.035-0.615c0.006-0.984-0.088-2.005-0.123-2.951l0.030-0.615c0.615-5.509 1.709-10.514 1.697-15.405v-0.364l-0.004-1.241c0-4.501 0.245-9.001 0.737-13.405v-0.004c0.123-1.587 0.123-3.21 0.123-4.907 0-1.229-0.018-2.447-0.018-3.714l0.004-1.107c0.043-4.403 0.861-8.35 0.984-12.002 0.245-6.517 0.861-12.754 0.861-18.853v-0.245c-0.004-1.28-0.004-2.545-0.004-3.825v-4.475c0-5.633-0.036-11.227-0.245-16.784-0.245-3.923-0.615-7.82-0.984-11.829-0.615-5.275-0.37-10.329-0.615-15.136v0c-0.245-4.377-0.088-8.559-0.245-12.51v0.006c-0.245-4.082-0.37-8.115-0.37-12.187v-0.615c0.039-10.255 0.042-20.518 0.042-30.778 0-19.244-0.035-38.492-0.035-57.744v-22.536c0-7.464-0.042-14.902-0.737-22.151-0.615-7.342-0.861-14.55-1.229-21.691-0.492-7.957-1.476-16.072-2.792-24.029v0.006c-0.615-3.726-1.229-7.489-1.635-11.263-0.492-4.058-0.245-7.76-0.861-11.067l-0.006-0.004c-0.615-4.353-1.328-8.768-1.771-13.271v-0.008c-0.37-3.578-0.492-6.923-1.107-10.084v-0.006c-0.861-5.078-1.697-10.281-1.746-15.681v0.012c-0.008-1.685-0.245-3.604-0.492-5.669-0.042-0.615-0.088-1.107-0.123-1.599l-4.377-0.492 27.152-30.154zM966.183 557.154c-1.107-3.198-2.373-6.492-2.509-9.777-0.123-2.816 2.214-5.866 1.746-8.521-1.365-7.945-3.566-15.751-5.436-23.611-0.492 0.088-1.107 0.245-1.611 0.245-0.123 1.561-0.245 3.124-0.492 4.672-1.659-2.583-2.939-5.325-2.816-7.981 0.37-7.39 1.39-14.758 2.041-22.141 1.107-11.805 2.742-23.404-1.438-35.269-4.672-13.249-8.449-26.874-9.136-41.111-0.245-5.287-1.107-10.563-1.856-15.821-0.615-4.108-1.328-8.214-2.25-12.259-0.615-2.471-1.673-4.809-2.398-7.244-1.107-3.738-2.262-7.477-3.112-11.277-0.245-1.304 0.984-3.198 0.37-4.132-5.251-8.497-6.307-18.317-9.1-27.576-0.37-1.352-0.861-2.877-1.709-3.911-3.935-4.586-8.115-8.977-12.062-13.57-0.737-0.861-0.861-2.336-1.599-4.66-6.358-7.244-14.133-15.010-20.605-23.725-8.953-12.038-16.897-24.813-25.364-37.216-1.426-2.091-3.345-3.861-5.018-5.779-3.813-4.377-7.623-8.756-11.596-13.318 1.107-0.492 1.709-0.737 2.226-0.984-8.423-11.436-16.821-22.843-25.329-34.408-0.492 1.45-0.861 2.583-1.241 3.714-0.37 0.086-0.737 0.123-1.229 0.245-1.93-4.586-4.267-9.063-5.669-13.811-1.229-4.021-3.136-6.555-7.083-8.141-2.607-1.107-4.907-3.001-7.133-4.809-2.041-1.647-3.604-3.923-5.731-5.424-5.976-4.218-11.854-8.706-18.298-12.101-9.149-4.833-16.173-11.879-23.131-19.147-3.801-3.983-7.501-8.067-11.424-11.916-1.316-1.292-3.073-2.533-4.833-2.927-12.161-2.73-24.402-5.164-36.579-7.833-2.005-0.492-4.132-1.107-5.767-2.3-6.086-4.305-11.805-9.124-17.998-13.236-7.256-4.821-14.845-9.198-22.366-13.635-3.774-2.226-7.513-5.090-11.657-6.026-11.854-2.668-23.899-4.526-35.889-6.603-1.241-0.245-2.583 0.043-3.861 0.245-4.23 0.492-8.67 2.127-12.645 1.378-12.075-2.3-23.109 1.561-34.223 4.672-5.767 1.611-10.427 0.123-15.156-2.3-0.615-0.245-0.492-2.151-0.737-4.562-9.272-1.942-19.586-4.71-30.085-6.086-6.247-0.861-12.775 0.615-19.178 0.984-2.73 0.123-5.582 0.37-8.19-0.245-4.795-1.107-9.457-3.899-14.18-3.923-8.3-0.045-16.584 1.784-24.905 2.127-3.726 0.123-4.377 3.787-6.972 4.439-4.869 1.229-9.923 1.784-14.891 2.619-0.021-0.123-0.031-0.37-0.043-0.492 1.253-0.615 2.509-1.267 4.624-2.312-9.568-1.856-11.534-1.241-16.97 4.624-0.861 0.984-1.746 2.214-2.864 2.557-6.038 1.844-10.046 6.825-15.487 9.58-1.869 0.984-3.591 2.19-5.299 3.381-3.702 2.583-7.021 6.137-11.116 7.649-12.862 4.723-26.019 8.67-39.052 12.966-2.644 0.861-5.227 1.869-7.846 2.804 0.123 0.492 0.245 0.861 0.37 1.378l7.231-1.39c0.123 0.492 0.37 0.861 0.615 1.304-2.398 1.253-4.672 3.037-7.231 3.64-3.726 0.861-7.722 6.259-11.558 0.031-0.123-0.245-1.267-0.088-1.856 0.088-11.239 3.628-22.771 6.641-32.296 14.098-4.919 3.849-9.174 9.308-14.736 11.4-7.071 2.681-12.062 7.157-17.079 12.137-0.861 0.861-2.017 1.513-3.025 2.288-5.731 4.377-11.743 8.449-17.109 13.232-3.32 2.951-5.669 6.972-8.607 10.711-2.163-2.557-2.804-3.308-4.279-5.066-3.332 3.75-6.223 7.244-9.345 10.514-8.706 9.136-16.59 19.104-27.265 26.276-1.93 1.304-3.345 3.467-4.809 5.385-4.723 6.161-9.222 12.481-14.050 18.554-10.699 13.475-21.573 26.797-28.623 42.687-1.107 2.447-3.061 4.538-4.66 6.751-0.245 0.245-0.737 0.492-1.525 0.861 0.245-1.45 0.492-2.509 0.737-3.578-2.668 1.771-5.078 3.813-5.878 6.358-3.124 9.923-5.767 19.995-8.521 30.023-1.784 6.468-2.681 13.306-5.361 19.365-5.755 12.987-12.285 25.655-18.794 38.305-1.328 2.583-4.735 4.156-5.853 6.775-2.447 5.669-4.599 11.596-5.866 17.617-2.348 11.239-3.873 22.636-6 33.919-0.615 3.124-2.607 6.026-2.975 9.136-2.091 17.73-0.861 35.846-6.838 53.144-4.046 11.657-2.202 24.106 0.018 35.385 3.652 18.599 3.885 37.094 4.255 55.761 0.088 4.538 1.856 9.124 3.381 13.501 2.84 8.166 6.086 16.203 9.112 24.311 0.245 0.737 0.492 1.575 0.245 2.238-0.984 3.443-1.832 7.157 1.561 9.457 6.394 4.317 8.374 10.317 8.178 17.507-0.021 1.107 0.37 2.214 0.615 3.332 3.222 19.079 11.080 36.489 20.093 53.38 5.681 10.661 12.395 20.792 18.558 31.213 2.877 4.857 5.582 9.813 8.276 14.777 2.766 5.103 4.586 11.018 8.35 15.243 7.193 8.067 15.084 15.678 23.426 22.597 9.469 7.858 20.171 13.938 27.343 24.697 5.005 7.513 13.148 12.901 19.018 19.946 9.308 11.179 17.777 23.039 26.874 34.408 1.635 2.029 4.475 4.034 6.948 4.291 7.735 0.861 15.557 1.107 23.338 1.107 165.346-0.615 330.699-1.352 496.034-2.065 3.578-0.021 7.169 0.006 10.723-0.37 1.45-0.123 3.32-0.861 4.132-1.906 7.637-10.206 15.057-20.562 22.624-30.825 1.107-1.513 2.471-2.951 3.997-4.034 5.594-4.021 11.313-7.882 16.978-11.805 0.984-0.737 1.981-1.808 3.124-2.091 13.5-3.308 24.562-9.395 29.372-23.504 1.659-4.857 3.971-9.529 6.382-14.090 3.455-6.555 6.763-13.269 11.054-19.266 7.882-11.042 16.485-21.578 24.679-32.402 1.34-1.771 2.398-3.825 3.198-5.915 9.345-24.553 18.641-49.093 30.995-72.431 3.32-6.271 5.14-14.394 4.538-21.404-1.304-15.031 0.123-29.166 6.838-42.725 0.984-1.882 1.575-3.885 2.386-5.817 3.381-8.115 6.283-16.502 10.391-24.249 1.993-3.75 3.702-6.8 2.288-11.018z"></path>
    <path fill="#000000" d="M258.634 890.682c4.034 3.702 7.969 7.501 12.137 11.092 1.39 1.229 3.258 2.36 5.116 2.718 12.927 2.533 25.916 4.809 38.858 7.28 2.127 0.492 4.377 1.107 6.125 2.151 6.456 4.009 12.528 8.473 19.105 12.307 7.71 4.488 15.765 8.559 23.759 12.68 4.009 2.065 7.993 4.747 12.377 5.607 12.593 2.485 25.395 4.193 38.115 6.149 1.328 0.245 2.754-0.042 4.108-0.123 4.501-0.492 9.198-1.993 13.431-1.292 12.811 2.139 24.546-1.463 36.345-4.341 6.137-1.513 11.080-0.123 16.111 2.151 0.615 0.245 0.492 1.993 0.861 4.242 9.849 1.808 20.801 4.377 31.95 5.657 6.629 0.737 13.566-0.615 20.372-0.861 2.903-0.123 5.928-0.37 8.694 0.245 5.103 0.984 10.046 3.616 15.061 3.652 8.804 0.043 17.618-1.659 26.453-1.981 3.959-0.123 4.648-3.517 7.402-4.132 5.177-1.107 10.538-1.659 15.816-2.435 0.018 0.123 0.031 0.245 0.043 0.492-1.34 0.615-2.668 1.229-4.931 2.151 10.17 1.734 12.259 1.107 18.029-4.305 0.984-0.861 1.856-2.065 3.049-2.386 6.419-1.721 10.686-6.346 16.455-8.915 1.981-0.861 3.801-2.029 5.633-3.148 3.935-2.398 7.452-5.719 11.805-7.119 13.67-4.403 27.633-8.079 41.489-12.062 2.792-0.861 5.546-1.746 8.324-2.619-0.123-0.492-0.245-0.861-0.37-1.28-2.569 0.492-5.128 0.861-7.685 1.292-0.245-0.37-0.492-0.861-0.615-1.229 2.545-1.107 4.968-2.828 7.673-3.381 3.959-0.861 8.202-5.817 12.297-0.026 0.123 0.245 1.328 0.088 1.955-0.089 11.94-3.381 24.185-6.185 34.309-13.122 5.227-3.578 9.738-8.658 15.646-10.612 4.341-1.426 7.894-3.455 11.179-5.779h-540.263c4.919 3.493 9.419 7.39 13.829 11.436z"></path>
    </svg>