<svg xmlns="http://www.w3.org/2000/svg" viewBox="62.781 63.948 905.053 896.092">
    <path fill="#000000" d="M642.331 583.742c-39.773 0-54.509-49.611-54.509-89.17s5.892-77.469 54.509-77.469c48.622 0 54.52 37.912 54.52 77.469s-14.731 89.17-54.52 89.17zM676.317 632.251c-1.537 1.808-3.48 1.439-5.523 1.624-1.993 0.123-4.023 0.37-5.966 0.861l-0.123-0.123c0.861-3.173 2.435-6.187 4.921-8.377 1.23-0.985 2.865-1.71 4.453-1.107l0.37 0.123c3.199 1.107 4.047 4.613 1.895 7.133zM526.899 486.639c-39.783 0-54.51-49.611-54.51-89.169s5.892-77.469 54.51-77.469c48.63 0 54.52 37.912 54.52 77.469s-14.733 89.169-54.52 89.169zM522.544 689.755c-39.783 0-54.52-49.603-54.52-89.16s5.892-77.474 54.52-77.474c48.622 0 54.514 37.918 54.514 77.474s-14.735 89.16-54.514 89.16zM407.083 583.876c-39.779 0-54.515-49.611-54.515-89.17s5.904-77.469 54.515-77.469c48.627 0 54.52 37.912 54.52 77.469s-14.733 89.17-54.52 89.17zM767.972 528.202c-4.157 4.207-5.154 8.094-10.702 10.801-11.022 5.399-24.492-1.107-30.814-11.144-2.853-4.515-3.050-8.241-2.989-13.653 0.042-4.305 4.17-14.259-2.005-12.55-1.796 0.492-4.403-0.245-5.215-2.104l-0.492-1.23c-1.391-3.149-0.985-6.766 2.289-8.647 5.867-3.444 13.923-2.534 18.738 2.62 7.578 8.070-0.861 20.456 5.339 28.179 10.431 12.917 21.884-9.41 31.24-12.866 4.047-1.501 8.733-1.561 13.17-0.615-4.023-14.967-7.429-28.957-14.637-28.21-8.843 0.861-13.111-11.538-7.133-17.085 4.354-4.047 10.911-6.223 14.287-11.231 6.298-9.312 2.644-24.070-6.408-30.783-7.208 4.059-16.199 7.294-18.628 6.999-8.561-0.985-17.675-7.527-22.855-14.142-4.33-5.536-5.19-11.305-12.407-14.735-9.213-4.379-15.6 2.104-10.652 11.526 2.472 4.698-3.334 9.004-7.245 5.56-11.010-9.718-7.381-30.428 6.052-36.936 7.959-3.85 17.462-1.254 24.535 3.050 1.549 0.985 7.011 4.993 11.612 9.348 0.985-3.641 2.301-7.356 4.33-10.467 0.861-1.378 1.857-2.57 2.877-3.703l-0.615-0.492c-3.125-2.275-5.608-3.444-8.094-6.569-2.104-2.656-3.137-6.617-4.823-9.163-5.202 1.427-10.813 1.267-15.318-0.737-4.686-2.152-4.109-9.249 0-11.562 4.305-2.411 10.332-4.059 15.6-3.334 2.546-3.874 2.202-9.877-1.857-12.3-2.853 0.985-6.064 1.34-9.742 0.985-4.059-0.492-10.652-4.969-14.527-4.157-5.646 4.145-11.305 8.291-16.946 12.44-0.492 2.805-0.737 5.634-0.615 8.463-2.989 4.945-5.019 8.044-10.21 11.599-2.46 1.686-5.265-2.079-3.149-4.047 9.84-9.189 8.869-23.272 19.483-31.55 7.614-5.954 16.946-2.817 24.569-5.215l0.088-0.245c-0.615-0.245-1.28-0.492-1.967-0.861-10.087-4.907-12.327-15.071-19.376-21.675-0.861 0.985-1.71 2.079-2.755 2.829-2.164 1.501-5.253 2.779-7.823 3.271-6.47 1.254-10.702-1.391-14.475-6.42-4.847-6.42-8.155-13.451-12.837-19.959-0.861 4.489-4.047 8.082-4.957 12.288-2.017 9.386-3.801 4.638 2.608 15.097 3.886 6.348 7.59 11.488 3.161 19.118-5.646 9.73-15.404 3.444-21.411 10.049 1.23-1.34 4.453 6.839 3.665 11.526-1.771 10.578-14.306 14.987-16.060 26.261-0.737 4.686-8.673 4.613-9.458 0-1.821-10.702-0.861-11.574 4.28-20.112 2.916-4.907 6.826-5.277 7.22-11.685 0.089-1.501-3.211-3.346-3.101-5.19 0.245-4.551 0.985-6.593 3.862-10.32 1.895-2.498 4.736-3.949 6.643-6.089 1.686-0.861 3.506-0.985 5.474-0.245-1.967-2.116-3.862-4.268-5.707-6.47-5.068-7.282-10.222-10.013-9.127-19.744 0.985-8.253 7.688-14.559 9.754-22.387-3.689-1.833-7.16-4.182-11.132-5.399-6.605-2.005-12.407-1.107-18.997 0.737-2.57 0.737-4.835-0.861-5.695-3.211-0.985-2.583-1.686-6.199-2.656-9.643-6.237 0.086-12.878-0.492-16.815 2.767-5.88 4.969-2.891 14.559-7.626 20.839-4.354 5.769-11.858 13.859-18.684 16.733-0.615 0.245-4.366 1.107-5.253 0.985l-0.245 0.123c-0.615 1.919 1.746 6.839 2.092 8.561 0.985 4.724-5.277 7.578-7.921 3.31-0.985-1.501-1.771-3.185-2.411-4.945-2.558 0.492-5.462-0.861-5.253-4.109 0.37-5.548 1.561-10.013 6.679-13.083 2.238-1.328 4.391-1.955 6.372-2.399 0.737-1.107 1.501-2.325 2.337-3.629 1.907-2.94 5.117-5.596 7.405-8.463l0.004-0.245c-0.245-12.288-3.605-22.947 3.531-33.469-6.408 3.211-12.301 6.912-14.211 10.467-1.808 3.346-5.867 4.515-9.386 3.788-7.085-1.451-9.607-4.441-14.763-8.771-5.228-4.403-4.379-4.527-12.705-5.019-1.365-0.086-2.681-0.123-3.973-0.245-1.107 1.463-2.301 2.904-3.703 4.318-1.23 2.731-3.087 5.474-6.052 8.155-2.916 2.632-6.728 4.22-10.013 6.237-3.874 3.936-6.703 8.044-6.839 12.632l0.012 0.737c0.043 1.943 0.615 3.973 1.722 6.113 5.253 9.667 27.042 9.816 23.372 25.545-3.31 14.212-18.039 15.601-26.929 6.655-2.644-2.656 0.737-7.109 4.023-5.178 6.322 5.437 9.028 1.549 8.142-11.673-3.31-2.152-6.839-3.801-10.628-4.945-2.719-1.587-4.182-0.861-6.113-3.432-1.919-2.498-2.62-5.253-2.755-8.094-1.107-0.861-1.919-2.104-2.325-3.271-2.916-8.094-4.33-17.666-3.322-26.678-7.441 2.214-16.471 10.246-23.424 11.55-6.545 1.23-12.005-0.737-17.058-3.838-0.492 0.245-0.985 0.615-1.403 0.861 2.275 7.651-2.891 16.060 0.615 23.618 3.567 7.724 15.218 11.55 21.111 17.826 6.446 6.876 8.819 15.813 3.727 24.058-1.23 1.967-4.6 2.301-5.719 0-2.263-4.588-5.044-15.097-8.192-17.015-3.297-2.017-6.494-0.737-9.766-1.328-6.223-1.23-11.809-4.391-15.382-9.779-3.283-4.921-4.736-11.243-3.838-17.105 0.089-0.492 0.245-1.23 0.492-1.784-1.107 0.043-2.177 0.043-3.259-0.006-4.772 2.485-10.135 2.066-14.931 0.039-1.955 1.477-4.145 2.877-5.843 4.059-3.567 0.985-4.342 1.463-2.337 1.34-0.615 0.861-1.34 1.673-2.152 2.387-0.045 6.113-1.23 13.377-3.677 18.949l-0.123 0.245c0.492 0.37 0.861 0.737 1.28 1.23 8.795 7.172 23.121 7.491 32.418 13.956 7.799 5.425 14.641 16.233 13.383 26.486-0.492 3.468-2.755 5.929-3.605 9.446-0.861 2.964-1.107 5.978-0.861 9.028 0.985 4.638 3.247 5.327 6.679 2.066-5.092-5.572 2.877-13.6 8.365-8.303 10.947 10.578-2.361 25.915-15.582 21.050-5.154-1.895-8.327-4.22-9.989-9.225-1.513-4.527 0.615-10.861 0.245-15.539-1.648-18.425-4.871-13.978-18.161-17.425-21.102-5.486-36.31-13.001-44.095-33.158-1.919 12.141-2.546 24.213 2.534 33.812 1.107 2.177 1.513 4.318 1.328 6.298 0.492 1.107 0.861 2.152 1.451 3.259 1.403 2.767 3.223 5.584 3.653 8.721 0.088 0.737-0.492 1.378-1.242 1.23-1.833-0.245-3.518 0.37-5.327-0.37-1.513-0.615-2.558-1.967-3.518-3.235-1.845 0.492-3.703 0.37-5.351-0.37-1.821 0.088-3.727-0.245-5.621-1.107-11.476-5.411-29.746 2.079-29.252 15.344 4.736 0.737 9.201 2.423 13.105 5.683 8.586 7.147 9.028 20.675 21.796 22.802 12.301 2.054 12.091-7.736 20.99-12.827 12.387-7.085 29.126 1.673 26.3 15.687-0.985 4.638-7.515 4.921-9.754 1.267-2.817-4.575-22.244 10.861-26.619 11.92-8.906 2.177-24.266-1.967-31.26-7.762-5.228-4.354-6.211-12.054-13.117-14.866-8.142-3.31-22.301 3.74-29.399 8.008-6.139 3.677-10.479 8.524-13.842 13.998 2.731 16.443-12.054 42.655 1.771 46.921 5.805-1.439 12.701-1.943 18.073-0.737 2.891 0.615 4.772 2.005 7.527 3.173 0.861 0.245 1.561 0.737 2.177 1.378 8.291 10.689 15.387 10.357 21.285-0.985-7.245-4.489-0.615-15.86 6.703-11.365 11.046 6.802 14.080 23.485 1.981 31.959-15.244 10.664-29.407-6.655-42.448-10.578-18.312-5.51-26.046 9.336-27.394 23.676 3.641 0.492 7.393 1.66 10.344 3.113 4.379 2.152 9.163 4.318 12.649 7.861 1.883 1.931 2.853 4.453 4.244 6.629 0.37-0.37 8.267 6.728 10.75 7.676 0.37-1.648 0.737-3.137 1.107-3.924 1.883-3.468 7.121-2.472 8.192 1.107 1.107 3.801 0.245 6.937-1.746 9.373-0.245 2.829-0.492 5.596-2.731 7.602-3.591 3.125-6.999 1.648-11.329 2.238-15.7 2.128-21.301 17.427-24.507 31.933 5.548 8.819 10.702 17.804 19.353 24.326 5.56 4.182 8.327 8.819 11.377 5.659 1.771-1.833 0.985-7.455 2.104-9.89 2.767-6.298 5.671-8.942 12.227-10.407 5.769-1.28 11.403 2.289 16.611-2.669 4.698-4.477 2.681-22.72-5.929-15.539-2.767 2.313-6.581 0.737-6.9-2.829-1.771-19.677 25.021-13.135 29.963 0.245 2.361 6.396 0.615 19.041-3.161 24.803-5.092 7.688-19.149 8.425-22.764 15.067-5.399 9.927 1.513 19.201-13.013 23.874-13.743 4.417-25.979-2.904-36.82-10.369-0.615 3.074-1.673 6.446-3.173 10.419-0.615 1.686-1.304 2.289-1.857 2.743-0.088 1.624-0.492 3.062-1.107 4.28 0.861 3.752 4.453 7.539 7.455 9.816l0.861 0.615c9.521-1.304 15.561-5.608 25.203-1.267 3.408 1.537 5.892 2.817 8.142 5.942 0.985 1.71 1.907 3.493 2.596 5.351l0.245 0.985c3.985 1.316 2.289-0.737 8.192-2.695 2.19-0.737 3.677-1.107 5.584-0.985 0.492-0.737 0.985-1.624 1.525-2.301 4.318-5.215 11.992-6.211 16.065-11.415 2.743-3.493 1.28-7.602 5.56-11.070 10.222-8.267 22.803 1.403 33.171-2.51 3.579-1.352 7.712 2.817 6.384 6.335-1.895 5.117-4.662 5.659-9.73 6.703-4.453 0.861-15.453-2.349-18.92 0.492-1.686 1.365-0.492 7.208-1.698 8.93-5.596 7.736-10.32 6.335-17.153 11.464-4.748 3.555-7.011 7.945-7.736 13.915-1.931 15.939 2.498 11.353 9.718 18.937 3.518 3.689 6.433 9.288 7.515 14.216 3.703 16.625-5.117 12.005 10.935 19.128 0.492 0.245 0.985 0.492 1.537 0.615 0.045-4.28 0.985-8.020 2.423-13.153 0.37-1.328 0.985-2.387 1.821-3.31 0.492-3.271 1.23-6.569 1.919-10.172 2.164-10.566-3.395-22.169 2.423-32.184 4.391-7.602 14.476-13.721 22.621-16.3 16.75-5.313 43.094 5.032 42.018 25.897-0.492 10.283-12.792 21.775-21.411 11.034-2.964-3.689-0.245-8.843 4.638-7.897 10.899 2.116-1.549-9.3-2.928-10.369-7.073-5.474-14.802-7.749-21.714 0.615-5.536 6.741-2.707 15.778-2.46 23.627 0.123 5.277-2.238 9.619-2.558 14.425-0.615 9.852 3.703 17.852 8.721 26.058 2.976 4.859 5.117 11.944 5.954 19.349l0.492 0.737c2.399 3.050 16.455 12.042 20.615 11.18 8.18-1.673 4.969-14.985 6.569-20.113 4.194-13.526 20.994-8.843 31.001-11.219 5.339-1.254 12.796-6.715 5.88-12.288-2.976-2.387-8.561-1.352-12.383-2.644-0.737-0.245-1.575-0.737-2.226-1.292-3.456 0.37-7.073-1.463-7.578-4.588-0.492-0.123-0.985-0.37-1.525-0.737-1.561-1.328-2.005-3.395-2.177-5.339-0.245-3.641 5.253-4.981 6.888-1.857 0.615 1.107 1.378 2.251 1.66 3.518l0.021 0.245c0.615 0.245 1.489 0.615 2.042 1.23l0.012 0.008 0.245 0.008c0.245-0.123 0.861-0.042 1.292 0.089 12.471-5.523 26.367-0.737 29.463 13.395 1.636 7.343 0.615 14.815-5.301 19.713-2.546 2.092-5.425 3.026-8.512 3.801-3.42 0.861-22.665-0.123-22.721-0.088 0.245-0.37 1.23 4.489 1.907 8.869 1.981 2.558 4.292 6.002 6.864 6.519 6.814 1.365 7.417-3.543 12.368-6.125 7.417-3.874 15.715-6.223 23.966-1.796 4.244 2.275 13.911 17.071 8.413 12.984 9.127 7.873 20.438 15.253 30.393 21.902 2.349 1.575 5.044 3.776 7.651 6.31 0.492-0.615 1.107-1.107 1.66-1.796 0.985-1.107 2.805-3.050 3.395-4.823-0.245-0.006-0.861-0.737-1.439-1.328-3.997-4.071-10.64-5.178-14.62-10.296-3.641-4.686-5.462-9.458-4.993-15.408 0.985-11.612 8.339-23.457 19.036-28.388 5.437-2.51 23.945-3.247 19.201-9.914-1.23-1.66 0.37-4.22 2.361-4.095 9.386 0.615 12.69 10.037 8.413 17.865-3.973 7.258-10.025 5.916-15.505 10.505-6.384 5.339 1.391 7.245 6.802 11.403 7.503 5.769 12.313 12.957 13.867 20.632 2.263-1.771 4.6-3.591 7.035-5.068 1.845-1.107 7.011-2.373 8.279-3.899 2.596-3.137-0.861-7.651-0.737-12.030 0.123-2.695 2.695-5.032 5.51-4.157 9.533 2.952 9.939 9.36 10.381 18.081 0.245 4.638 1.267 8.685 3.629 12.263 3.026 1.513 5.596 3.862 7.27 7.035 0.492 0.245 0.985 0.615 1.427 0.861 0.985-8.45 5.080-17.423 9.643-20.955 2.472-1.907 6.273-4.674 9.989-6.408-6.987-3.715-12.091-9.902-13.225-17.756-1.292-8.882 4.292-15.018 5.584-23.432 2.817-18.095-3.074-12.919-12.74-19.037-4.588-2.891-7.971-7.049-8.586-12.596-0.861-7.515 3.444-8.070-0.492-15.040-2.534-4.563-8.229-7.724-11.956-11.415-2.19-2.164 0.026-6.199 3.101-5.265 8.18 2.546 19.752 4.539 23.97 12.901 4.194 8.279-1.365 10.947 6.322 15.825 8.476 5.375 12.62 3.973 17.47 14.329 5.228 11.144 1.943 20.035 2.017 31.017 0.37-0.37 0.861-0.737 1.636-0.737 6.396-0.737 12.018-0.615 17.916 1.931l0.37-1.23c1.463-5.154 2.092-14.706 5.536-19.357 7.945-10.702 24.561-2.596 35.062-5.843 4.772-1.477 10.148-5.411 15.079-10.27-10.148 1.254-19.509 1.549-29.55-2.976-4.711-2.128-10.714-4.354-14.532-7.983-2.005-1.895-2.755-2.841-3.912-5.142-0.089-0.615-0.123-1.23-0.245-1.796 0.492-4.342-1.328-6.655-5.301-6.912-8.118-8.229-9.336-10.75-4.268-21.892 0.37-0.861 1.587-0.492 1.845 0.245 3.062 8.647 14.758 7.023 19.245 14.763 3.026 5.215 0.492 10.849 6.076 14.483 5.523 3.567 3.322 1.242 7.602-2.46 3.161-2.731 5.855-5.88 8.954-8.622 6.975-6.163 14.663-10.332 24.144-10.493 3.703-0.043 7.429 0.492 10.983 1.624 2.877-2.349 6.545-3.211 9.261-5.695-0.985-4.035-1.267-8.155-0.615-11.858 1.513-8.697 9.989-17.891-0.615-21.961-9.163-3.531-17.131 0.615-24.166-10.849-2.202-3.579-2.017-7.614-4.095-11.095-3.924-6.531-10.27-3.002-12.941 3.493-0.861 2.177-4.318 2.681-5.005 0-2.522-9.667 9.091-17.687 18.039-17.661 5.215 0.004 9.693 1.955 13.023 6.089 2.731 3.408 2.644 9.028 6.778 11.034 2.695 1.304 8.634-1.673 11.193-2.202 6.802-1.391 13.048-1.537 18.486-0.245 2.928-2.767 5.707-4.305 10.123-6.814 3.334-6.384 5.793-13.097 6.754-16.733 1.821-6.876 3.764-14.294 3.874-21.475 0.088-5.277 0.245-12.3-3.283-16.75-8.168-10.172-13.59-3.899-20.109 2.669z"></path>
    <path fill="#000000" d="M831.795 536.586c-3.297 17.709-12.141 33.482-16.653 50.788-3.788 14.563-7.651 31.182-14.684 44.526-3.506 6.679-8.831 9.336-13.066 15.232-3.85 5.351-5.904 14.16-8.843 20.116-6.987 14.22-14.805 27.065-24.322 39.71-9.163 12.165-22.123 20.413-33.271 30.765-12.227 11.365-24.381 22.751-37.165 33.495-4.403 3.703-9.079 6.778-13.895 9.533-7.774 6.79-18.165 11.12-28.939 13.539-17.418 7.626-31.366 16.099-50.407 18.727-28.725 3.973-58.619 11.231-86.968 3.37-21.272-5.892-43.541-5.56-64.708-11.98-19.804-6.014-40.864-12.463-60.035-20.153-36.599-14.684-68.092-47.95-95.527-75.187-14.236-14.133-28.58-26.873-40.785-42.925-10.983-14.457-15.514-26.639-21.823-43.193-11.747-30.818-23.033-65.369-26.034-98.677-1.895-20.92-0.615-41.605 5.241-61.788 5.044-17.423 13.964-34.038 18.224-51.452 7.491-30.544 22.444-59.014 43.142-83.019 5.080-5.892 10.381-9.446 16.224-14.32 7.393-6.175 11.87-13.682 18.411-20.538 9.569-10.025 20.243-23.080 31.291-31.356 13.895-10.407 31.681-18.828 46.799-27.241 8.291-4.626 17.349-6.261 25.455-11.231 6.285-3.85 11.305-7.614 18.433-9.914 11.526-3.715 20.544-5.351 30.919-12.030 7.539-4.847 13.968-8.697 22.763-10.714 17.028-3.899 36.337-4.588 53.647-3.432 18.734 1.267 38.143-2.301 56.42 2.447 14.343 3.715 24.565 8.512 39.276 7.602 7.724-0.492 11.747 6.999 10.873 13.387 2.779 0.861 5.584 1.624 8.685 1.943 5.671 0.615 10.16-0.492 15.53 1.833 16.816 7.258 30.037 21.285 46.574 29.256 11.44 5.51 23.952 13.951 32.901 22.855 8.425 8.389 17.036 16.386 24.951 25.627 11.415 13.352 15.114 29.309 23.758 44.145 8.044 13.782 17.804 28.287 23.766 43.319 8.622 9.852 12.227 23.688 9.545 37.587 2.238 10.997 4.883 21.861 10.407 32.6 14.889 28.957 9.509 56.539 3.886 86.735zM966.42 557.439c-1.107-3.199-2.373-6.482-2.51-9.792-0.123-2.817 2.214-5.867 1.746-8.524-1.365-7.959-3.567-15.752-5.437-23.624-0.492 0.088-1.107 0.245-1.612 0.245-0.123 1.561-0.245 3.125-0.492 4.674-1.648-2.583-2.94-5.313-2.805-7.971 0.37-7.405 1.391-14.766 2.042-22.152 0.985-11.809 2.731-23.415-1.439-35.284-4.662-13.242-8.45-26.882-9.139-41.124-0.245-5.289-1.107-10.566-1.857-15.817-0.615-4.121-1.34-8.217-2.263-12.276-0.615-2.472-1.673-4.809-2.399-7.258-1.107-3.74-2.263-7.479-3.113-11.279-0.245-1.292 0.985-3.199 0.37-4.133-5.253-8.5-6.31-18.312-9.103-27.58-0.37-1.365-0.861-2.877-1.71-3.912-3.936-4.6-8.13-8.992-12.067-13.582-0.737-0.861-0.861-2.337-1.599-4.662-6.36-7.245-14.136-15.015-20.612-23.723-8.954-12.042-16.897-24.829-25.367-37.232-1.427-2.092-3.346-3.862-5.032-5.793-3.814-4.379-7.626-8.757-11.599-13.314 1.107-0.492 1.71-0.737 2.226-0.985-8.425-11.44-16.827-22.851-25.336-34.419-0.492 1.451-0.861 2.583-1.242 3.715-0.37 0.088-0.737 0.123-1.23 0.245-1.931-4.6-4.268-9.079-5.671-13.821-1.23-4.023-3.137-6.557-7.085-8.142-2.608-0.985-4.907-3.002-7.133-4.809-2.042-1.648-3.605-3.924-5.733-5.425-5.966-4.22-11.858-8.709-18.304-12.103-9.151-4.823-16.177-11.882-23.134-19.153-3.801-3.973-7.503-8.057-11.428-11.92-1.316-1.292-3.074-2.546-4.835-2.94-12.165-2.719-24.404-5.166-36.586-7.823-2.005-0.492-4.133-1.107-5.769-2.301-6.089-4.305-11.809-9.115-17.999-13.23-7.27-4.835-14.854-9.213-22.373-13.639-3.776-2.226-7.527-5.092-11.661-6.027-11.858-2.669-23.905-4.515-35.899-6.605-1.242-0.245-2.583 0.043-3.862 0.245-4.232 0.492-8.673 2.14-12.649 1.378-12.079-2.289-23.121 1.575-34.234 4.674-5.769 1.624-10.431 0.123-15.167-2.301-0.615-0.245-0.492-2.152-0.737-4.563-9.275-1.943-19.593-4.711-30.093-6.076-6.249-0.861-12.775 0.615-19.18 0.861-2.731 0.123-5.584 0.37-8.192-0.245-4.796-1.107-9.446-3.886-14.181-3.924-8.303-0.045-16.594 1.784-24.917 2.128-3.727 0.123-4.379 3.801-6.963 4.441-4.883 1.23-9.927 1.784-14.897 2.62-0.018-0.123-0.031-0.37-0.042-0.492 1.254-0.615 2.51-1.254 4.638-2.313-9.569-1.857-11.55-1.23-16.975 4.626-0.861 0.985-1.746 2.226-2.865 2.558-6.040 1.857-10.061 6.826-15.496 9.583-1.869 0.985-3.579 2.19-5.301 3.382-3.703 2.583-7.023 6.151-11.12 7.651-12.871 4.724-26.032 8.685-39.067 12.97-2.644 0.861-5.228 1.869-7.835 2.817 0.123 0.492 0.245 0.861 0.37 1.378l7.232-1.391c0.245 0.492 0.37 0.861 0.615 1.292-2.399 1.254-4.674 3.038-7.232 3.641-3.74 0.861-7.724 6.249-11.574 0.026-0.123-0.245-1.267-0.088-1.857 0.088-11.243 3.629-22.778 6.643-32.311 14.103-4.921 3.862-9.177 9.312-14.741 11.415-7.073 2.669-12.067 7.147-17.085 12.141-0.861 0.861-2.017 1.513-3.026 2.275-5.745 4.379-11.747 8.45-17.118 13.236-3.322 2.952-5.683 6.975-8.622 10.714-2.152-2.57-2.793-3.322-4.28-5.080-3.334 3.764-6.223 7.245-9.348 10.517-8.709 9.139-16.588 19.111-27.267 26.28-1.943 1.304-3.346 3.48-4.809 5.387-4.724 6.163-9.225 12.481-14.054 18.556-10.702 13.477-21.575 26.803-28.632 42.703-1.107 2.46-3.062 4.527-4.662 6.754-0.245 0.245-0.737 0.492-1.513 0.861 0.245-1.439 0.492-2.51 0.737-3.567-2.669 1.771-5.080 3.814-5.88 6.36-3.125 9.927-5.769 19.992-8.524 30.028-1.784 6.47-2.681 13.306-5.363 19.37-5.745 12.997-12.276 25.668-18.797 38.311-1.316 2.583-4.736 4.17-5.855 6.778-2.447 5.683-4.6 11.599-5.855 17.621-2.349 11.243-3.886 22.643-6.002 33.929-0.615 3.125-2.608 6.027-2.976 9.139-2.092 17.744-0.861 35.856-6.839 53.16-4.047 11.661-2.202 24.115 0.019 35.4 3.653 18.607 3.886 37.101 4.256 55.783 0.088 4.527 1.857 9.115 3.382 13.503 2.841 8.168 6.089 16.204 9.127 24.31 0.245 0.737 0.492 1.575 0.245 2.238-0.985 3.444-1.833 7.16 1.561 9.446 6.396 4.318 8.389 10.32 8.18 17.515-0.026 1.107 0.37 2.226 0.615 3.334 3.235 19.080 11.082 36.498 20.1 53.391 5.683 10.664 12.397 20.807 18.568 31.221 2.865 4.859 5.572 9.816 8.267 14.784 2.767 5.104 4.588 11.022 8.339 15.244 7.208 8.082 15.093 15.683 23.436 22.603 9.471 7.861 20.18 13.942 27.356 24.709 5.005 7.515 13.148 12.901 19.019 19.957 9.312 11.18 17.787 23.046 26.887 34.41 1.624 2.030 4.477 4.035 6.937 4.305 7.736 0.861 15.566 1.107 23.35 1.107 165.39-0.615 330.791-1.352 496.177-2.079 3.579-0.021 7.172 0.006 10.726-0.37 1.451-0.123 3.31-0.861 4.133-1.907 7.638-10.21 15.062-20.577 22.63-30.844 1.107-1.501 2.472-2.952 3.997-4.035 5.596-4.023 11.317-7.885 16.985-11.809 0.985-0.737 1.981-1.808 3.137-2.092 13.5-3.31 24.565-9.398 29.378-23.51 1.66-4.859 3.973-9.533 6.384-14.099 3.456-6.557 6.778-13.274 11.058-19.271 7.885-11.034 16.485-21.583 24.682-32.41 1.34-1.758 2.411-3.826 3.199-5.916 9.336-24.561 18.645-49.1 31-72.444 3.322-6.285 5.154-14.402 4.539-21.419-1.292-15.036 0.123-29.174 6.852-42.737 0.985-1.869 1.575-3.886 2.387-5.817 3.382-8.118 6.285-16.502 10.395-24.248 1.993-3.752 3.703-6.814 2.289-11.034z"></path>
    <path fill="#000000" d="M258.071 890.67c4.047 3.703 7.971 7.503 12.141 11.095 1.391 1.23 3.259 2.349 5.117 2.731 12.929 2.534 25.922 4.809 38.875 7.282 2.128 0.492 4.379 1.107 6.125 2.14 6.458 4.011 12.532 8.488 19.111 12.315 7.724 4.489 15.77 8.561 23.765 12.683 4.011 2.066 7.995 4.748 12.381 5.608 12.596 2.485 25.403 4.207 38.129 6.151 1.316 0.245 2.755-0.043 4.109-0.123 4.489-0.492 9.201-1.993 13.43-1.292 12.817 2.14 24.557-1.463 36.36-4.342 6.125-1.513 11.070-0.123 16.111 2.14 0.615 0.245 0.492 2.005 0.861 4.244 9.852 1.808 20.808 4.379 31.964 5.659 6.629 0.737 13.565-0.615 20.374-0.861 2.904-0.123 5.929-0.37 8.709 0.245 5.092 0.985 10.037 3.617 15.062 3.653 8.807 0.042 17.622-1.66 26.462-1.981 3.961-0.123 4.65-3.518 7.405-4.133 5.178-1.107 10.529-1.648 15.815-2.435 0.021 0.123 0.035 0.245 0.043 0.492-1.34 0.615-2.669 1.23-4.933 2.164 10.172 1.734 12.263 1.107 18.035-4.305 0.985-0.861 1.857-2.066 3.050-2.387 6.42-1.722 10.676-6.348 16.455-8.918 1.981-0.861 3.801-2.030 5.634-3.149 3.936-2.399 7.455-5.719 11.809-7.121 13.669-4.417 27.642-8.082 41.497-12.067 2.805-0.861 5.548-1.734 8.327-2.62-0.123-0.492-0.245-0.861-0.37-1.28-2.57 0.492-5.117 0.861-7.676 1.292-0.245-0.37-0.492-0.861-0.615-1.23 2.534-1.107 4.957-2.829 7.676-3.382 3.961-0.861 8.204-5.817 12.3-0.026 0.123 0.245 1.34 0.089 1.967-0.088 11.944-3.382 24.187-6.187 34.315-13.131 5.228-3.579 9.742-8.659 15.652-10.616 4.342-1.439 7.897-3.468 11.18-5.769h-540.422c4.921 3.493 9.422 7.393 13.829 11.428z"></path>
    </svg>