<svg xmlns="http://www.w3.org/2000/svg" viewBox="62.835 63.958 905.215 896.085">
    <path fill="#000000" d="M768.459 548.708c-0.245 1.477-0.738 2.916-0.985 4.404-0.37 2.325-0.37 4.737-0.738 7.075-0.861 5.131-3.174 9.338-5.573 13.979-2.275 4.43-2.424 9.105-3.913 13.727-1.292 4.036-5.254 7.221-7.37 10.887-1.648 2.818-2.583 5.585-4.773 8.144-2.51 2.952-4.848 5.929-7.284 8.968-1.771 2.203-3.961 4.024-5.708 6.237-1.304 1.66-2.374 3.358-4.293 4.552-1.107 0.738-2.559 0.985-3.567 1.722-1.673 1.254-2.657 3.519-4.221 4.97-2.35 2.203-4.86 4.183-7.185 6.434-4.823 4.651-9.448 8.92-12.587 14.701-2.275 4.195-3.986 9.583-8.033 12.625-1.254 0.985-2.165 0.985-3.654 1.365-1.857 0.492-3.063 1.28-4.589 2.337-3.101 2.14-6.335 2.583-9.708 4.146-2.559 1.23-4.798 2.952-7.284 4.281-1.23 0.615-2.301 1.353-3.764 1.403-0.861 0.030-1.6-0.245-2.498 0.042-1.107 0.492-1.648 2.177-1.994 2.904-0.985 2.227-2.546 4.257-3.567 6.472-1.304 2.806-0.861 6.558-0.492 9.499 0.245 2.657 1.562 6.681-0.089 9.191-0.985 1.427-1.869 1.513-1.994 3.433-0.245 4.245 0.615 8.464 0.738 12.691 0.042 6.263 1.316 12.057 3.395 17.959 1.71 4.823 5.585 8.908 8.575 13.139 0.738 0.985 1.575 2.079 2.054 3.26 0.492 1.28 0.738 2.645 1.316 3.925 0.985 2.030 2.251 3.789 2.695 5.991 0.37 1.857 0.492 3.801 0.738 5.672 0.245 1.23 0.861 2.534 0.738 3.815-0.088 0.861-0.245 1.304-0.738 2.006-0.861 1.525-0.861 0.861-0.37 3.149 1.316 6.102 3.003 11.884 4.798 17.864 1.267 4.221 2.522 8.439 3.728 12.677 0.738 2.51 1.28 5.955-0.123 8.365-1.304-0.089-2.522-0.492-3.815-0.615-0.615-0.043-1.525 0.123-2.066-0.043-1.107-0.37-2.14-2.448-2.891-3.297-2.153-2.436-4.109-5.007-6.225-7.469-2.78-3.236-6.102-8.723-11.096-9.141-3.371-0.245-3.507 2.203-6.090 3.174-2.079 0.738-4.355-0.123-6.472-0.245-2.092-0.123-2.952 0.088-3.703 1.968-0.123 2.313-0.245 4.613-0.123 6.926 0.088 1.686 0.088 3.358 0.004 5.045-0.088 3.186-0.37 6.335-1.23 9.46-0.492 2.066-1.107 3.998-1.23 6.139-0.089 1.489 0.123 3.015 0.018 4.478-0.245 2.657-0.615 5.204-0.615 7.911-3.543-6.054-10.138-8.218-16.18-11.823-4.024-2.387-6.532-6.212-10.236-8.944-2.215-1.636-4.699-3.015-6.878-4.675-2.965-2.289-4.823-5.696-6.976-8.55-2.018-2.681-4.084-5.352-6.2-7.959-3.322-4.096-7.075-7.8-10.371-11.921-3.815-4.785-7.382-9.657-11.774-14.063-3.075-3.087-16.957-16.905-20.759-7.875-0.738 1.809-0.492 3.592-0.985 5.388-0.245 0.985-0.245 0.738-0.985 1.254-0.492-0.088-0.738 0.043-0.985 0.492-0.123 0.615-0.245 1.292-0.492 1.944-0.245 1.809 0.615 4.379-0.738 5.831-3.654-0.985-6.275-5.487-8.281-8.254-2.239-3.101-3.789-6.84-5.487-10.186-1.55-3.039-3.174-6.054-4.725-9.093-3.445-6.693-7.063-13.303-10.063-20.169-1.427-3.26-3.236-6.361-4.158-9.768-0.492-2.030-1.747-3.322-3.003-5.019-1.316-1.771-1.341-3.973-2.743-5.708-0.985-1.23-2.35-1.735-3.433-2.818-0.985-0.985-1.353-2.362-1.636-3.592-0.37-1.636-0.37-3.26-0.492-4.934-0.245-4.54-1.23-8.526-2.645-12.72-1.673-1.994-3.334-3.986-5.327-5.746-5.081-4.515-11.135-8.194-17.362-11.281-6.421-3.174-12.812-6.705-19.482-9.412-5.167-2.092-10.717-2.83-16.014-4.515-4.576-1.477-8.771-3.827-13.133-5.733-8.451-3.716-17.674-5.684-26.779-7.639-3.666-0.738-7.308-1.636-10.974-2.424-3.69-0.738-6.643-2.337-9.72-4.319-2.94-1.907-5.388-4.207-7.911-6.532-3.075-2.83-6.582-5.167-9.891-7.763-4.379-3.445-9.239-5.684-14.157-8.353-5.191-2.83-10.323-5.806-15.404-8.797-5.425-3.199-10.469-6.767-15.282-10.69-4.749-3.887-9.708-7.726-13.402-12.491-4.392-5.672-7.418-11.935-11.147-17.942-2.165-3.493-4.675-6.729-7.161-10.039-2.657-3.531-6.041-6.496-8.648-10.027-2.498-3.395-3.445-7.296-4.305-11.245-0.615-2.583-0.492-5.216-1.341-7.763-0.492-1.673-1.439-3.236-1.845-4.946-0.37-1.648-0.492-3.31-0.738-4.97-0.985-6.46-3.58-12.859-6.102-18.914-1.759-4.233-3.789-8.254-4.749-12.725-1.107-5.179-1.648-10.58-2.079-15.841-0.245-3.925 0.088-7.861-0.245-11.786-0.37-3.913-0.492-7.776-0.492-11.711-0.035-7.541 2.472-14.808 3.839-22.23 1.415-7.738 3.433-15.325 6.866-22.556 3.728-7.887 5.857-16.198 8.908-24.306 1.55-4.072 3.284-7.812 5.216-11.725 1.23-2.424 1.809-5.093 3.125-7.455 0.492-0.985 1.107-1.981 1.931-2.818 0.615-0.615 1.722-0.985 1.513-2.030-0.123 4.528 0.245 9.042-0.37 13.556-0.738 4.982-1.907 9.905-2.719 14.869-0.985 5.967-1.304 12.057-1.304 18.085 0 5.72 1.379 11.627 0.492 17.317-0.37 2.412-1.242 4.81-1.23 7.259 0.035 2.387 0.738 4.687 1.797 6.853 1.845 3.789 3.174 7.935 4.564 11.884 0.738 2.239 1.513 4.515 2.215 6.779 0.738 2.522 0.738 4.761 0.861 7.344 0.123 2.768 2.092 5.511 3.493 7.923 0.492 0.738 0.738 1.686 1.316 2.215 0.492 0.492 1.513 0.861 2.092 1.267 0.738 0.615 1.427 1.403 2.251 1.968 1.107 0.861 2.633 0.738 3.887 1.329 2.4 1.23 4.884 3.543 6.46 5.537 2.14 2.695 2.128 6.434 3.063 9.523 1.66 5.463 5.242 10.827 8.021 15.863 1.66 3.015 3.764 5.806 5.179 8.92 1.538 3.371 2.609 6.926 4.711 10.063 3.199 4.773 7.161 9.042 10.335 13.802 2.891 4.331 5.806 8.612 8.944 12.793 4.392 5.869 10.839 10.568 17.229 14.501 3.605 2.227 6.827 4.687 9.977 7.357 1.292 1.107 2.891 2.412 4.417 3.236 1.71 0.861 3.493 1.341 5.143 2.424 1.869 1.23 4.096 1.636 6.028 2.707 1.107 0.615 1.869 1.489 2.866 2.191 4.293 3.027 8.526 6.447 13.225 8.944 2.485 1.316 4.589 1.895 7.394 2.313 2.066 0.245 3.937 0.861 6.016 0.123 6.447-1.981 13.354-7.812 12.033-14.436-0.985-4.81-4.49-10.199-7.627-14.127-3.937-4.908-7.738-9.547-12.513-13.826-3.567-3.186-6.853-6.631-10.457-9.806-4.576-4.036-5.229-8.932-7.836-13.906-1.55-2.952-2.965-5.979-4.627-8.883-1.648-2.878-3.74-5.622-4.982-8.699-1.23-2.989-2.227-5.905-3.703-8.821-1.612-3.199-3.383-6.299-5.155-9.412-2.695-4.663-5.278-9.326-8.182-13.883-1.107-1.698-2.042-3.457-3.174-5.131-1.439-2.116-3.137-4.158-4.072-6.52-0.615-1.538-0.861-3.113-1.23-4.699-0.492-2.657-1.71-4.872-2.719-7.394-1.869-4.725-2.104-9.842-3.592-14.675-1.439-4.675-1.588-10.126-1.562-14.952 0.035-5.794 0.245-11.529-0.615-17.283-0.37-2.597-0.492-5.105-0.615-7.726-0.123-2.928-0.861-5.806-1.107-8.735-0.245-3.666-0.492-7.627-0.026-11.269 0.37-2.891 1.575-5.635 2.042-8.526 0.123-1.107 0.245-2.337 0.492-3.457 0.492-1.821 1.501-3.433 2.006-5.216 0.615-2.4 0.615-4.97 0.861-7.43 0.861-7.135 2.78-14.323 6.447-20.734 1.562-2.731 2.51-5.561 3.863-8.341 1.107-2.275 2.952-4.048 4.331-6.188 1.427-2.215 2.362-4.687 3.58-6.988 0.738-1.403 1.28-3.531 2.669-4.552 1.427 0.245 1.267 2.669 1.292 3.605 0.043 2.904-0.123 5.782 0.088 8.687 0.245 2.534 0.37 4.982 0.492 7.529 0.088 3.777 0.985 7.517 1.427 11.257 0.985 8.045 2.104 16.047 2.854 24.115 0.738 7.812 1.403 15.629 3.618 23.249 0.861 2.904 2.448 5.573 3.358 8.477 0.985 3.125 1.883 6.251 3.125 9.314 1.427 3.543 3.248 6.926 4.946 10.371 1.833 3.703 4.687 6.669 7.284 9.941 3.58 4.528 7.824 9.006 12.568 12.556 1.427 1.107 2.952 2.448 4.699 3.075 1.525 0.492 2.952 0.089 4.528 0.37 2.227 0.37 3.899 1.857 5.352 3.297 2.104 2.116 4.417 3.815 6.853 5.61 5.007 3.69 8.6 8.526 11.908 13.48 2.104 3.137 2.756 6.866 4.49 10.162 1.968 3.752 2.669 8.058 5.179 11.565 2.251 3.149 3.752 7.233 4.281 10.974 0.123 1.23-0.089 2.498 0.123 3.69 0.492 1.845 1.55 3.555 2.054 5.4 1.23 4.305 0.615 8.711 2.522 12.85 2.066 4.417 3.728 8.956 5.819 13.342 1.686 3.555 3.555 7.111 5.511 10.556 1.107 1.968 2.731 3.666 3.949 5.597 1.23 1.919 2.325 3.925 3.272 5.955 3.113 6.669 5.523 13.668 10.335 19.575 1.845 2.263 3.69 4.54 5.523 6.815 0.861 0.985 2.203 1.845 2.842 3.015 0.37 0.738 0.245 1.869 0.738 2.46 0.985 1.107 3.322 0.492 4.601 0.245 3.728-0.492 7.875-0.985 11.096-2.806 2.621-1.489 3.199-3.863 2.94-6.681-0.245-2.35-0.492-4.601-0.492-6.976 0.018-1.883 0.123-3.815-0.018-5.684-0.615-5.955-2.842-11.75-4.552-17.482-0.861-2.965-1.391-5.857-1.809-8.869-0.492-3.445-1.636-6.791-2.412-10.186-1.329-5.831-2.952-11.601-4.331-17.439-1.23-5.093-3.899-9.768-5.081-14.875-1.23-5.081-2.116-10.162-3.445-15.239-0.738-2.866-0.861-5.733-0.985-8.66-0.123-2.707-0.615-5.388-0.861-8.084-0.492-4.896-0.37-9.917-0.245-14.84 0.031-1.944 0.615-3.777 0.615-5.696 0.089-1.66-0.038-3.149 0.245-4.798 0.738-3.567-0.245-7.272 0.615-10.789 0.492-2.030 1.575-3.925 2.165-5.929 0.985-3.358 1.254-6.866 2.609-10.126 1.316-3.186 2.719-6.188 3.395-9.559 0.861-4.281 0.985-8.636 0.985-12.985-0.088-5.388-0.861-10.666-1.588-16.002-0.615-4.601-0.245-9.263-0.985-13.871-0.615-4.43-1.562-8.797-1.956-13.251-0.37-4.319-0.615-8.636-1.107-12.957-0.738-8.562-2.263-17.147-3.555-25.655-0.492-3.322-0.738-6.669-1.636-9.929-0.37-1.379-1.759-3.728-1.107-5.143 0.985 0.738 1.254 1.845 1.722 2.818 0.985 2.054 2.707 3.567 4.134 5.388 3.827 4.908 7.147 10.199 10.421 15.416 3.174 5.045 6.028 9.917 7.887 15.486 1.944 5.845 5.081 11.43 7.406 17.161 2.153 5.278 2.83 10.717 5.597 15.789 1.71 3.113 3.433 6.003 4.613 9.326 0.985 2.756 1.956 5.451 3.199 8.12 2.337 5.045 4.134 10.075 5.672 15.36 1.513 5.204 4.454 10.174 6.779 15.126 2.165 4.613 3.383 9.387 5.905 13.902 1.292 2.289 3.003 4.319 4.392 6.545 1.562 2.522 2.128 5.34 2.854 8.132 1.538 5.943 3.605 11.908 5.806 17.676 1.107 3.003 2.719 5.881 3.678 8.944 1.107 3.445 1.624 7.123 1.968 10.678 0.245 2.645 0.861 5.254 1.107 7.899 0.245 2.866-0.043 5.66 0.035 8.514 0.123 5.782 2.275 11.762 3.69 17.423 0.738 2.743 1.451 5.499 1.895 8.293 0.37 2.191 0.245 4.502 0.738 6.657 0.492 2.337 1.821 4.49 2.546 6.791 0.985 2.965 0.123 5.549-0.043 8.562-0.123 2.289-0.123 4.675-0.738 6.914-0.492 1.636-1.23 3.125-1.636 4.761-0.738 3.137-0.861 5.66-0.123 8.896 0.861 3.839 0.738 7.726 1.353 11.577 0.492 3.678 2.030 7.591 4.109 10.753 1.562 2.387 3.26 4.773 4.725 7.197 1.353 2.215 1.833 4.233 4.454 5.388 4.060 1.809 7.923 3.998 11.711 6.287 7.406 4.478 16.443 5.191 24.983 6.421 3.371 0.492 6.594 1.624 9.965 1.968 3.039 0.245 6.164-0.026 9.177-0.245 2.472-0.245 4.761-0.492 7.135-1.107 4.627-1.107 8.785-3.457 13.386-4.663 2.928-0.738 5.648-0.985 8.267-2.485 1.809-1.107 3.149-2.374 4.281-3.986 1.107-1.6 2.227-3.272 3.371-4.884 1.353-1.895 1.242-3.728 1.771-5.857 0.861-3.395 3.358-5.413 5.4-8.267 1.463-2.066 2.522-4.331 3.986-6.409 1.821-2.597 4.024-4.823 6.46-6.938 2.498-2.203 5.093-4.293 7.603-6.46 3.703-3.199 4.798-6.815 7.012-10.789 2.006-3.63 5.597-7.233 9.387-9.362 3.875-2.191 6.409-3.815 8.502-7.553 2.621-4.675 3.69-9.929 5.782-14.787 4.048-9.436 5.881-20.178 3.913-30.206-0.492-2.583-0.37-5.069-0.738-7.639-0.37-3.051-1.23-6.054-1.648-9.105-0.245-2.128-0.738-4.281-0.738-6.434-0.043-1.869-0.492-3.666-0.615-5.475 2.313 2.818 2.707 7.063 3.851 10.311 2.092 5.955 5.069 11.577 7.037 17.591 1.857 5.684 3.887 11.466 5.266 17.255 1.304 5.499 1.612 11.084 1.981 16.68 0.37 5.684 0.615 11.305 0.615 16.996 0 3.075 0.492 6.361-0.089 9.424zM457.606 706.788c-0.861 0.492-1.427 0.861-2.472 0.985-3.087 0.245-5.845-0.492-8.821-0.985-4.601-0.738-9.165-0.492-13.832-0.615-2.977-0.089-5.845-0.615-8.833-0.615-3.113-0.027-6.188-0.37-9.263-0.861-4.884-0.738-8.502-3.039-12.926-4.97-4.884-2.128-9.669-3.887-14.283-6.606-4.552-2.681-9.165-5.34-13.828-7.812-4.454-2.374-8.771-4.343-12.985-7.185-4.183-2.818-8.514-5.425-12.717-8.206-3.74-2.498-7.332-4.687-10.003-8.379-2.916-4.048-6.066-8.55-7.603-13.354-0.245-0.861-0.615-2.571-1.107-3.887-0.492-0.492-0.861-1.107-1.23-1.6 0.492 0.123 0.861 0.861 1.23 1.6 1.771 2.092 4.183 4.060 6.090 5.708 3.555 3.063 7.246 6.066 10.998 8.908 2.842 2.153 5.61 4.355 8.735 6.090 4.982 2.756 10.323 3.998 15.62 5.979 4.024 1.513 7.875 3.469 11.872 5.057 4.417 1.759 9.093 2.78 13.48 4.601 5.413 2.263 10.457 4.725 16.184 6.212 6.102 1.588 12.105 3.346 18.442 3.371 3.113 0.018 6.028 1.107 9.117 1.23 1.71 0.026 3.162-0.245 4.872 0.123 2.965 0.738 5.597 2.215 8.169 3.752 2.079 1.254 4.367 2.191 6.311 3.654 0.985 0.738 1.981 1.439 2.866 2.191 0.985 0.861 1.107 1.489 1.673 2.669-3.087 2.227-4.442 2.239-5.708 2.977zM293.635 318.981c1.636-2.362 3.297-4.651 5.019-6.951 3.777-5.033 7.639-9.941 11.872-14.605 1.242-1.403 2.571-2.681 3.678-4.195 0.861-1.107 1.427-2.387 2.374-3.421 1.538-1.686 3.075-3.346 4.601-5.069 2.104-2.387 4.036-5.131 5.819-7.763 2.374-3.519 5.585-6.263 7.887-9.83 1.883-2.94 4.785-5.278 7.246-7.738 2.472-2.436 4.946-4.884 7.406-7.332 3.027-3.015 6.164-5.905 9.621-8.439 2.498-1.833 5.376-3.015 7.714-5.045 1.55-1.341 2.756-2.952 4.478-4.072 1.612-1.107 3.334-1.895 5.007-2.818 2.756-1.501 5.081-3.31 8.021-4.552 1.636-0.738 3.039-1.673 4.651-2.424 1.698-0.738 3.457-1.28 5.057-2.263 6.090-3.752 13.572-4.675 20.225-7.063 2.066-0.738 4.221-1.107 6.263-1.931 1.785-0.615 3.409-1.698 5.179-2.412 3.212-1.329 6.618-2.498 9.965-3.445 7.308-2.066 14.775-4.982 22.361-5.819 2.227-0.245 4.233-0.123 6.421-0.615 2.018-0.492 3.973-0.985 6.028-1.329 3.543-0.615 7.099-0.37 10.678-0.37 14.239 0 28.38 1.28 42.295 4.367 5.057 1.107 10.199 1.857 15.247 3.015 3.087 0.738 6.275 0.615 9.387 1.242 7.591 1.575 15.051 3.666 22.607 5.388 3.125 0.738 6.251 1.28 9.275 2.374 1.747 0.615 3.31 1.463 4.994 2.191 1.588 0.615 3.186 0.985 4.81 1.463 3.149 1.107 6.212 2.362 9.362 3.433 3.334 1.107 6.705 2.424 9.929 3.827 17.609 7.627 34.335 17.664 50.085 28.606 3.358 2.337 6.447 4.946 9.657 7.469 3.716 2.904 6.89 6.335 10.592 9.227 3.063 2.374 5.857 5.216 8.365 8.156 3.507 4.122 7.702 7.469 11.305 11.49 6.46 7.209 13.181 14.022 18.809 21.914 2.374 3.334 4.773 7.012 6.532 10.717 2.079 4.367 4.627 8.49 6.878 12.769 2.559 4.848 4.379 10.027 6.188 15.196 1.857 5.29 4.233 10.347 5.881 15.732 1.23 3.937 2.719 7.567 3.297 11.639 0.615 4.417 2.030 8.883 2.177 13.325 0.245 7.652 0.245 15.537-0.004 23.198-0.043 1.883-0.492 3.728-0.738 5.573-0.245 1.292-0.043 2.94-0.37 4.158-0.37 1.242-0.615 1.981-0.615 3.297l1.107-16.41c-1.427 5.585-2.079 11.233-1.994 16.965 0.042 1.489 0.123 2.952 0.123 4.442 0.026 3.113-0.012 6.508-2.066 9.042-1.304 1.624-3.678 2.743-5.155 4.257-0.615 0.615-1.797 2.597-2.842 2.793-1.513-5.475-2.215-11.392-4.319-16.68-0.985-2.559-2.597-4.158-4.639-5.929-1.107-0.985-2.128-2.128-3.457-2.669-2.609-1.107-6.484-0.492-8.699 1.107-1.956 1.415-2.054 2.78-1.23 4.798 1.463 3.567 2.546 7.037 2.313 10.926-0.245 4.627-1.771 9.030-2.51 13.588-0.37 2.325 0.043 5.278-0.985 7.455-0.615 1.23-2.165 1.501-2.928 2.46-2.066 2.597-1.636 6.988-1.624 10.003 0.031 5.314 0.861 10.63 0.615 15.946-0.123 3.051-0.492 6.078-1.809 8.869-0.861 1.771-1.809 3.395-2.472 5.254-2.128 5.733-2.806 12.105-6.421 17.21-1.845 2.597-4.49 4.651-6.139 7.418-1.797 3.027-2.46 6.618-3.409 9.941-0.985 3.371-1.869 7.024-3.716 10.051-1.624 2.657-4.011 4.872-5.979 7.259-4.072 4.921-6.669 11.798-12.343 15.155-2.424 1.439-5.34 2.263-7.875 3.457-1.365 0.615-2.522 1.329-4.011 1.588-0.37-2.116 0-4.502-0.089-6.681-0.123-3.358-0.615-6.853-1.66-10.087-1.107-3.716 0.018-7.332 1.463-10.863 0.985-2.325 2.35-4.245 3.642-6.361 1.304-2.153 1.66-4.478 2.337-6.853 1.501-5.34 2.066-10.926 6.275-14.926 1.722-0.985 3.186-2.177 4.379-3.716-0.043-0.738-0.123-1.575-0.123-2.362-0.492-3.015-3.815-7.714-6.066-9.597-6.237-5.204-14.231-6.57-22.057-7.579-4.257-0.615-9.436-1.107-13.724-0.861-4.245 0.245-8.353 1.919-12.579 1.944-2.006 0.004-4.233 0-5.905-1.23-2.227-1.588-2.854-5.117-3.703-7.579-1.797-5.143-3.605-10.311-5.314-15.474-0.861-2.633-1.588-5.191-1.575-7.985 0.013-3.961 2.239-8.206 3.433-11.983 0.492-1.612 1.463-3.113 1.648-4.823 0.245-2.743-0.245-5.585-0.738-8.254-0.492-2.337-1.107-4.663-1.365-7.049-0.123-1.107-0.492-3.801-0.030-5.033 0.492-1.254 1.785-2.054 2.289-3.31 0.492-1.23 0.245-2.621 0.861-3.764 0.615-1.23 2.042-1.944 3.063-2.866 1.857-1.71 3.531-3.642 5.081-5.635 1.883-2.412 3.445-4.994 6.2-6.496 3.087-1.686 6.606-1.439 9.645-3.31 3.003-1.857 4.908-4.908 7.812-6.827 2.239-1.489 4.627-0.985 7.087-0.985-1.107-1.6-4.367-2.854-5.893-3.421-1.698-0.615-3.445-1.107-5.191-1.624-4.221-1.107-8.771-1.341-12.081 1.994-1.341 1.353-2.374 2.94-3.851 4.158-1.28 1.107-2.78 1.648-4.281 2.325-2.227 0.985-5.093 1.501-7.161 2.768-1.23 0.738-1.575 1.624-3.051 1.931-1.292 0.245-2.412-0.123-3.63-0.738-2.621-1.23-4.848-3.199-7.442-4.454 0.088 0.042-2.191-0.738-2.275-0.861-0.738-0.985-0.37-2.681-0.37-3.851 0.039-2.498 0.123-5.463-1.23-7.702-2.337-3.863-6.594 1.353-9.227-2.362-2.412-3.371-4.17-8.464-3.863-12.605 0.123-1.907 1.107-4.245 2.239-5.806 0.615-0.861 0.985-0.861 2.054-0.861 1.107-0.045 1.107 0.026 1.747-0.861 0.738-1.23 1.353-2.695 1.956-3.961 1.107-2.301 2.818-5.019 2.866-7.553 0.021-0.861-0.013-1.624-0.123-2.46-0.37-2.301-0.245-4.048 0.37-6.299 0.615-2.191 1.28-4.367 2.609-6.225 0.985-1.365 1.107-2.4 1.451-4.024 0.37-1.525 1.686-3.027 1.797-4.601 0.123-2.472-2.191-4.675-4.404-5.179-5.007-1.107-7.246 1.403-10.284 4.785-2.743 3.051-5.155 6.102-7.308 9.597-2.018 3.26-4.096 5.893-7.147 8.23-1.23 0.985-2.191 2.153-3.887 1.316-1.107-0.492-2.251-1.883-3.063-2.78-1.427-1.575-2.669-2.78-2.621-4.946 0.088-3.74 2.559-6.447 3.716-9.793 0.492-1.341 0.492-2.645 0.245-4.048-0.123-1.365-0.985-3.31-0.615-4.687 0.245-0.861 0.738-0.738 1.107-1.242 0.492-0.861 0.492-2.83 0.615-3.863 0.492-3.101-0.492-6.2 0.615-9.251 0.492-1.673 1.55-3.199 2.066-4.872 0.738-2.275 0.245-5.439 2.559-6.803 1.648-0.985 3.642-0.615 5.388-1.686 0.861-0.492 1.538-1.28 2.104-2.092 0.738-1.107 1.451-1.994 0.615-3.015-0.492-0.492-2.227-1.267-2.768-1.588-1.292-0.738-2.559-1.55-3.863-2.275-1.439-0.738-2.51-1.23-4.060-1.329-1.23-0.123-1.883-0.245-3.039-0.861-1.648-0.861-3.421-1.242-5.093-1.968-1.107-0.492-3.334-1.845-3.433-3.075-0.088-0.985 0.492-2.337 0.492-3.433 0.088-2.092 0.245-4.060 0.861-6.066 0.492-1.698 1.451-3.26 2.006-4.958 0.615-1.907 0.985-4.663-0.37-6.311-1.513-1.845-4.319-2.006-6.558-2.301-4.687-0.615-9.338-1.735-14.014-2.485-3.224-0.492-6.594-0.861-9.609-2.116-2.645-1.107-4.908-2.83-7.69-3.543-2.633-0.615-6.225-1.673-8.66 0.123-0.985 0.738-1.254 1.673-2.448 2.14-0.985 0.37-2.006 0.245-3.015 0.245-2.337 0.088-4.515 0.123-6.853 0.615-3.26 0.615-6.311 0.615-9.621 0.492-1.981-0.045-3.937-0.245-5.72 0.738-0.985 0.615-1.513 1.107-2.337 1.919-0.985 0.861-2.006 1.267-2.485 2.485-0.738 1.919-0.738 3.212-2.707 4.442-2.928 1.809-6.705 2.4-10.051 2.412-1.304 0-2.609-0.035-3.925-0.043 0.039 0-1.575-0.123-1.71-0.045-0.492 0.37-0.492 1.107-0.738 1.785-0.37 1.857-0.615 3.433-1.562 5.105-2.153 3.899-3.654 9.669-2.239 14.049 0.861 2.621 2.448 4.908 3.507 7.418 1.23 2.866 0 4.921-2.313 6.815-3.015 2.448-6.705 4.195-9.878 6.434-3.236 2.289-6.225 4.589-10.212 5.376-4.233 0.861-8.451-1.415-11.921-3.543-0.615-0.37-3.728-1.944-3.297-3.101 0.088-0.123 0.985-0.492 1.107-0.615 0.615-0.492 0.861-1.107 0.985-1.785 0.492-1.747 0.088-3.827 0.088-5.61-0.008-2.707-0.123-5.229-0.615-7.899-3.113-0.245-6.003-1.857-8.92-2.707-2.177-0.615-2.597-2.46-2.337-4.639 0.245-2.731 1.477-5.057 0.985-7.887-0.245-1.686-0.738-8.648-3.322-8.673-0.37 0.086-0.738 0.245-1.107 0.492-0.492 0.123-0.985 0.123-1.562 0.123-1.66 0.245-3.519 0.615-5.131 1.107-2.756 0.861-5.733 2.263-8.293 3.555-2.928 1.501-6.2 2.78-9.006 4.478-2.153 1.304-4.024 3.125-5.61 5.057-0.738 1.107-1.588 2.251-2.436 3.334-0.985 0.861-2.191 1.525-3.519 1.833-3.481 1.463-6.447 3.815-9.732 5.597-2.756 1.501-3.949 2.472-5.475 5.179-1.403 2.498-3.383 3.998-5.155 6.164-1.785 2.177-2.597 5.364-4.982 6.964-1.771 1.23-3.199 1.722-4.195 3.74-0.615 1.341-0.985 2.756-1.66 4.096-0.245 0.615-0.492 1.365-0.738 2.066-0.738 1.107-1.66 2.054-2.707 2.891-1.66 1.648-2.571 2.768-2.301 5.131 0.37 3.101 3.827 3.174 6.275 3.899 1.895 0.615 9.191 2.227 9.117 4.663-0.031 1.107-1.735 2.387-2.104 3.493-0.615 1.944-1.107 4.281-1.28 6.323-0.245 3.297-0.245 7.308-2.251 10.015-1.341 1.833-2.116 3.998-3.015 6.066-0.615 1.379-0.492 2.51-1.931 3.358-1.107 0.738-2.928 0.492-4.183 0.738-0.738 2.042 2.251 3.58 2.313 5.561 0.043 1.379 0.245 3.212-0.123 4.552-0.245 1.107-1.267 1.919-1.55 3.075-0.245 1.107 0.006 2.289-0.123 3.433-0.245 1.403-0.615 1.648-1.477 2.669-1.489 1.931-2.275 3.605-2.534 6.016-0.245 2.313-1.316 3.654-2.191 5.696-0.615 1.538-0.861 3.777-1.107 5.278-0.615 2.916-1.341 5.29-2.719 7.899-0.985 1.759-1.23 3.555-1.797 5.413-0.861 2.583-2.756 4.343-4.675 6.188-2.165 2.079-3.642 3.605-6.755 3.654-2.325 0.030-4.675-0.123-7.012-0.123-0.738 0-2.018 0.245-2.743-0.089-1.981-0.861-0.013-2.743 0.043-4.281 0.088-1.931-0.245-3.913-0.043-5.831 0.088-1.23 0.492-2.275 0.615-3.519 0.043-1.107 0.039-1.6 0.492-2.669 0.861-1.895 1.71-3.015 1.785-5.204 0.043-1.242 0.043-2.621 0-3.875-0.123-4.737-3.039-8.92-2.916-13.589 0.043-1.809-0.245-3.789 0.123-5.573 0.245-0.861 0.738-1.648 0.985-2.472 0.615-1.624 1.107-3.383 1.833-4.982 0.738-1.501 1.107-2.018 0.985-3.777-0.045-1.6 0.245-2.989 0.492-4.576 0.37-2.854-0.035-5.733 0.088-8.612 0.123-2.583 0.615-5.057 0.615-7.665 0-2.079 0.123-3.875-0.615-5.819-0.492-1.254-1.439-2.301-1.759-3.507-0.861-3.174 1.562-6.631-1.612-8.932-1.944-1.391-4.207-1.944-6.385-2.818-0.738-0.245-2.030-0.492-2.289-1.23-0.492-1.254 1.107-4.084 1.747-4.982zM966.66 557.535c-1.107-3.199-2.362-6.496-2.51-9.793-0.123-2.818 2.215-5.869 1.759-8.526-1.365-7.959-3.567-15.756-5.439-23.627-0.492 0.088-1.107 0.245-1.612 0.245-0.123 1.562-0.245 3.125-0.492 4.675-1.66-2.583-2.94-5.314-2.818-7.973 0.37-7.406 1.391-14.769 2.042-22.157 1.107-11.798 2.731-23.419-1.439-35.289-4.675-13.247-8.451-26.887-9.141-41.132-0.245-5.29-1.107-10.568-1.857-15.82-0.615-4.122-1.341-8.218-2.251-12.278-0.615-2.472-1.66-4.81-2.4-7.259-1.107-3.728-2.263-7.469-3.113-11.269-0.245-1.304 0.985-3.199 0.37-4.134-5.254-8.502-6.311-18.319-9.105-27.59-0.37-1.353-0.861-2.866-1.71-3.913-3.937-4.589-8.12-8.981-12.069-13.585-0.738-0.861-0.861-2.337-1.588-4.663-6.361-7.246-14.14-15.016-20.619-23.728-8.956-12.045-16.901-24.833-25.374-37.238-1.427-2.092-3.334-3.863-5.033-5.794-3.815-4.379-7.627-8.747-11.601-13.315 1.107-0.492 1.71-0.738 2.227-0.985-8.415-11.442-16.832-22.855-25.343-34.418-0.492 1.451-0.861 2.571-1.242 3.716-0.37 0.086-0.738 0.123-1.23 0.245-1.931-4.601-4.281-9.079-5.672-13.826-1.23-4.024-3.137-6.558-7.087-8.144-2.621-0.985-4.908-3.003-7.147-4.81-2.042-1.648-3.592-3.925-5.72-5.425-5.979-4.221-11.872-8.711-18.316-12.117-9.153-4.823-16.177-11.884-23.134-19.157-3.801-3.973-7.505-8.058-11.43-11.921-1.316-1.292-3.075-2.546-4.836-2.94-12.168-2.719-24.405-5.167-36.597-7.824-2.006-0.492-4.122-1.107-5.77-2.301-6.078-4.305-11.81-9.117-18.008-13.233-7.259-4.836-14.847-9.215-22.378-13.642-3.777-2.227-7.517-5.093-11.663-6.028-11.86-2.669-23.91-4.515-35.903-6.606-1.242-0.245-2.583 0.045-3.875 0.245-4.233 0.492-8.66 2.14-12.65 1.379-12.069-2.289-23.121 1.575-34.239 4.675-5.77 1.624-10.433 0.123-15.169-2.301-0.615-0.245-0.37-2.153-0.738-4.564-9.275-1.944-19.595-4.699-30.099-6.078-6.251-0.861-12.783 0.615-19.188 0.861-2.719 0.123-5.573 0.37-8.194-0.245-4.798-1.107-9.46-3.887-14.18-3.925-8.305-0.045-16.6 1.797-24.926 2.128-3.728 0.123-4.367 3.801-6.964 4.442-4.884 1.23-9.929 1.785-14.9 2.621-0.013-0.123-0.026-0.37-0.043-0.492 1.254-0.615 2.51-1.254 4.639-2.313-9.559-1.857-11.541-1.23-16.979 4.627-0.861 0.985-1.747 2.227-2.854 2.559-6.041 1.845-10.063 6.827-15.505 9.583-1.869 0.985-3.592 2.191-5.302 3.383-3.703 2.583-7.024 6.152-11.123 7.652-12.869 4.737-26.033 8.687-39.069 12.971-2.645 0.861-5.242 1.869-7.848 2.818 0.123 0.492 0.245 0.861 0.37 1.379l7.233-1.391c0.245 0.492 0.37 0.861 0.615 1.292-2.4 1.254-4.675 3.039-7.221 3.642-3.74 0.861-7.726 6.251-11.577 0.026-0.123-0.245-1.267-0.088-1.857 0.088-11.245 3.63-22.772 6.643-32.308 14.105-4.921 3.863-9.177 9.314-14.748 11.417-7.087 2.669-12.069 7.147-17.083 12.144-0.861 0.861-2.018 1.513-3.027 2.275-5.746 4.379-11.75 8.451-17.122 13.235-3.322 2.965-5.684 6.976-8.624 10.717-2.165-2.571-2.806-3.322-4.281-5.081-3.334 3.764-6.225 7.259-9.338 10.52-8.711 9.141-16.601 19.116-27.282 26.288-1.931 1.304-3.334 3.481-4.81 5.388-4.725 6.164-9.227 12.482-14.057 18.558-10.703 13.48-21.583 26.809-28.637 42.71-1.107 2.46-3.051 4.54-4.663 6.755-0.245 0.245-0.738 0.492-1.525 0.861 0.245-1.439 0.492-2.51 0.738-3.567-2.681 1.771-5.093 3.815-5.893 6.361-3.113 9.917-5.758 19.996-8.526 30.034-1.785 6.472-2.669 13.307-5.364 19.38-5.746 12.995-12.278 25.668-18.801 38.314-1.329 2.583-4.725 4.17-5.857 6.779-2.448 5.684-4.601 11.601-5.857 17.633-2.362 11.233-3.887 22.638-6.003 33.932-0.615 3.125-2.609 6.028-2.977 9.141-2.092 17.746-0.861 35.866-6.84 53.176-4.048 11.663-2.191 24.114 0.018 35.406 3.654 18.607 3.887 37.105 4.257 55.789 0.088 4.54 1.857 9.117 3.383 13.505 2.842 8.169 6.090 16.206 9.117 24.313 0.245 0.738 0.492 1.575 0.245 2.239-0.985 3.445-1.833 7.161 1.562 9.448 6.397 4.319 8.379 10.323 8.182 17.517-0.026 1.107 0.37 2.227 0.615 3.334 3.224 19.083 11.084 36.508 20.1 53.402 5.696 10.666 12.398 20.811 18.566 31.23 2.866 4.86 5.585 9.818 8.281 14.789 2.78 5.093 4.589 11.024 8.353 15.241 7.197 8.084 15.090 15.687 23.443 22.607 9.472 7.861 20.181 13.945 27.351 24.713 5.007 7.517 13.159 12.904 19.028 19.961 9.314 11.183 17.786 23.051 26.887 34.418 1.636 2.030 4.478 4.036 6.951 4.305 7.738 0.861 15.564 1.107 23.351 1.107 165.425-0.615 330.855-1.353 496.274-2.079 3.58-0.018 7.173 0.008 10.729-0.37 1.451-0.123 3.322-0.861 4.134-1.907 7.639-10.212 15.063-20.582 22.633-30.846 1.107-1.513 2.472-2.952 3.998-4.048 5.597-4.024 11.319-7.887 16.991-11.81 0.985-0.738 1.968-1.809 3.125-2.092 13.511-3.31 24.574-9.4 29.388-23.514 1.66-4.86 3.973-9.535 6.385-14.102 3.457-6.545 6.767-13.278 11.060-19.274 7.887-11.048 16.493-21.588 24.695-32.412 1.341-1.771 2.412-3.827 3.199-5.905 9.338-24.574 18.637-49.118 31.001-72.468 3.322-6.287 5.143-14.405 4.54-21.425-1.292-15.034 0.123-29.179 6.84-42.741 0.985-1.869 1.575-3.887 2.374-5.819 3.383-8.132 6.287-16.511 10.395-24.257 1.994-3.752 3.716-6.815 2.289-11.024z"></path>
    <path fill="#000000" d="M258.477 890.637c4.048 3.703 7.973 7.505 12.144 11.096 1.391 1.23 3.26 2.362 5.117 2.731 12.934 2.534 25.928 4.81 38.884 7.284 2.128 0.492 4.379 1.107 6.126 2.153 6.46 4.011 12.536 8.477 19.116 12.313 7.726 4.49 15.771 8.562 23.77 12.687 4.011 2.066 7.985 4.749 12.383 5.61 12.599 2.485 25.407 4.195 38.138 6.152 1.316 0.245 2.756-0.042 4.109-0.123 4.49-0.492 9.203-1.994 13.433-1.292 12.82 2.14 24.561-1.451 36.365-4.343 6.126-1.513 11.072-0.123 16.114 2.153 0.615 0.245 0.492 1.994 0.861 4.245 9.854 1.809 20.811 4.379 31.969 5.66 6.631 0.738 13.568-0.615 20.377-0.861 2.904-0.123 5.929-0.37 8.711 0.245 5.093 0.985 10.039 3.618 15.063 3.654 8.821 0.042 17.626-1.66 26.467-1.981 3.961-0.123 4.651-3.519 7.406-4.134 5.179-1.107 10.544-1.66 15.82-2.436 0.021 0.123 0.035 0.245 0.042 0.492-1.341 0.615-2.669 1.23-4.934 2.153 10.174 1.735 12.266 1.107 18.039-4.305 0.985-0.861 1.857-2.066 3.051-2.374 6.421-1.722 10.69-6.361 16.457-8.92 1.981-0.861 3.801-2.030 5.635-3.137 3.937-2.412 7.455-5.72 11.81-7.123 13.671-4.404 27.646-8.084 41.504-12.069 2.793-0.861 5.549-1.735 8.329-2.621-0.123-0.492-0.245-0.861-0.37-1.28-2.571 0.492-5.117 0.861-7.678 1.292-0.245-0.37-0.492-0.861-0.615-1.23 2.534-1.107 4.958-2.83 7.678-3.383 3.973-0.861 8.206-5.819 12.302-0.026 0.123 0.245 1.341 0.089 1.968-0.088 11.947-3.383 24.192-6.188 34.322-13.129 5.229-3.58 9.744-8.66 15.654-10.618 4.343-1.427 7.899-3.457 11.183-5.77h-540.525c4.921 3.493 9.424 7.394 13.832 11.442z"></path>
    </svg>