<svg xmlns="http://www.w3.org/2000/svg" viewBox="63.553 64.000 890.242 895.997">
    <path fill="#000000" d="M612.080 780.221c1.444 0.001 1.589 0.344 0.458 1.035-4.368 2.667-14.978 3.905-17.865 2.081v0.002c-2.123-1.341-1.755-1.701 1.785-1.739 2.457-0.017 7.683-0.482 11.613-1.013 1.808-0.245 3.142-0.369 4.008-0.368z"></path>
    <path fill="#000000" d="M163.206 474.613c0.11-0.049 0.237 0.241 0.371 0.917 0.427 2.161 0.427 5.7 0 7.861s-0.777 0.393-0.777-3.929c0-2.973 0.163-4.737 0.405-4.847z"></path>
    <path fill="#000000" d="M427.325 82.643c0.742-0.433 1.449-0.863 2.088-1.288-0.878 0.51-1.53 0.919-2.088 1.288z"></path>
    <path fill="#000000" d="M203.898 198.741c0.007-0.087-0.004-0.153-0.044-0.177 0 0 0.015 0.084 0.044 0.177z"></path>
    <path fill="#000000" d="M686.315 911.108c-0.009-0.009-0.013-0.016-0.019-0.024-0.077 0.048-0.073 0.063 0.019 0.024z"></path>
    <path fill="#000000" d="M744.693 885.061c-0.017 0-0.056 0.018-0.147 0.102 0.063-0.047 0.088-0.058 0.147-0.102z"></path>
    <path fill="#000000" d="M868.846 757.198c0.537-0.363 1.233-0.917 2.262-1.715-0.762 0.553-1.512 1.137-2.262 1.715z"></path>
    <path fill="#000000" d="M463.235 64c-1.504 0.829-2.913 1.604-4.339 2.36-0.96 0.396-1.905 0.825-2.744 1.262-1.72 0.679-3.329 1.443-4.888 2.084-3.117 1.242-5.93 2.324-8.127 3.4l4.941-3.4c-2.997 2.040-5.542 3.392-8.181 4.834l3.731-0.275c-3.238 1.438-5.812 2.795-6.094 2.197-2.672 2.639 3.649 0.965-2.033 5.601-2.236 0.796-5.257 2.689-8.016 4.285-1.397 0.76-2.774 1.384-3.897 1.868-0.598 0.18-1.043 0.398-1.484 0.438-0.269 0-0.46-0.096-0.656-0.329 0.18-0.028 1.085-0.485 1.648-0.767 0.64-0.339 1.169-0.68 1.648-0.876 0.84-0.478 1.328-0.805 1.648-1.043 0.523-0.523 0.175-0.679-0.275-0.713-0.738-0.175-1.696-0.367 1.207-2.28-1.631 0.952-3.512 1.925-5.765 2.94-0.561 0.028 0.255-0.69 1.042-1.205-0.88 0.336-2.216 0.9-2.415 0.931-0.12-0.028-0.133-0.028-0.22 0-0.12-0.028-0.164 0.024-0.164 0.055-0.269 0.062-1.104 0.18-1.428 0.329-0.919 0.269-1.507 0.63-2.306 0.987-1.559 0.719-3.757 1.528-9.995 1.648 1.244-0.791-0.74-1.265-2.91-1.539 1.388 0.557-1.331 1.809-5.381 2.526-9.393-0.637-10.181 0.876-15.099 0.876l5.599 0.275c-0.875 0.564-2.491 0.896-4.613 1.096-2.202 0.148-5.024 0.279-8.347 0.495-0.241 0.062-0.595 0.148-0.876 0.329-0.208-0.148 0.128-0.448 0.767-0.767-2.439 0.919-3.625 1.276-5.547 1.757-1.841 0.301-3.764 0.644-5.765 1.043-3.918 0.719-8.083 1.649-12.080 3.568-4.72 0.719-1.042-1.895-5.161-1.096-3.997 1.92-6.797 2.667-9.276 3.184-1.236 0.269-2.345 0.431-3.622 0.711-0.643 0.12-1.259 0.301-1.979 0.44-0.373 0.12-0.74 0.151-1.098 0.273-0.679 0.18-1.298 0.417-1.977 0.602-0.643 0.396-1.313 0.811-2.033 1.205-0.402 0.208-0.88 0.546-1.316 0.824-0.924 0.598-1.87 1.339-2.91 2.14 3.719-0.523 4.019-1.121-2.417 4.557l9.663-6.643 8.785-3.4-3.897 2.14c-1.483 0.719-2.181 1.197-4.503 2.197-1.757 1.318-2.364 2.043-3.4 2.964 1.201-0.76 2.481-1.617 3.677-2.417 1.283-0.478 2.532-0.987 3.731-1.428 1.122-0.441 2.112-0.904 3.073-1.262 1.999-0.84 3.801-1.449 5.161-1.813-5.359 3.081-4.949 2.532-1.868 2.855-1.679 0.028-3.259 0.333-4.777 0.713-0.76 0.18-1.588 0.485-2.306 0.767l-2.692 1.042c-2.116 1.559-4.236 3.098-6.477 4.777-2.116 1.52-4.403 2.929-7.085 4.008l-1.702-3.293c-9.436 4.319-16.471 10.584-25.148 16.583-2.801 1.52-7.088 3.591-11.366 5.271l5.656-1.868c-1.636 2.359-10.259 4.907-15.373 7.907-0.028-1.356-3.563-0.184-6.203 0.057 0.598 0.756-12.098 5.468-12.741 8.508l-2.197 0.658-1.977 1.428-1.484 0.931-2.855 1.813c-11.156 9.716-9.707 14.245-20.257 23.718 2.157-3.916-3.135-0.068 3.019-7.358-3.395 3.278-6.598 6.018-6.039 6.697-0.557 0.269-1.344 0.973-2.14 1.813-0.88 0.998-1.957 2.247-3.073 3.568-1.001 1.841-2.133 3.871-3.13 5.71-0.96 1.596-1.884 3.003-2.801 3.842-0.679 1.961 0.076 3.22-2.855 7.578-0.367 0.245-0.5 0.028-0.556-0.15-0.077 1.127-3.604 7.002-0.153 4.108-2.519 2.236-4.99 5.206-7.469 8.565-1.242 1.596-2.426 3.381-3.622 5.215-1.122 1.679-2.225 3.388-3.35 5.109-1.92 1.717-3.899 3.499-5.819 5.215-2.040 1.72-4.064 3.482-5.985 5.161-3.921 3.238-7.704 5.91-10.982 7.469-4.198 3.916-8.763 8.211-12.961 12.131-2.040 5.796-3.931 11.106-5.49 15.705-0.148-0.719-0.558-0.261 0.164-1.868-5.56 11.753 0.621 8.68-5.656 22.073-4.519 6.356 1.603-7.686-0.713-3.57-1.318 0.148-2.261 1.519-3.184 3.677-0.437 1.081-0.889 2.377-1.373 3.733-0.339 1.242-1.003 3.24-1.042 3.677-0.12 0.336-0.833 1.43-1.593 2.472l-2.14 3.184c-1.483 1.995-3.115 3.818-4.834 5.215l1.262-2.084c-5.636 5.236-9.753 15.842-17.35 25.641 0 0-0.036-0.719-0.547-0.44-0.18 0.643-0.661 1.708-1.539 3.185-0.441 2.359-0.98 5.056-1.539 8.016-0.557 2.672-1.205 5.534-1.924 8.454-1.438 5.837-3.046 11.907-4.448 17.185-0.399-4 0.811-5.389-1.428-3.788-1.438 5.193 2.94-0.651 0.107 9.663-0.84 1.363-1.709 3.005-2.91 5.327-1.081 3.199-2.116 5.683-3.239 6.203l0.933-6.752 1.26-3.842c-0.373 0.478-0.83 0.867-1.151 1.428-0.301 0.478-0.551 1.116-0.987 2.197-0.12 0.76-0.27 1.452-0.438 2.251l-0.329 1.922c-0.12 1.277-0.105 2.566-0.164 3.843-0.12 2.56-0.248 5.045-0.767 7.083l-0.878-0.876c-1.92 14.917 0.362 16.075-1.977 31.185-0.028 0.18-0.161 0.488-0.22 0.767 0.18-0.301 0.406-0.517 0.602-0.713 0.148-0.148 0.327-0.259 0.495-0.547 0.028 0.373 0.024 0.497 0.055 0.656 0 8.236-3.211 6.443-3.57 15.317l-3.129 2.033c-0.919 5.877-2.506 20.957-5.109 31.351 0.12-6.238 1.99-18.723 2.912-26.517-0.986 3.81-1.961 9.716-2.912 15.208 0.373 7.64-1.733 16.904-5.052 28.219-1.318-1.081-2.914 1.656-4.557 6.096-0.84 2.202-1.663 4.891-2.583 7.687-1.001 3.161-2.020 6.478-3.019 9.716 0.148 1.156 0.366 2.342 0.549 3.457 0.062 0.802 0.151 1.545 0.273 2.308 0.148 1.438 0.393 2.921 0.495 4.283 0.148 2.639 0.083 4.823-0.275 6.423 1.356 4.956 2.444 10.018 3.402 15.099 0.441 2.56 0.89 5.14 1.371 7.741 0.402 2.76 0.825 5.453 1.262 8.29 1.72 5.355 3.471 10.837 5.271 16.472 1.799 5.473 3.717 11.114 5.874 16.91 0.64-9.396 2.499 6.622 5.656 3.899 0.924 2.398 1.534 4.044 1.979 5.161 0.12 0.84 0.253 1.987 0.164 2.14v0.055l0.384 17.35c-0.478 4.198-1.715-5.236-2.472-4.557 1.679 12.277-0.77 5.397-0.493 13.671 1.122-1.876 2.599 3.958 3.239 11.036l0.218-10.104c2.277 8.074 2.109 11.421 2.033 15.703 0.301 4.756 0.149 8.169 3.513 16.967l-2.527-5.054c1.156 3.358 2.659 9.038 4.339 15.153 0.919 3.077 1.813 6.255 2.692 9.332 0.523 1.483 1.043 3.009 1.484 4.45 0.598 1.6 1.167 3.116 1.648 4.557 0.684 1.483 0.847 1.696 1.205 2.415 0.402 0.598 0.726 1.129 1.043 1.648 0.679 1.081 1.449 2.027 2.084 2.746 0.148 1.636-0.054 3.941-1.813 0.384 2.202 5.797 4.818 11.912 7.578 17.954 2.88 6.238 5.805 12.508 8.565 18.505 1.559 2.157 3.075 4.202 4.557 6.203 1.277 1.832 2.532 3.619 3.731 5.383 2.399 3.512 4.457 6.848 6.096 10.049l-1.648-0.878c2.439 3.199 5.373 4.836 7.413 9.552-0.523 0-1.769-0.846-0.767 0.713 0.478 0.557 1.52 1.732 2.801 3.13 0.598 0.719 1.203 1.446 1.922 2.251 0.719 0.919 1.229 1.427 2.472 3.184 0.88 0.802 1.795 1.709 2.635 2.472 0.679 0.679 1.25 1.279 1.813 1.922l-4.008-2.415c14.314 15.474 24.912 20.523 38.107 32.118-1.961 2 9.365 13.853 15.043 19.767l-0.495 0.055c4.319 4.116 8.409 7.777 12.407 11.254 3.836 3.635 7.581 7.040 11.257 10.324 3.76 3.316 7.363 6.566 11.2 9.886 1.838 1.72 3.736 3.4 5.656 5.161 1.001 0.88 1.967 1.77 2.964 2.692 1.118 1.036 2.285 2.102 3.4 3.184 0.441 0.208 0.908 0.56 1.43 0.876 3.316 3.437 8.687 7.716 15.043 12.353 3.238 2.277 6.635 4.716 10.157 7.194 3.88 2.718 7.932 5.477 11.969 8.238 4.64 1.283 9.303 2.608 13.782 3.842 3.997 1.201 7.861 2.426 11.42 3.622-3.201-1.356 1.077-1.981 4.997-1.262 4.996 1.876 14.601 1.785 13.124 4.062l-1.757-0.549c0.478 0.523 1.191 1.058 2.031 1.541 0.373 0.208 0.784 0.474 1.262 0.711 0.598 0.18 0.299 0.132 0.495 0.329-0.208 0.028 1.422 1.079 2.58 1.757 1.283 0.76 2.547 1.543 3.899 2.306 2.723 1.483 5.566 3.050 8.127 4.448l2.801-2.251c2.956 2.597 6.48 5.067 10.324 7.469 1.883 1.201 3.82 2.45 5.819 3.57 2.236 1.242 4.475 2.387 6.754 3.622l6.915 2.306c2.079 0.64 4.166 1.225 6.205 1.868 4.116 1.277 8.222 2.504 11.856 3.622 7.359 2.363 13.359 4.772 16.637 7.413 0.84 0.148 1.043 0.17 2.801 0.602 2.519 0.339 5.297 0.666 8.016 0.987 2.601 0.269 5.149 0.629 7.469 0.713l-0.656 1.702c5.717 1.283 10.276 2.31 14.988 3.348 2.363 0.523 4.76 1.021 7.358 1.541 2.921 0.561 6.052 1.203 9.607 1.922 2.040-0.18 5.877-0.628 10.158-0.987l-3.677 1.593c10.317-0.679 12.65-6.156 22.127-6.915l3.021 2.471 7.852-0.493 8.127-0.329 10.049-1.43 9.498-1.484c6.319-1.081 12.552-2.488 18.669-4.448-0.208 0.437-0.679 1.321-3.513 1.922 2.476-0.402 6.366-0.957 10.487-1.593 2.317-0.12 4.677-0.217 6.917-0.329 2.359-0.148 4.638-0.376 6.477-0.656 3.367-0.472 5.495-1.178 5.008-2.197 2.154 1.666 18.91-1.444 27.99-3.293l-1.316 1.977c7.954-3.276 8.126-3.947 19.438-5.985 2.723-0.12 2.555 1.042-1.042 1.042 9.079-0.18 6.752-2.472 17.787-2.91l-3.897 1.648c4.519-0.523 6.62-0.89 8.181-1.371s2.509-1.008 5.71-2.086c0.028-0.028 0.189-0.185 0.329-0.273 0.76-0.557 1.606-1.246 2.526-1.924 0.719-0.478 1.558-0.924 2.363-1.484 1.679-1.043 3.456-2.139 5.215-3.019 3.437-1.758 6.578-2.951 7.578-2.635 0.516-1.519 4.072-5.309 8.949-7.909 0.96 0.12-0.541 1.461-1.26 2.14 3.201-1.72 5.873-3.453 8.236-5.052 1.201-0.88 2.285-1.617 3.4-2.415l1.484-1.153 0.933-0.713c0.478-0.269 1.919-0.812 3.239-1.207 1.283-0.441 2.505-0.918 3.788-1.314 2.519-0.719 5.096-1.298 8.016-1.539 0.373 0.478 1.016 0.586 1.977 0.547-7.035 1.757-13.171 3.405-16.69 4.285-0.719 0.441-1.274 0.777-1.595 0.931-0.26 0.17-0.437 0.261-0.527 0.301 0.385 0.594 2.49-0.161 2.726 0.194 0.441 0.148 0.639 0.324 0.876 0.599 0.12 0.269-0.028 0.784 0 1.262 0 0.090 0.025 0.217 0.055 0.329 0-0.062 0.024-0.217 0.055-0.329 0.516-0.18 1.001-0.42 1.484-0.656 1.122-0.441 2.248-0.961 3.402-1.484 2.322-0.96 4.783-1.979 7.301-3.019 5.001-2.040 10.225-3.866 14.824-4.669 0.478 0.028 0.924 0.044 1.316 0.164l-0.933 0.385c2.202-0.402 4.225-1.037 5.985-1.759 1.519-0.269 2.769-0.53 4.006-0.767 1.397-0.269 1.897-0.393 4.779-1.096 0.523 0.148 1.71 0.035 3.511-0.329 1.036-1.036 2.351-2.428 3.788-4.060 0.805-0.96 1.645-1.939 2.526-3.019 1.72-2.079 3.596-4.24 4.834-5.765-1.617-0.787 2.584-5.528-2.16-2.025 0.092 0.028-0.932 1.391-2.729 3.559-0.402 0.637-0.915 1.32-1.153 1.759 0-0.12 0.029-0.269 0.059-0.44l-6.477 7.909-5.492 1.484c1.122-0.643 3.372-1.498 5.052-2.142 0.598-0.84 1.225-1.706 1.868-2.58 0.523-0.681 1.103-1.477 1.704-2.197 0.998-1.283 2.196-2.476 3.677-3.677 0.76-2.716 1.691-5.633 2.251-7.194 6.319-3.596 15.855-12.837 18.174-13.233 1.6-2.121 3.237-4.379 4.995-6.697 2.398-2.040 4.865-4.166 7.303-6.205 2.601-2.277 5.085-4.452 7.523-6.532 4.76-4.359 8.813-8.491 11.091-11.969 3.117-2.997 4.44-2.308 6.039-2.91-1.799 1.832-4.123 3.633-4.886 4.834 6.038-6.276 20.517-15.29 20.754-18.451 9.513-5.439-3.759 5.291 8.236-3.622l-1.207 1.702c3.199-1.679 6.081-3.416 8.84-5.215 1.363-0.96 2.691-1.869 4.008-2.746 1.636-1.201 3.275-2.369 4.834-3.568l1.977-3.677 1.262-2.526 2.251-5.054c1.483-3.358 3.021-6.704 4.503-10.104 2.997-6.68 6.531-14.063 10.653-20.699 2.363-2.199 5.619-5.023 9.049-7.671-0.4 0.272-0.721 0.447-0.974 0.482 4.359-3.836 8.606-7.874 12.848-11.913l6.257-6.257 6.643-6.532c8.717-13.951 16.028-26.289 24.982-40.081l2.637-8.127 2.637-7.578c1.799-5.077 3.714-10.003 5.71-14.879 2.921-7.637 2.863-10.048 3.184-14.166 0-1.081 0.107-2.32 0.107-3.842l2.308-1.813 0.218-11.091c1.876-15.431 10.309-25.092 12.024-44.804l-1.813 2.197c1.876-6.797 4.5-21.89 5.656-20.369-0.028-0.802-0.782-2.491 0.495-5.052h1.096l0.329-2.527 0.602-3.4-1.316-3.677v0.164l-1.042-2.855-2.254-5.765c-2.801-13.075 4.437 1.048-0.438-17.899-2.322-6.916-8.262-19.218-8.183-16.417 0.719 2.835 1.365 7.385 0.44 7.907l-2.197-6.257c-0.18-0.028-0.458-0.049-0.656-0.109l-0.329-1.042 9.332-45.846-8.238-30.749 0.713 0.602-1.096-2.084-2.637-9.772c0.396 0.18 1.005 0.992 1.648 2.91-0.208-2.88-0.638-4.307-1.153-5.71-1.159-1.995-2.069-2.643-2.91-6.643-0.12-0.76 0.173-0.552 0.549 0l-3.733-6.203c1.081 1.036 1.209-1.889 2.692 2.306-4-12.393-10.577-18.101-10.816-23.335l0.658 0.878c-6.238-11.875-4.454-6.26-6.534-7.741l-0.109-0.329-1.096-7.798 2.472-6.643-2.142-1.539c-0.18-1.799-0.469-5.451 0.385-4.888-2.195-6.636-0.713 1.27-2.471-2.526 0.437-6.957-1.913-16.881-2.033-23.115-0.998-1.757-1.604-3.209-1.205-4.006-3.199-1.799 4.351 7.811-2.362 0.493 1.036-4.198-6.971-8.503-10.651-15.979 2.88 0.998 6.71 7.764 3.073 0.329-5.238-2.236-8.88-13.127-13.397-18.285-2.121 1.118-9.541-11.548-16.858-20.423 1.081 0.12-11.697-18.291-16.855-27.727l0.438 0.055c-3.077-0.399-8.932-9.744-13.891-16.141 1.318-0.516 2.644 0.36 5.601 3.622l-4.228-6.314c-1.636-1.036-3.242-2.817-6.205-6.697l2.526 0.656-2.251-3.019-3.073-2.58-2.692-2.197c-1.799-1.438-3.736-2.98-5.656-4.503-3.836-3.157-7.774-6.553-11.695-10.871-1.118 0.523 1.337 4.993-0.329 5.271l-5.106-4.777c0.557-0.208 1.428-0.069 2.91 0.987-0.96-0.719-3.626-2.239-5.109-4.117l5.054 2.637c-3.917-4.475-3.136-1.183-6.534-4.503 0.96-0.84-1.876-3.011-0.713-3.293 0.96 0.719 2.659 3.13 4.339 4.008-1.876-1.838-4.319-4.356-5.435-5.874-0.802-1.6-1.983-3.946-2.14-4.941-0.336 0.84-1.369 1.118-3.843-1.924-6.117-7.993-0.9-3.707-3.897-8.785-2.157-1.397-5.32-7.054-6.915-6.094-1.762-2.359-1.425-3.267-1.704-4.503-1.039-1.001-2.601-2.916-4.283-4.997-1.995-2.439-4.060-5.103-5.819-7.303-6.117-1.519-7.682-1.572-5.601 0l1.484 0.549c-0.339-0.028-0.683-0.158-1.042-0.218-7.077-1.236-14.103-3.324-21.14-5.601l-10.542-3.513c-3.358-1.122-6.553-2.201-9.829-3.239l-2.798-2.415-3.295-2.637 0.384-0.44c-8.155-6.033-17.361-14.346-23.716-18.063-2.277-1.92-4.622-5.443-3.184-5.161-0.918-0.684-1.75-1.356-2.308-1.757-1.438-0.598-2.625-1.043-3.787-1.484-1.081-0.437-2.105-0.893-3.184-1.373-2.196-1.081-4.722-2.491-8.84-5.052 7.476 2.481-1.991-2.024 7.523 2.855-8.799-4.957-10.416-6.878-20.809-10.158 3.956 0.148-5.732-5.131-10.487-6.972l5.929 4.228c-1.397-0.598-2.723-1.207-4.008-1.813-1.479-0.719-2.938-1.477-4.339-2.197-2.398-0.373-4.638-0.644-6.915-1.043l2.801-1.757c-9.953-2.597-19.235-2.682-27.949-2.964-4.319-0.12-8.495-0.302-12.573-0.822-4-0.564-7.78-1.869-11.42-3.622-5.596 0.396 10.785 3.137 5.71 3.897-9.197-2.081-18.275-6.951-21.195-7.469-5.117-1.52-8.138-1.675-10.816-1.593-1.363 0.062-2.549 0.158-3.953 0.218-0.679 0.028-1.491 0.028-2.251 0-0.88-0.028-1.463-0.034-3.019-0.273-0.96 0-1.974 0.055-3.13 0.055-1.001 0-2.121-0.076-3.4-0.164 1.762 0.796 3.4 2.75-6.752 3.348-9.436-0.441-11.599-3.324-5.601-3.842 2.277-0.028 3.377 0.206 3.293 0.495 3.081-0.208 7.050-0.489 3.295-1.373l-1.262 0.767c-4.676-0.88-17.669-0.996-14.55-2.197-7.196 0.643-3.171 1.167 2.142 1.648-7.833-0.875-13.813-0.743-19.931-0.822-2.88-0.18-6.839-0.571-11.036-1.205 1.953 0.598 3.718 1.626 1.757 1.428-18.189-2.601-8.144 0.668-20.534-0.109-6.918-1.757 2.742-2.481-9.772-2.637-7.556-1.483-1.447-2.108 1.595-2.471-1.363 0.028-2.691 0.028-4.008 0l-2.801-0.164c-1.102-0.119-2.177-0.196-3.239-0.329h-0.057v-0.011zM226.539 328.853c32.469-0.036 65.017 8.078 97.218 19.621 57.84 20.744 101.166 62.782 144.925 104.295 5.086-3.871 10.209-7.716 15.371-11.543 2.125 5.941 3.318 11.946 2.955 18.133 2.573-1.441 5.799-1.922 9.842-0.973 3.449 0.821 6.044 2.374 9.467 1.438l-0.011-0.013c4.339 0.949 8.781 2.010 13.235 2.434 0.871 1.212 1.245 1.751 2.114 2.968-0.932 2.834-2.239 5.596-3.585 8.107-1.725 3.235-4.157 6.11-7.205 8.166-4.592 3.112-8.558 3.961-13.822 2.844-0.593-0.126-1.657-0.333-2.729-0.602-1.015-0.331-2.023-0.682-3.034-1.029-0.124-0.054-0.263-0.154-0.329-0.217-0.599-0.008-1.057-0.134-1.421-0.375-3.079-1.029-6.157-2.045-9.236-3.053-3.244 5.119-7.781 10.416-13.918 15.947l-0.009 0.002c-13.378 9.352-6.255 24.437 5.233 41.132-25.966 19.139-52.882 36.883-82.505 50.61-50.112 23.205-110.993 31.793-162.574 9.903-50.993-21.641-94.043-72.399-113.756-123.39-15.451-40.016-3.058-107.209 38.36-127.307 24.955-12.112 50.161-17.073 75.414-17.101zM266.664 383.573c-16.26-0.112-32.511 2.415-50.435 7.279-36.581 9.941-49.476 29.077-55.655 65.723-5.537 32.809 12.393 63.014 39.262 82.015 27.203 19.213 58.168 18.319 89.383 12.873 58.738-10.247 106.259-43.239 152.462-78.144-37.857-34.842-72.812-64.832-124.533-81.196-17.956-5.687-34.223-8.436-50.484-8.548zM589.975 388.368c2.92-0.041 5.569 0.579 6.946 2.051 1.533 1.657 1.999 4.098 2.857 4.086l0.020-0.006c1.237 1.99 2.496 4.075 3.711 5.701 0.375 1.095 0.955 2.764 1.323 3.873 0.115 2.173 0.127 4.238 0.115 6.133-0.035 3.857-0.33 6.742-1.153 8.183-0.84 1.472-1.818 1.104-3.339-1.292-0.179-0.298-0.528-0.799-0.859-1.373-0.333-0.628-0.664-1.268-0.985-1.897-0.041-0.117-0.108-0.217-0.139-0.32-0.161-0.187-0.319-0.455-0.449-0.787v0.011c-1.276-2.443-2.555-4.865-3.834-7.262-28.513-8.366-14.647-16.952-4.217-17.101zM540.754 405.648c7.315 0.912 14.707 1.809 22.13 2.639l-0.030 0.020c0.947-0.041 1.78 0.064 2.467 0.412 0.287-0.041 0.605-0.041 0.937-0.041 1.895 0.217 3.827 0.423 5.721 0.662 1.815 0.344 3.472 0.756 4.418 0.987 7.788 1.733 10.311 4.751 8.724 10.173-1.564 5.318-7.083 11.030-15.075 17.255-4.077 3.174-8.594 6.465-13.488 9.64-3.165 0.455-6.223 0.821-9.337 1.216-5.722-2.036-12.744-3.446-19.431-4.93l-0.002-0.004c-1.484-3.129-8.040-2.922-13.743-4.075-21.547-4.373 1.738-20.487 26.709-33.955zM696.683 467.707c3.302-0.044 6.625-0.002 9.971 0.133 20.645 0.846 42.714 1.729 62.083 9.515 6.553 1.77 13.153 3.784 19 6.466 3.47 1.587 6.663 3.763 9.775 6.109 3.478 1.127 7.028 3.24 10.157 5.878 40.904 34.496 71.079 91.331 75.041 145.27h-0.002c3.941 53.569-25.226 101.292-83.501 97.436-55.611-3.663-115.326-36.786-159.351-68.463-30.742-22.121-57.771-50.102-82.837-79.245-7.85 4.409-15.719 8.728-23.631 12.941-8.939-18.206-13.809-34.156 0.806-41.454 25.046-16.694 28.757-33.392 25.296-50.645 42.945-23.019 87.661-43.282 137.193-43.941zM485.356 493.193c2.972-0.063 6.064 1.049 9.193 3.831 2.659 2.371 4.187 4.959 7.647 5.765l-0.007 0.006c3.229 2.791 6.479 5.678 10.003 8.109 0.422 1.198 0.903 2.395 1.281 3.629-2.033 1.972-4.356 3.741-6.647 5.289-3.801 2.571-8.26 4.211-12.858 4.326-4.52 0.124-7.981-1.117-11.579-4.202-0.438-0.391-1.291-1.076-2.114-1.831-0.729-0.753-1.449-1.539-2.179-2.317-0.063-0.123-0.153-0.253-0.192-0.368-0.525-0.296-0.859-0.651-1.064-1.026 0 0.012-0.011 0.013-0.011 0.013-2.813-3.017-5.629-6.041-8.487-9.025 4.519-6.232 10.479-12.061 17.017-12.2zM541.575 522.734c4.919 1.811 9.837 5.113 7.083 10.755-0.722 1.484-1.717 2.488-1.628 4.167l-0.021 0.006c-0.838 1.795-1.737 3.628-2.389 5.523-0.488 0.352-0.973 0.708-1.475 1.029-1.153-0.665-2.233-1.486-3.217-2.319-1.645-1.387-2.957-3.185-3.585-5.241-0.615-2.019-0.511-3.719 0.425-5.732 0.126-0.263 0.332-0.724 0.573-1.199 0.253-0.41 0.529-0.844 0.778-1.267 0.031-0.037 0.092-0.12 0.131-0.142 0.078-0.27 0.172-0.46 0.331-0.602h-0.011c1.017-1.663 2.021-3.301 3.003-4.978zM729.568 526.71c-34.853-0.035-74.202 9.672-104.354 25.821-12.966 6.932-25.796 14.186-38.593 21.482 19.509 21.427 40.738 41.026 65.748 56.538 39.852 24.7 113.739 69.559 160.719 39.035l0.009 0.013c27.888-18.105 27.897-57.477 16.149-89.462-0.436-0.206-0.847-0.49-1.292-0.707-1.922-5.658-3.971-11.246-7.083-16.459-5.882-9.849-13.59-18.171-23.57-23.938-4.345-2.513-9.068-4.436-13.95-5.78-0.346-0.204-0.665-0.472-1.011-0.679-11.96-6.51-32.402-5.186-45.863-5.723-2.279-0.091-4.585-0.135-6.909-0.137zM523.689 538.916c10.801 0.154 3.829 25.524-5.148 27.807-3.073 0.766-6.405-0.285-6.954 0.754l-0.004 0.006c-3.427 0.196-7.021 0.356-9.901 0.778-1.574-0.255-3.084-0.494-4.66-0.743-2.956-1.439-5.71-2.888-8.184-4.283-4.669-2.638-8.021-4.956-9.238-6.93-1.251-2.046-0.15-2.997 3.834-3.213 0.494-0.027 1.327-0.109 2.262-0.131 0.984 0.021 1.977 0.028 2.97 0.039 0.167 0.021 0.348 0.049 0.488 0.063 0.331-0.074 0.777-0.073 1.279-0.011-0.019 0-0.019-0.001-0.030-0.013 3.871 0.068 7.693 0.153 11.498 0.174 10.615-10.556 17.563-14.357 21.79-14.297zM469.906 561.528c4.917 1.807 9.837 5.104 7.083 10.747-0.722 1.484-1.715 2.513-1.626 4.167l-0.024 0.002c-0.836 1.799-1.735 3.628-2.386 5.525-0.488 0.348-0.973 0.706-1.475 1.026-1.153-0.665-2.233-1.484-3.217-2.317-1.645-1.395-2.959-3.173-3.587-5.229-0.617-2.040-0.5-3.74 0.449-5.751 0.105-0.255 0.308-0.733 0.549-1.192 0.253-0.422 0.511-0.855 0.778-1.279 0.041-0.035 0.103-0.119 0.142-0.139 0.072-0.27 0.181-0.464 0.323-0.604h-0.013c1.017-1.64 2.021-3.301 3.003-4.956zM491.739 583.001c0.572-0.011 1.147 0 1.722 0.035 4.534 0.284 7.853 1.835 11.169 5.215 0.43 0.436 1.202 1.191 1.957 2.012 0.644 0.833 1.295 1.678 1.959 2.513 0.062 0.133 0.13 0.26 0.161 0.375 0.496 0.354 0.816 0.711 0.985 1.109v-0.013c2.529 3.264 5.090 6.512 7.665 9.731-7.329 8.475-17.643 15.799-26.835 6.052-2.433-2.589-3.729-5.305-7.109-6.416l-0.013-0.006c-2.972-3.036-5.958-6.211-9.261-8.94-0.317-1.249-0.679-2.478-0.946-3.745 2.192-1.787 4.672-3.329 7.092-4.675 3.516-1.967 7.449-3.169 11.457-3.245zM450.732 591.464c2.92-0.042 5.571 0.579 6.948 2.051 1.533 1.642 1.999 4.1 2.857 4.089l0.017 0.007c1.237 1.97 2.513 4.071 3.711 5.697 0.383 1.093 0.971 2.764 1.345 3.871 0.099 2.175 0.11 4.237 0.098 6.135-0.035 3.857-0.328 6.747-1.151 8.186-0.836 1.463-1.816 1.107-3.337-1.314-0.177-0.298-0.511-0.809-0.856-1.36-0.323-0.628-0.665-1.268-0.987-1.897-0.041-0.117-0.111-0.217-0.142-0.323-0.161-0.185-0.315-0.456-0.445-0.787-1.28-2.435-2.56-4.857-3.84-7.255-28.516-8.365-14.651-16.951-4.221-17.101zM439.802 612.39c0.268-0.007 0.535-0.006 0.804 0.009 2.108 0.117 3.673 0.821 5.237 2.386 0.204 0.204 0.568 0.562 0.937 0.935 0.294 0.379 0.615 0.769 0.911 1.168 0.041 0.041 0.083 0.106 0.083 0.168 0.241 0.156 0.393 0.332 0.456 0.501h0.013c1.196 1.517 2.396 3.022 3.629 4.52-3.398 3.985-8.188 7.456-12.529 2.96-1.151-1.202-1.792-2.471-3.367-2.973h0.015c-1.402-1.408-2.806-2.873-4.372-4.139-0.161-0.582-0.327-1.155-0.456-1.737 1.029-0.854 2.16-1.597 3.297-2.225 1.631-0.931 3.47-1.518 5.342-1.573z"></path>
    </svg>