<svg xmlns="http://www.w3.org/2000/svg" viewBox="274.739 -48.365 471.920 1120.362">
    <path fill="#000000" d="M506.693 287.469c-1.244 5.916-2.818 11.804-4.229 17.687-1.445 6.013-1.361 10.686-1.654 16.693-0.234 6.046-3.605 11.142-4.556 17.069-1.055 6.54 0.085 12.926-1.41 19.47-1.537 6.8-1.985 14.127-4.262 20.712-2.068 5.967-4.062 11.929-6.13 17.937-1.867 5.259-2.688 11.272-3.605 16.774-1.244 7.667-1.41 15.698-1.41 23.489 0 6.21 0.703 12.841-0.821 18.93-1.528 6.013-2.311 11.888-4.309 17.73-2.525 7.374-3.651 15.41-4.886 23.071-0.703 4.392-1.654 8.29-3.030 12.51-1.172 3.651-0.821 7.080-1.373 10.815-0.938 6.75-3.228 13.214-4.262 19.964-0.586 3.852 0.040 7.621-0.117 11.473-0.234 4.472-1.055 8.785-1.198 13.296-0.234 7.327-1.41 15.408-2.688 22.616-1.244 6.963-0.586 14.003-2.068 21.002-1.867 9.030 0.117 18.145-1.445 27.133-1.172 6.54-1.654 12.633-2.031 19.301-0.234 3.768-1.361 7.164-1.281 10.979 0.040 1.738 0.234 3.722-0.234 5.426-0.117 0.586-1.244 1.901-1.055 2.608 1.361 4.886 10.895-8.408 11.848-9.275 1.784 5.506-3.735 11.473-5.837 16.156-1.445 3.228-1.867 6.67-3.475 9.618-1.055 1.95-2.818 2.935-3.932 4.685-1.95 3.030-3.149 8.864-3.195 12.343-0.117 4.472-0.821 7.587-1.445 11.929-1.901 11.682-3.358 23.319-5.636 34.959l1.172-21.291c0-9.982-1.198-19.635-1.172-29.575 0.040-11.18-0.352-22.368 0.040-33.554 0.469-13.215 2.688-26.594 4.966-39.685 1.867-10.815 2.981-21.789 5.096-32.517 2.324-11.636 4.769-23.24 6.507-34.919 1.172-7.42 0.821-14.91 1.95-22.328 0.821-5.473 2.935-10.392 4.015-15.822 2.655-13.215 1.654-26.55 2.935-39.89 1.198-12.302 3.605-24.441 5.259-36.699 1.445-10.815 3.111-21.415 5.426-32.018 2.148-10.11 4.685-19.885 7.621-29.741 2.361-7.784 5.753-15.866 7.047-23.858 1.41-9.111 2.734-18.145 4.719-27.133 2.068-9.488 4.602-18.599 5.389-28.29 0.703-8.49 1.055-16.899 4.145-24.935 1.985-5.259 4.229-10.439 6.293-15.698 3.559 0.821-0.938 18.35-1.528 20.877zM641.642 74.108c-2.655-4.346-4.062-4.602-8.408-5.967-3.722-1.198-6.704-3.605-8.994-6.88-1.574-2.244-2.688-7.537-6-7.75-0.938 3.030 0.469 6.8-0.085 9.898-0.938 4.639-4.639 9.618-6.917 13.834-6.704 12.343-14.003 24.441-21.416 36.41-2.818 4.522-7.374 10.11-8.37 15.867 0.040 1.574 0.085 3.111 0 4.639-0.352-1.537-0.234-3.111 0-4.639-0.469-8.701-2.734-17.606-0.234-25.89 4.685-15.204 4.015-31.48 8.655-46.684 1.95-6.046 4.472-11.848 7.587-17.398 1.62-2.244 2.194-4.639 1.704-7.21-1.41-0.703-3.228-0.117-4.639 0.117-2.525 0.469-4.51 0.821-7.21 0.821-2.655 0.085-4.556 0.703-6.997 1.528-2.948 0.938-5.967 1.41-9.030 1.985-13.13 2.525-27.712 6.917-39.227 13.878-4.346 2.655-6.26 7.127-10.191 10.028-1.901 1.41-3.312 1.738-5.552 2.441-8.734 2.818-12.343 9.618-15.41 17.606-4.426 11.636-11.97 21.541-20.254 30.653-9.522 10.568-9.944 24.81-17.896 35.996-3.982 5.552-7.21 10.485-10.309 16.611-2.981 5.967-6.54 11.435-10.191 16.984-9.488 14.456-16.819 30.487-25.145 45.647-4.229 7.667-8.571 15.244-11.096 23.694-2.655 8.818-3.605 16.818-3.392 25.972 0.117 7.41 0 14.54-1.784 21.749-2.324 9.195-8.948 16.112-12.756 24.606-3.195 7.127-6.67 14.415-9.404 21.748-3.651 9.735-1.784 20.754-3.195 30.903-1.821 13.17-6.092 25.597-6.046 38.977 0.040 9.442 1.198 18.35 2.361 27.672 0.352 2.981 1.055 4.639 2.525 7.374 4.015 7.587 8.077 14.79 11.226 22.826 2.981 7.704 6.339 15.533 5.179 23.983-0.586 4.309-1.867 8.571-2.608 12.881-0.821-1.172-1.244-2.571-1.055-4.145-1.055-4.309-2.408-8.571-3.982-12.757-2.441-8.244-3.392-16.734-7.704-24.316-2.818-4.932-5.343-10.145-8.408-14.954-1.281-2.068-2.772-5.259-5.636-5.259-0.469-1.537 0-2.981-0.469-4.51-6.13 0.234-2.525 14.332-1.985 16.405 1.867 6.8 4.522 13.091 4.639 20.254 0.117 4.849 0.117 9.241 0.938 14.082 1.821 10.895 3.898 21.83 5.967 32.683 1.738 9.325 5.883 18.225 7.080 27.63 0.586 4.886 0 9.944 0.352 14.871 0.586 7.41 1.41 14.54 3.442 21.664 2.114 7.587 3.065 15.035 4.556 22.657 1.491 7.667 4.685 14.456 4.932 22.368 0.117 5.012-0.085 9.898-0.938 14.83-0.821 4.719-2.772 8.981-3.722 13.588-1.055 5.259-1.244 11.355-1.41 16.694-0.234 6.13-0.469 12.718 1.055 18.684 1.445 5.473 4.262 9.488 7.244 14.082 2.688 4.145 5.012 8.49 7.667 12.676 3.111 4.849 5.012 10.439 8.244 15.244 3.195 4.639 8.127 8.818 7.95 15.035-0.041 1.867-0.703 3.312-1.327 5.012-0.938 2.655-0.703 3.274-3.559 3.605-0.821-0.234-1.654-0.234-2.441 0.117-0.703 0.821-1.198 1.821-1.361 2.935-1.62 1.198-4.849 0.469-6.833 0.469-4.392 0.039-7.704-1.055-11.888-2.441-4.639-1.528-8.161-1.172-12.882-0.234-3.898 0.703-5.967 1.574-4.932 6.176 0.469 1.901 1.172 2.688 1.055 4.639-0.703 1.172-1.055 2.408-1.281 3.722-0.469 2.361-0.821 4.769-1.172 7.127-1.055 6.423-2.114 13.588-4.438 19.676-1.244 3.312-4.099 5.636-4.886 8.981-1.172 4.849-2.49 12.593-0.938 17.483 3.932-0.586 9.157-8.408 12.387-10.65 2.935-2.068 6.176-3.195 7.41-6.716 1.95-5.506 2.571-12.467 3.852-18.185 1.244-5.506 0.085-11.259 1.281-16.57 1.784-0.703 4.472 1.055 6.339 1.198 2.114 0.117 4.179-0.234 6.26-0.039 2.148 5.753 4.602 11.355 6.833 17.109 1.198 3.111 3.521 6.013 4.145 9.157 0.821 3.815-0.703 5.096 3.521 5.67 3.065 0.469 2.571 1.867 4.769 4.262 1.491 1.654 2.114 1.704 2.361 4.015 0.117 1.62 0.352 4.309 0 5.916-0.938 5.309-3.065 10.602-4.179 15.947-1.172 5.426-2.525 10.522-3.111 16.072-0.586 6.092-1.95 12.303-3.392 18.27-1.281 5.297-2.772 10.472-4.015 15.822-1.327 5.837-2.031 11.848-3.358 17.686-3.274 14.25-5.552 28.748-9.241 42.955-3.111 12.095-6.293 25.061-11.929 36.287 3.521-3.442 5.967-7.41 8.655-11.435 2.324-3.559 5.050-5.552 8.278-8.207 3.030-2.441 5.142-5.799 8.161-8.324 2.852-2.408 7.164-2.324 9.605-4.685s3.722-6.632 5.343-9.57c1.654-2.935 1.198-5.343 1.738-8.49 0.703-4.438 2.734-9.781 4.769-13.794 2.324-4.522 4.522-7.997 5.389-13.503 0.117-2.935 0.586-5.837 1.361-8.701 1.172-2.408 2.148-4.803 3.111-7.244 1.62-5.226 2.441-11.062 3.392-16.405 1.244-7.21 2.148-13.71 1.901-21.042-0.117-4.145-2.148-8.244-0.938-12.428 0.586-1.821 1.821-3.392 2.49-5.226 0.821-2.324 0.586-4.556 1.172-6.917s1.821-3.932 3.559-5.59c1.62-1.528 2.068-3.228 3.559-4.719 2.114-2.114 4.062-1.654 4.472-5.012 0.117-1.281-0.469-2.981-0.085-4.229 0.586-2.068 0.234-1.281 2.408-1.738 2.361-0.469 2.608 0.117 3.605-2.278 0.703-1.821 0.821-4.015 1.361-5.929 3.475 0.117 5.012 4.392 7.997 5.636 1.784 0.703 3.605-0.117 5.389 0.234 3.149 0.703 7.29 4.966 9.57 6.67 5.59 4.229 10.815 7.244 17.19 10.145 9.735 4.392 19.345 9.030 29.161 13.13 10.392 4.346 21.375 8.37 32.557 9.944-0.084-0.039 9.404 1.867 10.275-0.234 0.821-2.031-3.019-6.632-4.229-8.324-3.442-4.849-7.914-8.324-12.302-12.219-6.13-5.426-12.179-10.895-18.351-16.28-4.769-4.099-9.358-8.91-14.705-12.303-3.852-2.441-5.179-3.639-9.618-3.605-6.457 0.085-13.543 2.525-19.924 0.938 0.703-1.784 3.228-2.608 4.886-3.559 3.065-1.738 6.046-3.521 9.195-5.050 4.099-2.031 8.617-2.571 12.552-4.719 2.068-1.172 4.309-1.985 6.339-3.149 0.469-3.228-3.475-6.833-4.51-9.815-1.244-3.475-2.031-3.030-5.753-3.030-2.232 0-3.982 0.586-5.967 0.938-0.040 0.703-0.117 1.41-0.117 2.114 0 1.491-0.040 2.981-0.085 4.472-0.234-0.117-0.469-0.234-0.586-0.352l0.821-6.21c-0.469 0.085-0.703 0.234-1.172 0.234-1.985 0.234-4.145-0.117-6.176-0.085-3.195 0.085-3.312 1.574-5.309 3.605-2.114 2.068-5.012 1.985-7.704 2.981-6.8 2.571-13.794 5.506-20.379 8.617-2.525 1.172-6.013 3.475-8.864 2.408 6.88-10.309 16.071-18.808 19.759-30.862 4.392-14.541 12.014-27.587 17.19-41.795 2.525-6.963 7.914-10.979 11.226-17.313 2.902-5.636 2.232-11.682 3.442-17.811 2.148-10.815 5.916-21.042 8.981-31.605 2.818-9.815 8.077-19.137 12.138-28.459 2.571-5.883 6.963-10.568 9.651-16.361 1.821-3.898 2.244-8.408 3.030-12.592 1.055-5.67 2.655-11.226 3.932-16.859 1.901-8.454 4.179-15.99 8.244-23.734 2.525-4.685 5.636-9.111 7.047-14.332 1.055-3.932 0.469-8.244 0.352-12.264 0-3.521-0.040-6.176-0.938-9.358-0.469-1.445-0.469-2.734-0.234-3.982-2.655 2.852-5.552 5.426-8.408 8.031-4.685 4.262-8.948 8.981-14.044 12.756-5.050 3.768-9.111 7.667-13.089 12.51-6.339 7.667-14.083 14.621-21.501 21.166 1.784-3.149 3.768-6.092 4.803-9.57 1.361-4.639 3.475-6.507 6.67-10.145 1.41-1.62 2.114-3.689 3.475-5.309 1.055-1.281 2.608-1.985 3.815-3.149 3.815-3.639 6.457-8.538 9.781-12.592 10.392-12.633 25.474-21.624 33.758-35.748 1.172-1.95 2.408-3.815 3.689-5.636 1.327-2.734 2.772-5.426 4.262-7.537 1.281-1.738 3.019-2.935 4.262-4.803 1.445-2.194 2.49-5.142 3.559-7.587 2.902-6.457 4.522-11.18 9.442-16.611 4.769-5.297 9.195-10.568 11.929-17.313 3.149-7.75 3.639-16.445 4.602-24.645 0.703-6.092 0.821-13.628 4.145-19.012 2.441-4.015 4.392-3.228 4.51-8.077 0.234-6.67-1.574-13.753-2.688-20.338-1.172-6.377-2.441-12.676-3.228-19.097-0.703-6.046-2.49-11.682-2.441-17.771 0-5.837 0.234-12.054 1.901-17.687 1.704-5.753 4.145-8.864 4.062-15.035-0.085-6.377-0.234-12.756-0.085-19.137 0.234-8.077 0.938-17.148 3.768-24.77 2.571-6.997 6.092-13.505 9.078-20.298 3.392-7.784 7.127-15.16 11.519-22.453 3.274-5.426 5.179-11.012 7.914-16.61 2.571-5.179 5.799-9.442 7.537-15.079 1.867-6.046 1.95-12.303 1.784-18.559-0.821-26.799-10.275-51.613-21.788-75.511l-0.821-0.938c0-0.234-0.040-0.469-0.040-0.821 0.234 0.586 0.586 1.172 0.821 1.738l26.469 33.388c-8.734-11.888-17.482-23.653-25.060-36.285z"></path>
    </svg>