<svg xmlns="http://www.w3.org/2000/svg" viewBox="27.349 -16.005 994.898 1120.005">
    <path fill="#000000" d="M914.241 165.085c-4.297 5.916-7.814 12.851-12.991 18.122-5.452 5.452-12.756 8.734-18.812 13.405-5.082 3.977-10.033 7.629-15.344 11.19-11.79 7.855-20.616 15.808-29.814 26.391-5.641 6.471-11.606 12.296-18.537 17.337-6.705 4.852-11.466 10.308-16.828 16.548-10.217 11.877-23.717 20.665-34.67 31.893-3.837 3.93-7.535 7.255-11.972 10.447-7.859 5.641-13.771 12.481-20.061 19.736-5.366 6.195-13.5 15.858-22.559 15.719 5.082-0.167 9.843-0.167 14.79 1.020 11.417 2.91 22 7.025 33.606 9.244 7.399 1.436 13.775 6.15 21.17 7.769 8.968 1.987 20.25 0.334 29.354 0.334h5.965c-1.943 4.022-4.112 7.904-6.795 11.647-4.437 6.195-8.734 12.296-12.851 18.767-9.848 15.579-22.234 29.264-32.407 44.61-10.817 16.318-21.125 32.961-31.71 49.415-11.142 17.288-22.974 34.021-35.64 50.154-5.826 7.35-13.775 13.266-20.8 19.412-8.924 7.814-18.030 15.114-26.396 23.528-16.318 16.41-30.418 34.58-48.396 49.415-10.587 8.734-19.182 19.366-27.785 30.049-2.128 2.633-4.946 7.949-8.085 9.334-0.879-2.449 0.334-4.712 0.924-7.116 1.344-5.181 1.804-9.802 1.894-15.119 0.128-7.395 1.528-14.7 1.664-22.14 0.291-11.79 0.379-23.853-0.419-35.64-0.645-9.388-0.969-18.63-1.109-28.015-0.167-13.405-2.173-26.996-3.468-40.306-3.142-32.176-7.165-64.024-7.395-96.431-0.085-13.865-0.51-27.365-1.159-41.185-1.154-25.751-0.21-51.588-0.379-77.339-0.039-11.97 0.043-23.898 1.11-35.779 1.060 0.789 2.173 1.574 3.418 2.218 9.803 5.181 18.906 11.097 28.154 17.247 11.922 7.9 20.381 20.665 33.191 27.505 5.406 2.91 4.712-0.419 4.712-4.852 0-5.271-1.249-9.708-3.238-14.659-3.048-7.485-6.425-14.371-8.919-22.094-1.894-5.686-4.852-10.953-7.3-16.363-7.999-17.378-16.688-34.35-25.152-51.498-9.104-18.537-21.864-34.296-29.025-53.901-8.418-22.883-19.741-44.558-28.845-67.166-3.283-8.229-6.75-16.088-10.402-23.943-0.559 2.864-1.204 5.776-2.128 8.689-3.192 9.75-5.916 19.646-10.308 28.984-3.007 6.38-6.845 12.341-9.803 18.767-3.513 7.625-6.795 15.39-10.493 22.883-6.241 12.666-11.836 25.377-17.288 38.367-2.498 5.916-5.456 11.606-7.769 17.613-2.868 7.3-4.392 14.93-6.565 22.464-2.264 7.905-6.010 15.349-8.734 23.113-2.593 7.444-5.086 14.889-7.629 22.329-2.679 7.674-5.731 15.21-7.444 23.204-2.034 9.663-2.494 19.601-4.392 29.309-1.479 7.814-4.252 16.088-7.070 23.533-0.46 1.198-0.879 2.818-1.619 4.022 2.449-1.663 6.61-3.238 8.184-4.112 5.037-2.822 10.402-4.482 15.299-7.535 9.57-5.871 17.383-14.424 27.785-18.951 3.693-1.663 5.776-3.191 8.734-6.101 3.607-3.607 7.814-5.221 11.786-8.229 7.399-5.55 12.761-13.311 19.001-20.11-1.11 7.49-1.479 15.164-2.408 22.604-1.89 15.028-3.188 29.169-3.093 44.333 0.039 11.832 0.167 23.668 0.085 35.5-0.128 14.239-2.218 28.335-2.818 42.525-0.559 12.666-0.085 25.192-1.758 37.767-1.619 12.526-4.207 24.687-5.181 37.304-1.154 14.884-0.97 29.773-1.849 44.658-2.173 37.258-3.373 74.142-9.983 111.031-2.218 12.481-5.965 25.053-6.286 37.768-0.085 4.162 0.875 9.153-0.128 13.13-1.294-3.053-5.731-3.513-8.369-5.501-5.132-3.792-8.274-9.433-13.41-13.081-3.792-2.73-4.297-2.96-6.931-8.229-2.079-4.113-3.93-8.319-6.010-12.436-4.347-8.414-10.17-15.579-15.254-23.532-4.35-6.885-8.089-14.141-12.481-21.031-9.108-14.33-17.937-28.89-27.645-42.804-8.968-12.9-13.956-27.555-20.665-41.695-4.622-9.802-9.75-19.371-14.654-29.074-5.824-11.606-10.536-24.087-17.286-35.13-10.353-16.963-22.883-32.591-33.466-49.464-6.98-11.138-15.994-21.125-22.514-32.497-9.57-16.688-16.594-34.39-23.435-52.188 8.92-0.203 17.888-0.924 26.906-0.924 7.165-0.032 14.33-0.032 21.495 0 2.633 0 5.826 0.508 8.369-0.203 0.419-2.498-6.056-7.535-7.674-8.924-2.494-2.129-5.267-3.742-7.58-6.006-3.192-3.145-5.686-6.985-8.734-10.308-15.673-17.013-33.148-32.867-50.573-48.080-11.37-9.888-23.435-17.842-35.78-26.486-14.79-10.262-28.474-22.099-43.222-32.452-9.937-7.025-20.616-13.541-29.124-22.283-2.73-2.772-6.056-5.222-8.97-7.81-3.050-11.052-4.577-11.006-6.010-10.493-0.692 2.31 0.273 4.667 0.646 6.98 0.971 6.010 0.786 11.927 0.786 17.982-0.046 10.953 0.092 21.63 1.157 32.541 1.387 14.654 0.832 29.584 3.33 44.144 2.404 14.424 5.549 28.569 7.768 43.039 1.11 7.26 2.079 14.469 3.096 21.729 1.11 7.81 0.646 15.899 2.034 23.668 1.71 9.57 5.178 19.182 7.166 28.8 1.894 9.428 4.854 18.307 7.858 27.456 7.072 21.4 15.346 42.48 21.727 64.024 2.91 9.893 4.577 20.106 7.442 29.859 3.792-0.068 5.084-10.632 5.78-13.081 2.775-9.618 5.13-18.677 6.611-28.569 0.787-5.176 2.82-9.988 3.93-15.114 1.527-7.030 1.342-14.009 2.079-21.080 1.11-9.988 3.145-19.926 4.347-29.91 0.787-6.516 1.848-12.756 3.050-18.997 2.91 4.482 5.916 8.874 9.015 13.41 11.279 16.594 24.036 32.172 35.13 48.86 3.696 5.55 5.269 12.481 8.043 18.537 2.359 5.132 5.827 9.248 8.69 14.1 3.468 5.826 6.195 12.251 8.968 18.397 8.459 18.997 19.091 35.085 31.897 51.538 8.229 10.542 15.16 21.684 21.77 33.281 8.414 14.704 18.352 28.245 26.581 42.99 7.35 13.171 14.285 26.441 20.25 40.261 10.953 25.426 25.287 48.91 39.432 72.668 9.013 15.029 16.129 31.483 23.483 47.336 6.795 14.654 13.496 29.584 19.691 44.518 3.147 7.58 7.444 12.99 12.157 19.551 2.079 2.91 3.283 4.113 3.422 7.905 0.128 3.049 0.419 7.395-0.252 10.402-0.379 1.574-4.347 7.769-4.252 7.67-2.31 4.257-4.671 8.554-7.535 12.481-3.188 4.35-7.629 7.305-10.723 11.742-2.494 3.607-4.577 7.629-6.931 11.327-16.228 25.792-38.323 47.561-58.527 70.169-9.613 10.77-20.061 20.616-29.954 31.063-3.93 4.162-10.493 8.924-14.055 14.1 1.849-1.848 4.811-3.377 6.425-4.53 2.547-1.848 4.671-3.792 7.444-4.95 9.383-3.878 19.83-5.867 29.814-7.625 14.515-2.587 30.143-4.95 44.193-9.618 5.866-1.99 11.832-6.010 17.378-8.783 7.674-3.837 15.669-5.316 24.128-6.61 12.481-1.848 24.317-4.482 37.028-4.347 8.504 0.068 16.918 1.155 25.377 2.129 12.761 1.429 25.611-0.334 38.323 1.059 16.228 1.71 31.342 10.77 46.132 17.010 10.538 4.487 21.17 8.369 32.361 10.822 8.459 1.89 14.975 5.082 22.834 8.459 2.033 0.874 5.037 2.545 7.255 1.944-1.894-4.067-8.783-7.169-11.742-10.493-6.195-6.89-10.258-16.043-15.209-23.763-6.61-10.353-13.081-20.895-20.065-31.018-5.866-8.55-13.036-15.714-19.83-23.434-7.999-9.014-13.126-19.786-19.551-29.859-5.456-8.509-12.81-15.719-19.231-23.533-5.591-6.75-7.3-12.571-10.632-20.665-1.429-3.463-3.048-7.949-6.056-10.587-1.015-0.828-3.747-1.802-4.252-3.188-0.69-1.848 0.604-1.71 0.929-3.053 1.060-4.946 3.648-8.55 6.331-13.266 6.331-11.236 13.311-22.144 20.245-33.006 3.652-5.78 8.229-10.817 12.206-16.363 4.766-6.75 8.97-13.915 13.545-20.849 11.692-17.842 24.453-35.085 36.983-52.373 8.829-12.157 17.288-24.547 25.517-37.119 9.383-14.285 20.616-27.135 31.527-40.261 14.745-17.752 27.456-36.843 41.096-55.47 9.383-12.756 20.57-23.943 29.908-36.704 7.814-10.723 14.56-22.094 22.144-32.91 15.624-22.189 33.466-42.854 49.279-64.903 8.919-12.436 18.767-24.218 28.889-35.73 1.344 0.789 2.683 1.574 3.792 2.683 2.449 2.818 4.901 5.636 7.399 8.369 4.022 4.018 8.414 7.579 12.481 11.602 5.221 5.132 9.658 10.217 13.726 16.41 4.717 7.165 10.263 12.806 15.534 19.461 1.434 1.759 2.494 4.856 5.55 3.607 2.449-0.924 1.475-3.747 1.43-6.15-0.085-8.783-0.419-17.702-0.085-26.49 0.21-4.53 1.479-8.734 1.71-13.22 0.969-17.657 0-35.73-0.128-53.437 0-8.599 0.554-16.363 2.034-24.777 1.804-10.447 1.060-21.17 2.543-31.71 1.204-8.55 2.818-16.828 3.147-25.47 0.509-12.896 2.958-25.286 4.252-38.043 3.003-28.939 4.991-57.874 4.946-86.953 0-7.075-0.645-14.699-0.167-22.099-3.837 4.022-7.025 8.689-10.862 12.756-5.826 6.010-11.972 11.372-16.918 18.167z"></path>
    </svg>