<svg xmlns="http://www.w3.org/2000/svg" viewBox="40.493 -16.038 954.407 1056.050">
    <path fill="#000000" d="M640.315 688.233c-1.71-6.163-1.257-12.59-2.133-18.863-0.872-6.126-1.938-12.402-3.31-18.447-7.567-2.817-8.708 12.815-9.961 16.546-1.596 4.637-5.556 8.748-7.571 13.27-1.295 2.967-3.196 5.365-4.718 8.214-1.213 2.282-1.864 4.791-3.192 7.034-3.004 5.060-7.835 8.862-11.109 13.73-3.651 5.361-7.681 9.964-10.648 15.863-2.891 5.817-4.946 12.057-8.862 17.381-1.71 2.279-3.997 4.108-5.593 6.424-1.177 1.673-1.673 3.691-2.699 5.442-2.548 4.144-6.125 7.604-8.633 11.829-2.21 3.725-5.173 6.806-7.225 10.458-2.055 3.688-3.158 7.604-4.905 11.369-1.636 3.423-3.081 7.192-4.225 10.803-1.522 4.946-2.931 9.924-4.677 14.792-2.206 6.24-5.552 11.903-7.869 18.142-1.484 4.108-3.46 8.596-5.703 12.322-2.247 3.802-4.262 7.835-6.58 11.564-3.956 6.354-9.435 11.45-13.692 17.532-2.817 4.108-7.075 5.817-11.145 8.406-2.548 1.559-4.18 3.651-6.542 5.361-1.864 1.33-4.258 1.446-6.159 2.817-1.143 0.799-2.247 2.66-3.537 3.118-1.978 0.72-3.346-0.275-5.247-0.726-2.662-0.682-5.096-0.871-7.759-1.216-1.864-0.25-3.272-1.635-4.754-2.052-2.813-0.758-6.769-0.38-9.696-0.25-2.21 0.11-2.967 1.33-4.677 2.015-1.331 0.534-2.206 0.165-3.386 1.029-1.143 0.799-1.864 1.788-3.045 2.509-1.103 0.689-2.093 0.915-3.31 1.408-3.272 1.33-6.997 0.839-10.535 0.839-1.522 0-3.5 0.345-4.982 0.028-1.636-0.308-2.28-1.521-3.574-2.055-3.272-1.326-7.53 0.839-10.836-0.418-1.371-0.494-2.397-2.093-3.612-2.849-1.217-0.802-2.36-0.99-3.574-2.018-2.512-2.207-2.776-2.015-5.63-2.66-0.684-0.14-3.272-0.761-3.839-1.066-3.5-2.093-7.835-5.628-10.836-8.708-3.118-3.118-6.049-6.195-8.027-10.229-0.644-1.33-0.952-2.66-1.787-3.802-0.379-0.569-1.029-0.72-1.408-1.257-0.834-1.216-0.684-3.196-1.371-4.523-1.864-3.615-4.144-6.24-5.133-10.388-0.607-2.584-0.986-5.056-1.445-7.644-0.607-3.5-1.482-7.604-3.228-10.724-1.596-2.853-1.905-5.019-2.474-8.214-0.684-3.994-2.015-7.262-1.979-11.373 0.035-2.927 0-5.894 0-8.821v-13.579c0-2.547 0.532-5.817-0.032-8.292-0.57-2.509-2.015-4.144-2.206-6.732-0.275-4.523-2.625-8.479-5.287-12.285-2.284-3.272-5.173-6.195-7.721-9.050-2.584-2.931-4.677-5.703-8.255-7.49-4.258-2.096-8.633-0.055-13.079-1.257-2.776-0.726-5.82-2.242-8.596-3.118-2.436-0.758-4.339-2.091-6.542-3.346-4.070-2.279-8.214-3.46-11.789-6.618-2.776-2.547-4.754-5.666-7.457-8.255-2.32-2.207-3.993-4.409-5.475-7.262-1.596-3.081-4.067-5.74-5.361-8.935-1.522-3.612-2.32-7.49-4.030-11.027-1.673-3.423-3.118-6.354-4.225-10.002-0.912-3.118-2.357-5.971-2.813-9.244-0.688-4.563-0.172-9.354-0.245-13.958-0.070-8.898 2.243-17.874 0.872-26.776-0.569-3.46-1.522-6.123-1.824-9.277-0.532-1.484-0.607-2.891 0.14-4.18 0.419-2.549 1.371-5.133 1.787-7.799 0.569-3.651 2.625-6.883 3.232-10.571 0.14-1.066-0.379-3.916 0.105-4.791 0.761-1.371 0.916-0.799 2.28-0.99 2.169-0.345 3.46 0.575 5.291 1.371 4.144 1.823 8.557 2.21 13.348 1.978 5.858-0.275 11.109-3.725 17.268-3.387 3.5 0.195 6.692 1.182 10.229 1.144 3.346 0 7.152-0.418 10.421 0.028 5.706 0.876 10.726 5.019 15.403 8.1 4.339 2.853 9.888 5.628 13.237 9.583 1.938 2.247 4.452 4.982 5.401 7.873 1.103 3.386 0.533 8.633-0.379 12.017-1.673 6.126-5.931 9.012-12.057 9.888-5.060 0.72-10.95 0.418-15.782-1.371-2.931-1.103-6.199-2.967-8.214-5.401-0.105-0.165-0.345-0.532-0.532-0.915 2.206-0.028 4.409-0.055 6.58-0.055 2.772 0 5.854 0.384 8.596 0 2.206-0.275 4.067-2.471 6.35-2.584 0-1.408 1.181-2.625 2.548-3.082-1.636 0.028-3.232 0.165-4.868 0.607-3.196 0.839-7.225 0.14-10.571 0.14-3.574 0.028-7.302-0.418-10.648-1.631-3.615-1.295-6.961-3.158-10.575-4.452-5.096-1.864-10.038-4.527-13.461-8.596-1.79-2.165-3.729-4.108-5.63-6.085-0.532-0.569-1.71-1.864-2.015-2.547-0.532-1.144 0.172-2.36-1.559-2.703-0.644 2.323-0.309 5.971 0.275 8.1 0.345 1.295 0.070 2.662 0.383 4.067 0.275 1.446 1.213 2.777 1.864 4.070 1.636 3.346 4.486 5.060 7.53 6.92 1.75 1.025 3.118 2.548 5.019 3.272 1.257 0.494 2.584 0.644 3.839 1.213 0.574 0.275 1.71 1.216 2.324 1.446 1.71 0.689 3.765 0.839 5.552 1.031 1.673 0.14 3.232 0.72 4.905 0.799 0.172 0.028 0.379 0 0.569 0.028-0.172 1.864-0.309 3.843-0.493 5.404-0.497 3.994 1.14 8.325 3.196 11.598 4.902 7.758 14.032 16.091 23.427 17.381 4.375 0.609 10.115 0.761 14.303-0.836 3.346-1.257 5.287-4.108 7.53-6.769 4.832-5.78 9.163-12.852 10.042-20.462 1.026-8.748 0.105-17.61-2.589-25.9-2.508-7.721-3.386-15.896-9.126-21.981-4.067-4.294-7.987-8.442-12.932-11.715-5.552-3.689-10.112-8.443-15.363-12.513-4.718-3.689-10.042-6.618-15.325-9.509-5.291-2.887-9.586-3.346-15.558-3.346-5.968-0.028-10.535 0.165-15.48 3.92-3.765 2.813-7.376 6.159-10.038 10.078-3.956 5.74-3.806 12.285-6.354 18.517-0.762 1.905-0.762 3.196-3.045 3.004-1.029-0.055-2.584-1.1-3.346-1.751-1.938-1.751-2.584-4.946-3.386-7.34-1.596-4.905-4.221-9.281-5.247-14.377-1.029-5.056-1.979-10.112-3.045-15.171-1.213-5.706-3.5-11.181-4.789-16.885-1.71-7.38-4.905-14.226-6.732-21.488-1.142-4.486-0.759-8.935-2.13-13.425-3.766-12.322-7.189-24.566-12.359-36.395-2.435-5.628-5.019-10.95-8.291-16.087-2.624-4.111-4.337-8.519-6.618-12.818-5.97-11.179-14.375-20.841-20.079-32.137-3.803-7.567-9.051-14.259-13.31-21.562-4.031-6.847-6.883-14.341-10.344-21.488-9.813-20.349-19.128-40.885-29.207-61.076-6.276-12.553-10.115-26.356-14.338-39.671-2.207-6.961-4.676-13.994-6.084-21.184 0.532 14.719 5.325 28.98 5.59 43.775 0.192 8.747 2.889 16.694 3.5 25.327 0.609 8.442 1.865 16.772 3.232 25.103 1.636 9.928 3.803 19.547 7.912 28.754 2.358 5.173 4.676 10.383 6.39 15.782 1.101 3.46 2.281 7.148 3.995 10.383 3.689 6.806 9.356 12.472 13.273 19.169 1.71 3.045 3.081 6.012 4.602 9.13 3.117 6.656 8.671 11.369 12.893 17.304 3.726 5.287 6.084 11.333 9.964 16.616 3.386 4.564 7.076 8.674 11.107 12.667 3.726 3.688 8.519 6.732 10.952 11.45 2.322 4.523 3.346 9.772 3.386 14.83 0.076 9.964-3.272 17.304-9.242 24.836-7.912 10.078-10.724 21.831-9.66 34.531 0.532 6.391 0.23 15.175 3.881 20.69 3.386 5.173 7.606 11.524 12.131 15.782 1.825 1.751 3.537 4.262 5.741 5.475 1.938 1.031 4.182 1.408 6.161 2.625 2.889 1.751 6.124 4.067 8.557 6.391 2.966 2.849 7.075 3.272 8.936 6.733 1.029 1.939 1.444 4.067 1.938 6.309 0.836 4.111 0.078 8.406-1.179 12.326-1.065 3.306-1.101 6.806-2.166 10.189-1.029 3.232-1.979 5.328-2.016 8.865-0.076 3.765 0.192 7.416 0.608 11.141 0.915 8.178-0.987 17.495 1.484 25.404 2.775 8.748 9.964 15.211 13.653 23.467 1.979 4.486 4.754 7.454 7.799 11.333 2.772 3.537 4.335 8.671 7.869 11.564 4.905 3.994 12.781 5.971 18.863 7.262 3.31 0.726 4.905 0.99 7.571 3.045 3.612 2.853 6.464 4.832 11.027 5.74 5.475 1.066 11.601 3.577 15.594 7.532 3.346 3.31 9.623 7.225 9.814 12.208 0.14 3.879 1.559 6.997 2.093 10.763 0.493 3.423 1.066 6.692 1.673 10.078 0.569 3.272 0.647 6.542 1.295 9.774 0.684 3.158 1.559 6.277 2.165 9.469 1.143 6.199 2.243 12.516 3.879 18.635 1.257 4.677 1.029 9.244 2.703 13.881 3.953 10.84 9.395 21.073 16.161 30.35 2.967 4.11 4.868 8.898 7.721 13.123 2.508 3.651 5.516 7.225 8.328 10.648 2.394 2.931 5.096 6.504 8.596 8.214 2.434 1.182 5.287 2.772 7.718 3.537 2.133 0.644 2.133 0.25 3.729 1.823 0.949 0.915 1.636 2.128 2.699 2.967 1.371 1.1 2.739 1.597 4.375 2.091 2.622 0.836 6.92 2.392 8.708 4.603 1.522 1.864 2.548 6.195 3.272 8.443 0.607 1.902 0.758 4.030 1.596 5.894 1.71 3.916 5.589 7.758 8.633 10.724 4.523 4.412 8.557 9.207 13.234 13.425 2.436 2.207 4.868 2.052 7.759 3.082 2.931 1.029 4.982 3.612 7.873 4.527-0.383-1.182-1.522-2.323-2.21-3.423-1.636-2.662-2.622-5.097-3.386-8.1-0.912-3.537-2.471-7.111-3.158-10.686-0.493-2.398-0.105-4.832-0.275-7.266 0.459 3.956 2.548 8.214 5.133 11.259 1.864 2.207 6.163 6.123 9.321 6.008-0.032-2.772-2.051-5.401-2.21-8.324-0.105-2.285 0.070-4.603 0-6.92 1.331 4.258 2.512 7.034 4.982 10.762 1.901 2.849 7.873 6.997 11.676 5.516 0.105-1.446-1.522-2.967-2.206-4.18-1.181-2.055-1.636-3.956-2.28-6.163-0.875-3.158-1.905-6.961-0.802-10.193 0.875 2.245 1.522 4.527 2.394 6.806 0.802 2.015 0.838 4.832 2.284 6.542 1.408 1.751 3.46 1.788 5.287 3.081 1.636 1.139 2.931 3.537 5.21 3.077 1.217-4.108-2.625-7.302-3.272-10.99-0.758-4.067 0.241-8.785 0-12.932 1.217 0.99 0.838 1.751 1.371 3.158 0.834 2.323 2.66 3.612 4.221 5.402 2.853 3.272 5.439 10.461 10.995 9.773 0.721-2.128-0.724-3.423-1.066-5.439-0.245-1.371 0.070-3.045 0.032-4.452 0-2.279-0.14-4.372 0.607-6.578 0.875-2.512 2.967-4.717 2.703-7.456 0.875 0.915 1.331 1.864 1.938 2.931 1.066 1.823 2.36 2.891 3.688 4.489 1.066 1.292 1.673 2.813 2.662 4.108 1.217 1.597 2.736 2.622 3.688 4.409 1.143-2.207-1.257-6.273-1.978-8.479-1.331-3.997-0.952-7.799-1.181-11.903 1.029 1.71 0.802 3.001 1.257 4.788 0.456 1.71 1.787 2.703 2.703 4.225 0.684 1.1 0.721 2.622 1.556 3.689 0.875 1.182 2.284 1.521 3.232 2.509 1.066 1.066 1.636 3.31 3.31 3.196 0.916-3.387-0.834-6.501-0.912-9.884-0.035-2.891-0.035-5.593 0.569-8.369 1.824-8.748 3.386-17.227 5.247-25.978 1.596 0.345 3.953 5.593 4.718 7.192 1.331 2.7 3.272 5.704 5.516 7.644 1.978 1.71 4.982 2.703 7.262 3.953 2.817 1.521 4.791 4.070 7.608 5.593 3.272 1.751 6.806 2.358 10.229 3.537 1.938 0.682 3.196 2.584 5.019 3.081-1.143-4.946-5.287-9.13-7.38-13.804-1.559-3.423-3.688-6.692-5.552-10.042-1.522-2.777-2.28-5.744-3.574-8.443-1.484-3.158-2.206-6.58-3.004-9.814-0.684-2.776-1.979-5.475-2.28-8.328-0.345-2.547-0.14-4.603-0.838-7.034-2.548-9.126 4.413-14.984 7.001-22.893 0.532-1.635 0.721-3.346 1.519-4.905 1.181-2.436 2.967-4.375 4.148-6.806 2.622-5.589 3.5-11.487 5.931-17.113 1.596-3.651 2.776-7.111 4.868-10.535 1.484-2.474 2.703-5.133 3.997-7.721 2.394-4.982 5.703-9.469 8.288-14.413 1.673-3.232 3.883-6.126 6.24-8.862 2.357-2.777 4.298-6.085 6.806-8.711 1.938-2.052 4.413-3.688 6.391-5.703 2.963-3.004 5.854-6.045 8.976-8.898 7.262-6.656 15.631-13.083 21.793-20.878 3.272-4.148 5.247-9.244 9.049-12.969 0.952-0.912 1.979-1.408 2.357-2.66 0.762-2.436-0.309-5.784-0.872-8.064-1.103-4.148-2.739-7.987-3.916-12.208z"></path>
    <path fill="#000000" d="M581.887 500.242c-3.993 0.799-7.604 0.833-11.676 0.871-2.887 0-6.615-0.682-9.391 0.165-1.824 0.532-3.802 2.279-5.552 3.115-2.324 1.144-4.225 2.587-6.428 3.956-3.688 2.32-7.49 4.258-11.373 6.273-2.243 1.182-3.5 2.36-5.247 3.997-2.165 1.937-4.677 3.232-6.883 5.133-3.651 3.272-7.53 6.123-11.027 9.469-3.956 3.802-8.671 6.692-12.057 11.145-0.61 0.799-1.103 1.446-1.636 2.052l5.854-10.954c-3.574 3.541-10.156 7.95-11.105 13.388-0.245 1.408-0.345 2.853-0.46 4.262-1.405 2.772-2.963 5.552-4.108 8.328-0.758 1.864-0.916 2.849-0.952 5.060l4.413-8.255c-0.989 5.133-1.103 9.696-1.103 14.91 0 3.994-0.14 7.983 0 11.939 0.105 2.853 1.181 4.375 2.474 6.887 2.772 5.247 4.067 10.612 9.737 13.649 2.015 1.066 3.383 3.196 5.516 3.883 1.14 0.38 2.206 0.11 3.346 0.456 1.213 0.345 2.165 1.408 3.346 1.788 3.537 1.066 9.847 0.682 13.539 0.275 2.434-0.275 5.439-1.176 7.756-1.978 2.817-0.99 5.287-1.257 8.064-1.937 4.868-1.182 9.317-4.262 13.311-7.225 3.115-2.282 4.676-4.868 7.148-7.759 1.596-1.864 7.416-5.628 5.361-8.821-0.875 0.25-1.75 2.662-2.776 3.574-2.434 2.093-5.173 4.11-7.869 5.858-3.118 2.052-6.24 3.953-9.281 6.045-3.081 2.093-7.075 4.184-10.836 4.489-6.163 0.456-12.663 0-18.9-0.055-5.173-0.028-6.58-3.081-6.618-7.721-0.032-3.004 1.331-4.717 1.979-7.53 0.456-1.937 0-3.843 0.456-5.784 0.952-4.030 1.787-8.596 4.111-12.171 3.158-4.832 7.756-8.557 13.079-10.877 2.703-1.144 5.67-1.597 8.328-2.703 2.589-1.063 4.946-2.7 7.759-3.158 6.883-1.025 13.767 1.333 20.576-1.289 3.839-1.446 5.703-2.21 10.002-1.978 2.093 0.11 4.676 0.31 6.618 1.368 4.409 2.436 3.879 8.1 4.6 12.248 0.42 2.32 1.445 2.584 0.952 4.978-0.105 0.459-0.802 1.182-0.916 1.868-0.14 0.836 0 1.939 0.032 2.813 0.070 5.475-3.386 9.281-4.449 14.455-0.379 1.751-0.46 3.953-1.066 5.589-0.644 1.635-2.32 2.547-3.386 4.067-1.445 2.093-2.357 4.641-3.537 6.883-0.456 0.874-1.103 2.36-1.71 3.196-0.644 0.952-1.636 1.408-2.243 2.36-0.989 1.44-1.371 3.191-2.703 4.486-1.75 1.71-4.108 2.207-6.428 3.045-3.31 1.257-6.652 1.823-10.038 2.776-1.827 0.494-3.577 1.519-5.442 1.978-4.982 1.139-9.204 2.165-14.413 2.165-5.628 0.028-11.336 0.418-16.66-0.839-1.864-0.456-3.725 0.165-5.516-0.165-1.71-0.345-2.776-1.788-4.221-2.165-0.875 1.751 0.569 4.413 1.405 6.012 0.802 1.597 2.17 2.547 3.346 3.839 1.75 1.937 2.512 4.335 4.452 6.045 0.834 0.726 2.015 1.179 2.776 1.942 0.949 0.987 1.213 2.207 2.165 3.155 3.688 3.769 8.596 7.532 14.146 7.758 2.891 0.055 6.313 0.38 9.163 0 2.967-0.377 5.935-1.484 8.866-2.015 3.346-0.609 4.942-0.028 7.795-2.21 2.015-1.519 3.423-2.735 5.784-3.839 1.979-0.949 3.46-2.052 5.21-3.31 2.32-1.71 5.060-2.772 7.604-4.221 4.375-2.512 6.542-6.277 7.721-11.067 0.569-2.32-0.105-4.676 0.345-6.997 0.175-0.871 0.872-0.871 1.099-1.788 0.275-1.33-0.14-2.813 0.14-4.221 0.309-1.638 1.408-3.081 1.791-4.677 0.379-1.788 0.241-3.574 0.172-5.401-0.032-2.128 0.070-3.879 1.327-5.744 3.655-5.439 9.435-8.402 13.692-13.27 1.71-1.937 3.232-4.339 4.982-6.354 0.989-1.182 2.015-2.32 2.776-3.651 1.636-2.777 3.118-6.049 4.144-9.126 2.17-6.618 4.148-14.833 2.776-21.868-0.684-3.423-0.172-7.494-2.165-10.193-2.21-2.967-3.31-6.085-5.287-9.207-1.864-2.963-4.225-4.751-6.656-7.189-2.548-2.547-4.641-4.982-7.835-6.692-4.18-2.279-7.376-5.060-11.979-6.733-3.232-1.213-6.733-1.481-10.156-0.799z"></path>
    <path fill="#000000" d="M398.885 829.063c0.309 1.408 1.029 1.937 1.181 3.5 0.379 3.232 0.493 6.313 1.596 9.435 1.181 3.228 3.31 6.273 4.754 9.391 1.181 2.625 2.817 3.423 4.489 5.589 1.063 1.33 1.519 3.004 2.434 4.452 1.257 2.015 6.24 5.060 5.552 7.718l2.243-17.723c-0.57 11.524 12.932 12.244 21.602 11.145 1.787-0.275 3.346-1.216 4.982-1.751 1.371-0.42 3.232-0.345 4.489-1.029 0.834-0.494 2.165-2.093 2.849-2.776 1.484-1.559 1.331-2.622 2.324-4.523 0.986-1.978 2.813-2.474 3.953-4.375 1.066-1.788 2.015-3.765 3.045-5.552 2.129-3.689 3.346-7.873 3.31-12.208-0.070-8.406 0.721-17.268-1.371-25.254-0.456-1.71-1.824-3.46-2.015-5.516-0.172-2.052-0.383-2.549-0.916-4.339-1.099-3.651-2.434-7.909-2.357-11.715 0.070-4.18-1.066-8.288-2.512-12.171-1.522-3.953-2.243-8.292-4.144-11.943-2.512-4.788-5.21-18.216-11.109-8.442-1.063 1.788-1.14 2.398-1.099 4.564 0.035 2.128-0.379 3.082-0.838 4.946-0.758 3.004-1.787 5.817-2.508 8.862-1.029 4.184-1.445 8.596-2.165 12.817-0.647 3.839-1.673 7.681-2.284 11.56-0.721 4.375 0.105 8.369-1.063 12.741-0.61 2.32-1.331 4.717-2.474 6.997-1.143 2.207-2.206 5.817-5.325 5.894-2.394 0.028-2.129-0.644-2.165-2.849-0.070-1.597-0.241-3.46-0.032-5.019 0.309-2.512 1.371-5.361 2.206-7.721 1.181-3.272 1.143-5.93 1.143-9.431v-21.603c0-4.791 0.798-10.307-0.070-14.984-0.61-3.077-1.029-6.424-4.339-3.916-2.548 1.937-3.537 5.589-4.718 8.633-1.14 3.045-2.548 6.085-3.115 9.395-0.42 2.509-0.070 3.839-1.372 6.159-0.574 1.066-1.257 2.247-1.636 3.5-0.952 3.574-0.916 7.306-2.474 10.612-1.559 3.272-3.272 6.085-4.714 9.358-0.838 1.823-1.331 3.802-2.21 5.628-0.948 1.978-2.584 3.839-3.001 5.971-0.647 3.272-0.035 7.262-0.035 10.612 0 1.635-0.42 3.839-0.070 5.361z"></path>
    <path fill="#000000" d="M292.197 381.049c0.241 8.633 3.423 17.076 5.133 25.518 1.596 7.685 3.232 15.517 6.542 22.665 5.628 12.326 13.12 23.429 21.22 34.152 5.817 7.685 11.181 15.937 17.76 23.011 6.199 6.618 13.922 11.027 20.308 17.495 5.133 5.247 10.384 10.307 15.175 15.859 2.436 2.853 4.677 7.608 9.13 6.961l-1.596-0.028c-8.369-15.896-11.45-20.003-13.311-22.705-2.739-4.030-5.401-7.49-8.442-11.41-3.118-3.994-7.799-7.302-10.571-11.255-2.436-3.46-3.612-8.141-5.82-11.45-6.309-9.583-13.844-20.007-16.999-31.755-1.213-4.603-2.206-26.964 1.484-27.577 1.559 5.898 1.445 7.152 5.63 11.829 2.471 2.817 7.225 10.461 11.446 10.726 7.685 0.532 8.821-14.605 8.747-20.195-0.105-9.090 0.989-16.432 3.118-24.724 2.051-7.983 9.66-13.692 13.958-20.879 3.612-6.008 6.961-12.057 10.115-18.252 4.375-8.596 3.765-17.914 6.24-27.306 0.798-3.045 5.401-10.954-1.484-9.964-1.217 0.14-7.644 6.692-9.163 8.1-2.17 2.093-6.428 6.123-7.38 8.748-0.912 2.471-0.14 5.324-0.758 7.983-0.379 1.484-1.596 1.751-1.978 2.967-0.533-3.46-4.527-6.806-5.21-10.002-0.989-4.523-0.724-8.557-2.324-12.852-1.253-3.346-4.486-6.428-5.247-9.888-1.026-4.527-0.14-11.373 0.688-15.859 2.736-14.605 7.262-31.188 14.792-44.194 6.391-10.995 10.457-20.804 15.211-32.515 3.839-9.586 10.612-19.852 10.042-30.578-6.961 6.391-14.186 11.979-20.878 18.635-7.494 7.416-16.734 12.285-22.25 21.485-4.603 7.685-12.094 14.035-15.253 22.4-2.548 6.732-0.875 13.539-3.004 19.816-4.108-0.871-2.434-21.297-1.408-25.217 1.673-6.464 4.375-14.072 7.571-19.964 5.287-9.773 9.354-18.521 12.399-29.133 0.379-1.295 1.673-1.446 2.015-2.817 0.456-2.052-0.379-4.262 0.070-6.24 0.647-2.887 4.070-3.689 2.21-7.148-3.843 0.99-8.064 5.628-10.917 8.519-4.449 4.527-10.421 7.836-14.072 13.046-3.423 4.946-4.603 10.99-7.95 16.009-2.584 3.839-5.666 7.189-7.832 11.373-5.706 10.8-11.564 22.514-16.583 33.579-2.703 5.971-2.776 11.903-4.413 18.106-1.405 5.287-4.108 9.964-5.552 15.175-3.272 11.638-3.118 23.846-3.045 35.789 0.105 18.252 1.981 35.825 2.436 53.964z"></path>
    <path fill="#000000" d="M442.253 287.799c3.118 4.372 6.92 8.747 9.354 13.994 4.791 10.421 3.769 20.841 3.769 32.137 1.291-1.408 2.165-2.398 2.813-3.045-0.14 0.11-0.275 0.275-0.456 0.38 0.838-2.509 2.015-5.097 2.206-7.869 6.277-1.983 14.87-0.345 21.566-0.345h15.175c5.060 0 10.156-0.11 15.211 0 6.92 0.14 6.237-0.912 6.504-7.604 0.206-5.096 2.243-8.178 2.206-13.653-0.035-5.21 0-10.458 0-15.708 0-4.262 1.257-11.259 0.105-15.325-0.347-1.144-1.484-3.31-2.778-3.839-3.158-1.257-2.699 1.025-5.173 1.597-6.618 1.481-18.485 6.424-22.665-1.942-1.824-3.688-1.559-6.883-4.791-10.307-3.158-3.346-5.133-6.159-7.604-9.924-1.901-2.853-5.096-5.479-6.618-8.557-2.165-4.262-2.931-8.483-5.401-12.516-1.864-3.045-5.325-7.339-6.085-10.8-0.493-2.165 0.688-4.603 0.245-6.769-0.493-2.392-2.927-3.004-2.243-5.854-2.589 8.708-5.516 17.19-8.747 25.673-2.397 6.237-6.847 13.881-8.214 19.926-1.029 4.641-1.331 8.064-3.196 12.516-1.75 4.258-2.584 10.498-1.75 15.249 0.688 3.729 4.527 9.7 6.58 12.591z"></path>
    <path fill="#000000" d="M498.368 199.26c3.232 4.144 4.946 8.292 6.997 13.046 1.636 3.839 3.843 6.538 4.413 10.724 0.456 3.46 0.309 7.567 0.032 11.336-9.126-7.645-9.012-5.365-8.821 0.682 0.206 5.324 0.275 5.287 5.439 5.439 8.862 0.25 14.605-0.532 21.945 5.247 4.718 3.689 9.24 8.1 13.539 12.131 2.585 2.398 2.849 6.428 4.718 8.862 4.108 5.291 8.211-5.894 9.163-10.648 1.217-0.308 2.434-0.607 3.688-0.871-2.931-6.24-5.817-13.579-9.277-20.007-3.729-6.847-4.718-14.259-6.847-21.831-1.71-6.008 1.099-13.958-1.181-19.469-2.436-5.817-6.997-4.641-11.903-5.552-4.452-0.802-9.888-6.277-11.45-10.803-1.408-4.108-0.379-8.483-1.979-12.74-1.257-3.346-1.938-5.817-2.736-9.126-0.724-3.196-2.055-5.404-2.284-8.711-0.172-3.383 0.724-7.075 0.172-10.384-0.532-3.346-2.206-5.74-2.357-9.163-0.105-2.509 1.143-5.666-1.596-6.427-1.295 3.537-1.596 7.229-3.196 10.766-1.522 3.346-3.688 6.35-5.019 9.884-1.824 4.868-3.232 7.571-3.196 12.932 0.035 2.433 0.383 5.247 0.070 7.644-0.345 2.512-1.673 3.574-2.051 5.593-0.872 4.676-0.175 10.193-0.175 15.021 0 7.001-0.532 10.726 3.879 16.432z"></path>
    <path fill="#000000" d="M541.797 112.583c1.519 3.537 2.548 6.997 4.335 10.421 5.060 9.773 2.739 23.202 2.739 34.076v-1.443c-0.533-0.055-0.952-0.165-1.372-0.25 1.484 1.981 2.471 5.060 3.423 6.656 2.739 4.603 6.428 8.939 8.935 13.804 3.802 7.38 5.971 11.943 13.046 16.205 3.196 1.902 8.898 8.633 13.042 7.262 5.247-1.751 1.029-14.3 0.345-18.102-1.596-9.13 1.559-16.318 1.75-25.139 0.14-5.935 0.032-11.943-0.032-17.837-0.070-3.228 0.379-5.968-1.522-8.821-1.866-2.66-4.377-2.622-6.694-4.676-4.184-3.655-6.618-9.737-8.519-14.682-2.703-6.92-6.504-14.186-11.487-19.628-4.868-5.325-9.505-12.627-11.064-19.47-0.459-2.128 1.938-6.997-2.055-6.961-3.228 0-2.206 4.641-2.622 6.769-1.445 6.806-3.118 15.517-6.049 21.907-2.165 4.677-3.574 8.748-0.607 13.539 1.559 2.433 3.158 3.387 4.413 6.35z"></path>
    <path fill="#000000" d="M596.918 110.189c-0.532 5.78 4.413 9.888 5.858 14.984 1.14 3.916 1.482 6.806 3.115 10.648 1.103 2.703 2.931 13.958 5.858 15.289 4.449 1.978 7.644-7.34 9.7-9.7 3.574-4.18 15.403-7.454 14.528-14.108-0.275-2.015-1.979-2.207-2.434-4.18-0.383-1.673 0.309-3.615-0.070-5.365-0.533-2.471-2.967-6.273-4.148-8.862-4.144-9.163-8.483-18.102-12.55-27.306-1.331-2.927-2.051-5.817-3.765-8.596-2.662-4.258-1.981-4.335-7.608-4.335-5.096 0-6.008-0.839-6.58 4.294-0.419 3.883-0.493 9.281 0.42 12.969 1.555 6.313 4.067 9.85 3.993 16.429-0.070 3.997 0 7.987 0 11.979l-2.165-4.372c-1.445-0.38-2.817-0.31-4.148 0.25z"></path>
    <path fill="#000000" d="M914.282 466.506c-0.721-10.229-4.868-20.235-6.159-30.428-0.647-5.247-0.175-10.229-2.475-15.171-3.001-6.428-4.905-12.553-7.225-19.209-3.045-8.708-8.519-16.087-12.55-24.265-5.133-10.307-8.671-21.599-15.175-31.071-3.31-4.868-6.012-9.737-9.163-14.605-4.339-6.766-10.954-10.498-13.77-18.595-3.839-10.954-11.369-20.959-21.639-27.154-12.895-7.721-22.86-2.549-36.053 1.139-4.148 1.182-8.214 1.638-11.676 4.298-3.196 2.471-6.125 5.247-9.358 7.681-2.736 2.096-6.464 4.148-8.862 6.504-2.887 2.777-3.31 6.428-5.74 9.623-2.015 2.697-5.935 4.603-7.302 7.718-1.559 3.46-1.217 7.306-3.045 10.917-1.596 3.118-3.081 7.262-5.173 10.002-1.71 2.207-3.879 2.886-5.247 5.173-2.662 4.372-5.858 12.815-6.656 17.911-1.331 8.862 4.489 17.076 8.214 19.283-0.533 0.42-0.838 1.103-1.257 1.823-2.394 3.997-5.589 6.92-9.012 10.042-4.754 4.225-9.395 9.13-13.425 14.032-6.199 7.608-16.925 16.392-27.647 13.503-3.31-0.871-2.21-4.258-2.247-7.148 0-2.584-0.834-6.92 0.206-9.317 0.607-1.446 2.093-2.015 3.155-3.004 2.398-2.128 2.776-5.324 5.060-7.53 1.71-1.673 3.843-2.21 5.019-4.375 1.408-2.587 0.533-5.74 1.596-8.369 2.324-5.854 7.721-9.66 11.41-14.451 1.864-2.398 1.901-4.868 2.66-7.645 0.688-2.32 1.941-4.335 2.512-6.733 1.938-7.909 4.067-15.024 3.879-23.272-0.105-5.442 1.331-11.373 3.839-16.205 2.095-4.067 4.225-8.671 7.494-11.829 2.243-2.165 3.118-4.258 4.718-6.883 1.441-2.392 3.574-4.372 5.439-6.424 4.144-4.452 9.204-8.483 13.994-12.211 4.982-3.916 7.909-9.355 11.903-14.146 5.552-6.692 9.964-14.072 13.042-22.21 2.853-7.454 6.125-14.528 8.557-22.095 2.169-6.618 1.905-13.425 3.92-20.080 0.644-2.052 1.099-4.258 1.408-6.387 0.175-1.371 1.026-3.272 0.949-4.527-2.28-0.607-5.287 5.173-6.199 6.427-3.041 4.258-6.309 8.596-9.090 12.965-1.673 2.587-2.584 5.556-4.486 8.027-1.331 1.71-3.081 3.232-4.489 4.868-1.824 2.207-3.612 4.339-5.552 6.391-2.247 2.392-3.92 5.247-6.085 7.604-2.508 2.776-6.045 4.225-8.633 7.075-2.093 2.36-3.651 4.489-6.354 6.125-1.405 0.871-3.155 1.182-4.409 2.015-1.295 0.839-2.891 2.891-4.148 4.067-4.946 4.527-9.884 9.509-13.348 15.211-3.31 5.402-6.769 11.41-9.093 17.381-2.206 5.67-5.096 11.181-6.769 17.039-1.75 6.163-2.699 12.628-4.335 18.863-1.445 5.404-3.765 10.612-4.489 16.164-0.379 3.004-1.484 5.854-2.736 8.671-2.853 6.354-4.225 13.010-6.733 19.51-2.169 5.67-6.847 13.616-12.704 15.822-2.434 0.912-4.563 0.758-7.189 0.758-1.066 0-3.045 0.456-3.953 0.11-1.257-0.532-1.066-1.371-2.055-2.358-1.632-1.597-3.192-1.788-4.409-3.883-0.684-1.176-1.217-1.864-2.051-2.964-0.42-0.572-0.383-1.446-0.762-2.015-0.379-0.534-1.063-0.802-1.445-1.33-0.758-0.99-1.14-2.662-1.636-3.839-5.475-12.439-5.173-26.434-5.287-40.012-0.070-5.931 1.103-11.903 1.941-17.76 0.607-4.262 1.099-8.141 2.508-12.171 3.46-9.774 8.292-18.485 14.413-26.89 1.636-2.245 2.967-4.489 5.516-5.78 2.434-1.257 5.21-2.131 7.756-3.045 2.28-0.839 4.262-1.144 6.692-1.103 2.891 0.028 7.376-0.949 9.928 0.25-0.172 1.295-2.36 1.71-3.386 2.436-3.5 2.622-4.339 7.034-6.542 10.685-3.537 6.009-8.064 11.065-12.244 16.62-5.173 6.847-10.8 14.601-13.046 23.007-1.327 4.905-2.508 10.762-2.471 15.82 0.035 2.931-1.066 7.873 2.243 9.435 3.196 1.446 4.982-2.091 6.883-4.225 1.864-2.052 4.070-3.765 5.898-5.894 2.357-2.776 3.916-6.125 5.516-9.395 2.394-4.788 4.791-9.24 6.354-14.373 0.986-3.272 2.471-6.009 3.115-9.391 0.838-4.527 1.901-8.671 3.196-13.046 1.295-4.412 2.093-8.785 3.423-13.196 1.408-4.637 1.673-9.583 4.452-13.692 2.165-3.232 4.868-5.817 6.92-9.163 1.673-2.777 3.688-5.173 5.78-7.608 3.688-4.335 8.141-8.483 12.969-11.52 4.523-2.777 9.583-3.574 14.223-6.049 5.971-3.158 9.964-7.795 14.682-12.513 3.879-3.879 7.983-7.494 11.903-11.373 2.584-2.548 4.335-5.475 6.692-8.214 1.482-1.71 3.651-3.269 4.865-5.060 1.217-1.751 1.868-4.828 2.853-7.416-1.295 1.33-2.817 2.587-3.46 3.158-3.839 3.765-8.328 6.692-12.663 9.888-5.247 3.879-10.803 7.262-16.091 10.99-2.699 1.902-5.21 3.997-7.909 5.858-3.651 2.509-7.799 4.108-11.181 6.997-6.159 5.287-11.487 11.676-18.521 15.973-3.346 2.052-5.817 4.452-9.772 5.287-3.5 0.726-5.060 2.207-7.685 4.677-4.832 4.523-9.583 9.163-14.223 13.881-6.733 6.806-11.145 15.289-18.142 21.908-5.78 5.516-9.928 12.358-13.539 19.433-5.287 10.383-10.612 19.852-14.223 31.034-5.21 16.164-9.090 32.1-8.935 49.139 0.035 4.677-0.838 10.115 0.245 14.682 0.684 3.155 3.386 7.644 5.325 10.075 1.71 2.096 4.030 3.46 5.817 5.479 2.436 2.66 4.148 5.894 6.58 8.596 2.397 2.735 4.982 5.247 7.225 8.137 2.324 3.004 3.806 6.428 7.306 8.1 2.394 1.182 4.108 1.295 5.703 3.651 2.165 3.118 4.564 9.016 5.516 12.591 1.217 4.563 0.724 9.317 0.688 14.032-0.070 3.574-0.309 7.34 0.172 10.913 0.419 2.891 1.484 5.628 2.051 8.483 0.916 4.262 1.295 8.633 1.901 12.932 0.607 4.486 2.165 8.785 2.548 13.307 0.309 3.464 0.912 6.847 1.75 10.229 0.493 1.942 1.099 3.805 1.522 5.744 0.493 2.091 0.57 7.34 2.206 8.748 4.108 3.46 12.171 0.949 17.227 2.165 2.243 0.575 4.372 1.484 6.58 2.093 1.522 0.384 4.905 0.534 6.082 1.408 1.673 1.257 1.864 4.262 2.133 6.504 0.798 6.692-2.475 13.653-4.225 19.929-0.834 2.927-0.912 5.817-1.295 8.821-0.379 3.004-1.14 5.21-2.129 8.1-1.066 3.155-1.295 6.123-3.272 8.862-2.394 3.272-2.28 4.791-3.346 9.090 1.864 0 4.946-0.569 6.692-0.028 1.979 0.569 3.574 3.5 4.184 5.324 2.243 6.58 3.46 14.833 2.357 21.793-0.607 3.612-1.938 7.567-2.703 11.219-0.275 1.295-0.379 2.776-0.721 4.070-0.644 2.165-2.357 3.953-2.967 6.159-1.901 6.769-4.221 15.672-1.331 22.595 0.497 1.139 3.158 4.751 4.452 5.247 2.662 1.025 5.173-2.587 6.733-4.262 1.824-1.978 2.051-3.651 2.891-6.159 0.948-2.891 2.508-5.67 3.953-8.328 3.574-6.504 7.718-11.829 12.513-17.418 3.956-4.603 6.997-8.751 9.395-14.149 1.636-3.765 4.258-8.174 6.883-11.333 3.158-3.805 5.325-7.873 7.262-12.476 1.066-2.548 2.243-5.287 3.5-7.567-3.045-1.029-7.835-0.25-10.991-0.165-2.589 0-4.641-0.689-7.152-1.031-1.71-0.275-2.963 0-4.6-0.72-4.375-1.937-6.883-5.628-7.987-10.229-0.948-3.993 1.596-7.873 4.225-10.648 2.548-2.737 5.325-4.677 8.324-6.883 1.941-1.408 2.398-2.967 3.5-4.982 1.827-3.423 4.868-3.92 7.152-6.542 3.041-3.5 5.628-7.571 8.747-11.145 3.196-3.689 8.060-6.123 10.079-10.686-2.589 3.082-6.542 4.982-10.042 6.883-2.891 1.521-5.475 2.436-8.671 3.045-1.864 0.345-4.868 1.978-6.656 1.823-0.802-1.638-2.015-2.853-2.776-4.527-1.026-2.358-1.787-5.666-1.938-8.174-0.275-4.412 1.029-6.806 2.548-10.726 1.555-4.030 3.537-7.832 4.978-11.943 2.095-5.968 3.346-12.017 6.692-17.454 1.864-3.082 2.36-6.082 3.272-9.505 0.533-2.018 1.673-4.184 1.445-6.354-0.684-6.468-8.214 4.258-9.964 5.854-7.148 6.468-15.782 11.45-22.364 18.599-5.019 5.516-8.898 10.458-15.44 14.491-4.832 2.927-10.724 3.651-13.274-2.398-3.802-8.935-3.306-17.418-3.306-26.927 0-6.578-0.875-12.777 2.243-18.709 2.584-4.946 2.891-11.222 5.74-16.091 3.118-5.361 6.542-10.836 10.042-16.087 1.938-2.891 3.802-5.706 5.475-8.748 1.257-2.018 2.324-4.11 3.232-6.313 0.493-1.446 0.875-2.931 1.217-4.412 1.103-2.165 3.004-4.295 4.449-6.273 1.905-2.549 3.423-5.744 5.556-8.1 2.165-2.433 3.346-3.082 3.953-6.618 0.309-1.902 0.57-4.144 0.14-6.123 1.559 0.644 2.589-0.028 2.129-2.662 6.806 0 6.58 2.015 11.181 6.92 4.108 4.412 8.898 7.604 13.388 11.487 4.108 3.537 6.309 8.443 10.384 11.789 13.388 10.99 14.642 30.769 21.639 46.014 4.375 9.509 7.913 18.749 13.16 27.916 2.931 5.060 4.946 10.498 6.961 16.009 3.916 10.836 1.559 24.949 1.559 36.432 0 12.781 1.295 26.32 0.105 39.020-0.986 10.803-7.644 20.462-8.862 30.5-0.532 4.641 0.175 7.416-1.559 11.45-1.371 3.082-2.28 6.31-3.916 9.163-3.045 5.361-8.178 9.435-10.766 15.139-1.75 3.802-2.471 7.987-4.372 11.752-1.522 3.004-4.339 5.361-2.853 8.862 9.774-2.358 18.521-19.816 22.437-28.181 7.608-16.241 13.804-33.052 22.022-49.063 6.277-12.131 3.272-25.103 7.835-37.653 2.32-6.468 3.916-10.917 3.839-17.837-0.070-8.288-0.070-16.616 0.032-24.908 0.070-6.468-1.979-12.322-2.243-18.712-0.379-7.799-0.379-15.366-2.625-22.97-1.559-5.328-3.346-11.45-5.931-16.318-1.787-3.46-4.603-6.085-6.199-9.737-1.864-4.335-2.243-9.050-4.718-13.156-4.449-7.343-10.686-13.465-15.745-19.966-5.78-7.34-10.269-17.683-18.977-21.793-4.754-2.207-5.894-2.245-8.821-6.58-2.32-3.5-5.21-6.387-7.111-10.8-1.408-3.346-1.295-6.468-3.158-9.277-3.045-4.564-6.313-2.474-7.148-8.064-1.103-7.416 0.569-15.48 4.868-21.301 4.294-5.854 8.708-13.193 16.884-13.575 8.751-0.459 15.175 4.788 21.868 10.343 3.883 3.228 6.125 4.563 10.88 6.538 4.982 2.055 8.708 5.898 12.929 9.13 10.042 7.644 21.374 19.775 26.585 30.92 3.118 6.692 6.883 12.663 10.421 19.091 4.905 8.821 6.733 19.128 10.762 28.335 3.46 7.795 4.868 16.315 8.671 23.882 4.298 8.637 9.66 16.885 12.628 26.129 2.28 7.189 8.023 14.528 9.354 21.791 1.372 7.306-0.644 12.516 2.625 19.551 2.813 6.045 2.849 15.325 2.394 23.695 1.596-4.225 3.081-8.369 4.18-12.932 2.21-9.317 1.522-18.712 1.522-28.295 0-9.281 0.762-18.94 0.105-28.184z"></path>
    </svg>