<svg xmlns="http://www.w3.org/2000/svg" viewBox="16.019 16.001 991.962 991.999">
    <path fill="#000000" d="M511.996 890.185c-208.871 0-378.169-169.336-378.169-378.17 0-208.871 169.294-378.203 378.169-378.203 37.226 0 73.164 5.476 107.155 15.506-156.655 46.229-271.050 191.049-271.050 362.696 0 171.612 114.393 316.472 271.050 362.665-33.991 10.031-69.929 15.507-107.155 15.507zM689.304 135.651c-53.795-25.395-113.877-39.65-177.305-39.65-229.745 0-415.98 186.27-415.98 416.018s186.238 415.981 415.98 415.981c63.428 0 123.51-14.26 177.305-39.65 141.041-66.548 238.677-210.010 238.677-376.332 0-166.318-97.636-309.782-238.677-376.366z"></path>
    </svg>