<svg xmlns="http://www.w3.org/2000/svg" viewBox="-23.392 179.598 1084.393 656.669">
    <path fill="#000000" d="M894.849 671.023c-55.019 35.746-141.548-16.786-188.22-45.711-29.289-18.166-54.149-41.121-76.998-66.211 14.986-8.545 30.013-17.039 45.197-25.156 37.666-20.171 87.585-31.763 130.299-30.078 15.766 0.629 39.706-0.922 53.712 6.702 0.405 0.243 0.777 0.555 1.185 0.795 5.715 1.575 11.248 3.825 16.336 6.768 11.687 6.753 20.716 16.501 27.604 28.033 3.645 6.105 6.045 12.65 8.293 19.276 0.522 0.255 1.005 0.587 1.515 0.828 13.76 37.458 13.748 83.568-18.911 104.771zM976.385 637.641c-4.64-63.166-39.976-129.725-87.88-170.124-3.663-3.090-7.821-5.565-11.895-6.885-3.645-2.745-7.385-5.295-11.447-7.155-6.848-3.142-14.576-5.499-22.249-7.571-22.684-9.121-48.527-10.155-72.707-11.143-62.694-2.535-118.699 22.549-172.344 51.302 4.053 20.206-0.292 39.762-29.623 59.312-17.116 8.546-11.415 27.228-0.945 48.549 9.266-4.935 18.483-9.99 27.676-15.155 29.356 34.128 61.008 66.896 97.009 92.803 51.557 37.096 121.489 75.888 186.617 80.178 68.245 4.515 102.404-51.377 97.788-114.109z"></path>
    <path fill="#000000" d="M281.347 532.694c-36.556 6.378-72.819 7.424-104.678-15.076-31.466-22.253-52.463-57.626-45.977-96.048 7.237-42.916 22.336-65.327 65.177-76.968 41.982-11.395 76.128-11.835 118.186 1.485 60.569 19.163 101.508 54.284 145.843 95.088-54.108 40.881-109.759 79.518-178.551 91.518zM488.815 466.571c26.176-23.594 27.645-43.574 20.705-62.978-6.045 4.482-12.045 8.985-18.002 13.52-51.247-48.617-101.988-97.848-169.724-122.141-67.042-24.034-135.369-35.374-202.169-2.955-48.505 23.536-63.017 102.228-44.922 149.090 23.086 59.717 73.5 119.159 133.219 144.502 60.407 25.636 131.703 15.58 190.389-11.595 34.693-16.076 66.211-36.856 96.623-59.27-13.455-19.552-21.796-37.218-6.128-48.171z"></path>
    <path fill="#000000" d="M508.766 593.763c3.959 1.3 5.475 4.483 8.325 7.515 10.766 11.415 22.846 2.835 31.427-7.088-3.015-3.771-6.015-7.571-8.975-11.395 0 0 0 0.015 0 0.015-0.198-0.465-0.573-0.885-1.152-1.297-0.036-0.135-0.115-0.285-0.188-0.44-0.777-0.975-1.54-1.965-2.295-2.941-0.885-0.963-1.79-1.845-2.295-2.355-3.885-3.959-7.769-5.775-13.080-6.105-5.385-0.337-10.725 1.125-15.433 3.758-2.835 1.575-5.739 3.382-8.305 5.475 0.315 1.484 0.735 2.925 1.109 4.387 3.867 3.195 7.365 6.915 10.845 10.47z"></path>
    <path fill="#000000" d="M530.765 475.692c-4.053-0.945-5.843-3.975-8.955-6.753-11.728-10.431-22.996-0.816-30.694 9.8 3.345 3.495 6.645 7.035 9.938 10.567 0 0 0.015 0 0.015-0.015 0.24 0.438 0.629 0.855 1.245 1.203 0.045 0.135 0.152 0.285 0.225 0.43 0.855 0.912 1.697 1.832 2.553 2.715 0.963 0.885 1.965 1.685 2.475 2.145 4.215 3.612 8.265 5.068 13.56 4.922 5.385-0.135 10.605-2.055 15.058-5.068 2.685-1.815 5.403-3.885 7.785-6.195-0.441-1.445-1.005-2.847-1.498-4.251-4.125-2.847-7.935-6.228-11.715-9.495z"></path>
    <path fill="#000000" d="M583.272 516.523c-0.105-1.965 1.057-3.142 1.905-4.88 3.225-6.608-2.535-10.475-8.293-12.596-1.152 1.965-2.326 3.885-3.518 5.832h0.015c-0.188 0.165-0.297 0.387-0.389 0.705-0.045 0.025-0.115 0.122-0.152 0.165-0.292 0.495-0.615 1.005-0.912 1.484-0.282 0.555-0.524 1.095-0.672 1.405-1.095 2.355-1.215 4.347-0.495 6.712 0.735 2.409 2.27 4.515 4.199 6.138 1.152 0.975 2.418 1.937 3.768 2.715 0.588-0.375 1.153-0.795 1.725-1.205 0.764-2.218 1.815-4.365 2.798-6.468z"></path>
    <path fill="#000000" d="M499.338 561.945c-0.105-1.937 1.057-3.142 1.905-4.88 3.225-6.608-2.535-10.47-8.293-12.585-1.152 1.938-2.326 3.885-3.518 5.805h0.015c-0.165 0.165-0.292 0.389-0.375 0.705-0.045 0.025-0.117 0.122-0.165 0.165-0.315 0.495-0.615 1.005-0.912 1.498-0.282 0.537-0.522 1.095-0.645 1.393-1.112 2.355-1.245 4.347-0.524 6.735 0.735 2.409 2.273 4.491 4.199 6.123 1.152 0.975 2.418 1.938 3.768 2.715 0.588-0.375 1.153-0.795 1.725-1.203 0.762-2.221 1.815-4.365 2.793-6.472z"></path>
    <path fill="#000000" d="M453.21 615.376c1.846 0.587 2.595 2.073 3.945 3.479 5.085 5.267 10.695 1.203 14.673-3.465-1.445-1.755-2.85-3.518-4.251-5.295h-0.015c-0.075-0.198-0.255-0.405-0.537-0.587 0-0.072-0.048-0.151-0.097-0.198-0.345-0.465-0.723-0.922-1.068-1.365-0.432-0.438-0.855-0.855-1.095-1.095-1.832-1.833-3.663-2.658-6.135-2.793-2.514-0.135-5.016 0.587-7.197 1.832-1.335 0.735-2.658 1.605-3.862 2.607 0.151 0.681 0.345 1.353 0.533 2.033 1.833 1.484 3.479 3.195 5.12 4.845z"></path>
    <path fill="#000000" d="M535.591 425.376c-4.008 1.095-7.047-0.723-11.085-1.685-15.286-3.585-20.626 10.23-22.336 23.236 4.587 1.485 9.173 3.015 13.761 4.547v0c0.428 0.282 0.963 0.427 1.665 0.438 0.078 0.075 0.24 0.189 0.387 0.255 1.185 0.405 2.367 0.816 3.555 1.205 1.257 0.315 2.502 0.555 3.195 0.705 6.165 1.307 10.807 0.315 16.186-3.33 3.57-2.409 6.42-5.775 8.44-9.562 1.575-2.941 3.105-6.177 4.199-9.495-1.017-1.425-1.457-2.055-2.475-3.477-5.215-0.495-10.418-1.738-15.5-2.85z"></path>
    <path fill="#000000" d="M560.735 406.465c-1.738-3.663-9.416-3.423-16.096-4.773-25.234-5.12 2.033-23.991 31.279-39.762 8.565 1.068 17.227 2.115 25.918 3.090l-0.036 0.025c1.109-0.048 2.085 0.075 2.889 0.481 0.337-0.048 0.705-0.048 1.095-0.048 2.218 0.255 4.482 0.495 6.702 0.777 2.125 0.405 4.065 0.885 5.175 1.153 9.121 2.030 12.076 5.565 10.215 11.915-1.832 6.228-8.293 12.915-17.655 20.206-4.775 3.719-10.065 7.571-15.796 11.29-3.705 0.533-7.289 0.963-10.935 1.425-6.702-2.385-14.925-4.035-22.756-5.775z"></path>
    <path fill="#000000" d="M541.759 551.448c0.645-1.217 4.545 0.015 8.145-0.885 14.628-3.719 24.711-59.777-19.486-15.821-4.455-0.025-8.933-0.122-13.466-0.202 0.015 0.015 0.015 0.015 0.036 0.015-0.588-0.072-1.109-0.072-1.498 0.015-0.165-0.015-0.375-0.048-0.573-0.072-1.164-0.015-2.326-0.025-3.479-0.048-1.095 0.025-2.073 0.122-2.649 0.153-4.665 0.255-5.955 1.365-4.491 3.762 1.425 2.313 5.35 5.027 10.818 8.117 2.898 1.633 6.123 3.33 9.585 5.016 1.845 0.292 3.614 0.573 5.457 0.87 3.372-0.495 7.581-0.681 11.595-0.912z"></path>
    <path fill="#000000" d="M645.043 348.878c-1.005 0.015-1.55-2.847-3.345-4.785-7.365-7.877-45.939 5.085-3.195 17.626 1.498 2.805 2.997 5.643 4.491 8.505 0-0.015 0-0.015 0-0.015 0.152 0.387 0.336 0.705 0.524 0.922 0.036 0.122 0.115 0.241 0.165 0.375 0.375 0.735 0.764 1.485 1.153 2.221 0.387 0.672 0.795 1.257 1.005 1.605 1.78 2.806 2.925 3.237 3.907 1.515 0.963-1.685 1.308-5.068 1.349-9.585 0.015-2.218 0-4.638-0.135-7.182-0.432-1.3-1.109-3.255-1.55-4.535-1.425-1.905-2.898-4.347-4.347-6.675z"></path>
    <path fill="#000000" d="M481.975 586.727c-1.004 0.015-1.55-2.865-3.345-4.787-7.365-7.875-45.939 5.085-3.195 17.626 1.498 2.808 2.997 5.643 4.495 8.495v0c0.152 0.387 0.333 0.705 0.522 0.922 0.036 0.122 0.117 0.241 0.165 0.375 0.375 0.735 0.777 1.485 1.153 2.221 0.405 0.645 0.795 1.243 1.004 1.592 1.78 2.835 2.925 3.255 3.907 1.54 0.963-1.686 1.308-5.068 1.349-9.585 0.015-2.221 0-4.638-0.115-7.185-0.438-1.297-1.125-3.255-1.575-4.533-1.401-1.905-2.898-4.365-4.347-6.675z"></path>
    </svg>