<svg xmlns="http://www.w3.org/2000/svg" viewBox="316.321 -16.007 370.156 1056.179">
    <path fill="#000000" d="M586.441 898.836c0.707-0.127 1.428-0.252 2.097-0.378 1.294-2.628 0.405-5.84 0.405-8.645-0.14-7.179 0.582-14.222 1.337-21.356 2.989-28.356-1.294-55.148-9.629-82.433-10.032-32.768-24.922-71.509-19.259-106.419 1.962-11.852 6.509-23.449 7.357-35.442 0.707-11.006-0.355-20.818 1.651-31.741 2.272-12.348 5.972-24.433 7.89-36.824 1.739-11.501 1.025-24.475 0.669-36.155-0.355-11.903-6.955-21.4-9.852-32.634-2.496-9.857-2.765-18.324-2.94-28.355-0.228-10.704-1.696-21.133-7.179-30.405-3.88-6.509-6.196-12.972-7.711-20.775-1.696-8.924-0.985-18.058-2.496-27.106-0.532-3.071-2.007-11.006-0.757-13.865 1.739-3.881 5.526-2.984 8.516-0.633 4.903 3.881 5.619 15.603 6.955 21.265 0.81 3.348 7.043 29.47 12.885 17.966 2.808-5.572 2.496-14.533 1.202-20.465-0.492-2.223-0.707-5.889-1.783-7.885-1.651-3.211-5.75-3.653-7.087-6.459-2.765-5.748-0.228-19.841-0.088-26.524 0.044-6.068-0.797-5.397-3.255-10.072-1.962-3.79-3.788-11.147-4.548-15.427-0.62-3.613 1.826-9.593-0.228-12.929-2.63-4.195-8.337-2.046-12.395-2.314-5.037-0.252-8.826-2.679-14.043-2.628-6.733 0.045-5.841 1.553-9.184 6.104-3.211 4.41-8.427 10.249-12.929 13.688-7.623 5.799-18.28 13.107-27.552 15.335-11.815 2.856-23.807-2.046-35.756-1.959-4.19 0-8.428 0.089-12.662 0-8.157-0.127-6.375 1.289-9.494 7.798-1.428 2.984-4.815 5.748-5.572 9.010-1.025 4.145-0.264 9.401-0.228 13.776 0.044 10.162-4.325 15.203 0.492 25.502 0.847 1.781 3.434 3.161 4.147 5.043 1.202 2.984 0.441 6.559 0.441 9.68-0.044 6.104 0.441 9.010-2.542 13.998-6.821 11.461-0.669 27.151 0.14 40.035 1.075 17.699-4.412 39.322 1.253 56.131 1.516 4.55 4.726 8.15 5.886 12.884 0.985 3.881 0.405 8.026 0.355 11.993-0.088 9.275 0.934 18.857-0.492 28.040-1.381 8.732-4.95 17.297-6.641 25.992-1.783 9.1-0.897 19.796-0.532 28.98 0.264 7.885 3.388 14.221 5.886 21.756 2.542 7.584 1.783 14.668 1.783 22.826 0 5.572-1.253 12.796 0.405 18.232 1.739 5.84 6.466 8.873 7.311 15.204 0.934 7.129-0.177 14.934-0.044 22.156 0.228 10.249-4.636 14.756-8.738 23.716-3.388 7.443-4.103 12.398-4.011 20.731 0.088 6.951-1.202 11.676-3.255 18.324-2.050 6.686-1.202 15.204-6.955 20.063-2.14 1.872-3.923 1.517-4.993 3.931-1.202 2.892-0.14 7.885-0.088 11.059 0.044 6.646 0.847 13.911-1.826 20.152-1.783 4.058-2.765 5.927-3.836 10.426-2.451 10.213-8.603 18.591-5.841 29.335 1.381 5.397 3.565 9.58 3.657 15.070 0 1.959-2.272 1.289-2.050 3.881 0.177 1.922 4.771 6.191 6.108 7.885 3.434 4.41 3.923 5.257 3.788 11.375-0.177 6.914-1.025 8.873 6.33 8.96 8.157 0.127 12.348-3.211 17.922-8.96 2.94-3.033 9.629-12.523 15.113-8.783 3.032 2.009 3.255 8.253 5.125 11.461 3.164 5.257 7.043 3.74 12.841 3.703 4.903 0 10.477-0.757 15.292-0.090 5.348 0.757 10.075 3.968 15.336 4.992 4.815 0.884 10.297 0.127 15.292 0.252 5.796 0.044 9.765-1.922 15.292-2.679 2.050-0.252 4.282 0.252 6.33 0.127 3.612-0.127 5.619-1.744 8.961-2.401 4.68-0.884 10.388-0.378 15.248-0.252 9.096 0.252 11.547 5.257 19.172 8.833 2.765 1.289 4.815 0.757 7.533 1.262 4.325 0.757 8.379 5.397 12.348 5.22 7.756-14.934 0.707-38.116-3.968-53.141-1.874-5.927-4.993-11.059-6.375-17.255-1.603-7.088-2.586-14.264-3.612-21.443-3.479-24.787-9.272-49.218-13.597-73.83z"></path>
    <path fill="#000000" d="M532.853 236.12c-0.355-6.244 1.025-12.972 0.14-19.124-1.516-10.477-6.466-20.152-11.547-29.292-2.005-3.563-5.619-8.732-6.51-12.613-1.651-7.088 2.765-13.552 2.675-20.552-0.088-6.596-0.441-11.639-1.962-17.834-1.603-6.419-3.434-12.841-5.037-19.035-3.521-13.597-10.836-23.449-19.749-34.464-4.058-5.043-8.826-9.137-13.465-13.465-2.496-2.314-5.796-3.703-8.428-5.748 2.14 3.12 3.968 7.798 5.304 10.249 2.765 4.956 6.152 9.224 9.005 14.087 6.152 10.426 6.243 19.617 6.287 31.786 0.044 7.975-1.075 14.087-2.808 21.666-1.075 4.459-3.164 7.885-4.903 12.080-1.826 4.41-1.561 7.707-2.718 12.031-2.94 11.234-10.966 23.005-21.177 29.557-9.94 6.332-12.749 11.284-17.433 22.204-4.68 10.882-4.369 21.443-4.457 33.747-0.044 6.191 0.441 12.131 3.032 17.834 1.202 2.679 3.388 5.22 4.68 7.798 1.075 2.136 1.783 4.765 3.032 6.86 5.082 8.645 11.011 17.432 17.388 25.232l1.826 2.364c-1.162-7.707-1.826-15.559-1.516-23.361 0.228-4.501 0.707-9.047 1.874-13.465 0.532-2.187 1.696-4.284 2.229-6.469 2.989-12.308-1.025-32.145 18.324-32.1 3.657 0.044 7.804-1.011 10.388 1.376 1.025 0.884 4.011 7.848 4.414 9.365 1.516 5.572 2.007 16.764 0.707 22.514-0.582 2.592-2.989 4.992-3.968 7.494-1.337 3.388-1.294 6.419-1.253 10.249 0 3.526-0.934 8.163-0.088 11.552 0.707 2.943 3.479 5.572 2.63 8.833 1.202-7.671 9.272-6.951 14.803-10.791 1.337-0.884 4.726-3.526 5.662-4.459 1.783-1.781 2.097-2.716 3.701-5.13 6.375-9.77 11.591-20.329 11.504-31.876 0-7.001-2.229-12.523-2.586-19.124z"></path>
    <path fill="#000000" d="M492.771 342.54c-0.177 0-0.355-0.044-0.582-0.089 0.985 0.884 1.739 5.13 1.517 6.509 0.044-4.284 0-8.518 0-12.75 0-1.781 0.492-4.373 0.088-6.154-0.228-0.884-0.847-0.884-1.075-1.831-0.264-1.011 0.228-2.274 0.088-3.388-0.228-1.694-0.797-3.526-1.202-5.257-0.441-1.831-0.897-4.018-1.696-5.748-1.472-3.261-2.14-6.469-2.989-9.944-0.14-0.633-0.707-0.633-0.897-1.428-0.228-0.884 0-1.831-0.177-2.716-0.14-0.633-0.62-1.262-0.757-2.1-0.14-0.884 0-1.959 0-2.892 0-1.517-0.177-3.12 0.228-4.55 0.441-1.428 2.050-2.856 2.451-4.284 0.985-3.211-1.162-6.368 2.097-8.34 3.075-1.872 4.504-4.851 3.657-8.605-0.405-1.603-0.669-3.79-1.428-5.079-0.797-1.339-2.586-2.984-3.88-3.83-2.586-1.744-6.020-2.679-8.603-0.506-2.407 2.1-3.119 5.22-3.119 8.378 0.044 1.553 0.044 3.161 0 4.778 0 2.274 0.985 3.438 0.985 5.748-0.088 7.443-3.255 13.733-3.788 20.955-0.405 4.902-2.14 10.388-0.757 15.427 1.075 3.881 2.675 8.29 3.388 12.398 0.315 1.959 0.897 3.79 1.202 5.712 0.355 2.187 0.934 4.41 0.897 6.686 0 1.694 0.492 4.145 0.088 5.748-0.405 1.694-2.185 3.261-0.355 5.043 0.582 0.506 0.62 0.378 1.202 0.633 0.441 0.252 2.319 0.884 2.853 1.011 2.229 0.506 4.504-0.506 6.51-1.262 0.532-0.127 0.355-0.633 1.112-0.757 1.337-0.252 2.14 0.506 3.211-0.633 1.428-1.376 0.669-5.079-0.264-6.951z"></path>
    </svg>