<svg xmlns="http://www.w3.org/2000/svg" viewBox="303.185 -16.008 417.400 1056.474">
    <path fill="#000000" d="M541.185 219.031c0-0.445 0-0.89 0-1.293 0.223 0.779-0.038 1.539-0.223 2.362-0.779 3.452-3.42 8.288-5.146 11.2-6.049 10.372-15.759 18.233-22.873 27.823-4.756 6.45-9.779 11.319-16.74 15.367-4.633 2.752-9.513 5.738-14.421 8.021-4.044 1.882-6.797 4.836-10.181 7.699-2.951 2.473-5.659 4.522-7.787 7.743-2.207 3.265-3.452 5.782-3.265 9.827 0.223 4.633 1.113 11.2 5.068 14.069 1.882 1.293 4.009 2.362 5.894 3.699 2.709 1.882 5.226 3.031 8.487 3.031 8.256 0.038 15.092-4.279 21.141-9.513 2.597-2.239 5.348-4.12 8.021-6.248 3.376-2.672 5.738-6.371 8.956-9.156 2.283-1.961 4.911-3.297 7.196-5.19 3.062-2.549 5.226-5.782 7.819-8.765 5.146-5.97 10.415-10.448 12.574-18.431 1.181-4.399 2.084-8.522 3.854-12.773 1.138-2.709 2.549-6.204 2.629-9.191 0.038-3.062-0.89-6.128-0.89-9.234-0.039-2.16 0.445-4.522-0.668-6.526-0.779-1.615-2.473-2.828-3.655-4.12s-3.933-6.482-5.738-6.017c-0.111 0.89-0.111 1.726-0.039-4.367z"></path>
    <path fill="#000000" d="M545.822 284.188c0.334 2.040-2.116 4.633-3.108 6.248-5.536 9-12.654 16.622-20.356 23.892-6.327 5.97-13.44 11.083-20.356 16.387-5.627 4.367-11.237 8.332-17.565 11.631-4.956 2.597-7.866 7.429-12.066 11.004-3.297 2.828-8.645 7.119-10.105 11.513-0.557 1.65-0.223 3.5-0.334 5.19s-1.293 4.167-0.557 5.815c1.961 4.399 13.009 3.062 16.387 2.907 6.916-0.445 13.401-1.77 20.122-3.376 3.062-0.668 6.172-1.181 9.156-2.239 4.244-1.539 6.872-4.601 9.779-7.819 5.068-5.504 11.039-10.292 15.206-16.505 2.318-3.376 4.12-6.995 6.605-10.26 1.539-2.040 3.297-3.933 4.788-6.049 3.543-4.991 7.385-9.436 9.389-15.287 1.849-5.46 2.517-11.279 2.362-17.016-0.079-2.438-0.557-10.181-3.34-11.356-2.362-1.002-7.699 0.557-6.049-4.677z"></path>
    <path fill="#000000" d="M557.059 421.338c4.836-0.223 3.655 7.273 3.5 11.28-0.445 9.234-3.655 17.92-8.689 25.662-1.491 2.318-3.108 4.557-4.478 6.951-1.448 2.549-2.597 5.425-4.399 7.787-3.42 4.522-8.925 6.872-13.321 10.336-6.017 4.756-11.356 10.292-18.469 13.479-6.84 3.108-14.464 5.348-21.927 6.017-4.788 0.445-9.748 0.036-14.581 0.111-1.113 0.036-3.655 0.445-4.399-0.557-1.416-1.849 1.491-7.588 2.116-9.513 1.416-4.323 2.473-8.765 3.933-13.127 1.46-4.244 4.478-8.177 7.699-11.239 2.283-2.128 5.034-3.699 7.62-5.46 3.889-2.672 7.664-5.46 11.592-8.054 10.26-6.685 20.867-12.852 31.006-19.649 6.638-4.446 13.084-10.849 20.671-13.596 0.779-0.334 1.491-0.445 2.116-0.445z"></path>
    <path fill="#000000" d="M551.243 349.344c0.334 1.539-0.668 1.539-1.491 2.239-1.65 1.448-2.987 3.34-4.446 5.023-2.709 3.185-5.425 6.327-8.332 9.358-3.031 3.108-6.359 7.075-9.779 9.748-2.709 2.16-5.301 2.549-8.566 3.265-3.062 0.668-5.27 2.005-7.699 3.889-5.068 3.854-10.694 5.579-16.23 8.566-4.788 2.629-9.779 5.034-14.069 8.487-2.362 1.928-5.27 3.619-7.308 5.815-1.571 1.694-1.961 3.699-2.362 5.859-1.539 7.942-3.108 16.111-2.784 24.21 0.223 6.172 2.752 9.436 8.844 10.885 1.849 0.445 3.297 0.668 5.146 0.111 4.12-1.002 8.256-2.597 12.38-3.854 3.81-1.113 7.308-2.752 10.615-4.948 3.297-2.207 6.049-4.991 9.436-7.119 6.283-3.889 13.008-7.353 18.549-12.341 4.756-4.279 5.226-10.181 8.925-15.012 3.655-4.788 9.278-7.942 12.416-13.127 2.283-3.731 2.828-9.513 3.031-13.832 0.223-4.867-1.113-11.437-3.108-15.837-2.318-4.911-4.712-6.172-3.142-11.437z"></path>
    <path fill="#000000" d="M551.243 475.766c0.557 1.805-2.752 4.244-3.655 5.381-1.181 1.416-2.084 3.34-3.452 4.601-1.615 1.448-3.933 1.961-5.703 3.265-1.882 1.416-3.889 2.549-5.782 3.933-2.040 1.448-3.543 3.619-5.504 5.19-1.26 1.002-2.549 2.438-3.889 3.297-1.491 1.002-2.987 1.694-4.478 2.876-3.778 3.108-7.898 4.323-7.119 10.292 0.334 2.517 2.362 4.879 4.633 6.248 4.009 2.438 8.487 3.108 12.38 5.859 3.889 2.795 7.308 5.659 11.829 7.273 4.167 1.491 7.866 4.991 12.418 5.46 5.301 0.557 7.977-1.002 9.036-6.638 1.002-5.536 2.084-11.083 3.265-16.623 0.557-2.438 1.26-5.023 1.491-7.509 0.223-2.438-0.445-4.948-0.89-7.308-0.445-2.084-1.26-3.452-2.16-5.348-1.002-2.040-1.416-4.323-2.318-6.359-1.337-2.876-3.376-8.925-6.797-9.903-2.040-0.668-5.97-0.445-7.699 0.779 0.557-0.557 0.89-1.113 4.399-4.756z"></path>
    <path fill="#000000" d="M510.924 240.723c-0.223 2.672-1.448 4.601-2.283 7.15-1.293 3.81-3.889 6.406-6.45 9.513-2.672 3.297-5.894 6.84-10.65 6.761-5.579-0.080-8.097-6.605-9.358-11.004-1.65-5.579-1.805-11.788-1.571-17.566 0.111-3.778 1.113-7.509 1.416-11.279 0.223-2.517 0.445-4.879 0.89-7.353 1.491-7.028 2.394-14.108 3.297-21.221 0.445-2.987 0.557-5.859 1.77-8.645 1.113-2.517 2.784-4.712 4.478-6.872 1.928-2.473 3.81-7.819 6.685-9.191 1.491-0.668 7.273-0.445 8.645 0.334 1.26 0.779 1.77 2.16 2.283 3.452 1.26 3.108 2.549 6.562 2.987 9.859 0.668 5.615 0.89 11.162 0.89 16.821 0 5.381 0.334 10.805-0.557 16.072-0.557 3.142-0.111 6.204-0.779 9.314-0.557 2.709-0.079 5.536-0.557 8.332-0.779 4.211-1.571 7.62-3.22 11.631 0.111 0 0.334 0.039 2.040-6.172z"></path>
    <path fill="#000000" d="M471.352 219.031c1.138 1.928 1.571 2.828 1.571 5.068-0.079 5.068-0.038 10.137-0.038 15.169 0.038 3.452-0.079 6.638-0.557 10.058-0.445 3.062 0.223 5.504 0.557 8.522 0.111 1.337 0 2.672 0.223 4.044 0.111 1.002 0.668 1.882 0.668 2.907-0.079 2.207-1.65 3.108-3.22 4.323-1.805 1.337-4.557 3.81-7.039 2.549-1.882-0.89-3.731-3.778-4.633-5.46-1.26-2.394-1.928-4.991-3.42-7.23-1.726-2.629-3.297-4.756-4.323-7.787-1.726-5.27-4.948-11.474-2.362-17.134 1.928-4.279 6.204-8.61 9.779-11.554 1.882-1.571 3.889-1.849 5.815-2.876 0.779-0.445 1.38-1.213 2.207-1.694 3.062-1.726 8.054-3.142 4.756 1.113z"></path>
    <path fill="#000000" d="M523.343 201.976c0.668-0.779 1.26-0.779 1.694-0.111-1.213 3.933-1.726 7.385-1.726 11.593 0 2.473-0.223 5.348 0.668 7.699 0.89 2.318 2.473 2.629 4.756 2.629 4.557-0.038 6.761-4.088 10.105-6.717 4.12-3.297 8.133-4.948 13.127-6.562 2.517-0.779 5.348-1.181 7.743-2.318 1.849-0.89 2.907-2.239 5.068-2.438 4.167-0.334 9.156-0.111 13.203 0.779 2.283 0.557 4.044 1.77 6.128 2.709 1.928 0.89 3.965 1.337 5.938 2.084 4.167 1.694 7.977 1.961 12.459 0.89 1.539-0.334 2.517-0.779 3.778-1.694 1.448-1.113 3.34-2.040 4.601-3.297 1.65-1.571 1.882-4.323 2.239-6.45 0.557-3.34 1.002-6.685 1.002-10.058 0-3.576-0.111-6.872-0.668-10.336-0.111-0.779 0.080-1.849-0.111-2.517-0.557-1.805-3.108-2.239-4.788-2.362-2.672-0.111-5.348 0.223-7.977 0-3.5-0.223-6.916-1.26-10.415-1.491-3.22-0.223-6.605-0.334-9.779 0.445-3.452 0.779-6.406 2.987-9.704 4.244-2.672 1.002-5.425 1.615-8.097 2.438-2.040 0.668-3.42 2.116-5.301 3.031-4.287 2.040-8.925 1.002-13.321 2.597-4.399 1.65-8.61 2.16-13.283 2.828-3.031 0.445-5.859 2.239-8.522 3.778-2.709 1.571-2.672 3.376-2.709 6.295 0 2.116 0 3.611 0.89 5.579 0.557 1.213 1.416 4.788 2.987 4.879 0.668-0.779 0.89-1.694-0.038-8.177z"></path>
    <path fill="#000000" d="M500.827 521.508c3.376 1.181 5.615 6.638 6.685 9.704 2.084 6.248 0.668 13.244-2.549 18.864-1.882 3.265-4.557 5.579-6.916 8.455-2.473 3.031-3.34 6.761-4.956 10.216-2.517 5.301-6.916 10.026-8.877 15.6-0.779 2.239-1.113 4.279-2.207 6.45-1.002 1.961-1.849 3.965-2.863 5.894-2.16 4.12-4.287 8.177-6.638 12.143-1.928 3.297-3.81 7.54-5.034 11.162-1.849 5.536-4.677 10.606-6.172 16.229-0.779 3.062-1.65 4.911-3.42 7.509-1.372 1.928-2.517 3.42-3.142 5.738-0.557 2.283-0.779 4.167-2.16 6.172-2.517 3.619-3.062 7.15-3.854 11.358-0.557 2.951-2.239 5.146-3.655 7.699-1.849 3.265-2.672 6.916-4.323 10.292-1.805 3.731-4.12 7.15-5.425 11.116-0.445 1.491-0.779 3.031-1.138 4.522-0.89 3.376-2.784 6.204-4.009 9.436-1.416 3.699-2.239 7.54-2.987 11.435-0.89 4.712-2.362 9.278-3.185 13.99-0.89 5.301-1.849 10.65-2.283 16.036-0.445 4.911-1.539 9.234-1.539 14.188 0 4.367-0.668 8.367-1.77 12.535-1.337 5.226-1.181 10.105-1.337 15.406-0.080 3.731-1.113 7.039-1.539 10.694-0.223 2.207-0.038 4.446-0.038 6.685 0.038 4.2-0.334 8.367-0.557 12.574-0.334 4.756-0.89 9.548-1.002 14.345-0.223 5.46 0.89 10.571 1.448 15.953 0.334 3.464 0.668 6.049 1.805 9.358 1.571 4.478 3.731 8.411 6.093 12.536 4.287 7.429 8.332 15.249 13.753 21.969 3.142 3.889 6.761 7.353 9.389 11.631 2.863 4.677 5.579 7.588 10.26 10.448 2.629 1.615 4.756 3.854 7.353 5.504 2.672 1.77 5.703 1.928 8.8 2.438 4.12 0.668 8.177 0.89 12.341 1.002 1.961 0 4.12 0.223 6.049-0.111 2.318-0.445 4.12-1.77 6.248-2.597 3.81-1.38 8.177-1.337 12.105-2.318 4.009-1.002 8.097-1.961 12.222-2.040 4.677-0.080 9.079 0.111 13.714-0.668 5.659-0.89 11.2-2.16 16.661-3.933 9.436-3.031 19.099-5.226 27.43-10.805 8.177-5.46 14.538-11.788 18.393-20.907 3.265-7.699 5.46-15.561 5.97-23.933 0.334-6.049-0.223-12.024 0.445-18.077 0.557-5.146 0.557-10.448 0.445-15.68-0.111-5.034-1.372-9.903-1.615-14.893-0.111-4.287-1.213-8.177-1.882-12.38-0.779-4.911-0.445-9.982-0.445-14.931 0-6.283 0-12.617 0-18.901 0-3.265 0.445-6.685-0.223-9.903-1.539-8.097-3.889-16.23-5.859-24.246-1.26-4.991-2.362-9.903-4.044-14.738-2.473-7.308-5.738-14.225-8.411-21.419-3.108-8.455-6.797-16.622-11.319-24.403-2.318-4.044-4.478-8.209-7.119-12.024-3.185-4.601-6.371-9.036-8.844-14.070-4.167-8.411-9.827-15.718-13.361-24.403-1.571-3.81-3.142-7.588-4.478-11.475-1.138-3.42-3.576-7.23-3.854-10.805-0.111-2.16-0.080-3.81-0.89-5.894-1.416-3.619-3.265-7.039-4.677-10.65-1.849-4.911-0.668-11.631-0.668-16.74-0.038-5.97 1.416-12.299 5.034-17.171 1.491-2.040 4.367-3.452 6.995-3.108 3.22 0.445 5.301 5.938 6.605 8.566 1.002 2.040 1.928 3.854 2.239 6.128 0.445 2.828 1.293 5.301 1.961 8.133 1.416 6.204 2.709 11.554 5.938 17.213 2.987 5.27 5.938 10.336 9.191 15.443 6.327 9.903 10.96 20.515 15.718 31.204 2.005 4.478 4.601 8.877 6.049 13.596 1.448 4.633 3.031 7.699 6.093 11.514 2.16 2.752 3.619 5.703 5.19 8.8 0.89 1.882 1.571 3.854 2.318 5.815 1.372 3.576 3.031 6.995 4.601 10.495 5.859 12.89 13.203 25.032 18.627 38.080 5.425 13.203 10.292 25.899 12.81 39.964 1.181 6.406 2.672 12.734 3.376 19.217 0.668 5.938 0.445 11.83 0.557 17.764 0.039 4.244-0.779 7.942-1.372 12.103-0.779 5.627-0.557 11.437-1.694 17.016-0.89 4.244-2.207 8.021-2.597 12.459-0.445 5.034-0.557 10.216-1.448 15.208-0.779 4.287-2.709 8.288-3.778 12.536-1.416 5.504-2.16 11.2-3.5 16.74-1.002 4.446-2.951 8.054-4.836 12.103-2.207 4.557-3.889 9.234-5.627 13.99-1.571 4.287-3.619 8.097-6.359 11.711-3.5 4.557-5.579 9.903-8.765 14.658-5.068 7.588-12.066 15.641-20.866 18.587-4.836 1.65-10.105 3.576-15.13 4.323-2.629 0.445-5.536 0.111-8.209 0.082-3.933-0.082-7.385 0.223-11.237 0.557-8.455 0.89-17.291 0.111-25.782 0.223-4.399 0.036-8.721-0.668-13.126-0.779-5.068-0.111-9.859 0.557-14.777-0.89-4.244-1.213-7.977-1.46-12.341-1.337-4.948 0.080-9.358-1.293-14.227-1.571-4.446-0.223-9.079 0.668-13.401-0.557-5.19-1.372-9.592-2.362-14.974-2.597-3.81-0.111-7.588-0.082-10.805-2.362-3.062-2.207-5.579-5.146-8.455-7.588-3.031-2.597-6.761-3.889-9.469-6.797-3.108-3.34-5.579-7.743-7.54-11.788-2.863-5.859-5.894-11.319-8.097-17.488-2.597-7.385-5.068-14.501-6.204-22.244-0.557-4.12-2.116-7.898-2.195-12.142-0.080-5.27 0.079-10.571 0.079-15.799 0-5.579-0.557-11.437 0.111-17.016 0.668-6.283 1.961-12.38 2.207-18.786 0.223-5.146 0.779-10.336 1.491-15.484 0.779-5.381 2.318-10.773 3.031-16.191 0.779-6.371-0.038-12.929-0.557-19.256-0.445-5.859 0.334-10.928 1.849-16.584 1.213-4.712 3.062-9.234 4.244-13.914 1.539-6.017 2.863-12.024 4.522-17.999 1.372-5.226 2.207-10.336 3.965-15.484 2.195-6.605 3.22-13.796 5.894-20.198 1.882-4.633 4.633-8.765 7.308-12.967 2.318-3.699 4.323-7.039 7.15-10.292 6.482-7.588 11.556-16.897 15.367-26.056 2.672-6.45 5.226-12.929 8.021-19.293 1.213-2.784 2.597-5.504 3.854-8.256 2.239-4.911 2.318-10.773 3.655-15.993 0.89-3.81 1.181-7.707 2.040-11.556 1.002-4.557 2.473-8.487 2.987-13.165 0.445-4.244 1.448-8.021 2.283-12.143 0.779-3.933 0.557-7.942 1.337-11.906 1.138-5.579 3.031-12.143 6.017-17.054 3.062-4.991 8.925-7.787 14.581-8.411 4.522-0.445 9-0.445 13.244 1.213 5.703 2.207 6.872 8.256 9.469 13.361z"></path>
    <path fill="#000000" d="M477.206 205.788c-1.726-1.337-0.779-4.836-0.779-6.605-0.111-3.778-1.113-7.353-0.89-11.162 0.079-2.005 0.334-4.12 1.002-6.049 0.89-2.709 3.031-3.655 4.712-5.615 0.334-0.445 0.779-1.615 0.89-1.928 0.89-1.491 2.005-2.116 3.22-3.34 1.928-1.961 3.5-4.279 5.27-6.406 3.889-4.677 10.105-6.562 12.497-12.811 0.557-1.448 0.668-3.185 0.89-4.712 0.445-1.849 1.138-3.619 1.571-5.46 0.779-3.108 0.111-6.872 0.111-10.105 0-3.031-0.038-6.017 0-9.036 0-2.907-0.779-5.504-0.89-8.367-0.079-2.473 0.223-4.948 0.080-7.385-0.223-2.828-1.539-5.615-2.207-8.367-1.002-4.211-1.113-8.288-1.213-12.616-0.080-2.709-1.002-6.526-2.318-8.956-0.557-1.113-1.77-2.517-2.709-3.185-0.668-0.445-1.491-0.445-2.084-1.002-0.89-0.779-1.448-2.207-2.16-3.22-1.113-1.448-2.438-3.611-4.244-4.244-0.668-0.223-1.337-0.038-2.084-0.223-0.779-0.223-1.372-1.002-2.283-1.002-2.672 0.038-3.655 5.579-4.244 7.62-1.491 5.27-1.77 10.571-2.517 15.917-0.89 6.248-1.416 12.497-1.491 18.785-0.080 3.297 0.89 6.406 0.89 9.748-0.038 2.907 0 5.815 0 8.689 0 4.601-0.668 8.8-0.779 13.361-0.080 2.005-0.445 4.167-1.113 6.093-0.779 2.828-2.672 5.034-4.044 7.54-0.557 1.138-1.002 2.362-1.615 3.452-1.181 2.16-3.297 3.5-4.088 5.815-0.445 1.26-0.557 2.629-1.002 3.933-0.89 2.629-0.557 4.756-1.002 7.54-0.445 3.452-1.615 6.84-2.16 10.292-0.445 2.784-0.223 5.738-0.223 8.566 0.038 2.752 0.445 6.093 1.694 8.522 0.223 0.557 0.779 1.113 1.113 1.615 0.557 1.113 0.668 2.907 1.448 3.731 0.89 1.002 3.22 0.557 4.712 0.557 3.452 0.038 6.797-0.111 7.942 0z"></path>
    </svg>