<svg xmlns="http://www.w3.org/2000/svg" viewBox="55.696 -25.320 977.921 1121.998">
    <path fill="#000000" d="M350.669 872.706v0-0.301c-0.047-5.795-1.535-10.309-1.64-14.508-0.151-3.838-0.151-7.631-1.053-11.994-2.153-9.904-6.096-17.377-13.891-24.041h-0.047c-5.433-4.725-11.695-8.053-18.971-9.738-4.966-1.053-9.377-1.203-13.079-2.153v0c-3.687-0.903-7.435-2.002-11.8-2.258v0c-1.053-0.052-2.047-0.052-3.024-0.052-7.586 0-14.614 1.203-21.53 2.153-7.284 1.053-16.868 0.301-25.428 4.966-8.563 4.815-14.101 11.994-17.277 19.89-3.235 7.947-4.305 16.661-4.305 25.118v12.401l7.284-9.844c3.13-4.2 5.117-6.606 6.561-8.143 1.505-1.58 2.198-2.258 3.175-3.386v0c3.431-3.838 6.621-7.797 10.099-10.459 3.085-2.454 8.457-4.456 12.25-4.456v0h0.107c1.851-0.109 4.981 1.053 8.714 1.535 3.748 0.301 7.224 0.452 10.459 0.903v0c5.328 0.603 10.972 1.354 14.87 3.386 5.945 3.024 9.949 7.54 12.567 13.019 2.62 5.493 3.793 11.994 3.793 18.606 0 3.853-0.452 7.691-1.053 11.378-0.753 3.898-1.203 6.968-2.047 9.377-0.753 2.454-1.896 4.365-4.305 6.561-3.537 3.281-9.844 4.411-16.093 4.861-1.505 0.151-2.919 0.151-4.365 0.151-8.518 0-15.789-2.107-25.065-4.665-6.096-1.746-10.61-4.665-15.228-8.352-4.56-3.687-9.12-8.158-15.074-12.356l-2.107-1.505-2.198 1.354c-1.942 1.053-3.024 2.814-3.537 4.35-0.603 1.535-0.603 3.024-0.603 4.456 0.049 2.363 0.452 4.516 0.753 6.096 1.053 4.109 2.107 8.262 3.13 12.567 0.903 3.943 1.701 7.691 3.431 11.333 1.746 3.642 4.605 7.013 8.864 9.527 4.516 2.724 10.054 5.237 15.583 6.307v0c7.435 1.354 14.508 1.053 20.712 2.318v0c3.431 0.603 6.772 1.203 10.565 1.354v0h0.603c5.388-0.052 9.542-1.354 13.591-1.746l1.64-0.049c1.505 0 3.070 0.151 4.966 0.151 1.203 0 2.469-0.052 3.838-0.301 9.949-1.791 19.633-5.282 27.629-11.122 8.007-5.795 14.252-14.041 16.969-24.763 1.505-5.795 1.701-11.484 1.701-16.915 0-3.13-0.052-6.201-0.052-9.181v-1.746z"></path>
    <path fill="#000000" d="M207.247 722.976v0l-0.053 0.052zM227.959 740.407c1.746-2.258 3.642-4.665 5.117-7.736 2.874-6.096 4.154-12.205 5.749-17.891 1.203-4.71 4.004-10.459 4.049-17.171 0-0.753 0-1.58-0.107-2.469-0.903-7.586-4.456-13.786-9.226-18.457-4.71-4.665-10.61-7.992-16.661-10.505l-11.273-4.665 6.262 10.505c2.002 3.326 3.070 5.433 3.748 6.817 0.603 1.505 0.903 2.153 1.505 3.235 1.746 3.597 3.537 6.862 4.305 9.949 0.301 1.053 0.603 2.514 0.603 3.959 0 1.896-0.301 3.898-0.903 5.222-0.301 1.053-2.047 2.979-3.582 5.644v0c-1.354 2.514-2.409 4.921-3.642 6.968v0.052c-2.047 3.537-4.094 7.179-6.456 9.12-4.004 3.431-8.457 4.77-13.32 4.77-6.667 0.055-13.996-2.769-19.941-6.667-2.514-1.701-4.516-2.874-5.9-4.049-1.354-1.203-2.198-2.363-3.024-4.56-0.301-0.903-0.603-2.047-0.603-3.281 0-2.559 0.753-5.689 1.791-8.714 2.409-7.39 6.262-12.205 11.529-18.917 2.874-3.642 6.096-5.84 9.949-7.947 3.838-2.107 8.307-4.004 13.064-6.968l2.153-1.354-0.301-2.514c-0.151-1.791-1.053-3.22-2.107-4.094-1.505-1.354-2.979-2.047-4.411-2.559-1.505-0.452-2.724-0.753-3.748-0.903v0.052c-3.22-0.452-6.411-0.903-9.693-1.535v0.052c-2.665-0.452-5.177-0.903-7.947-0.903-3.537-0.052-7.435 0.903-10.972 3.642v0c-3.235 2.409-6.667 5.584-9.12 9.271-3.235 4.921-5.071 9.949-7.691 13.786-1.505 2.198-2.874 4.411-4.049 7.119-1.746 4.094-2.047 7.631-2.979 10.505-0.452 1.685-2.002 3.838-2.874 7.48-0.903 4.094-1.505 8.352-1.505 12.552-0.052 11.183 3.838 22.457 13.891 29.991 6.262 4.665 13.184 6.712 19.173 9.331v0c4.305 1.836 8.053 2.107 10.926 3.235 2.665 0.903 5.388 2.107 8.864 2.724v0c2.514 0.452 4.921 0.753 7.239 0.753 4.815 0 9.422-1.203 14.192-3.537 4.966-2.514 9.331-6.006 12.657-10.715 2.303-3.281 3.582-6.307 5.282-8.457v-0.052z"></path>
    <path fill="#000000" d="M289.82 534.927l0.903-2.409 0.301-1.701 0.903 10.821c0.151 2.409 0.151 4.004 0.151 5.117 0 1.64-0.105 2.153-0.105 3.341v2.544c0 2.002-0.052 3.838-0.301 5.388-0.301 1.791-1.791 4.456-3.085 5.539v0c-0.301 0.452-2.107 1.203-4.2 2.559v0c-1.836 1.203-3.326 2.514-4.815 3.476v0c-2.559 1.791-5.132 3.431-7.119 3.959-1.203 0.301-2.363 0.452-3.491 0.452-3.386 0-6.667-1.354-9.693-3.597-3.024-2.258-5.689-5.433-7.631-8.819-1.053-1.746-1.896-3.13-2.409-4.2-0.452-1.053-0.753-1.836-0.753-2.964l0.049-1.053c0.151-2.002 2.153-4.62 4.62-7.119 4.004-4.094 8.053-5.991 13.891-8.774 2.979-1.505 5.734-1.836 9.015-2.002 3.235-0.107 6.923 0.107 11.273-0.301l2.514-0.301zM291.611 558.151v-0.052zM234.55 585.064v0c2.514 2.859 4.921 4.305 6.352 5.9 1.505 1.535 3.024 3.281 5.282 4.921 4.71 3.537 9.738 5.539 15.789 5.433h0.301c4.365 0 8.668-0.903 12.657-3.13v0c2.769-1.535 4.665-3.13 6.411-3.943 1.942-0.903 4.049-2.002 6.201-3.687v0c4.109-3.235 7.073-7.028 9.994-10.354 2.559-3.024 7.224-6.352 9.422-12.295 0.903-2.665 1.354-5.328 1.354-7.947-0.052-8.457-4.411-15.59-9.377-21.327l-8.098-9.181 0.047 0.753c-0.151-2.363-1.354-3.793-2.153-4.876-1.053-1.053-2.047-1.957-2.919-2.514h0.052c-2.047-1.354-4.004-2.769-6.051-4.26-1.58-1.203-3.13-2.258-5.026-3.235-1.851-0.903-4.154-1.685-6.621-1.685-0.903 0-1.896 0.109-2.874 0.301-3.070 0.603-6.561 1.535-9.633 3.326-3.943 2.363-6.923 5.132-9.783 6.817-1.746 0.903-3.491 2.047-5.282 3.582-2.724 2.318-4.109 4.62-5.644 6.201-0.603 0.753-2.514 1.791-4.456 4.154h-0.047c-5.026 6.262-8.714 13.891-8.774 22.145 0 3.943 0.903 8.053 2.859 11.95 2.829 5.433 6.877 9.226 9.994 12.913z"></path>
    <path fill="#000000" d="M553.133 914.667c-1.746-3.642-4.26-7.179-6.201-10.761-11.333-20.813-32.813-35.012-55.829-39.625-6.712-1.354-13.681-2.559-20.504-2.979-8.352-0.452-16.406 1.053-24.656 1.505-14.915 0.753-30.503 3.281-41.063 15.072-6.817 7.586-10.761 19.682-10.761 29.833 0 1.746 0 3.838 0.151 6.051l-2.363-7.54c-0.301 5.433-3.175 10.203-3.386 15.683-0.301 7.284 2.454 12.461 6.051 18.609 5.177 9.030 13.38 19.125 23.686 22.66 0.903-9.377-0.903-19.118 0.753-28.345 1.685-9.226 2.919-18.408 9.226-26.149 7.134-8.714 14.659-13.531 26.245-13.38 10.926 0.151 21.838-1.053 32.197 2.979 8.819 3.491 16.607 10.459 22.399 17.685 6.096 7.646 8.563 13.184 9.482 23.021 0.603 5.282 1.64 11.228 1.701 16.607 0 4.154-1.354 8.203-1.354 12.401 0 3.115 0.301 5.689-0.753 8.608-0.903 2.514-2.709 3.793-3.898 5.945-1.053 1.791-1.203 3.582-2.559 5.071-1.791 2.002-5.433 2.62-7.947 3.491-4.456 1.535-8.864 2.919-13.531 3.838-9.482 1.896-23.224 2.514-32.5-1.053-5.026-2.002-8.759-7.013-14.147-8.203-1.505 1.942 1.836 9.527 3.024 11.935 2.092 4.411 5.734 7.224 10.399 8.97 2.047 0.753 4.456 1.595 6.561 1.957 1.505-0.052 2.979-0.107 4.456-0.151 0.753 0.109 1.505 0.603 1.746 1.203 7.781 1.746 15.993 3.431 23.887 5.071 9.738 2.002 18.457 1.203 28.247-0.452 5.9-0.903 14.87-3.431 18.971-7.797 5.734-6.201 8.397-13.681 12.612-20.914 4.2-7.284 5.539-15.944 5.9-24.302 0.603-12.552 0.603-24.911-3.235-36.804-1.053-3.281-1.505-6.712-2.979-9.844z"></path>
    <path fill="#000000" d="M739.933 802.775c-5.9-3.582-12.039-7.179-18.408-9.798-7.691-3.13-15.891-4.004-23.887-6.201-14.403-3.943-30.141-6.051-44.446 3.582-9.286 6.201-17.484 18.249-21.222 29.425-0.603 1.942-1.354 4.2-2.107 6.667l0.603-9.015c-2.258 5.9-6.772 10.203-8.97 16.199-2.979 7.947-2.198 14.463-1.053 22.4 1.64 11.484 5.689 25.272 14.147 32.399 4.35-9.994 6.141-21.324 11.122-30.911 5.026-9.633 9.587-19.325 18.403-25.835 9.949-7.329 18.863-10.248 29.833-6.352 10.309 3.582 21.073 5.644 29.43 13.425 7.073 6.606 11.935 16.766 14.764 26.558 2.919 10.309 3.235 17.223 0.603 28.345-1.505 5.945-2.559 12.868-4.516 18.765-1.535 4.605-4.26 8.668-5.84 13.23-1.203 3.431-1.851 6.352-3.943 9.286-1.701 2.409-3.943 3.281-5.84 5.237-1.64 1.685-2.454 3.582-4.305 4.77-2.454 1.64-6.096 1.203-8.819 1.354-4.815 0.301-9.482 0.301-14.252-0.052-9.678-0.903-22.963-4.56-30.396-11.484-4.109-3.793-5.795-10.505-10.459-13.486-2.107 1.64-1.746 11.017-1.535 14.041 0.452 5.539 2.814 9.844 6.606 13.184 1.64 1.505 3.642 3.175 5.478 4.26 1.505 0.452 2.874 0.753 4.305 1.203 0.753 0.301 1.203 1.053 1.203 1.957 6.772 4.35 13.891 8.864 20.813 13.169 8.518 5.282 17.022 7.073 26.913 8.518 5.945 0.753 15.382 0.903 20.867-2.62 7.736-4.966 13.019-12.356 19.633-18.966 6.667-6.712 11.122-15.79 14.553-24.864 5.071-13.681 9.738-27.167 10.459-41.523 0.151-3.898 1.053-7.887 0.753-11.74-0.301-4.62-1.354-9.271-1.896-13.831-3.13-26.457-18.249-48.911-38.393-61.265z"></path>
    <path fill="#000000" d="M927.43 616.581c-3.838-30.095-21.689-55.728-45.167-69.977-6.862-4.154-14.101-8.248-21.476-11.273-8.97-3.642-18.509-4.71-27.785-7.284-16.815-4.62-35.116-7.179-51.674 3.642-10.715 6.968-20.097 20.552-24.296 33.216-0.753 2.198-1.595 4.815-2.363 7.586l0.603-10.309c-2.559 6.667-7.736 11.544-10.248 18.301-3.386 9.030-2.454 16.458-1.053 25.428 1.957 13.124 6.817 28.814 16.713 36.964 4.966-11.273 6.968-24.146 12.657-34.962 5.734-10.926 10.866-21.891 21.068-29.222 11.529-8.203 21.891-11.439 34.602-6.923 11.994 4.2 24.556 6.621 34.346 15.583 8.307 7.54 13.996 19.125 17.379 30.296 3.537 11.74 3.943 19.585 0.903 32.195-1.595 6.712-2.814 14.553-5.026 21.275-1.746 5.177-4.861 9.738-6.712 14.96-1.354 3.838-2.047 7.179-4.456 10.459-1.942 2.769-4.56 3.687-6.772 5.945-1.851 1.836-2.814 4.004-4.921 5.388-2.814 1.791-7.073 1.203-10.248 1.354-5.539 0.301-11.017 0.301-16.507-0.151-11.273-1.203-26.759-5.433-35.472-13.335-4.77-4.35-6.772-11.994-12.311-15.428-2.363 1.851-1.896 12.506-1.595 15.996 0.603 6.262 3.326 11.122 7.797 14.96 1.942 1.685 4.245 3.687 6.411 4.921 1.685 0.452 3.326 0.903 5.026 1.505 0.903 0.452 1.354 1.203 1.354 2.258 7.947 4.981 16.204 10.158 24.302 15.121 9.904 6.096 19.89 8.203 31.371 9.904 6.862 1.053 17.893 1.203 24.196-2.724 8.925-5.584 15.021-13.936 22.608-21.374 7.736-7.54 12.823-17.841 16.661-28.093 5.795-15.482 11.077-30.811 11.74-47.061 0.151-4.456 1.203-8.925 0.753-13.38-0.452-5.177-1.701-10.505-2.363-15.683z"></path>
    <path fill="#000000" d="M952.878 374.153c-0.903-17.022-2.469-33.729-9.497-49.314-1.896-4.26-2.979-8.864-5.433-12.868-2.979-4.71-6.862-9.12-10.099-13.681-18.509-26.504-50.29-42.752-82.842-45.778-9.482-0.903-19.325-1.58-28.863-1.053-11.635 0.603-22.608 3.687-33.986 5.373-20.665 3.024-41.885 8.714-54.957 26.096-8.397 11.273-12.25 28.146-10.866 41.833 0.151 2.409 0.603 5.237 1.053 8.143l-4.305-9.844c0.301 7.375-3.024 14.207-2.559 21.682 0.603 9.904 5.132 16.458 10.926 24.302 8.412 11.424 21.173 24.041 35.886 27.323 0.107-12.763-3.793-25.734-2.724-38.398 1.053-12.717 1.535-25.321 9.286-36.604 8.714-12.808 18.503-20.352 34.602-21.731 15.174-1.354 30.093-4.56 45.060-0.603 12.717 3.491 24.503 11.8 33.475 20.813 9.482 9.437 13.636 16.607 16.301 29.787 1.505 7.073 3.793 14.915 4.56 22.199 0.603 5.644-0.603 11.273-0.151 16.964 0.301 4.2 1.053 7.646 0.107 11.8-0.753 3.431-3.235 5.478-4.62 8.503-1.203 2.62-1.203 5.026-2.874 7.224-2.243 2.964-7.119 4.305-10.505 5.84-6.006 2.724-11.994 5.132-18.301 7.073-12.868 3.898-31.884 6.667-45.215 3.085-7.284-2.002-13.169-8.307-20.813-9.075-1.746 2.814 3.898 12.612 5.84 15.683 3.537 5.644 8.97 9.030 15.683 10.67 2.919 0.603 6.411 1.535 9.331 1.746 2.107-0.301 4.154-0.603 6.201-0.753 1.203 0 2.002 0.603 2.559 1.505 11.122 1.203 22.654 2.409 33.886 3.537 13.786 1.354 25.683-1.053 39.115-4.516 8.053-2.107 20.196-6.772 25.22-13.184 7.179-9.181 9.904-19.682 14.719-30.036 4.876-10.459 5.539-22.353 4.876-33.683z"></path>
    <path fill="#000000" d="M429.89 236.794l-10.459-6.411c5.117 6.667 6.456 15.221 11.74 21.891 6.968 8.925 15.534 12.039 26.041 15.583 15.277 5.177 35.426 8.563 51.315 2.047-8.262-11.95-20.352-21.476-27.58-33.984-7.284-12.612-15.069-24.663-15.223-40.246-0.151-17.578 4.004-31.012 18.147-42.805 13.275-11.122 25.067-23.887 41.727-29.833 14.101-5.026 30.503-4.921 44.753-2.409 14.96 2.665 23.532 6.667 34.655 17.171 5.9 5.644 13.23 11.484 18.656 17.739 4.26 4.861 6.772 10.972 10.926 15.944 3.070 3.687 6.006 6.411 7.736 10.972 1.505 3.748 0.603 7.224 1.203 10.972 0.603 3.13 2.153 5.433 2.047 8.623-0.151 4.154-3.838 8.653-6.051 12.295-3.793 6.411-7.797 12.552-12.401 18.457-9.542 12.039-25.428 27.013-40.193 32.344-8.098 2.874-17.685 0.903-25.321 5.071 0.151 3.748 11.785 9.226 15.63 10.866 7.028 2.919 14.252 2.559 21.583-0.301 3.175-1.203 7.028-2.724 9.904-4.456 1.746-1.58 3.476-3.175 5.237-4.815 1.053-0.753 2.198-0.753 3.386-0.301 11.122-6.096 22.654-12.506 33.884-18.812 13.741-7.691 23.27-17.685 33.578-29.684 6.096-7.179 14.403-19.428 14.915-28.709 0.753-13.23-3.642-24.81-5.9-37.575-2.243-12.913-9.377-24.456-17.377-34.602-11.994-15.226-24.248-29.838-40.956-39.831-4.516-2.724-8.563-6.307-13.486-8.457-5.795-2.454-12.356-4.004-18.296-6.201-34.552-12.657-74.746-7.119-107.090 11.273-9.437 5.388-19.071 11.122-27.683 17.74-10.505 8.053-18.663 18.201-28.191 27.221-17.279 16.251-33.429 35.371-34.245 60.080-0.603 15.993 6.862 34.245 17.123 46.186 1.746 2.047 3.898 4.456 6.262 6.923z"></path>
    <path fill="#000000" d="M406.519 659.441c2.62 0 5.117-0.049 7.48-0.049 0.301 0 0.603 0 0.753 0 0.052 1.836 0.452 3.687 1.203 5.282 1.354 2.769 3.642 4.456 5.478 5.478 1.896 1.053 3.582 1.746 5.026 2.469h0.052c3.235 1.58 7.375 2.724 11.95 2.769 3.476-0.049 7.631-0.603 10.972-4.154 2.153-2.363 3.386-4.966 4.305-7.435 0.903-2.454 1.505-4.77 1.957-6.606l0.107-0.151c0.301-0.603 1.203-2.363 1.354-4.049 0.107-0.753 0.107-1.535 0.107-2.198 0-1.203-0.049-2.107-0.107-2.769-0.049-1.354-0.151-2.874-0.603-4.411s-1.053-3.024-2.002-4.365v-0.049c-1.053-1.64-2.198-3.085-3.537-4.365-2.047-1.851-4.665-3.024-7.028-3.491-2.363-0.452-4.516-0.452-6.877-0.452h-1.302c-1.791 0-3.537 0-5.282 0-0.753 0-1.535 0-2.303 0h-0.097c-2.107 0-3.898 0.301-5.433 0.603s-2.829 0.603-4.154 0.903h-0.049c-0.753 0.151-1.64 0.301-2.665 0.603-1.505 0.301-3.642 1.053-5.478 2.919-1.896 1.851-2.724 4.26-3.13 6.621-0.301 1.791-0.452 3.476-0.452 5.117 0 0.107 0 0.151 0.049 0.301h-0.151v11.484z"></path>
    <path fill="#000000" d="M470.348 765.662v0c3.537-1.053 8.563-1.746 12.506-5.388 1.354-1.203 2.062-2.559 2.769-3.793 0.753-1.203 1.203-2.303 1.685-2.919 4.815-7.375 10.61-14.87 17.228-19.89 7.797-6.051 18.606-10.399 25.99-20.403 4.456-6.201 7.54-12.763 11.333-18.296 1.746-2.514 4.2-5.071 6.817-7.947 2.559-2.874 5.237-6.006 7.013-9.949 2.62-5.945 2.153-12.145 2.258-17.022v-1.58c0-11.017-1.354-21.891-1.791-32.399-0.603-13.891-5.282-26.759-9.437-39.115-0.903-2.363-1.505-5.539-2.665-8.759v-0.052c-3.491-8.925-10.926-14.463-16.815-19.428-1.957-1.58-4.26-2.919-6.307-4.305-2.047-1.354-3.838-2.665-4.411-3.431v0l-0.301-0.903c-0.151-0.452-0.301-0.903-0.903-1.896v0c-5.539-7.646-12.717-12.928-20.658-16.458-11.95-5.388-25.48-7.224-38.706-8.457-13.169-1.203-26.041-1.791-36.296-4.2h-0.052c-0.603-0.109-2.092-0.603-3.793-1.203-1.746-0.603-3.582-1.053-5.689-1.053-1.053 0-2.363 0.109-3.748 0.903v0c-1.053 0.603-1.354 1.203-1.58 1.58-0.452 0.753-0.603 1.354-0.753 1.851-0.603 2.002-0.903 4.56-1.203 7.329s-0.603 5.478-0.603 7.48l0.052 1.354 0.301 1.505c0.603 2.363 2.107 4.26 3.793 5.584 2.454 2.002 5.282 2.979 7.947 3.748 2.665 0.753 5.237 1.053 7.028 1.505 3.582 0.753 7.179 1.203 10.399 1.791 3.22 0.603 6.006 1.535 7.947 2.979 3.13 2.198 6.667 6.201 11.529 8.759 2.047 1.053 3.838 1.64 5.328 2.198 1.505 0.603 2.62 1.203 4.109 2.213 3.597 2.559 6.923 5.9 10.61 9.271 0.903 0.753 2.107 1.595 3.537 2.318 1.505 0.753 2.919 1.354 5.132 1.505 0.105 0 0.301-0.052 0.452-0.107 3.959 4.154 7.902 8.412 12.763 12.311v0c8.203 6.561 16.405 12.763 22.251 20.352 3.687 4.77 5.644 9.542 6.757 14.659 1.203 5.132 1.354 10.655 1.354 16.663 0 2.919-0.047 5.945-0.047 9.075 0 1.535 0 3.13 0 4.665 0 1.685 0 3.386 0.047 5.071v0.603c0 1.957-0.151 3.024-0.603 4.154-0.301 1.053-0.903 2.454-1.851 4.456-2.107 4.516-3.386 7.781-6.201 10.655-1.701 1.746-3.431 3.175-5.388 4.921-1.896 1.746-3.898 3.748-5.644 6.516-2.303 3.537-5.177 7.284-8.053 9.949-2.724 2.559-6.667 4.77-10.309 8.503-4.966 5.282-8.098 10.61-12.717 13.741-6.712 4.77-16.969 7.842-25.788 9.377v0c-7.435 1.354-15.327 0.753-23.987 2.198-4.004 0.603-8.203 0.753-12.763 1.535v0c-3.491 0.603-5.84 1.203-8.053 1.203-0.903 0-1.685-0.107-2.62-0.301-3.175-0.603-6.156-0.903-8.714-1.354-2.559-0.603-4.62-1.203-6.262-2.514l-1.053-1.203c-0.603-0.603-1.354-1.535-2.62-2.303-1.746-1.053-3.476-1.354-4.71-1.505-1.203-0.151-2.002-0.151-2.559-0.301-1.746-0.452-4.966-2.002-7.736-3.793-2.814-1.746-5.328-4.004-5.84-4.876-1.505-2.258-2.454-4.516-3.838-7.028-1.354-2.514-2.979-5.237-5.644-7.797v0c-2.258-2.198-3.476-3.326-4.2-5.026-0.603-1.64-1.053-4.004-1.354-6.667-0.301-2.62-0.452-5.478-1.053-8.307-1.053-5.328-1.957-11.484-1.957-17.223 0-3.085 0.301-6.051 0.753-8.714 0.603-3.175 1.053-6.561 2.092-9.181 0.452-1.354 1.053-2.409 1.595-3.175 0.603-0.753 1.203-1.203 2.002-1.64v0c2.363-1.053 4.56-2.107 6.923-3.326 4.876-2.514 8.925-5.644 12.823-7.435v0c4.665-2.213 9.181-3.085 14.252-3.085 1.535 0 3.13 0.109 4.77 0.301l18.249 1.685-15.837-9.226c-8.879-5.177-19.943-7.375-30.505-7.435-3.898 0-7.691 0.301-11.333 0.903-6.156 1.053-9.949 3.22-14.403 5.282v0c-1.203 0.603-2.107 0.903-3.386 1.505-1.203 0.603-2.665 1.535-3.898 2.874-2.874 3.085-5.84 6.667-7.586 11.183-1.505 3.748-3.748 8.098-4.981 12.973-2.153 8.608-2.814 17.939-3.898 26.042-0.903 6.456-1.685 12.657-1.685 19.428l0.049 2.107c0.105 4.77 0.903 9.377 1.851 13.636 0.603 2.874 0.603 6.712 1.64 10.776 1.053 4.411 3.281 7.947 5.945 10.655 4.004 4.2 8.925 6.667 13.591 8.925 4.71 2.198 9.181 4.2 12.552 6.817 9.844 7.54 22.554 10.248 32.706 13.681 7.329 2.469 15.228 5.539 23.378 7.239 3.943 0.753 8.098 1.053 12.356 1.053 6.156 0 12.356-0.603 17.533-1.053 14.192-1.354 27.475-4.411 40.956-7.947z"></path>
    <path fill="#000000" d="M454.22 863.984c2.002 0.452 5.237 1.746 8.864 1.836l0.753-0.049c0.903 0.603 2.107 1.505 3.687 2.559l6.456 4.665v-7.947c0-4.981-0.301-9.542-1.354-14.553-0.452-2.409-0.603-5.026-0.603-7.736 0-4.411 0.452-9.075 0.452-13.845v-1.505c-0.301-8.925-3.491-16.152-4.411-23.071-0.903-6.307-2.107-12.145-6.156-18.201-3.687-5.478-6.456-13.32-13.531-18.863v0c-2.724-2.153-6.006-3.748-9.949-3.898-0.903-0.047-2.409-0.151-3.898-0.151-0.753 0-1.58 0-2.454 0.151-1.701 0.301-2.814 0.903-3.491 1.203l-0.753 0.301h-0.151l-12.039-1.746 8.608 8.608c0.301 0.301 1.053 1.505 1.791 2.814 0.753 1.354 1.505 2.979 2.559 4.516 0.603 0.903 1.203 1.505 1.535 1.896l0.603 0.753c0.603 0.753 0.903 3.024 1.64 5.539 2.874 9.12 6.411 18.354 7.179 26.966 0.603 6.862 2.514 13.079 3.175 18.912 0.107 0.753 0.151 1.685 0.151 2.559 0 2.107-0.151 4.456-0.151 7.073 0 1.505 0.052 3.13 0.301 4.876l0.107 0.603 0.301 0.603c0.452 1.053 0.753 2.047 0.903 3.13-0.052 1.354-0.105 2.665-0.151 3.943l-0.052 0.753 0.301 0.753c0.603 1.685 1.595 3.431 3.597 4.725 0.903 0.603 1.203 0.603 1.851 0.903 1.64 0.603 3.687 1.053 4.411 1.203z"></path>
    <path fill="#000000" d="M646.327 798.497l-1.896-4.501c-4.049-6.712-10.52-11.333-15.482-17.23-2.153-2.514-3.13-5.689-5.433-8.098-2.979-3.070-6.667-5.945-9.783-8.864-13.486-12.763-28.191-23.532-42.75-35.323-11.589-9.377-24.25-16.099-37.883-21.992-20.097 9.738-19.533 12.25-18.663 15.382 1.64 5.795 5.584 7.992 9.437 12.401 3.13 3.582 7.284 6.006 10.761 9.331 3.537 3.386 7.028 6.561 10.776 9.648 8.563 7.073 16.453 14.101 25.888 19.936 8.608 5.388 17.017 11.845 24.402 19.024 7.013 6.862 14.719 12.25 22.502 18.147 5.388 4.094 12.401 9.12 18.863 11.333 3.898 1.354 4.004-0.753 5.237-4.305 1.354-3.943 1.64-7.586 2.724-11.378 0.301-1.354 1.505-1.685 1.354-3.491z"></path>
    <path fill="#000000" d="M647.363 570.006c-5.795 0.753-11.589 0.151-17.324 1.053-6.667 1.053-13.335 2.047-20.049 2.62-8.457 0.753-16.761 0.301-25.272 1.203-8.503 0.903-18.863 2.318-27.013 5.071-4.004 1.354-16.301 4.2-17.171 9.331 3.13 3.235-0.301 15.991 7.736 17.069 6.411 0.903 13.425-1.053 19.787-1.595 10.926-0.903 21.635-3.175 32.551-3.115 30.193 0.151 60.134 1.64 89.967 6.096 11.017 1.64 22.044 2.919 33.067 4.77 6.817 1.203 13.741 1.64 20.557 2.724 3.281 0.603 6.817 2.002 10.099 1.791 1.053-8.098 0-17.786-2.258-25.58-1.701-5.795-6.006-5.9-11.635-6.862-19.173-3.326-36.296-15.79-56.338-15.482-12.205 0.151-24.656-0.903-36.704 0.753z"></path>
    <path fill="#000000" d="M674.383 366.743c-5.84 2.769-11.635 5.478-17.426 8.352-14.403 7.284-28.709 14.448-42.81 22.194-6.757 3.702-12.958 7.902-18.863 12.868-5.222 4.411-9.693 9.633-15.069 13.845-7.028 5.433-14.147 10.203-20.609 16.353-5.945 5.689-12.657 9.844-18.966 15.021-6.712 5.584-10.655 13.23-16.15 19.943-3.838 4.77-7.54 9.331-10.866 14.508-5.991 9.331-9.633 18.507-9.587 29.579-2.198 5.177 3.024 5.388 8.518 3.793 5.328-1.595 6.352-2.469 7.179-7.646 0.452-2.62 0.903-6.096 2.047-8.457 0.903-1.942 2.814-3.687 4.154-5.328 4.049-5.071 7.842-10.203 12.205-14.975 6.516-7.179 14.041-13.741 22.145-19.119 15.221-10.203 29.525-21.737 45.215-31.219 13.019-7.947 24.656-17.533 37.419-25.835 11.635-7.586 23.994-12.461 36.042-19.071 4.26-2.409 8.653-3.943 13.32-5.388 5.388-1.685 9.181-4.26 14.101-6.862 7.329-3.898 15.534-6.772 23.122-10.248 2.874-1.354 8.518-1.64 8.457-5.328-0.107-9.587-14.719-10.099-20.865-10.158-9.633-0.049-18.966 2.409-27.991 5.493-5.132 1.746-9.798 5.373-14.719 7.691z"></path>
    <path fill="#000000" d="M426.186 523.698c1.942-6.968 1.203-14.252 1.203-21.476-0.052-9.587 1.595-18.816 1.535-28.453-0.052-12.506 0.903-25.018 1.896-37.528 0.603-8.457 0.452-17.377 2.002-25.728 1.354-7.224 4.049-14.358 6.156-21.383 3.687-12.295 9.783-24.556 16.761-35.216 6.621-10.203 11.183-21.324 17.123-31.937 4.921-8.668 12.1-16.099 16.455-24.966 3.235-6.561 4.56-12.717 6.621-19.587 1.053-3.687 2.153-6.516-0.301-9.527-2.814-3.537-6.968-5.282-11.017-6.621-6.006-2.002-12.25-3.13-18.711-2.409-3.386 0.301-6.621 1.64-9.904 2.363-5.237 1.203-7.736 2.002-10.655 6.983-3.793 6.307-8.864 12.356-11.183 19.428-6.516 19.941-10.399 40.855-15.429 61.314-2.303 9.482-3.537 19.272-4.981 28.908-2.559 17.638-5.117 35.27-7.224 53.010-2.814 23.681-2.363 47.418-2.469 71.204-0.047 7.028 0.151 13.425 1.203 20.249 0.052 0.603 0.105 0.903 0.151 1.505 1.746 0 3.386 0.109 4.35 0.109 5.388 0.052 10.821 0.603 16.204-0.151z"></path>
    <path fill="#000000" d="M343.374 753.797c-3.838 0-7.013 0.603-10.505 2.303-5.433 2.769-11.89 10.158-14.764 15.588-4.501 8.503-7.073 17.941-10.715 26.653-2.092 5.026-7.224 12.657-2.769 17.431 5.478 5.84 14.915 0.452 21.737 0 6.456-0.452 15.837-2.047 21.019-6.606 2.514-2.213 2.62-5.84 3.386-8.97 1.595-6.516 3.326-12.913 5.071-19.381 1.354-4.966 2.198-10.203 4.966-14.659 2.107-3.281 4.876-6.817 5.478-10.821-14.448 0.603-19.066-1.535-22.916-1.535z"></path>
    <path fill="#000000" d="M252.683 697.167c-3.281 0.903-6.262 0.753-9.693 0.753-2.919 0-5.991-0.903-7.224 2.258-0.753 1.791-0.107 5.071-0.107 7.028 0 4.411-1.354 10.972 2.454 14.041 3.748 3.024 13.845 1.942 18.145 1.535 3.491-0.301 6.561-1.535 10.099-1.64 2.198-0.049 5.071 0.603 7.119-0.109 4.516-1.505 8.925-7.224 10.158-11.529 1.203-4.456-0.107-9.904-1.957-14.659-5.689 0.052-11.333 0.151-17.070 1.203-4.094 0.603-7.947 0.052-11.95 1.203z"></path>
    <path fill="#000000" d="M290.365 577.791c-1.203 0.301-8.457 1.354-9.482 2.665-1.203 1.354-0.301 6.606-0.301 8.098 0.052 5.328 1.354 12.657 3.431 17.585 2.814 6.516 5.026 13.636 9.030 19.479 1.354 2.047 1.64 2.258 3.943 2.514 2.559 0.301 5.795-1.505 8.518-1.535 1.354-0.049 3.431 0.603 4.71 0.151 1.595-0.603 1.957-1.896 3.235-2.859 2.409-1.746 3.748-1.053 4.305-4.981l6.201-3.070c0.603-4.56-3.898-9.798-6.307-13.275-4.154-5.9-7.586-11.89-12.295-17.324-4.71-5.493-7.435-9.542-15.021-7.435z"></path>
    </svg>