<svg xmlns="http://www.w3.org/2000/svg" viewBox="11.379 -47.995 1008.534 1122.117">
    <path fill="#000000" d="M833.588 645.354c-0.147 20.148-2.882 40.258-8.13 60.406-0.685 5.289-1.404 10.616-2.124 15.904-9.978 42.061-29.286 78.717-57.845 109.923-22.833 35.213-53.040 62.971-90.737 83.282-37.093 23.634-77.193 36.413-120.213 38.378-42.943 9.614-85.929 7.691-128.91-5.772-62.894-23.313-96.784-36.211-144.931-84.4-46.51-46.549-46.429-55.524-67.059-104.433-20.269-38.54-29.524-80.040-27.841-124.589-1.684-14.423 0.232-28.841 5.73-43.179 7.25-53.841 4.649-62.774 38.495-120.658 13.942-23.797 31.288-46.189 50.875-65.78 19.549-19.549 41.5-38.014 65.974-50.955 50.433-29.244 104.839-43.949 163.203-44.146 28.644 3.888 57.284 7.734 85.929 11.579 54.801 15.34 102.309 43.063 142.691 83.124 16.825 21.831 33.689 43.624 50.553 65.455 12.62 19.83 22.071 40.54 28.482 62.093 11.335 33.167 17.065 67.858 17.142 104.112-0.398 3.207-0.84 6.45-1.285 9.657zM939.425 666.102c-0.29-1.561-1.884-3.083-2.441-4.604-0.604-1.684-0.565-3.006-1.443-4.608-1.722-3.207-4.967-5.648-7.25-8.415-3.606-4.484-6.65-6.848-11.579-9.652-2.882-1.644-5.768-3.207-8.689-4.724-2.286-1.24-3.207-1.002-5.528-1.561-5.73-1.403-5.97-5.49-8.295-10.097-1.602-3.087-2.805-4.047-3.207-7.65-0.254-2.081 0.11-4.368 0.11-6.492-0.033-5.37 0.329-7.050 4.89-10.535 4.244-3.242 8.492-6.329 11.417-10.937 5.447-8.61 11.819-16.384 16.024-25.836 8.093-18.268 14.74-40.982 5.73-60.128-2.004-4.248-5.207-8.132-7.691-12.059-1.602-2.524-4.89-8.612-7.73-10.534-1.323-0.88-3.246-1.045-4.728-1.803-0.638-0.33-1.238-0.721-1.884-1.165 0.843 3.087 0.723 6.69 0.723 9.737 0 3.764 0.921 9.173-1.764 12.419-2.008 2.441-5.892 3.366-8.774 4.124-0.402-1.644 0.11-3.246-0.18-4.929-0.642-3.122-3.207-5.807-4.848-8.49-1.524-2.488-3.006-7.374-5.648-8.693-2.004-1.045-5.768-0.724-7.973-1.482-6.248-2.124-12.295-7.29-16.303-12.418-4.364-5.61-10.372-14.783-12.094-21.87-1.961-8.012-5.447-15.545-7.854-23.595-2.081-6.971-1.319-14.063-1.443-21.232-0.074-4.809 0.925-9.254 3.768-13.018 3.726-4.968 7.006-7.935 8.090-14.26 0.963-5.73 2.043-11.374 3.006-17.108 1.238-7.211 0.599-13.819-2.608-20.268-2.081-4.205-3.644-9.091-6.488-12.86-1.926-2.56-4.17-4.809-6.092-7.41-3.327-4.53-5.807-7.931-5.73-13.66 0.036-2.723 0.6-4.085 1.482-6.488 1.122-2.967 1.803-6.41 3.045-9.293 1.683-3.969 5.289-4.848 9.091-5.931 4.244-1.198 8.010-1.922 12.214-0.058 3.006 1.323 9.297 8.414 11.9 7.973 2.283-5.85-1.285-15.343-3.165-20.872-2.162-6.287-6.81-10.256-13.22-12.14-5.010-1.439-10.136-3.807-15.266-4.646-5.447-0.883-11.974-0.641-17.425 0.058-12.097 1.644-22.396 4.325-31.29 13.258-6.569 6.65-11.896 15.224-13.896 24.238-0.925 4.167-1.045 8.61-2.488 12.697-2.244 6.406-6.886 12.74-11.134 17.947-6.488 7.931-13.018 10.736-23.193 8.933-8.13-1.442-19.108-10.218-23.394-16.949-2.723-4.364-4.526-10.976-3.083-16.105 1.201-4.287 5.207-6.971 7.25-10.856 3.644-6.89 6.047-15.181 4.565-23.034-1.118-6.047-4.766-10.976-7.13-16.504-1.763-4.085-1.922-7.97-1.763-12.38 0.058-3.002 0.4-4.964-1.201-7.571-3.006-4.886-8.852-7.331-12.299-11.935-5.49-7.455-1.403-13.223-1.442-21.471-0.058-9.053-5.327-13.061-10.496-19.908-4.685-6.252-8.894-11.819-14.86-16.906-5.807-4.925-11.857-10.093-17.866-14.782-6.45-5.049-13.78-8.852-20.349-13.78-4.29-3.242-8.372-6.608-12.338-10.094 2.485 6.368 4.124 13.378 4.205 14.86 0.327 4.244-1.24 8.055-1.442 12.26-0.116 3.846 0.030 7.77 0.030 11.614 0 6.492 1.363 14.222-0.48 20.512-0.757 3.327-2.524 5.888-5.327 7.73-1.042 0.397-2.081 0.877-3.087 1.442-1.558 2.044 0.641 3.285-1.883 5.409-1.32 1.118-7.049 3.083-8.971 3.486-5.97 1.281-11.134-6.171-13.777-10.415-1.284-2.041-1.72-4.167-2.444-6.65-1.118-3.884-3.203-7.53-3.606-11.575-0.599-6.33 0.566-12.14-0.959-18.388-1.165-4.77-3.687-11.858-1.002-16.628-1.886-1.079-6.809 2.726-8.53 3.85-2.925 1.922-7.892 7.85-8.894 11.177-0.566 1.961-0.030 3.846-0.116 5.85-0.174 3.687-1.482 7.13-1.684 10.856-0.174 4.004 0.559 6.531-1.684 10.295-1.644 2.802-4.488 4.407-5.61 7.53-0.724 1.886-0.403 4.004-1.165 5.927-1.403 3.644-4.407 5.687-7.65 7.691-6.851 4.248-13.622 10.894-21.711 12.217-6.93 1.121-13.981 1.842-21.030 1.803-6.167 0-13.982 1.723-18.028-4.167-1.085-1.601-1.284-3.486-2.124-5.13-2.044-3.884-6.33-7.37-9.331-10.415-3.687-3.644-9.014-6.766-10.295-12.136-0.84-3.606 0-8.012 0-11.66 0.030-10.457 1.165-20.47 1.601-30.845 0.48-10.894 1.079-23.193-2.967-33.57-4.001-10.213-12.416-16.902-18.463-25.638-2.485-3.687-4.484-7.49-7.61-10.697-4.65-4.805-10.654-7.77-16.585-10.697-5.25-2.604-11.618-3.846-16.589-6.766-2.604-1.565-2.283-1.803-3.323-4.368-0.764-1.723-1.243-5.25-2.925-6.449 0.364 6.527 0 11.417 2.163 17.704 1.363 4.089 2.081 7.892 4.329 11.699 2.441 4.167 4.244 7.211 4.364 12.299 0.116 8.813-0.4 16.144-5.888 23.193-4.569 5.888-7.973 10.771-14.020 15.34-4.488 3.366-5.528 7.25-8.534 11.614-1.922 2.765-4.484 5.087-6.612 7.772-5.324 6.608-8.21 13.819-12.094 21.232-4.209 7.97-8.732 13.258-7.37 22.791 1.281 9.173 2.005 19.669 5.687 28.242 1.323 2.967 3.567 4.809 5.13 7.53 1.525 2.646 2.441 5.529 4.047 8.252 4.244 7.17 6.531 14.74 8.13 22.872 0.963 4.89 1.723 6.81-1.763 10.654-2.643 2.885-5.807 5.447-9.053 7.61-5.006 3.366-8.972 6.65-12.98 11.219-1.281 1.479-1.684 2.243-3.366 3.28-3.764 2.488-7.61 1.165-11.494 2.047-3.606 0.84-8.972 1.684-10.894 4.724-1.323 2.124-2.005 8.213-2.604 10.457-1.204 4.325-1.561 8.175-1.561 12.577 0 7.571 1.763 13.9 4.484 20.713-3.207 1.042-7.29-6.65-8.813-8.453-4.004-4.727-8.449-8.813-12.136-13.823-8.012-10.937-7.292-22.35-7.695-35.171-0.116-3.969 0.116-4.089-3.002-6.171-2.444-1.601-5.010-3.725-7.695-4.929-4.565-2.081-11.215-1.76-15.943-2.243-5.767-0.638-11.494-1.684-17.263-2.163 10.894 4.244 13.058 21.592 13.539 31.809 0.232 4.685 0.030 9.331-0.88 13.939-1.042 5.327-3.807 10.055-5.009 15.305-1.042 4.445 0 9.374-0.116 13.943-0.174 5.25-3.005 9.614-3.284 14.74-0.205 4.205 1.284 8.051-0.519 12.179-3.207 7.41-13.62 13.219-19.47 18.346-8.731 7.65-19.59 15.904-31.528 10.333-6.37-2.963-10.496-7.29-17.625-9.091-7.65-1.886-16.144-2.521-23.673 0.263-6.89 2.56-12.74 7.211-18.467 11.695-5.567 4.325-11.457 8.612-12.86 15.986-1.042 5.409-1.284 15.626 0.116 20.91 2.163-1.323 3.687-6.612 5.567-8.933 3.645-4.53 8.534-6.65 13.822-3.285 10.894 6.971 16.625 20.748 16.783 33.047 0.116 6.77-0.761 8.813-6.649 12.418-7.211 4.445-13.178 8.732-19.028 14.941-6.21 6.612-9.495 13.981-10.736 22.996-0.999 7.49 3.524 10.654 6.409 16.705 1.842 3.726 1.082 8.132 1.121 12.179 0.030 5.61 0.682 10.976-3.524 15.305-9.813 10.132-23.995 13.657-37.413 13.618-5.447 0-6.010 0.963-9.534-2.888-3.327-3.521-3.327-6.608-5.447-10.573-1.482 3.122 1.403 9.533 2.005 12.86 1.201 6.77 1.323 13.777 2.607 20.508 0.88 4.569 3.446 6.81 5.409 10.654 2.524 5.13 2.322 11.614 5.769 16.345 1.525 2.081 3.606 2.967 5.249 4.929 1.359 1.601 2.203 4.085 3.005 6.008 2.966 7.211 2.765 14.461 3.726 22.032 0.84 6.65 3.644 13.981 1.763 20.632-2.124 7.331-5.25 13.018-5.61 20.829-0.321 7.575 0.089 15.266 0.089 22.876 0 6.65-1.961 16.345 1.644 22.191 2.966 4.77 7.851 7.412 12.217 10.577 4.086 3.006 7.89 6.372 11.976 9.374 8.971 6.612 18.947 11.421 27.12 19.189 5.009 4.728 7.971 11.738 10.534 18.028 0.638 1.525 1.359 6.008 2.441 9.331-4.168-2.921-12.337-4.805-14.822-5.73-6.21-2.243-12.98-3.927-19.47-5.25-1.561-0.44-3.164-0.559-4.726-0.397-1.522 0.116-2.966 0.599-4.245 1.403-3.087-0.29-2.203-2.163-4.288-4.047-0.519 2.044 2.005 5.447 2.765 7.211 2.044 4.484 3.446 9.134 5.009 13.819 3.606 10.616 9.856 17.549 16.707 26.28 6.529 8.25 14.38 11.776 24.317 14.783 4.125 1.243 8.452 1.121 12.577 2.322 4.687 1.363 8.092 3.644 11.659 6.851 4.168 3.764 8.533 7.37 12.499 11.336 3.807 3.807 6.37 8.654 10.174 12.418 4.206 4.085 9.134 6.57 12.298 11.738 2.203 3.606 2.005 7.73 4.005 11.215 1.684 3.006 5.249 4.689 8.053 6.368 4.567 2.686 9.212 5.61 13.981 7.892 10.135 4.89 21.911 5.807 31.486 11.695 6.81 4.17 13.579 8.655 20.709 12.26 3.006 1.525 6.252 2.322 9.254 3.725 3.447 1.565 5.97 4.085 9.575 5.37 12.055 4.41 28.199 0.963 38.614 9.134 3.567 2.805 5.61 6.21 6.492 10.616 0.682 3.567 0.147 5.648 2.485 8.213 4.65 5.006 14.902 6.608 21.27 7.65 7.25 1.165 17.309 4.77 24.516 3.726 2.881-0.44 5.323-1.442 8.329-1.565 3.807-0.147 8.055 0.926 11.738-0.147 0.519-4.929 15.421-2.888 18.907-3.567 3.126-0.599 5.447-1.442 8.813-0.757 4.809 0.999 7.41 4.604 11.177 7.331 3.165 2.283 6.051 3.447 9.657 4.685 5.97 2.127 10.492 5.811 15.982 8.774 6.732 3.644 9.695 0.030 15.703-3.606 5.687-3.404 6.89-9.974 12.74-12.62 3.846-1.72 6.57-4.407 10.256-6.248 3.606-1.803 7.89-1.442 11.777-1.403 6.971 0.116 12.941-0.559 19.549-1.442 6.090-0.801 8.453-2.163 13.022-6.008 6.047-5.049 11.575-6.65 19.468-6.21 7.815 0.403 12.26 8.333 17.587 13.463 2.925 2.802 0.263 1.601 5.768 2.163 5.567 0.599 12.979 3.045 18.106 0.29 3.447-1.803 3.644-2.643 4.608-6.248 0.801-2.848 1.039-5.807 1.883-8.654 1.601-5.529 5.807-10.337 11.417-12.020 3.366-0.999 7.772-1.723 11.177-1.042 2.286 0.44 3.606 2.203 5.49 2.762 3.69 1.165 7.412-2.203 10.295-4.364 1.284-0.923 3.486-2.081 4.689-3.087 0.174-0.364 0.364-0.718 0.519-1.121 3.524-5.045 7.931-9.173 8.732-4.843 0.4-0.058 0.84-0.205 1.24-0.29 0.147-2.607 1.558-2.726 2.921-4.488 2.124-2.802 3.285-5.807 6.012-8.414 7.37-7.049 13.858-15.34 20.11-23.232 8.13-10.256 22.35-17.707 34.65-21.27 5.25-1.525 10.376-4.17 15.545-6.051 2.081-0.801 4.167-1.558 6.128-2.679 2.004-1.121 4.848-2.005 6.65-3.327 3.447-2.643 5.687-7.211 9.173-10.051 2.522-2.087 3.327-4.41 5.289-6.77 1.482-1.803 4.724-2.805 5.85-4.809 1.722-3.164 0.074-9.451-0.843-12.179-0.638-1.842-1.079-5.447-2.244-6.971-1.323-1.717-3.246-1.677-4.604-3.204-2.368-2.686-5.25-8.693-4.248-12.299 0.724-2.607 4.689-6.090 6.45-7.935 3.045-3.161 6.69-6.090 10.376-8.449 2.162-1.363 4.646-1.442 6.728-2.646 3.404-1.922 5.931-4.004 9.575-5.567 11.854-5.25 16.345-20.949 20.949-32.13 2.646-6.368 2.205-12.094 2.205-18.907 0-1.922 0.519-4.368 0.11-6.21-0.685-3.401-3.567-6.929-4.53-10.132-0.72-2.243-1.722-5.807-1.764-8.213-0.033-3.884 2.441-4.886 4.728-7.61 1.644-1.961 3.083-3.927 4.886-5.687 2.325-2.322 4.967-2.967 8.093-4.124 3.486-1.284 6.971-3.93 10.415-5.010 3.524-1.121 7.931-0.29 11.575-0.327 6.65-0.030 7.37 2.2 10.856 7.451 0.882-0.48 2.445-0.883 3.246-1.482 1.404-1.121 2.321-2.885 3.927-4.124 3.644-2.805 5.409-4.29 6.171-9.134 0.329-2.368 0.839-2.325 1.478-4.089 0.685-2.005 1.722-0.999 1.242-3.764z"></path>
    </svg>