<svg xmlns="http://www.w3.org/2000/svg" viewBox="-48.248 -48.000 1109.268 1120.816">
    <path fill="#000000" d="M980.144 507.961c0.106-5.895-2.317-11.951-4.12-17.594-4.106-12.787-8.183-25.442-13.696-37.733-4.736-10.616-8.52-22.358-15.017-31.98-6.922-10.25-12.479-21.245-19.703-31.353-3.431-4.78-6.892-9.473-10.704-13.974-5.059-5.968-8.593-11.555-12.699-17.977-6.071-9.458-14.728-17.19-21.504-26.154-5.030-6.657-10.485-12.64-16.006-18.707-6.085-6.672-13.52-12.934-18.577-20.423-2.669-3.959-4.414-6.657-7.801-10.163-2.42-2.508-2.948-6.364-5.030-8.637-2.155-2.376-3.652-2.713-5.25-5.484-1.173-2.009-2.347-4.268-3.71-6.335-7.538-11.408-14.283-23.435-22.047-34.883-8.329-12.274-17.283-23.393-27.055-34.618-4.634-5.337-9.942-9.503-14.341-15.142-3.27-4.179-6.482-8.403-9.708-12.611-9.898-12.89-22.084-21.535-35.875-30.196-29.73-18.67-55.885-41.882-84.907-61.9-9.253-6.394-16.895-13.74-26.31-20.062-9.561-6.408-18.752-13.212-27.939-20.035-5.367 4.913-11.717 8.050-17.346 12.611-5.147 4.179-9.547 9.253-14.444 13.711-14.634 13.314-28.457 25.239-38.208 42.829-3.343 6.041-7.757 14.356-12.068 19.724-2.405 3.007-6.599 4.824-4.517 8.931 0.587 1.027 2.288 1.819 3.109 2.786 2.508 2.903 3.46 5.162 6.613 7.743 5.352 4.356 10.852 10.294 17.319 12.831 6.262-5.91 12.332-11.086 19.188-16.343 6.599-5.059 10.69-12.464 15.261-19.253 2.992-4.429 6.379-8.534 9.37-12.948 2.771-4.091 4.135-8.359 7.244-12.274 5.381-6.789 6.306-3.842 12.464 0.146 1.789 1.173 3.681 1.921 5.44 3.094 2.639 1.745 5.763 3.358 8.079 5.528 1.027 1.95 2.273 3.783 3.652 5.513 1.173 1.173 2.683 1.819 4.326 2.126 3.358 2.009 7.302 3.842 8.446 7.478 1.51 4.809 2.332 9.443 2.288 14.59-0.106 12.113-1.32 23.921-3.285 35.933-0.879 5.279-1.877 10.558-2.844 15.825-0.587 3.168-2.859 9.004-2.933 12.053-0.104 4.106 4.268 5.895 7.288 8.183 6.452 4.868 13.066 9.062 20.070 13.124 14.078 8.153 27.93 15.308 40.128 26.16 13.477 12.009 26.823 23.87 39.44 36.765 7.302 7.464 15.38 13.725 22.435 21.504 17.469 19.266 31.696 41.245 49.879 59.932 17.532 18.011 34.504 35.571 50.976 54.56 6.438 7.244 13.095 14.268 19.962 21.116 6.452 7.567 12.655 15.338 18.546 23.347 8.564 10.969 15.261 21.789 22.456 33.564 6.277 10.265 11.203 20.992 16.575 31.751 7.992 16.053 15.209 30.935 20.352 48.183 7.244 24.308 15.353 47.856 20.604 72.723 4.809 22.839 7.801 45.911 13.168 68.663-0.146-6.599-1.466-12.919-1.906-19.487-1.027-14.473 1.32-29.414 1.731-43.944 0.587-19.368 6.643-38.251 7.552-57.427 0.44-9.253 2.464-18.333 3.387-27.568 0.879-8.695 0.44-17.371 1.32-26.093 0.879-8.079 0.879-15.963 0.879-24.069 0.052-3.109 0.879-6.804 0.293-9.825-0.104-3.725-2.024-5.308-5.748-4.765-7.449-1.583-15.007-2.434-22.673-2.522z"></path>
    <path fill="#000000" d="M473.648 147.775c2.303 0.293 4.722 4.883 6.613 6.423 1.921 1.583 3.285 3.241 5.015 4.839 4.458 4.091 10.499 7.538 12.846 13.55 2.654 6.804 0.293 18.666-1.539 25.835-1.672 6.452-1.906 12.494-3.71 19.125-2.713 9.957-4.076 20.363-4.164 30.651-0.042 4.868-1.687 9.194-2.024 14.004-0.44 5.69 0.106 11.585 0.106 17.288v31.028c0.010 13.843 1.921 27.236 1.877 41.022-0.050 16.797 1.554 33.368 1.833 50.107 0.104 7.449 1.32 14.759 1.76 22.183 0.44 8.681-0.106 17.314 0.587 25.995 1.466 17.946 1.466 35.714 1.466 53.702v20.168c0 9.576 1.32 20.465-0.44 29.959-1.877 10.455-1.466 20.676-1.466 31.374 0 22.612-0.106 44.354-3.988 66.495-1.466 8.227-2.815 17.107-5.235 25.043-5.074 16.703-16.869 32.658-28.317 45.709-13.55 15.468-26.832 34.066-44.106 45.721-8.857 5.968-19.399 10.030-29.097 14.444-14.224 6.467-29.916 8.945-44.701 13.989-12.024 4.106-24.66 6.467-36.583 10.66-9.796 3.446-19.378 8.505-28.949 12.684-8.887 3.886-16.491 9.62-25.285 13.579-13.183 5.939-26.963 11.057-40.351 16.508-12.684 5.176-23.987 12.215-36.268 18.034-7.874 3.74-15.494 6.129-22.851 11.071-6.995 4.692-14.561 8.446-22.373 11.687-9.004 3.725-16.218 8.065-24.205 13.784-5.367 3.842-10.881 6.438-15.364 11.468-3.769 4.223-6.922 8.549-9.942 13.197-2.83 4.356-7.64 10.954-11.951 13.696-7.054 4.473-20.205 2.742-24.902-3.696-2.185-2.992-2.888-5.734-3.211-9.15-0.879-8.843-2.977-17.288-1.76-26.243 0.733-5.308 1.173-11.512 3.827-16.249 3.475-6.291 8.109-11.717 12.391-17.444 13.55-18.167 32.398-24.473 52.181-33.82 13.74-6.511 27.241-12.919 41.287-18.634 15.771-6.379 30.344-14.122 46.473-19.673 9.62-3.299 19.204-7.112 28.613-10.998 8.71-3.593 15.793-8.315 24.163-12.464 18.079-8.989 37.84-14.935 56.48-22.616 9.517-3.915 19.12-7.874 29.042-10.631 23.445-6.511 46.372-20.207 65.066-35.59 19.824-16.316 31.618-40.476 39.503-64.405 2.888-8.783 3.475-18.396 6.056-27.324 3.402-11.775 5.001-24.521 5.617-36.724 0.879-16.326 3.548-32.32 3.798-48.756 0.293-20.181 0.879-40.758-1.466-60.82-4.502-38.787-6.379-77.824-10.852-116.597-6.114-53.138-8.256-106.363-3.197-159.594 1.173-12.098 1.628-22.255 13.55-28.68 4.765-2.581 8.975-4.663 13.945-6.394 3.109-1.027 14.708-5.484 14.18-8.534z"></path>
    <path fill="#000000" d="M415.491 590.503c2.273 0.44 6.599 6.35 7.361 8.593 1.173 3.358 0.052 8.446 0.146 12.024 0.106 4.795-0.44 5.513-4.853 7.273-4.223 1.701-7.538 2.082-12.039 2.111-4.443 0.031-7.992-1.539-12.347-1.819-5.352-0.293-11.027-2.786-16.255-4.223-12.024-3.285-23.212-8.359-35.114-12.245-17.031-5.558-34.178-11.834-48.498-23.031-6.54-5.103-9.737-9.326-11.673-17.438-1.32-5.748-3.769-14.458-1.877-20.319 1.027-3.124 4.076-6.32 6.643-8.168 1.466-1.027 3.182-1.906 4.707-2.801 3.138-1.848 2.933-1.598 6.467-1.027 15.7 2.874 31.768 11.408 46.073 18.58 12.186 6.129 26.469 11.819 37.121 20.319 4.106 3.27 6.774 8.109 9.825 12.259 2.405 3.285 6.892 7.538 24.329 9.854z"></path>
    <path fill="#000000" d="M169.749 885.023c8.123 2.933 14.297 9.311 22 13.183 8.109 4.076 16.823 7.054 24.94 11.159 11.086 5.602 21.763 12.098 32.306 18.338 8.329 4.942 13.886 10.25 14.546 20.197 0.293 3.74 2.786 6.482 1.965 10.353-0.44 2.303-1.745 3.783-2.038 6.277-0.293 3.050-0.036 5.602-0.879 8.666-1.173 4.502-1.027 8.71-2.361 13.124-1.95 6.496-4.282 5.661-10.763 5.631-12.743-0.044-27.599-2.141-38.384-9.311-7.596-5.045-16.503-7.552-24.371-12.215-3.901-2.317-7.787-3.27-11.848-5.059-3.959-1.745-7.156-5.323-10.734-7.655-5.089-3.299-9.81-7.405-14.107-11.731-2.155-2.199-4.385-4.326-6.54-6.525-3.373-3.46-5.089-7.552-7.962-11.393-2.903-3.886-8.637-9.443-7.127-15.023 1.32-4.853 4.604-9.062 8.461-12.23 5.103-4.193 7.904-5.513 14.122-6.599 3.065-0.587 5.631-1.173 8.681-1.643 2.888-0.293 5.001-1.848 7.831-2.288 0.104-0.587 0.293-1.027 2.243-5.264z"></path>
    </svg>