<svg xmlns="http://www.w3.org/2000/svg" viewBox="10.120 -14.296 1015.682 1047.240">
    <path fill="#000000" d="M874.151 793.213c-21.756 1.106-42.373-0.369-64.091-1.879-1.139-0.060-2.282-0.146-3.428-0.266 1.879-1.756 3.713-3.55 5.512-5.389 13.958-14.162 26.207-29.798 37.637-46.047 5.142 14.859 13.509 28.332 19.922 42.906 0.814 1.919 2.49 5.837 4.531 10.649 0 0-0.027 0-0.060 0zM351.464 814.784c-0.027-0.027-0.060-0.060-0.146-0.119 9.185-2.205 18.123-4.448 26.776-6.488 21.228-5.024 42.211-8.002 63.641-11.797 17.389-3.061 33.105-13.062 48.537-21.347 12.981-6.941 23.677-16.411 33.8-26.819 42.863 39.066 89.234 73.232 146.669 88.624 13.183 3.51 26.737 5.713 40.452 7.346-93.153 96.545-262.6 35.841-359.717-29.393zM166.109 748.74c5.917-12.858 10.574-26.287 15.715-39.515 3.143 11.349 6.204 22.738 10.776 33.633 1.183 2.819 2.49 5.674 3.797 8.533-10.085-0.78-20.164-1.391-30.288-2.656zM215.543 447.968c3.712-16.777 15.31-30.696 24.124-44.983 2.245-3.673 13.881-21.022 7.346-13.592 5.635-6.737 11.227-13.187 16.249-20.942 9.55-14.736 16.901-31.148 32.697-39.923 15.998-8.895 33.717-14.244 49.883-23.019 16.9-9.185 35.837-16.003 55.31-21.391-6.655 18.616-11.881 38.37-15.185 57.844-7.636 44.617-7.513 91.109-3.879 136.178 0.060 1.106 0.239 2.205 0.336 3.308-15.879 7.43-31.025 15.959-46.337 24.981-17.675 10.412-36.616 18.044-53.717 29.596-25.597 17.309-47.229 41.477-68.007 65.642-2.733-15.146-3.059-30.659-3.92-46.126-2.042-35.718-2.733-72.414 5.102-107.564zM502.682 169.207c4.861-6.857 10.126-13.062 15.515-19.35 17.349 17.23 32.002 35.392 45.145 54.862-14.046-1.106-28.043-0.977-41.389 0.902-5.186 0.692-10.614 3.058-15.801 6.407-9.061 1.020-18.33 2.245-27.84 3.836 6.778-16.288 13.834-31.838 24.37-46.659zM488.847 607.132c-9.312-15.922-19.838-31.025-27.066-48.088-7.143-16.857-11.266-35.392-14.939-53.639 18.778-6.33 37.474-12.083 57.557-12.167 24.735-0.119 48.372 4.412 71.846 11.881 15.84 5.059 32.128 11.551 48.167 19.021-6.124 22.694-13.834 44.577-22.857 64.658-8.287 18.452-21.594 33.066-35.024 47.842-8.736 9.673-15.308 20.903-22.904 31.474-20.45-18.452-40.698-37.064-54.778-60.985zM435.82 346.982c2.079-23.472 5.837-47.107 13.143-69.602 0.488-1.468 1.059-2.859 1.59-4.249 6.449-1.139 12.858-2.242 19.144-3.265 45.884-7.307 93.197-0.239 137.527 11.961 0.146 0.027 0.336 0.060 0.488 0.060 13.596 25.024 25.596 49.434 29.758 80.295 4.087 30.207 3.757 62.782-0.146 95.318-29.758-12.206-59.802-20.288-92.986-20.982-36.128-0.734-71.52 10.043-105.809 22.618-5.024-37.029-5.877-75.522-2.693-112.174zM290.796 768.927c-5.551-5.754-10.614-12.040-14.939-18.982-15.922-25.513-30.451-50.291-38.414-79.601-3.020-10.979-6.98-21.147-11.023-31.394 22.082-26.613 47.15-54.655 75.723-69.514 29.269-15.188 57.11-29.638 86.377-42.25 11.837 64.944 37.676 125.727 85.768 173.164 8.164 8.080 16.328 16.126 24.612 24.123-15.757 11.714-32.942 15.55-51.84 18.287-48.334 7.020-95.48 25.637-144.672 26.701-3.877 0.060-7.716-0.179-11.591-0.532zM760.355 787.741c-28.615-2.567-56.863-7.016-83.885-18.079-38.331-15.677-74.459-44.622-103.28-73.93-1.302-1.302-2.653-2.567-3.998-3.92 8.657-10.122 17.187-20.534 23.635-32.085 2.001-1.957 3.959-3.92 5.837-6 8.287-8.983 15.879-19.188 23.309-28.902 18.858-24.576 30.779-51.84 41.353-80.296 11.591 6.737 22.738 13.839 33.022 21.189 15.312 10.939 28.496 23.881 42.127 36.739 14.41 13.592 32.371 22.491 47.392 35.392 15.392 13.267 31.267 28.491 43.64 44.617 0.611 0.78 1.428 1.879 2.368 3.061-1.957 9.875-3.959 19.838-7.43 28.289-5.512 13.434-18.981 28.169-28.737 38.657-11.516 12.329-23.635 23.595-35.353 35.27zM811.343 437.666c15.678 32.617 27.84 67.843 38.37 102.708 6.202 20.534 5.797 41.063 2.49 61.473-3.998-3.713-7.795-7.143-11.266-10.324-26.085-23.677-55.271-43.271-81.272-66.827-21.757-19.755-49.759-34.042-77.234-46.861 3.387-18.861 5.713-37.966 7.837-56.050 4.121-34.944 5.024-68.824 0.78-103.764 20.327 12.735 38.164 28.777 56.454 44.74 25.473 22.205 49.148 44.292 63.844 74.907zM935.685 772.314c-14.327-35.511-29.595-68.78-37.024-106.055-1.512-7.553-5.024-15.185-9.677-22.653 1.428-6.493 2.942-12.981 4.535-19.474 11.349-45.963 24.167-86.090 7.918-132.707-15.101-43.266-25.922-89.313-53.353-126.506-23.797-32.204-57.637-62.129-89.643-86.987-29.067-22.575-66.699-37.803-102.457-50.458-4.861-8.895-9.677-17.877-14.002-27.224-17.393-37.517-43.312-71.274-72.866-100.46 7.632-12.572 9.716-24.778-0.977-26.982-34.861-7.104-59.274 34.535-78.58 57.15-25.187 29.472-44.907 60.989-60.211 96.298-17.882 4.734-35.27 10.324-50.903 16.817-17.838 7.346-33.717 18.207-51.638 25.473-18.778 7.593-35.186 17.349-51.232 29.719-14.736 11.428-25.513 24.695-35.963 40.047-6.081 8.899-11.592 18.287-17.717 27.145 0.146-0.617-10.9 13.716-12.942 16.777-19.837 29.635-42.904 62.947-48.089 98.868-6.653 45.717-7.183 89.477-3.594 135.603 1.183 15.105 3.471 29.23 7.672 43.192-6.407 8.899-12.165 18.246-17.143 28.407-10.203 20.78-15.389 57.642-31.637 73.847-5.714 5.714-26.042 35.635-7.391 40.082 22.818 5.388 43.106 4.328 66.131 7.143 24.45 2.982 48.168 11.718 72.538 15.638 59.559 56.824 140.304 95.727 219.782 114.541 19.632 4.654 38.534 10.697 58.822 12.127 18.33 1.262 36.615-1.594 54.822-2.737 17.917-1.139 38.494-4.571 55.557-10.122 18.409-6.004 32.78-19.108 49.271-28.658 28.531-16.615 48.33-38.129 67.803-62.499 15.471 0.858 30.897 1.59 46.047 2.899 18.778 1.631 37.104 0.060 55.883-0.532 15.515-0.488 34.495 1.066 49.311-3.796 16.575-5.389 30.452-21.145 36.128-37.351 4.936-14.248 0.179-23.27-5.186-36.576z"></path>
    </svg>