<svg xmlns="http://www.w3.org/2000/svg" viewBox="-27.362 189.753 1115.191 718.521">
    <path fill="#000000" d="M1000.008 277.031c-2.71 0.613-5.374 0.919-8.039 1.776-7.411 2.404-14.5 5.788-21.802 8.391-17.312 6.11-34.944 13.046-50.43 22.686-7.258 4.487-14.654 8.713-22.013 13.092-3.599 2.143-7.243 4.272-10.167 7.243-5.528 5.742-11.484 10.902-15.703 17.679-2.71 4.333-4.9 8.498-8.299 12.464-3.751 4.379-7.304 8.866-11.163 13.183-4.226 4.639-8.192 9.54-12.418 14.194-2.143 2.343-4.44 4.487-6.737 6.676-2.665 2.557-4.854 5.374-7.304 8.085-3.399 3.859-6.997 7.671-10.427 11.53-2.817 3.124-5.007 6.523-7.518 9.861-2.925 3.905-4.9 8.284-7.196 12.617-3.032 5.635-5.849 11.377-8.667 17.109-4.073 8.284-7.411 16.534-9.493 25.507-2.817 12.204-4.9 24.459-6.997 36.769-0.765 5.114-1.669 9.907-1.976 15.128-0.459 7.135-0.919 14.24-1.225 21.38-0.306 8.605-0.459 17.265-1.608 25.767-0.153 1.608 0.153 2.971 0.153 4.533 0 4.487-1.378 9.172-1.822 13.658-0.613 6.89 0.459 13.612 1.225 20.44 1.225 9.080 3.905 18.102 6.676 26.864 2.404 7.824 7.35 14.546 10.749 21.958 3.491 7.503 6.784 14.868 10.795 22.115 7.87 14.087 13.306 29.099 22.79 42.399 6.416 8.973 14.439 17.107 23.054 24.199 8.024 6.63 16.999 11.683 25.972 17.005 5.635 3.384 11.576 6.416 17.367 9.647 5.421 3.077 10.642 6.523 16.064 9.647 6.569 3.813 13.766 6.156 20.76 9.126 9.493 4.011 19.192 7.411 28.736 11.209 7.151 2.817 13.72 6.722 20.862 9.447 2.404 0.919 4.9 1.532 7.243 2.496 0.919 0.459 1.822 0.919 2.863 0.919-3.644-4.594-4.854-10.596-7.932-15.542-3.751-6.048-8.973-11.163-13.183-16.951-3.766-5.114-6.997-10.581-10.856-15.698-6.262-8.192-12.418-16.010-17.625-24.928-5.328-9.080-10.229-18.517-14.806-28.009-3.185-6.63-6.048-13.352-8.973-20.030-2.297-5.206-5.007-10.167-7.503-15.282-3.705-7.503-7.457-15.128-11.009-22.736-0.919-1.929-1.715-3.92-2.45-5.941-0.919-1.883-2.037-3.705-3.185-5.528-3.185-6.156-4.272-13.352-6.784-19.818-6.829-17.572-10.32-36.192-10.749-54.969-0.153-7.243 1.072-14.5 1.532-21.748 0.459-6.37 1.378-12.678 2.19-18.987 0.613-5.374 1.776-10.841 1.608-16.271-0.306-8.498 1.225-16.951 1.991-25.398 0.613-8.774 1.562-17.474 2.925-26.133 1.378-7.61 3.231-15.128 5.589-22.532 1.378-5.053 3.077-10.014 5.068-14.868 1.669-3.384 3.292-6.784 4.9-10.229 1.669-4.011 2.71-8.238 4.747-12.158 4.073-7.932 10.060-14.439 15.33-21.592 2.925-4.011 5.528-8.192 7.779-12.617 2.71-4.639 5.681-9.126 8.866-13.46 2.879-4.272 5.436-8.391 7.932-12.832 10.121-18.151 26.182-32.546 40.476-47.564 4.747-5.007 8.024-10.948 12.51-16.117 3.077-3.552 6.095-7.090 8.758-10.948 0.765-1.072 1.976-3.644 3.445-4.119 1.225-0.459 1.822 0 2.925-1.072z"></path>
    <path fill="#000000" d="M60.767 821.168c2.71-0.613 5.421-0.765 8.13-1.731 7.503-2.404 14.654-5.681 22.062-8.284 17.474-6.002 35.311-12.832 51.063-22.428 7.35-4.487 14.853-8.652 22.266-12.985 3.599-2.143 7.365-4.272 10.275-7.243 5.635-5.681 11.683-10.795 15.963-17.579 2.771-4.379 5.068-8.498 8.498-12.418 3.813-4.379 7.411-8.866 11.315-13.199 4.272-4.639 8.345-9.493 12.617-14.133 2.19-2.358 4.533-4.487 6.829-6.676 2.665-2.496 4.961-5.328 7.411-8.039 3.491-3.859 7.151-7.656 10.642-11.469 2.863-3.124 5.114-6.523 7.61-9.861 2.971-3.905 5.007-8.299 7.35-12.571 3.077-5.681 5.941-11.423 8.866-17.155 4.165-8.299 7.61-16.481 9.753-25.507 2.925-12.158 5.114-24.411 7.243-36.771 0.919-5.114 1.776-9.907 2.082-15.128 0.459-7.151 1.072-14.286 1.378-21.488 0.459-8.544 0.613-17.211 1.822-25.761 0.153-1.623-0.153-2.925-0.153-4.533 0-4.487 1.532-9.187 1.929-13.674 0.613-6.936-0.306-13.658-1.225-20.547-1.225-9.080-3.813-18.151-6.523-26.912-2.404-7.87-7.365-14.654-10.749-22.066-3.445-7.564-6.737-14.96-10.749-22.218-7.824-14.179-13.245-29.256-22.741-42.609-6.37-9.080-14.455-17.263-23.054-24.458-8.085-6.676-17.157-11.744-26.129-17.161-5.681-3.445-11.683-6.462-17.469-9.753-5.482-3.124-10.703-6.63-16.119-9.753-6.676-3.859-13.934-6.262-20.964-9.279-9.54-4.073-19.301-7.564-28.949-11.377-7.151-2.863-13.766-6.829-20.964-9.601-2.404-0.919-4.961-1.562-7.304-2.557-0.919-0.459-1.776-0.919-2.863-1.072 3.644 4.639 4.854 10.642 7.87 15.643 3.751 6.11 8.973 11.27 13.245 17.059 3.751 5.16 6.982 10.642 10.841 15.8 6.201 8.238 12.418 16.119 17.631 25.037 5.328 9.172 10.229 18.669 14.761 28.159 3.139 6.676 6.002 13.46 8.973 20.188 2.236 5.222 4.9 10.167 7.411 15.335 3.705 7.564 7.457 15.174 11.009 22.844 0.919 1.929 1.731 3.905 2.45 5.941 0.919 1.883 2.037 3.766 3.185 5.573 3.124 6.201 4.226 13.413 6.676 19.872 6.829 17.681 10.213 36.354 10.535 55.18 0.109 7.304-1.072 14.546-1.669 21.802-0.459 6.37-1.532 12.678-2.343 18.987-0.765 5.374-1.883 10.841-1.776 16.271 0.153 8.559-1.225 17.004-2.143 25.507-0.613 8.713-1.731 17.414-3.077 26.129-1.532 7.61-3.445 15.174-5.788 22.584-1.532 5.007-3.185 10.014-5.222 14.853-1.715 3.399-3.384 6.784-5.053 10.167-1.669 4.073-2.756 8.238-4.854 12.158-4.119 7.916-10.275 14.394-15.595 21.536-2.971 4.011-5.635 8.192-7.916 12.571-2.771 4.639-5.788 9.126-9.019 13.505-2.971 4.226-5.589 8.345-8.085 12.832-10.381 18.102-26.652 32.443-41.15 47.357-4.793 4.961-8.192 10.902-12.786 16.119-3.124 3.537-6.156 7.044-8.912 10.902-0.765 1.072-1.976 3.644-3.445 4.119-1.378 0.459-1.868 0-3.032 1.072z"></path>
    <path fill="#000000" d="M717.517 539.816c-0.765 2.91-1.532 5.788-2.343 8.544-2.404 8.039-4.7 15.908-6.784 24.043-1.225 4.533-2.037 9.386-3.338 13.827-1.225 4.379-3.399 8.804-5.114 12.985-0.765 1.868-1.532 3.751-2.19 5.635-18.669 31.135-48.87 55.232-84.646 68.737-31.448 11.898-69.056 24.199-103.006 19.614-3.384-0.459-6.676-1.225-9.907-1.929-4.44 0.613-8.866 1.225-13.352 1.532-34.161 2.297-68.688-6.982-96.902-26.496-35.57-24.562-52.521-59.765-59.715-98.204-0.153-3.399-0.054-6.784 0-10.121 0-3.491-0.613-6.829-0.765-10.275-0.153-6.416-0.459-13.291 0-19.711 0.153-2.037 0.765-3.859 0.765-5.941 0-2.603 0-4.946 0.306-7.564 0.919-6.416 0.613-13.046 1.072-19.505 0.613-6.37 3.032-12.51 5.635-18.253 3.292-7.196 7.671-13.72 9.753-21.438 1.883-6.89 2.925-14.133 3.751-21.224 0.919-7.671 0.765-15.493 1.225-23.211 0.153-3.537 0.049-7.090 0.919-10.535 0.613-2.771 2.082-6.201 4.119-8.238 4.272-4.272 8.819-8.345 14.087-11.469 3.966-2.343 7.35-5.007 10.948-7.87 2.45-1.976 5.16-3.491 7.457-5.681 2.19-2.082 4.226-4.333 6.37-6.477 1.868-1.868 4.073-3.491 5.834-5.467 0.153-0.153 0.306-0.306 0.459-0.613 9.8-4.961 19.921-9.279 29.726-13.031 10.749-4.073 21.645-7.824 32.653-11.163 6.936-1.715 13.919-3.231 20.91-4.7 4.44-0.919 8.819-2.19 13.199-3.338 1.378-0.306 2.71-0.613 4.073-0.919 9.601-1.608 19.192-2.603 28.948-3.399 1.868-0.153 3.705-0.613 5.528-1.072 1.822-0.765 3.766-1.378 5.742-1.225 1.822 0.054 3.705 0.306 5.528 0.459 0.919 0.153 1.868 0.459 2.817 0.613 9.080 2.143 18.416 2.971 27.538 5.007 0.459 0.153 0.765 0.306 1.378 0.459 8.452 2.71 15.903 9.386 23.417 14.087 7.87 4.9 15.384 10.427 23.314 15.235 6.784 4.119 13.658 8.13 20.235 12.617 5.895 4.073 12.249 7.87 17.782 12.617 5.007 6.002 9.647 12.249 13.98 18.723 3.292 6.477 6.002 13.245 8.912 19.974 4.487 10.381 9.447 20.5 14.179 30.828 3.185 6.936 6.201 14.026 8.498 21.38 5.941 23.628 8.345 48.142 7.044 72.293zM767.986 517.841c-0.306-3.644 0.919-7.518 1.072-11.163 0.153-5.635-1.225-11.101-2.665-16.686-1.776-7.411-5.16-14.715-8.559-21.856-0.765-1.562-1.608-3.077-2.603-4.533-16.481-69.522-62.952-136.439-135.449-153.962-1.378-0.306-2.771-0.613-4.119-0.765-3.277-1.868-6.569-3.751-9.907-5.573-6.784-3.705-13.505-6.676-20.862-8.284-9.968-2.143-19.976-3.537-30.044-4.9-4.594-0.613-12.158-1.072-16.795-1.225-4.379 0-8.713 0-13.046 0.107-6.982 0.153-14.026 0.613-21.019-0.107-1.225-0.153-2.404 0.306-3.705 0.459-3.644 0.306-7.518-0.919-11.163-1.072-5.635-0.153-11.116 1.225-16.69 2.649-7.411 1.822-14.715 5.222-21.856 8.559-0.153 0.153-0.459 0.306-0.613 0.459-12.204 0.153-24.308 1.225-35.83 4.7-20.288 6.048-37.137 19.036-53.147 32.39-17.579 14.593-34.528 30.195-47.098 49.442-11.989 18.307-18.619 39.741-19.555 61.542-0.459 0.765-0.919 1.562-1.378 2.343-3.751 6.829-6.722 13.505-8.299 20.862-2.19 9.953-3.552 19.976-4.9 30.039-0.613 4.639-1.072 12.204-1.072 16.847-0.054 4.333-0.054 8.667 0.054 13.046 0.153 6.982 0.613 14.026-0.107 20.966-0.109 1.378 0.459 2.404 0.613 3.705 0.306 3.644-0.919 7.503-1.072 11.163-0.153 5.681 1.225 11.101 2.665 16.691 1.776 7.411 5.16 14.761 8.559 21.85 2.404 5.068 6.37 9.601 9.968 14.286 6.37 31.238 17.679 61.386 36.927 87.045 24.981 33.275 61.801 57.944 103.318 62.536 0.613 0.306 1.225 0.765 1.868 1.072 6.784 3.751 13.505 6.676 20.862 8.299 9.968 2.19 19.974 3.552 30.044 4.9 4.594 0.613 12.204 1.072 16.843 1.072 4.333 0 8.667 0.052 12.985-0.049 6.982-0.153 14.026-0.613 21.019 0.11 1.378 0.109 2.404-0.459 3.705-0.613 3.644-0.306 7.518 0.919 11.163 1.072 5.635 0.153 11.116-1.225 16.69-2.665 7.411-1.776 14.715-5.16 21.856-8.544 0.306-0.11 0.613-0.306 0.919-0.613 14.654-3.384 28.949-8.866 42.766-15.067 25.351-11.423 51.949-24.255 71.659-44.333 21.645-21.958 34.638-51.581 37.397-82.096 1.623-2.925 3.292-5.834 4.9-8.758 3.751-6.829 6.676-13.551 8.299-20.916 2.19-9.953 3.552-19.97 4.9-30.039 0.613-4.594 1.072-12.158 1.072-16.795 0-4.379 0.052-8.713-0.054-13.046-0.153-6.982-0.613-14.026 0.11-21.018 0.109-1.225-0.459-2.404-0.613-3.705z"></path>
    </svg>