<svg xmlns="http://www.w3.org/2000/svg" viewBox="-47.530 -47.999 1134.443 1119.998">
    <path fill="#000000" d="M512.414 58.623c-1.32 1.475-1.164 4.346-1.242 6.21-0.078 2.949-0.078 5.977 0 8.926 0.621-1.941 1.164-3.881 1.32-5.744 0.232-3.027-0.156-6.287-0.078-9.392z"></path>
    <path fill="#000000" d="M626.694 124.523c0.078-8.15-1.164-16.145-1.164-24.372 0.078-3.648 0.232-7.451-0.232-11.1 0 0.078-0.078 0.232-0.156 0.31 0-0.776-0.078-1.475-0.156-2.173 0.078 0.621 0.232 1.242 0.31 1.863 0.232-0.388 0.388-0.854 0.388-1.32 0-0.854-0.466-1.63-0.932-2.407-0.232-1.242-0.466-2.483-0.698-3.803-1.009-6.52-7.141-10.634-12.264-14.36-1.785-1.397-3.493-3.027-4.968-4.58-2.561-2.717-2.329-2.639-6.132 0.621 3.183 3.183 5.2 6.598 6.442 11.022 1.087 3.803 3.027 7.297 3.571 11.255 0.466 3.415 1.397 6.675 1.941 10.090 0.698 4.036 0.232 8.227 0.544 12.264 0.078 1.707 0.31 3.337 0.466 5.046-3.881 8.771-8.073 16.921-13.894 24.683-3.415 4.58-6.21 10.401-10.324 14.282-6.054 5.822-13.273 11.1-20.414 15.524-4.58 2.872-9.314 4.424-14.127 6.753-4.269 1.941-7.373 3.26-12.109 3.648-3.027 0.232-5.511 0.232-8.383 1.32-1.863 0.698-3.571 1.552-5.434 2.095 1.009-7.917 2.173-15.757 2.639-23.674 0.31-5.899 0.544-12.264-0.544-18.085-1.785-9.004-1.32-18.007-3.183-27.011-2.095-10.246-0.466-21.19-2.018-31.669-0.388-2.717-0.544-5.434-0.854-8.15-0.544-4.424-2.561-8.849-3.571-13.195-2.095-8.926-4.269-18.318-4.346-27.399-4.502 0-4.036 9.082-4.502 17.93-0.232 3.105-0.854 6.132-1.397 9.159 0-1.087 0-2.095 0.078-3.105 0-1.242-0.078-2.561-0.078-3.881-0.932 3.027-2.173 5.977-2.949 8.849-2.407 7.839-3.803 15.058-3.726 23.286 0.078 4.734 0.232 9.392-0.544 14.127-0.698 4.192-0.544 8.227-0.544 12.419 0 9.237-0.31 18.473 0.078 27.633 0.466 10.478 2.407 20.88 3.105 31.281 0.156 3.183 0.156 6.52 0.232 9.702-4.269-0.698-8.383-1.785-12.264-3.571-0.232-0.078-0.466-0.078-0.698-0.156-2.018-0.156-2.872 0.466-4.58-0.776-2.018-1.552-1.863-4.657-3.183-6.287-2.095-2.717-6.52 1.009-9.159 0.388-2.949-0.698-5.511-4.269-7.297-6.753-1.242-1.63-2.095-2.407-3.881-3.648-3.26-2.173-7.219-4.657-9.858-7.607s-4.036-6.675-6.442-9.78c-4.114-5.434-10.789-8.926-14.127-15.058-0.932-1.785-1.707-3.803-2.639-5.666-3.105-6.442-3.337-12.341-3.415-19.716-0.156-11.022 0.078-22.044 0.078-33.066-0.078-1.63-4.036-4.968-6.21-1.164-0.776 1.397-0.31 2.483-0.544 3.959-0.31 1.552-0.854 2.949-1.164 4.502-2.407 13.040-12.963 24.683-7.451 38.499 1.397 3.415 3.571 6.598 5.2 9.936 1.552 3.337 1.475 6.753 2.018 10.324 0.932 5.744 2.095 12.497 4.192 17.853 1.863 4.734 2.872 10.168 5.899 14.127 1.164 1.552 1.863 1.785 3.183 3.027 2.251 2.095 2.717 5.434 4.734 7.685 3.337 3.648 7.995 4.657 12.341 6.52 4.424 1.863 8.538 4.036 13.195 5.2 5.2 1.397 10.324 4.968 14.204 8.771 2.095 2.095 3.803 4.036 5.356 6.52 2.251 3.415 4.424 4.269 8.693 4.424 4.114 0.156 7.373-1.164 11.332-0.388 0.698 0.078 1.397 0.156 2.173 0.31-0.156 1.863-0.156 3.726-0.232 5.511-0.544 6.287-1.164 12.497-1.785 18.706-2.407-0.466-4.734-1.164-7.063-1.475-1.707-0.232-3.959-0.621-5.666-0.232-3.183 0.698-6.054 4.89-9.392 5.2-1.707 0.232-4.424-0.078-6.054-0.466-2.795-0.698-5.046-3.415-7.917-3.881-2.329-0.388-6.675 0.388-4.114 2.095-2.018-0.156-1.552 11.953-1.63 12.963-0.156 3.105-1.087 6.287 0.932 8.305 1.242 1.242 2.561 1.087 4.036 1.242 2.018 0.156 3.571 1.087 5.511 1.475 4.89 0.854 8.849-2.949 13.506-2.717 4.734 0.232 9.314-0.621 14.049-0.31 0.621 0 1.242 0.078 1.863 0.078 0 0.466-0.078 0.854-0.078 1.32-0.466 7.685-0.388 15.446-0.31 23.208-1.552-0.466-3.183-0.854-4.734-1.087-1.707-0.232-3.959-0.544-5.666-0.232-3.183 0.776-6.054 4.968-9.392 5.278-1.707 0.156-4.424-0.156-6.054-0.544-2.795-0.698-5.046-3.337-7.917-3.803-2.329-0.466-6.675 0.31-4.114 2.095-2.018-0.156-1.552 11.953-1.63 12.963-0.156 3.105-1.087 6.21 0.932 8.227 1.242 1.242 2.561 1.087 4.036 1.242 2.018 0.232 3.571 1.164 5.511 1.475 4.89 0.854 8.849-2.872 13.506-2.639 4.734 0.232 9.314-0.621 14.049-0.388 0.466 0.078 0.932 0.078 1.397 0.078-0.078 6.054-0.232 12.187-0.466 18.241-1.397-0.388-2.795-0.776-4.192-0.932-1.707-0.232-3.959-0.621-5.666-0.232-3.183 0.776-6.054 4.89-9.392 5.278-1.707 0.156-4.424-0.156-6.054-0.544-2.795-0.698-5.046-3.337-7.917-3.881-2.329-0.388-6.675 0.388-4.114 2.095-2.018-0.156-1.552 11.953-1.63 13.040-0.156 3.027-1.087 6.21 0.932 8.227 1.242 1.242 2.561 1.087 4.036 1.242 2.018 0.232 3.571 1.087 5.511 1.475 4.89 0.854 8.849-2.872 13.506-2.639 4.734 0.232 9.314-0.621 14.049-0.388h0.388c0 2.018 0 4.036 0.078 5.977 0.388 9.082 2.251 18.007 2.872 27.089 1.087 15.834 2.872 31.669 2.795 47.503-0.078 18.862-0.466 37.102 3.26 55.654 2.095 10.634 5.511 21.733 5.588 32.601 1.242 2.717 2.639 5.278 5.046 5.511 3.959 0.388 2.872-4.657 2.795-7.373-0.078-3.337-1.164-6.054-1.164-9.392s-0.466-7.219 0.078-10.478c1.164-5.977 3.415-12.187 4.89-18.241 1.009-4.192 1.707-8.461 2.949-12.652 2.639-9.547 6.442-18.862 7.607-28.719 1.164-10.634-0.621-21.656-1.087-32.212-0.466-11.1-0.621-22.121-1.63-33.221-0.544-6.908-1.475-13.739-2.018-20.569 1.552-0.156 3.105-0.388 4.734-0.621 4.036-0.621 8.15-0.232 12.187-1.009 1.863-0.388 2.872-0.698 4.734 0.232 1.397 0.776 2.329 1.863 4.036 1.941 4.114 0.232 4.036-4.036 6.132-7.373 1.785 1.164 2.949 1.707 4.812 0.156 0.621-0.544 1.009-1.397 1.63-1.863 1.32-1.087 2.949-0.932 4.424-1.475-1.242-3.26-1.397-6.132-1.242-9.858 0.078-1.552 0-3.337 0.388-4.812 0.544-2.018 2.561-3.726 1.941-6.132-4.812 2.795-10.090 2.483-15.214 3.881-3.337 0.932-6.675 0.466-10.012 0.232-3.571-0.156-7.297-0.466-10.789 0.854-2.872 1.087-5.588 1.552-8.538 1.475 0-5.588 0-11.1 0-16.688 1.785-0.078 3.571-0.31 5.511-0.544 4.036-0.621 8.15-0.31 12.187-1.087 1.863-0.31 2.872-0.698 4.734 0.232 1.397 0.776 2.329 1.941 4.036 2.018 4.114 0.232 4.036-4.114 6.132-7.451 1.785 1.242 2.949 1.707 4.812 0.156 0.621-0.466 1.009-1.397 1.63-1.863 1.32-1.087 2.949-0.854 4.424-1.397-1.242-3.26-1.397-6.132-1.242-9.858 0.078-1.552 0-3.415 0.388-4.89 0.544-2.018 2.561-3.726 1.941-6.054-4.812 2.795-10.090 2.407-15.214 3.803-3.337 0.932-6.675 0.544-10.012 0.31-3.571-0.232-7.297-0.544-10.789 0.776-3.105 1.164-6.054 1.785-9.314 1.552-0.544-7.685-1.242-15.291-1.863-22.897 2.795 0.078 5.356-0.232 8.15-0.621 4.036-0.621 8.15-0.232 12.187-1.009 1.863-0.388 2.872-0.776 4.734 0.232 1.397 0.698 2.329 1.863 4.036 1.941 4.114 0.232 4.036-4.036 6.132-7.451 1.785 1.242 2.949 1.707 4.812 0.232 0.621-0.544 1.009-1.475 1.63-1.941 1.32-1.009 2.949-0.854 4.424-1.397-1.242-3.26-1.397-6.132-1.242-9.858 0.078-1.552 0-3.337 0.388-4.89 0.544-2.018 2.561-3.648 1.941-6.054-4.812 2.795-10.090 2.483-15.214 3.881-3.337 0.854-6.675 0.466-10.012 0.232-3.571-0.232-7.297-0.466-10.789 0.854-3.183 1.164-6.054 1.785-9.392 1.475-1.32-0.156-2.639-0.388-3.959-0.698-0.544-6.132-0.932-12.341-1.32-18.473 0.156-1.009 0.31-1.941 0.466-2.872 1.242 0 2.561 0 3.803 0 5.744 0.156 10.789-3.881 16.455-4.968 2.949-0.621 5.511-0.621 8.383-0.621 2.095 0 3.959-0.698 5.977-1.164 3.648-0.776 7.529-1.009 11.022-2.483 7.373-3.105 13.040-8.461 18.007-14.515 2.795-3.337 6.52-5.744 9.47-8.926 2.483-2.639 4.968-5.278 7.607-7.685 5.899-5.356 13.117-10.168 16.766-17.465 3.959-7.917 2.407-18.318 2.483-26.934z"></path>
    <path fill="#000000" d="M181.304 179.865c0.156 2.018 2.251 3.881 3.493 5.278 2.018 2.173 4.192 4.192 6.365 6.287-0.932-1.785-1.941-3.493-3.183-4.968-1.941-2.329-4.58-4.346-6.675-6.598z"></path>
    <path fill="#000000" d="M323.993 160.926c-5.666-5.822-12.264-10.556-18.007-16.455-2.561-2.561-5.122-5.356-8.073-7.607 0.078 0.078 0.078 0.156 0.156 0.232-0.544-0.544-1.087-0.932-1.707-1.32 0.544 0.31 1.087 0.698 1.552 1.087-0.156-0.466-0.31-0.854-0.621-1.242-0.621-0.544-1.475-0.854-2.407-1.087-1.009-0.698-2.095-1.397-3.183-2.173-5.278-3.881-12.575-2.483-18.784-1.475-2.251 0.31-4.58 0.388-6.831 0.31-3.726-0.156-3.415-0.232-3.881 4.812 4.502 0 8.305 0.932 12.341 3.183 3.493 1.941 7.297 3.027 10.556 5.434 2.795 2.095 5.666 3.726 8.538 5.744 3.26 2.329 5.899 5.666 9.004 8.305 1.242 1.087 2.561 2.173 3.881 3.26 3.493 8.849 6.287 17.697 7.685 27.245 0.776 5.666 2.872 11.798 2.795 17.387-0.156 8.461-1.552 17.309-3.493 25.382-1.242 5.278-3.493 9.78-5.278 14.826-1.552 4.424-2.872 7.529-5.899 11.177-2.018 2.329-3.726 4.036-4.968 6.753-0.854 1.863-1.475 3.648-2.407 5.356-4.89-6.287-9.624-12.652-14.903-18.551-3.881-4.424-8.227-9.082-13.117-12.419-7.685-5.122-13.661-11.798-21.345-16.843-8.771-5.822-15.368-14.67-23.829-20.957-2.251-1.63-4.269-3.493-6.365-5.122-3.571-2.795-8.073-4.502-11.876-6.908-7.762-4.812-15.99-9.858-22.432-16.222-3.183 3.183 3.493 9.237 9.47 15.834 2.095 2.329 3.726 4.89 5.511 7.451-0.776-0.776-1.475-1.475-2.173-2.173-0.932-0.932-1.863-1.863-2.795-2.717 1.475 2.795 2.717 5.744 4.114 8.305 3.881 7.219 7.995 13.351 13.894 19.094 3.415 3.337 6.831 6.52 9.624 10.401 2.483 3.415 5.434 6.21 8.383 9.159 6.52 6.52 12.885 13.273 19.638 19.482 7.685 7.063 16.378 13.040 24.295 19.948 2.329 2.095 4.657 4.424 6.985 6.675-3.493 2.483-7.141 4.657-11.177 6.132-0.232 0.156-0.466 0.232-0.621 0.388-1.552 1.32-1.707 2.407-3.803 2.639-2.483 0.388-4.58-1.941-6.675-2.173-3.415-0.388-3.881 5.356-6.21 6.753-2.561 1.552-6.908 0.932-9.936 0.466-2.018-0.31-3.183-0.232-5.356 0.156-3.803 0.698-8.383 1.785-12.264 1.552-4.036-0.232-7.607-1.941-11.488-2.407-6.831-0.854-13.972 1.32-20.647-0.621-1.941-0.621-3.881-1.475-5.822-2.173-6.831-2.329-11.177-6.365-16.378-11.488-7.917-7.685-15.602-15.679-23.363-23.441-1.242-1.087-6.365-0.621-5.2 3.571 0.388 1.475 1.552 1.941 2.329 3.183 0.932 1.32 1.552 2.639 2.483 3.959 7.451 10.944 8.227 26.623 21.889 32.523 3.415 1.475 7.219 2.095 10.712 3.337s5.822 3.726 8.771 5.899c4.657 3.415 10.246 7.373 15.524 9.624 4.657 2.018 9.237 5.122 14.204 5.822 1.863 0.31 2.561-0.078 4.346-0.078 3.105-0.078 5.744 1.941 8.849 2.018 4.89 0.232 8.926-2.329 13.273-4.114 4.424-1.785 8.926-3.105 13.040-5.588 4.657-2.717 10.789-3.803 16.222-3.803 2.949 0 5.511 0.156 8.383 0.698 4.036 0.932 6.21-0.078 9.314-2.949 3.027-2.795 4.346-6.054 7.685-8.305 0.621-0.388 1.164-0.854 1.785-1.32 1.242 1.397 2.561 2.717 3.726 4.114 4.036 4.812 7.995 9.624 11.953 14.515-1.941 1.32-4.192 2.483-6.054 3.881-1.32 1.009-3.183 2.407-4.114 3.803-1.785 2.872-0.854 7.762-2.949 10.401-1.087 1.32-3.26 3.027-4.657 3.881-2.483 1.552-5.899 1.164-8.305 2.872-1.941 1.397-4.502 4.968-1.397 4.424-1.552 1.32 7.297 9.547 7.995 10.324 2.018 2.329 3.648 5.2 6.442 5.2 1.785 0 2.639-1.087 3.803-2.018 1.552-1.242 3.337-1.707 4.89-2.872 4.114-2.795 4.192-8.227 7.685-11.41s6.132-6.985 9.702-10.168c0.466-0.388 0.932-0.854 1.397-1.242 0.31 0.31 0.544 0.698 0.854 1.009 5.122 5.744 10.634 11.177 16.145 16.611-1.397 0.854-2.795 1.63-4.036 2.639-1.397 1.009-3.26 2.329-4.192 3.803-1.707 2.795-0.776 7.762-2.949 10.324-1.087 1.397-3.26 3.105-4.58 3.881-2.561 1.552-5.977 1.242-8.383 2.872-1.941 1.397-4.502 5.046-1.397 4.424-1.552 1.32 7.373 9.624 7.995 10.324 2.095 2.329 3.648 5.2 6.52 5.2 1.707 0 2.561-1.087 3.726-1.941 1.552-1.242 3.337-1.785 4.968-2.872 4.036-2.872 4.192-8.305 7.607-11.41 3.493-3.183 6.21-7.063 9.702-10.246 0.388-0.31 0.698-0.621 1.087-0.932 4.192 4.346 8.383 8.771 12.497 13.195-1.242 0.776-2.483 1.475-3.648 2.329-1.32 1.009-3.183 2.407-4.114 3.881-1.785 2.795-0.854 7.762-2.949 10.324-1.087 1.397-3.26 3.105-4.657 3.881-2.483 1.552-5.899 1.242-8.305 2.872-1.941 1.397-4.502 5.046-1.397 4.424-1.552 1.32 7.297 9.547 7.995 10.324 2.095 2.329 3.648 5.2 6.442 5.2 1.785 0 2.639-1.087 3.803-2.018 1.552-1.242 3.337-1.707 4.89-2.795 4.114-2.872 4.192-8.305 7.685-11.41 3.493-3.183 6.132-7.063 9.702-10.246 0.078-0.078 0.232-0.156 0.31-0.232 1.397 1.397 2.795 2.795 4.269 4.114 6.675 6.21 14.36 11.177 21.19 17.154 16.378 14.36 27.167 23.131 35.55 31.669 13.273 13.351 25.925 26.468 41.604 37.025 9.004 5.977 19.327 11.41 27.011 19.017 2.795 1.087 5.666 1.941 7.451 0.388 3.105-2.483-1.242-5.356-3.183-7.219-2.483-2.251-5.122-3.415-7.451-5.822-2.329-2.329-5.511-4.734-7.373-7.451-3.415-5.046-6.21-11.022-9.47-16.3-2.251-3.726-4.734-7.297-6.831-11.022-4.89-8.693-8.771-17.93-14.98-25.692-6.675-8.383-15.679-14.903-23.519-22.121-8.15-7.451-16.067-15.136-24.606-22.277-5.278-4.502-10.789-8.693-16.067-13.117 1.009-1.164 2.018-2.407 2.949-3.726 2.483-3.337 5.666-6.054 7.917-9.392 1.087-1.552 1.552-2.561 3.493-3.183 1.552-0.466 3.027-0.31 4.269-1.475 3.105-2.717 0-5.744-0.932-9.547 2.173-0.388 3.26-0.854 3.571-3.337 0.078-0.776-0.31-1.707-0.232-2.483 0.232-1.707 1.475-2.717 2.173-4.114-3.183-1.397-5.356-3.337-7.839-6.132-1.009-1.164-2.407-2.329-3.183-3.648-1.087-1.785-0.854-4.424-2.949-5.666-1.397 5.356-5.356 8.849-8.073 13.506-1.63 2.949-4.269 5.046-6.831 7.219-2.639 2.407-5.511 4.812-7.063 8.227-1.242 2.795-2.795 5.046-4.968 7.063-3.959-3.959-7.917-7.839-11.798-11.798 1.242-1.32 2.329-2.717 3.493-4.269 2.407-3.337 5.588-5.977 7.839-9.392 1.087-1.552 1.552-2.561 3.493-3.183 1.552-0.466 3.027-0.31 4.269-1.397 3.105-2.795 0-5.744-0.854-9.624 2.095-0.388 3.26-0.854 3.493-3.337 0.078-0.776-0.31-1.707-0.156-2.407 0.156-1.785 1.475-2.795 2.095-4.192-3.183-1.397-5.278-3.337-7.839-6.054-1.009-1.164-2.407-2.407-3.183-3.726-1.087-1.785-0.854-4.424-2.872-5.666-1.475 5.356-5.434 8.849-8.073 13.506-1.707 2.949-4.346 5.046-6.908 7.219-2.639 2.407-5.511 4.812-7.063 8.227-1.32 3.027-2.949 5.511-5.511 7.607-5.744-4.968-11.643-9.858-17.465-14.826 1.941-1.863 3.648-3.881 5.278-6.21 2.483-3.26 5.588-5.977 7.917-9.314 1.087-1.63 1.552-2.561 3.493-3.183 1.552-0.466 3.027-0.31 4.269-1.475 3.105-2.795 0-5.744-0.932-9.547 2.095-0.388 3.26-0.932 3.571-3.337 0.078-0.776-0.31-1.707-0.232-2.483 0.232-1.707 1.475-2.717 2.173-4.114-3.183-1.397-5.356-3.337-7.839-6.132-1.087-1.164-2.407-2.329-3.183-3.648-1.087-1.785-0.854-4.424-2.949-5.666-1.397 5.356-5.356 8.849-8.073 13.506-1.707 2.949-4.346 4.968-6.831 7.219-2.717 2.329-5.588 4.812-7.063 8.227-1.397 3.027-3.027 5.511-5.588 7.685-1.009 0.854-2.095 1.552-3.26 2.251-4.734-3.959-9.392-7.995-14.049-12.109-0.544-0.776-1.164-1.552-1.707-2.329 0.932-0.932 1.863-1.785 2.717-2.639 4.192-3.959 4.89-10.478 8.073-15.214 1.707-2.483 3.493-4.269 5.588-6.365 1.397-1.475 2.251-3.26 3.337-4.968 2.018-3.26 4.657-6.132 6.054-9.624 3.027-7.373 3.183-15.214 2.483-22.975-0.388-4.346 0.544-8.693 0.388-13.040-0.156-3.648-0.232-7.219-0.078-10.867 0.388-7.917 2.095-16.378-0.466-24.14-2.795-8.383-11.255-14.592-17.309-20.802z"></path>
    <path fill="#000000" d="M37.483 519.297c1.475 1.32 4.346 1.164 6.21 1.242 2.949 0.078 5.977 0.078 8.926 0-1.941-0.621-3.881-1.164-5.744-1.32-3.027-0.232-6.287 0.156-9.392 0.078z"></path>
    <path fill="#000000" d="M124.992 405.040c-8.15-0.078-16.145 1.242-24.372 1.164-3.648-0.078-7.451-0.232-11.1 0.232 0.078 0 0.232 0.078 0.31 0.156-0.776 0-1.475 0.078-2.173 0.156 0.621-0.078 1.242-0.232 1.863-0.31-0.388-0.232-0.854-0.388-1.32-0.388-0.854 0-1.63 0.466-2.407 0.932-1.242 0.232-2.483 0.466-3.803 0.698-6.52 1.009-10.634 7.141-14.36 12.264-1.397 1.785-3.027 3.493-4.58 4.968-2.717 2.561-2.639 2.329 0.621 6.132 3.183-3.183 6.598-5.2 11.022-6.442 3.803-1.087 7.297-3.027 11.255-3.571 3.415-0.466 6.675-1.397 10.090-1.941 4.036-0.698 8.227-0.232 12.264-0.544 1.707-0.078 3.337-0.31 5.046-0.466 8.771 3.881 16.921 8.073 24.683 13.894 4.58 3.415 10.401 6.21 14.282 10.324 5.822 6.054 11.1 13.273 15.524 20.414 2.872 4.58 4.424 9.314 6.753 14.127 1.941 4.269 3.26 7.373 3.648 12.109 0.232 3.027 0.232 5.511 1.32 8.383 0.698 1.863 1.552 3.571 2.095 5.434-7.917-1.009-15.757-2.173-23.674-2.639-5.899-0.31-12.264-0.544-18.085 0.544-9.004 1.785-18.007 1.32-27.011 3.183-10.246 2.095-21.19 0.466-31.669 2.018-2.717 0.388-5.434 0.544-8.15 0.854-4.424 0.544-8.849 2.561-13.195 3.571-8.926 2.095-18.318 4.269-27.399 4.346 0 4.502 9.082 4.036 17.93 4.502 3.105 0.232 6.132 0.854 9.159 1.397-1.087 0-2.095 0-3.105 0-1.242 0-2.561 0-3.881 0 3.027 0.932 5.977 2.173 8.849 3.027 7.839 2.329 15.058 3.726 23.286 3.648 4.812-0.078 9.392-0.232 14.127 0.544 4.192 0.698 8.227 0.544 12.497 0.544 9.159 0 18.396 0.31 27.555-0.078 10.478-0.466 20.88-2.407 31.281-3.105 3.183-0.156 6.52-0.156 9.702-0.232-0.698 4.269-1.785 8.383-3.571 12.264-0.078 0.232-0.078 0.466-0.156 0.698-0.156 2.018 0.466 2.872-0.776 4.58-1.552 2.018-4.657 1.863-6.287 3.183-2.717 2.095 1.009 6.52 0.388 9.159-0.698 2.949-4.269 5.511-6.753 7.297-1.63 1.242-2.407 2.095-3.648 3.959-2.173 3.183-4.657 7.141-7.607 9.78s-6.675 4.036-9.78 6.442c-5.434 4.114-8.926 10.789-15.058 14.127-1.785 0.932-3.803 1.707-5.666 2.639-6.442 3.105-12.341 3.337-19.716 3.415-11.022 0.156-22.044-0.078-33.066-0.078-1.63 0.078-4.968 4.036-1.164 6.21 1.397 0.776 2.483 0.31 3.959 0.544 1.552 0.31 2.949 0.854 4.502 1.164 13.040 2.407 24.683 12.963 38.499 7.451 3.415-1.397 6.598-3.571 9.936-5.2 3.337-1.552 6.753-1.475 10.324-2.018 5.744-0.932 12.497-2.095 17.853-4.192 4.734-1.863 10.168-2.872 14.127-5.899 1.552-1.164 1.785-1.863 3.027-3.183 2.095-2.251 5.434-2.717 7.685-4.734 3.648-3.337 4.657-7.995 6.52-12.341 1.863-4.424 4.036-8.538 5.2-13.195 1.397-5.2 4.968-10.324 8.771-14.204 2.095-2.095 4.036-3.803 6.52-5.356 3.415-2.251 4.269-4.424 4.424-8.693 0.156-4.114-1.164-7.373-0.388-11.332 0.078-0.698 0.156-1.397 0.31-2.173 1.863 0.156 3.726 0.156 5.511 0.31 6.287 0.466 12.497 1.087 18.706 1.707-0.466 2.407-1.164 4.734-1.475 7.063-0.232 1.707-0.621 3.959-0.232 5.666 0.698 3.183 4.89 6.054 5.2 9.392 0.232 1.707-0.078 4.424-0.466 6.054-0.698 2.795-3.415 5.046-3.881 7.917-0.388 2.329 0.388 6.675 2.095 4.114-0.156 2.018 11.953 1.552 12.963 1.63 3.105 0.156 6.287 1.087 8.305-0.932 1.242-1.242 1.087-2.561 1.242-4.036 0.156-2.018 1.087-3.571 1.475-5.511 0.854-4.89-2.949-8.849-2.717-13.506 0.232-4.734-0.621-9.314-0.31-14.049 0-0.621 0.078-1.242 0.078-1.863 0.466 0 0.854 0.078 1.32 0.078 7.685 0.466 15.446 0.388 23.208 0.31-0.466 1.63-0.854 3.183-1.087 4.734-0.156 1.707-0.544 3.959-0.232 5.666 0.776 3.183 4.968 6.054 5.278 9.392 0.156 1.707-0.156 4.424-0.544 6.054-0.698 2.795-3.337 5.046-3.803 7.917-0.466 2.329 0.31 6.675 2.095 4.114-0.156 2.018 11.953 1.552 12.963 1.63 3.105 0.156 6.21 1.087 8.227-0.932 1.242-1.242 1.087-2.561 1.242-4.036 0.232-2.018 1.164-3.571 1.475-5.511 0.854-4.89-2.872-8.849-2.639-13.506 0.232-4.734-0.621-9.314-0.388-14.049 0.078-0.466 0.078-0.932 0.078-1.397 6.054 0.078 12.187 0.232 18.241 0.466-0.388 1.397-0.776 2.795-0.932 4.192-0.232 1.707-0.621 3.959-0.232 5.666 0.776 3.183 4.89 6.054 5.278 9.392 0.156 1.707-0.156 4.424-0.544 6.054-0.698 2.795-3.337 5.046-3.881 7.917-0.388 2.329 0.388 6.675 2.095 4.114-0.156 2.018 11.953 1.552 13.040 1.63 3.027 0.156 6.21 1.087 8.227-0.932 1.242-1.242 1.087-2.561 1.242-4.036 0.232-2.018 1.087-3.571 1.475-5.511 0.854-4.89-2.872-8.849-2.639-13.506 0.232-4.734-0.621-9.314-0.388-14.049 0-0.156 0-0.31 0-0.388 2.018 0 4.036 0 5.977-0.078 9.082-0.388 18.007-2.251 27.089-2.872 15.834-1.087 31.669-2.872 47.503-2.795 18.862 0.078 37.102 0.466 55.654-3.26 10.634-2.095 21.733-5.511 32.601-5.588 2.717-1.242 5.278-2.639 5.511-5.046 0.388-3.959-4.657-2.872-7.373-2.795-3.337 0.078-6.054 1.164-9.392 1.164s-7.219 0.466-10.478-0.078c-5.977-1.164-12.187-3.415-18.241-4.89-4.192-1.009-8.461-1.707-12.652-2.949-9.547-2.639-18.862-6.442-28.719-7.607-10.634-1.164-21.656 0.621-32.212 1.087-11.1 0.466-22.121 0.698-33.221 1.63-6.908 0.544-13.739 1.475-20.569 2.095-0.156-1.63-0.388-3.183-0.621-4.812-0.621-4.036-0.232-8.15-1.009-12.187-0.388-1.863-0.698-2.872 0.232-4.734 0.776-1.397 1.863-2.329 1.941-4.036 0.232-4.114-4.036-4.036-7.373-6.132 1.164-1.785 1.707-2.949 0.156-4.812-0.544-0.621-1.397-1.009-1.863-1.63-1.087-1.32-0.932-2.949-1.475-4.424-3.26 1.242-6.132 1.397-9.858 1.242-1.552-0.078-3.337 0-4.812-0.388-2.018-0.466-3.726-2.483-6.132-1.941 2.795 4.812 2.483 10.090 3.881 15.214 0.932 3.337 0.466 6.675 0.232 10.012-0.156 3.571-0.466 7.297 0.854 10.789 1.087 2.872 1.552 5.588 1.475 8.538-5.588 0-11.1 0-16.688 0-0.078-1.785-0.31-3.571-0.544-5.511-0.621-4.036-0.31-8.15-1.087-12.187-0.31-1.863-0.698-2.872 0.232-4.734 0.776-1.397 1.941-2.329 2.018-4.036 0.232-4.114-4.114-4.036-7.451-6.132 1.242-1.785 1.707-2.949 0.156-4.812-0.466-0.621-1.397-1.009-1.863-1.63-1.087-1.32-0.854-2.949-1.397-4.424-3.26 1.242-6.132 1.397-9.858 1.242-1.552-0.078-3.415 0-4.89-0.388-2.018-0.466-3.726-2.483-6.054-1.941 2.795 4.812 2.407 10.090 3.803 15.214 0.932 3.337 0.544 6.675 0.31 10.012-0.232 3.571-0.544 7.297 0.776 10.789 1.164 3.105 1.785 6.054 1.552 9.314-7.685 0.544-15.291 1.242-22.897 1.863 0.078-2.717-0.232-5.356-0.621-8.15-0.621-4.036-0.232-8.15-1.009-12.187-0.388-1.863-0.776-2.872 0.232-4.734 0.698-1.397 1.863-2.329 1.941-4.036 0.232-4.114-4.036-4.036-7.373-6.132 1.164-1.785 1.63-2.949 0.156-4.812-0.544-0.621-1.475-1.009-1.941-1.63-1.009-1.32-0.854-2.949-1.397-4.424-3.26 1.242-6.132 1.397-9.858 1.242-1.552-0.078-3.337 0-4.89-0.388-2.018-0.466-3.648-2.483-6.054-1.941 2.795 4.812 2.483 10.090 3.881 15.214 0.854 3.337 0.466 6.675 0.232 10.012-0.232 3.571-0.466 7.297 0.854 10.789 1.164 3.183 1.785 6.054 1.475 9.392-0.156 1.32-0.388 2.639-0.698 3.959-6.132 0.544-12.341 1.009-18.473 1.32-1.009-0.156-1.941-0.31-2.872-0.466 0-1.242 0-2.561 0-3.803 0.156-5.744-3.881-10.789-4.968-16.455-0.621-2.949-0.621-5.511-0.621-8.383 0-2.095-0.698-3.959-1.164-5.977-0.776-3.648-1.009-7.529-2.483-11.022-3.105-7.373-8.461-13.040-14.515-18.007-3.337-2.795-5.744-6.52-8.926-9.47-2.639-2.483-5.278-4.968-7.685-7.607-5.356-5.899-10.168-13.117-17.465-16.766-7.917-3.959-18.318-2.407-26.934-2.483z"></path>
    <path fill="#000000" d="M191.131 853.992c2.018-0.156 3.881-2.251 5.278-3.493 2.173-2.018 4.192-4.192 6.287-6.365-1.785 0.932-3.493 1.941-4.968 3.183-2.329 1.941-4.346 4.502-6.598 6.675z"></path>
    <path fill="#000000" d="M172.199 711.327c-5.822 5.666-10.556 12.264-16.455 18.007-2.561 2.561-5.356 5.122-7.607 8.073 0.078-0.078 0.156-0.078 0.232-0.156-0.544 0.544-0.932 1.087-1.32 1.707 0.31-0.544 0.698-1.087 1.087-1.552-0.466 0.156-0.854 0.31-1.242 0.621-0.544 0.621-0.854 1.475-1.087 2.407-0.698 1.009-1.397 2.095-2.173 3.183-3.881 5.278-2.483 12.575-1.475 18.862 0.31 2.173 0.388 4.502 0.31 6.753-0.156 3.726-0.232 3.415 4.812 3.881 0-4.502 0.932-8.305 3.183-12.341 1.941-3.493 3.027-7.297 5.434-10.556 2.095-2.795 3.726-5.666 5.744-8.538 2.329-3.26 5.666-5.899 8.305-9.004 1.087-1.242 2.173-2.561 3.26-3.881 8.849-3.493 17.697-6.287 27.245-7.685 5.666-0.776 11.798-2.872 17.387-2.795 8.461 0.156 17.309 1.552 25.382 3.493 5.278 1.242 9.78 3.493 14.826 5.278 4.424 1.552 7.529 2.872 11.177 5.899 2.329 2.018 4.036 3.726 6.753 4.968 1.863 0.854 3.648 1.475 5.356 2.407-6.287 4.89-12.652 9.624-18.551 14.903-4.424 3.881-9.082 8.227-12.419 13.117-5.122 7.685-11.798 13.661-16.843 21.345-5.822 8.771-14.67 15.368-20.957 23.829-1.63 2.251-3.493 4.269-5.122 6.365-2.795 3.571-4.502 8.073-6.908 11.876-4.812 7.762-9.858 15.99-16.222 22.432 3.183 3.183 9.237-3.493 15.834-9.47 2.329-2.095 4.89-3.726 7.451-5.511-0.776 0.776-1.475 1.475-2.173 2.173-0.932 0.932-1.863 1.863-2.717 2.795 2.795-1.475 5.744-2.717 8.305-4.114 7.219-3.881 13.351-7.995 19.094-13.894 3.337-3.415 6.52-6.831 10.401-9.624 3.415-2.483 6.21-5.434 9.159-8.383 6.52-6.52 13.273-12.885 19.482-19.638 7.063-7.685 13.040-16.378 19.948-24.295 2.095-2.329 4.424-4.657 6.675-6.985 2.483 3.493 4.657 7.141 6.132 11.177 0.156 0.232 0.232 0.466 0.388 0.621 1.32 1.552 2.407 1.707 2.639 3.803 0.388 2.483-1.941 4.58-2.173 6.675-0.388 3.415 5.356 3.881 6.753 6.21 1.552 2.561 0.932 6.908 0.466 9.936-0.31 2.018-0.232 3.183 0.156 5.356 0.698 3.803 1.785 8.383 1.552 12.264-0.232 4.036-1.941 7.607-2.407 11.488-0.854 6.831 1.32 13.972-0.621 20.647-0.621 1.941-1.475 3.959-2.173 5.822-2.329 6.831-6.365 11.177-11.488 16.378-7.685 7.917-15.679 15.602-23.441 23.363-1.087 1.242-0.621 6.365 3.571 5.2 1.475-0.388 1.941-1.552 3.183-2.329 1.32-0.932 2.639-1.552 3.959-2.483 10.944-7.451 26.623-8.227 32.523-21.889 1.475-3.415 2.095-7.219 3.337-10.712s3.726-5.822 5.899-8.771c3.415-4.657 7.373-10.246 9.624-15.524 2.018-4.657 5.122-9.237 5.822-14.204 0.31-1.863-0.078-2.561-0.078-4.346-0.078-3.105 1.941-5.744 2.018-8.849 0.232-4.89-2.329-8.926-4.114-13.273-1.785-4.424-3.105-8.926-5.588-13.040-2.717-4.657-3.803-10.789-3.803-16.222 0-2.949 0.156-5.511 0.698-8.383 0.932-4.036-0.078-6.21-2.949-9.314-2.795-3.027-6.054-4.346-8.305-7.685-0.388-0.621-0.854-1.164-1.32-1.785 1.397-1.164 2.717-2.561 4.114-3.726 4.812-4.036 9.624-7.995 14.515-11.953 1.32 2.018 2.483 4.192 3.881 6.054 1.009 1.32 2.407 3.183 3.803 4.114 2.872 1.785 7.762 0.854 10.401 2.949 1.32 1.087 3.027 3.26 3.881 4.657 1.552 2.483 1.164 5.899 2.872 8.305 1.397 1.941 4.968 4.502 4.424 1.475 1.32 1.475 9.547-7.373 10.324-8.073 2.329-2.018 5.2-3.648 5.2-6.442 0-1.785-1.087-2.639-2.018-3.803-1.242-1.552-1.707-3.337-2.872-4.89-2.795-4.114-8.227-4.192-11.41-7.685-3.105-3.493-6.985-6.132-10.168-9.702-0.388-0.466-0.854-0.932-1.242-1.397 0.31-0.31 0.698-0.544 1.009-0.854 5.744-5.122 11.177-10.634 16.611-16.145 0.854 1.397 1.63 2.795 2.639 4.036 1.009 1.397 2.329 3.26 3.803 4.192 2.795 1.785 7.762 0.776 10.324 2.949 1.397 1.087 3.105 3.26 3.881 4.58 1.552 2.561 1.242 5.977 2.872 8.383 1.397 1.941 5.046 4.502 4.424 1.397 1.32 1.552 9.624-7.373 10.324-7.995 2.329-2.095 5.2-3.648 5.2-6.52 0-1.707-1.087-2.561-1.941-3.726-1.242-1.552-1.785-3.337-2.872-4.968-2.872-4.036-8.305-4.192-11.41-7.607-3.183-3.493-7.063-6.21-10.246-9.702-0.31-0.388-0.621-0.698-0.932-1.087 4.346-4.192 8.771-8.383 13.195-12.497 0.776 1.242 1.475 2.483 2.329 3.648 1.087 1.32 2.407 3.183 3.881 4.114 2.795 1.785 7.762 0.854 10.324 2.949 1.397 1.087 3.105 3.26 3.881 4.657 1.552 2.483 1.242 5.899 2.872 8.305 1.397 1.941 5.046 4.502 4.424 1.397 1.32 1.552 9.547-7.297 10.324-7.995 2.329-2.095 5.2-3.648 5.2-6.442 0-1.785-1.087-2.639-2.018-3.803-1.242-1.552-1.707-3.337-2.795-4.89-2.872-4.114-8.305-4.192-11.41-7.685-3.183-3.493-7.063-6.132-10.246-9.702-0.078-0.078-0.156-0.232-0.232-0.31 1.397-1.397 2.795-2.795 4.114-4.269 6.21-6.675 11.177-14.36 17.154-21.19 10.401-11.953 20.336-24.45 31.669-35.55 13.351-13.273 26.468-25.925 37.025-41.604 5.977-9.004 11.41-19.327 19.017-27.011 1.087-2.795 1.941-5.666 0.388-7.451-2.483-3.105-5.356 1.242-7.219 3.183-2.251 2.483-3.415 5.122-5.822 7.451-2.329 2.329-4.734 5.511-7.451 7.373-5.046 3.415-11.022 6.21-16.3 9.47-3.726 2.251-7.297 4.734-11.022 6.831-8.693 4.89-17.93 8.771-25.692 14.98-8.383 6.675-14.903 15.679-22.121 23.519-7.451 8.15-15.136 16.067-22.277 24.606-4.502 5.278-8.693 10.789-13.117 16.067-1.164-1.009-2.407-2.018-3.726-2.949-3.337-2.483-6.054-5.666-9.392-7.917-1.552-1.087-2.561-1.552-3.183-3.493-0.466-1.552-0.31-3.027-1.475-4.269-2.717-3.105-5.744 0-9.547 0.932-0.388-2.173-0.854-3.26-3.337-3.571-0.776-0.078-1.707 0.31-2.483 0.232-1.707-0.232-2.717-1.475-4.114-2.173-1.397 3.183-3.337 5.356-6.132 7.839-1.164 1.009-2.329 2.407-3.648 3.183-1.785 1.087-4.424 0.854-5.666 2.949 5.356 1.397 8.849 5.356 13.506 8.073 2.949 1.707 5.046 4.269 7.219 6.831 2.407 2.717 4.812 5.511 8.227 7.063 2.795 1.242 5.046 2.795 7.063 4.968-3.959 3.959-7.839 7.917-11.798 11.798-1.32-1.242-2.717-2.329-4.269-3.493-3.337-2.407-5.977-5.588-9.392-7.839-1.552-1.087-2.561-1.552-3.183-3.493-0.466-1.552-0.31-3.027-1.397-4.269-2.795-3.105-5.744 0-9.624 0.854-0.388-2.095-0.854-3.26-3.337-3.493-0.776-0.078-1.707 0.31-2.407 0.232-1.785-0.232-2.795-1.552-4.192-2.173-1.397 3.183-3.337 5.278-6.054 7.839-1.164 1.009-2.407 2.407-3.726 3.183-1.785 1.087-4.424 0.854-5.666 2.949 5.356 1.397 8.849 5.356 13.506 7.995 2.949 1.707 5.046 4.346 7.219 6.908 2.407 2.639 4.812 5.511 8.227 7.063 3.027 1.32 5.511 2.949 7.607 5.511-4.968 5.744-9.858 11.643-14.826 17.465-1.863-1.941-3.881-3.648-6.21-5.278-3.26-2.483-5.977-5.588-9.314-7.917-1.63-1.087-2.561-1.552-3.183-3.493-0.466-1.552-0.31-3.027-1.475-4.269-2.795-3.105-5.744 0-9.547 0.932-0.388-2.095-0.932-3.26-3.337-3.571-0.776-0.078-1.707 0.31-2.483 0.232-1.707-0.232-2.717-1.475-4.114-2.173-1.397 3.183-3.337 5.356-6.132 7.839-1.164 1.087-2.329 2.407-3.648 3.183-1.785 1.087-4.424 0.854-5.666 2.949 5.356 1.397 8.849 5.356 13.506 8.073 2.949 1.707 4.968 4.346 7.219 6.831 2.329 2.717 4.812 5.588 8.227 7.063 3.027 1.397 5.511 3.027 7.685 5.588 0.854 1.009 1.552 2.095 2.251 3.26-3.959 4.734-7.995 9.392-12.109 14.049-0.776 0.544-1.552 1.164-2.329 1.707-0.932-0.932-1.785-1.863-2.639-2.717-3.959-4.192-10.478-4.89-15.214-8.073-2.483-1.707-4.269-3.493-6.365-5.588-1.475-1.397-3.26-2.251-4.968-3.337-3.26-2.018-6.132-4.657-9.624-6.054-7.373-3.027-15.214-3.183-22.975-2.483-4.346 0.388-8.693-0.544-13.040-0.388-3.648 0.156-7.219 0.232-10.867 0.078-7.917-0.388-16.378-2.095-24.14 0.466-8.383 2.795-14.592 11.255-20.802 17.309z"></path>
    <path fill="#000000" d="M526.968 987.032c1.32-1.475 1.164-4.346 1.242-6.21 0.078-2.949 0.078-5.899 0-8.926-0.621 1.941-1.087 3.881-1.32 5.744-0.232 3.027 0.156 6.287 0.078 9.392z"></path>
    <path fill="#000000" d="M412.689 899.477c-0.078 8.15 1.164 16.145 1.164 24.372-0.078 3.648-0.232 7.451 0.232 11.1 0-0.078 0.078-0.232 0.156-0.31 0 0.776 0.078 1.475 0.156 2.173-0.078-0.621-0.232-1.242-0.31-1.863-0.232 0.388-0.388 0.854-0.388 1.32 0 0.854 0.466 1.63 0.932 2.407 0.232 1.242 0.466 2.483 0.698 3.803 1.009 6.52 7.141 10.634 12.264 14.36 1.785 1.397 3.493 3.027 4.968 4.58 2.561 2.717 2.329 2.639 6.132-0.621-3.183-3.183-5.2-6.598-6.442-11.022-1.087-3.803-3.027-7.297-3.571-11.255-0.466-3.415-1.397-6.675-1.941-10.090-0.698-4.036-0.232-8.227-0.544-12.264-0.078-1.707-0.31-3.337-0.466-5.046 3.881-8.771 8.073-16.921 13.894-24.683 3.415-4.58 6.21-10.401 10.324-14.282 6.054-5.822 13.273-11.1 20.414-15.524 4.58-2.872 9.314-4.424 14.127-6.753 4.269-1.941 7.373-3.26 12.109-3.648 3.027-0.232 5.511-0.232 8.383-1.32 1.863-0.698 3.571-1.552 5.434-2.095-1.009 7.917-2.173 15.757-2.639 23.674-0.31 5.899-0.544 12.264 0.544 18.085 1.785 9.004 1.32 18.007 3.183 27.011 2.095 10.246 0.466 21.19 2.018 31.669 0.388 2.717 0.544 5.434 0.854 8.15 0.544 4.424 2.561 8.849 3.571 13.195 2.095 8.926 4.269 18.318 4.346 27.399 4.502 0 4.036-9.082 4.502-17.93 0.232-3.105 0.854-6.132 1.397-9.159 0 1.087 0 2.095 0 3.105 0 1.242 0 2.561 0 3.881 0.932-3.027 2.173-5.977 3.027-8.849 2.329-7.839 3.726-15.058 3.648-23.286-0.078-4.734-0.232-9.392 0.544-14.127 0.698-4.192 0.544-8.227 0.544-12.497 0-9.159 0.31-18.396-0.078-27.555-0.466-10.478-2.407-20.802-3.105-31.281-0.156-3.183-0.156-6.52-0.232-9.702 4.269 0.698 8.383 1.785 12.264 3.571 0.232 0.078 0.466 0.078 0.776 0.156 1.941 0.156 2.795-0.466 4.502 0.776 2.018 1.552 1.863 4.657 3.183 6.287 2.095 2.717 6.52-1.009 9.159-0.388 2.949 0.776 5.511 4.269 7.297 6.753 1.242 1.63 2.095 2.407 3.881 3.648 3.26 2.173 7.219 4.657 9.858 7.607s4.036 6.675 6.442 9.78c4.192 5.434 10.789 8.926 14.127 15.058 0.932 1.785 1.707 3.803 2.639 5.666 3.105 6.442 3.337 12.341 3.415 19.716 0.156 11.022-0.078 22.044-0.078 33.066 0.078 1.63 4.036 4.968 6.21 1.164 0.776-1.397 0.31-2.483 0.544-3.959 0.31-1.475 0.854-2.949 1.164-4.502 2.407-13.040 12.963-24.683 7.451-38.499-1.397-3.415-3.571-6.598-5.2-9.936-1.552-3.337-1.475-6.753-2.018-10.324-0.932-5.744-2.095-12.497-4.192-17.853-1.863-4.734-2.872-10.168-5.899-14.127-1.164-1.552-1.863-1.785-3.183-3.027-2.251-2.095-2.717-5.434-4.734-7.685-3.337-3.648-7.995-4.657-12.341-6.442-4.424-1.941-8.538-4.114-13.195-5.278-5.2-1.397-10.324-4.968-14.204-8.771-2.018-2.095-3.803-4.036-5.356-6.52-2.251-3.415-4.424-4.269-8.693-4.424-4.114-0.156-7.373 1.164-11.332 0.388-0.698-0.078-1.397-0.156-2.173-0.31 0.156-1.785 0.156-3.726 0.232-5.511 0.544-6.287 1.164-12.497 1.785-18.706 2.407 0.466 4.734 1.164 7.063 1.475 1.707 0.232 3.959 0.621 5.666 0.232 3.183-0.698 6.054-4.89 9.392-5.2 1.707-0.232 4.502 0.078 6.054 0.466 2.795 0.698 5.046 3.415 7.917 3.881 2.329 0.388 6.675-0.388 4.114-2.095 2.018 0.156 1.552-11.953 1.63-12.963 0.156-3.105 1.087-6.21-0.932-8.305-1.242-1.242-2.561-1.087-4.036-1.242-2.018-0.156-3.571-1.087-5.511-1.475-4.89-0.854-8.849 2.949-13.506 2.717-4.734-0.232-9.314 0.621-14.049 0.31-0.621 0-1.242-0.078-1.863-0.078 0-0.466 0.078-0.854 0.078-1.32 0.466-7.685 0.388-15.446 0.31-23.208 1.552 0.466 3.183 0.854 4.734 1.087 1.707 0.156 3.959 0.544 5.666 0.232 3.183-0.776 6.054-4.968 9.392-5.278 1.707-0.156 4.502 0.156 6.054 0.544 2.795 0.698 5.046 3.337 7.917 3.803 2.329 0.466 6.675-0.31 4.114-2.095 2.018 0.156 1.552-11.953 1.63-12.963 0.156-3.105 1.087-6.21-0.932-8.227-1.242-1.242-2.561-1.087-4.036-1.242-2.018-0.232-3.571-1.164-5.511-1.475-4.89-0.854-8.849 2.872-13.506 2.639-4.734-0.232-9.314 0.621-14.049 0.388-0.466-0.078-0.932-0.078-1.397-0.078 0.078-6.054 0.232-12.187 0.466-18.241 1.397 0.388 2.795 0.776 4.192 0.932 1.707 0.232 3.959 0.621 5.666 0.232 3.183-0.776 6.054-4.89 9.392-5.278 1.707-0.156 4.502 0.156 6.054 0.544 2.795 0.698 5.046 3.337 7.917 3.881 2.329 0.388 6.675-0.388 4.114-2.095 2.018 0.156 1.552-11.953 1.63-13.040 0.156-3.027 1.087-6.21-0.932-8.227-1.242-1.242-2.561-1.087-4.036-1.242-2.018-0.232-3.571-1.087-5.511-1.475-4.89-0.854-8.849 2.949-13.506 2.717-4.734-0.31-9.314 0.544-14.049 0.31h-0.388c0-2.018 0-4.036-0.078-5.977-0.388-9.082-2.251-18.007-2.872-27.089-1.087-15.834-2.872-31.669-2.795-47.503 0.078-18.862 0.466-37.102-3.26-55.654-2.095-10.634-5.511-21.733-5.588-32.601-1.242-2.717-2.639-5.278-5.046-5.511-3.959-0.388-2.872 4.657-2.795 7.373 0.078 3.337 1.164 6.054 1.164 9.392s0.466 7.219-0.078 10.478c-1.164 5.977-3.415 12.187-4.89 18.241-1.009 4.192-1.707 8.461-2.949 12.652-2.639 9.547-6.442 18.862-7.607 28.719-1.164 10.634 0.621 21.656 1.087 32.212 0.466 11.1 0.698 22.121 1.63 33.221 0.544 6.908 1.475 13.739 2.095 20.569-1.63 0.156-3.183 0.388-4.812 0.621-4.036 0.621-8.15 0.232-12.187 1.009-1.863 0.388-2.872 0.698-4.734-0.232-1.397-0.776-2.329-1.863-4.036-1.941-4.114-0.232-4.036 4.036-6.132 7.373-1.785-1.164-2.949-1.707-4.812-0.156-0.621 0.544-1.009 1.397-1.63 1.941-1.32 1.009-2.949 0.854-4.424 1.397 1.242 3.26 1.397 6.132 1.242 9.858-0.078 1.552 0 3.337-0.388 4.812-0.466 2.018-2.483 3.726-1.941 6.132 4.812-2.795 10.090-2.483 15.214-3.881 3.337-0.932 6.675-0.466 10.012-0.232 3.571 0.156 7.297 0.466 10.789-0.854 2.872-1.087 5.588-1.552 8.538-1.475 0 5.588 0 11.1 0 16.688-1.863 0.078-3.571 0.31-5.511 0.544-4.036 0.621-8.15 0.31-12.187 1.087-1.863 0.31-2.872 0.698-4.734-0.232-1.397-0.776-2.329-1.941-4.036-2.018-4.114-0.232-4.036 4.114-6.132 7.451-1.785-1.242-2.949-1.707-4.812-0.156-0.621 0.466-1.009 1.397-1.63 1.863-1.32 1.087-2.949 0.854-4.424 1.397 1.242 3.26 1.397 6.132 1.242 9.858-0.078 1.552 0 3.415-0.388 4.89-0.466 2.018-2.483 3.726-1.941 6.054 4.812-2.795 10.090-2.407 15.214-3.803 3.337-0.932 6.675-0.544 10.012-0.31 3.571 0.232 7.297 0.544 10.789-0.776 3.105-1.164 6.054-1.785 9.314-1.552 0.544 7.685 1.242 15.291 1.863 22.897-2.795-0.078-5.356 0.232-8.15 0.621-4.036 0.621-8.15 0.232-12.187 1.009-1.863 0.388-2.872 0.776-4.734-0.232-1.397-0.698-2.329-1.863-4.036-1.941-4.114-0.232-4.036 4.036-6.132 7.451-1.785-1.242-2.949-1.707-4.812-0.156-0.621 0.466-1.009 1.397-1.63 1.863-1.32 1.009-2.949 0.854-4.424 1.397 1.242 3.26 1.397 6.132 1.242 9.858-0.078 1.552 0 3.415-0.388 4.89-0.466 2.018-2.483 3.648-1.941 6.054 4.812-2.795 10.090-2.483 15.214-3.881 3.337-0.854 6.675-0.466 10.012-0.232 3.571 0.232 7.297 0.544 10.789-0.854 3.105-1.164 6.054-1.785 9.392-1.475 1.32 0.156 2.639 0.388 3.959 0.698 0.544 6.132 1.009 12.341 1.32 18.473-0.156 1.009-0.31 1.941-0.466 2.872-1.242 0-2.561 0-3.803 0-5.744-0.156-10.789 3.881-16.455 4.968-2.949 0.621-5.511 0.621-8.383 0.621-2.095 0-3.959 0.698-5.977 1.164-3.648 0.776-7.529 1.009-11.022 2.483-7.373 3.105-13.040 8.461-18.007 14.515-2.795 3.337-6.52 5.744-9.47 8.926-2.483 2.639-4.968 5.278-7.607 7.685-5.899 5.356-13.117 10.168-16.766 17.465-3.959 7.917-2.407 18.318-2.483 26.934z"></path>
    <path fill="#000000" d="M865.281 844.135c-0.156-2.018-2.251-3.881-3.493-5.278-2.018-2.173-4.192-4.192-6.365-6.287 1.009 1.785 1.941 3.493 3.183 4.968 1.941 2.329 4.58 4.346 6.675 6.598z"></path>
    <path fill="#000000" d="M722.592 863.074c5.666 5.822 12.264 10.556 18.007 16.455 2.561 2.561 5.122 5.356 7.995 7.607 0-0.078 0-0.156-0.078-0.232 0.544 0.544 1.087 0.932 1.707 1.32-0.544-0.31-1.087-0.698-1.63-1.087 0.232 0.466 0.388 0.932 0.698 1.242 0.621 0.544 1.475 0.854 2.407 1.087 1.009 0.698 2.018 1.397 3.183 2.173 5.278 3.881 12.575 2.483 18.784 1.475 2.251-0.31 4.58-0.388 6.831-0.31 3.726 0.156 3.415 0.232 3.881-4.812-4.58 0-8.305-0.932-12.419-3.183-3.415-1.941-7.219-3.027-10.478-5.434-2.795-2.095-5.666-3.726-8.538-5.744-3.26-2.329-5.899-5.666-9.004-8.305-1.242-1.087-2.561-2.173-3.881-3.26-3.493-8.849-6.287-17.697-7.685-27.245-0.776-5.666-2.872-11.798-2.795-17.387 0.156-8.461 1.552-17.309 3.493-25.382 1.242-5.278 3.493-9.78 5.278-14.826 1.552-4.424 2.872-7.529 5.899-11.177 2.018-2.329 3.726-4.036 4.968-6.753 0.854-1.863 1.475-3.648 2.407-5.356 4.89 6.287 9.624 12.652 14.903 18.629 3.881 4.346 8.227 9.004 13.117 12.341 7.685 5.122 13.661 11.798 21.345 16.843 8.771 5.822 15.368 14.67 23.829 20.957 2.251 1.63 4.269 3.493 6.365 5.122 3.571 2.795 8.073 4.502 11.876 6.908 7.762 4.812 15.99 9.858 22.432 16.222 3.183-3.183-3.493-9.237-9.47-15.834-2.095-2.329-3.726-4.89-5.511-7.373l2.173 2.173c0.932 0.854 1.863 1.785 2.795 2.639-1.475-2.795-2.717-5.744-4.114-8.305-3.881-7.219-7.995-13.351-13.894-19.094-3.415-3.337-6.831-6.52-9.624-10.401-2.483-3.415-5.434-6.21-8.383-9.159-6.52-6.52-12.885-13.273-19.638-19.482-7.685-7.063-16.378-13.040-24.295-19.948-2.329-2.095-4.657-4.424-6.985-6.675 3.493-2.483 7.141-4.657 11.177-6.132 0.232-0.156 0.466-0.232 0.621-0.388 1.552-1.32 1.707-2.407 3.803-2.639 2.483-0.388 4.58 1.941 6.675 2.173 3.415 0.388 3.881-5.356 6.21-6.753 2.561-1.552 6.908-0.854 9.936-0.466 2.018 0.31 3.183 0.232 5.356-0.156 3.803-0.698 8.383-1.785 12.264-1.552 4.036 0.232 7.607 1.941 11.488 2.407 6.831 0.854 13.972-1.397 20.647 0.621 1.941 0.621 3.881 1.475 5.822 2.173 6.831 2.329 11.177 6.365 16.378 11.488 7.917 7.685 15.602 15.679 23.363 23.441 1.242 1.087 6.365 0.621 5.2-3.571-0.388-1.475-1.552-1.941-2.329-3.183-0.932-1.32-1.552-2.639-2.483-3.959-7.451-10.944-8.227-26.623-21.889-32.523-3.415-1.475-7.219-2.095-10.712-3.337s-5.822-3.726-8.771-5.899c-4.657-3.415-10.246-7.373-15.524-9.624-4.657-2.018-9.237-5.122-14.204-5.822-1.863-0.31-2.561 0.078-4.346 0.078-3.105 0.078-5.744-1.863-8.849-2.018-4.89-0.232-8.926 2.329-13.273 4.114-4.424 1.785-8.926 3.105-13.040 5.588-4.657 2.717-10.789 3.803-16.222 3.803-2.949 0-5.511-0.156-8.383-0.776-4.036-0.854-6.21 0.156-9.314 3.027-3.027 2.795-4.346 6.054-7.685 8.305-0.621 0.388-1.164 0.854-1.785 1.32-1.242-1.397-2.561-2.717-3.726-4.114-4.036-4.812-7.995-9.624-11.953-14.515 1.941-1.32 4.192-2.483 6.054-3.881 1.32-1.009 3.183-2.407 4.114-3.803 1.785-2.872 0.854-7.762 2.949-10.401 1.087-1.32 3.26-3.027 4.657-3.881 2.483-1.552 5.899-1.164 8.305-2.872 1.941-1.397 4.502-4.968 1.397-4.424 1.552-1.32-7.297-9.547-7.995-10.324-2.095-2.329-3.648-5.2-6.442-5.2-1.785 0-2.639 1.087-3.803 2.018-1.552 1.242-3.337 1.707-4.89 2.872-4.114 2.795-4.192 8.227-7.685 11.41s-6.132 6.985-9.702 10.168c-0.466 0.388-0.932 0.854-1.397 1.242-0.31-0.31-0.544-0.698-0.854-1.009-5.122-5.744-10.634-11.177-16.145-16.611 1.397-0.776 2.795-1.63 4.036-2.561 1.397-1.087 3.26-2.407 4.192-3.881 1.707-2.795 0.776-7.762 2.949-10.324 1.087-1.397 3.183-3.105 4.58-3.881 2.483-1.552 5.977-1.242 8.383-2.872 1.941-1.397 4.502-5.046 1.397-4.424 1.552-1.32-7.373-9.624-7.995-10.324-2.095-2.329-3.648-5.2-6.52-5.2-1.707 0-2.561 1.087-3.726 1.941-1.552 1.242-3.337 1.785-4.968 2.872-4.036 2.872-4.192 8.305-7.607 11.41-3.493 3.183-6.21 7.063-9.702 10.246-0.388 0.31-0.698 0.621-1.087 0.932-4.192-4.346-8.383-8.771-12.497-13.195 1.242-0.776 2.483-1.475 3.571-2.329 1.397-1.009 3.26-2.407 4.192-3.881 1.785-2.795 0.854-7.762 2.949-10.324 1.087-1.397 3.26-3.105 4.657-3.881 2.483-1.552 5.899-1.242 8.305-2.872 1.941-1.397 4.502-5.046 1.397-4.424 1.552-1.32-7.373-9.547-7.995-10.324-2.095-2.329-3.648-5.2-6.442-5.2-1.785 0-2.639 1.087-3.803 2.018-1.552 1.242-3.337 1.707-4.89 2.795-4.114 2.872-4.192 8.305-7.685 11.488-3.493 3.105-6.21 6.985-9.702 10.168-0.078 0.078-0.232 0.156-0.31 0.31-1.397-1.475-2.795-2.872-4.269-4.192-6.675-6.21-14.36-11.177-21.19-17.154-11.953-10.401-24.45-20.336-35.55-31.669-13.273-13.351-25.925-26.468-41.604-37.025-9.004-5.977-19.327-11.41-27.011-19.017-2.795-1.087-5.666-1.863-7.451-0.388-3.105 2.483 1.242 5.356 3.183 7.219 2.407 2.251 5.122 3.415 7.451 5.822 2.329 2.329 5.511 4.734 7.373 7.451 3.415 5.046 6.21 11.022 9.47 16.3 2.251 3.726 4.734 7.297 6.831 11.022 4.89 8.693 8.771 17.93 14.98 25.692 6.675 8.383 15.679 14.903 23.519 22.121 8.15 7.451 16.067 15.136 24.606 22.277 5.278 4.502 10.712 8.693 16.067 13.117-1.009 1.164-2.018 2.407-2.949 3.726-2.483 3.337-5.666 6.054-7.917 9.392-1.087 1.63-1.552 2.561-3.493 3.183-1.552 0.466-3.027 0.31-4.269 1.475-3.105 2.717 0 5.744 0.932 9.547-2.173 0.388-3.337 0.854-3.571 3.337-0.078 0.776 0.31 1.707 0.232 2.483-0.232 1.707-1.475 2.717-2.173 4.114 3.183 1.397 5.356 3.337 7.839 6.132 1.009 1.164 2.407 2.329 3.183 3.648 1.087 1.785 0.854 4.424 2.949 5.666 1.397-5.356 5.356-8.849 8.073-13.506 1.63-2.949 4.269-5.046 6.831-7.219 2.639-2.407 5.511-4.812 7.063-8.227 1.242-2.795 2.795-5.046 4.968-7.063 3.959 3.959 7.917 7.839 11.798 11.798-1.242 1.32-2.329 2.717-3.493 4.269-2.407 3.337-5.588 5.977-7.839 9.392-1.087 1.552-1.552 2.561-3.493 3.183-1.552 0.466-3.027 0.31-4.269 1.397-3.105 2.795 0 5.744 0.854 9.624-2.095 0.388-3.26 0.854-3.493 3.337-0.078 0.776 0.31 1.707 0.156 2.407-0.156 1.785-1.475 2.795-2.095 4.192 3.183 1.397 5.278 3.337 7.839 6.054 1.009 1.164 2.407 2.407 3.183 3.726 1.087 1.785 0.854 4.424 2.872 5.666 1.475-5.356 5.434-8.849 8.073-13.506 1.707-2.949 4.346-5.046 6.908-7.219 2.639-2.407 5.511-4.812 7.063-8.227 1.32-3.027 2.949-5.511 5.511-7.607 5.744 4.968 11.643 9.858 17.465 14.826-1.941 1.863-3.648 3.881-5.278 6.21-2.483 3.26-5.588 5.977-7.917 9.314-1.087 1.63-1.552 2.561-3.493 3.183-1.552 0.466-3.027 0.31-4.269 1.475-3.105 2.795 0 5.744 0.932 9.547-2.095 0.388-3.26 0.932-3.571 3.337-0.078 0.776 0.31 1.707 0.232 2.483-0.232 1.707-1.475 2.717-2.173 4.114 3.183 1.397 5.356 3.337 7.839 6.132 1.087 1.164 2.407 2.329 3.183 3.648 1.087 1.785 0.854 4.424 2.949 5.744 1.397-5.434 5.356-8.926 8.073-13.583 1.707-2.949 4.346-4.968 6.831-7.219 2.717-2.329 5.588-4.812 7.063-8.227 1.397-3.027 3.027-5.511 5.588-7.685 1.009-0.854 2.095-1.552 3.26-2.251 4.734 3.959 9.392 7.995 14.049 12.109 0.544 0.776 1.164 1.552 1.707 2.329-0.932 0.932-1.863 1.785-2.717 2.639-4.192 3.959-4.89 10.478-8.073 15.214-1.707 2.483-3.493 4.269-5.588 6.365-1.397 1.475-2.251 3.26-3.337 4.968-2.018 3.26-4.657 6.132-6.054 9.624-3.027 7.373-3.183 15.214-2.483 22.975 0.388 4.346-0.544 8.693-0.388 13.040 0.156 3.648 0.232 7.219 0.078 10.867-0.388 7.917-2.095 16.378 0.466 24.14 2.795 8.383 11.255 14.592 17.309 20.802z"></path>
    <path fill="#000000" d="M1001.907 504.703c-1.475-1.32-4.346-1.164-6.21-1.242-2.949-0.078-5.977-0.078-8.926 0 1.941 0.621 3.881 1.164 5.744 1.32 3.027 0.232 6.287-0.156 9.392-0.078z"></path>
    <path fill="#000000" d="M914.391 619.037c8.15 0.078 16.145-1.242 24.372-1.164 3.648 0.078 7.451 0.232 11.1-0.232-0.078 0-0.232-0.078-0.31-0.156 0.776 0 1.475-0.078 2.173-0.156-0.621 0.078-1.242 0.232-1.863 0.31 0.388 0.232 0.854 0.388 1.32 0.388 0.854 0 1.63-0.466 2.407-0.932 1.242-0.232 2.483-0.466 3.803-0.698 6.52-1.009 10.634-7.141 14.36-12.264 1.397-1.785 3.027-3.493 4.58-4.968 2.717-2.561 2.639-2.329-0.621-6.132-3.183 3.183-6.598 5.2-11.022 6.442-3.803 1.087-7.297 3.027-11.255 3.571-3.415 0.466-6.675 1.397-10.090 1.941-4.036 0.698-8.227 0.232-12.264 0.544-1.707 0.078-3.337 0.31-5.046 0.466-8.771-3.881-16.921-8.073-24.683-13.894-4.58-3.415-10.401-6.21-14.282-10.324-5.822-6.054-11.1-13.273-15.524-20.414-2.872-4.58-4.424-9.314-6.753-14.127-1.941-4.269-3.26-7.373-3.648-12.109-0.232-3.027-0.232-5.511-1.32-8.383-0.698-1.863-1.552-3.571-2.095-5.434 7.917 1.009 15.757 2.173 23.674 2.639 5.899 0.31 12.264 0.544 18.085-0.544 9.004-1.785 18.007-1.32 27.011-3.183 10.246-2.095 21.19-0.466 31.669-2.018 2.717-0.466 5.434-0.544 8.15-0.854 4.424-0.544 8.849-2.561 13.195-3.571 8.926-2.095 18.318-4.269 27.399-4.346 0-4.502-9.082-4.036-17.93-4.58-3.105-0.156-6.132-0.776-9.159-1.32 1.087 0 2.095 0 3.105 0 1.242 0 2.561 0 3.881 0-3.027-0.932-5.977-2.173-8.849-3.027-7.839-2.329-15.058-3.726-23.286-3.648-4.812 0.078-9.47 0.232-14.127-0.544-4.192-0.698-8.227-0.544-12.497-0.544-9.159 0-18.396-0.31-27.633 0.078-10.401 0.466-20.802 2.407-31.203 3.105-3.183 0.156-6.52 0.156-9.702 0.232 0.698-4.269 1.785-8.383 3.571-12.264 0.078-0.232 0.078-0.466 0.156-0.776 0.156-1.941-0.466-2.795 0.776-4.502 1.552-2.018 4.657-1.863 6.287-3.183 2.717-2.095-1.009-6.52-0.388-9.159 0.698-2.949 4.269-5.511 6.753-7.297 1.63-1.242 2.407-2.095 3.648-3.959 2.173-3.183 4.657-7.141 7.607-9.78s6.675-4.036 9.78-6.442c5.434-4.192 8.926-10.789 15.058-14.127 1.785-0.932 3.803-1.707 5.666-2.639 6.442-3.105 12.341-3.337 19.716-3.415 11.022-0.156 22.044 0.078 33.066 0.078 1.63-0.078 4.968-4.036 1.164-6.21-1.397-0.776-2.483-0.31-3.959-0.544-1.552-0.31-2.949-0.854-4.502-1.164-13.040-2.407-24.683-12.963-38.499-7.451-3.415 1.397-6.598 3.571-9.936 5.2-3.337 1.552-6.753 1.475-10.324 2.018-5.744 0.932-12.497 2.095-17.853 4.192-4.734 1.863-10.168 2.872-14.127 5.899-1.552 1.164-1.785 1.863-3.027 3.183-2.095 2.251-5.434 2.717-7.685 4.734-3.648 3.337-4.657 7.995-6.52 12.341-1.863 4.424-4.036 8.538-5.2 13.195-1.397 5.2-4.968 10.324-8.771 14.204-2.095 2.018-4.036 3.803-6.52 5.356-3.415 2.251-4.269 4.424-4.424 8.693-0.156 4.114 1.164 7.373 0.388 11.332-0.078 0.698-0.156 1.397-0.31 2.173-1.863-0.156-3.726-0.156-5.511-0.31-6.287-0.466-12.497-1.087-18.706-1.707 0.466-2.407 1.164-4.734 1.475-7.063 0.232-1.707 0.621-3.959 0.232-5.666-0.698-3.183-4.89-6.054-5.278-9.392-0.156-1.707 0.156-4.502 0.544-6.054 0.698-2.795 3.415-5.046 3.881-7.917 0.388-2.329-0.388-6.675-2.095-4.114 0.156-2.018-11.953-1.552-12.963-1.63-3.105-0.156-6.287-1.087-8.305 0.932-1.242 1.242-1.087 2.561-1.242 4.036-0.156 2.018-1.087 3.571-1.475 5.511-0.854 4.89 2.949 8.849 2.717 13.506-0.232 4.734 0.544 9.314 0.31 14.049 0 0.621-0.078 1.242-0.078 1.863-0.466 0-0.854-0.078-1.32-0.078-7.685-0.466-15.446-0.388-23.208-0.31 0.466-1.63 0.854-3.183 1.087-4.734 0.156-1.707 0.544-3.959 0.156-5.666-0.698-3.183-4.89-6.054-5.2-9.392-0.156-1.707 0.156-4.502 0.544-6.054 0.698-2.795 3.337-5.046 3.803-7.917 0.466-2.329-0.31-6.675-2.095-4.114 0.156-2.018-11.953-1.552-12.963-1.63-3.105-0.156-6.21-1.087-8.227 0.932-1.242 1.242-1.087 2.561-1.242 4.036-0.232 2.018-1.164 3.571-1.475 5.511-0.854 4.89 2.872 8.849 2.639 13.506-0.232 4.734 0.621 9.314 0.388 14.049-0.078 0.466-0.078 0.932-0.078 1.397-6.054-0.078-12.187-0.232-18.241-0.466 0.388-1.397 0.776-2.795 0.932-4.192 0.232-1.707 0.621-3.959 0.232-5.666-0.776-3.183-4.89-6.054-5.278-9.392-0.156-1.707 0.156-4.502 0.544-6.054 0.698-2.795 3.337-5.046 3.881-7.917 0.388-2.329-0.388-6.675-2.095-4.114 0.156-2.018-11.953-1.552-13.040-1.63-3.027-0.156-6.21-1.087-8.227 0.932-1.242 1.242-1.087 2.561-1.242 4.036-0.232 2.018-1.164 3.571-1.475 5.511-0.854 4.89 2.872 8.849 2.639 13.506-0.232 4.734 0.621 9.314 0.388 14.049 0 0.156 0 0.31 0 0.388-2.018 0-4.036 0-5.977 0.078-9.082 0.388-18.007 2.251-27.089 2.872-15.834 1.087-31.747 2.872-47.503 2.795-18.862-0.078-37.102-0.466-55.654 3.26-10.634 2.095-21.733 5.511-32.601 5.588-2.717 1.242-5.278 2.639-5.511 5.046-0.388 3.959 4.657 2.872 7.373 2.795 3.337-0.078 6.054-1.164 9.392-1.164s7.219-0.466 10.478 0.078c5.977 1.164 12.187 3.415 18.241 4.89 4.192 1.009 8.461 1.707 12.652 2.949 9.547 2.639 18.862 6.442 28.719 7.607 10.634 1.164 21.656-0.621 32.212-1.087 11.1-0.466 22.121-0.698 33.221-1.63 6.908-0.544 13.739-1.475 20.569-2.095 0.156 1.63 0.31 3.183 0.621 4.812 0.621 4.036 0.232 8.15 1.009 12.187 0.388 1.863 0.698 2.872-0.232 4.734-0.776 1.397-1.863 2.329-1.941 4.036-0.232 4.114 4.036 4.036 7.373 6.132-1.164 1.785-1.707 2.949-0.156 4.812 0.544 0.621 1.397 1.009 1.863 1.63 1.087 1.32 0.932 2.949 1.475 4.424 3.183-1.242 6.132-1.397 9.858-1.242 1.552 0.078 3.337 0 4.812 0.388 2.018 0.466 3.726 2.483 6.132 1.941-2.795-4.812-2.483-10.090-3.881-15.214-0.932-3.337-0.466-6.675-0.232-10.012 0.156-3.571 0.466-7.297-0.854-10.789-1.087-2.872-1.552-5.588-1.475-8.538 5.588 0 11.1 0 16.688 0 0.078 1.785 0.31 3.571 0.544 5.511 0.621 4.036 0.31 8.15 1.087 12.187 0.31 1.863 0.698 2.872-0.232 4.734-0.776 1.397-1.941 2.329-2.018 4.036-0.232 4.114 4.114 4.036 7.451 6.132-1.242 1.785-1.707 2.949-0.156 4.812 0.466 0.621 1.397 1.009 1.863 1.63 1.087 1.32 0.854 2.949 1.397 4.424 3.26-1.242 6.132-1.397 9.858-1.242 1.552 0.078 3.415 0 4.89 0.388 2.018 0.466 3.726 2.483 6.054 1.941-2.795-4.812-2.407-10.090-3.803-15.214-0.932-3.337-0.544-6.675-0.31-10.012 0.232-3.571 0.544-7.297-0.776-10.789-1.164-3.105-1.785-6.054-1.552-9.314 7.685-0.544 15.291-1.242 22.897-1.863-0.078 2.717 0.232 5.278 0.621 8.15 0.621 4.036 0.232 8.15 1.009 12.187 0.388 1.863 0.776 2.872-0.232 4.734-0.698 1.397-1.863 2.329-1.941 4.036-0.232 4.114 4.036 4.036 7.373 6.132-1.164 1.785-1.63 2.949-0.156 4.812 0.544 0.621 1.475 1.009 1.941 1.63 1.009 1.32 0.854 2.949 1.397 4.424 3.26-1.242 6.132-1.397 9.858-1.242 1.552 0.078 3.337 0 4.89 0.388 2.018 0.466 3.648 2.483 6.054 1.941-2.795-4.812-2.483-10.090-3.881-15.214-0.932-3.337-0.466-6.675-0.232-10.012 0.232-3.571 0.466-7.297-0.854-10.789-1.164-3.183-1.785-6.054-1.475-9.392 0.156-1.32 0.388-2.639 0.698-3.959 6.132-0.544 12.341-1.009 18.473-1.32 1.009 0.156 1.941 0.31 2.872 0.466 0 1.242 0 2.561 0 3.803-0.156 5.744 3.881 10.789 4.968 16.455 0.621 2.949 0.621 5.511 0.621 8.383 0 2.095 0.698 3.959 1.087 5.977 0.854 3.648 1.087 7.529 2.561 11.022 3.105 7.373 8.461 13.040 14.515 18.007 3.337 2.795 5.744 6.52 8.926 9.47 2.639 2.483 5.278 4.968 7.685 7.607 5.356 5.899 10.168 13.117 17.465 16.766 7.917 3.959 18.318 2.407 26.934 2.483z"></path>
    <path fill="#000000" d="M855.454 170.008c-2.018 0.156-3.881 2.251-5.278 3.493-2.173 2.018-4.192 4.192-6.287 6.365 1.785-0.932 3.493-1.941 4.968-3.183 2.329-1.941 4.346-4.58 6.598-6.675z"></path>
    <path fill="#000000" d="M874.386 312.673c5.822-5.666 10.556-12.264 16.378-18.007 2.639-2.561 5.434-5.122 7.685-8.073-0.078 0.078-0.156 0.078-0.232 0.156 0.544-0.544 0.932-1.164 1.32-1.707-0.31 0.544-0.698 1.087-1.087 1.552 0.466-0.156 0.854-0.31 1.242-0.621 0.544-0.621 0.854-1.475 1.087-2.407 0.698-1.009 1.397-2.095 2.173-3.183 3.881-5.278 2.483-12.575 1.475-18.784-0.31-2.251-0.388-4.58-0.31-6.831 0.156-3.726 0.232-3.415-4.812-3.881 0 4.502-0.932 8.305-3.183 12.341-1.941 3.493-3.027 7.297-5.434 10.556-2.095 2.795-3.726 5.666-5.744 8.538-2.329 3.26-5.666 5.899-8.305 9.004-1.087 1.242-2.173 2.561-3.26 3.881-8.849 3.493-17.697 6.287-27.245 7.685-5.666 0.776-11.798 2.872-17.465 2.795-8.383-0.156-17.231-1.552-25.304-3.493-5.278-1.242-9.78-3.493-14.826-5.278-4.424-1.552-7.529-2.872-11.177-5.899-2.329-2.018-4.036-3.726-6.753-4.968-1.863-0.854-3.648-1.475-5.356-2.407 6.287-4.89 12.652-9.624 18.551-14.903 4.424-3.881 9.082-8.227 12.419-13.117 5.122-7.685 11.798-13.661 16.843-21.345 5.822-8.771 14.67-15.368 20.957-23.829 1.63-2.251 3.493-4.269 5.122-6.365 2.795-3.571 4.502-8.073 6.908-11.876 4.812-7.762 9.858-15.99 16.222-22.432-3.183-3.183-9.237 3.493-15.912 9.47-2.251 2.095-4.812 3.726-7.373 5.511 0.776-0.776 1.475-1.475 2.173-2.173 0.932-0.932 1.863-1.863 2.717-2.795-2.795 1.475-5.744 2.717-8.305 4.114-7.219 3.881-13.351 7.995-19.094 13.894-3.337 3.415-6.52 6.831-10.401 9.624-3.415 2.483-6.21 5.434-9.159 8.383-6.52 6.52-13.273 12.885-19.482 19.638-7.063 7.685-13.040 16.378-19.948 24.295-2.095 2.329-4.424 4.657-6.675 6.985-2.483-3.493-4.657-7.141-6.132-11.177-0.156-0.232-0.232-0.466-0.388-0.621-1.32-1.552-2.407-1.707-2.639-3.803-0.388-2.483 1.941-4.58 2.173-6.675 0.388-3.415-5.356-3.881-6.753-6.21-1.552-2.561-0.932-6.908-0.466-9.936 0.31-2.018 0.232-3.183-0.156-5.356-0.698-3.803-1.785-8.383-1.552-12.341s1.941-7.529 2.407-11.41c0.854-6.831-1.397-13.972 0.621-20.647 0.621-1.941 1.475-3.959 2.173-5.822 2.329-6.831 6.365-11.177 11.488-16.378 7.685-7.917 15.679-15.602 23.441-23.363 1.087-1.242 0.621-6.365-3.571-5.2-1.475 0.388-1.941 1.552-3.183 2.329-1.32 0.932-2.639 1.552-3.959 2.483-10.944 7.451-26.623 8.227-32.523 21.889-1.475 3.415-2.095 7.219-3.337 10.712s-3.726 5.822-5.899 8.771c-3.415 4.657-7.373 10.246-9.624 15.524-2.018 4.657-5.122 9.237-5.822 14.204-0.31 1.863 0.078 2.561 0.078 4.346 0.078 3.105-1.941 5.744-2.018 8.849-0.232 4.89 2.329 8.926 4.114 13.273 1.785 4.424 3.105 8.926 5.588 13.040 2.717 4.657 3.803 10.789 3.803 16.222 0 2.949-0.156 5.511-0.776 8.383-0.854 4.036 0.156 6.21 3.027 9.314 2.795 3.027 6.054 4.346 8.305 7.685 0.388 0.621 0.854 1.164 1.32 1.785-1.397 1.164-2.717 2.561-4.114 3.726-4.812 4.036-9.624 7.995-14.515 11.953-1.32-1.941-2.483-4.192-3.881-6.054-1.009-1.32-2.407-3.183-3.803-4.114-2.872-1.785-7.762-0.854-10.401-2.949-1.32-1.087-3.027-3.26-3.881-4.657-1.552-2.483-1.164-5.899-2.872-8.305-1.397-1.941-5.046-4.502-4.424-1.397-1.32-1.552-9.547 7.297-10.324 7.995-2.329 2.018-5.2 3.648-5.2 6.442 0 1.785 1.087 2.639 2.018 3.803 1.242 1.552 1.707 3.337 2.872 4.89 2.795 4.114 8.227 4.192 11.41 7.685 3.105 3.493 6.985 6.132 10.168 9.702 0.388 0.466 0.854 0.932 1.242 1.397-0.31 0.31-0.698 0.544-1.009 0.854-5.744 5.122-11.177 10.634-16.611 16.145-0.854-1.397-1.63-2.795-2.639-4.036-1.009-1.397-2.329-3.26-3.803-4.192-2.795-1.707-7.762-0.776-10.401-2.949-1.32-1.087-3.027-3.26-3.881-4.58-1.475-2.561-1.164-5.977-2.795-8.383-1.475-1.941-5.046-4.502-4.424-1.397-1.32-1.552-9.624 7.373-10.324 7.995-2.329 2.095-5.2 3.648-5.2 6.52 0 1.707 1.087 2.561 1.941 3.726 1.242 1.552 1.785 3.337 2.872 4.968 2.872 4.036 8.305 4.192 11.41 7.607 3.183 3.493 7.063 6.21 10.246 9.702 0.31 0.388 0.621 0.698 0.932 1.087-4.346 4.192-8.771 8.383-13.195 12.497-0.776-1.242-1.475-2.483-2.329-3.648-1.009-1.32-2.407-3.183-3.881-4.114-2.795-1.785-7.762-0.854-10.324-2.949-1.397-1.087-3.105-3.26-3.881-4.657-1.552-2.483-1.242-5.899-2.872-8.305-1.397-1.941-5.046-4.502-4.424-1.397-1.32-1.552-9.547 7.297-10.324 7.995-2.329 2.095-5.2 3.648-5.2 6.442 0 1.785 1.087 2.639 2.018 3.803 1.242 1.552 1.707 3.337 2.795 4.89 2.872 4.114 8.305 4.192 11.41 7.685 3.183 3.493 7.063 6.132 10.246 9.702 0.078 0.078 0.156 0.232 0.232 0.31-1.397 1.397-2.795 2.795-4.114 4.269-6.21 6.675-11.177 14.36-17.154 21.19-14.36 16.378-23.131 27.167-31.669 35.55-13.351 13.273-26.468 25.925-37.025 41.604-5.977 9.004-11.41 19.327-19.017 27.011-1.087 2.795-1.941 5.666-0.388 7.451 2.483 3.105 5.356-1.242 7.141-3.183 2.329-2.483 3.493-5.122 5.899-7.451 2.329-2.329 4.734-5.511 7.451-7.373 5.046-3.415 11.022-6.21 16.3-9.47 3.726-2.251 7.297-4.734 11.022-6.831 8.693-4.89 17.93-8.771 25.692-14.98 8.383-6.675 14.903-15.679 22.121-23.519 7.451-8.15 15.136-16.067 22.277-24.606 4.502-5.278 8.693-10.789 13.117-16.067 1.164 1.009 2.407 2.018 3.726 2.949 3.337 2.483 5.977 5.666 9.392 7.917 1.552 1.087 2.561 1.552 3.183 3.493 0.466 1.552 0.31 3.027 1.475 4.269 2.717 3.105 5.666 0 9.547-0.932 0.388 2.173 0.854 3.26 3.337 3.571 0.776 0.078 1.707-0.31 2.483-0.232 1.707 0.232 2.717 1.475 4.114 2.173 1.397-3.183 3.337-5.356 6.132-7.839 1.164-1.009 2.329-2.407 3.648-3.183 1.785-1.087 4.424-0.854 5.666-2.949-5.356-1.397-8.849-5.356-13.506-8.073-2.949-1.63-5.046-4.269-7.219-6.831-2.407-2.639-4.812-5.511-8.227-7.063-2.795-1.242-5.046-2.795-7.063-4.968 3.959-3.959 7.839-7.917 11.798-11.798 1.32 1.242 2.717 2.329 4.269 3.493 3.337 2.407 5.977 5.588 9.392 7.839 1.552 1.087 2.561 1.552 3.183 3.493 0.466 1.552 0.31 3.027 1.397 4.269 2.795 3.105 5.744 0 9.624-0.854 0.388 2.095 0.854 3.26 3.337 3.493 0.776 0.078 1.707-0.31 2.407-0.156 1.785 0.156 2.717 1.475 4.192 2.095 1.397-3.183 3.337-5.278 6.054-7.839 1.164-1.009 2.407-2.407 3.726-3.183 1.785-1.087 4.424-0.854 5.666-2.872-5.356-1.475-8.849-5.434-13.506-8.073-3.027-1.707-5.046-4.346-7.219-6.908-2.407-2.639-4.812-5.511-8.227-7.063-3.027-1.32-5.511-2.949-7.607-5.511 4.968-5.744 9.858-11.643 14.826-17.465 1.863 1.941 3.881 3.648 6.21 5.278 3.26 2.483 5.977 5.588 9.314 7.917 1.63 1.087 2.561 1.552 3.183 3.493 0.466 1.552 0.31 3.027 1.475 4.269 2.795 3.105 5.744 0 9.547-0.932 0.388 2.095 0.932 3.26 3.337 3.571 0.776 0.078 1.707-0.31 2.483-0.232 1.707 0.232 2.717 1.475 4.114 2.173 1.397-3.183 3.337-5.356 6.132-7.839 1.164-1.087 2.329-2.407 3.648-3.183 1.785-1.087 4.424-0.854 5.666-2.949-5.356-1.397-8.849-5.356-13.506-8.073-2.949-1.707-4.968-4.346-7.219-6.831-2.329-2.717-4.812-5.588-8.227-7.063-3.027-1.397-5.511-3.027-7.685-5.588-0.854-1.009-1.552-2.095-2.251-3.26 3.959-4.734 7.995-9.392 12.031-14.049 0.854-0.544 1.63-1.164 2.407-1.707 0.932 0.932 1.785 1.863 2.639 2.717 3.959 4.192 10.478 4.89 15.214 8.073 2.483 1.707 4.269 3.493 6.365 5.588 1.475 1.397 3.26 2.251 4.968 3.337 3.26 2.018 6.132 4.657 9.624 6.054 7.373 3.027 15.214 3.183 22.975 2.483 4.346-0.388 8.693 0.544 13.040 0.388 3.648-0.156 7.219-0.232 10.867-0.078 7.917 0.388 16.378 2.095 24.14-0.466 8.383-2.795 14.592-11.255 20.802-17.309z"></path>
    <path fill="#000000" d="M543.47 570.991c7.373-1.397 13.739-7.063 19.327-11.798 4.812-4.114 6.908-10.634 7.219-16.766 0.232-6.52 1.63-13.117 2.173-19.56 0.31-3.803 1.475-7.373 2.018-11.177 0.544-3.571 0.156-7.297 0.232-10.944 0-3.415 0.232-6.054-1.242-9.314-1.63-3.415-4.114-6.52-6.365-9.547-5.046-6.831-9.314-14.67-16.455-19.716-4.734-3.337-10.401-5.666-15.602-8.073-3.959-1.785-8.305-2.483-12.109-4.58-3.26-1.863-5.588-2.717-9.47-2.173-1.552 0.232-3.337 0.776-4.89 1.242-1.32 0.466-1.941 1.087-3.493 1.475-1.397 0.466-2.949 0.544-4.424 0.621l11.643-7.762c-1.475-0.31-2.407 0.698-3.648 1.164-1.785 0.621-3.803 0.621-5.356 1.63-4.502 2.949-9.159 6.365-13.195 10.090-3.26 3.027-7.141 5.122-10.478 8.073-2.795 2.561-7.529 5.899-9.159 9.237-0.854 1.63-1.32 3.726-1.941 5.434-3.105 9.159-7.141 18.706-7.607 28.331-0.388 6.675-2.018 13.739-0.776 20.414 1.087 6.21 3.959 10.867 8.461 14.98 2.639 2.407 4.968 5.2 7.762 7.297 2.639 1.941 5.744 3.337 8.538 4.812 4.58 2.407 9.082 4.812 13.894 6.598 4.114 1.475 8.461 2.018 12.575 3.415 6.675 2.251 13.351 4.192 20.336 5.434 3.803 0.698 8.073 1.941 12.031 1.164z"></path>
    <path fill="#000000" d="M490.564 587.214c-1.941-1.087-2.949-2.872-4.812-3.648-2.095-0.932-5.434-0.31-7.839-0.698-3.571-0.621-6.985-1.707-10.556-2.639-2.639-0.621-4.657-1.164-6.985-2.329-3.959-1.863-7.451-5.122-10.944-7.685-6.365-4.734-7.063-11.798-11.332-17.93-2.173-3.183-4.734-6.52-7.219-9.624-5.278-6.598-6.985-13.506-6.908-21.967 0-6.52 0.388-12.807 1.63-19.25 0.932-4.502 2.251-9.004 2.717-13.506 0.621-5.588 5.122-15.446 8.616-20.104 3.571-4.968 6.054-11.022 10.867-14.98 5.511-4.424 7.063-7.373 14.049-8.693l0.776-0.388c1.707 0.31 3.337 0.388 4.657 0.388 2.561-0.078 5.822 0.621 8.305 0.078 1.707-0.388 3.881-2.095 5.278-3.183 2.173-1.552 2.949-3.493 5.822-4.58 3.105-1.164 6.52-1.164 9.78-1.785 13.428-2.407 26.468-7.917 39.974-9.392 4.734-0.544 9.624 6.442 13.972 8.383 6.442 2.949 12.497-0.621 17.154 4.812 4.502 5.278 12.885 7.607 18.862 10.867 3.959 2.173 5.2 4.968 6.442 9.392 3.027 10.090-0.776 21.345 2.407 31.203 0.854 2.639 2.872 4.657 3.959 7.219 1.552 3.493 1.785 7.373 3.493 10.789 5.977 12.341 10.168 27.089 2.018 39.276-1.707 2.639-3.726 4.968-5.666 7.297-0.932 0.854-1.863 1.707-2.872 2.483-5.434 4.346-11.876 8.073-17.775 11.798-2.717 1.707-4.89 3.027-7.297 5.122-3.105 2.639-5.434 6.054-8.305 9.004-2.018 2.095-4.812 3.415-7.141 5.356-2.872 2.561-6.132 5.046-9.547 6.831-7.762 4.036-17.309 5.666-25.77 3.337-0.078 0-0.156 0-0.232 0-1.707-0.854-3.337-1.707-5.046-2.251-4.58-1.475-8.383-2.795-13.117-4.657-3.571-1.475-7.995-2.483-11.41-4.346zM617.705 509.439c-0.698-1.397-1.475-2.949-2.173-4.502 1.397-3.881 2.173-8.926 2.407-11.876 0.466-5.122 0.31-11.1 0-16.145-0.466-8.15-5.822-15.757-12.264-20.724 0.078-5.122-0.078-10.712-1.552-15.446-1.552-5.122-6.21-2.018-9.392-6.21-1.397-1.863-2.795-3.648-4.346-5.511-2.949-3.571-5.356-4.968-9.624-7.685-3.959-2.407-4.346-2.407-7.685-3.648-1.63-0.621-2.639-1.164-4.036-2.329-3.571-2.717-7.373-2.251-11.798-3.105-3.26-0.621-5.434-8.693-8.771-8.073-10.012 1.941-21.19-0.078-30.582 4.269-4.192 1.941-7.995 3.26-11.798 5.666-4.812 0.156-9.624 0.466-14.36 0.932-2.173 0.232-3.493 1.63-5.434 2.329-1.63 0.544-3.415 0.621-5.122 1.32-4.424 1.785-9.547 3.726-13.816 5.046-3.881 1.242-7.762 1.397-11.332 3.648-3.493 2.173-7.141 3.803-10.789 5.744-5.122 2.872-3.027 6.598-7.917 9.858-4.192 2.872-8.538 7.685-10.944 12.109-1.785 3.183-2.329 6.753-3.26 10.168-1.242 4.812-10.789 9.237-11.876 14.049-1.32 5.744 0.156 10.012 0.466 15.524 0.388 6.598-2.018 12.807-2.329 19.405-0.388 7.297 0.156 14.67 0.078 21.967-0.156 14.67 5.588 28.409 12.575 40.983 1.785 3.183 3.571 5.899 6.442 8.305 1.397 1.242 3.26 2.251 4.502 3.726 4.036 5.046 8.305 11.721 14.049 14.98 3.648 2.018 7.995 3.571 11.876 5.434 5.511 2.561 11.876 4.424 17.775 5.744 7.063 1.63 15.368 0.621 22.665 0.31 6.21-0.31 12.264-1.164 18.551-1.087 5.278 0.156 7.529-0.776 12.963-2.173 1.164-0.31 2.251-0.544 3.337-0.776 0.932 0.232 1.941 0.466 2.717 0.698 1.397 0.31 4.502 1.785 5.511 2.095 4.192 1.242 11.177-0.776 15.136-2.018 3.26-1.009 6.287-2.639 9.237-4.424 2.795-0.078 5.588 0.156 8.305-0.621 5.511-1.63 8.926-6.675 12.187-11.1 0.776-1.009 1.475-2.095 2.251-3.183 5.666-3.803 8.849-9.237 12.963-14.592 4.269-5.511 8.461-11.177 11.953-17.231 0.31-0.388 0.776-0.776 1.087-1.242 2.872-3.726 3.881-9.159 5.434-13.506 1.475-4.192 1.397-8.383 1.475-12.729 0.078-8.227-1.164-16.999-4.734-24.372z"></path>
    </svg>