<svg xmlns="http://www.w3.org/2000/svg" viewBox="-34.706 16.009 1110.275 991.983">
    <path fill="#000000" d="M223.413 350.046c1.060 2.145 1.604 4.585 2.675 6.725 1.3 2.75 1.905 5.807 3.21 8.407 1.539 2.982 3.132 4.892 5.196 6.343 0.304 2.145 0.455 2.059 3.132 2.216 0.541 0 1.060 0 1.604 0.076 0.304 0.076 0.541 0.153 0.845 0.304 4.203 1.214 8.713 1.3 13.070 0.995 4.127-0.239 6.571-2.982 10.088-4.816 2.371-1.3 2.75-1.214 4.661-3.361 0.845-0.91 1.755-1.84 2.597-2.827 2.982-1.755 5.96-3.516 9.249-5.503 8.178-4.816 13.832-9.171 20.328-15.592 1.45-1.539 2.982-3.821 5.272-4.281 3.972-0.759 4.892 4.357 6.343 7.793 1.755 4.050 4.203 7.793 5.732 11.615 0.995 2.597 1.755 5.882 2.371 8.56 0.455 2.371 1.3 4.892 1.69 7.26 0.239 1.45-0.304 2.904-0.152 4.279 0.304 2.827 1.905 4.814 2.521 7.489 0.759 3.286-0.152 6.571 0.39 9.86 0.455 3.286 0.91 6.418 1.45 9.704 1.69 9.475 3.896 20.174 7.564 28.812 1.604 3.746 1.149 6.192 1.84 10.010 0.759 4.432 2.446 7.414 2.371 12.074-0.076 6.878 0 13.756 0 20.635 0 11.004 0.995 22.469-1.994 33.168-1.69 5.96-1.69 12.074-2.75 18.037 0.39 0.239 0.694 0.39 1.060 0.541 1.060 0.39 2.145 0.845 3.132 1.214 2.371 0.995 4.661 1.994 6.953 3.132 0.995 0.541 1.604 1.45 1.905 2.521 5.196 1.69 10.699 2.216 15.82 4.357 3.132 1.365 5.807 3.132 7.793 6.114 1.45 2.145 2.059 4.814 2.216 7.489 7.489-0.076 15.514-0.541 23.156 0.455 6.649-2.597 13.907-2.293 20.024 2.216 6.803 5.043 11.082 12.685 14.215 20.71 0.076 0.239 0.076 0.455 0.076 0.694 0.239 0 0.455 0 0.606 0.076 6.114 2.293 12.381 1.905 19.028 2.145 0.541 0 1.060 0 1.604 0.076 2.75-0.759 5.578-0.995 8.482-0.455 1.905 0.39 3.668 1.214 5.349 2.293 1.84 0.541 3.668 1.149 5.503 2.059 0.995 0.541 1.604 1.45 1.905 2.521 2.827 0.541 5.578 0.759 8.178 0.304 0.694-0.39 1.539-0.541 2.293-0.541 0.541-0.239 0.995-0.541 1.755-0.995 0.239-0.153 0.304-0.153 0.304-0.153 0.39-0.304 0.694-0.694 1.060-1.060 0.39-0.455 0.076 0 0.541-0.759 0.304-0.455 0.606-0.91 0.845-1.45 0.606-1.060 1.214-2.293 1.755-3.439 1.539-3.516 2.675-7.26 3.746-11.004-0.541-2.145-1.149-4.203-2.059-6.189-1.149-2.446-0.694-5.35 1.69-6.803 0.91-0.606 2.145-0.759 3.286-0.541 0.076-0.845 0.304-1.69 0.455-2.521-1.214-0.91-2.059-2.371-2.059-3.972-0.076-10.239-1.060-20.71 2.675-30.491-0.076-0.606 0-1.214 0.152-1.84 0.91-2.982 1.905-6.038 2.827-9.017-0.995-0.845-1.69-2.059-1.69-3.746 0.076-13.603 2.982-26.977 8.713-39.127 0.91-1.994 3.286-2.75 5.196-2.216-0.076-2.371-0.239-4.661-0.541-7.029 0.39-0.076 0.759-0.153 1.060-0.455 1.539-1.3 2.446-5.121 3.361-6.571 1.214-2.059 2.145-3.361 2.982-5.578 0.606-1.69 0.759-2.446 1.755-4.050 0.995-1.45 2.216-2.597 3.21-3.972 0.995-1.3 2.827-4.814 4.432-5.578 2.145-0.995 6.192-0.076 8.56-0.152 2.059 0 4.661-0.694 5.96 1.3 0.91 1.3-0.076 4.050 0.39 5.656 1.755 0.39 3.439-0.304 5.121 0.39 1.3 0.541 3.361 2.521 4.432 3.593 1.214 1.385 2.597 3.132 3.668 4.661 0.606 0.759 1.060 1.604 1.604 2.521 0.845 0.076 1.604 0.39 2.371 0.759 1.905 1.905 1.905 4.203 2.905 6.496 1.604 3.746 3.438 4.585 5.96 6.878 0.239 3.057 0.694 6.038 1.755 8.56 2.216 4.814 5.578 8.939 8.482 13.374 1.45 2.216 2.059 3.746 2.293 6.343 0.239 1.84-0.076 4.127 0.076 6.343-0.845 1.060-1.69 2.145-2.521 3.21 1.84 5.121 3.286 10.315 4.738 15.592 0.694 2.75 1.539 5.503 2.293 8.253 0.995 0.076 1.994 0.455 2.75 1.3 1.69 1.755 1.84 5.043 0.076 6.878 1.214 3.132 2.599 6.267 4.281 9.249 0.694 0.455 1.365 0.995 1.755 1.755 2.597 5.807 3.286 11.77 3.132 18.113-0.076 2.75-0.239 5.578-0.076 8.329 0.076 2.145 0.304 3.896 0.759 5.807 1.604 1.060 2.371 3.361 1.994 5.427 0 0.076 0 0.076 0 0.152 3.21 4.585 6.418 9.249 8.864 14.367 0.304 0.606 0.455 1.214 0.541 1.905 3.057-0.759 6.114-1.604 9.017-2.75 0.239-0.076 0.455-0.239 0.694-0.304 0.074 0 0.154-0.076 0.304-0.152 0.455-0.239 0.995-0.455 1.45-0.759 1.060-0.541 2.059-1.214 3.057-1.905 0.239-0.239 0.455-0.455 0.694-0.694 0.455-0.39 0.845-0.845 1.3-1.365 0.154-0.153 0.304-0.39 0.541-0.606 0-0.076 0 0 0-0.076 0.39-0.606 0.759-1.149 1.060-1.755 1.3-2.371 4.050-2.982 6.343-1.84 0.239-0.759 0.606-1.365 1.060-1.84 0.239-1.994 1.604-3.821 3.438-4.281 6.649-1.69 13.221-1.365 19.87 0 0.995 0.239 1.69 0.845 2.216 1.539 3.746-3.286 7.949-5.882 12.685-7.107 2.521-0.694 4.892 0.759 5.732 3.21 0.239-0.153 0.606-0.239 0.91-0.304-0.455-0.759-0.845-1.604-0.694-2.371 0.39-3.286 1.149-6.418 3.057-9.171 1.755-2.446 3.972-4.432 6.571-5.882 2.521-1.385 5.196-2.293 7.871-3.132 5.656-9.704 10.624-19.948 16.582-29.423 0.759-1.214 1.84-1.905 2.905-2.145 0.239-0.759 0.455-1.539 0.606-2.293 0.304-1.385 1.060-2.293 2.145-2.905-0.606-2.597-1.149-5.196-1.539-7.793-0.995-7.338-0.074-15.592-0.074-23.003 0-5.272-0.074-10.471 0-15.742 0-4.432-1.149-8.407-1.365-12.761-0.304-3.668 0.155-7.414 0.074-11.082-0.154-8.025-2.145-15.82-2.75-23.768-0.541-6.343-0.845-14.060 1.604-20.024 3.438-8.1 9.249-14.978 13.526-22.621 0.995-1.84 2.597-3.593 3.361-5.578 0.304-0.845 0.155-2.059 0.533-2.827 0.764-1.84 2.674-2.75 3.821-4.281 3.593-4.814 6.191-10.624 11.234-14.137 3.593-2.446 11.31-1.905 15.515-1.365 3.285 0.39 5.272 3.516 8.101 5.427 2.139 1.45 4.127 2.216 6.495 3.439 2.064 0.995 5.12 2.982 7.106 3.593 2.139 0.694 3.362 0.304 5.349 1.3 1.835 0.995 2.981 2.75 4.968 3.286 2.216 0.606 5.731-0.076 8.101-0.076h24.607c2.446 0 7.566 0.995 9.859-0.304 3.438-1.905 5.272-5.882 5.96-9.478 1.605-8.789 1.3-18.113-0.611-26.901-1.3-6.267-4.356-12.685-6.115-18.648-0.689-2.446-0.764-4.968-1.757-7.414-0.994-2.371-2.369-4.432-3.516-6.725-4.585-8.713-9.476-16.048-15.743-23.461-2.674-3.286-7.642-7.642-11.387-9.4-2.598-1.149-5.883-0.606-8.713-0.606-4.738 0-8.788-0.606-12.686 1.755-4.28 2.75-6.267 8.253-8.177 13.067-0.916 2.293-1.986 4.050-2.827 6.343-1.071 2.521-0.383 4.585-0.994 7.107-0.46 2.216-1.375 2.904-1.375 5.578 0 2.905-0.383 5.882-1.911 8.482-3.438 5.578-8.177 5.578-13.832 5.578-7.566 0-14.444 1.45-22.010 1.45-7.26 0-14.903-1.539-21.245 2.521-6.267 3.896-12.15 8.482-17.502 14.137-1.84 2.059-3.668 4.127-5.503 6.192-2.059-0.606-4.203-1.149-5.882-1.905-3.439-1.539-7.949-5.656-10.775-8.178-5.96-5.272-11.004-11.999-16.66-17.653-2.75-2.827-6.803-6.496-10.471-8.253-2.521-1.149-3.438-1.365-5.656-3.361-2.145-1.994-5.578-2.982-7.489-4.968-3.896-3.896-6.418-11.31-8.942-16.278-2.145-4.050-3.593-8.713-4.507-13.145-1.149-5.196-3.132-10.088-3.896-15.437-0.304-2.216-0.076-4.507-0.606-6.649-0.304-1.214-1.604-3.057-1.994-4.507-1.539-5.656-3.057-10.164-3.057-16.202 0.076-6.571 0-13.145 0-19.792 0-15.207-0.076-30.491 0-45.777 0-5.272-1.149-7.949-2.675-12.992-0.694-2.059-1.214-4.127-1.604-6.267-0.304-1.604-1.060-2.827-2.446-3.593-0.455-0.995-2.597-7.182-2.675-7.182 0.152 7.949 0.076 15.896 0.076 23.768-0.071 12.992-4.198 24.991-4.045 37.98 0.152 5.35-1.45 10.317-1.365 15.742 0.076 7.642-1.149 14.826-1.365 22.392-0.239 9.475 0.076 19.103 0.076 28.658 0 9.4-2.675 22.086 1.84 31.026 1.69 3.286 4.507 5.503 7.26 7.793 3.896 3.21 7.107 6.649 10.164 10.775 4.050 5.427 8.864 10.239 12.685 15.82 5.807 8.56 13.449 16.737 17.881 26.29 1.060 2.371 1.69 3.516 3.668 5.35 2.597 2.371 3.668 4.585 5.732 7.489 1.994 2.827 4.968 6.189 7.871 8.025 0.541 0.239 1.060 0.455 1.539 0.759-1.84-1.905-3.135-3.668-2.597-4.507 1.84-0.694 4.585 2.982 7.107 6.418-1.539-0.606-3.057-1.214-4.507-1.905 1.214 1.214 2.675 2.446 4.050 3.668-4.203 7.793-7.793 15.971-10.471 24.531-1.905 6.192-2.597 12.61-4.968 18.648-2.446 6.343-5.196 12.685-6.878 19.335-0.39 1.604-0.694 3.361-0.995 5.121-0.541-1.385-1.149-2.827-1.3-4.203-0.455-3.821 0.074-8.1 0.154-11.921 0-4.203-0.39-7.414-1.060-11.464-0.694-3.821 0.694-8.482-0.239-12.15-1.45-5.656-3.286-11.846-5.196-17.806-0.845-2.521-1.69-4.585-2.827-7.031-2.368-5.121-3.361-10.928-6.571-15.592-4.281-6.343-11.16-9.017-17.117-13.526-3.896-2.904-8.942-5.272-12.15-8.864-6.878-7.718-12.532-16.048-18.57-24.379-1.45-2.059-3.361-2.982-5.121-4.814-2.75-3.057-5.349-7.107-8.864-9.475-2.059-1.45-2.059-1.149-2.905-3.668-1.539-4.203-1.060-8.404-1.060-12.992 0.076-13.449 0-26.977 0-40.426 0.076-7.031-0.995-13.374-1.214-20.328-0.152-4.127-1.385-8.1-1.45-12.226-0.153-4.357 0-8.713 0-13.067v-26.901c0-6.418 0-12.839 0.076-19.335 0.076-5.96-1.365-10.317-2.446-15.971-1.84-9.935-7.107-17.578-11.004-26.442-1.45-3.361-4.357-5.349-5.503-9.553-0.239 4.203 3.057 10.393 4.357 14.367 1.994 6.571 5.349 13.221 6.267 20.099 0.455 3.361 0.304 6.496 0.304 9.935-0.39 21.092 1.604 42.796-0.153 63.888-0.91 10.546-1.45 22.010-3.896 32.325-0.759 3.057-1.149 5.427-1.3 8.56-0.152 2.75-1.3 4.968-1.45 7.718-0.541 8.635-0.606 18.188 1.755 26.442 1.69 5.732 0.995 11.999 0.995 18.037 0 4.432 1.149 8.329 1.365 12.61 0.455 10.393 6.038 19.87 9.628 29.727 0.541 1.604 1.69 3.132 2.371 4.661 1.755 3.439 3.593 6.953 5.578 10.317 2.827 4.968 6.571 8.789 10.164 13.145 1.45 1.84 2.371 3.821 4.281 5.272 1.69 1.385 3.972 1.994 5.732 3.132 5.121 3.286 9.628 7.949 13.296 12.992 0.304 2.675 0.541 5.35 0.759 8.025 0.694 7.031 0 15.592-3.668 21.781-1.84 2.982-4.816 5.503-6.803 8.404-1.84 2.597-2.75 4.738-5.272 6.803-1.604 1.3-3.361 3.361-5.272 4.050-1.755 0.694-4.281 0.91-6.114 1.385 0 0 0 0-0.076 0-0.152-2.371-0.455-4.661-1.84-6.878-1.69-2.827-4.892-5.656-7.718-7.182-3.896-2.145-5.503-3.746-8.407-6.803-1.539-1.539-2.371-2.982-3.668-4.507-1.214-1.45-1.060-1.214-2.982-1.365-2.675-0.304-3.21-0.304-5.732-1.45-1.604-0.694-5.654-3.132-7.414-2.982-1.214 0.153-4.585 2.371-5.656 3.21-1.84 1.45-1.69 3.668-2.982 5.196-1.214 1.45-3.516 2.371-5.043 3.439-2.982 1.994-6.114 3.896-9.171 5.807 0.304-2.293 0.759-4.432 1.755-7.107 3.361-8.939 7.414-18.648 8.482-28.276 1.3-11.693 0.239-24.072 0.239-35.842 0-9.171-0.076-18.264 0-27.436 0.076-1.69 0.076-3.132-0.239-4.738-0.455-1.905-0.541-4.661-1.060-6.496-0.39-1.539-0.995-1.604-1.604-2.905-2.371-4.585-1.060-10.393-2.675-15.131-1.755-5.196-4.738-10.088-6.496-15.36-1.3-3.821-2.521-7.871-4.050-11.615-1.69-3.972-5.196-6.953-7.338-10.546-1.69-2.904-2.446-6.418-3.593-9.553-1.994-5.272-5.807-11.235-6.418-17.193-0.39-3.439 0.606-6.418-0.541-9.86-1.365-4.050-2.145-6.418-2.059-10.699 0.239-6.725-1.214-13.221-1.45-19.948-0.076-4.127 0.076-8.407 0.076-12.535 0-8.713 0.455-17.653-0.152-26.29-0.39-5.043-1.755-9.935-2.216-14.981-0.606-7.26 1.214-14.292 1.755-21.399 0.304-3.972 0.541-7.871 0.759-11.77 0.076-0.91-0.39-10.775-0.39-10.775-2.446 1.385-4.050 4.281-5.654 6.571-2.675 3.821-5.427 7.642-7.871 11.693-1.45 2.371-2.905 4.738-4.050 7.26-1.060 2.597-1.905 5.272-2.145 8.025-0.152 2.75 0.304 5.35 0.91 7.871l-4.050 0.995c-0.152 4.585 0.541 9.4 1.214 13.067 0.995 5.349 2.75 10.393 3.132 15.742 0.152 1.149 0.076 2.059 0 2.982-0.91 5.807-1.755 11.539-3.057 17.193-1.060 4.892-1.604 9.86-2.293 14.826-0.606 4.585-2.827 9.017-4.279 13.526-2.145 6.343-3.746 11.921-3.746 18.648-0.076 3.593-0.845 8.482 0.694 11.615 1.69 3.361 3.972 6.953 6.038 10.088 0.759 1.3 1.84 2.216 2.675 3.439 1.3 1.905 1.3 3.286 2.293 5.427 1.604 3.593 4.816 6.878 6.878 10.317 0.759 1.365 0.606 1.69 1.45 2.982 0.606 0.845 1.539 1.604 2.145 2.446 5.96 8.1 7.718 18.113 15.36 24.683 0.91 0.845 2.145 1.69 3.438 2.597 1.84 4.507 3.516 8.939 4.432 13.526 1.905 10.317-1.905 19.792-7.107 27.969-4.279 6.878-8.789 13.526-13.681 19.87-5.427 7.107-11.77 12.685-15.207 21.092-3.057 7.414-5.196 15.056-7.564 22.545-1.994 6.114-4.892 11.921-6.953 18.037-1.604 4.814-2.145 9.324-2.597 14.060-7.338-4.892-15.36-8.864-22.238-14.367-1.69-1.3-3.286-2.371-4.892-3.286 0-1.149 0.076-2.216 0.076-3.286 0-6.878-0.39-13.221 1.149-19.87 2.059-9.017 3.746-17.881 7.26-26.366 1.994-4.738 4.357-9.171 6.343-14.137 1.539-3.668 2.216-6.725 4.203-10.317 2.145-3.821 4.585-7.564 5.121-11.999 0.606-4.507 1.214-9.324 1.45-13.832 0.39-6.953-1.994-13.067-4.203-19.413-1.905-5.656-3.668-11.846-6.038-17.193 1.060 1.905 1.214 6.418 0.606 8.56-0.455 1.755-0.845 2.521-1.149 4.661-0.304 2.216-1.060 4.050-1.755 6.114-1.994 5.732-5.272 10.546-9.093 15.36-6.267 7.871-13.603 13.145-21.549 19.181-5.654 4.357-9.935 10.088-14.137 15.971-2.371-5.732-4.279-10.546-5.96-16.582-1.84-6.114-2.597-12.457-4.127-18.724-0.694-2.75-0.995-4.968-0.995-7.949 0.076-8.407-0.541-16.048 1.69-24.072 1.69-6.114 2.371-12.685 3.438-19.028 0.845-5.503 0.995-11.921 1.3-17.424 0.152-2.982-0.152-6.267 1.060-9.017 1.604-3.516 1.604-5.349 1.994-9.324 0.694-6.343 2.75-12.381 3.821-18.648 0.845-4.816 1.84-9.628 2.905-14.367 1.604-6.878 4.281-12.992 6.418-19.639 4.507-13.756 7.182-29.347 5.427-44.019-0.694-5.96-2.446-14.137-5.349-19.488-0.91-1.69-2.293-5.196-3.668-6.343-0.91 2.827-0.239 6.803-0.239 9.782-0.076 6.803 0 12.915-1.214 19.41-0.606 2.75 0.39 5.656-0.076 8.407-0.541 3.057-1.45 6.418-2.216 9.4-0.845 3.439-1.905 7.414-2.75 10.393-1.69 5.732-4.661 10.471-7.107 15.742-1.84 3.972-3.896 7.489-6.725 10.699-4.507 4.968-7.414 11.539-10.471 17.653-8.178 16.431-12.381 34.695-12.304 53.189 0.076 4.585 0 9.171 0 13.756 0 5.656-0.076 11.16 0.694 16.813 0.759 5.349 2.827 10.164 4.127 15.285 0.239 0.759 0.304 1.539 0.39 2.293-1.45-1.69-2.982-3.361-4.357-4.968-2.982-3.361-4.814-7.338-8.56-9.553-7.031-3.972-14.445-7.182-21.703-10.471-6.418-2.905-3.057-1.905-6.649-2.059-2.521-0.152-5.882-0.455-7.871 1.755-1.385 1.604-2.675 12.226-5.96 8.482l-0.455-1.385c-0.152-0.455-0.39-0.91-0.694-1.365-0.152-0.995-0.304-2.059-0.606-2.904-0.152-0.153-0.239-0.304-0.39-0.541-6.038 4.968-13.296 7.564-21.399 4.507-6.496-2.521-11.921-7.182-16.582-12.61-0.759-1.84-1.755-3.896-3.593-4.507 0 0-0.076 0-0.076 0-0.694-0.91-1.45-1.84-2.145-2.75h-1.755c-3.896 0-9.017-0.91-12.839-0.076-3.516 0.845-5.656 4.050-7.564 7.107-2.675 4.127-3.668 7.489-5.427 11.999-0.995 2.675-2.059 3.668-2.371 6.343-0.239 1.84 0.304 3.821 0.076 5.656-0.39 3.132-1.365 4.892-1.365 8.407 0 4.050 0 8.025 0 11.999 0 3.972-0.239 8.025-0.076 11.999 0.076 2.905 1.214 3.593 2.446 5.96z"></path>
    <path fill="#000000" d="M560.194 609.343c-0.455 2.75-0.455 5.503-0.91 8.253-0.152 0.759-0.39 1.604-0.606 2.371-3.361 3.21-7.26 5.882-11.615 7.949-6.953 3.21-15.285 4.507-21.245-1.45-2.216-2.216-3.593-5.043-4.585-8.025-0.606-0.455-1.060-1.060-1.45-1.994-0.91-2.216-1.69-4.507-2.145-6.878-2.521-12.457-2.216-26.29 0.995-38.516s11.464-24.455 24.914-23.003c0.694 0.076 1.365 0.304 2.059 0.39 0.995 1.149 1.994 2.293 2.982 3.286 0.152 0.153 0.239 0.39 0.39 0.541 0.304 0.541 0.541 1.149 0.845 1.69 1.060 1.905 2.597 3.516 4.203 4.968 1.994 3.286 3.668 6.878 4.507 10.471 0.39 1.3 0.91 2.446 1.060 4.127 0.239 2.597 0.541 5.043 1.3 7.564 1.45 4.281 1.385 7.949 1.385 12.61 0 5.656-1.149 10.164-2.059 15.667zM944.161 434.739c-0.229-11.539-2.598-23.768 1.528-34.847 2.064-5.578 5.579-10.239 9.248-14.749-0.916-1.365 0-3.438 2.064-5.427 0.916-0.759 2.369-1.539 3.897-2.145 0.229-0.304 0.46-0.606 0.686-0.91-8.025 0-15.819-0.541-23.692 1.539-6.343 1.69-13.373 5.35-18.341 9.704-2.674 2.216-4.585 5.196-7.871 5.656-10.851 1.604-23.768-0.845-33.624-4.968-5.196-2.216-9.628-3.593-15.359-3.516-4.049 0.076-8.101-0.152-12.226 0.076-6.343 0.455-11.31 2.982-17.194 5.35-7.794 3.21-14.061 5.503-20.481 11.157-3.057 2.675-6.571 4.507-9.782 7.107-6.954 5.578-13.832 11.386-20.635 17.271-9.017 7.642-16.89 17.042-24.607 26.059-4.28 5.121-7.566 10.088-10.547 16.278-3.285 6.878-6.495 13.374-10.393 19.946-4.356 7.414-6.954 14.981-9.248 23.308-0.606 2.371-1.214 4.738-1.755 7.107 0.304 0.91 0.455 1.994 0.239 2.982 0 0 0 0 0 0 0 0.995-0.304 1.905-0.759 2.75-0.694 2.521-1.45 4.892-2.521 7.26-0.239 1.149-0.541 2.371-0.759 3.516-0.074-0.606-0.074-1.149-0.074-1.755-1.060 2.145-2.145 4.281-3.361 6.267-1.365 2.446-2.75 4.814-3.896 7.338-0.155 0.304-0.304 0.606-0.455 0.91 0 0.153-0.074 0.153-0.074 0.239-0.239 0.606-0.455 1.214-0.606 1.84-0.39 1.3-0.694 2.675-0.845 4.050-0.239 1.604-1.45 2.675-2.905 3.21-0.541 1.365-1.604 2.675-3.057 3.057-1.3 0.39-2.597 0.759-3.821 1.060-0.39 0.606-0.694 1.149-0.995 1.69-4.738 7.489-10.546 15.896-18.037 21.092 1.060 2.145 0.995 4.968-1.45 6.649-12.304 8.404-26.518 2.75-39.587-0.91-2.597 7.031-7.871 11.693-14.749 13.832-6.114 1.84-12.61 1.905-18.953 1.905-0.694 0-1.3-0.152-1.84-0.455-0.304 0.076-0.606 0.152-0.91 0.239-2.059 0.541-3.972-0.304-5.121-1.994-1.3-0.455-2.521-1.149-3.821-1.905-0.076-0.076-0.152-0.152-0.304-0.239-0.076 0-0.152 0-0.304-0.076 0 0-0.076 0-0.076 0s-0.076 0-0.153 0c-0.239 0.076-0.694 0.153-0.845 0.239-0.153 0.076-0.541 0.239-0.845 0.304-0.076 0.076-0.152 0.076-0.239 0.076-0.239 0.152-0.39 0.239-0.606 0.304-0.076 0-0.153 0.076-0.153 0.076-0.152 0.39-0.239 0.759-0.304 1.214-0.759 1.994-2.371 3.438-4.281 3.516-0.304-1.3-0.606-2.597-0.91-3.972-1.755-6.038-4.357-11.846-6.953-17.653 0.239-1.060 0.455-2.216 0.694-3.361 0.076-0.455 0.076-0.91 0.153-1.365 0-0.153 0.152-1.149 0.152-1.3 0.152-1.149 0.239-2.216 0.304-3.286 0.153-2.145 0.239-4.203 0.239-6.343 0-0.076 0.076-0.076 0.076-0.152-3.668-6.114-7.26-12.226-10.928-18.264-0.152-0.91-0.304-1.905-0.541-2.827-0.759-4.050-0.759-8.329-1.3-12.457 0.455-2.371 0.694-4.661 0.606-6.953-0.239 0.152-0.455 0.239-0.694 0.304-0.39 0.152-0.845 0.239-1.3 0.239-0.694-1.994-1.755-3.821-2.675-5.732-1.905-3.972-3.746-7.718-4.050-12.304-0.239-3.593 0.541-7.26-0.153-10.775-0.995-4.814-3.821-9.475-4.816-14.443-0.91-4.203-1.060-8.253-2.521-12.304-0.91-2.293-1.994-4.585-2.827-6.878-1.69-4.507-3.749-12.379-8.794-14.289-3.286-1.3-9.171-0.845-11.539 1.84-1.539 1.755-2.521 3.746-3.972 5.349-0.845 0.91-1.994 1.69-2.827 2.521-3.057 3.132-3.896 7.26-5.656 11.235-3.132 7.414-5.807 15.207-6.267 23.309-0.239 4.127-1.3 7.793-1.365 11.999-0.076 2.904-0.995 4.968-1.45 7.718-0.239 1.539 0.455 3.132 0.152 4.661-0.39 1.994-1.060 3.21-1.365 5.272-1.45 8.407-3.438 16.356-5.807 24.683-1.365 4.585-2.145 8.482-3.132 13.221-1.060 5.121-3.972 9.704-4.507 14.903-0.694 5.882 0 12.381 0 18.342 0 0.995 0 2.059-0.076 3.057-7.489 2.145-15.437 1.755-22.314-2.982-0.694-0.541-1.214-1.149-1.604-1.84-3.057-0.455-6.114-1.149-9.017-1.994-4.357-1.149-8.939-2.75-13.374-3.516-4.507 1.755-8.864 3.668-13.756 3.746-2.675 0.076-4.661-2.293-4.738-4.968 0-0.455 0.076-0.845 0.239-1.214-1.149-0.304-2.371-0.606-3.438-0.995-1.3-0.541-2.293-1.45-2.905-2.597-1.060 0.076-2.216-0.304-3.21-1.539-3.668-4.432-7.489-8.789-11.846-12.535-2.521-2.216-6.192-4.357-9.017-5.272-1.539-0.455-3.057-0.759-4.661-0.995-1.214 0.541-2.521 0.541-3.668 0.076-0.91 1.060-2.216 1.84-3.593 1.84-6.725 0-13.374-0.153-20.024-1.604-2.059-0.39-3.21-2.446-3.361-4.507-1.604-0.759-2.905-2.521-2.75-4.432 0-0.455 0.239-1.994 0-2.597 0.076 0.304 0.152 0.759 0 0.239 0-0.152-0.076-0.304-0.076-0.455-0.076-0.239-0.152-0.541-0.239-0.845 0 0 0 0-0.076 0-0.076-0.239-0.304-0.541-0.39-0.759-0.076 0-0.076 0-0.076-0.076-0.239-0.152-0.455-0.39-0.606-0.606-0.239-0.152-0.39-0.304-0.606-0.39-0.541-0.304-0.995-0.606-1.539-0.91v0c-0.076 0 0 0-0.076 0-0.239-0.076-0.541-0.152-0.759-0.304-0.694-0.239-1.3-0.39-1.905-0.606-2.597-0.759-5.349-1.3-8.025-1.905-5.732-1.385-11.77-3.439-15.896-8.025-1.905-0.759-3.746-1.45-5.581-2.371-4.661-2.145-9.017-5.196-12.304-9.324-1.45-1.755-1.69-3.972-0.606-5.882-1.905-2.675-3.746-5.35-5.427-8.1-2.982-4.816-3.972-10.088-6.571-15.056-1.060-2.216-2.675-3.896-4.816-4.968-1.604-0.455-3.21-0.606-4.892-0.455-2.293-1.905-4.281-4.050-5.96-6.418-3.057-3.286-5.882-6.725-8.482-10.393-5.043-7.031-7.564-15.36-11.31-23.233-3.286-6.803-5.503-11.693-11.004-16.737-5.656-4.738-11.16-9.704-16.506-14.826-2.145-2.446-3.896-5.196-5.349-8.178-6.343-9.093-15.514-11.235-25.602-12.304-13.603-1.385-26.29-0.239-39.891 0.39-6.496 0.304-14.060 1.69-20.403 3.132-4.507 1.060-10.164 3.057-14.367 5.043-3.974 1.905-6.114 4.661-10.775 4.738-6.953 0.076-11.77-4.281-17.728-7.031-3.057-1.365-5.882-2.675-8.864-4.279-4.050-2.216-8.025-4.507-11.615-7.182-1.905-1.45-4.357-2.599-4.661 0 0.304 1.69 1.755 2.216 2.675 3.516 1.214 1.69 0.759 2.597 1.539 4.585 0.91 2.145 3.896 3.972 5.196 5.96 1.604 2.371 2.059 5.121 2.599 7.793 0.541 2.145 1.214 3.972 1.45 6.192 0.239 3.361-1.149 6.114-1.45 9.324-0.239 2.597 0.304 5.272 0.076 7.793-0.239 2.293-1.214 4.127-1.45 6.418-0.541 5.272 0.694 10.85 0.076 16.126-0.239 2.371-1.149 2.75-2.059 4.814-0.995 2.145-0.239 4.281-0.91 6.418-0.541 1.84-2.145 3.361-3.21 4.892-1.365 1.994-1.45 3.593-2.446 5.732-1.604 3.361-4.507 5.882-3.21 10.088 3.361-2.293 5.578-6.649 8.482-9.4 1.84-1.755 3.132-3.516 5.427-4.507 2.827-1.149 6.038-1.060 8.635-2.827 2.293-1.539 3.516-4.357 6.038-5.349 1.539-0.541 2.675-0.694 4.127-1.3 5.807-2.521 10.775-6.953 15.896-10.546 3.516-2.446 5.882-5.503 8.103-9.324 2.827-4.968 7.031-7.642 12.074-10.699 3.286-1.994 6.343-2.145 9.935-3.286 2.293-0.694 3.286-1.539 5.349-2.597 4.203-2.145 8.025-1.755 12.761-1.755 5.807 0 11.31-0.239 16.737 1.060 1.994 0.541 3.668 0.076 5.656 0.304 2.905 0.304 5.732 1.994 8.635 2.75 3.974 1.149 9.4 4.432 12.535 7.489 1.45 1.365 1.994 3.21 2.597 5.121 1.45 5.196 3.668 10.699 4.127 16.202 0.239 3.439-0.304 6.803 0.153 10.393 0.455 3.516 1.905 6.725 2.446 10.164 0.694 4.127-0.304 8.789-0.152 12.992 0.239 9.017 4.507 17.653 6.878 26.136 1.755 6.496 2.059 13.296 5.043 19.41 0.995 2.059 1.994 4.050 2.597 6.267 1.604 6.114 2.675 12.226 4.968 18.113 1.755 4.357 2.75 9.017 4.968 13.067 1.539 2.675 3.593 4.816 4.968 7.718 1.149 2.521 2.145 5.349 3.746 7.793 2.75 4.050 6.267 7.338 8.404 11.846 1.365 2.827 1.84 5.732 2.905 8.635 1.755 4.507 4.968 8.178 7.107 12.457 2.597 5.043 4.357 10.699 8.482 14.596 4.661 4.432 11.386 6.267 16.431 10.239 2.059 1.755 3.746 3.516 5.882 5.043 3.593 2.521 7.338 3.972 11.464 5.503 6.649 2.521 12.839 2.145 19.87 2.059 0.455 0 0.995 0 1.539 0.152 2.905 5.35 5.121 11.235 6.418 17.117 2.059 9.171 2.827 18.799 2.905 28.124 0 4.968-0.91 10.010-3.972 13.91-3.132 4.050-7.564 6.496-11.004 10.088-3.286 3.361-6.649 6.496-10.088 9.475-3.972 3.439-8.404 7.489-12.15 11.31-1.755 1.905-2.827 4.127-4.507 6.038-2.446 2.905-5.349 4.816-6.878 8.407-1.214 2.827-1.45 5.882-2.827 8.635-1.69 3.361-4.432 6.189-5.882 9.628-2.059 5.043-3.972 11.235-5.272 16.582s-0.304 12.226-0.304 17.653c0 7.793 0.152 13.756 3.057 20.863 2.293 5.807 6.192 10.164 9.628 15.36 1.905 2.982 2.75 4.968 5.732 6.878 1.45 0.995 2.905 1.604 4.281 2.597 7.871 6.114 6.878 13.91 6.725 22.849 0.239-1.45 0.845-2.75 1.060-4.357 0.39-2.75 0.304-4.892 0.845-7.718 1.604-7.489 2.216-14.137 2.145-21.703-0.076-7.031-1.3-14.445-2.675-21.323-1.214-5.656-2.75-11.082-2.75-16.967 0.076-4.127-0.455-8.482 0-12.61 0.541-5.503 3.361-6.418 7.031-9.093 1.905-1.3 3.057-3.593 5.043-4.738 1.69-1.060 3.974-1.755 5.656-2.75 4.281-2.446 10.164-4.281 13.296-8.407-0.076 1.905-0.541 3.21-1.060 4.968-0.845 2.521-1.755 4.968-2.827 7.414-0.995 1.755-1.905 3.516-2.827 5.272-0.845 3.746-0.694 7.642-1.539 11.539-0.91 4.050-1.385 7.489-1.3 11.615 0.152 10.010 2.597 18.724 6.343 27.893 1.604 3.896 4.127 7.414 5.654 11.157 1.69 4.050 3.438 8.329 5.272 12.226 2.982 6.343 6.496 12.226 6.803 19.41 0.239 4.357 1.3 12.304-1.539 15.896 1.365-2.982 5.427-5.121 7.718-7.338 1.994-2.059 3.361-3.668 4.507-6.267 1.060-2.371 2.675-4.432 3.438-6.953 1.149-4.050 0.541-8.482 0.541-12.685 0.076-5.656-1.365-8.789-3.668-13.91-1.905-4.203-5.043-7.793-6.649-11.846-1.905-4.968-6.343-12.761-5.732-18.113 0.239-2.216-0.239-2.293 1.994-2.827 3.439-0.759 3.361 0.39 6.953-1.604 3.057-1.755 5.578-2.446 8.025-4.738 2.982-2.675 6.114-5.503 9.093-8.329 9.628-8.864 17.806-19.259 25.295-30.187 2.145-3.21 5.196-5.96 7.564-9.093 1.84-0.154 3.746-0.304 5.656-0.541 6.953-0.759 13.756-2.059 18.724-7.182-0.152 0.759-0.39 1.539-0.541 2.059-0.91 2.293-2.675 4.585-3.974 6.649-2.446 3.821-4.279 8.56-6.803 12.226-1.994 2.905-4.585 5.349-6.571 8.178-3.057 4.281-5.427 8.482-8.1 12.915-4.585 7.26-8.253 14.596-9.017 23.614-0.694 7.107 1.365 12.685 3.972 19.41 4.127 10.624 8.178 21.549 9.4 33.091 0.541 5.349 0.995 14.521-1.214 19.259-1.755 3.821-4.892 8.407-7.338 11.539-0.995 1.3-2.827 2.371-3.439 3.896 1.604-0.606 2.521-1.69 3.821-2.75 3.896-3.135 8.025-5.732 12.226-8.329 2.521-1.539 4.892-3.439 7.26-5.272 5.043-3.972 7.871-9.628 8.942-15.82 0.91-4.968 2.675-9.782 3.516-14.749 0.91-5.043 0.694-10.239 1.84-15.36 1.84-7.718 1.3-15.971 3.746-23.308 1.365-4.127 1.905-8.635 3.286-12.61 2.75-7.793 10.164-11.464 15.285-17.578 3.057-3.668 5.807-7.871 8.253-11.999 1.539-2.75 3.438-4.281 4.738-7.031 1.365-3.135 3.361-5.656 4.203-8.713 0.076 0 0.076 0 0.076 0 0.541 0.304 1.060 0.694 1.604 1.060-0.694 5.427-1.45 10.85-2.75 16.353-1.604 7.107-2.293 14.137-4.968 21.014-1.3 3.361-1.905 6.343-2.521 9.86-1.365 7.414-3.516 14.596-4.279 22.162-0.759 8.025-0.304 14.445 2.521 21.933 2.145 5.578 4.585 10.699 7.338 16.048 2.75 5.272 5.656 11.539 7.107 17.424 1.060 4.51-1.905 14.903 1.149 18.188 6.114-10.239 10.317-19.792 7.26-31.791-2.216-8.713-6.725-17.653-6.878-26.747-0.152-9.628-0.694-18.342 3.593-27.205 6.038-12.532 13.985-23.308 18.877-36.529 3.286-9.017 4.661-17.348 5.272-26.214 2.371 5.272 4.281 10.85 7.107 15.667 2.597 4.357 3.668 8.789 7.031 12.685 1.755 1.994 3.974 4.050 5.807 5.882 0.845 0.845 1.604 1.755 2.446 2.675 0.304 2.293 0.606 4.585 1.060 6.803 0.606 2.827 0.759 5.96 1.3 8.864 0.606 2.905 2.145 5.656 2.75 8.635 1.214 5.196 1.755 10.85 2.905 16.278-0.239 3.439-0.39 7.029-1.84 10.010-1.214 2.675-3.21 4.738-4.203 7.489-0.606 1.755-0.455 3.746-1.45 5.732-2.521 5.196-5.349 8.407-8.713 12.685-4.357 5.503-9.478 15.131-8.178 22.162 0.455 2.216 2.145 5.427 3.361 7.642 1.604 2.75 4.507 5.882 4.738 9.4 1.84-0.39 2.145-8.253 2.521-10.315 0.995-5.732 5.503-10.471 8.178-15.282 2.216-4.127 4.892-8.482 7.949-11.999 5.272-6.038 7.642-10.699 9.86-18.724 1.539-5.656 3.057-12.685 3.361-18.648 0.304-6.038 0.995-14.521-0.606-20.403-0.845-2.827-2.145-5.807-3.132-8.56-1.149-3.057-3.439-5.807-4.127-9.017-0.076-0.455-0.152-0.845-0.239-1.3v-11.386c0-1.3 0-2.597 0.076-3.896 2.145 0.541 3.132 3.21 4.892 5.578 2.293 3.057 4.816 6.114 7.182 9.171 2.059 2.521 4.279 4.51 7.029 6.267 2.446 1.539 4.661 1.755 7.567 2.75 3.516 1.3 6.571 3.668 9.704 5.732 2.145 1.385 5.732 3.821 7.414 5.882 0.91 1.149 0.694 3.286 1.539 4.432 0.91 1.3 2.597 1.755 3.361 3.057 1.69 2.982 0.759 7.949 0.759 11.16 0 3.972 0.606 8.635-0.239 12.535-0.455 2.059-1.755 3.896-2.371 5.882-0.694 2.521-0.694 5.272-1.365 7.871-1.060 3.896-2.675 6.571-2.75 10.546-0.076 4.127 0 8.329 0 12.457 0 3.743-0.39 6.496 1.604 9.782 1.365 2.293 5.121 4.738 6.192 6.953 0.995 1.905-0.152 3.361 1.69 4.968 1.149 0.91 3.361 1.060 4.661 1.755 1.385 0.759 2.827 2.059 4.127 3.057-3.132-3.286-4.738-9.782-4.968-14.215-0.239-5.732-0.39-11.16 1.604-16.506 1.905-5.349 4.661-10.928 7.031-16.202 2.059-4.661 4.738-9.249 6.878-13.832 1.45-3.135 3.668-5.118 5.349-7.949 1.604-2.75 2.216-6.649 3.361-9.628 1.214-3.135 2.597-5.807 2.75-9.324 0.155-4.738-0.154-9.553-0.154-14.292 0-6.114 1.3-14.137 0-20.099-1.604-7.107-5.807-11.235-9.4-17.117-2.905-4.738-6.343-9.628-8.713-14.671-0.995-2.145-1.84-4.127-2.675-6.038 1.060 1.69 2.145 3.286 3.21 4.968 6.571 9.704 14.981 17.959 22.086 27.281 2.75 3.668 5.272 8.253 8.713 11.31 2.059 1.905 4.357 2.521 4.432 5.882 3.286 0.074 6.878 5.807 9.171 8.025s3.746 4.892 5.656 7.338c2.75 3.593 2.368 6.571 2.368 11.004 0 6.878 0.074 13.374-1.365 20.174-0.759 3.746-0.541 7.871-1.385 11.464-0.39 1.69-1.214 2.982-1.905 4.507-1.149 2.675-1.45 5.427-2.446 8.1-1.385 4.050-3.746 8.178-5.656 12.074-1.84 3.821-3.21 6.803-0.304 10.239 2.521 3.057 5.196 5.578 8.864 6.878 1.149-4.661-0.154-7.718 2.446-12.15 3.439-5.656 9.093-10.317 12.839-15.971 1.755-2.675 3.438-4.281 5.578-6.649 4.432-4.814 5.503-13.603 7.489-19.87 3.21-10.315 6.725-19.335 6.649-30.491-0.074-4.050 0-8.1 0-12.15-0.074-4.507-1.69-8.329-2.446-12.685-1.45-7.871-5.196-13.681-8.635-20.481-2.371-4.661-3.668-8.713-6.496-13.145-2.827-4.357-6.649-8.329-8.103-13.221-0.91-3.21-2.216-5.578-3.516-8.56-0.91-2.293-0.759-6.189-2.675-7.642 11.615-1.060 23.003 8.713 30.111 17.348 4.585 5.656 9.4 10.088 12.457 16.737 0.759 1.69 1.905 3.516 2.75 5.196 1.994 4.585 1.3 9.935 1.214 14.903 0 6.189 0.845 12.915 0.239 19.103-0.541 4.357-3.821 8.025-5.121 12.15-1.3 4.203-2.059 8.482-3.821 12.535-0.995 2.446-2.827 5.349-3.361 7.871-1.060 4.585 1.214 7.26 3.135 11.004 0.995 2.145 1.905 5.118 3.286 7.031 0.91-1.149 0.239-3.361 0.239-4.738 0-3.668 0.455-6.878 1.539-10.317 1.365-4.357 3.361-8.025 6.267-11.464 5.043-6.114 14.061-9.782 17.805-16.813 1.757-3.361 4.28-6.649 5.807-9.935 2.446-5.272 3.438-11.846 4.891-17.424 1.605-5.96 1.986-11.999 0.533-18.188-1.528-6.343-3.593-13.832-6.878-19.335-7.413-12.61-17.042-23.385-27.665-33.013-6.727-6.114-11.846-13.067-18.113-19.488-3.972-4.127-4.585-6.418-6.418-12.226-0.074-0.239-0.154-0.455-0.239-0.694 5.882-3.593 11.31-7.949 15.282-13.91 4.892-7.338 4.968-17.348 13.832-20.328 4.127-1.45 7.642-3.361 11.463-5.578 3.21-1.84 6.802-3.21 9.552-5.807 2.216-2.145 2.446-3.439 3.897-5.882 1.071-1.905 2.598-2.827 3.057-5.35 0.916-4.738 1.375-5.807 4.968-10.010 1.146-1.3 2.061-1.84 3.362-2.75 2.216-1.604 2.064-1.69 4.049-4.279 1.835-2.597 4.816-5.272 7.338-6.803 1.146-0.694 5.731-1.84 5.883-2.904-1.528-1.994-3.897-2.059-6.115-2.597-0.686-0.239-1.528-0.304-2.294-0.39 3.21-0.39 6.649-2.059 8.482-3.668 2.981-2.675 2.75-5.503 2.674-9.249 0-1.214-0.304-2.982-0.074-4.203 0.383-1.994 1.835-3.132 2.75-4.892 2.674-5.349 4.127-11.999 6.191-17.731 4.127-11.77 9.248-23.996 10.927-36.605 0.839-6.571-0.154-13.145 0.229-19.639 0.154-2.521 1.071-4.661 1.45-7.031 0.764-4.738 0.839-9.86 1.146-14.671 0.304-4.357-0.229-8.713 0.154-13.067 0.611-5.503 2.522-11.235 3.973-16.582 1.605-5.578 3.438-12.15 7.338-16.353 1.146-1.214 2.216-2.371 3.516-3.361 2.598-2.059 3.745-3.439 5.731-6.418 1.45-2.216 3.057-3.972 4.968-5.732 1.757-1.604 3.285-3.972 5.044-5.349 2.216-1.755 6.037-1.69 8.559-3.060 4.204-2.293 7.566-5.272 12.304-6.496 6.571-1.69 12.838 2.145 19.412 2.216 1.911 0 4.28-0.541 6.115-0.239 2.981 0.606 6.191 4.738 8.713 6.878 2.981 2.446 5.272 6.114 7.642 9.249 4.127 5.196 8.713 10.471 12.304 15.971 4.968 7.567 13.373 12.992 19.87 19.259 2.064 1.994 4.432 4.585 6.954 5.882 2.75 1.385 6.495 1.385 9.552 1.84 3.821 0.606 7.718 0.606 11.615 0.541-4.28-4.203-7.718-9.171-10.088-14.978-3.21-8.253-3.516-17.042-2.522-25.754z"></path>
    <path fill="#000000" d="M77.846 436.018c0.076-3.593-1.365-5.578-1.365-9.249 0.076-6.649 1.84-15.971-1.994-21.321-2.982-4.203-4.127-9.249-10.010-9.171-1.3 1.539-5.196 1.905-8.1 5.349-2.145 2.446-3.057 6.878-3.896 10.088-1.149 4.432-3.21 9.017-3.972 13.449-0.239 1.69 0 3.286-0.39 4.892-0.759 3.361-2.293 6.114-2.446 9.782-0.304 6.343 0.076 12.839 0.076 19.181 0 1.755-0.455 4.050-0.076 5.732 0.304 1.149 1.060 1.84 1.3 2.827 0.694 3.21-0.152 6.038 1.45 9.171 2.521 4.892 9.093 12.228 14.749 8.713 2.597-1.604 5.578-4.585 7.031-7.338 1.3-2.521 1.3-5.349 2.293-7.793 2.597-6.114 5.043-13.91 5.349-20.788 0.239-4.507-0.076-9.017 0-13.526z"></path>
    <path fill="#000000" d="M991.213 419.435c-0.916-3.361-2.981-6.418-3.516-9.86-0.304-1.84-0.383-2.982-0.916-4.814-1.071-3.439-1.757-6.267-3.669-9.171-2.216-3.361-3.897-7.414-6.038-10.624-0.46-0.759-3.21-3.439-5.044-3.132-0.074 0.39-0.229 0.694-0.304 1.060-0.994-0.455-1.986-0.845-2.905-0.995-1.3 1.604-2.598 3.21-3.973 4.814 0.154 0.995 0.229 1.905 0.229 2.521-0.229 2.905-0.916 6.725-1.682 9.553-1.528 5.807-3.745 11.31-4.738 17.271-0.383 1.994-0.229 3.896 0.154 5.578-0.383 1.3-0.839 2.597-1.146 3.896-1.528 5.882-2.598 12.074-2.446 18.188 0.383 0.541 0.839 1.060 1.146 1.84 1.071 2.293 1.3 4.738 2.598 7.107 1.605 2.982 3.134 6.267 4.968 9.093 1.222 1.84 2.674 4.968 4.127 6.571 1.146 1.3 3.134 1.365 4.28 2.597 0.533 0.606 0.611 1.604 0.994 2.293 0.383 0.239 0.764 0.455 1.146 0.759 0.916-0.076 1.835-1.45 2.522-1.905 2.75-1.84 5.044-2.521 7.030-5.272 9.859-12.915 11.539-31.486 7.182-47.381z"></path>
    </svg>