<svg xmlns="http://www.w3.org/2000/svg" viewBox="-33.332 -48.004 1078.663 1120.008">
    <path fill="#000000" d="M418.731 31.996l-119.94 87.869 157.899 221.108-14.723 87.698-70.079-26.157-112.603-247.462-136.060 59.92 102.052-6.428 10.355 143.079-81.907-30.574 67.38 55.578-128.969 62.546-45.468-91.598 16.146 147.789 270.404-26.206 68.632 56.633-57.737 47.628-270.576-26.23-16.146 147.789 45.443-91.574 129.068 62.571-67.404 55.627 81.833-30.549-10.33 142.956-102.052-6.428 136.061 59.92 112.529-247.29 83.33-31.114 12.392 73.784-158.022 221.23 119.915 87.893-56.559-85.17 118.713-80.508 14.477 86.225 14.453-86.152 118.614 80.434-56.559 85.17 119.915-87.893-157.899-221.083 14.723-87.722 70.079 26.182 112.603 247.437 136.060-59.92-102.052 6.428-10.33-143.079 81.907 30.574-67.356-55.578 128.92-62.522 45.468 91.574-16.146-147.789-270.38 26.206-68.632-56.633 57.713-47.603 270.576 26.23 16.146-147.789-45.443 91.574-129.116-62.571 67.454-55.651-81.833 30.549 10.355-142.931 102.027 6.428-136.086-59.92-112.48 247.265-83.354 31.114-12.392-73.784 158.022-221.23-119.915-87.869 56.584 85.146-118.762 80.508-14.453-86.2-14.453 86.127-118.614-80.434 56.584-85.146zM494.11 491.438h23.753l11.876 20.562-11.876 20.562h-23.728l-11.876-20.587 11.852-20.538z"></path>
    </svg>