<svg xmlns="http://www.w3.org/2000/svg" viewBox="-47.625 -48.003 1131.339 1120.003">
    <path fill="#000000" d="M519.022 32c0 5.083 0.157 7.976-2.033 12.356-2.346 4.458-4.692 8.758-7.194 13.373-3.597 6.569-7.742 12.591-9.306 19.628-1.095 5.005-4.145 8.758-7.194 13.373-15.015 22.678-31.594 43.871-44.34 67.957-3.441 6.647-9.541 12.2-12.434 19.003-2.424 5.787-4.458 12.278-7.273 17.126-0.938 1.486-2.893 3.441-3.988 5.161-1.173 1.72-2.111 3.050-3.519 4.536-4.067 4.223-8.524 7.976-12.747 11.887-3.91 3.519-5.708 8.603-7.194 13.529s-3.675 9.932-5.944 14.858c-6.96 15.563-18.299 25.181-30.108 37.146-5.865 5.944-12.121 13.763-15.249 21.583-2.738 6.803-6.569 12.668-9.775 19.081-1.877 3.675-2.893 8.055-4.145 12.121-3.441 10.635-7.273 21.192-8.993 32.14-1.643 10.635-2.19 20.489-2.268 31.358-0.078 7.038 2.19 13.216 2.111 20.176 0 2.972-0.548 6.413-0.078 9.384 0.391 2.581 1.643 3.597 2.19 5.944 0.704 2.738 0.704 9.853 0 12.591-0.391 1.643-1.72 2.111-2.19 3.675-1.095 3.675-1.407 9.384-1.877 13.373-0.704 6.022-0.313 12.591-0.157 18.769 0.078 4.613 2.659 6.96 3.675 11.418s1.72 8.212 3.675 12.356c1.252 2.738 3.597 4.77 5.005 7.351 2.111 3.832 3.519 8.133 5.708 11.964 4.692 8.055 8.915 15.797 11.809 25.025 2.815 8.915 7.508 18.69 11.652 27.293 5.787 11.809 13.138 20.098 25.259 24.712 3.128 1.173 6.569 1.407 9.619 2.502 2.972 1.095 5.005 3.206 8.055 4.067 6.178 1.72 11.73 4.379 18.143 5.787 9.932 2.346 16.109 8.133 25.181 11.964 3.754 1.564 8.212 1.407 12.356 2.972 4.536 1.799 8.993 1.407 13.373 3.050 5.318 1.955 8.603 3.050 14.468 3.128 4.301 0.078 9.071 1.407 13.295 2.502 5.944 1.564 10.088 3.754 16.501 3.675 6.178 0 12.356 0.234 18.456 0.078 14.468-0.234 28.152-6.413 42.385-6.256 3.597 0.078 10.948 0.782 9.306-5.161-1.252-4.536-9.697-3.206-13.45-4.067-13.216-2.972-28.778-1.016-42.229-1.016h-18.533c-13.45 0-26.198-3.128-39.179-6.647-2.268-0.625-3.597-1.486-6.022-1.643-3.050-0.234-5.865 0.391-8.837-0.313-9.306-2.346-16.892-9.462-23.148-16.266-2.738-2.972-5.552-5.474-8.289-8.133-3.754-3.754-5.552-8.603-8.367-13.059-1.955-3.050-4.145-5.708-6.413-8.446-0.625-0.625-1.877-0.938-2.346-1.643-0.704-0.938-0.157-2.502-0.704-3.441-2.502-4.379-6.882-9.541-9.932-13.686-3.597-4.849-10.714-3.284-15.093-7.976-8.68-9.306-14.858-18.533-18.221-31.124-2.268-8.68-5.865-16.97-10.088-24.789-4.223-7.898-2.893-19.707-4.067-29.013-0.704-5.865-1.329-11.887-3.363-17.438-1.173-3.284-2.581-5.787-2.972-9.15-0.469-4.692 0.157-9.853 0.157-14.545 0-9.462 0-18.847 0-28.309 0-8.837-1.486-18.69 1.407-27.214 1.955-5.631 5.708-10.479 7.82-16.344 3.206-8.603 5.787-17.126 10.088-25.259 4.223-7.898 6.882-16.97 10.401-25.259 2.502-6.022 4.145-13.763 7.508-19.394 4.458-7.508 12.982-14.077 18.924-20.567 12.903-13.92 24.712-28.543 38.866-41.838 8.133-7.664 19.16-9.462 24.634-20.176 2.346-4.536 3.675-9.384 4.458-14.311 1.799-11.026 5.631-20.254 9.541-30.577 2.268-5.944 3.050-8.915 6.49-13.841 4.145-6.022 6.647-12.747 8.446-19.863 0.861-3.128 0.861-6.96 1.955-9.932 0.861-2.346 2.738-4.145 3.675-6.413 3.754-8.993 8.837-17.986 11.573-27.527 2.424-8.837 1.095-19.238 1.095-28.388 0 12.356 0 24.712 0 37.068 0 7.898 1.877 14.468 3.597 21.975 3.050 13.059 6.803 26.745 12.903 38.788 3.284 6.49 7.351 12.512 10.714 18.924 2.738 5.161 6.882 9.384 9.932 14.389 4.379 7.117 7.82 14.78 11.573 22.287 3.284 6.647 6.569 11.964 10.635 18.065 4.301 6.413 7.117 14.389 10.792 21.271 2.815 5.083 5.318 9.697 8.993 14.154 3.441 3.988 8.68 6.882 10.635 11.887 2.738 7.273 2.893 17.283 2.893 25.103 0.078 11.261 4.145 17.361 9.619 26.511 2.893 4.849 2.502 7.898 2.738 13.138 0.234 6.49 3.284 11.809 7.038 16.892 4.223 5.708 9.619 11.183 13.295 17.204 2.268 3.675 2.972 9.384 3.988 13.45 1.407 5.631-1.016 9.15-2.424 14.702-2.268 8.446-0.704 11.261 1.72 18.924 1.643 5.396 1.955 11.418 2.815 17.126 0.938 6.022-1.173 11.573-2.111 17.595-1.252 8.055-3.363 16.266-6.882 23.539-4.613 9.306-6.726 18.143-9.306 28.074-3.519 13.295-5.865 25.103-6.022 38.788-0.157 8.68-2.502 19.707-6.099 27.449-3.441 7.194-6.335 15.484-11.339 21.896-3.675 4.849-7.508 8.603-10.948 13.998-2.972 4.613-4.301 9.462-7.429 13.92-2.346 3.363-4.145 3.832-7.194 6.256-2.424 1.955-4.536 5.865-7.664 6.882-2.815 1.016-7.898-1.799-7.038 3.284 1.095 5.865 12.512 6.413 14.389 11.183 9.775-2.19 18.847-7.976 26.823-13.92 5.318-3.988 7.273-7.82 10.714-13.216 3.128-4.849 6.726-8.68 8.993-13.92 2.659-6.178 5.083-10.87 8.758-16.501 8.603-13.45 14.389-27.683 18.533-43.089 3.441-12.591 10.948-23.539 14.389-35.973 4.223-15.093 6.96-30.89 6.647-46.53-0.157-10.244 2.111-20.254 2.033-30.577 0-6.413 0-12.747 0-19.16 0-3.050 0.861-7.976-0.157-11.026-0.861-2.659-3.519-3.988-4.067-7.273-1.173-7.273 0.157-15.953 0.157-23.304 0-9.697 2.502-20.88-6.022-27.761-2.268-1.877-3.519-0.548-6.726-3.519-3.832-3.441-8.055-9.228-9.775-13.763-2.893-7.585-3.363-15.875-5.396-23.617-0.938-3.519-2.581-6.647-3.832-10.088-2.268-6.49-1.955-13.45-3.675-19.942-1.72-6.569-3.988-13.998-6.178-20.489-1.407-3.91-4.692-8.055-7.351-11.105-5.552-6.413-12.512-12.903-16.892-20.333-6.726-11.496-13.059-18.377-25.337-23.93-4.379-2.033-6.569-2.581-9.384-6.256-2.972-3.91-3.754-5.396-5.552-10.088-1.877-5.161-3.363-10.088-5.005-15.327-3.519-11.105-8.133-20.723-13.686-30.89-3.363-6.099-5.318-12.121-8.055-18.456-2.346-5.474-4.536-7.273-5.318-12.747-1.564-10.948-4.613-22.053-6.647-33.001-1.016-5.24-2.424-10.010-5.708-14.311-1.252-1.643-2.893-3.363-4.458-4.692-1.252-1.016-2.346-0.938-3.284-2.502-1.329-2.19 0.157-4.379 1.643-8.367z"></path>
    <path fill="#000000" d="M186.666 150.631c3.284 3.91 5.318 6.022 6.335 10.792 1.095 4.927 2.033 9.697 3.050 14.858 1.564 7.351 2.268 14.624 5.552 21.037 2.424 4.536 2.424 9.306 3.128 14.78 3.050 27.058 3.988 53.959 9.697 80.626 1.564 7.273 0.548 15.484 2.659 22.522 1.877 6.022 4.536 12.278 5.474 17.83 0.234 1.72 0 4.458 0.234 6.569 0.234 2.033 0.391 3.597 0.234 5.708-0.391 5.787-1.407 11.573-2.111 17.283-0.704 5.161 1.095 10.244 3.128 14.936 2.111 4.77 3.597 10.010 5.083 15.249 4.613 16.344 2.111 30.968 0.782 47.781-0.625 8.367-0.469 18.377 2.19 26.354 2.346 6.96 3.128 13.92 4.77 20.88 0.938 4.067 2.972 8.055 4.613 11.964 4.145 10.323 8.055 20.88 13.763 30.42 5.552 9.15 11.496 17.048 18.456 25.416 4.458 5.474 10.166 8.758 14.545 14.154 1.955 2.268 3.754 5.24 5.944 7.194 1.955 1.799 3.597 1.72 5.552 3.128 2.268 1.72 6.882 7.117 8.055 9.697 0.782 1.486 0 2.738 0.704 4.223 1.564 3.519 5.005 8.133 7.194 11.418 3.284 5.083 7.82 9.853 11.887 14.468 3.128 3.519 6.49 3.675 10.166 6.49 3.675 2.659 6.569 5.083 10.792 7.038 2.738 1.329 5.787 1.329 8.603 2.424 4.067 1.643 7.82 3.988 12.043 5.474 8.758 3.128 16.97 6.413 25.103 11.573 7.898 5.083 17.752 9.541 26.511 13.45 11.964 5.318 22.913 6.882 35.112 2.659 3.206-1.095 6.022-3.128 9.071-4.223 2.972-1.095 5.865-0.861 8.758-2.111 5.865-2.659 11.809-4.223 17.595-7.194 9.15-4.613 17.595-4.145 26.979-7.038 3.91-1.173 7.194-4.223 11.418-5.631 4.613-1.564 7.82-4.692 12.2-6.256 5.318-1.955 8.603-3.206 13.059-6.882 3.363-2.815 7.898-4.849 11.809-6.726 5.552-2.581 10.166-3.597 15.093-7.742 4.613-3.988 9.462-7.742 14.077-11.809 10.948-9.462 17.438-22.991 28.465-31.985 2.815-2.346 8.915-6.49 3.754-10.010-3.832-2.659-9.384 3.754-12.903 5.552-11.964 6.256-22.678 17.752-33.001 26.354l-14.154 11.887c-10.323 8.68-22.053 14.545-34.253 20.098-2.19 1.016-3.754 1.173-5.708 2.659-2.424 1.799-4.223 4.067-6.96 5.396-8.603 4.223-19.003 3.675-28.152 2.424-3.988-0.469-7.82-0.548-11.652-0.861-5.161-0.469-9.775-3.050-14.78-4.692-3.441-1.095-6.803-1.643-10.323-2.268-0.861-0.157-2.033 0.469-2.893 0.234-1.095-0.234-1.72-1.799-2.738-2.19-4.692-1.72-11.418-2.893-16.344-4.067-5.865-1.407-10.401 4.301-16.735 3.519-12.591-1.486-23.304-4.613-33.939-12.121-7.351-5.161-15.406-9.15-23.695-12.512-8.289-3.284-14.858-13.138-21.74-19.628-4.301-3.988-8.68-8.212-13.763-11.183-3.050-1.72-5.708-2.738-8.133-5.083-3.441-3.284-6.256-7.585-9.306-11.261-6.099-7.194-12.121-14.389-18.143-21.583-5.708-6.803-13.138-13.373-16.422-21.818-2.19-5.552-2.424-11.73-4.536-17.595-3.050-8.603-6.569-16.813-8.446-25.807-1.877-8.758-5.708-17.438-8.367-25.963-1.955-6.335-5.631-13.216-6.647-19.707-1.407-8.68 0.861-19.081 1.252-27.918 0.938-19.003 0.548-37.771 2.893-57.087 1.329-11.105 8.524-19.472 5.865-31.281-1.095-4.927-3.206-9.541-5.787-13.841-5.708-9.541-8.68-19.081-12.356-29.56-2.033-5.944-3.363-8.68-3.91-14.702-0.704-7.351-3.050-14.077-6.256-20.646-1.407-2.972-3.832-5.944-4.927-8.915-0.861-2.424-0.548-4.927-1.252-7.273-2.972-9.306-4.77-19.472-8.915-28.543-3.754-8.289-11.496-15.406-17.361-22.444 7.898 9.462 15.953 18.924 23.852 28.388 5.005 6.099 10.714 9.853 16.892 14.545 10.635 8.055 22.444 16.109 34.721 21.428 6.726 2.893 13.686 4.849 20.41 7.585 5.474 2.268 11.339 2.815 16.892 4.692 7.898 2.581 15.563 6.256 23.148 9.619 6.803 2.972 12.747 4.927 19.785 6.96 7.429 2.19 14.702 6.49 21.975 9.384 5.396 2.111 10.244 3.988 15.953 5.005 5.161 0.938 11.105-0.234 15.797 2.346 6.803 3.754 13.295 11.418 18.377 17.361 7.273 8.524 14.311 10.635 24.321 14.077 5.396 1.877 7.038 4.458 10.557 8.367 4.458 4.77 10.166 6.882 16.266 8.367 6.882 1.643 14.624 2.346 21.271 4.613 4.067 1.407 8.289 5.318 11.652 7.742 4.77 3.519 5.161 7.664 7.585 12.825 3.754 7.898 6.726 9.071 13.529 13.45 4.692 3.050 8.837 7.429 13.138 11.261 4.613 4.067 6.569 9.697 9.775 14.858 4.145 6.96 7.82 14.624 9.775 22.444 2.502 10.166 6.49 18.221 10.948 27.527 5.865 12.434 11.652 22.913 20.333 33.548 5.474 6.726 10.792 16.657 12.903 24.946 2.033 7.742 5.161 15.953 5.474 24.086 0.234 6.022-0.234 11.418 0.548 17.752 0.704 5.474 2.815 10.010 3.284 15.484 0.391 3.988-0.704 5.552-1.486 9.384-0.548 3.050 0.234 7.429-1.407 10.166-1.486 2.581-7.194 3.754-3.284 7.038 4.613 3.832 13.607-3.128 18.143-0.625 6.178-7.976 9.306-18.221 11.652-27.996 1.486-6.413 0.548-10.557-0.313-16.97-0.704-5.708-0.391-10.948-2.033-16.422-1.955-6.49-3.050-11.573-3.91-18.299-2.111-15.797-6.803-30.42-13.529-44.966-5.474-11.809-6.726-25.025-12.121-36.755-6.49-14.311-14.468-28.074-24.789-39.961-6.726-7.664-11.339-16.735-18.065-24.712-4.145-4.849-8.212-9.775-12.278-14.624-2.033-2.424-4.458-6.726-7.194-8.367-2.502-1.486-5.318-0.861-7.82-2.972-5.631-4.77-10.166-12.278-14.936-17.908-6.178-7.429-11.496-17.595-22.444-17.438-2.893 0.078-2.972 1.799-7.351 1.643-5.161-0.157-12.121-1.877-16.422-4.223-7.038-3.988-12.668-10.010-19.238-14.624-3.050-2.111-6.256-3.441-9.384-5.318-5.944-3.519-10.166-8.993-15.718-12.903-5.474-3.91-12.043-8.212-17.908-11.652-3.597-2.111-8.68-3.206-12.747-3.832-8.367-1.407-17.908-1.877-25.963-4.77-12.591-4.458-21.818-5.631-34.8-2.033-4.692 1.252-6.647 2.268-11.261 1.252-4.77-1.016-6.256-1.72-10.714-4.223-4.77-2.659-9.071-5.474-13.686-8.446-9.853-6.256-19.472-10.635-30.342-14.858-6.49-2.581-11.887-5.865-17.986-8.915-5.396-2.659-8.212-2.659-12.278-6.413-8.212-7.351-17.752-13.92-26.354-20.958-4.067-3.441-8.289-6.178-13.529-7.351-2.033-0.469-4.379-0.625-6.49-0.704-1.564 0-2.346 0.782-4.145 0.157-2.424-0.782-2.659-3.363-4.067-7.429z"></path>
    <path fill="#000000" d="M32.375 432.157c5.005 0.861 7.898 1.173 11.809 4.223 3.988 3.050 7.82 6.099 11.887 9.384 5.865 4.613 11.105 9.775 17.752 12.512 4.77 1.955 7.898 5.631 11.887 9.384 19.785 18.769 37.771 38.788 59.276 55.523 5.865 4.536 10.323 11.496 16.501 15.484 5.318 3.441 11.339 6.569 15.64 10.166 1.329 1.173 2.893 3.441 4.379 4.849 1.564 1.407 2.659 2.581 3.832 4.301 3.441 4.692 6.413 9.697 9.541 14.545 2.815 4.458 7.429 7.117 12.043 9.462 4.613 2.268 9.15 5.318 13.686 8.367 14.077 9.619 21.505 22.366 31.281 36.129 4.849 6.803 11.496 14.389 18.612 18.769 6.256 3.832 11.339 8.68 17.048 12.982 3.363 2.502 7.508 4.145 11.261 6.178 9.853 5.24 19.628 10.792 30.108 14.389 10.166 3.519 19.785 5.708 30.499 7.664 6.882 1.329 13.373 0.157 20.254 1.486 2.893 0.548 6.178 1.643 9.15 1.72 2.659 0.078 3.91-1.016 6.256-1.173 2.815-0.157 9.853 1.016 12.356 2.19 1.564 0.704 1.799 2.111 3.284 2.815 3.441 1.72 9.071 2.972 12.825 4.145 5.865 1.799 12.356 2.502 18.456 3.441 4.613 0.704 7.351-1.407 11.964-1.643 4.458-0.234 8.289-0.313 12.747-1.486 2.893-0.782 5.318-2.738 8.133-3.675 4.145-1.329 8.603-2.033 12.747-3.519 8.758-3.284 17.126-6.022 26.745-7.273 9.228-1.252 19.707-4.145 28.856-6.803 12.591-3.597 22.053-9.384 28.7-20.489 1.72-2.893 2.581-6.256 4.223-9.071 1.564-2.738 3.988-4.379 5.318-7.273 2.815-5.787 6.335-10.792 8.915-16.813 3.988-9.384 10.792-14.468 16.109-22.678 2.19-3.441 2.815-7.898 5.083-11.652 2.502-4.223 2.972-8.603 5.318-12.668 2.893-4.927 4.536-7.976 5.631-13.686 0.782-4.301 2.893-8.758 4.77-12.747 2.502-5.474 5.474-9.228 6.49-15.563 1.016-6.099 2.346-12.121 3.284-18.143 2.19-14.232-1.486-28.856 1.173-42.854 0.704-3.519 2.659-10.635-3.519-10.010-4.613 0.391-4.849 8.915-6.335 12.512-5.161 12.512-6.022 28.152-8.289 41.447-1.095 6.022-2.19 12.121-3.284 18.221-2.346 13.295-7.585 25.259-13.295 37.38-1.016 2.19-2.111 3.284-2.738 5.708-0.704 2.893-0.548 5.787-1.799 8.603-3.91 8.758-12.2 15.015-20.019 19.942-3.363 2.19-6.335 4.613-9.462 6.803-4.301 2.972-9.462 3.988-14.311 5.944-3.363 1.407-6.335 3.050-9.384 4.927-0.782 0.469-1.252 1.643-2.033 2.033-1.016 0.469-2.502-0.313-3.519 0.078-4.77 1.643-10.557 5.083-15.171 7.429-5.396 2.659-5.161 9.932-10.479 13.373-10.714 6.96-20.88 11.496-33.862 12.512-8.915 0.782-17.674 2.893-26.198 5.708-8.446 2.738-19.863-0.548-29.247-1.016-5.865-0.313-11.964-0.782-17.752 0.234-3.363 0.625-6.099 1.564-9.541 1.329-4.692-0.313-9.697-1.799-14.311-2.659-9.306-1.643-18.533-3.284-27.84-4.849-8.758-1.564-18.612-1.799-26.588-6.178-5.24-2.893-9.306-7.429-14.702-10.557-7.898-4.613-15.875-8.68-23.148-14.311-7.038-5.552-15.484-9.775-23.069-14.624-5.474-3.519-12.825-6.49-17.752-10.714-6.647-5.787-11.652-15.249-16.97-22.287-11.496-15.093-23.852-29.247-34.487-45.513-6.099-9.306-5.944-20.489-15.563-27.761-4.067-3.050-8.603-5.24-13.373-6.882-10.479-3.675-18.924-8.993-28.465-14.702-5.396-3.284-8.212-4.536-12.512-8.758-5.161-5.161-11.339-8.837-17.986-11.809-2.972-1.329-6.726-2.111-9.541-3.675-2.19-1.252-3.597-3.363-5.631-4.77-8.212-5.24-16.188-11.73-25.103-16.031-8.289-3.988-18.769-4.458-27.761-6.099 12.121 2.19 24.321 4.301 36.52 6.49 7.742 1.329 14.545 0.625 22.287 0.234 13.295-0.704 27.527-2.111 40.352-5.944 7.038-2.111 13.607-5.083 20.489-7.273 5.631-1.799 10.479-5.161 15.953-7.273 7.742-3.050 15.953-5.161 23.93-7.508 7.117-2.111 12.903-4.458 19.628-7.351 7.117-3.128 15.406-4.536 22.835-7.038 5.552-1.799 10.479-3.441 15.484-6.335 4.536-2.659 8.367-7.351 13.607-8.367 7.585-1.486 17.517 0.157 25.181 1.486 11.105 1.877 17.83-1.095 27.761-4.849 5.318-2.033 8.212-1.095 13.45-0.391 6.49 0.861 12.2-1.252 17.83-4.067 6.335-3.128 12.668-7.508 19.238-10.088 3.988-1.564 9.775-1.329 13.998-1.564 5.787-0.391 8.837 2.502 13.998 4.927 7.976 3.675 10.948 2.581 19.003 1.643 5.552-0.704 11.573 0 17.283 0.157 6.178 0.078 11.261 3.128 17.048 5.083 7.664 2.659 15.406 6.178 21.896 10.948 8.446 6.178 16.735 9.697 26.12 14.077 12.512 5.708 23.617 10.010 37.146 12.591 8.524 1.643 18.924 5.865 25.963 10.792 6.49 4.613 14.154 8.915 19.628 14.936 4.067 4.458 7.117 8.915 11.809 13.216 3.988 3.754 8.603 5.865 12.434 9.775 2.893 2.815 3.050 4.692 4.927 8.133 1.486 2.659 4.927 5.474 5.474 8.68 0.469 2.972-3.128 7.508 1.955 7.508 6.022 0 8.446-11.105 13.529-12.121-0.469-10.088-4.536-20.019-9.071-28.934-2.972-5.944-6.413-8.446-11.105-12.825-4.223-3.91-7.351-8.055-12.2-11.261-5.631-3.675-9.775-6.882-14.702-11.418-11.809-10.87-24.789-19.003-39.257-25.807-11.809-5.552-21.271-14.858-32.923-20.41-14.154-6.726-29.169-12.2-44.653-14.624-10.088-1.564-19.551-5.552-29.717-7.351-6.335-1.095-12.591-2.19-18.847-3.284-3.050-0.548-7.742-2.268-10.87-1.799-2.893 0.469-4.613 2.738-7.976 2.738-7.273 0-15.64-2.815-22.835-4.145-9.619-1.643-20.176-6.099-28.465 1.095-2.19 1.877-1.095 3.363-4.613 6.022-4.067 3.128-10.401 6.335-15.249 7.273-7.976 1.486-16.188 0.469-24.164 1.173-3.675 0.313-7.038 1.407-10.635 1.955-6.726 1.095-13.529-0.391-20.254 0.234-6.803 0.548-14.468 1.486-21.192 2.581-4.145 0.625-8.758 3.128-12.278 5.24-7.273 4.379-14.936 10.088-22.913 13.059-12.512 4.613-20.41 9.775-27.996 20.801-2.815 3.988-3.675 6.022-7.82 8.212-4.301 2.268-5.944 2.738-10.87 3.675-5.474 1.016-10.479 1.564-16.031 2.268-11.496 1.564-21.74 4.379-32.767 8.133-6.569 2.19-12.825 3.128-19.551 4.77-5.787 1.329-7.898 3.206-13.45 2.972-11.026-0.391-22.522 0.782-33.626 0.861-5.396 0-10.323 0.548-15.171 3.050-1.799 1.016-3.754 2.346-5.396 3.675-1.173 1.016-1.252 2.111-3.050 2.738-2.346 1.016-4.223-0.861-7.898-3.050z"></path>
    <path fill="#000000" d="M79.608 776.555c4.379-2.502 6.803-4.145 11.73-4.379 5.083-0.234 9.932-0.313 15.171-0.469 7.508-0.157 14.78 0.391 21.662-1.799 4.849-1.564 9.619-0.782 15.093-0.391 27.214 1.643 53.881 5.396 81.095 4.379 7.429-0.313 15.327 2.19 22.6 1.252 6.335-0.782 12.903-2.268 18.533-2.19 1.799 0 4.458 0.704 6.49 0.782 2.033 0.157 3.675 0.313 5.708 0.861 5.631 1.407 11.105 3.284 16.657 5.083 5.005 1.564 10.244 0.625 15.249-0.548 5.083-1.252 10.479-1.799 15.875-2.346 16.97-1.72 30.89 3.284 47.234 7.508 8.133 2.111 17.986 3.675 26.275 2.424 7.273-1.016 14.232-0.625 21.428-1.016 4.145-0.234 8.446-1.643 12.591-2.502 10.948-2.346 21.975-4.301 32.376-8.289 9.932-3.832 18.769-8.367 28.231-13.763 6.099-3.441 10.323-8.446 16.422-11.887 2.581-1.486 5.865-2.738 8.133-4.613 2.111-1.564 2.346-3.206 4.067-4.849 2.033-1.955 8.212-5.552 10.87-6.335 1.643-0.391 2.738 0.469 4.379 0.078 3.675-0.861 8.758-3.519 12.434-5.083 5.631-2.346 11.105-6.022 16.344-9.15 3.988-2.502 4.692-5.787 8.133-8.993 3.284-3.050 6.178-5.552 8.837-9.306 1.72-2.502 2.268-5.552 3.832-8.055 2.268-3.754 5.318-7.038 7.508-10.948 4.613-8.055 9.228-15.563 15.797-22.678 6.335-6.882 12.434-15.875 17.752-23.773 7.351-10.87 10.87-21.349 8.758-34.174-0.469-3.284-2.033-6.413-2.581-9.619-0.548-3.128 0.234-5.944-0.548-8.993-1.564-6.256-2.111-12.356-3.988-18.612-3.050-9.775-1.095-17.986-2.268-27.761-0.548-4.067-2.893-7.82-3.597-12.2-0.704-4.849-3.284-8.524-4.067-13.138-0.938-5.552-1.643-8.993-4.536-14.077-2.111-3.832-3.363-8.603-4.458-12.825-1.643-5.865-1.799-10.635-5.083-16.109-3.128-5.318-5.944-10.714-9.15-15.953-7.429-12.434-19.628-21.192-26.588-33.626-1.799-3.206-4.77-9.853-9.15-5.396-3.284 3.284 2.033 9.932 3.206 13.607 4.067 12.903 13.529 25.493 20.254 37.146 3.050 5.318 6.178 10.635 9.228 16.031 6.726 11.652 10.401 24.243 13.841 37.223 0.625 2.268 0.469 3.832 1.564 6.099 1.329 2.659 3.284 4.77 4.145 7.742 2.659 9.228 0.313 19.315-2.502 28.152-1.173 3.832-1.877 7.585-2.893 11.261-1.329 5.083-4.692 9.15-7.117 13.763-1.72 3.206-2.893 6.413-4.067 9.775-0.313 0.861 0.078 2.111-0.234 2.893-0.469 1.016-2.111 1.407-2.659 2.346-2.581 4.301-4.77 10.714-6.882 15.406-2.424 5.552 2.502 10.948 0.625 17.048-3.675 12.2-8.603 22.131-17.908 31.358-6.335 6.335-11.652 13.529-16.422 21.114-4.692 7.585-15.563 12.356-23.069 18.065-4.692 3.519-9.619 7.117-13.373 11.652-2.268 2.581-3.675 5.083-6.49 7.117-3.832 2.738-8.524 4.77-12.668 7.194-8.133 4.692-16.266 9.384-24.477 14.077-7.664 4.458-15.406 10.635-24.321 12.356-5.865 1.173-11.887 0.391-18.065 1.407-8.993 1.564-17.674 3.519-26.902 3.91-8.915 0.313-18.143 2.502-27.058 3.675-6.49 0.782-13.998 3.206-20.489 3.128-8.837-0.078-18.69-4.145-27.293-6.099-18.612-4.223-37.146-7.117-55.758-12.747-10.635-3.206-17.674-11.809-29.717-11.261-5.083 0.313-9.932 1.564-14.702 3.363-10.323 3.91-20.254 5.24-31.203 7.038-6.256 0.938-9.15 1.799-15.171 1.329-7.351-0.625-14.468 0.548-21.428 2.502-3.128 0.938-6.49 2.738-9.697 3.284-2.424 0.469-4.849-0.234-7.351 0.078-9.619 1.252-19.942 1.329-29.56 3.754-8.915 2.268-17.283 8.68-25.181 13.216 10.714-6.178 21.428-12.356 32.14-18.533 6.803-3.91 11.573-8.837 17.204-14.154 9.775-9.071 19.785-19.238 27.136-30.499 4.067-6.099 7.117-12.591 11.026-18.769 3.128-4.927 4.692-10.635 7.508-15.797 3.988-7.273 8.915-14.232 13.529-21.114 4.145-6.178 7.038-11.73 10.323-18.299 3.441-6.96 8.837-13.295 12.982-20.019 3.050-4.927 5.787-9.384 7.742-14.858 1.799-4.927 1.643-10.948 5.083-15.093 4.849-6.022 13.529-11.105 20.254-15.093 9.697-5.631 12.982-12.278 18.143-21.505 2.738-5.005 5.552-6.099 10.010-8.993 5.552-3.441 8.524-8.758 11.105-14.545 2.815-6.49 4.849-13.92 8.212-20.098 2.111-3.754 6.647-7.273 9.697-10.166 4.223-4.067 8.446-3.754 13.92-5.24 8.446-2.268 10.088-5.083 15.563-10.948 3.832-4.145 8.915-7.429 13.373-11.026 4.77-3.832 10.635-4.849 16.344-7.038 7.585-2.893 15.718-5.161 23.773-5.708 10.479-0.704 19.081-3.284 29.091-6.022 13.216-3.597 24.555-7.508 36.52-14.232 7.585-4.223 18.299-7.664 26.823-8.367 7.976-0.625 16.579-2.268 24.634-1.173 6.022 0.782 11.183 2.19 17.595 2.502 5.474 0.313 10.401-1.016 15.797-0.548 4.067 0.391 5.318 1.643 8.993 3.128 2.893 1.095 7.351 1.016 9.775 3.128 2.268 1.955 2.424 7.742 6.335 4.458 4.613-3.832-0.704-13.92 2.581-17.986-6.803-7.429-16.344-12.356-25.572-16.266-6.099-2.659-10.323-2.424-16.735-2.738-5.787-0.234-10.87-1.407-16.579-0.782-6.726 0.782-11.964 1.016-18.69 0.704-15.953-0.704-31.124 1.329-46.608 5.474-12.591 3.363-25.807 2.268-38.318 5.552-15.171 3.91-30.186 9.384-43.636 17.517-8.758 5.24-18.456 8.289-27.449 13.45-5.552 3.206-11.105 6.413-16.579 9.619-2.738 1.486-7.351 3.206-9.462 5.631-1.877 2.111-1.72 5.005-4.301 7.194-5.631 4.613-13.841 7.82-20.254 11.496-8.367 4.849-19.315 8.289-21.037 19.081-0.469 2.893 1.252 3.284 0.313 7.585-1.095 5.005-3.91 11.573-7.038 15.406-5.083 6.256-12.043 10.792-17.752 16.422-2.581 2.581-4.458 5.552-6.803 8.367-4.536 5.161-10.635 8.367-15.406 13.138-4.849 4.77-10.166 10.479-14.624 15.64-2.738 3.128-4.692 8.055-6.022 11.887-2.815 8.055-4.927 17.283-9.15 24.789-6.569 11.573-9.306 20.489-8.055 33.939 0.391 4.77 1.016 6.882-0.704 11.261-1.877 4.458-2.815 5.865-6.022 9.775-3.519 4.301-6.96 7.976-10.714 12.043-7.898 8.603-13.92 17.361-19.942 27.293-3.597 5.944-7.82 10.635-11.887 16.188-3.597 4.77-4.067 7.585-8.446 11.026-8.68 6.803-16.735 15.015-25.181 22.209-4.067 3.519-7.585 7.117-9.619 12.121-0.782 1.877-1.407 4.145-1.799 6.256-0.313 1.564 0.313 2.424-0.548 4.067-1.252 2.268-3.832 2.033-8.055 2.738z"></path>
    <path fill="#000000" d="M352.922 992c1.72-4.77 2.581-7.585 6.178-10.948 3.675-3.363 7.351-6.569 11.339-10.010 5.631-5.005 11.573-9.228 15.406-15.327 2.738-4.301 6.882-6.803 11.339-10.088 21.896-16.188 44.731-30.42 64.907-48.719 5.552-5.005 13.138-8.212 18.143-13.607 4.301-4.613 8.446-10.010 12.747-13.529 1.407-1.173 3.91-2.346 5.552-3.519 1.643-1.252 2.972-2.19 4.849-3.050 5.24-2.581 10.714-4.613 16.031-6.882 4.849-1.955 8.289-6.099 11.339-10.166 3.128-4.223 6.882-8.133 10.635-12.043 11.887-12.2 25.807-17.283 41.056-24.555 7.585-3.597 16.109-8.758 21.662-15.015 4.927-5.552 10.479-9.697 15.718-14.545 3.128-2.893 5.474-6.726 8.133-10.088 6.803-8.758 13.998-17.361 19.394-27.136 5.161-9.384 9.071-18.456 12.825-28.7 2.502-6.569 2.502-13.138 4.927-19.628 1.095-2.815 2.738-5.865 3.284-8.758 0.548-2.581-0.313-3.988 0-6.335 0.234-2.815 2.659-9.541 4.301-11.809 0.938-1.407 2.346-1.407 3.363-2.738 2.268-3.128 4.458-8.367 6.256-11.887 2.738-5.474 4.613-11.809 6.569-17.595 1.486-4.458-0.078-7.429 0.469-12.043 0.548-4.536 1.173-8.289 0.782-12.903-0.234-2.972-1.799-5.631-2.19-8.603-0.625-4.301-0.548-8.837-1.329-13.138-1.643-9.228-2.972-17.908-2.502-27.605 0.469-9.306-0.625-20.098-1.643-29.638-1.329-13.059-5.474-23.304-15.249-31.828-2.502-2.19-5.708-3.597-8.212-5.708-2.346-2.033-3.597-4.692-6.178-6.49-5.24-3.754-9.541-8.133-15.015-11.73-8.603-5.552-12.356-13.059-19.551-19.785-2.972-2.738-7.273-4.145-10.635-7.038-3.597-3.206-7.976-4.379-11.496-7.429-4.379-3.675-7.117-5.787-12.512-7.898-4.067-1.564-8.133-4.379-11.73-6.882-4.927-3.519-8.133-7.038-14.232-9.15-5.787-2.033-11.496-4.379-17.283-6.335-13.607-4.692-28.622-3.597-41.916-8.68-3.441-1.252-10.010-4.458-10.557 1.799-0.391 4.613 7.976 6.256 11.261 8.367 11.418 7.273 26.666 10.792 39.336 15.406 5.787 2.111 11.573 4.223 17.438 6.335 12.668 4.613 23.539 11.887 34.487 19.628 1.955 1.329 2.815 2.659 5.161 3.675 2.738 1.173 5.552 1.564 8.133 3.284 7.976 5.318 12.668 14.624 16.188 23.148 1.564 3.675 3.363 7.038 5.005 10.479 2.268 4.77 2.268 10.010 3.441 15.171 0.704 3.519 1.877 6.726 3.128 10.088 0.313 0.861 1.486 1.564 1.643 2.346 0.313 1.095-0.704 2.424-0.548 3.519 0.861 4.927 3.284 11.261 4.692 16.188 1.72 5.787 8.915 6.803 11.418 12.668 5.005 11.73 7.664 22.522 6.49 35.503-0.861 8.915-0.234 17.908 1.016 26.745s-3.988 19.472-6.099 28.7c-1.329 5.708-2.815 11.652-2.815 17.517 0 3.441 0.469 6.256-0.391 9.619-1.095 4.536-3.441 9.228-5.083 13.607-3.206 8.837-6.413 17.752-9.619 26.588-3.050 8.289-5.005 18.065-10.714 25.103-3.754 4.613-8.915 7.898-12.903 12.668-5.944 6.96-11.339 14.077-18.143 20.254-6.647 6.022-12.278 13.607-18.377 20.176-4.458 4.849-8.603 11.496-13.686 15.64-6.803 5.552-16.97 8.837-24.868 12.825-16.892 8.758-32.923 18.456-50.831 26.12-10.244 4.379-21.192 2.346-30.029 10.479-3.754 3.441-6.647 7.585-9.071 11.964-5.396 9.697-12.2 17.126-19.472 25.493-4.145 4.77-5.787 7.273-10.714 10.792-6.022 4.223-10.714 9.619-14.78 15.718-1.877 2.659-3.206 6.256-5.318 8.68-1.564 1.955-3.91 2.972-5.631 4.77-6.569 7.194-14.389 13.841-20.176 21.975-5.396 7.429-7.664 17.674-10.792 26.275 4.223-11.652 8.367-23.304 12.668-34.878 2.738-7.351 3.206-14.232 4.145-21.896 1.643-13.216 2.738-27.449 1.173-40.822-0.861-7.273-2.659-14.232-3.675-21.428-0.782-5.865-3.206-11.183-4.379-16.97-1.643-8.133-2.346-16.579-3.206-24.868-0.861-7.429-2.111-13.529-3.832-20.646-1.877-7.508-1.799-15.875-2.893-23.695-0.861-5.708-1.643-10.87-3.675-16.344-1.799-4.927-5.787-9.462-5.865-14.858-0.078-7.742 3.206-17.204 5.865-24.555 3.754-10.557 2.033-17.752 0.078-28.152-1.095-5.552 0.313-8.289 1.877-13.295 2.033-6.256 0.938-12.2-0.861-18.299-1.955-6.803-5.24-13.763-6.569-20.723-0.861-4.145 0.391-9.775 0.861-13.998 0.625-5.787 4.067-8.289 7.273-12.982 5.005-7.117 4.536-10.323 4.927-18.377 0.234-5.552 2.033-11.339 3.128-17.048 1.173-5.944 5.083-10.479 8.055-15.875 3.91-7.038 8.68-14.077 14.545-19.628 7.508-7.273 12.512-14.78 18.377-23.304 7.742-11.261 13.92-21.505 18.847-34.409 3.050-8.055 9.071-17.595 15.171-23.617 5.631-5.631 11.183-12.434 18.065-16.735 5.083-3.284 10.010-5.474 15.171-9.384 4.301-3.284 7.194-7.508 11.652-10.557 3.363-2.346 5.24-2.19 8.915-3.441 2.893-1.016 6.256-3.91 9.541-3.832 2.972 0 6.803 4.379 7.742-0.704 1.016-5.865-9.541-10.244-9.619-15.406-10.010-1.329-20.489 1.016-30.029 3.91-6.413 1.877-9.462 4.849-14.624 8.758-4.536 3.441-9.228 5.865-13.216 10.010-4.613 4.927-8.446 8.446-13.841 12.512-12.668 9.697-22.991 21.114-32.14 34.174-7.508 10.635-18.377 18.377-25.807 28.856-9.15 12.747-17.126 26.666-22.209 41.447-3.284 9.697-8.837 18.299-12.356 27.996-2.19 6.022-4.379 12.043-6.569 18.065-1.016 2.893-3.519 7.194-3.597 10.323-0.078 2.893 1.877 5.005 1.329 8.289-1.329 7.194-5.552 14.936-8.055 21.818-3.363 9.15-9.541 18.769-3.91 28.231 1.486 2.424 3.128 1.643 5.161 5.552 2.346 4.536 4.379 11.418 4.458 16.344 0.157 8.055-2.268 15.953-2.972 23.93-0.391 3.675 0.078 7.194 0.078 10.792-0.078 6.882-2.738 13.295-3.363 20.019-0.625 6.803-1.016 14.545-1.095 21.349-0.078 4.223 1.564 9.15 3.050 12.982 2.972 7.976 7.351 16.422 8.837 24.868 2.424 13.138 6.099 21.74 15.64 31.203 3.441 3.363 5.318 4.613 6.726 9.071 1.486 4.613 1.643 6.335 1.72 11.339 0.078 5.552-0.234 10.635-0.469 16.188-0.548 11.573 0.469 22.209 2.268 33.705 1.016 6.882 0.861 13.138 1.252 20.019 0.391 5.944 1.799 8.367 0.625 13.841-2.268 10.792-3.206 22.287-5.005 33.235-0.861 5.318-1.173 10.244 0.391 15.406 0.625 2.033 1.643 4.145 2.659 6.022 0.782 1.329 1.877 1.643 2.19 3.441 0.548 2.502-1.564 3.988-4.379 7.273z"></path>
    <path fill="#000000" d="M689.579 991.218c-1.72-4.77-2.893-7.429-2.268-12.356 0.625-5.005 1.407-9.775 2.19-14.936 1.095-7.429 2.972-14.545 1.955-21.662-0.625-5.083 0.938-9.619 2.19-15.015 6.413-26.432 14.702-52.082 18.456-79.061 0.938-7.351 4.77-14.702 5.161-22.053 0.313-6.335 0-13.059 1.016-18.612 0.313-1.72 1.486-4.223 1.955-6.256s0.938-3.519 1.799-5.474c2.346-5.318 5.24-10.401 7.898-15.484 2.424-4.692 2.424-10.010 2.111-15.171s0.078-10.635 0.469-16.031c1.252-16.97 8.603-29.873 15.563-45.201 3.519-7.585 6.726-17.048 6.96-25.416 0.234-7.351 1.877-14.154 2.738-21.271 0.469-4.145-0.157-8.603-0.313-12.903-0.391-11.105-0.391-22.366-2.502-33.235-2.111-10.557-5.005-20.019-8.603-30.264-2.346-6.569-6.569-11.652-8.915-18.221-0.938-2.815-1.72-6.178-3.128-8.837-1.173-2.268-2.738-2.815-4.067-4.849-1.564-2.346-4.067-8.993-4.301-11.809-0.234-1.643 0.938-2.581 0.782-4.223-0.234-3.832-1.955-9.306-2.815-13.138-1.407-5.944-3.988-12.043-6.256-17.752-1.72-4.379-4.849-5.631-7.351-9.462s-4.458-7.117-7.664-10.401c-2.111-2.111-5.083-3.206-7.273-5.161-3.284-2.893-6.022-6.413-9.462-9.228-7.194-6.022-13.763-11.887-19.628-19.551-5.708-7.429-13.45-15.015-20.333-21.662-9.384-9.071-19.16-14.389-32.063-14.545-3.363-0.078-6.726 0.861-10.010 0.861-3.128 0-5.787-1.252-8.915-0.938-6.413 0.469-12.512-0.157-19.003 0.625-10.166 1.252-17.908-2.033-27.761-2.581-4.067-0.157-8.212 1.486-12.668 1.407-4.849-0.078-8.915 1.799-13.607 1.72-5.631 0-9.15 0.078-14.624 2.033-4.145 1.407-9.071 1.799-13.373 2.19-6.099 0.548-10.792-0.078-16.813 2.19-5.708 2.19-11.573 4.067-17.283 6.256-13.529 5.161-24.321 15.64-37.771 20.333-3.363 1.173-10.479 3.050-6.882 8.055 2.659 3.832 10.166-0.234 13.998-0.782 13.373-1.72 27.37-8.837 40.039-13.45 5.787-2.111 11.573-4.223 17.361-6.335 12.747-4.613 25.728-6.022 39.1-7.194 2.346-0.157 3.91 0.234 6.256-0.469 2.893-0.861 5.318-2.424 8.367-2.738 9.541-1.016 19.081 3.050 27.293 7.351 3.597 1.799 7.117 3.206 10.635 4.849 4.77 2.19 8.133 6.178 12.278 9.384 2.893 2.19 5.865 3.91 8.993 5.708 0.782 0.391 2.033 0.234 2.738 0.704 0.938 0.704 1.016 2.346 1.877 3.050 3.832 3.206 9.697 6.569 13.998 9.462 5.005 3.284 11.183-0.548 16.892 2.346 11.339 5.708 20.254 12.278 27.683 22.991 5.161 7.429 11.339 13.92 18.065 19.863 6.569 5.944 9.462 17.517 13.686 25.884 2.738 5.24 5.318 10.714 9.15 15.249 2.19 2.581 4.379 4.458 5.865 7.585 2.111 4.223 3.284 9.306 4.927 13.686 3.206 8.837 6.413 17.752 9.619 26.588 3.050 8.367 7.82 17.048 7.976 26.041 0.157 6.022-1.72 11.809-1.799 18.065 0 9.15 0.469 18.065-0.782 27.136-1.252 8.915-0.704 18.377-1.095 27.293-0.313 6.569 0.782 14.389-0.469 20.801-1.643 8.603-7.351 17.674-10.792 25.807-7.351 17.595-13.373 35.347-22.131 52.708-5.083 9.932-14.78 15.327-16.266 27.293-0.704 5.083-0.313 10.088 0.704 15.015 2.111 10.948 1.643 20.958 1.486 31.985-0.078 6.335 0.234 9.384-1.329 15.249-1.877 7.038-1.955 14.232-1.252 21.505 0.391 3.206 1.643 6.882 1.643 10.088 0 2.502-1.173 4.77-1.329 7.273-0.391 9.697-2.111 19.863-1.329 29.795 0.704 9.15 5.474 18.456 8.603 27.058-4.223-11.652-8.446-23.226-12.668-34.878-2.659-7.429-6.726-12.903-10.948-19.394-7.273-11.261-15.563-22.835-25.337-32.063-5.318-5.005-11.183-9.228-16.501-14.077-4.379-3.988-9.697-6.49-14.311-10.166-6.49-5.161-12.434-11.261-18.456-16.97-5.396-5.161-10.323-8.993-16.188-13.295-6.256-4.613-11.573-11.105-17.438-16.344-4.379-3.832-8.289-7.273-13.295-10.166-4.536-2.659-10.557-3.597-14.077-7.585-5.083-5.865-8.603-15.249-11.261-22.6-3.91-10.557-9.853-14.936-18.065-21.583-4.458-3.597-5.083-6.569-7.117-11.496-2.502-6.022-7.194-9.853-12.434-13.373-5.865-3.988-12.825-7.273-18.377-11.652-3.284-2.659-5.944-7.82-8.289-11.261-3.284-4.849-2.268-8.993-2.738-14.702-0.782-8.68-3.206-10.792-8.133-17.204-3.363-4.458-5.708-10.010-8.524-15.093-2.893-5.318-2.815-11.339-3.988-17.283-1.564-7.976-2.424-16.422-1.564-24.477 1.173-10.323 0.078-19.315-0.861-29.56-1.252-13.686-3.128-25.493-7.664-38.475-2.815-8.212-4.379-19.394-3.597-27.918 0.704-7.898 0.625-16.735 3.128-24.398 1.799-5.787 4.145-10.635 5.552-16.97 1.173-5.318 0.782-10.323 2.19-15.64 1.016-3.91 2.581-4.927 4.613-8.289 1.564-2.659 2.268-7.038 4.77-9.071 2.346-1.877 8.055-1.016 5.552-5.474-3.050-5.24-13.92-1.72-17.361-5.631-8.446 5.396-14.936 13.92-20.41 22.287-3.675 5.552-4.145 9.775-5.552 16.031-1.329 5.631-3.363 10.479-3.675 16.188-0.391 6.726-1.095 11.964-2.581 18.533-3.519 15.563-4.067 30.89-2.738 46.842 1.095 12.982-2.19 25.807-1.173 38.709 1.173 15.64 4.067 31.358 9.697 45.983 3.597 9.541 4.927 19.707 8.446 29.404 2.268 6.022 4.379 12.043 6.569 17.986 1.095 2.972 1.955 7.82 3.91 10.323 1.799 2.268 4.692 2.581 6.335 5.474 3.597 6.335 5.318 15.015 7.898 21.896 3.284 9.15 4.77 20.489 15.093 24.086 2.738 0.938 3.441-0.704 7.508 1.016 4.77 1.877 10.714 5.865 13.92 9.619 5.318 6.099 8.524 13.686 13.138 20.254 2.111 3.050 4.692 5.396 7.038 8.212 4.301 5.318 6.413 11.964 10.244 17.517 3.91 5.552 8.603 11.809 12.903 17.048 2.659 3.206 7.117 6.022 10.714 7.976 7.351 4.145 16.188 7.898 22.757 13.295 10.244 8.524 18.612 12.825 31.985 13.92 4.849 0.391 7.038 0.078 11.026 2.581 4.067 2.659 5.318 3.754 8.603 7.664 3.597 4.145 6.647 8.212 10.010 12.668 7.038 9.15 14.624 16.657 23.382 24.321 5.24 4.613 9.15 9.541 13.92 14.545 4.067 4.301 6.726 5.24 9.306 10.166 5.161 9.775 11.887 19.16 17.517 28.7 2.738 4.613 5.708 8.68 10.244 11.573 1.799 1.095 3.91 2.111 5.865 2.893 1.486 0.548 2.502 0.078 3.91 1.252 2.033 1.564 1.407 4.067 1.329 8.367z"></path>
    <path fill="#000000" d="M946.94 764.668c-4.379-2.502-7.038-3.832-9.697-7.976-2.738-4.223-5.161-8.446-7.898-12.903-3.988-6.413-7.117-12.982-12.434-17.83-3.754-3.441-5.474-7.976-7.976-12.903-12.121-24.398-22.209-49.345-36.677-72.414-3.988-6.335-5.787-14.389-10.244-20.254-3.832-5.005-8.367-10.010-11.183-14.858-0.861-1.564-1.564-4.223-2.502-6.099-0.938-1.799-1.564-3.284-2.111-5.318-1.643-5.631-2.738-11.339-3.988-16.97-1.095-5.083-4.536-9.228-8.055-12.982-3.597-3.754-6.803-8.133-10.010-12.512-9.932-13.841-12.591-28.465-17.048-44.731-2.268-8.055-5.865-17.361-11.026-23.93-4.613-5.787-7.664-12.043-11.652-17.986-2.268-3.519-5.552-6.569-8.446-9.697-7.429-8.289-14.702-16.892-23.382-23.852-8.289-6.726-16.579-12.121-25.963-17.674-6.099-3.519-12.591-4.692-18.533-8.212-2.581-1.564-5.318-3.675-8.055-4.77-2.424-1.016-3.988-0.391-6.256-1.095-2.738-0.782-8.915-4.301-10.87-6.256-1.252-1.173-1.016-2.581-2.111-3.754-2.659-2.815-7.508-5.865-10.635-8.289-4.927-3.675-10.792-6.569-16.188-9.541-4.067-2.268-7.351-1.173-11.809-2.581-4.301-1.329-7.898-2.581-12.512-2.972-2.972-0.234-5.865 0.782-8.837 0.704-4.379-0.157-8.758-1.016-13.216-1.016-9.306 0-18.143-0.234-27.605-2.346-9.071-2.033-19.942-2.893-29.482-3.519-13.059-0.938-23.93 1.329-33.939 9.462-2.581 2.111-4.536 5.005-7.038 7.117-2.424 1.955-5.24 2.738-7.508 5.005-4.613 4.458-9.697 7.976-14.154 12.747-6.96 7.508-15.015 9.853-22.913 15.797-3.206 2.502-5.318 6.413-8.758 9.228-3.832 3.050-5.708 7.117-9.306 10.088-4.379 3.597-6.96 5.944-9.932 10.948-2.268 3.754-5.787 7.194-8.837 10.323-4.301 4.301-8.367 6.803-11.496 12.434-2.972 5.318-6.256 10.557-9.228 15.875-6.96 12.668-8.524 27.605-15.797 39.883-1.877 3.128-6.099 9.071-0.157 10.635 4.536 1.173 7.585-6.726 10.244-9.619 9.15-10.010 15.327-24.398 22.053-36.051 3.050-5.396 6.099-10.714 9.228-16.031 6.726-11.73 15.797-21.192 25.337-30.577 1.643-1.72 3.050-2.424 4.458-4.458 1.643-2.502 2.502-5.24 4.692-7.508 6.647-6.882 16.579-9.853 25.572-11.887 3.91-0.861 7.585-2.111 11.261-3.128 5.083-1.329 10.244-0.469 15.484-0.704 3.597-0.157 6.96-0.704 10.479-1.407 0.938-0.157 1.799-1.095 2.581-1.173 1.173-0.078 2.346 1.095 3.441 1.095 5.005 0.078 11.652-1.173 16.735-1.72 6.022-0.704 8.212-7.585 14.468-9.071 12.356-2.893 23.46-3.597 36.051-0.234 8.68 2.424 17.595 3.363 26.588 3.675 8.837 0.313 18.456 7.273 27.136 10.948 5.396 2.346 10.948 4.849 16.735 5.865 3.441 0.548 6.256 0.625 9.384 2.033 4.301 1.877 8.524 5.005 12.591 7.351 8.133 4.692 16.344 9.384 24.477 14.154 7.664 4.379 16.892 8.055 22.835 14.858 3.988 4.458 6.256 10.166 10.244 14.936 5.865 7.038 11.964 13.607 16.813 21.349 4.77 7.585 11.261 14.468 16.735 21.583 3.988 5.24 9.853 10.479 12.982 16.188 4.301 7.664 5.708 18.299 8.367 26.745 5.631 18.143 12.434 35.66 16.813 54.585 2.581 10.87-1.329 21.271 5.161 31.437 2.738 4.223 6.256 7.82 10.166 11.026 8.68 6.96 14.702 14.936 21.74 23.539 3.988 4.927 6.178 7.038 8.758 12.434 3.128 6.647 7.664 12.2 12.903 17.283 2.346 2.346 5.631 4.301 7.664 6.726 1.643 1.955 2.19 4.379 3.754 6.413 5.865 7.742 11.105 16.579 18.065 23.695 6.413 6.569 16.109 10.635 24.008 15.171-10.714-6.178-21.428-12.356-32.14-18.533-6.803-3.988-13.45-5.631-20.801-7.898-12.825-3.91-26.588-7.429-40.039-8.212-7.273-0.391-14.468 0.157-21.74-0.157-5.865-0.234-11.573 1.252-17.438 1.407-8.367 0.234-16.735-0.625-25.103-1.173-7.429-0.469-13.607-0.234-20.958 0.234-7.742 0.469-15.953-1.016-23.852-1.252-5.787-0.157-11.026-0.313-16.735 0.704-5.161 0.938-10.323 4.067-15.64 3.206-7.585-1.252-16.344-6.178-23.148-10.010-9.775-5.552-17.126-5.083-27.761-4.927-5.631 0.078-8.055-1.799-12.747-4.223-5.787-3.050-11.887-2.972-18.143-2.346-7.038 0.782-14.468 2.815-21.505 2.972-4.301 0.078-9.619-2.111-13.686-3.363-5.552-1.564-7.429-5.396-11.496-9.384-6.178-6.178-9.384-6.256-17.283-8.055-5.474-1.252-10.87-3.988-16.266-6.099-5.631-2.19-9.462-6.803-14.154-10.635-6.335-5.083-12.434-11.026-16.892-17.674-5.787-8.68-12.356-14.936-19.707-22.209-9.775-9.619-18.769-17.517-30.577-24.555-7.429-4.379-15.875-11.964-20.723-19.003-4.536-6.569-10.244-13.216-13.295-20.723-2.346-5.631-3.675-10.792-6.647-16.501-2.502-4.849-6.099-8.446-8.367-13.373-1.72-3.675-1.252-5.474-1.799-9.384-0.469-3.050-2.815-6.882-2.19-10.088 0.625-2.893 5.552-5.944 0.704-7.664-5.631-2.033-11.73 7.585-16.813 6.803-3.050 9.619-2.581 20.333-1.407 30.264 0.782 6.569 3.128 10.166 6.099 15.797 2.659 5.161 4.145 10.166 7.585 14.78 3.988 5.396 6.803 9.853 9.932 15.797 7.351 14.232 16.735 26.354 28.074 37.693 9.15 9.228 14.858 21.192 23.93 30.42 10.948 11.183 23.226 21.428 36.989 29.013 8.915 4.927 16.422 11.887 25.416 17.048 5.552 3.206 11.026 6.413 16.579 9.541 2.659 1.564 6.49 4.77 9.619 5.396 2.815 0.548 5.24-1.016 8.367 0.157 6.882 2.502 13.763 8.055 20.098 11.73 8.367 4.849 16.813 12.591 27.058 8.68 2.738-1.016 2.19-2.738 6.413-4.067 4.849-1.564 11.964-2.346 16.813-1.564 8.055 1.252 15.406 5.005 23.148 7.117 3.519 0.938 7.038 1.095 10.635 1.799 6.726 1.252 12.591 4.927 19.081 6.726 6.569 1.799 14.154 3.519 20.801 4.849 4.145 0.782 9.384 0 13.373-0.782 8.367-1.564 17.438-4.379 26.041-4.458 13.295-0.078 22.444-2.19 33.392-9.932 3.91-2.815 5.474-4.379 10.088-5.083 4.849-0.625 6.49-0.548 11.496 0.313 5.474 0.861 10.401 2.111 15.797 3.284 11.339 2.502 21.975 3.363 33.626 3.597 6.96 0.157 13.138 1.486 19.942 2.268 5.944 0.625 8.603-0.313 13.763 1.72 10.244 4.145 21.428 7.038 31.828 10.792 5.083 1.72 9.932 2.972 15.327 2.19 2.033-0.234 4.301-0.861 6.256-1.564 1.564-0.469 1.955-1.486 3.832-1.564 2.581-0.078 3.675 2.268 6.413 5.631z"></path>
    <path fill="#000000" d="M1003.714 446.232c-5.005 0.861-7.82 1.564-12.512 0.078-4.849-1.486-9.462-3.050-14.389-4.77-7.117-2.346-13.763-5.396-20.958-5.708-5.161-0.157-9.384-2.502-14.389-4.692-25.025-10.87-48.798-23.539-74.682-31.906-7.117-2.268-13.686-7.273-20.88-8.915-6.178-1.407-12.825-2.268-18.065-4.223-1.72-0.625-3.988-2.268-5.865-3.050s-3.363-1.486-5.083-2.659c-4.849-3.284-9.306-6.96-13.92-10.479-4.145-3.206-9.384-4.145-14.468-4.77-5.161-0.548-10.479-1.877-15.797-3.206-16.501-4.145-27.84-13.686-41.759-23.226-6.882-4.77-15.64-9.619-23.852-11.261-7.194-1.486-13.607-4.301-20.489-6.335-3.988-1.252-8.524-1.407-12.668-2.033-11.105-1.486-22.131-3.441-33.314-3.206-10.635 0.234-20.489 1.407-31.203 3.206-6.96 1.173-12.668 4.458-19.551 5.552-2.893 0.548-6.413 0.625-9.228 1.564-2.424 0.782-3.284 2.268-5.474 3.206-2.502 1.095-9.541 2.424-12.356 2.19-1.72-0.157-2.424-1.407-4.067-1.564-3.754-0.391-9.462 0.313-13.373 0.548-6.099 0.313-12.512 1.799-18.533 3.050-4.613 0.938-6.413 3.832-10.714 5.631-4.145 1.72-7.664 3.128-11.496 5.708-2.424 1.72-4.067 4.379-6.335 6.256-3.441 2.738-7.429 4.849-10.792 7.742-7.117 6.022-13.998 11.496-22.6 15.953-8.289 4.301-17.126 10.557-24.868 16.188-10.635 7.742-17.517 16.422-19.942 29.169-0.625 3.284-0.234 6.726-0.861 9.932-0.548 3.050-2.19 5.474-2.502 8.603-0.625 6.413-2.268 12.356-2.659 18.847-0.469 10.244-5.161 17.283-7.351 26.902-0.861 3.988 0.078 8.289-0.782 12.668-0.938 4.77 0.157 9.15-0.704 13.686-0.938 5.631-1.486 9.071-0.548 14.78 0.704 4.301 0.234 9.228-0.157 13.607-0.469 6.022-1.955 10.557-0.782 16.892 1.173 6.022 1.955 12.121 3.128 18.143 2.815 14.154 11.261 26.588 13.529 40.665 0.548 3.597 1.173 10.87 6.726 8.212 4.223-1.955 1.486-10.010 1.643-13.92 0.625-13.529-3.91-28.543-6.256-41.759-1.095-6.099-2.19-12.2-3.206-18.221-2.346-13.295-1.564-26.354-0.313-39.727 0.234-2.346 0.861-3.832 0.625-6.256-0.391-2.972-1.486-5.631-1.252-8.758 0.625-9.541 6.335-18.221 11.964-25.572 2.424-3.206 4.379-6.49 6.569-9.619 3.050-4.301 7.508-6.96 11.418-10.479 2.738-2.424 4.927-5.083 7.194-7.82 0.548-0.704 0.625-2.033 1.173-2.581 0.782-0.861 2.502-0.625 3.363-1.329 3.832-3.206 8.133-8.446 11.652-12.121 4.145-4.379 1.407-11.105 5.318-16.188 7.585-10.244 15.64-17.908 27.449-23.382 8.133-3.754 15.64-8.758 22.678-14.232 7.038-5.552 18.847-6.335 27.84-9.071 5.631-1.72 11.496-3.363 16.657-6.335 2.972-1.72 5.161-3.519 8.446-4.458 4.536-1.329 9.697-1.643 14.389-2.502 9.228-1.564 18.533-3.206 27.84-4.849 8.758-1.564 18.143-4.692 27.058-3.284 5.865 0.861 11.339 3.675 17.438 4.849 8.993 1.643 17.83 2.738 26.588 5.552 8.524 2.738 17.908 3.832 26.666 5.787 6.413 1.486 14.311 1.72 20.41 4.067 8.212 3.128 16.109 10.323 23.539 15.093 16.031 10.323 32.453 19.315 48.016 30.968 8.915 6.726 12.591 17.204 24.086 20.801 4.849 1.486 9.932 1.955 14.936 1.877 11.105-0.157 20.88 2.033 31.749 4.067 6.256 1.252 9.228 1.407 14.78 3.988 6.647 3.050 13.686 4.379 20.958 4.927 3.284 0.234 7.038-0.391 10.166 0.157 2.502 0.469 4.536 1.955 6.96 2.502 9.541 2.19 19.238 5.552 29.091 6.569 9.15 0.938 19.16-2.19 28.152-3.832-12.121 2.19-24.321 4.379-36.52 6.49-7.742 1.329-13.841 4.301-21.037 7.351-12.278 5.24-25.181 11.339-35.894 19.394-5.865 4.379-11.026 9.462-16.813 13.841-4.613 3.597-7.976 8.446-12.434 12.278-6.256 5.552-13.216 10.323-19.942 15.249-5.944 4.458-10.635 8.603-15.875 13.607-5.631 5.396-12.982 9.541-19.081 14.389-4.613 3.597-8.68 6.882-12.434 11.339-3.363 3.988-5.318 9.775-9.853 12.512-6.647 3.988-16.501 5.787-24.243 7.194-11.026 2.033-16.344 7.117-24.398 14.077-4.301 3.675-7.351 3.832-12.512 4.927-6.335 1.407-11.026 5.396-15.327 9.932-4.927 5.083-9.384 11.418-14.624 16.109-3.284 2.815-8.758 4.536-12.591 6.178-5.396 2.346-9.228 0.704-14.936 0.157-8.68-0.704-11.183 1.329-18.377 5.005-4.927 2.581-10.87 3.91-16.344 5.787-5.787 1.955-11.652 0.861-17.752 0.938-8.055 0.157-16.501-0.469-24.243-2.738-10.088-2.893-19.081-3.441-29.326-4.301-13.763-1.095-25.728-1.329-39.257 0.861-8.524 1.407-19.785 1.016-28.074-1.252-7.664-2.111-16.344-3.519-23.539-7.273-5.396-2.815-9.775-5.944-15.718-8.446-5.005-2.111-10.088-2.581-15.015-4.849-3.675-1.72-4.458-3.441-7.351-6.022-2.346-2.033-6.569-3.441-8.133-6.335-1.486-2.581 0.391-8.055-4.379-6.335-5.708 2.033-4.145 13.373-8.603 16.031 3.832 9.306 11.105 17.204 18.377 24.086 4.849 4.536 8.993 5.787 14.858 8.212 5.318 2.268 9.697 5.083 15.327 6.413 6.569 1.564 11.573 3.128 17.752 5.787 14.78 6.099 29.795 9.384 45.669 10.792 12.982 1.173 25.103 6.647 37.928 7.898 15.563 1.486 31.594 1.486 46.999-1.564 10.010-1.955 20.176-1.407 30.42-3.284 6.256-1.095 12.591-2.19 18.847-3.284 3.050-0.548 8.055-0.548 10.792-2.111 2.581-1.329 3.363-4.145 6.569-5.24 6.882-2.424 15.64-2.659 22.913-3.91 9.541-1.72 21.037-1.173 26.354-10.792 1.407-2.502-0.078-3.519 2.268-7.194 2.738-4.379 7.664-9.541 11.887-12.043 6.96-4.145 15.015-6.022 22.287-9.384 3.284-1.564 6.099-3.675 9.306-5.474 5.944-3.363 12.825-4.301 18.924-7.117 6.178-2.893 13.138-6.335 19.081-9.697 3.675-2.033 7.117-5.944 9.697-9.15 5.396-6.569 10.557-14.545 17.126-20.098 10.166-8.68 15.797-16.109 19.16-29.169 1.252-4.692 1.407-6.882 4.536-10.323 3.284-3.597 4.613-4.613 8.993-7.194 4.692-2.815 9.306-5.083 14.232-7.664 10.244-5.318 18.924-11.496 27.996-18.769 5.474-4.379 11.026-7.351 16.735-11.183 5.005-3.284 6.335-5.708 11.652-7.429 10.479-3.441 20.958-8.367 31.358-12.278 5.005-1.877 9.462-4.067 13.138-8.055 1.407-1.564 2.738-3.519 3.832-5.318 0.782-1.329 0.469-2.346 1.877-3.597 1.955-1.72 4.301-0.625 8.524 0.157z"></path>
    <path fill="#000000" d="M840.352 144.688c-3.284 3.91-5.005 6.256-9.541 8.133-4.692 1.955-9.228 3.675-14.077 5.631-6.96 2.738-13.998 4.692-19.707 9.071-4.067 3.128-8.837 3.988-14.077 5.631-26.12 7.664-52.473 13.295-77.732 23.539-6.882 2.815-15.171 3.206-21.662 6.569-5.631 2.893-11.339 6.569-16.657 8.446-1.643 0.548-4.379 0.782-6.413 1.407-1.955 0.625-3.519 0.938-5.552 1.173-5.865 0.625-11.652 0.704-17.438 0.938-5.24 0.234-9.853 2.893-14.154 5.708-4.301 2.893-9.228 5.24-14.077 7.664-15.406 7.351-30.186 7.429-46.999 9.071-8.289 0.782-18.143 2.738-25.493 6.647-6.49 3.519-13.216 5.552-19.785 8.367-3.832 1.643-7.429 4.379-11.026 6.647-9.384 5.865-19.16 11.496-27.527 18.847-8.055 7.038-14.78 14.311-21.896 22.522-4.536 5.396-6.803 11.573-11.339 16.813-1.955 2.268-4.536 4.613-6.099 7.117-1.329 2.268-1.095 3.832-2.111 6.022-1.252 2.502-5.787 7.976-8.055 9.619-1.407 1.016-2.738 0.469-4.145 1.407-3.128 2.111-7.038 6.335-9.932 8.993-4.458 4.223-8.367 9.541-12.2 14.311-2.972 3.675-2.502 7.038-4.613 11.183-2.033 3.988-3.91 7.273-5.083 11.809-0.782 2.893-0.313 5.944-0.861 8.837-0.861 4.301-2.581 8.446-3.284 12.825-1.564 9.15-3.363 17.83-7.117 26.745-3.597 8.603-6.256 19.16-8.603 28.465-3.128 12.668-2.815 23.773 3.441 35.034 1.643 2.972 4.145 5.396 5.787 8.212 1.564 2.738 1.799 5.631 3.597 8.212 3.597 5.318 6.178 10.948 10.088 16.109 6.178 8.212 7.194 16.579 11.652 25.337 1.877 3.597 5.396 6.335 7.508 10.244 2.346 4.301 6.022 6.882 8.367 10.948 2.815 4.927 4.613 7.898 8.993 11.652 3.284 2.893 6.099 6.96 8.68 10.479 3.441 5.005 5.24 9.384 10.244 13.529 4.692 3.832 9.306 7.976 14.077 11.809 11.183 9.071 25.65 13.216 36.442 22.522 2.738 2.346 7.898 7.585 10.479 1.955 1.955-4.223-5.318-8.68-7.664-11.73-8.289-10.714-21.428-19.315-31.749-27.996-4.692-3.91-9.462-7.898-14.154-11.887-10.323-8.68-18.065-19.238-25.728-30.186-1.329-1.955-1.799-3.519-3.597-5.24-2.19-2.033-4.692-3.363-6.569-5.865-5.631-7.742-6.882-18.065-7.273-27.293-0.157-4.067-0.782-7.82-1.095-11.652-0.469-5.161 1.252-10.088 1.955-15.327 0.548-3.597 0.548-7.038 0.469-10.635 0-0.861-0.782-1.877-0.704-2.738 0.078-1.095 1.486-2.033 1.72-3.128 0.861-4.927 0.782-11.652 1.095-16.813 0.391-6.022-6.022-9.384-6.335-15.797-0.704-12.747 0.469-23.773 6.022-35.582 3.832-8.133 6.413-16.735 8.212-25.493 1.877-8.68 10.401-16.892 15.563-24.868 3.206-4.927 6.569-9.932 8.603-15.484 1.173-3.206 1.72-6.022 3.597-8.915 2.659-3.832 6.413-7.429 9.462-11.105 6.099-7.194 12.121-14.389 18.143-21.583 5.708-6.803 10.948-15.249 18.612-19.942 5.161-3.128 11.105-4.458 16.579-7.508 7.976-4.536 15.406-9.384 23.93-12.825 8.289-3.363 16.188-8.603 24.164-12.747 5.865-2.972 12.043-7.82 18.221-10.010 8.289-2.893 19.003-2.424 27.761-3.519 18.847-2.424 37.223-6.099 56.696-7.117 11.105-0.625 20.646 5.083 31.749 0.391 4.692-1.955 8.915-4.849 12.668-8.133 8.367-7.273 17.283-11.887 26.979-17.283 5.474-3.050 7.976-4.849 13.763-6.49 7.117-1.877 13.373-5.396 19.315-9.697 2.659-1.877 5.161-4.77 7.898-6.413 2.19-1.173 4.77-1.329 6.96-2.502 8.603-4.458 18.299-8.055 26.511-13.686 7.585-5.161 13.216-13.998 19.081-21.037-7.898 9.462-15.875 19.003-23.852 28.388-5.083 6.022-7.82 12.278-11.339 19.238-6.099 11.887-11.964 24.868-15.093 37.928-1.643 7.117-2.346 14.311-3.91 21.349-1.252 5.787-0.782 11.652-1.643 17.438-1.252 8.289-3.519 16.422-5.474 24.477-1.72 7.273-2.659 13.45-3.441 20.723-0.861 7.742-3.832 15.563-5.396 23.226-1.173 5.708-2.19 10.792-2.19 16.657 0 5.24 2.19 10.87 0.469 15.953-2.581 7.273-8.915 15.015-13.92 21.037-7.194 8.68-7.976 16.031-9.697 26.511-0.861 5.552-3.128 7.585-6.335 11.809-3.988 5.161-5.005 11.183-5.396 17.517-0.469 7.038 0.157 14.702-0.938 21.662-0.625 4.223-3.754 9.15-5.552 12.903-2.581 5.24-6.647 6.413-11.339 9.697-7.117 5.005-7.742 8.133-10.87 15.563-2.19 5.161-5.865 10.010-8.837 14.936-3.128 5.24-8.367 8.212-12.982 12.2-6.099 5.318-12.982 10.244-20.333 13.529-9.619 4.223-16.813 9.619-25.259 15.563-11.183 7.976-20.489 15.484-29.482 25.884-5.631 6.569-14.545 13.45-22.366 17.048-7.194 3.284-14.78 7.82-22.678 9.541-5.944 1.252-11.339 1.72-17.438 3.597-5.24 1.643-9.384 4.536-14.624 5.944-3.91 1.016-5.631 0.234-9.541 0.157-3.050-0.078-7.273 1.564-10.244 0.391-2.815-1.095-4.927-6.49-7.508-2.033-2.972 5.161 5.474 12.903 3.754 17.83 8.993 4.613 19.628 5.944 29.56 6.569 6.647 0.391 10.557-1.329 16.657-3.206 5.552-1.72 10.714-2.346 15.875-5.005 6.022-2.972 10.87-5.005 17.283-6.96 15.249-4.77 28.856-11.964 41.994-21.114 10.635-7.429 23.46-10.948 34.096-18.299 12.903-8.837 25.181-19.16 35.034-31.358 6.413-7.976 14.545-14.154 21.192-22.131 4.067-4.849 8.212-9.697 12.278-14.624 2.033-2.346 5.787-5.552 6.96-8.524 1.016-2.659-0.078-5.318 1.643-8.212 3.675-6.335 10.244-12.121 15.015-17.752 6.256-7.508 15.327-14.389 13.295-25.181-0.548-2.815-2.346-2.659-2.972-6.96-0.704-5.161-0.234-12.278 1.407-16.892 2.659-7.664 7.585-14.232 11.026-21.505 1.564-3.363 2.268-6.803 3.597-10.244 2.424-6.413 7.117-11.496 9.932-17.595 2.893-6.178 6.022-13.295 8.446-19.707 1.486-3.91 1.564-9.15 1.564-13.216-0.157-8.524-1.329-17.986 0.078-26.432 2.268-13.138 1.799-22.444-3.988-34.643-2.033-4.379-3.363-6.099-3.206-10.792 0.234-4.927 0.625-6.49 2.268-11.261 1.877-5.24 3.832-9.932 6.022-15.015 4.458-10.714 7.117-21.037 9.384-32.453 1.329-6.803 3.675-12.668 5.631-19.315 1.72-5.708 1.173-8.446 4.145-13.138 5.865-9.384 10.635-19.942 16.109-29.56 2.581-4.613 4.613-9.228 4.849-14.624 0.078-2.111-0.078-4.458-0.469-6.49-0.234-1.564-1.095-2.19-0.861-4.067 0.391-2.502 2.893-3.206 6.647-5.318z"></path>
    </svg>