<svg xmlns="http://www.w3.org/2000/svg" viewBox="-47.844 -48.001 1124.511 1120.347">
    <path fill="#000000" d="M285.928 744.656c-1.776 1.776-3.552 3.721-4.398 5.751 1.607-1.776 2.875-3.805 4.398-5.751z"></path>
    <path fill="#000000" d="M285.928 744.656c0.846-0.93 1.776-1.776 2.452-2.621 0.337-0.337 0.677-0.677 1.014-1.1-0.93 0.93-1.861 1.776-2.707 2.791-0.337 0.254-0.507 0.592-0.761 0.93z"></path>
    <path fill="#000000" d="M710.021 349.638c-1.438 3.214-4.144 5.751-5.497 9.049-0.169 0.337-0.337 0.761-0.423 1.1 3.129-3.975 7.273-7.189 10.233-11.247 0.761-1.1 1.522-2.537 1.945-4.059 0.592-0.169 1.1-0.337 1.691-0.507-0.507-0.423-0.93-0.761-1.438-1.1 0-1.267-0.169-2.368-1.014-3.298-0.761 0.677-1.522 1.438-2.197 2.197-2.197-0.084-5.074 0.761-7.273 1.776 1.607 0.846 3.382 1.438 5.242 1.607-0.507 1.438-0.677 3.129-1.267 4.482z"></path>
    <path fill="#000000" d="M678.848 687.235c0-0.169 0-0.254-0.084-0.337-0.93 0.93-1.607 1.861-1.945 2.791 0.169 0.169 0.337 0.254 0.507 0.337 0.846-0.761 1.522-1.691 1.522-2.791z"></path>
    <path fill="#000000" d="M693.657 377.293c1.691-1.353 3.467-2.707 4.821-4.312 2.96-3.721 3.89-8.795 5.582-13.192-0.169 0.254-0.423 0.423-0.592 0.677-3.721 5.159-7.102 10.91-9.81 16.829z"></path>
    <path fill="#000000" d="M396.62 666.092c-0.084 0.084-0.254 0.169-0.337 0.337 0 0 0.084-0.084 0.337-0.337z"></path>
    <path fill="#000000" d="M735.831 349.554c5.751-1.607 10.994-3.721 15.222-8.034 1.267-1.267 2.030-3.214 3.382-4.228 1.267-0.846 3.214-1.267 4.651-1.691 3.298-1.1 6.596-2.030 9.894-3.129 5.412-1.691 11.247-3.044 16.322-5.835 2.96-1.691 6.005-2.537 9.303-3.637 6.172-2.030 9.387-0.846 15.476 1.353 2.96 1.1 5.159 3.044 7.865 4.312 8.542 3.975 19.62 4.144 28.837 4.059 6.258-0.084 13.192 0.507 19.113 2.621 5.074 1.776 9.049 4.567 14.715 5.328 8.542 1.014 16.912 4.398 25.371 6.342 13.108 2.875 26.301 6.427 39.070 10.571 7.357 2.452 14.208 6.342 21.817 8.119 2.791 0.592 4.567 1.691 7.102 2.791 5.074 2.197 11.332 5.242 16.829 6.005-0.254-2.114-0.846-3.805-2.537-5.328-3.214-2.875-8.542-4.059-12.262-6.172-2.452-1.438-4.567-2.621-7.189-3.805-4.059-1.691-8.372-3.298-12.262-5.242-2.96-1.522-5.666-3.552-8.795-4.821-4.905-2.114-11.077-3.975-16.152-2.452-6.681 2.030-10.487-0.084-16.745-1.945-7.189-2.114-14.208-5.919-21.565-8.203-1.861-0.592-3.721-0.592-5.582-1.014-3.129-0.592-6.258-2.114-9.303-3.044-9.049-2.707-19.282-2.621-28.076-5.919-3.637-1.353-7.78-4.567-10.571-6.596-5.666-3.89-11.417-7.612-17.083-11.586-3.975-2.791-6.681-4.228-11.67-3.721-4.228 0.337-8.457 0.592-12.601 1.776-3.637 1.1-7.273 2.875-10.994 3.637-2.030 0.423-4.059 0.084-6.005 0.507-3.129 0.677-4.651 3.129-7.189 4.651-1.945 1.267-3.298 1.607-4.905 3.467-3.382 4.059-9.133 8.542-14.122 10.656-10.74 4.398-21.057 9.303-32.221 12.854-1.438 0.423-3.214 1.184-4.989 1.776 1.776 1.691 3.298 3.805 5.159 5.159 3.975 2.96 7.865 1.776 12.685 0.423z"></path>
    <path fill="#000000" d="M649.648 253.4c-0.254-0.254-0.507-0.423-0.761-0.677 0.677 1.1 1.522 2.114 2.368 3.044-0.507-0.846-1.014-1.607-1.607-2.368z"></path>
    <path fill="#000000" d="M555.142 317.925c-1.184 2.96-2.791 5.582-4.144 8.372-1.861-1.691-4.144-3.382-5.582-3.975-3.044-1.184-5.328 0-7.696-2.368-3.721-3.637-7.696-6.85-11.163-10.656-4.312-4.736-8.795-9.303-14.631-12.601-3.382-1.945-6.172-4.144-9.303-6.427-3.298-2.537-5.497-6.172-7.949-9.049-2.537-3.129-4.821-6.596-7.357-9.81-3.214-4.059-7.273-7.357-10.487-11.332-2.707-3.467-5.412-6.258-6.596-10.402-1.267-4.312-1.438-8.964-0.592-13.447 1.1-6.089 1.945-11.586 1.1-17.59-0.084-0.507 0-1.1 0-1.607 1.438-1.184 2.96-2.284 4.482-3.214 5.835-3.552 12.431-4.651 18.352-7.949 3.89-2.197 8.034-3.129 12.178-4.567 3.552-1.184 4.144-4.059 6.935-6.512 2.875-2.537 7.865-5.497 11.84-5.751 1.861 2.791 3.552 5.751 5.328 8.287 1.438 1.945 2.197 4.989 3.721 6.681 0.846 0.507 1.691 1.014 2.537 1.522 0.507 0.93 1.014 1.945 1.522 2.875 2.030 3.467 4.482 7.019 6.596 10.824 2.030 3.552 4.398 7.102 6.172 10.824 1.267 2.791 1.776 5.835 3.214 8.542 2.114 3.89 4.651 7.442 6.089 11.755 0.677 2.114 1.691 3.467 2.707 5.497 1.014 1.861 1.184 3.805 2.030 5.666 1.861 3.805 4.567 6.85 6.089 10.824 1.184 3.044 2.875 7.612 5.242 10.402-1.014 0.677-2.197 1.014-3.044 1.945-0.93 0.846-1.267 1.861-2.114 2.791-2.030 2.030-3.975 3.382-5.582 6.005-1.691 2.621-1.776 4.821-2.96 7.357-1.267 2.707-2.452 5.074-3.89 7.612-1.607 2.791-1.776 6.512-3.044 9.472zM542.965 348.285c-0.592 1.607-1.267 3.129-1.861 4.736-1.353 3.637-2.791 7.612-2.875 11.586-0.084 3.467 1.184 7.019 0.254 10.487-1.438 5.666-4.312 10.74-7.865 15.645-3.129 4.228-4.312 7.949-5.412 12.939-1.184 5.159-3.382 14.208-9.217 16.068-1.691-3.721-5.074-6.596-8.71-8.71-3.89-2.197-6.512-0.507-10.402-0.423-2.875 0-5.159-1.607-8.034-1.184-2.197 0.337-1.945 0.423-3.975-0.423-3.89-1.522-7.949-2.030-11.077-4.989-3.044-2.791-5.328-5.497-6.765-9.217-1.522-3.721-4.651-5.835-6.596-9.303-0.761-1.353-0.846-3.129-1.522-4.398-0.846-1.353-2.114-2.030-3.129-3.129-0.677-0.846-2.114-2.537-2.621-3.298-0.761-1.353-1.014-2.791-1.861-4.228-1.353-2.452-3.89-4.567-5.497-6.935-2.284-3.129-6.427-3.637-8.71-6.85-1.522-2.197-2.114-6.089-2.96-8.71-1.691-5.328-3.721-9.81-7.189-14.292-1.945-2.537-3.298-5.242-5.751-7.273-2.96-2.452-7.357-3.552-9.217-7.019-1.014-2.114-0.93-4.989-2.030-7.102-0.761-1.438-0.93-1.267-2.030-2.368-2.368-2.368-4.567-7.273-7.612-8.88-1.1-0.592-2.284-0.169-3.467-0.677-1.776-0.677-3.298-2.621-4.567-3.89-0.761-0.761-1.353-1.607-1.945-2.452 2.707-1.607 6.089-6.005 7.526-7.78 1.776-2.197 2.875-4.905 5.497-6.172 3.975-2.030 8.88-1.776 13.192-2.96 4.144-1.184 9.133-0.846 13.192 0 4.228 0.846 8.626 1.691 12.939 2.621 4.312 0.846 6.596 1.945 9.81-1.014 1.184-1.1 1.776-1.945 3.044-2.96 1.861-1.522 3.637-1.607 5.666-2.707 1.184-0.677 1.945-1.776 3.214-2.452 1.607-0.846 3.805-1.184 5.582-1.691 2.707-0.846 7.189-2.030 7.102-5.666 2.96 1.691 4.228 5.919 5.919 8.626 2.537 4.059 5.242 9.387 8.542 12.77 3.721 3.89 6.765 9.133 10.91 12.093 4.059 2.875 9.133 8.795 11.332 13.277 1.776 3.637 3.721 9.556 7.526 11.84 2.368 1.438 5.751 1.691 8.287 3.214 5.074 2.96 13.108 9.303 14.545 15.392 0.592 2.707-0.254 5.328-1.184 7.865zM647.828 713.028c3.382-1.1 8.88-1.691 11.417-4.482 0.93 2.791 0.423 7.019-0.254 9.894-0.93 3.89-1.014 7.78-1.353 11.924-0.337 5.159-1.014 11.67-0.084 16.491 0.677 3.382 0.761 6.342 1.861 9.726 1.1 3.298 2.621 6.765 3.129 10.147 0.423 2.368 0.084 4.398-0.254 6.765-0.337 2.197-0.169 1.691 0 3.721 0.337 3.89 1.267 8.795 1.1 12.516-0.169 4.144-1.014 7.865-0.677 12.007 0.423 5.497 1.776 10.571 2.621 16.068 1.1 7.102 1.184 14.292 1.861 21.396-0.169-0.169-0.337-0.254-0.423-0.423-0.761-1.1-0.677-2.621-1.353-3.89-1.522-3.044-5.242-4.736-8.457-4.651-4.736 0.084-9.64 1.522-14.292 1.522-1.267 0-2.452-0.846-3.721-0.846-0.677 0-1.522 0.423-2.114 0.337-2.875-0.423-6.258-1.353-9.133-2.030-1.691-0.423-3.214-1.267-4.989-1.691-2.96-0.677-6.172-0.507-9.217-0.93-4.651-0.677-9.387-0.592-14.122-1.184-5.242-0.592-10.656-0.677-15.815-1.267-1.184-0.169-1.945-0.254-3.214-0.169-1.522 0-3.382 0.169-4.821-0.084-3.467-0.592-6.765-2.114-9.81-3.382-0.846-0.423-1.945-0.761-3.044-1.1-0.169-1.267-0.337-2.621-0.423-3.805-0.084-2.284 0.677-4.567 0.677-7.019 0-4.567-0.169-8.795-0.592-13.277-0.337-3.805-0.93-7.865-0.084-11.586 0.169-0.423 0.337-0.93 0.507-1.438 0.846-0.761 1.607-1.522 2.537-2.284 2.96-2.537 7.273-3.467 10.402-5.582 2.030-1.353 3.298-2.197 5.582-3.129 3.214-1.267 4.144-2.284 6.765-4.736 3.89-3.721 8.034-6.172 11.163-10.824 1.607-2.284 2.707-4.736 4.144-7.102 1.438-2.452 2.452-5.242 3.89-7.78 1.267-2.114 3.044-3.467 4.989-4.905 3.637-2.791 7.273-5.328 10.91-8.119 3.467-2.707 4.736-6.512 9.133-8.88 4.905-2.791 10.233-4.228 15.561-5.919zM670.492 739.582c-0.507-2.621 0.084-5.242 0.084-7.949-0.084-3.467-0.084-6.089 0.677-9.303 1.522-6.596 1.945-14.377 4.482-20.634 1.267-3.382 4.228-5.074 6.005-8.203-1.267-1.522-2.875-2.537-4.482-3.552-0.169 0.254-0.423 0.507-0.677 0.677 0-0.337 0.169-0.677 0.254-0.93-1.607-1.014-3.214-2.030-4.651-3.467 2.114-0.846 6.427-2.707 6.596 0.592 1.945-1.861 4.736-3.552 5.919-4.736 1.861-1.861 3.721-3.637 5.497-5.497 1.267-1.438 3.552-5.328 5.412-5.582 2.114 4.651 7.357 6.935 11.163 10.317 3.382 2.96 7.442 3.298 10.91 6.258 4.059 3.382 6.85 7.526 11.501 10.233 2.114 1.184 3.89 2.452 5.835 3.805 2.707 1.861 4.144 3.721 6.427 5.835 2.452 2.284 5.074 1.861 6.85 4.905 0.93 1.607 1.776 3.044 2.707 4.567 1.945 3.129 3.382 6.765 5.074 10.064 1.945 3.975 4.651 7.357 7.357 10.824 1.776 2.284 2.96 5.159 4.398 7.78-4.567 6.596-8.795 13.615-13.362 20.296-2.114-0.254-4.312-0.507-6.427-0.761-2.707-0.169-5.666-0.846-8.203-1.014-1.945 0.337-3.89 0.846-5.751 1.353-2.284 0.337-4.482 0.337-6.681 0.084-2.96-0.084-5.242 0.254-8.203-1.1-2.537-1.1-3.637-3.552-5.919-4.821-3.552-2.030-9.049-1.184-12.939-0.592-2.197 0.507-4.398 0.761-6.596 0.507-1.607-0.507-3.214-0.846-4.905-0.846-3.129 0.169-5.751 2.114-8.795 2.452-1.861-5.582-5.751-9.81-7.442-15.222-0.677-2.114-1.691-4.228-2.114-6.342zM701.446 657.551c0.169-2.96 5.582-5.074 7.442-6.512 1.184-0.846 2.197-2.875 3.467-3.467 1.014-0.507 2.621 0 3.637-0.084 2.791-0.084 6.172-1.353 8.88-1.1 3.805 0.423 7.526 3.721 10.656 5.497 3.637 1.945 7.612 3.382 11.417 4.821 6.342 2.368 13.362 5.159 19.197 8.88 3.044 1.945 6.258 3.129 8.964 5.497 3.298 2.791 6.172 5.751 9.979 7.78-0.507-1.184-0.507-2.621-1.1-3.637-1.184-2.368-3.721-3.552-5.919-4.989-3.467-2.284-6.089-4.736-9.133-7.612-1.607-1.607-2.875-3.044-4.736-4.312-1.776-1.184-2.452-2.197-3.721-3.721-2.197-2.621-4.312-3.467-7.189-5.328-2.368-1.607-4.567-2.284-5.074-5.412-0.761-4.905 3.89-6.342 7.189-8.795 6.512-4.736 11.077-10.571 15.222-17.167 1.438-2.368 2.114-6.005 5.074-6.935 1.353 1.691 2.96 1.353 4.736 2.030 2.452 0.93 4.398 3.298 6.512 4.736 3.044 1.945 5.835 2.452 8.964 3.552 3.382 1.1 6.596 2.791 9.979 3.975 6.089 2.114 12.347 5.159 18.69 6.596 3.129 0.337 6.258 0.761 9.303 1.438 2.96 1.184 6.005 2.368 9.049 3.382 1.607 0.254 3.298 0.592 4.989 0.93 2.114 2.537 4.905 5.159 7.442 5.835-0.761 1.691-2.114 3.044-3.044 4.651-6.85 10.74-16.152 19.789-23.51 30.276-4.228 5.919-8.626 11.755-12.939 17.675-2.621 3.637-6.258 5.751-9.303 8.88-2.284 2.537-3.805 5.497-6.427 7.78-2.030 1.861-4.312 3.467-6.342 5.328s-4.144 3.298-6.172 4.989c-1.776 1.522-2.621 3.552-4.312 5.328-3.129 3.382-7.019 6.172-9.979 9.81-1.438 1.776-2.707 3.637-4.059 5.582-0.93-2.368-1.945-4.651-2.452-6.342-0.93-2.621-1.861-5.242-2.621-7.949-1.353-4.398-1.438-8.964-2.96-13.277-0.254-0.761-1.184-2.537-1.184-3.298-0.169-2.452 1.522-4.736 1.861-7.102 0.423-3.382-0.423-4.567 1.267-7.526 1.522-2.791 2.707-5.666 4.567-8.287 1.945-2.791 3.89-5.666 5.835-8.457 1.353-1.776 2.368-2.197 1.945-4.059-2.452-0.169-6.258 3.637-8.542 4.821-2.452 1.184-3.637 1.267-5.412 3.214-1.014 1.184-1.691 2.452-2.537 3.721-1.607 2.197-5.159 5.497-6.172 7.949-0.507 1.1-0.169 2.621-0.592 3.89-0.423 1.014-1.1 1.691-1.267 2.791-2.452-0.507-5.919-3.975-7.865-5.412-2.791-1.945-5.497-3.975-8.287-5.919-3.552-2.537-7.696-4.312-11.077-7.102-2.791-2.284-3.044-5.328-5.074-8.203-2.030-2.96-4.059-6.512-6.681-8.88-2.114-1.776-4.059-3.637-6.172-5.497-1.184-1.1-4.482-3.298-4.398-5.242zM658.739 465.412c1.014-6.005 4.144-11.586 7.357-16.66 1.353-2.030 2.537-4.312 3.637-6.681 3.382-1.1 6.85-2.452 10.233-3.382 2.621-0.677 5.074-0.084 7.696 0.423 3.637 0.677 5.412 0.592 8.88-0.592 4.567-1.438 9.81-3.975 14.545-4.059 1.691 0 3.467 0.169 5.242 0.169-2.537 4.482-5.074 8.88-7.526 13.362-1.861 3.382-3.467 6.85-4.905 10.487-1.607 3.805-2.114 8.795-4.989 11.84-1.522 1.691-3.552 2.791-5.328 4.144-2.875 2.368-5.159 5.328-7.949 7.865-2.96 2.621-6.342 4.736-9.217 7.526-1.014-0.254-2.114-0.507-3.044-0.846-4.905-1.776-13.615-3.467-14.545-9.64-0.677-4.567-0.846-9.387-0.084-13.954zM679.626 412.726c1.014-3.214 1.184-5.666 2.791-8.71 3.721-6.85 6.172-14.038 8.964-21.227 0-0.084 0.084-0.169 0.084-0.337 1.1 0.761 2.621 1.861 3.552 2.707 1.438 1.184 1.607 2.197 2.197 4.059 0.846 2.284 2.368 3.805 3.298 6.005 3.552 7.949 5.412 17.083 8.119 25.371 0.337 1.267 2.197 4.482 1.607 5.751-0.423 1.014-6.342 3.214-7.357 3.721-5.328 2.368-11.332 3.721-16.912 5.497-5.074 1.607-10.147 3.298-15.561 4.989 2.030-4.651 3.637-9.64 4.567-14.122 1.014-4.736 3.214-9.049 4.651-13.7zM708.465 530.868c1.438-1.945 3.298-4.905 5.412-6.172 3.89-2.197 9.133-0.592 13.362-0.93 4.567-0.507 7.949-1.776 12.854-1.267 3.044 0.254 6.258 0 9.217 0.846 7.78 2.284 14.884 5.919 22.834 7.78 6.005 1.438 12.093 1.945 18.097 3.298 3.467 0.761 7.357 2.368 10.994 1.861 2.707-0.337 4.989-1.607 7.78-1.861s5.919-0.169 8.626-0.254c4.482 0 9.133-0.846 13.615-0.254 3.214 0.507 6.172 2.197 9.303 2.452 1.353 0.169 2.707-0.592 4.059-0.507 0.423 0.084 0.93 0.254 1.438 0.423-2.537 0.761-3.552 2.96-4.144 4.905-0.507 1.776-0.846 3.552-1.1 5.328-0.337 2.284-1.014 4.059-1.607 6.427-1.945 7.273 2.114 15.392 2.284 22.834 0.084 4.059 0.846 8.542 0 12.77-0.254 1.522-1.014 2.791-1.438 4.398-0.677 3.044-1.522 6.172-1.607 9.303 0 4.905-1.014 9.726 0.592 14.461 1.691 4.989 2.96 10.402 5.242 15.222-2.621-0.846-5.242-1.776-7.78-2.537-4.905-1.353-9.894-3.044-14.631-4.736-6.005-2.197-11.247-5.497-16.152-9.387-4.144-3.298-9.979-5.497-15.052-7.102-3.637-1.1-7.357-1.014-11.163-1.776-2.875-0.507-3.89-1.861-6.427-2.875-0.761-0.337-2.537-0.254-3.382-0.337-3.637-0.423-6.85-2.452-10.147-3.805s-6.512-2.96-9.894-4.398c-9.303-3.805-19.113-4.228-28.076-8.795-3.044-1.522-6.596-2.96-9.472-4.821-5.242-3.298-7.102-6.258-6.935-12.178 0.254-5.919 1.184-11.755 1.014-17.759-0.084-3.89-0.761-7.442-0.592-11.501 0.084-3.467 0.846-6.427 2.875-9.049zM618.907 694.168c0 2.197-1.438 4.312-1.353 6.596 0.084 1.522 0.423 3.044 0.592 4.482 0.254 3.637 2.368 8.372 0 11.501-4.567 6.089-10.233 11.501-14.968 17.506-1.267 1.607-3.214 3.044-4.736 4.482-1.522 1.522-2.537 3.214-4.059 4.821-2.452 2.537-3.975 5.328-6.089 8.287-3.298 4.736-8.034 6.681-12.601 10.064-3.552 2.621-4.567 6.681-7.019 10.064-1.522 2.114-3.214 4.567-4.821 6.681 0.337-1.1 0.761-2.197 1.1-3.298 1.353-3.721 1.522-7.526 1.776-11.417 0.423-6.427 0.93-12.77 0.761-19.282-0.084-4.312-0.592-8.626-1.522-12.854-0.507-2.030-1.438-3.89-1.607-5.919-0.337-4.736 0.337-9.556 0.677-14.208 0.254-3.382 2.452-5.835 3.975-8.71s2.452-5.328 4.482-7.865c2.875-3.805 4.059-7.78 8.964-9.726 4.905-2.030 11.67-2.030 16.998-2.114 1.945 0 4.651-0.337 6.512 0.084 2.621 0.677 4.651 2.707 7.273 3.552 3.467 1.184 5.666 3.214 5.666 7.273zM554.044 826.348c-1.861 3.298-5.328 6.005-8.795 7.612-4.312 2.030-9.556 2.96-14.122 4.482-6.005 1.861-11.924 3.805-17.929 5.751-7.102 2.284-14.292 5.159-21.565 6.935-2.368 0.592-4.905 0.592-7.357 1.1-2.791 0.592-5.497 2.114-8.287 2.621-2.284 0.423-7.612 0.761-9.64-0.254-1.945-0.93-1.945-2.96-2.621-4.736-1.014-2.452-3.467-4.482-4.989-6.681-2.452-3.467-4.651-7.526-8.034-10.147-0.592-0.507-1.861-1.607-3.214-2.707 4.228-5.666 7.949-11.755 10.656-18.182 3.89-9.133 9.726-17.083 12.601-26.555 1.438-4.736 5.159-8.034 7.612-12.262 2.537-4.567 3.382-9.64 5.666-14.377 4.312-8.88 6.342-18.605 12.685-26.639 4.567-5.835 9.472-11.417 14.292-16.998 3.044-3.552 7.949-7.102 10.147-11.247 1.522-3.044 1.691-4.312 4.736-6.172 2.452-1.607 5.074-2.368 7.949-3.129 7.357-1.861 14.377-2.96 18.859 4.144 2.621 4.059 2.875 9.894 3.552 14.377 0.677 4.567-0.592 8.034-1.1 12.431-0.423 3.721 0.169 6.85 0.507 10.402 0.677 6.172 0.761 13.024 0.423 19.113-0.337 6.005-2.707 11.247-3.89 16.998-0.761 3.721 0 8.034-0.254 11.924-0.254 3.805 0.084 7.526 0.423 11.332 0.677 6.935 1.776 14.377 3.89 20.973 0.169 0.761 0.507 1.353 0.677 2.114 0 0-0.084 0-0.084 0-1.014 0.507-2.114 6.427-2.791 7.78zM449.348 776.368c-4.567 2.621-9.133 3.89-13.024 7.612-1.607 1.607-3.552 2.96-5.242 4.567-2.621 2.621-4.651 5.666-7.442 8.119-4.312 3.805-9.894 7.273-15.138 9.556-4.482 1.945-9.133 2.875-13.531 5.159-3.721 1.945-7.019 4.059-10.994 5.328-1.353 0.423-2.621 0.761-3.805 1.353-3.298 1.522-5.582 4.651-9.217 5.242-3.975 0.761-8.372 1.184-12.431 1.522-0.337 0.084-0.761 0.084-1.1 0.084-1.014-2.284-1.776-4.312-3.214-6.258-2.114-2.707-4.482-5.242-6.765-7.865-5.242-6.172-8.372-14.715-12.601-21.65-2.284-3.637-3.721-7.019-6.512-10.064-1.438-1.691-2.197-3.637-3.721-5.412-2.284-2.621-5.328-4.651-7.696-7.273-2.621-2.875-4.567-6.258-7.612-8.88-1.945-1.607-1.776-1.014-2.537-3.298-2.452-6.681-4.398-13.531-6.596-20.296-0.677-0.592-1.776-0.507-2.875-0.254 10.656-7.949 23.087-12.431 34.758-18.943 3.89-2.114 7.102-5.242 10.824-7.526 5.159-3.214 10.74-5.159 16.152-7.696 2.791-1.353 7.526-3.721 8.795-6.935 0.592-1.522 0.423-3.298 0.169-4.905 0.084 0.592-1.353-4.312-1.267-4.651 0.846-4.144 8.119-6.258 11.501-7.273 7.442-2.284 12.516-4.059 18.013-9.387 0-0.169 4.398-5.412 4.482-5.497 1.014-0.254 1.353 0.337 2.368 0.254 3.129-0.423 4.228 0.507 6.512 2.537 3.382 2.96 7.442 4.736 10.147 8.287 3.975 5.074 3.129 7.696 9.81 7.189 1.607-0.084 3.129-0.93 4.651-1.014 4.651-0.337 10.91 1.691 14.884 2.621 6.427 1.607 12.77 2.621 18.69 5.666 4.482 2.284 2.452 1.014 6.089 0.677 4.398-0.423 11.501 3.637 11.67 8.457 0 1.861-1.184 4.059-1.438 6.005-0.677 5.242-1.267 9.979-2.621 15.052-2.452 9.217-5.919 17.759-9.556 26.47-3.044 7.273-7.102 14.208-9.894 21.565-0.337 0.846-0.592 1.691-0.846 2.537-3.129 3.805-7.78 6.935-11.84 9.217zM314.462 683.767c-2.96-1.184-6.005-2.030-9.049-3.298-3.975-1.691-8.964-2.284-12.516-4.989-3.214-2.452-6.765-4.651-9.979-7.189-3.552-2.875-6.512-5.582-10.656-7.696-2.875-1.438-7.357-4.398-10.656-3.89-0.169-2.707 2.197-5.412 3.721-7.526 1.014-1.438 1.861-3.044 2.791-4.482s2.368-2.368 3.298-3.805c1.861-3.214 3.467-8.457 4.144-12.007 0.507-3.044 0.677-5.751 2.452-8.457 0.677-1.1 1.184-2.368 1.691-3.552 0.084 0.084 0.169 0.084 0.169 0.084 2.96 1.014 5.835 2.114 8.71 3.298 3.129 1.353 6.089 1.691 9.303 2.621 2.875 1.1 5.666 2.197 8.457 3.298 2.791 0.592 5.666 1.014 8.457 1.1 7.526 0.93 14.631-0.084 22.157 0.507 4.989 0.337 8.542 0.592 13.447 0.084 4.567-0.507 8.964 0.084 13.447 0.337 4.821 0.169 11.586 0.084 15.561 3.382 2.791 2.284 3.382 5.666 4.398 8.964 1.438 4.651 2.707 9.303 4.736 13.785 1.1 2.368 1.691 2.621-0.254 5.159-3.552 4.651-10.233 8.119-15.052 11.163-2.197 1.353-4.144 2.284-6.258 3.467-3.552 1.945-6.172 5.328-9.726 7.442 4.312 2.368 2.707 7.273 0.507 10.571-3.637 5.328-9.979 9.133-15.645 11.84-0.592 0.254-1.1 0.337-1.691 0.592-0.592-0.423-1.1-0.761-1.438-0.93-1.522-1.014-3.129-2.114-4.651-3.382-1.1-0.846-2.621-1.607-3.467-2.537-1.861-2.114-3.044-4.312-5.328-6.258-3.721-3.044-6.765-5.919-11.077-7.696zM392.687 387.103c-1.353-1.184-2.707-3.721-3.552-5.328-0.93-1.776-1.776-2.707-2.707-4.144-0.084-0.084-0.169-0.169-0.254-0.254 1.945 2.030 4.312 3.805 6.005 6.005 1.353 1.861 2.707 3.721 4.059 5.582-1.267-0.423-2.537-1.014-3.552-1.861zM534.001 182.024c3.298-1.014 7.696-1.691 10.74-3.382 1.522-0.846 2.197-1.861 3.805-2.537 1.438-0.677 3.214-1.014 4.736-1.522 3.129-1.014 6.258-2.030 9.472-2.96 2.875-0.93 4.651-2.452 7.189-3.721 1.267-0.592 2.537-0.592 3.637-1.353 1.522-1.014 2.368-2.707 3.975-3.637 1.945-1.014 4.312-1.184 6.342-2.197 8.71-4.821 18.097-8.88 26.047-15.138-1.861 4.059-4.144 8.034-6.342 11.84-6.089 10.571-7.865 22.157-11.417 33.489-2.284 7.357-5.328 15.138-8.964 21.903-2.197 4.059-5.497 13.362-2.875 18.182 1.522 2.791 4.059 4.651 5.835 7.273 1.438 2.284 2.114 4.989 2.284 7.696-1.776 0.423-3.975 1.267-5.074 2.114 0.507 2.284 0.254 3.382 0.084 11.755-0.507 1.691-0.93 3.382-1.184 5.074-0.592 4.989-2.030 13.192-5.666 17.167-0.084-1.267 0-2.707-0.084-3.214 0-1.607 0.761-2.791-0.169-4.567-1.353-2.452-2.621-3.89-3.552-6.765-1.014-3.298-2.114-6.596-3.129-9.894l-4.567-14.208c-1.522-4.736-2.368-10.656-6.172-14.292-3.637-3.467-6.681-6.596-8.542-11.586-1.267-3.467-2.96-5.919-4.821-9.133-1.438-2.621-2.875-5.242-4.567-7.78-2.284-3.552-3.214-8.203-6.512-10.994-3.214-2.707-7.696-3.044-11.501-4.144 3.637-1.1 7.273-2.284 10.994-3.467zM467.276 956.414c4.567 2.114 9.894 2.368 14.715 4.228 4.059 1.522 8.203 3.214 12.347 4.736 3.044 1.184 5.666 1.945 8.372 3.552 1.691 1.014 3.637 2.030 5.412 2.791 1.522 0.592 3.044 1.1 4.567 1.184 0.084 0 0.254 0.084 0.423 0.084-2.875 0.93-5.835 1.861-8.71 2.791-4.398 1.353-8.71 2.791-13.108 4.228-1.945 0.592-4.736 2.114-6.765 1.861-2.621-0.254-4.144-2.875-5.835-4.482-2.114-2.030-2.452-3.129-4.059-5.074-1.522-1.861-3.89-2.96-5.751-4.482-5.751-4.567-10.402-9.894-14.545-15.899 3.975 2.114 8.88 2.621 12.939 4.482zM349.473 518.183c-3.89-0.592-7.612-0.507-11.501-1.267-9.049-1.861-18.013-1.945-27.062-3.214-5.242-0.677-10.402-2.537-15.645-2.791-3.552-0.254-6.85 0.761-10.317 0.254-2.284-0.423-3.89-1.1-6.258-1.1-7.019-0.084-13.7 2.030-20.719 0.507-6.005-1.267-7.442-6.935-11.924-10.571-4.821-3.975-11.077-4.482-17.252-5.242 0.93-3.044 1.438-6.85 1.776-8.457 0.846-4.567 0.761-7.442-0.677-11.755-1.607-4.398-2.284-9.472-2.96-14.038-1.184-7.949-5.242-15.307-6.512-23.087-0.254-1.945 0.084-3.637-0.423-5.582-0.423-1.861-1.607-3.721-1.522-5.666 8.964 1.267 19.282 1.267 28.584 0.592 4.567-0.337 8.457-1.184 12.854-2.621 5.242-1.691 11.501-1.438 16.998-1.267 1.776 0.084 3.721 1.014 5.497 1.776 2.707 1.1 5.666 1.184 8.542 2.284 5.666 2.197 6.172 3.805 8.88 8.964 2.284 4.398 4.651 9.387 7.865 13.108 0.677 0.846 1.691 2.030 2.707 2.452 1.438 0.677 2.368 0 3.637 0.254 2.621 0.677 5.497 1.522 8.119 2.284 2.368 0.677 3.975 2.197 6.512 2.707 1.861 0.337 4.821-0.337 6.427 0.761 1.607 1.184 2.875 8.203 3.298 9.726 0.592 1.776 1.1 3.552 1.776 5.328 1.267 3.552 3.382 6.342 4.567 10.147 1.184 4.228 2.030 8.203 4.651 12.007 2.197 3.298 4.905 6.005 6.258 9.81 1.607 4.905 4.905 10.402 6.427 15.645-4.651-0.084-8.203-1.267-12.601-1.945zM690.112 262.786c1.945-3.214 2.452-7.442 5.835-8.964 4.144-1.945 8.88-2.114 13.277-3.044 6.172-1.353 13.869-3.552 19.62-6.172 2.114-0.93 3.467-2.284 5.582-3.129 3.89-1.522 7.949-2.537 11.924-3.805 2.537-0.761 5.412-1.267 7.78-2.707 1.691-1.014 2.875-2.621 4.482-3.721 6.765-4.989 15.561-8.119 23.594-10.233 10.147-2.621 20.973-5.074 31.29-6.596 14.292-2.114 28.162-5.751 42.115-9.303 3.467-0.846 6.935-0.846 10.402-1.945 1.691-0.507 3.129-1.1 4.905-1.267 4.398-0.423 7.949-2.030 12.178-2.96 10.994-2.368 22.58-2.621 33.574-5.666 8.203-2.284 18.352-5.159 25.624-9.81 1.014-0.677 1.776-1.522 2.96-1.945-4.736 1.691-10.317 4.228-15.392 4.736-1.267 0.084-1.607-0.337-3.044-0.084-1.184 0.254-2.368 0.761-3.467 1.184-3.552 1.184-7.102 1.267-10.656 2.114-4.312 1.014-8.626 1.607-13.108 2.030-7.357 0.677-14.799 2.452-22.072 3.89-8.88 1.691-17.336 3.214-25.878 6.005-6.935 2.284-13.615 3.298-20.804 4.228-7.612 1.014-15.307 4.989-22.747 7.273-10.147 2.96-20.973 3.975-31.037 7.273-6.596 2.197-13.192 4.228-19.789 6.342-12.347 3.975-25.455 9.726-38.394 11.501-5.412 0.761-10.656 0.337-15.815 2.114-2.284 0.761-5.666 2.537-8.034 2.368-1.184-2.621-2.537-5.074-3.89-7.612-1.691-3.382-4.821-6.089-6.596-9.472-1.691-3.129-2.452-4.736-5.074-7.526-1.691-1.776-2.96-3.805-4.482-5.751-2.114-2.707-3.214-5.835-5.242-8.542-1.945-2.368-3.805-5.074-5.751-7.357-1.607-1.945-3.467-3.89-5.159-5.666-1.945-2.114-4.228-5.242-6.681-6.512-0.084 6.512 4.989 13.108 7.102 19.027 1.776 4.821 2.875 7.526 6.258 11.755 4.144 5.328 8.203 11.247 12.77 15.899 3.467 3.552 7.696 4.059 11.417 7.019 2.707 2.284 3.298 2.537 3.721 6.089 0.254 2.621 0.507 4.398 0.254 6.85-0.169 1.353 0.254 1.438-0.169 2.875-0.677 1.945-1.861 3.721-2.537 5.751-0.592 1.861-1.184 3.721-1.861 5.497-1.267 3.552-4.228 6.512-4.821 10.233-0.337 2.114-0.254 4.059-0.337 5.919-0.677-1.522-1.522-3.044-2.368-4.059-1.184-1.607-3.382-3.044-4.821-4.482-2.452-2.452-4.651-3.637-7.696-5.412-5.412-3.044-12.262-5.751-16.745-10.064-0.423-0.423-0.761-0.761-1.1-1.184 0.254 0.337 0.423 0.677 0.677 1.014 2.452 3.298 5.328 7.357 8.88 9.387 2.96 1.691 5.751 4.059 8.287 6.172 2.791 2.537 4.736 6.258 7.696 8.542 1.776 1.438 3.214 2.707 4.989 4.312 0.423 0.337 0.846 0.677 1.184 0.93 0 0 0 0 0 0.084-3.637 8.203-7.357 14.122-7.442 23.171-0.084 5.919 1.945 11.417 0.423 17.167-0.677 2.707-1.184 5.412-1.522 8.203-0.254 2.114-0.507 3.298-1.861 5.074-0.169 0.169-0.254 0.337-0.423 0.507-5.242-1.945-10.656-3.298-16.237-3.467-2.791-0.084-4.821-0.761-7.612-0.507-2.707 0.337-5.159 0.761-7.526 0.592-2.452-0.254-4.312-1.353-6.681-1.776-1.1-0.169-2.284-0.084-3.298-0.423-2.284-0.677-3.467-2.707-5.582-3.552-3.382-1.267-5.582-1.691-8.457-4.228-2.791-2.368-6.765-4.144-9.726-6.172-5.412-3.552-10.487-7.696-16.491-10.233-4.312-1.861-8.034-4.312-12.601-5.497-2.707-0.677-6.005-2.284-8.88-1.607 1.861-2.96 4.651-5.582 6.342-8.457 1.014-1.691 2.114-3.382 3.044-5.074 1.353-2.197 2.791-5.159 3.467-7.78 0.592-2.537 0.677-5.159 1.776-7.696 2.197-4.905 5.919-10.91 6.681-16.66 2.452-1.776 4.821-3.044 7.612-4.736 5.497-3.298 10.824-4.228 17.167-5.159 2.875-0.423 6.172-1.267 9.133-1.014 4.059 0.337 5.835 2.452 9.894 1.267 2.621-0.761 4.312-0.677 6.765-0.846 0.93-0.084 1.776-1.014 2.707-0.761 1.522 0.423 1.945 2.791 2.707 3.721 0.761 1.014 1.691 1.691 2.621 2.452-0.337-0.423-0.592-0.846-0.93-1.353-0.677-1.184-1.691-1.945-2.368-3.129-0.507-1.014-0.337-2.537-1.014-3.552-0.677-1.1-2.284-3.044-3.214-3.975-1.861-2.030-5.074-1.945-7.526-1.438-6.512 1.267-13.108 4.228-19.366 6.258-3.214 1.014-6.005 1.776-9.217 1.945-2.368 0.169-3.044-0.169-5.159-0.846-1.014-0.254-2.96-0.592-4.821-0.846 1.267-2.791 2.284-5.835 3.298-8.71 0.592-1.861 1.267-2.791 1.267-4.651 0-1.776-0.761-4.228-1.014-6.089-0.592-5.074-2.96-9.64-3.552-14.799-0.423-4.567-1.353-9.894-0.337-14.545 0.846-3.721 3.805-7.526 5.412-11.163 1.267-2.875 1.861-5.835 3.721-8.457s4.144-4.398 5.666-7.273c2.114-4.144 3.975-8.372 6.089-12.516 3.044-5.666 2.707-13.108 4.821-19.282 3.382-9.726 4.398-19.873 5.666-29.937 0.507-3.637 2.452-6.765 3.637-10.147 0.846-2.284 1.945-4.821 2.284-7.189 0.169-1.438-0.084-2.96 0.169-4.651 1.267-6.427 1.691-13.024 2.96-19.536 0.677-3.382 0.846-6.596 0.592-10.064-0.169-2.96 0.423-6.172 0.169-9.049-1.438 4.228-3.214 8.287-4.989 12.347-1.945 4.821-4.312 9.726-5.751 14.715-1.184 4.144-1.776 8.287-3.129 12.431-1.522 4.651-3.805 9.133-4.567 13.954-0.846 4.905-1.267 10.064-1.691 14.968-0.592 6.596-1.353 13.447-2.791 19.957-0.507 2.452-1.353 4.821-2.368 7.189-4.821 1.607-9.726 2.96-14.461 4.651-5.242 1.945-9.979 4.567-15.307 6.258-2.537 0.846-5.074 1.353-7.189 2.875-3.044 2.114-4.989 5.751-8.457 7.357-0.846 0.423-3.044 1.014-4.059 0.93s-1.945-1.1-2.791-1.184c-4.144-0.337-11.755 3.382-15.138 5.582-7.102 4.482-13.954 10.91-21.817 13.7-4.736 1.776-8.88 2.537-12.854 5.751-5.328 4.312-12.093 6.85-18.097 10.571-3.637 2.284-6.765 3.382-10.824 4.736-2.030 0.677-4.905 1.014-6.596 2.284 0 0.337 0.084 0.677 0.084 1.014l-1.522 2.030c1.438-3.298 0.592-5.582 0.507-9.387-0.084-2.284-0.93-2.875 0.846-5.074 0.93-1.1 2.114-1.776 2.875-3.044 0.93-1.353 1.353-2.96 2.368-4.228 2.452-3.214 5.328-6.427 7.865-9.64 4.228-5.242 8.372-10.402 12.939-15.476 1.353-1.522 4.398-4.228 4.228-6.765-2.875 0.761-5.074 3.044-7.526 4.567-2.197 1.353-4.312 2.284-6.172 4.144-3.552 3.637-5.412 8.626-8.795 12.262-3.129 3.298-7.102 5.666-9.894 9.303-2.284 2.875-3.89 7.442-6.512 9.81-5.412-2.030-11.247-3.89-17.083-4.398-3.467-0.337-6.427-1.184-9.472-2.791-2.030-1.184-3.805-1.607-5.835-2.621-3.805-1.861-6.512-4.905-10.91-5.751-4.482-0.761-9.726-3.044-14.122-1.522 5.328 0.592 9.64 1.607 13.869 4.821 4.821 3.721 10.74 5.242 15.222 9.472 3.89 3.721 7.102 9.387 12.601 10.824 2.96 0.677 5.835-0.677 8.626-1.607 1.1-0.337 3.129-1.438 4.228-1.267 1.014 0.169 4.821 2.875 5.666 3.975 2.368 2.621 0.592 7.442-0.507 10.91l-3.89 4.989c1.014-0.507 2.030-0.93 2.96-1.353-1.945 9.64-0.761 17.842 2.197 27.231 1.014 3.044 2.030 5.919 2.197 8.795 0.084 1.607 0.423 4.567-0.254 6.172-1.776 4.398-9.894 3.467-13.785 3.721-3.129 0.169-6.172 1.353-9.303 1.691-2.030 0.169-3.637 1.184-5.582 1.438-2.030 0.169-3.805 0-5.919 0.677-4.398 1.267-10.147 3.044-14.884 2.114-2.114-0.423-4.312-2.537-6.596-2.621-3.129-0.169-4.567 1.776-6.596 3.214-2.284 1.522-4.651 2.707-6.85 4.651-1.438 1.353-3.214 2.197-4.651 3.467s-1.861 3.129-2.96 4.651c-1.014 1.438-3.552 4.059-4.312 6.427-0.337-0.507-0.677-1.014-1.1-1.522-1.014-1.267-2.537-1.861-3.467-3.214-0.677-0.761-0.677-2.030-1.184-3.044-0.592-1.267-1.691-1.776-2.621-2.707-1.353-1.438-2.114-3.552-3.805-4.989-1.438-1.184-3.382-1.861-4.821-2.96-2.791-2.030-4.144-4.905-6.512-7.102-4.651-4.312-8.457-9.81-12.854-14.292-0.169 2.537 0 2.284 2.284 3.975 1.353 1.014 3.044 2.707 4.144 3.975 6.85 8.203 9.979 19.45 17.842 26.808 5.919 5.582 11.332 11.077 15.645 18.013 0.761 1.184 1.438 2.452 2.197 3.721-0.337 0.169-0.677 0.337-0.93 0.423-2.96 1.014-6.005 1.945-8.964 2.875-5.582 1.776-10.064 3.129-14.545 6.765-2.030 1.691-3.552 3.975-6.005 5.074-1.438 0.592-2.875 0.592-4.228 1.267-3.805 2.114-6.935 6.005-10.147 8.964-3.298 2.96-6.681 4.821-10.233 7.357-1.014 0.761-2.875 1.776-4.312 2.875 1.691-1.184 3.89-2.368 4.821-2.791 1.861-0.846 4.144-0.93 6.005-1.776 5.412-2.537 8.88-7.189 13.024-11.332 4.228-4.144 11.755-8.287 17.929-8.626 5.919-0.337 10.994 2.284 17.083 0.677 3.044-0.846 4.567-0.423 7.357-1.1-0.084-0.084-0.084-0.084-0.084-0.169 0 0.084 0.084 0.084 0.084 0.169 0 0 0 0 0 0 0.254 0.423 0.507 0.761 0.846 0.93 0.337 0.337 0.677 0.846 1.1 1.184 3.721 3.382 6.005 6.681 9.049 10.571 5.159 6.512 10.74 12.007 16.912 17.421 2.197 1.861 2.368 2.875 3.214 5.412 1.353 4.228 3.89 8.119 6.089 12.007 1.522 2.707 3.382 3.552 2.621 6.681-0.677 2.452-3.214 5.412-4.398 7.442-2.537 4.398-6.089 7.865-8.964 12.093-0.507 0.761-1.1 1.861-1.691 3.129-1.014-2.114-2.114-4.059-2.96-6.681-1.184-3.89-1.945-9.81-4.398-13.024-0.677 0-1.353 0.084-2.030 0.169-0.423-0.592-1.438-2.368-1.353-3.214 0.254-1.861 0.677-1.014 1.945-1.861 3.129-1.945 5.497-2.875 7.949-5.835 1.691-1.945 3.975-6.512 4.567-8.964 0.677-2.791-1.014-5.497-3.129-7.189-1.776 0.592-2.030 1.861-2.791 3.298-1.776 3.382-3.214 3.382-6.427 6.172-1.522 1.353-2.875 2.96-4.059 4.736-0.677 0.337-1.267 0.677-1.945 0.93-1.014 1.1-2.96 3.129-3.129 4.651-0.337 2.030 0.169 1.776 1.691 3.129 2.707 2.537 3.975 4.312 5.159 7.949 1.691 5.159 3.298 10.317 8.795 18.182-0.423-0.254-0.761-0.423-1.184-0.677-2.452-1.353-4.736-2.96-7.273-4.228-1.776-0.93-3.805-1.438-5.835-1.861-1.522-0.846-3.214-1.691-4.905-2.452-8.287-3.805-15.561-8.626-21.396-15.815 0.337 0.93 0.846 1.691 1.438 2.368-1.438-1.353-2.96-2.284-5.242-3.129-1.522-0.592-3.975-0.846-5.412-1.776-1.353-0.761-1.1-2.284-3.044-2.452-1.861-0.084-2.707 1.861-4.398 1.861-1.861-0.084-4.144-2.114-5.497-3.129-3.552-2.368-7.442-4.228-10.994-6.427-3.975-2.452-8.119-4.482-12.347-6.596-1.438-0.761-2.284-1.438-3.552-2.368-2.114-1.607-4.651-2.537-7.273-3.467-3.805-1.353-7.357-3.382-11.332-4.651-4.905-1.522-9.726-3.467-14.631-5.074-1.691-0.507-2.96-1.184-4.567-1.945-4.228-1.945-10.824-3.298-14.292-6.512-2.114-1.945-2.452-2.621-5.582-3.721-2.452-0.761-4.736-1.438-7.102-2.621-4.059-2.030-7.949-3.975-11.84-6.342-4.905-3.044-10.233-5.497-15.476-7.949-5.159-2.368-9.726-5.835-14.631-8.71-4.567-2.707-8.964-5.919-13.531-8.71-3.044-1.776-6.172-3.214-9.133-4.905-8.287-4.567-15.138-10.824-23.764-14.884-5.159-2.452-10.233-5.497-15.561-7.526-2.707-1.014-5.412-1.267-8.119-2.114-2.96-1.1-5.666-2.96-8.71-4.144-1.776-0.761-3.89-1.438-6.005-2.284 0.677 0.423 1.353 0.846 2.197 1.184 1.861 1.014 3.89 2.621 5.751 3.721 1.691 1.1 1.861 2.197 3.214 3.467 1.945 1.945 7.273 2.707 9.726 3.467 5.412 1.776 9.979 5.582 15.476 7.526 17.167 6.005 31.544 17.167 46.851 26.808 6.172 3.89 13.531 7.442 20.212 10.824 4.398 2.197 8.372 5.159 12.431 7.78 3.382 2.197 6.427 4.312 9.726 6.258 3.637 2.284 8.203 6.935 12.516 7.273 1.267 0.084 2.197-0.846 3.467-0.592 0.761 0.337 1.353 0.846 1.945 1.438 0.677 0 1.267 0 1.945-0.084 2.284 1.014 4.312 2.368 6.681 3.382 4.059 1.776 7.696 4.989 11.67 7.102 2.621 1.438 6.258 3.129 8.542 4.821 5.328 4.144 11.501 7.696 16.66 12.262 6.172 5.497 13.362 7.865 20.466 11.924 1.861 1.014 4.398 2.030 5.328 4.059 2.197-0.592 7.189 0.507 9.133 0.93 4.651 1.1 8.542 2.791 12.093 5.497 2.621 1.945 4.736 4.398 7.442 6.342 2.284 1.607 4.821 2.875 7.102 4.312 3.129 1.861 6.258 4.736 8.71 7.189 2.875 2.875 4.989 4.398 8.457 6.427 3.298 1.945 6.172 4.398 9.049 6.765 1.184 2.707 2.197 5.412 3.552 8.119 2.030 3.975 5.074 7.696 6.342 12.093 0.761 2.707 0 5.074-0.169 7.865-0.254 4.312 0.084 7.78-1.1 12.093-2.621 9.81-9.387 17.252-13.108 26.555-1.267 3.298-2.368 7.612-1.776 11.163 0.337 2.284 1.776 4.312 2.030 6.765 0.507 5.074-2.284 8.71-4.567 12.854-0.846 1.438-1.1 2.537-2.452 3.467-2.030 0.254-3.975 0.507-6.005 0.846-4.144 0.761-8.287 1.353-12.431 1.607-2.96 0.337-4.567 1.184-7.612 1.184-6.596-0.084-13.362-0.337-19.957-0.592-0.254-2.114-0.254-4.482-0.507-6.005-0.93-6.681-2.707-14.038-4.651-20.634-1.607-5.497-3.552-10.994-5.328-16.491-1.522-4.651-2.707-9.217-5.242-13.531-1.522-2.621-2.452-7.189-4.821-9.049-1.014-0.846-2.197-0.169-2.791-1.776 4.228-3.214 9.81-4.989 14.208-7.949 2.368-1.607 4.736-2.875 7.102-4.398 3.89-2.368 6.681-6.089 9.894-9.133 1.776-1.691 3.721-3.637 5.666-5.159 4.312-3.298 9.726-4.821 13.7-8.626 2.707-2.621 7.526-5.242 9.303-8.71-2.284-2.96-9.894 5.582-11.247 6.342-4.059 2.368-9.387 3.129-13.785 5.242-6.427 3.044-13.954 4.059-19.789 8.203-3.467 2.537-5.751 5.751-9.217 8.287-3.975 2.791-6.765 7.019-10.994 9.556-8.626 5.242-19.113-2.707-24.271-9.387-2.621-3.382-5.835-6.427-8.457-9.81-2.707-3.382-4.144-6.005-7.78-8.203-2.030-1.267-6.596-3.382-8.542-3.975 1.861-1.267 3.044-4.228 3.89-6.258 1.267-2.96 2.368-5.074 4.482-7.526 2.791-3.298 4.398-8.203 4.567-12.516 0-2.197 0.592-4.482 0.507-6.596 0-1.438-0.592-2.791-0.846-4.228-0.507-3.214-0.254-6.935 0-10.233 0.337-5.582 1.607-12.093-0.084-17.675 1.184 5.751-3.637 11.163-5.159 16.237-1.267 4.059-2.284 8.372-3.298 12.516-1.1 4.228-3.467 8.203-4.567 12.431-0.423 1.607 0 3.552-0.592 5.159-0.761 1.861-2.284 3.382-3.129 5.328-1.776 4.228-4.059 11.501-8.287 13.615-3.382 1.691-6.596 1.1-10.147 0.93-5.074-0.169-9.556 1.438-14.292 3.044-4.059 1.353-7.442 0.761-11.67 0.254-7.189-0.761-14.799-3.382-21.903-0.93-4.312 1.438-6.342 1.522-10.571-0.337-2.96-1.353-5.497-2.621-8.795-2.707-2.707-0.169-4.736 0.93-7.357 1.267-3.044 0.423-6.342-0.761-9.472-0.677-4.567 0.084-8.964-0.507-13.531-0.337-4.059 0.254-16.406 0.254-15.052 6.935 0.846 4.398 3.89 0.423 5.666-0.592 4.482-2.621 10.74-2.707 15.729-2.452s10.147-0.677 14.968 0c3.129 0.423 7.357 3.129 10.402 2.284 2.96 5.582 9.217 7.526 13.277 11.84 1.184 1.267 1.267 1.691 2.030 3.382 0.846 2.197 2.791 3.382 3.975 5.242 1.607 2.368 2.284 6.005 3.129 8.795 1.353 4.398 2.114 10.147 1.861 14.799 0 1.522-0.846 3.552-0.93 5.328 0 1.861 0.084 3.552 0.169 5.328 0.169 3.637 1.607 6.935 2.707 10.402 0.677 2.114 1.267 4.651 1.945 7.019-3.044-0.592-6.005-1.438-8.71-3.129-0.592 0.337-1.014 1.014-1.267 1.691-2.197-1.945-4.059-4.144-6.342-5.835-2.284-1.776-6.427-3.044-9.133-4.059-2.197-0.846-4.312-1.945-6.427-2.791-1.607-0.592-3.214-0.507-4.736-1.014-0.677-0.254-1.184-1.184-1.861-1.353-1.353-0.423-1.945-0.084-3.382-0.761-1.184-0.507-2.114-1.353-3.467-1.776-3.129-0.93-6.512-1.267-9.81-2.030-3.89-0.93-8.626-1.267-11.755-3.721-3.637-2.791-6.681-6.172-8.964-9.894-0.761-1.267-1.267-1.267-2.368-2.284-1.607-1.691-2.452-4.144-4.059-6.005-3.467-3.805-8.203-7.102-12.516-9.894-5.919-3.721-11.67-8.626-17.252-13.024-6.427-5.074-13.108-9.64-20.719-13.024-2.96-1.353-6.258-3.129-9.303-4.144-2.537-0.93-5.751-1.691-8.71-2.537-3.721-1.1-8.287-2.368-11.247-4.989-0.677-0.592-1.014-1.691-1.607-2.197-0.761-0.592-1.776-0.507-2.452-1.1-1.353-1.1-2.368-3.382-3.721-4.736-2.875-2.96-5.242-6.85-7.612-10.317-2.114-3.044-4.905-5.919-9.726-10.064 0.423 0.93 0.846 1.861 1.267 2.791 1.184 1.353 2.368 2.875 3.382 4.398 3.298 5.159 6.85 9.64 9.979 15.138 2.030 3.552 4.989 6.512 8.034 9.387 4.144 3.721 9.387 8.88 14.631 10.91 3.467 1.353 5.835 2.452 8.88 4.567 1.607 1.1 3.129 1.776 4.905 2.452 3.382 1.267 5.328 3.298 8.203 5.242 3.467 2.452 7.865 4.905 11.67 6.765 1.353 0.592 2.114 1.1 3.298 1.861 2.707 1.861 5.666 2.030 8.372 3.721 1.776 1.1 2.791 2.791 4.312 3.89 1.353 0.93 2.537 1.014 3.805 2.114 2.96 2.621 5.582 6.089 8.457 8.795 1.1 1.014 2.030 1.861 3.044 3.129 3.214 3.975 7.273 7.78 11.247 10.824 7.696 5.919 14.884 13.024 23.932 16.745 4.567 1.861 8.71 3.721 13.615 4.398 3.975 0.507 8.034 0.254 12.007 1.184 3.975 1.014 8.034 1.776 12.007 2.96-1.1 1.691-2.284 3.382-3.637 4.821-3.129 3.298-6.765 6.172-9.894 9.64-3.637 4.059-6.342 8.964-8.964 13.7-2.621 4.905-5.666 9.303-8.964 13.785-1.776 2.284-3.298 4.736-5.242 6.935-2.114 2.368-4.651 4.228-6.765 6.596-1.776 2.197-2.875 4.651-4.312 7.019-3.298 5.412-7.442 10.233-11.163 15.222-10.994 14.461-22.072 29.007-30.952 44.905 10.487-13.277 21.48-26.047 31.29-39.916 3.805-5.412 5.919-11.67 9.979-16.998s8.795-10.233 13.447-15.052c8.457-8.71 17.167-17.506 24.862-26.808 3.89-4.651 7.78-9.217 11.924-13.615 1.438-1.607 2.368-2.030 4.482-2.707 1.945-0.592 3.89-1.184 5.751-1.776 1.607-0.337 2.791-1.1 3.805-2.284 1.438-0.423 4.567-0.423 6.005 0 2.030 0.592 2.707 1.522 4.398 3.044 3.805 3.637 6.681 7.949 12.007 9.556 6.005 1.776 12.516 2.621 18.774 3.382 8.71 1.014 17.506 2.96 26.301 3.298-0.677 2.791 0.254 4.567 0.761 7.189 0.423 3.044-0.507 5.582-2.030 8.119-1.691 2.791-2.368 4.905-5.666 5.497-3.552 0.507-6.258-0.254-9.64-1.184-4.144-1.184-6.681-0.592-9.894-3.805-2.875-2.96-3.129-3.382-7.102-2.96s-8.287-1.014-12.347-1.607c-4.398-0.592-9.81-2.537-14.208-1.945 8.203 2.621 15.729 6.089 23.51 9.64 3.721 1.691 7.357 2.791 11.332 3.721 2.707 0.846 5.412 1.607 8.203 2.284 0.254 0 0.423 0.084 0.677 0.084-0.677 0.254-1.267 0.507-1.776 0.761-1.522 1.014-3.721 3.382-4.736 4.989-0.761 1.353-1.014 2.707-1.945 3.975-0.761 1.184-1.522 1.438-1.945 2.791-0.507 1.607-0.254 1.945-1.267 3.298-1.184 1.522-3.721 2.284-5.242 3.552-2.284 2.114-3.89 2.707-6.85 3.721-2.537 0.93-3.89 2.197-5.919 3.637-1.945 1.353-3.89 1.945-5.835 3.129-4.651 2.707-9.556 6.005-13.615 8.795-2.030 1.438-4.567 2.537-6.005 4.312-0.677 0.761-1.014 2.197-1.691 3.129-1.014 1.522-2.791 2.452 3.721-0.761 4.228-0.93 5.497-4.482 9.049-6.512 2.707-1.522 6.681-2.284 9.387-3.467 4.989-2.030 10.656-4.651 15.307-7.612 2.707-1.691 4.821-3.89 7.357-5.751 4.059-3.044 9.133-4.398 12.178-8.71 1.691-2.368 1.945-4.228 2.114-7.102 0-0.423 0.169-2.621 0.254-2.96 0.254-0.846 1.607-1.607 1.438-2.452 0-0.254-0.169-0.337-0.337-0.507 0.846 0.084 1.776 0.084 2.537 0.254 4.905 0.761 9.303 2.284 14.292 2.284 0.761-2.030-0.677-3.975-0.93-5.919-0.337-2.452 0.507-5.159 1.267-7.526 1.353-4.482 2.537-8.119 5.074-12.093 1.438-2.197 0.507-2.537 3.382-2.452 3.975 0.084 8.203 0.592 12.178 0.677 5.751 0.169 11.247 1.1 16.745-0.084 3.129 3.637 1.945 9.472 3.298 13.7 0.677 2.452 1.353 3.044 0.761 5.497-0.846 3.382-4.821 7.273-7.612 9.217-2.197 1.691-5.159 2.791-8.034 2.368-3.467-0.507-6.258-2.875-9.979-2.621-0.337 1.522 3.214 5.159 4.312 6.258 2.368 2.197 4.059 2.537 7.442 3.721 2.707 0.93 4.398 1.861 7.273 1.776 3.637-0.254 7.357-0.846 10.994-0.169 6.342 1.184 11.755 5.242 18.097 6.342 4.228 0.761 8.795 2.284 13.192 2.114 2.96-0.169 6.681-1.353 9.133 1.1-1.1 1.945-1.438 2.368-1.945 4.736-1.607 6.85-3.975 14.038-4.821 21.057-0.423 3.214 0.846 3.552 1.776 6.258 0.846 2.621 0.677 5.412 0.254 8.034-1.014 8.034-10.487 9.303-16.829 11.417-6.172 2.030-11.586 0.337-18.013 0.337-4.144-0.084-7.78-0.846-11.924-1.691-9.387-1.861-18.605-0.337-28.162-0.592-7.189-0.169-13.615-0.169-20.381-2.537-1.014-0.423-2.96-1.1-4.989-1.691 0.423-1.184 0.846-2.368 1.353-3.552 1.184-2.621 2.114-5.412 2.791-8.203 0.507-1.861 0.423-3.805 0.761-5.666 0.254-1.945 0.084-4.398 0.507-6.258 0.507-2.452 0.846-2.875 0.592-5.328-0.254-1.607-0.169-2.197 0-3.805 0.507-0.761 0.846-1.184 1.1-1.438-1.522 1.1-1.776 2.452-2.875 3.89-0.592 0.677-1.353 1.184-1.861 1.945-1.522 2.368-1.691 5.074-2.030 7.612-0.677 5.159-2.791 10.571-5.412 15.307-3.637 6.681-8.795 13.531-11.501 20.719-0.507 1.353-0.507 2.875-1.1 4.312-0.592 1.267-1.438 2.197-2.030 3.552-0.761 1.861-1.184 4.398-1.607 6.172-0.254 1.014-1.014 1.267-0.592 2.707-3.467 1.438-6.089 5.919-8.457 8.71-4.736 5.582-7.78 12.77-12.601 18.097-7.949 8.795-24.018 5.751-32.39 13.869 4.144 0.254 7.949-1.607 11.755-2.791 1.945-0.592 4.651-0.846 5.582-2.875-2.114 1.607-3.298 7.357-4.059 9.979-1.1 3.637-1.945 7.696-2.452 11.332-0.337 2.791-1.607 4.905-1.945 7.696-0.337 2.452-2.284 6.089-1.945 8.372 1.945-1.353 2.368-4.567 3.044-6.85 1.1-3.89 3.214-8.203 5.497-11.501 1.522-2.197 3.129-5.242 5.074-7.189 0.677-0.761 1.945-1.607 2.791-2.197 0.761-0.423 1.522-0.846 2.284-1.267 0.337-0.507 0.507-1.1 0.592-1.776 1.267-1.353 2.368-2.96 3.637-4.398 2.114-2.537 4.821-4.144 6.765-6.935 1.522-2.197 2.537-4.821 4.482-6.512 2.537-2.368 4.482-2.791 5.919-5.919 3.805 0.254 7.442 1.184 11.586 1.184 5.242 0 8.119 2.368 12.347 4.989 2.114 1.267 3.89 2.875 6.089 4.144 1.522 0.761 2.114 1.861 3.382 2.707 1.522 1.014 3.382 1.184 4.989 2.114 2.96 1.607 5.412 4.059 8.626 5.328 3.975 1.607 7.612 4.651 11.163 7.442 1.522 1.184 3.382 1.861 5.074 3.298 1.522 1.267 2.621 3.044 4.144 4.398 2.197 1.861 4.651 3.382 6.681 5.497 0.93 1.014 1.861 2.197 2.96 2.96-1.267 0.507-2.452 0.93-3.637 1.607-4.651 2.537-9.303 5.666-13.192 9.133-5.582 4.736-10.91 9.81-16.068 15.052-0.507 0.169-1.014 0.337-1.607 0.507-2.707 0.761-3.382 0.677-2.707 3.298-1.1 1.014-2.114 2.197-3.044 3.382 1.014-1.014 2.030-2.030 3.129-3.044 0.592 2.030 1.267 4.144 1.945 6.089 0.677 1.776 1.691 2.197 2.537 3.637 1.945 3.214 1.945 7.526 3.975 10.74 1.691 2.537 2.284 5.497 4.059 8.034 1.353 1.776 3.129 3.129 4.398 5.074 0.846 1.353 1.267 2.791 2.284 4.059 2.284 2.96 6.172 4.905 8.964 7.273 1.945 1.691 3.637 3.552 5.666 5.159 4.312 3.129 8.71 7.189 11.417 11.84 2.707 4.821 6.427 9.303 9.556 13.954 1.607 2.537 3.467 4.651 5.242 7.019 1.353 1.691 2.707 2.791 4.144 4.144-2.537 0-5.751-0.254-7.78 0.592 1.607 1.267 4.144 2.114 6.005 1.861 1.014-0.169 1.945-0.93 2.96-1.1 1.522-0.254 3.89 0.169 5.497-0.084 7.102-1.014 13.869-3.382 20.719-5.666 2.197-0.761 3.214-1.861 5.159-3.044 3.382-1.945 8.119-2.537 11.84-3.721 8.542-2.707 17.252-5.328 25.201-9.387 4.312-2.114 7.865-5.497 11.755-8.542 4.736-3.721 9.303-7.612 13.362-11.924 2.621-2.875 4.989-6.005 7.442-8.964-1.1 4.144-2.114 8.203-3.721 12.178-3.721 9.217-7.949 18.605-13.108 27.146-7.273 12.007-11.332 25.792-18.267 37.972-1.861 3.298-4.398 5.919-6.258 9.217-2.791 4.905-5.666 9.726-8.287 14.631-2.030 3.805-3.214 7.78-5.666 11.417-1.184 1.691-2.284 4.228-3.467 5.666-0.93 1.014-2.621 1.691-3.721 2.452-1.438 0.93-3.382 2.96-4.989 3.975-3.467 2.030-7.102 4.059-10.74 5.835-8.203 4.228-15.815 9.556-23.764 14.292-4.989 3.044-10.147 6.005-15.052 9.133-0.169-2.197-0.169-4.398-0.423-6.765-0.337-3.044-1.607-6.427-1.861-9.556-0.507-4.989 1.014-9.556 2.114-14.461 0.677-2.707 1.522-4.821 2.452-7.357 0.846-2.197 0.423-4.905 1.522-6.935-7.102 6.258-9.81 11.501-11.163 17.59-0.93 4.059-1.522 8.964-0.677 13.024 0.592 2.707 0.93 5.751 1.184 8.542 0.423 5.328 0.93 10.571 0 15.899-1.1 5.919-1.184 13.024-0.084 18.943 0.93 4.736 1.691 9.049 3.214 13.7 1.1 3.637 2.96 6.512 4.651 9.894 2.197-1.861 0.423-5.412 0.761-7.78 0.254-1.861 0.761-1.945 0.592-4.059-0.169-2.030 0.254-4.228 0-6.258s-1.1-3.805-1.353-5.835c-0.507-3.721-0.93-7.865-0.507-11.755 0.423-3.975 1.438-8.372 0.254-12.262 0-0.169 0-0.254 0-0.423 1.861-1.014 3.805-3.044 5.835-4.059 4.989-2.707 10.147-5.074 15.392-7.273 4.905-2.030 10.064-3.721 14.461-6.85 1.607-1.184 2.96-2.368 4.651-3.298 4.989-2.707 9.81-4.567 15.392-6.258 6.85-2.114 12.516-4.905 15.729-11.417 0.084-0.169 0.084-0.254 0.084-0.423 2.621 6.005 6.342 11.755 9.133 17.336 1.607 3.298 3.89 6.005 6.342 8.71 3.89 4.398 6.85 10.147 10.317 15.138 2.368 3.298 4.905 6.512 7.357 9.726-0.423-0.337-0.761-0.592-1.1-0.93-0.507-0.423-1.014-0.761-1.522-1.184l3.89 3.975c0.337 0.423 0.761 0.93 1.1 1.353 0.846 1.353 1.607 2.537 2.96 3.467 0.084 0.084 0.337 0.169 0.507 0.254 3.044 4.312 5.919 9.387 7.949 14.122 3.552 8.203 12.516 14.715 18.436 21.311 1.014 1.267 1.438 2.452 2.368 3.721 0.93 1.1 0.761 1.945 2.707 1.438 1.184-0.337 2.875-2.96 3.805-3.637 2.114-1.607 4.567-2.030 6.765-3.044 5.919-2.791 11.586-4.989 17.842-7.019 4.228-1.353 7.949-2.621 11.924-4.821 4.905-2.537 9.133-5.666 14.377-7.526 1.945-0.677 3.552-2.030 5.328-2.875-8.795 2.791-17.59 5.582-26.385 8.457-2.96-1.945-5.666-4.312-8.88-5.919-4.567-2.284-9.64-2.621-14.377-3.975-2.875-0.93-5.242-1.522-7.78-2.791-1.607-0.761-3.721-1.861-5.497-2.197-2.368-0.337-4.651 0.423-7.102-0.254-1.945-0.507-4.059-1.1-6.089-1.691-3.975-1.184-9.387-2.368-13.108-4.144-1.607-0.761-2.96-1.691-4.312-2.791-0.254-0.337-0.592-0.677-0.761-1.014-1.1-1.776-1.353-3.805-2.368-5.666-1.607-2.96-2.537-6.172-4.144-9.049-3.805-6.85-7.526-13.531-11.67-20.127-2.621-4.144-3.89-8.88-6.681-13.024-1.861-2.791-3.467-5.497-5.159-8.203-1.438-2.284-2.368-4.736-3.214-7.189 0.592-1.014 1.184-2.114 1.691-2.96 4.567-8.88 8.626-18.013 13.108-26.977 3.298-6.596 7.696-12.601 12.347-18.352 1.522 0.761 2.707 1.861 3.89 3.129 2.621 2.791 3.975 6.258 6.172 9.303 0.846 1.184 1.691 1.522 2.114 3.382 0.337 1.776 0.084 3.637 0.084 5.412 0 4.398 0.507 4.651 4.144 4.651 6.427 0 12.093-1.607 18.352-1.945 8.203-0.507 15.815-3.805 23.594-6.342 7.526-2.368 14.968-4.821 22.495-7.189 2.284-0.761 5.328-1.1 7.442-2.284 1.353-0.761 1.438-1.607 2.707-2.284 4.312-2.368 10.147-3.214 14.884-4.736 4.144-1.353 8.287-2.621 12.431-3.975 0 0 0 0 0.084 0 0.084 0.084 0.084 0.254 0.254 0.423 0-0.169 0-0.423 0.084-0.592 2.96-0.93 5.919-2.030 8.88-2.875 6.681-1.691 11.247 3.129 17.759 2.96 0.846 0.423 1.607 0.254 2.284-0.423 0.761-0.254 1.267 0 1.522 0.761 4.059 0.677 7.442 1.945 11.84 1.945 5.159 0.084 9.81 0.93 14.799 1.776 2.537 0.423 5.074 0.677 7.696 0.761 1.607 0.254 3.298 0.084 4.821-0.507 3.721 0.423 7.189 2.621 11.247 2.707 4.398 0.084 8.964-0.677 13.362-0.93 2.96-0.169 7.189-0.084 10.147 1.776 0.254 3.044 0.677 6.172 1.438 9.217 0.846 3.637 0.93 7.019 2.114 10.656 2.030 5.835 2.452 12.262 3.129 18.352 0.423 3.467-0.423 6.85-0.169 10.233 0.337 3.382 2.030 6.935 3.129 10.147 1.267 3.975 2.197 12.854 5.751 15.052-0.337-15.222-1.522-30.276-0.592-45.498 0.337-5.412-0.254-10.91 0.169-16.237 0.507-5.328 0.677-10.233-0.084-15.561-0.592-3.89-1.267-7.526-1.607-11.501-0.254-2.537-0.761-4.736-1.522-7.189-2.284-6.596-3.467-12.601-3.975-19.45-0.423-5.242-1.1-10.824-2.284-15.982-0.677-2.96-2.452-8.034 0.592-9.894 4.312-2.707 10.147 0.677 14.545 1.522 5.835 1.1 11.84 0.337 17.675-0.507 3.382-0.507 4.482-0.846 7.273 0.592 1.861 1.014 2.96 1.861 5.074 2.368 7.612 1.691 15.052 1.945 22.834 1.522 5.412-0.337 8.626-2.452 13.531-3.214 2.368 4.228 4.144 8.626 6.85 12.685 3.214 4.736 4.398 9.81 6.089 15.307 2.537 7.949 5.074 15.899 7.696 23.764 4.482 14.208 8.542 28.415 14.631 41.946 3.298 7.357 7.78 12.685 14.038 17.759 2.197 1.861 5.074 3.298 6.85 5.497 3.552 4.482 4.651 11.077 8.203 15.729 4.228 5.412 9.049 10.487 13.954 15.307-1.945-2.284-2.284-4.821-3.637-7.273-1.438-2.368-2.707-3.89-3.467-6.681-1.1-3.721-2.875-6.427-4.989-9.64-1.691-2.452-2.96-5.242-4.567-7.612-1.945-2.791-4.821-5.835-7.019-8.542-3.214-3.805-4.567-6.765-6.596-11.586-2.114-4.989-3.552-10.233-5.242-15.392-2.452-7.612-4.905-15.307-7.357-22.918-1.945-6.089-3.214-12.854-6.172-18.52-1.691-3.298-4.312-6.005-6.258-9.133-1.607-2.621-2.791-6.089-4.059-8.88-4.312-9.472-6.765-19.366-5.919-29.683-1.267 0.677-2.707 0.677-4.228 0.169-2.030-0.254-4.059-0.507-6.089-0.677 5.242-3.467 10.402-6.935 14.968-10.824 2.284-1.945 4.059-4.398 6.005-6.681 3.89-4.821 9.472-9.217 13.954-13.615 6.172-5.919 12.347-11.84 18.605-17.675 4.398-4.144 8.203-8.542 12.601-12.685 4.312-3.975 6.935-9.556 9.556-14.715 1.353-2.707 2.96-5.159 4.398-7.78 1.267-2.197 1.353-4.736 2.621-6.935 2.030-3.637 4.059-7.357 6.258-10.994 2.791-4.821 3.637-10.571 6.258-15.307 1.945-3.467 7.102-3.214 10.487-3.467 7.696-0.507 15.982 0.761 23.425-1.184 6.258-1.691 12.262-3.214 18.859-3.552 2.537-0.084 6.596-1.438 8.626-0.254 0.93 0.507 2.114 2.030 3.129 2.791 1.607 1.267 2.791 2.368 4.228 3.805 1.184 1.267 2.96 2.284 3.975 3.721 0.761 1.1 0.93 2.707 1.691 3.89 1.184 1.861 3.467 3.129 4.736 4.821 1.353 1.945 2.030 3.805 3.552 5.751 1.267 1.607 2.707 3.129 4.059 4.736 2.537 3.044 5.242 6.342 8.034 9.049 8.034 7.78 19.366 11.67 27.739 19.45 3.721 3.382 6.005 7.526 9.472 11.077 0.846 0.93 3.805 3.637 5.328 3.382 0.337-2.030-2.96-3.721-4.228-4.989-3.975-4.059-7.019-8.626-10.064-13.362-3.721-5.835-7.612-11.755-11.755-17.421-2.621-3.721-6.681-9.133-10.317-11.84-5.835-4.144-11.163-9.303-16.152-14.377-1.522-1.522-2.452-3.382-3.298-5.328-1.353-3.298-2.96-5.159-5.582-7.442-2.452-2.197-7.696-4.312-9.303-6.935-0.507-0.846-0.93-2.621-1.1-3.552-0.337-2.114 0.169-1.861 0.507-3.637 0.423-1.945 0-3.721 0.507-5.751 1.014-3.805 3.044-7.442 4.821-10.91 3.637-7.102 7.696-14.208 12.007-20.973 3.044-4.821 6.342-8.964 10.064-13.277 2.875-3.298 4.905-7.102 7.526-10.487 2.284-2.96 3.721-6.342 5.919-9.303 1.014-1.267 2.030-1.861 2.707-3.552 1.267-3.298 3.467-5.582 5.497-8.795 4.482-7.189 10.994-13.531 16.152-20.296 2.197-2.791 4.736-5.242 6.85-8.119 1.438-1.861 2.707-3.89 3.975-5.835-1.691 1.861-3.721 3.805-4.312 4.398-2.791 2.452-6.172 4.059-9.217 6.005-6.596 4.398-10.487 10.233-15.307 16.068-3.805 4.651-5.497 10.571-9.387 15.052-1.522 1.776-3.637 2.96-4.989 4.736-2.537 3.214-4.482 7.865-6.342 11.501-2.707 5.074-6.172 9.979-8.795 15.222-2.284 4.398-4.059 9.049-6.765 13.277-1.945 3.129-4.312 5.919-5.835 9.303-2.197 4.567-3.975 9.387-4.989 14.292-0.423 2.197-0.254 4.736-1.353 6.765-2.791 4.905-9.133 6.258-14.122 7.78-10.402 3.382-20.381 7.102-31.46 6.172-2.707-0.254-8.287-2.197-12.178-2.030 0-0.169 0-0.254 0-0.337-0.084-4.905-1.691-9.556-2.114-14.377-0.254-3.975 0.254-8.034-0.254-12.007-0.423-3.467-1.184-6.85-1.267-10.656-0.084-3.044 0.846-5.919 0.084-8.964-0.592-2.875-1.861-5.835-2.791-8.626-2.030-6.342-3.298-11.755-3.467-18.52-0.254-7.612-0.169-15.899 1.776-23.257 1.861 1.1 3.552 2.452 4.651 3.552 2.030 2.114 2.875 4.398 5.242 6.342 2.368 1.861 3.975 3.382 6.765 4.398 7.357 2.791 10.74 4.312 18.943 3.214 4.312-0.507 10.994-0.423 14.545-2.368-1.438-0.93-3.298-0.592-4.905-0.93-2.875-0.677-6.172-2.197-8.795-3.552-5.412-2.96-10.402-4.905-14.715-9.133-2.791-2.621-5.751-5.159-8.542-7.526-1.014-0.846-2.707-2.030-3.975-2.537-4.144-1.861-10.487-3.637-14.715-4.567-11.247-2.452-23.087 0.592-34.25 1.184-2.621 0.084-4.821-0.761-7.357-1.438-5.074-1.438-10.147-1.861-14.968-4.228-4.144-1.945-6.765-3.214-11.247-4.059-8.71-1.691-17.506-3.975-25.878-6.765-3.975-1.267-3.975-1.945-7.102-0.169-1.776 1.014-3.298 1.945-5.328 2.791 3.805-1.861 6.427-5.582 9.217-8.287 4.228-4.144 7.949-9.979 10.317-15.392 1.353-3.214 1.014-6.85 0.677-10.402-0.423-4.228-0.169-7.442 0.677-11.67 1.014-4.989 3.805-7.78 6.512-12.007 1.522-2.284 2.621-4.905 4.144-7.189 2.707-4.144 7.102-9.64 7.949-14.715 0.337-2.197 0.084-4.398 0.507-6.596 0.592-4.312 1.267-8.203 1.1-12.601-0.169-6.765 1.267-13.362 0-20.043-1.776 7.189-6.935 13.024-7.865 20.212-0.423 3.382-0.846 6.765-1.945 9.894-0.677 1.945-1.945 3.637-2.452 5.582-0.592 2.368-0.761 3.975-1.861 6.258-1.945 4.144-3.298 8.88-4.144 13.447-0.677 3.298-1.438 6.596-1.522 9.979-0.084 4.228-1.438 6.596-3.637 9.894-4.821 7.189-10.147 13.954-15.138 21.057-3.637 5.159-9.133 8.372-12.601 13.447-2.197 3.298-6.342 4.567-9.979 4.651-5.497 0.169-9.894-0.761-14.122-4.398-2.791-2.284-5.666-3.721-8.88-5.582-0.169-0.169-0.337-0.254-0.507-0.423 0-0.254 0.084-0.592 0.084-0.846 0.169-4.567 0.761-10.147 3.298-14.208 1.607-2.452 3.382-4.482 5.497-6.512 3.89-3.721 6.427-7.612 9.472-11.924 3.637-5.328 4.398-11.924 7.102-17.759 2.197-4.651 3.214-8.88 4.312-13.7 2.030-8.795 3.637-17.759 5.074-26.722 0-0.337 0.169-0.677 0.254-1.014-1.1 2.621-1.776 5.242-3.044 7.78-1.945 3.89-4.482 7.102-6.258 11.077-0.169 0.169-0.254 0.423-0.423 0.677-0.592-1.945-1.184-3.89-1.861-5.835-1.184-3.721-1.184-7.189-2.197-10.91-1.861-6.935-4.567-13.277-7.612-19.704-2.368-4.989-6.089-7.526-11.586-7.442-1.1 0-2.030 0.592-3.129 0.507-0.677-0.084-1.607-0.846-2.452-0.93-0.084-0.084-0.169 0-0.254 0 0.423-1.1 0.846-2.114 1.353-3.214-0.846 0.677-1.691 1.267-2.452 2.030-0.423 0.423-0.846 0.93-1.267 1.438-1.267 0.337-2.452 0.761-3.89 0.084 1.184 0.423 2.197 0.507 3.214 0.761-2.96 3.721-5.412 8.287-7.696 12.347-3.129 5.412-6.85 9.556-10.147 14.631-4.482 6.765-9.894 13.954-13.277 21.311-1.691 3.637-2.791 6.935-5.835 9.81-3.382 3.129-6.172 6.596-9.217 10.064-4.144 4.905-12.939 6.681-19.113 8.287-3.721 0.93-6.85 1.1-9.81-1.014-2.452-1.776-2.452-2.114-5.159-2.197-4.821-0.254-6.596-1.945-10.994-4.228-2.875-1.438-6.005-2.707-8.795-4.228-0.677-0.337-1.691-1.438-2.452-1.607-5.328-1.607-12.093 2.197-17.421 0.337-1.438-0.507-2.030-1.945-3.298-2.791-2.875-1.861-6.85-2.197-10.064-3.298-2.537-0.93-4.398-1.607-6.935-2.197-2.368-0.592-3.89-2.284-6.427-1.438-0.677-4.228 1.184-9.303 2.030-13.362 0.423-1.776 1.014-3.467 0.846-5.242-0.084-0.846-0.677-1.438-0.592-2.284 0-1.267 0.846-2.875 1.014-4.144 0.169-1.438 0.169-2.621 0.592-4.144 0.169-0.507 0.337-1.014 0.507-1.522 4.736-4.312 8.626-6.342 11.163-9.472 1.1-1.353 2.114-2.707 3.214-4.059-3.89 0-7.612 0.254-10.74 2.875-0.337 0.254-0.677 0.677-1.014 0.93 0-0.423 0.169-0.846 0.254-1.267 0.169-2.284-0.423-4.059 0.084-6.258 1.014-4.989 1.522-11.163 3.298-15.815 2.114-5.497 6.005-10.147 8.287-15.561 1.353-3.298 1.607-6.427 2.030-9.894 0.761-6.089-0.423-12.007 0.592-18.097 0.677-4.398 1.691-8.71 2.368-13.108 1.353 0.423 3.044 1.267 10.74 2.368 1.776 0 3.298 1.1 4.905 1.522 2.030 0.507 4.144 0.592 6.089 1.267 3.552 1.184 7.273 2.284 10.74 3.637 1.776 0.761 4.989 1.691 6.512 2.707 0.93 0.677 2.030 2.621 2.96 3.552 1.184 1.1 2.197 2.452 3.382 3.637 4.059 4.482 10.402 3.552 13.277 8.964 3.044-0.423 6.427 0.254 9.387 0.423 5.497 0.423 10.994 0.93 16.491 1.1 1.945 0.084 3.975-0.084 6.089-0.254-2.452 1.353-4.905 3.805-6.512 4.821-4.821 3.129-8.542 6.935-13.531 9.726-5.074 2.791-10.233 6.765-15.645 8.542-3.637 1.353-7.696 2.030-11.247 3.721-3.298 1.522-6.005 3.214-9.64 4.228-7.019 2.197-14.461 0.507-21.565 3.044-4.398 1.691-8.457 4.821-12.178 7.612-2.114 1.522-3.805 3.552-5.412 5.582 2.452 0.084 4.989 0.254 7.526 0 3.214-0.254 5.074 0 8.119-1.014 5.242-1.776 10.487-3.382 15.729-5.074 18.605-5.919 37.802-11.332 53.024-24.187 2.96-2.452 6.172-3.044 9.303-4.905 1.522-1.014 2.96-2.537 4.228-3.721 2.197-2.030 4.821-2.537 5.835-5.919-1.014-0.761-2.114-2.030-3.382-2.791 1.691-0.084 3.382-0.084 4.989 0.084 2.114 0.169 3.214 1.267 4.567 2.368 4.228 6.512 5.751 8.542 7.019 8.034 1.945-0.846 0.169-2.621-0.084-3.805-0.084-0.507 0-0.93-0.084-1.438 0 0 0 0 0 0 1.691 0.254 3.467-0.084 4.989 0.254 2.114 0.507 1.522 1.267 3.975 0.761 1.353-0.337 2.621-1.184 4.059-1.267 1.607-0.084 3.129 0.846 4.736 0.761 3.382-0.254 5.751-3.721 8.542-5.159 0.423-0.169 1.014-0.423 1.522-0.677-1.184-0.592-2.368-1.267-3.637-1.861-2.452-1.184-5.242-1.691-8.034-1.522-4.059 0.254-7.78 3.214-11.84 3.552-1.522 0.169-2.875-0.169-4.228-0.677 0.423-3.721 1.184-7.526 1.184-10.994 0-2.197-0.254-3.89 0.169-6.005 1.184-7.019 6.258-12.601 8.542-19.282 2.030-5.751 2.621-12.854 0.93-18.69-1.353-4.736-3.129-7.865-2.197-12.685 0.846-4.651 0.677-8.287 3.214-12.516z"></path>
    <path fill="#000000" d="M996.496 503.806c-0.846 1.014-1.522 2.030-2.197 3.129 1.267-1.438 2.368-2.707 2.197-3.129z"></path>
    <path fill="#000000" d="M334.995 343.889c-0.93 0.677-1.776 1.267-1.861 1.861 0.337-0.677 1.014-1.267 1.861-1.861z"></path>
    <path fill="#000000" d="M136.023 252.977c-1.1-0.677-2.114-1.438-2.875-2.197 0.592 1.1 1.691 1.776 2.875 2.197z"></path>
    <path fill="#000000" d="M136.023 252.977c1.945 1.267 4.312 2.197 6.681 3.129-1.014-0.592-1.945-1.184-3.129-1.776-1.014-0.592-2.368-0.93-3.552-1.353z"></path>
    <path fill="#000000" d="M32.156 370.949c1.861 1.522 3.552 2.875 4.989 4.144-0.084-0.337-0.254-0.592-0.337-0.93-1.014-1.353-2.875-3.298-4.651-3.214z"></path>
    <path fill="#000000" d="M288.060 579.833c0.169-0.169 0.337-0.254 0.507-0.423-0.084 0.084-0.254 0.169-0.507 0.423z"></path>
    <path fill="#000000" d="M544.581 962.927c0.677-0.169 1.267-0.423 1.945-0.592-0.677 0.084-1.353 0.337-1.945 0.592z"></path>
    <path fill="#000000" d="M441.627 939.248c-0.677-0.93-1.184-1.945-2.452-2.452z"></path>
    <path fill="#000000" d="M442.583 940.515c0.677 0.761 1.353 1.267 2.030 1.776l-2.96-3.044c0.254 0.423 0.592 0.846 0.93 1.267z"></path>
    <path fill="#000000" d="M733.632 398.35c-1.1 2.197-1.945 4.482-2.452 6.935 0.084-0.254 0.169-0.592 0.337-0.846 0.93-1.861 1.607-3.975 2.114-6.089z"></path>
    <path fill="#000000" d="M740.009 386.933c3.382-6.427 4.398-14.038 5.751-21.057 1.438-7.019-2.030-11.755-3.044-18.436-0.337 4.059-1.691 7.949-2.621 11.84-0.761 3.382-1.438 6.85-2.197 10.233-0.846 3.552-2.707 7.357-3.129 10.994-0.507 4.059 1.014 8.034 0.084 12.431-0.337 1.691-0.761 3.552-1.184 5.412 1.861-3.89 4.312-7.526 6.342-11.417z"></path>
    <path fill="#000000" d="M639.618 32c-1.607 5.497-3.975 10.064-3.467 15.645v0.084c0.084 0 0.084-0.084 0.084-0.169 1.861-5.159 1.691-10.571 3.382-15.561z"></path>
    <path fill="#000000" d="M461.678 223.124l1.267-1.691c-0.337 0.169-0.761 0.337-1.184 0.592 0 0.337-0.084 0.761-0.084 1.1z"></path>
    </svg>