<svg xmlns="http://www.w3.org/2000/svg" viewBox="-17.728 -49.721 1074.589 1121.721">
    <path fill="#000000" d="M239.609 356.617c13.577 0.278 28.763 0 38.351-9.657 4.269 4.618 8.608 9.167 12.877 13.788 20.646-11.268 45.42-11.127 68.934-10.777 23.094 0.416 46.259 0.773 69.354 1.191 3.709 0 7.768 0.218 10.428 2.73 18.826-6.298 37.792-12.318 56.757-18.195 1.749 3.92 3.429 7.908 5.108 11.827 18.126-11.337 41.571-6.019 62.566-1.884 21.485 4.2 43.32 6.648 65.155 7.279 8.748 0.278 17.916 0.141 25.474-4.339 4.619-2.73 8.328-6.998 13.157-9.378 10.497-5.249 22.884-0.555 34.013 3.219 29.813 10.078 62.215 12.667 93.008 6.368 7.488-1.548 15.047-3.638 22.535-2.519 7.488 1.052 14.137 5.039 21.415 7.068 11.967 3.43 25.474 0.912 35.482-6.509 29.113 13.367 62.215 13.996 94.268 14.347-71.174 4.759-142.277 9.518-213.381 14.277-71.243 4.759-142.557 9.588-213.94 10.008-8.398 0.069-16.936 0-24.704-3.009-5.599-2.099-10.567-5.668-16.096-7.908-8.888-3.64-18.756-3.779-28.343-3.848-16.657-0.069-33.383-0.218-50.108-0.357l-40.030-0.278c-49.618-0.357-99.237-0.695-148.855-1.052-30.513-0.218-60.956-0.416-91.399-0.635-11.687-0.070-23.724-0.277-34.433-4.97-15.047-6.648-44.93 3.92-44.93-14.696 58.927 3.779 117.853 7.908 177.339 7.908z"></path>
    <path fill="#000000" d="M419.278 62.264c-9.938 4.618-20.155 10.219-25.894 19.524-5.809 9.378-5.108 23.514 4.129 29.393-4.969 15.745-29.253 18.755-33.732 34.642-1.68 6.019 0 12.457 1.819 18.475 3.219 10.778 6.578 21.485 10.147 32.123 3.29 9.588 6.859 19.386 13.297 27.293 5.318 6.368 12.248 11.127 19.105 15.817 25.264 17.287 51.298 34.853 81.112 41.85 52.138 12.318 106.446-9.378 159.913-5.739 6.928 0.416 14.627 1.111 19.945-3.358 2.589-2.24 4.199-5.388 5.528-8.538 9.798-23.235 8.958-49.759 3.149-74.323-5.879-24.494-16.376-47.588-25.684-71.033-11.617-29.463-23.934-62.566-52.418-76.282-12.038-5.809-25.684-7.348-39.051-8.328-22.185-1.687-44.51-2.17-66.765-1.468-2.31 0.070-4.759 0.218-6.508 1.746-1.749 1.468-1.96 4.828 0.069 5.739 42.55-9.518 89.789 5.878 118.343 38.771 17.077 19.596 27.293 44.020 36.742 68.165 7.348 18.755 14.417 39.331 8.818 58.717-5.528 18.895-22.115 32.543-39.541 41.781-33.942 17.985-74.392 23.585-111.974 15.466-15.326-3.289-31.213-9.588-39.821-22.674-2.589-3.92-4.409-8.328-7.418-11.966-3.149-3.71-7.348-6.298-11.268-9.167-14.767-10.708-26.244-25.824-32.613-42.83-1.68-4.408-3.009-9.028-2.87-13.788 0.279-8.048 4.969-15.258 7.558-22.815 6.019-17.356 2.169-38.212 12.947-53.047 3.989-5.459 9.588-9.518 15.116-13.436 18.756-13.367 37.441-25.964 58.577-35.272-27.784 1.607-55.777 12.946-80.761 24.564z"></path>
    <path fill="#000000" d="M115.388 437.238c-11.337 5.318-25.754 6.719-32.682 17.146-6.368 9.447-3.499 22.115-0.349 33.173 2.169 7.908 4.409 15.817 6.649 23.724 4.339 15.258 8.608 30.443 13.857 45.35 0.631 1.607 1.191 3.358 2.379 4.618 4.199 4.549 11.477 1.746 17.496 0.555 28.903-5.878 49.339 33.312 78.802 34.642 16.096 0.695 31.633-12.247 33.872-28.204 0.56-3.989 0.631-8.679 3.779-11.198 1.891-1.408 4.339-1.746 6.649-2.030 15.676-2.030 34.292-10.288 34.712-26.104 0.21-9.097-6.089-17.287-6.439-26.384-0.279-8.749 3.849-20.085-3.639-24.564-4.269-2.588-9.938-0.773-14.557-2.519-8.888-3.358-8.398-16.236-4.619-24.845 3.849-8.678 9.448-18.267 5.528-26.944-3.219-7.209-11.757-10.148-19.386-12.387-23.655-6.788-52.208-16.027-76.982-9.937-20.155 4.97-25.964 27.014-45.069 35.902z"></path>
    <path fill="#000000" d="M435.473 659.647c4.479 7.699 11.687 11.268 20.575 16.097 8.188 4.408 0.069 16.376 9.658 14.416 6.859-1.408 13.787-2.73 20.646-4.128 13.297-2.661 26.524-5.318 39.471-8.608 1.47-0.416 2.939-0.773 4.129-1.607 3.989-2.661 19.315-26.384 18.336-30.442-4.688-19.386 11.757-13.857 13.227-33.592 0.839-10.778 4.129-14.206-9.658-15.886-3.499-0.416-0.349-48.149-17.146-27.574-1.118 1.329 4.059-8.959 3.779-10.498-1.609-10.567-20.995 0.496-34.712 0-7.838-0.278-15.047 3.779-22.955 3.92-7.558 0.068-17.356-2.871-21.345 2.099-2.24 2.799-17.566-1.548-19.176 1.548-3.009 5.878 2.66 13.577-4.829 10.917-7.418-2.73-15.676-6.578-23.235-4.128-6.298 2.099 11.897 28.204 9.938 33.312-6.229 15.745-8.678 8.749-3.639 25.404 3.989 13.646 9.448 15.817 16.936 28.763z"></path>
    <path fill="#000000" d="M533.814 372.854c-1.118-10.917-10.218-19.106-19.105-25.474-14.977-10.777-16.657-19.596-33.593-26.873-15.607 21.695-44.649 32.752-70.684 26.873-4.969-1.111-9.868-2.799-14.837-2.588-5.039 0.218-10.428 2.869-11.967 7.699-0.7 2.24-0.49 4.759-1.26 6.998-1.96 5.668-9.238 7.417-15.187 6.648-5.948-0.695-11.827-3.009-17.706-1.964-9.098 29.113-18.196 60.326-9.588 89.649 1.749 6.019 4.269 11.897 5.389 18.126 1.049 5.528 0.98 11.198 1.401 16.867 1.049 13.716 19.945 20.016 24.144 33.102 0.629 2.030 1.329 4.2 2.939 5.528 1.891 1.548 39.121 12.107 41.5 12.176 30.653 0.972 37.022 6.929 61.306-11.966 5.528-4.269 11.197-9.238 18.126-10.427 6.649-1.111-1.191 1.111 5.528 1.548 13.437 0.773 25.684-7.068 36.881-14.558 26.174-17.636 29.953-57.877 35.342-89.019 3.009-17.425-2.45-36.182-14.347-49.268-3.149-3.5-7.348-6.788-11.967-6.229-2.519 0.357-4.898 1.825-7.488 2.030-10.008 0.695-15.746-17.425-25.055-13.577z"></path>
    <path fill="#000000" d="M777.714 774.911c-3.29-5.949-9.868-8.608-15.887-10.288-10.148-2.799-13.227-7.418-23.445-7.838-2.379 15.817-14.137 28.553-28.553 31.003-2.729 0.416-5.599 0.555-8.048 1.825s-4.478 3.92-4.058 6.998c0.21 1.468 0.98 2.871 1.118 4.339 0.421 3.638-2.799 6.229-5.878 7.068-3.149 0.912-6.718 0.912-9.378 2.871 2.729 18.547 6.019 38.351 17.566 53.118 2.379 3.079 5.108 5.878 7.208 9.167 1.891 2.94 3.29 6.157 4.898 9.308 3.989 7.558 14.977 6.998 20.295 13.507 0.839 0.972 1.749 2.030 2.87 2.45 1.26 0.496 22.464-1.746 23.724-2.24 15.536-6.229 20.155-4.269 27.574-20.436 1.749-3.71 3.29-7.699 6.439-9.937 3.080-2.099-0.278 0.912 3.149-0.357 6.859-2.519 11.058-9.728 14.767-16.517 8.678-15.817 0.488-39.611-4.549-58.507-2.869-10.566-10.217-20.014-19.455-24.843-2.379-1.329-5.318-2.24-7.488-0.912-1.191 0.773-1.96 2.17-3.219 2.799-4.829 2.661-12.177-6.368-15.887-2.17z"></path>
    <path fill="#000000" d="M652.619 440.178c-20.365 5.318-39.681 19.596-45.14 39.891-6.089 22.955 6.368 46.329 9.028 69.914 2.030 18.547-2.31 37.721-12.038 53.677-6.508 10.568-15.676 20.646-16.027 33.033-0.142 6.298 2.030 12.318 4.619 18.056 18.126 39.821 60.606 67.394 104.416 67.814 20.575 0.218 44.93-3.71 58.436 11.827 5.108 5.809 9.798 14.696 17.426 13.367 2.729-0.496 5.039-2.378 7.208-4.2 16.306-13.646 33.382-28.343 40.24-48.499 2.87-8.328 3.849-17.287 7.068-25.474 8.818-22.115 31.983-34.362 53.328-44.72-28.483-24.075-46.889-59.626-50.108-96.787-0.488-5.459-0.839-11.337-4.269-15.607-3.71-4.549-10.008-5.949-15.116-8.818-8.258-4.618-13.437-13.228-19.945-20.086-19.665-20.995-47.449-22.674-72.083-34.222-23.375-10.988-39.961-16.307-67.044-9.167z"></path>
    <path fill="#000000" d="M895.19 364.665c-26.034-1.468-52.138-1.329-78.172 0.416-5.249 0.357-10.638 0.833-15.187 3.289-5.039 2.73-8.468 7.558-10.988 12.667-9.868 19.945-5.318 45.98 10.638 61.446 11.757 11.407 29.463 18.475 34.222 34.082 1.329 4.339 1.47 8.888 2.030 13.298 3.5 26.804 22.395 48.709 40.521 68.864 12.317-6.719 22.674-16.936 29.533-29.253 9.868-0.972 19.806-1.964 29.743-2.94 11.408-1.111 25.474-4.339 28.204-15.537-4.549-1.884-9.168-3.779-13.787-5.668 8.398-6.019 13.787-16.027 14.137-26.314 0.21-5.67-1.049-11.337-0.98-17.007 0.142-7.908 2.939-15.745 7.838-21.905 1.749-2.24 3.919-4.549 3.779-7.348-0.068-2.45-1.819-4.479-3.639-6.157-8.608-7.697-20.085-11.127-30.303-16.446-10.287-5.249-20.365-13.857-21.415-25.334-0.352-3.569 0.142-7.489-1.819-10.498-1.47-2.17-3.989-3.43-6.439-4.408-13.017-5.598-27.083-8.749-41.221-9.378z"></path>
    <path fill="#000000" d="M263.249 860.291c14.696-3.5 29.183-7.908 43.32-13.157 2.799-1.052 5.738-2.17 7.908-4.339 2.31-2.309 3.429-5.598 3.989-8.818 2.169-12.667-4.619-26.384-16.096-32.333-8.398-4.408-19.315-5.388-24.564-13.298-1.47-2.168-2.31-4.618-3.359-6.998-6.368-14.347-20.436-23.304-33.802-31.492-5.738 5.739-9.798 13.087-11.547 21.065-5.389 2.168-10.707 4.339-16.027 6.509-6.158 2.519-13.437 6.648-13.087 13.297 2.87 0.278 5.669 0.555 8.538 0.912-3.639 4.688-4.969 11.127-3.499 16.936 0.839 3.148 2.45 6.088 3.359 9.238 1.26 4.408 0.98 9.238-0.7 13.436-0.631 1.548-1.401 3.148-0.91 4.689 0.421 1.408 1.749 2.24 3.080 2.799 6.019 2.871 12.947 2.94 19.525 4.128 6.578 1.25 13.507 4.339 16.027 10.567 0.77 1.884 1.118 4.2 2.729 5.528 1.191 0.972 2.799 1.191 4.339 1.408 8.118 0.912 16.447 0.357 24.425-1.607z"></path>
    <path fill="#000000" d="M371.431 623.046c9.658 11.197 5.459 22.745 9.727 37.441 2.799 9.798 4.199 14.137 3.569 24.354-0.77 14.347-10.008 21.835-20.575 30.303-14.277 11.548-16.447 31.283-33.312 25.334-18.266-6.438-39.471-11.127-55.778 0.068-2.45 1.746-5.039 3.848-7.978 3.71-2.45-0.218-4.479-1.884-6.368-3.5-9.238-7.979-18.475-15.955-27.713-23.934-3.639-3.15-7.418-6.44-9.588-10.988-2.099-4.41-2.519-9.588-2.799-14.558-1.401-21.415-2.799-42.9-4.199-64.315-0.14-3.15-0.349-6.368 0.629-9.308 0.839-2.588 2.519-4.688 4.199-6.648 13.787-16.376 31.702-29.323 51.648-33.173 40.731-7.908 73.343 15.817 98.537 45.209z"></path>
    <path fill="#000000" d="M435.382 729.072c3.219-5.459 4.549-12.038 3.569-18.267-6.019 11.197-12.038 22.395-18.056 33.592-0.421-2.799-0.91-5.528-1.329-8.258-4.199 4.269-3.779 10.848-4.898 16.586-0.77 3.848-2.31 7.489-4.549 10.708-6.649 9.657-18.475 14.485-27.784 21.834s-16.237 20.856-9.168 30.163c-14.207 6.998-22.115 24.144-17.846 38.981 2.45 8.608 8.468 16.236 8.888 25.124 0.21 3.848-0.56 8.048 1.609 11.197 1.68 2.378 4.619 3.569 6.998 5.249 6.998 4.898 9.448 14.976 5.389 22.325 4.829-0.278 9.378-3.219 11.478-7.418 1.749 22.185 8.678 43.95 20.226 63.265 2.939-0.555 5.599-2.24 7.279-4.689 4.969 10.988 17.077 18.547 29.533 18.547 7.279 0 16.306-1.746 20.505 3.989 9.798-8.608 18.685-18.267 26.314-28.763 16.516 13.436 43.74-2.030 62.776 7.838 5.108 2.661 9.238 6.998 14.767 8.678 5.459 1.687 13.227-1.25 12.877-6.788 9.658 9.657 26.314 11.897 38.422 5.249 12.107-6.578 18.475-21.555 14.767-34.432 5.599-11.058 16.447-19.455 28.834-22.465 1.26-17.146-0.77-34.502-6.019-50.948 7.208-0.068 10.147-9.657 7.418-16.097-2.729-6.368-8.608-11.197-11.477-17.495-5.738-12.457 1.191-26.663 1.329-40.24 0.068-6.648-1.539-13.297-4.13-19.455-12.248-29.883-52.768-58.927-84.331-68.864-42.9-13.577-96.577-2.378-133.389 20.855z"></path>
    </svg>