<svg xmlns="http://www.w3.org/2000/svg" viewBox="-32.833 -47.998 1101.628 1119.996">
    <path fill="#000000" d="M677.053 322.848c-0.828-1.379-1.563-3.127-2.666-4.322-2.851-3.31-3.954-3.862-6.161-8.092-2.574-5.058-5.15-9.655-7.724-14.805-1.931-4.046-5.333-12.966-10.483-14.161-2.207-0.459-5.977 0.092-8.092 0.276-5.15 0.552-9.472 2.207-14.62 0.552-4.781-1.471-9.747-3.862-14.069-6.621-3.035-2.023-5.15-5.058-8.276-6.896-4.322 2.666-3.127 10.391-4.966 14.253-1.656 3.586-4.781 6.161-6.161 9.931-1.287 3.31-2.207 5.333-4.414 8.092-7.448 9.103-13.149 18.85-18.023 29.517-2.759 6.161-6.253 12.046-9.011 18.207-2.391 5.333-3.035 10.115-6.621 14.805-3.77 4.873-8.644 9.103-12.138 14.161-1.747 2.666-3.035 5.242-5.15 7.632-3.218 3.678-5.425 6.804-9.38 9.38-4.506 2.851-9.195 5.058-13.702 7.816-0.644 0.459-1.287 0.828-1.839 1.287 0.552-0.276 1.103-0.459 1.747-0.736-3.678 1.839-5.242 6.529-7.908 9.472-1.839 1.931-3.954 4.689-5.885 6.437-3.77 3.402-9.195 4.414-12.138 9.011 4.597 3.31-14.437 18.115-18.299 21.057-3.77 2.851-5.885 5.977-8.827 9.563-2.207 2.666-5.333 5.058-7.724 7.632-3.402 3.402-7.448 6.437-10.942 9.931-2.391 2.299-3.954 2.851-6.437 4.414-1.747 1.103-1.563 1.656-2.666 3.31-1.012 1.656-2.759 3.586-3.402 5.333-1.747 4.414-2.115 9.747-2.851 14.253-1.287 8.276-5.885 12.413-12.046 17.012-3.31 2.391-6.253 4.506-8.552 8-1.563 2.391-2.666 5.15-4.23 7.54-3.494 5.058-7.724 8.46-12.046 12.782s-8.736 8.736-13.057 13.057c-4.873 4.966-11.034 8.184-16.827 12.505-6.161 4.689-12.138 9.747-18.207 14.712-7.080 5.793-15.908 10.483-22.529 16.827-1.747 1.747-3.218 3.678-4.597 5.701-4.23 14.897-9.931 29.15-20.69 41.655-15.54 18.207-32 38.069-48.459 55.173-6.712 7.080-15.816 10.207-24.092 14.897-13.702 7.908-10.298 10.391-17.012 22.161-1.103 2.023-2.207 3.862-3.402 5.609-3.678 12.23-10.207 21.517-20.69 31.724-14.712 14.253-22.437 33.011-36.966 47.264-7.724 7.54-17.012 11.587-25.839 17.471-8.736 5.885-13.241 11.77-18.299 18.667-0.552 2.574-1.287 3.494-3.218 6.069-4.873 6.621-8.46 14.253-13.609 20.506-2.391 2.943-4.781 6.253-7.173 9.103-1.931 2.299-5.242 2.299-7.724 4.23-2.666 2.115-5.425 3.218-8.092 5.517-5.058 4.506-9.103 9.38-13.702 14.345 2.023 2.759 5.885 0.459 8.644 1.471 3.77 1.379 7.724 6.161 9.839 9.288 4.506 6.712 9.839 13.517 15.54 19.219 3.586 3.678 7.173 8.276 12.138 10.115 1.839 0.736 2.759 0.644 4.689 0.736 3.218 0.184 3.402 0.828 5.885 2.391 3.035 1.839 4.414 1.379 7.265 4.322 2.666 2.851 5.15 5.977 8 8.736 3.494 3.402 7.54 5.885 12.138 7.357 2.482 0.828 4.873 1.563 7.357 2.299 18.299-18.115 40.46-33.011 62.253-47.541 4.597-4.689 9.288-9.655 12.966-14.897 3.218-4.506 4.23-5.333 4.506-9.472 0.459-6.529 1.195-16.92 6.345-21.885 8.276-7.908 17.747-15.908 22.805-26.391 1.471-2.851 3.402-5.425 5.15-8.368 4.873-8.276 11.126-16.092 16.552-24 3.954-5.793 8.276-11.402 12.322-17.287 1.471-2.115 2.943-4.322 4.322-6.529 2.574-4.414 4.506-9.103 5.977-14.069 1.379-2.851 1.839-5.058 3.954-7.724 2.299-2.759 4.23-5.425 6.345-8.368 3.77-5.333 8.276-10.115 12.322-15.172 7.448-9.288 12.23-17.655 17.379-28.138 2.574-5.15 5.058-10.391 8.184-15.264 7.357-11.402 17.104-17.563 27.678-26.574 11.31-9.655 22.529-19.77 32.827-30.529 7.908-8.184 10.023-11.77 14.989-20.137 2.207-3.586 5.701-6.069 8.827-8.919 2.666-2.482 3.586-2.666 6.161-3.954 3.494-1.747 6.712-4.597 10.023-6.712 9.103-5.793 17.563-10.667 22.988-20.322 4.506-8 5.977-16.552 11.862-23.816 3.494-4.414 7.173-8.552 10.942-12.69 9.288-10.115 17.931-20.69 26.207-31.632 3.402-4.506 4.966-10.023 9.747-13.057 6.712-4.414 12.413-10.575 18.483-15.908 8.184-7.265 17.747-13.149 25.379-20.965 7.54-7.632 15.448-17.563 20.414-27.035 1.563-3.035 4.046-6.896 4.966-10.207 0.644-2.115 0-4.23 0.644-6.437 1.103-3.678 3.862-8.368 5.333-11.862 4.23-9.931 9.839-18.85 17.287-26.851 8.276-8.827 13.517-20.322 22.344-28.506 3.127-3.035 7.080-4.781 10.298-8 2.482-2.574 4.138-5.885 6.529-8 3.494-2.851 6.804-6.345 10.207-9.472 2.299-2.115 4.597-4.414 6.988-6.345 0.459-0.367 1.839-1.012 2.391-1.563 1.287-1.471 1.379-3.678 2.851-5.058 0.736-0.736 2.023-0.92 2.759-1.563 1.563-1.471 2.759-4.138 3.862-5.977 1.656-2.759 2.851-6.069 4.873-8.46-0.92 0.644-5.609 3.127-6.712 2.666-1.103-0.367-3.31-4.873-4.138-6.161z"></path>
    <path fill="#000000" d="M864.538 452.687c1.287 1.656 2.574 3.31 3.77 5.058 0.92 1.287 1.747 2.574 2.574 3.954 0.828 1.287 1.656 2.574 2.482 3.954 1.656 2.851 3.127 5.793 4.597 9.103 13.793 31.357 26.115 62.069 43.311 91.862 4.138 7.080 8.092 14.161 11.954 21.334 0.92 1.656 1.747 3.31 2.574 4.966 3.127 5.977 6.069 11.862 8.919 17.839 0.459 1.103 1.012 2.207 1.563 3.31 0.184 0.367 0.367 0.736 0.552 1.103 2.023 4.597 3.954 9.195 5.793 13.885 0.552 1.195 0.92 2.391 1.379 3.678 1.287 3.402 2.574 6.712 3.678 10.115 0.552 1.656 1.012 3.31 1.563 4.966 0.92 3.127 1.839 6.253 2.666 9.38 0.459 1.747 0.828 3.402 1.287 5.15 2.207 9.38 3.77 18.942 4.506 28.597 0.459 0.828 1.103 1.471 1.471 2.299 2.851 5.058 5.333 11.402 8.827 15.908 0.184 0.184 0.276 0.367 0.459 0.552 0.459 3.218 1.012 7.265 2.574 8.919 0.736-0.92 1.195-1.931 1.656-3.035 0 0.092 0.092 0.092 0.092 0.184 0.644 1.103 1.012 2.666 2.391 2.759 1.195-3.402 0.184-8.736 0.184-12.413v-12.322c0.092-0.092 0.092-0.184 0.092-0.276 0.736-5.15-0.092-10.942 0-16.184 0.092-9.103-2.943-17.104-4.046-26.023-0.92-7.357-3.127-14.437-4.046-21.701-0.459-4.138-2.299-8-3.954-11.678-1.195-5.242-1.379-10.759-2.115-16.092-1.931-12.874-3.402-25.931-6.988-38.528-3.127-11.034-6.621-21.977-8.919-33.195-0.92-4.322-2.759-8.46-2.943-12.782-0.459-6.896-5.242-13.977-8.368-20.046-3.77-7.448-8.368-14.437-11.862-21.977-2.299-5.15-4.414-10.391-7.080-15.448-3.954-7.357-8-14.989-12.23-22.344-0.092-0.459-0.092-0.92-0.184-1.379-1.195-5.609-3.862-10.575-6.896-15.356-0.184-0.644-0.367-1.195-0.644-1.839-1.195-3.77-2.391-7.448-3.586-11.126-1.287-3.77-1.656-7.816-3.218-11.495-3.586-8.092-10.298-14.805-15.448-21.793-5.15-6.896-9.563-14.345-14.437-21.334-2.666-9.563-5.793-19.034-10.391-28.138-0.459-0.92-0.92-1.839-1.379-2.759-1.195-2.115-1.931-4.414-2.299-6.804-2.759-4.597-12.413-10.575-14.805-12.322-9.011-6.896-16.552-12.966-23.541-21.885-5.517-7.080-12.046-13.241-19.402-18.575-3.862-2.666-5.793-2.391-10.391-2.207-8.184 0.276-17.287 0.92-25.379-0.184-4.506-0.644-5.885-2.759-8.644-5.885-5.242-6.161-8.184-14.253-13.057-20.69-2.207-2.943-5.058-5.517-7.448-8.46-4.414-5.242-7.724-11.402-12.138-16.735-4.689-5.609-9.288-11.402-15.264-15.816-6.437-4.781-8.736-5.058-16.735-4.781-5.701 0.092-9.103 0.367-12.782-4.414-4.873-6.437-9.563-12.874-14.345-19.311-10.298-13.793-28.138-16.46-44.69-18.758-2.759-1.747-5.517-3.954-8.736-4.138-0.184-4.322-5.609-7.908-8.736-10.298-1.747-1.379-3.862-3.494-5.977-4.046-1.931-0.459-2.943-0.184-4.689-1.379-3.127-2.115-5.517-6.253-8.276-8.919-1.287-1.195-3.678-5.425-5.333-5.793-2.851-0.552-5.425 3.954-8.46 3.586-3.127-0.367-5.425-6.253-6.712-8.552-1.471 0.459-1.747 2.207-3.31 2.759-3.954-4.046-6.529-9.288-10.759-13.149-0.184 0.736-0.552 1.471-0.92 2.115-1.931-1.471-2.115-3.954-3.402-5.701-0.736-1.012-1.747-1.747-2.574-2.666-3.31 2.482-6.437-2.482-8.368-4.506-3.402-3.586-3.862-5.977-8.736-4.966-10.023 2.115-19.127 0.552-29.15-1.012-3.494-2.759-7.080-5.425-10.942-7.816-10.115-6.253-21.426-11.587-32.368-16.368-9.38-4.23-19.402-7.357-29.058-10.942-0.552-0.184-1.103-0.367-1.656-0.552-15.724 1.379-31.265 0.644-43.862-8.46-1.379 0.459-2.759 0.92-4.414 1.195-2.574 0.367-5.058 0.276-7.448-0.184-8.827 2.943-17.839 2.299-26.299-0.736-4.138 1.563-8.827 1.471-13.057 0.552-2.574-0.644-4.966-1.839-6.988-3.494-6.437 4.597-14.989 5.333-22.529 1.563-4.046 4.138-8.552 7.908-12.966 11.218-12.782 9.839-20.137 17.747-25.287 32.092-2.574 1.931-4.966 4.23-7.357 6.253-2.851 2.391-4.414 4.873-6.621 7.908-3.954 5.333-5.517 10.942-7.632 17.104-0.367 1.103-2.299 5.701-1.471 7.173 1.012 1.747 2.207 1.195 4.046 1.195 4.414-0.092 8.276 0 12.505-1.012 5.058-1.195 9.195-1.747 14.253-1.656 1.931 0 3.678 0.092 5.609-0.276 4.23-0.92 7.632-0.736 12.046-1.012 4.506-0.184 7.448-2.207 11.402-0.367 5.058 2.299 10.023 3.035 15.724 3.035 11.034-0.184 22.437 1.103 33.103-1.103 2.299-0.459 4.414-0.276 6.529 0.092 0.276 0.184 0.552 0.552 0.828 0.828 7.816 7.173 19.127 11.954 25.012 21.241 1.563 2.391 2.299 5.058 4.689 6.804 2.851 2.207 6.437 1.195 10.207 1.195 10.391 0 20.782-0.367 31.080 0 7.265 0.184 14.528 1.839 21.426 3.954 2.115 0.736 4.138 1.471 6.069 2.666 3.77 2.207 7.357 5.609 10.942 8.184 2.851 1.931 4.414 2.851 6.712 5.058 8.092 8 21.149 6.253 31.54 8.919 7.908 2.023 15.632 5.15 23.541 7.080 5.333 1.379 7.54 1.471 9.563 6.529 1.563 3.586 2.943 5.15 7.265 5.15 4.414 0.092 8.827 1.379 12.598 3.954 2.207 1.563 4.597 4.138 6.988 5.15 1.656 0.644 4.966 1.012 6.712 1.379 3.77 0.644 2.666 0.644 4.966 4.046 1.656 2.299 3.954 4.138 5.425 6.529 2.299 3.862 4.506 7.816 6.437 11.862 5.242-0.092 10.298-2.574 15.632-2.482 2.391 0 4.873-0.276 7.265 0.092 2.299 0.367 4.322 1.656 6.253 2.207 1.471 0.459 3.494-0.367 3.862 1.563 0.276 1.563-2.207 2.851-2.851 3.954-2.023 3.494-4.506 9.011-5.15 12.966 6.253 4.23 15.264 4.414 22.069 7.816 6.069 3.127 13.609 6.437 20.322 7.080 3.678 0.367 9.472 2.391 12.69 4.23 2.574 1.379 4.322 3.31 6.437 5.242 1.287 1.195 3.494 1.747 4.506 3.035 0.828 0.92 0.736 2.023 1.287 3.127 2.115 4.414 6.437 7.724 8.919 12.046 0.459 0.828 0.552 1.839 0.92 2.574 0.736 1.195 2.759 2.482 3.678 3.678 1.931 2.299 3.494 4.966 5.242 7.448 1.563 2.115 3.218 3.035 4.597 4.966 2.299 3.31 4.873 9.288 5.425 13.241 0.276 2.115-0.459 4.689 1.747 6.069 2.482 1.563 5.609-0.644 8-1.103s5.333 0.092 7.816 0.092c3.862 0 7.724-0.092 11.587-0.092 2.851 0.092 5.242 0.644 8 1.103 2.023 0.276 4.781-0.276 6.529 0.552-0.092 0.644-0.367 0.92-0.92 0.92 3.586 1.839 7.54 3.127 11.126 4.873 4.689 2.391 9.38 6.253 13.609 9.38 4.138 3.035 8.644 5.609 12.598 8.919 2.851 2.574 6.804 3.127 9.747 5.333 1.931 1.471 3.954 4.322 5.425 6.253 1.287 1.656 2.759 3.494 2.759 5.701-0.092 2.115-1.656 3.678-1.471 5.885 0.184 5.242 9.839 6.712 13.241 10.115 3.218 3.218 6.621 7.448 9.103 11.218 2.391 3.586 1.563 8.276 1.931 12.598 3.77 1.471 7.265 4.046 10.115 8.092 8.552 12.322 18.023 21.334 26.851 31.265 1.747 1.931 3.494 3.954 5.242 6.069 0.552 0.644 1.012 1.287 1.471 1.931z"></path>
    <path fill="#000000" d="M914.616 633.376c-0.276 1.103-0.736 2.115-1.103 3.127 0.092 0.276 0.184 0.459 0.276 0.736 0.184-1.195 0.459-2.391 0.828-3.862z"></path>
    <path fill="#000000" d="M926.855 774.342c-0.552-1.931-0.828-4.597-1.656-6.437-0.736-1.747-2.574-3.127-3.678-4.781-5.517-8.368-5.609-17.839-5.609-27.586 0-5.15 0.459-9.011-1.656-13.425-1.103-2.207-2.207-4.689-3.31-7.173-1.471-3.402-1.379-6.712-1.563-10.391-0.184-4.046-1.471-7.632-1.379-11.862 0.092-4.689-1.379-6.529-3.586-10.575-2.482-4.322-4.689-7.632-4.414-12.966 0.276-4.506 3.127-9.472 4.873-13.517 2.943-6.529 6.253-12.598 8.644-19.219-0.552-1.656-1.195-3.31-1.839-4.138-3.127-3.954-6.621-7.908-8.368-12.782-2.207-6.437-3.954-13.702-5.885-20.414-1.563-5.609-3.035-11.954-3.954-17.839-0.552-3.678-0.828-7.724-2.666-10.942 0 4.046 1.379 7.173 1.379 11.218-0.092 4.046 0 8.184 0 12.23v24.092c0 6.804 0.367 13.609 0.184 20.322-0.276 7.265-3.127 12.413-5.333 19.127-1.839 5.609-2.115 12.505-1.287 18.391 0.92 6.896 3.862 12.69 3.77 19.678-0.092 6.437-0.276 13.057-0.092 19.494 0.184 4.966 1.103 12.413 3.035 16.92 2.115 4.873 4.689 9.931 5.058 15.356 0.367 5.701 0.552 12.23-0.276 17.839-0.736 4.597-2.391 8.552-2.574 13.241-0.276 12.874 1.839 26.023-2.207 38.345-0.828 2.574-2.207 5.242-2.666 7.908-0.367 1.931 0 3.77-0.552 5.609-1.287 4.597-3.678 9.195-5.242 13.702-2.115 5.977-5.15 10.942-5.058 17.379 0 2.666 0 5.333 0 8 0 3.035-0.92 8.276 0.184 11.31 1.195 3.218 5.425 7.265 8.736 7.724 6.069 0.828 13.517 0.459 19.402-1.012 4.23-1.012 9.011-1.287 12.69-3.862 3.402-2.482 2.574-5.977 2.574-9.747 0-3.402 0.552-7.173 0.092-10.483-0.552-3.218-1.471-5.701-1.379-9.103 0-3.678 0-7.357 0-11.034-0.092-4.23 1.287-8 1.287-12.23 0-4.781 1.379-9.011 1.287-13.885 0-3.862 0.184-7.080 1.103-10.575 1.656-7.357 5.425-13.149 3.954-21.241-0.736-3.586-1.012-7.265-2.023-10.667z"></path>
    <path fill="#000000" d="M914.708 642.664c0.092-1.287-0.367-3.402-0.92-5.517-2.574 12.322 0.736 8.276 0.92 5.517z"></path>
    <path fill="#000000" d="M801.026 405.607c-1.471-4.414-4.414-9.103-3.954-13.885-0.644 14.897 2.851 18.115 3.954 20.506 1.287 2.482 2.666 5.333 3.954 8 1.103 2.391 1.931 4.781 2.759 7.265 0-0.367-0.092-0.736-0.092-1.103 0-7.54-4.23-13.793-6.621-20.782z"></path>
    <path fill="#000000" d="M824.851 492.411c0.276-10.298-5.058-18.85-6.621-28.689-0.459-2.759-0.276-2.851-1.563-5.977-2.574-5.793-2.574-12.23-5.058-18.115-1.656-4.046-2.666-8.184-3.954-12.23 0.092 6.437 0.552 13.057 0.184 19.494-0.367 7.816-3.31 16.552-5.15 24-0.92 3.586-0.92 8.552 0.644 11.954 0.828 1.747 1.656 3.218 2.299 5.15 1.012 2.574 1.195 5.793 2.023 8.276 0.736 2.023 1.471 4.506 2.759 6.345s2.207 2.482 2.574 4.689c0.092 0.367 0.092 0.828 0.092 1.195 0.459-2.023 1.931-2.943 4.046-4.781 4.414-3.77 7.54-5.425 7.724-11.31z"></path>
    <path fill="#000000" d="M813.044 508.503c-0.184 0.828-0.276 1.747-0.092 3.035 0-1.012 0.092-2.023 0.092-3.035z"></path>
    <path fill="#000000" d="M834.782 707.951c-1.103-3.31-1.656-5.701-2.115-9.195-0.459-2.759-0.736-5.977-1.471-8.644-0.92-3.218-2.391-5.242-2.391-8.919-0.092-3.31 0-6.621 0-9.839v-10.207c0-2.666 0.644-7.357-0.276-9.839-3.035 2.299-2.391 8.919-2.391 12.598 0 4.23 0.828 9.563 0.092 13.793-1.287 6.988-6.621 12.966-6.712 20.414l5.333-6.621c-0.644 3.494-3.127 7.080-4.414 10.391-1.103 2.943-0.644 3.678 0.092 6.804 0.552 1.931 0 3.862 0.459 5.793 0.459 2.115 1.195 2.851 1.195 5.517 0 2.207-0.459 5.058 0 7.173 0.644 3.127 0.92 2.574 4.23 2.574 4.046 0 4.506-0.092 7.357-3.035 1.103-1.103 2.574-2.023 3.035-3.494s0.092-4.414-0.184-5.977c-0.552-2.851-0.92-6.529-1.839-9.288z"></path>
    <path fill="#000000" d="M983.83 794.663c-9.839-12.598-5.425-28.414-8.736-42.85-0.736-3.31-3.31-5.793-4.966-8.736-2.666-4.414-6.161-9.655-7.724-14.62-1.103-3.586-1.471-6.253-1.563-10.023 0-0.092 0-0.184 0-0.276-0.092 7.357-0.092 14.712 0 22.069 0 6.804-1.195 14.62 1.287 2.759 1.012 6.069-2.299 14.712-3.954 20.506-2.115 7.724-3.31 15.632-7.173 22.805-2.299 4.23-3.862 7.080-3.494 11.954 0.276 3.31 2.115 10.023 5.609 11.77 3.402 1.747 11.034 0.276 15.081 0.276 2.666 0 5.793 0.459 8.368-0.184 7.265-2.115 12.23-9.103 7.265-15.448z"></path>
    <path fill="#000000" d="M959.434 709.055c0.184 3.218 1.195 5.977 1.379 9.103v-1.656c0-2.482 1.012-5.793-1.379-7.448z"></path>
    <path fill="#000000" d="M790.883 603.399c-1.103-5.242-3.127-10.115-4.781-15.172-0.828-2.391-1.471-3.035-2.482-4.966-1.563-2.851-2.023-6.161-2.943-9.288-1.839-5.609-3.862-11.31-4.597-17.104-0.459-3.77-0.828-7.54-1.563-11.31-1.103-5.058-0.828-10.298-2.207-15.264-0.644-2.574-1.103-5.15-2.115-7.724-1.839-4.873-5.058-8.736-6.161-13.793-0.552-2.482-1.195-4.414-1.287-6.988 0-1.747 1.012-5.242-1.012-5.793-1.287 3.218-0.092 7.632-0.552 11.034-0.736 5.885-2.391 11.31-2.391 17.196 0 4.781-1.195 11.587-0.092 16 0.552 2.023 1.931 2.115 2.666 3.954 0.644 1.563 0.092 4.322 0.092 5.977 0 3.035-1.287 9.747 2.666 3.954-0.092 2.851 0.092 5.609 0 8.46 0 4.966-1.656 8.644-2.482 13.425-0.459 2.851 0.092 5.517-0.092 8.368-0.276 3.402-1.471 6.988-2.759 10.023-3.127 7.908-3.77 16.092-1.012 24.092 1.839 5.242 6.437 10.115 7.448 15.908 1.195 6.437-3.402 11.31-4.781 17.287-1.287 5.242-0.276 11.402-0.276 16.827 0 2.574-0.276 5.242-0.092 7.724 0.184 2.299 1.379 4.046 2.023 5.977 1.379 3.77 1.471 17.379 7.816 13.425 2.115-1.379 5.885-4.046 6.896-6.253 1.012-2.023 0.367-4.689 0.644-6.896 1.287-8.644 5.977-15.632 8.552-23.632 2.023-6.161 4.873-11.034 7.080-16.92 1.471-4.046 3.862-7.265 4.689-11.218 0.92-4.597-2.482-10.391-4.046-15.172-1.195-3.954-2.023-8.092-2.851-12.138z"></path>
    <path fill="#000000" d="M695.582 170.296c2.299 1.931 4.506 3.218 6.712 5.333 2.207 2.023 5.058 3.77 7.632 5.609 2.391 1.839 4.597 3.586 7.080 5.242 3.77 2.482 7.357 5.609 11.126 8.276 3.218 2.391 5.701 2.759 9.563 3.586 1.563 0.367 2.943 1.195 4.322 2.115 0.184 0.367 0.276 0.828 0.459 1.287 0.644 1.931 0.552 3.127 0.92 5.15 0.276 1.656 0.828 3.954 1.379 5.517 0.184 0.459 1.287 3.402 1.563 3.586 1.287 0.92 3.494 0.092 4.873 0.184 2.391 0.184 5.058 1.012 7.265 1.747 1.287 0.459 2.759 1.103 3.862 1.839 1.379 1.103 1.195 2.943 3.31 3.035 0.644-1.471 0.276-3.31 0.552-4.873 0.276-2.115 1.195-4.689 2.023-6.712 1.379-3.678 4.046-6.161 6.069-9.472 2.482-4.046 7.080-8.46 7.908-13.149 0.367-2.115 0.092-3.402 1.287-5.425 0.276-0.459 4.414-6.161 4.046-6.253-2.482-0.552-4.046-0.92-5.517-3.127-2.115-3.127-3.494-6.437-5.885-9.563-2.759-3.678-5.701-7.632-8.276-11.495-1.379-2.023-2.851-5.517-4.966-6.988-1.287-0.92-2.666-0.644-4.322-0.828-3.218-0.276-6.345-0.736-9.472-1.839-5.517-1.747-11.31-5.517-16-9.103-1.379-1.103-2.207-1.747-3.862-2.207-0.828-0.184-1.747 0.092-2.574 0-0.828-0.184-1.012-1.379-2.023-1.379-3.586-0.184-6.712 6.712-8.736 8.736-1.931 1.931-4.046 2.943-5.885 5.15-2.666 3.494-4.23 6.804-6.161 9.747-2.023 0.459-4.046 0.828-6.253 0.828-3.678 0-4.506-0.367-6.988 2.482-1.839 2.207-2.482 3.678-1.656 6.437 3.31-0.092 4.322 4.689 6.621 6.529z"></path>
    </svg>