<svg xmlns="http://www.w3.org/2000/svg" viewBox="-48.100 -48.003 1117.346 1120.309">
    <path fill="#000000" d="M685.981 465.212c0.081 0.642 0.16 1.365 0.16 2.088 0.241-0.562 0.482-1.124 0.723-1.606-0.322-0.16-0.642-0.322-0.883-0.482z"></path>
    <path fill="#000000" d="M259.837 665.112c-2.329 3.614-5.14 8.192-5.622 12.288-0.642 5.060 0 11.083 0.081 16.143 0.16 9.236-2.249 17.75-8.513 24.978-3.454 4.015-7.147 7.068-9.959 11.806-1.847 3.132-3.373 6.666-5.381 9.637-0.401 0.482-0.883 1.044-1.446 1.606-3.373-2.168-7.068-3.774-11.726-4.177-4.979-0.322-9.878 0.241-14.697 1.446-10.521 2.731-20.319 2.811-31.162 3.213-6.184 0.241-9.156 0.723-14.938-0.482-7.068-1.446-14.055-1.205-21.123 0-3.132 0.482-6.666 1.847-9.718 2.008-2.49 0.16-4.819-0.883-7.228-0.803-9.557 0.081-19.597-1.124-29.234 0.16-2.008 0.241-4.096 0.803-6.184 1.446 4.497-1.927 9.075-3.855 13.573-5.863 7.147-2.972 12.368-7.228 18.472-11.646 10.601-7.71 21.443-16.384 29.957-26.503 4.578-5.381 8.433-11.405 12.931-16.866 3.614-4.497 5.863-9.798 9.156-14.456 4.738-6.666 10.36-12.77 15.661-19.034 4.658-5.542 8.192-10.521 12.208-16.545 4.096-6.425 10.119-11.967 14.938-17.991 3.533-4.417 6.746-8.352 9.316-13.413 0.241-0.562 0.401-1.124 0.723-1.687 7.629 9.316 12.529 19.757 18.633 31.081 3.936 7.147 9.397 15.26 15.822 20.4 3.614 2.811 6.586 5.943 9.637 9.075-1.606 0.964-2.891 2.249-4.177 4.177zM247.388 575.563c8.593-3.695 12.77-8.674 17.669-15.26 0.964 1.606 1.927 3.213 3.052 4.819 3.695 5.863 8.834 9.718 12.529 15.501 1.526 2.409 2.972 5.542 4.899 7.71 1.687 1.927 3.292 2.088 4.979 3.695 2.008 1.847 5.863 7.71 6.746 10.28 0.482 1.606-0.322 2.731 0.081 4.256 1.124 3.533 3.936 8.433 5.702 11.967 1.767 3.695 4.256 7.309 6.666 10.842-2.008 3.614-4.256 7.309-5.943 10.682-2.249 4.337-5.14 8.674-6.907 13.252-6.907-5.301-13.814-9.959-19.998-16.063-6.264-6.184-13.974-11.324-20.721-16.946-5.060-4.096-11.726-7.87-16.063-12.529-5.22-5.702-8.674-14.136-12.609-21.202 5.542-4.578 13.492-8.192 19.918-11.003zM293.809 543.919c2.972 2.891 5.782 6.425 9.156 8.754 3.695 2.57 9.397 8.352 14.215 6.746 2.811-0.883 6.264-5.943 8.352-8.032 4.015-4.096 7.951-8.513 12.288-12.368 0.482 1.606 0.964 3.213 1.606 4.738 1.767 4.096 3.454 8.032 4.899 12.208-0.642 1.124-1.365 2.249-1.927 3.454-4.417 8.995-10.762 16.705-15.34 25.78-1.205 2.409-2.49 4.819-3.695 7.228-2.329-2.65-4.819-5.22-7.629-7.309-2.731-2.088-5.22-3.373-7.309-6.023-2.891-3.533-5.22-8.032-7.71-11.887-5.060-7.791-10.119-15.501-15.179-23.291v-0.081c1.205-1.285 2.249-2.731 3.292-4.256 1.606 1.526 3.454 2.972 4.979 4.337zM354.767 593.553c0.401 1.285 0.803 2.57 1.365 3.855 3.454 9.959 8.272 17.75 16.143 23.532-0.081 0.964-0.16 2.008-0.241 2.972 0 1.446 0 2.891 0 4.256-0.964 1.847-2.168 3.533-3.614 4.738-0.322 0.322-0.723 0.401-1.044 0.642-6.264-5.542-13.172-10.119-20.48-14.215 0.401-1.606 0.642-3.454 1.044-5.702 0.883-5.381 3.292-10.842 5.060-16.223 0.482-1.365 1.044-2.65 1.767-3.855zM306.579 685.673c12.931 0.16 18.472-10.28 24.576-20.882-0.562-2.891-1.124-5.702-1.285-8.513-0.16-2.249 0.241-4.819 0.883-7.309 0.322 0.16 0.562 0.401 0.883 0.642 2.49 1.526 5.301 1.927 7.71 3.132 0.803-0.803 1.606-1.606 2.409-2.409 0.401-0.401 0.964-0.723 1.365-1.124 3.373 3.533 7.71 5.782 13.654 5.943 4.578 0.081 7.309 0.562 11.565 1.526 4.658 1.124 9.236-0.241 13.814 0.401 5.060 0.723 5.542 3.213 10.2-1.446 2.891-2.972 3.533-6.425 5.943-9.878 3.614-5.301 7.388-9.397 9.798-15.661 1.687-4.337 3.774-9.397 4.578-13.974 0.562-3.213 0.803-11.405-0.241-14.456-0.562-1.606-1.285-2.731-2.008-3.855 2.249-2.65 4.578-5.14 7.068-7.55-1.606-1.687-3.292-3.132-4.497-5.22-1.044-1.927-1.847-4.015-2.49-6.023 0-0.964-0.081-2.008-0.16-2.891-0.642-13.172 1.687-25.78 4.417-38.631 0.482-2.329 1.285-3.614 1.285-6.104 0.081-1.205-0.081-2.329-0.16-3.614 1.767-3.373 3.533-6.746 4.979-10.842 0.241-0.642 0.401-1.285 0.562-1.927 0.241-0.401 0.482-0.803 0.723-1.205 0.322-0.562 0.803-1.285 1.124-2.008 2.811-3.614 5.622-7.388 8.433-11.164-1.124-0.562-2.249-1.044-3.454-1.526-6.345-2.811-13.814-6.425-21.042-5.301-4.015 0.723-2.409 2.168-7.87-0.322-4.658-2.008-8.192-5.301-13.413-4.497-4.497 2.409-8.834 5.14-13.091 8.032-1.687 7.068-1.847 13.814 0.081 20.801-1.365 1.285-2.811 2.49-4.096 3.855-0.723 0.803-1.285 1.606-2.008 2.329-1.285-4.738-2.811-9.316-4.578-13.895-0.562-1.606-1.044-3.292-1.205-5.14-1.927 1.606-3.774 3.373-5.461 5.381-4.337 6.104-9.236 11.646-14.858 16.464-2.891 0.16-5.702 0.401-8.111 0.401h-10.441c-2.249 0-4.738 0.241-6.987 0.081-3.052-0.16-6.023-1.767-8.995-1.767-2.49 0.081-4.738 2.891-7.388 1.927-2.409-0.883-1.044-1.927-2.329-3.695-1.365-0.562-2.49-1.526-3.132-2.972-0.322-1.044-0.642-2.168-0.964-3.213-1.847-2.891-3.936-3.855-6.184-6.264-3.373 1.767-5.702 1.124-9.637 1.687-3.695 0.482-2.088-0.562-4.015 1.927-0.642 0.803-1.927 5.14-2.168 6.264-0.322 1.927 0.723 4.015 0.322 5.943-0.642 3.213-3.695 5.14-4.497 8.352-0.322 1.526 0.322 3.373 0.081 4.899-0.081 0.723-0.322 1.285-0.482 1.847-4.578 3.533-8.754 7.469-11.887 10.28-8.433 7.388-15.902 19.195-25.138 25.138-5.622 3.614-13.814 4.658-20.319 5.943-5.943 0.642-11.726 1.767-17.428 3.454-2.891 6.425-5.863 13.332-9.878 18.713-7.791 10.521-11.485 18.954-11.887 32.125-0.081 4.738 0.241 6.907-1.927 10.923-2.409 4.096-3.373 5.381-7.068 8.754-3.855 3.774-7.71 6.987-11.806 10.441-8.674 7.469-15.501 15.26-22.648 24.174-4.177 5.381-8.754 9.477-13.492 14.377-4.015 4.256-4.738 6.827-9.397 9.718-9.236 5.542-18.151 12.609-27.146 18.633-4.337 2.891-8.192 6.023-10.842 10.601-0.964 1.847-1.767 3.936-2.409 5.863-0.322 1.124-0.241 1.847-0.482 2.811 1.044-0.081 2.008-0.081 3.213 0 4.899 0.322 9.637 0.883 14.858 1.365 7.228 0.642 14.296 2.088 21.202 0.723 4.979-0.883 9.477 0.401 14.778 1.365 24.576 4.578 48.429 10.762 73.246 13.332 7.228-4.819 16.304-7.388 24.496-8.192 6.746-0.723 14.858 1.927 22.889 4.819 1.526-3.614 2.57-7.309 3.454-11.083 0.322 0 0.642 0 0.883-0.081 4.337-0.883 8.915-4.899 11.967-7.87 4.417-4.337 7.951-7.87 7.388-14.296-0.322-4.819-2.249-8.111-2.088-13.172 0.482-15.661 16.464-24.255 27.547-32.447 2.249-1.687 5.782-3.855 9.156-6.425 3.533 1.767 7.228 3.373 11.565 3.454z"></path>
    <path fill="#000000" d="M54.795 399.355c4.819 0.883 9.718 1.687 14.537 2.57 7.629 1.365 14.215 0.642 21.846 0.241 13.091-0.642 26.985-2.008 39.594-5.782 6.907-2.088 13.252-4.979 19.998-7.228 5.542-1.687 10.28-4.979 15.661-7.068 7.629-2.972 15.661-5.060 23.452-7.388 6.987-2.088 12.609-4.337 19.275-7.147 2.65-1.205 5.542-2.088 8.513-2.972 1.606 12.449-0.081 24.255-1.124 37.507-0.642 8.111-0.482 17.91 2.088 25.701 2.249 6.907 3.052 13.654 4.658 20.56 0.883 3.936 2.972 7.791 4.497 11.726 3.454 8.272 6.666 16.705 10.842 24.656-3.292 2.891-6.666 5.542-9.718 8.593-2.49 2.57-4.337 5.461-6.666 8.111-4.417 5.14-10.441 8.272-15.099 12.931-1.044 1.124-2.249 2.329-3.373 3.454-6.023-7.629-11.967-15.42-17.428-23.773-6.023-9.236-5.863-20.078-15.26-27.226-3.936-3.052-8.433-5.14-13.091-6.746-10.28-3.614-18.552-8.834-27.869-14.377-5.381-3.213-8.032-4.417-12.208-8.593-5.14-5.060-11.164-8.593-17.75-11.565-2.891-1.285-6.586-2.008-9.316-3.614-2.088-1.285-3.454-3.292-5.542-4.578-8.032-5.22-15.742-11.565-24.576-15.822-1.847-0.883-3.855-1.606-5.943-2.168zM208.034 183.231c-0.803-2.329-0.562-4.819-1.285-7.147-2.891-9.075-4.658-19.034-8.674-27.949-0.883-1.847-1.927-3.695-3.132-5.461 3.132 3.774 6.264 7.55 9.397 11.324 4.979 5.943 10.521 9.637 16.545 14.296 10.521 7.791 22.006 15.742 34.133 20.962 6.586 2.811 13.413 4.738 19.918 7.388 5.301 2.168 11.083 2.731 16.545 4.497 7.71 2.65 15.179 6.184 22.648 9.477 6.666 2.972 12.529 4.819 19.436 6.907 7.309 2.168 14.296 6.345 21.524 9.075 3.533 1.446 6.987 2.65 10.521 3.614-4.979 5.542-10.441 10.682-16.063 16.464-5.782 5.782-11.887 13.413-14.938 21.042-2.65 6.746-6.425 12.368-9.557 18.633-1.847 3.695-2.811 7.951-4.096 11.967-1.687 5.14-3.373 10.28-4.979 15.501-5.943 0.322-11.887-0.081-17.829 0.401-3.533 0.322-6.827 1.365-10.36 1.927-6.586 1.124-13.252-0.322-19.918 0.241-6.586 0.562-14.136 1.365-20.721 2.49-4.015 0.642-8.593 3.052-12.047 5.14-0.642 0.401-1.365 0.964-2.088 1.365 0.241-8.513 0.803-16.946 1.767-25.62 1.285-10.842 8.433-19.115 5.863-30.68-1.205-4.819-3.132-9.316-5.702-13.573-5.622-9.316-8.513-18.633-12.127-28.912-2.008-5.782-3.292-8.513-3.855-14.377-0.642-7.228-2.972-13.814-6.104-20.319-1.365-2.811-3.695-5.702-4.819-8.674zM379.986 232.303c2.168 0.16 4.337 0.482 6.184 1.526 2.168 1.205 4.256 2.891 6.264 4.658 0.081 6.505-0.241 12.931-2.57 18.954-1.044 2.57-3.052 4.899-4.819 6.987-1.365 1.606-2.811 3.855-4.899 4.738-1.767 0.803-3.695-0.081-5.060 1.526-3.052 3.454 8.674 9.637 11.565 12.529 2.49 2.409 6.023 5.22 7.309 8.674 1.124 2.891 0.401 6.987 0.401 10.119 0 0.16 0 0.322 0 0.482-0.883 0.322-1.687 0.562-2.731 0.562-7.228-0.081-15.34-2.811-22.488-4.015-6.184-1.124-12.85-3.373-19.034-2.731 1.446-3.855 3.132-7.629 5.060-11.324 4.096-7.87 6.746-16.705 10.119-24.817 2.49-5.943 4.096-13.413 7.388-18.954 1.847-3.132 4.497-6.104 7.309-8.915zM422.793 331.008c3.695-1.124 6.666-3.774 10.039-4.738 2.49-0.723 6.586-0.081 9.236 0.081 3.695 0.16 5.461 2.168 8.834 2.409 0.723 8.111-10.601 8.272-15.019 11.726-2.088 1.606-3.855 4.177-5.14 7.147-2.891 2.008-5.782 4.015-8.433 5.943-6.666 4.819-11.806 10.119-15.26 16.545-0.482 0.081-0.883 0.081-1.285 0.16 1.526-4.658 2.811-9.477 3.855-14.377 1.606-7.469 8.352-14.778 13.413-21.684-0.723-0.964-1.205-1.847-1.847-2.811 0.562-0.16 1.044-0.322 1.606-0.401zM395.566 411.643v-0.081c0.081 0 0.081-0.081 0.16-0.081-0.081 0.081-0.081 0.081-0.16 0.16zM358.543 440.315c-2.972 7.55-4.899 13.814-13.895 13.974-1.687 0-4.256-0.401-6.907-1.205 0.642-1.044 1.285-2.168 1.927-3.292 1.446-2.168 3.052-4.177 4.738-5.943-1.446-5.943-1.365-13.011-1.767-19.436 3.614-1.606 7.629-2.57 11.485-4.096 1.446-0.562 2.972-1.044 4.417-1.526-0.642 2.329-1.205 4.658-1.767 6.907-0.723 2.972-1.285 6.023-1.526 8.834 3.774-3.373 7.791-6.586 11.967-9.557 0.723-0.241 1.365-0.16 2.088-0.241-6.425 4.015-8.433 9.878-10.762 15.581zM381.191 338.878c-1.927 3.936-3.774 7.147-4.979 11.565-0.723 2.891-0.241 5.863-0.883 8.674-0.883 4.177-2.49 8.352-3.213 12.609-0.401 2.65-0.883 5.14-1.365 7.71-7.228 2.891-14.215 6.104-20.801 10.119-4.256 2.57-8.754 4.578-13.332 6.586-0.16-0.642-0.401-1.205-0.482-1.847-0.562-4.578 0.081-9.637 0.081-14.296v-27.708c0-3.533-0.241-7.309-0.322-11.003 2.168-0.803 4.417-1.606 6.586-2.65 6.184-3.132 12.368-7.388 18.874-9.878 3.855-1.606 9.477-1.285 13.654-1.606 3.936-0.241 6.586 1.044 9.557 2.731-1.526 2.811-1.606 5.702-3.373 8.995zM306.82 412.124c-2.65 1.526-7.147 3.213-9.236 5.542-1.927 2.088-1.687 4.899-4.256 7.068-5.542 4.578-13.573 7.629-19.757 11.324-7.629 4.337-17.268 7.629-19.998 16.384-3.052-8.272-6.264-16.063-8.111-24.656s-5.542-17.027-8.192-25.539c-1.847-6.104-5.461-12.931-6.505-19.195-1.205-6.907 0.081-14.938 0.803-22.407 5.381-1.767 10.2-3.454 15.099-6.184 4.497-2.65 8.192-7.228 13.252-8.272 7.469-1.365 17.187 0.241 24.737 1.526 10.36 1.767 16.946-0.883 26.021-4.337-0.401 5.622-0.642 11.244-0.723 17.107-0.081 6.907 2.168 13.011 2.088 19.837 0 2.891-0.482 6.264-0.081 9.156 0.322 2.49 1.606 3.533 2.088 5.863 0.723 2.57 0.723 9.557 0 12.288 0 0.081-0.081 0.241-0.16 0.401-2.329 1.446-4.738 2.731-7.068 4.096zM75.276 428.589c19.356 18.311 37.025 37.908 58.147 54.292 5.702 4.417 10.039 11.324 16.063 15.179 5.301 3.373 11.083 6.425 15.34 10.039 1.285 1.124 2.811 3.292 4.256 4.658 1.526 1.446 2.57 2.57 3.774 4.177 3.373 4.658 6.264 9.557 9.316 14.377 1.687 2.49 3.855 4.417 6.345 6.023-0.562 1.365-1.124 2.811-1.526 4.015-0.562 1.365-1.044 2.891-1.446 4.417 5.461-2.409 11.083-4.177 16.866-5.542 6.264-2.008 14.296-4.096 19.436-8.352 8.433-6.987 14.456-19.597 21.925-28.029 5.542-6.184 14.778-17.669 23.532-20.721 3.373-0.401 6.666-0.401 9.959-0.16 0.482 0 0.964-0.081 1.526-0.081 2.65-6.104 4.578-13.172 7.87-19.115 2.008-3.695 6.425-7.068 9.477-9.878 4.096-4.015 8.192-3.695 13.573-5.22 0.642-0.16 1.124-0.322 1.687-0.401 0.723 1.687 1.606 3.373 2.168 5.622 0.482 2.329 0.964 4.417 1.526 6.505-0.16 5.542-0.322 11.164-0.081 16.705 0.401 7.87 5.702 11.324 11.806 7.388 4.096-2.65 15.019-12.77 19.597-10.762 2.329 1.044 2.008 4.337 4.899 4.658 2.088-6.264-2.168-14.296 6.425-17.75 4.819-1.927 12.368 2.57 14.377-4.256 1.767-6.184-1.847-13.252 0.964-19.356 1.606-3.614 4.979-6.264 7.629-9.316 0.16 0.081 0.241 0.081 0.401 0.16 5.702 1.767 3.936 0.482 7.87-0.642 6.987-2.008 14.858 0.723 21.524 2.65 1.205 0.401 2.409 0.723 3.533 1.205 0.482-0.723 0.964-1.526 1.365-2.329 0.081-0.081 0.241-0.241 0.241-0.401 1.767-2.249 3.533-4.497 5.381-6.264 5.14-5.14 10.2-11.083 16.223-15.34 4.738-1.927 9.316-3.774 13.654-5.381 5.702-2.088 11.324-4.177 17.027-6.184 2.008-0.723 3.936-1.365 5.863-1.927-0.16-0.081-0.16-0.241-0.16-0.322-4.337-8.272 1.767-4.177-8.111-14.296-6.023-6.264-12.368-12.047-18.552-17.991 4.337-2.65 7.951-6.827 10.441-12.208 2.972-6.746 6.104-14.296 8.032-21.042 0.642-2.409 5.22-11.324 4.256-13.492-1.124-2.329-9.236-3.213-12.208-4.256-8.352-2.731-16.384-3.373-24.817-5.14-3.774-0.803-7.147-1.446-10.923-2.731-3.695-1.285-9.878-1.285-12.127-4.738-2.088-3.213-1.124-7.629-2.57-11.324-1.606-3.855-4.015-6.586-5.782-10.119-2.409-4.899 3.052-9.718 6.827-12.77 3.936-3.052 3.614-3.533 4.738-8.352 0.642-2.972 2.329-6.666 3.292-10.119 1.365-5.060 3.695-11.887 2.65-17.428-1.285-6.907-6.104-10.28-11.967-13.091 0.081-0.241 0.16-0.482 0.241-0.723-1.767-1.285-3.614-2.409-5.461-3.614 2.088-2.249 4.096-4.658 6.104-6.907-0.401-4.015-1.847-7.87-4.337-12.127-2.329-3.855-4.819-7.791-7.309-11.806-1.365 1.285-2.811 2.49-4.177 3.774-3.774 3.454-5.622 8.352-6.987 13.172-0.562 1.847-1.285 3.695-2.008 5.542-0.482 0-1.044-0.16-1.446-0.241-8.272-1.285-17.509-1.767-25.46-4.658-12.288-4.337-21.364-5.461-34.053-1.927-4.578 1.205-6.586 2.168-11.003 1.205-4.738-1.044-6.184-1.687-10.521-4.096-4.738-2.65-8.834-5.461-13.492-8.352-9.557-6.104-19.034-10.36-29.635-14.537-6.345-2.49-11.646-5.702-17.669-8.754-5.14-2.57-7.951-2.57-11.967-6.184-8.032-7.309-17.428-13.654-25.78-20.641-4.096-3.292-8.111-6.023-13.332-7.147-2.008-0.401-4.256-0.642-6.345-0.642-1.124-0.081-1.847 0.322-2.731 0.322 0.322 0.964 0.723 1.927 0.883 3.052 1.124 4.819 2.008 9.557 3.052 14.617 1.446 7.147 2.168 14.296 5.461 20.48 2.329 4.497 2.409 9.236 2.972 14.617 3.052 26.503 3.855 52.846 9.557 78.949 1.526 7.068 0.482 15.179 2.65 22.006 1.767 5.943 4.337 12.047 5.22 17.509 0.322 1.687 0 4.337 0.322 6.345 0.241 2.088 0.322 3.614 0.241 5.622-0.482 5.782-1.365 11.405-2.088 17.027-0.562 4.177 0.562 8.352 2.168 12.288-10.601 4.256-17.75 9.316-24.656 19.195-2.65 3.936-3.533 5.943-7.55 8.032-4.256 2.249-5.863 2.731-10.762 3.614-5.301 0.964-10.2 1.526-15.661 2.249-11.244 1.446-21.283 4.337-32.046 7.951-6.505 2.168-12.609 3.052-19.115 4.658-5.702 1.365-7.87 3.132-13.252 2.972-10.762-0.401-22.087 0.642-33.009 0.723-5.22 0.081-10.039 0.642-14.778 3.052-1.847 0.964-3.695 2.329-5.301 3.614-0.883 0.642-1.124 1.446-1.847 2.008 0.883 0.482 1.687 1.044 2.731 1.767 3.855 3.052 7.55 6.023 11.646 9.236 5.702 4.578 10.762 9.557 17.347 12.288 4.658 1.927 7.71 5.461 11.646 9.236z"></path>
    <path fill="#000000" d="M884.677 534.362c-5.14 4.417-9.557 9.316-14.537 13.733-4.096 3.614-19.195-18.472-23.050-14.617-5.381 5.461-11.565 10.28-17.347 15.179-5.301 4.417-9.316 8.433-13.814 13.492-3.454 3.695-7.71 6.907-11.726 10.119-6.987-11.164-9.798-23.211-13.895-36.382-0.241-0.803-0.642-1.687-0.883-2.57 0.642 0 1.205 0 1.847 0 7.791 0 15.661-0.723 23.291-1.927 1.767-0.322 3.774-1.687 5.14-1.767 2.329-0.081 5.702 1.285 8.192 1.526 5.14 0.401 10.28 0.241 15.501 0.241 6.827-0.081 15.501 1.365 21.846-1.526 5.702-2.65 11.244-5.542 17.347-6.666 4.256-0.803 7.791-3.213 12.047-4.578 6.505-2.008 13.492-2.409 20.319-3.373-10.441 5.301-21.283 11.485-30.278 19.115zM841.95 678.846c2.65 3.855 5.943 7.068 9.557 9.878 8.032 6.104 13.733 13.252 20.4 20.962 3.774 4.417 5.782 6.264 8.272 11.244 3.132 6.104 7.388 11.083 12.208 15.581 2.249 2.008 5.22 3.695 7.147 5.943 1.526 1.687 2.168 4.015 3.614 5.782 5.622 6.987 10.601 15.019 17.107 21.283 1.365 1.365 2.891 2.57 4.578 3.695-4.015-2.168-7.951-4.337-11.967-6.425-6.264-3.373-12.288-4.658-19.034-6.425-11.646-3.052-24.174-5.782-36.221-5.782-6.586-0.081-13.011 0.723-19.516 0.803-5.301 0-10.36 1.687-15.661 2.088-7.469 0.642-15.019 0.16-22.568 0.081-6.666 0-12.208 0.401-18.793 1.205-5.863 0.723-37.828-17.027-43.931-17.187 3.936-10.842 34.776-4.658 38.551-17.669 0.322-0.964-15.501-6.425-15.661-7.388-1.205-10.039 1.205-18.874 1.446-28.431-1.044-9.557-11.164-31.965-12.288-41.522 3.213-1.446 6.586-2.811 9.718-4.578 2.891-1.606 5.301-3.695 8.111-5.542 5.22-3.454 11.405-4.578 16.786-7.469 5.461-2.972 11.565-6.586 16.786-9.959 1.526-1.044 3.052-2.409 4.417-3.936 2.008 5.702 3.855 11.565 5.461 17.588 2.65 10.039 25.298 37.025 31.483 46.18zM729.832 591.144c-0.964-2.65-1.767-5.782-3.132-8.192-1.205-2.088-2.57-2.49-3.855-4.337-1.526-2.088-3.936-8.192-4.256-10.762-0.241-1.606 0.723-2.49 0.562-4.015-0.081-0.642-0.16-1.285-0.322-2.008 1.526-1.767 3.052-3.695 3.695-5.542 0.803-2.49-0.241-4.979 1.124-7.791 1.124-2.168 2.57-4.256 4.096-6.264 0.401 0.482 0.883 0.964 1.446 1.124 1.606 0.482 3.695-2.008 4.979-2.891 4.177-2.891 10.521-5.22 15.26-6.345 4.738-1.044 9.637-1.124 14.537-0.964 2.972 3.373 5.943 6.746 8.674 10.2 3.695 4.658 9.156 9.316 12.288 14.537 4.015 6.827 5.702 16.545 8.352 24.174-1.606 1.767-3.213 3.454-4.658 5.461-2.891 3.936-4.417 9.397-8.433 12.127-5.863 4.015-14.617 6.184-21.443 7.87-7.629 1.847-12.047 5.22-16.866 9.718-1.044-3.132-2.168-6.264-3.373-9.557-2.409-6.023-6.345-10.601-8.674-16.545zM726.861 735.949c-0.322 2.008-0.803 4.015-1.365 6.023-2.249 0.16-4.417 0.482-6.586 1.044-4.658 1.124-9.156 4.256-13.974 3.774-6.827-0.803-14.938-5.060-21.123-8.352-6.425-3.373-11.565-3.936-17.428-3.774 1.446-5.782 1.446-11.405 3.292-17.027 0.883-2.731 2.168-5.622 2.65-8.352 0.401-2.409-0.482-3.774-0.241-5.943 0.16-2.409 1.847-8.032 3.052-10.601 1.044-0.241 2.008-0.562 2.65-1.124 2.249-1.365 2.891-4.015 5.702-5.14 6.104-2.65 14.055-3.213 20.4-4.819 8.192-1.847 17.829-2.088 22.648-10.039 0.241 6.425 0.562 12.85-0.081 19.356-0.803 8.433 0.081 17.187 0 25.62 0 6.104 1.285 13.332 0.401 19.356zM700.116 810.882c-4.177 9.477-12.69 15.019-13.654 26.262-0.401 4.738 0.241 9.397 1.205 13.974 2.329 10.119 3.533 26.423 3.774 36.864 0.16 5.863 0.562 8.674-0.642 14.215-1.365 6.746-1.285 13.413-0.241 20.159 0.322 3.052 1.606 6.425 1.687 9.397 0.081 2.249-0.803 4.497-0.803 6.827-0.081 9.075-1.285 18.633-0.16 27.869 0.16 2.008 0.642 3.936 1.205 5.943-1.767-4.337-3.454-8.674-5.14-13.011-2.731-6.827-6.505-11.806-10.521-17.588-6.987-10.2-14.778-20.641-23.933-28.833-4.979-4.417-10.36-8.111-15.34-12.368-4.096-3.533-8.915-5.622-13.252-8.834-6.023-4.578-12.77-16.946-18.392-22.006-5.060-4.578-9.557-7.951-15.019-11.726-5.782-4.015-10.842-9.718-16.223-14.296 7.71-5.702 16.063-9.798 24.978-14.778 6.666-3.695 14.215-8.915 18.874-15.019 4.256-5.381 9.156-9.477 13.733-14.377 2.57-2.811 4.578-6.425 6.827-9.718 5.782-8.513 11.967-16.866 16.464-26.262l0.16-0.401c2.249 0.723 4.578 1.446 6.987 2.008 3.213 0.723 6.345 0.642 9.637 1.124 6.023 0.883 11.405 4.096 17.347 5.381 5.943 1.446 12.85 2.731 18.874 3.614 1.446 0.16 2.972 0.081 4.497 0-3.936 11.887-7.791 23.773-12.931 35.579zM564.547 836.021c-0.803-0.482-1.526-0.883-2.249-1.365-4.177-2.168-9.557-2.811-12.931-6.425-1.365-1.526-2.65-3.373-3.855-5.301 0.081 1.365 0.241 2.731 0.482 4.096 0.241 2.249 0.562 4.819 0.803 7.55-1.365-0.964-2.731-2.008-3.774-3.292-1.365-1.687-1.526-4.177-2.891-5.782-1.606-1.767-4.015-1.847-5.381-3.855-2.329-3.454-2.972-11.244-2.168-15.099 0.883-4.578 2.65-8.834 3.855-13.332 1.927-6.987 4.899-13.011 10.039-18.793 5.702-6.586 15.581-11.565 19.998-19.195 0.322-0.16 0.723-0.401 0.964-0.562 3.213-1.526 6.345-3.695 9.397-5.782 0.322 0 0.642 0 1.044 0.16 6.184 2.008 12.609 6.827 18.472 9.959 7.71 4.177 15.581 11.003 24.656 6.907 2.329-1.124 1.847-2.65 5.542-4.096 1.606-0.642 3.533-1.124 5.461-1.526-3.052 4.417-7.388 7.629-10.842 11.967-5.542 7.228-10.762 14.778-16.946 21.443-5.22 5.702-9.718 12.449-14.617 18.472-3.774 4.658-7.228 11.083-11.646 15.179-3.774 3.454-8.674 6.104-13.413 8.674zM526.317 801.566c0.081-2.972 0.401-5.461 1.927-8.352 0.883-1.526 1.847-2.811 2.972-4.177-1.124 4.337-2.811 8.513-4.899 12.529zM566.313 716.273c-0.16 0.803-0.322 1.606-0.401 2.409l-8.192 17.027c-2.731 2.891-5.461 5.782-7.87 9.075v-0.081c3.052-5.301 3.614-11.244 3.292-17.347 5.060-4.256 10.762-9.075 13.172-11.083zM566.554 714.987c-2.891-1.044-5.863-2.249-8.754-3.213-1.927-0.642-3.533-1.606-5.060-2.811 2.329-0.723 4.658-1.526 6.827-2.249 2.49-0.964 4.819-2.008 7.068-3.052 0.081 0 0.081 0 0.16 0 0.562 3.614 0.562 7.309-0.241 11.324zM596.431 727.437c1.446-2.329 1.847-5.22 3.132-7.629 1.927-3.614 4.417-6.907 6.345-10.601 0.562-1.285 1.285-2.49 1.927-3.855 5.542-0.642 11.003-1.446 16.304-2.811 8.915-2.249 18.151-2.249 27.307-4.417 0.322-0.081 0.723-0.241 1.124-0.322 0 0.081 0 0.16-0.081 0.241-0.803 4.337-2.65 8.754-4.015 13.011-2.008 6.345-3.855 12.77-5.863 19.195-3.855-0.803-7.87-0.482-11.887 0.241-6.345 0.964-13.011 3.132-19.275 3.695-3.855 0.241-8.674-1.606-12.368-2.49-1.687-0.401-2.972-1.124-4.177-2.008 0.482-0.723 1.044-1.446 1.526-2.249zM634.339 664.229c4.578-7.629 7.228-15.099 7.388-23.13 5.301-2.811 10.601-5.702 15.42-9.477 0.241 4.738 0.883 9.316 1.687 13.895 1.205 6.586-1.365 14.537-3.292 21.846-4.015 1.847-8.513 3.213-12.529 5.060-0.322 0.081-0.723 0.241-1.044 0.241l-13.091 0.642c1.927-3.052 3.774-6.184 5.461-9.075zM667.91 536.611c0.16-0.401 0.241-0.803 0.241-1.205 2.811 2.811 5.702 5.542 8.754 8.111 4.337 3.614 7.068 9.959 9.798 16.063-0.723 1.124-1.285 2.249-1.927 3.373-1.285 2.329-2.972 4.256-4.819 6.104-0.241-1.606-0.401-3.132-0.642-4.658-1.526-10.601-4.819-19.195-11.806-26.262 0.081-0.482 0.322-1.044 0.401-1.526zM701.964 584.076c0.883 1.044 1.847 2.168 2.57 3.614 2.008 3.855 3.292 8.593 4.899 12.609 3.132 8.111 6.425 16.223 9.637 24.415 0.642 1.526 1.365 3.052 2.008 4.658-3.132 2.008-5.782 4.658-8.272 7.629-4.256 4.979-8.032 11.083-12.609 15.661-2.731 2.811-7.55 4.658-10.923 6.425 0.241-3.052-0.723-5.622-0.401-9.075 0.322-4.256 0.803-7.791 0.241-12.047-0.322-2.811-1.767-5.301-2.329-7.951-0.723-4.096-0.723-8.272-1.606-12.288-0.803-3.774-1.526-7.469-2.168-11.164 1.687-2.008 3.292-4.015 4.819-6.104 4.177-5.943 9.316-10.923 14.136-16.384zM956.558 494.768c-0.562 0.562-1.365 0.883-2.008 1.365-1.767-1.044-5.542-2.65-6.505-2.891-4.819-1.446-8.433-2.57-13.733-2.49-4.417 0-8.995 0.16-13.413 0-2.811-0.16-3.855-1.285-6.104-1.847-2.972-0.803-5.22 0.241-8.032 0.803-4.015 0.883-8.111 1.526-11.565 2.57-6.505 1.927-13.492 3.373-19.837 5.702-6.746 2.57-12.288 6.827-18.311 10.601-4.256 2.731-7.87 5.14-13.091 4.578-6.746-0.803-14.697-4.658-20.319-8.272-5.863-3.774-7.469-6.104-10.923 1.124-1.767 3.695-4.578 6.425-7.71 9.316-2.088 1.847-5.22 4.417-7.55 5.863-3.774 2.409-7.228 1.365-11.405 1.927-0.322 0.081-0.562 0.16-0.803 0.16-0.401-0.803-0.723-1.606-1.124-2.329-1.526-0.322-3.052-0.723-4.578-1.285-3.292-1.285-5.863-2.891-8.111-4.738-1.044 0.081-2.008 0.081-3.052 0.081l-0.562-1.927c-5.301 0.16-8.754-7.068-11.646-10.28-5.381-6.023-3.454 2.008-4.738 5.060-1.847 4.096-6.184 3.213-10.039 3.213-4.819-0.16-7.147 1.847-11.806 2.329-0.081 0.401-0.241 1.044-0.322 1.847-4.899 0.322-9.798 0.562-14.697 0.803-0.964 2.731-2.409 5.542-3.454 7.87-1.285 3.052-3.132 4.658-5.301 6.264-0.964-0.964-1.927-2.008-2.891-3.373-2.409-3.373-4.256-6.345-7.309-9.236-0.241-0.241-0.322-0.322-0.562-0.482l-6.184 0.322c-14.938 0.803-29.876 1.606-44.815 2.329-8.754 0.322-17.75-0.081-26.102 3.132-5.381 2.088-10.119 5.22-14.456 8.915 3.213 7.309 5.622 14.938 7.87 22.648 0.642 2.168 0.562 3.614 1.687 5.622 0 0.081 0.081 0.16 0.081 0.241 0.081 2.65 0.322 5.301 0.803 8.272 0.723 4.979 2.891 9.156 3.454 14.215 0.081 0.803 0.16 1.526 0.16 2.168-2.088 7.309-4.738 14.456-7.629 21.605-0.642 1.526-1.285 2.49-1.767 3.855-5.782 5.381-11.164 11.405-16.545 16.545-4.015 3.936-8.111 7.87-12.288 11.726-8.915 8.593 2.731 10.682-8.032 16.464-0.081 0.081-0.16 0.081-0.241 0.16l-10.2 0.482-7.147 17.669c-1.044 0.482-2.088 0.883-3.132 1.365-3.855 2.008-6.746 5.301-10.2 7.951-5.14 3.855-9.075 4.497-14.858 6.666-13.895 5.14 6.425 16.464 9.959 22.407 2.811 4.738-0.883 12.047-1.044 17.347-0.081 3.052-1.285 3.855-1.847 6.264-0.642 2.731-0.241 6.104-0.241 8.995 0.16 7.951-3.936 15.179-4.096 23.452-0.081 4.899-1.044 9.075-1.767 13.974-0.964 6.425-0.401 13.332-0.241 19.918-1.687 3.292-3.614 6.505-5.542 9.718-3.454 5.782-1.927 8.272-0.642 15.26 0.562 3.213 0.401 2.972 2.088 5.381 1.044 1.526 3.373 4.497 4.578 5.782 2.972 3.052 6.746 5.301 9.637 8.433 4.497 4.738 4.658 5.702 11.244 5.622 0.16 0 0.322 0 0.401 0 0.16 2.972 0.322 5.782 0.401 8.192l6.586 4.658c1.205-1.044 0.803-0.482 0.322 0.16 3.533 1.767 6.987 3.695 9.959 6.023 9.557 7.469 17.268 11.083 29.315 11.405 4.337 0.241 7.55 6.907 11.164 9.075 3.855 2.168 4.979 3.213 8.032 6.666 3.454 3.774 6.345 7.469 9.477 11.405 6.666 8.272 13.733 14.858 21.925 21.605 4.899 4.096 8.593 8.513 13.011 13.011 3.774 3.774 6.184 4.578 8.754 9.075 4.979 8.834 11.405 17.347 16.786 26.021 2.57 4.177 5.381 7.791 9.637 10.28 1.606 1.044 3.533 1.847 5.301 2.409 0.964 0.322 0.482-6.827 1.285-6.505-0.081-0.964 1.205 4.979 1.285 3.936 0.401-4.738 0.964-9.316 1.365-14.136 0.723-7.068 2.168-13.733 1.044-20.319-0.803-4.658 0.482-9.075 1.446-14.136 4.738-24.978 10.039-56.3 12.449-81.679 0.562-6.987 3.695-13.974 3.774-20.882 0-5.943-0.482-12.288 0.241-17.428 0.241-2.008 1.687-5.060 1.606-7.068 2.731-9.075 7.55-17.268 10.842-25.78-1.927-5.14-2.008-11.164-1.847-17.268 3.855-1.044 7.71-1.847 11.485-2.088 12.047-0.723 45.859 13.974 55.417 6.264 3.454-2.891 4.819-4.417 8.915-5.22 4.256-0.883 5.782-0.803 10.36-0.241 4.899 0.562 9.397 1.446 14.296 2.329 10.28 1.767 19.837 2.168 30.278 1.767 6.264-0.081 11.887 0.803 17.991 1.205 5.381 0.322 7.71-0.642 12.368 0.964 9.397 3.454 19.597 5.622 29.074 8.593 4.578 1.446 8.995 2.329 13.733 1.446 1.927-0.322 3.936-1.044 5.622-1.767 0.964-0.401 1.526-1.044 2.249-1.285-0.642-0.723-1.205-1.446-1.847-2.409-2.65-3.855-4.979-7.629-7.629-11.646-3.774-5.782-6.827-11.806-11.806-16.143-3.533-3.052-5.14-7.228-7.55-11.726-11.887-22.166-21.765-45.056-35.66-65.937-3.774-5.702-31.402-30.278-35.579-35.498-3.695-4.578-7.951-8.995-10.601-13.413-0.883-1.446-1.606-3.855-2.49-5.542-0.964-1.687-1.606-3.052-2.168-4.819-1.606-5.22-2.811-10.521-4.177-15.822-0.562-2.409-1.847-4.658-3.292-6.586 0.803-0.883 1.526-1.927 2.409-2.731 8.834-8.513 13.654-15.742 16.143-28.11 0.964-4.417 1.044-6.505 3.774-9.878 2.811-3.454 16.223 22.166 20.078 19.516 8.593-5.782 16.705-9.798 28.19-17.75 1.285-0.883 2.49-2.088 3.533-3.292 6.264-7.71 13.011-11.405 19.837-16.786 4.337-3.213 5.461-5.622 10.2-7.469 9.316-3.695 18.472-8.754 27.708-12.931 4.417-2.008 8.352-4.177 11.565-8.111 1.124-1.526 2.249-3.373 3.132-5.14 0.482-0.883 0.562-1.606 0.883-2.49-0.883-0.081-1.847-0.241-2.891-0.482-3.052-0.883-6.104-1.767-9.156-2.731z"></path>
    <path fill="#000000" d="M554.748 610.981c0.241 0 0.401 0.081 0.562 0.081 0.081-0.081 0.16-0.241 0.16-0.401-0.241 0.16-0.401 0.241-0.723 0.322z"></path>
    <path fill="#000000" d="M446.807 767.031c-0.562-0.482-1.124-1.044-1.687-1.526-5.22-4.497-11.646-8.513-16.464-13.492-2.891-2.972-4.899-8.272-6.746-11.967-2.409-4.738-1.365-8.513-1.044-13.413 1.767-0.241 3.533-0.642 5.542-0.401 4.497 0.322 8.192 0.642 12.69 0.081 2.891-0.401 5.461-2.088 8.352-2.65 4.177-0.883 8.513-0.964 12.69-1.927 2.168-0.562 4.177-0.964 6.264-1.365 0.964 1.285 2.008 2.57 3.052 3.855 5.702 6.505 6.023 12.208 6.023 20.882 0.081 4.979-1.205 7.791-2.972 11.164-2.409 0.964-4.819 1.847-7.147 2.811-6.184 2.65-12.368 5.301-18.552 7.951zM422.311 869.913c-10.441 3.052-6.023 1.606-15.661 8.513-3.936 2.891-7.309 6.505-10.2 10.521-6.425 8.754-13.814 15.179-21.925 22.488-4.578 4.096-6.505 6.345-11.726 9.156-6.345 3.454-11.565 8.192-16.223 13.573-2.008 2.409-3.774 5.702-6.184 7.87-1.767 1.606-4.096 2.409-6.023 4.015-7.228 6.184-15.581 11.726-22.166 18.874-1.446 1.526-2.731 3.292-3.855 5.060 2.249-4.337 4.417-8.754 6.666-13.172 3.454-6.827 4.819-13.413 6.586-20.801 3.132-12.69 5.943-26.423 5.943-39.594 0-7.147-0.883-14.136-0.964-21.202-0.081-5.702-1.847-11.244-2.329-17.027-0.562-8.111-0.322-16.464-0.16-24.576 0-7.309-0.482-13.332-1.285-20.48-0.803-6.505-0.241-13.252-0.16-19.918 4.899 1.927 9.718 3.936 14.858 5.863 7.55 3.052 17.027 5.702 25.219 5.542 7.228-0.241 13.895 1.044 20.962 1.446 4.096 0.241 8.352-0.562 12.529-0.964 10.842-0.964 21.925-1.526 32.447-4.177 1.446-0.401 2.731-0.803 4.177-1.205 2.57 5.22-10.28 9.075-7.55 14.296 1.767 3.132 4.015 5.782 5.943 8.834 3.614 5.622 4.819 12.288 7.951 18.151 3.052 5.863 6.907 12.449 10.441 18.151 0.241 0.322 0.482 0.642 0.723 0.964-9.156 3.614-18.311 6.987-28.029 9.798zM328.826 743.981c1.526-4.497 1.927-10.682 4.819-14.215 5.14-6.425 14.858-7.951 21.202-12.85 4.256-3.213 7.309-4.256 12.368-4.899 4.177-0.562 7.388-1.446 10.682-1.606 1.767 0.562 3.454 1.205 4.417 1.767 1.044 0.642 1.365 1.687 2.088 2.49 0.241 1.044 0.482 2.088 0.723 3.052 0.642 2.891 0.964 7.791 2.65 10.441 1.365 2.409 4.177 3.132 5.461 6.104 2.811 6.586 3.454 15.179 5.060 22.247 1.767 7.629 2.249 16.705 7.87 22.247-2.972-0.241-5.943-0.562-9.075-0.401-8.995 0.401-17.588 1.365-26.584 0.562-8.834-0.723-17.91 0.322-26.744 0.401-6.425 0-13.974 1.526-20.319 0.642-0.482 0-0.883-0.241-1.285-0.241-0.241-2.088-0.482-4.177-1.044-6.345-0.322-1.526-0.883-3.052-1.526-4.578 1.365-8.834 6.264-16.304 9.236-24.817zM485.679 719.646l-12.288-36.944 25.057-20.801c-11.726-1.365-22.568-5.22-33.411-9.557-1.767-1.767-20.721 9.718-37.426 20.239-5.461 4.578-11.003 8.995-16.866 13.091-14.136 9.798-35.579 13.895-50.598 22.166 0.16 0.081 0.241 0.081 0.401 0.081-0.322 0.16-0.642 0.322-0.964 0.401-13.252 4.256-27.226 6.586-39.353 14.136-6.907 4.337-12.77 10.28-15.34 17.991-1.606 4.979-4.578 8.995-3.454 14.055 1.044 4.738 1.446 8.352 1.526 13.252 0.081 3.614 0.401 8.513 2.008 12.288-0.642 2.65-1.365 5.542-2.65 8.915-2.008 5.381-4.738 9.878-7.791 13.733 0.964 11.967 3.614 20.4 11.405 30.278 2.972 3.695 4.658 5.060 5.461 9.637 0.964 4.658 0.883 6.345 0.322 11.244-0.562 5.381-1.446 10.28-2.409 15.661-1.847 11.164-2.088 21.605-1.687 33.009 0.16 6.827-0.803 12.931-1.124 19.677-0.401 5.782 0.723 8.352-1.044 13.492-3.533 10.2-5.702 21.283-8.754 31.724-1.446 5.060-2.409 9.878-1.365 15.099 0.322 2.008 1.044 4.096 1.767 6.104 0.482 1.044 1.044 1.446 1.446 2.409 0.642-0.723 1.446-1.446 2.49-2.088 4.015-2.891 7.951-5.542 12.208-8.513 6.023-4.177 12.288-7.55 16.786-13.011 3.132-3.936 7.469-5.863 12.127-8.513 23.211-13.091 47.144-24.335 68.99-39.756 5.943-4.177 13.733-6.425 19.195-11.003 4.738-4.015-5.381-10.521-0.803-13.492 1.446-0.964 4.015-1.847 5.782-2.811 1.767-1.044 3.213-1.687 5.14-2.409 5.381-1.847 2.731-14.055 8.272-15.581 1.767-0.482 11.565 9.557 13.011 8.513l1.446-11.887c1.205-9.637 3.454-19.757 3.132-29.394-0.081-3.695-0.081-7.228 0.16-10.682-2.249-5.461 11.003-9.959 9.718-15.26-2.57-10.682-7.791-15.742-15.019-23.211-0.723-0.642-1.124-1.285-1.606-1.927 5.461-2.731 9.878-6.425 15.581-8.834 2.731-1.044 5.943-1.927 8.433-3.454 1.365-0.803 3.454-13.252 5.22-23.050 1.847-3.132 3.373-6.425 4.819-9.236 5.060-10.119-1.124-17.991-7.791-25.62-0.081-0.081-0.16-0.081-0.16-0.16z"></path>
    <path fill="#000000" d="M886.284 425.136c-4.497 3.213-6.345 8.915-10.441 12.368-4.738 3.855-14.215 1.847-20.48 1.847h-33.25c-1.526 0-6.425-0.562-10.923-0.723-0.322-0.322-0.642-0.723-0.964-1.124-3.855-4.658-7.629-9.236-11.646-13.733 2.168-4.096 4.497-8.192 6.345-12.449 1.365-3.213 2.088-6.666 3.213-9.959 2.249-6.264 6.505-11.324 9.156-17.268 1.285-2.972 2.57-6.264 3.936-9.557 7.309 4.899 14.617 10.039 21.765 15.822 8.032 6.505 11.324 16.705 21.846 20.319 4.417 1.365 8.915 1.927 13.573 1.847 10.039-0.241 18.874 1.927 28.752 3.936 1.124 0.241 2.088 0.401 2.972 0.642-8.433 0.723-16.545 2.731-23.853 8.032zM796.894 342.172c-9.878-4.819-18.070-11.806-27.628-18.874-6.264-4.658-14.215-9.397-21.605-11.003-6.586-1.446-12.449-4.177-18.713-6.264-3.614-1.205-7.71-1.365-11.485-1.927-6.425-0.964-12.85-2.008-19.356-2.65-2.168-6.987-2.65-14.377-4.337-21.443-0.883-3.454-2.409-6.505-3.533-9.878-2.008-6.345-1.767-13.091-3.373-19.516s-3.614-13.733-5.622-19.998c-0.241-0.723-0.562-1.365-0.883-2.088 10.601-1.687 21.123-3.373 32.125-4.015 10.039-0.562 18.713 4.979 28.912 0.482 0.482-0.241 0.964-0.642 1.446-0.883-3.052 6.425-5.782 13.011-7.228 20.159-1.365 6.987-8.915 18.713-6.023 25.701 3.454-0.964 7.068-6.746 9.397-9.477 2.891-3.533 4.899-6.023 8.433-8.995 2.972-2.49 4.658-6.184 8.032-8.272 4.337-2.57 9.637-1.365 14.377-1.446 7.068-0.16 13.654-2.49 20.721-3.533 7.791-1.205 13.332-3.292 20.239-6.666 1.446-0.723 3.213-1.285 5.060-1.847-0.964 5.542-1.687 11.003-2.811 16.464-1.124 5.622-0.723 11.405-1.526 17.107-1.124 8.111-3.132 16.063-4.899 24.014-1.606 6.987-2.49 13.091-3.213 20.239-0.723 7.55-3.373 15.26-4.819 22.729-0.803 4.096-1.365 7.951-1.687 11.887zM796.975 362.17c-2.329 7.228-8.111 14.778-12.69 20.721-5.461 7.147-6.827 13.332-8.032 21.283-3.533-2.49-7.068-4.899-10.923-7.309-5.461-3.454-11.405-4.658-16.866-8.111-2.329-1.446-4.738-3.614-7.309-4.658-2.168-0.964-3.533-0.401-5.622-1.044-2.49-0.723-8.032-4.256-9.878-6.184-1.124-1.124-0.883-2.57-1.927-3.695-1.285-1.365-3.052-2.891-4.899-4.337-0.803-6.827 0.241-14.778 0.241-21.605 0-5.060 0.562-10.521 0-15.661 5.461 0.964 10.762 2.088 16.143 3.936 7.71 2.65 16.304 3.695 24.174 5.622 5.863 1.446 13.011 1.767 18.552 4.015 6.827 2.731 13.332 8.834 19.597 13.413-0.081 1.285-0.16 2.49-0.562 3.614zM753.445 455.253c-5.14 5.863-7.388 3.454-14.697 2.329-1.124-0.241-2.249-0.401-3.454-0.562-2.249-2.409-4.417-5.060-6.907-7.309-2.65-2.409-5.14-4.738-7.629-7.228 0.081-1.927 0.16-3.855 0.16-5.782-0.16-10.039 1.847-19.757 1.847-29.876v-5.301c1.124 0.241 2.168 0.562 3.373 1.124 3.855 1.847 7.629 4.899 11.405 7.147 7.388 4.578 14.858 9.236 22.247 13.814 2.168 1.365 4.337 2.65 6.586 3.936-0.883 3.213-1.285 6.586-1.526 9.959-0.081 0.642-0.081 1.365-0.081 2.088-4.658 4.015-7.791 11.485-11.324 15.661zM696.181 413.651c-1.365-1.446-2.811-2.972-4.096-4.256-8.593-8.915-17.428-14.136-29.153-14.296-2.731 0-5.542 0.642-8.192 0.803-0.081-0.16-0.081-0.401-0.241-0.642-2.249-5.461-4.819-10.842-7.71-16.063 2.249 0.322 4.497 0.723 6.746 1.365 7.951 2.409 15.982 3.373 24.174 3.614 5.060 0.16 10.441 3.052 15.661 5.943 0.081 0.241 0.16 0.482 0.241 0.803 1.526 5.22 1.767 11.164 2.65 16.705 0.241 2.088 0.081 4.096-0.081 6.023zM632.171 347.793c-2.249-0.562-4.578-1.044-6.987-1.446-1.044-1.606-2.088-3.292-3.132-4.899 0.883-0.401 1.687-0.883 2.49-1.365 2.731-1.687 4.738-3.454 7.71-4.417 4.177-1.205 8.834-1.526 13.091-2.329 8.433-1.606 16.866-3.213 25.298-4.819 2.329-0.401 4.819-1.044 7.388-1.687 0.16 0.401 0.322 0.723 0.562 1.044 3.774 5.622 8.754 10.923 12.127 16.866 1.365 2.49 2.168 6.104 2.731 9.316-1.446-0.081-2.972-0.16-4.819-0.803-3.855-1.285-7.147-2.49-11.324-2.972-2.65-0.241-5.381 0.803-8.111 0.642-3.936 0-7.951-0.964-11.967-0.883-8.433 0-16.464-0.241-25.057-2.249zM612.896 314.864c-2.811-0.322-6.827 0.081-10.2 0.322-1.446-2.168-3.052-4.578-4.819-5.702-2.168-1.526-4.738-0.883-7.147-2.972-4.979-4.658-9.156-11.967-13.492-17.509-3.774-4.819-7.147-10.842-11.967-14.296 3.373-1.526 6.907-2.811 10.28-4.819 7.147-4.497 13.974-9.236 21.765-12.609 7.469-3.292 14.697-8.433 21.925-12.449 5.22-2.972 10.923-7.71 16.545-9.798 3.213-1.285 6.827-1.767 10.521-2.168 0.723 1.124 1.526 2.249 2.409 3.373 3.052 3.936 7.87 6.746 9.637 11.726 2.49 7.068 2.57 16.866 2.65 24.576 0.081 11.003 3.774 17.027 8.674 25.942 0.803 1.285 1.285 2.57 1.606 3.695-4.096 0.562-8.111 1.205-12.368 1.927-6.264 1.124-11.485 4.337-17.75 5.461-2.65 0.482-5.782 0.642-8.352 1.526-2.249 0.803-2.972 2.168-4.979 3.132-2.329 1.044-8.754 2.329-11.244 2.168-1.526-0.16-2.168-1.365-3.695-1.526zM563.743 329.482c-2.249 1.687-3.695 4.256-5.782 6.104-0.964 0.883-2.088 1.687-3.213 2.409-5.542-1.847-11.244-3.373-16.946-4.337-6.505-1.124-12.69-3.373-19.034-5.22 2.409-3.695 5.622-7.147 8.352-10.521 3.855-4.979 7.71-9.878 11.565-14.858 5.14 1.044 10.521 1.847 15.34 3.614 3.695 1.365 7.55 5.22 10.682 7.629 3.774 3.052 4.497 6.666 6.184 11.003-2.409 1.205-4.738 2.329-7.147 4.177zM509.291 249.81c-5.461-3.373-9.236-8.754-14.296-12.609-1.285-0.964-2.65-2.008-4.096-2.972-0.241 1.205-0.562 2.49-0.883 3.855-2.329 8.754-3.936 14.697-3.533 22.488-3.936-1.044-8.032-1.446-12.288-1.044 2.891-3.132 3.213-7.951 5.301-11.646 3.936-4.578 7.629-9.316 11.164-14.136 3.132-5.702 6.505-11.164 10.039-16.545 2.329-2.891 4.658-8.111 7.228-10.601-0.883 0.482-1.687 0.803-2.49 1.205 2.008-2.249 4.015-4.497 6.104-6.666 7.388-7.469 17.347-9.316 22.327-19.757 2.168-4.417 3.373-9.236 4.096-14.055 1.606-10.762 5.14-19.837 8.674-29.957 2.008-5.782 2.731-8.674 5.863-13.492 3.774-6.023 6.104-12.529 7.71-19.516 0.723-3.052 0.803-6.827 1.767-9.718 0.803-2.329 2.49-4.015 3.373-6.345 3.373-8.754 8.032-17.509 10.441-26.905 0.482-2.008 0.803-4.096 0.964-6.264v14.778c0 7.71 1.767 14.136 3.292 21.524 2.731 12.77 6.264 26.262 11.726 37.988 2.972 6.345 6.666 12.288 9.718 18.552 2.49 5.060 6.264 9.156 8.995 14.136 4.015 6.907 7.228 14.456 10.601 21.765 2.972 6.586 5.863 11.726 9.557 17.75 3.774 6.023 6.345 13.413 9.557 19.918-7.71 1.446-15.661 1.927-24.174 2.811-7.469 0.803-16.464 2.65-23.13 6.505-5.863 3.454-11.967 5.381-17.991 8.192-3.454 1.526-6.666 4.256-9.878 6.505-8.674 5.782-17.509 11.324-25.057 18.472-1.767 1.687-3.454 3.373-5.060 4.979-6.264-3.774-11.324-9.557-17.187-13.974-2.65-2.088-5.622-3.373-8.433-5.22zM967.882 423.128c7.147-0.241 14.296-0.401 21.364-0.322-5.22-2.008-10.28-4.177-15.742-4.337-4.658-0.16-8.433-2.49-13.091-4.658-22.648-10.601-44.172-23.050-67.785-31.162-6.425-2.249-12.449-7.147-18.874-8.834-5.622-1.365-11.726-2.168-16.464-4.096-1.526-0.562-3.614-2.168-5.301-2.972-1.767-0.803-3.052-1.526-4.578-2.65-4.417-3.213-8.513-6.827-12.69-10.2-2.49-2.088-5.461-3.132-8.513-3.855-0.16-7.791-0.964-16.384 0.241-24.094 2.008-12.85 1.526-22.006-3.614-33.973-1.927-4.256-3.132-5.943-2.972-10.601 0.16-4.738 0.562-6.264 2.088-11.003 1.606-5.14 3.454-9.637 5.381-14.697 3.213-8.192 5.301-16.143 7.147-24.496-2.249-1.446-4.256-3.292-5.782-5.622-0.723-1.205-1.446-2.49-2.088-3.774 0.803-1.285 1.526-2.57 1.847-3.533 4.658-14.136-12.288-10.441-20.078-8.032-7.791 2.49-14.778 6.425-22.327 9.236-2.249 0.803-4.015 1.365-6.184 2.57-0.16 0.081-4.337 3.132-4.497 3.132-5.863 1.124-4.819-4.417-5.943-8.674-0.883-3.213-2.168-6.425-3.292-9.557 2.008-1.285 4.015-2.57 6.104-3.855-2.088-1.124-4.096-2.49-5.943-4.177-1.285-1.285-2.49-2.57-3.533-3.936-0.723-3.695-1.205-7.388-2.891-11.083-1.205-2.811-2.49-4.337-3.292-2.65-0.081-0.401-0.241-0.803-0.322-1.205-3.454 1.365-6.907 2.731-10.36 4.256-6.264 2.731-13.733 3.132-19.677 6.345-5.060 2.891-10.28 6.425-15.099 8.272-1.526 0.562-4.015 0.803-5.782 1.365-1.767 0.642-3.213 0.964-5.060 1.205-5.381 0.562-10.601 0.642-15.822 0.883-4.738 0.241-9.075 2.891-12.931 5.622-1.365 1.044-2.891 1.847-4.417 2.811-2.891-3.454-5.702-7.147-7.87-11.003-6.104-11.324-11.887-17.991-22.97-23.452-4.015-2.008-5.943-2.49-8.513-6.104-2.731-3.774-3.373-5.301-5.060-9.959-1.767-5.060-3.052-9.798-4.578-15.019-3.213-10.842-7.309-20.239-12.368-30.278-3.052-5.943-4.819-11.887-7.388-17.991-2.168-5.381-4.096-7.068-4.738-12.449-1.446-10.762-4.256-21.684-6.104-32.366-0.883-5.14-2.168-9.878-5.14-14.055-1.205-1.606-2.65-3.213-4.177-4.578-0.642-0.723-1.446-0.883-2.168-1.526-0.241 0.964-0.642 1.927-1.124 2.972-2.088 4.417-4.256 8.593-6.505 13.091-3.292 6.425-6.987 12.368-8.433 19.275-0.964 4.899-3.695 8.513-6.505 13.011-13.733 22.247-28.752 43.048-40.317 66.66-3.132 6.425-8.674 11.967-11.244 18.552-2.249 5.702-4.015 12.047-6.666 16.786-0.803 1.446-2.57 3.373-3.614 5.14-1.044 1.687-1.847 2.891-3.213 4.337-2.49 2.811-5.060 5.381-7.71 7.951 2.329 3.936 4.658 7.951 6.746 11.806 0.803 1.365 1.285 2.65 1.767 3.936-2.49 1.446-3.695 2.329-4.738 3.132-3.454 1.767-6.827 3.695-10.2 5.702-2.088 1.847-3.855 3.936-5.461 6.264-3.855 3.695-4.256 3.855-6.023 8.433-1.285 3.533-1.526 5.943-1.526 9.878-0.081 11.726 6.023 41.602 23.452 38.952 4.177-0.642 11.324-2.731 15.661-6.104 3.052 1.446 6.264 2.65 10.039 4.015 3.213 1.205 4.899 2.811 6.666 4.738-2.409 4.096-4.337 8.352-7.309 12.047-1.767 2.249-4.177 4.497-5.542 6.987-1.205 2.168-0.964 3.695-1.927 5.863-0.964 2.088-4.015 6.023-6.184 8.272-0.803-0.16-1.606-0.322-2.49-0.562h-0.081c1.124 12.127 5.542 22.247 12.127 32.125 0.16-0.081 0.241-0.322 0.322-0.482h0.883c5.542 0.16 10.2 3.132 15.501 5.14 0.642 0.16 1.365 0.482 2.008 0.803-3.213 1.927-6.425 4.256-9.637 6.586 9.477 11.485 20.4 21.283 30.358 32.366 9.156 10.2 3.454 6.023 7.469 14.377 0.081 0.081 0.081 0.241 0.241 0.322 9.798-3.052 19.837-4.256 30.037-5.14 1.205-0.081 2.329-0.081 3.454-0.16 1.124 0.081 2.168 0 3.292-0.081 1.687 0.562 3.292 1.205 4.899 1.767l15.822 6.184c4.658 1.927 9.075 4.256 13.413 6.827 3.936 7.629 8.593 15.019 12.368 22.087 2.811 5.22 5.622 10.441 8.433 15.661 2.088 4.015 3.936 8.111 5.461 12.288 4.497-3.614 9.477-6.666 14.938-8.513 8.593-2.891 17.669-2.008 26.503-1.927 1.767 0 3.614 0 5.381 0 0.803 0.803 1.526 1.606 2.329 2.409 2.731 2.57 12.047 12.609 16.625 14.215 5.22 1.687 6.746-4.256 10.923-3.936 3.052 8.192 9.316 0.322 14.697-0.322 8.433-0.964 13.413 8.995 21.283 10.36 8.272 1.446 8.352-4.658 11.646-10.601 2.329-4.337 4.256-6.666 3.695-11.967 0-0.081-0.081-0.16-0.081-0.241 1.446 0 2.891 0 4.337 0 0.241 0 0.482 0 0.723 0 2.49-2.168 5.22-4.096 8.272-5.381 5.863-2.49 12.368-3.132 18.552-1.446 4.177 1.124 9.878 3.936 12.609 7.388 0.322 0.401 0.723 0.803 1.044 1.285 1.687-0.081 3.373-0.241 4.979-0.401l-0.081-0.081c-3.292-4.658-5.863-9.477-8.593-14.377 1.767 0.482 3.454 1.044 5.22 1.365 4.819 1.526 7.147 3.292 7.951 9.316 13.814-5.782 28.11-11.083 42.325-15.742 8.192-2.731 16.384-4.658 24.335-8.032 11.485-4.899 24.737-5.943 35.419-12.609 0.723-0.401 1.446-0.883 2.168-1.285 6.184 0.482 12.368 0.482 18.552 0.241 2.008-0.081 4.096-0.16 6.104-0.241l6.827 1.847c-0.16-0.723-0.401-1.365-0.803-2.008z"></path>
    </svg>