<svg xmlns="http://www.w3.org/2000/svg" viewBox="-57.669 -16.181 1158.747 1056.749">
    <path fill="#000000" d="M78.117 504.065c8.343 3.033 14.917 2.696 23.091 2.78 0.337-0.084 1.518-0.59 2.107-2.359 0.506-2.023-0.084-5.225-0.084-7.331-0.084-3.792 1.433-5.225 3.961-8.174 2.275-2.696 2.527-5.563 4.635-8.427 2.443-3.455 7.247-8.006 11.629-8.849 2.949-0.59 6.153-1.012 9.27-1.433 0.506 0.506 1.096 0.927 1.602 1.349 2.191 2.107 4.635 3.876 7.162 5.478 4.298-0.169 8.596-0.169 12.894-0.084 5.815 1.349 11.207 0.422 16.264-2.612 5.563-4.214 11.039-8.511 16.348-12.894 11.798-9.523 20.815-21.574 30.928-32.697 0.674-0.084 1.433-0.169 2.107-0.253 0.253 0.084 0.59 0.169 0.843 0.253 3.455 1.349 6.91 2.107 10.451 2.527 1.602-1.602 3.286-3.033 5.31-4.129 0.337-0.337 0.759-0.59 1.096-0.927 1.349-1.265 2.696-2.527 4.214-3.623 9.439-9.86 18.372-18.456 34.383-19.467 17.191-1.096 25.956 8.511 37.163 17.782 3.455 1.855 6.657 4.298 9.692 7.247 0.253 0.337 0.59 0.506 0.843 0.759 2.696 2.865 4.129 6.068 4.804 9.439 5.731-0.084 11.46-0.337 17.191-0.422 4.635-1.939 10.113-2.023 15.758 1.012 2.696 0.674 5.225 1.602 7.837 2.612 10.619 1.771 23.007-2.949 33.034-4.888 14.58-2.696 29.411-4.045 43.4 1.771 3.792 1.518 6.573 3.876 8.596 6.657 0.59 0 1.18 0 1.686 0 11.376-0.169 22.332-2.865 33.371-4.972 8.764-1.686 18.119-2.023 26.799 0.253 3.961 1.096 7.668 2.949 11.545 3.961 6.153 1.686 14.243 0.927 20.225 0.843 5.563-0.169 12.809 0.843 18.203-0.759 3.455-0.927 6.405-4.972 9.355-6.994 3.792-2.443 7.415-4.551 11.882-5.225 2.359-2.527 4.888-4.551 7.584-6.068 1.265-0.759 2.612-1.349 3.876-1.855 0.506-0.169 0.927-0.422 1.433-0.59 1.855-0.59 3.708-1.096 5.647-1.349 1.686-0.59 3.455-1.096 5.31-1.433 1.771-0.337 3.539-0.59 5.394-0.674 4.466-0.337 9.017 0.169 13.652 1.686 2.78 0.927 5.31 2.191 7.837 3.623 12.135 2.107 23.513 8.343 31.518 18.203 4.804 3.623 9.186 8.090 12.894 13.399 0.59 0.759 0.927 1.602 1.349 2.359 0 0 0.084 0 0.084 0 1.518-0.506 2.696-2.443 4.551-3.033 3.118-1.096 6.573-0.674 9.776-0.337 11.798 1.096 23.344 4.719 34.889 2.865 1.602-3.033 4.214-5.731 8.427-7.668 27.052-12.809 60.676-4.888 83.093 13.905 2.865 2.443 4.635 5.141 5.563 7.921 1.012 0.084 2.107 0.084 3.118 0.253 2.949 0.422 7.584 1.18 10.703 2.443 8.343 3.37 15.758 9.86 24.86 11.46 4.888 0.843 9.776-0.253 14.664-0.084 4.888 0.253 8.259 1.096 12.725 3.455 3.202 1.686 5.141 2.949 7.331 5.478 0.674 0.759 1.855 2.78 2.78 3.539 3.118 2.359 3.708-0.506 6.321-0.084 2.865 0.506 2.527 4.888 3.118 6.994 0.927 3.37 3.37 7.584 7.078 8.68 2.949 0.927 6.91 0 9.945-0.084 1.939 0 4.719 0.59 6.489-0.169 1.771-0.674 1.686-2.275 3.623-2.107 1.602 0.169 1.433 1.939 2.78 2.359s3.792-0.843 4.972-1.265c2.527-0.759 5.31-1.096 7.753-2.107 1.349-0.506 2.359-1.265 3.455-2.023 2.359-1.771 3.539-2.612 6.405-3.876 3.876-1.771 7.247-4.298 11.46-5.141 2.023-0.422 4.045-0.674 6.153-1.096 3.37-0.59 6.825-0.59 10.198-1.18 6.153-1.012 11.798-0.674 17.697-2.612 1.265-4.298 0.084-12.809-0.084-16.348-0.337-6.91-0.674-13.737-0.927-20.562-0.169-4.888 0.337-4.719-1.686-7.584-1.518-2.107-3.37-4.129-5.057-6.153-3.37-4.129-3.033-7.668-2.949-12.809 0.084-5.057-0.506-9.186-1.771-14.327-3.792-15.505-11.629-28.568-19.635-42.22-4.214-7.247-12.556-15.085-18.119-20.646-5.31-5.31-10.619-9.945-16.854-14.158-13.99-9.523-31.265-11.798-47.867-13.147-3.876-0.253-6.91-0.084-10.366 0.843-0.169 0.084-1.012 1.433-1.349 1.602-0.506-6.405-0.337-12.472-1.433-18.793-0.506-3.202-1.349-5.984-2.275-9.102-1.518-4.635-2.107-8.764-4.888-12.978-2.696-4.045-5.478-8.174-8.596-11.966-3.876-4.635-9.186-7.668-14.158-11.207-3.118-2.275-6.657-5.057-9.017-8.259-1.349-1.939-2.023-2.949-4.214-4.214-8.764-4.888-19.467-8.174-29.411-9.776-9.186-1.518-18.54-4.635-27.895-4.972-2.527-0.084-3.961 0.674-5.984-0.927-5.9-4.551-6.91-12.388-11.545-17.866-9.86-11.46-16.686-25.028-27.473-35.901-8.259-8.259-19.131-16.939-31.013-18.288-7.331-0.843-16.011-2.949-23.344-1.939-5.057 0.759-9.945 3.708-13.99 6.741-2.107 1.686-3.876 3.876-6.153 5.225-0.674-1.771-0.843-3.623-0.59-5.647-0.506-5.057-0.759-10.113-0.927-15.253 0.084-3.623-0.506-6.153-1.686-9.692-2.275-6.657-5.9-11.882-8.933-18.035-5.394-10.787-15.337-18.793-25.45-25.197-6.825-4.466-13.568-9.102-20.309-13.737-4.719-4.888-9.186-9.439-16.011-11.207-5.647-1.433-10.619-3.623-15.927-1.771-1.939 0.674-3.876 1.265-5.9 1.855-1.265-0.169-2.443 0.169-3.792-0.084-1.602-0.337-3.455-1.771-4.804-2.78-3.118-2.359-4.972-4.972-9.017-5.731-1.349-0.253-2.359-0.084-3.623-0.759-0.927-0.506-1.518-1.349-2.527-1.686-0.843-0.253-1.939-0.084-2.949-0.253-2.612-0.506-4.972-1.686-7.668-2.023-4.298-0.506-9.27-0.337-13.568-0.084-3.792 0.253-8.511 0.422-12.135 1.265-2.023 0.506-3.623 1.771-5.563 2.527-3.37 1.433-6.657 1.771-9.86 3.539-7.668 4.382-15.843 10.955-20.562 18.372-2.023 3.202-2.865 5.31-3.118 8.090-3.286 2.949-6.489 5.984-9.776 8.849-5.225 4.551-8.006 10.787-11.46 16.601-0.253 0.422-0.422 0.759-0.674 1.18-2.107-2.023-4.214-3.961-6.068-5.984-7.5-8.259-14.243-16.77-22.754-24.101-7.921-6.994-18.625-15.169-28.989-18.372-4.972-1.433-10.366-1.096-15.421-1.012-6.321 0.169-11.629 1.096-17.697 3.37-4.635 1.771-8.343 4.298-12.641 6.825-3.033 1.686-6.068 2.78-8.68 5.225-2.527 2.359-4.804 5.057-6.994 7.753-6.657 8.343-11.713 16.601-15.253 26.799-1.686 4.635-2.107 9.355-2.949 14.158-0.253 1.771-0.084 4.635-1.18 6.068-1.265 1.771-1.602 1.012-3.37 0.674-2.78-1.771-5.815-2.78-9.186-3.202-5.31-1.012-10.619-2.023-16.011-2.949-13.315-2.107-27.558-2.612-41.125-1.771-13.147 0.759-24.017 6.994-35.395 13.062-9.017 4.804-15.927 8.006-20.478 17.191-3.37 6.741-4.466 14.074-5.225 21.489-1.433 14.074-1.265 28.483 2.949 42.051 2.78 8.68 6.91 17.191 10.198 25.703 0.337 0.843 0.674 1.602 1.012 2.443-0.927-0.084-1.855-0.169-2.865-0.253-6.405-0.169-11.629 3.455-16.854 7.078-5.563 3.961-10.198 7.837-13.315 13.99-3.118 6.068-4.298 17.529-5.31 24.185-0.927 6.068-1.349 12.135-1.096 18.288 0.169 2.612 0.506 6.405 1.18 10.451-1.771 0-3.623 0-5.394 0-3.876 0-7.415-0.506-11.292-0.927-2.78-0.422-5.9-0.843-8.511 0.169-4.214 1.518-7.837 4.888-11.713 7.162-6.741 4.045-17.95 4.298-15.421 14.917 0.927 4.045 0.927 5.731 0.927 10.451 0 4.298 0.253 8.68 0.084 12.894-0.084 1.518 0.169 2.865-0.843 4.129-11.207-2.359-21.995-10.619-33.118-4.045-2.696 1.602-5.563 2.527-7.921 4.719-2.696 2.527-3.202 4.972-4.888 7.921-2.023 3.455-5.731 5.815-8.006 9.27-1.855 3.033-3.876 6.237-5.9 9.186-1.433 2.023-3.455 2.78-4.804 4.888-1.686 2.443-1.18 4.972-1.18 7.921 0.169 7.837-1.096 17.276-5.984 23.681-3.455 4.551-9.523 5.478-8.596 12.303 0.337 1.939 0.674 3.961 2.359 4.888 1.096-0.59 2.191-0.506 3.286 0.337 4.129 2.527 7.921 5.478 11.46 8.849 12.388 11.292 21.236 25.45 37.753 31.518z"></path>
    <path fill="#000000" d="M377.595 549.152c8.849-1.518 17.697 1.096 26.040 3.623 4.551 1.433 9.27 3.033 13.821 4.129-1.855 0-3.708 0.084-5.394 0.169-11.629 0.337-23.176-0.084-34.72 0.169-5.9 0.169-11.039-1.18-16.18-3.623 5.394-1.686 10.787-3.455 16.433-4.466zM320.963 568.028c15.337-0.253 30.591 0.674 45.843 0 8.259-0.422 16.601-1.602 24.607-3.623 4.129-1.096 8.427-3.033 12.641-3.539 6.237-0.674 12.472 2.191 18.54 2.949 5.225 0.59 9.945 0.843 15.085-0.337 7.753-1.771 16.011-7.331 22.67-11.123 3.202-1.855 4.888-4.635 7.415-7.331 3.623 0 7.247-0.084 10.871-0.084 5.31-0.084 12.303-0.927 17.782 0.506 0.843 0.253 1.602 0.506 2.443 0.759-0.506-0.084-1.096-0.084-1.602-0.084-2.78-0.337-5.057-1.518-7.753-0.674-3.118 0.927-5.394 3.708-8.259 5.225-1.939 1.096-5.394 3.455-7.837 2.949 8.427 0 13.568-0.506 18.203 0.253 6.573 1.18 13.821 4.888 20.478 2.865 4.804-1.518 9.945-3.118 14.496-5.225 0.337-0.169 0.759-0.253 1.096-0.337 2.865 0.843 5.815 1.602 8.849 1.939 5.984 0.674 11.713 1.518 17.613 2.612 6.068 1.18 12.472 4.635 18.456 4.972 3.37 0.169 6.825-0.084 10.113-0.084 2.359 0.084 5.141 0.506 7.415-0.084 3.118-0.843 4.214-3.202 6.489-5.057 1.602-1.349 3.623-2.275 4.888-3.961 1.433-2.023 1.602-9.945 7.247-15.085 0-0.337 0-0.759 0-1.096-1.939-0.337-6.321 1.686-8.090 2.107-6.489 1.433-13.231 1.771-19.719 3.286-5.9 1.349-11.123 1.771-17.191 1.771-5.815 0-10.282-0.927-15.927-2.359-9.017-2.275-18.878-1.349-28.063-1.265-12.219 0.084-24.101-1.939-36.238-2.443-8.764-0.337-14.243 1.433-21.911 4.804-1.349 0.59-4.382 0.674-5.31 1.518-1.012 0.927-0.506 1.433 0.422 1.771-1.012 0.674-1.939 1.433-3.202 2.275-2.78 1.939-6.068 2.527-9.355 3.37-3.539 1.012-6.321 3.286-9.86 4.466-1.433 0.506-3.033 0.843-4.635 1.096-0.084-0.674-0.422-1.433-0.674-2.023-0.253-0.506-1.18-1.012-1.349-1.433-0.337-0.843 0.169-1.939-0.253-2.612-1.012-1.771-3.118-1.602-4.804-2.191-4.382-1.602-7.415-6.068-11.123-8.68-1.939-1.518-4.382-2.696-6.068-4.466-2.612-2.696-4.804-5.394-7.668-8.006-3.37-2.949-6.657-4.045-11.292-4.804-8.764-1.433-12.135 8.174-17.866 12.894-6.994 5.563-15.505 10.366-23.597 14.411-1.096-0.084-2.275-0.169-3.539-0.253-5.984-0.59-11.713-2.107-17.782-2.359-3.118-0.084-6.237 0.169-9.355 0.169-4.382 0.084-8.764 0.169-13.147-0.084-4.719-0.253-9.102-1.686-13.737-2.107-3.033-0.337-6.068-0.253-9.102-0.169-5.057-1.939-14.158-2.191-17.95-2.359-0.253-0.084-0.506-0.169-0.843-0.253-4.635-1.265-9.017-2.949-13.821-3.37-6.489-0.59-13.147-0.506-19.635-0.169-0.927 0-1.771 0.169-2.696 0.253-3.961-0.674-8.006-1.433-12.051-2.78-3.876-1.433-8.68-3.37-12.303-5.647-2.612-1.686-4.804-3.792-7.584-5.394-5.815-3.118-14.496-5.563-21.152-4.466-2.023 0.337-3.708 1.096-5.647 1.602-3.455 0.759-7.247 0.506-10.451 2.023-2.023 0.843-3.118 2.359-4.719 3.708-2.191 1.771-4.719 2.78-7.162 4.129-1.096 0.59-2.107 1.096-3.118 1.602-13.737 0.506-27.895 3.202-41.125 6.91-3.708 1.012-6.825 1.771-10.703 1.686 2.023 0.337 0.422 0.843-1.18 1.518 0.253 3.202-4.888 5.563-7.331 6.405-3.876 1.265-7.331 3.286-11.292 4.804-1.349 0.506-3.286 0.59-3.961 2.107 1.265 2.275 3.033 2.107 5.31 2.107 5.984 0.169 11.966 0.084 17.95 0.084 3.202 0 6.405-0.084 9.523-0.084 5.057 0.169 9.776-0.927 14.748-1.855 7.415-1.265 15.253-0.506 22.754-0.506 10.787 0 21.658-0.337 32.445 0.084 6.237 0.169 12.388 1.012 18.54 1.602 4.466 0.422 9.776-0.253 13.99 0.59 5.225 1.012 10.029 3.708 14.411 6.489 8.343 5.225 20.984 5.057 30.422 5.563 10.535 0.422 20.984 0.253 31.518 0.253 15.337 0 30.507-2.359 45.759-2.612z"></path>
    <path fill="#000000" d="M337.481 609.238c7.162 0.253 14.158 1.855 21.405 2.275 10.955 0.674 23.933 1.012 34.973-0.59 12.556-1.771 23.849-8.68 35.901-12.135 3.37-1.012 6.994-0.422 10.451-0.422 9.945 0 19.972 0 30.001 0 21.152 0 42.136 0.253 63.203-1.433 2.696 1.433 5.478 2.949 8.174 4.214 6.573 2.949 13.905 4.551 20.815 6.825 6.153 2.023 13.231 2.443 19.719 2.696 2.612 0.084 4.129 0 6.321-1.265 7.331-4.298 14.074-9.102 22.080-12.641 5.731-2.443 11.629-4.466 17.444-6.573 8.259 0.253 16.854 0.506 24.691-0.506 1.686-0.253 3.455-0.506 5.225-0.674 2.191 3.455 5.141 6.825 8.427 9.186 3.961 2.78 9.776 6.153 14.748 6.489 5.141 0.253 7.331-1.855 11.629-3.792 5.563-2.443 11.882-4.719 16.517-8.764 2.612-2.191 4.972-4.804 7.5-7.078 4.298 0 8.68 0 13.062 0 4.635 0 9.439-0.506 14.074-0.253 8.68 0.422 16.348 5.31 24.776 7.5 10.113 2.696 22.923 2.78 32.697-0.927 7.415-2.78 15.085-1.18 21.742-5.731 5.9-4.129 12.556-5.394 19.551-5.394 2.527 0 5.984 0.59 8.511 0 2.191-0.506 2.696-1.349 5.563-1.18-1.012-1.265-1.939-0.843-3.118-1.518-2.275-1.265-3.286-2.612-3.708-2.191-9.776 0-19.551 0-29.411 0-9.102 0.084-17.866 0.506-26.799-1.433-6.321-1.518-12.978-1.518-19.131-3.539-5.9-2.023-12.135-3.286-17.95-5.563-5.057-2.023-9.86-4.551-15.337-5.225-5.9-0.674-13.737-0.927-19.383 0.843-2.78 0.927-4.635 2.359-7.247 3.708-4.719 2.359-10.029 3.37-15.085 4.719-10.282 2.612-19.383 3.876-29.664 1.686-8.849-1.939-17.613-1.096-26.63-1.939-4.298-0.422-8.427-0.927-12.725-1.518-0.927-0.169-2.023-0.422-2.949-0.253-2.107 0.506-4.804 2.949-6.741 3.792-3.202 1.518-6.489 3.033-9.692 4.382-7.331 2.865-16.77 1.602-24.523 1.602-2.78 0-5.563-0.253-8.259-0.084-4.804 0.169-9.523 1.855-14.243 3.118-4.214 1.096-8.511 2.696-12.894 3.286-6.573 1.012-13.231 0.927-19.887 0.927-7.584-0.084-15.085 0-22.67 0-3.118-0.084-5.9-0.169-8.933 0.422-9.523 2.023-19.131 2.023-28.568 3.792-9.523 1.771-19.131 0.843-28.568 2.443-12.556 1.939-25.787 0.59-38.344 0.59-10.535 0-21.068-0.169-31.518 0-2.107 0-3.539 0-5.394 1.096-3.033 1.855-4.888 3.286-8.511 4.214-2.443 0.674-4.635 1.433-6.994 2.275-2.023 0.759-3.455 0.759-5.815 1.012-3.708 0.253-7.162 1.18-10.955 1.096-4.382 0-8.68-0.759-13.062-1.096-2.191-0.253-4.719-0.506-6.91-0.253-3.202 0.337-5.984 2.023-9.186 2.443-6.489 0.927-14.411 0.674-20.815-0.084 5.394 0.927 10.703 3.286 16.095 4.466 12.051 2.612 24.101 2.527 36.322 2.949z"></path>
    <path fill="#000000" d="M238.739 602.579c-1.771-0.169-3.033-1.855-4.719-2.443-6.153-2.191-13.568-1.349-19.972-1.855-2.865-0.253-5.9-0.843-8.68-0.337-1.855 0.422-3.286 1.012-5.225 1.096-2.949 0.084-5.731-0.422-8.174-2.191-1.096-0.759-1.939-2.275-3.286-2.696-2.107-0.674-5.394-0.084-7.584-0.084-3.961 0-7.247-0.759-10.282 1.265-0.843 0.506-1.433 1.349-2.107 1.855-2.527 1.855-5.647 2.949-8.596 3.961-6.068 2.191-12.051 0.59-18.035 2.612-2.612 0.927-5.478 0.506-8.006 1.349-1.518 0.506-2.612 1.518-3.961 2.359-5.478 3.455-13.315 3.708-19.467 4.888 2.78-0.253 5.984-0.337 8.764-0.084 5.9 0.506 11.545 3.623 17.782 4.551 11.798 1.686 23.429 1.518 35.479 1.518 5.731 0 11.376 0 17.107-0.253 8.849-0.422 15.843-2.443 24.101-5.141 3.033-1.012 2.527-0.253 4.972 0.422 3.455 0.927 6.573-0.843 9.945-1.18 2.023-0.169 4.466 0 6.489 0.337 4.129 0.843 7.753 0.927 11.966 0.927 3.033 0 8.427-0.927 11.207-0.084 0.759 0.253 0.843 1.096 1.518 1.18 2.78 0.506 7.668 0.253 8.849-2.78 1.18-3.118-8.933-3.961-10.619-4.129-5.984-0.759-12.725 0.843-18.456-1.433-1.518-0.59-2.612-1.686-3.961-2.443-2.696-1.433-4.888-1.18 2.949-1.18z"></path>
    <path fill="#000000" d="M379.677 641.935h-11.123c-4.382 0-7.837 0.253-12.051 0.927-0.927 0.169-1.771 0.253-2.696 0.253 13.062 0 26.124 0.084 39.187 0.084-0.927-0.59-1.855-1.096-2.949-1.349-1.518-0.337-10.198 0.084-10.366 0.084z"></path>
    <path fill="#000000" d="M357.293 638.395c-1.602-0.337-3.623-0.169-5.31-0.253-5.647-0.337-11.376-0.759-16.939-1.349-9.186-0.927-17.866-0.927-27.221-0.927-6.994 0-14.158-0.506-21.152-0.084-2.527 0.169-4.635 1.265-7.078 1.855-8.68 2.359-17.95 1.686-26.883 2.191-2.949 0.084-11.039-0.674-13.315 1.771 2.107 0.253 27.726 0.759 26.209 6.741 9.439 1.18 19.383 1.433 28.989 0.927 2.023-0.169 3.792-0.337 5.815-0.843 2.359-0.506 4.635-1.349 6.994-1.686 1.939-0.337 4.382 0.084 6.237-0.169 3.539-0.506 6.741-1.686 10.113-2.612 0.169 0 0.674-0.759 0.927-0.927 1.939-0.759 10.366 0.084 11.46 0.084h4.804c4.214 0 8.596 0.337 12.894 0h-1.012c6.153-3.792 5.563-4.551 4.466-4.719z"></path>
    <path fill="#000000" d="M1014.753 615.22c-2.949-0.169-5.394 2.696-8.174 3.539-2.023 0.59-4.719 1.518-6.741 1.602-6.573 0.253-13.315-2.696-20.056-2.696-4.129 0-8.006 0.59-12.135 1.265-3.876 0.59-7.753 1.096-11.713 1.518-1.771 0.337-3.37 1.012-4.804 2.023-1.939 1.096-4.129 0.927-6.405-0.674-5.394-1.096-10.871-1.939-16.348-2.527-2.275-0.506-4.635-0.674-6.91-0.506-1.518 1.012-3.118 1.855-4.888 2.359-6.489 2.359-8.090 1.518-13.231-1.855-1.18-0.843-2.275-2.443-3.455-2.78-2.527-0.759-7.078-0.084-9.776 0-6.994 0.253-13.652 4.298-20.478 5.984-2.023 0.422-4.045 0.506-6.153 0.422-2.275 0.422-4.635 0.759-6.91 1.096-2.78-0.422-3.708-3.37-3.792-5.9-5.057-0.927-11.629 0.843-16.854 0.927-6.068 0.169-12.135-0.084-18.119-0.084-1.18 0-4.635-0.337-6.153-0.084-3.876 0.59-9.017 3.708-12.388 4.466-8.259 2.023-16.433 1.855-24.776 1.686-4.635-0.084-7.162 2.191-11.46 3.455-6.405 1.855-13.568 0.422-19.887 3.37-3.202 1.518-5.815 3.792-8.933 5.31-3.202 1.18-6.573 2.023-10.029 2.443-3.876 1.349-7.837 2.023-11.882 2.191-4.719 0.253-9.945-0.422-14.58-1.349-6.91-1.433-8.849-5.563-14.496-8.427-4.466-2.359-12.303-1.012-16.939-1.012-7.078-0.084-13.062 0.506-19.635 2.865-3.202 1.096-6.068 1.518-9.523 1.771-17.023 1.433-34.552 0.337-51.574 0.253-4.129 0-8.259-0.253-12.303 0.253-3.539 0.422-6.825 1.771-10.366 2.107-12.641 1.265-25.787 0.084-38.512 0.169-9.692 0.084-16.095-0.674-25.366-2.865-5.815-1.433-12.388-1.602-18.288-0.422-12.641 2.359-24.185 8.090-37.248 8.090-16.854 0.084-33.624 0.084-50.478 0.084 1.265 0.759 2.527 1.771 3.961 2.359 4.382 1.771 9.523 1.096 14.158 1.18 3.202 0 5.984-0.506 9.186-0.927 5.647-0.843 11.629-0.253 17.276-0.337 2.443 0 4.045 0.084 6.237 0.843 1.349 0.506 2.612 0.759 3.792 1.602 0.674 0.422 1.518 1.771 2.275 2.191 3.118 1.686 7.921 0.759 11.376 1.433 1.686 0.337 3.455 1.012 5.141 1.265 8.68 1.18 18.119 0.59 26.968 1.18 3.623 0.253 2.275-0.253 4.804 1.771 0.169 0.169 0.927 1.433 1.349 1.602 2.191 1.096 5.647 0 7.753-0.422 12.894-2.865 25.787-8.764 39.187-9.017 11.629-0.253 23.513-0.759 34.973 0.253 14.664 1.349 29.242 0.674 43.906 1.18 6.237 0.253 13.315 0.253 19.467 1.771 4.214 1.096 8.343 2.443 12.641 3.37 8.006 1.771 13.568 3.623 19.803 9.27 2.107 1.939 2.949 3.37 6.068 3.876 4.045 0.674 10.366-0.927 14.496-1.518 4.129-0.506 8.596-1.096 12.641-2.527 5.815-1.939 11.123-5.984 16.601-8.849 9.355-4.888 19.131-9.017 28.905-12.894 4.635-1.855 9.355-1.012 14.411-1.686 3.792-0.59 7.5-1.602 11.292-2.275 5.647-1.096 12.051-2.107 17.697-1.518 2.78 0.253 5.647 0.253 8.427 0.674 5.478 0.759 10.703 3.033 16.095 4.298 7.415 1.771 15.001 1.771 22.501 3.202 6.741 1.265 12.641 2.275 19.551 2.275 11.207-0.084 25.028-1.096 35.985-4.214 4.298-1.265 8.427-3.37 12.725-4.466 4.551-1.096 9.102-1.18 13.568-2.949 2.949-1.096 5.225-2.612 8.343-3.37 6.657-1.686 14.411-2.275 21.236-3.033 6.741-0.759 13.399-0.506 20.056-2.023 2.359-0.59 4.382-1.349 6.657-1.771 5.225-1.012 10.871 0.422 16.18-0.337 2.023-0.253 3.961-0.927 6.068-1.012 4.045-0.253 6.068 0.337 9.776-2.191 1.349-0.927 4.551-2.78 4.298-4.804-1.939-0.337-4.214-1.433-6.068-1.518z"></path>
    <path fill="#000000" d="M326.829 689.97c-2.612 0.674-5.478 1.855-8.174 2.191-5.141 0.674-10.619-0.59-15.758-0.169-2.527 0.169-3.961 1.265-6.153 2.527-2.359 1.265-4.551 2.023-7.078 2.78-8.006 2.191-16.686 1.433-24.523 4.045-3.876 1.18-9.017 2.865-11.966 5.815-2.78 2.78-5.9 7.584-4.129 11.46 0.759 1.602 3.286 5.984 5.225 6.068 0.253-1.602 1.012-2.949 1.265-4.298 0.337-1.433-0.253-2.865 0.674-4.129 1.096-1.518 2.865-1.18 4.551-1.433 3.623-0.59 5.815-1.265 8.764-3.539 5.9-4.719 13.062-7.668 20.815-7.247 3.033 0.253 6.573 1.096 9.439 1.939 1.18 0.422 2.359 0.843 3.539 1.265 0.169 0.422 0.422 0.843 0.674 1.265 4.551 2.107 11.545 0.337 16.601 0.422 9.017 0.169 17.697 1.771 26.209 4.719 12.894 4.382 24.691 5.225 38.091 5.141 11.376-0.084 22.754-1.349 34.13-1.349 0.927 0 1.939 0 2.949 0 2.612 1.18 5.141 2.865 7.584 3.876 4.551 1.939 10.029 1.012 14.664 2.612 4.466 1.518 6.573 6.657 11.882 7.078 5.31 0.506 11.039-0.084 16.433-0.084 12.472 0 25.366-0.927 37.248-5.141 2.696-0.927 5.141-2.949 7.5-4.214 1.686-0.927 6.153-2.107 6.825-4.298 0.506 0 1.012 0 1.518 0 7.5-0.337 15.169-1.433 22.67-1.096 3.708 0.084 7.247 1.012 10.955 1.349 6.91 0.59 14.074-1.433 20.562-3.708 8.849-3.202 17.95-6.825 26.546-10.703-3.792-0.674-8.596-0.674-12.303 0.169-5.815 1.18-11.713 0.843-17.782 1.349-11.123 1.096-21.827 4.382-32.781 5.478-6.657 0.674-13.315-0.169-20.056 0.337-9.017 0.674-17.782 3.286-26.883 3.539-3.623 0.084-7.247 0-10.955 0-1.18 0-2.443 0-3.708 0-0.084 0-0.084 0-0.084 0-4.298 0-8.596 0.084-12.894 0.084-7.5-0.084-14.833-2.107-21.742-5.057-2.191-0.674-4.129-1.855-5.731-3.37-0.843-0.759-1.096-1.686-0.927-2.696-2.865-2.023-6.153-2.78-9.945-2.275-5.31-0.674-10.619-0.506-15.843 0.337-4.551 0.843-9.102 2.443-13.568 3.876-3.623 1.096-9.439 3.539-12.725 0.927-1.686-1.265-2.696-3.455-4.466-4.719-2.275-0.59-4.382-1.686-6.237-3.286-2.78-2.107-5.394-4.382-7.921-6.825-1.096-1.771-2.78-2.275-4.972-1.602-4.298 0.253-8.511 0.422-12.809 0.337-7.5-0.337-14.833-0.759-22.332-1.012 0 0 0 0-0.084 0-0.506 0.169-2.023 1.096-2.78 1.265z"></path>
    <path fill="#000000" d="M319.818 688.454c3.286 0 6.573 0.169 9.86 0.253 0.59-0.084 1.18-0.169 1.855-0.253z"></path>
    <path fill="#000000" d="M331.489 688.454h7.668c-2.023 0-5.141-0.253-7.668 0z"></path>
    <path fill="#000000" d="M845.316 692.078c-2.949 0-5.141 0-8.090-0.506-8.427-1.602-16.517-1.602-24.944-1.855-4.298-0.084-8.764-1.433-12.978-2.359-3.539-0.422-6.825-1.602-9.776-3.539-0.759-1.18-1.771-1.686-3.202-1.602-2.865 0.337-5.815 0.674-8.68 1.096-1.433 0.084-2.949 0.169-4.382 0.337-0.759-0.422-1.433-0.759-2.107-1.18-4.972-3.033-13.062-2.612-19.046-2.359-2.696 0.084-3.455 0.927-5.563 2.359-4.466 2.949-8.764 5.225-12.135 9.523-0.253 0.337-0.422 0.506-0.674 0.759-4.045 1.012-8.090 1.939-12.051 3.033-7.584 2.023-12.809 6.657-19.803 9.945-3.708 1.686-6.321 0.927-10.535 0.843-6.153 0.084-12.303 0.084-18.54 0-2.527-0.253-5.141-0.253-7.668 0.084-3.539 1.686-7.078 3.202-10.787 4.466-2.949 0.59-5.647 1.686-8.090 3.202-4.804 3.202-10.451 8.174-14.074 12.641-1.012 1.096-2.107 2.443-2.612 3.876-7.162 5.563-0.253 3.118 5.563 1.771 4.466-1.096 7.078-1.855 10.871-3.623 5.141-2.443 11.798-5.394 17.276-5.225 4.635 0.084 9.439 2.191 14.327 2.359 8.596 0.169 17.191-0.927 25.619-2.359 4.972-0.843 8.090-3.539 12.303-6.321 4.551-3.033 9.27-5.731 14.158-8.174 9.27-4.635 19.383-9.27 29.916-7.078 7.668 1.686 14.327 5.647 22.080 5.647 13.484 0 26.968-2.949 40.283-4.551 10.871-1.349 21.827-1.096 32.613-3.37 8.259-2.191 16.517-4.635 24.607-7.331 0.337-0.253 0.674-0.253 1.012-0.422-11.545 0.422-23.26-0.169-34.889-0.084z"></path>
    <path fill="#000000" d="M880.229 692.162c1.265-0.084 2.527-0.084 3.792-0.169-1.096-0.674-2.443-0.506-3.792 0.169z"></path>
    <path fill="#000000" d="M764.144 778.625c-2.443-2.107-5.478-2.443-9.102-1.012-5.225 0-10.366-0.506-15.505-1.265 0.843-1.855 1.265-3.961 2.443-5.815-3.202-0.759-7.247-0.169-10.535-0.169h-48.373c1.433 1.771 2.359 3.202 4.129 4.551-13.737 0.506-27.305 1.433-41.125 4.129-13.147 3.961-26.462 6.825-40.030 8.68-10.703 2.191-21.405 3.033-32.277 2.443-12.472-0.253-23.091-1.855-34.046-7.668-4.635-2.443-6.321-4.635-11.292-3.708-9.27 1.771-18.288 4.635-27.558 6.573-22.67 4.635-46.265 3.118-69.356 3.202-7.162-0.084-14.327 0-21.405 0.253-6.994-1.012-13.652-3.202-19.887-6.573-5.31-2.191-8.849-3.876-14.58-3.539-9.523 0.506-19.215-0.169-28.82 0.253-9.945 0.506-20.562 2.107-30.591 1.096-5.9 0.337-10.871-1.602-14.748-5.815-0.927-1.349-1.771-2.696-2.696-3.961-2.275-3.37-5.731-4.298-10.282-2.696-13.315-0.169-26.63-0.084-40.030 0.253-15.758-0.169-31.603 0.843-47.277 2.865-12.303 1.939-24.691 3.708-36.995 5.31-8.090 1.012-15.843 1.939-23.933 1.518-1.096 5.647 2.275 4.129 5.9 3.623 7.331-1.012 14.243 1.855 21.236 3.118 7.5 1.349 15.505 0.337 23.176 0.422 13.231 0.169 26.124 5.141 39.355 5.141 8.511-0.084 16.77-1.18 25.197-2.107 6.91-0.759 13.737-0.59 20.731-0.506 6.91 0 15.843-1.265 22.754-0.084 7.331 1.265 14.243 4.635 21.068 7.247 8.006 3.033 16.686 7.247 25.281 3.792 3.033-1.265 2.696-2.107 6.068-3.033 4.298-1.265 8.596-2.865 12.978-3.708 8.933-1.686 18.793-0.506 27.726 0.169 16.348 1.096 32.697 3.118 48.71 6.237 13.062 2.527 26.124 4.129 39.187 6.237 15.59 2.527 29.748 6.489 44.075 13.231 9.017 4.298 17.529 9.692 27.726 10.535 7.331 0.59 12.641-1.012 19.467-3.37 10.366-3.539 21.068-6.657 30.844-11.798 5.984-3.202 11.882-6.489 17.95-9.439 4.214-2.949 8.849-4.888 13.821-5.9 6.068-1.939 12.388-3.118 18.793-3.539 6.489-1.265 13.568-4.466 20.225-5.225 23.26-2.78 46.855 3.455 70.115 1.012 6.405-1.349 12.809-2.612 19.215-3.708l4.382-0.843c1.771-0.59 3.623-1.433 5.141-2.443-1.349-0.422-11.207 0.674-7.247-3.961z"></path>
    <path fill="#000000" d="M856.558 747.36c-2.78 0.253-5.815 0.422-8.596 0.169-4.214-0.337-8.006-2.023-12.303-1.012-7.5 1.855-16.011 1.18-23.681 4.214-3.455 1.433-7.247 2.443-10.619 3.961-1.349 0.674-3.37 2.612-4.804 2.359-0.084-0.422-0.169-0.759-0.253-1.096-0.674 1.012-1.602 1.518 1.518 4.551 1.012 1.012 3.455 2.107 4.804 2.443 5.478 1.433 13.737 0.506 19.215-0.422 8.090-1.433 15.927-4.298 23.765-6.573 3.118-0.927 22.923-3.876 20.899-9.523-3.033-1.012-6.825 0.59-9.945 0.927z"></path>
    <path fill="#000000" d="M200.362 694.436c1.771-0.674 6.321-2.023 15.085-11.545-10.029-1.602-20.393-2.443-30.76-2.527-6.321-0.084-10.535 0.422-16.095 2.78-3.961 1.686-8.090 3.37-12.472 3.539-6.741 0.169-13.231-0.506-19.803-2.023-5.394-1.265-11.207-0.59-16.854-0.59-4.804 0.084-9.27-0.927-13.99-1.18-2.612-0.169-5.225 0-7.837 0-2.023 0.084-3.202-0.59-5.057-1.012-5.9-1.265-12.809 1.096-18.878 1.012-2.865 0-5.141 0.422-7.837 1.18-4.045 1.012-8.006 1.855-12.135 2.359-1.855 0.169-4.972-0.253-6.153 1.602 1.012 1.18 3.202 1.096 4.635 1.18 11.966 1.012 25.113-0.843 36.827 2.191 5.057 1.265 9.776 1.18 15.001 1.18 11.46-0.084 22.67 0.759 34.13 1.096 16.601 0.422 33.203 2.191 49.805 2.612 4.298 0.084 8.343-0.337 12.388-1.855z"></path>
    <path fill="#000000" d="M481.207 893.488c6.994 0.843 13.315 1.18 20.309 1.18 3.455 0 6.573-0.253 9.86 0.253 6.994 1.265 13.905 2.527 20.899 3.033 4.298 0.337 6.741 0.59 10.029-2.023 1.265-1.012 2.023-2.359 3.539-3.286 2.949-1.939 6.91-2.359 10.366-2.78 5.647-0.674 12.051 0 17.613-1.433 6.91-1.771 13.399-5.478 19.972-8.259 11.798-4.888 23.849-9.27 36.491-11.292-9.102-1.686-18.793-2.107-28.063-3.033-7.247-0.674-15.169-1.771-22.417-1.349-6.489 0.422-12.388 2.359-18.625 3.961-11.207 2.527-22.585 4.382-33.961 5.563-4.972 1.096-9.86 1.518-14.833 1.18-0.59-0.927-0.674-2.275-0.59-3.37-1.686-0.59-4.888-0.084-6.489-0.084-8.764 0.169-17.023-1.012-25.703-2.527-14.158-2.443-28.315-2.865-42.304-6.068-9.27-2.191-18.119-2.527-27.558-2.612-6.657 0-13.231-0.506-19.719 1.265-9.186 2.443-17.866 6.994-27.389 8.427-0.759 0.084-3.961 0.843-4.466 0.169 0.674-6.489-4.466-3.623-9.945-1.18-3.118 1.349-6.994 2.275-10.282 2.949-4.635 1.096-9.607 3.033-14.411 3.202-2.696 0.169-10.955-1.686-12.894 1.096 0.337 1.433 3.623 3.118 4.804 4.129s2.359 2.191 3.539 3.118c2.443 1.855 5.647 2.023 8.596 2.275 6.405 0.674 13.484 0.59 19.887-0.084 3.455-0.337 6.825-1.012 10.366-0.927 5.984 0.084 12.051-0.253 18.035-0.084 6.068 0.253 12.135 1.349 18.203 1.349 9.017-0.084 17.191 3.033 26.040 4.298 8.596 1.18 17.444 0.337 26.124 0.422 11.629 0.169 23.429 1.18 34.973 2.527z"></path>
    <path fill="#000000" d="M282.208 466.649c-5.984 0-11.882-0.674-17.866-1.012-0.506 0-1.265-0.084-1.939-0.084 0.422-0.253 0.843-0.422 1.265-0.59 2.443-0.759 10.703-0.506 11.123-0.506 3.37-0.253 6.825-0.759 10.282-1.012 2.865-0.084 6.068-0.253 8.849 0.084 3.539 0.422 6.825 1.939 10.282 2.865-7.162-0.59-15.001 0.253-21.995 0.253zM646.685 514.263c-2.191-1.433-4.382-2.865-6.573-4.298-2.023-2.612-4.382-5.057-7.247-6.489-2.612-1.433-4.129-2.865-6.91-3.961-4.045-1.602-8.174-2.696-12.219-4.214-2.78-1.096-4.804-1.518-7.753-1.518-0.59 0-1.096 0.084-1.686 0.084-2.359-1.686-4.804-3.455-7.331-4.888-0.759-0.843-1.518-1.686-2.275-2.443-3.708-3.118-9.017-5.563-13.147-8.174-2.527-1.602-5.478-2.78-8.596-3.792-0.674-0.759-1.433-1.433-2.527-1.855-2.78-1.349-5.9-1.012-8.764-1.518-0.422-0.084-0.674-0.084-1.012-0.084-0.843-0.253-1.686-0.422-2.443-0.59-5.225-1.349-10.787-4.214-16.095-4.719-2.527-0.253-5.31 0.169-7.837 0.169-1.349 0-3.961-0.506-5.141-0.084s-2.359 1.18-3.455 2.023c-5.057 1.433-9.945 3.623-14.243 5.057-14.074 4.804-29.832 0.674-44.328 3.623-6.825 1.349-13.652 1.855-20.478 2.107-0.506-0.674-0.927-1.265-1.518-1.855-6.405-5.984-14.243-7.5-22.332-8.511-4.551-0.59-10.198-0.422-14.748 0-4.129 0.337-8.343 2.359-12.303 3.961s-7.247 4.045-10.619 6.489c-5.31 3.876-13.99 4.045-20.225 4.466-4.466 0.253-8.849 0.506-13.315 0.674-7.584-2.443-14.917-5.9-22.501-9.102-2.949-1.349-5.731-2.107-8.764-3.286-3.876-1.349-7.415-3.792-11.46-4.635-1.096-2.527-2.191-3.37-5.057-4.804-3.37-1.686-7.078-2.359-10.451-4.129-2.612-1.349-3.286-1.771-6.321-1.686-4.972 0.084-9.945 0.084-14.833 0-1.012 0-2.359-0.337-3.202-0.084-2.359 0.59-5.225 3.202-7.331 4.635-1.855 1.349-3.792 3.118-5.815 4.298-2.107 0-4.298 0-5.9 0.337-0.253 0.084-0.506 0.084-0.759 0.169-3.286 0.843-6.489 2.78-9.607 4.045-3.539 1.433-7.162 2.191-10.703 3.37-6.741 2.107-15.253 5.984-20.225 10.955-1.855 1.686-3.118 3.792 3.455 3.202 4.972-3.202 11.376-5.141 16.854-8.006 12.725-6.405 26.462-9.607 40.873-9.102 5.057 0.253 9.017 0.59 13.399 2.865 7.921 4.214 19.131 8.596 28.147 9.439 6.573 0.59 13.231-1.096 19.635 1.771 2.865 1.265 4.719 2.865 6.825 5.225 1.265 1.433 2.527 3.708 4.298 4.551 4.972 2.612 12.725-0.674 17.95 0.422 7.415 1.518 14.496 5.984 21.827 8.090 4.719 1.349 8.511 1.855 13.315 1.771 7.415-0.253 14.748-0.253 22.164-1.096 8.174-1.012 15.337-3.37 23.176-5.394 9.017-2.275 17.613-4.635 26.293-8.090 5.31-2.107 9.86-4.129 15.927-4.719 1.265-0.084 2.443-0.084 3.708-0.169 1.771 0 3.623-0.084 5.394-0.169 7.162 0 14.411 0.59 21.574 0.253 5.225-0.169 10.451-1.012 15.674-1.939 1.939 2.696 2.696 3.961 5.731 5.731 2.696 1.518 4.045 2.696 7.162 3.37 3.286 0.759 6.91 1.18 10.282 1.265 7.247 0.253 14.411 0.337 21.236 3.286 6.489 2.865 12.051 6.91 18.288 10.282 8.511 4.719 18.625 5.563 27.642 8.174 6.237 1.771 13.905 2.612 20.393 2.527 2.78 0 3.202 0 5.731 1.096 1.939 0.843 9.439 4.214 10.703 1.686-1.433-1.771-4.551-2.949-7.331-3.792 0.506 0 0.927 0.084 1.433 0.084-1.771-1.096-3.202-2.023-3.708-2.359z"></path>
    <path fill="#000000" d="M877.355 506.762c-2.191-1.602-12.051-0.253-14.748-0.337-7.162-0.084-14.158 1.349-21.321 1.265-5.9 0-12.219 0.843-17.95 0.253-8.427-0.843-16.939-3.792-25.281-5.984-0.759-0.422-1.602-0.843-2.359-1.265-3.623-1.855-6.321-3.876-10.198-3.961-2.107-0.084-3.202 0.337-5.394-0.422-2.78-0.927-4.551-2.443-7.331-3.118-3.876-0.927-7.5-4.972-11.292-4.888-2.696 0-6.825 3.033-8.511 5.141-1.18 1.518-1.686 2.865-2.359 4.551-0.759 1.771-1.602 3.118-2.443 4.804-0.169 0.337-0.253 0.759-0.422 1.18-9.355 1.939-19.131 1.265-28.736 1.349-7.247 0-20.562 1.349-26.462-4.888-3.708-4.804-8.174-6.741-13.568-8.427-4.298-1.349-8.006-3.539-12.303-4.888-3.623 0.253-7.331-0.506-10.703-3.033-0.337-0.253-0.674-0.506-1.012-0.759-0.843-0.337-1.686-0.674-2.527-1.096-2.023-1.012-4.888-2.023-6.657-3.623-1.012-0.927-0.843-2.443-2.612-2.275-1.096 2.527 0.084 5.478 1.939 7.162 1.349 1.265 4.129 2.107 5.731 3.286 1.518 1.18 2.949 2.359 4.382 3.539 4.298 3.708 9.523 5.984 13.99 9.523 3.876 3.118 8.764 5.31 13.147 7.753 5.394 2.865 11.966 5.984 17.866 7.247 3.033 0.674 4.719 1.096 7.837 2.865 2.78 1.602 5.815 4.382 8.764 5.394 2.275 0.843 3.876 0.422 6.489 0.253 11.039-0.759 21.405-3.455 32.613-3.623 7.5-0.084 15.169 0.843 22.585-0.169 6.237-0.927 11.629-1.265 17.95-0.253 12.051 1.855 23.765 2.949 36.154 2.949 5.731 0 14.833 1.771 20.309-0.759 6.91-3.202 12.135-10.955 19.383-13.315 1.771-0.59 3.708-0.084 5.057-1.433z"></path>
    <path fill="#000000" d="M657.549 919.106c-4.382 2.275-9.27 3.455-14.074 4.214-6.237 1.096-12.388 2.527-18.456 4.045-1.855 0.422-3.792 0.843-5.478 1.686-2.107 1.012-2.865 2.527-4.382 4.045-2.949 3.118-6.825 5.478-10.703 7.247-8.764 4.045-15.758 3.623-25.281 3.623-7.415 0-14.833 0.253-22.164-0.59-5.141-0.59-10.703-1.602-15.59 0-8.174 2.696-16.939 4.129-25.366 5.394-5.984 0.927-11.966 2.696-18.035 2.443-3.708-0.169-3.118-2.191-5.984-4.045-1.771-1.18-3.876-0.927-5.984-0.843-4.972 0.169-9.607 1.012-13.821 3.37l3.792 0.337c7.331-0.253 13.99 0.927 20.984 2.443 4.888 1.012 9.776 0.674 14.664 1.096 3.708 0.422 7.331 1.349 11.039 1.771 4.382 0.422 9.017-0.084 13.147 1.518 3.876 1.518 5.057 2.612 8.933 2.949 8.596 0.759 15.674-0.759 23.597-3.539 5.815-1.939 11.545-4.719 17.697-5.31 5.225-0.59 10.955 0.337 16.264 0 6.321-0.422 12.641-0.674 18.878-1.096 9.017-0.674 16.348-2.949 24.776-5.647 2.359-0.759 3.876-1.265 5.647-2.78 1.855-2.696 3.876-5.31 5.984-7.837 2.359-2.78 4.719-5.731 6.994-8.596 1.686-2.949 5.225-11.292 3.623-14.664-3.876 2.612-6.405 6.489-10.703 8.764z"></path>
    <path fill="#000000" d="M462.153 953.489c3.961 0.843 5.984-1.433 9.27-3.455 0.253-0.084 0.506-0.253 0.759-0.337l-25.703-1.855c5.31 1.096 10.451 4.466 15.674 5.647z"></path>
    <path fill="#000000" d="M446.445 947.844c-1.433-0.253-2.865-0.422-4.298-0.337z"></path>
    </svg>