<svg xmlns="http://www.w3.org/2000/svg" viewBox="-48.049 -48.497 1144.748 1120.684">
    <path fill="#000000" d="M997.654 498.529c-0.565 0.404-1.049 1.049-1.373 1.776 0.565-0.404 1.049-0.968 1.373-1.776z"></path>
    <path fill="#000000" d="M543.217 272.485c-1.211-1.857-3.472-2.18-5.49-2.584-1.049 2.502 4.279 5.893 5.49 2.584z"></path>
    <path fill="#000000" d="M967.009 550.034c0.646-0.565 1.373-1.049 2.422-1.131 0.081-0.323 0.161-0.646 0.242-0.968-1.534 0.968-2.26 1.614-2.664 2.099z"></path>
    <path fill="#000000" d="M965.306 551.811c-1.857 1.857-3.875 3.633-5.813 5.409-3.472 2.987-7.67 4.763-11.303 7.508-2.906 2.099-5.086 5.086-7.67 7.508-2.987 2.826-6.217 5.409-9.123 8.234-6.297 5.893-12.675 13.482-20.263 17.842-7.266 4.198-14.531 9.123-20.909 14.612-3.148 2.664-4.763 5.086-7.024 8.638-1.453 2.26-3.148 4.521-4.844 6.539-3.794 4.521-5.732 8.961-8.477 14.047-3.148 5.893-8.88 8.88-13.32 13.643-3.552 3.794-6.378 7.75-10.333 11.060-0.807 0.565-1.614 1.131-2.422 1.614 3.148-1.938 6.539-3.713 9.284-5.732 4.925-3.713 10.091-6.781 14.612-10.898 5.328-4.844 10.737-10.011 16.308-14.531 1.534-1.211 3.472-1.776 4.925-2.906 1.938-1.534 2.745-3.794 4.279-5.651 1.776-2.26 4.682-4.925 6.943-6.7s5.086-2.664 7.346-4.521c4.037-3.31 7.427-7.508 11.948-10.414 2.099-1.292 4.279-2.099 6.297-3.633 4.44-3.31 8.316-7.346 12.432-11.060 3.391-3.148 6.7-6.136 9.769-9.607 1.534-1.776 3.31-3.633 4.521-5.651 0.888-1.534 1.211-3.472 2.18-5.005 2.422-3.713 5.005-7.427 7.024-11.464 0.807-1.776 1.131-3.794 2.18-5.49 0.727-1.131 1.614-2.099 2.26-3.229 0.404-0.646 0.323-1.131 0.888-1.938-0.565 0.565-1.049 1.131-1.695 1.776z"></path>
    <path fill="#000000" d="M842.177 669.676c0.485-0.404 1.049-0.807 1.614-1.131-2.18 1.373-4.359 2.826-5.974 4.521 1.857 0 3.068-2.422 4.359-3.391z"></path>
    <path fill="#000000" d="M948.53 432.896c1.534 0.807 3.068 1.695 4.601 2.584-2.664-2.18-5.247-4.521-8.234-6.297-1.938-1.131-3.794-2.502-5.571-3.955 2.745 3.068 5.167 5.49 9.203 7.67z"></path>
    <path fill="#000000" d="M359.412 207.578c-6.943 5.167-12.513 9.526-17.357 16.711-2.584 3.875-11.303 15.338-6.781 20.424 3.875-1.049 7.75-5.005 11.222-6.62 4.279-1.938 8.799-3.552 18.083-5.409 7.831-0.081 15.338-1.695 23.169-2.906 6.781-0.968 13.482-3.229 20.263-3.875 9.445-0.888 19.052 0.807 28.498-0.727 3.633-0.646 6.943-0.646 10.657-0.565 2.584 0.081 5.974 0.565 8.477-0.565 0.807-0.323 1.453-1.211 2.26-1.695 2.826-1.534 6.136-1.938 9.042-3.552 3.148-1.695 5.49-4.118 8.316-6.136 1.695-1.292 3.713-1.695 5.409-2.745 3.713-2.099 5.409-6.378 7.67-9.769s5.328-6.054 7.831-9.284c2.26-2.906 3.633-6.378 5.813-9.284 4.118-5.49 7.185-11.544 11.867-16.55 3.552-3.713 7.75-7.185 10.979-11.060 1.695-2.018 2.906-4.44 4.359-6.539 1.534-2.341 3.875-4.037 5.571-6.297 1.938-2.664 3.229-5.167 6.054-7.024 2.987-2.018 4.682-4.521 7.266-7.024 3.875-3.552 8.477-6.297 12.675-9.526 6.458-4.844 12.513-10.253 19.295-14.612 5.732-3.713 10.253-9.042 15.823-13.159 3.955-2.906 6.943-4.279 11.867-4.359 3.875-0.081 7.75 0 11.544 0 11.948 0 24.461-0.807 36.409 0.242 6.781 0.646 8.153 1.534 11.867 6.297 3.229 4.118 8.234 7.67 10.898 12.19 2.987 5.167 2.987 13.402 2.664 19.214-0.242 3.794-2.18 9.123-4.279 12.11 2.26-0.242 4.682-1.534 6.7-2.341 5.974-2.341 11.867-4.601 17.438-7.67 6.62-3.633 9.203-6.863 10.818-14.37 1.131-4.925 2.422-10.495 1.857-15.662-0.404-3.875-2.584-6.62-4.763-10.011-3.875-6.054-8.719-13.643-15.016-17.68-1.292-0.807-2.422-1.211-4.521-2.099-9.687-4.198-18.245-10.898-27.933-15.338-7.67-3.552-16.146-6.539-24.057-9.526-5.086-1.857-10.414-3.633-15.581-5.328-6.458-2.018-14.935-3.391-21.797-3.31-6.054 0-12.19-0.646-18.164 0.727-3.229 1.373-6.458 2.341-9.849 3.068-2.906 0.161-5.651 0.807-8.234 1.938-20.021 8.316-38.67 22.523-53.443 38.266-5.651 6.054-7.104 13.482-11.383 20.344-6.136 9.769-12.756 21.070-20.99 29.305-2.422 2.502-5.571 5.732-8.799 7.104-1.373 0.323-2.745 0.565-4.118 0.727-5.409 2.018-10.414 4.682-15.097 7.992-7.589 5.005-15.984 10.091-21.394 17.518-3.633 5.086-5.813 10.898-9.284 16.065-5.651 8.316-14.935 12.593-24.057 16.388-5.893 2.422-12.19 2.745-18.083 5.409-6.378 2.906-12.029 6.378-17.68 10.576z"></path>
    <path fill="#000000" d="M184.671 312.85c4.44-4.521 7.912-8.396 13.402-11.464 5.167-2.826 9.526-6.378 14.289-9.93 1.857-1.373 3.713-2.664 5.571-3.955 5.813-3.875 11.706-5.651 17.922-8.396 0.161-0.081 0.323-0.161 0.485-0.242 2.018-2.987 3.633-6.539 5.247-9.607 2.664-4.763 5.571-9.042 8.719-13.482 2.745-3.955 5.086-8.234 8.396-11.786 8.638-9.284 16.872-18.407 24.381-28.659 4.037-5.49 8.719-10.898 10.818-17.438 2.26-7.185 3.472-13.885 3.472-21.394-0.081-7.346-1.131-15.097 2.099-21.878 3.955-8.153 9.203-14.693 14.047-22.12 1.857-2.906 3.713-5.893 5.813-8.558 1.211-1.614 1.695-2.826 2.502-4.359 2.018-3.713 5.086-7.992 7.992-11.14 5.086-5.328 13.643-6.054 20.424-3.31 11.303 4.44 13.724 12.998 17.357 23.573 1.534 4.601 3.713 12.19 2.664 17.115-0.081 0.242-0.242 0.485-0.323 0.727 2.018-2.906 3.875-5.813 5.813-8.799 4.601-7.104 5.005-15.258 5.005-23.411 0.081-11.464-4.279-23.25-14.451-29.143-5.409-3.148-12.029-6.943-18.488-6.863-2.26 0-4.198 0.081-6.458-0.161-8.073-0.968-16.711-2.584-24.784-1.534-5.328 0.727-10.818 1.049-16.146 1.938-3.875 0.565-7.104 2.018-10.737 3.472-3.391 1.373-8.073 2.099-11.060 4.198-2.502 1.695-4.521 4.359-6.539 6.539-6.054 6.62-12.11 13.966-15.338 22.362-3.713 9.849-6.863 21.797-7.024 32.373-0.081 6.7-0.081 12.917-1.292 19.375-0.888 5.328-3.148 12.271-6.054 16.792-4.601 7.104-12.352 11.303-19.941 14.612-2.987 1.373-6.863 2.584-9.607 4.521-6.863 4.925-8.477 12.836-8.234 20.587 0.404 11.464-6.217 20.263-9.769 30.839-1.938 5.813-2.664 12.917-2.906 19.052-0.323 8.477-4.682 14.855-7.912 22.523-2.664 6.217-4.279 11.222-8.88 16.146-7.508 7.992-14.612 16.065-19.537 25.753-1.695 3.31-4.279 6.136-6.458 9.284 1.776-1.938 4.521-3.633 6.136-5.086 10.414-8.961 19.698-19.375 29.386-29.063z"></path>
    <path fill="#000000" d="M369.947 146.547c-0.968 1.453-2.018 2.906-3.068 4.279 1.292-1.211 2.502-2.502 3.068-4.279z"></path>
    <path fill="#000000" d="M231.269 284.836c10.172-7.266 7.831-7.024 5.086-5.893-0.485 0.807-1.049 1.534-1.614 2.26-1.049 1.292-3.068 1.857-3.472 3.633z"></path>
    <path fill="#000000" d="M364.748 153.005c-1.776 2.018-4.359 4.359-5.571 6.781 2.906-2.745 5.328-5.732 7.75-8.961-0.727 0.727-1.453 1.373-2.18 2.18z"></path>
    <path fill="#000000" d="M147.503 349.582c0.485-0.888 1.049-1.695 1.614-2.502-0.727 0.727-1.292 1.614-1.614 2.502z"></path>
    <path fill="#000000" d="M680.79 173.752c-3.472 0.807-5.813 3.148-8.88 4.763s-5.651 3.633-8.477 5.49c-2.906 1.938-6.539 2.584-9.203 4.763-2.18 1.695-3.472 4.198-5.571 5.893-1.373 1.211-3.068 2.099-4.521 3.229-2.664 2.18-4.925 4.844-7.346 7.266-4.118 0.888-8.234 1.695-12.432 2.26-3.472 0.565-6.863 1.534-10.091 2.826-8.638 2.664-17.842 3.391-26.318 6.217-3.391 1.131-6.539 2.987-9.687 4.682-4.44 2.422-9.284 4.037-14.37 4.601-5.651 0.646-10.979-1.614-16.469-2.26 0.968 1.776 6.539 2.18 8.638 2.826 6.539 1.776 12.756 1.211 19.295 1.695 3.713 0.323 6.217 3.794 9.93 4.601 3.794 0.727 8.153 0.161 12.029 0.646 1.211 0.727 2.584 1.292 4.037 1.857 7.427 2.502 15.581 2.422 23.169 4.521 7.67 2.18 15.984 2.099 23.896 3.391 5.328 0.807 10.333 1.211 15.743 1.211 4.198 0 11.786 0.807 15.5-1.453 4.521-2.664 3.472-9.203 4.763-13.563 1.534-5.086 5.328-8.477 9.849-11.060 4.44-2.018 8.961-3.875 13.482-5.651 3.391-1.938 6.943-3.068 10.818-3.472 4.925-0.727 9.687-1.292 14.612-2.18 5.409-0.968 11.222-1.614 16.711-1.857 10.898-0.485 21.636-2.26 32.292-4.521 7.104-1.534 15.177-2.664 22.282-0.807 7.508 2.018 14.37 5.005 18.407 12.19 2.422 4.279 5.571 7.831 8.153 12.11 0.727 1.211 1.292 2.502 1.857 3.794 0 0.404 0 0.807 0 1.211 0 7.104 2.099 14.047 2.341 21.070 0.242 5.732-0.727 10.495-2.099 15.984-0.485 2.099-0.404 3.794-1.614 5.732-1.453 2.26-3.875 3.794-5.893 5.571-1.938 1.695-3.875 3.31-5.813 5.005-0.485 0-1.049 0-1.614-0.081-5.651-0.807-5.732-3.148-9.607-6.458-2.341-2.018-5.005-4.037-7.266-6.054-1.776-1.534-2.826-2.502-4.037-4.763-1.453-2.584-1.857-7.992-4.118-9.93-2.745 5.893-0.565 17.842 2.502 22.928 3.31 5.409 7.185 8.316 12.432 11.544 5.005 3.148 9.526 4.682 15.097 6.539 3.875 1.292 7.266 2.664 11.222 3.552 3.229 0.646 5.247 2.018 8.799 1.292 1.453-0.242 2.826-0.646 4.198-0.968 3.148-0.646 5.167-1.776 8.073-3.391 3.31-1.938 6.217-4.279 9.607-6.136 0.323-2.826 4.682-5.813 6.217-7.266 2.099-1.938 4.279-3.875 6.378-5.974 5.49-5.328 5.49-10.091 5.974-18.083 0.646-9.123-0.727-19.617-6.539-26.963-5.247-6.7-11.060-12.19-14.451-20.183-3.229-7.427-5.893-14.855-10.657-21.474-1.131-1.534-2.26-3.148-3.31-4.763-1.049-1.292-1.695-2.664-1.938-4.279-0.646-0.888-0.404-0.646-1.373-1.614-2.18-2.18-5.167-4.682-7.67-6.458-3.633-2.502-8.073-2.502-12.029-4.521-5.571-2.906-13.563-1.131-19.295-3.713-3.31-1.453-5.571-4.925-9.203-6.217-6.136-2.26-12.998-5.409-18.568-9.042-5.328-3.552-12.593-1.534-18.729-0.565-15.258 2.502-29.951 7.912-44.24 14.128-8.073 3.472-16.065 7.912-24.703 9.93-3.31 0.807-6.863-0.323-10.172 0.404z"></path>
    <path fill="#000000" d="M732.449 764.533c4.359-1.776 8.799-3.875 13.402-4.844 2.826-0.646 5.49-0.968 8.234-1.938l-23.169-3.472c-4.682 0-9.042 0.081-13.643 0.888-4.682 0.727-8.961 2.018-13.402 3.391-9.93 3.229-20.183 4.844-29.951 8.799-10.414 4.198-20.183 10.091-30.354 14.773-4.521 2.099-9.445 2.018-13.966 4.359-3.713 1.938-5.893 3.229-9.365 5.974-7.346 5.813-15.258 10.253-21.878 16.872-5.49 5.49-13.805 6.863-19.698 11.948-7.346 6.217-13.482 15.904-17.196 24.542-2.584 5.974-2.987 11.867-3.31 18.245-0.161 4.037-1.131 7.185-2.422 10.898-4.521 12.756-17.842 18.003-26.963 26.802-2.018 2.341-4.279 4.521-6.539 6.539-2.18 1.695-4.359 3.31-6.62 4.844-0.888 1.292-1.534 2.664-2.099 4.037-1.453 2.745-3.229 5.247-5.409 7.346-3.472 3.472-7.024 6.781-10.818 9.93-4.521 2.826-9.365 4.682-14.612 5.651-5.571 2.018-11.222 3.713-17.034 5.167-5.651 0.485-11.303 0.646-16.954 0.404-8.477-0.323-18.083-1.857-25.995-4.925-0.404-0.968-1.211-1.453-2.502-1.292-2.745-0.404-5.49-0.968-8.153-1.857-1.695-0.242-2.987-0.242-4.682-0.565-4.682-1.131-11.060-2.502-15.016-5.328-9.687-6.943-19.375-13.966-28.417-21.878-3.955-3.391-4.037-4.118-4.037-9.284 0-6.297 0.646-13.32 3.633-19.052 2.26-4.118 7.346-9.365 11.948-10.979 3.148-1.131 3.713-0.323 6.136 0.888 2.987 1.373 7.346 0.888 6.054 5.571 4.198-7.104 2.826-17.034-1.534-23.493-2.745-3.875-2.341-5.409-7.024-5.328-2.664 0.081-6.054-0.565-8.719-0.081-4.279 0.888-8.638 1.373-12.917 2.18-3.068 0.565-4.682 1.131-6.863 3.713-3.552 4.359-6.7 8.961-9.203 13.885-1.938 3.955-5.409 7.185-7.266 11.464-3.713 8.719-3.391 15.904-2.099 25.107 0.968 6.217 1.453 6.136 2.341 10.737 0.242 1.131-0.081 2.099 0.242 3.31 0.565 2.18 1.776 3.955 2.18 6.136 0.646 3.229 0.404 5.328 2.018 8.638 3.391 7.024 4.44 16.55 12.19 20.183 2.906 1.373 5.328 2.018 8.153 3.713 5.651 3.148 11.948 3.472 18.164 4.601 6.781 1.292 12.836 2.502 19.375 4.763 8.961 3.148 16.63 8.799 25.107 13.239 4.198 2.26 9.365 3.148 13.966 4.682 4.037 1.373 7.831 3.633 11.867 4.925 7.346 2.26 16.792 2.422 24.219 2.584 7.992 0.242 15.338-0.404 23.169-1.857 3.391-0.646 6.539-2.018 9.849-2.826 2.906-0.807 7.185-0.485 9.769-2.26 3.31-2.26 4.037-3.391 8.396-4.682 9.769-2.826 19.295-6.217 29.225-8.719 7.589-1.857 14.612-5.49 22.12-7.589 5.571-1.614 10.495-3.148 13.805-8.396 0.646-0.968 0.807-2.26 1.453-3.068 1.131-1.534 3.552-2.745 4.844-4.118 4.037-4.279 8.88-8.073 12.432-12.756 2.826-3.633 5.005-7.67 7.024-11.786 2.664-5.247 5.651-9.284 6.62-15.258 0.161-1.211 0-2.341 0.081-3.552 0.404-3.472 3.068-7.992 4.198-11.060 2.906-7.589 4.359-14.935 8.073-22.201 2.018-3.794 3.229-8.073 5.409-11.706 2.018-3.472 5.005-7.104 7.75-10.011 2.906-3.229 5.409-6.539 8.396-9.445 7.024-6.7 12.513-15.823 17.68-23.977 3.713-5.813 6.378-11.383 9.042-17.761 1.938-4.682 4.521-9.042 8.153-12.513 6.297-5.974 14.451-8.719 21.474-13.643 6.863-4.682 14.128-5.247 21.636-8.234z"></path>
    <path fill="#000000" d="M367.008 812.083c4.844-0.646 8.558-4.198 13.159-4.521 3.472-0.242 7.589-0.323 11.060 0.323 2.664 0.485 4.925 0.968 7.67 0.888 1.211 0 2.422-0.242 3.633 0.081 3.148 1.049 5.49 4.682 9.123 5.571 0.888 0.161 1.776 0 2.584 0.242 2.987 0.968 5.651 4.118 8.719 5.247 1.534 0.565 3.068 0.968 4.601 1.614 2.745 1.211 5.086 2.987 7.75 4.198 9.365 4.521 18.003 7.992 28.659 8.558 8.88 0.404 18.164 0.888 26.641-2.018 7.912-2.745 14.047-9.042 20.505-14.128 6.539-5.005 12.756-11.303 17.276-18.325 1.614-2.502 2.018-4.198 1.938-7.266l-18.488 3.472c-5.974 0.242-12.029-0.727-17.842-1.695-4.844-0.807-10.253-1.292-15.097-2.422-8.396-2.018-16.469-5.328-25.027-7.024-5.086-0.968-10.414-1.453-15.419-2.664-4.118-1.049-7.992-2.745-12.029-4.279-3.713-1.373-6.297-1.857-10.172-2.422-3.552-0.565-6.781-1.857-10.253-2.502-7.104-1.211-15.5-0.323-22.362 1.534-9.445 2.584-18.488 5.005-27.609 8.719-11.14 4.601-22.362 8.88-33.584 13.159-7.75 2.987-14.37 4.521-22.766 4.359-7.67-0.081-15.419-1.614-22.928-3.391-2.987-0.727-6.539-2.18-9.607-1.211-4.763 1.534-9.445 6.054-13.482 8.88-11.544 8.073-26.883 7.266-39.961 3.875-3.794-0.968-7.508-3.955-8.073-8.316-0.565-3.875 0.404-9.445 0.968-13.239 0.323-2.26 0.404-5.328 1.534-7.346 1.857-3.068 6.7-6.378 10.333-7.024 2.826-0.485 5.893-0.161 8.719-0.161 2.018 0 5.49-0.565 7.508 0.161 0.485 3.31 0.161 7.104-2.422 9.526-3.31 3.068-9.284 2.018-12.19 5.086 1.857 4.279 13.159-2.018 15.823-3.148 5.974-2.584 5.813-10.737 5.813-16.227 0-2.987 0.646-6.539-0.242-9.365-1.534-5.005-5.651-7.67-9.365-11.060-3.31-2.987-5.328-5.409-9.445-6.943-3.31-1.131-6.7-1.614-10.172-2.26-6.297-1.131-12.432-2.422-18.81-1.534-6.054 0.888-14.128 2.987-17.761 8.234-2.099 2.906-4.925 5.409-6.7 8.316-2.26 3.713-4.118 7.992-6.054 11.867-3.472 7.104-3.713 18.488-2.341 26.237 0.646 3.633 2.745 6.7 3.229 10.333 0.565 4.279 1.776 7.912 3.794 11.706 1.857 3.633 4.44 4.682 7.67 7.346 2.341 2.018 4.44 4.118 6.943 5.974 4.037 2.906 8.961 5.49 13.32 7.912 2.26 1.211 4.44 2.422 6.943 2.745 5.893 0.646 11.706 1.049 17.599 2.099 3.068 0.485 5.571 0.485 8.558 1.373 5.409 1.534 11.544 2.422 17.115 2.341 9.123-0.081 17.68-0.323 25.834-4.925 5.086-2.906 10.737-5.167 16.065-7.67 5.005-2.26 10.011-2.584 15.177-4.359 5.974-2.18 11.303-5.732 17.599-7.104 8.153-1.857 16.227-4.198 24.381-5.893 7.427-1.534 14.531-0.565 21.958-1.534z"></path>
    <path fill="#000000" d="M942.54 671.856c0.485 7.427-1.453 14.289-5.813 20.424-7.185 8.073-14.451 16.146-21.716 24.138-5.732 7.427-12.756 13.239-21.151 17.276-7.589 4.118-15.419 7.346-23.654 9.849-4.521 0.727-8.961 0.807-13.482 0.242-2.018-0.404-3.794 0-5.247 1.211l31.242-24.381c-5.49 1.292-11.14 2.18-16.63 3.633-5.247 1.373-10.253 4.44-15.177 6.781-7.104 3.391-14.37 6.458-21.151 10.495-6.863 4.118-13.724 8.153-20.587 12.352-4.601 2.906-8.88 6.458-13.563 9.123-3.633 2.099-7.67 2.422-10.979 5.167-5.813 4.844-8.396 11.948-8.558 19.214-0.081 4.521 1.049 8.558 1.292 12.917 0.404 8.719-1.049 16.954-1.211 25.51-0.161 7.266-2.422 14.289-2.422 21.555 0 4.521-0.888 8.799-3.955 12.513-2.906 3.552-7.992 7.104-12.029 9.365-5.005 2.826-10.253 6.217-15.823 7.589-2.502 0.646-5.328 2.826-7.75 2.745-3.794-0.161-5.167-4.521-5.571-7.75 0.242-2.26 0.081-4.521-0.565-6.7-0.646-1.131-1.211-2.341-1.614-3.552-0.485-2.099-0.161-4.279-0.161-6.378 0-2.826 0-5.328 0.565-7.992 0.323-1.695 1.049-3.068 0.485-4.682-2.099-0.485-3.955 1.049-5.49 2.18-3.713 2.826-8.477 6.378-11.786 9.687-3.148 3.229-5.974 7.346-7.912 11.383-3.148 6.7-1.534 16.146 0.323 22.928 1.131 4.198 5.893 8.153 9.445 10.495 1.695 1.131 3.472 1.695 5.247 2.502 3.472 1.534 6.539 4.037 10.253 5.167 3.955 1.211 8.153 1.695 12.19 2.745 3.794 1.049 7.912 1.614 11.786 2.099 8.073 0.888 18.407 1.292 25.51-3.068 7.912-4.844 15.5-9.93 15.581-20.102 0-6.136-0.323-12.11 0.565-18.164 1.453-10.253 3.148-20.505 5.247-30.596 2.502-11.786 6.458-23.977 14.047-33.503 4.118-5.086 9.445-9.123 14.289-13.482 5.005-4.601 8.961-9.042 15.016-12.029 9.607-4.763 19.537-9.203 28.982-14.289 5.651-2.987 10.898-6.458 16.63-9.365 5.086-2.584 9.284-5.247 13.885-8.558 7.912-5.732 17.842-10.495 23.977-18.164 6.943-8.799 13.159-20.344 15.743-31.162 1.776-7.185 2.26-14.531 3.472-21.878 0.888-5.49 1.534-10.818 0.807-16.388-3.875 0.565-2.502 9.123-2.584 10.898z"></path>
    <path fill="#000000" d="M962.852 535.261c-5.328 5.086-11.544 8.961-17.922 12.675 0.888-0.888 1.614-1.776 2.584-2.502 2.502-2.099 5.893-2.826 8.316-4.925 1.857-1.534 2.745-3.875 4.844-5.328 1.373-0.968 2.906-1.695 4.44-2.341-0.727 0.807-1.453 1.614-2.26 2.422zM557.265 733.453c-5.974 0-12.19-0.485-18.164 0.242-4.844 0.646-9.526 1.131-14.37 0.807-6.863-0.323-13.482-0.807-20.344-0.968-0.242 0-0.485-0.081-0.727-0.081 3.391 0.081 6.781 0.081 10.091 0.081 7.104 0 14.128 0.404 21.070-1.211 3.068-0.807 5.893-1.292 9.123-1.211 4.925 0.081 9.93-0.081 14.855-0.081 8.234 0.081 16.469 1.614 24.703 2.099-8.558 1.131-17.761 0.323-26.237 0.323zM223.123 664.025c-11.786-4.601-22.201-11.060-32.049-19.052-5.005-4.118-9.284-8.638-15.016-11.625-1.614-0.807-3.229-1.695-4.763-2.502 2.584 0.888 5.167 1.857 7.75 2.906 5.49 2.422 10.657 5.167 16.469 6.943 3.31 0.968 6.781 1.695 10.333 2.422 0.807 0.888 1.695 1.776 2.664 2.664 3.31 2.906 7.508 4.601 11.222 6.943 6.863 4.279 13.159 9.365 20.909 11.867 4.682 1.453 9.284 3.713 14.128 3.875 5.409 0.161 10.172 1.049 15.258 2.906 4.037 1.534 8.558 2.584 12.513 4.118 1.695 0.727 2.745 1.857 4.601 2.341 5.813 1.211 11.706 2.341 17.518 3.875 2.502 0.565 5.409 0.888 7.67 2.018 2.584 1.131 3.713 3.229 5.651 5.247 1.453 1.534 3.391 2.664 5.409 3.713-0.485 0.081-0.888 0.242-1.373 0.242 0.646 0 1.292 0.081 1.938 0.081 0.807 0.485 1.614 0.888 2.422 1.373 6.054 3.229 12.756 3.552 19.537 3.391 1.453 0.404 2.987 0.807 4.521 1.292-0.646-0.485-1.292-0.968-1.938-1.373 2.18-0.081 4.359-0.161 6.539-0.161 19.133-0.242 37.62 4.44 56.673 4.682 7.266 0.081 14.128 0.404 21.313 1.049 6.297 0.485 12.593-0.485 18.81-0.081 5.651 0.404 11.060 3.148 16.388 4.844 5.893 1.776 12.029 2.987 18.164 3.955 5.086 0.807 10.253 0.404 15.338 0.888 9.769 0.888 19.456 0.888 29.225 0.888 24.381-0.081 48.277 0 72.092-5.732 6.217-1.534 11.786-3.391 17.438-6.297 5.571-2.826 9.123-6.136 13.32-9.849-1.534 0.161-3.068 0.323-4.682 0.727-3.794 0.807-6.943 1.453-10.898 1.453-1.938 0-4.118-0.323-6.054 0.081-1.534 0.323-2.502 0.968-4.118 1.131-1.373 0-2.745-0.242-4.037-0.081-2.26 0.242-4.279 1.131-6.539 1.211-4.925 0.161-9.526 0.727-14.451 1.534-4.682 0.807-9.445 2.341-14.128 2.826-10.333 1.292-21.474 0.242-31.969 0.242-5.732 0-11.464 0-17.196 0-6.297 0-12.271-1.211-18.488-1.131-5.328 0-10.737-0.081-16.065 0-13.966 0-27.287-2.664-40.769-6.7-7.831-2.341-15.743-5.086-23.815-5.893-3.875-0.485-6.7-1.453-10.495-2.26-7.67-1.695-15.823-0.161-23.331-2.502-10.495-3.31-21.394-3.875-32.212-5.328-6.054-0.727-12.029-0.485-17.922-2.26-2.987-0.888-5.974-1.534-9.042-2.018-3.229-2.099-6.378-4.118-9.526-6.539-4.925-3.875-9.526-7.185-15.016-10.172-6.62-3.472-14.209-4.521-20.587-8.719-1.453-0.968-2.826-2.18-4.118-3.31-0.323-0.323-0.646-0.727-0.727-1.049-0.323-1.131 0-2.906 0-4.118 0.081-2.664-0.485-4.037-1.453-6.378-0.888-2.341-0.807-4.198-0.807-6.781 0-5.732-1.131-10.818-3.955-15.823-2.18-3.875-5.571-7.346-7.185-11.625-3.148-8.799-2.018-19.295-6.054-27.852-0.727-1.453 0.242-0.404-1.292-1.857-1.211-1.211-3.472-1.695-4.844-2.664-1.938-1.373-3.31-2.826-3.472-5.167-0.242-3.068 1.292-6.7 1.292-9.93 0.081-2.422 0-4.925 0-7.346 0-8.88-0.323-17.761-0.081-26.56 0.081-4.118 0.485-8.719 1.292-12.675 0.565-2.584 2.099-4.521 2.584-7.185 1.049-5.247 1.534-10.657 2.18-15.984 0.968-7.508 2.906-15.258 4.763-22.685 1.614-6.539 3.472-10.414 7.992-15.581 4.279-4.844 8.396-10.091 13.159-14.289 1.776-1.614 2.584-2.502 3.472-4.925 2.099-5.409 1.776-12.675-0.081-18.245-0.807-2.341-2.664-4.118-2.987-6.7-0.161-1.776 0.565-3.713 0.888-5.409 1.938-9.769 5.651-19.133 13.482-25.51 0.565-0.485 1.131-0.888 1.614-1.373 0.888-0.242 1.776-0.565 2.664-0.807 7.185-2.18 13.239-5.651 20.183-8.638 10.657-4.521 21.232-9.365 31.727-14.209 2.745-1.211 5.893-2.26 8.558-3.794 1.211-0.646 2.341-1.453 3.472-2.26 0.727-0.081 1.534-0.242 2.26-0.485 1.211-0.323 5.732-2.745 5.409-2.584 4.279-1.776 9.123-2.987 13.159-5.328 0.242-0.081 0.323-0.242 0.485-0.323 2.664-0.646 5.328-0.968 7.912-2.018 1.534-0.727 2.826-1.292 4.359-1.776 10.979-3.229 22.362-5.086 33.584-6.297 4.44-0.485 8.558-1.695 12.675-2.987 12.352 0.242 24.703 0.323 37.055-0.242 6.781-0.323 12.271-0.968 18.81 0.242 7.024 1.211 14.128 1.211 21.151 2.584 7.992 1.453 15.5 4.037 23.573 5.247 8.234 1.211 15.581 4.925 23.169 8.316 7.75 3.391 15.177 3.713 23.411 3.552 20.667-0.242 42.060 0.485 62.323 4.601 16.469 3.391 32.534 8.477 49.003 11.948 10.011 2.099 19.778 4.279 29.225 7.912 2.018 1.131 4.118 2.26 6.217 3.472 4.037 2.26 7.831 4.198 11.786 6.62 8.88 5.409 17.438 10.979 24.864 18.407 3.148 3.148 6.297 7.831 7.992 11.948 2.18 5.005 1.049 11.383 1.049 16.792 0 3.148 0.242 6.378 0.081 9.526-0.161 1.857-0.565 1.695-1.211 3.391-1.695 4.44-3.068 10.091-2.26 14.935 0.968 5.893 5.167 10.253 8.558 15.016 4.198 5.974 8.153 11.544 10.898 18.325 2.422 6.136 4.763 12.271 6.781 18.568 3.229 9.93 4.44 20.344 7.104 30.435 1.534 5.974 3.955 11.625 5.49 17.518 2.018 7.67 2.826 14.531 2.826 22.443 0.081 10.898-2.341 21.474-4.601 32.131-0.807 3.794-2.18 7.266-3.391 10.737-3.148 2.341-6.458 4.763-9.849 6.378-2.906 1.292-5.167 2.018-7.67 4.118-9.93 8.638-17.761 19.456-28.417 27.206-6.781 4.844-13.885 8.638-21.716 11.464-3.148 1.131-6.297 2.341-9.284 3.794-8.234 3.955-15.177 9.123-24.057 11.948-5.571 1.776-11.14 4.037-16.872 5.167-3.229 0.565-6.458 0.565-9.687 0.968-5.247 0.727-10.091 2.18-15.5 2.099-4.682-0.081-9.607-0.646-14.209 0.485-3.068 0.727-5.893 1.373-8.961 1.776-5.086 0.646-8.153 1.614-12.029 4.925-0.807 0.807-1.614 1.453-2.422 2.18 1.292-0.081 2.502-0.161 3.875-0.161 1.049 0 4.037-0.565 4.925 0.161 1.534 1.292-0.323 4.844-0.727 6.054-1.776 5.409-2.745 12.917-7.589 16.146-3.552 2.341-7.185 3.31-11.383 3.955-6.458 1.049-12.836 2.826-19.295 3.875-13.402 2.26-26.399 2.18-39.961 2.26-11.544 0.081-23.008-1.373-34.472-2.422-9.123-0.807-18.083-1.938-27.206-2.341-6.136-0.323-13.078-0.485-18.971-1.857-15.904-3.713-31.404-8.316-47.792-8.396-8.316-0.081-16.872-0.242-25.107-1.453-8.073-1.131-15.904-3.068-24.057-3.875s-16.469-0.485-24.623-1.857c-3.794-0.646-7.346-1.776-10.979-2.906 1.614 1.373 2.745 3.31 2.906 6.378-6.458 1.211-12.917 2.502-19.456 3.31-8.316 1.049-15.581-0.323-23.411-2.664-5.651-1.695-9.687-4.359-14.531-7.427-5.247-3.391-11.303-5.732-16.872-8.396-18.568-8.88-36.813-18.649-55.946-26.237zM94.278 550.68c0.404 0.161 0.888 0.404 1.292 0.646 0.242 0.727 0.646 1.453 0.888 2.26-0.081-0.161-0.161-0.242-0.242-0.323-0.565-0.646-1.292-1.534-1.938-2.584zM395.481 323.991c-2.826 1.211-5.651 2.26-8.477 3.391 0.888-0.646 1.776-1.373 2.745-1.776 0.968-0.485 3.391-1.049 5.732-1.614zM414.291 317.29c-1.211 0.485-2.502 0.888-3.713 1.292 0.565-0.404 1.049-0.807 1.776-1.049 0.646-0.081 1.292-0.161 1.938-0.242zM323.793 342.801c2.987-1.938 5.974-4.44 9.284-5.651 5.49-0.323 10.979-0.404 16.469-0.161 0.727 0 1.534 0 2.26 0-2.826 1.211-5.409 1.857-8.719 2.664-6.378 1.453-12.836 2.341-19.295 3.148zM157.813 428.132l2.502-8.073c1.453-0.968 2.987-1.776 4.44-2.584-2.26 3.552-4.601 7.185-6.943 10.657zM245.647 421.512c-1.211 3.31-3.068 6.943-5.086 9.769-5.893 8.477-16.872 12.917-18.568 24.138-0.807 5.328 3.148 7.266 4.521 11.867 0.888 2.906-0.161 7.024-0.646 9.849-0.485 3.713-1.049 7.67-2.099 11.303-1.292 4.279-3.068 7.75-2.906 12.271 0.485 10.979 1.534 22.040 2.18 33.099 0.161 2.664 1.373 10.253-0.081 12.593-1.453 2.422-5.813 1.614-7.024 3.875-0.242 0.485 0.161 3.633 0.242 4.359 0.161 2.26 1.131 3.794 1.776 6.054 0.807 2.584 0.727 5.005 1.695 7.508 2.18 5.813 2.26 10.737 7.104 15.016 2.422 2.099 5.893 4.44 7.104 7.589 1.776 4.682 1.614 12.756-0.161 17.438-0.161 0.404-0.404 0.646-0.565 0.968-2.18-0.727-4.359-1.292-6.62-1.857-0.161-0.242-0.404-0.565-0.646-0.807-1.857-2.341-4.118-2.987-6.378-4.682-7.831-5.893-17.599-8.153-24.461-15.338-2.502-2.502-2.584-5.651-3.148-8.961-1.049-5.974-3.391-12.029-5.005-18.003-0.646-2.584-2.018-3.633-2.987-5.893-1.373-3.229 2.584 1.049-1.453-4.763-2.341-3.31-5.247-6.054-7.992-8.961 0-2.987 0-5.893 0-8.88 0-10.091-1.453-21.313 2.341-30.839 2.18-5.571 3.552-11.706 4.44-17.599 0.323-2.502 0-4.763 0.807-7.104 1.614-4.359 3.794-8.073 4.925-12.675 0.807-3.472 1.857-6.136 3.068-9.284 0.807-1.938 2.18-3.633 3.068-5.49 0.888-2.099 0.565-3.955 1.292-5.974 0.565-1.292 1.776-2.422 2.502-3.713 0.565-1.211 0.485-1.857 0.968-3.148 0.565-1.292 1.453-2.584 2.099-3.875 1.211-2.745 2.664-5.49 3.633-8.396 0.404-1.211 0.727-2.664 0.968-4.118 9.849-5.005 19.375-11.222 28.901-16.63 5.167-2.987 8.396-5.813 10.898-11.14 1.453-2.906 3.472-4.763 5.328-7.266 1.695-2.26 2.987-4.44 5.409-6.054 0.968-0.727 1.938-1.292 2.987-1.857 2.664-0.485 5.328-0.888 7.992-1.292-2.664 3.068-5.409 6.136-7.992 9.284-2.826 3.31-6.539 6.136-8.638 9.849-3.148 5.571-3.148 9.769-3.068 15.823 0 4.037 0.565 8.153-0.727 11.948zM251.782 354.991c12.917-8.073 26.802-14.289 39.397-23.008 6.458-4.521 11.948-8.799 19.456-11.786 6.943-2.826 13.32-6.458 20.263-9.123 9.849-3.794 18.729-9.284 28.175-13.563 3.472-1.534 7.427-1.695 11.060-2.502 3.148-0.727 6.136-1.695 9.123-2.584 4.279-1.211 8.88-2.826 13.078-3.955 4.601-1.131 9.93 1.211 14.37-0.081 0.968-0.242 1.131-1.049 2.26-1.292 3.955-0.807 7.831 0.161 11.786-1.695 0.807-0.807 1.776-1.373 2.826-1.776 1.292 0.565 2.584 0.323 3.875-0.565 5.005-1.695 8.396-5.409 13.402-7.024 5.813-1.938 9.849-3.955 15.662-3.955 4.925 0 10.576 0.807 15.419-0.161 5.813-1.292 11.303-2.745 17.115-3.552 9.203-1.292 18.649-0.727 28.094-0.968 6.62-0.161 13.563 1.131 20.102 2.422 0.161 0.081 0.323 0.081 0.485 0.081 0.242-0.485 0.646-1.049 1.614-1.373 2.502-0.968 8.638 1.534 10.576 1.857 3.148 0.646 5.571 0.485 8.719 0.807 8.396 0.646 16.55 1.614 24.784 3.391 7.266 1.614 14.451 4.279 21.474 6.458 4.037 1.292 7.266 4.279 11.14 5.893 3.955 1.695 9.123 2.584 13.159 4.037 5.732 2.018 11.464 2.987 16.954 5.409 5.247 2.341 10.414 3.552 15.904 4.763 0.485 0.161 0.968 0.404 1.453 0.565 5.167 1.695 10.253 3.472 15.419 4.844 0.888 0.323 1.695 0.646 2.584 0.888 1.211 0.404 2.502 0.565 3.713 0.646 0.888 0.161 1.695 0.323 2.584 0.485 5.813 0.888 11.383 2.422 17.115 3.955 2.18 0.565 4.359 0.727 6.539 1.131 0.485 0.161 0.888 0.242 1.292 0.404 2.341 0.888 4.682 1.857 7.104 2.906 3.875 2.422 7.266 5.409 11.625 7.589 3.148 1.614 5.409 2.987 8.88 3.552 0.323 0 0.727 0.081 1.131 0.081 1.292 0.888 2.584 1.695 3.955 2.422 2.502 1.373 5.167 2.018 7.831 3.068 4.925 1.857 10.091 3.229 15.097 5.005-5.167-0.565-10.333-1.453-14.935-2.826-5.086-1.453-9.687-2.341-14.693-3.552-10.011-2.26-19.375-7.185-29.386-9.607-7.912-2.018-16.227-2.826-24.219-4.44-11.303-2.26-22.362-5.167-33.665-7.427-6.781-1.292-11.706-2.906-17.68-6.054-2.099-1.131-4.198-2.099-6.378-2.987-0.646-0.565-1.292-1.131-2.018-1.695-3.875-1.695-6.458 4.118-8.558 6.539-12.029-2.502-22.362-8.396-33.18-13.885-6.62-3.391-13.159-6.62-20.505-6.7-8.396-0.081-16.55-1.776-24.784-2.341-3.552-0.161-6.863 0.081-10.333-0.485-19.778-3.633-40.043-6.62-60.306-5.247-17.115 1.211-33.665 10.818-48.035 19.698-8.558 5.328-17.842 6.217-27.287 9.203-4.279 1.373-8.396 3.713-12.675 5.247-3.794 1.373-7.508 1.211-11.383 2.18-3.148 0.807-6.7 2.018-9.769 3.31-3.229 1.373-4.763 4.118-7.346 6.136-4.682 3.552-13.885 5.167-19.698 5.328-1.695 0-3.391-0.242-5.086-0.404-2.745-0.404-5.651-1.453-8.477-0.807-3.552 0.888-6.378 2.18-10.172 2.26-5.49 0.081-8.073-0.081-12.836 2.26-1.453 0.727-2.987 1.292-4.521 1.938-4.601 2.018-8.558 5.167-12.998 7.508-4.682 2.502-9.042 5.651-13.482 8.558-2.745 1.292-5.732 1.776-8.558 2.987-2.502 1.049-5.167 3.229-7.589 5.086-1.453 0.565-2.826 1.211-4.198 1.857 2.664-1.776 5.409-3.633 8.153-5.328zM882.929 390.512c1.211 1.131 2.422 2.26 3.552 3.391 1.292 1.049 2.745 1.857 4.037 2.745-5.813-2.584-11.464-5.571-16.954-8.719-0.161-0.404-0.404-0.646-0.565-0.968 1.049 0.485 2.018 1.131 3.068 1.614 2.26 0.727 4.521 1.373 6.863 1.938zM824.238 405.528c-1.211-2.906-2.341-5.974-3.713-8.961 5.328 1.695 10.657 3.472 15.984 5.167 6.458 2.099 12.756 4.279 19.133 6.458 1.131 0.565 1.776 1.453 1.776 2.826 1.695 3.31 2.584 7.185 3.391 10.737 2.26 10.495 6.7 19.133 11.464 28.579 2.422 4.682 5.893 8.799 7.67 13.724 1.373 3.633 1.938 7.508 3.068 11.14 0.968 3.148 2.584 6.054 3.472 9.203 0.161 0.727 0.323 1.534 0.565 2.26-3.31 3.633-7.427 8.396-8.638 12.917-1.614 5.893-0.323 13.724-0.323 19.86 0 2.18-0.161 4.359 0 6.539 0.161 2.987 1.131 5.651 1.211 8.719 0.323 12.917-0.888 25.349-2.018 38.185-0.404 4.521-1.938 8.396-2.502 12.756-0.161 1.695-0.485 2.906-0.888 3.955-3.633 0.888-7.185 2.018-10.253 3.955-2.018 1.211-3.794 2.422-5.974 3.472-1.614 0.727-3.31 1.211-5.086 1.695 1.776-3.148 3.229-6.378 4.198-9.93 1.534-5.732 1.857-9.849 0.807-15.662-1.049-5.409-1.453-10.414-1.453-15.984-0.081-4.763-2.341-8.799-3.229-13.402-1.453-7.104-2.906-14.289-3.955-21.474-0.807-5.409-2.987-10.495-3.229-16.065-0.242-4.44-0.081-8.961 0-13.482 0.081-4.279-0.968-7.266-1.857-11.222-1.049-4.44 0.968-4.118-2.18-8.153-5.086-6.458-12.11-11.222-17.68-17.115-1.211-1.292-2.584-2.502-3.229-4.118-1.453-3.391-0.968-7.024 1.292-9.769 2.987-3.713 6.7-8.316 7.508-13.159 1.373-7.67-2.502-16.63-5.328-23.654zM935.888 445.974c5.086 1.534 10.011 4.682 15.177 5.813 3.229 0.646 6.378 0.485 9.607 1.695 5.893 2.18 11.383 5.813 17.357 7.992 1.776 0.646 3.552 1.292 5.409 1.857-3.794 0-7.508 0-11.222 0-6.136 0-12.593 0.565-18.488-1.049-11.948-3.31-20.102-12.271-28.094-21.313 3.148 2.018 6.378 3.875 10.253 5.005zM1014.6 478.427c-0.485-0.888-1.292-1.614-1.776-2.584-0.968-1.857-0.968-3.794-2.422-5.49-2.099-2.502-6.136-3.955-9.123-4.925-0.242-0.081-0.485-0.161-0.727-0.161-0.565-0.888-1.373-1.614-2.341-1.938-0.565-0.161-1.211-0.161-1.857-0.242-0.404-0.323-0.727-0.727-1.049-0.968-6.458-6.378-15.419-11.706-23.573-15.743-6.297-3.068-12.432-7.185-18.649-10.818 1.453 1.211 2.906 2.341 4.44 3.391 0.485 0 0.968 0.081 1.453 0.242 0.404 0.646 0.807 1.292 1.211 2.018 4.359 5.732 11.948 6.781 17.599 9.365l15.419 12.513c-0.081 0-0.081 0-0.161 0-2.745-0.727-5.571-1.453-8.316-2.26-6.378-1.776-10.333-6.054-15.419-9.607-5.974-4.198-12.836-7.589-18.407-12.352-1.211-0.968-2.26-2.099-3.472-2.987-5.813-4.359-11.544-9.687-16.954-14.612-1.373-1.292-2.422-2.584-3.552-3.955 4.521 1.614 8.477 4.844 12.432 7.992-0.565-0.565-1.049-1.131-1.614-1.776-2.826-3.229-6.217-6.054-8.961-9.526-9.607-12.19-23.331-20.263-33.665-31.727-1.695-1.938-3.31-4.359-5.49-5.732-1.131-0.727-2.502-1.211-3.794-2.26-4.763-4.037-8.961-7.992-12.998-12.593-2.18-2.502-4.601-4.521-6.781-6.863-1.211-1.211-1.534-2.664-2.584-3.875-1.211-1.453-3.31-2.018-5.005-3.148-1.534-1.131-2.664-2.664-4.359-3.633-1.373-0.807-3.229-1.211-4.682-1.938-4.925-2.422-8.316-2.18-13.402-2.987-3.068-0.485-5.893-2.18-8.961-2.826-2.018-0.404-4.037-0.646-6.054-1.049-0.242-0.161-0.485-0.485-0.727-0.646-2.987-1.857-5.167-5.167-8.153-6.781-6.7-3.633-13.885-6.297-20.99-9.284-3.633-1.614-6.943-3.633-10.898-4.44-6.297-1.292-10.898-4.118-16.388-6.943-3.794-1.857-8.396-2.502-12.11-4.844-5.732-3.633-12.917-5.49-19.617-7.024-3.068-0.485-5.974-1.453-8.719-3.068-1.211-0.888-2.502-1.776-3.713-2.664-2.987-1.373-6.217-1.776-9.365-3.633-7.75-4.44-15.338-8.638-23.331-12.593-5.247-2.584-11.060-3.713-16.711-4.601-5.893-0.807-11.786 0.242-17.68-1.373-8.477-2.422-17.357-5.651-26.076-7.024-8.153-1.292-16.146-3.633-24.461-4.359-6.539-0.565-13.239 0.081-19.698-1.453-4.44-1.049-8.153-3.552-12.432-5.167-10.979-4.359-21.555 1.938-32.776 1.776-14.128-0.242-28.094 1.211-42.222 1.131-16.63-0.081-33.261 0-49.81-0.081-11.464 0-24.623 0.081-35.925 2.584-2.099 0.485-4.279 1.373-6.217 2.099-5.732 1.938-11.786 2.422-17.68 2.987-5.893 0.646-11.303 0.888-16.469 3.713-7.992 4.359-16.227 8.073-24.542 11.706-13.159 5.813-27.852 8.719-41.738 12.271-10.414 2.664-20.505 5.49-29.386 11.948-3.875 2.745-7.024 6.217-10.414 9.445-4.521 4.359-8.88 7.427-13.805 11.060-5.328 3.875-10.011 8.234-14.209 13.32-5.086 6.217-10.414 12.352-15.662 18.407-7.024 8.153-17.922 12.593-26.237 19.537-2.18 1.131-4.198 2.422-6.458 3.875-1.695 1.131-4.359 1.695-5.651 3.391-1.292 1.534-1.131 3.955-1.776 5.813-1.857 0.242-4.44-0.081-5.167 2.099 1.695 2.745-4.44 5.813-6.136 7.104-4.682 3.713-8.799 8.316-13.32 11.948-2.664 2.099-3.713 4.118-5.328 7.185-5.893 11.14-10.495 23.331-19.133 32.615-2.745 2.987-6.378 4.844-8.961 7.912-2.018 2.422-3.955 5.005-6.136 7.508-0.968 0.485-1.938 1.049-2.826 1.776-1.292 1.695-2.745 3.31-4.279 4.844-1.534 1.049-3.068 2.099-4.601 3.068-5.005 3.391-9.607 7.185-14.289 10.898-3.31 2.664-4.925 4.682-7.104 8.073-1.776 2.584-4.279 3.955-6.458 6.136-0.565 0.323-1.131 0.727-1.695 1.049-0.565 0.968-1.292 1.453-2.26 1.453 0.242 0.161 0.404 0.242 0.565 0.323-0.807 0.565-1.695 0.968-2.584 0.968-0.242 0.727-0.404 1.453-0.565 2.099-4.844 2.745-10.737 3.229-16.065 4.198-4.359 0.727-8.719 0.565-13.159 0.565-0.485 0-5.086-0.565-5.813 0-1.695 1.292-0.485 6.539 0.081 8.396 0.807 2.502 1.049 5.893 2.745 7.992 1.049 1.292 4.44 2.826 5.813 3.391 4.118 1.534 8.638 1.292 12.836 2.502 2.826 0.807 5.651 2.018 8.316 2.906 1.453 0.485 2.664 0.727 4.037 1.373 2.341 1.049 3.472 2.906 5.167 4.44 1.534 1.292 3.633 1.938 5.247 3.391 3.472 3.148 7.589 5.247 11.625 7.75 1.211 0.807 2.422 1.373 3.633 1.857 0.888 2.422 1.695 5.005 2.18 7.992 0.646 3.552 0.807 4.279 2.422 7.104 1.453 2.422 2.664 4.925 3.875 7.427 0.404 2.341 0.807 4.682 1.534 6.863 1.373 4.521 1.857 10.979 5.005 14.612 1.857 2.18 5.732 3.794 8.153 5.651 2.099 1.614 4.118 2.906 6.054 4.44 0.968 1.857 1.857 3.713 3.391 5.086 1.453 1.453 3.391 2.26 5.005 3.713 3.794 3.391 7.346 8.153 10.576 12.11 4.279 5.247 9.042 9.445 14.693 12.998 5.813 3.633 11.786 7.185 17.196 11.464 6.539 5.086 12.593 10.253 19.698 14.451 4.844 2.745 8.558 5.086 12.917 8.719 4.037 3.391 7.831 6.781 12.513 9.365 5.328 2.987 10.253 6.62 15.419 10.011 5.49 3.633 11.544 6.378 16.711 10.495 3.068 2.502 6.378 4.521 10.011 6.054 5.005 2.18 10.495 2.584 15.5 4.521 0.727 1.049 1.534 1.938 2.502 2.502 4.925 2.987 12.998 4.844 18.971 4.844 3.875 0.081 8.234-0.565 12.11 0.161 10.414 2.018 19.617 7.104 29.628 9.93 10.657 2.906 21.797 4.279 32.453 7.266 6.539 1.776 12.432 4.601 19.295 5.571 6.054 0.242 12.029 1.131 17.842 2.826 3.472 0.968 6.863 1.857 10.333 2.826 6.136 1.534 12.352 2.018 18.649 1.614 7.266 0 14.531 0.565 21.797 1.695 24.784 2.502 49.891 4.925 74.756 6.217 6.62 0.323 13.32 0.404 19.941 0.242 6.7-0.161 12.917-2.099 19.617-2.745 10.737-1.131 19.86-4.682 30.113-7.912 7.75-2.422 15.097-4.359 22.604-7.346 6.539-2.502 12.675-3.068 19.537-4.359 6.054-1.049 11.706-3.068 17.842-3.229 8.799-0.323 16.711-1.614 25.188-3.472 6.62-1.373 13.643-3.068 20.424-3.552 9.93-0.646 20.263-1.211 29.951-4.279 9.365-2.906 17.115-8.961 25.834-13.159 5.893-2.826 11.786-4.682 17.518-8.073 7.427-4.521 15.338-8.396 23.331-11.948 5.49-2.502 10.979-4.198 15.904-7.75 6.054-4.279 10.091-9.687 14.209-15.904 5.086-7.427 8.961-15.5 13.563-23.169 3.552-5.167 7.024-10.414 10.333-15.823 0.646-1.453 1.453-2.826 2.18-4.279 7.831-6.781 15.662-13.402 25.43-17.034 4.359-1.614 8.234-3.391 12.271-5.651 6.136-3.391 10.414-8.961 16.227-12.593 13.078-8.234 23.977-19.133 35.521-29.305 4.601-4.118 8.477-8.961 12.917-13.32 2.906-2.745 5.247-5.247 7.266-8.719 2.664-4.44 6.378-7.912 8.88-12.593 3.633-6.62 8.88-11.625 13.159-17.761 0.888-1.292 1.373-3.229 2.18-4.682-0.807 0.646-1.776 1.131-2.745 1.857-1.131 0.888-2.099 1.938-3.068 2.987 1.292-1.695 2.664-3.31 4.037-5.005 2.341-2.826 5.005-4.682 8.234-6.136 4.521-2.099 8.153-5.571 11.625-9.203 2.341-2.502 1.857-4.601 0.242-6.458z"></path>
    </svg>