<svg xmlns="http://www.w3.org/2000/svg" viewBox="-48.908 -48.111 1122.487 1120.104">
    <path fill="#000000" d="M609.007 556.373c0.789-2.632 7.456-2.544 9.65-1.93 1.842 0.526 4.562 2.72 5.702 4.387 3.158 4.737-3.772 5.614-7.281 5.438-2.895-0.175-2.106-0.702-4.387-2.281-1.316-0.965-3.509-0.789-3.772-2.807l1.228-2.456zM652.605 574.092c-3.334 8.246-10.176 13.159-17.808 19.123-3.596 2.895-8.158 4.649-10.965 8.070-2.281 2.982-4.298 6.491-6.141 9.65-2.72 4.737-5.527 9.211-8.509 13.86-2.895 4.474-1.93 7.369-3.158 11.754-0.526 1.754-1.842 1.228-1.842 3.772 0 1.403 0.789 2.106 1.228 3.334 0.088 0.351 0.263 0.789 0.351 1.14 3.070 3.158 6.491 6.141 9.737 8.86-7.719-4.035-8.947-6.579-9.737-8.86-4.298-4.474-7.719-9.386-8.422-14.737-0.877-5.965-3.596-12.807-2.281-19.036 0.263-0.877 0.614-1.579 0.965-2.193-2.106-1.492-4.562-3.684-4.737-6.141 0-1.053 1.14-3.070 1.579-4.123 0.439-1.492 0.526-2.368 0.877-4.123 0.439-2.807 2.193-4.824 2.544-7.544 0.877-6.228 0.175-13.421 0-19.737-0.263 1.316 1.93 4.123 2.632 5.088 1.228 1.754 2.632 2.72 4.298 3.948 1.842 1.316 4.035 2.281 5.965 2.895 1.14 0.351 2.544-0.088 3.509 0.439 0.175 0.088 0.175 0.175 0.263 0.263 0.263-0.702 0.526-1.228 0.702-1.316 1.93-0.965 6.316 1.316 8.509 1.579l18.597-15c1.053-4.298 1.754-6.316-2.807-9.825-10-7.632-29.299-18.861-40.001-5.877-1.579-2.895-0.439-7.369-0.439-10.439 0-1.579-0.526-3.509-0.088-5 0.263-1.053 1.667-2.106 1.842-2.807 0.965-3.334-0.175-6.93 0.702-10.351 0.439-1.842 2.368-4.562 2.106-6.667-1.316-1.053-1.842-2.193-3.772-2.895 2.72 0.439 3.684 1.579 3.772 2.895 0.175 0.088 0.351 0.263 0.526 0.351 0.789 0.439 2.368 0.175 3.246 0.614 4.912 2.544 9.737 3.596 15 5.614 8.333 3.334 14.123 10 19.298 15.79 2.982 3.334 4.387 6.579 6.755 10.088 1.842 2.632 3.158 5.088 4.474 7.895 1.316 2.72 4.123 7.281 4.123 10.176s-1.754 6.579-2.895 9.474zM581.901 440.668c-1.93-0.439-2.72-1.14-5.176-1.14-1.93 0-5.088-0.614-6.93-0.088-1.492 0.526-2.368 1.93-3.509 2.895 0.965 2.193 1.14 4.035 2.895 5.965 0.965 1.053 2.982 3.596 4.474 3.684 1.842 0.175 2.807-1.667 4.649-0.877-1.316 1.667-5.351 3.509-7.193 4.824-2.544 1.754-4.649 4.035-6.667 6.316-2.368 2.632-4.824 5.351-7.281 8.070-0.702 0.877-1.93 1.842-2.807 2.895 0.965-2.106-0.175-5.088 0.263-7.281 0.439-1.579 1.14-1.93 1.403-3.684 0.088-1.053 0.088-2.807 0-3.772-0.263-3.421-1.754-4.912-0.351-7.895 1.228-2.72 1.579-4.123 1.579-7.281 0-2.807-0.439-6.052 0.263-8.772 0.526-2.017 1.667-6.667 3.158-7.983 1.842-1.667 5.438-0.877 7.895-0.877h10.088c1.403 0.175 2.456 1.14 3.772 1.316 0.965 0.175 2.281-0.351 3.246-0.088 1.93 0.526 3.246 2.106 4.387 3.86 1.403 2.106 4.562 7.719 1.403 9.825-1.667 1.14-7.632 0.614-9.562 0.088zM535.671 303.558c-1.053 1.842-2.807 0.965-4.474 1.228-4.387 0.877-8.422 3.596-12.368 5.614-2.982 1.579-5.088 2.368-6.316 5.614-1.14 3.070 0.439 7.895-2.982 9.912-1.403 0.877-5 0.614-6.491 0.263-3.509-0.614-5.176-1.316-9.036-1.316-8.333 0.088-16.58 0-24.913 0-6.579 0.088-14.035-1.053-20.264 1.579-7.544 3.158-14.123 11.14-23.246 9.737-3.772-0.526-7.018-3.070-10.264-5-4.824-0.351-12.895-4.737-9.65-3.772 2.106 0.614 5.614 1.667 7.632 2.632 0.702 0.351 1.403 0.702 2.017 1.14 0.965 0.088 1.842 0.088 2.456-0.263 2.632-1.492 4.824-4.21 6.93-6.404 3.421-3.596 5-8.246 7.632-12.632 1.842-3.158 2.982-7.983 5.527-10.614 3.246-3.421 12.895-10.526 16.053-4.123 2.368 4.562 3.509 11.667 9.211 13.685 2.193 0.702 6.141 0.526 8.509 0.263 2.456-0.351 6.579-1.403 8.86-2.544 1.93-0.965 3.948-2.632 3.772-5-0.175-2.017-1.14-3.86-1.316-6.052-0.175-2.106-0.702-3.070-1.14-4.824-0.439-1.842 0.088-2.807-1.316-4.387-0.965-1.053-3.070-1.93-4.474-2.281-3.070-0.877-6.316-0.789-9.386-1.579-0.351-1.93 4.298-5.176 6.141-5.877 2.982-1.14 6.404 0.439 9.386-0.351 5.176-1.403 10-3.596 15.877-3.684 4.824-3.772 10.878-3.684 17.018-3.772 4.912-0.088 7.456-2.456 11.317-5.088 3.421-2.281 3.246-0.175 3.158 3.158-0.088 6.052-0.263 12.193 0 18.158 0.175 4.912 1.93 8.947 4.562 12.807 0.877 1.228 2.895 1.667 1.579 3.772zM439.616 668.307c-1.228 2.281-2.017 4.562-3.246 6.755-2.281 4.035-4.649 9.036-8.509 11.667-1.579 1.14-5.877 4.298-7.807 3.684-2.017-0.614-3.948-4.298-5.79-5.79-12.106-9.386-27.72-12.632-40.791-20.615-5.176-3.246-10.351-10-16.842-10.351-4.737-0.263-10.439 1.228-14.825-1.053-4.21-2.193-5.176-7.105-6.842-11.228-0.526-1.14-2.106-5-3.246-6.052-0.614-0.614-1.228-0.263-1.93-0.789-3.421-2.017-7.719-2.544-11.14-4.649-2.368-1.492-3.684-4.298-5.263-6.491-2.017-2.982-4.649-5.702-6.404-8.947-2.368-4.387-3.772-8.947-6.491-13.159-4.035-6.228 0.088-14.737-2.982-21.667-1.14-2.456-2.982-3.684-4.387-5.965-2.632-4.21-1.667-10-1.667-14.737 0-3.684 0.175-7.281 0-10.878-0.088-3.596-2.632-5.263-3.509-8.947-1.492-6.579-4.824-15.352-9.737-20.176-5.263-5-10.614-9.912-15.702-15.088-4.21-4.21-6.667-10-6.316-15.877 0.175-4.123 2.368-12.807 8.509-9.123 1.579 0.877 2.456 3.596 4.035 4.562 0.614 0.351 1.93 0.526 2.544 0.789 0.965 0.526 1.579 1.14-2.106-0.263 3.070 1.842 6.141 1.93 9.65 2.456 3.86 0.614 7.369 1.053 11.404 1.053 3.684 0 7.632-0.614 11.14 0.877 6.667 2.895 12.807 5.351 20.527 5.438 2.193 0 4.474 0 6.667 0 2.106 0 6.141 0.702 8.333 0 1.053-0.263 1.228-1.14 2.368-1.403 1.403-0.263 3.596 0.088 5.088 0.088 4.474 0 8.597-0.439 12.807 1.228 4.824 1.93 9.825 3.070 14.562 5.088-3.070 2.106-8.422 1.316-11.579 1.316-5.088-0.088-9.211-0.526-14.035 1.316-5.877 2.193-12.895 2.632-17.369 7.456-2.895 3.070-3.421 8.947-4.21 12.982-0.526 2.368-1.053 4.737-1.492 7.105-0.526 3.334 0.088 6.755-0.702 10.088-1.93 7.983 0.614 16.58-0.877 24.65-0.965 4.562-2.017 10-0.877 14.649 1.492 6.228 7.544 10.526 10.176 16.228 1.667 3.509 2.456 9.211 5.088 12.281 1.316 1.579 3.246 3.596 4.737 5.088 2.193 2.106 4.123 2.632 7.018 3.334 2.106 0.439 6.842 0.965 9.298 2.193 2.106 0.965 3.684 2.982 6.052 3.86 6.052 2.456 12.807 3.421 19.036 5.614 1.579 0.526 2.807 1.316 4.474 1.579 3.246 0.702 7.281 0 10.614 0 3.772 0 8.070 0.263 11.492-1.492 4.387-2.193 9.737-6.141 11.14-11.14 1.579-5.702 1.93-11.754 4.035-17.544 1.579-4.474 2.632-9.211 2.544-13.948-0.088-1.754 0.614-2.632 0.965-3.948 0.526-2.544 0.263-5.351 0.263-8.070 0-3.158-0.789-7.632-0.088-10.702 0.175-0.526 0.965-0.965 1.053-1.316 0.351-1.403 0.263-2.895 0.614-4.298 0.614-2.895 1.492-3.684 4.474-3.070 2.72 11.842 6.755 23.422 6.579 35.878-0.263 11.492 0.088 22.983 0 34.563-0.088 5.351 0.702 10.439 1.14 15.79 0.351 5.438 0.088 10.965 0.088 16.404 0 5.263 0.614 8.422-1.754 12.72zM277.593 343.384c3.596-4.298 7.193-8.947 12.281-11.228 4.387-1.93 5.702-3.421 5.351-8.597-0.088-2.807-0.965-2.368-2.544-4.298-0.789-0.877-1.842-1.842-1.316-3.246 1.228-3.509 5.877 0 7.632 1.316 2.281 1.754 3.421 3.509 6.316 3.86 1.403 0.175 2.982-0.088 4.387-0.088 3.772 0.088 6.316 2.456 10.088 2.544 4.824 0.175 9.211-0.439 13.421 1.316 3.158 1.14 7.632 1.579 10.264 3.421 2.281 1.579 4.562 5.351 4.737 7.895 0.175 3.246-0.439 5.877-1.316 8.772-1.14 3.86-3.158 7.018-5.088 10.439-1.403 2.544-2.193 5.263-3.684 7.807-1.228 2.281-8.86 18.334-8.86 22.106 0-3.948-2.982-3.86-7.544-3.772-5.965 0.088-11.579-2.281-17.369-3.509-5.614-1.228-10.965-3.070-16.404-5-2.281-0.877-3.509-1.403-5.965-1.579-3.158-0.263-3.596-1.667-4.123-5.176-0.351-2.281-0.088-3.421-1.316-5.176-1.579-2.017-4.562-3.070-5.877-5.438-2.895-5.351 4.035-8.947 6.93-12.368zM381.018 556.9c3.684-0.175 3.684-5.527 3.684-7.807l2.456-1.228c-0.439-3.070 2.106-6.141 2.544-9.036 0.439-2.281-0.263-7.719 2.281-8.684 1.667 5.351-3.334 19.211 3.596 21.492 2.72 0.877 2.456-1.053 4.123-2.193 1.403-1.053 3.070-1.14 4.21-2.632 2.544 0.439 2.544 3.948 2.193 6.141-0.789 5.351-5.877 7.456-10.176 9.562-4.474 2.106-4.298 5 0.088 6.491 2.807 0.965 5.79 2.544 8.684 3.070-0.526 1.93-4.387 0.789-6.228 0.965-3.246 0.351-2.544 1.492-2.456 4.824 0.088 3.684-1.228 7.105-1.316 10.878 0 2.017 0.439 9.386-2.193 9.562-1.053-3.421 0.351-7.281-0.351-10.79-0.439-1.754-1.053-2.72-1.228-4.649-0.175-2.72 0.702-4.035-2.456-4.737-9.825-2.368-7.719 12.368-12.368 17.194-1.14-2.193 1.053-6.404 1.053-9.123-0.088-2.456 0.351-5.176 0-7.544-0.263-2.017-1.316-3.509-1.492-5.527-1.667-0.439-2.895 1.492-3.772 3.772-0.263 1.842-0.702 3.684-1.754 5.263 0.351-0.965 0.965-3.246 1.754-5.263 0.088-1.053 0.175-2.106 0.175-3.158 0-2.544 1.053-7.456-0.526-9.562-1.053-1.316-1.754-0.965-3.246-1.228-1.842-0.351-4.035-0.614-5.965-0.965-3.158-0.614-9.298 1.403-11.228-1.492 2.456-0.965 3.772-2.456 6.491-2.632 1.842-0.175 3.772 0.088 5.614 0.088 2.456 0 9.211 0.526 10.264-2.456 0.526-1.667-2.982-6.404-3.86-7.632-2.106-2.632-5-5.351-5.877-8.684 3.509 1.842 5.527 6.404 7.983 9.298 1.93 2.193 5.877 8.597 9.298 8.422zM384.615 211.275c2.017-3.509 2.368-6.316 3.509-10 2.193-6.842 0.088-13.685 4.737-19.298 3.070-3.772 5.965-7.807 10.702-9.211 7.281-2.017 14.737-3.509 22.018-5.176 6.755-1.579 14.123 0.877 20.878 1.14 4.912 0.088 11.667 3.596 16.141 5.965 5.351 2.982 11.579 6.316 17.983 6.667 5.176 0.263 10.439 0 15.614 0 2.106-0.088 4.123 0.175 6.141 0.439 0.702-0.263 1.316-0.439 2.106-0.526 2.544-0.263 4.21 1.14 6.667 1.403-3.070 0-5.877-0.526-8.772-0.877-0.789 0.263-1.492 0.526-2.281 0.702-1.053 0.175-2.281-0.263-3.334 0-1.93 0.526-3.86 2.807-5.614 3.772-2.456 1.316-4.474 0.965-7.281 1.492-1.228 0.175-2.193 0.965-3.334 1.14-1.93 0.351-3.772-0.088-5.79 0.263-2.982 0.526-5.438 1.228-8.158 2.544-5.614 2.72-13.685 4.123-16.492 10.614 0.702-7.369 0.439-16.93-7.105-20.79-8.070-4.123-16.404 0.175-23.948 2.632-3.070 1.053-6.491 2.544-7.632 5.965-0.789 2.456-0.088 6.404 1.316 8.597 2.193 3.246 4.123 1.93 7.281 2.72 1.579 0.351 1.93 1.14 3.772 1.316 1.93 0.175 3.596-0.702 5 1.228 3.772 0.877 3.158 3.509 1.316 6.404-2.281 3.509-6.755 2.106-10.439 1.403-6.579-1.228-13.86-0.351-20.615-0.263-4.298 0-6.93 2.017-10.878 4.123-2.106 1.053-6.141 2.895-7.983 4.562 0.965-2.982 2.982-6.141 4.474-8.947zM226.277 254.873c-0.526 2.807-0.088 5.527-0.263 8.333-0.263 4.298-1.403 11.754-6.93 7.018-1.754-1.579-2.456-3.86-3.772-5.79-1.492-2.017-2.982-2.456-5.088-3.684-2.632-1.667-4.035-3.334-7.018-4.474-2.106-0.877-3.684-1.579-3.948-4.21-0.702-0.175-1.316-0.351-2.017-0.439-0.526-1.842 0-3.158 0.351-4.824 0.439-1.492 0.702-3.596 1.579-5.088 1.667-2.807 4.912-5.351 5.351-8.772v3.772c4.123-0.088 6.667 2.807 10.176 4.824 1.492 0.877 4.298 1.14 2.281 4.123-1.14 1.667-4.21 1.492-5.877 2.72-0.789 0.614-2.982 2.368-2.632 3.509 0.175 0.614 4.035 2.368 4.824 2.544 1.667 0.351 4.737 0.175 6.404 0 2.368-0.263 2.807-1.842 5-2.368 3.509-0.877 1.93 0.965 1.579 2.807zM982.614 668.218c-1.667-2.982-0.789-5.263 0.526-7.895 2.895-5.877 9.386-10.526 10-17.281 0.439-4.737-1.403-9.036-5.176-11.842-1.316-0.702-2.72-1.053-4.21-1.228-3.070-1.228-5.702-2.982-7.895-5.351-2.72-1.93-5.702-3.334-8.772-4.824-3.421-1.667-7.193-2.895-10.702-4.562-2.72-1.228-5.702-3.421-8.772-3.86-3.86-0.439-7.369 0.439-11.228-1.14-4.562-1.842-7.895-5.79-12.281-7.632-3.070-1.316-7.105-2.193-10.439-2.544-6.141-0.614-10.439 2.72-16.316 2.632-7.632-0.088-14.299-3.684-21.931-3.86-5.965-0.088-8.070-1.14-12.545-4.824-3.070-2.544-6.052-4.649-9.298-6.93-2.807-2.017-6.579-4.387-6.842-8.158-1.754-0.789-2.72 0.439-2.895 1.93-2.193-0.877-4.824-1.492-6.491-2.017-9.474-2.807-19.737-5.351-29.737-4.912-7.369 0.351-14.299 1.053-21.843-0.088-3.334-0.439-6.667-0.965-9.912-1.667-6.579-1.492-12.368-5.614-17.808-9.474-3.421-2.281-12.807-8.070-12.018-12.895 0.702-4.912 11.317-4.387 15.527-4.824 3.509-0.263 6.404-0.439 9.737-1.492 1.579-0.439 3.070-1.14 4.824-1.316 10.526-1.14 21.579 2.456 31.755 4.649 5.088 1.053 8.246 0.088 13.246-0.439 6.052-0.789 11.842-0.088 17.808-2.106 7.807-2.632 20.176-3.246 23.772-12.018 1.492-3.684 2.807-6.755 5.176-10.088 1.667-2.281 4.474-4.649 5.263-7.544 1.667-5.965 0.351-11.931 3.772-17.456 2.544-4.035 4.824-7.807 6.93-12.018 1.053-2.106 2.807-4.035 3.334-6.404 1.14-4.912 0.351-11.667-0.526-16.404-0.702-3.86-0.526-7.632-1.842-11.404-1.403-4.123-3.596-7.895-5.176-12.018-1.842-5-3.948-9.737-5-14.649-0.702-2.982-2.456-5.965-3.421-8.86-0.789-2.72-1.754-5.088-3.421-7.281-3.596-4.649-9.474-9.036-14.123-12.632-4.123-3.334-15.352-6.93-16.842-12.72-2.017-7.544 8.772-6.491 13.071-6.93 3.246-0.263 5.438-0.965 8.158-2.544 3.596-2.106 9.737-4.123 12.018-7.632 7.018-10.526 5.877-22.369 5.877-34.563 0 4.474-2.017 7.895-2.632 12.281-0.351 2.72-1.228 4.824-2.368 7.369-2.72 5.965-7.193 7.983-13.597 7.632-3.421-0.175-6.052-1.14-9.65-1.228-2.106-0.088-3.246-0.702-5.263-1.316-4.035-1.316-8.246-1.842-12.457-2.281-7.719-0.877-15.088 0.789-22.72 1.053-10.79 0.263-24.562-1.93-34.036 4.387-6.842 4.649-14.299 9.562-13.246 18.861 0.263 2.281 1.228 4.035 1.403 6.316 0.088 1.842-0.175 2.807 0.702 4.562 2.106 4.035 7.544 6.667 10.351 10.176 1.93 2.544 3.684 5.527 1.492 7.895-1.579 1.842-3.948 1.842-6.141 2.106 0.263 5.351-8.86 4.912-12.193 4.824-4.737 0-11.14-0.263-14.211 3.772-1.667 2.368-2.368 3.421-5.965 2.632-2.281-0.439-5.263-2.281-7.018-3.86-2.72-2.456-4.824-6.842-6.491-10-0.877-1.667-0.702-3.421-1.579-5-1.667-3.070-6.93-4.912-9.737-6.667-6.316-3.86-13.86-4.912-20.001-9.386-2.106-1.492-3.334-2.807-6.052-2.982-2.982-0.263-5.176-0.088-8.070-1.228-2.281-0.877-0.877-1.14-4.387-1.579-6.228-0.702-9.65-1.754-13.772-6.316-3.246-3.596-4.737-8.684-7.632-12.632-4.649-6.228-9.036-13.159-14.474-18.684-1.579-1.579-1.93-1.842-2.982-3.86-1.053-1.93-3.246-3.772-3.070-6.141 0.175-1.14 1.93-4.562 2.368-5.614 0.877-2.368 1.14-3.596 1.754-6.052 1.053-4.21 3.421-7.369 3.684-11.754 0.088-2.632 0.088-5.438-0.088-8.158-0.263-5.877-4.562-13.772-8.597-17.983-0.789-0.789-1.754-1.492-2.632-2.193-2.368-2.106-3.948-2.72-6.667-3.772-3.421-1.403-5.79-3.684-9.474-4.912-0.351-0.088-0.702-0.175-1.053-0.175 1.667 1.93 3.070 4.21 3.334 5.176 0.526 2.368-0.088 5.614-0.088 8.070 0 1.754 0.351 4.123 0 5.877-0.702 3.596-3.246 6.755-6.052 8.86-2.544 2.106-4.21 2.456-7.807 2.456-3.246 0-5.527-1.053-7.281-4.035-0.789-1.403-1.053-3.246-1.842-4.649-1.316-2.456-1.492-4.123-2.193-6.491-0.877-3.070-3.334-5.614-5-8.422-2.544-4.123-5.79-6.491-6.404-11.667-0.351-2.368 0.614-4.123 0.965-6.316 0.351-1.842 0.088-3.421 0.263-5.263 0.439-4.21 3.421-7.544 5.438-10.965 2.281-4.21 5.438-8.684 8.947-12.018 4.824-4.562 10.088-6.755 16.667-7.018 4.474-0.263 9.562 0.439 13.948 1.228 2.281 0.439 4.737 1.316 6.667 2.72 2.895 2.193 4.824 5.527 7.719 7.895 1.403 1.053 7.456 9.211 10 8.246 3.070-1.228-0.263-6.579 2.982-8.422 1.667-1.053 5.965-0.263 7.983-0.351 5.702 0 11.317 0.175 16.842 1.579 0 5.965-0.175 12.106-0.175 18.158 0 3.070 0.088 6.228 0 9.386 0 1.053-0.263 2.632 0 3.772 0.175 0.965 0.965 1.053 1.14 1.93 0.614 2.368 0.526 4.474 1.403 6.842 0.614 1.492 1.579 7.632 2.807 8.333 1.93 1.14 4.474-1.579 4.824-3.334 0.526-2.106-0.088-5.351-0.088-7.544 0.088-5.176-1.667-11.842-3.772-16.316-1.842-3.948-3.596-9.562-2.281-13.948 0.614-1.93 1.754-4.123 2.544-5.965 1.93-4.123 1.754-7.281 2.544-11.667 0.439-2.281 0.877-4.035 1.053-6.404 0-0.614-0.439-1.579-0.263-2.193 0.965-4.474 6.228-6.491 7.807-10.176 1.667-4.035 1.667-9.386 2.281-13.685 0.877-5.263 1.492-10.351 1.492-15.702-0.088-5.351-0.351-10.702-0.088-16.053 0.175-3.070 1.579-4.123 2.895-6.579 0.965-1.754 1.667-4.912 2.193-6.667 0.702-2.544 0.351-5.438 1.228-8.070 0.702-2.106 1.754-4.035 2.281-6.141 0.614-2.632 1.842-5 2.544-7.544 2.193-8.158 9.298-16.93 5.263-25.614-1.053-2.193-2.982-4.737-4.474-6.93-1.492-2.281-3.158-4.649-4.824-6.755-1.579-1.93-3.684-3.246-5.263-5.351-1.492-2.106-2.017-4.035-3.158-6.141-0.702-1.492-1.754-2.807-2.193-4.562-1.14-5-1.053-12.545 4.824-13.948 4.474-1.053 9.211 0.877 12.545 3.509 5.263 4.387 12.545 5.79 16.492 12.018 1.403 2.281 3.334 5.438 3.772 8.070 0.702 3.948-0.088 8.86-0.088 12.807 0 4.562-0.965 10.439-0.088 15 0.526 2.544 2.017 5 2.544 7.544 0.526 2.106 1.228 3.421 1.316 5.614 0.263 4.474 0.088 9.036 0 13.509 0 3.246 0.614 4.298 1.316 7.018 0.877 3.070-0.965 7.018-0.088 10.176 0 0 1.053 1.754 1.053 1.754 0.614 3.509 1.228 7.193 1.492 10.702 0.351 3.684 2.017 7.983 1.316 11.667-0.439 2.72-1.053 5-1.228 7.807s-1.228 5.614-1.667 8.422c-0.439 3.246-0.351 6.842-1.228 10-0.965 3.596-0.965 5.965-0.965 9.912 0 5.438-0.702 10.439-1.14 15.877-0.351 4.387-0.702 9.386-0.175 13.772 0.439 3.86 1.316 6.755 1.316 10.79 0 6.842 0 13.772 0 20.615 0 5.088 1.14 12.106-0.526 16.842-2.017 5.614-5.877 10.351-5.877 16.667 0 3.334 0.965 10.351 3.772 12.106 2.544 1.667 8.772 1.667 11.404-0.175 2.017-1.492 2.982-7.983 3.596-9.825 0.702-2.017 1.492-3.86 1.667-6.052 0.175-2.456 0.175-5.79-0.088-8.246-0.351-2.807-2.193-5.088-2.632-7.632-0.351-1.93 0-4.298 0-6.228 0-4.912-0.526-10 0.351-14.825 0.439-2.544 0.965-4.649 0.965-7.281-0.088-9.737 0.439-19.562 0-29.212-0.351-10.878-2.544-21.404-2.544-32.369 0-7.281-0.351-14.386-1.93-21.404-1.93-8.947-1.842-18.509-1.842-27.72 0-9.036 0.175-18.070 0.088-27.106-0.088-3.684-0.175-7.895-1.316-11.579-0.526-1.316-1.053-1.228-1.316-2.982-0.351-2.106-0.526-7.544 0.965-9.123 1.93 0.789 2.281 3.948 3.070 5.614 1.403 2.544 2.982 4.649 5.088 6.667 3.86 3.509 5.088 4.824 10.351 5 2.72 0.088 5.438-0.088 8.070-0.088 3.421 0.088 8.246 0.789 11.579-0.175 2.632-0.877 8.597-3.86 7.456-7.105-3.158-0.965-6.667 0.175-9.912-0.088-5.527-0.439-11.404-2.544-16.755-4.21 0.088-4.123-0.088-9.562-1.754-13.509-1.14-2.72-4.562-4.562-5.438-7.456-0.614-1.93-0.088-4.474-0.088-6.491 0-3.421 0-6.93 0-10.351 0-7.632-1.842-13.597-5.438-20.351-2.544-4.737-6.141-6.842-9.562-10.965-3.158-3.86-6.667-3.596-11.754-3.684-7.983-0.175-16.053 0-23.948 1.053-1.93 0.263-4.123-0.175-6.052 0.175-1.316 0.263-2.281 1.053-3.596 1.403-2.982 0.702-5.877-0.526-8.947 0.789-2.193 0.877-4.737 2.982-6.316 4.737-1.492 1.667-1.754 2.72-2.72 5.176-1.316 2.982-2.456 5.965-3.421 9.036-0.263 1.316-0.263 2.632-0.088 3.948-0.526 1.492-1.754 2.106-2.368 3.596-0.702 1.842-0.175 4.387-0.175 6.316-0.088 3.421 0.088 4.824 2.193 7.632 1.228 1.754 2.193 2.807 2.632 5 1.053 5.965-3.509 12.018-4.649 17.72-1.053 5.263-0.175 11.14-0.175 16.492 0 5.79 0 11.492 0 17.194 0 6.579-0.526 12.193-3.86 18.070-2.017 3.684-5.263 5.263-3.158 9.912-6.667 8.070-16.842 12.368-26.492 15.176-5.176 1.403-10 1.053-15.263 1.403-5.351 0.263-10.526 2.368-15.877 2.72-3.948 0.263-5.614 0.526-9.737 2.368-4.737 2.193-6.491 3.070-11.492 2.368-6.141-0.789-14.035-2.106-19.387-5.438-4.824-2.982-9.211-7.193-13.509-10.79-2.982-2.456-5.351-4.298-7.544-7.281-3.509-4.737-6.052-10.439-9.737-15.088-3.246-3.948-5.877-5.351-11.14-5.351-5 0-10.878 0.351-15.79 1.579-2.544-3.334-5.351-6.404-8.422-9.298-2.895-4.562-6.93-6.842-11.931-6.842-3.948 2.982-7.719 6.052-11.492 9.211-1.842 2.106-4.123 3.421-6.667 4.035-4.912 0.877-10.614 0.088-15.702 0.088-5.702 0-11.492 0-17.194 0-4.912 0-13.772-1.053-19.123 0.263-5.877 1.403-13.334 5.263-17.632 9.737-4.737 4.912-5.176 12.72-9.123 17.895-3.86 5.176-10.526 8.333-14.737 13.509-1.754 2.193-3.246 4.649-4.824 7.018-5.176 7.895-7.105 19.65-7.544 29.299-0.175 3.684-0.877 6.93-1.316 10.614-0.175 1.228 0.263 2.456 0 3.772-1.228 5.527-11.754 11.754-17.544 12.545-4.474 0.526-7.018-1.053-9.825 3.596-0.614 1.053-1.93 3.948-1.754 5.263 0.439 2.368 4.387 2.544 4.21 5.877-0.175 3.86-4.649 6.491-7.632 7.456-5.088 1.754-10.526 4.21-15.263 6.667-2.807 1.403-5.702 4.474-8.772 5.088-3.86 0.789-7.105-0.526-11.053 1.14-1.667 0.702-4.035 1.667-5.351 2.544-2.72 1.667-3.509 4.387-4.387 7.369-3.509-4.737-6.052-10.176-8.86-15.439-1.14-2.281-2.193-3.421-1.667-5.702-9.386-4.21-22.632-2.895-29.299-12.368-1.053-1.403-1.667-3.246-2.368-4.912-0.877-2.193-2.281-3.596-3.246-5.351-1.667-2.982-0.614-8.86-0.526-12.281 0-4.649-0.088-9.036-4.387-11.579-0.789-0.526-1.667-0.351-2.456-0.877-0.526-0.351-0.614-1.14-1.053-1.492-2.982-2.106-6.842-2.456-10.088-3.948-4.298-1.93-6.228-4.474-9.211-7.632-2.281-2.456-4.123-2.544-7.369-2.632-3.948-0.088-15.527-0.702-17.194 3.684-1.14 3.158 0.175 9.298 1.228 12.106 2.632 7.807 1.492 15.527-2.368 22.896-1.667 3.246-4.824 5.438-7.193 8.158-3.596 3.948-4.21 9.737-1.754 14.737 1.754 3.509 4.912 6.141 5.176 10.176 0.175 2.544-0.614 4.912-1.053 7.369-0.439 2.982-0.263 5.965-0.263 8.86 0 3.684 0.263 7.456 0.088 11.14-0.263 4.824-2.72 7.193-5 11.14-0.877 1.403-0.965 3.158-1.93 4.474-0.526 0.702-1.667 1.14-2.281 1.842-0.965 0.965-2.193 2.544-2.72 3.772-0.965 2.017-1.403 5.965-0.526 8.158 0.965 2.544 5 8.246 7.544 9.036 2.982 0.877 7.456 0.088 9.386-1.93 2.106-2.106 2.982-4.298 2.368-7.105-0.175-0.702-0.351-2.281-0.614-3.158-0.263-1.14-1.053-1.93-1.316-3.070-0.351-1.228-0.263-2.632-0.614-3.948-0.351-1.579-1.053-3.158-0.702-4.912 0.614-2.895 1.403-4.737 1.403-7.807-0.088-1.93-0.351-4.123-0.088-6.052 0.175-1.316 0.702-1.842 1.053-2.807 0.439-1.403 0.263-2.632 0.877-4.035 1.053-2.281 2.982-4.824 4.474-6.755 0.877-1.14 1.93-2.193 2.456-3.509 0.175-0.614-0.263-1.316 0-1.842 0.351-0.965 1.14-2.368 2.017-2.982 2.017-1.403 5.614-3.070 8.070-3.334 5.351-0.526 10.614 1.14 15.966 1.316 2.368 0.088 4.649 1.053 6.667 2.456 2.456 1.667 6.316 4.737 7.369 7.544 1.316 3.509 0.614 10.176-0.965 13.421-1.93 3.948-4.474 7.544-7.632 10.614-3.070 3.070-5.614 5.088-7.456 8.947-2.281 4.824-5.176 9.386-8.772 13.334-5.614 6.228-10.614 12.72-15.877 19.298-3.421 4.387-10.176 9.562-10.79 15.176-0.175 1.842 0.614 4.035 0.263 5.877-0.526 2.807-3.246 4.474-4.912 6.667-4.824 6.316-11.228 9.912-17.983 14.035-6.316 3.772-10.965 7.632-15.966 12.895-1.667 1.842-2.193 2.017-2.895 4.562-0.439 1.228-0.526 2.368-1.579 3.334-1.492-0.439-1.93-1.579-3.070-2.368-1.579-1.316-3.158-1.842-4.562-3.421-2.807-3.246-3.596-7.281-6.755-10.351-2.982-2.807-4.562-5.965-6.93-9.211-1.492-2.106-2.982-4.123-4.562-6.141-1.667-1.316-3.246-2.72-4.824-4.298-0.702-1.403-1.316-2.895-1.93-4.387-1.053-2.017-2.281-3.86-3.772-5.527-1.053-1.842-1.053-3.509-1.667-5.527-1.14-3.772-3.86-5.965-3.246-10.176 0.351-1.93 0.702-1.667 1.492-3.158 1.492-1.14 2.632-2.632 3.509-4.387 1.14-2.982 2.895-5.614 5-7.983 4.474-5.438 8.246-10 10-17.018 0.702-2.895 1.579-4.912 2.72-7.632 0.789-1.842 1.228-3.421 2.807-4.737 1.228-1.053 2.895-1.14 4.035-2.281 2.193-2.106 1.93-5.614 2.017-8.422 0.175-3.334 0.526-7.983-0.088-11.404-0.789-4.298-3.86-8.422-5-12.368-0.439-1.316-0.877-2.456-1.228-3.86-0.877-2.982-0.439-4.123-2.106-7.193-2.106-4.035-3.334-5.79-6.755-7.719-2.106-1.228-1.667-1.228-3.070-3.948-2.544-4.035-5.438-7.807-8.509-11.492-1.403-1.492-2.544-3.158-3.334-5-1.754-1.403-3.948-2.193-6.316-3.070-4.912-1.842-9.123-5.527-14.299-5.438-3.948 0.088-7.281-0.351-11.053-1.228-3.596-0.877-6.228-1.316-10.088-1.316-4.562 1.842 1.492 5.702 5.877 8.158 4.298 2.368 16.228 6.052 14.299 12.632-0.614 2.368-3.158 5.088-4.474 7.193-2.281 3.772-4.123 7.983-5.176 12.281-1.492 6.141 7.719 19.912 13.071 11.404-2.895-7.807-0.702-17.632 1.579-25.177 0.877 2.632 2.106 6.491 4.387 8.422s5.088 1.579 7.632 2.72c5.438 2.544 5.965 7.281 7.719 12.281 0.965 2.72 1.667 4.737 1.842 7.719 0 1.579 0.789 7.193-0.088 9.123-1.316 2.895-7.105 7.018-9.562 8.597-4.562 2.807-9.65 4.824-14.474 7.105-5.965 2.72-13.334 4.562-18.334 9.211-2.017 1.842-1.579 2.017-2.72 4.21-2.456 5.088-6.228 9.298-9.036 14.123-3.948 6.667-8.509 13.246-12.106 20.176-1.579 3.158-2.72 5.088-0.702 8.333 2.017 3.334 7.105 5.702 10.526 7.456-2.106 6.93-11.579 10.878-9.825 18.509 2.017 8.509 4.035 16.667 4.298 25.527 8.333 2.982 15.614 9.123 22.282 14.649-1.14 5.877-2.106 12.018-4.474 17.456-3.246 7.632-3.246 13.071-1.228 20.79-0.614-2.807 3.509-5.176 5.79-5.79 3.86-0.965 7.983 1.492 10.79 4.035 3.684 3.421 3.070 6.316 3.86 10.878 0.263 1.842 0.614 4.737 2.106 6.052 0.965 0.088 1.93 0.439 2.72 0.965 0.789 1.93 1.228 3.948 1.14 6.052 0.263 5.176 0.263 6.667-2.632 11.053-1.579 2.544-8.422 10.526-7.895 14.474 0.263 1.93 3.334 6.228 5.438 6.667 0.877 6.93-5.351 11.492-7.193 17.369-0.614 2.106-0.351 3.684-0.263 5.965 0 4.912 0.526 10.351-0.789 15.088-2.193 7.983-10.264 13.246-12.281 21.141-1.403 5.176-0.439 8.86 2.895 13.246 1.403 1.842 3.772 3.246 5.614 4.562 3.421 2.106 7.018 3.86 10.79 5.088 1.492 0.789 2.895 1.579 4.387 2.456 2.368 3.334 0.877 10.351 0.526 14.123-0.263 3.334-1.14 6.579-1.228 9.825-0.175 4.912 0.526 12.545 2.281 17.194 1.316 3.421 3.509 6.755 7.105 8.333 5 2.193 5.527-2.017 9.912-3.334 3.772-1.14 12.281 0.789 16.316 1.579 4.298 0 7.807 1.754 10.351 5.176 2.632 2.895 5.614 5.438 8.86 7.719 2.193 1.316 4.298 1.579 6.579 2.72 2.807 1.492 4.21 3.86 6.316 6.228 2.72 3.070 5.614 6.052 7.983 9.386 3.334 4.562 7.281 11.14 8.333 16.667 0.702 3.86-0.789 11.228-1.93 15.176-1.93 6.228-4.21 12.895-7.456 18.247-3.948 6.667-11.754 10.264-17.808 14.825-1.403 1.053-4.824 3.421-5.351 5.438-0.351 1.579 1.492 7.018 1.842 8.509 0.526 2.72 1.579 5.351 2.017 8.070 0.439 2.544-0.088 5.088 0.439 7.544 1.14 4.649 1.403 8.597 0.614 13.772-0.789 4.912-1.667 11.317-5.877 14.737-1.579 1.316-3.158 2.106-4.737 3.596-4.123 3.948-5.965 7.281-5 12.807 0.351 1.842 2.807 7.719 2.281 10.088-0.526 2.106-2.72 4.21-3.684 6.141-1.754 3.596-1.93 7.719-2.456 11.667-0.702 5 0.175 11.317 3.772 15.176 5.877 6.316 15.527 9.036 22.018 14.649 2.632 2.281 3.684 3.684 6.93 4.474 1.667 0.263 3.334-0.351 5.088 0.088 2.368 0.526 10.176 4.912 12.193 1.579 1.754-2.807-2.368-5-4.123-6.404-1.754-1.492-3.684-3.158-5.527-4.387-2.193-1.403-5.438-1.14-7.369-2.456-3.246-2.368-4.562-8.333-6.491-11.579-1.754-3.158-3.246-6.755-3.86-10.351-0.702-4.21 0.351-9.825 2.456-13.597 2.895-5.351 10.439-6.755 12.982-12.457 1.053-2.544 0.439-4.737 0.614-7.281 1.053-10.965 3.158-20.176 11.492-27.808 3.948-3.596 4.649-6.404 4.824-11.842 0.175-3.334 0.175-6.228 1.93-9.298 3.246-5.614 5-10.526 6.579-16.755 0.965-3.596 2.368-3.948 5-6.316 4.123-3.772 7.018-6.842 12.457-8.947 3.158-1.14 6.404-2.106 9.737-2.368 3.158-0.263 6.228-0.088 9.036-2.106 8.070-5.614 1.316-19.65-1.14-26.317-1.579-4.387-2.368-8.86-4.387-13.071-2.193-4.562-5.527-8.422-8.772-12.281-3.948-4.649-10.088-9.474-12.72-15.088-1.93-4.123-1.14-9.123-2.368-13.421-0.263-0.789-2.632-5.263-2.544-6.404 4.649 3.948 10.79 5.438 15.877 8.86 3.684 2.544 7.281 6.404 9.474 10.351 5.614 10 6.579 22.72 14.649 31.316 2.72 2.895 5.79 6.052 8.947 8.422 3.596 2.632 7.456 3.421 11.667 4.912 4.649 1.667 9.123 2.982 12.72 6.404 4.912 4.649 10.526 8.333 15.527 12.895 2.632 2.456 5.176 3.596 8.422 5.176 4.21 1.754 8.246 4.035 12.018 6.667 1.228 1.842 2.368 3.596 3.596 5.351 3.509 5 6.93 7.105 12.895 7.369 6.228 0.263 14.386 0 19.825 3.334 8.158 4.824 8.333 13.948 8.070 22.282-0.175 4.035-0.877 6.842-1.667 10.526-0.789 3.596-0.351 7.632-1.667 11.14-1.754 4.912-5.79 7.456-10.614 4.21-10.264-6.93-8.070-22.983-20.79-26.931-6.052-1.93-11.053-9.386-18.158-8.422-3.596 0.526-7.456 2.982-10.176 5.263-3.596 2.982-11.492 4.123-11.579 10.088-0.088 2.456 3.158 8.422 5.614 9.65 1.754-1.579 0.439-4.035 1.492-5.877 0.877-1.667 3.246-4.035 4.649-5.438 7.544-7.369 24.211 4.035 29.562 8.509-0.877 4.298-2.544 8.070-3.684 12.368-1.316 5.088-0.702 9.036 0.789 13.948 1.754 5.527 5.614 6.93 10.088 10.264 4.737 3.596 6.755 5.702 12.72 5.702 4.737 0 9.123 0 13.685-1.228 5.527-1.403 8.333-3.86 12.632-7.544 4.562-3.948 6.93-8.070 7.281-14.035 0.175-4.649 1.403-8.070 3.334-12.368 4.474-9.737 6.667-24.386 2.106-34.65-3.509-8.158-6.228-16.93-10.088-25-3.158-6.579-8.422-11.492-12.982-17.281-2.544-3.421-4.737-8.158-8.246-10.702-1.93-1.403-4.387-1.842-6.404-2.807-3.596-1.667-6.141-4.387-8.246-7.632-1.93-2.72-2.982-5.965-4.824-8.684-1.842-2.544-4.562-3.948-6.667-6.052-2.807-2.895-5.088-4.912-8.246-6.316 1.579 0.526 3.158 0.965 4.737 1.228 2.193 0.439 4.474 0.526 6.491 1.316 7.018 2.895 13.246 8.158 20.001 11.667 5.965 3.070 11.754 6.316 16.228 11.317 2.368 2.632 4.824 6.052 6.141 9.386 0.789 1.93 0.439 3.772 1.053 5.614 1.403 4.123 8.86 6.579 12.545 8.947 3.070 2.017 6.141 5.176 9.562 6.667 1.053 0.439 1.842-0.088 2.982 0.614 1.053 0.614 1.667 1.93 2.193 2.982 1.93 4.298 1.053 4.123 5.702 6.404 2.017 0.877 17.369 8.772 15.966 10.79 10.79 2.982 21.579 5.965 32.457 8.684 4.912 1.228 9.737 2.368 13.948 5.263 2.982 1.842 5.351 4.298 7.018 7.369 0.439 0.526 0.789 1.14 1.228 1.754 2.193 1.579 6.842 1.93 9.65 3.070 7.544 2.982 15.527 3.684 23.334 5.79 6.667 1.754 13.334 4.035 20.089 5.351 3.948 0.789 7.544 1.053 11.492 1.053 1.579-0.088 3.334-0.526 4.649 0.526 0.877 1.579 1.754 3.158 2.632 4.737 1.842 4.562 3.86 8.947 6.228 13.334 1.14 1.053 2.632 1.842 3.948 2.544 3.86 1.93 7.193 1.842 9.386 5.702 2.544 4.387 3.772 9.474 6.491 13.772 3.070 5 6.141 10.088 9.036 15.263 1.93 3.421 4.123 8.947 7.544 11.404 3.684 2.544 11.053 2.72 15.088 3.772 4.21 1.053 7.983 2.368 11.842 4.298s8.947 4.474 10.176 8.947c0.175 0.526-0.351 7.105-0.263 5.614-0.088 5.176-0.702 9.474 4.824 11.842 0.877 0.439 7.895 1.14 5.877 0.789 4.21 0.702 9.298 1.93 13.509 3.334 4.035 1.316 4.21 2.807 5.965 6.404 2.456 5 3.158 7.983 0.351 13.159-1.403 2.544-4.035 4.21-6.052 6.755-2.193 2.895-4.035 6.316-7.193 8.333-10.351 6.667-19.825 3.596-31.229 0-3.596-1.14-6.667-2.632-10.264-3.509-1.754-0.439-3.948-1.403-5.438-2.456-1.842-1.316-2.632-3.509-4.298-5-1.842-1.492-4.474-2.72-6.404-4.035-3.509-2.544-7.105-5.438-11.053-7.281-5.527-2.544-12.807-2.72-17.72-6.491-3.86-2.895-7.983-8.158-10.965-12.018-1.316-1.754-2.368-3.509-3.948-5.088-2.895-3.070-4.123-2.017-7.456-3.596-2.72-1.316-2.807-5.351-5.088-7.632-2.982-3.158-6.316-4.035-10.439-4.123-6.491-0.088-13.159 0.351-19.562 1.579-2.017 0.351-3.948 1.579-5.79 2.017-2.106 0.526-4.298 0.088-6.491 0.351-9.737 1.053-18.948 4.737-27.983 8.070-5.088 1.842-10.614 2.281-15.79 3.772-4.737 1.316-6.404 2.281-9.211 6.316-1.14 1.667-2.017 3.596-3.334 5.263-1.579 2.106-4.035 3.772-5 6.316-0.965 2.72-0.702 8.158 0.789 10.439 1.403 2.017 2.982 1.842 5.176 2.368 2.982 0.789 5.702 1.842 8.509 3.246 4.035 2.017 8.246 4.649 11.667 7.719 3.246 2.72 5.702 6.141 8.86 8.86 1.492 1.316 3.158 1.492 3.86 3.596 0.877 2.544-1.228 5.965-3.421 7.369-2.368 1.492-5.965 1.228-8.684 0.351-6.842-2.281-14.035-5.614-20.527-8.597 1.579 1.14 2.456 2.807 3.948 4.035 1.579 1.316 3.596 2.281 5.263 3.421 6.141 4.298 11.317 8.333 18.509 10.526 6.141 1.754 16.755 2.72 22.72 0.263 5.79-2.456 9.912-7.105 10-13.509 0.263-10.264 0.789-19.737-8.333-26.492-5.351-3.948-30.089-10.439-16.842-19.65 2.456-1.667 4.737-1.14 7.719-1.14 2.017 0 5.438-0.877 7.281-0.263 1.842 0.526 4.824 3.509 5.79 4.123 5.438 3.509 12.018 5.263 17.456 8.772 4.649 2.895 8.86 5.965 13.685 8.684 5.965 3.334 8.333 7.193 11.931 12.632 3.509 5.176 6.579 10.264 8.509 16.141 1.93 5.614 5.263 11.053 8.597 16.053 2.544 3.948 5.702 9.474 10.264 11.579 3.158 1.403 6.842 2.106 10.264 2.807 5.79 1.14 13.071 2.368 19.036 1.228 1.754-0.351 3.158-1.316 5.176-1.316 4.737 0 10 2.456 14.825 3.070 8.333 0.965 16.316 2.193 24.738 2.106 3.070 0 6.228 0 9.386 0.088 3.509 0 2.368-0.439 4.387-0.965 3.596-1.053 6.579-1.667 10.351-1.579 2.106 0 4.387 0.175 6.491 0.088 3.158-0.175 5.614-1.492 8.684-2.368 8.422-2.281 21.053-1.14 26.228-9.562 5.877-9.737 9.036-21.317 13.597-31.668 4.474-10.176 3.684-22.807 3.684-33.685 0.088-4.562 0.175-7.983-1.579-12.018-1.14-2.544-1.842-5.527-2.193-8.422-0.789-6.491-2.106-12.368-7.895-16.316-3.772-2.632-7.105-3.684-9.036-7.983-1.754-3.86-3.596-8.422-3.246-12.72 0.263-4.035 1.403-7.544 1.403-11.667-0.088-4.298-2.193-4.562-4.298-8.070-1.228-1.93-0.614-1.93-1.14-3.596-1.667-5.527-3.86-10-7.719-14.386-4.824-5.527-10.878-8.86-17.194-12.281-3.86-2.017-7.369-3.772-11.754-4.21-2.72-0.263-5.438 0.088-8.158-0.175 2.982-2.807 3.596-7.281 6.052-10.439 2.544 0.526 5.088 0.351 7.544 0.702 2.895 0.439 5 1.492 8.070 0.877 2.982-0.614 4.123-1.93 6.667-4.298 3.596-2.895 6.491-6.404 8.509-10.526-0.351-1.228-0.439-2.544-0.351-3.86 2.368-0.789 3.948 0.526 5.965 1.492 6.667 3.070 15.439 2.281 22.457 1.316 5.263-0.702 10.878-2.632 14.913-6.141 4.912-4.21 6.755-11.492 11.492-15.877 1.228-1.053 3.948-3.948 5.702-3.86 0.614 0.088 0.614 0.965 1.053 1.14 2.368 0.965 5.088 2.807 7.632 2.807 3.158 0 1.316-1.14 4.387-2.106 2.281-0.702 4.824 1.667 6.228 2.982 3.070 2.982 4.035 4.474 7.895 6.667 5.527 3.158 11.404 7.105 17.281 9.298 2.807 1.053 5.702 1.14 8.509 1.754 3.509 0.789 6.316 2.193 9.211 4.123 2.281 1.492 4.123 3.772 6.316 5.263 3.772 2.368 9.562 2.72 13.685 1.754 6.93-1.667 14.825-0.702 21.843-0.702 3.334 0 6.491 0.263 9.825 0.702 4.474 0.526 8.947 0.088 13.334 0.789 6.667 0.965 12.106 5.877 18.247 8.422 0.965 0.439 3.158 0.439 3.772 1.316 1.403 1.667 0.263 3.684-0.702 5.176-3.070 5.088-9.386 5.79-14.737 6.93-8.684 1.842-17.632 3.684-26.492 4.474 5.965-1.228 12.545 3.421 18.597 3.772 3.684 0.175 6.93 0.526 10.526 1.14 2.106 0.351 3.246 0.088 5.176-0.614 7.018-2.632 15-2.193 19.475-9.036 1.667-2.544 5-4.824 6.141-7.544 0.877-2.281 0.702-7.281 0-9.65-0.439-1.579-1.842-3.421-2.456-5.088-1.14-2.895-0.702-6.141-1.93-8.86-1.93-4.387-5.263-9.211-10-10.264-8.86-1.842-17.72-3.246-26.58-4.387-4.123-0.526-5.877-1.842-8.772-4.737-1.93-1.93-3.86-2.456-6.842-3.421-5.965-1.754-11.404-1.316-17.456-2.017-11.842-1.403-24.65-2.807-35.527-7.983-7.807-3.772-13.421-9.562-20.264-14.737-1.403-1.053-2.807-1.492-4.387-2.281-4.123-1.842-7.719-4.562-11.667-6.755-2.982-1.667-6.579-2.193-7.983-5.351-0.614-1.403-1.14-3.421-1.667-4.912-1.053-3.158-3.070-5.351-3.158-8.684-0.175-5.702 2.632-10.79 8.333-12.457 6.052-1.842 16.228-1.667 22.457-0.965 3.948 0.526 8.86 3.246 12.193 5.438 2.982 1.93 6.755 5.351 7.456 9.036 0.789 4.123-2.368 6.579-3.246 10.176-0.702 3.070 2.807 3.86 0.877 6.667 3.86 1.842 9.825-4.912 12.457-7.281 1.93-1.754 5.088-2.895 6.141-5.263 0.789-1.93 0.614-7.105 0.175-9.211-0.965-5-4.824-10.614-8.333-14.562-4.474-5-11.754-7.281-17.983-9.298-4.824-1.492-8.597-5-13.334-6.667-2.72-0.965-6.316-0.351-9.211-0.351-3.772 0-7.632 0-11.492 0-2.632 0-5.263-0.439-7.719 0.877-2.368 1.316-3.684 3.421-6.228 4.824-3.509 1.842-5.527 3.158-7.632 6.579-1.579 2.544-2.544 5-3.158 7.895-0.877 3.772-0.351 6.404 0.877 9.474-1.754-2.281-3.596-4.298-5.702-6.228-4.123-3.948-7.983-8.070-11.667-12.457-5.263-5.877-11.579-9.562-17.456-14.562 2.895 0.175 5.79 0 6.842-0.263 4.824-1.228 9.562-3.948 14.211-5.702s9.65-3.86 13.509-6.93c2.281-1.667 3.772-4.298 6.141-5.877 2.807-1.93 9.737-3.158 12.545-3.86 3.334-0.965 6.667-1.579 10.176-1.754 1.053 0.351 2.017 0.877 2.807 1.754 5.438 2.632 11.754 2.106 16.755 5.088 3.070 1.754 5.176 3.596 8.597 4.824 3.596 1.228 7.544 1.492 11.317 2.193 1.667 0.263 3.158 0.439 4.912 1.053 5.263 1.667 12.457 2.72 17.281 5.351 3.948 2.281 6.842 6.052 10.79 7.895 2.456 0.789 4.387 2.193 5.965 4.21 2.193 1.93 4.824 3.158 7.807 3.596 3.684 1.228 7.105 2.982 10.878 3.86 7.281 1.842 13.685-0.439 19.912-4.298 7.544-4.649 16.228-6.141 24.036-10.088 3.509-1.754 6.667-3.86 10-5.965 2.368-1.492 4.737-3.86 7.193-5.088 7.369-3.509 15.966-4.123 23.86-4.123 6.404 0 12.368 1.492 18.509 3.246 4.474 1.228 6.842 1.14 7.456 5.614 0.263 1.579 0.439 4.387 0.088 6.052-0.789 3.421-3.596 5.351-5.877 7.895-4.035 4.387-8.333 8.684-14.649 9.912-6.404 1.228-16.053 0.702-22.018-0.965 4.824 3.86 12.895 4.562 16.228 10.176 1.492 2.368 2.281 4.035 5 4.912 2.895 0.877 6.228-0.526 8.86-1.403 2.281-0.789 3.948-0.614 6.052-1.228 2.72-0.702 5.088-2.281 8.070-2.895 10.965-2.281 22.807-3.772 33.158-8.158 4.912-2.106 4.912-2.368 2.895-7.018-0.877-1.754-2.017-2.982-2.982-4.649z"></path>
    <path fill="#000000" d="M294.453 339.349c2.368 2.106 3.158 4.474 6.141 2.982 0.088-0.088 0.175-0.175 0.263-0.263-0.263-0.263-0.614-0.526-1.14-0.789-1.053-0.526-4.123-2.017-5.263-1.93z"></path>
    <path fill="#000000" d="M313.972 340.402c-0.263-0.175-0.614-0.351-1.14-0.877-0.702-0.877-1.579-2.632-1.228-3.86zM296.252 350.928c0.351 1.93 1.316 3.596 1.579 5.527 0.175 2.193-1.053 4.298 1.842 5.176 3.246 0.965 5-3.772 7.807-4.298 1.228 1.579 3.246 1.754 4.474 3.246 1.14 1.228 1.228 2.544 2.544 3.772 1.842 1.842 1.842 1.492 3.334-0.439 1.228-1.667 2.456-4.387 3.684-6.228 1.14-1.842 1.14-3.421 1.667-5.438 1.579-0.439 4.298 0.702 4.737-1.14-2.281-0.877-5.088 0-7.544-0.263-0.088 0-0.175-0.088-0.351-0.088-0.263-0.088-0.439-0.263-0.702-0.263 0.263-1.14 2.456-1.492 3.596-2.193 1.842-1.14 3.246-2.807 5-4.21-0.088-0.351-5.965-2.106-9.298-2.982 1.492-1.053 2.895-2.281 2.982-2.632-2.106-0.965-5.877 2.106-7.281 0.877-2.017-1.842 1.842-4.298 1.228-6.228-0.614-1.842-4.562-1.842-6.228-0.965-0.702 0.439-3.86 3.070-3.86 3.246 2.72-0.088 2.368 1.14 1.842 2.456-0.614 0.351-1.316 0.614-2.017 0.965-1.579 0.789-2.807 2.368-4.387 3.334 1.053 0.965 0.351 1.754-0.965 3.246-3.246 4.035-6.052 4.474-10.878 5.702 0.351 2.544 5.79 0.526 7.193-0.175z"></path>
    </svg>