<svg xmlns="http://www.w3.org/2000/svg" viewBox="25.213 -47.999 962.212 1121.264">
    <path fill="#000000" d="M108.572 781.596c1.040 1.040 1.76 2.239 1.999 3.598 2.639 3.758 5.757 6.877 9.436 9.516 0.24 0.24 10.156 9.196 13.034 10.795 4.957 2.719 11.994 0.56 17.032 2.959 5.997 2.879 9.196 21.351 11.915 26.228 4.638 8.317 10.075 9.835 16.233 15.833 3.998 3.838 5.197 8.317 8.557 13.355 8.956 13.194 16.233 27.348 28.147 38.383 10.396 9.676 28.468 8.557 41.182 12.794 7.037 2.319 7.997 8.077 14.074 12.315 4.798 3.278 8.956 3.838 14.633 3.679 10.635-0.24 21.591 2.319 32.227 3.518 10.156 1.199 17.512 2.159 25.429 8.557 3.598 2.879 6.317 7.837 10.476 9.916 8.636 0.639 17.193 1.52 25.829 2.719 6.717 0.32 12.875 2.159 18.472 5.437-0.399 2.798 4.957 4.558 6.797 5.677 10.396 5.997 21.591 9.596 33.186 12.875 8.557 2.399 16.473 4.798 24.95 7.597 9.596 3.199 18.712 2.479 28.707 2.399 16.393-0.24 31.826 1.999 48.219 1.999 26.389 0 52.937 1.52 79.086-2.879 7.757-1.28 15.274-3.199 22.71-5.677 6.397-4.558 12.635-9.436 18.632-14.554 5.038-3.518 9.516-5.757 15.034-8.077 17.832-7.437 37.184-8.797 56.056-12.794 19.672-4.158 38.464-12.155 54.056-25.029 12.555-10.476 21.271-24.549 31.666-36.864 8.956-10.635 17.992-21.031 29.507-28.947 15.833-10.795 32.946-19.511 48.219-31.267 3.119-2.319 12.234-7.117 12.954-11.755 0.399-3.119-0.879-2.558-1.999-5.118-3.598-8.237-8.077-14.953-13.194-22.311-3.679-5.197-8.716-10.635-10.956-16.633-1.599-4.238 0.080-2.959-4.558-7.037-5.437-4.717-8.317-10.635-12.155-16.473-1.679-2.558-3.038-5.838-6.637-5.358-2.319 0.32-7.517 14.953-7.837 15.913-3.278 9.996-4.398 20.551-9.356 30.067-6.717 12.714-17.673 23.67-27.188 34.465-2.159 2.479-9.196 12.714-13.274 10.875-1.919-10.396-0.080-22.47 1.999-32.626 1.76-8.557 2.079-6.157-4.398-12.155-11.915-11.035-22.71-23.589-33.025-36.065-8.557-10.476-15.673-22.71-15.353-36.704 0-1.76 0.639-3.679-0.080-5.358-1.359-2.959-6.317-4.238-7.757-7.197-0.72-1.599-0.080-3.679-0.24-5.437-0.399-4.078-2.399-7.837-3.919-11.515-3.919-9.356-6.557-18.872-8.716-28.707-0.399-1.76-0.8-6.397-1.679-8.317-1.199-2.719-4.478-3.758-6.397-5.757-2.159-2.239-2.879-4.878-4.957-7.517-1.919-2.479-4.798-3.679-5.838-7.037-11.915 4.878-20.071 19.271-27.908 28.947-12.875 15.993-28.147 32.227-31.826 53.097-1.52 8.636-2.399 17.112-4.717 25.509-2.719 9.756-6.317 19.511-9.596 29.028-3.518 9.916-4.318 13.355-11.755 19.112-4.878 3.838-10.396 6.957-15.193 10.716-6.397 5.038-12.875 9.996-19.112 15.353s-8.317 10.236-11.275 17.912c-7.676 19.991-16.312 44.781-31.666 60.614-2.719-3.199-4.158-9.996-5.598-13.274-4.638-10.795-8.876-21.67-13.274-32.546-1.439-3.439-2.319-4.957-3.199-8.476-1.28-6.317-2.319-12.714-3.119-19.112 1.119-3.439 0.399-5.677-1.999-6.797-5.917 3.998-11.835 8.797-18.632 10.875-9.436-16.073-18.472-33.426-24.23-51.178-2.798-8.557-3.038-17.433-6.078-25.988-2.239-6.237-3.518-10.956-7.037-16.552-4.478-7.037-8.636-16.792-10.875-24.869-1.119-4.238-1.28-9.116-4.158-12.635-6.237-7.676-17.512-10.476-24.47-17.433-1.52-1.599-3.919-4.158-5.437-6.157-2.879-3.518-3.119-10.075-5.997-13.034-6.797 20.791-23.43 36.224-39.583 49.978-12.155 10.396-19.592 26.389-21.831 42.142-4.798 0.639-11.435-4.638-14.794-7.597-9.356-8.557-11.755-22.791-15.034-34.625-1.999-7.277-2.399-18.952-10.396-10.476-3.119 3.278-4.717 6.557-6.477 10.635-2.959 6.717-7.277 12.234-12.234 17.592-4.078 4.318-8.876 7.757-13.434 11.595-9.037 7.597-16.552 16.873-25.509 24.71-5.517-1.839-9.756-6.557-16.153-6.078-3.278 0.24-6.557 2.319-9.276 3.838-1.839 1.040-5.598 4.638-7.277 4.558-6.397-0.32-14.393-16.153-17.512-20.711-1.359-1.999-3.439-4.318-3.598-6.877-3.679 0.56-7.837 5.197-10.795 7.357-4.798 3.598-9.596 6.957-14.234 10.716-7.037 5.598-15.593 11.115-23.67 14.873-3.199 1.52-6.637 3.598-9.996 4.717-3.038 0.96-6.477 1.119-9.756 2.239-6.797 2.319-13.994 2.719-20.711 4.957-2.558 0.879-4.878 2.719-1.52 7.037z"></path>
    <path fill="#000000" d="M587.462 772c-0.32-0.8-1.199-1.839-1.919-2.798 0.72 1.439 1.52 2.879 2.399 4.318-0.16-0.48-0.24-1.040-0.48-1.52z"></path>
    <path fill="#000000" d="M852.468 192.49c-1.52-2.479-2.639-5.197-4.318-7.597-1.599-2.399-3.758-3.758-5.517-5.917-5.517-7.037-8.396-16.312-14.633-22.87-4.238-4.478-8.956-9.436-14.153-12.714-6.957-4.558-14.474-8.797-20.791-14.393-3.199-2.798-4.398-6.078-6.957-8.956-3.919-4.558-11.835-4.478-17.193-6.797-8.156-3.679-16.473-4.798-24.869-7.837-5.838-2.079-10.396-5.118-14.953-9.196-2.319-1.999-4.558-5.278-7.197-6.877-5.517-3.278-13.115-0.879-19.032-1.999-5.358-1.040-7.916-2.319-13.674-1.439-6.957 1.119-14.314 1.76-21.031 3.518-2.558 0.639-4.238 1.999-6.557 2.959 0.72-4.558 1.999-7.597 1.359-12.395-0.24-1.679 0.96-2.239-0.48-3.838-3.679-0.24-7.437-0.48-11.115-0.72-8.396 0.639-16.873 0.48-25.189-0.56-8.636-0.8-17.832-4.478-26.468-6.317-5.598-1.199-10.156-3.998-15.514-6.078-5.917-2.239-11.515-5.197-17.752-6.557-3.758-0.8-9.996-1.040-12.555-4.638-3.518-5.038-0.96-13.914-3.838-19.271-4.638 1.76-6.078 9.196-7.197 13.274-1.359 4.957-4.158 9.037-6.717 13.754-7.037 12.714-14.554 24.15-24.309 34.945-7.757 8.557-14.633 17.832-22.47 26.389-4.638 5.118-8.476 9.436-10.635 15.833-3.518 9.916-8.156 20.311-10.315 30.627-1.679 7.837-4.318 18.232-3.919 26.309 0.16 4.238 1.199 8.956 3.518 12.075 1.199 1.52 2.719 2.239 4.238 3.119-1.919 1.999-3.919 4.318-5.997 6.957 1.359 4.478 3.358 7.197 4.078 12.234 0.56 3.758 0.72 7.916 2.319 11.355 2.639 5.677 3.998 12.075 8.396 16.873 5.118 5.677 10.075 9.596 16.233 13.754 8.156 5.598 16.792 7.517 26.629 8.956 9.676 1.52 19.032 0.8 28.788 0.8 2.639 0 6.797-0.48 10.236-0.56 2.479 1.76 5.038 3.439 7.517 5.197 15.433 10.635 28.788 23.67 42.142 36.784 17.433 16.953 32.227 34.465 44.701 55.417 6.717 11.355 11.595 21.511 13.594 34.465 1.199 7.357 1.999 14.633 2.159 22.071 0.32 14.953-4.717 33.106-12.315 45.9-12.954 21.67-22.23 45.42-32.546 68.451-7.676 17.193-14.873 34.705-22.39 52.057-6.237 14.393-14.153 28.947-18.872 43.981-8.557 27.028-23.43 51.498-17.752 81.005 1.919 10.236 4.798 18.552 8.557 27.988 2.239 5.677 3.679 10.555 7.037 16.073 0.16 0.32 0.48 0.72 0.8 1.119-9.835-18.792-12.555-35.105-6.557-50.378 3.199-8.077 6.957-16.312 11.196-23.99 5.358-9.756 15.113-17.272 20.071-27.428 3.358-7.037 6.237-14.314 10.315-21.191 5.838-9.676 11.355-17.433 18.712-26.069 6.157-7.197 10.635-15.274 18.072-21.271 6.957-5.677 14.234-10.716 19.912-17.752 6.557-8.237 14.554-16.552 25.109-17.992 9.596-1.359 8.956-3.518 14.234-10.795 1.679-2.239 3.758-4.398 5.437-6.797 1.679-2.319 3.919-5.598 4.717-8.317 0.48-1.839 0.16-3.598 0.8-5.358 1.040-3.038 10.635-9.356 13.115-11.595 9.516-8.476 16.312-18.312 24.629-27.508 5.598-6.237 12.555-10.396 19.592-14.873 4.957-3.199 9.596-6.877 14.554-9.835 6.317-3.838 15.433-3.598 21.111-7.837 2.959-2.239 4.318-5.997 6.078-9.196 3.439-6.237 7.517-12.075 11.595-17.912 7.517-10.875 11.196-20.951 9.037-34.225-0.96-6.157-1.199-14.153-4.078-19.832-3.919-7.597-10.396-13.754-15.193-20.871-6.157-9.037-13.514-14.633-21.991-21.191-4.478-3.518-9.196-7.837-13.274-11.835-1.439-1.359-2.399-3.199-4.078-4.398-1.999-1.439-4.638-1.599-6.477-2.959-6.237-4.638-7.916-11.595-9.037-18.792-1.52-8.956-5.838-20.231-1.999-28.867 2.959-7.037 6.397-12.234 11.755-17.512 7.357-7.357 14.633-12.474 23.43-18.232 7.117-4.638 14.794-8.237 22.551-11.755 4.318-1.919 9.116-4.957 13.594-6.397 3.358-1.199 7.437-0.56 10.795-1.839 2.479-0.879 4.158-2.798 6.957-3.199-2.319-6.557-4.158-12.794-7.757-18.712z"></path>
    <path fill="#000000" d="M590.765 778.397c-1.040-1.679-1.919-3.278-2.879-4.957 0.399 1.679 0.399 3.278 1.199 4.878 0.56 0 1.119 0.080 1.679 0.080z"></path>
    <path fill="#000000" d="M544.256 756.167c1.28 2.239 1.999 6.477 3.679 8.237 0.96 0.879 2.639 1.040 3.518 1.999 2.399 2.558 2.239 6.477 7.437 5.038l-21.91-33.265c-2.798-1.439-5.358-5.677-4.878-3.439 1.76 9.037 7.757 13.914 12.155 21.43z"></path>
    <path fill="#000000" d="M577.978 553.614c3.119-7.916 5.917-15.593 8.077-23.75 2.479-9.356 8.476-17.912 11.835-27.028 1.999-5.517 4.158-11.275 5.598-16.873 3.358-12.875 3.119-27.028 1.439-40.063-0.72-5.677 0.080-11.196-0.56-16.792-0.879-8.557-2.479-17.592-4.318-26.069-1.76-8.237-7.277-17.592-10.476-25.269-2.639-6.157-5.757-12.075-10.956-16.473-7.357-6.237-16.153-11.994-24.95-16.153-8.797-4.078-18.632-3.119-28.147-4.078-8.396-0.879-15.673-4.558-23.99-5.677-7.997-1.040-13.514-3.919-20.791-7.437-6.877-3.199-14.554-5.358-20.551-10.075-8.876-7.117-14.714-15.193-21.91-23.829-8.557-10.236-17.352-20.071-25.109-31.027-7.597-10.875-14.153-24.389-17.032-37.343-3.119-13.754-2.798-27.028-2.719-40.782 0-4.558 1.599-9.116 1.919-13.754 0.399-5.278 1.28-10.476 1.839-15.753 0.879-9.356 2.719-18.872 3.998-28.228 0.32-2.319 0.8-4.717 1.119-7.037 0.399-2.959-0.8-5.838-0.56-8.557 0.080-0.879 1.119-2.399 1.199-2.879 0.080-2.959-0.879-5.278-1.040-8.237-0.16-3.278 0.72-6.477 0.56-9.756 0-1.199-0.879-2.639-0.879-3.919 0.16-3.038 1.999-5.197 2.558-8.156 0.56-3.679 1.359-7.277 1.999-10.956-1.52 0.32-1.999 1.52-3.278 2.558-4.878 3.998-9.756 7.916-14.714 11.835-4.398 3.518-8.476 7.757-12.555 11.675-7.277 7.037-17.512 8.636-27.188 11.675-16.312 5.278-36.305 13.674-47.9 27.109-4.717 5.437-7.837 11.915-11.435 17.992-4.717 8.156-9.516 11.595-16.552 17.352-20.392 16.792-44.541 30.787-60.134 52.857-5.917 8.396-9.276 17.032-11.675 27.028-1.439 5.757-2.798 12.714-5.838 17.673-2.879 4.717-5.358 10.236-8.716 14.633-4.878 6.477-12.794 10.956-15.673 18.872 1.439 0.96 2.798 1.919 4.238 2.879 1.28 1.599 2.798 3.278 3.838 5.278 3.838 7.837 6.157 13.115 12.155 19.592 12.155 13.355 23.030 26.629 39.423 34.865 7.437 3.679 15.433 7.837 22.23 12.555 8.636 5.838 15.353 16.873 21.751 24.95 2.639 3.278 4.798 7.197 7.757 10.156 4.078 4.158 7.676 5.437 13.194 7.837 9.116 3.919 18.072 8.237 27.508 11.835 10.555 3.998 21.831 5.437 32.786 8.077 11.435 2.719 21.751 6.877 33.666 5.917 18.872-1.52 37.744-0.32 56.616-0.399 5.917 0 11.675 0.72 17.673 0.24 3.278-0.24 7.357-1.52 10.635-1.040 2.079 0.32 4.798 2.159 6.957 3.119 0.32 1.119 0.72 2.319 1.119 3.518 2.079 6.397 2.639 13.115 3.758 19.751 1.199 7.117 3.439 14.794 3.358 22.071-0.080 4.798-1.119 9.916-1.839 14.633-0.8 5.437-0.72 11.355-1.76 16.633-0.48 2.798-2.159 5.038-2.479 7.916-0.32 2.798 0.16 5.677 0 8.476-0.24 5.118-1.76 9.996-2.159 15.113-0.8 11.115-1.28 22.311 0 33.426 1.919 16.473 0.879 34.305 7.837 49.819 1.679 3.838 5.118 12.474 10.555 11.915 2.079 10.635 5.358 20.871 9.756 30.866 3.679 8.317 6.957 16.312 9.676 24.869 2.159 6.557 6.797 12.234 9.916 18.392 0.639 1.28 1.28 3.358 2.159 5.517-1.919-9.756-3.679-19.672-4.638-29.427-1.439-13.754 2.879-24.069 6.317-36.944 2.479-9.196 4.717-14.474 9.116-22.95 3.598-6.877 5.517-14.234 8.956-21.111 6.078-12.075 9.996-23.829 14.393-36.464 3.278-9.516 9.356-17.832 13.034-27.188z"></path>
    <path fill="#000000" d="M330.868 110.606c-2.879-0.879-5.838 3.038-8.636 4.078-6.717 2.479-14.153 3.439-20.951 5.997-3.439 1.28-7.597 1.439-10.716 3.278-2.959 1.76-3.439 2.798-7.197 4.078-10.476 3.358-22.47 11.675-29.507 20.152-4.398 5.278-7.357 11.755-10.476 17.752-3.038 5.757-7.357 8.797-12.714 12.395-11.675 7.837-25.748 12.155-36.784 20.632-8.396 6.477-12.075 15.593-17.032 24.309-3.278 5.677-8.077 8.956-11.196 14.714-1.199 2.319-2.879 4.478-4.318 6.317-4.158 5.197-8.956 10.476-13.194 15.833-2.798 3.518-4.798 4.717-9.116 5.997-4.798 1.439-9.037 3.598-13.994 4.478-1.28 3.199 0.080 6.797 2.239 9.356 2.558 3.038 3.758 4.398 5.038 8.396 3.518 10.555 4.318 20.471 12.555 28.308 6.877 6.557 8.077 10.476 8.237 19.832 0.080 5.917-1.040 12.395 0.399 18.232 2.399 9.996 2.959 21.43 7.676 30.947 1.439 2.879 3.439 3.679 5.917 5.677 3.679 3.038 6.877 6.797 9.756 10.476 6.157 7.757 15.913 13.034 24.71 17.512 14.633 7.437 32.386 11.515 48.379 14.074 16.552 2.639 32.786 5.278 49.259 8.317 7.117 1.28 14.234 2.479 21.511 2.479 9.516 0.080 18.552 0.080 27.828-1.599 7.916-1.52 15.833-1.839 23.51-4.638 3.679-1.28 5.278-2.558 9.676-3.838 13.594-3.998 27.428-7.197 40.542-11.915 11.355-3.998 19.432-0.8 30.547-0.399 5.598 0.16 4.638 0.32 7.757 3.998 3.838 4.318 7.997 7.997 11.755 12.635 4.158 5.197 5.917 10.075 9.037 15.753 1.76 3.038 3.119 4.558 4.078 8.156 1.919 7.037 3.199 15.673 4.238 22.791 1.439 9.835 2.239 23.27 0.399 33.346-0.56 3.119-1.52 5.677-1.599 8.876-0.32 6.717 1.919 16.953-1.359 22.95-2.239 4.158-5.437 3.358-8.797 6.317-2.798 2.479-3.119 6.237-3.998 9.996-1.199 5.517-1.839 10.476-3.998 15.673-1.919 4.717-3.119 9.916-1.599 14.873 0.639 2.159 2.879 4.318 3.598 6.557 3.679 11.355 3.679 25.189 5.598 36.864 1.199 7.757 4.478 14.554 5.997 22.311 1.52 7.197 5.757 10.956 8.237 17.592 3.598 9.756 4.158 20.551 5.917 30.627 2.319 12.875 69.010 81.725 67.491 78.686-2.479-4.717-6.317-9.516-9.356-13.834-7.757-10.956-37.823-66.212-39.103-70.769-2.479-9.037-2.159-19.352-2.479-28.707-0.56-16.552 5.437-30.866 8.476-46.54 3.758-19.432 7.277-38.623 8.716-58.374 2.798-38.943 4.878-80.605-2.479-118.988-3.278-17.032-8.317-33.505-13.194-50.218-2.079-6.957-1.999-14.873-4.318-21.591-2.798-8.636-9.996-7.676-18.392-8.476-16.552-1.599-32.866-0.72-49.418-0.56-27.908 0.399-52.617-7.757-77.887-18.792-25.829-11.275-45.82-27.268-62.693-49.418-23.43-30.866-26.948-73.489-6.157-106.434 11.035-17.433 30.227-24.869 42.542-40.863 4.478-5.838 8.557-11.915 12.395-18.232 4.798-7.757 9.516-15.433 13.434-23.67 2.079-4.398 2.639-10.236 5.598-13.834z"></path>
    <path fill="#000000" d="M520.826 673.403c-0.32 1.839 0.879 4.078 0.96 6.078s0.879 4.638 1.52 6.557c0.72 2.079 2.399 3.518 3.119 5.517 0.639 1.919 1.76 4.478 2.239 6.317s0.32 3.038 1.199 4.717c1.28 2.399 2.558 4.717 3.598 7.117 1.679 3.998 4.078 7.676 5.517 11.675 1.040 3.038 1.919 5.917 2.798 9.116 0.8 3.119 2.639 5.598 3.278 8.636 0.8 3.679 3.199 7.676 4.957 11.275 2.798 5.677 6.078 11.035 8.797 16.633 1.199 2.399 2.719 3.998 3.998 6.237 2.079 3.679 4.638 9.996 3.278 14.314-0.8 2.558-2.479 2.399-4.078 1.040-4.318-3.598-8.156-8.716-12.234-12.714-7.676-7.517-13.674-16.633-21.271-24.15-5.917-5.917-11.355-12.635-14.234-20.551-1.52-4.078-3.439-8.237-4.398-12.474-1.119-5.118-1.76-10.875-2.159-16.153-0.32-4.798-1.040-11.035-0.080-15.753 0.48-2.479 2.159-5.197 3.199-7.277 2.719-5.278 4.638-10.476 9.996-6.157z"></path>
    <path fill="#000000" d="M573.364 702.11c-2.719 0.639-3.998 8.557-4.078 11.275-0.080 2.558 0 5.278 0 7.916 0 3.038 0.32 4.957 1.359 7.837 0.399 1.28 0.16 3.278 0.639 4.398 0.32 0.8 0.8 1.359 1.52 1.76 0.48 0.96 0.879 1.999 1.199 3.038 0.879 2.079 2.079 3.919 2.399 6.237 0.24 1.359 0.32 2.399 0.72 3.838 1.119 4.638 2.639 8.636 4.318 12.954 1.679 4.478 3.038 8.956 4.798 13.434 1.28 3.278 3.919 7.277 4.398 10.635 0-2.558-1.040-4.957-1.119-7.517-0.16-3.278 0-6.557 0-9.756v-33.825c0-6.717 0-13.434 0-20.152 0-7.037-0.639-15.034 2.079-21.67 3.998-9.996 11.275-18.472 15.993-28.147 2.399-4.957 4.158-10.075 7.037-14.794 0.8-1.28 2.798-3.598 2.558-5.038-1.28 1.599-3.679 2.798-5.278 4.158-7.597 6.477-16.153 13.274-22.23 21.271-2.959 3.838-4.398 8.156-7.757 11.595-2.399 2.558-4.717 4.398-8.557 20.551z"></path>
    </svg>