<svg xmlns="http://www.w3.org/2000/svg" viewBox="-29.688 -16.738 1092.301 1056.728">
    <path fill="#000000" d="M910.558 603.468c-1.673 1.351-3.558 2.124-5.677 2.347-2.038 0.076-4.012 0.151-6.055 0.301-5.604 0.836-10.749 2.877-16.504 3.71-0.301 0.076-0.537 0.076-0.836 0.151 0.153 0.076 0.301 0.076 0.451 0.076 2.499 0.75 4.543 2.195 7.19 2.423 2.499 0.236 17.716-1.673 18.398 0.902-1.739 0.301-3.255 1.351-4.921 1.673-1.052-0.236-2.195-0.301-3.33-0.301-4.39 0.537-8.631 1.673-12.719 3.33-20.44 5.753-41.562 3.181-62.306 5.223-12.264 1.201-25.209 3.938-37.55 3.255-4.012-0.151-7.799-1.673-11.809-1.437-5.148 0.151-10.143 1.201-15.293 1.351-11.053 0.301-22.712 0.75-33.764-0.236 0.537-0.836 1.052-1.589 1.589-2.423-5.525-1.825-11.507-1.351-17.185-1.288-8.782 0.076-17.412 0.151-26.117 0-9.162-0.236-19.305 0.537-28.011-2.801 1.052-1.052 2.499-1.589 4.164-1.523 2.651-0.836 5.148-1.974 7.497-3.409 4.24-1.739 8.782-0.987 13.25-1.138 2.499-0.151 3.029-0.836 5.299-1.374 3.86-0.836 11.129 0.076 14.687 0.076 7.19 0 13.022 1.052 20.212 0.301 4.24-0.451 8.1 0 12.115-1.589 1.739-0.601 2.877-1.825 4.39-2.651 3.86-1.974 10.069 0.151 14.31 0.076 4.921 0 9.917 0.151 14.611 1.673 1.288 0.451 1.739 1.052 3.181 0.987 0.987-0.236 1.974-0.601 2.953-1.052 5.753-0.451 11.585-0.601 17.412-0.301 9.236 0.076 18.018 0 27.179-1.523 11.962-1.974 23.62-2.801 35.734-3.936 7.799-0.687 15.065-0.987 23.014-0.902 5.981 0.076 10.523-0.687 16.203-1.288-0.601 0-1.138-0.076-1.589-0.076-0.236 0-0.385 0.076-0.601 0.076-1.523 0.151-2.651-0.236 0.601-0.076 1.523-0.236 2.499-0.537 4.012-0.902 5.074-1.288 11.431-0.076 16.654-0.537 3.102-0.301 6.435-1.138 9.613-1.201-3.482 1.351-6.965 2.651-10.447 4.012zM880.882 652.59c-1.673 1.201-4.543 1.974-6.511 2.499-9.009 2.573-19.229 3.33-28.54 3.255-4.694-0.074-8.404-0.074-12.946 1.138 3.786-0.236-15.519 10.297-14.231 9.54-2.953 1.673-6.283 4.39-9.464 5.905-4.846 2.347-10.447 2.499-15.897 2.499 0.153 0 0.385 0 0.537 0h-4.466c1.288 0 2.651 0 3.936 0-5.451-0.451-11.887 0.385-16.882 2.271-2.345 0.902-3.633 1.589-6.209 1.589-11.205 0.153-22.485 0.074-33.689 0-1.288 0-2.499 0-3.708 0-15.897 0.153-31.871-1.825-47.619-4.088 0.153-2.877 9.613-5.451 12.264-6.283 3.558-1.138 7.269-1.052 10.901-1.201 8.326-0.236 16.654 0.074 24.907 0.074h21.046c-6.889 0-13.701 0-20.593 0-0.153 0-0.301 0-0.451 0h-0.236c17.563 0 35.959 1.437 53.145-2.124 7.269-1.437 12.719-4.921 19.381-6.813 3.633-1.052 7.269-1.288 10.977-1.288-3.708 0-7.418-0.074-11.129 0.153-5.753 0.301-11.507 2.124-17.185 0.75 2.651-3.482 5.905-6.511 10.523-5.981-0.537 0-0.987 0-1.523 0.074 9.841-2.124 19.381-2.651 29.448-2.573 12.492 0.153 24.452-1.523 36.793-2.953 4.24-0.537 10.523-2.195 14.687-0.687 0.074 0.301 0.074 0.687 0.153 1.052 5.376-1.351 5.604-1.351 5.829-1.437-1.288 1.351-1.673 3.482-3.255 4.618zM863.688 715.636c-2.953 2.271-7.799 2.725-11.129 4.088-5.074 2.038-9.917 4.543-14.687 7.269-2.038 1.201-4.164 2.499-6.283 3.71-1.351 0.836-2.573 1.888-3.86 2.801 0.301-0.236 0.537-0.537 0.75-0.836-8.328 1.351-16.882 2.347-25.135 4.012 13.929-5.148 27.557-11.053 41.26-16.654 2.801-1.201 7.646-2.195 9.009-5.451-1.825 0.987-2.953 1.052-5.604 1.351-5.753 0.836-11.582 1.374-17.412 2.038-22.485 2.499-45.499 1.673-68.059 1.589 0.687-0.75-10.371-0.301-11.585-0.236-3.86 0.385-7.799 0.987-11.659 1.739 5.905-1.288 11.734-3.029 17.64-4.39-10.523 1.138-20.818 2.725-31.418 4.768-23.999 4.694-48.528 3.181-72.903 3.181h16.73c7.343-0.902 14.611-3.71 21.878-5.223 7.874-1.589 15.823-2.877 23.695-4.618 9.917-2.271 19.835-4.316 29.903-6.209 3.181-0.601 9.009-3.33 12.188-3.029 0 0.451 0.074 0.836 0.074 1.201l63.667-2.651c4.543-0.836 9.162-1.589 13.78-2.271 4.012-0.537 7.418-0.236 11.357-1.437 4.24-1.437 7.418-1.052 11.887-1.374-1.138-0.074-2.124 0.236-3.181 0.601-3.936 1.374-6.133 1.825-10.371 2.271-4.164 0.385-8.176 1.052-12.264 1.739l18.246-0.75c1.589 0 3.181 0.074 4.694-0.074-2.651 1.351-5.376 2.801-8.1 3.86-8.782 3.409-21.046 0.687-28.995 6.587 13.929-2.499 29.070-2.195 43.152-1.523 3.181 0.153 6.283 1.138 2.725 3.86zM822.419 737.376c-1.739 0.687-4.088-0.074-5.905 0 2.651-1.201 6.511-1.138 9.387-2.573-1.138 0.902-2.423 1.673-3.482 2.573zM777.449 744.946c-0.687 0.236-1.351 0.451-1.888 0.601-2.953 0.687-5.905 1.052-8.782 1.374-1.739 0.451-3.482 0.836-5.223 1.288-6.359 1.437-12.566 2.953-18.925 4.39-12.036 2.725-24.226 4.164-36.565 4.921-11.357 0.601-22.787 1.288-34.143 1.589-5.148-0.074-10.297-0.301-15.445-0.687-3.33-0.153-6.661-0.451-9.993-0.987-1.523-1.052-2.271-1.288-0.836-2.953 2.725-2.953 10.977-3.558 14.231-3.86 7.646-0.75 15.141-1.523 22.636-3.409 6.133-1.589 11.507-3.181 17.79-3.558h-2.723c-3.558 0-7.041 0-10.599 0h10.675c2.725 0 6.435-0.601 9.312 0 1.825 0 3.633 0 5.525 0h-5.223c0.385 0.074 0.75 0.153 1.138 0.301-5.451 0.687-10.901 1.138-16.277 1.974 8.404 1.589 17.11 0.236 25.437 1.825-6.131 0.902-12.264 1.673-18.473 2.347 8.934-0.074 17.942-0.074 26.875-0.074 4.921 0.074 9.841 0.236 14.763 0 5.604-0.301 10.977-1.523 16.504-2.195 3.181-0.385 6.359-0.601 9.54-0.902 2.573-0.687 5.223-1.288 7.874-1.739 0.902-0.153 1.888-0.153 2.801-0.236 1.288-0.451 2.651-0.987 3.708-1.052-1.138 0.75-2.423 0.987-3.708 1.052zM444.423 771.075c-2.953 0.75-5.451 2.423-8.478 2.953-7.418 1.351-16.504 0.687-23.922 0-11.205-1.052-22.029-2.499-33.385-2.271-5.525 0.074-10.749-0.987-16.124-1.351-5.148-0.236-9.236-0.601-14.385-1.739-3.029-0.687-5.604-0.687-8.706-0.687-6.283 0-12.34-1.288-18.547-1.351-4.088-0.074-8.176 0-12.34 0.074-2.499 0-8.027 0.75-10.749-0.301 1.888-2.651 11.809-0.987 15.519-0.987h11.205c6.055 0 12.188 0 18.246-0.074 17.11-0.153 34.294 0.451 51.329 1.825 5.451 0.451 10.675 1.673 16.124 2.038-2.876-2.499 0.687-2.499 4.24-2.573 3.029 0 5.074 0.836 7.874 1.201 3.482 0.451 7.19 0.074 10.675 0.074 11.129-0.074 22.257 0.236 33.385 1.288-7.19 1.825-14.837 0.153-21.955 1.888zM282.34 687.428c-0.902 0.074-1.825 0.153-2.725 0.385-3.86 0.75-7.19 3.33-11.205 3.71-2.801 0.236-5.829-0.236-8.631-0.153-2.877 0.074-5.376 1.288-8.176 1.351-3.86 0.074-6.587 1.523-10.371 2.271-7.494 1.523-15.823 2.038-23.544 2.651-5.074 0.451-6.661-0.153-10.827-2.423-4.012-2.195-10.827-2.573-15.595-2.573 5.753 0.153 11.582 0 8.478-2.499 1.974-0.074 3.786 0 5.753-0.236 5.677-0.601 10.901-3.558 16.58-3.71 9.766-0.301 19.533-1.288 29.223-2.195 5.148-0.451 10.371 0.074 15.367-0.902 3.255-0.687 5.753-1.138 8.631 0.301 2.038 0.987 4.316 3.181 6.283 3.936 0.236 0.074 0.537 0.074 0.75 0.074 3.86-0.301 8.027 0.153 11.809 0.153h2.124c-3.633 0-10.221 0.902-13.929-0.153zM164.617 621.708c-2.124-0.385-4.316-0.836-6.435-0.301 20.212-1.888 40.956-6.209 61.321-5.299 16.2 0.687 32.628 2.195 48.527 5.299 3.938 0.75 7.646 1.374 11.357 2.271 4.24 1.052 9.162-0.987 13.25 0.385 0.601 0.902 1.523 1.437 2.651 1.589 2.499 0.902 5.074 1.201 7.799 0.836 3.33 0 6.661-0.151 9.993-0.151 5.376 0.076 10.523-0.75 15.823-1.138 2.499-0.151 5.074 0.236 7.571-0.076 1.673-0.151 3.029-0.75 4.543-1.201 7.041-2.347 14.915-3.633 21.955-5.223 0.301 0 6.889 0 13.552 0 4.39 0 8.934-0.451 13.324 0.301 0.836 0.151 3.936 0.601 4.39 1.052 1.138 1.052 0.987 3.255 0.451 4.846-10.069 0.385-20.212-0.385-30.206 0.987-6.813 0.902-13.25 4.164-20.139 4.466-18.851 0.836-38.003-0.151-56.93-0.151-7.571 0-60.866 2.038-61.473-3.936-11.205 0.236-22.787 0.902-33.915 0-9.312-0.836-18.246-3.102-27.404-4.543zM431.856 668.431c-1.052-4.543 1.825-1.589 5.525-1.138 2.347 0.301 4.618-0.451 6.965 0.153 0.601 0.75 1.437 1.052 2.499 1.052 0.987 0 1.974-0.074 2.953-0.153 1.374 0.301 1.739 1.673 3.33 1.351-3.33-0.074-6.661-0.074-9.993 0-4.39 0-8.782 0.601-13.172 0.987-4.543 0.385-9.387-0.074-13.854 0.537-4.24 0.687-7.948 2.271-12.264 2.345-3.181 0-6.283 0-9.387 0-5.299 0-9.312-1.437-14.157-2.725-2.953-0.836-4.996-0.902-8.176-1.052-2.347-0.074-4.543-0.601-6.739-1.288-2.725 0-5.451 0-8.176 0-7.041 0-13.78-1.288-20.742-1.374 5.829 0.301 11.357-1.138 17.11-1.288 4.088-0.074 7.948 1.437 11.809 2.651 4.012 0 8.024-0.074 12.036-0.074zM956.265 551.769c-6.813 0.836-13.93 0.236-20.743 0.236h-26.496c-16.2 0-33.158-1.351-48.981 0.687-6.209 0.75-12.416 0.601-18.699 0.601-16.051-0.076-32.326 1.201-48.3-0.301 0.236-0.301 0.601-0.537 1.052-0.687-14.385 1.351-28.768 3.181-43.227 4.39-5.223 0.385-7.497 0.451-11.357 1.288-2.195 1.052-4.618 1.288-7.19 0.75-13.25 0.987-26.496 1.825-39.745 2.499-12.34 0.151-24.68 0.987-36.944 2.347-2.877-0.687-5.376-0.151-7.269 1.589 2.195 1.437 6.661 0.987 9.009 1.138-10.143 1.288-20.212 0.987-30.055 4.39-1.052 0.385-20.139 9.54-19.077 14.611 6.359 0.385 12.794 0.301 18.851 2.499 0.687 4.088-1.437 4.088-3.33 7.418 5.074 3.482 10.447 6.283 14.535 10.901-4.316 2.953-8.478 6.133-12.492 9.54-4.543 2.423-7.646 6.133-9.387 10.977 5.376 0.987 10.749 1.825 16.2 2.423 5.223-0.076 10.069 1.437 14.459 4.466-4.316 5.376-9.54 9.464-15.823 12.264-6.055 3.33-11.809 7.117-17.412 11.279-6.813 3.633-12.264 8.782-16.352 15.445 0.537 1.589 0.987 3.181 1.374 4.846 4.088 0.074 7.721 1.288 10.977 3.482-2.347 5.148-6.209 7.799-10.901 10.827-3.102 2.038-9.841 3.558-10.901 7.041 13.172 2.499 26.345 4.24 39.669 5.981 0.601 2.953-0.537 5.148-3.406 6.511-2.801 2.423-5.074 5.223-6.739 8.478 0.687 1.288 1.673 1.523 3.029 0.687 2.573 3.255-7.646 10.069-9.766 11.962-4.39 3.936-12.492 9.388-11.962 16.051 7.19 0.236 15.519-1.589 22.257 0.687-11.279 7.418-22.863 14.005-34.672 20.44-4.466 2.423-12.492 4.921-15.519 9.162 3.406 0.75 6.813 1.052 10.221 1.052 2.953 0.236 5.981 0.301 9.009 0.153 2.725 1.288 5.074 5.148 6.965 7.343 3.786 4.466 4.316 5.981 6.813 10.143 0.687 1.138 1.888 1.888 2.573 3.181-2.573 2.651-5.299 4.996-8.328 7.041-3.482 1.739-5.829 4.39-7.19 8.024 4.24 0.75 8.478 1.138 12.719 1.288 2.877-1.052 4.846-0.385 5.981 1.974-13.097 6.739-24.907 15.519-36.642 24.452 0.385 2.953 2.124 3.71 5.299 2.271 3.786-0.153 7.494-0.301 11.279-0.385-0.076 4.088-2.725 6.739-7.948 7.799-5.829 3.71-10.977 8.252-15.519 13.475 7.418 4.468 14.989 0.153 22.938 2.038-3.029 0.902-6.209 3.558-4.012 6.813 1.351 1.888 11.507 0.836 13.929 0.75 4.543-0.153 4.543-1.052 7.799-1.589-15.673 11.431-34.294 19.455-52.086 26.8 1.825 0.451 3.633-0.074 5.376 0.537-3.255 0.836-6.587 1.138-9.993 0.987-3.255 1.052-5.604 0-6.889-3.255 1.201-2.725 6.889-11.357 5.905-14.837 0.151-2.038-0.836-3.029-3.102-3.105-2.347-0.836-4.39-2.124-6.133-3.86-4.618-2.195-5.525-6.055-2.725-11.659 2.801-3.86 5.525-7.721 8.328-11.659 3.558-4.24 8.176-6.435 8.554-12.112-6.889-2.573-11.734-7.418-14.535-14.611-0.236-4.164-0.385-8.404-0.601-12.642 1.673-11.053 13.475-13.78 19.835-20.895-11.129-1.589-24.68-0.902-34.749-6.283 3.102-7.497 14.231-9.54 21.272-12.264-14.611-1.201-29.146-1.201-43.757-2.725 9.464-4.543 19.381-8.176 29.601-10.827 10.447 1.052 15.367-1.825 14.839-8.631-12.946-1.351-25.892-2.124-38.912-2.877 14.082-4.543 28.238-8.328 42.017-13.628 6.965-2.725 13.022-5.981 19.607-9.312-3.936-6.055-10.977-6.055-21.122 0-28.768 0.385-57.612 0.537-86.38 0.451-20.742 0-41.41 0-62.078-0.074-2.038-0.601-3.71-0.153-5.074 1.201 7.041-6.813 15.293-11.962 24.756-15.595 23.544-13.929 46.936-28.087 70.178-42.47 13.172-8.252 26.422-18.699 40.578-25.135-4.088-1.351-8.328-1.673-12.794-0.836-9.009-0.153-18.093-0.236-27.102-0.074-15.747 0-31.493 0.537-47.241-0.074 4.694-1.825 9.312-3.71 14.082-5.451 2.499-0.902 5.753-1.138 7.721-2.953-13.324-1.825-26.724-3.482-40.124-5.074 1.288-1.437 2.801-2.347 4.77-2.801 3.255-1.201 5.981-3.102 8.328-5.753 3.558-3.102 11.053-7.497 9.766-12.944-3.86 0.451-7.418 0.836-11.279 0.537-0.451-2.725 3.409-3.633 5.3-4.543 9.084-4.316 18.018-8.934 27.026-13.324 4.618-2.347 9.613-5.3 14.611-6.813 1.138-0.301 1.739-0.836 3.029-0.75-5.148 0.151-10.297 0-15.445 0-11.887 0-23.62 0.687-35.506 1.201-6.813 0.301-13.552-0.236-20.365-0.076-8.782 0.151-17.563 3.181-26.27 4.088-8.328 0.902-16.58 1.201-24.907 1.201-7.269-0.076-14.989-0.687-22.257 0.75-10.749 2.124-22.333 6.435-33.462 3.86-4.618-1.138-9.162-3.482-13.78-4.39-7.571-1.437-15.897-1.974-23.544-2.573-12.34-0.987-25.058-0.236-37.474-0.236-6.209 0-12.492 0-18.699 0-5.299 0-10.221-0.236-15.367 0.75-7.571 1.351-14.915 3.86-22.485 5.223-4.088 0.687-8.176-0.236-12.188 0.601-2.423 0.451-4.694 1.739-7.117 2.271-8.631 1.673-17.942 3.33-26.648 5.604-2.725 0.687-2.953 1.825-5.376 0.301-1.351-1.739-2.801-3.482-4.24-5.223-2.651-3.33-5.451-6.587-8.326-9.692-3.409-3.786-4.846-4.316-9.54-3.409-14.005 2.651-29.146 0.987-43.455 0.987-1.673-2.038-8.631 2.195-8.782 3.86-0.076 1.201 3.029 5.069 4.012 6.055 3.102 3.181 7.646 0.236 10.977 3.558 0.836 1.739 1.888 3.255 3.255 4.543 0.836 1.201 1.888 2.124 3.102 2.877 3.255 3.482 6.055 7.799 8.934 11.582 2.953 3.86 5.223 8.176 8.478 11.809 2.651 3.029 6.359 5.905 8.326 9.236 0.987 3.105 1.974 6.133 2.953 9.162 1.138 3.633 2.801 7.041 4.996 10.143 2.876 5.148 5.829 10.221 8.856 15.217 5.376 3.409 10.977 6.209 16.958 8.404 15.065 7.646 30.963 17.79 43.304 29.525 5.525 5.223 10.977 11.887 14.687 18.623 3.633 8.934 5.753 18.17 6.435 27.859 1.052 10.371 4.618 19.761 10.599 28.238 3.786 5.905 7.948 11.431 12.492 16.73 5.677 4.164 11.357 8.176 17.11 12.188 5.905 4.618 10.749 10.221 14.459 16.73 5.376 7.948 12.115 14.459 20.139 19.683 15.823 11.887 33.235 24.831 53.447 26.117 9.54-0.451 19.003-0.236 28.466 0.75 9.084 0.236 17.11 3.181 24.073 8.782 1.201 2.651 2.423 5.376 3.633 8.1 4.996 9.312 12.188 16.504 21.5 21.576 9.692 6.587 20.212 11.659 31.418 14.989 6.055 1.673 12.115 2.801 18.319 3.558 10.599 2.124 21.12 4.846 31.493 8.1 8.856 2.347 17.338 5.525 25.588 9.613 3.102 2.573 6.511 4.618 10.221 5.981 8.554-0.451 17.034-0.987 25.513-1.589 10.219-0.75 20.365-2.423 30.282-4.996 8.176-1.739 16.428-3.409 24.604-5.071 4.618-1.589 9.009-3.71 13.172-6.133 5.677-2.423 9.766-4.088 14.611-7.799 5.071-3.936 9.613-6.587 15.141-9.312 5.753-4.164 11.205-8.631 16.428-13.4 5.677-5.376 11.962-10.069 18.699-14.082 6.587-2.124 13.4-3.181 20.288-3.181 7.19-1.138 14.385-2.499 21.5-4.012 2.877-0.836 5.753-0.836 8.631-0.236 5.299-0.987 10.447-2.347 15.595-4.164 9.387-3.406 17.185-9.009 23.544-16.882 7.041-7.948 14.687-15.293 23.014-21.878 8.782-5.223 4.618-1.673 7.646 3.255 10.143-10.371 16.124-24.377 24.378-36.187 14.459-20.742 32.402-38.382 48.072-58.141 13.022-16.504 23.393-34.824 35.051-52.388 5.829-8.782 10.901-16.277 14.763-26.043 2.271-5.677 3.936-12.036 7.269-17.26 4.77-7.418 9.009-14.307 11.887-22.787 3.33-9.766 0.537-19.985 3.633-29.903 2.725-8.782 11.809-14.307 18.548-20.063 3.861-2.725 7.343-5.905 10.371-9.54 0.833-2.499 1.665-5.074 2.346-7.646 0.833-2.195 0.679-3.71 1.060-5.905 0.527-3.633 2.725-7.19 4.39-10.447 1.211-2.423 3.18-5.905 3.559-8.554-8.857 1.374-17.488 4.996-26.345 6.055z"></path>
    <path fill="#000000" d="M742.6 255.529c1.052 0.301 2.038 0.601 3.102 0.902-1.201 0.301-2.423 0.537-3.708 0.537-2.651 0.076-5.148-0.601-7.799-0.076-0.451 0.076-0.902 0.151-1.351 0.301 0.153-0.151 0.301-0.301 0.451-0.451 1.138-0.987 2.038-1.888 2.953-2.801 2.124 0.537 4.164 1.052 6.359 1.589zM199.499 256.515c-0.236-2.038-1.974-1.739-3.255-2.725-1.523-1.138-3.102-3.102-4.316-4.39-2.877-3.102-2.124-6.889-1.739-10.901 0.236-1.974 0.601-4.012 2.271-4.921 2.801-1.589 8.027 0.385 10.901-0.75 2.953-1.138 4.921-6.055 7.269-8.252 2.877-2.573 5.604-3.102 9.084-4.543 2.801-1.138 4.694-3.181 7.343-4.543 1.589-0.75 2.651-1.437 3.786-2.651 3.558-3.786 7.041-9.084 11.659-11.582 2.953-1.523 7.343-3.786 10.523-4.466 4.694-0.987 10.447 0.301 15.065 0.451 4.316 0.236 8.554 0.451 12.87 0.601-5.829 5.074-11.734 9.993-17.79 14.763-4.77 3.786-9.388 7.721-13.78 11.887-1.673 1.589-4.77 3.558-5.451 5.753-0.687 2.124 0.076 5.829 0.151 7.948 0 1.351-0.076 2.725-0.076 4.164-4.316 6.055-8.027 12.794-10.447 19.455-1.351 3.71-2.499 6.965-3.33 10.827-0.75 3.181-0.601 5.829-0.902 8.934-0.451 5.604-3.938 7.117-7.494 10.675-1.825 1.739-2.877 4.316-4.164 6.587-1.351 2.499-2.195 5.223-3.786 7.571-2.423 3.482-6.055 6.587-6.813 10.901-0.75 4.543 0.076 7.948 1.589 12.036 1.825 4.921-3.102 10.219-6.283 13.854-1.673 1.888-2.347 3.181-2.573 4.543-0.451 0.687-0.987 1.437-1.437 2.195-2.651 4.694-1.888 8.404-0.987 13.324 0.75 4.618-0.236 10.827-0.687 15.519 0.301-0.236 0.537-0.537 0.75-0.836-0.301 1.201-0.537 2.423-0.687 3.633-0.151 1.138-0.537 1.673 0 2.651 1.374-0.236 1.825-1.739 3.33-1.888 1.201-4.694 1.739-9.54 2.038-14.385 0.75-1.351 1.351-2.725 1.739-3.936 0.537-1.974-0.451-4.39 0.151-6.283 0.385-1.052 1.138-1.201 1.523-2.347 0.451-1.589-0.301-3.558 0.076-5.148 0.301-1.052 0.687-1.974 1.052-2.877 1.888-0.902 4.164-1.437 6.209-2.423 6.283-3.33 10.447-7.948 15.897-12.264 1.825-1.374 3.71-1.974 5.753-2.801 4.316-1.825 8.631-2.953 13.324-3.633 3.33-0.451 6.435-1.052 9.613-1.825 1.673-0.385 5.148-0.385 6.511-1.201 1.201-0.75 1.589-2.271 1.825-3.558 1.138-5.829 0.601-12.642 0.836-18.699 0.151-5.148 1.437-7.646 4.846-11.507 3.255-3.71 5.981-4.996 10.523-7.269 8.934-4.543 16.352-11.585 24.907-16.73 5.074-3.102 10.749-5.525 16.2-7.721 3.255-1.351 6.587-3.255 9.993-3.786 1.589-0.236 3.181-0.236 4.77-0.301 1.523 0.385 3.029 0.836 4.543 1.374 0.836-0.687 1.825-1.201 2.725-1.739 6.435-0.601 13.25-0.385 19.607-0.537 1.052 0 2.038 0 3.029 0.076 1.673 0.687 3.33 1.437 4.846 2.499 4.24-0.987 8.328-1.351 12.112-0.301 5.223 1.523 2.423 3.938 6.055 6.889 1.437-0.301 2.953-0.537 4.466-0.601 0.301 0 0.601-0.151 0.902-0.151 5.525-0.451 9.917 0.537 14.611 2.573 0.601-0.236 1.201-0.301 1.825-0.537l34.068 29.676c7.497 6.964 14.687 14.385 21.046 22.408 6.661 1.825 12.719 5.905 16.504 12.642 14.915 26.724 32.705 57.157 34.824 88.424 0.687 10.219-0.902 19.985-3.33 29.525 1.351 2.271 2.347 4.768 2.573 7.343 2.877 28.162-5.223 54.962-22.485 73.207-3.255 7.497-7.041 14.535-11.582 20.516-0.451 1.739-0.902 3.409-1.589 5.074-1.523 3.71-7.117 12.115-11.507 11.734 5.604 7.497 7.19 8.478 14.005 9.387 6.739 0.987 13.475-0.385 20.288-0.301 3.255 0.076 6.587 0.301 9.841 0.451 4.39 0.236 14.231-0.385 18.398 2.347 2.801 1.888 5.223 8.478 5.451 11.507 0.385 6.131-1.437 12.794-5.829 17.11-5.148 4.996-11.053 7.117-8.176 15.367 1.138 3.406 1.739 3.786 4.921 3.102 5.376-1.201 11.129 2.124 15.445 4.921 1.825 1.201 5.677 5.3 7.948 4.846 0.75-1.825 0.236-4.088 0.301-5.981 0.236-2.725 1.138-4.996 2.347-7.418 2.499-4.921 7.343-10.749 13.324-11.431 2.271-0.301 4.694 0.687 7.041 0.076 2.877-0.836 4.164-4.012 5.604-6.359 4.618-7.799 7.646-16.352 10.675-24.831 1.825-5.148 4.921-9.692 6.965-14.687 3.482-8.404 11.734-13.929 19.305-18.246 4.088-2.347 10.977-5.223 12.87-10.143 2.271-0.836 3.029-2.877 3.255-4.921 0.301-3.71-0.385-7.799-0.385-11.507-0.074-4.543-1.739-8.554-2.499-13.022-0.902-4.768-3.558-7.571-6.435-11.585-1.974-2.725-6.133-7.343-7.19-10.523-0.385-1.288 0-2.651-0.153-3.936-0.236-1.437-0.987-2.423-1.351-3.786-0.836-3.181-1.974-6.283-2.877-9.54-0.601-2.195-1.138-3.71-2.347-5.376-0.601-0.836-1.374-0.902-1.739-2.038-0.687-1.888 0.076-4.921-0.385-7.041-0.537-2.877-1.673-6.131-2.725-8.934-0.451-1.288-0.987-1.589-1.201-3.102-0.236-1.739 0.076-3.409-0.385-5.223-0.75-3.102-2.423-4.164-2.423-7.497-0.076-4.618-0.987-8.706 1.138-12.944 0.987-2.038 3.86-4.694 3.558-7.117-0.151-1.288-1.052-1.523-1.351-2.573-0.301-1.138-0.385-2.271-0.385-3.482-11.962-17.032-15.519-40.73-8.176-61.549 14.918-42.395 49.062-52.767 85.853-49.132 13.172-1.288 25.739 0.451 37.474 4.39 0.902 0.902 1.739 1.825 2.651 2.876 2.423 2.801 5.148 2.423 8.1 4.846 2.499 2.038 5.223 3.936 7.721 6.055 0.902 1.825 1.589 3.786 1.888 4.996 1.052 4.618-1.589 6.889-4.316 10.069-1.138 1.288-2.499 1.825-3.708 2.953-1.351 1.288-1.739 3.33-3.33 4.543-1.739 1.201-4.164 2.195-6.133 3.029-6.283 2.725-14.385 4.316-20.139-0.537-1.974-1.523-4.618-3.633-5.829-5.905-0.153-0.151-0.236-0.451-0.301-0.687-0.153 0.75-0.301 1.523-0.385 2.124-0.301 1.437-1.437 1.825 0 3.633 0.75 0.902 2.573 1.374 3.558 2.271 2.651 2.725 3.86 5.829 8.027 6.587 4.921 0.987 12.112 1.138 17.338 0.385 2.271-0.301 4.468-1.437 6.661-1.739 1.888-0.301 3.786 0.236 5.604-0.151 2.499-0.385 4.694-2.876 7.269-3.482 2.801-0.601 5.376 0.601 7.494 1.739 0.601 0.301 3.33 1.589 3.936 1.589 1.437-0.151 1.437-1.437 2.499-1.974 0.537-0.301 0.987-0.385 1.351-0.451 1.351 1.673 2.725 3.558 2.345 4.694 0.385-2.124-0.687-3.482-0.902-5.376-0.074-0.151 0-0.385-0.074-0.537 0.074 0 0.074 0 0.074 0 0.301-0.687 0.153-2.038 0.074-3.102 0-0.385 0-0.687 0-0.987 0.153-2.801 0.836-6.055 0.451-8.782-0.153-1.351-1.052-2.499-1.201-3.86-0.236-1.288 0.301-2.725 0.301-4.012-0.074-4.543-1.673-6.813-3.786-10.143-0.902-1.523-2.038-2.573-3.181-3.633 8.176 0 16.428 0.385 24.604 1.138 0.836 0.836 1.523 1.739 2.038 2.725 0.902 1.739 1.589 3.71 0.902 5.981-0.385 1.288-3.482 4.618-0.385 5.223 4.543 0.75 6.283-8.934 5.525-11.734-0.902-3.255-4.468-6.283-8.1-8.631-1.437-3.181-4.012-4.921-7.948-4.996-2.124-0.75-4.164-1.437-6.283-2.124-1.739-0.836-3.406-1.739-4.996-2.801-2.038-1.437-3.33-3.482-5.376-5.148-3.255-2.725-5.376-6.661-8.706-9.236-2.651-1.974-5.753-3.482-8.934-4.846l23.922-5.074c2.725 0.301 6.813 0.537 9.084 1.739 1.974 0.987 2.651 3.102 4.466 4.39 1.437 0.987 3.409 1.288 5.074 2.195 0.902 0.451 2.038 1.437 2.953 1.974 5.071 3.029 11.809 4.543 17.488 5.905 3.786 0.836 15.897 3.786 9.613-3.102-5.376-5.905-16.051-1.888-22.938-6.587-2.124-1.523-1.673-3.102-2.038-5.981-0.537-4.012-1.374-4.996-4.694-7.571-5.223-4.012-8.856-5.525-15.445-5.753-2.124-0.076-4.39 0.151-6.435-0.537-2.345-0.75-4.012-2.271-6.587-2.651-1.523-0.236-3.181-0.076-4.768-0.151-1.739-0.151-2.499-0.537-3.786-0.987 0.385-1.138 0.836-2.271 1.201-3.633 0.687-2.877 1.523-5.829 2.345-8.856 2.801-1.673 5.753-1.589 8.706-2.725 2.124-0.836 4.164-1.589 6.511-2.271 4.846-1.288 9.54-3.255 14.31-4.543 3.181 0.451 2.651 1.288 5.148 2.877 1.523 0.987 2.953 1.052 4.543 1.673-0.236 6.359 11.507 10.599 14.535 14.687 1.288 1.825 0.987 3.029 1.351 4.921 0.385 2.195 1.589 4.012 2.038 6.209 0.687 3.71-1.052 4.39-3.406 6.739 2.038-1.825 5.677-4.921 6.359-7.571 0.687-2.651 0.385-4.543 2.124-7.041 2.038-2.953 2.271-4.846 1.523-7.874 0.836 0.987 1.825 2.195 2.953 3.255-0.385-1.138-0.75-2.271-0.987-3.409-0.451-2.195-0.236-4.768-0.601-7.117-0.987-6.131-3.633-10.977-7.799-15.897-1.673-2.038-1.437-1.523-4.768-2.038-3.936-0.75-7.948-2.038-11.809-3.558 0.301 0.236 0.601 0.451 0.836 0.687 0.687 0.687 1.288 1.351 1.888 2.124-0.687-0.076-1.288-0.151-1.825-0.451-1.523-0.601-1.974-1.523-3.255-2.271-4.39-2.573-9.917-3.86-14.082-6.813-0.601-0.385-1.138-0.75-1.673-1.138 2.124 0 4.316 0.151 6.435 0.601 0.236 0.537 0.537 0.987 0.987 1.288 2.725 1.589 4.921 3.633 7.874 4.921 0.902 0.385 1.888 0.687 2.801 1.052-2.195-1.974-4.846-3.786-7.117-5.525-2.423-1.888-3.936-3.482-5.981-5.604-1.052-1.138-2.423-1.974-3.482-3.102-4.164-4.39-8.1-6.964-13.172-10.219-3.255-2.038-6.209-4.012-10.221-4.768-2.801-0.601-5.753 0.236-8.478-0.236-4.012-0.601-7.948-2.573-11.734-3.86-3.482-1.052-6.739-2.038-10.143-2.801 0.074 0 0.074-0.076 0.074-0.076 0.236-2.499-0.301-4.921-1.589-7.19-0.537-1.825-1.201-3.482-1.974-5.148 0.153-0.385 0.385-0.687 0.385-1.138 0.836-0.076 2.271 0.236 3.029-0.076 1.673-0.687 1.138-1.523 2.038-2.499 1.974-2.124 1.288-0.301 3.71 0.301 3.558 0.987 4.768-2.347 7.571-3.33 2.801-1.052 3.181 0.451 4.996 1.589 2.038 1.374 4.24 2.124 6.283 3.786 1.739 1.437 3.181 2.725 5.223 3.409 1.825 0.687 3.786 0.987 5.677 1.589 1.052 0.301 2.345 0.385 3.633 0.537-1.201-1.288-2.423-2.877-2.877-3.406-0.074-0.151-0.153-0.301-0.301-0.385 2.271 1.201 4.39 2.651 6.283 4.39-0.902-0.385-2.038-0.537-3.102-0.601 1.351 1.351 2.801 2.347 3.181 0.75 0.236 0.151 0.385 0.301 0.537 0.537-0.902-1.138-1.739-2.499-2.651-3.482-2.573-2.876-5.905-5.753-9.236-8.024-0.074 0-0.074-0.076-0.153-0.151-5.981-6.661-17.11-8.326-25.739-8.782-3.406-0.151-6.739-0.301-10.143-0.451-2.499-0.076-5.074-0.151-7.571-0.301-2.499-1.288-4.846-3.102-7.571-4.238-2.877-1.201-5.905-2.271-8.631-3.482-3.255-1.523-6.663-2.271-9.766-4.088-3.406-1.974-6.739-3.786-9.692-6.359-3.786-3.181-6.661-6.511-11.582-8.027-2.725-0.75-5.376-1.351-8.1-2.124-3.33-1.052-5.981-1.201-9.54-1.437-1.201-0.077-2.271 0-3.406 0.151-3.406-1.374-6.739-2.953-9.54-5.223-1.974-1.523-2.801-2.347-2.725-4.543-4.77-0.836-9.689-1.201-14.459-2.124-3.633-0.75-1.739-1.052-3.633-1.974-1.825-0.902-12.794-4.316-10.599-6.055-1.138-0.077-2.271 0-3.406 0-0.537-1.138-1.201-2.271-1.974-3.71-3.33-6.359-6.435-12.188-13.854-14.005-8.328-2.124-17.79-1.974-26.422-1.825-2.801 0-5.677 1.739-8.252 1.673-1.523-0.077-1.739-0.902-2.877-1.351-1.673-0.75-2.573-1.052-4.618-1.288-9.54-0.987-18.093-6.587-27.481-8.478-5.981-1.201-10.901 0.236-16.882 1.437-4.24 0.75-8.934 0.987-13.022 2.271-5.148 1.673-7.041 6.511-10.599 10.297-4.316 4.618-5.223 4.618-10.523 2.725-8.027-2.801-19.003-3.86-26.496 0.836-8.706 5.451-14.31 15.217-19.229 23.848-2.651 4.618-4.618 8.631-5.525 13.552-0.902 4.996-1.523 10.749-3.181 15.897-2.347 7.117-6.435 14.231-1.288 20.516-3.102 2.573 21.348 4.316 17.185 5.074-2.725-0.687-5.451-1.437-8.252-2.195-6.133-2.195-11.205-7.117-15.445-11.962-10.749-12.34-14.082-25.664-30.433-31.19-2.499-1.739-4.921-1.523-7.19 0.687-0.301 0.236-0.601 0.451-0.902 0.601-0.076 0-0.076 0-0.151 0-1.201-0.151-2.651-0.301-3.86-0.077-1.523 0.301-2.347 1.673-3.482 2.038-3.33 1.052-7.646-0.236-11.205-0.236-4.618-0.077-12.946 3.102-16.807 0-1.351-1.052-1.974-3.409-2.953-4.694-0.987-1.437-2.725-4.012-4.012-5.074-2.801-2.195-6.133-3.029-9.54-3.181-7.19-0.385-13.701 2.651-20.818 2.876-3.71 0.151-6.965 1.888-10.599 2.195-2.124 0.151-2.124-0.236-4.088 1.138-4.316 3.029-8.782 5.223-13.022 8.252-4.466 3.181-7.571 4.164-13.25 2.953-3.86-0.836-9.917-4.846-13.701-2.038-1.888 1.437-2.124 4.543-3.33 6.661-1.374 2.271-2.423 2.124-1.374 5.223 0.836 2.499 2.573 4.316 2.801 7.041 0.301 4.543-0.236 10.069 4.39 12.566 2.347 1.288 4.543 1.138 7.117 1.201 3.633 0.151 8.858 1.437 12.264 0.451 1.739-0.451 5.905-0.836 4.77-3.33-2.725 0.836-5.525 1.351-8.404-0.836-1.523-1.052-3.029-3.181-4.238-4.618-4.012-5.148 0.076-11.205 5.148-14.231 2.651-1.589 5.525-2.953 8.706-2.195 3.181 0.75 7.874 5.604 10.297 7.343s4.238 3.33 7.117 3.786c4.24 0.687 5.677 0.301 7.874-2.725 2.038-2.876 3.86-4.466 4.164-8.1 2.124-0.601 4.768 0 7.041 0.076 4.466 0.151 9.084 0.385 13.475 1.589 4.164 1.138 6.359 2.573 9.084 5.829 2.801 3.482 6.359 6.209 9.162 9.692 0.987 1.138 1.825 2.499 2.651 3.86-0.236 0.151-0.451 0.385-0.75 0.537-2.271-0.836-4.921-2.573-6.889-3.786-0.687-0.451-2.124-1.351-3.633-2.499 0.987 1.825 2.271 3.409 4.012 4.618 1.437 1.052 2.877 1.974 4.316 2.877-1.437 0.75-2.877 1.351-3.633 1.825-2.651 1.739-4.768 3.409-7.646 4.466-3.936 1.351-7.799 2.499-11.734 4.088-1.974 0.75-3.86 1.523-5.981 1.589-4.996 0.236-8.706 0.902-13.4 3.102-3.255 1.589-6.587 3.255-10.143 4.012-2.725 0.601-4.012 0.151-6.133 2.038-3.33 3.029-3.936 8.326-7.343 11.431-3.029 2.725-7.571 3.33-11.279 4.846-4.39 1.825-7.799 4.846-11.734 7.494-7.646 5.074-16.807 5.604-25.588 7.343-2.499 0.451-4.846 0.385-7.117 1.374-3.786 1.739-7.799 5.981-10.297 9.162-2.953 3.71-5.074 8.1-7.874 11.887-1.523 2.038-3.029 3.786-4.088 5.981-2.423 4.846-2.573 10.143-0.385 14.837 3.33 7.343 12.642 11.053 20.818 9.009z"></path>
    </svg>