<svg xmlns="http://www.w3.org/2000/svg" viewBox="-35.673 15.563 1100.347 994.469">
    <path fill="#000000" d="M796.615 170.119c-4.179 0.592-8.439 2.925-12.448 4.26-3.009 0.995-7.104 2.013-10.026 3.426-9.692 4.68-19.383 9.276-29.159 13.704-5.43 1.752-10.359 4.512-14.788 8.355-0.924 0.167-1.918 0.426-2.925 0.592-4.845-2.592-9.609-5.262-14.286-8.106-2.085-1.587-4.428-2.013-6.852-1.422-12.783 0.828-25.565 4.179-37.514 9.357-5.934 2.592-11.28 7.185-16.626 11.364-3.177 2.424-6.684 3.762-10.026 5.934-1.255 0.759-4.428 2.013-5.181 3.258-0.924 1.422-0.261 4.512-0.167 6.099 0.261 4.929 0.828 9.861 2.25 14.454 0.663-0.085 0.995 0.167 1.161 0.759 0.261 0.592 0.261 1.161 0 1.752 0.924 3.675-0.085 8.691-0.167 12.534-0.261 18.129-0.261 36.595 4.095 54.225 0.663 2.841 1.752 4.929 1.491 7.854-0.592 5.847-3.342 11.781-4.344 17.544-1.515 9.107-1.752 18.298-1.326 27.489 0.498 9.107 3.009 17.544 4.26 26.486 0.759 5.097 1.422 10.277 2.178 15.373 1.683 10.695 4.596 22.056 3.594 32.919-1.161 12.114-2.592 23.811-2.841 36.010-0.167 4.512 0.828 5.766 2.25 9.861 3.090 8.607 3.594 20.886 3.594 29.829 0 8.355-1.326 17.379 0.995 25.565 1.422 5.013 3.426 8.691 3.426 14.121-0.085 8.274-5.598 16.127-5.43 24.229 3.51-0.085 7.437-0.085 11.196 0.426l-7.602 0.498c-0.332 0-0.663 0-0.924 0.085-0.759 4.095-3.675 7.104-4.095 11.28-0.261 2.346-0.261 5.181-0.085 7.602 4.596 1.587 10.194-0.663 14.957 0.592 2.085 0.592 3.594 1.918 5.265 3.258 3.258 2.673 6.351 5.262 9.942 7.521 1.683 0.995 3.177 2.424 4.932 3.426 2.25 1.161 5.265 1.422 7.269 2.925 2.925 2.085 4.428 6.852 8.106 8.187 1.918 0.663 3.843 0 5.847 0.663 3.843 1.422 6.936 2.346 11.112 2.757 2.25 0.167 5.349 0.592 6.936 1.422 4.932 2.592 8.94 7.352 15.039 7.937 3.594 0.426 7.521-0.663 11.031-0.085 1.752 0.332 2.589 1.089 4.179 1.848 4.344 2.25 9.189 2.346 13.618 4.095 1.918 0.759 2.013 1.848 3.51 2.673 0.995 0.498 2.424 0.426 3.51 0.828 1.683 0.759 3.177 1.587 4.68 2.505 1.752 2.841 3.759 5.43 6.519 6.684 2.925 0.592 5.766 1.326 8.522 2.25 4.68 1.255 9.276 2.841 13.787 4.845 4.764 1.587 7.854 1.587 12.448 2.25 0.995 4.095 5.349 4.596 8.522 3.843 1.752-4.428-0.924-9.192-0.828-13.618 0-3.258-0.592-6.015-0.924-9.192-0.663-6.936 0.261-13.953-0.169-20.886-0.498-9.692-2.013-19.386-4.179-28.741-1.918-8.187-2.085-17.297-3.426-25.65-1.161-8.022-3.426-17.297-3.759-25.565-0.332-9.942 0.426-20.22 0.498-30.162 0-1.326 0.498-5.43 0.261-7.185-1.587-1.089-2.25-2.841-2.013-5.349-0.828-14.286-1.161-28.741-0.995-43.113-0.082-18.549 0.261-37.096 0.498-55.646 0.169-9.441-0.082-18.883 1.326-28.156 0.426-3.177 1.848-6.6 1.848-9.861 0-3.927-2.013-8.187-3.177-11.781-1.587-5.097-1.683-9.189-1.587-14.454 0.169-14.622 1.255-30.162-2.178-44.449-2.085-8.522-5.349-15.123-6.099-24.229-0.759-9.276-1.587-17.796-3.927-26.735-1.752-6.767-3.51-13.284-4.845-20.136-3.258-16.959 1.491-34.34 1.683-51.552-1.255-2.424-1.326-2.013-1.422-1.683z"></path>
    <path fill="#000000" d="M176.707 333.629c-0.332 11.781-0.261 23.562-0.426 35.341-0.261 15.624-2.505 30.58-3.258 46.204-1.255 28.408-0.663 57.064-1.089 85.556-0.167 16.209-0.426 32.417-0.663 48.71-0.167 12.448-1.161 25.232-0.426 37.598 0.498 7.104 0.759 15.039 2.925 21.723 2.178 6.6 5.682 11.031 5.349 18.048-0.261 5.682-0.426 11.112 0.426 16.71 0.759 5.598 1.752 10.944 1.587 16.543-0.261 4.512 1.161 8.271 0.995 12.783 0 3.342-0.828 7.937-0.261 11.196 0.828 5.265 6.936 5.934 10.944 6.015 6.015 0.085 10.359-0.592 16.041-2.841 3.426-1.326 6.015-2.346 9.024-4.764 1.255-0.995 3.843-3.258 5.514-3.927 0.828-0.332 2.013-0.085 2.757-0.426 2.925-1.255 6.182-3.426 9.276-4.929 4.512-2.178 8.187-5.262 11.447-8.94 2.925-1.422 6.015-2.757 8.94-4.26 5.766-3.009 9.357-8.022 14.289-12.282 6.351-5.598 13.284-11.031 20.136-15.876 7.104-4.929 13.618-5.766 21.639-9.276 4.179-1.848 8.022-4.845 12.366-6.432 2.178-0.759 4.596-0.828 6.852-1.491 4.26-1.422 8.106-4.344 12.366-6.015 4.512-1.752 8.522-3.009 13.202-3.177 2.424-0.084 3.426 0.167 4.929-1.918 1.491-2.013 2.841-4.845 2.592-7.521-0.261-2.013-1.089-3.762-1.326-5.766-0.261-3.090 0.167-6.432 0.261-9.525 0.261-16.794-1.683-33.338-1.918-50.046-0.167-12.534 1.161-24.314-1.326-36.595-1.326-6.684-3.174-13.452-4.095-20.136-1.587-11.031-1.255-22.727-1.752-33.922-0.426-7.437-0.261-14.874-0.085-22.308 0.426-3.762 0.592-7.521 0.261-11.196 0.167-4.929 0.332-9.942 0.261-14.874 0-4.764-1.491-8.772-2.178-13.368-0.828-6.099-0.167-12.617-0.663-18.798-0.498-5.43-0.995-11.031-1.683-16.374-0.592-4.428-2.25-8.522-2.346-13.033-0.084-3.258 0.085-6.519 0.167-9.774 0.592-6.183 1.255-12.448 1.491-18.633 0.498-12.282 0.426-24.564 0.592-36.762v-0.085c1.255-13.284 2.757-26.486 3.009-39.771 0.426-5.262 0.828-8.022 1.161-9.609-0.995 1.752-2.592 3.342-4.344 4.929-0.498-1.089-1.255-1.918-2.505-2.757-1.491-0.828-3.177-1.422-4.764-2.085-6.099-2.757-12.114-6.267-18.381-8.355-9.692-3.342-20.136-4.764-30.077-7.352-6.015-1.587-12.201-2.673-18.216-4.179-6.267-1.491-12.282-2.505-18.714-2.424-17.463 0.261-34.756 6.684-51.719-1.683-6.6-3.174-12.032-8.607-18.714-11.616-3.675-1.752-7.602-2.505-1.422 0.085-0.332 0.085-0.759 0.167-1.089 0.261-1.089 3.342 0 7.77-0.426 11.278-0.828 6.684-1.587 13.033-1.515 19.803 0.085 4.26 2.178 7.854 2.424 12.114 0.261 4.26 0 8.856-0.167 13.119-0.167 6.015-1.422 11.697-1.515 17.796-0.085 6.267-1.161 11.949-2.178 18.216-0.592 3.009-0.592 5.847-0.663 8.94-0.261 7.269-1.515 14.454-1.683 21.723-0.167 4.428 0.167 8.856-0.085 13.202-0.261 5.766-1.422 11.447-1.587 17.211z"></path>
    <path fill="#000000" d="M976.699 692.982c-4.011-0.663-7.688-1.255-11.53-2.505-3.928-1.255-7.769-2.592-11.615-4.011 1.335-0.261 3.091-0.663 3.342-2.013 0.501-2.505-1.17-1.326-2.424-2.25-2.673-1.848-3.257-2.505-6.684-2.592-8.857-0.167-17.629 0.498-26.402 1.161 0.169-2.346 0.252-4.764 0.332-7.185 0.252-9.024-1.086-17.964-0.918-26.987 0.169-5.262-0.082-10.026-0.753-15.123-0.666-4.596-0.501-9.357-1.083-13.953-0.669-6.099-2.007-11.949-3.175-17.88-2.346-11.364-3.843-22.977-5.766-34.423-1.918-11.031-2.925-22.224-3.594-33.338-0.261-3.177 0-6.852-0.663-9.861-0.261-0.995-0.498-1.848-0.828-2.673-0.169-3.009-0.426-6.015-0.828-9.024-0.332-3.342-0.828-6.6-1.161-9.942-0.332-10.362-0.261-20.721-0.082-31.081 0.169-7.104 0-13.953-0.924-21.138-1.255-10.11-0.924-20.053-0.759-30.162 0.332-25.984-0.498-52.137 1.089-78.036 0.332-4.26 0.498-5.514-2.346-9.024-3.594-4.428-7.269-8.856-9.942-13.953-3.51-6.767-2.013-16.293-0.924-23.729 0.592-3.762 0.759-7.602 0.828-11.447 0-2.085 0.759-5.934 0-7.77-0.663-1.683-2.425-3.675-3.426-5.181-1.848-2.757-2.925-4.347-2.424-7.937 0.332-2.505 2.424-4.68 2.589-7.104 0.082-1.848-1.089-3.426-1.161-5.43-0.332-4.929 0.169-10.11 0.261-15.123 0.082-10.446 0.261-20.886 0.426-31.247 0.082-4.764-0.169-8.856-0.995-13.452-0.759-3.762-0.592-8.187-1.752-11.781-1.255-3.594-1.683-4.26-1.587-8.355 0.082-4.011 0.082-8.022 0.169-12.032 0-4.344 1.161-10.194 0.261-14.454-0.498-2.178-2.757-3.258-3.426-5.598-1.089-3.675 1.848-8.772 3.594-11.781 1.161-2.013 5.013-4.596 5.097-6.936 0-5.013-8.355-1.683-10.359-0.924-1.422 0.592-3.927 0.924-6.267 1.491-0.169-1.255-0.332-2.424-0.663-3.258-2.505 1.326-5.598 2.592-8.187 3.927-0.924 0.426-1.918 0.592-2.841 0.828-6.267-1.089-8.187-0.167-10.277 0.592-1.848-0.167-3.675-0.332-5.43-0.332-7.602-0.085-15.207-0.167-22.809-0.332-14.121-0.261-29.244 0.592-42.61 5.766-7.185 2.757-15.373 0.498-22.641 3.009-9.276 3.177-20.886 1.326-29.995 0.828-21.807-1.326-43.362-4.596-65.085-5.934-19.383-1.161-38.768-3.090-58.152-4.26-18.381-1.161-36.928-0.592-55.143-3.342-23.729-3.51-47.625-8.522-71.521-10.11-2.757-0.167-5.514-0.332-8.271-0.498-1.422-0.426-2.925-0.828-4.596-1.255-12.369-3.090-25.402-6.183-37.935-7.602-6.852-0.663-13.536 0.085-20.22 2.178-12.448 2.592-24.814 5.682-37.014 9.357-5.265 1.422-9.189 2.085-14.372 4.011-13.452 5.013-27.572 5.013-41.441 7.602-8.859 1.683-17.128 1.752-25.984-0.426-5.265-1.326-9.777-2.757-15.456-2.673-2.346 0-4.68-0.085-7.104-0.085-9.441-0.167-18.966 1.683-28.408 2.085-10.277 0.498-21.223 0.759-31.499-0.085-2.925-0.261-3.177-1.255-5.43-1.752-3.009 0.498-5.847 1.326-8.691 2.424-3.426 1.752-7.017 2.841-10.779 3.177-6.936 1.089-13.953 1.161-20.886 0.995-2.925-0.085-6.015 0.261-8.856-0.663-0.426 1.848-0.924 3.762-1.491 5.682-3.675 0.085-7.437 0-11.031-0.426-3.342-0.426-6.432-1.848-9.692-2.346-4.347-0.663-8.607-0.592-12.867-1.491-2.085 3.51-3.843 6.519-4.011 10.611-0.167 4.929-0.498 9.525-0.995 14.454-1.255 12.366 0.426 24.814-1.918 37.096-1.422 7.437-2.757 13.787-2.757 21.471-0.085 7.269-0.261 14.622-0.332 21.975-0.167 11.697 0.085 23.312-1.422 34.925-0.498 4.011-0.261 7.937-0.426 11.949-0.261 9.942 2.592 18.298 4.512 28.156 2.424 12.366 3.51 23.896 3.090 36.344-0.426 9.525 0.828 18.883 0.828 28.408 0 17.211-0.592 34.507-0.759 51.719-0.261 15.789-0.663 31.498 1.752 47.207 4.512 30.245-6.432 59.821-8.522 89.817-0.759 10.944-0.332 22.308 2.592 33.001 0.663 2.592 3.675 10.527 2.841 13.787-2.013 3.177-3.258 6.684-3.843 10.446-1.161 4.512-2.085 9.107-2.757 13.704-0.426 6.183-0.498 14.372 2.013 19.968 3.177 7.017 7.521 18.048 3.927 25.734-1.422 3.090-1.515 4.68-1.587 8.187-0.085 2.085-0.332 4.011 0.332 6.015 1.491 4.26 5.013 7.77 5.514 12.366 0.167 0.995 0 1.683 0 2.25-0.167 0-0.261 0-0.332 0-3.009-0.426-6.015-0.828-9.107-0.828-1.752-0.085-4.179-0.592-5.847-0.167-1.587 0.426-1.683 2.013-3.675 1.422-0.498 1.161-1.587 2.178-2.673 3.009-1.161 0-2.346-0.085-2.592 0-3.090 0.426-6.267 0.995-9.107 2.085-4.179 1.587-8.187 3.843-12.282 5.598-1.752 0.759-3.177 1.848-4.764 2.592-1.587 0.759-3.594 0.592-5.013 1.326-1.326 0.759-1.848 1.752-3.51 2.424-2.505 0.995-5.262 1.089-8.355 0.663 1.918 2.505 6.684 4.596 9.276 5.682 7.854 3.426 16.626 2.925 24.899 4.596 6.099 1.161 11.949 1.587 17.796 3.762 4.596 1.683 9.441 1.326 14.203 1.326 4.26 0.082 8.94 0.828 13.119-0.082 6.351-1.255 13.202-0.759 19.218-3.090 5.514-2.085 11.031 0.169 16.626-0.995 2.346-0.592 4.095-1.089 6.6-1.089 1.255 0 3.090 0.663 3.759-0.592 0.498-0.759-0.828-3.426-1.089-4.26-1.089-3.764-1.848-7.859-4.011-11.367-0.592-0.924-1.089-1.848-1.587-2.757 1.161 0 2.178-0.085 3.090-0.261 0.085-0.261 0.167-0.498 0.261-0.759 0.663-2.841 1.161-5.934 1.587-9.192v0c0-0.167 0-0.332 0-0.498 0.924-8.274 0.663-17.046-0.592-24.481-0.426-2.346-1.089-4.764-1.683-7.104-0.592-5.682-1.255-11.781-2.346-17.211-0.498-2.592-1.255-5.181-1.918-7.686-0.085-5.598 0.332-11.196 0.663-16.794 1.326-17.631 0-34.089-3.762-51.216-1.089-4.764-2.424-9.357-3.426-14.121-1.587-7.437-1.848-15.039-3.009-22.56-0.759-5.181-1.587-10.359-2.424-15.542-0.995-6.852-3.258-13.536-3.258-20.553 0-13.869 2.424-28.826 5.097-42.443 2.841-14.037 3.258-27.989 3.51-42.025 1.255-9.276 2.085-18.633 2.25-27.99 0-4.764 0.426-9.609 0.332-14.372-0.167-6.767-2.25-12.786-2.505-19.468-0.167-3.174 0.426-6.351 0.261-9.525-0.085-4.764-1.089-9.276-1.161-14.121 0-11.447-1.752-21.639 0.261-33.086 1.848-10.611 0.592-22.142 0.759-32.919 0-3.426 0.085-6.852 0.085-10.277 0.828-7.017 2.085-13.953 2.592-20.973 0.828-10.446 0.592-21.138 0.663-31.665 0.085-4.179 0.261-8.439 0.332-12.699 0.828-3.843 2.424-6.432 2.592-10.862 0.261-8.856-1.918-20.301 2.013-28.49 1.161-2.424 2.925-3.594 5.349-4.011 6.267-0.995 13.119 1.161 19.468 1.255 7.521 0 14.957 0.261 22.475 0.167 10.944-0.167 21.471-1.848 32.25-2.505 2.841-0.261 8.522-0.167 11.616-0.759 5.934-1.089 14.454-5.181 19.383-6.936 7.185-3.009 14.454-5.514 21.891-7.521 4.764-1.752 9.692-2.925 14.706-3.342 7.602 0 15.876 3.090 22.977 4.26 16.127 2.841 32.25 2.592 48.458 2.757 9.189 1.587 18.381 3.090 27.905 3.258 16.209 0.332 32.501 0.085 48.71-0.261 29.744-0.498 59.404 0.261 89.149 0.498 21.471 0.261 42.862 2.592 64.333 3.594 14.957 0.663 29.577 3.843 44.616 4.68 11.949 0.663 23.979 0.498 36.010 0.663 12.201 0.167 24.814 1.326 37.014 0.332 6.768-0.592 13.284-2.424 19.968-3.843 11.529-2.424 23.811-0.995 35.51-0.759 9.942 0.167 23.312 2.424 33.17-0.085 3.426-0.924 3.927-1.918 6.432-3.090-1.918 5.766-1.255 11.949-0.924 18.129 2.25 35.926 12.201 71.521 19.551 106.528 2.25 10.611 6.351 20.805 8.271 31.415 1.161 6.267 2.505 12.617 3.51 18.966 2.25 14.121 3.51 27.238 3.177 41.607-0.261 16.041-0.663 32.168-0.924 48.292-0.082 1.089-0.261 2.178-0.332 3.258-1.326 18.298-0.663 36.847-0.924 55.228-0.332 25.817-2.178 52.052-0.592 77.869 0.995 17.964 4.26 35.677 4.929 53.64 0 0.084 0 0.167 0 0.167-1.089 9.276-2.592 18.633-2.013 27.905 0.332 4.428 1.089 8.772 1.491 13.202 0.759 7.104 0.592 14.454 1.752 21.639 0.498 3.258 1.515 6.351 2.424 9.357 0 3.594-0.082 7.104-0.169 10.611-0.082 5.097-0.828 10.695-0.261 15.708-0.498 0.167-0.828 0.426-1.326 0.498 0.995 0.924 1.848 2.013 2.673 3.009 0.261 0.426 0.592 0.828 0.828 1.255 0.759 1.161 1.491 2.346 2.013 3.594 0.169 0 0.332-0.085 0.426-0.085 0 0.261 0 0.498 0 0.663 0.663 5.097 3.594 5.598 7.854 5.598 9.942-0.085 19.218-1.848 28.826-3.927 4.596-0.995 8.355-0.426 12.699-2.505 11.781-5.682 25.317-3.342 37.765-6.351 6.015-1.491 11.363-1.683 17.545-1.587 4.093 0.084 8.187 0.828 11.615-2.013-2.178-0.828-5.602-0.498-7.941-0.924z"></path>
    <path fill="#000000" d="M812.256 844.459c0.082 2.592-2.25 4.764-4.764 4.764l-34.756 4.095c-2.673 0 15.792-6.267 15.624-8.856l33.586-8.859c2.589 0-9.777 6.267-9.692 8.859zM746.334 853.318c-11.447 0-11.447-17.713 0-17.713s11.447 17.713 0 17.713zM707.983 840.199c-13.202 0.759-26.568 1.089-39.686 0-13.371-1.089-28.241-3.090-38.601-12.198-2.925-2.592 4.596-10.194 6.6-13.284 6.015-9.525 9.609-10.359 20.136-12.032 10.695-1.587 21.471-1.918 32.335-1.918 4.428 0 7.104 2.757 8.106 6.015 0.082 0 0.169 0 0.261 0 6.183-0.082 8.94 5.013 8.439 9.774 4.26 2.346 7.854 5.598 10.11 10.194 2.925 6.267-0.663 12.951-7.689 13.452zM593.697 795.001c-5.766 4.764-5.766 4.764-20.388 8.439-4.512 1.161-9.357 1.089-14.037 0.924-0.332 0.426-0.759 0.759-1.255 0.995-7.602 3.675-15.624 5.349-23.979 5.43-4.68 0.082-22.224 2.673-19.551 0-0.663-2.346 16.543-13.284 19.468-14.037 18.381-5.262 37.347-8.522 56.397-9.774 4.011-0.332 6.519 5.43 3.342 8.022zM512.397 778.958c-0.332-0.261-0.592-0.498-0.924-0.759-0.592-0.592-0.995-1.255-1.255-2.085 0.167-0.592 0.759-4.179 1.255-4.596 0.426-0.426-16.461-1.161-15.876-1.326 0.498-0.332 18.549-0.082 19.218 0 0.498 0 0.995 0 1.491 0.082 0.592 0.082 1.089 0.169 1.587 0.261 0.592 0.261 1.255 0.498 1.848 0.828 0.332 0.082 0.592 0.261 0.759 0.332 1.161 0.828 2.085 1.683 2.757 2.841 0.759 1.255 1.089 2.592 1.089 3.927 0 1.326-0.592 2.424-1.422 3.342-0.592 0.592-1.255 0.995-2.085 1.255-0.426 0.082-0.828 0.082-1.255 0.169-0.663 0-1.255-0.082-1.848-0.426-0.592-0.169-1.089-0.498-1.515-0.995-0.426-0.426-0.759-0.924-0.995-1.515-0.084-0.169-0.084-0.426-0.084-0.592-0.085-0.082-0.167-0.082-0.261-0.082 0 0-0.085 0-0.085 0-0.828 0-1.683-0.261-2.424-0.663zM519.816 726.319c-0.592-0.592-0.924-1.255-1.161-2.013-0.426-0.663-10.695-3.009-10.695-3.843 0-0.084 0.261-0.167 0.592-0.261 0.995-0.498 3.258-1.515 5.682-2.673-2.346 1.089-4.512 2.178-5.598 2.673 2.085-0.332 9.276 0.167 9.441-0.498 0-1.161 0.426-2.346 0.995-3.342 0.498-0.592 0.924-1.161 1.422-1.752 3.090-0.759 19.468-4.68 18.465 13.536 0.995-18.213 0.332-0.169 0.828 0.082 1.089 0.082 0.085 0 0 0-0.332 0-0.592 0-0.828-0.082-0.828 0.592-1.683 1.161-2.592 1.587-0.995 0.498-2.085 0.995-3.258 1.255-2.424 0.332-3.090 0.426-5.598 0-1.848-0.332-30.414 1.422-31.917 0.261-0.995-0.498 24.814-4.011 24.229-4.929zM457.156 786.895c0.924-0.592-21.723 0.261-21.891 0.498-1.515 1.587-0.167 0-0.995 1.161-0.085 0.169-0.167 0.261-0.261 0.498 2.841 5.013 2.925 11.031-1.587 15.958-3.759 4.179-23.896 14.706-29.244 15.789-7.017 1.491-7.017-6.267-14.203-6.015-6.6 0.261-6.6-0.082-13.202-0.759-4.929-0.592-24.647 0.828-28.993-2.013-5.682-3.927 7.77-13.368 13.536-17.297 17.544-11.863 39.686-12.448 59.573-17.631-0.592 0.426-0.828 0.663 0.167 0 0.332-0.082 0.663-0.169 0.995-0.169 0.261-0.332 0.332-0.498 0.332-0.592 3.51-1.515 7.437 0.261 18.298-2.424 0 0 21.39 10.194 17.463 12.951zM322.794 795.706c-6.351 3.177-14.289 4.512-20.388 0-1.587-1.161-2.505-2.673-2.25-4.68 2.925-0.169 16.127-6.519 19.050-6.519 2.424 0 4.095 1.752 4.596 3.927 0.261 0.261 14.372-1.848 14.622-1.587 1.326 2.085-13.371 7.77-15.624 8.856zM325.143 873.239c-10.11 6.183-19.551 7.854-30.914 6.015-11.364-1.848-70.851-7.77-76.951-17.964-2.592-4.26 19.050-7.602 23.060-10.194-0.592-1.848 11.112-5.097 12.951-5.934 5.181-2.673 40.94-4.26 46.872-4.26 2.592-0.082-25.484 2.178-25.399 4.68 0.085 1.918-1.161 3.51-2.757 4.26 1.422 0.759 43.113 8.607 48.961 11.031-6.6-1.089-26.068-3.342-20.053-0.169 6.099 3.258 29.66 9.107 24.229 12.534zM891.534 805.229c-8.439-5.262-19.719-10.277-31.583-8.772-7.017 0.924-13.704 4.845-20.553 6.351-4.596 1.089-8.772 1.918-13.368 3.177-14.957 3.927-30.162 8.022-46.287 8.522-9.107 0.332-17.796-0.332-21.39-7.437-6.099-11.781 13.284-19.635 24.314-25.149 9.024-4.512 18.298-8.691 27.405-13.119 3.090-1.491 4.179-2.505 5.934-4.68 1.587-1.918 4.095-4.845 5.013-7.017 0.426-4.512-0.082-8.94-1.491-13.284 0.261-5.262-2.841-8.607-9.441-10.026-3.177-0.082-6.351-0.082-9.609-0.169-3.843 0-7.602-0.426-11.196-1.255-6.768-0.663-13.033-0.759-20.053-0.995-10.862-0.426-21.39-0.924-32.25-0.924-13.618-0.082-25.066-0.924-37.765 2.673-20.053 5.682-39.268 15.291-60.574 18.633-5.097 0.828-10.446 1.255-15.708 1.515-7.521 0.332-15.792 2.505-23.312 1.683-10.862-1.161-16.878-6.936-8.271-13.371 8.522-6.432 21.807-10.194 32.083-15.039 6.099-2.841 10.779-4.179 17.631-5.766 3.258-0.759 9.609-1.683 12.032-3.426 3.090-2.178 0.592-6.6-1.752-8.439-9.024-7.437-22.977-3.342-34.34-6.267-7.938-2.013-18.966-3.171-19.637-10.44-0.828-9.692-0.085-17.964 9.861-25.149 6.267-4.512 20.469-6.351 11.529-14.286-3.762-3.342-8.274-4.179-13.701-5.181-11.781-2.25-23.979-2.085-35.341-5.682-11.949-3.675-9.525-15.123-7.602-22.56 1.422-5.349 6.519-6.684 13.202-8.772 6.351-2.013 13.704-5.013 18.381-8.691 4.347-3.51 6.099-5.598 5.682-10.611-0.498-5.262-5.514-8.355-10.527-11.863-14.622-10.527-35.174-16.209-54.558-20.805-0.828-1.918 4.512-6.768 6.519-7.937 3.762-2.346 9.525-2.592 14.121-4.011 5.181-1.587 9.692-3.843 14.372-6.015 5.097-2.346 6.852-3.090 8.691-7.521 1.752-4.26 3.51-6.852 0.426-11.031-5.847-8.022-19.719-11.112-31.247-13.787-11.865-2.673-21.975-2.592-32.335-7.437-2.178-1.089-6.183-2.757-7.437-4.764 1.161 2.25 4.764 4.68 6.6 6.267 2.925 2.505 6.099 3.759 9.441 5.682 2.346 1.422 3.843 3.258 6.432 4.68 4.512 2.505 9.107 4.845 13.284 7.602 2.424 1.587 3.258 3.342 5.262 5.013 2.178 2.013 4.677 2.085 4.845 4.764 0.167 2.925-1.848 4.344-2.841 4.929-6.684 0.167-12.617 1.752-19.383 2.346-2.841 0.261-4.929 0.924-7.689 1.255-3.675 0.426-8.187-0.167-11.863-0.167-8.187 0.085-17.796 0.426-24.981 3.342-2.592 1.089-7.269 3.759-6.852 6.351 0.167 1.161 1.587 1.326 2.25 2.25 1.255 1.683 1.491 3.342 3.009 5.013 3.258 3.51 8.106 4.68 13.452 6.6 4.677 1.752 8.439 1.848 13.452 2.925 3.342 0.663 5.847 1.848 8.772 3.258 7.937 3.675 13.119 7.437 12.114 14.788-0.592 4.68-8.355 10.446-13.869 12.867-6.432 2.757-11.781 3.258-19.050 4.095-19.218 2.346-38.35 4.845-57.4 7.854-6.351 1.089-12.366 2.673-17.882 5.181-2.085 0.924-4.095 1.752-6.182 2.673-2.673 1.089-2.25 1.089-3.759 3.177-5.013 6.767-4.347 15.373 3.594 21.054 6.936 5.013 15.876 4.179 24.396 6.852 3.258 1.089 6.6 2.925 10.277 3.927 3.759 0.995 7.437 2.085 11.112 3.177 0.759 0.663 1.491 1.326 2.178 2.013 1.918 1.255 2.841 0.592 3.594 2.592 0.332 1.089-0.261 2.592-0.167 3.675 0.332 5.262-4.095 8.022-8.187 12.448-7.854 8.522-20.469 15.456-31.165 22.142-3.675 2.346-12.699 8.94-18.633 10.446-4.596 1.255-9.942 1.422-14.788 2.085-6.6 0.924-12.699 0.759-19.383 0.759-10.611 0.167-20.973 1.752-31.415 2.346-13.119 0.663-26.319-0.663-39.436 0.085-8.522 0.498-16.959 2.424-25.399 3.426-2.178 0.261-4.26 0.167-6.432 0.592-5.265 1.752-10.527 3.51-15.708 5.43-4.095 1.089-8.106 2.424-11.863 3.927-5.013 2.841-9.107 5.934-8.187 10.779 0.759 3.762 4.677 6.519 6.351 10.11 3.009 6.351-5.43 12.617-11.031 17.128-3.843 3.090-7.937 3.927-13.787 3.843-8.271-0.169-14.788 0.332-21.39 4.179-3.258 1.848-6.684 4.512-9.525 6.767-3.843 3.009-7.689 6.432-11.031 9.774-6.6 6.6-14.372 15.624-16.374 23.729-1.161 4.764 1.515 5.766 6.015 9.525 3.258 2.757 6.432 5.43 9.861 8.106 4.764 3.675 6.684 5.097 6.6 10.194-0.167 4.929 4.428 13.371-0.085 17.211-5.262 4.428-11.781 7.104-7.854 13.953 3.258 5.847 13.869 9.441 20.805 12.366 14.203 6.015 28.993 11.529 44.032 16.461 11.112 3.594 22.056 6.099 34.004 7.937 14.372 2.25 30.83 6.852 45.702 6.6 10.359-0.261 20.053-3.675 30.162-4.845 9.107-0.995 17.882-0.332 26.904 0.261 10.277 0.663 20.805 1.255 30.747 3.177 7.437 1.491 13.953 4.428 21.306 6.015 5.598 1.161 11.781 0.426 17.128 2.085 4.179 1.255 7.854 3.177 12.282 4.26 5.847 1.491 11.112 1.848 17.379 1.918 9.192 0.261 28.49 2.673 34.34-3.843 3.759-4.095 5.013-11.616 5.598-16.374 0.498-3.426 0.332-6.768 0.332-10.194 0-4.344 0-8.439-1.326-12.699-0.592-1.918-2.178-4.179-2.346-6.099-0.592-6.684 11.949-8.106 19.050-9.692 13.704-3.009 35.51-7.352 47.792 0.426 5.349 3.426 8.522 7.602 14.871 10.277 3.009 1.326 6.267 2.505 9.357 3.762 8.691 3.594 18.298 4.011 28.156 5.097 17.128 1.918 33.838 3.843 51.216 3.177 17.128-0.592 35.592-0.995 52.47-2.757 14.788-1.515 28.574-5.097 42.61-8.522 40.606-9.861 82.214-24.229 110.119-48.042 4.26-3.675 16.626-11.616 13.452-17.463-1.918-3.342-7.854-6.936-11.28-9.107z"></path>
    </svg>