<svg xmlns="http://www.w3.org/2000/svg" viewBox="-48.030 -48.317 1126.405 1120.742">
    <path fill="#000000" d="M854.39 342.196c-3.326 4.951-8.122 8.122-11.913 12.687-3.326 4.022-4.873 9.592-10.057 11.837-3.713 1.557-7.89 2.171-11.68 3.791-10.675 4.642-21.195 9.823-31.793 14.389-7.271 3.171-13.924 6.652-20.268 11.295-5.879 4.177-11.216 9.438-17.482 12.764-11.295 6.035-23.748 9.747-35.042 15.702-8.354 4.41-16.4 5.647-25.372 8.973-4.254 1.623-8.354 2.017-12.067 3.868-3.249 1.557-6.885 2.171-10.056 4.022 12.764-0.768 25.295-2.861 37.981-4.41 4.718-0.701 9.438-1.777 14.001-3.171 3.712-0.241 7.504-0.548 11.295-0.701 2.553-0.614 4.951-1.71 7.117-3.171 2.476-0.307 4.874-0.548 7.348-0.768 4.642-1.162 9.205-4.101 13.924-5.493 4.951-1.469 10.444-1.557 15.084-3.868 3.868-1.929 5.415-3.017 9.438-3.712 9.36-1.623 16.786-6.112 24.986-10.288 6.576-3.403 15.161-3.559 20.963-7.969 5.337-4.024 11.68-6.806 16.786-11.216 2.243-2.017 8.354-12.608 10.443-5.647 0.927 2.941-3.868 7.969-5.106 10.365-1.934 3.559-3.249 6.187-5.879 9.205-1.857 2.083-3.79 3.636-5.415 5.879-2.243 3.249-3.558 7.427-5.337 10.984-3.172 6.187-5.493 14.619-11.913 17.946-4.951 2.553-10.521 3.559-15.471 5.879-4.564 2.083-8.122 4.795-13.383 5.647-2.707 0.077-5.493 0.241-8.199 0.548-2.32 1.469-4.796 2.708-7.349 3.712-4.332 1.777-8.896 4.101-13.46 5.26-12.376 3.094-23.129 10.984-35.506 14.233-9.747 2.629-20.268 2.708-30.014 5.337-6.42 1.777-12.532 2.553-19.184 2.476-5.725-0.077-10.753 3.403-16.4 3.945 38.291-0.548 76.195 3.868 114.331 3.868 17.792 0 37.904 1.074 52.834-9.67 5.57-3.945 11.294-8.122 16.864-11.837 4.023-2.784 7.658-3.791 11.835-6.112-7.117 16.244-23.748 27.229-34.114 41.23-4.177 5.57-9.824 8.74-16.554 9.823-15.781 2.553-31.174 1.929-47.264 1.929-19.958 0-39.76 2.017-58.867 7.889-8.201 2.553-18.101 4.022-26.533 3.868-3.094-0.077-5.956-0.155-9.052 0.46-1.557 0.241-2.476 1.074-3.789 1.382 10.288-0.077 20.962-1.162 31.020-0.077 9.205 1.009 16.553 5.493 24.367 9.593 2.017 1.009 4.254 1.382 6.267 2.243 3.636 1.557 5.414 4.177 8.663 6.576 3.636 2.629 8.51 5.879 12.608 7.194 9.823 3.094 20.035 2.941 30.014 4.333 6.498 0.855 12.686 2.553 19.184 3.559 10.443 1.71 21.737-0.395 30.478-6.187 0.307-0.307 0.697-0.614 1.007-1.009 1.392-2.017 3.094-3.403 5.26-4.177-1.857 2.017-4.023 3.712-6.266 5.183-5.493 5.802-11.216 11.372-17.095 16.786-5.801 5.802-11.991 11.139-18.565 16.090-1.702 1.623-3.326 1.864-4.873 0.614-3.481 1.228-5.415 1.864-9.515 1.929-2.63 0-5.337 0.46-8.045 0.395-9.438-0.307-18.101-6.035-26.919-8.663-6.962-2.083-14.077-2.553-20.809-5.337-15.702-6.652-31.561-10.132-48.27-13.306-7.427-1.382-14.775-0.548-22.279-2.017-5.647-1.009-11.525 0.155-17.017-1.557 14.079 9.747 28.312 19.028 40.766 30.555 8.431 7.813 17.792 13.073 29.241 16.477 11.913 3.482 27.152 1.009 39.606 1.009 6.806 0 13.924 0.614 20.653-0.307 1.074 3.017-12.299 9.67-15.163 10.365-5.028 1.403-10.444 1.777-15.625 2.708-4.486 0.855-8.431 0.768-12.997 0.855-8.51 0.241-17.017 2.708-25.527 3.636-7.736 0.921-16.942 0.157-24.057-3.482-5.028-2.476-8.896-6.035-14.077-8.277-4.254-1.929-8.277-4.718-12.532-6.729-4.566-2.171-8.046-3.559-13.15-5.028-16.323-4.795-41.153-8.198-54.304 4.486-3.094 3.017-7.271 4.563-10.132 7.504-2.941 3.017-5.414 6.652-8.896 9.515-1.469 1.162-2.861 2.553-4.177 3.868 6.576 16.167 15.24 31.329 25.605 45.872 2.784 3.945 4.486 7.659 7.736 11.216 3.559 3.868 7.194 7.504 9.438 12.378 4.101 8.74 10.753 16.477 14.621 25.218 1.864 4.177 3.482 9.361 4.874 13.771 1.557 4.951 3.868 10.132 4.486 15.24 1.777 13.847-0.157 29.086-0.157 43.087 0.075 17.869-2.171 35.584-1.929 53.452 0.46-3.791-0.921-7.348-1.469-11.062-0.701-4.254-0.46-8.354-0.395-12.687 0.157-9.361-2.32-16.090-6.885-23.826-2.399-4.101-3.403-7.427-4.795-11.757-1.623-5.337-5.493-8.819-7.581-13.847-2.083-5.182-3.48-7.889-6.576-13.383-1.557-2.708-4.41-6.885-6.576-11.062 0.921 4.022 1.074 7.969 1.074 13.459v20.112c0 8.046-0.077 16.167 0 24.29 0.077 10.444-1.929 20.577-2.083 30.942-0.077 17.482 0.307 34.732-1.929 52.292-1.71 13.538-4.101 33.65-12.299 45.872-3.171-2.017-1.315-14.542-1.315-18.257v-34.192c0-17.094 1.074-33.804-2.629-50.513-2.629-11.834-5.183-23.671-8.431-35.351-3.249-11.604-7.813-23.593-9.903-35.429-0.241-1.382-0.701-2.629-0.614-3.868 0.395 6.42 1.162 14.233 0.241 20.577-2.017 13.768-2.708 28.080-5.956 41.694-2.399 10.132-4.254 20.577-5.493 30.942-0.241 8.046-0.548 16.090-0.768 24.135-1.074 7.194-2.171 14.389-3.094 21.581-1.557 13.538-2.017 26.997-2.861 40.534-0.307 4.563 0.548 18.643-1.929 23.284-3.559-1.009-1.009-13.924-1.929-17.559-1.71-6.497-3.559-12.532-3.48-19.493 0.077-7.581 0.155-15.24 0.077-22.82-0.155-8.896-2.243-17.482-2.017-26.455 0.46-26.378-4.872-51.982-7.116-78.128-0.855-9.67-1.009-19.261-0.768-28.931 0.077-2.629 0.395-5.105-0.395-7.659-3.249 1.929-1.382 13.768-1.469 17.25-0.155 12.687-2.32 25.605-3.712 38.213-1.074 9.438-3.094 18.876-4.022 28.312-0.614 7.039-3.171 13.306-4.874 20.268-3.559 14.466-5.028 27.925-5.028 42.932-0.077 15.24 0 30.478 0 45.717 0-13.614-7.813-28.002-13.229-40.766-3.326-8.046-4.333-16.553-5.802-24.985-2.083-11.525-4.333-22.743-7.271-34.036-3.868-15.007-3.559-29.627-1.557-44.944 1.074-7.969 0.46-16.323 0.395-24.367-0.155-15.472 2.083-30.787 2.083-46.258-4.41 18.643-16.786 33.108-22.665 50.823-1.074 3.482-0.768 6.42-0.855 10.132 0 6.497-2.629 11.99-4.874 18.024-7.271 19.88-19.184 39.296-30.787 56.779 6.112-14.542 12.145-28.003 12.222-44.016 0.077-3.945 0-7.889-0.077-11.834 0-4.486 1.228-8.046 1.864-12.455 1.623-12.222-0.241-25.295 0.077-37.595 0.307-13.459 6.962-26.765 9.747-39.296 1.469-6.344 4.563-12.997 7.117-19.107 1.623-3.868 3.403-6.42 5.725-9.67 1.162-1.71 3.249-4.022 3.945-5.802 0.921-2.32 0.395-4.795 1.162-7.348 1.469-4.642 4.486-7.581 5.647-12.608 1.864-8.277 4.101-16.323 6.885-24.135 1.469-4.101 1.382-8.973 1.162-13.768-4.951-3.712-9.205-9.050-14.001-12.997-3.48-2.861-6.035-6.497-8.973-9.515-2.861-2.941-6.962-4.486-10.056-7.504-13.229-12.687-38.059-9.282-54.304-4.486-5.183 1.469-8.587 2.861-13.15 5.028-4.333 2.017-8.354 4.795-12.608 6.729-5.183 2.243-9.050 5.802-14.001 8.277-7.194 3.636-16.323 4.41-24.135 3.482-8.431-0.921-17.017-3.403-25.527-3.636-4.563-0.075-8.431 0-12.997-0.855-5.183-0.921-10.521-1.315-15.625-2.708-2.784-0.701-16.167-7.348-15.084-10.365 6.729 0.921 13.847 0.307 20.577 0.307 12.532 0 27.771 2.476 39.683-1.009 11.449-3.403 20.809-8.663 29.241-16.477 12.376-11.525 26.688-20.809 40.689-30.555-5.414 1.71-11.295 0.548-17.017 1.557-7.427 1.469-14.852 0.614-22.201 2.017-16.709 3.171-32.567 6.652-48.347 13.306-6.729 2.784-13.847 3.249-20.73 5.337-8.896 2.629-17.482 8.354-26.997 8.663-2.629 0.077-5.337-0.395-7.969-0.395-4.101-0.077-6.035-0.701-9.592-1.929-1.469 1.228-3.094 1.009-4.795-0.614-6.576-4.951-12.764-10.288-18.566-16.090-5.956-5.416-11.604-10.986-17.094-16.786-2.32-1.469-4.41-3.171-6.267-5.183 2.083 0.768 3.868 2.171 5.183 4.177 0.395 0.395 0.701 0.701 1.074 1.009 8.74 5.802 20.035 7.889 30.4 6.187 6.497-1.009 12.687-2.708 19.184-3.559 10.056-1.382 20.191-1.228 30.014-4.333 4.177-1.315 9.050-4.563 12.687-7.194 3.249-2.399 4.951-5.028 8.663-6.576 2.017-0.855 4.254-1.228 6.267-2.243 7.736-4.101 15.084-8.587 24.29-9.593 10.056-1.074 20.809 0 31.020 0.077-1.315-0.307-2.243-1.162-3.791-1.382-3.017-0.614-5.956-0.548-8.973-0.46-8.51 0.155-18.411-1.315-26.533-3.868-19.107-5.879-38.91-7.889-58.945-7.889-16.090 0-31.406 0.614-47.264-1.929-6.652-1.074-12.376-4.254-16.477-9.823-10.444-14.001-26.997-24.985-34.114-41.23 4.177 2.32 7.736 3.326 11.757 6.112 5.57 3.712 11.372 7.889 16.865 11.837 15.007 10.753 35.042 9.67 52.912 9.67 38.059 0 76.041-4.41 114.331-3.868-5.647-0.548-10.674-4.022-16.477-3.945-6.576 0.077-12.685-0.701-19.184-2.476-9.747-2.629-20.191-2.708-29.936-5.337-12.376-3.249-23.207-11.139-35.506-14.233-4.563-1.162-9.128-3.482-13.538-5.26-2.553-1.009-4.951-2.243-7.271-3.712-2.784-0.307-5.493-0.46-8.277-0.548-5.18-0.855-8.738-3.559-13.301-5.647-4.951-2.32-10.597-3.326-15.472-5.879-6.42-3.326-8.74-11.757-11.913-17.946-1.864-3.559-3.094-7.736-5.414-10.984-1.557-2.243-3.482-3.791-5.414-5.879-2.632-3.017-3.868-5.647-5.802-9.205-1.228-2.399-6.112-7.427-5.183-10.365 2.171-6.962 8.201 3.636 10.521 5.647 5.105 4.41 11.372 7.194 16.786 11.216 5.802 4.41 14.31 4.563 20.886 7.969 8.277 4.177 15.625 8.663 25.063 10.288 4.022 0.701 5.493 1.777 9.361 3.712 4.718 2.32 10.211 2.399 15.16 3.868 4.642 1.403 9.282 4.333 13.924 5.493 2.399 0.241 4.874 0.46 7.348 0.768 2.171 1.469 4.486 2.553 7.117 3.171 3.712 0.155 7.504 0.46 11.295 0.701 4.563 1.382 9.205 2.476 14.001 3.171 12.687 1.557 25.141 3.636 37.904 4.41-3.094-1.864-6.806-2.476-9.979-4.022-3.791-1.864-7.889-2.243-12.145-3.868-8.973-3.326-16.942-4.563-25.372-8.973-11.216-5.956-23.748-9.67-35.042-15.702-6.267-3.326-11.604-8.587-17.406-12.764-6.42-4.642-13.073-8.122-20.268-11.295-10.674-4.563-21.195-9.747-31.793-14.389-3.791-1.623-7.969-2.243-11.681-3.791-5.183-2.243-6.806-7.813-10.056-11.837-3.791-4.563-8.663-7.736-11.913-12.687-12.067-18.101-12.378-39.838-13.15-60.956 0.768 3.712 5.725 9.205 7.813 11.139 3.094 3.017 6.187 6.264 8.354 10.132 2.017 3.791 1.777 8.198 3.249 11.913 2.861 6.729 5.493 8.046 12.685 11.604 4.101 2.083 8.896 4.022 12.997 5.956 3.636 1.71 6.112 3.482 10.444 3.868 9.438 1.009 17.636 3.171 26.688 5.414 7.581 1.864 12.687 5.416 19.417 8.663 3.017 1.469 4.872 3.326 7.657 5.028 4.41 2.708 10.521 3.636 15.472 4.951 6.035 1.557 12.145 1.382 18.255 2.784 3.326 0.701 5.416 2.083 8.587 2.938 10.365 2.941 22.123 3.868 32.025 7.271 5.183 1.777 9.052 1.71 14.542 1.929 10.521 0.46 16.4 7.736 26.069 10.442 10.211 2.784 18.566 10.597 29.395 11.293 2.784 0.155 5.493-0.701 8.277 0.155 3.249 1.009 7.039 4.33 10.132 5.956 4.951 2.553 13.538 7.194 17.25 11.604 1.074 2.32 2.399 4.563 3.868 6.729 1.557 1.228 2.861 2.708 4.101 4.254 1.777 2.784 2.243 5.028 1.777 8.277 0.395-5.183 3.482-5.26 6.035-3.482 2.243 1.623 2.399 3.171 4.177 5.028 2.171 2.32 5.493 4.022 7.736 6.187 2.399 2.32 4.718 4.254 6.885 6.267 6.729-10.984 13.614-22.279 14.852-35.12 0.701-7.348 0.548-15.781-0.921-22.897-1.469-7.271-2.476-13.924-4.486-21.118-1.469-5.414-2.399-11.293-2.32-17.017v-0.077c-0.241-0.395-0.395-0.701-0.548-1.074-2.399-5.414-7.581-7.427-11.525-11.525-3.868-4.101-5.493-9.747-9.128-13.924-1.777-2.083-2.941-3.094-3.559-6.187-0.46-2.553-0.307-5.183-0.307-7.813 0.077-2.861 0.855-4.563 1.315-7.271 0.395-2.32-0.241-4.718 0.241-7.039 0.155-0.921 0.921-1.228 1.228-2.399 0.614-2.171 0.241-4.333 1.009-6.576 0.701-1.929 2.017-4.101 3.094-5.879 4.41-7.271 10.984-9.050 18.876-11.062 2.941-0.768 12.455-0.307 21.737 0.46 2.083-0.701 3.482-2.083 5.725-2.861 3.171-1.074 6.808-1.557 10.211-1.469 4.254 0.077 5.647-0.614 8.973-2.784 1.162-0.768 2.708-1.777 4.022-2.32 1.074-0.548 2.32-0.701 3.403-1.074 3.326-1.315 5.647-4.33 8.819-6.112 2.553-1.557 5.493-2.171 8.277-3.249 2.243-0.921 4.333-2.243 6.42-3.559l43.318-30.942c3.094-1.382 6.42-1.382 9.903-1.469 2.476-0.077 5.802-0.548 8.122 0.155 1.623 0.395 4.024 1.864 5.725 2.629 3.559 1.623 5.647 3.868 8.277 6.652 2.629 2.861 5.414 4.486 8.198 6.885 2.396 2.083 2.017 2.708 2.017 5.956 0 2.476 0 4.951 0 7.427 0-7.504-3.017-10.907-10.132-12.532-4.874-1.074-10.365-2.553-15.24-2.861-2.629-0.155-4.642-0.155-6.729 1.074-1.623 1.009-3.403 2.243-5.105 3.326-1.71 1.009-3.48 2.083-4.177 4.177-0.548 1.623-0.307 2.629-1.315 4.333-0.855 1.557-1.929 3.017-2.941 4.333-1.469 2.017-2.243 3.712-3.403 5.879-1.074 1.929-2.708 2.784-4.101 4.41-1.623 1.929-3.326 4.718-4.718 6.962-2.476 3.712-5.879 6.344-8.354 10.132-4.022 6.264-8.122 12.841-12.376 18.796-2.629 3.791-5.956 6.885-9.67 9.515-2.017 1.469-3.249 3.171-5.414 4.33-2.017 1.162-7.039 2.476-7.889 4.718 2.017 2.629 4.642 2.784 7.194 4.642 1.864 1.382 3.017 2.941 5.028 3.945 2.017 1.009 4.718 0.768 6.729 1.382 1.074 0.395 1.469 1.162 2.553 1.557 3.559 1.074 8.046 1.403 11.834 1.403 6.576-0.155 12.532 2.629 19.261 1.315 3.326-0.701 5.647-2.399 9.052-2.784 0.921-0.077 2.629-0.307 4.101-0.701 0.855-1.162 1.71-2.243 2.861-3.094 0.307 1.623-1.162 2.553-2.861 3.094-1.074 1.469-2.083 3.094-3.48 4.486-2.083 2.017-3.249 2.784-4.795 4.872-2.629 3.482-6.885 6.42-11.295 7.194-3.094 0.614-6.497-0.395-9.67-0.155-3.791 0.395-6.885 1.557-10.753 1.557-5.57-0.077-12.608-1.315-18.024-0.077-6.112 1.469-10.674 9.747-13.073 15.084-0.548 1.315-0.241 2.476-0.548 3.712-0.46 1.557-1.228 2.32-2.017 3.712-2.083 4.101-2.017 9.747-2.861 14.233-0.548 2.784-1.228 5.57-1.864 8.431 0.077 0.241 0.077 0.548 0.155 0.768 1.228 4.563 1.777 9.903 3.017 14.621 0.614 2.629 0.46 3.636 1.623 6.112 0.614 1.403 1.403 2.553 1.929 3.868 2.083 4.872 5.57 9.592 9.205 13.691 5.028 5.57 9.052 12.067 13.15 18.487 0.548-0.548 1.074-1.009 1.71-1.557 2.243-2.171 5.493-3.868 7.736-6.187 1.71-1.864 1.929-3.403 4.177-5.028 2.553-1.777 5.57-1.71 5.956 3.482-0.395-3.249 0.077-5.493 1.864-8.277 1.162-1.557 2.553-3.017 4.022-4.254 1.469-2.171 2.784-4.41 3.945-6.729 3.712-4.41 12.299-9.050 17.174-11.604 3.171-1.623 6.962-4.951 10.211-5.956 2.708-0.855 5.414 0 8.198-0.155 10.83-0.701 19.261-8.508 29.395-11.293 9.747-2.708 15.548-9.979 26.146-10.442 5.493-0.241 9.282-0.155 14.466-1.929 9.979-3.403 21.66-4.333 32.103-7.271 3.172-0.855 5.26-2.243 8.51-2.938 6.112-1.403 12.299-1.228 18.334-2.784 4.951-1.315 10.984-2.243 15.47-4.951 2.708-1.71 4.566-3.559 7.659-5.028 6.729-3.249 11.758-6.806 19.339-8.663 9.128-2.243 17.328-4.41 26.765-5.414 4.254-0.395 6.73-2.171 10.366-3.868 4.177-1.929 8.896-3.868 13.072-5.956 7.194-3.559 9.747-4.872 12.609-11.604 1.548-3.712 1.237-8.122 3.326-11.913 2.167-3.868 5.182-7.117 8.354-10.132 2.090-1.929 7.040-7.427 7.813-11.139-0.851 21.118-1.16 42.855-13.15 60.956zM995.977 489.712c-1.315-2.553-2.63-5.26-3.404-7.969-1.469-5.416-1.007-11.525-2.476-16.709-0.774-2.629-2.398-4.718-3.481-7.504-1.934-4.718-2.167-9.979-4.254-14.698-3.249-7.504-7.89-14.466-11.526-21.737-2.63-5.26-3.249-10.907-5.337-16.323-1.857-4.795-4.718-8.819-6.266-13.847-3.017-9.979-5.956-20.191-7.813-30.323-0.539-2.861 0-5.802-0.619-8.587-0.539-2.553-1.702-3.945-1.857-6.885-0.075-3.945 0.075-21.351-3.79-21.892-1.16-0.155-1.548 1.623-2.167 1.777-2.476 0.548-4.718 0.548-7.194 0.46-3.868-0.077-13.924 2.629-16.631 1.71-4.718-1.71-3.79-7.348-5.493-12.455-3.249-9.823-4.951-18.334-7.194-28.544-1.392-6.187-5.028-13.073-8.277-18.334-4.486-7.116 1.315-14.389-0.157-22.279-4.332-1.403-7.271 0.614-10.907-2.243-2.94-2.32-4.332-9.361-6.576-12.764-3.172-4.795-4.951-9.592-7.426-14.931-2.63-5.802-6.652-10.984-10.443-16.090-5.57-7.504-11.913-15.935-20.19-20.809-7.117-4.177-14.93-10.753-23.362-11.604-5.26-0.548-6.576-0.307-11.294-3.868-6.576-5.028-12.3-10.753-18.023-16.632-8.896-9.050-20.886-18.257-31.87-24.444-5.57-3.094-11.372-5.647-17.174-8.896-6.806-3.791-13.847-8.122-20.112-12.687-3.636-2.708-6.187-3.868-10.597-5.337-5.725-1.864-9.515-5.493-15.084-7.813-11.295-4.718-20.733-8.74-29.163-17.715-2.629-2.938-3.868-6.885-6.497-9.747-3.559-3.945-10.521-4.486-15.16-6.187-10.056-3.712-19.184-7.271-30.014-7.889-4.486-0.307-9.205-0.921-13.538-2.399-2.784-0.921-5.26-2.861-8.046-3.945-9.67-3.559-20.809-3.712-30.865-5.57-5.802-1.074-10.597-2.32-16.477-1.929-3.945 0.307-6.885 1.864-10.597 2.171-8.198 0.614-16.323-1.557-23.98 1.71-5.493 2.32-11.372 5.57-17.406 6.267-3.559 0.46-8.046-0.241-11.525-0.241-10.444 0-21.118-0.768-31.483-0.078-6.497 0.46-13.768 1.864-19.261 5.416-6.187 4.101-11.525 8.277-18.487 11.525-4.951 2.399-9.515 2.629-14.621 4.563-11.681 4.333-23.98 2.243-35.584 5.956-3.48 1.074-6.806 2.708-10.365 3.403-3.249 0.701-4.951 0.855-7.504 1.929-1.623 0.701-3.559 2.017-5.183 2.941-3.791 1.929-7.736 3.712-11.449 5.879-1.403 0.855-2.708 2.083-4.254 2.938-2.861 1.557-5.647 1.623-8.431 2.861-2.32 1.009-3.48 2.553-5.725 3.559-2.553 1.162-6.187 0.921-8.896 2.243-4.022 2.083-8.354 5.802-10.288 9.438-3.868 7.348-11.757 8.973-19.34 11.837-6.497 2.476-12.299 6.035-19.417 7.348-5.028 0.855-9.979 2.708-14.31 3.791-4.563 1.162-8.819 3.559-13.383 4.486-1.777 0.307-3.945-0.241-5.802-0.155-3.326 0.155-4.872 0.921-7.813 2.083-2.017 0.701-7.504 3.249-7.969-1.382-0.46 2.017-1.469 3.945-1.864 6.112-1.382 9.438-6.112 11.604-14.156 18.799-14.079 12.532-28.544 20.962-33.804 39.838-2.017 7.116-2.32 14.775-6.267 21.351-1.557 2.629-3.791 4.951-5.57 7.427-5.802 8.198-8.663 19.028-15.393 26.455-2.553 2.861-2.553 2.708-6.885 2.553-5.183-0.241-4.486-0.46-6.962 3.482-5.028 7.969-10.288 15.548-14.466 24.057-2.243 4.563-4.333 9.361-6.806 13.847-5.028 9.050-8.587 18.566-13.073 27.847-4.642 9.515-5.647 21.892-7.117 32.257-1.557 10.211-5.337 20.112-6.42 30.246-1.469 12.764-5.493 20.422-11.757 32.334-4.022 7.504-7.581 13.924-9.052 22.279-0.701 3.945-1.074 7.889-2.476 11.757-1.074 2.708-2.941 5.105-3.712 7.889-3.092 11.216 0.548 26.378 1.25 37.749 0.614 9.67 2.017 20.809-0.855 30.246-2.243 7.271-4.795 12.299-4.563 19.649 0.155 3.712 0.701 4.951 1.557 7.736 1.403 5.105-0.241 10.674 0.548 15.935 1.929 12.841 9.282 24.676 11.216 37.827 1.162 7.504-0.46 14.698-1.623 22.124-0.921 6.576-3.945 14.619-0.241 19.88 2.784 4.022 8.122 6.035 10.907 10.521 3.017 4.872 5.26 11.372 7.736 16.632 1.864 3.868 3.403 6.962 6.035 10.365 6.344 8.122 11.837 16.786 18.178 24.832 9.438 11.837 13.229 26.224 20.035 39.296 8.122 15.548 31.792 17.715 41.463 32.102 6.885 10.211 10.753 22.974 15.24 34.346 1.469 3.559 2.553 5.26 5.028 7.889 4.486 4.642 11.216 5.956 15.472 10.442 1.557 1.71 2.708 4.101 4.101 5.956 3.249 4.41 7.657 8.354 10.211 13.15 2.32 4.486 4.177 7.348 8.046 11.139 4.177 3.945 8.508 7.581 12.685 11.449 12.067 11.216 26.765 19.649 41.772 26.455 7.504 3.403 12.841 8.277 19.261 13.306 9.438 7.427 18.024 8.431 29.472 11.757 9.205 2.708 18.799 5.493 26.146 11.757 6.962 5.956 18.952 10.132 27.847 12.685 6.112 1.864 10.907 3.482 16.553 6.576 4.254 2.32 7.504 1.162 12.067 2.083 2.941 0.548 5.493 2.243 8.277 3.171 6.187 2.017 12.222 2.243 18.566 3.017 5.57 0.701 10.521 1.382 16.167 1.315 4.563 0 9.205 0 13.768 0 5.028 0 11.757-1.074 16.477 0.075 4.101 1.074 7.271 4.951 10.83 7.348 8.431 5.493 17.017 9.282 26.688 11.295 3.017 0.614 5.337 1.228 8.51 0.395 5.647-1.403 10.984-1.162 17.017-1.929 5.493-0.701 10.521-1.557 16.012-1.557 6.035 0.157 11.295 0.395 17.017-1.777 11.216-4.254 22.897-7.039 34.501-9.747 4.41-1.009 9.438-1.469 13.459-3.403 1.929-0.921 3.403-2.32 5.57-2.784 3.326-0.701 7.427 0.701 10.907 0.241 0.921-0.157 1.864-0.921 2.396-1.009 3.403-0.921 7.504-0.768 11.295-1.228 13.15-1.623 17.792-11.216 29.086-16.013 4.566-1.929 9.515-2.243 14.31-3.636 9.438-2.784 21.272-4.718 29.55-10.056 8.51-5.493 16.786-11.525 25.063-17.25 4.486-3.171 8.663-5.105 13.383-8.819 6.112-4.795 12.764-9.050 19.261-13.15 15.316-9.515 30.787-20.886 44.48-33.031 3.79-3.403 8.509-7.427 11.294-11.062 1.548-2.017-0.307-1.162 2.784-4.486 2.63-2.861 6.034-5.26 8.896-8.046-0.157-0.701-0.539-1.315-1.083-1.777 2.94-2.171 5.956-4.333 9.051-6.42 3.945-2.629 4.409-2.553 6.188-6.576 2.63-5.956 6.807-15.24 11.758-19.803 2.63-2.476 5.724-2.784 8.741-4.177 5.337-2.553 11.216-5.956 15.394-10.288 2.784-2.941 3.172-6.42 4.796-10.056 4.951-10.753-0.695-23.438 3.79-34.423 3.017 0.46 5.801-0.701 8.587-1.71 5.493-1.929 12.686-3.326 17.328-7.348 5.57-4.795 7.504-11.757 11.68-17.482 3.017-4.022 7.426-6.576 10.288-10.753 2.63-3.868 3.326-8.587 5.956-12.455-0.388 0.614 2.707-3.403 2.707-3.403 1.007-2.784 0.075-5.647 1.083-8.74 1.857-6.035 4.873-11.604 6.498-17.715 3.094-11.681 4.873-24.832 4.486-36.821-0.157-5.802 0.774-9.052 2.862-14.698 2.243-6.267 3.249-12.997 5.415-19.338 1.16-3.403 3.326-6.112 4.409-9.515 1.625-5.337 3.017-10.984 4.332-16.477 1.702-7.039 3.326-13.691 4.332-20.653 1.16-7.889 6.885-14.31 9.282-22.046 3.017-9.747 2.476-20.577 2.553-30.787 0-5.183 0.157-5.493-1.934-9.67z"></path>
    </svg>