<svg xmlns="http://www.w3.org/2000/svg" viewBox="1.010 -16.000 1113.192 1056.000">
    <path fill="#000000" d="M693.136 64c-0.837 3.039 1.771 4.641 2.202 7.343 0.502 2.955-0.084 4.811 1.004 7.596 0.67 1.771 2.531 3.8 3.039 5.486 0.67 2.618-0.084 5.486 0.084 8.187 0.263 5.656 1.339 11.985 2.531 17.474 1.771 7.763 4.978 14.433 5.74 22.369 0.502 5.232 0.502 10.129 0.43 15.364-0.169 11.48 1.267 23.719-0.598 35.030-1.004 6.331-2.274 12.577-3.293 18.907-0.765 4.811 0.169 9.538-0.837 14.265-2.202 10.635-4.052 20.68-5.065 31.484-0.932 10.635-0.502 21.525-2.369 32.075-1.507 8.271-4.557 15.869-5.232 24.311-0.765 9.961 1.172 20.173 0.335 30.135-0.502 6.331-2.369 11.648-2.369 18.233 0.169 17.895-0.43 34.523-1.867 52.165-0.263 3.46-0.43 6.499 0.169 9.875 1.939 10.214 4.137 18.739 4.052 29.374-0.263 18.233-0.084 36.548-0.084 54.781 0 33.679-2.369 67.274-2.274 100.868 0.169 39.249 1.339 78.754 0.263 117.918-0.43 15.278-4.557 30.050-4.389 45.327 0.169 24.141 0.169 48.281 0 72.423-0.169 23.889 4.137 47.775 2.274 71.747-0.932 11.226-7.934 22.282-12.999 31.991-3.46 6.585-1.532 13.59-2.274 21.272 2.955-10.635 4.474-19.581 4.474-30.387v-86.687c0-12.577 1.507-26.336 0.084-38.744-1.603-13.59-5.57-26.505-7.68-40.009-0.67-5.403-1.1-10.719-1.267-16.121-1.771-4.137-3.376-8.271-4.895-12.493-4.978-13.59-10.214-28.277-13.167-42.541-3.039-14.94-1.1-32.413-0.932-47.607 0.335-21.439 6.585-41.783 6.499-63.222 0-10.214 1.267-21.188 0.263-31.315-0.837-4.221-2.034-8.271-3.547-12.239-1.267-6.753-1.603-13.504-1.1-20.343 0.263-17.050-0.67-34.185 0.084-51.236 0.765-16.796 3.968-33.341 7.766-49.717 5.065-21.861 9.454-43.555 15.278-65.079 5.824-21.609 6.753-42.71 6.839-64.827 0.084-18.823 2.447-37.309 3.884-56.048 1.507-19.414-0.169-38.997 0.335-58.496 0.598-23.298 6.839-46.256 6.499-69.637-0.169-6.585 1.435-11.056 3.209-17.22 1.507-5.232 1.771-9.961 4.978-14.686-3.968-3.968-11.734 3.968-15.869 5.232-5.57 1.699-23.044 4.305-25.829 10.805 0.502 0.765 1.004 1.507 18.57-6.331-2.447 0.43-4.137 3.039-5.994 4.557-7.343 6.331-16.796 11.31-25.745 14.857-3.798 1.435-8.441 2.531-12.072 4.305-6.078 2.869-11.056 9.624-15.785 14.519-7.85 8.017-14.773 15.364-23.382 22.536-3.547 2.955-7.343 5.74-10.889 8.779-8.104 6.836-9.538 11.818-12.83 21.188-2.369 6.836-5.907 11.564-12.999 14.603-9.961 4.305-18.065 7.175-26.082 14.94-3.039 3.039-5.403 6.836-7.68 10.551-2.369 3.968-2.274 6.415-3.798 11.143-1.699 5.403-5.57 11.143-8.355 15.954-6.078 10.805-12.072 21.945-19.414 31.991-7.512 10.297-16.883 19.244-24.226 29.712-9.287 13.167-15.11 27.601-23.211 41.445-8.525 14.265-18.149 27.939-26.674 42.288-7.259 12.155-14.603 24.731-23.719 35.621-3.714 4.305-7.766 8.187-10.381 13.42-1.1 2.274-1.507 5.319-3.293 7.343-2.701 3.039-7.766 6.248-11.056 8.358-12.493 8.104-24.142 16.121-35.621 25.576-7.427 6.161-14.857 13.252-21.272 20.343-4.641 5.149-6.499 10.045-9.2 16.629-4.895 11.988-10.889 21.441-19.921 30.303-7.596 7.343-15.954 12.83-24.395 19.076-12.325 9.116-21.525 21.609-31.569 33.005-10.802 12.493-24.9 23.211-34.354 36.802-4.557 6.585-8.863 13.167-13.674 19.584-6.078 8.358-10.805 16.037-18.57 22.874-10.297 9.287-17.895 22.031-25.238 33.594-2.369 3.8-5.74 6.839-8.441 10.381-2.106 2.785-2.618 4.135-3.968 7.596 4.895 2.531 17.304-7.343 21.188-10.381 7.090-5.403 11.734-13.167 15.869-20.85 3.46-6.248 7.090-14.857 12.239-19.751 5.74-5.403 14.686-8.525 21.441-12.323 3.123-1.771 6.585-3.46 9.875-5.149 5.907-3.039 12.915-3.8 18.57-7.007 7.007-3.8 13.252-9.033 20.597-12.747 8.863-4.557 15.954-10.889 24.9-15.532 8.017-4.137 16.883-8.358 24.226-13.59 8.609-6.161 15.364-16.883 21.945-25.153 9.033-11.394 16.291-23.719 23.552-36.295 7.68-13.504 19.244-24.479 29.712-35.875 9.287-10.214 17.050-21.777 26.505-31.738 7.175-7.596 12.83-14.603 18.487-23.382 6.669-10.214 13.42-20.597 19.921-30.977 4.305-7.007 9.454-14.433 12.155-22.199 1.267-3.714 2.785-6.923 4.221-10.551 1.435-3.968 1.267-8.017 2.202-11.818 2.274-8.946 4.978-17.050 10.214-24.815 10.381-15.278 20.764-30.809 31.907-45.496 6.499-8.609 14.349-15.954 20.764-24.731 10.635-14.603 22.029-29.121 32.16-44.146 4.978-7.512 9.538-14.603 15.278-21.609 9.792-12.072 21.441-22.282 32.16-33.594 7.175-7.596 14.773-14.773 22.62-21.777 9.2-8.187 12.072-9.454 17.134-17.641 1.771-2.871 3.63-4.727 6.331-6.923 8.525-6.923 16.712-13.757 24.142-21.945 2.202-2.447 4.727-4.811 6.839-7.343 1.004-1.1 1.771-2.869 2.618-3.714 7.766-8.441 16.796-18.149 23.298-28.192z"></path>
    <path fill="#000000" d="M115.291 200.32c0.932 1.172 1.939 2.274 2.955 3.293 11.48 11.985 25.153 15.869 40.854 19.835 10.972 2.369 21.945 4.557 33.005 6.669 3.884 0 7.429 0.837 10.719 2.618-2.955 16.205 9.287 33.763 16.375 47.185 3.884 7.427 8.271 14.265 12.999 21.188 4.137 6.331 8.525 12.577 12.999 18.739 0.765 1.339 1.867 2.106 3.123 2.447 1.435 2.369 2.202 5.907 3.884 8.525 3.123 4.641 9.624 10.129 14.011 13.504 9.116 7.090 20.343 11.734 30.724 16.712 17.304 8.358 34.945 16.291 53.431 21.609-2.447 5.57 1.1 10.297 3.293 15.194 8.187 17.979 18.654 36.295 32.667 50.645 6.331 6.585 13.59 11.31 21.777 15.364 4.727 2.274 9.624 3.123 14.349 4.978 10.129 4.052 20.85 9.116 30.471 14.519 3.714 2.106 8.863 4.474 10.465 8.949 0.837 2.369-0.084 5.907 0.67 8.441 1.339 4.727 6.161 7.090 7.512 11.396 0.598 1.603-0.263 5.486-0.263 7.175-0.43 13.844 2.955 26.082 11.564 37.308 4.221 5.57 7.343 9.116 13.59 12.493 3.46 1.867 3.46 1.867 5.403 5.403 4.895 8.779 12.747 15.364 17.725 24.142 7.427 13.252 16.121 25.913 24.479 38.491 7.259 10.805 15.194 21.441 21.441 33.005 5.403 10.214 13.167 20.343 16.883 31.062 1.939 5.57 5.403 8.609 8.779 13.504 4.811 7.090 9.116 15.954 11.985 23.889 3.63 10.045 9.287 18.991 13.506 28.614 4.305 9.792 11.226 17.641 16.542 26.505 8.441 14.011 12.409 29.121 17.22 44.484 3.798 12.155 3.293 24.984 9.116 36.548 0.932 1.939 2.869 3.547 3.547 5.403 1.004 2.785 0.932 5.403 2.274 8.358 2.618 5.57 6.415 10.129 8.525 15.954 2.447 6.585 2.369 15.11 5.656 21.102-7.512 3.884-6.753-7.512-9.708-10.551-2.785-2.869-5.994-1.699-9.538-2.274-6.669-1.172-13.42-4.811-16.966-10.719-5.824-9.961-10.297-21.102-14.603-31.822-7.427-18.403-10.381-37.646-18.233-55.964-4.895-11.564-9.961-21.693-17.725-31.569-5.232-6.669-10.214-11.648-12.663-19.668-3.714-12.239-9.2-20.934-16.796-31.231-4.474-5.907-8.441-12.915-14.095-17.725-7.934-6.753-14.435-11.564-20.173-20.089-19.581-28.952-37.815-59.171-60.943-85.59-6.415-7.259-13.757-14.603-19.497-22.115-3.376-4.389-5.319-10.719-7.596-16.037-5.824-13.167-13.674-26.082-22.536-37.646-9.877-12.914-25.491-29.544-40.685-35.199-5.57-2.106-10.719-5.149-16.205-7.175-10.551-3.714-18.403-11.396-27.349-18.063-12.493-9.37-19.921-21.609-30.471-32.751-10.045-10.635-19.835-21.272-29.543-32.329-5.74-6.585-12.999-11.394-18.149-18.487-5.656-7.766-10.045-16.629-15.954-24.142-10.972-14.011-25.238-28.445-40.516-37.9-9.454-5.907-19.33-11.31-28.868-17.22-8.525-5.319-5.319-5.149-7.596-12.663-1.771-5.91-4.895-11.48-7.090-17.22-3.46-8.695-8.271-20.68-16.796-25.238-9.287-5.149-20.764-2.869-30.471-6.923-9.033-3.714-14.095-8.609-15.532-17.725-1.1-6.585-2.447-13.42-3.968-19.921-1.267-5.486-8.271-12.325-3.798-17.22 4.305-4.727 13.506-6.923 18.907-3.376 4.305 2.785 7.512 7.259 10.889 11.31z"></path>
    <path fill="#000000" d="M149.181 718.843c0.837-5.907 7.259-15.869 11.648-20.343 4.641-4.641 6.669-4.137 12.409-5.149 4.811-0.837 7.512-2.369 12.83-2.202 6.331 0.169 12.409 0.084 18.403-2.202 7.596-2.869 14.181-8.104 21.861-10.972 6.669-2.447 13.083 0.335 20.173 0.335 10.381 0 17.304-3.714 27.096-6.078 5.656-1.267 11.901 1.004 17.388-0.43 3.209-0.837 5.656-3.714 8.609-5.316 5.149-2.785 10.214-2.447 15.701-3.63 2.955-0.67 7.427-2.106 11.31-2.618 7.85-0.932 15.785-1.699 23.211-4.389 4.137-1.435 7.259-3.123 11.648-3.209 4.052-0.084 5.994-0.084 9.538-1.699 9.708-4.389 20.089-11.143 27.854-18.317 4.811-4.557 6.415-10.719 10.719-15.278 5.319-5.57 17.979-3.547 24.815-4.557 19.33-2.618 37.646-10.551 54.274-20.597 14.095-8.525 30.387-10.551 46.087-15.11 6.499-1.939 12.493-3.714 18.403-7.007 8.271-4.557 13.083-10.381 18.823-17.725 8.695-11.31 19.414-21.188 29.797-30.977 5.57-5.232 11.396-10.297 16.712-15.701 5.57-5.656 9.961-12.409 15.701-17.725 8.355-7.85 16.712-7.512 26.927-11.226 5.74-2.106 10.551-2.701 16.459-3.547 15.448-2.369 29.797-6.161 45.665-6.161 21.018 0.084 42.288-1.339 59.507-14.349 4.641-3.46 9.116-7.175 13.757-10.635 4.727-3.547 10.551-6.331 14.519-10.719-4.641 6.499-5.994 13.083-7.85 20.426 11.396-7.427 25.407-8.695 37.646-14.095 12.83-5.824 25.66-11.734 38.829-16.88 15.615-6.248 31.653-12.409 48.619-13.252 8.017-0.43 15.448-1.603 23.382-2.701 9.961-1.435 22.452-1.939 31.822-5.994 6.753-2.869 14.941-3.46 21.861-7.343 5.571-3.123 10.297-7.343 16.206-9.708 4.221-1.699 6.415-2.618 9.201-6.331 1.519 1.1 3.461 14.433 1.267 16.712-0.759 0.765-5.824 0.932-7.175 1.267-7.849 2.202-14.856 7.68-22.875 9.961-4.305 1.172-8.187 1.867-11.902 4.895-2.364 2.785-4.98 5.486-7.765 7.934-3.376 1.267-6.838 2.034-10.382 2.369-3.883 0.932-6.5 2.701-9.877 4.641-11.143 6.248-23.973 9.284-35.706 14.181-5.149 2.369-10.297 4.389-15.701 6.078-3.968 0.43-7.85 1.004-11.734 1.867-10.889 3.123-19.668 10.297-30.724 13.167-12.663 3.209-31.569-1.867-41.867 8.609-6.078 6.161-14.181 11.056-22.029 15.364-6.161 3.376-12.155 6.415-18.233 10.214-15.532 9.624-29.29 21.609-44.989 30.893-1.339-1.1-4.389-4.811-5.994-5.232-6.161-1.507-13.59 10.467-18.654 13.167-6.839 3.547-13.757 3.714-21.102 3.884-4.474 0.084-6.415 0.598-10.719 2.106-7.007 2.447-12.239 2.202-20.005 2.106-3.123 0-6.669-0.598-9.708 0.335-5.319 1.603-9.792 8.358-15.448 8.609-3.123 0.084-3.376-2.618-5.907-2.785-2.955-0.263-4.641 3.039-6.499 4.557-2.447 1.939-5.065 2.447-7.68 3.968-5.486 4.389-10.972 8.863-16.459 13.42-7.512 6.415-15.701 11.985-24.479 16.629-3.547 0.598-6.078-0.263-9.624 0.598-6.331 1.699-15.615 8.779-21.018 12.915-0.932 0.765-1.507 1.699-1.771 2.785-3.46 2.369-7.007 4.557-10.551 6.669-11.143 7.259-21.104 17.641-32.751 23.719-2.955-9.708-12.493-0.168-17.050 2.106-2.202 1.1-13.504 0.765-12.663 0.67-7.68 0-15.278 0.765-22.706 2.447-4.221 2.274-8.358 4.557-12.577 6.839-12.493 7.175-22.79 21.018-36.802 24.815-6.415 1.771-11.734 5.149-18.487 6.161-16.459 2.369-32.583 7.763-48.873 11.564-16.121 3.798-31.822 6.585-47.943 9.116-12.83 2.034-25.998 2.369-38.913 2.701-13.928 0.43-25.322 2.955-38.744 6.753-14.857 4.305-29.121 10.381-44.653 10.297-3.63 0-8.609-0.932-12.155-0.082-2.955 0.67-5.065 2.955-1.939 4.389z"></path>
    <path fill="#000000" d="M144.919 191.964c0.502 0.084 1.1 0.169 1.603 0.335 2.034 11.901 20.68 10.381 29.29 10.297 7.85 0 15.701-0.084 23.465 0 9.033 0.084 14.265 8.017 19.244 14.857 5.316 7.259 9.624 15.027 14.603 22.453 2.202 3.293 4.727 8.271 7.85 10.719 2.106 1.603 5.74 2.106 8.441 3.209 3.376 1.267 6.415 1.339 9.624 2.274 3.63 1.1 6.248 3.547 10.045 4.137 5.065 0.837 6.078-0.765 8.104 4.221 1.172 2.701 1.507 5.74 2.871 8.358 2.618 4.725 8.441 8.187 11.143 13.083 2.106 3.8 2.618 8.609 5.74 12.155 6.415-3.123 8.525-5.907 15.954-5.824 14.095 0.084 26.083 0.598 39.925 5.232 6.248 2.106 8.441 5.065 12.325 9.708 4.052 4.811 8.271 5.74 14.603 7.596 5.232 1.532 10.297 0.932 15.701 0.932 5.065 0 10.889 0.765 15.954 0.084 4.811-0.67 9.2-1.771 14.011-2.202 4.474-0.335 11.396-1.1 15.615-2.106 4.305-1.004 8.104-4.727 11.988-6.923 5.57-3.206 10.635-6.836 16.291-9.792 6.923-3.547 17.134-7.512 24.731-3.46 5.149 2.785 7.934 12.325 12.409 16.629 4.137 3.968 9.624 7.343 14.773 9.961 18.487 9.792 42.795 14.686 62.8 7.175 10.297-3.884 19.668-9.792 29.797-13.928 7.175-2.869 14.857-1.939 22.453-1.867 9.624 0.084 18.823-0.335 28.361-1.699 3.293-0.43 6.248-1.172 9.454 0.169 8.441 3.547 16.037 13.59 23.465 18.823 6.753 4.727 13.928 7.766 19.497 13.844 4.137 4.474 8.271 6.669 13.59 9.454 5.149 2.701 9.538 7.68 14.857 9.792 4.305 1.699 7.343 1.004 11.648 3.376 8.017 4.389 18.063 5.319 26.758 7.934 16.629 4.895 34.523 0.932 51.489 2.785 10.214 1.1 22.115 3.46 32.413 2.034 8.104-1.172 13.336-10.214 20.597-13.167 6.248-2.618 16.205-4.137 22.874-4.474 5.319-0.169 10.045 1.339 15.024 3.123 5.994 2.034 10.805 5.403 16.542 7.85 4.811 2.202 8.525 2.034 13.757 2.034 13.167-0.169 29.881 9.708 42.964 2.106-1.183-1.603-2.28-1.603-4.137-2.447-6.162-2.785-11.817-4.811-17.473-8.946-3.123-2.369-5.908-4.895-9.623-6.161-6.922-2.274-13.927-2.274-20.681-5.403-2.955-1.267-5.824-2.869-8.695-4.221-11.226-5.486-22.62-12.072-34.608-15.701-5.654-1.771-10.297-1.603-16.121-1.699-13.42 0-24.141-10.972-37.562-12.83-14.181-1.867-29.797-0.169-44.062-0.169s-27.265-3.547-40.347-8.863c-7.934-3.293-14.265-9.875-22.453-13.083-7.175-2.955-14.603-5.232-21.861-8.017-15.278-5.907-34.439-5.319-50.477-1.435-5.824 1.339-9.37 1.004-15.278 1.435-13.336 0.765-26.336 2.202-39.671 2.202-6.415 0-13.928 1.004-20.343 0.169-2.955-0.43-4.641-2.034-7.343-2.369-5.486-0.765-11.734 0.084-17.22 0.084-6.248 0-13.252 0.765-19.497 0.084-6.923-0.837-8.946-5.994-14.773-8.358-4.305-1.771-9.877 0.67-14.265-0.084-2.955-0.502-3.123-0.932-6.331-2.785-4.811-2.785-6.923-2.618-11.48-3.8-3.123-0.765-8.017-2.785-10.635-4.727-4.305-3.293-4.305-5.74-9.792-8.017-6.753-2.785-12.663-3.46-19.244-5.74-5.656-2.034-9.454-4.641-15.532-4.978-11.564-0.598-21.102 2.034-32.329 4.305-17.725 3.63-42.541 31.569-58.918 12.83-4.981-5.57-8.779-10.213-15.785-13.336-12.239-5.486-23.211-13.252-34.27-20.597-2.447-1.699-4.221-4.305-6.415-6.248-2.369-2.034-5.065-3.547-8.017-4.474-3.714-2.034-7.007-4.641-9.792-7.934-4.052-3.123-2.531-2.369-6.753-3.206-10.972-2.106-23.211 1.603-34.523-0.085-21.272-3.293-42.119-10.551-62.968-15.024-6.331-1.339-11.648-3.63-18.149-3.8-9.961-0.335-20.005 0-17.22 2.106z"></path>
    </svg>