<svg xmlns="http://www.w3.org/2000/svg" viewBox="-34.470 -48.595 1107.154 1120.824">
    <path fill="#000000" d="M401.708 482.659c-0.517-5.913 3.547-11.309 6.283-16.114 3.844-6.504 3.4-7.465-0.295-13.009-5.174-7.835-3.326-21.288-2.217-30.896-0.517 1.256-1.627 2.217-2.070 3.696-1.7 5.322-2.883 11.531-4.361 17.075-0.666 2.439-0.443 4.805-1.035 7.244-0.813 3.326-1.848 5.913-1.922 9.831-0.074 4.435-1.182 9.831 0.592 13.748 0.739 1.774 2.587 1.922 3.178 4.065 0.592 2.291-0.295 6.061-0.369 8.5z"></path>
    <path fill="#000000" d="M723.107 862.733c-13.009 2.809-26.092 3.031-39.249 2.883-7.762 1.774-15.374 4.139-23.062 6.135-10.792 2.809-24.318 6.357-35.183 2.217-10.348-3.992-16.114-13.674-25.501-18.922-10.053-5.617-23.727-2.957-34.814-4.805-4.952-0.887-6.209-7.835-2.957-11.014 11.235-10.792 24.909-17.296 39.101-22.987-2.661-3.474-4.508-7.465-4.508-11.975 0-8.057 5.692-14.34 11.309-19.292 3.326-2.883 7.317-1.774 9.609 0.739 8.648 2.070 14.266 6.948 18.331 13.305 2.735-0.222 5.543-0.517 8.352-1.109 5.766-1.182 10.053 4.361 7.391 9.682l-2.809 5.692c3.104 1.404 6.283 2.883 9.682 3.178 4.731 0.369 8.352 5.248 5.692 9.757 7.096 1.33 14.044 3.252 21.066 5.1 5.987 1.478 5.766 8.205 1.996 11.309 12.713 1.182 25.279 2.587 37.105 8.057 5.1 2.439 3.77 10.94-1.552 12.048zM523.313 820.601c-1.33 3.77-3.178 6.801-5.766 9.757-0.961 1.109-1.922 2.143-2.883 3.252-0.517 0.592-0.961 1.33-1.552 1.922l0.148-0.222c-0.074 0.148-0.148 0.222-0.222 0.295-0.295 0.369-0.592 0.739-0.813 1.182-1.035 1.478-2.217 2.439-3.918 3.031-1.478 0.443-3.77 0.222-5.1-0.666-4.361-2.957-7.909-6.652-11.087-10.792-2.735-3.622-5.026-7.613-6.504-11.901-1.256-3.547 1.404-7.022 4.582-8.131 7.391-2.513 14.635-6.357 22.618-6.504 3.696 0 6.43 3.031 6.578 6.578 0.074 1.404-0.517 2.587-1.256 3.696 0.739 0.295 1.478 0.666 2.143 1.035 2.365 1.552 3.992 4.657 3.031 7.465zM410.667 824.74c-3.992 9.831-9.092 18.997-15.153 27.644 2.070 3.031 4.435 5.84 6.135 9.018 0.961 1.7 1.035 3.622 0.517 5.322 0.739 1.7 0.739 3.696-0.517 5.469-4.435 6.727-10.053 12.565-17.962 15.005-6.209 1.922-13.009 1.109-19.144-0.739-13.452-4.139-25.132-12.862-39.101-15.374-6.578-1.182-5.987-11.161 0-12.713 3.4-0.887 6.801-1.922 10.127-3.104-0.592-3.77 1.478-7.909 6.209-7.539 2.439 0.148 4.879 0.295 7.391 0.295-5.174-10.2-10.94-20.548-1.33-28.31 6.135-4.952 15.448-4.435 22.84-4.805 4.139-0.222 7.909-0.517 11.827-1.478 0.813-0.222 1.627-0.443 2.439-0.739 0.222-0.592 0.443-1.182 0.517-1.848 0.739-4.213 4.879-5.248 8.278-4.213 1.774-0.739 3.696-0.813 5.617 0.295 1.848 1.109 3.104 3.474 3.178 5.84 2.217 1.774 4.435 3.622 6.43 5.617 1.552 1.478 2.587 4.287 1.7 6.357zM803.157 858.815c-15.005-15.301-33.336-28.087-45.532-45.975-0.517-0.739-0.887-1.552-1.109-2.291-8.131-5.1-16.040-10.422-24.688-14.783-8.205-4.213-12.491-6.578-20.77-6.135-2.809 0.148-6.283 0.443-8.648-1.478-2.735-2.291-3.547-7.539-5.469-10.866-5.84-10.127-12.639-19.809-19.366-29.345-0.369 0.295-0.666 0.517-1.035 0.813-0.666 0.592-1.33 1.256-1.922 1.848-2.587 2.513-5.026 5.248-7.613 7.762-6.209 6.135-13.674 11.383-22.544 12.639-5.026 0.666-9.092-1.182-10.792-6.135-0.148-0.443-0.369-0.961-0.517-1.404-0.074-0.222-0.222-0.517-0.295-0.739-0.222-0.592-0.148-0.369 0.369 0.813 0.074-0.666-0.961-2.143-1.256-2.735-0.887-2.070-1.848-4.139-2.735-6.209-1.035-2.365-1.996-4.731-2.809-7.17-2.809 1.7-7.317 0.592-8.796-2.439-1.256-2.661-2.143-5.469-2.957-8.278-2.661-1.996-5.1-4.582-7.244-7.465-0.813 0.074-1.552 0.295-2.365 0.369-0.074-1.33-0.074-2.661-0.074-3.992-4.435-7.096-7.539-15.301-9.831-21.879-1.478-4.065-2.735-8.131-3.918-12.27-1.774 10.717-3.992 21.288-7.465 31.71-1.404 4.213-5.174 6.801-9.609 6.209-3.547-0.369-5.84-2.735-6.874-5.766-3.844 16.705-8.574 33.262-12.713 49.597-0.739 2.957-2.513 4.805-4.731 5.617-0.666 1.478-1.774 2.809-3.4 3.77-12.491 7.022-26.018 10.94-40.357 11.087-13.97 0.148-27.94-2.883-41.541-6.061-4.952-1.109-6.874-6.209-6.061-10.717 2.809-16.040-14.266-25.796-25.205-33.927-1.627-1.182-2.809-2.809-3.547-4.508-5.174 1.552-10.2 2.809-15.744 3.031 0.148-4.435 0.369-8.057 0.295-8.5-0.443-9.831-1.7-19.661-1.627-29.566 0-1.552 0.517-4.213 0.148-5.692-0.961-3.547-4.731-8.352-6.357-11.901-1.996-4.139-4.065-8.278-6.135-12.418 0.148 5.692 0.074 11.383-0.222 17.001-0.592 13.452-1.996 27.201-5.174 40.357-2.587 10.274-6.43 21.583-14.857 28.605-10.792 9.018-26.462 8.5-39.545 6.652-10.717-1.552-21.731-4.805-30.97-10.57-6.652 4.805-13.6 9.313-20.696 13.379-16.852 20.327-34.519 39.767-54.328 57.802-16.483 15.005-31.267 33.779-50.188 45.975 15.448 8.352 30.38 17.592 44.423 28.087 0.148 0 0.295 0 0.369 0.074 11.678 3.104 23.579 0.222 35.48 3.547 2.661 0.813 9.092 1.627 11.235 3.104 3.252 2.217 4.065 9.387 7.244 12.27 2.735 2.439 6.578 4.065 9.682 6.43 9.166 7.096 21.583 9.387 32.449 12.713 15.596 4.657 30.232 10.127 45.236 16.483 6.504 2.735 13.452 6.357 20.401 7.613 4.952 0.813 10.643 0.369 15.67 0.813 9.092 0.739 19.292-0.887 26.757 5.174 6.357 5.1 11.604 8.796 18.997 12.936 17.813 10.053 34.371 10.348 54.106 10.053 16.557-0.148 31.118-4.065 47.158-8.426 2.957-0.813 5.913-1.7 8.87-2.439 0.813-0.295 0.369-1.774 1.848-2.070 1.774-0.295 7.909 3.031 9.092 3.547 7.17 3.031 13.97 4.287 21.731 2.957 9.239-1.552 18.183-1.256 27.644-1.7 11.161-0.517 21.952-7.687 32.449-11.531 9.979-3.622 19.735-5.543 30.009-7.613 8.205-1.7 15.153-6.578 22.987-9.461 16.557-6.135 35.849-2.291 53.219-2.735 7.835-0.222 12.122-6.209 18.331-10.643 5.396-3.77 11.087-6.801 15.744-11.383 6.209-6.061 12.787-10.496 19.883-15.153 4.139-2.735 7.909-4.731 12.862-6.652 4.361-1.7 10.2-2.883 15.522-4.582-15.522-13.083-26.388-30.749-40.58-45.236z"></path>
    <path fill="#000000" d="M538.503 542.605c-1.33-6.061-0.592-12.344-1.7-18.479-1.035-6.283-2.143-11.901-2.291-18.257-0.222-5.617 0.739-13.009-1.035-18.331-0.517 19.218-4.213 39.027-16.778 53.662-0.222 9.461 0.961 18.626 7.17 26.388 1.848 2.291 3.918 2.587 5.543 4.731 1.404 1.774 1.552 4.287 2.291 6.357 0.666 1.922 1.035 3.844 1.33 5.692 0.887-3.696 1.996-7.317 2.513-9.979 1.182-5.766 4.508-10.053 5.174-15.817s-1.035-10.496-2.217-15.966z"></path>
    <path fill="#000000" d="M815.508 628.421c-0.222 0.148-0.517 0.222-0.739 0.295-1.035 0.517-2.070 0.887-3.104 1.256l-17.518-41.91c1.774 2.070 3.77 3.918 5.913 5.913 3.918 3.547 8.944 15.67 14.783 14.118 1.478 6.504 1.035 13.452 0.666 20.327zM992.61 463.22c0.074-9.239-0.074-14.413-4.361-22.47-3.77-7.17-8.648-12.565-13.305-19.292-2.957-4.213-6.578-7.983-9.535-12.048-3.622-5.1-3.622-11.604-6.357-17.149-0.887-1.7-1.848-3.252-2.809-4.879 0.148-5.1 0.739-10.348 0.739-14.413 0.074-3.844 0.961-8.278 0.443-12.048-0.961-7.17-5.913-17.296-10.57-23.136-2.217-2.661-3.252-2.587-4.731-5.026-2.587-3.992-6.135-8.722-7.762-13.305-3.252-9.239-2.070-19.957-5.396-29.197-1.256-3.696-4.213-7.835-4.952-11.678-0.961-4.805-0.369-8.5-1.552-13.896-2.217-10.053-6.801-19.071-9.387-28.901-2.661-10.274-2.735-15.67-8.796-25.575-2.957-4.287-5.913-8.648-8.796-12.936-2.735-5.987-6.727-7.613-11.975-4.879-3.4 1.109-6.578 2.735-9.682 4.435-1.848-2.809-3.77-5.617-6.061-8.205-4.213-5.026-6.652-6.874-12.491-8.722-2.587-3.622-5.543-6.948-9.018-9.535-2.735-1.33-5.396-3.031-7.762-4.952l-2.513-2.735c-2.513-1.035-5.543 0-7.909-1.627-6.209-4.213-3.77-11.087-2.883-17.001 0.813-5.543-0.222-11.235 1.33-16.631-5.617-4.065-21.952 7.983-28.458 9.757-1.182-6.948-0.222-12.344-8.278-12.862-4.361-0.295-9.682-1.7-12.713-5.396-3.992-5.026-1.035-14.044-6.874-17.592-3.326-2.070-8.796-2.291-12.344-3.474-3.326-1.109-6.283-2.883-9.387-4.361-6.652-3.104-11.678-1.256-18.11-3.326-5.469-1.7-8.722-6.727-14.192-7.613-0.222-0.074-0.517-0.074-0.887-0.148-0.666-1.33-1.109-2.661-1.996-3.622-2.439-2.735-7.244-5.248-10.053-6.948-8.352-5.174-16.557-10.496-25.132-15.374-10.717-6.061-22.027-9.609-33.262-14.413-7.762-3.326-16.483-9.313-24.983-9.682-2.957-0.148-5.469 0.592-8.278 1.478-10.57 3.547-20.253 8.205-31.414 10.053-16.852 2.809-33.853 4.657-50.928 5.396-9.682 0.517-16.778 1.848-24.171-5.543-5.1-5.026-8.057-10.496-15.153-11.383-8.5-0.961-17.962 0.295-26.536 0.148-5.766 0-11.235 0.295-16.927 1.552-4.435 0.961-7.909 2.957-11.901 4.805-5.766 2.661-12.048 4.139-18.036 6.357-14.635 5.322-30.823 8.722-46.418 8.352-2.291-0.074-5.396-0.961-7.465 0.074-3.992 1.922-5.987 8.87-7.096 12.565-1.478 4.879-1.182 8.87-5.174 12.27-3.77 3.252-9.682 6.135-13.97 8.574-6.061 3.4-12.936 4.582-19.144 7.465-0.813 0.369-1.627 0.813-2.513 1.256-4.435-0.443-8.87-0.961-13.305-1.7-4.657-0.295-9.092-1.256-13.379-2.883-2.217 0-4.508 0.961-6.504 1.774-6.578 2.513-13.452 8.352-19.218 12.639-5.987 4.435-12.713 8.574-17.813 14.044-5.174 5.617-10.348 11.604-14.118 18.183-2.439 4.213-3.992 8.87-6.578 13.009-3.622 5.692-7.983 9.166-13.674 12.713-4.952 3.031-10.57 6.43-15.153 10.127-4.805 3.918-6.578 9.313-9.461 14.635-2.291 4.287-4.731 7.909-7.687 11.678-5.766 7.244-9.757 15.596-15.596 22.692-11.901 14.635-25.944 26.683-37.919 41.318-8.722 10.643-16.852 22.766-24.318 34.297-3.696 5.766-5.84 12.048-9.313 17.739-8.352 13.674-14.561 29.197-19.587 44.793-0.739 0.813-1.552 1.627-2.217 2.513-11.975 15.153-8.648 35.109-8.648 53.662 0 11.975-0.148 24.022 0 35.997 0.074 7.317-2.143 13.452-4.213 20.475-1.7 5.987-1.478 11.901-4.065 17.444-6.43 14.192-4.213 30.527-4.213 45.828-0.074 5.692-0.739 11.383 1.182 16.778 1.478 4.287 3.4 8.057 4.508 12.565 1.182 4.435 2.143 5.913 5.617 9.609 6.135 6.504 7.983 10.496 9.018 19.071 2.217 17.665-0.148 35.48-1.404 53.071-0.369 5.174-1.256 11.604 0.222 16.778 1.7 6.357 8.131 12.344 11.827 17.149 6.727 8.722 12.787 17.887 19.218 26.831 3.326 4.582 9.092 9.757 10.2 15.374 1.404 7.539 0.074 16.927 0 24.54-0.074 9.092 0.592 19.071 4.139 27.57 2.735 6.43 4.139 13.009 8.426 18.553 2.217 2.957 5.248 3.77 8.205 5.84 2.513 1.774 6.135 3.696 8.131 5.84 3.031 3.178 2.365 4.213 0.369 12.491 5.84-0.887 11.014-11.309 16.040-14.709 9.166-6.135 19.218-11.827 29.492-15.966 5.913-2.365 12.27-3.992 18.036-6.874 3.252-1.7 3.547-3.252 5.692-5.617 1.848-2.217 3.4-4.952 5.322-7.022 1.848-2.143 4.361-3.252 6.801-4.952 11.975-8.131 24.614-12.122 36.662-19.661 3.696-2.291 9.313-3.77 11.309-7.613 0.887-1.7 0.961-4.361 1.774-6.283 1.922-4.361 4.582-5.543 8.796-7.983 3.622-2.070 6.283-4.508 8.87-7.317-3.326-1.478-6.209-3.696-8.352-6.874-2.070-0.961-4.139-1.848-6.135-2.809-11.827-5.766-23.653-13.157-30.527-24.688-3.77-6.357-5.469-13.305-6.061-20.401-1.256-0.443-2.587-1.035-3.622-1.848-3.918-3.252-2.365-8.5-2.291-13.083 0-8.131-0.443-16.188 0.443-24.245 0.517-5.248 1.404-9.831 1.33-14.487-5.248 9.092-9.609 18.7-12.196 29.197-0.666 2.735-2.217 4.361-4.139 5.322 0.443 9.757-13.452 13.083-16.852 2.957-6.874-20.105-15.522-39.545-22.175-59.723-0.443-1.33-0.813-2.735-1.182-4.065-1.182-1.404-1.922-3.178-1.996-5.248-0.074-0.666 0-1.256-0.074-1.922-0.592-2.365-1.109-4.731-1.627-7.022-0.666 2.365-1.33 4.731-1.996 7.096-2.143 7.687-15.522 8.944-16.852 0-2.439-16.631-2.439-33.040-1.552-49.375-2.070-0.813-4.065-1.7-5.84-2.957-3.474-2.291-5.913-4.879-8.426-8.131-1.627-2.143-1.404-5.469-0.443-7.835 1.109-2.513 3.031-4.139 5.692-5.026 0.074 0 0.148 0 0.148-0.074-0.148-1.035-0.295-2.217-0.295-3.326-0.148-8.352 5.248-15.817 10.866-21.435 0.739-0.813 1.627-1.33 2.587-1.7 0.369-5.026 0.813-10.053 1.109-15.079 0.295-4.657 4.213-8.057 8.352-8.574 0.443-19.44 1.256-38.806 2.070-58.172 0.739-11.161 18.036-11.309 17.518 0-0.739 11.161 6.061 20.622 11.531 29.862 4.879 8.205 8.87 16.631 12.196 25.575 1.478 4.065 2.735 8.205 3.918 12.418 2.291-5.84 4.361-11.827 6.135-17.813-3.178-7.317-5.692-15.448-6.578-23.505-3.547-3.178-6.504-6.948-7.022-11.901-1.7-16.335 9.905-33.484 12.491-49.154 0.813-4.508 0-7.909 1.774-11.827 3.252-7.022 8.057-5.913 14.266-9.757 3.77-2.439 5.617-6.504 8.057-10.274 2.735-4.213 5.913-6.874 9.682-10.2 5.174-4.657 6.209-9.609 6.135-16.188-0.074-4.582-1.182-10.643 1.109-14.635 0.148-0.222 0.369-0.369 0.443-0.592 3.4 3.474 6.727 6.948 10.2 10.2 5.248 4.879 10.57 11.752 12.936 18.479 5.396 15.005 1.7 33.41 2.291 48.932 0.222 6.578 2.439 11.087 4.287 17.075 0.443 1.478 0.813 3.031 1.182 4.508 1.552-2.365 4.139-3.918 7.096-4.139-0.148-1.774-0.295-3.622-0.369-5.469-0.961-17.222-1.404-39.767 8.574-55.215-3.474-10.053-7.391-19.735-5.913-30.823 1.552-11.457 7.835-21.657 12.787-32.079 4.361-2.587 8.796-5.026 13.009-7.835 5.322-3.547 10.717-6.801 16.114-10.053 0.961 2.070 1.7 4.139 1.774 6.283 0.148 2.735 0 5.617-0.074 8.352-0.295 2.587-0.148 5.174 0.369 7.762 1.182 1.035 2.513 1.182 3.918 0.592 3.104 2.143 5.322 5.766 8.722 2.587 3.696-3.4 5.692-11.457 7.022-16.188 0.666-2.291 0.592-5.469 2.809-6.948 2.439-1.552 4.657 0.592 7.022-1.774 1.627-1.552 1.256-2.439 1.552-4.657 0.148-1.182 0.148-2.365 0.222-3.622 0.074 0 0.074 0.074 0.074 0.074 4.435 7.909 4.582 17.592 5.396 26.979 1.109 12.787 3.178 26.683 3.4 39.397 2.661-2.070 7.687-2.883 9.831-4.952 1.922-0.295 2.587-1.552 2.070-3.844 2.291-12.418 4.731-24.761 7.317-37.105 1.996-7.244 3.031-14.635 3.031-22.101-0.074-3.696 0.369-7.317 1.33-10.866 1.7-5.396 5.396-9.905 6.652-15.448 1.404-6.504-0.887-14.931-4.287-20.475-1.922-3.178-4.213-4.879-5.766-6.801 8.87-3.474 18.405-5.913 27.644-7.762 7.17-1.404 15.817-3.031 21.288-8.352 2.587-2.513 2.957-5.84 5.543-8.131 1.996-1.774 4.805-2.143 6.727-3.918 1.478-1.256 2.217-3.178 3.77-4.435 4.731-3.992 11.531-6.061 17.296-7.835 4.952-1.478 10.348-7.096 15.374-7.096 1.404 6.948-3.326 14.783-5.396 20.918-2.143 6.135-5.248 15.817-1.7 22.175 3.918 3.622 7.762 7.244 11.604 10.866 6.061 5.692 12.122 11.309 18.257 16.927 3.992 4.435 3.178 6.948 3.696 12.862 1.996 22.544 0.961 45.606 0.813 68.298 0 13.305 2.291 26.24 2.217 39.545 0 2.070-3.326 27.423 3.622 25.205 3.4-14.635 10.496-28.458 12.639-43.462 1.256-9.461 2.513-18.922 2.439-28.384 0-12.048-0.074-23.579 2.661-35.332 1.182-4.805 0.739-9.313 1.478-14.044 0.666-4.139 1.182-3.844 4.065-7.096 9.313-10.57-9.682-14.118-14.266-20.992-2.957-4.361-2.809-10.422-0.887-14.857 1.848-4.213 5.248-7.835 7.096-12.122 1.7-3.992 1.774-7.983 3.326-11.901 1.7-4.213 4.435-7.465 7.022-10.57 1.922-2.365 3.622-4.213 3.844-7.465-1.182-0.222-2.365-0.443-3.547-0.666-0.739-1.848-0.813-3.77-0.148-5.617 3.031-0.887 7.317-0.517 11.014 0.443 0.295 0.369 0.666 0.813 0.813 1.182 2.735 4.287 5.987 8.648 7.687 13.305 1.552 4.139 1.996 9.979 1.404 14.34-0.666 5.174-4.879 8.574-6.283 13.305-1.33 4.287 0.148 5.84 1.256 9.535 1.627 5.396 2.661 10.792 4.731 15.966 1.404 3.474 2.365 6.727 3.326 10.053 0.666-6.874 3.622-14.783 5.026-18.479 2.587-6.578 5.174-12.787 8.278-19.144 4.213-8.5 9.979-15.301 12.122-24.761 0.887-3.844 1.256-8.205 1.848-12.418 1.774 0 3.474 0.148 4.952 0.443 4.361 0.813 8.5 4.361 11.678 7.022 4.213 3.622 7.835 8.057 11.901 11.901 1.109 1.035 2.365 1.848 3.622 2.735-0.222 1.404-0.295 2.735-0.369 4.361-0.074 6.283 0.295 12.491 0.222 18.774 0 7.317-0.592 14.266 1.848 21.214 1.848 5.322 2.070 10.274 2.809 15.966s1.035 12.048 2.587 17.444c1.552 5.913 5.469 11.014 7.909 16.631 6.357 14.931 9.682 31.931 7.317 48.193-0.813 5.766-1.848 11.014-1.627 16.852 0.222 6.578 4.065 11.235 5.913 17.592 1.627 5.692 1.848 11.604 2.957 17.37 1.182 6.135 1.627 6.652-0.443 11.975-6.135 16.040-4.657 34.371-4.287 51.445 0.148-0.961 0.443-1.922 0.739-2.957 2.291-8.574 8.352-14.857 9.609-24.022 1.33-9.831 1.256-19.809 2.735-29.714 3.104-21.435-0.739-42.058-0.517-63.641 0.074-10.717 1.627-21.731-2.587-31.34-2.070-4.582-4.879-21.805 2.143-23.357 1.848 8.131 4.731 16.927 4.582 25.279-0.148 4.361-0.369 8.352 2.513 11.678 0.961 1.109 2.809 1.552 3.844 2.809 2.661 3.178 1.922 7.687 1.996 11.457 0.295 10.792 3.031 20.918 3.992 31.636 0.517 6.209 1.478 7.022 4.435 11.901 1.922 3.178 4.805 8.131 5.84 11.604 0.148 0.443 0.148 0.887 0.222 1.256 0.813-23.8 12.418-47.306 12.713-71.107 0.148-6.948-0.295-13.305 0.961-20.105 0.813-4.361 1.552-9.018 2.143-13.748 7.762 9.979 13.452 21.362 19.366 32.449 3.4 6.357 7.909 11.901 10.94 18.7 1.627 3.696 2.217 8.426 5.322 11.309 3.77 3.547 11.457 5.766 15.596 7.835 0.592 0.295 1.182 0.666 1.774 1.035-0.222 7.244-0.666 14.487-1.182 21.731 3.622 0 7.096 1.774 7.687 6.135 0.074 0.813 0.148 1.627 0.222 2.365 0 0 0.074 0 0.074 0 0 0.148 0 0.369 0 0.517 1.478 11.975 1.922 24.022 2.070 36.070 0.666 3.474 1.256 6.874 1.774 10.274 0.074-0.222 0.074-0.592 0.222-0.739 2.143-3.474 2.291-1.035 4.731-2.587 0.517-0.369 1.109-0.739 1.627-1.109 0.443-0.517 0.813-1.035 1.256-1.552 1.182-1.404 2.365-2.809 3.474-4.287 0.148-0.148 0.592-0.813 0.813-1.035 0.517-0.739 1.109-1.478 1.627-2.217 1.035-1.478 1.996-2.957 2.883-4.508 0.443-0.666 0.813-1.33 1.109-1.996 0.148-0.222 0.666-1.404 0.887-1.848 0.517-1.478 1.035-2.957 1.404-4.508 0-0.295 0.148-0.961 0.222-1.33 0.074-0.813 0.074-1.627 0.074-2.439 0.222-11.309 17.296-11.235 17.518 0 0.074 2.661 0.517 5.248 0.961 7.835 0.813 0.666 1.627 1.404 2.070 2.365 15.005 29.492 36.81 55.732 48.267 87.146 11.975 33.114-9.979 67.485-18.183 98.899-1.182 4.508-5.026 6.43-8.796 6.209 1.182 8.278 2.365 16.557 3.622 24.835 1.922 5.766 1.922 11.457-0.074 17.149-2.291 1.848-4.582 3.77-6.874 5.617-0.887-2.291-1.774-4.508-3.031-6.652-2.143-3.918-5.1-7.465-7.613-11.235-4.361-6.357-7.613-12.936-13.305-18.405-6.948-6.652-12.27-15.301-15.227-24.54-1.774-5.617-3.77-11.014-5.692-16.483-3.326 0.961-6.801 1.627-10.274 2.070-1.7 11.161-5.174 22.175-1.256 33.040 1.404 3.77 3.031 6.874 1.996 11.014 0 0.074-0.074 0.148-0.074 0.222l-3.178-7.539c0.443 2.439 1.035 4.879 1.848 7.465 0.148 0.666 0.443 1.109 0.666 1.7-1.33 3.696-3.918 7.244-6.209 10.717 2.143 2.143 2.957 5.396 2.513 8.648-2.217 16.631-0.813 33.484-2.439 50.188-1.256 13.231-4.139 27.497-12.122 38.51-6.727 9.313-16.114 15.744-26.683 20.105-3.178 1.33-6.504 2.439-9.905 3.326-2.291 2.809-4.731 5.543-7.244 8.278-3.252 3.474-5.913 6.801-7.244 10.717 17.222 8.131 34.888 15.596 44.571 32.818 5.1 1.404 10.127 2.957 15.005 5.174 17.739 7.909 29.048 23.579 43.537 35.775 20.031 16.778 44.349 27.94 63.272 45.384 1.922-7.096 4.139-15.596 8.648-19.144 2.365-1.922 2.735-0.961 5.174-1.848 3.252-1.182 4.952-2.883 7.391-5.322 6.135-6.209 8.278-11.161 9.461-19.883 1.478-10.792 3.474-22.913 8.131-32.818 3.178-6.874 8.87-12.787 13.305-18.848 8.722-11.975 11.678-24.318 11.827-38.732 0.074-15.374 11.827-29.197 18.036-42.797 6.209-13.526 4.952-26.166 4.879-40.875-0.074-10.2 1.848-19.144 2.143-28.901 0.443-15.966 4.361-31.044 4.139-47.232-0.148-7.909-4.287-14.044-4.287-22.323-0.148-24.097 16.631-44.275 16.927-68.446z"></path>
    <path fill="#000000" d="M604.665 324.48c-1.774 8.648-3.178 17.37-3.77 26.314 1.922 2.217 5.617 0.961 7.909-1.109 1.996-1.774 3.77-4.879 4.213-7.317 0.295-1.7-0.517-3.547-0.222-5.248 0.369-2.143 1.7-3.696 1.996-5.84-3.622-2.217-6.874-4.508-10.127-6.801z"></path>
    <path fill="#000000" d="M706.653 346.729c-0.074 2.809-0.148 5.692 0.148 8.5-0.074-2.809 0.295-5.766-0.148-8.5z"></path>
    <path fill="#000000" d="M667.145 417.762c0-1.182-0.074-2.439-0.074-3.622-0.222 1.182-0.295 2.365 0.074 3.622z"></path>
    <path fill="#000000" d="M402.366 486.873c-0.222 0.592-0.295 1.182-0.148 1.922 0.074-0.592 0.074-1.256 0.148-1.922z"></path>
    <path fill="#000000" d="M454.402 138.953c0.148 2.883-6.135 8.426-7.835 10.792-3.696 5.1-6.061 10.792-9.757 15.744-3.326 4.582-8.5 8.131-9.831 13.822-0.517 2.291-0.739 5.248-1.33 7.687-1.552 6.504-0.443 14.192-0.443 20.918 0 19.292 1.182 38.14-3.992 56.841-2.217 8.205-5.913 15.892-9.461 23.579-2.513 5.469-3.77 11.087-5.766 16.409-1.182 3.104-3.77 4.361-4.879 7.909-1.627 5.248-1.182 11.752-1.996 17.149-1.256 8.205-2.587 16.927-3.104 25.279-0.592 9.313-4.361 14.709-6.283 23.431-2.735-15.005-4.361-30.38-4.213-45.754 0.074-3.326 0.592-7.17 0.148-10.422-0.295-1.848-1.404-3.104-1.7-4.361-1.478-6.43 1.109-13.674-0.887-19.957-1.7-5.322-4.361-10.643-5.84-16.114-1.404-5.1-2.513-9.831-4.435-14.561-1.478-3.622-0.517-15.301-4.731-14.635-2.070 0.295-3.326 16.927-3.252 16.483-1.552 8.87-3.992 16.335-6.948 24.688-1.627 4.435-3.622 7.687-5.692 11.827-1.848 3.547-1.7 11.604-6.209 12.639-2.957-1.7-3.4-4.435-5.1-7.17-5.1-8.352-15.744-14.709-19.587-23.727-2.661-6.209-5.913-12.196-8.722-18.479-1.922-4.139-3.992-7.317-6.578-10.792-1.627-2.217-6.652-8.131-6.283-11.087 0.148-1.182 3.547-4.139 3.918-4.582 3.992-4.805 6.43-10.94 10.127-15.966 5.543-7.687 10.717-16.778 17.296-23.579 8.574-8.796 20.77-14.783 30.896-21.952 8.648-6.135 16.114-13.748 25.796-17.665 6.357-2.587 11.678-6.504 18.257-8.796 7.17-2.587 10.274-3.918 15.892-9.018 2.217-1.996 5.026-3.844 7.096-6.061 1.7-1.774 2.070-4.139 25.427-0.517z"></path>
    <path fill="#000000" d="M471.085 128.531c0 4.435 0.813 4.361 2.883 7.687 1.035 1.7 1.109 4.139 2.513 5.543 1.627 1.7 3.031 1.035 5.1 1.848 5.766 2.143 10.496 11.161 11.975 16.705 1.7 6.357-1.33 10.643 4.657 15.153 4.731 3.622 8.205 8.131 11.975 12.787 5.1-3.252 6.061-12.491 10.274-17.075 3.252-3.474 7.687-7.096 12.048-8.796 3.178-1.256 6.652-2.217 9.905-3.622 4.065-1.7 8.722-2.217 12.639-4.065 9.166-4.287 18.479-9.092 27.57-13.748 2.143-1.109 7.687-2.809 9.239-4.582 0.739-0.813 0.887-3.474 1.404-4.582 4.139-8.205 5.987-10.866-4.952-14.266-5.987-1.922-11.827-2.513-17.962-3.622-9.609-1.774-19.144-6.283-28.679-8.944-11.901-3.4-24.983-3.696-36.736-7.687-5.174-1.848-9.461-3.77-15.079-4.213z"></path>
    <path fill="#000000" d="M482.971 413.031c0.517-0.148 1.109-0.295 1.627-0.443 1.7-14.192 2.365-28.827 3.77-43.093 0.813-8.057-1.774-14.857-6.874-21.066-3.918-4.879-7.096-8.722-8.278-14.783-1.627-8.5-2.513-17.149-3.844-25.649 0.517 3.4 1.256 6.727 1.774 10.127 1.627 11.678-1.627 22.913-1.109 34.519 0.222 5.174 3.326 12.862 1.404 17.887-1.33 3.547-6.209 6.578-8.722 9.092-3.252 3.104-6.135 9.239-5.987 14.118 0.148 3.696 3.104 8.131 4.435 11.531 1.182 2.883 3.178 6.504 6.357 7.909 4.361 1.996 9.387 4.065 11.901 0.443 3.622-5.1 1.478-6.801 3.547-0.592z"></path>
    <path fill="#000000" d="M610.822 128.531c0.148 14.709 2.365 29.419 2.143 44.053-0.074 5.469-0.592 10.127 1.774 15.227 2.587 5.692 7.909 10.348 8.722 16.631 0.813 5.987 0.813 11.752 1.996 17.813 1.256 6.874 3.4 14.34 4.287 21.435 0.739 5.987 1.996 10.792 4.139 16.557 1.627 4.435 1.996 8.648 4.435 12.713 10.866 18.183 3.918 40.654 5.84 60.832 0.961 10.2 9.979 15.374 13.231 24.54 1.996 5.617 2.143 12.713 3.474 18.626 1.552 6.727 0.813 14.192 2.587 20.622 1.256 4.582 8.057 14.192 5.322 18.626-1.922-0.443-2.661-5.987-3.252-8.205-0.961-3.77-0.813-8.648-0.074-12.491 2.587-13.157 9.831-25.132 10.053-38.879 0.148-8.574-3.252-19.144-5.692-27.423-3.696-12.344-5.026-25.427-6.874-38.214-2.365-16.040-5.026-31.34-4.213-47.971 1.035-22.84 7.687-45.384 8.5-68.298 0.295-8.5 0.295-17.222-0.222-25.722-0.369-5.322-0.517-18.774-8.205-20.475z"></path>
    <path fill="#000000" d="M785.942 878.476c-6.061-6.801-9.092-11.752-17.518-16.631-12.713-7.244-25.279-14.34-37.253-22.766-6.209-4.435-13.822-6.061-20.622-9.239-3.252-1.922-6.357-3.918-9.387-6.209-4.879-2.809-9.757-5.469-14.783-8.057-9.609-6.504-17.962-13.083-29.122-17.592-6.357-2.513-13.157-5.396-17.887-10.496-6.727-7.465-11.014-20.105-20.475-24.318-4.213-2.365-8.574-2.513-12.936-0.295-9.166 4.879-18.774 8.722-28.827 11.457-12.048 3.622-23.505 8.574-34.371 14.857-5.1 3.178-10.57 4.435-16.335 3.844-4.065 0.074-8.131 0.074-12.122 0.074-2.735 0.295-5.396 0.592-8.205 0.592-13.97 0.148-27.94-2.883-41.541-5.987-2.661-0.666-4.361-2.439-5.322-4.731-1.996-1.33-3.918-2.883-5.987-4.879-2.809-2.735-4.657-3.474-8.131-4.287-4.657-0.369-9.239 0.148-13.748 1.627-7.687 1.996-15.374 3.622-7.244 15.374-12.936-2.735-22.396-13.896-35.849-14.857-16.557-1.182-32.966 6.578-49.227 6.357-10.2-0.074-13.452 6.061-17.887 14.783-2.809 5.692-7.022 9.535-10.274 14.857-3.77 6.061-7.613 11.901-11.531 17.887-2.735 4.361-6.874 7.613-9.387 12.048-3.77 6.727-4.879 13.896-4.213 21.509 0.443 5.322 3.4 6.504 7.244 9.831 7.613 6.357 14.709 12.048 24.318 15.448 21.066 7.613 41.836 7.687 63.715 8.574 83.007 3.326 166.236 1.7 249.391 1.922 15.744 0 31.562 0.517 47.306-0.295 15.301-0.813 29.714-4.805 44.793-7.17 12.344-1.848 25.796-3.844 38.214-4.657 9.905-0.666 23.653 1.996 32.671-1.922-2.365-0.666-5.913-4.879-7.465-6.652z"></path>
    <path fill="#000000" d="M348.164 128.457c0.592 0.148 1.109 0.222 1.7 0.295 0.222 2.587 2.587 4.657 4.508 6.504 4.361 4.361 4.213 4.879 4.213 10.717 0 3.918-0.961 9.018 0.369 12.862 0.517 1.627 2.143 4.065 3.326 5.396 1.256 1.478 2.809 1.922 4.065 3.4 5.692 6.578 8.944 14.561 14.487 21.288 4.731 5.692 6.652 7.317 6.874 13.748 0.222 6.357 2.439 12.787 7.022 18.036 5.026 5.617 11.901 10.57 14.044 17.296 1.404 4.435-2.365 10.422 0.295 14.635 0.887 1.33 1.7 1.627 2.883 2.439 0.443 0 0.887 0.074 1.33 0.074 2.070-0.148 3.326 1.035 3.844 3.547 3.992 4.435 10.866 9.757 13.452 14.709 0.666 1.404 0.739 2.883 1.478 4.287 1.478 2.735 3.178 3.696 3.77 6.727 0.666 3.77 0.961 7.539 1.848 11.383 0.592 2.513-0.887 5.026 2.217 6.874 7.835-3.77 7.835-18.331 10.496-24.983 1.7-4.287 4.508-7.909 6.135-12.122 2.439-6.357 4.657-12.713 6.43-19.218 2.217-7.909 4.065-15.374 4.139-23.505 0-1.478 0.592-3.918 0.074-5.322-1.035-2.735-4.582-5.987-6.357-8.5-5.617-7.835-1.256-21.657 2.070-29.492 1.627-3.844 1.774-8.057 3.844-11.678 4.508-7.687 15.153-13.083 20.105-20.696 6.727-10.422 9.757-24.54 7.096-36.070-2.809 0.443-4.731-0.295-7.465-0.813-11.235-2.070-22.101-5.84-33.558-7.022-16.631-1.7-33.779-0.517-50.484-0.517z"></path>
    </svg>