<svg xmlns="http://www.w3.org/2000/svg" viewBox="-43.021 -16.003 1128.042 1056.005">
    <path fill="#000000" d="M512.148 500.885c-14.871 0-26.963-12.017-26.963-26.813 0-14.871 12.092-26.887 26.963-26.887s26.963 12.017 26.963 26.887c0 14.796-12.091 26.813-26.963 26.813zM772.691 417.14c-77.059 0-145.33 21.405-187.615 32.070-2.479-1.426-5.107-2.704-7.735-3.829-4.881-2.107-10.064-3.605-14.796-5.859-4.582-7.959-11.040-14.646-18.701-19.604-3.53-7.437-5.859-15.771-8.561-23.884 11.641-42.060 33.722-110.556 33.722-188.14 0-52.349-17.951-100.568-23.734-139.396-0.226 0.595-0.452 1.128-0.6 1.725 0-1.725 0-3.381 0.076-5.033-0.076-0.447-0.15-0.831-0.226-1.193-3.381 10.515-5.257 21.631-5.408 32.746-1.577-8.712-4.808-17.049-9.539-24.484-2.479 17.875-3.229 35.901-2.253 53.926-0.076-9.313-2.704-18.552-7.511-26.512-0.6 8.337-1.127 16.674-1.727 25.011-0.977-3.982-2.029-7.959-3.003-11.866l0.452 130.159c-0.977-7.886-1.953-15.848-2.93-23.808-0.826 9.163-1.727 18.326-2.554 27.489-8.411-30.793-10.889-63.239-7.286-94.934-4.281 10.59-6.91 21.856-7.736 33.271-0.384-29.292-0.746-58.508-1.043-87.8-4.881 14.497-7.736 29.667-8.637 44.989 0.15 4.881 0.076 9.837-0.299 14.796-0.076-4.956 0-9.915 0.299-14.796-0.234-4.655-0.595-9.237-1.278-13.819-2.855 15.771-4.356 31.694-4.507 47.691 0.831 5.634 0.894 11.266 0.384 16.898-0.299-5.634-0.384-11.266-0.384-16.898-0.234-1.725-0.532-3.455-0.894-5.257 1.512 7.060-9.764 27.189-12.767 33.798-1.128-2.403-2.252-4.956-3.379-7.511-0.076 3.605-0.076 7.211-0.076 10.815 0 42.060 1.958 84.194 7.359 125.878 2.107 15.997 6.159 31.694 8.185 47.618 1.725 14.194-0.595 29.141-3.078 43.712-0.299 0.299-0.595 0.532-0.894 0.831-1.128 1.043-2.252 2.107-3.304 3.229-3.829 3.904-7.060 8.411-9.689 13.293-9.837 0.299-19.677 0.384-29.517 0.15-42.585-10.44-107.626-17.124-180.63-17.124-42.96 0-83.142 2.33-117.616 6.307 0.831 0.595 1.66 1.128 2.33 1.725-5.782 5.634-18.251 4.582-26.061 5.634 1.341 0.15 2.704 0.299 4.055 0.447-13.293 1.043-26.438 3.156-39.28 6.909 19.002 2.403 38.078 4.808 57.081 7.286-3.53 0-7.133 0-10.664 0.076 15.022 0.831 29.893 4.207 43.712 10.141-17.724-0.384-35.45 0.384-53.025 2.33 2.107 0.681 4.281 1.341 6.385 2.023-8.112 0-16.222 0.075-24.335 0.075 3.304 1.043 6.685 2.023 10.063 3.003 4.431 3.455 10.063 5.258 15.697 5.182 6.608 4.356 14.646 6.533 22.533 6.083-5.782 0-11.492 0.076-17.274 0.076 2.177 1.128 4.582 1.958 7.060 2.403 2.478 0 4.881 0 7.286 0.15-2.403 0.299-4.881 0.234-7.286-0.15-7.211 0-14.42 0.681-21.481 2.023 3.379 2.252 7.434 3.605 11.567 3.756-18.025 1.873-36.351-0.15-53.551-5.707-8.863 4.808-21.405-0.234-31.094 4.13 35.374 16.448 117.842 42.359 213.901 42.359 75.632 0 142.625-21.555 185.061-32.597 9.614 2.023 20.955-2.252 28.465 4.055 3.756 3.229 5.257 8.337 6.533 13.069 2.704 9.837 5.333 19.677 8.037 29.517-10.063 42.359-31.018 108.379-31.018 182.582 0 127.906 33.722 231.627 57.456 231.627s50.246-103.721 50.246-231.627c0-65.417-9.989-124.3-19.828-166.36 0.901-9.237 2.104-18.402 3.981-27.414 1.2-5.859 2.704-11.793 5.783-16.9 0.901-1.426 1.953-2.855 3.454-3.605 2.177-1.128 4.881-0.595 7.286-0.979 3.605-0.595 6.46-3.003 8.713-5.933 12.994-0.447 25.987-1.725 38.981-3.304 42.285 8.263 102.22 13.445 168.688 13.445 128.281 0 232.303-19.152 232.303-42.886 0-23.658-104.022-57.307-232.303-57.307z"></path>
    </svg>