<svg xmlns="http://www.w3.org/2000/svg" viewBox="-3.616 -48.000 1013.510 1120.516">
    <path fill="#000000" d="M730.378 501.255c-2.334-2.9-4.881-5.446-7.214-8.275-2.689 0.421-3.395 3.89-4.458 5.871-2.192 4.315-5.163 8.205-7.78 12.307-2.972 4.527-5.518 9.126-7.214 14.218-0.562 1.704-0.842 6.224-2.546 7.64-3.819-4.032-5.731-9.055-8.56-13.723-0.982-1.704-3.89-7.71-6.296-7.427-3.89 5.163-4.102 12.024-9.196 16.695-0.842-3.962-1.203-7.992-1.624-12.024-2.546-0.641-5.731 5.093-7.214 6.862-4.315 5.163-8.983 10.043-13.371 15.209-3.75 4.315-6.932 8.842-9.761 13.793-0.982 1.704-1.985 3.75-3.678 4.74 1.564-5.801 5.376-10.964 8.277-16.127 1.764-3.182 3.465-6.367 5.163-9.548 0.702-1.845 1.123-3.68 1.203-5.588 0.502-0.782 0.842-1.624 1.063-2.476 0-1.123-0.421-1.985-1.283-2.689-0.069-1.764 1.063-2.264 1.845-3.607 0.842-1.624 1.343-3.537 2.546-5.093 1.845-2.404 4.458-3.324 6.791-5.163 8.135-6.509 16.623-18.321 18.391-28.86 1.283-7.427 2.404-14.854 3.962-22.282 0.641-3.184 0.361-6.578 1.123-9.621 1.203-4.173 1.123-8.205 2.404-12.45 1.424-4.74 0.562-9.621 1.564-14.359 0.702-2.9 2.546-5.235 3.395-8.135 0.361-2.264 0.982-4.386 1.985-6.509 1.343-2.194 2.546-4.455 3.607-6.791 0.562-2.264 0.069-4.881 0.069-7.145-0.143 7.922 4.032 13.44 6.013 19.382 1.203 3.678 1.985 8.63 4.032 11.955 1.764 2.9 3.112 5.588 3.324 9.265 0.421 6.862 1.564 13.368 6.013 19.028 4.668 6.013 5.801 12.52 7.569 19.664 1.063 4.668 2.546 9.126 4.315 13.581 1.764 4.173 4.032 7.992 4.738 12.52 0.782 5.305 0.702 10.894 1.704 16.199-4.81-1.704-7.782-7.214-10.894-11.034zM517.333 430.096c0-1.764-0.142-3.467-0.22-5.235-0.22-1.704-0.562-3.395-0.782-5.163-0.070-3.112-0.361-6.224-0.842-9.265-1.123-3.75-2.476-7.357-4.102-10.823-2.122-5.305-4.032-10.612-5.518-16.127-0.361-2.546-1.263-4.953-2.759-7.074-1.905-2.334-4.953-3.324-7.004-5.588-1.905-2.051-4.173-4.315-5.731-6.578-0.922-1.905-1.564-3.89-1.905-5.941 0.142-1.704-7.992-2.759-9.761-3.112-4.74-3.607-1.905-7.497-6.083-11.672-3.112-3.112-6.578-5.446-10.539-7.145-2.122-0.842-4.81-1.704-7.074-1.985-3.254 9.408-1.624 21.716-1.564 31.407 0 12.52 0 25.041 0 37.561 0 13.864-0.782 28.083 0.070 42.018-1.063-10.399-3.042-21.15-5.801-31.266-2.122-7.782-5.163-15.137-8.56-22.423-1.985-4.315-5.305-12.663-9.55-16.057-5.163 8.842-5.376 18.604-8.064 28.153-2.972-4.173-4.386-8.913-5.376-13.936-1.484-7.357-3.467-15.987-2.546-23.484-0.641 8.275-3.607 16.057-4.032 24.333-0.361 7.427-0.070 24.97-0.142 22.423-0.502-5.588-1.063-11.247-1.905-16.835-1.123-7.782-2.829-16.623-5.871-23.839-1.484-3.537-4.527-6.862-5.376-10.681-0.502-2.051-0.142-4.386-0.070-6.509 0.070-2.546 0.28-5.233-0.070-7.78-2.407 3.112-4.386 6.791-6.578 10.116-2.051 3.184-3.75 7.357-6.509 9.904-4.597-3.678-9.337-7.427-13.581-11.459-2.9-2.759-5.023-6.509-8.205-8.913-2.546 0.982-9.053 3.042-10.116 5.376-1.123 2.546-2.9 4.245-4.245 6.649-1.343 2.264-0.702 1.624-1.845 4.527-2.334 6.013-8.064 9.973-12.591 14.218-3.75 3.537-7.002 7.357-10.469 11.177-1.343-3.324 2.476-10.043 3.607-12.45 1.484-3.112 2.972-6.719 5.093-9.478 3.324-4.315 5.446-7.004 7.427-12.097 2.829-7.357 7.992-13.44 12.095-20.019 3.678-6.013 4.458-12.45 7.497-18.463 1.343-2.759 3.042-4.81 3.962-7.852 0.982-3.254 1.063-6.791 1.905-10.116 0.922-3.678 3.112-6.509 4.668-9.621 2.617-5.376 4.668-11.389 7.074-17.047 1.484-3.254 3.395-5.731 3.607-9.265 0.421-7.782 2.476-15.562 4.102-23.343 1.905-8.913 0.142-18.038 2.546-26.597 0.922-3.395 2.334-7.145 2.689-10.681 0.070-0.922-0.421-1.845-0.070-2.759 1.063-2.972 5.941-6.649 7.782-9.408 2.829-4.173 5.305-8.488 8.63-12.307 1.764-2.051 3.819-3.75 5.093-6.224 0.702-1.343 2.264-9.126 3.819-9.55 0.782-2.759 1.905-4.455 2.476-6.013 1.484-3.962 1.203-8.488 2.9-12.45-0.142 4.032-0.842 8.913 0.702 12.663 1.704 4.102 3.042 8.347 4.881 12.45 3.68 8.275 5.163 16.695 7.64 25.253 2.9 9.904 8.488 19.239 14.359 27.8 9.833 14.359 13.158 27.304 20.797 43.078 1.845 3.75 3.537 8.842 6.224 12.024 1.424 1.704 3.324 2.404 4.245 4.455 0.28 2.546 0.702 5.023 1.203 7.427 0.562 3.254 1.343 6.509 2.334 9.621 1.564 5.093 4.81 9.337 5.731 14.501 0.842 5.023 1.624 9.973 2.617 14.996 0.641 3.254 0.782 8.064 3.042 10.823 0.361 0.502 1.484 0.842 1.704 1.343 3.537 7.214 11.6 15.987 13.793 23.979 5.588 19.877 8.418 40.461 8.913 61.117 0.28 1.704 0.421 3.467 0.22 5.235zM929.504 670.17c-5.659-0.641-11.955 3.042-16.977-0.562-6.791-4.951-11.672-12.802-15.209-20.16-4.881-10.399-9.055-21.15-13.581-31.689-7.427-17.19-15.987-35.015-22.353-52.699-1.624-5.163-3.324-10.256-5.023-15.422-0.982-3.962-1.905-7.992-2.759-12.024-2.546-5.588-6.932-10.751-10.469-15.915-5.376-7.782-10.043-16.835-16.199-24.121-1.484 1.704-3.324 2.334-5.518 1.845-3.467 0.842-5.588-0.842-6.296-5.093-6.932-10.612-9.196-23.556-13.158-35.51-4.458 2.264-4.81 9.337-7.074 13.864-4.102-9.904-7.497-19.312-13.298-28.365-3.324 2.334-5.305 5.518-5.871 9.621-1.985 5.801-4.527 11.389-7.497 16.765-5.941-3.254-8.63-8.842-7.922-16.623-0.982-3.112-1.484-6.224-1.564-9.408-0.421-1.985-0.702-8.135-3.819-7.074-0.502 2.9-0.982 5.731-1.484 8.63-2.759-14.644-2.902-29.497-5.093-44.211-1.203-8.064-4.102-24.121-12.307-29.285-1.484 5.659-2.617 11.317-3.89 17.047-3.962-15.915-3.962-32.327-4.951-48.667-1.764-2.264-2.9-5.093-3.75-8.135-7.64-4.102-12.38-14.076-9.621-22.353 1.063-3.112 2.122-6.226 3.184-9.337-2.902-10.256-6.862-20.019-12.38-29.709-0.421-0.361-0.922-0.782-1.343-1.123-1.123 7.852-3.465 15.845-6.437 23.909-2.051 5.518-5.446 9.126-9.337 11.317 0.143 7.357 0.28 14.854-0.702 21.716-2.546-3.819-4.386-7.497-5.941-11.812-0.641-1.704-0.842-3.184-2.404-4.245-1.484 4.455-1.624 9.055-0.502 13.864-0.069 8.7-0.502 17.331-1.424 25.96-0.782 7.214-1.263 14.431-1.484 21.645 0.361 3.042 0.502 6.083 0.421 9.196 0.069 4.245-1.283 8.277-4.032 12.024-6.791 17.968-13.51 35.934-20.23 53.972-3.395 10.256-6.649 20.372-8.277 31.124-1.624-1.424-2.476-3.324-2.546-5.801-1.845-4.245-3.75-8.488-5.659-12.663-5.446-12.591-9.478-25.607-15.917-37.773-4.881-7.569-9.833-15.067-14.783-22.636-4.458-6.296-8.418-12.945-11.742-19.947-2.194-3.89-2.546-7.569-5.023-4.386-3.395-4.102-5.871-8.7-9.337-12.663-2.617 2.972-5.305-3.75-5.801-4.81-2.122-4.74-3.324-9.408-3.112-14.572-2.829 8.772-6.296 17.331-9.265 26.102-2.546 7.71-4.102 15.632-6.367 23.414-3.467-6.932-4.386-14.006-4.668-21.575-0.142-4.032-0.28-5.588-2.404-8.913-2.972-4.668-5.023-10.539-6.296-16.057-0.922-3.962 0.361-8.205-0.702-12.024-0.502-1.764-1.985-3.75-2.829-5.446-4.245-9.337-6.862-19.169-12.024-28.153-2.122 1.985-3.324 5.376-4.81 7.782-2.546 3.89-5.376 7.497-8.488 10.894-0.842-7.497-2.404-15.137-3.75-22.282-0.641-3.819-1.484-7.497-2.689-11.177-1.203-1.424-1.985-3.112-2.334-4.953-1.063-4.173-1.343-8.418-2.617-12.45-0.702-2.194-0.982-5.941-3.819-5.305-2.972-7.569-3.89-15.279-5.731-23.131-0.421-1.845-1.123-7.074-4.173-4.74-4.032-6.083-2.334-17.118-2.264-24.192 0-5.588 2.617-17.188-1.283-21.433-2.122 2.546-4.81 4.315-7.922 5.376-2.617-4.597-2.476-9.053-3.324-14.218-0.361-2.051-0.28-4.455-1.764-2.546-0.562-6.154-0.842-12.237-1.764-18.391-0.842-5.376-2.194-10.681-2.476-16.127-2.829-0.641-6.719 25.748-7.145 28.224-5.023-6.013-6.224-15.491-7.992-22.989 0-0.28-0.070-0.641-0.142-0.922 0.641-12.237 2.049-24.546 2.402-36.783 0.22-4.81 0.28-9.55 0.142-14.359l0.562-5.233c0.142-2.689-1.203-4.597-4.032-5.731-6.013-5.446-11.885-11.034-17.683-16.765-6.154-6.791-10.751-10.894-10.964-19.099-0.070-1.203 0.142-2.404 0.142-3.607 0-5.093-1.063-9.973-1.343-15.067-6.154 5.305-7.64 14.783-11.6 21.645-0.641 1.063-1.283 1.123-1.484 2.334-0.421 1.764 0.982 4.173 1.203 6.083 0.142 1.484 0 3.042-0.28 4.527-0.922 1.424-1.564 3.042-1.764 4.74-1.424 4.74-2.476 9.478-3.182 14.359-1.845 7.64-3.182 16.695-7.992 23.131-1.283 1.704-3.042 3.112-3.89 5.093-1.624 3.819-1.263 10.043-1.845 14.006-0.641 3.819-1.343 7.427-3.112 10.894-1.845 3.75-4.597 7.074-6.791 10.612-0.361 1.764-1.283 3.042-2.689 3.89-0.421 0.421-0.922 0.562-1.484 0.421-2.264 2.9-3.607 5.871-5.941 8.842-6.296 8.135-11.319 17.755-16.057 26.95-2.476 4.386-4.527 8.913-6.224 13.653-0.361 1.624-1.063 3.112-2.194 4.386-2.264-0.641-1.845-3.184-2.9-5.023-0.562 11.177-0.070 22.353-0.142 33.529-0.070 3.112 0.562 11.812-2.759 14.644-0.982 0-1.905-0.361-2.689-0.982-3.678 7.569-1.564 15.774-2.829 23.767-0.421 2.334-0.421 5.446-1.564 7.569-1.905 0.142-3.75 0-5.588-0.28-2.404 1.424-3.537 3.467-3.537 6.296-3.042 11.177-4.527 22.636-7.145 33.883-3.324 14.146-5.023 29.002-9.621 42.795-3.75-4.315-5.801-9.337-10.751-12.167-2.334 6.367-4.102 12.945-6.578 19.312-0.361 1.063-1.263 5.023-2.617 5.659-0.922-0.641-1.564-1.624-1.985-2.617-1.343 5.446-1.343 11.177-2.334 16.765-0.641 3.112-1.343 6.083-1.424 9.265-0.070 5.941-1.263 13.015 2.334 18.178-0.982 0.070-1.905 0-2.9-0.142-4.458 10.539-7.357 22.494-13.864 32.114-6.719 9.833-11.459 20.513-15.845 31.619-5.588-2.122-9.833-9.126-13.653-13.581-5.163-6.083-10.256-12.307-15.917-17.968-0.421 1.343 0.28 2.404 0 3.75-2.617-4.74-3.89-12.663-7.78-16.269-0.502 3.467-0.562 6.932-0.142 10.399 0.142 13.581 0.070 27.163-0.28 40.744-0.361 7.214-0.142 10.964-2.051 16.835-2.051 6.367-3.467 13.158-5.163 19.736-3.112 12.52-7.71 24.757-9.973 37.491-2.264-0.922-4.102-2.9-6.437-3.678-1.845 9.055-4.527 17.896-7.145 26.738-1.764 5.729-3.324 15.491-7.357 20.372-2.122 2.689-2.194 2.476-5.731 2.404-1.624 0-4.315-0.782-5.871-0.28-2.689 0.842-2.617 2.759-3.537 5.588-1.123 3.678-3.324 7.427-2.972 11.459-6.154 0.361-12.237 0.143-18.391-0.702-3.607-0.782-7.074-0.641-10.469 0.502-3.324 1.985-3.819 6.578-6.862 8.63-3.75 2.476-3.962 1.905-5.941 8.205-1.624 5.941-2.9 11.955-3.75 17.968 1.123 3.465 0.562 5.801-1.845 6.862-1.905-4.173-2.829-2.404-4.881 1.203-4.74 8.205-8.63 16.977-12.38 25.677-3.537 8.064-10.186 18.674-8.064 27.8l15.491-12.875c-4.386 4.173-8.77 8.275-13.371 12.167-3.89 3.254-3.678 8.7-8.277 11.529 0.421 4.881 4.668 9.337 8.7 11.885 2.9 1.764 3.467 2.546 5.446 5.376 1.845 2.689 4.245 5.093 6.296 7.499 1.283 1.484 2.689 2.546 4.102 3.537 0.421 2.334 1.063 4.668 2.051 6.932 1.484 3.254 1.343 3.467 5.023 4.386 6.083 1.564 12.024 3.184 17.826 5.376 0.361 4.386-5.023 8.7-3.962 12.802 0.28 1.203 3.537 4.245 4.245 4.951 7.427 8.275 18.109 12.237 26.667 19.099 1.764 2.546 3.678 5.023 5.659 7.214 6.862 7.286 18.038 14.288 26.527 19.169 5.235 2.972 7.78 3.537 12.024 3.537 0.361 0.421 0.842 0.782 1.203 1.263-0.28 1.624-0.142 3.324 0.361 4.951 1.263 5.376 5.518 4.245 10.116 5.163 2.194 0.502 4.386 1.203 6.509 2.051 3.324 0.982 6.649 1.764 10.043 2.334 3.537 2.546 7.002 5.235 10.399 7.922 4.102 2.264 7.64 5.163 10.612 8.7 3.467 3.819 7.852 3.962 12.024 6.509 5.659 3.537 10.469 9.055 15.279 13.581 4.173 4.173 8.56 8.064 13.298 11.602 2.334 3.254 5.233 5.023 8.842 5.376 0.702-2.264 1.564-1.343 3.678-2.264 2.9-1.123 5.588-3.819 6.509-6.719 2.617 0.982 2.759 5.093 4.032 7.145 0.361 0.641 1.343 0.702 1.624 1.343 0.782 1.764-0.361 5.023 0.641 6.437 1.203 1.704 7.074 1.484 8.488 1.624 5.023 0.421 9.973 1.283 14.854 2.546 1.484 0.782 2.972 1.624 4.455 2.404 1.424 2.617-0.782 7.145 3.819 7.214 0.22 0.782 0.361 1.484 0.502 2.192 1.704 0.562 3.254 0 4.951 0.421l1.063 1.063c2.759 1.624 5.731 2.404 8.913 2.476 2.334-0.502 4.102 0 5.376 1.624 0.22 0.922 0.702 1.283 1.484 1.203 3.678 1.123 3.75-0.502 6.791 2.689 3.112 3.182 5.731 2.759 9.265 5.023 3.184 2.051 5.871 5.023 9.337 6.791 0.28 0.421 0.562 0.922 0.842 1.424 0.842 0.421 1.704 0.502 2.617 0.143 2.617 0.421 3.182 0 5.446 1.484 5.588 3.678 8.842 5.518 15.845 5.235 1.845-0.069 4.173-0.421 6.013-0.143 3.467 0.421 5.659 3.467 9.055 3.819 3.184 0.28 4.597-2.051 7.427-0.28 1.343 2.404 3.395 3.89 6.154 4.527 1.484-0.069 2.972-0.143 4.458-0.22 1.484-1.343 3.182-1.564 5.023-0.641 5.093 2.829 10.043 5.801 14.854 9.055 1.424 0.641 2.759 1.283 4.173 1.905 3.042-1.424 5.731-3.395 8.135-5.801 6.013-4.597 7.074-5.446 13.581-2.689 3.89 1.624 7.78 3.254 11.742 4.81 5.801 1.704 11.6 1.424 17.26-0.922 7.002-1.764 9.691-3.042 16.41-2.9 0.842 0 1.845 0.068 2.829 0.143 3.467 2.829 7.357 4.951 11.742 6.224 9.691 3.75 20.16 1.123 30.346 3.89 4.951 1.283 8.7 3.962 13.228 5.588 3.537 0.982 7.002 0.421 10.539-1.764 9.833-4.386 19.241-9.478 28.295-15.422 15.067-8.842 29.78-18.463 43.998-28.719 15.704-11.459 31.336-22.919 46.969-34.448 2.617-0.842 5.235-1.624 7.852-2.404 4.245 1.283 8.56 1.905 13.015 1.905 13.936-2.264 26.314-16.765 35.863-25.112 4.951-4.315 9.973-8.7 14.926-13.086 4.032-4.74 5.659-5.376 4.951-1.985 5.588-6.726 10.469-13.869 14.644-21.509 6.862-11.529 14.854-22.070 24.121-31.619 11.602-12.945 24.334-24.829 37.914-35.581 7.64-6.013 14.783-11.177 21.080-18.674 6.862-7.992 12.307-17.896 17.542-27.092 5.164-9.196 6.367-18.533 6.225-28.86-0.143-10.328 1.416-20.655 2.546-30.841 0.143-1.905 0.778-4.245 0.355-6.154z"></path>
    </svg>