<svg xmlns="http://www.w3.org/2000/svg" viewBox="20.765 15.803 1069.500 1088.264">
    <path fill="#000000" d="M386.079 158.645c2.835 0 5.59-0.205 8.426 0.102 7.787 1.037 15.372 2.998 23.198 4.035 5.15 0.719 10.222 1.12 15.412 1.644 7.106 0.719 13.775 1.993 20.642 3.634 6.989 1.644 14.014 2.68 21.122 3.718 18.926 2.721 38.051 4.477 57.017 7.065 12.337 1.674 24.715 2.917 37.013 4.59 8.624 1.15 17.289 1.644 25.913 2.516 5.030 0.514 10.063 0.924 15.052 1.644 0.319 0.036 5.191 0.411 5.989 0.719 1.119 0.411 1.836 1.52 2.076 2.557 0.4 1.52-0.36 2.987-0.637 4.427-0.4 1.95-0.164 4.077-0.164 6.027v12.497c0 1.993-0.596 4.631-0.040 6.541 0.277 1.078 1.238 1.757 0.4 2.721-0.719 0.821-3.473 1.437-4.591 2.074-3.035 1.757-6.788 2.598-10.102 3.995-2.276 1.026-4.751 1.037-7.106 1.88-3.074 1.078-5.949 2.721-8.584 4.354-5.471 3.429-11.3 6.428-17.049 9.468-1.955 1.026-4.032 2.033-5.909 3.194-2.555 1.602-4.231 3.594-6.309 5.587-1.716 1.602-3.553 2.987-5.309 4.549-1.398 1.201-2.516 2.793-4.193 3.718-1.596 0.924-3.593 1.837-5.35 2.28-1.119 0.309-2.197 0.411-3.315 0.924-1.518 0.719-2.156 1.16-3.914 1.479-1.557 0.309-2.675 0.719-4.073 1.397-1.557 0.719-3.035 1.078-4.432 1.921-1.358 0.821-3.513 3.234-5.389 3.070-0.040 0-0.637-0.719-0.801-0.719-1.955-0.821-3.555-0.924-5.749-1.243-10.781-1.273-20.562-5.945-31.264-7.588-4.952-0.719-10.063-1.026-15.013-1.797-5.549-0.924-10.9-2.557-16.371-3.83-3.111-0.719-6.107-1.56-9.142-2.474-5.351-1.56-10.66-2.433-16.171-3.398-12.737-2.197-24.956-6.346-37.572-8.984-6.467-1.397-12.976-2.516-19.445-4.035-4.193-1.037-8.225-1.921-12.537-2.68-12.337-2.074-24.914-2.834-37.212-5.073-3.354-0.616-6.706-1.233-10.102-1.757-1.239-0.205-3.873-0.205-4.751-1.15-0.277-0.309 0-0.719-0.080-1.037-0.801-2.351-0.596-5.515-0.76-7.948-0.441-8.101-0.039-16.25-0.039-24.358 0-3.758-0.883-8.388 0.596-11.978 0.841-2.033 1.278-1.644 3.873-1.993 4.272-0.616 8.265-2.957 12.178-4.354 7.147-2.598 13.935-5.864 21.201-8.265 7.227-2.433 13.775-5.904 21.56-7.065 3.992-0.616 8.265-1.313 21.801-2.557z"></path>
    <path fill="#000000" d="M233.951 244.208c14.413 1.16 28.669 3.398 43.081 4.631 25.672 2.197 51.228 5.308 76.063 11.298 7.426 1.797 14.813 3.676 22.319 5.186 5.231 1.078 10.301 2.238 15.453 3.594 3.873 1.026 7.707 2.156 11.698 2.68 10.741 1.356 21.881 1.961 32.46 3.913 3.114 0.616 6.149 0.924 9.184 1.52 1.358 0.205 2.755-0.072 4.152 0.205 0.596 0.102 1.038 0.411 1.676 0.514 0.883 0.102 2.675-0.514 3.114 0.411 0.319 0.514-0.677 1.921-0.801 2.516-0.677 3.594 0.040 7.824 0.040 11.419 0 3.83-0.883 8.348 0.996 11.861 1.038 1.921 1.078 3.913-0.996 5.391-1.038 0.719-1.916 1.273-3.035 1.88-5.15 2.793-9.304 7.065-13.615 10.661-1.637 1.356-2.915 2.917-4.712 4.148-3.473 2.433-6.788 4.794-9.983 7.464-6.989 5.874-14.574 11.461-22.319 16.61-2.396 1.602-4.712 3.276-7.068 4.908-1.955 1.356-4.271 3.676-6.588 4.549-2.396 0.924-4.314-0.514-6.588-1.356-5.549-1.993-11.059-3.718-17.010-4.754-6.987-1.16-13.536-2.033-20.282-4.035-7.586-2.197-14.973-3.317-22.919-4.23-9.901-1.12-19.205-4.035-29.028-5.268-5.35-0.719-10.581-0.309-15.93-0.309-7.707 0.073-14.694-0.719-22.279-1.837-6.947-1.026-13.815-2.474-20.843-3.234-2.755-0.309-5.59-0.411-8.305-0.924-1.398-0.205-2.556-0.036-3.035-1.273-0.524-1.437 0.237-3.881 0.164-5.391-0.164-3.154-0.719-6.234-0.841-9.385-0.039-2.71-0.637-5.195-1.558-7.784-0.883-2.393-1.836-4.794-2.594-7.187-0.319-1.12-0.883-2.156-1.197-3.234-0.237-0.719 0.123-1.921-0.841-2.31 2.236 2.71 3.195 6.387 4.073 9.662 1.038 3.995 1.955 8.431 2.156 12.499 0.123 3.081 0.76 5.914 0.76 9.026 0 1.921 0.913 5.668-0.123 7.147-2.556-0.924-4.871-1.644-7.586-2.197-5.631-1.12-10.581-3.194-15.93-4.837-6.508-1.993-13.335-3.317-19.844-5.227-2.675-0.719-5.51-0.821-8.185-1.397-0.719-0.102-1.239-0.514-1.955-0.616-0.484-0.073-1.836 0.309-2.236-0.073-0.996-0.924 0.913-4.067 1.119-4.908 1.078-3.594 1.955-7.352 2.516-11.063 0.554-3.511-0.164-6.747-0.637-10.217-0.237-1.95-0.677-3.913-0.996-5.874-0.319-2.074-0.164-4.59-0.76-6.623-0.277-1.026-1.317-2.321-0.36-3.317 0.801-0.924 3.315-0.514 4.391-0.719 2.715-0.411 5.43-1.479 7.865-2.433 3.354-1.356 6.668-2.753 9.862-4.354 2.994-1.479 5.43-3.398 8.147-5.155 3.354-2.238 6.868-2.834 10.462-4.59 1.955-0.924 3.674-2.31 5.51-3.398 8.026-4.826 16.929-8.861 23.717-14.175z"></path>
    <path fill="#000000" d="M350.714 422.43h-0.039c0.123-1.19 0.237-2.351 0.319-3.553 0-0.309 0-0.616 0-0.821 0-2.998-0.554-6.274 0-9.108 0.719 0.205 1.197 0.924 1.836 1.233-0.277-3.471-1.596-6.941-2.117-10.417-0.554-3.748-1.518-7.464-1.836-11.223-0.196-2.074 0.4-4.314 0.080-6.346-0.319-1.88-1.158-3.634-1.518-5.474l0.677-0.102c-0.237 0-0.441 0.036-0.677 0.036-0.039-0.205-0.164-0.411-0.164-0.616-3.513-0.719-9.023-0.205-12.418-0.102-4.193 0.102-8.545 0.616-12.696 1.16-0.524 0.073-1.078 0.102-1.596 0.205-6.588 0.205-13.057 1.037-19.644 1.283-12.217 0.411-24.715-0.924-36.854 0.411-11.938 1.243-23.836 0.924-35.855 0.924h-53.942c-9.424 0-19.524 0.719-28.789-0.821-2.555-0.411-5.191-0.924-7.745-1.201-0.883-0.075-1.478 0.035-2.355-0.102-0.596-0.075-0.883-0.411-1.716-0.514-0.801-0.075-1.478 0-2.236-0.102-0.956-0.102-0.277-1.026-1.758-0.411-1.997 0.719-3.114 4.395-3.992 5.75-3.555 5.474-7.028 11.019-10.42 16.529-0.841 1.397-2.076 2.598-2.954 3.871-0.913 1.397-1.317 2.998-2.236 4.437-2.197 3.398-4.952 6.428-6.748 9.981-0.637 1.243-1.558 2.516-2.556 3.553 0.524 0.411 1.596 0.514 2.715 0.616 0.319-0.719 0.841-1.52 1.758-2.116l1.797-0.309c-0.123 0.102-0.277 0.309-0.441 0.411-0.913 0.616-2.117 0.924-2.715 1.837 0.596 0.102 1.398 0.102 2.156 0.102-0.801 0.036-1.676 0.075-2.556 0.075-0.677 1.674-0.277 3.676 0.123 5.474 0.36 1.757 0.237 3.357 0.841 5.155 1.078 3.154 2.197 6.264 3.555 9.345 0.719 1.644 1.836 3.194 2.474 4.837 0.237 0.616 0.196 1.479 0.484 2.116 0.913 1.757 1.836 1.12 3.752 0.719 6.029-1.201 12.418-1.16 18.567-1.644 6.668-0.514 13.216-1.757 19.884-2.31 6.827-0.514 13.695-1.437 20.523-2.116 9.703-1.026 18.966-1.356 28.747-1.356 17.847 0.035 35.735 0 53.622 0 15.691 0 31.343 0 47.034 0 7.028 0 14.056-0.102 21.042 0 6.068 0.102 11.698 1.037 17.688 1.88 3.473 0.514 7.426 1.313 10.94 0.719 0.36-0.821 0.196-1.993 0.039-2.834-0.36-1.797-0.554-2.557-0.164-4.437 0.677-3.194 1.078-6.541 1.637-9.775 0.237-1.52 0.319-2.875 0.596-4.314-0.4-0.102-0.801-0.309-1.239-0.309-1.038-0.036-1.916 0.073-2.915-0.102z"></path>
    <path fill="#000000" d="M414.116 463.055c-1.637-0.102-3.313 0.205-4.952 0.411-7.427 0.821-14.772 1.837-22.199 2.875-18.686 2.721-37.652 4.95-56.537 6.747-10.82 1.037-21.602 2.393-32.46 3.194-6.827 0.514-13.615 0.821-20.403 1.56-9.542 1.078-19.125 1.602-28.669 2.63-8.385 0.924-16.569 1.797-24.875 2.875-6.309 0.821-12.457 1.602-18.765 2.156-0.164 1.644-0.76 3.234-0.913 4.867-0.164 1.921-0.237 4.271-0.76 6.111-0.4 1.479-0.801 2.474-0.801 4.067 0.039 1.078 0 2.156 0 3.234 0 2.31 0.4 4.95-0.164 7.228-0.36 1.437-1.238 2.957-0.484 4.477 0.956 1.95 4.112 2.917 6.068 3.995 4.152 2.351 7.825 5.155 12.019 7.424 2.475 1.356 5.111 2.639 7.346 4.23 2.117 1.52 3.834 3.357 6.029 4.837 3.274 2.197 6.349 3.913 9.423 6.346 2.436 1.921 5.389 3.718 8.185 5.186 1.997 1.037 3.632 1.797 5.51 3.11 1.478 1.037 4.073 1.921 5.351 3.194 0.237 0.205 0.524 1.037 0.801 1.16 1.278 0.719 3.952-0.411 5.191-0.514 4.391-0.514 8.705-0.411 13.096-0.719 17.249-1.026 34.377-4.067 51.546-5.874 4.751-0.514 9.542-0.821 14.095-2.044 3.913-1.026 7.387-2.074 11.419-2.63 3.555-0.514 7.106-0.719 10.621-1.243 5.71-0.719 11.339-1.993 17.13-2.598 11.3-1.201 22.559-2.998 33.819-4.631 5.51-0.821 11.3-0.821 16.689-2.116 2.795-0.719 5.231-1.356 8.104-1.757 2.594-0.411 5.989-0.073 8.504-0.821 1.398-0.411 2.916-0.821 4.473-1.243 1.637-0.411 1.836-0.924 2.955-1.757 2.156-1.56 5.030-3.11 7.345-4.549 0.164-0.073 0.524-0.616 0.801-0.719 1.038-0.411 2.675-0.514 3.834-0.821 1.758-0.514 3.315-0.309 3.992-1.714 0.484-1.026-0.080-4.59-0.080-5.391-0.040-2.116-0.040-4.2 0.164-6.274 0.277-2.957 1.518-5.904 1.437-8.821-0.080-1.993 0.996-3.511 1.398-5.474 0.196-1.078 0.164-2.116 0.164-3.234 0.040-1.837-0.237-2.074-2.475-2.474-0.996-0.102-1.716-0.073-2.675-0.102-3.713-0.102-7.106-1.037-10.741-1.674-5.111-0.821-10.182-2.351-14.893-4.271-4.473-1.797-8.704-4.035-13.176-5.792-1.477-0.616-3.074-0.924-4.553-1.55-2.236-0.924-4.152-2.361-6.467-3.234-2.076-0.719-4.353-1.16-6.428-1.921-1.478-0.514-2.595-1.397-4.032-1.993-1.597-0.719-4.233-0.821 0-3.913z"></path>
    <path fill="#000000" d="M546.288 541.185c1.278-0.036 1.877 0.205 3.035 0.514 2.795 0.616 6.11 0.309 9.023 0.616 6.428 0.821 13.096 2.116 19.605 2.197 2.675 0.035 5.030 0.102 7.666 0.514 1.078 0.102 2.197 0 3.274 0.309 1.518 0.411 1.278 0.821 1.558 1.837 0.4 1.56 0.637 3.317 0.883 4.95 0.677 4.507 0.719 8.903 0.719 13.453 0 2.156 0.277 4.477-0.040 6.634-0.36 2.156-1.278 4.271-1.716 6.511-0.956 4.794-2.715 9.785-4.473 14.413-1.119 2.875-2.715 5.391-3.513 8.388-0.883 3.398-1.119 6.828-1.916 10.258-1.119 4.631-1.917 9.468-2.556 14.175-0.76 5.832-3.834 11.179-4.751 16.887-0.237 1.644-0.484 3.357-0.956 4.908-0.596 2.033-0.596 3.871-0.596 6.027 0 2.361 0 4.754 0 7.147 0 1.837-0.4 2.793-1.676 4.19-0.677 0.719-1.955 2.238-3.035 2.71-0.956 0.411-2.315 0.411-3.473 0.616-4.352 0.924-8.864 1.12-13.335 1.674-8.026 0.924-15.972 1.397-24.077 1.797-6.11 0.309-12.298 0.821-18.447 0.924-2.954 0-5.59-0.411-8.504-0.821-2.396-0.411-4.751-0.821-7.106-1.19-4.712-0.719-9.542-0.514-14.215-1.283-12.657-2.074-25.672-1.313-38.531-1.313h-7.946c-1.557 0-4.032 0.411-5.471-0.102-0.36-1.602-0.080-3.429-0.080-5.073v-11.058c0-3.511-0.040-7.065 0-10.621 0.040-1.88-1.238-3.070 0-4.714s3.713-1.921 5.030-3.634c0.637-0.821 0.637-1.479 1.398-2.361 1.238-1.437 2.595-2.753 3.632-4.354 2.835-4.19 5.909-8.348 8.865-12.499 3.834-5.308 7.547-10.86 11.62-16.092 4.391-5.627 8.026-11.74 12.937-17.051 5.31-5.75 10.781-11.298 15.532-17.325 3.114-3.913 7.666-7.024 10.501-11.058 1.836-2.639 3.752-5.35 6.188-7.671 3.354-3.234 6.629-5.904 12.058-5.904 6.548 0.035 12.976 0 19.524 0.514 5.749 0.514 11.578-0.411 17.249 0.924 0 0.205 0.040 0.411-3.873 1.201z"></path>
    <path fill="#000000" d="M627.514 593.78c0.196 0.036 0.441 0.036 0.637 0.075 0.484 0.924 0.554 2.834 0.677 3.718 0.484 2.875 1.317 5.71 1.676 8.584 0.319 2.238 0.996 6.234 0 8.502-0.524 1.19-1.437 1.16-0.441 2.639 0.164 0.205 0.554 0.411 0.719 0.719 1.676 2.197 2.675 4.395 4.033 6.747 3.752 6.705 11.179 11.103 16.569 16.733 3.354 3.511 7.627 6.151 10.66 9.94 2.516 3.11 4.512 6.428 7.227 9.426 3.675 4.158 7.388 8.185 10.781 12.497 2.755 3.471 6.309 5.545 9.743 8.502 2.475 2.116 4.073 4.794 6.269 7.105 2.795 2.917 5.71 5.391 8.026 8.667 0.883 1.283 1.239 3.429 2.994 4.035 0.677 0.205 1.917-0.073 2.675-0.073 1.478 0.035 2.594 0.411 4.073 0.719 2.755 0.616 5.271 1.356 8.105 1.313 10.54-0.036 21.083 0 31.623 0h31.782c3.074 0 6.188 0 9.262 0.035 1.558 0 3.354 0.102 4.832-0.309 2.197-0.719 3.513-1.714 6.028-2.156 2.755-0.514 8.983-1.243 10.462-3.83 0.996-1.714-0.277-5.031-0.554-6.705-0.841-4.467 0-8.861-1.196-13.373-0.801-3.040-0.554-6.068-0.554-9.149 0-1.397 0.441-3.234 0.040-4.59-0.719-2.433-5.030-3.953-7.186-5.155-3.354-1.837-6.349-3.913-9.622-5.864-2.117-1.078-4.193-2.238-6.149-3.511-1.916-1.602-3.752-3.234-5.51-4.95-4.193-3.398-9.583-5.904-14.056-9.138-2.235-1.602-4.314-3.357-6.588-4.908-2.156-1.479-4.632-2.557-6.908-3.871-2.475-1.479-4.67-3.194-7.106-4.671-2.315-1.397-4.713-2.598-6.748-4.271-3.555-2.834-7.627-4.95-11.22-7.701-4.832-3.676-9.622-7.784-15.013-10.9-1.955-1.16-3.794-2.393-5.71-3.594-1.317-0.821-3.155-2.474-4.712-2.998-1.597-0.514-4.233-0.102-5.87 0.035-7.027 0.616-13.935 1.757-20.962 2.351-2.835 0.205-5.59 0-8.464 0.073-3.434 0.102-7.068 0.616-10.502 0.924-5.231 0.514-10.42 0.514-15.691 0.514-7.627 0-15.252 0-18.127-1.961z"></path>
    <path fill="#000000" d="M796.383 621.852c0.080 5.545-1.238 11.298-1.997 16.808-0.237 1.479-1.238 3.553 0.36 4.437 0.677 0.411 1.878 0.616 2.555 0.924 1.358 0.514 2.396 1.037 3.632 1.757 4.193 2.393 8.823 3.758 13.456 5.474 4.67 1.714 9.423 3.11 14.094 4.794 7.268 2.67 14.773 4.427 22.359 6.387 13.735 3.553 27.511 6.274 40.846 10.741 6.75 2.28 13.695 3.758 20.843 4.754 5.87 0.821 11.659 1.961 17.448 3.081 5.43 1.037 11.62 2.197 16.092 5.073 0.441-2.351 2.915-4.826 4.512-6.747 3.555-4.354 8.584-7.507 14.533-9.221 4.152-1.201 8.225-1.961 12.457-2.834 3.752-0.821 7.227-2.116 10.781-3.398 4.512-1.644 9.142-2.957 13.656-4.549 1.836-0.616 5.549-1.313 6.467-2.875 0.554-0.924-0.080-2.474 0.196-3.511 0.484-1.757 0.719-3.471 0.996-5.308 0.524-3.317 0.4-6.634 0.4-9.981 0.040-2.68 0.196-5.35-0.76-7.948-0.76-2.156-1.278-4.395-2.117-6.511-0.36-0.924-0.841-2.639-1.758-3.357-1.196-0.924-3.194-0.616-4.67-0.616-3.873-0.205-7.825-0.616-11.659-1.026-10.022-1.037-19.923-2.753-29.946-3.83-16.211-1.757-32.262-4.395-48.153-7.629-6.309-1.273-12.378-2.31-18.766-3.276-3.035-0.514-5.549-1.313-8.705-1.313-3.873 0-7.547-1.201-11.38-1.356-3.675-0.102-7.106 0.514-10.581 1.356-1.437 0.411-2.994 1.026-4.512 1.19-1.358 0.205-2.795 0.035-4.112 0.205-3.354 0.514-6.588 1.88-9.901 2.557-4.952 1.026-9.185 1.993-13.536 4.271-4.391 2.28-8.265 5.227-12.778 7.341-2.516 1.201-5.43 2.001-8.146 2.753-1.797 0.514-4.391 1.026-12.217 1.356z"></path>
    <path fill="#000000" d="M797.554 129.071c0.319-1.56 0.637-4.035 0.319-5.627-0.637-2.834-4.473-2.721-6.989-3.154-11.339-1.95-23.237-2.753-34.657-4.794-7.466-1.356-14.973-2.31-22.52-3.11-11.779-1.273-23.318-3.913-35.097-5.186-8.104-0.924-15.891-2.957-23.918-4.035-7.346-1.026-14.254-2.156-21.482-3.676-5.071-1.078-10.301-1.273-15.411-2.28-2.555-0.514-4.952-1.16-7.547-1.201-8.066-0.205-16.33 2.361-24.275 3.511-6.349 0.924-13.096 1.243-19.404 2.516-3.674 0.719-7.028 2.393-10.66 3.234-7.745 1.757-15.811 2.156-23.637 3.634-6.788 1.243-13.576 2.238-20.364 3.429-3.313 0.616-7.346 0.719-10.301 1.95-1.637 0.616-4.992 2.238-5.71 4.077-0.484 1.233 0.596 2.474 0.841 3.634 0.524 2.598 0.277 5.227 0.237 7.865 0 3.953 0.524 7.701-0.996 11.339-0.76 1.921-0.956 4.314-1.997 6.068 1.676 0.411 3.555 0.073 5.351 0.411 3.752 0.616 7.507 1.243 11.22 2.074 7.865 1.757 15.93 2.721 23.837 4.518 6.588 1.479 12.778 3.83 19.365 4.785 2.755 0.821 5.549 1.437 8.384 1.88 2.197 0.073 4.391 0.205 6.548 0.514 1.797 0.309 3.593 0.514 5.389 0.719 4.432 0.924 8.823 1.95 13.137 3.276 15.252 4.671 31.104 6.111 46.915 7.743 2.835 0.821 5.389 2.074 8.146 3.070 5.111 1.88 10.462 2.639 15.732 3.953 6.508 1.602 13.775 3.357 20.483 3.79l-24.316-8.707c5.191 0.411 10.342 0.719 15.691 0.719 2.915 0 5.949-0.309 8.823 0.205 2.955 0.514 5.389 1.837 8.385 2.033 2.475 0.205 4.791 0.411 7.227 0.924 2.555 0.514 5.71 2.156 8.225 2.351 3.035 0.309 3.834-1.674 6.467-3.276 2.315-1.356 4.91-1.993 7.306-3.276 3.354-1.837 7.268-2.793 10.381-4.631 3.713-2.197 8.225-3.154 12.378-4.549 8.504-2.917 17.408-6.191 26.354-7.824 2.436-0.411 4.314-0.514 6.668-1.356 0.277-0.102 1.716 0.309 2.117-0.102 0.677-0.821 0.164-3.398 0.164-4.354-0.040-3.718-0.277-7.547-0.080-11.223 0.196-4.107 2.396-7.824 3.274-11.776z"></path>
    <path fill="#000000" d="M564.961 681.626c1.955-0.309 3.354-1.16 5.471-1.201 2.396 0 4.391-0.411 6.788-0.821 6.75-1.12 14.055-0.205 20.922-0.205h36.374c2.835 0 8.864-1.16 11.299 0.102 1.758 0.924 1.797 3.83 2.637 5.515 1.596 3.11 4.432 5.474 6.628 8.185 3.594 4.549 6.788 8.584 11.059 12.577 2.235 2.116 4.592 4.035 6.827 6.223 3.074 3.040 6.748 8.461 7.346 13.057 0.441 3.511 1.317 6.191 1.119 10.104-0.164 2.917-1.157 5.627-1.238 8.625-0.040 2.033 0.554 4.908 0.123 6.911-0.524 2.116-0.596 1.674-2.915 1.714-3.513 0.102-7.068-0.102-10.621-0.036-6.947 0.205-13.936 1.12-20.801 1.797-6.707 0.616-13.255 0.514-20.003 0.514-6.309 0-12.457 1.026-18.686 1.837-7.186 0.924-14.454 0.514-21.68 0.514-11.62 0-25.433-0.514-35.496 5.668-3.114 1.921-5.071 3.718-8.864 1.243-3.593-2.28-4.193-8.789-4.832-12.657-0.719-4.671-1.119-8.903-1.119-13.658-0.040-6.623 3.555-13.333 6.269-19.322 3.513-7.752 6.028-15.095 12.058-21.281 2.915-3.040 4.432-6.027 6.788-9.426 0.841-1.19 3.155-4.549 4.553-5.904z"></path>
    <path fill="#000000" d="M521.593 755.807c0 3.070 0 6.151-0.040 9.181 0 3.081 0.956 5.114 1.197 7.948 0.164 1.757-0.484 4.067-0.080 5.75 0.596 2.474 1.797 3.634 1.238 6.87-0.441 2.639-0.956 2.917-3.434 3.398-2.355 0.411-4.91 0.514-7.307 0.924-3.834 0.719-7.387 1.757-11.1 2.875-4.553 1.356-9.304 1.397-13.815 2.63-4.992 1.356-9.622 3.634-14.653 4.671-4.553 0.924-9.184 1.797-13.735 2.516s-9.423 1.837-13.536 3.676c-5.829 2.639-11.26 5.874-17.289 8.071-3.794 1.397-7.786 4.23-11.379 0.514-0.841-0.821-0.956-1.797-1.797-2.598-1.358-1.283-3.155-1.757-4.712-2.793-4.791-3.234-9.304-6.346-14.613-8.984-4.553-2.28-9.502-3.357-13.974-5.904-3.234-1.88-6.309-3.070-9.782-4.518-4.432-1.837-8.545-4.271-13.216-5.832-3.035-1.026-5.389-2.67-8.104-4.19-1.558-0.924-2.875-1.437-4.512-2.238-2.835-1.437-2.315-3.276-2.277-6.068 0.039-3.79-0.039-7.588 0-11.419 0-2.197-0.4-3.634-0.883-5.71-0.277-1.16-1.558-4.549-1.238-5.474 0.913-2.238 6.149-2.361 7.946-2.793 3.914-1.026 7.547-2.474 11.5-3.398 5.829-1.313 11.221-3.070 17.208-3.995 5.59-0.821 11.379-2.393 16.929-3.758 5.271-1.243 10.541-4.354 15.853-4.549 7.027-0.205 13.974 2.474 20.562 4.631 2.117 0.719 4.152 1.644 6.269 2.31 4.591 1.437 9.344 0.821 13.974 2.116 2.436 0.719 4.67 1.757 7.227 2.156 3.114 0.514 6.269 0.309 9.423 1.037 6.149 1.283 11.939 3.11 17.967 4.95 5.31 1.56 10.781 2.598 16.051 4.23 1.955 0.616 5.43 0.924 18.126 3.676z"></path>
    <path fill="#000000" d="M398.321 825.41c0 2.156-0.441 4.754-0.040 6.87 0.637 3.676 2.315 6.747 2.355 10.701 0.080 3.040 0.996 7.424-1.398 9.54-0.913 0.821-2.197 1.026-3.195 1.644-1.716 1.12-3.155 2.834-4.473 4.354-4.152 4.744-7.547 10.339-12.139 14.732-4.032 3.83-9.304 5.945-13.255 9.981-5.51 5.597-11.020 9.385-18.168 12.739-2.594 1.233-5.51 1.921-8.026 3.347-1.997 1.12-3.315 2.721-5.030 4.2-1.078 0.924-3.074 2.793-4.592 2.957-1.916 0.102-2.875-1.479-4.591-2.074-3.393-1.15-8.066-0.719-11.578-1.283-8.944-1.313-17.888-2.433-26.512-5.227-17.408-5.638-35.775-5.391-53.384-10.022-3.873-1.026-7.787-2.875-11.779-3.194-2.594-0.205-5.231 0.309-7.865-0.073-3.513-0.514-6.548-2.516-9.942-3.194-1.078-0.205-2.156 0.102-3.274 0-1.596-0.205-3.195-0.821-4.791-1.19-5.271-1.201-10.66-0.514-15.811-1.714-4.632-1.078-12.097-0.036-13.137-6.191-0.913-5.545 0.039-12.215 0.039-17.888 0-4.067-1.637-12.897 1.676-15.769 2.795-2.433 6.788-4.19 9.823-6.468 4.791-3.594 9.782-5.627 14.772-8.749 4.832-3.040 10.063-4.671 14.854-8.020 4.193-2.957 9.184-4.95 13.576-7.671 2.156-1.313 4.032-3.030 6.028-4.549 1.916-1.479 4.352-2.474 6.149-3.995 1.317-1.12 2.037-2.474 3.633-3.511 1.317-0.821 2.834-1.397 4.152-2.238 1.955-1.19 3.194-3.194 4.832-4.467 0.596-0.514 1.557-0.616 2.276-1.16 0.996-0.821 1.478-1.993 2.635-2.433 2.755-0.924 7.547 0.924 10.141 1.479 4.272 0.821 8.504 2.433 12.856 2.987 4.591 0.616 8.983 0.821 13.536 1.757 5.99 1.201 12.098 1.437 18.088 2.433 3.234 0.514 6.349 1.644 9.622 1.757 8.983 0.411 17.769 1.52 26.711 2.238s17.688 1.921 26.552 3.234c3.313 0.514 6.588 0 9.901 0.102 2.436 0.102 4.751 1.12 7.186 1.283 2.795 0.102 4.473 0.102 7.028 1.313 3.195 1.52 3.434 2.834 3.434 6.111 0 5.268-1.836 10.741-1.196 15.893 0.4 3.471 3.035 7.784 2.315-0.616z"></path>
    <path fill="#000000" d="M352.631 932.711c-12.577 0.102-25.115 2.197-37.731 2.361-21.761 0.205-43.801-1.243-65.52 0.102-14.652 0.924-29.347 2.71-44 3.234-5.51 0.205-11.020 1.037-16.45 1.15-1.877 0.035-3.992-0.411-5.789-0.102-2.595 0.411-2.117 0.719-2.994 2.917-0.801 1.993-1.997 3.471-2.994 5.391-1.638 3.030-3.315 6.468-4.353 9.775-1.278 4.118-3.434 7.187-4.832 11.178-1.517 4.23-3.752 8.625-5.949 12.499-0.996 1.797-2.276 3.194-3.155 5.114-0.277 0.616-0.080 1.479-0.484 1.993-0.554 0.719-1.478 1.037-1.997 1.961-1.158 2.074-0.196 2.321 0.196 3.913 0.677 2.516 0.76 4.826 1.119 7.384 0.441 3.276 0.36 6.747 0.841 9.94 0.123 0.924 0.841 2.033 1.038 3.040 0.36 1.644-0.554 4.991 1.158 5.987 0.913 0.514 3.074 0.036 4.152 0 2.556-0.073 5.15-0.035 7.745-0.035 8.105-0.036 15.852 1.56 23.918 2.116 9.462 0.616 18.926-0.411 28.389 0.514 10.42 0.924 20.723 0.821 31.224 0.821 18.927 0 37.851 0 56.817 0 11.179 0 22.359 0 33.54 0.035 6.35 0.036 12.139-0.821 18.167-2.875 4.432-1.52 8.744-1.95 13.176-3.154 1.196-0.309 2.475-1.397 3.473-1.714 1.758-0.514 5.43-0.035 6.588-1.674 1.078-1.479 0.080-5.904 0.080-7.661 0-3.429-0.040-6.911 0-10.381 0.040-2.68-0.040-2.793-2.156-4.395-1.317-1.026-2.436-2.516-3.752-3.553-2.117-1.714-4.712-2.753-6.748-4.549-2.117-1.88-3.393-4.427-4.751-6.828-3.593-6.583-6.508-13.613-9.462-20.561-1.317-3.154-2.556-5.227-4.512-7.988-1.157-1.602-5.191-5.874-3.992-16.012z"></path>
    </svg>