<svg xmlns="http://www.w3.org/2000/svg" viewBox="-19.040 97.337 1062.060 826.719">
    <path fill="#000000" d="M962.105 399.301c-0.429-3.789-0.773-7.617-1.118-11.403-0.548-6.143-1.123-12.483-2.050-19.134-2.474-17.623-11.479-34.596-20.447-50.444-6.612-11.638-15.345-21.604-23.037-30.341-1.777-2.050-3.592-4.094-5.334-6.143v0c-17.939-20.986-42.524-47.386-73.405-65.359-10.706-6.222-22.302-12.411-35.444-18.905-10.477-5.217-20.605-9.006-30.418-12.722-2.594-0.994-5.216-1.93-7.81-2.93-9.702-3.749-20.18-1.971-28.101 3.71 49.513 6.533 86.041 46.695 93.193 95.553 40.082 29.108 65.866 76.883 68.225 129.721 3.827 85.931-75.879 159.101-159.063 159.101-28.215 0-54.075-7.386-76.419-20.065 1.123-2.168 2.322-4.325 2.785-6.798 1.432-7.453-4.018-12.178-10.052-12.099-6.765 0.102-15.579 1.779-20.256-3.009-5.334-5.528-10.086-12.445-15.537-18.284-2.245-2.355-5.025-4.404-7.964-6.222-0.39-0.497-0.734-0.994-1.123-1.473-3.401-3.009-7.458-5.071-11.787-6.262-24.97-18.551-55.742-29.649-90.063-29.649-24.159 0-48.007 6.381-69.54 17.472-6.225 1.93-12.521 4.483-18.364 6.691-3.866 1.513-7.655 2.942-11.132 5.375-7.458 5.217-13.644 11.441-20.72 17.083-2.708 2.168-4.753 3.67-6.917 6.42-1.432 1.818-3.172 5.997-5.025 7.035-4.253 2.355-18.441-7.346-24.236-10.242-3.401-1.7-5.873-4.337-8.853-0.694-1.548 1.93-2.317 7.657-2.431 10.71-0.35 9.622 7.921 16.157 13.841 21.99 0.808 0.796 1.972 1.739 3.169 2.744-23.462 13.258-49.977 20.986-76.883 20.986-89.176 0-155.194-72.903-159.059-159.101-2.436-54.691 28.99-104.17 73.634-132.967 2.165-12.68 6.536-24.776 13.18-36.217 5.642-7.346 11.323-14.686 16.965-21.994 13.568-13.487 29.573-22.808 47.969-27.948 7.267-0.994 14.571-1.971 21.842-2.93-8.002-9.436-21.264-13.22-33.321-8.577-2.628 1.005-5.217 1.971-7.845 2.97-9.779 3.676-19.945 7.493-30.384 12.68-13.178 6.494-24.776 12.68-35.444 18.905-30.924 17.973-55.471 44.373-73.444 65.359v0c-1.739 2.050-3.516 4.094-5.334 6.143-7.696 8.737-16.391 18.704-22.999 30.341-9.010 15.846-17.977 32.815-20.447 50.444-0.932 6.652-1.51 12.989-2.050 19.134-0.353 3.789-0.697 7.617-1.122 11.403-0.97 8.114-0.769 16.12 0.464 24.928 0.245 52.375 26.906 105.179 81.483 161.266 45.959 47.235 109.546 70.424 194.431 70.891 3.401 0.034 6.879 0.070 10.477 0.102 2.591 0.033 5.413 0.033 8.116 0.069 7.575 29.452 22.808 55.972 43.718 76.572 1.004 7.575 1.891 14.997 2.356 22.185 0.429 1.124 0.773 2.247 1.198 3.36 1.701 4.681 2.857 8.577 5.833 12.76 2.165 3.051 3.172 6.371 5.141 9.475 2.241 3.597 5.179 6.454 7.73 9.78 1.275 1.7 2.322 4.094 3.363 5.754 1.432 2.276 2.633 3.828 4.486 5.915 2.279 2.553 3.592 5.178 5.915 7.465 1.046 1.045 1.39 1.897 2.633 2.93 1.123 0.892 2.431 1.66 3.592 2.553 2.165 1.7 4.562 3.253 6.841 4.873 2.511 1.779 3.866 3.597 6.339 5.217 9.044 5.915 21.838 10.010 32.894 13.258 3.596 1.045 11.020 4.444 13.606 1.592 1.51-1.66 1.472-4.523 2.050-6.454 0.852-2.863 1.313-5.217 1.472-8.312 0.141-3.134 0.892-6.494 0.181-9.661-0.536-2.586-0.615-5.568-1.972-8.073-2.819-5.296-7.458-12.722-13.72-16.466-0.887-0.497-2.011-0.796-2.895-1.349-1.624-0.994-1.891-2.168-3.134-3.213-2.088-1.818-5.604-2.97-8.078-4.562-2.050-1.31-11.905-8.47-10.592-10.592 2.511 0.892 5.604 1.39 8.313 2.208 4.056 1.163 7.304 3.32 10.782 5.178 4.175 2.168 7.849 4.602 11.518 6.917 7.73 4.913 14.222 6.612 24.274 6.573 4.873 0 7.769 0.599 11.71-2.208 3.596-2.547 6.535-5.607 10.28-8.073 3.715-2.473 8.198-4.913 12.331-6.838 2.976-1.39 11.479-5.059 9.779-0.299-1.161 3.174-6.145 7.077-8.542 9.503-4.018 4.015-8.737 8.43-14.031 11.327-2.050 1.112-4.367 1.93-6.612 2.891-3.903 1.66-8.233 5.257-10.439 7.883-0.887 1.084-2.241 3.092-2.857 4.286-0.852 1.7-0.069 3.32-0.615 4.992-0.536 1.7-1.548 2.744-1.815 4.483-0.39 2.236-0.694 3.789-1.472 5.833-0.773 1.889-1.118 3.936-1.815 5.915-0.469 1.473 0.069 3.399-0.576 4.794-0.508 1.084-1.198 1.473-1.624 2.665-0.469 1.39-0.141 3.213 0.813 4.404 3.401-1.112 8.233-0.694 11.901-1.231 3.052-0.497 5.876-1.39 8.857-2.129 8.737-2.089 16.196-6.371 23.926-10.397 6.263-3.281 11.098-8.001 16.623-12.216 3.827-2.891 7.42-6.025 11.208-9.046 3.789-3.009 5.141-6.183 8.078-9.701 2.011-2.513 4.482-4.444 6.263-7.149 2.279-3.439 3.435-6.838 4.831-10.478 3.211-8.312 7.423-16.969 11.327-25.745 2.356-5.336 4.635-10.669 7.495-16.123 2.594-5.020 3.554-9.893 5.413-15.112 1.237-3.478 2.747-6.956 4.254-10.477 0.316-2.434 0.655-4.913 1.042-7.425 10.515-15.15 18.284-32.119 22.42-50.13h0.141c5.566 0 10.979-0.069 16.2-0.102 3.554-0.034 7.075-0.070 10.477-0.102 84.842-0.497 148.467-23.657 194.389-70.891 54.581-56.087 81.25-108.891 81.483-161.304 1.275-8.779 1.432-16.778 0.497-24.89z"></path>
    </svg>