<svg xmlns="http://www.w3.org/2000/svg" viewBox="-59.745 111.556 1149.464 928.555">
    <path fill="#000000" d="M691.551 423.745c-0.583 4.361-2.549 8.683-3.822 13.086-1.812 6.277-1.858 12.498-3.542 18.77-1.495 5.539-3.774 10.998-4.266 16.453-1.321 13.455-4.722 26.819-9.63 40.494-2.36 6.498-5.539 12.955-8.405 19.456-3.681 8.452-5.365 16.816-8.31 25.222-2.14 6.042-5.037 12.090-7.002 18.135-2.91 9-6.138 17.999-9.958 27.042-2.549 6.090-5.728 12.137-8.637 18.225-3.727 7.914-6.779 15.818-10.321 23.727-0.352 0.702-0.702 1.448-1.17 2.221-1.542-0.702-3.086-1.321-4.674-1.951-6.277-2.596-13.091-4.593-19.636-6.042-4.674-1.051-9.317-2.14-14.090-2.186-5.995-0.084-11.723 1.46-17.452 2.994-0.234 0.084-0.583 0.084-0.819 0.116 4.454 2.642-5.319 0.352-6.231 1.638 0.819-0.467 1.321-1.777 1.823-2.549 1.17-1.731 2.233-3.414 2.91-5.458 0.583-1.823 1.309-4.5-1.051-3.318-0.935 0.467-1.495 0.935-2.14 1.719-0.583 0.702-0.935 1.823-1.638 2.279-0.702 0.467-1.542-0.083-2.267-0.234-2.094-0.352-4.183-0.352-6.231-0.352-0.819 0.042-1.495 0.042-2.233 0.042 2.233-5.995 4.407-11.956 6.86-17.904 8.544-20.864 18.317-41.090 27.182-61.722 2.77-16.271 9.127-30.222 16.453-43.722 1.051-2.958 2.046-5.96 2.994-8.907 2.862-13.319 7.633-26.814 13.41-39.59 5.728-15.767 11.909-31.314 16.861-47.403 0.352-1.051 3.179-8.498 4.909-15.36 3.179 13.314 4.686 10.134 6.451 8.135 5.96-6.686 9.537-14.818 15.316-21.59 3.098-3.635 5.995-7.362 8.766-11.221-2.502-13.41 15.818-19.002 18.774-5.458 2.958 13.726 6.594 27.222 10.182 40.722 0.702-1.051 1.402-2.046 2.046-3.098 0.041 0.583 0.041 1.051 0.041 1.59 0 2.046 0 4.044 0.042 6.042-0.583 3.318-1.17 6.594-1.542 9.912zM611.697 741.477c-0.467 1.812-1.858 2.406-3.005 3.461-1.051 0.935-1.951 2.186-3.225 2.723-0.935 0.352-2.688 0.116-3.635 0.083-1.731-0.083-3.588-2.549-2.454-4.407 0.819-1.275 1.731-2.677 2.862-3.507 0.467-0.352 0.819-0.234 1.228-0.467 0.467-0.116 0.819 0.352 0.935-0.467 0.041-0.819-1.731-1.59-2.094-1.87-1.051-0.819-1.684-1.414-2.91-1.414-0.935 0-1.59 0-2.36 0.467-0.234-0.819-0.116-1.638 0.116-2.372 0.352-0.583 1.684-1.951 1.731-0.583 0.234-0.234 0.583-0.467 0.819-0.583 1.542-0.935 2.816-1.998 4.639-1.998 3.052 0.042 5.821 3.414 6.779 6.498 0.352 1.182 0.819 3.179 0.467 4.454zM594.916 725.491c-0.583 0.352-1.17 0.467-1.823 0.467-0.935 0.042-1.904-0.041-2.862 0-1.402 0-1.998-0.352-3.086-1.414-0.467-0.467-0.702-0.935-0.935-1.367-0.116-0.467-0.234-0.819-0.467-1.448-0.583-2.36 0.583-3.461 2.267-4.278 1.542-0.819 3.318-1.051 4.956-0.467 0.583-1.182-2.186-2.77-2.91-3.086-1.051-0.467-1.731-0.352-2.77-0.583-0.234-0.041-0.583-0.116-0.935-0.352-0.467-0.116-0.819-0.467-1.275-0.702-0.702 0.467-1.051 0.083-1.414-0.352 0.467-0.041 0.935 0.116 1.414 0.352 0.116-0.084 0.352-0.116 0.583-0.467 0 0.083 0 0.116 0 0.352-0.234-1.414 1.182-2.314 2.77-2.862 1.542-0.467 3.318-0.702 3.998-0.702 1.684 0 3.005 0.583 4.326 1.858 1.182 1.17 2.406 1.904 3.402 3.272 0.819 1.182 0.819 1.858 1.051 3.225 0 0.042 0 0.116 0.042 0.116 0.116 1.051 0.819 2.372 0.234 3.461-0.084 0.234-0.467 0.467-0.583 0.583-0.467 0.702-0.116 1.182-0.935 1.823-0.583 0.467-1.321 0.583-1.904 0.935-0.702 0.352-1.051 0.116-1.731 0.467-0.583 0.116-0.935 0.702-1.495 1.051zM580.737 741.601c-1.951 2.046-4.407 3.133-7.096 2.816-1.904-0.234-3.87-2.549-4.044-4.639-0.041-0.702-0.116-2.14 0-2.862 0.116-0.819 1.182-1.414 1.87-1.87 1.321-0.819 2.862 0.041 4.278-0.467-0.702-2.502-4.817-2.36-6.498-3.272-1.228-0.702-1.59-1.402-0.935-2.77 1.051-2.186 2.816-1.777 4.627-1.777l-1.051 2.36c0.702-0.116 1.414-0.352 2.046-0.583 0.352-0.116 0.467-0.352 0.819-0.467 0.467-0.083 1.051 0 1.46 0 1.858 0 3.402 0.467 4.407 2.314 0.819 1.542 2.094 3.318 2.186 5.13 0.084 2.454-0.352 4.314-2.046 6.042zM463.318 627.115c-1.684-0.935-3.040-3.318-4.044-5.037-3.318-5.682-5.775-12.090-8.322-18.225-0.467-1.275-4.627-12.906-5.682-12.633-0.583 4.817 0.041 9.726 0.116 14.589 0.116 5.365 0.116 10.719 0 16.088-0.084 3.086-0.234 6.138-0.819 9.127-0.116 1.051-0.116 2.267-1.051 2.723-1.051 0.583-2.502-0.583-3.318-1.051-4.407-2.502-8.766-4.77-13.455-6.594-1.998-0.819-3.952-1.414-5.995-1.904-0.702-0.116-1.542-0.702-2.233-0.467 2.642 3.87 6.37 6.675 9.63 9.819 0.819 0.819 2.14 1.951 2.314 3.272 0.234 1.46-0.116 1.051-1.182 1.275-2.642 0.819-5.002 1.777-7.818 2.094-1.051 0.116-2.094 0.234-3.133 0.352-0.234-0.467-0.583-1.051-0.819-1.542-3.366-7.914-6.312-15.774-9.865-23.678-2.77-6.090-5.821-12.181-8.274-18.27-3.635-9-6.721-18.043-9.549-27-1.858-6.090-4.627-12.086-6.675-18.131-2.816-8.463-4.454-16.818-7.996-25.271-2.677-6.451-5.775-12.953-7.996-19.405-4.722-13.726-7.949-27.042-9.222-40.494-0.467-5.458-2.677-10.951-4.091-16.453-1.638-6.312-1.684-12.498-3.414-18.816-1.228-4.407-3.133-8.683-3.681-13.091-0.819-6.451-1.719-12.726-3.681-19.361 0.234-1.275 0.583-2.549 0.819-3.822 2.816-13.59 20.406-7.996 17.954 5.458 2.677 3.822 5.446 7.586 8.405 11.221 5.551 6.721 8.954 14.862 14.681 21.546 1.684 1.998 3.133 5.178 6.184-8.135 1.638 6.906 4.407 14.406 4.674 15.404 4.734 16.045 10.684 31.635 16.182 47.358 5.504 12.774 10.086 26.27 12.821 39.589 0.935 2.994 1.904 5.949 2.862 8.954 7.002 13.455 13.086 27.408 15.772 43.674 6.451 15.726 13.451 31.228 19.995 46.902-0.083-0.041-0.116 0-0.234-0.083zM428.273 743.715c-0.084 1.321-0.583 1.904-1.321 2.958-0.467 0.819-0.819 0.702-1.542 1.17-0.583 0.352-1.051 0.935-1.684 1.321-0.467 0.234-0.935 0.467-1.46 0.583-0.583 0.084-1.051 0.234-1.542 0.352-1.46 0.352-3.87-1.051-4.278-2.723-0.583-2.046 2.502-2.549 3.822-3.133 1.051-0.467 2.406-0.702 1.051-1.87-1.051-0.819-2.502-1.051-3.774-1.182-1.051-0.116-2.186-0.234-3.133 0.116-1.17 0.467-2.406 1.46-3.588 1.59-0.467-0.583-0.116-2.549 0-3.318 0.352-1.823 1.731-2.094 2.14-0.819-0.116-1.228 1.051-1.46 1.823-1.777 1.998-0.935 3.588-1.777 5.775-1.638 1.777 0.116 3.098 0.352 4.546 1.495 1.051 0.819 2.046 2.094 2.723 3.318 0.702 1.228 0.583 2.186 0.467 3.588zM409.615 734.574c-0.583 0.583-1.542 0.819-2.267 1.182-1.414 0.583-2.723 1.59-4.23 0.935-1.46-0.702-2.816-1.777-3.681-3.318-0.583-0.935-0.702-1.448 0.116-1.951 0.352-0.116 0.702-0.234 1.051-0.467s0.352-0.467 0.583-0.702c0.467-0.352 1.46-1.051 1.998-1.051 0.583-0.041 1.228 0.819 1.777 0.583-0.083-1.051-0.583-1.684-1.495-1.951-0.583-0.116-1.051-0.116-1.638-0.352-0.702-0.116-0.935-0.041-1.765 0.467-0.819 0.467-2.454 1.228-2.094-0.583 0.234-1.309 2.406-2.267 3.681-2.221 1.051-0.702 2.094-1.542 3.542-1.448 2.267 0.116 4.593 1.765 5.949 3.81 0.352 0.583 1.051 1.998 1.051 2.77 0.083 0.583-0.467 2.314-0.935 2.723-0.234 0.234-0.702 0.234-1.051 0.583s-0.467 0.819-0.819 1.17zM404.942 753.745c-0.702 2.549-3.272 4.863-5.412 5.775-0.935 0.467-1.951 0.583-2.958 0.935-1.051 0.352-1.904 0.234-2.816-0.352-0.583-0.467-1.402-1.448-1.812-2.186-0.467-0.819-0.583-1.542-0.467-2.267 0.467-2.596 5.365-4.183 7.223-2.958-0.234-0.819-1.823-1.59-2.454-1.904-1.275-0.583-2.406-1.59-3.822-1.638-1.228-0.041-2.631 1.17-3.461-0.352-2.094-3.87 2.631-5.867 5.142-6.358l-1.228 3.366c0.583-0.467 0.467-1.051 1.051-1.448 0.702-0.467 2.233-1.275 3.086-1.17 1.17 0.116 2.233 1.051 3.272 1.495 1.051 0.583 1.951 1.051 2.677 1.998 1.367 1.87 2.502 4.593 1.87 7.084zM1007.897 859.892c-2.862-1.858-5.821-6.312-7.679-9.222-8.452-13.229-12.815-29.18-20.68-42.812-5.728-9.865-9.819-20.818-15.499-30.813-5.273-9.317-11.631-17.634-16.634-27.182-6.138-11.722-11.862-23.721-18.135-35.358-4.863-8.954-10.004-17.727-14.587-26.861-6.767-13.499-13.134-27.314-19.179-41.267-4.091-9.363-8.907-18.223-13.137-27.545-5.856-12.906-10.684-26.406-17.13-38.994-5.002-9.678-10.275-19.134-14.862-29.041-9.583-20.996-17.815-42.133-24.361-64.541-2.677-9.093-6.721-17.358-10.228-26.039-3.952-9.958-6.498-20.543-10.542-30.406-2.862-6.954-6.231-13.274-8.498-20.499-3.318-10.823-6.686-21.137-11.094-31.452-6.86-15.951-11.997-32.724-18.543-48.856-1.731-4.326-3.542-8.544-4.863-13.046-1.182-3.905-1.684-8.683-3.461-12.318-0.819 0.702-1.321 5.095-1.542 6.138-1.59 7.679-1.998 15.818-1.998 23.682 0 5.412 0.583 10.684-0.083 16-0.819 6.498-2.046 12.906-3.133 19.314-0.702 4.361-1.051 8.683-1.495 13.043-0.467 4.314-1.731 8.274-1.87 12.638-0.041 2.267 0.352 4.593 0.116 6.86-0.116 2.994-0.935 5.949-1.414 8.954 0-0.042 0-0.042 0-0.042-1.542-11.773-2.677-23.633-4.5-35.267-0.352-2.094-0.702-4.183-1.051-6.277-0.352-2.862-0.583-5.682-0.935-8.498-1.448-13.771-3.952-27.271-5.273-41.085-1.228-12.407-3.635-24.498-5.867-36.678-2.046-11.233-3.542-22.451-6.184-33.498-1.228-5.037-1.638-10.275-3.052-15.223-0.467-1.87-0.583-3.727-1.17-5.458-0.819-2.862-2.406-5.002-2.735-8.088-1.051 0.083-1.495 2.046-1.812 3.133-0.116 0.583-0.234 1.17-0.467 1.684-1.051-6.184-2.14-12.362-2.862-18.678-0.583-4.5-0.819-9.912-1.951-14.271-2.631-0.467-3.87 7.27-4.314 8.544-2.549 7.177-5.504 14.907-8.861 21.678-2.958 5.949-6.906 11.279-10.134 17.093-3.414 6.090-5.867 12.589-8.637 19.086-2.958 7.049-6.721 13.362-9.993 20.134-0.583 1.275-2.549 4.407-2.958 5.821-1.17 3.87-0.116 8.405 0.819 12.498-1.182 1.414-2.406 2.816-3.449 4.407-4.137 6.138-6.277 11.454-11.631 16.634-10.731 10.367-20.454 21.863-30.769 32.679-13.088 13.771-24.090 27.816-34.678 43.767-3.998 5.995-5.539 13.002-7.223 20.089-3.366 14.226-6.323 28.815-10.414 42.812-5.365 18.406-12.545 36.315-18.678 54.45-7.54 22.362-13.224 45.041-19.858 67.674-4.044 13.726-6.090 28.087-9.139 42.089-0.583 2.454-1.17 4.909-1.684 7.316-0.116 0.116-0.234 0.352-0.467 0.583-1.051 1.731-0.935 2.186-2.91 2.094-4.266-0.116-8.498 0-12.728-0.234-2.186-0.116-4.361-0.352-6.546-0.467-0.583-0.084-1.051-0.116-1.638-0.116-1.495-8.181-3.086-16.362-5.365-24.318-6.404-22.589-11.817-45.268-19.041-67.626-5.867-18.18-12.774-36.089-17.909-54.496-3.917-13.998-6.733-28.589-9.912-42.812-1.638-7.084-3.098-14.040-6.954-20.084-10.134-15.954-20.682-29.996-33.226-43.722-9.865-10.858-19.174-22.362-29.444-32.722-5.095-5.178-7.188-10.495-11.14-16.634-1.051-1.542-2.186-2.958-3.318-4.407 0.935-4.091 1.858-8.637 0.819-12.498-0.467-1.414-2.267-4.5-2.862-5.821-3.098-6.767-6.721-13.086-9.595-20.134-2.596-6.451-5.002-12.998-8.227-19.086-3.086-5.821-6.906-11.14-9.726-17.093-3.225-6.767-6.042-14.454-8.498-21.677-0.467-1.275-1.59-9-4.137-8.498-1.051 4.361-1.321 9.726-1.823 14.226-0.702 6.312-1.684 12.498-2.723 18.725-0.116-0.583-0.352-1.182-0.467-1.731-0.234-1.051-0.702-3.052-1.731-3.098-0.234 3.098-1.87 5.19-2.596 8.042-0.467 1.731-0.583 3.635-1.051 5.504-1.367 4.956-1.777 10.182-2.91 15.227-2.549 11.046-3.998 22.22-5.949 33.495-2.14 12.137-4.407 24.224-5.586 36.631-1.275 13.818-3.635 27.314-5.037 41.085-0.234 2.862-0.583 5.682-0.819 8.498-0.352 2.094-0.702 4.183-1.051 6.277-1.731 11.688-2.816 23.501-4.314 35.269-0.234 1.051-0.352 2.046-0.467 3.052-0.702 4.361-1.356 8.718-2.046 13.086-0.234 1.542-0.467 3.133-0.819 4.686-0.935 4.044-1.951 8.088-2.958 12.086 0-0.234 0-0.467 0-0.819 0-0.819-0.467-2.36-0.583-3.272-0.116-3.681 0.702-7.084 0.702-10.638-0.042-4.407-1.542-8.637-1.765-12.996-0.116-2.267 0.234-4.593 0.116-6.86-0.116-4.373-1.367-8.37-1.777-12.64-0.467-4.361-0.702-8.683-1.46-13.041-1.051-6.404-2.221-12.816-3.005-19.314-0.583-5.319-0.042-10.59-0.042-15.998-0.042-7.866-0.467-16-1.951-23.682-0.234-1.051-0.583-5.458-1.495-6.138-1.638 3.635-2.14 8.37-3.272 12.318-1.275 4.454-3.005 8.718-4.674 13.047-6.231 16.131-11.186 32.904-17.726 48.855-4.23 10.321-7.458 20.636-10.638 31.409-2.186 7.27-5.412 13.587-8.135 20.497-3.87 9.912-6.323 20.499-10.086 30.45-3.366 8.683-7.27 16.905-9.819 26.039-6.231 22.407-14.090 43.542-23.361 64.541-4.361 9.912-9.41 19.361-14.179 29.041-6.184 12.589-10.777 26.089-16.408 38.994-4.044 9.317-8.683 18.135-12.589 27.546-5.775 13.953-11.862 27.767-18.363 41.267-4.407 9.127-9.27 17.909-13.951 26.861-5.995 11.631-11.502 23.589-17.406 35.358-4.77 9.549-10.858 17.862-15.906 27.182-5.412 9.993-9.317 20.951-14.815 30.813-7.552 13.632-11.726 29.586-19.818 42.769-1.777 2.958-4.639 7.398-7.362 9.222-1.182 0.819-1.951 0.042-2.36 1.998-0.352 1.414 1.321 5.273 2.36 6.231 1.182 1.051 3.727 1.17 5.178 1.367 2.406 0.352 2.596 0.041 4.407-1.542 1.684-1.46 2.314-1.684 4.5-1.46 6.277 0.702 12.409 1.275 18.634 2.688 5.319 1.182 10.275 2.406 15.679 1.765 2.406-0.702 4.817-1.051 7.316-0.819 0.234 0.041 0.583 0.234 0.819 0.352 0.819-5.493 1.638-11.046 2.454-16.59 1.051-7.002 1.367-14.499 4.183-20.862 5.365-11.954 10.684-23.953 16.182-35.862 8.042-17.54 14.908-36.221 20.226-55.175 4.639-16.542 9.222-33.63 15.452-49.494 8.274-21.27 17.089-42.221 24.27-64.038 7.362-22.181 16.679-43.039 25.362-64.494 4.091-10.228 7.818-20.95 11.14-31.541 2.642-8.405 4.722-17.087 8.088-25.132 2.314-5.458 5.504-9.958 8.042-15.184 4.361-8.954 6.86-19.404 10.039-28.95 4.137-12.452 10.321-22.634 16.042-33.999 1.951-3.905 5.13-11.677 9.63-12.815 3.366-0.819 4.686 2.549 5.995 5.539 1.638 3.727 3.727 7.049 5.412 10.812 2.14 4.734 4.183 9.456 6.404 14.134-0.702 3.098-1.542 6.138-2.186 9.234-3.133 15.222-76.672 170.612-79.534 185.978-2.677 14.085-4.454 28.401-6.954 42.535-2.233 12.318-4.686 24.224-6.042 36.725-1.321 12.498-2.502 24.908-4.361 37.227-1.182 6.231-2.314 12.407-3.496 18.588-1.812 8.181-3.858 16.27-5.682 24.451-2.91 13.268-5.586 26.496-9.093 39.582-0.467 1.87-0.819 4.044-1.684 5.775-0.583 1.182-1.542 1.823-1.951 3.179 0.819 0.935 2.91-0.234 3.822-0.467 0.352-0.083 0.702-0.083 1.051-0.116-0.935 4.817-1.951 9.63-2.816 14.542-1.051 6.138-1.684 12.407-2.77 18.588-1.321 7.679-2.677 15.411-4.183 22.998-0.467 2.279-1.051 5.178-2.267 7.002 3.179-3.318 3.635-3.496 3.952-4.091 0.352 1.731 1.182 1.823 2.14 2.631 1.731 1.414 3.086 4.183 5.002 5.002 1.951 0.819 4.546-0.234 6.594 0.083 3.822 0.583 7.27 2.631 11.14 2.723 3.952 0.116 7.54-1.59 11.36-2.677 5.095-1.495 10.134-0.819 15.27-1.051 3.366-0.234 6.64-0.819 10.004-0.819 1.275 0 2.596 0.116 3.87 0 0.045-1.87-0.583-3.905-0.702-5.775-0.467-4.546-0.583-9.186-0.935-13.726-0.819-13.998-2.406-28.087-2.723-42.174-0.234-6.733-0.352-13.5-0.583-20.226 0.935-6.64 3.040-12.911 3.952-19.544 1.731-11.862 5.412-23.042 7.633-34.814 2.723-14.681 6.86-28.904 9.41-43.722 2.406-14.090 2.406-28.589 6.138-42.36 1.59-5.902 2.267-11.954 3.635-17.909 1.182-5.319 3.040-10.542 4.546-15.767 2.36-8.37 4.23-17.046 5.682-25.725 1.367-7.866 1.638-15.774 3.133-23.589 1.638-8.814 74.262-157.434 75.763-166.253 1.731-10.367 5.002-20.315 6.451-30.678 0.116-1.46 0.352-2.91 0.467-4.314-0.116-1.414-0.234-2.862 0.116-4.361v-0.116c0.042-1.777 0.042-3.542 0.042-5.319 0.819 2.36 1.638 4.734 2.094 7.188 1.051 5.867 1.182 11.999 3.635 17.999 1.46 3.496 3.727 6.814 4.863 10.367 1.638 5.178 1.777 10.275 2.549 15.404 0.935 6.498 2.314 13.182 4.23 19.726 3.998 13.771 8.861 27.45 11.314 41.13 2.406 13.451 6.686 26.996 10.367 40.542 2.723 10.086 3.542 20.271 4.454 30.222 0.819 8.227 2.454 16.59 4.956 24.997-1.904 0.583-3.822 1.402-5.682 2.36-5.226 2.677-11.14 4.361-14.725 9.773-1.414 2.094-2.958 6.686-5.551 7.084 3.681-0.234 7.41 0.234 11.046 0.702 3.87 0.467 7.772 0.702 11.631 1.275 2.642 0.467 3.179 1.542 5.365 2.958-5.539 1.998-10.858 6.231-15.27 10.275-5.319 4.909-10.228 9.9-13.953 16.453-3.461 6.090-5.821 12.953-8.405 19.542-1.367 3.542-2.862 7.096-4.23 10.684-0.583 1.638-1.858 3.588-2.094 5.365 1.59-0.352 3.098-1.275 4.593-1.87 4.361-1.638 7.494-5.178 11.36-7.818 6.277-4.266 12.318-2.406 19.092-2.958-0.583 0.467-0.352 1.182-0.467 1.87-0.352 1.495-1.719 3.272-2.631 4.361-2.046 2.406-2.631 5.178-3.952 8.135-1.823 4.314-4.044 8.31-5.412 12.86-2.688 8.861-4.044 17.862-5.539 27.042-0.352 1.638-0.583 3.318-0.583 5.002 0.116 0.935 0.083 1.904-0.042 2.862-0.352 1.17-1.275 1.777-1.051 3.052 1.59-0.702 2.77-2.406 3.822-3.87 1.858-2.549 3.87-4.863 5.995-7.049 3.040-3.133 5.775-6.404 8.498-9.865 0.583-0.702 1.367-1.321 1.414-2.279 0.583 0.352 0.702 1.051 0.583 1.858 0.583 1.731 1.321 3.414 2.094 5.049 0.467 1.182 0.935 2.454 1.321 3.727 0.234 0.935 0.467 1.638 0.467 2.596 0.467 3.588 1.414 6.312 2.677 9.678 1.731 4.674 2.36 10.182 4.674 14.544 1.051 2.14 2.186 4.361 3.366 6.451 1.638 2.77 3.496 4.863 4.627 7.996 0.935 2.677 3.098 5.178 4.817 7.223 1.87 2.186 4.183 3.87 6.404 5.504 7.41 5.458 15.36 10.182 24.27 11.36 7.27 0.935 14.406-1.731 21.63-1.858 2.046 0 4.137-0.083 6.138 0s3.87 0.819 5.775 1.17c1.275 0.234 2.584 0.234 3.87 0 0.935-0.116 3.318-0.467 4.044-1.228 0.819-0.935 0.467-1.051-0.234-1.823-1.051-0.702-1.823-1.495-2.596-2.549-0.702-1.182-1.638-2.186-2.688-3.005-1.823-1.414-3.727-2.36-5.319-4.044-1.182-1.228-2.14-2.094-3.635-2.77-4.407-1.951-9-5.273-11.502-10.039-0.819-1.638-0.819-3.588 1.051-3.681 1.46-0.041 3.318 1.495 4.817 1.823 2.14 0.467 4.314 0.702 6.451 1.321 1.051 0.352 7.818 3.588 7.996 2.046-1.812-0.234-3.318-2.325-4.593-3.496-2.454-2.267-4.722-4.674-6.906-7.223-2.502-2.816-5.412-4.863-7.458-8.135-1.17-1.904-2.221-3.822-3.588-5.539-0.467-0.583-1.228-1.051-1.051-1.823 5.365 0.084 10.134 3.727 15.222 5.083 2.046 0.583 4.23 1.321 6.184 2.094 1.59 0.583 3.542 1.414 4.956 2.406 0.702 0.467 1.228 1.998 2.221 1.638 0.819-0.352 0.583-1.321 0.467-2.233 0-1.777 0.352-3.318 2.14-3.588-0.352-0.819-0.352-1.448-0.583-2.454-0.352-1.823-1.731-3.179-2.094-5.083-0.352-1.951-0.583-3.635-0.583-5.634 0-1.321-0.352-3.318 0.116-4.5 0.702 0.819 0.467 1.777 1.275 2.631 1.731 1.823 3.822 3.414 5.775 4.956 1.684 1.321 4.909 3.496 5.867 5.821 0.352 0.819 0.116 1.495 0.116 2.36 0.819-0.935 1.051-1.402 2.233-2.046 1.275-0.702 2.454-1.309 3.905-1.812 2.994-0.935 5.728-0.819 8.814-0.935 0.583 0 2.584 0 3.098-0.702 0.467-0.702 0.041-2.77 0.083-3.542 0.084-2.502 0.935-4.863 1.17-7.362 0.083-1.495 0.116-5.178 1.182-6.184 3.225 4.639 4.361 10.684 6.767 15.818 0.467 0.935 0.583 1.998 1.46 2.677 0.702 0.583 1.87 0.702 2.631 0.935 1.495 0.467 2.314 0.083 3.542-0.935 1.684-1.402 3.727-1.904 4.722-4.23 1.367-3.040 1.684-6.546 2.502-9.773 0.234-1.051 0.583-5.586 1.777-5.902 0.116 1.228 0.116 1.998 0.819 3.086 0.467 0.819 1.228 1.495 1.495 2.549 0.583 2.372 0.041 5.365 0.041 7.866 0 1.858-0.352 4.361 0.819 5.775 1.414 1.731 3.822 0.935 5.458 2.267 1.402 1.17 2.221 2.77 3.272 4.314 0.352 0.467 1.051 1.17 0.819 1.858 0.352-0.352 0.819-0.467 1.051-0.702 0.467-0.352 0.702-1.182 1.051-1.638 0.583-0.935 1.638-1.542 2.267-2.502 0.583-1.051 1.051-2.14 1.731-3.133 1.495-2.046 2.862-4.183 4.091-6.451 1.051-1.998 2.186-3.496 3.496-5.365 0.935-1.321 1.638-2.958 2.688-4.091 0.352 1.402 0.041 3.272 0.041 4.77 0.041 2.046-0.583 3.179-1.051 5.083-0.352 1.414 0 2.862-0.234 4.278-0.234 1.904-0.352 3.774-0.583 5.682-0.467 4.183-0.819 8.227-2.186 12.225-0.702 2.221-1.275 4.734-2.094 6.906-0.352 1.051-1.182 1.858-1.17 2.994 1.684-1.684 3.366-3.366 5.095-5.083 1.542-1.59 2.862-3.496 4.546-4.956 2.596-2.186 4.817-4.909 7.131-7.458 1.17-1.228 3.414-4.044 5.178-3.952 0.352 0.583-0.819 2.406-1.051 3.086-0.583 2.36-1.59 4.546-2.454 6.814-0.935 2.279-2.233 4.23-3.366 6.323-1.17 2.14-2.14 4.278-3.272 6.416-1.228 2.314-2.816 4.454-4.183 6.686-0.702 1.228-1.17 2.36-1.731 3.681-0.702 1.59-1.638 2.862-2.549 4.314-0.935 1.542-1.777 3.179-2.267 4.909-0.234 0.819-0.819 1.59-1.051 2.314 0.702 0.352 1.542 0.116 2.314 0 1.87-0.234 3.905-0.467 5.682-1.17 4.314-1.731 7.996-5.142 12.224-7.316 1.87-0.935 3.414-1.87 5.142-3.040 1.402-0.935 2.91-2.406 4.314-3.052 0.819-0.352 1.356-0.116 2.186-0.116 1.275 0 2.046-0.583 3.133-1.17 1.46-0.819 1.823-0.702 3.366-0.702 1.495-0.042 2.816-0.583 4.183-1.321 1.998-1.051 3.822-2.549 5.728-3.822 1.777-1.17 2.314-0.935 4.183-1.228 1.684-0.352 2.816-1.638 4.23-2.267 0.467-0.116 1.051 0.083 1.414-0.116 0.467-0.352 0.935-1.414 1.228-1.858 0.819-1.17 1.46-2.816 2.502-3.681 0.467-0.352 0.819-0.352 1.275-0.702 1.321-1.182 2.91-4.546 3.87-6.042 0.702-1.228 1.367-2.454 1.951-3.774 1.858-3.952 4.23-7.598 5.728-11.773 1.051-2.862 1.951-5.867 2.677-8.814 0.583-2.094 1.182-4.278 1.275-6.451 0.083-3.318-0.702-7.096-0.041-10.275 0.352-1.904 0.819-2.502 0.234-4.674-0.467-1.684-0.935-2.816-0.819-4.546 3.225-0.935 6.090 1.321 8.954 2.406 2.862 1.17 5.914 1.87 8.73 3.179 2.094 1.051 3.998 2.406 5.995 3.542 1.684 0.935 3.461 1.402 5.083 2.233 2.454 1.182 4.314 3.179 6.277 5.13 0.819 0.819 1.684 1.998 2.77 1.998 0.352-0.702 0.083-1.731 0-2.502-0.234-1.684-0.352-3.366-0.583-5.083-0.467-3.366-0.702-6.686-1.46-9.993-2.186-9.41-4.734-18.678-7.725-27.773-0.352-1.182-0.583-2.454-1.17-3.635-0.234-0.583-0.819-1.275-0.935-1.951-0.467-2.267 1.638-1.051 2.723-0.234 1.823 1.321 3.318 3.133 5.142 4.5 1.275 0.935 2.631 1.684 3.905 2.596 1.402 1.051 2.314 2.314 3.496 3.496-4.044-6.906-5.412-15.496-8.718-22.77-1.731-3.762-4.137-7.362-6.231-10.858-2.094-3.461-4.044-7.084-6.498-10.228-0.467-0.467-0.819-1.051-1.182-1.495 2.372-6.358 4.686-12.726 7.142-19.086 4.546-11.549 7.41-23.313 8.544-34.678 0.935-9.958 1.823-20.134 4.674-30.27 3.822-13.495 8.322-27.088 10.823-40.542 2.549-13.677 7.633-27.359 11.814-41.13 1.951-6.546 3.414-13.18 4.407-19.675 0.819-5.142 0.935-10.228 2.631-15.455 1.182-3.507 3.588-6.86 5.083-10.367 0.935-2.14 1.495-4.314 1.904-6.451 12.728 29.223 75.354 152.478 76.948 160.48 1.542 7.818 1.823 15.726 3.225 23.589 1.542 8.637 3.461 17.358 5.949 25.722 1.59 5.226 3.496 10.46 4.782 15.774 1.402 5.949 2.094 11.954 3.774 17.909 3.858 13.726 3.905 28.225 6.404 42.36 2.631 14.77 7.002 28.996 9.865 43.722 2.267 11.728 6.138 22.95 7.902 34.814 1.051 6.64 3.225 12.906 4.137 19.5-0.234 6.767-0.467 13.542-0.583 20.266-0.352 14.046-1.951 28.134-2.862 42.178-0.352 4.546-0.467 9.186-0.935 13.726-0.116 1.858-0.819 3.905-0.819 5.775 1.367 0.116 2.723 0 4.091 0 3.507 0 6.906 0.583 10.402 0.819 5.365 0.352 10.638-0.352 15.954 1.17 3.952 1.051 7.725 2.816 11.862 2.677 3.998-0.116 7.679-2.14 11.631-2.723 2.094-0.352 4.817 0.702 6.86-0.116 1.998-0.819 3.449-3.542 5.226-4.956 1.051-0.819 1.904-0.935 2.267-2.631 0.234 0.583 0.819 0.819 4.091 4.091-1.275-1.858-1.904-4.734-2.36-7.002-1.59-7.633-2.994-15.36-4.361-22.997-1.17-6.184-1.777-12.452-2.91-18.633-0.935-4.863-1.951-9.678-2.958-14.544 0.352 0.042 0.702 0.084 1.051 0.116 0.935 0.116 3.225 1.321 3.998 0.467-0.467-1.356-1.414-1.998-2.046-3.179-0.819-1.731-1.228-3.905-1.731-5.775-3.681-13.091-6.451-26.315-9.502-39.589-1.904-8.181-4.044-16.266-5.949-24.449-1.228-6.184-2.406-12.413-3.635-18.594-1.951-12.317-3.179-24.724-4.593-37.221-1.402-12.498-3.998-24.451-6.277-36.723-2.631-14.136-4.5-28.452-7.27-42.586-3.005-15.316-79.807-170.705-83.082-185.973-1.998-9.41-4.546-18.684-6.954-27.954 1.495-3.179 2.994-6.312 4.5-9.502 1.731-3.727 3.952-7.038 5.634-10.812 1.356-3.005 2.77-6.404 6.277-5.539 4.722 1.17 7.996 8.907 10.039 12.815 5.995 11.406 12.456 21.546 16.773 33.999 3.318 9.549 5.902 20.044 10.495 28.95 2.631 5.273 5.995 9.726 8.358 15.183 3.542 8.042 5.728 16.724 8.452 25.134 3.496 10.638 7.362 21.314 11.677 31.541 9.046 21.498 18.814 42.315 26.453 64.494 7.494 21.818 16.724 42.812 25.36 64.038 6.498 15.862 11.314 32.949 16.134 49.538 5.539 18.91 12.726 37.635 21.133 55.131 5.728 11.909 11.279 23.909 16.865 35.862 3.005 6.358 3.318 13.863 4.407 20.862 0.819 5.539 1.684 11.094 2.549 16.59 0.352-0.083 0.583-0.234 0.819-0.352 2.596-0.234 5.142 0.041 7.633 0.819 5.634 0.583 10.812-0.583 16.362-1.765 6.498-1.367 12.906-1.998 19.5-2.688 2.233-0.234 2.91 0 4.722 1.495 1.87 1.542 2.046 1.87 4.546 1.495 1.542-0.234 4.183-0.234 5.458-1.367 1.051-0.935 2.77-4.817 2.454-6.231-0.467-1.951-1.275-1.182-2.502-1.951z"></path>
    </svg>