<svg xmlns="http://www.w3.org/2000/svg" viewBox="-10.440 -1.582 1043.217 1072.010">
    <path fill="#000000" d="M942.167 516.227c-12.903-0.099-26.699-4.817-37.307-11.889-6.258-4.197-12.512-7.236-17.876-12.79-5.441-5.597-8.513-11.696-11.892-18.612-9.873-20.172-24.407-37.623-35.912-56.666-2.41-3.959-5.518-5.906-9.171-8.746-3.574-2.799-5.905-6.135-8.705-9.674-2.916-3.687-6.569-6.727-9.636-10.299-4.472-5.328-8.513-11.076-12.906-16.48-5.713-7.037-13.523-12.978-20.285-19.118-6.299-5.757-13.41-9.366-20.87-13.486-5.908-3.309-12.512-5.208-19.082-7.268-11.583-3.578-23.708-6.527-35.641-8.705-11.268-2.059-21.878-7.385-32.916-10.415-15.662-4.359-30.898-9.444-46.676-13.369-6.878-1.709-13.835-4.508-20.832-5.517-5.168-0.8-10.494-0.8-15.702-1.518-13.486-1.83-26.892-3.499-40.38-5.088-8.588-1.008-17.412-1.008-26.193-0.899-0.034-2.258-0.109-4.508-0.109-6.836 0-6.147 0.209-12.282 0.35-18.424 10.648 0 21.337 0 32.022 0 25.186 0 50.251 3.107 75.515 2.998 18.886-0.071 37.772-0.034 56.662-0.034 6.762 0 13.681-0.998 20.442 0.599 3.303 0.701 6.566 2.258 9.869 3.228 10.61 3.107 20.675 0.599 31.401-0.2 12.049-0.899 24.019-0.499 36.029-0.599 9.833-0.072 18.773-2.529 28.331-3.149 11.234-0.8 22.385 0.899 33.694-0.2 14.304-1.359 28.801-3.27 42.869-8.315 2.138-0.701 3.731-1.129 5.518-3.028-2.098-4.897-7.151-3.068-9.833-3.028-16.555 0.2-33.074 0.071-49.626 0.071-17.567-0.034-35.134 0-52.66 0.072-7.151 0.8-14.263 0.499-21.337-0.701-3.226-0.998-5.402-2.218-8.705-2.329-36.338-1.589-72.793-0.099-109.13 0.099-9.325 0.034-17.721-2.020-26.775-3.648-10.609-1.91-20.716-2.448-31.44-2.3-13.369 0.2-26.504-2.759-39.836-3.068-5.168-0.099-9.325-1.28-14.263-2.529-2.601-0.701-5.364-0.8-8.123-0.8 0.209-6.765 0.429-13.486 0.549-20.209 0.209-10.025 2.874-19.701 3.962-29.613 0.899-8.156 0.35-16.555 1.515-24.64 0.82-5.478 0.778-11.076 1.672-16.555 0.931-5.478 0.499-11.271 1.594-16.673 1.048-5.287 3.071-9.284 3.108-14.767 0-2.717-0.034-5.438-0.034-8.167 7.074-1.79 5.518-4.858 5.126-8.205-0.319-2.448 0.18-4.967-0.279-7.385-0.279-1.44-1.164-2.679-1.556-4.388-0.35-1.748 0.509-3.149-1.282-4.547-0.97 4.628-2.605 9.094-3.89 13.76-3.416 12.282-6.1 24.715-9.831 36.919-5.209 17.139-6.607 34.628-9.989 52.077-3.382 17.528-4.781 35.404-8.044 52.893h-55.496c-3.536 0-8.009-1.21-11.466-0.099-1.826 0.599-3.149 2.65-4.976 3.228-2.874 0.998-5.984-0.4-8.978 0.499-5.247 1.67-10.261 1.939-15.624 2.759-10.802 1.67-21.374 6.567-32.217 8.355-11.621 1.9-22.773 5.906-34.473 5.828-22.93-0.099-45.857 0-68.75 0-4.976 0-9.949 0.034-14.925 0.072 5.364 0.4 10.73 1.28 15.778 3.149 14.616 5.367 30.819 2.64 45.939 2.64 60.431 0.035 120.826 0 181.258 0-0.849 8.436-1.282 16.947-1.318 25.73-0.319 0-0.62 0.034-0.931 0.034-14.38 0-28.757 0.034-43.14-0.034-16.98-0.099-33.382 3.107-50.247 3.309-4.936 0.072-9.561 0.701-14.226 2.179-4.236 1.28-8.121 0.701-12.475 1.479-5.866 1.008-11.579 2.679-17.488 3.578-4.895 0.701-10.261 0.599-14.921 2.138-8.317 2.689-17.643 4.239-25.497 8.167-3.225 1.67-6.527 2.909-9.753 4.426-4.355 2.028-7.776 5.866-11.776 8.436-6.762 4.317-14.417 7.076-21.258 11.271-7.892 4.817-16.166 9.366-23.67 14.806-8.356 6.068-15.116 14.146-22.464 21.411-3.924 3.888-7.152 7.427-9.832 12.241-2.721 4.979-5.558 9.985-8.978 14.538-6.803 9.055-14.575 17.683-20.832 27.125-4.083 6.107-6.529 13.023-10.843 19.006-3.266 4.589-6.762 8.746-9.524 13.681-3.458 6.135-7.189 11.737-10.959 17.643-3.42 5.287-5.713 11.076-9.133 16.361-5.444 8.397-10.495 15.469-19.394 20.599-9.328 5.328-19.822 9.165-30.587 10.688-5.946 0.899-12.553 0.499-18.578 0.301-3.574-0.099-8.314-2.64-11.734-1.518-0.623 2.759 6.724 7.547 8.588 9.324 5.75 5.478 12.94 9.486 19.547 13.798 8.513 5.558 25.298 15.308 35.908 8.116 5.284-3.578 9.562-11.151 13.369-16.049 4.472-5.676 8.899-11.309 13.797-16.632 3.924-4.278 6.762-9.015 10.377-13.486 1.943-2.329 4.544-4.278 6.295-6.727 2.879-4.038 4.472-9.055 6.957-13.331 2.955-5.046 6.22-9.946 9.058-15.077 7.152-12.824 17.368-23.708 27.241-34.435 2.605-2.799 4.472-3.888 7.152-6.058 4.002-3.309 6.724-7.926 10.223-11.737 6.918-7.385 15.12-13.294 22.89-19.664 8.434-6.996 12.165-17.18 21.727-23.123 6.1-3.808 10.997-8.046 18.033-10.182 5.479-1.67 10.182-4.508 15.507-6.298 7.499-2.569 15.545-2.138 23.279-3.578 23.63-4.349 47.53-7.926 71.354-11.267 13.643-1.939 26.775-5.558 40.535-7.037 14.496-1.6 29.034-3.888 43.527-6.147-0.541 3.068-1.012 6.177-1.361 9.324-1.98 18.965-4.195 37.543-4.119 56.628 0.034 15.038 0 30.079 0 45.083 0 38.045-0.47 76.015 1.515 113.986 1.436 27.511 0.251 55.493 0.141 83.088-0.034 7.777 1.164 15.12 2.446 22.813 1.788 10.843 3.033 21.728 4.743 32.57-0.279 0-0.591 0-0.86 0.034-20.13 1.479-40.031 7.575-60.161 7.926-17.488 0.301-34.977-0.2-52.467-0.2-12.512 0-25.028 1.050-37.385-2.059-10.923-2.759-22.036-1.479-32.879-3.959-22.735-5.248-46.484-2.099-69.451-2.099h-50.642l-49.976 13.524c25.065 0 50.132 0.2 75.203-0.033 9.287-0.099 18.108 1.67 27.32 3.499 7.93 1.589 16.090 1.21 23.904 3.927 4.544 1.6 8.978 4.388 13.564 5.636 8.159 2.208 16.555 0.4 24.794 2.64 6.254 1.709 12.67 0.099 19.006 0.499 6.957 0.4 13.482 2.948 20.517 2.879 24.64-0.301 50.483 3.648 74.813-3.499 10.223-2.989 20.405-0.998 30.587-3.927 10.726-3.107 21.141-3.457 31.984-3.457h15.856c2.33 12.982 4.39 26.078 6.1 39.095 2.217 16.984 7.074 33.659 9.328 50.562 1.048 7.777 1.048 15.586 2.369 23.36 0.931 5.396 2.098 10.726 2.721 16.206 1.319 11.467 3.187 23.006 3.536 34.551 0.319 10.648 2.874 20.948 3.226 31.597 0.47 12.824 0.58 25.611 1.357 38.438 0.899 14.379 2.297 28.873 1.981 43.293 2.529-1.628 1.748-8.355 2.139-10.884 0.97-6.256 3.226-12.241 4.195-18.497 2.684-17.063 5.479-33.578 5.441-50.833-0.034-12.673-0.072-25.301 0.034-37.97 0.034-9.324-1.477-18.265-1.789-27.516-0.39-11.193 0.072-22.502 0.072-33.732 0-29.342-0.034-58.763 0-88.144 0-3.188 0.034-6.337 0.034-9.526h93.74c16.011 0 31.984 0.033 47.995 0 8.085 0 15.662 2.919 23.63 2.799 10.531-0.2 20.675 0.099 31.131-2.679 12.32-3.309 25.493-4.817 37.58-9.596 8.123-3.228 17.255-4.398 25.689-6.177 7.423-1.518 14.263-3.27 21.762-3.309 13.486 0 27.282 1.359 40.731-0.599 9.715-1.44 19.277-2.138 29.030-2.099h-332.747c-6.336 0-12.707 0-19.082 0-0.279-3.309-0.62-6.567-1.169-9.876-0.62-3.769-0.97-7.496-1.203-11.23 3.769 6.765 11.967 6.026 20.168 4.897 10.455-1.479 19.979-4.077 29.887-7.657 8.085-2.919 16.206-2.569 24.483-4.157 8.513-1.67 16.127-5.828 24.524-7.856 7.189-1.709 14.146-4.307 21.22-6.256 6.491-1.748 13.835-2.919 20.134-5.367 4.002-1.518 7.731-3.888 11.776-5.446 5.402-2.138 6.527-3.337 10.61-7.076 1.477-1.359 4.12-3.998 5.789-5.127 2.252-1.511 5.284-1.939 7.694-3.619 2.993-2.059 5.402-4.897 8.201-7.076 3.615-2.799 6.803-6.298 10.027-9.554 3.108-3.188 4.040-6.765 6.607-10.106 2.874-3.729 5.866-7.427 8.43-11.502 2.488-3.927 3.773-9.015 4.589-13.527 0.429-2.179 2.369-5.636 2.176-7.615-2.098 1.79-3.499 4.388-5.441 6.416-4.119 4.317-9.171 7.575-13.835 11.271-9.133 7.306-19.51 12.437-29.222 18.77-9.873 6.377-21.844 10.338-30.819 17.837-4.703 3.927-7.423 6.606-13.293 9.256-4.585 2.059-9.209 3.927-13.406 6.646-8.588 5.636-17.683 8.355-27.595 10.765-10.182 2.487-20.171 5.517-30.548 7.615-10.531 2.179-21.569 2.799-32.255 4.508-7.189 1.129-13.253 2.64-20.326 2.838-0.034-3.499-0.034-7.037-0.034-10.648 0.034-11.816-0.209-23.512-0.58-35.171 5.946-1.748 11.776-3.888 17.334-5.828 9.482-3.309 18.304-6.147 27.324-10.688 3.067-1.549 6.138-3.068 9.209-4.628 5.672-2.879 12.282-4.667 17.721-7.845 2.993-1.709 4.819-4.589 7.539-6.646 2.721-2.138 5.833-3.848 8.588-5.948 7.112-5.328 13.099-11.384 19.743-17.255 4.006-3.499 5.405-7.147 8.046-11.889 1.788-3.27 4.859-5.517 6.491-8.785 1.124-2.3 1.361-5.056 2.292-7.427 10.223-26.117 9.64-55.456 9.64-83.362-0.034-6.416-0.034-12.125-1.632-18.269-1.477-5.597-4.936-9.055-8.397-13.797-3.071-4.278-5.634-6.716-9.249-9.755 0.739 3.27 1.552 6.496 2.214 9.755 1.205 6.107 0.39 12.982 0.39 19.199 0 5.906 1.128 13.022 0.072 18.772-0.62 3.418-2.758 6.918-3.848 10.299-1.323 4.197-2.369 8.516-3.691 12.669-2.917 9.256-7.697 17.217-12.125 25.73-1.864 3.578-3.574 7.806-6.182 10.842-2.33 2.679-5.013 4.937-7.112 7.856-4.976 6.755-11.579 10.997-17.837 16.323-3.848 3.27-8.356 5.438-12.204 8.627-4.311 3.499-6.607 5.597-12.087 7.537-4.623 1.628-8.667 3.998-13.289 5.838-10.339 3.998-21.183 6.135-31.755 9.515-1.905-25.572-3.342-50.833-3.221-76.562 0.034-9.996-1.556-19.743-1.789-29.692-0.109-4.468-0.109-8.935-0.072-13.444 5.754-1.869 11.35-4.858 14.809-7.306 3.924-2.799 9.171-5.786 12.125-9.554 2.758-3.499 6.528-7.466 8.705-11.271 2.526-4.426 4.195-8.825 4.507-14.068 0.35-6.298 3.033-13.445 2.567-19.743-0.251-3.578-1.169-7.306-2.098-10.573-1.632-5.396-2.488-12.903-5.871-17.566-2.758 0.301-5.13 9.486-5.905 11.659-1.748 5.056-2.021 9.246-2.021 14.572 0 5.166-0.251 16.946 8.472 9.946-0.109 0.701-0.251 1.319-0.429 1.939-1.203 3.578-3.615 7.187-5.010 10.802-2.993 7.926-8.629 14.729-13.022 21.881-3.886 6.217-10.261 9.515-16.787 12.553 0.034-2.989 0.072-6.026 0.109-9.055 0.034-15.196-2.917-29.691-3.304-44.849-0.429-17.063-4.123-34.24-6.375-51.145-0.39-2.799-0.429-5.636-0.429-8.474 4.507-0.8 9.133-1.709 13.602-1.628 10.415 0.099 20.788 0.034 31.206 0.034 14.226 0 28.451-0.499 42.557 1.978 7.732 1.398 17.218 3.379 24.445 6.256 19.976 7.965 40.339 15.192 60.044 23.901 6.803 3.028 13.797 5.718 20.638 8.516 8.705 3.619 18.071 5.396 26.892 8.896 7.892 3.107 16.673 6.458 24.212 10.377 4.976 2.608 8.356 7.076 12.32 10.881 4.859 4.707 6.299 9.876 9.054 15.856 1.205 2.608 2.684 4.897 4.161 7.268 3.962 6.298 6.412 12.591 9.249 19.431 3.574 8.627 8.356 16.438 12.94 24.524 4.044 7.076 7.464 14.068 15.391 17.682 2.838 1.28 5.833 1.628 8.784 2.64 4.664 1.589 5.13 2.679 8.356 5.166 3.033 2.368 7.074 3.337 10.377 5.558 1.323 0.899 2.8 1.949 4.156 2.759 1.864 1.008 3.226 0.998 5.052 1.9 2.762 1.359 4.819 5.676 4.936-0.301-0.659 2.679 2.917 6.957 4.352 9.206 2.567 3.967 4.781 6.416 8.904 8.436 8.938 4.398 16.98 11.389 26.388 14.456 8.005 2.608 23.279 2.799 31.323-1.2 2.642-1.319 5.634-4.048 7.423-6.256 4.428-5.558-1.944-4.547-6.22-4.589z"></path>
    <path fill="#000000" d="M400.551 514.524c-3.924-2.989-7.423-5.796-11.114-9.094-5.946-5.367-11.193-14.263-15.662-20.909-5.168-7.615-11.583-15.154-15.353-23.587-5.168-11.389-9.366-23.979-12.978-35.913-1.71-5.636-3.924-11.929-5.13-17.605-0.466-2.289 0.353-4.547-1.905-6.217-9.795-14.38-16.402-7.696-18.657-5.098-3.149 3.658-5.208 6.068-6.138 10.881-1.052 5.127-3.342 10.648-3.615 15.895-0.546 10.027 3.221 18.928 3.379 28.685 0.071 5.786 1.946 10.997 4.198 16.281 1.168 2.799 1.827 5.558 2.796 8.397 1.245 3.729 4.198 5.597 6.375 8.627 4.315 5.987 8.085 13.019 13.643 18.071 4.157 3.769 10.027 6.458 14.613 9.834 11.971 8.896 23.084 18.342 37.036 23.783 10.066 3.927 17.841 9.674 28.838 9.645 6.336-0.034 13.369 1.319 18.578-2.919-2.487-5.046-8.513-6.836-12.865-9.716-4.897-3.298-11.501-5.866-15.778-9.795-2.098-1.978-2.954-3.848-5.325-5.517-1.748-1.28-3.266-2.448-4.936-3.729z"></path>
    <path fill="#000000" d="M271.707 542.445c-4.078-4.937-9.016-9.366-12.903-14.417-4.626-5.906-8.239-13.331-11.816-19.938-2.409-4.426-3.732-9.015-5.284-13.715-0.699-2.138-1.981-4.157-1.632-6.496-3.808 3.927-2.292 4.817-1.788 6.797 0.466 1.83 0.034 3.769 0.281 5.636 0.587 4.278 2.488 9.136 4.044 13.174 1.71 4.508 2.758 7.346 5.789 10.964 3.498 4.239 6.646 8.896 9.949 13.328 3.732 4.979 7.615 10.494 11.734 15.158 3.342 3.808 5.637 7.537 8.667 11.583 5.754 7.696 13.952 15.425 21.22 21.686 4.589 3.888 10.574 7.187 15.898 9.985 5.75 2.989 10.88 7.105 16.631 9.985 12.241 6.147 23.554 13.914 35.912 20.018 5.672 2.759 10.959 6.918 16.98 8.315 6.724 1.518 12.828 4.239 19.277 6.727 6.803 2.679 14.809 1.589 22.036 1.589 2.762 0 14.222 1.79 14.884-1.239-2.758-0.599-4.856-1.869-7.423-2.919-3.769-1.518-7.848-1.978-11.618-3.539-7.93-3.228-16.364-5.828-24.019-9.674-10.106-5.088-20.017-10.257-30.119-15.233-12.673-6.298-25.457-12.707-36.648-21.496-4.743-3.687-9.562-5.948-14.575-9.094-5.479-3.457-10.062-8.237-15.469-11.85-11.114-7.505-21.337-14.886-30.004-25.34z"></path>
    <path fill="#000000" d="M426.731 359.541c-9.949 3.309-11.892 4.817-13.369 6.567-1.71 2.059-2.214 4.468-3.731 6.527-2.021 2.679-2.762 2.25-2.917 6.058-0.429 9.175-0.251 17.955 2.488 26.738 3.42 10.885 11.23 17.255 20.909 22.426 7.228 3.848 15.702 9.175 24.407 6.337-3.927-3.107-8.551-5.838-11.737-9.645-2.214-2.569-3.769-5.747-6.062-8.397-2.838-3.309-5.325-5.866-6.723-10.106-0.899-2.679-1.012-5.636-1.981-8.315-0.591-1.709-2.139-3.309-2.684-4.979-1.283-4.239-0.279-10.261-0.279-14.613 0-3.539-0.541-7.657-0.034-11.196 0.319-2.529 2.176-4.817 1.71-7.427z"></path>
    <path fill="#000000" d="M145.066 248.72l-39.99 5.866c25.381 0 50.795 0.034 76.175 0-8.784-0.4-17.643-1.359-26.388-2.958-3.109-0.499-6.686-3.888-9.795-2.919z"></path>
    <path fill="#000000" d="M235.54 254.485c-18.108 0.099-36.183 0.099-54.293 0.099 0.659 0.034 1.323 0.099 1.981 0.099 24.483 0.701 49.006 0.099 73.53-0.072-7.152-0.499-14.417-0.2-21.22-0.2z"></path>
    </svg>