<svg xmlns="http://www.w3.org/2000/svg" viewBox="-9.467 14.662 1048.933 993.526">
    <path fill="#000000" d="M800.2 469.108c-4.697 0.924-5.51 2.461-8.976 3.466-4.593 1.42-9.697 2.662-14.592 3.672-1.94 0.318-3.672 0.521-5.611 1.126-2.461 0.721-4.798 1.42-7.249 2.054-2.344 0.721-4.899 0.721-7.044 1.534-0.807 0.204-2.259 0.403-2.054 1.126 1.328-0.203 2.957 0.521 4.391 0.604 2.461 0.101 5.102 0.604 7.35 1.126 2.142 0.604 3.772 1.328 6.018 1.738 2.344 0.318 5.003 1.014 7.044 1.823 4.186 1.738 8.163 3.978 8.368 7.555 0.101 1.534-0.203 3.164 0.101 4.697 0.203 0.604 0.403 1.126 0.403 1.738-0.101 1.126-0.721 2.259-1.014 3.365-0.521 2.054-0.203 4.186-0.807 6.223-0.604 2.142-1.534 4.29-2.054 6.425-0.924 4.186-3.365 8.163-5.306 12.246-1.217 2.545-2.865 4.899-3.978 7.451-0.604 1.217-1.014 2.461-1.621 3.672-0.721 1.534-1.738 2.865-2.545 4.29-0.924 1.738-1.42 3.672-3.060 5.102-0.924 0.924-2.344 1.42-3.164 2.344-7.555 8.57-20.102 14.794-34.086 17.039-7.656 1.217-15.207 2.957-22.96 3.978-2.662 0.318-5.205 0.403-7.756 0.318-0.604 0.101-1.126 0.101-1.621 0.204-2.259 0.318-4.593 0.318-6.838 0.521-6.838 0.721-13.472 0.403-19.896-0.721-1.42-0.204-2.747-0.721-4.186-0.924-1.42-0.204-2.747-0.403-4.082-0.807-1.328-0.403-2.865-0.521-4.29-0.924-1.42-0.318-2.344-0.924-3.57-1.534-2.865-1.217-5.205-2.747-7.756-4.29-1.42-0.807-3.164-1.42-4.491-2.461-1.014-0.721-2.142-1.534-3.265-2.259-2.259-1.328-4.593-2.545-6.734-3.978-1.014-0.721-1.738-1.621-2.747-2.344-1.126-0.807-2.259-1.534-3.164-2.461-0.807-0.721-2.259-1.738-2.259-2.747 0-0.721 0.721-1.534 0.924-2.344 0.318-0.924 0.604-1.823 0.521-2.747 0 0 0-0.101 0-0.101-1.217-1.014-2.545-1.94-4.186-2.545-4.798-1.849-5.306-0.721-9.49 0.721-6.122 2.054-13.166 3.265-19.288 6.122-10.92 5.205-19.796 9.594-32.452 12.246 3.265-3.365 8.267-5.715 11.835-8.976 2.662-2.461 4.899-5.205 7.656-7.656 7.656-6.838 18.063-11.428 25.101-18.471 6.223-6.223 11.121-11.732 18.576-17.446 7.756-5.917 17.758-10.107 26.227-15.207 0.807-0.521 1.621-0.924 2.344-1.328 0.101 0 0.101 0 0.101 0 1.126 0.203 2.142 0.318 3.164 0.604 0.721 0.203 1.621 0.318 2.344 0.521 0.521 0.101 0.807 0.403 1.328 0.604 1.014 0.403 2.054 0.721 2.957 1.217 2.461 1.42 5.003 2.747 7.35 4.29 2.054 1.217 3.772 2.662 5.917 3.876 2.142 1.217 4.186 2.344 6.018 3.876 3.164 2.461 6.529 4.798 9.697 7.249 1.42 1.014 2.662 2.054 3.876 3.164 0.604 0.521 0.924 1.014 1.42 1.534 0.521 0.604 1.217 1.014 1.738 1.621 2.461 2.344 5.102 4.798 7.044 7.451 1.823 2.344 3.772 4.697 5.306 7.143 1.42 2.142 3.060 4.082 5.003 6.018 1.42 1.621 2.865 3.164 4.491 4.595 1.534 1.534 3.164 3.164 5.003 4.491 1.534 1.126 2.662 2.344 4.082 3.466 0.924 0.604 2.054 1.217 2.865 2.054-0.403-0.807 0.721-2.259 0.807-3.060 0-0.521-0.403-1.014-0.403-1.534 0.101-0.604 0.203-1.014 0.203-1.621 0-0.521 0.204-1.014 0.101-1.621-0.101-0.721 0-1.217 0.204-1.94 0.101-0.721-0.101-1.217-0.101-1.94 0.101-0.521 0.318-1.014 0.203-1.534-0.203-1.217-0.203-2.259-0.203-3.466 0.101-1.621-0.318-3.164-0.721-4.798-0.403-1.534-0.721-3.060-1.126-4.491-0.204-0.924-0.403-1.738-0.604-2.662-0.204-1.126-0.807-1.94-1.217-3.060-0.521-1.014-0.924-2.142-1.42-3.164-0.318-0.807-1.126-1.42-1.42-2.259-0.604-1.217-0.924-2.545-1.534-3.772-0.318-0.721-0.721-1.534-1.126-2.259-0.318-0.721-0.807-1.42-1.217-2.054-0.924-1.217-1.621-2.662-2.747-3.672-1.328-1.217-2.545-2.461-3.772-3.772-1.534-1.42-3.060-2.865-4.391-4.29-1.534-1.94-3.365-3.672-5.205-5.41-0.721-0.721-1.217-1.534-2.054-2.259-0.807-0.604-1.849-0.924-2.747-1.42-2.142-1.126-3.876-2.662-5.917-3.772-2.344-1.217-5.41-2.054-7.858-3.164-2.054-0.924-4.29-1.42-6.529-2.054 13.472-3.672 27.758-6.223 41.227-8.469 13.266-2.259 26.534-4.391 39.7-6.734 7.044-1.217 12.040-0.604 18.878-0.924 6.223-0.403 12.961-4.082 16.226 1.328-2.957-1.534 10.409-4.595 14.794 0.203-2.957 2.865-7.858 2.662-12.35 3.57zM601.040 673.899c-3.57-0.721-7.249-1.014-11.225-1.014-25.818 0-42.455 14.081-50.103 32.248-6.942 1.621-14.081 2.461-21.43 1.94-3.265-0.318-6.425-0.924-9.386-1.738-7.044-19.591-24.186-35.208-51.23-35.208-6.529 0-12.454 0.924-17.758 2.662-2.747-6.529 1.126-15.002 11.835-14.794 25.001 0.403 40.311 6.122 61.946 14.692 14.794 5.917 19.288-0.721 33.165-5.306 13.065-4.491 27.553-5.102 41.532-5.41 9.080-0.204 13.266 6.018 12.655 11.935zM390.618 540.834c-1.534 0.604-2.957 1.534-4.186 2.545 0 0 0 0.101 0 0.101 0 0.924 0.318 1.823 0.604 2.747 0.204 0.807 0.924 1.621 0.924 2.344 0 1.014-1.42 2.054-2.259 2.747-0.924 0.924-2.054 1.621-3.060 2.461-1.014 0.721-1.738 1.621-2.747 2.344-2.142 1.42-4.491 2.747-6.63 4.082-1.126 0.721-2.259 1.534-3.265 2.344-1.328 0.924-3.060 1.534-4.491 2.461-2.545 1.534-4.899 3.060-7.756 4.391-1.126 0.521-2.142 1.217-3.466 1.534-1.42 0.318-2.957 0.521-4.391 0.924-1.328 0.403-2.545 0.604-3.978 0.924-1.534 0.203-2.747 0.604-4.186 0.924-6.428 1.126-13.065 1.534-19.796 0.807-2.344-0.204-4.697-0.101-6.942-0.403-0.521-0.101-1.014-0.101-1.621-0.204-2.545 0.101-5.102 0.101-7.858-0.318-7.656-0.924-15.311-2.545-22.958-3.672-13.98-2.142-26.534-8.267-34.291-16.938-0.721-0.807-2.142-1.328-3.164-2.259-1.621-1.42-2.142-3.365-3.060-5.003-0.807-1.534-1.94-2.747-2.662-4.29-0.604-1.217-1.014-2.545-1.621-3.772-1.217-2.461-2.747-4.798-3.978-7.35-2.054-4.082-4.593-7.962-5.51-12.246-0.521-2.142-1.534-4.29-2.142-6.425-0.604-2.054-0.318-4.082-0.924-6.122-0.318-1.126-0.924-2.259-1.014-3.365-0.101-0.604 0.204-1.217 0.318-1.738 0.318-1.534 0-3.164 0.101-4.697 0.101-3.57 4.082-5.917 8.267-7.656 2.054-0.807 4.697-1.534 7.044-1.94 2.259-0.403 3.876-1.126 6.018-1.738 2.259-0.604 4.899-1.014 7.35-1.126 1.42-0.101 2.957-0.924 4.391-0.721 0.204-0.721-1.328-0.924-2.054-1.126-2.259-0.807-4.798-0.807-7.143-1.42-2.344-0.604-4.798-1.328-7.249-2.054-1.94-0.521-3.672-0.721-5.611-1.126-4.899-0.924-10.003-2.054-14.692-3.466-3.466-1.014-4.287-2.545-8.976-3.362-4.491-0.924-9.386-0.604-12.35-3.57 4.29-4.798 17.758-1.823 14.794-0.318 3.164-5.41 10.003-1.738 16.226-1.42 6.734 0.318 11.835-0.403 18.878 0.807 13.166 2.142 26.433 4.29 39.7 6.428 13.573 2.142 27.858 4.491 41.43 8.063-2.259 0.721-4.491 1.217-6.529 2.142-2.545 1.126-5.51 1.94-7.858 3.265-2.054 1.126-3.772 2.662-5.817 3.772-1.014 0.521-2.054 0.807-2.747 1.42-0.807 0.721-1.328 1.534-2.054 2.259-1.849 1.738-3.672 3.57-5.205 5.41-1.217 1.534-2.865 2.957-4.29 4.391-1.217 1.328-2.461 2.545-3.772 3.772-1.126 1.126-1.823 2.545-2.662 3.672-0.521 0.604-0.924 1.42-1.217 2.142-0.318 0.721-0.807 1.42-1.126 2.259-0.521 1.217-0.807 2.545-1.42 3.772-0.318 0.807-1.126 1.42-1.42 2.259-0.521 1.014-0.924 2.142-1.328 3.164-0.403 1.126-1.014 1.94-1.217 3.060-0.204 0.924-0.403 1.738-0.604 2.662l-1.014 4.595c-0.403 1.621-0.807 3.060-0.721 4.798 0 1.126 0 2.259-0.204 3.365-0.101 0.604 0.204 1.014 0.204 1.621 0.101 0.604-0.101 1.217 0 1.849 0.203 0.721 0.318 1.217 0.203 1.94-0.101 0.604 0.101 1.126 0.101 1.738 0 0.521 0.204 1.014 0.204 1.534s-0.403 1.014-0.318 1.534c0.101 0.807 1.217 2.259 0.807 3.060 0.721-0.721 1.823-1.42 2.747-2.054 1.534-1.126 2.545-2.344 4.082-3.466 1.823-1.328 3.466-2.957 5.003-4.491 1.534-1.534 2.957-3.060 4.391-4.697 1.94-1.94 3.57-3.876 4.899-6.018 1.534-2.461 3.466-4.899 5.306-7.249 1.94-2.662 4.491-5.102 6.838-7.451 0.604-0.604 1.328-1.014 1.823-1.621 0.403-0.604 0.807-1.014 1.42-1.534 1.217-1.126 2.461-2.259 3.772-3.265 3.060-2.545 6.428-4.899 9.594-7.35 1.823-1.42 3.876-2.662 6.018-3.876 2.054-1.217 3.876-2.662 5.817-3.978 2.344-1.534 4.899-2.865 7.35-4.29 0.924-0.604 1.94-0.807 2.957-1.217 0.403-0.203 0.807-0.521 1.328-0.721 0.721-0.203 1.534-0.203 2.344-0.521 1.014-0.318 2.054-0.403 3.164-0.604 0 0 0 0 0 0 0.807 0.403 1.621 0.807 2.461 1.217 8.57 5.102 18.576 9.283 26.433 15.106 7.451 5.611 12.454 11.121 18.778 17.345 7.143 6.942 17.55 11.428 25.306 18.27 2.747 2.344 5.003 5.102 7.656 7.555 3.57 3.265 8.674 5.51 11.939 8.876-12.658-2.662-21.534-6.838-32.554-11.935-6.122-2.865-13.166-4.082-19.288-6.018-4.186-1.42-4.697-2.461-9.594-0.604zM950.059 788.995c-4.391-7.854-7.555-15.71-14.386-22.547-11.225-11.021-27.758-22.755-42.964-29.799-16.022-7.555-32.859-14.081-49.289-20.923-1.94-0.924-4.082-1.94-6.223-2.865 3.060-4.798 4.798-9.387 7.044-14.592 3.164-7.044 7.555-13.674 10.816-20.821 8.163-17.862 17.862-34.699 27.858-51.941 2.545-4.491 3.57-9.283 5.205-13.98 3.164-9.387 6.425-17.964 8.163-27.246 5.611-14.592 8.57-29.799 9.080-45.006 0.403-1.014 0.721-2.054 0.924-3.060 1.014-4.595 0.403-9.283 0.403-13.98 0-7.555-0.924-13.368-3.57-20.617-0.403-1.126-1.014-2.142-1.534-3.265-3.466-16.125-9.182-32.147-16.531-47.554 0.318-1.94 0.403-3.978 0.318-6.122-0.318-3.57-1.621-5.306-2.344-8.674-1.534-7.756-6.428-16.125-10.107-23.269-3.466-6.63-10.107-14.592-16.326-19.49-2.344-1.94-5.611-3.365-5.611-6.734 0-2.054 2.545-6.324 3.57-8.57 4.491-9.386 13.98-16.43 18.878-25.818 2.259-4.391 5.51-8.876 6.942-13.368 1.014-3.672 3.060-6.324 4.491-9.801 3.265-8.57-1.738-17.244-4.391-25.001-2.344-7.044-4.798-13.368-4.694-20.821 0.097-3.060-0.403-5.309-1.217-7.962-0.521-1.823-2.545-4.798-2.957-6.425-1.126-4.595-2.054-12.861-0.721-17.55 1.328-4.593 4.491-9.283 6.734-13.877 2.344-5.003 5.003-10.107 7.35-15.002 0.318-0.604 0.604-1.217 0.807-1.823-31.944-10.614-27.351-58.064 13.773-58.064 5.306 0 10.003 0.924 14.185 2.344 1.126-3.365 2.461-6.63 3.672-9.901 7.143-20.41 7.143-51.027-22.652-58.37-7.35-1.823-18.983 1.823-26.127 3.978-8.368 2.545-15.002 8.775-21.43 13.573-10.107 7.555-20.203 14.692-30.613 21.941-7.451 5.309-18.166 10.208-24.186 16.43-4.491 4.491-8.976 7.656-14.692 11.327-14.185 9.182-28.47 18.166-43.881 25.922-7.35 3.672-12.35 3.876-20.717 3.876-9.801 0-18.676-0.721-28.265-2.259l-0.924-1.738h-6.734c-9.901-2.461-19.49-6.223-29.29-8.063-6.942-1.217-14.081-0.101-21.024 0.924-8.876-3.672-13.472-12.040-22.958-15.207-9.594-3.365-22.755-1.94-32.248 0.521-7.044 1.823-14.692 5.003-22.448 7.35-4.899-2.957-9.594-6.223-15.411-7.451-7.35-1.534-13.065 2.344-18.778 5.917-5.817-3.57-11.528-7.451-18.878-5.917-5.817 1.217-10.513 4.491-15.411 7.451-7.756-2.344-15.411-5.51-22.448-7.35-9.49-2.461-22.652-3.876-32.248-0.521-9.49 3.164-14.081 11.528-22.855 15.207-7.044-1.014-14.185-2.142-21.128-0.924-9.801 1.823-19.389 5.611-29.29 8.063h-6.63l-1.014 1.738c-9.49 1.534-18.471 2.259-28.265 2.259-8.368 0-13.368-0.203-20.717-3.876-15.411-7.756-29.697-16.733-43.881-25.922-5.715-3.672-10.107-6.838-14.592-11.327-6.126-6.223-16.841-11.121-24.19-16.43-10.413-7.246-20.618-14.386-30.717-21.941-6.428-4.798-13.065-11.021-21.43-13.573-7.143-2.142-18.778-5.817-26.127-3.978-29.799 7.35-29.799 37.963-22.548 58.37 2.054 6.018 4.899 12.142 6.018 18.371 0.521 3.265 0.924 5.41 2.865 8.368 4.595 7.35 4.391 16.531 9.387 23.474 1.94 2.747 4.697 4.082 7.143 6.223 3.876 3.57 4.899 6.838 6.942 11.021 2.344 4.899 5.102 10.003 7.451 15.002 2.142 4.593 5.306 9.283 6.63 13.877 1.328 4.697 0.403 12.961-0.721 17.55-0.318 1.621-2.461 4.595-2.957 6.425-0.807 2.662-1.217 4.899-1.217 7.962 0.101 7.451-2.344 13.773-4.697 20.821-2.662 7.756-7.656 16.43-4.29 25.001 1.328 3.469 3.365 6.122 4.391 9.801 1.42 4.491 4.697 8.976 6.942 13.368 5.003 9.387 14.386 16.43 18.878 25.818 1.014 2.259 3.57 6.529 3.57 8.57 0 3.365-3.164 4.798-5.611 6.734-6.223 4.899-12.861 12.861-16.226 19.49-3.772 7.143-8.674 15.513-10.208 23.269-0.604 3.365-2.054 5.102-2.344 8.674-0.102 2.142 0 4.186 0.318 6.122-7.35 15.411-13.062 31.434-16.531 47.554-0.521 1.126-1.014 2.142-1.534 3.265-2.662 7.249-3.57 13.065-3.57 20.617 0 4.697-0.604 9.387 0.403 13.98 0.203 1.014 0.604 2.054 0.924 3.060 0.521 15.207 3.466 30.409 9.080 45.006 1.738 9.283 5.003 17.862 8.163 27.246 1.621 4.697 2.662 9.49 5.306 13.98 9.901 17.244 19.591 34.086 27.858 51.941 3.164 7.143 7.555 13.778 10.715 20.821 2.344 5.205 3.978 9.801 7.044 14.592-2.142 0.924-4.29 1.94-6.223 2.865-16.326 6.838-33.267 13.368-49.289 20.923-15.106 7.044-31.739 18.778-42.862 29.798-6.942 6.838-10.104 14.692-14.488 22.548-3.060 5.51-7.249 10.82-9.387 16.633 3.978-4.798 10.82-8.163 16.33-11.528 13.674-8.469 26.127-16.022 41.329-22.755 10.208-4.491 19.695-9.49 30.104-13.573 5.715-2.259 11.633-4.082 16.837-7.143 9.697-5.715 20.41-8.775 31.226-12.454 1.014-0.318 1.823-0.604 2.865-0.924 0.604 0.521 1.217 1.126 1.823 1.738 4.391 3.466 8.775 6.838 13.166 10.107-2.259 1.534-4.391 3.060-6.838 4.697-11.528 8.063-21.635 17.862-32.35 26.739-9.080 7.555-19.695 14.592-25.922 24.186-2.142 3.164-5.51 7.656-5.003 11.528 0.318 2.259-0.721 3.57 2.259 4.29 3.672 1.014 16.737-8.775 19.389-10.107 16.837-8.267 32.554-17.964 49.289-26.227 4.593-2.259 10.003-3.164 14.898-5.306 2.865-1.217 5.003-1.94 8.163-2.461 2.259-0.403 4.391-0.721 6.425-1.126 3.672 3.772 7.35 7.656 11.225 11.327-7.451 10.308-16.125 16.531-27.351 23.575-7.35 4.595-15.207 17.654-12.655 25.408 8.57-5.102 15.106-9.697 25.101-12.861 10.409-3.265 20.102-8.976 30.613-11.528 2.957-0.721 6.122-1.126 9.387-1.328 25.001 21.941 51.84 42.25 80.621 60.716 30.308 21.736 65.006 41.227 101.232 51.739 14.692 4.186 28.678 5.817 42.354 5.611 13.573 0.207 27.653-1.42 42.25-5.611 36.224-10.513 70.923-30.002 101.231-51.739 28.78-18.471 55.718-38.777 80.622-60.716 3.265 0.204 6.428 0.604 9.387 1.328 10.614 2.545 20.203 8.264 30.613 11.528 10.003 3.164 16.633 7.756 25.101 12.861 2.545-7.756-5.306-20.821-12.554-25.408-11.327-7.044-19.896-13.266-27.347-23.575 3.772-3.672 7.451-7.555 11.121-11.327 2.054 0.403 4.186 0.721 6.529 1.126 3.060 0.521 5.205 1.217 8.063 2.461 4.899 2.142 10.308 3.060 15.002 5.306 16.633 8.267 32.35 17.964 49.187 26.227 2.662 1.328 15.718 11.121 19.389 10.107 2.957-0.721 1.94-2.054 2.259-4.29 0.521-3.876-2.865-8.368-4.899-11.528-6.223-9.594-16.938-16.633-26.026-24.186-10.715-8.876-20.821-18.676-32.35-26.739-2.344-1.621-4.593-3.164-6.838-4.697 4.491-3.265 8.876-6.63 13.166-10.107 0.721-0.604 1.328-1.217 1.94-1.738 0.924 0.318 1.738 0.604 2.747 0.924 10.816 3.672 21.534 6.734 31.226 12.454 5.205 3.060 11.121 4.899 16.837 7.143 10.409 4.082 19.896 9.080 30.104 13.573 15.207 6.734 27.653 14.285 41.43 22.755 5.41 3.365 12.246 6.734 16.226 11.528-2.142-5.817-6.324-11.121-9.387-16.633z"></path>
    </svg>