<svg xmlns="http://www.w3.org/2000/svg" viewBox="5.346 -1.572 1031.308 1071.998">
    <path fill="#000000" d="M401.82 469.623c6.832-9.499 16.563-17.042 24.708-25.386 11.361-11.517 24.11-20.296 38.332-28.039 3.099-1.705 5.76-4.454 8.898-5.924 2.741-1.267 6.037-1.583 8.898-2.778 9.572-4.055 19.503-6.476 29.592-9.021 7.109-1.829 15.015-3.617 22.283-3.85 6.554-0.203 11.161 2.104 17.477 3.053 8.223 1.278 15.729 2.308 23.675 4.647 8.977 2.626 18.987 4.209 27.249 8.5 3.496 1.829 6.592 4.371 10.089 6.077 2.583 1.235 5.679 1.511 8.064 3.096 3.335 2.227 5.999 5.956 9.414 8.347 4.41 3.136 8.42 6.507 11.997 10.564 5.957 6.833 8.064 15.175 11.438 23.517 3.496 8.58 5.363 17 6.792 26.134 0.436 2.9 1.549 4.842 2.541 7.467 1.191 3.219 1.231 6.753 2.502 9.93 2.344 5.762 4.884 11.317 6.87 17.319 0.794 2.34 1.273 4.647 1.866 7.029 0.597 2.267 2.305 4.248 2.9 6.077 0.714 2.227-0.159 4.371 0.238 6.559 0.436 2.422 1.628 4.045 1.866 6.548 1.231 13.706 0.794 29.514-1.669 42.778-2.939 15.93-21.966 25.459-32.53 35.828-8.898 8.662-19.862 13.902-28.956 22.087-4.766 4.291-9.889 6.793-15.212 10.165-8.898 5.598-17.437 12.952-27.287 15.373-14.777 3.574-30.466 4.055-46.077 3.452-11.638-0.409-22.125-8.387-33.324-11.161-3.257-0.819-6.237-0.612-9.612-1.155-3.019-0.51-5.56-1.941-8.461-2.707-3.057-0.819-5.64-0.51-8.578-1.941-3.535-1.746-6.592-4.016-10.209-5.638-8.62-3.893-16.604-9.807-25.182-14.061-4.132-2.064-5.521-4.331-8.74-7.304-3.415-3.176-8.343-4.567-12.155-7.192-5.879-4.016-8.223-10.802-11.438-17-4.368-8.416-6.634-18.869-8.462-28.202-3.257-16.284-12.749-30.506-11.997-47.625 0.316-7.345 3.138-15.212 4.688-22.44 1.191-5.323 1.549-10.724 2.622-16.046 0.555-2.778 2.186-5.403 0.952-8.224-2.78-0.203-6.037 5.956-6.95 8.304-1.908 4.647-1.431 9.889-2.939 14.776-0.994 3.176-1.349 5.997-2.105 9.091-3.177 13.145-1.311 28.876-1.311 42.662 0 9.061-0.913 18.627-0.079 27.643 0.794 8.857 3.812 18.115 5.601 26.852 2.86 13.984 5.084 28.401 13.188 40.516 2.78 4.168 8.064 9.369 12.155 12.233 9.811 6.793 20.892 9.531 31.378 14.696 4.249 2.145 8.261 3.893 12.63 5.679 5.163 2.145 9.175 6.16 14.18 8.304 3.694 1.593 6.473 2.187 9.889 4.69 4.291 3.176 8.578 5.956 13.346 8.459 15.212 8.101 31.181 8.101 48.062 7.671 12.194-0.307 22.999-4.414 34.558-7.59 13.505-3.698 25.899-8.938 39.084-13.622 7.745-2.778 16.326-5.24 23.316-9.571 9.772-5.997 21.925-10.522 29.832-18.667 6.157-6.355 14.457-10.133 19.503-17.874 4.291-6.631 8.698-13.625 10.606-21.368 1.788-7.232 2.422-14.618 4.291-21.847 1.033-4.055 1.669-7.988 2.263-12.114 1.589-10.205 4.568-20.776 5.004-31.060 0.478-10.288 1.153-20.378 1.51-30.583 0.119-3.382 1.191-6.16 1.51-9.419 0.398-3.535-0.477-6.793-0.952-10.324-0.875-6.917-1.669-13.903-2.105-20.855-0.952-13.864-6.434-29.513-11.835-42.303-3.335-7.783-8.977-17.315-14.499-23.713-2.422-2.821-5.123-5.28-7.468-8.141-3.296-3.973-5.679-8.54-8.898-12.511-12.275-15.212-28.043-26.412-46.633-32.53-6.195-2.023-12.472-4.443-18.747-5.914-5.323-1.235-10.486-0.919-15.888-0.919-16.484 0.073-33.009 0-49.493 0h-37.578c-8.74 0-18.154-1.072-26.694 0.919-6.118 1.431-15.212 2.738-20.933 5.721-5.323 2.821-9.612 7.272-15.133 9.969-5.443 2.655-11.2 4.802-15.849 8.814-4.449 3.85-8.461 8.58-12.631 12.748-5.918 5.874-12.791 12.156-16.763 19.662-3.335 6.355-5.004 12.71-7.587 19.345-2.024 5.117-3.138 10.606-5.363 15.687-1.908 4.495-3.694 9.091 3.218 9.336 2.144 0.073 4.608 0.307 6.712 0.034 2.98-0.307 5.004-2.422 7.348-3.136 2.502-0.819 4.726-0.714 7.267-1.829 1.828-0.819 3.774-2.502 5.918 3.176z"></path>
    <path fill="#000000" d="M568.739 326.553c-0.159 0.409-0.278 0.714-0.436 1.112-1.986-1.705-1.111-3.893-1.153-6.19-0.159-5.721-1.391-11.521-1.827-17.241-0.834-11.002-2.86-21.924-4.688-32.807-1.908-11.599-2.066-23.277-4.249-34.798-1.231-6.395-2.463-12.591-2.938-19.103-0.397-5.557-2.422-10.606-3.138-16.165-1.549-11.245-1.152-22.801-2.821-34.119-0.756-5.168-2.186-10.174-2.583-15.373-0.516-6.2-0.397-13.388-2.105-19.424-2.98-10.645-4.766-21.965-8.064-32.49-2.263-7.152-3.733-14.776-6.87-21.527-2.025 3.412-2.105 7.55-2.583 11.437-1.191 9.612-0.357 19.185-0.952 28.836-0.597 9.133-1.589 17.755-1.589 26.932 0.040 7.55 0.397 15.095-0.794 22.601-2.541 16.245-5.601 33.049-6.037 49.494-0.238 7.345-1.669 14.538-1.747 21.885-0.079 7.631 0.119 14.221-1.627 21.805-2.463 10.764-1.827 22.008-3.415 32.93-0.436 3.014-1.191 5.721-1.669 8.745-0.477 3.176-2.224 5.2-3.099 8.141-1.51 5.158-1.549 10.526-3.733 15.254-2.305 4.965-0.357 10.445-2.702 15.212 5.044-3.299 6.355-9.767 9.334-14.934 3.297-5.638 9.056-20.182 17.16-20.697 6.674-0.51 10.089 8.857 14.457 12.83 1.708 1.511 3.971 2.626 5.521 4.291 3.218 3.452 4.807 8.58 7.189 12.591 2.066 3.452 5.363 8.58 17.16-9.213z"></path>
    <path fill="#000000" d="M737.358 496.874c6.515-0.819 14.973 2.462 20.972 4.209 7.387 2.145 14.102 3.495 21.688 4.69 5.957 0.919 11.438 3.259 17.357 4.371 5.282 1.032 10.845 1.593 16.207 2.023 5.56 0.409 10.525 2.074 16.007 3.024 12.949 2.3 26.018 3.933 38.925 6.395 10.566 1.981 21.409 5.323 32.095 5.997 6.99 0.409 12.433 2.941 18.987 4.69 5.084 1.347 10.209 2.821 15.252 4.248 6.554 1.829 15.849-0.203 21.806 3.382-2.145 2.821-12.194 2.9-15.649 3.34-10.090 1.347-19.9 4.443-29.909 6.149-5.123 0.919-10.328-0.203-15.413 0.612-4.41 0.714-8.817 1.788-13.188 2.615-9.493 1.829-18.948 3.495-28.56 4.729-8.739 1.112-17.518 1.788-26.255 2.655-6.753 0.714-13.308 2.738-20.14 3.259-4.329 0.409-8.142 1.666-12.552 1.666-5.679 0-11.558 1.278-17.198 2.145-5.602 0.919-11.003 2.9-16.723 3.064-1.788 0.034-7.865 0.819-9.175-0.102-5.721-4.209 12.711-21.924 14.141-23.914 2.304-3.176 4.171-5.914 6.673-8.814 2.584-3.064 0.869-4.647-1.51-7.948-6.157-8.416-17.24-13.665-25.779-19.227-4.052-2.615-7.31-6.395-11.48-8.857-2.383-1.39-6.037-1.869 3.415-4.403z"></path>
    <path fill="#000000" d="M573.846 745.546c0.477 3.657 1.627 6.476 1.747 10.245 0.198 6.631-0.040 13.387-0.040 20.019 0 22.72 0.478 45.323-1.272 67.965-1.033 12.949-2.821 25.698-5.084 38.488-1.946 11.002-6.434 21.25-8.462 32.253-0.952 5.128-2.9 8.774-5.243 13.309-2.583 4.965-3.335 10.082-5.401 15.212-3.218 7.906-8.343 14.617-11.717 22.365-1.907 4.371-4.132 9.061-5.918 13.583-1.349 3.495-3.496 7.59-2.9 11.441 0-4.495-0.040-8.938 0.040-13.427 0.119-9.654-2.422-18.785-3.415-28.321-0.875-7.978-4.091-15.212-5.64-23.078-1.708-8.54-1.866-16.88-4.488-25.341-3.296-10.606-6.434-21.172-9.492-31.895-2.422-8.416-7.151-15.25-10.288-23.317-5.799-15.053-9.334-30.979-13.983-46.355-2.702-9.021-4.091-19.86-3.852-29.312 0.159-6.711 2.541-9.376 6.196-14.38 2.066-2.9 2.938-7.152 6.592-5.045 2.702 1.553 4.646 6.559 6.355 9.173 2.78 4.331 7.548 7.59 9.534 12.394 1.746 4.128 2.9 7.192 5.76 10.882 4.012-1.511 6.473-3.34 9.772-6.149 4.249-3.698 8.778-4.924 13.544-7.631 5.56-3.176 10.525-7.315 16.166-10.483 2.621-1.471 7.903-5.638 21.489-12.591z"></path>
    <path fill="#000000" d="M323.472 476.432c0.517 4.647-12.394 5.721-15.452 6.753-10.686 3.657-23.634 5.045-34.797 6.467-13.902 1.829-27.844 3.34-41.787 5.088-9.095 1.155-18.153 3.259-27.287 3.893-5.76 0.409-11.4 1.032-16.96 2.666-12.234 3.535-24.507 7.385-37.099 9.654-6.712 1.235-12.791 3.617-19.303 5.088-7.229 1.633-14.618 1.941-21.847 3.34-7.387 1.431-16.046 3.535-23.594 2.941 8.62 3.176 18.667 2.973 27.765 3.933 12.711 1.347 25.302 3.259 37.974 5.005 14.935 2.023 28.123 8.938 42.898 11.241 15.093 2.3 30.147 4.403 45.282 6.395 9.095 1.195 18.112-0.034 27.168 0.919 6.237 0.714 11.558 1.593 17.873 1.593 7.626 0 15.252 0 22.919 0 3.297 0 7.588 0.612 10.725-0.307-5.401-6.077-14.657-9.021-20.933-14.060-2.821-2.267-5.64-4.607-8.5-6.833-2.144-1.666-5.402-1.952-3.057-4.924 1.273-1.553 5.004-2.543 6.792-3.617 4.488-2.655 9.851-4.647 13.822-8.141 4.449-3.973 9.534-6.946 14.021-10.802 1.549-1.39 2.98-3.738 3.377-26.297z"></path>
    <path fill="#000000" d="M226.389 462.806c0-4.248 0.357-7.152 1.311-11.2 2.225-9.376-0.039-20.058 0.316-29.633 0.794-21.688 8.301-43.058 8.659-64.783 0.039-2.227 1.391-12.234-0.119-14.38-1.986-2.778-4.688-0.035-6.712 1.195-7.348 4.526-13.863 12.075-16.801 20.454-0.794 2.35-0.833 5.168-1.51 7.631-0.875 3.014-1.827 5.598-2.186 8.814-0.675 6.435-2.821 12.433-3.415 18.75-0.675 7.948-2.742 16.403-4.726 23.989-0.875 3.382 0.316 6.874-0.278 10.249-0.278 1.705-1.51 2.707-1.866 4.526-0.478 2.267 0.278 5.077 0.119 7.427-0.316 4.443-1.311 9.612-2.105 14.061-0.597 3.34-1.627 6.588-2.86 9.369 4.488 1.39 10.686 0.409 15.371 0.409 5.601 0 11.2 0 16.801-6.833z"></path>
    <path fill="#000000" d="M229.793 575.22c-8.62-1.511-5.123 17.162-5.123 21.805 0 14.66 0.913 29.872 5.123 44.089 2.144 7.272 4.846 15.056 8.5 21.688 1.549 2.698 3.257 5.997 5.123 8.5 1.35 1.869 3.852 2.861 3.535 5.557-2.422-4.729-5.64-8.347-8.698-12.711-2.024-2.9-4.052-4.769-6.473-7.232-1.986-2.023-2.024-3.973-3.496-6.283-2.144-3.259-4.926-5.443-6.674-9.061-1.311-2.738-2.66-5.364-4.171-8.018-3.615-6.395-7.429-13.545-9.017-20.776-1.51-7.152-2.821-14.935-3.971-22.201-0.994-5.997-1.152-11.837-1.827-17.795-0.555-4.769-3.694-6.435 2.422-7.866 6.077-1.39 13.385-1.788 24.746 10.286z"></path>
    <path fill="#000000" d="M604.509 837.52c7.865-0.073 13.625-4.016 21.092-6.917 9.137-3.495 18.589-8.702 26.533-14.38 4.646-3.34 8.5-6.559 13.544-9.376 4.249-2.379 6.99-5.128 10.367-8.5 2.702-2.738 5.601-5.24 7.706-8.459 1.669-2.543 2.305-5.762 4.291-8.029 0.198 2.821-0.875 5.045-1.349 7.753-1.152 6.077-1.311 11.121-3.852 16.918-3.497 7.988-7.506 12.91-13.663 19.108-6.277 6.312-13.504 11.121-20.456 16.603-4.726 3.698-10.128 6.12-15.094 9.571-3.932 2.698-9.969 5.721-14.696 6.233-2.186 0.203-4.568-0.203-6.792-0.102-1.908 0.073-3.971 1.624-5.282 1.624-6.95 0-4.052-18.711-2.344-22.042z"></path>
    <path fill="#000000" d="M469.949 835.817c-19.066 0-37.615 1.112-56.205-3.412-9.017-2.187-18.39-3.053-26.89-6.753-6.119-2.655-10.923-5.997-16.246-9.767-3.019 2.933 0.635 7.304 2.105 10.244 2.024 4.179 3.693 9.376 7.070 12.591 1.191 1.155 2.86 1.869 4.132 3.024 10.525 9.654 24.905 12.867 38.448 16.641 10.765 3.024 21.886 3.821 32.689 6.793 3.057 0.819 8.261 5.2 9.889 1.431 1.23-2.778-0.915-7.069 0.198-10.053 0.477-0.102 0.913-0.203 4.807-20.731z"></path>
    <path fill="#000000" d="M815.706 587.146c0 4.607-1.033 8.347-1.708 12.83-1.311 9.021-1.152 18.354-3.335 27.252-0.837 3.412-2.066 6.395-3.455 9.612-2.344 5.323-2.702 9.969-3.813 15.572-0.837 4.526-3.138 8.293-4.329 12.71-0.869 3.176-1.349 5.914-3.257 8.735 3.655 1.705 6.871-2.941 9.095-5.158 5.957-6.037 11.28-12.63 17.518-18.434 6.037-5.638 9.692-10.844 12.036-18.785 2.502-8.58 7.666-14.934 11.003-22.999 0.674-1.633 0.674-2.655 0.909-4.291 0.235-1.705 1.153-3.574 1.349-5.168 0.358-2.738-0.837-4.924-2.541-7.232-1.867-2.543-4.449-4.096-7.109-4.647-4.53-0.919-10.923-2.187-22.364 0z"></path>
    <path fill="#000000" d="M822.519 488.357c-0.481-0.075-0.949-0.203-1.431-0.307-0.869-2.861-0.195-6.395-0.398-9.376-0.674-9.061-0.992-18.191-1.708-27.208-0.634-7.783-3.138-15.092-3.377-22.999-0.276-9.571 0.040-19.223 0.123-28.797 0-3.299 0.438-6.833-0.164-10.053-0.316-1.705-1.589-3.574-1.669-5.24-0.164-2.778 0.593-3.729 3.455-3.495 4.211 0.307 6.157 5.679 8.578 8.5 3.057 3.574 6.037 6.671 8.54 10.725 5.482 8.735 5.601 20.219 6.951 30.147 1.431 10.329 4.25 20.497 5.004 30.905 0.481 5.997-8.382 36.9-23.911 27.168z"></path>
    <path fill="#000000" d="M573.846 229.465c7.903 0 15.968-0.612 23.794 0.409 6.754 0.919 12.472 1.39 18.709 4.179 7.189 3.219 13.663 6.233 20.336 10.487 7.268 4.607 13.386 10.764 20.656 15.249 2.98 1.829 11.558 6.395 14.696 5.24-1.311-3.893-4.052-7.55-6.395-10.844-5.679-7.988-12.155-15.849-20.258-21.45-6.951-4.812-13.902-9.091-21.925-11.76-7.387-2.462-15.252-3.574-22.522-6.19-4.884-1.746-9.572-2.023-14.499-3.574-2.98-0.919-5.044-2.586-8.342-2.257-9.056 0.919-8.817 15.806-4.249 20.534z"></path>
    <path fill="#000000" d="M492.094 203.917c0.079 3.574-1.272 5.721-1.788 9.133-0.833 5.679 1.51 12.315 0.198 17.874-1.589 6.671-18.551 5.914-24.11 7.272-7.19 1.746-12.552 4.882-18.509 9.133-3.932 2.778-7.626 5.168-11.083 8.54-2.9 2.778-6.99 4.209-9.653 7.069 1.311-2.748 3.894-4.535 5.721-6.917 3.019-3.933 5.64-8.54 8.064-12.869 3.971-7.029 10.128-13.467 15.768-19.227 5.76-5.874 10.883-11.24 18.034-15.372 2.542-1.471 4.449-3.657 6.871-5.088 3.932-2.227 8.658-1.307 10.486 0.409z"></path>
    <path fill="#000000" d="M652.196 512.201c1.111 3.698-3.057 4.248-5.243 6.037-1.986 1.593-3.377 4.016-5.401 5.598-2.066 1.593-4.291 2.145-6.395 3.617-4.132 2.821-6.832 5.323-11.599 7.345-4.211 1.788-7.032 2.586-11.558 2.9-5.601 0.409-10.525 1.788-16.326 1.746-7.189-0.035-14.499 0.919-21.369-1.633-7.548-2.778-14.618-4.414-21.609-8.54-7.506-4.414-15.49-6.283-23.116-10.205-9.692-5.005-18.034-10.487-28.956-11.834-5.998-0.714-12.591-0.51-18.39 1.112-5.443 1.553-10.447 4.096-16.046 5.128-13.705 2.626-23.475 8.898-33.286 18.75-9.017 9.091-18.47 18.311-25.341 29.233 9.811-6.559 21.966-12.114 33.366-15.571 3.971-1.184 7.429-3.657 11.599-4.443 4.013-0.714 8.301-1.032 12.352-1.593 6.277-0.919 12.749-0.409 19.106-0.409 6.196 0 12.394 0 18.629-0.035 7.666-0.073 15.212 1.869 22.641 3.657 6.515 1.583 12.749 4.719 19.384 6.272 5.443 1.278 9.056 3.535 13.863 5.486 9.73 4.016 20.337 6.833 30.822 6.753 7.229-0.034 19.384 2.543 25.421-1.624 5.918-4.128 8.342-11.957 13.146-17.519 2.98-3.412 5.999-7.069 9.017-10.244 1.827-1.909 4.529-7.59 15.293-19.982z"></path>
    <path fill="#000000" d="M560.222 137.492c4.846-0.819 9.572-2.626 14.38-3.574 8.74-1.705 14.777-1.666 23.475 0.612 5.123 1.307 9.969 2.626 14.815 4.69 3.535 1.471 6.196 3.893 9.414 5.956 6.277 4.055 13.941 6.917 20.575 10.093 2.224 1.072 4.529 1.155 6.912 1.981 6.118 2.104 11.519 1.511 17.755 2.778 10.367 2.064 20.972 1.225 31.578 1.347 7.784 0.036 14.021-2.586 21.25-5.168 3.257-1.155 5.679-2.941 8.461-5.088 1.828-1.39 8.181-4.371 8.301-6.559-1.746 0.51-2.702 1.235-4.726 1.471-4.171 0.51-8.064-0.073-12.234 0.819-8.342 1.788-17.278 0.919-25.46-0.819-8.937-1.869-18.709-5.721-27.129-9.213-3.218-1.307-6.037-2.626-9.414-3.495-7.309-1.869-13.744-5.802-21.092-7.467-6.434-1.431-12.749-3.412-18.906-5.005-5.401-1.431-12.314-0.409-17.954-0.409-6.832 0-12.472 0.102-19.106 2.145-7.903 2.34-15.968 5.128-23.991 6.711-0.119 0.409-0.198 0.919 3.099 8.181z"></path>
    <path fill="#000000" d="M488.686 134.084c-3.415-1.705-6.673-3.371-10.209-4.248-3.971-1.021-9.375-2.379-13.624-2.615-4.846-0.203-9.772 0.035-14.618 0.035-4.171 0-8.42-0.203-12.591 0.102-6.237 0.612-12.155 2.698-18.39 3.259-10.247 0.919-20.14 4.924-29.67 8.54-16.046 6.037-33.644 10.329-50.565 12.076-7.784 0.819-15.015 3.412-22.919 3.259-3.852-0.035-7.826 0.307-11.638 0.073-6.434-0.409-12.869-2.543-18.629-5.2-2.742-1.278-7.626-2.502-9.334-5.323 3.218 4.331 6.99 6.598 11.2 9.49 4.608 3.176 9.85 5.24 15.055 7.345 4.53 1.869 8.859 4.291 13.783 5.128 23.235 3.933 49.651 3.81 72.81-0.819 6.315-1.278 12.472-3.574 18.192-5.956 10.606-4.414 21.409-8.54 31.578-14.18 5.044-2.778 10.686-3.821 16.284-5.088 3.019-0.714 6.077-0.409 9.017-1.195 3.296-0.819 5.281-1.788 8.898-0.919 2.86 0.714 8.381 0.714 15.371-3.781z"></path>
    <path fill="#000000" d="M892.352 587.146c3.97 7.906 3.377 16.523 3.415 25.62 0.040 13.902-2.066 25.701-9.773 37.377-4.885 7.427-11.955 13.822-14.935 22.166-2.225 6.16-4.846 11.875-6.038 18.27-1.312 6.833 1.152 12.948 3.057 19.185 2.066 6.833 6.792 12.394 8.5 19.143 2.105 8.224 4.766 16.804 5.641 25.186 0.55 5.364 1.55 10.053 0.358 15.33-1.391 6.395-2.145 12.711-4.927 18.75 2.145-1.39 3.099-3.34 4.29-5.609 4.291-8.224 8.699-15.846 10.923-24.902 1.431-5.721 1.549-11.76 2.502-17.677 0.949-5.924 0.55-11.599-0.797-17.357-4.091-17.2-16.007-33.842-7.347-51.203 3.852-7.743 9.413-14.221 12.352-22.52 3.219-8.978 7.109-18.191 8.181-27.844 0.316-2.698-0.276-5.598-0.123-8.387 0.195-3.535 1.708-5.077 0.481-8.54-1.828-5.323-4.646-9.419-15.768-17.003z"></path>
    <path fill="#000000" d="M880.432 486.653c1.033-7.662 4.726-15.372 6.792-22.919 2.541-9.256 5.084-18.904 5.163-28.479 0.040-6.233-0.634-11.715-3.455-17.438-1.669-3.371-4.211-6.12-5.957-9.531-1.788-3.535-4.171-6.233-6.037-9.654-2.066-3.81-2.344-8.224-4.171-12.156-3.852-8.459-5.401-16.722-7.268-25.782-2.145-10.364 2.463-19.342 6.395-28.598 2.463-5.762 4.766-11.478 7.268-17.077 0.949-2.145 3.335-6.753 6.037-7.029 1.469 5.128 0.316 11.437 1.19 16.761 0.909 5.679 0.879 11.086 2.145 16.646 1.669 7.345 3.932 13.821 7.865 20.057 3.377 5.443 7.666 9.847 9.175 16.208 1.431 5.802 2.105 10.764 2.105 16.999v18.75c0 7.304 1.033 15.334-0.316 22.485-0.837 4.248-2.78 8.181-3.894 12.39-1.55 5.997-5.205 10.926-7.826 16.446-1.589 3.34-3.099 6.793-5.004 10.053-1.192 2.104-2.422 4.882-3.813 6.874-1.033 1.511-2.584 1.347-6.395 5.005z"></path>
    <path fill="#000000" d="M95.24 474.731c10.765 1.431 15.252-12.79 18.787-20.492 7.348-16.087 7.229-31.579 4.926-48.499-0.875-6.2-3.377-12.795-4.966-18.789-1.349-4.965-4.091-10.093-5.004-15.249-0.913-5.28-1.311-14.3-0.039-19.662 0.635-2.626 2.463-4.607 3.377-7.109s0.316-4.769 2.741-6.598c-4.926-0.307-6.87 7.029-8.381 10.367-2.66 5.914-1.231 14.018-1.231 20.455 0 2.821 0.039 5.679 0 8.5-0.039 3.34 1.273 5.403 1.788 8.5 0.517 3.014 0.478 5.557 1.231 8.54 0.794 2.984 0.397 6.241 0.397 9.336 0 5.997 0.994 12.948-0.158 18.746-1.111 5.721-2.78 12.394-4.966 17.874-2.344 6.037-3.335 12.472-4.884 18.75-1.191 4.802-1.549 8.857-2.105 13.821-0.436 4.291-3.894 11.322-1.51 1.511z"></path>
    <path fill="#000000" d="M119.086 571.816c2.583-3.053 4.846-1.307 7.666 0 2.9 1.347 6.237 1.624 8.977 3.288 5.044 3.024 6.832 8.264 8.937 13.348 1.788 4.248 4.012 8.416 4.926 12.988 3.335 16.326-0.238 32.729-6.237 48.42-4.965 13.031-7.189 27.049-7.229 41.19 0 4.331 0.238 7.029 1.272 11.041 1.111 4.209 2.702 6.12 4.568 10.093 1.349 2.861 2.344 5.045 4.052 7.866 0.756 1.235 2.263 4.812 2.066 6.2-0.199-5.721-2.186-9.654-3.852-15.175-0.913-2.941-1.788-5.997-2.541-9.021-1.191-4.802-2.9-5.834-5.56-9.612-3.852-5.443-6.515-11.837-10.606-17.122-3.813-4.924-7.706-9.419-8.181-15.925-0.597-7.866-0.517-16.565-0.080-24.47s5.123-16.126 7.429-23.632c2.938-9.612 8.62-28.44 3.099-37.377 0.517-0.102 1.033-0.307-8.698-2.104z"></path>
    <path fill="#000000" d="M594.288 953.34c5.957 0 12.433 0.919 18.112-0.819 8.859-2.666 18.509-5.005 26.732-9.419 16.801-9.061 33.722-16.002 52.47-20.138 6.195-1.39 14.141-0.307 20.298-0.307 7.429-0.035 13.466 0.919 20.298 3.729 6.196 2.626 11.955 5.403 17.121 9.531 3.018 2.39 8.578 7.272 8.343 11.679-4.807-2.34-12.075-2.064-17.279-2.738-8.5-1.145-17.079-3.136-25.621-3.495-14.141-0.612-27.010 6.906-40.356 11.122-2.78 0.919-5.84 1.829-8.539 2.9-4.41 1.788-7.19 2.422-11.836 3.34-5.521 1.072-9.85 4.647-15.61 4.924-2.702 0.102-5.521-0.102-8.223-0.102-7.626 0-15.133 0.51-22.283-1.307-4.249-1.112-7.984-1.829-13.624-8.898z"></path>
    <path fill="#000000" d="M498.905 941.415c-3.335-3.248-7.548-4.248-11.558-5.486-4.766-1.511-8.461-3.053-13.983-3.014-2.144 0-4.488-0.409-6.592-0.203-4.368 0.409-8.064 2.941-12.314 3.698-2.583 0.409-4.249 0.102-6.912 1.072-4.568 1.511-9.056 3.382-13.783 4.414-9.214 1.952-18.709 1.184-28.081 1.184-10.009 0-19.661-0.409-29.392-2.933-8.103-2.074-16.126-4.607-23.514-8.54-3.497-1.909-9.095-4.168-11.558-7.427 3.655 4.647 11.241 7.029 16.046 10.367 6.315 4.443 12.314 9.49 18.112 14.576 2.9 2.543 6.277 3.014 9.851 4.128 3.893 1.235 7.229 3.382 11.319 4.403 7.348 1.788 14.974 3.024 22.364 4.248 3.335 0.51 6.237-1.155 9.414-1.666 2.422-0.409 4.807 0 7.309-0.073 2.144-0.075 3.455-0.919 5.363-1.39 6.237-1.471 12.552-1.869 18.667-3.769 4.291-1.347 8.301-2.064 12.155-4.729 2.422-1.666 3.733-2.821 6.792-3.81 3.497-1.112 6.712-0.919 10.089-1.593 3.138-0.714 5.123-1.869 10.209-3.495z"></path>
    </svg>