<svg xmlns="http://www.w3.org/2000/svg" viewBox="-14.655 88.733 1053.309 978.118">
    <path fill="#000000" d="M209.723 517.95c-9.566-6.581-15.494-3.178-16.797 10.446-0.842 2.026-1.646 4.093-2.793 6.16-4.474 8.225-9.983 16.6-14.803 23.831-5.775 8.648-12.049 17.333-18.096 25.707-15.147 20.931-30.835 42.579-41.201 67.333-4.398 10.519-10.366 20.274-16.715 30.641-4.059 6.622-8.226 13.468-11.975 20.469-3.906 7.389-7.998 14.387-12.395 21.767l-9.603 16.294 17.176-2.026c11.018-1.269 22.837-11.823 30.798-20.428l2.026-2.215c1.415-1.573 2.755-3.059 4.402-4.556 2.599-2.372 5.241-4.741 7.917-7.075 10.024-8.834 20.39-17.978 28.541-29.267 6.773-9.377 13.352-19.050 19.814-28.612l3.865-5.628c4.818-7.152 11.665-13.927 19.091-15.264 22.419-16.982 57.153 2.95 76.929-6.385-14.079-8.53-22.419-35.731-37.105-47.743-10.445-17.214-19.817-35.307-29.074-53.444z"></path>
    <path fill="#000000" d="M320.525 535.89c31.177-80.221 18.056-172.114 77.122-244.261-72.189 32.785-72.189 124.675-128.846 179.762 15.803 22.724 33.474 42.772 51.724 64.499z"></path>
    <path fill="#000000" d="M512.425 670.422c3.329-4.781 3.329-11.361 9.871-17.903-131.218-26.243-255.893-105.011-293.884-233.056-6.424-3.974-13.774-6.308-21.727-8.648-6.884-1.987-13.58-1.84-20.011-1.682-4.707 0.098-9.179 0.197-13.122-0.589l-2.636-0.589c-8.263-1.801-19.549-4.289-28.232 1.605l-5.127 3.483 1.683 5.971c0.915 3.217 2.752 5.432 4.55 7.576 1.951 2.292 4.402 5.165 7.383 11.091l1.992 4.014 4.474 0.589c4.628 0.69 9.987 3.75 15.189 6.69 2.681 1.525 5.241 2.982 7.767 4.201 9.257 4.475 17.788 10.33 26.091 18.745 33.471 121.499 151.571 206.81 279.267 204.054 7.153-0.098 17.75-1.801 26.47-5.59z"></path>
    <path fill="#000000" d="M517.37 304.533c-23.447-5.393-24.14-31.75-41.432-40.587-5.622-16.949-27.122-32.86-51.721-43.536-10.445-4.517-20.196-10.601-30.488-17.060-6.542-4.132-13.315-8.382-20.316-12.202-7.268-3.945-14.116-8.077-21.388-12.511l-16.409-9.904 1.835 17.214c1.15 11.018 11.554 22.952 20.048 31.025l2.179 2.026c1.608 1.457 3.098 2.793 4.55 4.436 2.334 2.635 4.67 5.312 7.004 8.039 8.721 10.14 17.713 20.581 28.917 28.846 10.601 44.415 23.719 83.78 36.841 129.726 13.118-13.122 26.244-26.244 36.993-44.683 12.969-14.649 27.431-28.385 43.383-40.821z"></path>
    <path fill="#000000" d="M665.768 249.865l-3.404-5.165-6.008 1.605c-3.251 0.887-5.47 2.716-7.611 4.475-2.334 1.91-5.241 4.327-11.212 7.233l-4.014 1.949-0.69 4.475c-123.645 46.863-274.563 210.905-176.132 348.703 13.122-137.797 85.314-262.477 209.033-332.792l1.299-2.254c1.914-8.225 4.517-19.471-1.259-28.232z"></path>
    <path fill="#000000" d="M753.532 453.618c-54.058-37.34-119.668-83.281-191.856-70.162-6.542 0-13.118 13.122-13.118 19.705 52.487 78.727 157.498 13.118 222.687 72.226 3.098-6.199-10.902-16.908-17.713-21.767z"></path>
    <path fill="#000000" d="M941.478 416.978c-11.019 1.3-22.837 11.821-30.798 20.427l-2.026 2.254c-1.456 1.573-2.793 3.059-4.364 4.517-2.599 2.372-5.28 4.741-7.954 7.075-10.024 8.834-20.39 17.978-28.541 29.267-6.732 9.336-13.237 18.976-19.702 28.463l-3.98 5.813c-26.549 13.044-59.334 6.465-92.158 19.586 26.244 26.244 32.823 72.188 65.609 91.856 19.702 6.581 19.702-19.665 31.103-29.074 5.775-8.648 12.049-17.293 18.093-25.671 15.151-20.964 30.835-42.619 41.201-67.367 4.401-10.482 10.405-20.274 16.756-30.645 4.014-6.622 8.226-13.428 11.938-20.468 3.861-7.31 7.957-14.269 12.28-21.578l9.719-16.488z"></path>
    <path fill="#000000" d="M707.519 623.214c-1.493 88.331-40.855 167.102-80.221 245.832 59.066-52.488 85.31-124.679 132.096-186.117-14.764-24.941-32.361-45.178-51.874-59.716z"></path>
    <path fill="#000000" d="M884.784 736.571c-0.914-3.255-2.793-5.432-4.591-7.576-1.951-2.292-4.36-5.165-7.344-11.091l-2.026-4.014-4.439-0.69c-4.628-0.69-10.024-3.707-15.226-6.662-2.636-1.525-5.241-2.982-7.727-4.201-9.298-4.475-17.788-10.367-24.177-23.797-34.469-124.482-172.266-222.914-303.484-190.131 104.97 59.065 249.31 91.89 275.096 229.266 5.855 14.611 13.926 23.373 26.474 27.043 6.884 1.987 13.543 1.84 20.007 1.682 4.707-0.098 9.146-0.197 13.122 0.589l2.636 0.589c8.226 1.801 19.512 4.289 28.236-1.605l5.128-3.483z"></path>
    <path fill="#000000" d="M686.575 969.635c-1.15-10.976-11.554-22.952-20.085-31.025l-2.178-2.026c-1.568-1.457-3.061-2.824-4.517-4.436-2.372-2.635-4.67-5.312-7-8.039-8.72-10.139-17.75-20.581-28.921-28.884-9.372-6.928-13.271-15.304-15.226-24.024 12.090-41.545-27.275-67.787-20.734-107.153-32.786 26.243-52.487 65.609-91.853 78.731 13.122 19.702 32.823 32.823 42.999 50.037 14.649 15.762 36.115 31.676 60.75 42.311 10.445 4.517 20.163 10.638 30.451 17.102 6.542 4.093 13.352 8.382 20.353 12.165 7.078 3.865 13.811 7.958 20.926 12.242l16.834 10.215z"></path>
    <path fill="#000000" d="M416.521 776.848c40.166 39.709 53.291-25.899 79.535-39.059-85.314-6.542-170.584-26.244-249.351-65.61 45.945 45.945 105.011 78.77 162.014 100.808z"></path>
    <path fill="#000000" d="M574.455 548.724c-12.779 136.576-98.090 248.13-216.148 313.009 0.071 4.703 0.105 9.149-0.726 13.122l-0.614 2.597c-1.873 8.225-4.513 19.475 1.262 28.236l3.445 5.204 5.969-1.605c3.247-0.887 5.47-2.716 7.611-4.517 2.331-1.91 5.241-4.321 11.212-7.191l4.055-1.987 0.648-4.436c0.73-4.626 3.861-9.986 8.721-14.422 122.419-47.054 233.973-178.314 202.986-319.167-8.989-4.703-18.67-7.348-28.422-8.845z"></path>
    </svg>