<svg xmlns="http://www.w3.org/2000/svg" viewBox="17.582 47.093 1003.929 993.249">
    <path fill="#000000" d="M587.496 287.661c-0.227-0.040-0.455-0.081-0.797-0.113-0.568-1.852-0.113-4.333-0.113-6.232v-21.711c0-7.208 0-14.412-0.039-21.575-0.040-6.675 1.023-13.177 0.91-19.853-0.039-5.219 0-10.484-0.039-15.74 0-4.548 1.023-8.972 1.023-13.618-0.083-5.527 0.568-10.791-1.592-15.918-0.797-1.943-1.852-4.071-2.911-5.923-1.023-1.808-2.034-4.286-3.321-5.923-1.149-1.41-1.943-1.455-2.034-3.49-0.083-1.852 0-3.798 0-5.662 0-3.184 0-6.323 0-9.507 0-2.205 0.342-4.162-0.568-6.185-1.546-3.412-4.286-7.379-8.266-8.095-5.879-1.023-9.016 5.174-10.744 9.769-2.081 5.741-4.468 12.113-4.424 18.216 0.039 3.933-0.682 7.87-2.878 11.268-4.686 7.073-7.426 16.672-8.892 24.94-1.023 5.923-3.093 11.939-4.73 17.73-1.546 5.174-2.605 10.518-4.024 15.74-1.331 5.037-3.366 9.86-4.424 14.943-0.682 3.139-1.023 6.276-1.761 9.369-1.137 5.037-3.49 9.642-4.559 14.678-0.797 4.071-0.682 8.233-1.899 12.252-1.023 3.23-1.852 6.094-2.478 9.416-0.342 1.99-1.319 3.718-1.774 5.708-0.568 2.081-1.41 4.151-1.852 6.232-0.342 1.455-0.342 3.842 0.91 4.515 1.023 0.455 4.151 1.149 5.389 0.91 1.24-0.227 1.592-1.023 2.605-1.637 1.375-0.797 3.093-1.137 4.504-1.899 4.424-2.434 7.608-6.72 12.070-9.063 3.093-1.637 8.448-4.333 11.939-3.048 3.627 1.331 5.618 5.083 9.416 6.232 1.899 0.568 3.718 0.455 5.708 0.455 3.412-0.040 7.426 0.682 10.744-0.227 4.559-1.193 8.004-2.911 8.983-6.982z"></path>
    <path fill="#000000" d="M447.6 286.774c0.083-4.639 1.422-9.016 1.774-13.79 0.797-11.188 3.718-22.198 3.581-33.428-0.039-4.777 0-9.551 0-14.28 0-4.868 0.797-9.507 0.91-14.329 0.227-7.914 0.568-16.447-1.819-24.054-0.797-2.558-2.525-5.48-4.468-7.073-1.364-1.137-1.592-0.568-1.808-2.66-0.113-1.592 0.040-3.308 0.040-4.901 0-3.581 0.081-6.232-1.149-9.551-1.149-3.048-1.501-6.276-4.548-7.96-6.014-3.23-10.484 5.128-13.045 9.507-2.081 3.536-2.605 8.004-3.581 12.026-0.455 2.081-0.342 2.172-1.761 3.536-1.023 1.023-2.252 2.252-3.536 3.139-0.91 0.568-2.205 1.137-2.922 1.943-1.193 1.422-1.899 3.672-2.649 5.356-1.774 3.842-1.99 7.164-2.649 11.407-0.797 5.571-3.184 10.562-4.65 15.961-0.91 3.581-1.331 7.208-2.478 10.7-1.546 4.686-2.649 9.416-3.581 14.28-1.137 6.061-3.798 11.717-5.219 17.73-0.568 2.558-0.682 5.128-1.331 7.699-0.797 3.013-2.081 5.832-3.093 8.801-0.455 1.331-2.649 6.014-1.637 7.164 0.682 0.797 5.923 0.081 6.982 0.081 3.889 0.040 6.584-1.149 10.347-2.161 1.99-0.568 5.571-1.137 7.779-0.568 3.093 0.797 0.342 3.933 2.478 5.923 2.081 1.943 6.675 2.558 9.46 2.296 4.377-0.455 7.96-2.878 12.467-2.831 3.060 0.041 6.152 0.041 10.086 0.041z"></path>
    <path fill="#000000" d="M677.518 523.814c0.083 0.227 0.113 0.568 0.113 0.797 1.149-0.113 2.034-1.728 2.74-2.569 4.115-4.912 8.313-9.813 12.693-14.504 8.881-9.551 16.622-19.807 24.495-30.197 3.627-4.821 7.026-9.904 10.471-14.854 1.422-1.99 2.66-3.933 4.333-5.708 2.125-2.205 4.777-3.933 6.72-6.323 5.527-6.72 10.347-13.884 16.58-20.028 4.65-4.606 9.245-9.198 13.838-13.838 1.375-1.331 2.569-2.878 4.162-3.933 0.797-0.568 1.592-0.568 2.525-1.331 0.682-0.568 1.193-1.422 1.99-1.899 4.071-2.343 8.357-2.081 11.144 2.034 1.99 3.048 2.525 6.766 5.083 9.642 1.899 2.205 2.957 3.798 4.242 6.458 1.422 3.002 3.672 5.436 4.946 8.539 1.852 4.333 4.115 8.664 5.708 13.129 1.592 4.424 2.922 8.972 4.515 13.397 1.637 4.548 2.558 9.369 4.424 13.882 1.592 3.842 2.525 7.608 3.536 11.628 1.24 4.868 3.49 9.642 5.48 14.238 2.922 6.982 5.97 13.928 8.539 21 1.455 4.162 3.889 8.937 6.505 12.473 0.91 1.149 2.649 2.525 2.787 4.024 0.113 1.852-0.568 1.41-1.852 1.99-2.252 1.023-3.616 2.478-5.345 4.242-1.683 1.683-3.399 4.024-5.527 5.128-0.797 0.455-1.899 0.455-2.74 1.023-1.41 0.91-1.852 2.434-2.911 3.581-1.422 1.546-2.161 0.797-4.115 0.91-3.139 0.227-5.265 2.878-8.266 3.536-1.592 0.455-2.922 0.342-4.424 1.023-2.034 1.023-3.412 2.787-4.992 4.377-4.024 4.115-7.208 7.823-10.211 12.821-3.366 5.618-7.561 9.154-12.467 13.221-2.696 2.252-6.629 7.208-10.211 7.823-0.342-1.193-0.081-2.66-0.081-3.889 0.081-3.933 0-7.87 0-11.849 0-6.64 0.227-13.309-0.040-19.985-0.227-4.912-0.91-9.769-0.797-14.726 0.039-8.71 0.455-17.109 0.91-25.733 0.342-5.879 1.728-11.806 1.852-17.637 0.083-4.071-0.342-8.095 0.113-12.161 0.342-2.696 1.023-5.345 1.422-8.051 0.342-2.74-0.039-5.389 0.113-8.142 0.113-2.034 0.797-4.151 1.193-6.141 1.774-9.551 1.501-18.921 1.501-28.606 0-3.366 0.227-6.857 0.040-10.256-0.113-3.321-3.536-2.66-5.708-0.91-2.205 1.728-4.424 3.445-6.857 4.868-1.899 1.149-3.98 1.67-5.741 3.184-2.034 1.774-3.627 4.024-5.788 5.708-1.99 1.637-4.162 3.013-6.196 4.548-4.73 3.581-7.779 8.801-12.82 12.070-3.048 1.943-6.276 3.627-8.71 6.414-2.307 2.74-4.024 5.923-6.243 8.755-5.436 6.902-11.981 13.531-18.217 19.675-4.777 4.821-9.598 9.598-14.412 14.412-2.125 2.125-3.933 4.777-6.276 6.675 0.797-0.227 1.637-0.227-3.763 6.061z"></path>
    <path fill="#000000" d="M940.418 564.843c-0.113-8.313-5.788-15.432-10.211-22.196-9.86-15.124-18.171-31.306-27.239-46.958-2.74-4.777-5.527-9.325-8.881-13.703-2.525-3.321-4.548-7.117-7.379-10.177-1.99-2.125-3.275-2.034-5.788-3.184-1.774-0.797-2.605-1.728-4.639-1.819-1.592-0.081-3.581-0.227-5.174-0.039-2.161 0.342-3.49 1.819-5.128 3.139-5.265 4.242-10.302 8.972-16.049 12.512-4.071 2.525-7.426 6.367-10.7 9.722-1.023 1.137-1.99 2.172-3.048 3.23-0.455 0.455-1.24 0.568-1.637 1.023-0.455 0.455-0.227 1.149-0.682 1.637 1.023-0.113 2.296 0.227 3.275-0.040 0.91-0.227 1.683-1.023 2.616-1.375 4.639-1.819 10.12-1.193 14.191-4.515 3.184-2.616 5.254-6.105 9.951-5.741 3.093 0.227 4.73 2.696 7.073 4.242 2.125 1.375 1.99 3.445 2.478 5.788 1.137 5.356-0.342 11.177-2.387 16.139-5.037 12.291-8.619 25.028-14.325 37.054-1.774 3.66-3.798 7.026-5.832 10.562-1.023 1.728-1.819 3.718-3.139 5.265-1.023 1.193-2.263 2.034-3.184 3.399-3.275 5.003-3.798 12.16-5.752 17.776-0.797 2.525-1.284 4.912-1.728 7.561-0.455 2.205-1.899 5.003 0.91 6.141 1.592 0.682 2.74-0.081 4.071-0.797 3.445-1.899 7.561-4.242 10.609-6.675 3.763-3.002 7.164-6.811 10.302-10.438 1.774-1.99 3.275-4.115 5.31-5.832 2.205-1.899 4.821-3.366 7.164-5.037 3.933-2.787 7.561-7.073 12.603-6.811 3.184 0.113 4.333 1.819 5.618 4.548 1.149 2.434 3.139 2.74 4.73 4.821 1.852 2.387 2.478 5.31 4.639 7.652 1.683 1.819 3.842 3.139 5.48 4.992 1.899 2.205 4.242 5.265 7.732 4.024 3.809-1.364 6.105-7.073 9.46-9.507 1.683-1.24 2.878-2.161 4.286-3.707 1.331-1.455 2.74-1.774 4.286-2.878 2.605-1.852 5.003-3.048 6.414-6.061 0.455-1.023 0.797-1.455 0.682-2.696-0.081-3.672-1.023-7.117-0.91-1.023z"></path>
    <path fill="#000000" d="M509.991 205.689c0.227-0.041 0.455-0.081 0.797-0.113 0.568-1.819 0.113-4.242 0.113-6.141 0-5.527 0.040-10.791 0.797-16.23 0.568-4.024-2.161-8.404-4.333-11.626-1.943-2.969-2.831-3.321-6.232-3.275-2.957 0-4.946 0.455-6.276 3.49-0.682 1.592-0.797 3.139-1.683 4.548-0.682 1.023-1.501 1.455-2.081 2.558-2.558 5.128-4.242 11.451-4.195 17.201 0 0.91 0.227 2.478 0.040 3.445-0.227 0.797-0.797 0.797-1.023 1.637-0.227 0.797 0.113 1.852 0.039 2.74-0.227 1.637 0.040 0.797-0.91 1.808-0.227 0.227-0.797 0.227-1.193 0.568-0.568 0.568-0.342 1.24-0.797 1.852-1.193 1.637-2.911 2.957-4.071 4.639-3.093 4.424-5.219 9.336-6.584 14.504-0.568 1.899-1.728 3.184-2.343 5.037-0.797 2.343-1.137 4.912-1.852 7.299-1.24 3.842-3.013 7.335-4.424 11.097-1.943 5.265-2.969 10.882-4.606 16.274-1.193 3.933-2.649 7.914-3.627 11.939-1.023 3.933-0.91 8.004-1.852 11.981-1.149 4.946-2.696 9.507-3.23 14.591-0.568 5.083-1.149 10.086-1.99 15.123-1.375 8.619-1.728 17.243-2.878 25.864-0.797 5.832-1.501 11.537-4.286 16.756-1.637 3.048-1.728 7.561 2.696 7.299 2.911-0.113 5.618-1.023 8.619-1.023 6.014 0.080 10.438 6.141 14.457 9.995 2.034 1.899 3.581 2.969 6.458 3.672 2.878 0.682 5.389 1.422 8.404 1.546 3.139 0.113 4.992 0.682 7.608 2.478 3.49 2.296 7.426 2.525 10.871 4.639 3.842 2.434 7.823 1.808 12.248 1.808 2.969 0 6.948 0.797 9.769 0.113 2.161-0.455 2.969-2.787 3.798-4.595 1.637-3.718 2.911-7.652 4.071-11.54 2.387-8.448 2.74-16.536 2.787-25.244 0.039-5.265 0.91-10.438 1.023-15.697 0.113-6.185-1.149-11.981-1.728-18.128-1.501-16.672 2.605-33.117 2.525-49.742-0.040-12.956-2.252-25.425-3.49-38.25-0.455-4.424-2.161-9.416-3.627-13.575-0.797-2.161-1.023-2.387-2.478-3.66-1.193-1.023-1.683-1.943-2.66-3.093-2.74-3.275-5.741-5.436-12.688-4.639z"></path>
    <path fill="#000000" d="M823.381 935.629c1.193 4.424-3.308-0.455-3.718-0.91-12.335-16.977-24.449-33.823-35.546-51.642-7.87-12.642-15.608-25.335-23.479-37.979-6.902-11.097-13.002-22.416-19.587-33.735-3.184-5.527-6.72-10.791-9.689-16.49-1.501-2.922-3.321-6.185-5.128-8.801-1.284-1.761-1.819-2.125-1.774-4.595 0.342-18.038-1.149-36.607-4.151-54.338-1.99-11.359-4.253-22.551-5.389-34.044-0.797-7.699-2.66-15.299-2.922-23.038-0.081-2.957 0.113-4.162-1.943-5.923-3.275-2.74-6.105-6.014-9.769-8.266-3.933-2.343-6.857-4.73-10.302-7.87-2.434-2.161-4.73-4.468-6.891-6.857-1.501-1.501-2.878-3.093-4.115-4.821-1.683-1.455-3.139-1.273-4.377-3.49-1.331-2.343-2.525-5.618-3.672-8.051-3.751-7.96-5.788-16.581-7.96-25.069-2.434-9.642-4.992-19.41-7.208-29.27 2.478-9.598 5.037-19.191 7.608-28.737 4.946-18.44 9.904-36.788 14.191-55.358 4.504-19.632 8.664-39.353 13.134-58.985 1.41-6.232 3.093-12.379 4.504-18.57 1.683-7.299 2.525-14.682 3.889-22.018 1.455-7.823 3.139-15.564 4.333-23.433 1.023-6.766 2.74-13.045 4.424-19.675 2.125-8.404 3.048-16.975 4.639-25.468 1.808-9.551 1.717-19.187 3.308-28.737 1.375-7.779 1.808-15.299 1.808-23.172 0-5.788-0.568-11.144-1.637-16.843-0.227-1.375 0.081-2.616-1.24-3.445-0.455-0.342-1.193 0.040-1.592-0.113-0.797-0.342-0.91-0.797-1.546-1.149-2.125-1.284-4.071-2.831-6.232-4.242-2.478-1.637-6.276-0.797-9.154-0.797-2.478-0.040-4.548-0.682-7.026-1.149-4.504-0.797-8.892-0.797-13.443-0.227-4.777 0.568-9.507 1.683-14.369 1.455-5.571-0.227-11.188-2.296-16.76-3.139-5.97-0.91-11.939-1.284-17.951-2.296-8.755-1.501-17.55-2.081-26.396-2.696-11.717-0.797-23.391-0.455-35.104-1.023-14.505-0.797-29.051-1.193-43.595-0.342-17.335 1.137-34.534 2.74-51.732 5.219-17.203 2.434-34.534 3.763-51.733 6.367-9.198 1.375-18.264 3.536-27.413 4.946-11.806 1.819-23.744 2.081-35.417 4.559-15.433 3.275-30.772 7.426-45.805 12.070-30.947 9.642-61.062 21.885-91.877 31.922-0.113 0.040-0.342 0.080-0.455 0.113 0.568-0.081 1.149-0.113 1.728-0.227 12.863-1.808 25.243-5.618 37.979-8.175 10.471-2.125 20.601-5.219 31.037-7.346 8.586-1.774 16.359-5.31 24.719-7.823 14.457-4.377 28.253-11.807 43.194-14.457 9.016-1.637 18.128-2.66 27.106-4.65 8.664-1.943 16.981-3.139 25.909-3.49 8.755-0.342 17.423-1.501 26.219-1.728 4.686-0.080 9.689-0.227 14.412 0.227 5.832 0.568 11.541 1.637 17.465 1.683 14.37 0.040 28.874 2.296 43.199 3.718 8.313 0.797 16.534 0.455 24.847 0.568 9.107 0.227 18.352 1.023 27.459 1.637 8.266 0.568 16.715 1.193 24.982 1.137 8.801-0.080 17.508 0.682 26.305 0.91 8.834 0.227 17.907 0.113 26.792 0 9.598-0.113 19.454-2.343 28.918-0.040 2.957 0.682 11.235 1.852 12.512 5.298 1.24 3.399-4.595 11.982-6.014 14.813-2.787 5.436-4.377 11.37-7.335 16.668-2.343 4.242-3.751 8.222-4.639 13.002-1.284 6.766-2.034 13.575-3.355 20.338-1.331 6.844-1.99 13.838-5.571 19.985-9.813 17.023-22.684 31.57-35.152 46.689-10.042 12.207-21.443 23.611-32.673 34.665-5.662 5.571-11.498 10.915-17.203 16.402-7.426 7.164-13.928 15.211-21.443 22.196-30.552 28.346-65.037 51.688-99.173 75.341-9.016 6.232-18.039 12.512-27.101 18.617-13.663 9.245-26.752 19.099-40.101 28.782-6.72 4.868-13.75 9.289-20.607 14.016-10.347 7.117-19.987 15.212-29.845 22.992-8.095 6.414-16.269 12.689-24.095 19.363-10.7 9.063-20.691 18.925-31.26 28.121-14.986 13.089-30.772 25.248-45.805 38.382-9.951 8.664-20.161 17.109-30.065 25.909-8.131 7.288-15.918 14.986-24.14 22.106-12.422 10.791-25.248 21.089-36.962 32.629-16.36 16.049-32.766 32.054-41.783 53.631 2.081 0.455 3.842-0.455 5.651-1.455 4.912-2.696 10.086-4.946 15.211-7.208 8.664-3.842 17.244-8.313 26.086-11.717 9.245-3.536 18.925-5.389 28.385-8.095 13.089-3.798 25.864-8.482 38.603-13.134 9.46-3.445 19.099-5.879 28.827-8.313 4.195-1.023 8.448-2.125 12.692-3.002 20.869-23.611 41.784-47.265 63.048-70.569 12.514-9.198 25.688-17.422 38.161-26.747 18.039-13.531 36.255-26.972 53.985-40.945 12.247-9.86 24.361-19.896 36.343-30.153 4.901-3.672 9.551-7.608 13.971-11.849 1.137-1.501 1.546-3.139 2.911-4.504 2.263-1.546 4.424-3.23 6.458-5.050 4.821-4.151 9.46-8.482 13.972-12.996 10.427-10.211 20.206-20.871 31.525-30.109 11.224-9.154 23.653-17.817 32.674-29.36 1.774-2.205 3.275-5.436 5.389-7.379 1.774-1.637 4.151-2.787 6.276-3.933 8.664-4.468 17.197-8.972 25.689-13.75 7.732-4.377 15.339-8.846 23.12-12.821 1.375 6.766 2.696 13.487 2.831 20.426 0.113 4.333 1.24 8.095 1.193 12.512-0.039 5.752 2.161 10.653 3.093 16.496 0.91 5.879 2.514 11.315 4.286 16.975 1.422 4.468 2.696 9.016 4.071 13.53-0.91 1.023-1.852 1.99-2.787 2.957-0.227 0.342-0.568 0.568-0.797 0.91 4.424 7.96 6.276 17.554 4.115 27.458v0.040c1.375 1.592 2.649 3.355 3.842 5.298 22.464 36.523 30.865 77.377 39.132 118.894 3.933 19.544 8.084 39.132 11.585 58.806 2.831 0.91 5.128 5.708 6.323 7.47 7.47 11.453 15.476 22.509 22.327 34.402 3.321 5.752 5.879 12.16 9.416 17.73 4.686 7.47 10.791 14.104 16.932 20.469 19.103 19.807 34.579 42.357 52.133 63.448 6.185 7.426 12.776 14.501 17.504 22.99 1.819 3.275 1.899 4.65 5.752 4.686 1.193 0 4.024 0.568 4.992-0.113 1.24-0.91 0.342-3.048 1.023-3.842 1.284-1.422 3.933 2.252 5.879 2.387 3.889 0.227 5.752-4.115 7.779-6.629 1.592-1.943 4.606-1.943-3.889-15.828z"></path>
    </svg>