<svg xmlns="http://www.w3.org/2000/svg" viewBox="17.456 47.627 1006.051 992.388">
    <path fill="#000000" d="M583.964 305.787c2.106-0.035 3.643-0.416 5.625-1.093 2.589-0.937 4.451-2.227 6.597-3.841 3.198-2.425 6.758-4.205 9.672-6.962 2.062-1.947 4.532-3.32 6.557-5.226 1.742-1.583 2.751-3.925 4.29-5.746 1.821-2.145 4.371-4.372 5.543-7.003 0.689-1.613 1.093-3.446 1.698-5.059 1.619-4.453 3.562-8.054 6.029-12.061 1.901-3.123 4.047-6.026 5.666-9.345 0.851-1.739 2.145-3.361 2.914-5.142 0.527-1.301 0.809-2.873 1.172-4.205 1.536-5.788 1.536-11.618 2.711-17.362 0.649-3.279 1.619-6.39 3.278-9.263 1.983-3.446 3.967-7.202 6.193-10.524 2.186-3.238 5.341-5.545 8.255-8.096 2.751-2.353 4.654-4.973 7.771-6.838 3.603-2.145 7.001-4.289 10.44-6.682 3.926-2.748 8.378-4.453 12.506-6.881 3.4-2.030 6.881-3.769 10.48-5.424 2.751-1.29 5.018-2.145 7.162-4.289 3.4-3.32 7.974-5.465 11.573-8.575 3.683-3.196 8.175-5.91 12.344-8.46 3.764-2.301 7.69-2.748 12.059-3.279 7.407-0.833 14.973-0.937 22.42-1.093 16.309-0.312 32.659-0.035 49.010-0.035 9.387 0 18.739-0.104 28.126-0.036 2.993 0.036 5.788 0.729 8.659 1.583 5.179 1.54 10.48 2.55 15.58 4.216 7.123 2.342 13.92 6.194 20.517 9.668 7.486 4.008 15.136 7.974 22.338 12.384 4.857 2.997 10.199 5.018 15.501 7.159-1.983-0.104-4.008-0.075-5.99-0.075-10.116 0.035-20.196-0.312-30.31-0.52-19.344-0.416-38.728-0.104-58.112-0.104-8.659 0-17.322 0-25.981 0-6.474 0-12.423 0.625-18.818 1.583-3.155 0.416-5.95 1.499-8.864 2.633-3.682 1.416-6.030 4.205-8.619 7.078-3.562 3.851-7.123 7.202-11.208 10.482-4.815 3.841-9.023 6.962-12.463 12.099-5.221 7.731-12.708 12.384-20.801 16.833-8.457 4.654-17.199 7.846-26.59 10.043-1.901 0.416-2.022 0.416-3.075 1.655-1.497 1.822-2.629 4.164-4.168 6.066-4.248 5.268-7.001 11.532-10.927 17.036-2.914 4.089-6.394 7.482-9.549 11.33-2.51 3.082-4.815 5.996-7.61 8.824-2.225 2.227-4.332 5.181-5.221 8.294-0.809 2.873-0.201 6.308-0.404 9.263-0.527 8.783-1.378 16.593-7.689 23.228-1.901 1.978-4.208 3.517-6.272 5.337-1.901 1.613-3.075 3.394-4.695 5.142-2.226 2.312-4.532 4.934-6.961 6.962-2.711 2.268-5.14 5.018-7.89 7.202-1.536 1.219-3.318 1.665-4.857 2.758-0.809 0.625-1.497 2.383-2.711 2.145-0.404-1.332 0.078-2.717-0.041-4.089-0.201-2.592-0.969-6.274-2.186-8.616-0.605-0.729-1.133-1.499-1.658-2.312-0.729-1.301-1.172-2.676-1.417-4.133-0.566-1.822-1.901-2.592-2.672-4.289-0.809-1.739-0.729-3.517-2.022-5.059-1.457-1.739-4.007-2.342-5.789-3.643-5.18-3.725-8.136-9.906-17.119-15.577z"></path>
    <path fill="#000000" d="M636.709 368.509c3.603 0 7.285 0.312 10.845-0.075 10.16-1.052 20.314-5.018 29.341-9.553 14.487-7.287 27.722-16.51 42.979-22.341 6.597-2.509 12.463-6.43 18.779-9.627 10.16-5.181 21.042-7.93 32.255-9.75 9.632-1.583 19.993-0.729 29.745-0.729h16.39c1.417 0 4.168-0.52 5.464 0.074-4.696 3.32-11.050 5.142-16.146 7.651-4.654 2.268-8.983 5.101-13.679 7.287-5.425 2.509-10.116 6.11-15.541 8.743-3.198 1.54-6.557 2.435-9.712 4.049-1.58 0.833-3.358 1.29-4.937 2.145-1.658 0.937-3.075 1.863-4.937 2.425-6.557 1.904-14.004 2.956-19.788 6.766-2.993 1.978-4.897 5.226-7.61 7.61-5.464 4.817-11.897 7.846-18.211 11.369-3.075 1.739-5.828 3.881-8.782 5.754-2.225 1.416-4.572 2.706-6.678 4.372-0.852 0.729-0.93 1.052-1.334 1.989-0.689 1.655-1.536 3.561-2.47 5.257-1.497 2.789-3.723 4.934-5.868 7.245-2.672 2.915-7.043 4.453-10.685 5.985-2.834 1.175-5.705 2.268-8.619 3.153-0.809 0.208-4.897 0.729-5.382 2.227 0.527 1.54 2.751 1.499 4.086 1.78 5.544 1.301 10.805 3.561 16.35 4.862 6.758 1.583 13.679 2.383 20.437 4.008 4.371 1.041 8.619 2.468 12.991 3.446 5.382 1.26 10.805 2.019 16.229 2.997 14.772 2.55 28.49 8.294 42.936 11.82 10.927 2.665 21.609 5.181 32.86 5.87 4.736 0.312 9.471 0.034 14.165 0.729 4.046 0.625 7.202 2.268 10.563 4.413 5.221 3.279 9.956 7.245 14.69 11.128 5.868 4.862 11.938 9.189 16.998 14.851 6.434 7.245 13.719 13.518 20.881 19.993 7.407 6.725 16.106 13.072 21.53 21.609 2.589 4.089 4.128 7.69 4.331 12.588 0.126 3.925 0.603 7.287 1.782 11.049 1.333 4.205 2.51 8.46 3.198 12.87 0.687 4.123 0.729 8.211 1.983 12.262 1.698 5.268 3.036 10.642 4.248 16.067 2.347 10.482 5.139 20.677 7.89 31.039 2.022 7.482 5.301 14.69 7.001 22.217 1.417 6.274 1.658 12.788 2.711 19.102 0.854 4.817 2.062 9.594 2.873 14.368 0.646 3.841 0.323 7.731 0.323 11.576 0.041 5.621-0.041 11.129-0.77 16.715-1.172 9.304-3.603 18.374-4.532 27.72-1.255 12.424-1.658 24.889-3.968 37.195-2.146 11.33-5.908 22.016-10.524 32.575-1.902 4.413-3.359 8.866-5.099 13.318-0.603 1.624-0.646 2.789-0.854 4.453-0.282 3.112-1.133 6.234-1.58 9.304-1.093 6.881-3.603 12.424-7.486 18.252-3.198 4.862-7.325 9.107-11.050 13.558-3.358 4.089-6.637 8.294-9.913 12.424-3.155 3.966-6.232 8.13-9.672 11.775-3.764 3.966-7.851 7.482-11.897 11.169-6.354 5.829-11.734 12.223-17.159 18.902-9.347 11.369-21.569 21.083-34.156 28.688-6.637 4.008-13.395 7.818-20.274 11.414-2.955 1.499-6.030 3.153-9.267 4.049-0.364-1.54 0.239-3.112 0.646-4.609 3.519-12.87 9.913-24.279 16.35-35.935 7.526-13.681 15.825-26.67 24.483-39.619 6.678-9.959 13.192-19.709 20.638-29.056 4.411-5.424 9.269-11.369 11.694-18.050 2.347-6.517 5.382-12.548 7.365-19.223 3.968-13.597 8.093-27.069 11.493-40.792 1.295-5.101 2.63-10.073 4.168-15.054 0.49-1.54 1.902-4.934 2.146-7.003 0.197-1.583 0.078-3.040 0.406-4.654 0.447-2.227 1.133-4.453 1.822-6.63 0.49-1.583 1.497-3.446 1.377-5.142-0.126-1.041-0.531-1.696-0.967-2.592-1.255-2.55-2.186-5.142-3.115-7.807-4.29-12.263-8.135-24.643-10.524-37.392-2.186-11.82-2.426-23.675-3.075-35.654-0.49-8.171-1.537-16.268-2.834-24.402-1.658-10.442-2.265-21.128-4.572-31.447-1.011-4.609-2.226-9.147-2.915-13.799-0.926-6.234-1.536-12.546-2.589-18.741-0.967-6.234-2.226-12.543-4.735-18.374-0.49-1.208-0.77-1.655-1.782-2.665-4.29-4.331-9.712-7.566-14.811-10.845-10.238-6.598-21.245-12.185-32.255-17.362-8.5-4.008-17.322-7.61-25.981-11.209-5.95-2.468-11.573-5.268-17.726-7.078-6.517-1.904-11.493-6.026-16.957-9.876-4.937-3.476-9.752-6.598-15.054-9.431-3.519-1.904-6.881-4.123-10.44-5.954-0.852-0.416-1.537-1.052-2.387-1.26-1.457-0.312-3.48 0.52-4.815 0.937-4.451 1.375-8.821 2.425-13.436 2.956-5.949 0.729-11.734 0.729-17.686 0-7.365-0.833-14.447-2.758-21.691-4.164-5.14-1.041-9.957-1.739-15.136-1.78-1.457-0.034-1.378 0.076-2.225-1.052-0.689-0.937-0.969-1.904-1.334-2.956-1.172-3.196-2.062-6.682-2.834-10.032-1.173-4.934-1.255-9.668-1.821-14.61-0.078-0.729-0.566-1.416-0.649-2.103-0.201-2.145 0.891-4.089 1.821-5.954 1.944-3.933 4.371-7.367 5.301-11.736 0.769-3.685 0.93-7.651 0.605-11.413-0.323-4.089-2.266-6.922-3.603-10.642-1.093-3.040-1.658-6.881-2.106-10.073-0.323-2.342 0.404-4.289 1.457-9.952z"></path>
    <path fill="#000000" d="M423.51 315.272c-1.417-1.249-3.115-2.103-4.532-3.394-2.106-1.863-3.358-4.175-4.936-6.558-4.331-6.361-9.185-12.345-13.476-18.695-3.198-4.654-6.394-8.939-10.238-13.075-4.332-4.609-9.549-7.846-14.569-11.655-5.504-4.164-11.414-7.974-17.401-11.369-4.129-2.342-8.742-2.55-12.911-4.654-4.29-2.145-8.943-4.089-12.708-7.118-3.926-3.112-7.61-6.43-11.616-9.471-5.018-3.769-10.441-7.003-15.944-10.032-8.659-4.777-18.291-3.561-27.801-4.089-4.208-0.208-8.378-0.729-12.383-2.019-2.954-0.937-5.221-2.509-7.93-4.008-1.658-0.937-3.52-1.416-5.1-2.468-1.334-0.937-2.347-2.019-3.723-2.832-3.643-2.186-6.881-4.973-10.641-6.962-6.881-3.643-13.962-6.474-21.49-8.575-3.479-1.041-7.001-2.353-10.602-2.873-0.809-0.104-1.658 0.035-2.308-0.52-1.861 1.249-3.4 3.361-4.897 4.973-5.382 5.788-10.927 11.33-16.997 16.35-6.921 5.746-13.598 11.006-21.652 15.135-6.678 3.446-13.556 6.725-20.477 9.668-2.106 0.937-1.781 1.375-2.225 3.405-0.729 3.602-2.387 7.287-3.643 10.725-3.198 8.338-6.557 16.673-9.751 25.011-3.198 8.408-7.285 16.35-10.685 24.642-5.261 12.911-9.874 26.631-11.858 40.469-1.216 8.658-1.417 17.524-1.619 26.306-0.163 7.731-1.294 15.375-1.457 23.149-0.363 16.673-0.040 33.426-0.040 50.14v14.245c0 1.583-0.444 3.966 0.123 5.465 1.013-1.219 1.417-3.769 1.821-5.181 1.013-4.695 2.308-9.304 3.844-13.842 2.426-6.881 5.179-13.597 8.294-20.195 3.883-9.512 6.354-19.465 9.712-29.14 2.954-8.338 5.99-16.671 8.864-25.006 3.603-10.482 6.029-20.925 8.54-31.691 1.457-7.287 3.278-14.447 5.464-21.569 1.944-5.382 3.967-10.682 6.029-15.984 2.47-6.682 5.424-12.787 8.864-19.022 0.969-1.739 2.629-5.91 4.775-7.078 1.053-0.52 2.51-0.625 3.643-1.052 3.318-1.822 6.678-3.685 9.997-5.506 7.61-4.216 15.337-8.223 23.188-12.021 3.682-1.583 7.365-3.32 10.927-5.181 2.51-1.54 4.977-3.071 7.407-4.695 2.186-1.26 4.532-2.468 6.758-3.643 1.536-0.833 4.735-2.758 6.557-2.186 0.689 0.208 1.333 0.937 2.022 1.26 4.168 1.947 8.579 3.446 12.747 5.257 9.023 3.881 17.646 7.807 27.398 9.345 8.702 1.332 17.282 1.655 26.062 2.019 5.665 0.208 11.049 1.26 16.633 1.978 1.378 0.104 4.248 0.208 5.543 1.052 0.689 1.041 1.133 2.145 1.334 3.361 0.404 1.457 0.93 2.789 1.619 4.089 2.914 6.026 5.018 12.302 8.579 17.966 3.479 4.654 6.597 9.553 9.347 14.648 2.834 5.829 5.586 11.655 8.378 17.524 4.612 9.107 10.805 17.481 15.013 26.788 1.457 3.32 2.186 7.078 4.451 10.004 1.133 1.457 2.146 2.268 4.047 2.425 4.572 0.416 9.549-2.103 13.759-3.446 3.036-0.937 6.069-1.863 9.067-2.997 0.809-0.312 1.619-0.52 2.47-0.729 1.497-0.937 1.537-2.706 2.47-4.205 1.133-1.696 2.426-3.082 3.358-4.934 1.901-3.685 2.751-7.774 4.332-11.572 0.444-0.937 2.347-3.123 2.308-4.257l14.244 2.145c-1.537-0.52-3.115-2.956-4.371-4.049z"></path>
    <path fill="#000000" d="M379.038 393.295c-6.11 0.729-12.506 0.104-18.616 0.208-12.586 0.075-24.726-2.997-37.355-2.915-2.791 0-5.585-0.035-8.339-0.035-5.585 0.074-11.129 1.175-16.593 2.145-3.562 0.625-7.122 1.208-10.602 2.227-4.612 1.375-8.742 3.769-13.151 5.662-6.474 2.789-13.151 4.934-19.143 8.616-2.954 1.822-5.908 3.561-8.943 5.181-0.93 0.52-2.347 1.167-3.155 2.019-0.444 0.52-0.969 1.583-1.417 2.103-1.659 2.103-3.603 3.925-5.382 5.91-4.857 5.424-9.913 10.482-14.933 15.744-4.493 4.736-8.014 10.115-11.938 15.295-2.791 3.685-5.261 8.015-8.338 11.457-1.093 1.167-2.427 2.019-3.479 3.238-8.093 9.512-15.096 20.032-23.473 29.34-7.162 8.054-14.569 15.867-21.042 24.525-2.954 3.925-5.625 8.054-8.579 11.935-2.265 2.915-4.815 5.59-6.718 8.703-2.672 4.331-4.29 8.502-5.424 13.396-1.497 6.39-2.265 12.951-3.318 19.422-1.821 10.845-3.44 21.814-4.815 32.74-0.444 3.517-1.133 7.003-1.658 10.48-0.444 2.873-0.163 5.788-0.649 8.587-0.769 4.487-0.605 8.939-0.566 13.553 0.040 9.431 0.284 18.777-0.809 28.166-1.944 16.874-4.977 33.626-7.123 50.463-2.145 17.284-4.128 34.399-4.775 51.763-0.363 10.563-0.404 21.325-2.265 31.727-1.013 5.59-2.308 11.576-2.265 17.241 0.079 5.142 1.619 10.355 2.791 15.335 2.47 10.642 5.301 21.208 7.325 31.972 2.387 12.586 4.29 25.335 6.11 37.996 0.729 4.973 0.93 10.323 1.901 15.3 0.605 3.082 1.901 5.91 2.629 8.911 0.566 2.312 0.891 4.777 1.457 7.003 1.255 4.973 5.301 9.067 7.931 13.392-0.363-2.227-0.852-4.736-0.649-6.881 0.241-2.676 0.444-5.702 1.255-8.252 0.649-1.978 0.891-3.881 0.729-5.996-0.040-0.937-0.404-1.29-0.566-2.145-0.323-2.342-0.163-4.736-0.163-7.078 0-6.922 0-13.839 0-20.76 0-8.866 0.040-17.687 0-26.509 0-8.211-0.202-16.469 1.333-24.603 2.387-12.588 9.067-23.715 12.87-35.816 3.883-12.506 6.193-25.979 9.228-38.647 4.815-19.993 11.493-40.308 12.827-60.905 0.729-11.050 0.284-22.341 0.040-33.391-0.123-6.922 0.769-11.733 2.672-18.614 4.047-14.448 7.851-29.179 13.192-43.183 2.022-4.654 3.844-9.386 5.424-14.205 0.769-3.881 1.537-7.766 2.265-11.655 1.216-4.862 2.672-9.587 3.603-14.529 1.216-6.638 2.834-13.354 5.908-19.386 2.711-4.851 5.868-9.431 9.388-13.755 5.179-6.517 10.321-13.072 15.5-19.63 7.082-9.23 13.191-19.22 24.040-24.441 12.019-5.746 25.658-7.118 37.798-12.588 9.593-4.289 17.322-10.805 25.941-16.593 5.99-4.089 12.262-7.887 17.079-13.438 9.185-10.563 18.172-22.297 29.907-30.187 2.225-1.499 3.844-3.123 4.897-5.545 1.497-3.405 3.075-6.598 4.896-9.835 0.729-1.249 2.55-6.474 4.248-6.517l7.122-14.284c-2.106-0.036-3.967 0.312-6.069 0.52z"></path>
    <path fill="#000000" d="M633.856 477.55c1.013-0.312 1.497 0.52 2.225 0.937 2.47 1.499 4.815 3.040 7.246 4.569 9.471 5.954 19.019 11.82 28.529 17.809 8.339 5.226 16.51 10.524 24.159 16.753 7.043 5.754 13.354 12.223 20.963 17.284 6.314 4.164 12.747 8.252 18.94 12.626 3.562 2.509 7.447 4.453 10.602 7.367 0.646 0.625 1.053 0.937 1.333 1.655 0.323 0.833 0.282 2.425 0.49 3.238 0.926 4.245 1.742 8.46 2.59 12.708 2.589 12.503 6.394 24.682 8.983 37.19 2.308 11.168 3.722 22.297 7.93 32.983 2.308 5.829 4.451 12.263 7.65 17.687 2.55 4.289 4.977 8.494 7.365 12.911 3.075 5.702 6.433 11.168 9.229 17.036 1.698 3.602 3.115 7.245 4.493 10.927 0.811 2.060 1.782 4.331 1.944 6.558 0.406 4.609-0.078 9.512-0.603 14.084-2.266 18.212-10.199 34.884-14.732 52.527-2.55 10.043-5.625 20.072-9.107 29.708-2.47 6.922-8.093 13.314-12.182 19.262-4.654 6.795-9.229 13.598-13.719 20.48-2.955 4.569-6.152 9.23-8.579 14.162-1.58 3.238-2.711 6.638-4.046 10.004-2.55 6.39-5.179 12.911-8.093 19.142-3.318 7.078-6.881 13.921-11.050 20.52-1.255 2.060-2.589 4.049-3.682 6.194-0.649 1.332-1.053 2.832-1.901 4.008-0.809 1.175-2.022 1.947-2.874 3.123-1.782 2.509-3.52 5.142-5.382 7.69-3.967 5.545-7.65 10.686-12.506 15.503-2.954 2.915-6.314 5.298-9.146 8.338-2.874 3.153-6.557 5.985-10.602 7.482-0.488-0.937 0.123-2.342 0.404-3.32 1.294-3.925 3.723-7.61 5.868-11.129 3.036-4.973 6.394-9.75 9.593-14.608 4.696-7.078 8.703-14.488 12.911-21.854 4.168-7.287 7.89-14.851 10.602-22.783 3.52-10.24 8.864-19.586 11.655-30.111 1.173-4.528 2.874-8.658 4.493-13.031 2.186-5.788 3.198-12.018 5.1-17.887 1.9-5.91 3.519-11.733 4.857-17.804 1.377-6.361 3.359-12.546 4.937-18.859 2.426-9.553 3.198-19.381 4.654-29.056 0.282-1.822 0.854-3.602 1.011-5.424 0.167-1.54-0.041-2.997 0.239-4.487 0.447-2.509 1.172-5.829 0.603-8.419-0.239-0.937-0.896-1.416-1.457-2.186-1.417-1.978-2.386-4.528-3.358-6.766-2.953-7.003-5.301-14.368-7.365-21.691-2.426-8.743-3.562-17.602-4.775-26.587-1.053-7.566-2.672-14.85-4.451-22.297-1.333-5.59-1.821-11.293-3.278-16.877-2.954-11.129-6.272-22.178-9.549-33.223-1.255-4.331-2.47-8.658-3.804-12.949-0.809-2.676-1.255-6.402-2.711-8.783-1.255-2.103-3.479-2.145-5.586-3.279-3.926-2.019-7.325-4.777-10.765-7.482-3.723-2.956-7.974-5.382-11.089-9.022-2.55-2.997-4.815-6.234-7.447-9.189-3.44-3.925-6.921-7.731-9.913-12.018-3.967-5.788-8.943-10.686-13.598-15.906-3.519-3.966-6.394-8.294-9.471-12.586-1.782-2.468-3.562-5.142-5.504-7.523-2.874-3.561-7.771-5.506-11.858-7.367-1.537-0.729-4.168-1.219-4.612-2.997-0.404-1.78 1.216-4.123 2.022-5.545 3.358-5.746 7.65-10.805 15.176-19.426z"></path>
    <path fill="#000000" d="M496.956 911.985c-3.155-4.817-6.798-9.263-9.957-14.085-4.007-6.11-8.294-12.097-12.463-18.090-3.643-5.226-7.729-10.199-11.252-15.537-1.255-1.904-2.629-3.517-4.007-5.337-1.619-2.103-2.629-4.372-4.451-6.43-4.168-4.695-8.093-9.386-11.655-14.608-5.060-7.482-10.116-14.647-15.905-21.652-4.775-5.788-8.093-12.298-12.301-18.453-8.338-12.179-17.037-24.158-25.616-36.139-2.994-4.164-6.394-8.171-8.499-12.87-1.216-2.832-1.782-5.91-2.55-8.866-2.387-9.107-5.586-18.007-7.487-27.231-2.265-10.686-3.4-21.814-4.936-32.62-1.172-8.294-2.874-16.469-4.208-24.77-1.58-9.668-0.809-19.749-0.769-29.503v-13.518c0-1.375-0.284-2.956-0.040-4.289 0.241-1.583 1.417-3.123 2.062-4.569 4.897-11.212 10.48-22.019 15.54-33.147 3.52-7.651 7.729-14.933 10.602-22.906 2.106-5.746 4.29-11.536 6.718-17.16 1.821-4.133 4.371-7.367 7.082-10.927 1.013-1.332 3.116-3.153 2.994-5.059-0.078-0.937-0.969-2.071-1.333-2.997-0.605-1.457-0.852-2.468-0.891-4.133-0.201-5.142 0.444-10.199-1.013-15.26-0.729-2.312-1.457-4.654-2.146-7.003-1.216-4.123-3.562-5.142-7.325-6.598-2.062-0.833-4.047-0.937-5.99-2.145-0.93-0.52-1.619-1.219-2.751-1.375l-12.827-1.457c-6.557 3.561-12.747 8.98-17.808 14.326-6.11 6.43-12.182 13.191-17.483 20.274-2.51 3.361-5.464 6.558-7.811 10.043-9.347 13.755-13.516 30.067-17.967 45.891-2.834 10.032-5.341 20.152-8.014 30.229-2.308 8.575-5.060 17.082-7.406 25.659-2.55 9.147-5.869 17.765-9.835 26.427-1.053 2.342-0.527 4.817-0.202 7.523 1.457 12.223 6.353 23.593 8.499 35.654 2.47 14.080 6.718 27.842 10.199 41.643 3.44 13.839 8.782 27.19 14.487 40.224 3.198 7.287 8.255 15.095 8.457 23.307 0.040 0.625-0.284 1.583 0.079 2.227 0.040 0.075 0.851 0.52 0.891 0.52 0.769 0.937 1.457 1.739 2.145 2.665 3.52 4.777 7.326 9.147 11.209 13.598 2.672 3.112 5.424 6.11 8.339 8.98 4.857 4.736 10.361 8.658 15.418 13.234 8.175 7.367 16.39 14.69 24.484 22.218 5.179 4.777 11.252 8.294 17.037 12.262 5.424 3.769 10.685 7.69 16.39 11.006 10.642 6.194 21.288 12.384 31.851 18.653 4.208 2.509 8.619 4.372 13.030 6.474 5.746 2.748 10.844 6.194 15.944 10.032 9.672 7.367 20.963 14.005 28.49 23.715 0.284 0.416 0.487 0.729 0.769 1.175-2.106-4.621-3.723-9.709-6.557-13.842-3.44-4.973-5.95-10.397-9.268-15.458z"></path>
    <path fill="#000000" d="M362.887 370.847c-0.241-2.312-0.323-4.736-1.417-6.838-0.969-1.863-2.387-3.487-3.278-5.424-1.944-4.205-3.4-8.658-5.464-12.909-2.186-4.569-4.897-9.067-7.65-13.354-2.146-3.279-5.018-5.985-7.001-9.386-2.387-4.164-4.936-8.419-7.69-12.384-1.417-2.019-2.954-4.245-3.764-6.598-0.404-1.093-0.488-2.312-1.378-3.153l-12.098-0.729c-2.711 1.052-5.665 1.093-8.378 2.145-3.52 1.332-5.828 3.476-8.215 6.43-2.47 3.040-5.95 7.003-7.202 10.765-0.891 2.706-0.363 5.059-0.566 7.807-0.566 6.274-1.334 12.464-3.198 18.453-2.672 8.783-2.145 18.129-0.323 27.073 0.323 1.416 0.649 2.832 0.93 4.257 0.566 2.103 1.255 4.164 2.022 6.234 0.969 1.26 1.053 1.052 2.672 0.937 2.51-0.104 5.060-1.134 7.689-1.457 8.294-1.041 16.553-1.457 24.93-1.416 6.11 0.035 11.937-0.729 18.011-1.26 5.14-0.52 10.238-1.457 15.297-2.665 1.58-0.416 3.682-0.52 5.14-1.052 1.901-0.729 1.093-3.841 0.93-5.506z"></path>
    <path fill="#000000" d="M429.304 311.486c0.323-2.060-1.255-4.609-2.266-6.402-2.225-3.925-6.11-7.118-9.023-10.563-1.983-2.383-3.844-4.851-5.869-7.202-4.047-4.736-7.89-9.189-11.33-14.364-1.58-2.353-2.426-2.55-1.255-4.903 1.861-3.881 3.603-6.962 6.314-10.323 2.265-2.789 3.479-6.11 5.99-8.703 2.106-2.186 4.612-4.487 7.082-6.308 3.44-2.55 6.678-3.685 10.805-4.695 3.036-0.729 5.828-2.186 8.864-2.873 6.272-1.457 13.436-2.019 19.871-2.060 5.99-0.074 11.897-0.729 17.887-0.729 11.089 0.036 22.499-0.937 33.467 0.52 5.705 0.729 11.252 2.268 16.997 2.915 4.815 0.52 9.347 1.134 14.083 2.103 8.904 1.78 17.563 4.654 26.305 7.118 4.208 1.219 8.338 2.268 12.423 3.725 1.457 0.52 2.914 1.052 4.371 1.457 1.619 0.52 3.198 1.332 4.775 1.78 2.791 0.937 5.382 1.175 8.093 2.509 1.619 0.729 3.115 1.499 4.612 2.477 0.566 0.312 2.022 0.729 2.347 1.208 0.323 0.416-0.123 0.833 0.041 1.26 0.527 1.219 0.769 2.186 0.769 3.517 0.041 4.862-3.318 9.431-5.14 13.722-1.536 3.602-4.248 6.066-6.678 9.022-1.782 2.186-3.844 4.205-6.193 5.87-1.983 1.375-4.371 1.978-6.474 3.030-2.914 1.457-5.544 3.725-8.175 5.673-1.861 1.375-4.248 2.997-6.718 2.706-0.969-0.104-1.782-0.52-2.751-0.729-1.742-0.416-3.883-0.075-5.625-0.075-5.949 0.035-11.937 0-17.887 0h-38.609c-11.169 0-22.542-0.729-33.588 1.249-3.844 0.729-7.082 1.416-10.642 3.040-3.562 1.613-6.961 2.748-10.725 3.966-2.711 0.833-5.543 1.583-8.294 2.268-1.619 0.416-4.087 1.947-7.851-1.249z"></path>
    <path fill="#000000" d="M425.032 224.533c-2.146 2.071-5.179 1.947-7.811 2.789-5.14 1.655-9.997 4.817-14.851 7.159-2.791 1.375-5.625 3.685-7.974 5.662-1.013 0.937-2.062 2.997-3.562 3.040-1.216 0-2.751-1.583-3.603-2.268-1.378-1.134-2.954-2.268-4.208-3.602-3.278-3.394-4.411-8.703-6.433-12.909-2.308-4.777-5.746-8.294-8.5-12.748-2.145-3.446-4.047-7.003-6.232-10.397-0.851-1.301-1.536-2.758-2.308-4.049-1.334-2.145-2.954-4.413-4.493-6.39-2.265-2.873-4.696-5.268-6.557-8.379-2.308-3.81-4.696-7.807-7.325-11.412-0.969-1.301-1.742-1.947-2.914-2.956-2.022-1.739-3.683-1.863-6.314-2.633-3.358-0.937-6.354-2.676-9.712-3.685-4.29-1.26-8.703-2.268-12.95-3.685-3.075-1.052-5.746-2.717-8.782-3.925-4.897-1.947-10.159-2.394-15.136-3.925-2.791-0.833-5.504-2.030-8.294-2.915-4.897-1.499-10.16-1.375-15.216-1.739-2.751-0.104-5.301-0.625-7.974-0.937-3.764-0.416-7.89 0-11.694 0-8.136 0-16.47-0.52-24.565 0.104-4.128 0.312-8.093 1.375-12.182 1.863-4.128 0.52-8.499 0.729-12.463 1.904-3.723 1.093-6.921 3.361-10.361 5.018-4.572 2.186-9.308 4.216-14.004 5.996-1.417 0.52-4.248 2.383-5.868 2.186-0.123-1.041 1.658-2.758 2.265-3.361 2.308-1.696 4.776-3.082 7.447-4.049 3.804-1.696 7.65-3.153 11.616-4.413 8.983-2.915 18.172-4.973 27.115-7.93 10.524-3.446 21.49-6.194 32.255-8.743 4.332-1.041 8.255-2.873 12.708-3.361 1.782-0.208 3.278-0.625 4.976-0.937 0.891-0.104 1.944 0.312 2.834 0.075 1.377-0.312 1.497-0.729 3.278-0.729 4.775-0.312 9.712 0 14.529 0 7.729 0 15.825-0.625 23.513 0.036 2.55 0.208 5.543 0.729 8.014 1.572 0.729 0.312 1.417 0.729 2.145 1.093 0.969 0.104 1.944 0.416 2.874 0.833 2.672 1.583 5.261 3.561 7.931 5.181 2.751 1.696 5.585 3.32 8.418 4.862 1.658 0.833 3.358 1.665 5.018 2.468l4.897 3.196c2.062 1.041 4.087 2.103 6.029 3.279 2.751 1.904 5.424 3.841 8.093 5.829 2.629 1.613 5.424 2.997 8.136 4.498 3.238 1.822 8.054 3.517 10.44 6.35 5.789 6.922 9.672 15.825 13.030 24.118 3.358 8.252 6.557 17.401 12.626 24.283 0.851 0.937 1.901 1.416 2.875 2.186 1.172 1.041 2.106 2.873 3.562 3.517 0.729 0.416 2.022 0.416 2.834 0.625 1.255 0.416 1.983 0.416 12.827 2.312z"></path>
    <path fill="#000000" d="M578.136 359.139c-0.891 5.181-7.082 8.211-11.938 7.93-2.51-0.104-5.14-1.822-7.285-3.153-2.711-1.696-3.479-5.059-3.075-8.096 0.241-1.655 1.053-2.676 1.782-4.133 0.689-1.375 1.053-2.873 2.106-4.089 1.901-2.186 4.007-2.227 7.285-1.696 0-0.104 0.041-0.312 0.078-0.416 1.497 0.312 2.914 0.833 4.248 1.739 1.659 1.134 3.358 1.696 4.612 3.196 1.861 2.103 2.672 5.87 2.186 8.743zM553.775 391.172c-0.363 2.832-2.225 4.695-4.451 6.152-1.216 0.833-2.308 1.301-3.764 1.655-1.093 0.312-1.901 0.416-3.075 0.416-0.93 0.035-1.58 0.416-2.47 0.625-3.036 0.52-7.122-0.416-9.51-2.019-1.333-0.937-2.186-2.060-3.318-3.196s-2.347-2.186-2.954-3.799c-0.93-2.676-1.944-5.91-0.769-8.616 0.241-0.52 0.487-0.937 0.809-1.416 0.488-0.937 1.013-1.134 1.658-1.863 0.729-0.833 0.769-1.249 1.901-1.739 0.527-0.208 1.619-0.833 0.527-2.268 3.44-1.78 8.255-1.052 12.142-1.052 1.537 0 3.562-0.312 5.060 0.035 1.497 0.416 3.318 1.249 4.493 2.186 1.216 0.937 1.821 2.145 2.672 3.405 0.163 0.312 0.809 1.052 0.93 1.375 0.123 0.416 0.041 0.625 0.123 0.937 0.041 0.208 0.363 1.052 0.404 1.175 0.566 2.676-0.041 5.545-0.404 8.096zM520.669 367.464c-0.969 0.52-2.022 1.457-2.994 1.696-1.133 0.312-2.427 0.104-3.603 0.104-2.106 0-4.897 0.52-6.921 0-0.404-0.074-0.566-0.416-1.013-0.52-0.566-0.104-1.013-0.035-1.619-0.416-1.053-0.625-1.255-1.739-1.58-2.789-0.729-2.425-2.225-4.498-3.318-6.881-0.566-1.332-0.488-2.468 0.284-3.725 0.729-1.134 1.821-3.279 4.411-2.633 0.566-0.729 1.782-0.833 2.59-1.134 1.417-0.52 2.51-0.416 4.007-0.416 2.629 0 4.735-0.074 7.122 1.052 2.106 0.937 4.411 3.123 5.301 5.298 0.363 0.833 0.488 1.904 0.852 2.873 0.241 0.52 0.487 0.625 0.487 1.332 0 0.729-0.323 0.833-0.487 1.375-0.729 2.394-1.173 3.476-3.52 4.736zM502.824 393.112c-0.605 1.54-0.891 3.405-1.944 4.736-0.93 1.134-2.062 2.383-3.198 3.279-1.944 1.583-4.086 1.904-6.394 2.676-2.106 0.729-4.532 0.416-6.718 0.416-2.106 0-4.007 0.312-5.828-0.625-1.216-0.625-2.914-1.301-3.722-2.509-0.891-1.29-0.93-2.383-1.417-3.725-0.201-0.52-0.729-1.041-0.852-1.54-0.123-0.625 0.041-1.499 0.041-2.145 0-1.54-0.163-3.071 0.241-4.487 0.527-1.696 1.216-3.361 2.022-4.934 0.689-1.301 1.133-2.706 1.983-4.008 0.363-0.625 1.053-0.937 1.457-1.499 0.201-0.312 0.284-0.729 0.487-0.937 0.444-0.52 1.013-0.625 1.619-1.041 0.323-0.208 0.809-0.833 1.216-1.041 0.444-0.208 1.093-0.075 1.58-0.104 0.969-0.208 1.536-0.416-0.566-1.499 0.041-0.104 0.078-0.312 0.123-0.416 3.723-0.52 7.365-1.093 11.006 0.036 3.4 1.093 6.193 2.468 7.811 5.702 1.457 2.915 1.698 5.788 1.698 8.98 0 1.822-0.041 3.082-0.649 4.817zM467.453 348.248c-1.294-0.312-3.4-1.978-3.926-3.196-0.649-1.416-0.241-3.602-0.241-5.181-0.041-3.725 1.901-7.41 5.789-8.054l-0.527-1.052c0.891 0 1.58-0.074 2.387 0.312 0.769 0.416 1.417 1.052 2.146 1.499 2.51 1.624 2.954 3.81 3.4 6.673 0.323 2.312-1.173 5.226-2.63 6.922-1.255 1.499-4.371 2.592-6.394 2.103zM494.486 334.755c-0.041-2.383 0.852-4.331 2.51-6.11 1.334-1.416 3.075-1.052 4.897-1.052l-2.106-2.103c0.969 0 2.186-0.208 3.115-0.075 1.497 0.312 3.198 1.54 4.331 2.509 2.226 1.947 3.643 5.181 3.683 8.096 0 1.54-0.769 3.881-2.226 4.736-1.255 0.729-4.331 0.074-5.746 0.104-1.742 0-3.239-0.416-4.936-0.52-1.619-0.104-1.58-0.312-2.589-1.457-1.133-1.332-0.891-2.312-0.93-4.089zM533.66 330.296c0-1.947 0.363-4.205 2.106-5.424 1.698-1.249 3.804-0.937 5.828-0.937l-1.58-1.583c0.852 0.104 1.58 0.729 2.308 1.093 1.658 0.729 3.239 1.29 4.572 2.592 2.106 2.060 2.711 4.58 2.672 7.523-0.078 2.394-0.527 4.569-2.954 5.465-2.186 0.833-5.14 0.104-7.365-0.208-1.821-0.312-3.967-0.833-4.936-2.55-1.053-1.78-0.649-3.966-0.649-5.954zM456.93 376.782c-1.216 2.832-2.914 5.829-6.433 5.944-1.782 0.074-3.643-0.035-5.424-0.035-1.658 0.035-3.278 0.104-4.572-0.833-0.689-0.52-1.742-1.041-2.225-1.739-0.729-0.937-1.417-3.561-1.497-4.736-0.201-2.706 0.078-4.777 1.619-7.078 1.378-2.103 3.278-3.725 5.828-4.089l1.58-1.583c0.488-2.145 4.857-0.937 6.153-0.52 1.093 0.312 3.318 1.052 4.129 1.904 0.93 0.937 1.216 2.706 1.497 3.925 0.689 2.832 0.566 6.152-0.649 8.899zM627.384 400.472c-0.891-7.453-3.883-14.408-7.61-20.805-2.47-4.133-4.532-8.294-7.406-12.178-1.861-2.55-4.129-4.609-6.069-7.078-1.536-1.947-1.781-4.089-2.186-6.517-0.363-2.342-1.457-4.609-1.658-7.003-0.163-1.822 0.241-3.725 0.078-5.545-0.444-4.892-1.983-11.33-5.665-14.771-2.387-2.186-4.776-3.685-7.851-4.777-4.573-1.624-9.023-3.685-13.759-4.903-4.129-1.052-8.457-1.301-12.626-2.268-1.173-0.208-2.387-0.833-3.603-0.729-2.47-1.739-4.248-2.186-5.868-2.676-2.834-0.833-5.625-0.52-8.457-1.052-2.106-0.416-3.844-0.52-5.99-0.52-2.106-0.074-4.007-0.729-6.069-0.729-5.908-0.208-11.858 0-17.765 0-4.492 0-9.067-0.208-13.555 0.104-4.815 0.416-9.146 2.509-13.84 3.32-6.557 1.052-13.436 1.041-20.073 1.696-3.844 0.416-7.65 0.625-11.414 1.583-3.519 0.937-6.394 2.353-9.549 4.089-3.804 2.145-6.678 4.817-9.549 7.974-1.536 1.665-3.278 2.997-4.332 5.059-0.689 1.29-0.809 2.509-1.216 3.881-1.378 4.289-4.047 7.774-4.735 12.384-0.649 4.133-1.58 8.616-2.994 12.548-0.891 2.55-2.51 4.934-3.603 7.443-0.566 1.29-1.255 2.342-1.944 3.476-2.022 3.238-4.775 6.274-7.325 9.107-2.711 2.988-4.332 7.118-5.301 10.888-1.619 6.39-3.278 13.072-3.239 19.665 0 2.060-0.201 3.881 0.649 5.788 0.488 1.041 0.969 2.019 1.457 3.030 1.294 2.8 3.116 5.829 4.815 8.379 2.629 3.966 6.354 9.304 11.533 9.304 4.612 0 8.014-2.509 12.059-4.331 1.093-0.52 2.427-1.093 3.723-0.729 1.742 0.52 1.377 1.904 1.377 3.446 0.123 5.662 1.013 11.899 2.186 17.444 0.93 4.453 0.93 9.022 2.106 13.436 1.742 6.274 1.698 12.951 3.562 19.18 1.133 3.851 2.146 8.743 4.411 12.142 1.944 2.915 4.331 5.142 7.042 7.287 2.751 2.145 4.654 5.181 7.851 6.838 1.782 0.937 3.723 1.904 5.544 2.789 0.93-1.531-0.566-4.892-0.93-6.558-0.809-4.245-1.378-8.546-2.47-12.747-1.053-4.205-1.742-7.807-1.497-12.183 0.078-1.219 0.404-2.103 0.649-3.279 0.444-1.978 0.201-4.289 0.444-6.35 0.241-1.947 0.201-3.881 0.404-5.829 0.201-2.019 0.969-4.049 1.378-6.066 0.851-4.008 1.093-8.494 2.265-12.422 1.173-3.769 3.52-7.202 4.857-10.888 1.294-3.561 3.358-5.545 6.433-7.651 1.294-0.937 3.239-1.332 4.29-2.55 0.769 0.52 0.527 1.041 0.689 1.822 0.201 1.052 0.404 2.227 0.605 3.361 0.649 2.956 1.821 4.695 3.682 7.046 1.782 2.186 3.967 3.799 6.433 5.337 0.852 0.625 1.861 1.134 2.914 1.457 0.891 0.208 1.659 0.625 2.308 1.301 1.093-0.035 0.891 0.104 1.173-0.937 0.404-1.332 0-3.561 0-5.018-0.041-2.55 0.851-4.736 1.497-7.202 0.487-1.822 1.133-3.279 3.115-3.769 0.809-0.208 1.58 0.035 2.426-0.034 1.698-0.104 3.318-0.625 5.060-0.729 2.186-0.104 4.332-0.52 6.517-0.729 2.022-0.104 2.589-1.093 4.332-1.499 0.809-0.208 1.944 0.034 2.751 0.034 2.55 0 5.1 0 7.65 0 2.994-0.034 5.788 0.729 8.821 0.729 2.106-0.034 4.168 0 6.272 0 3.358-0.034 5.464 3.769 7.162 6.234 1.417 2.103 3.198 3.361 4.29 5.87 0.891 2.103 1.742 4.695 2.266 6.922 2.51-3.040 3.804-8.171 4.815-11.855 0.605-2.186 1.658-4.175 2.062-6.39 0.163-1.052 0.404-3.196 2.062-2.832 0.566 1.54 3.519 2.997 4.654 4.133 1.457 1.457 2.711 3.361 3.883 5.018 3.198 4.539 3.519 11.778 3.036 17.121-0.163 2.019-0.689 3.725-0.729 5.829-0.078 2.789-0.078 5.181-0.488 7.93-0.404 2.509-0.891 4.621-1.698 7.003-0.605 1.863-0.444 2.956-0.729 4.862-0.404 2.227-1.944 4.164-2.63 6.308-0.649 1.947-1.172 3.933-1.901 5.87-0.891 2.312-3.278 5.181-2.51 7.774 1.457 0.312 3.036-1.332 4.168-2.060 1.457-0.937 2.914-1.583 4.411-2.353 2.51-1.29 4.411-2.633 6.272-4.736 3.48-3.966 6.394-8.338 8.984-12.951 2.629-4.609 4.248-9.471 6.474-14.284 1.619-3.446 2.51-6.558 3.319-10.24 0.605-2.873 1.944-5.309 2.022-8.294 0.078-3.446-0.041-6.922-0.041-10.397 0-1.332 0.241-2.873 0.041-4.205-0.163-0.729-0.605-1.219-0.769-2.019-0.284-1.093-0.241-2.071-0.689-3.238-0.363-0.937-0.769-1.822-0.769-2.832 0-2.268 1.255-3.030 3.239-3.517 2.711-0.625 5.665-0.416 8.215-1.457 2.751-1.175 2.55-2.789 3.562-5.298 0.729-1.822 0.891-3.602 1.377-5.337 0.729-2.509 1.698-4.289 1.417-6.922z"></path>
    </svg>