<svg xmlns="http://www.w3.org/2000/svg" viewBox="161.534 -49.324 685.929 1121.587">
    <path fill="#000000" d="M597.946 922.529c-4.579-1.807-9.621-3.008-14.054-5.316-2.319-1.201-6.018-5.042-8.646-3.568-0.713 0.475-1.475 1.713-2.224 2.307-2.081 1.713-5.042 3.33-7.302 4.531-6.291 3.378-12.994 5.411-19.471 8.003-4.305 1.665-7.718 0-11.833-1.939-7.313-3.46-13.873-6.66-21.689-8.229-4.995-1.071-9.942-2.081-14.935-3.187-2.545-0.475-5.458-1.76-8.003-1.487-0.357 3.056-2.176 4.115-4.341 5.316-5.458 3.008-11.88 4.257-17.708 6.018-5.78 1.843-11.512 3.877-17.297 5.637-5.78 1.807-11.464 2.736-17.432 2.818-1.617 0.040-6.517-0.832-8.003 0.357-1.427 1.071-1.071 1.713-0.041 3.14 2.545 3.52 7.445 5.874 10.584 8.135 7.909 5.78 15.401 12.3 23.212 18.311 5.458 4.209 10.965 8.372 15.125 14.427 1.665 2.45 3.044 5.125 5.97 5.637 0.083-0.357 0.119-0.594-0.238 8.229 3.378 0.594 4.209 0.357 8.087-0.475 10.869-2.259 22.012-2.64 32.925-4.257 7.956-1.071 15.724-3.234 23.632-4.531 2.176-0.238 4.353-0.594 6.517-0.952 0.952-0.040 1.855-0.084 2.818-0.119 0.594-0.475 0.357-1.297 0.832-1.713 0.832-0.594 1.617-1.071 2.45-1.617 1.427-0.952 2.402-2.307 3.556-3.651 3.841-4.483 8.372-8.051 12.951-11.417 9.382-6.981 19.42-12.162 28.389-19.979 6.148-5.316 13.132-9.336 19.374-14.381-3.604-0.594-7.171-1.475-10.775-2.176-4.341-0.832-8.372-2.272-12.531-3.889z"></path>
    <path fill="#000000" d="M387.27 201.209c0.119-1.76 0.832-2.033 1.391-3.604 1.071-3.044 1.522-6.47 2.497-9.573 0.238-0.832 1.569-3.651 0.713-4.483-1.249-1.249-1.713 0.475-2.592 0.952-2.224 1.071-4.805 0.041-7.076 0.832-0.238-1.939 1.201-4.436-1.19-4.757-1.939-0.238-2.259 3.33-2.818 5.221-0.238 0.832-0.475 2.414-0.832 3.937-3.425-1.19-6.886-2.259-10.358-1.569 0.041 1.343 1.76 3.152 2.497 4.115 1.891 2.45 2.914 2.866 5.363 3.889-0.475 2.307-3.794 2.402-5.268 2.497-1.76 0.084-2.736 1.201-4.115 1.522-1.249 0.238-2.592-0.713-3.746-0.084-1.986 0.952-3.568 3.52-2.782 5.506 0.832 2.081 2.962 2.592 4.115 4.436 1.439 2.176 2.592 3.008 0.832 4.852-2.033 2.259-4.257 0.594-5.090 4.162-1.569 6.47 6.577 7.445 10.037 6.196 0.357 1.891-0.594 3.698-0.475 5.602 0.119 1.807 0.475 3.841 0.713 5.602 0.119 1.071 0.475 3.425 1.249 4.020 2.497 1.665 2.866-1.569 3.33-3.152 0.594-2.224 4.353-10.263 6.66-10.584 1.19-0.119 2.402 2.129 3.556 2.723 0.713 0.357 1.439 0.119 2.176 0.594 0.594 0.475 0.952 1.569 1.795 1.939 1.071-2.176 0.832-6.148 1.071-8.658 0.119-1.297 0.594-3.092 0.238-4.388-0.475-1.427-2.224-1.76-2.866-2.866-1.903-3.187 1.071-4.673 2.497-6.612 0.713-1.071 0.713-2.224 1.379-3.33 0.475-0.713 1.665-1.487 2.366-1.986-2.414-0.119-5.684 0.475-5.316-3.008z"></path>
    <path fill="#000000" d="M374.416 194.643c0-0.119 0-0.357 1.487-0.952-0.475 0.475-0.832 0.832-1.487 0.952z"></path>
    <path fill="#000000" d="M450.809 100.124c-0.832 6.755 1.665 15.211-2.962 20.67-2.592 3.152-5.602 2.64-8.919 3.472-1.297 0.357-4.531 0.119-5.458 1.343-0.119 2.081 1.713 4.483 2.307 6.291 0.594 1.487 0.832 3.152 1.439 4.579 1.19 2.545 4.757 5.268 3.152 8.693-1.19 2.402-7.813 0.238-9.989-0.119-1.617-0.357-2.402-0.832-3.698-1.76-1.071-0.713-1.201-1.939-2.676-1.439-1.249 4.995 5.589 10.917 7.302 14.982 0.832 1.986 1.903 5.874 1.201 8.087-0.594 2.224-2.355 2.545-4.257 2.688-2.736 0.119-5.316-0.832-8.003-1.071-1.297-0.119-7.267-0.832-8.42 0.238-3.234 3.104 4.162 9.026 5.554 11.060 2.355 3.425 5.173 7.207 6.612 11.238 1.76 4.757-1.569 6.1-4.947 8.372-1.522 1.071-3.841 1.522-3.46 4.305 0.594 1.249 1.379 2.224 2.545 2.818 1.343 1.439 2.45 3.152 3.33 4.995 1.713 2.64 3.651 3.425 5.602 5.542 1.071 1.19 1.617 2.771 2.676 3.937-2.592 2.259-9.799-0.357-8.135 6.612 0.832 3.378 3.187 3.568 5.221 5.28 2.45 2.033 4.436 4.757 7.397-6.933l0.119-1.939c-0.832 8.42-1.713 16.831-2.592 25.201-0.357 3.425 0.238 10.631-2.033 13.132-0.952 1.071-2.402 0.475-3.282 1.665-0.594 0.952-0.713 4.436-0.594 5.602 2.592 0.713 2.497 1.475 4.388 3.782 1.855 2.272 3.698 4.115 6.1 4.769-0.594-0.041-1.19-0.041-1.713 0.238-0.594 0.357-1.071 1.071-1.487 1.713-0.832 1.19-1.903 1.986-2.723 3.008-1.713 2.081-3.794 5.874-1.891 8.693 1.617 2.45 4.531 3.472 6.755 4.673 1.986 1.071 2.914 3.33 4.483 5.268-1.713-0.832-3.33 2.866-3.782 4.305-0.475 1.249-0.238 2.545-0.594 3.746-0.357 1.297-1.19 2.129-1.475 3.52-0.594 2.818 1.249 3.33 2.259 5.494 0.832 1.713 1.071 3.056 2.307 4.721-2.688-0.043-4.162-1.903-5.602-4.305-2.307-3.746-4.995-7.219-7.076-11.191-1.617-3.092-3.187-5.173-5.316-7.861-2.259-2.914-3.187-5.78-6.018-8.039-2.307-1.855-3.841-5.185-5.922-7.492-0.832-0.952-1.475-2.081-2.64-3.008-0.475-0.357-1.439-0.832-1.807-1.297-1.332-1.617-2.592-3.152-3.972-4.673-1.427-1.487-1.475-3.604-2.771-5.185-2.723-3.425-7.076-5.732-9.478-9.478-0.475-0.832-0.952-2.962-1.569-3.556-0.832-0.832-2.592-0.475-3.651-0.952-1.522-0.594-4.020-3.044-5.602-2.914-1.617 0.084-3.008 3.14-4.531 3.841-1.986 0.952-4.531-0.952-6.612-0.713-2.081 0.119-2.676 0.952-4.899 0.238-1.807-0.475-3.472-1.939-5.28-2.592-1.343-0.475-2.818-0.357-4.020-1.071-1.071-0.594-1.249-2.402-2.866-2.355-0.238 1.617 0.952 3.651 1.332 5.173 0.713 2.497 0.952 5.090 1.487 7.587 0.594 2.866 0.475 6.422-2.081 8.514-1.807 1.522-6.933-0.357-9.336-0.713-1.569-0.119-2.272-0.475-3.52-1.343-1.19-0.832-2.081-2.402-3.234-2.962-1.071 3.14 0.084 6.838-0.238 10.263-0.119 1.201 0.043 3.234-0.594 4.257-1.19 1.665-2.355 0.475-3.651 1.071-0.952 0.475-1.19 1.569-2.307 1.807-0.594 0.119-1.391-0.475-2.033-0.357-0.713 0.084-0.713 0.713-1.249 0.832-1.249 0.238-2.914 0.041-4.162-0.475-1.569-0.594-2.545-2.355-4.353-1.071-2.176 1.487-0.832 5.411-2.45 7.492-0.594 0.832-1.522 1.297-2.176 1.986-0.832 0.952-1.439 2.545-2.45 2.914-0.832 0.357-3.008-0.475-3.937-0.594-2.259-0.357-4.531-0.594-6.838-0.952-1.665-0.238-4.067-1.439-4.995 0.357-0.594 1.249-0.041 3.794-0.475 5.221-0.475 1.665-1.19 1.665-2.081 2.818-0.594 0.713-0.832 2.307-1.487 3.008-2.081 2.176-5.173-0.475-7.944-0.041-1.071 0.119-2.224 2.129-2.914 0.119-0.238-0.594 1.522-5.684 1.807-6.291 1.986-5.554 6.981-9.847 10.085-14.474 1.76-2.545 4.483-3.794 6.196-6.338 1.071-1.569 2.497-4.388 3.092-6.196 0.713-2.307 0.475-3.044 1.986-4.852 1.939-2.355 3.841-4.816 5.602-7.349 1.487-2.081 3.937-4.805 4.995-7.123 0.713-1.617 0.952-2.592 1.807-4.020 2.176-3.425 5.363-4.721 7.313-8.551 1.617-3.152 3.425-5.97 4.209-9.573 0.713-3.33 2.033-5.874 3.794-8.646 3.46-5.458 6.755-10.405 8.467-17.062 0.952-3.651 0.952-7.765 1.391-11.512 0.357-2.676-0.238-4.947-0.238-7.539 0.041-3.604 1.487-7.302 0.952-10.917-1.249 0.475-0.238 1.071-1.19 2.272-0.713 0.952-1.391 0.594-2.355 0.952-1.807 0.475-3.472 0.952-5.268 0.083-0.238-4.995-1.76-10.263-3.556-14.75-1.071-2.592-2.224-5.090-2.402-8.003-0.119-2.818 0.713-9.989-1.343-11.654-0.952 2.272 0.041 5.554-2.545 6.897-1.939 0.952-2.307-0.119-2.818-2.224-1.249-5.137 0.357-10.584-0.238-15.771-0.357-2.676-0.119-5.363-0.475-7.909-0.119-1.807-1.071-3.044-1.343-4.805-0.238-1.713 0.238-3.282 0.238-4.947 0-1.939-0.357-3.794-0.238-5.732 0-4.209-1.986-13.782 5.042-10.917 1.617 0.713 1.439 1.332 2.45 2.771 0.832 1.297 2.129 2.45 2.818 4.020 0.594 1.249 1.249 4.579 1.071 5.874-0.119 1.617-0.238 1.617-1.071 2.914 2.545 1.249 4.721 2.914 7.219 4.305 1.843 1.071 3.794 0.594 5.637 1.713 2.676 1.569 6.564 4.020 8.372 6.755-0.594 1.665-3.698 1.843-3.52 3.937 0.119 1.76 4.899 4.020 6.196 4.899 3.794 2.64 8.087 3.604 11.702 6.755 2.129 1.891 7.623 3.14 6.886 6.707-0.832 0.832-1.487 1.843-2.129 2.914-0.041 1.713 0.594 3.008 1.939 3.889 1.617 1.665 3.044 1.713 5.125 2.081 2.545 0.357 3.698-0.832 6.1-1.249 2.081-0.238 3.972 0.594 6.018 0.357 0.713-0.475 1.439-0.713 2.224-0.594 0.952 0.119 1.855 0.357 2.771 0.594 1.439-0.475 1.439-1.855 2.176-3.472 1.19-2.545 2.688-5.268 4.020-7.683 1.071-1.891 1.249-2.45 3.104-2.676 1.617 0.475 3.14 0.119 4.673-0.594 1.617-1.071 3.152-2.307 4.626-3.651 1.76-1.249 2.818-2.081 4.257-3.651 1.071-1.201 1.939-2.545 3.234-3.556 0.952-0.713 1.986-1.343 3.044-1.855 0.832-0.713 1.439-1.713 1.617-2.962 1.297-1.891 2.736-2.723 4.209-4.305 2.081-2.129 3.568-4.388 5.827-6.196 1.807-1.427 3.234-2.081 4.531-4.341 1.071-1.939 1.807-3.46 3.282-5.125 2.259-2.497 2.592-5.268 3.794-8.467 1.071-2.592 3.425-9.621 5.78-10.631 4.209-1.807 2.818 11.464 2.545 13.732zM674.495 254.469c-0.357-3.14 0.119-6.018 1.249-8.646-32.048-31.813-73.804-54.242-110.287-82.354-6.018-4.626-8.931-10.822-9.573-16.975-5.827-0.952-11.737-1.748-17.523-0.832-2.962 0.475-5.78 1.391-8.693 2.033-5.684 1.249-11.333 0.952-17.020 1.843-6.981 1.071-13.639 5.042-20.389 7.349-5.137 1.807-9.157 4.447-13.875 7.302-2.914 1.76-5.506 2.176-8.551 3.092-2.497 0.713-4.709 1.891-7.123 2.771-3.46 1.297-6.933 0.475-10.215 2.402 1.249-1.071 1.071-4.067 1.201-5.78 0.238-3.14 1.249-5.554 1.807-8.551 0.832-4.257 1.939-8.551 3.092-12.67 0.594-2.224 0.594-4.483 0.832-6.802 0.357-2.355 1.343-4.341 1.76-6.707 0.713-4.673 2.771-8.966 3.378-13.731 0.594-5.090 1.939-9.716 2.45-14.935 0.475-4.626 0.952-9.252 1.439-13.873 0.594-5.363 2.224-12.070 1.665-17.385-0.357-2.736-1.522-5.232-1.807-7.956-0.357-2.771-0.238-5.506-0.357-8.277-0.238-5.090-2.176-10.037-2.307-15.028-0.084-1.986-0.084-3.698-0.238-5.506-0.041-0.594 0.357-2.545-0.041-3.008-1.297-1.569-4.115 4.899-4.899 6.148-1.569 2.545-2.497 5.173-3.508 8.087-0.952 3.008-2.64 5.316-4.305 7.813-3.794 5.732-5.78 12.624-9.43 18.497-3.472 5.602-4.531 11.559-7.028 17.713-2.081 5.125-6.755 6.564-10.132 10.405-1.939 2.176-3.234 3.698-5.732 4.805-2.866 1.297-4.067 2.45-6.422 4.852-3.52 3.604-7.076 6.79-10.869 10.037-3.604 3.044-7.635 5.506-11.191 8.693-2.259 1.986-4.162 4.864-5.97 7.349-1.19 1.522-2.497 4.531-4.257 4.805 0.357-2.402-3.604-6.612-4.899-8.467-2.497-3.52-7.159-5.042-10.405-7.397-5.125-3.794-10.679-7.539-15.073-12.393-1.487-1.569-3.282-2.676-4.709-4.257-1.249-1.427-1.939-3.604-3.008-5.268-2.402-3.52-5.173-6.707-7.635-10.132-3.508-4.805-7.397-9.43-10.727-14.381-0.594-0.832-1.071-1.569-1.475-2.497-1.891-3.841-3.841-6.612-6.529-9.799-1.795-2.129-4.721-4.257-6.291-6.422-0.238 12.716-2.866 25.57-4.757 37.963-0.594 3.698-1.76 6.933-2.176 10.727-0.357 3.83-0.475 7.445-0.475 11.286 0.119 5.090 0.475 10.215 1.903 15.028 1.487 4.805 3.889 9.252 5.494 14.013 2.414 7.028 6.434 13.132 8.562 20.255 1.665 5.506 2.224 9.752 2.545 15.442 0.357 4.673 2.771 9.252 4.579 13.27 0.594 1.297 1.343 2.129 1.439 3.651 0.084 1.522-0.475 3.008-0.238 4.579 0.238 2.962 0.238 1.522-1.343 3.52-1.071 1.297-2.033 2.307-3.234 3.472-3.378 3.14-5.268 7.492-7.623 11.559-2.259 3.794-4.947 6.897-7.956 9.799-2.497 2.402-4.162 4.020-6.196 7.445-2.676 4.483-5.232 8.087-8.182 12.205-2.402 3.33-4.995 6.755-6.933 10.453-1.249 2.45-1.986 4.769-3.841 6.755-2.259 2.545-4.673 3.841-6.47 7.076-1.487 2.723-2.259 5.732-4.162 8.182-1.855 2.45-4.115 4.805-6.517 6.47-2.962 2.033-5.827 3.794-8.467 6.422-2.723 2.782-4.483 6.434-7.076 9.204-0.952 0.832-1.986 1.76-2.997 2.592-0.832 0.832-1.569 1.855-1.986 3.044-1.249 1.19-1.439 1.19-3.234 1.487 0.594-0.713 2.129 2.914 2.866 4.020 1.391 2.129 2.866 4.388 4.067 6.707 1.071 1.891 1.569 4.899 3.234 6.148 1.343 1.071 4.115 0.713 5.602 0.832 2.628 0.357 4.436 0.475 7.123-0.084 6.981-1.249 13.597-4.209 20.439-6.196 7.539-2.176 15.073-4.162 22.521-6.85 6.47-2.355 11.238-6.755 17.062-10.549 6.66-4.341 14.013-6.564 20.44-11.238 5.458-3.972 12.901-7.683 17.246-13.132 4.115-5.090 9.573-11.977 16.14-8.693 2.45 1.201 5.090 4.899 7.076 6.707 2.355 2.129 4.483 4.162 6.612 6.564 2.545 2.914 5.411 5.542 7.635 8.872 2.676 4.067 4.579 8.872 6.612 13.407 4.162 9.204 10.631 16.693 16.924 24.002 2.962 3.425 5.874 7.445 9.252 10.215 2.402 1.986 5.316 2.771 7.765 4.709 3.044 2.497 6.006 6.517 8.693 9.526 2.592 2.866 4.947 5.874 7.397 8.872 2.259 2.723 4.947 4.531 7.313 7.028 1.617 1.665 2.307 4.769 4.305 5.827 2.355-5.173 0.713-14.104 1.19-19.789 0.357-4.436 1.071-8.884 1.439-13.367 0.475-6.612 0.357-13.315 0.952-19.927 0.952-9.716 2.545-19.050 0.475-28.671-1.807-8.503-5.874-16.001-7.267-24.693-0.594-4.020-1.891-7.813-2.259-11.833-0.119-2.129-0.832-3.937-1.522-5.684 1.343 1.748 3.425 2.914 4.995 3.651 2.676 1.201 6.517 1.439 9.382 1.617 4.209 0.238 8.503 0.357 12.716 0.357 4.673 0.083 9.204-1.807 13.873-1.379 4.436 0.357 9.11 1.617 13.367 3.044 3.651 1.297 6.47 2.914 9.288 6.018 2.818 3.092 5.602 5.411 8.551 8.277 7.956 7.683 13.782 17.201 19.886 26.774 2.176 3.425 4.162 7.076 6.517 10.311 3.008 4.115 6.006 7.671 8.646 12.255 4.257 7.445 7.445 15.674 7.123 24.878-0.119 5.78-0.357 12.623-1.795 18.124-0.952 3.472-3.056 4.673-5.137 6.897-2.355 2.497-4.162 5.506-6.47 8.051-4.388 4.757-9.062 8.788-13.224 13.87-5.316 6.47-10.917 12.901-17.344 17.943-5.268 4.115-10.917 7.254-16.508 10.631-7.991 4.852-15.166 10.085-22.612 16.001-30.055 23.859-59.418 48.414-87.023 76.158-6.981 6.981-13.412 14.705-19.702 22.474-3.937 4.805-7.302 10.179-11.238 14.935-4.257 5.232-9.252 9.43-13.597 14.427-6.196 7.076-12.021 14.842-17.662 22.567-7.397 10.179-15.355 19.978-22.429 30.521-5.554 8.277-10.311 16.971-15.258 25.708-6.47 11.512-13.182 22.382-18.727 34.636-9.11 20.158-16.462 40.644-23.356 62.007-3.092 9.668-4.115 19.192-5.125 29.366-1.343 13.501-3.056 26.724-4.899 40.091-1.665 12.485-2.782 25.063-4.067 37.64-0.238 3.056-0.594 6.244-0.832 9.43 0.475 1.986 0.713 4.020 1.201 5.922 28.394 46.66 83.050 73.619 139.833 93.547 3.604 0.119 7.267 0.475 10.917 0.713 3.604 0.238 8.135 1.379 11.559-0.594 2.45-1.427 1.617-1.76 0.041-3.282-2.307-2.224-4.757-3.378-4.483-7.397 0.119-3.472 0.832-7.028 1.071-10.501 0.083-0.952 0.119-6.517 0.594-7.765 0.952-2.224 3.556-1.522 5.316-1.617 4.579-0.084 7.718-1.569 11.702-4.305 4.067-2.818 7.492-6.707 11.559-9.526 1.297-0.952 3.056-1.487 4.067-2.818 1.19-1.487 1.297-3.104 1.343-4.769 6.018 0.085 12.115-0.040 16.325-5.042 4.305-5.090 6.1-12.207 9.752-17.804 0 0 0.041-0.041 0.041-0.085-13.315-0.084-26.632-0.238-39.952-0.594-47.721-1.343-130.537 6.196-130.957-60.899-0.238-41.156 14.894-75.654 33.202-109.363-5.268-8.42-6.196-20.671 0.594-29.317 11.785-15.166 24.367-29.78 37.549-43.929 1.855-3.044 3.746-6.148 5.589-9.11 3.698-5.922 8.42-9.11 13.319-10.358 5.090-4.995 10.215-10.037 15.489-14.847 16.001-14.75 33.894-28.389 47.122-45.59-4.162-9.11-1.903-21.043 8.325-28.347 56.507-40.509 122.863-63.35 180.432-102.101 0.713-0.475 1.343-0.594 1.986-1.071 22.243-29.086 35.467-65.753 50.452-99.697-7.765-26.677-14.289-53.591-17.759-81.523z"></path>
    <path fill="#000000" d="M505.972 891.177c-0.119 0.832-0.357 1.487-0.238 2.129 0.357 3.937 5.637-0.952 7.492-1.332 9.573-1.807 18.447 8.051 27.836 7.207 2.355-0.238 4.020-0.594 6.338-0.119 3.044 0.594 3.604-1.071 6.47-2.176 4.020-1.569 9.11-0.040 13.315-0.357 4.115-0.357 8.051-0.475 12.162-0.040 4.947 0.475 9.3 0 14.152-1.071 2.355-0.475 5.221-2.033 7.635-1.76 5.732 0.713 11.001 8.051 15.258 11.932 9.252 8.551 16.047 19.47 24.094 29.408 3.937 4.816 8.966 6.564 14.151 3.604 1.071-0.594 1.569-1.569 2.592-2.402 1.939-1.569 4.579-1.986 6.886-2.307 2.402-0.238 5.637-0.475 7.028-3.234 1.249-2.545-0.238-2.592 2.497-4.209 4.852-2.866 12.348-0.832 17.525-0.713 4.709 0.119 9.799 0.085 14.427-1.439 6.79-2.259 9.621-7.445 13.873-13.548 4.852-6.897 9.989-12.115 16.739-16.231 7.575-4.579 15.304-8.693 22.613-13.875 2.818-2.033 5.732-4.257 8.646-6.612-86.752 10.405-173.825 16.462-261.451 17.201z"></path>
    </svg>