<svg xmlns="http://www.w3.org/2000/svg" viewBox="-34.085 78.763 1113.172 993.658">
    <path fill="#000000" d="M988.255 960.056c-2.164-1.635-4.153-3.579-6.272-5.215-6.981-5.476-14.003-10.917-21.027-16.303-7.335-5.611-14.311-11.615-21.513-17.312-7.73-6.101-16.476-11.225-23.853-17.758-7.421-6.545-15.505-12.368-22.792-19.039-7.907-7.203-16.123-13.871-24.872-19.967-8.702-6.181-17.405-11.749-25.356-18.947-8.481-7.599-17.445-14.624-26.459-21.558-8.261-6.363-16.256-13.122-24.78-19.172-9.057-6.407-16.964-14.223-25.708-21.066-1.459-1.137-2.918-2.26-4.374-3.398-0.443-1.021-0.887-2.125-1.327-3.136-4.729-10.248-11.045-19.792-14.624-30.522-1.762-5.259-3.575-10.077-5.962-15.064-0.284-0.567 0.124-1.319-0.658-1.635-0.705-0.227-1.189 0.113-1.235 0.909-4.508-6.85-4.554-6.623-4.595-6.363-1.502 0.113-3.667 0.682-4.283 2.385-0.318 0.909 0.487 2.125 0.658 2.998 0.396 2.125 0.396 4.204 0.977 6.283 2.34 8.485 4.769 16.959 7.335 25.395-5.479-4.328-10.913-8.703-16.347-13.116-15.017-12.324-29.774-24.96-45.319-36.666-14.844-11.178-29.155-22.925-43.731-34.409-9.629-7.599-20.058-14.709-30.527-21.16-0.284-0.113-0.567-0.341-0.887-0.567-1.502-4.067-2.873-8.169-4.062-12.324-1.414-5.077-2.741-10.201-4.374-15.197-0.443-1.363-0.887-1.41-0.84-3.227l-2.694-19.569c-1.414 0.039-2.786-0.454-3.711-1.545 0.396 4.816 2.34 9.452 3.667 14.090 1.189 4.113 2.295 8.213 3.622 12.279 2.649 8.304 5.255 16.698 7.637 25.092-7.242-4.328-14.839-7.907-22.041-12.235-4.328-2.613-8.436-5.476-12.764-7.998-4.108-2.34-8.524-4.192-12.724-6.363-8.17-4.248-16.431-8.18-24.559-12.416-9.763-5.124-19.217-10.906-28.58-16.872-0.887-2.555-1.813-5.124-2.609-7.726-2.164-7.338-3.707-14.756-5.429-22.219-0.796-3.271-1.282-8.442-3.8-10.996-0.039 0.227-0.124 0.454-0.16 0.567-0.204 2.613-5.567-3.089-8.084-3.703-0.24 3.307 0.082 6.805 0.039 10.11 0 3.398-0.204 6.578 0.84 9.848 1.068 3.351 1.854 6.805 3.049 10.077 0.567 1.635 1.235 3.18 1.854 4.725-2.212-1.454-4.42-2.907-6.628-4.374-5.61-3.67-10.91-6.407-17.004-9.145-3.755-1.726-7.335-2.079-11.222-3.227-11.97-3.623-23.898-7.338-35.869-10.964-7.775-2.34-14.576-4.634-22.792-5.124-7.555-0.454-14.889-1.988-22.354-3.089-8.612-1.283-17.049-3.488-25.62-5.168-8.833-1.715-17.845-2.476-26.722-3.75-16.564-2.385-32.779-4.113-49.519-4.023-20.584 0.081-41.524-0.909-61.886 2.203 1.459-1.021 1.147-2.125-3.007-4.862-0.92-1.33-2.694-2.034-3.976-2.646-5.255-2.522-10.159-4.998-15.15-8.133-5.83-3.67-12.016-6.759-17.758-10.462-5.787-3.714-11.264-7.817-16.789-11.838-12.323-9.009-25.22-17.538-36.97-27.213-8.924-7.373-17.625-15.064-26.419-22.527-8.568-7.247-17.578-13.825-26.019-21.248-2.474-2.203-4.504-4.681-6.714-7.065-1.988-2.125-4.594-4.023-6.668-6.181 1.147 1.021 1.587 2.159 2.254 3.532 2.428 5.033 6.316 9.054 9.587 13.563 3.707 5.215 6.228 11.087 9.938 16.299 5.167 7.293 10.336 14.355 15.192 21.865 4.949 7.69 10.027 15.242 14.889 22.973 4.594 7.326 10.248 13.513 16.123 19.833 9.629 10.339 19.35 20.538 29.375 30.478 1.722 1.545 3.309 3.18 4.769 4.942 0.567 0.909 1.15 1.806 1.854 2.658 1.502 1.021 0.796 0.567 1.988 0.113 1.010-0.454 1.010-0.909 2.34-1.148 2.829-0.567 5.127-0.909 7.995-1.988 6.761-2.602 13.825-3.579 21.027-4.283-2.428 1.33-4.774 2.784-7.247 4.113-2.914 1.545-5.167 2.249-8.391 2.159-1.101-0.040-2.295-0.113-3.402 0.081-0.487 1.943 0.040 4.113-0.318 6.134-0.534 2.827-0.796 5.611-1.15 8.485-1.057 8.612-0.443 17.49-0.443 26.149 0 3.532-0.16 7.112-0.081 10.691 0.124 4.499 1.591 8.885 1.813 13.43 0.614 11.443 0.124 22.879 1.101 34.322 0.487 5.476 1.587 10.873 2.074 16.386 0.396 3.932 0.487 7.907 0.887 11.838 0.796 7.77 0.977 15.593 1.768 23.412 0.931 9.236 4.374 17.713 7.377 26.415 2.649 7.77 5.034 15.637 7.775 23.367 2.914 8.351 7.375 16.079 11.085 24.119 3.842 8.304 7.555 16.7 10.648 25.313 3.575 9.895 12.103 18.331 18.859 26.239 7.335 8.656 15.725 17.010 22.131 26.37 2.697 3.976 6.051 7.373 8.836 11.303 2.12 3.009 3.932 6.225 6.051 9.236 5.429 7.69 10.469 15.593 16.298 23.056 5.699 7.293 12.103 14.138 18.375 20.938 6.182 6.714 13.605 12.412 20.494 18.331 8.969 7.726 18.025 14.712 27.786 21.248 7.201 4.816 14.536 9.179 21.513 14.223 0.669 0.454 1.327 1.021 1.988 1.501-0.204-0.341-0.443-0.682-0.658-1.021-6.982-11.397-17.406-20.364-25.798-30.743-4.062-5.033-8.348-9.895-12.148-15.152-3.093-4.328-5.83-8.827-9.323-12.896-9.234-10.691-15.77-23.412-24.647-34.369-15.197-18.726-32.558-35.423-47.046-54.728-6.801-9.020-13.297-18.334-19.437-27.83-3.309-5.124-7.687-9.714-10.336-15.198-3.001-6.134-6.141-12.235-9.145-18.375-2.606-5.429-4.681-11.087-7.329-16.476-2.254-4.647-2.697-9.145-3.932-14.046-2.428-9.678-4.020-19.35-5.787-29.155-1.101-6.134-2.074-12.103-3.667-18.154-1.591-6.101-3.8-12.015-4.416-18.331-0.396-4.283-1.943-8.224-2.474-12.416-0.534-3.761-0.16-7.726-0.16-11.482v-14.448c0-4.51 0.396-9.145-0.487-13.605-1.147-5.782-2.649-11.927-2.164-17.845 0.443-5.611 7.421-9.543 10.204-14.223 1.68-2.874 2.208-8.351 5.742-9.634 2.12-0.796 5.169-0.113 7.335-0.113 4.020-0.039 7.907-1.021 11.97-0.909 7.022 0.040 14.046 0.083 21.072 0.040 3.882-0.040 7.549 0.454 11.394 0.796 4.24 0.341 8.616 0.081 12.902 0.081 8.17-0.039 16.256 0.567 24.381 1.545 5.215 0.567 10.469 0.909 15.683 1.545 5.435 0.682 10.424 2.125 15.77 3.488 5.167 1.363 10.469 2.203 15.77 3.18 6.582 1.239 12.941 2.965 19.48 4.51 13.292 3.089 26.812 6.272 39.799 10.509 8.833 2.874 17.666 6.668 26.194 10.201 3.267 1.374 6.361 2.954 9.717 4.192 3.8 1.421 7.775 2.294 11.525 3.761 13.563 5.168 26.947 11.134 39.403 18.551 8.882 5.215 18.286 9.314 27.521 13.737 6.316 20.053 11.663 40.33 17.052 60.651 2.826 10.6 6.623 20.848 8.744 31.674 1.634 8.442 4.24 16.298 5.127 24.866 0.705 7.065 2.033 13.695 1.988 20.852 0 3.714 0.487 5.963-1.68 9.009-1.414 1.943-2.829 3.623-3.711 5.92-0.796 2.159-1.021 4.634-1.68 6.85-0.966 3.307-2.737 6.134-2.869 9.667-0.16 3.442 0.796 6.941 1.41 10.292 3.755 19.701 9.85 38.517 16.611 57.334 2.606 7.293 4.196 14.976 7.197 22.091 3.711 8.872 8.084 17.446 11.485 26.46 4.906 12.896 10.913 25.577 17.052 37.901 1.68 3.318 3.888 8.169 7.907 8.918 3.309 0.567 7.242 0.039 10.601 0.039 4.374 0 8.788-0.039 13.21 0 2.606 0 6.889 0.567 8.964-1.272 1.282-1.148 1.813-2.784 1.943-4.283 0.363-5.077-0.749-10.735-1.722-15.725-2.606-13.165-6.229-26.106-9.895-39.006-3.53-12.544-5.962-25.356-8.436-38.122-0.887-4.328-2.164-8.565-3.001-12.902-0.931-4.725-1.15-9.452-1.68-14.178-0.931-8.656-3.269-17.092-5.347-25.486-2.385-9.496-6.844-17.933-10.070-27.081-1.813-5.077-5.61-8.885-8.524-13.297-0.796-1.192-1.854-3.488-3.227-4.419-0.443-0.227-1.371-0.040-1.722-0.227-4.020-2.034-6.493-7.112-8.788-10.996-0.705-1.239-1.459-2.34-2.254-3.623-1.9-2.965-1.854-5.963-2.12-9.236-0.039-0.909-0.487-1.773-0.796-2.646-1.68-4.681-3.622-9.236-5.209-13.956-3.534-10.292-7.247-20.013-11.838-29.862-7.509-16.215-11.354-33.661-17.317-50.448-0.977-2.784-2.032-5.476-3.049-8.213 8.17 4.895 15.77 10.644 23.898 15.637 7.114 4.374 13.695 9.496 20.455 14.444 14.576 10.553 29.685 20.099 45.098 29.376 2.961 1.761 5.742 3.794 8.528 5.782 1.455 5.873 2.914 11.749 4.725 17.537 2.515 8.213 5.081 16.431 7.642 24.647 2.515 7.951 5.92 15.725 7.509 23.986 1.279 6.759 4.062 12.811 5.875 19.392 1.147 4.237 0.931 8.747 0.84 13.071-0.039 2.26 0 4.067-0.887 6.145-0.749 1.806-1.371 2.918-1.68 5.033-0.705 4.328 0 8.656 0.534 12.944 0.614 5.476 0.749 11.087 1.193 16.607 1.41 17.318 7.549 33.749 12.499 50.267 3.267 10.691 6.714 21.38 9.938 32.114 3.089 10.339 5.479 20.985 9.455 31.101 1.719 4.283 3.089 8.838 7.242 11.303 2.697 1.591 6.628 1.137 9.717 1.021 4.328-0.113 8.481-0.909 12.857-0.909 5.209 0 10.601-0.567 14.972-3.623 1.282-0.909 2.164-1.988 3.359-2.874 0.705-0.567 1.057-0.113 1.502-0.909 0.318-0.567-1.68-6.532-1.943-7.69-0.396-1.635-0.363-2.784-0.396-4.59-0.16-4.681-1.41-9.405-2.606-13.959-2.474-9.405-5.479-18.687-8.040-28.093-2.957-10.782-6.756-21.426-10.249-32.025-4.374-13.253-8.836-26.682-13.958-39.669-2.918-7.417-6.182-14.579-8.040-22.399-0.705-2.954-1.414-6.454-2.34-9.099-0.669-1.806-1.502-3.362-2.433-5.077-1.455-2.737-2.295-5.168-3.267-8.042-0.534-1.501-1.502-2.249-2.428-3.532-1.9-2.522-3.093-5.033-4.375-7.998-1.9-4.419-3.442-7.951-5.787-12.058-1.41-2.522-2.515-5.033-3.62-7.726-1.15-2.737-1.722-6.225-3.049-8.838-1.547-2.965-3.932-5.658-5.567-8.612-2.385-4.283-4.328-8.703-6.141-13.253-1.591-4.067-3.402-8.042-5.255-11.97 3.267 2.249 6.582 4.499 10.029 6.532 14.972 8.929 30.127 17.582 45.098 26.507 11.75 7.065 24.251 13.337 35.119 21.778 4.46 3.442 8.568 6.714 13.605 9.314 5.122 2.658 10.070 5.52 15.060 8.395 0.669 1.682 1.327 3.362 1.988 5.033 1.9 4.862 4.288 9.496 6.096 14.398 1.768 4.907 3.181 9.986 4.906 14.931 1.591 4.543 5.61 11.796 4.020 16.828-0.887 2.784-3.139 5.306-4.814 7.599-2.609 3.532-1.021 7.726 0.443 11.531 1.367 3.579 2.869 7.112 4.020 10.735 1.235 3.976 1.722 8.042 2.737 12.015 2.606 9.804 6.448 19.35 8.481 29.288 2.033 9.804 4.816 19.526 7.819 29.067 1.101 3.623 2.346 10.248 6.54 11.927 1.499 0.567 4.548 0.113 6.051 0.113 2.561-0.039 5.167 0 7.73 0 3.221 0 6.802 0.454 9.983-0.113 2.474-0.454 4.814-1.591 7.109-2.567 1.459-0.567 2.697-1.943 3.932-2.522 0.749-0.341 1.371 0.081 2.12-0.341-0.749-3.398-0.487-6.714-0.534-10.11-0.082-4.681-1.021-9.327-2.164-13.783-1.501-5.749-2.384-12.681-2.384-18.596 0.039-3.271-0.396-5.168-1.68-8.304-2.208-5.611-3.093-11.838-5.522-17.357-1.502-3.442-4.108-6.454-5.921-9.757-1.282-2.385-2.428-4.816-3.711-7.156-3.359-6.225-8.17-11.349-11.97-17.271-0.931-1.41-1.768-3.488-2.914-4.816-0.487-0.567-1.021-0.567-1.459-1.239-0.658-1.021-0.84-2.737-1.239-3.714-3.932-10.077-8.612-19.922-13.162-29.816 1.542 1.021 3.178 1.988 4.725 3.089 6.228 4.465 12.411 9.009 18.684 13.474 12.636 9.145 26.11 16.872 38.522 26.281 11.173 8.565 22.747 16.477 34.189 24.693 5.479 3.885 10.824 7.951 16.298 11.838 4.595 3.227 9.057 7.021 13.738 10.030 8.568 5.476 17.933 9.678 26.903 14.359 8.261 4.283 15.725 9.587 23.678 14.355 3.888 2.34 8.304 4.023 12.499 5.702 3.842 1.454 6.934 3.714 10.469 5.702 2.741 1.545 5.61 2.203 8.128 4.192 0.887 0.682 1.547 1.591 2.697 1.806-0.204-1.021-2.961-2.159-3.8-2.827z"></path>
    <path fill="#000000" d="M855.381 482.59c0.443-6.181 0.705-12.456 1.282-18.639 0.567-6.225 2.033-12.328 2.957-18.466 1.327-8.703 3.579-16.959 5.787-25.486 2.032-7.69 3.447-15.505 5.301-23.237 4.108-17.317 10.38-33.923 16.078-50.758 6.403-18.772 12.016-37.636 19.345-56.055 4.994-12.544 13.032-22.573 22.091-32.377 0.705-0.796 1.321-1.591 2.033-2.385-3.579 0.796-7.157 1.591-10.692 2.522-15.991 4.113-30.169 11.663-45.011 18.287-5.169 8.042-11.043 15.593-16.216 23.632-6.361 9.939-11.394 20.319-16.959 30.743-1.943 3.623-4.416 6.941-6.272 10.6-2.208 4.374-3.181 9.496-4.465 14.223-1.988 7.373-4.857 14.398-7.022 21.69-2.515 8.612-3.622 17.582-5.169 26.415-1.591 8.885-3.309 17.405-3.579 26.459-0.614 17.626-1.542 35.209-1.147 52.833 0.16 8.395 1.010 16.697 0.966 25.048-0.039 7.77 0.082 15.457 0.625 23.232 2.252 34.723 8.833 68.867 16.256 102.747 2.076 9.281 3.842 18.685 7.201 27.566 2.781 7.417 4.857 14.93 6.844 22.615 3.181 12.235 7.022 25.18 11.883 36.843 5.435 12.984 10.69 26.061 15.903 39.135 2.737 6.896 6.802 13.165 9.009 20.279 1.768 5.611 3.711 10.996 5.655 16.477 3.755 10.6 6.316 21.512 10.384 31.98 1.762 4.499 3.221 9.145 5.167 13.563 2.606 5.92 6.096 11.443 8.794 17.318 3.047 6.714 5.875 13.337 9.669 19.61 3.622 6.010 7.555 11.795 11.397 17.67 3.181 4.907 6.051 10.030 9.587 14.756 0.887 1.148 2.164 3.18 3.534 3.976-0.318-3.227-2.697-6.316-3.534-9.452-0.931-3.623-2.649-6.578-3.976-10.077-3.093-8.26-6.008-16.565-9.587-24.647-8.436-19.129-15.55-39.183-21.778-59.149-2.649-8.442-4.901-17.010-7.775-25.356-1.813-5.259-4.374-10.11-5.518-15.55-1.101-5.168-2.476-10.157-3.976-15.191-1.634-5.611-3.049-11.087-5.215-16.524-1.68-4.192-3.181-8.395-4.46-12.764-3.667-12.457-7.247-24.827-10.115-37.549-3.007-13.21-6.894-26.149-9.102-39.579-1.021-6.454-1.502-12.896-2.34-19.35-1.021-7.817-2.428-15.593-3.095-23.5-1.189-14.090-2.34-28.359-2.295-42.536 0.039-13.385 0.039-26.812 0-40.197 0-13.825 0.614-27.654 1.547-41.391z"></path>
    <path fill="#000000" d="M998.413 215.962c-13.474 1.897-26.814 3.362-39.844 7.112-0.124 0.113-0.318 0.227-0.443 0.454-6.628 2.203-13.43 4.113-20.103 6.101-8.261 2.431-16.697 4.374-24.912 6.839-8.040 2.431-15.858 5.385-24.030 7.464-8.66 2.249-17.492 3.976-26.149 6.363-9.808 2.737-19.57 5.782-29.333 8.794-7.467 2.294-15.021 4.192-22.572 6.225-8.088 2.125-15.771 5.476-23.721 7.951-22.619 6.93-44.44 15.060-66.35 23.9-1.68 0.682-3.399 1.272-5.077 1.897l23.32-18.687c0-4.986-0.318-10.077 0.204-15.018 0.705-7.69 2.208-15.637 3.487-23.237 1.414-8.122 4.24-15.33 6.937-23.060 2.076-5.829 4.504-11.571 6.182-17.533 1.502-5.259 2.252-10.644 3.888-15.857 1.635-5.52 3.535-11.178 5.83-16.478 1.279-2.918 3.579-5.658 4.416-8.747-2.869-1.682-4.769 1.943-6.714 3.488-5.522 4.328-11.309 7.203-17.891 9.678-2.388 0.909-2.476 0.454-2.741 2.602-0.124 0.796 0.284 1.852 0.039 2.646-0.487 2.294-2.074 4.907-2.869 7.156-1.854 5.248-3.667 10.248-4.861 15.725-4.548 20.627-9.495 41.211-13.65 61.93-1.94 9.895-5.962 19.172-8.128 28.975-0.24 1.501-0.567 2.965-1.057 4.419-0.363 0.341-0.567 0.682-0.705 1.137-0.082 0.909 0.24 1.591 0.534 2.294-6.805 2.522-13.65 4.907-20.319 7.726-11.354 4.771-22.486 9.714-34.194 13.695-22.173 7.508-43.331 16.964-64.578 26.682-18.596 8.485-36.976 17.757-55.087 27.163-14.444 7.508-29.020 14.669-43.423 22.219-9.142 4.771-18.506 9.236-27.521 14.183-7.995 4.374-15.237 10.030-23.32 14.223-6.008 3.136-11.265 7.417-17.097 10.906-5.962 3.532-10.51 8.838-16.298 12.681-4.814 3.18-9.763 6.316-14.709 9.361-4.554 2.874-8.748 6.225-13.384 9.009-6.316 3.761-12.811 7.417-18.732 11.796-1.455 1.021-2.295 1.239-2.561 2.737-0.082 0.454 0.567 1.137 0.658 1.501 0.443 1.635 0.24 3.488 0.24 5.168-0.039 3.351-0.977 8.304 0.16 11.571 1.101-0.113 1.943-1.726 2.649-2.522 1.943-2.34 3.534-4.465 5.258-6.974 1.189-1.545 2.649-2.874 4.328-3.932 1.768-1.545 3.309-3.227 4.636-5.124 2.561-3.089 5.522-5.782 8.612-8.304 4.994-4.113 11.222-6.896 16.964-9.757 7.467-3.761 15.064-7.156 22.747-10.462 8.924-3.794 17.361-8.623 26.241-12.591 5.742-2.602 11.663-4.634 17.18-7.77 3.888-2.693 7.862-5.259 11.838-7.817 3.667-1.988 7.377-3.932 11.134-5.782 10.029-5.124 19.966-10.212 29.464-16.215 9.983-6.316 20.672-11.043 31.095-16.607 7.907-4.192 15.903-8.351 23.853-12.499 17.891-9.405 36.357-17.493 54.733-25.929 17.713-8.089 35.25-15.991 53.449-22.926 7.463-2.874 14.972-5.749 22.659-8.089 10.070-2.998 19.922-6.407 29.906-9.634 19.217-6.316 38.61-12.412 57.955-18.419 19.085-5.92 37.944-12.499 56.853-19.084 10.29-3.623 20.759-6.759 30.92-10.782 7.598-3.009 15.33-5.033 23.060-7.555 11.309-3.623 22.527-7.282 33.749-11.043 7.289-3.18 14.664-6.134 22.704-8.224 9.014-2.34 18.115-4.192 27.213-5.963 0.487-0.567 0.977-1.283 1.459-1.897 2.34-3.136 4.548-6.272 6.493-9.281-0.204 0.040-0.443 0.040-0.658 0.080z"></path>
    <path fill="#000000" d="M506.146 709.285c-3.221-1.852-6.051-4.237-9.142-6.363-5.258-3.714-10.824-6.941-15.991-10.873-3.49-2.602-6.051-5.829-9.85-8.042-4.906-2.874-9.587-6.181-14.491-9.145-6.802-4.113-14.136-7.417-21.558-10.292-11.042-4.328-21.553-9.757-32.597-14.138-9.102-3.623-18.286-7.282-27.653-10.292-4.020-1.272-8.216-2.249-12.148-3.794-3.359-1.363-6.536-2.907-9.983-4.113-9.455-3.307-19.172-5.963-28.622-9.27-11.97-4.192-24.166-8.623-37.017-8.838-6.844-0.083-13.738 0.081-20.584 0.081-2.3 0-5.83-0.567-8.084 0.113-1.943 0.567-1.813 1.591-1.813 3.362 0.658-7.998-4.020-8.747-9.717-7.112-4.108 1.148-8.348 1.454-12.591 2.034-3.932 0.567-7.637 0.682-11.57 0.682-1.943 0-4.153-0.454-6.051 0.040-0.977 3.623 0.614 7.112 0.796 10.644 0.124 2.737-0.204 4.146 2.606 4.465 3.842 0.341 7.73-0.341 11.575 0.227 6.536 0.796 13.122 1.148 19.701 1.591 5.127 0.341 10.29 0.796 15.33 1.545 3.667 0.567 7.286-0.113 10.952 0.454 1.547 0.227 3.007 0.682 4.641 0.796 12.324 0.454 23.766 3.351 35.511 6.883 13.077 3.932 26.727 4.862 39.981 7.817 11.217 2.522 21.911 7.156 32.289 11.97 4.769 2.203 9.317 4.816 14.091 7.021 2.869 1.363 5.435 2.784 8.128 4.543 6.582 4.237 13.563 7.555 20.011 12.015 12.103 8.351 24.602 15.683 37.416 22.926 6.316 3.579 12.278 7.679 18.596 11.303 4.504 2.555 9.102 4.953 13.297 8.089 1.010 0.796 3.622 4.647 5.077 3.409 0.443-0.341 0.396-3.227 0.578-3.885 0.363-1.454 0.887-3.18 2.428-3.841 1.327-0.567 3.139 0.454 4.328-0.083 2.741-1.239-0.614-4.862-1.634-6.316-1.542-2.294-4.062-4.283-6.228-5.52z"></path>
    <path fill="#000000" d="M300.876 700.807c5.127 0.682 10.204 1.137 15.242 2.294 6.361 1.501 12.499 3.714 18.772 5.52 7.069 2.034 14.267 3.714 21.248 6.101 4.989 1.726 9.587 3.932 14.311 6.134 6.008 2.737 12.191 5.033 18.154 7.907 14.311 6.805 27.433 15.372 41.125 23.367 7.907 4.59 16.344 8.042 24.251 12.632 7.201 4.157 14.444 8.213 21.337 12.896 6.228 4.204 12.191 8.703 18.506 12.812 3.534 2.34 6.448 5.259 9.895 7.726 1.101 0.567 2.12 1.319 3.047 2.159 0.24 0.454 0.443 0.796 0.749 1.137 1.282 0.341 1.235-0.227 1.988-1.192 1.414-1.817 2.295-4.113 3.178-6.225 0.796-2.034 2.167-3.932 2.346-6.134 0.16-0.081 0.363-0.039 0.534-0.081-1.547-0.796-2.873-2.26-4.196-3.318-2.295-1.852-4.774-3.932-7.289-5.52-2.957-1.852-6.008-3.794-9.054-5.52-7.862-4.543-15.55-9.496-23.105-14.532-8.612-5.702-18.024-10.157-26.947-15.417-26.106-15.457-53.358-28.138-80.834-40.945-13.825-6.454-27.828-12.811-42.009-18.423-5.258-2.079-9.234-3.045-14.711-3.18-9.587 1.374-10.51 2.555-11.706 3.488-0.16 0.083-0.396 0.113-0.614 0.341-0.487 0.796-0.040 2.203-0.081 3.18-0.081 3.488-0.705 7.555-2.474 10.644 2.208 1.682 5.742 1.852 8.348 2.203z"></path>
    <path fill="#000000" d="M763.723 922.686c-0.396-0.796-0.749-1.021-1.327-1.591-2.694-2.613-6.582-4.328-9.675-6.454-10.029-6.759-18.817-15.281-28.049-23.056-0.082-0.081-5.921-6.532-5.962-3.136-9.938 2.874-9.938 3.714-10.336 4.647 8.261 7.817 15.242 16.828 23.633 24.56 7.421 6.839 15.903 12.764 23.853 18.947 1.367 1.137 3.089 3.976 5.389 2.476 2.515-1.682 1.94-6.054 1.988-8.485 0-2.476 1.631-5.567 0.487-7.907z"></path>
    <path fill="#000000" d="M534.372 921.099c-0.567-2.34-2.385-3.136-4.374-4.157-1.9-1.021-3.402-2.034-5.297-2.737-6.188-2.385-11.663-6.498-16.832-10.553-8.436-6.668-16.784-13.43-25.356-19.967-9.938-7.555-20.011-15.197-30.389-22.173-9.057-6.101-18.244-11.927-26.903-18.598-9.89-7.69-19.966-15.502-30.567-22.262-11.085-7.021-22.704-12.677-34.675-18.024-12.503-5.567-25.225-10.462-37.811-15.857-7.555-3.227-14.977-6.498-22.752-9.145-4.857-1.67-10.070-3.579-15.237-3.976-3.359-0.227-6.849-0.113-10.208-0.039-1.321 0.039-2.737-0.113-2.164 1.761-4.196-2.476-10.469-1.192-16.607-1.852 1.547 0.454 2.826 6.192 3.093 7.646 0.487 2.737-0.318 5.658 0.284 8.351 2.474 0.796 5.255-0.567 7.73-1.021 5.077-0.909 10.424-1.021 15.545-0.113 15.903 2.693 30.527 8.395 45.631 13.783 12.989 4.59 25.488 9.895 37.238 17.049 6.182 3.761 12.544 7.156 18.684 10.917 7.95 4.816 16.391 8.656 23.991 14.003 2.826 2.034 5.607 3.623 8.702 5.259 4.769 2.522 8.876 6.134 13.209 9.405 6.448 4.862 13.383 9.009 19.653 14.137 5.787 4.647 11.838 9.054 17.713 13.651 7.775 6.181 14.624 13.474 22.752 19.259 7.022 4.986 14.003 10.201 20.672 15.683 3.227 2.646 6.228 5.702 9.717 8.042 2.076 1.421 4.594 2.294 6.582 3.761 2.3 1.682 4.062 3.932 6.141 5.829 1.854 1.773 3.8 2.737 5.92 4.157 0.796 0.567 2.033 1.726 2.873 1.148-0.887-5.702-5.962-9.986-6.805-15.857-0.363-2.385 0.487-5.077-0.124-7.417z"></path>
    <path fill="#000000" d="M397.302 481.618c-1.9-0.682-4.989 1.591-6.844 2.249-1.9 0.567-3.579 1.635-5.435 2.385-1.41 0.567-2.606 0.567-3.932 0.909-1.279 0.341-2.474 1.239-3.442 1.897-1.371 1.021-1.547 2.784-2.346 4.283-0.567 1.021-1.41 2.034-1.943 3.18-0.931 1.726-1.101 3.714-1.988 5.476-0.887 1.726-1.854 3.351-2.295 5.259-0.396 1.682-0.534 3.442-0.887 5.168-0.578 2.737-1.068 4.907-1.101 7.737-0.039 2.34-0.614 4.634-0.705 6.974-0.124 4.204-0.443 9.099 0.396 13.253 0.443 2.203 1.327 4.157 2.164 6.134 1.068 2.476 1.722 2.613 2.385-0.454 0.443-2.034 0.796-3.409 0.796-5.567 0-0.682-0.16-1.501-0.039-2.159 0.16-1.021 0.796-1.635 1.147-2.602 1.68-4.725 3.667-9.327 5.347-14.091 1.768-4.986 3.49-10.030 5.787-14.843 1.591-3.271 3.711-6.272 5.301-9.543 1.010-1.988 1.631-4.192 2.515-6.225 0.124-0.227 0.318-0.796 0.578-1.41l-4.24 24.073c1.459-6.668 2.914-13.383 4.46-20.053 0.443-2.034 0.931-4.067 1.591-6.010-0.363 0.113-0.749 0.341-1.101 0.454 0.443-0.796 0.931-1.421 1.455-1.501 0-0.039 0-0.081 0.039-0.113 0.669-1.682 1.722-3.362 2.34-4.851z"></path>
    </svg>