<svg xmlns="http://www.w3.org/2000/svg" viewBox="-18.506 159.984 1061.012 704.032">
    <path fill="#000000" d="M164.301 697.816c0.411-0.206 0.82-0.411 1.202-0.514-1.392 1.037-2.784 2.155-4.134 3.268 0.922-0.922 1.875-1.989 2.945-2.711zM175.337 683.28c2.828-5.526 6.374-10.592 9.482-16.007 2.155-3.78 3.824-7.842 5.861-11.667 3.064-5.847 6.536-11.51 9.64-17.359 0.82-1.553 1.67-3.145 2.506-4.705-0.718 1.547-1.436 3.145-2.155 4.705-3.752 8.12-7.255 16.369-11.344 24.328-1.479 2.907-3.587 6.097-4.733 9.198-0.206 0.616-0.514 1.071-0.514 1.751 0.206-0.308 0.514-0.411 0.922-0.514 2.594 2.703 4.029-1.202 5.657-4.029 1.919-3.268 3.459-6.647 4.823-10.187 1.547-3.986 2.431-8.559 4.939-12.15 1.875-2.711 3.898-5.216 5.496-8.12 1.597-2.945 3.064-6.053 4.939-8.88 3.621-5.457 7.167-10.91 10.672-16.443 2.872-4.411 4.823-9.321 7.4-13.822-0.206 0.922-0.514 1.875-0.718 2.784-2.506 8.794-5.657 17.401-8.046 26.243-2.3 8.559-4.301 17.158-7.089 25.563-2.228 6.962-5.292 13.584-8.003 20.312-3.503 1.597-7.006 3.181-10.517 4.743-8.88 3.986-16.765 9.6-24.733 15.132 0 0.036 0 0.036-0.038 0.036 0.411-0.922 0.514-1.919 1.158-3.145 1.348-2.669 3.077-5.1 4.411-7.803zM268.592 528.932c2.465-4.5 4.22-9.394 6.492-14.022 1.67-3.417 3.547-6.684 5.334-10.039 2.155 4.573 4.301 9.198 6.579 13.737 7.089 14.26 14.415 28.239 22.255 42.093 0.411 2.945 0.922 5.891 1.436 8.836-1.95 2.55-3.859 5.144-5.657 7.803-3.859 5.861-7.327 11.913-11.35 17.64-6.492 9.234-13.176 18.203-19.267 27.716-2.711 4.263-5.185 8.603-7.606 12.985-1.919 3.387-4.178 6.609-5.526 10.23-0.308 0.718-0.411 1.348-0.514 2.036-4.263 1.832-8.411 3.986-12.666 5.819-6.097 2.635-12.108 5.457-18.038 8.411 0-4.103 0-8.089 0.718-12.262 1.071-6.302 1.67-12.627 2.828-18.956 1.348-7.445 1.789-15.13 2.784-22.662 1.202-9.042 2.465-18.118 3.459-27.197 0.308-0.514 0.616-1.037 0.922-1.513 3.349-5.695 6.448-11.624 9.402-17.48 3.587-7.089 6.536-14.659 10.868-21.302 2.594-3.898 5.334-7.735 7.606-11.87zM230.191 456.508c-2.431-9.525-3.986-19.194-6.536-28.715-3.898-14.612-10.39-28.199-16.132-42.135-2.465-5.933-4.939-11.947-7.255-17.963-2.111-5.496-4.661-10.63-6.009-16.406-0.308-1.158-0.514-2.344-0.82-3.547 1.919 1.037 3.826 2.111 5.819 3.145 5.731 3.077 10.83 7.089 16.608 10.111 6.536 3.459 13.3 6.374 19.636 10.23 6.813 4.097 13.896 7.445 21.102 10.796 3.547 1.67 7.089 3.311 10.63 4.939 0.718 2.828 1.713 5.614 2.3 8.483 0.718 3.503 0.308 6.89 0.616 10.388 0.922 9.363 5.967 18.921 8.836 27.763 2.067 6.33 4.823 12.666 6.579 19.078-4.5 2.465-8.959 4.661-14.26 4.456-2.465-0.074-4.22-1.025-6.258-1.989-0.308-0.411-0.616-0.718-0.82-1.037-0.411-0.514-2.273-3.547-3.417-3.503-0.82 0.037-1.071 0.718-1.071 1.67-2.828-1.789-5.334-3.942-7.123-7.006-2.155-3.708-5.378-6.813-7.255-10.664-2.431-4.981-4.705-10.116-7.328-15.012-6.609-12.262-13.891-24.495-18.875-37.517-2.359-6.169-4.981-11.544-8.325-17.201-1.037-1.789-2.389-5.526-4.178-7.006 0.072 1.143-0.206 2.622 0 3.708 0.514 2.228 2.3 4.301 3.268 6.374 3.503 7.884 6.205 16.007 8.836 24.256 1.751 5.526 3.547 11.148 5.13 16.723 1.553 5.526 2.397 11.233 3.621 16.848 1.597 7.050 3.752 13.856 4.939 21.026 1.158 7.050 0.922 14.298 0.718 21.425-1.025-3.898-2.080-7.766-3.077-11.709zM311.367 405.573c5.144 2.111 10.082 4.505 15.012 6.962-1.276 1.713-2.431 3.708-2.907 4.425-2.506 3.587-5.731 6.684-8.924 9.674-2.067 1.955-3.859 3.898-6.097 5.731-1.67 1.348-3.824 2.594-5.378 4.063-1.071 1.037-1.832 2.344-2.945 3.341-2.3 2.155-4.34 4.382-6.851 6.341-1.875 1.436-3.077 3.268-4.823 4.705-0.718-2.635-1.392-5.253-1.479-8.397-0.206-6.851-0.616-13.618-2.111-20.35-1.67-7.445-4.263-14.659-5.695-22.186-0.514-2.703-0.718-5.422-1.479-8.003 1.789 0.82 3.547 1.628 5.334 2.465 9.203 4.22 18.922 7.4 28.311 11.233zM688.274 433.149c-2.228 5.1-4.661 10.15-6.579 15.411-1.584 4.505-2.635 9.117-4.301 13.618-2.594 7.089-5.614 14.094-8.517 21.064-0.074-7.65-0.036-15.29 1.309-22.777 0.82-4.34 2.397-8.483 3.986-12.585 1.479-3.898 2.622-7.842 4.059-11.714 0.922-2.389 2.465-4.22 3.587-6.374 0.411-0.718 1.037-1.392 0.718-2.389 0.206-0.922 0.308-1.628 0.411-2.389 1.143-0.411 2.3-0.616 3.459-1.025 1.919-0.616 3.859-1.276 5.819-1.875-1.037 3.736-2.431 7.4-4.029 10.993zM713.68 599.178c3.898 5.57 8.164 10.672 12.5 15.965 7.842 9.64 16.723 18.159 25.886 26.438 0.616 1.989 1.348 4.029 2.111 5.861 0.103 0.308 0.206 0.616 0.411 0.922-0.411-0.206-0.718-0.411-1.071-0.616-4.617-2.389-8.959-5.216-13.618-7.565-4.029-2.067-8.313-3.664-12.389-5.775-1.875-0.922-3.752-1.789-5.657-2.666-1.158-1.713-2.3-3.459-3.225-5.292-1.751-3.417-3.064-7.089-4.743-10.517-4.178-8.483-7.255-17.204-11.476-25.652-2.155-4.263-3.942-8.719-6.374-12.865-0.411-0.718-0.922-1.513-1.436-2.3 0.718 0.718 1.348 1.513 1.989 2.273 5.861 7.050 11.87 14.175 17.121 21.744zM769.195 656.961c0.103 0 0.206 0 0.308 0 0.206 0.103 0.411 0.411 0.514 0.514l-0.922-0.514zM350.863 424.641c3.033 7.637 6.932 15.012 10.039 22.662 2.067 5.13 4.029 10.354 5.933 15.566-0.922 5.292-2.635 10.354-2.907 15.768-0.206 3.268-1.276 6.536-2.635 9.761-3.503 5.253-6.932 10.592-10.278 15.89-5.775 9.042-10.63 18.684-16.329 27.797-2.55 4.059-5.015 8.207-7.531 12.304-1.553-3.708-3.311-7.361-5.144-11.034-3.181-6.33-7.167-12.024-10.993-17.962-0.074-0.103-0.103-0.206-0.206-0.411-0.922-2.703-2.067-5.334-2.989-8.041-1.513-4.505-2.465-9.198-3.898-13.741-0.82-2.594-1.597-4.811-2.828-7.123-0.308-0.616-0.616-1.597-1.202-1.67-0.103 1.071-0.82 1.67-1.037 2.669-0.103 1.114 0.037 2.506 0.037 3.621 0 2.344 0.411 4.573 0.616 6.851-1.919-2.907-3.78-5.819-5.861-8.603-0.922-1.202-1.832-2.344-2.741-3.503 1.513-2.756 3.033-5.496 4.617-8.207 2.945-5.015 4.939-10.354 7.694-15.411 1.875-3.387 4.705-6.374 6.771-9.6 1.628-2.506 3.145-5.049 4.539-7.68 2.465-4.743 4.705-9.717 7.328-14.372 3.033-5.253 5.216-10.63 7.606-16.168 7.089 3.621 14.175 7.293 21.425 10.592zM645.702 483.985c-4.705-2.344-7.803-5.967-11.106-10.082-5.173-6.523-11.828-12.224-15.726-19.67-1.392-2.635-2.989-5.583-5.378-7.328 1.037 1.597 1.276 3.387 1.875 5.144 0.718 1.919 1.513 3.752 2.023 5.695 1.513 5.775 1.025 11.868 1.025 17.8 0 7.735 1.274 16.572-1.597 23.893-1.479 3.736-2.669 7.565-3.621 11.471-0.411 1.479-0.616 3.033-0.922 4.539-2.784-2.594-5.657-5.185-8.313-7.842-7.089-7.167-14.463-13.819-22.458-19.908-1.202-0.922-2.344-1.875-3.503-2.784 0.411-0.411 0.718-0.922 1.114-1.309 3.417-4.34 6.009-9.159 9.512-13.418 3.145-3.824 6.097-7.723 8.959-11.748 3.547-4.939 6.851-10.082 10.23-15.178 6.932-0.922 13.777-2.155 20.466-3.986 16.406-4.411 33.097-8.12 49.422-12.78-0.411 0.82-0.922 1.713-1.436 2.594-3.898 6.962-8.924 13.108-11.748 20.669-2.023 5.457-4.382 10.592-6.171 16.168-1.392 4.301-3.621 8.603-5.378 12.782-0.718 1.789-1.989 3.859-3.268 5.292-1.392 1.553-1.989 1.025-3.986 0zM409.565 560.53c1.641 2.828 3.181 5.731 4.743 8.559-0.514 3.898-0.922 7.803-1.553 11.709 0.103-0.103 0.103-0.206 0.308-0.411 1.713-1.513 3.824-2.711 5.185-4.617 0.82 1.309 1.67 2.594 2.55 3.859 2.506 3.503 4.939 7.167 7.211 10.91-13.104 2.111-27.082 2.594-39.782 6.728 0.514-2.635 1.025-5.216 1.641-7.766 2.389-9.512 4.573-19.035 6.137-28.715 0.616-3.664 0.718-7.293 1.071-10.951 0.206-2.431 0.718-4.823 1.276-7.211 3.664 6.009 7.803 11.709 11.272 17.837zM406.227 489.354c-0.616-1.392-1.309-2.741-1.989-4.097 6.009-3.859 12.389-7.255 18.679-10.592 4.5-2.389 9.164-4.134 13.937-5.819 4.505-1.553 8.369-3.986 12.585-6.097 3.824-1.875 8.12-2.506 11.986-4.301 3.349-1.553 6.728-3.708 9.995-5.496 1.584-0.922 3.181-1.597 4.705-2.389h2.635c0 0.072 0.036 0.206 0.036 0.206 0.922 4.539 1.479 9.117 2.506 13.652 1.071 4.743 2.506 9.394 3.942 14.022-2.506 2.023-4.539 4.469-6.523 6.962-5.899 7.4-11.352 15.090-15.893 23.376-5.292 9.6-9.717 19.513-15.135 28.987-7.006-8.164-13.976-16.204-20.227-25.008-3.664-5.144-7.255-10.354-11.106-15.287-2.193-2.828-3.459-6.258-5.614-8.959-0.514 1.553 0 3.387 0.411 4.939 0.718 2.55 0.922 5.056 1.628 7.565 0.616 2.635 0.82 5.292 1.202 7.928-2.344-6.684-4.85-13.299-7.723-19.636zM376.63 441.369c-0.411-0.922-0.922-1.832-1.348-2.741-1.114-2.067-2.465-3.898-3.859-5.775 1.553 0.514 3.107 1.186 4.661 1.713 6.684 2.228 13.699 3.459 20.473 5.496 12.7 3.898 26.125 6.609 39.302 8.397 10.868 1.513 22.339 2.155 33.333 2.111 0.922-0.038 1.919 0 2.872 0-0.718 0.308-1.436 0.514-2.023 0.82-2.506 0.82-4.705 1.276-7.255 1.751-3.225 0.616-6.137 1.989-9.198 3.033-3.708 1.23-7.167 2.155-10.672 4.029-2.784 1.513-5.57 2.784-8.603 3.859-3.859 1.348-7.884 1.751-11.748 2.945-2.431 0.718-4.573 1.789-7.123 1.989-5.57 0.411-11.106-2.594-15.369-5.937-4.573-3.587-10.082-6.097-14.175-10.315-1.309-1.348-2.741-2.711-4.147-4.103-1.67-2.431-3.383-4.85-5.087-7.255zM553.083 464.194c-5.334-4.661-10.754-9.198-16.132-13.741 4.573-0.074 9.159-0.206 13.784-0.718 10.039-0.922 20.031-1.989 30.028-3.268 6.009-0.718 12.102-1.392 18.242-2.155-4.939 5.378-10.558 10.23-15.965 14.933-5.861 5.144-11.952 10.116-18.004 15.051-4.029-3.311-8.007-6.684-11.952-10.156zM540.387 494.857c-8.411 8.325-17.485 16.371-24.532 25.889-1.875-8.281-3.587-16.644-5.695-24.887-1.392-5.526-3.459-10.714-5.57-16.007-1.875-4.661-3.181-9.47-5.292-14.022-2.389-5.144-4.661-10.278-7.167-15.332 9.879 0 19.751 0 29.633 0 2.228 0 4.5 0 6.728 0 5.334 6.813 11.070 13.418 16.61 20.078 3.311 3.986 6.523 8.003 9.789 11.986-4.981 3.942-9.995 7.803-14.498 12.304zM594.345 527.504c2.784 2.741 5.457 5.657 8.12 8.517-1.025 1.553-2.080 3.064-3.387 4.505-7.006 7.489-12.5 17.157-17.162 26.237-2.344 4.539-3.503 9.525-5.292 14.26-0.411 1.114-1.789 3.349-1.628 4.544 0.206 1.67 0.718 1.348 2.359 1.392 3.621 0.074 4.539-2.316 6.609-5.015 1.348-1.789 3.387-3.503 4.382-5.457 0.82-1.597 1.114-2.316 2.465-3.587 1.513-1.436 2.228-2.872 3.181-4.778 1.436-3.033 2.945-4.981 5.015-7.565 2.344-3.033 3.986-6.171 6.647-8.959 2.067-2.155 3.107-4.425 4.85-6.728 0.103 0.103 0.411 0.103 0.514 0.308-0.103-0.103-0.308-0.308-0.411-0.411 1.989-2.55 4.85-4.34 6.962-6.813 2.111-2.389 3.459-3.78 6.492-5.1 1.713-0.82 3.349-1.628 4.981-2.389-1.713 8.245-3.78 16.443-5.657 24.692-1.919 8.411-2.741 17.086-4.617 25.523-1.241 5.422-2.594 10.953-3.225 16.484-15.012-1.919-29.871-4.895-44.763-7.327-1.832-0.308-3.664-0.514-5.496-0.718-0.103-2.872-0.514-5.731-0.82-8.603-1.025-8.003-2.023-16.168-4.411-23.89-3.417-10.91-3.859-22.458-6.579-33.533-0.514-1.919-1.071-3.78-1.628-5.657 2.067-2.55 4.063-5.144 5.937-7.884 2.872-4.263 6.053-8.245 9.278-12.224 8.687 10.469 17.562 20.55 27.24 30.178zM690.116 592.441c1.67 5.185 3.383 10.23 4.539 15.608 0.922 4.147 1.553 8.411 2.55 12.585-8.325-3.621-17.007-6.286-25.484-9.512-10.796-4.097-21.268-8.687-32.772-10.517-2.344-0.411-4.705-0.82-7.050-1.274 0.411-8.207 0.206-16.446 0.206-24.692 0-7.167-0.411-14.499 0.411-21.622 0.922-7.928 0.514-16.047 0.411-24.018 1.513-0.514 3.064-0.82 4.777-0.718 3.503 0.206 7.65 0.718 10.475 2.945 2.228 1.832 5.185 4.263 7.050 6.492 0.82 1.025 1.202 2.155 1.875 3.268 0.922 1.392 1.875 2.067 2.945 3.225 1.67 1.919 2.506 4.34 4.097 6.374 1.071 1.348 2.3 2.635 3.107 4.22 0.718 1.479 1.071 3.225 1.919 4.661 2.023 3.664 4.778 7.123 7.089 10.63 1.67 2.55 2.989 5.253 4.778 7.769 1.832 2.635 3.752 5.292 5.422 8.003 1.23 1.989 2.273 3.942 3.459 5.847 0.036 0.206 0.103 0.411 0.206 0.718zM431.695 568.544c0 0.103-0.076 0.206-0.103 0.308 0-0.074-0.037-0.206-0.076-0.308zM493.899 523.937c3.033 13.223 8.007 25.652 12.347 38.473 2.635 7.884 5.1 15.726 7.531 23.649-2.703-0.206-5.422-0.514-8.076-0.616-9.042-0.616-18.48-0.514-27.525 0-5.216 0.308-10.23 0.718-15.452 0.718-3.547-0.037-7.006 0.206-10.517 0.718-3.587 0.514-7.050 1.392-10.63 2.023-0.206 0.036-0.411 0.036-0.616 0.036 2.193-3.033 4.029-6.448 5.614-9.64 1.436-2.976 3.064-5.891 4.743-8.764 6.097 1.241 11.911 2.907 17.919 4.981 3.181 1.114 7.361 3.311 10.796 3.417 1.919 0.074 2.228-0.411 1.348-1.875-0.718-1.241-2.155-2.703-3.064-3.859-1.071-1.309-2.594-2.261-3.587-3.587-0.411-0.616-0.514-1.348-0.922-1.95-0.718-1.202-1.832-1.513-2.872-2.344-1.713-1.392-2.828-2.989-4.22-4.705-1.751-2.067-3.387-4.263-5.056-6.374 1.713-2.703 3.417-5.457 5.015-8.207 9.556-16.441 13.856-34.844 20.186-52.61 0.411-1.114 0.922-2.228 1.348-3.297 2.344 11.148 3.107 22.619 5.657 33.767zM534.261 587.075c-0.076-0.514-0.103-0.922-0.206-1.276-0.616-3.736-3.033-7.4-4.425-10.951-3.107-7.928-4.895-16.287-6.728-24.608 2.506-3.311 5.937-6.009 8.687-9.042 3.708-4.063 7.123-8.325 10.672-12.5 1.751 12.627 5.185 24.847 8.687 37.151 2.155 7.531 4.823 14.851 7.327 22.297l0.076 0.103c-8.003-0.718-16.049-1.071-24.090-1.23zM294.162 635.799c-0.718 0.308-1.479 0.514-2.228 0.718 0.922-1.628 1.955-3.253 3.107-4.777 4.029-5.496 9.198-9.995 13.264-15.529 3.145-4.301 5.695-8.88 8.313-13.455 0.411 1.751 0.616 3.547 1.071 5.292 0.616 2.594 1.276 5.185 2.155 7.735 2.666 4.939 3.986 2.155 6.448 0.411 2.023-1.436 4.5-2.666 6.771-3.708 3.708-1.713 8.046-4.263 12.151-3.942-1.479-1.158-1.348-3.311-2.228-4.778-1.989-3.387-4.425-6.409-6.286-9.912-2.465-4.617-3.664-9.674-5.539-14.617 6.258-10.388 11.51-21.099 17.086-31.937 3.459-6.728 7.167-13.418 10.756-20.112 5.695-8.12 11.233-16.526 17.921-23.888 1.071-1.158 2.228-2.067 3.349-3.064 3.349 9.278 6.89 18.515 10.756 27.594-0.206 3.459-0.616 6.89-1.348 10.039-4.22 17.007-8.281 34.053-11.673 51.257-0.82 4.178-1.547 8.441-2.3 12.666-5.253 1.989-10.517 3.942-15.488 6.492-7.928 4.029-16.207 7.211-24.411 10.63-8.721 3.664-17.162 7.928-25.926 11.471-5.13 2.111-10.511 3.459-15.692 5.378zM104.969 762.695c7.4-4.34 15.374-7.606 22.662-12.109 5.57-3.459 11.191-7.050 16.682-10.672 4.661-3.107 9.278-6.536 13.418-10.354 3.587-3.268 7.089-6.244 11.034-9.159 3.621-2.703 8.12-4.456 12.020-6.771 9.44-5.614 19.47-10.511 29.633-14.652 10.83-4.456 21.187-9.877 31.942-14.457 13.58-5.731 26.125-13.784 39.865-19.028 7.489-2.872 14.372-5.731 21.506-9.44 6.171-3.181 12.347-6.448 18.922-8.721 9.6-3.341 20.074-5.496 29.939-7.766 6.097-1.348 12.066-3.077 18.16-4.22 9.321-1.751 18.796-4.263 28.239-5.144 5.614-0.514 11.306 0.308 16.967-0.206 5.933-0.616 11.863-1.436 17.765-2.228 9.117-1.274 17.921-2.784 26.878-4.705 7.884-1.641 15.651-1.751 23.691-1.751 5.657 0 11.233-0.103 16.882 0.514 3.859 0.411 7.68 1.158 11.589 1.202 5.891 0.036 11.822-0.074 17.766-0.036 7.327 0 14.498 0.206 21.819 0.616 4.097 0.206 8.207 0.103 12.304 0.308 5.13 0.308 10.23 1.276 15.329 1.832 27.116 2.907 53.4 9.556 79.921 15.726 5.457 1.309 11.068 2.193 16.526 3.547 4.382 1.071 8.721 2.506 13.104 3.547 4.539 1.114 9.159 1.436 13.699 2.506 3.547 0.82 7.050 0.82 10.63 1.513 9.159 1.832 18.116 4.661 27.041 7.4 15.768 4.867 31.264 10.956 46.833 16.529 19.835 7.089 39.585 15.132 58.776 23.888 16.329 7.489 32.812 15.174 48.144 24.65 10.83 6.684 20.902 14.571 31.656 21.468 3.942 2.55 8.007 4.85 11.913 7.4 2.067 1.348 4.134 2.872 6.448 3.859 1.025 0.411 4.617 1.919 6.009 1.641 0.616-3.621 2.389-3.942 4.5-4.059 0.616-0.037 1.158 0.103 1.713-0.076-1.392-2.465-5.891-3.752-8.245-5.015-6.89-3.621-13.656-7.361-20.668-10.756-11.106-5.334-22.458-9.995-33.488-15.488-10.082-5.056-19.995-10.555-30.109-15.569-10.392-5.173-20.227-11.386-30.701-16.441-16.967-8.207-33.408-17.682-49.934-26.64-1.392-0.82-2.784-1.628-4.178-2.431-0.514-0.922-1.789-1.789-2.359-2.3-1.276-1.348-2.506-2.741-3.752-4.097 0.411-0.206 0.616-0.514 0.718-1.309 0.206-1.392-1.158-3.268-1.67-4.469-1.875-4.301-2.907-8.836-4.029-13.38-3.020-12.389-6.171-24.77-9.321-37.113 1.713 1.67 3.459 3.349 5.292 5.015 4.134 3.898 8.076 8.003 12.262 11.828-2.111-3.349-4.178-6.684-6.492-9.912-3.387-4.778-6.244-9.47-8.959-14.652-2.828-5.496-6.567-10.392-9.321-15.893-1.037-2.111-1.67-4.469-2.666-6.579-1.202-2.622-2.828-5.015-3.986-7.637-2.067-4.823-2.976-10.082-4.661-15.048-1.789-5.173-4.22-10.868-5.185-16.287-0.82-4.661-1.114-9.363-1.832-14.022-0.718-4.823-0.616-9.761-1.071-14.57-0.514-5.292-0.308-10.796 0.103-16.047 0.718-8.007 2.359-15.529 5.253-23.017 1.67-4.301 3.077-8.441 5.775-12.19 7.637-10.433 17.523-18.679 26.674-27.721 2.465-2.431 5.015-4.34 7.884-6.205 3.387-2.193 6.244-4.895 9.64-7.050 7.211-4.617 14.654-8.794 21.622-13.822 3.387-2.465 7.006-4.134 10.592-6.286 3.621-2.193 6.771-4.85 10.712-6.579 4.34-1.95 8.089-4.029 11.748-7.050 2.622-2.193 5.1-4.617 7.884-6.609 6.302-4.505 12.74-8.959 19.835-12.065 5.1-2.228 10.039-4.34 14.94-7.006 3.503-1.875 7.445-2.989 10.868-4.981 1.479-0.82 2.506-2.344 4.178-2.872 0.411-0.103 1.875-0.616 2.828-0.922-2.594 0.206-5.056 0.82-7.637 1.479-3.064 0.922-5.731 1.989-8.164 4.029-3.145 2.635-6.851 3.859-10.558 5.496-6.962 2.989-13.584 6.448-20.388 9.844-4.134 2.023-8.647 3.064-12.542 5.526-3.859 2.465-7.531 5.173-11.583 7.327-7.842 4.059-14.975 8.959-22.624 13.414-5.015 2.945-10.433 5.056-15.411 8.12-5.657 3.459-11.589 6.409-17.204 9.877-8.559 5.253-15.571 11.547-22.016 19.194-4.895 5.819-12.224 8.836-17.6 14.060-3.181 3.064-6.169 6.244-9.47 9.159-3.033 2.635-6.214 4.895-8.647 8.076-2.711 3.587-5.457 7.361-7.884 11.148-2.3 3.459-2.872 7.445-3.942 11.429-2.155 7.928-2.431 15.766-2.389 23.976 0 3.708-0.103 7.445-0.076 11.148 0.103 3.587 1.641 6.89 2.228 10.39 0.718 3.859 2.389 6.647 4.22 10.039 2.55 4.705 4.617 9.64 7.211 14.332 2.465 4.425 5.539 8.325 8.836 12.024 0.206 0.922 0.514 1.789 0.718 2.703 2.666 10.082 5.1 19.953 8.517 29.832 2.945 8.517 5.457 17.162 8.164 25.722 0.82 2.711 1.989 5.334 3.064 7.972-2.111-2.465-4.178-4.939-6.409-7.327-3.107-3.268-6.33-6.448-9.278-9.879-3.547-4.059-6.647-8.441-10.111-12.585-4.544-5.378-9.844-10.039-14.421-15.411-3.708-4.425-7.255-8.959-11.19-13.18-3.349-3.587-6.813-7.050-10.32-10.475-1.186-2.666-2.431-5.292-3.547-8.003-0.514-1.553-1.114-3.107-1.751-4.661-2.111-5.173-4.22-10.315-5.253-15.848-1.241-6.647-3.311-12.788-5.056-19.315-0.82-3.145-1.276-6.258-1.513-9.402 2.872-4.743 5.861-9.436 8.647-14.058 5.219-8.687 9.13-17.921 14.26-26.606 3.145-5.334 6.492-10.517 9.512-15.93 2.741-4.939 6.728-9.912 8.794-15.216 1.513-3.859 2.465-8.003 3.898-11.905 0.514-1.553 1.158-3.181 1.751-4.778 11.51-4.063 22.9-8.441 34.087-13.342 12.15-5.292 24.090-10.91 35.841-17.049 12.024-6.244 23.852-12.977 35.957-19.12 11.952-6.097 24.692-10.553 37.079-15.649 2.55-1.037 5.015-2.155 7.565-3.225-1.513 0.514-2.989 1.037-4.5 1.513-9.321 2.945-18.48 6.286-27.721 9.44-8.369 2.784-17.004 6.053-25.008 9.674-3.387 1.553-7.006 2.594-10.433 4.103-2.389 1.071-4.705 2.3-7.167 3.145-4.777 1.67-9.64 2.907-14.457 4.34-2.941 0.922-5.695 2.155-8.721 2.872-3.107 0.718-6.171 1.392-9.198 2.389-6.171 2.023-12.666 2.907-18.956 4.617-14.175 3.826-28.239 8.12-42.612 11.434-4.469 1.025-8.721 2.666-13.142 3.859-3.986 1.071-8.12 1.553-12.19 2.155-7.735 1.158-15.29 3.033-23.058 4.059-10.592 1.436-21.268 2.193-31.858 3.587-8.207 1.071-16.406 2.228-24.65 3.033-31.775 3.107-63.793 1.919-95.29-3.503-10.909-1.875-21.817-3.708-32.812-5.173-5.933-0.82-11.87-1.114-17.682-2.389-5.334-1.158-10.475-1.436-15.808-2.344-6.771-1.158-13.618-2.397-20.312-4.063-13.822-3.417-27.559-7.167-41.415-10.511-9.363-2.193-18.754-3.986-28.073-6.258-4.22-1.037-8.603-1.67-12.666-3.387-3.387-1.436-6.684-3.225-10.116-4.743-8.397-3.621-16.92-6.771-25.086-10.953-9.674-4.939-19.432-9.64-29.067-14.652-7.531-3.942-15.655-6.851-23.060-10.995-12.7-7.123-25.408-14.060-37.827-21.622-4.456-2.666-9.234-4.743-13.694-7.4-2.316-1.348-4.539-2.741-6.932-3.986-5.695-2.945-11.714-5.861-17.724-8.164-6.258-2.431-12.865-3.78-18.956-6.684-3.225-1.509-6.33-3.268-9.6-4.661-3.547-1.479-7.327-2.389-10.868-3.942-7.694-3.387-15.488-7.089-22.662-11.59-6.409-4.063-12.224-8.924-18.679-13.019-4.939-3.107-9.525-6.728-14.415-9.95-1.989-1.309-3.986-2.622-5.937-3.986-0.718-0.514-1.751-1.553-2.594-1.713 3.986 3.986 8.041 7.803 12.304 11.429 5.422 4.573 11.106 9.95 17.086 13.784 10.592 6.813 20.15 14.654 30.028 22.424 6.374 4.939 12.979 9.47 18.993 14.849 1.436 1.241 2.741 2.506 4.097 3.78 0.514 1.241 1.037 2.431 1.513 3.459 1.989 4.456 4.34 8.764 6.286 13.258 1.479 3.459 2.741 7.006 4.34 10.39 2.907 6.009 6.448 11.714 9.278 17.766 2.594 5.457 5.253 10.868 7.842 16.329 5.861 12.15 11.589 24.090 18.004 35.923 5.775 10.63 10.2 21.948 16.007 32.575 4.981 9.042 10.433 17.879 14.536 27.32 3.349 7.723 7.327 15.046 10.953 22.577-0.82 31.741-4.411 63.282-11.344 94.304-1.348 2.344-2.741 4.705-4.301 6.962-3.898 5.614-8.603 10.592-12.666 16.092-4.382 5.933-8.12 12.262-11.986 18.514-3.859 6.302-8.089 12.262-12.19 18.399-5.422 8.164-9.761 16.965-14.332 25.61-5.185 9.717-10.517 19.394-15.568 29.191-1.789 3.503-5.1 7.489-5.657 11.429-0.206 1.875-0.308 4.263 2.431 3.311 0.718-0.206 0.718-0.718 1.274-1.037 1.037-0.616 2.111-0.82 3.268-1.202 0.206-0.076 0.411-0.103 0.616-0.308-1.241 0.922-2.465 1.789-3.708 2.703-4.617 3.503-9.363 7.255-13.656 11.068-1.789 1.628-3.78 2.945-5.496 4.705-1.348 1.392-2.669 2.907-4.22 4.063-3.986 2.989-6.647 6.962-10.187 10.433-7.089 6.851-14.652 13.18-21.706 20.074-3.621 3.503-7.606 6.684-10.558 10.83-2.594 3.621-5.695 7.050-8.88 10.2-0.922 0.922-1.919 1.919-2.828 2.828 4.301-2.711 8.483-5.657 12.78-8.411 6.962-4.382 13.856-8.794 20.949-12.938z"></path>
    <path fill="#000000" d="M911.359 328.461c6.258-3.107 12.74-5.657 18.922-8.794 9.556-4.895 18.99-9.6 28.914-13.694 1.114-0.411 2.228-0.82 3.311-1.276-4.382 0.308-8.559 1.309-12.745 3.033-5.967 2.389-11.748 5.695-17.481 8.647-11.631 5.967-23.172 11.471-35.243 16.484-10.187 4.22-20.312 8.647-30.504 12.938 9.844-3.181 19.596-6.492 29.191-10.354 5.292-2.155 10.517-4.411 15.654-6.962z"></path>
    <path fill="#000000" d="M794.085 638.245c6.205 6.728 13.497 12.462 20.425 18.357 5.819 4.895 11.148 10.39 17.359 14.774 7.637 5.334 14.933 10.868 21.23 17.8 3.181 3.459 6.374 6.684 9.95 9.717 5.1 4.382 10.39 8.483 15.488 12.865 1.309 1.158 2.741 3.077 4.617 3.459 0.076-0.514-0.103-1.025-0.718-1.309-2.431-3.78-2.465-3.503-2.506-3.268-1.713 0.308-3.349-1.751-4.34-2.711-1.67-1.67-3.311-3.417-4.981-5.056-5.539-5.292-12.304-8.959-17.766-14.457-5.049-5.1-9.995-10.354-15.566-14.891-5.216-4.263-10.116-8.164-14.332-13.461-5.775-7.283-12.304-14.774-19.16-21.139-8.245-7.65-18.076-13.418-26.44-20.949-0.206-0.206-0.411-0.411-0.616-0.616 1.348 2.111 2.666 4.263 4.22 6.258 3.942 5.216 8.721 9.877 13.142 14.652z"></path>
    </svg>