<svg xmlns="http://www.w3.org/2000/svg" viewBox="13.923 47.500 1013.757 928.817">
    <path fill="#000000" d="M879.878 843.096l-0.77-1.703c0.438 0.77 0.99 1.539 1.494 2.177-0.221-0.111-0.549-0.33-0.77-0.438zM870.053 820.054l-1.408-3.285c1.329 1.286 2.22 2.309 1.408 3.285zM943.593 867.999c-2.099-2.483-4.746-4.571-6.966-6.923-7.902-8.241-14.74-17.562-21.706-26.452-15.383-19.654-28.416-40.552-42.643-60.845-15.767-22.478-27.305-46.75-38.885-71.019-7.867-16.495-15.772-32.988-22.69-49.825-7.603-18.333-14.488-36.918-21.924-55.337-7.176-17.69-13.114-35.72-21.066-53.153-7.429-16.241-14.952-32.518-22.643-48.675-8.979-18.887-17.863-37.987-28.16-56.359-8.373-14.958-17.348-29.658-25.638-44.694-11.323-20.554-23.246-40.725-35.852-60.724-12.006-18.973-23.417-38.371-36.492-56.828-11.707-16.495-23.801-32.862-36.406-48.887-12.52-15.978-25.937-31.406-39.269-46.875-10.857-12.522-21.924-24.786-32.135-37.69-2.868-3.594-5.814-7.098-8.078-11.025-0.549-0.88-1.329-3.891-2.352-4.529-1.098-0.659-3.714 0.99-4.703 1.408-4.529 1.878-7.65 5.473-11.070 8.584-4.824 4.408-8.758 8.979-12.519 14.105-7.055 9.702-13.419 19.952-19.614 30.079-7.814 12.776-13.674 26.537-20.129 39.911-16.023 33.2-33.583 65.763-51.663 98.153-8.418 15.127-16.917 30.042-26.751 44.482-8.538 12.606-16.064 25.509-23.67 38.501-8.979 15.342-19.015 30.126-28.503 45.21-7.867 12.434-14.611 25.424-22.56 37.856-7.735 12.096-16.11 23.933-24.059 35.938-9.485 14.443-17.989 28.758-25.552 44.056-9.232 18.631-18.293 37.345-27.863 55.806-7.988 15.51-14.91 31.194-21.664 47.129-7.902 18.716-16.495 37.179-24.059 56.022-6.243 15.51-11.666 31.278-18.629 46.577-4.055 8.847-8.802 17.478-12.906 26.366-3.078 6.496-5.979 13.074-9.1 19.569-4.187 8.584-8.462 17.049-11.707 25.978-2.989 8.298-5.516 16.878-7.782 25.338-1.23 4.792-2.262 9.791-1.714 14.658 1.714 0.038 3.462-4.23 4.318-5.43 1.878-2.647 4.055-5.077 5.934-7.693 4.703-6.364 9.275-12.903 13.503-19.529 0.88-1.374 1.924-2.647 2.826-4.012 22.563-50.081 57.813-98.368 86.657-144.772 37.733-60.593 75.762-120.885 110.032-183.016 35.342-64.013 67.986-129.093 100.076-194.429 16.281-33.199 32.906-66.359 48.799-99.73 8.078-17.008 12.519-36.108 27.347-49.825 4.023-3.714 12.222-4.012 16.241 0 15.726 15.767 37.644 32.817 45.164 53.411 0.221 0.659 0.33 1.329 0.549 1.967 0.99 1.924 1.714 3.891 2.605 5.769 4.703 9.702 11.192 18.718 16.578 28.119 14.787 25.898 28.033 52.517 41.322 79.050 7.825 15.596 17.433 30.468 25.338 46.108 8.847 17.478 18.846 34.356 28.887 51.32 9.396 15.766 18.376 31.704 27.305 47.645 9.054 16.237 18.846 32.089 27.948 48.244 10.593 18.798 19.145 38.245 29.142 57.257 8.922 16.878 18.286 33.715 26.622 50.894 8.12 16.71 14.185 34.145 22.134 50.933 7.144 15.042 14.828 29.827 22.221 44.741 7.693 15.555 15.211 31.15 22.863 46.661 4.999 10.122 9.364 20.298 15.341 30.042 0.77 1.276 1.614 2.562 2.441 3.846-1.155 0.111-2.352 0.33-3.164 0.438-3.934 0.549-8.034 0.659-12.006 0.88-10.166 0.659-20.166 2.056-30.34 2.526-13.034 0.549-26.106 0.99-39.099 1.703-14.443 0.77-28.972 2.647-43.331 4.23-16.619 1.835-32.945 5.12-49.522 7.308-41.961 5.562-84.393 9.57-126.782 11.408-23.762 1.098-47.391 2.573-71.105 4.055-22.564 1.374-45.084 3.802-67.642 5.088-11.67 0.659-23.334 0.549-34.999 1.155-11.022 0.549-22.004 1.45-32.988 2.088-21.066 1.197-42.218 1.45-63.283 2.056-35.72 1.098-71.445 3.891-106.356 10.77-9.781 1.924-19.529 4.45-28.589 8.209-3.462 1.408-9.232 4.23-13.246 3.506 10.297 0.438 20.554 0.77 30.81 1.494 18.246 1.197 36.492 1.374 54.739 2.22 18.887 0.88 37.729 2.262 56.573 3.078 18.887 0.77 37.817 0.99 56.748 1.494 42.346 1.155 84.692 0.77 127.082 0.77 25.937 0 51.875 0 77.812-0.549 21.966-0.438 43.926-0.99 65.933-0.99 22.095 0.038 44.141-0.438 66.233-0.99 23.331-0.549 46.661-0.99 69.991-2.22 21.796-1.155 43.543-2.473 65.080-5.814 8.89-1.45 17.776-2.989 26.665-4.614 8.418-1.318 16.838-2.605 25.296-3.891 10.208-1.878 20.045-4.867 30.211-6.791 9.87-1.878 20.166-2.562 30.256-1.967 5.462 0.33 9.749 1.11 14.741 2.9 1.714 0.659 3.462 1.45 5.298 1.671-1.792-1.242-2.779-3.164-4.098-4.703z"></path>
    <path fill="#000000" d="M520.129 442.322c0.77 0.549 1.276 2.647 1.614 3.594 2.23 5.858 3.549 12.182 5.43 18.207 6.759 21.195 10.472 43.37 14.358 65.249 3.638 20.634 4.397 41.658 6.153 62.469 0.99 12.353 1.835 24.786 1.835 37.18 0 10.34-2.22 20.039-3.594 30.209-1.242 8.715-2.262 17.136-4.144 25.727-1.155 5.462-1.582 10.935-2.868 16.362-1.835 7.825-3.285 15.469-5.858 23.075-2.605 7.735-4.614 15.51-6.659 23.417-1.924 7.35-5.637 14.145-8.078 21.366-1.408 4.23-3.078 8.637-5.131 12.606-1.11 2.177-2.647 4.824-4.35 6.496 1.197-10.044 2.088-20.982 0.111-30.936-1.671-8.331-2.352-16.746-3.506-25.17-0.99-7.265-0.549-14.526-1.329-21.834-0.77-6.243-1.967-12.138-2.177-18.418-0.33-8.922-1.582-17.946-2.515-26.878-0.88-9.054-1.374-18.073-1.671-27.174-0.221-6.111-0.99-12.090-0.88-18.246 0.038-7.561 0-14.999-0.659-22.519-0.549-6.714-0.33-13.417-1.098-20.171-2.22-20.21-0.88-40.467-1.878-60.718-0.549-10.518-0.99-20.937-0.549-31.494 0.549-10.77 1.374-21.45 6.285-31.235 1.671-3.33 3.638-6.617 4.614-10.254 0.99-3.549 1.286-7.219 2.309-10.77 0.549-1.792 0.99-3.198 2.177-4.703 0.438-0.549 0.99-0.77 1.45-1.45 1.242 0.659 2.473 2.911 10.561 16.025z"></path>
    <path fill="#000000" d="M570.549 441.937c0.659 0.88 2.309 1.155 3.285 1.45 2.309 0.77 4.397 1.374 6.791 1.746 4.824 0.77 8.331 2.605 12.776 4.703 4.782 2.22 9.66 4.23 14.272 6.759 11.453 6.153 22.564 12.731 33.417 19.868 8.715 5.682 15.767 13.12 22.602 20.898 16.626 18.887 32.561 39.269 41.493 62.985 1.967 5.209 4.055 10.461 4.782 15.98 0.77 5.814 0.99 11.878 0.99 17.731-0.039 5.934 0.111 11.923 0.038 17.863-0.111 5.252-1.582 10.254-1.714 15.51-0.111 6.88-0.77 12.432-3.032 18.93-1.614 4.529-3.462 8.758-5.462 13.029-2.694 5.637-3.253 11.707-5.43 17.478-1.758 4.661-4.999 8.462-7.518 12.65-3.67 6.153-6.45 12.261-10.682 18.115-3.506 4.878-6.791 9.881-10.506 14.574-5.088 6.364-9.57 12.778-13.973 19.614-3.891 6.066-8.034 11.622-13.206 16.666-8.715 8.584-17.605 17.731-27.821 24.57-3.934 2.694-8.034 4.999-11.922 7.735-3.759 2.694-7.397 5.43-12.006 6.285-4.276 0.77-9.143 1.494-13.12 3.296-2.946 1.362-4.835 4.23-8.166 5.077 3.714-0.33 7.308 0.221 10.978-0.659 2.911-0.659 5.594-1.714 8.594-2.262 3.21-0.549 6.364-1.286 9.57-1.878 3.462-0.659 6.966-1.197 10.34-2.088 3.934-1.098 6.966-3.032 10.638-4.661 2.9-1.318 5.252-1.967 8.462-2.515 5.177-0.99 10.002-2.826 14.958-4.614 8.847-3.21 13.842-10.902 21.534-15.857 7.055-4.571 14.105-8.373 19.914-14.611 5.858-6.243 12.731-11.579 18.245-18.12 2.056-2.43 3.462-4.999 5.131-7.693 3.802-5.979 9.1-10.461 12.049-17.008 1.374-2.989 2.262-6.198 3.506-9.275 2.088-5.209 4.661-9.823 5.979-15.341 2.177-8.934 2.779-18.207 4.571-27.176 1.671-8.209 3.627-15.898 4.362-24.231 0.77-8.418 2.099-17.049 1.362-25.507-0.77-9.617-4.23-18.846-6.749-28.119-2.868-10.593-6.67-20.64-11.367-30.554-9.054-19.058-19.186-37.685-34.185-52.728-12.049-12.054-25.937-22.777-39.655-32.817-3.538-2.562-7.386-4.661-10.935-7.265-5.045-3.67-10.002-7.44-15.211-10.857-9.57-6.198-19.614-11.666-29.7-17.008-11.276-5.979-23.715-9.702-35.421-14.781-8.67-3.802-17.519-5.341-26.877-6.582-7.65-0.99-14.914-2.946-22.734-1.878-2.694 0.33-5.341 0.99-8.078 1.329-3.33 0.111-6.627 0.549-9.913 1.155-3.802 0.99-7.561 2.177-11.282 3.549-19.398 6.759-35.724 17.736-51.749 30.34-4.187 3.285-8.55 6.285-12.906 9.318-6.275 4.35-11.538 8.715-16.917 14.142-3.714 3.759-7.561 7.397-11.453 10.978-9.1 8.286-19.701 14.999-27.307 24.827-3.934 5.131-7.133 10.857-10.429 16.41-4.571 7.65-9.617 15.164-13.716 23.074-6.243 12.176-10.638 26.236-14.358 39.353-3.164 11.238-6.285 22.946-8.418 34.441-1.242 6.749-0.99 13.161-1.329 19.954-0.438 6.791-0.88 13.545-0.77 20.383 0.111 11.922 3.078 23.202 5.473 34.867 2.056 10.002 4.614 18.761 9.617 27.73 11.964 21.539 31.704 37.134 50.933 51.704 3.253 2.441 6.496 5.131 9.87 7.397 2.989 1.835 6.111 3.417 9.364 4.792 3.638 1.878 7.176 3.802 10.725 5.858 3.33 1.924 6.617 3.978 10.002 5.814 5.298 2.814 9.913 2.647 15.767 2.605 9.57-0.078 19.099-0.111 28.629 0.438 6.022 0.33 12.050 0.549 18.075 1.11 3.759 0.33 7.825 1.286 11.67 1.098-8.418-0.221-16.281 0.438-24.402-2.605-12.352-4.703-23.972-11.323-34.613-19.145-5.045-3.714-10.208-6.538-15.51-9.749-4.661-2.779-8.802-6.364-13.332-9.364-10.166-6.749-19.958-13.629-28.674-22.218-2.989-2.9-5.473-6.066-7.825-9.528-3.078-4.571-7.176-8.802-9.143-14.019-1.197-3.164-1.792-6.702-2.562-10.002-1.197-4.867-2.605-9.702-3.891-14.57-2.309-8.979-2.394-18.292-3.21-27.478-0.438-4.703-1.45-9.186-1.626-13.928-0.111-6.243-0.438-12.822 0.88-18.973 2.177-10.593 3.759-21.024 7.002-31.406 3.462-11.111 8.67-21.706 13.934-32.050 5.166-10.254 9.143-21.321 14.954-31.235 5.516-9.396 10.429-19.443 17.433-27.862 2.868-3.462 5.43-7.176 8.252-10.682 3.549-4.44 8.034-7.308 12.176-11.070 7.219-6.538 14.701-12.519 22.221-18.716 4.23-3.417 8.462-6.88 12.56-10.461 4.098-3.67 7.988-7.735 12.353-11.025 3.462-2.605 7.429-4.23 11.022-6.538 4.055-2.562 7.176-4.746 11.838-6.022 3.121-0.88 6.111-2.177 9.232-2.911 4.023-0.99 8.373-1.318 12.479-1.835 3.462-0.438 6.923-0.111 10.386-0.549 2.605-0.33 5.177-1.197 7.782-1.494 2.868-0.33 5.682-0.078 8.462 0.33 3.078 0.438 6.198 0.549 9.232 0.99 5.045 0.77 9.881 2.736 14.873 3.846 3.714 0.88 7.44 1.582 11.154 2.352 10.55 2.309 20.252 6.364 30.256 10.472z"></path>
    </svg>