<svg xmlns="http://www.w3.org/2000/svg" viewBox="5.065 202.112 1012.744 683.506">
    <path fill="#000000" d="M842.381 611.213c-2.403 0.749-1.857-0.936-3.28-1.198-3.023-0.656-5.901 0.032-8.961-0.28-2.44-0.28-4.445-1.461-6.848-1.751-2.916-0.375-5.646 0.28-8.634-0.28-9.071-1.603-20.29-2.697-28.56 1.865-3.17 1.751-6.192 4.010-9.362 5.864-2.223 1.274-3.133 2.988-4.954 4.704-2.694 2.51-6.594 4.047-9.144 6.557-1.349 1.387-1.494 3.139-2.916 4.441-2.223 2.041-5.901 3.456-8.377 5.463-8.087 6.633-17.485 11.474-26.486 16.757-11.511 6.737-25.318 10.091-37.594 15.265-3.678 1.527-7.431 1.498-10.821 3.353-3.206 1.779-5.901 4.956-9.288 5.968-4.334 1.312-8.997 2.221-13.442 3.129-9.144 1.855-17.669 5.65-26.92 7.072-8.669 1.312-16.903 5.097-25.465 5.864-6.048 0.469-12.314 2.407-18.325 3.495-9.324 1.714-18.76 1.527-28.16 3.129-4.261 0.749-8.16 1.171-12.458 1.133-5.282-0.032-10.236 1.461-15.52 1.603-15.555 0.469-30.31 2.952-45.755-0.469-7.394-1.603-13.988-5.069-21.166-7.504-6.811-2.297-13.733-3.934-20.582-6.089-15.52-4.807-30.127-12.384-44.955-18.905-2.185-0.946-3.934-1.060-6.121-1.751-4.117-1.236-7.103-4.338-10.965-6.053-8.377-3.747-15.701-7.691-23.606-12.458-4.408-2.661-8.307-6.447-12.715-8.993-3.206-1.816-6.376-3.316-9.472-5.463-5.319-3.644-11.038-7.072-15.956-11.661-5.938-5.536-11.949-11.254-18.362-16.063-6.885-5.135-15.52-8.637-23.353-12.025-12.277-5.322-25.793-7.504-39.054-8.309-9.944-0.656-20.072 0.094-30.017 0.033-4.954-0.068-9.436 0.656-14.316 1.198-2.514 0.28-7.979-0.469-9.873 1.968 1.312 0.843 2.587 1.171 4.080 1.498 5.465 1.236 11.585 2.221 17.122 2.877 3.28 0.375 6.412 0.28 9.581 1.198 2.624 0.843 5.027 2.006 7.722 2.661 11.585 2.773 21.93 7.393 32.968 11.731 4.297 1.714 7.796 4.047 12.314 5.398 3.752 1.125 7.541 2.838 10.965 4.704 5.137 2.763 10.236 6.154 14.827 9.724 10.855 8.526 17.924 26.046 11.148 39.197-1.128 2.221-1.457 4.704-2.805 6.886-1.968 3.316-4.954 6.371-7.213 9.506-3.133 4.413-7.067 7.832-10.309 12.279-2.477 3.353-4.846 5.94-6.811 9.581-0.947 1.714-2.149 4.15-3.424 5.536 10.345-3.391 20.256-9.546 29.618-15.008 8.89-5.173 15.701-10.091 21.857-18.395 4.297-5.79 6.594-8.198 14.025-8.16 3.642 0.033 5.974 0.375 9.362 1.236 3.244 0.843 4.044 1.236 6.995 2.726 5.174 2.624 9.288 5.135 13.953 8.526 5.027 3.681 4.626 7.757 2.695 13.298-1.276 3.532-1.857 7.1-3.28 10.528-1.748 4.262-3.461 8.488-4.736 12.933-1.713 5.902-5.137 10.963-7.722 16.612-3.28 7.065-6.811 14.21-10.456 21.093 17.341-9.8 29.762-23.167 41.494-39.161 3.535-4.844 5.864-9.944 8.669-15.008 2.952-5.359 9.944-2.586 14.536-1.198 0.767 0.28 1.64 1.022 2.624 1.274 1.276 0.375 2.587-0.094 3.97 0.28 1.968 0.563 5.392 2.334 6.704 3.971 1.604 2.006 1.202 4.413 1.128 6.999-0.072 4.189-0.656 9.397-1.53 13.442-1.128 5.425-5.137 10.491-7.943 15.298-3.023 5.246-5.573 11.474-9.288 16.139-3.642 4.554-7.541 8.526-11.585 12.643-2.842 2.877-7.25 8.892-11.474 9.472 3.716-0.469 6.775-0.375 10.456-1.274 6.192-1.678 11.511-3.429 17.414-5.902 9.617-3.971 19.453-9.838 25.538-18.688 2.695-3.971 4.006-9.358 5.974-13.772 1.713-3.898 3.789-7.251 5.864-10.492 2.185-3.353 2.805-8.274 6.557-10.602 4.699-2.952 11.511-1.855 16.866-1.892 7.504-0.068 8.086 2.407 9.69 9.293 2.149 9.106 1.238 17.777-0.731 26.956-1.821 8.526-2.952 16.906-5.901 25.175-1.64 4.665-1.784 10.562-4.080 14.9 4.954 1.527 14.282-1.171 18.178-4.807 6.085-5.611 4.445-17.342 5.864-24.626 1.164-5.94 1.42-11.511 3.535-17.306 1.128-3.101 2.223-6.192 3.17-9.321 1.42-4.741 3.17-8.637 8.525-10.132 3.934-1.088 11.585-2.586 13.334 2.297 1.094 3.101 1.64 7.251 1.566 10.598-0.114 5.79 1.164 11.077 1.493 16.796 0.179 2.988 0.767 5.611 1.238 8.526 0.694 4.037-0.404 8.412 0.58 12.421 1.202 4.993 6.885 9.944 9.873 13.845 3.826 4.993 7.032 8.274 13.335 9.399 2.694 0.469 7.795 1.088 10.383 0.094-1.057-2.877-3.206-5.359-4.044-8.274-1.128-4.15-0.404-8.637-1.677-13.005-2.259-7.72-3.899-16.175-1.895-23.79 1.42-5.536 1.094-11.911 2.661-17.192 0.767-2.483 1.604-6.557 3.28-8.712 1.931-2.473 5.72-3.57 8.451-4.956 2.55-1.312 5.064-2.107 7.688-3.101 4.006-1.489 7.032-1.312 11.075-1.892 3.571-0.563 6.557-1.564 10.309-1.678 1.713-0.033 3.715-0.656 5.282 0.375 2.149 1.489 4.554 6.596 6.121 8.816 7.176 10.053 9.981 21.855 13.007 33.549 1.857 7.176 7.578 11.367 13.589 15.159 5.137 3.243 9.363 4.59 15.263 5.864 2.112 0.469 4.589 1.779 6.667 1.751 0.179-3.495-5.282-6.848-7.541-9.069-3.133-3.064-6.377-5.94-8.743-9.581-4.191-6.482-6.484-13.736-8.308-21.13-1.276-5.173-2.66-10.235-1.968-15.63 0.404-3.091 2.44-6.633 3.899-9.358 3.97-7.466 13.917-9.764 21.056-13.592 4.626-2.473 9.255-4.844 14.135-5.902 1.677-0.375 3.35-0.843 5.027-1.236 4.334-0.984 7.032 1.312 11.002 2.838 2.842 1.125 5.975 1.387 8.634 2.952 3.715 2.183 6.229 6.154 8.308 9.764 5.137 9.069 6.922 21.421 18.616 23.025 2.185 0.28 16.32 4.037 17.485 0.375 0.656-2.006-6.192-9.22-7.25-11.038-2.624-4.517-4.371-9.437-6.377-14.282-2.55-6.257-11.985-18.688-7.467-25.353 1.493-2.183 4.482-4.993 6.704-6.596 2.952-2.145 6.011-4.226 9.324-5.827 6.303-3.064 10.456-8.274 16.467-11.404 2.040-1.060 5.501-3.495 7.795-3.785 2.66-0.375 4.954 1.714 6.996 3.391 3.497 2.811 6.484 5.611 10.637 7.504 7.213 3.28 16.247 3.607 24.008 4.328 5.064 0.469 10.091 0.28 15.156 0.375 2.914 0.032 5.827 0.469 7.978-1.903-0.149-4.226-10.091-4.441-12.458-5.097-3.571-0.984-8.634-2.624-11.802-4.88-4.227-3.064-6.885-6.924-8.086-11.874-0.947-3.861-3.206-9.908-2.040-13.842 1.202-3.898 5.828-9.003 9.324-10.857 2.768-1.461 6.011-1.968 8.634-3.28 1.783-0.936 2.878-2.071 5.101-2.624 5.429-1.378 13.188-0.375 18.653-0.375 4.663 0.032 5.793-1.779 9.944-3.532 2.040-0.936 4.191-1.274 6.229-2.258 2.075-0.984 3.826-3.57-1.566-6.708z"></path>
    <path fill="#000000" d="M326.92 520.613c-0.402 2.079-2.403 2.914-3.899 4.15-5.828 4.769-12.314 7.757-19.162 11.039-23.024 11.036-49.362 12.238-74.462 11.293-13.77-0.469-37.487-3.129-43.716-17.96-1.276-2.988-1.713-6.557-5.573-7.1-1.094-0.094-2.185 0.28-3.28 0.469-6.412 0.984-12.896 1.527-19.379 2.221-16.029 1.64-37.996 6.962-52.057-3.971-4.736-3.644-10.747-9.069-13.733-14.317-2.768-4.769-2.259-10.639-4.154-15.739-1.021-2.697-2.44-4.59 1.276-5.94 2.367-0.843 6.084-0.843 8.669-1.461 8.669-2.006 17.522-1.968 26.375-3.57 0.947-2.838-2.514-9.22-2.805-12.315-0.767-7.4 7.103-11.003 12.568-14.063 6.011-3.391 12.933-5.94 19.527-7.757 4.626-1.312 9.653-1.855 14.245-3.353 0.11-4.085 3.899-6.924 5.901-10.201 5.319-8.74 15.919-11.511 25.354-14.315 8.233-2.407 17.85-2.334 26.301-3.391 6.484-0.843 12.859-1.498 19.416-1.64 9.873-0.187 19.781 0.187 29.654 0.067 3.678-0.033 5.793 1.714 9.107 1.714 4.954 0.033 10.674-3.204 15.484-4.479 10.528-2.801 25.21-4.037 35.372 0.563 4.191 1.93 8.524 4.189 12.568 6.344 3.679 1.968 4.88 2.155 9.362 2.155 6.922-0.033 21.966-2.988 25.609 5.574 1.713 4.037-0.837 5.35-3.899 7.138-5.647 3.28-10.855 8.451-16.977 10.602-3.133 1.088-5.501 2.51-8.743 3.495-2.878 0.936-4.991 3.419-7.869 4.226-2.004 0.563-4.153-0.375-6.048 0.469-0.037 2.624 2.987 4.189 4.191 6.268 1.747 2.988 3.314 7.214 3.57 10.635 0.438 5.687-1.385 7.691-5.355 11.658-1.858 1.855-7.177 3.861-8.197 5.864 2.332 3.064 2.952 5.322 4.153 8.92 1.677 5.173 1.604 4.704-0.583 9.69-4.080 9.182-10.929 17.924-8.816 17.012z"></path>
    <path fill="#000000" d="M370.681 358.154c5.501 0.094 10.492 1.198 16.029 1.855 14.718 1.779 29.471 4.226 44.225 5.639 6.447 0.656 13.114 0.656 19.564 0 8.014-0.843 17.777-0.749 25.173-4.262 5.573-2.624 9.436-9.041 15.299-10.749 3.715-1.060 7.578-0.375 11.112 0.843 6.377 2.071 12.897 3.898 19.453 5.246 14.316 3.025 29.434 1.387 43.934 1.423 10.711 0.034 21.494 1.022 32.132-0.749 12.678-2.145 25.719-9.144 37.086-14.972 5.174-2.624 9.69-5.94 14.573-8.957 1.566-0.984 3.678-1.35 4.044-3.101-7.795-1.779-14.098-4.517-21.458-8.375-18.396-9.581-37.048-20.33-58.36-20.113-9.362 0.094-19.236-0.946-28.487 0.187-4.006 0.469-6.922 2.221-10.383-0.469-1.128-0.843-1.456-1.968-2.514-2.801-2.55-2.041-6.631-4.338-9.324-5.864-7.869-4.338-18.033-6.596-26.666-8.274-13.006-2.549-26.556-1.423-39.709-1.423-7.541 0-15.848-0.946-23.316 0.094-3.243 0.469-5.901 1.387-9.218 1.423-4.444 0.094-8.926-0.067-13.368-0.033-12.642 0.094-24.591 5.059-32.859 14.754-1.493 1.714-4.191 3.934-5.064 5.978-0.984 2.221 0 4.844-0.473 7.176-17.122 3.456-34.936 3.607-52.020 8.018-8.562 2.183-16.939 5.322-25.427 7.908-2.55 0.843-7.032 1.461-8.307 3.898-0.437 0.843-0.181 2.661-0.254 3.644-6.811 0.843-14.463 1.855-19.417 7.176-6.412 6.848-5.392 18.579 3.17 22.62 4.117 1.93 9.181 2.838 13.697 3.129 11.768 0.749 23.751 0.094 35.556 0.094 8.415 0 16.977 0.469 25.391 0.034 3.133-0.187 5.684-1.198 8.743-1.892 0.072-0.469 0.18-0.843 17.449-9.069z"></path>
    <path fill="#000000" d="M704.951 372.192c-0.328-0.067-0.656-0.187-0.947-0.28 0.618-7.176 21.166-9.65 25.829-10.344 9.363-1.453 18.834-1.93 28.307-1.968 9.545-0.033 17.705-0.563 26.448 3.644 4.554 2.192 6.447 4.299 11.621 4.262 22.659-0.187 45.246-2.079 68.014-1.678 8.853 0.094 17.777 0.936 25.866 4.844 4.991 2.435 12.314 5.574 16.357 9.397 2.587 2.483 2.731 6.23 6.192 7.757 6.265 2.773 14.172 0.28 20.219 4.665 0.694 0.469 4.699 3.101 4.773 4.010 0.179 2.041-6.958 5.79-8.562 6.848-17.158 11.585-41.311 20.509-61.639 12.566-1.714-0.656-3.863-0.936-5.501-1.714-1.677-0.843-3.535-3.316-5.536-3.167-1.202 0.067-2.731 1.93-3.678 2.51-4.191 2.661-10.128 3.495-14.865 4.665-9.254 2.297-19.162 6.924-28.925 5.574-1.857-0.28-3.715-1.564-5.573-1.387-1.857 0.187-4.154 2.549-5.901 3.28-5.537 2.258-12.678 2.51-18.506 3.391-11.183 1.751-23.716 1.892-34.753-0.843-7.467-1.816-14.754-6.081-22.221-7.504-2.878-0.563-5.975 0-8.925-0.033-12.458-0.067-25.682-2.407-37.96-4.554-13.114-2.297-25.354-8.74-35.301-17.483-2.112-1.855-10.564-8.309-9.69-11.767 0.506-2.183 3.35-2.773 5.208-3.795 15.627-8.637 29.507-18.979 47.94-18.795 6.776 0.066 13.589-0.187 20.327 0 3.678 0.094 7.067 2.041 1.386 7.87z"></path>
    </svg>