<svg xmlns="http://www.w3.org/2000/svg" viewBox="-8.223 97.344 1045.875 893.715">
    <path fill="#000000" d="M405.264 324.832c5.915 0 13.746-1.435 19.473-0.069 2.109 0.483 3.954 1.472 6.287 1.994 3.049 0.677 6.967 1.917 9.829 2.897 4.409 1.472 10.357 5.686 14.159 8.513 1.355 1.018 3.353 2.713 3.315 4.408-0.032 0.872-3.427 6.103-3.877 6.401-3.577 2.529-12.387-1.278-16.080-1.539-4.896-0.292-9.53-2.373-14.536-3.272-9.338-1.619-17.21-5.502-24.782-11.637 1.167-2.789 1.924-4.144 4.597-6.064z"></path>
    <path fill="#000000" d="M569.984 345.826c0.271-2.789 5.878-4.067 8.060-4.863 3.541-1.278 7.156-2.817 10.394-4.824 2.636-1.657 4.97-4.029 8.171-4.744 3.164-0.677 5.158-0.677 8.023-1.733 3.541-1.316 6.742-1.619 10.582-1.619 4.22 0 5.915-1.212 6.477 3.206 0.715 5.686-1.883 10.169-6.439 13.366-4.895 3.428-10.656 5.647-16.116 8.058-6.853 3.011-13.595 6.064-21.090 6.064-1.126 0-3.877 0.58-4.97 0.097-1.808-0.872-1.053-1.396-1.883-2.935-1.695-3.272-1.355-4.707 0.833-8.134 3.839-6.064 8.057-10.545 15.74-11.639z"></path>
    <path fill="#000000" d="M634.92 333.269c-1.695 6.894-5.158 12.992-10.054 18.191-2.825 2.973-5.609 5.346-8.887 7.95-2.751 2.22-7.609 5.87-10.848 7.117-4.442 1.657-9.714 1.056-14.271 2.258-5.084 1.355-7.116 1.171-12.199-0.195-5.727-1.539-14.687-4.369-18.867-9.412-1.506-1.81-4.895-6.742-5.652-8.853-1.392-3.953 0.069-7.534 1.355-10.918 1.019-2.713 0.677-2.41 2.411-4.863 0.938-1.316 1.314-2.713 2.37-4.067 1.319-1.771 2.976-2.935 4.065-3.39 1.544-2.226 5.011-3.206 7.196-4.224 4.328-2.035 8.057-3.953 12.162-6.179 7.418-4.029 15.101-4.783 23.424-4.783 7.795 0 15.253-0.389 21.954 3.196 3.652 1.966 5.236 3.206 6.287 7.273 0.572 2.035 0.755 3.505 0.795 5.686 0.069 2.41-0.833 3.466-1.244 5.2zM544.542 410.795c-3.501 3.466-7.421 6.064-12.052 7.301-5.195 1.435-11.187-0.389-16.457 0.483-1.093 0.097-1.355 1.619-2.562 1.619-0.828 0.033-2.408-1.435-3.161-1.771-2.525-1.122-4.106-1.657-6.14-3.612-1.768-1.733-3.541-2.178-5.31-3.574-1.846-1.472-3.463-3.65-5.235-5.307-2.787-2.633-6.628-5.724-8.662-8.93 2.334-2.373 13.066-1.841 16.228-1.018 2.902 0.677 11.9 3.845 13.857 6.294l1.621 3.233c2.337 0.58 5.048-1.81 7.27-2.449 2.82-0.774 5.985-1.955 8.887-2.49 1.318-0.195 2.784 0.389 4.102 0.097 1.129-0.195 1.883-1.094 2.714-1.316 1.846-0.483 6.889-1.202 8.662-0.292 3.954 2.074-1.506 9.412-3.767 11.637zM450.844 363.478c-3.766-0.033-7.528 0-11.295 0-1.695 0-3.615 0.292-5.235 0.034-1.957-0.292-2.562-1.018-4.143-1.511-3.238-0.872-7.229-0.872-10.394-2.035-1.768-0.677-3.275-2.594-5.195-3.39-2.637-1.171-4.597-1.657-6.967-3.428-2.334-1.733-4.671-3.65-7.229-5.047-1.92-1.056-4.933-2.074-6.104-4.328-0.982-1.879-1.732-5.606-1.994-7.717-0.376-3.39 0.069-7.117 0.069-10.545 0-6.439 0.602-13.558 6.402-17.778 5.797-4.213 15.588-2.41 17.811-2.41 13.219 0.097 24.741 6.023 36.228 12.125 8.662 4.63 12.088 9.492 15.891 18.229 5.609 12.953-3.729 27.902-17.852 27.792zM930.306 272.864c-9.637-5.2-21.389-6.856-31.893-9.531-13.75-3.466-27.529-6.363-41.652-7.717-9.567-0.872-19.129-2.897-28.696-3.466-8.060-0.483-16.080-0.58-24.14-1.24-12.956-1.018-25.794-3.089-38.75-4.144-8.060-0.677-15.666-1.278-23.424-3.546-10.357-3.049-21.504-6.401-32.348-7.197-16.607-1.24-33.592-0.389-50.351-0.195-3.501-2.035-7.077-3.883-10.844-5.161-4.933-1.619-8.887-5.008-13.783-7.002-4.708-1.89-9.267-5.047-14.425-5.578-3.839-0.389-5.797-0.195-9.337-1.994-2.448-1.202-4.822-2.296-7.683-2.751-5.347-0.872-10.168-2.713-14.913-5.606-4.929-2.973-6.779-8.398-10.732-12.315-1.732-1.733-3.275-2.751-4.445-4.928-1.919-3.505-2.935-8.552-6.137-4.707-2.411 2.866-3.089 9.191-5.8 11.561-1.053 0.969-2.709 1.018-3.914 1.771-1.732 1.094-2.939 3.466-4.822 4.3-4.404 1.879-11.9-0.195-14.271-4.522-1.019-1.879-1.207-5.8-1.883-8.020-1.318-4.136-0.569-9.037-1.883-12.952-4.482-0.58-7.159 6.023-8.211 9.152-0.867 2.557-1.732 5.085-2.411 7.717-0.978 4.067-1.089 5.567-5.235 5.647-3.766 0.033-10.732 1.511-13.668-1.579-3.049-3.168-1.47-6.287-7.192-3.011-6.664 3.845-14.196 9.867-21.917 10.961-2.637 0.389-2.714-0.389-4.708-1.501-4.065-2.188-8.134-2.789-12.69-3.73-13.558-2.789-26.101-0.483-39.126 3.65-4.671 1.472-7.573 5.346-12.281 6.325-5.195 1.056-10.131 2.674-15.253 4.224-5.497 1.657-10.467 6.401-14.684 10.43-5.272 5.085-9.305 10.961-15.969 14.65-7.606 4.213-14.307-0.195-21.688-1.733-10.999-2.265-21.278-4.783-32.764-4.783-3.652 0-7.381-0.097-11.069-0.069-4.482 0.069-8.097 2.111-12.428 2.973-8.473 1.695-17.247 3.536-25.834 4.852-4.445 0.677-8.961 0.389-13.481 1.056-6.476 0.969-12.993 1.917-19.469 2.866-6.214 0.872-12.468 1.879-18.679 2.518-8.097 0.872-16.195-0.195-24.291 0.677-8.625 0.979-16.91 2.373-25.458 3.011-5.31 0.389-10.357 2.15-15.588 2.751-6.628 0.774-12.387 1.511-18.867 3.244-9.64 2.518-17.778 8.881-27.263 12.051-2.824 0.969-6.064 1.549-9.227 2.633-2.784 0.969-8.057 0.872-9.788 3.352-3.164 4.512 11.446 7.981 14.61 8.134 1.846 0.097 3.881-0.389 5.69-0.069 1.732 0.292 3.087 1.435 4.819 1.771 2.448 0.483 4.032-0.389 6.476 0.872 2.562 1.212 4.933 3.352 7.385 4.891 4.515 2.858 9.076 5.946 13.857 8.319 8.548 4.289 18.302 6.926 27.075 10.918 7.454 3.39 15.928 7.197 24.062 8.589 6.664 1.171 12.842 3.168 19.429 3.466 5.576 0.195 12.805 1.316 18.040 3.206 5.76 2.074 10.732 6.255 16.457 8.552 5.534 2.22 10.43 4.967 15.854 7.262 1.433 0.58 3.201 1.316 4.371 2.334 0.864 0.774 1.318 2.188 2.296 2.973 1.355 1.056 3.238 1.202 4.708 1.994 3.427 1.81 5.723 3.089 9.567 4.029 3.652 0.969 7.868 0.389 11.671 0.389 10.36 0 21.578 1.619 30.464 7.717 2.599 1.771 5.235 2.827 7.909 4.328 3.689 2.074 5.158 7.273 8.134 10.209 3.128 3.089 5.796 5.383 10.205 6.856 4.328 1.424 9.489 1.841 12.351 5.724 10.394 14.234 11.224 33.44 20.186 48.39 3.803 6.363 8.887 11.523 14.463 16.23 3.009 2.529 6.513 4.707 9.338 7.419 4.519 4.224 7.757 11.826 9.98 17.476 0.982 2.48 0.565 4.592 1.093 7.117 0.451 2.334 1.351 3.689 1.47 6.103 0.414 7.94-0.605 16.041-1.997 23.837-2.448 13.783-4.515 26.698-4.479 40.747 0.032 13.295-3.958 27.039-0.417 40.028 3.918 14.347 12.805 26.813 19.885 39.994 2.071 3.913 3.089 7.68 6.366 10.918 2.034 1.994 5.686 2.633 6.554 5.578 0.414 1.396-0.104 3.049 0.273 4.554 0.488 1.879 1.318 2.567 1.281 5.123-0.104 6.478 1.433 11.298-0.032 17.4-1.093 4.668-1.47 8.659-3.806 12.654-2.86 4.928-5.911 11.335-7.528 16.759-3.577 12.051-6.104 24.401-8.81 36.412-2.411 10.548 2.784 23.574 8.85 32.314 2.145 3.049 4.294 6.103 6.402 9.191 4.328 6.558 5.875 11.373 8.171 18.941 0.753 2.529 1.167 4.707 1.58 7.262 0.343 2.035 1.466 3.769 1.732 5.762 0.343 2.258-1.056 4.445-1.732 6.519-1.433 4.484-1.961 9.228-3.238 13.783-1.961 6.964-4.482 14.495-4.859 21.729-0.239 3.991 0 6.141 2.034 9.191 2.939 4.369 3.729 9.906 6.064 14.688 2.334 4.707 6.063 7.197 9.338 11.144 1.957-1.994 2.525-5.8 3.39-8.398 0.905-2.713 2.637-5.606 3.315-8.253 2.182-8.589-1.543-17.697-1.506-26.171 0.032-3.73-0.032-7.457 0-11.224 0.032-5.008-1.093-9.94-0.488-14.873 1.015-8.357 2.448-16.383 3.803-24.553 0.83-4.967 0.135-11.335-1.658-15.854-2.109-5.269-2.522-11-4.822-16.158-2.334-5.346-4.97-10.205-6.93-15.703-2.595-7.419-3.238-12.994-2.939-20.976 0.454-12.242 6.366-26.137 12.202-36.606 2.334-4.175 4.328-9.607 5.347-14.271 0.676-3.011 0.069-5.956 0.676-9.006 0.68-3.39 1.281-5.123 0.982-8.513-1.506-16.759-8.171-32.273-11.675-48.616-1.658-7.614-3.238-15.969-6.177-23.162-3.164-7.717-3.501-15.739-4.859-23.987-2.182-13.108-2.747-25.381-2.899-38.562-0.104-10.619 3.201-22.482 10.958-29.978 7.344-7.041 38.488-27.001 39.315-3.39 0.104 3.65 0.491 8.552 0.135 12.162-0.602 6.439-7.041 11.298-10.467 16.456-4.744 7.197-10.168 14.536-12.162 22.973-1.318 5.502-0.828 12.612 0.639 17.999 0.942 3.39 1.47 7.35 2.525 10.623 1.281 4.067 4.556 7.301 6.816 10.844 5.76 8.996 11.749 18.003 15.666 28.020 1.093 2.858 2.263 5.54 3.615 8.319 2.525 5.356 2.939 10.361 3.995 16.084 1.621 8.853 0.864 19.167 0.488 28.13-0.307 7.797-3.238 15.929-6.251 23.006-2.784 6.558-3.501 14.238-5.272 21.206-2.633 10.619-3.652 23.873-1.621 34.529 3.689 19.354 5.989 38.787 8.585 58.293 1.093 8.398 1.396 16.42 1.244 24.856-0.104 6.779-3.013 12.919-3.353 19.583-0.273 5.724-0.376 11.409 1.58 16.795 1.732 4.783 3.652 9.298 4.597 14.347 0.639 3.168 0.639 6.401 1.92 9.492 1.808 4.474 5.121 7.797 6.173 12.728 0.454 2.258-0.239 3.574 1.887 4.928 3.046 1.955 11.144 0.483 14.947 0.389 4.671-0.097 5.158 0.097 6.664-3.769 0.982-2.48 1.056-6.478 1.207-9.222 0.376-8.552-1.433-17.287-4.18-25.27-3.238-9.492-4.445-19.62-7.307-29.301-3.128-10.692-4.859-20.599-0.828-31.254 3.39-8.853 4.442-16.345 4.216-25.794-0.239-10.242-4.29-19.095-6.325-28.92-1.433-7.041-0.68-15.969-0.454-23.087 0.376-11.45 5.763-23.236 9.906-33.744 2.939-7.457 4.933-14.197 4.896-22.257 0-6.401 0.239-12.694-0.942-19.015-0.864-4.668-2.747-8.968-3.615-13.669-1.658-9.037-2.633-16.195-8.019-23.873-4.744-6.856-5.158-9.492-5.276-17.213-0.206-15.515 5.612-30.69 6.591-46.131 0.867-13.746-11.22-28.090-1.808-41.235 6.664-9.267 42.553-37.17 46.548-13.444 2.976 17.734 7.267 37.694 0.34 54.793-2.861 7.002-2.448 14.123-4.371 21.315-1.465 5.567-3.426 12.125-3.729 17.848-0.271 4.445-0.417 9.375 0.069 13.825 0.755 6.964 4.371 12.125 6.477 18.678 1.62 4.928 3.2 10.091 4.744 15.060 1.319 4.328 1.808 8.735 3.275 12.994 1.658 4.824 1.769 9.336 1.732 14.388-0.108 10.394 0.455 20.068-2.223 30.273-3.009 11.335-8.13 23.686-13.972 33.817-3.315 5.724-6.816 11.335-8.134 17.778-1.465 7.225-4.929 14.495-4.892 21.916 0 6.894 3.353 12.915 3.315 19.961 0 5.085 0.938 9.788 1.994 14.759 1.167 5.463 2.408 10.884 2.86 16.497 0.493 5.984 1.924 8.214-1.658 14.044 5.726-1.355 12.768-5.383 17.213-9.222 3.463-3.011 2.22-6.623 2.182-10.844-0.108-7.197 0.601-14.614-0.271-21.806-1.056-8.812-4.482-17.058-4.409-26.063 0.108-13.295 6.139-23.764 10.545-35.925 5.575-15.326 10.885-30.165 13.975-46.283 1.429-7.419 2.297-14.913 3.689-22.294 1.544-8.134 3.767-16.269 3.767-24.553 0-13.181-5.761-25.908-7.986-38.75-1.506-8.773-1.544-16.984-1.544-25.908 0.069-13.295-1.277-25.531 1.544-38.712 1.62-7.757 4.933-13.971 4.933-21.991-0.032-3.73-0.069-7.002-0.862-10.62-0.493-2.41-2.075-7.041-0.715-9.412 3.39-5.8 15.064-0.097 18.191 3.536 3.39 3.991 4.253 8.708 4.858 13.749 0.978 8.173 1.58 16.415 0.978 24.664-0.795 10.771-3.954 22.973 0.34 33.403 2.109 5.161 5.609 9.531 7.569 14.803 2.22 5.984 3.315 12.051 4.519 18.262 1.355 7.002 3.164 14.839 2.448 21.991-0.823 7.797-5.534 14.95-9.525 21.578-4.822 8.020-11.073 15.929-12.993 25.307-3.803 18.941 6.742 37.845 2.034 56.598-1.846 7.457-6.439 14.163-10.28 20.714-1.658 2.817-3.463 4.744-3.39 7.94 0.069 3.574 1.919 5.231 5.047 5.724 9.64 1.511 16.345-7.68 21.806-14.011 9.411-10.881 21.467-22.445 26.246-36.225 2.902-8.437 3.275-17.853 3.315-26.739 0-12.503-3.353-24.739-4.63-37.132-1.019-10.017-2.264-20.072-2.976-30.088-1.244-16.419 0.493-32.122-3.803-48.317-2.3-8.589-6.328-16.984-7.721-25.794-1.056-6.779-0.34-14.464-0.135-21.278 0.379-14.95 8.662-29.634 16.457-42.065 4.328-6.894 10.996-12.879 16.87-18.414 5.648-5.307 13.481-10.658 17.885-17.099 3.39-4.852 5.648-12.878 6.664-18.562 0.483-2.789 0.34-5.2 1.506-7.836 3.954-8.996 10.807-17.209 15.44-25.908 6.025-11.298 13.255-21.729 24.287-28.581 9.604-5.984 21.315-10.848 32.159-14.311 7.307-2.334 17.021-2.751 23.349-7.457 1.506-1.132 2.788-2.674 4.294-3.835 6.247-4.744 14.61-7.078 21.954-9.492 12.465-4.029 24.177-8.437 36.077-13.746 4.179-1.841 8.248-2.373 12.69-3.466 8.891-2.178 17.287-6.103 26.363-7.651 10.996-1.879 21.618-2.674 32.462-5.567 4.744-1.24 9.452-2.518 14.274-3.536 3.541-0.774 9.186-0.389 12.387-1.879 11.22-5.307-11.561-21.692-16.12-24.14z"></path>
    </svg>