<svg xmlns="http://www.w3.org/2000/svg" viewBox="-24.480 143.998 1084.959 736.003">
    <path fill="#000000" d="M86.894 797.836l-0.985-2.146-0.041-123.076c-0.022-67.694-0.158-132.889-0.3-144.887-0.248-21.075-0.284-21.901-1.049-24.457-0.437-1.456-1.084-3.308-1.445-4.111s-1.179-2.668-1.818-4.145c-0.639-1.474-1.705-3.859-2.365-5.299s-1.203-2.695-1.203-2.794c0-0.095-0.784-1.814-1.741-3.819s-2.588-5.413-3.623-7.574c-5.136-10.749-5.702-12.783-3.936-14.128 0.491-0.374 1.667-0.849 2.61-1.052 2.228-0.481 13.972-0.48 15.718 0.005 2.462 0.683 2.579 1.157 2.668 10.813 0.076 8.059 0.121 8.608 0.853 9.792l0.775 1.254 0.805-1.009c1.051-1.318 1.237-3.059 1.238-11.776 0.005-6.979 0.024-7.198 0.806-7.933 1.396-1.309 2.62-1.517 8.885-1.517 10.066 0 9.789-0.344 9.817 12.153 0.012 5.028 0.139 9.339 0.29 9.58s0.906 0.437 1.688 0.437c1.192 0 1.471-0.147 1.769-0.916 0.193-0.508 0.347-4.876 0.347-9.751 0-9.805 0.050-10.032 2.36-11 1.651-0.688 12.904-0.705 14.548-0.017 2.219 0.928 2.207 0.867 2.401 11.386 0.193 10.42 0.166 10.283 2.206 10.296 2.175 0.013 2.083 0.453 2.083-10.022 0-9.437 0.014-9.61 0.805-10.526 1.127-1.305 2.822-1.593 9.384-1.594 4.873 0 5.945 0.102 7.228 0.683 0.987 0.448 1.57 0.968 1.687 1.511 0.098 0.454 0.23 4.449 0.288 8.871 0.096 7.161 0.186 8.204 0.816 9.473 0.776 1.566 1.579 1.938 2.407 1.11 0.447-0.447 0.536-2.057 0.543-9.868 0.005-10.255-0.024-10.095 2.3-11.3 1.407-0.725 13.038-0.707 14.791 0.022 2.132 0.891 2.3 1.77 2.3 12.118 0 9.93-0.089 9.526 2.101 9.526 1.791 0 1.832-0.205 1.835-9.814 0.005-9.635 0.077-10.075 1.898-11.425 0.957-0.708 1.445-0.751 9.117-0.751 8.877 0 9.814 0.18 10.714 2.051 0.59 1.229 0.194 2.822-1.724 6.913-0.76 1.626-1.804 3.947-2.311 5.16s-1.561 3.559-2.34 5.218c-0.779 1.661-1.415 3.083-1.415 3.163s-1.523 3.289-3.381 7.132c-3.28 6.778-5.683 13.343-6.683 18.275-0.338 1.658-0.482 34.916-0.636 146.116l-0.203 143.969-1.732 1.845-100.166-0.015-0.985-2.147zM119.163 588.871v-21.99h-4.045c-2.929 0-4.234 0.139-4.738 0.509-0.671 0.49-0.697 1.196-0.791 21.99l-0.096 21.48h9.671zM195.106 797.413l-1.039-2.584v-143.563c0-119.932 0.080-143.914 0.489-145.705 0.509-2.231 2.389-6.872 5.143-12.695 0.887-1.868 2.613-5.567 3.839-8.221s3.016-6.485 3.977-8.517c0.961-2.029 1.751-3.767 1.751-3.865 0-0.797 4.252-9.154 5.134-10.084 1.706-1.805 2.247-1.993 6.308-2.198l3.755-0.185 0.178-28.816c0.148-23.554 0.266-28.921 0.663-29.4 0.265-0.32 1.072-0.748 1.786-0.948 1.432-0.399 197.897-0.536 199.87-0.141l1.118 0.222v399.282h-231.93zM299.361 514.857v-35.218h-42.188v34.979c0 19.237 0.107 35.087 0.238 35.218s9.626 0.238 21.094 0.238h20.857zM271.601 535.529c-0.421-0.084-1.066-0.481-1.43-0.883-0.625-0.688-0.671-1.781-0.76-18.653-0.068-12.383 0.022-18.212 0.293-18.868 0.616-1.488 1.714-1.751 7.241-1.75 6.362 0 7.423 0.388 7.844 2.858 0.451 2.65 0.128 34.732-0.358 35.617-0.825 1.507-2.504 1.929-7.466 1.877-2.525-0.027-4.938-0.116-5.36-0.199zM386.516 515.308l0.092-34.592-16.897-0.089c-24.926-0.13-23.019-0.204-24.154 0.931l-0.96 0.96 0.122 33.511c0.067 18.432 0.199 33.636 0.291 33.782s9.445 0.229 20.792 0.178l20.623-0.094zM359.86 536.161c-1.436-0.369-2.578-1.348-2.578-2.21 0-0.351-0.16-0.738-0.356-0.86-0.23-0.141-0.356-6.326-0.356-17.38 0-18.731 0.005-18.769 2.039-19.552 0.551-0.212 2.608-0.423 4.577-0.468 6.178-0.14 6.908-0.058 7.881 0.914l0.878 0.877v36.49l-0.985 1.069c-0.969 1.057-1.040 1.073-5.451 1.246-2.459 0.095-5 0.040-5.648-0.13zM432.534 799.551c-0.095-0.247-0.21-100.844-0.256-223.553l-0.087-223.106-3.466-10.725-0.189-32.179c-0.2-33.943-0.113-36.437 1.327-37.876l0.739-0.739 86.018-0.094c58.964-0.063 86.456 0.024 87.405 0.283 2.644 0.713 2.495-1.652 2.38 37.264l-0.103 34.772-3.406 9.469-0.457 446.933h-84.866c-67.567 0-84.901-0.092-85.036-0.446zM554.647 770.68c0.709-0.709 0.715-1.193 0.715-65.341 0-68.362 0.005-68.063-1.606-72.685-2.73-7.826-8.306-13.531-17.447-17.842-5.534-2.611-8.752-3.487-14.495-3.947-15.182-1.215-30.433 5.669-36.542 16.494-0.958 1.703-2.074 4.117-2.475 5.362-1.825 5.68-1.801 4.63-1.805 73.837 0 51.2 0.089 64.454 0.446 64.598 0.247 0.099 16.655 0.193 36.47 0.21 35.563 0.028 36.031 0.020 36.737-0.688zM485.572 706.062c-0.069-33.778 0-62.7 0.159-64.273 0.38-3.758 1.369-6.976 3.027-9.832 2.533-4.362 9.194-10.18 14.010-12.232 0.904-0.383 2.123-0.913 2.713-1.174 4.117-1.816 10.719-2.644 16.106-2.021 4.579 0.533 7.547 1.407 11.786 3.466 7.852 3.821 14.127 11.058 16.247 18.743 0.733 2.654 0.736 3.151 0.736 65.696v63.023h-17.519v-53.987h-30.388l-0.185 53.809-16.564 0.194zM522.999 679.594c-0.121-0.737-0.365-2.065-0.545-2.948s-0.655-4.262-1.057-7.51c-1.306-10.553-1.255-10.327-2.549-11.48-0.636-0.571-1.261-1.034-1.384-1.034s-0.662 0.455-1.198 1.013c-0.838 0.875-1.097 1.723-1.886 6.169-0.504 2.834-1.273 7.849-1.714 11.143l-0.797 5.99h11.345zM509.418 372.379c0-42.141-0.042-45.384-0.633-47.516-2.183-7.909-9.63-13.729-17.602-13.765-7.915-0.031-14.89 5.818-17.221 14.444-0.58 2.146-0.635 5.744-0.742 47.284l-0.113 44.964 36.311-0.184zM561.267 416.983c0.11-0.444 0.149-20.516 0.092-44.602-0.12-48.335 0.005-45.766-2.438-50.759-3.188-6.513-9.104-10.382-15.893-10.382-6.745 0-12.757 3.66-15.732 9.589-0.49 0.977-0.896 1.894-0.896 2.029s-0.221 0.76-0.49 1.379c-1.255 2.881-1.297 4.395-1.297 49.243v44.308h36.454zM607.207 600.132v-199.867h100.444c68.63 0 100.755 0.118 101.424 0.374 1.995 0.761 1.904-0.668 1.919 30.245l0.012 28.651 0.806 0.215c0.444 0.12 1.87 0.219 3.172 0.221s2.911 0.234 3.577 0.515c1.939 0.819 3.748 3.012 5.328 6.463 0.812 1.769 1.865 4.055 2.342 5.072s0.868 1.945 0.868 2.055c0 0.11 0.743 1.768 1.652 3.685s2.182 4.693 2.831 6.17c0.649 1.474 2.255 5.016 3.571 7.866 3.37 7.301 5.018 11.338 5.678 13.918 0.517 2.021 0.572 15.465 0.559 145.841l-0.014 143.613-2.367 4.649-231.798 0.18v-199.868zM695.43 514.768l0.092-35.129h-42.194v34.978c0 19.237 0.109 35.087 0.24 35.221s9.585 0.201 21.005 0.148l20.765-0.094zM667.345 535.386c-0.743-0.221-1.301-0.687-1.518-1.255-0.202-0.536-0.345-8.258-0.345-18.896 0-17.176 0.031-18.031 0.682-18.837 0.644-0.796 0.941-0.85 5.434-0.964 5.618-0.139 7.632 0.103 8.567 1.039 0.662 0.661 0.689 1.39 0.689 18.741v18.049l-2.084 2.336-5.126 0.068c-2.82 0.040-5.656-0.087-6.302-0.284zM782.401 515.397v-34.682l-16.717-0.089c-24.71-0.13-23.221-0.177-24.149 0.751l-0.789 0.788-0.113 30.29c-0.061 16.662-0.005 31.941 0.122 33.956l0.238 3.666h41.405zM755.901 536.24c-0.515-0.078-1.4-0.628-1.966-1.22l-1.031-1.076-0.198-36.004 0.871-1.012c0.837-0.974 1.036-1.022 4.927-1.229 5.143-0.271 8.101 0.047 8.753 0.938 0.393 0.539 0.486 4.136 0.486 19.148 0 21.585 0.304 19.943-3.793 20.398-2.548 0.284-6.412 0.311-8.048 0.059zM847.048 799.195c-0.248-0.445-0.743-1.445-1.102-2.221-0.626-1.364-0.652-6.688-0.599-143.096 0.039-103.135-0.058-142.145-0.346-143.387-0.22-0.941-0.788-3.514-1.264-5.72-0.983-4.549-2.452-8.438-5.926-15.652-3.592-7.466-8.573-18.588-10.13-22.621-0.788-2.047-0.77-4.459 0.037-5.161 1.303-1.129 3.037-1.356 10.066-1.337 11.22 0.032 10.722-0.553 10.744 12.544 0.019 9.941-0.050 9.602 1.994 9.602 1.804 0 1.957-0.824 1.957-10.547 0-9.94 0.045-10.156 2.36-11.12 1.729-0.724 13.262-0.704 15.007 0.023 2.139 0.896 2.3 1.75 2.3 12.354v9.328l3.755-0.216 0.178-9.887c0.165-9.067 0.236-9.949 0.859-10.633 1.076-1.184 2.834-1.463 9.255-1.467 9.749-0.005 9.553-0.241 9.553 11.642 0 7.012 0.083 8.23 0.617 9.13 0.707 1.193 1.035 1.174 1.997-0.113 0.634-0.848 0.697-1.636 0.749-9.454 0.064-9.4 0.157-9.85 2.2-10.705 1.704-0.712 13.265-0.716 14.963-0.006 2.329 0.975 2.36 1.12 2.36 11.698 0 10.417-0.094 9.968 2.101 9.968 1.786 0 1.83-0.221 1.85-9.635 0.023-9.975 0.194-10.94 2.126-11.904 1.056-0.526 2.282-0.625 7.812-0.625 6.871 0 8.543 0.311 9.228 1.724 0.158 0.329 0.373 4.797 0.473 9.931 0.14 7.168 0.3 9.468 0.676 9.922 0.572 0.688 2.568 0.788 3.191 0.161 0.311-0.311 0.433-3.029 0.441-9.922 0.014-10.555 0.010-10.542 2.461-11.395 1.506-0.526 13.978-0.572 15.764-0.059 4.253 1.22 4.14 3.407-0.716 13.759-2.255 4.802-5.235 11.267-7.509 16.267-1.028 2.263-2.416 5.279-3.085 6.709-1.121 2.391-2.093 4.693-3.121 7.413-0.302 0.791-0.455 38.921-0.585 145.517l-0.178 144.446-2.236 5.362-99.816 0.182-0.451-0.805zM878.221 588.871v-20.916h-8.222v41.832h8.222zM72.147 456.051l-12.514-0.195-4.111-1.949v-138.386l4.829-2.317 78.601-0.093c70.88-0.084 78.718-0.037 79.786 0.472 0.653 0.31 1.281 0.913 1.395 1.345s0.212 31.918 0.213 69.974c0.005 77.777 0.302 70.43-2.874 71.112-1.886 0.404-120.038 0.437-145.323 0.040zM816.817 455.808c-1.262-0.445-1.578-0.754-1.894-1.849-0.266-0.913-0.347-22.361-0.275-70.22l0.104-68.908 1.629-1.629h159.265l4.829 2.377-0.181 138.353-2.147 0.89c-1.21 0.5-3.469 1.039-5.185 1.229-1.806 0.201-33.755 0.328-78.836 0.314-66.398-0.020-75.986-0.087-77.314-0.558zM238.971 395.77c-0.6-0.508-1.272-1.511-1.488-2.237-0.274-0.913-0.347-7.060-0.239-20.084 0.169-20.992 0.197-21.248 2.723-25.92 4.136-7.651 7.975-12.695 9.663-12.695 2.012 0 3.777 1.85 7.358 7.688 0.965 1.572 1.861 2.939 1.994 3.037 0.558 0.409 2.151 4.045 2.769 6.313 0.607 2.228 0.67 4.145 0.734 21.509 0.042 12.622-0.064 19.543-0.319 20.487-0.265 0.986-0.734 1.634-1.525 2.12-1.058 0.645-1.858 0.697-10.859 0.697l-9.716 0.003-1.093-0.922zM290.176 396.33c-0.43-0.175-1.076-0.76-1.43-1.3-0.599-0.916-0.653-2.347-0.724-20.303-0.086-21.778-0.103-21.631 2.531-27.177 1.965-4.136 7.1-11.75 8.295-12.299 1.22-0.556 2.488-0.517 3.704 0.112 1.652 0.852 9.928 14.152 10.435 16.763 0.349 1.804 0.349 40.81 0.001 42.063-0.137 0.491-0.787 1.255-1.446 1.697-1.174 0.792-1.399 0.806-10.89 0.787-5.331-0.013-10.042-0.166-10.472-0.337zM341.535 396.3c-2.11-0.777-2.074-0.418-2.154-22.685-0.053-15.232 0.041-20.771 0.37-21.974 0.642-2.336 2.219-5.368 4.534-8.699 1.117-1.606 2.75-3.967 3.631-5.246s1.778-2.443 1.995-2.587c0.688-0.459 2.888-0.292 3.703 0.276 1.148 0.805 7.898 11.416 9.896 15.557l0.919 1.904v20.435c0 22.577 0.031 22.235-2.21 23.017-1.381 0.482-19.38 0.482-20.687-0.004zM392.142 396.354c-0.391-0.16-1.038-0.652-1.43-1.087-0.697-0.778-0.715-1.3-0.715-21.941v-21.146l1.534-3.19c0.842-1.756 2.228-4.171 3.073-5.362s2.541-3.659 3.76-5.476c2.182-3.248 2.245-3.308 3.648-3.308 2.875 0 3.298 0.5 10.505 12.411l2.425 4.009-0.161 21.202c-0.095 12.55-0.302 21.451-0.505 21.816-0.188 0.338-0.894 1.020-1.563 1.516l-1.219 0.902-9.317-0.022c-5.125-0.014-9.637-0.155-10.030-0.316zM623.374 395.976c-0.644-0.392-1.31-1.084-1.484-1.538-0.509-1.339-0.841-27.597-0.439-34.934 0.415-7.609 0.716-8.703 3.911-14.251 4.433-7.7 6.26-9.94 8.381-10.286 1.097-0.177 1.454-0.032 2.74 1.13 0.814 0.733 2.306 2.722 3.316 4.42s2.124 3.407 2.471 3.801c0.967 1.093 2.965 5.119 3.695 7.447 0.769 2.453 0.778 2.776 0.661 25.394l-0.089 17.108-2.432 2.432-9.779-0.003c-9.142-0.002-9.855-0.049-10.948-0.716zM673.823 395.995c-0.923-0.563-1.174-0.986-1.327-2.234-0.104-0.848-0.262-9.661-0.349-19.589-0.153-17.136-0.124-18.193 0.553-20.916 0.391-1.579 1.193-3.992 1.778-5.368 1.212-2.853 6.732-11.281 8.084-12.343 1.171-0.923 3.29-0.923 4.46-0.005 0.49 0.385 2.242 2.844 3.893 5.462 5.039 7.997 5.569 8.928 6.028 10.579 0.229 0.819 0.365 8.933 0.365 21.613 0.004 22.475 0.013 22.334-2.157 23.089-0.757 0.265-4.496 0.406-10.676 0.404-8.779-0.002-9.598-0.055-10.649-0.696zM725.274 395.976c-0.644-0.392-1.328-1.128-1.518-1.632-0.211-0.555-0.347-8.893-0.347-21.208 0-22.321-0.076-21.479 2.268-25.782 1.091-2.002 5.602-8.743 7.484-11.174 0.886-1.147 1.24-1.341 2.443-1.341 2.408 0 3.347 1.184 10.212 12.864l2.623 4.459v21.038c0 14.386-0.121 21.265-0.386 21.758-0.823 1.534-2.224 1.733-12.207 1.733-8.762-0.002-9.475-0.050-10.569-0.716zM775.903 396.147c-0.638-0.346-1.146-1.094-1.534-2.263-0.517-1.553-0.563-3.892-0.405-21.011 0.11-12.019 0.32-19.853 0.563-20.83 0.524-2.12 1.804-4.748 3.677-7.547 0.854-1.278 2.46-3.693 3.566-5.362s2.264-3.32 2.57-3.666c0.745-0.833 2.939-0.807 4.342 0.050 1.127 0.688 6.87 9.472 9.343 14.296l1.229 2.396-0.338 20.75c-0.239 14.827-0.458 20.979-0.763 21.55-0.236 0.437-0.941 1.112-1.566 1.492-1.052 0.643-1.848 0.694-10.436 0.68-7.419-0.011-9.491-0.118-10.248-0.53zM57.576 308.001l-2.056-1.060v-31.834l2.515-3.748c1.382-2.063 3.208-4.469 4.051-5.351 1.363-1.424 1.712-1.602 3.11-1.602 1.482 0 1.716 0.149 3.966 2.489 2.668 2.776 4.541 6.173 5.629 10.205 0.617 2.29 0.662 3.618 0.53 15.732-0.086 7.829-0.296 13.693-0.517 14.361-0.55 1.666-1.688 1.908-8.882 1.887-6.26-0.016-6.304-0.022-8.347-1.077zM93.756 308.568c-0.502-0.274-1.094-0.889-1.31-1.37-0.266-0.584-0.426-5.747-0.482-15.665-0.081-14.503-0.067-14.837 0.707-16.834 1.502-3.886 5.755-9.545 7.736-10.3 2.052-0.779 4.792 1.274 7.654 5.738 3.376 5.26 3.377 5.267 3.478 21.442 0.058 9.13-0.042 14.537-0.285 15.291-0.651 2.021-1.542 2.229-9.505 2.214-5.35-0.012-7.304-0.137-7.995-0.511zM130.338 308.727c-0.441-0.175-1.13-0.851-1.525-1.499-0.688-1.115-0.725-1.786-0.763-13.332-0.022-6.685-0.038-13.063-0.034-14.171 0.007-3.406 2.013-7.934 5.404-12.2 2.376-2.992 3.55-3.648 5.543-3.097 2.791 0.769 7.466 7.573 8.609 12.524 0.643 2.786 0.771 27.959 0.154 29.905-0.643 2.025-1.534 2.231-9.5 2.206-3.892-0.013-7.438-0.166-7.88-0.346zM166.316 308.559c-0.514-0.279-1.105-0.958-1.318-1.507-0.5-1.309-0.765-17.631-0.4-24.772 0.303-5.955 0.545-6.979 2.336-10.012 1.416-2.392 5.674-7.569 6.583-7.999 1.112-0.527 2.482 0.085 4.541 2.029 3.335 3.152 4.627 5.512 5.971 10.917 0.806 3.25 0.832 27.571 0.031 29.488-0.967 2.314-1.283 2.393-9.472 2.378-5.639-0.013-7.555-0.13-8.275-0.522zM202.083 308.048l-1.046-1.046-0.005-5.657c-0.005-3.111-0.098-7.267-0.212-9.234-0.312-5.495 0.363-15.344 1.203-17.561 0.798-2.101 3.136-5.495 5.821-8.455 1.418-1.562 2.101-2.052 2.858-2.052 2.038 0 6.57 4.612 8.237 8.375 1.76 3.982 1.902 5.557 1.798 20.21-0.103 14.54-0.176 15.224-1.804 16.094-0.409 0.221-3.748 0.367-8.248 0.367h-7.559zM816.286 308.538c-1.82-0.986-1.86-1.282-2.002-13.951-0.193-17.329 0.214-19.228 5.684-26.388 2.344-3.073 2.747-3.44 3.759-3.44 2.596 0 5.121 2.055 8.221 6.692 2.38 3.565 2.357 3.35 2.309 19.695-0.023 8.122-0.193 15.161-0.376 15.642s-0.86 1.196-1.504 1.589c-1.066 0.652-1.79 0.714-8.141 0.7-5.458-0.011-7.185-0.129-7.946-0.543zM889.78 308.574c-0.625-0.272-1.292-0.792-1.489-1.156-0.214-0.401-0.396-6.737-0.456-16.029l-0.103-15.366 0.931-2.026c1.647-3.577 5.954-8.933 7.754-9.637 2.062-0.806 5.018 1.574 7.818 6.302 2.687 4.532 2.723 4.846 2.615 21.452-0.055 8.113-0.248 14.935-0.429 15.28-0.774 1.453-2.11 1.704-8.963 1.688-4.748-0.011-6.854-0.149-7.677-0.509zM926.050 308.538c-0.535-0.292-1.123-0.808-1.309-1.15-0.185-0.348-0.374-7.44-0.422-16.171l-0.088-15.548 0.905-1.966c1.066-2.308 3.524-5.647 5.701-7.746 2.786-2.683 4.775-2.075 8.376 2.564 1.841 2.371 4.029 7.268 4.397 9.833 0.356 2.514 0.253 27.717-0.121 28.894-0.49 1.539-2.138 1.858-9.551 1.84-5.405-0.013-7.132-0.13-7.892-0.544zM962.606 308.469c-0.687-0.345-1.427-0.995-1.649-1.445-0.581-1.181-0.979-20.318-0.535-25.588 0.409-4.82 0.962-6.593 3.092-9.887 2.777-4.288 4.883-6.602 6.133-6.726 2.507-0.248 4.055 1.172 8.804 8.053l2.028 2.938v31.16l-2.236 1.058c-2.201 1.041-2.32 1.058-8.311 1.058-5.072 0-6.286-0.103-7.324-0.625zM853.171 308.209c-0.502-0.274-1.096-0.895-1.318-1.386-0.602-1.322-0.693-28.475-0.104-30.618 0.992-3.593 4.445-8.981 6.893-10.754 1.697-1.229 3.033-1.332 4.306-0.329 1.211 0.95 4.198 4.73 5.509 6.969 2.134 3.64 2.183 4.072 2.201 19.13 0.016 15.395-0.082 16.24-1.972 17.032-1.669 0.697-14.216 0.669-15.513-0.039zM430.587 266.81c-1.737-0.895-1.786-1.31-1.787-15.637-0.005-15.686-0.185-14.833 4.275-20.021 5.729-6.666 6.26-7.15 7.844-7.15 1.37 0 1.641 0.21 5.683 4.379 2.336 2.407 4.874 5.089 5.643 5.953l1.399 1.571v29.551l-0.814 0.815c-0.806 0.806-0.932 0.815-11.084 0.906-7.789 0.069-10.484-0.018-11.155-0.364zM481.459 266.908c-0.43-0.177-1.076-0.769-1.43-1.31-0.599-0.916-0.637-1.94-0.524-14.411 0.095-10.478 0.232-13.686 0.626-14.625 0.468-1.121 2.715-3.871 6.622-8.096 0.91-0.985 2.173-2.389 2.812-3.127 0.996-1.156 1.364-1.341 2.669-1.341 1.45 0 1.634 0.132 4.343 3.127 1.553 1.722 3.278 3.613 3.829 4.2 1.915 2.055 3.787 5.188 4.010 6.714 0.121 0.832 0.169 7.258 0.111 14.284l-0.111 12.775-1.983 1.983-10.093 0.077c-5.55 0.041-10.445-0.070-10.877-0.248zM532.517 266.772c-1.768-0.995-1.802-1.292-1.813-15.242-0.005-7.673 0.139-13.584 0.346-14.341 0.503-1.814 1.741-3.524 6.25-8.663 3.928-4.473 3.936-4.478 5.54-4.49l1.607-0.013 5.305 5.62c2.918 3.092 5.453 5.891 5.636 6.222 0.521 0.948 0.86 26.632 0.374 28.391-0.789 2.866-0.591 2.817-12.154 2.911-8.057 0.067-10.427-0.017-11.097-0.398zM583.366 266.741c-0.626-0.272-1.327-0.854-1.562-1.296-0.316-0.589-0.413-4.32-0.368-14.063 0.059-12.84 0.086-13.315 0.85-14.963 0.457-0.994 2.803-3.941 5.612-7.054 4.719-5.229 4.86-5.35 6.291-5.358 1.363-0.005 1.652 0.185 4.126 2.765 1.463 1.525 3.423 3.703 4.352 4.846 3.812 4.684 3.836 4.804 3.834 20.326 0 7.43-0.145 12.768-0.36 13.334-0.68 1.786-1.913 1.985-12.241 1.967-7.178-0.012-9.664-0.13-10.531-0.509z"></path>
    </svg>