<svg xmlns="http://www.w3.org/2000/svg" viewBox="-43.009 143.723 1243.821 736.296">
    <path fill="#000000" d="M41.267 721.986l0.152-78.001-0.978-1.991c-0.537-1.093-1.552-2.47-2.254-3.064-1.098-0.922-1.196-1.165-0.713-1.75 0.643-0.772 14.341-11.026 26.476-19.814 4.679-3.388 8.529-6.487 8.948-7.204 0.603-1.030 0.736-2.288 0.736-6.942v-5.683l4.21-0.292v4.315c0 3.172 0.139 4.315 0.526 4.315 0.291-0.001 2.375-1.138 4.635-2.524s4.198-2.524 4.306-2.524c0.111 0 3.136 2.18 6.73 4.842s6.705 4.842 6.916 4.842c0.211 0 0.517-0.771 0.677-1.714 0.22-1.309 0.603-1.906 1.615-2.524 1.747-1.066 2.454-1.021 3.622 0.22 0.841 0.895 0.976 1.497 1.021 4.594 0.049 3.241 0.166 3.73 1.326 5.388 0.75 1.075 3.436 3.433 6.527 5.728 11.517 8.56 18.104 13.82 18.325 14.623 0.128 0.463-0.166 2.074-0.652 3.577-1.282 3.964-1.813 14.090-1.533 29.334 0.232 12.655 0.238 12.714 1.381 15.368 1.005 2.337 1.167 3.343 1.329 8.241l0.184 5.578h5.44c6.685 0 7.674-0.346 9.699-3.42 2.596-3.941 2.542-3.712 2.233-10.194-0.278-5.804-0.259-6.004 0.704-7.401 0.544-0.787 1.525-1.831 2.182-2.317 1.164-0.859 1.203-0.861 1.775-0.085 0.319 0.436 0.661 1.005 0.76 1.264s0.721-0.15 1.381-0.904l1.205-1.372 2.722 2.326c1.498 1.28 2.911 2.263 3.141 2.185 0.436-0.147 1.759-3.082 4.112-9.132l1.39-3.577 26.48-0.42-0.103-2.524c-0.058-1.39-0.283-4.612-0.499-7.159-0.607-7.090-0.562-7.665 0.622-8.44 0.76-0.499 1.516-0.598 2.947-0.382l1.921 0.289v17.897l1.788 0.238c2.324 0.31 3.856 2.002 4.746 5.23 1.707 6.207 2.89 7.692 6.136 7.692 0.911 0 1.776 0.294 2.167 0.739 0.76 0.858 5.539 8.772 8.52 14.108 1.129 2.029 2.542 4.018 3.138 4.422 0.975 0.661 2.668 0.748 16.965 0.859l15.881 0.123 0.424 1.573c0.232 0.867 0.786 3.271 1.227 5.35 0.951 4.485 2.81 12.96 3.541 16.16 0.571 2.506 0.814 2.671 4.63 3.186 1.19 0.159 2.478 0.672 3.157 1.258 1.11 0.952 1.156 1.156 1.282 5.764 0.16 5.772 0.206 5.827 4.738 5.827 2.497 0 3.37-0.157 3.813-0.697 0.463-0.553 0.607-3.847 0.715-16.313 0.076-8.592 0.013-16.457-0.139-17.477-0.328-2.218-2.119-4.247-3.75-4.247-1.327 0-1.336-0.258-0.223-5.26 0.463-2.083 1.511-6.916 2.326-10.736s2.263-10.546 3.208-14.945c0.949-4.399 1.846-8.568 1.993-9.264l0.272-1.264 25.756-0.22 0.283-2.9c0.157-1.596 0.157-4.297 0.004-6.007-0.379-4.18-0.166-4.344 5.602-4.344 5.67 0 5.584-0.103 5.584 6.792 0 4.855 0.056 5.197 0.936 5.814 0.823 0.578 4.216 0.654 28.329 0.654s27.501-0.076 28.329-0.654l0.936-0.654v-23.779c0-26.44 0.184-24.622-3.001-29.517l-1.696-2.607 5.044-11.919c2.776-6.556 5.647-13.383 6.385-15.174 0.841-2.038 1.831-3.667 2.648-4.354 1.177-0.992 1.597-1.084 4.279-0.976 1.633 0.067 3.712 0.085 4.612 0.040l1.642-0.080-0.256-4.945c-0.139-2.722-0.37-5.332-0.508-5.805-0.159-0.544 0.076-1.276 0.643-2.001 0.895-1.138 0.922-1.141 6.322-1.141 7.827 0 8.601 0.553 7.377 5.251-0.358 1.377-0.652 3.791-0.652 5.362v2.857h24.424v-6.538c0-5.665 0.094-6.574 0.688-6.803 0.38-0.147 0.994-0.072 1.369 0.165 0.564 0.355 0.697 1.461 0.796 6.565l0.116 6.139 2.333 0.679c3.406 0.989 4.783 0.368 6.79-3.064 1.948-3.325 2.56-3.458 16.007-3.458 13.16 0 13.173 0.004 14.066 2.987 0.598 1.993 2.488 3.739 4.075 3.766 5.767 0.099 8.152 0.355 9.114 0.985 1.363 0.895 2.272 2.771 9.036 18.614l5.586 13.092-1.921 2.807c-2.377 3.469-2.979 5.557-2.571 8.898 0.168 1.39 0.277 4.189 0.24 6.214l-0.067 3.685h1.926c1.483 0 2.164 0.238 2.959 1.032 1.147 1.147 1.182 1.408 0.63 5.217-0.233 1.615-0.234 3.073 0 3.685 0.382 1.007 0.409 1.012 6.88 1.012h6.497l0.328-4.106c0.634-7.953 0.444-14.288-0.58-18.968-1.060-4.846-0.972-6.097 1.003-14.056 0.555-2.243 1.012-4.549 1.012-5.125 0-0.634 0.44-1.399 1.111-1.921 1.066-0.839 1.6-0.872 13.628-0.872 11.99 0 12.564 0.037 13.617 0.865 1.213 0.955 1.444 1.669 3.265 9.994 1.539 7.042 1.575 7.899 0.418 9.843-0.891 1.496-0.913 1.876-0.796 12.273 0.139 12.008 0.063 11.697 3.37 13.389 1.356 0.692 2.533 0.796 8.948 0.796h7.384v-6.527c0-6.105 0.049-6.527 0.789-6.527 1.453 0 1.707 0.976 1.83 6.976l0.118 5.865 6.622 0.211c6.385 0.202 6.659 0.247 7.632 1.264 1.056 1.102 15.85 34.466 15.85 35.745 0 0.22-1.612 1.408-3.581 2.643l-3.581 2.245 0.216 37.475 1.264 0.141c1.588 0.179 2.173 0.663 3.19 2.654 0.634 1.243 0.812 2.47 0.812 5.62 0 3.442 0.107 4.072 0.736 4.333 0.405 0.166 2.839 0.301 5.409 0.301 6.79 0 7.069-0.361 7.818-10.185 0.526-6.925 0.544-6.673-1.102-15.664-0.575-3.136-0.58-3.982-0.031-7.579 0.337-2.227 1.281-6.385 2.092-9.24 1.795-6.304 3.024-11.913 7.647-34.809 2.396-11.869 3.82-18.032 4.333-18.734 1.105-1.52 3.535-2.222 6.79-1.96 3.793 0.303 6.709-0.229 7.661-1.402 0.894-1.102 1.921-4.508 3.49-11.583 0.616-2.776 1.216-5.386 1.327-5.791 0.189-0.67 0.976-0.736 8.81-0.736h8.602v-19.787h19.368v19.368h20.078l-0.040-5.449c-0.026-3.644 0.121-5.611 0.454-5.944 0.742-0.747 3.883-1.233 6.159-0.951 1.705 0.211 2.119 0.445 2.679 1.528 0.715 1.385 0.907 5.96 0.378 9.028l-0.31 1.788h2.083c2.776 0 4.105 1.057 4.914 3.921 0.337 1.201 1.561 6.729 2.722 12.291s2.783 13.232 3.613 17.051c0.832 3.82 1.885 8.747 2.344 10.95 0.821 3.937 1.696 6.961 2.755 9.501l0.535 1.291 3.712-0.526c5.341-0.759 7.908-0.724 8.601 0.103 0.368 0.445 0.526 1.533 0.45 3.088-0.085 1.723 0.058 2.549 0.505 2.92 0.476 0.395 4.594 0.487 17.453 0.385 19.076-0.148 17.715 0.112 19.685-3.775 1.165-2.299 2.812-3.725 4.299-3.725 0.7 0 1.597-0.58 2.644-1.714l1.585-1.714 0.697 1.467c1.309 2.758 4.821 3.085 7.387 0.688 1.336-1.246 1.336-1.258 1.089-4.513-0.138-1.795-0.301-3.919-0.361-4.726-0.157-2.096 1.264-2.693 6.334-2.65 5.665 0.046 5.602-0.040 5.266 7.363l-0.265 5.872 5.296-0.139c4.972-0.13 5.368-0.204 6.421-1.192 0.616-0.58 1.3-1.381 1.516-1.785 1.174-2.176 1.344-17.234 0.238-21.146-0.971-3.438-0.888-6.974 0.294-12.78 0.553-2.704 1.129-5.8 1.282-6.871 0.481-3.378-0.043-3.262 15.557-3.397l13.811-0.121 0.994-1.158c0.548-0.637 1.12-1.867 1.264-2.737 0.79-4.634 2.362-10.041 3.144-10.824 0.814-0.814 1.435-0.866 12.21-0.985l11.351-0.124-0.53-6.277h3.181l-0.58 5.894h16.034l0.229-15.791h5.053l0.229 16.211h4.812c5.089 0 6.574 0.373 7.333 1.836 0.256 0.496 1.228 4.556 2.155 9.024s2.632 12.561 3.787 17.991c1.156 5.43 2.101 10.413 2.101 11.076 0 1.218-0.838 2.245-2.227 2.74-1.882 0.67-1.995 2.038-1.879 22.489l0.111 19.265 2.787 0.121c3.363 0.148 3.303 0.265 3.31-6.28 0.007-5.894 0.272-7.186 1.431-7.023 0.859 0.121 0.895 0.373 1.005 6.709l0.115 6.583 2.281 0.283c1.255 0.157 4.058 0.156 6.232-0.004l3.95-0.292 1.483 1.3c1.246 1.093 2.448 3.557 7.548 15.472 3.847 8.988 6.538 14.716 7.357 15.665 1.165 1.347 1.543 1.515 3.865 1.68 2.332 0.166 2.676 0.085 3.658-0.898 1.065-1.065 1.079-1.167 0.814-5.251-0.254-3.865-0.211-4.232 0.607-5.047 0.503-0.503 1.975-1.106 3.433-1.408 3.849-0.796 4.399-1.583 4.585-6.574 0.192-5.197-0.282-6.67-3.109-9.726-1.264-1.367-2.299-2.614-2.299-2.767 0-0.445 3.352-5.296 5.107-7.393 2.893-3.46 3.046-4.153 3.298-15.017 0.123-5.367 0.346-9.875 0.49-10.021s0.399 0.265 0.562 0.913c0.42 1.678 1.003 2.233 2.36 2.233 1.363 0 1.696-0.398 2.308-2.736 0.541-2.065 1.108-2.037 1.663 0.084 0.593 2.257 0.939 2.652 2.308 2.652 1.579 0 2.532-0.998 2.533-2.659 0.004-1.129 0.279-1.497 1.768-2.344 8.16-4.662 13.182-16.156 11.143-25.522l-0.643-2.947 1.129-1.547c0.62-0.85 6.529-7.62 13.128-15.044l12.003-13.496 36.843-0.020v-15.998h7.611l-0.108 15.791 1.92 0.129c2.213 0.148 1.741-0.903 4.299 9.51l1.645 6.689 4.63-0.274c3.613-0.214 4.747-0.429 5.158-0.978 0.778-1.039 0.636-3.091-0.319-4.657-0.463-0.76-0.841-1.435-0.841-1.507 0-0.258 4.657-0.308 5.069-0.051 0.254 0.157-0.004 0.778-0.634 1.525-1.858 2.208-1.444 3.368 2.752 7.728 1.336 1.39 4.162 4.612 6.271 7.159l3.838 4.63-1.687 0.238c-1.747 0.247-2.915 1.060-4.297 2.997-0.787 1.102-0.805 3.127-0.793 87.053l0.013 85.924h-1072.947l0.152-78.001zM275.81 720.603c-1.93-0.301-3.577-0.616-3.667-0.706s-1.131-4.981-2.325-10.878c-1.192-5.897-2.416-11.324-2.722-12.061-1.129-2.731-1.675-2.815-18.219-2.884-14.144-0.058-14.913-0.101-15.986-0.901-0.618-0.463-2.65-3.382-4.513-6.491-5.701-9.504-7.523-11.967-9.598-12.973-1.011-0.49-2.029-0.886-2.27-0.886-0.832 0-1.783-1.501-2.236-3.532-0.553-2.461-0.847-3.075-3.1-6.457-1.107-1.66-2.043-2.623-2.548-2.632-0.76-0.010-0.784-0.299-0.508-5.8 0.373-7.476 0.603-8.151 3.424-10.027 2.974-1.975 6.489-5.812 8.646-9.44 2.356-3.966 9.331-19.679 10.736-24.182 1.057-3.388 1.12-4.027 0.904-8.79-0.202-4.456-0.499-6.061-2.227-12.084-1.948-6.79-1.993-7.083-2.032-13.054-0.035-5.602 0.040-6.268 0.949-8.091 0.544-1.093 1.705-2.803 2.581-3.797 1.857-2.11 9.672-7.683 13.132-9.366 2.926-1.425 5.043-3.597 5.971-6.133 0.386-1.056 1.411-2.587 2.279-3.403 1.934-1.822 6.826-4.827 11.049-6.78 6.376-2.95 10.59-7.006 14.913-14.351 2.983-5.071 4.948-7.249 10.221-11.319 6.538-5.047 8.053-7.447 13.38-21.182 2.83-7.303 10.536-25.99 21.263-51.575 3.739-8.916 6.905-17.003 7.037-17.978 0.196-1.435 0.031-2.133-0.877-3.682-2.011-3.433-2.342-3.388-6.727 0.908-2.11 2.070-6.162 5.8-9.002 8.286-7.755 6.793-11.526 11.373-15.75 19.114-0.454 0.832-1.524 1.669-3.046 2.394-1.597 0.755-3.055 1.929-4.563 3.663-4.751 5.476-6.537 7.261-9.475 9.479-3.73 2.812-6.671 6.052-8.569 9.442-2.155 3.851-3.429 5.143-7.665 7.788-10.668 6.655-18.070 12.378-23.983 18.536-4.049 4.218-23.165 18.752-35.547 27.024-5.418 3.621-11.076 8.583-15.422 13.523-2.040 2.32-5.377 5.989-7.411 8.151-4.094 4.351-6.934 8.394-13.092 18.617-7.908 13.138-9.177 15.695-10.311 20.831-1.043 4.72-1.489 5.944-2.659 7.281-0.724 0.83-1.198 4.619-2.416 19.346-0.709 8.574-1.039 10.563-1.66 9.942-0.193-0.193-4.018-15.092-5.905-23.011-0.533-2.232-1.912-0.927-10.398 9.816-4.57 5.791-8.745 11.045-9.267 11.679l-0.958 1.151-5.053-3.811c-7.476-5.645-6.896-4.774-8.053-12.027-0.55-3.44-0.885-6.82-0.742-7.516 0.328-1.606-0.103-1.048 24.631-32.033 11.488-14.39 22.078-27.851 23.536-29.908 3.928-5.548 8.682-10.869 13.559-15.179 5.444-4.81 4.945-4.405 16.756-13.63 13.344-10.419 25.963-20.282 32.842-25.675 19.571-15.341 29.528-22.975 34.527-26.465 9.96-6.956 10.818-7.737 22.738-20.714 2.662-2.901 13.169-14.075 23.344-24.838s20.693-21.983 23.371-24.946c3.127-3.46 5.101-5.323 5.529-5.215 0.364 0.092 5.764 3.055 12.003 6.592s15.791 8.943 21.233 12.015c5.44 3.073 15.097 8.547 21.452 12.156 7.368 4.189 11.985 6.57 12.742 6.57 0.764 0 1.694-0.486 2.614-1.369 1.851-1.777 30.552-42.019 38.015-53.303 15.476-23.407 14.963-22.804 59.919-70.371 19.634-20.777 30.297-32.217 45.142-48.439 16.045-17.536 19.589-21.299 19.787-21.043 0.088 0.115 2.353 2.767 5.026 5.894s6.918 8.43 9.429 11.789c2.511 3.358 6.48 8.475 8.819 11.369 12.435 15.385 22.987 28.709 24.508 30.948 0.944 1.39 4.318 5.557 7.499 9.264s7.255 8.821 9.058 11.369c6.502 9.195 10.635 13.29 25.36 25.151 4.967 4 12.895 10.504 17.618 14.453 8.217 6.871 11.814 9.825 27.265 22.381 3.786 3.078 7.105 5.581 7.366 5.561s7.208-7.312 15.431-16.209c8.223-8.898 15.076-16.176 15.233-16.177s2.407 3.55 5.007 7.894c2.596 4.342 12.426 20.777 21.848 36.528s21.472 35.916 26.782 44.818c6.491 10.879 10.401 16.992 11.925 18.644 2.677 2.902 10.957 8.691 52.677 36.822 33.153 22.352 50.506 33.855 51.721 34.278 0.783 0.274 1.564 0.271 2.296-0.007 1.038-0.393 8.934-7.231 15.656-13.55 3.339-3.139 4.479-3.862 5.494-3.469 0.388 0.148 6.403 6.922 13.371 15.053 27.366 31.938 59.642 68.665 69.939 79.578 6.392 6.772 6.988 7.575 6.991 9.38 0.004 3.232-5.408 11.261-8.727 12.939l-1.361 0.688-1.696-3.37c-0.931-1.855-2.263-4.795-2.953-6.538-1.921-4.837-2.974-6.222-10.099-13.263-3.631-3.588-7.258-7.285-8.062-8.212s-2.371-2.425-3.487-3.332c-3.052-2.479-6.34-5.944-9.42-9.933-4.828-6.249-7.755-9.78-11.706-14.134-3.667-4.036-6.154-7.258-15.89-20.561-8.28-11.319-14.393-19.346-14.846-19.493-0.565-0.184-1.858 5.467-1.858 8.135 0 2.505 1.35 9.078 2.895 14.099 2.11 6.855 7.033 19.025 8.809 21.772 2.389 3.694 3.955 7.692 5.971 15.233 2.826 10.572 4.036 13.523 8.16 19.871 4.147 6.388 5.87 10.464 6.601 15.629 0.327 2.298 0.83 3.679 2.11 5.8 1.948 3.226 2.502 4.891 2.497 7.535-0.004 2.596-0.381 3.842-4.519 14.95-2.785 7.47-3.937 10.059-5.058 11.31-1.831 2.056-2.425 3.496-3.019 7.357-0.766 4.985-2.407 7.474-5.233 7.932-1.318 0.211-1.896-0.015-4.45-1.759-2.281-1.561-3.415-2.054-5.062-2.209l-2.128-0.202v-17.883l1.903-0.724c2.899-1.107 3.325-2.253 2.56-6.862-0.958-5.758-4.738-25.572-5.71-29.94-2.839-12.723-3.82-14.504-8.25-14.981-1.377-0.148-3.405-0.373-4.504-0.499l-2.001-0.229-0.004-5.749c-0.004-6.871-0.403-8.655-2.191-9.744-1.984-1.209-7.042-1.558-9.413-0.652-3.064 1.17-3.707 2.857-3.896 10.194l-0.154 5.971-1.631 0.274c-0.895 0.15-1.786 0.175-1.984 0.058s-0.4-1.014-0.456-1.991c-0.238-4.063-2.193-5.44-7.707-5.438-6.223 0.004-7.764 0.895-8.574 4.961l-0.481 2.407-8.039 0.112c-7.849 0.112-8.062 0.093-9.087-0.841-1.012-0.922-9.771-17.633-21.362-40.746-3.077-6.136-7.222-15.118-9.207-19.958-4.107-10.005-4.745-10.872-7.231-9.807-1.93 0.827-3.244 2.317-8.792 9.978-6.334 8.746-9.249 13.75-15.602 26.8-2.947 6.055-6.034 12.025-6.859 13.263s-3.426 4.335-5.785 6.882c-4.108 4.434-4.434 4.936-7.764 11.789-3.648 7.514-6.682 15.301-6.448 16.535 0.202 1.069 5.656 5.020 8.34 6.043 1.273 0.484 3.829 1.155 5.683 1.488 5.899 1.057 7.525 1.489 9.876 2.623 2.938 1.414 6.643 4.841 9.189 8.502 1.102 1.579 3.286 3.987 4.855 5.346 7.018 6.070 10.482 12.628 11.454 21.677l0.303 2.841h-1.951c-1.887 0-1.942-0.035-1.678-1.086 0.148-0.598 0.295-2.478 0.324-4.175 0.058-3.532-0.646-4.929-3.136-6.223-1.252-0.652-2.407-0.733-8.678-0.633-9.186 0.148-9.483 0.328-11.076 6.538l-0.459 1.788h-6.786l-2.956 2.841c-1.624 1.561-3.823 3.98-4.886 5.368-2.371 3.1-2.433 3.145-4.438 3.152-1.385 0.004-1.579-0.103-1.313-0.731 0.785-1.858 1.061-5.454 0.634-8.214-0.454-2.946-3.378-11.456-4.585-13.362-0.367-0.58-2.947-3.489-5.733-6.466s-6.97-8.089-9.303-11.369c-3.219-4.527-4.537-6.052-5.475-6.331-2.959-0.894-3.971-1.966-3.971-4.218 0-0.913-0.198-0.985-3.304-1.201-5.251-0.36-6.853-1.669-6.213-5.080 0.259-1.387 0.922-2.461 7.194-11.655 3.721-5.458 5.764-9.571 6.568-13.221 0.477-2.164 1.147-3.253 5.179-8.421 7.326-9.393 8.010-10.752 8.446-16.79 0.274-3.847 0.544-4.441 6.745-14.765 2.425-4.036 5.386-9.303 6.583-11.702s3.226-5.854 4.506-7.681c2.681-3.826 3.406-5.584 3.433-8.319 0.013-1.633 0.283-2.277 1.651-3.93 0.898-1.086 2.146-2.992 2.776-4.234 0.988-1.956 1.149-2.809 1.21-6.385 0.089-5.539-0.139-6.18-2.785-7.873-3.352-2.144-18.693-7.663-23.974-8.623-4.69-0.854-8.76-3.883-10.686-7.956-0.882-1.866-1.268-3.757-1.903-9.322-2.251-19.793-1.93-18.005-3.946-22.141-2.020-4.144-3.595-9.782-4.645-16.631-1.425-9.285-2.857-14.972-6.896-27.387-2.294-7.051-4.592-14.621-5.103-16.824-1.84-7.896-5.296-19.384-5.825-19.346-0.156 0.013-2.554 2.704-5.332 5.989-10.806 12.764-18.493 21.452-24.757 27.978-8.349 8.7-11.382 13.263-16.304 24.541-0.76 1.737-3.739 8.086-6.628 14.106-8.148 16.988-9.681 20.516-12.354 28.378-1.968 5.8-2.382 7.449-1.989 7.926 1.062 1.281 3.667 2.222 6.147 2.222 2.839 0 6.549-1.628 14.619-6.411 5.971-3.54 8.968-5.039 9.742-4.877 0.418 0.085-1.501 2.98-5.845 8.817-7.674 10.302-9.016 11.958-14 17.206-2.556 2.693-4.941 5.818-7.294 9.573-2.564 4.085-4.549 6.641-7.449 9.591-2.173 2.209-5.614 6.241-7.647 8.956s-7.213 9.483-11.523 15.044c-4.306 5.557-9.879 12.759-12.39 15.998-3.539 4.576-5.116 7.069-7.068 11.157-4.798 10.059-6.169 14.296-7.647 23.65-0.388 2.448-1.509 6.474-2.82 10.104-4.423 12.282-5.584 17.195-6.25 26.458-0.243 3.379-0.908 8.169-1.489 10.73-0.58 2.542-1.053 4.675-1.053 4.738s-0.265 0.112-0.585 0.112c-0.547 0-2.362-3.244-2.362-4.225 0-0.246-0.463-0.91-1.032-1.48-0.994-0.994-1.243-1.032-6.736-1.032h-5.701l-0.024-3.685c-0.037-5.364-0.503-7.669-1.777-8.763-2.245-1.932-8.034-1.779-10.084 0.265-1.155 1.155-1.168 1.237-1.168 6.466v5.296h-9.979l-0.283-6.211c-0.292-6.437 0.091-9.335 1.633-12.318 0.835-1.615 0.796-3.163-0.238-9.571-1.075-6.666-2.719-13.427-3.577-14.74-0.355-0.544-1.678-1.786-2.94-2.76s-2.29-1.957-2.29-2.191c0-0.229 0.489-3.169 1.083-6.527 0.627-3.55 1.223-9.010 1.424-13.054 0.265-5.377 0.553-7.566 1.27-9.684 0.976-2.884 3.316-7.074 4.495-8.052 1.273-1.057 1.876-3.334 3.748-14.216 2.983-17.312 3.49-21.158 4.184-31.837 1.426-22.005 2.17-27.747 4.212-32.64 1.453-3.48 1.984-8.835 0.872-8.835-1.264 0-14.963 3.787-17.792 4.918-1.813 0.724-3.595 1.885-5.251 3.419-2.085 1.93-2.861 2.377-4.627 2.656-2.947 0.463-5.692 2.37-9.519 6.592-1.795 1.982-5.989 5.953-9.321 8.829-5.033 4.342-6.151 5.133-6.619 4.666s-0.382-1.044 0.481-3.424c1.372-3.775 1.56-4.133 7.477-14.158 2.794-4.732 6.078-10.797 7.294-13.474s3.823-8.030 5.791-11.895c3.919-7.697 5.008-10.81 5.929-16.94 0.643-4.27 0.859-4.72 4.314-8.994 3.202-3.957 3.244-4.108 3.5-12.516l0.229-7.579 1.822-5.053c2.884-7.999 4.609-13.775 6.42-21.473 1.651-7.027 1.689-7.366 2.059-18.527 0.207-6.25 0.584-14.844 0.839-19.090l0.463-7.721-1.279-3.073c-1.541-3.699-2.623-9.339-4.009-20.853-1.003-8.35-1.849-13.257-4.48-26.074-1.291-6.295-3.226-10.911-4.31-10.277-5.484 3.199-10.69 7.123-14.931 11.247-13.038 12.669-23.281 23.452-27.054 28.476-8.133 10.824-21.124 24.658-30.624 32.604-2.983 2.497-4.013 3.739-7.139 8.629-2.010 3.143-7.042 11.022-11.185 17.501s-7.828 12.358-8.19 13.054c-0.362 0.696-4.009 5.62-8.106 10.95-20.714 26.935-20.507 26.647-23.367 32.478-3.14 6.408-6.317 11.293-11.189 17.207-1.907 2.317-3.651 4.449-3.877 4.738-0.238 0.305-0.562 8.097-0.769 18.527-0.247 12.343-0.562 19.39-1.012 22.42-0.994 6.739-1.219 17.121-0.652 29.921 0.481 10.883 0.271 19.205-0.634 24.712-0.463 2.839-1.282 1.462-2.254-3.79-3.53-19.112-6.462-34.071-7.006-35.722-1.123-3.424-3.361-4.999-5.901-4.162-2.326 0.769-6.817 5.962-9.609 11.114-3.442 6.357-7.588 12.435-11.521 16.889-11.616 13.146-14.673 17.258-20.336 27.357-5.514 9.828-10.986 17.807-19.882 28.998-6.529 8.214-10.767 15.276-13.705 22.841-2.459 6.326-14.213 25.813-18.311 30.354-1.714 1.903-3.816 4.783-4.666 6.4-1.563 2.974-3.208 8.43-3.208 10.644 0 1.329-0.15 1.419-3.050 1.808-2.353 0.316-4.195 1.702-5.404 4.072-0.823 1.612-2.178 7.78-6.997 31.833-2.65 13.218-2.65 13.676-0.12 14.931 2.875 1.426 2.943 1.653 2.943 10.266 0 5.938-0.121 7.732-0.526 7.694-0.291-0.026-2.104-0.292-4.036-0.598zM520.617 627.703c-1.21-3.946-2.71-7.348-3.811-8.646-2.893-3.4-2.857-3.775 0.638-7.051l2.191-2.047 0.996 1.646c1.721 2.839 1.93 4.083 1.745 10.401-0.148 5.184-0.267 5.998-0.882 6.115-0.391 0.076-0.786-0.112-0.877-0.42zM673.211 586.913c0-0.241 0.463-0.904 1.032-1.471 0.958-0.958 1.372-1.039 5.791-1.138 6.952-0.155 11.337 0.049 12.669 0.589 1.021 0.413 1.984 1.489 1.984 2.227 0 0.13-4.83 0.238-10.736 0.238-7.186 0-10.736-0.147-10.736-0.44zM1078.263 574.082c0-0.121 0.949-2.11 2.11-4.422 1.474-2.938 2.334-4.203 2.852-4.203s1.345 1.21 2.731 4.006c1.093 2.2 1.99 4.191 1.99 4.422 0 0.247-1.939 0.417-4.842 0.417-2.662 0-4.842-0.098-4.842-0.22z"></path>
    </svg>