<svg xmlns="http://www.w3.org/2000/svg" viewBox="-70.929 -17.915 1182.831 1057.930">
    <path fill="#000000" d="M156.434 959.384l-0.884-0.619v-25.273c0-19.129 0.116-25.389 0.476-25.749 0.693-0.693 247.344-0.693 248.036 0 0.597 0.597 0.682 50.521 0.088 51.463-0.332 0.525-14.573 0.607-123.604 0.695-111.154 0.091-123.315 0.040-124.112-0.518zM225.783 948.537l0.936-0.758v-12.64c0-15.752 0.35-14.787-5.362-14.787-5.984 0-5.541-1.167-5.541 14.641 0 11.34 0.082 13.138 0.623 13.679 0.483 0.483 1.505 0.623 4.515 0.623 3.241 0 4.049-0.127 4.828-0.758zM325.083 948.46c0.694-0.767 0.765-1.664 0.882-11.201 0.135-11.137-0.075-14.828-0.908-15.968-0.411-0.561-1.201-0.756-3.544-0.875-1.659-0.084-3.652-0.034-4.431 0.113-2.34 0.44-2.441 1.080-2.389 15.217 0.042 11.81 0.082 12.45 0.814 12.985 0.545 0.399 1.944 0.563 4.795 0.563 3.588 0 4.109-0.091 4.781-0.833zM416.532 959.398l-0.892-0.634v-77.063c0-67.763 0.072-77.135 0.592-77.655 0.329-0.329 1.77-0.718 3.241-0.875 2.933-0.315 12.628-0.021 13.701 0.415 0.375 0.152 0.783 0.84 0.906 1.528s0.173 35.541 0.11 77.454c-0.091 61.81-0.21 76.3-0.627 76.718-0.379 0.38-2.573 0.546-8.325 0.631-6.646 0.098-7.945 0.021-8.703-0.518zM679.077 959.436c-0.757-0.553-0.77-1.799-0.77-77.695 0-72.25 0.043-77.175 0.679-77.811 0.593-0.593 1.666-0.68 8.465-0.702 7.704-0.023 7.795-0.013 8.54 0.906 0.734 0.905 0.752 2.885 0.752 77.604 0 76.146-0.007 76.68-0.792 77.468-0.738 0.738-1.322 0.792-8.449 0.792-5.985 0-7.823-0.122-8.425-0.563zM709.431 959.725c-1.587-0.567-1.586-0.564-1.586-26.192 0-16.289 0.14-24.992 0.411-25.497 0.404-0.756 2.218-0.766 124.048-0.766 114.515 0 123.679 0.049 124.183 0.655 0.449 0.54 0.544 5.072 0.544 25.803 0 24.436-0.021 25.164-0.77 25.711-0.661 0.483-18.086 0.558-123.502 0.532-67.503-0.018-123-0.127-123.328-0.245zM796.891 948.459c0.71-0.785 0.755-1.605 0.755-13.713v-12.879l-0.936-0.758c-0.765-0.62-1.582-0.758-4.478-0.758-3.232 0-3.628 0.085-4.515 0.973l-0.973 0.973v12.875c0 11.177 0.082 12.957 0.623 13.499 0.485 0.485 1.521 0.623 4.697 0.623 3.638 0 4.153-0.090 4.828-0.834zM895.945 948.671c0.343-0.343 0.624-0.922 0.627-1.289 0.005-0.366 0.095-5.304 0.207-10.974s0.091-11.237-0.048-12.374c-0.394-3.244-0.696-3.465-4.99-3.619-3.309-0.119-3.816-0.043-4.79 0.722l-1.089 0.857v13.234c0 12.186 0.055 13.265 0.693 13.638 0.382 0.222 2.51 0.41 4.729 0.416 3.152 0.008 4.172-0.124 4.658-0.61zM446.887 958.792c-1.72-0.408-1.926-1.567-1.813-10.179 0.092-7.078 0.189-8.099 0.813-8.723 0.659-0.659 2.197-0.715 22.356-0.817 18.998-0.095 21.763-0.035 22.586 0.505l0.937 0.614v8.638c0 6.294-0.134 8.815-0.496 9.295-0.449 0.595-2.51 0.668-21.985 0.77-11.819 0.062-21.898 0.015-22.398-0.105zM504.294 958.69c-0.53-0.176-1.085-0.623-1.233-0.994-0.472-1.183-0.204-152.034 0.271-152.607 0.643-0.775 16.134-0.727 17.199 0.052 0.757 0.553 0.77 1.788 0.77 76.506 0 66.985-0.070 76.012-0.595 76.517-0.465 0.448-2.219 0.604-8.021 0.71-4.084 0.076-7.861-0.007-8.392-0.185zM534.29 958.882c-1.888-0.269-2.085-1.212-2.079-9.974 0.005-4.476 0.137-8.336 0.298-8.575 0.851-1.275 2.066-1.348 22.379-1.348 17.783 0 20.468 0.077 21.238 0.617 0.866 0.607 0.881 0.771 0.881 9.467 0 6.713-0.122 8.952-0.509 9.272-0.465 0.385-39.755 0.889-42.209 0.539zM619.558 958.885c-1.771-0.252-1.873-0.821-1.762-9.704 0.058-4.604 0.273-8.686 0.478-9.068s0.95-0.802 1.657-0.93c0.707-0.128 11.423-0.18 23.816-0.117 21.776 0.113 22.551 0.143 23.094 0.887 0.443 0.608 0.563 2.544 0.563 9.191 0 9.062-0.133 9.672-2.109 9.662-0.475-0.005-10.766 0.042-22.869 0.099s-22.393 0.049-22.869-0.020zM588.585 958.335c-0.367-0.367-0.476-17.84-0.476-76.234 0-67.925 0.063-75.849 0.617-76.64 0.604-0.861 0.797-0.881 8.701-0.881s8.097 0.020 8.701 0.881c0.553 0.791 0.617 8.675 0.617 76.234s-0.063 75.443-0.617 76.234c-0.604 0.862-0.791 0.881-8.841 0.881-5.868 0-8.361-0.136-8.701-0.476zM446.114 927.127l-0.936-0.758-0.113-33.241c-0.127-37.339 0.12-44.769 1.643-49.231 2.121-6.221 6.337-11.021 12.221-13.911 10.455-5.139 20.755-3.91 28.885 3.447 4.319 3.909 3.932-0.903 3.942 49.087l0.008 43.643-1.835 1.724h-21.44c-20.517 0-21.48-0.033-22.376-0.758zM533.171 926.905l-0.98-0.98 0.106-41.167 0.105-41.167 1.553-3.143c1.153-2.331 2.331-3.921 4.572-6.162 9.733-9.733 25.391-9.905 34.928-0.383 1.793 1.79 2.743 3.097 3.073 4.223 0.358 1.226 0.477 12.364 0.477 44.902 0 42.74-0.008 43.28-0.792 44.063-0.773 0.773-1.322 0.792-21.427 0.792h-20.635zM618.809 926.971l-1.062-0.914 0.071-39.925c0.060-33.607 0.162-40.285 0.651-42.203 2.030-7.959 8.235-14.069 16.452-16.203 3.378-0.876 9.681-0.886 13.055-0.018 7.009 1.802 13.121 6.696 16.191 12.964 3.22 6.575 3.007 3.41 3.143 46.857 0.119 38.503 0.116 38.747-0.685 39.548-0.791 0.791-1.211 0.805-23.779 0.805h-22.974l-1.062-0.914zM157.872 895.846c-0.577-0.066-1.379-0.487-1.785-0.933-0.712-0.788-0.732-3.743-0.609-94.835 0.068-51.712 0.217-94.513 0.329-95.112s0.442-1.090 0.735-1.090c0.966 0 34.865 20.631 36.18 22.020 0.795 0.84 1.295 1.78 1.306 2.457 0.009 0.603 0.054 5.259 0.099 10.35 0.081 9.201 0.088 9.258 1.017 10.011 0.9 0.729 1.911 0.758 26.087 0.758h25.151l2.028-2.028-0.206-38.732c-0.169-31.667-0.319-39.672-0.825-43.886-0.791-6.584-0.79-9.315 0.007-13.986 0.519-3.044 0.56-4.28 0.213-6.378-0.753-4.544-2.408-5.845-8.183-6.437-2.093-0.215-4.279-0.569-4.858-0.79s-2.497-1.785-4.261-3.479c-1.765-1.694-4.338-3.847-5.719-4.785-3.403-2.311-9.819-5.319-13.913-6.524l-3.369-0.991 561.592-0.042 0.64 0.977c0.567 0.864 0.621 2.486 0.469 13.976-0.188 14.132-0.313 15.078-2.687 20.334-0.64 1.418-1.341 3.381-1.559 4.361-0.246 1.118-0.398 17.704-0.403 44.457-0.008 39.217 0.044 42.716 0.646 43.216 0.54 0.449 5.125 0.544 26.154 0.544 23.95 0 25.541-0.043 26.205-0.707 0.652-0.652 0.71-1.844 0.741-15.265 0.038-17.136 0.357-19.852 3.95-33.786 3.029-11.743 4.193-14.759 8.462-21.909 10.197-17.081 20.294-30.436 31.318-41.419 5.201-5.183 13.727-12.448 16.107-13.727l1.586-0.852 37.709-0.106c34.851-0.099 37.751-0.057 38.26 0.556 0.82 0.989 0.828 272.069 0.007 273.060-0.504 0.608-9.653 0.655-124.117 0.655-95.585 0-123.682-0.107-124.048-0.476-0.366-0.366-0.476-13.972-0.476-58.829 0-53.789 0.051-58.395 0.655-58.897 0.539-0.447 6.111-0.58 31.189-0.742 22.458-0.147 30.574-0.318 30.685-0.652 0.083-0.25-0.348-0.799-0.959-1.219-1.015-0.698-32.869-16.191-74.854-36.402-9.159-4.409-17.985-8.669-19.617-9.465-2.945-1.438-4.809-2.879-5.693-4.399-0.335-0.576-0.523-9.37-0.683-32.115-0.203-28.509-0.286-31.535-0.93-33.701-2.547-8.565-8.684-15.191-17.171-18.537-2.643-1.043-3.747-1.243-7.658-1.397-5.495-0.216-8.152 0.344-13.073 2.757-2.695 1.322-4.055 2.337-6.792 5.073-2.873 2.872-3.712 4.022-5.229 7.168-2.908 6.027-3.045 7.245-3.045 27.074 0 14.792-0.083 17.283-0.593 17.706-0.619 0.513-7.678-2.777-42.392-19.758-12.174-5.956-13.638-6.575-15.463-6.553-1.73 0.021-3.245 0.626-10.738 4.291-18.263 8.928-45.234 21.917-46.057 22.179-0.533 0.169-0.985 0.077-1.189-0.239-0.182-0.282-0.358-8.451-0.392-18.155-0.058-16.597-0.111-17.831-0.902-20.815-2.704-10.215-9.653-17.303-19.652-20.047-4.338-1.19-11.015-0.961-14.965 0.512-9.908 3.698-16.295 11.817-17.955 22.827-0.468 3.101-0.581 9.404-0.583 32.59-0.005 27.913-0.026 28.781-0.786 30.027-0.609 0.999-1.861 1.801-5.649 3.621-6.437 3.093-48.002 23.201-73.854 35.726-11.339 5.495-20.839 10.174-21.113 10.4s-0.496 0.656-0.496 0.957c0 0.459 4.829 0.546 30.308 0.546h30.308l2.143 1.843v57.788c0 57.318-0.007 57.795-0.796 58.583-0.792 0.792-1.242 0.795-122.866 0.861-67.138 0.035-122.543 0.010-123.12-0.056zM246.454 887.477c0.525-0.2 1.169-0.879 1.431-1.51 0.362-0.875 0.442-11.234 0.339-43.547-0.126-39.054-0.191-42.587-0.833-44.779-2.742-9.352-9.541-16.501-18.292-19.232-3.85-1.201-10.539-1.495-14.233-0.625-7.57 1.784-14.020 7.142-17.694 14.704-3.088 6.354-2.905 3.379-3.066 49.957-0.097 28.413-0.009 42.082 0.274 43.056 0.237 0.809 0.805 1.612 1.312 1.856 1.127 0.544 49.348 0.66 50.763 0.121zM345.38 887.585c2.133-0.571 2.066 0.804 2.053-42.844-0.007-22.813-0.175-41.609-0.385-43.231-2.131-16.404-16.793-27.026-32.709-23.695-7.469 1.562-14.385 7.052-17.76 14.103-3.45 7.201-3.207 3.559-3.362 50.524-0.093 28.399-0.005 42.083 0.281 43.056 0.237 0.809 0.805 1.612 1.312 1.856 0.965 0.466 48.878 0.684 50.57 0.231zM818.349 886.934c0.668-0.668 0.714-2.933 0.823-40.837 0.074-25.471-0.033-41.524-0.29-43.947-1.19-11.187-8.018-19.992-18.327-23.631-3.801-1.341-10.317-1.683-14.301-0.748-5.309 1.246-11.391 5.069-14.768 9.283-2.484 3.099-4.765 7.767-5.601 11.465-0.642 2.839-0.701 6.476-0.724 45.246l-0.025 42.16 2.245 1.933 25.13-0.107c23.513-0.101 25.176-0.153 25.837-0.816zM917.661 887.126c0.416-0.416 0.515-8.751 0.515-43.414v-42.899l-0.913-3.171c-1.589-5.518-3.428-8.718-7.204-12.533-2.727-2.754-4.031-3.731-6.751-5.061-7.539-3.688-16.199-3.771-23.591-0.227-7.27 3.486-12.313 9.859-14.572 18.417l-0.889 3.37v84.32l2.245 1.931 25.322-0.107c20.139-0.086 25.429-0.214 25.837-0.623zM345.616 749.022c0.54-0.246 1.18-0.923 1.421-1.504 0.312-0.752 0.401-13.097 0.313-43.066-0.14-47.077 0.063-43.779-3.093-50.337-3.685-7.657-10.378-13.042-18.295-14.722-3.861-0.819-10.272-0.545-13.8 0.591-7.847 2.526-14.454 9.258-17.213 17.539-1.773 5.325-1.864 7.912-1.738 50.252l0.119 39.781 2.225 1.913h24.541c17.395 0 24.828-0.131 25.524-0.448zM917.469 748.563c0.668-0.668 0.714-2.966 0.825-41.629 0.082-28.74-0.016-41.855-0.329-44.056-0.917-6.446-3.634-11.915-8.099-16.293-3.249-3.185-6.055-4.964-10.191-6.461-2.63-0.951-3.437-1.051-8.459-1.043-5.221 0.007-5.74 0.079-8.736 1.219-8.809 3.35-14.765 9.914-17.342 19.109-0.84 2.999-0.852 3.528-0.992 44.666-0.103 30.050-0.019 42.049 0.303 43.139 0.27 0.912 0.79 1.647 1.316 1.863 0.487 0.199 11.888 0.32 25.934 0.276 23.471-0.074 25.109-0.123 25.771-0.787zM445.37 824.392c-0.286-0.533-0.39-4.005-0.312-10.296 0.106-8.491 0.193-9.566 0.828-10.199 0.664-0.663 2.107-0.707 22.548-0.691l21.84 0.018 0.744 0.918c0.672 0.831 0.744 1.683 0.744 8.817 0 6.784-0.088 7.931-0.618 8.135-0.343 0.132-2.515-0.665-4.868-1.782-5.584-2.653-9.71-3.629-15.329-3.629-7.595 0-12.588 1.645-20.355 6.712-2.36 1.539-4.405 2.799-4.543 2.799s-0.443-0.362-0.68-0.805zM663.231 822.968c-3.611-2.546-9.106-5.251-12.874-6.338-3.63-1.046-13.286-1.050-17.247-0.007-3.535 0.931-8.659 3.304-11.613 5.375-2.752 1.931-3.652 2.060-3.651 0.523 0-0.599-0.031-4.658-0.069-9.020s0.058-8.316 0.214-8.788c0.156-0.472 0.767-1.015 1.358-1.208s11.305-0.339 23.811-0.326l22.737 0.022 0.754 0.931c0.693 0.856 0.753 1.674 0.749 10.105-0.005 8.736-0.157 10.958-0.746 10.958-0.144 0-1.685-1.002-3.423-2.23zM532.47 823.347c-0.146-0.146-0.264-4.319-0.264-9.274 0-8.281 0.062-9.084 0.758-9.946l0.758-0.936 20.857 0.019c20.159 0.018 20.882 0.045 21.611 0.792 0.912 0.936 0.917 0.979 0.861 9.807-0.036 5.846-0.145 7.089-0.634 7.276-0.325 0.124-1.797-0.395-3.27-1.155-6.454-3.323-11.581-4.468-18.599-4.152-6.747 0.302-11.281 1.824-18.114 6.075-2.809 1.748-3.463 1.995-3.965 1.491zM418.911 792.026c-0.163-0.035-0.758-0.165-1.32-0.287-1.533-0.335-1.952-1.757-1.952-6.617 0-5.002 0.547-6.841 2.261-7.604 0.877-0.39 30.007-0.493 139.413-0.493 136.448 0 138.312 0.010 138.866 0.77 0.427 0.584 0.563 2.215 0.563 6.778 0 5.312-0.084 6.083-0.722 6.663-0.668 0.606-11.102 0.663-138.767 0.755-75.925 0.055-138.178 0.072-138.341 0.036zM390.11 764.524c0.679-0.435 28.6-14.056 62.049-30.27s70.093-33.992 81.432-39.507c18.458-8.978 20.825-10.030 22.6-10.037 1.785-0.008 3.853 0.899 20.815 9.135 10.358 5.029 45.327 21.987 77.709 37.684s60.974 29.563 63.536 30.813c2.562 1.25 4.658 2.431 4.658 2.628 0 0.211-68.212 0.355-167.016 0.351-166.957-0.007-167.015-0.007-165.783-0.796zM560.669 748.848c10.848-2.205 18.794-11.625 19.415-23.017 0.664-12.145-7.643-23.282-19.186-25.727-5.182-1.099-9.784-0.43-15.099 2.19-9.614 4.739-15.113 16.077-13.055 26.921 2.164 11.411 11.927 19.853 23.367 20.209 0.827 0.025 2.878-0.232 4.559-0.575zM552.031 737.335c-5.902-2.144-9.010-7.086-8.644-13.745 0.29-5.262 2.846-9.222 7.253-11.24 5.048-2.311 10.932-1.36 14.663 2.371 2.713 2.713 3.773 5.46 3.773 9.773 0 5.619-2.485 9.933-6.996 12.139-2.809 1.375-7.331 1.691-10.049 0.705zM777.376 738.384c-0.464-0.192-1.019-0.858-1.236-1.477-0.401-1.152-0.158-30.803 0.684-83.044 0.379-23.518 0.479-25.886 1.207-28.745 1.021-4.009 3.679-9.314 6.926-13.82 1.414-1.963 2.572-3.835 2.574-4.163 0-0.327-0.889-1.414-1.979-2.415-1.774-1.631-1.982-1.996-1.982-3.486 0-2.217 0.967-3.992 4.237-7.785 3.423-3.968 8.561-8.129 12.355-10.009l2.915-1.444 2.438 0.698c4.606 1.319 4.23 1.393 7.758-1.526 1.764-1.46 3.311-3.070 3.439-3.577 0.152-0.605-0.121-1.526-0.794-2.674-1.197-2.042-1.306-3.857-0.332-5.522 1.049-1.794 15.516-12.258 18.529-13.405 2.476-0.942 4.431-0.371 6.394 1.869 1.103 1.257 1.381 1.38 2.612 1.15 0.758-0.143 2.344-0.983 3.522-1.869s2.727-1.855 3.438-2.157c1.725-0.73 1.922-1.44 1.084-3.906-0.67-1.972-0.671-2.143-0.015-3.524 0.775-1.632 3.538-3.549 11.753-8.146 6.139-3.437 7.567-4.038 9.595-4.038 1.396 0 1.828 0.235 3.27 1.785 1.089 1.169 1.994 1.785 2.625 1.785 0.749 0 7.777-3.748 8.633-4.605 0.097-0.097-0.125-0.691-0.496-1.317-0.921-1.56-0.868-3.796 0.113-4.777 1.004-1.004 8.029-4.529 14.18-7.118 6.791-2.856 8.809-2.709 10.612 0.778 0.435 0.841 0.9 1.178 1.625 1.178 1.027 0 6.1-2.602 6.1-3.129 0-0.157-0.624-0.889-1.388-1.63-2.099-2.036-1.924-3.207 0.892-5.944 4.585-4.459 12.331-8.725 15.841-8.725 1.104 0 3.129 0.957 4.313 2.037 0.818 0.746 0.847 0.738 2.677-0.659 1.717-1.311 1.851-1.54 1.851-3.191 0-0.978 0.265-2.413 0.589-3.186 0.833-1.991 6.066-6.882 10.571-9.88 4.496-2.991 6.221-4.838 8.729-9.349 1.016-1.827 2.891-4.795 4.164-6.595 2.43-3.435 3.38-4.067 6.994-4.655 1.928-0.315 2.186-1.051 1.127-3.227-1.141-2.346-1.075-3.798 0.371-8.31 2.125-6.634 2.453-7.2 4.817-8.299 1.149-0.535 2.491-0.974 2.981-0.976 1.456-0.007 1.367-2.605-0.157-4.603-2.034-2.667-2.654-7.547-1.675-13.168 0.397-2.276 0.687-2.83 2.549-4.855 2.313-2.515 3.042-4.358 2.562-6.48-0.37-1.637-0.777-2.199-4.974-6.832-3.661-4.041-7.986-9.625-9.005-11.626-0.919-1.803-0.886-3.843 0.093-5.669 0.436-0.814 0.792-1.744 0.792-2.070 0-0.892-4.161-4.005-7.732-5.783-6.765-3.368-12.789-3.483-19.117-0.365-5.816 2.866-10.482 8.5-15.147 18.282-3.684 7.725-5.551 14.594-6.405 23.561-0.823 8.644 0.118 17.373 3.842 35.664 3.834 18.829 4.14 20.554 3.727 20.967-0.215 0.215-0.459 0.313-0.544 0.217-0.485-0.539-12.937-19.477-13.699-20.836-0.504-0.898-1.624-2.058-2.489-2.577-4.794-2.877-5.269-3.307-6.974-6.296-0.932-1.635-1.986-3.955-2.341-5.155-0.6-2.029-0.597-2.345 0.035-4.559 1.464-5.134 1.191-6.278-1.989-8.289-0.992-0.627-2.217-1.785-2.722-2.571-2.018-3.147-2.597-11.903-1.052-15.901 1.182-3.059 1.089-4.086-0.528-5.876-1.724-1.909-2.199-3.155-2.191-5.747 0.017-4.868 1.82-10.016 5.279-15.066 2.014-2.941 2.143-3.469 1.253-5.174-0.749-1.435-0.743-3.331 0.019-6.559 0.94-3.987 2.765-6.984 6.545-10.742 3.283-3.265 5.051-4.487 7.118-4.927 0.545-0.116 1.561-0.563 2.259-0.993 1.228-0.759 1.602-1.56 2.31-4.963 0.294-1.413 2.065-3.122 5.133-4.955 4.315-2.578 5.369-2.77 15.221-2.785l8.866-0.013 3.009-1.487c2.934-1.449 3.113-1.486 7.191-1.436 3.373 0.040 5.023 0.287 8.525 1.279 4.976 1.407 5.789 2.026 6.837 5.203 0.881 2.672 2.333 3.763 5.548 4.165 2.98 0.372 7.049 1.641 9.091 2.834 2.605 1.521 5.246 4.479 6.716 7.517 1.183 2.445 1.941 3.325 5.856 6.791 12.411 10.989 20.909 25.533 24.39 41.743 1.713 7.972 2.188 12.887 2.185 22.6-0.005 10.031-0.548 15.603-2.383 24.367-5.909 28.221-23.583 55.669-50.232 78.011-12.846 10.771-21.951 16.84-61.116 40.747-37.615 22.962-40.503 24.817-48.172 30.952-9.068 7.254-16.193 14.413-25.059 25.174-2.325 2.822-5.744 6.883-7.596 9.025-7.844 9.064-18.28 25.726-21.305 34.016-1.362 3.731-6.004 21.306-6.742 25.528-0.314 1.791-0.497 7.515-0.519 16.142-0.030 12.273-0.091 13.425-0.74 14.076s-1.883 0.715-15.265 0.791c-8.006 0.046-14.936-0.074-15.399-0.266zM233.459 736.327c-1.090-0.678-3.061-2.261-4.381-3.518-3.179-3.030-6.337-5.025-15.84-10.009-30.001-15.735-56.601-32.702-74.025-47.218-30.535-25.438-47.605-55.439-52.931-93.031-0.564-3.975-0.702-7.664-0.7-18.635 0.003-14.917 0.119-16.597 3.169-45.793 3.059-29.299 3.498-34.566 3.517-42.225 0.023-9.738-1.065-14.371-4.935-21.013-4.99-8.561-15.232-15.998-33.873-24.591-16.618-7.661-23.708-11.697-29.736-16.933-6.969-6.053-11.031-12.216-13.522-20.523-0.915-3.047-1.074-4.319-1.099-8.723-0.032-5.857 0.731-9.329 3.060-13.951l1.318-2.614 1.431 2.288c1.589 2.541 3.247 8.618 3.703 13.586l0.264 2.875 4.007 4.082c2.205 2.247 4.902 5.127 5.996 6.402l1.989 2.318 3.768 0.286c4.606 0.348 6.854 1.368 10.506 4.765 2.91 2.708 4.001 3.1 6.505 2.337 5.549-1.687 12.851 0.768 16.491 5.547 2.013 2.642 2.852 3 5.057 2.152 0.918-0.354 2.602-0.722 3.743-0.821 1.973-0.172 2.391-0.016 8.723 3.244 3.658 1.883 6.873 3.717 7.146 4.077s0.496 1.082 0.496 1.606c0 1.684 1.225 3.653 2.754 4.433 0.814 0.414 3.103 0.927 5.189 1.159 5.134 0.573 7.728 1.891 11.465 5.825l2.859 3.009-0.268 3.236c-0.253 3.056-0.217 3.283 0.662 4.098 0.511 0.475 1.941 1.24 3.18 1.702 1.715 0.639 2.808 1.435 4.599 3.349 4.090 4.372 5.229 7.837 3.857 11.728-1.358 3.849-0.501 6.676 3.012 9.944l2.379 2.212 0.582 3.735c0.321 2.054 0.689 5.875 0.819 8.492 0.232 4.725 0.226 4.776-0.999 7.335-1.372 2.867-1.441 3.38-0.763 5.647 0.341 1.136 0.903 1.847 2.012 2.548 2.205 1.393 2.678 2.867 2.948 9.212 0.316 7.409 0.083 8.669-2.082 11.206-1.928 2.26-2.506 4.096-1.741 5.543 0.273 0.513 1.267 1.841 2.21 2.951s1.967 2.625 2.272 3.37c1.091 2.659 2.441 16.892 1.81 19.091-0.503 1.755-1.418 2.983-2.723 3.659-2.302 1.19-1.889 3.46 0.757 4.173 2.073 0.558 3.811 2.079 4.935 4.318 1.212 2.415 3.904 10.206 4.781 13.838 0.682 2.832 0.679 2.951-0.159 6.294-0.469 1.874-0.765 3.497-0.657 3.605s0.922-0.091 1.809-0.446c3.67-1.468 5.414-0.489 12.103 6.793 7.371 8.023 8.323 9.347 8.323 11.578 0 1.132-0.271 2.207-0.707 2.808-0.388 0.536-1.147 1.58-1.686 2.321-1.276 1.757-1.234 2.218 0.26 2.835 1.017 0.422 1.46 0.419 2.478-0.012 1.794-0.76 4.75-0.947 6.386-0.408 1.567 0.517 13.615 8.388 15.869 10.367 0.785 0.689 1.686 1.753 2.001 2.363 0.665 1.285 0.761 4.423 0.168 5.529-0.726 1.357-0.059 2.706 1.586 3.199 1.349 0.404 1.672 0.343 3.353-0.644 1.643-0.962 2.149-1.067 4.314-0.889 2.859 0.234 8.285 2.527 15.095 6.377 5.271 2.98 6.195 4.058 6.568 7.669 0.252 2.437 0.389 2.733 1.831 3.953 2.054 1.739 2.989 1.694 4.499-0.212 0.672-0.848 1.677-1.658 2.233-1.797 1.437-0.36 3.039 0.535 3.846 2.149 0.647 1.295 0.693 4.163 0.693 42.693 0 25.88-0.144 41.686-0.385 42.324-0.522 1.37-1.701 1.306-4.173-0.231zM196.082 609.866c-3.015-0.504-4.514-1.225-9.463-4.545-5.411-3.632-7.584-5.9-9.477-9.889-1.246-2.625-2.259-3.895-6.965-8.732-3.598-3.698-5.509-5.956-5.509-6.509 0-1.023 19.469-20.394 21.735-21.624 1.455-0.791 2.305-0.793 309.395-0.892 199.782-0.064 308.294 0.035 308.956 0.287 0.82 0.313 1.013 0.639 0.983 1.687-0.052 1.9-2.429 8.699-3.21 9.177-0.479 0.294-1.677 0.205-4.224-0.312-11.835-2.402-21.927 1.843-27.927 11.75-2.021 3.335-2.5 5.124-3.865 14.384-1.679 11.402-2.244 12.957-5.283 14.582l-1.645 0.879-280.706 0.054c-160.244 0.031-281.602-0.096-282.795-0.295zM246.092 599.175c0.994-0.782 1.044-1 1.044-4.496 0-11.638-7.347-22.169-18.039-25.859-2.74-0.945-3.791-1.096-7.732-1.099-4.077-0.005-4.921 0.122-7.976 1.202-9.913 3.504-16.576 11.841-17.729 22.183-0.469 4.214-0.063 7.217 1.103 8.161 0.85 0.689 2.19 0.729 24.591 0.729 23.368 0 23.706-0.010 24.736-0.821zM208.345 587.979c-0.626-0.755 0.819-3.468 2.799-5.257 4.7-4.248 12.77-4.954 18.103-1.588 1.659 1.046 4.248 3.797 4.879 5.182 1.001 2.196 1.069 2.185-12.696 2.185-9.961 0-12.744-0.111-13.083-0.521zM345.259 599.139l1.092-0.86-0.193-4.394c-0.34-7.724-2.864-13.507-8.238-18.87-10.089-10.070-25.28-9.98-35.469 0.208-5.119 5.119-7.687 11.029-8.036 18.498-0.193 4.139-0.175 4.252 0.825 5.254l1.023 1.023h47.902zM307.162 587.941c-0.625-1.63 3.227-6.017 6.684-7.614 2.207-1.019 2.907-1.143 6.442-1.143 3.442 0 4.254 0.135 6.164 1.031 2.751 1.291 4.869 3.13 6.182 5.371 1.769 3.017 2.206 2.915-12.346 2.915-10.744 0-12.946-0.093-13.125-0.559zM496 598.97c1.008-1.008 1.024-1.11 0.822-5.254-0.46-9.494-5.593-18.222-13.394-22.771-17.257-10.064-38.449 3.325-38.449 24.297 0 2.456 0.123 2.933 0.973 3.784l0.973 0.973h48.046zM457.799 587.878c-0.575-1.497 3.463-6.075 6.805-7.719 1.74-0.855 2.516-0.974 6.344-0.975 4.016 0 4.529 0.087 6.477 1.113 3.541 1.866 7.153 6.040 6.56 7.582-0.209 0.544-1.8 0.62-13.094 0.62-11.307 0-12.885-0.076-13.095-0.622zM665.97 599.618c2.905-1.104 2.001-11.067-1.631-17.981-1.687-3.212-5.985-7.952-9.058-9.991-1.207-0.801-3.657-2.009-5.443-2.687-3.003-1.138-3.624-1.23-8.205-1.23s-5.201 0.092-8.205 1.23c-4.277 1.619-7.041 3.506-10.374 7.075-4.307 4.613-6.748 10.244-7.39 17.058-0.326 3.456 0.265 6.005 1.507 6.505 1.2 0.483 47.53 0.505 48.799 0.021zM628.69 587.898c-0.67-1.746 2.723-5.741 6.419-7.555 2.156-1.058 2.725-1.159 6.525-1.159 3.491 0 4.478 0.146 6.113 0.9 2.737 1.263 5.078 3.293 6.17 5.35 1.686 3.177 2.123 3.068-12.285 3.068-11 0-12.744-0.081-12.943-0.602zM906.117 609.922c-4.865-0.141-7.352-0.359-7.45-0.656-0.188-0.563-0.489-0.372 25.436-15.98 13.83-8.325 22.155-13.11 22.798-13.1 0.556 0.007 1.393 0.231 1.857 0.496 1.488 0.847 28.693 27.864 28.693 28.494 0 0.524-1.576 0.64-11.598 0.867-12.713 0.287-48.177 0.216-59.736-0.119zM364.498 545.882c-0.405-0.488 0.162-1.779 3.276-7.434 14.609-26.537 17.379-34.21 16.129-44.677-1.477-12.364-8.661-22.423-19.83-27.762-5.201-2.485-8.767-3.279-14.843-3.298-5.71-0.020-10.171 0.755-16.423 2.849-7.913 2.652-12.519 5.266-27.942 15.863-14.472 9.944-24.058 15.419-35.329 20.179-22.861 9.654-46.809 12.52-64.906 7.763-19.383-5.094-33.382-16.907-39.963-33.722-4.095-10.462-6.101-24.384-5.163-35.821 2.141-26.094 14.801-43.924 42.435-59.763 5.762-3.303 15.958-8.362 26.974-13.384 25.411-11.585 31.242-14.516 38.643-19.432 11.622-7.721 17.564-15.465 19.619-25.571 0.498-2.452 0.862-3.405 1.337-3.498 0.583-0.115 0.652 0.551 0.654 6.344 0.003 7.145 0.224 8.396 1.975 11.158 1.38 2.177 1.51 3.818 0.555 7.037-1.073 3.619-2.501 6.014-5 8.383l-2.387 2.265-0.314 3.087c-0.661 6.518-4.499 12.627-9.555 15.206-1.645 0.839-3.802 0.91-5.572 0.183-0.492-0.203-0.991 0.172-1.895 1.42-1.224 1.688-1.344 2.011-1.792 4.803-0.35 2.18-1.783 3.588-5.722 5.622-4.291 2.217-5.763 2.337-7.705 0.634-0.746-0.654-1.533-1.189-1.75-1.189-0.473 0-1.135 1.638-1.463 3.62-0.458 2.782-3.873 6.245-7.315 7.418-1.849 0.63-4.025 0.576-5.749-0.145-1.987-0.831-2.529-0.441-4.781 3.434-2.050 3.527-5.244 7.189-7.119 8.158-0.797 0.413-1.761 0.533-3.046 0.381-1.675-0.199-1.949-0.119-2.506 0.733-0.352 0.538-0.625 1.794-0.625 2.874 0 2.547-1.355 5.189-4.264 8.319-2.131 2.291-2.431 2.478-3.994 2.478-1.266 0-1.934 0.245-2.663 0.973-1.221 1.221-1.214 1.575 0.076 4.393 2.062 4.502 1.602 10.026-1.138 13.65-0.714 0.945-1.477 1.965-1.696 2.263-0.3 0.412 0.107 1.004 1.658 2.418 3.91 3.567 5.566 7.624 5.128 12.55-0.435 4.872 0.83 6.321 7.106 8.146 7.509 2.184 9.303 3.446 9.303 6.545 0 1.095 0.239 1.878 0.693 2.275 1.731 1.511 8.784 2.888 12.787 2.498 5.714-0.558 15.834-3.815 23.789-7.653 6.089-2.939 10.845-5.881 22.6-13.974 15.040-10.356 21.3-14.509 27.159-18.014 6.2-3.711 7.131-4.529 7.695-6.774 0.357-1.418 0.74-1.908 2.12-2.713 1.897-1.109 7.344-3.185 10.56-4.025 2.021-0.528 2.289-0.505 4.986 0.426 3.949 1.364 4.768 1.295 6.504-0.538 0.791-0.836 1.763-1.999 2.157-2.583 1.209-1.79 2.347-2.232 7.853-3.041 9.254-1.362 18.456-0.895 23.172 1.173 0.946 0.414 2.495 1.724 3.759 3.178 3.217 3.7 5.227 4.425 7.591 2.741 0.653-0.466 1.929-0.926 2.836-1.024 1.439-0.155 2.073 0.078 4.982 1.837 5.817 3.516 7.54 5.016 8.629 7.511 0.536 1.229 1.223 2.807 1.528 3.505 0.787 1.799 1.939 2.401 5.424 2.832 1.93 0.239 3.462 0.67 4.164 1.173 0.61 0.438 3.539 3.269 6.509 6.29 6.080 6.185 6.42 6.837 5.271 10.036-0.581 1.614-0.623 2.203-0.245 3.463 0.25 0.834 0.71 1.869 1.024 2.296 0.55 0.75 0.618 0.754 2.008 0.091 3.558-1.697 4.654-0.736 6.225 5.459 2.359 9.291 3.473 14.92 3.129 15.802-0.182 0.468-0.884 1.374-1.561 2.014-1.033 0.978-1.226 1.453-1.211 2.974 0.024 2.59 0.598 5.218 1.226 5.622 0.297 0.19 1.264 0.244 2.149 0.117 1.501-0.216 1.707-0.122 3.073 1.39 0.805 0.891 1.458 2.022 1.449 2.512-0.037 2.381-0.802 12.013-1.213 15.295-0.698 5.567-2.279 6.993-6.019 5.43-1.758-0.735-1.991-0.486-2.89 3.091-0.805 3.202-0.503 4.227 1.612 5.474 0.815 0.481 1.504 1.258 1.659 1.871 0.508 2.017-1.351 14.626-2.331 15.812-0.987 1.196-3.807 1.291-38.034 1.294-30.31 0-34.805-0.074-35.232-0.589zM468.79 546.124c-0.65-0.181-1.075-0.68-1.292-1.514-0.176-0.683-0.276-37.916-0.22-82.738 0.097-77.629 0.135-81.529 0.81-82.202s4.794-0.712 87.82-0.803c69.73-0.077 87.31 0.007 88.103 0.408l0.991 0.503v165.682l-0.991 0.501c-0.791 0.399-18.511 0.495-87.621 0.469-47.647-0.019-87.067-0.156-87.6-0.304zM566.414 503.715c11.34-3.046 21.268-11.444 26.465-22.381 7.96-16.755 4.456-36.836-8.643-49.51-5.226-5.056-11.145-8.46-17.935-10.313-2.956-0.806-4.223-0.917-10.309-0.889-6.318 0.028-7.245 0.124-10.364 1.075-4.725 1.442-7.329 2.653-11.36 5.276-15.291 9.959-22.486 29.714-17.317 47.547 4.137 14.273 15.266 25.373 29.173 29.098 4.353 1.166 4.417 1.171 11.055 1.044 4.7-0.091 6.87-0.313 9.232-0.946zM550.742 493.141c-11.947-2.264-21.39-11.633-23.858-23.667-2.89-14.093 3.835-28.644 16.106-34.846 7.744-3.914 18.585-3.955 26.211-0.1 8.243 4.169 13.735 11.018 16.164 20.16 1.177 4.427 1.177 11.431 0 15.859-2.429 9.136-7.922 15.992-16.153 20.154-5.002 2.529-12.66 3.541-18.47 2.44zM690.65 546.129c-0.671-0.267-0.614-0.422 0.616-1.66 0.747-0.751 2.117-1.812 3.046-2.355s2.161-1.604 2.735-2.358c0.911-1.195 1.076-1.878 1.298-5.364 0.245-3.819 0.353-4.195 2.479-8.547 2.653-5.432 5.12-8.612 8.605-11.095 3.346-2.385 3.619-3.158 2.382-6.729l-0.951-2.743 1.097-3.885c2.045-7.245 4.122-11.459 7.422-15.063 1.992-2.175 2.306-3.437 1.201-4.816-2.14-2.667-2.227-2.916-2.369-6.727-0.253-6.781 1.008-12.3 3.815-16.715 0.758-1.192 1.376-2.529 1.371-2.974s-0.909-3.483-2.013-6.755c-2.083-6.175-3.631-11.706-3.631-12.98 0-1.156 1.164-3.158 2.627-4.518 2.225-2.067 1.655-5.366-1.053-6.096-1.523-0.411-3.392-1.974-3.716-3.11-0.934-3.283-1.596-8.051-1.603-11.557-0.007-3.853 0.089-4.375 1.279-7.017 1.211-2.686 1.254-2.944 0.76-4.381-0.289-0.84-1.069-2.321-1.729-3.292-2.551-3.737-4.478-10.158-4.487-14.946-0.007-2.695 0.076-2.965 1.311-4.361 2.038-2.303 2.647-3.353 2.647-4.57 0-1.294-0.832-3.067-1.821-3.885-1.549-1.282-2.126-3.53-2.135-8.324-0.010-5.787 0.685-8.465 2.449-9.422 0.67-0.363 1.685-1.046 2.253-1.518 1.019-0.844 1.039-0.959 1.291-7.533 0.203-5.287 0.427-7.158 1.082-8.988 0.822-2.303 3.367-6.212 4.046-6.212 0.574 0 2.395-2.999 2.735-4.503 0.172-0.761 0.146-2.298-0.058-3.417-0.432-2.379 0.161-4.865 2.234-9.365 1.504-3.262 2.516-4.123 4.85-4.123 1.61 0 1.769-0.113 3.678-2.637 2.169-2.865 2.422-3.83 1.203-4.592-1.304-0.815-1.010-2.642 0.853-5.295 3.508-4.997 5.108-6.111 8.779-6.111 1.694 0 2.295-0.182 2.967-0.898 1.444-1.537 2.121-3.677 1.84-5.807-0.286-2.152-0.102-2.429 5.351-8.064 2.902-2.999 3.897-3.295 6.228-1.854l1.332 0.822 1.186-0.845c1.784-1.269 2.356-2.29 2.115-3.773-0.278-1.717 0.049-2.22 3.26-4.997 3.056-2.642 5.083-3.437 7.030-2.76 1.786 0.623 2.864-0.28 4.427-3.708 1.876-4.116 4.641-5.957 8.553-5.698 1.659 0.11 1.726 0.064 3.367-2.266 2.391-3.399 4.234-4.592 7.493-4.854l2.626-0.211 3.821-4.683c3.492-4.277 3.914-4.663 4.906-4.465 1.708 0.342 2.737-0.513 3.997-3.324 2.202-4.907 4.423-7.193 7.126-7.333 1.351-0.070 2.349-1.039 2.349-2.281 0-3.098 2.558-7.081 5.747-8.951 2.261-1.324 2.808-2.258 3.073-5.232 0.279-3.129 1.557-5.377 4.495-7.913 1.211-1.044 2.581-2.513 3.043-3.259s0.909-1.153 0.993-0.901c0.232 0.697-3.181 12.999-5.467 19.705-5.898 17.297-13.97 32.137-23.904 43.939-1.5 1.783-7.148 7.969-12.553 13.747s-11.072 11.953-12.594 13.723c-13.915 16.167-23.677 33.944-28.054 51.094-2.319 9.087-2.771 12.852-2.734 22.804 0.043 11.371 0.373 13.211 6.113 34.097 12.543 45.635 14.434 53.583 16.085 67.599 0.851 7.227 0.982 23.989 0.237 30.528-1.187 10.431-3.433 21.22-6.23 29.934-3.115 9.707-9.471 24.321-11.294 25.971-0.859 0.777-1.51 0.792-35.821 0.865-19.221 0.041-35.281-0.058-35.688-0.219zM498.306 367.176c-0.436-0.241-0.924-0.632-1.085-0.868s-0.294-26.139-0.298-57.561c-0.007-56.244 0.007-57.141 0.771-57.834 0.71-0.643 1.881-0.703 13.72-0.7 11.481 0.004 13.016 0.077 13.595 0.656 0.599 0.599 0.652 5.295 0.652 57.915 0 54.437-0.035 57.297-0.707 57.97-0.647 0.647-1.799 0.715-13.281 0.783-8.566 0.051-12.827-0.064-13.367-0.362zM538.245 367.25c-0.494-0.199-1.073-0.823-1.289-1.389-0.595-1.562-0.53-112.836 0.065-114.145 0.251-0.552 0.831-1.121 1.286-1.266 1.065-0.338 35.121-0.329 36.188 0.008 0.441 0.14 1.009 0.707 1.26 1.257 0.338 0.741 0.455 15.58 0.452 56.987-0.005 30.792-0.115 56.393-0.248 56.891-0.538 2.005-1.14 2.067-19.649 2.040-9.443-0.014-17.572-0.188-18.066-0.385zM588.703 367.396c-1.855-0.464-1.785 1.827-1.785-58.401 0-50.883 0.065-57.022 0.617-57.811 0.617-0.88 0.625-0.881 13.828-0.881 10.913 0 13.293 0.098 13.677 0.562 0.345 0.415 0.526 9.588 0.7 35.385 0.286 42.384-0.123 79.463-0.886 80.507-0.472 0.648-1.533 0.71-12.938 0.771-6.832 0.035-12.779-0.023-13.215-0.133zM481.076 359.497c-9.061-3.719-20.604-6.086-36.492-7.483-3.815-0.335-8.633-0.799-10.704-1.030-30.515-3.412-57.285-15.783-78.453-36.253-14.959-14.466-23.184-30.093-25.669-48.768-0.847-6.368-0.561-18.611 0.595-25.396 4.372-25.683 17.286-46.619 38.771-62.849 9.966-7.529 20.409-12.463 31.057-14.672 3.131-0.651 6.276-0.929 12.688-1.125 8.958-0.273 8.973-0.276 12.092-2.438 2.078-1.439 3.654-1.724 6.399-1.154 3.422 0.71 5.618 1.805 7.548 3.763 0.963 0.976 2.042 1.776 2.399 1.776s1.219-0.624 1.918-1.388c1.678-1.832 3.145-1.823 7.855 0.051 6.909 2.75 7.196 2.957 8.869 6.383 1.987 4.075 2.811 4.633 6.716 4.554 3.001-0.062 3.096-0.033 5.199 1.554 1.178 0.889 3.395 2.695 4.927 4.014l2.786 2.398-0.277 2.219c-0.36 2.885-0.317 3.868 0.212 4.857 0.376 0.703 0.673 0.777 2.209 0.545 1.323-0.199 2.027-0.102 2.765 0.382 1.285 0.843 4.235 5.423 5.059 7.855 0.748 2.206 0.577 3.229-1.007 6.057-0.621 1.108-1.128 2.411-1.128 2.894 0 1.142 0.876 2.817 1.997 3.815 3.605 3.21 2.984 12.169-1.007 14.524-2.854 1.685-3.927 6.439-2.113 9.373 0.784 1.268 0.818 1.553 0.372 3.218-0.943 3.534-4.673 8.065-7.071 8.589-4.193 0.917-7.245 3.997-7.245 7.31 0 1.959-0.945 3.686-3.018 5.512-2.69 2.371-3.449 2.684-7.289 3.017-3.367 0.29-4.651 0.579-12.918 2.892-4.458 1.248-8.199 1.942-16.421 3.048-6.167 0.83-8.135 1.318-8.95 2.219-0.744 0.821-1.756 1.020-1.756 0.344 0-1.379 4.202-7.558 7.98-11.738 1.607-1.778 6.045-6.082 9.862-9.563 7.371-6.725 13.371-13.153 15.167-16.247 3.628-6.254 4.13-12.841 1.551-20.327-4.532-13.16-17.911-23.307-32.224-24.442-4.374-0.346-5.466-0.035-7.74 2.218-2.58 2.553-4.177 2.982-9.793 2.631-4.884-0.304-5.859 0.028-6.82 2.331-0.591 1.413-0.578 1.407-7.518 3.034-4.656 1.091-5.502 1.622-5.205 3.27 0.805 4.472 0.909 3.997-1.393 6.43-2.247 2.375-3.853 3.38-6.588 4.116-2.372 0.638-3.064 1.811-2.533 4.287 0.736 3.436-0.381 6.094-3.939 9.372-1.765 1.626-1.998 2.015-1.768 2.943 1.183 4.741 0.479 8.442-2.162 11.354-2.052 2.264-2.149 2.765-0.9 4.655 1.588 2.399 1.707 5.888 0.342 9.957-0.567 1.688-1.030 3.341-1.030 3.672s0.763 0.929 1.699 1.328c3.997 1.714 7.358 8.227 6.274 12.158-0.237 0.86-0.263 1.742-0.063 2.115 0.189 0.354 1.76 1.157 3.493 1.786 4.94 1.797 7.665 4.090 8.258 6.95 0.449 2.164 0.542 2.205 5.162 2.205h4.319l3.328 1.785c3.945 2.115 5.593 3.537 5.593 4.828 0 1.093 1.018 2.705 1.707 2.704 0.259 0 1.492-0.616 2.739-1.367 3.35-2.021 4.753-2.339 8.246-1.874 7.189 0.956 10.853 2.253 13.189 4.669 1.3 1.345 1.718 1.544 3.171 1.505 0.968-0.025 2.313-0.426 3.19-0.948 2.545-1.519 4.577-1.256 13.351 1.73 9.345 3.181 10.176 3.244 12.892 0.998l1.975-1.634 2.776 0.234c3.36 0.284 9.978 1.614 11.784 2.369 1.631 0.681 3.727 3.029 4.825 5.404 0.819 1.77 0.837 2.318 0.945 28.077 0.109 26.202 0.036 27.884-1.214 27.824-0.265-0.013-1.991-0.643-3.835-1.4zM508.24 237.925c-0.545-0.777-0.617-4.263-0.617-29.736 0-28.327 0.015-28.869 0.792-29.647 0.784-0.784 1.322-0.792 47.775-0.792s46.991 0.008 47.775 0.792c0.778 0.778 0.792 1.322 0.792 29.736s-0.015 28.958-0.792 29.736c-0.784 0.784-1.322 0.792-47.952 0.792h-47.159zM563.676 231.868c9.651-3.355 16.502-13.153 16.502-23.592 0-10.745-7.445-21.021-17.333-23.923-11.218-3.294-23.233 2.419-28.295 13.452-6.545 14.27 1.869 31.439 17.081 34.859 3.507 0.789 8.424 0.463 12.044-0.795zM551.894 221.167c-3.494-1.335-6.417-4.349-7.819-8.068-0.689-1.827-0.818-2.873-0.689-5.615 0.135-2.899 0.344-3.721 1.497-5.878 2.567-4.805 6.531-7.007 12.104-6.726 2.566 0.13 3.584 0.383 5.296 1.313 2.713 1.477 4.955 4.034 6.025 6.87 1.14 3.022 0.973 8.481-0.339 11.19-1.287 2.656-3.281 4.796-5.69 6.11-1.795 0.978-2.648 1.175-5.495 1.271-2.253 0.077-3.874-0.078-4.892-0.469zM509.038 165.627c-0.343-0.343-0.623-0.679-0.623-0.749 0-1.092 1.504-7.417 2.363-9.947 6.162-18.117 22.218-30.719 41.772-32.785 12.534-1.324 26.020 3.384 35.798 12.498 7.414 6.911 12.172 14.949 14.665 24.785 1.117 4.405 1.169 5.359 0.329 6.199-0.559 0.559-5.382 0.623-47.153 0.623s-46.593-0.063-47.153-0.623zM552.581 115.511c-0.565-0.229-0.917-0.83-1.085-1.858-0.477-2.884-0.298-46.797 0.195-47.878 0.6-1.317 2.611-1.946 5.547-1.733 4.039 0.292 3.713-1.957 3.713 25.623 0 28.518 0.386 26.25-4.47 26.21-1.686-0.014-3.438-0.176-3.899-0.362z"></path>
    </svg>