<svg xmlns="http://www.w3.org/2000/svg" viewBox="45.076 -48.354 553.847 1120.354">
    <path fill="#000000" d="M125.076 974.758v-17.243h393.847v34.485h-393.847zM188.016 941.938c0-0.38 1.103-15.685 2.453-34.014 2.689-36.541 3.357-45.53 7.523-101.164 1.552-20.729 3.846-51.765 5.097-68.97 3.011-41.378 3.741-50.305 4.18-51.127 0.203-0.378 0.867-0.946 1.478-1.262 0.988-0.511 13.613-0.563 115.096-0.475 62.693 0.054 114.122 0.234 114.287 0.4s1.369 14.752 2.673 32.412c1.304 17.661 5.578 75.354 9.499 128.208s7.046 96.229 6.947 96.389c-0.099 0.16-60.717 0.292-134.707 0.292-130.116 0-134.527-0.023-134.527-0.69zM335.54 805.603c0.523-0.523 0.592-2.809 0.586-19.504-0.008-21.057-0.105-22.136-2.429-26.86-1.582-3.215-4.591-6.449-7.175-7.712-2.764-1.35-6.398-1.297-9.319 0.137-2.622 1.288-5.421 4.303-7.033 7.578-2.147 4.36-2.237 5.373-2.371 26.538-0.119 18.789-0.101 19.361 0.609 19.881 0.598 0.438 3.084 0.535 13.635 0.535 11.228 0 12.981-0.077 13.496-0.593zM208.723 667.663c-0.407-0.49 0.336-11.734 4.326-65.484 7.674-103.382 7.046-93.977 6.39-95.618-0.443-1.108-1.803-2.403-6.103-5.813-3.043-2.413-7.534-5.762-9.979-7.441s-5.053-3.75-5.795-4.6c-1.694-1.943-3.436-5.568-3.739-7.78-0.201-1.464-0.073-1.949 0.941-3.581l1.174-1.888-0.196-35.387-1.598-0.273c-0.879-0.15-2.367-0.802-3.306-1.448l-1.706-1.175 1.476-1.233c1.449-1.21 1.592-1.244 8.017-1.891 3.598-0.362 10.442-1.148 15.21-1.747 21.376-2.682 21.014-2.672 94.787-2.845 73.133-0.172 89.103 0.061 104.397 1.523 40.744 3.895 37.66 3.476 39.668 5.391 0.57 0.544 1.037 1.123 1.037 1.287s-0.717 0.665-1.594 1.112c-1.446 0.738-1.961 0.79-5.559 0.568-2.182-0.134-4.607-0.351-5.391-0.48l-1.425-0.235 0.223 34.851 1.024 0.88c0.628 0.541 1.718 0.962 2.821 1.091 2.65 0.311 10.325 1.643 10.506 1.824 0.299 0.299-1.364 7.525-2.132 9.263-0.898 2.033-2.488 3.801-4.881 5.425-0.933 0.634-5.964 4.36-11.183 8.282-7.129 5.359-9.641 7.457-10.109 8.444-0.59 1.242-0.55 2.266 0.725 18.912 3.993 52.151 10.013 134.843 10.013 137.543v3.11h-113.773c-102.946 0-113.82-0.056-114.264-0.592zM335.756 592.38c0-22.737 0.038-22.336-2.551-27.016-6.548-11.84-18.913-10.318-23.48 2.888-2.064 5.971-2.286 9.080-1.993 28.11l0.253 16.489h27.771zM208.551 474.937c4.936-0.906 6.145-1.253 6.69-1.926 0.613-0.758 0.665-2.164 0.665-18.305 0-9.616-0.083-17.483-0.182-17.483s-3.021 0.26-6.49 0.578c-5.46 0.501-6.424 0.686-7.167 1.385l-0.859 0.807v18.025c0 16.915 0.040 18.024 0.66 18.024 0.363 0 3.371-0.498 6.684-1.105zM434.271 473.186c0.126-0.328 0.229-8.030 0.229-17.115v-16.519l-1.093-0.92c-1.116-0.938-1.262-0.965-11.408-2.029l-2.138-0.224 0.164 1.459c0.090 0.803 0.669 8.158 1.288 16.345 1.272 16.851 1.299 17.076 2.132 17.767 0.638 0.529 6.862 1.743 9.224 1.799 0.926 0.022 1.448-0.161 1.602-0.563zM222.862 469.918c0.223-2.262 2.466-32.357 2.466-33.091 0-0.197-0.667-0.357-1.48-0.357-1.589 0-2.533 0.661-2.873 2.013-0.324 1.295-0.019 32.791 0.323 33.32 0.744 1.149 1.334 0.439 1.564-1.884zM227.217 413.008c0.005-1.497 1.034-16.349 2.8-40.421 1.996-27.195 1.852-25.838 2.839-26.638 0.814-0.659 4.364-0.685 90.118-0.685h89.272l0.553 0.848c0.42 0.644 1.103 8.241 2.836 31.565 1.255 16.894 2.283 32.031 2.282 33.638v2.921h-190.704l0.004-1.225zM335.295 400.832c0.833-0.584 0.837-0.643 0.837-11.699 0-12.744-0.334-15.279-2.572-19.548-2.682-5.116-6.796-8.16-11.389-8.426-4.059-0.235-6.775 1.339-9.558 5.539-1.912 2.887-3.375 6.204-4.218 9.563-0.654 2.611-1.21 19.196-0.746 22.288 0.45 3.002-0.193 2.872 14.103 2.872 10.887 0 12.823-0.083 13.541-0.587zM214.022 330.68c-1.445-0.517-1.508-1.067-1.508-13.118 0-9.533 0.1-11.865 0.535-12.459 0.527-0.721 2.114-0.733 108.072-0.826 101.802-0.090 107.607-0.059 108.856 0.565 1.172 0.586 1.347 0.871 1.568 2.544 0.137 1.037 0.264 6.76 0.283 12.72l0.033 10.836-108.638-0.030c-59.751-0.016-108.892-0.121-109.203-0.232zM232.677 290.643c-1.986-0.483-2.775-1.102-10.505-8.243-12.084-11.165-24.513-23.635-25.665-25.751-0.557-1.023-1.665-3.804-2.465-6.183l-1.452-4.324h0.89c0.732 0 1.042-0.383 1.748-2.168 0.85-2.144 0.861-2.383 1.001-22.519 0.078-11.194 0.030-21.242-0.106-22.33l-0.248-1.979h-2.183c-3.090 0-4.251-0.937-4.094-3.302 0.207-3.128-4.621-2.198 48.543-9.346 11.102-1.493 11.064-1.485 11.845-2.267 0.53-0.53 0.592-4.647 0.592-39.501 0-30.537-0.101-39.045-0.472-39.544-0.259-0.349-1.284-0.785-2.279-0.968s-1.894-0.42-1.999-0.525c-0.105-0.105 1.98-1.628 4.634-3.384 7.508-4.97 33.112-21.673 44.587-29.088 5.7-3.683 10.958-7.277 11.683-7.985l1.319-1.288 0.222-8.003c0.235-8.478 0.439-9.563 2.418-12.941 1.195-2.040 4.213-4.735 6.674-5.962 2.802-1.396 7.026-1.39 9.824 0.014 4.093 2.054 6.782 5.013 8.296 9.126 0.678 1.841 0.789 3.022 0.81 8.543 0.038 9.938-0.077 9.803 17.001 20.013 11.976 7.16 47.948 29.285 50.106 30.818 0.99 0.704 1.037 0.813 0.377 0.877-0.414 0.040-1.73 0.18-2.922 0.31l-2.168 0.236 0.192 80.777 2.073 0.301c1.14 0.166 12.758 1.74 25.817 3.5s24.188 3.288 24.729 3.398c2.498 0.505 3.56 3.757 1.77 5.423-1.011 0.941-2.081 0.962-8.137 0.151-2.544-0.34-4.701-0.546-4.791-0.456s-0.186 9.974-0.212 21.965l-0.049 21.801 0.881 0.878c0.703 0.7 2.062 1.11 6.723 2.031 3.213 0.635 6.116 1.238 6.452 1.342 0.558 0.173 0.549 0.533-0.101 4.23-1.635 9.295-2.721 11.291-9.371 17.238-2.71 2.423-9.457 8.725-14.993 14.005s-10.743 9.969-11.573 10.42l-1.508 0.82-91.395 0.057c-50.267 0.032-91.904-0.067-92.526-0.218zM208.557 241.439c4.612-1.021 6.186-1.521 6.69-2.126 0.611-0.734 0.66-2.399 0.66-22.924 0-12.173-0.081-22.212-0.178-22.311s-2.26 0.118-4.806 0.48c-2.544 0.363-5.445 0.766-6.444 0.896-3.528 0.461-3.271-1.484-3.271 24.706 0 21.745 0.037 23.004 0.66 22.813 0.363-0.112 3.373-0.803 6.69-1.537zM434.792 218.078c-0.089-19-0.181-22.11-0.668-22.58-0.562-0.542-18.338-3.355-18.938-2.997-0.156 0.093-0.283 9.731-0.283 21.419v21.251l0.863 1.003c0.799 0.928 1.495 1.111 9.328 2.444 4.656 0.792 8.766 1.453 9.133 1.467 0.634 0.025 0.663-1.116 0.565-22.008zM236.481 235.942c7.443-1.257 13.661-2.411 13.819-2.566s0.242-10.023 0.188-21.929l-0.098-21.649-2.638 0.076c-2.239 0.065-20.074 2.3-23.832 2.987-0.835 0.153-1.459 0.61-1.979 1.451-0.737 1.193-0.759 1.833-0.754 21.725 0.005 11.273 0.108 20.877 0.233 21.344s0.52 0.848 0.878 0.848c0.358 0 6.741-1.028 14.183-2.286zM409.345 226.544c0.157-5.078 0.241-14.699 0.188-21.379-0.094-11.835-0.117-12.165-0.901-12.949-0.892-0.892-2.563-1.282-7.213-1.683l-3.118-0.269 0.103 21.518c0.096 19.924 0.152 21.568 0.764 22.179 0.671 0.671 7.087 2.023 8.95 1.885l0.942-0.069zM285.005 166.577c0.505-0.23 1.106-0.832 1.337-1.337 0.295-0.647 0.418-9.355 0.418-29.498 0-24.731-0.075-28.642-0.556-29.041-0.446-0.37-1.992-0.151-7.821 1.11-13.608 2.944-21.906 4.928-22.431 5.364-1.606 1.332-1.605 1.322-1.605 27.391v24.866l0.993 0.781c0.964 0.758 1.402 0.781 14.87 0.781 9.367 0 14.175-0.136 14.795-0.418zM348.999 166.275l0.89-0.721v-29.588c0-16.273-0.142-29.729-0.314-29.902s-12.005-0.362-26.292-0.421l-25.979-0.107-1.875 1.875v57.732l1.851 1.851h25.416c24.463 0 25.448-0.027 26.305-0.721zM391.277 166.575c0.453-0.232 1.117-0.783 1.475-1.225 0.602-0.743 0.652-2.665 0.66-25.415 0.009-27.192 0.079-26.385-2.341-27.173-1.729-0.562-28.15-6.446-28.946-6.446-0.359 0-0.755 0.382-0.879 0.848s-0.226 13.568-0.224 29.114c0.004 26.219 0.051 28.325 0.654 29.065 0.358 0.44 0.99 0.985 1.405 1.213 1.058 0.582 27.062 0.597 28.197 0.016z"></path>
    </svg>