<svg xmlns="http://www.w3.org/2000/svg" viewBox="-43.682 -16.611 1116.305 1056.612">
    <path fill="#000000" d="M473.598 958.917c-48.781-4.665-85.446-13.101-123.486-28.412-11.436-4.603-18.321-7.728-32.376-14.695-58.511-29.005-107.117-66.697-145.82-113.075-35.383-42.399-62.143-91.506-80.754-148.185-13.167-40.103-19.159-73.337-20.982-116.394-0.568-13.426-0.523-13.57 5.799-17.977 20.226-14.103 47.214-22.986 80.061-26.355 12.594-1.293 18.449-1.522 38.213-1.503 20.649 0.021 31.435 0.399 48.189 1.687 69.568 5.349 141.366 23.645 224.758 57.274 32.121 12.953 54.906 21.95 99.767 39.393 77.88 30.283 102.346 39.363 130.639 48.489 30.97 9.989 65.525 18.557 85.085 21.101 7.512 0.976 29.125 0.972 37.272-0.009 13.098-1.577 26.189-4.244 40.117-8.17 25.152-7.092 48.086-16.111 73.171-28.776 4.426-2.233 5.123-2.436 4.896-1.416-4.188 18.795-11.56 42.2-19.659 62.402-16.846 42.026-41.229 82.804-70.235 117.462-46.232 55.237-104.053 97.821-170.224 125.365-37.709 15.697-80.887 26.652-121.602 30.854-16.487 1.701-19.736 1.839-45.93 1.933l-25.6 0.091-11.294-1.080zM258.768 818.667c5.669-0.839 18.623-3.394 23.955-4.724 6.21-1.549 19.746-5.455 40.277-11.625 69.217-20.797 133.438-43.084 193.177-67.038 34.185-13.708 58.783-24.885 121.753-55.32 6.522-3.153 19.229-9.247 28.236-13.544s18.029-8.636 20.050-9.644l3.674-1.833-1.733-0.881c-0.954-0.484-6.841-2.717-13.084-4.961-18.879-6.784-19.771-7.137-37.293-14.749-17.199-7.469-19.985-8.536-44.648-17.079-22.861-7.918-25.66-8.986-92.614-35.315-13.977-5.496-25.871-10.106-26.431-10.244-0.863-0.213-1.046-0.116-1.197 0.634-1.259 6.217-1.883 8.34-2.751 9.373-1.21 1.436-26.163 20.151-37.387 28.036-25.053 17.605-31.093 22.071-40.471 29.926-6.168 5.168-10.353 8.183-20.895 15.055-8.253 5.381-22.164 13.931-22.663 13.931-0.166 0-0.301-0.252-0.301-0.561s-0.509-2.371-1.129-4.584c-1.239-4.415-1.379-6.683-0.553-8.974 0.74-2.055 0.69-3.101-0.175-3.563-1.189-0.637-2.248-0.481-10.115 1.492-4.129 1.035-7.763 1.883-8.073 1.883s-0.763-0.236-1.002-0.525c-0.788-0.949-1.902-10.025-2.499-20.369-0.675-11.659-0.833-12.265-3.556-13.681-1.627-0.846-1.927-0.873-7.529-0.665-3.21 0.119-7.466 0.419-9.457 0.666-7.269 0.903-7.769 0.171-8.438-12.321-0.259-4.84-0.249-4.933 0.651-5.978 0.735-0.856 1.31-1.099 2.961-1.25 2.001-0.183 2.989-0.603 2.989-1.267 0-0.182-1.598-0.33-3.55-0.33-4.058 0-3.773 0.271-4.157-3.954-0.132-1.449-0.329-3.17-0.441-3.821-0.182-1.069-0.096-1.207 0.868-1.393 0.589-0.114 2.065-0.401 3.283-0.638l2.212-0.431-1.084-0.714c-0.595-0.393-1.626-0.715-2.289-0.717-2.531-0.007-3.88-1.355-3.874-3.879 0.002-0.664-0.198-2.519-0.441-4.123-0.408-2.676-0.516-2.919-1.321-2.919-1.009 0-1.076 0.418-0.903 5.651 0.13 3.931-0.385 4.818-2.989 5.159-1.53 0.201-2.233 0.607-2.249 1.298-0.003 0.137 0.667 0.363 1.491 0.502 3.206 0.541 5.227 3.219 5.257 6.966 0.021 2.447-0.635 3.127-3.739 3.881-2.751 0.668-3.769 1.157-3.769 1.813 0 0.182 1.779 0.33 3.954 0.33 3.098 0 3.954 0.112 3.954 0.516 0 0.284 0.268 3.037 0.595 6.118 0.778 7.332 0.63 10.757-0.517 11.905-0.791 0.791-1.227 0.86-6.304 0.973-7.050 0.158-7.202 0.071-8.134-4.691-0.895-4.572-0.867-6.547 0.121-8.584l0.82-1.689-1.739-3.496c-0.957-1.924-1.857-4.005-2.004-4.627-0.682-2.914-2.269-4.33-4.85-4.33-2.933 0-16.564 3.655-19.907 5.339-2.92 1.47-6.524 5.178-8.281 8.522-2.723 5.181-2.639 4.641-2.867 18.603l-0.207 12.698-0.976 0.975c-0.858 0.857-2.093 1.199-10.129 2.812-5.034 1.011-10.282 2.179-11.658 2.597-4.179 1.269-5.616 2.606-13.881 12.909-4.371 5.449-4.753 6.223-5.723 11.591-0.601 3.325-0.651 9.023-0.088 10.018 0.247 0.438 0.957 1.005 1.575 1.262 2.041 0.847 2.363 1.831 2.796 8.572 0.477 7.431 0.145 9.938-1.858 13.991-1.858 3.759-5.263 7.104-9.938 9.757-4.22 2.396-4.991 2.583-7.331 1.789-1.665-0.566-1.873-0.566-2.74 0.005-0.911 0.596-0.931 0.703-0.679 3.599 0.333 3.824-0.293 5.798-2.755 8.673-1.537 1.796-3.815 6.231-3.815 7.43 0 0.956 1.46 0.649 4.177-0.879 2.644-1.487 3.013-1.603 3.313-1.038 0.734 1.378 12.744 27.404 15.757 34.142 7.525 16.836 11.717 23.526 20.139 32.139 4.486 4.587 8.513 7.954 13.741 11.485 5.067 3.423 8.419 5.156 12.817 6.629 5.666 1.897 10.163 2.249 16.597 1.296zM193.374 715.314c-0.595-0.952-0.776-0.761 2.832-3.003l2.939-1.827 0.629 0.822c0.346 0.453 0.554 0.945 0.463 1.092-0.216 0.348-5.739 3.704-6.097 3.704-0.149 0-0.495-0.356-0.765-0.79zM215.803 653.35c-0.903-0.236-0.826-1.115 0.189-2.12 0.981-0.971 9.038-3.832 9.88-3.509 1.287 0.494 0.325 1.317-4.143 3.542-2.59 1.291-4.836 2.327-4.989 2.303s-0.575-0.12-0.937-0.217zM797.181 648.321c-6.955-0.469-13.529-1.262-24.847-2.997-35.821-5.494-63.605-12.711-90.55-23.526-13.712-5.503-40.328-17.495-43.278-19.499-1.612-1.096-8.419-6.772-8.446-7.045-0.009-0.104 0.281-0.578 0.648-1.054l0.665-0.865 9.584 3.368c5.271 1.854 11.363 3.911 13.538 4.571s9.121 2.895 15.435 4.963c39.795 13.027 55.674 16.863 93.932 22.682 26.234 3.991 52.532 5.615 77.367 4.779 13.25-0.446 16.291-0.812 31.248-3.756 13.044-2.568 23.709-4.062 24.141-3.381 0.78 1.232 0.266 1.789-3.717 4.027-6.396 3.594-8.219 4.285-20.8 7.879-20.121 5.747-31.442 8.042-46.872 9.497-5.883 0.554-22.044 0.76-28.048 0.356zM809.417 621.977c-10.024-0.584-18.090-1.633-43.672-5.677-14.42-2.279-22.622-3.843-34.447-6.573-37.401-8.632-79.498-23.513-144.568-51.102-21.333-9.045-39.599-17.119-73.413-32.456-48.084-21.807-65.88-29.439-92.425-39.635-30.785-11.824-56.315-20.419-81.131-27.318-20.198-5.613-26.256-6.824-56.735-11.331-35.582-5.262-41.129-5.475-93.667-3.591-19.313 0.693-33.189 2.74-53.837 7.946-33.268 8.389-51.669 15.679-68.131 26.99-3.615 2.484-16.177 11.69-22.53 16.512-2.835 2.151-4.469 2.916-5.619 2.626-1.332-0.334-2.924-1.696-2.924-2.5 0-0.381 1.374-2.613 3.053-4.962 11.416-15.959 24.211-26.995 46.321-39.95 23.378-13.699 44.946-21.84 73.546-27.763 3.106-0.643 8.612-1.91 12.236-2.812 9.099-2.269 14.551-3.38 23.035-4.689 21.908-3.384 35.94-4.148 63.039-3.429 31.447 0.833 49.441 2.751 90.336 9.622 35.783 6.013 57.194 12.297 112.914 33.139 30.175 11.288 45.789 17.925 71.603 30.433 12.552 6.083 28.414 13.511 42.094 19.711 24.482 11.097 41.848 19.215 57.602 26.929 30.065 14.721 33.996 16.51 56.66 25.774 27.114 11.084 40.285 16.076 57.978 21.973 32.612 10.871 57.528 16.031 85.272 17.661 8.451 0.497 44.701 0.483 50.449-0.019 14.255-1.245 30.298-5.264 43.538-10.908 10.838-4.619 23.139-11.955 29.365-17.51 1.774-1.584 2.621-2.067 3.966-2.269 2.011-0.301 2.366 0.040 2.372 2.289 0.005 1.137-0.48 2.336-1.967 4.893-1.544 2.654-3.031 4.452-6.867 8.298-8.039 8.058-14.988 12.841-27.864 19.173-14.776 7.266-26.999 11.319-43.672 14.48-21.928 4.157-55.661 6.993-71.908 6.044zM836.546 585.083c-14.513-1.071-29.229-3.506-49.153-8.127-31.952-7.413-54.369-14.553-76.425-24.343-4.658-2.067-11.605-5.113-15.435-6.767s-7.982-3.513-9.223-4.132c-2.042-1.017-7.718-5.019-7.718-5.442 0-0.095 0.17-0.49 0.377-0.877 0.284-0.53 0.679-0.664 1.601-0.539 0.673 0.091 3.206 0.41 5.631 0.707 3.733 0.458 5.201 0.858 9.6 2.611 8.123 3.236 13.477 4.847 29.664 8.925 8.282 2.087 17.686 4.535 20.895 5.44 7.486 2.112 15.513 3.72 23.342 4.677 5.853 0.715 33.635 2.938 46.872 3.751 24.872 1.527 45.457 0.203 67.193-4.327 24.352-5.074 47.863-14.702 69.28-28.371 6.504-4.151 9.322-6.29 16.188-12.283 3.003-2.621 8.358-7.115 11.901-9.988s7.070-5.988 7.837-6.924c1.338-1.633 2.196-2.079 2.635-1.369 1.015 1.641-8.615 18.16-17.472 29.975-16.546 22.071-35.957 36.808-60.56 45.979-15.183 5.66-30.718 9.223-47.496 10.898-6.761 0.675-23.501 0.974-29.532 0.529zM541.552 566.073c-1.14-0.278-12.405-4.688-25.036-9.8-58.196-23.555-76.634-30.132-128.626-45.887-9.247-2.802-21.529-6.635-27.294-8.519-18.226-5.952-24.467-7.497-50.767-12.577-8.075-1.56-17.986-3.503-22.024-4.319-28.063-5.672-57.981-8.446-91.484-8.481-17.221-0.019-19.556 0.157-39.955 3.003-24.063 3.358-28.566 4.246-42.305 8.343-23.178 6.912-34.232 11.43-44.643 18.243-5.018 3.283-10.511 6.468-17.028 9.87-3.217 1.679-4.431 2.124-5.792 2.124h-1.723l0.24-1.75c0.133-0.962 0.452-2.007 0.709-2.319 1.011-1.225 11.459-10.821 14.903-13.687 11.011-9.166 25.759-17.083 48.719-26.15 23.938-9.455 35.753-12.344 65.228-15.959 17.020-2.087 21.427-2.524 29.93-2.965 20.73-1.076 30.147-0.846 43.631 1.071 4.266 0.607 10.892 1.374 14.722 1.706 10.499 0.911 18.599 2.185 42.165 6.629 45.647 8.612 79.532 18.991 120.661 36.966 34.695 15.161 64.894 29.977 90.544 44.42 13.531 7.619 15.968 9.177 19.457 12.428 1.826 1.701 4.547 3.928 6.049 4.949 1.713 1.164 2.729 2.11 2.729 2.541 0 0.792-0.215 0.802-3.012 0.119zM814.5 550.197c-10.599-0.292-24.838-1.534-36.33-3.17-18.771-2.669-33.304-5.647-66.636-13.649-28.903-6.938-27.97-6.75-32.376-6.559-5.089 0.221-6.581 0.913-9.457 4.379-1.218 1.468-2.502 2.673-2.855 2.679s-13.227-5.943-28.612-13.219c-15.384-7.275-38.899-18.374-52.255-24.661-15.575-7.333-24.587-11.779-25.13-12.394-1.125-1.273-1.067-2.804 0.219-5.812 2.753-6.442 7.020-12.276 14.037-19.201 3.006-2.965 5.541-5.817 6.085-6.844 0.513-0.969 1.631-2.425 2.485-3.236 2.042-1.942 2.094-3.504 0.238-7.066-1.591-3.053-3.581-10.234-3.581-12.921 0-2.574 0.669-4.068 2.604-5.815 1.841-1.661 11.111-6.276 13.161-6.551 1.692-0.227 3.451 0.463 5.848 2.292 2.797 2.135 3.059 2.051 8.978-2.868 4.413-3.667 5.174-4.528 5.174-5.839 0-1.566 1.443-5.013 2.9-6.924 0.787-1.032 2.835-2.989 4.549-4.349s3.367-2.827 3.671-3.26c0.777-1.11 0.684-3.881-0.217-6.489-0.423-1.224-2.219-6.967-3.993-12.765-3.21-10.493-3.641-11.655-4.926-13.275l-0.675-0.85-1.388 1.143c-0.763 0.629-2.551 2.791-3.971 4.804-28.25 40.008-72.69 102.549-73.425 103.332-1.491 1.588-3.101 1.412-6.211-0.674l-2.548-1.71 3.525-5.161c1.939-2.838 5.308-7.788 7.485-10.997s11.58-17.017 20.892-30.682c47.463-69.657 45.18-66.162 47.154-72.173 0.551-1.675 1.068-2.599 1.54-2.75 1.015-0.322 2.625-2.355 2.632-3.321 0.007-1.169-4.045-15.62-4.818-17.185-0.776-1.571-2.932-2.863-5.317-3.19-3.054-0.417-3.732-0.62-3.944-1.172-0.115-0.299 0.312-1.84 0.945-3.424 2.209-5.517 3.675-0.245-18.665-67.141-10.89-32.613-20.148-60.639-20.572-62.28-1.219-4.728-1.198-4.707-6.047-6.514-5.761-2.148-7.274-2.465-10.934-2.29-2.534 0.12-3.661 0.388-5.95 1.413-1.553 0.695-3.516 1.343-4.362 1.438-2.311 0.261-3.767-1.204-5.789-5.826-0.887-2.026-2.709-5.798-4.052-8.381-2.357-4.537-2.435-4.778-2.292-7.020 0.183-2.876 1.333-4.683 4.79-7.539 4.841-3.998 10.957-6.401 18.575-7.296 2.226-0.261 4.047-0.618 4.047-0.792 0-1.293-9.21-19.677-13.27-26.492-2.745-4.606-3.752-5.459-6.444-5.459-0.944 0-10.707 1.016-21.699 2.26s-20.698 2.254-21.568 2.248c-0.872-0.007-2.262-0.317-3.090-0.693l-1.505-0.683 1.855-1.184c1.020-0.651 2.375-1.27 3.012-1.377 1.29-0.214 18.772-2.285 31.93-3.783 4.709-0.537 9.246-1.176 10.081-1.422l1.519-0.448-8.222-15.058c-4.522-8.282-9.273-16.932-10.556-19.219-3.427-6.108-3.677-7.705-1.561-9.972 1.656-1.771 2.949-1.547 5.099 0.891 1.835 2.081 4.221 6.215 15.643 27.103 8.169 14.941 7.404 13.685 8.914 14.625 1.575 0.981 3.187 0.977 10.426-0.021 5.207-0.718 25.327-3.083 31.081-3.654 2.093-0.207 2.71-0.121 4.054 0.564 1.386 0.707 1.535 0.903 1.188 1.55-1.044 1.952-1.169 1.975-22.959 4.304-16.836 1.799-20.966 2.345-21.258 2.817-0.137 0.222 10.785 20.258 16.385 30.056 1.383 2.42 0.608 2.347 17.35 1.624l12.287-0.531 1.677 0.984c1.175 0.689 2.37 1.976 3.988 4.295 9.945 14.256 9.788 13.97 9.373 17.073-0.131 0.973-1.879 4.355-5.131 9.929-2.713 4.649-5.034 8.715-5.158 9.037-0.132 0.343 0.311 1.326 1.069 2.377 0.71 0.987 6.226 8.602 12.257 16.922s29.462 40.849 52.067 72.284c22.605 31.435 41.62 57.704 42.256 58.377 2.031 2.151 1.019 2.681 19.267-10.077 6.627-4.633 15.435-10.656 19.578-13.384 7.721-5.087 30.3-19.327 32.213-20.317 1.458-0.753 2.738-0.693 4.202 0.2 1.667 1.016 2.056 0.966 4.642-0.598 3.593-2.173 5.727-2.102 8.705 0.288 1.183 0.949 4.245 2.569 4.857 2.569 0.087 0 0.157-0.651 0.157-1.448 0-1.491 0.961-4.691 2.032-6.759 0.334-0.647 1.771-2.116 3.192-3.264s3.073-2.792 3.669-3.652c0.969-1.396 1.091-1.906 1.145-4.741 0.055-2.922 0.145-3.265 1.11-4.273 1.057-1.102 15.183-10.381 24.619-16.168 8.1-4.969 16.205-8.426 20.862-8.898 2.359-0.24 3.636 0.609 4.513 2.995 0.322 0.877 2.039 10.998 3.817 22.491s3.388 21.601 3.579 22.463c0.385 1.732 1.743 4.265 2.287 4.265 0.481 0 3.669-2.978 4.207-3.929 0.242-0.427 0.531-2.418 0.643-4.426 0.176-3.179 0.319-3.773 1.107-4.613 0.497-0.529 1.287-0.962 1.755-0.962s2.006 0.93 3.417 2.065c4.014 3.232 6.769 3.325 11.089 0.371 2.527-1.727 2.687-1.78 4.697-1.573 1.144 0.119 2.323 0.415 2.619 0.662 0.913 0.758 0.625 4.325-0.831 10.332-1.236 5.097-1.505 5.796-2.765 7.175-1.575 1.725-3.597 5.079-6.224 10.331-3.364 6.723-6.148 10.036-10.617 12.638-4.893 2.849-6.115 4.697-5.565 8.418 0.14 0.946 2.687 12.588 5.661 25.869 7.245 32.364 22.677 105.202 27.627 130.396 1.965 10 3.435 20.446 5.313 37.751 0.637 5.865 0.623 5.879-8.131 9.141-16.226 6.045-34.337 10.163-52.87 12.020-5.846 0.586-21.877 1.365-25.413 1.237-1.035-0.037-3.493-0.114-5.459-0.168zM662.524 399.697c3.115-0.595 5.681-1.731 6.043-2.675 0.645-1.681-0.119-4.003-5.201-15.798-3.087-7.164-3.426-8.459-2.835-10.812 0.525-2.082 1.532-3.331 10.717-13.295 8.709-9.447 8.781-9.533 9.065-10.957 0.226-1.136-1.15-3.713-1.981-3.713-0.735 0-22.649 26.948-26.121 32.123-2.267 3.378-3.558 7.282-3.221 9.739 0.129 0.936 0.888 3.166 1.687 4.955s1.757 4.062 2.127 5.050c1.19 3.171 3.956 5.691 6.461 5.887 0.241 0.019 1.708-0.209 3.261-0.507zM675.313 383.806c2.527-1.584 4.809-3.075 5.072-3.314 0.378-0.343-0.499-2.106-4.217-8.458-2.583-4.413-4.791-8.12-4.908-8.238-0.339-0.339-3.145 2.544-4.735 4.865-1.784 2.601-2.065 3.649-1.482 5.489 0.924 2.911 5.031 12.537 5.349 12.537 0.181 0 2.396-1.295 4.922-2.879zM689.626 371.528c1.59-3.988 2.892-7.651 2.892-8.138 0-0.518-1.827-3.521-4.391-7.227l-4.391-6.34-2.479 2.206c-3.062 2.726-4.196 3.935-5.453 5.813-1.771 2.65-1.579 3.212 4.678 13.621 4.513 7.507 4.371 7.315 5.425 7.315 0.721 0 1.192-0.917 3.718-7.251zM652.48 360.52c20.152-22.27 20.839-23.086 20.839-24.731 0-1.336-1.145-3.199-10.686-17.371-9.783-14.535-39.812-58.927-61.598-91.061-4.865-7.176-8.983-12.915-9.149-12.753-0.39 0.382 0.998 5.55 11.254 41.906 4.659 16.518 8.709 31.378 8.997 33.020 0.697 3.968 1.335 5.096 3.494 6.195 1.523 0.775 1.874 1.175 2.439 2.783 1.176 3.352 3.501 6.358 6.414 8.297 3.579 2.383 5.538 4.287 5.538 5.383 0 0.488-0.602 2.106-1.337 3.593-2.043 4.135-2.036 4.366 0.371 11.424 2.709 7.945 3.786 10.204 6.181 12.984 3.065 3.557 3.229 4.738 1.339 9.626-0.661 1.709-0.658 1.738 0.304 4.141 2.512 6.266 6.826 15.803 7.107 15.705 0.173-0.060 3.993-4.175 8.49-9.144zM767.031 334.682c4.077-0.698 5.676-1.908 6.475-4.899 1.111-4.154-2.525-8.606-8.405-10.293-2.328-0.667-3.326-0.443-4.051 0.909-0.209 0.391-0.581 3.178-0.826 6.195-0.507 6.234-0.329 7.088 1.66 7.952 1.509 0.656 2.032 0.67 5.145 0.136zM561.506 175.433c0-0.695-0.154-0.769-1.177-0.565-0.647 0.13-2.257 0.235-3.577 0.235-1.883 0-2.401 0.121-2.401 0.565 0 0.462 0.649 0.565 3.577 0.565 3.395 0 3.577-0.040 3.577-0.8zM532.679 172.186c1.578-1.813 2.966-3.665 3.084-4.12 0.149-0.579-0.15-1.278-1.001-2.336l-1.214-1.511-2.149 1.653c-2.989 2.301-4.529 4.143-4.529 5.425 0 1.049 1.95 4.184 2.601 4.184 0.186 0 1.63-1.482 3.209-3.295zM529.193 165.439l3.28-3.265-1.897-2.742c-2.656-3.843-2.697-3.867-4.378-2.514-3.371 2.712-3.921 5.331-1.981 9.433 0.612 1.295 1.244 2.353 1.405 2.353s1.767-1.469 3.571-3.265zM544.462 164.957c2.984-0.503 2.982-0.499 1.358-3.107-1.883-3.021-4.259-2.969-8.692 0.193-0.88 0.627-1.601 1.256-1.601 1.397s0.504 0.952 1.12 1.801l1.12 1.546 2.002-0.689c1.101-0.379 3.213-0.893 4.693-1.142zM552.899 162.316c-0.281-3.516-1.384-4.534-4.116-3.799-0.854 0.231-1.651 0.577-1.771 0.77-0.302 0.489 1.536 4.015 2.345 4.499 0.365 0.217 1.34 0.355 2.169 0.303l1.505-0.092zM578.15 161.887c2.131-0.23 3.933-0.472 4.006-0.539 0.16-0.147-1.604-2.592-2.91-4.031-1.106-1.219-2.429-1.305-9.359-0.602-5.201 0.527-5.73 0.976-3.563 3.029 2.978 2.821 3.934 2.994 11.826 2.146zM597.128 160.493c0.773-0.432-1.547-3.586-3.433-4.668-1.196-0.685-2.052-0.86-4.143-0.84-2.668 0.024-8.303 1.093-8.64 1.638-0.101 0.163 0.732 1.281 1.851 2.483l2.035 2.186 5.905-0.255c3.248-0.14 6.139-0.385 6.424-0.545zM539.318 159.295c1.332-0.827 2.667-1.657 2.964-1.843 0.469-0.295 0.472-0.557 0.018-1.935-1.809-5.481-5.095-6.321-10.465-2.674l-2.306 1.566 1.136 1.971c0.624 1.085 1.717 2.522 2.429 3.195 1.785 1.688 3.152 1.628 6.223-0.279zM549.579 156.41l1.439-0.238-0.259-1.923c-0.49-3.654-1.669-5.467-3.563-5.482-0.917-0.007-4.824 0.918-5.118 1.211-0.080 0.080 0.205 1.19 0.637 2.465 1.26 3.731 2.822 4.634 6.864 3.967zM573.808 154.741c1.619-0.225 3.012-0.475 3.093-0.556 0.423-0.42-1.407-3.941-2.755-5.302-2.080-2.1-3.957-2.597-7.692-2.043-4.081 0.608-6.946 1.5-6.539 2.037 0.182 0.241 1.147 1.516 2.143 2.832s2.338 2.623 2.982 2.904c1.434 0.623 4.846 0.675 8.767 0.13zM589.040 153.576c1.835-0.245 3.336-0.54 3.334-0.659-0.005-0.119-0.508-1.094-1.124-2.167-1.953-3.403-4.326-4.725-8.481-4.725-2.304 0.001-7.333 1.017-7.333 1.482 0 0.596 3.731 5.227 4.677 5.803 1.375 0.838 4.027 0.917 8.927 0.265z"></path>
    </svg>