<svg xmlns="http://www.w3.org/2000/svg" viewBox="11.140 -50.070 982.332 1122.070">
    <path fill="#000000" d="M101.789 881.974c0-109.099 0.027-110.076 3.238-116.236l3.238-6.213-4.003-16.805c-3.848-16.151-4.004-18.573-4.028-62.243l-0.026-45.439-4.534-7.643c-2.494-4.204-4.534-8.676-4.534-9.937 0.001-2.098 11.246-9.538 24.321-16.091 2.896-1.451 13.214-4.611 22.93-7.020l17.666-4.382 88.283-0.013c69.511-0.008 88.319-0.418 88.45-1.923 0.092-1.051 0.291-9.478 0.441-18.727 0.293-18.040-1.314-24.272-6.702-25.982-5.072-1.61-5.509-7.665-0.943-13.090 5.523-6.563 5.654-17.777 0.263-22.463-3.012-2.619-3.5-4.048-2.572-7.538 1.065-4.003 1.755-4.338 9.821-4.763 9.803-0.518 9.889-0.644 10.594-15.593l0.397-8.408h25.988l0.764 16.052c0.42 8.828 1.321 16.912 2.002 17.963 1.385 2.14 18.923 2.653 22.085 0.646 1.521-0.966 1.838-28.953 1.529-134.837l-0.39-133.618-6.879-2.432c-6.371-2.253-6.85-2.793-6.49-7.319 0.214-2.688 2.532-12.278 5.152-21.312 3.191-11.006 5.123-21.764 5.857-32.611 0.874-12.92 1.845-17.548 4.815-22.93 4.026-7.298 7.236-8.511 9.75-3.686 8.752 16.793 10.856 18.613 24.728 21.383 5.588 1.117 4.858 1.926 19.978-22.148 5.544-8.828 12.29-19.492 14.988-23.695 19.249-29.988 26.545-42.771 27.288-47.807 0.462-3.134 1.635-13.609 2.607-23.278 1.749-17.412 3.122-21.906 5.813-19.032 0.748 0.799 2.401 11.819 3.672 24.49 2.629 26.2-1.047 18.043 30.778 68.299 9.186 14.506 18.996 30.009 21.8 34.453s6.042 8.442 7.196 8.885c1.154 0.443 5.896-0.298 10.537-1.648 8.021-2.332 8.729-2.959 14.342-12.707 3.248-5.639 6.885-10.253 8.084-10.253s3.94 3.423 6.093 7.605c3.21 6.239 3.864 9.502 3.646 18.16-0.206 8.157 1.060 15.286 5.572 31.377 9.409 33.552 9.501 31.39-1.484 34.629l-5.35 1.578-0.391 133.618c-0.309 105.883 0.008 133.871 1.529 134.837 2.458 1.561 18.15 1.591 20.591 0.039 1.223-0.777 2.004-6.891 2.293-17.939l0.437-16.76h27.517l1.529 22.93 9.937 0.764c9.907 0.762 9.938 0.779 10.415 5.722 0.394 4.083-0.219 5.275-3.476 6.759-7.067 3.219-7.1 14.591-0.068 22.949 2.107 2.503 3.83 5.343 3.83 6.311s-2.773 4.295-6.161 7.392l-6.161 5.633 0.858 39.25 178.859 1.57 18.306 4.994c17.946 4.896 41.055 15.59 44.092 20.403 0.976 1.548 0.008 4.514-3.193 9.793l-4.594 7.573-0.855 48.919c-0.751 42.926-1.234 50.229-3.948 59.619-3.922 13.568-3.945 19.079-0.114 26.429 2.998 5.753 3.059 8.34 2.676 114.319l-0.393 108.433-800.281 0.771zM205.436 942.766c2.828-2.828 2.497-97.977-0.389-111.596-5.264-24.837-23.019-38.399-39.7-30.324-8.305 4.021-13.765 10.159-19.087 21.458l-3.96 8.408-0.515 54.717c-0.388 41.19-0.058 55.268 1.334 56.945 2.451 2.952 59.398 3.312 62.318 0.393zM312.445 942.766c2.938-2.938 2.555-103.298-0.439-114.79-9.278-35.622-41.933-39.812-57.163-7.333l-4.005 8.54-0.438 55.698c-0.241 30.634-0.090 56.603 0.334 57.709 1.061 2.766 58.956 2.931 61.71 0.176zM532.913 942.276c2.449-2.95 1.135-109.972-1.456-118.614-2.228-7.431-9.786-17.599-15.815-21.277-8.435-5.145-13.929-5.353-23.084-0.875-9.728 4.76-15.233 11.959-19.414 25.392-2.659 8.543-2.936 14.461-2.936 62.675 0 41.163 0.433 53.416 1.911 54.012 1.051 0.425 14.725 0.825 30.387 0.892 23.726 0.1 28.798-0.267 30.406-2.205zM749.090 942.199c2.078-2.078 2.396-8.523 2.355-47.772-0.053-50.943-1.298-64.771-6.858-76.134-4.904-10.024-9.989-15.054-18.502-18.306-5.673-2.167-7.789-2.299-12.792-0.8-11.811 3.538-21.232 14.845-25.262 30.318-1.797 6.9-2.273 19.657-2.273 60.893 0 28.69 0.458 52.623 1.019 53.183s14.27 1.019 30.465 1.019c24.73 0 29.83-0.384 31.848-2.402zM860.795 884.87v-58.967l-4.605-9.001c-6.158-12.037-14.316-17.88-24.96-17.88-12.655 0-21.518 6.926-28.82 22.523l-4.292 9.168-0.486 55.643c-0.391 44.782-0.093 55.897 1.529 56.939 1.108 0.713 15.429 1.126 31.824 0.919l29.81-0.377v-58.967zM206.917 699.243c0.245-22.746-0.247-41.384-1.212-46.040-2.42-11.663-8.433-19.884-17.95-24.545-15.239-7.462-30.901-2.111-40.831 13.948l-4.622 7.476-0.543 41.785c-0.298 22.982-0.143 42.828 0.346 44.102 0.762 1.986 5.427 2.258 32.646 1.903l31.757-0.413zM313.926 699.353c0.229-21.301-0.278-41.864-1.149-46.626-5.901-32.251-45.128-36.977-59.556-7.175-2.948 6.091-3.147 9.217-3.147 49.617v43.117l63.442-0.826 0.41-38.108zM533.65 693.892v-43.568l-4.227-8.021c-5.29-10.038-14.027-15.969-24.818-16.851-6.226-0.508-9.199 0.194-16.028 3.784-12.248 6.438-16.638 14.24-18.428 32.743-1.588 16.424-1.9 61.968-0.483 70.544l0.953 5.763 63.032-0.825zM750.852 734.453c0.52-2.075 0.674-21.164 0.339-42.422-0.509-32.422-1.034-39.622-3.258-44.682-12.052-27.422-41.252-29.862-56.79-4.746l-4.622 7.472-0.975 88.149h64.358zM861.551 695.803c-0.005-23.332-0.679-44.829-1.497-47.772-3.381-12.15-17.135-22.825-29.501-22.898-7.664-0.045-19.781 6.257-24.875 12.935-7.652 10.032-8.184 13.74-8.257 57.479-0.039 22.351 0.392 41.097 0.953 41.658s15.007 1.019 32.103 1.019h31.084l-0.008-42.422zM456.592 579.227c1.368-12.718 4.21-19.675 11.083-27.131 9.39-10.187 19.283-14.693 32.399-14.758 23.371-0.115 41.025 15.891 43.131 39.104 0.443 4.889 1.653 9.592 2.687 10.45 1.22 1.013 20.080 1.419 53.676 1.159l51.795-0.403v-13.759l-91.3-1.529-3.363-9.29c-6.078-16.791-13.87-26.148-29.355-35.249-7.173-4.216-8.199-4.38-27.381-4.38h-19.929l-8.912 5.35c-11.955 7.178-21.348 18.152-25.401 29.678-1.8 5.118-3.807 10.337-4.463 11.598-1.001 1.928-8.096 2.415-44.593 3.057l-43.403 0.764-0.49 5.114c-0.957 9.994-3.857 9.49 52.043 9.048l50.87-0.403zM519.458 467.761c17.98-11.403 21.18-35.983 6.752-51.862-11.83-13.019-35.746-13.019-47.881 0-5.001 5.365-9.579 16.554-9.601 23.462-0.039 12.31 9.705 26.499 21.399 31.166 2.077 0.829 7.941 1.551 13.031 1.604 7.702 0.081 10.438-0.653 16.299-4.371zM526.007 265.088v-44.333l-3.822-6.82c-5.382-9.605-12.727-14.285-20.998-13.378-9.216 1.009-13.202 4.231-18.597 15.028l-4.737 9.48v41.541c0 22.848 0.476 42.017 1.058 42.598s11.416 0.868 24.077 0.637l23.020-0.42z"></path>
    </svg>