<svg xmlns="http://www.w3.org/2000/svg" viewBox="-32.422 -48.260 1113.710 1120.698">
    <path fill="#000000" d="M218.422 991.849c-1.801-0.091-8.34-0.409-14.532-0.708-9.81-0.473-11.559-0.658-13.61-1.446-4.598-1.766-8.313-6.217-14.197-17.015-9.452-17.342-15.434-38.064-18.671-64.676-0.903-7.423-1.232-24.278-0.635-32.564 1.287-17.862 3.705-32.459 7.626-46.030 2.618-9.061 5.094-15.397 9.635-24.643 3.377-6.878 4.435-8.653 6.289-10.553 4.164-4.266 6.88-4.974 24.996-6.525 23.645-2.024 24.244-2.048 38.213-1.509 16.569 0.638 21.723 1.043 29.534 2.32 7.403 1.21 8.762 1.59 9.844 2.751 1.413 1.517 1.038 3.736-2.11 12.478-8.117 22.539-10.503 30.708-12.63 43.237-2.524 14.872-3.53 31.922-2.872 48.69 1.327 33.81 5.376 52.059 17.605 79.368 2.22 4.957 4.153 9.543 4.296 10.191 0.208 0.947 0.030 1.407-0.907 2.344-1.022 1.022-1.72 1.247-5.661 1.824-6.487 0.95-7.591 1.057-18.004 1.756-8.999 0.603-37.321 1.059-44.21 0.712zM802.149 991.665c-18.074-0.876-36.15-2.060-37.346-2.447-1.657-0.535-2.974-2.167-2.974-3.684 0-1.632 0.803-3.855 5.015-13.877 2.033-4.84 4.479-11.011 5.435-13.713 3.087-8.733 6.452-23.169 9.165-39.315 2.426-14.439 2.663-17.104 2.661-30.069-0.005-30.39-4.976-57.886-14.687-81.204-4.843-11.632-5.466-15.546-2.707-17.022 1.040-0.556 10.42-2.353 14.973-2.868 4.78-0.541 60.501-0.546 65.7-0.005 6.355 0.66 15.171 2.446 17.236 3.493 2.513 1.273 4.635 3.757 7.26 8.495 6.273 11.323 11.79 26.234 14.949 40.4 2.309 10.356 3.135 16.746 4.567 35.344 0.938 12.186 0.995 14.197 0.604 21.49-0.806 15.043-2.468 26.678-5.597 39.158-3.076 12.27-7.292 23.964-11.289 31.315-5.044 9.274-10.413 18.27-11.632 19.488-1.957 1.957-4.928 3.348-8.186 3.833-8.917 1.328-37.226 1.961-53.144 1.19zM150.266 985.974c-3.187-0.317-16.857-2.841-26.813-4.95-7.904-1.675-23.287-5.591-36.202-9.217-24.72-6.939-27.751-8.146-31.941-12.718-5.437-5.934-6.457-11.698-7.368-41.67-0.364-11.954 0.284-39.682 1.212-51.925 0.751-9.907 4.097-16.563 11.619-23.123 3.524-3.072 7.598-5.697 18.878-12.16 21.907-12.552 41.356-21.67 59.664-27.968 6.609-2.273 10.37-2.899 12.736-2.119 3.317 1.095 3.177 3.107-1.206 17.415-8.642 28.211-11.341 44.408-11.356 68.156-0.009 15.026 1.469 30.111 4.473 45.623 2.41 12.449 4.384 18.927 11.255 36.937 2.979 7.81 4.87 13.343 4.87 14.252 0 3.649-1.757 4.269-9.824 3.468zM890.463 985.807c-3.013-1.367-2.737-3.365 2.114-15.313 4.758-11.719 6.249-17.004 11.858-42.023 3.81-17 3.981-18.418 4.233-35.344 0.481-32.192-2.517-52.044-12.145-80.423-2.745-8.091-3.101-10.707-1.655-12.154 1.193-1.193 3.082-1.043 9.838 0.781 13.232 3.575 23.348 7.584 40.307 15.976 15.612 7.726 37.275 20.363 44.133 25.746 4.333 3.401 7.781 8.93 9.091 14.575 0.731 3.154 1.58 14.2 2.469 32.158 0.547 11.042 0.582 15.217 0.207 24.561-1.119 27.899-2.063 35.925-4.825 41.057-2.442 4.538-7.615 8.393-14.029 10.457-4.725 1.521-25.263 7.301-37.209 10.474-12.241 3.25-17.569 4.428-27.906 6.168-3.473 0.585-9.171 1.595-12.66 2.245-8.382 1.562-12.083 1.845-13.819 1.058zM306.723 978.809c-2.722-1.385-4.405-3.559-7.095-9.169-9.789-20.412-15.036-38.93-17.173-60.614-0.622-6.302-0.821-27.846-0.346-37.251 1.154-22.822 5.781-42.008 15.418-63.94 2.811-6.396 4.487-8.7 7.473-10.271 2.111-1.111 2.477-1.172 5.933-0.995 2.822 0.144 5.407 0.686 11.052 2.313 24.638 7.101 48.086 16.308 71.021 27.887 8.734 4.409 11.091 6.146 14.137 10.415 5.709 8.001 10.951 25.32 13.071 43.188 1.049 8.838 1.604 26.211 1.146 35.818-0.45 9.42-0.811 10.998-3.36 14.704-2.137 3.105-5.347 5.1-15.844 9.848-14.7 6.648-81.811 36.354-85.014 37.631-1.597 0.637-3.968 1.206-5.527 1.326-2.393 0.185-2.994 0.076-4.893-0.89zM734.502 979.231c-1.409-0.311-5.369-1.797-8.801-3.302-16.564-7.265-86.694-38.462-88.313-39.285-4.534-2.305-7.883-6.604-9.47-12.154-0.922-3.224-0.966-3.925-0.9-14.58 0.146-23.718 1.85-38.961 5.882-52.618 3.838-13.001 7.028-19.285 12.238-24.108 2.084-1.929 4.308-3.226 13.133-7.659 14.511-7.288 19.626-9.324 49.318-19.627 26.128-9.066 27.929-9.623 31.11-9.635 2.398-0.009 3.177 0.173 4.776 1.113 2.694 1.584 4.548 3.931 6.873 8.704 14.881 30.546 20.327 72.91 14.522 112.977-2.619 18.082-8.074 35.892-15.383 50.228-4.565 8.954-8.288 11.425-14.987 9.947zM448.836 905.997c-3.965-1.846-5.303-4.719-5.68-12.196-1.175-23.273-5.049-41.873-12.266-58.876-1.287-3.034-4.097-8.938-6.243-13.12-3.995-7.786-4.289-8.851-2.661-9.652 0.822-0.405 194.977-0.724 200.573-0.33 4.003 0.282 5.004 0.75 5.004 2.339 0 0.474-1.558 3.731-3.463 7.237-11.054 20.347-16.341 39.563-18.419 66.957-0.342 4.503-0.733 9.008-0.869 10.012-0.541 3.983-2.992 7.161-6.28 8.147-1.144 0.342-21.041 0.466-74.58 0.463l-73.021-0.005-2.094-0.975zM102.688 787.894c-3.378-0.343-4.296-1.332-4.017-4.331 0.171-1.846 7.674-16.22 21.688-41.548 8.159-14.747 15.569-27.79 16.467-28.985 2.060-2.741 5.71-5.446 9.030-6.689l2.57-0.963 374.468-0.104c331.027-0.092 374.809-0.033 377.405 0.508 5.363 1.118 9.288 3.818 12.31 8.468 2.713 4.175 35.81 64.077 36.457 65.985 0.755 2.224 0.847 4.86 0.21 6.049-0.719 1.343-2.901 1.986-6.751 1.986-4.437 0-5.183-0.196-24.326-6.402-38.184-12.378-48.364-14.678-73.887-16.692-16.325-1.288-24.087-1.564-38.196-1.353-16.769 0.25-25.271 1.103-46.13 4.629-12.284 2.077-35.73 7.335-43.808 9.825-13.117 4.043-14.254 4.328-16.658 4.165-4.396-0.297-3.761 0.854-16.303-29.581-6.008-14.579-6.594-15.837-9.495-20.367-2.969-4.638-4.763-4.835-6.194-0.679-0.734 2.13-0.744 3.122-0.264 25.415 0.275 12.758 0.368 24.149 0.209 25.313-0.401 2.918-1.999 4.7-4.743 5.288-2.754 0.591-275.407 0.619-277.531 0.029-0.804-0.223-1.91-0.882-2.456-1.464l-0.993-1.058-0.023-25.039c-0.015-15.858-0.182-25.84-0.457-27.226-0.28-1.415-0.817-2.571-1.519-3.273-1.026-1.026-1.148-1.052-2.204-0.473-1.723 0.943-9.545 16.976-15.654 32.091-6.327 15.653-7.929 18.962-9.778 20.195-2.547 1.699-3.721 1.507-19.69-3.22-15.502-4.589-22.017-6.062-40.321-9.116-24.288-4.053-40.606-5.674-57.308-5.691-15.154-0.016-31.153 1.339-50.332 4.263-21.402 3.263-32.359 6.196-62.391 16.704-6.523 2.283-9.155 3.005-12.076 3.312-2.054 0.217-4.012 0.366-4.349 0.332s-1.67-0.169-2.96-0.3zM115.837 691.358l-1.348-3.173-0.31-10.079c-0.171-5.543-0.264-28.201-0.208-50.349 0.093-36.554 0.168-40.591 0.82-43.749 3.208-15.535 11.372-26.386 25.976-34.527 10.501-5.854 31.46-16.52 51.048-25.98 6.908-3.337 10.759-4.933 14.462-5.995 6.248-1.793 8.272-1.872 9.455-0.37 1.204 1.53 1.080 2.501-0.949 7.44-4.128 10.051-6.734 14.888-45.393 84.241-25.831 46.34-27.131 48.659-35.091 62.587-11.273 19.73-10.504 18.552-13.724 20.978-1.568 1.182-2.973 2.149-3.121 2.149s-0.876-1.428-1.617-3.173zM928.854 693.813c-3.339-1.683-7.429-8.775-61.427-106.532-26.059-47.176-32.571-59.294-33.326-62.016-0.312-1.126-0.684-3.49-0.828-5.255l-0.26-3.208 9.251 0.317 8.714 4.17c14.691 7.031 48.743 23.836 53.507 26.406 6.195 3.341 11.725 7.083 15.231 10.302 7.545 6.931 12.657 16.825 13.998 27.094 0.869 6.658 2.628 51.562 2.049 52.338-0.169 0.227-0.385 10.082-0.48 21.9-0.208 25.975-0.727 31.789-3.079 34.484-0.788 0.903-1.559 0.902-3.352 0zM161.613 681.856c-3.767-0.731-4.837-2.359-3.828-5.82 0.658-2.257 9.543-18.749 27.194-50.481 10.912-19.616 12.51-21.965 16.385-24.073 1.151-0.626 3.341-1.403 4.868-1.727 2.399-0.508 45.626-0.588 318.79-0.587h316.014l2.705 0.954c3.339 1.178 5.957 2.947 8.173 5.519 1.601 1.859 32.94 57.874 37.065 66.249 2.801 5.689 2.641 7.994-0.663 9.5-1.308 0.596-32.998 0.658-363.294 0.709-199.024 0.031-362.558-0.079-363.41-0.245zM220.878 575.62c-0.225-0.076-0.921-0.25-1.545-0.388-3.012-0.666-3.57-3.494-1.466-7.438 5.278-9.893 19.148-31.747 24.24-38.196 14.071-17.815 32.248-29.413 53.564-34.175 11.277-2.519 0.136-2.342 159.763-2.552 173.444-0.228 283.694 0.251 290.635 1.265 28.917 4.221 51.255 19.828 71.208 49.755 4.431 6.646 10.204 16.554 12.933 22.196 2.571 5.316 2.641 7.515 0.281 8.804-1.263 0.69-15.455 0.727-305.263 0.795-167.167 0.038-304.123 0.009-304.348-0.067zM308.152 469.383c-6.723-0.646-8.712-1.91-8.369-5.315 0.204-2.028 5.866-16.735 7.553-19.623 1.55-2.651 4.082-5.264 6.837-7.054 3.010-1.956 7.838-3.517 16.819-5.437 3.828-0.818 16.354-3.614 27.835-6.212s29.375-6.543 39.76-8.765c10.386-2.223 27.517-5.996 38.069-8.386 39.532-8.952 63.692-14.129 77.636-16.633 5.922-1.064 15.539-1.253 20.348-0.401 3.955 0.7 22.318 4.76 33.362 7.374 4.728 1.119 14.951 3.428 22.718 5.128s28.399 6.238 45.847 10.083c48.586 10.705 78.988 17.371 85.758 18.803 11.774 2.49 16.206 5.669 20.599 14.779 3.393 7.036 5.804 13.803 5.804 16.288 0 2.36-1.019 3.907-3.241 4.916-1.348 0.613-18.835 0.67-217.806 0.714-118.987 0.026-217.776-0.091-219.531-0.26zM390.328 394.839c-11.202-5.097-6.293-2.104-78.983-48.172-29.378-18.619-32.443-20.823-34.472-24.797-1.298-2.543-1.702-7.171-0.956-10.961 0.926-4.709 14.917-44.887 21.003-60.314 8.887-22.527 26.968-60.931 39.414-83.711 11.678-21.376 29.386-49.873 43.366-69.793 6.104-8.698 10.553-13.703 12.184-13.712 0.787-0.005 0.144 4.017-1.507 9.417-5.263 17.216-14.73 52.994-16.364 61.846-2.632 14.248-4.012 36.428-3.169 50.903 0.507 8.709 1.893 21.969 3.359 32.155 4.749 33 17.64 64.39 36.25 88.273 5.215 6.694 10.754 12.739 18.147 19.809 10.682 10.214 11.074 11.088 11.074 24.664v9.15l-1.126 2.201c-0.619 1.211-1.586 2.533-2.149 2.937-1.182 0.85-11.135 3.233-29.473 7.056-7.092 1.478-13.364 2.934-13.938 3.236-0.901 0.473-1.264 0.447-2.661-0.188zM647.826 393.462c-15.707-3.369-34.747-8.018-35.993-8.788-0.788-0.488-1.776-1.635-2.252-2.618-0.779-1.609-0.847-2.484-0.847-10.789 0-10.085 0.393-12.301 2.889-16.288 0.705-1.126 5.195-5.915 9.977-10.643 8.813-8.712 12.284-12.605 17.966-20.145 15.863-21.053 28.045-49.188 33.817-78.097 1.97-9.864 2.848-17.41 4.884-41.958l0.73-8.801-1.549-15.555c-3.184-31.974-4.083-36.274-15.622-74.706-3.848-12.816-4.967-17.071-4.933-18.747 0.024-1.192 0.133-2.257 0.242-2.366 1.719-1.719 15.513 17.385 34.158 47.312 25.78 41.379 48.464 86.576 63.073 125.669 7.317 19.581 17.805 51.35 18.566 56.242 0.715 4.593-0.519 8.731-3.635 12.178-0.825 0.913-3.534 2.999-6.020 4.636-5.11 3.365-51.193 32.57-72.84 46.162-7.857 4.934-16.222 10.27-18.59 11.858-9.652 6.475-14.305 7.53-24.023 5.446zM464.643 377.799c-2.186-1.092-2.406-2.26-2.44-12.996-0.053-16.466-1.882-20.878-12.296-29.66-16.012-13.501-27.718-28.463-37.396-47.793-9.753-19.48-15.796-40.207-18.716-64.196-1.085-8.911-1.532-31.891-0.82-42.181 2.483-35.901 11.189-67.671 27.251-99.438 8.017-15.856 15.909-28.548 20.878-33.574 4.778-4.833 10-7.912 16.257-9.585 4.368-1.168 25.692-3.846 39.211-4.924 11.269-0.898 27.957-1.712 28.196-1.374 0.139 0.196 5.687 0.357 12.329 0.359 11.022 0.002 13.058 0.118 23.332 1.329 19.617 2.313 30.67 4.21 35.204 6.041 6.557 2.648 13.382 8.698 18.492 16.392 5.966 8.982 15.119 26.323 20.558 38.947 17.207 39.944 24.156 81.877 20.491 123.66-2.146 24.469-8.562 47.778-18.803 68.305-9.385 18.812-20.534 33.216-36.088 46.625-6.415 5.531-8.683 8.036-10.365 11.453-2.209 4.488-2.863 8.044-3.305 17.977-0.22 4.953-0.502 9.949-0.624 11.102-0.248 2.312-1.208 3.671-2.897 4.095-1.077 0.27-11.618-1.883-38.626-7.895-14.945-3.326-19.353-3.863-25.209-3.076-1.818 0.245-10.567 2.030-19.442 3.968-13.29 2.902-33.312 7.159-33.653 7.156-0.047 0-0.729-0.322-1.518-0.716zM551.223 271.075c4.253-0.814 7.341-2.269 8.155-3.845 1.335-2.582 0.358-4.994-2.558-6.32-1.84-0.836-2.756-0.884-23.406-1.218-25.523-0.412-36.544-0.217-39.559 0.704-2.307 0.704-5.060 3.278-5.060 4.731 0 0.449 0.659 1.546 1.464 2.438 1.582 1.751 4.47 3.059 8.092 3.664 1.161 0.194 12.823 0.374 25.918 0.4 19.398 0.039 24.391-0.064 26.953-0.554zM461.042 182.799c2.855-0.604 9.52-3.565 25.706-11.421 7.83-3.8 13.977-7.042 14.941-7.879 1.532-1.331 1.633-1.556 1.577-3.497-0.083-2.816-1.742-6.366-3.466-7.415-2.124-1.292-5.155-1.418-16.718-0.697-5.976 0.373-14.733 0.863-19.461 1.089-9.838 0.471-22.046 1.388-30.087 2.263-8.242 0.896-10.588 2.369-10.962 6.876-0.157 1.882-0.005 2.559 0.977 4.363 2.947 5.414 12.705 11.831 22.060 14.507 7.912 2.263 11.371 2.668 15.432 1.808zM602.593 181.42c7.129-2.304 14.897-6.834 19.338-11.274 3.146-3.146 4.383-5.469 4.395-8.261 0.007-1.582-0.22-2.191-1.257-3.373-1.759-2.002-4.191-2.625-12.242-3.128-7.059-0.442-32.861-2.43-44.824-3.454-7.852-0.672-14.788-0.758-17.136-0.214-3.086 0.716-5.173 4.129-5.173 8.457 0 3.081 0.975 3.793 13.713 10.017 25.398 12.41 26.19 12.699 34.18 12.496 4.664-0.119 6.069-0.316 9.006-1.266z"></path>
    </svg>