<svg xmlns="http://www.w3.org/2000/svg" viewBox="-60.017 79.800 1164.232 864.200">
    <path fill="#000000" d="M21.045 862.958c-0.585-0.585-1.062-87.639-1.062-193.452v-192.391h117.531c104.869 0 117.801 0.27 120.020 2.489 2.24 2.24 2.448 21.368 2.085 193.048l-0.402 190.559-118.556 0.404c-65.205 0.224-119.036-0.072-119.62-0.657zM108.253 853.931c1.263-1.524 1.677-12.975 1.379-38.295l-0.424-36.121-22.094-0.443c-19.397-0.389-22.336-0.11-24.083 2.275-2.761 3.777-2.844 70.108-0.094 72.859 2.862 2.862 42.915 2.616 45.315-0.278zM218.638 854.209c1.358-1.358 1.896-11.534 1.896-35.8 0-29.332-0.352-34.294-2.613-36.793-2.272-2.51-5.246-2.888-22.704-2.888-15.756 0-20.508 0.501-22.017 2.323-1.403 1.689-1.877 11.857-1.747 37.301 0.1 19.238 0.567 35.602 1.040 36.366 1.361 2.206 43.907 1.736 46.151-0.508zM43.411 852.468c1.117-1.348 1.865-18.928 2.167-51.046l0.46-48.989 4.344-6.562c6.308-9.524 14.777-13.355 31.394-14.196 16.187-0.82 22.158 0.84 31.359 8.718 12.225 10.464 12.575 12.254 12.612 64.47 0.037 46.818 0.685 52.134 5.839 47.855 1.651-1.37 2.091-11.839 2.091-49.757 0-53.587-0.216-54.919-10.736-65.819-7.838-8.124-15.243-11.698-28.488-13.752-25.24-3.916-50.397 8.327-57.305 27.891-3.299 9.342-3.097 99.611 0.226 101.712 3.131 1.981 4.021 1.904 6.034-0.523zM155.789 805.167c0-49.771 0.58-54.177 8.397-63.657 6.739-8.179 12.615-10.159 30.139-10.159 17.48 0 21.716 1.301 29.893 9.174 10.713 10.316 10.53 9.224 10.53 62.541 0 45.238 0.18 48.283 2.917 49.748 2.008 1.073 3.483 0.994 4.736-0.259 2.569-2.569 2.536-92.397-0.037-100.979-2.351-7.849-12.377-19.319-20.84-23.839-5.406-2.888-8.815-3.439-19.941-3.232-16.442 0.306-33.61 4.121-41.257 9.17-3.493 2.305-7.343 7.024-9.871 12.093l-4.142 8.311v48.564c0 44.499 0.23 48.692 2.745 50.1 6.298 3.526 6.727 0.475 6.727-47.581zM44.461 632.657c0-44.856 0.177-47.752 3.325-54.479 1.829-3.91 4.67-8.279 6.318-9.717 7.412-6.463 37.822-11.273 48.659-7.695 7.926 2.615 16.558 10.434 20.081 18.189 2.566 5.647 2.882 11.281 2.933 52.124 0.031 25.186 0.705 46.815 1.492 48.063 1.189 1.878 1.862 1.913 3.922 0.203 2.162-1.796 2.49-8.156 2.49-48.506 0-50.054-0.183-51.377-8.884-63.98-7.084-10.258-13.781-13.641-30.762-15.535-21.958-2.448-35.075 1.15-47.048 12.898-10.852 10.65-11.138 12.348-11.175 66.2-0.017 26.561 0.468 48.8 1.084 49.416s2.569 0.911 4.342 0.657c3.163-0.454 3.223-1.348 3.223-47.834zM154.83 678.325c0.527-1.373 0.959-23.425 0.959-49.003 0-51.634 0.254-53.193 10.038-61.782 8.118-7.127 20.73-10.51 33.964-9.104 17.353 1.841 25.965 6.826 31.95 18.499 2.755 5.369 3.008 9.796 3.030 52.902 0.015 27.176 0.663 48.043 1.535 49.41 1.171 1.833 2.144 1.975 4.318 0.619 2.577-1.606 2.844-5.715 3.229-49.679l0.419-47.928-4.054-8.289c-7.277-14.869-19.839-22.015-41.67-23.699-18.219-1.403-28.433 2.047-39.823 13.456-5.924 5.934-9.495 11.046-10.651 15.242-1.083 3.927-1.744 23.764-1.748 52.428-0.008 42.257 0.224 46.246 2.756 47.722 3.798 2.212 4.646 2.096 5.753-0.792zM107.021 655.722c2.755-3.405 3.014-5.994 2.622-26.054l-0.435-22.276-21.891-0.441c-14.796-0.298-22.6 0.149-24.083 1.379-2.599 2.156-3.168 39.714-0.7 46.201 1.953 5.132 4.023 5.58 24.316 5.252 15.986-0.259 17.32-0.527 20.177-4.056zM220.455 658.018c1.392-1.677 1.59-8.146 0.757-24.546-1.398-27.537-0.809-26.869-23.826-26.869-17.486 0-23.458 1.402-24.861 5.832-0.497 1.568-1.066 11.833-1.267 22.809-0.27 14.79 0.182 20.614 1.751 22.501 2.954 3.559 44.52 3.799 47.446 0.272zM247.26 515.944c1.228-1.48 1.307-2.563 0.234-3.229-0.888-0.549-49.361-0.996-107.714-0.99-104.561 0.008-114.203 0.449-107.152 4.909 1.414 0.895 44.424 1.5 107.569 1.513 88.666 0.023 105.506-0.325 107.063-2.206zM63.212 499.025c1.417-7.090 1.179-12.866-0.645-15.593-2.501-3.735-6.264 2.423-6.264 10.25 0 9.961 5.184 13.972 6.909 5.343zM109.672 493.429c0.325-5.479-0.242-8.5-1.843-9.829-1.867-1.55-2.463-1.372-3.115 0.93-2.472 8.751-2.756 13.415-0.942 15.596 3.302 3.977 5.407 1.587 5.899-6.698zM158.909 494.479c0.819-1.48 0.245-4.438-1.524-7.854l-2.833-5.481-1.744 6.276c-4.12 14.841-0.506 19.025 6.1 7.058zM172.453 497.48c2.085-4.033 2.198-5.707 0.639-9.477-1.041-2.515-2.401-4.575-3.018-4.575-1.968 0-4.398 13.765-2.902 16.439 1.923 3.438 2.372 3.234 5.281-2.388zM187.462 496.387c2.482-8.289 1.507-13.747-2.459-13.747-2.534 0-3.259 1.221-3.663 6.166-0.591 7.233 0.734 13.573 2.841 13.573 0.819 0 2.294-2.696 3.282-5.99zM202.877 495.301c0.279-3.325 0.039-7.887-0.523-10.14-0.995-3.956-1.106-3.992-3.269-1.033-2.294 3.137-3.108 15.279-1.154 17.232 2.327 2.327 4.463-0.287 4.945-6.056zM218.702 498.356c2.351-5.164 2.244-8.454-0.437-13.3-2.16-3.9-2.16-3.9-4.010 2.976-2.982 11.072 0.464 19.069 4.45 10.324zM49.115 495.044c1.106-4.403-1.632-13.195-4.106-13.195-2.741 0-3.287 4.88-1.331 11.87 2.12 7.574 3.768 7.977 5.437 1.326zM79.147 496.165c2.175-4.208 2.143-5.077-0.355-9.466-3.203-5.627-4.533-6.027-5.883-1.771-0.919 2.896 1.659 15.868 3.152 15.868 0.38 0 1.766-2.085 3.086-4.634zM93.388 492.116c1.081-7.369-1.295-12.612-3.935-8.685-2.822 4.197-3.361 8.7-1.594 13.348 2.143 5.638 4.285 3.833 5.529-4.66zM124.033 492.147c1.35-4.998 1.249-6.738-0.501-8.487-1.881-1.881-2.558-1.503-4.68 2.591-1.98 3.829-2.129 5.797-0.735 9.791 2.031 5.828 3.559 4.824 5.913-3.897zM233.066 493.444c1.544-6.127 1.467-7.746-0.459-9.672-2.030-2.030-2.613-1.735-4.761 2.423-1.999 3.867-2.107 5.638-0.587 9.672 1.026 2.714 2.334 4.935 2.91 4.935s1.878-3.311 2.899-7.358zM268.299 512.249l0.399-351.753 129.316-0.403c94.227-0.293 129.898 0.080 131.463 1.379 1.799 1.491 2.148 58.725 2.148 352.156v350.372h-263.72zM346.788 855.129c0.477-0.477 0.864-21.59 0.864-46.922 0-51.222 0.017-51.127-10.951-60.759-10.148-8.912-23.278-9.777-35.959-2.371-10.157 5.932-11.858 10.581-13.038 35.615-0.583 12.381-0.834 34.238-0.559 48.571l0.501 26.054 7.895 1.047c8.653 1.148 49.858 0.155 51.245-1.235zM429.408 854.732c0.732-0.732 1.111-22.215 0.844-47.746-0.473-45.392-0.566-46.547-4.149-52.311-7.1-11.416-17.938-16.143-31.299-13.647-9.432 1.763-16.833 6.765-21.014 14.203-3.071 5.462-3.241 8.285-3.241 53.24v47.471l8.289 0.69c12.241 1.019 49.027-0.363 50.565-1.901zM511.27 855.207c0.773-0.479 1.403-21.456 1.403-46.621 0-50.791-0.273-52.458-10.008-61.005-10.856-9.532-26.832-9.972-38.517-1.058-10.555 8.051-10.692 8.835-10.692 61.419v47.373l7.895 1.049c8.63 1.146 47.658 0.241 49.918-1.156zM437.682 647.886c-0.507-53.019-0.67-53.884-12.227-64.323-13.81-12.476-27.427-14.497-41.619-6.18-8.252 4.835-17.617 15.524-19.283 22.009-1.453 5.649-1.162 93.748 0.314 95.222 2.987 2.987 3.878-5.947 4.463-44.589 0.552-36.46 1.054-43.61 3.473-49.352 5.363-12.733 17.144-18.677 34.524-17.419 8.055 0.582 9.895 1.381 15.021 6.504l5.842 5.838 0.423 47.746c0.408 46.217 0.526 47.834 3.717 50.499 1.812 1.514 3.861 2.405 4.549 1.98s1.051-21.996 0.804-47.934zM452.692 674.111c0.074-65.409 0.558-74.901 4.063-79.635 8.601-11.622 29.585-16.198 41.702-9.101 6.409 3.757 11.934 11.331 14.193 19.46 0.879 3.164 1.59 24.474 1.596 47.786 0.008 34.633 0.402 42.224 2.224 42.923 1.216 0.468 2.639 0.424 3.159-0.094s0.93-21.966 0.908-47.658c-0.039-52.519-0.426-54.671-11.621-64.499-15.878-13.941-36.849-14.328-50.639-0.939-11.557 11.226-11.853 12.854-11.894 65.566-0.037 46.791 0.095 48.039 5.099 48.565 0.652 0.070 1.195-10.003 1.21-22.38zM286.858 647.529c0.686-40.279 1.157-47.127 3.551-51.507 3.544-6.48 11.259-12.28 19.629-14.75 12.777-3.776 28.615 3.251 34.634 15.371 2.657 5.351 3.074 11.050 3.776 51.805 0.677 39.303 1.127 45.796 3.159 45.796 2.052 0 2.37-6.331 2.37-47.502v-47.502l-4.78-7.728c-14.118-22.824-46.835-24.050-62.299-2.333-1.84 2.582-4.025 8.803-4.857 13.822-1.642 9.891-2.14 88.127-0.578 90.654 0.523 0.849 1.777 1.271 2.783 0.935 1.306-0.435 2.054-13.877 2.619-47.064zM334.567 671.326c2.368-2.922 2.822-6.6 2.822-22.735 0-12.865-0.629-19.877-1.896-21.144-2.69-2.69-34.293-2.621-35.151 0.080-0.346 1.084-0.929 11.138-1.295 22.341-0.615 18.714-0.414 20.62 2.465 23.502 2.79 2.79 4.615 3.042 16.682 2.29 11.479-0.717 13.977-1.378 16.373-4.331zM417.293 674.874c1.040-0.694 2.12-9.88 2.691-22.831 1.183-26.857 1.417-26.494-17.001-26.494-19.52 0-20.4 1.011-21.14 24.339-0.809 25.487-0.288 26.199 19.141 26.167 8.014-0.015 15.351-0.545 16.308-1.183zM500.31 673.471c2.519-2.28 2.888-5.266 2.888-23.37 0-14.041-0.612-21.37-1.896-22.654-1.186-1.186-7.090-1.896-15.791-1.896-19.895 0-20.213 0.421-20.213 26.768 0 24.311-0.526 23.646 18.827 23.718 10.207 0.037 13.969-0.559 16.187-2.567zM521.271 548.779c1.964-0.754 2.129-1.469 0.725-3.159-1.514-1.825-21.819-2.181-123.607-2.162-66.986 0.015-122.775 0.644-123.971 1.403-7.165 4.538 1.634 4.89 122.154 4.89 67.188 0 123.304-0.437 124.7-0.974zM369.052 528.83c0.046-1.084 0.060-21.159 0.031-44.611-0.061-50.348 0.865-55.159 12.16-63.047 14.426-10.077 37.765-6.369 44.632 7.090 2.877 5.638 3.107 9.463 3.107 51.7 0 42.978 0.175 45.772 3.031 48.358 2.888 2.613 3.109 2.601 4.653-0.282 0.989-1.849 1.667-20.384 1.739-47.595 0.107-40.783-0.14-45.154-2.937-51.475-7.006-15.839-34.848-26.351-49.596-18.724-8.665 4.483-13.757 8.919-18.571 16.185l-4.644 7.012v47.629c0 26.197 0.474 48.103 1.051 48.681 1.772 1.772 5.259 1.172 5.346-0.92zM451.905 528.83c0.394-1.084 0.906-22.938 1.136-48.56 0.406-45.293 0.517-46.745 3.997-52.338 4.527-7.282 12.766-11.276 24.845-12.048 13.116-0.838 22.045 3.922 27.595 14.705 3.966 7.706 3.988 7.981 4.329 53.585 0.317 42.813 0.526 45.84 3.159 45.84 2.63 0 2.844-3.052 3.239-45.709 0.469-51.233-0.261-56.172-9.783-65.973-7.729-7.959-14.669-10.7-27.092-10.7-17.93 0-31.201 9.435-35.316 25.115-0.82 3.123-1.989 25.375-2.599 49.451-0.87 34.392-0.677 44.291 0.899 46.19 2.433 2.932 4.627 3.107 5.594 0.446zM286.858 480.93c0.531-31.719 1.392-48.284 2.627-50.403 2.302-3.955 9.781-10.948 13.954-13.046 10.203-5.132 25.334-3.438 33.937 3.801 10.027 8.436 10.203 9.4 11.070 60.567 0.677 40.004 1.125 46.584 3.159 46.584 2.040 0 2.426-6.122 2.789-43.952 0.439-45.965-0.188-51.994-6.363-61.155-11.958-17.744-39.122-21.035-55.028-6.664-7.728 6.98-8.942 9.171-10.951 19.749-1.685 8.875-2.206 88.832-0.599 91.438 0.524 0.851 1.777 1.271 2.785 0.939 1.308-0.435 2.053-14.069 2.619-47.853zM335.15 504.842c2.926-4.005 3.218-40.332 0.346-43.203-2.657-2.657-31.906-2.588-34.036 0.080-0.866 1.084-1.919 10.665-2.336 21.291-1.027 26.109-0.989 26.157 18.849 25.438 12.587-0.457 15.292-1.024 17.177-3.605zM416.38 505.827c3.295-2.668 3.556-4.204 3.728-21.845 0.24-24.569 0.506-24.239-19.432-24.239-9.781 0-15.966 0.682-17.177 1.896-1.275 1.275-1.896 8.466-1.896 21.995 0 25.11-0.037 25.064 18.099 25.064 10.339 0 13.888-0.611 16.678-2.867zM498.68 505.68c3.495-2.828 3.759-4.232 4.245-22.601 0.416-15.79 0.066-19.96-1.81-21.519-1.59-1.318-7.51-1.788-18.677-1.48l-16.352 0.452-0.993 20.53c-1.32 27.327-1.134 27.636 16.645 27.636 10.648 0 13.934-0.586 16.939-3.016zM522.888 371.392c0.512-0.825-0.468-2.247-2.173-3.159-3.845-2.058-243.062-2.283-246.299-0.232-7.17 4.541 1.642 4.89 123.768 4.89 76.456 0 124.13-0.574 124.702-1.502zM369.507 306.36l0.281-44.801 4.315-7.363c6.21-10.594 13.646-14.719 26.569-14.733 9.004-0.008 11.171 0.589 16.319 4.516 12.022 9.161 11.974 8.918 11.981 59.581 0.006 42.433 0.188 45.32 3.020 47.885 2.862 2.591 3.060 2.581 3.878-0.149 0.476-1.583 1.016-22.776 1.201-47.096 0.361-47.475 0.119-49.263-8.289-61.070-7.846-11.017-30.881-15.942-43.687-9.339-8.022 4.134-15.38 12.169-18.93 20.666-2.69 6.441-2.943 11.262-2.709 51.451 0.144 24.39 0.812 45.238 1.488 46.327 3.372 5.452 4.297-3.878 4.563-45.874zM286.858 304.858c0.837-49.211 1.204-51.601 8.976-58.636 4.989-4.516 14.171-7.558 22.811-7.558 10.73 0 19.795 5.226 25.077 14.451 3.88 6.781 3.942 7.446 4.721 52.663 0.677 39.303 1.127 45.796 3.159 45.796 2.041 0 2.426-6.32 2.789-45.729l0.42-45.729-4.010-8.201c-9.345-19.1-30.982-26.406-49.759-16.804-11.428 5.843-17.010 13.19-18.961 24.966-1.67 10.073-2.206 88.344-0.621 90.909 0.523 0.849 1.777 1.271 2.783 0.935 1.306-0.435 2.054-13.877 2.619-47.064zM452.664 307.229c0.843-47.13 1.546-51.436 9.787-60.21 4.978-5.298 15.824-8.903 24.017-7.98 10.59 1.194 17.462 6.271 22.575 16.682l4.417 8.998 0.506 43.819c0.281 24.328 1.135 43.819 1.92 43.819 3.907 0 4.681-8.225 4.681-49.693 0-43.050-0.048-43.676-3.845-51.173-4.070-8.032-12.874-16.802-19.33-19.256-2.13-0.809-8.269-1.468-13.643-1.458-17.234 0.028-31.95 9.627-35.754 23.326-1.81 6.518-2.327 95.47-0.564 97.233 3.757 3.757 4.483-2.354 5.231-44.116zM334.369 328.895c2.591-3.2 3.020-6.368 3.020-22.391 0-23.758 0.112-23.623-19.659-23.623-9.862 0-15.216 0.649-16.275 1.975-0.868 1.084-1.918 11.138-2.327 22.341-0.968 26.296-0.622 26.777 18.817 25.977 11.829-0.487 13.763-0.99 16.426-4.278zM417.299 332.203c1.040-0.692 2.105-9.532 2.641-21.907 1.203-27.704 1.063-27.913-17.945-27.172-19.289 0.754-19.453 0.957-20.148 25.599-0.701 24.789-0.772 24.699 19.218 24.666 7.97-0.015 15.277-0.545 16.234-1.183zM499.681 329.713c4.043-4.035 4.995-40.393 1.16-44.228-3.306-3.306-30.991-3.824-33.625-0.633-0.897 1.084-1.865 11.291-2.151 22.677-0.673 26.689-0.825 26.472 17.98 25.571 10.412-0.499 14.593-1.348 16.637-3.387zM521.942 195.489c0.967-1.165 1.293-2.588 0.721-3.159-1.678-1.678-248.127-1.238-249.167 0.445-2.678 4.329 8.059 4.739 125.681 4.787 99.347 0.039 121.32-0.332 122.765-2.073zM291.343 164.29c-3.445-2.129-6.3 1.762-5.229 7.119 2.239 11.182 2.78 11.468 5.044 2.66 1.768-6.881 1.805-8.777 0.182-9.779zM302.342 167.83c-0.639-5.514-3.284-4.851-5.066 1.268-0.985 3.383-0.794 6.219 0.621 9.2l2.041 4.307 1.444-5.299c0.794-2.915 1.227-7.178 0.961-9.476zM314.789 171.882c-0.97-7.225-2.286-9.004-4.307-5.813-1.689 2.668-2.030 13.129-0.479 14.68 2.591 2.591 5.58-2.943 4.784-8.869zM326.229 177.338c1.426-3.447 1.418-5.438-0.039-8.636-2.427-5.33-4.048-4.248-5.374 3.591-1.647 9.754 2.038 13.193 5.411 5.045zM336.635 166.392c-1.040-4.151-1.166-4.197-3.322-1.249-2.734 3.739-2.877 9.395-0.358 14.011 1.799 3.292 1.951 3.176 3.322-2.503 0.791-3.273 0.952-7.893 0.358-10.262zM349.967 173.224c-0.031-1.788-0.991-4.937-2.133-7l-2.077-3.746-1.004 3.746c-1.359 5.076-1.304 13.228 0.094 14.625 1.607 1.607 5.187-3.726 5.121-7.629zM373.708 177.077c1.585-3.826 1.557-5.715-0.147-9.829l-2.107-5.088-2.030 7.011c-3.185 11.004 0.321 17.474 4.285 7.907zM383.46 164.088c-1.315-1.315-2.361-0.38-4.035 3.603-2.002 4.761-1.967 5.924 0.303 10.147l2.563 4.769 1.472-8.371c1.038-5.891 0.947-8.895-0.303-10.147zM396.641 176.668c1.090-5.81-1.568-14.504-3.977-13.013-1.808 1.117-2.030 6.056-0.596 13.228 1.28 6.396 3.35 6.298 4.572-0.215zM407.351 176.429c1.018-3.053 0.844-5.682-0.563-8.586l-2.030-4.187-1.223 6.318c-1.775 9.167-1.649 12.189 0.47 11.48 1.030-0.345 2.536-2.603 3.34-5.022zM418.872 167.444c-2.053-4.887-2.212-4.957-3.908-1.79-0.973 1.815-1.472 4.241-1.116 5.388s1.158 4.219 1.775 6.826l1.122 4.736 2.132-5.033c1.792-4.23 1.79-5.847-0.008-10.126zM429.572 176.879c1.436-7.17 1.213-12.11-0.596-13.228-2.411-1.491-5.067 7.203-3.977 13.013 1.222 6.511 3.295 6.607 4.572 0.215zM455.010 172.238c0.754-4.015 0.4-6.173-1.233-7.528-1.876-1.557-2.641-1.046-4.262 2.866-1.586 3.827-1.577 5.723 0.050 9.643 2.286 5.519 3.724 4.208 5.443-4.983zM466.816 177.23c1.549-3.742 1.462-5.416-0.478-9.081-2.491-4.707-2.946-4.286-4.857 4.461-0.974 4.458 0.171 9.205 2.214 9.205 0.67 0 2.074-2.063 3.119-4.587zM477.909 175.801c-0.028-5.638-1.623-11.357-3.166-11.357-0.682 0-1.935 1.994-2.785 4.428-1.137 3.259-0.949 5.568 0.71 8.731 2.663 5.081 5.272 4.183 5.242-1.807zM490.565 173.722c0-1.513-0.761-4.755-1.689-7.2-1.503-3.955-1.863-4.14-3.251-1.656-0.886 1.579-1.084 5.978-0.458 10.137 1.003 6.683 1.296 7.083 3.251 4.409 1.183-1.616 2.151-4.177 2.151-5.693zM500.85 173.773c1.404-10.217-1.027-13.386-4.747-6.188-2.175 4.208-2.303 5.869-0.732 9.655 2.735 6.606 4.224 5.665 5.481-3.469zM512.515 169.671c0.22-7.046-2.635-8.035-5.253-1.815-1.912 4.549-1.873 5.821 0.317 9.983l2.509 4.769 1.134-3.947c0.622-2.173 1.205-6.216 1.293-8.987zM539.905 685.952l0.402-178.047 129.316-0.403c94.227-0.293 129.898 0.081 131.463 1.379 1.788 1.481 2.148 31.451 2.148 178.45v176.669h-263.73zM607.556 855.229c0.797-0.49 1.443-15.636 1.443-33.765 0-26.208-0.446-33.248-2.206-34.705-1.444-1.197-7.854-1.674-18.554-1.379l-16.352 0.452v69.482l5.528 1.074c5.931 1.153 27.757 0.314 30.141-1.161zM690.030 854.664c1.040-1.040 1.667-13.679 1.696-34.158 0.037-26.775-0.364-32.761-2.259-33.96-1.265-0.799-8.822-1.467-16.793-1.48-11.094-0.017-15.076 0.556-16.977 2.459-2.089 2.089-2.479 7.389-2.459 33.556 0.015 17.090 0.548 31.899 1.19 32.907s3.295 2.189 5.898 2.624c7.365 1.238 27.862-0.11 29.704-1.952zM773.311 855.264c2.324-1.436 1.949-65.982-0.397-68.327-2.162-2.162-30.804-2.644-34.062-0.574-1.543 0.979-1.909 9.092-1.579 35.096l0.426 33.823 4.736 1.116c5.165 1.216 28.456 0.358 30.873-1.137zM558.468 807.023c0.769-45.26 0.886-46.608 4.481-52.39 8.74-14.058 29.35-19.005 42.609-10.231 12.208 8.080 13.371 14.045 13.154 67.49-0.086 21.28 0.48 39.708 1.26 40.957 1.203 1.92 1.815 1.939 4.011 0.116 2.318-1.924 2.541-7.024 2.096-48.063-0.556-50.988-0.49-50.644-11.732-61.563-16.423-15.95-42.876-12.799-56.621 6.745l-4.787 6.805-0.484 46.66c-0.267 25.663-0.088 47.691 0.396 48.953s1.766 1.997 2.854 1.635c1.493-0.497 2.164-11.931 2.763-47.109zM640.582 809.391c0.725-40.486 1.062-44.672 4.102-51.244 5.834-12.602 19.448-20.488 31.167-18.049 8.145 1.696 17.888 8.179 21.84 14.536 3.596 5.784 3.712 7.123 4.481 52.52 0.677 40.004 1.125 46.584 3.159 46.584 2.053 0 2.37-6.433 2.37-48.427v-48.427l-4.78-6.801c-7.638-10.863-16.385-16.11-28.018-16.811-15.043-0.907-27.567 5.974-36.229 19.902-3.514 5.649-3.627 7.084-4.12 51.365-0.279 25.054-0.1 46.612 0.396 47.9s1.788 2.052 2.874 1.689c1.491-0.495 2.166-11.457 2.763-44.743zM723.441 850.971c0.445-1.953 0.989-23.095 1.216-46.978 0.4-42.325 0.501-43.577 4.075-49.319 10.251-16.486 31.147-19.735 45.557-7.080 11.037 9.689 11.501 12.203 11.541 62.321 0.031 38.584 0.356 44.611 2.404 44.611 2.052 0 2.369-6.093 2.36-45.401-0.006-27.132-0.683-47.827-1.685-51.432-2.183-7.855-10.885-17.37-19.861-21.717-17.749-8.593-44.228 3.127-49.437 21.876-1.788 6.441-2.334 93.881-0.597 95.619 1.981 1.981 3.625 1.052 4.428-2.502zM558.468 647.529c0.875-51.354 1.125-52.682 11.446-60.39 11.446-8.548 25.009-9.218 36.277-1.794 11.578 7.628 12.668 13.481 12.905 69.205 0.162 38.584 0.257 39.694 3.328 39.694 3.099 0 3.15-0.875 2.631-47.372-0.589-52.982-1.236-56.559-11.609-64.472-16.957-12.931-39.782-11.26-52.52 3.845-8.531 10.117-8.775 11.825-8.775 61.102 0 25.071 0.49 46.072 1.084 46.668 3.783 3.783 4.483-2.426 5.231-46.482zM640.641 649.11c0.902-47.765 1.344-50.613 9.125-58.834 14.482-15.307 38.924-12.381 48.911 5.858 2.327 4.249 2.819 11.501 3.496 51.53 0.677 40.004 1.125 46.584 3.159 46.584 2.040 0 2.426-6.122 2.789-43.952 0.249-26.166-0.226-46.36-1.183-49.9-5.044-18.728-23.524-30.004-43.138-26.326-8.337 1.565-19.629 9.928-24.431 18.101l-4.307 7.331-0.485 45.605c-0.268 25.084-0.089 46.637 0.396 47.9s1.767 1.999 2.855 1.64c1.491-0.494 2.182-11.657 2.822-45.532zM723.319 692.536c0.527-1.373 0.963-21.093 0.967-43.819 0.006-25.275 0.688-43.764 1.754-47.603 3.592-12.942 19.399-22.946 32.808-20.771 8.817 1.431 19.23 8.855 23.34 16.639 3.603 6.821 3.676 7.87 3.676 52.507 0 39.432 0.317 45.546 2.37 45.546 1.981 0 2.434-3.816 2.765-23.293 0.804-47.396-1.965-77.391-7.904-85.587-4.633-6.397-18.542-12.711-27.995-12.711-15.175 0-31.8 11.642-35.462 24.829-1.811 6.527-2.382 93.955-0.622 95.713 1.73 1.73 3.287 1.205 4.307-1.447zM605.62 672.247c3.342-3.339 4.803-40.706 1.736-44.402-2.459-2.962-31.465-3.295-34.361-0.399-1.282 1.282-1.896 8.641-1.896 22.786 0 26.575 0.015 26.593 18.651 25.429 9.331-0.582 14.053-1.599 15.869-3.415zM689.131 674.111c0.859-1.084 1.961-11.391 2.448-22.898 1.097-25.955 1.293-25.658-16.982-25.658-19.638 0-20.434 0.941-21.146 24.965-0.518 17.537-0.314 19.175 2.761 22.248 2.877 2.877 5.198 3.319 17.34 3.319 9.33 0 14.541-0.66 15.582-1.975zM772.914 674.19c2.635-2.635 2.635-44.105 0-46.744-1.186-1.186-7.090-1.896-15.791-1.896-19.895 0-20.213 0.421-20.213 26.768 0 17.811 0.358 20.658 2.765 22.061 3.973 2.315 30.892 2.162 33.24-0.19zM794.547 540.277c0-2.083-14.998-2.417-123.874-2.774-73.791-0.24-124.46 0.182-125.325 1.048-4.657 4.657 2.104 4.901 124.941 4.5 109.218-0.357 124.258-0.69 124.258-2.773zM562.415 519.618c0-6.551-0.556-8.553-2.37-8.553-2.488 0-4.245 11.47-2.469 16.103 2.003 5.22 4.835 0.797 4.835-7.551zM574.203 514.879c-1.843-4.445-2.252-4.705-3.284-2.082-1.55 3.953-1.711 14.009-0.248 15.472 0.633 0.633 2.162-0.974 3.394-3.579 1.887-3.988 1.909-5.529 0.137-9.815zM586.083 516.507c-0.556-2.54-1.602-4.982-2.325-5.429-1.708-1.054-3.815 14.266-2.302 16.716 1.975 3.196 5.77-6.072 4.626-11.291zM596.456 521.85c1.396-6.067 0.702-11.575-1.458-11.575-0.634 0-2.029 2.414-3.095 5.362-1.505 4.164-1.52 6.279-0.061 9.481 2.261 4.959 2.808 4.571 4.614-3.269zM609.044 524.381c1.677-4.043 1.612-5.674-0.38-9.871l-2.387-5.025-1.656 7.739c-2.5 11.677 0.523 16.571 4.424 7.156zM619.856 527.092c1.997-2.404 1.498-10.038-0.941-14.394-1.425-2.545-1.854-2.184-3.548 2.954-1.939 5.873-1.162 13.574 1.367 13.574 0.745 0 2.151-0.96 3.125-2.131zM644.636 525.338c2.153-3.286 2.25-4.789 0.625-9.709-2.151-6.515-3.573-5.303-5.342 4.546-0.956 5.324-0.336 9.053 1.511 9.053 0.363 0 1.807-1.75 3.207-3.889zM667.153 514.391l-2.047-4.904-1.755 7.895c-1.252 5.632-1.271 8.52-0.061 10.071 1.35 1.733 2.123 1.126 3.801-2.99 1.733-4.252 1.744-6.033 0.061-10.071zM679.083 524.852c1.983-3.834 1.957-5.054-0.204-9.871l-2.466-5.495-1.504 7.497c-1.377 6.859-0.886 12.241 1.115 12.241 0.439 0 1.817-1.968 3.061-4.373zM702.221 515.141c-1.099-2.654-2.625-4.437-3.394-3.962-1.63 1.007-1.808 9.243-0.32 14.802l1.033 3.863 2.338-4.94c1.942-4.102 2-5.759 0.341-9.763zM738.51 515.068c-2.426-5.856-3.009-5.484-4.948 3.154-1.084 4.824-0.956 7.255 0.472 8.975 1.679 2.025 2.283 1.678 4.23-2.437 1.888-3.988 1.931-5.623 0.246-9.694zM749.244 518.784c-0.356-5.594-1.143-7.721-2.859-7.721-3.023 0-4.068 10.35-1.524 15.105 2.767 5.166 4.945 1.491 4.384-7.384zM760.388 520.826c1.015-5.429 0.846-7.787-0.643-9.023-3.219-2.673-6.149 7.878-3.687 13.283 2.343 5.143 2.624 4.867 4.329-4.26zM773.032 525.076c1.447-3.177 1.459-5.448 0.052-9.709-2.068-6.265-3.504-4.953-5.257 4.803-1.66 9.241 1.761 12.466 5.205 4.907zM784.326 515.119c-3.9-9.412-6.924-4.521-4.424 7.156l1.656 7.739 2.387-5.024c1.993-4.197 2.055-5.825 0.38-9.871zM655.53 520.348c1.359-9.048-1.029-12.336-4.351-5.991-1.721 3.283-1.92 5.578-0.776 8.861 2.228 6.39 3.878 5.467 5.131-2.866zM690.272 520.348c1.42-9.466-1.249-12.636-4.34-5.164-1.595 3.854-1.773 6.35-0.633 8.905 2.392 5.357 3.763 4.325 4.973-3.745zM726.322 518.188c0.378-7.905-2.233-9.857-5.016-3.748-1.513 3.317-1.522 5.251-0.045 8.815 2.443 5.898 4.643 3.694 5.060-5.066zM811.129 602.107c0-252.128 0.108-261.99 2.899-264.515 2.652-2.401 11.762-2.591 106.198-2.217l103.296 0.406 0.401 261.97c0.292 192.308-0.072 262.538-1.379 264.109-1.463 1.764-20.297 2.14-106.596 2.14h-104.819zM902.916 855.194c0.76-0.468 1.381-21.447 1.381-46.618 0-42.754-0.209-46.173-3.181-52-3.861-7.569-16.011-15.051-26.868-16.543-14.68-2.019-30.511 5.343-36.518 16.983-3.32 6.435-3.469 8.586-3.583 52.505l-0.122 45.796 9.477 1.032c10.361 1.128 57.193 0.218 59.417-1.155zM1000.882 855.157c0.729-0.449 1.325-19.581 1.325-42.511 0-37.813-0.292-42.479-3.153-50.125-5.232-13.987-17.507-23.271-30.77-23.271-13.411 0-25.801 8.031-32.887 21.318-3.137 5.88-3.411 9.128-3.966 47.040-0.327 22.398-0.165 42.44 0.361 44.538 0.873 3.472 1.917 3.878 11.605 4.479 12.712 0.79 55.606-0.303 57.488-1.467zM833.307 653.58c0.084-54.765 0.941-58.209 16.512-66.448 9.587-5.074 28.956-4.813 39.348 0.531 9.003 4.626 13.206 9.684 15.198 18.273 0.789 3.405 1.454 25.204 1.474 48.437 0.023 26.417 0.615 42.243 1.579 42.243 0.849 0 2.668-1.716 4.043-3.812 2.158-3.294 2.432-9.714 2.009-46.978-0.459-40.64-0.688-43.536-3.883-49.504-7.399-13.816-17.757-20.267-35.509-22.116-15.483-1.612-25.526 1.743-35.712 11.929-13.228 13.228-13.029 12.238-13.029 64.268 0 25.13 0.474 46.162 1.051 46.741s2.356 1.051 3.947 1.051c2.737 0 2.899-2.429 2.965-44.611zM931.211 652.696c0.086-54.759 0.794-57.349 18.090-66.325 15.734-8.165 32.247-4.879 45.796 9.114l6.318 6.523 0.869 47.696c0.479 26.232 1.010 47.9 1.183 48.146s1.736-0.311 3.473-1.238c3.043-1.63 3.158-3.303 3.151-46.246-0.006-24.704-0.71-47.075-1.58-50.216-2.085-7.5-11.437-16.755-21.797-21.559-7.219-3.35-10.181-3.812-21.318-3.337-14.356 0.614-23.029 4.068-32.467 12.93-9.060 8.507-9.461 10.751-10.522 59.15-0.958 43.622-0.92 44.358 2.36 47.638 1.832 1.832 4.020 2.91 4.857 2.393 0.914-0.567 1.548-18.402 1.59-44.667zM891.348 675.767c1.272-1.272 1.896-8.414 1.896-21.756 0-27.033 0.121-26.879-21.234-26.879-22.854 0-23.148 0.288-24.129 23.78-0.459 11.019-0.093 19.762 0.945 22.41l1.7 4.342h19.464c13.031 0 20.090-0.626 21.357-1.896zM988.817 676.023c1.761-2.848 0.82-44.538-1.055-46.8-1.238-1.491-6.41-2.096-17.95-2.096-22.736 0-23.043 0.303-24.023 23.78-0.459 11.019-0.093 19.762 0.945 22.41l1.7 4.342h19.685c11.908 0 20.085-0.648 20.697-1.64zM1013.065 556.222c7.028-4.45-1.518-4.89-95.344-4.89s-102.372 0.437-95.344 4.89c1.196 0.758 44.104 1.38 95.344 1.38s94.148-0.622 95.344-1.38zM833.87 521.723c0.589-4.994 0.598-24.003 0.017-42.243-1.379-43.467 0.79-51.717 15.666-59.628 5.308-2.822 9.196-3.504 20.125-3.516 12.321-0.017 14.238 0.411 21.175 4.718 13.724 8.523 14.163 10.367 14.658 61.585 0.235 24.318 0.82 45.282 1.303 46.584 0.703 1.901 1.477 1.634 3.918-1.359 2.835-3.477 3.042-6.617 3.031-46.584-0.006-25.298-0.695-45.326-1.681-48.879-3.376-12.161-19.905-23.755-36.68-25.724-10.752-1.263-22.391 2-34.7 9.73-14.735 9.254-14.469 8.102-15.093 65.049l-0.543 49.349h3.867c3.529 0 3.958-0.789 4.934-9.081zM931.142 484.879c0.652-37.014 1.24-45.843 3.368-50.403 5.748-12.319 13.843-17.113 30.999-18.359 10.848-0.787 13.001-0.466 19.201 2.877 3.84 2.070 9.169 6.463 11.842 9.766l4.861 6.003 0.788 47.625c0.767 46.309 0.875 47.625 3.947 47.625 3.075 0 3.171-1.205 3.614-45.796 0.251-25.186 0.062-47.988-0.418-50.672-1.29-7.178-10.267-16.687-20.79-22.018-7.849-3.977-11.050-4.681-21.096-4.651-13.437 0.039-20.8 3.055-31.906 13.061-11.872 10.693-12.542 13.853-13.316 62.734-0.611 38.496-0.407 43.335 1.925 45.667 5.689 5.689 6.166 2.712 6.98-43.456zM891.348 508.379c1.272-1.272 1.896-8.414 1.896-21.756 0-27.033 0.121-26.879-21.234-26.879-22.854 0-23.148 0.288-24.129 23.78-0.459 11.019-0.093 19.762 0.945 22.41l1.7 4.342h19.464c13.031 0 20.090-0.626 21.357-1.896zM986.412 507.116c3.132-3.132 3.583-7.861 3.57-37.413-0.006-10.176 0.182-10.098-22.882-9.612l-20.956 0.441v22.263c0 16.55 0.556 22.932 2.167 24.871 1.76 2.118 5.249 2.608 18.554 2.608 14.284 0 16.792-0.406 19.545-3.159zM1012.004 368.455c1.227-1.227 0.639-1.968-2.074-2.626-6.805-1.655-187.751-0.175-187.759 1.535-0.015 2.548 36.338 3.548 114.989 3.163 49.887-0.247 73.676-0.903 74.842-2.068zM837.736 344.156l-2.391-5.045-1.909 7.574c-1.512 5.999-1.496 8.069 0.068 9.95 1.7 2.048 2.296 1.697 4.296-2.525 2.052-4.333 2.044-5.495-0.068-9.95zM852.184 353.94c1.56-3.768 1.562-5.704 0.008-9.455-2.516-6.078-4.302-4.851-5.605 3.854-1.595 10.634 2.018 14.251 5.598 5.604zM865.608 353.94c2.239-4.328 2.217-5.184-0.248-9.871l-2.698-5.132-1.134 3.947c-2.139 7.442-1.535 15.791 1.142 15.791 0.269 0 1.59-2.131 2.935-4.736zM879.307 344.159l-3.010-4.758-1.789 5.135c-2.283 6.548-2.263 9.874 0.066 12.205 1.424 1.424 2.547 0.724 4.802-2.987 2.877-4.735 2.877-4.95-0.066-9.598zM892.629 341.98c-1.285-3.35-3.087-2.751-5.961 1.986-2.378 3.918-2.375 4.648 0.028 9.686l2.6 5.451 2.099-7.433c1.155-4.087 1.711-8.448 1.237-9.686zM906.259 353.825c2.585-4.541 2.591-5.133 0.097-9.861l-2.653-5.028-2.195 7.618c-3.372 11.692-0.376 16.276 4.75 7.27zM935.091 353.941c2.221-4.296 2.216-5.193-0.076-9.62-1.391-2.687-2.789-4.62-3.112-4.296-1.777 1.777-3.309 13.821-2.045 16.077 1.956 3.495 2.404 3.311 5.232-2.161zM961.765 349.381c-1.662-9.268-3.017-10.561-5.297-5.057-1.623 3.922-1.634 5.817-0.050 9.643 1.579 3.815 2.41 4.4 4.17 2.941 1.532-1.271 1.887-3.551 1.173-7.528zM975.659 344.201l-3.166-5-1.718 6.187c-2.178 7.845-2.162 9.076 0.16 11.395 1.471 1.471 2.56 0.841 4.891-2.844 2.954-4.67 2.954-4.808-0.169-9.738zM988.331 347.64c0.534-8.025-1.744-9.598-5.331-3.68-2.363 3.897-2.371 4.681-0.061 9.521 2.995 6.279 4.712 4.42 5.393-5.839zM1002.686 344.373c-5.030-8.513-7.916-4.831-5.176 6.599l1.904 7.936 3.009-4.945c2.877-4.73 2.888-5.146 0.264-9.587zM947.669 349.801c1.36-9.081-0.911-12.106-4.725-6.287-2.294 3.504-2.407 4.84-0.744 8.854 2.734 6.599 4.197 5.913 5.47-2.569z"></path>
    </svg>