<svg xmlns="http://www.w3.org/2000/svg" viewBox="-49.793 80.000 1137.554 864.001">
    <path fill="#000000" d="M33.429 861.778c-0.862-1.194-1.799-2.598-2.088-3.12-0.442-0.803-0.545-28.716-0.666-178.093-0.105-133.533-0.031-177.628 0.303-179.119 0.573-2.563 2.261-4.139 4.854-4.527 1.003-0.149 14.779-0.182 30.619-0.069 31.73 0.226 29.783 0.067 32.368 2.647 0.68 0.68 1.469 1.795 1.755 2.475 0.798 1.911 0.765 355.629-0.035 357.161-0.303 0.578-1.271 1.906-2.151 2.954l-1.606 1.905-61.783-0.043-1.566-2.17zM116.893 861.040c-1.763-2.844-1.843-3.098-2.184-6.952-0.215-2.415-0.293-51.666-0.204-124.188 0.149-115.339 0.182-120.245 0.849-121.635 0.85-1.769 3.471-4.523 5.209-5.473 1.234-0.673 3.746-0.7 61.474-0.7h60.188l1.788 1.051c0.985 0.578 2.438 1.847 3.24 2.822 1.381 1.681 1.466 1.947 1.701 5.236 0.138 1.906 0.267 57.768 0.286 124.139 0.031 106.649-0.030 120.837-0.537 122.049-0.314 0.754-1.447 2.548-2.514 3.988l-1.94 2.614h-19.671l-1.773-2.483c-0.974-1.367-2.122-3.274-2.549-4.241-0.774-1.746-0.776-2.151-0.787-67.896-0.006-55.908-0.092-66.513-0.551-68.567-1.243-5.553-4.77-10.082-11.193-14.361-14.21-9.47-29.145-10.723-44.49-3.735-4.439 2.023-10.531 5.803-12.458 7.728-3.13 3.126-6.024 10.401-7.066 17.749-0.303 2.129-0.48 22.006-0.597 65.905-0.105 39.614-0.303 63.276-0.539 63.991-0.204 0.622-1.012 2.206-1.792 3.516l-1.418 2.382-20.653 0.014-1.832-2.954zM264.261 861.030c-1.084-1.621-2.163-3.339-2.404-3.823-0.329-0.659-0.457-66.103-0.51-262.661l-0.072-261.781 0.875-1.403c1.733-2.789 0.393-2.69 34.824-2.541 34.062 0.149 31.070-0.103 33.936 2.844 0.794 0.816 1.565 1.909 1.711 2.437s0.27 118.637 0.27 262.473c0.003 223.863-0.073 261.657-0.534 262.473-0.293 0.523-1.236 1.854-2.090 2.954l-1.557 1.999-62.484-0.017-1.966-2.944zM349.084 861.514c-0.886-1.361-1.843-3.119-2.123-3.905-0.424-1.184-0.512-35.122-0.518-199.708-0.007-192.163 0.014-198.331 0.699-199.835 0.49-1.079 1.157-1.777 2.184-2.285 1.45-0.721 4.456-0.732 169.855-0.732s168.403 0.014 169.855 0.732c1.027 0.512 1.692 1.206 2.184 2.285 0.684 1.504 0.705 7.671 0.699 199.835-0.006 164.586-0.094 198.524-0.518 199.708-0.281 0.787-1.238 2.543-2.123 3.905l-1.612 2.477h-41.793l-1.949-2.888c-1.073-1.59-2.192-3.471-2.489-4.177-0.459-1.102-0.545-16.022-0.578-101.588-0.022-55.162-0.171-110.323-0.325-122.581l-0.286-22.285-1.164-4.19c-0.642-2.305-1.704-5.386-2.364-6.849-2.756-6.111-8.228-12.745-13.753-16.673-6.177-4.392-61.127-34.44-89.599-48.997-10.533-5.385-15.45-6.216-21.935-3.713-4.34 1.678-5.935 2.499-13.644 7.035-3.526 2.074-14.724 8.187-24.888 13.58-40.945 21.731-53.428 29.359-62.605 38.253-7.055 6.837-10.355 12.914-12.425 22.89-1.447 6.981-1.541 10.705-1.598 64.379-0.029 28.809-0.16 81.613-0.286 117.341l-0.232 64.959-3.273 5.506h-41.782zM412.74 861.374c-1.066-1.437-2.195-3.232-2.514-3.988-0.507-1.213-0.573-15.278-0.567-120.525 0.006-114.843 0.030-119.277 0.717-122.581 2.503-12.062 9.412-20.552 22.708-27.897 14.718-8.135 66.015-35.597 77.807-41.657 5.195-2.668 8.37-3.191 12.315-2.022 1.139 0.336 7.211 3.483 13.498 6.992 14.878 8.306 32 17.529 49.524 26.676 21.769 11.363 24.859 13.228 30.476 18.372 4.495 4.12 9.015 11.083 10.454 16.108 1.599 5.583 1.546 1.436 1.546 126.392 0 104.9-0.067 118.933-0.573 120.146-0.314 0.754-1.447 2.548-2.514 3.988l-1.94 2.614h-40.93l-1.92-2.762c-1.055-1.519-2.159-3.191-2.45-3.713-0.446-0.8-0.567-11.446-0.736-67.047l-0.204-66.092-1.029-4.19c-1.417-5.782-2.668-9.207-5.143-14.053-3.842-7.533-10.731-15.681-17.532-20.719-5.841-4.33-14.097-7.883-22.045-9.488-4.813-0.971-18.677-0.969-23.559 0.006-15.461 3.075-27.218 10.137-35.624 21.401-5.946 7.966-9.198 15.531-11.381 26.483-1.634 8.19-1.671 9.642-1.909 73.335l-0.227 61.34-3.328 5.504h-40.981l-1.94-2.614zM707.869 861.611c-0.955-1.31-2.061-2.981-2.455-3.713-0.699-1.302-0.721-7.658-0.842-262.73l-0.127-261.396 0.776-1.755c0.633-1.436 1.101-1.898 2.55-2.54 1.753-0.776 2.152-0.784 31.918-0.644 33.809 0.16 31.103-0.084 34.022 3.082l1.552 1.684 0.285 118.005c0.158 64.904 0.215 183.119 0.127 262.698l-0.16 144.693-3.391 5h-62.525zM792.211 861.418c-1.040-1.414-2.173-3.121-2.514-3.795-0.572-1.128-0.613-11.156-0.523-124.951l0.097-123.726 1.003-1.54c1.139-1.75 3.188-3.652 5.002-4.644 1.164-0.636 4.575-0.675 61.422-0.675h60.188l1.788 1.051c0.985 0.578 2.438 1.847 3.24 2.822l1.452 1.772 0.237 21.368c0.38 34.194 0.358 226.526-0.028 228.176-0.189 0.811-1.155 2.657-2.151 4.098l-1.807 2.62-20.638-0.017-1.966-2.944c-1.084-1.621-2.178-3.366-2.437-3.879-0.365-0.727-0.504-16.066-0.63-68.761-0.102-42.954-0.3-68.555-0.541-69.812-0.6-3.141-2.382-6.289-4.628-8.194-6.353-5.378-13.943-8.817-22.897-10.372-4.378-0.76-12.852-0.763-17.199-0.006-3.758 0.655-15.398 4.855-19.103 6.892-4.736 2.602-8.251 6.683-9.73 11.288-0.752 2.341-0.765 3.482-0.836 69.997l-0.072 67.618-0.891 1.713c-0.49 0.941-1.656 2.787-2.586 4.098l-1.695 2.382h-19.671l-1.893-2.57zM939.624 861.134c-1.238-1.832-2.019-3.441-2.173-4.479-0.132-0.889-0.185-80.645-0.117-177.235 0.116-164.443 0.162-175.691 0.769-176.796 1.046-1.909 4.725-5.034 6.32-5.374 0.776-0.164 14.013-0.3 29.413-0.303h28.001l1.819 1.069c0.999 0.589 2.261 1.734 2.8 2.549l0.981 1.48 0.208 155.353c0.116 85.441 0.077 165.957-0.083 178.918l-0.292 23.568-3.192 3.915-62.517 0.194-1.931-2.861zM124.676 589.746c-4.83-0.212-5.264-0.292-6.49-1.231-0.722-0.554-1.822-1.738-2.445-2.635l-1.128-1.63v-29.748c0-33.543-0.254-30.762 3.070-33.688l1.762-1.551 6.727-0.146c3.702-0.081 31.686-0.13 62.187-0.113l55.46 0.034 1.557 1.078c0.855 0.593 2.041 1.777 2.635 2.635l1.078 1.557 0.103 29.652c0.098 28.637 0.077 29.703-0.633 31.081-0.784 1.524-2.196 2.976-4.024 4.142-1.088 0.692-3.027 0.718-57.904 0.754-31.227 0.019-59.107-0.066-61.953-0.193zM804.696 589.717c-10.080-0.193-10.53-0.233-11.878-1.073-0.772-0.479-1.931-1.667-2.57-2.635l-1.17-1.766-0.094-12.029c-0.050-6.617-0.035-20.002 0.039-29.744l0.127-17.716 1.011-1.667c0.556-0.919 1.755-2.203 2.668-2.856l1.656-1.192h123.666l1.642 1.153c0.903 0.633 2.162 1.892 2.795 2.795l1.153 1.642v59.552l-0.879 1.414c-0.483 0.776-1.59 1.977-2.459 2.668l-1.579 1.252-12.777 0.248c-14.641 0.282-85.687 0.248-101.347-0.050zM38.735 483.47c-4.159-0.254-5.121-0.66-6.763-2.857-1.062-1.42-1.227-4.263-1.568-26.901-0.197-13.129-0.149-20.241 0.177-24.57 1.071-14.341 2.132-17.719 10.731-34.095 2.255-4.296 6.353-12.696 9.105-18.666 7.282-15.791 11.006-22.934 12.277-23.535 1.628-0.773 5.759-1.047 6.263-0.414 0.717 0.898 19.421 38.007 21.479 42.62 5.792 12.964 9.675 24.795 11.055 33.713 0.661 4.263 0.876 19.482 0.403 28.381-0.238 4.505-0.602 11.604-0.809 15.78-0.413 8.418-0.402 8.377-3.234 9.869-1.504 0.794-1.858 0.804-28.381 0.864-14.77 0.033-28.603-0.048-30.737-0.177zM945.075 483.469c-4.051-0.248-6.179-1.089-7.094-2.8-0.578-1.082-1.227-28.218-0.949-39.722 0.334-13.757 1.309-22.743 3.126-28.749 1.423-4.703 3.529-9.376 10.318-22.875 3.317-6.596 8.773-17.551 12.128-24.341 5.359-10.858 6.273-12.48 7.578-13.427 1.763-1.282 2.929-1.359 4.637-0.303 1.535 0.95 2.446 2.701 14.801 28.485 13.239 27.627 16.517 34.741 17.247 37.446 0.597 2.202 0.66 5.154 0.672 31.191 0.006 15.819-0.119 29.237-0.281 29.818s-0.92 1.75-1.687 2.596c-2.717 3.009-0.589 2.806-30.21 2.861-14.561 0.028-28.189-0.057-30.286-0.184zM405.050 441.549l-53.175-0.219-1.557-1.079c-0.855-0.593-2.041-1.793-2.635-2.668l-1.078-1.59v-59.552l1.142-1.605c0.629-0.884 1.887-2.14 2.8-2.795l1.656-1.19h166.532c158.51 0 166.588 0.032 167.765 0.674 1.579 0.864 3.709 2.993 4.571 4.571 0.627 1.15 0.674 3.229 0.674 30.377 0 26.847-0.050 29.236-0.655 30.341-0.815 1.491-2.72 3.418-4.054 4.107-0.842 0.435-19.702 0.545-114.91 0.685-62.647 0.092-137.832 0.066-167.077-0.054zM266.041 315.004c-1.183-0.468-3.328-2.492-3.996-3.768-0.725-1.382-1.51-33.336-1.216-49.517 0.488-26.728 0.976-29.125 10.445-51.046 6.699-15.508 10.404-23.615 16.11-35.239 4.433-9.031 5.569-11.031 7.407-13.052l2.173-2.382 2.688 2.086c1.48 1.15 2.925 2.427 3.218 2.844 0.668 0.954 11.013 22.952 21.778 46.308l8.253 17.903v40.002c0 22-0.133 40.475-0.295 41.058-0.402 1.431-2.855 4.087-4.36 4.714-0.996 0.416-6.892 0.51-31.237 0.49-18.886-0.017-30.366-0.164-30.964-0.402zM709.248 314.895c-0.639-0.281-1.854-1.293-2.701-2.254l-1.539-1.748-0.252-10.936c-0.611-26.527 0.017-60.119 1.315-70.351 0.647-5.099 2.812-10.434 8.533-21.028 0.906-1.678 3.997-8.104 6.87-14.284 8.499-18.288 14.81-30.927 16.253-32.557l1.337-1.513 1.638 0.74c4.505 2.030 4.593 2.165 12.169 19.234 5.927 13.352 8.729 19.036 12.755 25.867 3.724 6.32 5.528 10.401 7.090 16.036 2.833 10.225 3.13 15.799 2.966 55.809-0.116 28.989-0.19 32.106-0.765 33.142-0.853 1.535-2.932 3.482-4.248 3.977-1.722 0.65-59.913 0.524-61.42-0.131z"></path>
    </svg>