<svg xmlns="http://www.w3.org/2000/svg" viewBox="-21.904 15.999 1088.011 992.215">
    <path fill="#000000" d="M142.379 927.411c-1.638-0.583-2.207-1.231-2.704-3.075-0.228-0.84-0.319-37.366-0.262-102.681 0.085-94.701 0.13-101.449 0.701-102.492 0.336-0.615 1.137-1.333 1.777-1.599 0.975-0.404 63.551-0.481 381.234-0.468 360.524 0.015 380.117 0.046 381.023 0.641 2.116 1.386 1.983-6.040 1.883 105.349-0.092 101.706-0.097 102.284-0.811 103.084-0.396 0.443-1.238 1.025-1.873 1.294-1.774 0.75-758.86 0.698-760.969-0.052zM278.463 909.185c1.443-0.747 3.647-3.207 3.998-4.466 0.364-1.303 0.364-128.489 0-129.792-0.348-1.247-2.542-3.706-4.002-4.487-1.005-0.538-5.44-0.604-49.143-0.735-54.412-0.163-50.637-0.351-51.968 2.581-0.65 1.432-0.672 3.731-0.682 67.457-0.007 70.532-0.086 67.346 1.698 68.934 0.4 0.358 1.19 0.8 1.755 0.982 0.618 0.202 20.105 0.285 49.134 0.213 43.043-0.11 48.224-0.181 49.209-0.69zM188.858 900.364c-0.688-0.366-1.736-1.348-2.328-2.185l-1.076-1.519-0.121-57.137c-0.086-41.537-0.009-57.505 0.282-58.481 0.826-2.753-2.29-2.576 43.453-2.477l40.746 0.087 1.419 0.973c0.78 0.536 1.748 1.536 2.149 2.223 0.724 1.242 0.73 1.597 0.73 58.039v56.79l-1.073 1.512c-2.189 3.088 1.534 2.841-43.253 2.841-37.944 0-39.735-0.030-40.931-0.666zM257.952 886.879c0.67-0.28 1.513-0.959 1.873-1.511 0.623-0.952 0.657-2.645 0.657-34.043 0-30.325-0.052-33.245-0.631-35.495-3.148-12.255-11.979-20.742-23.942-23.012-5.109-0.969-10.992-0.51-16.53 1.292-9.583 3.114-16.403 10.17-19.464 20.131-0.8 2.602-0.8 2.669-0.913 34.866-0.111 32.22-0.111 32.26 0.647 33.827 0.815 1.684 2.967 3.617 4.563 4.097 0.541 0.163 12.581 0.31 26.754 0.328 21.47 0.026 25.971-0.054 26.985-0.477zM213.144 878.466c-2.333-0.217-2.538-0.312-3.816-1.756l-1.353-1.526-0.267-12.383c-0.397-18.558-0.037-42.559 0.676-45.057 2.252-7.88 8.706-14.346 16.283-16.309 5.506-1.426 11.769-0.286 16.764 3.056 4.291 2.869 7.219 6.685 9.115 11.876l0.962 2.633v56.001l-0.878 1.173c-1.892 2.524-0.97 2.403-18.865 2.464-8.886 0.031-17.263-0.048-18.62-0.176zM440.377 909.211c2.472-1.354 2.293 4.087 2.291-69.444 0-65.14-0.015-66.38-0.701-67.505-0.384-0.631-1.144-1.438-1.688-1.795-0.942-0.618-3.391-0.647-50.74-0.647s-49.798 0.032-50.74 0.647c-0.543 0.357-1.304 1.164-1.688 1.795-0.686 1.125-0.699 2.364-0.701 67.481-0.002 71.604-0.093 68.174 1.832 69.205 0.449 0.241 1.229 0.565 1.736 0.719s23.050 0.254 50.099 0.22c45.611-0.058 49.264-0.106 50.3-0.673zM348.115 900.18c-0.768-0.464-1.776-1.475-2.243-2.243l-0.845-1.398-0.002-56.665c-0.003-63.471-0.234-58.156 2.626-60.226l1.429-1.034h80.555l1.476 1.071c0.813 0.589 1.765 1.598 2.118 2.243 0.607 1.112 0.642 4.12 0.642 57.952v56.778l-1.076 1.519c-2.194 3.097 1.561 2.851-43.431 2.849l-39.852-0.005-1.398-0.845zM416.738 886.228c0.813-0.54 1.932-1.749 2.487-2.693l1.008-1.713v-31.77c0-25.422-0.098-32.201-0.487-33.924-2.523-11.178-11.1-20.1-22.131-23.017-3.65-0.967-11.044-0.894-15.568 0.15-8.442 1.948-15.45 6.711-19.174 13.030-3.71 6.29-3.973 9.471-4.005 48.136l-0.023 29.322 1.076 1.147c0.592 0.631 1.723 1.449 2.514 1.815 1.365 0.637 2.702 0.666 27.13 0.582l25.695-0.086zM372.713 878.446c-2.126-0.202-2.382-0.323-3.641-1.742l-1.354-1.526-0.254-6.91c-0.138-3.8-0.183-16.197-0.097-27.551 0.176-23.049 0.073-22.060 2.828-27.631 2.739-5.54 8.344-10.141 14.188-11.649 9.609-2.478 20.127 2.537 24.681 11.77 2.399 4.86 2.36 4.297 2.364 34.186l0.007 26.96-0.808 1.188c-1.356 1.992-2.548 2.637-5.393 2.922-3.075 0.307-29.227 0.292-32.522-0.021zM567.597 909.096c0.692-0.4 1.554-1.333 1.918-2.074 0.636-1.293 0.666-3.832 0.719-62.633 0.053-58.507 0.085-61.354 0.71-62.784 1.042-2.377 2.178-2.742 9.302-2.98 5.566-0.187 6.066-0.258 6.796-0.989 1.054-1.054 1.349-4.514 0.523-6.114-0.808-1.562-1.928-1.792-9.738-2.009-7.872-0.219-9.332-0.549-12.313-2.783-4.565-3.421-14.892-12.278-25.918-22.224-6.416-5.79-12.384-10.983-13.264-11.542-2.157-1.373-4.089-1.372-5.978 0.005-2.178 1.587-19.372 16.375-26.298 22.62-10.255 9.247-14.994 12.414-21.046 14.074-2.869 0.787-7.204 1.008-10.513 0.539-1.866-0.267-1.912-0.25-3.322 1.16-1.831 1.831-1.901 3.104-0.267 4.964 1.816 2.069 2.819 2.326 8.799 2.26l5.256-0.059 2.016 2.256 0.004 62.188c0 40.354 0.128 62.641 0.36 63.482 0.198 0.71 0.67 1.575 1.051 1.918 1.818 1.645 0.862 1.615 46.69 1.532 42.733-0.076 43.272-0.085 44.515-0.805zM486.795 900.214c-0.667-0.449-1.58-1.363-2.031-2.033l-0.82-1.216 0.187-115.109 3.062-3.062 34.548-0.1c19-0.056 34.908-0.012 35.349 0.096 1.060 0.258 3.231 2.19 3.883 3.452 0.449 0.865 0.52 8.853 0.52 57.362 0 38.944-0.118 56.668-0.383 57.365-0.468 1.239-1.979 2.876-3.281 3.556-0.814 0.425-6.46 0.506-35.396 0.506h-34.428zM493.913 769.396c-0.765-0.203-0.784-0.451-0.099-1.427 0.553-0.788 14.346-12.814 22.986-20.040 5.010-4.189 5.031-4.203 6.563-3.997 0.846 0.113 1.919 0.411 2.386 0.661 1.606 0.859 25.587 22.175 26.396 23.464 0.288 0.459 0.397 0.961 0.241 1.117-0.296 0.296-57.376 0.511-58.469 0.218zM706.524 909.094c0.692-0.401 1.54-1.291 1.884-1.974 0.592-1.171 0.629-5.132 0.629-67.424 0-74.503 0.254-68.074-2.729-69.392-1.472-0.651-3.252-0.67-50.837-0.579-46.368 0.089-49.37 0.133-50.278 0.726-0.529 0.347-1.247 1.155-1.593 1.795-0.592 1.096-0.635 4.977-0.726 66.139-0.053 35.737-0.005 65.826 0.111 66.866 0.242 2.218 1.426 3.86 3.146 4.362 0.676 0.198 21.019 0.306 50.138 0.272 48.569-0.059 49.013-0.067 50.258-0.789zM614.984 900.363c-0.683-0.367-1.731-1.269-2.328-2.009l-1.086-1.342-0.124-49.955c-0.068-27.476-0.009-53.229 0.129-57.232 0.28-8.083 0.449-8.665 3.016-10.395l1.212-0.816h39.993c44.061 0 40.944-0.164 43.089 2.278l1.086 1.238 0.272 26.514c0.15 14.581 0.157 40.406 0.016 57.386-0.251 30.051-0.277 30.905-0.979 32.042-0.397 0.644-1.408 1.572-2.246 2.064l-1.527 0.894h-39.643c-37.927 0-39.696-0.029-40.884-0.667zM684.114 886.863c0.933-0.39 1.447-0.947 1.979-2.152 0.706-1.593 0.717-2.257 0.604-34.206-0.115-32.464-0.119-32.59-0.918-35.452-1.985-7.1-6.001-13.053-11.382-16.873-7.796-5.534-17.141-7.175-26.82-4.707-11.788 3.008-20.353 12.249-22.163 23.914-0.301 1.941-0.386 11.735-0.307 35.062l0.111 32.37 0.898 0.966c0.494 0.531 1.22 1.099 1.616 1.263s12.96 0.306 27.922 0.319c23.128 0.020 27.394-0.057 28.464-0.503zM638.735 878.447c-2.022-0.191-2.402-0.358-3.458-1.509l-1.186-1.294-0.262-10.551c-0.144-5.805-0.183-18.388-0.087-27.963 0.15-14.983 0.259-17.709 0.787-19.543 2.838-9.876 11.538-16.715 21.262-16.715 8.164 0 15.814 4.801 19.45 12.205 2.58 5.252 2.549 4.853 2.555 34.384 0.007 28.752 0.088 27.611-2.113 29.682-0.955 0.897-1.539 1.105-3.725 1.324-3.068 0.307-29.944 0.292-33.224-0.020zM866.061 909.287c0.575-0.296 1.383-0.995 1.795-1.553l0.749-1.013 0.093-66.594c0.104-75.016 0.351-68.496-2.644-69.82-1.472-0.651-3.253-0.67-50.887-0.579-49.287 0.095-49.363 0.097-50.374 0.839-0.557 0.41-1.295 1.297-1.642 1.974-0.592 1.159-0.628 5.090-0.627 66.926 0 42.377 0.127 66.151 0.358 66.978 0.41 1.47 1.495 2.586 3.049 3.132 0.737 0.259 16.504 0.358 50.079 0.316 42.768-0.056 49.134-0.132 50.046-0.603zM773.985 900.214c-0.667-0.449-1.58-1.36-2.027-2.027l-0.816-1.212v-114.303l0.816-1.212c0.449-0.667 1.36-1.58 2.027-2.027l1.212-0.816h40.35c44.714 0 41.476-0.178 43.439 2.396l1.007 1.32v57.106c0 63.34 0.189 58.649-2.449 60.56l-1.429 1.034h-80.918zM844.028 886.843c0.579-0.3 1.338-1.067 1.687-1.706 0.59-1.079 0.643-3.28 0.746-31.136 0.073-19.95-0.020-31.274-0.283-33.86-1.021-10.069-5.687-18.116-13.436-23.174-6.263-4.089-13.785-5.503-22.108-4.154-12.929 2.091-21.675 9.767-24.846 21.801-0.76 2.88-0.782 3.63-0.919 30.414-0.078 15.104-0.031 29.776 0.107 32.6 0.242 5.041 0.268 5.167 1.375 6.613 0.62 0.813 1.84 1.853 2.711 2.31l1.581 0.836h26.167c22.688 0 26.306-0.072 27.22-0.544zM798.542 878.524c-2.035-0.133-2.319-0.255-3.461-1.521l-1.243-1.377-0.25-5.158c-0.137-2.838-0.184-15.334-0.103-27.775 0.163-25.173 0.074-24.214 2.724-29.617 0.97-1.982 2.079-3.457 4.193-5.584 4.531-4.563 9.274-6.622 15.256-6.622 5.956 0 10.683 2.048 15.296 6.624 2.337 2.32 3.201 3.491 4.376 5.94 2.511 5.229 2.404 3.7 2.404 34.548v27.905l-2.704 2.705-17.136 0.037c-9.425 0.020-18.133-0.027-19.352-0.107zM115.631 707.625c-1.923-0.96-2.515-2.509-2.502-6.551 0.016-4.736 0.514-8.184 1.341-9.302 0.38-0.513 1.282-1.129 2.008-1.372 1.037-0.347 87.157-0.447 406.642-0.464l405.324-0.023 1.543 0.748c2.314 1.121 2.535 1.947 2.399 8.977-0.127 6.585-0.32 7.235-2.412 8.106-1.047 0.437-57.771 0.509-407.154 0.508-385.749 0-405.997-0.033-407.193-0.629zM218.701 680.963c-1.75-0.369-2.694-1.075-3.577-2.685-0.53-0.968-0.592-3.276-0.592-22.437 0-20.724 0.020-21.395 0.719-22.55 1.359-2.256 2.441-2.621 7.982-2.694 5.614-0.072 6.589 0.212 7.794 2.269 0.717 1.224 0.738 1.825 0.839 22.812l0.103 21.557-0.821 1.206c-1.491 2.192-2.204 2.476-6.743 2.672-2.27 0.098-4.838 0.032-5.704-0.15zM318.198 681.008c-2.074-0.54-2.917-1.355-3.508-3.39-0.479-1.649-0.542-4.771-0.459-22.552l0.098-20.638 1.007-1.32c1.718-2.253 2.481-2.461 8.534-2.331l5.349 0.115 1.079 1.080c0.774 0.775 1.184 1.645 1.45 3.089 0.236 1.277 0.335 9.419 0.273 22.317-0.098 19.871-0.114 20.328-0.839 21.3-1.566 2.097-2.142 2.295-7.164 2.468-2.564 0.088-5.181 0.025-5.818-0.139zM418.077 681.022c-3.153-0.837-3.802-2.034-4.102-7.587-0.124-2.271-0.213-12.307-0.197-22.302 0.033-20.538-0.086-19.667 2.775-20.45 1.964-0.538 10.632-0.15 12.305 0.551 0.656 0.274 1.456 0.903 1.779 1.398 1.070 1.632 1.335 7.541 1.206 26.683-0.122 17.901-0.144 18.402-0.865 19.368-1.585 2.123-2.178 2.327-7.184 2.484-2.553 0.080-5.125 0.017-5.716-0.14zM518.86 680.965c-2.372-0.345-3.57-1.123-4.335-2.803-0.527-1.164-0.612-3.496-0.718-19.987-0.066-10.266-0.007-20.037 0.128-21.71 0.237-2.904 0.309-3.105 1.603-4.398l1.355-1.355h6.684c6.206 0 6.735 0.051 7.402 0.719 0.704 0.704 0.719 1.197 0.719 24.076 0 16.046-0.122 23.585-0.387 24.083-0.686 1.281-2.51 1.745-6.69 1.697-2.128-0.025-4.721-0.169-5.759-0.319zM616.429 680.726c-0.683-0.358-1.573-1.218-1.974-1.909-0.709-1.219-0.734-1.888-0.836-22.809l-0.106-21.552 0.824-1.21c1.671-2.454 2.143-2.61 8.054-2.664 4.535-0.041 5.511 0.049 6.528 0.605 2.428 1.325 2.385 0.879 2.49 24.837 0.094 20.89 0.074 21.574-0.611 22.687-1.308 2.125-2.045 2.36-7.854 2.524-4.587 0.129-5.434 0.063-6.517-0.504zM718.189 681.018c-2.582-0.477-3.64-1.476-4.244-3.998-0.119-0.496-0.257-10.192-0.31-21.548l-0.096-20.646 0.815-1.32c1.506-2.438 2.565-2.806 8.197-2.859 5.734-0.054 6.79 0.279 7.881 2.475 0.641 1.289 0.677 2.517 0.677 22.721v21.36l-0.813 1.308c-1.306 2.099-2.022 2.381-6.577 2.587-2.254 0.102-4.742 0.066-5.532-0.080zM816.131 680.448c-1.699-0.739-2.269-1.917-2.643-5.454-0.393-3.735-0.423-34.998-0.037-38.849 0.249-2.48 0.355-2.728 1.697-3.982l1.433-1.336 4.115-0.22c6.774-0.362 9.082 0.397 9.911 3.251 0.605 2.087 0.994 21.288 0.671 33.209-0.254 9.381-0.315 10.038-1.044 11.121-0.426 0.632-1.32 1.517-1.986 1.967-1.115 0.751-1.597 0.814-6.094 0.801-3.335-0.009-5.245-0.172-6.023-0.51zM520.927 621.739c-399.558-0.157-459.065-0.247-459.747-0.698-1.231-0.817-1.574-2.016-1.528-5.351 0.023-1.708-0.155-4.557-0.397-6.335-1.159-8.546 0.945-15.355 6.493-21.005 4.336-4.418 4.389-4.453 34.267-22.165 19.78-11.726 47.921-28.601 71.078-42.623 7.107-4.304 14.055-8.5 15.438-9.327s13.903-8.418 27.822-16.876c13.919-8.457 36.374-22.080 49.9-30.272s26.023-15.86 27.775-17.036c4.104-2.754 7.548-4.371 11.356-5.327l3.051-0.767 425.041-0.039 5.385 1.12c11.289 2.347 17.609 5.272 36.258 16.777 21.241 13.104 42.909 26.301 78.080 47.552 75.542 45.65 113.635 68.745 126.536 76.72 7.518 4.648 7.692 4.904 8.153 11.867 0.179 2.716 0.219 8.531 0.089 12.92l-0.237 7.982-1.414 1.279c-1.513 1.366-2.844 2.021-3.824 1.875-0.332-0.048-207.138-0.171-459.57-0.268zM223.241 575.059c2.206-1.736 2.061 0.813 2.061-35.601v-33.278l-1.405-1.437c-1.969-2.015-3.096-2.349-4.558-1.354-0.632 0.431-1.489 1.24-1.902 1.797-0.748 1.008-0.751 1.176-0.849 33.499-0.067 22.174 0.024 32.936 0.286 33.909 0.277 1.027 0.801 1.724 1.892 2.516 1.697 1.23 2.867 1.218 4.476-0.046zM269.821 574.619l1.528-1.528 0.254-5.206c0.397-8.144 0.081-61.086-0.371-61.848-0.209-0.352-1.154-1.281-2.1-2.061l-1.722-1.424-0.951 0.68c-2.328 1.663-2.855 2.412-3.093 4.388-0.127 1.061-0.182 16.153-0.122 33.538 0.104 29.752 0.15 31.664 0.759 32.596 0.748 1.14 2.633 2.386 3.618 2.388 0.371 0 1.362-0.685 2.203-1.526zM314.987 575.657c0.644-0.268 1.608-1.008 2.142-1.644l0.969-1.152v-66.661l-0.975-1.16c-0.537-0.638-1.666-1.463-2.509-1.838-1.775-0.786-2.303-0.615-3.959 1.269l-1.078 1.229-0.236 10.901c-0.129 5.996-0.17 21.095-0.089 33.556 0.163 25.14 0.025 23.782 2.548 25.318 1.307 0.798 1.658 0.816 3.185 0.178zM362.789 574.62l1.515-1.527 0.254-16.783c0.139-9.231 0.143-24.335 0.007-33.565l-0.247-16.783-0.871-1.166c-0.479-0.643-1.346-1.412-1.929-1.713-0.969-0.501-1.167-0.488-2.405 0.145-0.742 0.381-1.751 1.125-2.245 1.653l-0.898 0.961-0.097 33.088c-0.072 25.005 0.008 33.34 0.332 34.123 0.464 1.125 3.245 3.093 4.368 3.093 0.383 0 1.377-0.686 2.211-1.527zM408.097 575.445c0.631-0.384 1.438-1.144 1.795-1.688 0.613-0.935 0.647-2.802 0.647-34.457v-33.469l-1.076-1.133c-1.749-1.84-2.695-2.195-4.067-1.529-0.637 0.308-1.53 1.005-1.986 1.546-0.798 0.947-0.839 1.307-1.066 9.374-0.306 10.771-0.307 41.368-0.006 51.318l0.233 7.687 1.515 1.527c1.692 1.705 2.347 1.84 4.011 0.825zM455.51 574.605c0.646-0.622 1.342-1.701 1.542-2.399 0.241-0.834 0.331-12.305 0.26-33.533l-0.108-32.265-2.123-1.93c-1.167-1.060-2.223-1.93-2.347-1.93s-1.107 0.893-2.186 1.986l-1.962 1.986v32.988c0 32.91 0.004 32.99 0.75 34.002 0.412 0.557 1.297 1.385 1.966 1.84 1.493 1.017 2.567 0.826 4.205-0.751zM501.442 575.188c0.813-0.527 1.687-1.346 1.941-1.819 0.364-0.681 0.46-7.789 0.455-34.219l-0.006-33.36-1.057-1.124c-0.58-0.618-1.583-1.348-2.229-1.624-1.012-0.434-1.31-0.429-2.202 0.032-0.566 0.293-1.452 1.034-1.97 1.649l-0.941 1.117 0.004 33.448c0.004 32.161 0.029 33.487 0.68 34.474 0.761 1.156 2.448 2.378 3.285 2.382 0.306 0 1.223-0.43 2.036-0.957zM548.149 575.072c0.818-0.592 1.606-1.517 1.76-2.064 0.151-0.545 0.278-15.88 0.278-34.079v-33.088l-0.898-0.973c-0.494-0.536-1.534-1.264-2.313-1.619-1.255-0.571-1.528-0.587-2.405-0.133-0.544 0.28-1.442 1.105-1.996 1.83l-1.007 1.32v33.091c0 36.565-0.15 34.257 2.321 35.936 1.645 1.119 2.467 1.075 4.258-0.221zM593.777 575.62c0.559-0.29 1.439-1.029 1.957-1.644l0.941-1.117v-66.492l-0.762-1.113c-0.421-0.613-1.255-1.463-1.853-1.888-1.016-0.722-1.177-0.738-2.378-0.251-0.709 0.289-1.814 1.086-2.455 1.771l-1.166 1.246v66.684l0.775 0.986c0.843 1.073 2.714 2.337 3.461 2.34 0.256 0 0.924-0.235 1.483-0.525zM641.23 574.751l1.572-1.396v-67.392l-0.837-1.173c-0.461-0.644-1.307-1.415-1.882-1.713-0.956-0.495-1.164-0.482-2.396 0.15-0.742 0.381-1.751 1.125-2.245 1.653l-0.898 0.961v33.677c0 33.17 0.010 33.69 0.719 34.484 0.995 1.12 2.724 2.138 3.634 2.139 0.42 0 1.469-0.627 2.334-1.394zM687.109 575.27c2.557-1.888 2.361 1.082 2.361-35.804 0-33.196 0-33.273-0.75-34.284-0.412-0.557-1.268-1.366-1.902-1.797-1.417-0.965-2.598-0.66-4.458 1.146l-1.246 1.211-0.254 6.213c-0.14 3.417-0.198 18.492-0.126 33.496 0.099 21.188 0.229 27.463 0.583 28.085 0.592 1.044 2.911 2.609 3.862 2.609 0.41 0 1.28-0.395 1.931-0.878zM733.351 575.062c1.282-0.735 1.967-1.389 2.153-2.061 0.15-0.54 0.276-15.868 0.276-34.063 0-32.574-0.010-33.092-0.719-33.872-0.396-0.436-1.508-1.195-2.475-1.684-1.749-0.888-1.761-0.889-2.693-0.198-0.514 0.382-1.3 1.228-1.744 1.879l-0.808 1.188v33.17c0 36.138-0.102 34.31 2.016 35.977 1.255 0.988 1.759 0.945 3.992-0.334zM779.372 575.62c0.559-0.29 1.439-1.029 1.957-1.644l0.941-1.117v-33.49c0-33.45 0-33.491-0.751-34.444-0.413-0.527-1.394-1.283-2.178-1.684l-1.426-0.728-1.59 0.93c-2.865 1.679-2.671-0.951-2.671 36.198v33.176l0.775 0.986c0.843 1.073 2.714 2.337 3.461 2.34 0.256 0 0.924-0.235 1.483-0.525zM827.246 574.736l1.513-1.411v-67.417l-1.002-1.314c-1.573-2.061-2.057-2.182-4.223-1.048-3.556 1.86-3.231-1.775-3.231 35.982 0 31.87 0.026 33.224 0.67 34.095 0.773 1.042 3.171 2.507 4.118 2.516 0.354 0.005 1.322-0.63 2.153-1.404zM324.742 434.744c-3.358-0.85-3.804-2.070-4.037-10.988-0.204-7.871 0.084-9.68 1.632-10.277 0.605-0.232 4.142-0.327 9.406-0.251 9.388 0.137 10.015 0.271 11.291 2.45 0.68 1.16 0.735 1.825 0.717 8.615-0.029 10.976 0.373 10.563-10.375 10.655-4.155 0.035-8.041-0.058-8.633-0.207zM354.838 434.325c-2.204-1.412-2.334-1.904-2.399-9.081-0.056-6.286-0.026-6.576 0.84-8.309 1.116-2.231 2.554-3.001 6.494-3.478 1.661-0.202 12.751-0.296 26.481-0.228l23.622 0.117 1.268 0.968c2.282 1.74 2.533 2.772 2.38 9.751-0.12 5.428-0.226 6.325-0.898 7.59-0.42 0.789-1.223 1.703-1.785 2.031-2.165 1.259-4.815 1.381-30.076 1.373-24.284-0.007-24.817-0.020-25.929-0.735zM425.616 434.4c-2.508-1.576-2.853-2.291-3.104-6.455-0.3-4.947 0.153-10.144 1.014-11.616 0.872-1.492 2.821-2.449 5.768-2.828 2.87-0.371 43.903-0.397 47.914-0.033 2.495 0.228 2.894 0.371 4.014 1.458 1.952 1.892 2.083 2.526 1.95 9.425-0.141 7.356-0.423 8.163-3.357 9.636l-1.788 0.898-25.669 0.097c-24.616 0.092-25.711 0.069-26.745-0.579zM494.723 434.268c-2.323-1.567-2.546-2.367-2.599-9.354-0.046-5.948-0.006-6.337 0.826-8.014 1.053-2.126 2.513-2.953 6.003-3.402 2.965-0.384 46.534-0.387 49.224-0.007 1.632 0.231 2.155 0.506 3.286 1.719 1.186 1.27 1.377 1.734 1.606 3.877 0.38 3.543 0.010 10.526-0.635 12.026-0.297 0.692-0.926 1.597-1.396 2.014-1.983 1.76-1.698 1.741-29.231 1.853l-25.864 0.107-1.22-0.823zM565.262 434.727c-0.396-0.168-1.197-0.813-1.782-1.43-0.898-0.949-1.104-1.528-1.324-3.717-0.397-3.956-0.35-8.985 0.102-11.096 0.5-2.324 2.015-3.974 4.283-4.66 1.268-0.384 6.815-0.481 27.082-0.481h25.487l1.151 0.823c0.633 0.451 1.523 1.341 1.974 1.974 0.784 1.099 0.823 1.454 0.823 7.613 0 7.769-0.309 8.745-3.25 10.231l-1.775 0.898-26.027 0.073c-14.315 0.041-26.349-0.063-26.745-0.231zM633.563 433.193l-1.769-1.898 0.124-6.462c0.119-6.091 0.176-6.554 1.017-8.059 2.005-3.592 2.959-3.695 32.752-3.545l23.423 0.117 1.141 0.813c0.629 0.449 1.489 1.376 1.914 2.062 0.729 1.179 0.765 1.612 0.654 7.802-0.139 7.723-0.394 8.478-3.355 9.964l-1.788 0.898-52.345 0.206zM704.761 434.595c-0.672-0.236-1.561-0.885-1.974-1.441-0.708-0.954-0.751-1.463-0.751-8.615 0-11.554-0.355-11.192 10.95-11.192 8.422 0 9.111 0.137 10.558 2.090 0.708 0.956 0.749 1.463 0.749 8.859 0 11.027 0.307 10.731-11.129 10.731-4.64 0-7.612-0.15-8.404-0.428zM242.513 404.168c-2.685-0.78-3.74-3.525-4.011-10.422-0.202-5.117 0.213-7.185 2.178-10.901 2.507-4.738 6.369-7.618 19.263-14.372 13.793-7.222 33.871-17.978 52.951-28.366 70.467-38.361 65.791-35.9 71.309-37.56 2.62-0.787 2.945-0.799 36.209-1.045 47.65-0.353 139.952-0.349 192.776 0.007l45.052 0.305 3.231 0.941c3.814 1.111 8.284 3.21 17.591 8.264 3.751 2.037 13.526 7.3 21.718 11.696s16.11 8.673 17.591 9.506c2.565 1.441 23.264 12.746 65.875 35.975 11.193 6.103 19.897 11.070 20.599 11.759 1.147 1.125 1.231 1.384 1.559 4.726 0.189 1.945 0.254 6.595 0.139 10.329-0.195 6.416-0.252 6.84-1.021 7.664-0.449 0.479-1.251 1.099-1.784 1.375-0.83 0.433-41.091 0.501-280.547 0.473-161.683-0.020-280.040-0.166-280.677-0.351zM368.401 379.104l1.572-1.396 0.094-24.184c0.107-27.514 0.28-25.851-2.871-27.567l-1.701-0.926-1.35 0.771c-0.743 0.423-1.673 1.203-2.069 1.732-0.701 0.94-0.719 1.517-0.714 25.256 0.004 22.927 0.041 24.35 0.658 25.266 0.861 1.275 2.689 2.425 3.868 2.433 0.591 0.005 1.528-0.514 2.514-1.388zM402.694 379.694c2.191-1.502 2.1-0.332 2.1-27.098v-24.563l-1.554-1.45c-1.342-1.252-1.71-1.419-2.693-1.229-0.627 0.123-1.786 0.671-2.575 1.222l-1.437 1-0.28 4.65c-0.355 5.85-0.132 44.99 0.261 45.862 0.449 0.995 2.758 2.405 3.941 2.405 0.583 0 1.591-0.362 2.236-0.805zM437.495 379.707c2.455-1.684 2.328-0.202 2.309-26.878-0.016-23.555-0.033-24.125-0.737-25.116-0.397-0.557-1.272-1.354-1.945-1.771-1.567-0.969-2.688-0.707-4.543 1.058l-1.4 1.333 0.007 24.556c0.008 27.216-0.163 25.253 2.336 26.902 1.388 0.917 2.547 0.891 3.972-0.085zM473.008 378.971l1.528-1.528 0.254-3.767c0.138-2.073 0.198-12.988 0.13-24.258l-0.124-20.491-0.968-1.268c-1.099-1.442-3.218-2.59-4.204-2.278-1.162 0.37-3.154 2.596-3.395 3.792-0.126 0.634-0.23 11.478-0.23 24.096 0 25.11-0.058 24.414 2.133 26.255 1.722 1.45 3.017 1.3 4.874-0.557zM508.005 379.063l1.437-1.437v-48.655l-0.907-1.335c-1.723-2.534-3.479-2.817-5.866-0.947-1.874 1.469-1.816 0.644-1.818 26.527 0 26.501-0.15 24.705 2.173 26.417 1.798 1.326 3.255 1.16 4.984-0.569zM542.756 378.907l1.684-1.593v-24.166c0-18.812-0.1-24.343-0.453-24.959-0.531-0.93-2.456-2.438-3.525-2.761-0.883-0.267-2.767 0.903-3.887 2.412-0.735 0.994-0.754 1.401-0.879 19.923-0.072 10.401-0.013 21.415 0.13 24.474l0.259 5.564 1.411 1.346c1.958 1.868 3.078 1.816 5.26-0.245zM577.75 379.088l1.513-1.411v-24.59c0-24.277-0.009-24.603-0.74-25.581-0.408-0.545-1.157-1.303-1.666-1.684-0.81-0.605-1.089-0.637-2.229-0.262-0.716 0.237-1.866 0.96-2.553 1.608l-1.251 1.178v24.472c0 27.095-0.137 25.513 2.319 27.008 1.716 1.047 2.893 0.857 4.607-0.741zM611.983 379.694c2.191-1.502 2.1-0.332 2.1-27.112v-24.577l-1.572-1.396c-1.817-1.613-2.232-1.671-4.139-0.58-2.892 1.654-2.712 0.241-2.758 21.803-0.021 10.563-0.024 21.613-0.005 24.556l0.035 5.35 1.45 1.381c1.717 1.632 3.101 1.797 4.884 0.576zM646.763 379.774c2.219-1.372 2.191-1.203 2.435-14.503 0.123-6.698 0.122-17.741-0.005-24.543-0.224-12.263-0.232-12.374-1.060-13.358-0.46-0.546-1.411-1.266-2.113-1.599-1.216-0.579-1.345-0.574-2.607 0.078-0.731 0.377-1.691 1.219-2.136 1.874l-0.808 1.19v48.452l1.567 1.567c1.79 1.79 2.879 1.984 4.726 0.844zM682.056 379.512c0.839-0.542 1.637-1.391 1.776-1.885s0.254-11.729 0.254-24.967c0-27.195 0.215-25.236-2.913-26.748-1.689-0.818-1.697-0.818-2.951-0.131-0.692 0.379-1.593 1.145-2.005 1.702-0.739 1.003-0.748 1.268-0.748 24.95 0 13.164 0.13 24.406 0.291 24.979s0.783 1.502 1.385 2.064c1.412 1.32 2.912 1.332 4.91 0.034zM441.411 292.568c-2.195-0.899-2.75-3.062-2.36-9.195 0.314-4.903 0.761-5.974 2.763-6.637 0.815-0.268 5.958-0.453 14.934-0.536 15.269-0.139 14.814-0.063 16.162-2.706 0.552-1.080 0.629-2.394 0.629-10.691 0-10.628 0.121-11.247 2.463-12.703 1.255-0.781 1.623-0.813 9.206-0.813 12.025 0 11.386 0.819 14.575-18.696 9.384-57.453 21.977-132.179 22.456-133.266l0.584-1.326 0.475 1.616c0.263 0.89 3.803 21.566 7.869 45.949 11.412 68.446 17.024 100.971 17.561 101.792 0.27 0.412 1.515 1.411 2.769 2.219l2.278 1.469 6.301 0.343c8.405 0.456 10.005 1.143 11.157 4.791 0.211 0.667 0.421 4.765 0.467 9.107 0.091 8.469 0.293 9.572 2.057 11.174 1.883 1.712 1.901 1.714 15.737 1.734 12.981 0.018 13.115 0.025 14.411 0.831 2.136 1.328 2.327 1.889 2.564 7.504 0.245 5.829-0.050 7.52-1.405 8.033-1.116 0.423-162.616 0.426-163.652 0.003z"></path>
    </svg>