<svg xmlns="http://www.w3.org/2000/svg" viewBox="-15.864 -18.161 1057.509 1058.163">
    <path fill="#000000" d="M64.138 766.394v-193.6l3.988-0.021c6.905-0.036 8.252-1.773 5.747-7.41-1.197-2.693-2.55-6.037-3.009-7.432s-2.161-2.538-3.781-2.538c-1.949 0-2.947-0.952-2.947-2.812 0-2.419 1.415-2.952 10.128-3.811 5.57-0.549 10.761-1.761 11.536-2.695s2.132-9.171 3.015-18.305c2.473-25.589 5.086-38.052 10.115-48.268 5.146-10.454 18.746-25.589 29.469-32.796 7.645-5.138 24.423-13.127 27.569-13.127 4.227 0 6.858-5.306 7.399-14.919 0.92-16.402 5.121-16.564 5.162-0.198 0.029 11.011 0.931 11.911 23.225 23.189 35.914 18.165 48.545 38.666 52.005 84.409 1.263 16.695 3.13 23.135 6.167 21.259 0.718-0.443 1.271-29.445 1.253-65.606-0.029-61.436-0.181-65.14-2.901-71.132-3.425-7.551-3.647-12.255-0.693-14.707 1.482-1.23 2.176-4.522 2.176-10.328 0-7.242 0.393-8.523 2.611-8.523 5.755 0 6.091-2.165 6.091-39.241v-35.761l-4.2-7.871c-3.941-7.387-4.142-8.568-3.263-19.234l0.937-11.363 10.152-3.27 0.426-10.465c0.297-7.301-0.251-11.773-1.813-14.792-3.087-5.971-2.867-6.868 2.113-8.604 3.83-1.336 4.35-2.191 4.35-7.173 0-3.111 1.295-11.792 2.877-19.29 3.57-16.916 3.843-40.667 0.629-54.512-2.676-11.524-1.831-22.102 2.641-33.082 2.182-5.355 3.185-12.064 3.842-25.669 0.952-19.759 2.737-24.857 6.785-19.372 1.476 1.998 2.083 7.044 2.098 17.402 0.017 10.541 1.010 18.61 3.588 29.089 4.221 17.167 4.399 22.086 1.333 37.218-1.777 8.772-1.945 12.453-0.725 15.951 0.873 2.501 1.586 9.925 1.586 16.499 0 10.020 1.925 24.885 5.089 39.289 0.373 1.7 2.079 3.456 3.793 3.904 2.68 0.701 2.973 1.484 2.101 5.611-0.557 2.639-1.329 9.588-1.715 15.444-0.764 11.604 0.494 14.732 5.928 14.732 3.041 0 3.3 0.805 4.226 13.066 0.928 12.29 0.768 13.437-2.693 19.342-3.674 6.267-3.678 6.334-3.678 42.59 0 30.023 0.366 36.617 2.111 38.065 1.161 0.964 2.719 1.378 3.462 0.918 2.712-1.676 4.202 3.055 5.089 16.163 0.77 11.375 0.47 14.51-1.977 20.719-2.765 7.012-2.884 10.901-2.884 93.595 0 77.772 0.23 86.366 2.321 87.17 1.277 0.49 2.898-0.021 3.604-1.133s1.315-23.233 1.355-49.156c0.060-38.096 0.47-47.827 2.147-50.757 1.372-2.401 2.090-8.15 2.123-17.006 0.063-16.308 0.611-16.845 19.537-19.109 7.128-0.853 13.442-2.049 14.031-2.657s1.332-21.664 1.651-46.788l0.581-45.681 5.164-16.678c6.733-21.743 10.188-30.228 17.196-42.227 12.005-20.554 31.067-41.217 51.383-55.695 12.61-8.987 45.955-26.267 58.733-30.436 9.342-3.048 20.181-12.592 17.697-15.582-1.026-1.237-1.062-7.341-0.115-19.199 1.384-17.32 2.965-22.385 5.659-18.124 1.199 1.897 2.317 24.724 1.812 36.966-0.237 5.73 7.499 12.909 17.557 16.293 11.453 3.855 40.619 19.061 56.969 29.701 35.069 22.825 59.251 56.973 70.077 98.957 5.866 22.75 7.214 36.997 7.245 76.568 0.021 25.398 0.442 32.999 1.838 33.019 7.315 0.114 30.71 4.428 31.573 5.822 0.588 0.951 1.114 8.245 1.17 16.209 0.075 10.5 0.721 15.423 2.351 17.913 1.916 2.925 2.248 10.504 2.248 51.339 0 40.746 0.313 47.907 2.090 47.907 1.15 0 2.485-0.638 2.967-1.421s0.833-40.047 0.777-87.257c-0.095-81.82-0.237-86.289-3.031-95.484-2.284-7.518-2.597-10.524-1.418-13.626 0.833-2.189 1.513-7.443 1.513-11.68 0-7.396 0.173-7.735 4.35-8.571l4.35-0.87v-36.973c0-36.707-0.029-37.033-3.759-45.191-3.417-7.469-3.667-9.248-2.756-19.539l1.001-11.321 9.138-0.888v-9.427c0-5.185-0.462-12.879-1.027-17.1-0.97-7.245-0.828-7.749 2.538-9.028 2.327-0.885 3.575-2.5 3.594-4.655 0.017-1.814 1.018-7.54 2.227-12.725s2.778-19.436 3.488-31.67c1.038-17.884 0.889-23.569-0.762-29.003-3.092-10.189-2.55-21.418 1.698-35.147 2.708-8.749 3.993-16.751 4.527-28.172 0.41-8.773 1.405-17.213 2.21-18.752 1.428-2.728 1.516-2.731 3.451-0.086 1.399 1.913 1.984 7.498 1.984 18.934 0 14.4 0.428 17.175 3.821 24.739 5.047 11.25 6.052 25.418 2.811 39.662-1.329 5.845-1.998 12.529-1.488 14.856s1.127 9.569 1.368 16.095c0.243 6.527 1.486 17.661 2.764 24.745s2.324 14.44 2.324 16.345c0 2.318 1.239 4.031 3.74 5.171 3.116 1.421 3.563 2.321 2.684 5.408-0.581 2.037-1.122 9.576-1.202 16.754l-0.147 13.052 9.008 0.877 0.853 13.172c0.798 12.313 0.623 13.513-2.691 18.389-3.532 5.198-3.544 5.348-3.544 42.505v37.289l3.988 1.905c3.605 1.721 4.030 2.741 4.431 10.592 0.244 4.779 1.058 9.308 1.813 10.066 1.983 1.995 1.683 8.393-0.662 14.035-1.621 3.901-2.095 17.933-2.346 69.424-0.355 72.646-0.448 68.159 1.427 68.159 2.905 0 4.296-5.995 7.257-31.267 3.927-33.529 6.376-39.277 24.366-57.224 11.267-11.24 14.574-13.569 30.063-21.165l17.402-8.535 0.725-10.152c1.214-16.998 5.734-18.364 5.778-1.746 0.024 10.045 2.793 13.592 13.861 17.764 18.123 6.831 36.978 21.637 46.648 36.631 7.943 12.313 11.801 24.485 13.531 42.676 3.204 33.701 2.754 32.103 9.369 33.274 3.19 0.566 8.19 1.066 11.11 1.112 6.187 0.097 6.855 3.513 1.242 6.345-1.95 0.984-4.367 4.376-5.665 7.953-2.551 7.024-1.356 8.925 5.639 8.967l3.625 0.021-0.746 387.203h-894.748zM732.388 913.296c1.898-1.898 2.394-19.64 0.625-22.42-0.589-0.925-3.026-1.904-5.416-2.176-4.029-0.457-4.378-0.969-4.8-7.020-0.567-8.141-1.527-9.104-10.066-10.086l-6.881-0.791-0.441-6.881c-0.371-5.798-0.969-7.013-3.793-7.721-1.843-0.463-4.255-0.715-5.359-0.561-6.283 0.876-7.083 0.071-7.083-7.137 0-4.188-0.804-7.739-1.968-8.707-1.441-1.197-48.364-1.534-175.111-1.266l-173.143 0.369-0.435 8.338c-0.314 6.012-1.022 8.39-2.538 8.519-1.156 0.1-4.084 0.263-6.506 0.362-5.318 0.218-7.147 2.758-7.175 9.97-0.021 5.389-0.076 5.439-5.918 5.439-9.429 0-11.506 1.841-11.506 10.202 0 6.648-0.269 7.201-3.507 7.201-7.474 0-8.095 0.994-8.095 12.965 0 6.163 0.435 11.641 0.967 12.172s98.942 0.967 218.689 0.967c167.405 0 218.125-0.401 219.463-1.741zM602.767 796.69c2.047-0.785 2.294-8.196 2.294-68.706 0-57.318-0.324-68.095-2.093-69.562-1.151-0.955-5.228-2.185-9.060-2.733l-6.967-0.997-1.002-8.030c-1.463-11.707-6.339-23.499-12.479-30.172-8.124-8.829-59.316-44.151-62.661-43.236-3.441 0.943-47.781 32.107-56.121 39.445-8.628 7.591-14.119 17.664-16.587 30.426-0.926 4.785-2.317 9.516-3.094 10.514s-4.137 1.813-7.469 1.813c-3.332 0-6.841 0.783-7.799 1.741-2.576 2.576-2.505 138.379 0.073 139.419 2.612 1.055 180.228 1.132 182.969 0.080zM192.916 787.13c1.284-1.284 1.741-14.457 1.741-50.267 0-41.954-0.34-49.604-2.507-56.48-3.211-10.184-12.698-20.951-21.384-24.269-6.209-2.373-6.609-2.349-12.947 0.72-7.73 3.742-14.61 11.155-18.841 20.297-2.891 6.246-3.076 9.31-3.487 57.123-0.317 37.030 0.021 51.069 1.266 52.57 2.271 2.737 53.452 3.015 56.161 0.306zM886.493 787.369c2.684-1.436 2.806-3.518 2.806-48.429 0-42.959-0.245-47.706-2.911-56.145-5.219-16.522-16.057-27.344-27.384-27.344-7.941 0-15.109 4.52-21.681 13.673-8.081 11.251-8.931 17.913-8.931 69.945 0 42.999 0.203 46.874 2.538 48.233 3.387 1.973 51.894 2.030 55.565 0.064zM314.609 758.848c0.521-1.357 0.973-9.678 1.002-18.489 0.049-13.808-0.387-16.863-3.155-22.102-3.847-7.286-11.523-13.499-16.677-13.499-4.846 0-12.49 6.481-15.149 12.845-2.313 5.535-4.28 33.873-2.769 39.891l0.959 3.823h17.421c15.063 0 17.549-0.333 18.367-2.468zM745.439 743.915c0.568-21.824-0.079-24.675-7.372-32.448-7.722-8.231-10.776-9.107-17.108-4.912-8.392 5.561-11.757 14.584-12.605 33.792-0.541 12.27-0.247 17.145 1.135 18.81 1.528 1.841 4.915 2.175 18.691 1.841l16.825-0.407zM215.683 531.748c-11.119-1.962-90.446-1.914-100.064 0.060-5.424 1.113 7.371 1.487 50.757 1.482 45.339-0.005 56.107-0.342 49.306-1.541zM907.426 531.756c-4.785-0.84-27.3-1.528-50.031-1.528s-45.246 0.688-50.031 1.528c-6.768 1.188 4.355 1.528 50.031 1.528s56.799-0.34 50.031-1.528zM377.082 443.485c0.349-6.468-0.114-8.385-2.561-10.6-2.917-2.639-3.037-2.638-5.093 0.079-2.674 3.535-2.974 18.949-0.385 19.854 0.997 0.349 3.117 0.168 4.712-0.401 2.337-0.834 2.983-2.569 3.326-8.932zM657.235 443.91c-0.021-4.367-1.009-7.977-2.828-10.337-2.743-3.557-2.835-3.572-4.889-0.777-2.306 3.14-4.341 14.764-2.972 16.98 1.503 2.429 6.991 3.85 8.909 2.303 0.997-0.804 1.799-4.481 1.781-8.171zM404.643 449.236c1.883-1.883 2.294-11.079 0.823-18.432-1.265-6.321-5.761-8.599-9.53-4.829-2.945 2.945-5.329 18.137-3.567 22.729 1.048 2.732 9.7 3.107 12.274 0.533zM630.865 440.615c0.375-8.512 0.005-10.117-3.171-13.777-3.384-3.898-3.745-3.997-6.093-1.687-3.195 3.143-5.534 19.102-3.387 23.11 1.189 2.221 2.755 2.776 6.882 2.431l5.343-0.444zM448.144 436.933c0.39-8.152 0.047-9.395-3.786-13.684l-4.215-4.717-3.7 3.7c-2.686 2.686-3.979 5.93-4.717 11.847-1.467 11.745-0.76 12.783 8.358 12.258l7.63-0.44zM489.408 445.695c5.372-0.889 5.439-0.98 5.423-7.597-0.029-11.398-1.613-17.625-5.061-19.886-6.97-4.568-12.983 3.603-12.66 17.202 0.284 11.939 0.609 12.212 12.299 10.28zM546.718 436.473c0.471-11.375-3.093-18.852-8.988-18.852-5.669 0-8.080 5-8.080 16.758 0 5.672 0.465 10.776 1.031 11.345s4.319 0.839 8.338 0.605l7.306-0.427zM591.189 435.332c-0.078-8.727-0.626-11.1-3.143-13.615-1.715-1.715-4.018-2.674-5.268-2.195-5.309 2.037-9.254 17.36-6.347 24.647 0.841 2.107 2.388 2.531 7.947 2.176l6.903-0.442-0.095-10.569z"></path>
    </svg>