<svg xmlns="http://www.w3.org/2000/svg" viewBox="-45.464 47.930 1135.928 928.070">
    <path fill="#000000" d="M34.537 882.492v-13.51h24.74c14.015 0 26.073-0.714 27.815-1.646 2.986-1.599 3.075-4.333 3.075-95.287 0-84.513-0.249-93.784-2.564-95.079-2.309-1.29-2.538-8.754-2.299-74.551l0.264-73.117-8.43-1.014c-4.637-0.558-16.118-1.018-25.516-1.026l-17.086-0.014v-4.422c0-4.24 0.774-4.676 18.677-10.542 16.233-5.321 114.21-42.031 131.274-49.189 3.833-1.607 13.946-10.534 27.173-23.984 11.586-11.783 23.013-22.164 25.391-23.070 2.728-1.038 28.844-1.644 70.731-1.644 61.292 0 66.588-0.213 68.751-2.781 1.29-1.53 11.514-21.019 22.722-43.314s24.118-47.682 28.687-56.426c4.569-8.742 24.806-48.438 44.97-88.216 45.984-90.714 48.619-95.73 50.284-95.659 0.75 0.030 11.314 19.601 23.479 43.487s35.046 68.824 50.847 99.858c63.76 125.233 70.146 137.597 72.466 140.27 2.226 2.564 7.518 2.781 68.027 2.781 41.891 0 67.23 0.604 70.086 1.668 2.461 0.918 14.489 11.575 26.728 23.687l22.254 22.020 31.789 11.97c17.484 6.582 43.95 16.566 58.809 22.184s35.068 12.905 44.901 16.191c17.262 5.766 17.882 6.134 17.882 10.554v4.578l-16.291 0.1c-16.242 0.1-28.816 0.982-32.585 2.29-2.674 0.93-2.879 128.573-0.222 137.446 1.625 5.418 1.432 6.232-2.383 10.047l-4.15 4.15v91.351c0 80.928 0.284 91.638 2.498 93.849 2.061 2.061 6.918 2.498 27.815 2.498h25.317v27.020h-975.925zM189.007 863.021c0.406-3.534 1.415-4.474 5.266-4.913 2.621-0.296 5.286-1.371 5.922-2.383 1.659-2.638 1.025-174.534-0.655-177.875-0.769-1.53-2.358-2.781-3.533-2.781s-3.024-1.074-4.111-2.383c-1.652-1.991-7.938-2.383-38.178-2.383h-36.198l-9.867 11.238v91.021c0 68.674 0.468 91.489 1.907 92.928 1.378 1.378 12.586 1.907 40.425 1.907h38.518zM936.967 772.818l0.414-93.777-10-8.742h-34.704c-32.166 0-35.172 0.246-41.11 3.34l-6.406 3.34v180.877h5.562c5.13 0 5.562 0.375 5.562 4.794v4.794l80.267-0.848zM375.886 767.798l0.411-89.262-14.73-8.234h-67.401c-56.34 0-67.542 0.366-68.256 2.226-0.471 1.226-2.237 2.588-3.924 3.030-2.986 0.781-3.068 3.21-3.068 90.49 0 49.327 0.485 90.173 1.074 90.762s35.816 0.889 78.282 0.663l77.205-0.414zM253.354 826.596c-2.021-2.021-1.218-74.442 0.846-76.506 1.257-1.257 8.006-1.907 19.812-1.907 16.074 0 18.073 0.315 19.551 3.075 2.202 4.11 2.202 69.211 0 73.325-1.483 2.773-3.486 3.075-20.397 3.075-10.314 0-19.23-0.476-19.812-1.061zM300.295 825.749c-2.706-2.706-2.706-72.954 0-75.657 1.278-1.278 8.358-1.907 21.402-1.907 17.646 0 19.65 0.293 21.138 3.075 0.986 1.842 1.646 16.549 1.646 36.663s-0.66 34.82-1.646 36.663c-1.49 2.783-3.493 3.075-21.138 3.075-13.043 0-20.126-0.63-21.402-1.907zM254.278 739.182c-1.469-0.594-1.986-7.153-1.986-25.122 0-27.591-0.756-26.213 14.398-26.258 11.89-0.036 13.189 1.866 13.935 20.43 1.118 27.829-0.924 32.072-15.333 31.873-4.963-0.068-9.919-0.486-11.012-0.928zM286.43 737.587c-2.264-2.264-2.568-5.7-2.1-23.766 0.378-14.575 1.187-21.756 2.612-23.18 2.31-2.31 21.464-2.907 23.631-0.738 0.727 0.729 1.326 11.338 1.326 23.574 0 20.189-0.285 22.456-3.086 24.501-4.398 3.212-19.033 2.958-22.383-0.391zM315.342 739.176c-1.985-1.985-1.206-47.431 0.846-49.484 1.124-1.124 6.534-1.907 13.194-1.907s12.066 0.783 13.194 1.907c1.302 1.302 1.907 9.006 1.907 24.318s-0.606 23.015-1.907 24.318c-2.018 2.018-25.338 2.742-27.234 0.846zM431.903 799.841l0.796-57.222 33.972-0.429c23.718-0.3 34.632 0.118 36.161 1.386 1.782 1.481 2.19 12.238 2.19 58.048v56.231h38.147v-55.518c0-48.642 0.314-55.83 2.528-58.047 2.181-2.181 7.147-2.469 36.161-2.1l33.63 0.427 0.834 115.354 29.365-0.914 0.822-178.528-14.73-8.234-109.074 0.036c-104.304 0.030-109.371 0.169-115.83 3.102l-6.755 3.066v89.617c0 49.29 0.501 90.118 1.115 90.732s7.588 0.911 15.498 0.663l14.382-0.452zM433.596 734.801c-2.51-3.024-2.463-25.901 0.059-28.938 1.374-1.655 4.497-2.191 10.818-1.858l8.886 0.469 0.462 14.065c0.294 9.004-0.204 14.866-1.386 16.291-2.477 2.982-16.354 2.961-18.836-0.028zM458.392 735.998c-0.582-0.582-1.061-7.362-1.061-15.064 0-12.984 0.274-14.183 3.774-16.475 2.7-1.77 5.635-2.174 10.331-1.422l6.558 1.050v14.84c0 13.047-0.372 15.041-3.075 16.486-3.421 1.83-14.877 2.238-16.53 0.585zM483.083 735.149c-2.562-2.562-2.562-27.001 0-29.562 2.25-2.25 15.342-2.511 18.721-0.373 1.626 1.029 2.533 5.119 2.946 13.321 0.522 10.374 0.186 12.247-2.746 15.179-3.786 3.786-15.67 4.686-18.92 1.436zM544.223 735.998c-1.326-1.326-1.405-26.393-0.095-29.804 0.694-1.81 3.104-2.514 8.611-2.514 12.613 0 12.677 0.078 12.677 16.009 0 12.294-0.39 14.286-3.075 15.726-3.412 1.826-16.458 2.248-18.118 0.585zM570.047 733.624c-2.522-4.711-1.068-26.603 1.895-28.532 1.218-0.794 5.79-1.256 10.162-1.029l7.948 0.414v14.764c0 16.749-0.649 17.756-11.466 17.797-5.252 0.018-7.097-0.716-8.538-3.411zM594.779 735.138c-0.486-1.268-0.678-8.688-0.423-16.486l0.462-14.178 8.694-0.493c6.833-0.388 9.129 0.102 10.729 2.29 2.334 3.189 2.763 23.995 0.569 27.463-2.071 3.273-18.861 4.45-20.032 1.404zM470.025 804.912c-0.022-49.182-1.47-66.917-3.713-45.475-1.294 12.387-1.325 90.018-0.036 94.826 2.753 10.266 3.769-3.13 3.748-49.35zM581.311 804.608c0-34.438-0.561-53.248-1.59-53.248s-1.59 18.81-1.59 53.248c0 34.438 0.561 53.248 1.59 53.248s1.59-18.81 1.59-53.248zM825.905 855.689c1.302-1.566 1.685-26.714 1.386-90.996l-0.412-88.83-3.576-0.509c-1.967-0.28-3.576-1.53-3.576-2.781 0-1.938-10.268-2.267-69.538-2.23l-69.538 0.042-11.107 9.21-0.474 85.554c-0.26 47.056-0.073 87.162 0.418 89.13l0.894 3.576h76.865c62.941 0 77.19-0.391 78.661-2.166zM704.759 826.596c-2.021-2.021-1.218-74.442 0.846-76.506 1.266-1.266 8.124-1.907 20.346-1.907s19.081 0.642 20.346 1.907c1.374 1.374 1.907 12.22 1.907 38.771 0 32.149-0.321 36.989-2.514 37.83-3.424 1.314-39.606 1.23-40.931-0.095zM754.032 826.596c-0.582-0.582-1.061-18.030-1.061-38.771 0-32.922 0.318-37.834 2.514-38.677 3.562-1.367 34.472-1.156 36.623 0.251 2.61 1.708 4.71 70.362 2.293 74.883-1.685 3.147-3.071 3.374-20.559 3.374-10.314 0-19.23-0.476-19.812-1.061zM703.911 738.109c-1.919-2.312-1.506-45.359 0.467-48.55 0.646-1.047 5.903-1.773 12.81-1.773 16.858 0 17.038 0.282 16.536 26.058-0.222 11.455-0.716 22.082-1.098 23.61-0.588 2.37-2.637 2.781-13.819 2.781-9.029 0-13.683-0.666-14.897-2.128zM737.986 737.739c-2.032-2.032-2.498-6.625-2.498-24.582 0-25.571 0.459-26.346 14.802-24.966 11.539 1.11 12.217 2.641 12.217 27.655 0 19.231-0.27 21.245-3.075 22.744-4.821 2.581-18.561 2.034-21.45-0.852zM770.808 737.761c-3.352-2.346-3.534-3.567-3.534-23.753s0.181-21.403 3.534-23.753c4.746-3.324 19.248-3.308 22.578 0.022 2 2 2.498 6.402 2.498 22.148 0 10.807-0.698 21.486-1.551 23.73-1.419 3.729-2.334 4.076-10.771 4.076-5.775 0-10.542-0.925-12.755-2.475zM342.249 639.936c2.81-3.102 3.064-6.741 3.51-50.466 0.266-25.916 0.058-49.422-0.461-52.237-1.941-10.535 3.23-9.986-93.915-9.986-85.983 0-88.178 0.078-91.279 3.179-3.049 3.049-3.179 5.298-3.179 54.835s0.13 51.786 3.179 54.835c3.102 3.102 5.298 3.179 91.146 3.179 87.39 0 87.99-0.022 90.996-3.342zM174.555 631.121c-3.474-2.431-3.671-3.358-2.778-12.942 0.531-5.677 1.362-10.722 1.853-11.211 1.47-1.47 18.371-3.055 29.206-2.742 13.286 0.384 16.134 3.412 15.389 16.351-0.707 12.258-2.298 13.162-23.103 13.162-13.058 0-17.665-0.587-20.567-2.621zM229.936 630.797c-3.443-2.79-3.558-3.518-2.164-13.806 1.386-10.23 1.75-10.938 6.241-12.183 2.622-0.726 12.030-0.858 20.901-0.294 18.997 1.208 20.607 2.602 19.254 16.672-1.111 11.574-2.952 12.555-23.596 12.555-14.183 0-17.608-0.487-20.639-2.945zM286.714 630.833c-3.386-3.74-3.642-19.697-0.37-22.968 1.518-1.518 7.65-2.562 18.677-3.186 21.966-1.239 23.569-0.256 23.569 14.474 0 6.258-0.798 11.572-1.907 12.678-1.254 1.254-7.962 1.907-19.622 1.907-15.143 0-18.096-0.423-20.346-2.908zM175.318 597.866c-3.736-3.736-3.516-22.345 0.282-24.125 1.53-0.715 11.214-0.919 21.521-0.452 21.402 0.969 21.73 1.179 21.768 13.849 0.037 12.365-1.465 13.227-23.022 13.227-14.291 0-18.571-0.522-20.55-2.498zM232.076 598.742c-4.511-1.816-5.734-6.834-4.077-16.732l1.317-7.874 41.708-0.884 1.759 5.050c2.471 7.087 2.19 14.382-0.714 18.527-2.303 3.288-3.651 3.525-19.47 3.432-9.348-0.054-18.583-0.738-20.526-1.519zM286.581 597.866c-1.706-1.706-2.498-5.467-2.498-11.864 0-11.969 1.235-12.657 22.638-12.657 21.022 0 22.744 1.049 22.446 13.674-0.294 12.499-1.758 13.349-23.022 13.349-13.397 0-17.604-0.536-19.566-2.498zM290.12 568.505c-5.454-1.288-8.010-7.842-6.197-15.906 0.822-3.665 2.302-7.47 3.288-8.455 2.478-2.483 33.76-3.376 38.039-1.086 2.858 1.53 3.336 3.251 3.336 12.006 0 8.109-0.574 10.525-2.781 11.699-3.208 1.706-30.247 3.028-35.686 1.745zM175.246 566.002c-1.894-1.894-2.447-4.917-2.1-11.484 0.617-11.651 3.010-12.91 24.619-12.942 14.955-0.022 16.392 0.248 18.677 3.51 2.814 4.014 3.292 15.812 0.829 20.414-1.484 2.776-3.486 3.075-20.55 3.075-15.295 0-19.396-0.49-21.474-2.573zM230.157 566.329c-1.119-1.348-1.674-6.236-1.386-12.222 0.474-9.935 0.499-9.984 6.041-11.426 7.859-2.046 34.038-0.697 37.188 1.915 2.948 2.447 3.534 15.989 0.904 20.904-1.491 2.785-3.495 3.075-21.263 3.075-14.959 0-20.059-0.534-21.482-2.246zM428.723 552.771v-90.509l-32.982-0.487c-18.138-0.27-34.194-0.235-35.673 0.071s-2.91 2.005-3.179 3.774c-0.399 2.629-6.413 5.36-33.070 15.030-17.922 6.498-36.161 13.146-40.53 14.773s-11.331 4.182-15.464 5.676c-4.134 1.494-7.134 3.342-6.662 4.105 1.544 2.501 8.58 1.46 22.922-3.382 7.765-2.622 15.531-4.77 17.258-4.77 3.332 0 46.23 17.742 52.28 21.62l3.576 2.294v58.084c0 36.999 0.596 59.2 1.646 61.158 1.548 2.893 3.658 3.075 35.764 3.075h34.118zM364.521 539.039c-1.745-4.542-1.014-22.245 1.023-24.827 2.326-2.947 17.663-4.746 23.046-2.706 3.288 1.248 3.576 2.358 3.576 13.794 0 7.554-0.75 13.185-1.907 14.346-1.131 1.131-6.568 1.907-13.339 1.907-8.958 0-11.642-0.545-12.398-2.514zM395.999 539.737c-1.722-2.787-0.693-24.035 1.278-26.411 1.218-1.47 5.135-1.962 13.019-1.638l11.274 0.462v13.172c0 9.98-0.578 13.538-2.383 14.679-3.402 2.147-21.827 1.938-23.189-0.263zM353.223 508.156c-1.747-0.653-11.3-4.594-21.228-8.763l-18.050-7.578 5.334-2.286c11.022-4.722 36.569-13.434 37.287-12.716 0.412 0.412 0.543 7.898 0.293 16.638-0.434 15.138-0.606 15.834-3.634 14.706zM365.542 503.222c-1.194-1.228-1.986-6.35-1.986-12.848 0-14.97 2.562-17.48 17.157-16.841l10.658 0.468 0.458 12.87c0.369 10.382-0.046 13.288-2.154 15.035-3.6 2.988-21.552 3.966-24.134 1.315zM400.114 503.836c-3.994-1.52-4.72-3.942-4.745-15.871-0.022-9.726 0.442-11.718 3.051-13.112 4.222-2.261 19.7-2.076 22.038 0.262 2.958 2.958 2.501 24.294-0.591 27.384-2.478 2.478-14.605 3.299-19.756 1.338zM516.143 552.678v-90.598h-73.115v181.197h73.115zM452.035 540.494c-1.902-1.902-1.143-23.65 0.928-26.479 2.238-3.057 15.973-5.274 22.518-3.63 4.002 1.003 4.107 1.364 4.107 14.192 0 8.118-0.731 13.892-1.907 15.069-2.010 2.011-23.76 2.73-25.643 0.846zM483.825 540.494c-1.905-1.905-1.144-23.651 0.928-26.447 2.943-3.974 20.406-5.559 23.267-2.112 2.973 3.582 1.818 26.021-1.446 28.085-2.682 1.696-21.141 2.082-22.746 0.474zM490.712 503.832c-6.761-1.242-7.948-3.369-7.948-14.237 0-15.17 1.067-16.39 14.332-16.39 10.482 0 11.092 0.204 12.047 4.014 1.71 6.816-0.066 24.654-2.62 26.27-2.362 1.494-8.785 1.634-15.811 0.342zM452.094 502.406c-0.616-0.616-1.12-6.313-1.12-12.662 0-15.384 1.458-16.818 16.47-16.206l11.345 0.462v28.611l-12.788 0.457c-7.035 0.251-13.291-0.046-13.908-0.663zM601.973 552.799v-90.477l-13.112-0.519c-7.212-0.284-23.306-0.271-35.764 0.028l-22.65 0.546v180.9h71.526v-90.477zM538.792 543.678c-2.394-0.966-2.75-23.894-0.426-27.558 1.906-3.006 22.206-2.666 24.155 0.405 2.391 3.763 1.496 23.016-1.194 25.707-2.426 2.426-17.682 3.402-22.536 1.446zM567.192 541.904c-0.858-1.602-1.054-7.966-0.452-14.703l1.061-11.874h27.020v13.172c0 15.695-0.455 16.172-15.44 16.206-8.62 0.018-10.963-0.521-12.186-2.802zM569.786 507.044c-2.369-0.59-2.781-2.638-2.781-13.77 0-8.051 0.733-13.808 1.907-14.982 1.134-1.134 6.598-1.907 13.481-1.907 11.063 0 11.618 0.177 12.583 4.031 1.343 5.354 0.030 22.675-1.849 24.398-1.723 1.578-19.237 3.252-23.342 2.229zM536.807 494.174c0-16.825 1.086-18.078 15.138-17.471l11.089 0.478 0.466 11.5c0.677 16.662-0.354 17.907-14.826 17.907h-11.864zM687.804 583.181c0-45.666 0.476-60.702 1.986-62.626 2.278-2.902 50.347-23.507 54.842-23.507 1.637 0 9.322 2.145 17.082 4.77 14.616 4.939 23.767 6.138 22.711 2.97-0.33-0.99-5.574-3.57-11.657-5.73s-17.493-6.288-25.362-9.168c-7.866-2.88-23.603-8.61-34.968-12.73-14.036-5.092-21.596-8.709-23.576-11.286-2.913-3.79-2.914-3.79-37.749-3.79h-34.835v181.197h71.526zM622.955 541.949c-0.762-1.53-1.063-8.332-0.678-15.114 0.659-11.514 0.966-12.397 4.617-13.314 3.986-1.002 17.070 0.251 19.712 1.885 0.801 0.497 1.458 6.557 1.458 13.468 0 14.765-1.029 15.858-14.939 15.858-6.786 0-9.105-0.634-10.171-2.781zM653.232 543.678c-2.31-0.93-2.79-23.83-0.573-27.328 1.915-3.024 21.601-4.485 24.786-1.842 1.751 1.454 2.409 5.178 2.409 13.637 0 10.222-0.428 11.936-3.534 14.11-3.39 2.373-18.436 3.3-23.092 1.422zM688.74 508.582c-0.516-0.516-0.938-8.055-0.938-16.753 0-18.51-2.454-17.66 23.841-8.26 19.254 6.883 21.029 8.022 15.756 10.11-2.108 0.834-11.46 4.741-20.778 8.68s-17.366 6.738-17.882 6.222zM621.864 505.036c-1.528-2.47 1.053-26.142 2.991-27.433 3.030-2.019 21.323-1.398 22.664 0.771 1.637 2.642 0.72 21.74-1.217 25.359-1.242 2.322-3.57 2.854-12.504 2.854-6.037 0-11.406-0.698-11.934-1.552zM652.307 505.526c-2.154-2.154-1.151-25.494 1.178-27.427 1.386-1.151 6.672-1.677 13.908-1.386l11.67 0.471 0.467 12.469c0.294 7.825-0.222 13.302-1.386 14.703-1.926 2.322-23.7 3.31-25.836 1.173zM885.168 640.648c2.706-2.448 2.908-6.301 2.908-55.542 0-52.875-0.004-52.913-3.534-55.386-3.092-2.166-14.37-2.475-90.598-2.475-84.947 0-87.144 0.078-90.246 3.179-3.049 3.049-3.179 5.298-3.179 54.835s0.13 51.786 3.179 54.835c3.102 3.102 5.298 3.179 90.87 3.179 79.368 0 87.967-0.249 90.599-2.631zM719.644 631.42c-2.434-2.934-3.934-13.731-2.631-18.93 2.053-8.178 4.419-8.995 22.938-7.923 20.753 1.205 22.556 2.349 22.556 14.32 0 13.355-2.384 14.853-23.646 14.853-13.223 0-17.742-0.546-19.218-2.322zM775.577 631.266c-3.018-2.114-3.534-3.942-3.534-12.522 0-13.806 0.966-14.409 23.048-14.409 22.328 0 23.046 0.476 23.046 15.333 0 10.314-0.246 11.064-4.076 12.522-6.858 2.609-34.386 1.947-38.485-0.924zM831.208 631.266c-2.955-2.070-3.534-3.971-3.534-11.618 0-14.618 1.111-15.352 22.92-15.113 12.078 0.133 19.223 0.882 20.79 2.181 1.698 1.41 2.385 5.135 2.385 12.952 0 10.314-0.246 11.064-4.076 12.522-6.858 2.609-34.386 1.947-38.485-0.924zM719.592 597.184c-2.322-2.322-3.179-5.298-3.179-11.035 0-11.383 2.672-12.806 24.081-12.806 20.449 0 22.014 0.951 22.014 13.377 0 12.462-1.974 13.643-22.774 13.643-14.842 0-17.358-0.398-20.142-3.179zM773.689 597.29c-2.076-3.88-2.128-14.526-0.095-19.868 1.548-4.073 1.575-4.076 21.138-4.076 13.117 0 20.22 0.63 21.498 1.907 1.082 1.082 1.907 6.259 1.907 11.959 0 9.33-0.294 10.165-4.076 11.603-2.242 0.853-11.874 1.551-21.402 1.551-15.501 0-17.498-0.323-18.969-3.075zM830.508 598.376c-1.41-1.1-3.021-5.65-3.614-10.2-0.918-7.051-0.601-8.682 2.241-11.525 2.915-2.915 5.348-3.331 20.395-3.498 20.053-0.222 21.484-0.078 23.022 2.334 2.142 3.354 1.298 17.694-1.257 21.342-2.309 3.294-3.678 3.534-20.358 3.534-11.89 0-18.738-0.666-20.43-1.986zM735.958 568.65c-8.046-0.479-15.397-1.64-16.335-2.583s-2.13-5.322-2.655-9.737c-0.809-6.822-0.443-8.532 2.427-11.402 2.994-2.994 5.184-3.378 19.344-3.378 14.834 0 16.242 0.277 19.867 3.902 3.086 3.086 3.902 5.538 3.902 11.727 0 11.69-2.767 12.884-26.55 11.468zM773.675 566.236c-1.066-1.286-2.047-5.909-2.181-10.271-0.366-12.058 1.882-13.518 21.666-14.066 21.279-0.587 24.015 0.739 24.666 11.962 0.826 14.262 0.137 14.711-22.591 14.711-15.323 0-20.043-0.51-21.558-2.336zM829.584 566.668c-1.050-1.050-1.907-6.006-1.907-11.011 0-13.695 1.325-14.478 23.422-13.833 20.995 0.61 22.673 1.651 22.673 14.095 0 11.489-2.224 12.658-24.046 12.658-12.063 0-18.879-0.645-20.142-1.907zM665.552 435.1c0-0.852-2.398-6.038-5.331-11.525-4.851-9.078-25.362-49.403-107.598-211.555-15.438-30.442-28.651-55.36-29.361-55.37-1.373-0.022-9.017 14.655-62.639 120.258-18.643 36.715-44.584 87.678-57.642 113.25l-23.743 46.493h143.158c91.925 0 143.158-0.555 143.158-1.55zM476.009 362.35c-8.525-0.285-15.498-0.818-15.498-1.182s4.552-9.458 10.112-20.208c5.562-10.75 18.851-36.954 29.53-58.23s19.679-38.42 19.998-38.101c0.319 0.319 0.714 26.251 0.878 57.627 0.277 53.549 0.117 57.174-2.601 59.162-2.897 2.118-5.43 2.174-42.423 0.932zM529.249 361.347c-1.528-0.834-3.302-2.289-3.942-3.239s-1.157-27.116-1.142-58.151c0.022-46.849 0.378-55.962 2.106-53.684 2.928 3.856 58.642 114.198 57.972 114.813-1.47 1.35-52.554 1.59-54.994 0.26z"></path>
    </svg>