<svg xmlns="http://www.w3.org/2000/svg" viewBox="60.025 -48.001 527.852 1120.003">
    <path fill="#000000" d="M169.993 990.804c-0.433-2.887-1.071-26.012-1.337-48.499-0.307-25.896-0.377-27-2.398-37.69-0.5-2.642-1.565-7.464-2.367-10.716-2.046-8.292-10.693-38.287-11.222-38.923-0.24-0.29-2.148-2.016-4.238-3.836s-4.033-3.758-4.316-4.305c-0.89-1.719-1.193-9.611-2.26-58.781-0.311-14.317-0.703-26.206-0.872-26.421-0.34-0.433-0.958-48.153-0.846-65.24 0.039-5.995 0.226-45.404 0.415-87.575s0.45-78.128 0.581-79.906c0.218-2.959 0.334-3.327 1.366-4.359 1.529-1.529 5.106-3.923 7.495-5.018 1.081-0.495 2.125-1.103 2.321-1.352s0.458-1.533 0.581-2.854c0.445-4.735 1.631-7.053 4.313-8.424 1.425-0.728 2.131-0.836 4.986-0.756 3.321 0.093 4.331-0.158 5.803-1.441 0.577-0.503 0.63-1.953 0.623-17.043-0.004-9.071 0.251-25.639 0.566-36.817s0.575-29.801 0.578-41.386c0.006-24.067 0.577-47.391 1.178-48.115 0.658-0.793 3.408-0.595 4.22 0.303 0.685 0.758 0.7 1.901 0.562 43.468l-0.143 42.689 1.187-0.698c2.325-1.366 3.428-2.621 7.589-8.642 16.089-23.277 25.599-45.008 29.356-67.075 0.899-5.279 2.356-19.409 3.144-30.476 2.036-28.613 2.526-70.574 1.322-113.257-0.201-7.113-0.533-20.547-0.741-29.853-0.424-19.12-0.608-17.615 2.582-21.138l1.81-1.999 0.199 1.553c1.29 10.075 2.303 34.256 2.658 63.401 0.255 20.996 0.265 21.212 1.054 22.129 0.784 0.911 0.817 0.916 2.1 0.307 0.717-0.34 2.119-1.568 3.114-2.729s5.808-6.6 10.693-12.087c20.048-22.519 26.499-30.658 37.337-47.113 11.268-17.108 17.708-29.348 25.509-48.47 10.013-24.546 15.323-44.666 16.797-63.651 0.452-5.82 0.321-30.090-0.263-48.527l-0.237-7.483h7.607l-0.244 3.233c-0.507 6.722-0.976 51.95-0.614 59.211 0.732 14.689 2.713 24.713 6.826 34.527 1.957 4.67 2.398 5.487 10.298 19.056 15.551 26.712 49.074 81.586 58.015 94.965 2.189 3.276 7.722 8.888 16.141 16.373l6.097 5.421 0.214-43.507c0.117-23.929 0.347-43.807 0.509-44.172 0.228-0.515 0.638-0.64 1.806-0.554 1.367 0.1 1.617 0.284 2.633 1.931l1.122 1.82-0.185 53.608c-0.278 80.876-0.215 104.065 0.306 111.437 1.823 25.789 6.042 44 14.096 60.831 3.457 7.223 5.71 10.963 13.667 22.68 3.795 5.589 8.454 12.456 10.353 15.261 2.462 3.636 3.548 4.961 3.783 4.619 0.192-0.279 0.225-17.392 0.079-41.017l-0.251-40.538 0.77-1.478c0.424-0.813 1.268-2.164 1.875-3.002l1.104-1.524 2.625 5.213v62.584c0 34.421 0.111 64.638 0.246 67.149l0.246 4.565 1.548 1.498c2.25 2.177 5.828 4.16 9.416 5.218 1.728 0.51 3.373 1.053 3.657 1.207 0.39 0.211 0.498 1.055 0.44 3.456-0.116 4.848 0.815 6.629 4.402 8.416 1.118 0.557 2.9 1.451 3.96 1.987 1.118 0.564 2.15 1.403 2.456 1.996 0.291 0.563 0.878 1.339 1.305 1.725l0.777 0.703v316.604l-1.228 1.608c-0.675 0.884-3.173 3.411-5.549 5.613-4.968 4.604-5.245 5.119-6.747 12.503-1.253 6.164-2.261 9.289-6.425 19.928-5.384 13.758-6.246 16.946-7.001 25.893-0.964 11.42-1.206 19.554-1.493 50.254-0.168 17.885-0.322 32.558-0.342 32.61s-69.535 0.092-154.478 0.092h-154.441zM346.399 970.456l4.619-2.285-0.068-23.094c-0.079-26.952-0.594-44.867-1.363-47.313-0.285-0.907-1.38-3.452-2.434-5.658l-1.915-4.010-2.439 4.379c-1.342 2.408-2.738 5.334-3.104 6.503-0.992 3.168-1.515 19.936-1.335 42.773l0.15 19.030 1.358 5.844c0.747 3.215 1.358 5.917 1.358 6.005 0 0.334 0.685 0.046 5.173-2.174zM226.883 970.671c0.628-0.959 0.639-1.869 0.218-18.014-0.458-17.533-0.88-26.048-2.462-49.506-0.506-7.511-0.921-14.121-0.921-14.688 0-1.021-0.024-1.031-2.349-1.031h-2.349l-1.403 2.273c-1.268 2.053-1.432 2.618-1.699 5.82-0.624 7.507-2.048 43.644-2.406 61.086l-0.256 12.458 1.073 0.421c1.514 0.593 8.935 2.108 10.546 2.153 1.078 0.030 1.474-0.162 2.005-0.972zM308.762 969.184c2.828-4.457 2.58-1.649 2.799-31.638l0.197-27.019-1.733-7.76c-2.66-11.909-2.858-12.43-5.416-14.252-1.086-0.773-1.131-0.776-1.871-0.106-2.132 1.927-2.121 1.869-2.887 14.423-1.043 17.102-1.785 31.45-2.21 42.799-0.205 5.487-0.461 12.113-0.568 14.722l-0.194 4.745 1.060 0.991c0.875 0.818 8.672 5.19 9.293 5.212 0.101 0.004 0.79-0.949 1.531-2.115zM434.882 969.34c0.781-1.332 0.939-2.072 0.939-4.378 0-4.392-3.324-64.335-3.858-69.544-0.171-1.668-2.629-7.637-3.129-7.598-0.27 0.021-3.48 4.305-4.047 5.403-0.453 0.875-1.446 12.548-2.636 30.978-0.42 6.503-0.924 14.069-1.12 16.813-0.507 7.103-0.476 8.498 0.189 8.498 0.473 0 0.517 0.86 0.32 6.189-0.397 10.718 0.17 11.77 7.631 14.166 4.366 1.402 4.595 1.38 5.712-0.526zM266.234 969.16c0.904-0.574 2.207-1.688 2.895-2.473l1.253-1.43-0.214-8.15c-0.117-4.482-1.222-21.918-2.453-38.746s-2.24-30.837-2.24-31.132c0-0.419-0.591-0.535-2.718-0.535h-2.718l-1.377 3.972c-2.639 7.613-2.814 8.445-3.174 15.058-0.538 9.879-1.094 34.268-1.096 48.065 0 14.37-0.277 13.193 3.509 15.049 2.573 1.262 2.725 1.304 4.823 1.337 1.448 0.023 2.237-0.205 3.51-1.014zM388.682 968.013c3.856-3.197 4.172-3.834 4.871-9.834 1.118-9.583 0.484-23.363-2.453-53.379-1.437-14.687-1.277-13.851-3.025-15.747l-1.475-1.599-1.255 1.503c-0.691 0.827-1.255 1.551-1.255 1.61s-0.413 3.161-0.919 6.893c-1.568 11.593-4.625 35.536-4.625 36.236 0 0.41 0.272 0.666 0.709 0.666 0.684 0 0.713 0.491 0.832 14.318 0.121 14.11 0.135 14.339 0.96 15.737 1.019 1.724 4.587 5.829 4.952 5.698 0.144-0.053 1.352-0.998 2.682-2.101zM395.729 830.318c13.751-0.316 33.957-0.519 45.45-0.458l20.693 0.112 1.848-0.923c2.352-1.177 3.14-2.643 3.141-5.851 0-1.287-0.36-3.698-0.802-5.358-0.987-3.713-0.983-6.263 0.056-40.154 1.716-55.948 1.843-81.080 0.585-115.289-0.901-24.5-1.075-41.413-0.59-57.090 0.246-7.927 0.505-21.728 0.578-30.669 0.075-9.323 0.319-17.835 0.57-19.954 0.529-4.451 0.14-6.372-1.655-8.167-1.595-1.595-3.706-2.129-8.351-2.115-2.134 0.007-63.908 0.135-137.274 0.285l-133.395 0.273-1.375 0.888c-0.757 0.488-1.671 1.429-2.033 2.091-0.625 1.145-0.663 7.629-0.776 135.706-0.066 73.977-0.149 136.166-0.185 138.199-0.074 4.187 0.459 5.61 2.657 7.090 2.447 1.649 3.413 1.683 35.646 1.254 40.746-0.541 106.991-0.468 121.264 0.134 15.453 0.652 25.458 0.651 53.949-0.004zM195.275 819.18c-1.731-0.893-2.865-2.7-3.153-5.023-0.13-1.057-0.058-29.398 0.16-62.981 0.482-73.835 0.493-156.881 0.023-166.746-0.188-3.963-0.451-10.531-0.582-14.596-0.226-7.002-0.197-7.501 0.562-9.493 0.481-1.262 1.308-2.548 2.071-3.218 2.49-2.186 2.551-2.19 26.962-1.862 12.194 0.164 30.778 0.493 41.297 0.731 19.74 0.447 24.957 0.35 50.343-0.94 13.527-0.687 30.482-0.687 51.732 0 21.518 0.698 28.157 0.693 60.528-0.044 19.645-0.447 27.143-0.503 27.791-0.207 0.488 0.223 1.353 1.106 1.92 1.963l1.031 1.558v126.955c0 121.61-0.030 127.007-0.668 128.179-0.934 1.715-3.038 3.967-4.632 4.958l-1.35 0.839-122.309 0.080c-67.27 0.044-124.138 0.176-126.374 0.293-3.464 0.182-4.254 0.116-5.35-0.449zM334.020 804.645c29.030-2.47 55.14-13.897 74.204-32.475 19.237-18.746 30.312-42.474 33.731-72.267 0.773-6.739 0.892-22.906 0.207-28.453-2.788-22.616-11.004-42.25-24.955-59.633-19.604-24.428-48.666-39.587-81.525-42.524-6.232-0.557-18.435-0.466-24.676 0.185-49.773 5.185-89.516 39.633-101.303 87.803-3.389 13.852-4.538 31.41-2.967 45.394 0.979 8.721 3.721 19.584 7.186 28.473 14.577 37.39 46.146 64.353 84.069 71.804 2.541 0.499 6.199 1.088 8.129 1.309s4.010 0.459 4.619 0.531c2.609 0.304 19.216 0.201 23.279-0.145zM322.266 795.774l-1.282-1.497-0.251-8.573c-0.138-4.715-0.198-11.812-0.133-15.771l0.118-7.199 3-1.654 1.317 1.763c2.862 3.834 2.704 2.798 2.704 17.69v13.379l-1.647 1.678c-0.906 0.923-1.85 1.678-2.096 1.678s-1.025-0.674-1.73-1.497zM269.262 782.575c-1.474-0.745-2.679-1.477-2.679-1.624s0.416-0.735 0.925-1.305c0.509-0.57 3.939-6.302 7.623-12.738 4.587-8.016 7.261-12.293 8.489-13.58 0.985-1.033 1.937-1.879 2.115-1.879s0.888 0.386 1.579 0.858c1.138 0.778 1.246 1.006 1.152 2.44-0.057 0.87-0.354 2.188-0.661 2.93-1.236 2.987-13.008 23.159-14.386 24.652l-1.478 1.6zM375.664 782.563c-0.615-0.615-7.583-13.184-12.991-23.432-2.133-4.042-2.252-4.396-1.796-5.325 0.641-1.308 2.1-2.359 3.413-2.459 0.93-0.071 1.229 0.203 2.535 2.321 3.725 6.040 15.849 26.663 15.733 26.758-0.072 0.059-1.043 0.713-2.158 1.455-2.233 1.485-3.719 1.699-4.736 0.682zM231.111 742.605c-3.795-1.009-7.020-2.038-7.016-2.24 0.004-0.189 18.201-10.292 27.62-15.334 5.756-3.082 5.915-3.105 8.059-1.223 1.338 1.175 1.571 2.186 0.864 3.738-0.566 1.243-20.611 13.010-25.831 15.164-1.15 0.474-1.56 0.463-3.696-0.105zM411.248 741.068c-1.829-1.019-7.69-4.367-13.026-7.441l-9.699-5.588v-4.239l2.762-0.259c1.519-0.143 3.14-0.161 3.603-0.042 2.248 0.578 23.307 13.196 24.14 14.465 0.267 0.407 0.592 1.173 0.722 1.703 0.207 0.845 0.021 1.107-1.517 2.124-0.964 0.638-2.182 1.154-2.706 1.146s-2.45-0.849-4.279-1.868zM316.653 718.316c-0.407-0.114-0.862-0.396-1.011-0.626s-0.274-2.706-0.278-5.5l-0.006-5.081h18.362l0.23 4.533c0.262 5.17 0.132 6.015-0.982 6.367-1.004 0.318-15.32 0.588-16.317 0.308zM298.821 709.062c-1.115-1.597-6.002-9.345-6.002-9.515 0-0.323 9.639-6.9 9.945-6.786 0.496 0.186 4.696 5.975 5.554 7.656 0.418 0.819 0.759 2.069 0.759 2.779 0 1.561-0.787 2.218-5.97 4.988l-3.568 1.907zM317.391 696.504c-3.252-4.998-5.961-9.282-6.019-9.522-0.133-0.54 10.598-7.761 14.231-9.578 1.468-0.734 2.988-1.334 3.376-1.334 0.908 0 4.896 4.256 6.331 6.758 2.267 3.953 1.503 5.722-7.685 17.798-2.094 2.753-3.923 4.996-4.065 4.985s-2.918-4.109-6.169-9.107zM216.884 689.774c-3.111-1.453-3.119-1.484-1.15-4.043 0.959-1.247 2.085-2.45 2.501-2.672 0.847-0.453 6.18-0.293 21.189 0.634 9.083 0.562 9.255 0.587 10.254 1.531 1.193 1.129 1.274 2.058 0.314 3.632-0.462 0.758-1.103 1.228-1.893 1.386-0.656 0.131-7.615 0.235-15.465 0.231-13.155-0.007-14.388-0.062-15.751-0.698zM399.517 689.66c-0.762-0.442-1.386-0.983-1.386-1.201s0.612-1.433 1.361-2.699l1.361-2.301h7.487c8.678 0 22.199 0.654 23.063 1.117 0.326 0.174 1.074 1.012 1.662 1.861l1.071 1.544-1.097 0.904c-0.604 0.497-1.482 1.059-1.953 1.249-0.482 0.195-7.258 0.342-15.519 0.337-14.376-0.008-14.692-0.024-16.050-0.812zM346.164 682.273c-3.704-3.921-4.88-7.271-3.668-10.448 1.037-2.716 4.058-5.093 11.352-8.935 23.958-12.618 60.968-31.163 62.193-31.163 0.734 0 3.666 0.922 4.193 1.317 0.259 0.195-1.393 2.98-2.207 3.721-1.26 1.147-68.521 46.886-69.499 47.261-0.311 0.119-1.259-0.584-2.365-1.755zM314.86 665.262c-0.128-1.067-0.234-3.253-0.236-4.858 0-1.605-0.271-7.342-0.597-12.748-0.707-11.693-0.534-25.278 0.389-30.708 0.328-1.93 1.163-5.672 1.853-8.314 1.408-5.387 1.839-8.113 2.426-15.335 0.733-9.023 1.926-14.408 3.522-15.908 0.827-0.776 0.895-0.782 2.668-0.192 3.186 1.058 2.939 0.427 4.923 12.591 4.819 29.546 5.194 33.273 5.407 53.754 0.096 9.242 0.059 18.346-0.083 20.231l-0.257 3.428h-19.782zM254.248 650.79c-7.619-3.985-23.039-12.95-23.969-13.934-0.559-0.592-1.016-1.363-1.016-1.715 0-0.63 2.941-5.262 3.341-5.262 0.27 0 16.207 9.011 23.273 13.16 3.388 1.988 5.53 3.471 5.525 3.82-0.004 0.314-0.546 1.653-1.201 2.974-0.836 1.686-1.426 2.436-1.977 2.513-0.431 0.062-2.221-0.639-3.976-1.557zM362.833 622.713c-1.096-0.477-2.023-1.887-2.023-3.074 0-0.928 13.507-26.993 14.567-28.109 0.938-0.987 3.031-0.971 4.752 0.038 0.89 0.521 1.804 1.173 2.033 1.448 0.323 0.389-1.197 3.233-6.878 12.862-4.012 6.8-7.953 13.481-8.758 14.849-1.533 2.603-1.865 2.782-3.691 1.986zM282.559 622.397c-0.503-0.62-6.368-11.169-11.724-21.084-3.034-5.616-4.237-8.177-3.967-8.446 0.481-0.481 4.855-0.858 6.16-0.531 0.531 0.133 1.602 0.818 2.381 1.522 1.414 1.278 2.381 3.133 4.275 8.203 0.548 1.465 1.831 3.794 2.853 5.173 4.304 5.813 7.053 13.535 5.406 15.183-0.597 0.597-4.897 0.582-5.383-0.019zM390.44 499.069c5.837-0.882 8.89-1.618 10.461-2.521 2.549-1.465 3.701-6.41 3.674-15.768-0.023-7.784-0.781-13.143-2.203-15.569-0.498-0.849-2.843-3.376-5.213-5.615l-4.308-4.072-1.886 2.060c-6.506 7.103-7.5 9.52-8.849 21.533-0.617 5.491-0.651 6.206-0.336 7.021 0.118 0.305 0.237 2.301 0.265 4.434 0.068 5.251 1.391 9.857 2.715 9.452 0.343-0.105 2.9-0.535 5.681-0.955zM302.057 497.948c5.434-0.489 8.172-0.978 8.757-1.563 0.316-0.316 0.541-2.475 0.703-6.742 0.368-9.673-0.879-23.048-2.419-25.947-0.407-0.766-2.21-2.918-4.007-4.783l-3.268-3.391-3.042 2.716c-4.132 3.689-5.068 4.969-6.158 8.417-1.161 3.674-3.077 16.84-2.503 17.202 0.234 0.148 0.458 2.273 0.55 5.237 0.162 5.214 0.505 6.492 2.256 8.407 0.893 0.977 2.412 1.051 9.13 0.446zM352.312 497.586c1.524-0.195 3.252-0.458 3.841-0.584l1.070-0.23-0.225-12.246c-0.264-14.341-0.842-20.167-2.239-22.549-1.112-1.897-3.343-3.981-5.371-5.016-1.743-0.889-2.661-0.943-4.028-0.236-1.276 0.66-4.597 4.158-5.374 5.66-1.637 3.165-5.625 24.159-5.299 27.893 0.35 4.009 2.611 6.502 6.609 7.289 2.202 0.433 7.692 0.443 11.016 0.017zM439.332 497.265c5.033-0.779 5.836-1.092 7.065-2.756 2.079-2.814 2.76-4.575 3.146-8.13 0.729-6.711-0.623-18.156-2.625-22.226-1.155-2.348-3.94-5.903-5.667-7.232-0.956-0.736-1.165-0.761-2.716-0.327-1.858 0.52-5.308 2.646-5.942 3.66-1.090 1.746-5.283 26.605-5.263 31.207 0.009 2.438 1.093 4.801 2.649 5.78 1.062 0.668 1.61 0.743 4.178 0.569 1.626-0.11 3.953-0.354 5.173-0.543zM217.26 496.7c3.179-0.963 3.162-0.933 4.104-7.276 0.983-6.622 1.114-12.895 0.329-15.846-1.028-3.861-2.221-5.8-9.143-14.857l-2.457-3.215-3.81 3.979c-4.243 4.431-5.405 6.28-6.653 10.591-0.788 2.719-0.852 3.64-0.852 11.998 0 11.53 0.558 13.706 3.88 15.133 1.352 0.58 12.263 0.202 14.603-0.507zM263.421 496.955c0.745-0.224 1.191-0.668 1.415-1.415 0.54-1.794 0.5-21.192-0.056-27.508-0.518-5.887-0.824-6.992-2.318-8.38-1.477-1.373-5.209-3.444-6.203-3.443-1.286 0.004-3.086 1.16-5.238 3.368-4.199 4.312-5.147 7.471-5.859 19.54-0.548 9.262-0.521 11.303 0.181 14.357 1.001 4.353 0.766 4.254 9.558 4.012 4.088-0.113 7.923-0.353 8.521-0.532zM249.594 374.896c2.080-0.214 4.631-0.67 5.67-1.016 1.861-0.62 1.894-0.656 2.344-2.661 1.766-7.864 2.489-21.248 2.206-40.832-0.282-19.484-1.031-25.678-3.633-30.042-1.168-1.958-7.47-10.747-7.703-10.743-0.21 0.004-3.869 4.208-7.308 8.398-1.276 1.554-2.689 3.574-3.141 4.489l-0.821 1.663v33.322c0 33.236 0.004 33.324 0.773 34.365 0.426 0.574 1.478 1.583 2.338 2.244 1.796 1.378 2.858 1.472 9.276 0.813zM299.061 373.631c5.986-1.386 9.531-2.506 10.271-3.247 0.677-0.677 1.367-24.222 1.074-36.67-0.301-12.802-0.884-22.601-1.537-25.83-0.66-3.266-2.085-6.083-6.608-13.057-3.157-4.867-3.711-5.543-4.082-4.988-0.236 0.353-2.032 3.303-3.99 6.554-5.080 8.438-5.296 9.214-5.783 20.827-0.413 9.872-0.443 32.361-0.064 47.903l0.226 9.238 1.478 0.225c2.715 0.413 3.435 0.337 9.013-0.954zM406.952 374.18c0.957-0.175 2.011-0.691 2.587-1.267l0.971-0.971 0.518-22.255c0.374-16.092 0.421-25.288 0.167-33.211l-0.351-10.956-1.355-2.716c-1.221-2.447-8.403-12.576-9.058-12.774-0.418-0.127-6.905 10.117-8.397 13.259-2.536 5.34-2.828 9.968-2.281 36.204 0.268 12.885 0.23 15.154-0.318 18.846-1.789 12.053 2.069 16.991 12.761 16.33 1.728-0.107 3.867-0.327 4.756-0.489zM360.493 373.952c0.914-0.203 0.991-0.384 1.212-2.86 0.24-2.685-0.383-49.204-0.713-53.267-0.099-1.22-0.353-4.516-0.563-7.326-0.428-5.731-0.978-7.585-3.215-10.863-2.055-3.011-7.361-9.777-7.647-9.751-0.503 0.047-7.324 9.573-8.369 11.688-0.605 1.223-1.269 3.136-1.478 4.25-0.432 2.313-1.191 56.108-0.876 62.071 0.269 5.098 0.445 5.893 1.398 6.313 0.828 0.365 18.46 0.143 20.248-0.254z"></path>
    </svg>