<svg xmlns="http://www.w3.org/2000/svg" viewBox="-2.347 -16.019 1028.674 1056.074">
    <path fill="#000000" d="M472.509 959.526c-4.19-0.662-10.617-2.456-14.424-4.025-8.322-3.431-17.224-9.096-31.543-20.074-14.537-11.143-29.33-19.789-41.179-24.061-2.634-0.95-7.977-2.766-11.875-4.037-11.038-3.597-18.437-7.105-26.551-12.584-6.704-4.529-12.522-9.667-17.97-15.874-5.663-6.45-11.532-16.168-15.063-24.935-0.959-2.378-1.893-4.669-2.078-5.090-0.623-1.423-5.276-15.677-6.315-19.344-0.987-3.489-3.941-15.41-11.096-44.818-3.833-15.751-6.151-23.366-7.108-23.366-0.758 0-7.506 2.381-9.135 3.223-0.635 0.329-1.986 1.31-3.003 2.184-5.439 4.668-18.129 17.783-18.129 18.736 0 0.182-0.335 0.566-0.745 0.852-1.832 1.282-8.499 10.089-14.007 18.503-5.624 8.59-6.729 10.394-9.737 15.876-1.098 2.001-2.15 3.898-2.34 4.214s-1.661 3.16-3.271 6.321c-1.61 3.16-3.436 6.281-4.057 6.937-1.222 1.288-3.252 2.065-5.396 2.065-1.579 0-10.826-4.445-16.42-7.894-4.307-2.655-12.142-8.209-13.144-9.317-0.395-0.436-0.94-0.792-1.211-0.792s-0.719-0.319-0.994-0.709c-0.275-0.39-2.224-2.324-4.332-4.297s-3.894-3.765-3.971-3.983c-0.077-0.217-0.868-1.171-1.756-2.12-1.955-2.088-7.271-9.414-8.752-12.062-7.479-13.374-11.561-26.022-13.54-41.948-0.878-7.074-0.881-23.987-0.005-32.177l0.636-5.938 1.556-1.414c0.856-0.777 2.293-1.696 3.196-2.039 1.587-0.606 1.909-0.581 10.031 0.777 4.615 0.772 10.146 1.498 12.291 1.615 4.358 0.236 4.358 0.236 8.651-3.56l1.76-1.557-1.905-2.737c-1.047-1.505-2.35-3.088-2.895-3.518-1.088-0.856-14.7-5.352-29.045-9.593-10.938-3.233-26.306-8.191-32.177-10.379-12.777-4.762-19.198-7.823-23.653-11.279-1.211-0.94-2.27-1.708-2.351-1.708-0.309 0-5.973-6.028-7.568-8.056-2.136-2.714-2.231-2.867-4.687-7.656-4.682-9.123-6.777-18.504-6.8-30.446-0.015-7.452 0.42-11.233 1.996-17.348 2.408-9.338 5.813-15.858 12.462-23.867 5.858-7.054 15.822-14.836 25.949-20.265 3.522-1.888 3.945-2.022 6.398-2.006 3.817 0.023 6.123 0.927 8.916 3.492 9.759 8.958 17.588 15.024 26.88 20.825 18.026 11.255 38.885 18.517 60.584 21.094 5.329 0.633 6.49 0.374 10.926-2.43l3.299-2.088-3.145-3.117c-1.729-1.715-3.677-3.393-4.327-3.729s-3.482-0.967-6.294-1.403c-15.478-2.396-33.233-8.11-45.767-14.729-8.507-4.492-15.986-9.454-23.076-15.308-5.045-4.165-14.708-13.948-19.64-19.88-3.722-4.477-12.564-16.288-12.931-17.274-0.085-0.228-0.861-1.456-1.724-2.73s-1.757-2.653-1.988-3.064c-4.321-7.721-7.448-13.591-9.106-17.094-2.426-5.126-7.168-16.304-7.933-18.703-0.168-0.526-0.931-2.681-1.695-4.788s-1.536-4.347-1.717-4.979c-0.181-0.632-1.124-3.821-2.093-7.087-4.926-16.575-9.673-39.263-12.26-58.608-2.005-14.984-2.793-23.24-4.038-42.328-0.832-12.744-1.302-19.609-1.966-28.683-0.459-6.281-0.301-17.731 0.416-29.925 0.211-3.581 0.565-9.701 0.786-13.599 0.506-8.883 0.62-9.527 1.767-10.050 1.339-0.61 1.97 0.153 4.579 5.549 7.217 14.928 13.164 26.025 19.515 36.421 2.695 4.41 7.219 11.136 8.853 13.153 0.709 0.878 1.291 1.709 1.291 1.845 0 0.316 8.393 11.267 11.791 15.38 9.53 11.543 23.053 24.885 34.751 34.279 10.603 8.516 20.587 15.388 30.835 21.221 14.241 8.106 20.705 12.52 28.154 19.223 3.768 3.39 9.53 9.262 10.322 10.519 0.222 0.352 1.882 2.593 3.689 4.979 4.823 6.371 7.378 10.57 11.27 18.513 2.476 5.054 6.27 14.273 7.882 19.153 1.364 4.126 1.797 4.681 5.425 6.93l3.346 2.074 0.895-1.437c0.493-0.791 1.014-1.696 1.156-2.011s0.684-1.265 1.2-2.107c1.469-2.4 1.375-3.2-1.43-12.066-2.445-7.734-7.539-19.383-10.634-24.325-0.397-0.632-1.015-1.753-1.378-2.49-0.986-2.009-5.999-9.475-7.976-11.875-0.955-1.158-2.457-3.055-3.339-4.214-3.802-4.998-13.159-13.654-22.477-20.793-3.927-3.010-4.789-4.963-6.769-15.355-2.304-12.1-2.287-28.834 0.046-41.612 5.446-29.843 21.83-56.832 46.543-76.668 7.543-6.055 14.39-10.321 24.162-15.054 10.538-5.104 18.524-7.802 28.847-9.742 10.268-1.93 12.711-2.151 23.557-2.133 8.491 0.015 11.091 0.159 15.897 0.876 10.383 1.553 14.409 2.837 16.807 5.366 1.547 1.63 1.809 5.291 0.636 8.869-0.449 1.369-1.131 4.588-1.515 7.154-0.837 5.593-1.904 7.713-4.609 9.159-1.603 0.857-1.967 0.897-6.128 0.678-7.18-0.378-15.001 1.086-21.571 4.039-6.715 3.018-14.091 8.85-17.978 14.212-0.687 0.947-1.449 1.897-1.69 2.107-0.819 0.711-3.511 5.55-5.092 9.155-2.588 5.902-3.992 13.082-3.818 19.533 0.096 3.568-0.202 4.252-2.508 5.774-1.695 1.118-1.333 1.11-8.267 0.185-10.013-1.337-22.573 1.783-31.885 7.917-3.92 2.583-10.423 9.187-13.101 13.305-5.209 8.009-7.589 16.214-7.572 26.105 0.016 9.59 2.653 18.234 8.061 26.415 1.692 2.56 6.905 8.088 10.338 10.963 4.383 3.67 11.997 7.276 18.491 8.757 4.222 0.963 6.274 1.899 8.547 3.9 1.8 1.585 1.967 1.923 3.494 7.037 1.883 6.307 4.171 11.475 8.396 18.962 2.043 3.62 5.913 9.193 6.383 9.193 0.167 0 0.605 0.635 0.973 1.408 0.799 1.683 9.946 11.003 13.731 13.993 8.966 7.077 19.313 12.491 30.163 15.78 17.509 5.308 37.514 4.758 54.93-1.509 27.847-10.020 48.171-32.4 55.822-61.466 1.449-5.502 2.047-9.166 2.583-15.814 0.613-7.591 0.077-15.693-1.605-24.234-1.004-5.099-1.1-6.105-0.718-7.529 0.671-2.496 1.289-3.47 3.496-5.516 5.874-5.444 9.376-9.922 12.001-15.349 4-8.271 5.409-14.778 5.061-23.401-0.301-7.467-1.421-11.694-5.271-19.851-0.605-1.282-1.366-2.554-1.693-2.823s-0.594-0.695-0.594-0.945c0-0.249-0.436-1.047-0.97-1.772-7.491-10.198-17.395-16.697-29.483-19.353-2.273-0.498-4.748-0.67-9.576-0.662-6.021 0.010-6.844 0.1-10.917 1.18-6.754 1.791-12.81 4.683-17.451 8.335-3.31 2.603-4.167 2.976-6.164 2.679-1.853-0.276-3.762-1.651-5.115-3.681-0.526-0.791-1.684-2.271-2.569-3.288-3.672-4.215-12.432-15.785-13.366-17.649l-1.006-2.009 0.454-4.502c0.756-7.514 1.501-11.683 3.713-20.783 0.772-3.175 3.408-11.174 4.403-13.359 0.419-0.921 1.094-2.515 1.499-3.542 1.143-2.901 4.962-10.61 6.573-13.271 0.8-1.321 1.453-2.485 1.453-2.588 0-0.312 4.156-6.266 7.050-10.102 1.494-1.981 3.089-4.108 3.545-4.727 1.592-2.167 12.231-12.642 16.219-15.967 19.836-16.541 43.765-26.299 70.598-28.788 6.214-0.577 21.558-0.249 27.081 0.577 17.089 2.556 32.998 8.044 45.583 15.726 2.001 1.222 4.137 2.481 4.749 2.798s1.402 0.853 1.757 1.191c0.357 0.338 2.125 1.688 3.929 3.003 5.831 4.243 16.233 14.248 20.092 19.327 0.591 0.777 2.979 3.88 5.309 6.895 3.794 4.911 8.717 11.534 9.444 12.704 3.437 5.533 6.221 10.265 7.496 12.74 11.446 22.227 11.865 42.334 1.321 63.315-2.154 4.286-3.091 5.099-6.132 5.318-2.198 0.16-2.259 0.135-5.063-1.975-9.051-6.81-20.682-10.334-31.844-9.651-6.452 0.395-11.375 1.724-17.899 4.83-5.201 2.477-8.279 4.69-12.613 9.075-10.070 10.185-15.279 24.32-13.87 37.641 0.735 6.965 2.218 11.876 5.439 18.036 2.447 4.678 4.398 7.2 9.575 12.373 2.507 2.506 4.794 5.011 5.081 5.567 1.029 1.988 1.038 3.57 0.050 8.454-1.134 5.614-2.148 14.737-2.135 19.238 0.010 4.269 0.929 12.983 1.892 17.955 1.678 8.661 4.088 15.209 9.433 25.628 1.771 3.455 8.526 13.041 10.838 15.381 0.553 0.559 2.641 2.687 4.643 4.729 5.985 6.105 14.127 11.859 22.792 16.107 18.865 9.25 41.492 11.421 61.998 5.949 8.322-2.22 18.766-7.043 26.024-12.016 9.917-6.794 19.532-16.689 25.213-25.948 0.714-1.164 1.516-2.457 1.781-2.873 2.953-4.632 9.668-20.937 9.668-23.474 0-0.919 1.985-3.681 3.234-4.501 0.524-0.343 2.466-0.954 4.318-1.358 14.436-3.151 25.835-10.647 33.141-21.796 1.563-2.386 4.893-9.211 4.893-10.031 0-0.298 0.161-0.705 0.358-0.904s0.735-2.174 1.195-4.387c1.043-5.018 1.144-12.393 0.241-17.429-0.656-3.658-2.052-8.567-2.61-9.175-0.184-0.201-0.335-0.631-0.336-0.958-0.005-0.847-3.076-6.797-4.887-9.462-2.138-3.149-7.374-8.595-10.389-10.805-10.128-7.427-22.35-10.325-37.059-8.793l-4.349 0.454-3.261-2.359-0.233-5.498c-0.374-8.808-1.977-15.459-5.352-22.207-3.857-7.71-8.961-13.399-16.394-18.267-10.381-6.798-24.395-8.954-37.585-5.782-4.119 0.99-5.257 0.994-7.163 0.021-1.529-0.779-1.545-0.811-2.764-5.415-3.152-11.912-2.993-16.582 0.69-20.264 2.79-2.79 7.903-4.523 18.813-6.377 12.175-2.069 24.303-2.121 38.003-0.161 34.434 4.927 63.923 22.518 84.104 50.169 4.236 5.805 9.648 15.365 12.464 22.019 6.554 15.488 9.619 28.709 10.632 45.858 1.383 23.428-2.863 38.472-15.323 54.31-1.077 1.369-3.24 4.214-4.804 6.321s-3.21 4.304-3.655 4.88c-2.345 3.039-8.722 14.452-13.755 24.614-10.362 20.918-11.572 23.538-11.299 24.443 0.548 1.81 4.096 7.525 4.52 7.279 3.129-1.821 6.871-4.604 7.281-5.414 0.286-0.565 1.167-3.009 1.959-5.432 1.644-5.022 3.402-9.827 4.417-12.066 0.382-0.843 1.239-2.738 1.908-4.214s1.614-3.457 2.103-4.404c0.489-0.947 1.466-2.844 2.171-4.214s1.372-2.576 1.482-2.681c0.11-0.105 1.534-2.174 3.166-4.597 4.263-6.334 5.397-7.865 7.447-10.068 1.004-1.079 2.862-3.069 4.125-4.42 5.385-5.761 13.144-11.525 22.792-16.93 21.127-11.837 37.573-23.697 54.334-39.186 5.259-4.86 14.021-13.908 17.105-17.661 0.632-0.769 1.753-2.061 2.49-2.869 2.534-2.779 4.791-5.481 6.041-7.238 0.689-0.968 1.393-1.854 1.564-1.968s1.466-1.761 2.877-3.658c11.755-15.792 19.313-27.975 27.745-44.727 2.466-4.898 5.17-10.441 6.011-12.318s1.843-3.815 2.231-4.306c0.951-1.21 2.84-1.226 3.284-0.032 0.175 0.474 0.525 4.912 0.777 9.863s0.706 12.88 1.010 17.62c0.643 10.006 0.715 19.509 0.173 22.792-0.771 4.657-3.559 29.171-4.965 43.668-0.778 8.019-2.307 22.613-2.688 25.665-0.21 1.686-0.822 6.685-1.361 11.109-2.668 21.949-7.596 44.762-13.905 64.365-0.805 2.5-4.476 12.528-5.046 13.778-0.191 0.422-1.315 3.093-2.497 5.938-2.318 5.583-6.59 14.313-9.558 19.537-7.821 13.763-15.062 23.338-25.65 33.919-17.395 17.385-35.676 28.147-60.163 35.412-7.919 2.35-15.212 3.946-23.532 5.15-6.439 0.931-6.724 1.011-7.955 2.205-0.702 0.68-1.699 2.083-2.214 3.117-0.847 1.701-0.887 1.98-0.401 2.917 0.735 1.421 3.442 3.803 5.117 4.502 0.999 0.417 2.023 0.508 3.692 0.328 34.729-3.76 63.587-16.389 88.402-38.688 3.969-3.565 5.918-4.81 7.539-4.81 1.251 0 8.767 4.041 12.551 6.748 3.64 2.604 10.455 8.715 11.801 10.58 0.422 0.584 1.973 2.734 3.448 4.776 2.951 4.087 2.891 3.987 5.072 8.35 2.603 5.207 4.747 11.693 6.111 18.483 1.057 5.256 0.958 17.29-0.189 22.984-1.439 7.154-3.731 13.458-7.016 19.299-1.771 3.148-4.902 7.582-6.59 9.332-0.609 0.632-1.392 1.58-1.737 2.107s-0.973 1.252-1.395 1.611c-0.422 0.359-1.801 1.543-3.066 2.63-12.631 10.864-28.536 19.011-47.691 24.428-9.163 2.592-27.478 6.475-35.485 7.524-1.435 0.189-2.223 0.535-2.909 1.281-1.363 1.48-4.124 5.481-4.122 5.97 0.005 0.481 4.155 3.988 5.656 4.78 1.36 0.717 7.034 0.357 13.959-0.883 8.847-1.585 10.283-1.639 12.648-0.483 1.111 0.543 2.705 1.69 3.544 2.55 1.474 1.509 1.541 1.693 2.010 5.478 0.758 6.103 1.055 23.012 0.509 29.033-1.323 14.586-4.749 27.141-10.579 38.768-2.629 5.243-9.193 15.093-12.053 18.089-1.207 1.265-2.776 2.975-3.486 3.801s-3.095 3.131-5.299 5.123c-10.272 9.28-22.834 17.29-37.625 23.99-3.994 1.81-4.137 1.843-5.9 1.4-3.884-0.978-4.573-1.673-7.832-7.884-2.185-4.166-3.103-5.824-4.469-8.058-0.252-0.413-0.83-1.441-1.283-2.284s-1.496-2.542-2.317-3.778c-0.821-1.236-1.493-2.34-1.493-2.454s-0.43-0.773-0.958-1.463c-0.526-0.691-0.958-1.372-0.958-1.514 0-0.353-6.489-9.849-7.056-10.326-0.25-0.211-1.034-1.245-1.743-2.299-1.655-2.457-4.521-6.133-7.619-9.767-7.414-8.701-19.681-20.559-24.879-24.054-2.356-1.583-5.74-2.429-8.040-2.009-0.845 0.154-2.317 0.738-3.27 1.297-3.007 1.762-4.165 4.038-6.002 11.799-1.274 5.381-3.78 16.025-4.991 21.201-2.029 8.667-5.030 20.889-5.5 22.408-0.294 0.947-0.823 2.758-1.178 4.023-1.713 6.124-6.041 18.572-8.656 24.899-0.261 0.632-0.52 1.322-0.575 1.533-0.229 0.874-5.377 10.181-7.51 13.575-1.266 2.014-3.276 4.917-4.469 6.449s-2.35 3.085-2.572 3.448c-0.222 0.363-1.758 2.088-3.416 3.832-7.396 7.791-17.761 15.074-27.406 19.259-1.997 0.867-7.682 2.956-12.635 4.641-24.913 8.485-39.291 15.936-56.118 29.078-20.435 15.961-27.143 19.867-39.263 22.861l-4.023 0.994-25.281 0.095c-20.34 0.077-25.955-0.011-28.729-0.449zM559.846 838.334c19.877-1.855 32.613-4.265 46.773-8.855 13.265-4.299 26.908-10.773 36.157-17.157 16.588-11.449 28.086-24.979 36.995-43.535 2.484-5.172 5.39-12.709 6.279-16.279 0.184-0.737 0.759-2.891 1.279-4.788 1.949-7.111 2.958-12.366 4.111-21.413 1.122-8.799 2.051-11.568 4.267-12.714 2.114-1.093 4.709-0.581 9.548 1.886 4.599 2.345 6.402 2.653 9.687 1.662 2.394-0.722 3.105-2.037 3.105-5.744 0-2.971-0.091-3.311-1.768-6.58-3.293-6.419-4.632-10.451-5.538-16.663-1.521-10.426-0.076-19.897 5.297-34.667 6.168-16.963 12.711-30.441 22.407-46.158 5.593-9.066 6.671-10.731 9.756-15.065 2.5-3.513 3.274-4.605 5.371-7.586 1.731-2.46 10.227-13.153 12.211-15.373 0.899-1.003 1.902-2.225 2.231-2.713 0.585-0.869 1.668-2.11 9.373-10.745 5.552-6.223 8.85-9.681 19.393-20.341 10.591-10.708 11.216-11.587 11.262-15.85 0.026-2.42-0.010-2.515-1.29-3.385-3.356-2.282-6.125-2.403-15.347-0.675-15.061 2.823-27.060 6.718-40.030 12.99-20.811 10.065-37.979 23.663-56.137 44.458-2.391 2.738-6.252 6.975-8.58 9.414-9.007 9.434-10.093 14.006-6.599 27.742 3.311 13.014 5.741 24.672 13.615 65.311 3.352 17.296 3.6 18.723 3.367 19.326-0.329 0.859-1.925 0.729-3.998-0.323-4.758-2.414-18.805-13.964-25.939-21.33-6.113-6.313-6.703-6.943-6.703-7.168 0-0.118-0.824-1.174-1.831-2.349s-2.77-3.343-3.917-4.818c-1.147-1.475-2.237-2.789-2.422-2.919s-0.964-1.197-1.732-2.366c-0.768-1.169-2.594-3.907-4.055-6.083-4.372-6.503-10.111-16.236-13.062-22.15-4.877-9.771-9.483-19.89-11.856-26.047-2.491-6.461-2.953-7.077-7.437-9.943l-2.071-1.323-1.497 1.706c-1.989 2.267-3.556 4.552-3.929 5.729-0.167 0.526-0.423 10.437-0.567 22.026-0.259 20.718-0.279 21.108-1.149 23.512-2.838 7.836-11.595 11.463-20.944 8.673-2.428-0.724-6.111-3.525-7.232-5.499-2.258-3.974-2.205-3.415-2.474-26.942l-0.247-21.707-1.045-1.58c-1.128-1.705-5.058-5.761-5.58-5.761-0.609 0-5.233 5.213-5.963 6.721-0.676 1.397-0.751 2.856-0.979 18.753-0.273 19.038-0.273 19.033-2.957 24.211-2.489 4.799-8.365 9.86-13.497 11.625-3.467 1.193-9.511 1.446-13.792 0.579-9.52-1.929-16.143-7.875-18.415-16.532-0.714-2.721-0.83-4.764-1.153-20.264-0.228-10.923-0.519-17.729-0.797-18.578-0.449-1.375-5.075-6.512-5.863-6.512-0.242 0-1.741 1.25-3.331 2.778-2.863 2.749-2.895 2.803-3.215 5.267-0.177 1.369-0.343 9.557-0.365 18.194l-0.041 15.705-1.019 3.064c-2.23 6.701-6.552 11.714-12.765 14.806-3.743 1.862-6.906 2.594-11.257 2.602-6.931 0.015-12.261-2.072-17.227-6.743-2.834-2.666-5.648-6.658-6.3-8.941-0.15-0.526-0.457-1.561-0.682-2.299-0.244-0.799-0.523-8.379-0.691-18.769-0.155-9.585-0.419-18.032-0.587-18.769-0.217-0.953-1.134-2.144-3.169-4.118-1.575-1.528-3.069-2.778-3.321-2.778-0.553 0-5.222 4.783-5.981 6.128-0.44 0.778-0.581 4.991-0.763 22.601-0.133 13.048-0.38 22.193-0.619 23.027-1.878 6.562-7.757 10.681-15.248 10.681-7.404 0-13.43-4.218-15.238-10.665-0.23-0.817-0.501-9.871-0.653-21.703-0.298-23.145-0.084-21.632-3.8-26.914l-2.226-3.164-2.065 1.602c-3.871 3.002-5.628 4.944-6.496 7.184-0.455 1.177-1.155 2.871-1.551 3.763s-0.721 1.706-0.721 1.808c0 0.939-10.087 22.244-13.065 27.596-0.586 1.054-1.481 2.691-1.99 3.639s-1.454 2.585-2.104 3.639c-0.649 1.054-1.645 2.691-2.218 3.639s-3.297 4.975-6.057 8.946c-2.762 3.972-5.199 7.529-5.417 7.904s-0.821 1.15-1.34 1.722c-1.777 1.957-2.095 2.328-3.807 4.42-2.805 3.429-3.024 3.665-9.208 9.897-6.167 6.215-12.758 11.952-19.339 16.836-5.525 4.101-9.051 5.599-9.629 4.091-0.419-1.093 1.494-9.051 6.171-25.665 5.297-18.814 7.004-26.326 8.269-36.391 0.239-1.897 1.198-7.297 2.134-12.002 2.203-11.082 2.674-15.805 2.064-20.685-0.917-7.336-3.379-12.357-9.606-19.6-6.363-7.401-14.312-15.786-19.836-20.929-6.075-5.654-15.421-13.545-16.043-13.545-0.194 0-0.749-0.421-1.232-0.935s-2.883-2.301-5.334-3.969c-11.719-7.983-24.701-14.721-36.824-19.115-9.504-3.444-26.661-7.43-32.368-7.522-4.989-0.079-8.618 2.007-8.618 4.952 0 1.218 0.163 1.756 1.449 4.754 0.339 0.791 4.529 5.342 10.227 11.109 5.309 5.372 11.173 11.405 13.031 13.406s3.96 4.242 4.669 4.979c0.709 0.737 2.718 2.978 4.461 4.979s3.549 4.069 4.013 4.597c7.797 8.866 18.881 23.372 25.027 32.752 1.795 2.738 3.549 5.215 3.9 5.506s0.637 0.704 0.637 0.921c0 0.217 0.43 0.96 0.958 1.651s0.958 1.379 0.958 1.527c0 0.149 1.522 2.79 3.383 5.867s3.647 6.112 3.969 6.744c14.539 28.597 18.574 38.851 21.027 53.436 0.713 4.241 0.614 14.022-0.184 18.147-1.247 6.445-3.313 12.104-6.397 17.522-1.997 3.508-2.099 3.935-1.478 6.167 0.611 2.204 2.054 3.636 4.41 4.378l2.080 0.655 2.907-1.457c3.783-1.896 7.082-2.266 9.093-1.024 2.2 1.36 2.672 2.887 2.977 9.621 0.603 13.31 5.681 30.583 13.457 45.774 1.603 3.131 6.728 11.721 7.202 12.066 0.144 0.105 0.485 0.623 0.76 1.149 1.076 2.069 6.097 8.376 9.066 11.389 1.721 1.746 3.186 3.336 3.255 3.532 0.229 0.643 7.326 6.931 11.235 9.954 6.241 4.826 12.156 8.504 19.918 12.382 13.413 6.701 30.657 11.729 46.923 13.68 8.821 1.057 14.416 1.25 44.625 1.529 22.992 0.213 35.317 0.483 41.944 0.924 5.161 0.343 10.85 0.686 12.641 0.763 6.083 0.26 34.264-0.106 38.496-0.501zM452.139 825.645c-2.373-0.484-4.235-1.897-4.965-3.761-2.028-5.174 0.506-15.561 5.225-21.419 7.033-8.729 20.252-11.573 30.527-6.568 2.331 1.136 7.779 5.111 7.779 5.677 0 0.159 0.512 0.813 1.141 1.454 1.398 1.431 3.997 6.794 4.787 9.881 0.861 3.364 0.782 9.261-0.144 10.781-1.427 2.341-2.653 2.744-10.402 3.422-7.1 0.621-31.637 1.007-33.946 0.535zM531.973 825.826c-0.125-0.125-3.879-0.226-8.341-0.223-9.079 0.007-10.607-0.315-12.21-2.567-2.645-3.716-1.143-13.864 2.994-20.235 1.928-2.969 6.406-7.117 9.214-8.533 5.34-2.695 12.522-3.558 18.020-2.163 8.296 2.104 15.101 8.532 17.896 16.904 0.886 2.653 1.026 3.715 1.043 7.923l0.021 4.858-1.149 1.223c-2.042 2.172-2.658 2.276-13.372 2.276-6.092 0-9.847 0.144-9.994 0.384-0.252 0.408-3.738 0.539-4.123 0.155zM427.308 822.708c-0.945-0.355-3.956-0.704-7.852-0.911-9.023-0.479-10.907-0.994-13.974-3.821-4.205-3.875-5.466-12.207-2.746-18.146 2.964-6.475 12.39-9.919 20.385-7.45 2.147 0.664 2.975 1.18 4.772 2.977 1.197 1.197 2.548 3.017 3.003 4.046 1.309 2.961 2.349 8.855 2.349 13.311 0 3.511-0.135 4.322-1.173 7.020-1.519 3.944-1.766 4.098-4.764 2.974zM575.857 819.254c-1.393-2.477-1.461-2.757-1.585-6.679-0.446-14.153 4.689-20.81 16.025-20.769 9.863 0.035 15.705 5.303 15.705 14.164 0 4.578-1.514 8.42-4.267 10.827-2.773 2.424-5.929 3.275-13.736 3.703-2.423 0.133-5.411 0.489-6.639 0.791-3.741 0.918-3.868 0.872-5.505-2.037zM380.193 809.425c-17.465-6.73-36.393-26.466-46.762-48.755-2.956-6.354-3.073-6.619-3.81-8.546-4.739-12.394-6.528-22.141-6.183-33.708 0.351-11.836 1.214-14.184 6.768-18.403 10.591-8.047 23.121-20.279 30.791-30.052 3.717-4.736 8.391-11.059 9.166-12.4 0.441-0.763 1.458-2.267 2.258-3.339s1.453-2.076 1.453-2.228c0-0.153 0.431-0.843 0.958-1.533s0.958-1.35 0.958-1.463c0-0.114 0.69-1.239 1.533-2.501s1.533-2.488 1.533-2.724c0-0.237 0.137-0.43 0.304-0.43s0.901-1.126 1.629-2.499c2.096-3.961 2.125-4.007 3.461-5.383 0.698-0.721 1.575-1.309 1.952-1.309 0.876 0 1.693 1.313 2.023 3.255 0.504 2.961 1.845 8.034 2.576 9.737 1.136 2.649 3.639 6.096 6.434 8.858 6.195 6.124 17.335 9.305 26.256 7.5 4.635-0.938 9.349-3.433 13.636-7.217 3.543-3.128 3.586-3.151 5.689-3.162 2.049-0.011 2.239 0.080 5.747 2.766 4.433 3.395 8.56 5.48 13.61 6.873 3.417 0.943 4.472 1.057 9.767 1.058 4.99 0 6.458-0.138 9.193-0.875 6.773-1.825 11.954-4.703 17.398-9.666l3.009-2.743 2.395 0.152c2.302 0.147 2.486 0.238 4.739 2.323 8.554 7.919 18.012 11.503 28.738 10.889 8.5-0.486 16.064-3.432 22.642-8.816 2.283-1.869 2.532-1.976 4.579-1.965 2.161 0.011 2.171 0.019 5.731 3.163 6.523 5.763 12.593 8.026 20.475 7.631 6.208-0.311 12.241-2.322 16.7-5.565 2.093-1.521 5.365-4.776 5.365-5.334 0-0.277 0.252-0.6 0.559-0.719 1.146-0.441 4.354-7.817 5.355-12.313 1.137-5.108 1.472-5.835 2.685-5.835 0.662 0 1.368 0.605 2.576 2.203 2.835 3.753 6.571 8.255 8.072 9.733 0.791 0.777 1.436 1.571 1.436 1.766s0.56 0.942 1.245 1.659c0.685 0.718 1.998 2.296 2.919 3.507s1.814 2.201 1.985 2.201c0.171 0 0.408 0.301 0.525 0.67s1.078 1.569 2.133 2.667c1.055 1.099 1.918 2.107 1.918 2.243s1.077 1.545 2.394 3.13c2.726 3.283 4.825 5.817 6.433 7.762 0.609 0.737 2.277 2.751 3.705 4.473s3.642 4.48 4.919 6.128c1.277 1.648 4.557 5.842 7.287 9.317 5.9 7.508 6.075 7.773 7.287 10.995 0.962 2.556 3.213 14.483 3.213 17.033 0 3.751-2.979 18.231-5.507 26.748-2.555 8.616-4.794 13.911-9.387 22.217-8.257 14.931-20.945 27.876-36.003 36.733-2.471 1.453-3.033 1.637-4.508 1.471-0.927-0.105-2.345-0.626-3.149-1.159-1.314-0.87-1.533-1.258-2.137-3.781-0.74-3.095-2.349-7.468-3.078-8.365-0.257-0.315-0.567-0.859-0.689-1.204-0.403-1.143-3.695-5.21-5.614-6.936-2.092-1.881-6.13-4.136-9.505-5.307-11.302-3.924-21.735-1.649-30.625 6.674-3.317 3.106-6.229 3.17-9.659 0.211-5.831-5.030-14.217-8.246-22.574-8.658-10.217-0.503-20.232 3.295-28.111 10.661-4.222 3.947-6.048 3.951-10.549 0.021-3.929-3.431-6.241-5.057-9.471-6.662-9.622-4.782-19.167-5.402-29.375-1.909-4.050 1.386-7.376 3.212-11.455 6.285-2.396 1.805-3.466 2.37-4.777 2.517-2.127 0.24-3.703-0.403-4.93-2.013-2.375-3.115-9.45-7.24-14.427-8.413-3.122-0.735-8.346-0.749-11.762-0.032-9.885 2.079-17.521 7.752-21.139 15.706-1.141 2.509-2.578 7.537-2.905 10.166-0.427 3.446-2.315 5.768-4.654 5.727-0.587-0.010-2.101-0.417-3.366-0.904zM698.946 650.328c-0.321-1.001-1.027-4.664-1.566-8.141s-2.101-13.38-3.468-22.010c-1.367-8.63-2.486-16.079-2.486-16.555s0.4-1.776 0.89-2.889c0.49-1.113 1.212-2.798 1.607-3.745 1.151-2.768 7.417-11.781 9.179-13.2 0.272-0.218 1.521-1.604 2.778-3.079 4.082-4.795 18.055-18.578 18.833-18.578 0.166 0 0.631-0.365 1.032-0.812 1.806-2.009 14.134-10.733 20.921-14.805 7.863-4.718 21.049-10.881 26.051-12.176 2.618-0.679 3.363-0.375 3.363 1.367 0 1.351-1.73 3.608-8.861 11.557-6.083 6.783-7.162 8.051-12.978 15.252-2.127 2.634-4.228 5.219-4.669 5.747s-1.455 1.819-2.253 2.873c-0.798 1.054-2.236 2.947-3.199 4.207s-1.748 2.437-1.748 2.615c0 0.178-0.517 0.842-1.149 1.474s-1.149 1.394-1.149 1.694c0 0.301-0.156 0.545-0.345 0.545s-0.701 0.56-1.136 1.245c-0.435 0.685-1.926 2.882-3.315 4.884-2.239 3.227-4.84 7.163-6.205 9.388-0.258 0.419-1.273 2.054-2.258 3.634-1.753 2.812-2.565 4.192-4.055 6.895-0.407 0.737-1.096 1.944-1.53 2.681-1.534 2.604-6.821 12.554-6.821 12.839 0 0.159-0.66 1.601-1.466 3.205s-1.959 4.123-2.561 5.599c-0.602 1.475-1.219 2.853-1.372 3.064s-1.599 3.83-3.213 8.043c-1.616 4.214-3.209 7.962-3.541 8.332s-1.082 0.67-1.663 0.67c-0.926 0-1.132-0.229-1.644-1.819zM305.664 651.252c-0.691-0.343-1.207-1.259-1.982-3.519-2.577-7.5-7.279-18.392-12.047-27.903-2.213-4.416-7.855-14.483-8.562-15.281-0.231-0.26-1.1-1.681-1.932-3.157-1.787-3.173-1.877-3.316-4.469-7.19-1.106-1.654-2.010-3.076-2.010-3.162 0-0.918-20.306-28.118-21.87-29.294-0.14-0.105-0.911-1.054-1.713-2.107-1.626-2.136-2.765-3.45-4.806-5.537-0.761-0.777-1.449-1.618-1.533-1.868-0.161-0.483-5.765-6.878-9.947-11.35-4.096-4.382-4.931-6.003-3.637-7.077 0.996-0.826 4.295 0.152 12.479 3.701 10.772 4.669 22.351 11.359 31.128 17.978 1.213 0.916 2.306 1.664 2.429 1.664s0.679 0.411 1.24 0.911c0.561 0.501 1.813 1.621 2.786 2.49s1.861 1.578 1.977 1.578c0.559 0 16.769 15.954 18.957 18.657 2.841 3.509 4.086 4.935 4.549 5.207 0.287 0.169 0.53 0.513 0.539 0.766s1.038 1.666 2.287 3.142c3.888 4.595 4.921 6.755 5.615 11.753l0.603 4.334-1.597 10.535c-0.878 5.793-2.102 13.55-2.719 17.238s-1.48 8.852-1.917 11.476c-0.438 2.625-0.987 5.005-1.223 5.287-0.805 0.97-1.657 1.206-2.622 0.727zM470.563 563.072c5.867-1.595 11.635-5.477 15.214-10.236 1.272-1.691 2.41-3.353 2.528-3.689s0.475-0.917 0.791-1.285c0.316-0.369 0.454-0.67 0.302-0.67s-0.019-0.474 0.293-1.054c2.943-5.483 3.289-13.395 0.893-20.392-1.747-5.103-3.291-7.576-7.161-11.473-3.829-3.856-6.321-5.411-11.496-7.185-14.22-4.869-29.254 1.823-35.956 16.004-1.936 4.096-2.449 7.080-2.236 12.992 0.249 6.946 1.194 9.653 5.565 15.971 3.875 5.601 10.937 10.126 17.885 11.46 3.335 0.64 10.234 0.413 13.376-0.441zM461.241 550.054c-2.334-0.655-4.937-2.093-8.138-4.493-1.193-0.894-3.545-2.661-5.229-3.926s-3.161-2.643-3.284-3.064c-0.305-1.038-0.245-6.742 0.077-7.513 0.418-0.993 10.785-9.085 13.093-10.22 2.961-1.455 6.255-1.425 9.193 0.083 2.634 1.352 8.276 6.981 9.629 9.607 1.925 3.734 2.289 7.723 1.081 11.846-0.643 2.193-4.087 5.64-6.896 6.901-2.88 1.293-6.613 1.598-9.527 0.779zM550.22 563.492c7.83-1.498 14.523-6.055 19.079-12.991 1.225-1.867 2.23-3.685 2.23-4.041s0.156-0.811 0.345-1.012c0.975-1.027 1.953-6.288 1.953-10.515 0-5.221-0.651-8.174-2.76-12.534-6.53-13.494-21.213-19.957-35.159-15.471-17.199 5.531-25.613 24.942-17.619 40.646 6.199 12.176 18.758 18.438 31.928 15.918zM540.77 549.319c-1.895-0.676-3.86-1.994-8.313-5.572-2.001-1.608-4.199-3.313-4.884-3.788l-1.245-0.864v-8.333l5.267-4.25c2.944-2.374 6.489-4.859 8.036-5.63 2.458-1.225 3.002-1.355 4.836-1.167 6.435 0.665 14.879 9.336 14.927 15.33 0.021 2.633-1.040 4.834-3.794 7.871-5.357 5.91-10.269 8.029-14.829 6.404zM780.292 949.673c-2.217-0.681-5.268-2.83-6.356-4.474-0.563-0.85-1.172-1.547-1.355-1.547s-0.332-0.184-0.332-0.409c0-0.225-0.464-1.043-1.030-1.819-2.486-3.405-4.168-5.656-4.524-6.058-0.211-0.239-1.481-2.006-2.823-3.927s-2.574-3.493-2.737-3.493c-0.163 0-0.84-0.847-1.505-1.882s-1.458-1.978-1.764-2.094c-0.306-0.118-0.556-0.415-0.556-0.664s-0.819-1.412-1.819-2.589c-1.001-1.177-2.036-2.401-2.3-2.723-5.947-7.227-16.88-18.501-23.175-23.898-3.378-2.896-12.025-9.415-12.913-9.735-0.324-0.117-1.193-0.679-1.93-1.248-3.591-2.775-10.059-6.228-16.471-8.793-6.345-2.538-6.984-3.67-5.201-9.195 0.511-1.581 1.785-5.546 2.834-8.812 3.538-11.022 10.422-32.272 15.819-48.839 2.951-9.059 5.579-17.145 5.843-17.97 0.679-2.135 1.602-2.655 3.308-1.864 1.523 0.707 6.612 5.799 12.549 12.556 2.221 2.527 4.314 4.864 4.651 5.189s0.785 0.864 0.996 1.196c0.211 0.33 1.158 1.589 2.107 2.793 12.848 16.331 25.185 38.36 32.618 58.239 4.97 13.293 7.225 20.537 10.031 32.226 3.458 14.405 5.161 23.378 6.965 36.675l0.978 7.215-1.643 2.408c-2.289 3.356-3.385 4.033-6.455 3.984-1.356-0.021-3.070-0.225-3.807-0.452zM216.76 940.77c-0.952-0.517-4.504-5.017-4.996-6.328-0.393-1.049 2.615-20.729 4.835-31.627 3.144-15.442 10.493-39.347 15.533-50.521 0.38-0.843 1.267-2.911 1.97-4.597 3.972-9.51 11.886-24.012 18.678-34.229 5.905-8.883 9.223-13.265 16.445-21.715 5.186-6.068 7.080-7.833 8.403-7.833 1.079 0 2.175 1.665 3.023 4.597 0.335 1.158 2.765 9.261 5.399 18.003s4.958 16.499 5.163 17.238c1.010 3.629 6.801 23.097 9.116 30.644 2.517 8.208 2.571 8.556 1.631 10.49-0.714 1.47-1.258 1.908-4.574 3.673-17.493 9.313-34.475 24.811-54.618 49.847-1.423 1.771-4.925 6.406-7.78 10.304s-5.713 7.627-6.35 8.289c-1.523 1.58-4.249 3.037-7.042 3.764-2.749 0.716-3.522 0.717-4.836 0.005zM369.187 496.229c-12.903-1.351-26.158-6.417-36.78-14.056-4.257-3.061-11.207-9.793-14.889-14.42-1.697-2.133-3.328-4.18-3.627-4.552s-0.541-0.754-0.541-0.85c0-0.097-0.791-1.512-1.756-3.144-3.264-5.52-5.196-10.006-7.227-16.78-2.244-7.481-2.702-11.137-2.693-21.451 0.010-10.194 0.569-14.467 2.835-21.651 1.82-5.77 2.238-6.815 4.63-11.565 2.067-4.105 7.967-13.448 8.691-13.767 0.168-0.074 1.491-1.471 2.941-3.106 2.987-3.367 8.693-8.435 12.714-11.286 8.258-5.859 17.79-9.923 28.594-12.191 5.831-1.225 16.82-1.69 22.761-0.965 23.084 2.818 43.35 15.777 55.749 35.651 2.947 4.725 3.606 5.989 5.389 10.342 2.023 4.94 3.225 8.88 4.382 14.365 0.979 4.639 1.053 5.623 1.064 14.365 0.011 8.435-0.079 9.831-0.902 13.79-2.443 11.781-6.823 21.831-13.271 30.458-12.219 16.35-28.807 26.637-48.523 30.093-5.034 0.882-14.628 1.237-19.545 0.721zM380.959 464.039c10.329-1.228 18.641-5.311 26.074-12.804 7.99-8.057 12.425-18.71 12.425-29.847 0-7.033-1.444-13.127-4.581-19.342-1.507-2.988-3.836-6.544-4.284-6.544-0.181 0-0.329-0.227-0.329-0.503 0-0.771-7.16-7.59-9.912-9.441-3.593-2.416-9.092-4.899-13.348-6.027-3.233-0.857-4.584-0.999-9.875-1.034-6.615-0.045-9.679 0.381-14.174 1.967-17.856 6.307-29.306 22.158-29.303 40.569 0.001 7.29 1.193 12.551 4.282 18.901 7.106 14.605 21.485 23.849 38.045 24.457 0.843 0.031 3.084-0.128 4.979-0.354zM370.565 450.473c-5.841-1.27-10.228-3.775-15.099-8.62-3.23-3.213-3.89-4.111-5.633-7.663-2.249-4.585-3.157-8.332-3.157-13.024 0-13.223 9.194-25.025 22.431-28.791 4.077-1.16 10.511-1.168 14.777-0.016 7 1.889 13.46 6.578 17.783 12.909 3.113 4.557 5.173 12.788 4.583 18.311-1.684 15.771-14.499 27.532-29.886 27.426-1.897-0.013-4.505-0.254-5.798-0.535zM632.625 496.231c-13.334-1.522-25.893-6.335-36.695-14.058-6.846-4.894-15.931-14.81-20.273-22.127-4.393-7.403-7.708-16.103-9.542-25.041-1-4.867-1.397-17.19-0.728-22.519 1.019-8.113 2.93-14.875 6.42-22.73 0.515-1.158 1.099-2.365 1.295-2.681s0.713-1.265 1.145-2.107c5.999-11.703 18.367-23.814 30.927-30.284 16.921-8.716 35.399-10.902 53.444-6.321 15.441 3.92 30.149 13.388 39.907 25.689 1.253 1.58 2.496 3.011 2.76 3.179s0.481 0.467 0.481 0.664c0 0.196 0.637 1.351 1.419 2.567 3.311 5.16 6.432 11.763 8.465 17.914 3.049 9.226 4.224 21.73 2.968 31.602-2.68 21.060-13.102 39.109-29.897 51.773-6.993 5.272-17.496 10.251-26.449 12.536-7.413 1.892-18.655 2.745-25.646 1.947zM644.5 464.039c10.28-1.223 18.332-5.117 25.628-12.394 5.771-5.756 9.653-12.588 11.619-20.444 0.891-3.565 1.025-4.869 1.023-10.035-0.004-4.819-0.161-6.57-0.839-9.289-1.699-6.808-4.786-12.994-9.182-18.394-5.080-6.24-13.78-11.788-21.737-13.861-7.922-2.064-17.955-1.638-25.138 1.066-8.718 3.282-15.589 8.467-20.638 15.577-4.721 6.647-7.231 13.17-7.997 20.783-1.008 10.013 1.464 19.516 7.385 28.393 6.115 9.168 17.699 16.642 28.214 18.206 5.944 0.884 7.187 0.926 11.663 0.393zM633.966 450.452c-6.16-1.313-10.856-4.081-15.757-9.293-7.482-7.953-9.819-19.376-6.123-29.916 1.017-2.902 2.652-6.055 3.89-7.506 0.359-0.422 0.719-0.969 0.798-1.216 0.288-0.901 6.34-5.88 8.954-7.369 5.112-2.91 12.243-4.321 17.851-3.532 6.738 0.949 11.868 3.364 16.688 7.852 3.696 3.442 6.223 7.336 7.805 12.031 1.619 4.801 1.999 11.267 0.944 16.050-0.795 3.6-2.898 8.417-4.823 11.043-1.684 2.299-5.634 6.11-8.014 7.73-5.844 3.981-14.961 5.675-22.217 4.127zM278.683 421.405c-5.173-1.69-9.041-4.13-12.924-8.152-4.753-4.922-6.623-8.177-8.553-14.879-0.959-3.328-1.104-4.484-1.113-8.811-0.021-10.258 3.173-17.797 10.577-24.958 4.581-4.431 10.427-7.483 16.83-8.779 4.221-0.855 11.597-0.581 15.612 0.578 4.629 1.337 7.080 2.765 7.91 4.604 1.286 2.852 0.693 5.955-1.507 7.871-0.242 0.211-1.583 2.107-2.981 4.214-3.045 4.588-7.417 13.251-9.076 17.973-2.644 7.532-4.785 17.499-5.25 24.439-0.265 3.957-0.694 4.753-3.283 6.081-1.815 0.931-2.933 0.899-6.239-0.181zM732.219 421.562c-3.168-1.523-3.478-2.102-4.018-7.517-1.224-12.234-3.661-20.744-9.217-32.179-2.18-4.487-8.043-13.764-9.637-15.25-0.672-0.626-0.754-1.050-0.579-2.982 0.346-3.818 1.424-4.802 7.505-6.849 3.274-1.101 4.288-1.261 9.062-1.42 6.505-0.216 10.279 0.55 15.693 3.183 9.613 4.675 16.018 12.701 18.786 23.544 0.080 0.315 0.333 2.11 0.562 3.987 0.868 7.128-1.194 15.949-5.035 21.554-0.604 0.88-1.098 1.705-1.098 1.832 0 0.464-4.845 5.311-6.895 6.896-2.611 2.022-6.642 4.073-10.096 5.139-3.169 0.977-3.121 0.977-5.034 0.057zM817.749 405.242c-0.343-0.755-0.343-2.033 0.008-5.458 1.155-11.263 1.367-19.79 0.708-28.413-1.319-17.265-4.062-29.544-9.863-44.145-1.588-3.996-6.278-13.713-7.628-15.803-0.409-0.632-1.012-1.743-1.34-2.47s-1.068-1.933-1.64-2.681c-0.573-0.749-1.365-1.965-1.759-2.702-1.017-1.898-5.713-8.249-9.219-12.468-2.869-3.452-11.485-12.12-15.152-15.246-13.706-11.681-28.126-19.759-46.158-25.857-6.125-2.072-10.857-3.267-19.205-4.849-9.971-1.889-16.107-2.329-24.541-1.757-6.667 0.451-8.911 0.718-25.807 3.060-13.267 1.841-17.512 2.183-20.040 1.617-1.186-0.266-2.65-0.897-3.25-1.402-0.639-0.539-2.17-3.108-3.69-6.195-3.148-6.392-7.413-13.838-11.032-19.258-3.030-4.537-8.615-12.159-9.715-13.255-0.399-0.399-1.953-2.191-3.451-3.983-2.933-3.507-9.086-9.6-12.187-12.073-1.054-0.839-2.088-1.715-2.299-1.946-0.751-0.823-5.12-3.985-5.507-3.985-0.217 0-0.531-0.239-0.699-0.531s-1.513-1.355-2.989-2.363c-17.476-11.938-38.155-19.186-61.863-21.681-6.324-0.665-25.903-0.671-32.177-0.008-19.181 2.024-36.732 7.462-51.905 16.080-4.753 2.7-11.533 7.237-14.212 9.509-1.336 1.133-2.547 2.060-2.694 2.060-1.015 0-13.54 12.299-18.144 17.816-4.758 5.702-8.387 10.525-8.41 11.179-0.008 0.253-0.231 0.597-0.496 0.766-1.264 0.808-8.83 13.182-12.551 20.529l-2.483 4.9-4.792 2.373-6.031-1.207c-11.368-2.275-19.404-3.115-29.781-3.115-28.771 0-56.373 8.602-79.675 24.829-3.088 2.15-6.187 4.515-6.895 5.262-0.211 0.222-1.411 1.169-2.667 2.107-5.62 4.189-20.136 19.798-22.422 24.112-0.279 0.526-0.713 1.129-0.964 1.34-1.385 1.163-7.481 11.297-10.829 18.003-7.519 15.062-12.43 31.896-14.306 49.031-0.485 4.439-0.654 19.040-0.331 28.729l0.191 5.747-0.871 0.123c-0.508 0.072-2.025-0.548-3.639-1.486-1.522-0.885-5.11-2.959-7.972-4.608-5.985-3.449-7.79-4.63-12.033-7.877-2.928-2.24-8.004-7.242-10.246-10.095-1.28-1.629-5.268-7.976-5.268-8.384 0-0.161-0.441-1.377-0.978-2.7-3.496-8.605-4.36-18.727-2.644-31.050 0.933-6.709 1.313-16.247 1.321-33.134 0.007-16.751 0.272-21.714 1.575-29.617 1.486-9.005 3.554-15.631 7.256-23.246 4.357-8.964 8.897-15.205 16.319-22.437 10.396-10.129 22.953-17.126 37.377-20.824 7.927-2.032 10.213-2.289 20.6-2.305 10.661-0.019 13.954 0.346 22.564 2.501 6.971 1.744 8.633 1.505 10.542-1.519 1.033-1.636 1.49-3.683 2.317-10.385 0.743-6.027 1.442-9.262 3.339-15.457 4.558-14.893 11.465-26.133 22.675-36.906 7.495-7.202 15.419-12.383 25.319-16.559 11.204-4.725 21.547-6.923 32.571-6.923 13.441 0 24.788 2.942 39.36 10.203 6.273 3.127 7.489 3.362 11.414 2.209 2.242-0.658 4.571-1.92 4.571-2.476 0-0.903 5.075-11.148 7.399-14.939 0.459-0.749 1.344-2.215 1.967-3.255s1.785-2.791 2.585-3.887c0.801-1.098 1.455-2.094 1.455-2.219s1.152-1.638 2.559-3.367c13.219-16.243 27.287-25.952 45.908-31.687 9.541-2.938 22.337-5.153 29.675-5.136 9.88 0.021 25.082 3.35 36.007 7.883 12.383 5.138 23.76 13.558 31.153 23.052 2.023 2.597 6.585 9.014 7.62 10.717 0.151 0.249 1.683 2.779 3.402 5.624 3.425 5.664 8.603 13.542 10.385 15.802 1.445 1.831 6.020 4.090 8.885 4.386 1.957 0.203 2.249 0.109 5.495-1.747 10.102-5.781 22.998-9.723 35.335-10.799 17.119-1.493 36.406 3.312 51.493 12.833 11.805 7.449 22.485 18.753 28.971 30.662 2.463 4.523 3.329 6.493 5.133 11.683 2.703 7.772 3.909 13.504 5.127 24.38 0.452 4.029 1.817 7.106 3.569 8.043 1.864 0.996 5.103 0.817 10.509-0.581 7.595-1.965 11.706-2.458 20.456-2.46 8.457-0.002 13.664 0.644 20.993 2.606 10.377 2.778 21.724 8.437 30.631 15.28 4.973 3.819 14.747 13.79 16.658 16.993 0.409 0.685 0.899 1.245 1.088 1.245s0.346 0.216 0.348 0.479c0 0.263 0.819 1.687 1.819 3.167 1.556 2.302 5.707 10.242 6.605 12.635 0.159 0.422 0.499 1.283 0.76 1.915 1.487 3.619 3.534 11.582 4.452 17.319 0.368 2.292 0.722 8.213 0.917 15.24 0.441 16.065 0.129 90-0.387 91.82-0.533 1.879-2.947 4.881-5.655 7.035-3.456 2.748-22.948 15.601-25.095 16.548-1.825 0.805-3.289 0.608-3.8-0.513zM453.91 377.018c-3.287-5.352-5.259-7.428-12.734-13.409-6.282-5.026-18.289-14.418-21.665-16.947-0.563-0.422-3.022-2.357-5.467-4.301-3.95-3.142-4.491-3.717-4.87-5.172-0.964-3.705-0.741-4.791 1.505-7.31 9.135-10.25 24.381-13.752 37.505-8.613 5.602 2.193 9.979 5.397 13.703 10.026 3.856 4.793 6.013 9.905 7.189 17.033 0.702 4.252 0.614 10.503-0.185 13.142-0.232 0.77-2.231 4.097-4.438 7.395s-4.013 6.090-4.013 6.208c0 0.118-0.706 1.057-1.568 2.086-2.195 2.623-3.287 2.592-4.963-0.138zM557.258 377.489c-0.889-0.548-4.426-6.863-11.361-20.293-1.655-3.204-1.652-3.069-0.175-8.811 0.969-3.763 2.959-8.931 3.846-9.989 0.279-0.332 0.508-0.737 0.508-0.9 0-0.573 4.247-6.31 6.037-8.157 6.915-7.133 16.882-10.935 27.069-10.325 9.261 0.553 17.205 4.539 23.299 11.69 1.526 1.79 1.818 2.386 1.812 3.684-0.005 0.852-0.335 2.269-0.735 3.149-0.668 1.472-1.1 1.788-5.357 3.925-10.286 5.16-18.006 10.746-25.458 18.419-4.189 4.313-9.174 10.59-12.195 15.351-0.747 1.176-1.592 2.165-1.882 2.199-3.473 0.397-4.837 0.412-5.41 0.059zM324.267 347.158c-2.135-0.745-3.1-2.044-3.861-5.211-1.335-5.538-0.67-15.015 1.36-19.418 0.194-0.422 0.728-1.62 1.185-2.666 0.879-2.006 3.672-6.167 5.645-8.415 2.007-2.286 6.585-5.565 10.209-7.313 3.963-1.911 6.607-2.657 11.535-3.253 7.38-0.891 16.149 1.235 22.259 5.399 2.514 1.715 6.782 5.836 8.673 8.38 2.13 2.863 4.987 8.581 5.813 11.633 0.787 2.906 0.457 4.339-1.253 5.46-1.332 0.874-7.896 1.659-14.065 1.685-2.738 0.011-6.013 0.245-7.278 0.522s-7.469 2.497-13.79 4.935c-6.321 2.44-13.732 5.233-16.471 6.209s-5.376 1.939-5.859 2.143c-1.1 0.461-2.61 0.427-4.099-0.091zM684.337 344.909c-4.833-2.792-13.216-6.519-18.387-8.176-7.063-2.262-15.554-3.535-26.212-3.93l-6.676-0.246-1.453-1.312c-1.85-1.672-2.145-3.141-1.309-6.518 1.993-8.052 8.592-15.968 16.892-20.264 11.382-5.888 25.878-4.729 35.803 2.863 8.273 6.328 12.773 14.16 13.743 23.92 0.558 5.607-0.556 13.117-2.163 14.569-0.996 0.902-3.338 1.811-4.579 1.778-0.586-0.015-3.134-1.223-5.663-2.682z"></path>
    </svg>