<svg xmlns="http://www.w3.org/2000/svg" viewBox="-6.543 80.003 1047.086 863.994">
    <path fill="#000000" d="M74.247 863.734l-0.79-0.152v-703.578h114.834l0.225 1.632c0.124 0.896 0.225 158.903 0.225 351.125v349.495l-1.725 1.725-55.985-0.049c-30.794-0.027-56.342-0.115-56.776-0.201zM194.932 863.256l-0.927-0.73v-349.629c0-192.295 0.101-350.364 0.225-351.26l0.225-1.632h159.469v45.162c0 44.262 0.015 45.176 0.684 45.845 0.377 0.377 1.204 0.775 1.844 0.89s73.397 0.161 161.682 0.106l160.52-0.1 1.6-1.6v-90.305h159.306l0.302 0.79c0.167 0.435 0.344 157.704 0.393 350.958l0.093 350.168-2.078 2.078-16.173-0.098c-14.979-0.092-16.219-0.145-16.8-0.726-0.599-0.599-0.632-5.142-0.718-99.703l-0.090-99.075-0.924-0.727c-0.509-0.401-1.286-0.727-1.729-0.727s-1.27-0.39-1.836-0.868c-1.192-1.002-1.084-0.309-2.183-14.42-1.523-19.541-2-22.844-4.735-32.667-5.428-19.505-9.696-28.286-17.605-36.218-5.65-5.67-9.584-7.749-14.565-7.705-3.719 0.036-5.701 0.759-10.207 3.728-9.344 6.155-16.371 17.242-20.903 32.988-1.438 4.999-4.119 17.055-4.883 21.956-0.691 4.444-1.248 14.324-1.256 22.349-0.010 9.594-0.377 10.856-3.144 10.856-0.808 0-1.688 0.269-2.183 0.672l-0.83 0.672-0.176 99.13c-0.169 94.55-0.203 99.159-0.803 99.758-0.584 0.584-1.904 0.633-18.804 0.731-9.996 0.058-18.683 0.010-19.308-0.103s-1.372-0.446-1.668-0.742c-0.481-0.481-0.538-17.704-0.538-164.567 0-153.5-0.038-164.085-0.595-164.898-0.797-1.166-1.161-1.384-2.321-1.391-0.555-0.005-1.338-0.362-1.802-0.825-0.911-0.911-0.808 0.452-1.617-21.675-0.793-21.73-1.131-25.558-3.344-37.781-0.665-3.672-1.527-8.867-1.919-11.542-1.094-7.515-3.712-17.127-9.245-33.973-3.882-11.814-5.956-16.979-10.301-25.657-14.641-29.243-35.149-52.161-59.989-67.042-12.080-7.235-28.44-14.408-39.11-17.143-8.855-2.271-24.578-4.734-30.223-4.734-6.382 0-31.272 5.802-42.014 9.793-23.927 8.889-45.783 24.421-62.386 44.334-15.458 18.54-29.259 45.168-35.318 68.139-0.592 2.249-2.164 8.119-3.492 13.049-5.321 19.739-6.654 28.187-7.87 49.908-0.995 17.758-1.306 26.2-1.092 29.522 0.296 4.559 0.020 5.062-2.852 5.198-1.633 0.080-2.304 0.277-2.802 0.829-0.636 0.704-0.66 5.34-0.83 165.378l-0.176 164.652-0.841 0.68c-0.81 0.656-1.482 0.676-19.056 0.584-16.942-0.091-18.256-0.14-18.84-0.724-0.599-0.599-0.632-5.14-0.718-99.703l-0.090-99.075-0.924-0.727c-0.509-0.401-1.355-0.727-1.879-0.727s-1.349-0.367-1.831-0.812c-1.039-0.962-0.907 0.038-2.55-19.090-1.501-17.453-1.92-19.648-6.929-36.156-2.451-8.082-3.579-11.063-5.822-15.411-4.191-8.122-11.976-16.483-18.016-19.354-2.058-0.976-2.616-1.083-5.624-1.083-2.81 0.005-3.69 0.148-5.546 0.929-10.808 4.537-18.859 14.966-24.502 31.751-1.826 5.428-5.97 23.205-6.516 27.942-0.212 1.836-0.74 9.153-1.173 16.26-0.72 11.752-0.855 13.007-1.509 13.883-0.497 0.665-1.138 1.019-2.085 1.149-1.848 0.254-2.161 0.5-2.584 2.020-0.246 0.883-0.363 33.103-0.365 99.424l-0.004 98.121-0.927 0.73c-0.907 0.711-1.271 0.73-16.824 0.73s-15.917-0.016-16.824-0.73zM846.125 863.118l-0.863-0.863 0.090-350.508c0.049-193.754 0.225-350.783 0.39-351.123 0.285-0.582 3.376-0.615 57.552-0.615h57.249v702.858l-1.644 0.56c-1.479 0.502-7.246 0.56-56.776 0.56h-55.133zM361.431 246.406c-0.412-0.201-0.928-0.751-1.141-1.224-0.28-0.613-0.39-11.251-0.39-37.24 0-36.305 0.002-36.385 0.745-38.118 0.412-0.953 0.86-1.733 0.997-1.733 0.948 0 2.487 3.705 6.132 14.761 2.198 6.67 4.103 12.622 4.23 13.23 0.489 2.323 0.824 2.409 9.281 2.409 8.178 0 9.366-0.203 10.405-1.787 0.302-0.46 1.412-3.965 2.464-7.783 3.212-11.651 6.055-20.043 6.958-20.551 1.074-0.601 5.725-0.46 6.739 0.204 1.090 0.713 1.778 2.598 5.614 15.329 4.339 14.411 4.087 13.689 4.922 14.162 0.467 0.263 3.36 0.454 8.105 0.533 8.712 0.145 9.917-0.089 10.587-2.040 1.754-5.138 4.273-13.198 5.896-18.87 1.96-6.847 2.558-8.424 3.507-9.212 0.291-0.241 1.726-0.531 3.19-0.642 2.249-0.17 2.767-0.104 3.36 0.431 0.743 0.675 2.128 4.71 5.609 16.34 1.184 3.964 2.557 8.433 3.048 9.937 1.27 3.885 1.319 3.905 10.132 4.064 7.551 0.137 9.252-0.105 10.105-1.435 0.552-0.858 2.722-7.756 5.537-17.587 2.249-7.857 2.964-9.768 4.032-10.774 0.758-0.711 1.127-0.786 3.325-0.663 2.964 0.169 4.064 0.837 5.245 3.195 0.45 0.896 2.311 6.821 4.132 13.161 4.009 13.949 3.779 13.584 8.799 14.003 1.715 0.143 5.144 0.17 7.622 0.060 4.126-0.182 4.603-0.276 5.681-1.097 1.326-1.013 2.238-3.47 5.424-14.615 2.612-9.14 3.86-13.070 4.433-13.942 1.014-1.545 4.358-1.705 6.706-0.316 2.216 1.31 3.137 3.536 6.973 16.896 1.222 4.251 2.417 8.482 2.657 9.399 0.514 1.96 1.685 3.259 3.207 3.562 0.6 0.12 4.005 0.218 7.562 0.218 6.982 0 8.398-0.274 9.369-1.816 0.284-0.451 2.128-6.275 4.097-12.945s3.84-12.743 4.155-13.495c0.741-1.764 2.227-2.667 4.385-2.67 3.557-0.004 4.986 1.336 6.033 5.647 0.324 1.338 1.457 4.907 2.512 7.928s2.413 7.461 3.013 9.861c1.127 4.496 2.007 6.307 3.404 7.001 0.536 0.269 3.352 0.387 8.486 0.357 9.245-0.052 8.871 0.126 10.346-4.889 0.523-1.779 2.125-7.034 3.555-11.672s2.769-9.11 2.975-9.934c0.786-3.129 3.525-4.939 6.704-4.429 2.891 0.463 3.041 0.767 6.819 14.012 3.694 12.951 4.348 14.789 5.681 16.043 0.863 0.808 1.017 0.827 8.32 0.863 4.092 0.019 7.947-0.108 8.564-0.285 0.941-0.269 1.241-0.632 1.844-2.247 0.396-1.060 0.72-2.061 0.72-2.226s1.413-4.705 3.141-10.092c1.729-5.384 3.526-11.137 3.998-12.777 0.716-2.501 0.962-2.968 1.513-2.87 0.362 0.064 0.775 0.228 0.918 0.368s0.268 17.483 0.274 38.543l0.014 38.296-1.819 1.58-155.062-0.025c-106.032-0.016-155.302-0.137-155.813-0.388z"></path>
    </svg>