<svg xmlns="http://www.w3.org/2000/svg" viewBox="-58.301 47.750 1154.642 932.487">
    <path fill="#000000" d="M21.699 658.732v-237.268l55.567 0.102c141.927 0.262 144.251 0.277 145.397 0.868 0.595 0.306 1.29 1.010 1.542 1.56 0.659 1.446 0.652 468.457-0.006 469.902-0.256 0.559-0.949 1.215-1.542 1.454-0.744 0.301-31.924 0.467-101.017 0.542l-99.941 0.106v-237.268zM178.511 850.767c0.638-0.474 1.381-1.491 1.65-2.261 0.369-1.054 0.497-14.286 0.513-53.694 0.025-56.116 0.106-53.866-2.018-55.759-0.906-0.807-1.503-0.822-32.471-0.822s-31.566 0.017-32.471 0.822c-2.034 1.812-1.962-0.106-2.011 55.767-0.049 55.921-0.11 54.117 1.866 55.842 0.426 0.372 1.146 0.769 1.598 0.882s14.628 0.178 31.504 0.145c30.45-0.060 30.69-0.066 31.842-0.919zM178.204 647.328c0.581-0.426 1.377-1.407 1.772-2.18 0.674-1.32 0.716-4.707 0.696-53.791-0.018-39.47-0.143-52.734-0.512-53.802-1.038-3.002 0.655-2.856-33.882-2.917-29.626-0.054-30.965-0.022-32.243 0.723-0.809 0.471-1.53 1.338-1.826 2.194-0.638 1.842-0.754 104.975-0.122 107.253 0.535 1.929 1.538 2.79 3.671 3.154 0.954 0.162 15.159 0.26 31.564 0.218 28.47-0.076 29.874-0.114 30.882-0.851zM249.669 895.014l-0.977-0.789-0.108-84.159c-0.078-61.911 0.016-84.457 0.356-85.287 0.318-0.772 0.938-1.266 1.957-1.56s18.306-0.393 54.582-0.309l53.092 0.123 1.871 1.871 0.124 82.468c0.066 45.356 0.010 83.417-0.126 84.579s-0.5 2.454-0.81 2.875c-0.54 0.738-2.442 0.769-54.774 0.871-52.959 0.104-54.236 0.090-55.191-0.682zM385.837 895.38c-0.573-0.232-1.062-0.954-1.338-1.985-0.304-1.123-0.402-27.155-0.33-85.056l0.106-83.436 1.872-1.871 131.829-0.104c72.507-0.057 132.525 0.041 133.376 0.216 0.969 0.201 1.866 0.75 2.406 1.47l0.858 1.148v83.271c0 45.798-0.14 83.776-0.315 84.392-0.715 2.562 10.11 2.371-135.144 2.345-75.784-0.017-132.804-0.182-133.321-0.39zM494.28 874.085c0.62-0.251 1.5-1.062 1.951-1.803 0.814-1.333 0.822-1.953 0.719-66.558l-0.102-65.214-2.278-2.278h-63.644l-2.278 2.278-0.206 63.57c-0.114 34.962-0.1 64.454 0.030 65.533 0.294 2.462 1.481 4.079 3.374 4.611 2.13 0.596 60.938 0.466 62.435-0.138zM607.481 873.755c0.616-0.45 1.442-1.455 1.837-2.228 0.676-1.325 0.716-5.258 0.696-65.298-0.018-48.371-0.141-64.237-0.512-65.325-0.332-0.978-0.952-1.67-1.927-2.161-1.339-0.674-3.556-0.714-32.526-0.618l-31.088 0.106-1.062 0.997c-0.582 0.547-1.243 1.658-1.47 2.466-0.599 2.156-0.558 126.447 0.042 128.831 0.514 2.043 1.35 2.952 3.338 3.636 0.998 0.342 9.716 0.465 31.47 0.443 29.394-0.030 30.114-0.051 31.206-0.851zM680.075 895.405c-2.177-0.888-2.033 4.832-2.146-85.34-0.118-92.873-0.33-85.973 2.642-86.798 2.199-0.61 104.896-0.61 107.093 0 2.97 0.824 2.76-6.078 2.642 86.849l-0.106 83.6-1.871 1.871-53.706 0.078c-29.538 0.042-54.084-0.075-54.545-0.262zM815.464 895.263c-0.608-0.306-1.237-1.158-1.542-2.085-0.412-1.252-0.495-48.666-0.412-234.808 0.1-221.343 0.14-233.296 0.822-234.34 1.504-2.295-5.027-2.154 99.941-2.154 53.554 0 98.068 0.148 98.916 0.328 0.988 0.21 1.803 0.722 2.261 1.421 0.678 1.036 0.722 13.374 0.828 234.064 0.063 128.134-0.006 233.693-0.15 234.579s-0.695 2.039-1.224 2.568l-0.962 0.962-98.727-0.006c-78.7-0.006-98.933-0.112-99.752-0.524zM925.029 850.764c0.638-0.475 1.375-1.586 1.641-2.466 0.63-2.082 0.756-104.361 0.134-106.602-0.223-0.809-0.884-1.916-1.47-2.466l-1.062-0.997-31.197-0.111c-34.662-0.123-33.117-0.239-34.301 2.589-0.496 1.183-0.582 9.443-0.56 54.102 0.018 39.704 0.144 53.058 0.513 54.143 0.332 0.978 0.952 1.67 1.927 2.161 1.338 0.674 3.546 0.714 32.324 0.618 30.683-0.105 30.894-0.113 32.046-0.971zM924.202 647.558c0.601-0.294 1.48-1.058 1.95-1.697l0.858-1.159v-53.071c0-57.689 0.102-55.137-2.263-56.361-0.932-0.484-6.291-0.589-31.957-0.634-33.93-0.060-32.554-0.162-33.878 2.487-0.673 1.347-0.718 4.788-0.719 54.142 0 55.669-0.042 54.399 1.806 55.931 0.386 0.319 1.364 0.69 2.178 0.822s14.852 0.204 31.205 0.161c23.479-0.065 29.958-0.193 30.822-0.618zM513.076 708.47c-144.054-0.126-262.2-0.373-262.542-0.546-1.635-0.826-1.772-1.794-1.815-12.626-0.021-5.763 0.11-11.071 0.293-11.801s0.736-1.605 1.23-1.95c0.803-0.562 28.937-0.63 267.841-0.63 199.939 0 267.203 0.118 267.976 0.472 1.521 0.692 1.804 2.192 1.994 10.622 0.337 14.887-0.53 16.54-8.729 16.638-2.382 0.030-122.19-0.053-266.247-0.178zM251.643 666.146c-0.862-0.17-1.878-0.618-2.261-1-0.643-0.643-0.704-11.826-0.895-166.146-0.163-132.497-0.308-165.638-0.726-166.366-0.927-1.62-3.165-1.886-13.279-1.575l-9.282 0.285 0.143-15.746c0.222-24.534 0.296-26.395 1.089-27.606 0.403-0.618 1.35-1.228 2.294-1.482 1.103-0.296 25.057-0.399 76.541-0.324 70.412 0.102 75.001 0.15 76.025 0.822 0.636 0.415 1.27 1.361 1.519 2.261 0.258 0.93 0.432 7.097 0.438 15.513 0.006 10.578 0.138 14.218 0.537 14.995 0.894 1.734 2.664 1.302 9.255-2.251 14.73-7.95 33.061-15.401 49.037-19.936 6.456-1.832 7.847-2.461 8.852-3.994 0.672-1.026 0.738-3.619 0.93-36.678 0.231-39.851 0.018-37.309 3.18-38.188 2.070-0.575 12.833-0.552 15.152 0.032 2.979 0.75 3.075 1.082 3.162 10.974 0.076 8.526 0.088 8.638 1.075 9.69 0.55 0.585 1.661 1.221 2.466 1.412s20.243 0.326 43.194 0.296c39.327-0.049 41.794-0.093 42.849-0.786 0.618-0.402 1.281-1.14 1.48-1.638s0.522-4.67 0.717-9.272c0.414-9.636 0.33-9.44 4.549-10.386 2.982-0.666 13.942-0.659 15.198 0.011 1.985 1.062 1.931 0.126 2.15 38.347 0.182 31.83 0.281 36.114 0.843 36.676 0.351 0.351 3.062 1.55 6.024 2.665 13.018 4.902 25.675 10.074 46.38 18.952 6.801 2.917 12.741 5.303 13.2 5.303 1.89 0 1.949-0.438 2.173-16.806 0.116-8.496 0.357-15.745 0.534-16.11 0.915-1.875-2.142-1.805 78.095-1.805 59.508 0 75.827 0.109 76.529 0.51 0.49 0.282 1.077 1.112 1.305 1.849 0.246 0.793 0.479 9.778 0.573 22.039l0.16 20.703-9.534-0.203c-10.445-0.222-11.757-0.018-12.506 1.949-0.268 0.702-0.41 57.658-0.414 165.283-0.006 129.509-0.114 164.419-0.513 165.198-0.28 0.544-1.029 1.374-1.667 1.849l-1.159 0.86h-105.881l-1.159-0.86c-0.639-0.474-1.387-1.305-1.667-1.849-0.402-0.778-0.51-35.658-0.513-165.033-0.006-180.48 0.208-166.402-2.535-167.213-0.756-0.222-5.116-0.382-9.686-0.354l-8.31 0.054-2.278 2.277-0.206 31.133c-0.192 29.101-0.254 31.206-0.945 32.262-0.407 0.62-1.24 1.321-1.849 1.554-0.72 0.275-11.775 0.45-31.53 0.496-28.548 0.066-30.49 0.116-31.552 0.81-1.859 1.218-2.106 2.371-2.082 9.738 0.018 5.961 0.126 7.012 0.882 8.702 1.617 3.619-0.511 3.39 33.594 3.63 32.73 0.23 31.696 0.148 32.738 2.616 0.444 1.050 0.542 22.668 0.542 119.813 0 65.191-0.141 119.036-0.316 119.657s-0.811 1.45-1.421 1.849c-1.050 0.689-7.746 0.726-133.624 0.726-106.21 0-132.7-0.102-133.429-0.522-0.51-0.294-1.098-1.218-1.338-2.111-0.294-1.090-0.395-38.898-0.321-120.269 0.114-128.242-0.042-120.020 2.287-121.061 0.822-0.367 8.79-0.51 31.302-0.558 20.39-0.042 30.565-0.206 31.326-0.503 0.62-0.243 1.498-1.047 1.95-1.786 0.745-1.221 0.822-2.074 0.822-9.269 0-8.933-0.306-10.369-2.365-11.086-0.797-0.278-11.867-0.445-31.726-0.48-32.394-0.057-32.201-0.046-33.135-1.962-0.198-0.402-0.45-14.694-0.563-31.754-0.226-34.167-0.064-32.219-2.814-33.525-1.17-0.557-2.694-0.63-9.864-0.484-4.663 0.096-8.79 0.314-9.167 0.485s-0.84 0.618-1.026 0.997c-0.186 0.378-0.432 75.010-0.546 165.849-0.164 132.665-0.307 165.341-0.727 166.077-1.166 2.038 1.038 1.957-54.532 2.022-28.698 0.032-52.884-0.078-53.747-0.247zM494.688 647.599c2.48-1.026 2.366 1.731 2.366-56.458 0-58.17 0.125-55.169-2.307-56.093-1.616-0.616-62.698-0.522-64.059 0.098-2.358 1.074-2.241-1.854-2.25 55.934-0.006 30.529 0.15 53.6 0.361 54.155 0.553 1.446 1.927 2.504 3.606 2.778 0.822 0.134 14.897 0.21 31.273 0.171 22.669-0.054 30.070-0.196 31.011-0.583zM607.841 647.431c2.314-1.518 2.218 1.083 2.101-56.934l-0.109-53.442-2.682-2.397h-31.24c-35.040 0-33.064-0.172-34.254 2.97-0.602 1.59-0.654 6.72-0.55 54.343 0.104 48.628 0.166 52.686 0.812 53.866 0.729 1.333 2.139 2.098 4.23 2.3 0.678 0.066 14.603 0.087 30.944 0.044 26.825-0.066 29.814-0.138 30.746-0.75zM526.623 421.204c6.556-0.93 14.178-4.163 19.95-8.459 19.542-14.543 24.050-41.55 10.339-61.943-2.478-3.687-8.274-9.438-12.042-11.953-21.671-14.454-50.833-8.266-64.674 13.723-4.541 7.214-6.546 14.354-6.556 23.347-0.022 19.103 10.383 34.975 27.917 42.585 7.387 3.207 15.409 4.070 25.066 2.697zM314.919 375.898l1.153-0.99 0.126-9.054c0.179-13.023 0.366-12.807-11.103-12.776-8.043 0.019-10.302 0.33-11.562 1.59-0.857 0.857-0.878 1.146-0.782 10.578 0.102 10.098 0.178 10.537 1.94 11.25 0.461 0.186 4.938 0.351 9.954 0.366 9.063 0.027 9.126 0.019 10.271-0.966zM744.682 375.952c0.654-0.654 0.747-1.762 0.858-10.146 0.142-10.812-0.023-11.57-2.694-12.311-1.902-0.528-14.906-0.553-17.154-0.031-3.021 0.701-3.081 0.926-3.081 11.586 0 9.819 0.147 10.764 1.772 11.441 0.494 0.205 5.097 0.332 10.23 0.284 8.336-0.078 9.412-0.165 10.065-0.822zM37.651 398.176l-1.506-0.402 0.854-1.506c0.47-0.83 14.541-15.228 31.272-31.998 25.214-25.274 30.774-30.652 32.495-31.431l2.077-0.942 122.354-0.22-0.222 31.802c-0.24 34.202-0.197 33.551-2.368 34.65-0.799 0.404-7.732 0.522-31.349 0.525-32.298 0.006-32.063 0.019-32.996-1.93-0.194-0.402-0.448-9.834-0.563-20.959l-0.21-20.226-2.25-2.249-8.324-0.069c-9.457-0.078-10.755 0.162-11.961 2.238-0.757 1.302-0.798 2.154-0.714 15.395 0.047 7.71-0.044 16.608-0.206 19.773-0.282 5.563-0.33 5.792-1.432 6.894l-1.138 1.138-46.149-0.042c-28.59-0.027-46.722-0.196-47.658-0.444zM816.001 398.253c-0.496-0.201-1.234-0.877-1.643-1.499-0.823-1.256-0.834-1.686-1.050-44.414l-0.103-20.646h59.21c37.938 0 60.006 0.15 61.422 0.414 1.218 0.227 3.382 0.986 4.813 1.686 2.332 1.14 5.66 4.348 32.244 31.050 26.874 26.994 31.086 31.362 31.097 32.25 0 0.15-0.883 0.57-1.968 0.93-1.764 0.585-6.786 0.642-47.852 0.546l-45.882-0.108-1.871-1.87-0.206-20.43c-0.212-21.171-0.265-21.772-1.939-22.498-0.402-0.174-4.432-0.402-8.955-0.505-9.12-0.209-10.566 0.059-11.979 2.214-0.693 1.059-0.766 2.67-0.955 21.183l-0.206 20.036-1.871 1.87-30.701 0.080c-17.272 0.045-31.094-0.078-31.602-0.285zM228.472 262.48c-0.849-0.371-1.422-0.973-1.601-1.686-0.668-2.665 0.846-16.052 2.954-26.106 4.061-19.362 10.691-35.466 20.622-50.073 10.976-16.147 21.498-25.033 36.042-30.438 7.056-2.622 6.976-2.466 6.829-13.164-0.066-4.944 0.066-8.71 0.342-9.742 0.76-2.817 1.196-2.946 10.114-2.946 4.806 0 8.38 0.182 9.198 0.466 2.189 0.762 2.48 2.070 2.49 11.128 0.013 11.272 0.326 11.816 8.682 15.152 13.893 5.546 24.592 14.84 34.556 30.028 11.73 17.876 18.666 37.025 22.44 61.962 1.698 11.214 1.614 13.825-0.478 15.212-1.347 0.894-150.161 1.096-152.194 0.208zM658.521 262.546c-2.25-0.768-2.562-2.292-1.854-8.994 2.31-21.795 7.281-39.13 16.177-56.41 7.291-14.166 15.187-24.51 24.396-31.961 6.365-5.149 10.878-7.794 19.392-11.359 4.374-1.831 4.528-1.94 5.547-3.919 0.997-1.935 1.060-2.447 1.254-10.343l0.206-8.309 1.197-1.249c1.782-1.856 3.44-2.252 7.806-1.866 2.054 0.184 5.123 0.288 6.822 0.234 2.87-0.092 3.16-0.023 4.11 0.987 1.006 1.072 1.026 1.212 1.242 9.99 0.198 8.058 0.305 9.064 1.098 10.576 1.122 2.132 1.35 2.298 5.047 3.666 4.678 1.73 12.078 5.67 16.427 8.752 7.594 5.378 16.41 15.12 22.398 24.756 9.497 15.279 15.918 32.106 19.671 51.546 2.346 12.151 3.213 20.706 2.277 22.454-1.111 2.080 2.214 1.995-77.501 1.97-56.418-0.018-74.621-0.14-75.712-0.513z"></path>
    </svg>