<svg xmlns="http://www.w3.org/2000/svg" viewBox="101.007 -48.002 796.323 1119.991">
    <path fill="#000000" d="M191.516 991.633c-0.125-0.202-0.206-61.922-0.181-137.156 0.034-99.563-0.067-137.392-0.367-139.002-0.851-4.559-2.592-8.725-5.047-12.077-1.379-1.882-1.415-2.009-1.366-4.89 0.027-1.627 0.641-7.108 1.364-12.181 2.257-15.84 2.217-14.752 2.247-61.069l0.028-42.622-0.942-1.833c-1.028-2.001-3.523-4.153-5.2-4.489-0.578-0.115-1.045-0.397-1.039-0.625s1.211-1.372 2.675-2.542c1.463-1.169 3.409-2.791 4.322-3.604s2.573-2.178 3.689-3.034c3.958-3.037 5.613-4.522 6.115-5.495 0.485-0.937 1.889-9.052 6.057-34.997 1.027-6.392 2.605-16.188 3.507-21.768s2.402-14.961 3.333-20.845c0.931-5.885 2.503-15.763 3.492-21.952s2.548-15.984 3.464-21.768c3.12-19.709 5.338-33.745 7.054-44.643 0.943-5.986 2.54-16.114 3.548-22.506s2.579-16.354 3.49-22.137c0.911-5.783 2.473-15.662 3.471-21.952s2.167-13.762 2.598-16.602c0.43-2.841 0.961-5.889 1.177-6.775 0.787-3.215 0.352-5.82 8.235 49.388 2.535 17.755 5.174 36.185 5.864 40.953s2.029 14.066 2.975 20.661c0.945 6.595 2.457 17.045 3.361 23.223s1.88 12.984 2.169 15.127c0.501 3.696 2.692 18.745 6.799 46.693 1.013 6.899 2.587 17.608 3.496 23.797s1.843 13.743 2.076 16.787c0.508 6.652 1.485 12.532 2.553 15.365 1.734 4.603 5.61 9.21 9.872 11.734 3.452 2.045 5.762 4.182 6.857 6.348 2.241 4.428 0.818 7.717-4.597 10.636-2.088 1.125-2.097 1.138-2.355 3.203-0.142 1.141-0.183 12.678-0.090 25.638l0.169 23.564 1.021 1.066c1.889 1.972 6.034 1.905 9.008-0.144 1.365-0.941 2.093-1.896 3.619-4.747 1.050-1.963 2.911-5.13 4.134-7.038 2.563-3.996 3.584-5.944 5.139-9.806 0.613-1.522 1.79-4.203 2.614-5.959 4.262-9.070 5.296-12.563 5.288-17.871-0.004-3.024-0.181-4.227-0.943-6.419-0.857-2.465-0.893-2.804-0.421-3.934l0.517-1.237h13.769l-0.203 0.83c-0.112 0.457-0.55 2.543-0.974 4.637-0.818 4.041-0.765 5.184 0.391 8.369 0.368 1.014 1.767 5 3.109 8.855s3.447 9.832 4.678 13.282c1.232 3.45 2.975 8.347 3.875 10.884 1.154 3.255 1.976 4.965 2.792 5.811 0.636 0.659 1.331 1.199 1.545 1.198s1.136-0.645 2.049-1.432l1.66-1.432 0.108-21.534c0.059-11.844 0.012-21.918-0.105-22.387s-0.848-1.548-1.625-2.398c-1.532-1.677-4.102-6.139-4.997-8.676-0.445-1.263-0.48-1.955-0.167-3.411 0.418-1.951 0.821-2.316 2.992-2.707 1.905-0.344 3.526-1.804 3.836-3.456 0.139-0.742 0.269-6.448 0.29-12.682l0.037-11.334 1.084-1.132c0.596-0.622 1.425-1.132 1.842-1.132s3.72 1.014 7.341 2.255l6.582 2.255 6.149 0.31c7.513 0.379 29.392 0.434 39.385 0.099l7.343-0.246 2.034-2.034v-138.519l-1.644-6.622 1.468-1.253c0.807-0.69 3.434-2.62 5.837-4.291 8.841-6.147 12.204-8.638 12.877-9.539 0.734-0.982 1.206-3.66 4.669-26.518 2.1-13.861 6.146-42.174 6.512-45.565l0.239-2.213-2.249-2.757c-1.237-1.516-2.249-2.868-2.249-3.004s-0.747-1.576-1.66-3.2c-0.913-1.624-1.66-3.124-1.66-3.333 0-0.593 3.873-2.547 7.932-4.001 4.113-1.474 6.123-2.412 6.726-3.141 0.553-0.669 8.381-40.855 14.828-76.122 6.147-33.631 14.535-81.64 16.049-91.867 0.301-2.029 1.128-7.508 1.838-12.175 2.934-19.267 4.783-35.1 4.567-39.109-0.33-6.142-2.399-7.522-12.424-8.285-2.713-0.206-5.171-0.573-5.463-0.815-1.167-0.969-1.632-2.463-1.23-3.956 0.693-2.572 1.522-3.244 4.339-3.517 5.293-0.514 8.102-1.040 9.914-1.857 1.557-0.702 2.034-1.159 2.767-2.647 0.841-1.709 0.892-2.212 1.012-10.192l0.127-8.393h13.159l0.262 2.1c0.144 1.155 0.127 4.019-0.038 6.365-0.626 8.871-0.156 11.435 2.461 13.39 2.062 1.541 3.715 1.877 8.197 1.664l4.061-0.192 3.962 3.747-1.799 1.799c-2.248 2.248-3.141 2.467-10.085 2.479-4.889 0.008-5.482 0.081-6.365 0.773l-0.972 0.765v12.25c0 6.738 0.172 13.657 0.383 15.377 0.398 3.248 0.59 4.374 3.696 21.758 4.087 22.879 5.678 31.688 10.499 58.109 0.889 4.87 2.463 13.504 3.499 19.185s2.613 14.315 3.505 19.185c4.333 23.652 8.154 44.719 10.508 57.924 3.193 17.916 3.567 19.663 4.681 21.891 1.523 3.046 3.21 4.093 7.364 4.572 3.037 0.351 7.048 1.811 7.651 2.785 0.103 0.167-0.402 1.042-1.123 1.945-2.214 2.774-5.347 7.057-6.121 8.37-0.637 1.080-0.702 1.627-0.482 4.085 0.326 3.655 5.174 36.679 8.9 60.633 0.905 5.813 1.644 10.747 1.644 10.963s0.513 0.978 1.14 1.692c0.946 1.078 1.777 1.492 4.888 2.431 8.127 2.455 10.552 3.863 12.009 6.972l0.963 2.052 0.185 73.605c0.153 60.833 0.271 73.732 0.681 74.343 1.422 2.113 0.882 2.048 18.782 2.266 9.080 0.111 19.498 0.042 23.151-0.152l6.641-0.352 4.066-1.686c4.848-2.010 7.786-2.584 13.44-2.627l4.223-0.032 0.332 1.291c0.183 0.711 0.441 6.453 0.573 12.761l0.241 11.47 1.965 2.149c1.081 1.182 2.632 2.632 3.448 3.224 1.348 0.977 1.462 1.186 1.254 2.296-0.634 3.377-3.817 9.727-5.534 11.036l-1.319 1.006v22.983c0 25.545-0.219 23.35 2.472 24.713 1.6 0.81 2.427 0.752 3.306-0.232 0.883-0.99 6.175-14.509 8.63-22.044 0.958-2.943 2.189-6.512 2.735-7.932 3.371-8.775 4.139-12.353 3.503-16.331-0.217-1.36-0.719-3.204-1.115-4.099-1.169-2.643-0.967-2.721 6.708-2.572 3.595 0.069 6.642 0.232 6.772 0.362s-0.189 2.449-0.708 5.153c-0.518 2.706-0.942 5.27-0.942 5.697 0 0.684 1.664 4.447 10.6 23.963 1.115 2.435 3.907 8.287 6.202 13.005 3.536 7.264 4.335 8.641 5.216 8.993 0.572 0.229 2.715 0.499 4.762 0.6l3.721 0.184 0.522-1.798c0.427-1.47 0.518-6.136 0.504-25.596-0.020-27.397 0.163-25.863-3.272-27.487-4.123-1.951-5.147-4.465-3.337-8.199 1.033-2.132 4.078-5.388 12.097-12.936 1.787-1.682 3.467-3.591 3.734-4.243s0.685-2.679 0.928-4.506c0.433-3.247 1.852-13.078 5.539-38.371 1.006-6.899 2.594-17.857 3.529-24.351s2.43-16.787 3.321-22.875c0.892-6.087 2.619-18.041 3.841-26.564s3.474-24.129 5.007-34.681c1.533-10.552 3.106-21.51 3.495-24.351s1.967-13.799 3.505-24.351c1.538-10.552 3.034-20.929 3.322-23.059s1.192-8.439 2.009-14.020c0.817-5.58 1.743-11.972 2.060-14.204 0.735-5.182 0.97-6.52 1.121-6.369 0.14 0.14 1.258 6.92 3.668 22.234 0.926 5.885 2.498 15.847 3.494 22.137s2.581 16.335 3.523 22.321c0.942 5.986 2.513 15.948 3.493 22.137s2.554 16.15 3.498 22.137c0.945 5.986 2.521 15.948 3.502 22.137s2.558 16.15 3.502 22.137c0.945 5.986 2.527 15.948 3.517 22.137s2.561 16.068 3.492 21.952c0.931 5.885 2.432 15.265 3.336 20.845s2.478 15.376 3.499 21.768c1.021 6.392 1.951 12.195 2.067 12.896 0.525 3.165 3.1 6.559 7.113 9.37 5.112 3.584 6.893 6.374 5.95 9.323-0.251 0.787-0.839 2.178-1.304 3.091l-0.847 1.66-0.202 41.137c-0.111 22.637-0.051 44.29 0.133 48.147 0.224 4.701 0.709 9.259 1.47 13.836 1.497 8.996 1.756 13.642 0.986 17.69-0.669 3.517-2.597 7.892-4.501 10.216l-1.276 1.557 0.19 278.977h-309.617c-205.022 0-309.694-0.124-309.844-0.367zM376.634 970.849c0.613-0.662 0.646-10.687 0.646-199.728 0-123.547-0.131-199.276-0.347-199.678-0.191-0.356-1.012-1.11-1.827-1.673l-1.48-1.026-1.109 0.789c-0.609 0.434-1.447 1.221-1.863 1.747l-0.754 0.958v397.74l3.861 3.548 1.114-0.991c0.612-0.545 1.404-1.305 1.76-1.688zM547.254 972.831c2.509-1.53 2.357 1.613 2.227-46.042-0.114-42.281-0.131-43.121-0.88-45.685-2.872-9.832-11.327-17.227-25.448-22.259-7.108-2.533-11.185-3.149-20.801-3.145-6.957 0.004-9.018 0.135-12.728 0.816-10.22 1.875-19.252 5.077-24.535 8.696-3.116 2.136-6.471 5.959-8.234 9.385-1.972 3.832-2.684 6.091-3.401 10.779-0.443 2.903-0.536 10.464-0.538 44.046-0.004 39.94 0.008 40.558 0.738 41.738 1.568 2.538-1.662 2.377 47.776 2.385 43.634 0.007 44.669-0.009 45.824-0.713zM631.891 969.949c0.194-0.51 0.331-82.883 0.331-198.99 0-171.127-0.072-198.255-0.528-199.115-0.291-0.547-1.119-1.459-1.843-2.025-1.51-1.181-1.877-1.086-3.902 1.019l-1.291 1.342v397.656l3.619 3.674 1.642-1.345c0.903-0.74 1.791-1.737 1.972-2.216zM333.306 841.287c0.602-0.506 1.365-1.597 1.695-2.422 0.565-1.413 0.56-1.592-0.094-3.045-0.382-0.849-1.146-1.959-1.697-2.467l-1.002-0.922h-124.972l-1.327 1.285c-0.729 0.707-1.418 1.654-1.532 2.103-0.241 0.958 1.267 4.469 2.41 5.613l0.775 0.775h124.647zM796.351 840.747c2.306-3.184 2.361-4.464 0.292-6.858l-1.261-1.459h-125.478l-1.104 1.057c-2.339 2.241-2.35 4.536-0.035 7.336l1.144 1.384h125.384l1.058-1.461zM249.439 810.646c3.114-1.521 3.946-5.169 3.133-13.737-0.284-2.996-0.495-10.633-0.516-18.713l-0.036-13.651-1.003-2.142c-1.847-3.942-5.107-6.863-9.45-8.469-2.862-1.058-9.284-1.13-12.237-0.136-4.786 1.611-8.675 5.167-10.342 9.456-0.438 1.126-0.982 19.642-1.177 40.056-0.028 2.943 0.582 4.672 2.127 6.028 1.903 1.671 3.45 1.93 10.027 1.684 3.202-0.12 7.148-0.055 8.772 0.144 4.507 0.552 8.944 0.337 10.7-0.52zM689.852 811.009c6.695-0.606 7.513-0.854 8.683-2.64 0.602-0.919 0.651-2.529 0.651-21.486 0-21.978-0.1-23.409-1.9-27.028-1.223-2.46-2.9-4.238-5.077-5.387-1.708-0.901-2.244-0.991-5.936-0.991-3.749 0-4.188 0.076-5.76 1-1.962 1.153-3.692 3.004-4.754 5.086-1.65 3.235-1.868 5.341-2.29 22.138-0.602 23.951-0.597 24.663 0.201 26.266 0.822 1.653 1.844 2.362 4.393 3.048 2.543 0.684 4.158 0.684 11.791-0.007zM313.496 810.348c2.559-0.603 4.186-1.724 5.101-3.517 1.431-2.804 1.615-5.417 1.649-23.285 0.028-15.151-0.043-17.447-0.608-19.646-1.904-7.406-5.71-10.607-12.613-10.607-2.779 0-3.34 0.125-5.426 1.205-3.826 1.981-5.768 5.222-6.607 11.027-0.187 1.288-0.342 11.572-0.346 22.854-0.008 22.588-0.157 21.113 2.213 22.059 1.401 0.559 14.178 0.491 16.639-0.088zM481.919 809.218l1.249-1.445v-20.337c0-22.040-0.052-22.717-2.058-26.368-4.198-7.644-14.644-10.419-23.333-6.199-4.042 1.963-7.207 6.055-8.143 10.524-0.271 1.296-0.409 8.854-0.409 22.393v20.437l0.862 1.002c0.573 0.667 1.408 1.097 2.49 1.284 0.895 0.155 7.582 0.253 14.86 0.217l13.232-0.065zM552.757 809.27l1.277-1.394-0.213-42.224-1.229-2.85c-2.86-6.63-9.42-10.334-17.328-9.785-6.282 0.437-11.002 3.337-13.716 8.428-0.622 1.168-1.288 3.007-1.478 4.087-0.449 2.544-0.831 30.593-0.512 37.663 0.231 5.113 0.3 5.501 1.143 6.344 0.515 0.515 1.475 0.966 2.251 1.057 0.744 0.088 7.468 0.139 14.941 0.112l13.587-0.047zM782.154 809.989c2.115-1.387 2.113-1.37 1.996-23.422l-0.107-20.176-0.908-2.572c-2.557-7.238-9.227-11.35-17.498-10.789-7.899 0.536-13.837 5.314-15.3 12.312-0.246 1.175-0.407 7.815-0.421 17.341-0.040 27.826-0.119 25.403 0.862 26.545 0.575 0.668 1.405 1.095 2.49 1.282 0.895 0.154 7.53 0.251 14.742 0.217 12.020-0.056 13.2-0.118 14.143-0.736zM510.654 675.016c10.613-2.080 19.334-6.828 26.749-14.564 6.827-7.122 11.191-15.591 13.173-25.559 0.856-4.307 0.859-13.455 0.006-17.743-2.012-10.108-6.408-18.551-13.477-25.883-7.271-7.541-16.507-12.505-26.952-14.485-4.462-0.846-13.373-0.787-18.052 0.121-17.842 3.458-32.708 16.443-38.245 33.402-1.84 5.639-2.232 8.435-2.225 15.885 0.007 6.415 0.094 7.354 1.027 11.068 1.232 4.907 1.987 6.985 3.967 10.925 5.001 9.946 12.554 17.532 22.329 22.428 9.996 5.006 20.902 6.521 31.701 4.405zM493.867 661.958c-7.636-1.639-13.58-4.853-19.026-10.29-14.395-14.372-14.472-37.497-0.172-51.892 7.387-7.435 16.020-11.034 26.468-11.034 10.418 0 19.972 4.228 27.1 11.992 3.898 4.246 6.504 8.947 8.487 15.309 0.773 2.481 0.862 3.474 0.862 9.592 0 5.944-0.105 7.188-0.813 9.627-4.017 13.839-15.165 24.052-29.197 26.748-3.396 0.652-10.552 0.624-13.711-0.053zM779.174 635.3c2.676-1.183 3.034-2.191 2.978-8.372-0.026-2.841-0.061-11.806-0.080-19.923-0.037-16.41-0.136-17.274-2.473-21.454-3.42-6.116-11.446-9.166-19.267-7.322-4.482 1.057-8.072 3.54-10.43 7.213-2.271 3.539-2.315 3.913-2.227 19.164 0.043 7.61-0.099 15.911-0.317 18.447-0.622 7.259 0.281 10.573 3.295 12.079 1.128 0.563 2.515 0.647 10.959 0.662 5.317 0.009 9.801 0.153 9.962 0.321 0.517 0.536 5.832-0.034 7.598-0.815zM252.46 634.879c0.647-0.395 1.357-1.057 1.58-1.471 0.283-0.529 0.373-7.256 0.3-22.442l-0.103-21.687-1.224-2.486c-4.147-8.421-14.795-11.539-24.203-7.087-2.77 1.311-5.565 4.134-6.886 6.959-1.74 3.717-1.93 6.818-1.695 27.607 0.186 16.426 0.272 18.435 0.835 19.294 1.301 1.987 1.436 2.003 16.387 2.017 13.063 0.012 13.901-0.026 15.011-0.703zM492.284 541.161c2.092-1.387 2.004 0.413 1.882-38.752l-0.113-35.972-1.213-3.588c-2.558-7.565-7.625-12.928-13.715-14.518-5.475-1.43-12.040 0.403-16.371 4.57-1.905 1.833-4.077 5.602-5.020 8.707-1.254 4.132-1.535 11.49-1.752 45.894l-0.203 32.212 0.828 0.881c0.456 0.485 1.18 0.956 1.612 1.048s8.090 0.142 17.017 0.112c13.57-0.046 16.367-0.144 17.048-0.595zM467.118 537.593c-4.671-0.152-5.45-0.287-6.247-1.084-0.515-0.515-0.577-3.112-0.555-23.151 0.032-30.153 0.46-46.939 1.272-49.874 1.731-6.257 5.544-10.064 11.322-11.303 6.906-1.481 13.109 3.305 15.849 12.227l0.849 2.766 0.221 67.753-1.266 1.266c-1.198 1.198-1.402 1.266-3.826 1.266-1.408 0-5.036 0.060-8.062 0.133s-7.327 0.074-9.559 0zM545.010 540.306l1.278-1.395-0.241-72.107-0.943-3.136c-1.115-3.706-1.718-4.953-3.869-7.992-2.058-2.907-4.102-4.646-7.345-6.251-7.74-3.83-17.391-0.412-22.277 7.889-1.803 3.063-2.543 5.589-3.014 10.282-0.201 1.999-0.464 19.090-0.587 37.98l-0.222 34.344 1.063 0.755c0.585 0.415 1.395 0.845 1.801 0.954s8.015 0.171 16.908 0.135l16.17-0.065zM518.531 537.507c-3.861-0.193-4.801-0.354-5.442-0.936-0.772-0.699-0.774-0.809-0.768-23.243 0.009-28.027 0.495-46.753 1.292-49.813 1.782-6.841 6.607-11.045 13.253-11.547 2.59-0.196 2.94-0.131 5.152 0.958 4.19 2.062 7.406 6.468 8.945 12.252 0.566 2.127 0.643 5.75 0.769 35.983l0.139 33.618-1.264 1.34c-1.218 1.292-1.357 1.34-3.836 1.34-1.415 0-5.047 0.064-8.073 0.141s-7.601 0.036-10.168-0.092zM560.97 419.234c0.563-0.292 1.415-1.265 1.891-2.163l0.866-1.633-0.998-1.704c-0.549-0.937-1.362-1.898-1.807-2.137-0.608-0.326-15.422-0.434-59.95-0.437l-59.141-0.004-1.072 1.027c-2.263 2.167-2.264 4.072-0.004 6.49l1.019 1.091h59.086c50.636 0 59.233-0.076 60.111-0.53zM515.995 359.631c0.374-0.201 1.034-0.936 1.466-1.635l0.786-1.27-0.114-34.43c-0.113-33.998-0.125-34.465-0.912-37.253-1.912-6.771-5.528-11.461-10.703-13.886-1.851-0.867-2.599-0.999-5.638-0.999-3.059 0-3.783 0.13-5.688 1.023-3.023 1.416-5.68 3.804-7.327 6.586-2.373 4.009-2.802 6.032-3.222 15.21-0.439 9.594-0.958 63.498-0.624 64.822 0.126 0.499 0.692 1.192 1.258 1.542 0.928 0.573 2.461 0.637 15.535 0.646 8.86 0.006 14.77-0.132 15.187-0.354z"></path>
    </svg>