<svg xmlns="http://www.w3.org/2000/svg" viewBox="7.304 -48.002 876.597 1120.004">
    <path fill="#000000" d="M147.512 976.764v-15.238l1.866-2.168 189.473 0.055c178.112 0.052 189.533 0.095 190.481 0.716 2.324 1.523 2.52 2.349 2.935 12.398 0.21 5.080 0.445 11.541 0.523 14.356l0.142 5.119h-385.419zM539.627 913.483c0-53.92 0.13-78.98 0.41-79.988 0.273-0.983 0.815-1.718 1.64-2.226 1.185-0.728 1.938-0.754 19.668-0.656l18.436 0.101 1.76 1.759 0.386 41.77 0.912 0.738c0.863 0.698 1.718 0.738 15.839 0.737 14.114 0 14.994-0.042 16.162-0.754 2.725-1.661 2.605-0.701 2.842-22.793 0.117-10.952 0.248-19.959 0.29-20.016s0.641-0.447 1.332-0.868c1.238-0.755 2.138-0.766 66.080-0.767 72.1 0 66.681-0.211 67.489 2.608 0.288 1.005 0.44 25.493 0.498 80.159l0.083 78.713h-213.827l0.004-78.519zM226.468 953.144c-0.662-0.326-1.401-1.025-1.641-1.552-0.314-0.689-0.445-11.288-0.467-37.739-0.027-32.488 0.151-43.764 0.998-63.438 2.997-69.56 5.716-116.799 8.515-147.96 2.093-23.305 3.466-33.956 8.638-67.027 1.711-10.943 5.457-35.194 8.323-53.891 7.385-48.165 8.15-52.826 8.919-54.315 0.941-1.821 3.319-4.238 19.876-20.216 20.312-19.6 27.92-26.798 57.366-54.267 14.237-13.282 27.292-25.547 29.010-27.257 3.606-3.587 4.899-5.618 5.787-9.080 1.070-4.175 0.284-7.403-2.995-12.319-2.227-3.337-2.538-4.499-1.583-5.91 0.629-0.93 22.603-24.031 27.417-28.823 2.207-2.198 3.132-2.456 4.822-1.35 0.566 0.37 7.876 7.802 16.243 16.513 20.733 21.584 18.977 19.58 18.977 21.671 0 2.048 1.759 0.132-23.194 25.267-17.262 17.389-17.106 17.186-17.417 22.439-0.372 6.29 1.584 9.807 8.517 15.308 2.601 2.063 14.464 11.505 26.363 20.98 29.791 23.723 34.167 27.159 51.381 40.34 8.287 6.345 23.15 18.002 33.030 25.903s21.040 16.663 24.801 19.469c10.021 7.478 11.098 9.407 12.106 21.678 0.306 3.718 0.995 10.063 1.533 14.101 3.777 28.369 11.566 94.866 12.189 104.061 0.25 3.69 0.361 7.406 0.247 8.258-0.281 2.098-2.414 5.048-5.517 7.632-1.403 1.169-4.828 4.82-7.611 8.113-8.789 10.403-35.491 40.644-57.988 65.674-6.884 7.659-8.127 9.362-8.983 12.307-1.073 3.69 0.248 7.825 3.404 10.663 3.226 2.901 4.347 3.113 16.162 3.064 5.631-0.023 13.495-0.244 17.478-0.489 7.941-0.489 9.389-0.273 10.365 1.55 0.682 1.274 0.706 117.951 0.024 119.224-0.254 0.474-0.969 1.124-1.59 1.446-1.001 0.518-18.145 0.582-151.715 0.575-134.707-0.008-150.713-0.071-151.791-0.603zM345.45 710.25c2.040-1.337 2.108-1.836 1.84-13.483l-0.246-10.712-1.049-1.049c-1.015-1.015-1.178-1.047-4.974-0.982-4.389 0.076-5.822 0.612-6.97 2.606-0.565 0.983-0.677 2.583-0.785 11.259-0.121 9.758-0.098 10.152 0.682 11.203 0.501 0.676 1.454 1.269 2.51 1.563 2.391 0.666 7.725 0.425 8.993-0.406zM327.804 709.83l1.084-0.932 0.113-11.906c0.104-10.928 0.058-11.947-0.557-12.397-0.446-0.326-2.109-0.489-4.981-0.489-3.833 0-4.455 0.097-5.603 0.871-2.625 1.769-2.748 2.322-2.746 12.353 0 4.944 0.172 9.435 0.38 9.98s1.010 1.544 1.781 2.221c1.385 1.216 1.454 1.232 5.424 1.232 3.694 0 4.11-0.076 5.106-0.932zM345.053 677.577c2.102-1.299 2.209-1.898 2.208-12.338 0-10.358-0.011-10.408-2.364-12.081-1.061-0.754-5.225-0.921-19.968-0.799-7.761 0.065-8.254 0.113-9.016 0.875-0.783 0.783-0.803 1.093-0.67 10.527 0.198 14.191 0.176 14.164 11.714 14.592 3.825 0.143 9.173 0.203 11.885 0.136 4.158-0.103 5.132-0.247 6.211-0.914zM493.46 822.069c-0.638-0.136-1.107-0.42-1.043-0.63 0.472-1.562 4.943-6.749 43.122-50.024 27.501-31.171 27.816-31.512 30.229-32.697l2.252-1.105h176.161l1.81 0.891c0.996 0.489 2.39 1.532 3.098 2.317s4.746 7.076 8.973 13.982c14.81 24.193 38.187 62.788 38.773 64.013 1.184 2.478 7.066 2.28-76.309 2.561-50.219 0.17-76.058 0.388-76.143 0.643-0.143 0.431-148.911 0.478-150.922 0.048zM649.728 650.616c-0.317-0.135-3.359-2.423-6.76-5.081s-8.53-6.659-11.399-8.889c-2.869-2.229-7.562-5.908-10.431-8.174s-13.299-10.463-23.179-18.215c-9.88-7.751-31.523-24.761-48.097-37.799s-32.915-25.881-36.314-28.538c-3.399-2.658-8.181-6.421-10.624-8.363-4.592-3.649-31.714-24.935-64.708-50.786-10.411-8.157-22.042-17.271-25.845-20.253-6.587-5.164-8.072-6.657-8.588-8.632-0.365-1.397 0.181-3.386 1.316-4.801 0.578-0.721 8.267-8.27 17.085-16.775 29.335-28.296 28.803-27.759 28.383-28.599-0.712-1.422-52.217-52.294-52.96-52.309-0.722-0.015-6.889 6.137-32.631 32.553-14.628 15.011-13.968 13.414-7.984 19.325 2.178 2.151 4.263 4.357 4.633 4.901 0.97 1.427 0.874 4.138-0.211 5.93-0.487 0.804-3.938 4.282-7.67 7.726-7.265 6.708-19.231 17.879-29.882 27.898-3.614 3.399-9.178 8.606-12.363 11.572s-7.53 7.055-9.655 9.089c-3.456 3.309-11.286 10.638-33.026 30.913-3.759 3.506-13.325 12.458-21.256 19.896s-17.303 16.203-20.826 19.479c-3.523 3.278-9.363 8.753-12.979 12.169s-10.289 9.687-14.83 13.937c-12.088 11.311-27.655 25.882-37.742 35.323-4.866 4.554-11.628 10.921-15.027 14.148-8.107 7.694-10.113 9.37-11.764 9.829-3.459 0.961-4.465 0.257-13.385-9.36-4.229-4.56-13.224-14.244-19.989-21.522s-12.546-13.818-12.845-14.535c-0.871-2.084-0.705-5.234 0.357-6.8 0.856-1.262 12.434-15.46 42.316-51.897 7.319-8.924 14.465-17.617 15.88-19.316s5.851-7.089 9.856-11.976c4.005-4.887 8.438-10.276 9.851-11.976s5.845-7.089 9.851-11.976c4.005-4.887 8.439-10.276 9.853-11.976s8.288-10.044 15.275-18.543c6.987-8.499 17.136-20.842 22.552-27.428s13.060-15.887 16.988-20.668c3.927-4.78 8.292-10.083 9.7-11.783s5.375-6.524 8.813-10.72c9.933-12.119 18.504-22.564 22.037-26.854 3.668-4.454 5.053-5.5 7.288-5.5 2.184 0 3.312 0.897 9.709 7.726 6.128 6.542 21.034 22.315 30.748 32.537 5.728 6.027 6.257 6.481 7.541 6.481 1.311 0 2.485-1.105 22.911-21.552 17.182-17.199 21.53-21.751 21.53-22.537 0-0.792-4.063-4.951-20.743-21.233-21.89-21.368-25.129-24.298-26.858-24.302-1.217-0.003-4.018 2.318-7.182 5.95-3.482 3.997-5.888 4.903-8.878 3.345-0.826-0.43-47.647-46.984-110.442-109.811-96.659-96.709-109.063-109.25-109.486-110.706-0.976-3.359-1.477-2.759 20.926-25.072 11.275-11.229 21.131-21.243 21.903-22.253l1.403-1.835h6.062l8.769 7.052c10.391 8.357 9.094 7.342 31.755 24.821 9.88 7.621 20.919 16.136 24.532 18.924s11.957 9.221 18.543 14.295c6.587 5.075 13.019 10.032 14.294 11.017s5.36 4.131 9.079 6.99c3.718 2.859 7.891 6.074 9.272 7.143s10.943 8.439 21.248 16.377c10.305 7.939 30.373 23.399 44.597 34.358s34.471 26.53 44.995 34.604c19.735 15.141 20.888 16.176 20.879 18.737-0.004 0.532-0.304 1.613-0.669 2.403-0.42 0.906-8.843 9.644-22.782 23.632-19.155 19.223-22.117 22.346-22.117 23.328 0 0.979 1.742 2.828 12.845 13.643 7.065 6.881 17.381 16.989 22.926 22.463 6.476 6.394 10.359 9.953 10.86 9.953 0.751 0 3.604-2.804 19.652-19.313 3.203-3.295 10.548-10.838 16.322-16.763 6.078-6.236 10.498-11.074 10.498-11.487 0-0.393-1.733-2.54-3.852-4.771-5.552-5.845-6.376-7.958-4.595-11.768 0.641-1.373 24.804-25.756 108.844-109.838 59.411-59.44 108.568-108.334 109.238-108.652 1.69-0.803 4.328-0.728 5.789 0.163 0.666 0.406 10.681 10.193 22.255 21.75 22.447 22.413 22.253 22.186 21.81 25.496-0.278 2.075-1.082 3.248-10.734 15.656-15.1 19.414-55.883 72.339-86.107 111.744-1.059 1.381-4.066 5.292-6.682 8.693s-13.108 17.047-23.317 30.326c-10.208 13.28-25.136 32.663-33.173 43.074s-17.753 23.015-21.593 28.008c-8.558 11.13-9.217 11.868-11.008 12.351-3.262 0.878-2.599 1.44-26.9-22.815-20.745-20.707-22.511-22.373-23.715-22.373-1.206 0-2.922 1.629-23.461 22.271-21.404 21.511-22.161 22.321-22.161 23.723 0 1.406 0.651 2.092 20.958 22.070 31.66 31.148 30.084 29.674 31.72 29.674 1.208 0 1.865-0.433 4.973-3.283 1.97-1.806 4.441-3.718 5.492-4.25 4.058-2.052 5.812-1.213 13.513 6.459 6.275 6.251 32.886 33.415 60.091 61.339 9.005 9.243 21.087 21.586 26.851 27.428s20.719 21.142 33.233 33.996c12.516 12.855 27.726 28.414 33.802 34.575 30.975 31.415 54.367 55.621 55.169 57.089 1.058 1.935 0.934 3.661-0.396 5.498-0.728 1.006-33.125 32.614-41.571 40.558-2.437 2.292-2.449 2.298-5.022 2.394-1.418 0.053-2.839-0.013-3.157-0.149zM653.635 640.546c0.557-0.37 8.684-8.255 18.060-17.521l17.048-16.848v-1.628c0-1.55-0.212-1.85-4.33-6.138-9.943-10.354-20.23-20.542-20.743-20.542-1.058 0-3.841 1.937-4.64 3.23-1.617 2.617-0.768 5.617 2.478 8.747 3.461 3.338 4.121 6.068 2.133 8.813-1.983 2.738-4.026 3.566-6.89 2.796-1.148-0.309-2.507-1.268-4.698-3.318-1.695-1.585-3.304-2.885-3.574-2.888-0.27-0.005-0.871-0.107-1.335-0.232-1.022-0.274-2.758 1.28-15.092 13.503-7.028 6.966-8.596 8.711-8.596 9.575 0 1.122 0.080 1.191 17.641 15.122 11.384 9.031 10.639 8.595 12.538 7.331zM136.029 615.438c2.392-2.187 16.916-15.766 20.98-19.613 3.308-3.131 3.443-3.659 1.655-6.446-2.6-4.052-5.859-3.951-10.286 0.32-3.019 2.912-3.55 3.236-5.303 3.236-4.035 0-8.055-5.728-6.32-9.008 0.246-0.464 2.071-2.472 4.057-4.462s3.61-3.782 3.61-3.983c0-0.384-0.608-1.060-9.832-10.939-9.17-9.821-13.090-13.718-13.802-13.718-0.967 0-21.953 25.202-22.764 27.337-0.192 0.505-0.233 1.384-0.093 1.954 0.315 1.273 11.688 13.751 31.82 34.913 2.734 2.873 3.528 2.925 6.278 0.409zM618.951 608.93c1.946-1.827 4.451-3.843 5.567-4.479s2.028-1.315 2.028-1.508c0-0.458-4.587-5.29-18.758-19.763-9.449-9.649-11.825-11.879-12.653-11.879-0.793 0-2.527 1.441-7.787 6.471-3.721 3.559-6.768 6.775-6.77 7.148 0 0.374 1.057 1.498 2.364 2.511 1.302 1.009 8.908 6.997 16.901 13.305s14.767 11.481 15.052 11.493c0.285 0.011 2.11-1.472 4.057-3.299zM636.355 591.666c3.188-2.98 3.777-3.71 3.558-4.402-0.341-1.074-28.583-28.144-30.348-29.089-1.205-0.645-1.907-0.272-4.525 2.404-3.308 3.38-3.332 3.613-0.653 6.55 4.978 5.46 27.322 28.122 27.719 28.116 0.235-0.005 2.148-1.615 4.25-3.58zM174.020 579.925c10.928-9.981 23.537-22.056 24.068-23.050 0.705-1.319 0.401-1.881-3.031-5.6l-2.617-2.835-4.030 3.802c-2.216 2.091-7.936 7.481-12.71 11.979s-9.945 9.461-11.492 11.030l-2.812 2.852 1.597 2.491c2.275 3.548 2.988 4.229 4.429 4.229 1.041 0 2.074-0.767 6.596-4.898zM575.397 577.137c0.829-0.615 4.197-3.83 7.486-7.143l5.979-6.024-2.304-2.418c-1.268-1.33-8.043-8.198-15.056-15.263-9.303-9.371-12.989-12.845-13.63-12.845-1.058 0-6.254 4.647-13.346 11.935-6.098 6.268-6.117 6.359-2.004 9.818 3.921 3.296 18.105 14.634 23.951 19.146 5.705 4.402 6.448 4.634 8.924 2.796zM653.942 574.545c1.718-1.615 3.123-3.203 3.123-3.527s-6.75-7.37-15-15.657l-15-15.068-1.343 0.443c-0.739 0.244-2.092 1.206-3.007 2.138-1.319 1.343-1.702 2.044-1.846 3.375l-0.182 1.68 5.881 6.181c14.020 14.736 22.873 23.372 23.955 23.372 0.163 0 1.702-1.322 3.419-2.937zM167.345 552.897l14.911-14.928-0.75-1.008c-0.413-0.554-1.847-2.205-3.188-3.668-2.101-2.292-2.564-2.62-3.348-2.371-0.5 0.158-3.019 2.312-5.597 4.785s-9.508 9-15.398 14.505c-5.891 5.505-10.711 10.21-10.711 10.457s1.542 1.958 3.428 3.803c2.767 2.707 3.651 3.353 4.586 3.353 1.011 0 3.070-1.913 16.070-14.928zM599.998 553.244l1.074-1.132-15.626-15.323c-8.595-8.427-15.825-15.323-16.067-15.323-0.707 0-4.643 3.913-4.643 4.616 0 0.674 27.056 28.65 29.321 30.319l1.313 0.968 1.777-1.496c0.978-0.823 2.26-2.006 2.851-2.629zM139.88 551.309c10.376-9.157 27.672-25.846 27.956-26.976 0.119-0.475 0.005-1.271-0.256-1.769-0.631-1.208-3.962-5.022-8.632-9.883-3.724-3.877-3.844-3.963-4.585-3.296-0.908 0.816-11.944 13.996-17.891 21.367-2.32 2.876-5.393 6.597-6.827 8.268-1.457 1.698-2.603 3.396-2.598 3.848 0.006 0.505 1.685 2.52 4.457 5.349 5.181 5.288 5.678 5.472 8.376 3.091zM216.577 539.935c9.415-8.938 11.723-11.064 16.825-15.503 2.939-2.558 3.893-4.070 3.551-5.628-0.294-1.342-2.198-3.666-4.174-5.097-1.33-0.964-1.637-1.044-2.416-0.632-0.982 0.52-21.313 19.438-27.347 25.445-2.783 2.77-3.71 3.929-3.476 4.346 0.175 0.312 1.604 2.049 3.175 3.861 2.59 2.985 2.925 3.245 3.583 2.783 0.399-0.279 5.024-4.588 10.277-9.575zM531.84 544.222c1.050-0.366 1.217-0.608 1.217-1.767 0-1.222-0.712-2.084-7.823-9.489-4.302-4.48-10.794-11.19-14.425-14.912l-6.603-6.766-3.442 2.997c-3.648 3.176-4.306 4.045-3.773 4.978 0.182 0.319 1.635 1.587 3.229 2.818s7.243 5.647 12.555 9.811c5.312 4.164 11.136 8.729 12.941 10.144 3.399 2.662 4.072 2.902 6.124 2.186zM618.555 534.93c0.968-0.509 1.409-1.073 1.418-1.808 0.006-0.549-28.803-30.139-30.568-31.396l-1.051-0.748-1.572 2.195c-0.864 1.208-1.572 2.403-1.572 2.657 0 0.825 3.060 3.978 16.377 16.869 12.669 12.265 13.142 12.676 14.609 12.676 0.833 0 1.896-0.2 2.36-0.444zM543.344 534.184c0.714-0.442 2.604-2.27 4.198-4.061 2.169-2.438 2.899-3.535 2.899-4.361 0-0.933-2.287-3.42-14.812-16.118l-14.812-15.016-4.878 4.631c-2.683 2.547-4.883 4.944-4.89 5.328-0.013 0.771 25.862 27.443 28.382 29.256 1.866 1.342 2.243 1.375 3.913 0.342zM203.848 516.403c8.004-8.097 14.798-15.118 15.098-15.602 0.619-0.998 0.373-1.411-2.92-4.932-1.638-1.751-1.807-1.838-2.589-1.324-0.46 0.302-3.531 3.12-6.822 6.263s-10.113 9.533-15.159 14.199c-6.515 6.025-9.172 8.723-9.164 9.308 0.013 0.987 5.468 6.81 6.38 6.81 0.343 0 7.173-6.624 15.177-14.722zM560.589 517.455c1.485-1.378 2.153-2.267 2-2.664-0.126-0.328-7.357-7.576-16.068-16.106-11.916-11.669-15.959-15.411-16.326-15.107-0.267 0.222-0.965 1.283-1.551 2.359-1.038 1.908-1.047 1.98-0.385 2.992 0.576 0.879 9.281 9.983 25.657 26.833 2.018 2.077 3.844 3.773 4.057 3.77s1.389-0.938 2.615-2.075zM179.789 514.073c2.114-1.942 9.016-8.412 15.337-14.378 10.9-10.288 11.493-10.919 11.493-12.229 0-1.545-0.594-2.271-10.785-13.163-5.677-6.068-6.54-6.92-7.019-6.92-0.149 0-1.648 1.695-3.33 3.767s-5.807 7.138-9.167 11.259c-13.276 16.283-14.899 18.378-14.899 19.24 0 0.503 0.95 1.971 2.257 3.487 2.963 3.436 11.655 12.469 12 12.469 0.148 0 1.999-1.589 4.113-3.531zM246.279 511.698c1.869-1.049 28.088-25.868 29.161-27.605l0.791-1.28-1.383-1.631c-0.76-0.897-2.141-2.481-3.068-3.519l-1.686-1.888-1.696 1.502c-0.933 0.826-4.741 4.37-8.463 7.876s-10.2 9.575-14.395 13.488c-4.195 3.912-7.628 7.307-7.628 7.543 0 0.519 4.974 5.45 5.795 5.743 0.941 0.337 1.686 0.271 2.574-0.228zM490.369 511.089c2.28-1.411 6.374-5.623 6.374-6.559 0-0.661-3.869-4.823-14.723-15.835-8.098-8.216-14.949-14.992-15.226-15.057s-2.868 2.195-5.757 5.022c-5.044 4.934-5.254 5.203-5.235 6.686 0.020 1.51 0.137 1.64 5.124 5.676 8.106 6.557 22.294 17.707 24.581 19.315 2.352 1.655 3.192 1.785 4.862 0.752zM579.537 498.999c0.464-0.246 1.576-1.004 2.47-1.685l1.627-1.237-0.854-1.151c-0.47-0.634-6.345-6.786-13.057-13.672s-13.050-13.447-14.084-14.578c-3.089-3.378-3.901-3.471-5.91-0.673-2.396 3.338-2.893 2.616 12.012 17.439 12.524 12.456 16.235 16.004 16.734 16.004 0.12 0 0.597-0.202 1.061-0.447zM508.139 495.329c3.746-4.578 4.829-6.258 4.829-7.493 0-0.858-1.629-2.766-8.443-9.89-11.356-11.872-19.091-19.366-20.303-19.67-1.808-0.454-2.954 0.209-6.246 3.614-4.937 5.107-5.389 3.998 6.747 16.571 11.733 12.157 19.864 20.219 20.36 20.192 0.194-0.010 1.57-1.507 3.057-3.324zM242.847 477.309c8.333-8.351 15.152-15.354 15.152-15.563 0-0.528-4.208-3.249-5.023-3.249-0.367 0-1.373 0.565-2.237 1.255-1.735 1.388-21.431 19.767-26.925 25.126l-3.481 3.396 1.21 1.047c3.185 2.756 3.836 3.173 4.969 3.173 1.043 0 2.978-1.798 16.335-15.184zM523.201 480.137c0.974-1.328 1.338-2.162 1.171-2.688-0.201-0.633-18.031-18.274-27.271-26.981l-2.539-2.393-1.711 0.504c-1.583 0.467-1.706 0.596-1.653 1.742 0.050 1.068 1.486 2.704 10.493 11.95 11.318 11.619 19.524 19.791 19.875 19.791 0.122 0 0.857-0.866 1.634-1.925zM216.728 479.068c5.056-4.183 29.763-27.49 29.6-27.922-0.062-0.161-2.091-2.485-4.509-5.164-2.753-3.049-4.677-4.87-5.146-4.87-0.447 0-4.044 3.155-8.931 7.834-4.5 4.309-10.819 10.22-14.042 13.135-5.804 5.251-7.468 7.183-7.468 8.673 0 0.964 1.412 3.062 4.195 6.233 3.026 3.448 4.185 3.831 6.301 2.080zM454.538 472.225c2.815-2.764 5.119-5.312 5.119-5.663s-6.015-6.743-13.368-14.202c-12.162-12.341-13.481-13.565-14.632-13.565-1.118 0-2.1 0.817-8.519 7.091l-7.255 7.091 0.239 1.473c0.131 0.81 0.388 1.574 0.57 1.697s4.143 3.279 8.802 7.013c4.659 3.733 11.322 9.001 14.807 11.707l6.335 4.918 1.391-1.268c0.765-0.698 3.695-3.529 6.51-6.293zM442.234 465.772c-3.232-2.328-11.361-8.738-12.055-9.508-0.53-0.587-0.669-1.27-0.579-2.843l0.118-2.070 1.629-0.342c2.173-0.457 2.418-0.274 8.745 6.498 6.372 6.821 6.689 7.264 6.107 8.54-0.597 1.31-1.889 1.221-3.965-0.275zM285.703 474.641c6.489-5.506 29.47-27.22 29.47-27.847 0-0.434-3.357-4.147-5.001-5.529l-1.187-0.998-1.525 0.907c-1.344 0.799-30.919 28.017-30.919 28.455 0 0.347 5.186 5.683 5.77 5.937 1.177 0.512 1.946 0.302 3.391-0.923zM205.883 457.24c10.205-9.323 24.301-22.763 24.301-23.172 0-0.78-6.994-7.982-7.546-7.77-0.3 0.115-2.933 3.191-5.851 6.836-4.928 6.155-8.564 10.564-18.045 21.875-2.234 2.665-3.713 4.771-3.713 5.284 0 1.205 1.749 2.454 3.432 2.453 1.256 0 2.001-0.553 7.421-5.505zM543.606 459.84c1.422-1.173 2.587-2.232 2.587-2.353 0-0.387-23.114-23.966-26.901-27.443l-3.647-3.348-2.786 1.896c-1.954 1.329-2.826 2.173-2.918 2.825-0.11 0.773 2.152 3.218 13.522 14.623 13.015 13.055 16.107 15.933 17.112 15.933 0.246 0 1.61-0.96 3.033-2.133zM470.985 456.276c1.738-1.646 3.925-3.612 4.862-4.367l1.703-1.373-12.659-12.995c-12.642-12.977-14.814-14.972-16.303-14.972-1.082 0-3.338 1.72-6.218 4.741-3.274 3.433-3.26 4.041 0.18 7.733 3.397 3.647 19.098 20.034 21.452 22.391 2.581 2.584 3.131 2.492 6.984-1.159zM264.782 455.494c2.071-1.738 30.69-30.947 30.69-31.322 0-0.54-2.798-1.989-3.842-1.989-0.832 0-8.606 6.927-22.717 20.242-7.731 7.295-8.21 7.826-8.21 9.135 0 1.035 0.353 1.801 1.382 3.005 0.76 0.888 1.499 1.611 1.642 1.606s0.618-0.309 1.055-0.676zM255.795 442.754c4.232-3.841 20.355-18.959 25.117-23.552l4.563-4.4-3.080-3.36c-4.447-4.853-5.543-5.828-6.83-6.085-1.054-0.211-1.706 0.27-7.909 5.83-8.793 7.881-21.862 20.442-23.224 22.323-0.588 0.812-0.97 1.734-0.849 2.049s1.498 1.519 3.060 2.674c2.102 1.554 3.092 2.597 3.809 4.013 0.868 1.713 1.802 2.684 2.613 2.718 0.155 0.008 1.384-0.988 2.729-2.21zM485.078 440.473l0.117-1.605-13.631-13.172c-7.497-7.244-13.822-13.172-14.054-13.172s-0.825 0.428-1.316 0.952c-0.87 0.926-0.876 0.979-0.212 1.992 0.375 0.572 6.431 6.846 13.458 13.941 12.415 12.535 12.815 12.897 14.149 12.785 1.313-0.111 1.378-0.187 1.49-1.72zM331.673 431.816c10.137-9.615 12.407-11.708 15.596-14.377 2.595-2.173 3.671-3.967 3.29-5.484-0.148-0.591-1.252-2.103-2.452-3.361-1.766-1.852-2.382-2.265-3.234-2.172-1.652 0.181-28.928 25.669-28.928 27.032 0 0.732 5.713 7.367 6.198 7.198 0.186-0.065 4.474-4.041 9.529-8.835zM241.448 423.824c2.213-2.072 8.363-7.785 13.667-12.697 11.303-10.465 12.928-12.154 12.928-13.43 0-1.068-2.259-4.144-6.113-8.324-2.575-2.793-2.695-2.87-4.523-2.898l-1.877-0.028-5.76 6.76c-8.426 9.889-18.482 22.242-19.539 24.004-0.665 1.106-0.825 1.737-0.579 2.272 0.423 0.921 7.041 8.107 7.465 8.107 0.171 0 2.12-1.695 4.332-3.767zM505.54 422.483c1.324-1.429 2.407-2.876 2.407-3.216s-2.387-3.083-5.304-6.095c-17.392-17.957-22.145-22.668-22.87-22.668-0.487 0-1.37 0.788-2.375 2.12-0.88 1.165-2.188 2.483-2.907 2.928-1.086 0.67-1.242 0.93-0.922 1.529 0.623 1.163 28.69 28.232 29.148 28.11 0.23-0.061 1.5-1.28 2.824-2.708zM329.33 389.184c-0.359-0.548-0.997-0.997-1.417-0.997-0.817 0-4.976 3.721-19.809 17.719-5.533 5.222-9.156 8.923-9.156 9.354 0 0.393 0.551 1.343 1.225 2.109l1.225 1.395 28.585-28.584zM296.631 404.156c3.5-3.143 18.103-16.754 22.59-21.055l2.694-2.583-3.274-3.038c-1.801-1.671-4.177-3.871-5.279-4.888l-2.004-1.85-7.073 6.502c-13.718 12.609-20.986 19.572-21.338 20.445-0.295 0.733-0.099 1.197 1.159 2.741 0.833 1.023 2.613 2.946 3.955 4.273 2.111 2.089 2.633 2.414 3.863 2.408 1.225-0.005 1.879-0.415 4.706-2.955zM279.732 387.921c6.045-5.508 25.783-24.141 25.783-24.338 0-0.34-2.253-2.815-9.165-10.069-4.49-4.711-6.602-6.664-7.207-6.664-1.043 0-2.282 1.286-7.994 8.306-2.421 2.975-6.403 7.731-8.851 10.568-6.814 7.901-7.409 8.649-8.009 10.066-1.043 2.46-0.52 3.417 4.83 8.847 2.701 2.741 5.172 5.083 5.491 5.202 1.702 0.638 2.745 0.248 5.123-1.919zM514.392 318.553c12.154-15.477 16.313-21.219 17.103-23.611 0.753-2.282-0.481-4.263-6.266-10.064l-4.978-4.991-13.879 13.874c-11.958 11.954-13.879 14.032-13.879 15.011 0 0.961 1.127 2.259 7.292 8.405 9.458 9.428 8.366 9.324 14.607 1.376zM499.652 287.505c7.51-7.356 13.744-13.603 13.852-13.883 0.209-0.545-9.628-9.83-10.415-9.83-0.248 0-6.472 6.090-13.829 13.533-15.097 15.272-14.701 14.694-11.735 17.146 1.884 1.557 8.144 6.349 8.341 6.384 0.072 0.013 6.277-5.994 13.787-13.35zM323.416 288.554c1.934-2.003 2.574-2.937 2.574-3.754 0-0.914-2.199-3.29-13.804-14.911-7.592-7.603-14.015-13.823-14.273-13.823-0.574 0-5.918 6.108-5.918 6.763 0 0.798 2.83 3.856 14.067 15.2 10.409 10.508 13.323 13.192 14.321 13.192 0.252 0 1.616-1.2 3.033-2.666zM540.421 285.134c0.332-0.583 2.761-3.842 5.397-7.241 8.869-11.438 18.076-23.799 18.692-25.098 1.107-2.333 0.845-3.089-2.087-6.022-2.999-2.999-4.145-3.626-5.606-3.070-1.193 0.454-25.457 24.675-27.011 26.963-1.4 2.061-1.425 3.517-0.094 5.387 1.056 1.484 9.504 10.148 9.892 10.143 0.117-0.001 0.486-0.479 0.818-1.062zM495.957 256.161c-1.25-2.237-1.382-2.132-15.679 12.439-7.411 7.553-13.535 14.010-13.607 14.348s0.268 1.042 0.758 1.562l0.889 0.946 28.232-28.234zM343.78 268.612c0.627-0.324 1.145-0.803 1.151-1.062s-6.342-6.774-14.108-14.475l-14.119-14.003-1.249 0.507c-0.963 0.391-1.275 0.773-1.364 1.666-0.104 1.039 0.476 1.735 5.609 6.735 7.036 6.852 22.419 21.222 22.719 21.222 0.121 0 0.733-0.265 1.359-0.59zM454.433 264.082c1.742-1.753 7.998-8.089 13.902-14.079l10.735-10.892-3.008-3.305c-1.962-2.156-3.289-3.302-3.816-3.297-0.541 0.006-5.422 4.635-14.811 14.048-7.703 7.722-14.004 14.23-14.004 14.463s0.64 0.908 1.423 1.501c1.569 1.19 3.048 2.604 4.078 3.902 1.163 1.465 2.124 1.056 5.5-2.34zM534.472 252.89c7.096-7.058 13.527-13.741 14.29-14.849 1.778-2.582 1.624-3.219-1.604-6.641-3.281-3.478-5.275-4.859-6.555-4.538-1.021 0.256-31.146 29.856-31.099 30.557 0.030 0.444 7.627 7.050 8.955 7.788 2.344 1.301 2.251 1.373 16.013-12.316zM357.765 254.481c1.646-1.846 2.994-3.684 2.994-4.086 0-1.029-26.135-27.027-27.513-27.369-1.451-0.36-3.158 0.77-6.32 4.184-2.801 3.025-3.321 3.957-2.979 5.346 0.235 0.956 8.444 9.482 20.739 21.541l7.3 7.16 1.392-1.709c0.766-0.94 2.739-3.219 4.386-5.066zM287.658 253.643c4.454-4.484 5.435-2.829-12.054-20.335l-14.845-14.86-3.311 3.233c-1.822 1.778-3.311 3.46-3.311 3.739 0 0.465 30.067 31.027 30.529 31.032 0.112 0.001 1.459-1.262 2.994-2.808zM518.119 235.881c7.841-7.914 14.515-14.779 14.831-15.254 0.528-0.794 0.482-1.028-0.572-2.898-1.936-3.436-1.977-3.414-10.414 5.382-12.552 13.088-17.769 19.035-19.696 22.452l-0.848 1.505 0.792 1.601c0.436 0.88 0.985 1.601 1.221 1.601s6.844-6.475 14.686-14.391zM376.498 235.498c4.517-4.513 8.213-8.401 8.213-8.64s-3.347-3.020-7.436-6.18c-18.131-14.010-22.142-16.764-24.408-16.764-1.807 0-3.913 1.43-8.093 5.494-3.36 3.266-4.128 4.226-4.328 5.41l-0.244 1.439 13.658 13.731c7.512 7.552 13.831 13.728 14.042 13.724s4.079-3.699 8.596-8.213zM576.639 237.781c2.114-2.798 8.123-10.65 13.354-17.45s9.453-12.536 9.383-12.748c-0.26-0.788-3.659-2.592-4.254-2.258-1.002 0.563-24.589 23.743-27.36 26.888-1.461 1.658-2.641 3.356-2.641 3.802 0 1.151 6.221 7.411 7.050 7.093 0.343-0.132 2.354-2.529 4.468-5.327zM309.252 233.218c0.282-0.234 0.513-0.613 0.513-0.842 0-0.488-14.734-15.368-24.058-24.297l-6.481-6.205-1.524 0.687c-1.948 0.878-2.801 1.831-2.64 2.947 0.133 0.923 28.766 28.267 30.261 28.898 0.775 0.327 2.867-0.304 3.93-1.187zM501.504 217.081c7.823-7.774 14.4-14.452 14.614-14.842 0.302-0.548 0.156-1.044-0.647-2.203-1.293-1.866-4.991-5.395-5.653-5.395-0.583 0-27.712 26.933-29.341 29.128-0.615 0.829-1.118 1.73-1.118 2.003s1.23 1.988 2.733 3.812l2.733 3.315 1.227-0.843c0.675-0.463 7.628-7.203 15.453-14.976zM573.634 213.282c9.019-8.955 14.684-14.861 14.678-15.304-0.006-0.397-1.282-2.048-2.836-3.67s-3.558-3.892-4.454-5.043l-1.628-2.093-14.799 14.842c-9.075 9.1-14.992 15.327-15.295 16.097-0.731 1.853-0.072 3.041 3.686 6.651 5.025 4.824 3.216 5.83 20.649-11.48zM321.027 220.235c3.948-3.803 4.452-4.663 3.639-6.203-0.302-0.573-7.185-7.646-15.296-15.721l-14.747-14.68-2.714 2.898c-1.493 1.594-3.388 3.739-4.212 4.767-2.706 3.377-3.235 2.578 11.348 17.107 7.065 7.039 13.61 13.342 14.545 14.005 2.708 1.924 3.392 1.724 7.437-2.173zM251.941 214.712l2.634-2.417-14.803-14.904c-8.142-8.198-15.285-15.231-15.874-15.63l-1.070-0.726-3.139 3.077c-2.658 2.604-3.102 3.218-2.897 4.002 0.136 0.522 6.824 7.384 15.323 15.724l15.082 14.798 1.055-0.754c0.58-0.414 2.24-1.841 3.689-3.17zM545.304 208.839c6.387-6.19 25.613-26.17 25.613-26.618 0-0.221-0.805-1.602-1.79-3.069-1.268-1.889-2.028-2.668-2.603-2.668-0.893 0-0.598-0.298-16.071 16.225-12.446 13.291-12.975 13.884-13.295 14.911-0.184 0.592 0.185 1.4 1.366 2.994 0.89 1.201 1.86 2.183 2.156 2.183s2.378-1.782 4.624-3.96zM339.552 201.721c2.952-2.905 5.367-5.413 5.367-5.573 0-0.273-15.845-12.679-26.783-20.97-5.739-4.35-7.082-5.088-8.582-4.712-1.208 0.303-7.517 6.325-7.517 7.175 0 0.614 24.581 25.462 27.56 27.858 1.378 1.109 2.227 1.505 3.228 1.505 1.225 0 1.883-0.516 6.726-5.283zM610.684 193.483c3.2-4.143 6.557-8.483 7.46-9.642 8.207-10.547 12.652-16.812 12.652-17.835 0-0.865-0.751-1.916-3.381-4.729-1.859-1.989-4.795-4.944-6.525-6.566-4.747-4.452-3.867-4.808-15.028 6.075-11.826 11.529-19.371 19.522-19.712 20.879-0.247 0.983 0.398 1.727 8.95 10.306 5.069 5.085 9.339 9.201 9.491 9.146s2.893-3.489 6.093-7.632zM270.218 196.714c2.012-1.386 2.032-1.418 1.49-2.468-0.521-1.008-28.081-28.328-29.767-29.509-0.736-0.516-0.998-0.409-3.401 1.391-1.96 1.468-2.574 2.149-2.486 2.755 0.113 0.776 6.812 7.282 22.995 22.33 4.968 4.62 7.707 6.905 8.277 6.905 0.469 0 1.77-0.632 2.892-1.404zM539.925 178.299c8.333-8.351 15.152-15.37 15.152-15.599s-0.525-0.633-1.166-0.898c-0.641-0.265-2.213-1.417-3.491-2.558s-2.618-2.075-2.976-2.075c-0.683 0-30.998 30.028-30.998 30.705 0 0.216 1.251 1.566 2.779 3.001 4.547 4.268 2.887 5.277 20.701-12.576zM282.722 183.418c1.908-1.711 4.2-3.525 5.093-4.032l1.624-0.923-12.726-12.818c-15.068-15.176-17.479-17.363-19.155-17.363-1.508 0-3.923 1.749-7.419 5.373l-2.645 2.742 0.713 1.061c0.392 0.584 7.075 7.363 14.851 15.066 11.478 11.369 14.331 14.004 15.166 14.004 0.742 0 1.997-0.868 4.498-3.111zM212.4 179.334c1.513-1.273 2.717-3.593 2.717-5.238 0-1.145-1.389-2.648-15.096-16.337l-15.096-15.077-0.84 1.135c-0.462 0.624-1.753 2.144-2.869 3.377-1.152 1.273-2.028 2.608-2.028 3.091 0 0.602 2.841 3.621 9.725 10.338 5.348 5.218 11.363 11.313 13.363 13.544s4.262 4.535 5.024 5.119c1.795 1.376 3.501 1.392 5.098 0.048zM593.714 160.362c7.971-8.024 14.737-15.067 15.035-15.651 0.693-1.356 0.383-1.96-2.794-5.462l-2.395-2.639-2.532 2.457c-1.392 1.351-6.955 7.226-12.362 13.055s-11.178 12.043-12.824 13.809c-1.646 1.766-2.994 3.338-2.994 3.494 0 0.549 5.204 5.516 5.784 5.522 0.324 0.003 7.111-6.56 15.082-14.584zM299.942 166.381c1.366-1.414 2.483-2.749 2.483-2.968 0-0.347-12.143-9.838-29.879-23.352l-5.468-4.166-1.063 1.268c-1.495 1.785-1.675 2.768-0.744 4.054 1.482 2.047 28.078 28.268 29.041 28.632 1.308 0.494 2.525-0.256 5.629-3.468zM232.212 159.575c1.434-1.159 2.607-2.205 2.607-2.324 0-0.411-31.069-31.373-31.47-31.363-0.82 0.022-6.389 5.661-6.389 6.47 0 0.55 2.349 2.994 7.392 7.69 4.066 3.786 10.541 9.814 14.391 13.395 7.713 7.178 9.776 8.857 10.427 8.486 0.239-0.136 1.608-1.195 3.042-2.355zM649.037 143.552c14.973-19.469 14.595-18.95 14.595-20.069 0-0.94-2.777-3.597-8.928-8.541l-1.781-1.432-14.735 14.878c-10.33 10.432-14.735 15.13-14.735 15.72 0 0.575 2.169 3.023 6.826 7.706 3.754 3.775 6.953 6.786 7.108 6.689s5.397-6.825 11.648-14.952zM572.012 146.383c5.665-5.508 12.648-12.387 15.516-15.288l5.215-5.274-1.332-1.034c-0.733-0.568-2.25-1.946-3.372-3.062s-2.358-2.028-2.746-2.028c-1.149 0-2.332 1.105-16.985 15.882-9.051 9.127-14.004 14.395-14.004 14.896 0 1.194 5.085 5.922 6.37 5.922 0.833 0 3.059-1.966 11.337-10.014zM249.125 142.199c10.553-10.684 10.502-10.625 10.142-11.59-0.302-0.812-6.737-6.113-15.332-12.633-2.508-1.902-6.323-5-8.48-6.882-4.651-4.064-6.818-5.558-8.859-6.107-2.943-0.792-4.677 0.401-10.768 7.407-2.383 2.741-4.474 4.985-4.646 4.985s-0.313 0.651-0.313 1.447c0 1.388 0.593 2.040 14.775 16.225 8.126 8.128 15.038 14.779 15.36 14.779s3.977-3.433 8.123-7.629zM178.208 137.71c0.273-0.772 0.222-1.275-0.193-1.913-1.089-1.675-29.243-29.236-29.865-29.236-0.88 0-5.286 3.821-6.189 5.368l-0.748 1.281 30.573 30.518 3.026-2.485c1.665-1.367 3.193-2.957 3.397-3.533zM631.374 122.672c7.862-7.937 14.593-14.959 14.96-15.603l0.666-1.173-3.011-3.627c-4.133-4.978-3.844-4.82-5.672-3.111-2.89 2.704-27.803 29.5-28.313 30.454-0.454 0.848-0.406 1.087 0.431 2.182 2.245 2.936 4.773 5.286 5.699 5.297 0.739 0.009 4.084-3.156 15.24-14.42zM194.474 121.948c0.981-1.049 1.714-2.205 1.714-2.705 0-0.63-3.623-4.511-13.038-13.965-13.98-14.037-16.252-16.102-17.723-16.102-0.664 0-1.744 0.823-3.636 2.772-4.010 4.131-4.037 4.030 3.008 10.869 7.325 7.111 23.072 21.8 24.804 23.138l1.335 1.031 0.911-1.604c0.501-0.882 1.682-2.428 2.625-3.436zM614.666 103.534c8.021-8.001 14.584-14.692 14.584-14.869 0-0.654-5.202-6.086-6.027-6.293-0.47-0.118-1.186-0.037-1.592 0.181-1.011 0.541-29.161 28.871-29.713 29.903-0.621 1.16-0.369 1.568 2.115 3.427 1.204 0.901 2.275 1.753 2.381 1.895 0.379 0.504 1.369 0.704 2.511 0.505 0.892-0.155 4.524-3.559 15.743-14.749zM671.646 113.998c1.067-0.951 8.184-10.070 15.113-19.365 6.402-8.589 6.298-8.324 4.288-10.864-0.589-0.743-8.459-8.697-17.49-17.674-15.686-15.593-16.484-16.322-17.846-16.322-1.355 0-2.044 0.613-13.744 12.231-6.774 6.727-12.426 12.573-12.559 12.992-0.179 0.564 0.153 1.122 1.287 2.16 0.841 0.77 2.175 2.225 2.965 3.233s1.605 1.835 1.811 1.835c0.802 0 3.589-3.083 6.462-7.147 3.788-5.358 4.133-5.461 6.865-2.046 2.964 3.707 4.789 6.495 4.789 7.32 0 1.265-1.425 3.623-3.855 6.381-2.768 3.141-3.489 5.062-2.49 6.631 0.361 0.567 5.24 5.594 10.842 11.171 9.301 9.26 10.299 10.141 11.494 10.141 0.719 0 1.649-0.305 2.066-0.676zM210.856 105.243c3.619-3.583 6.579-6.72 6.579-6.969 0-0.683-1.523-1.981-8.306-7.086-3.399-2.558-9.745-7.446-14.101-10.861s-8.813-6.656-9.904-7.203c-1.912-0.957-2.037-0.971-3.448-0.382-0.852 0.356-2.809 2.021-4.68 3.983-5.124 5.372-6.104 3.563 11.418 21.085 11.564 11.564 14.763 14.562 15.248 14.29 0.338-0.188 3.575-3.276 7.193-6.859zM137.267 104.070c4.265-3.043 4.211-4.61-0.318-9.378-2.195-2.311-2.732-3.131-3.005-4.594-0.399-2.138-0.143-3.341 1.127-5.268 1.293-1.962 3.068-2.994 5.147-2.993 2.127 0.002 3.607 0.891 5.784 3.473 1.935 2.295 3.242 3.093 5.066 3.093 1.16 0 2.339-1.062 12.782-11.509l11.504-11.509-0.883-0.794c-1.052-0.947-17.548-13.658-23.903-18.419-2.462-1.844-4.778-3.353-5.147-3.353s-8.741 8.042-18.607 17.87c-13.374 13.326-17.936 18.098-17.936 18.767 0 0.633 1.846 2.82 6.278 7.437 6.339 6.604 18.993 18.896 19.452 18.896 0.137 0 1.332-0.773 2.657-1.718zM489.983 374.078c-3.903-2.931-6.988-4.434-9.102-4.434-1.878 0-5.226 1.369-9.421 3.852-2.165 1.282-4.236 2.33-4.602 2.33-0.785 0-2.79-1.873-23.341-21.803-8.558-8.3-15.662-15.482-15.785-15.96-0.495-1.93 0.353-3.010 10.014-12.74 10.457-10.53 11.547-11.34 13.53-10.042 1.297 0.849 9.179 9.297 13.417 14.378 10.202 12.233 19.488 26.473 26.856 41.184 1.583 3.159 2.876 5.833 2.876 5.942 0 0.507-0.854-0.013-4.443-2.708zM332.673 365.297c-5.615-5.477-13.036-13.746-13.518-15.062-1.037-2.834-1.441-2.222 14.276-21.65 5.29-6.54 10.031-12.16 10.535-12.491 0.578-0.38 1.243-0.5 1.805-0.328 1.051 0.323 22.328 21.526 22.328 22.251 0 0.274-6.737 7.24-14.971 15.482-12.751 12.762-15.135 14.985-16.079 14.985-0.867 0-1.821-0.695-4.376-3.188zM395.273 306.827c-0.671-0.331-4.365-3.788-8.21-7.682-7.361-7.458-7.764-8.084-6.313-9.792 0.923-1.087 8.734-5.359 11.080-6.060 1.048-0.313 2.403-0.57 3.010-0.57 2.396 0 7.361 1.336 13.628 3.666 5.42 2.015 6.589 2.585 6.692 3.256 0.092 0.6-1.073 2.041-4.443 5.493-6.435 6.593-12.728 12.311-13.538 12.301-0.378-0.005-1.237-0.279-1.908-0.61z"></path>
    </svg>