<svg xmlns="http://www.w3.org/2000/svg" viewBox="-18.024 -48.287 1062.048 1120.286">
    <path fill="#000000" d="M61.976 991.775c0-2.861 13.618-33.005 23.449-51.902 7.47-14.361 10.869-20.043 21.84-36.507 17.708-26.575 31.364-43.398 51.794-63.8 15.474-15.454 29.889-27.804 72.469-62.088 45.731-36.822 58.809-48.034 75.484-64.714 7.958-7.96 13.712-14.21 22.683-24.635l5.145-5.979v-84.202h-10.914v-4.14h10.914v-2.634h-10.914v-4.14h10.914v-33.12h-10.914v-4.14h10.914v-2.634h-10.914v-4.14h10.914v-33.12h-10.914v-4.14h10.914v-2.634h-10.914v-4.14h10.914v-33.12h-10.914v-4.14h10.914v-2.634h-10.914v-4.14h10.914v-33.12h-10.914v-4.14h10.914v-2.634h-10.914v-4.14h10.914v-33.496h-10.914v-4.14h10.914v-2.634h-10.914v-4.14h10.914v-33.12h-10.914v-4.14h10.914v-2.634h-10.914v-4.14h10.914v-33.12h-10.914v-4.14h10.914v-2.634h-10.914v-4.14h10.914v-33.12h-10.914v-4.14h10.914v-2.634h-10.914v-4.14h10.914v-35.754h-11.291v-4.14h11.291v-2.634h-11.291v-4.14h59.842v46.669h102.662l0.227-5.175c0.125-2.846 0.271-9.522 0.324-14.836 0.126-12.418 0.516-11.754-7.806-13.281-4.93-0.904-10.66-2.93-15.807-5.588l-4.516-2.333-13.926 0.055c-7.659 0.031-16.551 0.254-19.759 0.497-10.577 0.799-15.282 0.903-17.215 0.38-1.474-0.398-2.373-1.073-5.072-3.809-4.283-4.341-10.708-11.704-14.289-16.375-3.503-4.57-5.075-7.168-10.441-17.255-2.313-4.347-4.672-8.376-5.243-8.953-0.825-0.833-1.768-1.2-4.592-1.783-4.663-0.962-6.739-0.931-11.578 0.175-9.265 2.118-19.15 2.695-26.224 1.533-1.863-0.307-4.463-0.56-5.78-0.563-3.045-0.008-6.272-0.846-9.473-2.458-2.539-1.279-7.17-4.755-9.147-6.866-1.013-1.081-1.038-1.193-0.509-2.215 1.515-2.929 3.64-3.724 13.356-4.994 6.499-0.849 7.045-1.167 6.686-3.878-0.278-2.1-0.936-1.819 6.938-2.966 6.798-0.991 13.732-1.048 17.689-0.144 1.553 0.354 4.791 1.551 7.196 2.659 6.424 2.959 9.148 3.344 12.187 1.725 0.967-0.515 2.977-0.608 13.926-0.642 14.257-0.046 14.17-0.038 35.943-3.563 6.313-1.023 12.919-1.967 14.678-2.098 2.307-0.173 4.091-0.588 6.398-1.489 4.275-1.67 7.868-2.543 16.183-3.93 9.398-1.568 12.060-2.32 24.641-6.961 5.948-2.194 11.761-4.236 12.919-4.537s5.214-0.801 9.016-1.109c7.578-0.615 10.208-1.284 16.921-4.307 1.874-0.844 3.605-1.534 3.847-1.534 1.054 0 2.61-1.196 2.996-2.303 0.245-0.702 0.424-4.088 0.433-8.198 0.034-14.615 0.638-27.839 1.465-32.063 2.731-13.938 8-20.702 17.749-22.782 3.326-0.71 9.45-0.499 12.949 0.447 7.772 2.1 10.987 5.866 13.347 15.637 2.184 9.041 2.858 15.569 3.379 32.75 0.392 12.928 0.581 13.747 3.847 16.683 1.595 1.433 2.605 1.909 7.57 3.556 6.604 2.192 12.267 3.593 16.833 4.164 8.582 1.074 13.908 2.302 19.194 4.422 3.709 1.488 5.385 2.414 9.786 5.408 4.386 2.983 7.12 4.185 13.926 6.118 12.308 3.495 20.547 4.873 32.932 5.507 4.347 0.222 11.714 0.728 16.372 1.125 10.166 0.864 13.451 1.058 26.024 1.524 10.97 0.408 13.984 0.176 19.703-1.512 3.717-1.097 3.892-1.112 14.157-1.214l10.394-0.103 1.875 1.749c1.543 1.44 2.268 1.824 4.096 2.177 1.222 0.235 3.491 0.688 5.044 1.006 4.898 1.004 9.788 3.775 9.784 5.545 0 1-0.917 2.528-3.427 5.723-3.396 4.321-6.13 5.635-12.925 6.213-2.288 0.194-7.068 0.608-10.623 0.92-8.15 0.713-15.101 0.717-19.692 0.010-10.344-1.594-9.682-1.55-10.808-0.71-1.353 1.010-2.084 2.558-5.759 12.18-5.419 14.19-8.397 19.395-14.642 25.593-4.358 4.326-7.401 6.348-11.385 7.567-2.408 0.737-3.544 0.772-27.85 0.853-24.699 0.083-25.433 0.106-29.025 0.924-2.026 0.461-5.329 1.449-7.339 2.196s-8.532 3.014-14.494 5.040c-5.962 2.026-11.111 3.908-11.443 4.184-1.474 1.223-1.616 2.513-1.616 14.603v11.679h110.65v-46.669h58.336v4.14h-9.786v2.634h9.786v4.14h-9.786v35.754h9.786v4.14h-9.786v2.634h9.786v4.14h-9.786v33.12h9.786v4.14h-9.786v2.634h9.786v4.14h-9.786v33.12h9.786v4.14h-9.786v2.634h9.786v4.14h-9.786v33.12h9.786v4.14h-9.786v2.634h9.786v4.14h-9.786v33.496h9.786v4.14h-9.786v2.634h9.786v4.14h-9.786v33.12h9.786v4.14h-9.786v2.634h9.786v4.14h-9.786v33.12h9.786v4.14h-9.786v2.634h9.786v4.14h-9.786v33.12h9.786v4.14h-9.786v2.634h9.786v4.14h-9.786v33.12h9.786v4.14h-9.786v2.634h9.786v4.14h-9.786v205.036l4.344 3.876c2.39 2.132 5.649 4.884 7.245 6.117 11.776 9.099 33.442 20.593 60.107 31.888 9.748 4.129 36.868 17.603 43.76 21.74 9.285 5.574 17.026 11.739 26.074 20.763 14.894 14.854 23.675 27.855 37.621 55.704 4.618 9.222 5.302 10.79 10.414 23.899 5.86 15.029 7.241 18.841 7.998 22.091l0.683 2.937h-451.021c-248.062 0-451.021-0.101-451.021-0.224zM760.879 697.497v-99.548h-38.766l0.005 29.262c0.005 24.683 0.091 29.548 0.559 31.089 2.746 9.051 7.22 35.586 9.211 54.627 1.879 17.969 3.223 26.019 6.412 38.381 4.050 15.703 5.689 19.681 13.65 33.128 2.939 4.964 8.243 12.608 8.75 12.608 0.099 0 0.181-44.797 0.181-99.548zM344.276 671.151c9.917-11.586 21.045-24.081 29.046-32.614l5.175-5.519v-35.070h-38.766v39.222c0 32.662 0.083 39.13 0.501 38.671 0.276-0.303 2.095-2.414 4.044-4.691zM717.221 621.472v-23.523h-38.78l0.203 16.611 3.785 1.428c14.771 5.573 25.49 14.009 32.572 25.637 1.118 1.836 2.076 3.345 2.127 3.354s0.094-10.568 0.094-23.506zM393.174 619.962c8.183-6.557 16.789-11.92 24.815-15.466l4.165-1.839v-4.707h-38.766v30.556l2.729-2.538c1.501-1.396 4.676-4.099 7.057-6.006zM673.563 605.476v-7.527h-38.766v9.323l1.599 0.226c0.879 0.124 5.072 0.573 9.315 0.998 11.333 1.133 18.881 2.328 24.652 3.902 3.489 0.952 3.199 1.58 3.199-6.921zM629.905 601.901c0-3.415-0.084-3.952-0.619-3.952-0.547 0-0.589 0.393-0.363 3.393 0.24 3.182 0.486 4.511 0.833 4.511 0.082 0 0.148-1.778 0.148-3.952zM430.811 599.276l3.576-1.283-7.339-0.044v1.317c0 0.725 0.042 1.312 0.094 1.304s1.703-0.59 3.669-1.295zM378.496 592.492v-1.317h-38.766v2.634h38.766zM422.154 592.492v-1.317h-38.766v2.634h38.766zM464.777 593.252c0.76-0.208 1.035-0.521 1.035-1.18v-0.897h-38.766v2.686l18.348-0.162c10.091-0.089 18.814-0.29 19.383-0.446zM629.905 592.492c0-0.92-0.171-1.317-0.564-1.317s-0.564 0.398-0.564 1.317c0 0.92 0.171 1.317 0.564 1.317s0.564-0.398 0.564-1.317zM673.563 592.492v-1.317h-38.766v2.634h38.766zM717.221 592.492v-1.317h-38.766v2.634h38.766zM760.879 592.492v-1.317h-38.766v2.634h38.766zM378.496 570.475v-16.56h-38.766v33.12h38.766zM422.154 570.475v-16.56h-38.766v33.12h38.766zM465.812 570.475v-16.56h-38.766v33.12h38.766zM629.905 570.475v-16.56h-0.809c-0.789 0-0.803 0.090-0.566 3.669 0.134 2.018 0.244 9.471 0.245 16.56 0 11.206 0.076 12.891 0.566 12.891 0.493 0 0.564-2.091 0.564-16.56zM673.563 570.475v-16.56h-38.766v33.12h38.766zM717.221 570.475v-16.56h-38.766v33.12h38.766zM760.879 570.475v-16.56h-38.766v33.12h38.766zM470.981 555.702c-0.076-1.087-0.138-0.198-0.138 1.976s0.062 3.063 0.138 1.976c0.076-1.087 0.076-2.865 0-3.952zM378.496 548.457v-1.317h-38.766v2.634h38.766zM422.154 548.457v-1.317h-38.766v2.634h38.766zM465.812 548.457v-1.317h-38.766v2.634h38.766zM471.797 548.59c0.528-1.513 0.543-1.449-0.339-1.449-0.609 0-0.753 0.251-0.753 1.317 0 1.638 0.545 1.703 1.092 0.132zM629.905 548.457c0-1.066-0.143-1.317-0.753-1.317s-0.753 0.251-0.753 1.317c0 1.066 0.143 1.317 0.753 1.317s0.753-0.251 0.753-1.317zM673.563 548.457v-1.317h-38.766v2.634h38.766zM717.221 548.457v-1.317h-38.766v2.634h38.766zM760.879 548.457v-1.317h-38.766v2.634h38.766zM378.496 526.44v-16.56h-38.766v33.12h38.766zM422.154 526.44v-16.56h-38.766v33.12h38.766zM465.812 526.44v-16.56h-38.766v33.12h38.766zM479.411 542.154c0.249-0.466 0.588-2.435 0.751-4.376 0.428-5.071 0.746-5.353 7.043-6.232 5.433-0.758 6.69-1.283 7.453-3.11 0.567-1.358 1.205-9.554 1.246-16.015l0.016-2.541h-25.216v33.12h4.127c3.894 0 4.152-0.048 4.58-0.847zM629.905 526.44v-16.56h-13.173c-12.293 0-13.173 0.044-13.175 0.659 0 0.362 0.269 4.3 0.601 8.751 0.646 8.674 0.97 9.908 2.844 10.813 0.527 0.255 3.714 0.882 7.083 1.393 7.565 1.149 8.446 1.739 7.553 5.056-0.612 2.273 0.014 3.269 2.663 4.236 1.198 0.437 2.467 1.113 2.82 1.503s1.124 0.709 1.713 0.709h1.071zM673.563 526.44v-16.56h-38.766v33.12h38.766zM717.221 526.44v-16.56h-38.766v33.12h38.766zM760.879 526.44v-16.56h-38.766v33.12h38.766zM378.496 504.423v-1.317h-38.766v2.634h38.766zM422.154 504.423v-1.317h-38.766v2.634h38.766zM465.812 504.423v-1.317h-38.766v2.634h38.766zM496.297 504.423v-1.317h-25.593v2.634h25.593zM629.905 504.423v-1.317h-26.722v2.634h26.722zM673.563 504.423v-1.317h-38.766v2.634h38.766zM717.221 504.423v-1.317h-38.766v2.634h38.766zM760.879 504.423v-1.317h-38.766v2.634h38.766zM378.496 482.407v-16.56h-38.766v33.12h38.766zM422.154 482.407v-16.56h-38.766v33.12h38.766zM465.812 482.407v-16.56h-38.766v33.12h38.766zM496.443 497.366c0.202-1.683 0.997-25.131 0.988-29.168l-0.005-2.352h-26.722v33.12h25.547zM629.905 482.407v-16.56h-28.603v1.599c-0.005 2.265 1.089 25.51 1.353 28.792l0.218 2.729h27.034v-16.56zM673.563 482.407v-16.56h-38.766v33.12h38.766zM717.221 482.407v-16.56h-38.766v33.12h38.766zM760.879 482.407v-16.56h-38.766v33.12h38.766zM378.496 460.39v-1.317h-38.766v2.634h38.766zM422.154 460.39v-1.317h-38.766v2.634h38.766zM465.812 460.39v-1.317h-38.766v2.634h38.766zM497.802 460.39v-1.317h-27.098v2.634h27.098zM629.905 460.39v-1.317h-28.98v2.634h28.98zM673.563 460.39v-1.317h-38.766v2.634h38.766zM717.221 460.39v-1.317h-38.766v2.634h38.766zM760.879 460.39v-1.317h-38.766v2.634h38.766zM378.496 438.372v-16.56h-38.766v33.12h38.766zM422.154 438.372v-16.56h-38.766v33.12h38.766zM465.812 438.372v-16.56h-38.766v33.12h38.766zM498.189 451.639c0.006-1.811 0.256-8.374 0.556-14.584s0.55-12.18 0.555-13.267l0.008-1.976h-28.603v33.12h27.474l0.009-3.293zM629.905 438.372v-16.56h-25.216v1.042c0 0.614-1.017 2.738-2.479 5.175l-2.479 4.133 0.218 4.328c0.119 2.38 0.329 7.504 0.465 11.385l0.248 7.057h29.243zM673.563 438.372v-16.56h-38.766v33.12h38.766zM717.221 438.372v-16.56h-38.766v33.12h38.766zM760.879 438.372v-16.56h-38.766v33.12h38.766zM378.496 416.355v-1.317h-38.766v2.634h38.766zM422.154 416.355v-1.317h-38.766v2.634h38.766zM465.812 416.355v-1.317h-38.766v2.634h38.766zM499.684 416.355v-1.317h-28.98v2.634h28.98zM629.905 416.355v-1.317h-25.216v2.634h25.216zM673.563 416.355v-1.317h-38.766v2.634h38.766zM717.221 416.355v-1.317h-38.766v2.634h38.766zM760.879 416.355v-1.317h-38.766v2.634h38.766zM378.496 394.15v-16.748h-38.766v33.496h38.766zM422.154 394.15v-16.748h-38.766v33.496h38.766zM465.812 394.15v-16.748h-38.766v33.496h38.766zM500.176 406.476c0.644-12.3 1.11-27.132 0.881-28.044l-0.259-1.029h-30.095v33.496h29.241zM629.905 394.15v-16.748h-24.84v8.783c0 4.831-0.112 12.368-0.248 16.748l-0.248 7.964h25.336zM673.563 394.15v-16.748h-38.766v33.496h38.766zM717.221 394.15v-16.748h-38.766v33.496h38.766zM760.879 394.15v-16.748h-38.766v33.496h38.766zM378.496 371.944v-1.317h-38.766v2.634h38.766zM422.154 371.944v-1.317h-38.766v2.634h38.766zM465.812 371.944v-1.317h-38.766v2.634h38.766zM499.451 372.227c-0.136-0.569-0.319-1.162-0.406-1.317s-6.5-0.282-14.25-0.282h-14.092v2.634h28.994zM629.905 371.944v-1.317h-24.84v2.634h24.84zM673.563 371.944v-1.317h-38.766v2.634h38.766zM717.221 371.944v-1.317h-38.766v2.634h38.766zM760.879 371.944v-1.317h-38.766v2.634h38.766zM378.496 349.928v-16.56h-38.766v33.12h38.766zM422.154 349.928v-16.56h-38.766v33.12h38.766zM465.812 349.928v-16.56h-38.766v33.12h38.766zM498.044 365.926c-0.604-1.573-1.438-17.198-1.312-24.561l0.138-7.998h-26.166v33.12h13.778c12.056 0 13.75-0.070 13.562-0.562zM629.905 349.928v-16.56h-24.361l-0.239 1.747c-0.131 0.96-0.239 8.412-0.239 16.56v14.813h24.84zM673.563 349.928v-16.56h-38.766v33.12h38.766zM717.221 349.928v-16.56h-38.766v33.12h38.766zM760.879 349.928v-16.56h-38.766v33.12h38.766zM378.496 327.911v-1.317h-38.766v2.634h38.766zM422.154 327.911v-1.317h-38.766v2.634h38.766zM465.812 327.911v-1.317h-38.766v2.634h38.766zM497.426 328.506c0-0.398 0.103-0.99 0.229-1.317 0.205-0.536-1.124-0.595-13.361-0.595h-13.589v2.634h13.361c12.92 0 13.361-0.023 13.361-0.722zM629.905 327.911v-1.317h-24.463v2.634h24.463zM673.563 327.911v-1.317h-38.766v2.634h38.766zM717.221 327.911v-1.317h-38.766v2.634h38.766zM760.879 327.911v-1.317h-38.766v2.634h38.766zM378.496 305.893v-16.56h-38.766v33.12h38.766zM422.154 305.893v-16.56h-38.766v33.12h38.766zM465.812 305.893v-16.56h-38.766v33.12h38.766zM498.116 319.575l-0.145-2.878-2.332-2.109c-3.097-2.801-4.043-4.895-3.704-8.198 0.361-3.525-0.485-4.775-3.541-5.232-0.932-0.14-1.976-0.4-2.322-0.579-1.157-0.599-1.523-2.7-1.237-7.112l0.268-4.133h-14.398v33.12h27.557zM629.905 305.893v-16.56h-23.966l-0.248 9.315c-0.136 5.123-0.248 12.576-0.248 16.56v7.245h24.463v-16.56zM673.563 305.893v-16.56h-38.766v33.12h38.766zM717.221 305.893v-16.56h-38.766v33.12h38.766zM760.879 305.893v-16.56h-38.766v33.12h38.766zM378.496 283.876v-1.317h-38.766v2.634h38.766zM422.154 283.876v-1.317h-38.766v2.634h38.766zM465.812 283.876v-1.317h-38.766v2.634h38.766zM485.006 283.876v-1.317h-14.302v2.634h14.302zM629.905 283.876v-1.317h-24.087v2.634h24.087zM673.563 283.876v-1.317h-38.766v2.634h38.766zM717.221 283.876v-1.317h-38.766v2.634h38.766zM760.879 283.876v-1.317h-38.766v2.634h38.766zM378.496 261.859v-16.56h-38.766v33.12h38.766zM422.154 261.859v-16.56h-38.766v33.12h38.766zM465.812 261.859v-16.56h-38.766v33.12h38.766zM485.531 263.458c0.13-8.228 0.317-15.68 0.413-16.56l0.175-1.599h-15.416v33.12h14.59zM629.905 261.859v-16.56h-23.71v11.984c0 6.592-0.111 14.044-0.246 16.56l-0.246 4.575h24.203zM673.563 261.859v-16.56h-38.766v33.12h38.766zM717.221 261.859v-16.56h-38.766v33.12h38.766zM760.879 261.859v-16.56h-38.766v33.12h38.766zM378.496 239.842v-1.317h-38.766v2.634h38.766zM422.154 239.842v-1.317h-38.766v2.634h38.766zM465.812 239.842v-1.317h-38.766v2.634h38.766zM486.135 239.842v-1.317h-15.431v2.634h15.431zM629.905 239.842v-1.317h-23.334v2.634h23.334zM673.563 239.842v-1.317h-38.766v2.634h38.766zM717.221 239.842v-1.317h-38.766v2.634h38.766zM760.879 239.842v-1.317h-38.766v2.634h38.766zM378.496 216.507v-17.877h-38.766v35.754h38.766zM760.879 216.507v-17.877h-38.766v35.754h38.766zM378.496 193.173v-1.317h-38.766v2.634h38.766zM760.879 193.173v-1.317h-38.766v2.634h38.766z"></path>
    </svg>