<svg xmlns="http://www.w3.org/2000/svg" viewBox="26.818 -48.011 963.363 1120.009">
    <path fill="#000000" d="M107.461 990.758c0.591-1.145 2.873-5.24 13.881-24.902 2.233-3.988 7.889-14.121 12.57-22.517s9.16-16.382 9.953-17.746c0.793-1.364 4.573-8.148 8.398-15.075s8.458-15.256 10.294-18.509c1.836-3.253 6.045-10.81 9.354-16.792s7.181-12.937 8.605-15.457c1.424-2.519 6.357-11.363 10.962-19.655 12.108-21.798 36.108-64.849 50.997-91.48 5.834-10.435 6.070-10.789 7.74-11.597l1.722-0.833 36.545-0.071c35.527-0.069 36.58-0.092 37.839-0.819 2.643-1.526 2.629-1.418 2.63-20.471 0-16.569 0.023-17.101 0.764-17.842 0.745-0.745 1.272-0.763 22.904-0.763h22.141l2.851 2.612 0.191 17.108c0.144 12.906 0.311 17.318 0.679 17.962 0.269 0.47 1.042 1.143 1.717 1.494 1.109 0.577 3.372 0.638 23.201 0.629 24.25-0.011 23.647 0.047 24.873-2.407 0.604-1.208 0.667-2.873 0.667-17.479 0-17.526-0.010-17.431 2.143-19.125 0.999-0.787 1.296-0.797 21.97-0.797 22.756 0 22.348-0.037 23.758 2.117 0.6 0.916 0.67 2.594 0.743 17.861 0.060 12.482 0.202 17.072 0.55 17.705 0.258 0.47 1.022 1.143 1.699 1.494 1.109 0.577 3.395 0.639 23.364 0.636 24.937-0.005 23.985 0.101 25.14-2.786 0.539-1.348 0.62-3.749 0.62-18.524 0-16.466 0.022-16.998 0.763-17.738 0.745-0.745 1.272-0.763 22.713-0.763h21.95l2.851 2.612 0.191 17.108c0.144 12.906 0.311 17.318 0.679 17.962 0.269 0.47 1.042 1.143 1.717 1.494 1.109 0.577 3.371 0.638 23.185 0.629 19.641-0.008 22.085-0.077 23.173-0.64 0.669-0.346 1.437-1.014 1.705-1.484 0.369-0.647 0.534-5.191 0.679-18.678 0.149-13.909 0.3-17.932 0.687-18.319 0.393-0.393 5.102-0.517 22.648-0.6l22.152-0.104 2.981 2.981v16.467c0 18.237 0.031 18.499 2.355 19.746 1.186 0.637 2.754 0.673 23.596 0.559 18.676-0.103 22.502-0.215 23.406-0.682 2.114-1.093 2.165-1.567 2.165-20.341 0-16.677 0.022-17.209 0.763-17.949 0.745-0.745 1.272-0.763 22.362-0.763 23.609 0 22.652-0.087 24.388 2.227 0.732 0.976 0.767 1.692 0.862 17.547 0.108 18.216 0.097 18.128 2.484 19.433 1.145 0.625 3.070 0.674 26.629 0.674 23.623 0 25.467 0.047 26.423 0.673 1.899 1.244 1.237-0.747 13.995 42.070 4.191 14.063 9.089 30.464 10.887 36.446s5.086 16.973 7.308 24.425c2.222 7.451 5.214 17.412 6.652 22.135 3.754 12.339 3.146 10.313 14.485 48.277 2.132 7.136 5.392 17.956 7.247 24.043 4.954 16.263 17.174 57.201 17.174 57.532 0 0.157-32.784 0.286-72.853 0.286h-72.853l-0.457-3.339c-1.026-7.486-4.028-17.645-7.528-25.475-8.152-18.239-22.677-32.293-41.738-40.387-12.112-5.143-23.778-7.606-36.033-7.606-13.262 0-22.98 2.296-35.11 8.296-21.025 10.399-36.353 27.232-43.097 47.33-1.965 5.856-4.169 15.479-4.501 19.655l-0.106 1.336-78.339 0.194-0.412-2.387c-0.227-1.312-0.776-4.705-1.222-7.539-1.106-7.046-2.289-11.351-4.546-16.533-4.708-10.814-10.17-18.57-19.134-27.171-12.61-12.098-29.261-19.784-48.428-22.352-4.631-0.621-15.911-0.634-20.608-0.025-21.622 2.804-39.51 12.357-53.346 28.489-11.247 13.114-18.218 28.899-19.028 43.085l-0.253 4.43h-243.771l0.64-1.24zM578.354 914.577c5.89-0.253 6.691-0.372 8.694-1.294 2.812-1.294 6.34-4.652 7.835-7.456 3.334-6.255 2.075-14.112-3.044-19.007-2.498-2.389-4.068-3.337-6.865-4.144-1.894-0.547-4.5-0.609-21.189-0.511l-19.031 0.112-2.481 1.222c-2.542 1.252-5.347 3.602-6.758 5.663-0.437 0.638-1.171 2.27-1.63 3.625-0.708 2.087-0.81 3.064-0.667 6.367 0.154 3.551 0.295 4.157 1.574 6.744 1.631 3.301 4.107 5.752 7.426 7.348 1.966 0.946 2.716 1.068 7.897 1.288 8.185 0.347 20.698 0.366 28.241 0.042zM547.882 907.286c-3.007-0.403-5.081-1.873-6.481-4.593-0.975-1.893-1.064-2.385-0.921-5.068 0.207-3.877 1.349-5.671 4.672-7.332l2.289-1.145h17.174c19.79 0 19.488-0.044 22.482 3.286 4.117 4.579 2.891 11.062-2.624 13.883l-2.247 1.149-16.057 0.060c-8.831 0.033-17.061-0.075-18.288-0.24zM510.906 913.020c2.947-1.577 4.771-3.548 6.333-6.844 1.057-2.229 1.196-2.911 1.184-5.771-0.018-4.011-1.095-6.632-3.983-9.685-2.857-3.021-5.737-4.246-9.933-4.224-5.394 0.027-9.253 2.115-12.080 6.532-2.617 4.091-3.008 8.821-1.079 13.036 2.677 5.846 7.185 8.591 13.731 8.359 3.040-0.108 3.71-0.269 5.827-1.402zM500.572 905.538c-3.434-4.597-3.783-7.508-1.192-9.952 4.033-3.803 11.814-1.3 11.803 3.797-0.005 1.927-0.9 3.684-3.431 6.732-1.762 2.122-2.028 2.298-3.468 2.301-1.498 0.005-1.644-0.111-3.712-2.878zM355.477 883.649c3.134-1.256 4.654-2.273 6.742-4.512 4.556-4.885 6.137-12.831 3.756-18.877-1.775-4.507-6.22-8.648-11.070-10.313-2.413-0.829-2.993-0.855-21.337-0.976-12.316-0.082-19.794 0.020-21.562 0.291-7.335 1.126-13.237 6.624-14.767 13.755-0.243 1.134-0.352 3.354-0.242 4.938 0.6 8.633 6.337 15.058 14.782 16.552 0.525 0.093 10.057 0.145 21.181 0.116l20.227-0.052zM311.016 876.767c-3.938-1.366-7.033-5.742-7.033-9.947 0-3.646 2.352-7.507 5.648-9.271 1.559-0.834 1.779-0.844 21.569-0.952 22.925-0.125 22.505-0.172 25.63 2.952 2.277 2.277 3.209 4.874 2.943 8.197-0.302 3.766-2.287 6.694-5.788 8.542l-1.942 1.025-19.463 0.090c-18.295 0.084-19.589 0.046-21.562-0.638zM570.001 875.798c2.299-0.682 4.838-2.773 5.972-4.915 1.109-2.096 1.181-6.656 0.136-8.641-0.978-1.857-2.819-3.732-4.625-4.708-1.433-0.775-2.128-0.832-11.39-0.944-10.789-0.13-11.907 0.029-14.586 2.071-0.757 0.577-1.876 1.92-2.486 2.984-0.945 1.647-1.11 2.347-1.113 4.716-0.005 3.969 1.773 7.020 5.092 8.736 2.153 1.114 3.007 1.201 12.105 1.234 6.9 0.025 9.437-0.098 10.894-0.531zM550.394 867.794l-1.426-1.317 2.672-2.673 3.817-0.041c11.461-0.125 11.481-0.123 12.764 1.246 0.639 0.682 1.163 1.351 1.164 1.486s-0.497 0.779-1.105 1.432l-1.107 1.185h-15.352zM509.362 837.434c3.369-0.438 6.072-1.749 7.825-3.798 1.593-1.861 2.203-3.741 2.203-6.788 0-4.287-1.84-7.507-5.399-9.443-1.861-1.013-2.498-1.13-8.064-1.476-8.023-0.499-16.982 0.067-19.233 1.215-6.263 3.195-7.768 12.24-2.855 17.153 2.608 2.608 3.879 2.921 12.843 3.157 4.408 0.116 8.444 0.24 8.968 0.275s2.195-0.098 3.711-0.295zM489.776 828.886c-1.578-1.578-1.628-2.466-0.224-3.968 1.397-1.495 3.18-1.717 12.382-1.545 7.718 0.144 7.673 0.132 9.492 2.684l0.73 1.025-2.951 3.103h-18.131zM304.426 836.039c2.422-1.144 4.133-3.119 4.884-5.638 1.987-6.657-2.255-12.187-9.757-12.724-2.874-0.205-4.72 0.508-6.869 2.657-3.142 3.142-3.845 7.354-1.882 11.279 2.61 5.224 8.135 7.018 13.625 4.426zM298.215 828.866c-1.172-1.172-1.167-1.402 0.052-2.85 1.279-1.52 2.002-1.48 3.612 0.194l1.315 1.368-1.321 1.113c-1.612 1.357-2.436 1.397-3.657 0.175zM751.472 815.005c3.412-1.38 6.183-3.599 8.089-6.479 2.554-3.858 3.062-5.632 3.096-10.8 0.028-4.305-0.005-4.47-1.307-7.055-1.786-3.539-4.867-6.583-8.451-8.347-4.164-2.051-6.612-2.233-27.583-2.054-17.499 0.15-18.034 0.176-20.45 1.021-9.801 3.426-14.333 12.985-11.015 23.229 1.317 4.065 4.37 7.613 8.248 9.589 3.715 1.892 4.202 1.927 26.428 1.842 20.66-0.078 20.813-0.084 22.943-0.946zM706.931 808.115c-4.477-1.548-7.035-5.243-7.017-10.142 0.015-4.175 2.167-7.387 6.183-9.23l2.395-1.1h19.082c17.688 0 19.234 0.051 21.158 0.716 2.858 0.988 5.484 3.64 6.291 6.354 1.278 4.302 0.403 7.953-2.609 10.89-3.359 3.276-2.853 3.21-24.622 3.196-17.048-0.011-19.111-0.079-20.861-0.684zM497.447 803.163c2.296-1.057 4.17-2.781 5.266-4.846 0.638-1.202 0.814-2.217 0.825-4.771 0.013-2.931-0.099-3.447-1.162-5.343-1.309-2.333-3.788-4.28-6.396-5.019-1.037-0.294-5.088-0.451-11.7-0.453-11.937-0.005-13.111 0.229-16.047 3.164-4.255 4.255-4.015 12.134 0.48 15.772 2.924 2.366 4.267 2.572 16.14 2.467 10.241-0.090 10.765-0.13 12.594-0.972zM474.095 795.251l-1.657-1.731 1.056-1.328c0.611-0.769 1.618-1.486 2.392-1.702 1.761-0.492 15.066-0.482 16.848 0.013 0.852 0.237 1.782 0.899 2.401 1.71l1.010 1.324-0.874 1.188c-1.58 2.145-2.138 2.257-11.225 2.257h-8.289l-1.657-1.731zM525.9 797.546c2.3-0.812 3.982-2.197 5.218-4.298 0.935-1.591 1.058-2.182 1.058-5.087 0-3.127-0.065-3.382-1.336-5.255-3.52-5.187-9.936-6.157-14.949-2.261-4.499 3.495-4.529 11.464-0.057 15.149 2.696 2.223 6.74 2.927 10.067 1.753zM521.339 790.671c-1.462-1.665-1.487-2.499-0.119-4.029l1.066-1.192 1.224 1.030c0.673 0.566 1.224 1.392 1.224 1.834 0 0.651-1.741 3.708-2.111 3.708-0.054 0-0.633-0.607-1.283-1.349zM407.060 728.68l-10.242-0.203-1.841-2.141-0.042-43.199c-0.023-23.76-0.007-43.628 0.036-44.153s0.346-1.254 0.674-1.622c0.566-0.634 8.973-0.667 166.384-0.667 118.029 0 166.010 0.119 166.558 0.412 1.664 0.891 1.709 1.599 1.627 25.921-0.042 12.699-0.096 23.39-0.118 23.757-0.090 1.484-1.422 2.194-4.143 2.207-2.814 0.013-3.658 0.417-4.279 2.047-0.253 0.667-0.397 7.356-0.397 18.532 0 16.172-0.051 17.551-0.677 18.323l-0.677 0.835-16.203-0.043c-17.59-0.047-17.154 0.005-18.599-2.199-0.612-0.935-0.682-2.521-0.781-17.646-0.071-11.015-0.25-16.979-0.531-17.686-0.888-2.242 0.039-2.177-31.037-2.177-32.029 0-30.344-0.149-31.124 2.747-0.296 1.101-0.396 6.759-0.319 18.22 0.083 12.492-0.005 16.833-0.352 17.466-0.255 0.463-1.019 0.979-1.699 1.145s-8.23 0.217-16.779 0.112l-15.544-0.191-2.115-2.115-0.382-35.157-2.493-2.227-28.522 0.006c-21.877 0.005-28.735 0.115-29.438 0.477-0.504 0.26-1.277 0.956-1.717 1.549-0.78 1.050-0.802 1.499-0.901 17.746-0.111 18.253-0.010 17.454-2.403 19.215-0.858 0.631-2.17 0.687-16.728 0.722-15.267 0.036-15.822 0.011-16.553-0.719s-0.758-1.352-0.804-18.46c-0.044-16.366-0.099-17.783-0.736-18.755-0.379-0.577-1.119-1.214-1.647-1.415-0.578-0.22-12.244-0.365-29.385-0.365-31.297 0-30.175-0.084-31.018 2.335-0.285 0.817-0.423 6.729-0.423 18.114 0 9.78-0.153 17.303-0.364 17.857-0.339 0.892-2.551 1.912-3.644 1.68-0.21-0.045-4.99-0.172-10.624-0.284zM387.444 629.016c-1.988-0.575-2.431-1.904-2.275-6.842 0.118-3.739 0.228-4.312 0.974-5.058l0.841-0.841 174.796-0.097c155.847-0.086 174.918-0.034 175.919 0.484 1.297 0.671 1.398 1.028 1.666 5.917 0.232 4.218-0.099 5.209-2.063 6.194-1.261 0.633-10.381 0.666-174.976 0.634-106.492-0.021-174.123-0.172-174.881-0.391zM396.624 608.449c-0.458-0.185-1.042-0.726-1.297-1.202-0.659-1.232-0.644-201.71 0.015-202.941 0.245-0.457 0.875-0.995 1.401-1.194 1.34-0.509 330.249-0.494 331.589 0.016 2.256 0.858 2.12-6.108 2.013 103.454l-0.098 100.409-2.141 1.842-165.323-0.024c-94.266-0.014-165.682-0.169-166.157-0.36zM514.239 563.413c2.222-0.825 2.868-2.347 2.834-6.673-0.046-5.734-0.41-7.377-1.947-8.786-0.918-0.841-1.886-1.305-3.108-1.488-3.138-0.471-2.932 1.624-2.932-29.705 0-30.912-0.075-29.963 2.454-31.020 0.878-0.367 2.684-0.56 5.261-0.561 2.158 0 4.542-0.173 5.298-0.383 2.827-0.786 3.596-2.912 2.964-8.199-1.987-16.627-14.157-30.869-31.269-36.592-8.883-2.971-20.583-2.874-30.095 0.248-12.667 4.159-23.607 14.041-27.918 25.219-2.203 5.714-3.88 15.044-3.077 17.114 0.782 2.013 1.98 2.399 7.669 2.47 2.842 0.036 5.555 0.079 6.027 0.096s1.202 0.373 1.622 0.793c0.75 0.75 0.763 1.272 0.763 29.725 0 32.836 0.262 30.283-3.177 30.912-2.184 0.399-3.905 1.871-4.497 3.847-0.229 0.764-0.35 3.465-0.277 6.187 0.12 4.51 0.19 4.898 1.061 5.824 0.513 0.546 1.458 1.149 2.099 1.341 0.674 0.202 15.415 0.316 34.941 0.272 28.792-0.066 34-0.16 35.302-0.643zM449.673 559.416c-0.604-0.423-0.845-1.059-0.944-2.493-0.132-1.917-0.126-1.928 1.419-2.676 1.5-0.726 2.473-0.751 29.004-0.742 26.137 0.008 27.53 0.043 29.048 0.733l1.596 0.725-0.181 2.034c-0.113 1.272-0.416 2.212-0.81 2.512-0.49 0.372-6.988 0.477-29.476 0.477-24.925 0-28.957-0.077-29.658-0.568zM460.427 546.755c-4.060-0.567-4.548-1.491-4.704-8.906-0.167-7.956 0.394-15.862 1.242-17.502 0.442-0.854 1.234-1.522 2.439-2.059 1.558-0.693 2.573-0.798 7.973-0.825 5.952-0.030 6.22 0.004 7.060 0.839l0.873 0.87v24.48l-1.509 1.267c-1.413 1.186-1.743 1.282-5.152 1.503-2.003 0.129-4.416 0.293-5.36 0.365s-2.232 0.057-2.862-0.031zM484.672 546.139c-2.224-0.783-2.273-1.108-2.1-13.896 0.171-12.547 0.183-12.622 2.403-14.107 0.835-0.559 2.036-0.711 6.561-0.829 6.659-0.174 8.472 0.197 9.571 1.957 0.722 1.157 0.756 1.774 0.642 11.716-0.134 11.7-0.32 12.688-2.644 14.101-1.438 0.875-2.653 1.060-8.718 1.33-2.956 0.131-4.822 0.043-5.715-0.272zM459.933 510.033c-3.192-0.567-3.871-2.198-3.885-9.336-0.010-5.373 0.397-6.393 2.951-7.368 1.38-0.527 2.51-0.59 6.883-0.38 9.358 0.45 9.429 0.517 9.429 8.817 0 6.248-0.243 7.194-2.026 7.902-1.255 0.498-11.088 0.766-13.352 0.364zM482.658 510.156c-0.337-0.346-0.305-9.561 0.045-13.13 0.223-2.279 0.344-2.538 1.578-3.379 1.309-0.892 1.452-0.906 7.060-0.658 6.566 0.29 8.326 0.651 9.535 1.956 1.166 1.258 1.427 3.299 1.112 8.686-0.23 3.924-0.382 4.674-1.118 5.531l-0.852 0.991-8.536 0.149c-4.695 0.082-8.665 0.017-8.823-0.145zM487.364 485.555c-2.107-0.442-3.632-1.869-4.212-3.941-0.276-0.982-0.474-5.185-0.517-10.94l-0.070-9.343 2.284 0.082c4.534 0.162 9.806 3.692 13.504 9.040 2.146 3.104 3.362 6.102 3.723 9.177 0.267 2.281-0.379 5.016-1.302 5.51-0.952 0.509-11.419 0.833-13.408 0.415zM456.976 484.628c-0.815-0.815-0.937-1.282-0.937-3.585 0-6.478 4.030-13.11 10.42-17.149 2.171-1.372 6.175-2.754 7.98-2.754h1.147l-0.277 22.585-1.070 0.92c-1.053 0.906-1.187 0.92-8.698 0.92-7.591 0-7.633-0.005-8.566-0.937zM510.102 476.775c-1.037-1.153-1.985-2.713-2.377-3.911-3.082-9.416-11.681-16.891-22.058-19.175-4.167-0.917-11.897-0.631-15.697 0.58-9.543 3.042-15.878 8.952-19.664 18.343-0.876 2.173-1.599 3.344-2.482 4.017-2.519 1.921-5.778 2.048-6.943 0.272-0.565-0.863-0.562-1.158 0.053-3.768 1.369-5.806 5.54-12.795 10.287-17.235 10.316-9.65 25.567-13.318 39.108-9.405 3.484 1.007 8.866 3.539 11.771 5.538 4.757 3.273 9.682 8.983 12.301 14.26 1.756 3.54 3.249 8.631 2.917 9.951-0.268 1.069-1.681 1.867-3.905 2.208-1.536 0.235-1.644 0.18-3.312-1.675zM681.888 563.642c1.533-0.562 1.99-2.092 1.972-6.597-0.023-5.745-0.375-7.258-2.041-8.785-0.751-0.688-2.165-1.465-3.142-1.727s-2.005-0.827-2.287-1.256c-0.416-0.635-0.517-6.043-0.538-28.839-0.017-17.883 0.112-28.423 0.356-29.063 0.738-1.941 2.021-2.378 7.081-2.415 6.635-0.049 6.842-0.075 7.821-0.986 0.864-0.805 0.884-0.963 0.67-5.482-0.499-10.559-5.202-20.209-13.792-28.297-6.184-5.823-13.942-9.85-22.354-11.605-5.59-1.166-13.861-1.172-19.362-0.013-16.48 3.471-29.286 14.392-34.266 29.227-1.352 4.027-2.474 9.772-2.474 12.668 0 2.065 0.142 2.598 0.892 3.349 1.087 1.087 3.586 1.492 8.029 1.305 2.982-0.126 3.257-0.069 4.777 0.983 0.887 0.614 1.775 1.419 1.972 1.788 0.215 0.4 0.359 11.695 0.359 28.072v27.401l-3.433 3.295c-4.42 4.243-4.657 4.813-4.333 10.473 0.282 4.935 0.746 5.988 2.924 6.628 1.519 0.447 69.935 0.326 71.167-0.125zM621.77 560.107c-6.099-0.161-5.377 0.244-6.159-3.449l-0.341-1.609 1.603-0.776c1.567-0.758 2.227-0.776 29.247-0.774 26.885 0 27.678 0.022 28.884 0.757 1.505 0.918 1.661 2.477 0.446 4.444l-0.794 1.285h-19.181c-10.55 0-21.227 0.060-23.726 0.133s-6.989 0.068-9.978-0.010zM626.1 546.501c-1.801-0.544-2.887-1.904-3.296-4.127-0.437-2.378 0.252-19.688 0.856-21.493 0.27-0.808 0.921-1.784 1.446-2.167 1.89-1.384 12.416-2.036 15.056-0.934 2.202 0.921 2.24 1.158 2.151 13.727-0.086 12.212-0.195 12.963-2.045 14.115-0.833 0.519-8.208 1.414-11.177 1.357-0.827-0.016-2.173-0.232-2.991-0.478zM651.073 546.177c-1.443-0.533-1.543-1.448-1.543-14.047v-12.257l2.862-2.629 4.198-0.095c8.793-0.199 11.055 0.222 11.969 2.227 0.531 1.165 0.554 4.976 0.058 9.296-0.235 2.047-0.238 3.308-0.006 3.452 0.201 0.124 0.404 2.622 0.453 5.552 0.144 8.667-0.223 8.978-10.464 8.854-3.737-0.045-7.124-0.203-7.525-0.352zM626.709 510.033c-0.902-0.16-1.975-0.626-2.385-1.037-0.855-0.855-1.479-4.736-1.497-9.312-0.025-6.452 2.465-7.659 13.414-6.507 5.512 0.58 6.032 1.357 6.036 9.026 0.005 5.258-0.405 6.897-1.857 7.477-1.23 0.49-11.452 0.754-13.709 0.353zM653.918 510.132c-1.994-0.303-3.13-0.926-3.612-1.982-0.257-0.563-0.652-3.189-0.879-5.836-0.405-4.73-0.396-4.844 0.514-6.679 1.302-2.628 2.46-2.966 9.13-2.665 9.273 0.417 9.304 0.445 9.475 8.376 0.139 6.402-0.127 7.672-1.74 8.312-1.081 0.428-10.825 0.787-12.887 0.473zM625.868 485.668c-3.523-0.63-3.963-6.386-0.963-12.611 2.97-6.164 9.314-11.075 15.2-11.767l2.174-0.256v22.554l-1.174 0.988c-1.155 0.972-1.272 0.988-7.22 0.988-3.325 0-6.275 0.062-6.554 0.137s-0.937 0.060-1.462-0.034zM651.247 485.124c-1.696-0.927-1.717-1.090-1.717-12.799v-11.185h1.104c1.884 0 5.905 1.447 8.273 2.977 6.216 4.017 10.627 12.291 9.808 18.396-0.17 1.267-0.464 1.756-1.4 2.327-1.052 0.641-1.978 0.721-8.245 0.712-4.372-0.007-7.351-0.169-7.823-0.427zM610.339 477.664c-1.597-0.156-1.599-0.157-2.072-2.267-0.439-1.961-0.399-2.335 0.558-5.275 3.117-9.573 11.472-18.14 21.481-22.026 15.698-6.096 31.385-3.299 42.961 7.66 6.647 6.292 11.34 15.502 10.203 20.020l-0.423 1.681-2.699 0.266c-3.611 0.356-4.282-0.149-5.865-4.413-1.813-4.885-3.705-7.794-7.551-11.614-3.951-3.923-8.127-6.37-13.421-7.865-4.269-1.205-10.944-1.205-15.214 0-6.692 1.888-13.145 6.376-16.702 11.614-1.48 2.18-4.887 8.935-4.887 9.691 0 0.199-0.472 0.81-1.049 1.357-1.123 1.065-2.741 1.421-5.32 1.17zM399.182 395.009c-1.506-0.764-1.906-2.037-1.887-5.999 0.024-5.104 0.419-7.109 1.642-8.332l1.018-1.018h330.842l0.869 0.872c0.822 0.825 0.868 1.153 0.847 6.106-0.024 5.647-0.434 7.185-2.176 8.181-1.252 0.715-329.749 0.904-331.155 0.19zM377.276 371.823c-1.162-0.349-2.741-1.648-3.329-2.738-0.193-0.359-0.609-2.011-0.924-3.671-0.473-2.495-1.411-6.006-2.693-10.083-0.2-0.636 9.116-0.667 191.971-0.667 128.291 0 192.181 0.127 192.181 0.382 0 0.531-2.872 10.887-3.706 13.365-0.426 1.265-1.088 2.327-1.761 2.823l-1.077 0.794-184.78 0.064c-103.010 0.036-185.267-0.082-185.88-0.266zM386.899 345.939c-1.011-0.903-1.268-1.476-1.5-3.339-0.355-2.854-0.426-21.971-0.096-25.882 0.218-2.579 0.389-3.089 1.365-4.065l1.116-1.116h22.517l2.137 2.137 0.282 7.711c0.156 4.241 0.157 11.318 0.003 15.727l-0.279 8.016-2.259 1.901h-22.064l-1.221-1.090zM421.554 345.721l-1.308-1.308-0.261-5.085c-0.143-2.797-0.204-9.865-0.136-15.71l0.125-10.625 0.901-0.729c0.878-0.711 2.389-0.729 59.613-0.729 43.070 0 58.966 0.115 59.665 0.434 0.524 0.239 1.12 0.915 1.326 1.504 0.23 0.66 0.303 6.596 0.19 15.499-0.199 15.737-0.254 16.134-2.421 17.415-1.003 0.592-5.434 0.641-58.736 0.641h-57.652zM550.075 345.732l-1.297-1.297v-30.667l2.231-2.231h22.634l1.078 1.078c1.481 1.481 1.624 3.293 1.47 18.767-0.137 13.81-0.131 13.777-2.253 15.030-0.895 0.529-2.581 0.617-11.805 0.617h-10.761zM584.056 346.488c-0.71-0.518-0.745-1.209-0.851-16.315-0.061-8.676-0.018-16.148 0.096-16.606 0.54-2.18-3.917-2.031 60.649-2.031 50.538 0 59.353 0.080 59.985 0.541 0.707 0.517 0.75 1.257 0.932 16.124 0.105 8.571 0.068 16.074-0.081 16.675-0.565 2.27 3.523 2.126-60.813 2.139-50.505 0.010-59.285-0.067-59.917-0.53zM713.849 345.845l-1.349-1.184v-30.426l2.369-2.698h21.751l2.595 2.595v14.751c0 12.339-0.093 14.931-0.57 15.853-1.177 2.276-1.275 2.294-12.859 2.294h-10.588zM596.761 303.9c-4.908-1.519-8.362-4.719-14.151-13.11-2.192-3.177-5.535-7.924-7.431-10.547l-3.445-4.771 24.973-0.098c27.746-0.109 27.168-0.157 28.192 2.297 0.345 0.826 0.641 3.877 0.845 8.696 0.578 13.712 0.328 15.872-2.023 17.412-0.972 0.637-2.105 0.699-13.011 0.719-9.996 0.019-12.273-0.080-13.951-0.598zM504.698 303.922c-0.42-0.173-1.192-0.777-1.717-1.342l-0.954-1.027v-11.962c0-11.572 0.026-11.998 0.804-13.041l0.804-1.078 23.665-0.098c18.817-0.078 23.909 0.005 24.853 0.401l1.188 0.5-8.102 10.113c-11.939 14.902-13.659 16.872-15.183 17.4-1.534 0.531-24.112 0.651-25.359 0.134zM382.622 298.084c2.207-3.201 6.791-9.899 10.188-14.884s6.26-9.059 6.365-9.054c0.105 0.006 1.597 2.108 3.315 4.674s5.989 8.873 9.488 14.016c3.501 5.142 6.622 9.737 6.937 10.208l0.574 0.859h-40.881zM542.289 303.679c0-0.231 3.676-5.681 14.067-20.859 4.656-6.8 6.041-8.578 6.396-8.205 0.248 0.262 2.499 3.481 5.001 7.155s6.613 9.684 9.137 13.357c2.524 3.673 4.893 7.151 5.264 7.728l0.676 1.049h-20.271c-11.149 0-20.271-0.101-20.271-0.225zM705.631 303.667c0-0.131 4.065-6.185 9.034-13.453s9.467-13.863 9.996-14.655c0.764-1.143 1.056-1.34 1.414-0.954 0.248 0.267 3.37 4.779 6.938 10.027s7.029 10.313 7.692 11.258c1.824 2.599 4.827 6.999 5.144 7.537 0.223 0.379-3.874 0.477-19.969 0.477-11.137 0-20.249-0.107-20.249-0.238zM491.014 267.54c-1.322-0.441-1.773-1.827-1.773-5.455 0-4.012 0.596-5.619 2.305-6.216 1.583-0.552 141.016-0.625 142.463-0.075 1.303 0.495 1.717 2.172 1.631 6.611-0.064 3.295-0.171 3.823-0.926 4.58l-0.855 0.855-31.189 0.052c-17.446 0.029-31.804-0.099-32.585-0.292-1.664-0.411-3.479-2.336-4.149-4.403-0.431-1.331-2.897-6.556-3.297-6.986-0.276-0.296-0.843 0.828-1.44 2.851-1.156 3.919-3.668 6.769-7.107 8.063-1.523 0.574-4.687 0.64-31.936 0.675-16.635 0.022-30.65-0.096-31.144-0.261zM513.212 248.285l-8.66-0.114-1.112-1.112c-0.782-0.782-1.185-1.644-1.358-2.908-0.135-0.988-0.247-8.28-0.247-16.204 0-13.614 0.040-14.456 0.729-15.307l0.729-0.901 25.127-0.191c24.372-0.185 25.158-0.214 26.156-0.954 2.332-1.73 2.912-4.878 1.070-5.806-0.738-0.371-6.73-0.482-26.446-0.486l-25.492-0.006-1.852-1.852v-9.473c0-5.211 0.125-9.663 0.276-9.893 0.814-1.246 1.897-1.297 27.293-1.297 25.071 0 25.364-0.008 26.358-0.791 0.862-0.679 1.006-1.081 1.006-2.835s-0.142-2.156-1.006-2.835c-0.995-0.782-1.288-0.791-26.315-0.791-25.998 0-26.989-0.053-27.424-1.489-0.101-0.336-0.233-3.873-0.293-7.861-0.124-8.237-0.017-8.653 2.499-9.704 1.477-0.617 3.787-0.652 32.847-0.495l31.258 0.169 1.8 1.8-0.1 45.033c-0.095 42.642-0.136 45.068-0.781 45.714-0.639 0.639-2.135 0.682-24.043 0.693-12.849 0.006-27.259-0.039-32.022-0.102zM585.224 248.207c-5.527-0.238-6.679-0.668-7.414-2.776-0.283-0.813-0.411-14.668-0.411-44.766 0-43.52 0-43.591 0.791-44.595l0.791-1.006h22.621c22.511 0 22.624 0.005 23.347 0.803 0.706 0.78 0.727 2.090 0.727 45.974 0 42.847-0.035 45.205-0.682 45.852-0.633 0.634-1.889 0.683-17.746 0.704-9.385 0.013-19.297-0.073-22.027-0.191zM501.454 147.153c-0.315-0.122-1.233-0.637-2.040-1.145-1.717-1.079-3.16-3.925-4.532-8.943-1.144-4.181-1.241-12.522-0.192-16.323 3.105-11.245 10.628-19.005 35.578-36.695 2.519-1.786 6.898-4.895 9.732-6.908 5.487-3.899 15.351-9.596 18.509-10.691 4.252-1.475 7.379-0.716 14.884 3.608 24.801 14.292 33.851 20.622 43.616 30.505 6.439 6.517 10.254 12.53 12.547 19.773 0.917 2.898 1.027 3.834 1.029 8.778 0.005 4.934-0.109 5.899-1.029 8.905-1.426 4.657-2.486 6.691-4.201 8.055l-1.466 1.167-60.931 0.067c-33.512 0.037-61.189-0.033-61.504-0.156zM559.228 58.354c-3.903-0.947-7.735-4.117-9.398-7.774-1.277-2.808-1.202-7.942 0.158-10.845 1.302-2.779 3.761-5.231 6.637-6.622 1.968-0.952 2.719-1.098 5.701-1.111 2.942-0.013 3.745 0.13 5.601 0.999 8.247 3.866 10.722 13.603 5.234 20.589-1.571 2.001-4.772 4.044-7.385 4.717-2.66 0.684-3.884 0.693-6.547 0.046z"></path>
    </svg>