<svg xmlns="http://www.w3.org/2000/svg" viewBox="34.119 -49.064 702.762 1121.064">
    <path fill="#000000" d="M114.12 950.196c0-38.584 0.216-42 2.8-44.339 2.588-2.343 23.068-2.505 270.975-2.148l268.175 0.386 0.811 87.905h-542.762zM164.875 886.209c-2.669-2.669-2.245-7.015 0.841-8.629 1.472-0.769 10.155-3.259 19.298-5.532 31.767-7.901 62.39-19.55 75.707-28.799l7.042-4.89h238.489l7.13 4.988c10.336 7.23 37.224 17.638 64.184 24.844 30.243 8.083 34.045 9.478 34.671 12.726 1.441 7.483 12.599 7.128-224.346 7.128-169.99 0-221.604-0.425-223.013-1.835zM277.043 821.432c-1.899-1.9-2.403-6.008-2.403-19.637 0-19.261-0.007-19.243 12-25.283 3.657-1.839 9.581-6.047 13.165-9.351s7.853-6.007 9.485-6.007c1.633 0 5.34 2.452 8.237 5.449 6.74 6.97 19.292 14.162 29.432 16.861 12.011 3.198 69.576 2.976 80.663-0.311 11.762-3.488 18.034-6.977 26.953-14.996 4.283-3.851 9.1-7.003 10.703-7.003s5.286 2.469 8.183 5.487c2.898 3.018 8.708 7.224 12.912 9.347 13.081 6.605 12.995 6.438 12.995 25.151 0 14.542-0.376 16.956-3.057 19.637-2.999 2.999-5.096 3.057-109.962 3.057-95.148 0-107.169-0.264-109.308-2.402zM237.95 774.417c-4.625-1.083-11.266-3.457-14.758-5.278-7.685-4.004-26.434-24.323-29.482-31.951-2.080-5.205-2.013-5.652 1.251-8.295 3.348-2.71 3.615-2.705 9.055 0.212 5.2 2.787 8.784 3.005 49.528 3.005h43.922l5.224-4.586c6.029-5.294 9.42-5.787 11.614-1.689 3.087 5.769 9.093 6.276 74.394 6.276h63.151l4.269-5.35c5.045-6.323 6.7-6.54 13.162-1.724 2.677 1.995 6.93 4.179 9.453 4.855s22.473 1.477 44.334 1.779c34.801 0.482 40.462 0.23 45.485-2.032 5.439-2.448 5.895-2.438 8.79 0.182 4.93 4.462 3.624 8.689-6.342 20.529-17.839 21.192-35.859 28.506-61.26 24.86-13.357-1.917-18.873-4.306-28.714-12.434-3.784-3.126-8.753-6.899-11.044-8.386-4.039-2.622-4.292-2.603-8.408 0.62-2.334 1.828-9.542 6.728-16.016 10.889-15.64 10.051-21.247 10.945-64.616 10.304-33.267-0.492-35.614-0.718-42.475-4.097-3.995-1.967-9.842-6.309-12.995-9.651s-7.997-7.48-10.764-9.2l-5.032-3.126-6.056 4.197c-3.331 2.308-7.819 5.83-9.973 7.827s-7.834 5.668-12.621 8.16c-10.567 5.499-29.443 7.299-43.075 4.107zM281.821 718.68c-2.064-2.281-2.593-5.9-2.593-17.751 0-8.187 0.712-16.217 1.583-17.844s4.975-4.678 9.121-6.779c4.146-2.101 11.023-6.916 15.284-10.7s8.404-6.879 9.208-6.879c0.803 0 5.24 3.422 9.858 7.604s12.021 9.514 16.45 11.848l8.054 4.244h76.439l7.813-4.122c4.297-2.267 11.617-7.598 16.267-11.848s8.949-7.726 9.556-7.726c0.607 0 4.383 2.747 8.392 6.103s11.328 8.371 16.265 11.142l8.975 5.039 0.764 16.674c0.979 21.354 0.241 22.956-10.58 22.956-6.287 0-8.502-0.623-9.51-2.676-0.722-1.472-1.898-3.879-2.614-5.35-0.727-1.494-3.402-2.885-6.059-3.15-4.197-0.419-5.082 0.212-7.502 5.35l-2.743 5.826h-134.484l-2.743-5.826c-2.42-5.138-3.305-5.769-7.502-5.35-2.618 0.262-5.236 1.507-5.818 2.768-3.757 8.132-4.12 8.407-11.719 8.86-5.848 0.349-8.158-0.2-10.162-2.413zM235.478 670.82c-11.501-3.578-23.116-14.537-31.616-29.83-8.616-15.501-7.821-17.089 6.826-13.636 7.26 1.712 19.563 2.288 49.194 2.305 44.581 0.026 46.269-0.34 50.429-10.929 2.806-7.144 6.549-7.61 9.264-1.154 1.179 2.805 4.614 6.206 8.491 8.408l6.51 3.697h55.438c53.77 0 55.559-0.096 59.467-3.169 2.215-1.743 4.028-4.41 4.028-5.928s1.032-3.616 2.293-4.662c2.675-2.22 6.153-0.112 7.662 4.643 0.533 1.68 4.325 4.119 9.289 5.977 7.68 2.873 11.785 3.139 48.638 3.139 38.547 0 40.421-0.136 44.322-3.203 4.892-3.848 8.114-2.966 9.512 2.604 1.529 6.091-2.947 13.306-16.991 27.397-14.307 14.355-17.952 15.92-39.752 17.069-19.653 1.036-28.949-1.534-42.96-11.876-15.762-11.635-18.773-11.596-32.734 0.43-12.861 11.078-15.911 11.731-55.262 11.828-42.514 0.105-47.249-1.117-59.662-15.388-7.024-8.076-8.104-8.761-12.443-7.893-2.614 0.523-9.59 4.83-15.502 9.573-6.634 5.32-13.892 9.612-18.952 11.208-11.203 3.533-33.115 3.239-45.484-0.609zM287.068 618.451c-1.247-1.502-1.688-7.947-1.393-20.328l0.432-18.128 9.044-4.803c4.974-2.642 12.325-7.629 16.336-11.084s8.065-6.281 9.010-6.281c0.945 0 5.289 3.304 9.653 7.341 16.344 15.121 22.856 17.077 56.96 17.101 33.385 0.026 42.254-2.819 59.138-18.959 3.155-3.016 6.489-5.483 7.409-5.483s4.874 2.825 8.787 6.276c3.913 3.452 11.070 8.277 15.905 10.723l8.79 4.447v19.688c0 21.804 0.116 21.565-10.445 21.521-6.634-0.026-8.667-1.145-10.028-5.508-1.553-4.983-6.375-8.647-9.904-7.527-1.692 0.537-4.321 3.523-5.843 6.635l-2.766 5.659-60.247 0.4c-54.436 0.362-60.518 0.155-63.062-2.148-1.549-1.402-2.815-3.367-2.815-4.367s-1.327-3.020-2.948-4.487c-4.142-3.748-8.815-1.807-12.005 4.986-2.473 5.267-3.12 5.645-10.412 6.069-5.351 0.312-8.345-0.232-9.601-1.746zM250.757 572.871c-13.123-2.234-31.013-14.681-36.336-25.28-1.349-2.688-4.132-6.697-6.184-8.911-3.902-4.21-6.365-11.767-4.707-14.448 1.517-2.455 6.369-1.846 11.834 1.486 4.688 2.858 7.729 3.053 47.987 3.057 41.277 0.005 43.143-0.121 47.040-3.187 2.232-1.756 5.094-5.196 6.361-7.643 3.014-5.829 7.561-5.823 9.595 0.013 0.856 2.455 2.987 5.895 4.736 7.643 3.099 3.099 4.532 3.18 56.758 3.18h53.578l2.604-4.737c3.586-6.522 7.927-12.079 9.435-12.079 0.692 0 3.418 3.366 6.058 7.479s6.323 7.888 8.185 8.388c1.862 0.5 22.648 0.912 46.192 0.919 39.862 0.008 43.117-0.194 47.321-2.965 9.244-6.094 11.412 3.237 3.677 15.822-9.010 14.658-24.563 26.724-39.406 30.575-7.918 2.054-25.94 2.133-32.45 0.143-11.516-3.521-20.232-9.245-29.208-19.178-5.257-5.817-10.010-10.583-10.564-10.591s-4.419 4.327-8.589 9.634c-9.093 11.57-19.522 18.548-30.916 20.687-4.625 0.868-19.078 1.443-32.12 1.277-22.9-0.292-24.014-0.455-32.566-4.781-7.972-4.033-15.82-11.2-25.587-23.364-2.613-3.254-3.583-3.706-4.202-1.958-1.339 3.781-17.387 18.121-25.534 22.816-10.705 6.17-27.914 8.573-42.994 6.007zM294.133 517.958c-2.309-1.344-2.676-4.029-2.676-19.591 0-20.027-0.018-19.987 11.466-25.868 3.364-1.722 9.457-5.931 13.543-9.351s8.103-6.218 8.928-6.218c0.825 0 5.333 3.416 10.016 7.591 15.77 14.055 27.969 17.603 56.924 16.558 16.79-0.607 20.393-1.222 28.259-4.823 4.958-2.27 12.632-7.548 17.051-11.727s9.053-7.599 10.296-7.599c1.243 0 5.767 2.993 10.053 6.652s10.361 7.952 13.502 9.542c11.15 5.645 11.060 5.446 11.060 24.447 0 19.775-1.101 22.040-10.71 22.040-5.244 0-6.392-0.727-10.26-6.497-5.659-8.442-10.035-9.188-14.063-2.394-1.654 2.788-3.762 5.93-4.686 6.981-1.283 1.461-14.287 1.911-55.136 1.911h-53.457l-3.429-4.084c-9.382-11.171-11.632-11.976-15.97-5.707-5.411 7.816-8.060 9.792-13.066 9.745-2.733-0.026-6.173-0.748-7.643-1.605zM247.233 468.907c-16.132-4.633-29.834-20.889-32.899-39.031-1.335-7.902 0.381-9.056 8.748-5.887 5.473 2.074 13.002 2.383 49.253 2.023l42.792-0.425 2.428-5.144c3.641-7.714 6.686-8.752 10.394-3.546 2.143 3.009 5.792 5.141 11.962 6.987 7.749 2.319 14.679 2.596 54.528 2.18l45.651-0.477 4.315-5.171c4.749-5.692 8.55-5.656 9.368 0.088 0.395 2.767 1.798 3.742 6.616 4.592 8.972 1.583 86.049 1.491 87.036-0.104 0.462-0.748 2.738-1.833 5.059-2.412s5.397-2.115 6.837-3.412c3.937-3.547 7.319-1.411 7.319 4.623 0 3.521-1.641 7.328-5.127 11.896-2.82 3.695-5.595 8.193-6.167 9.997-1.414 4.459-14.284 16.272-22.504 20.657-6.123 3.266-8.601 3.581-28.118 3.581-23.924 0-29.652-1.68-40.924-12.004-3.098-2.838-8.184-7.105-11.302-9.484l-5.67-4.325-8.507 9.358c-4.941 5.436-11.804 11.005-16.373 13.288-7.577 3.786-8.871 3.929-35.162 3.897-32.583-0.039-34.538-0.666-49.805-15.938l-10.279-10.283-4.788 3.41c-2.633 1.875-8.615 6.758-13.293 10.852-5.385 4.712-11.317 8.277-16.168 9.718-8.719 2.589-36.854 2.897-45.219 0.495zM300.63 417.596c-4.030-1.534-4.539-3.896-4.539-21.053 0-9.249 0.505-17.587 1.123-18.527s4.666-3.498 8.996-5.681c4.33-2.184 11.079-6.746 14.998-10.137s8.328-6.167 9.799-6.167c1.471 0 6.416 3.203 10.99 7.119 25.814 22.096 63.688 22.321 89.083 0.531 4.903-4.207 10.067-7.649 11.477-7.649s6.341 3.123 10.959 6.94c4.618 3.817 11.262 8.224 14.764 9.793s7.136 4.292 8.077 6.051c1.046 1.954 1.542 9.583 1.278 19.618-0.432 16.354-0.452 16.43-4.768 18.495-6.987 3.343-14.4 1.145-17.407-5.163-4.12-8.641-10.83-8.699-15.218-0.131-1.347 2.631-3.214 5.288-4.147 5.906-2.568 1.699-95.459 1.416-98.665-0.3-1.511-0.809-3.604-3.537-4.65-6.065-3.307-7.985-12.666-7.471-14.744 0.811-1.375 5.48-10.241 8.336-17.406 5.61zM257.335 369.719c-9.010-2.247-18.545-8.52-26.984-17.754-4.228-4.627-7.688-9.022-7.688-9.767s-3.096-4.84-6.879-9.1c-11.328-12.755-8.171-18.807 6.145-11.786l8.084 3.965 89.131 0.588 4.484-4.297c2.467-2.363 4.882-5.551 5.369-7.085 1.321-4.163 6.339-3.384 8.621 1.339 1.097 2.27 4.21 5.418 6.92 6.995 4.431 2.58 8.597 2.876 41.535 2.954 40.546 0.096 40.809 0.039 51.285-10.911 2.469-2.581 5.382-4.693 6.472-4.693s3.725 3.44 5.855 7.643c2.304 4.548 4.947 7.698 6.523 7.777 1.457 0.073 21.040 0.104 43.517 0.068 43.588-0.069 44.127-0.152 52.528-8.094 3.958-3.742 5.017-4.118 6.512-2.317 2.214 2.668-2.776 20.048-8.162 28.424-5.312 8.262-15.836 17.654-25.244 22.529-7.875 4.081-9.571 4.357-26.753 4.357-18.092 0-18.473-0.072-27.517-5.243-5.045-2.884-12.84-8.559-17.322-12.612s-9.336-7.37-10.787-7.37c-3.098 0-11.843 6.163-14.863 10.475-1.16 1.656-6.757 5.652-12.437 8.88l-10.328 5.87h-18.345c-21.735 0-26.034-1.651-44.683-17.154-6.351-5.279-11.811-9.599-12.134-9.599s-4.892 4.003-10.151 8.896c-5.259 4.893-13.646 10.894-18.637 13.336-7.824 3.828-11.085 4.489-23.65 4.793-8.016 0.194-17.202-0.304-20.414-1.104zM303.799 313.782c-2.697-3.428-3.169-6.174-3.169-18.446 0-16.078 1.077-19.229 7.755-22.683 2.534-1.311 9.028-6.133 14.432-10.717s10.84-8.335 12.081-8.335c1.24 0 5.074 3.007 8.52 6.684 7.628 8.139 22.095 15.684 34.352 17.918 17.145 3.124 36.907-3.466 51.753-17.258 4.347-4.039 9.087-7.343 10.533-7.343s5.236 2.834 8.422 6.297c3.187 3.463 9.406 8.345 13.821 10.848s8.473 5.274 9.020 6.158c0.547 0.885 1.264 8.175 1.593 16.2 0.741 18.066-0.845 22.711-8.225 24.096-7.167 1.344-12.171-1.26-14.881-7.747-1.897-4.538-3.016-5.403-6.999-5.403-3.966 0-5.105 0.867-6.955 5.296-1.217 2.913-3.545 6.008-5.172 6.879-1.836 0.983-18.879 1.584-44.864 1.584-38.655 0-42.101-0.217-44.435-2.796-1.391-1.537-2.53-3.495-2.53-4.349 0-2.913-5.854-6.861-9.421-6.354-2.263 0.322-4.428 2.353-5.95 5.586-2.927 6.215-5.357 7.86-11.654 7.89-3.444 0.017-5.78-1.148-8.026-4.005zM261.346 266.739c-19.598-7.283-53.65-43.217-48.638-51.326 1.573-2.545 4.181-1.804 8.621 2.45 2.334 2.236 7.102 4.572 10.785 5.284 9.726 1.88 87.976 1.739 91.533-0.165 1.618-0.865 3.998-3.618 5.289-6.115 3.063-5.924 5.586-5.73 10.574 0.81l4.081 5.35h81.644l7.387-5.253c4.063-2.888 8.189-4.917 9.168-4.508s3.17 2.945 4.868 5.634l3.088 4.891 79.435 0.692 6.115-4.234c3.364-2.329 7.491-6.413 9.173-9.078 3.352-5.309 7.88-6.497 8.715-2.286 0.293 1.472-1.078 7.147-3.044 12.612-8.168 22.701-20.393 38.188-35.146 44.525-17.851 7.667-42.017 4.651-55.382-6.911-3.988-3.45-10.739-9.202-15.004-12.784l-7.753-6.511-4.64 5.746c-13.279 16.445-28.68 24.856-45.514 24.856-15.229 0-24.12-4.212-37.338-17.689-14.002-14.276-16.13-15.596-19.119-11.861-1.231 1.538-2.949 4.653-3.818 6.922s-3.761 5.542-6.427 7.272c-2.665 1.731-7.193 4.868-10.062 6.972-12.001 8.802-32.28 10.765-48.592 4.703zM294.205 215.872c-3.169-0.834-4.929-5.707-3.187-8.82 0.701-1.253 6.762-6.038 13.47-10.635 14.231-9.753 35.715-29.015 44.364-39.776 8.642-10.752 18.86-28.132 20.741-35.277 3.070-11.661 4.75-12.998 16.302-12.971 5.656 0.013 11.111 0.549 12.122 1.192s3.877 6.18 6.37 12.306c6.299 15.479 12.882 25.837 25.388 39.944 11.581 13.065 26.079 25.504 42.42 36.393 11.865 7.907 13.974 11.77 8.74 16.009-2.817 2.281-5.733 2.798-14.335 2.544-13.885-0.411-16.064-1.283-19.046-7.626-1.91-4.060-3.519-5.34-7.164-5.696-4.203-0.411-4.95 0.173-7.043 5.498-1.877 4.778-3.329 6.156-7.333 6.957-6.269 1.253-72.634 0.976-78.541-0.329-3.021-0.667-5.152-2.619-6.893-6.316-2.041-4.331-3.379-5.35-7.019-5.35-3.619 0-5.071 1.089-7.435 5.579-2.084 3.958-4.272 5.846-7.527 6.497-5.097 1.019-20.345 0.943-24.391-0.122zM377.943 101.38c-2.023-2.023-2.403-7.205-2.403-32.809 0-29.311 0.121-30.519 3.346-33.524 4.008-3.734 12.259-4.111 15.654-0.714 2.030 2.030 2.402 7.322 2.402 34.091 0 22.609-0.526 32.215-1.835 33.524-2.677 2.678-14.305 2.292-17.166-0.568z"></path>
    </svg>