<svg xmlns="http://www.w3.org/2000/svg" viewBox="-33.437 -48.000 1077.085 1120.000">
    <path fill="#000000" d="M390.565 989.045c-1.076-2.011-1.583-102.76-1.583-314.794v-311.837l-3.945-3.103c-2.767-2.177-3.664-3.989-3.003-6.073 0.994-3.13 9.338-5.809 39.050-12.533 30.888-6.99 34.191-8.097 36.24-12.146 2.033-4.018 2.66-17.841 1.004-22.155-0.535-1.394-2.502-3.116-4.372-3.827-2.488-0.946-3.677-3.029-4.435-7.775-1.108-6.929-0.392-8.432 4.43-9.293 2.72-0.486 3.165-2.15 4.033-15.052 1.35-20.079 1.498-56.994 0.311-77.594-0.946-16.423-1.16-17.27-4.579-18.127-2.663-0.668-3.586-1.971-3.586-5.054 0-4.151 7.303-11.592 37.699-38.414 5.181-4.571 9.48-9.26 9.554-10.418s-2.272-4.773-5.214-8.030c-7.763-8.593-7.209-11.837 4.54-26.602 4.202-5.28 4.585-6.819 5.141-20.661l0.601-14.955-6.669-4.139c-7.641-4.742-13.549-9.831-13.549-11.671 0-0.694 2.483-1.262 5.516-1.262 5.13 0 5.449 0.269 4.551 3.846-0.795 3.167-0.266 4.112 2.992 5.35 5.335 2.029 5.286 2.052 5.286-2.496 0-3.402 0.514-3.863 3.44-3.078 1.892 0.507 3.98 0.931 4.64 0.942s0.464 1.397-0.436 3.078c-2.003 3.743 0.744 4.133 5.226 0.742 2.483-1.879 2.663-2.809 1.179-6.066-1.713-3.759-1.614-3.848 4.329-3.848 4.217 0 6.082 0.662 6.082 2.157 0 2.015-1.508 3.426-13.853 12.963-7.793 6.020-8.072 8.938-2.541 26.538 2.71 8.625 6.476 17.849 8.368 20.497 5.044 7.060 4.476 12.675-1.911 18.864-2.943 2.852-5.35 5.966-5.35 6.921 0 1.79 4.897 6.589 31.719 31.082 12.339 11.268 15.668 15.17 15.668 18.364 0 2.739-1.117 4.545-3.44 5.564l-3.44 1.509-0.841 107.006 3.974 3.205c2.666 2.151 4.245 5.226 4.797 9.345 0.748 5.577 0.474 6.227-2.989 7.096-4.532 1.137-5.657 4.549-5.685 17.236-0.013 6.138 0.709 9.973 2.096 11.124 1.164 0.967 11.265 3.819 22.446 6.341 27.883 6.287 44.346 10.418 48.43 12.152 4.554 1.933 4.37 6.68-0.383 9.793l-3.821 2.504v311.912c0 212.086-0.506 312.859-1.582 314.87-1.542 2.882-4.41 2.957-113.067 2.957s-111.525-0.075-113.067-2.957zM494.906 936.206c0.666-5.886 1.010-38.56 0.764-72.611-0.425-59.082-0.588-62.152-3.557-67.207-1.711-2.913-5.352-6.605-8.090-8.204-4.862-2.84-5.054-2.841-8.187-0.054-1.764 1.569-4.472 5.605-6.017 8.968-2.591 5.644-2.811 11.444-2.842 75.287-0.035 67.66 0.035 69.24 3.092 72.297 2.639 2.639 4.722 3.055 13.376 2.675l10.251-0.45zM539.507 946.223c1.613-2.611 2.533-121.207 1.028-132.671-1.189-9.057-2.471-12.45-7.078-18.727-3.095-4.216-6.089-7.665-6.654-7.665s-3.947 4.303-7.513 9.563l-6.485 9.563v136.625l3.397 2.379c3.786 2.651 21.796 3.371 23.304 0.932zM484.584 430.935c1.25-1.037 1.937-7.038 2.052-17.928 0.171-16.074 0.084-16.499-4.791-23.652-2.73-4.006-5.308-7.27-5.728-7.253s-2.777 2.872-5.236 6.347c-4.233 5.979-4.48 7.182-4.62 22.515-0.082 8.909 0.135 17.115 0.481 18.236 1.411 4.573 13.057 5.706 17.842 1.734zM539.98 411.054l0.424-20.693-9.482-9.058-4.472 4.992c-4.451 4.969-4.472 5.083-4.472 24.586 0 10.777 0.489 20.083 1.088 20.681s4.553 0.885 8.79 0.637l7.702-0.451zM531.549 265.888c1.568-25.748-0.105-84.468-2.45-85.96-3.114-1.982-49.099-1.387-51.147 0.661-1.353 1.353-1.835 15.128-1.835 52.484 0 27.857 0.474 51.124 1.054 51.704s12.789 0.866 27.134 0.637l26.079-0.417zM492.074 229.048c-0.506-0.819-0.431-6.713 0.167-13.096 1.302-13.893 3.844-17.325 12.831-17.325 3.313 0 6.364 0.549 6.778 1.22s1.6 7.267 2.634 14.66c1.571 11.231 1.536 13.652-0.218 14.736-2.902 1.793-21.063 1.635-22.192-0.193zM52.817 988.022c-2.348-0.987-4.715-2.959-5.261-4.383s-0.993-36.506-0.993-77.962c0-71.385 0.152-75.562 2.862-78.909 2.564-3.167 4.554-3.629 19.118-4.437 18.304-1.015 19.882-1.858 22.092-11.783 2.243-10.080-0.322-11.486-19.852-10.882l-15.813 0.489-0.411-34.708c-0.46-38.897-1.11-36.65 11.111-38.448 3.363-0.495 26.063-3.994 50.446-7.775 59.802-9.275 124.54-19.281 173.503-26.817 22.281-3.429 47.389-7.345 55.796-8.702s17.35-2.732 19.872-3.055c9.144-1.174 9.072-1.517 9.036 42.994-0.022 25.56-0.612 41.184-1.596 42.168-0.859 0.859-10.43 2.6-21.268 3.868-29.867 3.495-30.066 3.607-28.648 16.183 1.134 10.062 3.118 10.645 28.123 8.262 12.348-1.177 21.074-1.398 21.997-0.558 0.987 0.9 1.529 34.828 1.529 95.858 0 77.82-0.369 94.912-2.098 96.994-2.921 3.519-17.348 3.515-20.262-0.005-1.597-1.928-2.004-7.471-1.706-23.187 0.411-21.612-2.474-52.397-6.617-70.609-1.981-8.71-4.697-14.108-14.598-29.018-12.494-18.816-15.44-21.272-23.178-19.33-4.003 1.005-15.279 17.417-23.258 33.85-9.031 18.601-9.938 24.679-9.938 66.551 0 37.357-0.025 37.653-3.538 40.953-4.925 4.627-21.508 4.881-23.924 0.367-0.956-1.786-1.582-16.532-1.582-37.243 0-18.858-0.675-37.847-1.5-42.198-2.983-15.73-21.798-51.288-29.247-55.275-4.23-2.264-9.639-0.73-12.396 3.515-3.361 5.177-13.808 28.964-20.317 46.26l-5.752 15.287 0.285 34.15c0.202 24.208-0.235 34.778-1.504 36.306-2.063 2.484-17.636 2.967-21.287 0.659-1.915-1.21-2.419-8.328-3.057-43.162l-0.764-41.712-5.783-12.113c-7.867-16.477-16.013-29.619-19.523-31.498-6.836-3.659-9.829-0.648-20.3 20.425-5.501 11.071-10.793 22.881-11.761 26.243-0.991 3.444-2.105 22.47-2.551 43.567-0.436 20.599-1.388 38.088-2.117 38.864-1.951 2.080-28.399 2.047-33.367-0.043zM154.9 813.002c12.3-1.762 24.023-3.998 26.051-4.968 2.189-1.047 4.538-4.243 5.78-7.865 1.882-5.483 1.826-6.295-0.54-8.025-1.448-1.058-6.433-1.925-11.078-1.925-12.941 0-50.917 3.298-54.818 4.761-6.965 2.611-7.908 16.254-1.343 19.432 4.898 2.371 11.318 2.12 35.948-1.409zM262.404 803.264c10.674-1.199 21.497-3.262 24.051-4.582 5.733-2.964 9.614-10.127 8.989-16.587l-0.472-4.871-9.937 0.338c-11.832 0.401-45.795 4.63-53.859 6.706-6.758 1.739-9.444 5.941-8.164 12.77 1.669 8.894 7.482 9.813 39.392 6.228zM202.486 988.493l-3.821-1.935v-42.756c0-42.548 0.019-42.793 3.821-50.399 4.606-9.212 9.893-11.224 11.275-4.292 0.471 2.361 3.342 16.311 6.382 31.001 3.658 17.68 4.966 26.896 3.871 27.262-1.059 0.353-1.663 6.967-1.678 18.386-0.012 9.809-0.543 18.652-1.177 19.65-1.345 2.116-8.548 5.074-12.275 5.041-1.417-0.013-4.296-0.893-6.398-1.957zM690.188 988.958c-5.719-1.35-6.447-7.473-5.903-49.582l0.495-38.33 6.086-11.143c8.257-15.118 10.672-14.737 16.58 2.618 4.254 12.495 4.409 14.034 5.223 51.983 0.769 35.803 0.616 39.293-1.802 41.299-3.080 2.556-15.312 4.421-20.68 3.155zM791.503 989.003c-6.421-2.721-6.865-5.916-6.242-44.892 0.58-36.284 0.669-37.149 4.926-48.033 2.384-6.096 4.968-11.083 5.742-11.083 4.34 0 7.227 3.66 8.739 11.078 3.852 18.9 7.442 47.847 6.104 49.227-0.774 0.799-1.407 10.561-1.407 21.693s-0.581 20.601-1.292 21.039c-2.741 1.694-13.387 2.317-16.569 0.969zM835.401 988.986c-1.867-1.165-2.264-7.531-2.359-37.792-0.111-35.659-0.198-36.636-4.34-48.534-2.325-6.679-8.026-19.57-12.67-28.649-11.37-22.229-18.416-27.506-24.625-18.443-7.419 10.827-20.924 36.566-24.442 46.586-3.699 10.535-3.879 12.491-3.413 37.108 0.634 33.43 0.293 43.137-1.641 46.748-1.331 2.487-3.295 2.933-12.927 2.933-9.664 0-11.593-0.441-12.94-2.957-0.962-1.797-1.582-17.007-1.582-38.772 0-19.699-0.69-39.456-1.534-43.904-1.78-9.385-13.197-36.761-20.316-48.711-6.411-10.763-12.791-13.878-19.927-9.73-5.264 3.060-17.226 19.5-23.077 31.717-6.037 12.605-8.401 28.704-10.258 69.843-0.961 21.28-2.423 39.552-3.25 40.603-1.817 2.308-20.377 2.631-21.769 0.378-1.25-2.022-1.385-192.493-0.138-193.741 1.23-1.23 11.667-0.79 29.492 1.244 16.458 1.879 19.729 0.824 21.163-6.822 1.104-5.885-2.184-13.676-6.51-15.421-1.503-0.607-10.348-1.692-19.658-2.413s-18.768-2.011-21.019-2.867l-4.093-1.556v-41.986c0-23.092 0.516-42.285 1.147-42.651 1.146-0.665 5.958 0.030 77.58 11.195 21.019 3.277 58.853 9.146 84.077 13.043s46.892 7.617 48.153 8.265c1.923 0.988 2.36 7.045 2.703 37.51 0.237 20.972-0.194 37.060-1.020 38.055-1.034 1.246-5.752 1.327-17.040 0.292-17.891-1.642-19.802-0.668-19.802 10.088 0 9.717-0.393 9.606 55.161 15.607 11.028 1.192 10.572 3.427 10.572-51.829v-49.57l4.138-2.71c3.518-2.304 7.738-2.71 28.169-2.71 22.055 0 24.385 0.264 28.346 3.221l4.315 3.221 0.402 52.519c0.23 29.978 1.016 53.133 1.833 53.949 0.787 0.787 3.971 1.844 7.076 2.349 3.736 0.607 6.735 2.377 8.866 5.233 3.17 4.246 3.22 5.452 3.188 76.433-0.017 39.666-0.544 73.998-1.167 76.295-1.703 6.268-7.459 8.227-23.604 8.034-7.759-0.093-14.526-0.588-15.038-1.101-2.402-2.402-3.655-14.627-3.725-36.334-0.043-13.032-0.735-30.47-1.54-38.751-1.3-13.367-2.257-16.626-8.533-29.045-16.97-33.578-19.163-34.032-35.555-7.359-12.95 21.073-13.936 26.063-13.964 70.658-0.017 26.481-0.529 36.65-1.933 38.417-2.244 2.824-17.645 4.887-20.972 2.81zM783.072 803.669c2.16-2.161 2.485-17.455 0.398-18.745-0.789-0.488-13.343-2.241-27.898-3.893s-29.213-3.402-32.577-3.885c-4.008-0.576-7.085-0.158-8.93 1.21-2.449 1.817-2.601 2.872-1.165 8.122 0.908 3.318 3.206 7.89 5.108 10.159 3.209 3.83 4.887 4.282 23.331 6.293 25.88 2.822 39.411 3.062 41.733 0.741zM878.105 988.112c-1.813-2.189-2.234-8.725-2.2-34.186 0.039-30.069 0.238-32.147 4.409-46.373 5.735-19.557 6.8-20.95 11.103-14.527 2.273 3.394 4.32 11.003 6.472 24.070 3.668 22.272 3.913 25.662 3.504 48.366-0.371 20.621-1.728 23.106-13.351 24.46-6.226 0.726-8.122 0.381-9.937-1.81zM108.416 985.704c-0.565-1.782-1.186-10.209-1.378-18.727s-0.802-16.517-1.354-17.779c-1.748-3.99 7.312-53.111 10.431-56.557 3.602-3.981 4.21-3.878 7.211 1.202 1.895 3.207 3.106 12.759 4.895 38.599 1.308 18.885 2.704 38.626 3.103 43.868 0.865 11.372-0.48 12.634-13.474 12.634-7.221 0-8.55-0.457-9.434-3.241zM297.897 987.871c-3.926-2.887-4.411-7.312-3.344-30.538 1.973-42.956 3.955-61.13 7.681-70.418 1.891-4.715 4.131-8.797 4.978-9.071s3.312 1.143 5.477 3.151c3.484 3.231 4.336 6.263 7.407 26.373 1.909 12.498 4.014 25.302 4.679 28.455 0.684 3.249 0.616 5.733-0.158 5.733-0.751 0-1.366 10.318-1.366 22.93v22.93l-4.204 0.013c-2.312 0.008-7.643 0.384-11.847 0.837s-8.39 0.276-9.303-0.396zM869.748 697.485c-4.785-1.031-14.522-5.453-14.522-6.595 0-2.549 7.469-7.677 11.182-7.677 5.864 0 9.644-4.565 10.907-13.172 2.198-14.992 9.497-25.045 18.183-25.045 3.299 0 4.061-3.459 4.061-18.438 0-22.834 5.572-31.162 14.723-22.009 3.741 3.741 3.846 4.353 2.827 16.58-1.265 15.185 0.305 19.228 10.803 27.832 8.754 7.174 11.392 12.2 11.392 21.711 0 8.598 2.077 11.144 11.465 14.047 9.952 3.077 12.879 8.894 6.043 12.008-3.746 1.707-79.597 2.369-87.062 0.76z"></path>
    </svg>