<svg xmlns="http://www.w3.org/2000/svg" viewBox="-25.583 79.939 1174.158 864.065">
    <path fill="#000000" d="M253.872 863.047l-2.763-0.875-0.118-9.048c-0.065-4.978 0.065-12.777 0.291-17.337 0.918-18.583 2.039-36.908 2.462-40.251 0.281-2.195 0.508-12.82 0.598-27.803l0.146-24.25 1.153-1.799c1.678-2.613 2.656-5.022 3.128-7.709 0.82-4.66 2.041-19.512 2.416-29.398 0.402-10.577 0.798-15.527 1.809-22.689 0.336-2.388 0.765-5.497 0.952-6.913s0.325-5.319 0.303-8.683c-0.021-3.361 0.262-9.040 0.632-12.623 1.326-12.873 1.447-15.091 2.019-36.108 0.636-23.463 0.754-25.174 2.987-43.211 0.203-1.628 0.534-15.479 0.737-30.78s0.552-31.728 0.773-36.503c0.221-4.775 0.51-11.966 0.641-15.981s0.516-11.295 0.855-16.178c0.339-4.883 0.666-14.295 0.721-20.916 0.104-11.839 1.016-34.722 1.787-44.787 0.215-2.822 0.505-8.685 0.644-13.030l0.25-7.9-0.948-1.098c-0.547-0.634-1.612-1.252-2.525-1.463-3.053-0.704-50.383-1.315-94.377-1.221-32.392 0.072-44.715-0.027-45.949-0.358-0.929-0.248-2.252-1.020-2.946-1.714-2.248-2.248-2.342-3.636-1.59-23.135 0.833-21.632 0.853-21.852 2.018-23.2l0.922-1.069 14.263 0.116c7.846 0.061 15.894 0.27 17.888 0.459 2.097 0.201 10.683 0.193 20.394-0.017 9.224-0.201 24.817-0.523 34.649-0.712s17.981-0.452 18.11-0.578c0.127-0.127-0.282-0.869-0.909-1.65-5.979-7.448-5.913-9.4 0.349-10.46 3.009-0.512 5.178-0.457 24.359 0.605 13.954 0.773 16.558 0.765 17.716-0.048 0.885-0.62 0.91-0.785 0.64-3.846-0.402-4.512-0.294-10.175 0.391-21.027 0.325-5.172 0.704-11.179 0.842-13.349 0.347-5.538 0.258-5.627-5.969-6.13-2.603-0.21-16.544-0.743-30.977-1.183-56.597-1.731-63.883-1.943-79.712-2.352-23.832-0.614-32.975-1.069-35.712-1.774-3.843-0.989-7.904-3.196-10.43-5.671-4.714-4.615-6.243-9.605-11.872-38.73-1.619-8.377-2.376-10.608-3.878-11.41-1.197-0.641-10.433-2.037-17.078-2.582-9.422-0.776-11.169-1.898-13.162-8.456-3.152-10.373-11.105-28.419-14.438-32.775-1.688-2.203-1.947-2.787-1.938-4.34 0.010-1.738 0.089-1.854 2.393-3.526 1.309-0.952 3.344-2.61 4.522-3.686 2.129-1.945 2.155-1.956 4.417-1.788 1.249 0.094 4.494 0.822 7.207 1.623s9.906 2.683 15.981 4.186c22.894 5.66 25.889 6.25 35.117 6.934 4.34 0.322 8.157 0.666 8.486 0.765s4.238 0.625 8.685 1.17c4.45 0.545 11.553 1.446 15.784 2.004 19.064 2.515 29.332 3.702 47.944 5.539 3.471 0.343 12.44 1.489 19.927 2.545 16.253 2.294 23.521 3.041 32.753 3.361 3.8 0.133 9.747 0.5 13.218 0.813 20.213 1.832 25.497 2.129 38.473 2.14 10.444 0.010 13.883 0.147 16.375 0.641 2.587 0.512 8.046 0.685 30.189 0.944 14.867 0.174 29.783 0.501 33.149 0.726 5.704 0.38 13.25 0.67 42.62 1.639 6.403 0.212 18.566 0.666 27.033 1.015 8.905 0.366 17.914 0.525 21.379 0.382 3.295-0.138 9.51-0.060 13.811 0.171s14.394 0.51 22.424 0.618c23.622 0.318 98.071 0.147 105.362-0.245 3.691-0.197 18.607-0.366 33.149-0.373 19.96-0.010 28.471-0.165 34.725-0.628 5.29-0.391 17.918-0.732 34.922-0.943 16.825-0.209 29.905-0.561 35.514-0.954 4.883-0.344 12.698-0.886 17.364-1.209s11.858-0.594 15.981-0.604c4.123-0.010 9.095-0.182 11.050-0.38s5.329-0.549 7.497-0.78c12.777-1.359 18.485-1.691 33.937-1.989 12.499-0.24 17.958-0.494 20.719-0.963 5.946-1.007 9.456-1.343 18.941-1.808 10.016-0.49 18.751-1.398 32.555-3.383 5.209-0.749 11.867-1.7 14.799-2.116s8.523-0.952 12.43-1.195c14.201-0.886 18.816-1.425 41.828-4.912 3.471-0.525 11.82-1.77 18.547-2.766 13.466-1.99 15.912-2.47 21.247-4.164 7.33-2.328 29.217-7.651 32.027-7.783l2.763-0.132 6.905 5.996v2.718c0 2.684-0.032 2.767-2.602 6.686-2.912 4.446-5.245 10.247-10.587 26.317-2.646 7.968-3.24 9.372-4.588 10.907-2.313 2.625-3.614 2.985-13.966 3.837-11.586 0.954-12.193 1.047-13.422 2.014-1.645 1.293-2.164 2.752-3.975 11.142-5.001 23.205-7.156 32.047-8.317 34.183-0.975 1.794-1.257 1.983-7.199 4.846-8.19 3.945-10.203 4.571-17.43 5.413-9.62 1.12-8.018 1.051-74.385 3.141-23.095 0.728-39.397 1.268-59.088 1.956-7.64 0.269-8.673 0.382-9.422 1.056-0.82 0.733-0.839 0.952-0.611 7.86 0.287 8.784 1.353 28.661 1.648 30.722 0.336 2.347 1.273 3.801 2.887 4.481 1.579 0.666 2.023 0.655 18.618-0.475 21.674-1.472 22.776-1.504 24.349-0.721 2.228 1.109 2.39 1.678 1.172 4.164-0.578 1.183-2.207 3.684-3.62 5.556s-2.568 3.482-2.568 3.58c0 0.633 8.44 0.775 50.312 0.829 25.827 0.033 48.943 0.208 51.365 0.391 3.597 0.27 4.604 0.485 5.469 1.174l1.062 0.845-0.072 12.018c-0.112 19.147-0.559 29.949-1.303 31.378-1.304 2.505 3.768 2.327-72.129 2.544-65.305 0.186-69.332 0.237-70.333 0.894-0.584 0.381-1.183 1.18-1.331 1.77s-0.061 9.158 0.193 19.036c0.787 30.746 1.984 72.287 2.426 84.453 0.235 6.403 0.778 21.319 1.211 33.149s0.875 23.282 0.985 25.452c0.111 2.172 0.548 12.205 0.974 22.295 0.692 16.462 2.43 52.872 2.939 61.561 0.107 1.843 0.465 9.302 0.791 16.572s0.778 16.15 1.004 19.729c0.226 3.581 0.765 12.282 1.205 19.335s0.871 13.624 0.963 14.602c0.093 0.976 0.528 6.218 0.969 11.644 1.138 13.983 1.381 15.558 3 19.47 3.777 9.111 3.636 8.613 3.883 13.869 0.127 2.712 0.583 15.855 1.013 29.2s0.876 26.667 0.996 29.596c0.428 10.764 1.37 35.532 1.634 42.895 0.306 8.62-0.038 10.388-2.354 12.106-2.418 1.795-2.823 1.822-25.363 1.822-22.569 0-24.283-0.1-34.679-2.019-8.531-1.573-19.651-5.083-20.576-6.496-0.85-1.294-1.244-4.688-1.513-12.996-0.248-7.611-1.477-26.744-2.18-33.937-1.777-18.177-1.766-17.933-1.772-37.094-0.006-10.418 0.079-28.885 0.182-41.039 0.132-15.7 0.048-23.469-0.292-26.835-0.263-2.603-0.93-12.337-1.481-21.629-1.091-18.364-1.029-21.018 0.688-29.079 1.156-5.434 1.461-16.545 0.515-18.744-0.373-0.868-0.941-3.621-1.26-6.117-0.655-5.109-0.635-4.481-0.296-10.852 0.188-3.526 0.076-5.997-0.437-9.667-0.727-5.193-0.799-11.046-1.11-88.391-0.061-15.085-0.257-33.908-0.435-41.828-0.345-15.303-0.162-19.103 1.414-29.695 1.029-6.903 1.15-16.87 0.257-20.861-0.525-2.347-0.523-2.724 0.039-3.748 0.769-1.405 0.839-6.062 0.16-10.808-0.264-1.843-0.677-7.706-0.919-13.021-0.479-10.5-0.767-12.387-2.008-13.052-0.589-0.314-60.062-0.532-215.409-0.776-118.026-0.188-215.458-0.457-216.514-0.597-1.073-0.142-2.654-0.058-3.588 0.193-3.123 0.842-2.855-8.597-2.747 96.531 0.070 67.808-0.044 99.663-0.402 113.427-0.273 10.526-0.757 33.257-1.075 50.509s-0.782 38.297-1.030 46.762c-0.471 16.030-0.334 35.98 0.382 54.852 0.419 11.039 0.237 23.898-0.743 52.287-0.237 6.837-0.556 21.841-0.714 33.346-0.258 18.805-0.356 21.043-0.974 22.193-1.297 2.408-2.283 2.689-21.39 6.044-2.603 0.457-6.867 1.29-9.471 1.849-4.733 1.018-4.749 1.018-26.835 1.116-21.874 0.095-22.127 0.089-24.861-0.778zM325.066 740.331c-0.196-0.183-2.91-0.49-9.044-1.019-13.974-1.205-29.299-1.513-39.857-0.798-7.179 0.488-8.289 0.675-8.289 1.398 0 0.498 3.845 0.575 28.674 0.575 15.77 0 28.602-0.071 28.51-0.154zM856.79 739.484c0.127-0.335 0.015-0.689-0.254-0.793s-13.182-0.138-28.694-0.083c-26.505 0.094-28.218 0.144-28.342 0.793-0.127 0.654 1.441 0.689 28.463 0.689 25.368 0 28.622-0.070 28.828-0.608zM639.999 382.939c3.527-0.291 7.349-0.27 13.415 0.061 7.011 0.387 10.234 0.366 18.547-0.119 12.898-0.754 67.742-0.682 76.554 0.099 10.844 0.963 32.754-0.527 32.754-2.226 0-0.471-31.749-0.552-219.009-0.552-197.93 0-219.009 0.061-219.009 0.613 0 0.354 0.798 0.966 1.876 1.445 1.824 0.809 2.085 0.819 9.766 0.371 4.34-0.251 18.369-0.573 31.174-0.712 19.443-0.214 25.429-0.14 36.306 0.435 9.774 0.519 14.746 0.607 19.927 0.355 3.8-0.184 8.949-0.248 11.445-0.138s11.553 0.082 20.125-0.061c30.124-0.501 65.764-0.469 71.031 0.062 5.072 0.512 14.075 0.364 22.689-0.378 10.144-0.873 48.187-0.369 55.737 0.736 3.242 0.476 10.927 0.479 16.674 0.006zM394.947 336.734c4.014-0.314 25.339-0.416 71.462-0.347 72.94 0.111 67.713 0.297 68.568-2.445 0.356-1.14 0.633-5.384 1.469-22.402 0.138-2.826-0.010-7.035-0.395-11.154-0.339-3.638-0.619-8.556-0.619-10.929 0-3.903-0.083-4.409-0.886-5.341-1.672-1.939 5.484-1.744-103.683-2.792-33.75-0.325-66.842-0.75-73.541-0.945-13.242-0.389-14.339-0.277-15.734 1.602-0.716 0.963-0.773 2.069-0.976 19.138-0.16 13.209-0.094 18.57 0.245 19.795 0.873 3.171-0.114 3.031 23.104 3.254l20.538 0.197 1.26 0.897c1.526 1.089 1.859 1.986 1.289 3.489-0.6 1.582-1.414 2.392-3.612 3.585-1.042 0.567-1.898 1.191-1.898 1.383 0 0.7 1.201 2.65 1.876 3.042 0.906 0.527 4.505 0.517 11.544-0.031zM739.066 336.59c0.641-0.332 1.163-0.699 1.163-0.818s-0.552-1.018-1.227-1.997c-0.675-0.98-1.638-2.509-2.143-3.397-0.828-1.457-0.864-1.722-0.373-2.67 0.886-1.711 2.272-2.316 7.386-3.212 6.216-1.090 17.618-1.162 25.559-0.164 6.526 0.82 10.179 0.914 11.343 0.289 0.487-0.26 1.172-1.030 1.524-1.711 0.572-1.106 0.622-3.283 0.468-20.411-0.182-20.301-0.248-20.993-2.048-21.612-1.029-0.357-5.871-0.281-31.015 0.468-32.85 0.978-59.511 1.37-112.366 1.645l-50.214 0.262v25.102c0 27.759-0.171 25.955 2.602 27.67l1.419 0.876 12.095-0.351c14.087-0.41 17.063-0.402 57.675 0.111 16.821 0.215 41.025 0.418 53.785 0.457 20.118 0.061 23.359-0.012 24.368-0.534zM779.693 329.715c0-0.204-0.931-0.431-2.073-0.5l-2.073-0.126 1.381-0.453c1.084-0.356-2.475-0.459-16.474-0.49-15.626-0.030-17.858 0.039-17.858 0.556 0 0.515 2.047 0.599 15.883 0.633 13.228 0.037 18.464 0.208 20.916 0.688 0.162 0.031 0.295-0.11 0.295-0.315zM276.335 329.037c0.138-0.361 0.115-0.796-0.057-0.963-0.585-0.575-16.501-2.3-26.747-2.899-5.643-0.331-11.281-0.7-12.529-0.822l-2.27-0.222v2.265l11.938 0.917c11.052 0.849 27.913 2.206 28.961 2.327 0.248 0.028 0.566-0.242 0.703-0.604zM375.708 329.4c-2.441-0.071-4.439-0.292-4.439-0.492s1.733-0.424 3.846-0.497c2.118-0.072-4.247-0.167-14.141-0.213s-18.093 0.024-18.222 0.153c-0.129 0.129-0.139 0.485-0.024 0.788 0.18 0.467 3.163 0.54 18.816 0.468 10.233-0.047 16.605-0.14 14.163-0.211zM863.942 328.116c2.388-0.193 8.692-0.546 14.009-0.791 11.589-0.533 11.445-0.511 11.445-1.783v-0.979h-5.27c-5.848 0-11.489 0.383-23.535 1.601-14.165 1.433-13.195 1.28-13.352 2.104-0.138 0.714 0.116 0.733 6.111 0.469 3.439-0.15 8.209-0.433 10.596-0.622zM567.483 264.598c0.544-0.426 1.209-1.315 1.481-1.975 0.424-1.029 0.702-1.196 1.953-1.196 0.799 0 1.766-0.226 2.144-0.503 1.48-1.084 3.276-11.347 2.554-14.603-0.731-3.284-3.605-6.092-6.947-6.791-0.99-0.205-1.48-0.644-2.107-1.868l-0.817-1.601-4.241 0.202c-5.478 0.259-7.060 1.010-10.775 5.113l-2.73 3.017-0.861 10.635 1.418 1.917c0.78 1.053 2.563 3.042 3.962 4.42l2.543 2.503 3.299 0.369c1.814 0.204 3.834 0.524 4.489 0.716 1.996 0.579 3.6 0.457 4.636-0.358zM815.207 263.898c0.976-0.325 3.17-1.293 4.874-2.151 3.088-1.551 3.097-1.558 2.85-2.877-0.179-0.95-0.015-1.774 0.581-2.914 0.523-1.005 0.912-2.684 1.052-4.549 0.237-3.112-0.185-4.692-2.501-9.367-1.719-3.472-4.549-5.473-7.75-5.473-1.183 0-1.815-0.249-2.498-0.985-1.103-1.19-2.82-1.293-4.153-0.253-1.524 1.186-3.188 1.917-5.086 2.227-2.687 0.438-3.097 0.776-3.232 2.668-0.105 1.47-0.281 1.744-1.436 2.253-1.266 0.556-1.304 0.642-1.062 2.264 0.215 1.427 0.098 1.887-0.756 3.009-1.254 1.645-1.258 2.126-0.024 4.445 0.544 1.019 0.985 2.264 0.985 2.766s0.193 1.332 0.428 1.849c0.509 1.116 6.596 5.275 10.225 6.983 2.778 1.309 3.867 1.326 7.497 0.112zM315.959 260.524c0.941-0.915 2.325-2.261 3.073-2.987 2.988-2.911 3.867-6.098 3.25-11.768-0.424-3.867-0.48-4.035-1.555-4.481-0.934-0.388-1.081-0.634-0.9-1.535 0.5-2.492-4.728-4.939-11.541-5.398l-3.507-0.237-10.467 7.774 0.105 5.329c0.094 4.815 0.204 5.54 1.15 7.556 1.804 3.848 5.231 6.54 9.466 7.434 0.949 0.202 3.411 0.278 5.473 0.171l3.748-0.193zM534.081 207.069c3.542-0.624 7.904-0.699 46.136-0.774 42.883-0.083 59.274-0.374 83.168-1.475 7.328-0.336 14.385-0.613 15.686-0.613 1.838 0 2.362-0.132 2.362-0.591 0-0.468-0.569-0.591-2.763-0.591-1.579 0-2.763-0.171-2.763-0.394 0-0.49 1.059-0.492 7.179-0.017 2.669 0.206 14.713 0.572 26.758 0.81l21.901 0.435 14.996-1.226c8.246-0.674 18.369-1.5 22.492-1.832 5.583-0.455 12.602-0.599 27.495-0.562 15.93 0.039 20.825-0.072 24.073-0.545 2.24-0.325 11.799-0.952 21.241-1.386 31.233-1.442 37.252-1.849 55.444-3.748 13.712-1.434 18.651-2.079 24.861-3.257 5.045-0.957 6.481-1.054 16.572-1.134 10.413-0.083 11.424-0.156 17.562-1.285 3.581-0.659 8.997-1.656 12.036-2.217 16.978-3.123 42.017-6.736 50.706-7.31 10.568-0.702 15.347-1.502 35.712-5.99 10.757-2.371 11.435-2.689 8.587-4.043-2.181-1.040-5.017-1.184-8.39-0.432-2.778 0.622-7.794 1.219-6.155 0.733 0.413-0.123 2.811-0.801 5.329-1.511 4.197-1.183 4.574-1.366 4.574-2.228 0-0.891-0.147-0.947-2.763-1.051-2.123-0.085-3.427 0.116-5.639 0.871-3.284 1.119-24.494 5.616-33.589 7.123-23.089 3.821-49.601 7.684-63.565 9.268-3.8 0.432-8.415 0.963-10.258 1.183s-6.463 0.666-10.258 0.994c-3.8 0.325-8.772 0.776-11.050 0.996s-8.584 0.754-14.009 1.183c-5.427 0.429-15.371 1.23-22.098 1.783-62.462 5.121-78.786 6.183-115.030 7.488-13.635 0.49-28.018 1.224-31.568 1.606-0.544 0.060-1.297 0.121-1.678 0.138s-0.689 0.21-0.689 0.426c0 0.239 1.777 0.394 4.538 0.394 2.495 0 4.538 0.16 4.538 0.352 0 0.556-1.501 0.78-5.329 0.798-1.953 0.008-9.235 0.196-16.178 0.416s-18.932 0.579-26.637 0.8c-7.706 0.221-16.052 0.489-18.547 0.591s-14.218 0.464-26.043 0.798c-11.83 0.335-25.592 0.76-30.583 0.946s-9.21 0.259-9.372 0.161c-1.051-0.627 0.71-0.842 8.683-1.069 4.937-0.138 15.461-0.435 23.381-0.655 22.639-0.632 25.79-0.795 25.273-1.313-0.336-0.336-20.886-0.452-79.845-0.456-53.326-0.004-85.289-0.166-97.35-0.495-9.874-0.27-29.585-0.755-43.802-1.082s-31.531-0.769-38.473-0.988c-6.947-0.219-21.951-0.665-33.346-0.985s-25.513-0.765-31.371-0.985c-5.859-0.218-18.556-0.663-28.215-0.985s-18.716-0.678-20.125-0.789c-1.412-0.111-5.938-0.38-10.061-0.6-23.601-1.26-55.263-4.319-107.927-10.438-4.883-0.567-12.698-1.464-17.364-1.992-30.007-3.396-44.743-5.642-70.834-10.797-22.096-4.364-22.474-4.428-25.088-4.307-2.228 0.105-2.547 0.22-2.653 0.946-0.108 0.759 0.44 0.963 6.708 2.508 3.756 0.925 6.914 1.777 7.024 1.892 0.356 0.38-4.199-0.275-7.684-1.104-3.504-0.831-9.889-1.115-10.538-0.466-1.239 1.239 2.287 2.1 27.89 6.801 9.961 1.83 18.761 3.537 20.323 3.942 2.133 0.556 12.251 2.228 17.956 2.973 2.822 0.369 7.794 1.191 11.050 1.828 11.271 2.206 15.197 2.653 26.945 3.064 7.958 0.28 12.859 0.644 16.462 1.227 2.822 0.457 6.196 0.991 7.497 1.187s6.717 0.551 12.036 0.787c9.302 0.413 23.111 1.677 41.039 3.748 4.667 0.54 12.656 1.415 17.759 1.948s12.646 1.326 16.77 1.766c4.123 0.442 9.928 0.804 12.897 0.808 4.869 0.006 18.904 0.996 28.144 1.994 11.912 1.282 11.556 1.271 15.738 0.563 3.008-0.51 6.086-0.663 12.476-0.622 4.667 0.028 9.194 0.138 10.061 0.237s6.994 0.376 13.613 0.606c11.539 0.402 23.8 1.095 34.331 1.94 11.017 0.884 23.040 1.205 44.985 1.205 26.083 0.002 62.86 1.183 72.845 2.343 4.694 0.545 9.752 0.446 13.808-0.27zM536.611 202.692c0-0.377 68.858-1.021 69.46-0.652 0.215 0.132 0.39 0.407 0.39 0.611 0 0.228-13.364 0.37-34.922 0.37-19.208 0-34.922-0.149-34.922-0.332zM483.733 202.050c4.601-0.523 22.886-0.329 22.886 0.24 0 0.186-6.081 0.314-13.514 0.283-12.672-0.050-13.258-0.083-9.372-0.524zM724.052 202.188c-9.405-0.466-9.241-0.63 0.689-0.689 7.564-0.047 8.781 0.028 8.781 0.538 0 0.659 0.597 0.65-9.471 0.151zM459.661 201.797c-13.602-0.498-13.778-0.593-1.249-0.673 9.111-0.059 11.541 0.032 11.413 0.421-0.214 0.639 0.158 0.631-10.16 0.252zM751.348 199.216c0.133-0.691 1.194-0.754 20.26-1.183 23.385-0.528 33.608-0.986 67.424-3.031 6.43-0.39 7.878-0.38 8.039 0.042 0.109 0.283 0.123 0.592 0.028 0.686s-6.996 0.435-15.34 0.761c-8.344 0.325-16.858 0.691-18.92 0.812s-12.984 0.567-24.27 0.994c-24.012 0.905-28.705 1.102-33.677 1.416-3.44 0.218-3.679 0.185-3.548-0.497zM358.346 198.782c6.241-0.061 16.451-0.061 22.689 0s1.135 0.111-11.347 0.111c-12.48 0-17.584-0.050-11.347-0.111zM221.12 189.977c-3.471-0.395-6.715-0.731-7.2-0.743s-0.886-0.162-0.886-0.335 2.263-0.094 5.033 0.171c2.767 0.265 6.408 0.608 8.091 0.763s3.058 0.435 3.058 0.62c0 0.424-0.391 0.402-8.091-0.476zM924.909 187.238c0-0.239 1.507-0.371 3.846-0.336 3.669 0.055 3.735 0.072 1.48 0.352-3.502 0.435-5.329 0.429-5.329-0.017zM947.797 184.894c0-0.425 0.824-0.578 6.511-1.211 2.172-0.24 4.346-0.521 4.835-0.62 0.611-0.126 0.886 0.006 0.886 0.419 0 0.33-0.148 0.6-0.325 0.6-0.612 0-8.946 0.795-10.427 0.995-0.828 0.112-1.48 0.030-1.48-0.182zM971.473 182.924c0-0.6-0.061-0.589 31.568-5.347 5.099-0.765 10.859-1.658 12.797-1.984 4.032-0.675 4.962-0.721 4.962-0.259 0 0.182-2.531 0.714-5.624 1.183s-8.465 1.304-11.938 1.85c-9.216 1.454-17.815 2.79-23.876 3.713-2.932 0.446-5.903 0.908-6.609 1.029-0.754 0.127-1.282 0.050-1.282-0.188z"></path>
    </svg>