<svg xmlns="http://www.w3.org/2000/svg" viewBox="-40.305 -25.403 1118.342 1073.101">
    <path fill="#000000" d="M861.165 387.618c95.474 38.145 136.872 150.985 123.603 247.325-5.901 57.709-20.24 115.195-54.078 163.244-5.826 20.868-46.912 71.135-41.138 20.209 11.879-86.217 53.853-169.46 38.759-258.287-6.98-66.001-58.748-121.793-123.755-134.763-58.408-15.67-118.838 6.093-170.324 33.106-19.204 20.083-30.824 33.796-34.083 59.005-24.416 4.124-14.59 18.453-34.065 31.488-17.652-4.57-7.399 32.436-34.065 24.914 6.207 21.838-25.057 19.835-24.889 30.145 2.639 20.658-30.42 11.587-24.902 28.896-15.586 14.017-25.277 16.276-34.065 36.718-21.609-3.351-8.998 29.566-34.077 26.221-1.448 13.615-26.296 21.934-28.81 32.784-9.15 18.254-27.204 12.248-30.142 34.115-24.502-2.018-14.204 25.281-35.361 28.861-12.732-0.254-11.219 34.74-35.42 23.606-6.753 13.359 0.127 50.007-8.173 70.429-21.75 50.142-82.389 82.064-136.113 72.555-53.667-12.463-100.372-65.969-86.912-122.978 8.111-56.060 60.113-107.902 119.514-97.499 20.030 7.869 16.398-29.258 39.531-27.453 1.814-23.754 29.865-10.75 30.155-31.488 24.843-2.45 20.29-30.346 47.214-28.861 3.758-25.854 30.567-18.733 39.345-41.984 16.315 2.679 21.006-28.824 38.024-24.927 7.628-22.266 29.19-15.246 38.024-38.049 13.317-0.889 28.183-21.663 39.357-27.519 1.141-19.81 30.528-7.944 27.528-26.282 23.006-6.409 22.672-22.897 44.586-31.475 26.629 3.085 45.225-29.71 67.857-43.878 29.071-14.372 38.223-59.174 10.84-80.727-37.812-35.007-95.275-19.214-139.177-6.27-60.915 18.445-114.912 52.945-170.068 83.327-19.599 4.57-91.836 45.775-80.674 4.924 66.985-72.034 158.617-117.632 251.688-146.294 63.617-18.761 146.095-19.535 189.382 39.388 13.794 15.091 14.868 51.316 30.77 17.524 28.963-44.869 68.15-96.83 53.513-153.369-11.144-57.263-76.561-61.015-119.959-39.251-73.014 23.39-143.060 61.205-221.010 64.396-26.969-20.904 43.913-44.171 59.724-58.804 65.561-34.092 136.74-58.067 208.769-74.481 52.594-11.562 99.504 28.2 118.383 74.548 35.153 71.596-7.984 148.85-47.384 208.543-19.077 22.148-27.235 33.943 8.859 23.362 39.75-7.73 98.939 11.651 123.218 15.009zM211.861 874.267c26.332-26.819 9.519-44.993-11.777-60.337-18.519 0.635-27.987-23.677-40.616-27.553-45.734-5.826-76.615 70.166-36.474 96.474 27.746 26.36 65.431 17.446 88.867-8.58z"></path>
    </svg>