<svg xmlns="http://www.w3.org/2000/svg" viewBox="-51.651 143.964 1139.157 736.351">
    <path fill="#000000" d="M448.067 799.459c-0.573-0.692-1.031-5.252-1.533-15.333-0.585-11.758-1.22-16.296-3.245-23.291-3.605-12.439-10.779-20.833-20.461-23.938-6.224-1.994-11.405-2.804-50.717-7.934-29.311-3.825-35.071-4.010-58.173-1.882-15.429 1.422-19.831 1.397-25.041-0.149-7.053-2.093-11.213-4.815-19.365-12.679-3.128-3.019-6.866-6.273-8.312-7.233-5.936-3.956-12.296-6.476-19.884-7.884-6.44-1.194-11.106-2.516-13.623-3.857-3.254-1.733-6.205-4.823-8.215-8.604-3.42-6.422-7.854-10.746-13.839-13.486-3.686-1.688-16.109-5.783-17.541-5.783-0.761 0-2.167-0.108-3.131-0.239-1.607-0.221-1.751-0.329-1.751-1.294v-1.056l-6.138 2.075c-5.549 1.877-6.379 2.059-8.645 1.913-1.922-0.122-3.158-0.485-5.288-1.549-3.119-1.556-4.478-2.507-3.913-2.739 2.687-1.102 12.867-6.891 12.957-7.371 0.104-0.553-0.495-0.64-5.117-0.755-5.198-0.131-5.258-0.14-8.168-1.58-1.613-0.797-3.028-1.697-3.145-2.003-0.396-1.031 1.274-2.246 3.713-2.703 2.252-0.419 4.037-1.453 3.452-1.994-0.529-0.488-9.677-3.722-12.759-4.514-7.458-1.913-17.259-1.841-29.425 0.22-7.322 1.238-12.358 2.632-20.553 5.681-13.932 5.184-15.846 5.576-27.524 5.603-8.728 0.023-8.753 0.022-9.716-0.883-0.943-0.887-0.95-0.928-0.313-2.018 0.392-0.673 3.107-2.759 6.881-5.291 10.572-7.088 16.035-11.391 21.945-17.274 5.567-5.54 12.282-13.434 13.358-15.702 1.853-3.906-0.682-8.353-5-8.768-1.553-0.149-3.149 0.23-9.565 2.282-13.394 4.28-19.203 5.171-33.697 5.179-6.679 0.005-8.192-0.239-8.192-1.304 0-1.086 2.043-2.048 7.641-3.584 7.664-2.105 18.591-5.502 22.615-7.029 10.415-3.954 16.813-9.203 21.534-17.664 1.819-3.262 3.528-5.171 5.818-6.494 0.833-0.482 5.592-2.525 10.578-4.541 15.927-6.436 18.546-7.925 22.624-12.867 4.511-5.468 5.558-9.232 3.528-12.696-1.875-3.198-6.854-6.819-12.055-8.771-6.11-2.293-18.473-4.64-26.377-5.003-4.386-0.203-6.251-0.068-14.164 1.013-8.805 1.202-21.317 0.806-30.409-0.967-6.165-1.202-9.842-2.408-14.919-4.892-6.594-3.227-15.567-10.152-16.233-12.528-0.216-0.77-0.076-0.828 2.525-1.022 1.516-0.113 7.682-0.388 13.708-0.608 15.116-0.554 22.986-1.652 30.977-4.325 9.721-3.254 17.487-8.697 22.454-15.738 4.128-5.855 4.938-8.808 3.398-12.399-1.44-3.346-4.001-4.68-12.066-6.278-3.209-0.635-5.018-1.325-5.49-2.084-0.28-0.453 0.845-1.868 1.49-1.87 0.229 0 2.309-0.824 4.626-1.823 6.899-2.984 10.806-5.873 19.148-14.154 9.579-9.51 12.75-13.794 14.602-19.716 2.427-7.763 2.902-8.487 10.237-15.693 3.074-3.020 5.765-5.945 5.975-6.502 0.331-0.873 0.253-1.112-0.599-1.778-0.538-0.425-1.319-0.77-1.733-0.77-1.883 0-7.524 1.648-9.131 2.669-1.995 1.265-3.434 1.398-5.063 0.461-0.994-0.571-1.403-0.595-3.291-0.198-2.093 0.437-2.813 0.374-2.813-0.253 0-0.167 1.88-2.408 4.181-4.982 2.422-2.714 3.965-4.726 3.669-4.787-0.28-0.059-2.228 0.645-4.334 1.566-3.687 1.615-4.649 1.715-4.649 0.491 0-0.428 3.884-5.011 5.234-6.179 0.941-0.815 0.947-0.847 0.26-1.606-0.644-0.714-0.656-0.887-0.14-2.192 0.308-0.779 2.12-3.479 4.025-5.995s3.465-4.694 3.465-4.838c0-0.141-1.445 0.527-3.209 1.49-3.224 1.759-3.758 1.742-2.57-0.068 0.596-0.908 0.598-1.010 0.014-1.436-0.563-0.41-0.482-0.599 0.778-1.807 0.77-0.743 3.67-2.83 6.443-4.635 3.151-2.054 4.91-3.417 4.685-3.641s-2.164 0.095-5.172 0.851c-6.782 1.697-6.872 1.23-0.66-3.362 2.635-1.949 5.007-3.632 5.265-3.74 0.505-0.21 0.662-1.253 0.189-1.241-0.158 0.005-1.887 0.513-3.849 1.131-3.438 1.085-4.145 1.076-4.172-0.050-0.005-0.131 2.111-1.985 4.699-4.127s4.636-4.001 4.55-4.136c-0.086-0.136-1.22-0.122-2.525 0.032-4.046 0.477-3.985-0.077 0.251-2.309 1.763-0.932 3.209-1.799 3.209-1.931s-0.972-0.363-2.165-0.509l-2.172-0.272 6.421-5.907-3.155-0.248 2.048-3.462c2.204-3.731 3.524-5.074 4.685-4.772 0.871 0.23 3.796 4.577 3.78 5.617-0.006 0.401-0.257 1.050-0.554 1.445-0.608 0.803-0.395 1.193 2.733 5.039 0.887 1.087 1.607 2.066 1.607 2.174s-0.554 0.196-1.229 0.202c-1.182 0.005-2.53 0.545-2.162 0.861 0.097 0.086 1.76 1.211 3.695 2.498 3.255 2.174 4.253 3.155 3.74 3.668-0.113 0.113-1.283 0.291-2.597 0.392-3.731 0.293-3.728 0.275-1.083 2.947l2.39 2.414-1.472 0.266c-0.81 0.148-1.612 0.347-1.782 0.446s0.977 0.96 2.552 1.92c3.898 2.372 3.812 2.895-0.419 2.552-3.917-0.32-3.954-0.428 1.286 3.83 3.794 3.083 3.884 3.418 0.952 3.482-1.699 0.037-1.535 0.599 0.566 1.95 1.58 1.013 2.056 1.136 3.96 1.006 1.841-0.123 2.561-0.418 4.817-1.958 1.457-0.995 2.651-1.949 2.651-2.111s-0.851-0.419-1.888-0.563c-1.040-0.142-1.888-0.396-1.888-0.563s0.636-0.86 1.418-1.535c4.183-3.641 7.178-6.697 6.94-7.079-0.182-0.293-1.778 0.167-5.119 1.472-5.18 2.021-6.134 2.045-5.103 0.113 0.68-1.265 4.307-4.973 9.5-9.707 2.669-2.433 3.974-3.875 3.83-4.238-0.167-0.437-0.945-0.176-3.76 1.276l-3.551 1.832 0.003-1.737c0.003-1.706 0.32-2.417 2.201-4.925l0.883-1.175-1.588 0.255c-1.544 0.248-1.58 0.23-1.308-0.653 0.593-1.922 1.523-3.267 4.059-5.888l2.631-2.714-2.12 0.221c-1.166 0.122-2.12 0.131-2.12 0.028 0-0.166 4.119-3.714 6.557-5.648 1.238-0.984 0.492-1.21-1.643-0.5-1.067 0.356-2.003 0.577-2.085 0.495-0.3-0.3 1.643-3.983 2.606-4.946 1.096-1.096 1.202-1.665 0.561-3.074-0.374-0.824-0.272-1.214 0.781-2.952 0.669-1.103 1.519-2.408 1.895-2.903l0.68-0.9 1.328 2.417c1.008 1.836 1.287 2.735 1.164 3.74-0.167 1.355 0.052 1.776 2.66 5.054 1.439 1.814 1.139 2.678-0.802 2.327l-1.412-0.257 2.174 2.21c1.193 1.216 2.174 2.313 2.174 2.44s-0.765 0.346-1.699 0.483c-0.934 0.14-1.699 0.392-1.699 0.554s0.968 0.943 2.151 1.73l2.151 1.427-2.030 1.617 2.642 1.976c2.86 2.14 3.335 3.101 1.539 3.101-0.608 0-1.372 0.104-1.697 0.23-0.518 0.201-0.494 0.37 0.2 1.346 0.437 0.615 0.707 1.204 0.598 1.313s-1.226 0.041-2.48-0.149c-3.138-0.474-3.236 0.185-0.284 1.913 1.285 0.752 2.831 1.886 3.436 2.516 1.069 1.117 1.079 1.161 0.365 1.699-1.668 1.259-3.047 1.698-4.253 1.355-1.177-0.338-1.179-0.338-0.59 0.563 0.814 1.238 3.752 3.128 5.333 3.425 2.114 0.397 5.853-0.068 7.559-0.94 1.67-0.851 4.388-3.056 4.111-3.335-0.089-0.089-2.154 0.2-4.586 0.642-6.465 1.175-6.394 0.797 0.581-3.045 6.812-3.755 6.944-4.109 1.094-2.994-4.705 0.896-4.748 0.897-5.015 0.203-0.149-0.386 1.256-1.463 4.775-3.655 2.741-1.708 5.045-3.152 5.117-3.205s0.027-0.266-0.104-0.476c-0.145-0.233-1.037-0.023-2.327 0.545-3.38 1.495-7.43 2.509-7.783 1.95-0.497-0.78-0.405-0.895 2.426-2.984 4.541-3.353 9.391-7.511 9.17-7.863-0.113-0.185-1.607 0.32-3.317 1.113s-3.218 1.337-3.344 1.202c-0.131-0.136-0.338-0.926-0.458-1.76-0.216-1.46-0.113-1.643 3.025-5.406 2.273-2.729 3.128-4.017 2.849-4.295s-1.355 0.41-3.591 2.291c-3.051 2.57-4.046 3.137-4.046 2.315 0-0.205 1.31-3.002 2.912-6.212 2.774-5.558 2.881-5.872 2.266-6.548-0.617-0.68-0.555-0.774 1.427-2.192 1.139-0.815 2.074-1.634 2.075-1.817s-0.926-0.226-2.069-0.092c-1.142 0.134-2.076 0.14-2.076 0.013s1.265-2.066 2.813-4.304c1.548-2.237 2.716-4.167 2.597-4.287s-0.831 0.203-1.58 0.712c-1.682 1.143-1.945 1.155-1.941 0.077 0.005-1.644 0.772-3.588 2.442-6.172 1.67-2.587 1.679-2.615 0.911-3.202l-0.776-0.593 1.008-2.396c0.869-2.066 0.958-2.599 0.626-3.893-0.42-1.661 0.212-4.269 2.045-8.409l0.966-2.183 1.355 2.234c1.661 2.741 2.093 4.43 1.598 6.287-0.311 1.166-0.243 1.669 0.392 2.912 0.914 1.796 0.959 2.291 0.203 2.291-0.885 0-0.695 0.5 1.131 2.981l1.697 2.309h-1.509c-0.832 0-1.509 0.104-1.509 0.23s1.115 1.658 2.48 3.403c2.651 3.398 2.66 3.956 0.038 3.233-0.734-0.203-1.42-0.277-1.531-0.167-0.167 0.167 0.702 1.426 3.706 5.36 0.343 0.447 0.149 0.492-1.198 0.279-0.923-0.149-1.607-0.104-1.607 0.097 0 0.194 0.698 0.95 1.545 1.678l1.545 1.324-2.489 1.287 1.113 0.95c3.061 2.606 3.593 3.146 3.407 3.447-0.113 0.181-1.31 0.446-2.66 0.59s-2.552 0.419-2.669 0.606c-0.116 0.187 1.242 1.063 3.020 1.943s3.228 1.715 3.228 1.851c0 0.14-1.112 0.725-2.47 1.301s-2.336 1.17-2.174 1.319c0.164 0.149 2.252 0.905 4.64 1.686s4.496 1.556 4.685 1.727c0.195 0.18 0.053 0.749-0.338 1.347-0.68 1.035-0.679 1.040 0.509 2.030 0.653 0.545 1.191 1.265 1.191 1.598 0 0.527-0.464 0.575-3.587 0.391-2.030-0.122-3.579-0.068-3.569 0.124 0.011 0.185 0.86 1.020 1.885 1.85s1.868 1.639 1.868 1.796c0.005 0.158-1.141 0.292-2.543 0.3l-2.552 0.014 1.631 1.473c0.896 0.812 2.255 1.679 3.020 1.922 4.082 1.319 5.36 1.935 5.36 2.588 0 0.535-0.419 0.725-1.985 0.914-1.092 0.131-2.622 0.239-3.398 0.24s-1.418 0.169-1.418 0.374c0 0.439 2.188 1.596 5.045 2.664 1.13 0.424 2.795 1.272 3.701 1.885 2.072 1.403 3.659 1.449 5.202 0.149 0.639-0.536 1.163-1.132 1.163-1.321s-0.835-0.346-1.859-0.346c-4.442 0-4.056-1.053 1.115-3.045 2.291-0.883 4.258-1.75 4.367-1.923s-1.494-0.32-3.56-0.32c-5.891 0-5.522-0.505 3.029-4.127 3.962-1.679 7.349-3.050 7.531-3.050s0.329-0.257 0.329-0.566c0-0.716-0.673-0.716-7.367-0.005-6.666 0.707-6.233 0.734-6.233-0.369 0-1.158 1.876-2.484 5.072-3.585 2.355-0.811 5.687-2.598 5.393-2.894-0.095-0.095-1.284 0.020-2.642 0.257-4.304 0.751-4.145 0.29 0.777-2.235 4.352-2.233 5.447-3.069 4.012-3.069-0.338 0-2.39 0.527-4.559 1.174s-4.028 1.085-4.136 0.981c-0.317-0.317 1.22-3.032 2.363-4.174 0.589-0.589 2.21-1.746 3.605-2.577s2.759-1.778 3.029-2.102c0.513-0.618 0.158-0.608-3.569 0.131-0.77 0.153-1.040 0.059-1.040-0.374 0-0.355 1.474-1.337 3.776-2.521 2.076-1.067 3.776-2.093 3.776-2.282s-1.274-0.343-2.831-0.343c-1.697 0-2.831-0.158-2.831-0.392 0-0.626 1.841-4.083 3.083-5.789 1.004-1.382 1.112-1.771 0.909-3.326-0.221-1.679-0.14-1.886 1.652-4.251l1.883-2.489h-4.532l1.548-2.281c2.212-3.259 3.74-4.899 4.559-4.899 0.476 0 1.427 1.067 2.85 3.211 2.012 3.023 2.102 3.254 1.515 3.902-0.923 1.018-0.77 1.885 0.63 3.614 2.066 2.552 2.075 2.614 0.303 2.314-2.372-0.401-2.024 0.527 1.238 3.29 3.020 2.561 3.023 2.821 0.040 2.948-3.543 0.149-3.479 0.364 0.959 3.199 2.276 1.454 4.138 2.88 4.138 3.173 0 0.43-0.568 0.482-3.056 0.275-2.39-0.2-3.021-0.149-2.897 0.223 0.086 0.265 2.102 1.711 4.47 3.218s4.378 2.93 4.454 3.164c0.104 0.311-0.779 0.356-3.233 0.161-2.678-0.212-3.668-0.144-4.802 0.329-0.785 0.329-1.357 0.799-1.274 1.049 0.194 0.576 12.588 5.185 14.005 5.207 1.509 0.023 2.912-0.808 4.325-2.568 1.399-1.74 1.504-2.079 0.566-1.814-1.571 0.446-5.383 0.673-5.383 0.323 0-0.203 1.445-1.779 3.209-3.506 3.090-3.014 3.974-4.406 2.552-3.992-0.365 0.104-2.147 0.306-3.965 0.446-4.859 0.379-4.517-0.231 2.429-4.333 6.341-3.74 6.262-3.443 1.081-4.19-1.551-0.223-2.893-0.482-2.984-0.572s1.62-2.082 3.803-4.424c7.619-8.179 7.988-8.618 7.564-9.041-0.284-0.284-1.825 0.599-5.252 3.002-2.732 1.919-4.999 3.263-5.189 3.083-0.201-0.185 0.149-1.418 0.844-2.974 1.040-2.327 1.157-2.921 0.959-4.838-0.22-2.089-0.17-2.255 1.085-3.758 0.797-0.957 1.409-2.168 1.557-3.092 0.239-1.499 0.995-2.336 4.775-5.288 1.292-1.012 0.783-1.328-1.384-0.868-0.999 0.212-1.864 0.339-1.922 0.284s0.917-1.427 2.166-3.047c2.966-3.839 2.966-4.073 0.005-3.029-2.33 0.824-2.407 0.751-1.252-1.22 0.834-1.427 1.038-2.215 0.997-3.908-0.042-1.878 0.097-2.308 1.238-3.744 1.31-1.652 1.562-2.273 0.932-2.273-0.797 0-0.838-1.67-0.083-3.353 0.428-0.959 1.319-3.074 1.976-4.7l1.194-2.957 0.923 2.201c1.731 4.124 1.758 4.246 1.284 5.819-0.536 1.787-0.351 2.176 2.202 4.676 1.055 1.031 1.917 1.994 1.917 2.138s-0.68 0.38-1.51 0.518c-0.833 0.14-1.508 0.367-1.506 0.506s1.193 0.89 2.643 1.673c1.452 0.783 2.638 1.571 2.638 1.751s-0.596 0.44-1.321 0.577c-0.726 0.138-1.321 0.364-1.321 0.5s0.806 1.087 1.796 2.11l1.796 1.856-1.321-0.212c-0.726-0.117-1.876-0.329-2.552-0.473-0.752-0.158-1.229-0.113-1.229 0.123 0 0.212 1.373 1.625 3.056 3.137 2.99 2.696 3.038 2.767 2.264 3.348-0.779 0.588-0.752 0.64 1.859 3.884 2.507 3.114 3.056 4.073 2.327 4.073-0.176 0-1.275-0.329-2.447-0.734-1.399-0.482-2.21-0.599-2.372-0.341-0.312 0.509 2.88 3.748 5.42 5.497 3.324 2.291 2.342 2.934-2.183 1.427-1.682-0.562-3.165-0.913-3.299-0.779s1.027 1.517 2.573 3.083c2.264 2.285 2.703 2.912 2.246 3.191-1.751 1.073-1.732 1.022-0.842 2.222 0.464 0.626 0.842 1.229 0.842 1.342 0 0.438-1.418 0.158-4.217-0.833-2.3-0.815-3.025-0.939-3.387-0.578-0.35 0.35-0.356 0.684-0.030 1.407 0.32 0.698 1.902 1.67 6.017 3.695 6.413 3.155 6.998 3.881 3.128 3.881-1.351 0-3.56-0.131-4.91-0.29-2.3-0.271-2.408-0.248-1.699 0.32 0.417 0.338 2.305 1.337 4.199 2.228 4.855 2.278 7.821 5.099 5.909 5.612-0.365 0.097-1.85 0.475-3.307 0.842s-2.78 0.779-2.948 0.923c-0.554 0.482 1.643 1.553 6.251 3.047 2.507 0.815 4.766 1.481 5.021 1.481s2.266-1.288 4.474-2.861c2.715-1.939 4.010-3.097 4.010-3.587 0-0.401-0.064-0.725-0.14-0.725s-1.444 0.426-3.034 0.944c-1.59 0.518-3.056 0.944-3.26 0.944-0.779 0-0.299-1.282 1.256-3.335 0.894-1.179 2.255-3.020 3.029-4.091l1.406-1.949-1.778 0.536c-3.236 0.975-2.978 0.086 1.103-3.816 2.026-1.938 3.684-3.614 3.684-3.731s-1.399 0.381-3.105 1.101c-1.706 0.72-3.246 1.31-3.422 1.31s0.627-1.208 1.783-2.683c1.156-1.475 2.101-2.813 2.101-2.975s-0.545-0.401-1.211-0.536l-1.211-0.242 6.332-6.368-4.476-0.23 2.582-1.886c2.363-1.724 2.507-1.907 1.699-2.135-0.485-0.138-1.479-0.274-2.204-0.302l-1.321-0.054 3.122-2.912c1.716-1.6 3.119-3.037 3.118-3.188s-0.808-0.167-1.79-0.032l-1.786 0.246 0.707-1.103c0.779-1.217 5.527-8.185 5.753-8.438 0.2-0.228 1.922 1.454 5.927 5.783l3.452 3.735-2.354-0.17c-1.295-0.095-2.354-0.104-2.354-0.023s1.401 1.841 3.118 3.911c1.715 2.067 3.174 3.932 3.247 4.143 0.077 0.224-0.274 0.296-0.851 0.176-0.54-0.113-1.445-0.302-2.012-0.422-0.962-0.203-0.992-0.174-0.447 0.473 2.764 3.283 5.63 6.886 5.63 7.070 0 0.498-1.634 0.176-4.595-0.905-3.231-1.179-4.244-1.375-4.030-0.784 0.068 0.194 2.633 2.665 5.698 5.495s5.567 5.263 5.567 5.412c-0.030 1.337-0.833 1.246-7.645-0.896-1.461-0.459-0.473 0.698 3.307 3.873 2.183 1.832 3.965 3.614 3.965 3.963 0 0.518-0.572 0.679-3.209 0.896-1.767 0.149-3.209 0.392-3.209 0.545 0 0.581 4.568 4.6 5.828 5.126 1.739 0.725 2.714 0.689 4.631-0.184 1.453-0.661 5.209-3.74 4.919-4.034-0.068-0.068-1.771 0.464-3.785 1.184s-3.659 1.172-3.659 1.004c0-0.952 2.957-3.541 5.639-4.937 4.923-2.561 4.698-3.254-0.572-1.758-2.292 0.653-3.771 0.9-3.998 0.674-0.386-0.386 3.623-4.098 8.516-7.88 1.553-1.202 2.732-2.343 2.614-2.534-0.428-0.689-4.127 0.086-7.041 1.476-2.429 1.157-3.024 1.319-3.3 0.882-0.483-0.761-0.328-1.040 3.071-5.441 2.876-3.722 3.002-3.967 2.092-3.967-0.536 0-0.974-0.149-0.974-0.329 0-0.268 5.112-4.884 7.475-6.747 1.177-0.931-0.001-0.986-3.191-0.149-1.883 0.493-3.392 0.713-3.587 0.518s1.508-2.13 4.037-4.604c2.403-2.347 4.289-4.352 4.188-4.451s-1.054 0.108-2.12 0.464c-1.067 0.356-2.005 0.575-2.090 0.491s1.044-1.886 2.507-4.004l2.659-3.854h-3.542l2.494-2.642c1.373-1.454 2.597-3.11 2.723-3.684 1.034-4.736 1.814-7.223 2.707-8.636 0.575-0.912 1.166-1.656 1.311-1.657 0.283-0.001 4.833 5.846 4.833 6.209 0 0.115-0.689 0.212-1.53 0.212h-1.53l0.932 1.229c0.512 0.675 1.646 2.725 2.518 4.559s2.19 3.915 2.925 4.631c0.735 0.716 1.22 1.418 1.077 1.562s-1.399-0.111-2.786-0.563c-1.436-0.466-2.669-0.68-2.858-0.491-0.276 0.276 4.123 3.653 8.143 6.251 0.572 0.369 1.040 0.905 1.040 1.193 0 0.646 0.013 0.647-1.643-0.042-1.472-0.616-2.52-0.734-2.503-0.284 0.005 0.158 1.445 1.39 3.2 2.741l3.191 2.454-3.012 0.111c-1.658 0.059-3.012 0.248-3.012 0.419s2.129 1.721 4.732 3.443c2.605 1.724 4.672 3.32 4.595 3.548-0.266 0.797-1.418 0.635-6.526-0.905-2.835-0.857-5.225-1.49-5.306-1.405s0.868 0.779 2.111 1.55c5.729 3.537 14.553 11.121 13.803 11.864-0.328 0.322-7.208-0.635-11.454-1.598-0.878-0.199-0.927-0.167-0.368 0.248 0.354 0.264 2.462 1.582 4.683 2.933 4.109 2.498 9.221 6.957 9.221 8.044 0 1.177-0.68 0.959-3.866-1.263-1.778-1.238-3.355-2.251-3.506-2.251s-0.194 0.509-0.104 1.133l0.167 1.133h-2.201c-1.886 0-2.201 0.1-2.201 0.698 0 0.758 3.38 1.931 12.21 4.233 4.825 1.257 6.009 1.238 8-0.14 4.665-3.227 15.201-11.303 15.594-11.952 0.878-1.447 0.086-1.517-2.012-0.176l-2.066 1.319v-3.217l-2.749 2.731c-1.51 1.499-2.944 2.731-3.182 2.731s-0.702-0.266-1.028-0.59c-0.536-0.536-0.786-0.409-2.677 1.382-1.148 1.085-2.18 1.877-2.293 1.761-0.284-0.284 1.894-4.541 3.624-7.087 2.213-3.248 4.262-5.387 7.443-7.773 1.616-1.211 3.109-2.356 3.317-2.544 0.761-0.69-3.881-0.001-5.432 0.806-0.869 0.455-1.68 0.824-1.805 0.824s-0.112-0.724 0.032-1.607l0.257-1.607-1.718 1.685c-1.895 1.859-2.28 1.463-1.002-1.042 1.015-1.993 2.453-3.311 5.504-5.058 5.108-2.922 7.745-4.838 8.748-6.356 0.554-0.835 0.932-1.593 0.842-1.683s-2.624 0.593-5.628 1.517c-3.004 0.923-5.743 1.681-6.084 1.681-0.504 0-1.079-0.706-1.079-1.32 0-0.068 1.463-1.715 3.254-3.65l3.254-3.524-4.306-0.378 2.489-2.056c1.369-1.13 2.489-2.174 2.489-2.318s-0.765-0.379-1.699-0.518c-0.934-0.14-1.699-0.374-1.699-0.518s1.616-1.535 3.588-3.092c1.976-1.558 3.435-2.885 3.249-2.947s-1.403-0.231-2.705-0.378l-2.363-0.266 4.784-3.353-3.283-1.094 2.106-2.023c1.157-1.112 1.994-2.091 1.859-2.17s-0.802-0.266-1.477-0.41c-0.675-0.145-1.229-0.347-1.229-0.446s0.674-1.065 1.499-2.142l1.499-1.959-1.31-0.117c-0.721-0.066-1.31-0.201-1.31-0.302s0.851-1.306 1.888-2.678c1.040-1.373 1.888-2.705 1.888-2.957 0-0.328-0.504-0.409-1.699-0.274-0.934 0.104-1.699 0.105-1.699 0.003s0.941-1.85 2.090-3.877c1.148-2.030 2.008-3.769 1.908-3.869s-0.733 0.013-1.404 0.247c-2.067 0.722-2.057-0.050 0.050-3.173 1.080-1.599 1.82-3.048 1.643-3.218s-0.764-0.365-1.307-0.435l-0.986-0.122 2.84-5.95c1.562-3.272 2.957-5.95 3.101-5.95 0.329 0 5.711 12.165 5.486 12.393-0.093 0.093-0.853-0.108-1.695-0.446s-1.526-0.484-1.526-0.329c0.005 0.689 1.688 2.921 4.184 5.549 1.49 1.571 2.534 2.852 2.317 2.852s-1.187-0.338-2.156-0.755c-3.126-1.338-3.143-0.896-0.086 2.182 1.607 1.616 2.921 3.16 2.921 3.434 0 0.371-0.581 0.464-2.266 0.37-1.417-0.079-2.266 0.023-2.265 0.269 0 0.22 1.354 1.493 3.003 2.831 4.146 3.362 4.118 4.285-0.101 2.912-1.378-0.446-2.637-0.678-2.798-0.509s1.448 1.947 3.578 3.95c3.417 3.218 4.514 4.613 3.587 4.565-0.158-0.008-1.767-0.325-3.578-0.705-3.114-0.653-3.695-0.653-3.695-0.023 0 0.149 1.868 1.409 4.154 2.801 4.622 2.818 4.837 3.182 3.039 5.225l-1.113 1.27 2.624 2.606c1.445 1.434 2.624 2.759 2.624 2.943s-0.426 0.257-0.944 0.158c-0.518-0.1-0.943-0.077-0.942 0.050s0.843 1.499 1.877 3.047c1.031 1.549 1.809 2.881 1.731 2.959-0.122 0.122-5.207-1.321-7.293-2.073-0.363-0.131 0.394 0.548 1.679 1.508 4.065 3.029 6.911 7.354 8.42 12.789 0.419 1.517 0.765 2.975 0.765 3.242s-1.769-0.966-3.934-2.732c-3.686-3.011-4.757-3.659-4.757-2.894 0 0.562 8.501 11.499 9.537 12.273l0.997 0.743 2.122-1.285c3.463-2.1 6.229-4.433 6.229-5.259 0-1.139-1.171-0.927-3.135 0.572-0.951 0.726-1.85 1.321-1.994 1.321s-0.166-0.596-0.047-1.321c0.237-1.454 0.023-1.604-1.084-0.769-1.193 0.901-1.409 0.68-1.196-1.211 0.193-1.697 0.404-1.981 4.217-5.572 2.21-2.081 4.010-3.935 4.001-4.118-0.006-0.194-1.634-0.226-3.791-0.077-2.651 0.185-3.776 0.137-3.776-0.156 0-0.896 1.964-3.291 4.046-4.937 2.255-1.783 2.732-2.759 2.003-4.118-0.41-0.769-0.455-0.755-2.048 0.546-1.819 1.49-2.114 1.594-2.114 0.742 0-0.87 1.71-3.111 4.034-5.287 1.382-1.292 1.967-2.103 1.814-2.507-0.203-0.534-0.491-0.511-2.66 0.194-1.537 0.5-2.561 0.659-2.786 0.429-0.225-0.228 0.536-1.549 2.056-3.569l2.41-3.209-2.246-0.594 1.331-2.381c0.734-1.31 1.227-2.488 1.095-2.615s-0.84 0.016-1.577 0.326c-2.211 0.923-2.113 0.061 0.293-2.566l2.275-2.484-1.132-0.394c-0.625-0.218-1.132-0.5-1.132-0.63s0.509-0.977 1.133-1.883c0.625-0.905 1.133-1.733 1.133-1.836s-0.542-0.032-1.202 0.158c-0.662 0.19-1.267 0.28-1.346 0.201-0.22-0.22 4.908-11.175 5.227-11.175 0.152 0 1.814 2.21 3.686 4.91 3.533 5.088 3.579 5.326 0.91 4.559-2.080-0.598-1.805 0.248 0.914 2.795l2.579 2.42-1.229 0.257c-0.675 0.141-1.229 0.365-1.229 0.495s1.094 0.824 2.426 1.544c2.534 1.365 2.807 1.904 0.971 1.904-0.599 0-1.175 0.14-1.283 0.311s0.818 1.314 2.057 2.538c2.019 1.996 2.759 3.2 1.967 3.191-0.158-0.005-1.175-0.241-2.264-0.533-2.206-0.589-2.978-0.179-1.302 0.689 0.597 0.31 2.048 1.346 3.224 2.303 1.877 1.526 2.138 1.911 2.138 3.090 0 0.956 0.329 1.718 1.127 2.629 1.121 1.274 2.465 3.54 2.103 3.54-0.104 0-1.472-0.509-3.041-1.133-5.089-2.021-4.89-1.409 0.797 2.46 2.412 1.642 4.472 3.209 4.577 3.488s-0.090 0.816-0.437 1.202c-0.59 0.653-0.577 0.806 0.213 2.435 0.464 0.957 0.73 1.85 0.59 1.993s-1.076-0.513-2.077-1.453c-2.516-2.354-3.479-2.842-3.947-2.004-0.276 0.496-0.657 0.59-1.643 0.402-0.707-0.131-1.283-0.099-1.283 0.075 0 0.58 3.551 3.731 6.82 6.055 1.778 1.265 3.956 3.083 4.844 4.046 1.526 1.654 3.434 5.081 3.443 6.179 0.005 0.277-1.345-0.617-2.992-1.994s-3.092-2.341-3.209-2.148c-0.119 0.193 0.464 1.17 1.293 2.174 1.409 1.706 1.886 2.786 1.227 2.784-0.158-0.002-1.64-1.105-3.298-2.454s-3.132-2.453-3.279-2.453c-0.147 0-0.608 0.437-1.028 0.968l-0.761 0.968 4.417 2.96c5.243 3.515 8.488 6.377 10.438 9.21 2.186 3.173 1.358 3.263-2.318 0.251-1.778-1.457-3.4-2.651-3.606-2.651s-0.959 0.509-1.668 1.133c-1.416 1.242-2.903 1.455-4.129 0.597-0.68-0.475-0.907-0.447-1.995 0.239-0.677 0.428-1.093 0.914-0.923 1.081s1.751 0.92 3.516 1.673c1.767 0.753 5.162 2.412 7.547 3.686 4.087 2.181 4.514 2.322 7.367 2.47 3.452 0.176 7.214-0.625 9.041-1.922l1.132-0.806-1.308-0.267c-0.718-0.149-2.687-0.383-4.37-0.527s-3.272-0.383-3.522-0.537c-0.284-0.176 1.426-1.346 4.479-3.074 2.714-1.535 4.937-3.007 4.937-3.266 0.005-0.671-0.59-0.593-3.587 0.464-3.218 1.139-5.261 1.195-6.893 0.2-0.675-0.41-1.229-0.833-1.229-0.939s1.063-0.723 2.363-1.373c1.3-0.653 2.435-1.249 2.524-1.331s-0.333-0.663-0.939-1.295c-1.238-1.292-1.384-1.072 2.1-3.074 1.142-0.658 2.759-1.634 3.587-2.165l1.51-0.969-8.312-0.378 5.95-4.466c3.272-2.455 5.95-4.709 5.95-5.006s-0.082-0.54-0.182-0.54c-0.1 0-1.886 0.68-3.974 1.51s-3.875 1.51-3.974 1.51c-0.448 0-0.113-0.97 0.602-1.731 0.686-0.729 0.721-0.941 0.284-1.661-0.464-0.766-0.374-0.932 1.201-2.201 2.79-2.25 5.202-4.847 6.053-6.512 0.439-0.86 0.744-1.617 0.68-1.679s-1.31 0.371-2.766 0.96c-2.777 1.13-3.965 1.355-3.965 0.753 0-0.198 1.807-2.417 4.019-4.936 2.983-3.394 3.91-4.685 3.593-5s-0.779-0.257-1.797 0.23c-0.754 0.36-1.418 0.606-1.471 0.545s1.378-3.167 3.181-6.903l3.275-6.791 2.817 4.892c1.55 2.69 2.876 5.026 2.943 5.189s-0.518 0.294-1.304 0.294h-1.43l1.47 1.505c0.806 0.827 1.394 1.571 1.304 1.65s-0.556 0.348-1.038 0.599c-0.853 0.446-0.824 0.491 1.383 2.183 1.278 0.977 2.175 1.938 2.073 2.21-0.104 0.266-1.022 0.598-2.047 0.737s-1.859 0.437-1.859 0.661c0 1.101 2.066 3.713 3.981 5.027 2.866 1.974 3.479 3.272 2.3 4.883-0.501 0.689-0.617 0.671-3.389-0.494-1.58-0.662-3.047-1.205-3.257-1.205-1.166 0 0.185 1.334 4.735 4.676 4.577 3.364 5.96 4.792 4.604 4.755-0.259-0.006-1.832-0.336-3.488-0.727s-3.103-0.628-3.209-0.525c-0.202 0.202 1.287 1.628 4.122 3.958l1.67 1.373-1.577 0.266c-0.869 0.148-1.577 0.392-1.577 0.544s2.3 1.355 5.117 2.673c2.813 1.319 5.204 2.539 5.311 2.714 0.536 0.867-0.536 0.888-3.902 0.086-2.030-0.484-4.073-0.887-4.541-0.894-1.319-0.016-1.020 1.028 0.378 1.319 0.675 0.14 3.33 1.098 5.9 2.128 5.568 2.228 8.378 2.642 11.319 1.664 1.067-0.356 2.021-0.77 2.115-0.926s-1.771-1.427-4.152-2.826c-2.38-1.4-4.325-2.685-4.325-2.855 0-0.787 1.285-1.085 5.666-1.317 5.038-0.266 6.806-0.504 6.791-0.912-0.005-0.14-2.426-1.027-5.38-1.972-7.205-2.307-7.336-2.831-0.765-3.102 4.896-0.203 10.878-1.499 10.878-2.354 0-0.208-2.336-0.618-5.195-0.914-3.218-0.333-5.195-0.698-5.195-0.955 0-0.23 1.571-0.995 3.496-1.697 7.713-2.826 9.346-3.5 9.167-3.791-0.104-0.167-2.732 0.338-5.839 1.121-5.306 1.337-6.062 1.427-6.062 0.737 0-0.15 3.655-3.452 8.123-7.34 7.232-6.287 8.717-7.747 7.888-7.747-0.131 0-3.029 1.555-6.44 3.459-7.331 4.084-8.172 4.091-4.892 0.028 3.074-3.803 2.863-3.974-1.706-1.382-1.675 0.95-3.128 1.643-3.236 1.536-0.32-0.32 2.162-3.692 4.585-6.233 1.257-1.321 3.989-3.807 6.065-5.522 5.846-4.829 6.287-5.558 2.866-4.738-1.044 0.249-2.057 0.398-2.255 0.327s0.743-1.49 2.084-3.152c2.894-3.587 4.656-7.099 5.82-11.616 1.22-4.718 1.679-4.524 3.677 1.526 0.878 2.659 1.596 5.036 1.596 5.28s-0.448 0.563-0.997 0.699c-0.986 0.248-0.968 0.278 1.347 2.369l2.345 2.12-0.626 1.238c-0.608 1.202-0.595 1.301 0.52 3.684 0.63 1.346 1.063 2.446 0.96 2.446s-1.067-0.596-2.147-1.321c-1.952-1.316-2.919-1.637-2.919-0.977 0 0.192 1.828 2.075 4.062 4.188 4.357 4.118 4.334 4.005 0.566 3.137-1.218-0.282-1.044 0.312 0.382 1.31 2.272 1.589 2.624 1.924 2.399 2.291-0.131 0.212-1.418-0.102-3.101-0.752-1.58-0.616-2.966-1.029-3.074-0.92-0.527 0.527 4.17 4.316 7.197 5.81 1.805 0.888 3.279 1.682 3.279 1.762s-0.831 0.324-1.842 0.543c-1.373 0.293-2.651 0.266-5.006-0.113-1.741-0.281-3.245-0.428-3.353-0.329-0.401 0.383 2.209 2.062 4.953 3.191 1.58 0.651 3.281 1.494 3.776 1.877 0.896 0.689 0.878 0.696-2.589 0.704-1.922 0.005-3.496 0.167-3.496 0.36s2.209 1.080 4.904 1.97c2.696 0.89 4.78 1.731 4.628 1.867s-1.112 0.557-2.135 0.94l-1.859 0.69 8.626 4.093-1.321 0.564c-1.125 0.482-1.773 0.497-4.343 0.104-5.531-0.849-5.504-0.554 0.257 2.966 3.541 2.164 5.103 3.323 4.964 3.684-0.261 0.68-0.608 0.667-5.788-0.23-2.39-0.412-4.388-0.752-4.439-0.752s-0.095 0.212-0.095 0.477c0 0.284 1.355 0.847 3.307 1.373 1.818 0.491 3.443 1.015 3.607 1.166s-0.149 0.565-0.701 0.928l-1.004 0.658 1.267 1.319c1.379 1.436 2.948 2.39 3.929 2.39 0.851 0 3.191-1.139 3.191-1.553 0-0.185-0.401-0.336-0.887-0.336-1.281 0-3.324-0.779-3.18-1.211 0.068-0.203 1.897-1.129 4.066-2.057s4-1.742 4.064-1.805c0.068-0.068-1.291-0.68-3.011-1.36s-3.281-1.373-3.461-1.532c-0.183-0.159 1.076-1.001 2.801-1.868l3.129-1.573-1.76-1.507c-0.968-0.828-1.76-1.643-1.76-1.813s1.103-0.777 2.454-1.349c1.351-0.572 2.453-1.229 2.453-1.46s-1.148-0.767-2.552-1.193l-2.548-0.779 2.831-1.436c1.559-0.789 2.889-1.489 2.957-1.549s-0.168-0.562-0.527-1.11c-0.626-0.952-0.622-1.020 0.065-1.502 2.606-1.836 5.054-3.948 4.775-4.122-0.183-0.113-1.553 0.112-3.045 0.493-1.735 0.446-2.796 0.563-2.948 0.32-0.13-0.208 0.636-1.257 1.7-2.336s1.933-2.075 1.933-2.212c0-0.14-0.707-0.005-1.571 0.301s-1.653 0.471-1.758 0.365c-0.104-0.104 0.604-1.031 1.571-2.066 1.421-1.518 1.758-2.138 1.758-3.245 0-1.016 0.293-1.661 1.137-2.504 1.301-1.301 1.184-1.829-0.401-1.829-1.49 0-1.4-0.509 0.401-2.223 1.593-1.517 1.749-2.015 1.13-3.643-0.311-0.815-0.194-1.427 0.617-3.236 0.551-1.228 1.115-2.228 1.256-2.228s0.635 0.509 1.094 1.135c2.274 3.077 2.705 3.929 2.705 5.389 0 1.562 0.68 2.942 2.906 5.9 0.689 0.914 1.247 1.762 1.248 1.888s-0.851 0.169-1.888 0.097c-1.040-0.072-1.888 0.032-1.888 0.23s1.274 1.814 2.831 3.594c1.559 1.778 2.831 3.332 2.831 3.452s-0.934 0.221-2.076 0.221c-2.035 0-2.076 0.023-2.076 1.084 0 1.652 1.281 2.962 3.605 3.695 1.133 0.356 2.057 0.746 2.057 0.864-0.023 0.768-0.941 1.109-3.772 1.399l-3.209 0.329 1 1.017c0.553 0.562 1.94 1.291 3.092 1.625 2.072 0.601 4.032 1.812 4.032 2.487 0 0.194-1.274 0.35-2.831 0.35s-2.831 0.131-2.831 0.294c0 0.163 1.103 0.968 2.453 1.796s2.453 1.625 2.454 1.783c0 0.158-1.274 0.284-2.831 0.284s-2.831 0.157-2.831 0.347c0 0.32 5.684 2.678 6.454 2.678 0.191 0 0.347 0.239 0.347 0.527 0 0.608-0.806 0.986-2.11 0.986-0.501 0-0.914 0.144-0.914 0.32 0 0.554 4.424 4.568 5.471 4.964 1.563 0.595 3.203 0.449 4.587-0.407 0.698-0.433 1.274-0.913 1.274-1.066s-0.934-0.572-2.076-0.932c-1.142-0.36-2.076-0.878-2.076-1.153 0-0.29 1.688-1.112 4.030-1.965 5.090-1.85 5.499-2.527 1.426-2.358-1.71 0.071-2.986-0.032-3.048-0.248-0.059-0.203 1.924-1.629 4.409-3.165s4.516-3.005 4.516-3.263c0-0.347-0.669-0.293-2.642 0.228-1.454 0.383-3.66 0.808-4.91 0.95-1.895 0.213-2.273 0.161-2.273-0.32 0-0.318 2.207-2.317 4.902-4.442s4.817-4.007 4.712-4.18c-0.105-0.173-0.401-0.248-0.653-0.17-1.306 0.405-5.18 0.581-5.18 0.235 0-0.212 1.699-1.67 3.776-3.245s3.776-3.045 3.776-3.268c0-0.267-0.581-0.32-1.699-0.151-0.972 0.147-1.699 0.104-1.699-0.095 0-0.194 0.511-0.995 1.139-1.78s1.068-1.499 0.986-1.586c-0.086-0.086-0.761 0.104-1.508 0.412-0.842 0.352-1.442 0.428-1.582 0.196-0.125-0.203 1.148-2.237 2.824-4.523s3.055-4.218 3.055-4.299c0-0.081-0.596-0.346-1.321-0.583s-1.321-0.599-1.321-0.794c0-0.195 0.443-1.023 0.983-1.841 0.7-1.058 1.517-3.731 2.843-9.34 2.247-9.491 2.175-9.248 2.671-8.942 0.636 0.392 2.822 5.441 3.263 7.529 0.221 1.049 0.515 3.938 0.653 6.422 0.269 4.802 0.73 6.381 2.718 9.316 0.603 0.889 1.211 1.931 1.35 2.312 0.23 0.626 0.097 0.671-1.355 0.446-0.885-0.139-1.904-0.334-2.264-0.437-0.533-0.149-0.41 0.307 0.639 2.39 0.715 1.418 1.409 3.042 1.55 3.614 0.221 0.911 0.14 1.040-0.639 1.045-2.11 0.014-2.075 0.276 0.957 7.647 1.58 3.847 2.876 7.099 2.876 7.232s-1.511-0.869-3.36-2.223c-1.849-1.355-3.533-2.464-3.749-2.464s0.008 0.724 0.5 1.607c0.491 0.884 1.267 2.624 1.726 3.873 0.923 2.511 1.999 4.242 3.167 5.099 0.716 0.527 0.59 0.581-1.843 0.755-1.436 0.104-2.678 0.374-2.75 0.601s0.978 1.332 2.344 2.454c1.364 1.122 2.981 2.789 3.595 3.704 1.088 1.62 1.823 4.005 1.373 4.456-0.122 0.122-1.546-0.037-3.164-0.356l-2.938-0.581 1.24 1.040c2.153 1.804 5.783 2.42 8.19 1.394 0.878-0.374 1.211-0.842 1.527-2.156 0.34-1.401 0.668-1.823 1.994-2.555 0.874-0.482 1.589-1.031 1.589-1.214s-0.851-0.449-1.888-0.588c-1.040-0.14-1.888-0.347-1.888-0.464s0.806-0.927 1.796-1.796l1.796-1.583-1.425-0.681c-0.783-0.374-1.346-0.86-1.25-1.082s0.446-1.271 0.777-2.336c0.33-1.067 0.937-2.237 1.346-2.607 1.021-0.923 0.939-1.175-0.471-1.458l-1.211-0.242 1.496-0.995c1.994-1.328 1.945-1.266 1.301-1.652-1.562-0.94-1.554-0.914-0.685-2.842 0.716-1.589 0.831-2.44 0.77-5.828-0.077-4.298 0.824-8.393 1.896-8.609 0.743-0.149 4.308 10.509 4.127 12.331-0.158 1.582 0.55 7.070 1.301 10.067 0.509 2.024 0.508 2.469-0.011 4.154l-0.579 1.886 1.916 1.94c1.055 1.067 1.769 2.030 1.593 2.139s-1.004 0.321-1.832 0.473c-2.163 0.392-2.211 0.487-0.85 1.611 1.751 1.445 2.096 1.967 2.378 3.596 0.273 1.574 1.292 2.263 2.63 1.769 0.653-0.239 0.759-0.63 0.77-2.877 0.023-3.407 1.184-8.159 1.959-8.004 0.32 0.065 1.221 1.757 2.077 3.893 1.211 3.019 1.573 4.499 1.81 7.367 0.162 1.976 0.518 4.565 0.788 5.756 0.394 1.741 0.401 2.426 0.023 3.462-0.434 1.198-0.396 1.367 0.491 2.255 1.174 1.174 1.229 2.618 0.174 4.352l-0.781 1.283 4.25 4.294-4.307 0.965 1.949 1.789c1.529 1.407 1.949 2.039 1.949 2.946 0 0.949 0.206 1.229 1.148 1.554 1.27 0.444 1.656 0.338 5.747-1.535 1.401-0.644 2.552-1.328 2.552-1.517 0-0.203-0.882-0.239-2.115-0.086-1.165 0.146-2.378 0.284-2.696 0.311-1.368 0.109-0.653-0.833 1.976-2.597 3.725-2.502 3.803-3.171 0.287-2.489-0.884 0.171-1.607 0.211-1.607 0.086s1.382-1.613 3.066-3.308c1.688-1.697 3.003-3.272 2.929-3.503-0.077-0.238-1.085 0.253-2.313 1.122-1.194 0.85-2.334 1.486-2.525 1.418s1.243-2.336 3.192-5.036c1.949-2.701 3.555-5.037 3.567-5.195s-1.085-0.284-2.435-0.284c-1.351 0-2.454-0.149-2.454-0.33s0.933-0.82 2.075-1.418c2.639-1.38 2.698-2.030 0.19-2.030-1.040 0-1.888-0.158-1.888-0.356s0.765-0.905 1.699-1.575c1.569-1.126 2.112-1.841 1.418-1.854-0.158-0.005-0.536-0.166-0.842-0.357-0.455-0.285-0.284-0.59 0.914-1.625 1.526-1.319 1.58-2.165 0.136-2.165-1.796 0 0.221-5.513 2.579-7.061 0.761-0.5 0.869-0.411 2.039 1.661 0.68 1.202 1.805 2.936 2.499 3.848 1.481 1.94 1.67 3.713 0.509 4.762-1.016 0.921-0.959 1.265 0.446 2.714 1.382 1.427 1.212 1.94-0.416 1.265-0.618-0.257-1.283-0.408-1.472-0.335s0.539 2.513 1.624 5.423l1.967 5.288-2.053 0.378 0.867 2.9c1.535 5.146 2.167 6.243 3.887 6.76 2.753 0.824 2.786 0.75 2.507-5.783-0.141-3.335-0.081-7.115 0.145-8.974 0.455-3.721 1.535-8.691 1.886-8.68 0.132 0.005 1.337 2.481 2.676 5.504 2.455 5.549 2.489 5.738 1.085 6.285-0.32 0.124 0.68 6.134 1.266 7.592 0.662 1.643 1.904 2.3 3.416 1.797 1.922-0.638 3.182-1.939 3.84-3.961 0.558-1.71 0.555-1.886-0.023-2.309-0.578-0.421-0.564-0.545 0.149-1.551 1.4-1.971 2.057-4.695 2.333-9.671 0.149-2.642 0.401-4.937 0.563-5.098 0.491-0.491 3.542 3.071 3.979 4.649 0.225 0.811 0.41 2.534 0.41 3.83 0 2.048 0.14 2.509 1.069 3.551l1.067 1.194 0.806-1.303c1.011-1.634 1.922-8.114 2.237-15.882 0.257-6.359 0.65-7.122 2.147-4.163 0.97 1.922 1.829 6.278 2.556 12.99 0.392 3.623 0.581 4.325 1.337 4.982 0.805 0.698 0.86 0.968 0.638 3.119-0.314 3.072 0 4.172 1.434 5.045l1.177 0.716-1.377 0.257c-0.758 0.141-1.381 0.365-1.382 0.5-0.005 0.131 0.977 1.129 2.174 2.21l2.176 1.967-2.174 0.014c-1.193 0.007-2.165 0.141-2.155 0.299s0.689 0.963 1.508 1.796l1.49 1.51-1.13 0.119c-1.51 0.158-1.427 0.53 0.401 1.74 1.546 1.022 1.58 1.148 0.86 3.074-0.082 0.221 0.365 1.155 0.989 2.076 1.089 1.607 1.519 3.38 0.824 3.38-0.183 0-1.062-0.257-1.958-0.572-1.104-0.392-1.751-0.451-2.012-0.189-0.446 0.446-0.605 0.275 3.065 3.197 2.237 1.779 2.669 2.291 2.381 2.831-0.578 1.078-1.355 1.546-3.092 1.859l-1.645 0.294 5.666 2.974-2.759 0.189c-2.638 0.181-2.733 0.221-2.227 0.914 0.293 0.4 1.617 1.247 2.948 1.888 1.805 0.869 2.558 1.474 2.982 2.394 0.753 1.637 2.733 2.3 4.919 1.644 1.742-0.522 4.145-1.859 4.145-2.309 0-0.167-1.037-0.424-2.302-0.572l-2.302-0.266 2.105-1.4c2.075-1.38 2.097-1.409 1.484-2.283-0.923-1.319-0.802-3.946 0.248-5.36l0.869-1.174-3.533 0.528 1.527-3.038c0.842-1.67 1.527-3.128 1.527-3.236s-0.724-0.203-1.607-0.212l-1.607-0.014 1.391-1.229c1.319-1.166 1.355-1.256 0.662-1.688-0.887-0.554-0.941-1.482-0.137-2.372 0.329-0.362 0.842-1.859 1.148-3.326 0.5-2.41 0.492-2.759-0.058-3.599-0.599-0.913-0.577-0.952 1.010-2.102 2.037-1.474 2.915-1.355 3.983 0.553 0.74 1.319 0.775 1.576 0.293 2.108-0.713 0.788-0.697 1.652 0.043 2.264 0.554 0.459 1.676 2.33 1.676 2.795 0 0.113-0.671 0.208-1.49 0.208s-1.58 0.149-1.697 0.337c-0.113 0.185 0.725 1.131 1.868 2.107s2.075 1.913 2.075 2.084c0 0.172-0.509 0.491-1.133 0.707s-1.133 0.464-1.133 0.553c0 0.086 1.268 1.148 2.819 2.363s2.759 2.268 2.684 2.345c-0.076 0.076-1.046-0.032-2.156-0.233s-2.057-0.334-2.102-0.293c-0.042 0.041 1.274 1.896 2.923 4.121s2.939 4.046 2.867 4.046c-0.077 0-1.114-0.432-2.309-0.959s-2.35-0.901-2.57-0.828c-0.22 0.073 0.581 1.094 1.774 2.268 1.796 1.766 2.102 2.255 1.787 2.813-0.312 0.554-0.067 1.001 1.355 2.448l1.738 1.772-1.097 0.239c-0.604 0.131-1.418 0.362-1.808 0.512-0.646 0.248-0.617 0.338 0.354 0.971 1.965 1.286 3.812 1.193 7.842-0.395 2.012-0.796 3.659-1.559 3.659-1.697s-0.806-0.374-1.788-0.523c-2.947-0.442-5.040-1.991-4.521-3.343 0.095-0.244 2.062-1.445 4.372-2.669s4.202-2.435 4.202-2.696c0-0.545-1.184-0.923-2.929-0.932-1.49-0.005-1.519-0.225-0.221-1.583 0.966-1.006 0.979-1.085 0.354-1.778-0.626-0.69-0.61-0.815 0.329-2.666 0.541-1.067 1.4-2.304 1.913-2.75 1.031-0.896 1.228-1.805 0.386-1.805-1.080 0-1.031-0.843 0.123-2.034 0.646-0.668 1.175-1.333 1.175-1.48s-0.596-0.266-1.321-0.266c-1.522 0-1.634-0.392-0.545-1.922 0.635-0.896 0.734-1.409 0.518-2.824-0.239-1.587-0.163-1.832 0.896-2.93l1.156-1.202-0.541-2.066c-0.698-2.66-0.681-4.647 0.055-8.213 0.648-3.137 1.986-6.379 2.435-5.891 0.563 0.617 1.127 3.047 1.661 7.151 0.635 4.883 1.148 6.294 3.038 8.384l1.381 1.526-3.128 0.618 2.696 3.398-1.318 0.117c-1.562 0.14-1.676 0.735-0.374 1.959 1.076 1.010 1.202 1.955 0.378 2.778-0.779 0.779-0.769 0.794 0.986 1.585l1.553 0.7-1.031 0.887c-0.567 0.489-0.967 0.951-0.887 1.031s0.95 0.491 1.931 0.914c0.984 0.42 1.787 0.852 1.787 0.959s-0.717 0.563-1.598 1.010l-1.598 0.815 1.409 1.218c1.644 1.423 1.832 2.183 0.464 1.899-0.518-0.108-1.364-0.284-1.877-0.392-1.373-0.284-0.878 0.605 1.147 2.057 1.433 1.030 1.679 1.399 1.679 2.516 0 0.723-0.275 1.732-0.608 2.243-0.603 0.923-0.591 0.94 1.038 1.669 1.563 0.699 1.701 0.707 2.741 0.095 1.949-1.142 2.030-1.643 0.728-4.573l-1.175-2.645 1.535-1.268c1.4-1.155 1.533-1.418 1.49-2.946-0.041-1.411 0.158-1.912 1.265-3.164 0.779-0.884 1.445-1.345 1.634-1.133 0.338 0.372 3.067 7.323 3.065 7.814 0 0.158-0.248 0.284-0.545 0.284-1.094 0-0.869 0.68 1.531 4.693 1.346 2.248 2.395 4.143 2.329 4.208s-1.094-0.155-2.282-0.486c-1.193-0.331-2.291-0.482-2.439-0.329s0.996 1.409 2.551 2.802c5.376 4.818 5.677 5.143 5.324 5.693-0.279 0.432-0.666 0.441-2.288 0.050-1.075-0.257-2.039-0.383-2.147-0.275s1.166 1.23 2.831 2.498c3.419 2.605 3.517 2.714 3.083 3.416-0.26 0.42-0.725 0.428-2.657 0.050-1.287-0.254-2.453-0.347-2.588-0.21-0.32 0.329 1.877 2.18 4.379 3.692 1.433 0.864 1.985 1.427 1.985 2.030 0 0.458-0.155 0.931-0.342 1.046s-0.255 0.553-0.145 0.968c0.185 0.707 0.013 0.754-2.746 0.754h-2.943l0.914 0.986c2.649 2.848 6.635 4.574 9.053 3.92 1.229-0.329 4.137-2.885 4.137-3.629 0-0.128-0.765-0.115-1.699 0.023-2.070 0.311-2.155-0.047-0.561-2.399 1.256-1.856 1.299-2.032 0.716-3.119-0.346-0.644-0.132-1.183 1.31-3.353l1.723-2.588-3.362-0.23 1.22-1.868c1.193-1.827 1.225-1.992 1.427-7.178 0.163-4.145 0.365-5.619 0.921-6.725 0.392-0.779 0.851-1.418 1.025-1.418 0.599 0 1.795 2.444 2.021 4.145 0.473 3.515 1.355 6.273 2.444 7.628l1.112 1.382-1.348-0.374c-0.743-0.203-1.401-0.32-1.469-0.249s1.057 1.711 2.489 3.65c1.436 1.94 2.61 3.686 2.61 3.873s-0.864 0.342-1.922 0.342c-1.319 0-1.874 0.14-1.769 0.449 0.083 0.248 1.616 1.481 3.407 2.741s3.27 2.39 3.281 2.512c0.014 0.122-0.419 0.426-0.962 0.671l-0.986 0.448 1.742 1.622c0.959 0.892 1.742 1.904 1.742 2.248 0 0.95-1.561 1.148-3.794 0.482-1.102-0.329-2.082-0.516-2.178-0.419-0.464 0.464 2.147 3.011 5.054 4.927 2.921 1.922 3.959 2.937 3.491 3.405-0.092 0.092-1.686-0.085-3.542-0.388s-3.623-0.555-3.92-0.561c-1.202-0.014 2.098 2.649 4.475 3.611 6.17 2.498 7.853 3.551 7.016 4.39-0.112 0.112-2.093-0.209-4.41-0.707-3.974-0.86-5.225-0.914-5.199-0.23 0.005 0.163 2.381 1.571 5.283 3.128 5.339 2.867 6.62 4.079 3.866 3.659-0.779-0.121-3.074-0.335-5.099-0.478-3.507-0.248-3.684-0.226-3.684 0.49 0 0.608 1.134 1.23 6.046 3.323 3.326 1.417 6.228 2.792 6.449 3.056 0.419 0.507 0.102 0.629-4.376 1.695-1.040 0.248-2.029 0.572-2.197 0.725s0.41 0.805 1.287 1.448c1.499 1.103 4.082 2.12 7.804 3.077 1.697 0.437 1.895 0.845 1.175 2.427-0.349 0.769-0.311 1.13 0.21 1.922 1.31 1.998 3.877 2.173 6.079 0.41l1.133-0.906-1.51-0.248c-3.273-0.539-3.269-0.77 0.064-2.291 2.258-1.031 3.029-1.558 2.871-1.967-0.172-0.446-0.659-0.509-2.426-0.311-1.274 0.145-2.21 0.104-2.21-0.097 0-0.193 1.526-1.346 3.394-2.57 3.443-2.255 4.343-3.407 2.367-3.028-0.572 0.11-1.76 0.309-2.642 0.44l-1.604 0.241 0.21-2.393c0.339-3.9 0.896-5.684 2.297-7.394 0.909-1.111 1.166-1.661 0.824-1.769-0.275-0.086-0.986-0.304-1.58-0.485l-1.085-0.329 4.181-3.227-1.103-2.674c-0.608-1.472-1.099-2.777-1.094-2.904s0.698-0.741 1.535-1.363c1.395-1.031 1.508-1.239 1.289-2.404-0.199-1.058-0.005-1.625 1.139-3.353 0.761-1.143 1.517-1.931 1.686-1.751 0.356 0.383 3.407 7.661 3.407 8.132 0 0.176-0.416 0.32-0.923 0.32-1.548 0-1.439 0.638 0.365 2.147 1.391 1.163 1.681 1.61 1.505 2.318-0.167 0.662 0.163 1.333 1.339 2.741 0.86 1.024 1.4 1.863 1.206 1.863s-1.346-0.342-2.561-0.761c-1.283-0.442-2.348-0.618-2.543-0.426s1.418 1.887 3.848 4.045c2.3 2.039 4.182 3.92 4.182 4.181 0 0.866-0.756 0.955-2.678 0.317-1.049-0.347-1.994-0.545-2.101-0.437s1.341 1.408 3.218 2.885c2.291 1.806 3.344 2.875 3.2 3.245-0.266 0.689-0.914 0.689-3.532-0.014-1.142-0.307-2.12-0.561-2.174-0.563-0.050-0.005-0.095 0.248-0.095 0.555s1.628 1.652 3.619 2.982c1.991 1.33 3.458 2.52 3.261 2.642s-0.456 0.712-0.577 1.31c-0.209 1.040-0.327 1.095-2.728 1.291-1.382 0.113-2.68 0.374-2.89 0.581-0.518 0.518 3.574 3.265 6.395 4.298 3.242 1.184 3.875 2.048 3.875 5.26 0 3.381-0.692 5.057-2.435 5.889-1.572 0.752-1.634 0.967-0.492 1.768 2.334 1.64 2.336 1.643 1.66 2.673-0.82 1.251-0.791 1.463 0.374 2.849 1.472 1.751 3.74 2.73 11.283 4.872 9.656 2.742 13.011 3.437 17.907 3.708 3.947 0.219 4.397 0.32 5.369 1.22 0.581 0.538 3.317 4.928 6.080 9.752 5.891 10.294 7.565 12.696 10.571 15.153 2.423 1.985 3.426 2.595 23.464 14.235 10.589 6.152 13.65 8.101 14.103 8.974 0.869 1.685 0.284 2.012-2.645 1.472-3.079-0.568-10.491-2.932-17.997-5.742-8.78-3.289-11.923-4.667-20.274-8.906-8.423-4.272-10.229-4.784-13.956-3.951-4.379 0.978-9.167 5.531-9.491 9.016-0.134 1.463 0.050 2.166 1.055 4.037 1.774 3.302 3.915 6.395 6.8 9.823 9.621 11.424 29.012 21.8 52.485 28.087 13.736 3.679 31.43 6.476 40.984 6.476 2.363 0 4.722 0.569 4.722 1.138 0 0.167-0.724 0.652-1.607 1.069-1.327 0.63-2.957 0.838-9.347 1.189-11.976 0.659-15.090 1.616-17.655 5.432-1.598 2.372-2.112 4.398-1.895 7.413 0.221 3.056 1.373 5.563 3.551 7.74 1.94 1.94 4.334 2.931 9.041 3.755 3.797 0.662 4.401 1.157 2.907 2.372-3.462 2.822-12.741 6.143-22.39 8.018-3.219 0.626-9.806 1.9-14.631 2.831-5.766 1.112-9.476 2.027-10.821 2.66-2.709 1.283-4.937 3.736-5.688 6.27-0.76 2.552-0.744 3.199 0.135 6.703 1.166 4.649 1.622 8.564 1.34 11.562-0.311 3.317 0.221 4.775 3.1 8.523 3.565 4.641 3.713 5.648 1.454 9.928-3.497 6.629-4.702 12.327-5.681 26.902-0.126 1.868-0.731 7.945-1.345 13.505-1.256 11.393-1.119 10.894-6.017 21.626-1.706 3.74-3.998 8.861-5.090 11.379-3.595 8.291-6.149 11.119-14.948 16.541-13.098 8.071-26.971 14.262-38.985 17.394-8.24 2.147-11.521 2.471-25.454 2.499-23.119 0.050-43.856 0.595-47.363 1.24-6.746 1.245-13.193 3.924-16.539 6.875-1.598 1.409-2.372 2.543-3.857 5.648-2.977 6.221-3.409 6.401-14.694 6.125-9.185-0.225-11.557-0.583-27.99-4.236-12.013-2.67-19.284-4.582-40.040-10.527-31.201-8.934-43.721-12.237-47.718-12.572-5.468-0.464-10.007 0.952-15.606 4.865-2.747 1.918-2.943 1.992-5.366 1.992-1.382 0-4.607-0.32-7.167-0.711-6.467-0.988-12.672-0.737-16.881 0.684-6.161 2.081-11.706 5.612-15.864 10.101-2.975 3.214-5.386 7.016-10.004 15.801-6.012 11.434-11.904 19.68-14.983 20.966-0.746 0.311-1.409 0.567-1.472 0.567s-0.365-0.806-0.68-1.796c-0.347-1.094-0.642-4.001-0.759-7.46-0.133-3.946-0.424-6.548-0.956-8.573-2.381-9.079-9.587-18.861-17.991-24.43-1.661-1.103-5.234-3.083-7.943-4.402-8.264-4.029-13.779-5.504-20.58-5.504-6.362 0.005-9.338 0.806-12.035 3.241-2.912 2.632-4.064 6.236-7.429 23.236-2.301 11.634-2.957 13.992-4.937 17.754-4.595 8.732-11.786 14.102-21.229 15.863-6.994 1.301-11.166 2.858-16.179 6.038-2.022 1.283-2.499 1.374-3.137 0.608zM707.832 654.716c0.914-0.955 1.572-1.823 1.463-1.933-0.258-0.258-6.278 2.566-6.278 2.948 0 0.29 1.022 0.572 2.426 0.671 0.415 0.031 1.439-0.693 2.39-1.684zM575.482 654.338c1.568-0.57 7.861-3.901 9.113-4.822 1.895-1.398-0.446-0.957-7.76 1.463-4.352 1.44-7.916 2.81-7.916 3.043 0 0.491 1.067 1.49 1.888 1.765 0.311 0.104 1.162-0.059 1.888-0.365s1.982-0.792 2.786-1.085zM742.44 649.622l1.919-1.919-0.929-0.698c-0.509-0.383-0.845-0.771-0.743-0.86s1.925-1.469 4.055-3.065c3.721-2.793 4.92-4.334 3.020-3.879-2.030 0.487-3.684 0.698-3.684 0.473 0-0.134 0.86-1.472 1.914-2.969l1.914-2.723-2.365-0.689 4.766-4.841-1.418 0.257c-1.238 0.225-1.418 0.167-1.418-0.473 0-1.724 1.269-4.856 2.444-6.033l1.238-1.238-2.607-0.491 1.193-1.232c0.75-0.771 1.040-1.328 0.784-1.487-0.788-0.488-0.401-1.779 0.904-3.011 1.193-1.124 1.283-1.349 0.966-2.453-0.193-0.669-0.248-1.5-0.124-1.852 0.255-0.725 2.39-3.094 2.795-3.094 0.446 0 4.861 5.387 4.669 5.693-0.338 0.551 1.712 6.215 3.048 8.422 0.741 1.22 1.286 2.277 1.214 2.349s-1.229-0.203-2.567-0.609c-2.889-0.878-2.624-0.848-2.624-0.311 0 0.239 1.709 2.048 3.8 4.019 4.217 3.977 4.415 4.687 1.093 3.92-3.317-0.766-3.333-0.563-0.169 2.345l3.020 2.777-1.32 0.287c-0.725 0.158-1.729 0.441-2.228 0.628l-0.905 0.341 0.905 0.986c1.313 1.431 4.122 3.146 5.153 3.146 1.373 0 2.919-0.959 4.244-2.638l1.211-1.526-2.633 0.95c-2.966 1.068-3.107 1.094-3.107 0.574 0-0.205 1.274-1.26 2.831-2.345s2.705-2.093 2.552-2.241c-0.157-0.149-1.193-0.104-2.304 0.102s-2.111 0.284-2.219 0.176c-0.109-0.109 0.374-0.671 1.068-1.252 4.178-3.478 6.384-5.477 6.384-5.792 0-0.56-1.202-0.429-3.974 0.426-1.895 0.587-2.651 0.677-2.966 0.356-0.319-0.32 0.086-0.869 1.571-2.155 2.274-1.965 3.398-3.753 2.758-4.396-0.714-0.714-0.456-1.159 1.656-2.899 1.133-0.932 1.923-1.832 1.76-1.998s-1.282-0.149-2.476 0.040l-2.174 0.34 6.23-6.26-2.734-0.513 1.346-1.754c1.167-1.526 1.32-1.964 1.167-3.344-0.104-0.929 0.017-1.871 0.289-2.265 0.257-0.374 1.278-2.588 2.273-4.928 1.049-2.471 2.023-4.251 2.327-4.251 0.808 0 1.936 2.181 2.225 4.304 0.257 1.894 1.259 4.209 2.795 6.462 0.426 0.625 0.773 1.222 0.775 1.332 0 0.11-0.693 0.131-1.544 0.050l-1.544-0.149 7.313 9.339-3.968 0.378 3.37 2.252c2.534 1.693 3.182 2.285 2.615 2.39-0.417 0.077-1.4 0.302-2.183 0.506l-1.427 0.365 2.178 1.967c4.975 4.491 5.216 4.748 4.826 5.144-0.266 0.266-1.175 0.266-2.912-0.005-1.391-0.216-2.997-0.338-3.576-0.273-0.95 0.111-0.671 0.392 2.912 2.927 2.178 1.544 4.386 3.137 4.903 3.546l0.944 0.743-3.921-0.248c-3.556-0.221-3.875-0.191-3.425 0.355 1.177 1.418 3.497 2.219 6.467 2.231 3.567 0.014 4.359-0.482 6.529-4.109 2.451-4.092 5.168-7.429 7.979-9.788 1.439-1.211 2.678-2.372 2.752-2.579 0.086-0.239-0.482-0.303-1.51-0.176-4.784 0.596-5.99 0.646-5.99 0.257 0-0.824 2.919-3.281 5.523-4.649 2.65-1.391 5.432-3.938 5.432-4.974 0-0.428-0.65-0.351-3.302 0.379-5.405 1.49-5.747 1.18-2.714-2.453l1.917-2.294-1.913-0.871 2.266-2.726-0.959-0.356c-0.527-0.194-0.959-0.466-0.959-0.601s1.022-1.065 2.265-2.066c1.247-1 2.265-1.961 2.265-2.138s-0.596-0.32-1.321-0.32c-1.489 0-1.652-0.34-0.614-1.282 0.708-0.644 0.835-1.274 1.526-7.637 0.185-1.686 0.599-3.578 0.923-4.204 0.548-1.060 0.54-1.184-0.122-1.784-0.697-0.629-0.697-0.689 0.014-2.75 0.872-2.535 0.886-2.742 0.158-2.742-0.842 0-0.689-1.024 0.358-2.399 0.811-1.064 0.897-1.476 0.707-3.326-0.203-1.943-0.102-2.329 1.247-4.802 0.806-1.481 1.56-2.689 1.674-2.692 0.168-0.005 1.193 2.336 3.245 7.385 0.089 0.221-0.259 0.626-0.779 0.905l-0.941 0.502 4.118 4.613-1.132 0.119c-0.625 0.067-1.132 0.212-1.132 0.323s0.543 0.887 1.202 1.724c1.139 1.439 1.166 1.544 0.513 2.023-0.381 0.277-0.878 0.588-1.11 0.689s0.473 1.013 1.563 2.028c1.092 1.013 1.985 1.976 1.985 2.134s-0.851 0.172-1.888 0.031c-1.040-0.142-1.888-0.122-1.888 0.050s1.139 1.455 2.529 2.858c1.391 1.4 2.449 2.63 2.351 2.727s-0.853 0.023-1.679-0.168c-1.908-0.443-3.2-0.457-3.2-0.040 0 0.18 0.724 0.797 1.607 1.373 3.95 2.568 4.010 2.637 3.56 4.316-0.383 1.441-0.308 1.702 1.589 5.341 1.094 2.102 1.931 3.887 1.851 3.965s-1.22-0.195-2.543-0.608c-1.319-0.41-2.452-0.698-2.51-0.636-0.294 0.294 4.906 4.437 5.571 4.437 0.421 0 1.22-0.275 1.769-0.613 1.473-0.902 8.459-9.133 8.159-9.617-0.156-0.249-0.761-0.32-1.535-0.176-0.704 0.131-1.279 0.163-1.279 0.068s0.509-1.249 1.133-2.568c1.472-3.11 1.715-4.487 1.031-5.844-0.494-0.977-0.481-1.196 0.154-2.219 0.542-0.874 0.702-1.877 0.705-4.379 0-2.867 0.14-3.515 1.166-5.572 0.64-1.281 1.373-2.327 1.631-2.327 0.795 0 2.12 2.822 2.12 4.514 0 1.783 0.446 2.788 1.859 4.21 0.536 0.54 1.283 1.436 1.661 1.992s0.821 0.924 0.986 0.824c0.722-0.446 3.020-5.927 3.575-8.519 2.039-9.554 2.042-20.703 0.006-31.427-2.201-11.598-6.908-24.198-13.176-35.251-15.691-27.673-40.597-49.698-76.501-67.65-30.721-15.36-66.251-26.62-101.802-32.261-9.921-1.573-11.305-1.765-17.754-2.444-3.118-0.329-6.178-0.67-6.8-0.754-3.38-0.473-15.915-1.328-38.718-2.652-13.066-0.76-21.077-1.3-22.666-1.527-0.726-0.104-5.657-0.608-10.955-1.119s-11.164-1.102-13.032-1.312c-3.38-0.383-15.558-1.417-28.897-2.446-23.704-1.832-39.65-1.628-71.016 0.912-4.618 0.374-18.699 1.382-34.565 2.48-15.981 1.103-25.257 1.283-55.391 1.066-29.051-0.211-30.771-0.185-39.991 0.608-9.752 0.835-12.227 1.114-25.12 2.84-21.669 2.894-52.424 10.66-71.583 18.069-11.427 4.421-31.445 13.995-38.244 18.294-14.379 9.087-25.439 20.447-31.211 32.065-3.62 7.279-4.809 12.786-4.435 20.553 0.355 7.376 1.85 13.254 5.153 20.22 2.275 4.8 3.114 5.169 6.375 2.805 1.301-0.941 1.571-1.336 1.383-1.994-0.81-2.837-0.812-2.831 1.156-3.695l1.841-0.807-1.796-0.756c-0.986-0.417-1.791-0.861-1.787-0.993s0.853-0.788 1.888-1.466c1.035-0.678 1.883-1.4 1.883-1.607s-0.68-0.374-1.51-0.374c-1.4 0-1.51-0.077-1.51-1.049 0-1.445 0.896-2.59 2.759-3.542l1.577-0.806-1.978-0.968c-1.088-0.534-1.978-1.076-1.978-1.202s0.86-0.638 1.913-1.13c2.289-1.072 2.498-1.346 1.717-2.209-0.554-0.609-0.41-0.967 1.868-4.679 1.584-2.579 2.644-3.95 2.966-3.83 0.551 0.212 1.249 5.16 1.698 12.015 0.266 4.046 0.293 4.141 1.489 5.137l1.219 1.016-3.992 1.665 4.532 4.082-1.321 0.051c-0.726 0.030-1.742 0.168-2.253 0.311-0.904 0.251-0.878 0.296 0.824 1.517 1.627 1.168 1.723 1.326 1.32 2.201-0.383 0.842-0.308 1.049 0.689 1.895 3.104 2.633 5.087 4.746 5.087 5.423 0 0.66-0.176 0.723-1.418 0.512-0.779-0.131-1.758-0.329-2.174-0.442-0.89-0.239-0.539 0.204 3.709 4.694l2.579 2.727-1.539 1.463c-1.616 1.538-2.037 3.182-1.067 4.187 0.383 0.401 0.14 0.464-1.323 0.356-0.986-0.075-1.751-0.023-1.699 0.109s1.841 1.721 3.973 3.525c2.131 1.805 3.785 3.428 3.677 3.605s-1.931-0.262-4.046-0.975c-4.323-1.454-4.455-1.481-4.45-0.824 0.005 0.259 1.237 1.274 2.741 2.253 6.467 4.209 7.34 5 8.24 7.475 0.92 2.521 2.489 4.155 3.983 4.155 1.141 0 2.299-0.572 7.034-3.477 3.816-2.34 4.596-3.224 2.475-2.798-0.663 0.131-2.111 0.347-3.209 0.477l-2.003 0.237 0.003-1.281c0.005-2.426 1.974-4.449 5.288-5.429 1.871-0.554 3.398-1.427 3.398-1.94 0-0.397-0.644-0.525-2.643-0.525-1.871 0-2.642-0.14-2.629-0.473 0.008-0.259 1.199-1.21 2.643-2.11s2.629-1.793 2.629-1.985c0-0.192-0.806-0.348-1.796-0.354-2.705-0.008-2.957-0.419-1.021-1.643 1.355-0.858 1.679-1.274 1.679-2.153 0-0.812 0.271-1.229 1.058-1.636 1.914-0.991 2.354-3.011 1.523-7.034-0.392-1.887-0.356-2.294 0.284-3.581 0.399-0.797 1.236-1.839 1.859-2.309l1.138-0.86 1.791 2.66c1.598 2.372 1.791 2.885 1.791 4.744 0 1.787 0.188 2.34 1.321 3.884 0.726 0.991 1.321 1.924 1.321 2.075s-0.743 0.166-1.652 0.028c-2.678-0.401-2.444 0.428 1.121 3.974 1.75 1.74 3.179 3.354 3.179 3.592 0 0.3-0.806 0.374-2.643 0.239-1.454-0.104-2.643-0.097-2.643 0.014s1.787 1.531 3.965 3.155c2.183 1.625 3.965 3.041 3.961 3.155s-0.146 0.422-0.316 0.689c-0.248 0.392-0.896 0.329-3.236-0.315-4.729-1.298-4.474-0.842 2.14 3.857 4.73 3.357 4.824 4.091 0.444 3.388-3.398-0.545-3.443-0.022-0.248 2.912 1.508 1.382 2.741 2.624 2.741 2.75s-0.779 0.451-1.724 0.716c-2.335 0.653-2.129 1.517 0.527 2.228 1.843 0.491 2.11 0.482 3.208-0.158 3.29-1.905 7.979-6.566 7.294-7.25-0.091-0.091-1.391 0.356-2.885 0.994-2.573 1.094-3.399 1.19-3.399 0.386 0-0.194 1.455-1.886 3.236-3.767 3.749-3.956 4.956-6.242 5.43-10.261 0.354-3.010 1.967-7.109 2.798-7.109 0.335 0 1.274 2.237 2.642 6.274l2.122 6.274-1.316-0.248c-2.086-0.392-1.607 0.464 1.783 3.175l3.056 2.444-1.283 0.519c-0.707 0.284-1.337 0.572-1.402 0.635s0.743 1.508 1.796 3.204c1.054 1.697 1.914 3.219 1.914 3.381s-1.434-0.45-3.183-1.359c-2.231-1.157-3.265-1.521-3.458-1.211-0.149 0.243-0.023 0.628 0.283 0.858 2.66 1.991 9.383 7.62 9.383 7.859 0 0.393-0.178 0.381-2.747-0.224-1.2-0.284-2.27-0.366-2.381-0.19-0.185 0.296 3.241 2.715 4.559 3.223 0.311 0.121 0.565 0.527 0.565 0.91 0 0.625-0.416 0.545-4.168-0.796-3.726-1.328-4.126-1.407-3.758-0.725 0.685 1.279 4.546 4.1 7.765 5.675 1.679 0.821 3.25 1.49 3.496 1.49 0.485 0 0.619 1.364 0.161 1.634-0.158 0.093-2.831-0.054-5.95-0.324s-5.725-0.433-5.795-0.362c-0.356 0.356 3.323 2.507 5.54 3.24 1.389 0.457 3.46 1.274 4.603 1.815l2.076 0.986-4.439 0.105c-3.197 0.077-4.439 0.238-4.439 0.572 0 0.275 2.444 1.148 6.039 2.16 3.322 0.932 6.043 1.796 6.044 1.914s-0.842 0.616-1.873 1.098l-1.877 0.878 4.427 2.597c2.435 1.427 5.333 3.041 6.438 3.587 1.958 0.968 2.043 0.977 3.344 0.356 1.562-0.744 1.454-0.981-1.379-2.912-1.040-0.709-1.895-1.379-1.895-1.483s1.529-0.785 3.399-1.508c1.869-0.725 3.344-1.485 3.274-1.693s-1.33-0.719-2.804-1.139c-1.472-0.419-2.77-0.851-2.885-0.968s1.319-1.032 3.182-2.044c3.176-1.724 4.054-2.471 2.894-2.471-0.273 0-0.797-0.221-1.166-0.491-0.608-0.445-0.373-0.735 2.498-3.118 4.271-3.542 4.226-3.821-0.41-2.412-1.319 0.401-2.638 0.729-2.929 0.729-1.103 0-0.442-1.138 1.832-3.146 1.299-1.148 2.228-2.214 2.068-2.372s-1.146 0.015-2.191 0.392c-1.044 0.374-1.967 0.615-2.052 0.527s0.942-1.503 2.284-3.154c2.37-2.912 2.768-3.583 2.133-3.583-0.167 0-0.608-0.221-0.974-0.49-0.608-0.446-0.496-0.607 1.229-1.781 2.129-1.454 2.064-2.264-0.185-2.264-0.701 0-1.274-0.14-1.274-0.305s0.962-1.138 2.138-2.152l2.138-1.847-1.004-0.336c-0.815-0.273-0.962-0.502-0.781-1.22 0.33-1.319 2.327-7.016 2.529-7.217 0.095-0.095 1.4 1.544 2.903 3.643 2.605 3.648 2.696 3.85 2.084 4.532-0.61 0.676-0.581 0.842 0.626 3.278 0.991 2.003 1.589 2.732 2.716 3.325 0.797 0.419 1.612 1.057 1.814 1.418 0.335 0.604 0.118 0.662-2.488 0.662-2.894 0-3.686 0.456-1.94 1.121 0.883 0.338 1.372 0.878 4.146 4.611 1.485 1.994 1.346 2.201-1.499 2.201-1.733 0-2.147 0.455-1.008 1.107 1.807 1.035 1.85 1.122 0.856 1.893-1.148 0.887-0.995 1.065 1.505 1.724 2.021 0.535 3.4 1.462 3.4 2.287 0 0.482-3.754 1.301-5.958 1.301-1.31 0-1.832 0.482-1.121 1.035 0.257 0.203 2.381 1.112 4.714 2.027 3.155 1.235 4.248 1.832 4.251 2.322 0.004 0.582-0.419 0.662-3.587 0.662-1.976 0-3.587 0.15-3.587 0.338s1.361 1.042 3.020 1.908c3.972 2.066 3.953 2.606-0.095 2.747-1.724 0.059-3.084 0.273-3.047 0.473s1.949 0.95 4.251 1.67c2.477 0.773 4.181 1.504 4.181 1.791 0 0.315-0.824 0.581-2.354 0.752l-2.354 0.266 2.626 2.405c4.758 4.357 7.143 4.829 10.148 2.002l1.563-1.472-1.888 0.212c-1.571 0.176-2.066 0.077-2.929-0.608-0.572-0.453-1.040-0.968-1.040-1.143s2.084-1.126 4.628-2.11c2.543-0.984 4.789-1.931 4.986-2.106 0.807-0.719-0.461-0.975-3.177-0.636-4.46 0.554-4.636 0.357-1.482-1.643 3.103-1.967 8.051-5.936 7.763-6.225-0.104-0.104-1.773 0.244-3.713 0.77-4.919 1.331-7.493 1.643-7.493 0.902 0-0.311 2.552-2.66 5.666-5.219 5.15-4.226 6.215-5.27 5.383-5.261-0.455 0.005-5.108 0.742-6.074 0.959-1.76 0.401-0.617-0.896 3.839-4.37 4.874-3.794 5.225-4.586 1.625-3.643-1.171 0.305-2.129 0.46-2.129 0.343s0.697-1.134 1.544-2.26c0.851-1.126 1.454-2.138 1.337-2.255s-0.818 0.155-1.567 0.597c-3.002 1.769-2.778 0.932 1.337-5.054 3.63-5.277 3.596-5.093 0.994-5.657l-1.076-0.231 0.945-0.878c1.701-1.578 2.201-3.092 2.542-7.728 0.266-3.602 0.599-5.207 1.857-8.907 0.842-2.483 1.538-4.865 1.544-5.288 0.014-0.77 0.014-0.77 0.59-0.017 1.016 1.328 3.083 5.963 3.769 8.45l0.662 2.408-1.814 1.37 0.844 0.899c1.044 1.112 1.069 1.649 0.093 1.904-0.415 0.109-0.855 0.464-0.978 0.787-0.266 0.696-0.059 1.112 3.947 7.898 1.688 2.861 3.074 5.351 3.074 5.531s-0.977 0.023-2.174-0.347c-2.129-0.662-2.174-0.662-2.296 0.061-0.068 0.406 0.356 1.339 0.944 2.075 2.086 2.615 2.426 3.3 2.21 4.462-0.319 1.694-0.718 1.886-2.464 1.188-1.706-0.682-1.706-0.707 0.068 1.913 0.599 0.887 1.301 2.683 1.598 4.091 0.365 1.733 1.122 3.488 2.453 5.666 3.21 5.254 2.624 5.708-2.459 1.895-2.056-1.542-3.875-2.66-4.048-2.489s0.635 1.721 1.796 3.443c1.159 1.724 2.111 3.263 2.111 3.418s-0.338 0.394-0.755 0.527c-0.417 0.131-0.755 0.386-0.755 0.564s1.283 1.124 2.849 2.102c1.567 0.977 2.786 1.967 2.708 2.201-0.081 0.248-1.455 0.501-3.29 0.613-1.797 0.108-3.209 0.366-3.29 0.607-0.077 0.23 0.677 1.066 1.67 1.858 4.649 3.704 6.893 6.746 6.903 9.344 0.005 1.2 0.167 1.175-3.020 0.473-3.686-0.811-4.213-0.743-2.626 0.335 3.239 2.201 6.404 2.532 9.437 0.985 1.877-0.959 2.014-1.232 1.157-2.327l-0.715-0.906 2.606-1.427c1.436-0.785 2.606-1.569 2.606-1.742 0-0.507-1.058-0.774-3.054-0.774-1.022 0-1.859-0.139-1.859-0.304s1.139-1.141 2.534-2.165l2.534-1.859-1.871-0.5c-3.461-0.923-3.465-0.925-1.706-2.147l1.571-1.089-2.061-1.643 2.335-1.245c3.004-1.601 3.052-2.265 0.161-2.289l-2.174-0.015 4.043-3.623-1.265-0.505c-0.698-0.276-1.34-0.563-1.432-0.635s0.668-0.977 1.688-2.012l1.85-1.879h-1.401c-0.77 0-1.401-0.104-1.401-0.23s0.426-0.734 0.944-1.352c1.109-1.319 1.143-1.688 0.347-3.678-0.56-1.398-0.548-1.696 0.155-4.446 1.762-6.901 2.291-6.647 4.82 2.339 0.352 1.247 1.040 2.858 1.531 3.582 1.013 1.496 1.153 3.296 0.338 4.372-0.821 1.085-0.715 1.814 0.718 4.912 1.248 2.705 1.271 2.822 0.567 3.2-0.712 0.383-0.707 0.438 0.212 2.255 1.103 2.174 1.144 2.74 0.367 4.937l-0.576 1.634 2.165 2.19c2.543 2.57 2.417 3.022-0.935 3.335l-2.156 0.202 1.888 1.189c2.967 1.868 3.316 2.282 3.056 3.659-0.194 1.031-0.077 1.292 0.815 1.821 1.756 1.039 5.417-0.091 8.215-2.531l1.133-0.986-1.321 0.203c-0.726 0.113-2.046 0.311-2.929 0.448-1.292 0.199-1.607 0.135-1.607-0.324 0-0.314 0.467-0.869 1.040-1.229 2.615-1.659 6.112-4.515 5.847-4.781-0.159-0.159-1.223-0.043-2.363 0.258s-2.199 0.554-2.354 0.554c-0.774 0.014 0.001-1.073 2.963-4.145 1.787-1.85 3.142-3.533 3.014-3.74-0.131-0.212-1.211 0.302-2.485 1.184-1.238 0.856-2.372 1.436-2.516 1.293s1.466-2.81 3.578-5.924l3.839-5.664h-3.018c-1.661 0-3.018-0.134-3.018-0.301s1.112-0.95 2.471-1.744c1.36-0.797 2.408-1.638 2.332-1.873s-1.231-0.511-2.567-0.617l-2.426-0.189 2.772-1.872c2.872-1.94 2.948-2.361 0.437-2.453-0.86-0.032-0.735-0.224 1.321-2.090l2.265-2.055-1.197-0.014c-2.156-0.026-2.391-0.275-2.138-2.222 0.302-2.309 0.848-3.308 2.89-5.297l1.695-1.649 0.545 0.894c0.86 1.412 3.789 6.287 4.742 7.895 0.806 1.355 0.826 1.544 0.31 2.546-0.31 0.598-0.824 1.303-1.148 1.571-0.52 0.433-0.41 0.707 0.968 2.348 0.857 1.022 1.48 1.94 1.382 2.033s-1.004-0.077-2.012-0.38c-1.013-0.303-1.895-0.5-1.962-0.429s1.157 2.878 2.723 6.248c1.563 3.37 2.844 6.294 2.844 6.5s-0.298 0.286-0.662 0.178c-3.191-0.95-3.42-0.672-1.229 1.468 0.833 0.813 1.51 1.611 1.51 1.778s-0.5 0.302-1.112 0.302c-1.67 0-1.659 0.5 0.032 1.532 1.792 1.094 2.313 1.904 2.006 3.128-0.176 0.695 0.041 1.121 0.965 1.895 1.387 1.166 2.602 1.273 3.769 0.326l0.833-0.676-0.644-3.842c-0.563-3.357-0.59-4.694-0.23-10.563 0.437-7.108 0.779-8.978 1.868-10.328 0.671-0.826 0.698-0.788 3.393 5.162 1.496 3.299 2.716 6.125 2.714 6.279 0 0.158-0.501 0.284-1.112 0.284h-1.111l1.121 3.307c0.688 2.022 1.080 3.886 1.013 4.806l-0.105 1.499 2.039 0.553c2.002 0.543 2.075 0.533 4.062-0.509 2.217-1.159 2.4-1.481 1.268-2.189-0.417-0.258-0.755-0.585-0.755-0.725s0.795-0.716 1.764-1.283l1.764-1.033-1.386-0.711c-0.761-0.392-1.386-0.833-1.386-0.986s0.617-0.765 1.365-1.364c1.292-1.031 1.355-1.182 1.139-2.762-0.126-0.921 0.023-3.477 0.334-5.681s0.563-4.645 0.563-5.423c0-1.985 0.321-2.609 1.345-2.609 0.725 0 1.174 0.554 2.462 3.030 1.589 3.055 3.043 4.644 4.064 4.442 0.825-0.164 1.958-1.866 2.354-3.538 0.784-3.312 1.49-9.032 1.49-12.084 0-2.849 0.077-3.227 0.644-3.119 0.455 0.086 0.95 1.175 1.697 3.713 1.92 6.525 1.94 6.568 3.101 7.124l1.097 0.527-0.869 0.653c-0.866 0.653-0.866 0.655-0.153 1.861s0.712 1.211-0.149 1.859l-0.865 0.653 1.148 0.851c1.444 1.067 1.445 1.455 0.014 1.769-1.351 0.296-1.463 0.838-0.266 1.292 1.422 0.541 1.856 1.4 2.059 4.088 0.106 1.405 0.365 2.768 0.575 3.032 0.268 0.338 0.17 0.716-0.332 1.274-0.698 0.779-0.698 0.806 0.011 1.22 0.399 0.233 1.247 0.887 1.888 1.454l1.166 1.029-1.796 0.013c-0.986 0.005-1.796 0.174-1.796 0.372s0.806 0.909 1.796 1.58c2.138 1.454 2.346 1.724 2.354 3.029l0.005 1.004-1.886-0.5c-1.070-0.284-1.977-0.352-2.096-0.159-0.113 0.185 0.59 0.894 1.564 1.571s2.13 1.541 2.57 1.915c0.779 0.669 0.747 0.679-1.418 0.439-2.931-0.32-2.741 0.32 0.626 2.102l2.524 1.337-1.841 1.859 1.831 3.209c1.004 1.767 1.778 3.266 1.715 3.335s-1.373-0.23-2.912-0.662c-3.308-0.928-3.317-0.93-3.317-0.275 0 0.279 1.616 1.652 3.587 3.050 3.821 2.707 3.912 2.903 2.147 4.505-0.581 0.527-1.232 0.658-2.775 0.563-3.187-0.196-2.561 0.68 1.762 2.469l3.776 1.562-3.307 0.11c-2.863 0.095-3.307 0.198-3.307 0.774 0 0.457 0.957 1.13 3.065 2.156 1.986 0.968 3.445 1.976 4.153 2.865 1.436 1.808 3.412 2.741 5.133 2.417 1.249-0.235 4.65-2.903 4.65-3.65 0-0.182-1.022-0.329-2.265-0.329s-2.264-0.129-2.258-0.284c0.005-0.158 1.151-1.040 2.552-1.967l2.543-1.688-1.985-0.576c-2.103-0.611-2.435-0.959-1.263-1.329 0.397-0.126 0.943-0.498 1.216-0.824 0.419-0.505 0.355-0.708-0.429-1.346-0.807-0.653-0.851-0.805-0.343-1.184 2.030-1.523 2.651-2.147 2.448-2.476-0.145-0.233-0.68-0.185-1.448 0.13-3.172 1.296-3.137 1.385-1.049-2.772 1.049-2.093 1.908-3.911 1.908-4.040s-0.788-0.122-1.748 0.023l-1.748 0.263 0.824-1.157c0.455-0.635 1.184-1.409 1.625-1.715 0.857-0.599 0.932-0.518-1.086-1.165-0.556-0.176-0.544-0.288 0.14-1.040 0.563-0.617 0.823-1.578 0.985-3.632 0.167-2.086 0.417-2.999 0.995-3.615 0.872-0.93 0.685-1.337-0.617-1.337-1.232 0-1.148-1.175 0.158-2.138 1.391-1.027 3.336-2.020 3.965-2.020 0.282 0 0.892 0.787 1.357 1.745 0.77 1.581 0.794 1.805 0.266 2.39-0.833 0.92-0.725 1.643 0.392 2.692 0.732 0.685 2.041 2.939 2.046 3.513 0 0.026-0.851-0.011-1.888-0.084-2.579-0.178-2.462 0.41 0.593 2.912 1.36 1.112 2.363 2.133 2.229 2.265s-0.86 0.418-1.616 0.628l-1.373 0.386 3.297 2.573c1.814 1.417 3.209 2.713 3.108 2.879s-1.236-0.021-2.515-0.419c-2.651-0.824-3.284-0.612-1.671 0.563 0.608 0.445 1.628 1.265 2.265 1.823 1.032 0.905 1.107 1.103 0.675 1.81-0.599 0.977-0.372 1.376 1.173 2.070 2.167 0.977 3.767 2.849 2.429 2.849-0.259 0-1.652-0.598-3.097-1.323-1.748-0.879-2.75-1.195-3.002-0.944s-0.176 0.536 0.23 0.851c0.334 0.26 1.741 1.407 3.125 2.544l2.516 2.073-2.741 1.148 3.065 1.982c1.688 1.090 2.959 2.151 2.831 2.358s-1.193 0.377-2.363 0.377c-2.651 0-2.257 0.59 0.77 1.148 3.636 0.671 9.023-0.815 11.044-3.046 0.554-0.61 0.43-0.639-2.003-0.464-2.507 0.179-2.642 0.144-4.001-1.049-0.774-0.68-1.651-1.705-1.946-2.275-0.61-1.183-0.266-1.49 1.668-1.49 1.661 0 4.613-1.706 6.829-3.955l2.066-2.093h-2.536c-2.938 0-3.218-0.437-1.215-1.888 0.716-0.518 1.307-1.046 1.31-1.167s-0.584-0.545-1.31-0.936c-0.726-0.392-1.321-0.815-1.321-0.941s0.806-0.806 1.787-1.513l1.787-1.283-1.032-0.365c-0.569-0.201-1.031-0.457-1.031-0.572s0.766-0.694 1.699-1.283c0.933-0.59 1.698-1.22 1.698-1.394s-0.715-0.464-1.587-0.635l-1.587-0.312 1.775-1.454c2.255-1.847 2.273-2.421 0.086-2.57l-1.688-0.114 3.029-3.965h-1.338c-0.735 0-1.338-0.071-1.338-0.158s0.863-1.553 1.92-3.254l1.921-3.092-0.977-1.017c-1.058-1.103-1.248-2.25-0.501-2.997 0.32-0.32 0.482-1.891 0.5-4.892 0.023-3.647 0.176-4.799 0.875-6.584 0.466-1.193 0.995-2.255 1.175-2.364s0.655 0.268 1.061 0.842c0.534 0.753 0.97 2.718 1.58 7.088 0.839 6.008 0.851 6.060 2.597 8.681 2.669 4.012 2.552 3.731 1.427 3.46-0.545-0.132-1.445-0.354-2.002-0.489-0.941-0.23-0.875-0.081 0.944 2.165 1.075 1.328 1.951 2.543 1.951 2.702s-0.779 0.289-1.726 0.289h-1.726l1.348 1.274c1.521 1.436 1.586 1.708 0.766 3.292l-0.582 1.13 1.787 0.789c1.94 0.86 1.958 0.777-0.418 2.353-0.672 0.446-0.483 0.579 2.076 1.432 3.672 1.224 3.866 1.931 0.694 2.555l-2.349 0.464 1.766 1.508c0.97 0.831 1.765 1.668 1.765 1.859 0 0.205-0.903 0.248-2.174 0.097-2.035-0.239-2.138-0.212-1.629 0.403 0.734 0.887 3.668 2.327 5.378 2.637 1.945 0.355 4.493-0.383 6.206-1.787l1.454-1.193-3.759-0.378 3.209-2.12c5.9-3.894 6.894-6.116 1.685-3.756-1.409 0.637-2.633 1.085-2.727 0.994s0.212-1.303 0.671-2.692c0.905-2.723 0.761-3.173-1.022-3.184-1.662-0.013-1.184-0.747 2.138-3.271 2.021-1.535 3.254-2.714 3.047-2.918s-1.688-0.014-3.672 0.464c-1.832 0.445-3.459 0.806-3.614 0.806-0.95 0 0.212-1.471 3.875-4.88 2.287-2.129 4.064-4.027 3.947-4.21s-1.094 0-2.174 0.41c-1.082 0.41-2.093 0.747-2.248 0.748-0.636 0-0.201-1.128 1.229-3.164 1.64-2.339 1.814-2.878 0.944-2.878-0.86 0-0.725-0.455 1.327-4.541 1.040-2.075 1.76-3.77 1.604-3.77s-0.842 0.158-1.516 0.352c-1.175 0.338-1.688-0.023-0.806-0.566 0.23-0.142 0.743-0.987 1.138-1.877 0.619-1.4 0.705-2.421 0.626-7.601-0.082-5.364-0.008-6.179 0.707-7.871 1.004-2.374 1.788-2.606 2.305-0.68 0.212 0.788 0.923 3.264 1.58 5.504s1.112 4.208 1.005 4.374c-0.104 0.167 0.653 0.95 1.682 1.733s1.871 1.663 1.871 1.953c0 0.646 0.064 0.648-1.888-0.041-3.579-1.265-3.497-0.529 0.247 2.112l2.89 2.041-1.38 0.117c-0.76 0.066-1.38 0.235-1.379 0.378s0.86 0.743 1.91 1.333c1.049 0.59 1.842 1.27 1.762 1.51s-1.238 0.613-2.57 0.824l-2.426 0.384 4.282 2.972c4.163 2.889 4.676 3.599 2.611 3.618-1.346 0.013-0.56 1.194 1.744 2.62 1.31 0.811 1.935 2.129 1.518 3.21-0.302 0.785-0.558 0.761-4.115-0.342-1.661-0.518-3.047-0.941-3.074-0.944s-0.15 0.248-0.27 0.557c-0.154 0.401 1.364 1.679 5.249 4.423 3.005 2.12 5.465 4.079 5.465 4.348 0 0.635-1.634 0.611-5.477-0.084-3.997-0.724-4.19-0.72-3.561 0.039 1.094 1.319 3.963 2.921 7.74 4.321 4.521 1.679 6.287 2.75 5.954 3.623-0.158 0.41-0.506 0.509-1.177 0.341-1.352-0.338-8.859-1.693-9.427-1.698-1.571-0.020 0.272 1.346 5.648 4.192 3.365 1.781 6.194 3.461 6.286 3.735 0.132 0.401-0.651 0.446-4.036 0.24-2.309-0.14-4.944-0.356-5.852-0.482-1.463-0.203-1.676-0.135-1.86 0.579-0.257 0.982-0.624 0.783 7.748 4.193 3.686 1.502 6.705 2.867 6.705 3.036s-0.613 0.681-1.362 1.146c-1.251 0.773-1.668 0.824-5.162 0.608l-3.803-0.23 1.223 1.264c1.679 1.733 4.46 3.015 9.518 4.388 2.356 0.642 4.344 1.227 4.42 1.301 0.338 0.338-1.193 2.028-2.525 2.774-1.696 0.951-2.866 1.024-4.2 0.26-1.299-0.743-1.796-0.698-2.076 0.189-0.302 0.945-0.861 0.959-1.865 0.042-0.428-0.392-1.175-0.833-1.653-0.977l-0.876-0.266 0.759 1.486c2.070 4.057 7.925 6.278 13.573 5.15 1.031-0.206 1.121-0.327 0.815-1.127-0.401-1.057-0.23-1.175 3.506-2.399 1.971-0.646 2.552-1.003 2.552-1.562 0-0.652-0.293-0.725-2.831-0.725-1.559 0-2.831-0.131-2.831-0.293s1.626-1.103 3.615-2.089c2.16-1.075 3.551-1.983 3.456-2.256-0.178-0.516-0.621-0.527-3.811-0.115-1.542 0.2-2.138 0.165-1.967-0.118 0.139-0.221 2.027-1.614 4.199-3.092 5.441-3.704 5.27-4.325-0.773-2.781-1.040 0.266-1.945 0.428-2.012 0.356s0.059-0.47 0.284-0.887c0.224-0.419 0.41-1.373 0.41-2.12 0-0.815 0.212-1.44 0.527-1.562 0.402-0.156 0.482-0.731 0.328-2.432-0.236-2.593 0.242-3.59 2.336-4.883 0.738-0.455 1.342-0.986 1.342-1.175s-1.022-0.347-2.265-0.347c-1.247 0-2.258-0.129-2.247-0.284s1.382-1.39 3.047-2.741l3.029-2.454-1.353-0.224c-1.76-0.293-1.922-0.498-1.193-1.535 0.842-1.203 0.758-1.708-0.338-1.985-1.341-0.338-1.175-1.133 0.599-2.851 1.357-1.319 1.527-1.672 1.435-2.989-0.089-1.24 0.167-1.882 1.507-3.794 0.887-1.265 1.679-2.3 1.76-2.3s0.664 0.752 1.3 1.673c0.888 1.292 1.151 2.084 1.151 3.479 0 1.571 0.181 1.99 1.4 3.236l1.4 1.434h-1.778c-0.977 0-1.778 0.146-1.778 0.32s1.022 1.122 2.265 2.102c1.247 0.978 2.265 1.929 2.265 2.109s-0.338 0.437-0.755 0.567c-1.121 0.356-0.954 0.707 1.225 2.581 1.089 0.94 1.857 1.832 1.705 1.983s-1.537-0.091-3.082-0.537c-1.544-0.447-2.915-0.815-3.051-0.815-0.698 0 1.743 2.579 4.104 4.334 1.481 1.1 3.065 2.403 3.521 2.898 0.951 1.031 2.174 3.722 1.688 3.722-0.176 0-1.31-0.338-2.519-0.755s-2.273-0.755-2.372-0.755c-0.477 0 1.070 1.392 2.75 2.477 1.040 0.671 2.26 1.618 2.714 2.111 0.842 0.914 1.779 2.947 1.49 3.236-0.163 0.163-1.573-0.185-4.865-1.193-3.113-0.954-2.195 0.275 2.579 3.457 3.857 2.57 4.298 2.968 3.722 3.389-0.356 0.261-0.839 0.545-1.067 0.631-0.293 0.11-0.277 0.303 0.053 0.655 0.739 0.782 0.586 0.914-1.133 0.966-0.884 0.027-2.413 0.176-3.398 0.332-3.145 0.498-2.451 1.192 4.817 4.817 3.635 1.814 6.611 3.45 6.611 3.632s-0.257 0.545-0.566 0.805c-0.806 0.671-0.7 1.79 0.214 2.282 0.676 0.363 1.022 0.194 2.552-1.238 0.977-0.914 3.008-2.381 4.515-3.262s3.369-2.228 4.128-2.988l1.384-1.384-1.436-0.338c-1.767-0.419-3.893 0.153-5.45 1.463-0.998 0.842-1.157 0.872-1.607 0.329-0.383-0.464-0.905-0.548-2.235-0.374-1.778 0.238-3.38-0.401-2.91-1.161 0.124-0.203 2.615-1.966 5.535-3.917s5.307-3.704 5.307-3.892c0-0.195-1.345-0.23-3.172-0.077-2.588 0.215-3.394 0.149-4.388-0.365-0.674-0.347-1.071-0.77-0.89-0.95 0.179-0.176 2.354-1.399 4.829-2.714s4.568-2.579 4.64-2.804c0.083-0.248-1.002-0.593-2.711-0.869-1.877-0.302-2.848-0.629-2.848-0.959 0-0.275 1.994-1.906 4.427-3.628s4.221-3.199 3.968-3.281c-0.253-0.086-1.643 0.115-3.084 0.446s-2.831 0.599-3.083 0.599c-0.707 0 0.662-1.355 4.055-4.010 1.688-1.322 3.158-2.736 3.263-3.143 0.305-1.166-1.138-1.148-3.587 0.050-2.62 1.283-2.804 1.299-2.077 0.187 0.486-0.743 0.494-1.004 0.059-1.796-0.698-1.256-0.689-1.293 0.537-2.705 1.233-1.418 2.093-2.921 1.823-3.19-0.102-0.102-0.837 0.149-1.634 0.552-3.929 1.985-4.136 1.274-0.653-2.237 3.011-3.038 2.891-4.007-0.35-2.762-0.407 0.158-0.171-0.816 0.843-3.493 1.706-4.495 2.115-5.306 3.326-6.605 1.193-1.283 0.878-1.924-0.68-1.382-1.481 0.518-1.672 0.275-0.734-0.918 0.959-1.218 0.955-1.616-0.014-2.291-0.752-0.527-0.734-0.572 0.806-1.792 1.535-1.216 1.558-1.265 0.835-1.85-0.731-0.59-0.723-0.636 0.514-2.858 1.153-2.073 1.256-2.525 1.26-5.561 0.005-2.93 0.082-3.307 0.686-3.307 0.536 0 1.309 1.625 3.632 7.648 1.625 4.208 3.029 7.853 3.128 8.097 0.115 0.293-0.356 0.491-1.355 0.566l-1.532 0.118 3.819 4.343h-1.544c-1.896 0-1.95 0.365-0.194 1.31 1.603 0.863 3.28 2.696 4.303 4.703 1.004 1.967 3.839 9.554 3.644 9.752-0.086 0.086-1.938-0.797-4.115-1.958-5.774-3.083-5.583-2.131 0.692 3.433l5.058 4.487-1.405 0.453c-0.771 0.248-2.154 0.644-3.067 0.878l-1.661 0.428 4.589 2.142c2.525 1.177 4.532 2.311 4.467 2.519s-1.344 0.521-2.831 0.698c-1.49 0.176-2.708 0.464-2.708 0.641s1.283 1.31 2.852 2.516c2.794 2.147 2.831 2.199 1.796 2.432-0.581 0.131-1.611 0.257-2.286 0.284-1.949 0.070-1.625 1.238 0.627 2.296 2.335 1.094 2.75 0.997 8.627-1.973 3.415-1.724 4.628-2.524 4.628-3.038 0-0.653-0.257-0.682-3.873-0.435-2.129 0.149-3.785 0.181-3.684 0.077s1.549-1.256 3.209-2.554c3.83-2.996 3.713-2.885 3.455-3.3-0.126-0.203-0.977-0.233-2.026-0.068-0.995 0.158-1.925 0.173-2.069 0.037s0.919-1.238 2.363-2.453c1.445-1.213 2.624-2.435 2.624-2.718 0-0.338-0.59-0.551-1.753-0.626l-1.753-0.114 3.952-4.721h-1.166c-1.366 0-1.462-0.451-0.379-1.826 0.664-0.844 0.75-1.31 0.538-2.993-0.248-1.987-0.122-2.363 1.742-5.113 0.374-0.549 2.696 0.734 4.296 2.373l1.449 1.483-0.914 0.338c-0.5 0.185-1.103 0.405-1.337 0.487-0.25 0.087 0.788 2.454 2.552 5.801 1.634 3.11 2.975 5.686 2.975 5.729s-0.851 0.362-1.888 0.707c-1.040 0.347-1.888 0.77-1.888 0.948s1.36 0.798 3.020 1.386c1.661 0.588 3.020 1.175 3.020 1.31s-0.635 0.361-1.412 0.508c-0.779 0.147-1.562 0.356-1.742 0.466s1.374 1.117 3.454 2.237c3.216 1.73 3.749 2.148 3.578 2.804-0.158 0.6-0.419 0.728-1.193 0.576-0.545-0.107-1.924-0.238-3.066-0.284-2.975-0.13-2.707 0.683 0.632 1.908 1.49 0.545 2.824 1.111 2.966 1.25s-0.356 0.374-1.108 0.513c-0.752 0.14-1.452 0.394-1.554 0.563s1.512 0.868 3.594 1.549c2.754 0.905 3.785 1.409 3.785 1.859 0 0.491-0.536 0.671-2.552 0.86-1.401 0.131-3.344 0.241-4.315 0.244-0.968 0-2.031 0.104-2.363 0.23-1.517 0.581-0.347 1.247 4.595 2.606 7.543 2.075 7.965 2.448 3.398 3-1.193 0.144-2.174 0.412-2.174 0.599 0 0.313 4.675 1.877 5.612 1.877 1.112 0 0.241 1.004-1.31 1.51-0.958 0.311-1.762 0.724-1.793 0.914s0.671 0.59 1.557 0.884c1.559 0.518 1.677 0.5 3.614-0.593 1.103-0.622 3.182-1.955 4.622-2.96l2.62-1.832-6.044-0.378 3.587-2.39c3.732-2.489 4.55-3.464 2.894-3.464-2.053 0-2.228-0.346-0.97-1.931 1.292-1.634 1.247-1.655-2.169-1.026-1.724 0.32-2.529 0.329-2.822 0.038s-0.181-0.48 0.386-0.66c0.842-0.266 0.896-0.41 0.95-2.421 0.020-0.73 0.275-1.398 0.599-1.558 0.311-0.157 1.798-0.846 3.307-1.535s2.739-1.347 2.738-1.463c0-0.115-0.766-0.527-1.699-0.909s-1.692-0.808-1.685-0.944c0.008-0.135 0.941-0.89 2.076-1.679s2.065-1.597 2.065-1.796c0-0.2-0.765-0.363-1.699-0.363s-1.699-0.050-1.699-0.11c0-0.059 0.338-0.777 0.755-1.589s0.755-2.030 0.755-2.699c0-0.671 0.167-1.652 0.368-2.186 0.32-0.838 0.266-0.968-0.378-0.968-0.941 0-0.94-0.023 0.198-2.265 0.518-1.024 0.944-1.976 0.944-2.111s-0.527-0.142-1.175-0.014c-1.126 0.225-1.165 0.194-0.919-0.804 0.392-1.589 1.247-2.701 2.286-2.961 1.523-0.383 0.977-1.356-1.046-1.865l-1.037-0.259 0.943-1.121c0.518-0.617 0.959-1.407 0.977-1.752s0.099-2.671 0.177-5.164c0.158-5.027 0.5-6.746 1.367-6.911 0.95-0.185 3.279 5.747 3.911 9.95 0.504 3.36 1.294 5.513 2.831 7.715 0.366 0.527 0.779 1.445 0.914 2.039 0.234 1.035 0.194 1.076-0.914 0.914-2.237-0.329-2.075 0.581 0.525 3.015 2.399 2.246 2.633 2.732 1.312 2.732-0.368 0-0.765 0.153-0.879 0.339s1.319 2.943 3.19 6.125c1.868 3.182 3.398 5.918 3.398 6.080 0 0.532-0.527 0.32-3.006-1.202-3.515-2.161-3.718-1.265-0.428 1.876 2.705 2.587 3.515 4.001 2.625 4.595-0.455 0.304-2.543 0.248-4.1-0.116-0.311-0.073-0.635 0.032-0.716 0.237s1.958 1.697 4.532 3.317c6.161 3.884 6.407 4.676 1.085 3.462-4.627-1.052-4.779-0.546-0.491 1.635 2.112 1.076 3.951 2.132 4.082 2.345 0.158 0.257-0.932 0.39-3.182 0.39-2.124 0-3.423 0.149-3.423 0.393 0 0.217 1.699 1.176 3.776 2.136s3.776 1.912 3.776 2.12c0 0.239-1.265 0.293-3.496 0.141-3.222-0.217-3.434-0.188-2.741 0.358 1.805 1.418 4.181 2.145 7.593 2.318 4.316 0.221 7.147-0.515 9.146-2.372l1.391-1.293-3.684-0.011c-2.026-0.005-3.684-0.158-3.684-0.339s1.356-1.22 3.018-2.309c1.661-1.090 2.918-2.141 2.795-2.337s-1.427-0.32-2.903-0.271c-1.607 0.050-2.732-0.071-2.813-0.309-0.073-0.218 1.319-1.472 3.095-2.786s3.227-2.525 3.227-2.689c0-0.167-1.823-0.302-4.051-0.302h-4.051l4.037-2.741c2.219-1.508 4.044-2.824 4.051-2.93 0.031-0.382-4.736-1.886-6.028-1.904l-1.321-0.022 1.499-1.209c0.824-0.663 1.994-1.682 2.596-2.264 1.031-0.994 1.058-1.094 0.464-1.75s-0.558-0.763 0.573-1.895c0.898-0.898 1.094-1.31 0.771-1.634-0.597-0.597-0.536-1.881 0.123-2.758 0.743-0.98 0.716-1.205-0.176-1.49-1.109-0.352-0.95-1.784 0.419-3.721 0.932-1.322 1.213-2.174 1.373-4.145 0.218-2.704 0.869-3.465 1.745-2.039 0.753 1.229 4.775 8.902 4.775 9.113 0 0.099-0.724 0.232-1.607 0.296l-1.607 0.116 1.85 1.321c1.017 0.726 2.208 1.619 2.643 1.985 0.788 0.653 0.788 0.667 0.056 1.232-0.714 0.552-0.653 0.66 1.607 2.939 2.412 2.435 2.761 3.229 1.778 4.046-0.491 0.41-0.389 0.671 0.788 1.971 1.097 1.215 1.309 1.689 1.103 2.501-0.14 0.552-0.302 1.049-0.358 1.111s-1.238-0.302-2.619-0.806c-1.518-0.554-2.602-0.767-2.741-0.545-0.308 0.499 0.027 0.797 5.864 5.287 4.937 3.794 6.116 4.928 5.63 5.414-0.131 0.131-1.911-0.103-3.954-0.518s-3.777-0.69-3.857-0.616c-0.401 0.401 0.546 1.386 3.29 3.409 1.67 1.232 3.047 2.354 3.060 2.489s-0.489 0.425-1.112 0.643c-0.625 0.218-1.133 0.541-1.133 0.717s1.265 0.974 2.805 1.769c2.047 1.051 3.067 1.379 3.77 1.202 1.004-0.252 3.623-2.343 3.623-2.893 0-0.176-0.625-0.368-1.385-0.434l-1.385-0.117 5.918-6.287-2.329 0.266c-2.813 0.32-2.939-0.011-0.732-1.9 1.301-1.112 1.494-1.436 1.040-1.724-0.31-0.194-0.689-0.356-0.842-0.36-0.604-0.014-0.23-0.888 1.043-2.444l1.328-1.618-1.42-0.236c-0.78-0.131-2.016-0.244-2.741-0.256l-1.321-0.020 3.020-2.807c1.661-1.544 2.84-2.813 2.624-2.819s-0.707-0.235-1.080-0.509c-0.647-0.473-0.635-0.59 0.305-2.444 0.688-1.355 0.986-2.543 0.986-3.909 0-1.419 0.266-2.417 0.959-3.602 1.337-2.28 2.298-2.21 4.298 0.301 1.454 1.827 1.727 2.465 1.563 3.665-0.111 0.806 0.968 2.182 2.417 3.074 0.738 0.455 1.342 0.966 1.342 1.13s-0.509 0.512-1.133 0.77c-1.154 0.478-1.517 1.113-0.662 1.157 0.259 0.014 1.321 0.41 2.363 0.878l1.888 0.858-1.51 0.473c-0.833 0.257-1.757 0.551-2.057 0.647-0.329 0.104 0.986 1.194 3.281 2.723 2.777 1.85 3.74 2.687 3.515 3.053-0.252 0.41-0.776 0.423-2.748 0.079-3.011-0.525-2.939-0.527-2.939 0.050 0 0.259 1.571 1.355 3.496 2.438 6.153 3.462 6.23 3.739 0.887 3.249-5.285-0.482-5.139 0.122 0.689 2.876 4.847 2.291 5.765 3.109 5.348 4.766-0.221 0.886-0.23 0.887-2.147 0.318-1.058-0.314-2.030-0.467-2.156-0.34s1.097 1.547 2.722 3.156c3.239 3.214 3.839 4.1 4.201 6.184 0.176 1.013 0.572 1.61 1.439 2.165 1.778 1.139 2.435 0.975 4.547-1.139zM699.455 565.246c-4.264-1.247-5.803-1.868-6.319-2.534-0.923-1.198-0.869-1.639 0.299-2.558 0.918-0.723 1.492-0.783 7.386-0.783 8.798 0 10.882 0.653 10.882 3.416 0 1.661-1.122 2.381-6.233 3.989-0.208 0.067-2.914-0.626-6.017-1.532zM538.477 555.928c-1.229-0.856-2.318-1.634-2.421-1.73-0.239-0.221 2.124-2.224 3.52-2.984 3.191-1.736 17.079-2.588 25.324-1.553l4.48 0.563 4.109 4.046-1.436 1.229c-0.788 0.675-2.030 1.397-2.759 1.604-0.769 0.22-7.043 0.377-14.955 0.379l-13.632 0.005-2.237-1.554zM403.737 526.875c-4.537-1.146-6.695-4.093-6.69-9.139 0.005-2.147 0.214-3.209 0.967-4.829 2.591-5.597 9.59-9.464 16.218-8.958 4.91 0.374 9.919 3.061 12.237 6.557 1.016 1.535 1.175 2.111 1.175 4.263 0 3.947-1.174 5.451-6.458 8.295-6.014 3.236-13.355 4.838-17.448 3.803zM739.092 525.941c-1.868-0.527-4.758-1.222-6.422-1.549-3.569-0.698-5.505-1.733-7.693-4.108-2.81-3.047-1.787-4.946 3.199-5.929 1.228-0.241 2.327-0.586 2.445-0.762s3.434 1.013 7.367 2.651c13.642 5.675 14.496 6.206 13.002 8.105-1.87 2.38-6.773 3.037-11.897 1.595zM665.998 505.479c-3.857-0.383-9.055-1.43-11.948-2.408-4.523-1.528-8.483-4.703-9.986-8.006-1.43-3.139 2.129-4.943 10.788-5.462 2.076-0.124 3.866-0.363 3.974-0.527 0.185-0.283 19.201 3.873 23.653 5.166 3.061 0.889 3.995 1.859 4.19 4.343 0.219 2.776-0.977 5.055-3.283 6.278-1.564 0.827-1.994 0.869-8.858 0.809-3.965-0.032-7.808-0.121-8.536-0.194zM535.38 479.561c-4.361-2.191-0.524-5.486 5.359-4.604 1.839 0.275 3.627 1.388 3.627 2.255 0 0.284-0.572 1.121-1.274 1.86-1.208 1.282-1.395 1.346-3.684 1.328-1.679-0.015-2.903-0.271-4.028-0.836zM711.138 479.135c-2.579-0.823-8.546-4-8.288-4.415 0.701-1.135 5.405-1.902 8.78-1.428 4.162 0.581 6.872 2.57 6.35 4.657-0.393 1.571-3.785 2.161-6.836 1.187zM358.891 460.652c-3.957-0.756-5.252-1.922-4.46-4.028 0.903-2.39 3.403-3.778 6.804-3.776 3.074 0.005 4.965 0.545 6.423 1.85l1.175 1.049-1.224 2.138c-0.672 1.175-1.522 2.3-1.886 2.494-1.173 0.626-4.316 0.752-6.836 0.268zM284.613 457.286c-1.679-1.121-1.849-1.373-1.958-2.891-0.113-1.583-0.021-1.758 1.969-3.639 1.846-1.745 2.334-2.004 4.19-2.237 2.716-0.338 4.158 0 5.099 1.195 1.353 1.718 0.815 3.776-1.571 6.014-1.562 1.464-2.633 2.030-3.857 2.030-0.52 0-1.051 0.169-1.181 0.378-0.362 0.583-0.718 0.473-2.696-0.851zM606.503 447.583c-4.244-0.219-5.124-0.478-6.404-1.895-0.725-0.804-0.725-0.813 0.572-2.090 1.13-1.113 2.066-1.49 7.101-2.858 4.566-1.239 5.972-1.49 6.611-1.176 0.446 0.221 1.743 0.5 2.885 0.626s3.227 0.491 4.629 0.816c2.21 0.512 2.713 0.796 3.753 2.111l1.202 1.517-3.497 3.303-6.35-0.069c-3.492-0.041-8.22-0.167-10.505-0.284zM456.161 446.061c-6.845-0.903-16.33-2.565-17.673-3.101-1.298-0.516-1.778-1.364-1.778-3.139 0-1.91 1.247-3.058 3.675-3.393 2.111-0.292 5.393 0.072 5.393 0.596 0 0.185 4.438 0.336 9.995 0.336 9.32 0 10.144 0.056 12.178 0.815 5.288 1.976 5.666 5.396 0.832 7.475-2.66 1.144-6.187 1.257-12.615 0.41zM706.583 644.993c0.608-0.446 0.232-0.6-3.191-1.33-2.137-0.455-3.947-0.761-4.028-0.68s0.46 0.68 1.202 1.33c1.148 1.005 1.646 1.184 3.341 1.184 1.094 0 2.301-0.228 2.681-0.504zM607.609 643.788c0.401-0.302 0.631-0.648 0.511-0.768-0.477-0.477-5.963-2.336-5.963-2.021 0 0.185 0.617 1.020 1.365 1.85 1.478 1.634 2.768 1.931 4.082 0.938zM614.19 631.106c0.653-0.23 1.191-0.545 1.191-0.707s-1.828-0.671-4.062-1.139c-2.234-0.464-4.991-1.084-6.125-1.373-2.813-0.716-3.331-0.676-2.237 0.176 3.433 2.678 8.402 4.024 11.232 3.038zM421.644 583.829c0.455-0.842-1.391-3.303-2.48-3.303-0.806 0-2.48 1.397-2.48 2.069 0 0.235 0.519 1.247 1.157 2.249l1.157 1.823 1.143-1.087c0.628-0.599 1.305-1.386 1.502-1.751zM149.055 411.078c3.889-0.332 4.424-0.613 2.716-1.423-1.976-0.94-4.001-0.798-5.853 0.401-1.733 1.122-2.075 1.818-0.736 1.49 0.467-0.114 2.21-0.327 3.873-0.468zM162.42 401.826l1.276-0.779-4.276-1.488c-2.354-0.817-4.337-1.488-4.414-1.488-0.435 0 2.147 2.859 3.272 3.623 1.634 1.112 2.483 1.139 4.139 0.13zM163.141 388.287c1.442-0.743 3.75-2.912 3.434-3.227-0.14-0.14-4.037 1.166-9.014 3.024-0.491 0.185-0.491 0.248 0 0.56 0.959 0.608 4.091 0.406 5.576-0.356zM192.529 381.794c0.709-0.786 0.707-0.804-0.401-1.686-0.617-0.491-2.185-1.436-3.488-2.094-2.032-1.031-2.546-1.151-3.602-0.838l-1.229 0.365 3.039 1.544c2.041 1.038 3.187 1.867 3.488 2.524 0.54 1.184 1.238 1.246 2.195 0.185zM196.109 372.506c1.845-2.003 1.587-2.371-1.041-1.473-2.957 1.006-4.541 0.815-5.945-0.724-1.187-1.297-2.355-1.634-3.77-1.094-1.287 0.493-0.446 1.351 3.084 3.146 4.757 2.418 5.559 2.435 7.673 0.14zM225.375 372.789c-0.5-0.806-7.075-4.26-7.431-3.902-0.457 0.457 1.238 2.557 2.867 3.551 1.193 0.725 4.975 1.016 4.565 0.349zM792.283 372.72c1.212-0.625 2.903-2.287 2.903-2.858 0-0.68-0.6-0.626-3.326 0.293-1.794 0.607-2.34 0.96-2.34 1.525 0 0.409 0.378 0.887 0.851 1.076 1.112 0.446 0.972 0.449 1.913-0.033zM269.777 343.913c0.916-0.702 2.642-1.634 3.836-2.071 3.884-1.426 7.601-3.466 7.145-3.922-0.77-0.77-6.678 1.054-12.084 3.73-2.771 1.373-4.896 2.632-4.721 2.799 0.302 0.293 1.627 0.563 3.371 0.687 0.434 0.032 1.538-0.518 2.454-1.22zM310.043 339.458c0.482-0.453 0.875-1.009 0.875-1.238 0-0.239-1.625-0.662-3.773-0.987l-3.773-0.572 1.032 1.103c1.319 1.408 3.092 2.516 4.030 2.516 0.401 0.001 1.124-0.368 1.607-0.821zM445.689 336.291c0.464-0.323 0.841-0.734 0.841-0.914s-1.571-0.863-3.496-1.521c-1.922-0.658-3.735-1.292-4.028-1.407-0.956-0.374 1.13 2.176 2.72 3.327 1.707 1.238 2.74 1.373 3.965 0.511zM411.412 331.961c0.698-0.374 2.867-3.677 2.582-3.93-0.212-0.194-6.728 3.706-6.739 4.033-0.016 0.424 3.328 0.342 4.156-0.103zM448.94 324.436c0.418-0.418 0.671-0.842 0.564-0.95-0.351-0.351-8.645-2.761-8.645-2.514 0 0.517 2.447 3.182 3.56 3.88 1.409 0.882 3.406 0.698 4.52-0.419zM640.633 322.111c0.653-0.23 1.191-0.529 1.191-0.671s-1.445-0.974-3.209-1.85c-1.767-0.878-3.209-1.449-3.209-1.274 0 0.657 2.328 3.503 3.131 3.825 0.459 0.185 0.851 0.347 0.872 0.36s0.572-0.163 1.229-0.392zM449.832 314.627c0.293-0.158-1.15-1.382-3.776-3.212-2.336-1.628-4.46-3.043-4.721-3.144-0.888-0.343-0.473 0.775 1.032 2.768 2.827 3.743 5.117 4.844 7.466 3.587zM454.091 312.511c1.932-1 2.423-2.831 1.168-4.379-0.638-0.788-0.781-0.824-1.384-0.326-1.226 1.010-2.813 3.488-2.813 4.388 0 0.698 0.203 0.887 0.963 0.887 0.529 0 1.461-0.257 2.066-0.572z"></path>
    </svg>