<svg xmlns="http://www.w3.org/2000/svg" viewBox="-3.080 -48.281 1025.342 1120.282">
    <path fill="#000000" d="M656.672 990.776c-0.114-0.675-1.65-12.441-3.412-26.146-7.097-55.165-8.154-66.105-10.841-112.134-0.637-10.9-0.628-52.62 0.011-65.506 2.959-59.511 5.891-84.040 17.453-145.999 6.022-32.272 7.444-45.965 9.222-88.842 2.15-51.831 2.404-89.845 0.748-112.134-1.515-20.395-4.77-43.3-7.928-55.786-2.131-8.422-6.679-13.015-14.519-14.663-3.531-0.742-5.622-0.532-7.576 0.761-1.294 0.856-1.863 1.724-3.8 5.803-4.461 9.394-5.542 12.687-8.832 26.884-2.277 9.826-3.924 17.895-5.55 27.184l-1.552 8.872-0.031 12.271c-0.017 6.749-0.173 12.491-0.348 12.761-0.489 0.757-0.935 0.236-6.036-7.044-9.722-13.878-13.522-21.457-15.732-31.381-1.002-4.499-2.051-6.053-4.080-6.045-1.344 0.006-1.525 0.178-4.849 4.625-14.747 19.732-24.885 39.38-34.042 65.973-4.881 14.171-5.685 16.224-6.959 17.759-0.677 0.816-1.344 1.486-1.484 1.49-0.706 0.019-1.606-5.032-3.496-19.627-3.907-30.161-4.536-36.967-4.539-49.083-0.005-9.431 0.165-11.978 1.712-25.964 1.24-11.214 0.89-12.54-2.783-10.522-1.082 0.594-4.686 2.874-8.008 5.067-9.303 6.139-12.466 9.661-24.667 27.465-3.135 4.574-6.209 8.806-6.832 9.403l-1.133 1.086-0.427-1.097c-0.235-0.603-0.987-4.070-1.671-7.703-1.214-6.457-1.864-8.684-2.533-8.684-0.575 0-2.967 2.537-12.459 13.214-5.077 5.71-9.851 10.855-10.609 11.433l-1.378 1.050-0.598-1.428c-1.142-2.722-1.419-5.091-1.188-10.111 0.369-7.992 1.852-15.113 5.346-25.674 6.865-20.756 17.302-36.772 35.551-54.557 18.251-17.787 33.547-28.152 64.218-43.512 7.522-3.768 14.137-7.217 14.699-7.664l1.022-0.815-1.744-1.022c-1.643-0.963-2.281-1.064-11.112-1.757-13.6-1.067-22.208-1.28-31.078-0.767-31.226 1.804-53.772 6.266-74.467 14.739-9.285 3.802-15.355 6.664-36.347 17.133-11.213 5.593-21.535 10.562-22.937 11.042l-2.548 0.873v-2.837c0-7.064 5.74-17.77 14.278-26.627 7.425-7.702 14.776-13.319 27.229-20.804 6.337-3.81 9.841-6.325 9.841-7.068 0-0.337-4.211-2.272-4.956-2.276-0.286-0.002-1.405-0.416-2.488-0.921-4.142-1.928-2.91-4.364 5.745-11.35 17.944-14.487 42.97-23.18 76.078-26.424 17.703-1.734 24.458-2.547 25.674-3.087l1.322-0.587-0.915-0.618c-1.825-1.232-21.155-6.323-29.582-7.792-12.674-2.209-15.789-2.119-58.607 1.679l-7.552 0.669-1.708-1.834 1.223-1.703c4.683-6.521 13.517-13.141 24.649-18.472 9.737-4.663 16.661-6.781 32.553-9.96 11.992-2.398 14.101-3.133 13.215-4.604-0.691-1.147-5.618-5.033-10.088-7.957-11.527-7.537-24.379-12.381-47.195-17.785-21.487-5.090-38.619-7.785-53.478-8.413-4.18-0.177-6.020-0.412-7.215-0.926-0.882-0.379-1.605-0.853-1.605-1.054s0.497-0.784 1.105-1.295c0.868-0.73 3.317-1.466 11.422-3.433 21.693-5.264 25.777-5.77 49.771-6.161 26.828-0.438 41.4 1.53 58.519 7.899 13.009 4.84 22.285 9.385 53.239 26.080 4.464 2.408 8.585 4.491 9.156 4.627 1.002 0.241 1.038 0.197 1.038-1.277 0-2.813-3.047-10.567-6.442-16.395-19.938-34.222-39.089-56.874-58.42-69.102-5.97-3.776-12.472-6.959-21.747-10.646-9.862-3.921-13.821-5.753-13.821-6.4 0-1.075 1.792-1.897 8.375-3.839 7.569-2.234 8.992-2.738 8.992-3.187 0-0.902-3.334-2.605-14.372-7.345-6.735-2.892-12.825-5.596-13.532-6.007l-1.285-0.748 1.198-1c1.536-1.282 7.784-3.229 12.699-3.956 7.503-1.111 12.902-0.664 25.267 2.091 41.131 9.164 73.2 24.235 98.194 46.148 5.486 4.81 9.022 8.889 16.937 19.535 5.602 7.537 9.744 12.459 10.483 12.459 0.592 0 1.464-4 2.224-10.194 5.239-42.723 19.715-76.087 41.702-96.111 4.777-4.351 7.788-6.485 12.751-9.039 4.169-2.146 4.436-2.231 5.058-1.615 0.623 0.618 0.605 1.6-0.387 19.632-1.886 34.294-1.986 48.939-0.417 61.459 1.174 9.363 4.387 28.914 4.982 30.299 0.709 1.654 0.862 1.7 1.874 0.566 1.015-1.137 2.013-2.923 6.94-12.42 6.538-12.601 11.879-20.147 19.479-27.522 4.681-4.541 8.741-7.724 13.8-10.813 11.342-6.927 72.952-36.562 79.436-38.209 1.644-0.418 5.483-1.18 8.532-1.695 5.127-0.865 7.106-0.937 7.106-0.256 0 0.607-2.872 3.337-10.761 10.227-17.382 15.183-36.045 33.53-40.53 39.843-2.845 4.005-6.023 10.352-7.566 15.108-1.331 4.107-2.491 9.708-2.179 10.522 0.326 0.849 1.459 0.737 7.096-0.705 17.24-4.412 35.143-7.189 52.807-8.19 9.48-0.537 25.762-0.232 27.598 0.517l1.238 0.505-1.214 0.864c-0.667 0.475-8.727 4.466-17.911 8.87-32.795 15.724-39.781 20.175-68.799 43.846-14.438 11.778-15.032 12.306-16.885 15.030-1.623 2.386-2.881 6.506-2.195 7.192 0.182 0.182 1.406 0.26 2.721 0.171 1.937-0.13 3.747-0.739 9.563-3.218 13.512-5.76 28.16-9.961 44.363-12.723 36.21-6.172 71.429-2.018 105.389 12.429 2.707 1.152 5.347 2.372 5.864 2.711 0.815 0.534 0.86 0.662 0.333 0.957-0.335 0.187-6.167 0.497-12.961 0.688-31.996 0.902-45.814 2.701-68.421 8.907-11.552 3.172-31.616 10.066-32.833 11.283-0.494 0.494-0.45 0.664 0.374 1.456 0.513 0.493 5.674 4.184 11.468 8.202 9.478 6.572 11.921 8.593 11.928 9.868 0.005 0.452-1.81 0.335-7.023-0.452-14.681-2.217-31.849-2.081-45.281 0.36-13.335 2.423-25.493 6.552-38.12 12.943-4.929 2.496-5.559 2.942-9.343 6.628l-4.057 3.952 4.435 3.287c5.799 4.297 18.97 12.422 21.614 13.332 1.586 0.546 2.685 0.665 4.653 0.503 2.227-0.183 3.48-0.642 9.25-3.393 10.668-5.086 14.367-6.219 21.409-6.558 5.634-0.271 8.046 0.179 17.787 3.317 17.525 5.645 29.647 11.586 46.387 22.732 16.875 11.236 37.546 29.031 45.144 38.861 4.488 5.807 9.642 15.419 10.382 19.358 0.261 1.391 0.242 1.422-0.7 1.186-0.532-0.134-7.395-3.321-15.248-7.081-49.61-23.755-60.187-28.421-73.447-32.397-10.721-3.215-21.791-5.611-35.112-7.602-11.223-1.677-11.947-1.567-11.494 1.737 0.52 3.794 3.186 7.448 7.111 9.749 0.947 0.555 7.052 3.050 13.568 5.544 29.605 11.334 46.567 18.288 53.855 22.076 17.106 8.894 31.876 22.991 45.284 43.222 6.718 10.136 7.078 10.871 8.209 16.75 0.553 2.879 0.922 5.317 0.821 5.42-0.316 0.316-5.831-2.882-11.577-6.713-26.386-17.593-53.723-29.903-103.557-46.632-17.155-5.759-18.678-6.433-23.2-10.269-3.486-2.957-4.833-3.782-7.542-4.619-3.751-1.159-11.42-0.907-11.42 0.375 0 0.506 1.201 1.72 4.153 4.201 14.543 12.22 24.245 24.411 31.369 39.415 9.788 20.617 14.205 41.219 12.863 60.009-0.715 10.016-2.91 21.252-4.849 24.813l-1.004 1.844-1.282-1.237c-0.706-0.681-5.363-7.609-10.351-15.396-9.036-14.108-11.287-17.12-12.153-16.255-0.292 0.292-0.515 3.569-0.676 9.95-0.406 16.002-2.79 28.020-8.518 42.928-3.067 7.985-4.636 11.196-7.694 15.753-3.794 5.653-4.332 5.917-4.641 2.276-1.202-14.22-2.2-20.706-4.802-31.211-5.226-21.103-14.448-42.238-31.315-71.767-9.027-15.804-11.274-21.595-11.918-30.726l-0.263-3.73-2.175-2.311c-1.196-1.271-2.272-2.215-2.392-2.098s-0.764 1.901-1.433 3.965c-1.156 3.562-1.218 4.048-1.225 9.604-0.007 5.391 0.116 6.463 1.564 13.592 1.959 9.653 3.099 20.367 5.020 47.195 0.424 5.918 1.267 16.707 1.873 23.975 1.876 22.471 2.053 25.991 2.026 40.21-0.050 25.998-1.584 61.991-3.735 87.582-1.182 14.072-2.391 24.667-4.501 39.466-2.34 16.408-2.581 18.87-3.793 38.7-0.825 13.501-2.184 27.744-6.016 63.052-1.993 18.367-2.31 21.538-3.057 30.582-0.82 9.931-1.125 30.339-0.581 38.888 0.978 15.36 1.149 18.787 1.537 30.771 0.989 30.639 1.908 41.961 5.144 63.429 1.25 8.288 3.843 22.49 6.009 32.917 2.309 11.108 4.552 23.407 7.528 41.273 1.366 8.202 2.58 15.381 2.696 15.952l0.212 1.038h-60.813zM97.312 873.342c-1.842-0.932-1.925-1.534-1.811-13.162 0.116-11.915 0.001-11.334 2.62-13.202 0.983-0.701 6.411-0.716 264.594-0.713 232.016 0.005 263.719 0.069 264.67 0.562 0.653 0.337 1.23 1.047 1.459 1.792 0.208 0.679 0.476 4.886 0.596 9.352s0.326 9.34 0.458 10.835c0.234 2.662 0.217 2.74-0.914 3.87l-1.153 1.153-264.791-0.006c-211.634-0.005-264.98-0.1-265.728-0.479zM713.291 873.132c-0.622-0.381-1.343-0.949-1.602-1.261-0.526-0.637-2.404-21.442-2.086-23.107 0.106-0.552 0.619-1.341 1.141-1.751 0.937-0.737 1.755-0.746 62.587-0.746 60.112 0 61.66 0.018 62.529 0.721l0.892 0.721 0.111 10.715c0.125 12.085-0.027 13.113-2.149 14.541l-1.282 0.863h-59.504c-57.046 0-59.551-0.030-60.637-0.694zM127.453 833.371c-0.784-0.784-0.803-1.019-0.578-6.742 0.47-11.932-0.922-14.758-10.313-20.953-8.157-5.38-13.453-10.603-18.293-18.039-11.456-17.602-16.083-46.074-11.855-72.951 2.932-18.635 8.951-35.165 20.693-56.823 4.849-8.944 12.725-24.689 14.71-29.407 1.532-3.64 2.53-7.666 3.027-12.204 0.564-5.152 0.544-55.469-0.023-58.14-0.998-4.703-4.59-9.384-8.769-11.429-6.166-3.017-13.967-1.843-18.926 2.847-3.278 3.1-4.783 6.311-5.289 11.284-0.541 5.322-2.96 7.945-7.327 7.945-2.566 0-3.7-0.5-5.797-2.556l-1.793-1.758v-8.042l2.674-5.617c1.471-3.089 3.433-6.759 4.362-8.155 3.207-4.825 8.515-8.78 14.776-11.009 3.177-1.132 3.52-1.174 9.526-1.179 5.491-0.005 6.564 0.099 9.048 0.879 7.029 2.208 13.056 6.55 16.914 12.191 0.658 0.962 1.978 3.388 2.933 5.392 1.417 2.971 2.023 3.832 3.288 4.669l1.552 1.027 256.012 0.188c140.807 0.104 256.301 0.331 256.655 0.505 1.016 0.501 1.532 2.659 1.26 5.27-0.727 6.964-1.668 8.908-6.422 13.271-3.927 3.605-5.285 5.847-5.942 9.814-0.793 4.786 0.674 9.195 4.48 13.46 2.797 3.134 3.509 4.772 3.517 8.084 0.008 3.82-1.327 11.209-2.133 11.798-0.487 0.357-3.984 0.472-14.37 0.472h-13.726l-1.866 1.866 0.202 87.427 2.197 5.475c1.208 3.011 3.532 8.617 5.165 12.459s3.323 8.259 3.757 9.817c1.851 6.638 1.704 13.855-0.408 20.197-1.102 3.307-1.985 5.131-5.121 10.574-2.192 3.804-4.098 8.844-5.069 13.403-0.689 3.232-0.849 5.23-0.872 10.826-0.025 6.406 0.025 6.933 0.766 7.928 0.723 0.972 1.052 1.084 3.715 1.255 2.64 0.171 3.012 0.294 3.859 1.28 0.918 1.068 0.935 1.203 0.816 6.501-0.103 4.585-0.224 5.512-0.795 6.082-0.626 0.625-2.344 0.693-24.164 0.946-12.92 0.15-42.263 0.15-65.21 0-52.666-0.344-48.682-0.362-50.072 0.225-0.648 0.274-1.37 0.919-1.605 1.433-0.271 0.593-0.427 3.655-0.429 8.376-0.004 6.563-0.083 7.562-0.691 8.483-1.329 2.016-1.749 2.14-7.236 2.147-2.803 0.005-5.284-0.118-5.512-0.271-1.117-0.745-1.283-2.104-1.283-10.447 0-8.017-0.045-8.564-0.755-9.275-1.074-1.074-4.14-1.057-5.123 0.029-0.645 0.713-0.711 1.492-0.722 8.589-0.012 7.39-0.057 7.877-0.849 9.157-0.46 0.743-1.274 1.55-1.808 1.793-1.459 0.665-10.403 0.592-11.341-0.093-0.677-0.494-0.747-1.177-0.922-8.985-0.163-7.301-0.281-8.591-0.869-9.487-0.374-0.57-1.054-1.176-1.51-1.345-1.117-0.415-147.478-0.803-149.292-0.396-0.786 0.176-1.81 0.764-2.278 1.306-0.826 0.957-0.849 1.217-0.849 9.393 0 10.783 0.542 10.050-7.422 10.050-5.287 0-5.724-0.054-6.394-0.794-0.657-0.725-0.729-1.57-0.84-9.721-0.14-10.356-0.106-10.251-3.277-10.251-3.339 0-3.337-0.006-3.37 10.425-0.035 11.194 0.585 10.342-7.526 10.335-3.143-0.005-5.917-0.134-6.164-0.291-0.986-0.627-1.316-2.537-1.092-6.31 0.124-2.077 0.082-5.613-0.094-7.858-0.29-3.713-0.41-4.174-1.333-5.097l-1.015-1.015-44.26-0.111c-24.343-0.061-44.975-0.008-45.848 0.115s-1.978 0.541-2.454 0.926c-0.843 0.682-0.871 0.917-1.055 8.882l-0.188 8.182-2.821 2.583h-5.044c-4.326 0-5.129-0.094-5.638-0.661-0.495-0.55-0.621-2.156-0.754-9.626-0.187-10.475-0.188-10.483-3.453-10.473-3.543 0.010-3.622 0.247-3.622 10.73 0 10.867 0.615 10.030-7.362 10.030-5.485 0-5.903-0.051-6.664-0.812zM171.237 798.092c2.014-0.417 2.017-0.48 2.046-31.27 0.014-15.592 0.032-32.426 0.040-37.41 0.013-7.627-0.112-9.779-0.79-13.592-2.001-11.257-5.71-20.691-11.948-30.384l-2.302-3.578v-3.407c0-3.854 0.799-6.663 3.973-13.978 0.991-2.285 2.943-6.787 4.337-10.005 5.069-11.706 6.701-18.19 6.747-26.811 0.032-5.975-0.565-8.651-2.115-9.48-0.518-0.277-5.493-0.428-15.068-0.458l-14.294-0.044-1.701 1.704v23.491c0 12.92-0.154 28.762-0.342 35.203-0.378 12.921-0.112 17.578 1.519 26.61 1.8 9.971 4.718 18.606 9.549 28.247 3.292 6.57 3.975 8.984 3.708 13.096-0.254 3.908-1.096 6.047-4.83 12.271-6.753 11.252-9.336 17.868-10.189 26.098-0.388 3.744-0.001 9.437 0.812 11.94 0.8 2.463 0.522 2.425 16.009 2.171 7.684-0.127 14.363-0.311 14.844-0.411zM220.537 797.439c0.742-0.993 0.795-1.535 0.791-7.928-0.007-12.145-1.791-18.143-8.424-28.335-4.675-7.182-6.961-14.105-6.134-18.577 0.403-2.18 3.322-9.753 9.085-23.569 2.122-5.088 4.18-10.169 4.573-11.291 0.685-1.957 0.715-3.81 0.715-44.633v-42.592l-2.344-2.669h-14.308c-13.668 0-14.341 0.033-15.042 0.734-1.090 1.090-1.266 2.778-1.055 10.144 0.312 10.849 1.667 16.22 6.877 27.256 3.158 6.69 4.7 10.438 6.664 16.211 0.822 2.417 1.084 3.884 1.084 6.080 0 2.747-0.107 3.112-2.107 7.197-1.159 2.367-4.121 8.126-6.582 12.799s-4.783 9.515-5.16 10.761c-0.645 2.131-0.686 4.758-0.686 44.174v41.909l0.88 1.417c0.485 0.779 1.249 1.502 1.699 1.607 1.069 0.249 9.242 0.408 20.033 0.389l8.644-0.015 0.796-1.066zM267.68 798.289c2.036-0.928 1.972-0.094 2.077-26.968 0.054-13.705-0.041-32.735-0.212-42.287l-0.31-17.368-1.188-3.467c-1.374-4.011-4.252-9.894-9.659-19.753l-3.832-6.984 0.006-3.209c0.006-3.188 0.030-3.27 3.834-12.679 2.106-5.209 4.701-11.208 5.767-13.331 4.117-8.205 5.452-14.162 5.478-24.46 0.016-6.362-0.039-6.94-0.764-7.928-1.72-2.345-2.013-2.386-16.852-2.387-9.216 0-13.776 0.134-14.416 0.426-0.515 0.234-1.114 0.872-1.331 1.416-0.353 0.885-0.475 16.712-0.527 68.383-0.016 16.161 2.379 26.703 9.352 41.153 4.402 9.126 5.278 11.851 5.291 16.47l0.009 3.444-3.481 6.938c-1.914 3.816-4.922 9.656-6.682 12.979s-3.466 7.054-3.787 8.291c-0.447 1.721-0.585 4.323-0.585 11.061v8.811l1.853 1.853h14.535c9.53 0 14.841-0.14 15.423-0.404zM316.633 798.032c1.009-0.828 1.538-3.846 1.541-8.788 0.007-10.089-2.622-19.113-7.816-26.829-4.794-7.123-7.015-12.657-7.033-17.524-0.013-3.489 0.444-4.788 8.479-24.062 2.534-6.079 4.919-12.043 5.302-13.256 0.657-2.087 0.695-4.505 0.695-45.23v-43.025l-1.853-1.853h-29.442l-2.119 1.824 0.015 8.055c0.022 11.873 1.194 16.825 6.78 28.632 4.301 9.092 7.125 16.749 7.595 20.594 0.493 4.038-0.441 6.395-8.737 22.071-2.143 4.049-4.283 8.552-4.756 10.005l-0.859 2.643-0.141 41.702c-0.078 22.936-0.034 42.272 0.097 42.968s0.568 1.597 0.971 2.001c0.702 0.702 1.38 0.734 15.606 0.734 13.605 0 14.94-0.056 15.677-0.661zM365.199 797.767c0.51-0.51 0.937-1.232 0.952-1.605 0.207-5.771 0.132-78.531-0.083-80.684-0.639-6.385-2.774-12.457-6.516-18.537-0.894-1.454-3.179-5.676-5.077-9.382-4.717-9.211-4.734-8.404 0.474-21.515 2.159-5.434 5.115-12.428 6.568-15.544 3.067-6.575 4.074-10.236 4.62-16.801 0.474-5.715 0.142-13.027-0.648-14.285-1.159-1.841-2.096-1.951-16.701-1.951-9.293 0-13.882 0.135-14.523 0.427-1.826 0.832-1.852 1.198-1.574 22.132 0.203 15.29 0.133 22.087-0.323 31.263-0.866 17.424-0.027 28.258 3.155 40.717 1.939 7.591 3.942 12.966 7.968 21.372 3.693 7.713 4.364 10.124 3.781 13.592-0.555 3.305-1.307 4.993-5.164 11.599-8.391 14.37-11.142 23.258-10.022 32.374 0.24 1.956 0.437 4.148 0.437 4.872 0 0.972 0.26 1.521 0.995 2.099 0.968 0.761 1.393 0.783 15.875 0.783h14.88zM413.347 797.993c2.068-1.674 1.937-13.683-0.243-22.296-1.117-4.41-3.149-8.751-6.558-14.004-4.31-6.642-6.359-11.546-6.708-16.046-0.193-2.493-0.096-2.932 1.714-7.76 1.055-2.814 4.2-10.629 6.99-17.368s5.26-12.931 5.489-13.762c0.292-1.060 0.417-14.299 0.419-44.475l0.004-42.965-1.853-1.853h-14.528c-8.132 0-14.939 0.156-15.46 0.354-1.622 0.617-1.883 2.324-1.648 10.751 0.311 11.157 1.541 16.214 6.382 26.247 2.828 5.862 4.066 8.818 6.409 15.317 1.696 4.703 2.168 8.23 1.473 10.991-0.506 2.012-3.562 8.27-8.897 18.223-1.961 3.66-3.946 7.673-4.41 8.919l-0.843 2.265-0.139 42.087c-0.077 23.148-0.033 42.653 0.097 43.346s0.566 1.589 0.97 1.993c0.702 0.702 1.38 0.734 15.606 0.734 13.925 0 14.927-0.045 15.737-0.701zM458.345 798.071c1.412-0.393 1.492-1.331 1.44-16.697-0.028-8.229-0.145-15.558-0.261-16.286s0.019-7.694 0.297-15.48c0.802-22.461 0.498-29.874-1.597-38.886-1.833-7.887-5.471-16.522-9.738-23.107-2.463-3.802-3.049-5.894-3.067-10.954-0.011-3.418 3.592-13.312 9.049-24.837 3.814-8.055 4.602-10.853 5.303-18.802 0.214-2.429 0.273-6.275 0.13-8.544-0.249-3.98-0.303-4.176-1.494-5.475l-1.236-1.347-26.258 0.1-1.736 2.018-0.095 31.222c-0.129 42.792-0.095 45.578 0.635 50.786 1.171 8.358 3.736 16.746 7.288 23.836 0.931 1.858 2.959 6.521 4.507 10.362 2.484 6.167 2.813 7.268 2.813 9.413 0 2.755-0.397 3.672-6.491 14.979-1.902 3.531-4.586 8.698-5.964 11.483l-2.505 5.065-0.117 9.937-0.117 9.937 1.971 1.971 13.29-0.255c7.31-0.141 13.588-0.337 13.952-0.439zM506.958 798.012c0.705-0.571 0.899-1.263 1.195-4.248 0.638-6.444-0.245-14.783-2.179-20.573-1.3-3.891-2.598-6.442-5.634-11.077-4.85-7.402-7.246-13.816-6.858-18.355 0.215-2.509 2.257-7.967 9.324-24.919 2.337-5.607 4.48-11.044 4.761-12.082 0.415-1.534 0.512-9.9 0.516-44.663l0.005-42.775-1.853-1.853h-14.528c-7.99 0-14.938 0.156-15.438 0.346-1.684 0.64-1.893 1.972-1.675 10.699 0.282 11.36 1.248 15.511 5.95 25.579 1.406 3.011 4.017 9.159 5.801 13.663 4.479 11.306 4.49 11.092-1.050 21.185-4.705 8.572-9.139 17.556-9.931 20.121-0.65 2.105-0.689 4.674-0.689 45.212v42.981l0.892 0.722c0.844 0.683 1.682 0.722 15.721 0.722 13.734 0 14.892-0.051 15.671-0.682zM555.277 798.019c0.473-0.383 0.944-1.321 1.090-2.171 0.142-0.823 0.121-8.802-0.046-17.732-0.215-11.47-0.162-19.947 0.178-28.883 0.835-21.918 0.461-29.401-1.977-39.543-2.006-8.346-5.592-16.616-10.334-23.835-2.801-4.265-3.424-5.918-3.136-8.343 0.248-2.101 6.060-16.825 9.692-24.558 4.062-8.649 5.499-14.369 5.929-23.598 0.306-6.577-0.055-9.837-1.22-11.002l-0.891-0.891h-29.542l-1.103 1.103c-0.693 0.693-1.106 1.501-1.111 2.171-0.19 28.777 0.045 81.298 0.373 83.375 0.616 3.894 1.798 7.871 3.477 11.705 3.132 7.147 10.234 24.625 10.734 26.417 1.157 4.142 0.681 5.839-4.089 14.568-1.98 3.623-5.107 9.537-6.95 13.143l-3.351 6.555-0.232 20.592 1.016 0.8c0.997 0.784 1.312 0.8 15.837 0.8 13.667 0 14.886-0.052 15.653-0.674zM603.607 798.014c1.101-0.891 1.66-5.795 1.325-11.594-0.55-9.504-2.803-16.784-7.185-23.22-1.229-1.805-2.904-4.859-6.939-12.648-0.841-1.623-0.978-2.365-0.978-5.303v-3.417l2.931-5.933c6.86-13.887 10.439-25.924 11.978-40.282 0.512-4.771 0.527-9.862 0.142-46.001l-0.327-30.711-0.892-0.721c-0.844-0.682-1.686-0.722-15.763-0.722-14.304 0-14.9 0.028-15.617 0.745-1.153 1.153-1.25 2.135-1.034 10.508 0.281 10.923 1.663 16.838 5.925 25.369 0.986 1.972 3.429 7.701 5.431 12.729 4.8 12.062 4.803 12.239 0.269 20.444-5.157 9.335-10.694 20.384-11.201 22.356-0.457 1.778-0.526 8.724-0.442 44.869l0.099 42.764 0.892 0.722c0.844 0.683 1.683 0.722 15.721 0.722 13.696 0 14.894-0.052 15.666-0.677zM125.063 789.842c0.986-5.156 0.52-10.145-1.432-15.313-1.196-3.166-5.212-11.194-9.034-18.054-1.656-2.974-3.442-6.349-3.97-7.502-1.522-3.324-1.199-4.95 2.718-13.698 9.235-20.622 12.444-31.297 12.377-41.166-0.109-15.851-0.704-35.114-1.097-35.506-0.587-0.586-1.859 1.336-5.99 9.046-7.891 14.727-12.667 26.62-15.674 39.037-2.649 10.937-3.6 19.948-3.273 31.032 0.669 22.706 6.797 39.43 18.63 50.847 1.756 1.694 5.804 4.581 6.062 4.323 0.068-0.068 0.376-1.438 0.683-3.045zM136.896 750.979c1.689-3.089 3.062-5.807 3.049-6.041-0.063-1.137-6.318-15.16-6.803-15.254-0.303-0.058-0.848 0.112-1.214 0.38-0.821 0.601-5.091 10.707-5.663 13.408-0.524 2.47-0.245 3.345 2.887 9.049 2.302 4.192 3.413 5.37 4.253 4.507 0.231-0.237 1.803-2.959 3.492-6.048zM425.988 751.107c2.169-4.005 3.184-6.256 3.019-6.692-0.137-0.361-1.634-3.927-3.327-7.926-2.767-6.535-3.156-7.245-3.848-7.037-0.424 0.127-0.875 0.339-1.003 0.472-0.498 0.516-5.685 13.377-5.88 14.581-0.174 1.077 0.255 2.137 2.764 6.821 2.716 5.069 3.848 6.494 4.745 5.968 0.145-0.085 1.734-2.87 3.532-6.189zM616.2 751.176l3.359-6.118-3.292-7.73c-1.81-4.252-3.402-7.794-3.538-7.874s-0.603-0.010-1.038 0.156c-0.59 0.223-1.528 2.102-3.682 7.369-1.589 3.888-2.89 7.495-2.89 8.017 0 1.101 4.687 10.282 5.955 11.664 0.472 0.515 1.062 0.867 1.312 0.785s1.965-2.904 3.813-6.269zM232.623 751.255c1.785-3.248 3.245-6.039 3.245-6.201 0-0.461-6.065-14.85-6.411-15.208-1.225-1.27-3.099 1.766-6.188 10.027-1.865 4.987-1.812 5.753 0.735 10.726 2.472 4.825 3.711 6.564 4.673 6.564 0.514 0 1.564-1.572 3.945-5.906zM328.698 752.348c1.452-2.647 2.917-5.408 3.258-6.135l0.618-1.322-2.709-6.418c-1.491-3.531-2.952-6.982-3.249-7.67-0.739-1.712-1.92-1.518-3.027 0.496-1.8 3.276-5.033 11.866-5.033 13.371 0 1.736 0.977 4.116 3.579 8.717 2.942 5.201 3.162 5.167 6.564-1.039zM519.527 751.174c3.039-5.501 3.275-6.075 2.896-7.072-0.227-0.596-1.691-4.103-3.254-7.793-3.787-8.942-3.873-8.939-7.72 0.276-1.662 3.981-2.413 6.297-2.527 7.796-0.154 2.016-0.034 2.381 2.183 6.671 2.509 4.853 3.427 6.11 4.462 6.11 0.453 0 1.669-1.839 3.961-5.988zM278.463 688.352c2.437-3.763 4.978-9.303 4.978-10.855 0-1.743-1.278-5.5-3.594-10.57-2.974-6.507-3.052-6.473-7.115 3.053l-3.234 7.583 1.916 3.837c1.602 3.209 5.169 9.312 5.442 9.312 0.043 0 0.767-1.062 1.607-2.36zM378.071 683.251c1.14-1.923 2.158-4.047 2.261-4.719 0.22-1.435-0.504-3.642-3.523-10.73-2.077-4.877-3.117-6.328-3.941-5.504-0.192 0.192-1.783 3.707-3.535 7.809l-3.185 7.459 1.29 2.703c0.71 1.487 2.339 4.471 3.622 6.632l2.331 3.929 1.303-2.041c0.717-1.122 2.236-3.614 3.377-5.538zM472.23 681.751c1.631-3.909 1.7-4.594 0.757-7.53-0.902-2.808-4.314-10.737-5.218-12.125l-0.563-0.865-0.922 0.865c-1.301 1.222-3.321 5.663-4.032 8.868-0.698 3.146-0.796 9.235-0.178 11.102 0.233 0.706 1.455 2.949 2.714 4.985l2.289 3.701 2.007-3.135c1.104-1.724 2.52-4.364 3.146-5.865zM568.168 683.577c1.752-3.152 2.217-4.33 2.217-5.628 0-2.035-1.253-5.8-3.735-11.213-1.737-3.791-1.992-4.153-2.923-4.153-0.967 0-1.183 0.386-4.214 7.552l-3.194 7.552 2.108 4.164c1.16 2.29 2.802 5.237 3.65 6.548l1.541 2.385 1.166-1.61c0.641-0.885 2.164-3.404 3.383-5.596zM184.395 683.892c1.696-2.998 3.097-5.661 3.115-5.916s-1.347-3.705-3.034-7.666c-2.89-6.79-3.119-7.195-4.010-7.087-1.124 0.137-3.555 3.889-4.475 6.904-0.844 2.767-1.087 6.963-0.562 9.71 0.814 4.262 4.121 10.056 5.497 9.626 0.212-0.066 1.772-2.573 3.468-5.572zM150.352 602.317c1.231-0.424 1.533-0.721 1.634-1.604 0.186-1.622-0.201-2.726-1.448-4.147-1.319-1.503-4.202-2.839-6.785-3.144-1.621-0.192-1.945-0.104-2.809 0.758-0.875 0.875-0.976 1.267-0.976 3.793 0 3.457 0.179 3.954 1.661 4.628 1.429 0.65 6.487 0.485 8.722-0.285zM187.38 601.089c8.261-3.923 11.878-13.591 8.104-21.658-1.523-3.255-3.256-5.335-5.91-7.097-10.012-6.646-22.975-0.832-25.075 11.245-1.181 6.797 2.5 14.146 8.639 17.244 3.172 1.601 4.632 1.912 8.27 1.756 2.632-0.112 3.558-0.343 5.974-1.491zM248.163 602.354c0.909-0.346 0.994-0.528 0.798-1.732-0.297-1.83-2.349-4.927-4.111-6.203l-1.449-1.050-14.243 0.177c-7.834 0.097-14.613 0.252-15.064 0.343-1.366 0.277-3.201 2.102-4.138 4.116-0.967 2.078-1.165 4.185-0.422 4.485 0.952 0.384 37.599 0.255 38.629-0.137zM280.755 602.34c2.806-0.647 5.785-2.336 7.965-4.516 10.504-10.504 3.028-28.31-11.886-28.31-7.296 0-13.522 4.476-15.921 11.445-0.986 2.865-0.881 8.077 0.219 10.921 1.85 4.78 5.807 8.638 10.327 10.071 2.601 0.824 6.667 0.994 9.295 0.388zM344.995 602.051c0.698-0.565 0.807-0.922 0.607-1.982-0.347-1.835-2.78-4.859-4.737-5.89-1.657-0.874-1.721-0.877-16.046-0.871-14.175 0.006-14.404 0.019-15.892 0.849-1.143 0.637-1.809 1.432-2.737 3.262-1.14 2.246-1.568 4.477-0.975 5.070 0.139 0.139 8.954 0.251 19.591 0.251 18.162 0 19.391-0.042 20.191-0.689zM378.672 601.956c4.773-1.608 7.928-4.47 10.188-9.243 1.158-2.446 1.241-2.887 1.241-6.586s-0.083-4.14-1.241-6.586c-1.598-3.375-3.307-5.437-5.977-7.208-9.098-6.039-21.192-2.149-25.073 8.066-3.433 9.035 1.873 19.251 11.337 21.827 2.722 0.741 6.872 0.623 9.525-0.271zM438.779 602.241c0.524-0.383 0.622-0.773 0.424-1.681-0.337-1.537-2.933-5.542-4.054-6.255-0.718-0.457-3.36-0.578-14.869-0.685l-13.995-0.129-1.352 1.028c-1.464 1.114-2.848 3.593-3.193 5.721-0.435 2.678-1.726 2.501 18.293 2.501 14.386 0 18.202-0.102 18.745-0.5zM474.302 601.076c7.354-3.635 11.023-11.301 9.044-18.899-1.512-5.805-5.433-9.985-11.19-11.931-1.956-0.661-3.046-0.781-6.006-0.664-3.192 0.127-3.923 0.294-6.23 1.43-11.723 5.771-12.877 22.136-2.048 29.085 3.168 2.032 5.683 2.671 9.912 2.516 3.346-0.123 3.939-0.262 6.518-1.537zM535.487 601.932c1.266-1.267-0.771-5.34-3.677-7.355l-1.568-1.087-14.191-0.116c-14.813-0.122-16.027-0.020-17.963 1.503-1.882 1.48-3.607 6.589-2.574 7.622 0.143 0.143 9.057 0.215 19.808 0.157 17.523-0.094 19.612-0.168 20.166-0.723zM570.957 601.076c5.076-2.509 8.404-6.937 9.346-12.438 1.207-7.050-2.737-14.333-9.519-17.572-2.765-1.32-2.986-1.362-7.194-1.362-4.107 0-4.48 0.066-6.91 1.216-11.842 5.609-13.049 22.184-2.127 29.193 3.142 2.016 5.666 2.654 9.886 2.499 3.346-0.123 3.939-0.262 6.518-1.537zM631.96 602.035c0.802-0.65 0.837-0.822 0.431-2.175-0.628-2.095-2.538-4.527-4.426-5.633l-1.623-0.951-29.777 0.214-1.389 1.060c-1.522 1.162-2.689 3.148-3.209 5.464-0.653 2.91-1.981 2.726 19.738 2.726 18.368 0 19.43-0.037 20.255-0.706zM148.37 577.229c2.139-1.554 4.058-4.077 4.058-5.335 0-1.538-2.446-2.361-7.048-2.371-2.111-0.005-4.121 0.1-4.465 0.232-1.070 0.411-1.369 1.894-0.911 4.521 0.381 2.187 0.587 2.563 2.127 3.879 1.686 1.441 1.72 1.451 3.075 0.918 0.754-0.297 2.178-1.127 3.164-1.843zM341.55 578.217c1.261-0.675 2.646-2.651 3.226-4.604 0.503-1.695 0.503-2.029 0-3.003l-0.566-1.096h-19.174c-21.344 0-20.76-0.067-20.304 2.361 0.33 1.759 2.66 4.882 4.571 6.127l1.512 0.985 13.096-0.104c7.203-0.057 13.197-0.005 13.321 0.12 0.283 0.283 3.371-0.28 4.319-0.787zM244.563 578.104c2.295-1.161 3.828-3.674 3.901-6.397l0.053-2.004-19.179-0.097c-13.417-0.068-19.413 0.027-19.957 0.318-0.622 0.333-0.73 0.65-0.544 1.582 0.288 1.438 2.065 4.257 3.632 5.758l1.172 1.124 10.831 0.201c5.957 0.11 12.536 0.237 14.62 0.283 3.282 0.072 4.015-0.031 5.47-0.767zM434.487 578.204c2.442-1.26 4.713-5.056 4.442-7.425l-0.123-1.075-18.046-0.098c-12.011-0.066-18.292 0.034-18.784 0.296-0.405 0.217-0.736 0.686-0.733 1.042 0.007 1.265 1.829 4.54 3.449 6.202l1.644 1.687 13.615-0.077c10.072-0.057 13.854-0.201 14.536-0.552zM531.418 578.127c1.194-0.565 1.912-1.277 2.728-2.706 1.199-2.1 1.829-4.976 1.223-5.583-0.513-0.513-38.824-0.437-39.787 0.079-1.387 0.742-0.69 3.202 1.77 6.241 2.239 2.766 1.933 2.719 18.060 2.728 13.685 0.007 14.464-0.029 16.006-0.759zM627.072 578.533c2.54-0.632 5.477-5.030 5.168-7.737l-0.125-1.093-19.557-0.097c-13.052-0.066-19.802 0.033-20.294 0.296-1.91 1.022 0.511 6.064 3.875 8.070l1.487 0.887 14.035 0.008c7.719 0.005 14.654-0.145 15.411-0.334zM768.769 833.648c-0.677-0.494-0.748-1.183-0.931-8.967-0.215-9.155-0.334-9.703-2.344-10.742-1.073-0.555-3.997-0.625-28.294-0.682l-27.096-0.063-0.918-0.862c-0.504-0.474-0.998-1.285-1.098-1.802s-0.039-5.303 0.132-10.636c0.172-5.333 0.5-15.558 0.728-22.722 0.601-18.79 0.588-18.698 3.547-24.892 3.255-6.815 3.382-7.354 2.274-9.69-2.194-4.627-2.481-8.271-1.325-16.865 0.397-2.958 1.008-8.107 1.356-11.444 1.020-9.793 0.615-9.817 4.676 0.281 1.948 4.843 5.232 12.773 7.299 17.622 4.38 10.275 4.882 12.328 3.942 16.133-0.338 1.371-1.194 3.454-1.901 4.628s-2.008 3.581-2.889 5.346c-0.881 1.765-2.259 4.177-3.062 5.36-1.777 2.619-3.923 6.839-4.857 9.553-1.618 4.704-2.057 8.032-2.067 15.706-0.010 7.566 0.233 9.052 1.568 9.565 0.291 0.112 5.57 0.093 11.731-0.042 11.037-0.242 11.215-0.259 12.072-1.116l0.87-0.87-0.202-86.861-3.545-6.89c-1.949-3.789-5.218-9.972-7.263-13.739-2.161-3.981-3.891-7.653-4.13-8.767-0.611-2.85 0.020-5.152 3.67-13.403 10.548-23.836 11.796-28.596 11.145-42.528l-0.256-5.475-1.322-0.66c-1.094-0.547-2.371-0.66-7.428-0.661-6.084 0-6.111-0.005-7.319-1.021l-1.212-1.020 0.256-4.737c0.141-2.605 0.928-15.585 1.75-28.843s1.494-24.352 1.494-24.652c0-0.301 0.417-0.965 0.926-1.474l0.927-0.926h28.853c15.869 0 29.394-0.109 30.055-0.241 1.749-0.35 3.12-1.936 4.323-5.002 3.358-8.558 11.225-15.574 20.457-18.241 4.323-1.249 12.973-1.255 17.27-0.013 12.458 3.603 21.585 14.969 22.421 27.922 0.268 4.152-0.344 6.231-2.356 7.996-1.464 1.285-3.175 1.717-5.809 1.463-3.596-0.346-5.194-2.402-6.241-8.034-1.253-6.743-4.65-11.635-9.858-14.199-2.185-1.075-3.022-1.271-5.977-1.399-2.797-0.12-3.885 0.005-5.848 0.667-4.724 1.597-8.66 4.93-10.492 8.889l-1.049 2.265-0.307 13.403c-0.325 14.177-0.122 30.306 0.504 40.021 0.875 13.56 2.27 17.46 14.586 40.777 11.393 21.569 15.517 30.412 18.75 40.21 3.027 9.171 5.505 20.814 6.709 31.526 0.708 6.3 0.606 20.599-0.188 26.429-2.294 16.835-7.648 31.433-15.397 41.987-4.853 6.608-13.18 13.842-20.775 18.045-3.367 1.863-4.338 2.888-4.857 5.126-0.189 0.815-0.348 5.261-0.352 9.881-0.011 10.721 0.585 9.911-7.299 9.911-4.393 0-5.956-0.128-6.513-0.535-0.685-0.501-0.741-1.136-0.846-9.774-0.129-10.565-0.115-10.519-3.221-10.519-3.635 0-3.922 0.767-3.975 10.635-0.021 3.842-0.041 7.367-0.046 7.835s-0.348 1.19-0.763 1.605c-0.687 0.687-1.258 0.755-6.346 0.755-4.229 0-5.769-0.13-6.324-0.535zM789.347 797.958c1.103-1.103 1.269-2.798 1.047-10.719-0.156-5.542-0.386-7.963-0.984-10.343-1.19-4.732-2.87-8.744-5.202-12.43-1.162-1.837-2.621-4.359-3.241-5.605s-1.852-3.455-2.737-4.908c-2.31-3.79-2.958-6.063-2.751-9.642 0.162-2.798 0.347-3.307 3.787-10.431 6.128-12.688 8.777-21.030 10.709-33.728 0.496-3.262 0.66-6.688 0.658-13.781-0.014-52.487-0.111-65.623-0.492-66.779-0.239-0.726-0.818-1.443-1.366-1.692-0.663-0.302-5.356-0.433-15.487-0.433h-14.535l-0.881 0.881c-2.275 2.275-1.375 18.452 1.522 27.333 0.527 1.614 2.035 5.228 3.353 8.032s3.897 8.835 5.732 13.403c3.16 7.871 3.335 8.454 3.335 11.138 0 3.266 0.625 1.844-7.548 17.178-3.098 5.814-6.020 11.506-6.491 12.648l-0.857 2.077-0.008 42.606c-0.008 38.637 0.048 42.702 0.604 43.643 1.348 2.282 1.244 2.268 16.85 2.278 13.62 0.010 14.286-0.022 14.987-0.724zM809.305 790.905c3.833-2.802 5.342-4.256 8.17-7.882 7.079-9.071 11.183-19.613 12.861-33.037 0.96-7.679 1.161-22.153 0.397-28.694-2.185-18.747-8.285-35.643-21.417-59.336-3.255-5.872-4.079-6.203-4.080-1.64 0 1.246-0.041 11.185-0.091 22.087-0.088 19.283-0.067 19.927 0.752 23.668 0.971 4.432 2.695 9.52 4.312 12.727 1.556 3.086 8.946 21.142 9.59 23.435 1.104 3.927 0.561 6.2-2.958 12.357-8.068 14.122-10.647 20.338-11.536 27.803-0.359 3.014 0.181 10.633 0.754 10.633 0.187 0 1.646-0.955 3.245-2.124zM800.77 752.914c4.25-8.444 4.309-10.132 0.623-17.822-1.298-2.709-2.666-5.26-3.038-5.669-0.594-0.652-0.743-0.675-1.219-0.188-0.806 0.826-6.258 14.497-6.258 15.694 0 0.568 1.214 3.34 2.697 6.161 3.178 6.044 3.666 6.828 4.242 6.828 0.239 0 1.567-2.251 2.951-5.002zM753.931 683.166c1.511-2.948 1.976-4.255 1.995-5.606 0.031-2.252-1.223-6.001-3.686-11.012-1.672-3.401-2.077-3.965-2.859-3.965-0.826 0-1.211 0.705-4.112 7.522l-3.201 7.522 1.906 3.832c1.048 2.107 2.704 5.065 3.679 6.573l1.773 2.74 1.267-1.882c0.697-1.035 2.154-3.612 3.238-5.727zM789.104 602.289c2.224-1.145 1.702-7.704-0.685-8.612-1.281-0.487-3.772-0.475-5.579 0.027-3.022 0.839-6.412 5.67-5.275 7.519 0.718 1.168 3.83 1.845 7.462 1.623 1.869-0.114 3.703-0.365 4.077-0.557zM754.208 602.029c3.202-0.997 5.303-2.324 7.521-4.75 7.618-8.335 5.114-21.092-5.135-26.157-2.812-1.39-2.948-1.417-7.228-1.417-4.124 0-4.5 0.066-6.913 1.208-6.498 3.078-10.042 9.113-9.627 16.392 0.231 4.044 1.599 7.276 4.307 10.171 4.321 4.619 11.075 6.42 17.075 4.552zM788.689 577.821c0.89-1.099 1.43-3.18 1.432-5.523 0.005-2.866-0.258-2.982-6.373-2.843-6.391 0.144-6.484 0.203-5.557 3.538 1.493 5.376 2.308 6.069 6.826 5.813 2.509-0.142 3.122-0.307 3.672-0.985zM190.887 538.966l-0.892-0.722-0.278-46.379c-0.296-49.33-0.204-53.568 1.421-65.634 2.502-18.575 7.044-33.896 14.327-48.327 12.219-24.214 30.155-41.76 55.838-54.627 10.911-5.466 20.023-8.351 32.141-10.178 5.041-0.76 21.86-0.658 26.915 0.163 23.574 3.829 43.669 13.92 60.627 30.45 22.64 22.066 36.72 50.547 40.797 82.521 1.208 9.473 1.344 15.845 1.348 63.165 0.004 50.775 0.052 49.379-1.712 50.056-0.337 0.129-8.309 0.234-17.718 0.234-16.275 0-17.15-0.035-17.997-0.721l-0.892-0.721-0.378-25.055-0.892-0.721c-0.863-0.698-2.001-0.721-35.798-0.721-22.047 0-35.162 0.136-35.598 0.369-1.343 0.719-1.525 2.411-1.525 14.24v11.476l-0.927 0.927c-0.782 0.782-1.288 0.926-3.234 0.926-1.269 0-2.618-0.166-2.998-0.369-1.343-0.719-1.525-2.411-1.525-14.24v-11.476l-1.853-1.853h-34.734c-25.403 0-34.991 0.117-35.689 0.435-0.525 0.239-1.073 0.791-1.219 1.227s-0.276 6.116-0.291 12.623l-0.026 11.831-2.119 1.822h-17.116c-16.288 0-17.159-0.035-18.007-0.722zM301.015 500.628l0.927-0.927v-50.195l-0.995-0.783c-0.99-0.779-1.159-0.783-35.893-0.783-22.363 0-35.15 0.135-35.598 0.375-0.385 0.206-0.862 0.928-1.062 1.605-0.439 1.491-0.34 49.236 0.104 50.25 0.167 0.381 0.662 0.837 1.1 1.014s16.478 0.333 35.644 0.346l34.847 0.023 0.927-0.926zM382.868 501.135c0.506-0.231 1.109-0.833 1.339-1.339 0.293-0.644 0.419-8.179 0.419-25.085 0-25.559-0.022-25.885-1.716-26.536-1.051-0.403-70-0.272-70.761 0.135-0.38 0.203-0.878 0.908-1.108 1.567-0.567 1.627-0.586 48.061-0.020 49.684 0.218 0.627 0.771 1.321 1.227 1.541 1.194 0.577 69.354 0.608 70.618 0.033zM293.426 437.328c0.743-0.743-1.429-3.35-31.261-37.525-10.305-11.806-11.126-12.648-12.322-12.648-1.577 0-2.473 0.919-5.82 5.966-7.144 10.772-11.559 21.502-13.95 33.896-1.525 7.906-1.597 9-0.652 9.945l0.802 0.802 31.486-0.103c17.317-0.056 31.59-0.206 31.717-0.334zM382.541 437.306c0.533-0.243 1.068-0.831 1.187-1.305 0.512-2.038-2.31-14.806-4.954-22.417-3.51-10.105-12.831-26.364-15.497-27.034-0.49-0.123-1.205 0.005-1.6 0.285-0.393 0.279-5.047 5.52-10.342 11.646s-14.431 16.659-20.302 23.408c-5.872 6.749-10.898 12.61-11.17 13.026-0.891 1.36-0.824 2.192 0.201 2.486 1.715 0.491 61.388 0.399 62.477-0.097zM301.941 394.782c0.104-18.419 0.075-34.062-0.065-34.762-0.368-1.849-0.837-2.131-3.448-2.074-5.332 0.116-15.536 3.072-22.776 6.598-6.702 3.264-17.044 10.739-17.694 12.789-0.586 1.846 0.292 3.16 8.422 12.614 16.597 19.298 32.947 37.961 33.755 38.527 0.577 0.404 0.953 0.462 1.225 0.19 0.263-0.263 0.456-11.432 0.581-33.882zM312.288 428.459c0.562-0.216 14.486-16.087 33.734-38.451 10.755-12.495 10.539-11.768 4.858-16.41-10.018-8.186-22.524-13.762-34.83-15.527-3.458-0.496-4.455-0.225-5.065 1.38-0.512 1.347-0.476 65.968 0.037 67.819 0.427 1.54 0.405 1.519 1.265 1.189z"></path>
    </svg>