<svg xmlns="http://www.w3.org/2000/svg" viewBox="35.952 79.934 954.480 864.700">
    <path fill="#000000" d="M388.912 720.045c-0.061 0.196-0.123 0.391-0.198 0.589-1.466-0.061-2.574 0.78-3.647 1.725-4.593 3.875-7.42 10.808-10.19 15.987-3.19 5.893-5.698 12.078-8.597 18.104-2.965 6.122-6.089 12.144-8.729 18.427-5.633 13.251-13.054 25.72-18.755 38.972-2.246 5.242-6.541 9.246-9.539 14.062-2.151 3.418-4.56 6.254-7.88 8.564-2.312 1.629-4.296 3.158-6.936 4.134-4.95 1.824-8.269 5.112-12.339 8.302-3.939 3.125-8.987 4.754-13.643 6.609-3.322 1.337-6.578 2.701-9.996 3.776-3.255 0.978-6.35 2.833-9.799 2.899-2.019 0.024-3.614-1.301-5.6-1.172-1.172 0.061-2.31 0.682-3.418 1.040-1.657 0.523-3.385 0.685-5.143 0.911-1.855 0.26-4.785 1.66-6.578 0.652-0.358-1.694 0.976-2.704 1.789-4.038 2.93-4.785 5.079-10.258 6.87-15.558 5.959-17.355 5.143-35.684 7.194-53.657 0.622-5.503 1.238-10.225 2.932-15.528 2.18-6.673 3.416-13.314 6.185-19.793 2.215-5.242 4.33-10.746 5.99-16.181 1.106-3.515 1.304-6.838 1.758-10.418 0.422-3.060 1.37-5.633 2.475-8.531 0.78-2.085 1.139-3.974 1.37-6.155 0.16-1.469 0.024-2.734 0.717-4.070 1.075-2.116 2.442-4.134 3.515-6.221 0.457-0.911 0.879-1.824 1.205-2.8 0.391-1.106 0.292-2.537 0.719-3.548 0.424-1.007 1.271-1.824 1.789-2.8 0.226-0.391-0.039-0.911 0.292-1.301 0.292-0.424 0.978-0.49 1.271-0.911 0.589-0.814 0.391-2.477 0.521-3.418 0.457-4.296-0.226-9.44-2.248-13.314-1.337-2.635-2.31-6.221-4.2-8.432-0.749-0.879-1.855-1.499-2.767-2.18-1.887-1.53-2.93-3.255-4.070-5.341-2.93-5.308-11.394-8.498-17.223-7.458-3.255 0.589-6.353 2.184-9.477 3.224-4.035 1.304-7.913 2.217-11.721 4.134-4.395 2.217-20.544 12.115-23.214 2.019-0.62-2.279 0.976-3.583 1.789-5.407 0.911-2.052 1.139-4.070 2.376-6.056 0.978-1.562 2.18-2.998 3.255-4.461 4.202-5.959 8.042-12.047 11.493-18.429 1.238-2.31 2.932-4.264 3.809-6.771 1.172-3.286 1.172-7.618 3.418-10.387 0.877-1.075 2.151-1.626 3.095-2.604 1.271-1.271 2.118-2.899 2.574-4.624 0.682-2.442 0.814-5.566 1.007-8.074 0.325-3.809-0.945-6.739-2.537-10.093-1.304-2.734-2.378-5.6-3.68-8.334-1.789-3.746-3.128-8.269-5.794-11.524-1.205-1.499-2.703-2.409-4.264-3.453-1.725-1.040-3.354-2.18-4.884-3.484-1.172-1.139-2.475-2.18-3.845-3.094-3.354-1.626-7.26-0.552-10.582 0.424-5.473 1.595-10.387 3.416-15.401 6.185-1.37 0.749-2.965 2.184-4.593 2.409-3.026 0.391-6.122-2.93-7.618-4.915-1.954-2.539-3.809-5.664-3.548-8.954 0.292-3.029 1.66-6.056 2.734-8.858 2.442-6.221 5.698-11.818 8.432-17.907 2.638-5.893 3.548-12.566 4.202-18.916 0.259-2.376 1.431-5.924 0.78-8.17-2.669-0.325-3.713-3.875-5.893-5.242-1.596-0.945-3.286-0.945-5.044-1.37-1.172-0.292-2.8-1.040-4.101-1.139-2.347-0.138-5.143 1.139-7.423 1.563-2.442 0.457-4.070 1.337-6.383 2.116-1.92 0.652-3.746 0.523-5.664 0.814-1.497 0.196-2.605 0.589-4.134 0.521-2.572-0.138-7.064 0.228-8.531-2.345-1.433-2.539 0.424-4.363 1.301-6.642 2.118-5.436 2.998-10.19 3.095-15.723 0.061-2.866 1.008-5.044 2.378-7.587 2.248-4.2 6.934-9.994 3.779-14.878-1.728-2.668-7.587-3.158-10.357-3.158-3.484 0.061-10.060 1.304-12.698-1.139-6.155-5.664-0.391-16.603-4.395-23.247-2.475-4.104-5.11-3.286-9.765-3.286-3.583 0.024-8.564 1.238-9.834-3.158-1.040-3.581 0.061-9.345 0.061-13.122 0-2.151 0-4.33 0-6.51 0-0.945 0.16-2.31 0.024-3.288-0.226-1.855-0.976-2.215-1.301-3.581-0.358-1.562-0.978-4.56-0.424-6.221 0.552-1.756 1.92-2.151 2.965-3.548 2.669-3.581 2.345-5.959 7.684-6.155 4.038-0.16 8.139 0 12.21 0 4.134 0 10.486 1.238 14.293-0.325 3.418-1.37 6.708-4.593 10.225-6.155 3.974-1.789 5.242-1.37 7.849 2.605 1.205 1.824 1.040 3.809 1.789 5.566 1.008 2.31 2.574 3.908 3.322 6.513 1.106 3.713 2.475 7.552 6.446 8.108 4.461 0.651 7.717-2.669 11.721-3.939 3.974-1.304 7.293 0.879 11.267 0.391 3.060-0.391 5.209-2.31 7.519-4.165 3.19-2.635 5.566-4.070 10.060-4.134 11.105-0.138 8.66 8.792 13.38 15.726 1.37 2.019 3.68 3.416 5.143 5.436 2.085 2.866 2.118 4.264 5.664 5.732 6.51 2.701 12.862 1.007 18.198-3.908 4.005-3.647 5.631-8.889 8.236-13.446 2.508-4.494 6.936-8.108 11.039-11.168 2.378-1.788 5.763-6.023 9.18-4.395 3.453 1.626 2.574 7.389 2.574 10.515 0 2.019-0.521 4.657-0.061 6.578 0.457 1.824 1.301 2.965 1.725 4.787 0.976 4.101 0.553 6.739 4.785 8.985 12.146 6.482 12.21-10.159 12.698-18.033 0.228-3.68-0.292-7.002-1.37-10.486-2.635-8.789-4.035-18.165-7.13-26.696-1.304-3.614-2.833-6.969-3.809-10.678-1.431-5.503-1.887-11.233-2.899-16.801-0.909-5.143-1.629-10.387-2.866-15.466-1.66-6.87-3.713-13.119-3.974-20.218-0.325-8.79-0.024-17.71-1.92-26.339-1.172-5.209-1.92-9.702-1.469-15.073 0.457-5.504 1.172-11.069 1.758-16.57 0.521-4.754 0.945-9.279 2.635-13.805 2.248-6.023 6.089-10.874 10.159-15.723 3.845-4.56 7.326-9.737 11.592-13.902 5.924-5.73 12.763-8.238 20.442-10.678 14.326-4.525 28.489-8.205 43.563-8.334 10.744-0.099 21.553 0.123 32.299 0.123 7.651 0.024 15.14 0.292 22.726 1.106 10.777 1.106 22.14 5.959 32.917 3.68 5.664-1.205 11.524-1.824 17.318-1.4 7.75 0.552 15.726 1.499 23.441 2.475 5.633 0.682 9.963 2.574 14.977 5.079 3.224 1.598 5.503 1.66 8.759 2.8 7.293 2.477 14.522 6.023 21.421 9.442 9.963 4.95 20.445 8.823 30.378 13.741 6.672 3.321 13.611 6.771 20.087 10.418 7.064 3.939 15.302 4.593 22.334 8.759 6.51 3.845 12.632 8.108 19.177 11.917 9.214 5.341 17.746 11.818 26.537 17.777 5.405 3.647 11.557 6.155 16.867 9.833 5.732 3.939 10.874 8.337 17.030 11.688 7.42 4.038 13.77 8.922 20.803 13.577 12.21 8.042 24.354 15.987 36.303 24.45 12.078 8.531 24.32 17.483 35.912 26.696 7.26 5.794 15.528 9.508 22.856 15.041 6.642 5.014 12.697 10.517 19.793 14.911 6.611 4.070 13.741 9.833 18.981 15.627 10.291 11.363 19.991 23.474 28.781 36.14 5.374 7.717 10.94 17.254 13.643 26.306 3.354 11.295 3.614 24.386 4.626 36.173 1.337 15.172 0.024 30.67 0.391 45.906 0.26 12.144-1.172 23.408-3.845 35.194-3.286 14.522-2.475 29.204-7.099 43.497-1.986 6.056-3.19 12.502-4.657 18.656-2.246 9.378-3.875 19.045-4.851 28.65-1.758 16.832-3.583 33.665-5.407 50.465-0.682 6.155-1.657 11.721-3.125 17.711-1.725 7.033-2.605 15.528-6.969 21.487-4.296 5.86-5.501 11.754-7.229 18.883-1.37 5.732-0.814 12.113-5.306 16.57-1.107 1.075-2.669 1.728-3.746 2.833-1.66 1.694-2.376 4.233-4.134 5.73-2.996 2.604-5.6 2.833-8.108 6.122-2.085 2.734-3.809 5.732-6.122 8.238-2.635 2.866-5.924 4.233-8.597 6.838-2.996 2.965-5.473 6.934-8.399 10.126-5.761 6.185-10.093 13.479-13.347 21.261-1.596 3.713-2.866 7.488-3.939 11.394-1.497 5.405-4.362 6.383-9.702 9.279-1.855 1.007-3.809 1.725-5.633 2.767-2.118 1.172-4.104 2.506-6.609 2.604-6.446 0.292-5.436-9.018-6.185-13.054-0.978-5.112-2.767-9.834-4.264-14.781-1.37-4.527-2.539-8.432-4.915-12.502 0.085 0.198-1.598-3.255-2.217-3.482-0.715-0.292-3.255 1.106-3.68 1.301-2.019 0.814-4.296 1.4-6.221 2.409-2.118 1.075-3.515 3.158-5.633 4.2-2.151 1.075-4.56 1.172-6.804 2.409-5.47 3.095-11.524 5.014-17.744 5.893-5.763 0.847-11.557 0.78-17.386 0.49-3.029-0.16-5.86 0.358-8.888 0.391-4.104 0.024-8.432-0.391-12.533-0.62-3.974-0.226-7.879-0.749-11.853-1.172-7.064-0.685-14.062-0.49-21.131-0.848-10.258-0.521-20.381-3.974-30.703-3.515-4.035 0.196-8.040 0.553-12.078 0.589-8.139 0.061-16.179-1.040-24.287-1.92-10.907-1.172-22.010-1.694-32.785-3.875-10.027-1.986-19.696-5.405-29.694-7.488-8.269-1.725-16.636-2.965-24.876-4.754-9.115-1.92-18.033-4.104-27.252-5.566-12.731-1.986-25.492-4.296-38.319-5.633-4.33-0.457-7.684-1.271-11.462-3.484-5.534-3.255-11.105-6.739-16.474-10.288-6.254-4.070-12.665-8.238-17.225-14.293-1.92-2.539-3.875-5.862-5.306-8.792-1.238-2.605-1.888-5.209 0.976-7.13 4.103-2.734 12.273 1.007 15.953 2.151 3.224 1.106 6.446 2.18 9.669 3.255 8.337 2.539 16.801 4.395 25.395 5.602 14.128 2.572 27.087 6.315 40.728 10.775 26.537 8.693 53.069 17.516 80.906 20.706 3.974 0.424 7.943 0.848 11.917 1.271 6.023 1.007 12.113 1.466 18.231 1.367 6.122-0.457 12.242-1.855 18.297-2.734 8.366-1.238 16.768-1.499 25.135-2.409 7.13-0.78 14.098-2.019 21.261-2.345 7.39-0.358 14.161-1.205 21.421-2.347 6.381-0.976 12.731-1.238 19.144-1.725 10.841-0.848 21.652-2.703 32.426-4.165 4.428-0.589 8.823-0.26 13.221-0.848 3.029-0.391 6.056-1.106 9.084-1.694 3.614-0.719 7.814-0.78 11.267-2.118 4.494-1.725 8.465-5.86 12.533-8.498 1.694-1.075 3.321-2.18 4.754-3.583 3.352-3.321 5.829-7.618 8.17-11.655 3.906-6.804 5.275-13.673 7.978-20.871 3.19-8.498 7.75-15.69 9.312-24.777 1.106-6.221 2.052-13.153 3.875-19.208 2.217-7.389 8.17-13.479 11.138-20.706 5.176-12.665 10.126-26.243 11.592-39.885 0.78-7.39-0.061-14.651 0.552-22.010 0.424-4.593 1.040-9.18 1.53-13.772 1.337-12.403 2.574-24.81 3.974-37.213 1.040-9.18 0.945-18.396 1.4-27.61 0.749-14.392-2.866-26.306-7.585-39.719-5.438-15.562-14.977-30.019-22.694-44.637-8.139-15.399-16.375-30.31-28.162-43.203-9.834-10.744-20.218-21.391-31.388-30.769-7.326-6.155-16.214-9.963-23.181-16.768-7.651-7.519-16.408-13.643-25.135-19.861-8.729-6.254-15.399-14.682-23.798-21.357-6.838-5.438-14.621-9.702-21.619-15.008-6.903-5.275-14.293-9.834-21.162-15.107-6.64-5.079-14.748-10.678-22.691-13.479-5.374-1.92-10.387-4.785-15.789-6.543-7.099-2.31-13.577-4.2-20.35-7.519-6.122-2.998-12.794-4.527-18.981-7.519-4.2-1.986-7.943-4.2-12.242-5.924-5.306-2.118-8.888-6.155-14.489-8.074-7.231-2.508-14.032-5.794-21.36-8.074-6.35-1.954-12.958-4.754-19.502-5.829-5.113-0.879-9.442-1.238-14.359-2.734-4.754-1.431-9.798-1.238-14.682-1.887-3.614-0.523-6.284-2.184-9.799-2.767-10.225-1.694-20.381-2.407-30.574-4.296-7-1.4-14.062-2.407-21.193-3.026-9.115 0.123-16.702 3.906-24.547 8.108-7.75 4.134-14.651 8.269-20.574 15.041-6.969 8.009-11.754 17.842-14.586 28.033-5.73 20.706-2.537 40.824 4.461 60.689 2.899 8.172 6.578 16.082 8.498 24.547 0.814 5.732 1.92 11.396 3.321 16.996 1.954 5.862 4.167 11.623 6.673 17.32 4.33 10.225 10.319 19.47 15.596 29.237 2.409 4.462 5.341 9.411 8.889 13.056 3.125 3.255 5.275 3.906 9.735 3.515 7.882-0.719 13.871-4.395 20.706-8.011 3.875-2.085 9.312-5.143 14.128-5.374 6.023-0.292 10.973 5.893 13.803 10.357 1.694 1.986 2.506 4.264 2.442 6.804-1.106 3.128-2.604 6.056-4.461 8.823-1.040 2.248-2.118 4.494-3.158 6.771-1.694 3.779-2.767 7.75-3.255 11.853 0.123 2.18 0.651 3.125 2.442 4.461 3.875 2.93 8.759 4.686 13.153 6.578 7.552 3.19 14.812 6.837 22.171 10.45 8.63 4.264 17.093 8.858 25.85 12.924 6.221 2.866 12.339 5.568 18.396 8.858 9.409 5.113 18.753 10.517 28.096 15.726 12.926 7.163 24.81 15.921 37.799 22.986 12.434 6.804 25.2 12.632 37.898 18.883 7.101 3.515 13.153 7.783 19.601 12.341 6.188 4.362 12.958 7.75 19.111 12.144 3.974 2.833 7.651 5.893 11.886 8.368 3.029 1.788 5.473 3.776 8.009 6.221 8.987 8.564 18.946 16.867 29.923 22.791 3.971 2.118 7.194 4.494 10.354 7.717 2.345 2.376 4.624 4.655 7.262 6.706 3.352 2.539 5.242 5.633 7.91 8.823 2.085 2.539 4.527 4.56 6.383 7.229 1.205 1.728 2.345 3.385 3.779 4.884 1.139 1.172 2.407 2.019 3.224 3.484 1.106 1.954 1.4 4.362 2.345 6.414 1.694 3.68 3.548 6.51 4.165 10.678 0.651 4.231 1.106 9.409-0.061 13.544-0.978 3.416-3.224 4.754-5.829 6.87-4.332 3.416-8.206 7.163-13.643 8.822-3.128 0.978-6.673 1.271-9.898 1.986-6.383 1.433-11.787 3.158-18.396 3.19-7.913 0.061-16.020-0.847-23.897-1.37-8.823-0.62-17.68-1.271-26.243-3.581-3.809-1.040-7.194-2.085-11.233-2.442-5.924-0.49-12.047-0.358-18.006-0.424-25.296-0.391-49.456-9.57-73.547-16.474-17.581-5.044-35.227-10.027-53.559-5.862-8.108 1.855-16.247 4.332-23.667 8.141-3.974 2.442-8.074 4.624-12.341 6.576-2.833 1.075-5.664 2.184-8.465 3.354-4.103 1.629-8.009 3.68-12.21 5.014-4.981 1.53-9.279 2.703-13.902 5.143-5.044 2.668-10.093 5.436-15.238 7.849-2.998 1.431-5.079 1.855-8.108 2.668-1.789 0.49-3.354 1.271-5.079 1.855-1.4 0.49-2.899 0.457-4.233 1.077-1.954 0.877-3.095 2.052-5.405 2.116-0.651-0.099-1.337-0.162-2.019-0.226-3.257 2.734-5.242 6.315-5.924 10.713z"></path>
    </svg>