<svg xmlns="http://www.w3.org/2000/svg" viewBox="60.369 -16.634 794.463 1056.921">
    <path fill="#000000" d="M532.009 301.012c-4.904 4.081-9.884 8.128-15.148 11.745-2.364 1.609-4.87 2.899-7.448 4.153-2.901 1.397-5.551 3.44-8.452 4.728-2.043 0.931-3.866 1.076-6.050 1.469-2.506 0.429-3.796 1.29-5.838 2.652-3.115 2.149-6.232 4.189-9.239 6.479-1.649 1.256-2.937 2.436-4.977 3.007-1.54 0.467-3.151 0.644-4.688 1.148-1.863 0.681-11.102 5.585-11.389-5.012-0.028 2.005-2.685 0.068-3.258-0.393-1.397-1.216-2.613-2.939-3.941-4.263-3.045-2.937-6.374-5.691-9.598-8.414-5.335-4.548-9.846-8.631-13.787-14.469-3.33-4.906-6.446-9.774-10.347-14.252-7.054-8.128-11.996-17.367-15.325-27.608-1.54-4.69-4.081-9.205-6.84-13.321-1.54-2.326-2.899-4.836-4.548-7.089-2.29-3.079-4.976-5.801-6.98-9.097-5.191-8.379-10.133-16.974-9.848-27.141 0.068-2.72 0.396-5.299 0.822-7.985 0.538-3.4 0.968-7.662 2.613-10.78 0.752-1.468 2.042-2.828 2.973-4.116 2.399-3.295 4.441-6.767 6.625-10.17 4.796-7.553 10.956-14.141 17.008-20.694 3.258-3.546 5.191-7.985 8.522-11.458 4.155-4.334 8.344-8.845 13.502-11.998 5.189-3.151 10.994-4.227 16.759-5.731 4.403-1.182 8.202-1.755 12.785-1.647 5.158 0.093 10.028 1.575 15.183 1.683 2.759 0.068 5.229-0.252 7.915 0.466 3.759 1.003 7.483 2.112 11.209 3.26 6.158 1.897 11.959 5.084 17.974 7.448 7.664 2.973 13.573 8.379 20.769 12.21 5.515 2.901 11.136 5.265 16.112 9.025 2.652 2.005 5.659 3.4 8.379 5.298 3.153 2.184 6.018 4.764 8.917 7.308 3.616 3.151 5.585 7.196 8.558 10.922 3.258 4.047 4.476 9.345 6.018 14.215 2.077 6.625 3.258 12.853 3.221 19.765-0.028 6.302 0.573 11.998-2.364 17.797-2.326 4.62-5.337 8.81-7.308 13.642-1.467 3.546-2.971 6.947-4.153 10.601-1.649 5.121-5.191 9.345-8.023 13.822-3.293 5.191-7.054 10.207-11.064 14.861-5.229 6.086-9.023 12.785-15.255 17.942zM773.646 420.22c-1.148-5.801-3.44-11.318-5.731-16.76-2.506-5.908-4.083-11.959-7.128-17.689-1.755-3.293-3.614-6.479-4.69-10.1-0.428-1.54-0.715-2.72-1.468-4.047-1.256-2.11-2.326-4.081-3.186-6.446-0.609-1.683-0.609-3.688-2.471-4.117-2.326-0.535-5.158 0.429-7.268 1.148-2.793 0.895-5.405 1.504-7.877 3.153-1.932 1.29-3.186 2.219-5.516 2.256-5.049 0.068-10.24 1.469-15.109 3.081-2.973 0.967-5.516 2.899-8.344 4.153-2.899 1.29-5.764 1.362-8.664 2.436-3.221 1.182-5.801 3.113-9.239 3.831-3.295 0.644-6.125 1.611-9.273 2.722-2.939 1.074-5.908 1.43-8.917 2.184-2.865 0.681-5.585 1.755-8.416 2.47-3.941 0.968-7.949 1.469-11.891 2.399-3.079 0.755-5.692 0.822-8.843 0.789-5.229-0.028-10.455-0.028-15.65-0.028-2.258 0.028-4.69 0.288-6.875-0.068-5.371-0.897-10.708-3.007-16.043-4.155-4.728-1.037-9.527-1.897-14.323-2.578-9.097-1.256-18.978-2.044-28.183-1.038-3.794 0.396-7.448 1.898-11.172 2.258-4.295 0.427-5.229-1.97-7.662-4.728-0.968-1.076-2.471-1.791-2.865-3.153 1.001-0.068 2.219-0.715 3.151-1.037 2.15-0.715 3.654-1.757 5.516-3.115 3.186-2.29 6.232-4.62 9.205-7.196 2.077-1.791 4.369-2.326 6.587-3.724 5.477-3.33 10.78-7.374 15.576-11.637 4.297-3.794 9.167-8.237 12.571-12.891 2.326-3.186 5.443-5.764 8.202-8.596 3.185-3.221 5.764-6.84 8.309-10.529 3.901-5.657 7.983-11.207 11.349-17.222 2.112-3.724 3.007-7.983 4.728-11.89 1.577-3.546 3.26-7.268 5.158-10.669 2.865-5.158 6.659-9.525 7.983-15.396 1.038-4.548-0.286-9.205 1.217-13.642 0.788-2.364 1.756-4.155 3.258-6.086 1.932-2.471 1.717-5.371 2.364-8.344 0.861-4.116 2.219-7.769 2.399-12.031 0.214-4.083 0.028-8.165 0.028-12.246 0-5.371 0.068-10.493-0.967-15.757-1.397-7.376-6.232-12.999-10.85-18.691-8.738-10.741-16.828-21.521-28.396-29.398-4.227-2.899-9.133-5.838-12.605-9.598-2.471-2.613-3.724-6.16-5.479-9.239-3.794-6.767-11.423-11.030-17.332-15.792-4.942-4.047-10.026-7.59-15.431-10.994-5.731-3.616-11.244-8.057-17.403-10.956-12.783-5.98-25.997-11.136-39.030-16.507-4.585-1.897-9.273-3.616-13.822-5.624-4.656-2.003-8.845-2.324-13.895-2.436 3.079 2.471 2.436 2.578 1.074 1.932-0.535-0.252-1.001-0.788-1.609-1.001-1.001-0.322-2.042 0.028-3.045 0-1.649-0.068-3.44-0.822-4.942-1.364-3.724-1.396-7.629-3.151-11.676-2.29-2.757 0.573-5.191 2.219-7.949 2.937-2.364 0.609-4.511 1.757-6.947 2.258-3.474 0.681-6.875 0.681-10.421 0.715-5.012 0.028-9.848 1.43-14.861 1.504-3.221 0.068-6.194 0.068-9.239 1.148-2.613 0.929-4.977 2.184-7.448 3.4-4.656 2.256-8.88 4.511-12.964 7.662-3.654 2.793-7.7 4.87-11.244 7.769-12.246 9.884-21.055 23.347-30.114 36.095-5.622 7.915-11.675 16.044-15.757 24.923-3.151 6.912-5.657 14.574-7.196 22.024-1.54 7.413 0.093 14.428 0.681 21.808 0.501 6.16-0.028 12.21-1.037 18.298-1.148 6.839-1.791 13.859-3.688 20.554-1.649 5.731-3.616 11.207-3.975 17.222-0.467 6.767 0.681 13.428 1.897 20.087 1.038 5.692 2.58 11.064 5.587 16.043 4.62 7.629 9.453 15.039 15.757 21.377 5.229 5.265 10.061 10.996 15.578 16.006 8.055 7.413 17.401 13.394 26.211 19.873 9.668 7.162 19.625 14.252 29.078 21.7 1.253 1.003 6.446 4.227 5.516 6.411-0.609 1.469-4.906 3.616-6.339 4.117-2.758 1.003-6.018 0.715-8.917 0.715-3.724-0.028-7.342-0.609-11.064-0.789-4.509-0.214-9.023 0.216-13.534-0.536-7.089-1.182-13.895-1.182-21.090-1.148-6.695 0.028-13.14-1.43-19.839-1.717-10.529-0.393-20.948-0.681-31.476-0.681-5.731 0-11.458 0.179-17.187 0.028-4.334-0.093-8.596-0.786-12.892-0.895-9.704-0.214-19.478 0.467-29.184 0-8.988-0.393-18.37-3.94-26.285-8.057-5.838-3.045-11.172-6.98-17.259-9.49-6.411-2.652-13.356-4.297-19.947-6.481-1.968-0.644-5.585-2.436-7.807-1.756-1.037 0.288-1.757 1.362-2.399 2.111-2.005 2.471-3.045 5.587-3.975 8.558-1.684 5.191-3.759 10.241-5.443 15.433-1.216 3.794-1.684 7.769-2.72 11.603-1.256 4.62-1.97 8.917-2.722 13.607-0.715 4.227-2.611 7.627-4.295 11.458-1.757 4.008-0.322 8.45 0.681 12.532 1.611 6.661 3.833 12.392 8.202 17.762 4.403 5.369 8.952 10.599 13.286 16.044 1.468 1.825 2.899 3.688 4.261 5.622 0.322 0.429 1.97 3.295 2.652 3.58 2.72 1.11 8.055-5.189 9.667-6.733 0.429-0.427 2.326-2.683 3.186-3.045 0.393-0.136 1.074 0.093 1.504 0 4.047-1.145 7.52-4.441 10.994-6.912 2.184-1.575 4.117-3.688 6.625-4.87 3.833-1.789 8.416-3.293 12.606-3.94 5.908-0.968 12.425-0.467 18.37 0.151 7.054 0.752 13.86 2.757 21.021 2.899 4.62 0.093 9.311-0.467 13.966 0.028 4.297 0.429 8.596 1.54 12.893 2.292 4.153 0.715 7.807 1.504 11.637 3.186 3.113 1.362 6.192 2.219 9.558 2.757 2.652 0.467 5.371 1.037 8.092 1.256 3.295 0.252 6.589-0.467 9.919-0.754 4.227-0.359 6.267 1.216 10.061 2.759 3.186 1.288 6.16 1.323 9.56 0.861 6.052-0.789 12.245-0.681 18.335-1.256 4.227-0.393 7.234-2.326 11.062-3.94 2.471-1.037 4.87-0.931 7.483-0.861 6.733 0.179 13.070-2.436 19.8-1.504 4.62 0.644 8.416 2.043 13.072 0.861 3.258-0.861 5.121-2.506 7.413-4.762 2.043-2.043 4.334-3.833 6.302-5.908 0.681-0.754 2.003-3.081 2.937-3.186 0.715 3.901 1.755 7.915 1.791 11.889 0.028 3.44 0.286 5.299 1.396 8.63 0.681 2.044 1.108 3.508 1.108 5.587 0 3.472-0.752 6.98-1.108 10.419-0.467 4.117-0.609 8.202-1.396 12.284-1.323 6.875-2.326 13.966-2.471 20.983-0.214 10.601 0.068 21.235-0.028 31.87-0.093 14.824 2.65 29.793 3.868 44.548 0.286 3.473 1.575 7.306 1.395 10.743-0.179 2.937-1.182 5.799-1.148 8.81 0.068 5.944-1.003 11.603-1.54 17.547-1.216 14.075-5.084 27.788-6.519 41.897-0.861 8.558-2.111 17.008-3.007 25.566-1.396 13.894-1.147 27.86-2.256 41.789-0.501 6.337 0 12.677-0.822 18.943-0.789 6.265-1.362 12.533-1.756 18.799-0.396 6.052-0.968 12.244-1.037 18.296-0.068 6.267 0.252 12.46-0.322 18.731-0.681 7.482-1.076 14.93-1.323 22.451-0.179 5.873-1.432 11.565-1.577 17.439-0.359 14.539 0.028 29.113 0.028 43.652 0 12.176 0.501 24.027-2.005 36.025-1.54 7.268-2.258 14.968-4.904 21.95-0.609 1.649-3.546 5.191-2.793 7.306 0.501 1.323 1.933 0.754 3.295 0.715 6.551-0.068 13.14 0.028 19.693 0 3.94-0.028 7.769 0.182 11.675 0.968 3.186 0.609 6.124 2.15 9.131 3.367 3.045 1.256 6.16 2.793 9.49 3.007 4.476 0.288 8.88-0.427 13.356 0.068 8.558 0.968 17.115 0.609 25.71 0.644 9.634 0.068 19.050-2.611 28.645-2.436 4.764 0.093 8.953-0.429 13.573-1.649 3.258-0.861 6.446-0.789 9.774-0.752 4.798 0.028 9.991 0.501 14.755 0 0.715-2.939 0.093-6.661 0.136-9.598 0.028-3.295 0.179-6.519-0.789-9.706-1.003-3.295-1.504-6.16-1.649-9.56-0.107-3.186-1.003-4.796-1.932-7.662-1.29-3.975-1.148-8.771-1.504-12.892-0.395-4.474-0.501-8.88-0.575-13.356-0.039-3.654-0.573-7.162-1.037-10.743-0.535-4.261-0.427-8.45-0.609-12.711-0.214-5.265-1.789-10.241-2.219-15.47-0.393-4.511-0.322-9.059-0.715-13.608-0.929-10.669-1.791-21.523-3.113-32.157-0.822-6.587-1.757-12.999-1.933-19.66-0.136-4.796-0.715-9.165-1.575-13.894-2.793-15.433-3.582-31.116-4.944-46.694-1.182-13.32-4.081-26.607-7.126-39.641-3.868-16.257-6.947-32.906-9.527-49.451-3.221-20.59-4.333-41.251-6.767-61.878-1.003-8.416-1.468-16.759-2.043-25.172-0.322-4.155-0.068-8.27-0.136-12.392-0.093-5.049-1.182-10.1-1.504-15.111-0.252-3.652-0.093-7.268-0.028-10.886 0.068-3.44-0.359-6.982-0.068-10.387 0.179-2.077 1.074-3.688 1.863-5.585 2.506-5.838 2.15-13.072 2.111-19.23 0-2.973-0.393-6.411 0.575-8.988 2.436-6.479 7.52-11.207 10.706-17.259 1.683-3.186 3.081-6.374 4.010-9.812 0.393-1.432 0.467-3.4 1.216-4.583 1.182-1.898 2.939-2.15 4.944-2.58 3.293-0.681 6.553-1.43 9.846-2.043 9.273-1.683 19.159-0.428 28.398 0.822 9.884 1.362 20.626 3.295 30.616 2.399 3.507-0.322 6.693-0.786 10.24-0.322 5.229 0.681 10.135 2.471 15.184 3.761 3.507 0.895 6.839 1.003 10.24 2.364 3.975 1.609 7.196 3.973 11.423 4.904 2.759 0.644 6.052 1.469 8.88 1.609 1.932 0.068 2.937-0.093 4.762 0.717 1.757 0.752 3.4 1.504 5.229 2.005 3.367 0.929 6.767 1.362 9.993 2.865 3.866 1.789 7.52 4.187 11.207 6.3 3.833 2.184 7.983 3.4 11.745 5.799 4.116 2.613 7.662 2.471 12.352 3.367 9.919 1.898 19.446 5.624 29.614 6.16 3.079 0.179 6.194 0 9.273 0 3.007 0.028 5.337 0.968 8.128 1.717 3.332 0.931 6.695 0.107 8.917 3.186 1.182-0.18 0.501-6.446 0.501-7.196-0.068-3.614 0.136-6.839 0.789-10.455 0.789-4.62 1.717-8.878 1.649-13.607-0.028-3.686 0-7.374 0-11.062 0-5.908 0.136-11.531-1.037-17.547z"></path>
    </svg>