<svg xmlns="http://www.w3.org/2000/svg" viewBox="102.767 -48.148 836.864 1120.984">
    <path fill="#000000" d="M812.905 475.333c-2.625 8.983-11.053 7.134-18.482 7.134-16.707 0-31.972-6.727-33.045-25.614-0.517-9.13-1.035-14.231 7.319-18.408 6.209-3.104 14.71-3.435 22.066-3.586l-7.317-7.317c8.168 0 17.483-2.364 22.954 3.508 6.173 6.618 6.394 13.492 6.321 22.142-0.035 6.542 1.996 15.931 0.186 22.14zM757.055 522.016c-6.396 11.089-24.654 13.676-35.855 11.903-14.637-2.331-24.136-17.816-15.746-30.458 8.612-13.047 31.898-15.117 41.288-2.735 0.068 0 0.12 0 0.155 0 6.321 0.924 4.067 0.049 7.319 3.659 3.51 3.844 5.728 12.679 2.846 17.631zM728.378 793.915c-5.397 13.085-7.503 26.354-13.528 39.55-5.213 11.384-12.531 19.591-19.96 29.459-9.573 12.714-18.556 25.319-32.491 33.6-12.012 7.17-20.588 18.111-32.379 25.652-13.307 8.426-28.831 11.458-43.025 17.889-21.107 9.574-37.369 11.496-60.434 11.126-17.188-0.244-33.526 1.479-50.566 3.177-22.842 2.258-34.154-5.692-53.262-15.375-13.123-6.653-27.833-7.357-41.25-13.159-12.274-5.323-24.322-13.196-35.67-20.293-18.592-11.607-31.603-34.414-42.212-53.227-6.284-11.126-9.056-20.514-11.717-32.971-2.958-13.787-8.538-26.021-9.796-40.215-1.663-18.741-2.107-40.141 2.367-58.438 2.439-10.018 3.696-20.219 8.168-29.571 4.916-10.313 12.826-18.517 19.812-27.389 11.533-14.637 25.283-26.651 42.692-33.968 13.751-5.768 27.796-14.86 42.359-18.704 27.907-7.355 55.187-15.082 84.166-15.082 13.602 0 27.61 0.52 39.698 7.763 3.142 1.849 6.356 5.138 9.24 7.614 3.807 3.29 10.387 13.195 47.794-8.057 6.689-7.726 19.479-7.246 28.682-7.393 21.882-0.244 42.952 5.618 62.875 13.787 41.657 17.040 58.771 68.715 65.165 109.965 3.77 24.248 2.551 51.859-6.728 74.257zM625.88 535.47c14.71-11.163 41.398-5.396 58.697-5.396l-15.746 9.022c5.951 7.762 6.468 21.847 4.212 30.644-8.317 0.555-9.683 5.801-15.929 9.609-4.435 2.662-11.238 2.773-16.559 2.073-6.098-0.778-9.723-3.81-14.675-7.393-4.879-3.547-6.505-5.692-7.356-12.826-1.147-9.981-0.999-19.368 7.356-25.726zM458.4 296.952c-6.837-7.505-11.605-16.893-15.708-26.096-3.069-6.912-3.919-14.415-5.435-21.808-0.812-3.956-1.183-7.244-1.293-11.237-0.155-4.73-1.332-9.054-0.961-13.823 0.369-4.545 1.7-8.614 2.625-13.049 0.812-3.844 1.589-7.503 3.4-11.013 1.773-3.44 3.142-6.913 4.805-10.387 2.625-5.544 6.505-9.796 10.608-14.305 4.547-5.063 9.278-8.907 15.265-12.272 4.326-2.438 8.761-5.026 12.826-7.91 4.067-2.919 7.172-5.877 11.903-7.614 6.544-2.364 11.31-5.692 18.63-5.877l-2.625 1.295c2.033-0.244 4.067-0.34 6.21-0.516 5.359-0.555 10.682-1.776 16.079-1.888 11.198-0.244 22.547 6.913 32.158 11.903 12.233 6.284 24.47 15.229 33.229 25.912 6.544 7.947 11.644 16.892 15.451 26.427 2.81 7.098 3.142 15.858 3.067 23.398-0.035 10.128 0.068 19.96-1.921 29.94-0.999 5.101-1.849 10.496-4.028 15.303-2.070 4.583-4.14 11.163-7.912 14.71-2.549 2.404-5.247 3.659-7.613 6.394-2.625 3.070-5.213 5.435-9.021 7.134-2.291 1.037-4.509 1.81-6.653 3.143-2.18 1.367-3.696 2.846-6.247 3.771-4.842 1.737-9.535 2.993-14.194 5.323-4.767 2.404-9.5 2.511-14.673 3.255-5.618 0.773-11.126 1.995-16.781 2.623-14.305 1.553-27.686-0.706-41.4-4.841-10.792-3.255-22.14-9.537-29.792-17.89zM859.041 517.364c0.068-15.265-0.888-30.384-2.477-45.576-2.291-22.178-4.693-44.169-8.5-66.162-4.768-27.612-12.345-54.52-19.37-81.615-2.218-8.576-4.693-17.040-7.244-25.468-0.814 1.071-1.627 2.18-2.439 3.177-3.179 4.068-5.509 7.688-9.758 10.646-5.286 3.659-10.535 6.875-14.896 11.679-2.551 2.846-4.362 6.137-6.839 9.021-3.548 4.175-8.131 8.057-12.233 11.717-8.835 7.946-19.296 13.342-28.684 20.551-10.201 7.836-21.402 12.235-33.231 17.114-10.718 4.437-21.919 7.133-33.303 9.316-10.979 2.107-22.252 2.033-33.305 3.508-5.84 0.813-11.496 2.55-17.372 3.104-4.547 0.389-9.13 0.146-13.677 0.146-6.801 0-12.124-0.146-18.74-1.737-5.175-1.222-9.758-1.037-15.007-1.367-10.756-0.7-21.068-4.879-31.085-8.612-9.647-3.586-17.816-8.502-26.466-14.009-4.805-3.031-8.983-3.217-14.304-4.214-3.919-0.74-6.248-3.143-9.095-5.692-2.735-2.477-5.692-4.214-8.5-6.468-2.514-2.068-3.807-5.544-5.361-8.317-0.442-0.778-0.961-2.331-1.663-3.698-1.33-0.589-2.365-1.328-2.549-2.404 1.072 0 1.884 1.109 2.549 2.404 2.846 1.295 7.319 1.703 9.019 2.068 6.063 1.295 11.828 3.474 17.818 4.916 6.763 1.664 13.861 3.401 20.884 3.217 7.317-0.244 14.452-1.037 21.845-1.037 3.881 0 7.762 0.244 11.607 0.049 3.548-0.098 6.504-1.109 9.942-1.776 8.279-1.513 16.486-4.326 24.063-7.948 4.695-2.253 9.426-2.846 13.861-5.875 3.919-2.662 7.503-5.804 11.496-8.355 5.063-3.255 10.646-5.692 15.303-9.574 3.77-3.177 7.244-7.207 10.719-10.682 3.844-3.883 7.762-7.688 11.644-11.57 4.509-4.51 7.465-9.795 10.756-15.191 8.759-14.306 18.74-28.351 25.431-43.764 2.587-5.988 5.766-12.086 7.539-18.37 1.701-6.061 2.588-12.788 3.845-18.925 2.661-12.974 2.808-26.207 1.626-39.366-2.033-22.658-6.542-46.278-16.374-67.198l-16.819-22.291c-4.398-3.659-8.796-7.318-13.307-10.756-9.426-7.244-18.887-15.043-28.831-21.549-2.291-1.513-4.693-2.846-7.023-4.326-0.888-0.593-3.586-3.104-5.026-3.698-1.147-0.516-2.477-0.555-3.623-0.049 1.147 0.52 2.070 1.333 1.628 2.735l42.619 36.224c-2.291-1.037-4.657-1.995-7.024-3.031-6.727-2.919-12.567-7.172-18.666-11.237-7.17-4.807-14.563-7.986-22.88-10.239-7.8-2.146-15.377-5.249-23.287-6.949-18.001-3.844-37.85-1.295-55.038 5.137-18.038 6.763-36.445 13.861-52.489 24.728-8.167 5.507-16.633 10.312-25.207 15.154-7.098 4.028-13.677 8.798-20.331 13.528-7.244 5.139-14.637 10.056-21.252 16.043-6.986 6.358-13.714 12.826-20.405 19.517-30.975 30.899-54.999 67.678-77.953 104.714-2.403 7.688-4.361 15.488-5.916 23.436-1.997 10.202-2.218 20.514-2.808 30.863-0.851 15.561 0.258 29.866 5.544 44.503 2.808 7.762 5.618 15.156 9.461 22.473 3.697 7.024 8.502 13.307 13.344 19.591 6.727 8.759 13.38 16.854 21.807 24.026 6.951 5.951 12.863 13.195 20.257 18.592 8.426 6.173 15.265 13.566 24.47 18.666 10.903 6.063 21.697 12.346 32.675 18.261 6.728 3.62 13.492 7.134 20.662 9.721 6.544 2.364 13.714 3.917 20.405 5.914 12.788 3.844 25.726 8.243 39.106 9.611 10.461 1.071 20.81 1.182 31.344 1.182 3.66 0 7.319 0 10.979-0.035 3.179-0.035 6.727-0.292 9.352 1.771-0.444 1.037-2.33 1.591-3.4 2.146-1.923 0.998-3.402 1.591-5.47 2.18-5.287 1.586-10.758 4.51-15.895 6.616-5.728 2.364-11.051 3.474-17.077 4.657-3.919 0.74-7.503 2.331-11.458 2.993-3.253 0.52-6.544 0.886-9.87 1.148-6.542 0.555-12.752 2.331-19.368 2.033-4.807-0.244-9.352-1.255-14.194-1.109-4.657 0.146-9.278 0.851-13.935 1.328-12.161 1.222-24.914 1.333-37.148 0.555-7.467-0.487-14.896-2.253-22.363-3.031-7.096-0.7-14.489-1.513-21.291-3.698-11.57-3.771-23.693-8.391-34.413-14.119-5.507-2.919-11.198-5.47-16.522-8.723-5.359-3.29-10.202-7.246-15.303-10.942-17.926-12.9-35.114-26.28-48.753-43.838-8.614-11.051-17.261-22.582-19.148-36.85-3.437 8.205-6.837 16.373-10.496 24.431-4.14 9.203-7.8 18.556-11.532 27.908-4.435 11.198-8.059 22.214-11.793 33.636-3.363 10.351-6.023 20.7-8.5 31.27-2.403 10.239-5.361 20.331-7.098 30.718-3.584 21.031-6.394 42.173-9.535 63.243-1.958 13.159-2.81 26.17-3.66 39.403-0.517 8.317-1.295 16.596-1.295 24.912 0 17.669 1.811 35.115 3.993 52.562 1.626 12.974 2.993 25.466 5.766 38.257 1.884 8.574 3.142 17.261 4.731 25.91 1.701 9.204 2.958 18.408 5.361 27.501 1.847 7.059 4.658 13.787 6.394 20.885 0.74 3.104 1.368 6.247 2.513 9.277 1.221 3.143 3.512 6.284 5.249 9.242 3.66 6.172 6.912 13.047 11.163 18.887 3.919 5.435 8.945 9.832 13.528 14.675 5.063 5.359 9.907 10.83 15.117 16.041 6.691 6.765 14.194 12.752 21.623 18.668 5.618 4.399 10.719 9.609 16.671 13.528 8.243 5.396 17.963 8.909 26.649 13.64 6.765 3.693 13.27 7.724 20.293 11.016 12.345 5.801 25.024 11.384 37.554 16.817 11.237 4.881 23.472 8.355 35.263 11.754 5.656 1.591 11.496 2.662 17.224 3.995 6.47 1.479 13.012 3.474 19.628 4.359 12.605 1.698 25.578 0.487 38.183-0.195 14.045-0.778 28.054-1.182 42.1-1.222 11.274 0 21.697-2.438 32.859-3.771 9.647-1.182 19.479-0.773 29.017-2.55 12.086-2.292 24.063-9.426 34.745-15.23 7.207-3.956 13.528-9.203 20.662-13.233 5.951-3.401 12.309-5.949 18.335-9.202 9.426-5.028 18.038-11.089 26.466-17.632 19.035-14.784 37.959-30.457 54.371-48.163 10.054-10.868 21.107-21.105 29.275-33.524 6.763-10.351 13.454-20.737 19.108-31.789 6.653-13.085 12.421-27.094 18.482-40.512 5.433-12.050 9.463-24.653 13.454-37.296 9.019-28.461 15.451-57.476 20.662-86.826 4.694-26.614 8.428-53.817 9.649-80.837 0.776-17.188 0.102-34.523 0.185-51.785z"></path>
    <path fill="#000000" d="M726.512 141.873l88.858 142.235c-2.846-9.87-5.84-19.738-9.426-29.385-5.435-14.637-13.159-27.944-21.328-41.214-7.54-12.346-14.268-25.209-21.992-37.37-7.91-12.419-17.483-23.398-27.538-34.116-5.174-5.544-10.496-11.053-15.856-16.486 0.035 0.098 0.155 0.244 0.221 0.389 2.772 5.138 5.063 10.498 7.060 15.968z"></path>
    <path fill="#000000" d="M607.865 650.006c-8.835-5.433-16.412-6.837-26.651-6.505-6.173 0.244-25.431 1.109-25.133 9.316 0.442 0.555 0.665 1.109 0.333 1.771-0.186-0.628-0.297-1.217-0.333-1.771-1.996-2.438-11.015-3.548-18.408-1.995-4.472 0.964-6.135 2.623-10.275 3.883-2.884-0.555-5.766-0.389-8.612 0.52-2.995 1.295-5.435 3.25-7.319 5.876-3.881 2.623-7.947 4.51-12.272 6.284-8.649 3.474-19.443 12.345-25.357 20.145-5.581 7.355-5.359 14.896-5.323 23.803 0.103 20.514 1.589 45.428 16.412 61.617 3.548 3.883 6.691 5.286 9.98 9.611 4.842 6.394 10.83 13.675 17.742 17.963 11.938 7.355 22.806 7.91 36.482 7.836 13.012-0.035 28.721 2.331 40.512-4.472 11.496-6.617 27.722-13.677 35.632-24.728 5.989-8.391 15.377-19.96 18.261-30.014 3.696-12.642 0.517-30.42-2.921-42.693-5.174-18.517-15.524-45.797-32.748-56.443z"></path>
    <path fill="#000000" d="M351.327 824.86c-0.122 10.792-2.92 26.059 0.297 36.26 4.252 13.454 12.79 16.819 25.357 16.819 5.84 0 11.422 1.071 16.486-1.995 6.247-3.805 7.577-9.019 15.858-9.611 2.254-14.563 7.429-23.361-0.297-38.035-2.070-3.844-4.288-6.505-6.691-8.391l-25.357-4.214c10.608 0 18.742-0.924 25.357 4.214l18.592 3.104c-14.71-5.249-69.267-30.715-69.601 1.849z"></path>
    <path fill="#000000" d="M376.991 815.692l25.355 4.214c-6.616-5.137-14.784-4.214-25.355-4.214z"></path>
    <path fill="#000000" d="M709.671 306.090c-0.923 0.195-6.282 3.139-7.244 3.732-5.73 3.401-12.531 6.951-14.822 13.751-2.993 8.981 1.737 12.308 5.766 19.294 4.657 8.095 3.105 9.647 13.602 10.128 12.9 0.593 31.344-1.255 31.308-18.37 0-6.542-4.474-14.045-8.835-18.444-1.44-1.44-4.657-4.063-7.872-5.766l-9.093 2.257c0.665-5.213 4.879-4.472 9.093-2.257l5.581-1.406c-6.837 0.146-11.163-4.141-17.483-2.919z"></path>
    </svg>