<svg xmlns="http://www.w3.org/2000/svg" viewBox="-11.286 15.868 1066.060 993.154">
    <path fill="#000000" d="M550.463 378.73c3.894 10.081 7.79 20.123 12.031 30.063 4.585 11.395 9.446 22.704 14.518 33.961 0.137 0.414 0.277 0.828 0.553 1.105-16.127 1.382-36.737 3.259-59.979 5.511zM811.818 841.708l-9.060-1.41-4.53-0.691-2.196-0.414-0.968-0.277c-2.929-1.105-6.864-3.799-9.888-7.113-3.164-3.413-5.415-7.113-6.864-11.298l-6.478-15.983c-8.618-21.339-18.077-42.388-27.918-63.29-0.137-0.414-0.414-0.968-0.691-1.382l83.952-182.279c8.521 20.951 17.589 41.659 26.505 62.464 18.759 42.148 37.712 84.195 59.735 125.077 4.185 8.039 8.425 16.077 12.666 24.118l33.326 77.568c1.242 2.831 1.698 5.262 1.698 7.015 0 2.003-0.553 2.97-0.828 3.259-0.277 0.277-0.553 0.553-2.003 0.553l-0.828-0.047-120.933-11.74c-8.232-1.382-16.516-2.776-24.752-4.143zM558.201 652.403c-4.143-9.6-8.287-19.148-12.473-28.748-9.309-20.56-18.466-41.171-28.065-61.587 3.95-0.277 7.885-0.691 11.698-1.105 25.336-2.487 50.284-5.843 75.277-9.253zM636.747 876.875c1.382 3.024 1.905 5.609 1.852 7.457 0 2.099-0.553 3.122-0.968 3.55-0.414 0.414-0.968 0.828-2.873 0.828l-0.968-0.047-130.336-12.084c-8.867-1.41-17.785-2.831-26.7-4.241l-12.182-1.796-7.362-1.105-2.333-0.277-1.242-0.414c-0.828-0.277-1.754-0.691-2.775-1.105-1.905-0.968-3.95-2.238-5.843-3.799-3.799-3.122-7.071-7.209-9.211-11.298-0.553-1.105-0.968-1.852-1.505-3.122l-1.852-4.283-3.659-8.576c-9.695-22.852-20.318-45.313-31.232-67.678-2.873-5.896-5.896-11.74-8.867-17.589l92.233-190.853 3.701 0.553 1.905 0.277 2.099 4.876c9.751 22.852 20.123 45.411 30.307 68.067 7.997 17.054 16.030 34.157 24.168 51.161 13.396 27.822 27.189 55.496 42.244 82.635 4.627 8.618 9.309 17.2 13.982 25.774zM227.416 497.412c12.526-1.754 25.044-3.466 37.615-5.013 0.553 5.415 3.413 9.64 8.19 11.505 0.098 0 0.137 0.046 0.277 0.098 1.105 0.414 2.431 0.691 3.855 0.828l184.567 17.687c4.283 0.414 8.964-0.691 13.494-2.971 2.1-1.105 4.143-2.431 6.145-3.992 5.013-3.894 9.446-9.060 12.224-15.007l12.473-26.849c8.811-0.553 17.589-1.105 26.358-1.796l56.471-4.82c0.553 0.828 0.968 1.603 1.657 2.389 2.638 3.357 6.629 6.975 11.449 8.964 4.683 1.947 9.6 2.333 12.859 2.487l9.793 0.691 19.538 1.41c5.22 0.414 10.372 0.691 15.593 1.105l139.743 18.127c0.828 0.046 1.561 0.098 2.294 0.098 3.024 0.046 5.938-0.691 8.522-2.14 1.561-0.828 2.97-1.796 4.088-3.066 2.045-2.238 3.218-4.918 3.799-7.748 5.938 0.968 11.891 1.698 17.784 2.722 5.746 0.828 11.449 1.698 16.663 3.508 2.487 0.828 5.206 2.238 5.648 3.757 0.553 1.382-0.968 3.259-2.736 4.82-9.888 1.105-19.832 2.003-29.771 2.873-3.564 0.277-7.057 0.691-10.621 0.968-7.597 0.691-15.151 1.105-22.754 1.754-1.41 0.097-2.831 0.137-4.241 0.277-12.72 0.968-25.434 1.852-38.149 2.68-8.383 0.553-16.712 1.105-25.045 1.698-11.491 0.828-22.95 1.505-34.399 2.389-13.785 1.105-27.579 2.196-41.32 3.606-1.658 0.137-3.315 0.414-4.973 0.553-0.277 0.046-0.691 0.046-0.968 0.097-2.045 0.137-4.048 0.414-6.036 0.691-2.1 0.137-4.143 0.414-6.187 0.691-0.277 0.047-0.553 0.047-0.828 0.098-4.336 0.414-8.674 0.828-13.010 1.382-3.066 0.277-6.090 0.553-9.158 0.968l-82.101 9.018c-6.864 0.828-13.452 1.382-20.123 1.947-0.553 0-0.968 0.046-1.41 0.097-1.463 0.098-2.487 0.414-5.802-0.137l-2.831-0.277-7.499-0.828-0.968-0.137-1.505-0.137-38.631-4.683-82.296-9.848c-27.431-3.122-54.912-6.090-82.49-8.576l-6.436-0.691-7.452-0.691-2.334-0.277-25.093-2.333-9.888-0.968c-2.638-0.277-5.111-1.105-6.091-1.905l-0.828-0.828c-0.098-0.277-0.277-0.691 0.049-1.561 0.277-1.242 1.41-2.929 2.929-4.531zM801.342 472.392l2.333 5.207c1.105 2.68 1.561 4.918 1.658 6.767 0.047 0.277 0.137 0.691 0.137 0.968s-0.097 0.414-0.097 0.691c-0.047 0.553-0.098 1.105-0.277 1.561-0.137 0.828-0.553 1.41-0.691 1.658-0.414 0.414-0.691 0.691-2.333 0.828l-0.828-0.047-139.595-18.126c-1.657-0.277-3.357-0.691-5.069-0.968-3.412-0.691-6.864-1.242-10.276-1.947l-19.246-3.606-9.6-1.754c-3.218-0.553-4.876-1.242-6.036-2.003-1.105-0.691-1.754-1.561-2.831-3.217-0.553-0.968-1.105-2.294-1.754-3.647-0.414-0.828-0.828-1.81-1.105-2.831-0.968-2.582-2.003-5.262-3.066-7.941-0.277-0.553-0.414-1.105-0.691-1.698-0.968-2.431-1.947-4.918-2.929-7.362-4.49-11.395-9.158-22.803-14.081-34.059-4.725-11.354-9.888-22.559-15.009-33.766-2.238-4.973-4.683-9.888-7.015-14.862l90.676-194.896 4.918 11.505c9.502 22.705 19.636 45.117 29.672 67.629 20.513 44.779 41.269 89.458 65.046 133.018 4.531 8.521 9.116 17.052 13.687 25.578zM972.17 842.206l-33.326-77.616c-2.873-8.522-5.746-17.052-8.674-25.58-14.276-43.753-31.718-86.387-49.356-128.924-9.116-21.144-18.028-42.388-27.579-63.39l-7.169-15.737c-1.505-3.412-3.466-6.767-5.648-9.888 8.425-1.105 14.762-1.947 18.222-2.431l4.241-0.553 3.066-2.68c9.544-8.19 8.716-16.127 7.362-20.123-4.048-11.989-20.026-15.009-34.741-16.81l-21.73-3.55c-0.277-0.691-0.277-1.242-0.691-1.905v-0.098l-36.737-82.634c-3.218-9.018-6.436-18.077-9.737-27.089-16.179-46.434-35.422-91.698-54.864-136.867-9.986-22.51-19.832-45.068-30.258-67.386l-7.79-16.761c-1.105-2.431-3.024-6.573-5.167-9.793-2.14-3.357-4.585-6.436-7.306-9.309-5.609-5.648-11.989-10.719-21.535-13.887-1.242-0.414-2.528-0.691-3.799-0.968-1.242-0.137-3.217-0.553-3.854-0.553l-14.627-1.242c-26.019-2.196-52.037-4.283-78.104-5.994-13.010-0.828-26.019-1.657-39.077-2.334l-39.855-2.099c-4.876-0.137-11.449 2.487-14.228 7.209-0.828 1.382-1.41 2.68-1.852 3.992-0.137 0.553-0.277 1.105-0.414 1.698-0.046 0.277-0.137 0.691-0.277 1.105-0.137 0.968-0.277 1.852-0.277 2.831-6.822 3.894-13.052 10.33-16.614 17.931l-160.010 343.991c-26.116 2.775-43.707 4.627-46.776 4.973l-4.392 0.414-3.315 2.831c-13.259 11.394-11.394 22.266-9.986 26.409 1.41 4.185 6.727 14.178 25.044 16.468l16.81 2.294c-0.277 0.414-0.553 0.691-0.691 1.105l-171.267 354.272c-6.478 13.452-2.003 25.288 10.082 26.409l195.188 17.98c12.084 1.105 27.138-8.923 33.668-22.366l62.317-128.875c0.047 0.137 0.097 0.277 0.137 0.553 9.502 22.9 19.343 45.702 30.063 68.115l3.992 8.425 2.003 4.241c0.691 1.505 1.698 3.508 2.736 5.111 4.283 6.629 9.653 12.14 16.177 16.663 3.259 2.238 6.822 4.241 10.912 5.746 2.003 0.828 4.185 1.41 6.573 1.852 1.105 0.277 2.431 0.277 3.659 0.414l2.529 0.137 19.781 0.691c9.018 0.277 17.98 0.553 26.994 0.828l130.436 12.084c0.828 0.046 1.505 0.097 2.294 0.097 4.918 0.047 9.793-1.698 12.955-5.013 0.553-0.553 0.828-1.105 1.242-1.657l2.196 0.137c10.912 1.105 24.509-8.383 30.402-21.144l48.822-106.074c6.091 15.104 12.375 30.16 19.148 45.022l7.169 15.737c3.024 6.436 7.555 12.526 12.915 17.247 5.511 4.778 11.74 9.116 20.707 10.965 1.105 0.277 2.389 0.277 3.564 0.553l2.389 0.097 13.743 0.414c8.383 0.277 16.763 0.414 25.143 0.691l120.932 11.74c0.828 0.098 1.463 0.137 2.196 0.137 4.683 0.046 9.351-1.754 12.333-5.013 3.024-3.259 4.185-7.404 4.185-11.603 0-3.757-0.968-7.692-2.68-11.74z"></path>
    </svg>