<svg xmlns="http://www.w3.org/2000/svg" viewBox="40.264 -16.123 947.268 1058.346">
    <path fill="#000000" d="M777.889 232.694c-11.811-4.151-22-12.227-35.017-11.471-9.018 0.49-16.302 6.678-24.563 9.584-6.188-0.189-12.377-0.492-18.528-1.7-7.32-1.471-15.96-0.716-23.28 1.132-8.152 2.077-16.339 4.303-24.563 6.339-8.189 2-12.793 1.7-19.131 7.547-15.96 14.754-23.544 35.017-27.242 56.221-1.395 8.001-0.679 15.773-1.019 23.848-0.189 4.34-0.189 8.415 0.144 12.867 0.379 5.357-0.301 9.623 0.189 14.791 0.943 10.226 4.112 20.827 6.715 30.864 2.377 9.093 5.923 16.565 10.263 24.678 3.243 6.111 7.66 10.753 12.414 16.11 6.452 7.207 13.583 9.359 22.601 12.037 8.905 2.603 17.17 6.265 26.112 8.792 6.377 1.848 15.244 5.131 21.959 5.244 2.19 0.035 3.735-0.868 5.999-0.34 2.717 0.64 4.641 2.527 7.434 3.283 4.338 1.132 8.905 0.906 13.32 2.377 3.849 1.282 5.17 3.283 8.302 5.396 3.243 2.151 5.925 3.283 8.868 6.415 6.038 6.377 10.037 5.509 18.15 7.925 5.131 1.585 9.811 1.772 15.017 2.943 3.735 0.868 6.979 2.64 10.79 3.283 8.001 1.282 16.112 2.49 23.999 4.83 8.905 2.603 19.205 4.867 27.658 8.868 7.397 3.548 12.227 4.906 18.679-0.527 3.962-3.359 7.66-7.020 11.508-10.527 6.942-6.265 9.961-10.453 14.565-18.302 4.98-8.491 9.887-17.773 12.64-27.318 2.83-9.961 4.303-19.168 4.754-29.697 0.906-21.167-3.925-38.45-12.035-57.542-4.19-9.849-9.171-19.66-14.189-29.129-6.489-12.227-17.923-22.035-27.242-32.299-9.395-10.302-17.923-20.942-29.281-28.979-6.377-4.491-11.772-10.339-18.528-14.188-8.603-4.943-18.15-10.074-27.468-13.359z"></path>
    <path fill="#000000" d="M816.516 498.941c-4.038-1.547-7.584-3.585-11.471-5.057-2.906-1.132-7.283-1.774-9.66-4.038l-1.585 0.866c-14.754 6.981-21.357 6.226-25.999 7.057-5.396 0.982-10.716 2.377-15.697 4.188-5.131 1.887-8.037 5.32-12.188 8.942-5.055 4.416-3.093 7.623-4.753 13.735-2.415 8.905-1.585 21.282 0.753 30.337 2.982 11.622 8.981 22.148 15.585 32.262 2.112 3.246 3.925 3.246 4.338 7.547 0.377 3.962-1.169 5.849-2.905 9.055-0.642 1.208-1.7 3.095-2.415 4.377-0.906 1.659-2.077 4.375-3.132 5.923-3.47 5.019-7.092 7.888-7.735 14.754-0.414 4.83 1.358 9.395 2.49 13.659 1.434 5.396 2.303 9.887 6.151 13.999 3.396 3.622 6.715 7.357 10.074 11.056 3.811 4.188 7.66 8.413 11.508 12.638 2.943 3.246 7.66 11.019 12.301 11.019-0.982-2.527-3.246-3.999-5.019-6.112-1.622-1.961-1.85-3.735-3.019-5.886-1.811-3.359-4.188-6.302-5.357-9.66-2.303-6.528-7.018-14.678-5.396-21.772 1.848-7.923 5.057-15.131 8.642-22.301 2.188-4.414 5.96-5.999 8.566-9.848 2.754-4.077 2.188-7.471 8.489-9.018-2.037-2.945-1.659-8.378-2.415-11.774-0.98-4.678 0.107-10.377 0.718-15.207 0.679-5.32 2.453-10.226 4.602-15.017 1.661-3.696 2.756-9.885 4.943-12.83 2.151 0.792 3.283 5.246 4.303 7.283 1.924 3.811 1.245 3.548 1.811 7.623 0.34 2.717 2.227 5.623 2.717 8.491 0.492 2.754 1.057 5.583 1.169 8.413 0.072 2.227 0.144 5.359-0.301 7.51-0.226 1.057-1.622 1.887-1.811 2.945-0.189 1.056 0.414 2.793 0.035 3.773-0.906 2.415-2.566 4.188-3.472 6.565-1.321 3.585-1.585 6.112-5.207 8.337 4.867-0.64 9.395 1.434 14.413 0.868 3.509-0.377 6.339-1.698 9.397-2.905 4.151-1.661 8.15-2.83 10.603-6.717 2.34-3.733 5.131-6.3 7.66-9.885 1.057-1.471 1.547-3.322 3.206-5.131 1.548-1.737 2.681-3.322 4.001-5.131 2.68-3.622 6.073-7.888 8.225-11.737 1.622-2.867 2-7.205 2.68-10.49 0.718-3.13 1.471-5.962 2.264-9.169 1.698-7.057 3.283-16.263 0.792-23.243-2.114-5.962-11.395-15.622-16.905-19.284-7.623-5.057-17.431-7.735-25.997-11.017z"></path>
    <path fill="#000000" d="M698.396 892.904c5.509-5.435 11.432-13.019 15.359-19.773 3.243-5.621 4.225-11.809 6.602-17.773-2.603 3.208-11.508 6.867-15.244 8.378-7.020 2.793-13.772 5.847-20.942 8.074-14.188 4.454-27.431 8.225-42.336 8.187-5.775 0-11.508-0.527-17.207-0.414-4.414 0.107-5.886-0.753-10-2.377-4.528-1.811-5.999-2.453-9.471-6.415-2.98-3.395-6.565-5.621-10.187-8.074-3.435-2.34-5.999-3.283-8.792-6.415-2.83-3.208-5.773-6.339-8.642-9.51-5.734-6.265-11.471-12.565-17.168-18.827-7.245-7.963-14.491-15.886-21.735-23.848-7.584-8.339-17.131-16.339-23.017-25.962-2.415-3.999-4.039-6.942-7.17-10.377-5.32-5.734-11.056-10.414-13.433-17.847-1.659-5.17-1.698-8.716-1.169-14.036 0.492-5.131-0.144-10.263 0.265-15.507 0.566-7.51 1.735-15.017 2.415-22.527 0.753-8.452 3.243-16.075 4.715-24.412 2.037-11.772 7.623-21.093 12.603-31.885 2.34-4.98 6.112-9.055 8.829-13.811 0.755-1.321 1.698-2.415 2.264-3.622-0.453-1.169-0.414-2.34 0.144-3.585 1.358-1.924 2.453-3.962 3.246-6.226 2.225-6.942 2.453-15.244 2.375-22.488-0.035-6.907 1.963-13.396 2.264-20.263 0.34-6.188-1.358-12.264-0.945-18.376 0.379-6.377 2.037-11.432 1.737-17.997-0.263-6.302 0.377-12.49 0.107-18.829-0.263-6.829-1.019-14.413 1.585-20.94 2.34-5.849 6.265-12.301 9.282-17.847 6.981-12.943 14.641-24.829 20.339-38.676 2.905-7.018 4.828-13.811 5.923-21.357 0.755-5.131 0.831-11.28 3.735-15.81 2.264-3.509 4.867-4.263 8.829-2.98 4.263 1.321 8.339 9.169 10.905 1.998 0.64-1.698-0.642-3.811-0.567-5.583 0.144-3.548 1.057-5.357 0.529-9.018-1.019-7.094-4.377-12.904-6.339-19.773-1.887-6.678-4.567-12.791-7.812-18.792-0.98-1.772-2.754-4.489-3.583-6.223-1.095-2.377 0.144-4.416 2.112-10.453-6.528 0.529-11.885 0.492-18.224 2.453-10.905 3.359-22.111 5.131-32.978 8.189-10.49 2.943-21.093 7.018-31.507 10.527-3.32 1.095-7.131 2.077-10.263 3.548-5.283 2.415-10.903 3.433-16.075 5.734-3.962 1.774-7.508 3.359-10.677 6.339-4.452 4.264-9.358 6.452-14.262 9.961-11.319 8.113-15.281 22.035-22.791 33.204-5.244 7.81-10.377 15.622-15.962 23.13-6.339 8.528-9.848 18.113-16.452 26.565-7.055 9.055-9.922 20.566-15.357 30.639-6.905 12.717-10.903 27.018-16.527 40.337-5.32 12.603-10.49 25.281-16.602 37.47-2.717 5.396-3.886 11.358-5.244 17.205-1.509 6.641-4.793 12.227-6.791 18.641-6.528 20.827-7.133 43.128-12.377 64.184-1.848 7.397-0.072 13.698 0.144 21.206 0.144 4.68 2.19 6.602 3.849 11.019 1.509 4.038 1.7 8.037 2.34 12.225 1.282 8.302 4.68 15.396 6.942 23.433 2.527 9.055 4.604 18.037 7.775 26.942 5.621 15.925 11.809 31.356 20.3 45.921 2.905 4.943 3.659 10.187 6.339 15.169 4.188 7.735 10.716 14.338 15.546 21.696 3.661 5.548 6.754 9.887 11.358 14.791 6.829 7.283 11.622 15.507 17.96 23.054 8.452 10.074 17.96 19.432 26.715 29.242 7.357 8.225 15.394 15.47 25.884 18.942 19.358 6.377 38.753 13.772 58.184 19.168 2.905 0.831 5.32 2.943 8.226 3.661 2.149 0.527 3.696-0.414 5.847 0 5.433 1.019 10.263 2.64 15.736 3.093 12.338 0.945 22.449 3.622 34.11-2.49 9.057-4.791 13.923-15.81 24.225-18.677 15.396-4.264 31.961-3.849 46.902-11.432 15.999-8.152 30.488-20.451 43.28-33.091z"></path>
    <path fill="#000000" d="M561.097 526.942c2.037 0.868 3.47 2.077 5.433 3.13 1.848 0.982 4.075 2.077 5.886 3.171 2.793 1.659 4.416 3.396 7.775 4.641 1.924 0.716 6.489 1.509 7.81 3.13 2.49 3.093-1.963 7.81-4.264 11.056-2.453 3.47-11.167 9.319-8.868 14.488 5.509-0.453 11.056-0.945 16.527-1.282 4.98-0.34 12.982-2.943 16.868 1.471-2.68 2.83-3.509 7.81-5.131 11.282-2.114 4.529-3.773 6.754-3.811 11.809-0.035 5.472 1.132 5.131 6.528 4.114 7.886-1.434 14.791-5.285 22.488-7.357 6.265-1.659 6.755-0.377 11.019 4.338 1.622 1.813 6.265 8.942 8.679 9.018 3.208 0.144 8.113-7.51 9.508-9.695 2.566-3.925 4.416-6.565 5.812-11.132 0.642-2.19 2-2.867 1.245-5.17-0.453-1.395-3.472-3.585-4.567-4.754-2.867-3.093-7.357-6.641-9.471-10.263-2-3.435-2.98-7.51-4.98-11.245-1.961-3.698-5.433-6.678-8.3-9.809-12.414-13.659-27.168-27.207-35.469-42.827-4.001-7.51-8.189-14.414-11.924-22.188-1.698-3.622-2.453-8.64-3.811-12.717-1.132-3.395-3.962-7.357-3.661-11.054-16.979 2.867-11.885 42.185-11.017 47.579 0.603 3.548 1.885 5.775 1.547 9.471-0.301 3.395-1.395 3.811-3.058 6.678-1.017 1.735-0.98 4.98-2.037 6.715-1.774 2.905-5.17 4.338-6.754 7.397z"></path>
    <path fill="#000000" d="M755.66 693.194c-3.472-3.811-4.604-6.602-7.018-10.982-4.906-8.942-10.905-17.547-16.149-26.452-3.171-5.396-6.791-7.923-9.169-13.923-1.925-4.867-4.754-10.603-7.66-14.865-9.094-13.472-23.471-25.131-41.657-32.904-1.509 4.151-3.811 6.565-6.452 10.226-3.208 4.414-5.662 9.206-9.321 13.243 1.511 2.83 4.34 4.454 6.112 7.057 1.963 2.867 2.603 5.886 4.83 8.716 2.566 3.206 18.15 15.32 13.585 19.545-1.661 1.547-4.303 1.509-6.302 2.527-1.395 0.718-2.453 2.227-3.925 3.017-0.529 0.265-2.227 0.107-3.019 0.416-2.149 0.829-3.811 1.961-6.112 2.754-2.717 0.906-6.528 1.471-8.827 2.566 3.507 7.207 11.167 11.697 18.074 14.98 6.528 3.093 14.565 9.055 22.299 8.868-3.169 2.377-7.584 5.283-7.81 9.583-0.263 5.775 5.585 8.566 10.451 9.471 11.395 2.074 25.207 0.414 35.394 6.149-0.566 3.622-1.019 6.794-1.848 10.302-0.567 2.49-1.661 8.868-1.019 10.98 2.453 8.415 25.884 1.282 31.206-0.144 4.414-1.245 8.677-2.415 12.375-5.47 2.227-1.813 8.415-5.849 8.981-8.642 0.529-2.905-4.715-8.868-6.602-10.943-2.98-3.283-6.565-5.66-10.15-8.074-4.112-2.793-6.829-4.225-10.263-8z"></path>
    <path fill="#000000" d="M810.229 710.016c2.603-0.416 7.66-1.813 9.849-3.058 1.885-1.093 2.717-2.83 4.717-3.811 0.98-0.527 2.566-0.414 3.849-1.169 3.357-1.961 5.17-6.073 8.868-7.66 2.943-1.282 6.754-0.263 9.282-2.83 1.321-1.321 1.395-3.585 2.377-5.131 2.83-4.602 5.509-6.151 6.112-11.622 0.414-3.811 1.395-7.735 1.509-11.508 0.072-2.453-0.263-8.642-3.999-8.942-2.982-0.226-5.244 6.715-6.075 8.642-3.472 7.847-6.981 14.451-13.433 20.263-2.98 2.68-6.073 6.791-9.471 8.792-2.077 1.208-4.263 1.208-6.265 2.49-1.772 1.13-2.83 3.32-4.604 4.489-3.698 2.453-7.847 1.887-11.961 2.717-6.226 1.282-6.415 2.566-10.829-2.34l1.169 7.623c3.886 3.472 13.848 3.849 18.905 3.058z"></path>
    <path fill="#000000" d="M791.787 729.677c3.169 3.622 6.979 4.717 10.263 8.001 2.754 2.754 3.773 3.62 7.283 4.906 6.339 2.338 10.79 3.243 17.885 2.188 6.415-0.945 16.791-1.735 21.735-6.302 4.375-4.075 12.414-15.697 10.603-22.148-2.717-0.492-3.243 1.509-5.094 2.68-3.509 2.19-5.734 1.772-9.734 2.83-5.131 1.434-11.585 4.151-16.225 6.868-3.735 2.149-3.886 3.283-7.847 3.999-3.208 0.566-7.207-0.567-10.492-0.455-3.886 0.072-9.206 0.679-12.338-2.301z"></path>
    <path fill="#000000" d="M514.464 658.718c-2.49 3.169-4.867 6.188-7.357 9.282-2.98 3.698-2.603 3.322 0.567 6.907 3.585 4.112 6.339 6.302 10.527 9.131 2.264 1.509 6.489 5.057 7.697 7.547 2.49 5.17-3.359 9.245-3.735 13.962 6.715 2.074 13.093 0.226 19.621 0.982 1.056 0.716 2.074 1.471 3.093 2.262 1.811 0.342 3.661 0.605 5.47 0.831 2 0.982 4.943 3.811 5.435 6.075 0.829 3.811-2.151 8-2.227 11.961-0.072 6.415 4.98 6.831 11.132 6.678 5.773-0.144 11.319-0.603 17.205-0.072 4.943 0.416 10.905 3.058 15.886 2.34 4.678-0.679 9.131-5.773 12.565-9.282 2.905-2.943 4.414-10.982 7.623-12.603-7.888-1.169-16.641-6.791-23.583-10.564-3.811-2.114-6.944-2.19-10.15-5.435-4.943-4.98-9.471-10.49-14.188-15.659-7.96-8.716-15.849-17.471-23.848-26.149-5.057-5.509-6.979-10.716-12.035-16.374-3.509 5.47-6.188 4.112-8.905 5.697-1.624 0.982-3.548 5.623-5.246 7.283-1.848 1.811-3.962 3.169-5.546 5.207z"></path>
    <path fill="#000000" d="M605.159 746.186c3.886 1.434 7.623 3.243 10.3 5.546 4.112 3.548 2.603 4.567 2.303 9.206-0.189 2.756 0.189 8.566 3.246 9.849 4.112 1.7 12.638-3.622 16.791-4.906 3.925-1.169 9.169-2.338 13.243-1.208 4.377 1.245 6.678 5.094 9.849 8.603 2.64 2.867 5.925 5.736 8.225 8.905 2.303 3.208 2.377 7.584 6.151 9.774 5.357-3.132 10.3-6.678 15.962-9.358 3.357-1.587 8.074-5.172 11.395-6.151 2.453-0.755 4.338 0.414 6.754 0.866 3.283 0.605 5.546 0.379 9.018 0.342 6.868-0.107 12.677 4.865 14.075-3.661 0.679-4.151 4.491-13.622 1.169-15.812-2.19-1.471-8.15 0-11.207-0.679-3.056-0.718-5.773-2.453-8.942-2.83-4.038-0.529-6.452 0.226-10.263-1.057-5.66-1.887-11.735-3.396-17.697-3.962-17.66-1.737-36.561-10.792-51.051-21.245-6.602 6.678-10.527 9.736-14.98 13.698-4.038 3.546-9.169 4.565-14.338 4.075z"></path>
    <path fill="#000000" d="M605.159 746.186c-3.886-1.434-7.923-2.49-11.319-3.208 3.548 1.7 7.434 2.832 11.319 3.208z"></path>
    <path fill="#000000" d="M600.644 219.249c-4.19 2.64-7.773 6.188-12.037 8.792-4.678 2.867-9.885 5.17-14.488 8.113-2.227 1.434-5.207 4.112-7.923 4.865 11.017 0.755 21.054-2.754 31.091-7.055 5.17-2.19 9.66-2.754 15.017-4.151 6.151-1.624 12.227-5.509 17.885-8.226 12.037-5.773 24.186-9.508 36.939-13.28 14.036-4.151 26.565-2.34 40.789-3.661l40.035 3.433c-2.832-0.98-5.509-2.225-7.283-3.093-6.302-3.056-12.98-9.358-17.697-14.526-7.471-8.226-18.413-14.754-27.392-21.395-4.867-3.585-8.944-8.716-13.962-11.924-4.641-2.98-8.378-3.433-11.473-8.187-0.791 1.019-0.866 2.114-0.414 3.243-1.547-0.903-2.49-0.716-3.13-0.64-3.246 0.414-6.452 0.377-9.66 0.755-3.585 0.453-6.979 1.735-10.527 2.074-1.509 0.144-2.717 0.226-4.038 1.169 1.358 0.831 1.961 1.774 3.583 2.151 3.509 0.753 7.32 0.982 10.905 1.057 4.375 0.107 9.055 0.301 13.359 0.903 1.547 0.228 3.017 0.642 4.565 0.718 0.679 0.035 1.282-0.189 1.963-0.072-0.189-0.263-0.342-0.492-0.529-0.755 0.868 0.792 1.7 1.587 2.151 2.227 4.112 5.546 8.528 9.623 13.622 14.526 0.903 0.906 7.281 6.226 7.205 7.66-0.107 2.077-6.715 2.151-8.526 2.151-6.339 0-12.717-2.793-19.055-3.206-4.529-0.303-10.187 0.791-14.679-0.792-4.83-1.698-8.376-7.51-11.809-11.095-4.303-4.452-8.755-6.641-13.735-9.583-6.415-3.811-15.357-12.453-23.28-12.151 0.189 0.377 0.453 0.755 0.679 1.169-0.866 0.301-1.698 0.642-2.303 0.831-2.905 0.829-5.96 0.603-8.942 1.321-3.62 0.906-7.055 2.49-10.564 3.735-1.698 0.603-3.322 1.358-4.717 2.49 0.906 0.716 2.264 0.301 3.396 0.34 1.132 0.072 2.264 0.34 3.396 0.49 3.357 0.529 6.754 0.642 10.15 0.755 4.791 0.144 9.358 0.868 14.149 0.527 0.716-0.035 1.585-0.189 2.453-0.263 1.434 1.887 2.867 3.735 4.263 5.47 2.793 3.548 6.641 6.755 8.566 10.943 3.357 7.32-5.17 5.775-9.924 5.47-5.244-0.301-12.264 2.303-17.508 1.85-2.793-0.226-5.094-1.7-7.923-1.85-3.322-0.189-7.357 1.019-10.716 1.435-6.717 0.791-13.019 3.395-19.621 4.188-7.018 0.829-10.64-3.773-13.811-8.942-1.772-2.867-10.603-15.47-14.565-15.394l0.189-1.737c-1.132 1.737-5.396 2.64-7.245 3.472-3.32 1.434-6.489 3.283-9.849 4.604-3.093 1.208-6.3 1.961-9.395 3.13-2.603 0.945-5.094 2.19-7.697 3.132-2 0.716-3.169 1.547-4.867 2.717 2 1.395 4.112 0.866 6.377 0.829 2.037-0.035 3.925 0.868 5.962 0.529 1.998-0.301 3.773-1.358 5.81-1.624 4.227-0.603 8.603-1.282 12.869-1.358 2.112-0.035 4.602 0.107 6.641-0.791l0.868-9.055c0.34 1.509 0.943 2.98 1.245 4.414 0.527 2.377 0.226 4.83 0.527 7.283 0.603 5.094 2.49 8.642 5.207 13.13-3.017 2.566-5.17 4.567-8.679 6.528-6.038 3.396-10.677 3.886-17.055 5.925-8.226 2.64-15.812 6.415-23.961 8.528-3.925 1.019-6.528 3.886-10.717 1.434-3.433-2.037-6.149-5.32-9.695-7.623-8.113-5.244-18.905-11.659-28.903-12.603 0.035 0.189 0.144 0.301 0.189 0.49l-0.226-0.144c-1.095-0.072-2.037 1.245-3.017 1.774-1.282 0.679-2.453 1.321-3.661 2.112-2.49 1.737-5.094 3.283-7.773 4.68-6.981 3.585-13.509 9.471-19.509 14.375-1.998 1.661-4.075 3.585-6.265 5.094-0.791 0.529-3.093 1.208-2.905 2.453 2.68-0.791 5.47-1.169 8.037-2.264 2.19-0.943 4.19-1.659 6.454-2.375 3.357-1.095 6.452-3.019 9.809-4.19 2.303-0.791 4.604-1.622 6.907-2.415 6.151-2.149 11.922-4.98 17.773-7.81 0.716-0.34 1.924-1.019 3.206-1.622 1.208 1.659 2.264 3.472 3.585 4.754 4.906 4.791 10.263 5.207 12.64 12.225-4.225 3.058-8.226 5.131-12.037 8.905-3.999 3.999-7.357 4.793-12.149 7.207-8.829 4.491-17.094 9.887-25.357 15.281-4.416 2.867-5.283 2.867-10.113 1.395-7.057-2.151-14.943-2.793-22.338-2.754-5.32 0-10.187-0.453-15.32-0.982-6.452-0.64-13.545-0.263-20.3-0.716 3.396 0.866 7.283 1.885 11.019 3.169-1.848-0.527-3.661-1.019-5.433-1.208-1.7-0.144-3.208-0.34-4.83 0.226-1.395 0.492-2.793 1.057-4.225 1.471-3.396 1.019-6.567 3.548-9.321 5.812-4.075 3.322-7.394 7.094-10.3 11.471-1.395 2.037-2.49 4.263-3.735 6.377-2.074 3.396-3.056 6.981-4.678 10.603-1.358 2.945-2.681 5.736-3.735 8.792-0.379 1.057-1.245 2.566-1.132 3.698 2.074 0.189 5.131-4.678 6.452-5.96 4.602-4.377 8.716-9.133 13.017-13.735 4.038-4.34 8.037-8.339 12.717-11.924 4.075-3.13 7.773-6.905 11.922-9.809 2.303-1.624 4.906-2.756 7.51-3.773 0.161-0.072 0.303-0.144 0.455-0.226 1.961 0.866 3.811 1.772 5.433 2.867 3.472 2.264 5.66 3.47 9.584 5.094 3.169 1.282 3.169 2.64 5.583 4.375 3.093 2.227 5.47 1.245 4.906 6.151-0.34 3.017-2.227 4.529-4.112 6.489-8.528 8.792-15.925 18.979-25.017 27.281-6.641 6.036-13.622 11.432-19.243 18.3-4.567 5.621-8.981 3.359-15.433 2.68-7.584-0.791-16.489-1.245-23.999 0.34-4.906 1.057-10.414 2.19-15.849 2.719l-5.999-0.642c-0.072 0.301-0.189 0.566-0.303 0.868-1.169-0.035-2.377 0-3.548-0.144-0.107 0.791 0.906 1.735 2.643 2.717-0.831 2.34-1.661 4.678-2.49 7.055-1.132 3.246-2.453 6.038-3.925 9.131-2.605 5.509-4.604 11.282-6.794 16.944-1.208 3.169-2.603 6.265-4.263 9.206-0.642 1.095-1.813 2.34-1.737 3.698 2.453 0 5.246-5.207 6.491-6.754 4.978-6.302 8.942-13.472 14.149-19.584 2.566-3.056 5.32-6.075 8.037-9.055 1.547-1.698 3.093-3.509 4.717-5.131 8.3 2.64 16.942 5.019 18.829 6.075 3.62 1.998 3.811 1.132 2.64 5.47-0.906 3.208-3.246 4.567-4.98 7.17-2.754 4.151-4.416 9.169-7.471 13.357-3.132 4.34-6.868 8.302-9.774 12.83-4.112 6.415-6.905 13.962-10.941 20.074-1.737 2.603-2.945 5.32-4.529 8.152-0.982 1.698-3.698 5.583-5.283 6.678-5.131 3.548-15.583 3.548-21.432 4.263-2.793 0.342-10.792 0-16.263 0.982l-1.282-0.453c-0.189-0.035-0.377-0.035-0.603-0.072-0.228 0.603-0.755 1.017-1.321 1.434-0.831 0.34-1.548 0.791-1.887 1.358 0.035 0.035 0.072 0.072 0.107 0.107v0c-1.245 1.585-2.415 4.112-3.206 5.999-2.717 6.452-6.565 12.299-9.055 18.903-1.7 4.604-3.849 9.887-4.227 14.754 0.755-0.34 0.868-1.019 1.321-1.659 1.019-1.509 2.377-2.905 3.472-4.34 2.037-2.603 3.811-5.207 6.038-7.66 5.17-5.734 9.432-11.659 13.772-18.037 0.49-0.679 1.017-1.358 1.547-2.037 0.453 0.226 0.791 0.453 1.321 0.603 3.359 1.245 4.641 2.566 7.471 4.454 1.698 1.13 4.753 1.321 6.075 2.488 3.395 2.982-3.322 15.322-4.793 19.509-2.077 5.847-3.698 10-7.057 14.867-4.528 6.565-4.188 16.036-10.829 21.506-3.925 3.208-10.074 4.077-14.717 5.849-6.038 2.34-12.791 3.735-18.829 6.867-2.905 1.511-5.66 3.811-8.603 5.057-3.396 1.474-6.907 1.511-9.849 4.114 2.037 0.189 4.225 0.189 6.415 0.189-0.301 0.377-0.605 0.791-0.831 1.321-1.169 2.566-1.924 5.433-2.905 8.113-2.527 6.981-2.754 14.453-5.283 21.432-2.377 6.565-4.416 13.208-7.623 19.432-2.527 4.83-4.98 9.471-6.755 14.641-0.453 1.321-0.943 2.68-1.434 3.999 0.982-3.056 3.585-5.847 5.812-7.96 1.622-1.585 2.68-3.661 3.849-5.585 3.056-5.019 6.075-10.226 9.545-14.978 3.019-4.151 4.98-8.302 7.51-12.717 2.077-3.661 4.68-7.133 6.265-11.056 2.19-5.509 4.416-11.056 6.528-16.602 2.64 0.189 5.207 0.566 8.339 1.169 5.207 0.945 10.527 1.095 15.771 1.772 4.34 0.567 8.113 2.982 12.414 3.359 3.396 0.34 8.265-1.358 8.642 3.435 0.189 2.943-3.509 9.358-4.491 12.187-3.056 8.603-6.073 17.207-9.169 25.809-3.13 8.868-6.867 17.395-11.697 25.244-0.189 0.303-2.867 3.509-3.171 3.925-1.056 1.435-1.093 2.377-2.49 3.548-4.865 4.34-13.923 5.999-19.885 8.755-12.754 5.812-25.281 7.623-38.676 11.282-4.075 1.132-7.81 2.64-11.885 3.472-2.037-0.035-3.396 0.035-3.999 0.226-0.377 0.107-0.831 0.226-1.245 0.34-2.905 0.072-5.849-0.107-8.679 0.567-3.093 0.716-8.337 2.188-10.64 4.338 3.849 0.414 7.923-1.019 11.922-2.037-1.471 1.132-0.072 2.377 0.945 3.585 0.64 0.792 1.585 1.321 2.19 2.114 0.566 0.753 0.64 1.698 1.017 2.603 1.208 2.83 2.527 5.433 3.962 8.15 1.925 3.735 3.132 7.849 4.943 11.661 2.415 5.17 5.435 10.226 8.491 14.978 1.282 2 2.717 4.227 3.208 6.604 0.107-3.698-0.161-7.32 0.035-11.019 0.263-5.283-0.189-10.414-0.529-15.699-0.377-5.999-0.64-11.998-0.982-17.997-0.107-1.585-0.49-3.622-0.566-5.47 0.755 0.072 1.509 0.072 2.264 0.189 11.395 1.208 24.338 2 35.357 1.095 2.905-0.226 8.792-0.453 11.358 1.963 3.395 3.243-1.85 11.358-3.246 15.169-2.754 7.469-6.075 14.978-7.66 22.789-1.019 5.057-0.868 10.34-1.811 15.32-0.642 3.435-2.19 6.454-2.527 9.887-0.379 3.773 1.206 7.17 0.34 10.642 4.301-10.829 11.245-19.547 15.169-30.224 2.037-5.585 5.66-9.849 7.735-15.433 1.811-4.943 1.961-11.207 7.66-9.434 3.585 1.095 7.584 7.471 10.263 10.15 3.472 3.509 7.133 7.623 10.866 10.755 0.035 0.035 0.035 0.035 0.072 0.035-1.474 1.547-2.793 3.206-4.151 4.641-3.661 3.849-7.434 7.66-11.054 11.548-2.832 3.017-6.454 5.433-9.697 7.96-1.585 1.245-4.338 3.548-4.906 5.583 0.945 0.455 2.566-0.377 3.548-0.603 3.548-0.831 6.942-1.548 10.377-2.832 3.811-1.395 7.623-2.83 11.319-4.452 5.094-2.227 10.226-3.886 15.056-6.867 1.509-0.906 3.661-1.019 4.906-2.453 0.453-0.529 0.566-1.057 0.603-1.587 0.605-0.144 1.208-0.49 1.85-1.208 1.471-1.698-3.811-17.281-4.641-20.035-2.077-7.057-7.471-12.943-10.716-19.697-5.548-11.659-10.905-23.431-9.057-36.602 1.737-12.338 8.566-25.507 12.717-37.317 1.85-5.207 3.735-10.414 5.585-15.659 0.527-1.511 0.982-5.094 2.037-6.226 3.171-3.396 5.887 0.753 8.452 3.622 4.83 5.357 9.623 10.603 14.904 15.47 5.094 4.717 6.452 11.169 9.887 17.205 0.866 1.548 2.188 3.735 2.603 5.435 1.056 4.112-0.718 4.452-2.945 8.037-3.962 6.377-5.847 15.131-8.376 22.186-2.227 6.302-4.906 11.207-8.076 16.905-1.358 2.49-1.698 5.396-3.169 7.847-1.85 3.169-4.83 4.338-4.641 8.603 4.038 0.603 15.47-23.546 19.395-27.281 3.208-3.056 4.83-5.131 7.133-8.716 2.754-4.375 3.773-8.868 6.188-13.206 1.811-3.208 5.887-5.887 6.075-9.887 0.107-1.961-1.019-2.754-1.358-4.641-0.718-3.925-1.813-5.546-3.095-9.055-1.434-3.925-0.527-7.318-2.566-11.243-8.45-16.075-25.921-25.659-35.847-40.411-5.775-8.603 0.072-19.319 3.169-27.884 1.887-5.207 1.474-9.774 2.945-14.83 1.811-6.151 4.301-12.035 8.337-16.979 6.075-7.547 20.414-1.395 28.866 0.716 7.207 1.774 19.131 1.737 25.394 6.602 2.603 2.037 6.265 8.378 7.81 11.319 5.207 10.074-5.697 21.169-9.206 30.224-1.547 4.075-15.81 37.357-12.377 39.847 7.886-7.584 13.962-16.415 19.773-25.622 5.583-8.755 5.734-18.337 7.357-28.413 0.64-4.112 5.81-11.961 4.865-15.847-0.603-2.34-7.092-5.285-8.225-6.038-4.717-3.058-7.623-5.999-10.943-10.339-8.413-10.943-23.28-17.81-34.562-25.507-3.585-2.453-7.207-4.754-7.245-9.51-0.035-5.546 1.548-12.264 4.34-17.168 4.112-7.245 9.961-12.791 13.433-20.224 3.925-8.378 9.584-15.999 13.359-24.528 4.151-9.319 5.057-12.867 15.244-7.81 10.3 5.057 19.582 13.095 27.734 21.093 6.905 6.715 8.642 12.262 9.887 21.696 1.13 8.716-4.567 14.565-7.547 22.377-2.49 6.678-5.17 13.507-7.623 20.072-1.358 0.492-2.114 1.434-2.264 2.793 0.945 1.093 1.057 2.225 0.301 3.433-1.245 3.849-6.188 4.754-7.094 8.452 8.226 1.848 19.697-15.47 22.867-21.056 4.303-7.547 6.454-17.168 9.359-25.319 4.565-12.943 9.131-22.638 2.19-35.847-2.527-4.793-6.567-8.566-10.187-12.49-2.793-3.017-4.754-7.471-7.623-10.15-3.396-3.206-6.188-3.811-7.584-8.603-5.057-16.868 8.868-23.396 20.866-33.131 6.339-5.17 12.414-11.13 17.547-17.545 2.566-3.208 5.847-13.546 10.3-13.546 4.83 0.035 8.337 10.15 11.019 13.848 4.375 6.112 8.563 9.055 6.073 16.565-2.566 7.847-5.621 15.583-8.337 23.394-2.227 6.415-5.585 11.508-8.452 17.471-1.698 3.585-4.641 8.189-7.207 11.019-1.321 1.434-3.395 2.264-4.715 3.962-1.661 2.114-1.925 4.414-4.151 6.377 5.925 3.811 20.829-2.64 24.451-7.32 3.622-4.641 5.283-10.79 9.055-15.546 2.83-3.548 6.112-6.188 9.245-9.471 8.566-8.868 11.471-21.091 11.885-33.054 0.303-8.376 1.624-15.129-4.452-21.583-3.999-4.263-11.471-11.809-7.51-17.923 2.98-4.678 9.131-5.546 13.585-7.886 5.131-2.717 7.847-7.66 12.111-11.432 2.415-2.151 5.925-4.98 8.942-6.188 2.717-1.095 1.7-2.603 5.359-1.019 2.225 0.945 4.565 4.754 6.036 6.567 1.85 2.262 4.34 4.828 4.567 7.886 0.603 7.547-10.943 15.32-15.131 20.827-3.283 4.264-7.32 11.019-12.377 13.169 12.264 5.094 24.451-5.359 34.262-12.075 3.962-2.717 8.905-5.999 12.114-9.697 2.68-3.13 2.415-4.225 0.866-7.96-2.453-6.112-5.923-11.735-8.64-17.66-1.095-2.34-2.832-4.867-1.737-7.773 1.434-3.925 6.794-7.283 10.263-8.792 6.339-2.83 12.264-5.621 18.415-8.868 7.055-3.661 9.583-8.942 17.847-10.037 9.621-1.321 15.659 0.642 13.357 12.151-0.527 2.64-3.811 4.906-4.075 6.942-0.144 1.208 0.945 1.587 0.906 2.793-0.072 1.772 0.603 2.793 0.226 4.715-0.566 3.132-3.811 7.66-5.962 10.226-3.13 3.849-8.113 6.717-12.035 9.774-3.208 2.49-10.868 4.717-12.301 8.603 5.736 3.622 15.699-3.019 20.601-5.849 4.83-2.793 10.113-5.057 14.717-8.225 7.923-5.472 9.66-10.15 12.754-18.792 2.415-6.867 4.188-14.526 7.32-21.093 4.263-8.829 10.49-7.66 18.942-9.093 8.755-1.509 18.224-3.548 27.129-3.622 12.791-0.107 1.509 8.755-3.093 12.264-4.303 3.283-9.247 5.057-13.772 7.886z"></path>
    <path fill="#000000" d="M677.984 186.045c-3.925-0.679-7.773-0.414-11.735-1.132-4.338-0.829-8.792-2.264-13.13-2.98-2.037-0.34-5.17-0.301-7.32-1.321 7.133 6.641 15.357 10.037 23.922 12.943 4.375 1.471 7.623 3.661 11.848 5.775 4.793 2.375 10.49 3.32 15.433 4.791 10.453 3.019 20.224 7.471 30.374 12.227 11.207 5.207 18.905 13.394 29.055 20.527l25.657 24.602c-1.509-2.188-2.83-4.489-3.661-5.999-2.98-5.509-4.941-13.245-5.999-19.168-1.7-9.434-6.415-19.734-9.774-28.979-1.811-5.019-2.49-10.564-4.567-15.433-1.924-4.491-4.225-6.868-4.375-11.659-0.982 0.189-1.434 0.903-1.622 1.848-0.642-1.434-1.395-1.848-1.85-2.151-2.34-1.547-4.489-3.395-6.829-4.943-2.603-1.698-5.433-2.83-7.96-4.565-1.095-0.755-1.963-1.395-3.208-1.509 0.567 1.282 0.605 2.225 1.547 3.357 2.037 2.453 4.529 4.754 6.907 6.794 2.943 2.49 5.999 5.244 8.679 8.074 0.943 0.982 1.772 2.077 2.793 2.98 0.453 0.416 0.943 0.605 1.358 1.095 0-0.301-0.035-0.527-0.035-0.791 0.263 1.017 0.453 1.924 0.527 2.64 0.492 5.81 1.813 10.866 3.246 16.828 0.263 1.095 2.377 8.074 1.735 8.942-0.945 1.245-5.433-2.415-6.641-3.396-4.263-3.548-7.434-8.905-11.546-12.754-2.945-2.717-7.207-5.17-9.584-8.716-2.603-3.773-2.603-9.471-3.47-13.696-1.057-5.209-3.171-9.094-5.322-13.772-2.793-6.038-5.283-16.527-10.79-20.792 0 0.342 0 0.755 0 1.132-0.679-0.301-1.434-0.566-1.887-0.753-2.338-1.132-4.301-2.982-6.602-4.19-2.793-1.471-5.773-2.377-8.642-3.546-1.434-0.567-2.793-0.982-4.225-1.057 0.301 0.982 1.395 1.471 2.151 2.112 0.753 0.679 1.434 1.474 2.112 2.227 2.037 2.227 4.303 4.188 6.53 6.151 3.206 2.793 5.96 5.812 9.358 8.302 0.49 0.377 1.132 0.753 1.735 1.169 0.226 2 0.455 4.001 0.642 5.887 0.453 3.811 1.772 8.037 1.321 11.772-0.718 6.567-5.812 0.755-8.942-2.074-3.396-3.132-9.206-5.397-12.603-8.642-1.774-1.735-2.717-3.925-4.567-5.623-2.188-1.998-5.396-3.47-7.81-5.094-4.867-3.243-10.187-5.131-15.017-8.337-5.057-3.396-5.621-8.378-5.66-13.433 0-2.793-0.831-15.771-3.509-17.923l0.831-1.019c-1.471 0.492-4.717-1.358-6.302-1.848-2.83-0.945-5.736-1.547-8.566-2.603-2.566-0.945-5.057-2.264-7.623-3.283-2.114-0.829-4.301-1.434-6.452-2.301-1.659-0.679-2.793-0.792-4.416-1.019 0.792 2.037 2.415 2.867 3.964 4.112 1.395 1.132 2.301 2.754 3.811 3.698 1.471 0.906 3.093 1.245 4.602 2.19 3.095 1.998 6.302 4.038 9.245 6.377 1.435 1.169 3.058 2.64 4.793 3.206l4.303-5.283c-0.379 1.132-0.567 2.453-0.945 3.509-0.642 1.811-1.85 3.243-2.64 4.943-1.7 3.583-1.85 6.867-1.85 11.282-3.093-0.072-5.357 0-8.526-0.718-5.472-1.245-8.829-3.509-13.962-5.775-6.643-2.943-13.321-4.828-19.66-8-3.093-1.547-5.999-1.169-7.847-5.131-1.471-3.206-2-6.791-3.435-10.263-3.32-7.886-8-18.037-14.375-24.225-0.035 0.107-0.035 0.263-0.072 0.414l-0.072-0.189c-0.679-0.679-1.887-0.377-2.754-0.603-1.169-0.303-2.19-0.529-3.359-0.679-2.377-0.34-4.793-0.792-7.17-1.395-6.186-1.622-12.98-1.547-19.055-1.772-2.037-0.072-4.225 0-6.302-0.303-0.753-0.072-2.603-0.943-2.98-0.035 2.114 1.019 4.151 2.303 6.377 3.058 1.85 0.603 3.509 1.282 5.32 2.074 2.717 1.208 5.585 1.737 8.339 2.869 1.885 0.791 3.773 1.547 5.66 2.338 5.057 2.077 10.074 3.472 15.207 4.98 0.605 0.189 1.7 0.416 2.832 0.755 0.107 1.735 0.072 3.472 0.453 5.019 1.358 5.812 4.793 9.093 3.548 14.904-4.114-0.455-7.66-1.358-11.774-1.095-4.338 0.301-6.942-1.095-11.167-2.227-7.773-2.114-15.585-3.283-23.359-4.489-4.188-0.642-4.753-1.132-7.397-4.754-3.886-5.357-8.981-10.15-13.999-14.301-3.583-2.982-6.678-5.999-9.961-9.171-4.077-4.075-9.020-7.81-13.396-11.848 1.963 2.453 4.151 5.244 6.151 8.15-1.057-1.321-2.077-2.68-3.208-3.773-1.056-1.056-1.998-2.037-3.32-2.566-1.169-0.49-2.34-0.903-3.472-1.434-2.717-1.245-5.887-1.434-8.642-1.547-4.112-0.144-7.923 0.377-11.697 1.547-1.772 0.529-3.396 1.282-5.131 1.925-2.754 1.019-4.906 2.793-7.51 4.151-2.114 1.132-4.112 2.151-6.112 3.509-0.679 0.453-1.848 0.945-2.264 1.698 1.323 1.282 5.359-0.072 6.831-0.144 4.867-0.226 9.583-0.945 14.375-1.471 4.491-0.49 8.829-0.792 13.472-0.453 4.038 0.301 8.074-0.035 12.074 0.453 2.227 0.263 4.416 0.982 6.602 1.811 0.161 0.035 0.265 0.072 0.416 0.107 0.982 1.661 1.848 3.283 2.49 4.867 1.434 3.359 2.415 5.396 4.414 8.603 1.585 2.603 1.057 3.472 1.963 5.925 1.169 3.13 3.169 3.849 0.791 6.641-1.471 1.772-3.357 1.659-5.433 1.848-9.358 0.831-18.526 3.171-28.073 3.322-6.942 0.144-13.848-0.34-20.489 0.906-5.357 0.98-7.434-2.945-11.508-6.944-4.793-4.793-10.642-10.074-16.339-13.243-3.735-2.077-7.96-4.491-11.848-7.17l-3.773-3.735c-0.189 0.107-0.379 0.226-0.529 0.34-0.791-0.679-1.659-1.321-2.377-2.074-0.377 0.453-0.072 1.622 0.679 3.206-1.509 1.019-3.017 2.077-4.567 3.095-2.112 1.434-4.151 2.49-6.415 3.622-3.999 2.037-7.697 4.565-11.508 6.979-2.074 1.321-4.301 2.527-6.641 3.472-0.868 0.34-2.19 0.49-2.68 1.358 1.659 1.395 5.697-0.377 7.133-0.679 5.96-1.208 11.585-3.546 17.582-4.528 3.019-0.492 6.075-0.868 9.133-1.245 1.735-0.226 3.507-0.492 5.32-0.605 4.489 6.339 9.358 12.677 10.226 14.414 1.622 3.32 2.074 2.867-0.492 4.943-1.885 1.547-4.038 1.093-6.302 1.772-3.507 1.095-6.715 3.359-10.49 4.338-3.886 0.982-8.037 1.397-11.848 2.681-5.396 1.772-10.377 5.017-15.62 6.641-2.227 0.679-4.151 1.735-6.377 2.64-1.36 0.566-4.793 1.509-6.302 1.321-4.906-0.642-12-6.489-16.225-9.319-2.037-1.321-7.283-6.038-11.395-8.491l-0.679-1.019c-0.107-0.107-0.226-0.226-0.377-0.377-0.414 0.226-0.906 0.226-1.471 0.189-0.718-0.263-1.358-0.377-1.85-0.189 0.035 0.035 0.035 0.072 0.072 0.107v0c-1.509 0.34-3.357 1.282-4.641 2.037-4.491 2.566-9.471 4.151-13.848 6.944-3.058 1.961-6.678 4.151-8.905 7.018 0.64 0.228 1.019-0.144 1.585-0.301 1.321-0.414 2.754-0.527 4.112-0.829 2.415-0.529 4.717-1.169 7.207-1.474 5.812-0.753 11.132-2.149 16.678-3.773 0.605-0.144 1.245-0.301 1.887-0.414 0.226 0.377 0.377 0.718 0.64 1.095 1.774 2.68 2.114 4.225 3.246 7.018 0.679 1.7 2.64 3.509 3.093 5.019 1.057 3.773-8.528 7.888-11.245 9.736-3.811 2.527-6.565 4.263-10.866 5.509-5.699 1.624-9.359 7.849-16.112 7.584-3.962-0.144-8.452-3.017-12.34-4.489-5.019-1.925-10.15-4.83-15.507-6.188-2.603-0.679-5.396-0.755-7.923-1.622-2.867-0.945-5.244-2.906-8.302-2.869 1.321 1.245 2.756 2.49 4.264 3.698-0.379 0.072-0.755 0.144-1.095 0.342-1.85 1.017-3.548 2.415-5.283 3.583-4.567 3.019-7.81 7.623-12.34 10.679-4.301 2.83-8.415 5.925-13.13 8.074-3.661 1.661-7.245 3.246-10.529 5.509-0.866 0.603-1.735 1.208-2.603 1.772 1.887-1.395 4.793-1.735 7.17-1.848 1.735-0.072 3.322-0.792 4.867-1.36 4.151-1.471 8.3-3.093 12.603-4.188 3.735-0.945 6.791-2.49 10.263-3.886 2.905-1.169 6.075-1.885 8.755-3.509 3.735-2.301 7.51-4.565 11.207-6.942 1.698 1.622 3.283 3.283 5.17 5.433 3.13 3.548 6.678 6.602 9.922 9.961 2.719 2.793 4.264 6.452 6.981 9.093 2.19 2.114 6.188 3.811 4.452 7.020-1.056 1.998-6.186 4.038-8 5.244-5.583 3.773-11.169 7.547-16.752 11.319-5.775 3.886-11.772 7.205-18.263 9.471-0.265 0.107-3.359 0.642-3.735 0.755-1.282 0.301-1.7 0.866-3.132 0.866-5.057 0-11.885-3.999-17.017-5.621-10.982-3.396-20.187-9.282-30.714-14.451-3.246-1.587-6.377-2.719-9.471-4.454-1.358-1.169-2.303-1.885-2.793-2.114-0.301-0.107-0.642-0.301-0.982-0.453-1.998-1.585-3.886-3.359-6.112-4.528-2.377-1.245-6.528-3.283-8.942-3.171 2.415 2.377 5.775 3.735 8.868 5.357-1.434-0.072-0.982 1.471-0.829 2.793 0.107 0.868 0.527 1.737 0.603 2.605 0.072 0.791-0.226 1.434-0.34 2.188-0.34 2.49-0.529 4.906-0.679 7.434-0.226 3.472-1.057 6.754-1.434 10.187-0.453 4.641-0.49 9.547-0.377 14.301 0.035 1.963 0.072 4.227-0.529 5.999 1.587-2.303 2.869-4.754 4.491-6.979 2.377-3.246 4.151-6.755 6.112-10.302 2.19-4.038 4.452-8 6.678-12.035 0.566-1.019 1.169-2.527 1.85-3.773 0.49 0.49 0.98 0.906 1.471 1.395 7.205 7.133 15.62 14.904 23.431 20.527 2.037 1.471 6.112 4.604 6.868 7.584 0.98 3.999-5.887 6.188-8.415 7.847-4.906 3.208-10.226 6.112-14.491 10.226-2.754 2.643-4.791 6.112-7.469 8.755-1.85 1.774-4.114 2.832-5.775 4.83-1.811 2.19-2.114 5.283-4.112 6.981 7.357-4.491 15.583-6.151 22.64-10.755 3.661-2.377 7.847-3.056 11.508-5.47 3.243-2.151 5.923-6.038 9.055-1.698 1.961 2.68 2.074 8.981 2.754 12.187 0.906 4.188 1.698 8.868 2.943 12.98 0.035 0 0.035 0 0.035 0.035-1.622 0.161-3.206 0.455-4.678 0.605-4.077 0.414-8.152 0.753-12.227 1.169-3.13 0.34-6.565-0.144-9.774-0.379-1.585-0.072-4.414-0.144-5.621 0.792 0.453 0.868 1.885 1.245 2.64 1.622 2.754 1.474 5.32 2.906 8.15 4.039 3.171 1.208 6.302 2.451 9.51 3.507 4.375 1.434 8.491 3.246 12.98 4.077 1.395 0.226 2.905 1.358 4.301 1.169 0.492-0.072 0.831-0.377 1.057-0.679 0.455 0.226 1.019 0.377 1.737 0.263 1.698-0.263 4.489-13.13 5.057-15.32 1.509-5.697 0.226-12.453 0.829-18.565 1.057-10.527 2.227-21.017 8.868-28.374 6.226-6.867 16.225-11.471 23.848-16.602 3.396-2.303 6.791-4.567 10.187-6.867 0.982-0.679 2.754-2.68 3.925-2.832 3.509-0.377 3.661 3.811 4.227 7.057 1.093 6.112 2.188 12.151 3.733 18.224 1.511 5.849-0.189 10.717-0.377 16.489-0.035 1.434-0.035 3.585-0.453 4.906-0.982 3.208-2.303 2.415-5.283 3.435-5.285 1.848-10.113 6.377-14.717 9.471-4.112 2.754-7.886 4.377-12.377 6.226-1.961 0.792-3.357 2.453-5.357 3.208-2.527 0.982-5.057 0.035-6.641 2.867 2.453 2.64 20.074-6.302 24.262-6.489 3.396-0.144 5.357-0.567 8.378-1.547 3.659-1.208 6.186-3.548 9.583-4.943 2.527-1.019 6.377-0.455 8.152-2.906 0.866-1.169 0.453-2.301 0.98-3.696 1.095-2.869 1.057-4.529 1.624-7.51 0.64-3.283 2.64-4.943 2.83-8.603 0.866-14.943-6.981-30.827-7.66-45.807-0.379-8.679 7.96-12.227 13.545-15.925 3.396-2.262 5.019-5.433 8.076-7.81 3.735-2.905 7.81-5.244 12.565-6.151 7.205-1.395 14.375 10.566 19.205 16.639 4.151 5.172 12.225 11.811 14.451 18.452 0.945 2.717 0.792 8.829 0.642 11.585-0.605 9.319-12.49 10.263-18.565 14.075-2.717 1.698-25.96 14.904-24.676 18.415 8.413-0.416 16.149-2.64 23.846-5.207 7.357-2.49 11.358-8.452 16.602-13.999 2.114-2.227 8.829-4.34 9.774-7.357 0.529-1.774-2.64-7.32-3.093-8.452-1.925-4.567-2.68-8.074-3.171-12.717-1.208-11.659-8.45-24.375-12.904-35.581-1.434-3.585-2.905-7.094-1.019-10.113 2.227-3.548 6.075-6.942 9.961-8.491 5.736-2.301 11.963-2.566 17.357-5.357 6.075-3.13 13.017-4.793 19.055-8.113 6.602-3.585 8.679-5.357 13.507 3.548 4.867 9.018 7.849 19.319 10.113 28.977 1.887 8.152 0.792 12.64-2.225 19.358-2.793 6.188-9.057 6.715-14.227 10-4.414 2.867-9.018 5.697-13.357 8.526-1.132-0.453-2.037-0.263-2.68 0.492 0.189 1.245-0.226 1.998-1.208 2.375-2.415 1.737-6.151-0.453-8.265 1.397 4.83 5.773 19.66 1.208 24.073-0.605 5.999-2.377 11.358-7.283 16.678-10.866 8.378-5.662 15.435-9.284 16.149-21.583 0.263-4.454-0.945-9.133-1.772-13.659-0.642-3.472-0.144-7.397-0.982-10.717-0.982-3.962-2.64-5.886-1.622-9.734 3.47-13.585 15.546-9.961 27.619-9.397 6.415 0.265 12.982-0.144 19.055-1.358 3.058-0.566 9.51-5.32 12.527-2.83 3.208 2.717 1.471 11.132 1.774 14.98 0.453 6.339 2.074 10.564-2.68 13.962-4.943 3.548-10.187 6.754-15.207 10.226-4.114 2.83-8.491 4.188-12.869 6.377-2.603 1.321-6.489 2.603-9.358 2.943-1.471 0.189-3.243-0.414-4.83-0.107-1.998 0.414-3.093 1.735-5.396 1.735 2.415 5.736 15.131 10 19.508 9.057 4.34-0.906 8.001-3.886 12.49-4.793 3.359-0.718 6.641-0.567 10.113-0.868 9.434-0.829 16.376-7.018 21.545-14.375 3.622-5.17 7.283-8.716 5.812-16.225-0.945-4.98-2.906-13.962 2.262-15.659 3.927-1.282 8.452 1.622 12.414 2.603 4.604 1.169 8.452-0.492 12.867-0.492 2.49 0 6.038 0.189 8.566 1.095 2.264 0.831 2.19-0.679 4.038 2.34 1.095 1.85 1.132 5.585 1.395 7.584 0.303 2.453 0.945 5.509-0.144 7.547-2.68 5.17-13.657 3.661-18.714 4.793-3.964 0.906-9.471 2.905-13.772 1.471 6.188 10.074 18.714 10.3 28.073 11.508 3.773 0.49 8.491 1.169 12.149 0.603 3.095-0.49 3.359-1.321 3.849-4.565 0.831-5.283 0.831-10.792 1.397-16.112 0.226-2.074 0.107-4.678 1.998-5.923 2.566-1.661 7.547-0.792 10.527 0.144 5.435 1.772 10.605 3.32 16.075 4.715 6.265 1.624 10.15-0.301 16.188 3.585 7.018 4.567 10.3 9.206 4.038 15.244-1.434 1.395-4.604 0.982-5.583 2.114-0.605 0.716-0.035 1.547-0.567 2.303-0.753 1.095-0.716 2.112-1.772 3.13-1.661 1.659-5.699 2.717-8.189 3.171-3.698 0.679-8.263-0.303-12.149-0.529-3.171-0.226-9.247-3.093-11.811-1.434 2.377 5.546 11.85 6.907 16.302 7.847 4.416 0.945 8.905 2.415 13.321 2.982 7.584 0.98 10.677-1.057 16.302-4.83 4.452-2.982 8.79-6.868 13.583-9.282 6.489-3.246 10.226 1.017 16.527 4.828 6.528 3.962 13.772 7.925 19.811 12.867 8.679 7.094-2.603 6.454-7.133 6.112-4.225-0.34-8.3-1.998-12.527-2.717z"></path>
    <path fill="#000000" d="M188.971 702.593c-0.265 0.679-0.567 1.321-0.792 2.037 0.377-0.679 0.64-1.358 0.792-2.037z"></path>
    <path fill="#000000" d="M747.937 208.074c3.925 1.395 8.152 2.264 10.605 0.906z"></path>
    </svg>