<svg xmlns="http://www.w3.org/2000/svg" viewBox="0.512 48.002 1026.976 927.996">
    <path fill="#000000" d="M923.426 377.353c-1.698-3.567-1.609-7.134-2.61-10.83-1.134-4.002-4.392-7.218-5.348-11.22-1.17-5-0.042-11.655-0.042-16.786 0-7.134-0.042-14.221-0.042-21.308 0.042-8.348-2.045-16.308-1.914-24.527 0.042-3.567-0.222-7.134-0.042-10.698 0.222-3.915 2.175-7.523 1.652-11.526-0.788-5.695-3.609-11.958-5.873-17.178-3.131-7.306-9.003-11.828-13.134-18.265-1.348-2.13-1.698-3.87-2.695-6.35-1.609-3.915-4.611-7.045-6.22-11.046-2.306-5.871-2.87-12.306-2.653-18.831-10.698 5.695-21.354 11.394-32.008 17.092l-55.403 77.537c6.437-1.049 11.958-4.434 18.438-3.87 4.175 0.307 8.001 1.828 12.176 2.045 2.523 0.088 5.087-0.344 7.612-0.137 7.002 0.738 9.306 9.87 12.611 15.438 1.914 3.22 4.434 5.654 5.523 9.351 1.134 3.827 0.69 7.698 1.782 11.526 1.134 4.175 2.262 7.087 4.783 10.002 2 2.347 4.002 4.086 5.654 6.915 3.348 5.61 9.523 16.266 9.306 23.31-0.042 3.261-1.049 6.654-1.434 10.046 16.266 21.744 17.004 53.358 19.614 80.060 2 20.092 2.74 40.878-2.436 60.665-3.915 15.004-17.699 25.83-24.354 38.487-0.912 4.218-0.605 8.524-0.605 12.871 0 3.261-1.303 10.218 0.394 13.002 4.086 6.522 21.396 1.261 26.396-1.522 3.22-1.828 6.392-4.74 7.436-8.567 1.219-4.653 2.912-9.523 4.002-14.263 1.698-7.087 2.347-14.958 3.915-22.050 1.434-6.654 4.175-12.829 6.609-19.049 1.914-4.959 3.87-9.438 6.044-14.309 1.522-3.437 3.567-5.914 4.481-9.654 0.605-2.436 0.912-4.392 1.828-6.915 2.347-6.609 2.087-13.915 3.391-20.788 0.999-5.306-0.654-10.96 0.307-16.22 1.17-6.131 4.218-12.176 5.393-18.438 0.654-3.131 0.042-6.262 0.605-9.351 0.654-3.567 1.869-6.522 1.828-10.306-0.089-13.613-9.262-22.482-14.958-34.355z"></path>
    <path fill="#000000" d="M428.667 638.164c4.218-22.222 11.874-40.53 22.352-56.753l-135.725 47.968c4.434-0.738 8.046 1.303 12.176 2.393 6.349 1.698 14.568 1.303 20.178 5.176 9.351 6.392 10.612 21.396 11.394 31.53 0.394 5.046-0.481 10.306 0.307 15.264 0.825 4.87 1.869 8.915 1.828 13.961-0.042 4.218-0.088 8.394 0 12.569 0.042 4.566-1.828 9.221-1.652 13.525 0.088 2.653 1.303 5.958 1.698 8.826 0.481 3.306 2.478 6.35 3.739 9.392 1.35 3.22 1.35 5.654 1.782 8.958 0.518 4.002 3.089 7.045 3.827 10.96 0.875 4.783 0.174 10.35 0.137 15.394 1.479 4.782 2.523 9.74 2.653 15.046 0.568 21.614-13.134 33.877-29.527 43.706-0.605 1.609-1.086 3.306-1.782 4.698-2.087 4.218-4.61 8.697-5.742 12.917-1.086 4.175-3.567 11.132-0.788 15.046 2.217 3.174 6.739 4.74 10.306 4.959 9.916 0.605 15.004-4.002 20.047-12.351 4.653-7.653 9.175-15.134 14.786-22.134 0.738-0.912 2.347-1.392 3.001-2.262 0.518-0.775 0.222-2.217 0.775-2.958 0.875-1.134 2.13-1.782 3.261-2.695 4.392-3.478 10.482-6.349 14.263-10.218 3.001-3.089 5.262-8.61 7.784-12.306 2.61-3.87 5.742-7.482 8.177-11.438 2.045-3.306 3.348-7.306 4.828-11.001 1.219-49.314-3.261-100.022 5.914-148.162z"></path>
    <path fill="#000000" d="M743.222 199c5.217 2.217 10.698 0.912 16.178 1.869 3.478 0.605 6.437 1.219 9.87 1.479 6.044 0.481 9.392 4.132 15.090 5.61 2.958 0.775 8.654 0.69 12.176 2.306 1.479-1.698 3.042-3.306 4.914-4.698 4.045-2.87 8.524-3.478 12.829-4.481l12.917-9.045c1.17-1.782 2.045-3.478 2.653-5.046-1.739 0.137-3.567 0.137-5.742 0.088-10.567-0.137-20.918 2-31.614 1.914-14.916-0.042-29.833 0-44.791 0-4.305 0-9.481-0.738-13.613 0.307-0.825 3.826 6.262 8.479 9.132 9.698z"></path>
    <path fill="#000000" d="M664.025 262.831c8.090 2.695 16.438 5.217 24.702 7.393 7.087 1.828 14.351 3.478 21.136 6.22 2.523 1.049 5.13 1.782 7.74 2.523 2.393-2.13 5.176-3.739 8.479-4.87 3.697-1.303 6.306-2.045 8.567-3.348 1.609-3.654 3.739-6.698 6.87-8.742-0.042-0.344-0.137-0.605-0.137-0.962v-3.261c0.042 0 0.137 0 0.174 0 0.042-0.825 0-1.652 0.137-2.523 0.344-2.087 1.261-3.567 2.523-4.653-14.787 1.609-29.485 2.914-44.401 2.914h-15.742c-10.218 0-23.005-2.306-32.746 0.344 3.174 5 6.957 7.045 12.699 8.958z"></path>
    <path fill="#000000" d="M604.973 334.705c5.914 1.739 13.743 0.605 20.046 1.35 2.695 0.307 5.262-0.042 7.959 0.307 1.652 0.222 3.261 0.912 4.87 1.522 1.17-0.775 2.393-1.566 3.739-2.217 4.132-2.045 7.002-3.042 10.134-6.522 2.175-2.393 3.915-4.566 6.090-6.522-2.436-0.738-4.698-1.303-9.090-1.522-8.785-0.394-17.569-0.875-26.354-1.219-10.654-0.481-20.658-3.042-31.484-2.347-2.912 0.174-5.871 0.394-8.785 0.568-1.392 0.088-7.263-0.431-8.479 0.605-8.567 7.434 27.57 14.874 31.354 16.002z"></path>
    <path fill="#000000" d="M540.087 382.898c4.959 2.436 10.96 5.217 16.874 6.785 4.392-5.13 9.654-7.306 16.656-8.915 5.393-1.261 10.002-3.784 14.958-5.871l7.218-5c-3.437-0.518-6.392-1.828-9.959-2.262-8.479-0.999-16.874-3.348-25.44-3.478-11.349-0.174-22.699 0.042-34.095 0.042-4.434 0-11.874-1.261-15.96 0.258 6.739 9.523 19.787 13.525 29.745 18.438z"></path>
    <path fill="#000000" d="M462.234 421.34c3.956 2.045 6.479 3.391 11.001 4.698 6.001 1.698 10.482 6.568 17.611 7.134l4.783-1.958c2.958-3.739 5.784-7.698 9.87-10.698 2.306-1.652 4.698-2.783 7.132-3.609-9.175-3.174-20.178-4.87-29.79-4.783-8.307 0.088-16.134-0.344-24.137-1.828-2.393-0.394-4.045-0.69-6.479-0.738-5.478-0.137-9.654 1.479-5.567 4.959 3.739 3.131 10.914 4.434 15.57 6.828z"></path>
    <path fill="#000000" d="M382.43 460.183c6.262 3.001 11.22 7.218 17.829 9.87 1.086 0.089 2.175 0.307 3.261 0.568 0.962 1.35 2.175 2.393 3.697 3.131 1.869 0.69 3.956 0.222 5.826 0.738 2.87 0.775 5.695 3.261 8.524 4.653 3.131-2.217 6.044-4.61 8.307-7.393 3.697-4.522 7.176-8.437 11.307-11.742-3.522-1.17-7.35-2.262-10.914-3.22-8.567-2.347-17.222-1.479-25.83-3.697-11.61-2.958-22.222-5.695-34.485-3.567-2.217 4.086 9.829 9.392 12.481 10.654z"></path>
    <path fill="#000000" d="M241.587 569.797c3.348 1.739 8.131 1.739 11.698 3.042 9.392 3.348 19.875 1.434 29.049 5.871 4.481-5.695 8.218-12.090 13.134-17.657 1.828-2.045 3.784-3.915 5.914-5.695-1.17 0.258-2.306 0.605-3.437 0.825-5.436 1.049-10.263 0.222-15.612 1.049-11.568 1.782-23.223 5.873-34.833 5.873-4.002 0-15.306 1.869-5.914 6.698z"></path>
    <path fill="#000000" d="M234.473 629.533c1.652-3.042 3.609-5.871 5.695-8.61l-5.087-9.87c-3.391 1.522-7.566 0.518-11.177 1.303-7.045 1.434-14.178 6.001-21.354 6.437-4.086 0.222-5.826-0.394-10.046 1.35-4.434 1.828-9.829 3.956-13.743 6.392 9.306 2.523 19.266-2.523 28.789-0.605 3.956 0.825 7.829 1.17 11.915 1.828 4.175 0.605 7.959 0.912 12.134 1.261 0.962 0.090 1.914 0.307 2.87 0.518z"></path>
    <path fill="#000000" d="M946.044 129.182c-12.959 10.612-28.136 20.526-42.704 30.529-13.307 9.175-25.135 18.701-38.878 27.658-27.746 18.090-54.054 37.356-79.322 56.665-10.218 7.784-19.049 14.003-30.051 21.090-10.698 6.87-25.7 16.744-34.833 24.354-9.003 7.566-13.915 15.524-23.047 23.178-5.478 4.566-11.958 8.567-17.699 13.089-13.047 10.306-27.658 19.962-41.183 30.138-11.262 8.437-21.786 16.786-34.050 24.787-22.699 14.828-49.749 27.658-70.493 43.488-17.222 13.089-36.878 25.134-54.62 37.878-17.742 12.786-31.79 25.050-51.882 36.834-15.352 9.003-26.484 16.134-43.748 23.789-9.568 4.262-20.222 7.871-28.659 13.83-13.437 9.48-22.134 20.658-34.963 30.529-7.523 5.784-14.568 10.743-20.44 17.046-6.654 7.132-9.786 13.567-17.004 20.742-19.875 19.787-34.398 40.227-54.36 60.055-15.7 15.612-21.484 29.397-33.702 44.661-5.873 7.306-10.743 13.525-17.874 20.57-8.001 7.871-11.828 15.872-19.569 23.961s-11.438 16.308-16.35 24.267c-4.305 6.957-7.914 13.873-11.958 20.788-8.090 13.83-16.526 27.658-23.658 41.442-5.176 9.916-9.698 19.179-13.482 28.877-1.828 4.566-3.609 9.481-6.437 14.178-1.566 4.175-3.089 8.307-4.566 12.393 5.958-8.785 12.523-17.611 18.873-26.526 4.305-6.090 10.218-11.394 15.134-17.264 3.174-3.784 2.175-7.134 4.653-10.698 2.087-2.958 7.087-6.479 9.654-9.568 4.086-4.87 7.087-10.218 10.654-15.134 6.306-8.567 11.479-16.83 17.134-25.31 4.175-6.22 8.307-14.133 13.961-19.875 7.263-7.35 19.482-14.263 28.962-20.83 26.396-18.395 51.577-36.312 79.277-53.924 11.307-7.176 23.701-13.35 32.442-21.744 2.045-2 3.784-4.392 6.174-6.174 5.262-3.956 13.219-7.871 19.134-11.177 10.437-5.826 20.57-12.090 31.094-17.611 14.309-7.523 27.616-16.22 41.922-24.049 10.265-5.654 21.222-11.351 31.182-17.092 9.568-5.523 7.74-10.437 14.828-16.090 4.434-3.567 11.526-7.002 18.961-10.306 3.87-10.046 8.479-20.352 17.787-30.876 6.957-7.784 14.526-11.874 24.875-18.307 10.306-6.349 14.786-12.611 23.353-19.657 19.569-16.090 45.445-31.398 69.666-44.619 3.739-2.045 7.306-3.391 10.524-4.175 0.999-0.875 1.914-1.698 2.87-2.564 0.775-0.258 1.609-0.481 2.393-0.738 2.478-0.875 3.87-1.914 6.22-1.434 2.217 0.431 4.653 2.523 7.045 3.174 1.392 0.344 3.306 0.222 4.74 0.69 10.914 4.002 16.266 17.004 26.31 22.699 5.784 3.22 11.958 8.131 16.134 13.395 5.13 6.35 5.348 13.307 7.087 20.788 0.875 3.826 2.783 7.612 3.915 11.438 1.434 4.914 2.217 9.045 4.828 13.567 1.049 1.914 1.609 3.654 2.045 5.478 13.655 25.962 19.351 58.534 20.526 84.452 1.609 34.485-6.957 65.579-22.092 96.196-7.306 14.742-13.482 30.529-23.613 43.618-4.828 6.22-12.917 11.090-18.786 16.002-0.875 1.566-1.782 3.042-2.826 4.434-3.174 4.086-5.217 5.478-6.392 10.218-1.698 6.785-3.784 12.741-3.784 20.005 0 5.478 0.344 10.743 7.612 10.612 5.393-0.090 12.829-6.568 15.786-10.567 4.611-6.13 8.131-13.264 12.786-19.482 6.739-9.003 15.134-19.527 18.786-30.223 4.74-14.046 12.393-24.875 21.438-36.354 2.436-3.131 4.566-6.609 6.739-9.392 1.348-1.698 3.22-3.089 4.566-4.87 2.217-3.042 5.742-7.176 7.35-10.482 1.261-2.478 1.698-5.958 2.783-8.654 2.347-5.695 0.962-11.958 3.306-18.005 1.739-4.522 2.217-7.698 6.090-10.914 5.217-4.392 10.654-6.522 11.090-13.915 0.394-5.654-0.042-11.438-0.042-17.133 0-6.392-0.394-11.132-2.347-17.178-1.828-5.654-1.434-11.132-1.434-17.178 0-19.309-1.914-38.052-1.914-57.317 0-12.046 3.478-22.614 6.175-34.661 1.566-7.002 2.653-14.003-0.481-20.7-2.306-5.046-1.869-9.438-1.869-15.306 0-3.174-0.431-6.609 0.307-9.74 1.086-4.522 4.481-7.612 3.654-12.654-1.219-7.218-3.348-13.482-6.828-20.092-4.828-9.175-10.567-18.613-12.306-29.007-1.35-8.348 1.086-17.787 2.347-25.962 0.654-4.392 0.431-9.523 1.479-13.873l-1.739 1.134c2.087-6.306 2.523-13.307 4.35-19.569 0.605-2.13 1.303-4.262 2.087-6.306 0.089-0.222 0.174-0.518 0.258-0.825 0.258-0.775 0.69-1.566 1.049-2.306 1.869-3.915 4.086-7.653 6.437-11.307 14.091-7.698 27.138-17.699 39.138-26.094 16.048-11.22 22.222-23.31 24.354-33.399 1.261-5.784 5.523-11.828 6.957-17.439 0.962-3.87 2.087-4.783 6.957-9.090 8.177-7.176 15.7-14.351 23.135-21.354 9.654-9.132 21.006-19.439 28.614-28.659 4.87-5.871 10.567-9.87 16.786-15.742 5.654-5.306 8.654-9.61 12.959-14.828 3.826-4.698 7.482-9.523 11.262-14.351 2.436-3.089 4.87-6.915 8.567-9.829 0.431-0.344 0.962-0.654 1.434-0.962 0.825-1.48 1.65-2.958 2.434-4.435-0.481 0.394-0.962 0.775-1.434 1.17z"></path>
    <path fill="#000000" d="M767.308 232.948c1.392-0.394 2.653-0.875 3.956-1.303 0.307-5.348 2.347-10.265 3.22-15.57 1.219-7.35 2.783-15.394 2.478-22.917-0.174-4.175-0.654-8.394-1.049-12.569-0.089-1.303-0.174-2.564-0.962-3.697 0.174 1.609-0.875 3.174-1.434 4.653-1.261 3.042-2.783 6.090-3.261 9.351-0.912 5.695-2.13 10.393-4.392 15.872-3.261 7.959-7.176 15.524-10.743 23.353-1.782 3.956-3.042 6.131-3.042 10.393l10.306-4.132c1.134-1.566 2.742-2.826 4.914-3.437z"></path>
    <path fill="#000000" d="M694.476 293.32c0.089-0.431 0.174-0.875 0.222-1.17 0.518-7.871 0.137-15.786 0.999-23.571 1.134-10.134 1.652-20.264 2.74-30.354 0.518-4.392 1.219-8.742 1.086-13.177-1.609 0.258-4.132 5.306-4.914 6.739-1.17 2.087-2.347 4.305-3.089 6.568-1.828 5.61-3.174 11.479-4.783 17.178-3.042 10.914-6.262 21.484-10.265 32.050-3.131 8.348-5.478 16.874-7.871 25.44l13.743-7.306c2.523-5.784 6.785-9.829 12.133-12.393z"></path>
    <path fill="#000000" d="M606.569 358.731c1.35-1.869 2.695-3.739 4.522-5.348 1.739-1.479 3.697-2.564 5.784-3.478-1.392-22.31-2.695-44.574-4.175-66.883 0.344 1.434-0.307 2.087-0.518 3.348-0.222 1.261 0.042 2.436-0.090 3.739-0.344 2.61-1.652 5.306-3.042 7.523-1.869 2.958-2.306 5.826-3.042 9.221-0.999 4.74-3.306 9.045-4.481 13.743-0.738 3.131-0.654 6.522-1.086 9.698-0.825 6.131-2.393 12.176-2.695 18.353-0.137 3.131 0.344 6.262 0.518 9.351z"></path>
    <path fill="#000000" d="M523.568 404.676c0.089-2.61 2.523-5.826 3.391-8.177 1.782-4.828 3.174-9.74 5.176-14.481 1.782-4.175 3.915-8.131 5.436-12.393 3.22-9.175 4.35-18.786 9.959-27.006-2.393 11.698-3.174 23.658-4.392 35.529-0.788 7.436 0.042 14.699-1.303 22.092z"></path>
    <path fill="#000000" d="M480.448 442.55c-0.481-1.219-1.049-2.436-1.261-3.739-0.481-2.826 0.222-4.783-1.049-7.653-3.089-7.218-3.697-13.047-3.654-20.874 0.089-4.35-0.394-8.61-0.738-12.959-0.174-1.914 0.258-5.826-0.394-7.959-3.784-0.174-4.218 19.397-4.566 21.614-1.086 6.828-3.174 13.83-5.262 20.394-1.609 5.176-1.35 9.959-1.434 15.306l7.612-0.775c3.609-0.999 7.218-2.087 10.743-3.348z"></path>
    <path fill="#000000" d="M399.421 491.871c0.174-8.131 0.605-16.22 0.738-24.354 0.174-8.348 2.262-17.351 3.87-25.482 0.654-3.306 3.131-12.090 0.042-14.611-1.479 1.086-0.912 3.306-1.17 4.914-0.222 1.392-0.738 3.131-1.261 4.481-1.479 3.522-3.391 7.218-4.175 11.046-0.307 1.566-0.258 2.653-0.875 4.305-1.828 4.828-4.87 8.090-7.784 12.263-2.61 3.654-5.13 7.698-6.392 12.004-0.605 2.13-1.914 5-2.217 7.176l14.874 10.437c1.434-0.775 2.87-1.522 4.35-2.175z"></path>
    <path fill="#000000" d="M271.676 588.668c-0.088-1.261-0.088-2.564-0.307-3.739-0.344-2.087-0.344-4.522-0.825-6.479-0.69-3.131-1.392-5.695-1.914-9.090-0.654-4.218-1.739-8.131-2.564-12.263-0.69-3.87-1.134-9.698-3.001-12.611-0.605 1.303-0.738 3.131-1.134 4.566-2.045 7.482-5.436 13.785-6.698 21.656-1.479 9.61-1.303 19.091-1.956 28.659 6.090-3.437 12.393-6.739 18.395-10.698z"></path>
    <path fill="#000000" d="M317.732 513.95c9.654 5.087 21.57 3.915 30.354 11.568l3.915-2.087c3.826-6.568 8.479-12.306 14.787-16.962 1.782-1.303 3.739-2.478 5.695-3.609-2.695 0.344-5.478 0.605-8.262 0.738-5.478 0.307-10.176-1.17-15.57-1.086-11.698 0.174-23.831 2.61-35.311 0.999-3.956-0.568-15.394-0.258-6.785 5.826 3.089 2.175 7.829 2.87 11.177 4.61z"></path>
    <path fill="#000000" d="M315.524 542.485c1.782-10.263 2.347-20.482 4.87-30.702 1.914-7.698 5.871-13.698 8.567-20.96 0.518-1.392 0.825-3.174 1.522-4.434 1.609 3.042 1.522 8.915 1.914 12.786 0.394 4.218 1.17 8.22 1.434 12.481 0.174 3.437 0.69 6.044 1.086 9.221 0.258 2 0.088 4.434 0.258 6.522 0.174 2.045-0.042 4.305-0.088 6.392z"></path>
    <path fill="#000000" d="M212.811 650.189c-2.74-2.087-4.045-5.13-4.959-8.348-1.049-3.609-1.782-7.176-2.87-10.743-0.912-2.958-1.261-6.22-1.434-9.306-0.088-2.393-0.394-4.828 0.258-7.134 0.738-2.87 2.564-5.087 3.697-7.74 0.962-2.262 1.566-4.782 2.306-7.134-0.307 4.132 1.049 8.001 2.523 11.785 2.306 6.001 4.914 11.874 7.087 17.874 1.134 3.001 1.739 6.131 3.042 9.090 0.654 1.479 2.478 3.174-9.654 11.655z"></path>
    </svg>