<svg xmlns="http://www.w3.org/2000/svg" viewBox="9.239 -16.288 1001.295 1067.787">
    <path fill="#000000" d="M786.316 831.036c-0.524-1.423-1.001-2.865-1.641-4.235-0.085-29.649-12.213-58.849-34.464-79.504-15.646-23.98-37.709-42.833-60.946-61.11-21.99-17.303-42.063-33.661-58.628-58.479-16.692-25.009-29.518-51.296-52.004-69.968-39.853-33.102-95.563-36.579-137.914-3.091-20.819 16.473-32.050 37.121-44.775 62.083-16.107 31.605-41.641 52.873-65.055 76.747-25.235 25.729-55.139 53.449-71.319 88.352-32.545 47.538-30.157 110.181 20.946 147.816 56.798 41.852 127.334 37.562 180.175 4.586 14.501 5.985 30.977 9.922 49.795 11.21 41.351 2.849 82.638-5.902 115.698-26.325 35.899 20.125 76.951 23.701 117.996-8.625 19.414-15.284 31.302-34.966 36.863-55.821l1.072 0.045c1.559-7.454 2.623-15.573 4.2-23.683z"></path>
    <path fill="#000000" d="M475.601 359.648c-17.63-78.206-60.837-213.792-158.193-160.927-43.083 23.386-55.293 75.467-63.008 123.869-8.5 53.361-11.725 111.145 13.898 160.937 12.194 23.711 32.284 32.435 51.363 30.867 3.489 3.46 7.291 6.713 11.61 9.57 37.331 24.745 86.126 10.074 115.373-19.943 36.151-37.121 40.603-92.706 28.959-144.372z"></path>
    <path fill="#000000" d="M269.882 579.377c-16.601-19.349-30.787-39.807-43.235-62.074-19.837-35.455-32.284-77.385-55.815-110.532-5.255-2-10.619-3.668-16.133-4.911-2.136 1.171-4.273 2.371-6.462 3.749-41.116 25.919-49.742 74.474-54.149 119.21-4.849 49.332-4.191 102.070 24.524 144.436 13.671 20.167 34.158 25.881 52.959 22.367 3.695 2.766 7.679 5.289 12.14 7.408 38.657 18.348 86.019-0.288 112.985-30.704 3.488-3.939 6.552-8.047 9.346-12.266-3.264-28.658-13.123-49.827-36.16-76.684z"></path>
    <path fill="#000000" d="M541.463 361.029c20.549-77.484 68.831-211.35 164.124-154.873 42.171 24.991 52.418 77.484 58.314 126.142 6.479 53.648 7.543 111.514-19.929 160.306-13.078 23.241-33.481 31.199-52.491 28.918-3.623 3.335-7.535 6.426-11.969 9.13-38.232 23.314-86.433 6.823-114.535-24.269-34.737-38.446-37.096-94.157-23.514-145.355z"></path>
    <path fill="#000000" d="M738.135 567.136c17.312-18.71 32.257-38.617 45.542-60.399 21.153-34.686 35.16-76.125 59.927-108.361 5.317-1.801 10.752-3.27 16.314-4.298 2.081 1.253 4.181 2.532 6.308 3.983 40.117 27.451 46.911 76.305 49.635 121.176 3.001 49.468 0.352 102.151-29.941 143.398-14.413 19.637-35.096 24.576-53.753 20.359-3.796 2.623-7.868 5.002-12.411 6.957-39.313 16.89-85.946-3.523-111.75-34.93-3.343-4.065-6.246-8.299-8.878-12.607 4.326-28.513 14.979-49.296 39.008-75.277z"></path>
    <path fill="#000000" d="M704.724 121.795c0.085-2.2 0.244-4.407 0.315-6.571 0.109-3.315 0.299-6.705 0.135-10.021-0.253-4.983-1.505-9.58-3.282-14.166-1.108-2.849-2.135-5.795-3.55-8.48-0.252-0.487-0.513-0.957-0.784-1.423-0.359-1.848-0.721-3.695-1.117-5.543-1.379-6.471-8.626-11.879-15.205-11.58-2.803 0.126-5.49 0.847-7.959 2.153-3.037 1.604-6.714 5.93-7.255 9.427-0.297 1.982-0.639 3.965-0.983 5.947-0.937 1.722-1.892 3.435-2.711 5.229-0.595 1.288-1.136 2.596-1.722 3.885-1.028 2.326-2.218 4.669-3.010 7.075-0.658 1.974-0.829 4.073-1.028 6.154-0.261 1.741-0.496 3.479-0.803 5.217-0.333 1.929-0.649 3.929-1.063 5.902-2.723 4.704-4.119 9.968-4.362 15.464-0.622 13.769 10.771 25.873 23.892 27.629 12.635 1.703 24.208-5.343 29.112-16.961 2.613-6.199 2.991-12.904 1.379-19.34z"></path>
    <path fill="#000000" d="M929.085 349.839l-0.198-0.513c-1.019-2.397-2.028-4.795-3.038-7.19-0.91-1.73-2.136-3.245-3.451-4.669-1.533-2.271-3.227-4.443-5.201-6.38-1.668-1.621-3.435-3.298-5.39-4.65-0.496-1.045-0.937-2.1-1.675-3.073-1.216-1.613-2.415-3.164-4.2-4.208-2.28-1.342-4.893-1.748-7.489-1.397-2.109 0.288-3.867 1.010-5.552 2.317-2.136 1.641-3.11 3.479-4.137 5.949l0.558-1.335c-0.414 0.983-0.891 1.993-1.269 3.018-0.061 0.162-0.12 0.334-0.173 0.496-0.386 0.315-0.811 0.586-1.181 0.919-0.271 0.233-0.54 0.469-0.811 0.703-0.207 0.18-0.432 0.343-0.639 0.523-0.623 0.441-1.154 0.938-1.741 1.407-0.37 0.288-0.721 0.605-1.090 0.884 0.271-0.198 0.532-0.405 0.784-0.604-0.658 0.558-1.361 1.090-1.911 1.748-0.085 0.12-0.199 0.233-0.299 0.352-0.82 0.63-1.641 1.262-2.452 1.901-0.919 1.143-1.812 2.298-2.685 3.461-1.884 1.901-3.19 4.137-3.913 6.713-1.379 2.371-2.074 4.93-2.074 7.679-0.333 2.452-0.677 3.309-0.451 5.229 0.352 2.667 0.712 5.343 1.072 8.012 0.938 3.929 2.732 7.336 5.398 10.255 1.335 2.262 3.138 4.065 5.409 5.407 2.911 2.659 6.327 4.461 10.247 5.39 2.677 0.359 5.345 0.721 8.022 1.081 2.677-0.359 5.336-0.721 8.013-1.081 3.92-0.929 7.344-2.732 10.247-5.39 3.282-2.127 5.868-4.947 7.769-8.463 1.226-2.631 2.723-5.217 3.39-8.029 0.532-1.361 0.748-2.803 0.658-4.326 0.902-4.046 0.721-8.085-0.551-12.131z"></path>
    <path fill="#000000" d="M359.103 116.707c-1.297-3.073-1.414-3.443-2.811-5.281-0.902-1.171-1.856-2.317-2.758-3.488-0.012-0.061-0.024-0.097-0.036-0.145 0.793 1.027 1.596 2.065 2.399 3.101-0.18-0.233-0.288-0.378-0.506-0.65l-1.901-2.459c-0.049-0.252-0.126-0.504-0.18-0.765-0.252-1.171-0.632-2.289-1.045-3.407-0.109-1.542-0.226-3.083-0.306-4.623-0.061-1.262-0.085-2.532-0.171-3.803-0.233-3.785-1.090-7.047-2.911-10.381-2.207-4.039-6.336-6.444-10.771-7.038-4.263-0.577-9.463 0.532-12.383 4.055-2.226 2.695-4.181 5.227-5.102 8.732-0.352 1.335-0.577 2.723-0.856 4.073-0.496 2.478-0.946 4.965-1.379 7.455-0.686 1.469-1.335 2.956-1.758 4.543-0.049 0.18-0.109 0.359-0.152 0.549-4.525 5.705-8.293 12.266-8.022 19.728 0.217 5.966 1.064 11.381 4.192 16.546 1.549 2.55 3.064 4.47 5.155 6.263 3.136 3.119 6.832 5.272 11.085 6.462 2.299 0.459 4.606 0.765 6.932 0.918 8.833 0.604 16.737-5.227 21.306-12.219 1.342-2.065 2.181-4.804 2.92-7.165 0.891-2.783 1.243-5.912 1.316-8.831 0-0.513 0.024-1.036 0.024-1.549-0.036-3.713-0.838-7.237-2.273-10.616z"></path>
    <path fill="#000000" d="M356.52 111.703c-0.207-0.271-0.425-0.541-0.632-0.812 0.145 0.189 0.28 0.37 0.406 0.532z"></path>
    <path fill="#000000" d="M144.727 338.763c-1.072-3.298-2.911-6.154-5.507-8.57l-2.452-1.893c-0.784-2.486-1.461-5.029-2.055-7.525-0.639-2.631-1.577-5.028-2.739-7.48 0-0.061 0.012-0.061-0.109-0.459-0.18-0.893-0.478-1.776-0.712-2.659-0.902-3.497-4.074-6.047-7.562-6.526-3.839-0.513-6.867 1.316-9.076 4.353-0.46 0.639-0.919 1.28-1.37 1.929-0.207 0.233-0.425 0.469-0.632 0.694-1.82 2.065-3.362 4.163-4.524 6.658-1.461 3.164-2.723 6.426-4.011 9.67-0.496 1.017-1.235 1.901-1.801 2.892-1.884 1.622-3.561 3.461-4.786 5.733-3.362 6.372-4.578 13.436-2.685 20.52 0.061 0.244 0.126 0.485 0.189 0.73 1.641 6.128 6.489 12.825 12.187 15.835 2.108 0.884 4.218 1.775 6.327 2.667 3.523 1.109 7.049 1.262 10.563 0.478 2.397-0.008 4.623-0.611 6.686-1.812 3.29-1.063 6.129-2.892 8.535-5.479 1.379-1.785 2.757-3.578 4.137-5.362 2.399-4.127 3.605-8.589 3.623-13.374 0.024-0.253 0.049-0.506 0.061-0.758 0.145-3.668-0.622-7.083-2.289-10.266z"></path>
    </svg>