<svg xmlns="http://www.w3.org/2000/svg" viewBox="26.253 -50.537 975.114 1131.808">
    <path fill="#000000" d="M444.891 32.236c-16.3-2.773-19.348 18.9-24.207 62.405-13.559 121.387-90.139 317.196-140.342 358.86-12.991 10.781-20.228 0.796-37.991-52.495l-21.944-65.833-57.124 148.16c-45.986 119.19-57.030 161.589-56.507 217.078 0.751 79.753 30.331 150.585 87.195 208.747 32.47 33.211 106.637 81.292 127.792 82.84 3.881 0.265-0.265-27.135-9.121-60.93-8.887-33.794-13.314-74.6-9.875-90.692 8.107-37.929 114.571-245.383 126.044-245.606 4.83-0.067 8.851 27.479 8.948 61.273 0.067 33.794 4.578 68.342 9.944 76.806 15.328 24.172 59.137-90.392 71.148-186.048 5.726-45.605 12.461-84.981 14.984-87.504 8.672-8.672 88.237 95.501 118.397 155.017 43.615 86.069 55.78 178.724 37.408 285.106-8.286 47.98-13.361 89.205-11.246 91.584 9.127 10.267 128.348-89.143 169.794-141.576 56.911-71.998 73.179-131.518 66.726-244.029-5.998-104.516-47.347-203.164-126.318-301.359-57.163-71.078-69.182-66.435-70.737 27.225-0.869 52.217-2.302 55.357-13.372 29.248-56.444-133.14-85.027-177.89-155.84-244.132-57.911-54.172-87.456-81.372-103.756-84.143z"></path>
    </svg>