<svg xmlns="http://www.w3.org/2000/svg" viewBox="-19.344 -51.409 1077.700 1124.173">
    <path fill="#000000" d="M809.706 549.735c-3.184 12.038-4.764 24.33-7.612 36.425-0.932 3.919-3.214 7.555-4.397 11.391-1.099 3.607-2.509 6.595-4.793 9.614-3.381 4.425-6.682 8.795-11.023 12.178-3.128 2.423-6.145 4.736-9.669 6.682-0.026 0.026-0.037 0.026-0.074 0.037-1.099-3.75-1.718-7.725-2.368-11.728-1.44-9.051-1.298-18.41 0.593-27.403 1.552-7.527 5.018-15.648 7.922-22.751 2.594-6.316 4.877-13.194 8.259-19.144 1.607-2.846 3.919-5.046 6.006-7.499 2.706-3.214 4.792-6.822 7.301-10.177 2.962-3.976 7.274-8.965 11.954-11.982 0 0.223-0.026 0.479-0.026 0.705 0 11.221 0.817 22.723-2.060 33.634zM674.989 635.422c-1.692 4.342-1.581 10.713-6.597 13.194-3.667 1.774-10.29 0.534-14.35 0.479-6.681-0.074-9.98 2.988-16.098 4.737-5.131 1.466-7.161 0.297-8.683 6.174-2.115 8.203-1.834 17.676-2.282 26.162-0.223 4.398-2.171 8.259-2.735 12.547-0.26 2.115 1.072 4.764-0.223 6.737-1.722 2.624-5.977 2.2-8.374 2.962-1.834 0.593-3.411 1.777-5.075 2.257-4.595 1.296-7.274 2.423-11.53 4.567-4.088 2.060-9.219 2.82-13.054 5.441-2.62 1.777-2.962 4.003-5.075 6.061-2.115 2.086-5.046 2.568-7.020 4.99-6.906 8.457-6.878 31.237-21.143 31.18-15.14-0.027-19.96-7.020-19.819-21.087 0.074-10.825-1.804-21.652-7.443-30.927-2.509-4.087-6.399-7.526-9.867-11.193-4.313-4.567-7.584-3.637-13.588-3.637-5.78 0-11.136-0.564-16.154 2.988-5.724 4.003-8.261 12.038-12.857 17.394-6.849 8.063-19.227 24.81-30.137 15.169-7.641-6.711-7.443-17.254-11.333-25.796-4.087-8.965-3.778-19.283-8.626-28.276-3.074-5.752-5.837-10.798-11.221-13.673-4.117-2.171-7.245-1.722-11.728-2.962-2.424-0.675-3.468-1.807-6.71-1.944-2.452-0.112-4.962 0.026-7.443 0.026-4.792 0-10.092 0.65-14.829 0.074-11.107-1.355-12.234-11.221-16.069-19.734-4.68-10.431-2.396-24.16-2.481-35.409-0.119-18.522 2.594-36.537 14.661-51.225 4.623-5.639 12.855-11.446 18.719-15.873 4.906-3.721 10.036-7.076 14.632-11.362 8.655-8.12 15.76-18.043 24.188-26.444 5.329-5.3 10.488-11.107 15.646-16.803 4.23-4.652 5.047-9.276 7.274-14.829 2.453-6.118 3.806-9.218 3.779-15.956-0.037-5.808-0.037-11.616 0-17.423 0.026-5.752-1.522-8.57-2.564-13.505-0.957-4.425 0.074-10.345 0.074-14.913 0-3.102 0-6.202 0-9.332-0.186-1.436-0.26-2.902-0.037-4.342 0.026-0.037 0.037-0.074 0.037-0.148 0-0.76 0.027-1.492 0-2.253-0.026-2.509-0.112-4.483 0.564-6.88 0.593-2.115 2.735-2.338 1.919-5.497l0.223 1.747c0.074-0.394 0.112-0.787 0.26-1.184 0.423-1.184 3.299-4.258 3.919-5.497 1.298-2.594 1.269-3.892 2.988-6.202 2.676-3.637 6.258-5.781 9.98-8.007 4.002-2.368 7.329-4.313 11.699-6.174 2.115-0.902 3.017-1.243 5.554-1.859 1.522-0.397 4.285-1.692 5.469-1.944 5.835-1.184 27.572-3.441 31.97 0.847-0.76-0.79-1.718 6.145-2.846 6.033 3.299-0.928 9.219 2.932 12.377 3.722 4.342 1.072 8.682 1.213 13.588 1.239 10.29 0 20.608 0.037 30.898 0 5.639-0.037 10.995 0.394 16.154 2.423 2.735 1.099 2.624 1.974 5.075 3.496 1.889 1.184 4.228 1.355 6.061 2.624 9.022 6.202 4.85 27.007 4.85 36.002 0 12.713-1.889 27.205 1.213 39.497 3.721 14.772 12.771 18.521 26.106 24.16 9.078 3.862 18.24 3.299 26.049 10.346 8.965 8.091 10.939 15.167 10.911 27.234-0.026 11.841-0.371 22.187-5.215 33.040-4.285 9.501-12.884 9.051-21.989 9.051-5.329 0-10.713 0.148-16.071 0.026-5.327-0.112-9.472-2.423-14.828-2.539-11.785-0.26-23.091-1.552-31.012 8.711-6.427 8.288 0.186 22.582 6.597 29.348 3.381 3.581 8.43 10.318 13.222 11.587 4.144 1.099 10.543-0.186 14.913-0.186 5.358 0 10.713 0 16.042 0 6.089-0.026 10.262 1.154 16.069 2.257 3.214 0.593 6.964-0.705 10.036 0.112 2.141 0.564 2.765 2.282 4.68 3.269 4.031 2.030 7.949 2.001 10.685 6.062 5.385 7.922 1.184 20.975-1.974 29.009zM346.352 231.225c-6.739-7.359-13.73-14.35-20.609-21.539-5.722-5.977-10.036-13.053-16.181-18.635-0.704-0.62-1.354-1.325-2.058-1.974 4.427 0.957 8.542 1.637 13.251 1.552 8.091-0.112 16.323-0.593 24.274 0.902 5.441 1.042 11.22-0.735 16.633 0.223 2.537 0.453 6.653 2.594 7.414 5.018 0.931 2.876 0.252 9.135-0.958 11.813-1.889 4.313-3.299 8.936-5.695 13.025-2.904 4.962-5.554 9.81-7.78 15.111-0.282 0.65-0.479 1.296-0.706 1.944-2.621-2.397-5.187-4.85-7.582-7.443zM396.788 243.033c3.411-3.75 6.849-7.217 10.008-11.137 3.891-4.821 9.359-7.555 13.673-11.868 5.243-5.301 9.98-10.6 15.985-15.083 0.872-0.65 1.662-1.325 2.509-1.944 0.148 0.847 0.297 1.692 0.397 2.568 0.675 4.849-0.074 9.726 0.504 14.602 0.705 5.527 0.961 10.77 0.932 16.352-0.026 6.907 0.705 14.096-0.186 20.947-0.76 5.722-2.932 13.532-6.795 18.098-1.351 1.577-1.522 1.072-3.721 1.154-2.594 0.148-4.962 0.735-7.499 1.239-3.891 0.79-7.499 1.269-11.475 1.213-1.944 0-3.833 0.148-5.808 0.186-4.087 0.074-7.132-2.030-10.402-4.313-4.904-3.411-9.275-7.273-13.559-11.332 4.398-7.189 9.895-14.548 15.421-20.665zM403.171 163.746c4.2-3.581 8.034-7.809 12.799-10.573 5.357-3.098 12.264-5.891 18.804-7.245-0.026 6.878-0.026 13.73 0.371 20.581-3.098 1.239-6.202 2.509-9.359 3.637-3.326 1.154-5.272 3.299-8.965 3.721-3.806 0.453-7.724 3.214-11.699 2.509-2.058-0.371-7.499-2.453-7.555-4.905-0.052-2.706 3.777-6.174 5.61-7.724zM271.123 604.416c-1.635 2.876-3.665 4.737-5.891 6.26-3.299-5.724-5.329-11.644-8.149-17.733-3.89-8.486-8.796-17.141-11.107-26.247-2.17-8.57-4.144-16.943-5.3-25.683-0.621-4.568-1.41-9.051-2.283-13.534 6.456 6.879 12.376 14.294 16.942 22.244 6.767 11.728 14.152 22.497 15.929 36.255 0.817 6.512 3.355 12.404-0.141 18.437zM240.592 616.652c-3.101-0.027-6.231-0.074-9.332-0.112-0.337-2.227-0.93-4.483-1.24-6.371-0.535-3.158-1.071-5.61-1.043-8.852 0.026-3.667 0-7.33 0-10.996 0-3.777-0.252-6.54 2.707-9.275 3.441-3.187 5.583-0.479 6.597 3.299 1.552 5.808 2.651 11.954 4.286 17.845 1.409 5.047 4.058 7.641 6.539 12.151 0.479 0.876 0.875 1.607 1.268 2.282-3.242 0.297-6.595 0.027-9.782 0.027zM205.295 504.503c-2.368 1.381-6.878 4.426-9.896 3.325-2.367-0.847-3.298-4.51-4.229-6.624-1.945-4.313-5.947-8.203-7.443-12.574-0.506-1.466-1.099-2.876-1.662-4.313 7.301 5.018 15.365 8.288 22.751 13.109 1.409 0.902 2.649 2.060 3.89 3.214-0.648 1.522-1.635 2.846-3.411 3.862zM203.801 619.329c-5.722 0.534-11.305 1.834-16.661 3.89-0.817-5.3-2.593-10.627-4.793-15.702 0.052-3.325-0.052-6.653-0.052-10.008 0.026-7.641 0-15.308 0-22.949 0-2.962-0.052-5.949-0.119-8.937 0.704-7.584 1.268-15.167 1.664-22.751 0.902-2.564 2.565-4.145 5.666-5.018 2.481-0.705 4.144-0.423 5.947 1.184 3.157 2.846 3.326 5.78 3.863 9.642 0.648 4.737 2.086 9.022 2.17 13.813 0.119 9.107-0.818 18.324 0.902 27.291 1.183 6.316-1.1 13.251 0.197 19.509 0.451 2.141 1.211 3.329 1.268 5.554 0.026 1.466-0.026 2.962-0.052 4.483zM976.917 349.501c0-6.118 1.41-12.095-5.075-15.025-2.594-1.213-5.3-1.184-8.034-1.747-1.692-0.371-3.299-1.128-5.075-0.847-2.932 0.479-6.71 3.522-9.105 5.075-3.102 2.001-6.457 3.581-9.53 5.61-1.41 0.928-2.257 2.282-3.805 3.102-1.495 0.79-3.384 0.928-4.877 1.637-3.214 1.466-4.934 4.652-8.288 5.835-3.355 1.154-7.048 1.777-10.29 3.325-2.761 1.325-4.624 3.581-7.724 4.145-2.368 0.449-5.018 0.787-7.443 1.128-6.343 0.932-12.461 2.282-18.804 0.037-2.423-0.847-4.399-2.988-6.795-3.581-2.761-0.675-4.060 0.371-6.682-1.128-2.902-1.637-5.581-4.285-8.147-6.372-2.649-2.141-6.287-4.877-8.288-7.555-2.82-3.806-4.060-10.911-4.764-15.506-1.013-6.766-0.705-14.575 2.876-20.354 3.947-6.399 8.965-12.123 13.73-17.931 3.017-3.693 6.485-6.737 9.051-10.741 2.932-4.539 5.722-9.106 8.739-13.617 5.075-7.555 8.261-16.069 13.956-23.089 3.299-4.060 4.539-9.529 7.189-13.984 0.987-1.692 1.889-3.355 2.791-5.018-2.086-2.453-4.173-4.905-6.345-7.189-3.411-0.479-6.878-1.072-10.572-1.974-0.074-0.026-0.186-0.037-0.297-0.074-1.637 2.368-3.214 4.793-4.935 7.105-8.653 11.615-18.832 22.356-26.753 34.507-2.962 4.51-6.287 8.513-9.586 12.742-1.804 2.368-2.988 4.624-4.483 7.105-1.747 2.932-3.946 4.087-6.287 6.343-3.24 3.102-4.848 7.162-8.372 10.065-2.988 2.423-5.047 5.327-7.724 8.034-2.397 2.453-5.469 4.229-8.317 6.145-4.313 2.932-8.176 6.316-12.376 9.359-4.792 3.441-9.417 7.247-14.209 10.742-5.808 4.2-12.968 5.835-19.537 8.429-3.441 1.355-7.303 1.495-10.967 2.086-1.692 0.297-3.975 0.675-5.695 0.394-3.693-0.62-6.258-3.607-9.782-4.708-4.51-1.381-6.907-2.338-8.965-7.047-2.735-6.287-6.231-13.166-6.597-20.129-0.186-3.611-0.037-7.076 1.184-10.459 1.325-3.581 3.411-5.556 5.468-8.542 2.086-2.962 3.384-6.399 5.414-9.417 1.692-2.564 3.581-3.777 5.694-5.891 4.539-4.539 8.964-10.234 10.543-16.55 0.735-2.988 0.76-5.835 0-8.851-1.184-4.568-2.368-3.637-6.371-4.201-2.423-0.371-4.765-1.974-7.246-1.099-2.030 0.705-4.312 3.75-5.779 5.3-4.51 4.792-6.203 11.897-10.713 16.802-4.229 4.624-6.399 10.826-10.713 15.252-2.594 2.649-5.497 4.285-7.753 7.357-1.213 1.692-2.368 3.722-4.285 4.764-2.141 1.154-5.412 0.932-7.837 1.834-2.257 0.817-7.697 2.393-10.036 1.042-2.171-1.213-4.427-5.074-5.949-6.993-5.329-6.71-7.753-14.067-7.809-22.666-0.037-8.739 2.030-19.733-2.253-27.741-1.834-3.441-5.527-6.006-8.599-8.317-3.269-2.453-6.626-2.649-10.459-3.833-4.765-1.495-7.528-3.269-7.416-8.57 0.223-8.994-1.662-17.706-1.239-26.812 0.186-3.862 2.423-6.993 2.564-10.911 0.186-4.821 0.26-10.036-0.334-14.829-0.479-3.919-1.213-8.401-3.581-11.672-1.944-2.676-4.877-7.047-8.401-7.301-4.257-0.297-6.145 4.060-7.866 7.105-2.141 3.806-3.891 7.414-4.792 11.728-1.637 7.697-4.031 15.675-3.833 23.568 0.148 5.666-2.312 10.798-2.397 16.379-0.026 2.368 0.297 4.060-1.128 6.062-1.834 2.624-4.257 5.16-7.245 6.343-4.342 1.718-9.051-0.26-11.954-3.805-2.197-2.679-3.325-6.597-4.792-9.698-2.342-4.877-4.145-9.952-6.006-15.025-1.436-4.003-3.581-7.753-4.821-11.87-1.466-4.737-1.944-9.472-3.611-14.181-1.466-4.116-1.213-8.542-2.312-12.771-1.325-5.186-2.171-10.009-4.201-14.998-3.607-8.937-8.232-17.366-15.167-24.274-4.003-4.003-8.767-6.428-11.53-11.53-2.312-4.229-4.709-8.797-6.231-13.363-2.624-7.978-8.515-14.321-11.277-22.131-1.577-4.399-3.892-6.316-6.485-10.375-2.453-3.89-2.649-7.047-2.594-11.502v-0.186c-21.652-9.416-54.354-8.825-66.279 9.473-0.394 4.2-0.957 8.428-1.637 12.432-0.394 2.227-0.037 4.258-0.186 6.456-0.26 3.269-1.607 6.456-2.197 9.642-0.423 2.312-0.186 4.51-0.223 6.878-0.037 2.282-0.902 3.834-1.296 6.006-0.59 3.299 0.037 7.387 0.037 10.741v28.221c-6.964 4.454-14.067 8.908-21.82 11.557-5.018 1.718-10.46 2.962-15.281 5.047-5.046 2.2-10.092 4.173-15.279 6.033-4.933 1.804-9.895 3.581-14.661 5.752-5.637 2.539-10.741 1.747-16.746 2.624-9.331 1.381-19.198 0.62-28.642 0.62-8.797 0-17.592-0.112-26.388 0-3.919 0.027-7.526-1.128-11.389-1.239-1.72-0.037-3.326 0.223-5.047-0.186-1.212-0.297-2.312-0.79-3.412-1.269-2.565-2.988-5.158-5.977-7.639-9.022-3.524-4.285-7.641-6.343-11.982-9.501-1.945-1.436-3.383-3.214-5.497-4.37-2.087-1.154-4.173-1.381-6.457-2.001-2.339-0.65-5.356-2.594-7.865-2.453-8.769 0.423-1.806 14.463-0.537 18.127 2.17 6.231 4.117 11.079 9.444 15.394 2.932 2.368 6.399 3.441 9.078 6.118 2.227 2.197 6.795 6.174 8.288 8.851 1.156 2.115 1.354 4.878-0.592 6.739-2.312 2.227-7.357 3.102-10.346 2.312-5.893-1.522-10.149-9.896-14.152-13.87-5.357-5.356-10.854-10.036-16.577-14.971-4.539-3.946-8.853-10.289-15.14-11.699-2.227-0.479-12.32-3.073-14.123-0.932-1.522 1.804 0.312 7.105 0.846 8.88 2.875 9.361 7.414 18.353 12.603 26.642 4.989 7.978 12.151 14.717 17.592 22.441 5.102 7.245 9.669 14.744 14.265 22.328 5.187 8.542 9.134 17.253 12.911 26.528 4.117 10.065 8.317 19.65 11.052 30.194 1.635 6.37 4.539 12.349 5.75 18.803 0.846 4.567 1.552 9.19 2.368 13.757 0.621 3.611 0.197 7.359 0.252 10.996 0.093 5.131-1.212 8.457-3.608 12.94-2.678 4.962-5.527 7.696-10.995 9.275-8.74 2.539-17.085-2.141-24.978-4.877-4.088-1.436-7.922-3.24-12.123-4.454-5.722-1.662-11.841-2.82-17.197-5.583-9.218-4.708-17.226-11.587-26.614-15.929-4.51-2.086-6.935-4.792-12.038-6.033-6.681-1.581-12.713-3.047-18.211-7.387-5.103-4.031-10.573-8.372-15.083-13.053-3.383-3.526-5.977-7.105-9.952-10.009-5.188-3.833-10.883-7.018-16.55-10.036-2.875-1.522-7.47-3.918-10.853-2.423-4.68 2.086-4.624 10.628-2.453 14.152 2.424 3.92 7.274 6.711 10.657 9.671 4.933 4.285 8.007 9.161 12.066 14.18 5.301 6.512 12.236 11.587 17.62 18.043 6.147 7.274 12.292 14.096 18.804 21.031 4.257 4.539 8.909 10.009 12.603 15.027 3.016 4.087 3.862 7.526 3.665 12.488-0.171 4.031-0.648 6.795-4.906 7.809-6.089 1.41-12.263-1.804-17.197-4.764-6.71-4.003-13.251-6.739-20.412-9.669-6.033-2.453-11.023-6.343-16.887-8.965-4.848-2.2-9.81-2.679-14.969-3.693-6.512-1.298-12.742-4.060-19.283-5.103-3.299-0.534-5.554-1.072-7.049 2.227-3.073 6.767 1.043 11.391 3.581 17.395 2.368 5.639 2.876 11.615 6.089 16.858 1.522 2.482 3.553 4.596 5.216 6.964 2.283 3.184 4.088 6.597 6.231 9.867 4.85 7.387 12.546 12.488 18.212 19.227 6.682 7.893 14.096 14.040 21.82 20.918 0.093 0.074 0.171 0.186 0.282 0.26 2.763 6.231 5.468 12.574 7.414 19.086 2.058 6.993 5.16 13.251 7.922 19.988 2.96 7.245 5.695 15.872 5.92 23.737 0.367 12.404 3.524 24.386 5.131 36.679 0.958 7.526 1.72 15.082 2.537 22.61-1.014 11.277-2.255 22.553-3.975 33.774-1.662 10.741-10.065 31.095-7.020 44.994-3.439 0.731-6.907 1.41-10.346 1.774-3.242 0.334-6.231 0.112-9.444 0.186-4.652 0.074-8.175 1.296-12.601 2.509-7.33 1.974-16.86 0.334-20.581 8.711-1.183 2.709-1.635 5.413-3.326 7.951-0.677 1.013-1.833 1.859-2.424 2.902-0.564 0.987-1.268 4.85-1.24 5.329 0.078 2.338 0.479 1.637 1.55 3.325 1.014 1.607 1.972 4.539 3.186 5.947 1.466 1.692 3.666 1.807 5.497 2.735 2.537 1.243 4.003 3.834 6.231 5.385 2.707 1.859 5.103 1.637 8.232 2.2 6.485 1.099 9.896 7.047 16.042 8.682 5.977 1.577 12.405 0.65 18.522 1.804 5.581 1.072 11.023 0.538 16.521 1.385 3.128 0.449 5.92 1.747 8.992 2.539 4.003 1.042 8.232 0.675 12.122 2.197 4.596 1.804 8.007 5.329 12.461 7.218 3.045 1.269 7.866 2.282 9.98 4.962 2.707 3.441 3.214 7.245 2.537 11.502-0.76 5.131-3.75 13.391-6.878 17.451-2.339 3.073-5.639 4.596-8.852 6.626-2.932 1.804-5.272 4.087-7.67 6.568-3.89 4.031-9.359 8.007-11.868 13.109-1.522 3.102-2.424 5.611-0.423 8.853 2.734 4.454 6.483 8.599 9.613 12.799 6.399 8.599 12.967 11.391 23.089 13.166 9.641 1.692 19.283 3.184 28.953 4.708 7.951 1.269 17.112 1.915 24.865 4.229 5.893 1.747 10.713 6.343 13.759 11.812 4.454 7.978 0.535 16.492-5.893 22.158-5.554 4.877-12.179 10.234-18.636 13.898-4.285 2.397-9.839 3.466-13.701 6.118-5.78 3.947-9.952 13.758-10.798 20.299-0.902 6.793 2.707 12.967 7.218 17.788 3.128 3.299 5.947 3.667 9.895 4.822 5.103 1.466 9.134 3.411 13.984 5.441 11.474 4.85 26.501 5.779 38.99 6.568 3.947 0.26 7.697-0.449 11.559-1.213 5.243-1.042 10.375-1.042 15.675-1.325 11.559-0.62 22.045-6.456 33.323-8.513 12.376-2.257 25.176-0.593 37.664-2.846 13.419-2.397 26.924-6.118 39.949-10.121 4.708-1.436 9.36-3.355 14.152-4.623 8.345-2.141 18.324-1.804 26.839-2.286 10.291-0.59 20.975-0.223 31.040 2.312 6.682 1.692 12.095 5.808 17.761 9.388 7.274 4.652 14.913 9.049 22.018 13.955 11.7 8.034 19.735 19.735 31.265 27.882 3.693 2.624 7.641 4.849 11.221 7.612 6.878 5.301 12.376 12.461 18.832 18.241 3.862 3.496 7.809 6.991 11.812 10.487 6.118 1.834 12.292 3.244 18.719 3.778 13.166 1.072 31.998-0.037 33.239-13.786 0.79-8.993-13.73-26.247-17.62-33.944-9.642-19.086-17.254-39.779-8.88-60.726 4.483-11.107 14.152-17.902 26.389-14.998 24.555 5.837 42.682 20.017 63.545 33.408 11.755 7.555 23.512 13.532 37.693 14.913 4.764 0.479 11.982 0.705 16.605-0.449 24.357-6.035 9.669-5.556 10.798-17.677 1.747-18.41 0.074-31.604 18.521-43.022 14.829-9.19 32.788-7.33 49.252-9.669 45.248-6.512 11.051-48.097-3.299-69.888-9.472-14.378-20.496-33.436-11.953-50.802 1.522-3.102 3.384-5.582 5.441-7.782 0.932-8.034 1.637-16.633 0.397-24.385-2.735-3.187-5.611-6.26-8.515-9.247-5.779-5.921-7.978-8.317-12.686-11.080-3.128-1.834-5.412-4.059-7.076-6.485-2.932-0.76-5.92-1.41-8.824-2.312-0.148-1.637-0.186-3.269-0.186-4.85 0.074-8.851 0.027-17.705 0.027-26.557 0-4.369-0.423-9.021 0.112-13.363 0.479-4.087 2.115-7.978 3.184-11.953 1.239-4.51 3.047-8.853 4.173-13.363 0.79-3.214 2.397-6.259 3.102-9.501 0.62-2.706 0.371-4.596 1.355-7.301 1.859-5.215 3.214-10.515 4.792-15.817 1.637-5.525 3.92-10.741 5.527-16.267 1.944-6.682 4.257-13.476 6.456-20.073 2.030-6.118 4.285-12.517 7.218-18.24 5.047-9.867 9.106-20.158 14.35-29.94 2.539-4.68 4.539-9.642 7.132-14.321 0.902-1.637 2.171-3.187 3.384-4.737 2.679-1.607 5.243-3.466 8.12-4.708 4.369-1.889 8.259-2.115 12.376-4.822 4.229-2.761 9.276-4.481 13.307-7.441 1.859-1.385 3.325-3.269 4.962-4.878 2.988-2.962 6.089-4.933 9.472-7.301 3.441-2.453 7.048-4.51 10.657-6.766 3.975-2.482 6.682-4.99 10.092-8.063 7.245-6.428 13.955-13.588 20.835-20.382 4.792-4.764 8.259-11.813 10.12-18.184 2.286-7.866 0.847-17.31 0.847-25.486z"></path>
    <path fill="#000000" d="M540.308 557.63c-2.482-3.384-4.538-5.498-5.018-9.811-0.534-4.878-1.834-7.809-2.453-12.377-0.334-2.564 1.722-10.543-0.371-12.094-4.596-3.441-6.089 6.457-7.527 8.965-1.804 3.073-4.624 9.838-8.88 7.641-1.436-0.76-2.706-8.232-2.932-9.388-0.705-3.299-0.564-13.505-7.555-9.698-3.384 1.863-1.804 4.286-2.342 7.162-0.59 3.24-1.692 4.257-2.564 7.218-0.534 1.915 1.017 3.158-0.297 5.272-2.115 3.441-6.174 2.282-9.501 2.253-5.92-0.026-9.755-0.987-11.897-7.33-1.552-4.652 0.26-9.669-1.042-14.348-1.099-3.92-6.006-8.43-9.867-9.952-9.106-3.522-22.328-4.85-31.659-1.099-6.202 2.509-7.895 3.555-10.432 9.952-0.931 2.423-1.522 2.338-1.945 5.441-0.337 2.82 1.156 5.468-1.352 7.668 0.337-0.037 0.733-0.112 3.89-1.099 0.026 7.753-0.958 15.619-0.052 23.203 1.129 9.444 11.531 12.376 19.848 12.32 4.934-0.037 9.895-0.074 14.829-0.026 4.764 0.074 5.864-1.662 9.755-2.594 11.841-2.817 20.073 3.637 19.904 14.998-0.112 8.853 0.297 16.887-2.453 24.697-1.436 4.060-2.423 7.724-2.453 12.376-0.037 6.964-0.297 8.149 5.525 5.527 7.245-3.24 11.588-9.022 16.098-15.477 1.859-2.706 3.891-4.708 5.527-7.387 2.676-4.342 2.962-7.162 7.443-9.867 2.817-1.692 7.582-3.833 10.403-4.398 4.905-0.957 5.158 0.037 9.247 1.915 4.256 1.944 8.288 3.637 12.349 5.639 3.806 1.889 10.685 6.343 12.686 1.944 2.932-6.513-4.173-17.958-8.176-22.385-5.469-6.089-12.038-8.401-16.746-14.857z"></path>
    <path fill="#000000" d="M771.347 204.635c0.26-1.042 0.534-2.115 0.79-3.158 0.902-0.902 1.777-1.974 2.564-3.184 7.103-10.938 12.574-22.722 16.803-35.071 3.918-11.53-6.287-21.397-16.915-22.187-27.94-2.141-32.168 34.761-37.045 54.269-5.469 21.906 28.334 31.237 33.802 9.332z"></path>
    <path fill="#000000" d="M642.792 126.597c6.568-0.297 13.194-4.312 16.069-10.262 1.495-1.804 2.679-3.919 3.384-6.343 2.115-6.993 3.466-14.717 2.988-22.018-0.675-10.713-8.628-21.566-20.382-21.031-12.349 0.534-19.256 10.402-19.989 21.933-0.423 6.682-0.026 13.505 0.397 20.185 0.62 9.134 7.639 17.987 17.535 17.535z"></path>
    <path fill="#000000" d="M934.632 136.2c0.593-1.522 1.154-3.073 1.662-4.624 0.037-0.027 0.074-0.027 0.112-0.037 0.564-0.534 0.987-1.128 1.466-1.692 0.371-0.074 0.675-0.186 0.957-0.371-1.099 2.423-2.509 4.68-4.2 6.739zM927.919 126.289c0.735 0.564 1.637 0.76 2.62 0.65-1.069 3.526-2.312 7.020-3.805 10.432 0-3.722 0.371-7.416 1.184-11.080zM922.307 149.38c0.847 1.577 2.962 2.479 4.933 1.552 9.586-4.481 16.605-12.799 19.706-22.92 2.453-8.005 3.269-21.368-2.962-28.022-7.414-7.922-15.14 5.525-17.959 11.051-5.779 11.278-7.357 23.541-5.554 36.002 0.186 1.325 0.932 2.030 1.834 2.338z"></path>
    <path fill="#000000" d="M143.613 214.122l20.75 17.168c1.747 1.919 3.439 3.892 5.102 5.893-0.985 5.074 0.762 10.741 6.287 14.661 1.749 1.213 3.468 2.453 5.216 3.663 1.522 1.072 3.073 1.637 4.596 1.944 1.072 2.679 2.143 5.356 3.101 8.063 3.101 8.513 10.995 11.051 17.507 9.19 0.252 0.479 0.537 0.957 0.789 1.466 2.058 4.003 8.12 0.479 6.062-3.551l-0.078-0.186c0.704-0.76 1.042-1.777 0.704-2.902 2.086-2.902 3.101-6.795 2.086-11.502-1.014-4.652-2.79-8.796-4.877-12.772-5.243-13.024-11.193-25.767-18.099-38.031-7.808-13.842-17.507-34.225-33.013-40.793-6.287-2.679-13.419-2.594-19.508-0.148-8.74-3.892-17-2.257-23.963 8.176-12.207 18.296 12.884 31.152 27.347 39.637z"></path>
    <path fill="#000000" d="M918.726 746.387c0.026-0.074 0.026-0.148 0.037-0.223 0.449 0.453-0.148 1.042-0.037 0.223zM930.144 720.535c-10.657-5.554-23.823-4.68-33.746-11.502-2.453-1.662-4.878-2.338-7.132-2.368-5.074-1.915-11.531-0.423-15.252 3.214-5.864 5.752-4.737 13.984 0 19.848 8.936 10.995 18.803 22.131 31.744 28.53 11.812 5.808 30.447 9.812 38.539-3.862 7.724-13.109-2.397-27.741-14.152-33.859z"></path>
    </svg>