<svg xmlns="http://www.w3.org/2000/svg" viewBox="11.621 -16.905 995.758 1057.371">
    <path fill="#000000" d="M909.336 714.478c-0.16-11.79-10.353-20.115-8.165-31.712 0.52-2.737 0.34-7.623 1.345-10.012 1.207-2.891 5.481-3.727 6.541-7.522 1.607-5.798-4.631-16.003-6.533-21.066-2.931-7.8-6.958-15.253-8.868-23.401-0.88-3.711-1.021-7.902-2.807-11.364-3.588-6.974-12.673-12.601-18.347-17.813-9.571-8.789-18.703-16.675-26.674-27.011-3.913-5.073-7.623-8.991-12.85-12.524-4.383-2.961-9.331-7.273-14.675-8.125-10.205-3.247-17.125-11.085-23.967-19.767-2.607-3.31-4.523-4.839-7.978-6.981-6.549-4.035-14.45-5.257-21.563-8.673-5.212-2.499-8.992-6.168-14.698-7.862-4.299-1.283-8.651-1.8-13.013-2.728-10.847-2.304-24.609-3.773-35.348 0.393-11.419 4.437-19.305 15.074-30.894 19.42-9.998 3.733-22.979 0.471-33.88 2.807-11.488 2.451-21.286 8.589-32.433 11.95-13.933 4.198-24.703 10.909-36.725 18.763-6.418 4.198-12.363 9.933-19.985 10.924-4.608 0.595-8.784 0.625-11.721 4.902-2.135 3.085-1.708 6.811-2.458 10.297-1.253 5.915-3.402 11.897-5.18 17.689-4.353 14.257-11.14 29.354-12.401 44.205-0.819 9.586 1.198 17.371-4.555 25.813-5.66 8.318-14.605 14.202-21.153 22.057-5.566 6.671-6.209 12.145-6.232 20.564-0.020 5.691 0.71 10.367 1.785 15.918 0.819 4.181-0.239 8.248 0.533 12.314 0.965 5.087 5.489 8.079 7.584 12.624 1.407 3.038 1.377 5.805 1.485 9.037 0.311 9.493 7.175 15.384 6.928 25.055-0.105 3.703-0.634 7.855-0.16 11.534 0.34 2.659 1.731 3.533 2.135 5.659 0.471 2.483-0.549 5.404 0.026 7.824 0.835 3.448 3.626 4.491 5.822 7.127 4.956 5.915 10.676 14.882 12.981 22.079 3.588 11.233 10.167 23.835 18.193 32.663 9.301 10.235 19.289 23.177 33.616 24.521 8.659 0.811 16.422-0.549 24.966 1.979 9.062 2.691 18.222 6.168 26.001 11.557 7.786 5.396 13.7 12.81 20.597 19.227 6.921 6.456 16.106 12.33 24.594 16.768 3.974 2.064 8.699 3.023 12.517 5.365 3.712 2.273 6.394 6.216 10.113 8.443 4.949 2.969 10.283 2.653 15.803 2.536 13.469-0.287 26.99-0.16 40.459-0.021 7.593 0.053 15.208 0.556 22.467-2.133 5.837-2.179 9.943-5.954 15.061-9.239 5.93-3.796 13.585-4.754 18.834-9.385 5.613-4.94 6.858-13.722 11.659-19.705 9.309-11.62 20.405-18.145 32.689-25.921 5.628-3.572 9.015-8.064 13.515-12.741 4.501-4.685 10.6-7.383 15.162-11.982 10.283-10.36 16.677-21.956 22.932-34.959 3.3-6.841 5.76-12.787 6.633-20.355 0.88-7.568 2.922-14.063 4.33-21.453 2.333-12.16-1.631-24.268-1.95-36.342-0.356-13.761-1.901-27.352-2.094-41.212z"></path>
    <path fill="#000000" d="M197.275 81.213c5.799 6.54 12.401 10.984 18.633 17.224 3.843 3.843 8.72 7.831 11.086 12.693 3.951 8.094 11.226 12.693 18.487 18.46 8.011 6.37 13.052 15.701 19.407 23.596 3.363 4.165 7.754 7.235 11.048 11.363 5.373 6.718 10.182 13.003 16.106 19.397 5.504 5.944 11.226 10.946 17.017 16.537 5.799 5.596 10.26 12.593 15.851 18.422 16.885 17.61 36.090 31.927 53.532 48.835 24.663 23.911 51.94 45.031 76.194 69.406 26.473 26.601 56.046 49.439 83.437 74.958 12.812 11.929 26.404 22.805 39.669 34.194 3.718 3.185 7.863 8.309 11.583 10.931 0.651 0.455 1.941 0.026 2.598 0.441 2.883 1.8 5.018 3.888 7.931 6.153 5.32 4.128 19.368 10.885 26.52 9.81 2.434-0.363 2.527-1.482 4.506-2.414 3.697-1.731 7.663-3.077 11.504-4.592 9.177-3.604 13.816-0.053 22.476 0.053 7.477 0.105 8.513 2.382 14.783 6.285 4.647 2.883 12.818 4.391 18.178 2.389 2.575-0.965 4.352-4.283 6.818-5.397 5.212-2.366 15.015-2.304 29.558 8.063 0.625-0.133 1.253-0.265 1.888-0.387 0.759-2.568 0.772-6.060 0.432-8.752-0.455-3.61-0.896-2.536-2.163-4.832-4.64-8.48-10.446-15.655-19.313-20.124-10.082-5.088-20.704-9.525-30.91-14.024-5.505-2.427-7.739-7.861-12.788-11.039-4.616-2.906-10.175-4.075-14.621-7.268-5.551-3.989-9.302-7.583-15.564-10.684-6.247-3.092-11.242-7.428-16.715-11.604-14.041-10.706-30.447-17.031-44.88-27.227-16.639-11.751-32.543-24.059-48.013-37.308-11.173-9.57-22.461-19.080-33.927-28.302-7.514-6.045-16.313-9.585-23.92-15.422-17.983-13.799-34.305-29.517-51.833-43.918-16.127-13.243-29.533-28.743-47.919-38.761-4.384-2.389-8.188-6.014-12.061-9.247-9.271-7.747-19.005-13.622-28.8-20.526-17.768-12.516-34.413-26.469-51.090-40.416-12.471-10.429-24.262-21.931-37.723-31.070-9.154-6.216-21.115-16.088-31.876-19.019-2.97-0.804-5.018-0.105-7.979-1.771-2.025-1.142-3.688-3.006-5.675-4.306-5.142-3.354-12.549-2.946-17.203-6.702 5.544 4.854 10.863 10.414 15.734 15.903z"></path>
    <path fill="#000000" d="M518.626 525.746c7.514-0.133 10.182 0.766 15.865-3.255 7.23-5.11 11.444-11.72 17.381-17.85 3.295-3.409 2.676-6.061 2.73-10.707 0.053-6.323-0.441-6.942-6.82-6.818-4.53 0.105-9.084-0.007-13.631-0.007 2.002-17.039-3.913-19.768-7.87-20.517-1.933-0.371-3.803 0.488-5.768-0.271-2.513-0.965-4.77-4.291-6.936-6.038-3.843-3.108-7.539-6.022-11.134-9.494-2.831-2.728-6.797-4.932-9.324-7.877-2.676-3.1-3.487-8.040-6.712-10.691-3.897-3.2-13.631-3.486-18.232-1.655-2.512 0.998-6.911 5.597-9.201 7.289-2.821 2.087-3.045 0.605-4.545 3.696-2.002 4.106 1.005 14.541 3.007 17.951 3.339 5.675 8.938 11.891 13.090 16.907 7.777 9.408 15.587 17.325 21.841 27.761 3.449 5.76 7.492 9.989 12.239 14.781 5.218 5.287 6.712 6.926 14.018 6.796z"></path>
    <path fill="#000000" d="M129.526 77.589c1.516 1.668 2.97 3.386 4.361 5.157 0.479 1.437 0.534 2.891 0.177 4.368 0.951 2.536 0.226 2.543 2.010 4.893 2.419 3.2 6.904 6.563 9.857 9.331 2.985 2.791 8.93 4.948 10.708 8.519 1.043 2.103-0.271 4.8 0.379 7.097 1.337 4.669 6.595 8.96 9.115 12.971 1.561 2.483 2.643 5.148 4.182 7.646 3.115 5.079 6.703 11.263 10.522 15.701 4.523 5.264 10.136 9.625 14.627 15.074 4.809 5.845 10.291 11.224 15.764 16.451 8.807 8.389 17.613 14.82 24.091 24.846 6.766 10.467 17.735 19.272 26.047 28.636 10.901 12.285 22.925 24.049 34.615 35.678 12.292 12.222 23.728 25.728 36.245 37.625 12.325 11.712 26.975 21.353 40.003 32.322 9.688 8.155 18.996 16.9 28.298 25.45 7.987 7.336 14.651 16.814 24.054 22.458 5.018 3.008 9.849 8.141 15.208 10.166 5.821 2.196 13.013 1.715 18.137-2.079 3.828-2.821 4.864-6.856-1.069-8.248-6.818-1.655-6.093-6.402-6.712-10.259-0.719-4.445-5.087-5.381-5.103-9.764-9.896-0.455-18.053-16.822-24.438-23.107-14.751-14.518-29.302-29.253-43.945-43.879-15.787-15.786-31.753-31.589-48.801-46.029-17.774-15.059-35.48-29.817-50.247-47.961-12.379-15.214-29.101-26.13-43.397-39.365-14.931-13.814-30.779-26.378-46.087-39.712-8.326-7.252-17.256-15.337-24.060-24.097-6.386-8.218-13.685-14.232-21.021-21.592-5.953-5.969-11.598-13.769-18.222-18.956-2.938-2.304-4.347-3.835-8.411-2.333 4.623 4.214 8.992 8.233 13.111 12.996z"></path>
    <path fill="#000000" d="M504.601 575.754c-0.517-2.775-2.458-3.316-4.391-4.956-4.833-4.105-9.494-8.533-13.854-13.181-11.583-12.315-18.888-27.784-30.749-40.006-10.591-10.899-19.005-23.788-29.883-34.425-9.934-9.709-18.733-20.201-27.283-31.125-9.271-11.851-17.227-24.94-28.004-35.461-3.658-3.571-8.807-12.099-14.094-13.181-8.465-1.74-6.719 8.435-5.86 14.070 1.894 12.369 8.303 23.216 15.448 33.357 11.813 16.761 24.703 32.198 37.521 48.195 8.31 10.367 13.692 22.357 21.030 33.357 7.847 11.774 11.14 26.122 18.749 37.695 5.9 8.976 8.474 17.409 18.247 23.386 7.005 4.291 16.205 8.859 24.485 9.664 7.802 0.75 11.273-1.345 13.646-9.152 0.952-3.146 1.158-8.389 0.488-11.589-0.92-4.398-0.651-3.663 4.508-6.648z"></path>
    <path fill="#000000" d="M467.178 647.708c1.368-1.986 2.628-1.477 4.523-2.69 2.366-1.501 4.539-2.358 5.282-5.003-4.716-3.556-4.422-9.958-8.667-14.256-5.667-5.744-13.608-10.422-20.705-14.371-4.361-2.427-9.347-4.128-13.377-6.487-7.189-4.229-13.027-11.395-18.856-17.17-20.055-19.86-36.284-43.331-56.378-63.184-19.978-19.73-37.807-42.233-54.508-64.722-8.699-11.72-15.702-23.827-23.132-36.258-9.233-15.43-21.331-28.503-31.059-43.562-5.411-8.379-9.147-17.525-16.158-24.785-8.38-8.689-15.866-17.92-22.792-27.854-7.654-10.969-17.218-21.135-25.793-31.479-6.301-7.6-12.23-15.593-18.571-23.107-11.179-13.243-21.153-27.321-29.643-42.689-5.072-9.184-17.241-29.384-28.389-15.785-9.68 11.805 0.626 19.874 7.886 29.972 6.030 8.372 14.233 13.978 19.492 22.853 4.485 7.568 9.835 14.294 13.654 22.225 2.783 5.799 6.402 10.955 9.541 16.367 4.529 7.807 12.479 13.893 15.694 22.449 1.074 2.867-0.007 4.143 2.281 7.050 3.579 4.545 8.829 7.831 12.556 12.285 4.306 5.141 7.268 11.503 11.125 16.915 2.312 3.246 3.417 6.424 4.956 10.049 2.483 5.859 6.881 12.099 10.492 17.386 4.361 6.402 10.74 11.449 15.069 17.803 2.614 3.827 1.407 3.215 2.568 7.283 1.716 6.038 9.494 11.502 13.321 15.855 6.965 7.939 12.834 16.791 18.941 25.38 23.737 33.397 50.958 63.508 78.483 93.828 12.238 13.466 22.884 27.824 34.722 41.629 3.502 4.081 8.026 7.514 11.365 11.65 2.76 3.402 4.112 7.305 6.547 10.893 1.715 2.519 4.214 4.431 6.318 6.572 4.415 4.5 7.043 9.802 10.322 15.105 4.128 6.664 9.587 12.122 15.247 17.495 6.223 5.906 12.261 4.49 20.628 4.5 5.666 0.007 13.26 1.368 18.67-0.34 6.194-1.963 5.451-6.3 7.855-11.139 0.959-1.933 2.458-2.149 3.031-4.306 0.363-1.393 0.105-2.782 0.053-4.213-13.956 17.951-14.861 11.148-12.594 7.854z"></path>
    <path fill="#000000" d="M117.529 168.893c2.173 5.798 5.489 11.41 9.944 15.74 2.125 2.071 5.86 3.564 7.514 5.97 1.291 1.862 0.781 3.486 1.687 5.396 5.048 10.653 15.129 19.442 21.315 29.547 5.282 8.629 12.758 15.771 18.687 23.965 3.989 5.512 7.105 11.572 11.119 16.991 6.981 9.456 17.341 15.887 24.996 24.746 5.057 5.852 9.432 12.414 14.883 17.943 7.145 7.267 15.123 13.808 22.313 21.090 16.429 16.643 34.188 30.707 48.955 48.99 4.678 5.799 15.796 13.761 16.987 21.469 0.401-6.803-2.274-23.037-2.258-27.259 0.029-11.557-9.317-19.853-14.875-29.609-4.539-7.971-10.307-13.46-16.971-20.332-10.446-10.777-19.338-23.099-30.107-33.676-11.529-11.319-22.792-22.465-35.263-32.949-6.657-5.596-14.302-9.749-21.007-15.437-8.165-6.92-15.069-14.263-22.151-22.127-5.83-6.462-12.758-12.005-18.749-18.406-3.68-3.927-8.011-6.819-11.837-10.606-4.515-4.46-7.84-10.158-11.543-15.261-7.253-10.003-15.393-18.902-24.169-27.568-2.057-2.026-6.061-8.341-9.062-7.993-0.65 4.345 8.674 12.2 11.179 15.183 4.144 4.932 6.201 8.302 8.411 14.193z"></path>
    <path fill="#000000" d="M911.299 560.519c-15-29.183-37.528-53.62-60.035-77.772-5.443-3.796-10.863-7.598-16.020-12.383-8.32-7.716-14.954-15.826-22.645-24.050-13.662-14.626-29.697-27.53-44.309-41.181-6.642-6.2-14.721-9.927-21.57-15.864-8.281-7.181-14.651-13.359-23.975-19.257-18.076-11.426-36.105-23.169-54.135-34.804-16.15-10.429-31.745-21.299-47.572-32.322-9.834-6.857-20.404-12.091-29.852-19.582-13.584-10.754-27.586-20.78-40.985-31.788-5.218-4.276-11.219-8.149-16.19-12.639-1.869-1.687-3.301-4.523-5.111-6.030-2.389-1.979-5.318-3.464-8.010-2.039 3.262 10.073 18.764 18.855 26.232 25.442 12.95 11.403 24.796 23.857 37.575 35.429 10.507 9.516 20.805 18.887 30.709 29.036 7.98 8.187 17.783 13.405 25.993 21.144 10.986 10.359 24.732 16.976 36.083 27.127 10.932 9.779 22.252 19.272 34.097 27.776 5.003 3.595 8.342 8.828 13.291 12.501 5.698 4.221 12.517 6.702 18.585 10.289 9.217 5.435 19.669 10.46 26.975 18.020 4.987 5.141 9.982 9.943 14.489 15.555 1.995 2.248 3.935 4.545 5.822 6.881 0.239 1.413 0.448 2.829 0.658 4.252 4.059 7.707 10.546 13.405 16.668 19.426 7.391 7.252 11.914 16.938 19.668 23.842 6.765 6.029 13.933 10.899 19.561 18.176 6.078 7.869 12.402 13.691 20.055 20.045 17.983 14.92 36.538 33.752 46.535 55.013 4.012 8.519 6.062 17.077 11.249 25.001 0.811 1.243 1.509 2.512 2.244 3.773-0.851-23.44-4.53-46.556-16.081-69.013z"></path>
    <path fill="#000000" d="M393.676 797.153c4.924 7.129 8.405 15.128 15 20.965 4.384 3.873 8.45 7.637 12.331 12.106 3.611 4.16 7.044 8.737 10.546 13.29 11.783 10.552 23.744 20.92 36.044 30.815 0.271 0.16 0.525 0.294 0.804 0.448 7.392 4.181 13.361 8.89 21.037 12.447 9.107 4.213 16.353 11.502 23.55 18.879 29.041 15.647 61.744 23.401 92.576 35.454 0.779-2.087 1.267-4.058 1.227-5.643-0.105-5.536-5.528-19.32-11.040-21.584-3.674-1.506-16.268-0.651-20.295 0.497l-0.387 1.878c-14.249-6.162-18.711-1.328-24.912-2.127-7.097-0.913-14.056-8.449-20.673-11.512-6.2-2.868-9.989-8.566-14.156-13.769-8.449-10.576-19.328-19.899-28.961-29.47-15.045-14.945-31.128-30.622-43.026-48.185-7.035-10.382-17.186-18.786-25.135-28.542-8.326-10.243-18.333-19.442-27.254-29.176-11.782-12.857-25.521-23.309-37.467-35.941-13.615-14.402-29.031-27.824-42.044-42.651-21.399-24.397-47.262-44.436-68.083-69.351-6.162-7.376-13.475-13.483-19.305-21.129-5.597-7.352-11.396-14.070-17.372-21.135-9.511-11.234-20.14-21.353-29.41-32.795-12.379-15.26-23.117-31.904-36.507-46.252-5.566-5.96-10.755-12.207-16.112-18.337-2.443-2.799-4.887-8.674-8.358-10.344-1.654 4.027-0.417 7.615 1.925 10.829 5.822 8.032 14.666 14.023 19.985 22.659 6.132 9.941 12.556 19.697 19.103 29.507 4.407 6.601 10.398 11.48 14.543 18.261 3.904 6.385 8.357 12.060 12.394 18.090 2.814 4.221 3.472 8.719 6.665 13.103 2.713 3.726 4.639 7.677 7.36 11.356 3.85 5.212 2.381 2.474 3.935 7.329 0.774 2.405 0.341 1.724 2.050 4.367 3.039 4.709 8.042 9.494 11.713 13.932 6.055 7.321 13.291 14.271 18.014 22.442 6.077 10.521 16.205 21.637 25.119 29.911 5.088 4.708 11.017 8.079 15.787 13.158 6.349 6.756 12.038 14.054 18.424 20.796 7.94 8.394 14.706 17.872 22.738 26.27 5.551 5.798 11.883 10.591 17.543 16.18 5.228 5.157 8.141 11.704 14.173 16.158 5.366 3.966 9.827 7.962 14.581 12.771 11.203 11.333 22.259 20.911 31.327 34.046z"></path>
    <path fill="#000000" d="M445.498 716.682c-13.446 7.066-11.065 0.020-18.764-8.573-3.92-4.385-7.957-8.047-12.433-11.837-4.523-3.828-7.678-8.133-12.277-11.751-8.674-6.811-16.375-14.032-25.553-20.093-19.028-12.57-35.411-26.903-51.854-42.551-12.873-12.245-25.683-23.076-35.775-37.95-4.314-6.363-8.945-12.408-13.73-18.431-2.443-3.054-4.422-7.175-8.444-7.731 2.985 4.39 5.459 9.152 8.744 13.335 5.243 6.664 14.133 12.901 17.451 20.617 1.407 3.269 1.392 6.108 3.827 9.107 2.397 2.946 5.775 4.794 8.336 7.652 6.541 7.329 12.78 14.657 19.801 21.631 6.718 6.663 12.409 13.536 18.571 20.679 4.87 5.645 12.022 9.564 16.513 15.323 4.353 5.597 5.86 12.848 11.21 18.353 4.978 5.125 9.471 10.529 13.923 16.12 13.377 16.783 30.44 29.576 41.811 48.077 4.577 7.445 9.277 15.314 18.641 12.957 11.907-2.984 14.945-12.616 12.548-24.29-1.393-6.748-4.151-18.864-12.548-20.649z"></path>
    <path fill="#000000" d="M125.313 332.452c2.676 3.331 5.636 6.402 8.876 9.183 4.801 4.933 6.68 10.283 10.244 15.918 7.189 11.38 18.872 19.49 23.782 31.927 4.198 10.647 12.609 20.139 20.543 28.427 9.665 10.112 19.63 20.301 28.97 30.613 6.781 7.491 11.396 15.864 17.28 23.895 5.072 6.927 9.734 14.178 15.054 21.005 3.139 4.028 5.752 8.326 8.799 12.378 4.005 5.327 9.618 8.998 14.372 13.574 10.731 10.328 20.495 22.897 26.898 36.443 6.927 14.657 12.325 30.537 24.269 42.14 7.562 7.352 15.533 14.178 23.412 21.159 6.781 6.008 13.923 6.564 22.66 6.641 6.928 0.053 12.619-0.945 11.428-9.146-0.425-2.891-0.425-4.639-2.783-6.819-2.637-2.411-6.424-1.561-8.636-4.491-2.241-3.208-5.458-5.218-6.626-7.946-0.819-1.917-0.766-3.913-1.841-5.806-1.832-3.224-4.639-6.657-6.881-9.595-3.967-5.21-9.077-9.633-13.206-14.789-5.234-6.532-10.206-13.878-16.684-19.211-15.323-12.601-29.125-26.779-43.327-40.748-6.58-6.472-11.659-14.572-18.146-21.214-7.199-7.375-15.393-13.313-22.013-21.338-4.833-5.852-9.595-11.998-14.156-18.059-2.079-2.759-2.59-5.59-4.585-8.309-2.791-3.803-8.458-6.633-11.721-10.157-7.252-7.832-12.842-16.143-18.339-25.133-3.038-4.963-6.441-8.589-10.376-12.725-3.525-3.696-5.079-8.155-7.978-12.239-6.301-8.858-15.146-16.195-21.788-24.908-8.203-10.761-15.493-22.25-25.613-31.488-8.057-7.343-16.283-15.207-23.473-23.355-2.527-2.862-7.453-11.225-12.107-8.629 1.956 2.821 3.703 4.725 6.069 6.579 2.11 1.655 3.395 1.885 5.118 4.437 2.745 4.058 5.126 8.281 7.909 12.045 3.162 4.283 6.115 7.924 9.625 11.587 1.778 2.644 3.433 5.357 4.971 8.149z"></path>
    </svg>