<svg xmlns="http://www.w3.org/2000/svg" viewBox="84.082 -48.822 777.874 1121.020">
    <path fill="#000000" d="M571.559 36.541c0.191-1.034 0.384-2.030 0.536-3.066-0.46 0.344-0.959 0.69-1.416 1.036 5.939 0.807 10.383 1.878 15.937 4.367 4.597 2.108 8.776 3.181 13.758 4.025 8.009 1.342 15.749 5.132 23.333 8.045 7.204 2.76 13.679 7.355 20.69 10.65 5.366 2.529 10.269 4.523 15.136 7.932 13.219 9.197 26.437 19.389 37.627 31.038 7.47 7.817 16.245 14.672 23.296 22.76 8.889 10.19 16.59 20.31 24.448 31.344 6.933 9.654 13.83 19.846 14.98 31.953 0.457 4.79 2.795 8.391 4.215 12.835 1.609 5.21 3.102 10.957 4.482 16.287 2.873 10.882 4.638 22.833 6.323 33.986 2.337 15.403 3.066 30.652 4.215 46.131 1.151 15.672 2.837 30.69 2.145 46.516-0.498 11.649-3.331 21.69-8.045 32.188-3.066 6.896-8.468 12.106-12.99 18.045-1.993 2.608-4.482 4.751-6.554 7.396-3.217 4.102-5.554 9.62-9.27 13.294-2.837 2.758-5.825 4.482-8.047 8.009-2.837 4.482-5.211 9.005-8.812 12.95-7.050 7.74-13.219 16.516-19.425 24.943-7.47 10.19-13.448 22.032-24.446 28.928-3.794 2.374-8.010 4.482-11.957 6.63-5.439 2.95-10.955 3.217-16.437 5.554-6.86 2.91-12.184 6.396-19.77 7.317-6.091 0.766-11.841 2.301-17.896 3.41-7.011 1.344-12.414 3.754-18.889 6.362-4.903 1.951-10.113 2.258-15.093 3.946 10.113 1.034 19.118 4.98 29.272 6.323 8.968 1.185 19.846 5.824 27.586 10.575 13.758 8.43 26.858 17.701 38.851 28.507 9.004 8.126 18.622 16.975 24.905 27.51 1.53 2.566 2.26 5.518 3.753 8.084 1.801 3.102 4.059 4.33 6.245 7.050 1.724 2.108 2.376 3.986 3.602 6.283 3.029 5.71 7.74 10.306 10.957 15.937 3.181 5.554 5.482 11.265 9.005 16.631 2.76 4.174 5.595 8.43 7.282 13.179 2.030 5.903 3.371 13.179 4.48 19.387 2.108 11.957 6.706 22.72 10.23 34.254 6.246 20.425 6.091 40.348 5.902 61.498-0.073 7.892-2.070 15.093-1.649 23.025 0.421 7.778-2.070 16.131-3.294 23.794-1.111 7.281-2.26 14.521-3.41 21.761-1.036 6.591-1.036 13.487-4.79 19.045-1.686 2.452-3.679 3.679-4.866 6.512-0.958 2.301-1.416 4.597-2.566 6.86-2.26 4.482-5.326 9.233-8.355 13.258-2.222 2.91-4.751 4.98-6.781 8.161-1.993 3.066-2.681 5.787-5.554 8.43-4.866 4.482-11.305 8.009-16.821 11.763-10.65 7.204-22.53 12.030-32.797 19.695-4.905 3.64-9.464 6.934-13.794 10.921-1.914 1.801-1.722 1.993-4.33 3.638-2.301 0.573-4.29 1.649-6.016 3.258-1.495 2.301-3.217 4.409-5.174 6.283-2.185 1.764-4.215 1.993-6.475 3.217-3.143 1.686-5.25 3.679-8.161 5.595-3.87 2.606-7.74 3.066-11.878 4.79-4.215 1.722-7.050 3.486-11.726 3.87-4.217 0.308-8.391 0.844-12.606 0.1-6.246-1.036-12.643-2.416-18.93-2.989-4.559-0.384-8.812 1.416-13.371 1.457-6.439 0.073-11.726-0.193-18.124 1.38-5.71 1.378-10.842 5.287-16.552 7.167-5.708 1.878-10.69 3.215-16.552 3.179-2.337-0.030-3.294 0.308-5.403 0.615-5.016 0.765-8.545 0.843-13.64 0.269-7.283-0.765-14.179-0.191-21.611-1.38-6.86-1.070-12.030-2.871-18.582-4.903-4.061-1.265-6.667-1.229-10.536-3.523-4.595-2.681-8.197-3.333-13.448-4.061-10.769-1.53-20.613-4.215-31.111-6.781-4.446-1.073-9.656-1.995-13.41-4.905-2.681-2.070-3.946-6.437-7.892-6.168 4.788 1.187 11.763-1.187 16.706-1.265 15.328-0.229 31.267 1.457 45.634 7.050 14.599 5.631 33.639 14.674 49.655 11.957 12.070-2.031 24.215-8.584 35.634-12.99 7.74-2.987 16.285-4.788 24.369-7.050 8.124-2.299 15.595-5.631 23.871-7.776 15.093-3.831 27.548-15.364 37.127-26.973 10.534-12.72 23.604-22.109 33.754-35.288 4.102-5.326 8.276-9.693 12.914-14.599 4.33-4.561 10.65-12.337 13.104-18.161 0.92-2.185 0.69-4.174 1.229-6.398 0.844-3.45 2.91-6.208 3.638-9.733 1.073-5.287 1.609-10.767 2.452-16.093 1.801-11.61 4.29-23.027 3.523-34.79-0.534-8.584-2.222-16.937-1.914-25.67 0.191-4.674 0-9.733-0.996-14.638-2.45-11.839-3.102-24.369-7.588-35.403-1.341-3.258-1.416-6.246-3.331-9.425-1.609-2.724-3.373-5.018-4.674-8.010-2.416-5.48-6.475-8.776-10.65-12.872-5.289-5.174-9.041-12.798-14.599-17.588-3.296-2.837-7.588-5.439-11.457-7.853-14.79-9.272-26.014-22.683-43.91-25.172-7.932-1.073-17.894-0.162-25.326 2.795-5.595 2.26-10.113 6.554-15.631 8.776-5.403 2.185-10.577 0.956-15.937 1.801-3.373 0.5-5.633 1.837-8.391 3.602-3.217 2.070-6.744 2.606-9.885 4.597-3.602 2.337-6.208 5.016-10.23 6.817-4.138 1.801-7.819 3.988-11.686 6.283-10.728 6.362-15.095 17.78-20.383 28.47-2.568 5.174-6.63 9.156-9.62 13.986-3.258 5.25-4.251 8.661-9.082 12.527-5.133 4.138-8.928 10.5-13.179 15.516-4.674 5.482-8.24 11.38-11.957 17.511-8.545 14.177-10.65 30.957-19.118 45.443-4.711 8.045-8.353 16.896-13.527 24.676-3.715 5.516-8.084 10.613-11.878 15.978-5.48 7.819-8.009 17.932-12.184 26.516-5.059 10.306-10.921 19.923-15.136 30.652-4.674 11.955-7.204 25.018-11.57 37.088-2.49 6.898-3.217 14.102-4.253 21.342-0.421 2.722-0.1 8.697-4.559 6.552-0.615-11.955 0.805-23.792-0.615-35.826-1.572-13.564-0.841-26.362-1.457-39.849-1.11-24.826-0.073-48.624 3.638-73.181 1.11-7.396 3.525-13.642 5.289-20.804 1.378-5.71 1.226-11.649 2.987-17.244 3.217-10.421 6.746-20.039 8.355-31.036 1.493-10 1.993-20.805 5.016-30.5 5.366-16.975 17.74-31.955 27.857-46.287 4.523-6.398 9.005-12.685 13.6-19.081 2.568-3.638 4.905-8.62 7.59-12.070 2.45-3.181 6.016-5.287 8.774-8.24 3.946-4.174 7.050-8.43 11.457-12.184 1.722-1.495 3.258-3.373 5.059-4.713 2.374-1.762 5.25-1.914 7.511-3.486 1.073-0.765 1.57-2.337 2.643-3.102 2.374-1.686 5.25-1.493 7.892-2.566 3.986-1.609 8.199-3.909 11.993-5.903 6.667-3.45 34.83-28.774 21.611-35.019-6.21-2.912-15.518-2.837-22.034-3.832-9.577-1.493-19.274-2.49-28.659-4.903-8.968-2.374-19.846-6.63-29.235-6.36-7.892 0.193-13.45 10.613-18.81 15.516-4.713 4.29-10.115 9.233-15.672 12.378-7.127 4.059-17.088 6.817-25.020 9.31-4.559 1.457-8.968 0.92-13.602 1.837-3.946 0.807-8.045 2.301-11.914 3.602-8.582 2.873-20.346 8.010-27.394 14.102-11.726 10.19-24.905 21.419-32.337 35.367-3.87 7.281-4.83 15.979-8.276 23.489-3.066 6.746-5.939 13.679-9.349 20.233-5.133 9.846-11.457 18.122-14.943 28.812-2.030 6.362-2.606 13.487-3.565 20.118-1.378 9.81 4.29 18.697 6.783 28.278 2.987 11.493 7.776 22.455 9.733 34.217 1.722 10.69 5.324 20.116 7.74 30.615 2.414 10.306 7.969 19.35 11.419 29.272 3.144 8.968 6.975 17.74 10.805 26.4 3.294 7.396 9.041 14.98 9.425 23.297-4.559-0.030-8.505-6.283-11.534-9.541-6.896-7.355-12.798-15.48-19.466-23.104-10.19-11.764-18.315-25.828-27.279-38.622-3.373-4.828-6.36-9.733-9.425-14.749-2.301-3.796-5.939-7.242-7.855-11.113-1.686-3.373-1.649-6.704-2.374-10.348-1.342-6.473-4.482-12.568-6.933-18.659-6.246-15.516-15.787-30.116-19.581-46.591-1.801-7.969-1.072-17.894-1.609-26.091-0.614-10.23 1.189-19.654 2.795-29.774 1.229-7.817 2.108-15.749 3.565-23.489 2.070-10.842 7.548-19.003 12.414-28.622 6.746-13.219 11.378-27.663 19.733-40 4.828-7.125 7.396-14.944 12.912-21.532 6.898-8.24 15.251-15.059 22.11-23.335 9.156-11.071 18.774-22.605 32.188-28.622 11.147-5.016 22.339-9.347 33.754-13.564 2.145-0.805 4.33-2.145 6.589-2.49 2.187-0.305 4.561 0.729 6.746 0.386 4.674-0.73 8.661-4.29 13.335-4.982 2.987-0.46 6.208 0.344 9.233-0.030 2.681-0.344 5.366-1.036 8.010-1.495 6.589-1.11 12.912-2.374 19.616-2.529 5.903-0.1 11.914 0.424 17.817 0.193 4.674-0.193 8.891-1.378 13.602-1.301 4.522 0.030 8.85-1.342 13.335-1.416 4.33-0.115 10.19 1.88 14.251-0.498 2.529-1.459 3.179-3.717 6.091-4.945 6.896-2.873 15.708-2.108 22.95-1.609 9.81 0.651 18.466 3.83 27.971 6.018 7.819 1.763 15.979 2.91 23.948 3.986 7.396 0.994 14.407-1.609 21.726-2.568 9.197-1.226 18.582 0.1 27.663-1.341 14.559-2.337 29.351-6.63 41.993-14.407 10.884-6.667 23.871-10.882 34.177-18.43 7.088-5.211 8.812-13.986 15.21-19.541 2.722-2.374 5.25-3.215 7.892-6.131 3.638-3.986 6.512-8.733 10.154-12.798 5.134-5.67 11.19-10.419 16.208-16.17 4.253-4.945 6.362-10.308 8.735-16.208 2.49-6.17 7.317-11.113 9.733-17.244 3.486-8.85 3.523-20.69 4.98-30.079 1.839-11.841 4.29-23.564 2.568-35.595-1.036-7.434-4.753-14.486-7.127-21.611-3.217-9.577-6.512-18.661-9.156-28.509-2.987-11.147-6.052-21.34-10.077-32.186-3.638-9.769-5.552-19.962-8.966-29.772-2.032-5.975-3.066-11.457-6.475-16.823-3.525-5.595-7.090-9.691-11.841-14.444-5.095-5.095-8.85-10.421-15.672-13.256-5.174-2.109-7.855-3.489-12.57-6.706-2.374-1.607-5.324-2.337-7.702-3.87-3.26-2.030-5.326-5.326-8.047-7.932-5.018-4.79-13.294-7.776-20.077-9.349-5.132-1.187-9.462-3.258-14.599-4.138-8.545-1.457-16.245-3.142-24.33-5.939-3.752-1.265-5.937-2.722-10.039-3.331-6.323-0.996-12.070-0.575-18.432-0.422-5.67 0.1-12.412-0.536-17.55 2.416-6.704 3.794-8.62 11.799-16.208 15.21-7.24 3.258-14.292 6.896-22.376 7.663-5.326 0.498-4.711 1.073-8.62 4.828-3.102 2.989-7.548 5.441-11.034 7.971-5.862 4.251-10.23 8.582-15.443 13.6-7.317 7.050-11.991 12.030-16.285 21.419-2.722 5.975-6.323 12.835-7.855 19.197-2.030 8.353 1.916 13.179 2.337 21.303 0.27 4.83-1.378 9.462-2.030 14.177-0.536 4.138-0.344 7.97-0.307 12.108 0.030 7.817-3.41 15.516-2.95 23.296 0.458 6.896 2.452 16.821 6.054 22.797 5.172 8.584 12.72 15.672 18.507 23.792 1.88 2.645 3.217 5.747 5.059 8.43 4.061 6.018 10 10.998 14.98 16.208 5.977 6.283 11.649 11.726 19.005 16.4 7.624 4.866 15.401 9.12 22.568 14.751 5.018 3.946 13.715 7.661 15.443 13.871-6.934 3.45-15.939 2.91-23.604 2.758-3.029-0.030-6.283-0.92-9.041-2.185-6.934-3.143-10.844-10.077-17.317-13.41-7.167-3.681-14.83-6.667-22.034-10.461-8.045-4.217-14.751-9.504-22.491-14.063-6.437-3.754-11.647-7.511-17.242-12.451-5.403-4.79-10.728-9.62-17.165-12.99-6.439-3.408-10.385-9.691-13.642-16.17-1.457-2.952-1.532-6.17-2.301-9.349-1.301-5.403-4.059-9.425-6.246-14.407-3.331-7.817-2.529-15.287-3.523-23.412-0.765-6.323-3.565-11.914-4.945-18.201-3.602-16.093-7.24-35.019-3.752-51.419 2.337-11.19 12.299-18.582 16.473-29.158 3.373-8.468 4.409-17.244 9.848-24.792 3.638-4.98 8.197-9.389 12.183-14.1 9.81-11.534 14.674-28.966 29.502-35.366 6.552-2.837 14.179-4.83 21.075-6.323 7.319-1.609 14.37-0.536 21.647-1.495 9.312-1.226 15.364-8.353 24.292-10.346 5.174-1.149 10.384 0.27 15.557-0.844 12.414-2.643 21.226-11.878 32.187-17.129 4.788-2.299 10.383-4.023 15.364-5.553 6.246-2.873 12.529-2.723 18.93 0.421 16.323 8.312 32.224 17.394 47.704 27.206z"></path>
    </svg>