<svg xmlns="http://www.w3.org/2000/svg" viewBox="-80.540 -80.004 1157.642 1184.944">
    <path fill="#000000" d="M776.006 774.463c-8.167-6.007-14.964-14.227-22.183-21.445-10.485-10.485-22.921-17.704-33.933-27.452-12.436-10.96-25.766-20.866-40.204-28.559-14.385-7.694-28.137-16.914-42.733-24.133-9.484-4.742-17.177-11.909-25.345-18.969-14.227-12.119-26.188-26.873-39.571-39.993-8.905-8.694-18.442-16.492-27.61-24.87-6.218-5.691-11.434-10.545-18.179-15.227-10.17-7.11-20.813-13.069-31.351-19.444-12.225-7.423-24.133-15.649-36.146-23.553-16.387-10.799-27.874-28.981-41.363-43.47-18.126-19.39-39.255-33.827-60.068-49.584-18.073-13.592-38.939-23.711-54.957-40.256-7.588-7.856-14.49-16.386-23.026-23.184-3.425-2.479-6.797-5.004-10.222-7.483-3.688-0.597-6.007-2.42-6.956-5.377 15.017 5.377 31.246 9.38 45.683 16.44 12.646 6.213 25.397 14.548 38.886 18.283 15.281 4.272 30.561 9.066 45.736 13.592 5.797 1.733 11.487 4.003 17.072 6.213 6.060 2.375 10.485 5.691 15.649 9.858 12.278 9.903 27.083 18.125 40.309 26.609 4.057 2.584 8.378 4.526 12.278 7.378 3.794 2.689 7.535 5.377 11.434 7.901 10.433 6.587 20.392 13.383 31.404 18.863 2.055 1.046 4.11 2.001 6.164 3.002l-27.452-24.186c12.382 2.479 23.448 7.11 35.461 10.963 13.647 4.376 27.874 8.693 40.678 15.333 20.234 10.44 40.994 19.548 61.386 29.454 13.226 6.423 26.293 13.383 39.624 19.496 14.385 6.587 29.455 11.755 44.261 17.072 11.961 4.376 24.344 6.856 36.041 11.755 12.751 5.317 25.819 10.172 38.043 16.755 6.376 3.42 11.856 8.221 17.968 12.119 6.956 4.426 14.174 7.482 20.971 12.278 12.488 8.799 24.765 17.968 36.937 27.4 0.107-5.428 0.314-10.854 1.060-16.387 1.528-11.434 3.373-22.921 5.111-34.303 1.001-6.751 2.635-13.278 3.635-20.023 1.165-7.423 2.161-14.593 3.583-21.867-0.627-0.747-1.105-1.494-1.739-2.106-13.437-15.123-31.036-25.133-44.788-40.045-6.797-7.378-13.384-14.279-21.077-20.549-4.267-3.48-8.905-6.482-12.909-10.336-15.333-14.548-30.508-28.979-45.209-44.154-11.75-12.113-26.504-20.814-39.677-31.036-6.481-5.063-13.384-8.797-20.181-13.219-8.273-5.377-15.702-12.113-24.343-17.020-9.591-5.422-20.075-6.901-30.14-10.859-15.597-6.064-30.983-12.442-46.843-17.599-8.536-2.793-17.283-2.733-25.924-5.526-16.861-5.482-33.196-12.113-50.478-16.070-12.857-2.898-25.134-4.526-37.358-10.381-11.012-5.377-21.077-13.174-31.826-19.18-6.902-3.854-13.699-7.378-20.866-10.649-11.75-5.377-23.342-11.068-35.356-15.808-6.218-2.479-12.436-5.377-18.073-9.171-8.063-5.317-14.385-11.217-23.816-14.010-4.69-1.494-9.643-2.629-14.543-2.793 2.739-0.597 5.322-1.628 8.009-2.315 1.739-0.448 3.056-0.105 4.584-0.149 2.055-0.105 3.9-1.046 6.060-1.344 6.533-0.896 13.278-0.299 19.917-1.195 17.599-2.166 36.041 1.837 53.535 3.749 17.915 1.942 35.936 2.061 53.851 4.003 16.703 1.837 33.512 1.837 50.268 3.002 8.009 0.597 16.124 2.584 24.185 2.584 5.691 0.054 11.223-0.896 16.861 0.149 3.794 0.747 6.639 1.494 10.381 1.523 2.898 0.054 5.217-0.052 7.956 0.896 10.222 3.211 19.601 9.066 29.665 12.905 6.112 2.375 12.171 4.481 17.968 7.692 3.32 1.792 6.691 3.629 10.012 5.422 15.755 0.896 31.509 1.942 46.843 6.423 14.437 4.272 29.191 7.588 43.523 12.322 6.902 2.315 17.23 3.48 22.236 9.634l-24.976 1.494c16.071 7.274 31.72 12.8 48.634 17.653 7.325 2.166 13.752 5.108 20.497 8.797 7.113 3.958 15.017 6.691 22.499 9.798 6.745 2.793 13.753 5.317 20.128 9.066 5.428 3.107 10.275 7.319 15.544 10.649 8.273 5.213 17.019 9.634 25.397 14.548 1.314 0.747 2.581 1.628 3.9 2.479 0.941-29.928 0.478-60.015 0.478-89.996 0-23.607-0.051-47.212 0-70.871 0-21.181-2.476-42.205-2.739-63.388-0.164-9.694-0.836-19.653-1.419-29.296-0.209-4.317-1.21-8.319-1.374-12.696-0.269-6.169-1.105-12.337-1.419-18.442-0.164-3.211-0.836-6.901-1.58-10.007-4.11-1.046-8.325 0.896-12.224 2.166-6.481 2.106-12.593 4.899-18.969 7.483-10.96 4.376-22.605 8.633-33.933 11.859-15.597 4.421-31.773 6.587-47.949 6.856-17.125 0.149-33.881-0.149-50.953-1.837-13.858-1.344-27.189-5.9-40.783-8.902-6.060-1.344-11.803-3.794-17.862-5.063-5.797-1.195-11.434-2.061-17.125-3.794-25.502-7.901-51.584-14.697-76.56-24.449-7.483-2.898-16.651-5.422-23.395-10.216-3.9-2.733-7.008-5.96-11.118-8.275-3.108-1.733-6.429-2.957-9.537-4.69-5.849-3.376-11.012-7.797-16.756-11.217-3.846-2.27-8.115-4.003-11.381-7.214-1.949-1.837-3.477-4.063-5.48-5.855-6.218-5.631-13.489-9.544-19.285-15.701-0.478-0.448-0.896-0.896-1.314-1.195-6.533 1.837-9.695 6.587-14.016 12.009-4.215 5.317-8.799 10.336-13.331 15.333-2.739 3.107-4.321 6.587-6.639 9.903-3.162 4.585-7.535 7.274-11.592 10.754-5.691 4.899-11.118 10.172-16.809 15.069-5.111 4.421-10.696 7.856-15.913 12.113-7.482 6.064-13.858 13.592-22.025 18.706-18.284 11.426-42.311 16.861-63.335 18.811-7.271 0.597-13.437 3.794-20.444 6.064-24.027 7.752-48.002 15.492-72.978 18.652-30.192 3.854-59.963 5.272-90.26 5.213-8.588 0-16.756-1.523-25.239-1.494-8.694 0.052-16.809-0.106-25.345-1.837-9.274-1.837-18.126-3.794-27.558-4.063-5.005-0.106-9.643-2.375-14.543-3.376-4.269-0.896-8.799-2.27-12.699-4.526-6.587-3.898-13.384-10.172-20.444-12.905-1.060 3.002-0.269 7.901-0.269 10.963v15.755c0 17.968-0.836 36.199 0.314 54.114 1.105 17.336 1.001 34.619 2.845 51.954 1.791 17.072 1.001 34.408 1.001 51.637 0 32.774 0 65.549 0 98.323 0 20.339 0.053 40.519 2.055 60.753 2.739 27.874 5.691 55.695 8.273 83.622 0.836 9.111 2.055 18.442 2.214 27.663 0.164 6.691 1.21 13.174 1.419 19.811 0.209 6.745-0.269 13.543-0.105 20.287 0.269 12.436 2.424 25.819 5.005 37.885 1.528 7.166 3.742 13.964 4.953 21.235 1.419 8.799 3.004 17.757 5.322 26.293 1.686 6.112 2.793 12.488 4.901 18.389 3.425 9.801 8.325 19.18 12.488 28.664 5.216 11.75 11.909 20.444 19.496 30.403 6.902 9.116 13.806 17.23 22.763 24.133 9.906 7.746 21.235 12.593 31.931 18.916 9.222 5.532 18.389 12.119 26.82 18.916 9.378 7.535 19.443 13.806 28.822 21.287 7.271 5.849 14.174 11.223 21.709 16.493 15.755 11.012 31.984 21.129 47.844 31.931 22.657 15.491 48.371 26.346 73.663 35.83 11.75 4.373 22.288 11.118 33.67 16.334 14.964 6.85 30.666 11.961 45.736 18.653 9.591 4.269 19.338 7.956 29.086 11.856 5.428 2.214 11.329 3.952 16.44 6.902 6.218 3.583 12.278 7.535 18.442 11.223 5.691 3.425 10.854 7.904 16.703 10.854 2.739 1.419 4.953 1.634 7.694 2.372 4.795 1.374 8.747 5.374 13.753 6.007 8.588 1.060 19.074-5.586 26.504-8.799 11.855-5.111 23.026-11.54 33.881-18.705 2.739-1.791 5.428-3.635 8.167-5.428-1.791-1.27-3.477-2.582-5.322-3.794-14.49-9.801-29.296-20.55-42.417-32.511-8.588-7.798-16.756-15.228-25.872-22.605-6.429-5.216-10.381-8.325-15.491-13.964-13.91-15.386-29.086-29.086-41.995-45.525-7.060-9.063-14.648-17.757-21.34-27.189-4.742-6.639-8.799-13.91-13.489-20.602-8.957-12.751-17.81-25.45-26.398-38.465-10.908-16.598-21.762-32.774-30.561-50.847-4.479-9.011-9.484-17.546-13.595-26.767-2.739-6.164-5.111-12.382-7.482-18.705-3.267-8.484-6.481-16.914-9.326-25.555-1.686-5.059-5.269-11.698-5.005-17.283l3.9 1.060c-2.739-4.321-5.532-8.642-8.43-12.753-7.325-10.381-12.962-20.971-18.916-32.247-13.91-26.187-26.978-52.954-40.362-79.511-17.599-35.040-33.459-70.871-48.424-107.333 1.105 3.107 3.635 5.735 5.322 8.588 3.004 5.004 5.428 10.381 8.747 15.227 5.163 7.483 11.223 13.696 16.809 20.761 7.008 8.902 11.434 20.076 17.915 29.35 2.582 3.689 5.163 7.005 7.64 10.963 2.793 4.526 6.691 9.171 8.957 13.965 5.005 10.694 11.275 20.128 17.388 30.192 5.48 8.962 9.168 19.233 14.964 27.874 16.598 24.976 35.145 50.479 58.488 68.446 19.548 15.017 33.933 36.252 52.797 52.112 4.742 4.004 8.957 8.905 13.964 12.382 4.532 3.214 9.484 5.743 14.174 8.694 18.547 11.698 34.25 27.347 49.793 43.154 8.484 8.642 17.072 15.386 27.874 20.339 7.694 3.529 15.439 6.902 22.973 10.75 16.334 8.43 33.617 14.016 50.847 19.812 19.601 6.587 39.413 12.382 58.751 19.812 9.801 3.794 28.98 6.164 34.618 17.283l-7.588 20.075c1.479 0.523 2.898 1.165 4.373 1.634 5.638 2.003 9.853 3.742 14.859 7.271 7.482 5.269 14.912 10.591 22.447 15.702 11.592-7.429 23.869-14.702 33.090-24.976 6.007-6.691 11.223-13.91 18.073-19.759 3.846-3.32 7.798-6.429 11.644-9.747 4.373-3.846 8.115-8.536 12.278-12.699 5.691-5.691 11.54-11.065 17.072-16.967 1.419-1.528 3.004-2.845 4.532-4.215-6.218-5.217-12.699-10.116-19.707-14.333-7.008-4.269-14.016-8.588-20.655-13.437z"></path>
    <path fill="#000000" d="M995.577 497.495c0-5.855 1.374-12.651-2.845-16.966-1.58-1.628-3.688-2.898-5.322-4.481-4.215-4.167-8.009-7.856-12.751-11.277-6.060-4.317-11.171-10.067-17.283-14.339-12.962-8.902-25.503-18.494-38.359-27.557-7.64-5.377-15.017-9.858-23.237-14.070-0.373-0.149-0.687-0.299-1.060-0.448-9.009-4.585-18.337-8.797-27.136-13.696-7.64-4.212-15.807-6.318-23.711-9.753-11.012-4.735-22.763-7.632-34.566-8.753l10.381 17.283 2.107 3.525c0.209 0 0.478 0.051 0.687 0.051 3.583 0.299 7.219 4.899 9.695 7.065 4.11 3.48 8.536 6.378 12.54 10.007 6.745 6.109 14.964 10.007 21.762 16.23 4.215 3.898 8.273 7.005 12.857 10.216 3.583 2.524 5.532 6.064 8.219 9.425 1.634 2.001 3.373 3.749 5.217 5.482 2.582 2.42 5.163 4.854 7.325 7.692 3.742 5.004 6.112 9.484 11.012 13.547 15.755 13.114 28.875 26.873 36.094 47.107 3.583 9.962 10.381 18.546 16.176 27.030 5.005 7.214 8.536 15.65 11.329 24.132 0-2.061 1.314-3.854 2.055-5.631 1.105-2.524 1.634-5.317 2.687-7.856 2.055-4.899 5.322-9.171 7.535-14.010 2.951-6.482 5.163-12.755 7.166-19.39 2.951-9.544 1.374-20.708 1.419-30.561z"></path>
    <path fill="#000000" d="M808.295 662.974c1.479 1.21 3.108 2.214 4.795 3.214 4.373 2.635 8.325 5.532 12.699 8.115 2.476 1.528 4.636 3.583 7.429 4.69 1.58 0.627 2.793 0.687 4.373 1.634 4.321 2.476 8.273 5.954 12.33 8.747 4.795 3.32 10.222 6.587 15.808 9.537 2.687 1.374 5.374 2.739 8.061 3.9 4.057 1.739 7.060 3.583 10.75 5.797 4.004 2.318 7.85 4.901 11.909 7.166 2.003 1.165 5.163 3.583 7.64 3.056 3.214-11.486 4.057-23.816 5.322-35.672 0.209-2.107 0.523-6.164-1.105-8.325-1.374-1.634-5.111-2.37-7.166-3.214-3.004-1.21-6.060-2.318-8.957-3.794-3.162-1.634-5.797-3.267-8.747-5.163-4.426-2.845-8.905-5.585-13.437-8.219-4.636-2.739-9.378-5.374-14.068-8.061-9.747-5.585-19.443-11.223-28.822-17.23-4.742-3.056-9.537-6.902-14.49-9.801-5.585-3.319-11.961-5.691-18.020-8.219-5.638-2.372-11.54-5.163-17.494-7.008-2.582 7.482-3.635 9.591-3.373 10.854 0.836 3.529 2.529 7.377 3.688 10.908 2.107 6.691 4.69 13.595 8.009 20.075 0.732 1.314 1.374 2.687 2.055 4.057 2.266 4.479 4.479 9.009 6.745 13.489 2.898 5.849 7.325 12.803 14.068 16.387 1.314-1.105 0.164-3.635-0.164-5.111-0.051-0.209-0.051-0.478-0.107-0.687-0.418-2.266-0.478-4.636-0.896-6.902-0.314-1.686-1.634-4.742-1.27-6.481 1.27 0.627 1.528 1.528 2.424 2.266z"></path>
    <path fill="#000000" d="M653.709 1003.308c-5.217-4.004-9.801-8.642-14.806-12.857-2.003-1.686-3.952-3.531-5.954-5.269-7.008-6.164-13.699-12.646-20.075-19.496-6.322-6.744-12.434-13.806-18.020-21.393-8.905-11.909-16.861-24.87-25.239-37.2-4.479-6.533-9.274-12.593-14.227-18.758-1.528-1.897-4.795-5.163-5.586-7.904l-28.559-8.747c-5.374 0-10.116 0.051-15.228 1.791-2.582 0.836-4.426 1.27-7.008 1.686-0.627 0.107-1.528 0.209-2.372 0.314-1.58 0.269-3.214 0.687-3.846 1.845-2.161 4.057 4.269 9.801 6.429 11.698 6.744 5.901 13.489 12.699 18.389 20.181 1.686 2.635 2.161 3.214 4.901 5.743 1.949 1.739 3.477 4.11 5.48 5.795 4.11 3.477 6.956 8.536 10.75 12.909 8.167 9.537 19.022 16.493 27.821 25.397 3.952 4.004 8.642 7.008 12.751 10.854 3.635 3.373 6.376 7.429 9.695 11.012 0.627 0.687 1.27 1.419 1.949 2.055 7.588 6.956 15.122 13.752 23.448 19.654 3.477 2.739 6.902 5.585 10.275 8.484 5.269 3.425 10.908 5.954 16.914 7.588 2.37 0.896 5.059 2.161 7.85 3.214 3.688 1.419 7.482 2.476 10.908 1.634 3.004-0.687 5.901-3.529 6.745-6.639 0.373-1.634 0.269-3.373-0.836-4.848-1.791-2.476-10.802-7.377-12.54-8.747z"></path>
    <path fill="#000000" d="M793.494 926.61c-7.008-4.426-19.97-7.325-29.349-8.957-5.901-1.001-10.381-1.58-11.012-1.686-7.746-1.419-15.86-1.897-23.5-6.745-4.057-2.529-7.482-3.162-11.54-3.794-4.584-0.687-9.011-2.424-13.489-4.373-1.949-0.896-3.952-1.791-5.954-2.739-5.849-2.793-11.75-4.004-17.546-6.797-3.425-1.633-7.219-3.688-10.908-5.005-1.374-0.523-2.739-0.941-4.057-1.165-1.739-0.314-3.267-0.209-5.059-0.836-3.373-1.165-7.535-4.742-10.802-4.426-0.478 12.171 5.638 21.182 11.855 27.768 2.845 3.004 5.691 5.532 8.009 7.535 3.583 3.108 5.797 3.846 9.432 5.111 0.209 0.051 0.314 0.107 0.478 0.164 6.587 2.266 13.068 5.849 17.23-11.75 11.698 6.007 23.922 9.116 35.409 16.598 8.536 5.532 16.756 14.437 25.397 19.18 6.797 3.794 13.699 4.848 20.497 8.484 3.688 1.949 3.688 2.055 6.639-1.001 3.004-3.108 5.691-7.166 8.378-11.065 0.732-1.105 4.795-5.269 4.901-7.692 0.107-2.582-1.897-4.848-5.005-6.797z"></path>
    <path fill="#000000" d="M906.96 754.314c-6.956-1.686-13.91-2.845-21.024-3.529-1.949-0.209-3.9-0.523-5.849-0.792-7.060-0.896-14.068-2.055-21.077-3.529-0.792-0.209-1.58-0.373-2.37-0.583-14.121-3.477-28.295-6.745-41.995-11.803l-4.69 4.163-15.965 14.016c3.529 7.904 14.121 15.070 20.075 20.023 4.163 3.425 8.799 6.112 12.803 9.695 1.845 1.686 3.688 3.373 5.48 5.111 3.952 3.688 7.798 7.377 12.278 10.485 5.48 3.794 11.487 6.322 17.441 9.116 9.484 4.479 19.18 9.695 29.402 9.906 2.266 0 4.532-0.107 6.797-0.627 4.479-0.941 6.902-1.105 8.853-5.269 0.164-0.314 0.314-0.627 0.478-1.001 2.214-5.638 2.582-11.698 4.321-17.546 2.951-9.591 3.794-18.6 0.373-28.348-1.479-4.215-1.314-7.904-5.322-9.484z"></path>
    </svg>