<svg xmlns="http://www.w3.org/2000/svg" viewBox="108.804 -16.503 814.435 1056.855">
    <path fill="#000000" d="M702.856 501.216c-6.234 14.132-15.074 27.543-24.293 36.798-1.096 1.133-2.079 2.304-3.023 3.514-1.323 1.701-2.494 3.174-4.041 4.233-1.284 0.868-2.607 1.661-3.891 2.455-1.7 0.983-3.399 2.003-5.062 3.174-4.081 2.984-8.423 4.761-12.996 6.649-1.813 0.756-3.628 1.511-5.478 2.343-10.882 4.911-22.366 7.669-32.529 7.556-1.813 0-4.004 0.107-6.121 0.226-3.549 0.264-7.253 0.453-10.163-0.071-2.457-0.49-5.288-1.397-8.009-2.304l-3.135-0.983c-4.874-1.473-11.865-5.892-16.246-10.313-1.74-1.7-3.514-4.118-4.911-6.573-0.68-1.171-1.587-3.741-2.004-5.439-0.143-0.567-0.106-1.323-0.071-2.23 0.071-1.171 0.143-2.569-0.189-4.042-0.265-1.247-0.755-2.117-1.096-2.795-0.342-0.643-0.454-0.907-0.528-1.36-0.106-1.133-0.036-2.304 0-3.438 0.036-0.87 0.071-1.7 0.071-2.494l-0.036-1.171c0-1.435-0.036-2.681 0.377-4.231 0.53-1.927 0.869-3.1 1.057-3.477 1.435-2.531 6.991-6.612 11.183-6.838 0.106 0 0.224 0 0.301 0 0.342 0 0.606 0.036 0.869 0.071-2.304 5.288-4.384 10.843-3.665 17.644 0.983 9.369 12.467 13.448 17.983 15.451 1.284 0.453 2.417 1.096 3.551 1.737 1.774 0.983 3.778 2.117 6.234 2.681 4.646 1.133 9.406 1.853 13.487 2.040 11.789 0.641 20.818-0.793 29.431-4.647 1.247-0.567 2.569-1.057 3.891-1.548 2.493-0.907 5.025-1.851 7.442-3.25 2.531-1.474 4.837-3.437 7.065-5.288l1.587-1.323c4.081-3.399 5.288-8.273 6.385-12.58 0.495-1.925 0.945-3.703 1.587-5.101l0.68-1.587c0.869-1.888 1.474-3.248 2.644-4.532 1.020-1.171 2.494-2.079 4.004-3.061 0.945-0.641 1.927-1.247 2.834-1.925 1.589-1.171 3.060-2.38 4.497-3.551 1.587-1.284 3.172-2.569 4.837-3.815 2.114-1.548 9.369-7.141 13.223-13.526 0.907-1.548 1.511-3.135 2.079-4.645 0.413-1.133 0.792-2.304 1.398-3.325 1.020-1.737 1.737-3.514 2.457-5.288 0.377-0.945 0.755-1.853 1.171-2.795 1.851-4.007 2.417-6.574 3.022-10.806 0.377-2.644 1.134-5.478 1.89-8.197l0.224-0.833c0.071-0.226 0.143-0.453 0.189-0.643 0 6.461 0.036 12.922 0.071 19.344 0.071 10.729-5.138 22.553-9.748 32.982l-0.489 1.131zM413.009 795.561c-0.983-0.342-1.888-0.454-2.644-0.567-0.454-0.036-0.983-0.106-1.171-0.224-0.377-0.143-0.832-0.528-1.36-0.945-0.68-0.567-1.398-1.094-2.191-1.548-1.474-0.831-3.022-1.624-4.532-2.417-2.23-1.134-4.459-2.303-6.612-3.703-1.134-0.717-2.38-1.323-3.59-1.888-0.832-0.377-1.626-0.756-2.38-1.21-1.398-0.869-2.569-2.040-3.928-3.363l-1.247-1.247c-2.343-2.303-3.628-4.796-5.288-8.009l-1.096-2.117c-1.361-2.569-3.174-4.759-4.949-6.912-0.945-1.134-1.89-2.267-2.757-3.477-5.025-7.063-9.445-15.414-12.355-23.499-0.489-1.323-0.983-2.607-1.474-3.891-1.096-2.757-2.117-5.365-2.795-8.238l-0.68-2.871c-1.057-4.419-2.154-9.029-3.628-13.45-3.248-9.897-4.911-19.607-4.949-28.901 0-2.681-0.036-5.365-0.036-8.011-0.071-5.062-0.106-10.047 0-15.072 0.106-3.137 0.869-6.195 1.663-9.068 0.792-2.834 1.018-5.214 1.21-7.553 0.106-1.134 0.224-2.304 0.417-3.59 0.417-3.174 1.020-6.801 1.7-9.936 0.036-0.143 0.189-0.454 0.342-0.756 0.342-0.717 0.832-1.661 1.020-2.908 0.224-1.511 0.143-2.834 0.106-4.042-0.071-1.057-0.106-2.003 0.071-2.871 0.907-3.854 1.436-7.821 1.89-11.599 0.301-2.191 0.567-4.381 0.907-6.535 0.377-2.38 0.755-4.759 1.094-7.102 0.832-5.593 1.589-10.882 2.873-16.359 0.905-3.815 1.171-7.745 1.474-11.523 0.265-3.438 0.489-6.649 1.134-9.748 0.265-1.171 0.717-2.23 1.171-3.324 0.679-1.626 1.435-3.477 1.737-5.593 0.143-1.057 0.224-2.191 0.301-3.285 0.143-2.117 0.265-4.12 0.983-5.781 0.756-1.774 2.041-3.741 3.703-5.591l1.548-1.814c2.117-2.531 2.795-3.248 4.194-3.248 0.265 0 0.528 0.036 0.868 0.071l12.543 0.036c1.134-0.036 2.154-0.071 3.25-0.107 1.7-0.071 3.399-0.189 4.987 0 0.641 0.071 1.36 0.34 2.152 0.679 1.057 0.377 2.267 0.833 3.665 1.057 9.331 1.247 15.641 3.928 17.757 7.518 1.853 3.135 2.457 4.949 2.569 7.745 0.071 2.418 0.342 3.854 1.624 6.422 0.454 0.756 0.983 1.435 1.626 2.040l-0.342 1.284 0.606 1.171c1.737 3.399 5.855 7.329 10.352 8.197 1.057 0.227 2.041 0.189 2.871 0.189 0.53-0.036 1.096-0.036 1.435 0.036 0.377 0.071 0.756 0.227 1.171 0.416 0.377 0.144 0.756 0.301 1.21 0.453 0.071 1.397 0 2.984-0.071 4.495-0.071 1.133-0.106 2.267-0.106 3.325 0 1.21 0.071 2.494 0.143 3.854 0.143 2.304 0.301 4.685-0.036 6.461-0.189 1.134-0.454 2.079-0.717 2.986-0.68 2.492-1.513 5.365-0.495 9.406 1.096 4.571 3.551 8.009 5.781 10.804 4.571 5.593 9.369 6.651 14.431 7.745 1.21 0.265 2.494 0.53 3.815 0.907 9.066 2.38 15.037-2.038 20.325-6.008 0.567-0.454 1.171-0.868 1.775-1.323 0.719 1.057 1.475 2.343 2.003 3.287 1.134 1.927 2.154 3.438 3.438 5.214l0.567 0.869c4.118 5.892 6.801 10.503 8.689 15 1.398 3.361 3.022 6.573 4.61 9.783 3.703 7.292 7.176 14.204 7.555 21.836 0.071 1.966 0.489 3.628 0.868 5.101 0.377 1.475 0.719 2.722 0.719 4.157 0 2.72 0.641 4.155 1.134 5.288 0.189 0.454 0.417 0.907 0.604 1.661 0.036 0.189-0.071 0.756-0.106 1.171-0.143 0.945-0.301 2.117-0.106 3.363 0.265 1.398 0.756 2.457 1.171 3.324 0.301 0.567 0.489 1.020 0.567 1.398 0.036 0.189-0.036 0.756-0.106 1.171-0.143 1.057-0.342 2.38 0 3.778 0.305 1.284 0.832 2.191 1.247 2.873 0.265 0.454 0.417 0.679 0.454 0.944 0.755 3.060 0.036 6.385-0.68 9.899-0.413 1.853-0.793 3.665-0.983 5.402-0.071 0.945-0.342 1.701-0.641 2.607-0.342 1.020-0.68 2.040-0.907 3.325-0.641 3.551-1.435 7.707-2.607 11.673-0.983 3.25-1.398 6.234-1.813 9.105-0.189 1.247-0.377 2.531-0.606 3.854-0.377 2.304-1.284 4.571-2.23 6.952-0.944 2.343-1.925 4.761-2.494 7.405-0.301 1.323-0.717 2.607-1.132 3.928-0.756 2.343-1.55 4.837-1.701 7.518-0.189 2.417-0.106 4.874-0.036 7.329 0.036 1.436 0.071 2.835 0.036 4.233-0.036 7.102 2.343 13.335 4.61 18.625l0.604 1.475c1.74 4.231 3.741 8.992 8.275 12.013 2.644 1.774 4.798 1.927 6.912 2.117l1.548 0.143c1.020 0.143 1.814 0.413 2.609 0.641 1.474 0.495 3.135 0.983 5.628 0.983 0.679 0 1.398 0.036 2.079 0.036 2.038 0.071 4.344 0.143 6.612-0.454 1.21-0.342 2.343-0.832 3.437-1.36 0.869-0.417 1.777-0.832 2.117-0.983 1.7-0.106 3.438-0.377 5.138-0.832l1.361-0.567 0.756-1.247c1.548-0.68 3.363-1.020 5.251-1.398 2.004-0.417 4.041-0.832 6.121-1.626 4.155-1.624 7.669-3.588 11.409-5.705l3.928-2.154c6.272-3.437 12.733-6.989 18.172-11.523 12.467-10.352 24.898-20.853 37.176-31.281 3.514-2.986 6.952-6.764 9.748-10.618-1.966 6.498-6.158 13.563-12.013 20.099-1.36 1.511-2.986 2.834-4.685 4.268-1.548 1.323-3.174 2.646-4.61 4.157-1.057 1.096-2.152 1.851-3.248 2.644-0.869 0.641-1.74 1.247-2.607 1.964-0.832 0.719-1.74 1.36-2.72 2.041-1.55 1.057-3.099 2.154-4.347 3.363-0.945 0.905-1.624 1.737-2.304 2.569-0.717 0.905-1.247 1.587-2.152 2.228-1.513 1.020-3.060 1.814-4.61 2.607-1.323 0.68-2.644 1.361-3.967 2.154-3.099 1.927-6.612 3.628-9.975 5.251l-2.947 1.435c-2.117 1.057-3.854 2.38-5.367 3.551-1.361 1.057-2.644 2.040-4.041 2.757-4.118 2.040-8.122 3.703-10.729 4.459-3.477 1.020-7.104 1.851-10.692 2.72l-4.118 0.945c-1.737 0.413-3.514 0.831-5.101 1.284-1.775 0.489-3.098 1.323-4.155 2.001-1.057 0.68-1.661 1.020-2.494 1.171l-2.72 0.454c-3.099 0.528-6.195 0.944-9.219 1.018l-2.23-0.036c-1.361 0-2.72-0.036-4.118 0-2.154 0.071-3.815 0.567-5.29 1.020-0.792 0.265-1.587 0.53-2.569 0.68-7.479 1.171-14.469-0.606-21.912-2.493-2.569-0.68-5.175-1.361-7.819-1.89-1.851-0.377-3.665-0.679-5.515-0.983-2.267-0.342-4.497-0.679-6.764-1.247l-2.455-0.641c-1.247-0.301-2.494-0.643-3.815-0.945-1.589-0.342-3.213-0.567-4.837-0.755-1.323-0.189-2.607-0.342-3.891-0.606-4.421-0.907-8.802-2.417-13.413-3.967-3.967-1.323-8.085-2.72-12.279-3.741-1.624-0.377-3.285-0.717-4.949-1.057-2.873-0.567-5.554-1.096-8.124-1.964-0.792-0.224-1.474-0.606-2.191-0.983-0.944-0.454-1.925-0.945-3.059-1.36zM318.684 758.147l-0.377-1.284c-0.983-3.399-2.003-6.385-3.854-10.010-1.436-2.797-2.117-5.404-2.91-8.425-0.342-1.247-0.717-2.569-1.134-3.928-0.377-1.323-0.792-2.834-1.21-4.384-1.358-5.251-2.944-11.219-5.853-15.337-5.025-7.063-6.877-14.581-8.085-23.649-2.001-14.886-5.061-28.563-8.31-42.427-4.004-17.227-4.534-35.511-1.474-51.53 0.831-4.459 1.398-8.615 1.925-13.071 0.643-5.175 2.117-9.823 3.703-14.735 0.643-1.964 1.284-3.928 1.853-5.971 1.737-5.892 2.417-11.976 3.098-17.871 0.945-7.858 1.814-15.338 4.911-22.139 2.834-6.272 6.422-12.355 9.862-18.209 4.193-7.141 8.537-14.509 11.787-22.518 3.213-7.858 6.799-15.678 10.239-23.233l3.665-8.124c2.154-4.759 4.004-9.709 5.742-14.469 2.117-5.668 4.271-11.56 6.952-17.001l2.117-4.347c1.435-2.984 2.871-5.971 4.381-8.841 2.494-4.685 5.591-8.728 8.879-12.996 2.23-2.871 4.419-5.744 6.461-8.802 1.774-2.72 3.514-5.515 5.251-8.312 3.287-5.251 6.649-10.69 10.389-15.527 2.343-3.021 5.175-5.666 8.161-8.462 2.457-2.267 4.987-4.647 7.292-7.255 3.324-3.891 6.156-8.199 8.877-12.355 1.21-1.851 2.417-3.703 3.665-5.515 0.945-1.36 1.966-2.644 2.947-3.928 1.018-1.284 2.038-2.607 2.984-3.967 1.7-2.418 2.644-4.911 3.59-7.329 0.567-1.511 1.134-3.059 1.925-4.497 3.060-5.552 7.745-9.557 12.733-13.751l1.284-1.096c7.178-6.121 13.563-10.995 21.158-14.923 5.705-2.908 12.355-5.062 18.739-7.104l5.101-1.661c9.443-3.135 19.872-5.062 28.862-6.573 13.79-2.267 27.881-3.401 43.183-3.401h21.271c3.325 0 6.725-0.071 10.163-0.189 9.522-0.34 19.342-0.641 28.184 1.474 11.333 2.72 24.33 8.124 33.928 14.167 1.361 0.87 2.72 1.814 4.081 2.76 2.267 1.587 4.61 3.211 7.481 4.722 2.908 1.171 5.705 2.681 7.858 4.194 2.191 2.077 4.421 4.118 6.952 6.348 0.905 0.679 1.888 1.21 2.908 1.7 1.020 0.528 2.001 1.020 2.607 1.624 2.117 2.079 4.081 5.894 5.666 8.953l0.869 1.624c1.247 2.38 2.23 4.874 3.213 7.556 0.981 2.494 1.925 4.988 3.098 7.368 2.947 5.857 4.155 11.183 3.287 14.623-0.495 2.001-1.21 3.285-2.76 4.874-1.548 1.548-3.662 3.021-4.759 3.248-0.036 0.036-0.071 0.036-0.143 0.036-0.071-0.071-0.189-0.226-0.342-0.34-2.303-2.267-4.495-4.571-6.686-6.915-2.757-2.908-5.515-5.817-8.463-8.575-4.344-4.12-8.8-7.405-14.959-10.995-2.304-1.323-4.571-2.72-6.764-4.081-6.461-3.967-13.11-8.085-20.779-10.769l-4.344-1.587c-4.8-1.774-9.788-3.59-14.888-4.724-32.868-7.403-55.083-2.077-66.077 15.869l-1.247 0.377-6.045 29.204 11.977-23.386c3.172-0.53 7.063-0.264 10.88 0 2.191 0.107 4.271 0.264 6.158 0.264h13.413c8.65 0.036 17.302 0.036 25.954 0 1.020 0 2.041-0.036 3.098-0.107 2.304-0.107 4.684-0.226 6.5 0.264 0.342 0.071 1.018 0.53 1.587 0.833 0.907 0.567 1.925 1.171 3.098 1.548 3.477 1.133 6.727 2.569 10.163 4.081 3.287 1.474 6.686 2.986 10.352 4.193 4.874 1.626 9.182 3.969 13.753 6.424l2.003 1.094c1.624 0.87 3.285 1.626 4.987 2.418 2.493 1.133 4.872 2.191 6.838 3.551 2.871 1.927 6.799 5.402 9.559 8.425l1.511 1.661c2.757 2.984 6.158 6.725 7.972 9.635 3.854 6.269 6.234 14.469 8.463 22.289 1.474 5.101 1.548 10.012 1.548 15.187 0.036 2.418 0.036 4.837 0.189 7.368 0.189 2.834 0.567 5.628 0.945 8.423 0.755 5.554 1.435 10.843 0.417 16.094-0.679 3.551-1.057 7.141-1.398 10.577-0.377 3.891-0.756 7.556-1.548 11.146-0.454 2.040-2.117 3.703-4.004 5.631-1.398 1.397-2.873 2.871-4.044 4.683-0.755 1.21-1.435 2.304-2.038 3.363-1.435 2.457-2.607 4.382-5.062 6.838-3.628 3.627-6.762 6.764-10.995 8.953-1.587 0.833-3.172 1.777-4.761 2.758-2.341 1.436-4.759 2.873-6.912 3.741-6.195 2.38-12.316 3.664-18.815 5.025l-4.798 1.020c-3.248 0.719-7.215 0.567-11.067 0.416l-3.136-0.107c-1.853-0.035-2.457-0.34-3.856-1.094-0.831-0.455-1.737-0.945-3.022-1.436-6.725-2.758-12.58-5.855-17.871-9.443-0.945-0.641-1.966-1.247-2.984-1.888-1.853-1.171-3.778-2.343-5.215-3.627-1.925-1.701-3.549-4.724-5.062-7.632-1.131-2.117-1.131-3.778-1.094-7.292 0.036-2.494-0.495-4.647-0.945-6.573-0.342-1.474-0.68-2.834-0.719-4.233-0.036-0.905 0.265-1.964 0.643-3.135 0.454-1.36 0.905-2.871 1.057-4.647 0.224-2.834 0.489-3.854 1.661-6.573 0.342-0.831 0.641-1.587 0.945-2.304 0.604-1.624 0.981-2.681 2.001-3.928 2.38-2.871 4.684-5.666 7.141-8.615 2.191-2.607 6.725-8.085 10.766-9.52 1.511-0.528 5.025-0.641 6.801-0.264 1.018 0.226 2.417 1.21 2.607 1.397-0.495 1.397-4.684 3.135-6.498 3.854-0.945 0.414-1.777 0.756-2.417 1.096-6.385 3.135-7.707 7.177-9.219 11.863l-0.981 2.834c-1.966 5.668-4.044 11.523-2.267 18.324 1.284 5.025 4.949 9.557 10.577 13.071 3.741 2.304 6.309 2.343 9.975 2.418 1.284 0 2.493 0.34 3.891 0.679 1.435 0.416 3.099 0.87 5.025 0.983l1.587 0.071c5.138 0.303 11.523 0.643 16.547-0.567 13.979-3.363 25.389-15.83 29.015-31.735 0.643-2.834 0.53-5.744 0.454-8.351-0.036-0.831-0.071-1.661-0.071-2.457-0.036-1.813 0.342-3.475 0.68-5.288 0.301-1.397 0.567-2.758 0.719-4.231 0.755-7.028-3.174-16.434-7.255-21.722-4.155-5.439-8.728-8.652-13.034-11.333-0.495-0.301-1.057-0.756-1.626-1.247-1.247-0.983-2.531-2.040-3.967-2.607-1.7-0.68-3.401-1.020-4.911-1.284-0.944-0.189-1.888-0.377-2.795-0.643-1.020-0.34-2.079-0.754-3.135-1.171-1.626-0.641-3.25-1.284-4.911-1.7-2.117-0.528-4.081-0.453-5.818-0.377-1.020 0.071-2.038 0.107-3.098 0-0.945-0.107-1.814-0.414-2.681-0.68-1.323-0.414-2.835-0.868-4.647-0.981-3.287-0.19-5.552 0.679-7.707 1.587l-1.548 0.604c-7.217 2.721-17.115 6.422-21.875 15.301-3.174 5.931-5.554 12.506-7.86 18.815-1.21 3.287-2.378 6.535-3.665 9.635-0.417 1.018-0.417 2.001-0.189 2.72-0.189 0.301-0.528 0.679-0.831 1.057-0.606 0.791-1.21 1.548-1.511 2.152-0.567 1.057-1.21 2.003-1.853 2.947-0.528 0.868-1.096 1.7-1.624 2.569-3.023 5.175-5.931 9.67-10.995 12.164-12.317 6.045-22.139 8.615-32.831 8.615-1.474 0-3.135 0.144-4.835 0.264-2.947 0.226-6.309 0.455-8.576-0.189-0.495-0.414-1.323-1.096-2.681-1.511-1.020-0.301-1.966-0.301-3.25-0.264-1.851-0.53-4.268-1.663-6.422-2.644l-2.531-1.171c-4.004-1.74-6.799-3.213-10.012-6.045-1.096-0.907-2.152-2.343-3.248-3.891-2.23-3.023-4.724-6.461-8.841-7.819-10.618-3.551-20.138-0.342-29.354 2.758l-2.304 0.791c-2.267 0.719-4.497 1.777-6.801 2.873-1.398 0.641-2.834 1.323-4.305 1.925-1.888 0.793-3.967 1.435-6.083 2.117-4.759 1.474-9.709 3.021-13.6 6.121-1.55 1.247-2.797 2.644-4.007 4.004-0.981 1.096-1.925 2.079-2.947 2.947-1.247-0.189-2.569-0.301-4.081-0.264-2.757 0.036-5.552 0.036-8.351 0h-13.147v7.104l13.147 0.036c1.096 0 2.23-0.036 3.325-0.036 1.7 0 3.438 0 5.138 0 0.106-0.036 0.23 0 0.342 0 2.003-0.036 3.628 0.226 5.288 0.679 1.134 0.301 2.23 0.68 3.551 1.133l2.569 0.833c2.004 0.641 4.12 1.171 6.195 1.7 3.25 0.833 6.309 1.587 9.18 2.834 1.398 0.567 2.72 1.474 4.12 2.418 1.323 0.907 2.644 1.777 4.118 2.531 5.138 2.644 9.443 5.478 13.524 8.916l1.020 0.833c2.947 2.531 6.309 5.365 10.012 6.838 3.174 1.284 4.874 3.137 7.178 5.668 0.792 0.905 1.624 1.813 2.569 2.758 2.38 2.418 5.062 4.571 7.632 6.649 2.908 2.304 5.628 4.497 7.896 6.951l1.398 1.513c1.661 1.774 3.363 3.588 4.421 5.327 0.528 0.87 0.905 1.7 1.284 2.531 0.717 1.587 1.511 3.361 3.022 5.101 0.489 0.528 0.832 0.87 1.134 1.171 0.489 0.49 0.489 0.49 0.945 1.661 0.905 2.38 1.964 4.647 3.022 6.875 1.361 2.947 2.644 5.705 3.551 8.615 1.171 3.551 0.036 5.931-2.191 10.163-0.567 1.133-1.171 2.267-1.737 3.514-1.020 2.154-1.701 4.419-2.417 6.686-1.057 3.363-2.041 6.573-4.081 9.295-1.777 2.492-4.384 4.419-7.104 6.461-1.548 1.134-3.059 2.265-4.497 3.512-4.796 4.194-9.142 6.271-12.541 5.818-1.701-0.189-3.477-1.21-5.857-3.401-1.361-1.284-1.435-2.077-1.7-4.231-0.143-1.171-0.305-2.417-0.643-3.815l-0.224-0.907c-0.793-3.059-0.983-3.703 0.036-6.348 1.323-3.361 2.154-5.666 2.191-9.783 0.036-2.76 0.905-6.008 2.001-9.295 0.454-0.754 1.096-1.888 1.21-3.815 0.106-2.267-0.528-3.891-1.096-5.214-0.189-0.453-0.377-0.907-0.528-1.435-1.474-5.478-3.59-12.467-6.951-17.944-3.438-5.552-8.275-7.141-12.506-8.539-1.474-0.453-2.947-0.945-4.459-1.624-4.419-2.003-9.142-2.834-12.77-3.363-0.604-0.071-1.247-0.34-2.001-0.641-0.983-0.379-2.041-0.793-3.363-1.020s-2.457-0.107-3.514-0.036c-0.717 0.036-1.398 0.071-1.851 0-2.607-0.528-4.837-1.587-7.217-2.681-3.551-1.624-7.518-3.514-12.92-3.514h-0.143l-3.741 0.036c-7.481 0-15.113 0.107-22.631 1.247-1.474 0.227-2.908 0.49-4.381 0.793-1.513 0.34-3.060 0.717-4.571 1.171-0.567 0.144-1.134 0.226-1.661 0.414-3.401 1.133-6.158 2.947-8.841 4.685-1.589 1.057-3.213 2.115-4.949 2.984-1.171 0.567-2.644 1.511-4.231 2.531-0.68 0.453-1.626 1.057-2.531 1.624-1.436 0.87-2.91 1.663-3.628 1.739l0.224 3.512 0.23 3.551c3.059-0.189 6.385-2.38 9.597-4.495 1.284-0.833 2.494-1.626 3.475-2.117 2.003-0.983 3.854-2.191 5.705-3.401 0.224-0.144 0.454-0.264 0.679-0.414-0.641 0.983-1.247 2.040-1.925 3.021-1.284 1.814-2.531 3.627-3.665 5.48-3.815 6.272-4.949 13.223-6.045 19.946-0.454 3.023-0.945 5.971-1.661 8.841-1.020 3.967-2.23 7.896-3.438 11.826-1.134 3.741-2.267 7.441-3.248 11.181-0.793 2.986-1.134 5.818-1.513 8.615-0.106 1.057-0.265 2.154-0.417 3.25-0.417 2.494-1.171 5.025-2.001 7.707-1.171 3.703-2.343 7.481-2.494 11.447-0.106 2.38-0.454 4.722-0.793 7.026-0.342 2.267-0.643 4.534-0.793 6.839-0.189 3.324-0.106 6.762-0.036 10.163 0.071 1.775 0.106 3.588 0.106 5.365v25.577c0 4.495-0.377 8.765-0.792 13.297-0.417 4.761-0.869 9.635-0.793 14.735 0.036 4.61 1.020 9.597 1.89 13.979l0.143 0.756c0.301 1.511 0.454 3.059 0.641 4.571 0.301 2.757 0.643 5.631 1.548 8.388 4.761 14.091 10.163 26.673 16.585 38.423 5.062 9.256 12.015 18.095 22.592 28.637 3.815 3.856 8.011 7.821 12.807 12.090 4.347 3.891 8.501 5.591 12.92 7.405 1.096 0.454 2.191 0.868 3.325 1.398 2.417 1.057 4.874 2.001 7.329 2.908 2.795 1.057 5.591 2.117 8.349 3.401 6.614 3.059 12.355 5.175 17.644 6.498 4.421 1.096 8.765 2.343 13.111 3.628 4.495 1.284 9.029 2.607 13.561 3.741 1.814 0.454 3.628 0.868 5.441 1.284 3.324 0.755 6.725 1.548 9.973 2.494 1.323 0.377 2.569 0.905 3.815 1.435 1.247 0.489 2.494 1.020 3.778 1.435 6.309 2.003 12.619 1.851 18.701 1.7l3.815-0.071c6.045-0.106 12.543 0.454 18.701 0.983 9.783 0.832 19.833 1.7 29.958 0.301 15.643-2.152 27.769-6.649 40.613-15 0.719-0.454 1.663-0.868 2.607-1.284 1.701-0.717 3.477-1.474 4.798-2.681 1.134-1.018 1.624-1.813 2.191-2.871 1.925-1.964 4.646-3.211 7.518-4.61 1.474-0.679 2.947-1.398 4.344-2.191 6.535-3.703 12.279-8.728 17.794-13.601 2.908-2.531 5.781-5.062 8.728-7.368 5.327-4.118 8.576-10.352 11.749-16.359 1.171-2.228 2.304-4.419 3.551-6.422 4.837-7.896 10.653-18.625 12.694-31.885 1.361-8.953 3.815-17.908 6.195-26.56 0.945-3.324 1.851-6.686 2.72-10.010 2.154-8.351 2.079-16.625 2.041-24.596 0-2.23 0-4.458 0-6.725 0.189-12.129-4.233-25.011-13.111-38.233-0.868-1.284-1.624-2.72-2.417-4.118-1.171-2.154-2.38-4.347-4.041-6.422-2.154-2.722-4.571-3.969-6.951-5.214-0.606-0.305-1.284-0.643-1.966-1.020l-2.494-1.474c-3.703-2.191-7.933-4.684-12.201-5.971-1.475-0.413-3.023-0.68-4.571-0.907-1.134-0.189-2.267-0.342-3.363-0.641-0.981-0.265-2.265-0.454-3.665-0.567 7.632-1.21 15.907-1.020 24.408-0.717 4.004 0.143 8.462 1.851 12.733 3.512 1.36 0.495 2.681 1.020 4.004 1.475 4.798 1.7 7.819 3.549 10.766 6.573 6.309 6.498 11.372 16.205 14.243 27.314 1.134 4.459 2.723 8.765 4.27 12.957 0.567 1.626 1.171 3.25 1.737 4.837 1.587 4.534 2.154 9.862 2.681 15 0.224 2.003 0.417 3.928 0.68 5.818 0.983 7.253 0.945 17.794-2.117 25.577-1.511 3.778-2.304 7.481-3.098 11.106-0.68 3.287-1.36 6.385-2.493 9.408-1.323 3.514-2.91 7.063-4.459 10.616-3.324 7.442-6.725 15.15-8.197 23.233-1.435 7.861-3.628 15.981-5.744 23.802l-1.171 4.344c-1.323 4.874-2.681 9.672-4.872 14.206-0.907 1.851-1.663 3.741-2.417 5.628-1.361 3.401-2.644 6.612-4.911 9.369-2.795 3.401-6.121 6.309-9.597 9.332-3.59 3.172-7.329 6.461-10.503 10.352-1.813 2.267-3.363 2.947-6.989 4.532-3.25 1.475-5.894 3.477-8.425 5.404-2.304 1.774-4.497 3.437-6.952 4.532-2.077 0.945-4.344 1.626-6.762 2.343-1.851 0.53-3.703 1.096-5.515 1.777-3.287 1.247-6.422 2.757-9.597 4.305-1.851 0.869-3.665 1.775-5.515 2.569-9.408 4.193-19.004 6.083-29.204 8.085l-5.252 1.057c-18.514 3.815-36.345 3.815-55.197 3.815h-25.086c-2.154 0-4.308 0.071-6.498 0.106-4.837 0.189-9.823 0.377-14.32-0.377-4.419-0.68-8.916-1.853-13.297-2.984-3.628-0.945-7.255-1.89-10.882-2.607l-5.439-1.020c-5.439-1.020-10.54-1.966-15.678-3.551-2.041-0.606-4.041-1.057-6.045-1.511-2.493-0.567-4.798-1.057-7.028-1.89l-3.285-1.21c-4.231-1.511-8.199-2.908-12.090-5.214-3.211-1.851-6.573-3.172-9.821-4.458-3.213-1.247-6.272-2.456-9.066-4.12-2.531-1.548-5.29-2.871-8.011-4.193-3.135-1.511-6.083-2.947-8.728-4.646-3.211-2.117-7.215-6.575-9.331-10.466-0.793-1.474-1.624-2.984-2.494-4.495-2.834-5.025-5.779-10.239-7.481-15.377-2.038-6.158-4.004-12.694-4.911-18.777-0.301-2.117-0.265-4.231-0.23-6.461 0.035-1.361 0.071-2.681 0-4.081-0.143-5.025-1.511-9.709-2.871-14.206zM841.45 531.552c-2.569-9.029-5.214-17.339-6.535-26.786-0.983-6.989-1.966-14.091-3.703-20.966-1.284-5.251-3.325-10.239-4.61-15.49-4.155-17.341-8.916-34.834-12.089-52.402-0.643-3.512-0.643-6.838-1.853-10.239-1.284-3.588-3.324-6.875-4.761-10.426-2.758-6.838-5.929-13.753-8.159-20.741-3.135-9.748-8.689-18.172-11.824-27.881-3.023-9.293-8.765-16.774-11.333-26.257-4.724-17.339-8.199-35.36-15.83-51.833-8.499-18.211-17.945-36.458-29.808-52.855-3.514-4.837-7.178-9.331-10.276-14.507-1.474-2.457-2.871-5.291-4.911-7.368-2.079-2.079-4.571-3.363-6.422-5.744-2.607-3.361-4.118-7.518-6.121-11.181-2.607-4.837-5.515-9.295-9.975-12.619-6.498-4.798-11.486-10.391-17.605-15.604-12.24-10.426-25.348-19.418-38.196-29.088-15.301-11.487-30.335-23.765-46.809-33.588-5.29-3.135-10.655-6.008-15.906-9.142-1.813-1.096-4.004-1.397-4.458-3.363-5.404-3.664-8.992-6.725-12.467-8.236-3.967-1.739-8.238-1.134-12.543-1.134-6.385-0.035-12.77 0-19.155 0-7.292 0-12.316 0.49-19.342 2.079-13.036 2.871-25.199 5.552-36.609 12.883-2.757 1.774-5.288 4.081-7.819 6.119-2.607 2.117-3.778 4.837-6.121 7.104-4.193 4.155-9.331 6.498-14.394 9.142-3.703 1.966-6.952 4.837-10.806 6.612-2.871 1.284-5.892 1.739-8.728 3.137-13.034 6.535-22.969 19.041-33.359 28.977-10.465 10.049-18.701 20.853-25.803 33.359-10.389 18.285-19.948 37.062-28.75 56.141-11.221 24.293-34.756 38.497-48.923 60.825-6.309 9.975-10.956 20.741-15.301 31.584-2.986 7.403-8.576 14.28-13.036 20.853-5.175 7.595-12.467 13.45-17.075 21.497-3.098 5.365-5.101 11.259-8.159 16.624-3.928 6.875-8.388 12.693-11.109 20.251-2.457 6.725-4.344 13.677-6.385 20.552-2.795 9.485-4.837 19.268-8.351 28.525-2.077 5.515-4.949 10.766-6.838 16.319-3.022 8.992-5.591 17.794-6.875 27.279-3.514 25.614-1.853 51.079 3.135 76.429 1.474 7.555 3.551 15.15 4.381 22.819 0.869 8.159-0.106 16.925-0.106 25.162 0 13.487 1.663 28.297-0.342 41.671-1.774 11.789-2.644 22.969-1.398 34.834 1.057 10.163 2.38 20.779 4.761 30.752 2.23 9.369 5.327 18.361 6.385 27.994 0.755 6.799 2.72 12.957 5.101 19.342 3.248 8.615 5.892 17.493 9.18 26.032 2.079 5.402 5.666 10.352 8.802 15.225 2.871 4.381 4.987 8.8 7.595 13.335 3.891 6.762 9.256 13.413 13.979 19.721 10.729 14.394 24.556 28.901 38.157 40.764 11.486 10.010 25.69 16.168 39.517 21.457 6.121 2.343 11.636 5.818 16.774 10.087 4.459 3.703 7.972 7.292 13.299 9.748 4.344 1.966 8.349 4.193 12.579 6.271 9.672 4.761 21.345 5.971 31.547 9.635 9.258 3.362 18.588 7.441 28.184 9.633 5.404 1.247 10.655 2.871 15.981 4.193 5.402 1.284 10.843 0.869 16.359 0.869 9.142-0.036 18.322 0 27.464 0 22.518 0 44.391-0.567 66.682-4.724 5.591-1.018 11.447-1.435 16.925-2.908 6.799-1.851 12.43-6.309 18.928-8.841 9.899-3.854 19.911-7.632 29.581-11.824 5.818-2.531 11.296-5.857 17.19-8.312 4.571-1.925 9.369-3.059 14.017-4.722 12.089-4.308 23.347-11.221 35.399-15.83 9.633-3.703 15.113-8.236 21.762-16.018 12.089-14.056 25.047-27.052 35.286-42.654 9.936-15.263 22.178-29.393 31.17-45.108 8.312-14.546 18.398-28.637 24.593-44.354 6.008-15.15 13.94-29.204 19.571-44.542 6.762-18.4 8.916-38.082 12.127-57.237 1.435-8.689 1.663-19.041-0.036-27.656-1.134-5.705 0.036-8.765 0.869-14.243 0.792-5.441-0.454-11.372-0.143-16.89 0.301-6.385 2.871-12.733 3.211-19.155 0.417-7.782 1.548-15.225 1.548-23.121-0.036-6.612 0.907-13.903-0.868-20.251z"></path>
    </svg>