<svg xmlns="http://www.w3.org/2000/svg" viewBox="-12.563 -18.512 1060.230 1072.521">
    <path fill="#000000" d="M465.697 105.119c-12.288-32.027 3.31-43.631 54.703-40.677 45.433 2.603 49.136 4.588 49.136 26.176 0 21.598-3.706 23.562-49.136 26.174-37.631 2.205-50.44-0.662-54.703-11.67z"></path>
    <path fill="#000000" d="M462.13 165.341v-28.019h112.076v56.037h-112.076z"></path>
    <path fill="#000000" d="M379.847 270.409l2.891-35.023h270.847l2.912 35.023 2.891 35.023h-282.446z"></path>
    <path fill="#000000" d="M322.037 417.512v-84.056h392.262v84.056c0 46.231-2.36 84.056-5.251 84.056s-47.022-17.34-98.065-38.516l-92.806-38.516-92.806 38.516c-51.040 21.179-95.171 38.516-98.065 38.516-2.891 0-5.251-37.825-5.251-84.056z"></path>
    <path fill="#000000" d="M536.847 615.621v-150.948l21.025 8.074c65.109 24.995 274.382 115.999 281.055 122.221 8.737 8.163-0.441 27.881-46.829 100.898l-31.49 49.525-25.799-18.377c-55.45-39.485-121.111-33.747-172.266 15.046l-25.684 24.502z"></path>
    <path fill="#000000" d="M472.432 740.802c-44.579-47.554-122.157-53.994-172.585-14.318l-24.087 18.951-31.498-49.544c-46.446-73.057-55.587-92.757-46.839-100.961 4.324-4.059 73.015-34.884 152.634-68.5l144.762-61.117 2.713 74.172c1.545 40.795 1.545 108.157 0 149.693l-2.713 75.521z"></path>
    <path fill="#000000" d="M205.292 847.56c-10.282-4.258-28.753-18.576-41.067-31.825-12.311-13.259-36.479-28.75-53.703-34.434-33.417-11.031-43.085-39.729-16.79-49.822 20.165-7.721 69.715 15.001 96.837 44.401 15.245 16.525 32.263 24.552 52.073 24.552 19.812 0 36.835-8.030 52.074-24.552 29.253-31.72 72.080-49.728 103.839-43.657 13.833 2.648 41.821 19.084 62.191 36.508 44.469 38.063 74.424 40.106 104.819 7.147 53.661-58.189 118.475-59.41 172.282-3.242 34.768 36.29 76.283 37.541 107.905 3.242 27.378-29.688 76.741-52.113 97.331-44.212 24.584 9.443 12.885 43.222-17.782 51.375-14.936 3.97-40.26 19.922-56.296 35.469-51.983 50.385-108.642 46.040-163.354-12.531-30.505-32.655-65.061-31.403-98.565 3.575-54.476 56.861-123.39 56.861-177.865 0-33.647-35.119-68.13-36.254-98.567-3.242-22.758 24.681-72.429 50.673-94.723 49.573-6.574-0.441-20.385-4.059-30.653-8.318z"></path>
    <path fill="#000000" d="M222.851 945.644c-6.817-17.759 3.177-33.134 21.554-33.134 8.074 0 30.68-14.472 50.259-32.163 60.892-55.012 119.777-52.362 176.099 7.92 13.37 14.296 32.794 24.238 47.405 24.238 14.605 0 34.043-9.928 47.405-24.238 55.934-59.87 115.164-62.923 174.966-9.023 18.951 17.075 42.874 32.669 53.145 34.624 11.207 2.205 18.686 10.965 18.686 22.109 0 13.789-7.192 19.238-28.019 21.202-21.268 1.985-38.946-6.419-73.397-35.023-24.958-20.716-50.969-37.673-57.804-37.673-6.839 0-31.849 16.811-55.587 37.359-34.365 29.743-50.548 37.358-79.387 37.358-28.837 0-45.019-7.611-79.386-37.358-23.74-20.54-49.065-37.359-56.28-37.359s-26.922 12.002-43.796 26.649c-55.379 48.109-104.968 62.877-115.857 34.507z"></path>
    </svg>