<svg xmlns="http://www.w3.org/2000/svg" viewBox="64.908 8.002 953.660 1007.997">
    <path fill="#000000" d="M507.23 493.374l1.332 1.122 0.252-1.781zM333.889 626.186c-3.018 1.824-2.673 4.010-0.35 6.031 0.252 0.282 1.484 0 1.731-0.42 1.534-2.328 1.332-4.349-1.389-5.639zM791.009 605.922c-7.227 0.282-8.362 2.82-6.73 7.127 4.354 0.981 5.938-1.431 6.73-7.127zM778.739 356.178c0.099-0.841 0.549-1.781 0.35-2.468-2.079-5.933-6.878-9.103-12.619-10.744-0.294-0.099-2.375 2.918-2.276 4.349 0.294 5.696 4.75 8.065 9.253 9.805 1.436 0.561 3.465-0.561 5.294-0.981zM911.606 442.881c-16.428 2.468-23.851 11.040-29.987 22.563 7.275 0.561 13.906 2.723 20.288-1.487 5.492-4.754 6.333-11.784 9.698-21.078zM704.616 339.606c12.619 0.282 23.109 1.487 33.353 4.754 6.333 2.076 13.607 2.174 16.182-6.83-15.933-12.568-31.668-14.747-49.532 2.076zM766.868 440.453c-3.215-20.336-18.557-29.441-31.668-42.060-12.024 10.098-7.227 20.833-7.127 31.323 11.926 6.241 21.030 17.073 38.795 10.732zM495.005 563.167c-7.472 6.83-14.152 16.625-19.349 27.463-3.315 14.846-0.393 28.998 4.502 43.201 6.878 2.623 11.332-0.841 14.598-5.189-2.178-34.291 17.815-64.971 14.747-99.759-15.043 7.127-7.075 20.883-14.498 34.293zM534.89 296.009c-22.465-19.743-47.406-32.956-77.59-33.153-11.429-0.139-21.227-4.208-31.569-7.574-4.799-1.584-10.043-8.065-15.538-0.561 1.037 12.723 14.449 15.34 20.14 24.493 23.505 38.598 60.32 65.516 89.318 99.264 4.057 4.853 10.54 5.794 14.747-3.015-4.699-10.143-9.6-20.883-14.846-32.312 11.332-12.216 13.856-27.563 15.341-47.206zM829.214 484.969c-0.786-1.724 0.786-6.775-4.008-2.876 1.633 0.702 3.215 1.404 4.849 2.076-1.583 15.141 9.104 18.704 24.742 25.979-5.097-17.417-12.965-23.753-25.582-25.189zM499.012 688.29c9.056-9.903 4.502-21.030 4.305-33.451-9.301 11.922-6.878 22.961-3.515 34.145-9.353 3.703-7.57 7.477 0 11.43-1.484 7.969-14.301 11.137-9.995 21.969 14.698-4.109 14.698-4.109 9.104-21.328 0-4.307 0.049-8.557 0.099-12.765zM144.908 88.502c36.023 3.815 66.061 19.693 92.584 45.523 8.511 0.841 17.616 1.724 27.018 5.288 23.009 8.656 47.305 13.859 71.008 20.485 33.55 9.301 66.011 21.128 95.999 39.192 9.253 5.54 19.943 8.712 29.987 12.96 8.908 3.717 17.319 3.17 27.066-3.465-9.453-19.446-28.157-27.365-44.585-38.2-17.073-11.334-33.501-23.851-53.935-38.399 34.638-2.876 58.638 12.568 84.27 24.298 26.176 12.021 48.345 29.888 70.86 44.633 11.429-2.034 8.711-11.474 12.865-14.648-0.996-16.032-24.839-22.763-12.471-40.923 7.472-1.781 10.589 3.717 14.746 8.024 13.856 14.648 30.236 25.882 48.048 35.184 5.988 3.113 11.332 3.717 16.428-4.796-10.442-27.909-39.192-51.118-33.253-89.713 46.861 24.347 82.983 60.075 125.788 85.014 11.479-14.449-12.519-20.485-4.454-35.133 10.785 10.338 21.427 19.895 31.274 30.236 29.542 31.223 63.143 57.401 98.62 81.449 16.528 11.137 32.065 23.406 35.48 45.229 2.079 12.723 12.519 19.844 20.14 28.403 2.97 8.809 0.294 18.505 6.135 26.274-2.87 5.189-5.642 10.297-8.511 15.489-20.485 2.034-20.485 2.034-27.611 21.969 11.68-6.031 20.685-12.723 26.869-22.863 8.116 6.34 17.815 8.317 28.008 7.615 1.981 16.032 14.301 25.384 14.795 40.428 0.492 13.999-11.729 26.274-3.265 39.29-4.9 7.027-8.661 12.723-12.422 18.159 3.957 7.574 11.479 12.216 12.519 20.735-3.415 18.109-22.564 8.908-32.214 19.348-4.107 11.727-0.153 26.524-7.025 37.806 8.559 24.247 12.668 47.703 12.568 72.642-2.523 6.733-3.215 17.667-8.559 20.981-16.083 9.846-24.148 26.127-36.322 38.894-3.86 4.010-10.49 5.344-16.576 8.221-5.492-8.851 5.344-14.052 2.97-22.762-12.024 0.099-19.594 19.249-34.39 9.496-2.673-7.574 5.443-14.648 1.931-22.514-1.534-0.702-3.265-2.034-4.849-1.836-8.759 0.841-15.489 9.748-28.108 5.344 0.45-9.16 8.511-19.843 0.59-29.986-3.76 2.076-7.817 4.307-12.865 7.082-19-11.487-9.698-40.379-30.183-51.218-4.406 21.379 3.215 47.554-24.839 60.371-12.816-11.43-15.24-28.55-27.858-42.802-5.097 23.453-17.616 40.873-26.869 59.725-22.17 44.831-36.617 91.345-13.856 144.394 4.551-17.172 8.511-32.017 12.371-46.514 12.519 1.683 15.933 11.137 22.415 16.723 3.957 9.706-1.484 23.258 13.361 28.9 2.773-1.122 6.433-2.426 10.243-3.815 12.519 3.955 11.135 17.318 16.528 26.127 14.648-6.185 20.239-18.901 24.989-33.254 12.865 2.272 17.716 12.819 23.454 17.517 19.894 56.954-7.374 84.417-69.821 101.095-41.764 7.42-94.415-5.441-147.462-25.532-10.787 4.754-23.009 5.344-36.47 3.41-10.043-25.139-20.288-50.673-31.026-77.492 2.473-12.414 6.333-25.831 5.642-39.984-0.59-12.819-0.786-25.881 5.642-36.666-3.315-6.635-7.424-8.416-16.28-5.933-1.681 32.709-12.816 64.971-13.213 99.858-0.492 34.291 11.529 65.663 18.557 102.134-25.681-11.43-33.053-35.677-50.769-48.197-4.9-23.95-13.755-45.624-24.396-67.495-12.965 6.635-9.65 26.029-27.018 27.76-14.498-14.499-6.632-38.747-19.299-55.471 1.236-1.431 3.167-3.717 6.333-7.42-12.619-17.368-2.079-38.45-6.086-59.232-15.834-4.054-22.121 6.283-28.206 16.279-7.175 11.826-11.282 25.882-27.116 33.896-3.612-9.201-4.502-18.259-2.276-27.266 5.294-22.121 3.118-45.229 14.992-66.654 6.036-11.040 4.552-26.771 11.479-38.1-6.778-9.496-17.17-7.519-26.226-12.723-2.571-21.969 10.59-42.802 8.461-67.197-18.358-0.42-29.393 14.449-44.089 20.882-14.398 6.383-26.176 16.331-40.428 26.473 6.433-64.476 45.624-104.311 94.76-142.364-20.537-1.781-32.114 7.912-45.427 15.636-9.056-20.783 7.769-24.989 17.022-33.501-3.909-11.727-16.428-7.519-19.643-4.994-18.557 14.302-41.912 18.31-60.916 30.978-7.275 4.896-13.906 10.942-20.485 16.231-5.541-1.934-6.533-6.733-5.196-9.651 11.035-24.691 16.528-52.798 41.764-69.029 4.949-3.212 9.153-7.912 13.064-12.329 26.078-29.393 62.249-38.745 97.532-50.126 3.515-1.122 7.817-0.048 12.766-0.048 9.501 14.548 23.257 23.9 39.041 30.978 9.056 4.010 17.568 9.651 23.703 17.467 17.716 22.465 39.983 38.101 66.952 47.256 1.093 12.723 6.828 21.227 20.041 24.742 2.226-20.882 2.226-20.882-20.833-23.803 0.153-14.497-10.145-24.147-18.557-32.856-22.070-22.612-45.229-44.288-69.672-64.279-17.467-14.399-30.877-30.383-36.668-52.402-0.786-2.82-0.841-6.241-2.523-8.458-33.846-45.772-61.013-97.483-114.060-125.688-9.65-5.189-18.507-11.334-26.226-19.349-9.104-9.301-19.743-16.824-31.966-21.921-17.913-7.322-31.966-19.249-41.813-36.022z"></path>
    </svg>