<svg xmlns="http://www.w3.org/2000/svg" viewBox="11.339 -20.289 1003.381 1064.580">
    <path fill="#000000" d="M601.167 306.372c-9.113 0.963-18.692-0.35-27.906 0.306-3.691 0.262-7.25 0.833-10.812 1.432-4.823-1.095-9.546-2.33-14.602-3.56-3.957-0.932-8.646-2.163-13.039-2.561-4.889-0.438-5.621 0.732-6.884-1.796-0.865-1.659-0.998-3.394-1.995-5.122-2.429-4.191-4.391-8.615-6.353-12.839-2.728-5.887-3.759-11.773-5.523-17.728-1.828-6.153-4.222-12.24-6.085-18.394-0.14-0.464-0.202-0.963-0.332-1.432 0.166-4.922 0.231-9.846-0.032-14.701-0.698-13.239-5.157-26.278-6.021-39.515-0.632-9.414-0.863-19.824 0.267-29.17 2.228-18.394 6.019-36.355 12.074-53.983 2.128-6.153 3.059-11.042 3.028-17.329 0-2.33-0.298-4.755 0.091-7.086 0.332-1.76 3.094-5.621 2.429-7.316-1.029-2.728-11.042-1.196-13.57-1.533-6.353-0.862-13.307-2.93-19.957-2.894-0.202-1.033-0.665-1.996-1.83-2.793 0.032 0.175 0.032 0.35 0.062 0.534l-0.109-0.566c0 0 0 0 0.032 0.031-0.863-8.646-3.459-2.027-3.459-0.394 0 1.295 0 2.561 0 3.823-1.597 0.566-2.261 1.562-4.123 2.597-2.695 1.528-6.12 1.562-9.014 2.728-3.158 1.266-5.986 3.197-9.113 4.459-4.79 1.897-10.311 1.866-15.3 3.358-4.69 1.362-9.414 2.961-14.27 3.591-1.33 0.175-4.092-0.464-4.591 0.968-0.597 1.63 2.563 3.857 3.36 5.188 3.227 5.188 4.691 11.109 6.985 16.597 2.429 5.688 6.287 10.61 8.648 16.298 4.591 11.011 8.249 22.385 12.64 33.463 3.724 9.445 9.811 17.795 13.070 27.507 1.231 3.661 2.429 7.384 3.559 11.143-0.498 5.819-0.368 11.608-0.931 17.463-0.898 9.113-2.359 18.293-3.625 27.441-0.865 6.487-1.962 12.939-3.691 19.392-1.762 6.586-4.624 13.472-4.69 20.090-0.062 4.557 0.062 9.113 0.062 13.637 0 1.664 0.368 3.394 0.062 5.023-0.465 2.662-5.523 3.524-9.978 4.755-11.808 3.293-23.515 6.785-34.825 10.511-4.625 1.528-9.080 3.227-13.471 4.956-2.763-0.044-5.554-0.088-8.084 0.218 1.396 0.438 2.861 0.833 4.291 1.266-0.599 0.218-1.231 0.464-1.83 0.696-1.995 0.797-5.221 2.561-7.882 2.728 7.384-0.631 15.1-0.088 22.651-0.132 1.197 0.262 2.396 0.6 3.625 0.833 9.879 1.861 17.829 4.691 27.041 7.551 3.957 1.23 8.615 2.764 13.039 3.262 4.889 0.566 5.621-0.898 6.884 2.294 0.865 2.163 0.998 4.321 1.995 6.553 2.429 5.354 4.391 11.009 6.353 16.399 2.728 7.483 3.759 15.001 5.523 22.584 1.828 7.85 4.224 15.632 6.085 23.483 1.863 7.818 1.797 15.767 3.493 23.649 2.396 11.077 5.355 21.788 6.653 32.963 1.13 9.679 3.325 19.291 4.525 28.97 1.496 11.876 1.828 23.75 2.527 35.624 1.365 22.184 2.728 44.338 3.028 66.522 0.166 10.045 2.028 20.057 1.828 30.102-0.062 2.793-1.029 6.419 1.797 8.914 0-0.218-0.032-0.438-0.062-0.701 0.032 0.218 0.062 0.498 0.091 0.732 0 0 0-0.032-0.032-0.032 0.865 11.043 3.459 2.561 3.459 0.464 0.032-6.783 0-13.603 0-20.421 0-17.096 0.433-33.895 1.964-50.956 1.631-18.394 1.264-36.822 2.893-55.248 0.931-10.478 0.231-20.854 2.128-31.299 1.995-10.777 1.297-21.521 2.128-32.33 0.865-11.641 2.33-23.384 3.592-34.992 0.865-8.316 1.964-16.53 3.691-24.781 1.764-8.381 4.624-17.162 4.69-25.611 0.062-5.821-0.062-11.608-0.062-17.395 0-2.097-0.363-4.357-0.062-6.419 0.467-3.358 5.523-4.459 9.978-6.054 11.809-4.225 23.515-8.681 34.825-13.405 3.059-1.295 6.019-2.694 8.947-4.090 4.224-0.044 8.715 0.218 12.607-0.218-2.695-0.665-5.521-1.295-8.35-1.897 1.964-0.999 3.926-1.962 5.887-2.961 1.995-0.999 5.223-3.227 7.882-3.459z"></path>
    <path fill="#000000" d="M407.903 717.63c9.113-0.963 18.694 0.35 27.906-0.306 3.693-0.262 7.252-0.833 10.812-1.432 4.823 1.099 9.546 2.33 14.602 3.56 3.957 0.963 8.615 2.159 13.039 2.561 4.889 0.438 5.621-0.732 6.884 1.796 0.865 1.664 0.998 3.394 1.995 5.122 2.429 4.191 4.391 8.615 6.353 12.839 2.728 5.887 3.759 11.773 5.523 17.728 1.828 6.153 4.224 12.273 6.085 18.394 0.14 0.498 0.202 0.963 0.332 1.432-0.166 4.955-0.231 9.846 0.032 14.7 0.698 13.239 5.157 26.278 6.021 39.515 0.632 9.414 0.865 19.824-0.267 29.17-2.23 18.394-6.021 36.355-12.075 53.983-2.128 6.153-3.059 11.042-3.028 17.329 0 2.33 0.298 4.757-0.091 7.086-0.332 1.76-3.094 5.621-2.429 7.316 1.029 2.728 11.042 1.196 13.57 1.533 6.353 0.867 13.307 2.93 19.957 2.894 0.202 1.033 0.634 1.996 1.83 2.793-0.032-0.175-0.032-0.35-0.062-0.534 0.032 0.218 0.062 0.394 0.091 0.566 0 0-0.032 0-0.032-0.032 0.865 8.648 3.459 2.027 3.459 0.394 0-1.295 0-2.561 0-3.828 1.562-0.566 2.262-1.562 4.123-2.597 2.695-1.528 6.122-1.562 9.014-2.728 3.16-1.266 5.986-3.192 9.113-4.459 4.79-1.897 10.311-1.861 15.3-3.324 4.656-1.396 9.414-2.995 14.27-3.625 1.332-0.175 4.092 0.464 4.591-0.963 0.597-1.63-2.561-3.857-3.395-5.188-3.193-5.156-4.655-11.109-6.951-16.597-2.429-5.688-6.287-10.61-8.648-16.298-4.589-11.011-8.249-22.385-12.638-33.462-3.726-9.445-9.813-17.795-13.072-27.507-1.231-3.661-2.429-7.384-3.559-11.143 0.498-5.82 0.399-11.609 0.931-17.463 0.898-9.113 2.361-18.293 3.625-27.406 0.865-6.52 1.962-12.972 3.691-19.425 1.762-6.586 4.624-13.471 4.69-20.090 0.062-4.557-0.062-9.113-0.062-13.636 0-1.633-0.368-3.394-0.062-5.023 0.467-2.662 5.523-3.524 9.978-4.755 11.809-3.293 23.515-6.785 34.825-10.511 4.624-1.528 9.079-3.227 13.471-4.955 2.761 0.044 5.554 0.088 8.082-0.218-1.396-0.438-2.861-0.833-4.291-1.261 0.599-0.218 1.231-0.469 1.83-0.701 1.995-0.797 5.223-2.561 7.882-2.728-7.384 0.631-15.1 0.088-22.651 0.132-1.197-0.262-2.394-0.6-3.625-0.833-9.879-1.866-17.829-4.691-27.042-7.551-3.957-1.199-8.615-2.764-13.039-3.262-4.889-0.566-5.621 0.932-6.884-2.294-0.865-2.163-0.998-4.326-1.995-6.554-2.429-5.355-4.391-10.977-6.353-16.397-2.728-7.483-3.759-15.001-5.523-22.587-1.828-7.848-4.222-15.631-6.085-23.482-1.863-7.817-1.797-15.767-3.493-23.616-2.396-11.109-5.355-21.819-6.653-32.995-1.13-9.679-3.325-19.291-4.523-28.971-1.496-11.876-1.83-23.75-2.528-35.624-1.365-22.184-2.728-44.338-3.026-66.521-0.166-10.045-2.029-20.057-1.83-30.103 0.062-2.793 1.031-6.419-1.797-8.913 0 0.218 0.032 0.438 0.062 0.696-0.032-0.218-0.062-0.498-0.091-0.732 0 0 0 0.032 0.032 0.032-0.863-11.042-3.459-2.561-3.459-0.464-0.032 6.785 0 13.603 0 20.421 0 17.096-0.433 33.895-1.964 50.956-1.631 18.394-1.264 36.822-2.892 55.248-0.931 10.478-0.231 20.853-2.128 31.299-1.995 10.777-1.297 21.521-2.128 32.331-0.865 11.641-2.33 23.383-3.592 34.992-0.865 8.317-1.962 16.531-3.691 24.782-1.762 8.38-4.624 17.162-4.69 25.644-0.062 5.788 0.062 11.575 0.062 17.395 0 2.063 0.368 4.321 0.062 6.385-0.467 3.358-5.523 4.49-9.978 6.055-11.808 4.225-23.515 8.683-34.825 13.405-3.061 1.295-6.021 2.694-8.949 4.090-4.224 0.044-8.715-0.218-12.607 0.218 2.695 0.665 5.521 1.295 8.35 1.897-1.964 0.999-3.926 1.962-5.887 2.961-1.995 0.999-5.221 3.227-7.882 3.459z"></path>
    <path fill="#000000" d="M455.625 497.399c-1.729 0.394-1.697-0.438-3.028-0.732-2.094-0.464-4.091-0.701-6.285-0.797-10.079-0.35-20.256 0.044-30.335 0.044h-70.282c-39.681 0-79.361 0-119.044 0-7.551 0-15.732 0.898-23.217-0.35-6.186-0.999-11.542-1.129-17.86-1.129-10.445 0.032-20.923 0-31.367 0h-44.373c-3.259 0-9.346-1.165-12.407-0.132-3.158 1.029-4.091 7.185-4.789 10.577-0.599 2.764-0.267 5.721-0.267 8.549 0 2.592 0.031 5.188 0 7.782-0.031 2.86 0.566 3.625 1.13 5.955 1.132 4.49-2.162 17.428 1.631 20.024 2.328 1.593 12.14-1.83 12.938-2.032 8.216-2.193 15.866-4.191 24.347-5.521 8.415-1.295 16.864-2.961 25.312-3.893 10.777-1.196 21.953-0.306 32.729-0.306h36.822c16.298 0 32.862 0.833 49.161 0.088 8.514-0.35 17.263-2.694 25.711-3.792 9.247-1.165 18.56-1.897 27.375-4.922 6.12-2.128 12.008-2.961 18.293-4.523 2.33-0.566 4.424-1.463 6.653-2.26 4.323-1.562 8.016-1.765 12.508-2.33 7.185-0.898 14.036-3.524 21.319-4.124 5.523-0.438 10.645-0.797 16.133-1.76 7.95-1.432 14.935-3.096 22.752-5.721 3.493-1.196 7.185-3.757 10.744-4.291 3.426-0.498 6.919-1.064 17.696-4.457z"></path>
    <path fill="#000000" d="M562.554 494.472h342.596c4.422 0 8.846 0.032 13.27 0 4.922 0 11.942-1.497 16.3 1.23-0.399 6.518-3.059 12.607-3.059 19.258 0 2.163-0.062 4.025 0.332 6.186 0.14 0.833 1.896 5.854 1.264 7.184-0.865 1.796-1.33 1.196-3.227 1.331-8.381 0.498-16.93-0.032-25.278-0.032h-41.577c-23.349 0-47.131 1.528-70.247-1.83-18.227-2.662-36.489-4.689-54.682-7.65-18.96-3.127-37.884-6.685-57.142-6.653-15.365 0.032-30.735-0.088-46.067 0.032-8.481 0.088-16.164-2.626-24.448-4.090-5.986-1.033-12.107-1.533-18.126-2.496-4.291-0.696-7.95-2.395-12.041-3.394-4.99-1.23-9.115-2.527-13.739-4.724-3.493-1.63-9.048-2.961-4.123-4.357z"></path>
    <path fill="#000000" d="M533.255 330.422c0-0.394 0-0.797 0-1.196 9.048-1.83 18.859-3.459 28.038-4.321 12.673-1.23 25.212-3.324 37.919-3.324 14.569 0 27.674 3.69 39.881 11.74 3.857 2.561 9.414 4.89 12.506 8.282 1.562 1.664 2.396 4.256 3.592 6.086 1.463 2.294 3.493 3.958 4.69 6.352 4.257 8.616 3.66 20.125 3.726 29.436 0.062 7.651-2.495 14.637-7.75 20.322-5.453 5.921-10.643 9.18-18.626 11.609-6.221 1.861-14.036 2.294-20.489 1.129-4.057-0.701-8.514-2.063-12.107-4.059-3.493-1.931-6.252-5.488-6.985-0.175-0.898 6.419 3.127 13.138 6.985 17.661 2.394 2.829 3.992 4.457 8.016 5.587 5.587 1.533 11.674 1.866 17.395 1.796 10.843-0.088 19.425-1.165 28.903-6.984 4.257-2.592 7.384-5.987 10.843-9.48 4.158-4.124 9.612-7.883 13.237-12.273 6.12-7.516 10.976-18.527 12.508-28.073 1.363-8.282-0.865-16.863-2.927-24.814-2.627-10.211-8.547-19.059-13.97-28.007-2.33-3.792-5.921-8.947-9.148-12.074-3.792-3.695-8.914-5.455-13.603-7.551-11.077-4.99-25.246-5.554-37.387-5.523-6.085 0.032-12.938 0.732-18.991-0.35-7.151-1.23-14.369-2.829-21.586-3.76-6.353-0.833-12.905-0.306-19.293-0.306-10.377 0-20.854-0.35-31.231-0.044-7.95 0.218-15.701 1.497-23.651 1.497-8.281 0.032-16.397 2.395-24.679 2.961z"></path>
    <path fill="#000000" d="M489.311 689.283h-29.936c-15.966 0-32.431 1.266-48.196-1.466-11.74-1.996-21.987-6.518-32.065-12.738-8.15-5.056-16.366-16.897-19.592-26.177-1.431-4.191-2.128-8.216-2.063-12.64 0.032-4.49-0.899-9.945 0.032-14.369 1.365-6.32 7.417-12.673 12.739-16.133 3.726-2.429 7.818-3.721 12.207-4.225 1.697-0.218 3.395 0.044 5.023-0.262 1.33-0.306 2.328-1.266 3.691-1.432 2.028-0.262 4.323 0.968 6.221 1.562 2.561 0.797 5.554 1.033 7.948 2.395-5.157-9.18-15.201-19.091-25.445-22.618-5.321-1.83-13.305-2.592-18.793-1.897-5.921 0.766-11.475 5.288-15.799 9.013-20.755 17.862-25.877 44.205-25.877 70.55 0 7.582-0.766 14.069 2.294 21.088 3.592 8.281 7.849 14.036 14.437 20.289 10.942 10.378 26.743 11.841 41.244 12.473 8.416 0.394 16.465 1.497 24.946 1.497 5.754-0.032 11.543 0 17.296 0h40.381z"></path>
    <path fill="#000000" d="M562.554 191.272c21.72-4.291 43.939-5.122 65.99-4.49 24.68 0.665 48.961 6.153 73.376 9.147 37.884 4.625 76.036 24.614 95.393 58.242 8.051 14.004 10.843 29.67 13.504 45.402 2.761 16.134 5.789 32.73 6.653 49.094 0.368 6.62-0.665 13.272 0.267 19.89 1.264 8.848 1.13 17.43 1.13 26.411 0.032 21.387 0.032 42.741 0 64.127 0 12.341-1.463 24.349-1.463 36.687 0.032 12.242 0 24.481 0 36.721 0 11.709 0.298 23.45 0.032 35.159-0.202 9.445-1.697 19.225-3.026 28.506-0.665 4.49-2.763 9.912-4.259 14.336s-3.259 7.948-5.921 11.709c-2.561 3.625-3.926 7.948-6.552 11.507-2.328 3.192-7.119 6.952-10.377 9.28-8.049 5.82-20.423 7.784-29.903 9.247-13.471 2.097-25.944 7.917-39.712 7.749-9.513-0.088-19.026 0-28.571 0-6.021 0-12.042-0.218-18.062-0.044-6.487 0.132-12.739 1.598-19.225 1.533-3.893-0.032-7.849-0.175-11.742-0.044-4.49 0.132-8.58 1.593-13.105 1.528-8.183-0.088-16.364 0.218-24.547-0.032 1.463-0.306 4.191 1.266 5.688 1.83 5.355 1.962 11.277 2.229 16.796 3.69 5.488 1.432 10.577 1.199 16.065 2.163 6.919 1.196 13.77 2.694 20.823 2.626 30.401-0.35 61.467 2.359 91.469-3.327 15.267-2.894 30.601-2.925 45.237-8.516 6.452-2.429 12.539-3.026 18.558-6.783 7.318-4.557 16.565-9.58 21.987-16.499 7.516-9.646 16.863-20.588 20.489-32.497 4.624-15.034 6.188-31.066 6.188-46.633 0.032-35.058 0-70.116 0-105.173 0-36.756 2.063-73.941-2.927-110.363-2.596-19.091-4.49-37.318-11.343-55.447-7.252-19.192-9.779-39.249-21.553-56.412-5.521-7.983-11.442-15.602-16.963-23.55-4.158-5.954-8.35-11.242-14.801-14.933-16.565-9.513-34.924-13.041-53.252-17.297-17.529-4.059-34.792-10.344-52.986-10.942-20.922-0.665-42.907-1.064-63.796 0.218-18.060 1.064-36.719 4.955-53.783 11.109-4.389 1.598-8.315 3.661-12.607 5.523-4.557 1.962-9.646 2.86-14.036 5.188-3.66 1.931-7.051 8.448 14.867 4.424z"></path>
    <path fill="#000000" d="M420.92 877.924c-21.72 4.291-43.939 5.122-65.99 4.49-24.68-0.696-48.961-6.153-73.376-9.148-37.884-4.624-76.036-24.614-95.393-58.242-8.049-14.003-10.843-29.671-13.504-45.402-2.761-16.131-5.789-32.729-6.685-49.093-0.332-6.619 0.698-13.272-0.231-19.89-1.264-8.848-1.13-17.428-1.13-26.41-0.031-21.387-0.031-42.775 0-64.129 0-12.341 1.463-24.347 1.431-36.687 0-12.24 0.031-24.479 0.031-36.721 0-11.707-0.298-23.449-0.031-35.157 0.202-9.447 1.696-19.227 3.028-28.507 0.665-4.49 2.726-9.91 4.222-14.334 1.531-4.424 3.294-7.95 5.955-11.709 2.561-3.625 3.926-7.95 6.518-11.509 2.33-3.192 7.151-6.951 10.379-9.313 8.082-5.789 20.456-7.783 29.936-9.214 13.471-2.093 25.944-7.917 39.714-7.749 9.513 0.088 19.025 0 28.571 0 5.986 0 12.041 0.218 18.060 0.044 6.487-0.132 12.74-1.598 19.227-1.528 3.891 0.032 7.848 0.175 11.74 0.044 4.49-0.132 8.58-1.598 13.105-1.533 8.183 0.088 16.364-0.218 24.549 0.032-1.463 0.306-4.193-1.266-5.69-1.83-5.387-1.962-11.275-2.229-16.796-3.69-5.523-1.432-10.577-1.196-16.065-2.163-6.919-1.196-13.769-2.694-20.821-2.626-30.401 0.35-61.467-2.359-91.469 3.327-15.267 2.894-30.601 2.925-45.236 8.514-6.454 2.429-12.541 3.026-18.56 6.752-7.316 4.59-16.565 9.613-21.987 16.53-7.516 9.646-16.863 20.59-20.489 32.499-4.624 15.034-6.186 31.066-6.221 46.631-0.031 35.058 0 70.117 0 105.175 0 36.754-2.063 73.94 2.927 110.361 2.627 19.091 4.525 37.32 11.375 55.447 7.252 19.192 9.779 39.249 21.553 56.413 5.488 7.983 11.409 15.6 16.963 23.548 4.158 5.956 8.35 11.244 14.801 14.935 16.565 9.513 34.924 13.004 53.252 17.297 17.529 4.059 34.792 10.344 52.986 10.943 20.922 0.665 42.907 1.064 63.796-0.218 18.060-1.064 36.721-4.957 53.783-11.11 4.391-1.593 8.317-3.656 12.607-5.522 4.557-1.962 9.646-2.86 14.036-5.188 3.66-1.931 7.051-8.449-14.867-4.424z"></path>
    </svg>