<svg xmlns="http://www.w3.org/2000/svg" viewBox="-0.818 -15.999 1044.635 1055.997">
    <path fill="#000000" d="M369.672 347.203c-1.221-2.146-4.403-7.842-23.378-11.135-4.031-0.704-7.878-0.704-11.577-0.74-3.81 0-7.435-0.035-10.801-0.813-6.067-1.406-12.207-2.219-18.161-3.034-6.363-0.849-12.947-1.738-19.236-3.327-5.695-1.406-11.024-1.74-16.202-2.036-2.553-0.141-5.178-0.296-7.805-0.591-2.146-0.26-3.551-1.11-5.661-2.368-1.589-0.925-3.402-1.998-5.695-2.923-1.553-0.591-2.849-1.034-4.031-1.442-3.997-1.368-3.997-1.368-5.772-6.363-1.332-3.699-1.998-7.693-2.737-11.909-0.777-4.365-1.555-8.841-3.034-13.613-1.589-5.144-1.959-10.95-2.331-17.127-0.296-5.252-0.665-10.728-1.774-16.313l-0.704-3.846c-0.813-4.365-1.664-8.878-3.18-13.539-1.627-5.586-12.688-59.739-12.577-67.025 0 0 0 0.517-0.185 1.221l-13.058-5.031c-14.241 51.563-14.056 69.504-13.871 85.335v1.37c0.035 2.219 0.070 4.512 0.141 6.842 0.221 7.767 0.443 15.796-1.183 22.231-1.036 3.957-2.7 7.952-4.438 12.207-2.072 5.031-4.218 10.209-5.512 15.868-0.553 2.257-0.889 4.218-1.183 5.882-0.141 0.777-0.296 1.702-0.443 2.368-0.666 0.221-1.998 0.553-4.661 0.889-5.769 0.702-10.986 2.553-16.017 4.363-2.034 0.74-4.106 1.479-6.178 2.146-11.060 3.44-21.638 6.029-31.479 7.731-4.44 0.74-8.175 2.553-11.503 4.18-2.257 1.071-4.365 2.107-6.51 2.737-0.777 0.259-2.072 0.221-3.404 0.185-3.625-0.070-9.135-0.141-13.391 5.474l-2.959 3.846 1.553 4.921c3.514 10.986 14.241 12.613 20.678 13.575 1.221 0.185 2.33 0.371 3.217 0.593 1.072 0.259 2.368 0.777 3.773 1.332 2.072 0.813 4.255 1.664 6.251 2.144 2.7 0.666 5.476 1.813 8.397 3.034 2.959 1.257 6.029 2.515 9.32 3.404 5.918 1.627 11.726 3.327 17.535 5.031 4.623 1.368 9.209 2.7 13.909 4.031 3.217 0.889 6.325 1.257 9.32 1.589 3.81 0.408 7.399 0.815 10.395 2.331 1.034 0.517 1.996 1.072 2.921 1.627 1.442 0.815 2.959 1.702 4.697 2.478 0.332 1.998 0.738 3.773 1.11 5.439 0.702 3.143 1.295 5.88 1.442 9.247 0.296 8.841 2.849 18.421 5.548 27.447 4.514 14.981 6.325 26.635 6.251 40.207-0.035 4.144 0.221 8.769 0.483 13.502 0.332 6.067 0.665 12.318 0.37 17.941l-2.774 56.595 16.051-53.193c0.704-2.291 1.481-4.697 2.257-6.991 1.555-4.735 2.923-8.803 3.404-11.911 0.481-3.106 1.406-6.251 2.404-9.58 1.072-3.625 2.183-7.361 2.885-11.543 0.408-2.442 0.704-4.733 1-6.916 0.704-5.104 1.295-9.507 2.959-14.685 2.368-7.435 3.923-14.87 5.401-22.046 1.774-8.692 3.478-16.866 6.546-24.746 0.815-2.144 1.664-4.623 2.553-7.248 2.108-6.214 4.735-13.947 7.582-17.164 0.74-0.851 1.036-1 1.036-1 0.259-0.070 1.221-0.070 1.925-0.070 0.887 0 1.885 0 2.995-0.035 3.773-0.221 6.62-1.479 9.099-2.625 1.183-0.519 2.404-1.11 3.81-1.442 4.329-1.147 9.026-1.555 14.021-1.961 5.252-0.406 10.726-0.851 16.051-2.257l5.733-1.553c8.139-2.219 16.57-4.55 24.488-4.625 4.402-0.070 8.803-1.11 13.020-2.070 5.215-1.221 10.135-2.368 13.945-1.519l16.313 3.773-9.395-16.755z"></path>
    <path fill="#000000" d="M951.677 425.848c-1.959-3.44-3.070-6.991-4.216-10.762-2.183-7.065-4.661-15.055-13.132-21.529-2.625-1.996-5.363-3.106-7.731-4.106-1.589-0.666-3.106-1.295-4.068-1.998-0.481-0.37-1.036-1.108-1.627-1.885-1.74-2.257-4.661-6.029-10.433-6.474l-6.916-0.519-0.445 6.918c-0.185 3.18-3.625 8.248-6.399 12.355-1.885 2.774-3.699 5.438-5.031 8.099-1.774 3.551-2.7 7.62-3.589 11.579-1.774 7.805-2.959 11.541-6.178 12.279l-12.094 2.776 13.020 13.020c6.993 6.993 14.204 14.204 23.378 14.204 0.070 0 0.141 0 0.221 0 5.772-0.070 11.392-2.997 17.089-8.99 3.81-3.995 7.952-5.955 12.761-8.173 4.216-1.998 8.988-4.218 13.76-8.065l4.514-3.661z"></path>
    <path fill="#000000" d="M793.759 196.459c-14.832 0.923-28.332-3.144-42.686-7.435-5.845-1.74-11.909-3.551-18.161-5.067-4.403-1.036-8.618-2.219-12.762-3.367-7.952-2.183-16.128-4.476-25.263-5.808l-1.221-0.185c-10.060-1.406-14.13-2.737-15.796-3.661 0.070-0.296 0.105-0.628 0.187-0.925 0.296-1.774 0.591-3.773 0.221-5.769-0.445-2.404-1.332-4.365-2.108-5.918-0.37-0.815-0.777-1.589-1.036-2.478-1.257-4.809-1.923-9.988-2.589-15.498-0.553-4.697-1.147-9.507-2.331-14.796-1.885-8.767-3.81-17.459-5.51-26.299-0.221-1.183-0.185-2.589-0.141-4.18 0.035-1.923 0.105-4.068-0.334-6.399-0.185-1.036-0.481-2.034-0.813-2.995-0.63-1.961-1.072-3.255 2.478-8.435l9.024-13.243-22.933 4.661-0.815 4.365c-0.74 4.179-2.404 8.505-4.179 13.094-0.851 2.183-1.702 4.329-2.404 6.474l-1.519 4.255c-1.923 5.474-4.106 11.688-5.695 17.791-1.442 5.548-2.625 10.986-3.81 16.387-2.036 9.543-4.031 18.57-7.214 27.409-0.517 1.442-0.962 2.849-1.406 4.218-1.925 6.027-2.885 8.505-6.844 10.245-5.916 2.625-12.355 3.327-19.159 4.068-3.44 0.406-6.881 0.777-10.32 1.368-7.214 1.257-14.315 3.108-21.159 4.882-7.214 1.851-14.021 3.625-20.937 4.772-3.404 0.553-6.731 1.072-10.099 1.553-5.104 0.777-10.209 1.553-15.351 2.515-1.923 0.37-4.733 0.445-7.693 0.519-5.769 0.185-11.725 0.332-16.534 2.553l-4.809 2.181 1.072 4.993c1.738 8.029 12.835 8.212 24.635 8.397 1.664 0.035 3.032 0.035 3.736 0.105 8.248 0.962 16.645 2.257 24.784 3.478 7.693 1.221 15.351 2.368 23.008 3.293 15.611 1.923 32.181 5.363 48.198 10.024 0.37 0.998 0.738 1.885 1.11 2.737 0.553 1.368 1.036 2.553 1.257 3.625 0.37 1.996 0.406 4.291 0.443 6.731 0.070 2.849 0.141 6.103 0.777 9.397 0.665 3.255 1.295 6.51 1.923 9.765 1.998 10.467 4.033 21.306 7.435 32.106 2.7 8.582 5.918 17.274 10.060 27.335 4.070 9.914 4.661 17.941 4.329 28.409l-0.63 17.606 12.428-12.983c8.361-8.692 9.286-19.089 10.099-28.26 0.223-2.478 0.483-5.031 0.851-7.582 1.072-7.139 3.255-14.056 5.55-21.38 1.589-4.921 3.18-10.060 4.438-15.239l1.295-5.401c2.072-8.322 3.995-16.164 4.957-24.969 1.221-11.503 3.478-13.502 3.921-13.76 0.851-0.481 4.033-1.147 5.697-1.479 2.072-0.443 4.031-0.851 5.438-1.332 4.55-1.517 9.024-3.219 13.502-4.882 2.478-0.925 4.921-1.813 7.361-2.7 7.656-2.774 15.572-5.623 23.599-7.471 4.106-0.925 8.25-1.368 12.613-1.887 3.921-0.406 7.952-0.887 12.022-1.701 1.368-0.259 2.553-0.63 3.736-1.036 1.517-0.481 2.478-0.813 3.995-0.851v0c4.587-0.070 8.767-0.96 12.835-1.774 2.183-0.443 4.403-0.889 6.622-1.183l-1.37-12.983z"></path>
    <path fill="#000000" d="M396.302 812.104c-9.173-9.101-23.933-8.88-38.172-8.692-0.63 0-1.295 0-1.925 0.035l-10.689-21.382-5.106 16.053c-1.221 3.81-4.068 7.733-7.063 11.801-2.923 3.995-5.918 8.137-7.99 12.835-6.214 14.315-5.067 18.2-0.221 29.445l0.483 1.11c0.443 0.998 0.406 1.221 0.296 2.181-0.37 3.885 0.259 7.325 4.548 11.69 4.291 4.327 7.435 5.031 11.431 4.882 1.034-0.070 1.589-0.070 2.885 0.37 8.546 2.81 15.239 4.846 24.414 5.438 2.625 0.141 5.031 0.298 7.175 0.298 10.728 0 15.832-2.961 22.267-16.387 4.625-9.541 5.623-14.203 5.697-26.116 0.035-10.431-2.553-18.161-8.029-23.561z"></path>
    <path fill="#000000" d="M954.233 620.281c-5.365-4.697-12.8-5.178-18.755-5.586-1.406-0.070-2.7-0.141-3.885-0.332h-0.035c-1.813-0.221-3.551-0.553-5.252-0.851-3.921-0.738-7.952-1.479-12.983-1.442-2.7 0.035-5.401 0.070-8.139 0.141-7.176 0.185-14.611 0.334-21.491-0.259-2.885-0.221-5.733-0.628-8.618-1l-3.589-0.517-1.368 0.070c-8.692-0.815-17.385-2.331-25.782-3.921l-6.62-1.221c-5.067-0.962-10.135-1.925-15.202-2.849l-13.945-2.515c-0.035-0.035-0.105-0.070-0.187-0.105l-1.183-0.665-2.849-0.555c-2.553-0.517-5.104-0.998-7.693-1.368-4.587-0.591-9.135-1.147-13.724-1.664-9.839-1.147-19.159-2.219-28.556-3.995-3.032-0.593-5.918-0.74-8.435-0.889-1.627-0.105-3.255-0.221-4.921-0.443-0.105 0-0.185-0.035-0.296-0.035-0.035-0.593-0.035-1.221-0.035-1.666l-0.035-0.777c-0.035-1.666 0-3.329 0.035-4.993 0.035-1.998 0.070-3.997 0.035-5.993-0.105-3.44-0.851-6.51-1.517-9.211-0.406-1.627-0.815-3.291-1.036-5.031-0.332-3.070-0.332-6.289-0.296-9.653 0-3.293 0.035-6.733-0.296-10.284l-0.105-0.849c-1.629-7.325-3.144-16.905-0.962-26.226l4.772-15.463-9.988 3.625c-1.481-8.137-2.849-16.275-4.218-24.412-1.959-11.543-3.957-23.452-6.325-35.178-2.219-11.022-3.44-21.933-4.772-33.476l-0.443-4.179c-1.442-16.755-3.367-24.488-10.801-26.152l-6.62-1.479-2.663 5.882c-3.034 6.731-2.293 15.166-1.629 22.601 0.223 2.589 0.445 5.067 0.445 7.176l0.035 4.548c0 9.543 0.035 18.57-1.072 27.705-2.959 24.229-10.099 47.496-18.385 73.241-1.11 3.44-2.293 6.918-3.478 10.358-2.515 7.399-5.104 15.055-7.175 22.859-0.889 3.367-1.555 6.806-2.219 10.245-1.295 6.474-2.478 12.613-5.215 17.904-0.815 1.589-1.702 3.217-2.589 4.808-3.108 5.733-6.325 11.654-8.139 18.236-0.141 0.481-0.259 0.962-0.37 1.368-5.142 0.593-10.801 0.332-16.794 0.035-3.438-0.141-6.88-0.296-10.171-0.296h-42.094c-5.067 0-10.135-0.070-15.239-0.141-16.128-0.259-32.772-0.519-49.159 1.774l-1.851 0.259c-25.005 3.514-50.898 7.139-75.83 4.625l-1.849 15.055c3.367 0.371 6.289 1.295 9.692 2.368 2.442 0.74 4.882 1.517 7.51 2.108 6.991 1.589 14.166 2.737 21.121 3.846 8.767 1.368 17.051 2.7 24.931 4.846 20.419 5.584 41.429 8.173 61.773 10.689 16.757 2.036 34.106 4.18 50.603 7.954 6.029 1.406 11.947 3.070 17.902 4.735 8.988 2.515 18.274 5.104 27.892 6.769 1.368 0.259 2.81 0.443 4.291 0.63 3.589 0.481 7.693 1.034 9.654 2.33 3.366 2.257 4.772 9.397 5.548 13.207 1.147 5.808 0.666 13.094 0.221 20.123-0.259 3.921-0.481 7.731-0.481 11.282 0 12.392 0.553 22.195 1.813 31.774 0.26 1.959 0.408 3.885 0.519 5.806 0.259 3.625 0.517 7.399 1.517 11.394 0.74 3.032 1.851 5.733 2.921 8.322 0.889 2.183 1.74 4.255 2.257 6.214 3.736 15.017 6.178 30.777 8.507 45.979 1.74 11.245 3.551 22.897 5.882 34.291 2.183 10.652 4.179 21.084 4.661 31.33l3.217 66.876 12.798-65.877c1.072-5.55 1.998-10.654 2.331-16.905 0.555-10.618 2.7-20.937 4.957-31.885 1.591-7.731 3.255-15.757 4.291-23.859 1.517-11.984 3.736-24.154 5.88-35.917 4.108-22.491 8.361-45.792 8.175-69.576-0.105-13.649-0.070-27.335-0.070-40.985l0.035-5.439c3.329 0.334 7.029 0.141 10.801-1.072l0.702-0.221c2.923-0.923 4.514-1.442 6.954-1.627 21.749-1.517 42.982-6.474 63.511-11.282 20.012-4.661 41.097-7.693 61.477-10.654l10.839-1.627c7.471-1.072 14.796-2.849 21.897-4.514 7.658-1.849 14.907-3.587 22.195-4.512 0.704-0.105 1.479-0.070 2.183-0.070 1.998-0.070 4.957 0 7.952-1.036l12.281-4.255-9.58-8.395z"></path>
    <path fill="#000000" d="M624.083 576.215c-9.654-15.128-14.945-21.935-21.823-28.001-0.483-0.445-0.851-0.962-1.221-1.481-0.63-0.813-1.295-1.664-2.036-2.404-2.589-2.625-5.661-4.474-8.361-6.101l-1.701-1.036c-3.589-2.219-7.065-4.625-10.543-7.029-4.216-2.921-8.58-5.957-13.167-8.692-8.803-5.178-18.163-9.839-27.152-14.351-10.394-5.216-21.121-10.579-30.813-16.647-3.366-2.146-6.584-4.363-9.765-6.584-5.178-3.625-10.577-7.361-16.608-10.579-8.397-4.512-17.349-9.247-26.633-13.611-3.885-1.851-7.656-3.812-11.467-5.733-4.144-2.146-8.286-4.255-12.541-6.251-4.142-1.925-7.988-4.44-12.094-7.103-4.514-2.959-9.137-5.993-14.464-8.361l-3.143-1.406c-3.736-1.627-6.954-3.070-10.211-5.104-4.585-2.81-9.69-5.399-16.128-8.027-2.476-1.036-4.88-2.219-7.248-3.44-3.144-1.589-6.435-3.219-10.060-4.587-9.026-3.366-18.347-6.027-27.409-8.618l-5.291-1.517c-2.737-0.777-5.695-1.923-8.841-3.106-6.916-2.625-14.721-5.586-22.637-5.772-1.072 0-2.183 0.035-3.293 0.105-0.998 0.070-1.959 0.141-2.478 0.035l-18.013-3.291 10.69 13.205c5.991 7.435 16.051 13.797 21.491 16.942 8.397 4.809 17.053 9.803 25.448 15.609 7.767 5.365 16.275 9.397 24.524 13.279 6.474 3.070 12.577 5.957 18.347 9.433 14.426 8.692 28.705 17.791 42.056 26.337l5.439 3.514c12.428 7.988 25.263 16.238 38.839 23.673 6.806 3.736 13.354 8.063 19.678 12.243 8.914 5.918 18.161 12.060 28.705 16.905 5.882 2.7 11.613 5.474 17.274 8.25 14.092 6.88 28.666 13.945 44.758 19.271 16.719 5.51 33.032 11.875 48.568 18.902l21.121 9.618-11.801-18.495z"></path>
    <path fill="#000000" d="M892.895 464.565l-2.146-7.139-6.952 2.776c-10.875 4.327-19.346 9.431-26.635 16.089-4.697 4.291-10.245 8.101-16.128 12.132-5.104 3.514-10.394 7.176-15.202 11.207-6.546 5.55-12.094 12.096-17.423 18.385l-3.032 3.551c-2.368 2.737-5.215 5.252-8.25 7.916-3.217 2.849-6.51 5.733-9.431 9.135l-2.036 2.331c-3.846 4.476-7.582 8.767-11.762 12.762-0.371 0.259-0.74 0.553-1.11 0.849-1.072 0.851-2.036 1.813-2.961 2.776-1.11 0.96-2.293 1.885-3.514 2.774-3.143 2.293-6.214 4.585-9.284 6.952l7.842 11.245c4.218-2.663 7.769-5.067 10.247-6.991 1.664-1.295 2.921-2.663 4.031-3.885 0.070-0.035 0.105-0.105 0.185-0.141 1.072-0.96 2.146-1.885 3.18-2.849 1.296-0.849 2.812-1.553 4.476-2.368l2.183-1.036c1.959-0.96 3.514-2.070 4.882-3.032 0.849-0.628 1.701-1.221 2.663-1.774 0.777-0.408 1.553-0.704 2.331-1.072 1.368-0.555 2.737-1.147 3.995-1.887 2.81-1.627 5.697-3.106 8.582-4.623 4.363-2.257 8.841-4.587 13.094-7.287 3.551-2.257 6.289-4.735 8.953-7.139 0.998-0.925 2.034-1.851 3.106-2.774 1.925-1.629 4.253-3.072 6.695-4.587 1.257-0.74 2.478-1.517 3.699-2.331 9.248-6.103 16.053-14.721 21.567-21.676 1.923-2.442 4.474-4.846 7.137-7.399l2.146-1.998c3.885-3.773 6.067-6.769 8.656-10.986 0.443-0.665 0.962-1.368 1.517-2.107 2.663-3.699 6.697-9.211 4.697-15.796z"></path>
    <path fill="#000000" d="M543.696 234.958l-1.221-0.849-1.442-0.26c-4.363-0.777-9.247-1.701-15.092-0.998-10.801 1.221-21.231 5.51-31.33 9.653-4.772 1.961-9.692 3.997-14.5 5.586-8.211 2.774-16.755 4.846-25.005 6.842l-5.918 1.444c-2.7 0.702-5.474 1.221-8.248 1.738-5.808 1.11-11.875 2.257-18.015 4.735-9.024 3.625-17.902 8.988-26.484 14.166-5.178 3.144-10.541 6.363-15.683 9.063-12.243 6.401-26.671 13.539-40.763 18.053l-2.923 0.925c-3.957 1.257-8.099 2.553-12.243 4.253-0.851 0.332-1.555 0.406-2.997 0.481-1.332 0.105-3.032 0.223-4.921 0.74-1.589 0.443-2.737 1.257-4.846 2.849l-0.628 0.483c-0.141 0.035-0.259 0.105-0.332 0.105-0.445-0.035-0.851-0.105-1.295-0.185l-3.773 13.094c1.627 0.63 3.143 0.889 4.957 0.925 2.33 0.259 4.659 0.37 7.027 0.37 6.881 0 13.797-0.962 20.531-1.923 2.331-0.298 4.623-0.63 6.916-0.925 3.957-0.481 7.88-0.593 12.060-0.74 4.735-0.141 9.618-0.332 14.649-1.034 4.993-0.704 9.988-1.998 14.76-3.293 1.589-0.406 3.143-0.815 4.697-1.183 2.997-0.777 5.957-1.406 8.914-2.072 3.367-0.738 6.697-1.479 10.062-2.331 4.659-1.183 8.58-3.957 12.39-6.62 2.591-1.849 5.069-3.589 7.214-4.402 1.813-0.63 3.81-1.036 5.882-1.444 2.368-0.481 5.067-1.034 7.842-2.034 4.661-1.702 9.137-4.108 13.464-6.474 2.108-1.147 4.216-2.293 6.363-3.329 3.144-1.553 6.435-2.404 9.95-3.329 3.773-0.962 7.656-1.959 11.837-3.921 8.618-4.031 17.087-8.027 25.707-12.281 3.736-1.849 7.214-4.142 10.618-6.399 3.736-2.478 7.287-4.809 10.689-6.214 3.699-1.553 5.772-3.070 8.916-6.51l0.591-0.63c2.219-2.255 5.55-5.695 5.104-10.245-0.221-2.368-1.479-4.514-3.478-5.882z"></path>
    <path fill="#000000" d="M288.937 524.269c-0.925-3.255-2.404-5.399-3.959-7.693l-0.443-0.63c-1.072-1.553-1.925-3.402-2.81-5.363-0.371-0.815-0.777-1.627-1.147-2.442-2.257-4.587-5.104-8.878-7.842-13.020l-2.368-3.589c-0.519-0.851-1.036-1.666-1.555-2.515-0.553-0.889-1.11-1.74-1.664-2.625-0.925-1.444-2.036-2.478-2.921-3.255-0.334-0.332-0.704-0.666-1.036-1.036l-26.448-29.998 14.426 35.955c0.259 0.628 0.221 1.072-0.070 2.774l-0.185 1.332c-0.777 5.772 0.704 10.839 2.146 15.757 0.702 2.478 1.368 4.809 1.738 7.065 0.37 2.515 0.925 5.031 1.517 7.546 0.962 4.106 1.851 7.988 1.776 11.799-0.070 2.183 0.035 4.329 0.185 6.474 0.070 1.442 0.141 2.887 0.141 4.329 0.070 6.474 0.74 12.909 1.406 19.123 0.519 4.957 1.072 10.099 1.295 15.128 0.185 4.587 0.666 9.101 1.147 13.464 0.259 2.404 0.519 4.809 0.74 7.25 0.141 1.701 0.259 3.367 0.37 5.104 0.332 5.142 0.704 10.467 1.961 15.685 1.071 4.585 2.33 9.135 3.549 13.685 0.63 2.404 1.295 4.77 1.925 7.137 0.517 2.036 1.036 4.070 1.553 6.14 0.704 2.812 1.406 5.623 2.146 8.435 1.183 4.291 2.959 7.916 4.625 11.392 0.517 1.072 1.072 2.183 1.589 3.329 0.851 1.813 1.553 3.661 2.257 5.51 0.813 2.072 1.589 4.144 2.553 6.178l0.962 2.072c1.108 2.257 2.144 4.438 2.774 6.62 0.517 1.629 0.925 3.293 1.332 4.882 0.777 3.182 1.627 6.435 2.995 9.728 3.81 9.024 8.507 17.534 13.022 25.375l0.443 0.777c1.11 1.885 2.257 3.885 3.514 5.659 0.481 0.666 1.11 1.296 1.885 1.998 0.889 0.815 1.629 1.479 2.108 2.81 0.070 0.962 0.332 1.998 0.851 2.997l19.159 36.435-6.178-40.429c-0.105-0.593-0.221-1.147-0.37-1.666 0.035-0.259 0.035-0.517 0.070-0.738 0.035-1.036 0.105-2.257-0.105-3.478-2.036-10.433-4.514-20.789-7.582-33.144-1.036-4.179-2.183-8.284-3.329-12.428-2.108-7.435-4.291-15.128-5.548-22.748-0.925-5.548-1.332-11.096-1.74-17.017-0.406-5.252-0.777-10.652-1.589-16.053-1.11-7.656-1.664-15.683-2.146-23.45-0.517-8.212-1.072-16.683-2.368-25.005-1.923-12.505-5.142-24.784-8.248-36.659l-0.815-3.18c-0.665-2.478-1.295-4.957-1.923-7.435-1.183-4.809-2.404-9.618-3.773-14.353z"></path>
    </svg>