<svg xmlns="http://www.w3.org/2000/svg" viewBox="9.542 -48.001 987.166 1131.119">
    <path fill="#000000" d="M631.399 763.764c-17.973-29.736-32.658-61.052-32.658-69.597 0-8.551-10.717-25.23-23.824-37.080-13.107-11.842-23.824-27.564-23.824-34.92 0-7.342-16.088-44.348-35.722-82.215-19.66-37.868-35.722-81.478-35.722-96.914 0-15.442-6.581-30.25-14.598-32.928-8.354-2.813-13.36-21.152-11.701-42.995 3.15-41.167-39.676-97.007-74.378-97.007-10.126 0-18.395-7.82-18.395-17.382s-9.845-26.974-21.911-38.7c-21.968-21.377-42.266-62.977-30.709-62.977 3.403 0 23.318 8.748 44.277 19.463 82.851 42.297 223.775 196.776 217.641 238.572-1.406 10.379 9.648 31.28 24.836 46.457 16.088 16.088 24.639 35.277 20.504 46.043-3.881 10.154-10.998 16.032-15.807 13.051s-9.563 16.201-10.604 42.621c-2.25 54.583 18.788 106.174 33.443 82.457 5.963-9.676 12.263-3.15 18.535 19.238 5.231 18.62 8.72 37.547 7.792 42.036-0.844 4.5 6.216 30.613 15.892 58.057 20.392 57.773 20.532 58.808 8.579 58.808-4.95 0-23.711-24.33-41.673-54.068z"></path>
    <path fill="#000000" d="M888.365 862.484c-39.372-43.754-179.486-322.944-179.486-357.648 0-18.817-10.998-40.95-26.693-53.641-33.015-26.721-43.779-87.398-13.867-78.072 13.81 4.303 11.842-0.844-6.581-17.185-14.457-12.826-23.824-25.821-20.785-28.833 8.298-8.298-19.267-80.806-30.689-80.806-5.456 0-13.36-10.801-17.579-24.021-10.576-33.336-143.318-166.483-165.971-166.483-10.182 0-18.507-5.344-18.507-11.898s4.556-11.898 10.126-11.898c33.949 0 251.84 180.89 251.84 209.076 0 9.451 5.344 17.157 11.898 17.157s11.898 7.595 11.898 16.876c0 9.282 4.247 18.648 9.451 20.842 5.203 2.25 24.583 50.854 43.082 108.157 18.479 57.303 38.104 104.184 43.583 104.184 5.484 0 13.332 20.082 17.467 44.651 13.079 77.898 32.163 127.33 57.908 149.973 13.726 12.067 23.43 29.359 21.546 38.391-1.969 9.029 4.303 46.027 13.754 82.215s15.948 65.798 14.429 65.798c-1.406 0-13.585-12.067-26.861-26.777z"></path>
    <path fill="#000000" d="M536.732 975.678c-10.013-11.504-52.575-87.888-94.585-169.748-42.008-81.861-81.217-156.633-87.126-166.16-5.906-9.535-12.488-33.17-14.598-52.538-2.25-19.379-14.513-42.688-27.564-51.821-23.346-16.342-34.912-83.118-11.926-68.917 6.75 4.163 8.748-0.563 4.669-11.195-3.909-10.154-11.87-18.479-17.72-18.479s-10.632-11.054-10.632-24.583c0-49.538-58.262-148.966-123.401-210.589-36.343-34.379-64.307-62.512-62.14-62.512 38.225 0 221.263 157.78 221.263 190.732 0 6.834 7.398 15.273 16.454 18.76 9.057 3.459 25.539 36.793 36.61 74.044 11.082 37.252 35.272 102.556 53.762 145.123 18.479 42.567 37.187 98.031 41.552 123.247 10.576 61.139 42.787 126.802 62.194 126.802 10.267 0 15.667 16.032 15.667 46.637 0 26.158 6.525 49.27 14.879 52.643 11.42 4.613 11.504 6.216 0.281 6.947-10.829 0.563-11.504 9.057-2.531 32.357 14.851 39.032 8.86 46.69-15.020 19.267z"></path>
    </svg>