<svg xmlns="http://www.w3.org/2000/svg" viewBox="-0.521 -8.575 1042.043 1040.575">
    <path fill="#000000" d="M482.955 97.682c-1.999 3.067-3.856 6.248-5.517 9.568-0.901 1.859-1.21 3.912-2.393 5.602-0.873 1.266-1.519 1.688-2.026 3.348-1.098 3.574-1.943 7.346-2.956 10.976-0.79 2.871-1.575 4.869-1.238 7.881 0.338 2.954-0.59 6.022-0.901 9.061-1.406 12.608-0.075 29.24 6.641 40.583 2.535 4.22 5.996 7.625 9.683 10.693 3.432 2.842 7.26 5.122 9.343 9.343 1.857 3.771 3.321 6.923 6.896 9.26 4.307 2.814 9.343 2.42 14.044 1.83 7.121-0.928 14.183-3.153 21.193-4.701 8.585-1.942 15.479-4.897 21.952-11.117 2.956-2.841 6.107-5.656 8.809-8.752 2.674-3.040 4.363-6.84 6.839-10.046 4.841-6.276 5.63-16.069 5.938-23.893 0.14-3.574 1.519-6.727 2.562-10.019 1.631-5.205 2.758-11.062 1.886-16.603-0.675-4.166-1.183-7.432-0.309-11.54 1.8-8.555-1.013-16.885-7.487-22.739-3.884-3.518-7.626-7.233-11.398-10.893-3.772-3.63-8.217-5.967-13.030-7.43-5.178-1.603-10.131-3.912-15.31-5.6-3.266-1.069-6.868-0.075-10.132-0.053-3.348 0-6.22-0.422-9.541 0.31-3.517 0.732-6.332 3.405-9.766 4.164-0.872 0.198-1.744 0.053-2.616 0.226-2.815 0.59-5.686 2.674-7.995 4.363-3.209 2.337-5.629 5.825-8.078 9.005-1.773 2.337-3.489 4.728-5.094 7.177z"></path>
    <path fill="#000000" d="M478.406 294.18c-6.445 2.335-2.083 17.194-1.971 22.767 0.106 4.84-0.873 9.907-1.464 14.747-1.267 9.962-2.646 20.039-1.717 30.113 1.013 11.144 5.404 21.841 5.713 33.067 0.169 6.417-1.83 12.693-0.983 19.054 0.45 3.349 1.21 6.444 1.21 9.879 0.053 10.666-0.705 21.417-0.956 32.084-0.564 21.416-0.846 42.862-0.564 64.279 0.227 17.674 1.013 35.545 7.909 52.064 4.531 10.921 9.005 21.051 9.598 33.069 0.646 13.283-1.408 25.92 2.841 38.697 1.802 5.431 4.052 10.019 4.391 15.873 0.282 4.756-0.169 9.541 0.169 14.296 0.957 13.144 2.251 26.989 6.699 39.456 1.379 3.801 2.898 7.036 3.405 11.089 0.619 5.236-0.198 10.639-0.021 15.873 0.106 3.829 0.872 7.375 1.492 11.117 1.464 9.343-2.026 16.829-2.954 25.695-1.071 10.159 3.967 22.543 6.078 32.448 1.746 8.303 4.025 16.548 3.828 24.992-0.053 3.433 0.423 6.641 1.83 9.766 2.111 4.699 4.42 9.005 6.136 13.903 3.123 8.891 4.108 17.814 6.359 26.848 1.492 5.88 2.869 12.663 5.233 18.266 2.195 5.261 5.545 10.017 7.881 15.112 1.464 3.21 1.687 7.655 2.476 11.229 0.675 2.983 1.857 4.925 2.927 7.711 1.605 4.308 0.282 11.062 4.392 14.326-0.198-3.124-0.365-6.473 0.282-9.483 0.225-1.019 1.153-2.393 1.406-3.772 0.451-2.307-0.618-4.925-0.106-7.205 1.012-4.7 3.236-9.091 3.658-14.101 0.534-5.909-1.8-11.397-1.886-17.249-0.085-5.067-1.436-10.019-1.717-15.058-0.309-5.177 0.393-10.356 0.14-15.534-0.42-8.021-2.561-15.45-0.393-23.443 1.661-6.137 4.531-11.792 5.713-18.097 1.943-10.215 2.138-21.079 2.028-31.437-0.198-16.21-0.928-32.365-0.536-48.603 0.282-12.017 4.052-23.499 3.687-35.658-0.364-12.748-1.999-26.117-3.602-38.809-3.376-26.511-3.153-53.95-0.901-80.405 0.873-10.159 3.491-18.321 6.192-27.974 3.321-11.961 3.884-23.162 3.574-35.546-0.42-16.296-2.618-32.449-4.052-48.658-0.646-7.148-2.026-15.057-0.845-22.178 0.42-2.505 0.928-4.447 0.788-7.063-0.956-17.167-1.744-34.25-2.364-51.446-0.14-4.531-0.42-9.062-0.928-13.592-0.817-7.289-1.604-14.58-2.138-21.897-1.351-19.193 0.62-39.090 2.813-58.17 0.309-2.702 1.351-7.346-0.42-9.823-2.674-3.686-7.091-4.108-12.214-2.702-5.431 1.519-8.892 2.785-14.636 2.758-5.178 0-10.357 0-15.535 0-5.235 0-10.976 0.53-16.126-0.201-3.489-0.477-6.501-0.7-10.075-0.7-5.545 0-11.089 0-16.66 0-2.448 0-5.178-0.201-7.598 0-1.603 0.106-5.995 1.268 2.533-1.773z"></path>
    <path fill="#000000" d="M372.371 283.88c0.254 0 0.507-0.138 0.79-0.171 4.307-0.7 8.697-1.039 13.029-1.774 3.491-0.615 7.007-1.857 10.188-3.376 5.067-2.393 10.639-3.433 15.957-5.263 6.811-2.336 14.719-3.098 20.544-7.375 4.728-3.489 11.455-4.783 17.056-6.387 8.189-2.338 16.493-4.024 24.569-6.868 7.317-2.591 14.493-4.813 22.12-6.415 4.897-1.013 9.175-2.785 13.818-4.588 3.631-1.408 6.923-1.381 10.751-1.886 5.798-0.733 11.54-2.758 17.139-4.448 6.783-2.026 12.973-1.659 19.813-2.42 7.486-0.817 14.296-3.209 21.952-3.321 2.871-0.032 5.967 0.337 8.865-0.14 3.405-0.534 6.586-2.393 10.104-2.195 2.616 0.14 4.868 1.717 7.514 1.971 2.195 0.196 4.307-0.478 6.389-1.013 11.425-2.954 24.88-5.573 34.448-12.27 3.348-2.337 7.43-2.646 11.285-3.433 3.801-0.76 7.092-1.971 10.666-3.321 1.717-0.678 6.22-2.281 8.414-1.436 1.802 0.703 1.632 1.913 2.308 3.433 1.436 3.209 4.727 6.135 5.431 9.541 0.872 4.363-0.106 9.483 0.309 13.959 0.42 4.728 1.381 9.372 1.83 14.072 0.928 9.571 0.76 20.123-1.238 29.467-0.534 2.533-0.873 4.954-0.846 7.569 0 0.902 0.507 2.674-0.14 3.405-0.788 0.871-6.811 0.201-7.796 0.171-5.545 0-10.751 1.295-16.209 1.943-3.912 0.447-7.74 0.254-11.596 1.097-10.722 2.279-20.938 5.938-31.857 7.487-8.781 1.266-17.534 2.589-26.286 3.94-9.879 1.547-19.869 1.547-29.748 2.926-17.167 2.335-33.744 9.062-50.573 13.143-2.589 0.615-5.178 1.408-7.738 2.251-7.853 2.561-15.846 6.079-24.204 6.501-5.094 0.254-10.046-1.464-15.143-1.154-7.458 0.51-13.339 5.346-20.432 7.177-6.501 1.632-13.199 2.166-19.813 3.348-4.981 0.902-9.795 2.194-14.886 2.336-6.812 0.171-13.283 2.307-19.983 1.942-3.378-0.171-6.586 0.786-9.598 2.308-2.055 1.039-4.643 2.87-6.978 3.265-2.449 0.424-4.194-0.871-6.304-1.942-3.912-1.943-8.358-4.167-10.665-7.994-1.408-2.365-0.451-3.548 0.309-6.222 0.872-3.039 0.675-7.542 2.223-10.271 0.619-1.039 1.266-0.924 1.886-1.972 0.817-1.408 0.956-3.912 1.379-5.515 1.857-7.090 3.968-14.128 6.136-21.165 1.183-3.771 0.984-7.824 4.813-8.921z"></path>
    <path fill="#000000" d="M208.218 314.751c-1.999 3.067-3.856 6.249-5.517 9.568-0.9 1.857-1.21 3.913-2.393 5.603-0.872 1.265-1.519 1.687-2.026 3.348-1.097 3.573-1.943 7.345-2.954 10.976-0.79 2.871-1.575 4.869-1.239 7.88 0.338 2.956-0.59 6.023-0.901 9.063-1.408 12.607-0.075 29.24 6.641 40.582 2.533 4.221 5.967 7.626 9.681 10.694 3.433 2.843 7.261 5.122 9.343 9.343 1.859 3.77 3.322 6.923 6.923 9.259 4.277 2.814 9.316 2.42 14.016 1.83 7.119-0.934 14.183-3.153 21.193-4.701 8.585-1.943 15.479-4.896 21.952-11.117 2.954-2.841 6.107-5.658 8.807-8.753 2.674-3.039 4.363-6.839 6.84-10.046 4.84-6.276 5.629-16.069 5.938-23.892 0.14-3.575 1.519-6.728 2.561-10.019 1.631-5.205 2.758-11.062 1.886-16.605-0.675-4.164-1.182-7.43-0.309-11.538 1.802-8.555-1.013-16.886-7.487-22.74-3.884-3.517-7.625-7.233-11.398-10.892-3.771-3.63-8.217-5.966-13.029-7.43-5.178-1.603-10.132-3.912-15.311-5.6-3.236-1.069-6.868-0.106-10.131 0-3.349 0-6.22-0.424-9.541 0.308-3.518 0.733-6.332 3.403-9.766 4.163-0.873 0.201-1.744 0.106-2.618 0.223-2.813 0.595-5.686 2.674-7.993 4.363-3.21 2.335-5.63 5.825-8.078 9.005-1.774 2.335-3.491 4.728-5.094 7.176z"></path>
    <path fill="#000000" d="M203.809 512.74c-1.21 0.106-2.364 0.223-3.517 0.392-18.518 2.448-2.591 19.983 2.42 28.342 5.233 8.697 7.345 16.716 8.808 26.651 2 13.62 5.911 26.933 6.952 40.723 0.956 12.918 1.267 25.922 1.971 38.864 1.125 19.927 5.517 39.176 7.063 58.961 0.564 7.035 0.393 15.226 3.745 21.671 2.111 4.108 7.26 7.119 9.962 10.891 8.078 11.284 5.686 27.607 5.487 40.611-0.14 7.852-0.563 15.479 1.971 23.051 2.449 7.261 5.853 14.156 8.331 21.416 1.999 5.768 4.335 12.946 5.205 19.081 0.591 4.25 0.309 8.498 1.182 12.721 0.985 4.699 3.687 8.808 4.503 13.509-0.282-3.321-0.118-6.698-0.14-10.019-0.021-4.221-0.45-8.752 0.282-12.946 0.846-4.67 3.405-8.64 4.982-13.114 2.984-8.472 4.503-17.506 6.558-26.229 1.717-7.233 2.222-14.886 2.279-22.289 0.053-5.853-1.069-12.552 0.053-18.266 1.717-8.498 1.971-17.139 3.153-25.807 1.238-9.372 3.856-18.21 6.501-27.243 1.688-5.741 3.632-13.256 3.912-19.249 0.983-19.279-0.62-39.063-0.62-58.399 0-10.833 0.085-21.472-1.125-32.278-0.818-7.289-1.605-14.58-2.139-21.924-1.351-19.167 0.62-39.090 2.815-58.144 0.309-2.729 1.351-7.374-0.423-9.821-2.674-3.717-7.091-4.138-12.214-2.703-5.431 1.52-8.892 2.785-14.634 2.758-5.179-0.106-10.359 0-15.536 0-5.233 0-10.976 0.51-16.126-0.201-9.737-1.379-21.473-1.942-31.66-1.009z"></path>
    <path fill="#000000" d="M97.633 500.948c0.254 0 0.507-0.138 0.79-0.171 4.307-0.7 8.697-1.039 13.030-1.773 3.489-0.615 7.007-1.857 10.188-3.376 5.066-2.393 10.637-3.433 15.957-5.263 6.812-2.336 14.719-3.097 20.546-7.374 4.727-3.49 11.454-4.785 17.054-6.388 8.189-2.336 16.493-4.026 24.569-6.868 7.317-2.591 14.493-4.813 22.12-6.416 4.897-1.009 9.175-2.785 13.818-4.587 3.631-1.408 6.923-1.381 10.752-1.885 5.798-0.733 11.539-2.758 17.139-4.448 6.783-2.027 12.973-1.661 19.813-2.42 7.486-0.818 14.296-3.211 21.952-3.321 2.869 0 5.967 0.339 8.865-0.138 3.403-0.53 6.584-2.393 10.102-2.195 2.618 0.138 4.869 1.717 7.514 1.97 2.193 0.201 4.306-0.477 6.388-1.019 11.425-2.953 24.88-5.573 34.448-12.272 3.349-2.335 7.43-2.646 11.286-3.432 3.799-0.763 7.091-1.97 10.665-3.322 1.717-0.68 6.22-2.279 8.415-1.435 1.8 0.7 1.631 1.914 2.307 3.433 1.436 3.21 4.728 6.135 5.431 9.541 0.873 4.363-0.106 9.483 0.309 13.958 0.423 4.728 1.381 9.372 1.83 14.072 0.928 9.569 0.76 20.122-1.238 29.466-0.534 2.533-0.873 4.953-0.845 7.57 0 0.902 0.505 2.673-0.14 3.404-0.79 0.871-6.812 0.191-7.796 0.171-5.545 0-10.752 1.323-16.211 1.943-3.912 0.447-7.738 0.254-11.594 1.097-10.722 2.279-20.939 5.938-31.859 7.487-8.779 1.265-17.534 2.588-26.286 3.939-9.878 1.548-19.869 1.548-29.747 2.929-17.167 2.335-33.744 9.061-50.573 13.142-2.591 0.615-5.179 1.406-7.74 2.251-7.851 2.561-15.846 6.079-24.204 6.501-5.094 0.254-10.046-1.463-15.141-1.154-7.459 0.51-13.34 5.348-20.433 7.176-6.501 1.633-13.198 2.168-19.812 3.349-4.982 0.902-9.795 2.194-14.888 2.335-6.81 0.171-13.283 2.308-19.982 1.943-3.376-0.171-6.584 0.786-9.597 2.308-2.056 1.039-4.643 2.87-6.979 3.265-2.448 0.424-4.194-0.871-6.304-1.941-3.912-1.943-8.358-4.166-10.665-7.995-1.408-2.363-0.45-3.546 0.309-6.22 0.873-3.039 0.675-7.542 2.223-10.271 0.62-1.039 1.267-0.934 1.886-1.97 0.817-1.409 0.957-3.913 1.381-5.518 1.857-7.092 3.968-14.128 6.135-21.164 1.183-3.77 0.983-7.824 4.813-8.921z"></path>
    <path fill="#000000" d="M832.782 253.455c1.999 3.067 3.856 6.248 5.516 9.568 0.901 1.857 1.211 3.912 2.393 5.603 0.872 1.265 1.519 1.687 2.026 3.348 1.097 3.573 1.943 7.345 2.954 10.976 0.79 2.87 1.575 4.868 1.239 7.88-0.338 2.956 0.59 6.023 0.901 9.062 1.408 12.608 0.075 29.24-6.641 40.582-2.533 4.222-5.994 7.627-9.681 10.696-3.433 2.841-7.261 5.122-9.343 9.343-1.857 3.771-3.321 6.923-6.923 9.261-4.277 2.813-9.316 2.42-14.016 1.83-7.121-0.924-14.183-3.153-21.193-4.701-8.585-1.943-15.479-4.898-21.952-11.117-2.954-2.84-6.107-5.658-8.807-8.752-2.674-3.040-4.363-6.841-6.84-10.046-4.84-6.277-5.629-16.069-5.938-23.892-0.14-3.575-1.519-6.728-2.561-10.019-1.631-5.207-2.758-11.062-1.886-16.605 0.675-4.164 1.182-7.43 0.309-11.54-1.802-8.555 1.013-16.884 7.487-22.74 3.884-3.516 7.625-7.232 11.398-10.891 3.771-3.63 8.217-5.967 13.029-7.43 5.178-1.603 10.132-3.912 15.311-5.6 3.236-1.069 6.868-0.085 10.131-0.053 3.349 0 6.22-0.422 9.541 0.31 3.518 0.732 6.332 3.403 9.766 4.164 0.873 0.198 1.744 0.053 2.618 0.227 2.813 0.59 5.686 2.674 7.993 4.363 3.21 2.335 5.63 5.825 8.078 9.005 1.774 2.336 3.491 4.726 5.094 7.177z"></path>
    <path fill="#000000" d="M837.329 449.982c7.148 2.616 2.335 19.476 1.717 24.85-1.323 11.314-3.995 22.121-4.25 33.659-0.106 5.545-2.056 9.343-3.238 14.466-0.928 4.023-0.106 8.162-0.196 12.242-0.198 6.979-2.674 13.199-4.166 19.927-1.406 6.248-0.983 12.692-2.898 18.885-1.266 4.137-3.209 7.487-4.051 11.736-2.028 9.964-3.491 20.574-4.476 30.65-1.857 19.334-0.733 38.782-0.365 58.143 0.42 22.712-4.897 43.284-13.059 64.194-3.376 8.612-4.39 17.364-4.22 26.569 0.14 6.868 0.337 13.481-1.098 20.206-0.703 3.266-0.309 6.136-0.703 9.343-0.338 2.674-1.83 5.010-1.886 7.768-0.053 3.516 1.406 11.96-3.097 12.973-0.42-3.686-2.841-6.811-3.939-10.328-1.323-4.221-1.154-7.965-1.774-12.186-0.703-4.673-3.376-8.388-3.489-13.199-0.106-4.925-0.563-9.205-1.661-14.045-3.489-15.759-8.779-31.069-12.439-46.744-2.193-9.288-2.954-17.787-6.783-26.765-3.518-8.273-7.965-17.729-5.6-26.847 1.295-4.954 1.999-8.977 2.026-14.24 0.198-27.272-1.857-54.627 0.338-81.868 1.125-14.045 4.108-27.495 3.096-41.71-0.703-10.103-2.138-20.123-5.149-29.776-2.927-9.429-2.898-20.91-8.273-29.269-1.661-2.589-3.518-4.727-3.828-7.907-0.254-2.647 0.42-5.603 1.999-7.683 6.614-8.724 19.643-0.308 28.002-0.361 5.178 0 10.359 0 15.536 0 5.233 0 10.976 0.53 16.125-0.201 3.491-0.477 6.502-0.7 10.076-0.7 5.543 0 11.088 0 16.659 0 2.449 0 5.179-0.201 7.599 0 1.604 0.117 5.994 1.268-2.533-1.773z"></path>
    <path fill="#000000" d="M943.364 439.68c-0.254 0-0.507-0.138-0.79-0.171-4.307-0.7-8.697-1.039-13.030-1.774-3.489-0.615-7.007-1.857-10.188-3.376-5.066-2.393-10.637-3.433-15.957-5.263-6.812-2.336-14.719-3.095-20.546-7.374-4.727-3.49-11.454-4.785-17.054-6.388-8.189-2.336-16.493-4.023-24.569-6.868-7.317-2.589-14.494-4.813-22.12-6.415-4.897-1.019-9.175-2.785-13.819-4.588-3.63-1.408-6.923-1.378-10.751-1.885-5.798-0.733-11.539-2.758-17.139-4.448-6.785-2.027-12.973-1.66-19.813-2.42-7.487-0.818-14.296-3.208-21.952-3.321-2.869 0-5.967 0.339-8.865-0.138-3.403-0.53-6.586-2.393-10.102-2.195-2.618 0.138-4.869 1.717-7.514 1.97-2.193 0.191-4.306-0.477-6.388-1.019-11.425-2.953-24.88-5.573-34.448-12.27-3.349-2.336-7.43-2.646-11.286-3.433-3.799-0.763-7.091-1.97-10.665-3.321-1.717-0.68-6.22-2.281-8.415-1.437-1.8 0.7-1.631 1.914-2.307 3.433-1.436 3.21-4.728 6.135-5.431 9.541-0.873 4.363 0.106 9.483-0.309 13.958-0.42 4.728-1.379 9.372-1.828 14.073-0.928 9.568-0.76 20.123 1.238 29.464 0.534 2.533 0.873 4.955 0.845 7.57 0 0.902-0.505 2.674 0.14 3.404 0.79 0.871 6.812 0.201 7.796 0.171 5.545 0 10.752 1.323 16.211 1.943 3.912 0.447 7.738 0.254 11.595 1.097 10.722 2.279 20.939 5.938 31.859 7.487 8.779 1.265 17.533 2.588 26.286 3.939 9.906 1.547 19.869 1.547 29.747 2.927 17.167 2.335 33.744 9.061 50.573 13.142 2.591 0.615 5.179 1.408 7.74 2.251 7.851 2.561 15.846 6.079 24.204 6.501 5.094 0.254 10.046-1.463 15.141-1.154 7.458 0.51 13.34 5.348 20.432 7.177 6.502 1.632 13.2 2.167 19.813 3.348 4.982 0.902 9.795 2.195 14.888 2.338 6.811 0.171 13.283 2.306 19.983 1.941 3.376-0.171 6.584 0.786 9.596 2.308 2.056 1.039 4.643 2.87 6.979 3.265 2.448 0.424 4.192-0.871 6.304-1.941 3.912-1.943 8.36-4.166 10.666-7.995 1.408-2.363 0.45-3.546-0.309-6.22-0.873-3.039-0.675-7.542-2.223-10.271-0.62-1.039-1.267-0.934-1.886-1.97-0.818-1.409-0.957-3.913-1.381-5.518-1.857-7.090-3.968-14.128-6.135-21.164-1.183-3.77-0.985-7.824-4.813-8.921z"></path>
    </svg>