<svg xmlns="http://www.w3.org/2000/svg" viewBox="31.964 63.072 980.376 898.005">
    <path fill="#000000" d="M617.229 568.642c3.906 2.748 8.481 3.473 12.474 5.846 3.243 1.909 6.773 4.663 10.678 4.716 1.766 0 3.734-0.667 5.443-0.954 2.49-0.377 5.007-1.622 7.496-2.171 4.196-0.954 7.899-3.703 12.095-4.542 1.94-0.377 3.444-1.041 5.325-1.535 2.634-0.696 5.037-0.753 7.435-2.283 3.502-2.26 5.675-6.166 7.96-9.493 2.691-3.906 4.456-8.509 5.382-13.139 0.81-4.024 2.085-7.553 1.938-11.69-0.172-4.054-0.316-8.568-0.81-12.562-0.172-1.331-0.577-2.634-0.78-3.965-0.174-1.358-0.579-2.603-0.754-3.965-0.345-2.748-2.11-5.587-3.125-8.163-0.523-1.359-1.012-1.708-1.938-2.634-0.377-0.377-0.172-0.897-0.667-1.305-0.436-0.316-1.186-0.203-1.622-0.549-0.782-0.577-1.186-1.735-1.997-2.432-0.842-0.72-1.708-1.358-2.548-2.053-1.478-1.186-3.357-2.432-4.979-3.243-1.073-0.549-1.88-0.954-2.806-1.679-0.291-0.203-1.247-0.984-1.503-1.098-0.986-0.464-0.49-0.204-1.679-0.377-0.954-0.11-1.88-0.464-2.779-0.607-1.65-0.204-1.65-0.435-3.039-1.128-0.926-0.464-1.88-0.375-2.894-0.72-0.405-0.145-0.868-0.49-1.271-0.577-0.954-0.145-1.708 0.291-2.691-0.086s-1.358-0.753-1.853-1.013c-6.31 0.523-11.839 2.835-17.797 6.541-2.953 1.822-6.482 2.779-9.987 3.703 1.968 0.11 7.899 0.841 0.055 0.145l0.121 0.667c-1.041 0.81-2.461 0.81-3.529 1.503-1.159 0.781-2.171 1.503-3.329 2.23-3.616 2.231-6.223 5.356-8.507 8.826-0.782 1.186-1.449 2.72-1.968 3.995-0.721 1.822-2.23 3.703-2.806 5.468-1.217 3.732-2.14 7.899-2.199 11.839-0.055 2.432 0.203 4.893 0.78 7.262 0.465 1.909 0.696 3.965 1.272 5.789 1.679 5.354 3.444 10.475 5.587 15.772 1.389 3.418 2.634 7.436 5.818 9.667zM389.069 487.752c-0.985 1.794-1.358 3.762-2.11 5.675-0.81 2.053-1.272 4.255-1.735 6.423-0.868 3.847-1.127 7.642-1.245 11.575-0.11 3.734-1.014 7.006-0.174 10.708 0.782 3.385 1.679 6.599 2.171 10.070 0.49 3.588 0.868 7.262 2.662 10.506 0.954 1.65 1.88 3.243 3.183 4.629 0.782 0.841 1.679 1.535 2.373 2.461 1.535 1.938 1.938 4.137 2.867 6.369 1.041 2.49 3.329 5.179 5.819 6.164 4.601 1.855 7.35 6.279 12.414 7.006 2.951 0.436 5.267 2.053 8.304 1.733 2.085-0.23 4.111-1.073 6.164-1.417 5.296-0.868 11.257-1.305 16.209-3.329 0.954-0.403 2.112-0.258 3.011-0.607 0.84-0.346 1.098-0.897 1.823-1.331 1.184-0.722 2.283-1.304 3.473-2.053 1.478-0.897 3.099-1.853 4.716-2.603 2.548-1.217 4.86-3.125 7.322-4.661 3.153-1.968 5.615-4.661 8.249-7.264 2.548-2.461 4.514-4.341 5.872-7.667 0.667-1.708 1.305-3.616 1.796-5.354 0.577-1.968 0.231-3.881 0.375-5.905 0.055-1.013 0.346-1.997 0.523-3.011 0.259-1.822-0.203-2.806-0.345-4.485-0.318-3.065-0.318-6.423-1.041-9.461-0.291-1.073-0.868-2.027-1.041-3.125-0.345-2.231-0.081-4.485-0.549-6.715-0.345-1.765-0.897-3.416-1.448-5.091-0.723-2.171-0.868-4.947-1.88-6.946-1.073-2.14-3.762-3.965-5.443-5.675-1.855-1.88-4.284-3.88-6.193-5.992-8.595-6.049-17.624-10.419-27.464-14.731-0.11 0.204-0.259 0.377-0.405 0.49-0.868-0.465-1.247-0.984-1.796-1.449-0.549-0.233-1.127-0.489-1.679-0.753-1.855-0.293-3.732 0.316-5.528 0.435-2.11 0.145-4.226 0.086-6.423 0.464-2.951 0.549-4.947 2.112-7.553 3.617-1.622 0.926-3.385 1.561-4.948 2.603-3.098 1.999-5.267 5.091-8.304 7.032-4.196 2.662-9.521 7.176-12.011 11.661zM868.868 557.238c-0.753-7.237-2.371-15.394-5.091-22.142-2.576-6.423-3.674-13.95-8.044-19.506-3.299-4.167-6.166-7.727-10.88-10.506-2.548-1.478-5.47-2.662-8.163-3.848-2.171-0.984-4.456-1.073-6.629-1.997-2.662-1.159-3.529-2.053-6.51-1.679-2.199 0.259-4.514 0.346-6.741 0.144-3.734-0.316-6.51-0.435-10.217 0.319-3.762 0.753-9.493 0.78-12.676 2.748 0.61 0.984 5.093 1.217 6.078 1.417 4.167 0.781 7.322 3.213 10.971 5.238 4.947 2.748 8.102 7.004 11.083 11.692 2.027 3.211 5.151 6.279 6.713 9.781 1.128 2.43 1.88 4.775 3.125 7.205 2.201 4.165 3.299 9.229 4.225 13.863 0.61 3.041 1.305 5.992 1.305 9.033 0.023 3.821-1.098 6.946-2.835 10.419-1.098 2.26-0.984 5.212-1.853 7.668-0.868 2.547-1.591 5.526-2.835 7.872-1.098 2.087-1.794 3.674-2.461 5.905-0.926 3.211-2.981 5.526-4.485 8.393-1.391 2.636-2.49 3.934-4.43 6.105-0.897 1.015-1.359 2.284-2.23 3.299-1.331 1.561-3.272 1.822-4.893 3.039-2.053 1.561-3.56 3.965-5.356 5.819-2.574 2.662-5.905 5.267-8.912 7.409-2.867 1.999-5.728 4.342-8.681 6.193-3.649 2.258-7.522 3.616-11.143 6.103-2.49 1.679-4.893 3.562-7.148 5.528-1.679 1.478-3.039 3.385-4.835 4.686-2.053 1.535-3.965 1.503-6.25 2.345-2.053 0.78-4.514 1.708-6.279 3.039-2.892 2.23-4.342 4.054-7.93 5.384-3.529 1.329-7.409 1.679-11.112 2.43-2.461 0.49-4.919 1.247-7.435 1.503-5.007 0.523-9.23-1.185-14.124-1.966-8.044-1.271-15.049 2.14-22.891 2.284-3.473 0.055-6.629 0.549-10.045 1.271-6.455 1.389-13.051 1.563-19.566 2.953-4.833 1.013-9.693 1.041-14.559 1.853-3.098 0.49-6.049 1.449-9.144 1.796-2.461 0.291-4.919 0.144-7.381 0.522-3.066 0.49-6.164 1.186-9.175 1.855-4.226 0.954-6.801 3.243-10.62 4.947-7.383 3.299-17.917 3.213-25.757 2.432-5.151-0.523-10.189-1.184-15.394-1.271-5.151-0.086-11.024-1.217-16.121-0.377-4.399 0.72-8.595 1.938-13.081 2.231-4.948 0.345-9.695 0.522-14.559 1.476-5.761 1.098-10.999-0.23-16.727-1.041-7.090-0.986-13.719-1.708-20.723-3.299-11.345-2.547-23.991-4.514-35.537-2.662-5.933 0.926-10.649 0.49-16.467-1.098-5.761-1.622-11.925-1.679-17.453-3.881-4.747-1.88-9.666-2.317-14.499-3.934-4.716-1.589-9.462-3.242-14.327-4.309-7.699-1.708-15.715-1.358-23.442-2.662-5.587-0.926-10.129-5.641-14.789-8.448-5.356-3.211-11.402-6.192-17.016-8.972-6.369-3.125-12.995-5.787-19.419-8.826-5.21-2.461-10.649-3.934-16.090-5.818-3.59-1.247-7.469-1.503-10.999-2.835-3.821-1.449-7.987-3.934-11.287-6.397-8.448-6.224-12.443-16.871-21.128-22.977-3.357-2.343-6.687-4.686-10.045-7.032-2.806-1.966-4.977-4.601-7.522-6.885-5.384-4.807-9.058-11.257-12.156-17.712-1.449-2.98-3.154-5.905-3.995-9.086-0.954-3.762-3.76-5.675-5.759-8.944-1.968-3.211-3.297-7.666-4.226-11.315-1.389-5.528-2.691-11.72-3.357-17.394-1.073-8.942 4.255-17.42 5.267-26.16 0.667-5.675-0.11-10.189 2.981-15.197 2.72-4.309 5.931-6.801 9.316-10.448 2.259-2.432 4.948-3.272 7.786-4.893 2.953-1.679 5.617-4.37 7.96-6.801 5.123-5.267 12.674-8.217 19.852-9.436 4.602-0.78 9.752 0.49 14.296 1.186 2.49 0.377 4.977 0.465 7.381 1.389 2.49 0.954 5.238 1.331 7.613 2.373 2.404 1.073 3.588 3.011 6.397 3.329-3.297-6.423-8.304-10.189-13.719-14.845-1.853-1.622-3.416-3.211-5.7-4.226-5.468-2.461-10.475-4.947-15.222-8.567-5.641-4.255-12.183-1.853-18.433-0.607-4.575 0.926-8.595 1.561-12.443 4.398-2.14 1.591-3.385 3.416-4.807 5.642-3.821 5.992-11.201 8.912-15.513 14.645-2.139 2.922-4.309 5.123-6.885 7.727-3.011 3.065-5.179 6.654-7.15 10.475-3.444 6.599-7.322 13.486-8.163 20.982-0.291 2.662-0.11 5.443-0.72 8.044-0.696 3.183-1.65 5.933-1.679 9.23 0 3.793 0.984 7.613 1.358 11.343 0.316 3.272 0.489 6.457 0.667 9.693 0.551 9.726 5.761 18.202 10.045 26.686 2.548 5.036 4.485 10.329 7.178 15.308 2.835 5.21 6.225 10.098 8.826 15.454 4.485 9.229 10.506 17.538 15.571 26.451 4.835 8.448 10.098 16.525 16.062 24.253 3.329 4.311 6.831 8.595 11.575 11.431 4.514 2.72 9.463 4.775 14.237 6.946 4.165 1.88 8.073 3.066 12.443 4.284 1.766 0.523 3.213 1.272 4.688 1.999 1.271 4.603 1.733 8.8 2.634 13.486 0.809 4.255 2.053 9.033 3.762 13.17 1.822 4.428 5.066 8.423 7.322 12.734 1.185 2.283 6.25 10.301 9.289 10.329-0.49-3.444-0.404-7.435 0.23-10.475 1.015-4.775 0.49-10.217 1.449-15.249 0.897-4.745 1.563-9.608 2.548-14.296 0.144 0.086 0.291 0.174 0.435 0.259 3.588 1.968 7.522 3.272 11.376 4.775 1.215 6.020 2.892 11.983 4.601 17.625 3.965 13.051 12.415 24.89 23.268 34.35 4.226 3.703 7.899 8.251 10.94 12.646 1.679-2.634-0.81-5.872-0.868-8.74-0.144-7.381 1.014-14.99 1.478-22.339 0.316-5.356 0.523-10.766 0.754-16.175 4.859 1.766 9.521 4.054 14.44 5.587 1.358 4.716 2.951 9.349 5.151 13.428 3.211 5.959 8.335 10.938 11.69 16.842 3.013 5.324 4.226 10.649 7.901 15.715 2.11 2.921 14.962 23.24 19.506 22.082 0.081-2.027-1.186-3.934-1.563-5.933-0.463-2.604-0.203-5.179-0.721-7.843-0.985-5.007-1.591-9.608-1.679-14.7-0.11-8.855-0.377-17.712-0.579-26.565 0.954 0.144 1.94 0.291 2.894 0.464 3.616 0.638 7.176 1.331 10.766 1.968 3.793 6.078 8.335 11.69 12.472 17.624 4.255 6.164 6.86 12.474 10.275 18.957 3.473 6.541 7.727 12.851 11.661 19.214 3.732 6.020 7.93 14.151 14.499 18.321 0.346-3.529-1.449-7.755-2.258-11.287-1.331-5.819-2.691-11.607-4.025-17.394-3.213-13.777-7.613-27.868-9.058-41.877 6.831 0.345 13.688 0.607 20.545 0.897 0.723 8.8 3.562 17.653 7.178 26.049 5.443 12.619 12.414 24.86 23.268 34.323 4.226 3.703 7.872 8.249 10.938 12.646 1.679-2.636-0.81-5.872-0.868-8.741-0.144-7.35 0.985-14.99 1.449-22.339 0.667-10.331 0.696-20.864 1.853-31.198 0.465-4.078 1.855-8.163 3.385-12.213 1.563 0 3.153 0.031 4.775 0.086 7.006 0.259 14.007-0.377 21.010-0.291 0.081 0.377 0.203 0.781 0.291 1.157 3.965 16.813 6.973 33.227 4.37 50.473-0.523 3.385-5.007 25.093 0.608 26.743 3.762-8.972 7.755-17.739 12.069-26.567 7.436-15.394 10.678-31.861 15.452-47.984 0.465-1.503 0.782-3.011 1.159-4.542 6.973-0.523 14.007-0.377 20.895-1.449l0.293-0.055c1.679 6.713 3.329 13.426 4.715 20.171 2.894 14.063 2.691 29.26 2.808 43.528 0.026 3.528-0.868 7.642 1.098 10.879 2.953-2.11 4.602-7.176 5.789-10.129 1.765-4.37 4.661-7.755 6.509-11.983 2.662-6.049 2.922-12.621 6.279-18.521 2.284-2.748 3.848-5.819 4.716-9.144 0.523-5.323 0.667-10.68 0.436-16.062 0.144-5.675 1.073-11.201 2.087-16.727 2.921-1.041 5.872-2.027 8.912-2.691 3.213-0.667 6.423-1.271 9.666-1.855 1.041 4.255 2.085 8.537 2.98 12.851 2.892 14.063 2.691 29.26 2.779 43.528 0.026 3.529-0.84 7.613 1.128 10.85 2.951-2.085 4.602-7.176 5.787-10.129 1.735-4.342 4.661-7.755 6.51-11.983 2.662-6.020 2.922-12.621 6.279-18.493 2.284-2.779 3.848-5.819 4.716-9.144 0.489-5.354 0.637-10.708 0.405-16.062 0.11-3.588 0.523-7.15 1.073-10.649 2.343-0.549 4.686-1.041 7.118-1.503 3.039-0.578 6.049-1.331 9.058-2.112 2.834 5.7 4.977 11.781 7.494 17.684 2.199 5.124 2.691 10.678 4.859 15.541 1.419 3.125 2.317 7.178 2.461 10.708 3.59-0.075 7.96-8.448 8.914-10.793 1.794-4.485 4.805-8.681 6.078-13.255 1.157-4.255 1.679-9.175 1.733-13.575 0.081-4.284-0.144-8.191 0.174-12.328 0.868-0.11 1.708-0.233 2.576-0.465 3.88-0.926 7.468-2.634 11.141-4.078 4.663-1.853 8.596-4.947 12.966-7.381 4.601-2.576 8.535-5.587 12.793-8.767 8.13-6.078 16.989-10.419 25.498-15.89 8.999-5.759 16.467-14.415 23.5-22.314 11.575-12.965 21.067-27.755 26.915-44.135 1.331-3.732 3.185-7.032 3.502-11.083 0.259-3.099 0.464-6.543 0.144-9.637zM897.578 412.744c4.078 10.827 5.7 20.545 8.191 31.4 1.073 4.573 1.909 8.625 3.762 12.765 5.21 11.632 14.612 23.615 15.108 36.898 0.316 8.884 1.478 18.347 3.821 27 3.88 14.381 1.794 30.331 1.938 45.177 0.055 5.992-0.696 11.692-7.727 12.765-4.485 0.696-9.813-0.144-13.342 2.98-3.88 3.416-4.977 13.6-5.526 18.261-1.041 9.407-1.591 19.188-2.112 28.591-0.781 14.182-4.833 29.664-10.793 42.659-10.242 22.4-36.495 15.163-53.282 29.201-12.095 10.129-13.281 31.458-20.083 44.917-6.482 12.877-19.303 18.868-29.345 28.622-5.238 5.123-9.407 5.848-16.149 7.699-4.167 1.127-8.681 3.703-11.489 7.061-3.416 4.111-5.007 10.159-7.494 14.818-4.198 7.814-9.436 14.845-14.296 22.256-4.977 7.553-7.899 17.044-16.727 19.591-5.526 1.561-10.189 4.919-15.657 6.741-9.666 3.213-20.518 2.781-30.618 2.461-4.078-0.11-7.522-1.708-11.548-2.086-4.745-0.404-9.838 0.11-14.612 0.11-16.090 0-33.688-2.317-48.91 3.762-5.992 2.402-10.159 6.772-15.685 9.896-3.418 1.88-7.15 2.981-10.649 4.661-3.502 1.708-6.627 4.399-10.561 4.979-3.59 0.523-7.843-0.145-11.46-0.145-5.356 0-10.793-0.377-16.15-0.144-4.456 0.172-6.945 2.892-10.88 3.934-5.819 1.503-14.964-1.389-20.545-2.343-5.037-0.897-9.637-2.201-14.327-4.198-9.754-4.167-18.554-12.707-29.319-12.734-11.518-0.055-22.891-1.909-34.264-3.56-7.755-1.127-13.024-2.461-20.171-6.105-4.919-2.548-8.654-2.892-13.863-4.255-3.066-0.81-4.747-1.478-8.395-1.478-4.542 0.055-9.086 0-13.633 0-4.919 0-10.563 0.722-15.341-0.435-4.893-1.186-8.595-4.342-13.514-5.848-4.544-1.359-7.93-3.329-11.894-5.728-5.382-3.243-10.329-5.728-15.452-9.177-6.831-4.601-12.097-8.654-17.969-14.499-4.485-4.456-7.381-9.377-11.112-14.036-4.054-5.124-8.855-8.74-14.124-12.818-2.283-1.796-4.456-3.243-6.48-5.356-3.099-3.272-5.267-4.078-8.972-6.423-5.556-3.502-11.607-5.992-16.467-10.708-5.587-5.382-10.098-11.518-15.25-17.274-3.762-4.226-7.381-8.251-9.462-13.516-2.371-6.136-3.88-12.965-5.905-19.245-3.099-9.608-6.945-16.583-13.051-24.743-8.654-11.548-16.902-24.222-26.512-34.988-3.297-3.674-8.567-5.528-11.287-9.608-2.258-3.383-3.065-7.93-3.297-11.923-0.464-8.595 1.073-17.307-0.075-25.875-0.696-5.151-3.243-8.395-5.151-12.879-1.999-4.747-2.72-9.813-4.255-14.7-3.502-11.112-9.666-23.558-15.772-33.602-3.674-6.049-9.436-9.461-12.532-15.772-2.317-4.775-4.516-9.229-4.716-14.671-0.232-5.212 1.217-10.244 1.855-15.369 0.72-5.468 0.78-11.257 2.574-16.554 4.575-13.633 17.714-24.34 28.015-33.629 7.727-6.946 22.109-14.964 23.759-25.988 0.926-6.224-2.259-9.813-3.502-14.933-1.909-7.843 7.322-10.825 13.051-14.237 8.423-5.007 19.070-13.024 25.034-20.953 2.779-3.674 1.448-7.642 3.88-11.171 6.224-9.086 38.203-2.259 34.437-16.902-1.271-4.893-5.21-9.551-7.004-13.891-1.098-2.691-0.523-6.136-1.245-9.033-0.954-3.76-2.748-7.061-4.485-10.506-2.576-5.037-12.587-19.275-2.548-22.572 7.667-2.515 17.135-1.88 25.206-1.88 11.23 0 22.256-0.316 33.369 1.419 2.922 0.436 20.953 5.759 22.804 0.667 2.027-5.587-6.224-13.863-8.567-17.42-2.371-3.56-3.847-6.918-7.061-9.986-1.186-1.127-3.732-2.199-4.629-3.529-1.622-2.461-1.448-3.098-0.232-5.872 2.345-5.324 6.773-8.595 12.621-9.521 19.739-3.125 40.227-2.72 59.994 2.26 15.136 3.793 32.008 4.024 46.447 10.098 2.548 1.041 17.135 10.971 20.634 6.482 1.589-2.053-1.245-3.529-1.735-5.267-0.897-3.213-0.463-6.569-1.855-9.898-2.515-6.078-7.872-13.717-11.892-19.129-4.398-5.992-9.377-11.287-13.6-17.451-4.716-6.918-10.419-10.999-16.784-16.15-3.272-2.662-11.431-7.667-10.131-12.851 1.419-5.642 14.559-5.325 18.554-5.587 4.775-0.319 9.521-0.11 14.296-0.204 17.624-0.259 35.396 6.078 52.234 10.649 14.991 4.078 28.796 10.331 43.033 16.353 16.439 6.945 33.080 14.588 48.646 23.299 8.304 4.661 16.175 10.188 23.529 16.262 1.938 1.591 4.542 5.323 7.205 4.805 4.602-0.897 3.098-8.448 3.098-11.546 0-9.23 0.754-16.785-3.039-25.208s-10.911-15.801-16.699-22.948c-8.363-10.303-16.612-21.274-28.331-27.928-4.37-2.517-15.713-4.948-17.451-10.331 5.354-1.855 12.502-0.346 18.202-0.377 5.21-0.055 9.549 0.549 14.645 1.853 15.282 3.848 29.088 11.866 44.165 16.322 37.45 11.084 70.616 32.85 102.244 55.102 21.272 14.964 46.303 28.247 61.384 50.24 1.794 2.636 5.992 11.894 10.999 7.583 2.748-2.371-1.766-5.961-2.636-8.74-1.271-3.995-1.679-8.568-3.065-12.388-0.463-1.305-2.112-3.066-2.49-4.255-0.954-3.041-0.405-6.138-1.478-9.318-2.953-8.74-10.045-18.377-15.427-25.755-1.184-1.65-4.341-4.86-4.485-7.006-0.723-10.217 17.188 1.855 19.969 3.906 6.193 4.575 13.516 10.070 18.521 15.918 13.17 15.369 27.524 29.345 41.009 44.421 2.806 3.154 6.164 5.296 8.942 8.019 3.011 2.981 6.078 6.887 9.144 10.070 5.411 5.642 9.867 12.097 14.964 18.003 5.47 6.367 11.143 11.892 15.138 19.36 3.242 6.020 6.423 11.083 10.737 16.381 3.502 4.284 7.932 9.318 9.551 14.789 2.053 7.004 3.329 14.612 5.123 21.735 2.343 9.493 5.675 18.554 8.304 27.928 3.066 10.88 4.514 21.505 4.311 32.82-0.075 4.573-0.291 9.116 0.377 13.686 0.464 3.125 0.489 9.436 1.589 12.587 0.954 2.779 3.617 4.602 5.7 6.654z"></path>
    </svg>