<svg xmlns="http://www.w3.org/2000/svg" viewBox="154.278 -49.367 467.666 1122.608">
    <path fill="#000000" d="M487.154 155.090c-1.832 5.692-5.886 10.136-8.068 15.71-2.183 5.536-4.717 10.33-9.24 14.463-3.742 3.427-8.458 5.184-13.176 6.666-3.43 1.093-6.51 3.587-9.823 4.521-2.378 0.662-5.692 0.359-7.914 0.307-5.378-0.052-10.759-0.037-16.137-0.037-6.979 0-15.047 1.206-21.675-1.247-2.846-1.052-6.392-2.027-8.966-3.433-3.195-1.755-4.404-3.9-8.458-3.977-6.003-0.154-10.136 4.716-15.437 6.979-7.953 3.392-17.075 6.821-25.612 8.225-19.997 3.351-45.647 6.158-58.669-13.294-2.417-3.546-2.339-11.032-2.962-15.281-0.702-5.065-1.987-10.212-2.143-15.319-0.272-10.72-5.184-22.375-3.041-33.097 1.052-5.106 4.367-9.396 6.977-13.76 2.067-3.433 3.393-5.769 7.212-7.486 8.655-4.012 17.66-6.158 27.053-6.158 3.43 0 8.381-0.898 11.735-0.102 1.558 0.411 1.676 1.56 3.235 1.909 2.417 0.544 4.795 0.585 7.328 1.211 6.238 1.596 12.163 3.587 18.166 6.004 2.455 0.975 4.171 3.156 7.095 3.156 2.339 0 6.081-2.535 7.912-3.587 3.275-1.909 6.043-3.197 9.473-4.716 4.249-1.873 9.355-3.043 13.371-5.147 4.171-2.181 7.251-4.639 11.928-6.003 2.846-0.821 6.043-1.637 10.642-9.9h24.052c7.99 0 14.93-0.513 22.336 3.037 3.157 1.483 7.679 3.274 9.981 6.003 1.13 1.329 2.417 4.757 3.313 6.394 4.327 7.953 7.719 16.957 9.862 25.688 1.169 4.716 0.313 9.356 1.287 14.074 1.285 6.314 0.349 12.006-1.639 18.204zM539.935 153.774c-0.467-6.394-1.676-15.007-3.43-21.012-1.87-6.625-3.117-13.097-4.678-19.763-1.13-4.987-3.937-9.277-5.769-14.033-1.676-4.444-2.65-9.122-4.171-13.644-2.339-7.016-5.418-14.852-9.901-20.932-8.108-11.11-22.766-15.787-34.968-20.855-18.009-7.524-38.396-4.597-57.575-4.757-9.667-0.102-18.322 0.739-27.482 3.936-3.899 1.329-7.446 1.991-11.188 3.161-1.949 0.585-3.704 0.662-3.978 3.232-17.932-6.081-28.574-13.215-41.047-16.412-8.031-2.062-17.191 1.17-25.612 0.934-10.252-0.257-17.58 3.274-27.287 5.887-9.745 2.612-19.256 3.002-27.794 8.809-6.394 4.29-8.849 12.826-12.241 19.608-4.054 8.107-3.353 17.036-5.497 25.612-2.222 8.731-2.962 16.295-3.002 25.376-0.037 13.8 1.91 26.898 3.86 40.541 2.417 17.269 4.6 34.732 12.239 50.677 6.939 14.384 17.113 31.224 33.799 35.083 5.847 1.324 11.344 2.222 17.306 2.925 4.367 0.513 4.873 1.016 8.070 3.043 5.963 3.817 11.89 7.835 12.435 15.669 0.545 7.991-0.195 16.372-0.195 24.403 0 9.082 0.272 16.332 3.352 24.988 2.613 7.21 4.367 13.642 8.693 20.036 2.65 3.895 7.486 7.017 9.629 10.992 2.222 4.054 0.663 10.994 0.663 15.593v14.501c0 8.692-0.39 17.423-0.072 26.079 0.195 5.769 1.285 12.513 2.143 18.322 1.287 9.005 3.471 17.853 4.404 26.935 1.327 12.787 2.106 25.066 2.106 37.929 0 12.162 0.072 24.325-0.037 36.487-0.072 10.759 1.521 21.323 1.832 32.004 0.467 14.307 1.013 29.392-0.467 43.659-0.508 4.911-1.285 9.591-1.363 14.541-0.072 4.131 0.431 8.148-0.349 12.279-2.923 15.787-1.832 32.044-4.327 47.909-0.936 5.769-1.091 11.811-2.106 17.58-0.547 3.079-2.495 6.317-1.832 9.551 0.508 2.494 2.065 3.741 3.937 5.496 1.521 1.401 5.145 2.807 6.199 4.213 1.13 1.519 0.236 5.729 0.272 7.523 0 3.977-1.13 7.055-1.754 10.914-1.988 12.083-3.275 24.363-5.34 36.409-0.896 5.185-1.87 10.525-3.586 15.515-1.558 4.597-3.508 8.070-4.404 13.021-0.624 3.238-1.054 5.769-2.143 8.965-2.497 7.251-1.405 14.852-3.393 22.297-1.403 5.225-1.754 9.862-1.715 15.202 0 3.043-0.072 6.082-0.037 9.122 0.037 4.249 1.443 7.679 1.794 11.735 0.545 7.132-4.055 13.176-6.432 19.178-3.237 8.031-2.456 13.097 2.962 20.31 3.080 4.095 7.057 6.158 10.876 9.082 1.598 1.211 2.221 0.934 3.43 2.884 1.792 2.884 1.754 7.288 2.846 10.447 2.299 6.743 2.846 14.5 3.782 21.673 1.948 15.047 2.532 29.159 15.904 37.462 2.106 1.282 4.367 2.571 6.432 3.859 1.561 0.934 3.43 1.483 4.873 2.494 0.663 0.462 1.521 2.571 1.987 2.766 4.522 2.027 11.461-0.411 15.943-1.401 5.029-1.093 9.903-2.181 14.696-3.9 5.769-2.068 6.901-4.562 9.785-9.785 1.132-2.104 2.963-5.262 3.471-7.327 0.39-1.637-0.072-3.232 0.272-4.834 0.195-0.739 1.365-1.637 1.443-2.027 1.052-5.145-0.508-10.759 0.508-15.906 0.702-3.427 1.558-5.808 1.558-9.433 0.037-3.274-1.091-3.977-1.792-6.783-1.091-4.597 0.349-9.901 2.222-13.798 2.846-6.003 5.692-12.163 8.381-18.011 1.948-4.172 3.469-11.344 6.547-14.735 1.676-1.873 6.549-4.993 8.693-6.003 2.339-1.093 4.367-0.462 6.901-0.744 3.82-0.359 2.61-1.519 5.456-3.115 1.949-1.093 5.847-0.549 7.875-0.307 2.456 6.9 5.574 12.515 8.966 18.946 1.443 2.766 3.742 7.132 6.392 9.005 3.352 2.34 12.513 1.909 16.763 1.282 3.742-0.585 7.795-1.401 11.617-2.145 3.080-0.585 9.355-2.104 11.733-4.326 2.846-2.689 2.222-12.746 1.403-16.801-0.7-3.587-1.598-5.574-1.558-9.434 0-2.807 0-5.614 0-8.459v-58.667c0-8.226-0.272-15.982 1.325-24.014 0.663-3.274 0.663-6.821 0-10.057-3.975-19.023-5.965-39.448-8.146-58.473-0.313-2.73-1.482-4.095-1.832-6.781-0.39-3.427-0.39-5.302-1.676-8.655-1.521-4.012-2.768-9.59-6.394-12.513-3.157-2.535-10.876-1.365-15.007-1.206-3.704 0.102-7.835 0.621-11.383 1.791-3.352 1.052-3.157-0.411-3.275 4.213-0.072 3.782-0.778 4.521-1.715 7.601-0.663 2.068 0.936 5.34-2.028 6.314-0.467 0.154-3.080-0.975-3.82-1.093-2.028-0.307-4.873 0.052-6.901 0.052h-11.733c-9.511 0-28.963 3.664-28.691-10.33 0.236-12.279 0-24.598 0-36.916 0-4.834 0.272-9.785 0.037-14.618-0.195-4.054-1.637-7.719-1.872-11.772-0.857-16.139 0.128-32.589 0.128-48.727 0-26.82-1.754-53.444-1.716-80.226 0-16.215 0-32.432 0-48.688v-79.405c0-6.705-0.974-14.541-0.037-21.323 1.169-8.771 8.575-14.851 12.864-23.193 7.368-14.422 4.404-31.849 1.715-47.167-1.169-6.861-1.637-15.125-0.934-22.142 0.39-4.012 3.235-4.993 6.937-6.59 8.46-3.7 16.919-7.017 25.457-10.368 9.16-3.546 18.827-5.42 27.872-9.318 2.417-1.052 4.56-2.848 6.783-3.936 2.143-1.016 4.912-1.401 6.977-2.925 2.379-1.714 4.288-4.207 6.823-6.041 2.377-1.714 3.586-3.043 5.34-5.34 2.806-3.705 5.963-7.016 8.42-10.954 2.572-4.172 3.664-8.811 5.925-13.1 4.638-8.692 3.39-23.077 2.65-32.86z"></path>
    </svg>