<svg xmlns="http://www.w3.org/2000/svg" viewBox="-17.289 -20.099 1066.057 1078.420">
    <path fill="#000000" d="M961.426 328.308c7.342 114.37-44.761 223.823-108.311 315.993-80.533 112.033-186.675 207.376-311.105 268.021-84.669 38.021-184.555 65.999-275.354 33.156-54.367-19.878-87.548-69.819-128.963-107.138-28.205-23.945-51.043-52.343-62.618-88.078-7.683-27.975-9.092-37.043-9.702-58.427-2.662-11.701-0.973-36.884 1.212-55.551 11.245-111.042 68.285-210.583 135.807-298.276 69.478-84.536 152.042-159.754 248.567-210.98 72.099-38.925 152.705-67.127 235.68-63.052 53.889-0.434 106.995 20.737 142.631 61.84 33.687 35.947 72.728 67.351 101.624 107.308 18.961 26.388 31.101 71.113 30.53 95.186zM688.611 653.261c29.141-20.877 24.37-39.099-3.864-57.973-24.262-29.097-46.273 38.4-72.6 50.093-24.477 16.42-37.828 30.965-6.84 48.898 19.863 41.197 45.248-9.643 65.117-24.042 7.103-4.581 11.62-11.856 18.187-16.973zM866.85 236.156c-25.883 19.004-79.486 24.83-83.966 54.562 12.124 28.921-21.875 100.119 27.618 61.701 33.977-14.537 71.154-28.088 59.985-72.614-0.141-14.352 0.939-31.466-3.636-43.65zM577.060 644.773c18.752-12.605 42.271-28.261 52.14-48.5-8.279-25.439-30.712 2.078-41.078 13.191-10.12 14.164-46.623 27.548-26.821 46.22 9.587 4.779 9.042-6.326 15.759-10.911zM332.133 854.536c9.343-27.084 43.458-70.33 38.875-86.164-34.53 15.093-88.423-20.782-97.683 29.175-24.975 36.872-37.845 72.45 20.611 60.551 12.809-0.246 25.455-2.452 38.195-3.562zM182.995 575.659c-26.653 22.257-81.688 23.958-87.908 60.020-1.97 31.641-11.752 95.781 33.343 55.775 32.378-14.243 66.856-25.085 49.787-66.233 0.82-16.491 2.169-33.247 4.776-49.562zM640.112 76.105c-10.162 26.744-41.252 69.603-38.194 86.164 26.923-4.469 55.033-6.031 81.845-0.077 9.922-27.855 40.904-66.106 38.194-87.149-27.267-3.736-54.641-2.982-81.845 1.057zM767.424 346.494c-20.374-40.192-31.723 31.538-35.471 48.498-19.927 37.582 30.977 34.727 25.767-2.428 4.073-17.276 18.114-66.055-3.485-27.889-14.432 19.909 11.552-15.942 13.187-18.183zM404.884 726.012c-7.052-21.185-34.293-0.434-50.927-4.852-18.732-6.831-59.577 12.986-25.35 24.25 24.476 0.998 48.884-0.903 72.638-6.061 21.822-24.72-61.414-11.533-11.746-14.134l15.385 0.786zM269.082 744.198c-5.089-22.641-33.104-49.244-48.504-66.692-25.359-0.27-4.363 45.633 13.676 43.651 14.686-5.146 27.584 9.6 39.674 1.212 4.168-10.059-5.946 22.193-4.846 21.829zM199.97 612.035c-20.213 32.95 31.915 42.881 21.828 7.274 1.937-17.003 26.037-79.621-9.702-60.627-6.090 17.335-11.072 35.029-12.124 53.353zM560.085 249.494c30.401-7.492 62.351-11.707 93.363-6.063 26.707-10.012-1.735-35.298-20.952-25.464-27.735 0.223-56.313-2.83-82.113 9.699-12.585 13.199 4.579 21.827 9.7 21.828zM444.896 722.373c-22.488 31.914 26.607 22.764 40.015 9.699 12.92-5.854 51.402-15.558 31.527-35.164-19.493-6.738-64.661 45.421-71.542 25.465zM749.236 251.92c1.773-12.609-25.342 2.696-30.312-9.702-29.203-11.115-17.949 28.636 0.004 36.678 8.589 12.128 12.879 52.765 34.534 33.065 3.377-18.692-4.228-40.53-4.225-60.042zM418.221 232.519c-12.739 46.344 46.045-3.192 63.353-10.912 33.384-12.271-1.478-39.897-18.187-17.279-16.086 4.713-38.296 11.239-45.164 28.19zM372.146 291.932c-19.217-14.63-27.404 20.712-44.865 19.401-12.582 6.353-30.217 32.4-4.85 33.952 15.382-21.942 58.99-40.010 55.777-67.902l-3.334 7.276-2.728 7.276zM293.333 432.583c-2.455-46.39-42.393 13.775-48.502 30.313-32.415 27.082 25.507 47.061 16.976 4.85 8.867-19.98 9.849-86.029 31.526-35.163zM670.423 544.135c14.881-2.529 20.555-23.412 30.317-27.888 18.932-10.974 11.19-52.864-9.7-31.526-6.86 25.438-51.951 51.209-31.527 75.178 8.84 2.626 5.817-12.826 10.912-15.763zM330.92 239.793c-27.034 28.83-74.040 61.215-84.288 92.322 27.106 20.182 52.812 37.243 71.557-1.308 21.293-31.798 92.059-57.448 33.571-88.817-9.938-8.343-13.299-21.017-20.84-2.197zM316.37 950.326c25.604 0.927 76.742 7.51 85.502-6.366-31.241-20.679-49.814-76.243-93.534-53.729-19.244 4.577-71.020-5.625-31.676 19.646 12.74 12.915 30.556 28.82 39.71 40.449zM752.875 751.474c16.594-22.151 62.331-45.669 23.911-67.028-16.054-16.054-32.108-32.108-48.161-48.161-20.671 36.677-80.383 66.469-86.050 97.986 30.952 22.729 59.483 89.593 92.114 34.708 6.177-5.715 12.237-11.556 18.187-17.505zM883.825 345.283c22.057 20.778 42.538 43.14 64.263 64.263 3.717-30.082 12.387-67.092-1.745-93.897-17.606-17.606-35.211-35.211-52.817-52.817 0.657 27.684-3.206 55.611-9.7 82.45z"></path>
    </svg>