<svg xmlns="http://www.w3.org/2000/svg" viewBox="-36.894 -49.721 1115.741 1125.968">
    <path fill="#000000" d="M100.988 982.51c-3.251-8.38-1.726-19.422 3.384-24.536 11.828-11.828-2.828-31.498-23.471-31.498-21.196 0-24.757-6.979-17.133-33.565 5.062-17.653 3.765-25.105-4.959-28.453-15.703-6.025-15.154-21.831 0.76-21.831 6.918 0 12.577-3.014 12.577-6.7 0-3.684 13.207-11.476 29.347-17.313 28.894-10.448 34.926-17.923 23.601-29.247-13.847-13.847-27.813-73.873-32.997-141.821-5.676-74.397-2.324-90.978 33.433-165.467 12.544-26.13 47.234-33.79 47.234-10.43 0 33.268 71.633 77.106 153.657 94.034 43.615 9.002 50.597 8.497 65.186-4.706 26.771-24.227 14.443-32.765-47.662-33.009-59.416-0.238-83.127-7.19-74.131-21.746 3.113-5.039 27.912-5.989 63.862-2.448 54.783 5.398 58.538 4.716 55.338-10.049-1.926-8.874-8.746-14.381-15.513-12.523-27.117 7.445-66.581 8.069-66.581 1.056 0-4.126 12.262-8.682 27.251-10.127 24.73-2.386 27.034-4.954 24.905-27.782-3.005-32.206 36.209-82.537 48.798-62.632 6.187 9.784 7.821 8.538 7.923-6.048 0.095-10.104-3.997-20.922-9.046-24.041-5.046-3.118-7.375-15.082-5.176-26.587 2.201-11.504-1.193-30.872-7.543-43.038-6.348-12.167-11.565-32.497-11.594-45.179-0.033-14.884-4.511-23.059-12.629-23.059-15.895 0-16.173-15.574-0.585-32.836 55.795-61.789 54.005-60.592 73.897-49.425l18.922 10.622-20.962 2.99c-29.614 4.226-36.581 13.759-25.368 34.713 15.183 28.37 53.293 20.516 59.109-12.18l4.473-25.154 14.241 28.158c15.482 30.611 11.347 46.94-20.844 82.321-17.301 19.015-14.156 36.256 6.614 36.256 7.297 0 12.082-8.301 12.082-20.962 0-24.033 9.816-26.719 28.684-7.85 7.212 7.211 16.913 10.762 21.561 7.89s8.449-1.226 8.449 3.655c0 4.883-8.722 8.88-19.381 8.88s-27.639 7.694-37.732 17.096c-15.187 14.149-18.351 26.353-18.351 70.777 0 55.574-9.4 74.294-24.384 48.557-7.44-12.779-8.68-11.599-8.901 8.472-0.285 25.332 2.909 27.283 56.96 34.871 23.228 3.261 34.393 2.077 31.076-3.29-2.847-4.606-6.541-36.769-8.206-71.469-3.742-77.912 11.379-85.624 29.293-14.942 8.381 33.070 16.798 49.019 26.876 50.924 18.904 3.575 20.186-28.086 1.431-35.284-9.807-3.765-11.839-11.486-7.827-29.752 3.005-13.673 1.084-32.765-4.302-42.832-7.247-13.541-7.3-20.581-0.19-27.673 14.227-14.227 25.301 8.479 25.454 52.188 0.142 36.64 0.142 36.678 26.483 31.413 15.326-3.066 31.201-1.251 37.935 4.34 6.368 5.286 13.841 7.349 16.605 4.582 8.078-8.077-4.473-32.484-13.757-26.748-4.644 2.872-8.444 1.478-8.444-3.095 0-12.363 36.367-21.923 40.156-10.557 7.202 21.607 18.538 7.208 18.538-23.547 0-18.174 3.774-35.377 8.385-38.227 4.611-2.852 8.385 2.034 8.385 10.858 0 23.903 37.762 60.412 62.486 60.412 11.749 0 21.362-4.027 21.362-8.949s-6.918-6.755-15.372-4.069c-12.652 4.017-15.372 0.285-15.372-21.135 0-14.308-5.346-29.397-11.878-33.532-9.852-6.236-9.565-7.54 1.678-7.647 29.593-0.285 76.893 97.224 73.779 152.088-1.635 28.783 3.508 45.159 24.472 77.913 14.597 22.808 26.541 46.683 26.541 53.055 0 13.406 64.226 74.645 85.944 81.946 19.023 6.396 18.527 17.222-1.982 43.294-9.16 11.646-14.515 24.637-11.901 28.867 2.767 4.473-12.763 5.977-37.097 3.593-43.246-4.24-57.001 5.188-46.708 32.011 2.477 6.451 0.742 14.052-3.85 16.891-18.555 11.467-29.347-78.124-14.908-123.758 9.548-30.178 23.158-12.782 16.407 20.973-3.889 19.432-1.293 23.884 16.53 28.357 13.54 3.398 29.055 0.142 43.158-9.121 19.872-13.021 20.895-16.119 10.492-31.788-6.34-9.548-23.484-23.185-38.098-30.305s-28.815-21.404-31.556-31.746c-4.088-15.422-8.969-17.852-27.151-13.517-12.191 2.904-25.939 7.992-30.55 11.302-41.433 29.736-255.182 44.983-381.511 27.215-150.848-21.217-223.753-48.38-275.32-102.577l-27.967-29.393 4.273 30.789c3.047 21.927 0.836 32.108-7.669 35.373-17.248 6.619-15.14 44.969 2.728 49.639 12.319 3.218 12.489 3.993 1.065 4.807-11.554 0.827-13.307 11.424-11.608 70.147 1.102 38.047 4.885 81.53 8.41 96.63 8.341 35.736 47.173 64.155 78.971 57.796 26.061-5.212 59.418 1.174 59.418 11.377 0 3.646-19.809 8.543-44.020 10.88-91.984 8.879-169.461 30.843-108.8 30.843 31.008 0 43.523 15.27 24.136 29.447-7.622 5.573-13.992 19.15-14.155 30.172-0.142 11.021-5.55 29.471-11.971 41-10.525 18.899-12.256 19.462-17.586 5.725zM432.697 582.696c0-4.611-5.883-8.385-13.072-8.385s-10.74 3.774-7.89 8.385c2.852 4.611 8.733 8.385 13.072 8.385s7.89-3.774 7.89-8.385zM524.93 582.696c0-4.611-13.206-8.385-29.347-8.385s-29.347 3.774-29.347 8.385c0 4.611 13.206 8.385 29.347 8.385s29.347-3.774 29.347-8.385zM701.013 582.696c9.211-5.952 3.037-8.163-23.059-8.256-19.599-0.048-35.635 3.646-35.635 8.256 0 10.7 42.138 10.7 58.694 0zM531.045 544.091c-2.785-2.785-10.018-3.085-16.071-0.661-6.689 2.677-4.702 4.663 5.066 5.066 8.839 0.381 13.792-1.616 11.005-4.402zM594.411 498.019c4.784-35.667 0.723-57.866-10.587-57.866-9.008 0-16.177 50.677-11 77.76 5.952 31.139 15.981 21.897 21.586-19.895zM734.552 524.567c0-20.451-24.701-28.665-53.394-17.755-37.133 14.118-27.982 33.96 15.662 33.96 31.703 0 37.732-2.59 37.732-16.205zM831.323 498.29c7.717-12.487-1.231-19.275-17.284-13.115-7.408 2.842-11.122 8.969-8.252 13.613 6.797 10.997 18.574 10.767 25.536-0.499zM449.467 492.308c0-12.397-58.472-61.666-66.96-56.421-15.007 9.275-9.159 19.167 16.651 28.164 13.835 4.823 25.155 14.625 25.155 21.783s5.66 13.013 12.577 13.013c6.918 0 12.577-2.943 12.577-6.54zM726.595 479.812c-4.987-36.265-13.020-56.3-24.427-60.924-11.577-4.692-10.772-6.711 5.133-12.844 20.342-7.844 26.125-32.97 7.588-32.97-6.202 0-18.107 7.546-26.454 16.77s-22.138 16.77-30.647 16.77c-22.935 0-19.257 8.512 20.166 46.668 32.832 31.777 50.702 41.525 48.64 26.53zM831.259 416.899c-2.457-6.412-4.473-18.894-4.473-27.741s-5.66-16.084-12.577-16.084c-6.918 0-12.577 3.774-12.577 8.385s-5.66 8.385-12.577 8.385c-6.918 0-12.577-3.774-12.577-8.385s-3.774-8.385-8.385-8.385c-10.36 0-11.213 55.957-0.951 62.3 4.088 2.529 12.097-1.022 17.797-7.89 17.456-21.034 26.804-14.328 20.583 14.766l-5.827 27.25 18.019-20.472c9.91-11.26 16.006-25.717 13.546-32.129zM415.928 410.806c0-6.918-5.66-12.577-12.577-12.577s-12.577 5.66-12.577 12.577c0 6.918 5.66 12.577 12.577 12.577s12.577-5.66 12.577-12.577zM621.357 398.229c2.852-4.611 1.189-8.385-3.698-8.385-4.883 0-8.88 3.774-8.88 8.385s1.664 8.385 3.698 8.385c2.034 0 6.029-3.774 8.88-8.385zM457.852 247.302c0-19.006-8.695-21.49-23.478-6.708s-12.298 23.478 6.709 23.478c11.18 0 16.769-5.59 16.769-16.77zM267.096 894.665c-74.911-3.037-81.044-18.498-7.337-18.498 29.399 0 65.831-2.477 80.96-5.501 19.692-3.94 25.812-2.762 21.543 4.146-10.862 17.575-33.717 22.343-95.167 19.852zM348.849 834.622c0-4.402 14.149-10.073 31.444-12.601 17.294-2.529 55.969-10.277 85.944-17.22 69.646-16.131 100.618-16.192 100.618-0.19 0 20.302-28.021 29-77.098 23.935-30.185-3.113-48.418-1.492-52.215 4.654-7.067 11.435-88.692 12.755-88.692 1.435zM798.837 811.883c-3.076-3.076-5.589-12.104-5.589-20.065s-5.597-16.623-12.436-19.248c-7.076-2.714-10.303-10.329-7.488-17.667 3.955-10.313-1.944-12.894-29.488-12.894-18.94 0-34.436-3.166-34.436-7.039 0-9.839 38.868-26.5 61.82-26.5 39.65 0 76.7 69.905 50.785 95.819-15.014 15.014-15.564 15.195-23.166 7.594zM600.394 785.61c0-8.524 87.592-26.832 128.374-26.832 17.017 0 30.938 3.774 30.938 8.385s-20.752 8.385-46.117 8.385c-25.364 0-46.117 3.774-46.117 8.385s-15.093 8.385-33.54 8.385c-18.447 0-33.54-3.019-33.54-6.708zM793.246 700.084c0-4.611 3.774-8.385 8.385-8.385s8.385 3.774 8.385 8.385c0 4.611-3.774 8.385-8.385 8.385s-8.385-3.774-8.385-8.385zM135.034 565.927c-2.852-4.611-1.184-8.385 3.698-8.385s8.88 3.774 8.88 8.385-1.664 8.384-3.698 8.384c-2.034 0-6.029-3.774-8.88-8.384zM580.235 258.947c-2.457-6.405-10.681-11.646-18.274-11.646-12.705 0-12.669-1.731 0.427-21.732 11.035-16.842 12.355-26.748 5.864-44.020-17.018-45.287-17.989-76.447-3.299-105.975 16.060-32.288 27.050-37.833 27.050-13.647 0 10.070 7.925 17.849 21.702 21.307 17.881 4.488 19.914 7.6 11.551 17.678-8.243 9.932-7.373 12.232 4.626 12.232 8.126 0 19.409-6.337 25.073-14.083 9.142-12.503 11.958-10.583 25.104 17.122 14.287 30.111 14.253 31.623-0.989 43.163-22.312 16.892-43.262 15.277-55.474-4.278-11.535-18.471-48.363-23.084-48.363-6.058 0 16.204 24.624 47.982 37.18 47.982 16.895 0 31.872 22.494 26.419 39.676-6.662 20.989-52.424 38.386-58.605 22.279zM659.258 230.216c5.030-9.397 6.715-25.433 3.746-35.636-5.071-17.422-4.207-17.229 14.209 3.166 10.785 11.945 29.985 24.279 42.667 27.411 21.725 5.364 32.843 22.145 14.674 22.145-4.611 0-8.385-3.332-8.385-7.407 0-12.979-42.855-16.694-47.675-4.135-2.434 6.348-9.817 11.541-16.403 11.541-9.451 0-10.048-3.603-2.833-17.087zM642.319 58.642c0-7.369-7.64-12.577-18.447-12.577-13.341 0-15.91-2.534-9.285-9.161 6.625-6.625 14.053-6.544 26.831 0.285 17.946 9.605 24.609 34.021 9.285 34.021-4.611 0-8.385-5.66-8.385-12.577z"></path>
    </svg>