<svg xmlns="http://www.w3.org/2000/svg" viewBox="-23.386 47.992 1084.966 928.232">
    <path fill="#000000" d="M981.109 709.035c-2.078 8.797-0.547 17.844-7.707 24.271-5.437 4.832-12.271 8.311-19.318 11.551l-0.063 0.115c-9.592 7.783-23.336 9.592-35.006 13.201-21.127 6.583-42.463 12.62-63.587 19.123-41.026 12.602-82.614 22.408-122.649 38.231-34.405 13.531-68.655 30.367-104.205 40.423-16.504 4.624-33.067 9.32-49.218 14.95-3.495 1.281-19.648 6.311-33.394 11.263-2.215 1.281-4.426 2.623-6.641 3.823l-1.011 0.739-1.147 0.397c-2.215 1.129-4.483 2.347-6.775 3.415l-4.819 2.485-0.739 0.343-1.477 0.602-0.547 0.171-2.078 0.397-6.040 1.474-1.126-0.873c-19.531 1.088-40.387-21.127-58.422-31.376-44.326-25.279-88.847-48.539-135.25-69.663-49.566-22.603-98.706-45.609-147.462-69.666-14.697-7.32-28.911-15.631-43.59-22.93-2.563-0.955-5.107-1.883-7.455-2.623-5.552-1.69-10.989-3.495-16.427-5.434-5.434-1.946-10.795-3.967-16.231-5.983l-3.691-1.129c-2.078-0.453-4.351-1.066-6.427-1.805l-3.631-1.939-1.264-1.363-0.874-1.612c-0.6-1.723-0.6-3.688-0.271-5.687 0.523-2.756 1.615-5.635 2.623-8.311 0-5.304 0.331-10.68 0.799-16.039-0.141-9.787-0.464-19.435-1.417-29.299-1.399-14.679-2.407-29.434-3.554-44.19-1.066-14.755-2.272-29.512-4.018-44.113-0.66-5.033-2.349-11.337-4.020-18.173-0.464-2.021-0.931-4.159-1.417-6.175l3.36 0.795c-1.399-5.088-2.543-10.387-3.36-15.823l-0.931-1.267c-4.018-6.175-3.415-12.271-0.331-17.027 0.063-3.086 0.199-6.117 0.523-8.797 0.487-3.881 4.699-5.434 7.183-3.357-1.339-3.669-2.543-7.495-4.155-11.263 3.475-3.086 7.711-6.095 11.803-8.852 1.867-1.723 12.544-13.339 16.699-17.959 4.159-4.699 10.115-12.407 14.755-17.767 2.272-2.7 4.759-5.299 7.301-7.843 21.667-21.261 45.2-41.24 66.596-62.91 5.224-5.687 10.524-11.319 15.824-16.97 1.747-1.999 3.552-3.943 5.3-6.019 31.649-37.551 65.043-73.954 97.098-111.311 7.903-9.26 15.823-20.793 24.405-31.999 4.291-5.552 8.719-11.066 13.415-16.095 4.699-5.088 12.872-13.125 15.031-15.611 2.078-2.485 5.281-7.106 5.632-7.514l0.331-0.343 0.799-0.68 0.409-0.227 0.955-0.397 0.464-0.115 1.339-0.227 0.141-0.056h1.946l0.464 0.056 1.747 0.343 3.223 1.147 3.009 1.593 3.96 2.155c2.623 1.339 5.167 2.54 7.903 3.631l5.575 1.991c2.756 0.602 5.437 1.267 8.175 1.946 4.507 1.088 8.932 2.269 13.415 3.551 2.215 0.343 4.507 0.739 6.717 1.066 2.681 0.453 5.281 0.955 7.981 1.419 6.233 1.066 12.331 2.132 17.959 3.223 4.018 0.657 7.711 1.397 11.143 2.021l2.215 0.397c8.912 1.668 15.145 2.875 16.562 3.086 11.593 2.155 23.203 4.097 34.871 5.824 23.263 3.573 46.598 6.583 69.879 9.669 11.671 1.612 23.336 3.151 35.006 4.895 11.863 1.747 23.533 3.692 35.203 5.767 23.263 4.215 46.209 9.104 68.868 14.815 11.338 2.815 22.659 5.843 33.94 8.989 6.893 1.339 13.747 2.623 20.582 4.078 6.835 1.419 15.631 2.756 15.631 2.756s13.147 3.283 17.027 4.231c2.021 0.453 3.963 0.873 5.96 1.259 2.021 0.511 4.039 0.873 6.115 1.419l1.807 0.511c1.417 0.453 3.495 1.147 5.707 1.883l6.7 2.076 2.215-0.227h1.203l1.069-0.056 3.765 0.397 1.069 0.511 7.435 6.175-0.386 8.117-0.215 1.322-0.199 0.343-0.464 0.657-0.331 0.283-0.547 0.343-0.931 0.227h-0.353c-5.959 5.901-11.998 11.804-17.959 17.707-6.038 5.903-12.019 11.804-17.979 17.707-11.863 11.803-23.671 23.725-35.203 35.995-8.251 11.863-16.699 23.476-25.687 34.929-10.329 13.087-20.853 26.095-31.259 39.163-3.009 3.829-6.041 7.591-9.107 11.398l-0.547 0.602-3.144 1.634-1.555 3.28c-18.696 20.117-35.609 42.386-51.49 63.22-17.435 23.008-40.909 40.831-55.744 65.451-1.203 1.939-2.467 3.885-3.747 5.767-19.843 24.463-39.705 49.16-59.082 73.818-9.127 11.611-23.068 26.503-25.416 41.588-2.078 13.259 7.923 32.577 11.263 47.664l0.271 1.69 0.271 1.946 0.199 1.999c-0.871 9.047-2.078 18.115-3.144 27.163-1.672 8.311-3.36 16.562-3.417 25.474-0.199 15.163-0.141 30.385 0.199 45.53-0.799 8.912-1.399 17.844-1.535 26.755-0.211 2.949-0.211 5.846-0.079 8.66l0.141 5.088v0.115l-0.391 3.164c-0.409 3.943-0.345 8.039 0.799 12.659l2.215 3.151 3.283 3.086c8.446 2.623 13.28-1.747 19.921-7.109 4.621-3.607 9.127-7.027 13.687-10.327 12.193-5.033 24.134-10.913 35.997-16.699 8.852-4.431 17.979-8.504 27.239-12.524 23.455-7.123 47.142-13.747 70.616-21.454 36.54-12.079 72.886-24.698 109.23-37.297 17.027-5.902 35.551-9.301 51.898-16.972 4.368-2.076 8.581-4.351 12.739-6.698 15.979-6.019 32.676-14.289 48.5-16.016 3.009-0.343 6.29-2.485 6.019-6.041-0.391-4.895-2.467-6.969-4.623-11.203-4.426-8.583-11.671-12.001-13.747-22.135-0.931-4.409-0.141-10.387 0.409-15.415l4.097 2.347c3.417 2.215 8.581 3.766 12.872 6.038 5.223 2.002 10.447 4.159 15.688 6.175 13.339 5.227 31.514 9.184 42.581 18.367l0.271 0.227c2.875 0.453 5.632 1.051 8.038 2.002 1.963 0.817 3.223 3.473 2.755 5.491z"></path>
    <path fill="#000000" d="M785.097 592.567c27.028-8.311 50.889-20.311 75.294-32.522l3.163-1.538c4.68 1.066 12.331 3.261 16.97 2.467-3.96 8.794-7.183 17.899-9.667 27.163-5.437 5.843-11.65 13.415-10.989 21.182v0.283l-0.874 4.505c-0.871 12.136 0 24.794 0.66 37.339-0.603 3.959-1.261 7.921-2.407 11.727-1.339 4.699-1.203 9.864-0.409 15.164-0.199 3.766-0.119 7.435 0.353 10.987-1.94 6.448-4.563 12.487-7.981 18.038l-0.871 0.568c-2.155 1.066-5.243 1.281-7.572 2.292-3.554 1.591-6.523 4.215-9.806 6.29-10.058 2.347-20.036 4.699-29.571 7.515-27.688 8.251-57.258 11.863-84.226 22.795-11.746 4.699-23.336 9.863-34.871 15.283-1.747 0.283-3.494 0.602-5.164 0.955l-1.943-0.955c-2.272 0.873-4.563 1.883-6.775 2.756-3.147 0.739-5.632 1.339-7.107 1.805l-3.554 1.147c-2.215 0.602-4.563 1.339-6.854 2.217-5.087 1.066-10.173 2.132-15.142 3.688l-1.011 3.283-2.681 1.066c-5.632 2.292-11.263 4.561-16.756 7.049-8.719 2.41-17.515 4.832-25.221 8.992l0.799 2.021c4.311-0.624 8.524-1.747 12.679-3.164-2.681 1.419-5.3 2.815-7.903 4.231-5.029 2.002-9.921 4.431-14.95 8.038-5.788 2.815-11.689 5.378-17.707 7.243l-3.223-1.010c-8.444 1.805-2.426-23.125-0.271-37.279l0.6-4.152c0.199-1.946 0.199-3.495 0-4.431l-0.464-0.739-1.885-2.485 0.215-2.215c0.119-7.767-4.777-9.244-0.353-16.232l2.681-3.669c2.756-3.357 5.243-5.903 5.846-10.933l-1.011-1.474c0.141-3.164-2.215-6.254-4.563-8.059-2.329-1.805-3.941-3.343-5.359-5.441-0.271-8.776-1.203-18.231-2.755-27.609-0.386-3.823-1.069-7.514-2.080-10.735l-1.066-4.487c1.009-7.32 2.892-14.292 5.359-21.127 3.903-5.299 7.377-10.601 10.543-14.484 7.301-8.989 14.621-18.038 21.919-27.085 21.667-21.61 39.763-43.257 59.821-68.73 15.415-19.651 29.707-42.115 46.133-62.226 3.691 1.593 7.377 3.151 11.069 4.817 3.357 1.555 6.775 3.086 10.193 4.561 13.613 6.038 27.415 11.803 41.783 15.763 6.701 1.809 13.418 3.688 20.174 5.571 18.853 5.088 37.708 10.447 56.267 16.543-22.659 17.844-46.404 33.007-73.080 46.89-2.291 1.129-4.563 2.332-6.854 3.551-11.323 4.015-22.603 8.386-33.86 14.075-3.749 1.939-7.515 3.943-11.263 6.098-2.543 1.147-5.029 2.292-7.572 3.415-3.552 1.419-7.125 2.756-10.677 4.175l-1.207 1.538c-3.223 1.531-6.446 3.151-9.65 4.832l-0.464 0.115-2.155 1.219c-5.767 3.012-11.395 6.098-16.832 9.319l-3.751 1.339-1.28 1.612v0.115l-2.155 1.267-1.592 2.485c-9.398 4.951-19.783 10.464-19.783 10.581l-0.603 0.171-0.079 0.453-2.543 1.203 0.271 1.883c8.524 2.935 18.639-5.767 25.747-9.397l0.874-0.453h0.679c15.94-4.368 31.843-8.989 47.742-13.747 22.795-3.904 45.86-12.019 68.189-20.851 4.834-1.474 9.652-2.949 14.427-4.423z"></path>
    </svg>