<svg xmlns="http://www.w3.org/2000/svg" viewBox="5.931 -8.144 1022.109 1040.761">
    <path fill="#000000" d="M413.053 406.498c-3.469 15.013-3.848 30.866-1.707 46.124 0.516 3.794 0.597 5.474 0.571 6.747-0.076 12.738-6.234 8.671-14.309 10.786-3.142 0.818-5.474 3.471-8.238 5.068-2.954 1.734-6.234 2.873-9.242 4.472-3.115 1.653-5.555 4.363-8.645 6.098-5.122 2.899-10.055 3.768-14.389 8.075-3.604 3.606-5.039 4.065-9.349 6.207-5.312 2.629-9.213 7.371-14.635 9.973-5.393 2.603-10.649 4.527-15.826 7.562-3.279 1.951-6.422 3.792-9.946 5.148-10.378 3.93-20.812 9.675-29.404 16.857-7.398 6.206-13.577 14.716-21.759 19.999-7.019 4.526-14.797 7.831-22.737 9.892-8.131 2.113-16.53 4.092-23.848 8.401-6.179 3.631-10.622 9.838-16.585 13.984-1.735 1.166-3.334 2.358-4.797 3.549-4.877 2.63-9.158 5.34-13.035 7.996 0-3.577 0.27-8.537 0.488-12.493l0.217-4.064c0.596-12.223-0.27-22.683-1.138-31.491-0.026-0.951 0-2.331-0.026-3.686-0.026-7.236-0.895-15.583-2.982-22.521-1.492-4.904-1.083-9.783-2.44-14.768-1.518-5.556-3.115-10.922-4.823-16.478-2.574-8.455-2.845-17.236-4.39-25.908-0.706-4.010-2.249-7.859-2.521-11.952-0.325-4.688 0.651-8.454 1.327-12.926 1.301-8.699 1.166-17.67 2.303-26.449 1.979-14.986 4.635-30.298 7.616-45.121 0.867-4.282 2.386-8.075 4.553-11.87 1.218-2.167 2.548-4.282 3.794-6.449 1.761-3.090 3.334-6.153 5.825-8.753 4.715-4.906 7.074-7.777 8.753-14.635 1.68-6.937 6.016-12.845 8.59-19.43 2.276-5.745 3.849-11.816 7.48-16.937 2.303-3.252 5.366-5.61 8.401-8.159 9.648-8.050 17.507-17.426 28.292-24.282 6.477-4.118 12.82-8.159 19.377-12.059 7.263-4.337 14.635-9.243 20.812-15.040 4.689-4.419 8.972-8.998 13.957-13.063 4.364-3.577 7.263-9.268 12.006-12.113 5.935-3.551 11.544-5.583 17.073-10.108 2.736-2.249 5.528-4.498 8.536-6.368 3.144-1.924 6.504-1.68 9.756-3.089 5.149-2.223 10.462-2.548 15.963-4.064 4.498-1.246 7.561-2.115 11.489-4.5 2.602-1.599 4.553-0.572 6.992-1.625 4.064-1.762 5.474-6.368 10.055-7.562 5.067-1.299 8.399-2.872 12.953-5.771 0.217 8.213 0.786 16.911 1.788 26.314 0.759 7.371 1.898 13.633 1.898 21.058 0 6.342 0 12.71 0.050 19.051 0.076 12.248-1.709 24.201-1.654 36.449 0.026 4.661-0.272 9.404-0.076 14.065 0.162 3.822 1.492 7.29 1.735 11.057 0.516 7.696 2.031 14.715 3.224 22.276 1.977 12.547 0.948 24.825 1.492 37.534 0.378 9.51 3.495 18.454 3.334 28.049-0.103 7.126-0.597 13.982-2.195 20.948zM492.324 484.112c-1.083-8.131-0.406-16.612-0.351-24.797 0.050-6.341-0.488-12.14-1.328-18.348-1.409-9.999 0.678-19.322 1.437-29.212 0.461-6.342-0.351-12.953-1.354-19.187-1.87-11.491-2.087-22.846-3.848-34.363-1.084-7.264-1.382-14.255-2.006-21.572-0.786-9.486-3.416-18.861-3.252-28.428 0.272-14.634 5.067-28.428 5.394-42.98 0.162-7.21-0.136-14.499-0.136-21.707 0.026-7.29-0.95-15.338 0.297-22.548 0.378-2.248 1.056-4.064 1.003-6.395-0.136-8.428-2.386-17.153-3.279-25.528-0.867-8.239-1.437-16.476-1.409-24.742 0.050-16.233-0.076-32.358 1.22-48.537 0.974-12.060 3.115-23.985 3.766-36.045-7.533 0.327-15.067 0.512-22.6 0.624-8.645 0.103-17.073-1.491-25.692-1.545-3.17 0-6.613-0.512-9.756-0.348-5.88 0.327-11.708 2.249-17.373 3.713-7.722 2.031-15.094 4.958-23.008 6.233-4.877 0.788-9.648 1.409-13.929 4.092-18.455 11.544-36.693 23.361-54.77 35.556-9.728 6.559-19.377 13.28-29.024 19.945-5.474 3.795-11.111 7.181-17.018 10.244-7.128 3.686-13.659 8.131-20.461 12.383-20.081 12.602-41.002 25.151-59.132 40.514-6.854 5.8-14.010 10.95-20.487 17.182-8.998 8.698-17.966 17.426-26.857 26.232-21.356 21.14-37.614 46.422-45.393 75.608-6.043 22.709-10.65 46.341-12.602 69.755-0.786 9.133-0.895 18.294-1.68 27.398-0.976 11.166-2.765 22.358-2.303 33.577 0.351 8.401 0.704 16.612 2.113 24.932 1.518 8.998 1.029 17.966 1.626 27.046 0.678 10.514 4.146 20.488 4.607 31.030 0.244 6.043-0.050 12.005 0.516 18.047 0.651 6.476 1.165 12.766 0.841 19.297-0.624 12.737-1.626 25.256 0.542 37.94 1.654 9.756 4.932 19.24 7.642 28.78 2.872 10.001 6.909 19.024 11.708 28.239 6.342 12.248 12.682 24.606 19.782 36.449 0.841 1.382 1.762 2.71 2.629 4.064 5.285-3.061 10.732-5.826 16.45-8.050 7.722-2.981 14.498-9.051 21.436-13.523 5.122-3.306 10.325-6.505 15.583-9.566 4.118-2.413 7.398-2.764 11.762-4.037 4.689-1.382 8.456-5.8 12.277-8.7 4.146-3.115 8.346-6.232 13.008-8.59 2.358-1.191 5.012-1.923 7.073-3.577 1.654-1.354 2.468-3.035 4.31-4.146 3.442-2.113 5.528-4.579 8.889-6.883 4.634-3.169 9.865-5.202 14.527-8.293 1.654-1.083 3.713-1.409 5.393-2.494 2.845-1.815 4.877-4.823 7.507-6.909 6.666-5.259 14.172-10.163 21.248-14.851 10.759-7.073 22.033-13.279 32.79-20.379 20.623-13.604 44.525-21.436 66.233-33.117 18.509-9.946 38.373-17.858 56.477-28.536 13.496-7.968 27.588-14.281 41.191-21.952 0.050-9.646-0.976-19.511-2.223-28.996z"></path>
    <path fill="#000000" d="M899.374 571.25c-1.815 7.587-0.136 15.664-2.113 23.116-1.626 6.126-4.797 11.736-6.424 17.966-3.956 15.068-8.536 30.027-14.498 44.418-4.201-2.495-8.375-4.906-12.492-7.318 0 0-4.77-2.736-4.797-2.763-11.219-6.505-24.933-10.842-35.338-18.754-6.992-5.339-14.119-9.728-21.518-14.498-10.38-6.694-20.57-16.151-32.141-20.679-8.077-3.169-15.53-5.637-23.361-9.24-2.71-1.246-2.927-1.87-5.176-3.74-3.524-2.899-6.559-3.686-11.004-5.448-6.719-2.629-12.791-6.883-19.863-8.671-2.521-0.624-5.149-0.919-7.642-1.762-8.104-2.765-14.582-8.59-23.010-10.922-2.872-0.807-7.101-1.218-9.539-2.683-1.68-1.029-3.061-2.71-4.877-3.792-2.71-1.6-5.501-2.738-8.103-4.201-4.011-2.277-5.692-5.8-8.591-9.051-2.113-2.413-4.472-3.035-7.317-4.173-8.834-3.577-16.204-10.163-25.176-13.741-4.472-1.815-7.695-3.36-10.786-5.148-1.573-0.919-3.144-1.898-4.744-2.874-5.771-3.549-12.98-7.967-21.436-11.436-0.759-0.327-1.518-0.653-2.303-0.97 0.406-7.833 0.786-15.908 0.706-24.471-0.103-11.302 2.331-22.304-2.548-32.872-5.366-11.681-3.362-23.441-4.932-35.853-1.626-12.928-3.768-25.338-0.867-38.132 0.759-3.278 2.168-6.34 3.008-9.51 1.654-6.368 0.378-14.146 0.378-20.65 0-12.357-1.68-26.043 0.921-38.21 0.733-3.495 2.141-6.801 2.818-10.325 1.924-9.865-0.433-20.271-0.433-30.162 0-3.902-0.050-7.831-0.136-11.789-0.136-8.645-0.272-16.829 0.378-24.065 1.869-21.572 2.303-43.361 1.244-64.824-0.136-3.278-0.487-6.639-0.84-10.053-0.217-2.331-0.597-5.908-0.542-7.101 1.299-8.050 1.761-15.989 1.733-23.713 2.982 0 5.988-0.194 8.998-0.439 0.974 0 1.951-0.163 2.927-0.185 3.387 0.214 7.587 0.869 10.297 1.68 1.111 0.348 4.283 2.088 6.613 3.362 3.768 2.059 8.022 4.39 13.063 6.53 10.46 4.472 19.918 11.111 29.62 16.991 3.089 1.897 5.909 3.93 8.563 6.395 8.509 7.777 15.175 16.287 25.88 21.356 2.791 1.327 5.312 2.602 7.805 4.418 4.146 3.007 7.777 3.035 12.032 5.286 4.797 2.548 7.859 4.688 13.143 6.043 3.252 0.818 7.128 1.464 10.271 2.576 5.61 1.977 9.619 9.241 14.091 13.224 8.428 7.533 18.075 13.036 22.846 23.659 4.851 10.758 13.332 19.106 20.378 28.428 8.456 11.219 15.177 24.336 20.623 35.69 3.334 6.909 6.883 13.117 10.298 19.106 1.68 2.899 3.334 5.799 4.906 8.724 3.82 7.047 7.669 13.985 11.707 20.841 4.77 8.075 9.674 16.069 14.661 24.009 2.249 3.577 6.369 7.913 7.344 12.169 0.516 2.113-0.026 4.173 0.189 6.341 0.706 6.368 4.987 12.060 7.697 17.696 4.009 8.348 8.779 16.287 12.519 24.771 4.092 9.187 7.616 18.375 10.082 28.155 2.358 9.351 4.959 17.966 8.483 26.966 3.739 9.566 3.739 20.353 4.851 30.434 0.948 8.32-0.949 16.991 0.103 25.284 0.433 3.307 1.68 5.88 1.733 9.295 0.076 3.577 0 7.21 0 10.814 0 5.88 1.003 12.791-0.379 18.483zM942.566 477.46c-2.845-11.87-5.663-23.117-9.701-34.687-5.312-15.312-12.791-28.969-20.568-43.089-15.096-27.344-32.899-53.036-48.726-79.946-3.793-6.476-7.398-12.981-10.975-19.594-4.687-8.671-10.055-17.236-14.334-26.124-7.128-14.851-14.852-29.322-24.825-42.548-9.648-12.765-20.324-25.339-31.273-36.966-13.225-14.038-27.344-25.474-42.792-36.909-25.23-18.673-52.087-34.796-78.617-51.518-9.323-5.88-18.102-11.435-28.265-15.771-8.076-3.415-15.609-8.972-24.092-11.491-6.179-1.842-13.551-2.953-19.999-3.306-5.665-0.296-11.463 1.030-17.154 0.378-6.315-0.675-12.519-2.522-18.808-3.226-7.073-0.807-14.253-0.807-21.381-0.378 0.050 2.9 0.189 5.773 0.487 8.726 1.762 17.777 4.173 35.771 1.382 53.413-1.273 8.077 0.597 16.803 1.003 24.932 0.949 19.649 0.542 39.757-1.165 59.323-1.138 13.035-0.406 26.339-0.379 39.429 0 11.761 1.354 23.197 1.626 34.877 0.136 6.071 1.654 11.978 1.815 18.075 0.103 5.42-0.488 10.759 0.297 16.178 1.22 8.617 0.922 16.53 1.273 25.202 0.136 3.197 1.192 4.797 1.817 7.859 0.542 2.657-0.076 6.016-0.103 8.807-0.026 14.499-1.138 28.456-1.573 42.9-0.651 20.65-3.713 41.491-3.523 62.14 0.162 16.15-1.626 31.924-1.626 48.048 0 0.214 0 0.429 0 0.653 8.834 5.502 18.727 9.838 28.292 13.768 7.425 3.062 14.254 7.777 21.139 11.817 5.339 3.114 10.486 5.501 16.151 7.777 9.158 3.659 16.015 9.999 23.984 15.475 5.745 3.984 12.899 7.749 19.918 8.862 2.791 0.429 5.745 0.103 8.454 1.057 3.225 1.165 5.826 4.58 8.483 6.585 6.937 5.285 14.444 10.92 22.303 14.689 10.922 5.231 19.512 14.714 29.837 21.031 4.904 2.98 9.295 6.152 14.334 8.889 4.959 2.683 10.624 4.256 16.043 5.907 3.144 0.919 6.397 1.518 9.486 2.657 3.713 1.354 6.883 3.469 10.677 4.526 5.149 1.437 9.349 1.572 12.899 5.772 3.224 3.822 7.372 5.637 11.219 8.889 1.707 1.437 2.898 2.873 4.904 3.984 7.183 3.984 15.691 6.288 23.198 9.62 7.398 3.252 14.661 6.802 21.626 10.84 13.685 7.968 27.37 15.719 40.405 24.743 4.201 2.899 8.266 6.016 12.302 9.106 5.61-9.783 11.355-19.486 16.233-29.675 10.732-22.386 17.994-45.907 24.010-69.946 5.177-20.622 11.219-41.056 15.23-61.951 2.413-12.547 4.526-25.148 4.118-37.967-0.461-14.417-1.707-27.75-5.067-41.842z"></path>
    <path fill="#000000" d="M641.426 223.651c0.136 8.917 0.461 15.664 2.006 24.012 0.678 3.577 0.217 7.371 0.189 10.974 0 6.016-0.026 12.032 0.026 18.076 0.026 4.768-0.976 8.671-1.898 13.332-1.058 5.339-1.328 10.244-1.382 15.664-0.050 3.603 0.57 7.398 1.083 10.922 0.244 1.572-0.378 1.518 1.029 2.221 0.488 0.245 4.201 0 4.474 0 2.845-0.266 4.037-2.221 6.53-2.007 1.951 0.163 1.437 1.654 3.387-0.133 1.22-1.138 0.841-1.815 1.058-3.197 1.138-6.775-2.629-13.876-0.949-20.784 1.492-6.207 3.903-11.49 2.846-18.103-0.922-5.907-2.061-11.735-2.006-17.777 0.050-5.638 1.003-11.057 1.165-16.64 0.136-4.742-0.162-9.484-0.076-14.227 0.050-2.575 0.27-3.034-2.168-3.956-3.631-1.409-9.079-0.542-15.311 1.653z"></path>
    <path fill="#000000" d="M662.448 222.436c-2.982-3.279-8.563-2.818-12.14-3.659-1.654-0.409-3.362-0.756-4.987-1.49-2.764-1.22-5.067-3.714-7.831-4.823-2.114-0.869-1.951-0.409-2.276 1.625-0.297 1.789-0.076 3.794-0.433 5.556-0.433 2.223-2.495 2.63-3.497 4.527-0.596 1.11-0.569 2.193-1.409 3.333 1.111 0.49 2.223 0.919 3.388 1.625 2.845 1.735 4.904 2.603 8.022 3.497 3.631 1.030 7.181 2.059 10.46 4.39 0.786 0.542 1.246 1.437 2.006 1.953 0.487 0.327 1.083 0.163 1.437 0.378 1.083 0.706 2.386 1.244 3.307 1.868 1.951 1.382 3.089 2.277 5.393 3.090 2.303 0.788 4.228 0.593 6.53 1.11 1.464 0.327 3.659 1.898 4.445 0.194 0.597-1.3-1.518-3.226-2.168-4.364-1.492-2.63-1.273-4.527 0.352-6.316 0.812-0.869 1.707-1.653 2.736-2.303 0.571-0.348 2.818-0.919 3.008-1.626 1.056-3.848-7.859-4.228-9.728-5.148-1.817-0.889-7.236-5.988-8.645-2.927z"></path>
    <path fill="#000000" d="M611.928 257.566c0.378-0.245 0.759-0.49 1.165-0.736 3.116 1.299 4.064 9.866 4.337 12.791 0.597 6.126 2.303 10.514 6.721 14.986 3.848 3.93 9.756 8.023 15.122 9.35 4.364 1.058 8.724 0.736 13.197 0.756 4.662 0 9.811-0.49 14.172-2.193 3.279-1.3 6.829-1.437 9.838-3.522 1.354-0.919 1.518-1.98 2.44-3.116 0.786-0.951 1.951-1.382 2.736-2.331 0.976-1.22 2.141-4.933 3.279-5.149 0.244 2.683 2.873 5.638 4.092 8.051 0.949 1.843 5.501 7.181 2.818 8.32-1.165 0.49-3.17-0.378-4.445-0.133-1.218 0.245-2.194 0.838-3.279 1.409-1.817 0.951-3.632 1.354-5.474 2.141-1.788 0.788-2.738 1.951-4.337 2.845-3.442 2.007-7.21 1.951-10.922 2.357-2.413 0.276-4.472 1.112-6.937 1.193-1.382 0-2.791 0-4.201 0-4.119 0-8.239 0-12.357 0-5.448 0-8.917-0.296-14.038-2.223-1.709-0.624-3.524-0.624-5.149-1.219-1.762-0.653-3.279-2.249-4.959-3.143-2.602-1.354-4.31-2.575-5.474-5.393-1.083-2.63-0.704-5.395-2.168-8.213-1.409-2.737-2.141-4.768-2.683-7.669-0.433-2.249-0.895-5.068-1.68-7.101-0.733-1.898-1.788-3.551-2.194-5.475-0.378-1.653-0.976-1.029 0.461-2.193 0.841-0.675 2.873-0.919 3.903-1.112 2.765-0.512 5.312-1.001 6.016-3.252z"></path>
    <path fill="#000000" d="M757.609 751.112c-0.867 0.736-1.843 1.22-2.738 1.815 0.543 0.194 1.003 0.439 1.138 0.919 0.461 1.709-3.793 3.958-4.687 4.797-1.735 1.626-3.334 3.469-5.149 5.068-1.327 1.191-2.059 2.736-3.334 3.9-0.895 0.788-1.815 0.838-2.765 1.409-0.921 0.572-1.518 1.546-2.303 2.248-1.843 1.68-4.146 2.9-5.854 4.715-1.924 2.088-3.469 4.256-5.907 5.854-1.951 1.299-3.495 2.737-5.122 4.283 0.215 0.245 0.352 0.572 0.569 0.818 1.979 2.386 2.548 4.444 3.794 7.236 1.246 2.844 2.927 4.444 5.094 6.449 1.843 1.734 3.469 3.361 2.521 6.098-1.084 3.279-6.289 9.566-9.92 6.747-0.488-0.378-1.437-1.49-1.87-1.977-0.516-0.512-0.84-1.029-1.299-1.626-0.704-0.919-1.354-1.815-2.032-2.845-0.84-1.328-1.898-1.978-2.927-3.116-1.924-2.221-3.17-5.012-4.689-7.56-0.921 0.736-1.869 1.437-2.898 2.059-2.223 1.327-3.768 2.927-5.421 4.823-0.867 1.057-1.87 3.307-3.224 3.495-2.982-3.495-6.613-5.61-8.645-9.892-0.841-1.734-1.029-1.978 0.704-3.252 0.976-0.736 1.925-1.273 2.927-1.924 2.386-1.598 4.77-3.197 7.183-4.768-0.949-0.838-1.843-1.734-2.683-2.738-3.876-4.633-8.213-8.562-11.899-13.413-3.495-4.58-7.722-7.209-11.735-11.246-1.733-1.735-3.442-3.498-5.202-5.204-2.032-1.923-4.283-4.688-6.585-6.287-0.624-0.409-3.279-1.816-3.252-2.954-0.244-0.245-0.487-0.49-0.759-0.653-1.869-1.165-3.549-0.214-2.574-2.711 0.433-1.165 1.6-1.978 2.495-2.683 1.599-1.299 2.521-2.466 3.604-4.31 0.678-1.138 1.299-2.005 2.114-2.953 0.569-0.624 1.815-2.602 2.71-2.495 0.976 0.133 1.626 2.386 2.386 3.035 1.056 0.889 1.788 1.464 2.71 2.468 2.466 2.683 4.768 5.094 7.073 7.967 0.814 1.029 1.843 2.115 2.818 3.143 0.733 0.756 1.709 1.3 2.441 2.059 0.050 0.103 1.273 1.735 1.218 1.68 1.545 0.675 2.603-0.838 3.524-1.354 0.786-0.461 1.707-0.409 2.466-0.919 0.949-0.653 1.492-2.44 2.303-3.279 0.814-0.838 1.924-1.219 2.683-2.087 0.679-0.756 1.111-1.679 1.788-2.466 1.273-1.464 2.712-2.873 3.794-4.553 0.076 3.577 6.721 6.586 9.378 7.833 3.224 1.516 3.983 2.138 1.843 5.256-1.138 1.627-2.358 3.495-3.821 4.851-1.437 1.299-2.765 1.868-4.038 3.333-1.572 1.788-3.197 2.818-5.393 3.603-1.87 0.675-2.521 1.68-3.983 3.061 1.409 2.303 4.228 2.792 6.53 3.93 2.845 1.409 4.607 4.742 7.21 6.613 1.409 0.982 2.845 1.977 4.092 3.17 0.786-0.572 1.599-1.165 2.303-1.951 6.856-7.534 15.202-13.117 20.867-21.599 1.273-1.923 2.98-3.468 4.364-5.312 1.626-2.195 3.442-2.52 5.366-4.173 1.788-1.572 1.083-1.328 2.9-0.675 1.244 0.409 2.602 0.788 3.875 1.219 2.574 0.901 4.064 4.851 6.53 5.040-1.218 0-1.788 1.273-2.602 1.978zM581.297 823.392c-0.651 3.089-1.382 5.772-2.954 8.563-1.273 2.277-3.334 4.119-4.579 6.368-0.759 1.382-0.976 2.927-1.735 4.337-1.273 2.386-3.17 4.527-4.985 6.476-1.518 1.654-3.035 2.602-4.77 3.848-1.654 1.165-2.736 2.792-4.364 4.12-3.713 3.033-8.346 6.883-12.791 8.724-3.144 1.273-6.694 0.889-10.028 1.165-3.197 0.276-6.369 0.512-9.566 0.788-1.246 0.113-2.521 0-3.794 0.103-0.27 4.092-0.624 8.184-0.731 12.329-1.681-0.327-2.603-0.429-4.474 0-1.299 0.296-4.877 1.733-6.233 1.49-2.791-0.512-2.249-7.56-1.898-9.728 0.244-1.545 0.569-3.143 0.921-4.714-1.572-0.214-3.144-0.296-4.689-0.593-4.58-0.869-7.913-1.625-11.219-5.067-3.061-3.17-5.204-7.128-7.75-10.733-2.493-3.522-3.983-7.155-6.043-10.92-1.6-2.953-3.469-5.339-4.255-8.644-3.307-14.173-4.119-28.511 1.11-42.357 1.762-4.689 6.016-8.43 9.404-11.898 1.951-2.005 3.416-2.358 5.663-3.74 1.382-0.869 2.223-2.277 3.794-2.873 0.488-0.838 2.087-2.602 3.794-3.115 2.168-0.675 3.577-1.001 5.528-2.358 2.818-1.95 5.501-3.386 7.968-0.163 2.386 3.116 1.815 8.131 3.144 11.735 0.651 1.788 1.951 2.927 3.006 4.498 1.572 2.358 2.276 5.149 3.632 7.588 1.354 2.386 3.307 4.364 4.715 6.748 1.382 2.303 1.761 4.336 2.413 7.155 0.433 1.897 1.545 3.821 0.215 5.148-1.191 1.166-7.047 1.492-8.698 1.87-2.629 0.624-3.442 1.492-5.012-0.838-1.979-2.9-2.982-6.992-4.391-10.218-1.299-2.926-2.059-5.366-2.872-8.398-0.624-2.413-0.841-3.090-3.471-2.846-3.006 0.266-5.012 2.44-7.587 3.741-2.765 1.437-4.391 1.001-6.451 3.522-2.953 3.603-4.66 6.938-6.854 11.058-1.084 2.005-1.654 2.602-1.437 4.714 0.136 1.382 0.651 2.845 0.976 4.228 2.086 9.241 2.736 19.864 9.484 26.883 5.204 5.421 10.677 9.675 17.966 10 0.026-0.49 0.050-0.97 0.103-1.49 0.244-2.358 0.162-4.742 0.433-7.155 0.136-1.167 0.786-4.933 0.678-4.039 1.246 0 2.548 0.133 3.821 0.245 1.299 0.133 3.416-0.461 4.498-0.245 2.629 0.49 0.162 3.766 0.050 5.692-0.103 1.951 0.136 3.875 0.433 5.799 3.604-0.675 7.344-1.545 10.407-2.9 2.493-1.083 5.122-2.221 7.479-3.603 1.735-1.057 3.686-2.575 5.61-3.415 1.22-0.542 2.873-0.512 3.985-1.030 3.197-1.545 5.393-5.256 8.779-6.583 1.762-0.675 2.168 0 3.252-1.681 1.22-1.843 1.029-4.065 1.437-6.097 0.624-3.063 0-6.29 0.976-9.215 0.352-1.001 1.138-1.246 1.246-2.413 0.103-1.409-1.273-2.981-1.138-4.364 0.244-2.277 4.445-4.118 6.314-4.742 1.464-0.49 1.953-1.22 3.061-1.708 1.165-0.49 2.603-0.348 3.713-0.869 1.409-0.706 1.709-2.818 3.197-0.869 0.516 0.675 0.597 2.981 0.788 3.795 0.651 3.034 1.545 6.071 2.086 9.105 0.542 3.224-0.651 6.747-1.327 9.811zM555.922 758.943c0.948 1.029 1.463 2.386 2.276 3.469 1.111 1.464 1.843 1.491 2.358 3.388 0.895 3.252-0.895 5.8-0.433 8.916-2.927 1.546-5.556 0.818-8.564 0.919-2.466 0.103-7.317 3.224-8.862 1.029-1.951-2.818-1.979-16.937 3.089-16.503l-5.231-1.735c-0.189 0.103-0.406 0.214-0.569 0.327l-0.272-0.593 0.841 0.266c3.577-2.193 12.439-2.736 15.366 0.512zM330.991 763.355c1.299 0 2.386-0.756 3.794-0.296 1.625 0.542 0.759 0.214 2.139 1.437 3.116 2.711 6.559 10.704 0.976 12.846-2.71 1.030-6.856 0.901-9.701 0.901-2.521 0-6.179-0.103-6.829-3.415-0.351-1.843 0.076-6.098 0.867-7.725 0.733-1.571 2.846-4.472 4.553-4.66l-0.103 1.518c1.382-0.378 2.574-0.653 4.31-0.593zM391.349 827.184c-1.49 1.409-2.845 3.738-4.282 4.821-2.331-0.788-4.201-3.63-6.207-5.067-2.413-1.735-4.877-3.471-7.208-5.34-4.635-3.712-9.295-7.074-14.254-10.19-1.735 1.463-3.524 2.927-5.366 4.445-6.043 5.039-12.248 9.728-18.538 14.472-2.927 2.167-5.61 4.877-8.373 7.263-1.22 1.029-2.223 1.953-3.17 3.088-0.976 1.193-2.358 4.987-4.58 3.687-0.814-0.49-1.003-2.276-1.626-3.089-0.678-0.869-2.358-2.331-3.224-3.224-2.521-2.575-4.635-4.011-2.846-6.206 2.548-0.706 4.173-2.494 6.234-4.039 2.468-1.868 4.689-4.173 7.236-5.933-1.138-1.409-2.386-2.765-3.631-4.146-3.334-3.74-6.559-7.398-9.975-11.030-6.692-7.101-12.167-15.040-19.295-21.869-1.328-1.274-5.501-4.877-6.098-7.887-0.704 0.982-1.029 0-1.68-0.869-1.138-1.547-2.386-2.82-3.469-4.228-0.841 0-1.681 0.133-2.629 0.103-0.297-1.083 0.026-2.492 0.542-3.821-0.624-1.219-1.029-2.113 0.651-3.224 0.516-0.348 0.949-0.542 1.328-0.706 1.138-2.031 2.221-3.984 3.416-6.043 2.52-4.39 5.067-9.133 8.616-12.791 8.698-9.025 22.168-13.036 33.443-17.073 6.883-2.468 13.115-1.273 20.054 0.103 7.831 1.545 11.273 9.566 15.421 15.8 2.276 3.414 5.419 5.799 7.75 9.158 1.654 2.413 3.279 4.879 4.93 7.291 0.788 1.165 2.576 2.898 2.927 4.201 0.841 2.953-1.218 2.466-3.577 3.307-2.276 0.807-3.848 2.818-6.098 3.548-0.651-3.441-2.927-6.179-5.039-9.267-1.951-2.846-3.686-6.316-5.962-8.862-4.768-5.285-10.867-7.777-17.588-9.811-2.44-0.736-6.26-1.68-8.724-1.654-0.976 0-2.982 0-3.876 0.327-0.921 0.358-1.572 1.273-2.466 1.625-0.812 0.327-1.382-0.163-2.141 0.103-5.285 1.762-9.512 4.742-13.685 8.455-3.197 2.846-6.315 5.149-8.889 8.591-2.602 3.469-3.848 7.507-6.315 11.084 0.076 0.103 0.163 0.133 0.272 0.214 0.026 0 0.050 0.103 0.103 0.103 4.932 1.518 2.9 0.838 0.461 0.378 3.794 3.197 8.022 6.016 11.084 9.838 7.804 9.674 16.151 18.996 26.992 26.612 1.599 1.112 3.279 2.683 5.204 3.417 0.324 0.133 0.678 0.163 1.056 0.185 4.282-3.523 8.536-7.371 11.735-11.22 1.138-1.382 2.168-2.628 3.279-3.822 2.628-5.231 6.205-7.127 8.59-7.046 2.249 0.113 3.497 2.466 4.932 4.391 2.602 0.736 4.689 1.382 6.909 3.115-0.026 0-0.050 0.103-0.050 0.103 0.242 0 0.516 0.103 0.759 0.163 2.139 0.653 4.851 1.219 6.964 2.195 4.607 2.167 9.378 6.586 13.334 9.756 1.869 1.491 5.039 3.279 6.126 5.474-3.008 3.876-5.88 7.749-9.486 11.084zM835.841 742.457c-6.153-5.041-14.499-7.696-21.544-11.302-9.295-4.769-21.437-9.539-28.673-17.236-6.477-6.856-13.659-11.817-22.493-15.476-4.796-2.004-10-3.224-14.58-5.69-4.146-2.249-7.616-5.123-12.303-6.451-4.526-1.274-7.642-3.062-11.708-5.421-4.634-2.737-9.484-5.366-14.472-7.425-4.31-1.788-7.561-4.66-11.762-6.667-11.763-5.637-26.395-6.342-35.555-16.341-3.008-3.279-5.529-6.748-9.486-8.972-2.818-1.599-5.799-2.167-8.834-3.088-8.211-2.467-15.826-8.455-23.010-13.035-7.479-4.742-14.877-9.674-22.439-14.336-17.126-10.649-33.197-23.441-50.758-33.359-13.713-7.749-26.152-16.992-39.756-24.851-1.165-0.675-2.303-1.246-3.414-1.843-6.64 4.256-12.928 9.159-19.972 12.357-3.17 1.437-5.692 3.197-8.536 5.312-3.686 2.711-6.504 6.449-10.028 9.376-5.012 4.173-11.084 8.645-16.638 12.060-5.8 3.551-12.331 5.177-18.429 8.075-24.471 11.572-45.906 26.858-67.805 42.603-7.859 5.637-16.856 8.888-24.743 14.417-7.236 5.094-14.227 9.187-21.869 13.739-6.692 3.985-13.358 8.347-19.647 12.873-14.417 10.406-29.349 22.655-46.937 26.696-7.777 1.815-13.035 5.907-19.215 10.814-7.995 6.313-16.559 12.031-25.392 17.099-13.768 7.886-27.37 15.853-41.654 22.763 2.873 5.204 5.773 10.407 8.645 15.638 13.413 24.498 28.834 48.049 47.181 69.16 15.366 17.669 34.202 32.031 53.875 44.552 10.894 6.964 21.139 15.013 32.493 21.195 5.339 2.926 11.084 5.285 16.532 7.994 8.454 4.201 16.395 9.43 25.013 13.278 10.19 4.527 22.357 5.204 33.171 7.75 12.492 2.9 24.553 6.856 37.235 8.862 13.090 2.087 25.609 5.040 38.97 4.311 12.357-0.653 24.416-2.088 36.802-0.736 12.737 1.382 24.851-0.409 37.451-1.734 11.436-1.219 22.629-1.545 33.902-4.146 9.946-2.303 20.082-4.553 29.865-7.398 12.465-3.606 24.445-8.7 36.585-13.172 12.873-4.742 25.664-8.508 37.886-14.985 9.378-4.96 19.324-8.862 28.511-14.201 9.539-5.555 17.912-12.519 25.717-20.271 7.019-6.937 15.23-12.818 23.253-18.536 20.542-14.661 41.491-28.265 61.328-43.93 19.864-15.664 38.889-33.983 54.635-53.82-9.701-4.606-19.078-9.728-27.398-16.503z"></path>
    <path fill="#000000" d="M779.51 492.601c1.354 2.032 4.146 1.138 6.152 0.889 4.011-0.49 8.104-1.301 12.169-1.058 6.126 0.327 12.519 1.735 18.102 4.065 4.526 1.897 8.373 1.653 13.197 1.626 1.924 0 4.985-0.572 6.721 0.185-0.325 1.708-2.059 2.386-3.008 3.741-1.409 1.977-2.331 4.445-3.739 6.476-3.848 5.528-8.131 10.622-11.817 16.314-1.815 2.791-4.146 5.393-5.718 8.293-1.49 2.683-2.657 5.555-4.064 8.266-2.385 4.607-3.928 9.811-7.561 13.659 2.223-0.512 3.008 2.059 4.146 3.414 2.059 2.441 4.959 4.391 8.129 5.503 3.876 1.327 7.616 1.354 11.627 1.327 4.526 0 9.566 0.706 13.17-2.602 3.659-3.388 7.344-7.777 9.946-11.978 1.083-1.761 1.083-2.413 1.111-4.661 0.026-1.842 1.437-4.255 1.083-5.933 0.733 0.919 1.354 0.49 2.386 0.736 1.246 0.296 2.303 0.736 3.55 1.029 1.327 0.327 2.764-0.266 4.037 0 2.087 0.512 1.626 0.869 1.681 2.927 0.27 7.398-2.629 15.068-5.909 21.733-2.574 5.177-4.877 4.931-10.161 6.126-6.369 1.409-12.684 2.44-19.133 3.631-2.71 0.512-5.338 0.409-8.076 0.675-3.008 0.296-5.745 1.463-8.698 2.032-4.038 0.756-7.941 0.296-11.762-0.838-2.468-0.756-6.829-1.68-8.779-3.603-1.192-1.165-2.386-4.498-3.116-6.152-0.678-1.518-1.165-3.279-1.545-4.931-1.354-5.799-5.501-14.797-0.976-20.054 0.788-0.919 1.953-1.301 2.846-2.141 1.707-1.6 2.602-4.011 4.255-5.692 2.168-2.221 5.094-3.551 7.561-5.393 3.225-2.441 5.988-5.394 9.025-8.023 2.548-2.195 4.635-4.010 5.854-7.102 0.299-0.788 1.437-1.354 1.003-2.331-0.569-1.219-2.9-0.675-4.118-0.653-9.431 0.163-18.861 0.103-28.292 0.133-0.921 0-3.768 0.572-4.472-0.163-0.706-0.706-0.191-3.442-0.191-4.391 0-3.307 0.217-6.748-0.136-10.027 0.244 0.429 0.678 0.675 3.524-5.094z"></path>
    <path fill="#000000" d="M821.437 476.16c0.050 9.43 0.759 19.023 0.189 28.428-0.516 8.916-3.523 17.345-3.387 26.394 0.026 2.927-1.464 14.796 0.704 16.532 1.084 0.838 4.959-0.103 6.315 0 2.791 0.133 5.231 2.628 7.996 2.331 1.327-6.396 0.050-14.173 0.026-20.706l-0.076-17.263c-0.026-3.659-0.026-7.289-0.076-10.949-0.050-3.224 0.948-5.637 1.191-8.753 0.352-4.742-0.433-9.594-0.050-14.362-1.272 1.733-4.228 0.653-5.852 0.194-2.195-0.624-4.851 0-6.883-0.869-0.163-0.756 0.189-1.083-0.076-0.951z"></path>
    <path fill="#000000" d="M205.428 458.914c11.111-4.309 21.597-9.891 32.682-14.281 6.071-2.413 11.817-4.876 17.588-7.94 3.985-2.141 8.104-5.475 12.602-6.288 2.765-0.512 5.259-1.626 7.996-2.167 3.197-0.593 5.771-1.165 8.917-2.44 1.735-0.706 3.875-2.032 5.745-2.331 1.951-0.348 3.061 0 5.122-0.788 1.788-0.706 5.312-0.461 6.342-2.059 2.006 2.521 2.98 7.019 4.146 9.92 0.866 2.221 2.683 5.122 2.764 7.507-1.869-0.103-2.657-0.296-4.498 0.951-5.421 3.659-10.407 7.75-16.232 10.896-6.397 3.414-12.766 6.53-19.458 9.268-5.204 2.087-10.137 2.846-15.556 3.985-4.146 0.869-7.804 2.818-12.006 3.63-3.605 0.675-6.992 1.273-10.624 1.762-5.988 0.838-11.3 2.953-16.882 5.258-2.223 0.919-3.659 0.542-5.88 1.056-2.195 0.542-4.173 2.088-6.369 2.657-2.603 0.675-2.765-0.214-4.742-2.085-1.6-1.492-3.821-2.63-5.067-4.419-3.225-4.66 0.921-5.798 4.58-7.289 3.387-1.382 6.126-3.551 9.349-5.012 1.898-0.869 3.903-1.545-0.516 0.214z"></path>
    <path fill="#000000" d="M304.082 467.16c-4.58 1.843-8.997 3.279-13.739 4.553-6.721 1.762-12.766 5.528-19.405 7.425-3.252 0.889-6.611 0.348-9.811 1.437-2.818 0.951-5.582 2.303-8.346 3.414-2.927 1.193-5.718 2.249-8.943 1.6-1.029 2.467 2.872 10.352 4.173 12.602 1.244 2.195 1.299 1.191 3.523 1.843 1.979 0.572 3.497 2.548 3.848 4.499 0.433-2.791 5.149-5.177 7.507-6.288 6.53-3.115 13.578-4.445 19.269-9.213 4.635-3.876 11.518-5.475 17.181-7.75 2.927-1.165 5.988-2.927 9.052-3.659 0.786-0.163 3.116 0.245 3.55 0 1.437-0.838 0.191-1.437 0.103-2.628-0.103-2.657-0.297-8.105-2.791-9.702-1.545-1.001-6.207 1.083-5.177 1.869z"></path>
    <path fill="#000000" d="M193.419 431.931c-0.076-0.214-0.191-0.461-0.27-0.675 0.704 1.788 2.818 10.082 4.337 10.704 3.089 1.245 7.886-4.553 9.593-6.043 3.061-2.683 6.071-5.256 10.163-5.988 2.358-0.409 4.742-0.296 7.1-0.818 3.985-0.901 9.052-2.818 12.303-5.286 4.255-3.224 9.92-3.9 14.58-6.422 6.152-3.307-2.141-11.869-1.11-16.856-1.681 0.838-2.684 2.357-4.391 3.169-3.089 1.464-5.907 3.089-8.943 4.66-5.745 3.008-12.276 5.015-18.321 7.425-5.366 2.169-10.841 3.116-16.204 5.259-1.87 0.756-4.959 1.409-6.504 2.683-1.437 1.192-1.924 2.927-3.739 4.092 0.050 0.327 0.076 0.624 1.409 4.092z"></path>
    <path fill="#000000" d="M297.004 261.963c-1.6 2.059-3.794 3.603-5.773 5.582-4.337 4.311-7.695 8.998-10.378 14.444-2.386 4.768-5.012 9.484-5.012 14.986 0 6.532-0.352 14.309 1.625 20.622 1.654 5.34 4.553 10.244 7.588 14.823 1.68 2.549 3.631 5.421 4.959 8.213 1.815 3.848 3.252 5.068 6.342 8.050 1.49 1.437 2.683 3.17 4.687 4.010 2.441 0.97 5.312 0.572 7.859 1.246 4.472 1.192 7.886 1.653 12.574 1.299 5.039-0.348 9.187-3.197 14.2-3.414 0.895 0 2.006 0.869 2.71-0.245 0.244-0.409-0.487-1.898-0.569-2.358-0.488-2.628-0.812-5.31-1.299-7.967-0.976-5.094-0.895-6.368-6.126-5.34-5.8 1.165-11.030 2.248-17.046 1.869-4.823-0.327-8.536-1.165-11.87-4.957-4.256-4.823-6.342-12.846-8.889-18.699-0.812-1.843-1.735-3.633-2.521-5.475-1.68-3.983-0.406-5.988 0.571-9.783 1.273-4.931 2.086-10.135 4.607-14.635 1.029-1.815 2.331-2.248 3.93-3.307 3.061-2.004 6.314-4.201 9.268-6.341 1.328-0.97 3.17-2.031 3.279-3.577 0.050-1.166-1.87-4.093-2.358-5.177-0.352-0.838-2.087-6.639-3.225-7.236-1.273-0.706-3.387 0.818-4.498 1.6-1.707 1.165-3.55 2.059-5.204 3.17-2.168 1.437-1.843 1.218 0.571-1.409z"></path>
    <path fill="#000000" d="M288.226 302.704c2.845-0.706 4.904-0.296 7.75-0.572 4.201-0.429 9.187-2.167 13.387-3.088 2.736-0.624 5.745-0.97 8.346-1.978 6.721-2.602 13.468-5.799 20.406-7.831 4.906-1.437 9.594-4.85 14.797-3.088 1.301 0.429 2.495 1.733 3.876 1.95 2.358 0.409 4.959-1.382 7.317-1.463 2.818-0.103 2.386 1.137 2.818 3.306 0.378 1.762 0.814 3.523 1.192 5.286 1.49 6.586 0.678 12.519 0.324 19.323-0.050 0.97 0.461 1.869 0.325 2.79-0.217 1.193-1.545 2.062-1.843 3.198-0.461 1.951 0.788 4.499 1.192 6.341 0.57 2.521 1.056 12.629 4.009 13.715-2.141 0.296-4.282 0.889-6.369 1.354-3.739 0.818-6.964 2.495-10.54 3.388-3.198-5.827 0-13.496-3.334-19.187-1.869-3.224-2.574-6.506-3.387-10.163-0.516-2.249-0.406-8.184-2.386-9.566-1.924-1.354-3.739-0.348-6.179 0.194-3.090 0.675-6.017 0.327-9.106 0.889-2.927 0.512-5.988 1.3-8.862 2.032-2.683 0.706-4.58 2.007-7.236 2.819-2.71 0.838-5.448 0.982-8.131 2.031-2.927 1.138-4.823 1.98-7.913 2.657-3.848 0.838-9.756 2.927-11.598-0.103-1.246-2.059-2.221-7.263-2.168-9.618 0.050-1.654 4.742-7.642 3.307-4.607z"></path>
    <path fill="#000000" d="M337.537 254.835c-2.004 1.138-3.006 6.152-2.628 8.401 0.352 2.032 0.461 0.97 1.626 2.087 1.244 1.191 2.086 1.923 3.006 3.468 1.924 3.197 3.821 4.581 7.588 3.93 2.736-0.461 6.613-0.97 8.59-3.061 2.303-2.413 1.327-6.909 0.733-9.973-0.542-2.874-2.006-5.232-4.607-6.748-1.843-1.084-1.409-0.706-3.768-0.736-1.218 0-2.059-0.348-3.387-0.133-2.712 0.461-5.421 1.246-8.104 1.87 0.244-0.103 0.488-0.103 0.704-0.163z"></path>
    <path fill="#000000" d="M709.333 350.254c-0.163 0.296-0.325 0.593-0.488 0.919 1.218 0.542 2.331 0.522 3.361 1.409 1.191 1.029 1.979 3.495 2.71 4.768 4.662 8.075 9.975 14.878 16.397 21.518 2.873 2.953 5.339 6.313 8.211 9.213 1.192 1.191 2.495 1.897 3.741 2.899 1.951 1.518 3.061 3.279 4.526 5.204 1.735-0.409 1.6-3.252 2.873-4.311 1.273-1.029 2.845-0.133 4.634-0.461 3.035-0.542 6.747-1.11 7.425-4.795 0.217-1.193-0.050-1.898 0.433-3.144 0.597-1.571 1.815-2.495 2.006-4.391 0.162-1.599-0.272-1.707 0.27-3.252 0.867-2.358 3.115-5.474 4.228-7.669 2.059-3.956 3.577-7.968 5.501-12.005 2.194-4.635 4.959-9.595 6.288-14.527 1.301-4.877 2.413-9.783 3.741-14.634-1.492 0-3.035 0.675-4.527 0.97-2.736 0.542-5.474 0.245-8.238 0.788-1.6 0.296-2.791 0.461-3.903 1.546-0.651 0.653-0.976 1.842-1.382 2.628-1.299 2.468-2.953 4.743-4.173 7.263-3.197 6.532-7.047 12.278-10.949 18.376-1.299 2.030-2.168 3.684-3.006 5.907-0.352 0.982-1.084 3.63-2.168 4.038-2.114 0.838-5.231-3.579-6.424-5.068-1.056-1.328-1.707-2.899-2.845-4.228-1.273-1.545-2.845-2.818-4.31-4.201-1.68-1.626-2.683-3.090-4.092-4.931-1.11-1.463-2.303-1.572-3.686-2.602-2.194-1.654-4.146-4.715-5.933-6.802-1.409-1.654-2.982-2.9-4.283-4.581-0.597-0.788-1.707-2.52-2.791-2.683-3.197 6.342-5.69 12.846-12.114 16.776 1.87 0.409 4.283 1.327 6.071 1.977 2.168 0.818 3.387 2.819 2.9-1.923z"></path>
    <path fill="#000000" d="M731.358 406.897c-2.493 0.542-7.913 0.756-10.082 3.061-1.599 1.707-2.086 4.010-2.818 6.071-0.542 1.546-1.382 2.683-1.409 4.391-0.026 2.494 1.003 5.448 1.599 7.858 0.706 2.846 1.492 3.198 4.608 3.279 2.303 0 4.715 0 6.964-0.409 4.337-0.788 7.859-2.495 9.106-7.181 0.378-1.437-0.217-2.63-0.217-4.119-0.026-1.654 0.076-2.792-0.325-4.552-0.542-2.331-0.84-3.822-2.44-5.638-0.895-0.97-2.113-2.494-3.224-3.197-1.788-1.138-3.008-0.97-5.339-0.675 0.379 0.133 0.624 0.409 0.759 0.838z"></path>
    <path fill="#000000" d="M796.984 395.005c-5.204 1.165-9.701 3.115-14.69 4.768-5.582 1.843-10.567 2.63-15.988 3.333-3.035 0.378-6.098 1.437-9.134 1.843-2.574 0.327-5.176 0.214-7.804 0.951 1.165 2.466 1.979 5.8 1.951 8.698-0.026 1.953-1.165 2.899 0.352 4.336 1.735 1.6 3.144 0.409 6.234-0.348 11.301-2.712 22.466-4.608 33.793-7.507 6.639-1.709 13.143-1.953 19.728-3.633-1.22-2.467-2.141-5.583-3.008-8.293-0.27-0.788-1.191-2.167-1.382-2.872-0.244-1.001 0.731-3.116 0.379-3.712-0.543-0.901-6.207 1.056-7.832 1.354-1.463 0.276-5.962 0.542-7.236 1.518 0.136 0.276 0.244 0.542 4.635-0.429z"></path>
    </svg>