<svg xmlns="http://www.w3.org/2000/svg" viewBox="-28.356 79.895 1090.712 864.394">
    <path fill="#000000" d="M494.665 222.846c-5.767 6.851-10.383 14.228-15.106 21.936-5.033 8.255-10.632 16.55-13.14 26.010-2.195 8.316-4.241 16.629-6.496 24.945-7.272 26.911-8.316 55.511-8.273 83.173 0.018 14.459 1.689 28.412 1.671 42.85-0.021 6.685 0.775 12.722 1.502 19.264 0.397 3.679 1.381 10.322-0.127 13.914-3.072 7.354-14.228 4.911-20.287 4.911-3.072 0-6.164 0.11-9.235 0.043-5.538-0.171-5.955-1.546-9.862-5.014-4.137-3.698-8.025-6.058-11.512-10.613-1.901-2.466-3.949-4.763-5.517-7.459-4.158-7.103-6.79-15.879-9.569-23.628-1.567-4.306-2.088-8.773-3.28-13.227-1.128-4.219-2.8-8.942-3.341-13.327-0.524-4.197-1.234-8.295-1.609-12.492-0.317-3.471-1.59-6.498-1.713-10.049-0.604-17.237-1.797-36.353 2.905-52.795 2.297-8.003 3.174-16.629 6.203-24.36 2.527-6.394 6.289-12.997 9.529-19.034 2.822-5.264 6.83-9.862 10.236-14.728 1.44-2.049 2.591-4.576 4.219-6.434l4.324-3.679c2.382-2.924 6.246-11.699 10.634-11.556l-1.652 3.301c3.928-0.457 6.833-3.823 10.28-5.411 3.449-1.567 7.063-2.82 10.509-4.45 4.846-2.278 9.444-5.581 14.605-7.167 6.078-1.861 11.823-1.192 17.799-3.28 4.785-1.674 10.929-1.713 15.984-1.274 7.417 0.644 3.823 5.451 0.313 9.631zM730.263 306.601c-25.614-88.523-103.354-146.706-196.241-146.603-91.968 0.11-176.666 59.794-198.352 145.808-5.245 8.564-6.144 19.264-6.958 29.229-0.688 7.772-1.213 15.627-0.194 23.401 1.799 14.625 1.799 28.54 3.031 43.247 1.799 22.587 11.387 50.54 20.664 71.099 9.172 20.369 24.297 34.889 38.319 51.813 31.257 37.524 83.298 47.093 129.385 52.126 20.873 2.34 37.901-4.010 58.372-8.564 25.427-5.433 48.912-11.887 70.994-25.907 37.103-23.483 70.887-51.23 85.41-94.265 14.937-44.375 8.273-97.315-4.428-141.378z"></path>
    <path fill="#000000" d="M976.149 683.675c-2.635-1.733-4.366-3.737-6.437-6.078l-3.301-2.488c-1.818-1.692-3.362-4.824-5.033-6.812-3.153-3.698-4.575-8.461-7.959-11.952-1.964-2.028-4.094-3.906-6.078-5.913-3.031-3.031-4.616-6.98-7.52-9.926-2.195-2.217-4.702-4.076-6.894-6.309-3.593-3.636-8.025-6.872-11.952-10.216-7.75-6.56-18.508-11.596-27.725-15.69-5.389-2.382-10.361-5.619-15.942-7.69-7.123-2.632-14.080-5.223-21.082-8.19-12.014-5.099-24.693-10.343-37.46-12.931-6.562-1.337-12.096-2.318-18.825-2.257-4.306 0.043-8.586 0.043-12.913 0-5.012-0.043-9.796 0.875-14.79 1.128-5.682 0.292-11.281 0.562-16.924 1.359-13.811 1.942-27.368 6.143-40.281 11.427-11.593 4.763-24.107 7.478-35.412 12.975-5.682 2.757-11.2 4.263-17.342 5.913-4.618 1.232-8.443 3.384-12.579 5.725-9.069 5.121-17.99 9.968-27.286 14.583-4.219 2.109-8.543 4.324-12.64 6.434l-5.389 2.361c3.636-0.754 7.563 5.077 9.378 7.376 7.124 8.982 12.431 19.222 17.947 29.208 4.533 8.295 9.714 16.15 14.332 24.382 10.8 19.322 18.948 39.403 28.016 59.5 1.588 3.741 3.341 7.42 5.22 11.031 1.213 2.466 2.527 4.89 3.91 7.251l0.414 4.824c-1.818-3.49-4.45-5.995-7.707-8.168-2.488-1.671-3.992-3.471-5.977-5.682-2.318-2.613-4.933-4.745-7.229-7.459-5.871-6.936-12.075-13.518-18.343-20.078-5.789-6.080-10.8-12.849-16.55-18.992-16.693-17.76-37.712-30.982-58.038-44.145-20.078-13.018-40.826-25.114-62.112-36.084-9.317-4.785-19.095-7.708-29.021-10.863-10.445-3.301-20.683-7.124-30.982-10.782-21.101-7.541-42.785-10.927-64.641-15.439-10.28-2.129-20.956-4.721-31.4-5.786-8.525-0.857-17.176-1.005-25.741-1.504-9.256-0.545-17.86 0.171-27.099 0.732-7.167 0.414-14.332-0.043-21.5 0.52-4.911 0.397-9.631 1.274-14.459 2.278-6.664 1.401-13.475 1.711-20.246 2.466-12.244 1.401-24.402 4.533-36.394 7.29-11.596 2.653-22.436 7.189-33.345 11.93-12.18 5.308-25.154 10.174-36.163 17.694-4.702 1.065-9.378 2.217-13.998 3.571-3.362 1.005-7.626 1.799-10.383 3.741-3.928 2.778-7.794 7.794-11.052 11.178-6.056 6.351-12.722 12.074-19.074 18.090-6.225 5.913-13.267 11.094-19.283 17.194-2.778 3.262-5.33 6.728-7.607 10.343l-3.614 5.308 2.257 1.797c8.086 5.411 16.341 10.236 22.336 18.051 3.009 3.949 6.562 6.562 10.991 8.942 9.339 4.993 18.408 9.609 26.094 17.111 6.749 6.603 13.789 12.892 21.478 18.408 5.559 3.97 12.035 6.394 17.885 9.862 3.676 2.151 7.103 4.702 10.676 7.039 10.822 7.063 23.002 12.117 34.849 17.155 22.753 9.675 47.968 13.684 72.243 17.612 14.292 2.3 28.476 4.536 42.599 7.629 12.262 2.675 24.547 3.405 36.955 4.933 14.501 1.776 28.873 4.763 43.413 6.122 12.096 1.128 24.297 1.609 36.394 2.965 8.377 0.941 16.359 3.492 24.632 4.993 6.958 1.274 14.084 1.15 21.060 2.318 4.303 0.732 8.522 1.879 12.806 2.675 7.438 1.359 15.085 1.483 22.587 2.466 10.779 1.422 21.371 1.232 32.236 1.192 11.427-0.043 22.771 1.235 34.201 1.274 15.085 0.084 30.083 1.692 45.189 1.359 11.995-0.249 24.426-1.108 36.353-2.239 11.323-1.062 22.626-1.401 33.677-4.364 12.183-3.262 24.027-7.459 36.163-10.885 9.884-2.757 20.182-4.703 29.877-8.003 5.85-1.985 11.072-5.242 17.046-7.123 4.197-1.296 8.443-2.278 12.514-3.97 5.329-2.193 10.134-5.847 15.208-8.543 4.032-2.151 7.877-4.263 11.787-6.705 9.317-5.789 19.344-10.029 28.474-16.132 15.963-10.697 34.201-18.408 48.933-30.9 5.411-4.594 10.758-9.422 16.547-13.536 7.208-5.119 14.79-9.799 21.331-15.794 12.161-11.116 23.337-23.128 35.623-34.117 4.118-3.68 9.109-6.958 12.849-10.864 1.234-1.274 1.337-2.297 3.449-2.675-2.088-1.755-4.076-3.009-6.225-4.428z"></path>
    </svg>