<svg xmlns="http://www.w3.org/2000/svg" viewBox="32.498 32.000 962.005 960.000">
    <path fill="#000000" d="M770.777 489.831c-1.5 1.629-3.040 3.217-4.584 4.844-1.362 1.369-2.682 2.775-4.053 4.144-1.585 1.585-3.219 3.040-4.805 4.581-1.407 1.322-2.819 2.69-4.318 3.967-1.631 1.455-3.306 2.862-4.977 4.275-1.5 1.322-3.001 2.551-4.584 3.788-1.672 1.369-3.392 2.69-5.11 4.011-1.631 1.19-3.219 2.422-4.844 3.569-1.766 1.231-3.527 2.466-5.287 3.701-1.679 1.144-3.35 2.246-5.069 3.345-1.805 1.15-3.615 2.294-5.466 3.394-1.757 1.057-3.524 2.069-5.329 3.125-1.807 1.011-3.701 2.069-5.552 3.040s-3.701 1.936-5.552 2.862c-1.896 0.972-3.792 1.896-5.682 2.775-1.896 0.885-3.879 1.766-5.861 2.644-1.851 0.794-3.788 1.631-5.73 2.425-1.981 0.794-4.053 1.585-6.081 2.331-1.936 0.706-3.832 1.455-5.77 2.116-2.116 0.706-4.275 1.369-6.431 2.072-1.944 0.572-3.832 1.19-5.729 1.719-2.246 0.616-4.494 1.19-6.786 1.757-1.894 0.485-3.787 1.016-5.682 1.411-2.331 0.529-4.714 0.969-7.093 1.455-1.896 0.37-3.746 0.746-5.638 1.057-2.512 0.435-5.069 0.746-7.668 1.096-1.719 0.198-3.481 0.529-5.287 0.706-2.866 0.37-5.817 0.529-8.725 0.746-1.5 0.131-2.955 0.231-4.406 0.37-4.407 0.265-8.902 0.414-13.35 0.414-6.344 0-12.556-0.414-18.725-0.972l165.887 164.743c3.392-4.54 6.565-9.212 9.691-14.011 0.619-1.016 1.322-2.072 1.981-3.13 3.173-5.065 6.213-10.266 9.032-15.597 0.481-0.925 0.972-1.936 1.5-2.907 2.597-5.023 5.065-10.178 7.356-15.375 0.297-0.706 0.616-1.322 0.925-2.029 2.379-5.596 4.581-11.323 6.564-17.138 0.444-1.279 0.885-2.512 1.281-3.793 1.936-5.817 3.701-11.719 5.243-17.755 0.166-0.706 0.297-1.455 0.529-2.161 1.369-5.682 2.557-11.413 3.524-17.182 0.198-1.105 0.444-2.201 0.619-3.306 1.011-6.125 1.761-12.38 2.29-18.637 0.131-1.322 0.198-2.644 0.297-3.967 0.481-6.476 0.839-13.041 0.839-19.649 0-6.435-0.297-12.822-0.754-19.125-0.068-1.275-0.166-2.512-0.297-3.743-0.529-6.344-1.279-12.689-2.294-18.902-0.031-0.166-0.031-0.331-0.068-0.485-1.057-6.519-2.379-12.908-3.879-19.298-0.068-0.231-0.131-0.572-0.166-0.831-1.629-6.569-3.436-12.999-5.506-19.344-3.173-1.369-6.344-2.73-9.605-3.919-0.265 0.231-0.575 0.529-0.794 0.794z"></path>
    <path fill="#000000" d="M796.283 500.139c3.258 11.674 5.817 23.569 7.533 35.775 0.068 0.746 0.166 1.455 0.231 2.161 0.661 4.931 1.144 9.914 1.54 14.978 0.131 1.369 0.231 2.735 0.331 4.097 0.37 5.817 0.575 11.631 0.575 17.539 0 7.006-0.297 13.967-0.839 20.883-0.068 1.322-0.166 2.644-0.297 3.967-0.621 6.695-1.415 13.259-2.512 19.827-0.166 1.096-0.374 2.201-0.575 3.306-1.144 6.565-2.466 12.994-4.097 19.34-0.031 0.297-0.099 0.575-0.166 0.881-1.672 6.609-3.701 13.085-5.817 19.519-0.37 1.011-0.661 2.029-1.057 3.040-2.201 6.344-4.626 12.603-7.27 18.769-0.198 0.481-0.481 1.011-0.701 1.54-2.735 6.213-5.73 12.382-8.902 18.374-0.068 0.166-0.166 0.37-0.231 0.575-3.306 6.081-6.786 11.981-10.443 17.757-0.444 0.616-0.839 1.275-1.235 1.936-3.524 5.375-7.093 10.662-10.925 15.818l12.294 12.206-9.471 8.194-0.972-0.972-9.649-9.558c-11.719 14.231-24.85 27.23-39.080 38.903-0.166 0.068-0.297 0.166-0.489 0.297-3.392 2.775-6.874 5.506-10.396 8.108-0.661 0.481-1.322 0.879-1.936 1.362-3.086 2.207-6.213 4.406-9.431 6.522-0.925 0.616-1.851 1.19-2.822 1.805-2.907 1.896-5.856 3.746-8.856 5.51-1.144 0.661-2.286 1.322-3.436 1.981-2.862 1.672-5.77 3.258-8.679 4.8-1.275 0.661-2.557 1.322-3.879 1.981-2.819 1.455-5.682 2.866-8.592 4.188-1.407 0.661-2.819 1.275-4.23 1.894-2.819 1.279-5.725 2.512-8.631 3.66-1.5 0.616-2.955 1.19-4.494 1.757-2.866 1.105-5.775 2.161-8.681 3.173-1.54 0.529-3.080 1.057-4.626 1.585-2.994 0.972-5.948 1.807-8.944 2.69-1.585 0.444-3.125 0.925-4.714 1.369-3.040 0.794-6.171 1.54-9.253 2.246-1.546 0.414-3.086 0.746-4.584 1.057-3.306 0.746-6.609 1.322-9.914 1.894-1.407 0.198-2.817 0.529-4.23 0.754-3.656 0.616-7.311 1.057-10.971 1.494-1.144 0.131-2.246 0.297-3.392 0.444-4.758 0.481-9.605 0.879-14.454 1.144h-0.031c39.257 37.935 92.614 61.291 151.48 61.291 120.458 0 218.14-97.681 218.14-218.143 0-84.465-48.069-157.474-118.211-193.731z"></path>
    <path fill="#000000" d="M734.729 741.258l-167.474-166.329c0.131 1.411 0.297 2.775 0.414 4.188 0.231 4.534 0.414 9.12 0.414 13.702 0 4.449-0.131 8.856-0.331 13.265-0.068 1.407-0.265 2.862-0.374 4.318-0.198 2.907-0.414 5.817-0.754 8.725-0.166 1.672-0.435 3.35-0.701 5.023-0.331 2.597-0.661 5.243-1.105 7.844-0.231 1.719-0.661 3.436-0.972 5.156-0.435 2.512-0.925 4.977-1.494 7.444-0.374 1.766-0.839 3.527-1.279 5.245-0.572 2.379-1.144 4.8-1.805 7.137-0.529 1.719-1.057 3.436-1.585 5.195-0.706 2.34-1.407 4.672-2.246 6.965-0.575 1.672-1.144 3.345-1.805 5.023-0.839 2.29-1.679 4.581-2.601 6.874-0.616 1.585-1.322 3.173-1.981 4.8-1.011 2.246-1.981 4.494-2.994 6.742-0.746 1.546-1.5 3.086-2.246 4.626-1.105 2.246-2.246 4.454-3.392 6.656-0.794 1.455-1.585 2.955-2.425 4.362-1.235 2.246-2.466 4.407-3.746 6.565-0.831 1.411-1.672 2.775-2.556 4.144-1.411 2.201-2.775 4.362-4.275 6.476-0.879 1.275-1.719 2.597-2.644 3.832-1.5 2.161-3.086 4.318-4.672 6.431-0.879 1.15-1.805 2.379-2.682 3.527-1.719 2.116-3.436 4.23-5.201 6.344-0.879 1.057-1.805 2.157-2.73 3.173-1.851 2.156-3.793 4.23-5.73 6.299-0.879 0.925-1.719 1.896-2.597 2.822-2.116 2.156-4.275 4.271-6.435 6.344-0.794 0.746-1.585 1.54-2.419 2.331-0.444 0.414-0.794 0.794-1.235 1.19 9.472 26.391 24.056 50.317 42.297 70.894 4.977-0.031 9.869-0.198 14.806-0.575 0.414 0 0.794-0.031 1.19-0.068 4.494-0.297 9.032-0.754 13.481-1.322 0.481-0.031 1.011-0.131 1.5-0.166 4.448-0.575 8.856-1.275 13.219-2.069 0.414-0.031 0.831-0.131 1.231-0.198 4.672-0.831 9.298-1.851 13.879-2.951 0 0 0.099-0.031 0.099-0.031 9.605-2.331 18.944-5.331 28.065-8.679 13.442-4.935 26.394-10.797 38.687-17.757 0.414-0.198 0.746-0.414 1.096-0.575 3.701-2.156 7.361-4.362 10.971-6.65 0.414-0.231 0.881-0.575 1.279-0.839 3.569-2.294 7.093-4.672 10.529-7.137 0.374-0.265 0.706-0.529 1.057-0.746 3.656-2.644 7.225-5.378 10.752-8.194 0.068-0.031 0.166-0.131 0.297-0.198 14.407-11.631 27.583-24.719 39.257-39.081z"></path>
    <path fill="#000000" d="M530.206 504.676c-1.944-4.362-4.011-8.679-6.257-12.908-0.529-1.057-1.144-2.116-1.766-3.173-1.805-3.392-3.743-6.742-5.77-10-0.706-1.19-1.5-2.379-2.246-3.616-2.069-3.173-4.183-6.299-6.431-9.339-0.75-1.057-1.455-2.116-2.246-3.173-2.69-3.616-5.51-7.182-8.459-10.62-0.297-0.414-0.575-0.746-0.839-1.057-3.35-3.879-6.828-7.621-10.396-11.234-0.661-0.661-1.369-1.322-2.029-1.981-2.862-2.822-5.77-5.552-8.769-8.241-1.19-1.011-2.422-2.025-3.656-3.040-2.557-2.201-5.243-4.362-7.931-6.431-1.369-1.057-2.73-2.116-4.144-3.125-2.73-2.029-5.552-3.925-8.369-5.817-1.369-0.885-2.69-1.811-4.097-2.69-3.481-2.201-7.095-4.318-10.752-6.344-0.706-0.414-1.407-0.839-2.116-1.235-4.407-2.331-8.856-4.534-13.395-6.564-1.366-0.661-2.775-1.19-4.183-1.805-3.219-1.369-6.476-2.69-9.781-3.925-1.766-0.661-3.569-1.231-5.331-1.894-3.040-1.019-6.122-1.981-9.206-2.907-1.851-0.529-3.746-1.057-5.638-1.585-1.057-0.265-2.161-0.444-3.219-0.754 17.096 71.244 69.084 128.876 136.94 153.772 5.023-5.506 10.31-10.839 15.862-15.906-1.719-4.626-3.481-9.206-5.466-13.702-0.099-0.198-0.166-0.481-0.297-0.706z"></path>
    <path fill="#000000" d="M546.681 562.408c-6.874-1.455-13.746-3.086-20.401-5.115-30.092 37.367-48.115 84.86-48.115 136.544 0 18.465 2.335 36.308 6.609 53.402 0.031-0.031 0.031-0.068 0.068-0.068h0.031c39.522-39.476 63.933-94.025 63.933-154.343 0-10.31-0.794-20.446-2.161-30.402z"></path>
    <path fill="#000000" d="M562.549 542.594c0.198 1.105 0.616 2.201 0.839 3.35 10.443 1.494 21.057 2.379 31.943 2.379 61.022 0 116.186-25.115 155.795-65.52-0.969-0.231-1.936-0.569-2.907-0.831-1.851-0.444-3.701-0.839-5.594-1.235-3.173-0.661-6.344-1.275-9.563-1.851-1.851-0.331-3.746-0.661-5.683-0.925-3.436-0.481-6.874-0.879-10.396-1.19-1.631-0.131-3.306-0.374-5.023-0.481-5.156-0.37-10.356-0.575-15.644-0.575-52.431 0-100.544 18.551-138.13 49.435 0.746 2.644 1.322 5.375 1.981 8.064 0.839 3.125 1.672 6.257 2.379 9.384z"></path>
    <path fill="#000000" d="M258.468 625.521l-14.494 4.006-3.35-12.028 15.818-4.404c-1.761-12.556-2.73-25.379-2.73-38.424 0-78.425 32.914-149.319 85.568-199.681-2.866-0.131-5.729-0.331-8.592-0.331-120.463 0-218.19 97.641-218.19 218.143s97.727 218.184 218.19 218.184c16.391 0 32.294-2.025 47.626-5.506-61.465-40.533-105.831-104.997-119.844-179.984z"></path>
    <path fill="#000000" d="M442.439 511.425c-0.485-0.435-0.972-0.831-1.455-1.275-3.13-2.69-6.257-5.466-9.297-8.373-1.144-1.101-2.246-2.29-3.436-3.436-2.201-2.201-4.448-4.449-6.609-6.742-1.672-1.805-3.219-3.61-4.844-5.419-1.5-1.757-3.040-3.524-4.54-5.329-1.981-2.379-3.832-4.805-5.729-7.27-0.966-1.279-2.025-2.601-2.994-3.925-2.116-2.994-4.183-5.99-6.257-9.030-0.529-0.925-1.19-1.811-1.757-2.69-2.205-3.481-4.362-7.052-6.391-10.62-0.297-0.529-0.616-1.057-0.925-1.585-2.201-3.919-4.318-7.972-6.299-12.069-0.068-0.166-0.166-0.37-0.231-0.529-8.551-17.581-14.936-36.394-18.902-56.090-2.161-0.297-4.362-0.481-6.569-0.706-55.161 48.424-90.056 119.359-90.056 198.318 0 11.943 0.879 23.66 2.422 35.116l229.203-63.579c-20.045-9.075-38.682-20.706-55.294-34.764z"></path>
    <path fill="#000000" d="M467.498 756.365c-0.616-2.246-1.19-4.494-1.766-6.781-0.925-3.746-1.672-7.533-2.422-11.369-0.444-2.246-0.925-4.54-1.281-6.874-0.661-4.097-1.144-8.285-1.629-12.47-0.166-2.029-0.489-4.053-0.661-6.081-0.485-6.257-0.794-12.556-0.794-18.902 0-6.786 0.297-13.436 0.831-20.006 0.198-2.512 0.661-5.023 0.972-7.533 0.444-4.006 0.839-8.019 1.5-11.982 0.297-1.766 0.746-3.436 1.057-5.156 0.925-4.672 1.805-9.339 2.951-13.832 0.37-1.322 0.794-2.605 1.19-3.879 1.322-4.935 2.69-9.826 4.32-14.584 0.529-1.496 1.19-2.907 1.719-4.404 1.629-4.494 3.306-8.988 5.195-13.35 0.575-1.279 1.235-2.469 1.807-3.746 2.069-4.494 4.139-8.944 6.476-13.306 0.701-1.322 1.54-2.557 2.286-3.832 2.335-4.188 4.719-8.373 7.27-12.382 0.881-1.407 1.896-2.682 2.822-4.053 0.879-1.322 1.805-2.597 2.73-3.879l-231.623 64.24c13.879 75.919 60.275 140.599 124.206 179.018 27.406-8.415 52.563-21.856 74.199-39.569-0.489-1.757-0.885-3.569-1.369-5.287z"></path>
    <path fill="#000000" d="M800.794 403.54c-42.958-61.643-106.67-107.816-180.91-128.303l-9.298 34.981-0.414 1.369-2.425 9.206-0.331 1.407-47.275 177.61c38.638-27.188 85.521-43.356 136.188-43.356 6.523 0 12.913 0.37 19.298 0.831 2.029 0.166 3.967 0.485 5.994 0.661 4.318 0.489 8.678 1.019 12.955 1.719 2.246 0.37 4.448 0.839 6.656 1.235 4.006 0.794 8.019 1.631 11.982 2.597 2.161 0.575 4.318 1.105 6.476 1.719 1.896 0.529 3.832 0.972 5.729 1.546 15.069-18.816 27.096-40.095 35.379-63.228z"></path>
    <path fill="#000000" d="M533.333 252.907c26.569 0 52.389 3.173 77.148 9.030l4.32-16.213 12.070 3.219-0.374 1.407-3.92 14.672c74.021 20.401 137.866 65.475 182.144 125.881 5.594-19.344 8.725-39.656 8.725-60.718 0-120.505-97.681-218.185-218.143-218.185-106.582 0-195.277 76.487-214.311 177.519 45.733-23.356 97.508-36.615 152.318-36.615z"></path>
    <path fill="#000000" d="M378.97 302.437c-1.144 9.079-1.851 18.331-1.851 27.718 0 10.31 0.881 20.443 2.246 30.356 1.19 0.198 2.379 0.575 3.527 0.839 1.719 0.414 3.345 0.794 5.023 1.231 3.345 0.839 6.65 1.719 9.869 2.644 1.672 0.485 3.258 1.019 4.891 1.546 3.258 1.057 6.523 2.116 9.694 3.306 1.54 0.572 3.080 1.144 4.626 1.761 3.212 1.279 6.385 2.557 9.519 3.967 1.455 0.661 2.862 1.322 4.318 1.981 3.219 1.5 6.344 3.040 9.472 4.672 1.281 0.661 2.557 1.369 3.879 2.069 3.173 1.766 6.299 3.569 9.431 5.466 1.144 0.706 2.29 1.407 3.392 2.116 3.219 1.981 6.344 4.144 9.431 6.299 0.969 0.661 1.936 1.322 2.862 1.981 3.219 2.34 6.391 4.758 9.472 7.27 0.754 0.621 1.546 1.19 2.294 1.811 3.258 2.682 6.431 5.461 9.563 8.327 0.529 0.481 1.057 0.925 1.585 1.455 3.345 3.081 6.564 6.255 9.691 9.558 0.231 0.231 0.575 0.529 0.839 0.839 18.725 19.781 33.925 42.826 45.075 68.074l47.54-178.928 0.414-1.369 2.425-9.206 0.414-1.411 9.206-34.631c-23.925-5.638-48.818-8.679-74.419-8.679-55.822 0-108.388 14.098-154.387 38.948z"></path>
    </svg>