<svg xmlns="http://www.w3.org/2000/svg" viewBox="9.151 -49.544 1006.180 1139.710">
    <path fill="#000000" d="M916.129 633.901c-2.475-4.004-13.832-11.342-25.238-16.305-11.512-5.010-15.744-9.141-9.513-9.284 10.423-0.225 53.953 32.197 43.828 32.661-2.517 0.112-6.603-3.066-9.078-7.071z"></path>
    <path fill="#000000" d="M491.74 979.731c-49.61-30.251-67.107-88.617-42.942-143.245 8.352-18.881 11.723-34.45 8.22-37.954-8.667-8.667-41.389-11.006-59.205-4.233-9.662 3.674-13.954 3.493-11.495-0.488 8.105-13.114 49.248-15.401 67.063-3.727 16.33 10.7 17.857 10.612 31.444-1.795 18.463-16.862 53.41-34.451 68.615-34.534 24.34-0.15 79.685-32.155 103.345-59.797 24.229-28.306 51.036-87.551 51.036-112.794 0-12.999-0.301-12.993-26.957 0.616-54.683 27.898-124.347 23.183-165.183-11.178-60.7-51.076-61.040-146.332-0.635-177.569 42.744-22.103 87.43-4.23 86.161 34.464-0.597 18.183-0.608 18.177-6.65-2.675-11.154-38.51-61.697-40.364-94.582-3.471-17.15 19.24-21.58 66.705-8.575 91.854 15.030 29.066 53.56 60.395 80.489 65.446 36.88 6.919 79.297-2.547 109.52-24.441 26.065-18.881 27.434-21.49 23.283-44.401-7.224-39.87-33.561-90.866-64.196-124.303-15.815-17.261-63.704-54.532-106.421-82.826-64.913-42.995-85.743-53.239-126.843-62.382-27.046-6.018-57.692-9.967-68.102-8.776-18.433 2.107-18.895 3.114-17.723 38.607 1.175 35.566 1.084 35.762-3.776 8.151-6.692-38.021-11.997-42.059-44.443-33.823-61.342 15.57-126.242 88.432-141.297 158.632-14.668 68.394 15.628 140.038 71.746 169.665 74.538 39.352 159.195-2.945 139.982-69.937-3.412-11.896-3.443-20.661-0.075-20.661 3.218 0 8.918 11.106 12.667 24.68 19.877 71.988-77.302 124.022-155.273 83.14-79.256-41.556-111.787-126.598-83.745-218.922 7.651-25.189 20.344-53.976 28.206-63.971l14.295-18.173-14.164-25.201c-7.79-13.861-13.865-33.74-13.498-44.176 0.58-16.533 1.455-15.607 6.798 7.195 3.372 14.394 10.928 31.472 16.791 37.949 10.143 11.208 11.871 10.818 35.702-8.056 48.508-38.419 94.25-54.282 157.696-54.691 31.527-0.187 66.95 1.863 78.716 4.594l21.395 4.963-17.609-38.464c-12.682-27.703-18.452-53.027-20.623-90.522-2.996-51.757-2.922-52.045 12.779-49.825 14.467 2.047 16.146 6.177 19.994 49.236 5.040 56.381 20.407 93.077 59.398 141.835l29.142 36.442 8.215-46.382 0.872 24.248c0.8 22.283 4.496 26.636 45.596 53.722 24.598 16.21 55.765 40.848 69.26 54.748 24.438 25.173 24.646 25.24 52.347 16.941 17.902-5.363 40.18-20.701 62.521-43.042 28.484-28.484 36.173-41.251 42.872-71.184 6.897-30.82 6.535-42.073-2.332-72.581-23.792-81.839-109.932-115.791-162.754-64.147-26.913 26.312-28.149 57.874-3.043 77.623 10.615 8.35 13.702 13.732 7.875 13.732-18.373 0-38.586-26.047-38.586-49.721 0-30.162 32.071-66.965 66.414-76.212 73.933-19.908 145.783 38.855 156.234 127.779 2.449 20.85 7.162 37.91 10.47 37.91 13.756 0 38.518 33.291 37.972 51.050l-0.571 18.522-5.674-18.934c-10.218-34.099-46.194-60.429-46.194-33.81 0 33.802-61.138 104.164-106.014 122.007-12.755 5.071-24.224 9.988-25.487 10.926-1.262 0.939 5.992 22.041 16.121 46.894 15.427 37.852 18.465 55.139 18.711 106.477l0.301 61.289 44.875 0.996c24.682 0.548 48.603 1.292 53.157 1.657 14.746 1.179 57.278 56.459 61.74 80.244 10.547 56.222-21.539 105.603-67.493 103.875-13.37-0.503-29.843-5.923-36.609-12.046-12.855-11.634-16.635-38.747-6.292-45.139 3.306-2.044 4.421 2.351 2.483 9.766-2.059 7.867 1.387 18.907 8.271 26.512 30.257 33.434 89.252-1.627 89.252-53.044 0-70.843-65.396-115.143-135.407-91.727-20.814 6.962-30.39 16.080-47.428 45.165-30.681 52.372-59.982 74.946-120.279 92.661-86.541 25.426-114.364 46.486-126.832 96-19.688 78.192 57.361 147.202 114.323 102.397 20.646-16.239 23.837-48.153 5.863-58.621-6.378-3.715-8.081-6.844-3.787-6.955 12.592-0.338 28.645 19.432 28.486 35.058-0.075 7.94-5.299 20.795-11.595 28.567-25.068 30.947-63.789 37.372-98.322 16.314z"></path>
    </svg>