<svg xmlns="http://www.w3.org/2000/svg" viewBox="10.700 -48.001 1050.031 1122.479">
    <path fill="#000000" d="M629.534 532.009c-0.098-7.788 1.898-16.356 5.841-23.268 3.407-5.89 9.638-11.829 19.763-22.781 4.333-0.731 8.762-2.288 12.949-3.798 6.522-2.24 12.656-1.997 19.422-1.898 5.744 0.047 10.66 2.434 15.918 3.992 2.093 0.635 5.159 2.434 7.010 3.504 2.58 1.509 7.448 3.798 9.443 5.841 1.851 1.898 5.209 7.74 6.426 10.417 2.386 5.209 5.209 10.417 6.668 16.307 1.801 7.058 0.828 14.847 0.828 22.148 0 6.426 0.483 12.218-1.606 18.4-1.412 4.283-3.603 6.767-6.085 10.271-3.798 5.305-4.77 12.169-8.664 17.33-6.863 9.2-21.029 10.952-31.3 12.9-9.443 1.801-23.901-1.851-31.105-8.568-2.386-2.24-3.749-6.232-6.085-9.103-3.651-4.527-6.232-8.858-9.346-14.019-3.699-6.085-8.519-12.754-9.979-19.958-1.118-5.452-0.049-12.169-0.098-17.719zM606.17 675.949c0 19.568-0.386 38.65-1.851 58.17-0.579 7.983-2.677 15.674-3.457 23.658-0.442 4.77-0.442 10.757-2.434 15.188-1.606-4.138-2.434-8.568-3.846-12.803-3.699-11.197-9.589-21.516-14.165-32.322-5.111-12.024-11.391-23.219-14.993-36.022-2.434-8.762-3.798-17.67-6.815-26.238-1.269-3.699-12.413-27.308-14.311-26.578-1.366 3.651-0.386 9.151-0.345 13.095 0.048 6.036-1.412 11.050-1.947 16.891-0.483 5.354 0.048 11.148 0.152 16.502 0.048 8.811-1.558 17.621-2.775 26.334-2.384 17.476-8.957 34.464-10.075 52.183-0.579 9.492-5.063 19.033-8.469 27.893-1.558 4.041-4.527 24.485-9.443 25.897-6.182-10.32-5.404-22.441-3.504-16.746-3.066-9.2-6.767-17.232-11.975-25.459-4.916-7.788-9.686-14.555-11.732-23.754-2.045-9.297-2.386-20.445-2.53-29.937-0.152-10.125 1.752-19.763 1.995-29.84 0.248-9.686-0.048-19.471-0.098-29.207 0-4.43 1.214-11.78-0.345-16.209-2.386 0.924-6.474 9.54-8.179 12.365-1.021 1.655-1.606 3.018-2.434 4.673-0.773 1.509-1.752 2.434-2.58 3.798-5.258 8.665-9.492 20.007-12.072 30.375-2.775 11.244-3.31 22.392-6.911 33.539-1.851 5.89-3.553 10.466-4.479 16.697-0.538 3.358-0.731 7.156-1.558 10.368-0.731 2.969-2.434 5.258-3.553 8.080-1.269 3.115-1.558 14.019-5.5 14.75-2.141-1.606-1.021-2.58-1.947-4.576-1.021-2.24-2.288-4.381-3.504-6.621-2.629-4.965-3.894-10.174-7.156-14.75-9.297-12.949-15.967-27.649-19.422-43.518-2.19-10.028-4.187-21.175-2.141-31.494 3.164-16.161 12.706-29.986 16.793-45.855 2.434-9.492 5.452-18.789 8.422-28.088 1.173-3.748 1.558-7.838 3.504-11.050 12.51-5.015 13.532-8.519 16.746-9.638 3.018-1.021 7.107 0.98 9.881 2.093 18.157 7.156 36.801 9.443 56.029 9.443 6.911 0 14.166 0.731 20.834-0.869 5.744-1.412 11.391-4.187 17.232-4.965 10.417-1.412 21.224 0.676 31.787-0.828 3.164-0.483 11.197-2.872 13.727 1.366 0.828 1.366 0.098 2.921 0.248 4.43 0.193 2.872 0.773 5.209 1.412 8.080 1.269 5.55 1.801 10.855 2.434 16.551 1.173 10.417 3.651 20.737 4.965 31.203 1.021 7.788 0.386 15.869 0.386 23.754zM576.862 927.577c-5.744 4.381-13.63 5.355-19.958 8.664-5.647 2.969-10.903 6.767-16.551 9.638-5.598 2.872-12.121 2.336-18.108 3.603-4.722 1.021-9.249 0.924-14.117 0.924-8.519 0-17.037-0.048-25.605 0-5.452 0.048-7.253 0.442-11.633-2.58-2.823-1.947-5.55-4.088-8.616-5.5-3.018-1.366-9.297-1.752-25.215-9.005 0.152-2.677 2.53-5.452 3.504-7.983 3.164-8.080 5.598-16.307 9.686-23.998 3.504-6.522 7.886-12.169 10.757-18.984 2.386-5.598 4.088-11.343 6.232-17.037 1.46-3.798 3.944-7.545 4.527-11.586 0.345-2.629-0.248-5.159 0.193-7.74 0.924-5.258 1.704-8.616 1.655-14.214-0.483 4.381 2.434 8.227 3.992 12.072 1.655 4.088 4.333 7.497 5.841 11.586 0.98 2.629 1.021 4.868 1.606 7.643 2.483 11.828 6.815 22.83 6.911 35.291 0.048 6.133-1.412 13.873-0.152 19.812 1.118 5.354 3.798 3.31 7.448 2.288 3.164-0.924 6.376 0 9.59-0.773 9.396-2.336 10.709-13.435 14.166-21.418 2.386-5.452 3.603-10.952 4.673-16.842 0.345-1.947 0.193-5.355 0.773-7.107 0.248-0.773 1.366-1.606 1.46-2.093 1.214-5.404 0.635-11.293 1.801-16.94 0.924-4.479 2.288-8.422 2.336-12.997 0.048-4.138-0.152-7.788 0.869-11.586 0.773-3.018-0.248-10.222 2.141-12.56 8.323 4.965 15.383 14.117 11.148 10.077 7.545 7.156 13.338 11.197 16.502 21.224 1.851 5.89 5.5 10.709 7.35 16.551 1.214 3.846 1.311 7.984 2.434 11.633 1.704 5.694 6.037 9.59 7.497 15.625 1.412 5.598 3.115 10.66 3.261 16.404 0.193 7.35-2.58 13.484-8.422 17.914zM315.539 579.877c-5.793-2.288-13.777-4.088-17.67-9.346-2.483-3.262-3.992-8.080-5.987-11.633-1.655-2.969-2.288-5.111-3.164-8.469-1.995-7.594-0.442-14.847-1.752-22.49-1.173-6.621-2.093-13.192-1.558-20.153 0.676-9.297 6.232-20.932 13.289-26.724 4.333-3.553 10.174-4.187 3.31-15.139 2.434-6.279 6.182-9.443 12.51-9.54 7.643-0.152 15.334 0.048 23.025 0.048 3.066 0 7.35-0.869 10.271-0.152 2.726 0.676 4.965 2.677 7.545 3.846 5.987 2.775 11.878 5.793 17.378 9.638 3.942 2.823 2.872 3.018 5.063 7.35 3.407 6.668 6.474 11.586 7.984 19.228 3.31 16.793 2.434 31.787-1.898 47.948-1.606 5.987-3.846 11.002-6.426 16.551-3.603 7.74-6.911 9.686-14.506 13.241-13.922 6.474-32.42 11.683-47.412 5.793zM980.286 926.462c-3.457-1.173-8.323-0.193-12.024-0.193-7.594 0-15.188-0.048-22.781 0-9.59 0.048-18.887-1.214-28.428-1.46-11.391-0.29-22.441-0.386-33.637-2.873-10.855-2.386-21.272-3.992-31.641-8.519-5.159-2.288-10.709-3.115-16.015-4.82-5.209-1.655-10.757-2.677-16.064-4.381-7.643-2.386-16.209-3.651-23.658-6.621-7.399-2.969-15.041-6.717-22.197-10.417-7.448-3.944-13.338-9.979-20.396-14.555-5.209-3.358-9.931-7.106-14.652-11.244-4.576-3.992-10.903-8.957-14.652-14.068-2.045-2.726-3.261-5.647-5.452-8.323-4.235-5.063-8.957-9.833-12.803-15.236-0.579-0.773-1.076-1.655-1.655-2.483 1.704-11.244 3.066-22.684 4.381-33.929 4.527-38.407 9.54-79.54 29.645-113.226 2.677-4.479 4.527-10.66 7.886-14.457 2.191-2.434 4.333-2.726 6.863-4.283 2.969-1.851 5.5-4.381 8.519-6.232 5.258-3.261 6.474-6.426 9.443-11.926 3.407-6.426 7.934-12.413 10.077-19.471 3.798-12.656 5.355-26.724 5.744-39.818 0.579-22.733 5.793-47.266-4.041-68.783-4.43-9.59-10.417-16.988-17.378-24.777-7.497-8.275-10.028-9.833-19.715-14.068-1.752-0.828-3.115-1.704-4.77-2.726-2.629-1.606-6.328-2.288-8.665-3.942-3.942-2.775-5.987-7.984-7.983-12.315-2.629-5.793-6.328-10.903-8.811-16.697-2.141-4.965-3.018-10.271-5.404-15.188-5.404-11.148-8.616-29.353-4.479-41.425 6.863-20.055 22.148-34.464 33.539-51.744 4.333-6.474 5.89-14.798 9.249-21.857 5.209-10.855 4.965-24.826 5.452-36.801 0.483-12.461-0.483-24.875 0.98-37.238 1.366-11.391 2.872-22.586 2.921-34.074 0.048-5.841 0.29-11.683-0.345-17.524-0.635-5.89-2.678-11.294-4.090-17.038-3.115-12.949-4.479-26.287-6.668-39.429-1.311-7.984-4.576-14.896-7.399-22.441-3.699-9.979-6.668-22.002-7.204-42.107-0.049 24.339 3.992 48.338 5.939 72.627 0.869 11.098 3.358 25.459 1.509 36.752-0.924 5.694-4.673 10.613-5.598 16.551-0.924 5.89-1.509 9.881-4.041 15.431-2.434 5.258-5.452 10.66-6.668 16.404-1.214 5.55-1.606 10.952-3.457 16.404-4.673 13.824-9.249 27.406-15.139 40.646-1.509 3.358-2.141 8.129-4.088 11.293-1.366 2.191-3.553 3.699-5.063 5.841-3.504 4.77-6.133 10.125-9.686 14.944-2.629 3.457-4.82 7.253-7.302 10.855-2.726 4.041-5.111 6.474-8.616 9.881-3.798 3.651-9.881 12.024-15.041 12.949-4.43 0.731-4.673-2.288-7.302-5.305-2.53-2.872-5.744-5.209-8.373-8.129-3.553-3.992-3.798-7.886-6.23-12.365-3.212-5.89-8.811-4.235-14.457-6.085-4.479-1.509-8.86-3.212-13.435-4.576-2.045-0.579-4.041-1.021-6.037-1.606-3.212-0.924-6.474-0.98-9.931-1.752-12.364-2.823-24.437-6.767-37.19-7.302-19.033-0.731-38.261 0.049-57.343 0.049-5.939 0-16.015-1.46-21.662 1.311-3.261 1.655-5.159 5.159-7.545 8.227-2.629 3.358-4.479 6.815-7.204 9.833-4.478 5.015-9.103 8.568-15.188 11.050-4.187 1.704-8.033 2.483-11.975 5.159-2.629 1.801-6.668 5.841-9.881 6.328-5.305 0.731-11.002-4.82-15.041-7.253-4.868-2.872-8.811-4.235-12.949-8.373-4.381-4.381-8.227-9.297-12.364-13.922-4.283-4.819-7.399-9.151-10.514-14.798-2.629-4.868-6.668-8.373-9.2-13.045-1.947-3.553-2.823-9.54-4.43-13.338-2.045-4.088-3.651-8.373-4.868-12.85-0.098-2.434-0.29-4.868-0.579-7.253-1.995-7.934-6.621-15.236-8.422-23.17-3.164-14.019-6.133-28.088-9.443-42.058-1.752-7.204-4.527-13.63-6.863-20.639-4.577-13.582-7.984-28.478-9.299-42.837-1.412-15.48-4.138-30.57-4.041-46.147 0.049-2.775-0.152-5.647-0.049-8.422 0.193-3.699 1.173-3.798 1.995-6.668 1.021-3.553-0.098-9.297-0.098-12.997 0-2.336 0.386-5.258-0.29-7.399-8.323 11.586-4.82 29.596-7.399 43.129-3.358 17.816-6.085 35.924-7.886 53.984-1.076 10.563-4.138 21.224-4.624 31.836-0.538 9.979 0.049 20.153 0.049 30.132 0.049 15.334-1.801 30.035-1.801 45.416 0 13.678 0.098 27.406-0.049 41.084-0.098 10.903 1.851 20.348 4.235 30.862 1.366 5.89 1.311 12.218 3.262 17.914 1.655 4.82 4.868 9.346 6.717 14.214 2.336 6.085 5.258 12.024 7.399 18.158 3.894 11.197 7.886 22.197 11.878 33.296 1.509 4.283 2.141 8.664 3.651 13.143 1.173 3.457 3.992 11.197 3.018 14.652-5.015-2.677-10.855-7.886-16.453-9.151-5.258-1.173-12.315 0.048-17.768 0.152-7.545 0.152-13.386 6.328-18.741 11.487-4.333 4.138-8.714 5.355-11.926 10.466-3.699 5.793-9.201 10.028-12.315 16.064-1.311 2.483-2.53 4.527-4.041 6.863-2.921 4.576-3.457 9.833-5.598 14.603-4.041 8.714-7.788 17.135-11.002 26.092-1.46 4.088-4.138 7.302-4.624 11.683-0.538 4.673-0.248 8.664-1.269 13.338-1.509 7.204-1.46 14.847-3.846 21.613-3.407 9.736-2.823 20.98-0.676 31.008 3.164 14.944 14.311 25.945 26.189 34.464 5.159 3.699 12.413 4.041 14.506 10.174 3.018 9.005 1.46 19.033 2.726 28.574 1.801 13.289 5.744 25.945 8.323 39.040 1.898 9.931 3.894 19.666 6.911 29.304 4.868 15.674 11.975 28.185 21.175 41.766 5.987 8.811 12.024 17.963 16.356 27.844 4.235 9.686 7.204 19.861 11.244 29.645-0.193 0.248-0.386 0.579-0.579 0.828-6.621 8.858-13.727 14.701-21.662 22.051-8.86 8.179-15.772 18.352-24.777 26.432-12.706 11.489-29.84 18.936-45.953 23.365-8.957 2.483-17.768 4.624-26.676 7.497-7.545 2.434-15.334 4.722-23.123 6.279-7.886 1.509-15.967 1.801-23.754 3.894-11.828 3.115-23.365 4.041-35.584 3.992-4.576-0.048-9.249 0.29-13.824 0.098-3.553-0.152-6.474-1.655-9.735-3.018-0.924-0.386-3.504-2.141-4.479-2.483-2.677-0.869-4.916-0.483-7.156-2.677-4.138 4.916 2.093 14.555 4.916 18.595 3.894 5.647 5.744 11.975 10.903 16.746 3.603 3.31 8.033 5.355 11.829 8.373 5.258 4.235 10.952 5.841 17.086 8.519 9.297 4.138 18.4 5.111 28.379 6.767 9.638 1.558 19.422 3.164 29.158 4.333 7.497 0.869 15.188 0.248 22.684 0.29 11.391 0 22.83-0.345 34.221-0.098 10.855 0.248 21.564 1.606 32.468 1.558 18.595-0.152 38.164 2.093 56.467-1.655 15.236-3.066 28.914-7.545 41.523-16.842 0.386-0.29 0.773-0.635 1.173-0.869 5.647 12.413 12.121 24.826 20.543 34.61 11.244 13.045 29.791 10.174 45.416 10.368 22.246 0.248 44.541 0 66.787 0.193 10.903 0.048 21.564-0.098 32.322-2.24 7.156-1.46 14.506-2.823 21.808-3.457 8.323-0.676 17.768-1.118 25.994 0.098 5.647 0.828 11.197 2.483 16.842 3.212 5.744 0.676 11.732 0.345 17.426 0.386 2.093 0 5.598 0.828 7.594 0.048 4.527-1.851 3.992-10.271 5.159-15.090 3.018-11.829 8.762-22.879 14.117-33.88 2.726 1.269 5.5 2.53 8.275 3.894 4.77 2.483 9.59 4.82 14.603 6.717 3.358 1.269 6.961 1.655 10.174 3.31 5.209 2.726 9.396 5.694 14.993 7.497 7.79 2.53 15.383 4.624 22.733 8.033 4.479 2.045 9.979 2.336 14.798 3.603 17.281 4.624 35.243 6.522 52.767 9.979 9.2 1.851 17.719 1.947 27.065 1.997 7.399 0.048 13.777-1.851 20.98-2.58 10.077-1.076 19.958-0.098 29.986-2.093 10.514-2.045 21.127-3.798 31.543-6.328 9.249-2.24 17.426-6.182 26.189-9.59 10.757-4.235 23.219-10.709 31.787-18.692 2.629-2.434 4.965-5.209 7.399-7.788 1.704-1.752 5.355-4.576 6.668-6.863 1.021-1.801 1.118-3.504 0.676-5.694z"></path>
    </svg>