<svg xmlns="http://www.w3.org/2000/svg" viewBox="28.060 144.000 972.884 736.121">
    <path fill="#000000" d="M281.687 381.84h173.624v55.247h-284.117v149.949h276.224v47.353h-339.358v-252.545zM391.688 726.661c28.211-43.217 42.875-59.086 51.529-55.766 6.653 2.552 12.094 6.629 12.094 9.053 0 8.393-72.167 120.173-77.508 120.052-2.947-0.058-9.902-3.001-15.454-6.529-7.538-4.784-0.122-21.704 29.337-66.812zM380.984 228.793c6.865-2.632 13.882-4.793 15.593-4.793s19.147 27.4 38.75 60.887c30.434 51.989 33.836 61.898 23.279 67.806-6.799 3.805-13.129 5.706-14.065 4.225s-18.428-28.109-38.867-59.169-37.165-58.203-37.165-60.32c0-2.115 5.619-6.003 12.484-8.635zM510.557 687.344c14.467-3.784 15.782-0.238 15.782 42.485 0 34.582-2.838 46.616-10.994 46.616-14.099 0-20.575-17.298-20.575-54.968 0-23.366 3.491-30.916 15.783-34.133zM526.343 247.674c14.001 0 15.783 5.26 15.783 46.615 0 42.728-1.317 46.27-15.783 42.485-13.317-3.483-15.782-10.766-15.782-46.615 0-37.225 1.954-42.485 15.782-42.485zM581.842 667.626c8.539-5.332 15.557-7.004 15.593-3.712 0.031 3.291 19.57 27.22 43.406 53.177 42.008 45.741 50.46 61.913 36.779 70.368-5.881 3.633-46.204-35.050-93.991-90.176-17.087-19.707-17.109-20.092-1.78-29.661zM747.32 381.84h173.624v252.545h-339.358v-47.353h276.223v-149.949h-284.116v-55.246zM622.976 297.714c22.81-25.32 45.275-50.098 49.918-55.066 5.674-6.076 12.884-6.548 22.014-1.435 11.849 6.63 7.411 14.547-34.902 62.275-26.663 30.074-53.229 54.68-59.035 54.68-23.509 0-17.438-16.673 22.008-60.448z"></path>
    </svg>