<svg xmlns="http://www.w3.org/2000/svg" viewBox="41.314 -48.000 954.005 1120.001">
    <path fill="#000000" d="M423.234 472.87c3.189-2.095 5.188-4.808 15.898-3.143 1.382-9.045 2.001-18.184 3.523-27.229 1.618-9.901 4.33-19.613 6.282-29.417 2.191-10.805 3.665-25.847 10.329-35.224 3.809-5.378 8.329-10.281 11.329-16.232 5.378-10.661 8.903-22.373 12.091-33.843 2.237-8.141 4.189-16.136 6.092-24.373 2.38-10.281 2.856-21.276 6.331-31.272 13.946-39.795 19.231-82.111 26.703-123.475 3.713-20.515 3.572-41.364 6.759-61.881 1.048-6.855 1.857-13.948 2.237-20.898 0.199-2.997 0.239-6.282 0.288-9.567-3.857 11.378-10.044 24.989-11.093 27.609-8.948 22.514-13.186 47.172-20.706 70.304-3.095 9.616-4.14 19.182-6.188 29.037-1.382 6.806-4.903 12.233-6.759 18.803-2.761 9.901-5.997 19.753-9.569 29.464-5.52 15.089-10.805 31.274-17.896 45.698-11.757 24.085-16.756 51.597-20.849 77.922-1.523 10.137-4.998 19.848-6.57 29.988-1.569 9.901-3.57 19.613-5.427 29.417-2.093 11.138-4.903 21.895-4.903 33.272 0.044 4.618 0.477 7.998 1.428 12.473 0.858 4.14-0.57 8.618 0.668 12.566z"></path>
    <path fill="#000000" d="M533.009 40.117c-1.428 4.903-1.763 10.614-1.903 16.183 2.856-8.378 4.523-15.564 1.903-16.183z"></path>
    <path fill="#000000" d="M710.511 53.44c-0.044 0.858 0 1.713 0 2.571 0.809-6.046 1.379-12.138 1.667-18.184-0.477 5.188-1.523 10.281-1.667 15.612z"></path>
    <path fill="#000000" d="M631.442 423.47c0.155 4.618 1.19 9.092 2.237 13.52 0.428 1.713 1.478 6.043 3.619 7.14 1.998-2.001 3.189-5.807 10.376-1.382 0.524-0.334 1.048-0.666 1.571-0.999-2.571 2.191-1.571-3.998-1.571-6.046 0-8.615 1.478-15.564 3.619-23.942 4.903-19.136 7.615-39.083 14.375-57.596 2.093-5.712 3.095-11.711 3.998-17.708 1.333-9.188 4.664-17.66 6.331-26.753 1.808-9.996 5.237-19.706 7.615-29.656 1.143-4.949 2.856-9.613 3.475-14.611 0.524-4.523 0.573-8.856 1.428-13.375 1.713-8.903 2.951-17.757 4.428-26.656 2.048-12.235 5.712-24.039 8.283-36.083 3.904-18.518 0.332-37.32 2.997-55.835 2.525-17.66 2.619-35.273 5.475-52.883 1.333-8.187 0.714-16.328 0.809-24.609-2.191 16.328-6.046 32.51-9.854 48.361-5.139 21.515-9.233 43.412-16.851 64.261-3.046 8.424-3.855 17.516-7.376 25.752-3.809 8.948-6.523 17.85-10.425 26.798-4.474 10.235-6.046 21.943-9.377 32.558-3.285 10.614-6.665 21.468-10.759 31.749-5.856 14.804-5.95 31.323-10.9 46.697-5.141 15.993-3.475 34.559-3.475 51.171 0 13.328-0.477 26.8-0.044 40.127z"></path>
    <path fill="#000000" d="M712.162 37.809c0.199-1.905 0.285-3.857 0.199-5.809 0 1.952-0.088 3.857-0.199 5.809z"></path>
    <path fill="#000000" d="M759.148 518.738c0.383-2.571 1.096-5.141 1.618-7.379 3.285-14.233 8.76-27.512 14.187-41.031 7.615-18.803 14.708-37.939 20.323-57.406 3-10.235 5.904-20.468 8.807-30.75 2.571-8.903 3.095-18.039 5.286-27.038 1.903-7.998 4.9-15.566 5.52-23.8 0.619-8.663 1.81-16.802 1.716-25.562-0.199-16.421 2.093-33.034 5.473-49.075 1.382-6.711 1.571-12.805 1.713-19.66 0.155-6.948 1.523-13.802 1.81-20.8 0.236-6.901 1.284-14.326 2.284-21.181 1.094-7.332 1.382-14.804 2.666-22.182 2.38-13.756 6.95-28.798 5.903-42.841-0.524 24.419-10.52 46.411-18.088 69.354-7.33 22.133-15.564 44.031-22.373 66.308-4.806 15.564-10.186 30.608-16.183 45.743-3.38 8.519-4.998 16.47-6.711 25.37-2.048 10.663-6.046 21.373-8.618 31.943-4.284 17.754-8.139 36.27-10.376 54.358-0.904 7.332-1.048 13.995-2.856 21.23-1.857 7.523-4.998 15.186-6.189 22.85-3.143 19.802-1.475 39.603-2.142 59.595-0.714-3.428 5.141-9.711 16.232-8.044z"></path>
    <path fill="#000000" d="M913.316 257.592c-1.763 0.132-2.188 8.807-2.951 10.568-3.76 8.378-8.139 16.566-12.091 24.896-5.33 11.28-9.901 23.038-14.708 34.556-4.521 10.9-6.139 22.706-10.471 33.558-1.857 4.666-4.854 8.807-6.282 13.663-1.428 4.759-1.716 9.901-2.525 14.755-1.379 8.139-3.236 16.281-4.903 24.373-3.806 18.373-7.568 37.413-13.137 55.311-2.81 9.043-2.761 18.373-4.808 27.561-0.714 3.331-2.237 6.331-3.285 9.567-1.667 5.333-1.952 11.044-2.618 16.566-1.333 10.614-3.619 20.991-4.903 31.608-1.523 11.994-6.189 23.133-6.855 35.175-0.714 12.711-5.712 24.039-7.14 36.368-0.475 4.14-2.286 7.664-3.189 11.090-0.858 3.238-0.199 6.521-0.524 9.805 0.428-0.666 1.048-1.045 14.518 0.668 0.475-3.428-1.379-5.807-1.903-8.996-0.573-3.619 0.904-7.523 1.952-10.9 2.663-8.283 5.663-16.375 8.139-24.753 4.379-14.804 7.664-29.751 11.663-44.696 3.521-13.139 7.949-26.325 10.805-39.603 2.476-11.711 4.759-23.135 8.473-34.559 2.712-8.187 6.046-16.136 8.996-24.276 3.904-10.759 5.758-21.992 8.473-33.083 1.998-7.998 5.045-15.612 7.283-23.515 2.38-8.618 3.048-17.375 4.428-26.181 2.095-13.328 8.283-25.228 10.378-38.556 1.045-6.57 1.19-13.137 2.618-19.706 1.618-7.52 3.38-14.423 3.236-22.182-0.132-7.091 0.809-13.375 1.571-20.277 0.57-4.952 1.763-14.138-0.239-18.803z"></path>
    <path fill="#000000" d="M744.707 718.7c-12.091 14.663-27.609 25.182-44.125 34.415-5.522 19.375-19.613 39.653-36.413 51.361-14.708 10.235-35.987 13.139-48.363-2.188-13.186-16.421-5.663-39.508 9.759-51.504 16.468-12.758 39.128-19.943 59.929-20.849 2.048-0.088 3.904 0.334 5.568 1.048 14.852-7.568 29.083-16.375 44.983-21.99 5.712-2.001 13.328 4.045 8.663 9.709zM648.126 862.311c5.712 0.668 11.519 1.284 17.279 1.571 6.758 0.285 13.279-0.809 19.753 1.618 4.094 1.523 5.712 5.997 3.38 9.616-4.903 7.568-14.423 11.044-22.563 14.423-8.187 3.38-16.756 5.904-25.562 6.998l-23.513 3.095c0.76-0.858 1.475-1.763 2.188-2.714-15.612-1.523-29.751-7.806-37.556-22.991-2.761-5.33-2.522-12.898 1.333-17.706 2.761-3.523 5.378-6.331 9.711-7.998 5.758-2.191 13.661-1.763 17.66 3.619 0.475 0.666 0.951 1.333 1.428 2.048 4.189 3.188 6.092 4.425 12.803 5.378 2.095 0.285 4.284 0.57 6.426 0.855zM575.154 811.665c-7.472 6.38-18.42 8.807-27.94 5.427-12.138-4.332-15.566-15.566-15.758-27.846-5.333 1.284-11.090 1.333-17.516-0.524-14.184-3.998-22.467-14.757-27.085-27.18-13.424 4.14-28.036 4.618-39.653-3.57-18.469-12.947-13.946-38.603 2.38-51.075 8.711-6.665 19.278-9.377 29.179-13.805 10.378-4.664 20.089-10.661 30.75-14.708 10.853-4.14 21.992-4.045 29.371 5.999 2.759 3.76 4.189 8.615 4.903 13.137 0.236 1.523 0.428 3.285 0.521 4.949 3.38-1.238 6.665-2.712 9.854-3.902 12.188-4.571 24.704 5.234 20.945 17.896-3.665 12.235-2.571 24.134 1.998 35.938 4.332 11.187 12.947 25.133 5.571 35.987 1.045 8.473-0.088 16.898-7.523 23.276zM433.497 679.526c-7.427 9.758-20.898 16.088-33.321 12.233-15.278-4.713-21.992-19.848-21.23-34.463 0.57-11.757 4.045-24.563 9.567-35.606 0.088-4.236 0.904-7.995 2.856-12.47 0.044-0.088 0.044-0.199 0.088-0.288-0.334-2.903-0.381-5.758-0.199-8.424 0.285-3.665 1.284-6.904 2.237-10.139-0.044-7.568-0.088-15.518 1.903-22.848 0.288-3.331 0.953-6.57 2.571-9.996 3.095-6.38 12.805-6.665 14.567 0.951 1.569 6.57 0.475 11.996 0.57 18.566 0.088 7.472 3.331 10.329 6.38 16.563 1.284 2.571 2.093 5.19 2.712 7.902 2.951 0.999 5.761 2.761 8.283 5.427 6.426 6.806 9.138 21.086 7.71 34.748 2.904 12.898 3.857 26.656-4.711 37.841zM531.013 607.555c3.762-15.233 11.853-33.75 24.229-44.27 0.999-0.855 2.095-1.664 3.236-2.378 11.331-23.135 25.896-44.888 49.411-57.455 4.33-2.284 10.328 2.571 8.283 7.093-6.331 13.995-14.708 26.607-21.373 40.508-1.857 3.855-3.809 7.664-5.761 11.472 0.999 1.333 1.763 2.903 2.286 4.713 1.808 1.618 3.046 3.76 3.428 6.377 2.951 19.421-3.236 39.557-12.518 56.597-7.568 13.851-23.325 30.511-40.651 18.612-13.52-9.235-14.090-27.18-10.568-41.27zM612.553 642.779c7.33-12.423 17.85-22.611 30.369-30.131 8.948-5.427 23.228-13.043 34.223-9.567 5.048-4.379 9.665-9.426 14.423-13.805 8.853-8.139 18.327-15.327 27.894-22.706 5.761-4.379 13.375 2.237 9.52 8.236-10.139 15.708-20.325 34.652-35.938 45.839-1.763 1.284-3.713 2.522-5.712 3.806-0.524 1.716-1.193 3.428-2.001 5.141-1.523 25.703-17.85 51.122-43.458 60.833-13.043 4.952-30.131 7.189-37.224-7.853-6.141-13.137 1.238-28.37 7.902-39.793zM800.193 672.196c-2.473 1.713-4.998 3.855-7.806 5.093-2.522 1.094-5.141 0.858-7.808 1.143-6.616 0.76-12.803 2.284-19.088 4.284-6.95 2.188-14.28 4.474-20.657 8.139-3.189 1.857-5.856 3.619-8.996 4.618 0.57-9.473 1.284-19.088 2.333-28.559-5.571-15.473-18.563-25.801-26.322-39.795 0.475-0.76 0.999-1.475 1.379-2.284 2.191-4.284 4.903-7.998 8.234-11.423 4.952-5.095 8.76-10.617 12.854-16.47 9.947-14.375 17.326-30.704 21.324-47.791 0.951-4.143 3.521-17.993-4.618-16.517-3 0.521-5.903 3.143-8.522 4.521-3.188 1.667-5.568 3.285-8.091 5.807-2.525 2.525-4.618 5.475-7.568 7.427-4.903 3.236-10.139 5.948-14.993 9.282-4.094 2.761-7.951 5.807-12.281 8.234-2.191 1.286-4.569 2.476-6.665 3.95-1.618 1.143-3.095 2.619-4.903 3.428-3.143 1.428-6.474 2.333-9.758 3.095-13.044-10.188-28.658-17.564-45.125-21.897-0.573 0.044-1.096 0.239-1.667 0.285-9.711 1.048-18.422 1.286-26.8 0.668 0.044-0.132 0.132-0.285 0.239-0.477 0.619-1.569 0.666-3.282 1.333-4.903 0.904-2.378 2.38-4.474 3.475-6.758 1.475-3.048 1.857-6.474 3.38-9.52 1.238-2.522 3.046-4.713 4.474-7.14 1.667-2.761 2.476-5.856 3.998-8.618 1.333-2.38 2.522-4.379 3.285-6.998 2.188-7.617 3.95-15.138 6.616-22.611 2.666-7.33 4.236-14.708 4.474-22.514 0.044-0.811 0.904-7.998 0-8.618-0.858-0.619-0.953-0.334-1.763 0.132-0.332 0.199-0.524 0.999-0.809 1.284-0.666 0.809-1.952 1.284-2.761 1.808-1.569 0.999-3.475 2.191-4.903 3.38-1.143 0.904-1.808 2.38-2.807 3.475-1.667 1.808-3.285 3.38-5.522 4.428-2.095 0.951-4.094 1.857-5.997 3.143-2.953 1.998-5.999 4.236-8.57 6.711-3.143 3-6.852 4.952-9.996 8.044-1.76 1.763-3.046 4.047-5.093 5.475-1.998 1.379-3.76 2.048-5.473 3.76-1.667 1.667-2.81 3-3.809 5.188-0.999 2.237-2.284 3.809-3.616 5.807-2.761 4.143-3.428 9.282-6.284 13.424-2.093 3.046-4.664 5.141-7.186 7.853-3.048 3.285-6.331 6.235-9.665 9.33-1.667 1.569-2.807 3.806-4.618 5.234-1.19 0.953-2.569 1.667-3.902 2.38-4.666-0.428-9.379-0.619-14.043-0.334-10.9 3.998-21.992 7.427-33.511 9.235-2.237 0.334-4.425 0.524-6.616 0.57 0.155 0.477 0.199 0.999 0.334 1.478 0.044 0.236 0.199 0.428 0.285 0.666-4.854 2.191-9.758 4.238-14.948 5.571-13.946 3.665-27.702 4.379-40.887 7.759-1.048-5.333-0.132-11.187-2.714-16.136-3.428-6.665-4.236-14.469-6.092-21.848-0.619-2.427-1.428-4.856-1.857-7.33-0.381-2.525-0.088-5.095-0.334-7.617-0.285-2.951-0.809-5.758-1.664-8.568-0.858-2.904-0.619-5.761-1.096-8.711-0.236-1.664-0.428-7.186-3.378-6.473-2.095 0.524-4.143 5.712-4.952 7.615-1.19 2.904-1.618 5.761-2.427 8.711-0.619 2.427-2.237 4.474-3.236 6.711-1.905 4.284-3 8.758-5.095 12.996-1.19 2.333-2.188 4.759-3.188 7.186-1.048 2.476-1.193 5.095-2.191 7.568-2.048 5.141-5.473 9.426-7.949 14.282-2.81 5.473-4.045 11.423-5.665 17.277-1.19 4.332-2.761 8.568-3.475 12.996-0.57 3.331-1.854 6.235-2.618 9.52-0.714 2.951-0.809 5.758-1.952 8.615-2.666 6.523-5.378 13.281-6.426 20.279-0.239 1.284-0.524 2.522-0.809 3.76-1.284 1.952-2.571 3.855-3.855 5.761-11.996 17.66-22.039 36.413-33.272 54.453-34.369 48.553-75.638 49.411-119.477 87.299-0.573 0.524-1.096 1.143-1.618 1.763-7.474 4.238-14.093 9.759-21.658 13.853-10.329 5.52-19.28 13.088-29.037 19.514-4.998 3.285-9.616 7.093-14.565 10.473-2.714 1.523-5.19 3.331-7.474 5.427-1.713 2.093-3.619 4.045-5.712 5.758-2.333 1.952-8.663 4.952-7.189 8.996 5.856-1.475 11.187-3.616 16.707-6.141 3.095-1.379 6.331-2.856 9.616-3.806 2.237-0.428 4.478-1.048 6.665-1.81 2.048-1.045 4.143-1.998 6.331-2.856 6.235-2.048 11.663-5.807 18.135-7.52 6.046-1.571 11.903-2.38 18.137-1.667 8.615 1.001 14.899 4.094 21.848 9.045 6.141 4.379 9.662 10.948 14.899 16.043 1.998 1.998 0.199 3.855-1.094 5.807-1.096 1.664-1.952 3.046-3.619 4.33-1.618 1.238-6.235 2.904-6.616 5.333 1.998-1.238 4.236-1.143 6.331-2.237 4.998-2.618 8.853-6.426 14.708-7.235 8.044-1.143 16.566 6.282 15.518 14.66-0.619 4.903-4.903 10.568-7.615 14.663-4.286 6.331-11.426 9.662-17.138 14.565-4.854 4.143-9.613 7.617-14.993 11.044-3.095 1.903-7.474 3.38-9.092 6.855 1.713-0.953 3.713-0.953 5.522-1.428 4.094-1.143 8.333-2.666 12.281-4.238 10.71-4.189 21.563-8.044 32.368-11.994 3.521-1.238 6.855-2.286 10.139-4.094 4.521-2.476 8.234-5.427 13.183-7.093 8.522-2.903 16.756-6.092 25.896-6.521 7.379-0.285 14.090-4.14 21.373-5.283 3.902-0.619 7.759 0.199 11.661 0.57 3.809 0.383 7.713 1.763 11.472 1.763 5.522 0 11.709-2.093 17.041-3.521 2.286-0.619 4.569-1.667 6.998-1.763 1.664-0.044 3.38 0.285 5.045 0.239 1.952-0.088 3.855 0.332 5.807 0.044 2.666-0.475 5.333-1.618 8.093-1.19 1.19 0.199 2.618 0.666 3.523 1.523 1.664 1.569 0.999 2.237 0.088 4.33-1.905 4.332-3.095 8.76-6.284 12.281-1.952 2.142-4.045 4.045-5.854 6.38-2.761 3.475-4.952 7.376-8.048 10.614-6.901 7.186-14.231 14.614-22.609 20.136-6.38 4.187-12.233 9.282-19.231 12.564-10.139 4.713-20.421 8.618-29.846 14.804-4.569 3-8.804 6.523-13.137 9.854-1.903 1.428-4.523 2.237-6.282 3.713 1.094-0.155 2.284-0.953 3.282-1.428 2.904-1.382 5.809-2.666 8.665-4.143 7.283-3.665 14.708-6.473 22.324-9.377 6.711-2.571 13.566-4.854 20.468-6.759 7.379-2.093 14.329-5.237 21.422-7.949 6.901-2.618 13.805-5.761 20.896-7.759 5.473-1.523 10.995-1.478 16.66-1.808 6.616-0.383 13.043-0.858 19.136-3.38 3.76-1.571 6.998-2.666 10.422-4.856 4.478-2.856 9.474-4.045 14.043-6.806 1.952-1.143 4.284-3.189 6.57-3.475 1.998-0.239 4.045 0.088 6.139-0.199 1.571-0.239 3.334-0.285 4.856-0.904 1.475-0.619 2.761-1.713 4.332-2.191 2.663-0.855 6.852-1.713 9.233 0.334-0.381 3.713-3.713 9.235-5.903 12.043-3.095 3.95-6.141 7.853-9.473 11.568-1.333 1.523-2.856 1.903-4.428 3.046-1.763 1.238-3.331 2.522-5.188 3.665-2.048 1.284-3.855 3.095-6.095 4.14-2.142 1.001-3.95 1.905-5.807 3.38-6.616 5.19-13.566 9.52-20.611 13.948-6.998 4.33-12.423 10.471-17.66 16.756-2.903 3.521-6.57 6.759-9.188 10.471-0.714 0.999-1.379 2.476-1.523 3.713 7.33-1.952 13.661-5.188 20.469-8.522 8.9-4.425 18.278-7.52 27.512-11.185 12.233-4.903 24.894-9.426 37.366-13.709 11.423-3.904 22.182-9.662 33.606-13.424 18.612-6.043 37.795-9.996 55.883-17.611 0.855-0.381 1.808-0.714 2.712-1.094 2.142 1.523 4.332 2.951 6.474 4.569 2.476-2.81 6.331-7.379 7.33-11.090 1.571-1.048 3.189-2.048 4.856-2.856l-2.38-2.048c0.381-0.573 0.76-1.193 1.143-1.763 4.759 1.763 9.377 2.856 14.516 2.712 9.711-0.199 19.136-0.666 28.703-2.188 8.473-1.382 16.709-3.523 25.133-5.093 7.664-1.382 14.663-4.238 21.612-7.568 4.854-2.333 9.996-3.953 14.708-6.618 5.473-3.093 10.568-6.473 16.183-9.328 4.143-2.142 8.187-5.333 11.903-8.187 3.76-2.807 7.71-5.141 11.565-7.808 1.905-1.284 9.235-5.948 8.426-8.378-3.236-0.428-6.759-0.285-9.996-0.132-3.523 0.088-6.855 1.19-10.329 0.999-2.476-0.132-4.808-0.953-7.283-0.999-2.856-0.088-5.663 0.199-8.519 0.088-4.808-0.132-9.569-1.048-14.423-0.999-3.713 0.044-6.904-0.088-10.568-0.858-5.283-1.094-10.376-1.952-15.612-3.236-2.618-0.668-5.093-0.381-7.806-0.381-3.143 0.044-6.235-0.088-9.33-0.334 4.664-3.57 9.282-7.189 13.805-10.853 30.131-24.609 52.693-51.218 65.594-85.727 1.236-0.904 2.473-1.81 3.665-2.81 2.618-2.284 4.379-4.618 7.33-6.57 5.473-3.616 10.091-8.615 14.423-13.517 7.091-7.998 15.374-14.28 23.372-21.373 5.333-4.713 10.614-9.377 15.754-14.329 2.666-2.951 5.286-5.948 7.856-8.994 3.57-3.619 6.901-7.427 10.043-11.426 3.285-4.474 7.379-10.568 6.665-16.563-1.618 0.332-3.619 1.854-5.048 2.618-3.616 1.998-6.998 4.428-10.425 6.759z"></path>
    </svg>