<svg xmlns="http://www.w3.org/2000/svg" viewBox="-23.099 47.998 1071.307 959.672">
    <path fill="#000000" d="M83.307 654.161c28.043-76.345 99.209-152.603 180.727-193.663 49.242-24.802 51.652-24.088 27.75 8.239-15.662 21.185-17.988 30.606-10.494 42.506 23.976 38.072 58.532 19.077 101.344-55.706 28.809-50.325 60.658-83.298 107.706-111.503 43.4-26.019 49.084-23.549 20.202 8.786-32.607 36.505-40.081 58.022-24.616 70.855 17.544 14.561 32.489 3.828 87.621-62.926 48.75-59.027 100.338-100.124 140.503-111.933l22.372-6.578-24.607 24.798c-27.654 27.87-30.438 38.58-11.886 45.701 19.981 7.667 47.409-11.272 130.843-90.342 42.677-40.446 91.058-78.228 107.514-83.966l29.922-10.431-36.913 31.595c-25.283 21.642-41.571 45.618-51.698 76.11-16 48.17-38.042 72.422-107.382 118.146-48.52 31.996-59.541 58.002-22.848 53.908 12.042-1.342 29.155-9.016 38.032-17.046 11.836-10.71 16.135-11.478 16.135-2.882 0 18.996-63.576 73.86-121.104 104.509-59.752 31.833-107.778 76.755-98.358 91.998 8.552 13.84 37.65 3.889 84.448-28.878l39.48-27.643-17.108 29.043c-24.978 42.402-41.502 55.23-122.306 94.955-77.89 38.295-101.309 61.206-78.246 76.56 7.383 4.914 24.594 6.894 38.25 4.398 22.93-4.191 24.054-3.094 14.711 14.364-5.562 10.397-27.021 35.807-47.685 56.471-107.657 107.657-286.666 124.064-373.91 34.276-52.782-54.325-64.805-111.834-38.398-183.719zM134.669 790.943c29.392 43.614 71.026 64.767 127.484 64.767 79.566 0 135.304-45.474 147.784-120.571 3.526-21.222 9.195-45.102 12.594-53.068 4.356-10.206 0.547-15.956-12.891-19.47-15.978-4.179-17.514-7.899-9.474-22.926 5.28-9.866 21.697-26.55 36.482-37.079s31.026-26.886 36.090-36.348c7.495-14.008 0.419-12.053-38.048 10.513-25.992 15.246-52.462 31.958-58.823 37.135-17.857 14.538-35.039-6.306-20.069-24.346 10.309-12.421 8.238-12.46-20.673-0.378-17.67 7.385-46.482 13.423-64.025 13.423-57.933 0-130.017 41.387-148.063 85.011-13.41 32.422-8.85 72.951 11.628 103.338z"></path>
    </svg>