<svg xmlns="http://www.w3.org/2000/svg" viewBox="17.574 14.395 1003.852 993.942">
    <path fill="#000000" d="M912.771 511.316c12.426 0.498 21.707 4.588 28.655 10.723-1.203-17.487-4.849-35.419-10.564-53.035-2.043-3.933-4.167-7.839-6.265-11.668-12.742-23.148-25.458-46.325-38.173-69.5-2.043-2.439-4.115-4.876-6.265-7.235-21.602-23.963-56.338-58.123-11.954-83.343 21.419-12.19 40.793-11.116 57.754-2.674-16.386-35.183-40.503-67.797-69.264-97.104-11.798-10.459-24.356-20.266-38.224-28.997-29.887-18.797-57.519-41.633-88.377-59.092-26.452-14.996-58.674-14.657-89.975-11.902-10.616 4.509-22.337 10.513-23.858 20.133-0.839 5.428 1.888 10.671 3.672 15.888 5.375 15.861 1.705 32.928-1.992 49.314-9.070 40.112-18.246 80.538-37.226 118.422-5.532 11.063-12.873 22.468-23.332 30.437-4.955-0.024-9.884-0.033-14.63 1.442-15.599 4.903-13.004 28.182-10.485 40.556 0.474 2.438 1.391 4.35 2.464 5.95 0.657 1.335 1.598 2.464 2.988 3.12 4.403 2.909 10.694 2.36 16.961-0.917 7.027-3.699 11.85-10.407 17.591-15.651 6.109-5.584 12.952-9.307 20.291-11.98 5.872 0.422 11.668 1.414 17.067 3.068 19.296 5.899 34.711 17.882 48.448 30.361 61.267 55.71 100.042 128.015 109.192 203.598 6.344 52.565-1.152 106.046 4.273 158.687 0.422-1.128 0.997-2.62 1.18-3.223 0.577-2.151 1.073-4.298 1.598-6.449 1.231-5.035 2.282-10.095 3.829-15.1 3.618-11.642 8.808-22.363 19.242-31.117 20.056-16.831 55.029-24.932 72.936-1.837 0.498 0.657 0.839 1.339 1.283 1.992 4.377-24.486 9.017-49.104 7.944-73.799-0.787-17.96-7.183-30.7-12.611-47.427-9.043-27.841 2.622-63.418 45.827-61.635z"></path>
    <path fill="#000000" d="M172.057 572.939c-5.428 16.725-11.85 29.466-12.611 47.452-1.1 24.668 3.567 49.288 7.917 73.772 0.474-0.657 0.787-1.335 1.283-1.968 17.934-23.095 52.905-14.996 72.962 1.837 10.407 8.73 15.625 19.479 19.218 31.117 1.546 4.983 2.622 10.043 3.828 15.074 0.526 2.151 1.021 4.299 1.626 6.451 0.173 0.605 0.76 2.095 1.18 3.223 5.427-52.617-2.071-106.126 4.272-158.662 9.122-75.607 47.898-147.913 109.192-203.597 13.737-12.506 29.153-24.486 48.421-30.387 5.428-1.654 11.222-2.646 17.093-3.068 7.341 2.698 14.156 6.398 20.291 12.007 5.74 5.245 10.539 11.954 17.593 15.624 6.265 3.279 12.531 3.855 16.934 0.943 1.414-0.681 2.36-1.781 3.016-3.143 1.073-1.598 1.968-3.513 2.464-5.95 2.516-12.347 5.113-35.628-10.512-40.556-4.719-1.494-9.647-1.442-14.603-1.442-10.459-7.971-17.828-19.348-23.359-30.412-18.955-37.884-28.13-78.336-37.201-118.422-3.697-16.412-7.366-33.452-2.020-49.341 1.785-5.217 4.536-10.459 3.672-15.887-1.522-9.622-13.214-15.624-23.831-20.133-31.303-2.753-63.55-3.068-90.002 11.902-30.856 17.487-58.489 40.32-88.377 59.118-13.84 8.73-26.425 18.534-38.224 28.97-28.761 29.309-52.852 61.95-69.263 97.104 16.988-8.416 36.362-9.515 57.779 2.674 44.36 25.246 9.649 59.379-11.98 83.342-2.123 2.387-4.193 4.798-6.239 7.261-12.715 23.148-25.456 46.325-38.171 69.5-2.123 3.829-4.22 7.708-6.266 11.668-5.74 17.617-9.359 35.549-10.565 53.008 6.949-6.108 16.23-10.199 28.656-10.721 43.179-1.785 54.87 33.819 45.826 61.635z"></path>
    <path fill="#000000" d="M594.097 580c-0.47 5.217-0.839 10.459-0.997 15.729-0.422 14.683 1.968 29.467 0.76 44.123-0.812 9.595-3.513 18.402-9.543 26.007-0.207 0.277-0.474 0.526-0.709 0.813-4.982 11.038-9.491 22.285-5.376 32.403 0.577 1.414-0.173 2.438-1.255 2.857 0.025 0.76-0.024 1.598-0.173 2.674-0.526 3.303-5.532 1.888-5.035-1.363 0.709-4.561-4.981-10.355-5.61-15.205-0.498-3.855 0.762-7.76 2.464-11.169 2.57-5.086 7.131-8.704 10.696-13.030 0.277-0.345 0.498-0.683 0.762-1.021 3.618-8.548 6.843-17.040 7.917-26.924 1.649-15.388-0.241-30.726-1.602-46.063-0.657-0.418-1.1-1.073-0.969-2.099 0.024-0.241 0.070-0.446 0.103-0.681 0 0 0-0.024 0-0.024 0.103-0.943 0.277-1.888 0.394-2.833-0.683-8.939-1.073-17.853-0.277-26.793 0.474-5.376 3.359-33.611 14.315-24.251 11.484 9.752 0.709 32.455-5.872 46.848zM541.581 758.25c0.207 0.839-0.103 1.729-0.137 2.622-0.024 1.311-0.070 2.646-0.277 3.985-0.498 2.646-1.414 5.845-3.12 8.259-0.762 1.076-3.487 4.93-5.297 4.851-0.070-0.070-0.033-0.173-0.025-0.207-0.024 0-0.033 0.024-0.033 0.024-0.137 0.277-0.173 0.498-0.366 0.76-0.033-0.173-0.103-0.366 0.366-0.76 0-0.024 0.024-0.033 0.024-0.070 0.025-0.025 0.025-0.025 0.025-0.033 0.422-0.839 0.657-1.733 0.865-2.698 0.345-1.494 1.152-3.068 1.335-4.562 0.173-1.466-0.024-3.092-0.137-4.536-0.033-1.203-0.394-2.203-0.501-3.355-0.173-1.94-0.474-3.854 0.31-5.872 0.345-0.917 0.173-1.231 1.231-1.729 0.735-0.345 2.020-0.891 2.805-0.76 1.677 0.277 2.646 2.881 2.937 4.115zM566.181 802.667c-0.277-2.203-1.18-3.829-1.86-5.95-0.839-2.646-2.491-4.928-3.619-7.496-0.683-1.546-1.781-2.913-2.334-4.484-0.207-0.577-0.033-1.073-0.605-1.442l-0.31 0.418c-3.487-1.255-0.366-9.017 2.753-10.381 1.259-0.553 4.167 0.997 5.402 1.757 0.917 0.577 1.574 1.283 2.542 1.809 1.231 0.629 1.546 0.969 2.282 2.123 1.311 1.992 1.809 4.325 2.048 6.686 0.241 2.203-0.394 4.089-0.549 6.292-0.137 1.705-0.173 3.355-0.577 5.035-0.526 2.095-1.654 4.089-2.542 6.055-0.277 0.683-1.729 5.165-2.674 4.981 0.173-1.968 0.277-3.487 0.033-5.402zM528.63 762.159c-0.577 1.335-1.363 2.542-2.175 3.723-0.839-1.18-1.602-2.386-2.203-3.723-1.231-2.805-3.434-6.161-3.434-9.228 0.025-3.092 0.657-5.898 2.805-8.129 0.997-1.048 1.837-1.626 2.833-2.203 0.969 0.577 1.837 1.152 2.805 2.203 2.175 2.23 2.805 5.035 2.805 8.129 0 3.068-2.203 6.422-3.434 9.228zM547.041 760.505c1.574 0.917 3.724 1.1 4.85 2.542 1.837 2.282 1.494 6.397 1.231 9.069-0.173 1.916-0.241 4.22-0.917 6.004-0.839 2.23-1.992 4.377-2.909 6.581-1.073 2.489-2.698 3.907-4.404 5.924-0.839 0.969-2.306 3.41-3.592 3.724 0.070-0.997 0.76-1.94 1.128-2.857 0.526-1.259 0.553-2.542 0.917-3.881 1.1-3.933 1.574-8.338 1.94-12.401 0.277-2.857-0.709-5.506-0.865-8.337-0.033-1.152 0.070-3.776 0.629-4.771 0.422-0.787 1.363-1.259 1.992-1.602-0.31-0.173-0.657-0.345-0.917-0.605 0.070-0.366 0.277-0.422 0.683-0.173 1.18 0.241 0.891 0.446 0.241 0.787zM498.756 754.172c0.76-0.137 2.043 0.418 2.777 0.76 1.048 0.498 0.891 0.813 1.259 1.729 0.76 2.020 0.47 3.933 0.277 5.872-0.070 1.152-0.422 2.151-0.501 3.355-0.070 1.442-0.277 3.068-0.103 4.536 0.173 1.494 0.997 3.068 1.339 4.562 0.207 0.969 0.418 1.86 0.839 2.698 0.024 0.024 0.024 0.024 0.024 0.033 0.025 0.024 0.025 0.033 0.033 0.070 0.446 0.394 0.422 0.577 0.366 0.76-0.173-0.277-0.241-0.498-0.366-0.76-0.024 0-0.033-0.024-0.033-0.024 0 0.033 0.025 0.137-0.024 0.207-1.837 0.070-4.562-3.777-5.324-4.851-1.677-2.412-2.622-5.61-3.092-8.259-0.241-1.335-0.277-2.674-0.277-3.985-0.024-0.891-0.366-1.781-0.173-2.622 0.277-1.231 1.259-3.829 2.965-4.115zM571.494 858.138c-0.735 0.446-2.175 0.173-2.988-0.033-1.18-0.277-1.1-0.709-1.705-1.757-1.311-2.334-1.522-4.93-1.888-7.497-0.207-1.494-0.137-2.937-0.394-4.482-0.277-1.888-0.526-4.037-1.1-5.872-0.605-1.888-1.809-3.619-2.57-5.454-0.47-1.152-0.917-2.203-1.574-3.171 0-0.025-0.024-0.025-0.024-0.033-0.025-0.024-0.033-0.033-0.070-0.103-0.553-0.31-0.553-0.577-0.553-0.812 0.241 0.241 0.366 0.549 0.553 0.812 0.024 0.024 0.033 0.024 0.070 0.024-0.033-0.070-0.070-0.173-0.025-0.277 1.781-0.735 5.558 3.275 6.608 4.403 2.334 2.542 4.115 6.344 5.323 9.569 0.577 1.654 0.969 3.355 1.363 5.060 0.241 1.128 0.812 2.151 0.839 3.331 0.025 1.677-0.241 5.375-1.86 6.319zM569.162 877.349c-0.070 0.735-0.418 1.048-0.732 1.598-0.241 0.366-0.709 1.311-0.997 1.574-0.709 0.577-2.725 0.812-3.724 0.629-1.598-0.31-2.255-1.968-2.881-3.279-1.1-2.255-2.178-4.561-3.359-6.712-0.735-1.335-1.677-2.464-2.36-3.75-0.76-1.47-1.466-3.040-2.23-4.509-1.128-2.255-1.654-4.404-1.916-6.896-0.629-1.677 0.446 0.345 1.386 1.021 0.865 0.657 1.916 0.605 2.833 1.021 0.839 0.37 1.414 0.917 2.175 1.414 0.865 0.549 1.916 1.021 2.833 1.466 0.812 0.394 1.968 0.549 2.646 0.997 1.255 0.762 2.438 2.412 3.171 3.672 0.526 0.891 0.997 1.414 1.602 2.255 0.605 0.787 0.474 0.969 0.76 1.809 0.394 1.231 0.893 1.86 0.969 3.279 0.025 0.812-0.277 1.311-0.345 2.095-0.070 0.787 0.241 1.522 0.173 2.308zM565.081 892.469c-0.553 2.071-0.787 3.647-2.542 4.983-1.574 1.18-3.488 4.273-2.334 0.709-1.335 0.137-3.016 0.207-4.22-0.553-0.526-0.31-1.494-1.259-1.94-1.705-0.787-0.76-1.1-1.968-1.781-2.829-0.812-1.048-0.76-1.598-1.255-2.777-0.553-1.283-1.574-2.308-2.203-3.592-0.891-1.86-1.757-3.487-2.412-5.48-0.207-0.629-0.449-1.781-1.021-2.203 0.917 0.173 1.048-0.422 1.626-0.605 0.657-0.207 1.231-0.277 1.888-0.31 1.837-0.173 3.303-0.277 5.060 0.173 3.171 0.787 5.846 3.406 8.154 5.532 2.334 2.123 3.803 5.61 2.988 8.678zM548.648 910.054c-0.709 1.705-1.809 2.568-3.383 3.488-0.813 0.474-1.546 0.474-2.151 0.277 0.033 0.137 0.103 0.277 0.277 0.366-1.442 0.024-1.992 0.366-2.96-0.865-1.021-1.283-1.781-2.282-3.148-3.251-0.762-0.526-1.494-0.813-2.123-1.494-0.762-0.812-0.865-1.888-1.442-2.753-0.657-0.943-1.128-1.152-1.311-2.334-0.173-1.152-0.070-2.334-0.394-3.462-0.629-2.151-0.969-4.011-1.231-6.292-0.070-0.76-0.839-3.567-0.345-4.115 0.422-0.474 2.622 0.070 3.12 0.207 0.577 0.173 1.1 0.709 1.626 0.969 0.762 0.366 1.048 0.241 1.837 0.366 1.391 0.173 2.23 1.442 3.303 2.178 1.311 0.865 3.12 1.705 4.272 2.725 0.033 0.207 0.137 0.418 0.207 0.629 0.366 0.173 0.76 0.394 1.128 0.605 0.683 0.446 1.283 1.048 1.837 1.626 0.945 0.969 1.283 1.992 1.809 3.223 0.422 0.997 0.865 1.94 0.813 3.251-0.033 1.546-1.152 3.143-1.733 4.639zM530.121 919.261c-0.813 1.757-1.86 3.199-3.672 3.854-1.47 0.526-3.199 1.231-4.797 0.997-0.526-0.033-0.945-0.241-1.363-0.446-1.335 0.277-2.568 0.277-3.777 0.070-0.345 0.173-0.683 0.31-1.073 0.366-1.598 0.241-3.331-0.474-4.798-0.997-1.809-0.657-2.881-2.095-3.697-3.854-0.735-1.574-0.103-5.297 0.31-7.079 0.553-2.464 1.335-5.376 2.698-7.523 1.677-2.622 3.487-5.167 5.167-7.787 1.494-2.334 2.334-4.798 3.434-7.261 1.073 2.464 1.916 4.93 3.406 7.261 1.677 2.62 3.488 5.165 5.14 7.787 1.363 2.151 2.175 5.061 2.725 7.523 0.422 1.781 1.048 5.506 0.277 7.079zM505.066 900.008c-0.31 1.128-0.207 2.306-0.394 3.462-0.173 1.18-0.657 1.391-1.311 2.334-0.577 0.865-0.681 1.94-1.442 2.753-0.629 0.681-1.386 0.969-2.123 1.494-1.363 0.969-2.151 1.968-3.148 3.251-0.969 1.231-1.522 0.891-2.96 0.864 0.137-0.070 0.173-0.241 0.277-0.366-0.605 0.173-1.335 0.173-2.175-0.277-1.574-0.917-2.674-1.781-3.359-3.488-0.605-1.494-1.677-3.092-1.729-4.639-0.033-1.311 0.394-2.255 0.813-3.251 0.526-1.231 0.864-2.255 1.781-3.223 0.577-0.577 1.152-1.18 1.86-1.626 0.366-0.207 0.735-0.422 1.128-0.605 0.070-0.207 0.173-0.418 0.207-0.629 1.152-1.021 2.96-1.86 4.273-2.725 1.048-0.735 1.916-1.992 3.303-2.175 0.787-0.137 1.048 0 1.809-0.37 0.553-0.277 1.076-0.812 1.626-0.969 0.526-0.137 2.725-0.681 3.148-0.207 0.498 0.549-0.277 3.359-0.366 4.115-0.241 2.282-0.577 4.141-1.208 6.292zM484.786 893.078c-0.683 0.864-0.969 2.071-1.757 2.829-0.446 0.446-1.414 1.391-1.94 1.705-1.231 0.76-2.885 0.683-4.22 0.553 1.128 3.567-0.762 0.474-2.334-0.709-1.757-1.335-2.020-2.909-2.542-4.982-0.812-3.068 0.657-6.554 2.965-8.678 2.334-2.126 4.981-4.746 8.179-5.532 1.757-0.422 3.223-0.345 5.035-0.173 0.683 0.033 1.255 0.103 1.888 0.31 0.577 0.173 0.735 0.762 1.626 0.605-0.577 0.418-0.812 1.574-1.021 2.203-0.657 1.992-1.494 3.619-2.386 5.48-0.629 1.283-1.654 2.308-2.203 3.592-0.498 1.18-0.446 1.729-1.283 2.777zM468.642 878.93c-0.345-0.549-0.657-0.865-0.735-1.602-0.103-0.787 0.241-1.522 0.173-2.306-0.070-0.787-0.366-1.283-0.345-2.099 0.070-1.414 0.553-2.048 0.969-3.279 0.277-0.839 0.137-1.021 0.735-1.809 0.629-0.839 1.1-1.363 1.626-2.255 0.735-1.255 1.916-2.909 3.148-3.672 0.709-0.446 1.86-0.605 2.646-0.997 0.943-0.446 1.968-0.917 2.857-1.466 0.76-0.498 1.339-1.048 2.151-1.414 0.917-0.418 1.992-0.366 2.857-1.021 0.945-0.681 1.992-2.698 1.391-1.021-0.277 2.489-0.787 4.639-1.916 6.896-0.762 1.466-1.47 3.040-2.255 4.509-0.657 1.283-1.626 2.412-2.334 3.75-1.18 2.151-2.255 4.457-3.355 6.712-0.657 1.311-1.283 2.96-2.909 3.279-0.969 0.173-2.988-0.033-3.698-0.629-0.277-0.277-0.787-1.208-0.997-1.574zM465.563 858.144c-1.598-0.945-1.888-4.641-1.837-6.319 0-1.18 0.577-2.203 0.839-3.331 0.394-1.705 0.787-3.406 1.363-5.060 1.18-3.223 2.988-7.027 5.323-9.569 1.048-1.128 4.798-5.139 6.608-4.403 0.033 0.103 0 0.173-0.025 0.277 0.025 0 0.033 0 0.070-0.024 0.173-0.277 0.31-0.577 0.549-0.812 0 0.241-0.024 0.498-0.549 0.812-0.024 0.033-0.033 0.070-0.070 0.103-0.024 0.025-0.024 0.025-0.024 0.033-0.657 0.969-1.1 2.020-1.598 3.171-0.735 1.837-1.968 3.567-2.542 5.454-0.577 1.837-0.812 3.985-1.1 5.872-0.277 1.546-0.207 2.988-0.422 4.482-0.345 2.568-0.553 5.165-1.888 7.497-0.605 1.048-0.498 1.494-1.705 1.757-0.813 0.207-2.255 0.501-2.988 0.033zM460.295 704.597c-0.173-1.073-0.207-1.916-0.173-2.674-1.1-0.422-1.86-1.442-1.283-2.857 4.115-10.121-0.366-21.366-5.349-32.403-0.241-0.277-0.498-0.526-0.709-0.813-6.030-7.603-8.73-16.413-9.544-26.007-1.203-14.657 1.18-29.441 0.762-44.123-0.173-5.27-0.553-10.512-0.997-15.729-6.579-14.393-17.355-37.096-5.898-46.848 10.985-9.36 13.869 18.875 14.341 24.252 0.787 8.939 0.422 17.853-0.277 26.793 0.137 0.945 0.277 1.888 0.394 2.833v0.025c0.025 0.241 0.070 0.446 0.103 0.681 0.137 1.021-0.31 1.677-0.969 2.099-1.363 15.335-3.275 30.674-1.598 46.063 1.073 9.884 4.298 18.377 7.917 26.924 0.277 0.345 0.474 0.683 0.762 1.021 3.566 4.325 8.127 7.944 10.669 13.030 1.729 3.41 2.988 7.313 2.491 11.169-0.629 4.85-6.319 10.643-5.636 15.205 0.526 3.251-4.509 4.666-5.008 1.363zM468.005 599.886c0.629-1.654 2.909-2.753 4.325-1.128 6.239 7.157 4.798 16.595 4.798 25.563 0.024 6.581 0 13.344 1.335 19.819 1.073-0.024 2.123 0.474 2.464 1.809 1.705 6.292 4.299 11.115 8.782 15.993 0.917 1.021 1.048 2.698 0 3.67-1.94 1.809-3.855 3.619-5.793 5.428-1.757 1.677-5.245 0.033-4.325-2.516 2.646-7.445-4.93-15.337-7.577-21.681-1.86-4.457-3.275-9.148-4.508-13.815-2.965-11.274-3.829-22.153 0.498-33.138zM472.329 560.325c1.048-1.705 3.933-2.203 5.454-1.705 1.203 0.394 3.040 1.442 3.985 2.255 0.997 0.839 1.494 2.151 2.594 3.040 1.837 1.522 3.040 4.193 4.193 6.501 1.048 2.048 1.1 4.482 1.94 6.633 0.498 1.311 1.335 2.282 1.522 3.777 0.277 1.888-0.024 4.037 0.137 6.002 0.207 2.282 1.021 4.22 1.705 6.292 0.683 2.151 0.891 4.457 1.414 6.686 0.577 2.491 1.781 4.379 2.568 6.687 0.657 1.968 0.446 4.535 0.813 6.634 0.366 2.043 0.997 4.011 1.1 6.108 0.103 2.674 0 5.376 0.103 8.049 0.070 2.020 0.657 3.619 0.893 5.558 0.345 2.725-0.865 7.996-2.306 10.486-1.231 2.099-4.115 4.692-6.057 3.907-0.839-0.345-1.494-0.943-2.175-1.626-0.629-0.657-1.363-0.969-1.94-1.494-1.335-1.259-1.231-2.913-1.598-4.85-0.657-3.462-1.546-6.843-1.888-10.434-0.277-3.406-1.414-6.397-1.335-9.884 0.070-3.697 0.241-7.89-0.173-11.457-0.577-5.349-1.837-10.512-3.199-15.572-1.152-4.272-3.12-8.023-4.509-12.137-1.47-4.379-3.566-8.365-5.139-12.69-0.549-1.494-0.969-4.824-2.334-5.636 5.506 5.035 1.546 3.171 4.22-1.125zM499.931 721.867c0.241 0.553 0.173 1.048 0.033 1.494 0.943 1.311 0.735 3.513-1.283 4.089-4.404 1.283-7.812 3.565-10.774 7.053-1.339 1.574-3.776 0.553-4.326-1.152-1.757-5.27 0.137-9.096 2.725-13.737 3.959-7.105 5.688-14.366 5.323-22.467-0.137-2.913 4.614-3.592 5.087-0.683 0.033 0.207 0.070 0.446 0.103 0.683v0 0.024c1.259 8.233-0.103 16.831 3.092 24.695zM471.258 808.014c-0.917 0.173-2.386-4.298-2.674-4.981-0.865-1.968-1.992-3.959-2.542-6.055-0.418-1.677-0.446-3.331-0.577-5.035-0.137-2.203-0.762-4.089-0.553-6.292 0.241-2.36 0.735-4.694 2.048-6.686 0.76-1.152 1.073-1.494 2.282-2.123 0.997-0.526 1.626-1.231 2.57-1.809 1.231-0.762 4.115-2.306 5.375-1.757 3.12 1.363 6.239 9.123 2.777 10.381-0.103-0.137-0.207-0.277-0.345-0.418-0.526 0.366-0.366 0.864-0.577 1.442-0.577 1.574-1.654 2.937-2.334 4.484-1.128 2.568-2.805 4.849-3.619 7.496-0.683 2.123-1.626 3.751-1.888 5.95-0.207 1.916-0.103 3.434 0.033 5.402zM518.531 724.153c-0.173-0.070-0.31-0.070-0.501-0.173v0.31c-0.997 0.31-1.86 0.446-2.175 0.070-2.334-2.622-3.355-9.727-2.833-16.308 0.345-4.141 1.287-7.027 2.151-10.303 1.574-5.925 2.439-12.269 3.279-19.192 0.025-0.207 0.033-0.474 0.070-0.681 0 0.207 0 0.47 0.033 0.681 0.812 6.923 1.705 13.267 3.251 19.192 0.865 3.275 1.837 6.16 2.175 10.303 0.526 6.581-0.498 13.685-2.829 16.308-0.31 0.366-1.208 0.241-2.178-0.070v-0.31c-0.173 0.070-0.31 0.070-0.474 0.173zM505.258 752.885c0.024-3.092 0.657-5.898 2.833-8.128 0.969-1.048 1.809-1.626 2.805-2.203 0.969 0.577 1.837 1.152 2.805 2.203 2.175 2.23 2.805 5.035 2.805 8.128 0.024 3.068-2.203 6.422-3.434 9.228-0.577 1.335-1.363 2.542-2.175 3.722-0.813-1.18-1.602-2.386-2.203-3.722-1.208-2.805-3.434-6.161-3.434-9.228zM490.559 759.675c0.366-0.241 0.605-0.173 0.681 0.173-0.277 0.277-0.605 0.418-0.917 0.605 0.605 0.345 1.546 0.813 1.968 1.598 0.553 0.997 0.683 3.618 0.629 4.771-0.137 2.829-1.1 5.48-0.839 8.337 0.37 4.063 0.813 8.47 1.916 12.401 0.394 1.335 0.422 2.622 0.917 3.881 0.394 0.917 1.048 1.86 1.128 2.857-1.283-0.31-2.753-2.753-3.592-3.724-1.705-2.020-3.331-3.434-4.377-5.923-0.943-2.203-2.071-4.352-2.909-6.581-0.683-1.785-0.762-4.090-0.945-6.004-0.277-2.674-0.577-6.79 1.231-9.069 1.152-1.442 3.279-1.626 4.878-2.542-0.683-0.345-0.945-0.553 0.241-0.787zM549.108 734.494c-2.965-3.488-6.346-5.766-10.749-7.053-2.020-0.577-2.23-2.777-1.311-4.089-0.137-0.446-0.173-0.945 0.070-1.494 3.199-7.865 1.837-16.465 3.092-24.695v-0.024c0.025-0.241 0.033-0.474 0.070-0.683 0.498-2.909 5.245-2.23 5.113 0.683-0.366 8.101 1.363 15.362 5.324 22.467 2.568 4.641 4.482 8.47 2.725 13.737-0.577 1.705-2.988 2.725-4.351 1.152zM502.264 667.067c-0.277-0.997-0.024-2.151 1.048-2.881 0.277-0.173 0.449-0.422 0.709-0.605 0.277-1.048 0.526-2.23 0.943-3.199 0.345-0.812 0.787-1.152 1.128-1.757 1.1-1.888 1.522-4.535 2.175-6.686 0.605-2.095 1.391-4.167 1.705-6.292-0.103-1.021 0-2.020 0.277-3.040 0.31-1.048 0.657-2.071 0.997-3.092 0.173-1.255-0.033-2.334 0.207-3.592 0.345-1.546 0.917-3.068 1.442-4.587-0.498-12.111-2.698-24.408-3.434-31.802-0.629-6.134-1.442-12.767 3.881-15.52 0.207-0.277 0.422-0.526 0.683-0.76 0.813-0.683 1.94-0.969 2.833-1.574 0.474-0.31 1.048-0.787 1.654-1.18 0.577 0.394 1.128 0.864 1.626 1.18 0.891 0.605 2.020 0.891 2.805 1.574 0.277 0.241 0.498 0.498 0.709 0.76 5.324 2.753 4.509 9.385 3.881 15.52-0.735 7.393-2.96 19.689-3.434 31.802 0.526 1.522 1.1 3.040 1.414 4.587 0.277 1.259 0.070 2.334 0.241 3.592 0.345 1.021 0.657 2.048 0.997 3.092 0.277 1.021 0.345 2.020 0.277 3.040 0.31 2.123 1.073 4.194 1.705 6.292 0.629 2.151 1.073 4.798 2.178 6.686 0.345 0.605 0.787 0.945 1.128 1.757 0.394 0.969 0.657 2.151 0.943 3.199 0.241 0.173 0.446 0.422 0.683 0.605 1.1 0.735 1.311 1.888 1.073 2.881 0.394 0.577 0.812 1.128 1.311 1.654 1.076 1.152 3.068 1.546 4.509 2.334 3.54 1.86 6.556 5.61 9.438 8.625 2.594 2.674 4.562 6.738 6.135 10.277 1.546 3.594 3.148 7.183 4.746 10.801 2.043 4.588 3.12 9.858 4.562 14.709 1.1 3.75 1.916 7.996 3.592 11.484 1.203 2.516 1.992 3.303 1.598 6.397-0.207 1.86-0.605 3.881-1.363 5.506-0.839-3.672-1.916-7.785-3.462-11.22-2.937-6.581-5.192-13.475-8.391-19.872-1.283-2.594-2.020-5.402-3.303-8.022-1.021-2.099-2.255-4.090-3.331-6.161-1.992-3.907-4.35-7.418-7.313-10.355-2.988-2.937-8.232-7.471-12.006-6.581-3.672 0.839-9.649 2.516-12.453-2.753v-2.36c-0.173 0.422-0.345 0.787-0.474 1.208-0.173-0.422-0.366-0.787-0.501-1.208v2.36c-2.805 5.27-8.782 3.592-12.452 2.753-3.777-0.891-9.044 3.645-12.007 6.581-2.988 2.937-5.323 6.45-7.339 10.355-1.073 2.071-2.282 4.063-3.303 6.161-1.287 2.622-2.020 5.427-3.303 8.022-3.199 6.397-5.48 13.293-8.416 19.872-1.522 3.434-2.594 7.549-3.434 11.22-0.76-1.626-1.152-3.644-1.391-5.506-0.366-3.092 0.418-3.881 1.626-6.397 1.677-3.488 2.464-7.734 3.592-11.484 1.442-4.851 2.516-10.121 4.562-14.709 1.598-3.618 3.199-7.209 4.746-10.801 1.546-3.54 3.54-7.601 6.133-10.277 2.885-3.012 5.899-6.765 9.412-8.625 1.442-0.787 3.462-1.18 4.535-2.334 0.501-0.526 0.917-1.073 1.311-1.654zM537.221 627.27c0.103-2.674 0-5.375 0.103-8.049 0.103-2.099 0.735-4.063 1.1-6.108 0.366-2.099 0.173-4.666 0.812-6.634 0.76-2.306 1.992-4.194 2.57-6.687 0.526-2.23 0.735-4.535 1.414-6.686 0.657-2.071 1.47-4.011 1.705-6.292 0.173-1.968-0.137-4.115 0.103-6.002 0.207-1.494 1.048-2.464 1.546-3.777 0.839-2.151 0.891-4.587 1.916-6.633 1.18-2.306 2.386-4.981 4.22-6.502 1.1-0.891 1.598-2.203 2.594-3.040 0.943-0.813 2.777-1.86 3.985-2.255 1.522-0.498 4.403 0 5.454 1.705 2.646 4.298-1.283 6.16 4.22 1.125-1.363 0.813-1.785 4.142-2.334 5.636-1.574 4.325-3.672 8.311-5.138 12.69-1.391 4.115-3.359 7.865-4.509 12.137-1.391 5.061-2.622 10.225-3.199 15.572-0.394 3.567-0.241 7.76-0.173 11.457 0.103 3.488-1.048 6.476-1.363 9.884-0.31 3.594-1.208 6.975-1.86 10.434-0.366 1.94-0.277 3.592-1.626 4.85-0.553 0.526-1.283 0.839-1.94 1.494-0.657 0.683-1.311 1.283-2.151 1.626-1.968 0.787-4.824-1.809-6.055-3.907-1.47-2.491-2.646-7.76-2.306-10.486 0.241-1.94 0.787-3.54 0.891-5.558zM569.557 633.013c-1.231 4.666-2.674 9.358-4.509 13.815-2.674 6.344-10.225 14.236-7.576 21.681 0.917 2.568-2.568 4.193-4.351 2.516-1.916-1.809-3.855-3.619-5.766-5.428-1.048-0.969-0.943-2.646 0-3.67 4.482-4.877 7.079-9.701 8.782-15.993 0.345-1.335 1.386-1.837 2.464-1.809 1.311-6.476 1.311-13.24 1.335-19.819 0-8.966-1.442-18.404 4.798-25.563 1.386-1.626 3.672-0.526 4.325 1.128 4.325 10.985 3.46 21.864 0.498 33.138zM758.211 620.982c-4.037-5.558-9.228-12.242-15.153-15.888-1.968-1.231-4.167-1.888-6.449-1.86-0.943-1.546-2.178-2.805-3.855-3.383-4.692-1.574-7.053 0.681-8.101 4.141-3.092 0.345-5.818 2.203-6.317 5.165-1.259 0.422-2.519 0.839-3.776 1.47-6.424 3.303-12.716 6.476-19.271 9.595-1.442 0.709-4.955 2.857-7.079 2.491-2.725-0.474-6.975-4.639-8.468-6.818-3.54-5.217-3.592-12.504-3.907-18.481-0.498-9.307-1.781-17.985-3.406-27.083-0.709-3.959-1.522-8.336-0.997-12.374 1.283-1.888 2.857-3.775 5.033-5.558 1.626-1.283 3.462-2.255 5.349-3.148 7.419-1.757 14.288-5.060 22.021-6.108 2.020-0.76 3.881-1.809 5.584-3.199 6.503 0.418 10.853 3.223 13.084 8.468 2.674 2.753 3.223 5.192 6.686 7.001 16.203 8.548 22.283-12.637 14.655-23.91-11.694-17.329-35.838-18.588-51.961-6.949-5.27 3.803-10.985 7.079-16.543 10.512-0.865 0.070-1.705 0.277-2.568 0.241-4.352-0.033-6.608 2.965-7.079 6.266-0.137 0.137-0.31 0.241-0.474 0.345-0.943 0.735-1.888 1.546-2.805 2.36-5.165-0.277-7.366-5.272-8.939-10.329-2.622-8.573-6.949-16.777-10.669-24.878-2.833-6.109-4.851-13.189 0.891-17.539 12.189-2.126 22.835-6.266 35.549-10.381 4.587-1.494 10.251-2.071 15.231-0.577 1.335 5.191 1.546 10.853 6.554 15.204 7.734 6.713 28.629 8.076 25.903-7.523-1.283-7.445-8.338-8.391-13.371-12.294-2.386-1.837-4.325-3.751-6.501-5.584-0.474-2.464-1.18-4.851-2.833-7.183-8.363-11.537-19.663-1.992-29.387-8.391-8.101-5.35-15.624 7.681-7.575 12.977 0.657 0.446 1.391 0.735 2.123 1.021-1.442 0.549-2.833 1.073-4.22 1.574-2.048 0.241-4.115 0.549-6.134 1.152-4.22 1.259-7.918 1.414-12.19 2.020-2.698 0.394-5.35 0.969-7.865 1.916-1.86 0.683-3.148 1.626-5.271 0.839-3.959-1.442-3.54-5.793-2.594-8.992 0.345-1.128 1.466-3.618 1.912-4.455 1.231-2.36 2.622-2.071 4.457-3.488 4.247-3.171 4.93-8.704 0.446-11.798-0.070-0.033-0.173-0.103-0.241-0.173 3.040-3.016 6.738-5.192 11.694-5.898 4.849-0.657 3.985 1.048 6.422 4.404 1.837 2.542 4.247 4.193 7.393 4.614 14.184 1.992 21.68-20.66 8.626-27.108-4.955-2.439-9.465 0.812-10.88 4.797-0.865-0.394-1.757-0.735-2.646-0.997-5.766-1.705-12.636-0.787-18.22 1.152-14.314 4.928-20.107 17.592-26.924 29.965-0.865 1.546-0.969 3.040-0.787 4.43-2.334 2.071-4.536 4.063-7.865 4.693-3.647 0.681-4.090-1.733-4.851-4.693-0.394-1.522-1.152-3.303-1.729-5.061 0.446-3.171 0.865-6.344 1.231-9.517 0.024-0.070 0.070-0.137 0.103-0.207 1.916-4.141 3.513-6.239 2.857-11.222-0.31-2.568-1.048-4.35-1.992-6.108-0.070-3.829-0.31-7.655-0.943-11.484-0.709-4.482-7-15.152-6.659-19.453 0.553-7.053 15.597-6.975 16.829-1.888 1.021 4.141 5.376 6.055 9.255 5.243 25.378-5.243-1.128-35.575-15.757-37.252-11.614-1.335-20.291 8.285-26.32 17.065-0.657 0.969-1.1 1.968-1.626 2.937-1.626-1.203-3.303-2.308-4.876-3.645-0.025-0.024-0.025-0.033-0.033-0.070-0.997 0.577-1.94 1.128-2.777 1.94-0.137 0.709-0.241 1.391-0.345 2.099-1.442 4.089 1.837 11.85 2.937 15.625 0.137 0.474 0.277 0.891 0.418 1.363-0.577 7.496-0.366 15.152-2.829 23.252-2.542 8.391 9.017 12.322 13.319 6.161 0.103 1.414 0.103 2.881-0.137 4.455-0.474 2.282-0.31 4.536 0.446 6.765 0.103 0.605 0.241 1.208 0.345 1.809-0.683 1.546-4.561 3.383-5.975 4.037-2.857 1.335-5.324 0.366-8.548 0.474-4.037 0.137-8.363 0.474-12.085-1.598-5.165-2.833-7.366-8.311-13.135-10.591-3.855-1.546-5.768-1.048-9.412-0.812-2.438 0.137-6.292 1.203-8.626 0.709-1.785-0.366-3.251-2.071-4.588-3.75v-1.231c-0.173 0.207-0.345 0.418-0.47 0.629-0.173-0.207-0.345-0.422-0.501-0.629v1.231c-1.363 1.677-2.805 3.383-4.587 3.75-2.36 0.498-6.187-0.577-8.626-0.709-3.645-0.241-5.584-0.735-9.438 0.812-5.74 2.282-7.944 7.76-13.11 10.591-3.75 2.071-8.049 1.729-12.085 1.598-3.251-0.103-5.688 0.864-8.548-0.474-1.414-0.657-5.297-2.491-6.003-4.037 0.137-0.605 0.277-1.208 0.366-1.809 0.762-2.23 0.917-4.482 0.446-6.765-0.241-1.574-0.277-3.040-0.173-4.455 4.325 6.16 15.888 2.23 13.319-6.161-2.464-8.101-2.23-15.756-2.805-23.252 0.137-0.474 0.277-0.893 0.422-1.363 1.073-3.777 4.377-11.537 2.909-15.625-0.103-0.709-0.207-1.391-0.31-2.099-0.839-0.813-1.809-1.363-2.777-1.94-0.025 0.025-0.025 0.033-0.070 0.070-1.574 1.335-3.227 2.439-4.851 3.645-0.526-0.969-0.969-1.968-1.654-2.937-6.003-8.782-14.683-18.402-26.294-17.065-14.657 1.677-41.135 32.012-15.756 37.252 3.881 0.813 8.232-1.1 9.253-5.243 1.231-5.087 16.282-5.165 16.831 1.888 0.345 4.299-5.95 14.97-6.686 19.453-0.605 3.829-0.865 7.655-0.917 11.484-0.943 1.757-1.677 3.54-2.020 6.108-0.657 4.983 0.969 7.079 2.885 11.222 0.024 0.070 0.070 0.137 0.103 0.207 0.345 3.171 0.787 6.344 1.231 9.517-0.605 1.757-1.335 3.54-1.729 5.061-0.762 2.96-1.231 5.375-4.851 4.693-3.331-0.629-5.532-2.622-7.865-4.693 0.173-1.391 0.033-2.885-0.787-4.43-6.818-12.374-12.636-25.037-26.924-29.965-5.584-1.94-12.453-2.857-18.22-1.152-0.917 0.277-1.809 0.605-2.646 0.997-1.414-3.985-5.925-7.235-10.88-4.797-13.057 6.449-5.558 29.101 8.626 27.108 3.148-0.422 5.558-2.071 7.391-4.614 2.439-3.359 1.546-5.060 6.424-4.404 4.928 0.709 8.652 2.885 11.668 5.898-0.070 0.033-0.137 0.103-0.207 0.173-4.482 3.092-3.829 8.626 0.422 11.798 1.86 1.414 3.251 1.128 4.482 3.488 0.446 0.839 1.546 3.327 1.888 4.455 0.969 3.199 1.391 7.55-2.57 8.992-2.123 0.787-3.406-0.173-5.27-0.839-2.542-0.943-5.165-1.522-7.865-1.916-4.272-0.605-7.97-0.76-12.216-2.020-2.020-0.605-4.063-0.917-6.108-1.152-1.391-0.498-2.777-1.021-4.22-1.574 0.735-0.277 1.466-0.577 2.123-1.021 8.049-5.297 0.526-18.324-7.575-12.977-9.727 6.397-21.053-3.148-29.389 8.391-1.677 2.334-2.36 4.719-2.829 7.183-2.203 1.837-4.115 3.75-6.503 5.584-5.033 3.907-12.085 4.849-13.371 12.294-2.725 15.599 18.168 14.236 25.903 7.523 5.008-4.35 5.219-10.016 6.555-15.204 4.981-1.494 10.644-0.917 15.231 0.577 12.716 4.115 23.332 8.258 35.549 10.381 5.74 4.351 3.724 11.43 0.891 17.539-3.75 8.101-8.049 16.308-10.696 24.878-1.546 5.060-3.75 10.043-8.912 10.329-0.917-0.813-1.86-1.626-2.833-2.36-0.137-0.103-0.31-0.207-0.446-0.345-0.474-3.303-2.753-6.319-7.079-6.266-0.865 0.024-1.729-0.173-2.568-0.241-5.558-3.434-11.274-6.711-16.543-10.512-16.15-11.641-40.268-10.381-51.961 6.949-7.629 11.273-1.574 32.455 14.655 23.91 3.46-1.809 4.011-4.247 6.66-7.001 2.255-5.245 6.606-8.049 13.109-8.468 1.677 1.391 3.54 2.438 5.584 3.199 7.734 1.048 14.605 4.35 21.996 6.108 1.916 0.891 3.75 1.86 5.376 3.148 2.175 1.785 3.75 3.672 5.033 5.558 0.526 4.037-0.277 8.418-0.997 12.374-1.626 9.098-2.909 17.776-3.41 27.083-0.345 5.977-0.366 13.267-3.907 18.481-1.494 2.178-5.74 6.344-8.47 6.818-2.123 0.37-5.662-1.785-7.105-2.491-6.528-3.12-12.82-6.292-19.244-9.595-1.259-0.629-2.516-1.048-3.776-1.47-0.526-2.96-3.223-4.824-6.345-5.165-1.021-3.462-3.41-5.714-8.076-4.141-1.705 0.577-2.909 1.837-3.881 3.383-2.255-0.025-4.455 0.629-6.422 1.86-5.952 3.646-11.117 10.329-15.153 15.888-7.55 10.433-12.242 27.213 0 35.943 4.167 2.96 9.702-0.241 11.063-4.484 0.553-1.729 1.259-3.331 2.071-4.902 1.208 0.173 2.491-0.137 3.251-1.021 2.464-2.937 4.377-6.082 6.028-9.281 0.969-0.657 2.071-1.152 3.171-1.626 2.622-0.31 5.27-1.522 7.734-3.223 0.173-0.103 0.345-0.277 0.526-0.366 0.498-0.345 0.943-0.735 1.391-1.1 1.94 0.173 3.881 0.241 5.74-0.103 3.199-0.526 6.214-2.048 9.57-1.654 4.063 0.474 7.393 3.359 11.352 4.351 6.897 1.729 9.99 5.061 10.907 11.98 0.605 4.377 2.542 8.391 2.23 12.82-0.241 3.406-1.837 6.292-2.151 9.727-0.418 4.955-1.626 9.385-2.725 14.288-0.501 2.175-0.813 5.035-1.837 7.001-1.916 3.75-6.711 6.028-10.225 8.179-0.31 0.173-0.577 0.31-0.891 0.474-3.223 0.173-6.502 0.446-9.674 0.943-2.255-2.885-6.818-4.245-10.407-2.203-3.434-0.345-6.79 0.605-10.147 1.729-0.629 0-1.231 0.070-1.837 0.277-15.782 4.614-32.169 37.83-10.958 45.984 8.548 3.303 14.603-1.916 18.77-8.886 1.729-2.909 3.199-6.554 4.851-9.989 8.311 1.546 14.84-3.907 22.074-8.049 6.897-3.959 17.461-0.173 18.797 8.154 0.605 3.697 0.277 7.944 0.762 11.746 0.629 5.192 1.598 9.569 3.275 14.473 0.173 0.47 0.31 0.917 0.474 1.363-2.386 4.536-4.141 9.544-5.82 13.397-7.653 17.723-16.36 29.783-28.523 44.412-8.365 10.094-5.82 44.044 12.978 36.309 8.521-3.488 6.476-12.978 6.528-20.632 6.712-5.898 10.696-14.683 13.319-23.122 2.255-1.86 4.666-3.619 7.157-5.323 1.152 0 2.306-0.207 3.355-0.839 2.542-1.546 3.985-2.885 4.955-4.903 4.377-3.092 8.521-6.292 11.772-9.911 3.592-4.011 1.809-9.018-1.546-11.484 0.917-2.386 1.729-4.772 2.36-7.131 0.657 0.025 1.311 0.070 1.992 0.207 5.74 1.18 8.074 5.532 8.912 10.853 0.207 1.231 0.277 2.386 0.241 3.54-13.895 15.074-23.858 32.273-27.762 52.539-2.255 4.482-3.54 8.914-2.753 14.42 0.070 0.553 0.173 1.1 0.277 1.649-1.311 12.059-1.391 27.056 7.471 31.749 11.247 5.977 21.158-5.113 21.864-15.572 0.839-12.164-4.955-23.044-3.227-35.706 1.311-5.688 2.937-11.222 5.454-16.857 0.345-0.787 0.709-1.729 1.1-2.698 1.757-3.327 3.776-6.475 6.030-9.516 0.997-0.683 2.095-1.287 3.148-1.888 2.334-1.335 4.771-2.255 7.183-3.355 4.719-2.203 9.752-2.23 10.512-2.622 1.128 0.605 2.308 1.18 3.406 1.47 2.622 0.605 5.454 0.553 8.154 1.231 5.008 1.287 9.754 3.777 11.746 8.834 2.255 5.74 0.070 13.371-0.449 19.323-0.394 4.876 0.173 9.411 0.865 14.156 0.891 6.108-2.805 10.801-2.885 16.673-0.033 5.165-1.888 9.595-1.414 14.76 0.498 5.48 1.1 11.352 2.412 16.647 0.366 1.466 0.277 3.279 0.76 4.614 0.366 1.048 1.048 1.414 1.574 2.386 0.839 1.466 0.474 1.626 0.787 3.303 0.345 1.992 1.335 3.143 2.175 5.008 1.677 3.567 2.048 5.61 5.74 7.445 3.434 1.677 4.956 3.331 7.236 6.502 2.753 3.881 4.744 6.581 9.096 8.39 2.175 0.891 4.245 2.043 6.449 2.881 2.491 0.945 4.771 0.446 7.313 0.865 1.705 0.277 3.251 0.446 4.903 0.735 2.805 0.474 3.907 2.071 6.79 1.677 4.694-0.577 9.622-1.968 14.393-1.649v0.025c0.173-0.025 0.31 0 0.501-0.025 0.137 0.025 0.31 0 0.474 0.025v-0.025c4.771-0.31 9.701 1.073 14.393 1.649 2.885 0.394 3.985-1.203 6.792-1.677 1.649-0.277 3.199-0.446 4.902-0.735 2.516-0.418 4.825 0.070 7.313-0.865 2.178-0.839 4.272-1.992 6.45-2.881 4.35-1.809 6.317-4.509 9.096-8.39 2.255-3.171 3.802-4.824 7.235-6.502 3.699-1.837 4.063-3.881 5.715-7.445 0.864-1.86 1.86-3.012 2.203-5.008 0.277-1.677-0.033-1.837 0.762-3.303 0.553-0.969 1.231-1.339 1.602-2.386 0.47-1.335 0.366-3.148 0.732-4.614 1.339-5.297 1.94-11.168 2.439-16.647 0.474-5.165-1.363-9.595-1.442-14.76-0.033-5.872-3.751-10.566-2.885-16.673 0.709-4.746 1.283-9.28 0.865-14.156-0.498-5.95-2.674-13.58-0.422-19.323 1.992-5.060 6.738-7.549 11.746-8.834 2.674-0.681 5.532-0.629 8.154-1.231 1.1-0.277 2.255-0.864 3.383-1.47 0.787 0.394 5.793 0.422 10.539 2.622 2.412 1.1 4.851 2.020 7.157 3.355 1.1 0.605 2.175 1.208 3.171 1.888 2.255 3.040 4.272 6.187 6.030 9.516 0.366 0.969 0.735 1.916 1.1 2.698 2.519 5.636 4.142 11.169 5.454 16.857 1.733 12.661-4.063 23.542-3.251 35.706 0.735 10.459 10.643 21.55 21.891 15.572 8.834-4.693 8.782-19.689 7.445-31.749 0.103-0.553 0.241-1.1 0.31-1.649 0.787-5.506-0.526-9.938-2.753-14.42-3.907-20.265-13.867-37.463-27.762-52.539-0.024-1.152 0.025-2.306 0.241-3.54 0.839-5.323 3.171-9.674 8.914-10.853 0.657-0.137 1.335-0.173 1.992-0.207 0.629 2.36 1.442 4.746 2.334 7.131-3.355 2.464-5.14 7.471-1.522 11.484 3.251 3.619 7.393 6.818 11.772 9.911 0.969 2.020 2.412 3.355 4.955 4.903 1.048 0.629 2.203 0.839 3.355 0.839 2.464 1.705 4.876 3.46 7.157 5.323 2.622 8.443 6.581 17.224 13.319 23.122 0.033 7.655-1.992 17.145 6.528 20.632 18.77 7.734 21.34-26.216 12.952-36.309-12.138-14.63-20.869-26.689-28.499-44.412-1.677-3.855-3.434-8.86-5.818-13.397 0.137-0.446 0.277-0.891 0.446-1.363 1.677-4.903 2.674-9.281 3.303-14.473 0.474-3.802 0.173-8.049 0.735-11.746 1.363-8.338 11.928-12.111 18.823-8.154 7.235 4.141 13.764 9.595 22.048 8.049 1.677 3.434 3.12 7.079 4.851 9.989 4.193 6.975 10.251 12.19 18.77 8.886 21.236-8.154 4.851-41.37-10.958-45.984-0.577-0.173-1.203-0.277-1.809-0.277-3.383-1.128-6.711-2.071-10.146-1.729-3.592-2.043-8.154-0.683-10.407 2.203-3.171-0.498-6.45-0.787-9.674-0.943-0.31-0.173-0.605-0.277-0.917-0.474-3.487-2.151-8.285-4.43-10.225-8.179-0.997-1.968-1.335-4.825-1.809-7.001-1.1-4.903-2.306-9.333-2.725-14.288-0.31-3.434-1.916-6.319-2.178-9.727-0.31-4.43 1.654-8.443 2.23-12.82 0.917-6.922 4.037-10.251 10.931-11.98 3.959-0.997 7.288-3.881 11.352-4.351 3.359-0.394 6.371 1.128 9.569 1.654 1.86 0.345 3.803 0.277 5.715 0.103 0.474 0.37 0.917 0.762 1.391 1.1 0.207 0.103 0.366 0.277 0.553 0.366 2.464 1.705 5.14 2.909 7.734 3.223 1.1 0.474 2.203 0.969 3.171 1.626 1.654 3.199 3.567 6.345 6.030 9.281 0.76 0.891 2.048 1.203 3.223 1.021 0.839 1.574 1.546 3.171 2.099 4.902 1.363 4.247 6.897 7.445 11.038 4.484 12.242-8.73 7.55-25.51 0.024-35.943z"></path>
    </svg>