<svg xmlns="http://www.w3.org/2000/svg" viewBox="71.689 -48.000 864.619 1119.999">
    <path fill="#000000" d="M702.729 116.188c1.434 0 2.847 0.108 4.261 0.217l-11.859-84.405h-121.158c-0.512 8.766-31.62 15.845-69.972 15.845-38.361 0-69.475-7.079-69.98-15.845h-121.165l-11.852 84.405c1.413-0.108 2.819-0.217 4.261-0.217z"></path>
    <path fill="#000000" d="M297.204 214.513c58.697-40.923 129.967-65.014 206.796-65.014 76.822 0 148.091 24.091 206.789 65.014 20.626-3.82 36.385-21.979 36.385-43.67 0-22.498-16.963-41.19-38.728-44.022-1.874-0.245-3.771-0.418-5.717-0.418h-397.465c-1.94 0-3.843 0.173-5.724 0.418-21.757 2.833-38.721 21.525-38.721 44.022 0 21.691 15.759 39.848 36.385 43.67z"></path>
    <path fill="#000000" d="M305.262 907.804c-1.434 0-2.847-0.108-4.253-0.217l11.852 84.412h121.158c0.504-8.773 31.62-15.851 69.98-15.851s69.482 7.079 69.972 15.851h121.165l11.852-84.412c-1.413 0.108-2.819 0.217-4.261 0.217z"></path>
    <path fill="#000000" d="M710.783 809.482c-58.704 40.915-129.96 65.006-206.789 65.006-76.822 0-148.085-24.091-206.789-65.006-20.626 3.814-36.392 21.971-36.392 43.67 0 22.498 16.963 41.182 38.728 44.016 1.882 0.245 3.777 0.418 5.724 0.418h397.465c1.94 0 3.843-0.173 5.717-0.418 21.765-2.833 38.728-21.517 38.728-44.016 0-21.697-15.767-39.856-36.392-43.67z"></path>
    <path fill="#000000" d="M611.044 798.486c-4.859 1.823-9.769 3.532-14.75 5.111-5.947 1.889-11.981 3.582-18.081 5.111-23.776 5.947-48.626 9.155-74.219 9.155-25.585 0-50.443-3.208-74.219-9.155-6.099-1.528-12.133-3.222-18.081-5.111-4.974-1.579-9.884-3.287-14.75-5.111-116.017-43.489-198.837-155.481-198.837-286.489s82.82-243.007 198.851-286.489c4.859-1.823 9.769-3.539 14.743-5.111 5.947-1.889 11.981-3.582 18.073-5.111 23.776-5.947 48.634-9.147 74.219-9.147 25.593 0 50.443 3.201 74.219 9.147 6.099 1.528 12.126 3.222 18.073 5.111 4.974 1.571 9.884 3.287 14.75 5.111 116.025 43.482 198.845 155.481 198.845 286.489s-82.82 243-198.837 286.489zM708.455 225.198c-2.257-1.6-4.47-3.244-6.762-4.801-2.588-1.759-5.248-3.417-7.894-5.111-54.783-35.12-119.882-55.564-189.804-55.564-69.915 0-135.014 20.443-189.804 55.564-2.638 1.694-5.306 3.352-7.887 5.111-2.292 1.557-4.513 3.201-6.762 4.808-89.467 63.875-147.853 168.486-147.853 286.792s58.387 222.909 147.853 286.792c2.249 1.614 4.47 3.251 6.762 4.808 2.588 1.759 5.256 3.424 7.894 5.111 54.79 35.12 119.889 55.564 189.797 55.564 69.915 0 135.014-20.443 189.804-55.564 2.638-1.687 5.306-3.352 7.894-5.111 2.292-1.557 4.506-3.201 6.762-4.808 89.467-63.882 147.853-168.486 147.853-286.792s-58.387-222.917-147.853-286.799z"></path>
    <path fill="#000000" d="M493.778 737.664v63.911h20.431v-63.911c-3.382 0.151-6.784 0.26-10.215 0.26-3.425 0-6.827-0.108-10.215-0.26z"></path>
    <path fill="#000000" d="M607.996 712.547l31.958 55.347 17.699-10.222-31.966-55.361c-5.731 3.669-11.621 7.086-17.692 10.237z"></path>
    <path fill="#000000" d="M694.331 633.669l55.367 31.97 10.222-17.704-55.352-31.948c-3.157 6.063-6.567 11.959-10.237 17.682z"></path>
    <path fill="#000000" d="M729.679 501.778c0.151 3.388 0.26 6.79 0.26 10.214 0 3.431-0.108 6.833-0.26 10.222h63.924v-20.437z"></path>
    <path fill="#000000" d="M759.917 376.055l-10.222-17.697-55.367 31.963c3.669 5.723 7.087 11.62 10.237 17.69z"></path>
    <path fill="#000000" d="M607.996 311.445c6.070 3.15 11.96 6.567 17.684 10.237l31.972-55.361-17.699-10.214z"></path>
    <path fill="#000000" d="M350.341 266.318l31.966 55.361c5.731-3.669 11.621-7.086 17.692-10.237l-31.958-55.34z"></path>
    <path fill="#000000" d="M248.078 376.055l55.352 31.956c3.15-6.069 6.561-11.966 10.237-17.69l-55.373-31.963z"></path>
    <path fill="#000000" d="M278.052 511.996c0-3.431 0.108-6.827 0.26-10.214h-63.924v20.429h63.924c-0.151-3.388-0.26-6.783-0.26-10.214z"></path>
    <path fill="#000000" d="M248.078 647.937l10.215 17.697 55.367-31.963c-3.669-5.723-7.087-11.628-10.237-17.69z"></path>
    <path fill="#000000" d="M350.341 757.671l17.699 10.222 31.951-55.347c-6.063-3.142-11.953-6.567-17.684-10.237z"></path>
    <path fill="#000000" d="M536.122 517.663l-1.348-11.634-0.49-4.253-2.069-17.87-0.036-0.289-22.875-197.413c1.643 0.036 3.28 0.051 4.91 0.123v-63.911h-20.438v63.911c1.637-0.072 3.273-0.086 4.91-0.123l-4.91 42.328-13.395 115.64-72.431-95.484 62.857 178.080-0.317 2.79 2.091 2.22 2.977 8.434 0.129 0.375 4.599 13.019 15.457 2.681 8.255 8.737 5.918-6.272 12.356 2.148 12.284-28.229 2.941-3.114-0.324-2.876 2.105-4.852-1.694-2.242z"></path>
    </svg>