<svg xmlns="http://www.w3.org/2000/svg" viewBox="16.504 15.748 1001.732 992.581">
    <path fill="#000000" d="M731.467 754.112c-1.804-1.085-1.838-4.492-2.427-6.101-1.639-4.492-3.903-8.691-6.035-12.989-1.049-2.198-2.065-4.394-3.378-6.461-1.28-1.97-2.984-3.704-4.427-5.574-1.903-2.397-3.542-4.724-5.773-6.791-1.672-1.571-3.346-3.083-5.246-4.362-1.737-1.214-3.772-1.97-5.641-3.049-4.492-2.591-8.198-5.74-11.382-9.707-1.377-1.739-2.687-3.738-4.328-5.281-1.246-1.149-2.395-2.296-3.575-3.51-1.772-1.869-3.050-3.968-4.855-5.805-3.181-3.218-3.509-8.496-2.689-12.659 0.787-3.937 2.952-6.299 5.805-9.185 4.297-4.329 8.167-8.987 12.594-13.216 3.348-3.212 7.937-4.722 12.233-6.526 0.821-0.345 2.427-0.984 3.083-1.641 0.852-0.854 0.527-2.004 0.557-3.083 0.109-6.986-3.28-12.396-7.706-17.842-1.084-1.312-2.36-2.49-3.477-3.839-0.69-0.821-1.247-1.97-2.198-2.591-1.049-0.686-2.362-0.984-3.64-1.048-1.969-0.129-3.543 0.588-5.412 1.015-2.493 0.556-3.378 1.869-5.445 3.311-1.575 1.113-3.181 2.229-4.263 3.769-1.969 2.819-3.543 6.002-5.248 8.954-1.377 2.397-3.28 4.492-6.33 4.689-3.575 0.215-6.92-1.344-10.298-2.229-4.036-1.085-8.626-2.068-11.512-5.019-1.444-1.476-3.017-2.689-4.593-4.033-1.606-1.411-3.115-2.919-4.855-4.167-4.197-3.018-7.378-6.69-10.527-10.628-2.558-3.246-4.82-6.658-7.479-9.838-4.921-5.904-9.083-12.331-14.333-17.973-2.36-2.527-4.82-4.886-7.084-7.51-2.165-2.56-4.101-5.281-6.297-7.807-4.036-4.623-8.43-8.986-12.629-13.448-3.869-4.167-7.477-8.526-11.346-12.693-6.067-6.461-11.054-13.579-16.629-20.401-11.382-14.036-22.957-27.813-35.354-41.061-3.576-3.803-6.594-7.772-9.773-11.903-1.969-2.56-4.199-5.051-6.002-7.742-2.198-3.311-4.328-6.624-6.69-9.874-1.476-1.998-3.28-3.477-4.658-5.639-1.934-2.984-4.132-5.74-6.559-8.397-5.805-6.329-9.904-13.544-14.3-20.759-2.196-3.645-4.689-7.085-6.821-10.758-0.427-0.722-2.1-5.051-3.443-5.116-0.59-0.032-1.868 0.955-2.36 1.279-2.395 1.641-4.101 4.427-5.936 6.592-0.689 0.821-1.411 1.706-2.491 2.133-2.689 1.020-5.313-0.95-7.61-1.804-4.46-1.576-8.593-4.232-11.119-8.067-3.935-6.002-5.377-12.136-6.264-19.055-0.492-3.709-0.983-7.248-0.983-10.953-0.032-1.804 0.293-2.296 1.018-3.937 0.787-1.804 1.541-3.608 2.526-5.346 1.311-2.296 1.084-2.262 0.059-4.658-7.149-16.4-15.251-32.403-22.302-48.868-3.837-8.921-8.231-17.646-12.166-26.566-1.411-3.246-3.050-6.363-4.658-9.51-1.737-3.375-2.82-6.725-4.33-10.168-4.492-10.363-11.674-19.449-17.676-29.024-2.952-4.657-5.544-9.575-8.198-14.398-1.182-2.133-2.263-4.329-3.443-6.461-0.953-1.706-2.952-3.673-3.246-5.576 0.394 2.659 0.059 5.576 0.059 8.233 0 6.988-0.228 13.971-0.032 20.958 0.137 4.427 0.624 8.756 0.624 13.217 0 3.704 0.032 7.443 0 11.185 0 7.741 0.951 15.513 2.23 23.154 1.049 6.234 0.492 12.365 0.722 18.662 0.137 4.525 0.623 9.118 1.049 13.61 0.557 6.133 1.705 12.136 2.395 18.235 0.525 4.657 1.541 9.216 2.065 13.872 0.557 4.855 0.983 9.773 1.737 14.628 0.461 2.919 1.247 5.805 1.706 8.724 0.492 3.083 0.592 6.166 1.246 9.249 1.116 5.051 2.165 10.168 3.443 15.218 0.625 2.397 1.049 4.855 1.772 7.215 0.657 2.296 1.737 4.396 2.427 6.659 1.213 4.098 1.969 7.968 4.099 11.772 1.903 3.375 2.659 7.053 4.658 10.395 1.936 3.246 4.297 6.297 6.33 9.511 1.18 1.869 1.934 3.803 3.346 5.574 1.049 1.279 2.067 2.462 2.984 3.774 1.903 2.721 3.346 5.675 5.215 8.394 2.065 2.954 4.623 5.544 6.592 8.561 1.868 2.889 3.050 6.002 5.246 8.724 1.28 1.606 2.689 3.052 3.869 4.69 1.476 1.97 2.427 4.232 4.101 6.065 1.215 1.279 2.624 2.397 3.803 3.709 1.606 1.771 2.82 3.769 4.362 5.544 3.608 4.162 7.608 8.099 11.018 12.396 1.573 1.97 3.149 3.673 4.855 5.51 1.969 2.133 3.608 4.525 5.773 6.494 3.738 3.375 7.608 6.494 11.15 10.069 4.328 4.362 8.593 8.691 13.317 12.694 4.394 3.704 8.952 7.149 13.643 10.527 4.232 3.049 8.233 6.33 12.462 9.347 5.641 4.033 11.283 8.034 16.53 12.528 2.592 2.229 4.921 4.557 7.772 6.526 1.903 1.312 3.673 2.462 5.379 4.002 2.36 2.099 4.492 4.196 7.051 6.131 3.839 2.889 7.676 5.74 11.348 8.79 4.527 3.709 8.886 7.61 13.448 11.283 5.574 4.46 11.25 8.756 16.496 13.61 3.28 3.052 6.494 6.264 9.904 9.185 2.82 2.392 5.838 4.557 8.462 7.182 3.443 3.51 7.575 6.234 11.412 9.347 1.737 1.411 4.427 3.282 4.855 5.641 0.329 1.835-1.377 3.673-2.491 5.019-2.296 2.754-5.313 5.544-8.102 7.837-1.672 1.411-3.312 2.262-4.101 4.232-0.917 2.425-1.837 5.084-3.083 7.378-1.215 2.164-2.001 4.427-2.952 6.69-1.377 3.148-3.215 5.838-4.197 9.15-0.822 2.789-2.263 5.574-2.854 8.429-0.362 1.771 0.109 3.51 0.492 5.246 0.852 3.477 3.478 4.102 6.988 4.82 3.772 0.787 7.479 2.262 11.185 3.347 1.969 0.556 3.706 0.686 5.707 0.686 4.034-0.032 8.067 0.129 12.1 0.032 3.348-0.044 6.821-0.085 8.364-3.116 0.917-1.835 1.772-3.704 2.526-5.576 0.852-2.063 1.050-4.067 1.673-6.166 0.427-1.447 1.18-2.689 1.737-4.067 0.427-0.984 0.592-1.97 1.28-2.819 1.377-1.736 4.492-1.905 6.559-2.133 1.215-0.174 2.952-0.621 4.101-0.523 1.149 0.044 0.592 0.215 1.311 0.787 2.659 2.133 3.839 6.594 5.379 9.546 1.803 3.477 4.101 6.821 4.79 10.724 0.459 2.625 1.377 4.789 2.065 7.348 2.755 10.199 8.921 19.481 16.103 27.55 6.887 7.674 13.383 15.776 19.448 24.006 0.559 0.756 0.852 1.442 1.28 2.229 0.953 1.641 2.46 2.721 3.708 4.131 2.36 2.689 5.181 4.822 7.608 7.414 1.149 1.214 2.427 2.327 3.543 3.608 1.772 1.998 3.509 3.311 5.74 4.855 4.658 3.246 9.97 4.986 15.152 7.378 5.051 2.327 10.461 4.558 16.101 5.345 4.002 0.556 6.66-1.178 8.691-4.362 1.999-3.116 3.673-6.69 4.79-10.168 0.59-1.905 0.557-3.904 1.082-5.838 0.527-1.869 1.313-3.704 1.838-5.574 1.18-4.102 1.672-8.396 0.623-12.563-0.459-1.771-0.885-3.606-1.541-5.281-1.082-2.754-3.114-4.92-4.623-7.443-2.263-3.803-5.116-7.018-7.575-10.658-1.87-2.819-4.132-4.724-6.821-6.886-2.035-1.606-3.413-3.639-5.445-5.116-1.346-0.984-3.017-1.671-4.297-2.754z"></path>
    <path fill="#000000" d="M338.305 304.465c0 1.934-0.091 3.904-0.032 5.838 0.091 2.555 1.018 4.82 1.149 7.378 0.228 5.181 0.557 10.658-1.379 15.514-1.639 4.102-3.443 7.837-5.443 11.742-1.149 2.229-2.001 4.689-3.246 7.118-1.672 3.282-1.903 5.675-1.903 9.412 0 5.609-0.264 10.658 1.377 16.071 1.607 5.246 3.576 10.497 6.234 15.349 1.934 3.575 2.295 7.509 3.477 11.281 1.247 3.937 2.427 7.807 3.575 11.772 0.852 2.984 1.607 5.545 1.607 8.659 0.032 3.052 1.147 5.641 1.114 8.691-0.109 9.249 0.754 18.364-3.312 26.892-2.132 4.492-4.756 11.119-9.743 13.545-4.198 2.068-10.232 0.527-14.102-1.279-3.443-1.606-5.576-5.412-7.971-8.263-2.657-3.181-3.179-6.33-4.231-10.134-1.084-3.704-0.592-7.149-0.756-10.92-0.091-2.198-1.213-4.427-0.951-6.594 0.293-2.198 0.623-4.722 1.114-6.887 1.969-8.626 5.116-16.66 6.297-25.515 1.215-9.347 1.050-18.561 1.084-28.009 0-4.492-0.362-8.462-1.377-12.856-1.084-4.755-0.756-9.478-0.787-14.268-0.032-3.738 0.059-6.395 2.132-9.675 1.573-2.49 3.083-4.986 4.921-7.348 6.232-8.067 11.346-17.973 13.282-27.713 1.606-8.297 2.393-16.53 2.46-24.926-0.293 1.576 0.358 2.527 0.787 4.002 0.887 3.246 0.887 6.69 1.541 9.97 0.722 3.375 2.427 5.838 3.708 8.987 0.82 1.934 0.852 4.756-0.623 2.166z"></path>
    <path fill="#000000" d="M501.754 333.512c-0.427 0.345-2.36 0.523-2.952 0.657-2.657 0.458-5.246 0.458-7.903 0.984-2.329 0.432-4.396 1.771-6.69 2.361-2.132 0.523-4.362 0.821-6.526 1.113-3.64 0.523-7.151 0.984-10.693 1.998-2.001 0.556-3.97 1.149-5.969 1.675-0.461 0.129-1.772 0.259-2.132 0.657-0.722 0.885-0.394 3.218-0.293 4.427 0.427 4.492 2.689 8.593 3.935 12.89 0.852 3.018 1.772 6.035 2.526 9.085 0.527 1.998 0.756 4.232 1.607 6.131 1.836 0.303 3.477-0.852 5.017-1.312 2.427-0.686 4.492-1.736 7.018-2.49 3.869-1.149 7.479-1.739 11.479-1.97 3.509-0.215 6.887-1.541 10.396-1.512 3.246 0.044 6.494 0.032 9.773 0.032 2.821 0 5.311 0.458 8.067 0.722 4.822 0.432 9.184 1.934 13.905 2.754 5.904 0.984 12.266 1.84 18.235 2.231 9.249 0.592 18.989 2.361 27.646 5.838 8.724 3.51 16.66 7.905 24.499 12.955 7.118 4.558 13.348 9.707 19.579 15.415 3.413 3.114 6.69 6.821 9.576 10.429 1.311 1.641 1.934 3.375 3.018 5.116 0.689 0.821 1.311 1.675 1.868 2.56 0.091 0.621 0.293 1.178 0.657 1.671 3.543-2.656 8.132-4.362 12.168-6.429 1.838-0.95 3.443-1.97 5.377-2.754 1.444-0.592 3.443-1.085 4.625-2.068 1.476-1.279 1.114-1.606 0.394-3.375-1.476-3.673-3.017-7.248-4.855-10.758-3.673-7.117-8.954-13.413-13.905-19.677-4.623-5.87-10.791-10.167-16.269-15.152-2.592-2.397-5.279-3.803-8.034-5.904-4-3.052-8.002-5.51-12.496-7.837-5.182-2.689-10.431-4.232-15.941-6.102-5.347-1.835-10.396-4.098-15.874-5.574-7.313-1.97-14.398-4.69-21.808-6.395-4.887-1.113-9.576-2.198-14.268-3.937 0.059-1.113-0.293-1.706-0.559-2.724-0.264-0.984-0.163-1.934-0.329-2.954-0.293-1.641-0.787-3.347-1.114-4.886-0.492-2.133 0-4.329-0.137-6.494-0.228-3.181-1.411-6.232-1.51-9.478-0.137-4.724 0.032-9.478 0.032-14.202 0-5.609-0.091-11.119 0.557-16.693 0.592-5.051 0.137-10.169 1.016-15.218 0.199-1.113 0.787-4.394 1.969-5.051 1.050-0.592 2.624 0.458 3.708 0.657 3.312 0.588 6.723 1.377 10.101 1.97 2.295 0.345 4.427 0.885 6.624 1.606 2.329 0.787 4.754 0.885 7.084 1.606 4.328 1.377 8.691 2.462 13.119 3.608 5.445 1.344 10.365 3.904 15.971 4.755 3.509 0.527 6.264 1.149 9.413 2.889 2.395 1.312 4.986 2.068 7.545 3.018 4.46 1.706 8.263 3.544 13.085 4.196 1.969 0.259 5.443 0.756 7.378 0.174 1.476-0.458 1.246-0.174 1.868-1.97 1.606-4.658 2.165-9.642 3.772-14.333 0.953-2.754 1.903-5.609 2.919-8.364 0.525-1.377 1.377-2.656 1.573-4.102 0.199-0.032 0.394-0.085 0.592-0.129-0.852-4.624-7.706-5.017-13.383-7.215-1.77-0.657-3.378-1.576-5.148-2.164-3.181-1.085-6.594-1.675-9.707-2.854-2.362-0.885-4.362-2.462-6.756-3.311-2.493-0.885-5.084-1.571-7.575-2.462-6.461-2.296-12.102-5.87-18.727-7.641-6.166-1.641-11.873-3.933-18.203-4.855-4.689-0.657-9.085-1.312-13.839-1.279-3.64 0.032-7.28 0.032-10.953 0.032-8.364 0-16.53 0.044-24.827 1.248-11.642 1.671-23.285 2.721-34.83 5.084-5.675 1.149-11.414 1.476-16.957 3.212-5.246 1.671-10.527 3.212-15.874 4.461-6.526 1.506-12.76 3.311-18.858 6.166-5.675 2.656-12.561 4.427-17.545 8.394-2.624 2.102-1.28 3.904 0.362 6.067 1.838 2.462 3.738 4.887 5.773 7.215 2.262 2.591 4.46 5.379 6.92 7.807 1.18 1.183 1.838 3.116 3.348 3.933 1.969 1.085 5.443-0.556 7.444-1.636 1.311-0.691 2.526-1.149 3.935-1.606 1.838-0.556 3.114-1.541 4.79-2.296 2.919-1.312 5.639-3.018 8.561-4.329 2.491-1.085 5.246-1.706 7.837-2.56 3.478-1.178 7.282-2.397 10.953-2.854 2.329-0.303 4.79-0.044 7.118-0.044 6.297 0 12.594-0.044 18.891 0 1.936 0.032 3.708 0.345 5.609 0.556 1.050 0.085 3.019-0.215 3.673 0.787 0.852 1.377 0.059 5.413 0.059 6.986v16.103c0 4.462 0 8.921 0.032 13.383 0.032 5.969-0.754 11.838-0.754 17.807 0.032 5.936 0.358 12.006 0.032 17.908-0.032 0.852-0.059 3.049-0.852 3.639z"></path>
    <path fill="#000000" d="M937.214 528.416c-0.527-6.559-1.934-13.085-2.164-19.677-0.259-7.118-0.032-14.333-0.032-21.483 0-4.559-0.259-9.15 0.174-13.709 0.345-3.933 0.756-7.642 0.432-11.611-0.345-4.822-0.95-9.677-1.97-14.398-1.512-7.053-4.266-13.546-6.791-20.235-2.527-6.659-5.181-13.216-7.903-19.778-3.639-8.724-6.166-17.611-8.002-26.826-1.346-6.66-3.709-12.955-5.51-19.481-2.133-7.872-5.216-15.152-9.675-22.072-0.955-1.476-2.035-2.625-2.984-4.131-0.821-1.242-1.506-2.56-2.591-3.541-0.259-0.215-0.458-0.432-0.388-0.722-0.432 0.345-0.854 0.657-1.279 1.048-2.49 2.296-4.689 4.82-7.545 6.754-2.754 1.84-5.246 3.968-8.034 5.707-1.869 1.178-2.689 2.099-4.362 3.639-0.345 0.345-1.048 0.556-1.279 0.984-0.722 1.312 0.919 4.462 1.279 5.773 1.804 6.233 4.951 11.905 6.526 18.235 1.312 5.346 3.083 10.628 5.215 15.71 2.262 5.379 3.018 10.953 4.921 16.465 0.756 2.198 1.312 4.362 1.771 6.624 0.345 1.771 1.214 3.181 1.675 4.886 0.556 1.97 0.432 3.738 1.214 5.707 0.885 2.262 1.149 4.427 1.771 6.755 1.512 5.87 4.396 11.412 5.838 17.284 1.178 4.855 2.229 9.904 3.083 14.858 0.432 2.527 0.821 4.986 1.476 7.477 0.885 3.347 2.164 6.592 2.984 9.97 0.885 3.608 2.327 7.018 3.347 10.562 0.756 2.721 0.854 5.544 1.178 8.329 0.722 6.463 2.984 12.528 3.116 19.155 0.085 7.872-2.819 15.349-4.396 22.957-1.835 8.954-3.212 17.908-5.312 26.761-1.344 5.641-1.113 11.348-2.625 16.989-1.835 7.084-2.49 14.463-3.868 21.646-1.178 6.232-2.689 12.526-3.246 18.891-0.432 4.921-1.214 9.773-2.231 14.593-1.739 8.298-4.657 16.269-7.575 24.172-0.885 2.397-2.327 4.427-3.311 6.791-0.95 2.164-1.671 4.525-2.49 6.755-1.671 4.623-4.196 8.855-6.395 13.282-1.835 3.704-4.492 6.624-6.592 10.134-2.361 3.968-4.625 7.839-7.414 11.512-4.724 6.232-8.132 13.348-12.594 19.809-2.361 3.412-4.591 6.952-7.149 10.232-2.754 3.51-4.855 7.149-7.118 10.923-2.164 3.639-5.148 6.592-7.608 9.97-3.375 4.724-6.659 9.216-10.791 13.315-3.375 3.347-6.297 6.922-9.445 10.463-2.919 3.282-7.313 6.592-10.823 9.249-2.689 2.068-5.543 4.002-8.329 5.969-1.706 1.183-3.544 2.262-5.15 3.544-2.295 1.804-4.79 2.984-7.117 4.689-3.348 2.49-6.234 5.116-9.38 7.872-5.019 4.394-10.758 8.132-16.037 12.201-7.937 6.101-15.971 12.397-24.499 17.612-2.362 1.442-4.462 3.181-6.791 4.558-2.36 1.377-4.394 3.311-6.789 4.591-1.641 0.852-3.443 1.312-5.051 2.231-2.035 1.149-3.575 2.397-5.74 3.282-4.33 1.771-7.905 4.593-12.331 6.166-4.593 1.641-9.15 3.575-13.809 5.051-2.687 0.854-5.443 1.085-8.1 1.835-2.493 0.691-4.79 1.84-7.348 2.327-2.034 0.388-4.066 0.657-6.065 1.312-2.132 0.691-4.462 0.885-6.528 1.706-4.394 1.706-9.214 1.97-13.61 3.608-1.706 0.621-3.049 1.411-4.855 1.84-1.903 0.432-3.803 0.787-5.641 1.411-3.018 1.079-5.904 1.344-9.017 1.934-2.723 0.527-5.15 1.706-7.937 2.004-2.23 0.215-4.33 0.691-6.559 1.113-8.561 1.706-16.922 4.167-25.286 6.527-2.362 0.657-4.754 0.722-7.084 1.248-2.558 0.556-4.986 1.541-7.643 1.934-3.443 0.523-2.295-1.706-2.753-4.232-0.822-4.492-1.28-8.855-1.28-13.413-0.032-4.921 0.492-9.838 0.689-14.759 0.059-2.425 0.754-4.789 0.787-7.217 0.032-3.347 0.394-6.592 0.623-9.937 0.163-2.721 0.163-5.412 0.592-8.132 0.329-2.198 0.82-4.462 0.951-6.69 0.163-3.116-0.032-6.329-0.032-9.478 0.032-6.198-0.917-12.071-1.836-18.169-0.461-3.181-0.059-6.297-0.983-9.38-0.264-0.955-0.492-1.576-0.293-2.49 0.264-1.149 0.623-0.984 1.215-1.84 0.199-0.259 0.459-0.691 0.722-1.149 0.427-0.032 0.852 0.032 1.313 0 3.28-0.388 6.592-1.118 9.872-1.576 2.689-0.345 5.379-0.345 8.067-0.621 2.886-0.345 5.74-1.279 8.593-1.671 2.689-0.388 5.347-0.756 8.002-1.048 3.018-0.345 5.609-1.442 8.495-2.198 3.608-0.919 7.248-1.771 10.857-2.721 7.215-1.835 15.087-3.148 21.054-7.937 1.903-1.512 3.543-3.375 5.182-5.15 1.213-1.344 1.377-0.787 0.852-2.198-0.59-1.606-1.969-2.954-2.789-4.427-1.049-1.869-1.672-3.904-2.658-5.805-1.444-2.689-2.493-4.953-3.608-7.807-0.951-2.49-2.165-4.953-3.378-7.282-0.983-1.905-1.868-1.541-3.706-0.885-2.592 0.919-5.019 2.229-7.545 3.445-1.311 0.657-2.262 0.852-3.706 1.113-2.1 0.345-4.066 1.377-6.067 2.099-4.231 1.576-8.526 2.296-12.856 3.608-4.79 1.476-9.773 2.721-14.724 3.477-3.312 0.527-6.756 0.626-10.101 1.020-4.691 0.556-9.315 1.641-14.006 2.361-2.132 0.345-4.263 0.691-6.395 1.085-16.988-0.722-34.043 0.592-51.032 0.044-4.689-0.174-9.61-1.113-14.268-1.835-2.198-0.345-4.362-1.015-6.559-1.149-2.657-0.129-5.311 0.215-7.969-0.085-9.216-1.178-18.432-2.656-26.468-7.61-4.165-2.555-8.626-4.689-12.89-7.053-2.296-1.279-4.396-2.819-6.725-4.067-3.608-1.97-6.658-4.755-10.264-6.658-3.608-1.869-6.92-4.067-10.692-5.576-5.445-2.164-11.020-3.868-16.564-5.74-7.018-2.327-14.956-3.052-21.089-7.741 0.329-2.296 1.541-4.591 2.919-6.723 0.491-0.691 1.016-1.377 1.476-2.099 1.737-2.591 3.968-4.724 5.969-7.118 0.82-0.95 1.573-1.934 2.36-2.884 2.395-2.198 4.658-4.46 6.922-6.755 2.723-2.721 5.707-5.116 8.43-7.772 4.167-4.131 7.149-9.15 10.658-13.839 0.754-0.984 1.541-1.934 2.362-2.884 0.885-1.020 1.836-2.035 2.753-3.052 2.263-2.591 4.068-5.508 6.624-7.807 1.215-1.113 2.263-2.133 3.28-3.445 0.362-0.432 0.756-0.821 1.116-1.214 0.492 0.621 0.951 1.279 1.476 1.869 2.886 3.212 6.689 5.935 9.97 8.756 3.017 2.591 6.232 4.888 9.51 7.151 3.576 2.462 6.952 5.312 10.628 7.608 3.478 2.198 7.313 4.037 10.988 5.936 5.116 2.689 11.25 3.968 16.957 4.789 4.46 0.621 8.79 0.215 13.282 0.432 1.18 0.044 2.46 0.044 3.575 0.523 2.723-3.477 3.803-8.364 6.035-12.136 1.903-3.282 4.132-6.329 5.609-9.838 0.461-1.020 1.541-3.212 1.444-4.427-4.232-0.388-8.528-2.397-12.629-3.375-6.395-1.576-12.102-4.067-18.168-6.624-4-1.706-7.872-3.575-11.611-5.772-3.608-2.133-6.624-4.951-10.134-7.182-4.297-2.789-8.299-5.871-12.396-8.954-2.067-1.576-4.265-2.884-6.395-4.261-0.527-0.756-1.018-1.476-1.476-2.035-0.787-0.984-1.673-1.905-2.528-2.854 0.137-0.492 0.264-0.984 0.329-1.641-1.444-1.377-2.592-3.018-4.036-4.427-1.541-1.279-3.114-2.527-4.658-3.774-1.442-1.606-2.753-3.311-3.935-5.15-4.132-5.508-9.083-10.33-13.413-15.71-1.999-2.49-3.245-5.116-4.951-7.772-1.313-1.998-3.050-3.645-4.232-5.74-2.198-3.904-4.297-7.968-6.297-11.969-1.149-2.231-1.51-4.789-2.329-7.183-1.149-3.282-2.329-6.592-3.115-10.004-1.737-7.641-1.18-15.611-1.969-23.353-0.592-5.639-0.163-11.512-0.163-17.185 0-4.033 0.592-8.561 0-12.528-2.658-1.248-5.904-1.576-8.723-2.397-2.755-0.984-5.576-1.804-8.462-2.462-1.51-0.174-2.984-0.523-4.427-1.015-0.82-0.462-1.606-0.885-2.427-1.344-0.656-0.174-1.344-0.174-1.999-0.044-0.885-0.259-1.049-1.020-2.132-0.821-1.476 0.303-3.477 3.311-4.165 4.297-1.476 2.262-1.838 4.986-3.019 7.348-1.114 2.229-1.934 4.167-2.36 6.624-0.917 5.084-1.18 9.546-1.28 14.726-0.032 2.721 0.887 4.689 1.313 7.313 0.091 1.248 0.163 2.462 0.228 3.704 0.557 1.671 1.182 3.347 1.936 4.953 1.803 5.508 3.017 11.185 5.017 16.628 1.018 2.721 1.28 5.543 2.263 8.233 1.313 3.544 3.017 6.952 4.396 10.497 1.77 4.558 4.297 8.691 6.363 13.119 2.132 4.593 2.984 9.806 6.101 13.874 4.101 5.377 7.282 11.447 11.939 16.365 2.593 2.721 3.738 6.232 6.264 8.952 1.706 1.804 3.708 3.218 5.61 4.789-0.329 0.432-0.657 0.787-0.953 1.178-5.707 7.839-10.628 16.269-17.219 23.385-6.789 7.346-13.905 14.167-22.040 20.006-5.576 4.002-10.396 8.198-14.891 13.347-1.215-1.442-2.46-2.819-3.642-4.261-2.687-3.246-5.377-6.461-7.674-10.037-1.641-2.555-3.085-5.246-4.822-7.74-3.017-4.362-6.166-8.429-8.821-13.085-1.606-2.789-3.050-5.74-4.756-8.496-1.639-2.659-3.935-4.855-5.544-7.61-2.689-4.527-5.017-9.281-7.837-13.709-1.969-3.052-4.066-6.067-5.576-9.38-1.476-3.148-2.723-6.494-4.362-9.544-2.491-4.623-5.544-9.052-8.233-13.61-1.442-2.425-2.984-4.789-4.394-7.215-1.476-2.527-2.198-5.346-3.543-7.905-2.755-5.347-4.394-11.382-5.773-17.25-1.969-8.265-4-17.186-4.263-25.812 1.671 0 3.312-0.085 4.886-0.303 0.69-3.148 0.059-7.215 0.059-10.431 0-3.282 0-6.559 0-9.838 0-9.347 0.983-18.561 2.622-27.777 0.557-3.218 0.887-6.329 0.983-9.576 0.137-3.608 0.852-6.723 1.246-10.3 0.953-8.496 3.511-16.398 6.002-24.598 1.969-6.429 3.869-12.79 5.246-19.382 0.394-1.934 1.772-4.329 1.181-6.363-3.181-0.787-6.624-0.492-9.808-1.377-2.329-0.686-4.658-1.606-7.018-2.229-4.036-1.048-8.462 0.621-12.528 0.592-2.295 0-2.46 0.174-3.28 2.296-1.28 3.477-1.903 7.348-3.509 10.693-2.067 4.232-4.887 7.937-6.624 12.364-0.557 1.411-0.427 2.689-0.82 4.167-0.822 3.049-2.821 5.543-3.509 8.525-0.852 3.738-2.067 7.511-3.348 11.119-1.573 4.396-2.034 8.724-2.952 13.252-1.442 7.182-0.427 14.89 0.917 22.072 0.557 3.083 1.28 6.363 2.165 9.347 0.822 2.789 1.313 5.574 2.067 8.364 0 0.085 0.059 0.215 0.109 0.303-0.032 0-0.059 0-0.137 0-6.299 0-12.498-0.787-18.762-0.722-4 0.044-7.872-0.458-11.838-0.657-5.838-0.303-11.676-0.032-17.479-0.044-9.019 0-18.006 0-27.025 0h-20.626c-1.247 0-5.773 0.756-6.725-0.215-0.656-0.657-0.091-3.738-0.091-4.624 0-2.133 0-4.297 0-6.429 0-5.805 0.228-11.215 1.082-16.957 2.296-15.94 8.691-30.993 15.251-45.586 4.167-9.216 8.593-18.465 12.233-27.878 2.362-6.037 4.986-11.906 7.509-17.843 2.558-6 4.494-12.299 7.348-18.168 4.101-8.462 7.479-17.219 11.447-25.682 2.789-5.935 4.79-12.233 8.102-17.908 1.18-1.97 2.723-3.738 3.772-5.772 1.476-2.954 2.821-5.116 5.116-7.543 5.904-6.233 10.365-13.709 16.365-19.975 6.954-7.215 13.809-15.283 18.662-24.107 1.999-3.608 4.101-7.118 6.133-10.658 1.311-2.262 3.149-4.56 4.099-6.988 0.887-0.174 2.296 1.442 2.854 1.934 2.886 2.397 5.508 5.084 7.676 8.167 1.803 2.527 3.477 5.15 5.311 7.641 2.46 3.282 5.246 6.233 7.509 9.642 4.036 6.198 8.528 11.611 13.020 17.449 3.869 1.541 7.118 3.839 9.741 6.658 0.983-0.345 1.969-0.686 2.984-0.984 1.969-2.035 4.263-3.803 6.887-5.181 2.196-3.375 4.986-6.33 8.561-8.528 1.706-3.018 3.772-5.805 6.461-8.034-1.311-1.905-2.558-3.868-4.036-5.675-1.442-1.771-3.114-3.347-4.591-5.082-1.575-1.804-3.018-3.639-4.691-5.379-1.803-1.869-3.837-3.049-5.87-4.623-8.888-6.887-17.711-14.333-25.221-22.73-2.263-2.527-4.754-4.624-7.215-6.887-1.936-1.804-3.642-3.803-5.48-5.639 0.362-0.388 0.722-0.787 1.181-1.178 0.983-0.821 2.262-1.020 3.411-1.61 2.362-1.149 4.658-2.49 7.018-3.671 4.658-2.327 8.757-5.478 13.186-8.2 1.672-1.015 3.673-1.736 5.508-2.425 2.592-0.984 5.019-2.262 7.509-3.412 6.821-3.148 14.333-5.279 20.695-9.38 5.281-3.412 10.33-7.149 15.645-10.527 5.116-3.246 11.054-5.15 16.66-7.378 2.624-1.048 5.084-2.296 7.676-3.445 2.493-1.085 5.051-1.739 7.479-3.018 3.245-1.706 6.264-3.218 9.741-4.492 4.396-1.61 8.331-4.033 12.365-6.395 4.855-2.789 10.101-4.658 15.152-7.020 4.689-2.198 9.64-3.412 14.463-5.28 4.558-1.804 8.987-3.709 13.709-4.986 7.084-1.9 13.97-4.033 21.316-4.722 6.461-0.592 12.76-1.048 19.251-1.085 15.414 0 30.83 0 46.244 0 13.12 0 26.566-0.885 39.553 1.085 6.035 0.919 12.201 1.771 18.233 2.397 6.821 0.691 13.61 1.706 20.401 2.754 4.724 0.691 9.15 1.641 13.94 1.739 3.215 0.032 6.262 0.259 9.413 0.885 5.051 1.020 9.64 2.327 14.463 4.102 6.429 2.361 12.594 5.116 18.694 8.167 5.969 3.018 11.939 5.805 18.038 8.526 3.115 1.377 6.429 2.262 9.511 3.704 2.622 1.248 5.281 2.296 8.002 3.282 3.378 1.242 6.297 2.819 9.445 4.525 3.179 1.706 6.527 3.052 9.64 4.92 3.608 2.166 7.378 4.232 10.823 6.69 4.265 2.984 8.331 6.234 12.856 8.79 10.955 6.232 22.302 11.939 33.027 18.597 5.51 3.412 11.447 6.363 15.546 11.543 3.375 4.266 6.592 7.61 8.757 12.695 0.588 1.312 2.262 3.51 1.671 5.017-0.345 0.919-1.377 1.279-2.164 1.771-1.113 0.722-1.869 1.641-2.819 2.527-5.019 4.427-8.987 9.445-13.348 14.497-3.773 4.329-8.067 8.102-12.43 11.838-2.755 2.361-5.969 4.362-8.528 6.922-3.378 3.412-6.232 7.183-9.874 10.363-5.87 5.15-11.642 10.628-17.154 16.168-1.902 1.905-4.263 4.167-5.443 6.624-0.527 1.113-0.427 2.035-0.427 3.246-10.693-4.921-14.923 0.044-17.318 6.429-0.722 2.004-1.969 3.968-1.049 5.971 0.722 1.641 2.659 2.854 3.839 4.167 4.362 4.921 9.017 9.642 13.085 14.857 2.723 3.51 6.065 6.395 8.886 9.773 3.509 4.167 5.641 9.216 8.067 14.071 3.803 7.575 6.66 15.609 10.497 23.186 3.149 6.196 6.395 12.299 9.413 18.563 4.986 10.264 9.052 21.483 11.215 32.764 1.804 9.315 0.983 19.186 1.049 28.633 0.032 5.116-0.394 10.363-0.82 15.448-0.885 0.527-2.132 0.174-3.115 0.129-1.606-0.032-3.215 0-4.82 0-8.691 0-16.759 0.691-25.418 2.164-8.265 1.411-16.365 2.004-24.729 2.361-7.741 0.345-15.414 1.048-23.156 1.279-11.447 0.345-23.221 0.345-34.47 2.884-0.756 1.934-0.822 4.362-1.149 6.461-0.592 3.51-0.82 7.051-1.114 10.593-0.427 5.838-1.313 11.577-1.903 17.383-0.722 6.854-2.329 14.135-4.197 20.759-0.887 3.212-1.903 6.395-2.821 9.61-0.394 1.377-1.084 3.311-0.787 4.821 0.492 2.656 4.263 3.51 6.624 4.46 6.723 2.724 13.774 4.396 20.663 6.69 1.411 0.492 4.623 2.425 6.035 1.214 1.016-0.885 1.803-3.544 2.329-4.789 1.705-3.868 3.018-8.167 5.443-11.676 2.263-3.311 3.64-7.084 5.74-10.462 0.527-0.885 1.444-1.506 2.067-2.327 1.28-1.706 2.067-3.968 3.149-5.74 2.427-3.968 4.593-7.84 6.592-12.005 1.215-2.625 2.528-5.084 3.576-7.741 0.722-1.804 2.13-3.477 1.969-5.543 2.789-0.462 5.838-0.044 8.657-0.044 2.952-0.032 5.61 0.215 8.496 0.691 3.346 0.588 6.92 1.377 10.33 1.506 3.575 0.129 7.084-0.174 10.658 0.303 5.116 0.621 10.232 1.706 15.414 1.869 5.051 0.174 10.167-0.032 15.217-0.032h7.346c-0.199 1.771-0.358 3.544-0.59 5.346-0.852 6.33-1.803 12.693-2.624 19.023-1.346 10.461-2.789 20.924-4.132 31.389-0.362 2.854-0.885 5.544-1.606 8.364-0.592 2.327-0.657 4.789-1.379 7.051-0.623 1.934-1.705 3.544-2.23 5.478-0.394 1.541-0.787 3.083-1.28 4.625-0.951 3.018-1.903 5.87-3.738 8.525-1.87 2.754-4.462 4.986-6.494 7.643-2.46 3.246-4.658 6.789-7.215 9.97-1.114 1.344-2.952 3.575-4.462 4.623-0.657 0.458-1.838 0.432-2.1 1.113 2.198 1.641 6.922 1.214 9.478 1.706 5.347 1.079 10.888 3.018 16.103 4.657 2.592 0.821 5.215 1.344 7.837 2.099 2.493 0.686 4.658 1.998 7.085 2.785 1.279 0.388 1.214 0.492 2.099-0.657 1.606-2.198 2.527-5.412 3.639-7.872 1.671-3.803 2.229-7.807 3.347-11.772 0.756-2.591 1.739-5.051 2.689-7.575 0.787-2.166 0.95-4.297 1.512-6.528 1.214-5.082 2.689-9.969 4.362-14.89 1.541-4.492 2.854-9.61 3.282-14.333 0.458-5.412 2.133-10.693 2.919-16.070 0.492-3.375 0.691-6.592 0.657-10.004-0.032-5.181 0.174-10.395 0.032-15.611-0.129-4.788-0.657-9.184-0.215-13.971 0.174-1.739 0.215-3.375 0.129-5.051 0.523 0 1.079 0.032 1.476-0.129 0.492-6.624 0-13.514 0-20.17 0-2.854 0.174-5.772 0-8.659-0.085-2.198-0.95-4.394-1.279-6.658-0.621-4.033-1.214-8.167-1.804-12.233-0.388-2.819-0.621-5.641-1.214-8.397-0.691-3.282-2.035-6.363-2.954-9.544-2.327-8.034-3.347-16.365-5.019-24.532-0.492-2.229-0.621-4.196-0.686-6.46-0.044-2.361-0.854-4.558-1.512-6.789-0.821-2.854-1.541-5.675-2.296-8.528-1.541-6.067-4.196-11.642-6.755-17.284-1.149-2.49-2.49-5.084-3.381-7.641-3.049-8.659-5.87-17.186-11.545-24.598-2.885-3.803-6.461-7.084-9.347-10.923-1.377-1.84-2.854-3.575-4.231-5.377-1.049-1.312-1.87-2.754-3.413-3.51 1.606-1.706 4.462-2.919 6.364-4.362 1.476-1.113 2.526-2.527 4.263-3.412 3.443-1.771 5.609-4.394 8.659-6.789 3.803-2.954 7.772-5.609 11.347-8.888 4.625-4.232 7.509-9.184 11.316-14.003 1.934-2.49 4.167-4.757 6.067-7.313 2.229-3.018 4.067-6.264 6.198-9.347 6.166-8.921 14.659-16.66 22.597-24.041 2.397-2.262 4.691-4.593 6.988-6.952 1.641-1.706 4.394-3.116 5.805-5.019-3.868-7.412-6.461-15.514-10.363-22.926-5.116-9.806-11.317-18.957-21.122-24.694-2.854-1.675-5.412-3.375-7.807-5.74-1.739-1.771-3.375-3.477-5.312-5.017-4.789-3.709-9.939-6.857-14.956-10.199-13.612-9.184-26.204-19.712-39.718-28.994-13.413-9.214-27.55-17.021-42.473-23.482-6.92-3.018-13.774-6.168-20.825-8.888-2.427-0.919-4.822-1.97-7.248-2.889-4.232-1.576-8.659-2.296-12.989-3.575-12.365-3.639-24.76-8.233-37.585-9.97-6.526-0.885-13.119-1.048-19.579-2.296-5.51-1.079-11.054-1.869-16.595-2.884-6.988-1.279-13.874-2.789-20.924-3.774-3.083-0.432-6.067-1.113-9.019-2.198-1.934-0.691-3.837-1.576-5.904-1.9-3.083-0.462-6.429-0.044-9.511-0.085-3.706 0-7.378 0-11.117 0.215-7.774 0.388-15.971 0-23.68 1.214-13.481 2.133-26.894 4.329-40.474 6-3.477 0.458-6.92 0.955-10.396 1.411-2.035 0.259-4.034 0.854-6.065 1.149-2.82 0.432-5.805 0.345-8.593 1.048-10.593 2.754-21.646 3.904-32.304 6.756-4.953 1.312-9.874 2.854-14.825 4.297-3.511 1.015-7.053 1.97-10.463 3.282-4.099 1.606-7.969 3.774-11.969 5.609-5.609 2.527-10.527 6.102-16.365 8.2-5.379 1.934-10.3 4.623-15.317 7.378-5.379 2.919-10.693 5.87-16.234 8.46-6.494 3.018-11.905 6.856-17.809 10.758-12.791 8.462-26.204 15.841-39.652 23.156-5.281 2.854-11.15 5.377-15.71 9.315-3.608 3.083-5.805 6.396-8.528 10.134-0.427-0.259-0.82-0.556-1.246-0.787-1.772-1.015-3.246-0.984-4.921 0.044-4.658 2.889-8.856 6.725-12.791 10.462-3.348 3.181-7.313 5.182-10.497 8.626-2.46 2.591-4.754 6.592-6.461 9.707-1.803 3.347-4.232 6.166-6.133 9.445-2.035 3.51-4.689 6.886-7.28 10.004-5.773 7.018-13.839 12.725-17.94 20.958-2.198 4.394-5.707 7.742-7.641 12.365-1.737 4.098-4.198 7.641-6.461 11.477-4.887 8.233-8.528 16.432-11.382 25.581-1.706 5.51-3.905 10.988-5.182 16.629-1.114 4.986-2.657 9.347-4.427 14.137-0.754 1.998-0.787 4.131-1.541 6.101-0.689 1.804-1.999 3.246-2.789 5.051-1.999 4.689-3.738 9.511-5.74 14.202-3.738 8.691-6.821 17.81-9.315 26.892-1.969 7.183-4.263 14.268-5.838 21.548-0.722 3.212-0.983 6.461-1.969 9.64-0.754 2.361-1.606 4.625-2.196 7.020-0.427 1.706-1.247 3.212-1.313 5.017-0.059 2.656-0.394 5.019-0.852 7.641-1.213 7.378-2.328 14.792-3.411 22.138-0.137 0.919-0.623 1.641-0.787 2.594-0.394 2.462 0.059 5.377 0.059 7.903v13.053c0 2.462-0.264 4.427-0.689 6.791-0.329 1.934-0.032 4.167-0.032 6.101v10.101c0 1.344-0.091 2.819-0.163 4.297-1.87 0.085-2.657-0.032-2.755 2.296-0.293 6.234 0.163 12.498 0.059 18.727-0.163 7.28-1.114 14.268-0.137 21.581 1.246 9.675 3.543 18.858 6.363 28.205 2.854 9.38 5.707 18.922 9.315 28.041 2.165 5.574 3.477 11.447 6.035 16.856 1.541 3.282 2.854 6.461 3.869 9.904 0.592 1.97 1.049 4.067 2.132 5.838 1.803 2.919 2.984 5.87 4.46 8.952 0.754 1.541 1.641 2.919 2.526 4.362 0.657 1.113 1.215 3.083 2.067 3.968 0.917 0.95 1.016 0.756 2.622 0.756 0.592 0 1.149-0.032 1.706-0.044 0.722 1.706 1.444 3.412 2.132 5.116 2.165 5.478 4.951 10.33 7.706 15.48 3.149 5.969 7.509 11.479 11.611 16.826 3.543 4.623 6.133 9.904 9.741 14.495 2.001 2.56 4.232 4.953 6.067 7.676 2.493 3.639 4.362 7.61 6.887 11.215 3.346 4.724 6.559 9.677 10.101 14.268 2.035 2.625 4.396 4.953 6.299 7.708 2.263 3.311 4.132 6.658 6.658 9.806 3.869 4.822 7.215 9.939 11.577 14.398 5.478 5.576 10.103 12.071 15.906 17.317 5.377 4.82 11.447 9.019 17.185 13.449 2.427 1.905 5.248 3.212 7.444 5.377 1.87 1.835 3.708 3.445 5.773 5.084 2.659 2.133 5.051 4.525 7.643 6.789 3.346 2.954 6.887 5.51 10.035 8.691 3.738 3.803 7.706 7.444 11.25 11.447 1.541 1.736 2.886 3.868 4.623 5.478 1.541 1.411 3.443 2.425 4.986 3.937 9.576 9.249 20.598 17.316 32.436 23.484 5.74 2.984 11.382 4.656 17.514 6.461 7.118 2.099 14.038 4.886 21.22 6.592 3.378 0.821 6.395 1.869 9.642 3.083s6.624 1.506 9.97 2.327c1.18 0.303 2.395 0.787 3.575 0.984 1.018 0.174 2.395-0.129 3.413 0.044 1.082 0.215 2.592 1.248 3.772 0.821 2.165-0.756 1.87-6.101 2.034-7.903 0.592-5.871 2.132-11.971 4.232-17.481 0.787-2.099 1.215-4.232 1.803-6.494 0.199-0.821 1.084-2.754 1.116-3.544 0.091-1.411-1.050-1.804-2.1-2.49-11.447-7.217-24.107-12.005-36.174-18.104-3.706-1.869-7.772-3.018-11.611-4.591-4.263-1.771-8.591-3.412-12.89-5.182-3.216-1.312-6.264-2.984-9.445-4.329-1.772-0.756-3.673-1.149-5.508-1.804-2.724-1.020-5.084-2.425-7.708-3.774-3.28-1.706-6.854-2.819-10.069-4.557-2.657-1.442-5.082-3.311-7.608-4.986-5.773-3.868-11.808-7.183-17.744-10.789-7.837-4.756-16.005-9.808-23.023-15.711-3.312-2.754-6.461-5.641-9.808-8.329-3.509-2.854-5.74-6.101-8.591-9.576-11.808-14.398-23.353-29.059-33.289-44.832-11.382-18.072-26.37-33.683-37.52-51.886-4.427-7.248-8.299-15.185-11.707-22.957-1.672-3.738-3.216-7.575-4.887-11.283-0.754-1.606-2.1-3.212-2.295-4.986-0.199-0.044-0.362-0.085 1.606-0.854-0.754 0.032-1.606 0.492-2.425 0.955-0.137-0.821-0.293-1.671-0.427-2.49-1.444-8.691-4.986-16.398-7.313-24.795-4.101-14.724-6.952-29.387-9.347-44.472-0.722-4.593-0.983-9.216-1.606-13.839-0.394-2.889-1.247-5.675-1.313-8.626-0.091-4.201 0.032-8.462 0.059-12.659 0-1.771-0.199-3.477-0.394-5.181 2.723 0.032 5.443 0.032 8.132-0.215 5.707-0.458 11.151-1.377 16.892-1.344 6.624 0.044 13.282 0.032 19.94 0.032h29.617c1.999 0 4.034-0.085 6-0.032 4.855 0.174 11.545 3.709 15.742-0.388 0.137 0.215 0.329 0.345 0.592 0.303 0.951-1.476 3.246-0.388 4.101 0.492 1.279 1.279 1.573 3.673 1.903 5.377 0.329 1.835 0.656 3.575 0.689 5.444 0.032 2.656 0.983 5.347 1.346 7.969 1.213 8.364 2.46 16.595 4.788 24.731 2.593 9.053 5.019 18.103 7.937 27.058 2.035 6.33 5.051 12.496 7.837 18.495 1.575 3.311 3.28 6.69 5.51 9.576 3.215 4.196 5.214 9.315 8.1 13.743 2.526 3.904 5.248 7.74 7.937 11.543 3.803 5.478 8.396 10.3 12.136 15.808 2.13 3.116 4.754 6.264 7.215 9.15 2.23 2.656 4.297 5.379 6.69 7.937 2.065 2.231 4 4.558 5.935 6.887-0.689 0.821-1.411 1.576-2.556 1.905 3.149 4.953 8.495 8.856 12.725 12.825 3.869 3.575 7.872 6.986 12.035 10.232 4.494 3.445 9.415 6.395 14.006 9.742 5.707 4.131 11.577 8.002 17.514 11.808 8.462 5.443 16.922 10.757 26.239 14.56 8.691 3.544 17.843 6.035 26.892 8.364 8.593 2.231 17.284 4.102 25.812 6.527 4.951 1.411 9.904 3.709 15.022 4.297 5.281 0.621 10.628 0.556 15.874 1.442 4.101 0.686 8.102 1.804 12.201 2.555 3.245 0.626 6.658 0.821 9.872 1.512 1.311 0.259 2.886 0.787 3.246 2.164 0.525 1.869-0.137 4.558-0.557 6.395-1.049 4.658-2.165 9.053-2.46 13.875-0.362 5.935-1.804 11.642-2.526 17.545-1.541 12.135-1.18 24.532-1.936 36.732-0.983 15.941-4.921 31.78-4.886 47.754 0 4.033-0.032 9.806 3.542 12.462 1.149 0.852 2.919 0.852 4.199 1.344 2.329 0.852 3.64 0.919 6.264 0.984 4.754 0.044 9.51 0.722 14.298 0.756 4.492 0.044 9.478 0.492 13.94-0.259 12.987-2.296 26.401-3.575 38.962-7.772 6.559-2.164 13.085-4.102 19.808-5.773 5.019-1.279 10.134-2.035 15.185-3.181 8.921-2.035 18.104-2.789 27.156-3.937 5.544-0.691 11.054-1.506 16.53-2.591 8.43-1.606 16.431-4.557 24.629-7.018 8.626-2.591 17.219-5.281 25.616-8.626 6.166-2.462 12.102-5.675 18.038-8.659 4.623-2.296 8.79-4.986 12.825-8.198 5.347-4.196 11.447-7.414 16.791-11.611 9.478-7.479 19.154-14.694 29.155-21.548 7.872-5.412 14.694-12.233 21.876-18.532 4.557-4.033 9.51-7.706 13.839-12.035 4.067-4.067 7.741-8.496 11.807-12.629 3.375-3.412 6.166-7.118 9.38-10.658 5.805-6.395 11.643-12.725 17.515-19.089 2.462-2.689 4.261-5.837 6.755-8.496 3.116-3.375 6.33-6.886 9.053-10.593 1.706-2.262 3.148-4.82 4.754-7.183 2.035-3.049 4.266-6.1 6.168-9.249 1.869-3.116 3.282-6.461 5.083-9.61 1.934-3.412 4.362-6.264 5.675-10.004 1.346-3.839 3.477-7.414 4.986-11.185 1.97-4.986 4.131-9.872 5.508-15.022 1.442-5.379 3.246-10.693 5.084-15.939 2.133-6.002 4.462-11.807 6.953-17.646 2.785-6.624 5.87-12.922 8.132-19.778 2.397-7.183 3.839-14.333 4.888-21.876 0.686-4.755 1.344-9.51 1.804-14.298 0.462-5.247 1.706-10.365 2.198-15.611 0.523-5.413 1.671-10.462 2.754-15.776 0.821-3.968 0.984-8.231 1.248-12.233 0.492-7.543 0.044-15.184-0.556-22.728z"></path>
    </svg>