<svg xmlns="http://www.w3.org/2000/svg" viewBox="24.446 -17.049 964.909 1057.052">
    <path fill="#000000" d="M849.956 706.496c-13.651-2.746-26.548-4.089-40.421-3.703 0.106-2.259 2.359-3.358 4.049-4.274 7.832-4.172 16.539-7.181 25.204-8.931 7.181-1.426 14.423-1.528 21.646-1.771 0.362-3.358 0.427-8.056-1.181-11.207l-2.136-3.358-3.499-4.493c-3.172-2.788-7.832-2.218-11.676-2.931-5.635-1.041-11.454-1.687-17.17-1.588-2.907 0.043-5.797 0.238-8.707 0.415-10.801-2.829-23.209-4.291-34.012-2.788-11.555 1.588-22.622 5.331-33.261 9.704-7.691 3.173-14.119 8.056-21.542 11.594-8.544 4.071-16.356 5.794-24.311 11.312-16.578 11.513-35.213 20.159-51.587 31.956-9.297 6.734-18.307 14.628-26.405 23.191-4.049 2.218-7.894 5.349-10.843 8.464-2.969 3.090-6.53 5.98-9.051 9.439-2.747 3.761-4.739 8.073-7.405 11.9-2.705 3.905-5.736 7.385-7.995 11.655-1.77 3.376-3.927 5.693-6.572 8.362-1.934 1.931-5.105 4.089-6.429 6.489l-0.71 2.485-3.988 4.006-2.583 2.561-0.189 0.874-0.125-0.238-1.465-0.874-0.065 4.417-0.328 1.242-0.021 2.829-0.487 3.459 0.934 2.829c0.369 2.134-0.083 4.636 1.159 6.653l4.781 4.701c2.136 1.421 6.489 1.218 9.459 1.302l0.261 0.238 0.487-2.074c0.915-2.889 2.318-3.727 4.251-5.943 2.156-2.52 3.336-5.289 5.756-7.691 4.823-4.779 7.995-11.165 12.47-16.253 4.883-5.509 10.374-10.517 15.481-15.827 3.255-3.376 6.875-6.182 10.66-9.010 3.968-2.947 7.526-6.247 11.575-9.072 4.515-3.173 8.238-6.531 13.282-8.951 4.557-2.181 8.687-4.191 13.387-6.022 5.348-2.116 10.557-4.719 16.11-6.307 3.193-0.898 6.429-1.421 9.54-2.561 9.521-3.459 19.427-3.905 29.68-3.399-1.87 1.546-2.765 2.663-4.922 3.418-2.666 0.958-3.945 2.139-5.98 4.214-3.255 3.353-6.978 6.895-11.067 9.254l-5.534 2.645c-2.604 1.629-4.964 3.761-7.933 4.761-5.718 1.95-9.97 5.307-15.035 8.545-2.602 1.671-4.841 3.727-7.363 5.474-2.501 1.747-5.309 2.989-7.669 4.963-2.441 2.033-4.291 4.599-6.835 6.51-2.644 1.973-5.105 3.803-7.363 6.185-5.696 5.943-11.615 11.452-16.396 18.165-3.378 4.761-7.467 8.971-10.722 13.873-2.583 3.886-4.72 8.056-7.22 11.861-1.159 1.771-1.852 3.845-2.542 5.836-0.977 2.788-2.501 5.005-3.703 7.63l-0.875 2.626c1.566 1.872 3.662 3.275 4.984 5.432 3.561 5.76 6.796 11.515 9.723 17.291l0.427 1.183c1.281 2.871 2.95 5.718 4.473 8.587 2.849 5.367 3.763 11.166 5.921 16.884 0.834 2.234 1.973 5.266 3.154 7.221 1.22 2.015 2.786 3.803 3.906 5.96l1.992 3.644-0.302 0.357-2.158 2.829-1.748 1.075-1.934 1.421 0.671 1.872 0.385 1.771c-0.328 1.629-0.487 3.376-0.286 5.432 0.469 4.921 2.644 6.614 6.143 10.031l0.875 0.874 2.239 2.015 0.148 0.042 3.721 0.815 3.785-0.119c5.98-0.535 11.982-0.916 17.801-2.377 7.525-1.913 15.318-2.871 22.925-4.618 4.7-1.075 9.235-2.443 14.098-2.931l4.515-0.755 5.187-1.403 4.7-0.612c4.291-1.183 8.48-2.645 12.835-3.619 4.109-0.939 8.28-1.872 12.347-2.931 4.476-1.177 9.033-2.418 13.365-4.048l5.329-1.913c3.093-1.082 5.918-2.645 8.991-3.787 5.371-1.991 10.926-4.029 15.807-6.957 4.027-2.443 8.463-3.821 12.695-5.901 5.918-2.912 12.083-5.391 18.065-8.197 6.447-3.031 12.692-6.471 18.897-9.967 5.797-3.256 11.962-5.801 17.698-9.135 4.151-2.418 8.463-4.576 12.734-6.774 4.515-2.317 8.382-6.183 12.47-9.134l5.248-4.071 5.309-3.745c2.258-2.234 4.416-4.599 6.633-6.856 1.605-1.645 3.132-3.048 4.963-4.391l3.112-2.931c2.707-3.661 2.197-8.298 1.852-12.754l-1.77-5.776-2.013-2.543-2.461-5.391c-1.22-2.46-1.425-4.761-4.515-5.658l-4.009-0.672-0.487-2.275c-1.239-4.066-2.135-8.177-3.112-12.266-0.875-3.625-1.953-7.284-2.461-10.944-1.099-7.812-3.213-15.827-5.229-23.518-1.992-7.709-4.72-15.257-7.139-22.884-1.323-4.172-2.725-8.32-4.374-12.369-1.159-2.912-1.995-6.103-3.499-8.85-2.95-5.474-4.434-11.494-7.099-17.045l-0.588-1.504c-3.275-0.63-6.55-1.225-9.804-1.872z"></path>
    <path fill="#000000" d="M601.4 102.761c-9.479-6.713-18.714-13.588-28.824-19.449-4.251-2.478-9.053-3.619-13.345-5.98-3.682-2.015-7.975-3.905-11.942-5.188-4.88-1.569-9.824-2.134-14.687-3.761-4.88-1.629-9.886-2.485-14.973-2.871-23.962-1.848-48.68-2.561-72.542 1.135-10.577 1.645-21.116 1.546-31.552 4.232-4.088 1.057-8.219 2.116-12.347 2.972l-4.883 0.357c-2.604 0.595-4.944 2.038-7.588 2.626-4.394 0.999-8.096 1.075-12.265 2.769-3.745 1.504-7.59 1.712-11.415 2.764-5.166 1.426-9.804 2.275-14.83 4.391-6.407 2.728-12.692 5.349-19.264 7.627l-4.333 1.996c-6.936 2.158-13.792 3.905-20.545 7.75-8.219 4.659-17.251 7.425-25.367 12.204-7.020 4.107-13.405 8.89-20.181 13.264-9.56 6.165-19.631 11.637-29.416 17.637-3.906 2.401-8.3 1.848-12.246 3.761-2.015 0.974-3.561 3.073-5.391 4.375-5.635 4.048-11.615 7.649-17.087 11.716-3.499 2.603-10.926 9.499-13.163 13.488l-0.996 3.334-2.279 1.83c-3.255 2.46-6.185 4.391-9.114 7.487-2.217 2.342-4.271 4.558-6.875 6.53-7.445 5.617-14.343 12.125-20.587 19.103-3.213 3.602-4.823 7.995-7.487 11.982-2.217 3.316-4.821 6.286-6.794 9.765-5.657 9.948-9.481 20.934-14.301 31.288-10.172 21.765-10.335 47.235-8.932 70.73 0.328 5.331 3.642 10.742 7.020 15.787l0.71 3.821c3.58 12.428 3.58 27.867 9.642 39.198 1.771 3.275 5.677 7.285 8.118 10.153 3.967 4.659 7.018 9.928 10.842 14.687 6.835 8.463 16.681 16.64 27.097 20.058 5.696 1.872 11.291 2.116 16.985 3.399 6.207 1.385 11.881 2.46 18.189 3.256 3.011 0.357 5.736 1.771 8.727 2.033 3.539 0.298 7.588-0.731 11.291-0.535 6.998 0.357 13.649-0.060 20.526 1.26 1.83 0.357 3.682 0.891 5.411 0.357 1.891 0.63 3.721 1.426 4.759 2.931l-0.792-2.686c2.237 0.298 4.616 0.595 5.166 0.238-1.323-2.585-3.682-3.969-5.147-6.428l-0.71-1.788 0.974 1.057c-2.237-6.123-5.573-11.921-7.953-18.023-2.239-5.718-3.46-9.948-6.998-15.015l-0.511-0.898c-1.524-4.417-2.523-8.483-3.213-13.548-0.71-5.146-2.337-10.253-3.721-15.419 0.065-4.131 1.323-8.32 2.422-12.268 1.992-7.139 2.826-14.748 5.105-21.765l2.666-5.13 0.588 2.746c1.201 4.375 1.22 8.971 2.807 13.183 1.383 3.678 3.885 6.631 5.411 10.271 3.093 7.445 4.841 14.81 8.789 21.931l1.645 3.535c1.018 3.157 2.158 6.307 3.561 9.46 5.92 13.343 14.404 25.67 19.834 39.198l0.043-0.916c-0.57-3.459-1.016-6.978-0.043-9.277l2.177-3.090 0.445-1.629 1.181-2.46c1.852-5.146 4.781-9.235 8.197-13.506 1.729-2.158 3.336-4.172 5.29-6.142l4.596-5.617c3.275-3.394 8.076-5.45 12.145-7.609l5.472-2.746c1.729-0.874 3.64-1.117 5.472-1.664 2.48-0.731 4.821-1.546 7.445-1.83l2.197 0.119-4.841 4.089-4.049 3.542-3.885 3.090c-6.288 5.248-11.718 11.757-15.728 19.020-1.321 2.418-2.38 4.779-3.457 7.323-1.383 3.316-3.356 6.305-4.759 9.6-1.12 2.645-2.828 5.919-3.213 8.769-0.286 2.033-0.511 3.905-0.977 5.937-1.016 4.357-1.669 8.769-2.299 13.181l-0.226 2.728c2.89 3.745 6.041 7.343 9.439 10.842 2.747 2.847 6.123 8.219 10.557 7.302 1.894-0.357 4.374-2.478 6.531-3.108 5.918-1.729 11.676-3.418 17.394-5.96 13.079-5.818 26.608-10.518 40.806-13.242 13.264-2.543 31.714-5.635 44.387-0.238-3.235 1.366-8.421-0.713-12.044-0.357-8.971 0.815-19.306 6.182-27.443 9.642-13.304 5.677-25.529 12.388-37.226 20.872-6.409 4.636-16.275 9.215-20.447 16.213-3.255 5.432-5.105 11.595-6.468 17.859-1.934 8.953-3.031 15.338-1.953 24.656 1.445 12.49-0.61 23.597 3.172 35.68 5.879 18.655 4.983 42.029 20.080 56.674-8.137-8.056-12.492-14.28-17.496-24.573-6.286-12.958-10.821-27.056-14.441-40.991-4.577-17.577-10.295-36.393-8.118-54.701 0.673-5.651 0.998-8.015-1.687-13.163-1.445-2.764-1.363-7.037-3.072-9.316-2.116-2.788-8.379-3.316-11.473-4.779-5.575-2.663-11.333-5.551-17.373-6.978-13.794-3.275-30.272-3.988-43.716-0.178-9.521 2.704-16.438 6.592-22.844 14.993-7.141 9.358-14.342 19.467-20.139 29.781-5.839 10.416-8.564 19.713-8.953 31.409-0.286 9.032-2.623 18.511-2.541 27.665 3.151 6.246 7.731 11.35 10.781 18.045 4.781 10.495 11.005 20.934 17.861 30.188 5.023 6.816 12.389 12.552 18.43 18.451 2.279 2.199 4.537 4.232 6.835 6.206 5.575 2.847 11.208 5.593 16.845 8.28 12.206 5.859 23.944 12.429 36.008 18.532 16.985 8.584 34.4 15.215 52.443 21.258 9.457 3.157 17.698 8.483 27.34 11.249 5.248 1.504 10.416 3.619 15.521 5.776 7.344 0.932 14.665 1.996 21.767 3.685 9.661 2.317 17.452 6.285 26.484 10.374 23.009 10.478 46.463 21.972 71.1 27.464 10.456 2.317 20.587 5.836 31.143 7.385 7.955 1.158 17.903 8.502 25.633 6.468 0.385-12.775 14.401-20.058 20.852-29.355 1.931-2.764 2.337-5.224 4.374-7.933 1.911-2.538 4.739-4.737 6.996-7.037 3.093-3.173 6.165-7.324 9.948-9.499 1.973-1.135 3.314-1.075 5.43-3.073l4.641-4.779c3.6-3.727 6.447-5.414 10.66-8.056 7.812-4.921 13.446-14.404 20.484-20.487 4.313-3.72 9.195-6.387 13.854-9.622 5.145-3.542 9.255-8.28 14.566-11.575 21.38-13.202 42.515-27.116 64.994-38.325 8.28-4.131 15.91-8.197 24.472-11.128 7.609-0.874 15.054-0.958 22.662-1.403 3.499-0.238 6.693 0.695 10.192 0.63 3.213-0.060 5.96-1.361 9.235-1.302 4.333 0.060 8.971 1.242 13.242 1.872 6.328 0.916 11.373-0.357 17.454 2.301 2.461 1.075 4.863 1.747 7.223 2.704 2.441 0.974 4.392 3.073 7.667 1.991 2.542-0.815 5.047-4.333 5.677-6.611 1.058-3.703-2.177-11.901-3.418-15.745-3.336-10.171-4.453-21.461-7.403-31.653-2.971-10.313-6.471-20.344-9.723-30.535-6.611-20.709-11.515-41.884-19.875-61.943-2.237-5.367-2.848-10.924-4.067-16.539l-1.199-4.417c-1.729-8.278-3.827-16.497-6.145-24.451-2.177-7.445-3.011-15.215-5.085-22.743-2.096-7.588-3.196-15.4-5.92-22.805-1.099-2.972-2.826-5.575-3.783-8.584-0.895-2.788-1.223-5.7-2.136-8.524-2.136-6.572-5.169-12.815-7.385-19.368-2.077-6.061-4.658-11.594-7.526-17.291-3.438-6.875-5.615-14.241-9.011-21.094-5.411-10.863-9.703-22.926-16.499-32.977-3.62-5.372-5.351-11.23-7.995-17.109-2.604-5.693-7.020-10.638-9.906-16.356-3.62-7.203-5.818-15.032-9.277-22.317-2.318-4.904-5.391-9.661-8.379-14.176-6.531-9.928-13.73-19.651-20.933-29.091-5.147-6.754-10.11-13.568-15.136-20.403-1.729-2.342-3.011-5.005-4.698-7.344-2.015-2.788-4.841-4.742-6.956-7.466-3.235-4.172-6.143-8.829-9.745-12.692-4.863-5.229-10.353-9.989-15.461-14.993-8.034-7.833-15.807-17.476-24.96-23.944z"></path>
    </svg>