<svg xmlns="http://www.w3.org/2000/svg" viewBox="37.658 23.252 963.045 976.764">
    <path fill="#000000" d="M831.27 427.877c0.083-0.443 0.19-0.893 0.287-1.305 4.78-1.403 5.801 0.955 9.248 3.316 3.892 2.646 4.718 4.051 4.816 9.153 0.060 3.602 0.576 7.909-0.253 11.448-0.831 3.572-3.828 7.303-5.678 10.429-1.658 2.774-3.156 5.642-5.228 8.163-2.454 2.933-5.547 4.941-8.068 7.909-2.326 2.741-4.051 3.666-7.397 5.102-6.282 2.678-12.784 5.261-19.227 7.623-5.898 2.168-12.627 2.36-18.112 5.036-8.643 4.242-18.080 4.051-26.719 7.845-10.235 4.56-21.747 7.111-31.408 12.979-9.598 5.837-19.865 10.875-29.014 17.441-5.327 3.828-10.841 7.975-15.977 12.055-3.38 2.678-6.090 6.123-9.788 8.418-5.897 3.666-10.46 6.568-15.401 11.64-2.774 2.836-5.515 6.152-8.674 8.577-2.106 1.626-4.335 2.423-6.216 4.271-3.030 2.966-5.612 6.379-8.098 9.79-3.698 5.070-8.447 9.662-11.194 15.43-2.009 4.176-2.009 8.899-3.826 13.17-1.626 3.828-3.761 6.858-4.562 11.064-1.434 7.464-2.36 14.825-4.304 22.223-0.67 2.551-1.658 12.055-4.527 13.712 1.148-2.201 1.689-4.912 2.741-7.269 2.837-6.407 6.822-12.914 10.204-19.1 5.642-10.299 12.369-20.217 20.247-28.95 5.261-5.837 9.759-12.341 15.975-17.282 3.221-2.108 6.282-4.432 9.214-6.983 2.454-3.127 5.228-5.993 8.288-8.577 8.484-6.443 19.037-11.99 28.666-16.611 12.914-6.216 25.828-5.005 39.571-6.699 11.926-1.464 23.594-0.573 35.582-1.148 5.993-0.32 11.545-1.532 17.602-1.658 7.142-0.121 14.060-1.21 20.885-3.188 12.18-3.57 22.893-8.002 33.833-14.509 19.196-11.481 36.542-26.946 42.376-49.358 3.828-14.797 5.547-29.526-3.985-42.312-1.786-2.423-3.986-4.686-5.739-7.078-1.689-2.361-2.391-4.782-5.005-6.471-2.295-1.466-5.132-1.596-7.623-2.615-2.646-1.116-5.071-2.267-7.937-2.902-7.172-1.594-15.079-0.735-22.383-0.735-6.379 0-17.377-3.156-3.188 7.973z"></path>
    <path fill="#000000" d="M859.967 628.761c0 3.475 0.415 7.047-0.701 10.33-2.551 7.427-8.957 11.829-15.371 15.465-5.613 3.188-10.619 6.248-17.156 7.428-4.911 0.924-9.598 2.040-14.475 3.061-11.32 2.295-22.67 4.306-33.957 6.758-7.238 1.562-14.541 2.52-21.81 3.857-6.216 1.116-12.5 0.606-18.651 1.945-11.545 2.454-20.598 8.513-30.802 13.646-16.962 8.513-29.751 21.202-43.366 33.991-6.248 5.869-10.683 11.736-16.166 18.335-2.391 2.871-4.496 5.036-5.676 8.738-0.926 2.901-1.246 5.993-2.231 8.833-0.765 2.231-2.487 4.017-2.966 6.312-0.35 1.755 0.121 4.147 0.121 6.026 0.026 4.877-0.191 9.089 1.594 13.776 2.966 7.779 5.071 15.816 9.153 23.244 3.318 6.092 11.606 9.503 17.443 12.914-2.487 0.19-6.123-3.127-7.558-4.877-3.443-4.242-4.591-11.509-4.75-16.708-0.16-5.867-1.5-15.242 0.86-20.788 2.933-6.858 10.109-13.17 15.081-18.494 7.397-8.002 15.335-15.881 24.265-22.257 7.937-5.738 18.877-9.214 28.026-12.725 10.107-3.892 19.642-6.538 30.545-6.379 10.78 0.159 21.238-1.658 31.951-1.594 18.907 0.083 37.084 3.061 55.927 0.026 12.019-1.945 23.978-5.451 35.363-9.564 11.481-4.145 21.588-9.309 26.975-20.917 3.795-8.132 11.095-13.805 14.191-22.192 0.955-2.646 2.326-8.769 4.877-10.555-2.807 6.248-8.288 7.748-14.191 10.174-3.091 1.276-4.051 3.508-6.566 5.358-2.265 1.658-8.164 2.807-11.13 2.901-1.371-4.271 4.687-9.977 5.869-14.058 2.519-8.799 4.335-16.486 3.602-25.764-0.989-12.625-10.685-27.294-19.802-35.618-1.817-1.658-7.525-8.608-10.27-5.897-1.051 1.021-1.689 6.791-1.881 8.068-0.481 2.996-0.991 5.642-2.011 8.544-1.689 4.973-4.718 9.918-5.642 15.145-0.191 1.020 0.060 3.795-0.576 4.75-1.403 2.106-3.731 1.596 1.85-1.244z"></path>
    <path fill="#000000" d="M443.856 631.952c-0.83-3.25 3.731-8.098 4.848-11.034 3.411-8.958 2.71-21.747-1.085-30.291-5.228-11.829-9.884-24.774-19.738-33.639-8.132-7.301-18.877-13.585-28.921-17.95-11.99-5.197-25.22-8.323-37.88-11.574-14.314-3.667-29.078-2.776-43.077-7.975-12.403-4.591-22.829-11.86-33.768-19.068-11.704-7.682-20.437-15.21-26.91-27.835-1.722-3.347-2.902-6.858-4.208-10.33-1.881-5.071-1.596-9.408-2.551-14.731-1.116-6.092-1.371-10.329 1.275-16.391 2.231-5.005 8.864-7.746 13.84-9.309 4.147-1.341 8.833-1.913 13.17-1.913 4.622 0 4.657 0.026 6.727 3.638 1.596 2.774 2.871 4.271 3.636 7.523 0.511 2.168 0.956 5.993 4.432 4.496 3.506-1.5 3.506-9.214 3.572-12.116 0.223-10.619-7.464-19.961-17.857-22.67-5.837-1.53-11.35-2.201-17.251-0.831-2.327 0.542-4.687 1.116-6.983 1.626-2.71 0.606-5.005 0.287-7.682 0.638-7.113 0.926-13.106 6.727-18.845 10.396-2.646 1.658-5.678 2.871-8.002 4.973-2.71 2.487-4.432 5.962-6.348 9.089-7.746 12.723-7.492 29.97-9.407 44.192-0.765 5.898 0.924 8.899 3.698 13.805 3.986 6.954 6.983 13.17 12.914 18.942 5.678 5.483 9.82 12.5 16.007 17.471 7.464 6.026 15.116 11.99 23.723 16.166 9.278 4.496 18.367 10.65 28.026 13.805 6.793 2.231 13.615 4.081 19.961 7.427 5.102 2.712 10.204 6.153 15.591 8.259 3.572 1.371 7.653 2.009 11.35 3.030 4.56 1.21 9.278 2.009 13.901 2.837 2.933 0.51 6.917 2.168 9.788 2.106 2.615-0.026 4.941-1.626 7.589-1.817 3.539-0.256 7.621-0.287 11.095 0.383 6.791 1.307 13.234 3.475 19.992 4.432 4.56 0.606 8.643 4.015 12.246 6.758 2.070 1.561 4.56 2.966 6.121 5.036 1.246 1.658 0.765 2.52 1.466 4.208 1.466 3.508 5.327 6.824 6.312 10.46 0.67 2.52 0.191 4.593 1.246 7.078 0.955 2.231 2.265 4.273 3.602 6.248 1.817 2.71 2.678 5.261 4.176 8.132 1.179 2.297 3.156 3.953 4.306 6.312 1.626 3.347 3.667 7.079 2.423 10.875-0.415 0.083-0.86 0.19 3.475-10.875z"></path>
    <path fill="#000000" d="M440.665 783.408c-7.556-14.986-19.162-29.876-33.512-39.538-14.287-9.598-28.95-19.004-40.72-31.854-9.884-10.808-21.077-20.726-33.832-27.835-5.327-2.966-9.695-7.428-14.861-10.585-3.731-2.295-7.208-3.411-10.841-6.092-9.342-6.952-23.339-12.945-34.597-15.816-4.718-1.21-9.214-0.060-13.901-0.955-2.423-0.481-4.147-1.179-6.663-1.276-4.686-0.159-7.843 0.831-12.244 1.722-1.881-0.060-3.797-0.121-5.706-0.191-1.755 0.225-3.475 0.67-5.168 1.341-3.188 0.511-6.312 0.351-9.563 0.351-6.858-0.026-12.341-0.445-18.813-3.157-3.986-1.658-5.261-3.698-8.257-6.471-2.201-2.040-4.941-3.411-7.268-5.325-5.453-4.463-7.623-10.65-11.13-16.611-2.741-4.622-2.265-8.068-2.326-13.295-0.026-3.953-1.371-7.268-1.689-11.062-0.255-2.776 0.669-4.818 1.275-7.464 1.276-5.613 3.828-9.089 7.779-13.267-3.188 0.831-3.316-1.275-5.772-1.594-3.539-0.445-3.698 2.265-5.612 4.782-1.689 2.199-3.761 2.774-5.678 4.463-1.116 1.021-2.71 3.318-3.539 4.782-0.956 1.691-1.148 3.892-3.347 3.572-1.816-0.223-3.030-3.316-3.795-4.686-1.276-2.391-2.551-5.387-3.221-8.002-0.638-2.617 0.083-5.263-0.669-7.845-2.072 0.415-2.072 2.871-3.127 4.593-2.199 3.636-6.248 6.216-8.928 9.532-4.848 6.092-9.439 12.594-12.786 19.674-2.964 6.312-4.496 11.958-3.602 19.132 0.765 6.471 4.208 13.966 7.812 19.355 3.477 5.197 7.719 10.839 12.085 15.306 2.201 2.231 5.102 2.871 7.589 4.593 3.061 2.106 5.196 4.846 8.483 6.791 9.788 5.837 19.418 12.275 27.294 20.567-6.568-1.464-13.201 4.017-15.844 9.468-2.52 5.197-2.807 11.509-2.742 17.156 0.060 5.517-1.626 14.255 0.383 19.452 1.051-0.256 1.881-2.327 2.391-3.443 1.466-3.092 2.582-5.517 5.071-8.004 7.078-7.078 15.56-12.149 25.762-13.776 8.068-1.275 16.867-0.121 25.063-0.253 11.481-0.191 23.18 5.706 34.308 8.352 20.12 4.782 35.522 19.132 52.165 30.323 11.225 7.556 18.142 18.715 27.071 28.44 2.964 3.188 7.462 3.857 11.159 6.248 3.986 2.582 8.484 4.622 12.755 6.758 8.257 4.147 19.547 6.123 25.635 13.615 1.913 2.36 4.496 5.387 6.282 8.288 2.615 4.208 3.572 9.918 4.752 14.764 1.753 7.208 4.015 14.221 4.78 21.65 0.638 6.377 4.112 11.604 5.133 17.696 2.326-0.542 1.179-4.081 0.893-6.026-0.989-6.473-1.246-13.901-3.156-20.279-1.977-6.632-5.708-12.945-9.185-18.876-5.451-9.344-9.629-18.783-16.005-27.516-3.986-5.517-8.769-9.695-13.136-14.764-4.752-5.517-9.089-11.254-14.285-16.356-5.517-5.424-11.415-11.225-16.007-17.507-2.996-4.081-10.268-11.606-7.367-17.156 2.454-0.35 7.047-0.924 9.439-0.223 3.953 1.244 8.002 9.854 10.998 12.594 3.443 3.188 7.653 5.292 11.225 8.354 3.382 2.901 6.057 6.662 9.662 9.309 4.242 3.061 9.759 5.837 14.606 7.779 6.248 2.485 12.054 3.347 18.047 6.697 5.292 2.996 10.204 6.824 15.496 9.695 11.225 6.026 20.503 15.91 27.071 26.91 4.973 0.159 4.941-8.767 4.271-11.86-0.765-3.443-2.996-7.142-4.401-10.394-5.325-12.339-14.060-22.609-19.387-35.044z"></path>
    <path fill="#000000" d="M668.683 339.832c-5.869 4.527-11.575 9.183-17.156 14.221-3.602 3.221-5.77 7.333-8.958 10.839-2.678 2.933-5.612 5.133-7.492 8.643-2.964 5.612-6.503 12.469-11.095 16.962-5.993 5.837-10.427 14.032-14.411 21.555-1.625 3.091-2.933 6.632-4.718 9.503-0.861 1.371-2.871 3.156-3.156 4.718-5.038 9.309-5.581 6.346-11.161 6.377-3.636 0.026-6.152-0.861-9.563-2.040-10.429-3.602-21.78-4.974-32.683-6.727-6.471-1.051-12.85-0.797-19.388-0.765-10.268 0.026-20.598-2.551-30.8-1.341-9.439 1.116-18.717 2.996-28.28 2.933-2.902 0-5.327 0.671-7.269-1.466-1.244-1.371-1.689-4.591-2.646-6.152-1.21-1.913-2.933-3.219-3.953-5.292-1.786-3.698-2.871-7.937-4.24-11.763-4.622-12.627-8.703-26.115-15.881-37.624-9.854-15.817-21.937-30.037-32.493-45.407-5.325-7.717-11.704-15.721-15.975-24.075-1.755-3.443-3.411-12.213-8.703-12.083 0.383-2.136 6.981-4.496 9.023-5.993 5.228-3.795 8.229-5.581 14.35-7.556 2.996-0.991 5.424-2.391 8.324-3.667 3.030-1.371 6.216-1.466 9.25-2.678 2.964-1.179 5.292-3.127 8.418-4.146 1.594-0.511 3.188-0.735 4.718-1.435 4.337-1.976 7.237-5.867 11.384-8.002 4.877-2.551 10.969-3.477 15.626-6.248 5.642-3.411 9.918-8.447 16.263-10.998 5.071-2.011 9.918-4.718 14.475-7.812 5.197-3.541 10.015-7.399 15.242-10.841 3.953-2.646 6.346-6.346 9.854-9.564 9.722-9.022 18.971-19.257 29.241-27.614 2.615-2.136 5.036-5.867 7.778-7.556 1.852-1.148 5.483-0.32 7.653-0.32 3.602 0 4.306-0.060 6.793 1.561 2.871 1.913 4.24 5.007 6.377 7.653 15.626 19.642 31.887 39.284 49.105 57.523 11.574 12.275 26.849 19.672 38.294 32.141 9.342 10.204 19.355 19.578 28.761 29.656 1.786 1.913 8.192 5.837 7.973 8.674-0.159 1.881-3.541 4.941-4.622 6.377-3.411 4.496-5.897 9.505-8.703 14.351-2.295 3.857-5.678 6.568-9.278 9.119-2.678 1.913-3.602 4.337-6.248 6.377zM831.27 863.207v-4.622c-1.977-2.837-2.361-7.142-3.443-10.583-4.367-14.351-11.254-26.69-16.931-40.431-5.358-13.011-9.598-27.005-13.586-40.526-1.305-4.463-2.265-8.449-3.127-12.914-1.051-5.261-3.316-10.14-4.208-15.306-2.551-14.51-6.632-29.367-11.223-43.461-5.104-15.591-12.47-30.833-16.772-46.618-2.807-10.363-5.547-21.299-10.429-31.056-2.807-5.678-4.145-11.8-6.026-17.763-1.5-4.78-3.411-9.437-4.752-14.285-2.072-7.464-4.686-14.89-7.111-22.223-1.371-4.112-4.401-7.623-5.738-11.67-1.21-3.572-1.341-7.333-2.168-10.969-1.341-6.057-4.816-12.149-6.248-17.886-1.115-4.527-3.219-8.643-5.005-13.359-0.796-2.011-1.85-4.718-2.807-6.793-1.115-2.454-0.893-3.761-1.5-6.407-0.159-0.67-1.244-1.466-1.341-1.852-0.253-1.179 0-2.582-0.32-3.666-0.638-2.295-1.244-4.401-1.975-6.791-1.115-3.667-3.636-7.558-4.527-11.415-0.51-2.231 1.21-4.913-0.765-6.407-1.371-1.021-6.758-0.060-8.703-0.060-3.475 0.026-5.102 0.287-8.003-1.561-2.964-1.881-3.219-2.327-6.346-3.221-2.646-0.765-4.752-0.48-2.933-4.78 1.341-3.221 5.738-5.739 8.098-8.257 3.539-3.731 4.657-8.323 7.556-12.405 2.837-4.017 5.422-8.288 8.034-12.469 2.901-4.593 5.993-8.799 7.621-14.032 1.881-5.993 5.837-10.649 8.164-16.55 1.753-4.463 4.591-7.878 6.471-12.339 2.551-6.092 7.237-10.585 9.629-16.742 4.051-10.429 9.884-20.024 16.708-28.986 2.582-3.411 5.612-6.602 7.047-10.555 0.698-1.945 0.606-3.127 1.625-5.102 0.956-1.786 2.551-3.698 3.062-5.771 0.796-3.316 0.924-5.867 2.265-9.153 1.051-2.52 1.976-5.642 1.307-8.61-2.837-12.31-18.397-18.941-25.986-27.804-7.333-8.544-15.496-15.496-23.244-23.564-9.693-10.043-17.791-21.937-27.005-32.462-2.966-3.411-5.931-6.187-9.248-9.117-4.368-3.922-7.878-8.799-12.341-12.53-5.196-4.306-11.734-6.822-16.996-11.035-5.612-4.496-8.767-11.318-14.606-15.685-5.387-4.051-9.024-8.643-13.776-13.39-4.432-4.403-9.408-9.664-14.956-12.501-2.933-1.5-4.367-2.52-6.858-4.56-3.411-2.776-7.779-4.273-11.192-7.236-3.828-3.286-7.428-7.047-12.085-9.214-4.877-2.265-9.949-3.602-14.731-6.248-3.857-2.136-9.214-7.013-14.060-6.187-1.115 0.19-1.085 1.403-2.009 1.722-2.966 1.051-5.898 1.561-8.863 2.551-6.663 2.199-11.545 7.111-17.632 10.268-5.325 2.776-11.033 4.527-16.261 7.428-6.634 3.666-12.98 7.078-19.928 10.013-8.958 3.698-17.537 7.303-24.455 14.316-7.492 7.587-16.197 13.49-24.168 20.598-13.331 11.829-26.496 23.564-39.762 35.423-4.973 4.432-10.524 8.193-15.816 12.246-5.706 4.337-13.011 6.952-17.921 11.959-4.176 4.208-9.503 5.547-14.030 9.309-5.102 4.208-9.089 10.299-13.712 15.079-4.367 4.593-5.676 12.565-8.543 18.272-1.945 3.892-5.424 7.492-4.718 11.99 0.989 6.471 6.537 12.625 9.598 18.335 3.921 7.399 5.102 16.166 9.82 23.054 4.56 6.602 6.152 14.286 11.062 20.662 6.758 8.799 12.31 19.706 20.12 27.676 5.613 5.77 9.789 12.5 14.765 18.876 3.572 4.593 7.144 9.089 10.839 13.522 2.423 2.901 6.187 6.121 8.068 9.503 0.765 1.403 0.765 3.347 1.596 4.941 1.464 2.741 3.921 5.036 5.867 7.427 2.040 2.487 3.731 4.913 4.941 7.975-4.112 0.955-11.35 0.955-15.465-0.121-4.782-1.246-9.185-1.246-14.287-1.246-5.993 0-9.278 0-14.38 3.188-2.009 1.275-4.015 2.295-5.261 4.401-1.786 3.030-1.913 6.758-3.795 10.268-8.703 16.072-17.347 32.143-25.444 48.563-3.539 7.208-5.676 14.922-9.342 22.16-3.761 7.367-7.937 14.605-11.604 21.969-3.638 7.331-4.496 15.751-8.193 23.212-4.718 9.534-8.418 19.388-12.914 28.987-4.273 9.023-7.556 18.556-12.371 27.294-4.176 7.653-8.957 13.744-11.479 22.16-2.265 7.653-4.401 15.687-8.354 22.67-3.636 6.379-7.172 11.509-9.278 18.687-1.913 6.443-4.112 12.725-6.282 19.1-2.805 8.323-7.843 14.797-9.276 23.658-0.893 5.453-3.221 9.408-4.782 14.51-1.086 3.602-0.797 7.843-2.231 11.254-0.445 1.116-1.945 2.361-2.487 3.382-0.924 1.85-1.021 4.335-1.881 6.216-2.106 4.496-5.327 9.278-8.449 13.075-2.136 2.582-4.176 5.517-5.993 7.973-1.464 2.011-3.411 3.731-4.846 5.642-2.201 2.871-2.168 7.078-3.092 10.78-0.924 3.761-4.431 7.779-3.061 12.18 1.277 4.081 5.581 6.092 7.812 9.439 1.466 2.168 2.361 5.547 3.475 7.717 1.975 3.922 4.527 7.653 6.888 11.35 3.252 5.102 5.738 7.523 10.329 10.939 4.56 3.411 8.132 8.257 12.784 11.734 7.623 5.678 15.242 7.878 21.334 15.687 2.933 3.698 6.152 7.172 8.994 10.938 2.836 3.731 4.657 7.843 7.937 11.225 2.646 2.71 4.782 4.816 8.068 6.378 1.277 0.638 3.986 1.658 4.463 2.678-1.85-2.010-1.371-5.261-1.755-7.812-0.669-4.367-1.275-8.067-1.21-12.435 0.060-9.089-1.21-17.952 2.201-26.304 1.658-4.017 1.658-8.42 2.52-12.66 0.955-4.591 3.091-8.033 4.846-12.275 1.881-4.527 2.933-9.373 4.782-13.9 2.009-4.912 4.657-9.439 6.407-14.477 3.38-9.695 6.282-19.163 10.363-28.635 4.112-9.564 8.033-19.706 11.159-29.656 2.933-9.153 6.663-17.346 10.649-26.145 4.877-10.744 9.25-21.555 13.935-32.363 4.273-9.788 8.958-19.577 11.254-30.035 1.148-5.228 2.391-10.233 3.986-15.335 1.753-5.738 4.367-11 6.248-16.582 1.371-4.081 1.435-8.447 2.487-12.594 0.861-3.506 2.487-6.758 3.572-10.204 2.996-9.598 7.172-18.812 9.598-28.505 5.422-21.555 13.805-43.332 18.907-64.154 1.626-6.632 3.921-13.9 6.152-19.961 1.085-2.966 1.148-2.199 4.112-3.188 1.088-0.383 2.361-1.21 3.382-1.466 2.678-0.606 5.483 0.415 8.193-0.026 2.106-0.35 3.729-1.435 5.835-1.755 6.538-0.924 13.426 0.991 19.994-0.253 9.278-1.755 18.016-4.496 27.548-4.528 8.958-0.026 16.486 4.687 25.189 4.912 8.098 0.256 15.785 0.67 23.789 2.456 8.958 2.040 17.473 4.718 26.719 5.547 8.93 0.765 17.315-0.321 26.24 1.85 6.954 1.689 12.435 2.901 19.547 2.837 5.517-0.060 10.555 1.626 16.102 1.594 6.282-0.026 17.727-2.229 21.65 3.731 2.136 3.221 2.52 7.909 3.285 11.606 2.042 9.503 4.147 19.451 8.098 28.313 7.523 16.867 17.952 32.207 23.658 49.934 1.596 4.941 1.244 9.951 3.030 14.861 3.761 10.206 9.788 19.452 13.679 29.656 5.327 13.901 10.14 27.967 14.667 42.025 3.316 10.299 9.022 19.482 12.881 29.526 3.285 8.579 4.686 17.763 7.397 26.529 2.678 8.674 6.312 17.060 9.854 25.416 3.541 8.388 9.053 15.719 11.448 24.584 0.735 2.71 1.277 5.422 1.881 8.163 1.051 4.816 3.761 9.309 4.593 14.096 0.573 3.316-0.026 6.858 0.414 10.268 0.671 4.877 2.933 11.481 0.956 16.295-0.351 0.831-1.5 1.435-1.913 2.295-0.861 1.786-1.179 3.477-1.722 5.387-1.53 5.422-4.657 9.723-5.738 15.306-2.136 11.035-2.295 22.67-7.876 32.749-1.307 2.361-3.347 3.953-4.848 6.058-2.774 3.827-1.464 9.468-1.753 14 3.953-3.666 8.703-3.156 12.945-6.027 3.127-2.106 5.422-5.037 8.799-6.917 2.805-1.531 5.897-2.582 8.798-4.017 5.613-2.71 10.109-6.982 15.785-9.598 5.867-2.678 11.799-5.228 17.63-7.974 7.047-3.25 13.999-6.346 20.024-11.289 1.561-1.307 2.326-3.636 3.921-4.816 0.54-0.415 3.572-1.148 3.921-1.562 0.735-0.83 0.48-1.305 0.893-2.295l-0.026-2.265z"></path>
    </svg>