<svg xmlns="http://www.w3.org/2000/svg" viewBox="-35.595 112.004 1112.289 799.993">
    <path fill="#000000" d="M617.793 739.666c74.704-37.965 164.835-67.111 286.565-69.804 10.045-0.245 17.755-8.695 16.898-18.615l4.775 51.434c-91.972 3.43-216.64 18.983-308.242 36.985zM535.864 751.055l-0.867-419.318c6.859-2.205 13.225-5.755 18.615-10.899 87.684-84.501 239.172-96.624 300.161-97.973l35.759 416.745c-158.344 6.125-264.522 55.598-353.676 111.444zM149.982 637.897l36.495-415.152c57.558 0.856 211.618 11.755 301.017 98.094 4.897 4.775 10.655 8.084 16.898 10.409l0.728 420.42c-105.68-64.414-209.773-108.014-355.14-113.769zM114.098 700.967l4.164-47.884c1.111 8.205 7.96 14.941 16.655 15.065 116.954 2.574 205.617 30.125 288.892 72.864-99.684-21.309-217.252-36.985-309.712-40.044zM955.425 334.921c-0.867-8.816-8.205-15.555-17.145-15.555h-15.798l-4.164-47.024c-0.867-8.816-8.205-15.675-17.145-15.675h-13.715l-4.164-48.864c-0.728-8.94-8.205-15.675-17.145-15.675h-0.245c-54.005 0-231.091 7.836-333.591 106.665-3.297 3.185-7.471 4.655-11.756 4.655s-8.449-1.467-11.756-4.655c-101.644-98.094-273.462-106.789-331.021-106.789-1.355 0-2.568 0-3.796 0-8.938 0-16.287 6.735-17.025 15.675l-4.286 48.984h-15.308c-8.816 0-16.287 6.857-17.025 15.675l-4.041 47.024h-14.695c-8.938 0-16.287 6.735-17.145 15.675l-39.187 443.81c-0.867 10.043 7.104 18.615 17.145 18.615h385.761c17.025 21.065 43.106 34.535 72.375 34.535 29.266 0 55.354-13.472 72.375-34.535h385.761c10.045 0 18.005-8.574 17.025-18.615z"></path>
    </svg>