<svg xmlns="http://www.w3.org/2000/svg" viewBox="-0.480 -16.001 1045.960 1058.573">
    <path fill="#000000" d="M525.771 641.24l-3.27-277.709 117.289 159.683z"></path>
    <path fill="#000000" d="M522.501 381.535l128.778 113.937 43.457-40.228z"></path>
    <path fill="#000000" d="M686.89 434.235l7.848-244.922-172.236 195.292z"></path>
    <path fill="#000000" d="M703.606 397.253l-8.87-207.964 83.154 105.762z"></path>
    <path fill="#000000" d="M522.501 139.643l149.381 37.203-149.381 210.582z"></path>
    <path fill="#000000" d="M522.501 63.999l83.030 17.539-83.030 27.145z"></path>
    <path fill="#000000" d="M522.501 142.196l69.784-64.143 102.449 37.775-13.368 41.985z"></path>
    <path fill="#000000" d="M694.726 115.841l4.048 47.218 79.108 131.966-32.665-155.392z"></path>
    <path fill="#000000" d="M623.36 563.195l39.451-47.463 254.855-53.106-155.554 92.597-101.673 11.043z"></path>
    <path fill="#000000" d="M681.366 576.417l-68.068-10.14 22.73-42.19-100.16 117.819 77.022-13.368z"></path>
    <path fill="#000000" d="M600.050 694.013l5.723 37.652 56.416-51.797 16.231-87.364z"></path>
    <path fill="#000000" d="M660.705 663.078l31.193 112.015-76.735-39.41z"></path>
    <path fill="#000000" d="M681.366 576.417l81.682 11.208-81.682 75.468z"></path>
    <path fill="#000000" d="M702.154 654.804l60.873-67.209 14.84 56.008-41.576-3.27z"></path>
    <path fill="#000000" d="M702.154 673.011l47.832-42.68 151.548 42.68-143.453 21.013z"></path>
    <path fill="#000000" d="M820.605 697.917l80.904-24.9 63.939 69.336z"></path>
    <path fill="#000000" d="M872.27 731.682l93.21 10.674-18.356 84.339z"></path>
    <path fill="#000000" d="M884.968 779.198l62.14 47.505-186.788 26.614z"></path>
    <path fill="#000000" d="M680.61 709.532l11.284 65.574h66.064z"></path>
    <path fill="#000000" d="M724.917 846.015l-15.534-58.747 48.567-12.183z"></path>
    <path fill="#000000" d="M670.684 498.804l107.192-13.532-83.154-30.008z"></path>
    <path fill="#000000" d="M528.846 649.215l52.287 64.061 57.766 132.742c0 0-112.997 116.554-111.116 113.94 1.842-2.619-0.65-219.575-0.65-219.575l103.104 95.46-105.883-111.116z"></path>
    <path fill="#000000" d="M519.234 641.24l3.27-277.709-117.289 159.683z"></path>
    <path fill="#000000" d="M522.501 381.535l-128.778 113.937-43.457-40.228z"></path>
    <path fill="#000000" d="M358.107 434.235l-7.848-244.922 172.236 195.292z"></path>
    <path fill="#000000" d="M341.396 397.253l8.87-207.964-83.154 105.762z"></path>
    <path fill="#000000" d="M522.501 139.643l-149.341 37.203 149.341 210.582z"></path>
    <path fill="#000000" d="M522.501 63.999l-83.030 17.539 83.030 27.145z"></path>
    <path fill="#000000" d="M522.501 142.196l-69.784-64.143-102.449 37.775 13.368 41.985z"></path>
    <path fill="#000000" d="M350.276 115.841l-4.048 47.218-79.108 131.966 32.665-155.392z"></path>
    <path fill="#000000" d="M421.642 563.195l-39.45-47.463-254.855-53.106 155.554 92.597 101.673 11.043z"></path>
    <path fill="#000000" d="M363.634 576.417l68.068-10.14-22.73-42.19 100.16 117.819-77.022-13.368z"></path>
    <path fill="#000000" d="M444.952 694.013l-5.723 37.652-56.416-51.797-16.231-87.364z"></path>
    <path fill="#000000" d="M384.3 663.078l-31.193 112.015 76.735-39.41z"></path>
    <path fill="#000000" d="M363.634 576.417l-81.682 11.208 81.682 75.468z"></path>
    <path fill="#000000" d="M342.851 654.804l-60.873-67.209-14.84 56.008 41.576-3.27z"></path>
    <path fill="#000000" d="M342.851 673.011l-47.832-42.68-151.548 42.68 143.453 21.013z"></path>
    <path fill="#000000" d="M224.397 697.917l-80.904-24.9-63.939 69.336z"></path>
    <path fill="#000000" d="M172.73 731.682l-93.21 10.674 18.356 84.339z"></path>
    <path fill="#000000" d="M160.037 779.198l-62.14 47.505 186.788 26.614z"></path>
    <path fill="#000000" d="M364.39 709.532l-11.284 65.574h-66.064z"></path>
    <path fill="#000000" d="M320.088 846.015l15.534-58.747-48.567-12.183z"></path>
    <path fill="#000000" d="M374.321 498.804l-107.192-13.532 83.154-30.008z"></path>
    <path fill="#000000" d="M516.161 649.215l-52.287 64.061-57.766 132.742c0 0 112.997 116.554 111.116 113.94-1.842-2.619 0.65-219.575 0.65-219.575l-103.104 95.46 105.883-111.116z"></path>
    </svg>