<svg xmlns="http://www.w3.org/2000/svg" viewBox="40.375 -49.813 961.367 1089.814">
    <path fill="#000000" d="M248.104 930.074c-98.7-108.509-127.729-218.049-89.784-338.433 22.089-69.488 22.265-71.236 8.064-116.038-13.977-44.129-13.8-46.369 3.316-75.447 12.948-21.864 17.697-44.621 17.697-84.855 0-30.284 2.776-54.971 6.317-54.971 3.496 0.128 29.39 7.355 57.571 16.265 28.181 8.788 77.147 18.728 108.825 22.222 81.584 8.774 59.675 44.802-41.622 68.816-59.675 14.157-91.888 81.003-68.459 142.246 18.233 47.446 19.445 41.845-19.757 87.183-67.919 78.583-48.118 250.575 39.918 347.887 7.528 8.421 11.693 15.052 9.453 15.052-2.284 0-16.488-13.484-31.541-29.928zM739.177 797.956c81.584-120.25 116.933-293.137 76.475-373.648-11.020-22.222-25.001-55.643-30.958-74.371-19.265-61.423-24.865-64.067-133.69-64.067-108.689 0-105.912 2.286-71.235-60.527 13.977-25.402 25.357-54.615 25.537-64.919 0.71-93.996 52.687-130.237 84.363-58.827 16.621 37.635 42.874 57.93 133.329 103.27 34.138 17.16 34.138 17.16 39.561 89.603 3.181 39.873 13.665 97.489 23.477 127.91 35.706 110.617-4.212 235.209-115.185 359.804-43.906 49.37-59.99 57.435-31.674 15.769zM580.982 711.489c85.932-82.571 124.953-146.995 174.503-288.568 2.956-8.559 9.589-3.669 21.505 16.083 39.022 64.067-93.456 240.63-239.734 319.93-7.033 3.847 12.589-17.518 43.726-47.446zM460.421 498.187c11.693-5.601 40.59-18.549 64.023-28.897 48.654-21.504 100.625-70.519 124.637-117.245 11.873-23.117 22.041-32.034 36.201-32.034 104.121 0-81.899 170.963-199.325 183.24-40.098 4.218-43.77 3.493-25.537-5.068z"></path>
    </svg>