<svg xmlns="http://www.w3.org/2000/svg" viewBox="-31.898 86.703 1110.799 850.568">
    <path fill="#000000" d="M964.517 726.177c-5.596-8.882-13.532-8.569-20.984-13.219-15.387-9.513-31.684-15.879-47.492-24.375-21.823-11.717-42.769-24.9-63.194-40.287-14.689-11.013-28.922-22.345-42.981-34.655-16.155-14.128-31.684-29.795-48.574-42.385-14.093-10.492-26.264-24.024-39.728-35.636-11.155-9.617-21.823-20.599-32.069-31.859-8.708-9.617-18.045-19.585-27.697-27.525-4.792-3.984-10.038-6.682-14.687-10.909-5.983-5.455-11.294-11.853-17.382-17.136-13.008-11.331-25.668-24.096-39.377-33.782-3.602-2.554-6.401-6.332-10.142-8.671-3.636-2.24-7.59-3.567-11.4-5.212-7.659-3.251-15.459-5.7-22.906-9.582-3.882-2.027-15.387-4.826-18.43-0.065-0.735 1.155-1.537 3.987-1.294 5.564 0.417 2.692 0.628 1.436 1.746 3.043 1.644 2.379 4.687 4.967 6.89 7.272 6.332 6.644 11.751 13.815 17.624 21.123 2.973 3.708 5.005 8.078 8.323 11.505 3.075 3.184 6.505 5.842 9.617 8.955 4.233 4.267 7.486 8.952 12.136 12.553 12.871 9.968 22.591 29.553 30.425 45.743 3.040 6.295 6.749 15.669 5.388 23.397-0.628 3.708-2.799 6.19-4.546 9.443-4.16 7.8-9.305 14.476-13.149 22.838-9.548 20.564-23.152 31.232-41.441 34.061-9.058 1.398-17.941 1.121-27 3.006-12.554 2.658-25.074 5.912-37.733 7.59-36.58 4.896-72.916-5.981-109.356-5.946-6.295 0-20.074-0.7-16.577 12.836 2.027 7.834 11.89 8.918 16.787 12.487 6.713 4.863 12.554 11.051 18.71 16.963 8.187 7.834 14.898 17.658 23.256 25.005 15.141 13.358 29.692 27.978 44.801 41.339 16.927 14.969 34.448 28.853 51.165 44.274 5.946 5.526 11.294 10.526 17.907 14.687 5.139 3.251 10.454 7.241 15.141 11.541 3.706 3.462 6.085 7.067 10.248 9.689 2.903 1.821 6.505 3.391 9.128 5.77 5.77 5.246 9.513 11.787 13.080 19.688 1.155 2.516 2.864 7.449 1.746 10.735-1.12 3.219-4.408 1.995-6.96 1.995-14.27-0.107-28.537 0.454-42.807 0.065-2.941-0.065-5.487-1.262-8.286-1.714-3.043-0.525-5.912-0.065-8.955-0.381-6.644-0.628-13.567-2.344-20.144-3.81-6.224-1.398-13.535-3.326-19.759-2.799-6.786 0.525-13.291 4.58-19.722 6.992-5.874 2.169-8.010 6.573-11.505 12.277-0.737 1.26-5.141 6.783-5.070 8.497 0.176 4.126 7.1 1.296 6.992 6.366-0.065 3.743-10.038 2.133-11.61 2.133-8.777-0.175-16.892-4.021-25.527-5.874-9.654-2.133-19.027-5.037-28.887-4.792-16.678 0.384-33.47-8.462-50.36-3.919-5.315 1.398-9.791 4.794-15.318 5.736-4.58 0.768-8.813 0.026-13.358 0.175-11.541 0.42-22.626 5.211-34.307 4.58-5.912-0.318-11.158-3.006-16.927-4.091-7.031-1.296-14.34-0.416-21.401-0.35-8.813 0.065-17.241-2.305-25.951-2.169-10.596 0.133-20.806-1.121-31.332-2.099-5.596-0.49-11.016-1.92-16.615-2.203-6.925-0.381-13.917 0.839-20.842-0.065-6.259-0.8-11.4-3.778-17.065-6.47-3.425-1.645-7.345-1.645-5.629-7.869 5.455-1.361 8.847-2.799 13.433-6.713 6.888-5.874 14.476-8.604 22.136-12.661 9.058-4.826 17.976-9.723 26.823-15.177 10.213-6.295 21.193-9.723 31.16-16.714 7.241-5.070 15.56-9.233 22.451-14.935 4.16-3.462 7.903-8.149 11.928-11.959 5.455-5.104 10.282-11.853 14.898-18.082 6.155-8.252 8.918-20.215 13.569-29.936 3.147-6.607 4.618-14.233 8.045-20.492 3.532-6.472 5.663-13.222 8.777-19.935 3.391-7.377 8.708-13.464 12.695-20.492 5.070-8.882 10.668-17.174 15.914-25.914 3.919-6.471 7.834-12.799 13.184-17.31 4.65-3.885 9.094-9.513 14.27-12.102 4.478-2.203 9.164-1.679 13.605-4.16 3.532-1.957 7.203-5.663 10-8.777 8.882-9.791 16.368-19.163 23.328-31.334 11.754-20.564 23.711-41.128 35.917-61.34 6.014-10 10.316-21.299 15.879-31.718 5.663-10.596 10.002-24.759 16.787-33.889 4.336-5.839 9.895-7.342 15.177-11.294 6.508-4.863 10.213-13.149 17.558-16.119 3.5-1.398 6.749-2.623 9.654-5.666 2.658-2.762 4.126-6.607 6.749-9.406 3.984-4.195 9.895-5.455 14.759-7.203 7.166-2.516 14.687-4.895 22.136-3.601 9.968 1.746 21.333 10.282 30.214 16.262 8.535 5.77 16.401 12.136 25.32 17.033 9.513 5.212 19.237 9.789 28.643 15.248 26.054 15.11 50.919 30.741 72.601 55.361 10.875 12.378 21.719 24.866 32.489 37.385 12.275 14.304 25.074 26.684 38.641 38.783 15.911 14.164 30.354 29.936 44.906 46.338 9.617 10.772 18.851 22.663 29.061 32.487 10.668 10.282 23.924 15.497 34.657 25.775 7.762 7.449 15.631 13.708 23.816 20.247 7.59 5.983 13.781 13.639 21.647 18.954 6.682 4.511 11.369 12.59 18.082 16.646 3.251 1.995 6.682 2.658 9.864 5.037 3.36 2.518 6.259 5.141 9.895 7.066 9.095 4.792 17.66 12.487 14.725 14.27z"></path>
    <path fill="#000000" d="M467.921 349.388c-1.713-1.049-3.919-4.408-5.246-6.682-2.623-4.369-4.478-7.203-7.974-10.038-5.842-4.756-11.4-10.875-17.486-14.652-7.628-4.756-16.404-5.455-24.342-7.203-17.941-3.95-35.953-4.863-53.895-8.149-8.847-1.61-17.241-7.166-25.986-10.107-9.336-3.147-17.695-8.637-26.16-16.682-5.177-4.861-8.359-9.652-12.102-17.275-3.147-6.401-3.848-8.428-4.826-16.749-0.735-6.332-1.049-11.856-0.944-18.432 0.101-6.749 2.206-9.336 4.233-14.476 1.785-4.543 4.059-10.141 6.541-13.532 1.746-2.379 3.95-2.864 5.981-4.302 4.267-3.040 8.918 0.092 12.973-2.692-0.524-3.636-3.040-7.275-4.65-9.617-1.468-2.169-2.903-3.251-4.722-4.369-2.099-1.327-4.021-3.987-6.014-5.212-4.163-2.516-10.251-0.381-14.551-0.381-3.462 0-7.132-0.877-10.561-0.28-3.425 0.593-5.564 5.037-8.323 8.218-4.231 4.861-8.637 9.196-10.454 18.71-1.888 9.789-2.554 22.941-2.658 33.294-0.032 5.28 0.065 10.561 0.032 15.842 0 4.369-0.596 10.251 0.065 14.442 1.051 6.925 5.7 14.269 9.024 17.695 3.885 3.95 8.218 6.644 12.449 9.094 4.231 2.447 8.321 7.067 12.799 7.903 4.478 0.877 8.845-0.628 13.324 1.014 2.938 1.087 5.946 1.262 8.918 2.169 2.623 0.839 5.177 2.832 7.8 3.462 5.983 1.436 11.754 4.546 17.66 7.169 6.749 3.040 13.815 4.928 20.492 8.393 5.596 2.903 11.331 2.064 17.033 3.95 6.925 2.305 13.992 0.092 20.981 2.658 9.791 3.532 19.796 6.433 29.446 11.227 3.919 1.923 7.869 3.638 11.819 5.388 3.289 1.436 6.713 1.051 9.931 3.36 3.043 2.203 5.773 5.946 9.095 6.749 1.572 0.418 3.251-0.42 4.826 0.28 3.81 1.785 3.006 6.682 5.455-0.178z"></path>
    <path fill="#000000" d="M335.029 439.229c-0.802-7.59-8.918-8.321-12.134-9.723-10.176-4.336-21.091-5.351-31.51-2.623-7.241 1.888-13.883 1.746-21.16 2.382-4.618 0.35-9.021 3.147-13.674 3.672-13.674 1.574-25.461-5.139-37.839-14.551-4.618-3.532-8.462-5.353-11.89-11.853-2.414-4.618-4.478-9.864-6.085-15.596-2.203-7.903-2.133-14.828-2.099-23.607 0.032-8.184 1.12-15.387 5.629-18.954 2.765-2.169 9.409-2.447 11.158 2.941-1.537-4.546-7.1-7.869-9.755-9.305-4.369-2.379-14.513-11.294-18.082-5.037-2.273 3.984-3.984 14.898-5.104 20.492-1.821 8.813-1.679 17.558-0.454 26.195 0.737 5.351 2.903 20.74-3.358 16.121-1.61-1.189-2.24-4.653-3.778-6.014-1.821-1.61-4.233-1.746-6.259-3.425-9.583-8.008-19.828-13.008-30.39-13.324-5.070-0.151-24.2-4.126-25.144 9.267 8.604 3.462 17.451 3.672 26.123 7.029 3.113 1.226 4.408 4.267 6.959 6.89 2.623 2.692 4.511 1.54 7.1 3.636 1.957 1.61 3.326 6.366 5.141 8.605 1.503 1.855 3.636 3.251 5.246 4.719 4.754 4.369 8.393 9.131 13.674 11.541 4.543 2.030 7.831 3.15 12.487 3.81 6.682 0.98 14.055 3.113 20.668 5.805 6.541 2.73 13.184 3.289 19.622 6.541 7.203 3.636 13.532 4.302 20.946 4.091 7.519-0.175 14.687 3.391 22.345 3.358 13.992-0.133 27.978 0 41.965 0 5.070 0 12.625-2.623 17.592-0.175 2.941 1.468 5.351 6.048 8.187 8.078 6.295 4.408 15.7 6.332 21.227 14.476-6.644-9.654-14.377-15.528-21.091-25.39-4.16-6.085-7.727-10.038-12.799-13.358-4.756-3.36-9.654-5.7-14.725-6.992-6.992-1.085-12.73 3.426-17.205 13.532z"></path>
    <path fill="#000000" d="M822.884 344.455c-0.101 0.909-0.209 1.821-0.28 2.692-6.992 3.741-14.091 2.728-21.436 4.126-3.706 0.7-7.345 3.358-11.12 3.462-5.177 0.133-7.869-5.281-12.24-9.654-2.941-2.973-5.981-3.672-9.094-5.736-3.672-2.447-6.783-6.854-10.142-10.527-6.295-6.925-12.871-12.171-19.655-17.099-4.126-3.006-7.169-6.364-11.647-6.644-3.984-0.243-7.834-0.559-11.819-1.468-7.415-1.644-14.551-1.644-21.997-1.644-7.415 0-16.297-3.077-22.978 3.113-7.869 7.203-14.27 4.756-22.558 7.415-7.727 2.481-15.11 3.147-23.045 2.692-10-0.559-21.088-4.509-30.32-11.786-5.77-4.58-14.476-12.695-18.219-22.804-2.903-7.8-5.104-24.866-3.565-34.341 1.537-9.755 9.128-9.864 13.464-9.477-2.586-3.95-4.231-8.045-7.272-10.875-1.679-1.54-2.832-2.064-4.618-3.113-2.973-1.681-8.569-7.275-11.717-6.19-2.273 0.768-2.588 4.65-4.511 6.644-2.131 2.273-5.385 1.187-7.691 3.425-4.546 4.408-6.332 11.4-8.605 19.722-3.216 11.717-3.778 29.623 0.768 40.146 2.064 4.722 5.037 10.072 7.551 13.815 2.588 3.81 5.037 8.323 7.762 11.122 3.006 3.113 7.345 4.756 10.492 7.241 3.602 2.832 6.992 4.967 10.561 7.659 5.564 4.304 10.946 8.254 16.54 12.905 6.573 5.487 13.149 5.839 20.109 9.654 15.177 8.286 32.034 14.091 47.353 2.305 3.743-2.903 5.736-9.095 9.196-12.836 1.713-1.855 4.091-3.219 5.946-4.58 6.783-4.896 14.093-11.718 21.436-12.346 4.091-0.386 9.372-1.436 13.358 0.666 2.027 1.049 3.599 4.231 5.596 5.351 1.503 0.839 3.182 0.561 4.719 1.327 7.976 3.987 15.879 11.89 23.924 14.969 5.487 2.133 10.489-0.35 15.947 3.778 4.65 3.462 7.484 5.912 12.449 6.573 7.59 1.014 13.046 8.187 20.109 12.378 2.203 1.329 3.741 3.008 6.155 1.61 3.323-6.295 6.992-11.751 10.982-16.401 6.188-8.954 13.077-15.738 10.107-7.275z"></path>
    <path fill="#000000" d="M369.179 744.466c1.957 0.42 2.658 1.679 2.030 3.778-5.353 1.679-5.842-4.195-9.479-7.031-1.995-1.537-4.509-1.083-6.541-2.344-2.379-1.468-3.81-3.81-5.981-5.564-4.197-3.391-8.078-5.104-12.24-8.746-6.155-5.422-10.563-13.077-16.577-18.5-10.176-9.196-22.594-17.136-31.687-28.711-11.051-13.954-23.328-23.85-34.551-37.071-9.895-11.681-19.968-22.451-30.707-32.7-6.682-6.401-14.933-7.484-22.419-12.939-4.091-2.973-17.032-21.123-20.774-11.644-1.923 4.861 1.468 8.462 2.765 12.588 0.877 2.832 4.58 15.528 4.126 18.011-0.628 3.672-11.754 13.815-15.179 14.933-3.672 1.189-7.449-3.706-11.085-3.95-1.746-0.092-3.323 1.189-4.618 1.226-1.262 0.026-5.946-2.382-6.856-1.436-3.919 4.233 1.155 22.591 3.043 27.347 4.091 10.176 9.441 18.885 14.652 27.84 6.713 11.541 14.935 20.074 20.914 32.452 3.219 6.682 11.787 15.494 11.995 23.85 0.318 14.164-13.008 4.302-18.082 3.984-2.73-0.175-6.713-0.49-9.305 0.026-1.995 0.386-3.216 2.099-5.315 1.922-2.588-0.209-5.28-3.672-7.831-3.601-2.414 0.065-1.714 0.944-3.425 1.537-2.382 0.802-3.743 1.888-6.224 2.305-3.984 0.702-8.149 2.030-12.449 3.426-8.149 2.658-16.018 6.749-24.724 7.203-10.982 0.595-22.419-4.792-33.395-9.164-7.272-2.864-13.184-7.551-19.898-12.905-3.849-3.043-11.26-6.96-11.26-14.057 2.171-1.644 3.567-4.369 5.526-6.366 3.113-3.113 6.682-3.674 9.931-5.912 4.267-2.973 8.359-6.224 13.115-8.465 10.35-4.826 14.34-17.658 19.968-30.495 2.344-5.422 3.532-10.841 5.631-17.033 3.532-10.526 10.107-15.77 15.911-23.746 3.36-4.58 7.1-7.379 10.81-11.016 4.478-4.336 7.1-9.164 11.294-14.233 3.882-4.653 8.187-11.4 10.423-17.486 3.391-9.23 3.849-18.010 12.205-19.237 12.698-1.886 27.874 11.754 38.783 20.842 9.23 7.693 19.163 13.498 28.433 21.264 9.024 7.59 18.851 10.599 28.256 17.312 5.629 4.021 11.432 4.895 17.241 7.659 5.663 2.623 7.727 7.031 12.1 11.959 7.241 8.078 14.935 11.853 21.786 21.365 4.65 6.471 9.23 10.492 14.233 16.087 5.177 5.839 8.428 12.836 14.377 17.624 5.315 4.336 10.489 7.132 15.353 12.764 6.992 8.078 12.799 14.969 19.163 24.237 2.973 4.336 10.668 8.008 11.647 14.023 0.944 5.805-2.203 7.067-5.564 8.286-7.166 2.623-11.575-0.026-9.548-11.541z"></path>
    <path fill="#000000" d="M997.746 596.114h1.155c-1.92-0.026-4.478 0.944-6.329 0.243-2.941-1.155-5.315-4.928-8.113-6.89-6.749-4.687-13.636-4.369-20.318-10.176-5.487-4.792-10.385-11.541-15.947-16.087-4.509-3.743-8.882-8.045-13.674-10.282-4.091-1.922-7.659-6.82-11.647-8.605-3.5-1.572-6.89 0.702-10.385-1.083-2.481-1.262-5.487-4.687-7.8-6.682-9.548-8.187-18.358-21.823-29.374-18.954-3.006 0.802-2.867-0.7-3.567 4.863-0.49 4.091 0.35 6.222 1.398 9.196 0.942 2.692 2.799 4.722 4.021 6.856 3.462 5.981 5.49 15.422 9.164 20.599 1.923 2.73 4.509 2.658 6.541 4.928 2.586 2.903 4.231 7.379 6.959 10.075 1.821 1.821 3.848 2.799 5.351 5.561 0.737 1.957 1.436 3.987 2.064 6.085 0.909 0.384 1.855 0.737 2.765 1.085 5.177 16.438-13.569 12.518-17.174 12.518-3.984 0-8.359 1.049-12.276 0.092-3.81-0.944-6.19-3.289-10.457-3.36-3.251-0.026-7.132 0.026-7.132 8.187 0.032 7.308 5.805 9.406 5.212 17.486-5.455 2.554-9.058-1.995-13.781-2.864-3.008-0.595-4.928-1.714-7.903-2.903-2.518-1.014-5.005 0.35-7.486-1.014-3.289-1.855-6.749-7.031-10.072-9.479-3.5-2.554-6.19-1.855-9.582-2.799-2.554-0.7-4.197-3.636-6.82-4.091 0.49-3.567 2.973-3.5 4.687-5.631 2.203-2.692 3.848-6.505 5.663-9.965 3.391-6.508 6.783-11.681 10.526-17.065 3.006-4.302 4.478-11.122 7.345-15.596 3.5-5.388 6.085-9.477 8.746-16.366 2.658-6.786 5.388-14.652 8.252-20.387 2.973-5.946 6.19-14.476 10.668-15.772 3.182-0.944 7.066 0.065 10.35 0.175 5.177 0.151 9.024 5.139 14.023 7.379 4.478 2.027 8.045 5.596 12.277 8.359 4.16 2.728 8.078 2.516 12.276 6.398 4.128 3.743 8.323 6.786 12.625 9.791 4.408 3.077 8.113 7.693 12.205 10.633 5.422 3.848 10.176 12.412 15.879 15.735 5.28 3.077 7.415 2.973 11.819 10.563 4.233 7.377 8.777 13.219 13.883 17.869 2.206 1.995 6.155 6.607 8.289 7.59 1.608-4.543 4.618-6.155 5.698 3.778z"></path>
    </svg>