<svg xmlns="http://www.w3.org/2000/svg" viewBox="28.607 -64.952 722.268 1168.952">
    <path fill="#000000" d="M325.087 59.189c-3.385 5.157-6.493 10.469-9.289 16.122-1.522 3.075-2.019 6.554-4.006 9.381-1.46 2.144-2.548 2.825-3.418 5.621-1.832 6.027-3.261 12.364-4.938 18.453-1.337 4.845-2.673 8.201-2.113 13.294 0.56 4.938-0.964 10.126-1.522 15.221-2.362 21.185-0.155 49.14 11.212 68.214 4.225 7.112 10.034 12.861 16.247 17.986 5.777 4.783 12.207 8.635 15.717 15.748 3.106 6.306 5.56 11.618 11.619 15.562 7.207 4.721 15.686 4.069 23.576 3.045 11.99-1.553 23.856-5.281 35.66-7.92 14.383-3.231 25.999-8.17 36.873-18.67 4.97-4.783 10.25-9.504 14.847-14.723 4.474-5.095 7.331-11.494 11.494-16.899 8.139-10.562 9.475-27.024 9.971-40.164 0.249-5.995 2.579-11.277 4.318-16.867 2.733-8.729 4.628-18.576 3.168-27.926-1.117-6.959-2.019-12.487-0.56-19.383 3.076-14.381-1.676-28.391-12.548-38.207-6.554-5.934-12.799-12.177-19.197-18.359-6.306-6.087-13.791-9.971-21.867-12.487-8.729-2.703-17.054-6.554-25.752-9.413-5.466-1.77-11.524-0.117-17.052-0.117-5.623 0-10.438-0.679-16.029 0.528-5.902 1.275-10.623 5.748-16.433 7.021-1.427 0.316-2.92 0-4.379 0.375-4.721 1.019-9.567 4.504-13.45 7.33-5.405 3.945-9.475 9.786-13.575 15.159-3.012 3.945-5.871 7.921-8.572 12.053z"></path>
    <path fill="#000000" d="M329.251 389.822c-8.821 4.442-4.535 24.572-3.79 31.933 0.468 4.285 1.18 7.454 2.299 11.4 1.988 6.926 2.361 14.599 3.418 21.713 2.328 15.5 4.783 30.969 7.423 46.407 1.615 10.312 1.833 20.689 0.622 31.063-1.243 10.126-2.362 20.284-3.324 30.441-0.56 12.239-0.654 24.509-0.28 36.779 0.529 10.405 0.28 20.843-0.808 31.218-1.336 7.58-2.951 15.095-4.846 22.551-2.702 18.048 1.429 36.623 5.157 54.143 3.136 14.971 6.74 29.665 10.187 44.575 3.665 15.81 3.48 31.932 8.015 47.526 3.883 13.388 7.114 26.745 9.381 40.475 0.808 5.064 1.492 10.158 2.050 15.252 2.082 7.332 4.288 14.632 6.648 21.868 7.424 27.584 3.851 53.056 0.28 80.856-0.87 6.898-2.237 12.333 0.059 18.979 1.429 4.164 3.106 8.203 4.442 12.426 0.87 2.827 2.796 8.014 3.355 10.469 0.962 4.1 0.497 8.698 0.435 12.953-0.024 3.572 0.683 8.852 3.976 11.151-1.055-5.342 1.771-11.276 1.925-16.711 0.249-8.512 0.652-15.5 2.236-23.825 2.486-13.328 8.76-23.422 13.17-35.973 4.132-11.68 5.748-23.793 7.673-35.877 2.579-15.965 1.336-32.399 3.851-48.613 1.895-12.115 2.92-23.732 5.592-35.722 1.77-7.952 3.602-15.687 6.367-23.39 3.448-9.567 8.48-17.674 10.064-27.771 1.211-7.858 1.086-15.872 1.399-23.793 0.278-7.797 1.49-15.502 1.801-23.298 0.405-10.435-0.094-20.999-0.094-31.434 0-12.922-0.403-25.875 0.435-38.767 0.87-13.668 0.839-27.678 5.313-40.693 3.602-10.531 7.578-21.744 7.89-32.956 0.31-10.563-0.082-21.218-0.117-31.747-0.024-11.525 2.33-23.111 1.864-34.573-0.405-10.809-1.274-21.62-0.994-32.585 0.528-24.228 2.361-48.364 4.379-72.47 0.435-5.25 1.925-14.198-0.591-18.919-3.759-7.144-9.973-7.951-17.148-5.219-7.641 2.921-12.487 5.375-20.563 5.313-7.269 0-14.538 0-21.807 0-7.361 0-15.437 0.996-22.645-0.375-4.907-0.925-9.132-1.367-14.165-1.336-7.796 0-15.592 0-23.39 0-3.447 0-7.269-0.433-10.685 0-2.236 0.246-8.449 2.452 3.541-3.388z"></path>
    <path fill="#000000" d="M139.142 372.303c0.405-0.117 0.87-0.222 1.336-0.282 7.238-1.213 14.631-1.771 21.93-3.013 5.809-0.996 11.743-3.106 17.085-5.623 8.543-4.037 17.893-5.808 26.839-8.883 11.431-3.914 24.756-5.219 34.542-12.394 7.983-5.87 19.259-8.044 28.671-10.748 13.824-3.914 27.771-6.772 41.345-11.555 12.333-4.35 24.353-8.076 37.183-10.78 8.231-1.707 15.439-4.69 23.235-7.734 6.088-2.361 11.649-2.298 18.079-3.137 9.752-1.243 19.415-4.659 28.825-7.486 11.37-3.385 21.836-2.827 33.299-4.068 12.611-1.399 24.074-5.405 36.934-5.591 4.815 0 10.032 0.562 14.879-0.222 5.715-0.937 11.057-4.039 16.991-3.696 4.411 0.246 8.201 2.889 12.641 3.292 3.697 0.34 7.238-0.808 10.779-1.708 19.197-4.939 41.81-9.319 57.901-20.627 5.654-3.913 12.457-4.411 18.98-5.746 6.369-1.275 11.929-3.324 17.923-5.622 2.889-1.090 10.469-3.79 14.134-2.392 3.045 1.179 2.734 3.23 3.882 5.777 2.424 5.405 7.983 10.312 9.133 16.030 1.46 7.33-0.155 15.965 0.529 23.482 0.714 7.952 2.328 15.748 3.106 23.67 1.552 16.059 1.273 33.828-2.081 49.545-0.932 4.257-1.523 8.325-1.46 12.704 0 1.523 0.868 4.504-0.249 5.748-1.305 1.461-11.4 0.304-13.109 0.304-9.319 0-18.079 2.175-27.242 3.231-6.554 0.75-13.015 0.433-19.508 1.832-18.016 3.852-35.194 9.972-53.552 12.612-14.755 2.111-29.479 4.38-44.203 6.647-16.65 2.548-33.393 2.578-50.042 4.877-28.858 3.976-56.722 15.252-84.988 22.086-4.411 1.054-8.729 2.391-13.015 3.79-13.233 4.316-26.653 10.281-40.724 10.965-8.574 0.433-16.866-2.485-25.44-1.925-12.55 0.832-22.428 8.977-34.356 12.020-10.934 2.797-22.209 3.696-33.299 5.685-8.418 1.49-16.494 3.666-25.068 3.882-11.431 0.316-22.334 3.883-33.579 3.293-5.685-0.304-11.12 1.336-16.152 3.851-3.448 1.771-7.829 4.846-11.743 5.499-4.13 0.75-7.021-1.46-10.622-3.23-6.523-3.295-14.010-7.051-17.893-13.481-2.391-3.977-0.776-5.934 0.498-10.438 1.46-5.095 1.149-12.704 3.757-17.27 1.025-1.771 2.144-1.585 3.138-3.324 1.397-2.361 1.615-6.584 2.33-9.256 3.169-11.96 6.646-23.794 10.312-35.599 1.988-6.335 1.678-13.139 8.108-15.003z"></path>
    </svg>