<svg xmlns="http://www.w3.org/2000/svg" viewBox="52.612 -18.415 899.871 1058.419">
    <path fill="#000000" d="M799.012 668.091c-5.113-4.835-11.409-8.418-16.591-13.181-2.471-2.294-4.592-5.392-7.271-7.408-4.487-3.41-12.070-1.113-16.868 0.523-6.573 2.261-13.565 2.958-19.93 6.086-5.286 2.611-9.46 4.245-14.365 0.523-5.845-4.382-11.27-10.087-16.592-15.097-3.929-3.686-8.729-6.294-12.312-10.26-9.183-10.191-21.114-17.878-31.235-27.13-17.947-16.383-36.382-32.173-53.809-49.148-7.549-7.338-14.157-15.442-21.357-23.095-4.137-4.382-8.312-8.104-13.251-11.478-1.426-1.007-4.627-1.74-3.999-4.070-10.784 4.002-8.279 5.252-6.922 6.957 1.669 2.020 2.781 4.519 4.207 6.713 2.261 3.476 3.721 7.512 6.086 10.921 1.532 2.157 3.827 4.002 5.496 6.017 4.417 5.355 8.487 11.201 12.555 16.801 6.957 9.566 14.575 18.539 21.566 28.035 15.86 21.529 31.339 43.374 47.026 65.042 3.721 5.112 7.096 10.017 9.636 15.897 1.355 3.095 2.471 4.939 4.521 7.826 3.444 4.904 7.165 12.139 7.757 18.192 0.348 3.512-1.391 5.46-2.783 8.52-2.401 5.323-3.199 11.548-5.009 17.079-1.043 3.131-2.016 6.192-1.53 9.566 0.523 3.618 1.218 3.059 4.557 4.835 2.991 1.603 6.783 3.476 9.148 5.877 4.14 4.207 7.13 10.052 10.992 14.609 2.157 2.537 2.711 5.115 4.521 7.581 0.904 1.254 0.592 2.715 2.783 2.4 3.791-0.553 6.922-9.774 9.46-12.592 1.949-2.189 5.147-6.886 7.581-8.348 2.295-1.355 5.078-2.121 7.549-3.618 12.453-7.479 26.4-16.105 36.939-26.053 9.809-9.252 18.539-20.069 25.809-31.339 2.295-3.58 6.363-7.896 7.549-12.069 0.8-2.921 0.096-3.2-1.913-5.115z"></path>
    <path fill="#000000" d="M407.224 520.163c-5.323 4.313-11.409 7.512-16.417 12.243-7.061 6.643-12.835 14.609-19.688 21.495-8.591 8.66-18.47 15.652-27.234 24.139-5.565 5.392-12.035 9.67-17.809 14.819-5.217 4.59-11.062 8.45-16.278 13.078-2.574 2.261-5.184 4.245-7.861 6.4-1.912 1.53-4.799 2.748-6.363 4.627-1.253 1.566-1.81 3.269-3.060 4.87-4.905 6.261-13.149 11.723-19.443 16.695-3.652 2.852-7.618 5.148-11.165 8.104-2.991 2.469-5.461 4.974-8.869 6.853-1.356 0.764-1.705 0.66-2.958 1.771-3.199 2.821-1.599 3.269-5.739 1.566-8.034-3.375-17.148-4.45-25.357-7.721-4.174-1.672-6.539-4.171-10.746-1.74-6.783 3.933-12.243 10.853-16.731 17.148-2.922 4.176-8.626 8.244-9.497 13.392-0.486 2.611-1.147-0.183 0.147 3.2 0.973 2.641 5.739 6.47 7.512 8.66 4.382 5.355 8.939 9.634 12.313 15.756 2.121 3.897 4.696 7.548 7.826 10.886 13.634 14.504 24.939 31.651 40.243 44.486 7.061 5.914 13.739 11.131 21.877 15.305 3.199 1.634 6.365 3.479 9.391 5.425 1.773 1.182 5.043 4.939 6.922 5.254 5.078 0.764 6.365-6.331 10.193-9.219 5.182-3.928 11.165-5.774 17.703-6.017 2.887-0.091 8.975 0.091 10.366-2.89 1.426-3.2-0.115-10.435-0.147-13.773 0-2.157-0.147-4.382-0.063-6.541 0.063-2.051 2.087-6.783 1.426-8.73-0.147-0.367-1.463-1.182-1.775-1.497-4.696-4.799-11.305-7.651-15.964-12.661-4.487-4.835-6.643-10.782-9.705-16.485-1.532-2.821-2.817-4.593-3.027-7.861-0.416-6.156 0.243-9.948 3.758-15.305 5.531-8.487 11.755-16.313 17.878-24.347 5.845-7.618 11.305-15.617 17.323-23.095 2.956-3.618 6.363-6.749 9.356-10.331 4.627-5.425 8.244-11.547 12.765-17.043 2.051-2.504 3.236-5.147 5.078-7.827 2.26-3.306 5.425-6.122 7.477-9.566 2.297-3.897 3.13-8.104 6.053-11.755 3.689-4.627 6.053-8.903 9.149-14.018 4.034-6.713 9.112-13.217 13.808-19.512 2.401-3.2 4.627-5.947 6.261-9.668 1.183-2.715 2.991-4.974 4.174-7.548 2.922-6.4 4.87-13.671 3.375-15.305-3.409 0.87-3.929 2.225-6.469 4.281z"></path>
    <path fill="#000000" d="M871.656 346.891c0-7.165 0.147-13.74-1.183-20.73-1.6-8.383 0.279-17.217-0.486-25.67-0.731-8.279-1.391-15.897-1.391-24.278 0.033-9.844 0-19.722 0-29.564v-31.445c0-6.086 1.216-13.425-0.147-19.373-7.096-0.975-19.235-1.566-25.149 3.027-4.731 3.654-6.192 10.227-8.765 15.303-1.671 3.375-4.417 5.949-6.541 9.044-3.756 5.461-6.608 11.825-10.052 17.531-3.999 6.747-10.956 12.592-12.416 20.661-7.165 1.393-15.513 0.23-22.817 0.23h-86.434c-13.183 0-26.367 0-39.548 0-15.652 0-31.027 1.566-46.642 1.53-19.096-0.033-38.227 0-57.357 0 1.253-8.45 2.018-16.905 3.409-25.355 3.164-19.341 6.363-38.957 6.122-58.575-0.175-11.199 1.008-21.25 3.095-32.243 1.461-7.651 1.81-15.444 3.025-23.131 1.218-7.581 4.731-6.783 10.956-9.148 4.557-1.74 8.836-4.519 13.496-5.915 4.035-1.182 9.009-1.497 12.104-4.729-1.949-6.086-7.443-11.861-10.956-17.115-2.922-4.414-6.192-11.059-10.329-14.642-4.315-3.791-11.827-2.261-17.184-3.2-7.965-1.423-16.348-3.375-24.417-3.654-6.435-0.23-12.941 0.137-19.373 0.137-14.367-0.033-28.764 0-43.131 0-23.721-4.002-34.224 0.558-45.424 2.679-4.835 0.906-9.74 1.53-14.609 2.261-4.662 0.695-5.009 0.183-6.016 4.139-0.487 1.946 0.211 4.87 0.211 7.026 0 6.053-0.523 12.069-1.148 18.123-0.765 7.338-3.060 15.060-1.634 22.468 2.644 13.601 23.062 6.053 33.285 8.73 5.88 1.566 12.418 2.157 16.731 7.061 3.375 3.791 1.74 9.984 1.74 14.991 0.033 14.226 0.147 28.313-1.393 42.399-1.773 16.174-0.175 33.601-0.147 49.845 0.033 5.635-0.243 11.165-0.592 16.729-8.973-0.623-17.913-0.413-27.026-0.413-34.643 0-69.112-0.23-103.722-1.672-16.521-0.695-32.765-1.393-49.321-1.393h-46.956c-16.939 0-34.643 2.051-50.922-3.339-0.486-4.418-3.13-7.826-3.303-12.419-0.243-5.182 0.243-10.435 0.096-15.617-0.063-2.124 0.063-13.321-1.879-15.477-1.53-1.634-3.581-0.764-5.495-0.274-3.095 0.802-5.461 1.012-8.695 1.251-5.67 0.457-10.992 2.715-16.592 3.686-3.511 0.591-8.903-0.137-11.825 2.124 0 1.771 0.385 3.479 1.148 5.113 0.416 2.362 0.523 4.766 0.312 7.13 0.486 2.89 1.253 5.323 1.599 8.279 0.765 7.234 1.496 13.914 1.532 21.287 0 23.303 1.738 46.887-2.644 69.878-0.904 4.662-2.573 9.217-3.236 13.912-1.008 7.234-0.522 15.236-0.348 22.505 0.211 7.514 1.218 14.889 2.018 22.365 0.147 1.323-0.063 12.453 2.573 13.634 1.463 0.665 3.201-0.367 4.696-0.137 1.601 0.23 3.374 1.149 4.939 1.634 5.461 1.708 6.957 2.89 9.599-2.989 2.122-4.731 3.792-8.905 5.565-13.741 1.461-3.897 4.207-6.992 5.635-10.886 0.8-2.225 1.010-4.207 2.087-6.365 5.115-10.435 9.566-21.042 12.313-32.277 1.183-4.73 3.236-8.208 5.808-12.173 2.401-3.722 2.991-7.234 7.34-9.358 2.434-1.182 6.121-1.74 9.079-2.261 3.478-0.591 6.713-0.137 10.227-0.23 4.243-0.091 8.312-1.149 12.523-1.497 16.383-1.286 33.495-0.137 49.913-0.137h76.347c18.192 0 36.452 0.413 54.644 0.137 12.21-0.23 24.21-2.261 36.382-2.921 4.070-0.23 8.14-0.32 12.208-0.32-0.38 5.115-0.348 10.262-0.939 15.34-0.869 7.826-2.503 15.511-3.199 23.373-1.079 11.862-2.331 24.243-2.679 36.139-0.175 6.086 0.869 11.515-1.463 17.253-0.731 1.74-1.147 2.748-1.565 4.627-1.53 6.783-0.063 17.076-4.137 22.991-1.981 2.885-6.053 4.245-8.939 5.984-3.999 2.362-7.271 4.346-11.755 6.122-4.243 1.667-12.21 1.076-13.531 6.051-1.253 4.731 0.115 11.792 0.115 16.625 0 3.342-1.634 12.523 0.211 15.028 1.773 2.436 7.443 2.436 10.297 3.164 10.644 2.715 21.183 0.23 31.72 2.088 5.286 0.906 5.984 2.299 4.905 7.479-1.565 7.756-2.711 14.887-2.711 22.852 0 26.228-0.8 52.591-0.063 78.783 0.592 21.287 5.495 42.121 7.791 63.2 1.287 12 2.958 24.731 6.4 36.35 2.331 7.896 5.357 15.86 7.026 23.894 1.253 6.086 1.043 12.347 2.052 18.435 0.869 5.078 2.33 9.636 3.929 14.539 5.947 18.713 7.026 38.087 12.486 56.87 5.878 20.173 11.688 40.487 16.731 60.905 3.652 14.85 6.643 30.051 11.409 44.59 2.471 7.618 6.086 14.783 8.52 22.435 1.463 4.627 2.783 9.183 4.592 13.671 0.695 1.74 4.207 11.653 6.053 12.139 1.738-4.59 3.095-9.148 3.373-13.948 0.348-6.192 2.261-12.347 3.236-18.364 0.454-2.958-0.486-5.705 0.243-8.73 0.592-2.4 0.869-3.933 1.147-6.365 0.243-2.189 1.183-2.611 1.671-4.487 0.454-1.845-0.348-4.139-0.175-6.051 0.348-3.722 1.601-7.026 1.634-10.817 0.033-2.989-0.033-5.984-0.033-8.939v-69.288c0-10.537-0.211-20.591 1.981-30.99 0.871-4.171 0.871-7.687 1.043-11.861 0.243-5.252 1.704-10.191 1.634-15.547-0.096-7.373 0.279-14.33 1.148-21.671 0.834-6.992-0.096-13.946 0.661-20.938 0.731-6.47 1.079-12.556 1.148-19.061 0.096-7.548 1.461-14.922 1.669-22.435 0.765-28.695-1.216-56.939-3.478-85.46-0.834-10.436-2.679-20.661-3.897-31.027-1.53-13.287-2.503-26.538-5.009-39.722-1.808-9.566-4.868-20.487-2.851-30.331 3.895-1.218 9.599-0.23 13.739-0.23 12.383 0.091 23.931-2.157 36.070-4.245 0.871-0.137 10.052-0.728 11.095-2.157 1.079-1.461 0.211-8.14 0.211-9.183 0-4.904 0-9.774 0-14.642-0.033-2.679 0-5.392 0.096-8.071-1.113-1.946-1.669-1.982-3.929-2.852-4.974-1.913-10.052-3.407-14.852-5.843-6.017-3.095-11.235-5.496-18.017-6.713-8.348-1.533-14.609-2.088-22.33-5.635-2.783-1.286-10.923-2.436-12.802-5.321-1.285-1.982 0.626-5.286 0.973-7.202 0.765-3.966 1.010-8 1.879-11.963 0.939-4.139 2.679-7.826 3.791-11.931 1.393-5.147 0.834-10.609 0.834-15.93 0-11.654-1.079-23.723 0.348-35.27 1.148-9.218 2.331-18.435 3.513-27.652h1.948c11.894 0 23.723 0.457 35.548-1.113 11.2-1.461 22.331-2.715 33.635-3.479 7.581-0.485 15.407-1.355 22.956-2.641 11.931-2.020 23.478-1.913 35.581-1.951 29.67 0 59.375 0 89.045 0 12.869 0 30.747-2.679 42.469 4.176 7.721 4.557 7.895 15.582 10.644 23.27 2.018 5.774 4.035 11.512 6.192 17.286 2.295 6.017 2.574 11.862 5.705 17.739 1.496 2.816 3.339 6.504 6.086 8.418 3.026 2.051 4.382 0.591 7.757-0.091 9.113-1.809 18.608-1.497 27.826-3.654 0.903-6.433 0.063-13.6 0.063-20.139z"></path>
    </svg>