<svg xmlns="http://www.w3.org/2000/svg" viewBox="16.623 15.997 997.246 992.222">
    <path fill="#000000" d="M772.461 528.455c-20.178 9.549-40.947 20.769-59.769 32.6-8.9 5.563-18.896 8.643-27.556 14.67-8.362 5.805-15.427 13.111-22.289 20.621-1.131-1.944-4.583-2.166-5.564 0.612-6.397 18.598 10.832 44.266 18.506 60.972 5.954 13.020 14.464 24.386 20.639 37.33 7.827 16.337 13.241 33.194 19.342 50.217 9.18 25.964 23.199 49.979 32.139 75.958 4.228 12.183 8.362 24.386 11.46 36.959 2.095 8.569 8.344 20.083 9.718 29.893-5.656-6.787-8.9-17.32-13.111-23.94-6.861-10.773-16.189-19.655-23.124-30.262-13.612-21.085-29.802-41.113-42.448-62.718-11.757-20.104-27.409-37.109-38.926-57.284-10.31-18.21-19.339-39.517-32.526-56.375l-0.151-0.163c-1.874-3.023-3.839-5.88-5.934-8.587-6.936-9.107-16.487-9.496-27.556-12.053-31.099-7.066-62.57-10.459-94.335-13.020-16.487-1.28-33.492-2.633-49.699-6.471-17.005-4.063-33.342-10.238-50.497-13.852l-4.080-0.76c-9.698-3.374-19.416-6.546-29.282-8.958l-3.617-0.965c-3.764-2.113-7.603-4.226-11.739-5.191-2.707-0.612-5.192-0.76-7.603-0.488-3.171-0.592-6.102-0.91-8.587-0.592-7.898 0.965-15.725 9.848-21.975 14.519l-4.973 3.614c-12.277 5.119-20.639 14.984-32.080 21.531-16.709 9.718-33.492 18.675-49.755 29.356-7.157 4.671-14.685 8.956-22.439 12.868l-1.817 0.91c-3.301 1.723-6.695 3.322-10.069 4.822-4.934 2.243-9.939 4.232-14.93 6.214-14.836 5.712-30.115 10.238-45.229 13.648 1.8-2.32 9.402-10.386 10.014-10.979 6.325-5.953 12.499-12.5 18.358-18.972 11.905-13.332 20.639-28.909 34.789-40.129 23.274-18.432 43.284-39.741 65.128-59.768 9.030-8.197 17.3-18.506 25.071-27.781 5.636-6.767 17.375-19.339 18.878-28.594 0.315-1.892 0.098-3.987-0.369-6.101 2.633-2.113 2.335-5.342 2.189-9.346-0.445-13.462-3.764-26.554-3.691-40.41 0.075-15.816-2.039-32.231-7.011-47.196-0.592-1.892-1.502-7.919-2.855-8.439l-1.058-4.524c39.241 9.939 81.167 11.681 121.057 18.452 21.011 3.543 41.706 9.641 62.718 12.572 24.775 3.467 49.087 4.675 73.621 10.386 22.978 5.417 47.067 5.805 70.246 10.384 21.529 4.301 42.614 7.827 64.514 8.808 23.641 1.133 45.692 6.622 68.816 10.68 18.878 3.322 38.016 0.835 56.912 4.897 3.466 0.76 6.249-4.507 2.559-6.176l-0.761-0.27v-0.055l-0.222-0.055c-26.575-12.034-55.262-15.799-83.413-22.809-31.025-7.753-62.718-12.871-93.89-20.326-59.769-14.372-122.857-9.549-182.941-22.347-30.413-6.49-60.212-14.686-90.626-21.158-9.42-1.968-24.406-8.122-35.847-8.214l1.817-1.187c13.241-7.233 25.961-16.727 39.37-24.164 14.91-8.288 29.725-16.725 44.265-25.76 27.26-16.78 56.096-31.69 81.835-50.811 26.797-19.953 53.372-40.501 79.574-61.343 11.515-9.106 23.792-17.321 34.4-27.556 5.34-5.191 9.642-11.979 16.875-9.79 7.215 2.259 8.495 12.127 11.813 18.896l2.931 0.541c2.113 3.076 3.933 5.49 4.598 6.324 11.293 13.538 20.104 28.984 31.246 42.374 22.347 26.797 44.561 53.907 68.946 78.887 24.775 25.443 49.699 49.755 76.421 73.249 13.704 12.034 25.89 24.997 40.502 36.124 15.669 11.831 27.019 24.85 40.424 38.406-31.766 30.783-78.293 49.069-117.366 67.668zM931.753 440.107c-1.502-3.299-6.92-6.621-11.127-9.106-2.948-2.71-6.026-5.266-7.677-6.991-2.355-2.488-20.102-18.080-22.734-18.526l-1.002-0.76-0.151-0.163c-17.913-17.544-40.186-32.435-58.637-48.624-26.129-22.959-51.721-50.145-73.621-77.312-23.794-29.504-46.62-61.734-67.224-93.574-9.866-15.282-18.006-31.693-27.872-47.046-8.418-13.241-13.704-28.076-22.588-41.022l-2.391-0.986c-12.277 4.897-22.533 15.282-32.75 23.422-18.453 14.815-37.124 28.965-56.69 42.298-29.817 20.249-60.845 37.868-89.214 60.141-32.676 25.831-63.997 54.575-99.064 77.238-16.877 10.921-34.418 19.194-52.184 28.224-7.975 4.079-14.15 9.124-18.896 15.893v-0.216l-2.042-0.216c-0.813 2.633-2.243 4.209-4.358 5.935l-3.543 2.946-0.075 0.055v0.055l-0.075 0.667-0.373 0.163c-10.848 7.085-17.765 9.347-25.219 20.492-7.455 10.979-10.238 21.067-14.39 33.417-11.59 34.473-33.566 64.812-48.402 97.784-14.983 33.194-27.704 66.834-43.895 99.509-13.48 27.333-26.425 55.801-41.556 82.355l-0.075 0.055-1.723 1.723c-1.449 1.523-3.987 2.633-5.045 4.453v0.055l-0.537 0.763c1.671 19.788 11.443 20.695 28.392 28.67 22.512 10.702 42.985 16.115 67.983 19.212 49.829 6.249 97.711 20.305 145.815 34.548 51.499 15.261 99.379 42.448 150.209 60.288 49.755 17.395 101.623 27.482 151.84 43.060 25.591 7.975 49.979 15.802 74.977 25.517 12.499 4.897 25.145 9.18 37.72 13.852 10.238 3.911 21.011 9.864 32.080 9.642 2.559-0.055 4.358-3.244 2.931-5.266 1.892-4.058 3.395-8.214 4.748-12.499l0.298-0.541c5.935-10.238 11.739-21.067 16.413-31.989 9.107-21.38 16.783-43.653 23.644-65.944 17.912-58.338 34.178-116.53 49.085-175.687 7.827-30.934 15.802-61.885 23.183-92.963 5.561-23.496 11.515-47.214 16.411-70.766 2.189-5.584 4.358-11.071 6.249-17.024 1.427-4.507 5.268-10.681 3.153-15.282z"></path>
    </svg>