<svg xmlns="http://www.w3.org/2000/svg" viewBox="11.932 -20.760 1000.324 1061.995">
    <path fill="#000000" d="M575.903 935.921c-16.552-14.147-37.736-32.381-47.075-40.521s-16.982-12.831-16.982-10.428c0 2.403-3.335 1.035-7.411-3.040-8.996-8.996-43.315-9.546-73.449-1.176-39.951 11.097-119.356 22.947-142.358 21.244-12.39-0.917-28.535-4.883-35.876-8.813-19.405-10.385-14.658-36.529 9.003-49.585 12.523-6.91 18.526-14.98 18.526-24.905 0-12.927-4.231-15.531-35.365-21.766-19.452-3.897-36.124-6.366-37.051-5.489s-6.616-4.997-12.643-13.055c-10.75-14.374-10.605-14.965 7.72-31.292 10.271-9.152 18.676-20.279 18.676-24.724 0-9.252-31.074-26.926-47.344-26.926-22.959 0-63.808-20.069-63.808-31.351 0-13.196 7.637-18.655 33.425-23.893 17.521-3.559 19.638-6.763 26.156-39.564 11.081-55.771-7.597-132.774-39.341-162.193-23.643-21.912-38.675-46.198-38.723-62.562-0.051-17.647 7.62-17.395 48.43 1.603 57.415 26.728 59.185 17.607 7.105-36.627-20.377-21.221-37.051-41.823-37.051-45.779 0-11.924 16.456-8.14 35.959 8.273 21.054 17.717 101.204 58.634 114.852 58.634 34.658 0 12.145-83.895-42.875-159.768-14.273-19.683-15.337-31.661-2.811-31.661 3.077 0 15.090 8.337 26.695 18.526 25.159 22.090 43.917 25.205 20.371 3.382-17.459-16.18-21.698-34.258-8.034-34.258 4.569 0 13.335 5.558 19.482 12.351 16.527 18.262 90.845 17.555 129.512-1.23l27.953-13.581 0.095-34.277c0.115-41.090 3.941-48.193 30.007-55.668 22.883-6.562 38.217 4.473 54.074 38.913 4.945 10.741 15.816 28.971 24.159 40.509s15.169 25.79 15.169 31.665c0 15.020 17.584 55.418 24.123 55.418 7.355 0 12.929-15.866 12.929-36.799 0-17.392 13.097-34.498 20.638-26.957 2.235 2.234 4.064 18.215 4.064 35.511 0 24.76 2.626 33.089 12.351 39.162 7.357 4.595 12.429 14.556 12.547 24.642 0.249 21.492 14.847 41.199 27.050 36.518 5.122-1.967 15.676-13.395 23.454-25.399 13.983-21.583 29.705-29.197 29.44-14.259-0.070 4.246-5.571 14.665-12.214 23.157-21.572 27.578-12.812 55.576 17.389 55.576 22.688 0 69.585-38.402 93.764-76.783 20.337-32.282 29.726-39.638 38.893-30.471 4.389 4.389-22.578 54.165-39.92 73.687-14.274 16.070-14.483 35.052-0.518 47.315 19.649 17.255 34.53 17.101 72.557-0.756l37.051-17.397 1.939 24.656c1.644 20.885-1.19 27.912-18.526 45.954-11.256 11.713-32.387 28.338-46.958 36.941-30.703 18.131-42.864 39.179-65.469 113.301-20.697 67.865-20.324 78.102 3.735 102.926 18.425 19.009 19.319 21.847 12.549 39.783-6.632 17.571-5.284 22.904 14.94 59.066 24.735 44.232 22.393 54.551-13.791 60.796-39.285 6.781-46.108 13.605-48.937 48.951-1.417 17.692-32.965 19.493-59.427 3.39-30.016-18.264-59.128-31.178-70.287-31.178-22.103 0-21.307 56.071 1.155 81.361 14.511 16.337 7.803 32.598-14.338 34.756-15.161 1.478-25.657-3.592-49.35-23.844zM557.294 730.655c1.999-7.967 14.323-20.238 28.096-27.979 20.83-11.708 24.822-17.256 26.439-36.754 1.661-20.017 4.127-23.219 19.22-24.951 11.257-1.292 19.743-7.313 24.252-17.21 9.884-21.693-4.555-34.321-39.238-34.321-36.496 0-53.074-12.122-43.953-32.139 6.047-13.271 10.144-14.665 38.52-13.108 28.079 1.542 32.508 0.087 38.282-12.585 11.263-24.718 1.356-44.844-29.127-59.171l-27.664-13.003v-38.798c0-42.802-3.088-46.293-40.95-46.293-11.779 0-29.75-4.31-39.937-9.579-17.262-8.926-19.931-8.708-39.22 3.213-25.871 15.99-27.22 19.691-23.751 65.205 2.779 36.449 2.367 37.62-23.868 67.858-14.682 16.922-31.873 34.605-38.202 39.294-14.368 10.646-28.728 44.182-28.728 67.091 0 25.304 15.947 44.798 36.645 44.798 20.405 0 28.293 8.127 34.054 35.080 7.635 35.724 30.653 41.087 46.805 10.906 14.605-27.289 49.226-16.201 49.226 15.766 0 29.17 26.599 42.58 33.099 16.684zM480.971 590.444c0-20.544-2.084-25.241-10.806-24.353-33.145 3.371-43.346-0.405-46.564-17.239-4.993-26.124 5.325-39.717 28.449-37.477 14.967 1.449 20.13 5.221 21.632 15.799 1.085 7.641 5.948 13.895 10.806 13.895 4.986 0 8.919-6.053 9.030-13.895 0.193-13.761 0.29-13.776 9.972-1.544 6.811 8.605 10.656 9.999 12.681 4.593 1.599-4.266 5.327-6.262 8.284-4.433s4.039 6.814 2.401 11.081c-1.637 4.266 5.332 15.717 15.488 25.447 22.157 21.229 19.677 28.502-8.175 23.982-15.845-2.571-22.673-0.583-29.219 8.504-17.176 23.848-23.979 22.611-23.979-4.359zM217.978 609.883c4.959-8.024-3.497-68.817-9.572-68.817-2.923 0-5.314 16.673-5.314 37.051 0 33.365 5.995 46.155 14.889 31.765zM770.545 582.255c3.382-10.766 7.738-30.373 9.679-43.571 3.148-21.417 2.472-23.121-6.286-15.851-22.527 18.697-41.727 75.985-29.548 88.165 6.575 6.575 19.533-7.664 26.157-28.743zM258.666 600.095c0-4.893-2.779-10.616-6.175-12.715s-6.175 1.905-6.175 8.897c0 6.993 2.779 12.715 6.175 12.715s6.175-4.004 6.175-8.897zM271.608 557.862c-16.003-24.984-17.979-7.138-2.447 22.106 8.22 15.477 11.004 17.379 12.839 8.771 1.289-6.046-3.388-19.94-10.392-30.876zM221.615 507.468c0-1.498-2.779-4.441-6.175-6.54s-6.175-0.874-6.175 2.723c0 3.597 2.779 6.54 6.175 6.54s6.175-1.225 6.175-2.723zM434.777 280.168c4.102-16.55 0.412-45.297-5.585-43.503-10.169 3.043-32.611 24.399-36.566 34.797-6.116 16.078-0.151 22.6 20.664 22.6 13.574 0 18.896-3.441 21.487-13.895zM368.774 241.4c6.417-14.083 5.567-16.199-8.673-21.613-17.748-6.748-39.683-7.966-39.683-2.204 0 4.394 32.173 37.448 37.603 38.633 2.002 0.437 6.84-6.231 10.753-14.818zM428.069 188.494c3.171-2.959 3.86-7.281 1.534-9.608-5.148-5.148-35.086 10.068-35.086 17.833 0 6.181 24.565 0.159 33.551-8.225zM866.915 739.124c-19.129-8.009-35.914-29.689-31.63-40.854 8.345-21.747 73.997 6.135 70.603 29.983-2.101 14.749-18.669 19.371-38.972 10.871zM198.075 281.962c-7.431-10.051-13.512-20.553-13.512-23.337s-5.905-9.149-13.123-14.145c-35.756-24.746-39.585-29.564-32.587-41.005 3.729-6.097 15.283-11.773 25.678-12.617 16.454-1.335 21.318 2.247 37.596 27.678 28.195 44.051 33.286 60.842 21.902 72.228-11.977 11.977-10.126 12.605-25.953-8.803zM712.444 232.16c-10.040-16.246 13.294-67.776 30.691-67.776 19.242 0 20.998 14.285 5.421 44.076-15.068 28.816-27.79 37.165-36.113 23.7zM876.177 162.495c0-8.397 5.352-21.829 11.892-29.846 11.291-13.843 12.122-13.984 16.471-2.804 2.697 6.938 0.986 18.149-4.173 27.293-12.145 21.539-24.189 24.205-24.189 5.356zM606.768 135.64c-4.968-19.793 4.060-36.095 19.99-36.095 8.211 0 12.269 5.152 13.668 17.354 3.725 32.488-26.047 49.064-33.657 18.739z"></path>
    </svg>