<svg xmlns="http://www.w3.org/2000/svg" viewBox="-9.571 79.564 1063.143 928.434">
    <path fill="#000000" d="M76.167 921.228c-1.914-3.1-3.99-107.765-4.611-232.587l-1.127-226.949 33.481-47.35c45.233-63.966 61.682-63.45 109.184 3.426 19.837 27.928 34.446 55.413 32.466 61.083-5.594 16.015 10.086 21.017 28.956 9.234 13.459-8.406 19.243-8.466 27.426-0.288 14.188 14.189 32.37 13.049 32.37-2.030 0-6.818 7.615-16.47 16.926-21.453 14.442-7.731 16.926-17.718 16.926-68.118 0-66.46 23.765-117.533 55.006-118.224 22.581-0.498 46.543-19.505 46.543-36.917 0-18.563 41.938-81.491 54.017-81.051 5.201 0.192 25.95 26.848 46.11 59.238 23.934 38.454 42.090 58.891 52.314 58.891 8.61 0 24.336 12.187 34.944 27.086 16.302 22.896 18.922 35.997 16.934 84.71-2.215 54.287-0.87 59.106 23.247 83.223 22.112 22.112 27.858 24.186 42.194 15.234 13.249-8.274 19.334-8.090 30.18 0.911 12.489 10.365 25.828 6.942 25.902-6.653 0.042-8.284 46.746-87.824 61.694-105.077 24.488-28.266 46.242-18.21 82.373 38.082l33.95 52.89-8.8 456.977-173.429-1.17c-139.625-0.944-173.6-3.415-174.309-12.693-1.925-25.174-4.074-25.712-20.309-5.077l-16.851 21.422-250.112-0.567c-137.561-0.336-251.68-3.103-253.597-6.203zM520.488 587.018c0-11.634-1.458-21.156-3.244-21.156s-5.065 9.522-7.29 21.156c-2.226 11.635-0.762 21.157 3.244 21.157 4.012 0 7.29-9.522 7.29-21.157zM678.593 479.652c-2.701-6.75-4.707-4.746-5.113 5.113-0.384 8.922 1.631 13.919 4.444 11.106s3.114-10.11 0.666-16.219zM450.105 335.786c-2.701-6.75-4.707-4.746-5.113 5.113-0.384 8.922 1.631 13.919 4.444 11.106s3.114-10.11 0.666-16.218z"></path>
    </svg>