<svg xmlns="http://www.w3.org/2000/svg" viewBox="73.581 -80.000 527.837 1184.000">
    <path fill="#000000" d="M460.82 135.991c-48.026-29.24-74.8-68.932-89.445-102.364-7.84-17.898-22.090-32.346-33.875-33.627-11.784 1.258-25.344 15.73-33.184 33.627-14.644 33.432-42.109 73.124-90.135 102.364s-56.408 52.217-58.529 79.386c-2.071 27.169 20.906 41.765 20.906 41.765s68.933-23.57 160.941-23.57c91.96 0 160.892 23.57 160.892 23.57s23.027-14.596 20.956-41.765c-2.12-27.169-10.502-50.146-58.529-79.386z"></path>
    <path fill="#000000" d="M337.496 241.664c-69.672 0-125.982 13.516-149.256 20.068-1.328 3.55-2.317 7.296-2.317 11.293 0 18.293 14.94 33.233 33.184 33.233h236.777c18.244 0 33.184-14.94 33.184-33.233 0-3.997-0.992-7.743-2.317-11.293-23.273-6.555-79.583-20.068-149.255-20.068z"></path>
    <path fill="#000000" d="M422.967 456.859c0 0-116.663 11.531-170.951 77.413v-110.648c0 0 61.191-75.342 170.951-69.572zM422.967 682.838c0 0-116.663 11.587-170.951 77.413v-110.647c0 0 61.191-75.343 170.951-69.574zM422.967 908.077c0 0-116.663 11.531-170.951 77.413v-110.697c0 0 61.191-75.293 170.951-69.525zM241.661 1024h191.71v-704.958h-191.71z"></path>
    </svg>