<svg xmlns="http://www.w3.org/2000/svg" viewBox="40.208 -16.382 958.210 1056.383">
    <path fill="#000000" d="M764.445 147.765c-0.907-1.67-1.308-3.669-2.325-5.305-2.216-3.634-7.993-7.557-11.373-10.245-8.465-6.685-18.785-12.572-28.595-17.223-7.085-3.343-14.243-6.358-21.363-9.52-7.667-3.415-16.060-4.032-24.126-5.451-8.975-1.526-18.495-3.778-27.577-4.252-5.813-0.287-11.517-1.382-17.296-1.707-6.613-0.383-13.263 0.617-19.838-0.049-5.777-0.583-12.499-1.128-18.13-2.434-5.305-1.272-9.919-4.104-15.043-5.886-5.487-1.889-9.411-3.311-14.46-6.178-7.268-4.142-16.678-6.723-24.598-9.555-10.719-3.85-23.727-6.032-35.173-5.959-17.44 0.095-34.736-0.383-52.102 1.272-6.794 0.655-13.551 0.981-20.346 2.033-7.595 1.162-19.186 1.344-26.125 4.505-5.631 2.578-10.681 7.413-16.168 10.428-7.847 4.286-14.28 6.94-20.237 13.517-9.7 10.717-24.491 19.984-37.351 26.668-7.158 3.669-14.861 5.45-21.983 9.374-7.739 4.286-15.623 8.248-23.326 12.497-14.752 8.141-28.849 15.516-44.873 21.037-5.268 1.817-10.138 4.214-15.151 6.541-5.524 2.578-11.845 4.252-16.933 7.737-7.885 5.414-17.731 9.992-24.525 16.678-3.125 3.089-6.503 8.539-8.72 12.355-2.398 4.176-1.053 8.9-2.18 13.517-1.525 6.321-4.069 13.19-6.178 19.366-2.325 6.796-4.179 13.626-6.867 20.31-2.945 7.341-8.25 11.991-12.028 18.785-4.977 8.938-10.755 17.877-14.825 27.178-5.595 12.753-8.465 25.361-10.717 39.024-2.542 15.333-3.705 32.518-2.036 48.069 1.345 12.862 7.45 25.252 14.497 36.044 9.010 13.77 16.895 28.738 26.996 41.855 2.18 2.87 4.578 7.013 7.484 9.192 2.542 1.889 6.613 3.453 9.447 5.159 4.867 2.942 8.538 2.071 14.061 2.578 5.27 0.511 10.138 2.544 15.333 3.195 17.004 2.219 34.191 4.869 51.268 2.401 19.439-2.836 43.273-8.503 62.094-0.727 18.459 7.594 31.248 22.017 51.92 24.815 14.389 1.961 30.049 0.335 44.545 0.335 5.197 0 10.354 0.144 15.552 0 5.050-0.144 7.448-1.927 12.135-4.473 5.813-3.195 13.042-5.558 19.692-6.794 4.613-0.871 8.793 0 13.261-0.837 4.725-0.837 8.868-1.306 13.699-1.272 10.138 0.035 23.946 2.434 33.32-2.037 7.231-3.453 6.503-8.393 6.393-15.369-0.035-3.96-0.907-7.375-1.781-11.228-1.090-4.649-2.653-6.069-6.685-9.846-5.013-4.687-10.354-9.593-15.841-13.698-2.763-2.033-2.835-2.544-4.288-5.487-4.179-8.72-5.232-18.42-7.557-27.796-4.361-17.403-5.341-33.244 4.288-49.342 6.358-10.682 16.457-19.329 24.633-28.74 2.398-2.798 6.178-7.958 10.537-7.231 1.017 2.434-0.326 2.87-1.6 5.015-4.578 7.847-9.591 15.042-12.86 23.616-3.307 8.647-5.232 21.582-0.691 30.121 7.010 13.226 16.35 26.089 17.041 41.167 0.254 5.631-0.51 11.335-0.254 16.968 0.326 6.321 3.053 11.408 5.777 16.968 2.943 5.957 4.94 12.354 8.175 18.204 11.081 19.947 29.939 32.301 51.811 38.913 12.173 3.669 26.743 1.563 39.459 1.563 7.195 0 13.771-0.095 20.857-1.306 3.233-0.583 6.393-0.144 9.591-0.727 2.18-0.43 3.089-1.563 5.85-1.344 3.634 0.287 7.012 1.526 10.393 2.942 4.94 2.071 5.378 4.396 8.503 8.43 4.541 5.886 10.427 10.281 15.586 15.406 2.906 2.907 5.27 6.030 8.868 8.465 3.561 2.434 8.393 4.286 12.135 6.285 1.707 0.909 3.050 0.765 4.795 1.927 1.562 1.053 2.943 3.017 4.325 4.324 4.651 4.468 4.286 6.685 4.286 12.898-0.035 17.114-4.033 33.646-7.555 50.434-2.507 11.953-2.18 30.266-16.569 34.262-5.412 1.526-7.883 4.759-11.953 8.686-5.088 4.868-10.755 9.956-15.297 15.224-5.813 6.722-9.228 15.225-10.608 23.763-0.693 4.468-2.218 8.793-3.053 13.263-1.527 8.248-1.235 16.785-3.743 24.853-3.162 10.101-6.83 18.13-14.098 26.016-10.573 11.445-24.744 16.821-37.424 25.542-6.395 4.396-11.699 9.702-18.53 13.517-11.12 6.251-23.727 8.939-35.208 14.243-5.088 2.362-10.61 5.378-15.333 8.393-3.525 2.253-5.595 5.414-8.793 7.958-7.34 5.849-10.247 13.335-13.699 21.982-3.053 7.665-5.56 16.058-10.393 22.89-1.017 1.416-2.581 2.506-3.525 3.998-2.253 3.453-2.797 7.085-5.378 10.501-7.63 9.991-16.713 18.567-25.216 27.796-7.231 7.812-16.023 13.699-23.399 21.256-3.525-6.54 13.553-17.659 16.64-20.456 14.171-12.717 30.265-21.909 45.563-33.101 13.553-9.882 26.233-27.797 45.163-28.123 6.867-0.144 14.387 1.057 21.146-0.239 12.281-2.434 24.707-7.63 35.825-13.117 6.395-3.199 13.153-5.923 19.439-9.301 9.447-5.050 17.66-12.173 26.925-17.586 6.54-3.816 12.899-8.902 16.749-15.26 3.563-5.887 6.577-12.317 10.247-18.205 2.943-4.649 6.322-8.939 9.048-13.769 5.23-9.302 9.7-18.858 15.732-27.797 10.717-15.805 21.183-31.029 34.989-44.436 7.302-7.121 15.625-12.208 24.053-17.841 4.505-3.014 9.556-6.65 13.407-10.283 3.125-2.979 4.106-7.993 5.523-11.809 1.997-5.378 4.723-10.574 6.178-16.134 3.016-11.517 5.813-23.581 5.232-35.536-0.435-10.101-2.763-20.346-3.887-30.411-0.473-4.176 0.581-11.373-2.435-14.497-0.401 6.504 6.176 15.698 10.138 20.419 5.667 6.685 8.248 14.353 12.826 21.728 3.233 5.195 7.738 8.283 11.191 13.043 4.76 6.504 4.977 11.699 5.159 19.368 0.101 5.378 1.707 11.191 1.272 16.457-0.693 8.612-4.069 16.422-7.195 24.381-4.977 12.862-10.5 25.834-18.167 37.424-6.285 9.413-10.972 19.257-14.424 30.012-1.634 5.088 0.398 11.408-2.072 16.133 1.418-0.837 2.325-1.999 3.342-3.199 7.667-8.938 12.427-20.166 20.237-29.141 7.812-8.939 18.748-14.388 22.127-25.978 5.595-19.113 13.808-37.387 17.913-56.973 2.943-14.061 7.158-29.211 6.65-43.709-0.764-21.511-9.882-42.439-15.953-62.858-2.834-9.483-0.981-15.589 1.199-24.888 1.744-7.375 3.997-13.915 8.503-20.166 2.107-2.907 4.795-4.87 6.757-7.886 8.321-12.935 11.373-28.813 14.171-43.528 5.667-29.939 9.082-60.206 15.659-89.962 1.963-8.902 3.452-18.603 3.85-27.687 0.545-12.57-6.757-21.11-12.388-32.119-7.995-15.625-9.883-33.065-13.407-50.069-2.797-13.444-8.72-22.345-16.678-33.573-6.178-8.757-11.082-18.347-20.747-23.725-6.757-3.741-12.497-8.686-18.965-12.826-3.561-2.29-7.92-3.669-11.155-6.433-7.665-6.613-11.845-17.003-18.42-24.561-8.393-9.629-18.748-11.483-30.81-14.063-4.288-0.909-8.467-2.726-12.789-3.415-3.633-0.579-6.212-0.383 1.925 3.487z"></path>
    </svg>