<svg xmlns="http://www.w3.org/2000/svg" viewBox="27.414 -15.998 995.052 1056.891">
    <path fill="#000000" d="M938.918 273.406c-2.080-8.522-5.226-16.182-9.466-23.96-4.081-7.502-13.668-13.041-20.384-18.304-16.498-12.962-33.387-22.309-52.554-30.676-16.302-7.108-33.701-8.877-51.297-9.269-5.694-4.008-11.313-7.777-17.164-11.313-7.542-4.515-15.594-8.209-23.292-12.255-5.537-2.863-10.88-6.442-16.3-9.308-6.873-3.653-15.436-4.792-23.016-6.873-11.47-3.14-22.505-6.52-34.21-8.365-9.583-1.535-19.796-0.588-29.497-0.529-2.399 0-4.792-0.105-7.189-0.317l1.646 0.317c-13.393-1.139-33.189-0.901-46.975-5.694-3.102-1.022-5.775-2.595-8.878-3.34-3.336-0.747-7.777 0.037-11.272-0.371-5.5-0.63-10.802-1.727-16.341-1.848-32.992-0.594-66.104-0.053-99.098 0.105-12.803 0.105-25.178 0.265-37.863-1.492-9.821-1.414-19.481-3.849-29.381-4.871-8.209-0.862-16.416 0-24.703-0.709-8.286-0.705-16.537-2.393-24.745-3.536-9.623-1.335-22.859-15.672-30.911-21.761-5.262-3.966-12.058-15.475-14.966-19.757-3.336-4.949-6.638-9.896-9.347-15.278 2.869 19.324 6.127 51.807 5.302 71.446-0.551 12.845-4.008 21.052-9.505 32.363-6.873 14.218-13.746 27.573-23.173 40.418-9.074 12.332-23.056 20.619-34.251 31.106-10.095 9.468-20.464 18.421-31.148 27.259-8.878 7.345-17.399 13.55-24.548 22.584-6.207 7.856-11.039 15.477-14.809 24.863-3.966 9.897-8.718 19.244-13.116 28.908-3.261 7.147-4.907 14.925-7.66 22.27-5.226 14.021-7.659 30.676-8.799 45.482-1.727 22.074-9.151 43.441-8.955 65.711 0.212 24.429-1.254 49.215 1.139 73.526 1.926 19.442 4.358 38.964 7.268 58.247 2.472 16.537 3.689 33.033 7.658 49.295 1.139 4.711 2.595 9.387 4.247 13.981-1.296 7.069-3.144 14.022-5.184 21.132-2.203 7.621-7.11 13.393-10.801 20.188-2.827 5.145-5.579 8.367-8.681 13.196-3.689 5.735-8.955 9.703-12.962 15.124-2.472 3.336-3.77 8.405-6.323 11.272 3.029 0.371 4.247-1.456 6.323-1.884 2.827-0.588 5.459-0.529 8.407-0.529 5.341 0.037 11.468-0.826 16.692 0.212 10.526 2.118 19.326 5.024 28.712 10.957 5.184 3.219 9.779 7.66 14.69 11.193 3.849 2.791 7.227 4.711 10.644 8.289 2.906 3.023 4.319 6.638 7.069 9.543 4.008 4.241 9.703 6.363 13.514 11.076 2.239 2.71 8.129 7.699 8.797 11.078l-5.929-16.576c15.789 23.175 31.736 45.090 50.981 65.515 17.559 18.578 41.909 33.188 64.573 44.421 15.358 7.66 31.578 12.923 47.133 20.070 6.951 3.225 13.237 7.11 20.384 9.821 7.385 2.748 15.084 4.711 22.546 7.384 10.134 3.689 20.699 5.971 31.069 8.955 7.031 2.001 14.337 5.498 21.524 6.834 11.548 2.161 25.451 1.101 37.079 0.16 22.897-1.848 43.952-6.559 65.476-14.729 16.065-6.086 28.749-14.336 43.637-22.545 4.283-2.357 8.875-4.045 13.237-6.244 8.286-4.283 13.511-10.487 20.502-16.419 12.097-10.252 25.845-18.97 38.844-28.005 6.677-4.638 11.901-10.761 18.539-15.397 19.796-13.904 39.669-27.809 60.135-40.729 7.541-4.753 21.68-11.078 30.518-11.783 3.812-0.371 8.209 0.105 12.019 0.666 5.578 0.826 13.785 5.226 19.404 3.536-2.987-11.039-7.503-21.483-10.959-32.326-2.944-9.231-4.283-19.481-6.126-29.066-1.646-8.718 0.588-16.692 2.357-25.177 3.219-15.514 6.167-28.044 13.904-42.105 10.488-19.011 22.074-38.454 27.337-59.782 2.435-9.662 2.748-20.854 2.674-30.793-0.037-10.761 1.058-22.154-0.16-32.837-0.588-5.145-2.001-9.858-2.122-15.043-0.037-2.827 0.212-5.302-0.424-8.129-1.414-6.638-0.943-13.277-2.203-19.992-2.514-13.237-2.514-26.632-3.849-39.986-0.862-8.326-3.653-17.242-6.676-25.059-4.045-10.367-7.933-21.917-13.865-31.303-15.985-25.492-44.973-38.73-70.858-52.161 7.268 7.777 12.332 18.304 18.382 27.102 5.109 7.423 10.369 13.981 12.371 22.938 0.943 4.241 1.884 7.621 3.689 11.548 4.638 10.015 12.136 18.813 15.201 29.496 1.688 5.733 1.727 11.47 3.689 17.165 1.456 4.319 3.493 8.209 4.4 12.649 1.884 9.074 2.435 17.752 2.399 27.022 0 7.659 1.218 16.261-1.022 23.567-2.674 8.641-5.109 17.361-7.933 25.963-2.514 7.579-3.182 14.963-4.792 22.662-1.218 5.929-4.675 11.429-6.285 17.242-1.218 4.436-2.314 7.501-4.479 11.667-4.792 9.347-8.759 19.677-13.237 29.261-8.72 18.617-13.315 41.398-27.022 57.384-9.977 11.666-23.018 20.699-33.898 31.539-6.167 6.167-11.391 12.962-17.203 19.404-5.066 5.577-7.425 8.286-14.179 11.94-8.013 4.4-15.554 10.407-22.977 15.709-6.834 4.907-14.218 8.955-20.069 14.574-3.261 3.14-6.638 6.518-10.645 8.798-15.712 8.995-31.697 17.321-48.273 24.589-4.711 2.080-9.191 2.239-13.785 4.711-4.907 2.668-9.899 5.381-14.375 8.681-5.815 4.241-12.255 5.617-19.365 8.799-12.647 5.617-27.455 8.914-41.279 8.836-6.519-0.037-13.041-0.053-19.561 0-6.716 0.053-12.845-1.769-19.522-2.239-5.381-0.371-10.801-1.218-16.065-2.161-3.102-0.551-5.891-2.044-9.035-2.399-2.869-0.317-5.851 0.529-8.718 0.212-15.986-1.45-34.881-5.655-48.979-13.433-7.541-4.123-14.966-8.287-21.878-13.433-3.812-2.791-8.641-5.302-11.705-8.839-3.653-4.277-6.951-8.129-10.918-12.097-2.514-2.514-4.4-5.694-6.951-8.248-2.595-2.631-6.873-4.596-8.995-7.502-3.219-4.436-4.753-9.701-6.835-14.455-2.080-4.711-6.755-8.679-9.112-13.393-6.442-12.686-12.845-26.355-21.405-37.943-7.503-10.171-9.191-22.977-12.962-34.916-1.688-5.302-3.182-10.409-4.436-15.594-11.431-15.278-19.718-32.915-26.985-50.432-7.343-17.634-13.353-35.861-18.304-54.321-3.065-2.044-5.851-4.515-8.129-7.581-1.922-2.595-3.966-5.813-4.515-8.798-0.16-0.862-0.212-3.144-0.529-3.966-0.16-0.424-1.652-4.596-1.731-4.949-1.688-8.091-0.624-17.752-0.529-26.199 0.053-4.554-1.414-6.795-2.239-10.918-0.985-4.834 0.036-10.761 0.036-15.828 0-5.145 0.053-10.33 0-15.515-0.036-4.283 1.492-5.302 2.318-8.798 1.022-4.247-1.218-9.349-0.212-13.591 0.477-2.001 1.965-2.197 2.435-4.204 0.529-2.001-0.265-4.711-0.16-6.795 0.477-9.86 6.559-17.518 8.524-27.298 1.884-9.505 4.008-18.067 9.348-26.708 3.457-5.656 7.345-10.997 10.605-16.695 3.261-5.655 7.621-10.446 11.115-16.181 2.552-4.204 6.089-7.147 8.955-11.115 0.985-1.377 1.727-3.144 2.631-4.358 1.101-1.492 2.944-2.674 4.008-4.319 10.056-15.199 21.957-28.71 33.74-42.381 2.552-2.944 5.852-4.123 8.602-6.677 1.101-1.058 1.884-2.748 3.102-3.849 2.827-2.631 5.655-5.109 8.325-7.777 3.182-3.14 7.265-6.638 11.153-8.953 4.008-2.435 7.895-5.657 11.823-7.973 4.949-2.906 11.509-4.907 16.733-7.737 3.336-1.811 7.188-2.987 10.997-4.319 7.385-2.631 15.358-2.827 22.505-5.498 2.435-0.901 4.319-2.435 6.873-2.944 2.948-0.63 5.775 0.783 8.759-0.265 0.212-1.218 0.424-2.435 0.666-3.653 6.951-1.377 13.865-4.045 20.658-6.048 5.931-1.769 10.645-4.949 16.85-5.539 10.056-0.901 20.069-5.226 29.929-6.716 10.524-1.609 21.288 0.529 31.185 2.357 7.777 1.492 15.201 5.226 22.427 8.839 15.477 7.737 30.244 19.718 40.495 33.503 12.019 16.143 24.115 32.207 35.547 48.822 4.162 6.089 7.422 12.215 10.801 18.421-2.357 11.193-1.688 22.584-1.652 34.485 0 12.688 0.317 25.294 3.261 37.708 2.080 8.798 5.066 17.988 5.694 26.865 0.371 6.086 0.905 10.488 2.748 16.339 1.181 3.574 0.588 7.111 1.45 10.449 0.862 3.298 3.378 5.774 4.675 8.916 1.414 3.298 1.922 7.856 4.283 10.722 2.276 2.748 5.932 4.596 8.524 7.108 2.197 2.161 4.515 4.515 6.951 6.559 5.184 4.319 11.823 5.302 17.321 9.074 2.239 1.573 3.928 3.298 6.559 4.596-3.574-2.827-2.318-24.705-1.531-29.302 1.688-9.819 5.774-19.716 7.895-28.789 0.588-2.472 4.554-10.409 3.065-12.923-1.727-2.906-9.897-3.732-13.041-4.907-8.13-2.944-13.55-7.856-13.393-16.653 0.16-6.6-1.848-11.979-1.727-17.636 1.922 2.631 3.812 5.341 5.812 7.856 0.105-11.233 4.834-22.113 12.335-31.264-5.383-16.458-1.139-35.902 14.847-52.396 4.907-5.066 10.093-9.191 15.435-12.451 3.689-6.756 11.666-9.468 18.067-13.356 8.799-5.302 18.068-8.875 27.377-2.276 1.531 1.058 2.674 2.514 3.732 4.045 0.901 0.037 1.769 0 2.631 0-3.34-16.065 1.254-31.894 19.914-43.715 6.481-4.123 14.138-6.246 22.072-6.795l2.276 6.599c8.248 0 19.009-0.985 29.419-0.371 4.008 1.926 7.738 4.204 11.078 6.795-0.551-1.848-0.985-3.732-1.45-5.655 7.973 1.573 15.121 4.675 19.873 10.761 3.806 4.871 6.795 9.625 9.543 15.162 2.944 6.047 4.204 10.879 11.667 11.153 6.321 0.212 9.936-0.371 15.631 2.748 3.966 2.161 7.464 5.341 10.998 8.209 9.112 7.464 17.988 18.263 23.88 28.399 5.852-3.653 10.761-14.847 11.901-21.602 1.335-7.933-0.529-17.087-2.276-24.47z"></path>
    <path fill="#000000" d="M699.277 546.082c-11.078-2.007-20.661-5.815-31.895-5.658-11.349 0.212-19.128-3.689-29.654-5.774-5.341-1.101-10.841-1.884-16.378-3.378-24.666-6.559-50.156-17.005-71.131-30.123-7.738-4.834-14.964-17.283-17.871-24.981-2.668-6.953-2.435-15.044-4.907-22.389-4.123-12.136-4.871-26.002-6.089-38.531-1.922-19.365-5.302-38.296-8.759-57.463-2.791-15.395-3.14-31.106-6.559-46.387-4.087-18.186-7.58-34.602-7.58-53.025 0 16.142 1.842 32.954-0.594 48.979-2.161 14.455-7.817 28.044-9.191 42.458-1.181 12.175-8.326 24.353-10.132 36.687-1.769 12.058-3.928 25.216-7.385 37.038-2.827 9.583-5.812 21.052-9.975 30.126-1.805 3.885-3.298 3.336-5.892 6.125-2.399 2.552-4.4 8.289-7.304 10.134-13.119 8.405-33.74-14.141-42.027-18.304-2.276 6.519 0.212 12.649 2.080 18.735 1.652 5.381 0.666 11.274 0.747 16.811 0.053 11.783-4.241 27.417-18.186 33.741-7.265 3.298-17.634 3.219-25.686 4.828-11.117 2.276-24.076 0.63-35.469 0.63-14.572 0-29.183 0.053-43.755 0-6.638 0-13.001-0.317-19.561 0.63-7.188 1.022-20.462 0.477-26.315 4.123 8.013 7.856 32.288 7.306 42.654 9.112 16.734 2.863 33.033 7.071 49.765 9.938 20.227 3.536 38.492 12.255 55.931 21.171 13.826 7.030 24.235 10.801 32.052 23.88 5.578 9.308 9.191 18.459 11.823 29.183 9.543 39.040 20.58 78.005 26.826 117.715 2.080 13.080 6.992 26.355 9.701 39.473 2.080 10.25 4.596 20.226 7.541 30.283 2.595 8.798 1.646 16.966 2.276 25.766 0.666 9.347 4.871 18.421 13.433-6.011 5.577-4.123 3.298-12.528 3.336-18.183 0-8.72-1.335-18.108 0.709-26.669 2.748-11.509 2.595-22.154 2.595-34.094 0-7.895-0.265-15.828-0.105-23.723 0.16-7.502 2.791-14.063 3.611-21.367 1.884-16.104-0.16-33.189-0.16-49.452v-17.046c1.218-3.493 3.065-6.677 5.657-9.466 0.979-1.058 2.118-2.118 3.023-3.182 0.705-0.826 1.139-1.805 2.001-2.552 1.609-1.492 4.008-2.276 5.892-3.493 1.884-1.254 3.885-2.118 6.125-2.631 1.254-0.317 2.357-0.477 3.574-0.901 0.985-0.371 1.456-0.747 2.552-0.783 1.492-0.053 2.987 0.038 4.436 0.038 1.535 0 3.77-0.371 5.226-0.038 0.63 0.105 0.783 0.666 1.414 0.783 0.709 0.212 1.573-0.212 2.276-0.037 1.45 0.212 3.144 1.058 4.436 1.492 1.139 0.371 2.118 0.588 3.182 1.296 1.058 0.705 2.122 1.652 3.219 2.357-4.162-6.599-8.522-15.59-5.459-23.526 0.905-2.318 2.71-3.457 4.283-5.302 1.769-2.044 3.261-4.045 5.145-5.971 2.948-2.906 6.011-5.459 9.269-7.895 5.145-3.812 10.882-7.265 16.576-10.093 0.705-0.371 0.826-0.317 1.769-0.666 1.181-0.424 1.769-1.531 2.827-2.001 0.783-0.317 1.769-0.16 2.595-0.424 0.551-0.212 1.101-0.529 1.609-0.826 0.862-0.053 1.727-0.212 2.435-0.265 11.391-1.531 22.783-3.689 34.29-4.283 6.836-0.317 11.39-2.001 17.794-2.863 5.341-0.709 11.037 0.551 16.457-0.053 8.129-0.943 15.24-2.748 23.567-2.631 12.923 0.212 27.064-1.688 38.965-6.246-6.089-3.653-20.425-3.493-27.652-4.792z"></path>
    </svg>