<svg xmlns="http://www.w3.org/2000/svg" viewBox="-22.409 41.560 1076.749 998.439">
    <path fill="#000000" d="M119.002 949.174c-7.845-6.17-17.786-19.649-22.091-29.951s-11.638-21.518-16.295-24.924c-15.84-11.583-22.871-45.284-22.951-110.038-0.074-59.343 0.591-63.264 13.37-78.448 7.398-8.792 14.807-22.768 16.464-31.055s5.919-15.071 9.469-15.071c14.033 0 51.656-33.204 59.104-52.162 5.18-13.184 12.769-21.511 23.191-25.446 10.027-3.785 18.272-12.503 23.374-24.711 5.448-13.038 11.254-18.864 18.804-18.864 6.181 0 25.218-13.727 43.842-31.611 18.106-17.387 35.239-31.611 38.073-31.611s11.966 7.113 20.297 15.805c8.328 8.692 18.154 15.806 21.833 15.806 8.56 0 60.418-64.401 74.743-92.82 6.012-11.93 22.307-31.239 36.211-42.907s40.482-40.212 59.067-63.429c35.883-44.825 42.685-47.444 56.059-21.586 4.287 8.29 14.904 20.33 23.594 26.755 9.547 7.058 17.957 19.693 21.25 31.928 2.998 11.135 18.133 39.708 33.632 63.492s32.415 52.136 37.593 63.004c5.179 10.867 11.55 19.757 14.163 19.757 2.61 0 19.466 14.132 37.452 31.402 25.37 24.363 35.269 30.733 44.143 28.411 9.243-2.416 13.168 0.632 20.438 15.877 4.947 10.378 22.592 29.425 39.21 42.33 28.459 22.1 80.858 50.577 93.062 50.577 3.043 0 12.889 8.38 21.885 18.623l16.352 18.622v78.058c0 77.95-0.020 78.085-15.434 99.364-8.489 11.719-19.858 24.522-25.266 28.45s-15.271 16.066-21.918 26.969c-6.647 10.903-16.459 22.165-21.806 25.027s-42.689 5.202-82.985 5.202c-78.056 0-100.806-4.137-199.76-36.322-77.58-25.234-125.918-49.569-135.583-68.257-18.94-36.627-4.17-63.022 42.846-76.573 16.777-4.835 39.162-12.914 49.745-17.949 22.918-10.909 78.23-71.105 78.23-85.14 0-10.101-27.804-37.149-38.187-37.149-3.171 0-9.546-3.419-14.163-7.598s-19.029-9.923-32.026-12.761l-23.631-5.165 25.967 23.094c24.121 21.454 25.531 24.047 19.853 36.511-6.422 14.095-24.784 23.936-64.259 34.441-24.849 6.612-70.808 24.178-84.298 32.22-4.348 2.59-13.238 7.444-19.757 10.786-7.012 3.594-11.854 10.948-11.854 17.998 0 14.488-23.456 43.504-40.366 49.935-13.969 5.31-15.645 18.55-4.251 33.612 19.203 25.387 3.912 50.638-44.412 73.34-28.749 13.506-45.764 17.347-98.013 22.119-34.773 3.178-66.943 7.457-71.485 9.512-5.050 2.284-13.805-0.624-22.524-7.482zM218.283 299.244c-28.628-12.723-55.505-53.275-55.199-83.279 0.171-16.594 26.027-61.768 42.151-73.638 28.205-20.767 77.752-18.673 105.228 4.448 17.673 14.87 36.969 52.305 36.788 71.366-0.163 17.14-17.27 52.188-32.118 65.798-24.862 22.791-65.543 29.218-96.849 15.306z"></path>
    </svg>