<svg xmlns="http://www.w3.org/2000/svg" viewBox="11.119 -48.078 1003.781 1120.991">
    <path fill="#000000" d="M562.209 516.139c-1.078 2.955-1.702 6.188-2.781 9.23-1.252 3.125-3.127 6.169-4.572 9.318-3.127 6.902-8.324 12.896-14.148 17.813-3.408 2.867-6.448 5.822-10.287 8.324-3.494 2.161-6.471 5.028-9.965 6.989-3.298 1.878-6.426 2.867-10.114 3.578-4.572 0.989-8.864 2.325-13.523 2.867-4.118 0.567-8.324 0.989-12.442 0.441-3.58-0.441-6.988-1.79-10.48-2.501-5.566-1.248-9.404-3.856-13.697-7.526-4.853-4.12-9.856-7.957-12.292-14.062l-1.682-4.574c-3.601-4.461-7.072-9.402-10.223-14.602-12.983-15.226-19.625-37.978-16.841-56.588 0.799-8.971 3.859-17.211 10.027-24.025 12.725-13.866 32.975-17.015 51.241-15.030 11.474 1.336 27.864 2.955 40.027 9.122 2.438-1.14 6.471 0.989 10.309 2.974 2.61 1.253 4.485 3.578 7.075 4.914 2.954 1.531 5.908 4.486 8.151 6.989 6.103 6.899 10.029 14.599 13.803 22.923 2.5 5.651 3.774 11.367 4.032 17.468 0.259 5.456 0.366 10.74-1.618 15.938z"></path>
    <path fill="#000000" d="M846.642 217.248c-16.108-16.327-34.914-30.301-53.226-43.972-16.475-12.314-33.708-24.952-51.843-34.83-4.057-2.199-7.915-4.203-11.841-5.891l-2.22 3.087c-1.553 2.18-3.021 4.461-4.854 6.555-5.477 6.428-8.711 12.854-11.883 19.131-1.358 2.628-2.716 5.349-4.248 8.173-2.502 4.354-5.801 8.475-9.187 12.767-3.732 4.574-7.635 9.425-10.547 14.879-2.738 4.896-6.039 9.382-9.511 14.128-3.71 5.002-7.526 10.222-10.609 15.937-2.912 5.539-6.383 10.287-10.093 15.312l-4.076 5.563c-4.228 6.036-8.002 12.854-11.602 19.474-1.618 2.999-3.256 5.91-4.874 8.713-7.051 12.272-12.616 25.405-18.029 38.086-4.485 10.416-9.144 21.285-14.45 31.379-13.736 25.728-28.704 50.185-45.008 74.079l2.287 1.575c3.946 1.985 7.87 5.803 10.847 9.102 8.217 9.080 13.587 19.258 18.806 30.278 3.536 7.484 5.348 15.032 5.95 23.249 0.472 6.301 0.605 12.379-0.817 18.396 4.916-6.257 10.027-12.358 15.938-18.289 2.61-2.672 5.325-5.243 8.044-7.807 6.297-6.080 12.854-12.445 18.762-19.56 6.708-8.067 14.148-14.083 22.063-20.554 3.082-2.501 6.232-4.977 9.382-7.763 9.66-8.302 18.718-17.857 27.453-27.13 5.242-5.5 10.393-10.912 15.635-16.153 8.993-8.733 17.556-18.006 25.924-26.999 5.046-5.5 10.2-11.107 15.442-16.522 9.682-10.092 20.551-19.432 31.162-28.38 4.743-4.164 9.553-8.217 14.299-12.465l3.601-3.125c5.608-4.896 11.301-9.965 16.52-15.657l9.231-11.625c4.637-4.14 9.273-8.28 14.255-12.983 3.040-3.756 5.715-7.677 8.475-11.687 2.696-4.013 5.543-8.111 8.671-11.863l0.366-0.441c-4.53-5.563-9.125-11.043-14.192-16.175z"></path>
    <path fill="#000000" d="M926.248 57.839l-0.472-1.058c-2.76-6.382-4.961-11.429-15.032-13.327l-3.321-0.731-0.82-0.063-4.313-7.764c-0.843-0.801-2.223-1.915-4.379-2.306-3.321-0.649-5.931-0.668-9.229-0.504-2.33 0.063-4.658 0.023-7.075 0-3.861-0.063-7.807-0.126-11.732 0.315-16.088 1.852-34.57 11.452-45.484 19.171-15.506 10.872-31.185 21.114-46.711 30.647-5.286 3.194-8.757 7.936-12.142 12.594l-0.84 1.165c4.421 1.121 8.82 2.306 13.37 3.756 22.192 7.053 45.635 15.248 64.008 30.043 6.19 4.977 11.367 11.063 17.233 16.433 5.175 4.726 10.609 9.144 15.657 14.061 8.302 8.067 15.268 17.684 21.694 27.456 1.942-3.453 3.839-7.052 5.717-11.001 1.445-2.911 2.198-5.885 2.91-8.778 0.756-2.608 1.402-5.135 2.502-7.397l2.5-4.007c1.209-1.726 2.416-3.56 3.366-5.544l1.403-4.159 0.667-2.18c1.081-3.15 2.827-5.607 4.639-8.259 1.378-2.010 2.674-3.925 3.859-6.188 3.085-5.822 3.903-12.293 4.724-18.591 0.542-4.12 1.058-8.086 2.136-11.516 3.817-12.011 2.114-26.201-4.832-42.248z"></path>
    <path fill="#000000" d="M170.287 863.108c-11.171-4.505-23.508-7.31-35.066-10.631-1.985-0.567-3.99-1.165-5.994-1.726-10.138 15.508-19.733 31.271-28.404 47.424-2.845 5.331-3.427 9.877-3.99 14.321l-0.623 3.667c-0.259 2.029-0.885 3.623-1.49 5.393-1.013 2.545-2.048 5.539-2.262 9.856l-0.239 5.179c-0.472 10.2-1.1 21.739 4.485 30.968 3.559 6.080 11.969 14.537 16.541 18.333 5.348 4.291 12.379 5.519 19.453 5.841 2.674 0.126 5.37 0.126 7.98 0.063 2.328 0.021 4.572 0.045 6.62 0.126l0.712 0.021c20.856 0.97 35.908-10.438 50.51-21.414 3.256-2.438 6.404-4.896 9.746-7.162 6.299-4.461 11.583-10.222 16.693-15.892 2.934-3.277 5.779-6.557 8.951-9.446 6.468-6.169 11.818-13.177 17.079-19.904l0.863-1.147c-25.554-20.357-50.938-41.577-81.563-53.914z"></path>
    <path fill="#000000" d="M493.773 611.068c-5.994 1.033-11.732 2.527-17.791 2.999-5.435 0.441-10.978 0.731-16.368-0.189-4.637-0.819-8.951-2.848-13.481-4.032-7.179-1.915-12.098-5.69-17.446-10.805-5.673-5.438-11.429-10.632-14.45-17.987-37.74 34.29-77.573 66.749-115.226 96.725l-13.867 11.001c-17.684 13.974-35.929 28.358-52.882 43.714l-7.482 6.751c-16.564 14.901-33.774 30.343-48.287 47.596-3.256 3.863-6.277 7.87-9.425 11.796 14.47 2.501 27.475 9.878 40.694 16.371 17.426 8.54 30.818 20.744 45.808 32.91 11.020 8.926 20.68 19.969 30.191 30.687l0.756-1.014c6.751-8.215 13.585-16.498 20.596-24.435 5.886-6.706 11.494-13.888 17.015-20.724 6.103-7.871 12.594-15.915 19.302-23.399l4.724-5.154c6.233-6.793 12.745-13.759 17.684-21.501 5.715-9.144 12.787-19.044 22.060-31.25 6.988-9.188 13.694-18.72 20.142-28.038 9.037-12.918 18.353-26.31 28.597-38.56 3.71-4.486 7.764-8.778 11.732-13.089 4.916-5.154 9.92-10.568 14.579-16.434 3.040-3.818 6.448-7.504 9.833-11.191 5.501-6.036 11.258-12.23 15.808-19.453 3.042-4.852 6.557-9.467 10.267-13.997l-3.085 0.712z"></path>
    </svg>