<svg xmlns="http://www.w3.org/2000/svg" viewBox="24.893 -17.233 997.411 1057.526">
    <path fill="#000000" d="M924.32 832.3c1.214-0.93 2.191-1.718 3.072-2.457 0.621-5.209 1.224-10.432 2.049-15.596 3.005-18.791 12.096-45.194 12.863-68.152-6.752-16.503-13.559-32.948-19.397-49.886-3.031-8.8-6.719-17.773-10.418-26.219-3.502-8.012-7.943-15.566-10.955-23.814-1.856-5.090-3.521-11.723-6.693-16.135-1.704-2.36-4.062-2.751-6.778-3.393-4.544-1.071-8.74-2.974-13.299-3.873-2.583-0.517-4.895-1.683-7.451-2.31-0.693-0.163-2.881-0.471-3.675-1.040-1.928-1.379-3.337-4.596-4.387-6.891-1.302-2.868-1.785-5.79-2.629-8.859-0.986-3.549-2.26-6.419-2.703-10.093-0.41-3.371-0.575-6.61-1.4-9.921-1.19-4.804-3.139-9.303-4.229-14.15-1.704-7.598-3.276-14.821-6.363-21.911-2.913-6.706-5.456-13.065-7.021-20.348-0.805-3.74-2.219-7.472-3.575-10.933-0.317-0.795 0.017-0.921-0.649-1.837-0.488-0.679-1.91-1.166-2.575-1.637-1.479-1.040-2.479-1.533-4.090-2.399-2.075-1.113-3.983-2.494-6.085-3.621-1.533-0.819-2.688-1.563-3.799-2.979-2.642-3.395-3.825-8.816-5.477-12.817-2.723-6.615-4.216-13.182-6.013-20.139-1.928-7.496-4.196-14.895-6.105-22.391-0.706-2.796-1.049-5.564-1.637-8.365-0.938-4.522-3.033-8.579-4.466-12.926-1.811-5.525-2.755-15.455-9.085-17.092-1.42-0.362-3.25 0.553-4.103-1.055-0.521-0.983 0.191-2.134 0.165-3.070-0.065-1.867-0.482-3.829-0.786-5.651-0.845-5.023-1.090-10.157-2.219-15.123-0.833-3.63-1.103-6.676-1.34-10.388-0.115-2.036-0.833-4.301-0.165-6.204 0.623-1.808 2.062-2.855 2.709-4.795 0.864-2.59 0.714-4.973 0.455-7.613-0.211-2.169-0.115-5.859-0.825-7.748-1.064-2.811-4.487-5.134-6.745-6.691-1.856-1.283-5.358-2.073-6.667-3.977-1.467-2.147-0.851-6.521-0.851-9.059 0.007-4.146-0.779-8.063-0.84-12.231-0.065-5.282-1.209-10.438-1.652-15.67-0.147-1.763 0.115-3.291 0.185-5.039 0.082-2.079-0.245-3.96-0.271-6.005-0.007-1.055 0.312-2.132 0.217-3.185-0.147-1.713-0.007-1.159-1.029-2.288-1.685-1.867-4.077-1.491-6.283-2.058 0.217-2.877 1.474-5.681 2.036-8.529 0.753-3.786 1.276-7.362 2.219-11.059 1.276-5.017 2.088-9.797 3.817-14.651 0.489-1.372 0.402-2.177 0.654-3.563 0.237-1.342 2.021-3.15 1.949-4.368-0.115-1.622-3.291-3.157-4.361-3.695-1.546-0.782-3.131-0.517-3.087-3.011 0.013-0.842 0.899-3.577 1.164-4.501 0.753-2.655 1.036-5.399 1.81-8.093 0.727-2.553 1.606-4.906 2.286-7.501-1.585 1.099-2.191 3.311-3.198 4.757-2.688 3.888-5.383 7.577-7.623 11.893-1.541 2.95-6.745 12.415-4.203 15.574 0.438 0.539 1.353 0.812 1.943 1.637 0.647 0.908 0.931 1.8 1.717 2.59 1.289 1.283 3.191 2.635 3.714 5.010 0.441 1.984-0.324 5.238-0.575 7.273-0.569 4.596-0.536 9.191-0.667 13.825-0.115 3.727 0.185 8.388-0.464 11.996-0.567 3.202-2.879 5.312-3.072 8.514-0.115 1.778-0.601 3.777 0 5.384 0.931 2.516 3.866 2.996 4.585 5.696 0.634 2.382-0.443 5.673-0.252 8.204 0.451 5.79 0.41 11.604 0.707 17.419 0.245 4.552 0.41 9.274 0.541 13.781 0.082 3.202-0.701 5.488 2.16 7.303 1.407 0.892 2.961 1.602 4.077 2.774 2.471 2.605 1.322 5.299 1.085 8.719-0.263 3.903 0.065 7.828-0.191 11.76-0.265 3.992-0.614 7.887-0.541 11.893 0.147 8.66-0.217 17.315-0.007 25.982 0.065 2.774-0.299 9.2 1.15 11.686 1.155 1.962 3.943 1.513 5.721 2.338 1.771 0.819 4.366 2.095 5 4.192 0.581 1.897-0.172 5.369-0.371 7.273-0.621 5.82-1.533 11.419-1.467 17.307 0.049 4.669-0.858 9.17-1.088 13.803-0.278 5.607 0.851 11.176 0.634 16.812-0.304 7.857-0.786 17.115 0.918 24.816 0.714 3.217-0.76 6.332 1.659 8.271 1.837 1.467 3.983 1.976 5.892 3.274 3.521 2.399 6.765 6.242 7.67 10.698 1.003 4.921 1.587 9.93 1.936 14.977 0.278 4.151-0.323 8.351 0.232 12.481 0.679 5.052 1.426 9.967 1.928 15.064 0.873 8.809 2.536 17.589 3.812 26.338 0.886 6.005 1.025 12.164 1.902 18.14 0.317 2.184 0.291 2.075 2.206 2.694 3.031 0.981 6.178 1.602 9.229 2.575 3.463 1.099 5.121 1.142 7.023 4.707 2.801 5.282 1.949 11.501 3.198 17.373 1.533 7.231 3.415 14.238 4.711 21.556 1.379 7.813 3.113 15.736 5.258 23.334 3.654 12.992 8.603 26.308 10.333 39.86 0.721 5.593 0.502 13.147 2.763 18.266 5.061-0.399 10.003 2.345 15.142 2.354 3.66 0.007 6.474 0.679 9.639 2.789 1.897 1.253 2.623 2.515 3.786 4.582 4.288 7.577 7.691 15.005 10.881 23.261 4.626 11.995 9.647 23.889 13.926 36.039 3.931 11.139 6.923 22.663 9.858 34.187 5.278-9.672 13.013-17.675 21.306-24.029z"></path>
    <path fill="#000000" d="M306.396 748.779c3.013-9.907 2.457-21.401 1.137-31.774-0.76-5.969-2.457-12.070-2.431-18.039 0.033-7.532 1.415-14.835 0.833-22.457-0.999-13.036-0.357-25.548-0.172-38.48 0.065-4.898 1.209-9.821 0.964-14.725-0.204-4.101-1.216-8.337-1.876-12.446-0.536-3.326 0.237-6.322-0.065-9.561-0.176-1.939-1.057-3.378-0.884-5.414 0.147-1.743 0.302-4.095 0.884-5.785 0.641-1.837 1.732-2.514 2.518-4.19 1.379-2.937 1.645-6.993 3.983-9.422 2.531-2.618 6.726-2.419 10.312-2.427 4.908-0.007 7.043 0.163 7.77-3.756 0.91-4.928-0.925-7.872-1.355-12.806-0.951-11.119-0.147-21.889-1.267-33.080-0.707-7.119-3.423-14.719-3.369-21.763 0.033-3.239 2.972-5.911 4.392-8.855 2.788-5.753 0.211-13.175 5.271-17.889 2.379-2.214 6.673-2.774 7.749-5.473 0.775-1.949-0.858-5.74-1.188-7.835-0.964-6.226-1.843-12.535-1.83-18.746 0.033-12.129 0.74-24.507 3.217-36.356 0.727-3.445 2.723-4.366 5.636-6.35 3.078-2.104 3.686-5.024 5.905-7.563 1.837-2.11 3.415-2.625 3.997-5.393 0.827-3.903-0.323-6.661-1.15-10.579-1.552-7.34-1.975-17.867 0.899-24.744 1.314-3.157 3.243-7.147 7.525-7.637 3.817-0.427 9.52 0.317 13.293-0.892 4.242-1.365 2.987-7.171 2.755-10.307-0.371-5.010-1.025-13.051 4.201-16.23 4.235-2.583 7.631-1.012 7.161-6.699-0.191-2.382-1.737-4.772-2.036-7.142-0.402-3.239-0.098-6.736-0.258-10.017-0.271-5.946 0.363-10.121 6.839-12.379 2.649-0.921 7.142-3.115 10.186-5.599 0.384-0.082 0.786-0.163 1.295-0.436 6.593-3.526 12.565-9.502 17.606-15.257 2.905-3.326 5.49-7.133 8.719-10.084 4.077-3.732 8.582-6.728 12.453-10.779 6.619-6.941 13.635-12.859 20.685-19.202 2.668-2.405 5.801-4.324 8.343-6.877 2.128-2.132 3.984-4.698 5.933-7.045 1.572-1.904 3.508-3.031 5.126-4.781 0.972-1.040 1.389-2.169 2.551-3.1 1.003-0.795 2.338-1.897 3.495-2.464 1.253-0.619 2.067-0.456 3.302-0.929 2.154-0.819 4.453-2.716 6.739-2.84 2.464-0.147 4.095 1.887 5.595 3.541 2.049 2.249 2.848 3.311 5.258 1.704 3.039-2.037 3.858-4.338 6.349-6.988 5.59-5.959 11.732-10.948 17.309-17.027 3.541-3.866 6.515-8.888 10.339-12.365 1.752-1.593 4.414-1.563 6.6-2.375 4.255-1.578 7.189-6.454 11.84-6.461 2.186-0.007 4.266 1.689 6.168 0.842 1.376-0.612 2.737-3.246 3.74-4.433 2.953-3.541 5.985-7.082 9.342-10.158 6.554-6.020 13.531-11.842 20.956-16.592 2.152-1.379 3.474-0.916 5.768-0.562 2.403 0.376 4.235-0.797 6.534-1.040 1.897-0.2 2.835 0.265 4.565-0.842 2.451-1.557 3.454-3.46 5.219-5.785 3.322-4.366 8.82-9.789 13.727-11.884 2.247-0.959 5.206-2.058 7.24-0.332 1.824 1.543 3.801 4.537 6.013 5.673 2.497 1.277 5.113-2.182 6.704-3.851 2.551-2.662 6.615-6.956 10.505-6.129 3.152 0.664 3.714 3.009 6.593-0.033 1.203-1.277 1.843-3.18 3-4.494 1.58-1.791 3.589-3.393 5.299-5.097 3.098-3.076 5.608-4.854 9.513-2.996 2.453 1.159 8.358 2.885 10.757 1.298 1.454-0.959 1.843-3.901 2.801-5.252 1.302-1.828 2.974-3.321 4.307-5.208 1.659-2.355 3.673-4.501 5.397-6.78 1.242-1.645 3.033-2.345 4.307-3.969-1.789-1.813-8.74 1.174-10.59 1.454-7.92 1.203-15.678 3.046-23.572 4.413-16.258 2.826-32.459 5.709-48.503 9.745-3.979 0.997-7.678 2.723-11.51 4.221-5.629 2.199-11.449 3.695-17.085 5.924-9.005 3.563-18.234 5.879-27.258 9.274-4.407 1.654-8.807 2.996-13.286 4.324-7.134 2.125-13.683 6.255-20.726 8.749-8.23 2.905-15.809 6.33-23.631 10.321-5.805 2.965-11.66 6.027-17.704 8.323-24.642 9.355-50.15 15.883-74.858 24.972-11.68 4.287-22.753 10.312-34.016 15.735-15.639 7.518-30.16 16.401-44.912 25.843-6.726 4.301-13.544 8.69-19.719 13.937-4.459 3.791-8.245 8.269-12.42 12.402-6.209 6.129-9.023 13.323-13.523 20.869-0.945 1.594-2.59 3.328-1.752 5.26 1.289 1.003 4.566 1.889 3.647 3.311-131.966 204.023-201.069 401.639-199.371 403.957 4.809 6.124-8.252 94.475-4.889 101.712 0.363 0.782 31.367 29.753 51.471 46.471 1.645 4.168 3.415 8.359 5.008 12.881 0.851 2.419 1.111 5.665 4.32 6.581 2.597-0.391 5.232-0.612 7.915-0.656 4.505-0.302 9.057-0.251 13.657 0.141 12.505 0.731 25.217 2.67 37.466 5.887 1.685 0.436 11.044 5.304 37.399-0.746 0.462-2.906 0.595-5.253 0.191-8.24-1.010-7.488-0.436-14.674-0.601-22.125-0.211-9.443 0.415-17.971 1.81-27.281 0.562-3.762 0.399-6.876 3.226-9.54 2.305-2.169 3.925-2.39 7.116-3.379 6.964-2.154 14.289-4.242 21.399-6.235 4.042-1.128 6.567-0.42 7.755-4.308z"></path>
    <path fill="#000000" d="M775.083 585.748c-1.327-6.58-2.26-13.308-5.411-19.13-0.917-1.689-1.335-3.341-3.026-3.261-1.235 0.065-3.363 2.030-4.941 3.437-3.799-4.633-5.312 0.421-7.907 4.403-2.723 4.177-6.593 8.655-11.277 9.791-15.876 3.881-34.103 1.533-50.428 1.533h-132.897c-23.003 0-45.843-0.707-68.768-1.543-12.492-0.441-24.508-4.552-37.036-4.891-10.774-0.287-22.245-3.026-32.822-5.297-10.472-2.251-21.062-4.183-31.678-4.405-5.080-0.115-9.856-1.225-14.877-2.065-3.297-0.553-8.456-2.761-11.753-2.583 4.778 2.051 9.969 2.765 14.825 4.683 3.35 1.322 7.459 0.347 10.472 1.808 0.879 0.901 1.771 1.785 2.675 2.649 1.474 0.339 2.961 0.567 4.466 0.671 2.564 0.686 4.778 2.065 7.314 2.699 8.423 2.11 17.25 3.039 25.786 4.633 6.395 1.196 13.121 0.981 19.204 3.636 3.766 1.645 7.472 2.229 11.397 3.195 10.657 2.625 21.338 5.467 32.021 7.82 4.639 1.018 9.389 1.276 14.059 2.345 3.997 0.907 8.059 2.212 12.111 2.685 10.549 1.253 21.206 1.402 31.731 3.017 3.515 0.545 7.082 0.53 10.649 0.441 3.74 0.636 7.505 1.122 11.263 1.409 8.106 0.619 16.39 2.39 24.492 1.999 0.185-0.007 0.357-0.033 0.534-0.033-0.171-0.065-0.349-0.115-0.526-0.169 0.315 0.033 0.627 0.098 0.945 0.132-0.132 0.007-0.273 0.017-0.417 0.033 0.191 0.065 0.385 0.132 0.567 0.178 9.685 3.105 19.927 6.647 29.995 7.472 8.365 0.686 16.642 1.949 24.981 2.84 5.33 0.567 10.881 0.163 16.364-0.295-0.082-0.033-0.165-0.049-0.245-0.065-3.997-1.35-7.835-2.905-11.799-4.095 8.067 0.777 16.121 1.728 24.167 2.84-1.428 0.312-2.855 0.627-4.361 0.716-2.549 0.163-5.145 0.385-7.763 0.606 11.786 3.918 24.755 4.249 36.864 6.085 9.989 1.52 19.807 2.82 29.928 3.046 7.121 0.163 14.052 1.389 21.18 1.077 1.889-0.082 3.753-0.198 5.621-0.258 1.776 0.324 3.549 0.656 5.379 0.716 3.778 0.115 14.673 2.051 16.972-1.654-0.082-0.184-0.185-0.369-0.271-0.553 1.836-0.017 3.619 0.686 5.191 0.317-6.090-10.757-6.606-13.279-7.379-15.995-2.147-7.511-4.010-14.931-5.569-22.634z"></path>
    <path fill="#000000" d="M763.93 466.987c-0.476-3.771-0.536-8.145-1.915-11.641-1.85-4.707-3.463-1.799-5.999 1.365-1.883 2.345-3.819 4.743-5.366 7.385-1.613 2.751-2.51 6.050-4.379 8.617-4.142 5.705-10.169 10.794-15.757 14.563-5.054 3.395-11.462 5.534-17.368 6.176-4.928 0.539-9.943-0.51-14.858-0.79-4.902-0.28-9.724-0.354-14.562-1.387-6.83-1.446-13.601-4.574-20.389-6.426-4.162-1.137-8.032-2.694-11.997-4.574-9.678-4.604-19.621-8.809-29.397-13.132-21.915-9.709-43.848-21.017-66.814-27.28-26.372-7.186-53.552-9.12-80.461-12.409-7.552-0.923-15.023-1.793-22.619-2.191-4.552-0.228-8.912-0.434-13.371-1.645-2.512-0.686-13.477-5.004-15.691-1.409 0.575 1.431 3.237 2.442 4.379 3.526 1.309 1.246 2.399 2.485 3.879 3.482 4.221 2.87 9.051 4.552 13.588 6.684 17.739 8.323 37.559 9.532 56.433 12.005 15.935 2.079 31.269 8.108 46.662 12.85 8.912 2.744 18.003 5.119 26.803 8.328 12.982 4.73 25.157 11.421 38.311 15.737 9.758 3.202 19.582 7.974 29.65 9.789 8.293 1.498 15.941 4.183 24.392 4.921 5.635 0.486 10.955 2.583 16.543 3.423 5.72 0.871 11.482 0.721 17.222 1.298 4.492 0.441 9.046 1.483 13.386 2.877 3.554 1.151 7.327 1.713 10.822 3.061 3 1.159 4.781 2.295 7.861 2.796 2.974 0.48 5.034 2.14 7.83 3.276 3.291 1.32 6.853 1.689 10.234 2.618 2.616 0.718 5.054 1.8 7.525 2.974 1.036 0.495 1.639 1.572 2.887 0.465 4.235-21.019 5.959-29.442 5.366-37.742-0.415-5.77-2.114-11.84-2.827-17.587z"></path>
    <path fill="#000000" d="M598.192 348.607c-9.611-3.261-19.087-6.361-28.064-11.391-3.884-2.177-7.637-4.655-11.436-7.082 0.291 0.132 0.567 0.297 0.86 0.413 4.374 1.828 8.66 3.512 12.848 5.864 6.937 3.895 14.536 5.733 21.618 9.229 2.946 1.454 5.879 3.011 8.82 4.492-1.547-0.515-3.105-1.001-4.644-1.526zM743.192 367.19c-1.73 2.119-2.675 4.854-4.487 7.008-1.915 2.28-3.085 4.737-4.531 6.971 0.224-1.422 0.554-2.838 1.077-4.257 0.838-2.286 1.452-5.104 2.451-7.481-0.964 2.013-1.717 3.815-3.943 5.607-1.771 1.424-3.549 2.611-5.734 3.2-4.036 1.099-8.853 0.371-12.987 0.371-5.312-0.007-9.917-0.25-15.123-1.233-7.763-1.452-15.518-3.061-23.327-4.433-8.655-1.533-16.781-4.537-25.211-7.192-6.23-1.954-12.446-3.927-18.663-5.901-4.095-1.533-8.232-2.944-12.183-4.848-10.907-5.273-21.65-11.323-32.768-15.971-8.013-3.343-16.126-4.819-23.856-9.14-3.83-2.14-7.307-3.541-11.541-4.477-1.085-0.245-2.121-0.591-3.171-0.908-5.887-3.274-11.688-6.485-17.951-9.023-17.441-7.060-34.077-16.938-51.327-24.625-14.923-6.654-29.913-15.183-45.703-18.811 1.183 1.771 3.647 1.852 5.325 2.824 2.695 1.565 4.789 4.007 7.405 5.69 3.073 1.976 6.547 2.722 9.824 4.138 3.606 1.556 5.794 3.689 8.911 6.124 11.925 9.317 25.376 17.042 38.703 23.452 9.678 4.663 19.528 8.477 29.121 13.397 9.355 4.804 19.271 7.245 27.92 13.517 6.626 4.802 13.959 7.885 20.85 12.159 5.529 3.415 11.124 6.741 16.794 9.906 23.32 13.028 48.464 20.472 72.163 31.943 5.51 2.672 10.51 6.213 16.226 8.558 6.573 2.716 13.596 3.372 20.116 6.396 5.028 2.34 9.667 5.069 14.739 7.297 2.464 1.085 5.761 3.96 8.417 3.076 0.851-2.568 0.271-5.29 1.267-8.013 0.163-0.436 0.389-0.847 0.588-1.276 2.425 1.541 4.963 2.544 5.959 0.686 0.178-0.775 0.224-1.557 0.147-2.355 0.258-0.347 0.528-0.686 0.812-1.010 0.259-0.797 0.707-1.763 0.747-2.714 0.115-2.87-0.211-5.961 0.217-8.994 0.788-5.51 2.293-11.037 3.239-16.488 0.666-3.791 2.219-7.392 3.25-11.074 0.476-1.719 0.384-4.973 1.366-6.285-4.802 4.507-4.961 4.346-5.126 4.19z"></path>
    <path fill="#000000" d="M731.632 305.017c-2.067-0.115-3.059-0.621-4.987-1.379-2.557-1.003-5.201-0.716-7.783-1.181-3.23-0.582-5.477-1.793-8.905-1.852-4.42-0.082-8.773-0.641-13.208-0.545-4.036 0.065-6.17-0.871-9.724-2.419-9.499-4.138-18.59-9.281-27.892-14.009-25.237-12.845-47.090-32.034-69.765-49.584-7.108-5.495-14.078-11.287-21.525-16.201-4.882-3.217-9.845-6.181-14.786-9.274-2.451-1.533-5.516-2.892-8.43-4.448 1.645 1.342 3.297 2.662 4.956 3.99 6.321 5.054 13.238 9.149 19.509 14.313 8.799 7.238 17.812 14.063 26.802 20.96 5.332 4.095 11.053 7.488 16.417 11.478 4.73 3.512 9.118 7.371 13.913 10.787 6.99 4.98 13.67 10.351 20.546 15.477 10.703 7.989 21.551 16.916 32.933 23.695 5.868 3.497 11.371 6.337 16.662 10.948 4.73 4.123 10.371 6.713 15.59 9.952 3.217 1.999 6.573 3.38 9.608 5.785 2.325 1.858 4.439 3.489 7.134 4.669 2.178 0.953 11.006 6.713 13.462 5.401 0.827-3.462-0.31-7.142-0.302-10.624 0-3.4-0.866-6.743-0.68-10.129 0.25-4.403 1.876-8.623 2.366-12.999 0.163-1.446 0.951-4.272 0.462-5.673-8.534 3.172-10.446 2.966-12.374 2.863z"></path>
    <path fill="#000000" d="M534.601 195.926c0.806 1.033 1.785 1.867 2.807 2.64-0.792-0.996-1.533-1.939-2.807-2.64z"></path>
    <path fill="#000000" d="M537.412 198.566c0.312 0.389 0.601 0.775 0.985 1.181 1.678 1.763 3.912 3.128 6.237 4.375-1.415-1.159-2.807-2.345-4.268-3.432-0.951-0.716-1.976-1.387-2.953-2.123z"></path>
    <path fill="#000000" d="M746.35 203.934c-1.018-1.211-5.379-0.501-7.525-0.707-1.631-2.214-5.901-3.239-7.889-4.618-3.938-2.729-7.815-4.95-11.923-7.739-4.379-2.979-8.807-5.681-13.451-8.085-3.185-1.652-5.304-4.205-8.323-6.070-7.103-4.389-12.481-10.564-19.603-15.049-2.629-1.669-5.464-2.642-7.941-4.655-2.484-2.021-4.268-4.713-6.884-6.639-2.562-1.897-4.795-3.801-7.188-5.976-1.639-1.498-6.369-7.414-8.655-6.839-0.528 3.195 6.956 9.398 8.931 11.641 3.324 3.771 7.386 5.94 10.981 9.311 2.695 2.523 4.85 5.458 7.539 8.093 3.191 3.129 6.706 6.042 10.142 8.92 4.077 3.409 8.629 8.033 13.088 10.631 4.405 2.568 8.992 4.618 13.034 7.924 3.832 3.128 7.247 7.097 10.855 10.557 2.57 2.464 5.768 6.839 9.401 7.288 0.51-0.428 0.879-0.731 1.323-1.107 1.188 1.756 2.39 3.497 3.799 4.781 2.629 2.397 2.611-1.092 4.288-2.996 1.678-1.911 3.322-4.094 5.377-5.495z"></path>
    <path fill="#000000" d="M777.892 708.845c-2.801 3.622-5.464 5.201-8.953 8.012-24.339 19.608-54.384 27.901-84.392 27.474-8.369-0.126-16.595 1.548-24.953 1.748-7.704 0.185-15.322-0.525-23.018 0.273-17.255 1.785-34.526 1.262-51.874 1.262-14.747 0-29.175 0.472-43.874 1.616-16.655 1.283-33.074 1.616-49.781 1.616h-96.341c-15.051 0-30.093-0.074-45.136 0.037-0.853 0.007-3.562 0.045-6.573-0.089 2.781 0.996 5.551 2.051 8.211 2.891 9.724 3.069 19.456 5.364 29.392 7.237 10.069 1.888 19.312 6.205 29.577 7.371 12.341 1.387 24.437 3.505 36.502 6.825 8.343 2.294 16.212 4.767 24.82 5.665 11.634 1.217 23.19 3.955 34.876 4.131 21.531 0.31 43.101-0.080 64.631-0.080h58.513c8.938 0 18.525 1.071 27.377-0.28 13.436-2.058 27.034-3.696 40.444-6.071 7.922-1.394 15.804-2.789 23.698-4.138 0.833 0.080 1.672 0.080 2.51 0.17 5.703 0.591 11.66 1.808 17.381 1.873 2.768 0.030 5.477-0.516 8.245-0.45 2.853 0.065 5.629 0.531 8.495 0.384 3.753-0.176 7.498-0.052 11.232-0.236 6.917-0.34 13.781-1.041 20.678-1.874 4.333-0.516 8.708-0.501 13.023-1.099 5.529-0.767 10.881-2.553 16.345-3.335 4.459-0.635 9.374-0.76 13.812-0.959 1.739-0.082 3.015 0.716 4.783-0.2-7.783-17.89-13.227-25.798-16.616-34.416-1.988-5.068-3.778-9.436-5.204-14.689-0.721-2.619-1.645-5.179-2.188-7.857-0.363-1.844-0.245-3.535-1.678-4.839-1.461 1.041-2.451 2.413-3.317 3.866-1.302-3.836-2.583-7.679-3.652-11.613-0.662-2.413-1.982-4.515-2.649-6.882-0.623-2.162-0.337-4.559-0.972-6.751-1.038-3.592-2.121-6.979-2.94-10.675-1.302-5.829-3.688-10.941-3.619-16.975-0.147 5.901 1.439 10.955 1.433 17.042 0 7.127-1.214 12.565-4.268 18.96-3.309 6.935-9.559 9.325-13.985 15.057z"></path>
    <path fill="#000000" d="M343 750.79c-3.528-1.262-7.082-2.428-10.485-2.9 0.165 2.014 5.709 2.685 10.485 2.9z"></path>
    <path fill="#000000" d="M875.924 884.288c-1.071-5.194-2.933-10.047-4.005-15.249-0.951-4.603-2.959-8.329-4.464-12.682-1.487-4.293-2.095-8.853-3.925-12.999-1.791-4.066-4.943-10.158-5.379-14.659-2.695 0.916-4.83 7.127-6.534 9.597-1.248 1.823-2.616 3.535-3.938 5.283-1.302 0.863-2.549 1.823-3.706 3.114-4.042 4.515-9.281 6.139-13.701 10.173-8.119 7.399-16.549 15.19-26.108 20.258-5.733 3.040-12.083 4.678-18.114 6.787-7.287 2.553-14.178 5.931-21.657 7.753-13.293 3.239-26.286 8.535-39.487 12.276-16.775 4.758-33.363 10.086-49.987 15.625-7.915 2.64-16.317 5.415-24.469 6.942-4.863 0.916-9.469 1.099-14.258 2.64-5.69 1.823-11.046 4.036-16.92 5.054-11.183 1.925-22.363 4.051-33.601 5.593-13.18 1.823-26.187 5.525-39.375 6.876-4.003 0.413-8 1.003-11.997 1.674-3.423-0.022-6.838-0.052-10.245-0.052-19.788 0-39.997-1.447-59.731 0.273-11.145 0.973-22.139 3.031-33.35 3.084-6.804 0.030-13.609-0.133-20.407-0.126-25.025 0.015-50.043 0-75.062 0 17.951-0.015-40.405 0.406-22.693 4.051 1.798 0.37-2.062 2.723-0.237 2.965-6.791 0.399 2.009 1.453-4.837 1.461-9.533 0 47.051-1.963 37.513-2.037-6.706-0.059-13.067 1.438-19.714 1.733 46.319 0.161 92.657 0.597 138.956-0.022 4.989-0.065 9.904-0.819 14.805-1.704 23.327-0.050 46.655-0.176 69.982 0.059 20.541 0.214 41.18-3.129 61.659-6.846 1.91-0.096 3.817-0.176 5.72-0.465 10.662-1.602 21.577 0.582 32.136-1.984 12.135-2.959 24.508-2.065 36.89-3.32 7.255-0.731 14.423-0.015 21.67-0.236 7.817-0.251 15.11-3.38 22.982-3.49 12.811-0.17 25.582-0.671 38.239-2.751 8.582-1.408 17.912-0.421 26.565-0.325 4.869 0.067 9.209-1.497 14.026-1.733 4.781-0.236 9.658 0.082 14.461 0.082 10.618 0 21.881 1.328 32.305-1.181 6.456-1.542 13.405-3.807 19.931-3.675-1.539-2.258-2.714-4.242-3.738-6.115 2.668 0.413 5.258 0.79 8.085 1.262l1.201-0.281c1.804-7.119-1.75-15.787-3.045-22.656-1.25-6.632-1.090-13.405-2.444-20.029z"></path>
    <path fill="#000000" d="M737.703 369.435c0.376-0.777 0.773-1.572 1.309-2.429-0.515 0.716-0.931 1.543-1.309 2.429z"></path>
    <path fill="#000000" d="M600.348 184.722c-4.064-2.794-10.201-8.617-15.281-8.529 4.889 5.866 12.275 10.742 18.347 14.875 3.549 2.419 7.161 5.201 10.563 7.902 1.969 1.563 2.849 3.4 4.592 4.935 1.335 1.181 3.045 1.431 4.42 2.486 6.052 4.581 11.725 9.435 17.367 14.423 5.258 4.641 10.168 9.192 15.889 13.125 2.987 2.065 6.25 3.313 9.433 5.039 3.575 1.954 6.784 4.361 10.227 6.567 5.649 3.621 11.825 6.139 17.461 9.663 2.049 1.292 3.652 3.526 5.694 4.907 2.597 1.748 5.397 3.070 8.198 4.383 0.449 0.464 0.851 0.987 1.348 1.402 2.188 1.813 4.513 3.12 6.632 5.061 2.102 1.939 4.164 4.292 6.404 6.027 2 1.543 4.452 2.538 6.587 3.858 1.062 0.636 2.134 1.248 3.217 1.83 0.376 0.501 0.786 0.966 1.214 1.407 3.593 1.394 4.541-1.726 5.518-4.906 0.608-1.978 1.711-6.728 0.132-8.315-0.858-4.626-3.052-5.664-4.513-5.738-0.115-1.882-0.819-3.447-2.827-4.294-5.775-2.434-11.634-4.071-17.098-7.288-6.111-3.591-12.817-6.756-19.132-10.438-7.941-4.626-15.235-10.497-23.196-15.014-5.397-3.061-10.384-7.053-15.967-9.7-4.711-2.236-10.173-4.737-14.6-7.689-5.252-3.504-10.423-6.771-15.757-10.121-3.956-2.486-8.072-4.529-12.070-6.825-4.366-2.501-8.562-6.124-12.797-9.031z"></path>
    <path fill="#000000" d="M727.806 242.377c1.183 1.337 2.863 3.165 3.615 3.261 0.925 0.132 3.178-1.925 3.699-2.546 0.629-0.745 1.327-2.434 1.837-3.356 0.595-1.092 0.423-1.939 1.289-2.929 0.649-0.745 1.915-1.268 2.701-1.83-3-1.682-5.621-2.994-7.959-4.057-1.281-1.127-2.866-1.897-4.262-2.64-3.467-1.867-6.652-4.95-10.232-6.456-4.908-2.065-8.134-5.916-12.876-8.293-6.467-3.23-12.394-7.162-18.445-11.339-7.678-5.288-16.239-9.103-23.58-14.953-6.42-5.128-14.469-9.555-21.629-13.273-5.293-2.751-9.25-6.404-14.126-9.671-2.536-1.698-5.369-2.486-7.214-5.215 2.165 4.995 7.729 8.925 11.443 12.424 4.155 3.903 7.696 9.215 12.235 12.541 3.039 2.221 5.443 3.402 8.093 6.478 1.519 1.763 3.080 3.932 4.949 5.29 2.542 1.843 4.565 2.648 6.956 4.809 1.492 1.357 2.992 2.382 4.565 3.512 4.123 2.965 8.569 6.003 12.481 9.354 1.637 1.402 2.965 3.085 4.591 4.492 2.583 2.236 5.873 3.182 8.482 5.225 2.742 2.138 4.533 4.678 7.539 6.559 2.939 1.828 5.616 3.504 8.211 5.894 2.881 2.64 10.585 11.389 14.977 10.247-0.469-0.31 0.912-1.815 2.662-3.526z"></path>
    <path fill="#000000" d="M714.924 161.831c-0.938-1.159-1.889-2.303-2.861-3.417-1.732-1.622-3.554-3.135-5.327-4.72-7.735-6.943-16.039-13.429-24.642-18.902 4.049 4.574 8.634 8.617 12.719 13.132 2.49 2.744 5.931 4.626 8.343 7.34 2.067 2.345 3.171 4.331 5.616 6.433 6.58 5.673 12.771 11.753 19.304 17.483 3.072 2.694 6.322 5.149 9.394 7.843 1.6 1.402 3.165 3.4 4.963 4.626 1.070 1.461 2.080 2.974 3.309 4.301 3.615 3.895 4.109 0.797 7.023-2.102 2.345-2.338 4.526-4.515 7.266-6.461l-2.134-8.004c-1.757 1.261-3.085 2.242-5.034 2.915-1.936 0.679-3.018 0.59-4.405 0.098-5.392-3.571-11.417-6.070-16.84-9.93-1.989-1.424-4.077-2.583-6.152-3.851-2.412-1.461-4.090-3.326-6.447-4.898-1.5-0.259-2.868-0.886-4.095-1.882z"></path>
    </svg>