<svg xmlns="http://www.w3.org/2000/svg" viewBox="205.981 -48.485 580.983 1122.221">
    <path fill="#000000" d="M578.813 991.233c-0.711-0.71-10.131-1.807-20.934-2.436-14.533-0.847-21.058-1.959-25.082-4.276-2.991-1.722-5.443-3.682-5.449-4.355-0.017-2.025-12.139-7.45-19.027-8.516-3.544-0.548-8.91-2.879-11.925-5.179s-7.441-4.673-9.834-5.274c-2.393-0.601-5.229-2.15-6.302-3.442s-3.718-2.35-5.879-2.35c-2.161 0-6.244-2.263-9.073-5.030s-5.823-5.030-6.651-5.030c-0.828 0-1.997-1.547-2.597-3.437s-3.668-6.014-6.819-9.165c-3.151-3.151-5.728-6.911-5.728-8.358s-1.046-4.3-2.326-6.343c-4.978-7.947-6.416-20.157-4.417-37.509 2.224-19.302 6.922-32.213 13.191-36.252 18.702-12.048 23.384-14.543 29.096-15.509 3.566-0.603 8.837-2.27 11.713-3.704 4.648-2.318 5.436-2.329 7.074-0.085 1.014 1.387 3.727 3.103 6.029 3.812s5.534 2.706 7.184 4.435c1.649 1.73 3.966 3.145 5.147 3.145 3.012 0 16.163 11.533 16.163 14.176 0 1.198 1.132 3.118 2.514 4.266 3.462 2.873 3.502 24.877 0.053 29.437-3.215 4.251-3.245 13.179-0.053 15.828 1.383 1.147 2.514 3.804 2.514 5.903 0 7.087 16.449 12.925 27.818 9.873 3.206-0.862 3.459-1.938 2.929-12.458-0.895-17.751-5.222-52.397-7.19-57.574-0.97-2.552-1.764-7.959-1.764-12.018 0-7.792-3.9-17.96-8.801-22.947-1.613-1.642-2.933-3.974-2.933-5.182s-2.189-4.435-4.864-7.172c-2.676-2.737-5.127-6.84-5.449-9.12-0.562-3.984-1.007-4.126-11.482-3.652-5.993 0.271-12.907 1.279-15.362 2.239-7.904 3.091-55.242-1.816-60.211-6.242-1.563-1.392-6.368-2.379-11.736-2.41-5.319-0.028-10.438-1.074-12.343-2.514-1.79-1.354-4.828-2.461-6.752-2.461s-4.986-1.017-6.804-2.26c-1.819-1.243-5.732-2.728-8.695-3.299s-8.546-3.326-12.406-6.122c-3.86-2.796-7.855-5.083-8.878-5.083-2.832 0-11.047-8.185-11.047-11.006 0-1.369-2.049-3.267-4.553-4.22s-9.106-6.503-14.669-12.336c-5.564-5.832-12.707-12.013-15.874-13.734s-7.128-4.45-8.801-6.064c-1.674-1.613-4.214-2.933-5.646-2.933s-3.391-2.263-4.356-5.030c-1.022-2.932-2.944-5.030-4.607-5.030-3.883 0-6.877-3.289-6.877-7.553 0-1.942-1.902-6.109-4.227-9.261s-4.983-8.767-5.906-12.48c-0.923-3.712-2.546-8.258-3.606-10.103-4.333-7.538-6.212-30.644-6.266-77.101-0.056-47.047 1.947-70.643 6.372-75.068 1.044-1.044 1.898-2.915 1.898-4.156s2.64-7.897 5.868-14.79c3.227-6.893 5.868-14.762 5.868-17.487 0-3.459 1.289-5.798 4.271-7.752 2.349-1.539 5.328-5.327 6.619-8.417s4.085-6.437 6.207-7.437c3.877-1.827 11.485-15.197 11.432-20.089-0.017-1.441 2.234-4.789 5.001-7.439s5.030-6.505 5.030-8.568c0-2.062 2.452-7.013 5.45-11.002s6.942-10.085 8.766-13.545c1.824-3.46 5.784-8.258 8.801-10.664s5.484-5.362 5.484-6.571c0-1.209 3.412-5.115 7.581-8.678 6.621-5.66 7.704-7.534 8.556-14.799 0.718-6.127 0.046-10.955-2.552-18.321-1.94-5.5-3.527-11.397-3.527-13.102s-0.924-4.75-2.054-6.764c-2.139-3.814-5.238-15.697-8.114-31.122-0.925-4.96-2.788-10.597-4.139-12.528s-2.457-5.936-2.457-8.904c0-2.968-0.654-5.8-1.453-6.294s-1.809-6.385-2.244-13.092c-0.435-6.706-2.029-14.578-3.542-17.493-2.403-4.629-2.768-13.431-2.886-69.574-0.074-35.35 0.391-67.522 1.033-71.49 1.921-11.87 5.113-19.507 8.887-21.262 1.957-0.91 3.559-2.53 3.559-3.6 0-3.322 8.963-12.349 12.263-12.349 1.724 0 5.125-1.567 7.559-3.48 4.049-3.185 5.763-3.38 20.188-2.299 8.67 0.65 17.737 2.212 20.149 3.47s8.988 2.293 14.613 2.299c5.625 0.007 12.415 0.707 15.088 1.557s7.692 2.017 11.154 2.592c7.81 1.297 11.895 5.531 18.133 18.802 2.68 5.702 5.636 10.838 6.569 11.415s1.696 2.335 1.696 3.907c0 1.573 1.508 5.675 3.352 9.115s3.352 7.081 3.352 8.089c0 2.304 6.329 7.847 11.36 9.948 2.098 0.877 4.287 2.925 4.865 4.552s2.256 4.36 3.729 6.073c2.326 2.705 2.679 9.769 2.679 53.647 0 43.984-0.356 51.076-2.746 54.724-1.51 2.305-3.248 7.055-3.862 10.553-0.816 4.646-2.223 6.783-5.217 7.922-3.338 1.269-4.108 2.736-4.141 7.887-0.023 3.481-0.825 9.346-1.784 13.034s-2.435 9.951-3.278 13.917c-0.844 3.967-2.681 8.849-4.084 10.851s-2.549 5.304-2.549 7.339c0 3.572-11.611 22.744-15.068 24.88-0.933 0.577-1.696 3.581-1.696 6.677 0 4.201-1.162 6.476-4.583 8.968-4.322 3.148-4.465 3.666-2.514 9.060 1.138 3.147 2.069 8.028 2.069 10.846s1.061 6.005 2.358 7.081c1.297 1.076 2.715 5.507 3.151 9.845s2.493 12.414 4.57 17.947c2.077 5.532 4.62 17.201 5.65 25.931 1.868 15.831 1.888 15.877 7.209 17.394 4.373 1.247 6.153 0.879 9.866-2.042 2.492-1.959 6.126-3.59 8.076-3.622 1.95-0.038 5.432-1.137 7.737-2.455 3.314-1.895 12.865-2.408 45.627-2.455 42.049-0.057 45.812 0.397 56.638 6.884 1.383 0.829 4.967 2.633 7.963 4.011 3.547 1.629 5.449 3.697 5.449 5.921 0 2.242 1.627 3.985 4.733 5.068 2.749 0.958 6.717 4.788 9.464 9.133 2.857 4.521 5.976 7.483 7.876 7.483 1.828 0 3.984 1.93 5.149 4.611 1.102 2.536 3.662 6.874 5.691 9.639s4.232 8.047 4.897 11.736c0.665 3.688 2.615 10.317 4.332 14.731s3.124 11.819 3.124 16.456c0 4.637 0.9 10.078 2.001 12.093s2.092 8.566 2.204 14.559c0.124 6.618 1.313 13.004 3.029 16.263 1.554 2.951 2.826 7.981 2.826 11.179s2.075 9.836 4.611 14.752c4.215 8.172 4.657 10.809 5.148 30.733l0.537 21.794-5.148 4.924c-3.968 3.796-5.148 6.375-5.148 11.257 0 4.569-1.337 7.868-4.798 11.841-3.066 3.518-5.21 8.304-5.938 13.253-0.627 4.261-2.497 10.408-4.156 13.662-4.749 9.315-15.149 22.749-18.413 23.785-3.431 1.089-9.269 8.485-10.999 13.935-0.652 2.057-2.485 3.74-4.072 3.74s-7.91 4.904-14.053 10.897c-6.142 5.993-12.305 10.897-13.693 10.897s-5.387 1.945-8.886 4.322c-7.144 4.853-7.505 8.221-1.722 16.042 2.526 3.416 3.78 8.347 4.516 17.749 0.56 7.161 1.936 14.666 3.056 16.68s2.038 5.959 2.038 8.767c0 3.957 2.032 7.104 9.044 14.004 8.576 8.44 12.715 16.633 12.742 25.222 0.004 1.671 2.585 8.46 5.733 15.088 7.834 16.496 9.835 35.859 6.855 66.334-1.186 12.128-2.032 14.762-6.199 19.28-2.654 2.877-8.31 9.382-12.57 14.452s-8.824 9.861-10.143 10.642c-5.752 3.411-43.687 7.573-46.192 5.068zM505.001 679.156c1.462-0.93 1.103-3.633-1.387-10.452-1.848-5.059-3.912-12.72-4.588-17.025s-2.023-8.831-2.994-10.059c-0.971-1.227-2.216-11.059-2.767-21.847-0.889-17.418-1.571-20.747-6.096-29.709-2.839-5.623-5.095-12.743-5.095-16.076 0-5.285-2.145-10.473-9.615-23.26-1.139-1.95-2.082-5.191-2.095-7.204-0.023-3.693-5.212-6.697-8.286-4.798-4.795 2.963-11.064 22.923-13.247 42.171-0.638 5.633-2.112 11.388-3.275 12.788-2.487 2.997-0.366 10.116 4.629 15.528 1.702 1.844 3.349 5.239 3.66 7.544 0.426 3.151 1.711 4.323 5.176 4.721 2.536 0.292 4.611 1.271 4.611 2.176s3.583 5.052 7.963 9.216l7.963 7.57-3.958 3.247c-5.722 4.693-10.255 4.023-17.722-2.622-3.625-3.227-7.913-5.866-9.529-5.866-1.933 0-3.118-1.531-3.468-4.481-0.389-3.285-1.873-4.91-5.56-6.086-8.682-2.771-10.897-5.871-10.903-15.259-0.007-8.675-4.017-36.572-5.633-39.187-0.487-0.787-1.337-9.559-1.89-19.492-0.876-15.723-0.583-18.964 2.256-25.035 1.793-3.835 3.755-9.837 4.357-13.337 0.758-4.399 2.234-6.802 4.779-7.783 2.025-0.781 5.945-4.475 8.711-8.207s6.727-7.569 8.801-8.527c5.045-2.327 4.754-5.515-1.257-13.813-3.852-5.317-5.030-8.748-5.032-14.655-0.002-7.507-0.223-7.837-8.382-12.419-6.396-3.592-8.38-5.653-8.38-8.703 0-2.197-0.655-4.401-1.456-4.896s-1.935-3.892-2.519-7.547c-0.585-3.656-1.744-7.068-2.575-7.582s-3.427 2.332-5.767 6.324c-2.34 3.993-5.429 8.234-6.865 9.427s-2.611 3.88-2.611 5.974c0 2.093-1.035 4.204-2.3 4.689s-3.943 4.277-5.951 8.426c-2.008 4.149-4.746 8.452-6.082 9.561s-2.431 2.745-2.431 3.636c0 0.89-5.568 8.217-12.372 16.282-17.014 20.166-19.71 26.747-19.738 48.175-0.017 12.412 0.667 18.094 2.522 20.956 1.4 2.159 3.078 8.83 3.73 14.824s2.211 12.385 3.463 14.204c1.252 1.819 2.277 4.933 2.277 6.92s1.132 4.552 2.514 5.7c1.604 1.331 2.514 5.037 2.514 10.235 0 7.398 0.67 8.807 7.282 15.302 9.951 9.776 25.743 22.114 29.239 22.842 4.177 0.871 7.067 3.608 7.067 6.694 0 3.973 13.176 15.338 17.781 15.338 2.17 0 6.793 1.139 10.273 2.532s9.719 3.108 13.865 3.812c5.955 1.012 7.647 2.042 8.060 4.91 0.287 1.996 1.796 3.965 3.352 4.375 4.867 1.284 32.907 1.148 34.98-0.17zM579.308 632.504c2.305-4.558 5.767-10.532 7.695-13.276s4.762-8.92 6.3-13.726c1.537-4.806 4.676-12.274 6.974-16.596s4.178-9.539 4.178-11.594c0-2.055 1.058-4.614 2.351-5.688s2.764-5.126 3.268-9.007c4.394-33.802 5.853-42.83 7.384-45.691 1.378-2.575 1.064-4.17-1.427-7.247-1.757-2.169-3.194-4.917-3.194-6.106s-4.058-5.87-9.018-10.402l-9.018-8.242-9.842 1.406c-5.413 0.773-19.067 1.856-30.34 2.407-14.375 0.702-21.072 1.692-22.418 3.315-1.056 1.272-3.669 2.314-5.807 2.314-5.5 0-5.917 1.656-2.325 9.252 1.735 3.671 3.181 7.525 3.213 8.565s1.189 2.829 2.572 3.977c1.383 1.147 2.519 3.692 2.525 5.654 0.004 1.962 1.137 5.728 2.514 8.369s2.504 6.456 2.504 8.476c0 2.020 1.91 6.262 4.244 9.427s5.283 9.157 6.551 13.318c3.218 10.554 7.282 19.717 9.296 20.962 0.936 0.578 1.702 6.19 1.702 12.47 0 6.802 1.356 15.661 3.352 21.914 1.844 5.772 3.352 11.932 3.352 13.689 0 4.261 5.019 11.74 7.358 10.964 1.024-0.339 3.748-4.346 6.053-8.904zM444.185 142.995c-0.18-25.096-0.751-27.387-9.787-39.244-3.162-4.149-5.799-8.772-5.861-10.273-0.131-3.209-4.121-6.952-5.714-5.36-0.607 0.607-1.103 10.31-1.103 21.562 0 24.604 3.48 37.874 12.573 47.938 3.228 3.573 5.869 7.312 5.869 8.307s0.943 1.491 2.095 1.099c1.552-0.528 2.052-6.751 1.928-24.030z"></path>
    </svg>